<?xml version="1.0" encoding="iso-8859-1"?>
<!-- Generator: Adobe Illustrator 23.0.0, SVG Export Plug-In . SVG Version: 6.00 Build 0)  -->
<svg version="1.1" xmlns="http://www.w3.org/2000/svg" xmlns:xlink="http://www.w3.org/1999/xlink" x="0px" y="0px"
	 viewBox="0 0 800 600" style="enable-background:new 0 0 800 600;" xml:space="preserve">
<g id="Layer_3">
	<rect x="48.498" y="147.128" style="fill:#EDCDBD;" width="709.376" height="296.75"/>
	<path style="fill:#41004F;" d="M453.607,125h-96.48c-4.408,0-7.982-3.574-7.982-7.982V95.732c0-4.408,3.574-7.982,7.982-7.982
		h96.48c4.408,0,7.982,3.574,7.982,7.982v21.286C461.589,121.426,458.015,125,453.607,125z"/>
</g>
<g id="Layer_4">
	<path style="fill:#FFFFFF;" d="M48.019,271.155c12.33-3.119,25.42-0.012,37.202,4.777c13.236,5.38,25.602,12.894,36.475,22.163
		c28.307-5.023,58.128-1.145,84.209,10.952c8.442,3.915,16.647,8.79,22.75,15.815l-179.953,0.114L48.019,271.155z"/>
	<path style="fill:#FFFFFF;" d="M47.602,413.882c44.587-3.731,97.557,8.603,137.028,29.674l-135.893,0.323
		c-0.075-3.451-0.445-9.822-1.105-13.209L47.602,413.882z"/>
	<path style="fill:#FFFFFF;" d="M207.461,204.214c12.86-16.777,37.35-23.47,56.955-15.566c5.382-3.834,11.692-6.133,18.01-8.07
		c10.926-3.35,22.447-5.766,33.75-4.074c17.094,2.559,31.46,14.134,43.204,26.816L207.461,204.214z"/>
	<path style="fill:#FFFFFF;" d="M464.487,271.15c22.317-15.599,51.288-20.884,78.549-20.756c2.592,0.012,7.714,0.606,7.714,0.606
		s5.035-1.971,7.48-2.706c19.039-5.721,38.56-10.575,58.437-10.9c19.877-0.325,40.309,4.19,56.463,15.776
		c7.071,5.071,14.959,11.371,20.619,17.98H464.487z"/>
	<path style="fill:#FFFFFF;" d="M686.644,187.545c20.445-14.374,46.548-17.244,71.519-16.219l-0.042,16.398L686.644,187.545z"/>
	<path style="fill:#FFFFFF;" d="M543.805,443.613c11.349-12.106,26.672-21.268,42.361-26.675
		c28.061-9.67,59.549-12.601,87.168-1.732c24.031-17.08,54.862-24.293,83.976-19.647l0.012,48.054H543.805z"/>
</g>
<g id="Layer_5">
	<path style="fill:#FFB476;" d="M131.316,438.048l77.273,0.13c7.793-23.707,8.388-49.075,12.067-73.757
		c0.932-6.25,2.146-12.679,5.692-17.909s10.024-8.974,16.162-7.472l108.21-0.488c2.771,0.903,4.975,3.367,5.564,6.221
		c0.286,1.387,0.214,2.819,0.127,4.232c-0.467,7.61-1.312,15.197-2.533,22.723c2.057,0.029,3.701-1.822,4.372-3.767
		c0.671-1.945,1.58-4.71,2.062-6.711c0.496-2.062,0.583-3.307,1.362-5.28c1.041-2.636,1.704-5.431,3.031-7.935
		c3.12-5.889,10.741-10.021,17.358-9.223l94.25-0.261c1.821-0.009,5.208,0.258,7.938,0.573c3.25,0.375,5.855,0.78,8.062,2.125
		c4.416,2.691,3.982,9.721,3.562,14.875c-1.172,14.378-2.728,27.999-5.54,42.148c-2.81,14.142-7.251,27.959-13.207,41.09
		c2.851-0.537,5.769-0.712,8.664-0.522C497.278,413.764,499,386,500.947,357.878c0.264-3.811,1.131-7.662,3.035-10.974
		c3.151-5.483,9.885-8.657,16.12-7.6l101.065-0.532c12.834,0,13.206,5.79,14.127,10.297c0.92,4.508,0.583,9.812,0.024,14.378
		c-4.4,35.949-13.486,71.322-26.955,104.942c-1.04,2.597-2.153,5.255-4.122,7.243c-1.968,1.988-3.241,2.868-6.741,2.868L476,478.875
		c-0.835-0.447-2.533-1.93-3.369-2.377c-0.552-0.296-1.142-0.6-1.767-0.56c-0.445,0.028-0.858,0.228-1.263,0.415
		c-3.536,1.625-6.587,3.524-10.476,3.397l-145.292-1.417l-117.208,1.417c-13.709-5.207-27.336-12.466-40.015-19.835l-42.841-0.05
		c-1.477,0.009-2.768-0.779-3.102-2.282c-0.334-1.504,0.151-2.98,0.995-4.268c2.341-3.576,4.724-7.187,7.881-10.069
		C122.699,440.365,127.042,438.025,131.316,438.048z"/>
	<path style="fill:#E9AAA7;" d="M380.179,298.551c-0.255,1.693,0.959,3.205,1.63,4.78c1.074,2.521,0.815,5.541,2.292,7.849
		c1.195,1.868,3.339,2.952,4.595,4.779c1.31,1.906,1.483,4.367,1.341,6.675c-0.142,2.309-0.554,4.628-0.247,6.92
		c0.071,0.527,0.226,1.116,0.694,1.368c0.323,0.174,0.714,0.14,1.079,0.101c1.129-0.12,2.259-0.24,3.389-0.36
		c0.276-0.029,0.561-0.058,0.824,0.031c0.415,0.139,0.681,0.532,0.917,0.901c1.345,2.101,2.689,4.202,4.034,6.303
		c1.151,1.798,2.419,3.698,4.387,4.524c1.889,0.792,4.101,0.419,5.938-0.487c1.837-0.906,3.384-2.294,4.945-3.62
		c3.977,1.981,8.763,1.189,12.983-0.203c5.988-1.976,11.603-5.075,16.466-9.089c-5.698-5.723-11.59-11.76-14.003-19.467
		c-0.78-2.492-1.174-5.105-2.138-7.532c-2.191-5.516-7.223-9.588-12.811-11.585c-5.589-1.997-11.695-2.111-17.589-1.416
		c-6.164,0.727-12.512,2.472-16.997,6.763C381.107,296.552,380.344,297.456,380.179,298.551z"/>
	<path style="fill:#E9AAA7;" d="M353.623,411.264c2.007-1.645,3.411-3.889,5.023-5.922c2.123-2.679,4.635-5.021,7.135-7.351
		c2.24-2.087,4.692-4.278,7.73-4.66c2.55-0.321,5.084,0.71,7.282,2.042c1.591,0.963,3.123,2.143,4.028,3.768
		c1.526,2.741,0.95,6.246-0.561,8.994c-1.512,2.749-3.835,4.941-5.969,7.241c-0.904,0.974-1.791,1.991-2.359,3.192
		c-1.342,2.836-0.708,6.163-0.987,9.288c-0.086,0.96-0.313,2.004-1.074,2.596c-0.761,0.592-2.17,0.317-2.305-0.637
		c-0.075,1.24-0.157,2.512-0.67,3.644c-0.201,0.443-0.494,0.883-0.944,1.067c-0.45,0.185-1.073-0.004-1.201-0.474
		c-0.406,0.884-1.005,1.903-1.978,1.928c-0.743,0.019-1.361-0.589-1.715-1.242c-0.354-0.654-0.545-1.394-0.967-2.006
		c-0.433-0.63-1.076-1.078-1.68-1.546c-3.173-2.464-5.538-5.798-7.855-9.08c-0.335-0.475-0.676-0.961-0.847-1.517
		c-0.284-0.922-0.068-1.918,0.196-2.846c-0.838-0.026-1.698-0.056-2.471-0.378c-0.774-0.323-1.455-1.007-1.524-1.842
		c-0.067-0.817,0.447-1.569,1.033-2.142C351.757,412.581,352.743,411.985,353.623,411.264z"/>
	<path style="fill:#E9AAA7;" d="M245.464,413.919c0.055-1.89,0.156-3.818,0.844-5.578c1.927-4.924,7.821-7.225,10.267-11.912
		c2.176,13.715,4.353,27.429,6.529,41.144c-1.309-0.739-2.401-1.801-3.477-2.852c-0.089,0.463-0.292,0.904-0.588,1.271
		c-0.071,0.088-0.152,0.176-0.26,0.21c-0.201,0.064-0.404-0.077-0.576-0.199c-1.221-0.866-2.751-1.139-4.139-1.699
		c-3.65-1.474-6.208-4.953-7.431-8.694C245.408,421.868,245.349,417.854,245.464,413.919z"/>
	<path style="fill:#D45C5C;" d="M356.192,364.444c8.183-4.694,14.422-15.075,22.683-20.444c6.213-4.039,14.324-5.289,18.961-11.069
		c1.791,3.576,3.911,7.294,7.466,9.126c3.555,1.832,8.136,0.193,10.042-3.12c11.609,1.673,23.929-2.826,31.727-11.586
		c8.085,4.208,16.44,7.895,24.997,11.033c4.911,1.801,10.205,3.646,13.302,7.861c4.391,5.978,2.753,14.3,0.741,21.439
		c-6.415,22.775-14.674,45.024-24.53,66.535c-6.373-1.858-12.746-3.715-19.119-5.573c-1.752-0.511-3.518-1.027-5.132-1.88
		c-3.172-1.676-5.531-4.521-8.246-6.866c-10.118-8.738-24.771-10.119-37.998-8.178c-3.254,0.478-6.834,0.762-10.087,0.276
		c4.28-3.661,6.026-9.336,2.653-13.847s-10.368-6.098-15.091-3.028c0.125-4.375,14.513-11.661,23.645-11.099
		C383.307,373.211,370.109,366.035,356.192,364.444z"/>
	<path style="fill:#47758C;" d="M303.159,457.879c-7.264-1.609-13.875-3.073-21.138-4.682c1.092,2.295,2.184,4.591,3.276,6.886
		c-1.939,0.618-4.107,1.987-6.046,2.605c-4.375-3.062-8.882-4.961-13.312-7.438c-0.586-0.328-1.244-0.885-1.625-1.438
		c-0.495-0.718-0.22-2.18-0.24-3.053c-0.4-17.54-5.307-34.658-7.108-52.111c-0.567-5.498-0.79-11.249,1.342-16.348
		c2.571-6.149,8.65-10.684,15.278-11.395c7.742-0.832,15.102,3.148,21.835,7.06c14.543,8.451,28.908,17.206,43.084,26.259
		c0.106-5.84,0.212-11.68,0.318-17.521c0.093-5.113,0.275-10.532,3.069-14.815c2.849-4.368,8.083-6.796,13.284-7.172
		s10.382,1.078,15.174,3.136c8.517,3.659,16.523,9.11,22.558,16.146c-7.521-0.971-14.86,2.943-21.289,6.964
		c-4.054,2.536-2.595,3.768-3.617,4.702c-9.422,8.615-10.417,10.875-11.5,12.917c-1.131,2.132-4.066,3.184-5.708,5
		c-0.24,0.266-0.954,0.916-1.083,1.25c-0.708,1.827,1.762,3.087,4.46,2.674c-1.855,1.586-0.303,4.568,1.291,6.416
		c3.249,3.764,4.661,5.313,8.103,7.952c0.382,0.293,2.293,4.085,2.747,4.248c0.555,0.199,1.169,0.034,1.758,0.079
		c1.237,0.094,2.198,1.077,3.008,2.016c7.694,8.911,13.176,19.717,15.824,31.188c-1.733,1.678-3.733,2.512-5.905,1.965
		c-1.315-1.592-0.344-4.111-1.241-5.97c-0.452-0.937-1.326-1.59-2.183-2.18c-5.742-3.951-12.25-6.785-19.055-8.298
		c0.098,1.753-0.05,3.951,0.048,5.704c-3.885-0.245-7.596,0.47-10.735,2.773c-4.732-1.195-8.23-5.475-9.656-10.143
		s-1.087-9.688-0.352-14.513c-4.333,0.023-8.666,0.045-13,0.068c-2.273,0.012-4.719,0.766-6.82-0.101
		c-1.863-0.769-3.285-2.915-4.769-4.278c-4.952-4.55-9.904-9.1-14.855-13.649c2.909,11.495,6.049,22.224,8.958,33.719
		c0.413,1.632,0.597,4.082,0.35,5.746c-0.248,1.665-1.33,3.323-2.966,3.718C304.415,461.984,303.675,460.048,303.159,457.879z"/>
	<path style="fill:#D7D7D7;" d="M282.082,453.271c1.13,2.26,2.29,4.506,3.479,6.736c-1.429,0.5-2.835,1.067-4.21,1.7
		c-0.75,0.345-1.51,0.723-2.069,1.332c-1.408,1.536-1.109,3.981-2.063,5.833c-1.023,1.986-3.273,2.954-5.347,3.783
		c-8.099,3.24-16.124,6.665-24.066,10.271c-1.295,0.588-2.622,1.204-3.602,2.235c-1.343,1.411-1.855,3.395-2.318,5.287
		c-0.355,1.451-0.71,2.975-0.333,4.42c0.378,1.445,1.755,2.747,3.227,2.492l141.649-0.123c-0.313-4.52-0.625-9.039-0.938-13.559
		c-0.163-2.359-0.475-5.011-2.342-6.463c0.625-0.766,1.27-1.571,1.482-2.537c0.212-0.966-0.16-2.138-1.079-2.504
		c-0.762-0.304-1.654,0.013-2.433-0.245c-1.15-0.381-1.559-1.816-1.509-3.027c0.05-1.211,0.375-2.46-0.012-3.609
		c-0.404-1.198-1.494-2.014-2.55-2.71c-5.585-3.684-11.922-6.223-18.506-7.415c0.037,1.803,0.073,3.605,0.11,5.408
		c-2.23-0.241-4.5-0.113-6.689,0.377c-1.445,0.323-2.904,0.832-3.978,1.852c-2.31,2.195-2.109,5.869-1.737,9.034
		c-9.678,5.459-19.505,10.655-29.465,15.582c-1.244,0.616-2.801,1.21-3.933,0.406c0.857-2.875-2.5-5.842-1.48-8.664
		c0.225-0.622,0.648-1.157,0.881-1.776c0.577-1.535-0.285-3.455-1.814-4.045c-0.761-0.293-1.633-0.29-2.335-0.707
		c-0.869-0.516-1.271-1.542-1.605-2.496c-1.27-3.628-2.42-7.299-3.447-11.003c-0.12-0.432-0.253-0.889-0.585-1.189
		c-0.29-0.262-0.687-0.362-1.067-0.454C294.969,455.94,288.51,454.823,282.082,453.271z"/>
	<path style="fill:#47758C;" d="M411.649,411.674c-5.879-1.576-11.972-2.831-18.021-2.16c-3.484,0.387-6.882,1.41-10.078,2.849
		c-2.893,1.303-5.774,3.095-7.215,5.922c-1.574,3.087-1.134,6.786-0.46,10.185c0.653,3.291,1.59,6.725,3.99,9.069
		c2.141,2.091,5.205,3.026,8.195,3.139c2.94,0.11,6.451-0.269,8.249,2.059c0.142,0.184,0.274,0.387,0.473,0.508
		c0.448,0.274,1.022,0.035,1.494-0.196c3.853-1.886,8.011-3.146,12.263-3.716c3.629-0.486,7.303-0.472,10.964-0.457
		c11.707,0.049,23.414,0.097,35.122,0.146c0.697-2.09,1.976-3.983,3.656-5.408c-6.269-1.824-12.538-3.647-18.807-5.471
		c-2.07-0.602-4.165-1.215-6.019-2.314c-2.926-1.733-5.035-4.538-7.615-6.752C423.297,415.182,417.432,413.223,411.649,411.674z"/>
	<path style="fill:#D45C5C;" d="M329.058,385.699c0.989,0.065,1.809,0.836,2.79,0.981c0.119-0.852,0.678-1.587,1.339-2.138
		c0.661-0.551,1.429-0.955,2.148-1.427c1.361-0.895,2.553-2.047,3.494-3.377c-0.544,3.892-0.455,7.841-0.365,11.77
		c0.094,4.083,0.187,8.165,0.281,12.248c-0.235,0.154-0.546,0.048-0.802-0.066c-4.268-1.896-7.934-4.897-11.922-7.327
		c-1.817-1.107-3.703-2.097-5.548-3.157c-3.177-1.824-6.232-3.855-9.203-5.999c1.203-0.262,2.454-0.063,3.665,0.16
		c1.869,0.344,3.738,0.745,5.637,0.81c1.899,0.064,3.858-0.229,5.498-1.189C327.022,386.429,327.956,385.627,329.058,385.699z"/>
</g>
<g id="Layer_6">
	<circle style="fill:#D45C5C;" cx="363.167" cy="94.747" r="1.491"/>
	<circle style="fill:#D45C5C;" cx="367.836" cy="94.747" r="1.491"/>
	<circle style="fill:#D45C5C;" cx="358.893" cy="97.059" r="1.491"/>
	<circle style="fill:#D45C5C;" cx="372.44" cy="97.059" r="1.491"/>
	<circle style="fill:#D45C5C;" cx="372.44" cy="101.684" r="1.491"/>
	<circle style="fill:#D45C5C;" cx="358.893" cy="101.684" r="1.491"/>
	<circle style="fill:#D45C5C;" cx="361.677" cy="105.202" r="1.491"/>
	<circle style="fill:#D45C5C;" cx="369.327" cy="105.202" r="1.491"/>
	<circle style="fill:#D45C5C;" cx="365.535" cy="105.202" r="1.491"/>
	<circle style="fill:#D45C5C;" cx="358.071" cy="108.819" r="1.491"/>
	<circle style="fill:#D45C5C;" cx="373.262" cy="108.819" r="1.491"/>
	<circle style="fill:#D45C5C;" cx="358.071" cy="113.225" r="1.491"/>
	<circle style="fill:#D45C5C;" cx="373.262" cy="113.225" r="1.491"/>
	<circle style="fill:#D45C5C;" cx="361.677" cy="116.71" r="1.491"/>
	<circle style="fill:#D45C5C;" cx="365.535" cy="116.71" r="1.491"/>
	<circle style="fill:#D45C5C;" cx="369.327" cy="116.71" r="1.491"/>
	<circle style="fill:#D45C5C;" cx="405.758" cy="101.684" r="1.491"/>
	<circle style="fill:#D45C5C;" cx="405.758" cy="115.79" r="1.491"/>
	<circle style="fill:#D45C5C;" cx="387.29" cy="94.834" r="1.491"/>
	<circle style="fill:#D45C5C;" cx="391.959" cy="94.834" r="1.491"/>
	<circle style="fill:#D45C5C;" cx="383.016" cy="97.147" r="1.491"/>
	<circle style="fill:#D45C5C;" cx="396.562" cy="97.147" r="1.491"/>
	<circle style="fill:#D45C5C;" cx="396.562" cy="101.772" r="1.491"/>
	<circle style="fill:#D45C5C;" cx="383.016" cy="101.772" r="1.491"/>
	<circle style="fill:#D45C5C;" cx="385.8" cy="105.29" r="1.491"/>
	<circle style="fill:#D45C5C;" cx="393.45" cy="105.29" r="1.491"/>
	<circle style="fill:#D45C5C;" cx="389.658" cy="105.29" r="1.491"/>
	<circle style="fill:#D45C5C;" cx="382.194" cy="108.907" r="1.491"/>
	<circle style="fill:#D45C5C;" cx="397.384" cy="108.907" r="1.491"/>
	<circle style="fill:#D45C5C;" cx="382.194" cy="113.313" r="1.491"/>
	<circle style="fill:#D45C5C;" cx="397.384" cy="113.313" r="1.491"/>
	<circle style="fill:#D45C5C;" cx="385.8" cy="116.798" r="1.491"/>
	<circle style="fill:#D45C5C;" cx="389.658" cy="116.798" r="1.491"/>
	<circle style="fill:#D45C5C;" cx="393.45" cy="116.798" r="1.491"/>
	<circle style="fill:#D45C5C;" cx="419.162" cy="94.867" r="1.491"/>
	<circle style="fill:#D45C5C;" cx="423.831" cy="94.867" r="1.491"/>
	<circle style="fill:#D45C5C;" cx="414.887" cy="97.18" r="1.491"/>
	<circle style="fill:#D45C5C;" cx="428.434" cy="97.18" r="1.491"/>
	<circle style="fill:#D45C5C;" cx="428.434" cy="101.805" r="1.491"/>
	<circle style="fill:#D45C5C;" cx="414.887" cy="101.805" r="1.491"/>
	<circle style="fill:#D45C5C;" cx="417.671" cy="105.323" r="1.491"/>
	<circle style="fill:#D45C5C;" cx="425.321" cy="105.323" r="1.491"/>
	<circle style="fill:#D45C5C;" cx="421.529" cy="105.323" r="1.491"/>
	<circle style="fill:#D45C5C;" cx="414.065" cy="108.94" r="1.491"/>
	<circle style="fill:#D45C5C;" cx="429.256" cy="108.94" r="1.491"/>
	<circle style="fill:#D45C5C;" cx="414.065" cy="113.346" r="1.491"/>
	<circle style="fill:#D45C5C;" cx="429.256" cy="113.346" r="1.491"/>
	<circle style="fill:#D45C5C;" cx="417.671" cy="116.831" r="1.491"/>
	<circle style="fill:#D45C5C;" cx="421.529" cy="116.831" r="1.491"/>
	<circle style="fill:#D45C5C;" cx="425.321" cy="116.831" r="1.491"/>
	<circle style="fill:#D45C5C;" cx="442.506" cy="94.834" r="1.491"/>
	<circle style="fill:#D45C5C;" cx="447.175" cy="94.834" r="1.491"/>
	<circle style="fill:#D45C5C;" cx="438.232" cy="97.147" r="1.491"/>
	<circle style="fill:#D45C5C;" cx="451.778" cy="97.147" r="1.491"/>
	<circle style="fill:#D45C5C;" cx="451.778" cy="101.772" r="1.491"/>
	<circle style="fill:#D45C5C;" cx="438.232" cy="101.772" r="1.491"/>
	<circle style="fill:#D45C5C;" cx="441.016" cy="105.29" r="1.491"/>
	<circle style="fill:#D45C5C;" cx="448.666" cy="105.29" r="1.491"/>
	<circle style="fill:#D45C5C;" cx="444.874" cy="105.29" r="1.491"/>
	<circle style="fill:#D45C5C;" cx="437.41" cy="108.907" r="1.491"/>
	<circle style="fill:#D45C5C;" cx="452.6" cy="108.907" r="1.491"/>
	<circle style="fill:#D45C5C;" cx="437.41" cy="113.313" r="1.491"/>
	<circle style="fill:#D45C5C;" cx="452.6" cy="113.313" r="1.491"/>
	<circle style="fill:#D45C5C;" cx="441.016" cy="116.798" r="1.491"/>
	<circle style="fill:#D45C5C;" cx="444.874" cy="116.798" r="1.491"/>
	<circle style="fill:#D45C5C;" cx="448.666" cy="116.798" r="1.491"/>
</g>
<g id="Layer_2">
	<g>
		<g>
			<path style="fill:#41004F;stroke:#3F1B4F;stroke-width:0.25;stroke-miterlimit:10;" d="M422.932,304.295
				c-0.249-0.763-0.356-1.526-0.308-2.327c0.055-0.907,0.685-2.087,1.733-2.036c0.113,0.005,0.129-0.161,0.026-0.192
				c-0.99-0.291-1.78,0.183-2.122,1.128c-0.399,1.102,0.038,2.497,0.52,3.491C422.823,304.442,422.961,304.383,422.932,304.295z"/>
			<path style="fill:#41004F;stroke:#3F1B4F;stroke-width:0.25;stroke-miterlimit:10;" d="M424.395,302.896
				c0.895,0.078,1.556,0.671,1.858,1.499c0.049,0.134,0.268,0.123,0.261-0.035c-0.048-1.108-1.07-1.798-2.126-1.517
				C424.357,302.85,424.366,302.893,424.395,302.896z"/>
			<path style="fill:#41004F;stroke:#3F1B4F;stroke-width:0.25;stroke-miterlimit:10;" d="M424.061,306.688
				c-0.063,0.003-0.084,0.104-0.016,0.115c0.603,0.101,1.167,0.318,1.349,0.956c0.063,0.219,0.011,0.716-0.134,0.892
				c-0.118,0.143-0.251,0.19-0.343,0.363c-0.073,0.138,0.084,0.333,0.23,0.23c0.282-0.2,0.598-0.227,0.752-0.572
				c0.144-0.323,0.105-0.724,0.018-1.056C425.71,306.831,424.739,306.656,424.061,306.688z"/>
			<path style="fill:#41004F;stroke:#3F1B4F;stroke-width:0.25;stroke-miterlimit:10;" d="M404.819,316.98
				c0.089-0.255-0.24-0.513-0.465-0.357c-1.6,1.11-3.861,1.697-5.526,0.489c-0.117-0.085-0.227,0.055-0.212,0.163
				C398.978,319.965,404.121,318.978,404.819,316.98z"/>
			<path style="fill:#41004F;stroke:#3F1B4F;stroke-width:0.25;stroke-miterlimit:10;" d="M409.971,331.531
				c-2.246-1.113-5.929-0.754-8.06,0.493c-0.04,0.024-0.023,0.087,0.024,0.087c1.472-0.004,2.929-0.292,4.409-0.299
				c0.274-0.001,0.545,0.018,0.817,0.037c-0.345,0.274-0.624,0.668-0.715,1.092c-0.434,2.013,1.374,3.057,3.058,2.452
				C411.115,334.815,411.758,332.417,409.971,331.531z"/>
			<path style="fill:#41004F;stroke:#3F1B4F;stroke-width:0.25;stroke-miterlimit:10;" d="M331.778,392.315
				c1.148,1.7,2.065,3.551,4.201,4.131c0.258,0.07,0.41-0.293,0.181-0.428c-1.619-0.956-3.123-2.3-4.296-3.769
				C331.825,392.201,331.744,392.264,331.778,392.315z"/>
			<path style="fill:#41004F;stroke:#3F1B4F;stroke-width:0.25;stroke-miterlimit:10;" d="M373.441,329.494
				c2.435-0.243,4.862-0.312,7.306-0.206c0.659,0.029,0.658-0.999,0-1.023c-1.975-0.073-3.946-0.037-5.915,0.099
				c1.676-1.602,3.339-3.227,5.085-4.746c0.378-0.329,0.065-0.941-0.392-0.946c-1.145-0.013-2.291-0.035-3.436-0.029
				c-0.91,0.005-2.247-0.202-2.365,0.407c-0.01,0.054-0.01,0.097,0,0.149c0.118,0.648,0.98,0.429,1.792,0.464
				c0.895,0.039,1.79,0.057,2.685,0.079c-1.676,1.658-3.417,3.257-5.123,4.88C372.776,328.91,372.987,329.539,373.441,329.494z"/>
			<path style="fill:#41004F;stroke:#3F1B4F;stroke-width:0.25;stroke-miterlimit:10;" d="M451.566,284.784
				c-3.593-0.215-7.186-0.429-10.778-0.645c2.981-2.084,5.896-4.255,8.717-6.555c0.409-0.333,0.059-0.994-0.412-0.994
				c-3.905,0.002-7.814-0.191-11.718-0.133c-0.521,0.008-0.493,0.732,0,0.789c3.334,0.385,6.704,0.454,10.062,0.49
				c-2.781,2.227-5.625,4.366-8.564,6.383c-0.47,0.322-0.291,1.022,0.286,1.056c4.136,0.248,8.271,0.5,12.407,0.75
				C452.301,285.969,452.296,284.828,451.566,284.784z"/>
			<path style="fill:#41004F;stroke:#3F1B4F;stroke-width:0.25;stroke-miterlimit:10;" d="M391.61,240.086
				c-4.953,0-9.894-0.238-14.844-0.304c-0.556-0.007-0.516,0.767,0,0.836c4.227,0.562,8.528,0.707,12.801,0.709
				c-4.869,3.259-9.743,6.512-14.613,9.77c-0.491,0.328-0.304,1.078,0.299,1.104c4.789,0.201,9.573,0.48,14.354,0.811
				c0.774,0.054,0.77-1.152,0-1.203c-4.175-0.277-8.353-0.501-12.532-0.701c4.95-3.288,9.896-6.582,14.849-9.866
				C392.425,240.91,392.252,240.086,391.61,240.086z"/>
			<path style="fill:#41004F;stroke:#3F1B4F;stroke-width:0.25;stroke-miterlimit:10;" d="M645.26,146.17v-0.114h-1.396v0.114
				H47.602v298.479h60.268c1.211,2.539,2.533,5.025,3.986,7.433c-0.18,0.281-0.361,0.562-0.538,0.845
				c-1.478,2.361-2.112,7.824,2.199,7.262c0.001,0,0.001-0.001,0.001-0.001c0.432,0.019,0.864,0.023,1.295,0.04
				c3.347,8.089,7.394,16.187,11.738,23.783c2.796,4.89,7.619,13.179,14.128,13.532c0.003,0,0.005,0.002,0.008,0.002
				c7.148,0.521,14.359,0.317,21.524,0.352c7.175,0.035,14.35,0.061,21.524,0.09c5.408,0.022,11.862,0.67,16.755-2.104
				c2.193-1.243,3.38-3.724,4.434-5.888c1.486-3.048,2.531-6.305,3.598-9.516c0.021-0.063,0.019-0.118,0.021-0.174
				c0.243-0.003,0.494-0.013,0.733-0.013c4.61,0.007,9.22,0.015,13.83,0.022s9.22,0.012,13.83,0.017
				c3.357,0.004,6.862,0.238,10.282,0.12c0.285,0.534,0.568,1.069,0.855,1.602c-3.609,1.816-6.984,4.435-6.237,8.547
				c-1.255,1.805-1.094,5.58,1.01,6.655c0.016,0.156,0.121,0.306,0.337,0.328c6.204,0.631,12.7,0.102,18.938,0.113
				c6.313,0.012,12.626,0.019,18.938,0.044c12.69,0.05,25.495,0.491,38.178-0.021c5.403,0.335,10.891,0.073,16.3,0.076
				c5.618,0.004,11.236,0.008,16.854,0.026c11.22,0.037,22.441,0.05,33.661,0.069c0.257,0.077,0.58-0.008,0.7-0.329
				c0.6-1.605,0.719-3.213,0.379-4.89c-0.128-0.632-0.446-1.429-0.991-1.835c-0.024-0.109-0.078-0.211-0.169-0.281
				c1.053-2.868,1.278-7.504-0.158-10.733c0.307,0.027,0.63,0.002,0.953,0.011c0.155,0.005,0.313,0.019,0.471,0.032
				c0.062,0.101,0.117,0.207,0.179,0.307c1.476,2.871,3.148,5.645,4.923,8.319c1.734,2.612,4.072,6.084,7.179,7.33
				c4.491,2.801,11.228,2.142,16.2,2.247c10.173,0.214,20.349,0.258,30.524,0.243c4.924-0.007,9.848-0.033,14.771-0.064
				c4.337-0.027,9.09,0.477,13.367-0.34c3.475-0.664,5.778-2.521,7.728-5.407c2.698-3.994,4.669-8.618,6.892-12.886
				c0.004-0.007,0.003-0.013,0.006-0.02c0.273,0.001,0.547,0.001,0.819,0.004c4.66,0.044,9.32,0.035,13.98,0.01
				c4.66-0.025,9.32-0.086,13.979-0.171c2.439-0.045,4.927-0.008,7.407-0.054c1.577,2.789,3.228,5.534,4.939,8.242
				c1.756,2.779,3.485,5.741,6.086,7.819c0.074,0.059,0.152,0.091,0.23,0.108c2.244,2.066,5.659,2.99,8.818,3.235
				c8.026,0.622,16.296,0.067,24.346,0.062c7.981-0.005,16.043,0.322,24.014-0.061c6.686-0.321,9.13-6.795,11.916-11.934
				c7.055-13.01,12.346-26.964,15.891-41.325c0.073-0.294,0.143-0.588,0.212-0.882H758.77V147.565h0.01v-1.396H645.26z
				 M406.824,147.565h119.715v191.061c-1.615,0.007-3.229,0.021-4.842,0.057c-3.515,0.079-7.297,0.406-10.525,1.914
				c-5.416,2.53-8.724,7.563-9.493,13.267c-1.2,6.206-1.542,12.502-2.048,18.804c-0.619,7.701-1.451,15.385-2.579,23.028
				c-1.328,8.997-3.15,17.937-5.612,26.694c-1.989-0.509-3.975-1.027-5.962-1.543c5.282-15.484,8.086-31.992,9.755-48.197
				c0.453-4.4,0.779-8.812,1.03-13.227c0.227-3.988,0.631-8.107,0.176-12.089c-0.673-5.888-5.397-8.094-10.611-8.483
				c-0.377-0.102-0.757-0.192-1.139-0.264c-1.957-0.37-3.995-0.369-5.976-0.478c-1.998-0.111-4.063-0.314-6.068-0.146
				c-2.779-1.028-5.618-1.936-8.335-3.037c-5.75-2.33-11.093-5.386-16.714-7.962c-0.14-0.098-0.335-0.123-0.502,0.017
				c-0.6,0.505-1.215,1.007-1.839,1.505c-3.997-4.091-7.812-7.983-10.68-13.035c-1.338-2.357-2.352-4.813-3.111-7.341
				c0.836,0.079,1.616-0.328,2.076-1.054c0.091-0.143,0.078-0.275,0.017-0.382c-0.004-0.011-0.003-0.023-0.008-0.034
				c-1.054-2.3-2.059-4.43-2.659-6.873c0.57-4.881-0.677-9.969-3.293-14.115c-0.246-5.57-2.407-11.779-7.485-13.757
				c1.229-0.538,2.575-0.9,4.121-1.028c0.029-0.002,0.052-0.018,0.073-0.036c0.037-0.019,0.058-0.049,0.057-0.089
				c0.013-0.059-0.012-0.117-0.081-0.136c-1.505-1.971-4.117-2.943-6.597-2.807c0.972-0.345,2.019-0.599,3.174-0.729
				c0.137-0.015,0.195-0.232,0.035-0.261c-0.006-0.001-0.013-0.001-0.019-0.002c-1.913-1.725-4.013-1.866-6.008-1.158
				c0.14-0.806,0.203-1.617,0.093-2.418c-0.009-0.069-0.067-0.086-0.121-0.072c-0.043-0.019-0.094-0.023-0.133,0.015
				c-0.606,0.589-1.16,1.243-1.659,1.944c-1.728-2.06-3.835-3.821-6.225-4.796V147.565z M483.21,430.297
				c1.757,0.517,3.514,1.035,5.275,1.542c-0.764,2.225-1.561,4.44-2.422,6.631c-0.519,0.012-1.038,0.025-1.557,0.035
				C486.061,435.996,485.279,432.409,483.21,430.297z M385.705,441.583c0.418,1.101,0.826,2.214,1.239,3.328
				c-1.281-0.488-2.611-0.871-3.878-1.161c-0.62-1.504-1.224-3.013-1.814-4.528c1.372,0.637,2.776,1.205,4.202,1.71
				C385.537,441.15,385.622,441.366,385.705,441.583z M303.582,484.641c2.11-2.13,4.788-3.694,7.447-5.029
				c0.019-0.01,0.028-0.024,0.044-0.034c0.006-0.003,0.012-0.004,0.018-0.007c0.28,1.671,0.756,3.297,0.957,4.992
				c0.097,0.816,0.071,1.636,0.042,2.455c-0.01,0.276-0.43,2.811-0.45,2.969c-4.045,0.076-8.089,0.151-12.134,0.224
				C300.882,488.35,301.904,486.335,303.582,484.641z M298.88,490.222c-4.962,0.089-9.924,0.161-14.886,0.224
				c-1.718-5.305-7.692-6.865-12.675-7.201c-3.715-0.25-7.507-0.051-11.226,0.058c-1.272,0.037-11.009,1.108-11.612-0.345
				c2.602-1.452,5.655-2.445,8.322-3.473c1.869,2.967,7.561,1.805,10.329,1.265c5.56-1.085,10.66-3.825,16.14-5.223
				c3.407-0.87,6.271-0.554,9.414,0.963c2.32,1.12,4.462,2.407,6.927,3.203c2.47,0.797,5.098,0.86,7.661,0.66
				c0.116-0.009,0.228-0.021,0.343-0.03C303.662,482.528,299.372,485.925,298.88,490.222z M310.74,478.709
				c-0.227,0.152-0.474,0.277-0.73,0.39c-0.041,0.019-0.08,0.037-0.121,0.056c-2.005,0.823-4.749,0.561-6.71,0.295
				c-2.494-0.338-4.809-1.133-7.056-2.256c-3.402-1.7-6.557-3.646-10.526-3.052c-4.417,0.66-8.535,2.41-12.705,3.93
				c-2.25,0.82-4.533,1.495-6.884,1.954c-2.098,0.41-6.713,1.13-8.317-0.888c0.012-0.005,0.025-0.01,0.037-0.015
				c0.694-0.283,1.391-0.562,2.09-0.84c0.011,0.004,0.018,0.011,0.03,0.014c3.934,0.921,7.867-0.563,11.541-1.9
				c4.431-1.613,8.705-3.604,13.219-4.99c2.482-0.762,4.955-1.261,7.546-0.794c2.292,0.413,4.454,1.563,6.659,2.28
				c1.934,0.63,3.992,0.815,6.014,0.81c0.991-0.003,1.98-0.15,2.964-0.273l0.487-0.055
				C311.427,473.066,313.935,476.562,310.74,478.709z M227.606,400.366c-5.729,2.233-7.411,8.795-6.42,14.371
				c0.299,3.592,1.498,7.259,2.375,10.496c1.158,4.279,2.546,8.497,4.053,12.67c-6.315,0-12.329,0.024-18.271,0.044
				c1.378-4.242,2.528-8.549,3.543-12.889c0.177-0.195,0.25-0.459,0.157-0.683c2.337-10.173,3.86-20.549,5.213-30.877
				c1.049-8.011,1.985-16.037,3.087-24.041c0.908-6.595,1.591-13.454,4.032-19.699c1.193-3.051,3.102-5.807,5.781-7.719
				c3.26-2.327,7.488-2.543,11.345-2.594c8.175-0.108,16.362,0.043,24.538,0.068c16.573,0.051,33.146,0.107,49.719,0.162
				l28.338,0.093c1.593,0.237,3.115,0.509,4.478,1.625c2.127,1.742,1.743,5.698,1.785,8.149c0.089,5.196-0.595,10.392-1.227,15.538
				c-0.004,0.03,0.006,0.051,0.006,0.078c-2.121,0.674-4.119,1.713-5.877,3.201c-3.194,2.703-4.836,6.673-5.653,10.755
				c-0.014,0.015-0.03,0.023-0.043,0.041c-0.954,1.353-1.882,2.579-3.25,3.535c-0.993,0.694-2.101,0.832-3.027,1.643
				c-0.576,0.505-0.287,2.325-1.62,1.733c-0.934-0.414-1.266-0.943-2.324-0.987c-0.475-0.02-1.171,0.378-1.518,0.665
				c-1.684,1.393-2.962,2.077-5.182,2.047c-3.296-0.044-6.561-1.048-9.864-0.992c-3.833-2.367-7.664-4.735-11.48-7.122
				c-5.426-3.394-10.879-6.801-17.173-8.298c-5.854-1.393-12.302-0.734-17.635,2.066c-8.43,4.427-9.736,13.508-9.16,22.396
				c-1.197,1.58-2.373,3.168-3.525,4.775c-2.256-0.319-4.72-0.233-7.123,0.109C240.129,398.496,232.919,398.295,227.606,400.366z
				 M232.906,451.28c-1.32,2.791-2.924,5.432-5.68,7.047c-2.065,1.21-4.648,1.209-6.991,1.204c1.794-0.767,3.419-2.001,4.721-3.415
				c2.358-2.562,4.622-5.864,6.107-9.228C231.665,448.358,232.278,449.822,232.906,451.28z M373.131,389.351
				c-0.778,0.393-1.668,0.92-2.496,1.549c-1.478-4.53-3.162-8.986-4.721-13.488c-0.028-0.08-0.149-0.049-0.128,0.035
				c1.178,4.765,2.389,9.5,4.024,14.133c0.001,0.002,0.002,0.002,0.002,0.004c-0.738,0.674-1.363,1.436-1.713,2.264
				c-0.383-0.73-0.905-1.414-1.339-2.071c-0.815-1.232-1.673-2.432-2.505-3.652c-0.028-0.041-0.092-0.005-0.067,0.039
				c0.723,1.284,1.368,2.618,1.981,3.958c0.489,1.069,0.871,2.311,1.634,3.223c0,0.02-0.003,0.039-0.002,0.058
				c-1.664,1.252-3.187,2.779-4.662,4.18c-1.166,1.107-2.335,2.269-3.412,3.504c-1.523,1.417-2.712,3.072-3.366,5.101
				c-1.478,1.506-2.896,2.878-4.6,4.181c-0.871,0.666-2.541,1.688-2.524,2.997c0.024,1.779,2.636,3.244,4.26,2.653
				c-0.123,0.406-0.24,0.814-0.332,1.229c-0.558,2.525,1.883,4.489,3.289,6.218c1.983,2.44,3.865,5.488,6.823,6.834
				c0.377,0.655,0.754,1.312,1.076,1.999c0.315,0.671,0.703,1.897,1.5,2.198c0.558,0.211,1.02,0.205,1.409,0.071
				c3.55,9.246,8.064,18.214,12.262,27.203c-2.97-2.406-6.455-4.122-9.868-5.811c-4.083-2.02-8.22-2.851-12.664-3.727
				c-4.829-0.952-9.712-2.233-14.604-2.776c-1.234-0.137-2.733,0.449-3.435,1.441c-0.388-1.487-0.593-3.06-0.619-4.685
				c-0.107-6.658,0.668-13.397,0.871-20.057c0.409-13.372-0.034-26.685-0.307-40.05c-0.13-6.359,0.665-12.972,4.949-17.971
				c4.286-5,11.55-5.503,17.613-4.573c12.493,1.915,21.146,10.778,30.807,18.04c-0.09-0.006-0.182-0.016-0.271-0.021
				c-5.534-0.328-12.274,0.685-16.401,4.748c-0.513,0.169-1.012,0.367-1.501,0.579c-0.568-3.513-1.305-7.003-2.006-10.491
				c-0.016-0.081-0.154-0.064-0.146,0.02C372.299,382.078,372.626,385.728,373.131,389.351z M355.56,470.028
				c-1.427-0.559-2.758-1.332-4.114-2.041c-0.187-0.098-0.381,0.139-0.227,0.294c0.931,0.942,2.258,1.928,3.686,2.654
				c-1.803-0.096-3.613-0.116-5.374-0.001c-0.997,0.065-1.94,0.344-2.851,0.731c0.456-1.949,0.156-3.977,0.521-5.961
				c0.548-2.975,3.737-3.96,6.312-4.284c2.706-0.341,5.518-0.024,8.169,0.52c1.312,0.269,2.547,0.681,3.735,1.307
				c3.371,1.775,0.085,5.263-1.177,6.817c-0.219-0.002-0.442-0.001-0.677,0.013c-1.527,0.089-3.07,0.52-4.597,1.103
				C357.893,470.674,356.672,470.463,355.56,470.028z M356.837,472.077c-1.888,0.867-3.727,1.85-5.446,2.598
				c-4.519,1.965-9.395,3.615-14.37,3.369c1.07-0.562,2.125-1.123,3.148-1.659c2.795-1.463,5.573-3.599,8.658-4.344
				C351.328,471.438,354.155,471.841,356.837,472.077z M307.585,453.521c-0.695-3.465-1.747-6.871-2.671-10.28
				c-0.36-1.326-0.721-2.652-1.08-3.978c2.417,0.413,5.007,0.2,7.442,0.218c2.971,0.022,5.943,0.026,8.915,0.022
				c5.823-0.009,11.647-0.077,17.469-0.188c-0.061,1.18-0.118,2.361-0.186,3.541c-0.189,3.304-0.406,6.56,0.174,9.838
				c0.449,2.538,1.64,4.83,3.295,6.736c-5.283-0.041-10.566-0.017-15.849-0.018c-5.675-0.001-11.58-0.446-17.235,0.143
				C307.923,457.566,307.89,455.04,307.585,453.521z M267.487,455.604c-0.475-0.189-0.938-0.407-1.387-0.652
				c-1.118-0.585-1.538-1.236-1.503-1.819c0-0.006,0-0.013,0-0.019c0.101-1.286,2.429-2.231,4.418-1.375
				c1.126,0.294,2.229,0.64,3.365,0.899c2.075,0.474,4.199,0.67,6.318,0.827c1.087,0.081,2.171,0.154,3.252,0.243
				c0.217,0.863,0.719,1.65,1.106,2.452c0.593,1.232,1.117,2.498,1.716,3.726c-1.914,0.665-3.78,1.497-5.435,2.406
				c-0.032,0.018-0.053,0.046-0.084,0.065C275.734,459.489,271.638,457.406,267.487,455.604z M278.691,462.793
				c-0.569,0.594-0.874,1.414-1.1,2.196c-0.537,1.857-0.807,3.475-1.611,5.16c-0.772,0.348-1.526,0.714-2.27,1.09
				c-1.587-3.048-3.262-7.158-5.352-10.757c2.161,0.024,4.323,0.06,6.484,0.107c0.025,0.001,0.042-0.009,0.065-0.012
				C276.169,461.314,277.425,462.061,278.691,462.793z M279.604,452.44c-3.878-0.215-7.417-0.926-11.155-1.907
				c-1.421-0.373-2.882-0.121-3.827,0.788c0.024-12.459-2.5-24.91-4.604-37.128c-1.197-6.95-2.547-13.989-2.793-21.049
				c-0.248-7.112,1.864-14.381,8.089-18.418c5.554-3.601,13.058-3.606,19.23-1.93c6.448,1.751,12.15,5.862,17.743,9.362
				c11.976,7.495,23.839,15.228,35.988,22.441c0.028,0.989,0.066,1.98,0.074,2.965c0.065,7.846-0.05,15.693-0.323,23.534
				c-0.083,2.375-0.19,4.748-0.308,7.121c-5.842,0.114-11.684,0.183-17.526,0.202c-0.699,0.002-1.399-0.004-2.098-0.004
				c-3.269-3.093-6.577-6.145-9.895-9.186c-3.044-2.789-6.04-5.76-9.34-8.251c-0.857-3.041-1.805-6.154-2.936-9.215
				c0.707-2.09,0.974-4.244,0.785-6.448c-0.018-0.208-0.325-0.214-0.328,0c-0.023,1.841-0.334,3.591-0.901,5.304
				c-0.227-0.585-0.439-1.176-0.681-1.755c-0.183-1.359-0.457-2.708-0.809-4.044c1.147-5.207-0.313-11.137-2.724-15.674
				c-0.008-0.016-0.035-0.005-0.029,0.012c1.081,2.927,1.747,5.95,1.969,9.064c0.094,1.314,0.043,2.598-0.055,3.878
				c-2.838-8.238-8.415-15.894-13.804-22.174c-0.043-0.05-0.13,0.016-0.092,0.071c3.305,4.754,6.636,9.507,9.399,14.605
				c1.671,3.084,2.88,6.215,3.866,9.442c-2.669-4.987-6.161-9.417-11.024-12.515c-0.097-0.062-0.211,0.083-0.123,0.16
				c9.465,8.248,13.661,19.535,16.921,31.34c1.712,6.202,3.368,12.42,5.05,18.63c0.843,3.113,2.201,7.116,3.011,10.237
				c0.661,2.548,0.75,4.542,0.669,6.686c-1.475-1.261-4.393-1.567-5.79-1.829c-3.772-0.708-7.386-1.295-11.026-2.563
				C286.737,452.985,283.249,452.642,279.604,452.44z M254.261,427.301c0.038-0.073,0.061-0.156,0.044-0.255
				c-0.163-0.959-0.5-2.46-1.254-3.353c0.96,0.024,2.03-0.279,2.96-0.777c0.536,0.486,1.05,0.933,1.466,1.579
				c0.696,1.08,0.795,2.457,0.506,3.677c-0.372-0.199-0.787-0.361-1.258-0.466c-0.07-0.016-0.122,0.088-0.051,0.121
				c3.151,1.484,3.47,5.03,2.031,7.845c-0.945-0.769-1.93-1.534-2.943-2.21C257.072,431.187,256.367,428.53,254.261,427.301z
				 M258.729,422.921c1.069,0.758,1.601,1.688,1.982,2.764c0.232,1.515,0.453,3.032,0.669,4.549
				c-0.268-0.281-0.584-0.525-0.964-0.711c-0.082-0.04-0.144,0.069-0.071,0.121c0.561,0.403,0.915,0.943,1.174,1.539
				c0.258,1.846,0.502,3.694,0.725,5.545c-0.232-0.185-0.466-0.367-0.691-0.554c-0.538-0.447-1.043-0.958-1.607-1.378
				c0.705-2.246,0.441-4.809-1.316-6.207c0.046-0.045,0.084-0.1,0.101-0.18c0.436-2.02-0.306-4.837-2.378-5.695
				c0.596-0.366,1.119-0.803,1.475-1.289c0.066-0.09-0.057-0.178-0.139-0.139c-0.891,0.429-1.714,0.928-2.658,1.249
				c-0.657,0.223-1.336,0.257-2.007,0.35c0.185-0.199,0.361-0.418,0.516-0.67c0.772-1.253,1.343-2.657,2.078-3.954
				c0.557-0.67,1.053-1.288,1.787-1.809c0.514-0.365,1.145-0.591,1.692-0.91c0.453,2.785,0.9,5.566,1.335,8.347
				c-0.418-0.526-0.959-0.928-1.656-1.083C258.705,422.791,258.671,422.88,258.729,422.921z M258.976,436.602
				c0.106-0.015,0.208-0.073,0.279-0.194c0.219-0.373,0.396-0.774,0.552-1.186c0.326,0.445,0.722,0.848,1.1,1.24
				c0.444,0.46,0.918,0.98,1.462,1.357c0.079,0.686,0.162,1.372,0.235,2.059c-0.634,0.414-1.236,0.9-1.825,1.414
				c-0.229-0.762-0.595-1.51-0.877-2.236c-0.316-0.815-0.627-1.636-0.984-2.434C258.938,436.615,258.959,436.613,258.976,436.602z
				 M337.947,395.797c-1.638-2.417-3.767-4.576-5.348-7.028c-0.055-0.085-0.179-0.011-0.135,0.079
				c1.419,2.882,3.027,6.286,5.543,8.43c0.086,2.074,0.171,4.145,0.24,6.212c-8.247-5.419-16.646-10.622-25.05-15.811
				c2.514,0.598,5.214,0.831,7.707,1.096c1.275,0.136,2.49,0.04,3.723-0.291c1.372-0.369,3.126-2.831,4.589-2.191
				c1.471,0.643,2.654,1.841,3.509-0.231c0.819-1.984,2.359-1.829,3.751-3.033c0.675-0.583,1.251-1.23,1.792-1.911
				c-0.149,1.077-0.25,2.15-0.314,3.195C337.722,388.114,337.801,391.954,337.947,395.797z M316.692,438.416
				c-1.805-0.002-3.611,0.001-5.416-0.009c-2.508-0.014-5.161-0.296-7.648,0.099c-1.422-5.256-2.84-10.514-4.279-15.766
				c-0.038-0.139-0.08-0.282-0.118-0.422c2.628,2.655,5.537,5.08,8.286,7.594C310.595,432.726,313.643,435.572,316.692,438.416z
				 M339.39,454.308c0.755-2.795,4.525-1.529,6.585-1.122l5.847,1.156c2.102,0.416,4.205,0.827,6.308,1.243
				c-0.044,0.703,0.081,1.433,0.112,2.132c0.039,0.87-0.03,1.741-0.017,2.609c-0.41-0.028-0.801-0.051-1.159-0.072
				c-2.802-0.168-6.663-0.007-8.904,1.982c-0.236,0.209-0.44,0.431-0.632,0.659c-0.029-0.019-0.051-0.043-0.086-0.057
				C343.358,461.133,340.728,458.063,339.39,454.308z M367.354,463.449c-1.587-2.172-5.172-2.79-8.111-3.045
				c0.106-0.89,0.062-1.794,0.007-2.688c-0.039-0.626-0.082-1.327-0.259-1.958c1.06,0.211,2.121,0.419,3.18,0.639
				c6.091,1.262,12.402,4.842,17.282,8.769c-0.456,2.266-0.348,4.71,0.906,6.26c-1.153,0.257-2.269,0.638-3.207,0.965
				c-2.907,1.014-5.479,1.177-8.108-0.626c-1.233-0.845-2.311-1.375-3.57-1.59C367.159,468.229,369.096,465.834,367.354,463.449z
				 M380.388,465.831c0.033,0.006,0.066,0.01,0.098,0.01c0.027,0.057,0.054,0.115,0.08,0.172c0.752,1.635,1.495,3.369,2.273,5.129
				c-0.572-0.011-1.158,0.043-1.745,0.141C380.42,469.451,380.202,467.64,380.388,465.831z M380.499,437.271
				c-1.288-3.468-2.623-6.966-3.558-10.548c-0.563-2.154-0.609-4.266,0.05-6.396c0.276-0.893,0.74-1.658,1.292-2.359
				c-0.405,3.889,1.708,8.717,2.823,11.652c1.289,3.393,2.608,6.775,3.907,10.164c-1.369-0.535-2.747-1.043-4.133-1.527
				C380.755,437.929,380.622,437.602,380.499,437.271z M375.909,416.456c-0.077,0.094-0.1,0.193-0.089,0.282
				c-0.598,0.926-0.808,2.049-0.957,3.232c-0.266,2.111,0.373,8.911-1.872,10.309c-0.04-0.064-0.094-0.117-0.163-0.143
				c-2.538-0.951-2.034-6.955-2.158-9.076c-0.087-1.488-0.176-3.111-1.483-4.007c-0.036-0.025-0.08,0.023-0.059,0.059
				c0.986,1.658,0.145,9.763,1.867,12.638c0.094,0.922,0.058,1.667-0.149,2.617c-0.409,1.824-1.472,1.949-2.188,0.21
				c-0.246-0.6-0.492-1.2-0.739-1.8c-1.001-2.439-1.901-4.472-1.883-7.173c0.023-3.396,0.117-7.084-1.828-10.017
				c-0.042-0.063-0.138-0.023-0.121,0.051c0.724,3.343,1.139,6.543,1.092,9.965c-0.046,3.358,1.377,6.149,2.621,9.209
				c0.088,0.216,0.181,0.444,0.284,0.668c-0.002,0.014-0.009,0.024-0.009,0.039c0.242,1.533-1.2,3.154-2.441,1.543
				c-0.202-0.387-0.39-0.781-0.564-1.18c-0.424-0.922-0.883-1.812-1.398-2.686c-1.384-2.352-2.247-4.95-3.23-7.488
				c-0.829-2.14,0.208-5.389,0.321-7.675c0.107-2.17-0.239-4.27-1.124-6.251c-0.038-0.085-0.159-0.022-0.143,0.06
				c0.484,2.406,0.513,4.715,0.356,7.038c-0.256,0.631-0.492,1.267-0.835,1.868c-0.527,0.925-1.296,1.573-2.03,2.316
				c-0.114,0.115,0.029,0.264,0.161,0.209c0.927-0.394,1.846-1.218,2.514-2.192c-0.106,0.991-0.232,1.991-0.358,3.009
				c-0.15,1.205,0.59,2.473,1.003,3.546c0.6,1.559,1.157,3.138,1.875,4.648c0.158,0.333,0.33,0.659,0.508,0.982
				c-1.426-1.279-2.701-2.63-3.942-4.136c-0.994-1.206-1.973-2.424-2.951-3.643c-1.448-1.805-2.233-3.166-1.451-5.497
				c0.862-2.571,1.762-5.059,2.368-7.713c0.353-1.546,0.694-2.937,1.525-4.322c0.076-0.127,0.176-0.239,0.26-0.36
				c2.678-2.581,5.134-5.385,7.946-7.846c1.829-1.601,3.659-3.144,6.052-3.779c2.462-0.653,5.228,0.445,7.397,1.503
				c4.896,2.385,6.818,6.949,4.336,11.931C382.342,411.191,378.514,413.285,375.909,416.456z M353.786,417.121
				c-1.477,0.203-4.725-0.049-3.481-2.451c0.524-1.012,2.024-1.819,2.877-2.479c0.938-0.727,1.94-1.48,2.732-2.389
				c-0.309,1.263-0.571,2.539-0.933,3.791C354.636,414.785,354.185,415.946,353.786,417.121z M354.439,364.289
				c-1.034,0.099-2.055,0.276-3.056,0.522c0.812-6.55,1.876-13.495,0.908-20.075c-0.315-2.141-1.411-3.805-2.951-4.828
				c1.225,0.145,2.414,0.447,3.538,1.093c2.511,1.444,2.717,5.131,2.893,7.645c0.366,5.226-0.169,10.485-1.33,15.582
				C354.436,364.251,354.442,364.269,354.439,364.289z M239.168,411.422c-0.312,5.461,1.675,11.533,3.17,16.248
				c1.336,4.213,2.981,8.325,4.586,12.44c0.046,0.117,0.089,0.237,0.134,0.354c-2.01-1.051-4.044-2.046-6.088-2.967
				c-1.436-3.738-2.852-7.484-4.251-11.235c-1.115-2.991-2.342-5.959-2.742-9.149C233.533,413.573,235.742,410.636,239.168,411.422z
				 M247.715,442.208c0.484,1.299,0.967,2.605,1.471,3.906c-1.946-0.999-3.949-1.918-5.94-2.738
				c-0.618-1.556-1.212-3.122-1.815-4.684C243.434,439.973,245.558,441.15,247.715,442.208z M247.843,422.619l-0.617-5.564
				c-0.209-1.883-0.956-4.509-0.135-6.313c0.728-1.6,1.993-3.107,2.974-4.562c2.077-3.08,4.193-6.147,6.352-9.172
				c0.314,3.802,0.93,7.53,1.44,10.8c0.354,2.269,0.72,4.532,1.088,6.793c-0.794,0.246-1.584,0.909-2.195,1.402
				c-0.018,0.015-0.036,0.034-0.054,0.048c0.251-0.727-0.039-2.621-0.05-2.315c-0.089,2.616-1.982,4.729-3.037,7.015
				c-0.235,0.578-0.595,1.072-0.993,1.56c-0.869,1.067-2.244,0.817-2.76-0.498c-0.314-0.8-0.147-1.687,0.034-2.528
				c0.201-1.369,0.757-2.698,1.302-3.956c1.612-3.723,4.242-7.325,3.744-11.588c-0.009-0.081-0.115-0.08-0.125,0
				c-0.504,4.103-2.633,7.481-4.361,11.154c-0.87,1.85-2.604,5.877-1.138,7.859c0.842,1.138,1.911,1.293,2.85,0.805
				c0.284,0.53,0.663,0.995,0.888,1.578c0.222,0.578,0.333,1.197,0.438,1.808c-0.378-0.138-0.782-0.242-1.222-0.292
				c-0.114-0.013-0.125,0.159-0.026,0.192c1.258,0.411,2.287,1.243,3.014,2.33c0.19,0.725,0.524,1.172,0.469,1.785
				c-0.103,1.142-0.399,1.865-1.078,2.44c-1.301-1.328-2.712-2.968-3.948-4.357C248.854,426.974,248.15,425.39,247.843,422.619z
				 M254.712,449.726c2.809-3.611,6.324-7.252,7.98-8.991c0.433,4.25,0.74,8.521,0.846,12.829c0.005,0.205,0.105,0.34,0.237,0.421
				c0.595,1.748,3.62,2.692,4.87,3.258c1.569,0.71,3.08,1.521,4.574,2.364c-3.298-0.103-6.596-0.154-9.896-0.149
				c-1.92,0.003-3.841,0.03-5.76,0.066c-1.873,0.035-4.041,0.4-5.816-0.382c-2.525-1.113-0.348-5.114,2.8-9.202
				C254.621,449.89,254.679,449.816,254.712,449.726z M274.456,472.171c4.327-1.786,8.633-3.821,12.821-5.787
				c0.203-0.095,0.058-0.42-0.151-0.357c-3.192,0.962-6.531,2.136-9.75,3.509c0.479-0.853,0.794-1.79,1.004-2.847
				c0.34-1.717,0.443-2.876,2.214-3.854c1.422-0.785,3.134-1.296,4.659-1.859c2.799-1.033,6.614-2.399,9.433-0.939
				c2.979,1.544-0.364,7.349-0.823,10.013c-0.474-0.157-0.951-0.306-1.436-0.427c-4.822-1.206-10.36,1.444-14.729,3.197
				c-5.093,2.044-10.926,5.169-16.592,4.953C265.594,476.011,270.14,474.287,274.456,472.171z M300.736,472.317
				c-2.069-0.373-4.003-1.236-5.978-1.955c0.396-1.98,1.144-3.673,1.826-5.568c0.397-1.102,0.837-2.438,0.34-3.596
				c-1.222-2.844-4.24-3.015-6.951-2.623c-1.417,0.205-2.888,0.565-4.346,1.028c-0.393-1.025-0.882-2.012-1.371-2.994
				c-0.447-0.896-0.903-2.016-1.569-2.841c1.319,0.122,2.633,0.283,3.943,0.541c2.212,0.436,4.314,1.363,6.466,2.017
				c2.26,0.687,4.642,0.971,6.966,1.351c1.035,0.169,2.058,0.378,3.079,0.612c-0.056,0.053-0.097,0.123-0.084,0.222
				c0.644,4.728,2.265,9.446,4.146,13.844C305.062,472.453,302.954,472.717,300.736,472.317z M303.522,458.381
				c-0.002-0.006-0.007-0.006-0.009-0.011c0.008,0.002,0.016,0.003,0.024,0.005c0.735,0.168,1.448,0.407,2.137,0.716
				c2.761,1.537,1.094,3.651-0.452,4.445C304.662,461.819,304.106,460.1,303.522,458.381z M307.596,462.501
				c0.072,0.039,0.169-0.848,0.231-2.114c5.346,0.558,10.919,0.147,16.282,0.146c5.914-0.001,11.829,0.034,17.743-0.022
				c0.04,0,0.07-0.015,0.106-0.022c1.436,1.378,3.124,2.503,4.938,3.296c-1.368,2.379-1.045,5.434-0.905,8.2
				c-1.354,0.662-2.642,1.513-3.916,2.225c-1.887,1.054-3.814,2.036-5.754,2.992c-0.026-0.032-0.057-0.062-0.099-0.087
				c-2.22-1.341-4.823-2.144-7.218-3.133c-2.686-1.11-5.358-2.252-8.043-3.364c-4.999-2.07-9.909-4.372-14.938-6.369
				C306.74,463.76,307.273,463.184,307.596,462.501z M322.075,485.522c0.789-0.893,1.74-1.585,2.764-2.164
				c0.878,1.491,2.467,1.772,4.136,1.933c3.518,0.34,7.103,0.166,10.625-0.008c3.518-0.174,7.03-0.447,10.551-0.547
				c4.085-0.116,7.152,1.979,8.528,5.653c-1.998,0.003-3.996,0.007-5.993,0.005c-10.999-0.011-22.141-0.522-33.131,0.046
				C320.179,488.633,320.749,487.024,322.075,485.522z M356.37,485.348c-2.477-1.758-5.121-1.769-8.07-1.656
				c-3.869,0.148-7.73,0.456-11.6,0.594c-3.105,0.111-8.584,0.961-11.135-1.308c0.093-0.047,0.183-0.099,0.277-0.145
				c2.036-0.554,4.068-1.347,6.065-2.255c4.343,2.389,9.924,1.543,14.508,0.368c2.97-0.762,5.84-1.912,8.699-3.005
				c1.667-0.638,3.293-1.32,5.079-1.552c2.043-0.265,3.956,1.185,5.588,2.195c4.286,2.652,9.222,2.288,13.92,1.067
				c0.954-0.248,1.922-0.658,2.785-1.2c-2.266,3.178-2.456,8.359-2.909,11.951c-6.604-0.04-13.209-0.024-19.813-0.013
				C359.113,488.444,358.073,486.557,356.37,485.348z M381.628,483.688c0.36-1.983,1.165-3.75,1.83-5.619
				c2.441,3.882,2.488,7.956,1.527,12.378c-1.461-0.018-2.921-0.026-4.382-0.036C380.975,488.174,381.223,485.92,381.628,483.688z
				 M372.205,479.503c-4.564-0.138-7.553-4.146-12.014-4.209c-2.099-0.029-4.322,1.189-6.231,1.918
				c-2.296,0.877-4.599,1.719-6.953,2.426c-4.937,1.482-9.431,1.402-14.39,0.616c1.165-0.547,2.315-1.124,3.445-1.71
				c3.053,1.193,7.012,0.111,9.986-0.73c4.787-1.354,9.209-3.762,13.809-5.604c2.617-1.048,5.374-1.552,7.887,0.032
				c1.524,0.961,2.789,2.034,4.69,2.142c3.467,0.197,6.518-1.785,9.682-1.841c0.811,0.231,1.461,0.759,2.02,1.45
				c0.072,0.154,0.148,0.307,0.221,0.462C384.197,478.785,375.182,479.593,372.205,479.503z M383.081,410.535
				c1.183-1.523,2.156-3.176,2.753-4.979c1.405-4.242-0.651-7.879-4.176-10.147c-3.808-2.451-8.418-3.421-12.425-0.986
				c-0.16,0.097-0.315,0.204-0.472,0.307c0.772-2.4,3.824-4.061,5.837-5.05c2.563-1.26,5.07-1.603,7.891-1.705
				c0.189-0.007,0.25-0.316,0.047-0.345c-1.515-0.22-3.084-0.162-4.618,0.113c4.649-2.613,9.398-3.516,14.991-3.176
				c6.399,0.389,12.464,2.254,18.7,3.504c0.114,0.023,0.204-0.148,0.084-0.2c-2.145-0.933-4.429-1.688-6.772-2.3
				c6.419-0.062,12.531,2.182,19.012,2.137c4.041-0.028,7.15,1.92,10.415,4.072c3.438,2.266,6.291,4.982,8.757,8.269
				c0.086,0.115,0.265,0.018,0.196-0.114c-1.547-2.951-3.918-5.376-6.548-7.392c-0.458-0.351-0.933-0.708-1.415-1.064
				c2.142,0.629,4.211,1.307,6.29,2.275c2.14,0.997,4.193,2.203,6.399,3.049c0.089,0.034,0.171-0.103,0.095-0.163
				c-3.927-3.095-9.486-5.948-14.521-6.457c-0.032-0.003-0.058,0.005-0.086,0.009c-1.162-0.778-2.377-1.5-3.634-2.076
				c0.01-0.011,0.023-0.018,0.032-0.031c2.671-3.929,8.785-3.043,12.943-3.233c3.629-0.166,7.292-1.064,10.561-2.648
				c0.072-0.035,0.021-0.153-0.054-0.128c-5.342,1.704-10.378,1.919-15.927,2.087c-0.173,0.005-0.351,0.012-0.532,0.02
				c1.56-0.778,2.982-1.816,4.112-3.155c0.937-1.11,1.423-2.547,1.894-3.895c0.92-2.636,2.001-4.604,3.944-6.621
				c3.052-3.169,5.41-6.564,8.098-10.035c2.803-3.621,6.153-6.764,9.143-10.221c0.076-0.088-0.04-0.204-0.127-0.127
				c-2.07,1.819-4.023,3.777-5.897,5.806c1.202-3.449,2.832-6.915,4.32-11.053c0.021-0.057-0.075-0.1-0.1-0.042
				c-1.947,4.506-4.392,8.832-6.249,13.357c-0.324,0.372-0.654,0.739-0.972,1.114c-2.652,3.128-4.774,6.637-7.687,9.54
				c-2.46,2.451-4.088,4.783-5.221,8.077c-1.526,4.438-4.489,5.973-8.339,7.619c-1.997,0.428-3.861,1.324-4.645,3.228
				c-0.003,0.008-0.002,0.015-0.004,0.023c-0.886-0.36-1.79-0.642-2.71-0.807c-1.649-0.297-3.41-0.11-5.078-0.173
				c-2.437-0.092-4.86-0.649-7.243-1.129c-3.737-0.754-7.696-1.521-11.468-0.651c-3.114-0.681-6.287-1.112-9.368-1.35
				c-1.524-1.36-3.06-2.722-4.613-4.063c0.009-0.027,0.026-0.048,0.03-0.079c0.381-2.711,0.913-5.355,1.574-7.955
				c0.029-0.054,0.051-0.114,0.051-0.188c0-0.007,0-0.014,0-0.021c1.168-4.539,2.74-8.943,4.654-13.318
				c0.045-0.104-0.093-0.192-0.155-0.091c-1.936,3.153-3.479,6.541-4.651,10.057c-0.21-2.703-0.572-5.416-0.633-8.123
				c-0.095-4.194,0.353-8.272,0.671-12.44c0.007-0.089-0.132-0.105-0.153-0.021c-0.952,3.704-1.284,7.689-1.452,11.499
				c-0.155,3.532-0.199,7.525,0.577,11.082c-0.575-0.609-1.218-1.171-1.816-1.724c-1.135-1.048-2.34-2.013-3.557-2.963
				c-0.05-0.039-0.121,0.026-0.072,0.072c1.019,0.959,1.973,1.98,2.895,3.031c0.868,0.99,1.598,2.147,2.518,3.084
				c-0.624,2.405-1.095,4.849-1.399,7.305c-8.112-6.913-16.832-13.04-27.739-14.438c-0.894-0.115-1.795-0.18-2.696-0.203
				c6.692-5.163,12.745-10.823,18.271-17.242c3.057-3.551,7.915-4.381,11.99-6.344c3.641-1.754,7.077-4.051,10.088-6.751
				c0.263,0.501,0.519,1.002,0.777,1.437c1.841,3.106,3.744,6.051,7.073,7.702c1.958,0.97,3.82,0.723,5.555-0.095
				c0.036,0.048,0.081,0.093,0.142,0.129c4.938,2.947,11.365,3.237,16.773,1.434c0.133-0.044,0.117-0.259-0.034-0.253
				c-5.613,0.214-10.797,1.052-15.909-1.83c0.667-0.4,1.313-0.87,1.936-1.371c0.761-0.612,1.509-1.277,2.235-1.983
				c4.751,2.28,11.567,0.241,16.14-1.502c4.866-1.855,9.276-4.787,13.232-8.165c0.096,0.002,0.172-0.067,0.195-0.163
				c0.566-0.487,1.121-0.984,1.669-1.487c1.337,0.884,2.73,1.696,4.145,2.478c-4.881,5.824-10.763,9.741-17.731,12.721
				c-0.127,0.054-0.033,0.243,0.09,0.214c7.353-1.693,14.032-6.488,18.631-12.396c6.584,3.503,13.818,6.078,20.707,8.586
				c4.535,1.651,8.655,3.826,11.463,7.806c-2.612-1.985-6.418-2.395-9.727-2.141c-0.09,0.007-0.091,0.135,0,0.141
				c4.447,0.299,8.842,1.196,11.4,5.007c0.902,2.19,1.309,4.543,1.371,6.919c-0.896,10.698-8.227,18.459-15.064,26.105
				c-0.049,0.055,0.014,0.145,0.08,0.104c2.616-1.615,4.896-3.818,6.909-6.235c-0.647,1.17-1.307,2.333-2,3.478
				c-2.631,4.344-5.517,8.532-8.646,12.531c-5.555,7.098-12.016,13.077-19.04,18.613c-1.817-0.479-3.634-0.96-5.451-1.436
				c-5.058-1.324-10.123-2.895-15.265-3.886c-1.368-1.848-2.915-3.572-4.549-5.163c-0.046-0.045-0.133,0.017-0.092,0.071
				c0.926,1.218,1.805,2.462,2.671,3.716c-5.618-0.15-11.461,0.836-17.06,1.269c-2.893,0.224-5.783,0.4-8.685,0.414
				c-2.685,0.013-5.333-0.345-8.004-0.452c2.328-1.537,4.226-3.906,4.964-6.466c0.025-0.086-0.098-0.136-0.143-0.06
				c-1.58,2.669-3.382,4.587-5.778,6.102c1.443-1.794,2.334-3.952,2.27-6.438c-0.002-0.094-0.15-0.121-0.169-0.023
				C393.543,405.753,388.759,408.66,383.081,410.535z M361.2,359.982c2.175-5.581,3.01-11.95,7.424-16.303
				c5.097-5.028,12.666-4.184,19.345-4.314c-0.524,0.277-1.037,0.567-1.576,0.826c-3.747,1.802-7.845,2.504-10.876,5.52
				c-3.083,3.067-5.705,6.534-8.897,9.528C364.867,356.883,363.042,358.443,361.2,359.982z M389.743,316.524
				c-1.278-2.861-4.687-3.596-5.726-6.821c-0.85-2.639-1.072-5.198-2.389-7.542c0.032-0.01,0.065-0.02,0.097-0.03
				c2.573-0.808,5.076-1.842,7.505-3.033c1.315,0.109,2.634,0.134,3.952,0.113c-2.59,1.569-5.255,2.968-8.259,3.812
				c-0.002,0-0.004,0-0.005,0c-0.216-0.011-0.204,0.303,0,0.328c5.801,0.714,11.324-0.948,16.383-3.619
				c-0.364,0.626-0.724,1.254-1.108,1.867c-0.034,0.054-0.031,0.108-0.013,0.158c-0.084,0.14,0.022,0.366,0.205,0.294
				c2.552-0.994,4.971-2.476,7.127-4.274c0.716,2.766,1.704,5.501,3.021,7.936c0.044,0.081,0.131,0.09,0.199,0.057
				c2.129,0.339,3.953,0.927,5.63,2.348c1.379,1.168,2.138,2.714,2.955,4.278c0.065,0.124,0.193,0.143,0.3,0.103
				c0.328,0.236,1.116-0.027,1.379-0.227c0.072-0.055,0.116-0.158,0.112-0.252c0.473-0.954-0.508-2.645-0.848-3.463
				c-0.997-2.403-2.075-4.66-0.985-7.033c0.003,0.976,0.269,1.979,0.795,2.945c0.06,0.11,0.232,0.034,0.2-0.084
				c-0.67-2.501-0.822-5.467,2.223-6.529c0.346-0.121,0.681-0.186,0.999-0.147c0.555,0.069,0.857,0.199,1.256,0.417
				c1.752,0.959,2.642,3.268,3.053,4.623c1.131,3.731,0.548,8.356-2.402,11.102c-0.068,0.063,0.031,0.156,0.099,0.099
				c2.147-1.755,3.307-4.41,3.501-7.157c0.338,0.466,0.912,0.801,1.462,1.027c2.418,8.297,7.687,16.132,14.356,21.009
				c-7.926,6.249-17.687,11.615-27.965,9.56c4.746-4.875,8.33-11.505,7.656-16.972c-0.035-0.286-0.106-2.825-0.133-2.54
				c-1.125,11.625-5.328,16.742-11.562,21.938c-3.75,3.125-7.977,2.188-11.758-3.154c-0.968-1.368-1.761-2.865-2.629-4.296
				c-0.611-1.008-1.455-2.664-2.522-3.289c-0.544-0.319-1.436,0.029-1.958,0.148c-0.901,0.206-2.071,0.278-2.993,0.308
				c-1.999,0.066-0.958-3.729-0.892-4.665C390.266,322.93,390.986,319.305,389.743,316.524z M459.98,414.246
				c-3.026-0.793-6.051-1.592-9.076-2.39c7.316-4.78,13.535-11.312,18.938-18.091c5.385-6.757,10.546-14.491,14.135-22.513
				c-2.209,7.413-4.168,14.9-6.617,22.249c-1.508,4.525-3.124,9.013-4.811,13.474c-1.195,3.161-2.703,6.309-3.922,9.51
				C465.746,415.734,462.861,415,459.98,414.246z M462.588,429.954c-0.442,1.201-0.819,2.426-1.151,3.676
				c-4.182-1.304-8.372-2.585-12.56-3.872c-4.035-1.239-8.438-2.112-12.424-3.629c-1.789-1.472-3.576-2.935-5.32-4.442
				c0.727,0.19,1.454,0.381,2.181,0.571c6.915,1.806,13.835,3.592,20.743,5.423C455.41,428.039,458.947,428.807,462.588,429.954z
				 M391.245,416.272c0.077-0.324,0.179-0.625,0.294-0.916c2.33-2.69,7.953-1.552,10.907-1.029c3.388,0.6,6.713,1.611,10.038,2.482
				c5.411,1.416,10.822,2.832,16.233,4.246c2.349,2.232,4.96,4.208,7.483,6.229c4.266,3.415,7.67,7.071,10.95,11.332
				c-2.351-0.01-4.701-0.01-7.052-0.027c-5.997-0.042-11.994-0.106-17.99-0.186c-5.566-0.074-11.369-0.646-16.793,0.885
				c-2.249,0.635-4.256,1.698-6.06,3.053c-1.699-5.828-4.396-11.461-6.426-17.175C391.805,422.287,390.508,419.369,391.245,416.272z
				 M444.108,433.047c2.441,1.471,4.942,2.873,7.084,4.789c0.122,0.11,0.276-0.053,0.177-0.177
				c-2.782-3.479-7.106-5.903-10.963-8.208c-0.519-0.454-1.036-0.9-1.543-1.327c-0.136-0.115-0.273-0.224-0.409-0.338
				c2.705,1.008,5.665,1.655,8.253,2.465c4.201,1.314,8.402,2.629,12.607,3.931c-0.642,0.203-1.171,0.698-1.584,1.372
				c-0.33,0.538-0.519,1.175-0.747,1.759c-0.193,0.496-0.546,0.878-0.793,1.322c-2.82-0.004-5.64-0.007-8.46-0.018
				C446.932,436.578,445.622,434.733,444.108,433.047z M458.1,437.36c0.468-1.293,1.076-2.197,2.261-2.851
				c0.442,0.136,0.883,0.277,1.325,0.413c0.293,0.09,0.645-0.104,0.714-0.406c0.332-1.437,0.758-2.837,1.226-4.225
				c5.666,1.896,11.107,4.704,8.495,8.322c-0.002,0.002-0.001,0.004-0.003,0.006c-4.852,0.021-9.703,0.024-14.555,0.019
				C457.803,438.225,457.964,437.737,458.1,437.36z M469.974,416.833c1.236-2.841,2.224-5.849,3.306-8.672
				c1.708-4.453,3.309-8.946,4.837-13.464c2.962-8.753,5.962-17.747,7.743-26.846c1.455-2.806,2.62-5.906,2.79-8.944
				c0.944-7.765-3.474-14.933-10.351-18.514c-0.909-0.474-1.846-0.897-2.794-1.3c2.518,0.271,5.118,0.274,7.569,0.487
				c1.991,0.173,3.945,0.63,5.528,1.915c1.814,1.473,1.951,4.187,2.01,6.318c0.235,8.452-0.406,17.008-1.27,25.409
				c-0.901,8.773-2.356,17.483-4.242,26.096c-1.486,6.79-3.574,13.363-5.503,20.005C476.39,418.492,473.181,417.667,469.974,416.833
				z M486.87,396.854c1.902-9.045,3.216-18.212,4.047-27.415c0.427-4.734,0.682-9.482,0.821-14.232
				c0.113-3.868,0.605-8.172-0.575-11.921c-0.414-1.315-1.22-2.28-2.22-3.006c1.529,0.458,2.975,1.114,4.209,2.23
				c2.744,2.482,2.362,6.955,2.251,10.288c-0.261,7.893-0.85,15.774-1.745,23.62c-1.718,15.072-5.078,29.631-9.419,44.108
				c-1.071-0.278-2.143-0.554-3.215-0.832C483.56,412.281,485.277,404.431,486.87,396.854z M284.595,147.565h120.833v112.292
				c-0.376-0.099-0.756-0.185-1.144-0.243c-0.234-0.035-0.321,0.229-0.155,0.351c0.511,1.103,0.925,2.216,1.299,3.334v0.833
				c-2.636-0.964-5.5-1.283-8.16-0.789c-0.122,0.023-0.111,0.154-0.037,0.217c0.016,0.034,0.046,0.063,0.095,0.079
				c1.527,0.504,2.699,1.334,3.7,2.354c-4.437-0.044-8.873,1.05-12.923,3.148c-5.274,2.733-10.415,7.855-11.686,13.854
				c-2.868,1-5.844,0.831-7.482-2.291c-0.228,0.418-0.414,0.854-0.538,1.314c-0.38,1.86-0.061,3.675,0.729,5.314
				c-1.222-0.808-2.302-1.828-3.192-3.116c-0.053-0.077-0.163-0.018-0.137,0.063c-0.014,0.011-0.034,0.012-0.037,0.034
				c-0.405,3.557,0.59,7.064,2.623,9.836c-2.273-0.693-4.404-1.676-6.301-3.446c-0.011-0.01-0.019,0.002-0.03,0
				c-0.048-0.019-0.104-0.015-0.113,0.044c-0.174,1.061,0.1,2.114,0.636,3.096c-0.377-0.157-0.753-0.32-1.13-0.492
				c-0.006-0.003-0.01,0-0.016-0.001c-0.088-0.07-0.249,0.007-0.206,0.132c1.339,3.93,4.82,6.481,8.701,7.353
				c-1.679,1.102-3.418,2.08-5.383,2.836c-0.01,0.004-0.016,0.014-0.023,0.021c-0.008-0.001-0.016,0-0.024-0.001
				c-0.171-0.012-0.208,0.265-0.04,0.299c5.431,1.104,11.362-0.06,16.617-1.659c0.489,1.271,0.977,2.537,1.337,3.857
				c0.464,1.701,0.452,3.673,1.338,5.24c0.803,1.419,1.925,2.363,3.185,3.377c1.345,1.084,1.997,2.241,2.273,3.612
				c-0.184,0.024-0.37,0.057-0.566,0.059c-0.614,0.008-1.278-0.222-1.828-0.483c-0.067-0.032-0.164,0.039-0.112,0.112
				c0.38,0.536,0.839,0.898,1.461,1.135c0.34,0.129,0.778,0.281,1.182,0.285c0.033,0.484,0.042,0.988,0.023,1.531
				c-0.08,2.247-0.222,4.491-0.395,6.733c-0.086,1.111-0.396,2.66,0.784,3.351c1.102,0.646,2.52,0.312,3.704,0.139
				c1.777-0.26,2.02-0.809,3.227,0.869c0.213,0.296,0.414,0.637,0.61,0.988c-2.472,2-5.022,3.804-7.745,5.375
				c-6.686-0.172-14.875-0.926-20.427,3.51c-2.412,1.927-4.125,4.34-5.277,7.206c-1.507,3.75-3.038,7.747-3.814,11.724
				c-1.296,1.075-2.594,2.147-3.878,3.234c-0.128,0.003-0.254,0.017-0.382,0.022c1.445-6.447,2.376-13.962,0.573-20.394
				c-1.802-6.43-9.586-5.348-14.729-5.363c-16.573-0.05-33.146-0.099-49.719-0.149c-2.434-0.007-4.868-0.02-7.302-0.031V147.565z
				 M162.727,147.565h120.472v190.698c-13.566-0.064-27.134-0.16-40.7-0.111c-6.033,0.022-11.639,1.205-15.535,6.138
				c-3.438,4.353-4.615,10.213-5.491,15.55c-3.493,21.283-5.07,42.806-9.669,63.833c-13.915-5.113-27.425-9.002-41.32-12.627
				c-2.583-0.674-5.17-1.333-7.758-1.985V147.565z M162.727,421.217c5.327,1.355,10.645,2.745,15.958,4.154
				c5.365,1.423,10.721,2.883,16.076,4.343c2.52,0.687,5.04,1.373,7.561,2.059c2.444,0.665,4.91,1.25,6.678,3.17
				c-0.282,1.003-0.556,2.008-0.856,3.008c-4.955,0.016-9.872,0.028-14.878,0.019c-10.18-0.019-20.359-0.038-30.539-0.056V421.217z
				 M103.395,433.56c1.106,3.292,2.375,6.533,3.818,9.693H48.998V147.565h112.333v261.146c-12.026-3.008-24.118-5.753-36.308-8.017
				c-5.809-1.079-12.359-2.366-18.003,0.101c-5.418,2.368-8.248,6.747-8.208,12.658C98.857,420.146,101.286,427.28,103.395,433.56z
				 M113.146,413.136c1.845-1.984,5.457-1.585,7.86-1.356c3.079,0.293,6.143,1.101,9.162,1.747
				c5.426,1.161,10.836,2.398,16.236,3.675c4.986,1.178,9.96,2.407,14.927,3.664v17.043l-7.755-0.014
				c-6.53-0.012-13.061-0.06-19.592-0.03c-4.817,0.022-9.454,0.849-13.338,3.879c-0.337,0.263-0.656,0.542-0.978,0.819
				c-2.003-4.728-3.971-9.463-5.582-14.342C112.695,424.005,109.579,416.973,113.146,413.136z M113.7,459.42
				c-0.052-0.026-0.111-0.046-0.182-0.052c-6.49-0.611,2.972-11.932,4.627-13.757c3.573-3.941,7.946-6.088,13.241-6.489
				c5.366-0.406,10.858-0.073,16.236-0.062l16.868,0.034c11.245,0.022,22.491,0.045,33.736,0.067
				c9.93,0.02,19.958,0.168,29.899,0.168c0.708,1.917,1.434,3.828,2.188,5.725c0.036,0.091,0.075,0.181,0.111,0.272
				c-1.514,2.806-2.911,5.598-4.833,8.214c-2.596,3.533-5.558,5.093-9.542,5.984c-1.734-0.005-3.468-0.008-5.201-0.012
				c-10.935-0.026-21.87-0.051-32.804-0.077l-32.804-0.077C134.743,459.331,124.194,459.025,113.7,459.42z M192.635,489.247
				c-1.024,1.88-4.871,1.229-6.564,1.247c-1.999,0.021-3.997,0.059-5.996,0.091c-7.994,0.126-15.989,0.208-23.984,0.292
				c-3.734,0.039-8.857,1.022-11.918-1.57c-2.62-2.219-4.247-6.316-5.895-9.255c-3.589-6.399-6.587-13.074-9.963-19.575
				c6.308,0.009,12.62-0.071,18.913-0.054c3.075,0.008,6.15,0.017,9.225,0.025c6.836,3.677,13.794,7.167,20.717,10.675
				c3.554,1.801,7.145,3.523,10.783,5.147c2.652,1.184,5.338,2.589,8.078,3.711C195.223,483.12,194.178,486.416,192.635,489.247z
				 M236.939,478.989c-4.61,0.007-9.22,0.029-13.83,0.046l-13.83,0.051c-3.819,0.014-7.783,0.172-11.904,0.172
				c-2.877-1.448-6.008-2.572-8.91-3.862c-3.641-1.619-7.221-3.361-10.773-5.165c-6.548-3.327-12.999-7.034-19.83-9.778
				c8.053,0.022,16.106,0.044,24.158,0.066c11.597,0.032,23.195,0.063,34.792,0.095c4.048,0.011,8.82,0.526,12.225-2.156
				c1.974-1.555,3.359-3.596,4.461-5.804c3.898,8.902,8.288,17.589,12.851,26.169C243.208,478.774,240.006,478.984,236.939,478.989z
				 M243.857,444.889c1.988,1.169,4.064,2.268,6.152,3.257c0.548,1.305,1.133,2.588,1.795,3.818
				c-1.412,2.128-2.468,4.551-1.649,6.887c0.612,1.745,3.084,1.943,5.289,1.852c0.744,2.287,1.728,4.502,2.691,6.703
				c1.245,2.843,2.413,5.997,4.154,8.582c-1.085,0.46-2.167,0.924-3.249,1.387c-0.01-0.025-0.009-0.048-0.022-0.073
				C253.431,466.696,248.336,456.007,243.857,444.889z M247.894,483.291c0.744,2.319,12.471,0.987,14.068,0.95
				c6.594-0.151,17.875-1.36,20.942,6.222c-0.698,0.008-1.395,0.024-2.093,0.031c-12.718,0.136-25.482-0.365-38.191-0.012
				C243.101,487.108,245.202,484.915,247.894,483.291z M312.172,496.688c-10.03-0.173-20.104,0.093-30.113,0.091
				c-6.313-0.002-12.626,0.008-18.938,0.006c-6.465-0.002-13.199-0.555-19.639,0.05c-0.508-0.907-1.133-1.541-1.386-2.602
				c-0.253-1.062,0.098-2.041,0.336-3.046c12.39,0.842,24.98,0.372,37.39,0.251c10.509-0.102,21.018-0.3,31.525-0.539
				C312.841,492.505,312.368,494.686,312.172,496.688z M316.549,480.358c-1.037,2.114-2.281,4.15-3.4,6.233
				c0.189-2.416-0.406-5.264-1.277-7.481c0.191-0.142,0.377-0.3,0.557-0.48c0.026-0.026,0.044-0.055,0.068-0.081
				c1.507,0.247,3.154,0.327,4.785,0.264C317.041,479.329,316.801,479.846,316.549,480.358z M313.012,477.813
				c1.074-2.175-0.682-5.233-3.126-5.439c-0.532-0.045-1.058-0.053-1.581-0.049c-1.014-2.574-1.896-5.174-2.753-7.785
				c0.002-0.001,0.004-0.003,0.006-0.004c4.887,2.561,9.999,4.713,15.032,6.963c0.009,0.004,0.017,0.007,0.026,0.011
				c-0.963,2.022-1.854,4.077-2.783,6.115C316.216,477.637,314.587,477.7,313.012,477.813z M386.258,493.738
				c0.125,1.06-0.052,2.105-0.378,3.108c-11.162-0.015-22.324-0.035-33.486-0.031c-5.618,0.002-11.236-0.014-16.854-0.024
				c-5.542-0.01-11.167-0.309-16.699,0.049c-0.066-0.911-0.334-1.791-0.346-2.724c-0.013-1.001,0.101-1.96,0.48-2.856
				c10.845,0.626,21.85,0.141,32.711,0.158c2.477,0.004,4.954,0.014,7.431,0.025l0.649,0.002c8.553,0.039,17.108,0.09,25.659,0.002
				C385.789,492.18,386.147,492.793,386.258,493.738z M385.365,478.953c-0.389-0.65-0.854-1.223-1.422-1.666
				c0.44-0.452,0.81-0.949,1.059-1.496c0.503,1.015,1.042,2.009,1.601,2.986C386.178,478.77,385.727,478.785,385.365,478.953z
				 M387.929,455.628c-1.392-3.607-2.91-7.17-4.396-10.746c1.318,0.572,2.663,1.144,4.019,1.647
				c0.877,2.307,1.814,4.594,2.963,6.758c-0.684,1.281-1.312,2.576-1.893,3.859C388.39,456.64,388.164,456.131,387.929,455.628z
				 M398.891,478.797c-0.955-1.691-1.823-3.433-2.678-5.134c-2.225-4.427-4.207-8.991-6.24-13.527
				c0.404,0.159,0.864,0.25,1.36,0.315c0.888,0.115,1.796,0.168,2.713,0.19c0.004,0.023,0,0.044,0.008,0.067
				c1.773,5.37,4.249,10.591,6.647,15.704c0.359,0.766,0.718,1.55,1.078,2.338C400.814,478.752,399.852,478.766,398.891,478.797z
				 M403.102,484.735c-1.346-1.424-2.479-3.038-3.503-4.728c0.936,0.059,1.874,0.101,2.815,0.13
				c1.055,2.308,2.139,4.652,3.339,6.902C404.838,486.379,403.952,485.634,403.102,484.735z M399.007,459.361
				c-1.326-0.004-2.652-0.008-3.978-0.011c-0.663,0.003-1.326,0.008-1.989,0.016c-0.331,0.003-0.663,0.007-0.994,0.01
				c-1.191,0.18-1.923-0.518-2.196-2.092c0.148-0.084,0.176-0.253,0.13-0.393c4.568-8.111,9.642-16.028,19.871-17.129
				c5.335-0.574,10.899-0.052,16.254,0.014c5.997,0.074,11.993,0.125,17.99,0.16c11.661,0.068,23.322,0.057,34.982-0.02
				c9.401-0.063,18.915,0.148,28.351-0.168c0.761,2.075,1.543,4.142,2.346,6.2c-1.267,2.089-2.46,4.236-3.706,6.299
				c-1.904,3.153-3.668,6.074-6.788,7.393c-0.283-0.009-0.561-0.016-0.827-0.016l-8.95-0.022
				c-10.939-0.027-21.878-0.054-32.817-0.081c-10.939-0.027-21.878-0.058-32.817-0.089c-5.635-0.016-11.271-0.032-16.906-0.048
				C404.311,459.377,401.659,459.369,399.007,459.361z M510.382,447.509c0.596,1.507,1.203,3.007,1.817,4.505
				c-1.476,2.19-3.086,4.288-4.945,6.099c-1.389,1.353-3.463,1.595-5.503,1.593c1.21-0.818,2.264-1.993,3.169-3.28
				c1.531-2.177,2.807-4.565,4.181-6.841C509.519,448.891,509.95,448.201,510.382,447.509z M416.258,478.545
				c-1.592-2.891-3.039-5.86-4.401-8.867c-1.354-2.991-2.44-6.186-3.941-9.114c1.008,0.003,2.017,0.007,3.025,0.01
				c1.994,0.007,3.988,0.014,5.982,0.02c7.3,3.958,15.1,7.135,22.635,10.602c3.717,1.71,7.433,3.428,11.206,5.014
				c1.605,0.675,3.244,1.394,4.905,2.07c-2.498,0.13-4.992,0.299-7.437,0.358c-5.598,0.136-11.197,0.222-16.796,0.274
				c-4.978,0.046-9.957,0.064-14.935,0.056C416.422,478.826,416.337,478.688,416.258,478.545z M455.896,483.154
				c-1.433,2.46-3.154,5.06-4.427,7.729c-4.715,0.069-9.431,0.085-14.147,0.061c-2.655-0.014-4.669,0.184-7.325,0.184
				c-1.738,0-4.255,0.286-5.751-0.467c-1.373-0.691-2.097-2.381-2.909-3.619c-1.453-2.215-2.802-4.494-4.108-6.798
				c4.735,0.037,9.471,0.051,14.206,0.015c5.599-0.043,11.198-0.135,16.796-0.262c3.107-0.071,6.316-0.006,9.501-0.089
				C457.134,480.997,456.522,482.08,455.896,483.154z M459.052,477.433c-0.099,0.194-0.205,0.385-0.308,0.578
				c-1.991-0.72-4-1.403-5.951-2.197c-4.274-1.739-8.464-3.681-12.657-5.606c-6.974-3.202-13.904-6.738-21.042-9.605
				c5.403,0.018,10.806,0.037,16.21,0.055c7.263,4.062,15.174,7.187,22.742,10.621c1.107,0.502,2.214,1.003,3.321,1.505
				C460.395,474.197,459.829,475.907,459.052,477.433z M467.935,490.462c-1.229,0.128-2.468,0.214-3.714,0.272
				c0.951-1.559,1.765-3.214,2.578-4.827c1.451-2.878,3.005-5.736,4.387-8.649c1.568,0.759,3.156,1.572,4.766,2.296
				C474.712,483.304,472.187,490.018,467.935,490.462z M517.789,478.145c-4.659,0.085-9.319,0.133-13.979,0.157
				s-9.32,0.012-13.98-0.025c-4.358-0.034-8.583-0.148-13.144-0.007c-1.68-0.779-3.422-1.479-5.122-2.183l-0.863-0.359
				c-0.456-0.193-0.907-0.388-1.349-0.587c-3.879-1.747-7.759-3.494-11.637-5.244c-6.788-3.064-13.534-6.512-20.485-9.234
				c4.496,0.015,8.993,0.029,13.489,0.045c13.26,0.049,26.519,0.098,39.779,0.147c3.315,0.012,6.63,0.025,9.945,0.037
				c2.486,0.009,4.843,0.058,7.007-1.312c1.863-1.18,3.225-3.439,4.528-5.175c0.261-0.348,0.511-0.705,0.765-1.058
				c0.662,1.598,1.331,3.192,2.01,4.779c2.881,6.742,6.065,13.351,9.604,19.772C522.157,477.982,519.957,478.106,517.789,478.145z
				 M532.46,464.772c-3.339-6.54-6.183-13.333-9.478-19.889c2.971-0.233,6.825,2.703,9.151,3.885c2.92,1.483,5.849,2.95,8.78,4.411
				c6.156,3.068,12.333,6.094,18.529,9.08c11.147,5.373,22.35,10.634,33.622,15.738c-2.563,0.045-5.127,0.148-7.634,0.148
				c-5.609,0-11.219,0.009-16.828,0.021c-9.569,0.02-19.339-0.475-28.928,0.083C537.157,473.814,534.77,469.298,532.46,464.772z
				 M593.383,489.035c-1.184,2.191-3.929,1.779-6.014,1.791c-2.286,0.012-4.572,0.025-6.858,0.036
				c-4.246,0.02-8.491,0.04-12.737,0.06c-4.246,0.02-8.491,0.04-12.737,0.06c-1.899,0.009-3.745-0.052-5.599-0.512
				c-2.489-0.618-4.013-2.668-5.306-4.716c-1.309-2.074-2.56-4.189-3.788-6.32c9.376,0.453,18.912-0.065,28.258-0.089
				c5.279-0.014,10.559-0.029,15.838-0.054c4.394-0.021,8.966,0.286,13.412,0.064C596.518,482.675,595.056,485.937,593.383,489.035z
				 M598.374,478.049c-0.921-0.048-1.85-0.062-2.779-0.068c-13.102-6.008-26.165-12.098-39.142-18.371
				c-6.784-3.279-13.551-6.593-20.298-9.948c-3.227-1.605-6.452-3.214-9.675-4.827c-1.26-0.631-2.662-1.171-3.926-0.789
				c-0.259-0.508-0.514-1.017-0.779-1.521c-0.509-1.205-0.999-2.417-1.477-3.634c3.385,0.087,6.418,1.939,9.396,3.432
				c3.482,1.745,6.971,3.476,10.464,5.197c6.987,3.443,14,6.832,21.034,10.178s14.093,6.639,21.172,9.889
				c5.618,2.579,11.246,5.439,16.999,7.796C599.033,476.272,598.719,477.165,598.374,478.049z M608.308,445.082
				c-1.595,7.548-3.68,14.989-6.129,22.303c-0.745,2.225-1.53,4.471-2.342,6.714c-5.828-2.813-11.918-5.223-17.78-7.909
				c-7.377-3.38-14.726-6.819-22.054-10.304s-14.627-7.029-21.904-10.618c-3.493-1.723-6.978-3.461-10.46-5.208
				c-2.478-1.244-4.92-2.293-7.666-2.007c-1.463-3.785-2.785-7.625-3.947-11.524c-1.116-3.745-2.888-8.211-1.885-12.114
				c1.36-5.287,9.116-3.258,12.96-2.722c7.856,1.095,15.556,3.117,23.259,4.964c7.798,1.87,15.586,3.783,23.348,5.797
				c7.758,2.014,15.474,4.188,23.121,6.592c3.357,1.056,6.972,1.944,10.051,3.685C611.419,435.298,609.161,441.044,608.308,445.082z
				 M601.841,418.786c-23.133-7.101-46.8-13.291-70.52-18.077c-5.319-1.073-10.682-2.187-16.074-2.822
				c-4.489-0.529-8.857,0.282-12.056,3.637c-5.049,5.294-4.203,12.681-1.93,19.201c1.625,5.841,3.491,11.63,5.55,17.354
				c-6.506,0.009-13.03,0.213-19.541,0.367c5.349-13.665,8.716-27.945,10.907-42.437c2.084-13.777,2.796-27.672,4.079-41.529
				c1.207-6.381,4.99-11.751,11.563-13.714c3.319-0.991,6.888-1.016,10.322-1.038c4.255-0.027,8.512-0.01,12.767-0.014
				c16.608-0.017,33.216-0.035,49.824-0.054c8.304-0.009,16.608-0.019,24.912-0.028c3.752-0.004,7.524-0.121,11.273,0.038
				c4.907,0.208,7.196,3.336,7.975,7.857c1.408,8.172-0.02,17.151-1.341,25.23c-1.304,7.975-3,15.896-4.811,23.77
				c-2.241,9.741-4.862,19.383-7.716,28.959C612.741,422.084,606.789,420.305,601.841,418.786z M620.884,429.85
				c-0.386-0.675-0.842-1.337-1.379-1.981c-0.476-0.571-1-1.102-1.554-1.604c4.36-14.351,7.964-28.931,10.892-43.639
				c1.535-7.711,2.938-15.459,3.435-23.316c0.36-5.685,1.053-13.529-2.878-18.234c-0.145-0.174-0.308-0.324-0.47-0.475
				c1.935,0.81,3.58,2.077,4.756,4.308c1.787,3.389,1.777,7.606,1.809,11.332c0.081,9.488-1.449,18.982-3.072,28.303
				c-1.525,8.759-3.463,17.444-5.721,26.042C624.996,417.087,622.927,423.461,620.884,429.85z M643.864,443.253h-21.906
				c0.85-4.061,1.178-8.117-0.319-11.821c2.628-7.322,4.7-14.888,6.645-22.387c2.551-9.836,4.575-19.806,6.158-29.841
				c1.475-9.35,2.908-19.128,1.886-28.598c-0.336-3.108-1.246-6.105-3.217-8.565c-2.042-2.55-5.287-3.205-8.39-3.29
				c-0.605-0.103-1.213-0.169-1.801-0.215c-4.048-0.315-8.211-0.038-12.27-0.031c-8.304,0.013-16.608,0.027-24.912,0.04
				c-16.608,0.027-33.216,0.054-49.824,0.082c-2.659,0.005-5.319-0.009-7.979-0.006V147.565h115.929V443.253z M757.374,443.253
				H645.26V147.565h112.114V443.253z"/>
			<path style="fill:#41004F;stroke:#3F1B4F;stroke-width:0.25;stroke-miterlimit:10;" d="M454.141,86.764h-97.836
				c-4.265,0-7.723,3.458-7.723,7.723v23.812c0,4.155,3.368,7.523,7.523,7.523h98.57c4.094,0,7.413-3.319,7.413-7.413V94.712
				C462.089,90.322,458.531,86.764,454.141,86.764z M356.532,88.159h97.607c3.62,0,6.554,2.934,6.554,6.554v23.158
				c0,3.62-2.934,6.554-6.554,6.554h-97.607c-3.62,0-6.554-2.934-6.554-6.554V94.713C349.978,91.094,352.913,88.159,356.532,88.159z
				"/>
		</g>
	</g>
</g>
<g id="Layer_7">
	<path style="fill:#FFFFFF;" d="M512.919,404.379l-9.528-0.081c0.857-1.837,2.562-3.184,4.442-3.941
		c1.881-0.757,3.934-0.977,5.961-1.021c4.909-0.108,9.782,0.765,14.602,1.698c15.657,3.03,31.185,6.728,46.527,11.079
		c-13.019-3.316-26.18-6.074-39.434-8.265c-5.139-0.85-10.476-1.663-15.664-2.125c-1.7-0.151-2.923-0.108-4.469-0.125
		c-0.719-0.008-1.752,0.067-2.438,0.281C511.419,402.348,512.012,403.91,512.919,404.379z"/>
	<path style="fill:#FFFFFF;" d="M444.073,411.53c-8.812-1.849-15.323-3.53-23.521-5.12c2.232-0.363,3.479-0.41,3.479-0.41
		c2.209,0.472,3.801,0.866,5.8,1.44C434.579,408.803,439.326,410.167,444.073,411.53z"/>
	<path style="fill:#FFFFFF;" d="M241.938,405.792c0.077-0.11,0.46-1.076,0.875-1.573c0.431-0.516,1.419-1.645,1.969-2.031
		c1.951-1.373,4.906-1.125,7.278-0.909c-0.472,0.544-1.309,1.659-1.309,1.659c-2,0.156-3.752,1.146-2.24,2.725
		C248.546,405.7,241.938,405.792,241.938,405.792z"/>
	<path style="fill:#FFFFFF;" d="M232.722,404.922l-8.454,0.027c0.997-2.292,3.228-3.876,5.619-4.604
		c2.39-0.729,4.943-0.703,7.435-0.517c2.276,0.17,4.588,0.48,6.651,1.456c-3.1-0.196-6.058-0.139-9.098,0.498
		c-0.765,0.16-1.746,0.545-2.256,1.137C232.108,403.51,232.021,404.576,232.722,404.922z"/>
	<path style="fill:#FFFFFF;" d="M111.833,405.066l-9.089-0.023c2.096-2.583,5.401-3.955,8.702-4.364
		c3.301-0.409,6.642,0.047,9.93,0.553c19.754,3.04,39.224,7.92,58.077,14.554c-9.078-2.566-17.504-4.917-26.37-7.12
		c-12.794-3.179-25.754-6.017-38.937-6.062c-0.755-0.003-1.802,0.186-2.353,0.704S111.341,404.541,111.833,405.066z"/>
	<path style="fill:#D45C5C;" d="M407.174,282.694c-2.304,4.983-6.999,8.184-11.742,10.607c-0.073,0.037-0.022,0.16,0.056,0.133
		c5.429-1.882,10.374-4.771,12.069-10.578C407.623,282.632,407.276,282.475,407.174,282.694z"/>
	<path style="fill:#D45C5C;" d="M403.704,290.841c-1.095,0.705-2.184,1.554-3.373,2.092c-0.117,0.053-0.029,0.217,0.082,0.195
		c1.442-0.279,2.66-0.808,3.507-2.071C404.009,290.926,403.835,290.756,403.704,290.841z"/>
	<path style="fill:#D45C5C;" d="M386.5,292.123c-4.576,0.26-7.651-2.378-9.526-6.291c-0.031-0.065-0.121-0.017-0.109,0.046
		c0.881,4.587,4.925,8.231,9.687,6.623C386.748,292.434,386.727,292.11,386.5,292.123z"/>
	<path style="fill:#D45C5C;" d="M384.533,293.626c-1.795,0.603-3.865,0.597-5.43-0.618c-0.052-0.04-0.148,0.014-0.101,0.078
		c1.339,1.819,3.924,2.481,5.776,0.962C384.975,293.887,384.765,293.548,384.533,293.626z"/>
	<path style="fill:#D45C5C;" d="M397.385,269.693c-5.864,0.332-10.876,3.669-13.772,8.72c-0.024,0.041,0.035,0.09,0.067,0.052
		c3.597-4.301,8.35-7.03,13.757-8.385C397.651,270.026,397.609,269.68,397.385,269.693z"/>
	<path style="fill:#D45C5C;" d="M395.025,273.163c-2.708,0.351-4.918,1.666-6.295,4.07c-0.048,0.083,0.059,0.157,0.128,0.098
		c1.831-1.566,3.962-2.972,6.208-3.866C395.213,273.407,395.212,273.139,395.025,273.163z"/>
</g>
</svg>
