<?xml version="1.0" encoding="utf-8"?>
<!-- Generator: Adobe Illustrator 22.0.1, SVG Export Plug-In . SVG Version: 6.00 Build 0)  -->
<svg version="1.1" id="house_x5F_delivery" xmlns="http://www.w3.org/2000/svg" xmlns:xlink="http://www.w3.org/1999/xlink" x="0px" y="0px" viewBox="0 0 800 800" style="enable-background:new 0 0 800 800;" xml:space="preserve">

<g>
	<g>
		<g>
			<path d="M581.4,305.4c-1.2,0-2.3-0.3-3.3-0.8c-1.4-0.8-1.9-2.6-1.1-4c0.8-1.4,2.6-2,4.1-1.2c0.9,0.5,5.5-1.2,8.1-5.9
				c1.8-3.2,0.9-4.3-1.8-6.3c-5.3-3.9-7.9-12.1-2.5-19.9c0.9-1.4,2.8-1.7,4.2-0.8s1.7,2.8,0.8,4.2c-3.9,5.7-1.1,10,1.1,11.7
				c2.2,1.6,8,5.9,3.4,14c-1.7,3-4.4,5.7-7.3,7.3C585.1,304.8,583.2,305.4,581.4,305.4z" style="fill:#FFB400;"/>
		</g>
		<g>
			<path d="M601.9,321.9c-2.4,0-4.8-0.4-7-1.3c-3.8-1.5-6.3-3.9-7-6.8c-1-4.3,1.5-10.2,12-12.7c4.1-1,7.6-0.9,10.4,0.3
				c2.9,1.2,4.9,3.4,5.6,6.3c1.6,6.9-1.8,11.8-9.2,13.6C605.1,321.8,603.5,321.9,601.9,321.9z M605,306.6c-1,0-2.3,0.1-3.8,0.5
				c-4.9,1.2-8,3.4-7.5,5.5c0.1,0.5,1.1,1.7,3.3,2.6c2.5,1,5.5,1.1,8.2,0.5c5.2-1.2,5.4-3.8,4.8-6.4c-0.2-1-0.9-1.7-2-2.1
				C607.4,306.8,606.4,306.6,605,306.6z" style="fill:#FFB400;"/>
		</g>
		<path d="M529.7,301.8l36.6-20.9c2.9-1.7,6.6-0.9,8.7,1.7l16.8,21.9c0.5,0.6,0.8,1.3,1.1,2l7.8,24c1,3-0.3,6.3-3,7.9
			l-36.3,21c-2.9,1.7-6.5,1-8.6-1.6l-16.1-19.9c-0.5-0.6-0.9-1.3-1.1-2.1l-8.9-26.2C525.7,306.8,526.9,303.4,529.7,301.8z" style="fill:#00AEE0;"/>
		<g>
			<polygon points="580.9,290.3 529.3,317.4 531.2,323.1 584.6,295.1 			" style="fill:#FFB400;"/>
			<polygon points="598.1,322.5 596.2,316.7 542.4,345 546.2,349.7 			" style="fill:#FFB400;"/>
		</g>
	</g>
	<g>
		<path d="M185.4,301.9c-10.7-0.7-20.8-3.9-24.9-5.4c-1.3-0.5-2.4-1.3-3.1-2.5c-3.9-6.6-7.2-16.3-8.6-21
			c-0.6-1.8-0.2-3.7,0.8-5.2c3.8-5.3,21.6-27.1,37.6-36.6c0.9-0.5,1.9-0.8,2.9-0.8c4.2,0,16.2,0.1,26.7,2.8c1.7,0.4,3.1,1.6,3.8,3.2
			c1.7,3.6,4.7,11,6,20.7c0.2,1.2-0.1,2.4-0.6,3.4c-2.6,4.9-18.6,28.4-37,40.4C188,301.7,186.7,302,185.4,301.9z" style="fill:#FFB400;"/>
		<path d="M224.8,247.8c-0.7-2.7-1.5-5.1-2.3-7c-13.7,19.2-37.2,39.8-42.1,43.9c-3.5-0.2-7.3-0.8-11-1.5
			c-1.6-4.1-2.8-7.4-3.5-9.2c11.7-17.4,35.3-36.3,43.2-42.4c-3-0.5-5.9-0.8-8.5-0.9c-10.8,8.7-30.3,25.4-40.5,41.3
			c-0.5,0.8-0.6,1.8-0.3,2.6c0,0.1,1,2.9,2.6,7.1c-4.7-1.1-8.9-2.2-11.6-3c0.8,2.2,1.7,4.6,2.7,7c3.3,0.9,7.3,1.9,11.5,2.8
			c1.3,3.3,2.8,7,4.4,10.7c2.2,0.6,4.6,1.1,7.2,1.6c-1.6-3.7-3.2-7.4-4.6-11c3.2,0.5,6.3,0.9,9.3,1c0.1,0,0.1,0,0.2,0
			c0.7,0,1.4-0.2,1.9-0.7C184.5,289.1,208.9,268.7,224.8,247.8z" style="fill:#04294F;"/>
		<g>
			<path d="M173.4,310.6c-2.9,0-6.5-1.3-9.7-6.2v0c-2.9-4.4-4.1-9.7-3-13.1c0.6-1.8,1.7-3,3.3-3.6
				c4.6-1.7,12.1,3.6,15.9,9.3c2.1,3.2,2.8,6,2,8.4c-0.5,1.4-1.7,3.4-4.8,4.5C176.1,310.3,174.8,310.6,173.4,310.6z M168.7,301.1
				c2.9,4.4,5.4,3.5,6.3,3.2c0.7-0.3,1.1-0.6,1.2-0.8c0,0,0.3-0.9-1.3-3.2c-2.7-4.1-6.9-6.6-8.6-6.9
				C166.1,294.5,166.4,297.6,168.7,301.1L168.7,301.1z M165.9,293.3L165.9,293.3L165.9,293.3z" style="fill:#04294F;"/>
		</g>
		<g>
			<path d="M154.2,305.2c-4,0-6.2-2-7.3-3.5c-1.7-2.3-1.6-4.3-1.3-5.6c0.7-2.5,2.9-4.4,6.7-6c0,0,0,0,0,0
				c5.7-2.4,15.2-3.6,18.1,0.3c0.9,1.2,1.1,2.6,0.7,4.2c-0.9,3.3-5.1,7-10.5,9.2C158.1,304.8,155.9,305.2,154.2,305.2z M151.3,297.7
				c0,0,0.1,0.2,0.3,0.4c1.1,1.5,3.4,1.5,6.8,0.1c3.2-1.3,5.3-3.1,6.3-4.3c-2-0.2-6.1,0-10.1,1.7h0
				C151.8,296.8,151.3,297.6,151.3,297.7C151.3,297.7,151.3,297.7,151.3,297.7z M165.9,294.3L165.9,294.3L165.9,294.3z" style="fill:#04294F;"/>
		</g>
	</g>
	<g>
		<g>
			<path d="M519.9,230.9c-2.3,0-4.9-0.7-7-1.9c-2.2-1.2-3.5-2.7-4-4.5c-0.4-1.4-0.1-3,0.7-4.4c1.9-3.4,5.4-4.1,9.4-1.9
				l0,0c2,1.1,3.9,2.8,5.1,4.7c1.4,2.2,1.8,4.3,0.9,5.8C524,230.3,522.1,230.9,519.9,230.9z M514.6,220.9c-1,0-1.3,0.7-1.6,1.1
				c-0.5,0.9-0.4,1.3-0.3,1.5c0.2,0.6,0.9,1.4,2.1,2c2.8,1.6,5.8,1.6,6.6,1.2c-0.1-0.9-1.6-3.4-4.4-5
				C515.9,221.1,515.2,220.9,514.6,220.9z M521.4,226.8L521.4,226.8L521.4,226.8z" style="fill:#04294F;"/>
		</g>
		<g>
			<path d="M524.6,226.5c0,0-0.1,0-0.1,0c-1.7-0.1-3.3-1.4-4.5-3.6c-1-1.9-1.5-4.3-1.4-6.5c0.2-4.4,2.6-6.9,6.4-6.8
				c1.7,0.1,3.1,0.6,4.1,1.6c1.3,1.3,1.9,3.1,1.8,5.6l0,0c-0.1,2.2-0.8,4.6-1.8,6.4C527.9,225.3,526.3,226.5,524.6,226.5z
				 M524.7,213.6c-0.8,0-1.9,0.2-2,2.9c-0.1,3.1,1.3,5.6,2,6c0.8-0.4,2.3-2.7,2.4-5.8v0c0-0.9,0-2-0.6-2.6c-0.3-0.3-0.8-0.5-1.5-0.5
				C524.9,213.6,524.8,213.6,524.7,213.6z" style="fill:#04294F;"/>
		</g>
		<polygon points="523.2,256.4 509,239.4 521,220 538.6,217.4 553.6,234.1 543.7,250.7 		" style="fill:#FF3A00;"/>
		<g>
			<polygon points="514.8,246.4 519.1,251.5 517.9,225.1 514.1,231.1 			" style="fill:#04294F;"/>
			<polygon points="528.2,255 526.9,225.7 534.8,218 528,219 522.8,224.1 524.3,256.1 			" style="fill:#04294F;"/>
			<polygon points="536.2,232 544.5,223.9 541.8,221 532.1,230.3 533.2,253.6 537.1,252.5 			" style="fill:#04294F;"/>
			<polygon points="545.6,247.5 545.1,237.2 551.2,231.4 548.5,228.4 541,235.6 541.7,251.2 543.7,250.7 			" style="fill:#04294F;"/>
		</g>
	</g>
	<g>
		<path d="M286.1,221.8c-52.8,80.5-74.1,136.8-82,163c-3.3,11-5.3,18.7-5.3,18.7s114.6,57,268.5,104.9
			c0,0,6.3-50.6,48.6-136c9.1-18.3,19.8-38.4,32.3-60.1C426.7,260.2,286.1,221.8,286.1,221.8z" style="fill:#FF3A00;"/>
		<path d="M677,597.6c-6.3-3.7-10.8-9.5-12.5-16.1c-12.7-48.7-69.1-85.4-136.7-85.4c-61.1,0-113,29.9-131.8,71.5
			c-2.7,6-8.2,10.1-14.7,11.1c-0.1,0-0.2,0-0.3,0c-9,1.4-17.8-3.8-20.8-12.4c-12.6-36.5-56.3-63.5-108.2-63.5
			c-51.1,0-94.2,26.1-107.6,61.7c-2.9,7.7-9,14-17,17.4c-22.4,9.4-37.8,29.1-37.8,51.9c0,9.3,2.6,18.1,7.1,25.9l0,0
			c0,0.1,0.1,0.1,0.1,0.2c0,0,0,0.1,0.1,0.1c14.4,25.4,41.4,35.1,82.9,31.2c120.5,0.3,135.4,61.3,231.3,67
			c70.6,4.2,81.6-45.5,220.1-36.5c60.8,3.9,83.7-32.4,80.4-67.8C709.4,630.6,697.8,609.9,677,597.6z" style="fill:#00AEE0;"/>
		<path d="M645.7,431.9C561.5,492.5,468,516.9,468,516.9c-168.5-52.4-291.7-113.7-291.7-113.7c-2.6,13.6,0,25.7,0,25.7
			s12.8,6.4,35.8,16.8c47.2,21.3,137.2,59.5,247.5,94.3c2.8,0.9,5.6,1.8,8.5,2.7c0,0,69.6-18.1,142.8-62.1
			c11.6-7,23.3-14.6,34.9-22.9C645.7,457.6,647.9,446,645.7,431.9z" style="fill:#FF3A00;"/>
		<path d="M625.2,422c-0.6-1-1.1-2-1.7-3c-30.3-52.7-75.4-106.6-75.4-106.6c-12.6,21.7-23.3,41.8-32.3,60.1
			c-42.3,85.4-49.6,133-49.6,133c-153.9-47.8-266.5-103.9-266.5-103.9s1-3.5,4.3-14.5c-17.8,9.8-27.8,16.1-27.8,16.1
			S299.5,464.5,468,516.9c0,0,93.5-24.3,177.7-84.9C638.9,428.5,632.1,425.2,625.2,422z" style="fill:#04294F;"/>
		<path d="M610.8,480.4L610.8,480.4c-1.6,63-13.1,126.3-13.1,126.3c-64.6,46.4-136.2,68.5-136.2,68.5
			s-6.9-59.8-1.9-135.3c2.8,0.9,5.6,1.8,8.5,2.7C468,542.5,537.6,524.4,610.8,480.4z" style="fill:#04294F;"/>
		<g>
			<path d="M328.7,619.6c-0.1,0-0.3,0.1-0.6,0.2C328.4,619.7,328.6,619.7,328.7,619.6z" style="fill:#FFB400;"/>
			<path d="M322,623.9L322,623.9c0.3-0.2,0.6-0.5,0.9-0.7C322.6,623.4,322.3,623.6,322,623.9z" style="fill:#FFB400;"/>
			<path d="M327.6,620c-0.3,0.1-0.7,0.3-1.1,0.6C326.9,620.4,327.3,620.2,327.6,620z" style="fill:#FFB400;"/>
			<path d="M326.3,620.8c-0.9,0.5-1.9,1.2-3.2,2.3C324.4,622,325.5,621.3,326.3,620.8z" style="fill:#FFB400;"/>
			<path d="M459.5,539.9c-110.3-34.8-200.3-73-247.5-94.3c4.7,64.6,25.8,139.1,25.8,139.1s32,17.1,84.1,39.2
				c0,0-7.9-50.3-7.9-112.7c0,0,17.2,8,44.5,16.8c0.4,11.8,1.3,66.3,5.9,106.4c0.3,2.4,0.6,4.8,0.9,7.1
				c28.7,11.2,61.1,22.8,96.1,33.7C461.5,675.2,454.5,615.4,459.5,539.9z" style="fill:#FFB400;"/>
		</g>
		<g>
			<path d="M579,413.2c-1,18.8-11.9,33.5-23.4,32.9c-11.5-0.6-19.3-16.3-18.3-35c1-18.8,11.2-34,22.7-33.4
				C571.5,378.2,579.9,394.4,579,413.2z" style="fill:#FFFFFF;"/>
			<path d="M576.6,393.4c-4.5,3.7-10.9,7.4-17.6,10.8c-0.2-10.7-0.7-19.9-1.1-26.5c-2,0.2-4,0.9-5.9,1.9
				c0.5,7,1,16.5,1.1,27.5c-6.4,3-12.4,5.5-16.2,7.1c0,2.2,0.1,4.3,0.4,6.3c3.3-1.3,9.2-3.7,15.9-6.7c-0.1,9.9-0.4,20.7-1.4,31.8
				c1.5,0.6,3.1,1,4.7,1.1c0.4,0,0.8,0,1.2,0c1.1-12.6,1.5-24.9,1.5-35.8c6.9-3.4,13.9-7.3,19.3-11.2
				C577.9,397.4,577.3,395.3,576.6,393.4z" style="fill:#04294F;"/>
			<path d="M564.6,378.7c5.3,6.5,8.4,17.1,7.8,29c-1,19.1-11.3,34-23,33.5c-1.7-0.1-3.2-0.5-4.8-1.1
				c3.2,3.9,7.2,6.4,11.6,6.6c11.7,0.6,22-14.4,23-33.5C580.1,396.8,573.8,382.8,564.6,378.7z" style="fill:#FF3A00;"/>
		</g>
		<path d="M440.8,474.5c2.8,0.3,5.4,0.8,8.1,1.4c2.6,0.6,5.3,1.3,7.9,2c2.6,0.8,5.2,1.6,7.7,2.5c2.5,0.9,5.1,2,7.5,3.2
			l0.1,0c0.9,0.5,1.3,1.6,0.8,2.5c-0.4,0.7-1.1,1.1-1.8,1c-2.7-0.3-5.4-0.8-8.1-1.4c-2.7-0.6-5.3-1.3-7.9-2.1
			c-2.6-0.8-5.2-1.6-7.7-2.6c-2.6-1-5.1-2-7.5-3.2c-0.9-0.4-1.2-1.5-0.8-2.4C439.3,474.8,440,474.5,440.8,474.5L440.8,474.5z" style="fill:#04294F;"/>
		<path d="M355.1,444.4c0.7-0.3,1.4-0.3,2-0.3c0.6,0,1.2,0.2,1.7,0.3c0.5,0.2,1,0.5,1.5,0.8c0.5,0.4,0.9,0.8,1.3,1.5
			l0,0c0.6,1.2,0.2,2.6-1,3.2c-0.1,0-0.2,0.1-0.3,0.1c-0.7,0.3-1.3,0.3-1.9,0.3c-0.6,0-1.2-0.2-1.7-0.4c-0.5-0.2-1-0.5-1.5-0.9
			c-0.5-0.4-0.9-0.8-1.3-1.5c-0.6-1.1-0.1-2.5,1-3.1C354.9,444.4,355,444.4,355.1,444.4L355.1,444.4z" style="fill:#04294F;"/>
		<path d="M267.7,409.2c6.4,2.2,12.8,4.5,19.2,7c6.4,2.4,12.7,4.9,19,7.4c6.3,2.6,12.6,5.1,18.8,7.8
			c6.2,2.7,12.5,5.4,18.6,8.3c0.9,0.4,1.3,1.5,0.9,2.4c-0.4,0.8-1.3,1.2-2.2,1c-6.5-2-12.9-4.2-19.3-6.6c-6.4-2.3-12.7-4.8-19-7.4
			c-6.3-2.6-12.6-5.2-18.8-8c-6.2-2.8-12.4-5.6-18.4-8.8c-0.9-0.4-1.2-1.5-0.7-2.3C266,409.3,266.9,408.9,267.7,409.2z" style="fill:#04294F;"/>
		<path d="M212.8,383.4c3.5,1.1,6.9,2.4,10.3,3.8c3.4,1.4,6.7,2.8,10,4.3c3.3,1.5,6.6,3,9.9,4.7
			c3.3,1.6,6.5,3.3,9.6,5.3c0.9,0.5,1.1,1.7,0.6,2.5c-0.4,0.7-1.3,1-2.1,0.8c-3.5-1-7-2.2-10.4-3.6c-3.4-1.3-6.8-2.8-10.1-4.3
			c-3.3-1.5-6.6-3.1-9.9-4.9c-3.2-1.7-6.4-3.6-9.5-5.6c-0.8-0.5-1-1.6-0.5-2.4C211.3,383.4,212.1,383.2,212.8,383.4z" style="fill:#04294F;"/>
		<path d="M407.1,441.1c3,0.5,5.9,1.1,8.7,1.9c2.9,0.8,5.7,1.6,8.5,2.5c2.8,1,5.6,1.9,8.3,3.1c2.7,1.1,5.5,2.3,8.1,3.7
			l0,0c0.9,0.5,1.2,1.6,0.7,2.5c-0.4,0.7-1.1,1.1-1.9,0.9c-3-0.5-5.9-1.2-8.7-1.9c-2.9-0.8-5.7-1.7-8.5-2.6c-2.8-1-5.6-2-8.3-3.1
			c-2.8-1.1-5.5-2.3-8.1-3.8c-0.9-0.5-1.2-1.5-0.7-2.4C405.6,441.3,406.4,441,407.1,441.1L407.1,441.1z" style="fill:#04294F;"/>
		<path d="M240.1,373c5.9,2.4,11.7,4.9,17.5,7.3l17.5,7.4l35,14.7l35,14.5c5.8,2.4,11.7,4.8,17.6,7.2l8.8,3.6
			c2.9,1.2,5.9,2.4,8.8,3.6l0,0c0.9,0.4,1.3,1.5,1,2.4c-0.4,0.9-1.3,1.3-2.2,1c-6-2-12-4.1-18-6.2c-6-2.2-11.9-4.4-17.8-6.6
			c-11.9-4.5-23.6-9.2-35.3-14.1c-11.7-4.9-23.3-10-34.9-15.3c-5.8-2.7-11.5-5.3-17.2-8c-5.7-2.8-11.4-5.5-17.1-8.4
			c-0.9-0.4-1.2-1.5-0.8-2.3C238.3,373,239.3,372.7,240.1,373z" style="fill:#04294F;"/>
		<path d="M402.4,417.2c5.1,1.3,10.1,2.9,15.1,4.4c5,1.6,10,3.2,14.9,4.9c5,1.7,9.9,3.4,14.8,5.2
			c4.9,1.8,9.9,3.6,14.7,5.6c0.9,0.4,1.4,1.4,1,2.4c-0.3,0.8-1.2,1.3-2,1.1c-5.2-1.1-10.3-2.4-15.3-3.9c-5.1-1.4-10.1-3.1-15.1-4.7
			c-5-1.7-9.9-3.5-14.8-5.5c-4.9-1.9-9.8-4-14.5-6.3c-0.9-0.4-1.2-1.5-0.8-2.3C400.7,417.3,401.6,417,402.4,417.2z" style="fill:#04294F;"/>
		<path d="M236.7,348.1c5,1.8,9.9,3.9,14.9,6c4.9,2.1,9.8,4.2,14.6,6.4c4.8,2.2,9.7,4.4,14.5,6.7
			c4.8,2.3,9.6,4.7,14.3,7.3c0.9,0.5,1.2,1.6,0.7,2.5c-0.4,0.8-1.3,1.1-2.2,0.9c-5.1-1.7-10.1-3.5-15.1-5.5c-2.5-1-4.9-2-7.4-3.1
			l-7.3-3.2c-4.9-2.2-9.7-4.5-14.5-6.9c-4.8-2.4-9.5-5-14.1-7.7c-0.8-0.5-1.1-1.6-0.6-2.4C235.1,348.1,236,347.8,236.7,348.1z" style="fill:#04294F;"/>
		<path d="M457.3,378.9c4.2,1,8.3,2.3,12.4,3.6c4.1,1.3,8.1,2.8,12.1,4.3c4,1.5,8,3.1,12,4.8c4,1.7,7.9,3.4,11.7,5.4
			l0,0c0.9,0.5,1.2,1.6,0.8,2.5c-0.4,0.8-1.3,1.1-2.1,0.9c-4.2-1-8.3-2.3-12.4-3.7c-4.1-1.3-8.1-2.8-12.1-4.3c-4-1.5-8-3.1-12-4.8
			c-4-1.7-7.9-3.5-11.7-5.5c-0.9-0.4-1.2-1.5-0.7-2.4C455.7,379,456.5,378.7,457.3,378.9z" style="fill:#04294F;"/>
		<path d="M431,369.1c1-0.2,1.9-0.1,2.8,0c0.9,0.1,1.7,0.4,2.6,0.7c0.8,0.3,1.6,0.7,2.4,1.2c0.8,0.5,1.5,1,2.1,1.8
			c0.7,0.9,0.6,2.2-0.3,2.9c-0.3,0.2-0.6,0.4-1,0.4c-1,0.2-1.9,0.1-2.8-0.1c-0.9-0.2-1.7-0.4-2.6-0.7c-0.8-0.3-1.6-0.7-2.4-1.2
			c-0.8-0.5-1.5-1.1-2.1-1.9c-0.7-0.9-0.6-2.1,0.3-2.8C430.3,369.3,430.7,369.1,431,369.1z" style="fill:#04294F;"/>
		<path d="M255.9,300.1c5.3,1.6,10.5,3.3,15.6,5.2c5.2,1.8,10.3,3.8,15.4,5.8c5.1,2,10.1,4.1,15.1,6.3
			c5,2.2,10,4.5,14.9,7l0,0c0.9,0.5,1.2,1.5,0.8,2.4c-0.4,0.8-1.3,1.2-2.1,0.9c-5.3-1.6-10.4-3.4-15.6-5.2
			c-5.2-1.9-10.3-3.9-15.3-5.9c-5.1-2.1-10.1-4.2-15.1-6.4c-5-2.2-10-4.5-14.9-7c-0.9-0.4-1.2-1.5-0.8-2.3
			C254.3,300.2,255.1,299.9,255.9,300.1L255.9,300.1z" style="fill:#04294F;"/>
		<path d="M478.6,367.4c3.3,0.7,6.6,1.6,9.8,2.6c3.2,1,6.4,2.1,9.6,3.2c3.2,1.2,6.3,2.4,9.4,3.7
			c3.1,1.3,6.2,2.7,9.2,4.5c0.9,0.5,1.2,1.6,0.7,2.5c-0.4,0.7-1.2,1-2,0.9l0,0c-3.3-0.7-6.5-1.7-9.8-2.7c-3.2-1-6.4-2.1-9.6-3.2
			c-3.2-1.2-6.3-2.4-9.4-3.7c-3.1-1.3-6.2-2.8-9.2-4.5c-0.8-0.5-1.1-1.6-0.6-2.4C477.1,367.6,477.8,367.3,478.6,367.4L478.6,367.4z" style="fill:#04294F;"/>
		<path d="M258.6,282.3c4.2,1,8.4,2.3,12.5,3.7c4.1,1.3,8.2,2.8,12.2,4.3c4,1.5,8.1,3.1,12,4.8c4,1.7,7.9,3.5,11.8,5.5
			c0.9,0.5,1.2,1.6,0.8,2.5c-0.4,0.8-1.3,1.1-2.1,0.9c-4.2-1.1-8.4-2.3-12.5-3.7c-4.1-1.4-8.2-2.8-12.2-4.4c-4-1.6-8.1-3.1-12-4.9
			c-4-1.7-7.9-3.5-11.8-5.5c-0.9-0.4-1.2-1.5-0.7-2.4C257,282.4,257.8,282.1,258.6,282.3z" style="fill:#04294F;"/>
		<path d="M460.6,299.2c7.3,2.1,14.5,4.5,21.7,6.9c7.2,2.4,14.4,5,21.5,7.6c7.1,2.6,14.3,5.3,21.3,8.1
			c7.1,2.8,14.1,5.6,21.1,8.7c0.9,0.4,1.3,1.5,0.9,2.4c-0.4,0.8-1.3,1.3-2.2,1l0,0c-7.3-2.1-14.5-4.5-21.7-7
			c-7.2-2.4-14.4-5-21.5-7.6c-7.1-2.6-14.2-5.3-21.3-8.1c-7.1-2.8-14.1-5.7-21.1-8.8l0,0c-0.9-0.4-1.3-1.4-0.9-2.3
			C458.9,299.3,459.8,298.9,460.6,299.2z" style="fill:#04294F;"/>
		<path d="M442.7,314.5c4.8,1.2,9.4,2.6,14.1,4.1c4.7,1.5,9.3,3.1,13.9,4.7c4.6,1.7,9.2,3.4,13.7,5.2
			c4.5,1.8,9,3.7,13.4,5.9c0.9,0.4,1.3,1.5,0.8,2.4c-0.4,0.8-1.3,1.2-2.1,1l0,0c-4.8-1.2-9.4-2.6-14.1-4.1
			c-4.7-1.5-9.3-3.1-13.8-4.8c-4.6-1.7-9.1-3.4-13.7-5.3c-4.5-1.8-9-3.8-13.4-5.9l0,0c-0.9-0.4-1.2-1.5-0.8-2.3
			C441.1,314.7,441.9,314.3,442.7,314.5z" style="fill:#04294F;"/>
		<path d="M274.5,255.4c2.4,0.3,4.7,0.8,7.1,1.4c2.3,0.6,4.6,1.3,6.8,2c2.3,0.8,4.5,1.6,6.7,2.6c2.2,0.9,4.4,2,6.4,3.2
			c0.9,0.5,1.2,1.7,0.6,2.5c-0.4,0.6-1.1,1-1.8,0.9l0,0c-2.4-0.3-4.7-0.8-7-1.4c-2.3-0.6-4.6-1.3-6.8-2.1c-2.2-0.8-4.5-1.6-6.6-2.6
			c-2.2-0.9-4.3-2-6.4-3.2l0,0c-0.8-0.5-1.1-1.6-0.6-2.4C273.1,255.7,273.8,255.4,274.5,255.4z" style="fill:#04294F;"/>
		<path d="M498,315.1c-0.4,1.7-1.1,3.3-1.8,4.9c-0.7,1.6-1.5,3.1-2.3,4.6c-0.8,1.5-1.7,2.9-2.7,4.4
			c-1,1.4-2,2.8-3.2,4.1l0,0c-0.7,0.8-1.9,0.8-2.7,0.1c-0.5-0.5-0.7-1.1-0.5-1.7c0.3-1.8,0.9-3.4,1.6-5.1c0.7-1.6,1.4-3.2,2.3-4.7
			c0.9-1.5,1.8-3,2.8-4.4c1.1-1.4,2.2-2.7,3.5-4c0.7-0.7,1.9-0.6,2.6,0.1C498,313.9,498.1,314.5,498,315.1L498,315.1z" style="fill:#04294F;"/>
		<path d="M489.5,297.9c-0.1,1.3-0.4,2.4-0.8,3.5c-0.4,1.1-0.9,2.2-1.4,3.2c-0.5,1-1.2,2-1.9,2.9
			c-0.7,0.9-1.5,1.8-2.5,2.6l-0.1,0.1c-0.8,0.7-2.1,0.5-2.7-0.3c-0.3-0.4-0.4-0.9-0.4-1.4c0.1-1.3,0.4-2.4,0.9-3.5
			c0.4-1.1,0.9-2.2,1.5-3.2c0.6-1,1.2-2,1.9-3c0.7-0.9,1.5-1.8,2.5-2.6c0.8-0.6,2-0.5,2.6,0.3C489.5,296.9,489.6,297.3,489.5,297.9
			L489.5,297.9z" style="fill:#04294F;"/>
		<path d="M472.7,328c-0.1,1.3-0.4,2.4-0.8,3.5c-0.4,1.1-0.9,2.2-1.4,3.2c-0.5,1-1.2,2-1.9,2.9
			c-0.7,0.9-1.5,1.8-2.5,2.6l-0.1,0.1c-0.8,0.7-2.1,0.5-2.7-0.3c-0.3-0.4-0.4-0.9-0.4-1.4c0.1-1.3,0.4-2.4,0.9-3.5
			c0.4-1.1,0.9-2.2,1.5-3.2c0.6-1,1.2-2,1.9-3c0.7-0.9,1.5-1.8,2.5-2.6c0.8-0.6,2-0.5,2.6,0.3C472.6,327,472.8,327.4,472.7,328
			L472.7,328z" style="fill:#04294F;"/>
		<path d="M487.9,373.1c-0.3,1.5-0.8,3-1.3,4.5c-0.5,1.5-1.1,2.9-1.8,4.3c-0.7,1.4-1.4,2.7-2.3,4.1
			c-0.9,1.3-1.8,2.6-2.9,3.8c-0.7,0.7-1.9,0.7-2.7,0c-0.4-0.4-0.6-1-0.5-1.6l0,0c0.2-1.6,0.7-3.1,1.2-4.6c0.5-1.5,1.1-2.9,1.8-4.3
			c0.7-1.4,1.5-2.8,2.4-4.1c0.9-1.3,1.9-2.6,3.1-3.7c0.7-0.7,1.9-0.6,2.6,0.1C487.8,371.9,488,372.4,487.9,373.1L487.9,373.1z" style="fill:#04294F;"/>
		<path d="M431.3,429.3c-0.1,1.6-0.4,3.1-0.8,4.6c-0.4,1.5-0.8,3-1.4,4.4c-0.5,1.5-1.2,2.9-1.9,4.3
			c-0.7,1.4-1.5,2.8-2.5,4c-0.7,0.8-1.9,0.9-2.7,0.3c-0.5-0.4-0.7-1-0.7-1.6l0,0c0.1-1.6,0.4-3.2,0.8-4.7c0.4-1.5,0.9-3,1.4-4.5
			c0.6-1.5,1.2-2.9,1.9-4.3c0.8-1.4,1.6-2.8,2.7-4c0.7-0.8,1.8-0.8,2.6-0.2C431.2,428.1,431.4,428.6,431.3,429.3L431.3,429.3z" style="fill:#04294F;"/>
		<path d="M519.8,312.9c0.1,1-0.1,1.9-0.3,2.7c-0.2,0.8-0.5,1.6-0.9,2.3c-0.4,0.7-0.8,1.4-1.4,2.1
			c-0.6,0.6-1.2,1.3-2,1.8l-0.1,0c-1,0.6-2.3,0.3-2.9-0.7c-0.2-0.3-0.3-0.6-0.3-1c-0.1-1,0.1-1.8,0.4-2.7c0.2-0.8,0.6-1.6,1-2.4
			c0.4-0.7,0.9-1.5,1.5-2.1c0.6-0.7,1.2-1.3,2.1-1.8c1-0.6,2.2-0.2,2.7,0.7c0.2,0.3,0.2,0.6,0.3,0.9L519.8,312.9z" style="fill:#04294F;"/>
		<path d="M471.6,305.5c-0.4,1.7-1.1,3.3-1.8,4.9c-0.7,1.6-1.5,3.1-2.3,4.6c-0.8,1.5-1.7,2.9-2.7,4.4
			c-1,1.4-2,2.8-3.2,4.1l0,0c-0.7,0.8-1.9,0.8-2.7,0.1c-0.5-0.5-0.7-1.1-0.5-1.7c0.3-1.8,0.9-3.4,1.6-5.1c0.7-1.6,1.4-3.2,2.3-4.7
			c0.9-1.5,1.8-3,2.8-4.4c1.1-1.4,2.2-2.7,3.5-4c0.7-0.7,1.9-0.6,2.6,0.1C471.6,304.3,471.8,304.9,471.6,305.5L471.6,305.5z" style="fill:#04294F;"/>
		<path d="M281.8,292.7c-0.4,1.6-1,3-1.6,4.5c-0.6,1.4-1.3,2.8-2.1,4.1c-0.8,1.3-1.6,2.7-2.5,3.9
			c-0.9,1.3-1.8,2.5-3,3.7l0,0c-0.7,0.7-1.9,0.7-2.7,0c-0.4-0.4-0.6-1.1-0.5-1.6c0.3-1.6,0.8-3.2,1.4-4.6c0.6-1.5,1.3-2.9,2.1-4.3
			c0.8-1.4,1.7-2.7,2.6-4c1-1.3,2-2.5,3.3-3.5c0.8-0.6,1.9-0.5,2.6,0.2C281.8,291.6,281.9,292.2,281.8,292.7L281.8,292.7z" style="fill:#04294F;"/>
		<path d="M296.1,319.6c-0.3,1.6-0.8,3.1-1.3,4.5c-0.6,1.5-1.2,2.9-1.9,4.2c-0.7,1.4-1.4,2.7-2.2,4
			c-0.8,1.3-1.7,2.6-2.8,3.8l0,0c-0.7,0.8-1.9,0.8-2.7,0.1c-0.5-0.4-0.7-1-0.6-1.6c0.2-1.6,0.6-3.2,1.1-4.7c0.5-1.5,1.1-3,1.9-4.4
			c0.7-1.4,1.5-2.8,2.4-4.1c0.9-1.3,1.9-2.6,3.1-3.7c0.7-0.7,1.9-0.6,2.6,0.1C296.1,318.4,296.2,319,296.1,319.6L296.1,319.6z" style="fill:#04294F;"/>
		<path d="M277.4,371.9c-0.3,1.6-0.8,3.1-1.3,4.5c-0.6,1.5-1.2,2.9-1.9,4.2c-0.7,1.4-1.4,2.7-2.2,4
			c-0.8,1.3-1.7,2.6-2.8,3.8l0,0c-0.7,0.8-1.9,0.8-2.7,0.1c-0.5-0.4-0.7-1-0.6-1.6c0.2-1.6,0.6-3.2,1.1-4.7c0.5-1.5,1.1-3,1.9-4.4
			c0.7-1.4,1.5-2.8,2.4-4.1c0.9-1.3,1.9-2.6,3.1-3.7c0.7-0.7,1.9-0.6,2.6,0.1C277.4,370.7,277.5,371.3,277.4,371.9L277.4,371.9z" style="fill:#04294F;"/>
		<path d="M290.2,399.6c-0.3,1.6-0.9,3.1-1.4,4.5c-0.6,1.4-1.2,2.8-1.9,4.1c-0.7,1.3-1.4,2.7-2.2,4.1
			c-0.8,1.3-1.7,2.7-2.8,3.9c-0.7,0.8-1.9,0.8-2.7,0.1c-0.5-0.4-0.7-1-0.6-1.6c0.2-1.6,0.6-3.2,1-4.7c0.5-1.5,1.1-3,1.8-4.4
			c0.7-1.5,1.6-2.9,2.5-4.1c0.9-1.3,1.9-2.5,3.2-3.6c0.7-0.7,1.9-0.6,2.6,0.1C290.2,398.5,290.3,399.1,290.2,399.6z" style="fill:#04294F;"/>
		<path d="M252,380.3c-0.3,1.6-0.9,3.1-1.4,4.5c-0.6,1.4-1.2,2.8-1.9,4.1c-0.7,1.3-1.4,2.7-2.2,4.1
			c-0.8,1.3-1.7,2.7-2.8,3.9c-0.7,0.8-1.9,0.8-2.7,0.1c-0.5-0.4-0.7-1-0.6-1.6c0.2-1.6,0.6-3.2,1-4.7c0.5-1.5,1.1-3,1.8-4.4
			c0.7-1.5,1.6-2.9,2.5-4.1c0.9-1.3,1.9-2.5,3.2-3.6c0.7-0.7,1.9-0.6,2.6,0.1C251.9,379.1,252.1,379.7,252,380.3z" style="fill:#04294F;"/>
		<path d="M296.9,425.5c-0.3,1.6-0.9,3.1-1.4,4.5c-0.6,1.4-1.2,2.8-1.9,4.1c-0.7,1.3-1.4,2.7-2.2,4.1
			c-0.8,1.3-1.7,2.7-2.8,3.9c-0.7,0.8-1.9,0.8-2.7,0.1c-0.5-0.4-0.7-1-0.6-1.6c0.2-1.6,0.6-3.2,1-4.7c0.5-1.5,1.1-3,1.8-4.4
			c0.7-1.5,1.6-2.9,2.5-4.1c0.9-1.3,1.9-2.5,3.2-3.6c0.7-0.7,1.9-0.6,2.6,0.1C296.8,424.4,297,425,296.9,425.5z" style="fill:#04294F;"/>
		<path d="M325,413.2c-0.3,1.6-0.9,3.1-1.4,4.5c-0.6,1.4-1.2,2.8-1.9,4.1c-0.7,1.3-1.4,2.7-2.2,4.1
			c-0.8,1.3-1.7,2.7-2.8,3.9c-0.7,0.8-1.9,0.8-2.7,0.1c-0.5-0.4-0.7-1-0.6-1.6c0.2-1.6,0.6-3.2,1-4.7c0.5-1.5,1.1-3,1.8-4.4
			c0.7-1.5,1.6-2.9,2.5-4.1c0.9-1.3,1.9-2.5,3.2-3.6c0.7-0.7,1.9-0.6,2.6,0.1C325,412.1,325.1,412.7,325,413.2z" style="fill:#04294F;"/>
		<path d="M353.3,408.5c-0.1,1.2-0.4,2.3-0.7,3.3c-0.4,1-0.7,1.9-1.2,2.8c-0.4,0.9-0.9,1.8-1.5,2.7
			c-0.6,0.9-1.3,1.8-2.2,2.5c-0.8,0.7-2.1,0.6-2.8-0.2c-0.3-0.4-0.5-0.8-0.5-1.3c0-1.2,0.2-2.3,0.4-3.3c0.3-1.1,0.7-2.1,1.2-3.1
			c0.5-1,1.1-2,1.8-2.8c0.7-0.9,1.5-1.7,2.4-2.3c0.9-0.6,2.1-0.4,2.7,0.5C353.3,407.7,353.4,408.1,353.3,408.5z" style="fill:#04294F;"/>
		<g>
			<g>
				<path d="M364.5,634.4L364.5,634.4c-4.6-40.1-5.4-94.6-5.9-106.4c-27.3-8.8-44.5-16.8-44.5-16.8
					c0,62.4,7.9,112.7,7.9,112.7c4.8-4,6.9-4.3,6.9-4.3S342,625.4,364.5,634.4z" style="fill:#FF3A00;"/>
			</g>
			<path d="M328.9,619.6c0,0-7.3-46.4-7.9-105.4c-4.5-1.9-6.9-3-6.9-3c0,62.4,7.9,112.7,7.9,112.7
				C327.2,620.4,328.9,619.6,328.9,619.6z" style="fill:#04294F;"/>
			<g>
				<g>
					<path d="M337.3,570.9c-0.6,0-1.2-0.1-1.9-0.5c-2.6-1.3-2.3-4.2-2.1-6.2c0,0,0,0,0-0.1c-1.9,0-4.7-0.1-5.9-2.6
						c-1.1-2.3,0.2-4.3,1.3-5.9c-1.8-0.8-3.9-1.8-4.2-4.3c-0.3-2.5,1.6-4,3.2-5.1c-1.4-1.3-3.1-3-2.5-5.5c0.7-2.7,3.4-3.3,5.3-3.8
						c0,0,0,0,0-0.1c-0.6-1.8-1.4-4.6,0.8-6.5c2.5-2.1,5.4-0.2,6.9,0.8c0.1,0.1,0.2,0.1,0.3,0.2c0.1-0.1,0.2-0.2,0.3-0.3
						c1.3-1.3,3.7-3.7,6.6-2.2c2.6,1.3,2.3,4.2,2.1,6.2c0,0,0,0,0,0.1c1.9,0,4.7,0.1,5.9,2.6c1.1,2.3-0.2,4.3-1.3,5.9
						c1.8,0.8,3.9,1.8,4.2,4.3v0c0.3,2.5-1.6,4-3.2,5.1c1.4,1.3,3.1,3,2.5,5.5c-0.7,2.7-3.4,3.4-5.3,3.8c0,0,0,0,0,0.1
						c0.6,1.8,1.4,4.6-0.8,6.5c-2.5,2.1-5.4,0.2-6.9-0.8c-0.1-0.1-0.2-0.1-0.3-0.2c-0.1,0.1-0.2,0.2-0.3,0.3
						C341,569.2,339.4,570.9,337.3,570.9z M335.3,557.6c1.3,0.1,2.6,0.5,3.5,1.6c0.6,0.7,0.9,1.5,1,2.3c0.5-0.3,1.1-0.5,1.7-0.6
						c0.6-0.1,1.2,0,1.8,0.2c0-0.8,0.1-1.7,0.5-2.4c0.7-1.3,1.9-1.9,3.1-2.3c-0.9-1-1.6-2.2-1.5-3.8c0.1-1.6,1.1-2.8,2.2-3.7
						c-1.3-0.6-2.5-1.5-3-3.1c-0.4-1.5,0-2.8,0.7-4c-1.3-0.1-2.6-0.5-3.5-1.6c-0.6-0.7-0.9-1.5-1-2.3c-0.5,0.3-1.1,0.5-1.7,0.6
						c-0.6,0.1-1.2,0-1.8-0.2c0,0.8-0.1,1.7-0.5,2.4c-0.7,1.3-1.9,1.9-3.1,2.3c0.9,1,1.6,2.2,1.5,3.8c-0.1,1.6-1.1,2.8-2.2,3.7
						c1.3,0.6,2.5,1.5,3,3.1C336.4,555.1,336,556.4,335.3,557.6z M349.8,548.7L349.8,548.7L349.8,548.7z" style="fill:#FFFFFF;"/>
				</g>
				<g>
					<g id="XMLID_1_">
						<g>
							<path d="M353,550.2c0,0.1,0,0.3,0,0.4c0,1.1-0.4,2.1-1.3,3.1c-0.7,0.7-1.6,1.1-2.5,1.1c-0.2,0-0.4,0-0.6-0.1
								c-0.6-0.1-1.1-0.4-1.6-0.8c-1.2-1.1-1.4-2.8-0.6-4.1c0.2-1,0.8-2,1.8-2.4c0.1-0.1,0.3-0.1,0.5-0.2c1.7-0.5,3.6,0.5,4.1,2.2
								C352.9,549.7,353,549.9,353,550.2z" style="fill:#04294F;"/>
							<path d="M351.3,559.5c0.7,1.7-0.1,3.6-1.7,4.3c-0.4,0.2-0.9,0.3-1.5,0.5c-0.3,0.1-0.5,0.1-0.8,0.1
								c-0.4,0-0.7-0.1-1.1-0.2c-1-0.4-1.8-1.2-2.1-2.3c-0.5-1.8,0.6-3.6,2.4-4c0.3-0.1,0.5-0.1,0.5-0.2c0.4-0.2,0.9-0.3,1.3-0.3
								C349.5,557.5,350.7,558.2,351.3,559.5z" style="fill:#00AEE0;"/>
							<path d="M349,538.6c1.4,1.1,1.6,3.2,0.5,4.6c-0.7,0.8-1.6,1.2-2.6,1.2c-0.5,0-1.1-0.1-1.6-0.4
								c-1.7-0.4-2.9-2-2.6-3.7c0.1-0.8,0.5-1.5,1.1-2c0.7-0.6,1.6-0.9,2.6-0.7C347.5,537.7,348.3,538.1,349,538.6z" style="fill:#00AEE0;"/>
							<path d="M343.5,565.1c1.6,1,2,3,1.1,4.6c-0.6,1-1.7,1.6-2.8,1.6c-0.6,0-1.2-0.2-1.7-0.5
								c-0.2-0.1-0.4-0.3-0.6-0.4l-0.3-0.2c-1.3-0.8-1.8-2.3-1.4-3.7c0.1-0.3,0.2-0.6,0.4-0.9c1-1.5,3-2,4.6-1L343.5,565.1z" style="fill:#04294F;"/>
							<path d="M341.5,532.5c1.1,1.4,0.9,3.5-0.5,4.6c-0.1,0.1-0.2,0.2-0.3,0.2c-0.1,0.1-0.2,0.2-0.3,0.3
								c-0.6,0.6-1.5,0.9-2.3,0.9c-0.9,0-1.7-0.3-2.4-1c-0.3-0.3-0.5-0.7-0.7-1.1c-0.5-1.2-0.2-2.6,0.8-3.6c0.4-0.3,0.7-0.7,1-0.9
								C338.3,530.9,340.4,531.1,341.5,532.5z" style="fill:#04294F;"/>
							<path d="M336.7,565.1c0,0.2,0,0.4,0,0.6c0,0.2,0,0.4-0.1,0.6c-0.4,1.5-1.7,2.5-3.2,2.5c0,0-0.1,0-0.1,0
								c-1.8-0.1-3.2-1.6-3.2-3.4c0-0.1,0-0.2,0-0.3c0-0.1,0-0.2,0-0.2c-0.1-1.1,0.3-2.1,1-2.8c0.5-0.5,1.1-0.8,1.9-0.9
								c1.8-0.2,3.5,1.1,3.7,2.9C336.6,564.3,336.7,564.7,336.7,565.1z" style="fill:#04294F;"/>
							<path d="M333.8,538.7c0.4,1.8-0.6,3.6-2.4,4c-0.3,0.1-0.5,0.1-0.8,0.1c-0.5,0-1.1-0.1-1.6-0.4
								c-0.8-0.4-1.4-1.2-1.6-2.1c-0.1-0.3-0.2-0.6-0.3-0.9c-0.5-1.7,0.4-3.6,2.2-4.1c1.6-0.5,3.2,0.3,3.9,1.7
								c0.1,0.2,0.2,0.3,0.2,0.5C333.6,537.9,333.7,538.3,333.8,538.7z" style="fill:#00AEE0;"/>
							<path d="M332.7,555.8c0.1,0.4,0.2,0.7,0.2,1.1c0,0.5-0.1,1-0.2,1.5c-0.4,1.4-1.7,2.3-3.2,2.3c-0.3,0-0.6,0-1-0.1
								c-1.5-0.5-2.4-1.8-2.3-3.3c-0.3-1.2,0.1-2.6,1.1-3.5c0.5-0.4,1-0.6,1.5-0.7c1.1-0.2,2.3,0.2,3.1,1.2
								C332.3,554.8,332.6,555.3,332.7,555.8z" style="fill:#00AEE0;"/>
							<path d="M331.5,546.8c0.8,1.6,0.1,3.6-1.6,4.4c-0.4,0.2-0.8,0.3-1.2,0.3c-0.1,0-0.1,0-0.2,0
								c-1.2,0-2.4-0.7-2.9-1.8c0,0-0.1-0.1-0.1-0.1c-1.2-1.3-1.2-3.4,0.2-4.7c0.6-0.6,1.4-0.9,2.2-0.9c0.9,0,1.8,0.4,2.4,1.1
								C330.9,545.7,331.3,546.3,331.5,546.8z" style="fill:#04294F;"/>
						</g>
						<g>
						</g>
					</g>
				</g>
			</g>
			<path d="M328.2,577.1c0.2,3.1,0.6,8.6,1.2,11.7c0.1,0.4,0.4,0.8,0.8,1c0.7,0.4,1.9,0.9,3.1,1.4c1,0.4,2-0.4,1.9-1.5
				c-0.3-3-0.8-8.6-1.1-11.6c0-0.5-0.4-1-0.9-1.2c-0.7-0.3-1.9-0.8-3.1-1.3C329.2,575.3,328.1,576.1,328.2,577.1z" style="fill:#FFB400;"/>
		</g>
		<path d="M365.3,641.5l-0.9-7.1l-35.6-14.8c0,0-33.5,14.8-100.2,75.6c0,0,0,0,0,0c20.5,3.6,37.2,9.4,52.2,15.9
			C312.5,671.3,365.3,641.5,365.3,641.5z" style="fill:#FFFFFF;"/>
		<path d="M293.2,624.5c6.6-1.8,15.7-6.2,15.7-6.2c-4.4-1.9-5.8-4.1-6-8.4c0,0,0,0,0-0.1c-0.6-7.2-6.7-12.9-14.1-12.9
			c-2.2,0-4.2,0.5-6.1,1.4c0,0-0.1,0-0.1,0.1c-4.2,2-8.7,4-13.3,1.9c-4.2-2-5.3-3.8-5.9-6.6c0-0.2-0.1-0.4-0.1-0.6
			c0-0.1,0-0.2,0-0.2c0-0.2-0.1-0.4-0.2-0.6c-1.1-3.7-4-6.6-7.7-7.9c0,0-0.1,0-0.1,0c-2.7-0.9-3.5-1.7-4.2-4.3c0,0,0,0,0,0
			c-1.6-6.7-7.6-11.7-14.8-11.7c-8.4,0-15.2,6.8-15.2,15.2c0,3.8,1.4,7.3,3.7,10c0.1,0.1,0.1,0.2,0.2,0.2c6.5,7.5,39.5,23.1,56,29
			c2.2,1.5,4.9,2.4,7.8,2.4c0.2,0,0.5,0,0.7,0c0.1,0,0.3,0,0.4,0c0,0,0.1,0,0.1,0C291.2,625,292.2,624.8,293.2,624.5z" style="fill:#00AEE0;"/>
		<path d="M452.6,672.4c-1.8-0.6-4.1-4.4-4.5-7c0,0,0,0,0,0c-0.5-3.2-2.5-6-5.3-7.7c-1-0.6-2-1-2.9-1.3
			c-2.4-0.6-4.3-2.4-5.3-4.8c-2.2-5.6-7.7-9.6-14.1-9.6c-3.3,0-6.4,1.1-8.9,2.9c-2.5,1.8-5.5,2.6-8.5,2c-1.4-0.3-2.9-0.3-4.4-0.1
			c-1.8,0.2-3.5,0.9-5.1,1.7c-0.1,0-0.1,0.1-0.2,0.1c-2.5,1.6-4.2,1.9-5.1,1.5c0,0,0.1,1.2,0.8,2.4c-1.4,1.9-2.3,4.2-2.6,6.7
			c-0.9,8.5,5.8,15.7,14.1,15.7c4.5,0,8.5-2.1,11.1-5.3c2.5,1.8,5.5,2.8,8.8,2.8c2.7,0,5.2-0.7,7.4-1.9c1.6,3.8,5.3,6.6,9.8,6.6
			c2.7,0,5.1-1,7-2.7c0.3,0.2,0.6,0.4,1.1,0.6C451.7,677.8,454.4,673,452.6,672.4z" style="fill:#00AEE0;"/>
		<path d="M229.2,570.7c-1.3,0.7-2.9,1.3-4.2,2c-1.3,0.7-2.6,1.5-3.7,2.3c-0.6,0.4-1.1,0.9-1.6,1.3
			c-0.5,0.5-1,1-1.4,1.5c-1,1-1.7,2.3-2.7,3.6l-0.2,0.2c-0.6,0.8-1.8,1-2.6,0.4c-0.5-0.4-0.8-1-0.7-1.6c0.1-1.9,0.6-3.9,1.6-5.7
			c0.5-0.9,1.1-1.7,1.8-2.5c0.7-0.7,1.4-1.5,2.3-2c1.6-1.2,3.5-2.1,5.4-2.6c1.9-0.5,3.8-0.7,5.8-0.4c1,0.1,1.6,1,1.5,2
			c-0.1,0.6-0.5,1.1-1,1.3L229.2,570.7z" style="fill:#FFFFFF;"/>
		<path d="M429.7,660c-1.1,0.4-2.5,0.9-3.6,1.4c-1.2,0.5-2.3,1.1-3.4,1.8c-2.2,1.3-4,2.9-5.5,4.8c-0.8,0.9-1.4,1.9-2,3
			c-0.3,0.5-0.5,1.1-0.8,1.7l-0.3,0.9c-0.1,0.3-0.2,0.6-0.3,0.9c-0.8,2.4-1.3,5-1.7,7.7l0,0c-0.2,1-1.1,1.7-2.1,1.5
			c-0.8-0.1-1.4-0.7-1.5-1.4c-0.6-3-0.6-6.1,0-9.3c0.3-1.6,0.8-3.1,1.5-4.6c0.7-1.5,1.6-2.9,2.6-4.2c2.1-2.6,4.8-4.6,7.7-5.9
			c1.5-0.7,3-1.1,4.5-1.5c1.6-0.3,3-0.5,4.7-0.4c1,0,1.7,0.9,1.7,1.8c0,0.7-0.5,1.3-1.2,1.6L429.7,660z" style="fill:#FFFFFF;"/>
		<path d="M242.9,592.2c-1.7,0.1-3.2,0.4-4.7,0.8c-1.5,0.5-3,1.1-4.4,1.8c-0.9,0.5-1.7,1-2.5,1.6
			c-0.1-0.1-0.2-0.2-0.2-0.2c-0.9-0.6-1.6-1-2.5-1.4c-0.9-0.3-1.8-0.6-2.8-0.7c-1.9-0.2-4,0-5.9,0.8c-0.5,0.2-0.9,0.4-1.4,0.7
			c-0.4,0.3-0.9,0.5-1.3,0.8c-0.4,0.3-0.8,0.6-1.1,1c-0.3,0.4-0.7,0.7-1,1.1l-0.5,0.6c-0.1,0.2-0.3,0.4-0.4,0.6l-0.7,1.2
			c-0.4,0.9-0.6,1.7-0.9,2.6c-0.1,0.5,0,1.1,0.4,1.6c0.6,0.8,1.8,0.9,2.6,0.3l0.3-0.2c0.6-0.5,1.1-1,1.6-1.5l0.8-0.7
			c0.1-0.1,0.2-0.2,0.4-0.3l0.4-0.3c0.3-0.2,0.5-0.4,0.7-0.6c0.3-0.1,0.5-0.3,0.8-0.5c0.2-0.2,0.5-0.3,0.8-0.4
			c0.3-0.1,0.5-0.3,0.8-0.4c1.1-0.5,2.2-0.8,3.5-0.9c0.6-0.1,1.3-0.1,2-0.1c0.2,0,0.3,0,0.5,0c-0.5,0.6-1,1.3-1.5,1.9
			c-0.9,1.4-1.7,2.9-2.2,4.4c-0.5,1.5-0.9,3.1-1.1,4.7c-0.4,3.2-0.1,6.3,0.8,9.2c0.2,0.7,0.9,1.3,1.6,1.3c1,0.1,1.9-0.7,1.9-1.7l0,0
			c0.2-2.8,0.4-5.4,1-7.8c0.1-0.3,0.1-0.6,0.3-0.9l0.3-0.9c0.2-0.6,0.4-1.2,0.7-1.7c0.5-1.1,1-2.2,1.7-3.2c1.3-2,3.1-3.8,5.1-5.3
			c1-0.7,2.1-1.5,3.2-2.1c1.1-0.7,2.4-1.2,3.5-1.7l0.2-0.1c0.6-0.3,1-0.9,1-1.7C244.6,592.9,243.8,592.2,242.9,592.2z" style="fill:#FFFFFF;"/>
		<path d="M399.2,659.7c-0.6,0.2-1.4,0.2-2,0.4c-0.7,0.1-1.3,0.3-1.9,0.5c-1.2,0.4-2.3,0.8-3.3,1.4
			c-0.3,0.1-0.5,0.3-0.7,0.5c-0.2,0.2-0.5,0.3-0.7,0.5c-0.2,0.2-0.4,0.4-0.7,0.6c-0.2,0.2-0.4,0.5-0.6,0.7l-0.3,0.3
			c-0.1,0.1-0.2,0.3-0.3,0.4l-0.6,0.8c-0.4,0.6-0.8,1.2-1.3,1.7l-0.2,0.3c-0.7,0.8-1.8,0.8-2.6,0.1c-0.4-0.4-0.6-0.9-0.6-1.5
			c0.1-0.9,0.2-1.8,0.4-2.7l0.5-1.3c0.1-0.2,0.2-0.4,0.3-0.7l0.4-0.6c0.2-0.4,0.5-0.8,0.8-1.2c0.3-0.4,0.6-0.8,1-1.1
			c0.3-0.4,0.7-0.7,1.1-1c0.4-0.3,0.8-0.6,1.2-0.9c1.7-1.1,3.7-1.6,5.7-1.7c1,0,1.9,0.1,2.8,0.2c0.9,0.2,1.8,0.5,2.7,1
			c0.9,0.4,1.2,1.5,0.7,2.3c-0.2,0.5-0.6,0.8-1.1,0.9L399.2,659.7z" style="fill:#FFFFFF;"/>
		<g>
			<path d="M642.7,648.7c0-0.5-0.1-1.1-0.2-1.6c-0.4-2.2-1.3-4.5-3-6.4c-0.9-1.1-2.2-2.1-3.7-2.8c0-0.3-0.1-0.5-0.1-0.8
				c-0.1-0.9-0.4-1.7-0.7-2.6c0.3-1,0.4-2,0.4-3l0-2.1c0-0.7-0.1-1.4-0.2-2.1c-0.2-1.4-0.7-2.9-1.4-4.3c-0.5-1-1.2-2.1-2.1-3
				c-0.7-2.6-1.9-5.3-3.8-7.5c-1.6-1.9-3.7-3.4-6.1-4.3c0-0.4-0.1-0.9-0.1-1.3c-0.2-1.4-0.7-2.9-1.6-4.3c-0.9-1.4-2.2-2.6-3.9-3.3
				c0,0-0.1,0-0.1,0c0-0.2,0.1-0.4,0.1-0.6c0.2-1,0.2-2,0.2-3c0-0.5,0-0.9,0-1.4c-0.1-0.5-0.1-1-0.2-1.5c-0.3-1.9-1-3.9-2.3-5.6
				c-1.3-1.7-3.1-3.2-5.4-3.7c-1.2-0.3-2.5,0.4-2.9,1.6c-0.4,1.3,0.3,2.6,1.6,3l0.1,0c0.9,0.3,1.8,1,2.4,2c0.6,1,1,2.2,1.1,3.5
				c0.1,0.3,0.1,0.7,0.1,1c0,0.4,0,0.7,0,1.1c0,0.6-0.1,1.3-0.2,1.9c-0.1,0.6-0.3,1.1-0.5,1.5c-0.2,0.4-0.5,0.6-0.8,0.8l-0.3,0.2
				l0,0c-0.9,0.7-1.4,1.9-1,3.1c0.4,1.5,2,2.4,3.5,1.9l0.6-0.2c0.2,0,0.3-0.1,0.5-0.2l0.2-0.1c0.3-0.1,0.4-0.1,0.6-0.1
				c0.2,0,0.3,0.1,0.5,0.2c0.4,0.2,0.7,0.5,1,1c0.3,0.5,0.5,1.2,0.6,2c0,0.4,0.1,0.8,0,1.2c0,0.3,0,0.4,0,0.6l-0.1,0.6
				c-0.2,1.7,1,3.4,2.8,3.7l0,0c1.7,0.3,3.3,1.3,4.6,2.9c1.2,1.6,2,3.6,2.4,5.8c0.1,0.7,0.5,1.4,1.1,2l0.1,0.1
				c0.9,0.8,1.6,2.2,1.8,3.8c0.1,0.4,0.1,0.8,0.1,1.3l0,1.4c0,0.9-0.2,1.6-0.4,2.1c-0.4,0.9-0.4,1.9,0,2.8l0.1,0.1
				c0.2,0.6,0.4,1.2,0.5,1.9c0,0.4,0.1,0.7,0.1,1.1l0,0.6c0,0.2,0,0.3,0,0.6c0,0,0,0.1,0,0.1c-0.2,1.9,1.2,3.7,3.1,3.9l0.4,0
				c0.6,0.1,1.2,0.4,1.8,1.1c0.6,0.7,1,1.7,1.2,2.9c0,0.3,0.1,0.6,0.1,0.9c0,0.3,0,0.7,0,1l0,1c0,0.3-0.1,0.6-0.1,0.9
				c-0.1,0.6-0.2,1-0.4,1.3c-0.2,0.3-0.3,0.4-0.5,0.6c-0.1,0.1-0.2,0.2-0.3,0.3l-0.1,0.1c-0.2,0.2-0.3,0.3-0.5,0.4
				c-0.1,0-0.1,0.1-0.2,0.1l-0.6,0.3l-2.2,1.1l-4.4,2.3c-2.9,1.5-5.9,3-8.9,4.4c-5.9,2.9-11.9,5.5-18,8.1c-6.1,2.6-12.2,5-18.3,7.2
				l-4.6,1.6c-0.1,0-0.2,0.1-0.2,0.1c0,0-0.2,0.1-0.2,0.1c-0.1,0-0.2,0.1-0.3,0.1c-0.2,0.1-0.5,0.1-0.6,0.1c-0.3,0-0.5,0-0.8-0.1
				c-0.5-0.2-1.1-0.7-1.5-1.6c-0.5-0.9-0.7-2-0.8-3.4c0-0.3-0.1-0.7-0.2-1.1c-0.7-2-2.9-3-4.9-2.2l0,0l-4.8,1.8l-1.2,0.4
				c-0.4,0.1-0.9,0.3-1,0.3c-0.2,0-0.4,0.1-0.6,0.1c-0.1,0-0.2,0-0.4,0c-0.4,0-0.9-0.3-1.4-1.1c-0.5-0.8-0.8-2-0.9-3.4l0-0.1
				c0-0.3-0.1-0.7-0.2-1c-0.7-1.8-2.7-2.8-4.6-2.1l-5.4,2l-1.4,0.5c-0.4,0.1-0.6,0.2-0.9,0.3c-0.3,0.1-0.6,0.1-0.8,0.1
				c-0.2,0-0.4,0-0.7-0.1c-0.9-0.2-1.7-0.8-2.4-2c-0.6-1.1-1-2.6-1.2-4.3c0-0.3-0.1-0.6-0.2-0.9c-0.6-1.7-2.5-2.5-4.2-1.8l0,0
				l-5.2,2l-1.3,0.5l-0.6,0.3c-0.2,0.1-0.5,0.2-0.6,0.2c-0.2,0-0.5,0.1-0.5,0.1c-0.1,0-0.2,0-0.3,0c-0.2,0-0.4-0.2-0.7-0.6
				c-0.3-0.4-0.5-0.9-0.6-1.6c-0.1-0.7-0.2-1.5-0.1-2c0.1-0.6,0.2-1,0.4-1.2l0.1-0.2c0.5-0.7,0.7-1.7,0.3-2.6
				c-0.5-1.4-2.1-2.1-3.5-1.6l-6.4,2.4l-3.2,1.2c-0.5,0.2-1.1,0.4-1.5,0.6c-0.4,0.1-0.8,0.2-1.3,0.3l0,0c-1.2,0.2-2,1.3-1.9,2.5
				c0.1,1.3,1.2,2.2,2.5,2.1c0.7-0.1,1.4-0.2,2.1-0.4c0.7-0.2,1.2-0.3,1.8-0.5l3.3-1.1l1.7-0.5c0,0.6,0,1.1,0.1,1.7
				c0.1,1.2,0.5,2.5,1.2,3.8c0.7,1.2,1.9,2.5,3.5,3.2c0.8,0.3,1.7,0.5,2.5,0.5c0.9,0,1.5-0.2,2.3-0.3c0.4-0.1,0.5-0.2,0.8-0.2
				l0.7-0.2l1.4-0.5l1.7-0.6c0.3,1,0.6,2,1.2,2.9c0.6,1.2,1.5,2.3,2.5,3.2c1.1,0.9,2.4,1.7,3.9,2.1c0.7,0.2,1.5,0.3,2.2,0.3
				c0.8,0,1.5,0,2.1-0.2c0.7-0.1,1.4-0.3,1.9-0.5l1.4-0.5l1.6-0.5c0.2,0.7,0.5,1.4,0.9,2.1c0.6,1.1,1.4,2.2,2.6,3.1
				c1.1,0.9,2.5,1.5,4,1.8c0.7,0.1,1.5,0.1,2.2,0.1c0.7-0.1,1.3-0.2,1.9-0.4c0.7-0.2,1-0.3,1.4-0.4l1.2-0.4l0.8-0.3
				c0.2,0.5,0.4,1,0.6,1.5c1,2.1,2.8,4.2,5.4,5.3c1.3,0.6,2.7,0.8,4.1,0.8c0.7,0,1.3-0.1,1.9-0.2c0.3-0.1,0.6-0.1,0.9-0.2l0.4-0.1
				c0.1,0,0.3-0.1,0.3-0.1l4.8-1.6c6.3-2.3,12.6-4.7,18.8-7.3c6.2-2.6,12.3-5.4,18.3-8.3c3-1.5,6-3,9-4.5c1.5-0.8,3-1.5,4.5-2.3
				l2.2-1.2l0.5-0.3c0.3-0.2,0.6-0.3,0.9-0.5c0.5-0.4,1-0.8,1.4-1.2c1.1-0.8,1.9-1.9,2.5-3c0.6-1.3,1-2.5,1.1-3.6
				c0.1-0.6,0.1-1.1,0.2-1.7l0-1.6C642.7,649.7,642.7,649.2,642.7,648.7z M612.7,604.7c0.1-0.1,0.2-0.1,0.2-0.2l0,0L612.7,604.7z" style="fill:#FFFFFF;"/>
			<g>
				<g>
					<path d="M582.9,622.8c0.1-0.8,0.2-1.7,0.1-2.5c0-0.2,0-0.4,0-0.6c-0.4-8-5.5-12-10-11.4c-0.4,0-0.7,0.1-1,0.2
						c-1.7,0.4-3.8,1.3-6.4,2.9c-0.2,0.1-23.4,14.4-58.3,26.4l0,0.1l2.7,22.8c0.8-0.1,1.5-0.2,2.3-0.5
						c38.9-13.1,64.3-28.8,65.4-29.5c0.4-0.2,0.8-0.5,1.1-0.8C580.7,628.7,582.4,626.5,582.9,622.8z" style="fill:#FF3A00;"/>
					<path d="M517.3,649.3c0.4,8-2.8,10.9-7.3,11.4c-4.6,0.5-8.9-3-9.6-10.4c-0.7-7.9,2.3-11.9,6.9-12.4
						S516.9,641.4,517.3,649.3z" style="fill:#FFB400;"/>
				</g>
				<g>
					<path d="M561.2,595.8c0-0.3,0-0.5,0-0.8c0-0.4,0-0.8,0-1.2c-0.3-6.2-4.3-9.3-7.8-8.9c-0.1,0-0.1,0-0.2,0
						c-1.4,0.2-3.2,0.9-5.6,2.6c-0.2,0.1-18.1,11.2-45.3,20.5l0,0.1l2.1,17.7c0.6-0.1,1.2-0.2,1.8-0.4c34-9.4,49.9-22.5,50.8-22.9
						c0.6-0.3,1.1-0.7,1.6-1.1C560.1,600.5,561,598.7,561.2,595.8z" style="fill:#FF3A00;"/>
					<path d="M510.1,617.1c0.3,6.2-2.1,8.4-5.7,8.9s-6.9-2.3-7.5-8.1c-0.6-6.2,1.8-9.2,5.4-9.6
						C505.9,607.8,509.8,610.9,510.1,617.1z" style="fill:#FFB400;"/>
				</g>
				<g>
					<path d="M576.9,570.6c0-0.2,0-0.3,0-0.5c0-0.3,0-0.6,0-0.9c-0.3-4.7-3.2-7-5.9-6.7c-0.4,0-0.8,0.2-1.1,0.3
						c-0.9,0.3-2,0.8-3.2,1.7c-0.1,0.1-47.8,20.2-60.6,29.1l0,0.1l1.6,13.3c0.4-0.1,0.9-0.1,1.3-0.3c22.8-7.7,64.1-30.4,64.7-30.8
						c0.2-0.1,0.4-0.3,0.6-0.4C575.8,574.7,576.7,573.3,576.9,570.6z" style="fill:#FF3A00;"/>
					<path d="M511.9,600.4c0.3,4.7-1.6,6.3-4.3,6.7s-5.2-1.8-5.6-6.1c-0.4-4.6,1.4-6.9,4-7.2S511.7,595.7,511.9,600.4z" style="fill:#FFB400;"/>
				</g>
				<g>
					<path d="M570.3,606c0-0.1,0-0.3,0-0.4c0-0.2,0-0.5,0-0.7c-0.2-3.9-2.7-5.8-4.9-5.6c-0.3,0-0.6,0.1-0.9,0.2
						c-0.8,0.2-1.6,0.7-2.7,1.4c-0.1,0.1-42.7,17.8-52.3,25l1.2,1.3l1.8,9.2c0.4,0,0.7-0.1,1.1-0.2c19-6.4,53.5-25.4,54-25.7
						c0.2-0.1,0.3-0.2,0.5-0.4C569.4,609.5,570.2,608.2,570.3,606z" style="fill:#FF3A00;"/>
					<path d="M516.2,630.8c0.2,3.9-1.3,5.3-3.6,5.6c-2.2,0.3-4.4-1.5-4.7-5.1c-0.4-3.9,1.1-5.8,3.4-6
						C513.5,625,515.9,626.9,516.2,630.8z" style="fill:#FFB400;"/>
				</g>
				<g>
					<path d="M578.4,554.7c0.1-0.8,0.2-1.7,0.1-2.5c0-0.2,0-0.4,0-0.6c-0.4-8-5.5-12-10-11.4c-0.4,0-0.7,0.1-1,0.2
						c-1.7,0.4-3.8,1.3-6.4,2.9c-0.2,0.1-23.4,14.4-58.3,26.4l0,0.1l2.7,22.8c0.8-0.1,1.5-0.2,2.3-0.5
						c38.9-13.1,64.3-28.8,65.4-29.5c0.4-0.2,0.8-0.5,1.1-0.8C576.2,560.7,577.9,558.4,578.4,554.7z" style="fill:#FF3A00;"/>
					<path d="M512.8,581.3c0.4,8-2.8,10.9-7.3,11.4s-8.9-3-9.6-10.4c-0.7-7.9,2.3-11.9,6.9-12.4
						S512.4,573.3,512.8,581.3z" style="fill:#FFB400;"/>
				</g>
				<g>
					<path d="M601.4,589c0.1-0.8,0.2-1.7,0.1-2.5c0-0.2,0-0.4,0-0.6c-0.4-8-5.5-12-10-11.4c-0.4,0-0.7,0.1-1,0.2
						c-1.7,0.4-3.8,1.3-6.4,2.9c-0.2,0.1-27.8,17.3-62.8,29.4l0,0.1l2.7,22.8c0.8-0.1,1.5-0.2,2.3-0.5
						c38.9-13.1,68.7-31.8,69.8-32.4c0.4-0.2,0.8-0.5,1.1-0.8C599.3,595,601,592.7,601.4,589z" style="fill:#FF3A00;"/>
					<path d="M531.4,618.5c0.4,8-2.8,10.9-7.3,11.4c-4.6,0.5-8.9-3-9.6-10.4c-0.7-7.9,2.3-11.9,6.9-12.4
						C525.9,606.6,531,610.5,531.4,618.5z" style="fill:#FFB400;"/>
				</g>
				<g>
					<path d="M591.8,566.9c0-0.3,0-0.5,0-0.8c0-0.4,0-0.8,0-1.2c-0.3-6.2-4.3-9.3-7.8-8.9c-0.1,0-0.1,0-0.2,0
						c-1.4,0.2-3.2,0.9-5.6,2.6c-0.2,0.1-31.2,17.7-58.4,27.1l0,0.1l2.1,17.7c0.6-0.1,1.2-0.2,1.8-0.4c30.3-10.2,63-29,63.9-29.4
						c0.6-0.3,1.1-0.7,1.6-1.1C590.7,571.6,591.6,569.8,591.8,566.9z" style="fill:#FF3A00;"/>
					<path d="M527.7,594.8c0.3,6.2-2.1,8.4-5.7,8.9s-6.9-2.3-7.5-8.1c-0.6-6.2,1.8-9.2,5.4-9.6
						C523.4,585.5,527.4,588.6,527.7,594.8z" style="fill:#FFB400;"/>
				</g>
				<g>
					<path d="M608.4,607.4c0-0.3,0-0.5,0-0.8c0-0.4,0-0.8,0-1.2c-0.3-6.2-4.3-9.3-7.8-8.9c-0.1,0-0.1,0-0.2,0
						c-1.4,0.2-3.2,0.9-5.6,2.6c-0.2,0.1-43,24.9-70.2,34.2l0,0.1l2.1,17.7c0.6-0.1,1.2-0.2,1.8-0.4c30.3-10.2,74.8-36.2,75.6-36.6
						c0.6-0.3,1.1-0.7,1.6-1.1C607.2,612.1,608.2,610.3,608.4,607.4z" style="fill:#FF3A00;"/>
					<path d="M532.5,642.4c0.3,6.2-2.1,8.4-5.7,8.9c-3.5,0.4-6.9-2.3-7.5-8.1c-0.6-6.2,1.8-9.2,5.4-9.6
						S532.1,636.2,532.5,642.4z" style="fill:#FFB400;"/>
				</g>
				<g>
					<path d="M599.2,575.4c0-0.2,0-0.3,0-0.5c0-0.3,0-0.6,0-0.9c-0.3-4.7-3.2-7-5.9-6.7c-0.4,0-0.8,0.2-1.1,0.3
						c-0.9,0.3-2,0.8-3.2,1.7c-0.1,0.1-33.2,18.2-53.7,25.2l0,0.1l1.6,13.3c0.4-0.1,0.9-0.1,1.3-0.3c22.8-7.7,57.2-26.6,57.8-27
						c0.2-0.1,0.4-0.3,0.6-0.4C598.1,579.6,599.1,578.1,599.2,575.4z" style="fill:#FF3A00;"/>
					<path d="M541.2,601.4c0.3,4.7-1.6,6.3-4.3,6.7c-2.7,0.3-5.2-1.8-5.6-6.1c-0.4-4.6,1.4-6.9,4-7.2
						C538,594.4,541,596.7,541.2,601.4z" style="fill:#FFB400;"/>
				</g>
				<g>
					<path d="M606.1,599.5c0.1-0.7,0.2-1.5,0.1-2.2c0-0.2,0-0.4,0-0.6c-0.4-6.9-4.8-10.4-8.8-10c-0.3,0-0.6,0.1-0.9,0.2
						c-1.5,0.3-3.3,1.1-5.6,2.5c-0.2,0.1-20.4,12.6-50.9,23.1l0,0.1l2.4,19.9c0.7-0.1,1.3-0.2,2-0.4c34-11.4,56.1-25.1,57-25.7
						c0.3-0.2,0.7-0.5,1-0.7C604.2,604.6,605.7,602.7,606.1,599.5z" style="fill:#FF3A00;"/>
					<path d="M548.9,622.6c0.4,6.9-2.4,9.5-6.4,9.9c-4,0.5-7.8-2.6-8.4-9.1c-0.6-6.9,2-10.3,6-10.8
						C544.1,612.2,548.5,615.6,548.9,622.6z" style="fill:#FFB400;"/>
				</g>
				<g>
					<path d="M580.2,638.7c0-0.1,0-0.3,0-0.4c0-0.2,0-0.5,0-0.7c-0.2-4-2.7-6-5-5.7c-0.3,0-0.7,0.1-1,0.2
						c-0.8,0.2-1.7,0.7-2.8,1.4c-0.1,0.1-28.5,15.6-46,21.7l0,0.1l1.4,11.4c0.4,0,0.8-0.1,1.2-0.2c19.5-6.6,49-22.8,49.6-23.2
						c0.2-0.1,0.3-0.3,0.5-0.4C579.2,642.2,580.1,641,580.2,638.7z" style="fill:#FF3A00;"/>
					<path d="M530.4,660.9c0.2,4-1.4,5.4-3.7,5.7c-2.3,0.3-4.5-1.5-4.8-5.2c-0.4-4,1.2-5.9,3.5-6.2
						C527.7,654.9,530.2,656.9,530.4,660.9z" style="fill:#FFB400;"/>
				</g>
				<g>
					<path d="M620.3,632.8c0-0.3,0-0.6,0-0.8c0-0.4,0-0.9,0-1.3c-0.4-6.8-4.7-10.2-8.5-9.7c-0.1,0-0.1,0-0.2,0
						c-1.6,0.2-3.5,1-6.1,2.9c-0.2,0.1-34.2,19.4-63.9,29.6l0,0.1l2.3,19.4c0.7-0.1,1.3-0.2,2-0.4c33.1-11.1,69-31.7,69.9-32.2
						c0.6-0.3,1.2-0.8,1.7-1.2C619.1,637.9,620.1,636,620.3,632.8z" style="fill:#FF3A00;"/>
					<path d="M550.1,663.2c0.4,6.8-2.3,9.2-6.2,9.7s-7.6-2.6-8.2-8.9c-0.6-6.7,2-10.1,5.9-10.5
						C545.5,653.1,549.8,656.5,550.1,663.2z" style="fill:#FFB400;"/>
				</g>
				<g>
					<path d="M618.8,609.4c0-0.2,0-0.3,0-0.5c0-0.3,0-0.6,0-0.9c-0.3-4.7-3.2-7-5.9-6.7c-0.4,0-0.8,0.2-1.1,0.3
						c-0.9,0.3-2,0.8-3.2,1.7c-0.1,0.1-46.3,26.9-66.7,33.9l0,0.1l1.6,13.3c0.4-0.1,0.9-0.1,1.3-0.3c22.8-7.7,70.2-35.3,70.8-35.7
						c0.2-0.1,0.4-0.3,0.6-0.4C617.7,613.6,618.7,612.1,618.8,609.4z" style="fill:#FF3A00;"/>
					<path d="M547.8,644c0.3,4.7-1.6,6.3-4.3,6.7c-2.7,0.3-5.2-1.8-5.6-6.1c-0.4-4.6,1.4-6.9,4-7.2
						C544.6,637.1,547.6,639.4,547.8,644z" style="fill:#FFB400;"/>
				</g>
				<g>
					<path d="M632.3,639.9c0-0.2,0-0.4,0-0.6c0-0.3,0-0.7,0-1c-0.3-5.4-3.7-8.2-6.9-7.8c-0.5,0.1-0.9,0.2-1.3,0.3
						c-1.1,0.3-2.3,0.9-3.8,1.9c-0.2,0.1-38.8,21.3-62.8,29.5l0,0.1l1.9,15.6c0.5-0.1,1-0.2,1.6-0.3c26.6-9,66.9-31.1,67.6-31.6
						c0.2-0.2,0.4-0.3,0.7-0.5C631,644.8,632.1,643,632.3,639.9z" style="fill:#FF3A00;"/>
					<path d="M564.5,670.2c0.3,5.5-1.9,7.4-5,7.8c-3.1,0.4-6.1-2.1-6.6-7.1c-0.5-5.4,1.6-8.1,4.7-8.5
						C560.7,662.1,564.2,664.8,564.5,670.2z" style="fill:#FFB400;"/>
				</g>
				<g>
					<path d="M629,628.7c0.2-1,0.2-2.1,0.2-3.2c0-0.3,0-0.5,0-0.8c-0.5-10-6.9-15-12.6-14.3c-0.4,0.1-0.9,0.1-1.3,0.2
						c-2.2,0.4-4.8,1.6-8,3.6c-0.3,0.2-2,3.2-45.9,18.3l0.1,0.2l3.4,28.6c1-0.1,1.9-0.3,2.9-0.6c48.8-16.4,53.4-21.3,54.7-22.1
						c0.5-0.3,1-0.7,1.4-1C626.3,636.1,628.4,633.3,629,628.7z" style="fill:#FF3A00;"/>
					<path d="M574,647.1c0.5,10-3.5,13.6-9.2,14.3c-5.7,0.7-11.2-3.8-12.1-13.1c-0.9-9.9,2.9-14.9,8.6-15.5
						C567.2,632.1,573.5,637.1,574,647.1z" style="fill:#FFB400;"/>
				</g>
				<g>
					<path d="M613.7,596.2c0-0.3,0-0.5,0-0.8c0-0.4,0-0.8,0-1.2c-0.3-6.2-4.3-9.3-7.8-8.9c-0.1,0-0.1,0-0.2,0
						c-1.4,0.2-3.2,0.9-5.6,2.6c-0.2,0.1-14.2,7.7-41.4,17l0,0.1l2.1,17.7c0.6-0.1,1.2-0.2,1.8-0.4c30.3-10.2,46-19,46.8-19.4
						c0.6-0.3,1.1-0.7,1.6-1.1C612.6,600.9,613.6,599.1,613.7,596.2z" style="fill:#FF3A00;"/>
					<path d="M566.7,614c0.3,6.2-2.1,8.4-5.7,8.9c-3.5,0.4-6.9-2.3-7.5-8.1c-0.6-6.2,1.8-9.2,5.4-9.6
						C562.4,604.7,566.3,607.8,566.7,614z" style="fill:#FFB400;"/>
				</g>
				<g>
					<path d="M639.1,651.2c0-0.3,0-0.5,0-0.8c0-0.4,0-0.8,0-1.2c-0.3-6.2-4.3-9.3-7.8-8.9c-0.1,0-0.1,0-0.2,0
						c-1.4,0.2-3.2,0.9-5.6,2.6c-0.2,0.1-25,13.7-52.2,23l0,0.1l2.1,17.7c0.6-0.1,1.2-0.2,1.8-0.4c30.3-10.2,56.8-24.9,57.6-25.4
						c0.6-0.3,1.1-0.7,1.6-1.1C637.9,655.9,638.9,654.1,639.1,651.2z" style="fill:#FF3A00;"/>
					<path d="M581.2,675c0.3,6.2-2.1,8.4-5.7,8.9c-3.5,0.4-6.9-2.3-7.5-8.1c-0.6-6.2,1.8-9.2,5.4-9.6
						C576.9,665.7,580.8,668.8,581.2,675z" style="fill:#FFB400;"/>
				</g>
				<g>
					<path d="M632,631c0-0.3,0-0.5,0-0.8c0-0.4,0-0.8,0-1.2c-0.3-6.2-4.3-9.3-7.8-8.9c-0.1,0-0.1,0-0.2,0
						c-1.4,0.2-3.2,0.9-5.6,2.6c-0.2,0.1-9.8,6.2-36.9,15.6l0,0.1l2.1,17.7c0.6-0.1,1.2-0.2,1.8-0.4c30.3-10.2,41.5-17.5,42.4-17.9
						c0.6-0.3,1.1-0.7,1.6-1.1C630.8,635.7,631.8,633.9,632,631z" style="fill:#FF3A00;"/>
					<path d="M589.3,647.4c0.3,6.2-2.1,8.4-5.7,8.9c-3.5,0.4-6.9-2.3-7.5-8.1c-0.6-6.2,1.8-9.2,5.4-9.6
						S589,641.2,589.3,647.4z" style="fill:#FFB400;"/>
				</g>
				<path d="M534.2,579.7c6.1-3,12.3-5.8,18.4-8.7c3.1-1.4,6.1-3,9.1-4.5c3-1.5,6-3.1,9-4.7l0,0
					c0.6-0.3,1.3-0.1,1.6,0.5c0.3,0.5,0.1,1.1-0.3,1.5c-2.7,2.2-5.6,4.1-8.5,5.9c-3,1.8-6,3.4-9.1,4.9c-3.1,1.5-6.3,2.8-9.5,4.1
					c-3.2,1.2-6.5,2.3-9.8,3.2c-0.6,0.2-1.3-0.2-1.4-0.8C533.5,580.5,533.7,579.9,534.2,579.7L534.2,579.7z" style="fill:#04294F;"/>
				<path d="M592.9,624.4c1.8-1,3.7-1.9,5.6-2.8l5.6-2.7l11.2-5.3c0.6-0.3,1.3,0,1.6,0.6c0.2,0.5,0.1,1.1-0.3,1.4
					c-1.6,1.5-3.4,2.7-5.2,3.9c-1.8,1.1-3.7,2.1-5.6,3c-1.9,0.9-3.9,1.7-5.9,2.4c-2,0.7-4.1,1.3-6.2,1.7c-0.6,0.1-1.2-0.3-1.4-0.9
					C592.3,625.1,592.5,624.6,592.9,624.4L592.9,624.4z" style="fill:#04294F;"/>
				<path d="M584.3,584.4c0.2-0.6,0.6-1,0.9-1.3c0.3-0.4,0.7-0.7,1.1-1c0.4-0.3,0.9-0.5,1.3-0.6c0.5-0.2,1-0.3,1.6-0.3
					l0.1,0c0.8,0,1.4,0.7,1.4,1.5c0,0.2,0,0.4-0.1,0.5c-0.2,0.6-0.6,1-0.9,1.3c-0.4,0.4-0.8,0.7-1.2,1c-0.4,0.3-0.9,0.5-1.4,0.7
					c-0.5,0.2-1,0.3-1.6,0.3c-0.8,0-1.4-0.7-1.3-1.4C584.2,584.8,584.2,584.7,584.3,584.4L584.3,584.4z" style="fill:#04294F;"/>
				<path d="M573.7,625.8c0.7-0.8,1.4-1.3,2.2-1.8c0.8-0.5,1.5-0.9,2.3-1.3c0.8-0.4,1.6-0.7,2.4-1
					c0.8-0.3,1.7-0.5,2.5-0.6l0.2,0c0.7-0.1,1.3,0.4,1.4,1.1c0,0.4-0.1,0.7-0.3,0.9c-0.7,0.9-1.4,1.4-2.2,1.9
					c-0.8,0.5-1.6,0.9-2.4,1.3c-0.8,0.4-1.6,0.7-2.5,0.9c-0.8,0.3-1.7,0.5-2.5,0.6l-0.2,0c-0.7,0.1-1.3-0.4-1.3-1.1
					C573.4,626.4,573.5,626,573.7,625.8z" style="fill:#04294F;"/>
				<path d="M619.7,650.7c0.7-0.8,1.4-1.3,2.2-1.8c0.8-0.5,1.5-0.9,2.3-1.3c0.8-0.4,1.6-0.7,2.4-1
					c0.8-0.3,1.7-0.5,2.5-0.6l0.2,0c0.7-0.1,1.3,0.4,1.4,1.1c0,0.4-0.1,0.7-0.3,0.9c-0.7,0.9-1.4,1.4-2.2,1.9
					c-0.8,0.5-1.6,0.9-2.4,1.3c-0.8,0.4-1.6,0.7-2.5,0.9c-0.8,0.3-1.7,0.5-2.5,0.6l-0.2,0c-0.7,0.1-1.3-0.4-1.3-1.1
					C619.4,651.3,619.5,650.9,619.7,650.7z" style="fill:#04294F;"/>
				<path d="M573.2,581.2c0.7-0.8,1.4-1.3,2.2-1.8c0.8-0.5,1.5-0.9,2.3-1.3c0.8-0.4,1.6-0.7,2.4-1
					c0.8-0.3,1.7-0.5,2.5-0.6l0.2,0c0.7-0.1,1.3,0.4,1.4,1.1c0,0.4-0.1,0.7-0.3,0.9c-0.7,0.9-1.4,1.4-2.2,1.9
					c-0.8,0.5-1.6,0.9-2.4,1.3c-0.8,0.4-1.6,0.7-2.5,0.9c-0.8,0.3-1.7,0.5-2.5,0.6l-0.2,0c-0.7,0.1-1.3-0.4-1.3-1.1
					C572.8,581.7,573,581.4,573.2,581.2z" style="fill:#04294F;"/>
				<path d="M612.6,634c0.2-0.4,0.5-0.7,0.8-0.9c0.3-0.2,0.6-0.4,0.9-0.5c0.3-0.1,0.6-0.2,0.9-0.2c0.3,0,0.7,0,1.1,0.2
					l0,0c0.9,0.4,1.2,1.4,0.9,2.2l0,0c-0.2,0.4-0.5,0.7-0.7,1c-0.3,0.2-0.6,0.4-1,0.5c-0.3,0.1-0.7,0.2-1,0.1
					c-0.4,0-0.7-0.1-1.1-0.3l0,0C612.5,635.8,612.2,634.8,612.6,634z" style="fill:#04294F;"/>
				<path d="M582.5,606.6c0.2-0.4,0.5-0.7,0.8-0.9c0.3-0.2,0.6-0.4,0.9-0.5c0.3-0.1,0.6-0.2,0.9-0.2
					c0.3,0,0.7,0,1.1,0.2l0,0c0.9,0.4,1.2,1.4,0.9,2.2l0,0c-0.2,0.4-0.5,0.7-0.7,1c-0.3,0.2-0.6,0.4-1,0.5c-0.3,0.1-0.7,0.2-1,0.1
					c-0.4,0-0.7-0.1-1.1-0.3l0,0C582.4,608.4,582.1,607.4,582.5,606.6z" style="fill:#04294F;"/>
				<path d="M517.1,570.9c0.4-0.5,0.8-0.8,1.2-1.1c0.4-0.3,0.9-0.5,1.3-0.6c0.5-0.2,1-0.3,1.5-0.3c0.5,0,1,0,1.6,0.1
					l0.1,0c0.8,0.2,1.2,1,1,1.8c-0.1,0.2-0.1,0.3-0.3,0.5c-0.4,0.5-0.8,0.8-1.3,1.1c-0.4,0.3-0.9,0.5-1.4,0.6
					c-0.5,0.1-1,0.3-1.5,0.3c-0.5,0-1.1,0-1.6-0.2c-0.7-0.2-1.1-1-0.9-1.7C516.9,571.2,517,571.1,517.1,570.9L517.1,570.9z" style="fill:#04294F;"/>
				<path d="M559.5,595.7c1.5-1,3.1-1.8,4.6-2.6c1.6-0.8,3.1-1.6,4.7-2.3c1.6-0.7,3.2-1.4,4.8-2.1
					c1.6-0.7,3.3-1.3,5-1.8l0,0c0.6-0.2,1.3,0.2,1.5,0.8c0.1,0.5,0,1-0.4,1.3c-1.4,1.1-2.9,2.1-4.5,3c-1.5,0.9-3.2,1.7-4.8,2.4
					c-1.6,0.7-3.3,1.4-5,2c-1.7,0.6-3.4,1.1-5.2,1.4c-0.6,0.1-1.3-0.3-1.4-0.9C558.9,596.4,559.1,595.9,559.5,595.7z" style="fill:#04294F;"/>
				<path d="M595.8,651.5c1.5-1,3-1.9,4.5-2.8c1.5-0.9,3.1-1.7,4.6-2.5c1.6-0.8,3.1-1.5,4.8-2.3c1.6-0.7,3.2-1.4,4.9-2
					l0,0c0.6-0.2,1.3,0.1,1.6,0.8c0.2,0.5,0,1-0.4,1.3c-1.4,1.2-2.9,2.2-4.4,3.1c-1.5,0.9-3.1,1.8-4.7,2.6c-1.6,0.8-3.2,1.5-4.9,2.2
					c-1.7,0.6-3.4,1.2-5.1,1.6c-0.6,0.1-1.3-0.2-1.4-0.9C595.3,652.2,595.5,651.8,595.8,651.5z" style="fill:#04294F;"/>
			</g>
		</g>
		<g>
			<g>
				<g>
					<path d="M367.3,78.4c-1.2,0-2.6-0.2-4.1-0.5c-4.1-0.9-8.7-3-12.5-5.7c-10.4-7.4-7.4-14-5.6-16.5
						c1.8-2.5,7-7.6,17.4-0.2c3.8,2.7,7.3,6.3,9.5,9.9c2.7,4.3,3.2,8,1.5,10.4C372.3,77.5,370.1,78.4,367.3,78.4z M368.5,72.6
						L368.5,72.6L368.5,72.6z M352.7,57.7c-1.7,0-2.4,1-2.7,1.5c-0.7,0.9-2.4,3.5,4.2,8.1c6.3,4.5,12.6,5.5,14.4,5
						c-0.1-1.8-3.1-7.4-9.5-11.9C356,58.3,354,57.7,352.7,57.7z" style="fill:#FFB400;"/>
				</g>
				<g>
					<path d="M378.7,74.6c-1.3,0-2.5-0.3-3.6-0.8c-2.7-1.4-4.2-4-4.4-7.3c-0.2-3,0.7-6.3,2.6-10.1
						c1.9-3.7,4.3-6.3,7-7.7c2.8-1.4,5.8-1.5,8.4-0.1c2.7,1.4,4.5,3.3,5.5,5.6c1.2,3,0.8,6.4-1.2,10.3l0,0c-1.9,3.6-4.8,6.6-8.2,8.5
						C382.7,74,380.6,74.6,378.7,74.6z M384.7,53.6c-0.5,0-1.1,0.1-1.6,0.4c-1.1,0.6-2.8,1.9-4.4,5.2c-1.4,2.7-2.1,5.1-2,6.9
						c0.1,1.8,0.9,2.2,1.2,2.3c0.5,0.3,2,0.2,4.1-0.9c2.3-1.2,4.4-3.4,5.7-5.9l0,0c1.1-2.2,1.5-4,0.9-5.3c-0.4-0.9-1.3-1.8-2.7-2.5
						C385.5,53.7,385.1,53.6,384.7,53.6z" style="fill:#FFB400;"/>
				</g>
				<path d="M342.8,82.3c5.1-3.8,17.6-13.1,29.4-21c1.3-0.9,3-1,4.5-0.4c6,2.7,21.9,9.9,27.8,12.6
					c1.4,0.6,2.4,1.9,2.7,3.4l13.2,76.1c0.3,1.9-0.5,3.8-2.2,4.8c-6.1,3.7-20.6,12.5-25.9,15.7c-1.2,0.8-2.8,0.9-4.1,0.3l-28.8-11.5
					c-1.4-0.6-2.5-1.8-2.8-3.3c-2.5-11.4-12.9-59.7-15.5-72.1C340.7,85.2,341.4,83.4,342.8,82.3z" style="fill:#FF3A00;"/>
				<g>
					<path d="M385.9,65.2c3.2,13.7,10.2,45.9,19.4,100.6c1.9-1.1,3.7-2.3,5.5-3.3c-8.2-48.2-14.5-78.6-18-94.1
						C390.5,67.2,388.1,66.2,385.9,65.2z" style="fill:#FFB400;"/>
					<path d="M354.3,73.9c4.5,21.7,13.6,65.2,19.4,94.2l6.7,2.7c-6-30.1-16.2-79.2-20.7-100.7
						C357.8,71.4,356,72.7,354.3,73.9z" style="fill:#FFB400;"/>
				</g>
			</g>
			<path d="M479.1,163.7c0,0-41,16-85.1,27c0,0-70.6-9.7-115.2-31c0,0,34-23.6,97.9-31.3
				C376.6,128.4,441.5,135.9,479.1,163.7z" style="fill:#FFB400;"/>
			<path d="M449,159.1c0,0-28.2,11-58.6,18.6c0,0-48.6-6.7-79.4-21.3c0,0,23.4-16.3,67.4-21.6
				C378.4,134.8,423.2,139.9,449,159.1z" style="fill:#04294F;"/>
			<g>
				<path d="M313.1,196.6c-3.7-8.2-3.1-48.9-3-63.9c0-1.3,0.8-2.5,2-3.1c5.4-2.5,21-9.4,33.3-10.9
					c0,0,19.5,1.1,35.6,6.6c1.3,0.5,2.3,1.7,2.4,3.1c0.5,11.7,2.8,64.3-0.8,68.2c-6.4,6.9-23.1,11.3-30.4,13c-2.3,0.5-4.6,0.5-6.9,0
					C336.9,207.7,315.6,202.2,313.1,196.6z" style="fill:#00AEE0;"/>
				<g>
					<path d="M344.4,127.7c-6,0-13.6-6.9-17.6-13.3c-2.8-4.4-3.9-8.1-3.5-11.5c0.4-3,2.1-5.5,4.8-7.2
						c2.8-1.8,10.3-4.8,17.6,6.7l0,0c2.6,4,4.5,8.8,5.2,13.1c1.2,7-1,10-3,11.2C346.8,127.4,345.7,127.7,344.4,127.7z M333.7,102
						c-0.6,0-1,0.3-1.3,0.4c-0.9,0.6-1.1,1.1-1.2,1.6c-0.1,0.8,0,2.7,2.3,6.2c3.3,5.2,7.5,8.3,9.7,9.3c0.1-2.4-1-7.6-4.3-12.7l0,0
						C336.5,102.8,334.8,102,333.7,102z" style="fill:#04294F;"/>
				</g>
				<g>
					<path d="M355.1,128.6c-1.6,0-2.9-0.4-4.1-1.2c-5.5-3.9-3.1-15,2.5-22.9c2.8-3.9,5.9-6.2,9.1-6.9
						c2.8-0.6,5.6,0.1,8.2,1.9c2.1,1.5,8.5,7.3,0.9,18l0,0c-2.6,3.6-6.1,6.9-9.7,8.9C359.6,127.9,357.2,128.6,355.1,128.6z
						 M364.6,105.4c-0.2,0-0.3,0-0.4,0c-1.2,0.2-2.7,1.6-4.2,3.7c-3.3,4.6-4.2,9.3-4.1,11.4c2-0.6,6.1-3.1,9.4-7.6l0,0
						c3.5-5,1.8-6.2,0.9-6.8C365.5,105.5,365,105.4,364.6,105.4z" style="fill:#04294F;"/>
				</g>
				<path d="M373.9,202.5c1-41.6-1.4-68.5-1.4-68.8l-0.2-2.2l-2-1c-2.2-1.1-5.1-2.2-8.4-3.3c3.9-1.3,8-2.7,12.1-3.8
					c-5.7-1.5-11.4-2.5-16.2-3.2c-3.1,1.1-6.1,2.2-8.9,3.3c-4-1-8.1-2-12-2.9c-5.2,1.4-10.5,3.2-14.9,5c4,0.8,8.9,1.8,14.1,3
					c-4.4,1.9-7.1,3.1-7.5,3.3l-2.2,1l-0.1,2.4c-1.2,21.9,0.3,53.8,1.1,69.4c2.7,0.9,5.5,1.8,8.2,2.5c-0.8-13.5-2.3-46.1-1.4-69
					c2.9-1.3,8.3-3.6,15.2-6.3c6.1,1.6,11.6,3.3,15.4,4.9c0.6,7.5,2.2,33,1.1,69.1C368.5,204.8,371.3,203.7,373.9,202.5z" style="fill:#04294F;"/>
			</g>
			<g>
				<path d="M376.3,173.8c0,0,11.6-63,16.3-84.8c0,0,25.9-7,41-4.7c0,0,14.9,7.6,29.1,18c0,0-12.8,69.4-18.7,84.5
					c0,0-26.8,5.2-36,3.5C401.8,189.2,376.3,173.8,376.3,173.8z" style="fill:#04294F;"/>
				<g>
					<path d="M398.4,111.3c0.4-2.1-0.4-4.1-1.8-4.4c-1.4-0.3-2.9,1.3-3.3,3.4c-0.4,2.1,0.4,4.1,1.8,4.4
						C396.6,115,398,113.4,398.4,111.3z" style="fill:#00AEE0;"/>
					<path d="M384.7,131.6c1.4,0.3,2.9-1.3,3.3-3.4c0.4-2.1-0.4-4.1-1.8-4.4c-0.2,0-0.3,0-0.5,0c-0.5,2.5-1,5.1-1.5,7.6
						C384.3,131.5,384.5,131.6,384.7,131.6z" style="fill:#00AEE0;"/>
					<path d="M409.6,97.7c0.4-2.1-0.4-4.1-1.8-4.4s-2.9,1.3-3.3,3.4c-0.4,2.1,0.4,4.1,1.8,4.4
						C407.7,101.4,409.2,99.9,409.6,97.7z" style="fill:#00AEE0;"/>
					<path d="M415.5,103c-1.4-0.3-2.9,1.3-3.3,3.4c-0.4,2.1,0.4,4.1,1.8,4.4c1.4,0.3,2.9-1.3,3.3-3.4
						C417.7,105.2,416.9,103.3,415.5,103z" style="fill:#00AEE0;"/>
					<path d="M404.6,124.9c0.4-2.1-0.4-4.1-1.8-4.4c-1.4-0.3-2.9,1.3-3.3,3.4s0.4,4.1,1.8,4.4
						C402.7,128.6,404.2,127,404.6,124.9z" style="fill:#00AEE0;"/>
					<path d="M391.3,143.2c0.4-2.1-0.4-4.1-1.8-4.4c-1.4-0.3-2.9,1.3-3.3,3.4s0.4,4.1,1.8,4.4
						C389.4,146.8,390.9,145.3,391.3,143.2z" style="fill:#00AEE0;"/>
					<path d="M422.3,85.4c-0.4,2.1,0.4,4.1,1.8,4.4c1.4,0.3,2.9-1.3,3.3-3.4c0.2-0.9,0.1-1.8-0.1-2.5
						c-1.5,0-3,0-4.5,0.1C422.5,84.4,422.4,84.9,422.3,85.4z" style="fill:#00AEE0;"/>
					<path d="M396.7,92.4c1.4,0.3,2.9-1.3,3.3-3.4c0.1-0.6,0.1-1.1,0.1-1.7c-2.1,0.5-3.9,0.9-5.2,1.2
						C394.7,90.4,395.4,92.1,396.7,92.4z" style="fill:#00AEE0;"/>
					<path d="M432.5,97.5c-1.4-0.3-2.9,1.3-3.3,3.4c-0.4,2.1,0.4,4.1,1.8,4.4s2.9-1.3,3.3-3.4S433.9,97.8,432.5,97.5z" style="fill:#00AEE0;"/>
					<path d="M447.2,133.1c-0.4,2.1,0.4,4.1,1.8,4.4s2.9-1.3,3.3-3.4c0.4-2.1-0.4-4.1-1.8-4.4S447.6,131,447.2,133.1z" style="fill:#00AEE0;"/>
					<path d="M458.9,118.1c-1.4-0.3-2.9,1.3-3.3,3.4c-0.4,2.1,0.4,4.1,1.8,4.4c0.2,0,0.5,0,0.7,0c0.5-2.6,1-5.1,1.4-7.4
						C459.4,118.3,459.2,118.2,458.9,118.1z" style="fill:#00AEE0;"/>
					<path d="M437.5,128.5c1.4,0.3,2.9-1.3,3.3-3.4c0.4-2.1-0.4-4.1-1.8-4.4c-1.4-0.3-2.9,1.3-3.3,3.4
						S436.1,128.2,437.5,128.5z" style="fill:#00AEE0;"/>
					<path d="M422.9,141.4c-1.4-0.3-2.9,1.3-3.3,3.4c-0.4,2.1,0.4,4.1,1.8,4.4c1.4,0.3,2.9-1.3,3.3-3.4
						S424.3,141.6,422.9,141.4z" style="fill:#00AEE0;"/>
					<path d="M432.7,139.1c-0.4,2.1,0.4,4.1,1.8,4.4c1.4,0.3,2.9-1.3,3.3-3.4c0.4-2.1-0.4-4.1-1.8-4.4
						C434.5,135.4,433.1,136.9,432.7,139.1z" style="fill:#00AEE0;"/>
					<path d="M435.4,180.6c1.4,0.3,2.9-1.3,3.3-3.4c0.4-2.1-0.4-4.1-1.8-4.4c-1.4-0.3-2.9,1.3-3.3,3.4
						C433.2,178.4,434,180.4,435.4,180.6z" style="fill:#00AEE0;"/>
					<path d="M415.4,173.3c0.4-2.1-0.4-4.1-1.8-4.4c-1.4-0.3-2.9,1.3-3.3,3.4s0.4,4.1,1.8,4.4
						C413.5,177,415,175.5,415.4,173.3z" style="fill:#00AEE0;"/>
					<path d="M394.9,176.7c1.4,0.3,2.9-1.3,3.3-3.4c0.4-2.1-0.4-4.1-1.8-4.4c-1.4-0.3-2.9,1.3-3.3,3.4
						S393.5,176.5,394.9,176.7z" style="fill:#00AEE0;"/>
					<path d="M379.5,175.8c0.5-0.6,0.9-1.5,1.1-2.4c0.4-2.1-0.4-4.1-1.8-4.4c-0.6-0.1-1.2,0.1-1.8,0.6
						c-0.5,2.7-0.8,4.2-0.8,4.2S377.5,174.6,379.5,175.8z" style="fill:#00AEE0;"/>
					<path d="M447.5,115.2c0.4-2.1-0.4-4.1-1.8-4.4s-2.9,1.3-3.3,3.4c-0.4,2.1,0.4,4.1,1.8,4.4S447.1,117.3,447.5,115.2
						z" style="fill:#00AEE0;"/>
					<path d="M427.4,117.3c0.4-2.1-0.4-4.1-1.8-4.4c-1.4-0.3-2.9,1.3-3.3,3.4c-0.4,2.1,0.4,4.1,1.8,4.4
						S427,119.5,427.4,117.3z" style="fill:#00AEE0;"/>
					
						<ellipse transform="matrix(0.1824 -0.9832 0.9832 0.1824 210.3285 514.6721)" cx="414.6" cy="130.9" rx="3.9" ry="2.6" style="fill:#00AEE0;"/>
					<path d="M403.1,146.6c1.4,0.3,2.9-1.3,3.3-3.4c0.4-2.1-0.4-4.1-1.8-4.4c-1.4-0.3-2.9,1.3-3.3,3.4
						C400.9,144.4,401.7,146.3,403.1,146.6z" style="fill:#00AEE0;"/>
					<path d="M441.1,92c-0.4,2.1,0.4,4.1,1.8,4.4c1.4,0.3,2.9-1.3,3.3-3.4c0.1-0.5,0.1-1,0.1-1.4
						c-1.3-0.8-2.6-1.6-3.8-2.2C441.9,89.9,441.4,90.9,441.1,92z" style="fill:#00AEE0;"/>
					<path d="M453.7,105.6c-0.4,2.1,0.4,4.1,1.8,4.4s2.9-1.3,3.3-3.4c0.4-2.1-0.4-4.1-1.8-4.4S454.1,103.5,453.7,105.6z
						" style="fill:#00AEE0;"/>
					<path d="M442.7,154.7c0.4-2.1-0.4-4.1-1.8-4.4c-1.4-0.3-2.9,1.3-3.3,3.4c-0.4,2.1,0.4,4.1,1.8,4.4
						S442.3,156.8,442.7,154.7z" style="fill:#00AEE0;"/>
					<path d="M427.4,188.9c0.4-2.1-0.4-4.1-1.8-4.4c-1.4-0.3-2.9,1.3-3.3,3.4c-0.1,0.8-0.1,1.5,0,2.1
						c1.6-0.2,3.3-0.4,4.9-0.6C427.3,189.3,427.3,189.1,427.4,188.9z" style="fill:#00AEE0;"/>
					<path d="M448.7,169c-1.4-0.3-2.9,1.3-3.3,3.4c-0.4,2.1,0.4,4,1.7,4.3c0.6-2.3,1.2-4.9,1.9-7.6
						C448.9,169,448.8,169,448.7,169z" style="fill:#00AEE0;"/>
					<path d="M452.6,143.8c-1.4-0.3-2.9,1.3-3.3,3.4s0.4,4.1,1.8,4.4c0.7,0.1,1.4-0.2,2-0.7c0.4-1.8,0.8-3.6,1.1-5.4
						C453.9,144.6,453.3,143.9,452.6,143.8z" style="fill:#00AEE0;"/>
					<path d="M425.5,161c-0.4,2.1,0.4,4.1,1.8,4.4c1.4,0.3,2.9-1.3,3.3-3.4c0.4-2.1-0.4-4.1-1.8-4.4
						C427.3,157.4,425.9,158.9,425.5,161z" style="fill:#00AEE0;"/>
					<path d="M404.6,188.9c0.4-2.1-0.4-4.1-1.8-4.4c-1.2-0.2-2.4,0.8-3,2.4c1.7,0.9,3.4,1.6,4.8,2.2
						C404.5,189,404.5,189,404.6,188.9z" style="fill:#00AEE0;"/>
					<path d="M409.5,162.4c1.4,0.3,2.9-1.3,3.3-3.4c0.4-2.1-0.4-4.1-1.8-4.4s-2.9,1.3-3.3,3.4
						C407.2,160.2,408,162.1,409.5,162.4z" style="fill:#00AEE0;"/>
					
						<ellipse transform="matrix(0.1824 -0.9832 0.9832 0.1824 171.7475 519.0266)" cx="398" cy="156.2" rx="3.9" ry="2.6" style="fill:#00AEE0;"/>
					<path d="M386.1,157.6c-1.4-0.3-2.9,1.3-3.3,3.4c-0.4,2.1,0.4,4.1,1.8,4.4c1.4,0.3,2.9-1.3,3.3-3.4
						C388.3,159.8,387.5,157.9,386.1,157.6z" style="fill:#00AEE0;"/>
				</g>
			</g>
			<g>
				<g>
					<path d="M421.1,133.7c-1.6,0-2.8-0.7-3.5-1c-0.2-0.1-0.4-0.2-0.6-0.3c-1.5,0.6-3.2-0.1-3.8-1.5
						c-0.7-1.5-0.1-3.3,1.4-4c2.6-1.2,4.7-0.1,5.8,0.5c0.1,0.1,0.3,0.2,0.4,0.2c0.1-0.3,0.1-0.6,0.1-0.9c0.3-1.9,0.6-4.2,2.5-5.6
						c1.6-1.3,3.6-1.1,5.4-1c0.3,0,0.8,0.1,1.2,0.1c0-0.3,0-0.7,0-0.9c0-1.8-0.1-4,1.4-5.7c1.4-1.6,3.5-1.8,5.2-1.9
						c0.3,0,0.7-0.1,1.1-0.1c-0.1-0.3-0.1-0.7-0.2-0.9c-0.4-1.7-0.8-3.9,0.3-5.7c1.1-1.8,3.1-2.4,4.8-2.9c0.5-0.1,1.2-0.4,1.6-0.5
						c0.8-1.2,2.4-1.7,3.8-1.1c1.5,0.7,2.2,2.5,1.5,4c-1,2.2-3.3,2.9-5.1,3.4c-0.3,0.1-0.8,0.2-1.1,0.4c0.1,0.4,0.2,0.9,0.2,1.3
						c0.4,1.8,0.9,4.1-0.5,5.9c-1.4,1.9-3.8,2.2-5.7,2.3c-0.3,0-0.8,0.1-1.2,0.1c0,0.4,0,1,0,1.4c0,1.8,0.1,4.1-1.5,5.6
						c-1.8,1.7-4.3,1.5-6.1,1.3c-0.3,0-0.8-0.1-1.1-0.1c-0.1,0.5-0.2,1.1-0.3,1.6c-0.3,1.7-0.6,3.9-2.4,5
						C423.3,133.4,422.1,133.7,421.1,133.7z M430.7,120.1L430.7,120.1L430.7,120.1z M442.6,108.3L442.6,108.3L442.6,108.3z" style="fill:#FFB400;"/>
				</g>
				<g>
					<path d="M409.5,131.1c-0.9,0-1.8-0.4-2.4-1.2c-1-1.3-0.8-3.2,0.6-4.2c1.8-1.4,4.1-1.2,5.9-1c0.3,0,0.7,0.1,1,0.1
						c0-0.4,0.1-1,0.1-1.4c0.1-1.7,0.1-3.7,1.5-5.2c1.6-1.6,3.8-1.9,5.7-2.1c0.2,0,0.5-0.1,0.8-0.1c-0.1-0.4-0.3-0.9-0.4-1.3
						c-0.5-1.5-1-3.1-0.4-4.7c0.6-1.7,1.9-3,3-4c-0.1,0-0.2-0.1-0.3-0.1c-1.4-0.4-2.9-0.8-4-1.8c-1.9-1.8-2.1-4.1-2.3-5.4
						c0-0.2,0-0.4-0.1-0.6c-1.4-0.7-2-2.2-1.5-3.7c0.5-1.6,2.2-2.4,3.8-1.9c3.4,1.2,3.6,4.1,3.8,5.6c0.1,0.9,0.1,1.3,0.3,1.5
						c0.3,0.1,1,0.3,1.5,0.4c2.1,0.5,5.2,1.3,5.9,4.4c0.6,2.6-1.4,4.4-2.8,5.7c-0.5,0.4-1.2,1.1-1.5,1.5c0.1,0.3,0.2,0.8,0.3,1.2
						c0.6,1.8,1.5,4.6-0.2,7c-1.3,1.8-3.5,2.1-5.3,2.2c-0.5,0.1-1.2,0.1-1.7,0.2c0,0.4,0,0.8-0.1,1.2c-0.1,1.9-0.1,4.4-2,6.1
						c-1.7,1.4-3.9,1.2-5.7,1.1c-0.6-0.1-1.5-0.1-1.9-0.1C410.7,130.9,410.1,131.1,409.5,131.1z M423.5,115.9L423.5,115.9
						L423.5,115.9z M418.6,98.2L418.6,98.2L418.6,98.2z" style="fill:#FFB400;"/>
				</g>
				<path d="M355.9,168.8c6.6-9.8,35-51.4,46.3-61.8c0.9-0.8,2.1-1.2,3.4-1c5,0.8,18.9,3.3,28.3,7.5
					c1.1,0.5,1.9,1.4,2.2,2.5c1.1,3.7,3.8,12.4,6.5,18.1c0.6,1.3,0.5,2.7-0.3,3.9l-39.2,61.6c-1,1.5-2.9,2.2-4.6,1.7
					c-5.7-1.7-18.5-5.7-28.9-9.6c-0.6-0.2-1.2-0.6-1.7-1.2c-1.9-2.3-7.4-9-12.3-17.4C354.9,171.8,355,170.1,355.9,168.8z" style="fill:#FFFFFF;"/>
				<g>
					<path d="M429.8,124c-0.2-0.8-0.7-1.4-1.4-1.8c-5.6-3.3-22.5-6.5-32.7-8.3c-1.4,1.6-2.8,3.4-4.4,5.4
						c9.9,1.6,26.9,4.8,33,7.6c1.2,3.9,4.9,15.7,9.9,23.7l3.6-5.7C434.1,137.9,430.9,128.2,429.8,124z" style="fill:#FFB400;"/>
					<path d="M420,139c-0.2-0.8-0.7-1.4-1.4-1.8c-6-3.5-24.5-6.9-34.4-8.6c-1.3,1.8-2.7,3.6-4,5.4
						c9.6,1.6,27.9,4.9,34.3,7.8c1.2,3.9,5,16,10.1,23.9l3.6-5.7C424.4,153,421.2,143.2,420,139z" style="fill:#FFB400;"/>
					<path d="M410.5,153.2c-0.2-0.8-0.7-1.4-1.4-1.8c-6.1-3.6-25.6-7.1-35.2-8.7c-1.3,1.8-2.6,3.7-3.9,5.4
						c9.4,1.5,28.4,5,35,8c1.2,4,5.1,16.3,10.3,24.2l3.6-5.6C415,167.6,411.7,157.5,410.5,153.2z" style="fill:#FFB400;"/>
					<path d="M399,166.5c-6.2-3.6-26-7.2-35.5-8.8c-1.4,2-2.6,3.8-3.8,5.5c9.3,1.5,28.6,5,35.2,8
						c1.2,4.1,5.2,16.8,10.6,24.7l3.6-5.6c-4.1-7.1-7.5-17.6-8.7-22C400.1,167.5,399.6,166.9,399,166.5z" style="fill:#FFB400;"/>
				</g>
			</g>
			<g>
				<path d="M455.3,192.6c-8.4,3-23.7,13.4-38.8,17.7c-2.8,0.8-4.5,3.5-3.9,6.4l3,21.6c0.1,0.5,0.1,1,0.1,1.5l-2.5,29.9
					c-0.2,1.8-1.2,3.4-2.8,4.4l-5.4,3.1c-1.6,0.9-2.7,2.6-2.8,4.5l-1.4,24.4c-0.1,2.3-1.6,4.2-3.8,4.9l-0.9,0.3
					c-2,0.7-3.5,2.4-3.8,4.6c-2.1,16.9-3.2,39.9-3.7,59.7l-7,2.8c0,0-0.3,41.4,4.6,35.7c4.9-5.7,12.7-22.3,12.7-22.3
					c8.3-18.6,17.9-38.7,28.2-58c0.3-0.6,0.5-1.2,0.6-1.9c3.9-29.7,4.8-43.8,5-48.6c0.1-1.3,0.5-2.5,1.4-3.4l12-13.6
					c0.8-0.9,1.2-1.9,1.4-3.1l1.9-16.8c0.1-1.3,0.7-2.5,1.7-3.4l3.3-3.2c1.1-1,1.7-2.4,1.7-3.9l0.2-6.4c0-1.7,0.9-3.3,2.3-4.3
					c1.3-1,2.1-2.5,2.3-4.1l1.9-22.8C463,194.2,459.1,191.3,455.3,192.6z" style="fill:#04294F;"/>
				<path d="M414.7,218.6l0.9,19.9c0.1,0.4,0.1,0.8,0.1,1.2l-1.5,31.8c-0.1,1.4-0.9,2.7-2.2,3.5l-7.5,2.6
					c-1.3,0.7-2.1,2.1-2.2,3.6l-0.4,26.9c-0.1,1.8-1.3,3.4-3,3.9l-3.4-0.3c-1.6,0.5-2.8,1.9-3,3.6c-3.8,29.4-4.2,78.1-4.3,95.4
					c0,3.1-3.1,5.2-5.9,4.1c-9.5-3.5-18.6-7-27.5-10.4c-9.8-3.8-19.1-7.5-28-11c-1.5-0.6-2.6-2-2.7-3.6c-0.8-7.5-2.6-31.5-0.3-77
					c0-1-0.2-1.9-0.8-2.7l-5.7-8.2c-0.4-0.6-0.7-1.3-0.8-2.1l-1.1-11.3c-0.1-1.4-1-2.7-2.2-3.4l-0.9-0.5c-1.3-0.7-2.2-2.1-2.3-3.7
					l-1-23.8c-0.1-1.5-0.9-2.9-2.2-3.6l-4-2.3c-1.2-0.7-1.9-1.9-2.1-3.2l-7.4-52.5l0.1-0.2c37.8,16.6,90.9,25.6,98.1,26.8
					c0.5,0.1,1.1,0.1,1.6,0c4.6-1,11.5-5.4,16.2-6.6C411.7,214.5,414.2,216,414.7,218.6z" style="fill:#FFB400;"/>
				<path d="M317.2,261.4c5.3,1.3,10.6,2.7,15.9,4.2c5.3,1.5,10.5,3,15.8,4.6l7.9,2.4c2.6,0.8,5.2,1.6,7.8,2.5
					c5.2,1.7,10.4,3.5,15.5,5.4c0.9,0.4,1.4,1.4,1,2.3c-0.3,0.8-1.2,1.3-2,1.1c-5.4-1-10.8-2.3-16.1-3.6c-5.3-1.4-10.6-2.9-15.9-4.5
					c-5.3-1.6-10.5-3.3-15.7-5.1c-5.2-1.8-10.3-3.8-15.4-6.1c-0.9-0.4-1.3-1.4-0.9-2.3C315.5,261.6,316.3,261.2,317.2,261.4
					L317.2,261.4z" style="fill:#04294F;"/>
				<path d="M364.7,304.3c3.9,0.8,7.7,1.7,11.6,2.6c3.8,0.9,7.7,1.9,11.5,2.9c3.8,1,7.6,2,11.4,3.2
					c3.8,1.1,7.6,2.3,11.3,3.7c0.9,0.4,1.4,1.4,1.1,2.3c-0.3,0.8-1.1,1.3-1.9,1.2c-4-0.4-7.9-1.1-11.8-1.9
					c-3.9-0.8-7.8-1.7-11.6-2.7c-3.8-1-7.7-2.2-11.5-3.5c-3.8-1.3-7.5-2.7-11.2-4.5c-0.9-0.4-1.2-1.5-0.8-2.3
					C363.1,304.5,363.9,304.2,364.7,304.3L364.7,304.3z" style="fill:#04294F;"/>
				<path d="M340.1,297.3c1.1-0.2,2.2-0.2,3.2-0.1c1,0.1,2,0.3,3,0.6c1,0.3,1.9,0.6,2.9,1.1c0.9,0.5,1.8,1,2.7,1.7l0,0
					c0.8,0.7,0.9,2,0.1,2.8c-0.3,0.3-0.7,0.6-1.1,0.6c-1.1,0.2-2.2,0.2-3.2,0.1c-1-0.1-2-0.3-3-0.6c-1-0.3-2-0.7-2.9-1.1
					c-0.9-0.5-1.8-1-2.7-1.8c-0.8-0.7-0.8-1.9-0.1-2.7C339.3,297.5,339.6,297.4,340.1,297.3L340.1,297.3z" style="fill:#04294F;"/>
				<path d="M372.8,232.8c0.9-0.3,1.7-0.3,2.6-0.3c0.8,0,1.6,0.2,2.3,0.4c0.8,0.2,1.5,0.5,2.2,0.9
					c0.7,0.4,1.4,0.9,2,1.6l0,0c0.8,0.9,0.7,2.2-0.2,3c-0.2,0.2-0.5,0.4-0.8,0.4c-0.9,0.3-1.7,0.3-2.6,0.3c-0.8,0-1.6-0.2-2.4-0.4
					c-0.8-0.2-1.5-0.5-2.2-0.9c-0.7-0.4-1.4-0.9-2-1.6c-0.7-0.9-0.7-2.1,0.2-2.9C372.2,233.1,372.5,232.9,372.8,232.8L372.8,232.8z" style="fill:#04294F;"/>
				<path d="M329.6,252.9c1.7-0.1,3.2,0.1,4.8,0.3c1.6,0.2,3.1,0.6,4.6,1c1.5,0.4,3,0.9,4.5,1.5
					c1.5,0.6,2.9,1.3,4.3,2.2l0,0c0.9,0.6,1.1,1.8,0.5,2.6c-0.3,0.5-0.9,0.8-1.5,0.8c-1.7,0.1-3.2-0.1-4.8-0.4
					c-1.6-0.3-3.1-0.6-4.6-1.1c-1.5-0.4-3-1-4.5-1.6c-1.5-0.6-2.9-1.3-4.3-2.2c-0.8-0.6-1.1-1.7-0.5-2.5
					C328.4,253.2,329,252.9,329.6,252.9L329.6,252.9z" style="fill:#04294F;"/>
				<path d="M362.9,341.2c1.7-0.1,3.2,0.1,4.8,0.3c1.6,0.2,3.1,0.6,4.6,1c1.5,0.4,3,0.9,4.5,1.5
					c1.5,0.6,2.9,1.3,4.3,2.2l0,0c0.9,0.6,1.1,1.8,0.5,2.6c-0.3,0.5-0.9,0.8-1.5,0.8c-1.7,0.1-3.2-0.1-4.8-0.4
					c-1.6-0.3-3.1-0.6-4.6-1.1c-1.5-0.4-3-1-4.5-1.6c-1.5-0.6-2.9-1.3-4.3-2.2c-0.8-0.6-1.1-1.7-0.5-2.5
					C361.7,341.5,362.3,341.3,362.9,341.2L362.9,341.2z" style="fill:#04294F;"/>
				<path d="M411.6,217.2c-6.5,1.8-13,3.4-19.3,4.7c0,0-58.3-9.1-98.9-26.9c-4.5-2-8.9-4.1-12.8-6.3
					c0,0-2.4-18.3-1.8-28.9c44.6,21.3,115.2,31,115.2,31c44.2-11,85.1-27,85.1-27s-1.8,21.7-9.1,32l-7.8,5.1
					C462.2,200.7,437.6,210.1,411.6,217.2z" style="fill:#04294F;"/>
				<path d="M278.7,159.7c44.6,21.3,115.2,31,115.2,31c44.2-11,85.1-27,85.1-27c-5.3-3.9-11.2-7.5-17.3-10.6
					c-36.8,17.5-71.4,24.7-71.4,24.7s-55.1-7.3-93.4-27.8C284.9,155.4,278.7,159.7,278.7,159.7z" style="fill:#FFB400;"/>
			</g>
		</g>
		<g>
			<path d="M288,501.6c-18.9-7.9-34.1-15-44.5-19.8c1.9,26.1,7.5,54.7,7.5,54.7s12.5,8,40.9,18.4
				C289.5,533.4,288.4,514.2,288,501.6z" style="fill:#FFFFFF;"/>
			<path d="M291.9,555l-49.7-14.2c0.2,5,1.1,7.7,1.1,7.7s17.3,11.4,40.6,19c0,0,4.1-1.5,9.1-4.8
				C292.4,559.2,291.9,555,291.9,555z" style="fill:#04294F;"/>
			<path d="M250.9,536.5c0,0-4.8,2.7-8.8,4.3c0,0,17.3,11.4,40.6,19c0,0,4.1-1.5,9.1-4.8
				C291.9,555,262.8,543.5,250.9,536.5z" style="fill:#00AEE0;"/>
			<path d="M272.3,547.1c1.5,0.7,3.2,1.4,4.9,2.1c0,0,0,0,0.1,0v0c4.3,1.8,9.2,3.7,14.6,5.7c-0.3-2.4-0.5-4.8-0.7-7.2
				c-5.9-2.3-10.9-4.4-15.2-6.3c-1.3-8.8-2.3-17.8-3.1-26.1c5.2,2.2,10.6,4.5,16.1,6.6c-0.1-2.3-0.3-4.5-0.4-6.6
				c-5.6-2.2-11.1-4.5-16.3-6.8c-0.4-5.3-0.7-10.1-1-14.1c-2.1-0.9-4.2-1.9-6.2-2.7c0.2,3.8,0.5,8.6,0.9,14
				c-4.8-2.2-9.3-4.4-13.4-6.4c-0.6-4.5-1.1-9.3-1.6-14c-2.7-1.3-5.3-2.4-7.6-3.5c1.9,26.1,7.5,54.7,7.5,54.7s6.2,3.9,19.7,9.9l0,0
				c0,0,0,0,0,0C271.2,546.7,271.7,546.9,272.3,547.1C272.2,547.1,272.2,547.1,272.3,547.1z M257.9,532.2c0,0-2.2-11.1-4.2-25.7
				c4.1,2,8.4,4,13,6.1c0.7,8,1.6,17,2.9,25.8C261.5,534.6,257.9,532.2,257.9,532.2z" style="fill:#04294F;"/>
		</g>
		<g>
			<g>
				<path d="M432.8,607.1c-1.2-24.3-0.1-45.3-0.4-52.2C405.1,546,385,538,385,538c-0.3,28.5,1.8,53.7,1.8,53.7
					C402.3,597.3,417.9,602.6,432.8,607.1z" style="fill:#FFFFFF;"/>
			</g>
			<path d="M377.8,595.8c4-1.5,8.8-4.3,8.8-4.3s27.6,9.8,46.3,15.6c0,0-2.8,3.6-8.5,5.3
				C424.3,612.4,403.5,608.2,377.8,595.8z" style="fill:#00AEE0;"/>
			<path d="M432.8,607.1c-5.1,4-8.5,5.3-8.5,5.3c-17-4.3-46.5-16.6-46.5-16.6c0.2,5,1.1,7.7,1.1,7.7
				s26.4,11.5,45.9,16.1c0,0,5.5-3.5,8-5.8C432.8,613.9,432.8,611.4,432.8,607.1z" style="fill:#04294F;"/>
			<path d="M409.4,599.6c7.9,2.7,15.7,5.2,23.4,7.5c-0.1-2.2-0.2-4.4-0.3-6.5c-5.8-1.8-11.8-3.8-17.7-5.8
				c-0.9-8.3-1.4-17.1-1.5-25.2c6.1,2.2,12.5,4.4,18.9,6.3c0-2.2,0-4.3,0.1-6.3c-6.5-2-13-4.3-19.1-6.5c0-5.7,0.1-10.8,0.3-14.7
				c-2.1-0.7-4-1.4-5.9-2.1c-0.2,3.8-0.3,8.8-0.3,14.6c-5.6-2.1-10.8-4.2-15.2-6c-0.1-4.5-0.2-9.3-0.2-14.3
				c-4.4-1.7-6.9-2.6-6.9-2.6c-0.1,5.9,0,11.7,0.1,17.2c0,0.1,0,0.1,0,0.2c0.4,20.6,1.7,36.3,1.7,36.3
				C394.4,594.4,401.9,597.1,409.4,599.6L409.4,599.6C409.4,599.6,409.4,599.6,409.4,599.6z M393.7,587.4c0,0-0.9-10.6-1.4-25.9
				c4.4,1.8,9.5,3.8,15,5.9c0.1,8,0.4,16.8,1.3,25.3C403.6,591,398.7,589.2,393.7,587.4z" style="fill:#04294F;"/>
		</g>
	</g>
</g>
</svg>
