<svg id="school_friendship" xmlns="http://www.w3.org/2000/svg" viewBox="0 0 800 800"><title>school_friendship</title><path d="M148.41,332.09A237.59,237.59,0,0,1,174.58,327a29.08,29.08,0,0,1-3.29-8.33C161,320.15,152.53,325.27,148.41,332.09Z" style="fill:none;"/><path d="M147,546.7l1.18-.39,0-.09-1.27.42Z" style="fill:none;"/><path d="M133.77,365.6c2.86-1.35,5.75-2.56,8.67-3.69l-.21.23a7.33,7.33,0,0,1,.63-.4l2-.72c15.39-2.41,21.81,74.83,7,83.62v0l-1.33.49a65.35,65.35,0,0,0-17.35,10.1c-4.41,3.59-5.08,10.14-11.9,11.74a15.26,15.26,0,0,1-.83,1.74h0a29.74,29.74,0,0,0-2.36,5.75c0,.14-.07.28-.11.42,21.36-7,34.44-9.31,34.44-9.31a26.24,26.24,0,0,1,3.36-.24c-.33-4.57-.78-9.07-1.32-13.41h0c9.82-3.28,15.44-16.58,17.94-32.39.64-4,1.07-8.22,1.32-12.46C175,385,171.28,361.87,165,355.3A186.31,186.31,0,0,1,187.83,352q.88-6.72,1.36-12.84c-7.39-3.45-11.84-7.57-14.61-12.18a237.59,237.59,0,0,0-26.17,5.12c4.12-6.82,12.61-11.94,22.88-13.45a70.47,70.47,0,0,1-1.5-10.83c-17.69,2.61-31.61,13.93-34.48,28.17-30.63,10.42-53.49,28.34-57.87,56.76a159.66,159.66,0,0,0-1.67,34.43,23.37,23.37,0,0,0,2.28-4.62C88.53,397.27,109.19,377.2,133.77,365.6ZM82.11,385.83a1.15,1.15,0,0,1,.75-.21l.54.05a11.28,11.28,0,0,1,1.2.31l1.25.37,2.53.77c.85.28,1.71.54,2.56.88a17.28,17.28,0,0,1,2.6,1.14l0,0a1.26,1.26,0,0,1,.48,1.73,1.25,1.25,0,0,1-.89.63,11.08,11.08,0,0,1-3,.05,14.46,14.46,0,0,1-3-.65,12.59,12.59,0,0,1-2.82-1.3,9.64,9.64,0,0,1-1.29-.94,7.18,7.18,0,0,1-1.19-1.29A1.12,1.12,0,0,1,82.11,385.83Z" style="fill:#04294f;"/><path d="M105.73,583.57a9.47,9.47,0,0,1,2.49-3.68c-3,.78-5.93,1.46-8.88,2-.57.11-1.12.19-1.68.29a1.37,1.37,0,0,1,0,.28,60.5,60.5,0,0,0-2.53,20,69.63,69.63,0,0,0,3.29,20,.91.91,0,0,1,0,.61c1.52,0,3,0,4.54,0,2.39,0,4.76-.17,7.13-.33-2.38-4.05-5.22-11-6-21.84C103.53,592.35,104.48,586.94,105.73,583.57Z" style="fill:#ffb400;"/><path d="M98.4,622.46a69.63,69.63,0,0,1-3.29-20,60.5,60.5,0,0,1,2.53-20,1.37,1.37,0,0,0,0-.28c-.07-.73-1.18-1.19-2-1.06-2.37.37-4.7.63-7,.83a1.36,1.36,0,0,1,0,.91c-1.74,4.66-4.15,10.33-3,22.12a154.2,154.2,0,0,0,3,18.87c2.52.2,5,.35,7.52.41a2.48,2.48,0,0,0,2.26-1.21A.91.91,0,0,0,98.4,622.46Z" style="fill:#fff;"/><path d="M85.6,605c-1.12-11.79,1.29-17.46,3-22.12a1.36,1.36,0,0,0,0-.91c-.37-1.23-2.31-2.16-3.7-2.54s-2.61-.65-3.92-.92c-2-.42-4.06-.73-6.09-1s-4.07-.45-6.1-.55c-.94-.05-2.3-.05-3.5,0a3.09,3.09,0,0,0-2.93,2.63c-2.25,11.18-5,32.44.26,60.5,0,0,.39,2.42,4.14,2.37,3.27,0,4.86,0,9.79-7.61a8.77,8.77,0,0,1-2.79-1.95,12.44,12.44,0,0,1-2.31-3.47,12.15,12.15,0,0,1-1.1-3.93,13.76,13.76,0,0,1,0-2,8.84,8.84,0,0,1,.48-2,.56.56,0,0,1,.73-.32.53.53,0,0,1,.23.16l0,0a10.12,10.12,0,0,1,1.1,1.69,16,16,0,0,1,.84,1.65c.53,1.08.91,2.18,1.34,3.23s.85,2.12,1.33,3.15c.34.74.73,1.49,1.14,2.23.77-1.25,1.62-2.66,2.56-4.28h0c.27,0,.54-.09.8-.15l1.41-.3A12,12,0,0,1,81,627,12.36,12.36,0,0,1,79,623.32a12.05,12.05,0,0,1-.69-4,14,14,0,0,1,.21-2,8.8,8.8,0,0,1,.69-2A.56.56,0,0,1,80,615a.53.53,0,0,1,.21.18l0,0a10.23,10.23,0,0,1,.93,1.79,16.17,16.17,0,0,1,.67,1.73c.41,1.13.68,2.26,1,3.35s.63,2.19,1,3.27c.27.81.61,1.65,1,2.47l.52-.13c1.53-.44,3.81-1.39,3.48-3l-.2-.9A154.2,154.2,0,0,1,85.6,605Zm-4.51-15.46c-.31,2.93-3.72,5-7.62,4.57S66.67,591,67,588.06s3.71-5,7.61-4.58S81.39,586.6,81.09,589.54Z" style="fill:#ff3a00;"/><path d="M82.83,622.12c-.32-1.09-.59-2.22-1-3.35a16.17,16.17,0,0,0-.67-1.73,10.23,10.23,0,0,0-.93-1.79l0,0A.53.53,0,0,0,80,615a.56.56,0,0,0-.75.25,8.8,8.8,0,0,0-.69,2,14,14,0,0,0-.21,2,12.05,12.05,0,0,0,.69,4A12.36,12.36,0,0,0,81,627a12,12,0,0,0,1.41,1.44,6.48,6.48,0,0,0,2,1.17.64.64,0,0,0,.45,0,.62.62,0,0,0,.31-.82l-.07-.16-.33-.76c-.35-.82-.69-1.66-1-2.47C83.46,624.31,83.15,623.22,82.83,622.12Z" style="fill:#04294f;"/><path d="M75.16,627.81c-.43-1-.81-2.15-1.34-3.23a16,16,0,0,0-.84-1.65,10.12,10.12,0,0,0-1.1-1.69l0,0a.53.53,0,0,0-.23-.16.56.56,0,0,0-.73.32,8.84,8.84,0,0,0-.48,2,13.76,13.76,0,0,0,0,2,12.15,12.15,0,0,0,1.1,3.93,12.44,12.44,0,0,0,2.31,3.47,8.77,8.77,0,0,0,2.79,1.95,6.07,6.07,0,0,0,.91.3A.6.6,0,0,0,78,635a.62.62,0,0,0,.22-.84l-.09-.15c-.16-.28-.31-.57-.47-.86-.41-.74-.8-1.49-1.14-2.23C76,629.93,75.59,628.88,75.16,627.81Z" style="fill:#04294f;"/><path d="M239.07,532.21a2.34,2.34,0,0,0,1.12,2.7c4.66,3.38,12.35-3.52,16.8-8.58C244.47,526.52,239.79,530.14,239.07,532.21Z" style="fill:#04294f;"/><path d="M319.05,500.7C303.48,508,261,523,181.5,518.68l4.92,15-38.27,12.59,0,.09,5.08-1.67c3.25,6.14-3.59,14.55-14,18.69-.56.64-1.13,1.28-1.71,1.9a46.25,46.25,0,0,1-7.19,5.56,65.43,65.43,0,0,1-17.69,6.78,9.76,9.76,0,0,0-4.36,2.32,9.47,9.47,0,0,0-2.49,3.68c-1.25,3.37-2.2,8.78-1.63,17.32.73,10.84,3.57,17.79,6,21.84l.19.32a8.58,8.58,0,0,0,7.77,4.16,102.61,102.61,0,0,0,36-8.39,92.43,92.43,0,0,0,19.34-11.88,90.55,90.55,0,0,0,15.72-16.74,91.46,91.46,0,0,0,9-15.3h0c11.58-23.36,91-28.55,102.07-7v0a46.05,46.05,0,0,1,.57,9.07,68,68,0,0,1-5.52,21.42s-1,1.69,1.95,5.19c.36-1.06.72-2.11,1.06-3.19v.06c.95-1.8,10.21,1.23,20.67,6.76s18.19,11.47,17.24,13.27h0c-.53,1-1.08,2-1.64,3,3.15.22,3.69-.94,3.69-.94a103.82,103.82,0,0,0,15.62-38.23,92,92,0,0,0,1-22.68,90,90,0,0,0-5-22.41,94.13,94.13,0,0,0-10-19.82,112.75,112.75,0,0,0-13.21-16.38c-1.44-1.48-2.92-2.9-4.41-4.29A17,17,0,0,1,319.05,500.7ZM271.9,545.49a1.21,1.21,0,0,1-2.41,0h0a36.33,36.33,0,0,0-1-5.64,27.56,27.56,0,0,0-1.92-5.26,26.29,26.29,0,0,0-2.88-4.74c-.23-.29-.46-.58-.7-.86-.05.65-.11,1.3-.19,2a37.07,37.07,0,0,1-1.35,6.54,24.22,24.22,0,0,1-1.19,3.17,19.51,19.51,0,0,1-1.64,3,15,15,0,0,1-5,4.82,1.16,1.16,0,0,1-1.29-1.92l0,0A13.52,13.52,0,0,0,256,542.1a24,24,0,0,0,2-5.56,40,40,0,0,0,.95-6c0-.18,0-.37,0-.55-3.85,4.19-10.13,9.84-16.07,9.84a8.52,8.52,0,0,1-5.14-1.69,6.27,6.27,0,0,1-2.56-7.25c2-5.85,11.62-9,25.68-8.53,15.51-3.17,23.45.4,25.53,4.46A5.82,5.82,0,0,1,285,534a8.26,8.26,0,0,1-5.77,2.15,20.05,20.05,0,0,1-9.1-2.79,27.18,27.18,0,0,1,1.59,5.89A28.15,28.15,0,0,1,271.9,545.49Z" style="fill:#04294f;"/><path d="M282.28,531a1.86,1.86,0,0,0,.67-2.35c-1.13-2.2-6.6-4.54-17.23-3.06C270.73,529.47,278.71,534.3,282.28,531Z" style="fill:#04294f;"/><path d="M331.84,444.32c-.15-3.35-.36-6.63-.64-9.78a138.15,138.15,0,0,0-.38-14.83A22.55,22.55,0,0,1,319,428c-6.27,1.72-12.84-1.65-19.2-4.9-4.87-2.5-10.39-5.32-14-4.72-2.68.45-6.46,4.47-9.8,8-5,5.35-10.74,11.41-18.15,12.06-7.09.61-13.33-4-19.35-8.54-4-3-8.61-6.44-11.61-6.44h0c-3.18,0-7.85,3.52-12,6.6-5.58,4.17-11.33,8.48-17.75,8.48a14.21,14.21,0,0,1-1.45-.07c-7.93-.82-13.5-7.52-18.41-13.43-1.58-1.9-3.27-3.92-4.87-5.51-2.5,15.81-8.12,29.11-17.94,32.39h0c.54,4.34,1,8.84,1.32,13.41,7.32-.06,9.32,3.65,11.3,9.58h0l14.4,43.76c79.47,4.35,122-10.68,137.55-18a17,17,0,0,0,3.08-1.89,16.58,16.58,0,0,0,5.95-9.23c3.67-15.29,4.42-31,3.78-45.27h0Zm-10.67,45.45a20.87,20.87,0,0,1-1.74,1.33,2,2,0,0,1-1.14.36,2,2,0,0,1-1.14-3.65,17.77,17.77,0,0,0,1.43-1.09,2,2,0,0,1,2.59,3ZM190.61,507.26a2,2,0,0,1-2,1.81h-.19l-2-.19a2,2,0,0,1,.41-4l2,.19A2,2,0,0,1,190.61,507.26ZM201,509.87h-.08c-1.4-.05-2.79-.12-4.16-.2a2,2,0,1,1,.22-4c1.35.08,2.72.14,4.1.19a2,2,0,0,1-.08,4Zm12.4.22h-.8l-3.36,0a2,2,0,0,1,0-4h0l3.32,0h.8a2,2,0,1,1,0,4Zm12.46-.25-4.15.13h0a2,2,0,0,1-.05-4l4.1-.13a2,2,0,0,1,.15,4Zm12.45-.68-4.14.27H234a2,2,0,0,1-.11-4l4.11-.27a2,2,0,1,1,.27,4Zm12.43-1.06-4.14.4h-.18a2,2,0,0,1-.18-4c1.37-.12,2.73-.25,4.09-.39a2,2,0,0,1,.41,4Zm12.38-1.46c-1.36.19-2.74.36-4.12.53l-.25,0a2,2,0,0,1-.24-4l4.08-.52a2,2,0,1,1,.53,4Zm8.23-1.2-.32,0a2,2,0,0,1-.31-4l4.06-.67a2,2,0,1,1,.68,3.94Zm16.37-3.07c-1.33.3-2.69.58-4.08.86a1.75,1.75,0,0,1-.4,0,2,2,0,0,1-.39-4c1.36-.27,2.7-.56,4-.85a2,2,0,1,1,.86,3.91Zm12.16-3.06c-1.31.38-2.65.75-4,1.11a1.79,1.79,0,0,1-.51.07,2,2,0,0,1-.5-3.93c1.35-.36,2.66-.72,3.94-1.09a2,2,0,0,1,1.11,3.84Zm8-2.6a1.87,1.87,0,0,1-.69.13,2,2,0,0,1-.69-3.88c1.33-.49,2.59-1,3.75-1.48a2,2,0,1,1,1.57,3.67C310.6,495.67,309.27,496.2,307.87,496.71Z" style="fill:#00aee0;"/><path d="M87.21,535c-6.6-10.9-13.33-22.62-17.17-41.76a1.29,1.29,0,0,1,0-.19c-2,.85-3,1.31-3,1.31-3.84,1.76-5.67,5.12-4.48,8.78l18.71,57.69A7,7,0,0,0,90,565.26l13-4.28,0,0,4.45-1.46C100.69,553.79,93.76,545.79,87.21,535Z" style="fill:#ff3a00;"/><path d="M118,474.9a36.84,36.84,0,0,0-1.34,9,51.71,51.71,0,0,0,3.09,16.85c.65,1.49,1.28,3,1.88,4.56a5.26,5.26,0,0,0,4.79,3.34h0c.64,0,1.26,0,1.89.09l1.86.29a33.06,33.06,0,0,1,13.18,5.12,32.32,32.32,0,0,1,5.09,4.25l1.11,1.18,1,1.27a31.49,31.49,0,0,1,1.82,2.6,4.92,4.92,0,0,1-1.26,6.7,4.64,4.64,0,0,1-3,.71l-2.25-.26a21.49,21.49,0,0,1-2.16-.55c-.76-.21-1.51-.4-2.26-.57a43.15,43.15,0,0,0-4.35-.75H137a2.72,2.72,0,0,0-2.49,4.25,70.38,70.38,0,0,0,12.33,13.64l1.27-.42,38.27-12.59-4.92-15-14.4-43.76h0c-2-5.93-4-9.64-11.3-9.58a26.24,26.24,0,0,0-3.36.24S139.35,467.91,118,474.9ZM162,481.54l18.3,54.07L166.76,540,149.1,485.57h0C146.7,478.18,159.47,474,162,481.54Z" style="fill:#ff3a00;"/><path d="M149.1,485.57h0L166.76,540l13.58-4.4L162,481.54C159.47,474,146.7,478.18,149.1,485.57Z" style="fill:#fff;"/><path d="M153.21,544.64l-5.08,1.67-1.18.39-.07-.06A70.38,70.38,0,0,1,134.55,533a2.72,2.72,0,0,1,2.49-4.25h.06a43.15,43.15,0,0,1,4.35.75c.75.17,1.5.36,2.26.57a21.49,21.49,0,0,0,2.16.55l2.25.26a4.64,4.64,0,0,0,3-.71,4.92,4.92,0,0,0,1.26-6.7,31.49,31.49,0,0,0-1.82-2.6l-1-1.27-1.11-1.18a32.32,32.32,0,0,0-5.09-4.25,33.06,33.06,0,0,0-13.18-5.12l-1.86-.29c-.63-.06-1.25-.06-1.89-.09h0a5.26,5.26,0,0,1-4.79-3.34c-.6-1.54-1.23-3.07-1.88-4.56a51.71,51.71,0,0,1-3.09-16.85,36.84,36.84,0,0,1,1.34-9c0-.14.07-.28.11-.42a29.74,29.74,0,0,1,2.36-5.75h0a15.26,15.26,0,0,0,.83-1.74c-4.8,1.13-12.62-.19-26.94-6.7-12.28-5.59-18.28-11-20.8-15.91-.79,2.57-1.54,5.12-2.21,7.56-.13.4-.27.81-.38,1.24-.53,1.94-1,3.91-1.38,5.89,0,.13-.06.26-.08.39h0a72.56,72.56,0,0,0-1,7.2,87.11,87.11,0,0,0,.16,18.06.31.31,0,0,0,0,.1s0,.07,0,.1c.17,1.48.37,2.95.62,4.4.22,1.25.48,2.47.75,3.68a1.29,1.29,0,0,0,0,.19c3.84,19.14,10.57,30.86,17.17,41.76s13.48,18.84,20.32,24.62l.07.06-.22.08c10.43,7.6,22.53,7.29,31.79,3.62C149.62,559.19,156.46,550.78,153.21,544.64Zm-24.07-23.73a.65.65,0,0,1,.8-.46l.06,0,0,0a7.16,7.16,0,0,1,2.2,1.32,8.26,8.26,0,0,1,1.47,1.71,13.1,13.1,0,0,1,1.12,2,8.74,8.74,0,0,1,.71,2.43v0a.72.72,0,0,1-.62.8.57.57,0,0,1-.29,0,7.39,7.39,0,0,1-2.35-1.17,9.68,9.68,0,0,1-1.78-1.72,7,7,0,0,1-1.23-2.18A4.86,4.86,0,0,1,129.14,520.91Zm-4.5,42.6a.63.63,0,0,1-.63.17,20,20,0,0,1-6.19-3.18,26.43,26.43,0,0,1-5-4.88,26.86,26.86,0,0,1-3.61-6,21.66,21.66,0,0,1-1.71-6.72.52.52,0,0,1,.91-.37h0c1.48,1.79,2.65,3.62,3.88,5.39s2.41,3.51,3.67,5.2,2.61,3.31,4,4.87,3,3,4.62,4.57h0A.63.63,0,0,1,124.64,563.51Zm14.1-3.3a.61.61,0,0,1-.66.14,28.27,28.27,0,0,1-6.75-3.8,34.24,34.24,0,0,1-5.66-5.37,29.71,29.71,0,0,1-4.26-6.55,23.52,23.52,0,0,1-2.18-7.47.51.51,0,0,1,.45-.56.49.49,0,0,1,.46.2h0c1.57,2.05,2.9,4.09,4.31,6.07s2.79,3.91,4.28,5.79,3.09,3.68,4.75,5.44,3.45,3.45,5.24,5.23h0A.62.62,0,0,1,138.74,560.21Z" style="fill:#ffb400;"/><path d="M394.76,382.46A18.16,18.16,0,0,1,387,389a19.27,19.27,0,0,1-10.48,1.3,27.4,27.4,0,0,1-9.81-3.57,37.24,37.24,0,0,1-8-6.38c-.59-.61-1.17-1.23-1.7-1.9s-1.1-1.29-1.58-2a41.08,41.08,0,0,1-2.75-4.29,30.4,30.4,0,0,1-3.52-9.67,19.1,19.1,0,0,1,.91-10.48,14.27,14.27,0,0,1,7-7.5h0a.91.91,0,0,1,1.22.43.38.38,0,0,1,0,.1,29.37,29.37,0,0,0,4.16-3.61c.37-.4.73-.82,1.1-1.24a15.63,15.63,0,0,0-8.36-.72c-3.73.85-10.54,10.51-22.22,14.27-.42.14-.83.28-1.27.4-.73.21-1.47.39-2.2.57,8.08,14.65,14.59,51.4,11.75,78.05h0a117.59,117.59,0,0,0,29.22-17.25c16.75-13.56,27.1-26.06,28.1-28.76.62-1.69,0-4.58-1.24-7.93-.83,1-1.67,2-2.54,2.93A.73.73,0,0,1,394.76,382.46ZM338.36,358c0-.71,0-1.43.07-2.14a2,2,0,1,1,4,.27c0,.61-.06,1.24-.06,1.86a2,2,0,0,1-2,2h0A2,2,0,0,1,338.36,358Zm5.09,14.28a1.87,1.87,0,0,1-.69.13,2,2,0,0,1-1.88-1.31c-.52-1.41-1-2.83-1.33-4.23a2,2,0,1,1,3.88-1,38.51,38.51,0,0,0,1.2,3.84A2,2,0,0,1,343.45,372.24Zm6.37,11a2,2,0,0,1-2.79-.49c-.84-1.21-1.64-2.45-2.37-3.7a2,2,0,1,1,3.45-2c.68,1.16,1.42,2.31,2.2,3.42A2,2,0,0,1,349.82,383.21Zm8.85,9.09a2,2,0,0,1-2.83.2c-1.09-.95-2.17-2-3.2-3a2,2,0,1,1,2.86-2.79c.95,1,1.95,1.91,3,2.79A2,2,0,0,1,358.67,392.3Zm11,6.33a2,2,0,0,1-1.83,1.19,2,2,0,0,1-.81-.17,40,40,0,0,1-4-2,2,2,0,0,1,2-3.47,37.68,37.68,0,0,0,3.58,1.82A2,2,0,0,1,369.64,398.63Zm8.26,3.89h-.2c-.7-.07-1.42-.16-2.11-.28a2,2,0,0,1,.64-4c.62.1,1.23.19,1.85.24a2,2,0,0,1-.18,4Z" style="fill:#00aee0;"/><path d="M165,355.3c6.3,6.57,10.05,29.71,8.75,51.79,4.65,2.16,8.36,6.63,12,11s7.63,9.17,11.11,9.53c2.75.29,7.4-3.2,11.51-6.28,5.75-4.3,11.68-8.74,18.48-8.78h.08c6.65,0,12.5,4.38,18.17,8.62,4.17,3.12,8.88,6.67,11.84,6.39,3.24-.28,7.43-4.73,11.12-8.65,4.75-5,9.66-10.26,16-11.31,7.21-1.2,14.44,2.5,20.81,5.77,4.07,2.09,9.14,4.69,11.3,4.09,5.64-1.56,8.84-8.41,11.66-14.45l.82-1.74c-3.27-19.78-9.13-38.71-15.35-44.09a58.8,58.8,0,0,1-6.88.2h0c-1.38,0-2.76,0-4.14,0a1.79,1.79,0,0,1,.28.27,1.5,1.5,0,0,1,.1,1.69,44.41,44.41,0,0,1-12.4,13.12,69.08,69.08,0,0,1-16.06,8.45A103.51,103.51,0,0,1,238.92,387c-3,0-5.95-.06-8.93-.22s-5.93-.49-8.89-.88a98.53,98.53,0,0,1-17.53-4,63.45,63.45,0,0,1-8.5-3.51,35.66,35.66,0,0,1-8-5.37A17.91,17.91,0,0,1,183.7,369a11.25,11.25,0,0,1-1.68-5.6,9.81,9.81,0,0,1,.42-2.94,17.75,17.75,0,0,1,.88-2.24c.63-1.35,1.23-2.54,1.63-3.66l0-.12a1.83,1.83,0,0,1,2.34-1.11,2.85,2.85,0,0,1,.3.16c.06-.49.13-1,.2-1.46A186.31,186.31,0,0,0,165,355.3Z" style="fill:#00aee0;"/><path d="M94.34,460.29c14.32,6.51,22.14,7.83,26.94,6.7,6.82-1.6,7.49-8.15,11.9-11.74a65.35,65.35,0,0,1,17.35-10.1l1.33-.49v0c14.77-8.79,8.35-86-7-83.62l-2,.72a7.33,7.33,0,0,0-.63.4l.21-.23c-2.92,1.13-5.81,2.34-8.67,3.69-24.58,11.6-45.24,31.67-55.72,56.95a23.37,23.37,0,0,1-2.28,4.62c-2.53,4.47-5.69,10.42-2.23,17.21C76.06,449.32,82.06,454.7,94.34,460.29ZM81.8,439.54a2,2,0,0,1-2.72-.78,14.16,14.16,0,0,1-1-2.14,2,2,0,1,1,3.79-1.29,10.09,10.09,0,0,0,.67,1.5A2,2,0,0,1,81.8,439.54Zm8.89,8.17a2,2,0,0,1-2.8.38c-1.16-.88-2.25-1.78-3.24-2.68a2,2,0,0,1,2.68-3c.91.82,1.91,1.64,3,2.45A2,2,0,0,1,90.69,447.71Zm10.47,6a2,2,0,0,1-1.79,1.11,2,2,0,0,1-.89-.21c-1.23-.61-2.46-1.27-3.65-1.95a2,2,0,0,1,2-3.47c1.12.64,2.28,1.26,3.45,1.84A2,2,0,0,1,101.16,453.71Zm11.38,4.05a2,2,0,0,1-2.47,1.38c-1.3-.36-2.63-.79-4-1.27a2,2,0,1,1,1.35-3.76c1.25.44,2.49.84,3.7,1.18A2,2,0,0,1,112.54,457.76Zm7.95,3c-.69,0-1.41,0-2.13-.1a2,2,0,0,1,.32-4c.63.05,1.26.08,1.86.09a2,2,0,0,1,0,4Z" style="fill:#00aee0;"/><path d="M393.53,241.5c-14.32-3.18-18,15.71-18.89,36.56-.17-.55-.33-1.1-.47-1.67-.2-.75-.36-1.51-.53-2.28a20.5,20.5,0,0,0-.48-2.17l-.8-2.12a4.67,4.67,0,0,0-8.41-.7,32.43,32.43,0,0,0-1.64,3l-.65,1.5-.55,1.53a31.94,31.94,0,0,0-1.47,6.46,29.37,29.37,0,0,0-.21,3.89h0c-.84,25.58,14.95,28.56,11.83,40.06a44.81,44.81,0,0,1-3.17,8.06,37.43,37.43,0,0,1-4.51,6.5c-.37.42-.73.84-1.1,1.24a29.37,29.37,0,0,1-4.16,3.61.91.91,0,0,1-.26,1,13.38,13.38,0,0,0-4.49,7.15l-.22,1-.09,1a10.22,10.22,0,0,0,0,2.07,21.41,21.41,0,0,0,.7,4.16,31,31,0,0,0,3.58,7.87,33.17,33.17,0,0,0,2.56,3.57c.43.6.93,1.13,1.41,1.69s1,1.09,1.51,1.6a37.71,37.71,0,0,0,6.77,5.48,26.87,26.87,0,0,0,7.74,3.44,17.69,17.69,0,0,0,8.25.2,21.63,21.63,0,0,0,7.94-3.82h0a.75.75,0,0,1,1.05.17.45.45,0,0,1,.06.12c.87-1,1.71-1.93,2.54-2.93a77,77,0,0,0,5.68-7.72,87.23,87.23,0,0,0,9.67-20.52,98,98,0,0,0,4.17-28.8v0C418.13,276.13,418.77,247.11,393.53,241.5Zm10.05,27.88c0-2.73.14-5.47.36-8.2a73.9,73.9,0,0,1,1-8.19.61.61,0,0,1,.72-.49.63.63,0,0,1,.49.49,73.9,73.9,0,0,1,1,8.19c.21,2.73.32,5.47.35,8.2s0,5.46-.23,8.19a49.31,49.31,0,0,1-1.26,8.2.51.51,0,0,1-.62.36.5.5,0,0,1-.37-.36,49.34,49.34,0,0,1-1.27-8.2C403.6,274.84,403.55,272.11,403.58,269.38Zm-12.8-3.48c0-1.59.06-3.19.13-4.78s.13-3.19.23-4.78c.22-3.19.5-6.38,1-9.57a.61.61,0,0,1,1.21,0c.53,3.19.81,6.38,1,9.57.1,1.59.19,3.18.23,4.78s.11,3.19.13,4.78c0,3.19,0,6.38-.24,9.57a66.79,66.79,0,0,1-1.26,9.56.51.51,0,0,1-1,0,68.27,68.27,0,0,1-1.27-9.56C390.8,272.28,390.75,269.09,390.78,265.9Z" style="fill:#ffb400;"/><path d="M392.28,285a.51.51,0,0,0,1,0,66.79,66.79,0,0,0,1.26-9.56c.22-3.19.27-6.38.24-9.57,0-1.59-.06-3.19-.13-4.78s-.13-3.19-.23-4.78c-.22-3.19-.5-6.38-1-9.57a.61.61,0,0,0-1.21,0c-.53,3.19-.81,6.38-1,9.57-.1,1.59-.19,3.18-.23,4.78s-.11,3.19-.13,4.78c0,3.19,0,6.38.23,9.57A68.27,68.27,0,0,0,392.28,285Z" style="fill:#04294f;"/><path d="M405.08,285.77a.5.5,0,0,0,.37.36.51.51,0,0,0,.62-.36,49.31,49.31,0,0,0,1.26-8.2c.22-2.73.27-5.46.23-8.19s-.14-5.47-.35-8.2a73.9,73.9,0,0,0-1-8.19.63.63,0,0,0-.49-.49.61.61,0,0,0-.72.49,73.9,73.9,0,0,0-1,8.19c-.22,2.73-.33,5.47-.36,8.2s0,5.46.23,8.19A49.34,49.34,0,0,0,405.08,285.77Z" style="fill:#04294f;"/><path d="M138.73,559.33c-1.79-1.78-3.57-3.46-5.24-5.23s-3.25-3.57-4.75-5.44-2.89-3.82-4.28-5.79-2.74-4-4.31-6.07h0a.49.49,0,0,0-.46-.2.51.51,0,0,0-.45.56,23.52,23.52,0,0,0,2.18,7.47,29.71,29.71,0,0,0,4.26,6.55,34.24,34.24,0,0,0,5.66,5.37,28.27,28.27,0,0,0,6.75,3.8.61.61,0,0,0,.66-.14.62.62,0,0,0,0-.87Z" style="fill:#04294f;"/><path d="M124.6,562.62c-1.63-1.53-3.19-3-4.62-4.57s-2.77-3.18-4-4.87-2.45-3.44-3.67-5.2-2.4-3.6-3.88-5.39h0a.52.52,0,0,0-.91.37,21.66,21.66,0,0,0,1.71,6.72,26.86,26.86,0,0,0,3.61,6,26.43,26.43,0,0,0,5,4.88,20,20,0,0,0,6.19,3.18.62.62,0,0,0,.6-1Z" style="fill:#04294f;"/><path d="M130.5,525.89a9.68,9.68,0,0,0,1.78,1.72,7.39,7.39,0,0,0,2.35,1.17.57.57,0,0,0,.29,0,.72.72,0,0,0,.62-.8v0a8.74,8.74,0,0,0-.71-2.43,13.1,13.1,0,0,0-1.12-2,8.26,8.26,0,0,0-1.47-1.71,7.16,7.16,0,0,0-2.2-1.32l0,0-.06,0a.65.65,0,0,0-.8.46,4.86,4.86,0,0,0,.13,2.8A7,7,0,0,0,130.5,525.89Z" style="fill:#04294f;"/><path d="M357.06,344.48h0a14.27,14.27,0,0,0-7,7.5,19.1,19.1,0,0,0-.91,10.48,30.4,30.4,0,0,0,3.52,9.67,41.08,41.08,0,0,0,2.75,4.29c.48.7,1,1.34,1.58,2s1.11,1.29,1.7,1.9a37.24,37.24,0,0,0,8,6.38,27.4,27.4,0,0,0,9.81,3.57A19.27,19.27,0,0,0,387,389a18.16,18.16,0,0,0,7.78-6.5.73.73,0,0,0,.05-.73.45.45,0,0,0-.06-.12.75.75,0,0,0-1.05-.17h0a21.63,21.63,0,0,1-7.94,3.82,17.69,17.69,0,0,1-8.25-.2,26.87,26.87,0,0,1-7.74-3.44,37.71,37.71,0,0,1-6.77-5.48c-.52-.51-1-1-1.51-1.6s-1-1.09-1.41-1.69a33.17,33.17,0,0,1-2.56-3.57,31,31,0,0,1-3.58-7.87,21.41,21.41,0,0,1-.7-4.16,10.22,10.22,0,0,1,0-2.07l.09-1,.22-1a13.38,13.38,0,0,1,4.49-7.15.91.91,0,0,0,.26-1,.38.38,0,0,0,0-.1A.91.91,0,0,0,357.06,344.48Z" style="fill:#04294f;"/><path d="M340.37,360a2,2,0,0,0,2-2c0-.62,0-1.25.06-1.86a2,2,0,1,0-4-.27c-.05.71-.07,1.43-.07,2.14a2,2,0,0,0,2,2Z" style="fill:#fff;"/><path d="M348.11,377a2,2,0,1,0-3.45,2c.73,1.25,1.53,2.49,2.37,3.7a2,2,0,0,0,3.28-2.3C349.53,379.31,348.79,378.16,348.11,377Z" style="fill:#fff;"/><path d="M344.63,369.67a38.51,38.51,0,0,1-1.2-3.84,2,2,0,1,0-3.88,1c.37,1.4.81,2.82,1.33,4.23a2,2,0,0,0,1.88,1.31,1.87,1.87,0,0,0,.69-.13A2,2,0,0,0,344.63,369.67Z" style="fill:#fff;"/><path d="M368.61,396a37.68,37.68,0,0,1-3.58-1.82,2,2,0,0,0-2,3.47,40,40,0,0,0,4,2,2,2,0,0,0,.81.17,2,2,0,0,0,.8-3.83Z" style="fill:#fff;"/><path d="M355.5,386.69a2,2,0,1,0-2.86,2.79c1,1.06,2.11,2.07,3.2,3a2,2,0,1,0,2.62-3C357.45,388.6,356.45,387.66,355.5,386.69Z" style="fill:#fff;"/><path d="M378.08,398.52c-.62,0-1.23-.14-1.85-.24a2,2,0,0,0-.64,4c.69.12,1.41.21,2.11.28h.2a2,2,0,0,0,.18-4Z" style="fill:#fff;"/><path d="M184.64,506.67a2,2,0,0,0,1.78,2.2l2,.19h.19a2,2,0,0,0,.18-4l-2-.19A2,2,0,0,0,184.64,506.67Z" style="fill:#fff;"/><path d="M225.7,505.84l-4.1.13a2,2,0,0,0,.05,4h0l4.15-.13a2,2,0,0,0-.15-4Z" style="fill:#fff;"/><path d="M201.07,505.87c-1.38-.05-2.75-.11-4.1-.19a2,2,0,1,0-.22,4c1.37.08,2.76.15,4.16.2H201a2,2,0,0,0,.08-4Z" style="fill:#fff;"/><path d="M277.08,502.45a2,2,0,0,0-2.31-1.63l-4.06.67a2,2,0,0,0,.31,4l.32,0,4.11-.68A2,2,0,0,0,277.08,502.45Z" style="fill:#fff;"/><path d="M238,505.17l-4.11.27a2,2,0,0,0,.11,4h.13l4.14-.27a2,2,0,1,0-.27-4Z" style="fill:#fff;"/><path d="M213.39,506.09h-.8l-3.32,0h0a2,2,0,0,0,0,4l3.36,0h.8a2,2,0,1,0,0-4Z" style="fill:#fff;"/><path d="M262.58,502.68l-4.08.52a2,2,0,0,0,.24,4l.25,0c1.38-.17,2.76-.34,4.12-.53a2,2,0,1,0-.53-4Z" style="fill:#fff;"/><path d="M250.32,504.12c-1.36.14-2.72.27-4.09.39a2,2,0,0,0,.18,4h.18l4.14-.4a2,2,0,0,0-.41-4Z" style="fill:#fff;"/><path d="M312.86,492.53a2,2,0,0,0-2.62-1c-1.16.49-2.42,1-3.75,1.48a2,2,0,0,0,.69,3.88,1.87,1.87,0,0,0,.69-.13c1.4-.51,2.73-1,3.94-1.56A2,2,0,0,0,312.86,492.53Z" style="fill:#fff;"/><path d="M286.85,498.46c-1.31.29-2.65.58-4,.85a2,2,0,0,0,.39,4,1.75,1.75,0,0,0,.4,0c1.39-.28,2.75-.56,4.08-.86a2,2,0,1,0-.86-3.91Z" style="fill:#fff;"/><path d="M298.76,495.47c-1.28.37-2.59.73-3.94,1.09a2,2,0,0,0,.5,3.93,1.79,1.79,0,0,0,.51-.07c1.39-.36,2.73-.73,4-1.11a2,2,0,0,0-1.11-3.84Z" style="fill:#fff;"/><path d="M318.58,486.72a17.77,17.77,0,0,1-1.43,1.09,2,2,0,1,0,2.28,3.29,20.87,20.87,0,0,0,1.74-1.33,2,2,0,0,0-2.59-3Z" style="fill:#fff;"/><path d="M316.1,417.44c-2.16.6-7.23-2-11.3-4.09-6.37-3.27-13.6-7-20.81-5.77-6.32,1.05-11.23,6.27-16,11.31-3.69,3.92-7.88,8.37-11.12,8.65-3,.28-7.67-3.27-11.84-6.39-5.67-4.24-11.52-8.62-18.17-8.62h-.08c-6.8,0-12.73,4.48-18.48,8.78-4.11,3.08-8.76,6.57-11.51,6.28-3.48-.36-7.54-5.23-11.11-9.53s-7.32-8.81-12-11c-.25,4.24-.68,8.43-1.32,12.46,1.6,1.59,3.29,3.61,4.87,5.51,4.91,5.91,10.48,12.61,18.41,13.43a14.21,14.21,0,0,0,1.45.07c6.42,0,12.17-4.31,17.75-8.48,4.12-3.08,8.79-6.58,12-6.6h0c3,0,7.58,3.42,11.61,6.44,6,4.5,12.26,9.15,19.35,8.54,7.41-.65,13.11-6.71,18.15-12.06,3.34-3.55,7.12-7.57,9.8-8,3.63-.6,9.15,2.22,14,4.72,6.36,3.25,12.93,6.62,19.2,4.9a22.55,22.55,0,0,0,11.81-8.29c-.45-6-1.21-12.25-2.24-18.46l-.82,1.74C324.94,409,321.74,415.88,316.1,417.44Z" style="fill:#fff;"/><path d="M81.91,435.33a2,2,0,1,0-3.79,1.29,14.16,14.16,0,0,0,1,2.14,2,2,0,0,0,2.72.78,2,2,0,0,0,.78-2.71A10.09,10.09,0,0,1,81.91,435.33Z" style="fill:#fff;"/><path d="M111.15,455.29c-1.21-.34-2.45-.74-3.7-1.18a2,2,0,1,0-1.35,3.76c1.34.48,2.67.91,4,1.27a2,2,0,1,0,1.08-3.85Z" style="fill:#fff;"/><path d="M100.27,451c-1.17-.58-2.33-1.2-3.45-1.84a2,2,0,0,0-2,3.47c1.19.68,2.42,1.34,3.65,1.95a2,2,0,0,0,.89.21,2,2,0,0,0,1.79-1.11A2,2,0,0,0,100.27,451Z" style="fill:#fff;"/><path d="M90.31,444.9c-1.07-.81-2.07-1.63-3-2.45a2,2,0,0,0-2.68,3c1,.9,2.08,1.8,3.24,2.68a2,2,0,0,0,2.42-3.19Z" style="fill:#fff;"/><path d="M122.52,458.82a2,2,0,0,0-2-2c-.6,0-1.23,0-1.86-.09a2,2,0,0,0-.32,4c.72.06,1.44.09,2.13.1h0A2,2,0,0,0,122.52,458.82Z" style="fill:#fff;"/><path d="M213.11,265.34C195,262,184.73,268.41,187.68,290.6c4,29.92,1.51,48.55,1.51,48.55h0q-.47,6.12-1.36,12.84c-.07.49-.14,1-.2,1.46a1.85,1.85,0,0,1,.92,1.6,30.66,30.66,0,0,1-.63,4.59c-.1.67-.24,1.34-.26,1.88a4.25,4.25,0,0,0,.15,1.31c.45,1.59,1.94,3.08,3.93,4.36a32.72,32.72,0,0,0,6.81,3.13,70.31,70.31,0,0,0,7.67,2.1,119.28,119.28,0,0,0,16.1,2.25q4.08.33,8.18.41t8.2,0q4.1-.09,8.18-.43c2.71-.2,5.42-.49,8.12-.84a137.61,137.61,0,0,0,16-3c10.48-2.62,20.51-6.61,29.41-13.46h0a1.5,1.5,0,0,1,.77-.3,12.27,12.27,0,0,0,.93-3.31q1.41-11.08,2-21c2.4-37.9-3-63.35-7.87-77.78a80.1,80.1,0,0,1-7.35,3.44C265.74,267.86,231.2,268.72,213.11,265.34Zm10.78,14a16.84,16.84,0,1,1-16.83,16.84A16.84,16.84,0,0,1,223.89,279.34Zm-18.28,37.19a8.7,8.7,0,1,1-8.69,8.7A8.7,8.7,0,0,1,205.61,316.53ZM268.34,330a9.74,9.74,0,0,1-14.33,3,8.77,8.77,0,0,1-3.47-5.51,3.59,3.59,0,0,1,2.94-4.12,3.79,3.79,0,0,1,1.47.06l1,.26a11,11,0,0,0,3,.53,1.35,1.35,0,0,0,.75-.19s.05.05.18,0a.47.47,0,0,0,.26,0,.86.86,0,0,0,.38-.1,11.18,11.18,0,0,0,2.63-1.67l.74-.57a3.45,3.45,0,0,1,4.84.65,3.35,3.35,0,0,1,.61,1.26A8.75,8.75,0,0,1,268.34,330Zm33.14-17a6.85,6.85,0,1,1-6.85-6.85A6.84,6.84,0,0,1,301.48,313Zm-4.05-26.12a16.84,16.84,0,1,1-16.83-16.84A16.83,16.83,0,0,1,297.43,286.9Z" style="fill:#ffb400;"/><path d="M174.58,327c2.77,4.61,7.22,8.73,14.61,12.18h0s2.48-18.63-1.51-48.55c-3-22.19,7.34-28.64,25.43-25.26s52.63,2.52,75.76-6.93a80.1,80.1,0,0,0,7.35-3.44c37.9-20.26,23.59-56.77,23.59-56.77-7,4.81-12.2,5.76-12.2,5.76,1.2-9.86-1.69-19.72-1.69-19.72s-13,11.13-41.83,23.8q-4.33,1.88-8.29,3.31a35,35,0,0,0,1.69-16.73s-19.77,22.71-55.78,22h-1.4c-13.32.09-23.42,4-28.84,9.88a3.28,3.28,0,0,1-4.43.33,22,22,0,0,0-2.39-1.64,24,24,0,0,0-13.48-3.86,2.3,2.3,0,0,0-.68.11,2.44,2.44,0,0,0-1.56,3.07l.08.25a38.69,38.69,0,0,0,2.81,6c1,1.82,2,3.37,3,5,.24.36.48.72.73,1.07a2,2,0,0,1-1.43,3.12,24.58,24.58,0,0,0-6.9,1.71,1.6,1.6,0,0,0-.71.56,1.68,1.68,0,0,0,.35,2.36l.14.11a45.72,45.72,0,0,0,5.48,3.2c1.77,1,3.52,1.72,5.21,2.59h0a4.26,4.26,0,0,1,2.29,5.2c-1.7,5.43-1.53,13.13,3.88,23.66,5,9.71,5.26,19.43,6,28.44a70.47,70.47,0,0,0,1.5,10.83A29.08,29.08,0,0,0,174.58,327ZM274.77,214h0c3.26-1.15,6.53-2.21,9.67-3.42a48.93,48.93,0,0,0,4.52-2,14,14,0,0,0,3.66-2.49l0,0a2,2,0,0,1,2.8-.11,2,2,0,0,1,.64,1.48,15.2,15.2,0,0,1-.24,2.46,21.42,21.42,0,0,1-.55,2.3,17.24,17.24,0,0,1-2,4.27,18.53,18.53,0,0,1-1.38,1.91,19.75,19.75,0,0,1-1.66,1.64,13.81,13.81,0,0,1-3.92,2.35.52.52,0,0,1-.66-.28.51.51,0,0,1,.09-.52l0,0a27.23,27.23,0,0,0,2.62-3.2,18.6,18.6,0,0,0,1.91-3.46,24.3,24.3,0,0,0,1.07-3.22l-.81.38a32.19,32.19,0,0,1-5.15,1.74,47.16,47.16,0,0,1-5.22,1,40.38,40.38,0,0,1-5.28.38.61.61,0,0,1-.2-1.19Zm-18.59,13.51a.5.5,0,0,1,.56-.3h0a24.54,24.54,0,0,0,4.27.44c1.44,0,2.88,0,4.32-.14s2.88-.28,4.3-.5,2.88-.47,4.23-.76A1.6,1.6,0,0,1,275.3,229l-.06.05c-2.29,2.1-4.57,4.13-6.9,6.14l-4.16,3.59a29.08,29.08,0,0,0,3.13.38,56.6,56.6,0,0,0,6.9.08c2.32-.11,4.65-.36,7-.64s4.68-.65,6.92-1.1l.09,0a1.81,1.81,0,0,1,1.63,3.07c-1.46,1.42-3,2.78-4.58,4.05a55.92,55.92,0,0,1-4.94,3.58,57.48,57.48,0,0,1-5.26,3.05,40.83,40.83,0,0,1-5.61,2.37.62.62,0,0,1-.77-.39.6.6,0,0,1,.29-.72l0,0a57.17,57.17,0,0,0,5-3.09c1.62-1.09,3.19-2.27,4.72-3.47s2.91-2.42,4.3-3.7l-1.26.22c-2.41.37-4.85.61-7.3.75a52.83,52.83,0,0,1-7.44,0,27.88,27.88,0,0,1-7.54-1.61h0a1.92,1.92,0,0,1-1.12-2.47,1.88,1.88,0,0,1,.59-.81l10.24-8.35c-1.25,0-2.5.07-3.76,0a36.42,36.42,0,0,1-4.53-.47,20.73,20.73,0,0,1-4.41-1.26A.48.48,0,0,1,256.18,227.47ZM209.31,243.4c1-.62,2.06-1.15,3.08-1.7l3-1.62a46.32,46.32,0,0,0,5.54-3.5h0a2,2,0,0,1,2.77.34,2.08,2.08,0,0,1,.4,1,13.83,13.83,0,0,1,.1,2.45,15.1,15.1,0,0,1-.25,2.32,15.26,15.26,0,0,1-1.5,4.43,14,14,0,0,1-1.26,2,17.11,17.11,0,0,1-1.58,1.71,12,12,0,0,1-3.85,2.33.5.5,0,0,1-.54-.82h0a22.16,22.16,0,0,0,2.48-3.14,16.55,16.55,0,0,0,1.61-3.41,18.09,18.09,0,0,0,.79-3.63c0-.11,0-.23,0-.34h0a23.29,23.29,0,0,1-3.41,1.4,26.62,26.62,0,0,1-3.5,1,23.83,23.83,0,0,1-3.59.47.63.63,0,0,1-.65-.6A.62.62,0,0,1,209.31,243.4Z" style="fill:#ff3a00;"/><path d="M263.76,286.9a16.84,16.84,0,1,0,16.84-16.84A16.84,16.84,0,0,0,263.76,286.9Zm24.09,10.88a2.29,2.29,0,0,1-1.59.66,2.25,2.25,0,0,1-2.26-2.27,2.27,2.27,0,0,1,.66-1.59,2.29,2.29,0,0,1,2-.62,3.38,3.38,0,0,1,.42.13,2,2,0,0,1,.73.49,2.28,2.28,0,0,1,.67,1.59A2.3,2.3,0,0,1,287.85,297.78Zm-1.12-17.23a5.71,5.71,0,0,1,.88-.47,6.49,6.49,0,0,1,.95-.29,5.49,5.49,0,0,1,2,0,6.49,6.49,0,0,1,.95.29,5.71,5.71,0,0,1,.88.47,5.25,5.25,0,0,1,.78.63,5.18,5.18,0,0,1,.62.78,4.64,4.64,0,0,1,.47.88,5.11,5.11,0,0,1,.29.94,4.71,4.71,0,0,1,.1,1,5.17,5.17,0,0,1-1.48,3.59,5.9,5.9,0,0,1-.78.62,5.76,5.76,0,0,1-.88.48,6.49,6.49,0,0,1-.95.29,5,5,0,0,1-2,0,6.49,6.49,0,0,1-.95-.29,5.76,5.76,0,0,1-.88-.48,6.63,6.63,0,0,1-.78-.62,5.16,5.16,0,0,1-1.47-3.59,5.47,5.47,0,0,1,.1-1,4.45,4.45,0,0,1,.29-.94,4.09,4.09,0,0,1,.46-.88,8.17,8.17,0,0,1,.62-.78A5.81,5.81,0,0,1,286.73,280.55ZM282.48,273a1.87,1.87,0,0,1,1.66-.5,2.24,2.24,0,0,1,.34.11,1.91,1.91,0,0,1,.32.16,3.23,3.23,0,0,1,.27.23,1.83,1.83,0,1,1-2.59,2.59,1.85,1.85,0,0,1,0-2.59Zm-.82,9.34a2.43,2.43,0,1,1-4.86,0,2.44,2.44,0,0,1,.7-1.71,2.47,2.47,0,0,1,2.2-.67,2.35,2.35,0,0,1,.45.14,3.48,3.48,0,0,1,.43.22,3.65,3.65,0,0,1,.36.31A2.46,2.46,0,0,1,281.66,282.34Z" style="fill:#04294f;"/><path d="M284.87,282.84a4.45,4.45,0,0,0-.29.94,5.47,5.47,0,0,0-.1,1,5.16,5.16,0,0,0,1.47,3.59,6.63,6.63,0,0,0,.78.62,5.76,5.76,0,0,0,.88.48,6.49,6.49,0,0,0,.95.29,5,5,0,0,0,2,0,6.49,6.49,0,0,0,.95-.29,5.76,5.76,0,0,0,.88-.48,5.9,5.9,0,0,0,.78-.62,5.17,5.17,0,0,0,1.48-3.59,4.71,4.71,0,0,0-.1-1,5.11,5.11,0,0,0-.29-.94,4.64,4.64,0,0,0-.47-.88,5.18,5.18,0,0,0-.62-.78,5.25,5.25,0,0,0-.78-.63,5.71,5.71,0,0,0-.88-.47,6.49,6.49,0,0,0-.95-.29,5.49,5.49,0,0,0-2,0,6.49,6.49,0,0,0-.95.29,5.71,5.71,0,0,0-.88.47,5.81,5.81,0,0,0-.78.63,8.17,8.17,0,0,0-.62.78A4.09,4.09,0,0,0,284.87,282.84Z" style="fill:#fff;"/><path d="M283.78,276.13a1.83,1.83,0,0,0,1.29-3.13,3.23,3.23,0,0,0-.27-.23,1.91,1.91,0,0,0-.32-.16,2.24,2.24,0,0,0-.34-.11,1.87,1.87,0,0,0-1.66.5,1.85,1.85,0,0,0,0,2.59A1.87,1.87,0,0,0,283.78,276.13Z" style="fill:#fff;"/><path d="M280.15,280.1a2.35,2.35,0,0,0-.45-.14,2.47,2.47,0,0,0-2.2.67,2.45,2.45,0,0,0,0,3.43,2.43,2.43,0,1,0,3.44-3.43,3.65,3.65,0,0,0-.36-.31A3.48,3.48,0,0,0,280.15,280.1Z" style="fill:#fff;"/><path d="M287.52,294.3a3,3,0,0,0-.4-.21,3.38,3.38,0,0,0-.42-.13,2.29,2.29,0,0,0-2,.62,2.27,2.27,0,0,0-.66,1.59,2.26,2.26,0,1,0,3.85-1.59A3,3,0,0,0,287.52,294.3Z" style="fill:#fff;"/><path d="M223.89,313a16.84,16.84,0,1,0-16.83-16.84A16.84,16.84,0,0,0,223.89,313Zm7.26-6a2.25,2.25,0,0,1-3.85-1.61,2.25,2.25,0,0,1,2.7-2.21,4,4,0,0,1,.42.13,2.93,2.93,0,0,1,.39.21,2.42,2.42,0,0,1,.34.28,2.28,2.28,0,0,1,.67,1.59A2.3,2.3,0,0,1,231.15,307.06ZM230,289.83a5.28,5.28,0,0,1,.88-.47,5.82,5.82,0,0,1,1-.29,5.49,5.49,0,0,1,2,0,6,6,0,0,1,.94.29,5.28,5.28,0,0,1,.88.47,4.78,4.78,0,0,1,.78.63,5.3,5.3,0,0,1,1.1,1.66,6,6,0,0,1,.29.94,4.71,4.71,0,0,1,.1,1,5.13,5.13,0,0,1-1.49,3.59,5.81,5.81,0,0,1-1.66,1.1,6,6,0,0,1-.94.29,5.54,5.54,0,0,1-1,.1,5.45,5.45,0,0,1-1-.1,5.82,5.82,0,0,1-1-.29,5.32,5.32,0,0,1-.88-.48,6.63,6.63,0,0,1-.78-.62,5.16,5.16,0,0,1-1.47-3.59,4.71,4.71,0,0,1,.1-1,3.53,3.53,0,0,1,.29-.94,4.56,4.56,0,0,1,.45-.88,6.92,6.92,0,0,1,.63-.78A5.81,5.81,0,0,1,230,289.83Zm-4.25-7.55a1.86,1.86,0,0,1,1.65-.5,1.5,1.5,0,0,1,.34.11,1.91,1.91,0,0,1,.32.16,3.45,3.45,0,0,1,.28.23,1.83,1.83,0,1,1-2.59,0Zm-5,7.63a2.47,2.47,0,0,1,2.2-.67,2.89,2.89,0,0,1,.45.14,3.36,3.36,0,0,1,.42.22,3.79,3.79,0,0,1,.37.31,2.44,2.44,0,0,1-1.72,4.15,2.43,2.43,0,0,1-1.72-4.15Z" style="fill:#04294f;"/><path d="M228.17,292.12a3.53,3.53,0,0,0-.29.94,4.71,4.71,0,0,0-.1,1,5.16,5.16,0,0,0,1.47,3.59,6.63,6.63,0,0,0,.78.62,5.32,5.32,0,0,0,.88.48,5.82,5.82,0,0,0,1,.29,5.45,5.45,0,0,0,1,.1,5.54,5.54,0,0,0,1-.1,6,6,0,0,0,.94-.29,5.81,5.81,0,0,0,1.66-1.1,5.13,5.13,0,0,0,1.49-3.59,4.71,4.71,0,0,0-.1-1,6,6,0,0,0-.29-.94,5.3,5.3,0,0,0-1.1-1.66,4.78,4.78,0,0,0-.78-.63,5.28,5.28,0,0,0-.88-.47,6,6,0,0,0-.94-.29,5.49,5.49,0,0,0-2,0,5.82,5.82,0,0,0-1,.29,5.28,5.28,0,0,0-.88.47,5.81,5.81,0,0,0-.78.63,6.92,6.92,0,0,0-.63.78A4.56,4.56,0,0,0,228.17,292.12Z" style="fill:#fff;"/><path d="M227.08,285.41a1.83,1.83,0,0,0,1.29-3.13,3.45,3.45,0,0,0-.28-.23,1.91,1.91,0,0,0-.32-.16,1.5,1.5,0,0,0-.34-.11,1.86,1.86,0,0,0-1.65.5,1.84,1.84,0,0,0,1.3,3.13Z" style="fill:#fff;"/><path d="M222.52,294.06a2.43,2.43,0,0,0,1.72-4.15,3.79,3.79,0,0,0-.37-.31,3.36,3.36,0,0,0-.42-.22,2.89,2.89,0,0,0-.45-.14,2.47,2.47,0,0,0-2.2.67,2.44,2.44,0,0,0,1.72,4.15Z" style="fill:#fff;"/><path d="M230.81,303.58a2.93,2.93,0,0,0-.39-.21,4,4,0,0,0-.42-.13,2.25,2.25,0,0,0-2.7,2.21,2.26,2.26,0,0,0,3.85,1.61,2.3,2.3,0,0,0,.67-1.61,2.28,2.28,0,0,0-.67-1.59A2.42,2.42,0,0,0,230.81,303.58Z" style="fill:#fff;"/><circle cx="205.61" cy="325.23" r="8.69" style="fill:#ff3a00;"/><circle cx="294.63" cy="313.02" r="6.85" style="fill:#ff3a00;"/><path d="M269.32,323.56a3.35,3.35,0,0,0-.61-1.26,3.45,3.45,0,0,0-4.84-.65l-.74.57a11.18,11.18,0,0,1-2.63,1.67.86.86,0,0,1-.38.1.47.47,0,0,1-.26,0c-.13,0-.17-.07-.18,0a1.35,1.35,0,0,1-.75.19,11,11,0,0,1-3-.53l-1-.26a3.79,3.79,0,0,0-1.47-.06,3.59,3.59,0,0,0-2.94,4.12,8.77,8.77,0,0,0,3.47,5.51,9.74,9.74,0,0,0,14.33-3A8.75,8.75,0,0,0,269.32,323.56Z" style="fill:#04294f;"/><path d="M329.52,354.68c.73-.18,1.47-.36,2.2-.57.44-.12.85-.26,1.27-.4,1-7.17-2.14-12.66-10.83-15.74a175.28,175.28,0,0,0-18.07-5.22q-.61,9.93-2,21a12.27,12.27,0,0,1-.93,3.31,1.5,1.5,0,0,0-.77.3h0c-8.9,6.85-18.93,10.84-29.41,13.46a137.61,137.61,0,0,1-16,3c-2.7.35-5.41.64-8.12.84s-5.45.37-8.18.43-5.46.09-8.2,0-5.46-.19-8.18-.41a119.28,119.28,0,0,1-16.1-2.25,70.31,70.31,0,0,1-7.67-2.1,32.72,32.72,0,0,1-6.81-3.13c-2-1.28-3.48-2.77-3.93-4.36a4.25,4.25,0,0,1-.15-1.31c0-.54.16-1.21.26-1.88a30.66,30.66,0,0,0,.63-4.59,1.85,1.85,0,0,0-.92-1.6,2.85,2.85,0,0,0-.3-.16A1.83,1.83,0,0,0,185,354.4l0,.12c-.4,1.12-1,2.31-1.63,3.66a17.75,17.75,0,0,0-.88,2.24,9.81,9.81,0,0,0-.42,2.94,11.25,11.25,0,0,0,1.68,5.6,17.91,17.91,0,0,0,3.38,4.07,35.66,35.66,0,0,0,8,5.37,63.45,63.45,0,0,0,8.5,3.51,98.53,98.53,0,0,0,17.53,4q4.44.58,8.89.88c3,.16,5.95.24,8.93.22a103.51,103.51,0,0,0,35.21-6.11,69.08,69.08,0,0,0,16.06-8.45,44.41,44.41,0,0,0,12.4-13.12,1.5,1.5,0,0,0-.1-1.69,1.79,1.79,0,0,0-.28-.27c1.38,0,2.76,0,4.14,0h0a58.8,58.8,0,0,0,6.88-.2c6.22,5.38,12.08,24.31,15.35,44.09,1,6.21,1.79,12.48,2.24,18.46a138.15,138.15,0,0,1,.38,14.83c.28,3.15.49,6.43.64,9.78h0c6.63-2.26,9.13-9.55,9.41-11.57h0C344.11,406.08,337.6,369.33,329.52,354.68Z" style="fill:#04294f;"/><path d="M336.08,620.56c.95-1.8-6.77-7.74-17.24-13.27s-19.72-8.56-20.67-6.76v-.06c-.34,1.08-.7,2.13-1.06,3.19-.64,1.87-1.31,3.73-2,5.54-.22.57-.46,1.12-.69,1.67l.26.07c3.76,1.34,9.55,4,18.37,9.26,8.09,4.81,12.94,8.61,15.85,11.45a2.6,2.6,0,0,1,.38.51c.87-1.32,1.73-2.66,2.54-4,.91-1.52,1.78-3.06,2.64-4.6.56-1,1.11-2,1.64-3Z" style="fill:#ffb400;"/><path d="M313,620.2c-8.82-5.25-14.61-7.92-18.37-9.26l-.26-.07a1.74,1.74,0,0,0-1.92,1c-1,2.34-2.12,4.57-3.27,6.75a5.37,5.37,0,0,1,1,.13c3,.74,8.62,2.91,18.8,9,9.73,5.79,14.15,9.91,16.16,12.52,1.4-1.89,2.76-3.78,4-5.7a2.28,2.28,0,0,0,.07-2.4,2.6,2.6,0,0,0-.38-.51C326,628.81,321.11,625,313,620.2Z" style="fill:#fff;"/><path d="M309,627.74c-10.18-6.06-15.8-8.23-18.8-9a5.5,5.5,0,0,0-4.87,1.26c-1,.91-1.95,1.86-2.87,2.82-1.44,1.49-2.79,3-4.11,4.62s-2.56,3.19-3.72,4.86c-.55.76-1.27,1.91-1.9,2.94a3,3,0,0,0,.66,3.88c6.23,5.06,26.38,20.65,51.29,32.09,0,0,2.25,1,4.21-2.23,1.51-2.46,2.39-3.77-.06-9.72a.63.63,0,0,1-.22-.07l0,0c-1.53-.91-3-1.88-4.46-2.79s-2.89-1.84-4.34-2.73-2.89-1.78-4.34-2.71a40.77,40.77,0,0,1-4.3-3.17v0a.51.51,0,0,1,0-.74.57.57,0,0,1,.37-.18,15.32,15.32,0,0,1,5.53.95,21.58,21.58,0,0,1,5,2.52,25.48,25.48,0,0,1,4.27,3.55l.31.35c-.56-1.14-1.19-2.38-1.9-3.74h0c.1-.26.21-.5.3-.76.22-.56.42-1.12.62-1.68-1.41-.86-2.78-1.75-4.14-2.59s-2.89-1.85-4.34-2.74-2.89-1.78-4.34-2.71a38.48,38.48,0,0,1-4.3-3.17h0a.53.53,0,0,1,0-.75.5.5,0,0,1,.37-.17,15.1,15.1,0,0,1,5.53.94,21.82,21.82,0,0,1,4.95,2.53,26.31,26.31,0,0,1,4.27,3.55,21.06,21.06,0,0,1,2.64,3.35l.24-.75a5.37,5.37,0,0,0-.64-4.52c-.16-.24-.34-.49-.55-.75C323.13,637.65,318.71,633.53,309,627.74Zm-15.42,8.44c-2.48,3.72-6.75,5.23-9.56,3.37s-3.08-6.39-.6-10.11,6.74-5.24,9.55-3.37S296,632.46,293.56,636.18Z" style="fill:#ff3a00;"/><path d="M319.18,639.38a21.82,21.82,0,0,0-4.95-2.53,15.1,15.1,0,0,0-5.53-.94.5.5,0,0,0-.37.17.53.53,0,0,0,0,.75h0a38.48,38.48,0,0,0,4.3,3.17c1.45.93,2.89,1.83,4.34,2.71s2.89,1.81,4.34,2.74,2.73,1.73,4.14,2.59l.31.19.05,0a.63.63,0,0,0,.88-.81c-.2-.41-.42-.8-.65-1.18a21.06,21.06,0,0,0-2.64-3.35A26.31,26.31,0,0,0,319.18,639.38Z" style="fill:#04294f;"/><path d="M321.91,650.33a21.58,21.58,0,0,0-5-2.52,15.32,15.32,0,0,0-5.53-.95.57.57,0,0,0-.37.18.51.51,0,0,0,0,.74v0a40.77,40.77,0,0,0,4.3,3.17c1.45.93,2.89,1.83,4.34,2.71s2.89,1.81,4.34,2.73,2.93,1.88,4.46,2.79l0,0a.63.63,0,0,0,.22.07.6.6,0,0,0,.37,0,.63.63,0,0,0,.29-.84,17.71,17.71,0,0,0-3-4.18l-.31-.35A25.48,25.48,0,0,0,321.91,650.33Z" style="fill:#04294f;"/><ellipse cx="288.48" cy="632.81" rx="8.09" ry="6.1" transform="matrix(0.55, -0.83, 0.83, 0.55, -398.31, 523.3)" style="fill:#fff;"/><path d="M74.59,583.48c-3.9-.4-7.31,1.64-7.61,4.58s2.6,5.65,6.49,6.05,7.31-1.64,7.62-4.57S78.48,583.89,74.59,583.48Z" style="fill:#fff;"/><path d="M270.12,533.32a20.05,20.05,0,0,0,9.1,2.79A8.26,8.26,0,0,0,285,534a5.82,5.82,0,0,0,1.51-7.13c-2.08-4.06-10-7.63-25.53-4.46-14.06-.51-23.66,2.68-25.68,8.53a6.27,6.27,0,0,0,2.56,7.25,8.52,8.52,0,0,0,5.14,1.69c5.94,0,12.22-5.65,16.07-9.84,0,.18,0,.37,0,.55a40,40,0,0,1-.95,6,24,24,0,0,1-2,5.56,13.52,13.52,0,0,1-3.64,4.44l0,0a1.16,1.16,0,0,0,1.29,1.92,15,15,0,0,0,5-4.82,19.51,19.51,0,0,0,1.64-3,24.22,24.22,0,0,0,1.19-3.17,37.07,37.07,0,0,0,1.35-6.54c.08-.65.14-1.3.19-2,.24.28.47.57.7.86a26.29,26.29,0,0,1,2.88,4.74,27.56,27.56,0,0,1,1.92,5.26,36.33,36.33,0,0,1,1,5.64h0a1.21,1.21,0,0,0,2.41,0,28.15,28.15,0,0,0-.19-6.28A27.18,27.18,0,0,0,270.12,533.32Zm-29.93,1.59a2.34,2.34,0,0,1-1.12-2.7c.72-2.07,5.4-5.69,17.92-5.88C252.54,531.39,244.85,538.29,240.19,534.91ZM283,528.66a1.86,1.86,0,0,1-.67,2.35c-3.57,3.29-11.55-1.54-16.56-5.41C276.35,524.12,281.82,526.46,283,528.66Z" style="fill:#ffb400;"/><path d="M275,215.15a40.38,40.38,0,0,0,5.28-.38,47.16,47.16,0,0,0,5.22-1,32.19,32.19,0,0,0,5.15-1.74l.81-.38a24.3,24.3,0,0,1-1.07,3.22,18.6,18.6,0,0,1-1.91,3.46,27.23,27.23,0,0,1-2.62,3.2l0,0a.51.51,0,0,0-.09.52.52.52,0,0,0,.66.28,13.81,13.81,0,0,0,3.92-2.35,19.75,19.75,0,0,0,1.66-1.64,18.53,18.53,0,0,0,1.38-1.91,17.24,17.24,0,0,0,2-4.27,21.42,21.42,0,0,0,.55-2.3,15.2,15.2,0,0,0,.24-2.46,2,2,0,0,0-.64-1.48,2,2,0,0,0-2.8.11l0,0a14,14,0,0,1-3.66,2.49,48.93,48.93,0,0,1-4.52,2c-3.14,1.21-6.41,2.27-9.67,3.42h0a.61.61,0,0,0,.2,1.19Z" style="fill:#04294f;"/><path d="M209.65,244.56a23.83,23.83,0,0,0,3.59-.47,26.62,26.62,0,0,0,3.5-1,23.29,23.29,0,0,0,3.41-1.4h0c0,.11,0,.23,0,.34a18.09,18.09,0,0,1-.79,3.63,16.55,16.55,0,0,1-1.61,3.41,22.16,22.16,0,0,1-2.48,3.14h0a.5.5,0,0,0,.54.82,12,12,0,0,0,3.85-2.33,17.11,17.11,0,0,0,1.58-1.71,14,14,0,0,0,1.26-2,15.26,15.26,0,0,0,1.5-4.43,15.1,15.1,0,0,0,.25-2.32,13.83,13.83,0,0,0-.1-2.45,2.08,2.08,0,0,0-.4-1,2,2,0,0,0-2.77-.34h0a46.32,46.32,0,0,1-5.54,3.5l-3,1.62c-1,.55-2.06,1.08-3.08,1.7a.62.62,0,0,0-.31.56A.63.63,0,0,0,209.65,244.56Z" style="fill:#04294f;"/><path d="M256.44,228.11a20.73,20.73,0,0,0,4.41,1.26,36.42,36.42,0,0,0,4.53.47c1.26.06,2.51,0,3.76,0l-10.24,8.35a1.88,1.88,0,0,0-.59.81,1.92,1.92,0,0,0,1.12,2.47h0a27.88,27.88,0,0,0,7.54,1.61,52.83,52.83,0,0,0,7.44,0c2.45-.14,4.89-.38,7.3-.75l1.26-.22c-1.39,1.28-2.83,2.51-4.3,3.7s-3.1,2.38-4.72,3.47a57.17,57.17,0,0,1-5,3.09l0,0a.6.6,0,0,0-.29.72.62.62,0,0,0,.77.39,40.83,40.83,0,0,0,5.61-2.37,57.48,57.48,0,0,0,5.26-3.05,55.92,55.92,0,0,0,4.94-3.58c1.59-1.27,3.12-2.63,4.58-4.05a1.81,1.81,0,0,0-1.63-3.07l-.09,0c-2.24.45-4.6.82-6.92,1.1s-4.66.53-7,.64a56.6,56.6,0,0,1-6.9-.08,29.08,29.08,0,0,1-3.13-.38l4.16-3.59c2.33-2,4.61-4,6.9-6.14l.06-.05a1.6,1.6,0,0,0-1.43-2.73c-1.35.29-2.81.54-4.23.76s-2.86.38-4.3.5-2.88.16-4.32.14a24.54,24.54,0,0,1-4.27-.44h0a.5.5,0,0,0-.56.3A.48.48,0,0,0,256.44,228.11Z" style="fill:#04294f;"/><path d="M83,388.68a9.64,9.64,0,0,0,1.29.94,12.59,12.59,0,0,0,2.82,1.3,14.46,14.46,0,0,0,3,.65,11.08,11.08,0,0,0,3-.05,1.25,1.25,0,0,0,.89-.63,1.26,1.26,0,0,0-.48-1.73l0,0a17.28,17.28,0,0,0-2.6-1.14c-.85-.34-1.71-.6-2.56-.88l-2.53-.77L84.6,386a11.28,11.28,0,0,0-1.2-.31l-.54-.05a1.15,1.15,0,0,0-.75.21,1.12,1.12,0,0,0-.26,1.56A7.18,7.18,0,0,0,83,388.68Z" style="fill:#00aee0;"/><path d="M665,546.64l-1.28-.42,0,.09,1.18.39Z" style="fill:none;"/><path d="M587.73,207.28a4.15,4.15,0,0,0,.2.53c-.18-.6-.37-1.18-.58-1.73C587.49,206.47,587.62,206.87,587.73,207.28Z" style="fill:none;"/><path d="M662.75,332.09c-4-6.68-12.26-11.72-22.24-13.34a28.75,28.75,0,0,1-3.32,8.31A236.84,236.84,0,0,1,662.75,332.09Z" style="fill:none;"/><path d="M640.51,318.75c10,1.62,18.21,6.66,22.24,13.34a236.84,236.84,0,0,0-25.56-5c-2.76,4.58-7.21,8.66-14.56,12.09q.48,6.12,1.37,12.84a186.31,186.31,0,0,1,22.85,3.31c-12.25,12.76-14.86,88.16,10.5,96.64h0c-.53,4.34-1,8.84-1.33,13.42h0a26.24,26.24,0,0,1,3.36.24s13.08,2.32,34.44,9.31c0-.14-.07-.28-.11-.42a30.39,30.39,0,0,0-2.36-5.75h0a17.05,17.05,0,0,1-.82-1.74,9.86,9.86,0,0,1-3.74-1.71,16.18,16.18,0,0,1-3.83-4.46v0a22.26,22.26,0,0,0-4.34-5.55,65.51,65.51,0,0,0-17.35-10.1l-.84-.3h0l-.52-.19v0a10.37,10.37,0,0,1-3.61-4.14l0,0c-3.7-6.91-5.09-20.11-4.65-33.82l0,0c.09-3,.28-6.05.55-9l0,0C654,377.89,659.43,359.83,667,361l2,.72c.21.12.41.25.63.4l-.22-.23c2.93,1.13,5.82,2.34,8.67,3.69,24.59,11.6,45.24,31.67,55.72,56.95a18.23,18.23,0,0,0,1.69,3.57,160.77,160.77,0,0,0-1.73-33.38c-4.38-28.42-27.24-46.34-57.88-56.76C673,321.92,659.41,310.7,642,307.9A69.51,69.51,0,0,1,640.51,318.75Zm89.24,69.61a1.12,1.12,0,0,1,1,1.76,7.3,7.3,0,0,1-1.19,1.3,9.64,9.64,0,0,1-1.29.94,12.59,12.59,0,0,1-2.82,1.3,14.46,14.46,0,0,1-3,.65,11.08,11.08,0,0,1-3-.05,1.27,1.27,0,0,1-1-1.46,1.24,1.24,0,0,1,.62-.9l0,0a16.32,16.32,0,0,1,2.6-1.14c.85-.34,1.71-.61,2.56-.89l2.53-.76,1.25-.38c.41-.09.87-.27,1.2-.3Z" style="fill:#00aee0;"/><path d="M652.24,465.76l.54-.12Z" style="fill:#00aee0;"/><path d="M653.38,465.53l.61-.08Z" style="fill:#00aee0;"/><path d="M651.21,466.09l.49-.17Z" style="fill:#00aee0;"/><path d="M654.64,465.39c.23,0,.47,0,.71,0C655.11,465.37,654.87,465.37,654.64,465.39Z" style="fill:#00aee0;"/><path d="M645.14,473.77c-.14.38-.27.76-.4,1.16h0C644.87,474.53,645,474.15,645.14,473.77Z" style="fill:#00aee0;"/><path d="M650.28,466.51l.44-.22Z" style="fill:#00aee0;"/><path d="M646.17,471.22l.26-.53Z" style="fill:#00aee0;"/><path d="M645.72,472.26c.08-.21.17-.41.25-.61C645.89,471.85,645.8,472.05,645.72,472.26Z" style="fill:#00aee0;"/><path d="M645.27,473.42l.27-.74Z" style="fill:#00aee0;"/><path d="M648.54,467.76c.17-.16.34-.32.52-.47C648.88,467.44,648.71,467.6,648.54,467.76Z" style="fill:#00aee0;"/><path d="M647.76,468.6c.12-.15.24-.28.37-.42C648,468.32,647.88,468.45,647.76,468.6Z" style="fill:#00aee0;"/><path d="M646.66,470.27c.09-.17.18-.32.28-.48C646.84,470,646.75,470.1,646.66,470.27Z" style="fill:#00aee0;"/><path d="M647.18,469.39c.1-.15.21-.29.31-.43C647.39,469.1,647.28,469.24,647.18,469.39Z" style="fill:#00aee0;"/><path d="M649.43,467l.42-.28Z" style="fill:#00aee0;"/><path d="M726.22,605c.9-9.44-.46-14.94-1.93-19.16-.23-.54-.48-1.08-.76-1.6h.18c-.13-.34-.25-.68-.38-1a90.52,90.52,0,0,1-10.84-1.33c-3-.56-5.92-1.24-8.89-2a9.33,9.33,0,0,1,2,2.52.47.47,0,0,1,.34.2h0a33,33,0,0,1,4.38,9.23,27.82,27.82,0,0,1,.85,10.42,40.48,40.48,0,0,1-.72,5.09,30.07,30.07,0,0,1-1.42,5,23.16,23.16,0,0,1-2.4,4.67,26.26,26.26,0,0,1-3.28,4,.64.64,0,0,1-.67.14q-.43.86-.87,1.59c2.36.16,4.74.28,7.13.33a130.66,130.66,0,0,0,14.6-.53A147.86,147.86,0,0,0,726.22,605Z" style="fill:#ff3a00;"/><path d="M749.41,579.55a3.1,3.1,0,0,0-2.93-2.63c-1.2,0-2.57,0-3.5,0-2,.1-4.07.31-6.1.55s-4.06.59-6.1,1c-1.3.27-2.61.56-3.91.92-1.72.47-4.29,1.78-3.67,3.45l.13.36c.13.33.25.67.38,1,1.63.07,14.15.9,27.85,10.7a108.93,108.93,0,0,1,.31,13.88A36.39,36.39,0,0,0,726,592.73a27.64,27.64,0,0,0-1.75-6.89c1.47,4.22,2.83,9.72,1.93,19.16a147.86,147.86,0,0,1-2.71,17.53c-.17.83-.34,1.59-.48,2.24-.34,1.57,1.94,2.52,3.48,3l.51.13c.36-.82.7-1.66,1-2.47.37-1.08.69-2.17,1-3.27s.59-2.22,1-3.35a16.17,16.17,0,0,1,.67-1.73,9.59,9.59,0,0,1,.93-1.79v0a.57.57,0,0,1,.79-.15.52.52,0,0,1,.18.21,9.32,9.32,0,0,1,.69,2,14,14,0,0,1,.21,2,12.05,12.05,0,0,1-.69,4,12.59,12.59,0,0,1-1.95,3.69,12.87,12.87,0,0,1-1.42,1.44l1.41.3.81.15h0c.94,1.62,1.79,3,2.57,4.28.41-.74.8-1.49,1.13-2.23.49-1,.91-2.08,1.33-3.15s.82-2.15,1.34-3.23a16.16,16.16,0,0,1,.85-1.65,10.12,10.12,0,0,1,1.1-1.69l0,0a.57.57,0,0,1,1,.16,9.38,9.38,0,0,1,.48,2,13.75,13.75,0,0,1,0,2,12.13,12.13,0,0,1-1.09,3.93,12.26,12.26,0,0,1-2.32,3.47,8.83,8.83,0,0,1-2.78,1.95c4.92,7.63,6.52,7.57,9.78,7.61,3.76.05,4.14-2.37,4.14-2.37C754.42,612,751.66,590.73,749.41,579.55Z" style="fill:#ffb400;"/><path d="M702.45,621a.61.61,0,0,1-.12-.7c.71-1.51,1.45-3,2-4.44a31.72,31.72,0,0,0,1.45-4.49,60.81,60.81,0,0,0,1.35-9.44,39.67,39.67,0,0,0-.2-9.37c-.1-.78-.23-1.57-.39-2.35s-.31-1.57-.5-2.36c-.34-1.6-.8-3.19-1.08-4.89a.51.51,0,0,1,.41-.58.51.51,0,0,1,.17,0,9.33,9.33,0,0,0-2-2.52,9.66,9.66,0,0,0-4.36-2.32,65.69,65.69,0,0,1-17.69-6.78,46.63,46.63,0,0,1-7.18-5.56l-.76-.84c-12.33-4-20.69-13.83-17.18-20.47l7.27,2.39,0-.09L625.4,533.63l4.93-15c-16.24.88-30.91,1-44.15.45h0c-2.76-.1-5.47-.22-8.11-.37h0A339.59,339.59,0,0,1,543.32,515h0q-3.75-.62-7.22-1.27h0a216.56,216.56,0,0,1-30.54-7.94h0c-2.27-.78-4.34-1.55-6.2-2.29h0c-2.57-1-4.77-2-6.59-2.83a16.3,16.3,0,0,1-3.08-1.89c-1.5,1.39-3,2.81-4.41,4.29a112.09,112.09,0,0,0-13.21,16.38,94.63,94.63,0,0,0-10,19.82,90.42,90.42,0,0,0-5,22.41,92.48,92.48,0,0,0,1,22.68,104,104,0,0,0,15.63,38.23s.53,1.16,3.69.94c-.54-1-1.08-1.93-1.59-2.9l-.31.24a.17.17,0,0,1-.26,0h0a1.67,1.67,0,0,1-.2-1.13,4.16,4.16,0,0,1,.21-.86,8.42,8.42,0,0,1,.7-1.41,19.67,19.67,0,0,1,1.75-2.42,38.35,38.35,0,0,1,4.12-4.14,51.17,51.17,0,0,1,4.6-3.55,51.92,51.92,0,0,1,4.94-3,44.54,44.54,0,0,1,10.8-4.33,33,33,0,0,1,5.79-.93,19.77,19.77,0,0,1,3,0,10.37,10.37,0,0,1,1.53.25,4.35,4.35,0,0,1,.79.27,1.79,1.79,0,0,1,.83.66.38.38,0,0,1-.12.52.48.48,0,0,1-.17,0c.31,1,.63,1.91,1,2.85,2.9-3.5,1.95-5.19,1.95-5.19a67.73,67.73,0,0,1-5.52-21.42,46.05,46.05,0,0,1,.57-9.07v0c11.11-21.58,90.49-16.39,102.06,7h0a91.37,91.37,0,0,0,24.7,32,91.92,91.92,0,0,0,19.34,11.88,102.61,102.61,0,0,0,36,8.39,8.58,8.58,0,0,0,7.77-4.16l.19-.32q.44-.74.87-1.59A.66.66,0,0,1,702.45,621Zm-67.86-79a2,2,0,0,1,2.5,1.33c.3,1,.63,2,1,3a2,2,0,0,1-1.23,2.55,1.88,1.88,0,0,1-.66.12,2,2,0,0,1-1.88-1.34c-.36-1-.71-2.08-1-3.14A2,2,0,0,1,634.59,542Zm-62-17.34s-.13.72-.32,1.92a2,2,0,0,1-2,1.69,1.63,1.63,0,0,1-.31,0,2,2,0,0,1-1.67-2.28c.2-1.28.34-2,.34-2a2,2,0,0,1,3.93.73Zm-19.18,6.06a2,2,0,0,1,1.81,2.17c-.12,1.43-.22,2.85-.29,4.21a2,2,0,0,1-2,1.89h-.1a2,2,0,0,1-1.9-2.1c.08-1.4.18-2.87.31-4.35A2,2,0,0,1,553.4,530.73Zm-1.15-6.82c.2-1.29.33-2,.33-2a2,2,0,0,1,3.94.7s-.13.71-.31,1.92a2,2,0,0,1-2,1.7l-.29,0A2,2,0,0,1,552.25,523.91ZM473.34,557h-.21a2,2,0,0,1-1.78-2.2c.13-1.36.31-2.73.53-4.06a2,2,0,0,1,3.95.64c-.2,1.25-.37,2.54-.51,3.83A2,2,0,0,1,473.34,557Zm1.72,9.82a2,2,0,0,1-1.89,2.1h-.11a2,2,0,0,1-2-1.9c-.07-1.35-.11-2.73-.12-4.08a2,2,0,0,1,2-2h0a2,2,0,0,1,2,2C475,564.22,475,565.53,475.06,566.82Zm3.15-35.53c.64-1.22,1.32-2.43,2-3.59a2,2,0,0,1,3.42,2.08c-.66,1.09-1.3,2.21-1.89,3.35a2,2,0,0,1-1.77,1.08,1.9,1.9,0,0,1-.92-.23A2,2,0,0,1,478.21,531.29Zm8.32-7a1.93,1.93,0,0,1-1.26-.45A2,2,0,0,1,485,521c.86-1.05,1.76-2.1,2.69-3.1a2,2,0,0,1,2.94,2.71c-.87.94-1.72,1.92-2.52,2.91A2,2,0,0,1,486.53,524.24Zm-7.84,15.93c-.43,1.2-.83,2.43-1.19,3.67a2,2,0,0,1-1.92,1.45,2.09,2.09,0,0,1-.55-.08,2,2,0,0,1-1.37-2.48c.38-1.32.81-2.64,1.27-3.91a2,2,0,0,1,3.76,1.35Zm19-26.15-1.5,1.23a2,2,0,0,1-1.29.47,2,2,0,0,1-1.29-3.52c.52-.44,1.05-.88,1.59-1.31a2,2,0,1,1,2.49,3.13Zm-25.8,61.12a2,2,0,0,1,4-.59c.19,1.29.41,2.58.66,3.83a2,2,0,0,1-1.58,2.35,1.72,1.72,0,0,1-.39,0,2,2,0,0,1-2-1.62C472.32,577.84,472.09,576.49,471.89,575.14Zm1.29,34.51a2,2,0,0,1-1.53.71,2,2,0,0,1-1.29-.47,2,2,0,0,1-.24-2.82c.43-.51.9-1,1.41-1.58a2,2,0,0,1,2.9,2.76C474,608.73,473.56,609.2,473.18,609.65Zm2-20.56s-.26-.71-.66-2a2,2,0,0,1,3.82-1.18c.35,1.13.58,1.76.59,1.79a2,2,0,0,1-1.17,2.57,2.15,2.15,0,0,1-.7.12A2,2,0,0,1,475.21,589.09Zm6.73,12.82c-.91.63-1.8,1.29-2.65,2a2,2,0,0,1-1.24.42,2,2,0,0,1-1.23-3.57c.91-.72,1.87-1.42,2.85-2.1a2,2,0,1,1,2.27,3.29Zm8.59-4.83c-.74.33-1.48.68-2.23,1l-.73.38a2,2,0,0,1-1.85-3.55l.77-.4c.8-.4,1.62-.78,2.43-1.14a2,2,0,1,1,1.61,3.66Zm9.35-3c-1.06.23-2.13.49-3.18.79a1.79,1.79,0,0,1-.55.08,2,2,0,0,1-.55-3.92c1.14-.33,2.31-.62,3.45-.86a2,2,0,1,1,.83,3.91Zm8.48-4.78a2,2,0,0,1-.11,4h-.12c-.56,0-1.17,0-1.82,0h-.06a2,2,0,0,1-.06-4C507,589.23,507.69,589.24,508.36,589.28Zm42.52-43.59a2,2,0,1,1,4-.21c0,.65.08,1.29.13,1.92a2,2,0,0,1-1.81,2.17H553a2,2,0,0,1-2-1.82Q550.94,546.74,550.88,545.69Zm18.31,6H569a2,2,0,0,1-2-1.82c-.06-.68-.12-1.37-.15-2.07a2,2,0,1,1,4-.22c0,.65.08,1.29.14,1.92A2,2,0,0,1,569.19,551.65Zm1.72-12.46a2,2,0,0,1-2,1.89h-.12a2,2,0,0,1-1.88-2.1c.07-1.39.18-2.86.32-4.36a2,2,0,0,1,2.17-1.81,2,2,0,0,1,1.81,2.18C571.09,536.43,571,537.84,570.91,539.19ZM644.18,563a2,2,0,0,1,2.8.44c.76,1,1.56,2.07,2.37,3.06a2,2,0,1,1-3.08,2.55c-.87-1.05-1.72-2.14-2.53-3.25A2,2,0,0,1,644.18,563Zm13.38,11.71a2,2,0,0,1-2.56,3.08c-1-.87-2.09-1.79-3.09-2.73a2,2,0,0,1,2.74-2.91C655.59,573.05,656.57,573.91,657.56,574.73Zm-18.24-15.85c-.66-1.19-1.3-2.41-1.9-3.65a2,2,0,0,1,3.61-1.74c.56,1.17,1.16,2.33,1.78,3.44a2,2,0,0,1-.77,2.72,2,2,0,0,1-1,.26A2,2,0,0,1,639.32,558.88Zm56.33,21.2a2,2,0,0,1,2.55,1.21c.23.62.45,1.3.66,2a2,2,0,0,1-1.36,2.48,2.16,2.16,0,0,1-.56.08,2,2,0,0,1-1.92-1.44c-.19-.64-.38-1.23-.58-1.79A2,2,0,0,1,695.65,580.08ZM682.75,590a2,2,0,0,1,2.41-1.48c2.31.55,3.71.73,3.73.74a2,2,0,0,1-.25,4h-.25c-.07,0-1.61-.21-4.16-.82A2,2,0,0,1,682.75,590Zm-3.85-1.17a2,2,0,0,1-1.87,1.31,1.84,1.84,0,0,1-.69-.13c-1.28-.47-2.57-1-3.83-1.52a2,2,0,0,1,1.59-3.67c1.19.51,2.4,1,3.61,1.44A2,2,0,0,1,678.9,588.83Zm-17.27-6.14a2,2,0,0,1,2.18-3.36c1.07.7,2.19,1.37,3.32,2a2,2,0,0,1-1,3.74,2.12,2.12,0,0,1-1-.26C664,584.14,662.77,583.42,661.63,582.69Zm35.11,11.41c-.09-1.09-.21-2.19-.36-3.27a2,2,0,1,1,4-.56c.16,1.16.29,2.34.38,3.52a2,2,0,0,1-1.83,2.15h-.16A2,2,0,0,1,696.74,594.1Zm4.11,6.76c0,.29,0,.58,0,.87-.06.91-.14,1.8-.23,2.67a2,2,0,0,1-2,1.78h-.22A2,2,0,0,1,696.6,604c.09-.8.16-1.63.21-2.46,0-.27,0-.54,0-.81a2,2,0,0,1,2-1.92h.09A2,2,0,0,1,700.85,600.86Zm-5.33,20.57c-.37.68-.75,1.31-1.12,1.87a2,2,0,0,1-1.67.89,1.94,1.94,0,0,1-1.1-.33,2,2,0,0,1-.56-2.77c.3-.46.62-1,.93-1.57a2,2,0,0,1,3.52,1.91Zm.28-5.35a2,2,0,0,1-1.28-2.52c.34-1,.65-2.09.91-3.15a2,2,0,1,1,3.88,1c-.29,1.15-.62,2.3-1,3.42a2,2,0,0,1-1.9,1.37A1.87,1.87,0,0,1,695.8,616.08Z" style="fill:#00aee0;"/><path d="M730.84,627a12.59,12.59,0,0,0,1.95-3.69,12.05,12.05,0,0,0,.69-4,14,14,0,0,0-.21-2,9.32,9.32,0,0,0-.69-2,.52.52,0,0,0-.18-.21.57.57,0,0,0-.79.15v0a9.59,9.59,0,0,0-.93,1.79,16.17,16.17,0,0,0-.67,1.73c-.42,1.13-.68,2.26-1,3.35s-.63,2.19-1,3.27c-.27.81-.61,1.65-1,2.47-.1.25-.21.51-.32.76l-.07.16a.56.56,0,0,0,0,.46.61.61,0,0,0,.78.38,6.43,6.43,0,0,0,2-1.17A12.87,12.87,0,0,0,730.84,627Z" style="fill:#04294f;"/><path d="M740.32,629.39a12.13,12.13,0,0,0,1.09-3.93,13.75,13.75,0,0,0,0-2,9.38,9.38,0,0,0-.48-2,.57.57,0,0,0-1-.16l0,0a10.12,10.12,0,0,0-1.1,1.69,16.16,16.16,0,0,0-.85,1.65c-.52,1.08-.9,2.18-1.34,3.23s-.84,2.12-1.33,3.15c-.33.74-.72,1.49-1.13,2.23-.16.29-.31.58-.48.86l-.09.15a.63.63,0,0,0-.06.45.61.61,0,0,0,.74.46,6.47,6.47,0,0,0,.91-.3,8.83,8.83,0,0,0,2.78-1.95A12.26,12.26,0,0,0,740.32,629.39Z" style="fill:#04294f;"/><path d="M724.62,535c-6.56,10.84-13.48,18.84-20.32,24.62l4.45,1.46,0,0,13,4.28a7,7,0,0,0,8.77-4.48l18.72-57.69c1.18-3.66-.64-7-4.48-8.78,0,0-1-.46-3-1.31a1.29,1.29,0,0,0,0,.19C738,512.33,731.21,524.05,724.62,535Z" style="fill:#ffb400;"/><path d="M677.28,533a2.72,2.72,0,0,0-2.49-4.25h-.06a43.15,43.15,0,0,0-4.35.75c-.75.17-1.5.36-2.27.57a20.21,20.21,0,0,1-2.16.55l-2.24.26a4.66,4.66,0,0,1-3.05-.71,4.91,4.91,0,0,1-1.25-6.7,31.51,31.51,0,0,1,1.81-2.6l1-1.27,1.11-1.18a32.24,32.24,0,0,1,5.08-4.25,33.17,33.17,0,0,1,13.19-5.12l1.86-.29c.62-.06,1.25-.06,1.89-.09h0a5.24,5.24,0,0,0,4.78-3.34c.61-1.54,1.23-3.07,1.89-4.56a52.25,52.25,0,0,0,3.09-16.85,37.32,37.32,0,0,0-1.34-9c-21.36-7-34.44-9.31-34.44-9.31a26.24,26.24,0,0,0-3.36-.24c-.24,0-.46,0-.69,0s-.48,0-.71,0-.43,0-.65.06l-.61.08-.6.11-.54.12-.54.16-.49.17-.49.2-.44.22-.43.24-.42.28-.37.26c-.18.15-.35.31-.52.47a5.44,5.44,0,0,0-.41.42c-.13.14-.25.27-.37.42s-.18.24-.27.36-.21.28-.31.43l-.24.4c-.1.16-.19.31-.28.48s-.15.27-.23.42l-.26.53c-.06.14-.13.28-.2.43s-.17.4-.25.61l-.18.42-.27.74c0,.12-.09.23-.13.35-.14.38-.27.76-.4,1.16h0l-14.4,43.76h0l-4.93,15,38.27,12.59,1.28.42A70.38,70.38,0,0,0,677.28,533Zm-45.79,2.61,18.3-54.07c2.57-7.59,15.34-3.36,12.94,4h0L645.07,540Z" style="fill:#ffb400;"/><path d="M662.73,485.57h0c2.4-7.39-10.37-11.62-12.94-4l-18.3,54.07,13.58,4.4Z" style="fill:#fff;"/><path d="M717.48,460.29c-14.31,6.51-22.14,7.83-26.93,6.7a17.05,17.05,0,0,0,.82,1.74h0a30.39,30.39,0,0,1,2.36,5.75c0,.14.07.28.11.42a37.32,37.32,0,0,1,1.34,9,52.25,52.25,0,0,1-3.09,16.85c-.66,1.49-1.28,3-1.89,4.56a5.24,5.24,0,0,1-4.78,3.34h0c-.64,0-1.27,0-1.89.09l-1.86.29a33.17,33.17,0,0,0-13.19,5.12,32.24,32.24,0,0,0-5.08,4.25l-1.11,1.18-1,1.27a31.51,31.51,0,0,0-1.81,2.6,4.91,4.91,0,0,0,1.25,6.7,4.66,4.66,0,0,0,3.05.71l2.24-.26a20.21,20.21,0,0,0,2.16-.55c.77-.21,1.52-.4,2.27-.57a43.15,43.15,0,0,1,4.35-.75h.06a2.72,2.72,0,0,1,2.49,4.25A70.38,70.38,0,0,1,665,546.64l-.07.06-1.18-.39-7.27-2.39c-3.51,6.64,4.85,16.51,17.18,20.47a34.22,34.22,0,0,0,30.84-4.68l-.23-.08.08-.06c6.84-5.78,13.76-13.78,20.32-24.62s13.33-22.62,17.17-41.76a1.29,1.29,0,0,1,0-.19c.27-1.21.53-2.43.75-3.68.25-1.45.44-2.92.61-4.4,0,0,0-.06,0-.1a.38.38,0,0,1,0-.1,87.81,87.81,0,0,0,.16-18.06q-.35-3.63-1-7.2h0c0-.13-.06-.26-.08-.39-.4-2-.85-3.95-1.38-5.89-.12-.43-.25-.84-.39-1.24-.66-2.44-1.41-5-2.21-7.56C735.77,449.32,729.76,454.7,717.48,460.29Zm-40.29,68.49a.71.71,0,0,1-.9-.78v0a9.1,9.1,0,0,1,.72-2.43,13.1,13.1,0,0,1,1.12-2,8.22,8.22,0,0,1,1.46-1.71,7.41,7.41,0,0,1,2.2-1.32l0,0a.66.66,0,0,1,.84.37.19.19,0,0,0,0,.07,4.86,4.86,0,0,1-.13,2.8,7,7,0,0,1-1.23,2.18,9.68,9.68,0,0,1-1.78,1.72A7.34,7.34,0,0,1,677.19,528.78Zm6.06,19.68c1.46-1.85,2.82-3.76,4.18-5.71s2.7-3.94,4.25-6h0a.49.49,0,0,1,.71-.09.51.51,0,0,1,.2.45,23,23,0,0,1-2.12,7.35,29.17,29.17,0,0,1-4.14,6.45,33.48,33.48,0,0,1-5.53,5.31,27.94,27.94,0,0,1-6.6,3.78.62.62,0,0,1-.67-1h0c1.73-1.78,3.46-3.45,5.08-5.2S681.79,550.3,683.25,548.46Zm20.92-5.93a.49.49,0,0,1,.18.42,19.93,19.93,0,0,1-1.55,6.42,24.86,24.86,0,0,1-3.35,5.71,26.2,26.2,0,0,1-4.68,4.73A19.6,19.6,0,0,1,689,563a.63.63,0,0,1-.65-1h0c1.47-1.55,2.9-3,4.21-4.55s2.55-3.11,3.73-4.74,2.29-3.3,3.44-5,2.3-3.41,3.73-5.11h0A.51.51,0,0,1,704.17,542.53Z" style="fill:#ff3a00;"/><path d="M470.09,349.48l1.19.74Z" style="fill:#04294f;"/><path d="M468.33,348.27c.42.3.85.6,1.29.89C469.18,348.87,468.75,348.57,468.33,348.27Z" style="fill:#04294f;"/><path d="M449.2,421.3c-.13-.08-.26-.16-.38-.25C448.94,421.14,449.07,421.22,449.2,421.3Z" style="fill:#04294f;"/><path d="M482.31,354.68c-.74-.18-1.47-.36-2.2-.57s-1.33-.4-2-.62a35.42,35.42,0,0,1-6.21-2.88l.64.36-8.74,8.75a18.89,18.89,0,0,0-1.18-7.31l4.78-4.79.64.46c-5.4-3.92-9.06-8.1-11.45-8.64a15.63,15.63,0,0,0-8.36.72c.36.42.72.84,1.1,1.24a28.77,28.77,0,0,0,4,3.48,1.2,1.2,0,0,1,.22-.36,1.24,1.24,0,0,1,1.39-.29,14.41,14.41,0,0,1,7.42,7.55,19.52,19.52,0,0,1,1.14,10.86,31.39,31.39,0,0,1-3.5,10,40.67,40.67,0,0,1-6.15,8.4,38.07,38.07,0,0,1-8.2,6.53,27.78,27.78,0,0,1-10.15,3.58,19.66,19.66,0,0,1-10.87-1.53,17.92,17.92,0,0,1-7.74-7,1,1,0,0,1,0-1c-.83-.92-1.63-1.85-2.42-2.8-1.26,3.35-1.87,6.24-1.24,7.93.44,1.19,2.71,4.3,6.53,8.55l5.39-5.38a19,19,0,0,0,7,1.48l-8.28,8.28a206.6,206.6,0,0,0,17.45,15.83c1,.78,1.95,1.52,2.93,2.27l28-28c-.5,3.2-.93,6.47-1.29,9.77L449.2,421.3a119.09,119.09,0,0,0,21.35,11.44h0C467.72,406.08,474.23,369.33,482.31,354.68Z" style="fill:#04294f;"/><path d="M567.49,388.45a101,101,0,0,1-29.43-5.61c-.83-.3-1.66-.62-2.48-.95L480.44,437c-.18,2.38-.34,4.81-.45,7.29h0a178.17,178.17,0,0,0,1.11,30.55Z" style="fill:#04294f;"/><path d="M498.59,357.16c-2.77,2.4-5.47,7.51-7.91,14.18l14-14A57.08,57.08,0,0,1,498.59,357.16Z" style="fill:#04294f;"/><path d="M529.74,379.24a62.71,62.71,0,0,1-7.94-4.76,44.24,44.24,0,0,1-12.57-13.15s0,0,0,0L487,383.55a207.5,207.5,0,0,0-6.36,44.84Z" style="fill:#04294f;"/><path d="M511.25,359.26a.93.93,0,0,1,.19.11h0l1,.77a15,15,0,0,1-1.45-2.27c.18.34.36.68.57,1Z" style="fill:#04294f;"/><path d="M510.8,357.35h0c.06.13.13.26.19.38C510.91,357.61,510.86,357.48,510.8,357.35Z" style="fill:#04294f;"/><path d="M678.05,365.6c-2.85-1.35-5.74-2.56-8.67-3.69l.22.23c-.22-.15-.42-.28-.63-.4l-2-.72c-7.56-1.19-13,16.87-14.74,36.59l30-29.94q2.76,1.44,5.45,3L651.7,406.65c-.44,13.71.95,26.91,4.65,33.82l53.17-53.16c1.44,1.39,2.83,2.82,4.2,4.29l-53.26,53.25.84.3a65.51,65.51,0,0,1,17.35,10.1A22.26,22.26,0,0,1,683,460.8l46.75-46.75c1,1.87,1.92,3.76,2.79,5.7l-45.61,45.61-.11-.08a9.86,9.86,0,0,0,3.74,1.71c4.79,1.13,12.62-.19,26.93-6.7,12.28-5.59,18.29-11,20.8-15.91,3.74-7.33-.24-13.69-2.82-18.26a18.23,18.23,0,0,1-1.69-3.57C723.29,397.27,702.64,377.2,678.05,365.6Z" style="fill:#04294f;"/><path d="M492.78,500.7c1.82.85,4,1.81,6.59,2.83L644.83,358.07A47.29,47.29,0,0,0,640.44,371L505.56,505.83a216.56,216.56,0,0,0,30.54,7.94l102.3-102.3c.23,2.56.53,5.1.91,7.57l-96,96a339.59,339.59,0,0,0,34.75,3.73L650,446.88a18.84,18.84,0,0,0,4.66,3.83l-68.43,68.42c13.24.5,27.91.43,44.15-.45h0l14.4-43.76h0c.13-.4.26-.78.4-1.16,0-.12.08-.23.13-.35l.27-.74.18-.42c.08-.21.17-.41.25-.61s.14-.29.2-.43l.26-.53c.08-.15.15-.29.23-.42s.18-.32.28-.48l.24-.4c.1-.15.21-.29.31-.43s.17-.24.27-.36.24-.28.37-.42a5.44,5.44,0,0,1,.41-.42c.17-.16.34-.32.52-.47l.37-.26.42-.28.43-.24.44-.22.49-.2.49-.17.54-.16.54-.12.6-.11.61-.08c.22,0,.43-.05.65-.06s.47,0,.71,0,.45,0,.69,0h0c.33-4.58.8-9.08,1.33-13.42h0c-25.36-8.48-22.75-83.88-10.5-96.64A186.31,186.31,0,0,0,624,352c.15,1.07.3,2.16.46,3.25a1.82,1.82,0,0,1,1.61-1.06,1.84,1.84,0,0,1,1.76,1.22l0,.12c.41,1.13,1,2.33,1.65,3.69a15.81,15.81,0,0,1,.89,2.27,10.09,10.09,0,0,1,.39,3,11.38,11.38,0,0,1-1.74,5.6,18.52,18.52,0,0,1-3.4,4.07,36.6,36.6,0,0,1-8,5.42,64.27,64.27,0,0,1-8.53,3.58,110.39,110.39,0,0,1-33.25,5.44l-93.66,93.66c.45,2.46,1,4.91,1.54,7.36a16.58,16.58,0,0,0,5.95,9.23A16.3,16.3,0,0,0,492.78,500.7Zm132.08,18.24,8-8-.78,2.36-1.76,5.38C628.46,518.78,626.66,518.86,624.86,518.94Z" style="fill:#04294f;"/><path d="M410,275.47a66.82,66.82,0,0,0,1.27,9.56.49.49,0,0,0,.38.38.5.5,0,0,0,.6-.38,66.82,66.82,0,0,0,1.27-9.56c.22-3.19.27-6.38.23-9.57,0-1.59-.06-3.19-.12-4.78s-.14-3.19-.24-4.78c-.22-3.19-.5-6.38-1-9.57a.62.62,0,0,0-1.22,0c-.52,3.19-.8,6.38-1,9.57-.1,1.59-.2,3.18-.24,4.78s-.1,3.19-.12,4.78C409.7,269.09,409.75,272.28,410,275.47Z" style="fill:#04294f;"/><path d="M424.65,252.5a.62.62,0,0,0-.73.49,76.32,76.32,0,0,0-1,8.19c-.22,2.73-.33,5.47-.36,8.2s0,5.46.23,8.19a49.34,49.34,0,0,0,1.27,8.2.49.49,0,0,0,.36.36.51.51,0,0,0,.62-.36,49.34,49.34,0,0,0,1.27-8.2c.21-2.73.27-5.46.23-8.19s-.14-5.47-.36-8.2a76.32,76.32,0,0,0-1-8.19A.63.63,0,0,0,424.65,252.5Z" style="fill:#04294f;"/><path d="M416.9,381.6a.92.92,0,0,1,.33-.35,1,1,0,0,1,1.06,0l0,0a22.16,22.16,0,0,0,8,3.37,17.61,17.61,0,0,0,7.88-.44,27.08,27.08,0,0,0,7.4-3.42,38.63,38.63,0,0,0,6.57-5.33,36.14,36.14,0,0,0,9-14.22,16.76,16.76,0,0,0,.58-7.89,13.1,13.1,0,0,0-4.07-7.09,1.22,1.22,0,0,1-.28-1.38,28.77,28.77,0,0,1-4-3.48c-.38-.4-.74-.82-1.1-1.24a37.47,37.47,0,0,1-4.52-6.5c-3.1-6-5.06-13.69-5.56-22.34l-.05-.8a21,21,0,0,0-.77-4.53c.66-36.51-1.52-59.56-23.72-64.49-14.7-3.27-18.18,16.73-19,38.23-.16-.46-.32-.92-.46-1.41-.23-.73-.43-1.48-.63-2.25s-.36-1.61-.58-2.15l-.89-2.08a4.67,4.67,0,0,0-8.44-.32,32.9,32.9,0,0,0-1.49,3.11l-.59,1.52-.48,1.56a31.7,31.7,0,0,0-1.18,6.51,29.94,29.94,0,0,0,0,3.91h0c.27,23.67,13.48,29.43,15.22,39.36.05.92.11,1.83.19,2.75v0h0a94.61,94.61,0,0,0,3.83,20.3,86.84,86.84,0,0,0,9.67,20.52,75.51,75.51,0,0,0,5.68,7.72C415.27,379.75,416.07,380.68,416.9,381.6Zm9.26-120.42c.22,2.73.33,5.47.36,8.2s0,5.46-.23,8.19a49.34,49.34,0,0,1-1.27,8.2.51.51,0,0,1-.62.36.49.49,0,0,1-.36-.36,49.34,49.34,0,0,1-1.27-8.2c-.22-2.73-.27-5.46-.23-8.19s.14-5.47.36-8.2a76.32,76.32,0,0,1,1-8.19.62.62,0,0,1,.73-.49.63.63,0,0,1,.49.49A76.32,76.32,0,0,1,426.16,261.18Zm-16.3-.06c0-1.6.14-3.19.24-4.78.22-3.19.5-6.38,1-9.57a.62.62,0,0,1,1.22,0c.52,3.19.8,6.38,1,9.57.1,1.59.2,3.18.24,4.78s.11,3.19.12,4.78c0,3.19,0,6.38-.23,9.57a66.82,66.82,0,0,1-1.27,9.56.5.5,0,0,1-.6.38.49.49,0,0,1-.38-.38,66.82,66.82,0,0,1-1.27-9.56c-.22-3.19-.27-6.38-.23-9.57C409.76,264.31,409.8,262.71,409.86,261.12Zm-18.24,18.69a.63.63,0,0,1,.84-.3.64.64,0,0,1,.35.48v0c.25,1.75.34,3.48.44,5.19s.11,3.4.11,5.1,0,3.39-.19,5.1a25.25,25.25,0,0,1-.95,5.21h0a.54.54,0,0,1-.67.34.52.52,0,0,1-.31-.27,17.47,17.47,0,0,1-1.59-5.17,26.1,26.1,0,0,1-.27-5.3A33.61,33.61,0,0,1,390,285,22.08,22.08,0,0,1,391.62,279.81Z" style="fill:#ff3a00;"/><path d="M390,285a33.61,33.61,0,0,0-.6,5.28,26.1,26.1,0,0,0,.27,5.3,17.47,17.47,0,0,0,1.59,5.17.52.52,0,0,0,.31.27.54.54,0,0,0,.67-.34h0a25.25,25.25,0,0,0,.95-5.21c.15-1.71.2-3.4.19-5.1s0-3.39-.11-5.1-.19-3.44-.44-5.19v0a.64.64,0,0,0-.35-.48.63.63,0,0,0-.84.3A22.08,22.08,0,0,0,390,285Z" style="fill:#04294f;"/><path d="M678.63,553.84c-1.62,1.75-3.35,3.42-5.08,5.2h0a.62.62,0,0,0,.67,1,27.94,27.94,0,0,0,6.6-3.78,33.48,33.48,0,0,0,5.53-5.31,29.17,29.17,0,0,0,4.14-6.45,23,23,0,0,0,2.12-7.35.51.51,0,0,0-.2-.45.49.49,0,0,0-.71.09h0c-1.55,2-2.86,4-4.25,6s-2.72,3.86-4.18,5.71S680.25,552.09,678.63,553.84Z" style="fill:#04294f;"/><path d="M703.44,542.59h0c-1.43,1.7-2.56,3.43-3.73,5.11s-2.27,3.36-3.44,5-2.42,3.2-3.73,4.74-2.74,3-4.21,4.55h0a.63.63,0,0,0,.65,1,19.6,19.6,0,0,0,5.82-3.2,26.2,26.2,0,0,0,4.68-4.73,24.86,24.86,0,0,0,3.35-5.71,19.93,19.93,0,0,0,1.55-6.42.49.49,0,0,0-.18-.42A.51.51,0,0,0,703.44,542.59Z" style="fill:#04294f;"/><path d="M681.33,525.89a7,7,0,0,0,1.23-2.18,4.86,4.86,0,0,0,.13-2.8.19.19,0,0,1,0-.07.66.66,0,0,0-.84-.37l0,0a7.41,7.41,0,0,0-2.2,1.32,8.22,8.22,0,0,0-1.46,1.71,13.1,13.1,0,0,0-1.12,2,9.1,9.1,0,0,0-.72,2.43v0a.71.71,0,0,0,.9.78,7.34,7.34,0,0,0,2.36-1.17A9.68,9.68,0,0,0,681.33,525.89Z" style="fill:#04294f;"/><path d="M453.61,346.26a13.1,13.1,0,0,1,4.07,7.09,16.76,16.76,0,0,1-.58,7.89,36.14,36.14,0,0,1-9,14.22,38.63,38.63,0,0,1-6.57,5.33,27.08,27.08,0,0,1-7.4,3.42,17.61,17.61,0,0,1-7.88.44,22.16,22.16,0,0,1-8-3.37l0,0a1,1,0,0,0-1.06,0,.92.92,0,0,0-.33.35,1,1,0,0,0,0,1,17.92,17.92,0,0,0,7.74,7,19.66,19.66,0,0,0,10.87,1.53,27.78,27.78,0,0,0,10.15-3.58,38.07,38.07,0,0,0,8.2-6.53,40.67,40.67,0,0,0,6.15-8.4,31.39,31.39,0,0,0,3.5-10,19.52,19.52,0,0,0-1.14-10.86,14.41,14.41,0,0,0-7.42-7.55,1.24,1.24,0,0,0-1.39.29,1.2,1.2,0,0,0-.22.36A1.22,1.22,0,0,0,453.61,346.26Z" style="fill:#fff;"/><path d="M509.75,353.76a12.37,12.37,0,0,0,1.05,3.59c.06.13.11.26.17.38l.07.15a15,15,0,0,0,1.45,2.27c8.69,6.43,18.47,10.16,28.64,12.59a133.63,133.63,0,0,0,16.11,2.82c2.72.32,5.45.58,8.2.76s5.49.31,8.24.33a143.41,143.41,0,0,0,32.71-3,68.6,68.6,0,0,0,7.72-2.18,33.46,33.46,0,0,0,6.88-3.19c2-1.3,3.55-2.82,4-4.42a4.28,4.28,0,0,0,.16-1.31c0-.52-.16-1.21-.26-1.88a30.91,30.91,0,0,1-.63-4.62,1.72,1.72,0,0,1,.18-.81c-.16-1.09-.31-2.18-.46-3.25q-.9-6.72-1.37-12.84h0s-2.48-18.63,1.51-48.55c3-22.19-7.33-28.64-25.42-25.26s-52.64,2.52-75.77-6.93A79.94,79.94,0,0,1,515.6,255c-4.81,14.42-10.24,39.82-7.88,77.63C508.14,339.26,508.8,346.32,509.75,353.76Zm34.58-31.14c.39-3.92,2.77-4.35,6.17-4h0c.87.09,1.8.22,2.78.37,3.28.39,6.18.6,7.33.68l.45,0h.08c3.94.26,6.59.88,6.15,5.22-.59,5.94-6.23,10.24-12.58,9.61S543.73,328.56,544.33,322.62Zm61.89-6.09a8.7,8.7,0,1,1-8.7,8.7A8.69,8.69,0,0,1,606.22,316.53Zm-18.29-37.19a16.84,16.84,0,1,1-16.83,16.84A16.84,16.84,0,0,1,587.93,279.34Zm-73.54,7.56a16.84,16.84,0,1,1,16.84,16.84A16.84,16.84,0,0,1,514.39,286.9Zm-4,26.12a6.85,6.85,0,1,1,6.84,6.84A6.85,6.85,0,0,1,510.35,313Z" style="fill:#ff3a00;"/><path d="M531.23,303.74a16.84,16.84,0,1,0-16.84-16.84A16.84,16.84,0,0,0,531.23,303.74Zm-3.41-7.57a2.29,2.29,0,0,1-.65,1.61,2.27,2.27,0,0,1-3.2,0,2.29,2.29,0,0,1-.66-1.61,2.27,2.27,0,0,1,.66-1.59,3.17,3.17,0,0,1,.34-.28,3,3,0,0,1,.4-.21,3.24,3.24,0,0,1,.41-.13,2.3,2.3,0,0,1,2,.62A2.26,2.26,0,0,1,527.82,296.17ZM526.75,273l.28-.23a1.91,1.91,0,0,1,.32-.16,2.24,2.24,0,0,1,.34-.11,1.83,1.83,0,0,1,1.65,3.09,1.83,1.83,0,0,1-1.3.54,1.86,1.86,0,0,1-1.29-.54,1.85,1.85,0,0,1,0-2.59Zm-9.46,10.78a6,6,0,0,1,.29-.94,5.32,5.32,0,0,1,.48-.88,4.62,4.62,0,0,1,.62-.78,4.78,4.78,0,0,1,.78-.63,5.28,5.28,0,0,1,.88-.47,6.14,6.14,0,0,1,.95-.29,5.49,5.49,0,0,1,2,0,6,6,0,0,1,.94.29,5.3,5.3,0,0,1,1.66,1.1,6.92,6.92,0,0,1,.63.78,4.6,4.6,0,0,1,.46.88,3.91,3.91,0,0,1,.28.94,4.71,4.71,0,0,1,.1,1,5.16,5.16,0,0,1-1.47,3.59,5.9,5.9,0,0,1-.78.62,5.32,5.32,0,0,1-.88.48,6,6,0,0,1-.94.29,5,5,0,0,1-2,0,6.14,6.14,0,0,1-.95-.29,5.81,5.81,0,0,1-1.66-1.1,5.13,5.13,0,0,1-1.49-3.59A5.47,5.47,0,0,1,517.29,283.78Zm13.6.28a2.4,2.4,0,0,1,0-3.43,3.65,3.65,0,0,1,.36-.31,3.48,3.48,0,0,1,.43-.22,2.35,2.35,0,0,1,.45-.14,2.43,2.43,0,1,1-1.24,4.1Z" style="fill:#04294f;"/><path d="M519.46,289a5.32,5.32,0,0,0,.88.48,6.14,6.14,0,0,0,.95.29,5,5,0,0,0,2,0,6,6,0,0,0,.94-.29,5.32,5.32,0,0,0,.88-.48,5.9,5.9,0,0,0,.78-.62,5.16,5.16,0,0,0,1.47-3.59,4.71,4.71,0,0,0-.1-1,3.91,3.91,0,0,0-.28-.94,4.6,4.6,0,0,0-.46-.88,6.92,6.92,0,0,0-.63-.78,5.3,5.3,0,0,0-1.66-1.1,6,6,0,0,0-.94-.29,5.49,5.49,0,0,0-2,0,6.14,6.14,0,0,0-.95.29,5.28,5.28,0,0,0-.88.47,4.78,4.78,0,0,0-.78.63,4.62,4.62,0,0,0-.62.78,5.32,5.32,0,0,0-.48.88,6,6,0,0,0-.29.94,5.47,5.47,0,0,0-.1,1,5.13,5.13,0,0,0,1.49,3.59A5.31,5.31,0,0,0,519.46,289Z" style="fill:#fff;"/><path d="M528,276.13a1.83,1.83,0,0,0,1.83-1.84,1.82,1.82,0,0,0-2.18-1.79,2.24,2.24,0,0,0-.34.11,1.91,1.91,0,0,0-.32.16l-.28.23a1.85,1.85,0,0,0,0,2.59A1.86,1.86,0,0,0,528,276.13Z" style="fill:#fff;"/><path d="M534.32,284.06a2.43,2.43,0,0,0-2.19-4.1,2.35,2.35,0,0,0-.45.14,3.48,3.48,0,0,0-.43.22,3.65,3.65,0,0,0-.36.31,2.43,2.43,0,1,0,3.43,3.43Z" style="fill:#fff;"/><path d="M525.12,294a3.24,3.24,0,0,0-.41.13,3,3,0,0,0-.4.21,3.17,3.17,0,0,0-.34.28,2.27,2.27,0,0,0-.66,1.59,2.29,2.29,0,0,0,.66,1.61,2.27,2.27,0,0,0,3.2,0,2.29,2.29,0,0,0,.65-1.61,2.26,2.26,0,0,0-.65-1.59A2.3,2.3,0,0,0,525.12,294Z" style="fill:#fff;"/><path d="M571.1,296.18a16.84,16.84,0,1,0,16.83-16.84A16.84,16.84,0,0,0,571.1,296.18Zm7.87,3a5.43,5.43,0,0,1-1-.1,6.49,6.49,0,0,1-1-.29,6.27,6.27,0,0,1-.88-.48,5.22,5.22,0,0,1-.77-.62,5.13,5.13,0,0,1-1.49-3.59,4.71,4.71,0,0,1,.1-1,6,6,0,0,1,.29-.94,4.64,4.64,0,0,1,.47-.88,5.25,5.25,0,0,1,.63-.78,4.7,4.7,0,0,1,.77-.63,6.21,6.21,0,0,1,.88-.47,6.49,6.49,0,0,1,1-.29,5.49,5.49,0,0,1,2,0,6.49,6.49,0,0,1,.95.29,5.71,5.71,0,0,1,.88.47,5.81,5.81,0,0,1,.78.63,5.9,5.9,0,0,1,.62.78,4.09,4.09,0,0,1,.46.88,3.93,3.93,0,0,1,.29.94,4.71,4.71,0,0,1,.1,1,5.16,5.16,0,0,1-1.47,3.59,6.63,6.63,0,0,1-.78.62,5.76,5.76,0,0,1-.88.48,6.49,6.49,0,0,1-.95.29A5.47,5.47,0,0,1,579,299.14Zm4.9,7.92a2.26,2.26,0,1,1-3.19-3.2,2.42,2.42,0,0,1,.34-.28,2.93,2.93,0,0,1,.39-.21,3.38,3.38,0,0,1,.42-.13,2.29,2.29,0,0,1,2,.62,2.27,2.27,0,0,1,.66,1.59A2.29,2.29,0,0,1,583.87,307.06Zm7.86-15.44a2.44,2.44,0,0,1-.7,1.72,2.43,2.43,0,1,1-3.44-3.43,2.89,2.89,0,0,1,.37-.31,2.78,2.78,0,0,1,.42-.22,2.59,2.59,0,0,1,.45-.14,2.47,2.47,0,0,1,2.2.67A2.44,2.44,0,0,1,591.73,291.62Zm-8.27-9.34a3.23,3.23,0,0,1,.27-.23,1.91,1.91,0,0,1,.32-.16,1.5,1.5,0,0,1,.34-.11,1.87,1.87,0,0,1,1.66.5,1.85,1.85,0,0,1,0,2.59,1.87,1.87,0,0,1-1.3.54,1.83,1.83,0,0,1-1.29-3.13Z" style="fill:#04294f;"/><path d="M581.8,298.27a6.63,6.63,0,0,0,.78-.62,5.16,5.16,0,0,0,1.47-3.59,4.71,4.71,0,0,0-.1-1,3.93,3.93,0,0,0-.29-.94,4.09,4.09,0,0,0-.46-.88,5.9,5.9,0,0,0-.62-.78,5.81,5.81,0,0,0-.78-.63,5.71,5.71,0,0,0-.88-.47,6.49,6.49,0,0,0-.95-.29,5.49,5.49,0,0,0-2,0,6.49,6.49,0,0,0-1,.29,6.21,6.21,0,0,0-.88.47,4.7,4.7,0,0,0-.77.63,5.25,5.25,0,0,0-.63.78,4.64,4.64,0,0,0-.47.88,6,6,0,0,0-.29.94,4.71,4.71,0,0,0-.1,1,5.13,5.13,0,0,0,1.49,3.59,5.22,5.22,0,0,0,.77.62,6.27,6.27,0,0,0,.88.48,6.49,6.49,0,0,0,1,.29,5,5,0,0,0,2,0,6.49,6.49,0,0,0,.95-.29A5.76,5.76,0,0,0,581.8,298.27Z" style="fill:#fff;"/><path d="M584.75,285.41a1.87,1.87,0,0,0,1.3-.54,1.85,1.85,0,0,0,0-2.59,1.87,1.87,0,0,0-1.66-.5,1.5,1.5,0,0,0-.34.11,1.91,1.91,0,0,0-.32.16,3.23,3.23,0,0,0-.27.23,1.84,1.84,0,0,0,1.29,3.13Z" style="fill:#fff;"/><path d="M588.83,289.24a2.59,2.59,0,0,0-.45.14,2.78,2.78,0,0,0-.42.22,2.89,2.89,0,0,0-.37.31,2.42,2.42,0,1,0,3.44,0A2.47,2.47,0,0,0,588.83,289.24Z" style="fill:#fff;"/><path d="M581.83,303.24a3.38,3.38,0,0,0-.42.13,2.93,2.93,0,0,0-.39.21,2.42,2.42,0,0,0-.34.28,2.28,2.28,0,0,0-.67,1.59,2.26,2.26,0,1,0,4.52,0,2.27,2.27,0,0,0-.66-1.59A2.29,2.29,0,0,0,581.83,303.24Z" style="fill:#fff;"/><circle cx="606.22" cy="325.23" r="8.69" transform="translate(-44.27 101.3) rotate(-9.22)" style="fill:#ffb400;"/><circle cx="517.19" cy="313.02" r="6.85" transform="translate(30.08 671.05) rotate(-67.5)" style="fill:#ffb400;"/><path d="M553.33,319c-1-.15-1.91-.28-2.78-.37C551.49,318.75,552.42,318.87,553.33,319Z" style="fill:#04294f;"/><path d="M560.66,319.66l.45,0Z" style="fill:#04294f;"/><path d="M554.76,334.53c6.35.63,12-3.67,12.58-9.61.44-4.34-2.21-5-6.15-5.22a37.66,37.66,0,0,1-.69,4.25c-.45,1.87-10.7.93-10.51-1.19s.51-4.14.51-4.15c-3.4-.34-5.78.09-6.17,4C543.73,328.56,548.4,333.89,554.76,334.53Z" style="fill:#04294f;"/><path d="M550,322.76c-.19,2.12,10.06,3.06,10.51,1.19a37.66,37.66,0,0,0,.69-4.25h-.08l-.45,0c-1.15-.08-4-.29-7.33-.68-.91-.11-1.84-.23-2.78-.37h0S550.18,320.64,550,322.76Z" style="fill:#fff;"/><path d="M624.28,356.05a30.91,30.91,0,0,0,.63,4.62c.1.67.24,1.36.26,1.88a4.28,4.28,0,0,1-.16,1.31c-.47,1.6-2,3.12-4,4.42a33.46,33.46,0,0,1-6.88,3.19,68.6,68.6,0,0,1-7.72,2.18,143.41,143.41,0,0,1-32.71,3c-2.75,0-5.5-.14-8.24-.33s-5.48-.44-8.2-.76a133.63,133.63,0,0,1-16.11-2.82c-10.17-2.43-20-6.16-28.64-12.59l-1-.77h0a.93.93,0,0,0-.19-.11l-.1.09a1.36,1.36,0,0,0-1.39,0,1.38,1.38,0,0,0-.47,1.85l-.07.08s0,0,0,0a44.24,44.24,0,0,0,12.57,13.15,62.71,62.71,0,0,0,7.94,4.76l.3-.29q2.88,1.43,5.88,2.6l-.34.34c.82.33,1.65.65,2.48.95a101,101,0,0,0,29.43,5.61l.5-.5c1.86.09,3.72.13,5.58.13.94,0,1.89,0,2.83-.05l-.53.53a110.39,110.39,0,0,0,33.25-5.44,64.27,64.27,0,0,0,8.53-3.58,36.6,36.6,0,0,0,8-5.42,18.52,18.52,0,0,0,3.4-4.07,11.38,11.38,0,0,0,1.74-5.6,10.09,10.09,0,0,0-.39-3,15.81,15.81,0,0,0-.89-2.27c-.64-1.36-1.24-2.56-1.65-3.69l0-.12a1.84,1.84,0,0,0-1.76-1.22,1.82,1.82,0,0,0-1.61,1.06A1.72,1.72,0,0,0,624.28,356.05Z" style="fill:#fff;"/><path d="M480.44,437l0,0c.07-.84.12-1.69.19-2.51-.06-2-.07-4,0-6.13l0,0A207.5,207.5,0,0,1,487,383.55l0,0c1.14-4.42,2.39-8.55,3.72-12.21l0,0c2.44-6.67,5.14-11.78,7.91-14.18a57.08,57.08,0,0,0,6.05.22h0l.81,0h0c1.78,0,3.56,0,5.33,0h0a12.37,12.37,0,0,1-1.05-3.59c-.95-7.44-1.61-14.5-2-21.16A177.4,177.4,0,0,0,489,338c-8.61,3-11.78,8.46-10.87,15.52.64.22,1.29.44,2,.62s1.46.39,2.2.57c-8.08,14.65-14.59,51.4-11.76,78.05h0c.28,2,2.79,9.31,9.42,11.57h0C480.1,441.84,480.26,439.41,480.44,437Z" style="fill:#00aee0;"/><path d="M513.73,600.82h-.47a4.61,4.61,0,0,0-1,0A9.8,9.8,0,0,0,511,601c-.88.15-1.75.41-2.63.64q-2.61.75-5.18,1.73a93.49,93.49,0,0,0-10,4.43,91.58,91.58,0,0,0-9.4,5.67c-1.51,1-3,2.13-4.37,3.3a24.64,24.64,0,0,0-2,1.83,8.82,8.82,0,0,0-.8,1,2.73,2.73,0,0,0-.37.7l-.48.39c.51,1,1.05,1.94,1.59,2.9.85,1.54,1.73,3.08,2.64,4.6a128.25,128.25,0,0,0,7.51,11.06c2.32-2.62,6.77-6.41,15.29-11.48,4.71-2.8,8.43-4.76,11.37-6.14h0l.06,0a51.63,51.63,0,0,1,5.47-2.24h0c.58-.19,1.09-.35,1.55-.47a90.48,90.48,0,0,1-4.56-9.66c-.71-1.81-1.38-3.67-2-5.54-.32-.94-.64-1.89-1-2.85Z" style="fill:#ff3a00;"/><path d="M514.21,621.6c-2.94,1.38-6.66,3.34-11.37,6.14-8.52,5.07-13,8.86-15.29,11.48a16.6,16.6,0,0,0-1.41,1.79,5.34,5.34,0,0,0-.64,4.52c.07.25.16.5.24.75a20.5,20.5,0,0,1,2.64-3.35,25.48,25.48,0,0,1,4.27-3.55,21.61,21.61,0,0,1,5-2.53,15.08,15.08,0,0,1,5.52-.94.54.54,0,0,1,.52.54.55.55,0,0,1-.18.38h0a38.56,38.56,0,0,1-4.31,3.17q-2.16,1.4-4.33,2.71c-1.45.89-2.89,1.81-4.34,2.74s-2.73,1.73-4.14,2.59c.2.56.4,1.12.61,1.68.1.26.21.5.31.76h0c-.71,1.36-1.34,2.6-1.9,3.74l.31-.35a25.48,25.48,0,0,1,4.27-3.55,21.71,21.71,0,0,1,4.94-2.52,15.39,15.39,0,0,1,5.53-.95.53.53,0,0,1,.51.55.52.52,0,0,1-.17.37l0,0a38.81,38.81,0,0,1-4.3,3.17q-2.16,1.39-4.33,2.71c-1.46.89-2.89,1.81-4.35,2.73s-2.92,1.88-4.45,2.79l0,0a.49.49,0,0,1-.23.08c-2.44,5.94-1.56,7.26-.06,9.71,2,3.2,4.22,2.23,4.22,2.23a232.77,232.77,0,0,0,27-14.8C521.6,640.26,514.23,621.63,514.21,621.6Z" style="fill:#ffb400;"/><path d="M525.76,648.72c5.92-4.18,10.32-7.64,12.7-9.57a3,3,0,0,0,.66-3.88c-.63-1-1.36-2.18-1.9-2.94-1.17-1.67-2.43-3.27-3.72-4.86s-2.67-3.13-4.11-4.62c-.92-1-1.87-1.91-2.87-2.82a5.38,5.38,0,0,0-4.88-1.26l-.34.09c-.46.12-1,.28-1.55.47C519.76,619.34,526.74,630.7,525.76,648.72Z" style="fill:#ffb400;"/><path d="M514.27,621.57c.29-.13,2.26-1,5.47-2.24A51.63,51.63,0,0,0,514.27,621.57Z" style="fill:#ffb400;"/><path d="M494.81,642.72q2.18-1.32,4.33-2.71a38.56,38.56,0,0,0,4.31-3.17h0a.55.55,0,0,0,.18-.38.54.54,0,0,0-.52-.54,15.08,15.08,0,0,0-5.52.94,21.61,21.61,0,0,0-5,2.53,25.48,25.48,0,0,0-4.27,3.55,20.5,20.5,0,0,0-2.64,3.35c-.23.38-.45.77-.65,1.18a.62.62,0,0,0,0,.59.63.63,0,0,0,.86.22l0,0,.32-.19c1.41-.86,2.77-1.75,4.14-2.59S493.36,643.61,494.81,642.72Z" style="fill:#04294f;"/><path d="M483.28,659.2c1.53-.91,3-1.88,4.45-2.79s2.89-1.84,4.35-2.73,2.89-1.78,4.33-2.71a38.81,38.81,0,0,0,4.3-3.17l0,0a.52.52,0,0,0,.17-.37.53.53,0,0,0-.51-.55,15.39,15.39,0,0,0-5.53.95,21.71,21.71,0,0,0-4.94,2.52,25.48,25.48,0,0,0-4.27,3.55l-.31.35a17.43,17.43,0,0,0-3,4.18.64.64,0,0,0,0,.6.63.63,0,0,0,.63.29.49.49,0,0,0,.23-.08Z" style="fill:#04294f;"/><path d="M519.75,619.33h0c-3.21,1.25-5.18,2.11-5.47,2.24l-.06,0h0s7.39,18.66,0,34.84h0a107.52,107.52,0,0,0,11.55-7.72h0C526.74,630.7,519.76,619.34,519.75,619.33Z" style="fill:#fff;"/><path d="M724.29,585.84a27.64,27.64,0,0,1,1.75,6.89,36.39,36.39,0,0,1,25.83,16.1,108.93,108.93,0,0,0-.31-13.88c-13.7-9.8-26.22-10.63-27.85-10.7h-.18C723.81,584.76,724.06,585.3,724.29,585.84Z" style="fill:#fff;"/><path d="M476.66,619.57a8.82,8.82,0,0,1,.8-1,24.64,24.64,0,0,1,2-1.83c1.39-1.17,2.86-2.26,4.37-3.3a91.58,91.58,0,0,1,9.4-5.67,93.49,93.49,0,0,1,10-4.43q2.56-1,5.18-1.73c.88-.23,1.75-.49,2.63-.64a9.8,9.8,0,0,1,1.29-.19,4.61,4.61,0,0,1,1,0h.51a.48.48,0,0,0,.17,0,.38.38,0,0,0,.12-.52,1.79,1.79,0,0,0-.83-.66,4.35,4.35,0,0,0-.79-.27,10.37,10.37,0,0,0-1.53-.25,19.77,19.77,0,0,0-3,0,33,33,0,0,0-5.79.93,44.54,44.54,0,0,0-10.8,4.33,51.92,51.92,0,0,0-4.94,3,51.17,51.17,0,0,0-4.6,3.55,38.35,38.35,0,0,0-4.12,4.14,19.67,19.67,0,0,0-1.75,2.42,8.42,8.42,0,0,0-.7,1.41,4.16,4.16,0,0,0-.21.86,1.67,1.67,0,0,0,.2,1.13h0a.17.17,0,0,0,.26,0l.31-.24.48-.39A2.73,2.73,0,0,1,476.66,619.57Z" style="fill:#04294f;"/><path d="M474.36,605.42a2,2,0,0,0-2.83.07c-.51.55-1,1.07-1.41,1.58a2,2,0,0,0,.24,2.82,2,2,0,0,0,1.29.47,2,2,0,0,0,1.53-.71c.38-.45.8-.92,1.25-1.4A2,2,0,0,0,474.36,605.42Z" style="fill:#04294f;"/><path d="M499.05,590.15c-1.14.24-2.31.53-3.45.86a2,2,0,0,0,.55,3.92,1.79,1.79,0,0,0,.55-.08c1.05-.3,2.12-.56,3.18-.79a2,2,0,1,0-.83-3.91Z" style="fill:#04294f;"/><path d="M479.67,598.62c-1,.68-1.94,1.38-2.85,2.1a2,2,0,0,0,1.23,3.57,2,2,0,0,0,1.24-.42c.85-.67,1.74-1.33,2.65-2a2,2,0,1,0-2.27-3.29Z" style="fill:#04294f;"/><path d="M488.92,593.42c-.81.36-1.63.74-2.43,1.14l-.77.4a2,2,0,0,0,1.85,3.55l.73-.38c.75-.37,1.49-.72,2.23-1a2,2,0,1,0-1.61-3.66Z" style="fill:#04294f;"/><path d="M506.19,589.25a2,2,0,0,0,.06,4h.06c.65,0,1.26,0,1.82,0h.12a2,2,0,0,0,.11-4C507.69,589.24,507,589.23,506.19,589.25Z" style="fill:#04294f;"/><path d="M695,584.43a2,2,0,0,0,1.92,1.44,2.16,2.16,0,0,0,.56-.08,2,2,0,0,0,1.36-2.48c-.21-.72-.43-1.4-.66-2a2,2,0,1,0-3.76,1.35C694.64,583.2,694.83,583.79,695,584.43Z" style="fill:#04294f;"/><path d="M698.94,598.78h-.09a2,2,0,0,0-2,1.92c0,.27,0,.54,0,.81,0,.83-.12,1.66-.21,2.46a2,2,0,0,0,1.77,2.21h.22a2,2,0,0,0,2-1.78c.09-.87.17-1.76.23-2.67,0-.29,0-.58,0-.87A2,2,0,0,0,698.94,598.78Z" style="fill:#04294f;"/><path d="M698.32,614.81c.37-1.12.7-2.27,1-3.42a2,2,0,1,0-3.88-1c-.26,1.06-.57,2.12-.91,3.15a2,2,0,0,0,1.28,2.52,1.87,1.87,0,0,0,.62.1A2,2,0,0,0,698.32,614.81Z" style="fill:#04294f;"/><path d="M698.73,595.94h.16a2,2,0,0,0,1.83-2.15c-.09-1.18-.22-2.36-.38-3.52a2,2,0,1,0-4,.56c.15,1.08.27,2.18.36,3.27A2,2,0,0,0,698.73,595.94Z" style="fill:#04294f;"/><path d="M694.71,618.72a2,2,0,0,0-2.71.8c-.31.58-.63,1.11-.93,1.57a2,2,0,0,0,.56,2.77,1.94,1.94,0,0,0,1.1.33,2,2,0,0,0,1.67-.89c.37-.56.75-1.19,1.12-1.87A2,2,0,0,0,694.71,618.72Z" style="fill:#04294f;"/><path d="M705,583c.28,1.7.74,3.29,1.08,4.89.19.79.35,1.58.5,2.36s.29,1.57.39,2.35a39.67,39.67,0,0,1,.2,9.37,60.81,60.81,0,0,1-1.35,9.44,31.72,31.72,0,0,1-1.45,4.49c-.58,1.47-1.32,2.93-2,4.44a.61.61,0,0,0,.12.7.66.66,0,0,0,.2.14.64.64,0,0,0,.67-.14,26.26,26.26,0,0,0,3.28-4,23.16,23.16,0,0,0,2.4-4.67,30.07,30.07,0,0,0,1.42-5,40.48,40.48,0,0,0,.72-5.09,27.82,27.82,0,0,0-.85-10.42,33,33,0,0,0-4.38-9.23h0a.47.47,0,0,0-.34-.2.51.51,0,0,0-.17,0A.51.51,0,0,0,705,583Z" style="fill:#04294f;"/><path d="M477.79,590.26a2,2,0,0,0,1.17-2.57s-.24-.66-.59-1.79a2,2,0,0,0-3.82,1.18c.4,1.3.66,2,.66,2a2,2,0,0,0,1.88,1.29A2.15,2.15,0,0,0,477.79,590.26Z" style="fill:#04294f;"/><path d="M473,561h0a2,2,0,0,0-2,2c0,1.35.05,2.73.12,4.08a2,2,0,0,0,2,1.9h.11a2,2,0,0,0,1.89-2.1c-.07-1.29-.1-2.6-.11-3.88A2,2,0,0,0,473,561Z" style="fill:#04294f;"/><path d="M474.93,538.82c-.46,1.27-.89,2.59-1.27,3.91a2,2,0,0,0,1.37,2.48,2.09,2.09,0,0,0,.55.08,2,2,0,0,0,1.92-1.45c.36-1.24.76-2.47,1.19-3.67a2,2,0,0,0-3.76-1.35Z" style="fill:#04294f;"/><path d="M475.83,551.37a2,2,0,0,0-3.95-.64c-.22,1.33-.4,2.7-.53,4.06a2,2,0,0,0,1.78,2.2h.21a2,2,0,0,0,2-1.8C475.46,553.91,475.63,552.62,475.83,551.37Z" style="fill:#04294f;"/><path d="M474.54,580.77a1.72,1.72,0,0,0,.39,0,2,2,0,0,0,1.58-2.35c-.25-1.25-.47-2.54-.66-3.83a2,2,0,0,0-4,.59c.2,1.35.43,2.7.69,4A2,2,0,0,0,474.54,580.77Z" style="fill:#04294f;"/><path d="M479.07,534a1.9,1.9,0,0,0,.92.23,2,2,0,0,0,1.77-1.08c.59-1.14,1.23-2.26,1.89-3.35a2,2,0,0,0-3.42-2.08c-.7,1.16-1.38,2.37-2,3.59A2,2,0,0,0,479.07,534Z" style="fill:#04294f;"/><path d="M490.6,520.59a2,2,0,0,0-2.94-2.71c-.93,1-1.83,2-2.69,3.1a2,2,0,0,0,.3,2.81,1.93,1.93,0,0,0,1.26.45,2,2,0,0,0,1.55-.74C488.88,522.51,489.73,521.53,490.6,520.59Z" style="fill:#04294f;"/><path d="M498,511.21a2,2,0,0,0-2.81-.32c-.54.43-1.07.87-1.59,1.31a2,2,0,0,0,1.29,3.52,2,2,0,0,0,1.29-.47l1.5-1.23A2,2,0,0,0,498,511.21Z" style="fill:#04294f;"/><path d="M634.29,547.64a2,2,0,0,0,1.88,1.34,1.88,1.88,0,0,0,.66-.12,2,2,0,0,0,1.23-2.55c-.34-1-.67-2-1-3a2,2,0,0,0-3.83,1.16C633.58,545.56,633.93,546.61,634.29,547.64Z" style="fill:#04294f;"/><path d="M684.23,592.41c2.55.61,4.09.81,4.16.82h.25a2,2,0,0,0,.25-4s-1.42-.19-3.73-.74a2,2,0,1,0-.93,3.89Z" style="fill:#04294f;"/><path d="M666.14,585.09a2,2,0,0,0,1-3.74c-1.13-.65-2.25-1.32-3.32-2a2,2,0,0,0-2.18,3.36c1.14.73,2.32,1.45,3.52,2.14A2.12,2.12,0,0,0,666.14,585.09Z" style="fill:#04294f;"/><path d="M674.1,584.82a2,2,0,0,0-1.59,3.67c1.26.54,2.55,1,3.83,1.52a1.84,1.84,0,0,0,.69.13,2,2,0,0,0,.68-3.88C676.5,585.82,675.29,585.33,674.1,584.82Z" style="fill:#04294f;"/><path d="M642,559.65a2,2,0,0,0,.77-2.72c-.62-1.11-1.22-2.27-1.78-3.44a2,2,0,0,0-3.61,1.74c.6,1.24,1.24,2.46,1.9,3.65a2,2,0,0,0,1.75,1A2,2,0,0,0,642,559.65Z" style="fill:#04294f;"/><path d="M647.81,569.8a2,2,0,0,0,1.54-3.28c-.81-1-1.61-2-2.37-3.06a2,2,0,1,0-3.24,2.36c.81,1.11,1.66,2.2,2.53,3.25A2,2,0,0,0,647.81,569.8Z" style="fill:#04294f;"/><path d="M651.83,572.25a2,2,0,0,0,.08,2.83c1,.94,2,1.86,3.09,2.73a2,2,0,1,0,2.56-3.08c-1-.82-2-1.68-2.91-2.56A2,2,0,0,0,651.83,572.25Z" style="fill:#04294f;"/><path d="M554.23,526.2a2,2,0,0,0,2-1.7c.18-1.21.3-1.91.31-1.92a2,2,0,0,0-3.94-.7s-.13.74-.33,2a2,2,0,0,0,1.69,2.27Z" style="fill:#04294f;"/><path d="M551.23,532.55c-.13,1.48-.23,3-.31,4.35a2,2,0,0,0,1.9,2.1h.1a2,2,0,0,0,2-1.89c.07-1.36.17-2.78.29-4.21a2,2,0,1,0-4-.35Z" style="fill:#04294f;"/><path d="M553,549.58h.18A2,2,0,0,0,555,547.4c0-.63-.1-1.27-.13-1.92a2,2,0,1,0-4,.21q.06,1,.15,2.07A2,2,0,0,0,553,549.58Z" style="fill:#04294f;"/><path d="M571,522.34a2,2,0,0,0-2.33,1.6s-.14.75-.34,2a2,2,0,0,0,1.67,2.28,1.63,1.63,0,0,0,.31,0,2,2,0,0,0,2-1.69c.19-1.2.32-1.9.32-1.92A2,2,0,0,0,571,522.34Z" style="fill:#04294f;"/><path d="M569.41,532.8a2,2,0,0,0-2.17,1.81c-.14,1.5-.25,3-.32,4.36a2,2,0,0,0,1.88,2.1h.12a2,2,0,0,0,2-1.89c.07-1.35.18-2.76.31-4.21A2,2,0,0,0,569.41,532.8Z" style="fill:#04294f;"/><path d="M568.75,545.66a2,2,0,0,0-1.88,2.11c0,.7.09,1.39.15,2.07a2,2,0,0,0,2,1.82h.18a2,2,0,0,0,1.81-2.18c-.06-.63-.1-1.27-.14-1.92A2,2,0,0,0,568.75,545.66Z" style="fill:#04294f;"/><path d="M540.36,217.75h0a.08.08,0,0,0,0,0h0Z" style="fill:#04294f;"/><path d="M523,258.41c23.13,9.45,57.67,10.31,75.77,6.93s28.38,3.07,25.42,25.26c-4,29.92-1.51,48.55-1.51,48.55h0c7.35-3.43,11.8-7.51,14.56-12.09a28.75,28.75,0,0,0,3.32-8.31A69.51,69.51,0,0,0,642,307.9l.06-.86a8.58,8.58,0,0,1,3.31-6,18,18,0,0,0,5.42-21.12,8.48,8.48,0,0,1-.26-6.3,32.48,32.48,0,0,0,2.26-11.78l-.17-.06c0-.42.07-.84.07-1.27a17.73,17.73,0,0,0-.1-1.79c-4.48-10.42-14.62-21.93-25.44-31.82-1-.61-2-1.22-3-1.85-2.43-.39-5-.81-7.59-1.29h0c-1.08-.19-2.17-.41-3.25-.63l-.15,0c-1.23-.25-2.45-.52-3.66-.82h0c-10.06-2.45-19.26-6.41-21.54-14.31a.78.78,0,0,1-.05-.14,4.15,4.15,0,0,1-.2-.53c-.11-.41-.24-.81-.38-1.2a21.75,21.75,0,0,0-8.28-10.6,20.18,20.18,0,0,0-25.17,2.78,3.25,3.25,0,0,1-4.55.08,22.55,22.55,0,0,0-37.2,9.89,1.89,1.89,0,0,0-.1.31c-1.37,5.15-2.8,7.4-5.46,8.09h0l-.07,0h0a15.67,15.67,0,0,0-10,10.69h0c0,.07,0,.15,0,.22-.1.37-.18.75-.25,1.13v0a15.31,15.31,0,0,0-.23,3.47,15.15,15.15,0,0,0,.38,2.63,19.72,19.72,0,0,0,5.3,10A56.74,56.74,0,0,0,515.6,255,79.94,79.94,0,0,0,523,258.41ZM570,236a.5.5,0,0,1-.36-.06h0a11.13,11.13,0,0,0-3.78-1.41,8.32,8.32,0,0,0-3.38.15,7,7,0,0,0-3,1.7,8.65,8.65,0,0,0-2.14,3.35l0,0a.63.63,0,0,1-.82.36.65.65,0,0,1-.38-.4,6.76,6.76,0,0,1,.73-5.3,8,8,0,0,1,4.44-3.56,7.72,7.72,0,0,1,5.73.35,6.11,6.11,0,0,1,3.42,4.17A.53.53,0,0,1,570,236Zm-30.55-18.82c.25.12.51.25.75.39l.19.1,0,0,.05-.09.24-.36a12.5,12.5,0,0,1,5.2-4.25,12.16,12.16,0,0,1,6.5-.92,11.24,11.24,0,0,1,5.77,2.55.62.62,0,0,1,.07.87.63.63,0,0,1-.73.15,11,11,0,0,0-10.16.28,10.15,10.15,0,0,0-3.54,3.41l-.16.26-.08.13-.19.3a3.85,3.85,0,0,1-1.08,1,3.75,3.75,0,0,1-2.93.43,3.83,3.83,0,0,1-.71-.27l-.36-.19c-.18-.1-.37-.19-.56-.28a8.06,8.06,0,0,0-1.15-.45,11.65,11.65,0,0,0-9.58,1.17,13.25,13.25,0,0,0-5.94,8.53v0a.5.5,0,0,1-.6.37.47.47,0,0,1-.38-.41A12.52,12.52,0,0,1,525,218.57a13.62,13.62,0,0,1,12.85-2A14.4,14.4,0,0,1,539.41,217.18Z" style="fill:#04294f;"/><path d="M531.13,215.92a13.75,13.75,0,0,0-6.14,2.65A12.52,12.52,0,0,0,520.08,230a.47.47,0,0,0,.38.41.5.5,0,0,0,.6-.37v0a13.25,13.25,0,0,1,5.94-8.53,11.65,11.65,0,0,1,9.58-1.17,8.06,8.06,0,0,1,1.15.45c.19.09.38.18.56.28l.36.19a3.83,3.83,0,0,0,.71.27,3.75,3.75,0,0,0,2.93-.43,3.85,3.85,0,0,0,1.08-1l.19-.3.08-.13.16-.26a10.15,10.15,0,0,1,3.54-3.41,11,11,0,0,1,10.16-.28.63.63,0,0,0,.73-.15.62.62,0,0,0-.07-.87,11.24,11.24,0,0,0-5.77-2.55,12.16,12.16,0,0,0-6.5.92,12.5,12.5,0,0,0-5.2,4.25l-.24.36-.05.09,0,0-.19-.1c-.24-.14-.5-.27-.75-.39a14.4,14.4,0,0,0-1.57-.65A13.79,13.79,0,0,0,531.13,215.92Zm9.19,1.88a.08.08,0,0,1,0,0h0l0,0Z" style="fill:#00aee0;"/><path d="M567,231.21a7.72,7.72,0,0,0-5.73-.35,8,8,0,0,0-4.44,3.56,6.76,6.76,0,0,0-.73,5.3.65.65,0,0,0,.38.4.63.63,0,0,0,.82-.36l0,0a8.65,8.65,0,0,1,2.14-3.35,7,7,0,0,1,3-1.7,8.32,8.32,0,0,1,3.38-.15,11.13,11.13,0,0,1,3.78,1.41h0a.5.5,0,0,0,.36.06.53.53,0,0,0,.43-.62A6.11,6.11,0,0,0,567,231.21Z" style="fill:#00aee0;"/><path d="M658.13,218c5.27-5.11-3.43-14.4-8.75-9.21l.6.48A42.83,42.83,0,0,1,658.13,218Z" style="fill:#04294f;"/><path d="M601,194.88c3.33,17.48,10.46,24.48,15.56,28.86,2.59.48,5.16.9,7.59,1.29,1,.63,2,1.24,3,1.85,10.82,9.89,21,21.4,25.44,31.82h0c1.16-1.49,3.38-4.29,4.43-5.57,9.4-11.48,8.48-24.5,1.07-35.16a42.83,42.83,0,0,0-8.15-8.73l-.6-.48c-12.32-9.76-27.26-11.73-38.85-2.14a63.65,63.65,0,0,1-3.77-12.89c-2.32-12.19-13.25-14.86-21.23-12l.12.12C592.37,181.77,599.25,185.5,601,194.88Zm47.68,50.29,0-.06c.68-1.9,1.48-3.48,2-5.19s1.2-3.33,1.66-5.07.88-3.48,1.22-5.29.64-3.66,1-5.54V224a.63.63,0,0,1,1.2-.11,18.73,18.73,0,0,1,1.09,5.95,22.91,22.91,0,0,1-.64,6,17.51,17.51,0,0,1-2.38,5.68c-.3.43-.59.85-.91,1.26s-.7.77-1.06,1.14a11,11,0,0,1-2.49,1.85.51.51,0,0,1-.74-.61Zm-5.28-28.11a50,50,0,0,1,4-3.27h0a.63.63,0,0,1,.88.15.61.61,0,0,1,.08.58,22.88,22.88,0,0,1-2.53,4.71,32.75,32.75,0,0,1-3.34,4.09,24.29,24.29,0,0,1-4,3.46,15.31,15.31,0,0,1-4.91,2.27.53.53,0,0,1-.64-.39.55.55,0,0,1,.06-.4h0a29.45,29.45,0,0,1,3.18-4.13c1.11-1.26,2.3-2.43,3.5-3.6S642.16,218.19,643.43,217.06Zm-17.11-9.74a22.36,22.36,0,0,1,2.85-.89,19.74,19.74,0,0,1,3-.43,14.53,14.53,0,0,1,5.91.77.53.53,0,0,1,0,1h0c-1.84.74-3.58,1.14-5.29,1.71s-3.38,1-5.05,1.59-3.33,1.2-5,1.89-3.34,1.44-5,2.18l0,0a.63.63,0,0,1-.82-.33.61.61,0,0,1,.06-.6,17.76,17.76,0,0,1,4.25-4.14A22.78,22.78,0,0,1,626.32,207.32Z" style="fill:#00aee0;"/><path d="M613.34,223.11l-.15,0Z" style="fill:#00aee0;"/><polygon points="609.52 222.26 609.53 222.26 609.52 222.26 609.52 222.26" style="fill:#00aee0;"/><path d="M587.35,206.08c.21.55.4,1.13.58,1.73a.78.78,0,0,0,.05.14c2.28,7.9,11.48,11.86,21.54,14.31h0c1.21.3,2.43.57,3.66.82l.15,0c1.08.22,2.17.44,3.25.63h0c-5.1-4.38-12.23-11.38-15.56-28.86-1.78-9.38-8.66-13.11-15.38-13.06-.16,0-.32,0-.47,0-5.43,2.05-9.39,6.66-8.12,12.54a13,13,0,0,1,2,1.12A21.75,21.75,0,0,1,587.35,206.08Z" style="fill:#ffb400;"/><path d="M616.84,214.23a.61.61,0,0,0-.06.6.63.63,0,0,0,.82.33l0,0c1.7-.74,3.37-1.51,5-2.18s3.32-1.33,5-1.89,3.35-1.09,5.05-1.59,3.45-1,5.29-1.71h0a.53.53,0,0,0,0-1,14.53,14.53,0,0,0-5.91-.77,19.74,19.74,0,0,0-3,.43,22.36,22.36,0,0,0-2.85.89,22.78,22.78,0,0,0-5.23,2.77A17.76,17.76,0,0,0,616.84,214.23Z" style="fill:#04294f;"/><path d="M636.22,224.11a29.45,29.45,0,0,0-3.18,4.13h0a.55.55,0,0,0-.06.4.53.53,0,0,0,.64.39,15.31,15.31,0,0,0,4.91-2.27,24.29,24.29,0,0,0,4-3.46,32.75,32.75,0,0,0,3.34-4.09,22.88,22.88,0,0,0,2.53-4.71.61.61,0,0,0-.08-.58.63.63,0,0,0-.88-.15h0a50,50,0,0,0-4,3.27c-1.27,1.13-2.5,2.28-3.71,3.45S637.33,222.85,636.22,224.11Z" style="fill:#04294f;"/><path d="M649.45,245.78a11,11,0,0,0,2.49-1.85c.36-.37.73-.74,1.06-1.14s.61-.83.91-1.26a17.51,17.51,0,0,0,2.38-5.68,22.91,22.91,0,0,0,.64-6,18.73,18.73,0,0,0-1.09-5.95.63.63,0,0,0-1.2.11V224c-.33,1.88-.61,3.74-1,5.54s-.75,3.57-1.22,5.29-1.06,3.39-1.66,5.07-1.37,3.29-2,5.19l0,.06a.51.51,0,0,0,.74.61Z" style="fill:#04294f;"/><path d="M726.76,389.09l-2.53.76c-.85.28-1.71.55-2.56.89a16.32,16.32,0,0,0-2.6,1.14l0,0a1.24,1.24,0,0,0-.62.9,1.27,1.27,0,0,0,1,1.46,11.08,11.08,0,0,0,3,.05,14.46,14.46,0,0,0,3-.65,12.59,12.59,0,0,0,2.82-1.3,9.64,9.64,0,0,0,1.29-.94,7.3,7.3,0,0,0,1.19-1.3,1.12,1.12,0,0,0-1-1.76l-.54.05c-.33,0-.79.21-1.2.3Z" style="fill:#04294f;"/><path d="M462.65,352.41a18.89,18.89,0,0,1,1.18,7.31l8.74-8.75-.64-.36-.65-.39-1.19-.74-.47-.32c-.44-.29-.87-.59-1.29-.89l-.26-.19-.64-.46Z" style="fill:#ffb400;"/><path d="M425.16,389.9l-5.39,5.38h0c1.22,1.35,2.59,2.82,4.11,4.38h0l8.28-8.28A19,19,0,0,1,425.16,389.9Z" style="fill:#ffb400;"/><path d="M472.23,389.79l-28,28h0c1.49,1.13,3,2.23,4.57,3.28.12.09.25.17.38.25h0l21.74-21.74C471.3,396.26,471.73,393,472.23,389.79Z" style="fill:#ffb400;"/><path d="M509.22,361.29l.07-.08a1.38,1.38,0,0,1,.47-1.85,1.36,1.36,0,0,1,1.39,0l.1-.09.36-.37c-.21-.33-.39-.67-.57-1l-.07-.15c-.06-.12-.13-.25-.19-.38h0c-1.77,0-3.55,0-5.33,0h0l-.81,0h0l-14,14,0,0c-1.33,3.66-2.58,7.79-3.72,12.21l0,0Z" style="fill:#ffb400;"/><path d="M530,379l-.3.29-49.15,49.15,0,0c0,2.12,0,4.18,0,6.13-.07.82-.12,1.67-.19,2.51l0,0,55.14-55.14.34-.34Q532.92,380.38,530,379Z" style="fill:#ffb400;"/><path d="M640.44,371a47.29,47.29,0,0,1,4.39-12.88L499.37,503.53h0c1.86.74,3.93,1.51,6.2,2.29h0Z" style="fill:#ffb400;"/><path d="M654.61,450.71a18.84,18.84,0,0,1-4.66-3.83l-71.88,71.88h0c2.64.15,5.35.27,8.11.37h0Z" style="fill:#ffb400;"/><path d="M575.87,388.56l.53-.53c-.94,0-1.89.05-2.83.05-1.86,0-3.72,0-5.58-.13l-.5.5-86.4,86.41,0,0q.46,3.67,1.13,7.35h0Z" style="fill:#ffb400;"/><path d="M639.31,419c-.38-2.47-.68-5-.91-7.57L536.1,513.77h0q3.46.66,7.22,1.27h0Z" style="fill:#ffb400;"/><path d="M632.85,510.94l-8,8c1.8-.08,3.6-.16,5.45-.26l1.76-5.38Z" style="fill:#ffb400;"/><path d="M709.52,387.31l-53.17,53.16,0,0a10.37,10.37,0,0,0,3.61,4.14v0l.52.19h0l53.26-53.25C712.35,390.13,711,388.7,709.52,387.31Z" style="fill:#ffb400;"/><path d="M682.2,367.67l-30,29.94,0,0c-.27,3-.46,6-.55,9l0,0,35.95-35.95Q685,369.11,682.2,367.67Z" style="fill:#ffb400;"/><path d="M732.53,419.75c-.87-1.94-1.8-3.83-2.79-5.7L683,460.8v0a16.18,16.18,0,0,0,3.83,4.46l.11.08Z" style="fill:#ffb400;"/><path d="M539.19,640.05a149.52,149.52,0,0,1-11.78,9.71c-4.07,3.06-8.28,5.93-12.58,8.65s-8.72,5.27-13.24,7.62a147.56,147.56,0,0,1-13.92,6.31,1.2,1.2,0,0,1-1-2.18h0q6.63-3.61,13.15-7.34c4.34-2.53,8.64-5.1,12.88-7.78s8.45-5.41,12.62-8.21,8.31-5.65,12.41-8.57a1.16,1.16,0,0,1,1.46,1.8Z" style="fill:#04294f;"/><path d="M750.54,579.33c.69,2.47,1.19,5,1.7,7.5s.85,5.07,1.12,7.62a127.37,127.37,0,0,1,.79,15.38,138.16,138.16,0,0,1-1,15.35,130.74,130.74,0,0,1-2.81,15.1,1.21,1.21,0,0,1-2.37-.44h0c.59-5,1.12-10,1.54-15s.61-10,.65-15-.07-10-.38-15-.82-10-1.49-15a1.16,1.16,0,0,1,2.26-.46Z" style="fill:#04294f;"/><path d="M489.79,261.08a2.48,2.48,0,0,0-2.09-3.78h0l-9.66,0,4.13-15.2a2.61,2.61,0,0,0-3.44-3.12h0l-26.55,10.12,8.35-38.48a2.86,2.86,0,0,0-4.61-2.81h0l-18.73,15.36L426.5,155.44a3,3,0,0,0-1.64-2.21,3,3,0,0,0-3.93,1.4l-22.49,47.28L391.64,190v0a3,3,0,0,0-5.39.59L381.06,207l-18.8-28.2v0a2.84,2.84,0,0,0-5.2,1.52l-1.56,55.39-13.36-4.95h0a2.66,2.66,0,0,0-3.3,3.71l6.51,12.84-18.49-4.63h0a2.52,2.52,0,0,0-2.87,3.53l22.51,47-28.53-2.92h0a2.06,2.06,0,0,0-1.75,3.41L344.25,326A1.81,1.81,0,0,0,347,323.6L322.65,295,350,298.1a2.18,2.18,0,0,0,1.22-.2,2.26,2.26,0,0,0,1.09-3v0l-21.52-46,18.83,4.85a2.6,2.6,0,0,0,3-3.68v0l-5.92-11.87,10.53,4a2.81,2.81,0,0,0,.88.18,2.73,2.73,0,0,0,2.81-2.64v0l1.61-50.28,17.15,25.82a2.92,2.92,0,0,0,1.51,1.15,2.88,2.88,0,0,0,3.62-1.86h0l5.06-15.71c2.08,3.68,4.16,7.37,6.27,11v0a3,3,0,0,0,5.26-.21l20.82-43.86,10,63.31v0a2.81,2.81,0,0,0,.64,1.39,2.91,2.91,0,0,0,4.1.39l16.29-13.46-7.5,35.44v0a2.75,2.75,0,0,0,3.68,3.13l26.44-10.34-3.54,13.45v0a2.67,2.67,0,0,0-.08.64,2.52,2.52,0,0,0,2.54,2.51l8.54,0L473.1,278.9l-12.41,20.45,0,0A2.21,2.21,0,0,0,463,302.7l20.83-4-17.55,32.11a1.73,1.73,0,0,0,3,1.69l20.15-35.63a2,2,0,0,0,.23-1.36,2,2,0,0,0-2.35-1.63h0l-20.19,3.6,10-16.05Z" style="fill:#04294f;"/><path d="M465.35,456,461,447.92c-1.42-2.7-2.92-5.35-4.4-8s-3-5.33-4.48-8a1.81,1.81,0,0,0-3.23,1.64c1.23,2.79,2.52,5.56,3.8,8.33s2.55,5.54,3.88,8.28l3.49,7.25-36.94-23.87a2.88,2.88,0,0,0-4.43,2.63h0l2,27q-5.37-8.76-10.78-17.48v0a2.91,2.91,0,0,0-1-1,3,3,0,0,0-4.06,1.09L385.73,479l-2.08-40.6v0a2.86,2.86,0,0,0-.11-.64,2.92,2.92,0,0,0-3.6-2l-16.5,4.78c-3.39,1-6.76,2-10.13,3,.72-1.22,1.45-2.45,2.15-3.69,1.81-3.2,3.67-6.36,5.42-9.6a1.74,1.74,0,0,0-2.93-1.85c-2.16,3-4.22,6-6.33,9s-4.1,6.09-6.15,9.13a2.58,2.58,0,0,0,2.8,3.93l.11,0c5.53-1.49,11.08-2.92,16.59-4.47l13-3.61,2.35,47a2.95,2.95,0,0,0,5.5,1.32l21.6-37.52q7.25,11.81,14.55,23.58h0a3,3,0,0,0,5.46-1.79l-2.58-33.38,40.65,26.2a2.84,2.84,0,0,0,4.08-3.68C468.25,461.34,466.78,458.66,465.35,456Z" style="fill:#04294f;"/><path d="M443.42,195.73c2.74-1.24,5.45-2.54,8.16-3.85s5.39-2.65,8.05-4,5.34-2.73,8-4.14c1.05-.56,2.1-1.12,3.16-1.67-.42,3.26-.83,6.52-1.18,9.79-.56,5-1.18,10-1.68,15.06V207c0,.1,0,.21,0,.31a3,3,0,0,0,3,2.93c3.36,0,6.73-.1,10.09-.2-.25.63-.49,1.26-.74,1.88-.77,1.93-1.47,3.88-2.19,5.83s-1.39,3.91-2.08,5.87-1.3,4-1.89,6a.75.75,0,0,0,1.35.6c1.12-1.76,2.17-3.56,3.22-5.36s2.06-3.61,3-5.44,2-3.65,2.92-5.5,1.91-3.67,2.82-5.53a2.91,2.91,0,0,0,.27-1.06,2.63,2.63,0,0,0-2.54-2.72H485c-3.58-.12-7.17-.19-10.75-.23.44-3.94.84-7.87,1.26-11.81.56-5,1-10.06,1.46-15.09v-.07a2.79,2.79,0,0,0-.37-1.65,2.75,2.75,0,0,0-3.75-1c-2.58,1.53-5.11,3.13-7.67,4.7s-5.09,3.17-7.62,4.78-5,3.26-7.55,4.9-5,3.34-7.45,5.08a.91.91,0,0,0,.9,1.58Z" style="fill:#04294f;"/><path d="M441,493.4c-.22-3.33-.52-6.65-.79-10s-.61-6.64-1-10a.9.9,0,0,0-.85-.8.91.91,0,0,0-1,.86c-.19,3.33-.31,6.67-.42,10s-.19,6.67-.21,10-.1,6.67-.09,10c0,.8,0,1.59,0,2.39-1-1.14-1.94-2.28-2.93-3.4-2.64-3-5.23-6-7.91-9l0,0A3,3,0,0,0,420.7,495c-.47,2.95-.91,5.9-1.34,8.86l-1.18-1.39c-1.69-2-3.44-4-5.18-6s-3.52-3.94-5.29-5.91-3.59-3.89-5.45-5.79a.74.74,0,0,0-1.16.92c1.39,2.25,2.84,4.47,4.3,6.68s2.94,4.39,4.47,6.55,3,4.35,4.56,6.48,3.07,4.3,4.64,6.42a2.66,2.66,0,0,0,4.73-1.06l0-.15q.85-4.26,1.64-8.54c1.3,1.44,2.6,2.89,3.88,4.34,2.64,3,5.38,5.9,8.08,8.84l.06.07a2.74,2.74,0,0,0,4.75-2c-.13-3.33-.36-6.66-.55-10S441.28,496.72,441,493.4Z" style="fill:#04294f;"/><path d="M379.5,185a.93.93,0,0,0,1.21-.5c1.14-2.76,2.1-5.57,3.07-8.37s1.84-5.63,2.68-8.47q1.4-4.71,2.63-9.45c.86,1.58,1.74,3.16,2.67,4.71,1.14,1.92,2.31,3.83,3.55,5.7s2.51,3.73,3.94,5.51a.76.76,0,0,0,.77.26.77.77,0,0,0,.56-.91c-.54-2.22-1.26-4.35-2-6.48s-1.53-4.22-2.36-6.29-1.71-4.12-2.62-6.16-1.86-4.05-2.84-6.05a3,3,0,0,0-2-1.6,3,3,0,0,0-3.61,2.21h0q-2.08,8.63-3.72,17.34c-.54,2.9-1,5.83-1.46,8.76s-.83,5.88-1.06,8.86A.92.92,0,0,0,379.5,185Z" style="fill:#04294f;"/><path d="M320.43,281.38a.94.94,0,0,0,1.56-.93,57.36,57.36,0,0,0-2.17-5.89c-.81-1.91-1.68-3.78-2.61-5.63q-1.54-3-3.24-6c.93,0,1.86.07,2.79.07,1.43,0,2.85,0,4.29-.12s2.88-.22,4.33-.44a.77.77,0,0,0,.17-1.47c-1.36-.55-2.73-1-4.11-1.43s-2.76-.78-4.14-1.11c-2.77-.67-5.56-1.2-8.36-1.62a2.83,2.83,0,0,0-1.81.32A2.87,2.87,0,0,0,306,261l.1.18a115.85,115.85,0,0,0,6.51,10.49q1.77,2.54,3.7,5A57.3,57.3,0,0,0,320.43,281.38Z" style="fill:#04294f;"/><path d="M373.31,470.45a56.5,56.5,0,0,0-5.84,1.42q-2.87.84-5.65,1.86c-1.62.58-3.22,1.21-4.8,1.87a1.33,1.33,0,0,0,.05-.19c.67-2.19,1.28-4.4,1.86-6.61s1.1-4.46,1.61-6.7.93-4.52,1.24-6.83a.91.91,0,0,0-.46-.92.92.92,0,0,0-1.26.34c-1.15,2-2.14,4.11-3.13,6.19s-1.9,4.19-2.77,6.31-1.72,4.25-2.52,6.39-1.58,4.3-2.31,6.47a3,3,0,0,0,.11,2.19,3,3,0,0,0,4,1.49h0c1.79-.81,3.58-1.65,5.33-2.54s3.5-1.81,5.22-2.79,3.42-2,5.08-3.08a56.81,56.81,0,0,0,4.88-3.52.76.76,0,0,0-.62-1.34Z" style="fill:#04294f;"/></svg>