<?xml version="1.0" encoding="iso-8859-1"?>
<!-- Generator: Adobe Illustrator 23.0.2, SVG Export Plug-In . SVG Version: 6.00 Build 0)  -->
<svg version="1.1" id="Layer_2" xmlns="http://www.w3.org/2000/svg" xmlns:xlink="http://www.w3.org/1999/xlink" x="0px" y="0px"
	 viewBox="0 0 1080 1080" style="enable-background:new 0 0 1080 1080;" xml:space="preserve">
<g>
	<g id="XMLID_2_">
		<g>
			<path style="fill:#FFB400;" d="M864.686,696.7c4.154,2.566,6.163,6.856,6.082,11.105c-0.081,4.534-2.498,9.001-7.141,11.295
				L471.682,912.066c-3.951,1.955-8.634,1.724-12.381-0.584l-225.072-138.88c-4.073-2.511-6.068-6.666-6.082-10.833
				c-0.014-4.616,2.403-9.232,7.154-11.567l391.945-192.979c3.951-1.941,8.634-1.724,12.381,0.597L864.686,696.7z M503.341,881.344
				l323.632-159.339l-223.525-137.93L279.816,743.414L503.341,881.344z"/>
			<path style="fill:#FF3A00;" d="M870.768,707.805c0,34.93-4.738,52.511-25.319,62.638L477.248,951.748
				c-7.426,3.652-16.196,3.231-23.228-1.113l-200.568-123.77l0.014-0.014c-19.861-12.327-25.319-30.152-25.319-65.082
				c0.014,4.168,2.009,8.322,6.082,10.833l225.072,138.88c3.747,2.308,8.431,2.539,12.381,0.584L863.627,719.1
				C868.27,716.806,870.687,712.34,870.768,707.805z"/>
			<polygon style="fill:#04294F;" points="826.973,722.006 503.341,881.344 279.816,743.414 603.448,584.076 			"/>
		</g>
	</g>
	<path style="fill:#00AEE0;" d="M912.518,327.448c-31.605-19.701-17.456-42.4-49.061-62.101c-31.601-19.698-45.75,3-77.351-16.698
		c-31.602-19.699-17.453-42.398-49.055-62.097c-31.601-19.698-45.75,3.001-77.35-16.697c-6.553-4.085-11.183-9.241-14.766-14.836
		l-0.008,0.019c-19.156-30.413-68.072-32.592-92.795-3.658c-0.914,1.227-1.872,2.441-2.883,3.635
		c-0.006,0.008-0.012,0.016-0.018,0.024l0-0.002c-4.989,5.887-11.261,11.304-19.875,15.548
		c-40.066,19.739-51.886-4.255-91.952,15.483c-40.064,19.738-28.243,43.732-68.307,63.469
		c-40.063,19.737-51.883-4.257-91.946,15.481c-40.061,19.736-28.24,43.73-68.301,63.466c-40.062,19.737-51.883-4.257-91.945,15.48
		l168.339,399.454l218.1,137.934L821.538,722.01l168.339-377.859C958.273,324.45,944.123,347.149,912.518,327.448z"/>
	<g>
		<defs>
			<polygon id="SVGID_1_" points="285.244,743.417 503.039,877.582 821.538,722.01 603.443,584.075 			"/>
		</defs>
		<clipPath id="SVGID_2_">
			<use xlink:href="#SVGID_1_"  style="overflow:visible;"/>
		</clipPath>
	</g>
	<g>
		<ellipse style="fill:#FFFFFF;" cx="738.968" cy="641.532" rx="10.002" ry="4.123"/>
		<path style="fill:#04294F;" d="M738.968,647.655c-5.78,0-12.001-1.916-12.001-6.123s6.221-6.123,12.001-6.123
			s12.002,1.916,12.002,6.123S744.748,647.655,738.968,647.655z M730.99,641.532c0.393,0.661,3.104,2.123,7.978,2.123
			c4.874,0,7.586-1.462,7.979-2.123c-0.393-0.661-3.104-2.123-7.979-2.123C734.095,639.409,731.383,640.871,730.99,641.532z
			 M746.979,641.6h0.01H746.979z"/>
	</g>
	<g>
		<path style="fill:#04294F;" d="M434.796,669.044l-76.911,38.365l-76.962,38.261l0.209-4.389l111.932,68.696l111.836,68.852
			l-2.866-0.137l161.853-79.588l80.971-39.703l81.018-39.607l-0.206,4.32l-119.21-74.343c-0.847-0.528-1.105-1.643-0.577-2.49
			c0.525-0.842,1.63-1.102,2.475-0.586l119.907,73.213c1.162,0.709,1.529,2.227,0.819,3.389c-0.25,0.409-0.6,0.72-1,0.92
			l-0.026,0.012l-80.794,40.063l-80.841,39.967L504.654,884.01c-0.947,0.467-2.028,0.378-2.866-0.137l-111.694-69.082
			l-111.598-69.238l-0.013-0.008c-1.176-0.729-1.538-2.274-0.808-3.45c0.257-0.414,0.624-0.731,1.031-0.931l77.254-37.669
			l77.305-37.565c0.862-0.419,1.9-0.06,2.319,0.802C435.998,667.589,435.646,668.62,434.796,669.044z"/>
	</g>
	<g>
		<path style="fill:#04294F;" d="M286.7,724.219c10.54-5.778,21.19-11.332,31.866-16.833c5.343-2.741,10.686-5.48,16.055-8.169
			c5.356-2.714,10.727-5.398,16.113-8.052c10.745-5.361,21.558-10.585,32.415-15.719c10.882-5.083,21.789-10.115,32.879-14.777
			c0.251-0.106,0.541,0.012,0.647,0.264c0.098,0.233,0.004,0.499-0.211,0.621c-10.457,5.946-21.096,11.523-31.76,17.049
			c-10.689,5.474-21.423,10.859-32.224,16.107c-5.387,2.651-10.79,5.271-16.207,7.861c-5.404,2.616-10.834,5.181-16.264,7.744
			c-10.87,5.107-21.766,10.161-32.772,14.992c-0.307,0.135-0.665-0.005-0.799-0.312C286.309,724.705,286.429,724.369,286.7,724.219z
			"/>
	</g>
	<g>
		<path style="fill:#04294F;" d="M831.34,676.829c-8.219-4.451-16.306-9.115-24.364-13.828c-4.023-2.366-8.045-4.733-12.037-7.149
			c-4.007-2.391-7.997-4.811-11.968-7.26c-7.975-4.847-15.869-9.823-23.711-14.885c-7.812-5.111-15.594-10.269-23.16-15.779
			c-0.221-0.161-0.269-0.47-0.109-0.691c0.146-0.2,0.413-0.259,0.626-0.148c8.317,4.291,16.418,8.934,24.49,13.624
			c8.041,4.739,16.03,9.563,23.938,14.518c3.97,2.452,7.922,4.932,11.857,7.441c3.95,2.484,7.869,5.017,11.788,7.552
			c7.826,5.088,15.622,10.225,23.286,15.575c0.275,0.192,0.342,0.57,0.15,0.845C831.948,676.899,831.608,676.975,831.34,676.829z"/>
	</g>
	<g>
		<path style="fill:#04294F;" d="M777.385,667.276c-2.293-0.81-4.458-1.827-6.579-2.916c-2.12-1.09-4.196-2.252-6.221-3.496
			c-2.029-1.237-4.003-2.563-5.936-3.958c-1.931-1.396-3.816-2.867-5.573-4.545c-0.738-0.705-0.765-1.874-0.06-2.612
			c0.519-0.544,1.292-0.7,1.958-0.464c2.288,0.818,4.448,1.843,6.562,2.943c2.113,1.102,4.184,2.271,6.2,3.53
			c2.02,1.252,3.99,2.586,5.915,3.992c1.924,1.407,3.804,2.886,5.557,4.572c0.706,0.68,0.728,1.803,0.049,2.51
			C778.758,667.351,778.021,667.5,777.385,667.276z"/>
	</g>
	<g>
		<path style="fill:#FF3A00;" d="M346.719,821.067l1.681,1.037c0.663,0.409,1.489,0.448,2.188,0.104l10.444-5.142
			c1.596-0.786,1.703-3.021,0.189-3.955l-1.68-1.037c-0.663-0.409-1.489-0.448-2.188-0.104l-10.444,5.142
			C345.312,817.898,345.205,820.133,346.719,821.067z"/>
		<path style="fill:#FF3A00;" d="M388.557,829.98l-17.336-10.698c-0.663-0.409-1.489-0.448-2.188-0.104l-10.444,5.142
			c-1.596,0.786-1.702,3.021-0.189,3.955l17.336,10.698c0.663,0.409,1.489,0.448,2.188,0.104l10.444-5.142
			C389.964,833.149,390.07,830.914,388.557,829.98z"/>
		<path style="fill:#FF3A00;" d="M349.538,805.903l-8.196-5.058c-0.663-0.409-1.489-0.448-2.187-0.104l-10.444,5.142
			c-1.596,0.786-1.703,3.021-0.189,3.955l8.196,5.058c0.663,0.409,1.489,0.448,2.188,0.104l10.444-5.142
			C350.946,809.072,351.052,806.837,349.538,805.903z"/>
		<path style="fill:#FF3A00;" d="M396.37,836.047l-10.444,5.142c-1.596,0.786-1.703,3.021-0.189,3.955l6.101,3.765
			c0.663,0.409,1.489,0.448,2.187,0.104l10.444-5.142c1.596-0.786,1.703-3.021,0.189-3.955l-6.101-3.765
			C397.895,835.742,397.069,835.703,396.37,836.047z"/>
	</g>
	<path style="fill:#FFB400;" d="M813.567,765.309c7.497-4.426,15.213-8.406,22.983-12.278c7.792-3.827,15.639-7.543,23.708-10.81
		c0.618-0.25,1.323,0.048,1.573,0.666c0.228,0.563,0.001,1.196-0.507,1.495c-7.502,4.415-15.226,8.381-23.005,12.235
		c-7.801,3.81-15.655,7.51-23.729,10.766c-0.594,0.24-1.27-0.048-1.51-0.642C812.864,766.202,813.081,765.595,813.567,765.309z"/>
	<path style="fill:#FFB400;" d="M361.014,872.552l41.703,25.185l41.591,25.366l10.378,6.374c0.854,0.519,1.754,1.09,2.57,1.566
		c0.791,0.466,1.614,0.881,2.469,1.216c1.7,0.696,3.511,1.111,5.341,1.252c1.829,0.145,3.683,0.024,5.47-0.397
		c0.895-0.199,1.774-0.474,2.626-0.813c0.435-0.147,0.839-0.37,1.261-0.549l1.353-0.665l10.914-5.405l43.675-21.58l43.716-21.496
		l43.745-21.439l43.786-21.355l43.85-21.225c0.599-0.29,1.319-0.039,1.609,0.56c0.287,0.593,0.043,1.306-0.543,1.601l-43.527,21.88
		l-43.591,21.75l-43.632,21.667l-43.66,21.609l-43.702,21.525l-10.93,5.372l-1.382,0.674c-0.51,0.221-1.003,0.482-1.53,0.664
		c-1.034,0.408-2.1,0.739-3.186,0.98c-2.167,0.504-4.413,0.649-6.628,0.469c-2.216-0.175-4.407-0.683-6.465-1.528
		c-1.034-0.408-2.03-0.911-2.985-1.477c-0.935-0.55-1.745-1.074-2.624-1.612l-10.351-6.417l-41.323-25.8l-41.211-25.981
		c-0.54-0.341-0.702-1.055-0.362-1.595C359.774,872.392,360.476,872.228,361.014,872.552z"/>
	<path style="fill:#FFB400;" d="M241.414,798.748c3.03,1.651,6.006,3.391,9.01,5.084l8.92,5.23
		c5.946,3.488,11.824,7.086,17.702,10.684c5.858,3.631,11.713,7.266,17.502,11.008l8.681,5.618c2.862,1.924,5.754,3.799,8.59,5.766
		c0.548,0.38,0.684,1.131,0.304,1.679c-0.354,0.51-1.036,0.66-1.57,0.372c-3.029-1.653-6.002-3.397-9.005-5.092l-8.914-5.239
		c-5.941-3.496-11.815-7.1-17.688-10.708c-5.852-3.64-11.704-7.281-17.488-11.031l-8.675-5.628c-2.861-1.926-5.75-3.805-8.585-5.774
		c-0.525-0.365-0.656-1.087-0.291-1.612C240.248,798.616,240.902,798.472,241.414,798.748z"/>
	<path style="fill:#04294F;" d="M346.619,855.08l-20.43-12.607c-1.501-0.926-3.469-0.456-4.389,1.049l-3.895,6.374
		c-0.914,1.496-0.447,3.45,1.045,4.37l28.22,17.414c2.551,1.574,5.665-0.927,4.679-3.757l-3.895-11.181
		C347.713,856.051,347.242,855.464,346.619,855.08z"/>
	<g>
		<path style="fill:#04294F;" d="M769.634,779.218c-0.183-0.226-0.392-0.435-0.659-0.599c-0.078-0.048-0.165-0.068-0.245-0.11
			c-0.047-0.028-0.089-0.068-0.136-0.094c0,0-0.015,0.012-0.027,0.021c-1.16-0.552-2.508-0.58-3.674-0.004l-51.122,25.247
			c-1.442,0.712-2.354,2.181-2.354,3.789V819.7c0,1.469,0.763,2.833,2.015,3.601l0.635,0.39c0.095,0.058,0.196,0.1,0.294,0.15
			c0.003,0.002,0.003,0.006,0.007,0.008c0.009,0.004,0.018,0.006,0.027,0.01c0.517,0.258,1.068,0.408,1.626,0.442
			c1.836,0.22,3.542-0.513,5.34-1.401c2.325-1.148,50.812-37.734,50.812-37.734C772.174,783.151,771.163,780.684,769.634,779.218z"
			/>
		<g>
			<g>
				<path style="fill:#FFB400;" d="M716.604,809.796v10.87c0,2.111,2.216,3.488,4.109,2.553l49.874-24.631
					c0.972-0.48,1.587-1.47,1.587-2.553v-10.87c0-2.111-2.216-3.488-4.109-2.553l-49.874,24.631
					C717.219,807.723,716.604,808.712,716.604,809.796z"/>
			</g>
		</g>
		<g>
			<path style="fill:#04294F;" d="M747.24,796.304c0.519,1.02,0.819,2.04,1.032,3.059c0.21,1.02,0.322,2.04,0.353,3.059
				c0.036,1.02-0.015,2.039-0.231,3.059c-0.235,1.02-0.555,2.04-1.267,3.059c-0.19,0.272-0.565,0.339-0.837,0.148
				c-0.059-0.041-0.109-0.093-0.148-0.148c-0.713-1.02-1.032-2.04-1.267-3.059c-0.216-1.02-0.267-2.04-0.231-3.059
				c0.031-1.02,0.143-2.04,0.353-3.059c0.213-1.02,0.513-2.04,1.032-3.059c0.17-0.335,0.58-0.468,0.915-0.297
				C747.076,796.074,747.178,796.18,747.24,796.304z"/>
		</g>
	</g>
	<g>
		<path style="fill:#04294F;" d="M806.679,760.96c-0.183-0.226-0.392-0.435-0.659-0.599c-0.078-0.048-0.165-0.068-0.245-0.11
			c-0.047-0.028-0.089-0.068-0.136-0.094c0,0-0.015,0.012-0.027,0.021c-1.16-0.552-2.508-0.58-3.674-0.004l-14.013,6.972
			c-1.442,0.712-2.354,2.181-2.354,3.789v12.232c0,1.469,0.763,2.833,2.015,3.601l0.635,0.39c0.095,0.058,0.196,0.1,0.294,0.15
			c0.003,0.002,0.003,0.006,0.007,0.008c0.009,0.004,0.018,0.006,0.027,0.01c0.517,0.258,1.068,0.408,1.626,0.442
			c1.836,0.22,3.542-0.513,5.34-1.401c2.325-1.148,13.703-19.459,13.703-19.459C809.219,764.893,808.208,762.427,806.679,760.96z"/>
		<g>
			<g>
				<path style="fill:#FFB400;" d="M790.758,773.263v10.87c0,2.111,2.216,3.488,4.109,2.553l12.765-6.355
					c0.972-0.48,1.587-1.47,1.587-2.553v-10.87c0-2.111-2.216-3.488-4.109-2.553l-12.765,6.355
					C791.373,771.19,790.758,772.18,790.758,773.263z"/>
			</g>
		</g>
	</g>
</g>
<g>
	<path style="fill:#04294F;" d="M654.487,722.468c-2.762,0-5-2.238-5-5v-21.411c0-2.762,2.238-5,5-5s5,2.238,5,5v21.411
		C659.487,720.229,657.249,722.468,654.487,722.468z"/>
</g>
<g>
	<path style="fill:#04294F;" d="M569.04,773.762c-2.762,0-5-2.238-5-5v-5.411c0-2.762,2.238-5,5-5s5,2.238,5,5v5.411
		C574.04,771.523,571.802,773.762,569.04,773.762z"/>
</g>
<g>
	<path style="fill:#04294F;" d="M582.609,823.747c-1.657,0-3-1.343-3-3v-24.411c0-1.657,1.343-3,3-3s3,1.343,3,3v24.411
		C585.609,822.404,584.267,823.747,582.609,823.747z"/>
</g>
<g>
	<path style="fill:#04294F;" d="M432.315,753.363c-2.209,0-4-1.791-4-4v-29.411c0-2.209,1.791-4,4-4s4,1.791,4,4v29.411
		C436.315,751.572,434.524,753.363,432.315,753.363z"/>
</g>
<g>
	<path style="fill:#04294F;" d="M647.494,758.625c-1.657,0-3-1.343-3-3v-5.411c0-1.657,1.343-3,3-3s3,1.343,3,3v5.411
		C650.494,757.282,649.151,758.625,647.494,758.625z"/>
</g>
<g>
	<path style="fill:#04294F;" d="M476.067,805.881c-1.657,0-3-1.343-3-3v-5.411c0-1.657,1.343-3,3-3s3,1.343,3,3v5.411
		C479.067,804.538,477.724,805.881,476.067,805.881z"/>
</g>
<path style="fill:#00AEE0;" d="M873.685,658.596c8.546-18.377,17.424-36.582,26.38-54.748c4.493-9.075,8.988-18.15,13.559-27.185
	l6.826-13.568l6.907-13.527l6.907-13.527l6.992-13.484c4.635-9.002,9.41-17.933,14.14-26.887
	c9.58-17.846,19.234-35.653,29.439-53.178c0.206-0.353,0.659-0.473,1.012-0.267c0.329,0.192,0.454,0.602,0.303,0.943
	c-8.295,18.505-17.14,36.728-26.06,54.913c-4.52,9.061-8.995,18.146-13.61,27.159l-6.883,13.539l-6.968,13.496l-6.968,13.496
	l-7.049,13.454c-4.678,8.98-9.433,17.921-14.19,26.861c-9.544,17.864-19.164,35.689-29.119,53.342
	c-0.247,0.438-0.802,0.592-1.239,0.346C873.647,659.538,873.488,659.022,873.685,658.596z"/>
<path style="fill:#00AEE0;" d="M912.436,638.591c3.505-6.33,7.315-12.444,11.197-18.508c1.954-3.022,3.911-6.043,5.937-9.015
	l3.011-4.477l3.066-4.438c4.107-5.905,8.321-11.733,12.736-17.42c4.457-5.657,8.977-11.269,14.006-16.522
	c0.285-0.298,0.759-0.309,1.057-0.023c0.243,0.233,0.294,0.591,0.151,0.877c-3.274,6.493-7.056,12.628-10.901,18.717
	c-3.887,6.06-7.975,11.977-12.171,17.819l-3.161,4.371l-3.216,4.333c-2.125,2.902-4.319,5.754-6.516,8.605
	c-4.421,5.683-8.913,11.315-13.71,16.731c-0.335,0.378-0.913,0.413-1.291,0.078C912.303,639.429,912.233,638.958,912.436,638.591z"
	/>
<path style="fill:#00AEE0;" d="M197.299,622.637c-9.087-15.965-17.841-32.1-26.517-48.276c-4.324-8.095-8.645-16.192-12.89-24.327
	l-6.398-12.188l-6.318-12.229l-6.318-12.229l-6.233-12.272c-4.181-8.168-8.223-16.408-12.309-24.625
	c-8.053-16.496-16.031-33.03-23.459-49.846c-0.165-0.374,0.004-0.811,0.378-0.977c0.347-0.153,0.749-0.018,0.937,0.301
	c9.338,15.836,18.125,31.954,26.838,48.111c4.296,8.109,8.637,16.195,12.839,24.353l6.341,12.217l6.256,12.26l6.256,12.26
	l6.176,12.302c4.138,8.191,8.199,16.42,12.258,24.651c8.089,16.477,16.101,32.994,23.779,49.682c0.21,0.457,0.01,0.997-0.446,1.207
	C198.039,623.211,197.531,623.041,197.299,622.637z"/>
<path style="fill:#00AEE0;" d="M233.608,693.352c-2.884-3.874-5.419-7.927-7.905-12.006c-2.456-4.094-4.781-8.255-6.998-12.472
	c-2.224-4.213-4.332-8.486-6.22-12.871c-1.862-4.399-3.612-8.856-4.837-13.582c-0.105-0.405,0.138-0.819,0.543-0.924
	c0.293-0.076,0.59,0.031,0.772,0.248c3.127,3.75,5.729,7.769,8.219,11.845c2.464,4.09,4.708,8.293,6.835,12.555
	c2.134,4.259,4.161,8.573,6.057,12.955c1.867,4.397,3.683,8.819,5.151,13.42c0.155,0.485-0.113,1.004-0.598,1.158
	C234.243,693.803,233.837,693.658,233.608,693.352z"/>
<path style="fill:#00AEE0;" d="M188.942,669.268c-6.069-8.123-11.821-16.446-17.499-24.816c-2.825-4.193-5.648-8.388-8.399-12.629
	l-4.155-6.343l-4.079-6.391c-5.482-8.494-10.793-17.095-15.925-25.81c-5.083-8.746-10.1-17.533-14.591-26.653
	c-0.181-0.368-0.03-0.814,0.339-0.995c0.32-0.158,0.699-0.063,0.912,0.206c6.308,7.972,12.089,16.276,17.805,24.622
	c5.666,8.377,11.153,16.868,16.47,25.466l4.02,6.428l3.944,6.476c2.649,4.305,5.225,8.656,7.799,13.008
	c5.12,8.722,10.167,17.491,14.897,26.46c0.235,0.445,0.064,0.997-0.381,1.232C189.695,669.741,189.205,669.622,188.942,669.268z"/>
<path style="fill:#04294F;" d="M680.4,556.54l-45.15,126.75v0.01c0,0-0.48,0.23-1.55,0.62c-0.03,0.01-0.06,0.02-0.1,0.03
	c-3.41,1.23-12.48,3.97-30.41,6.23c-9.86,1.24-9.83,3.32-4.87,4.97c7.06,2.33,24.14,3.78,36.93,0.6v69.35
	c0,12.04-9.77,21.81-21.82,21.81c-12.04,0-21.81-9.77-21.81-21.81v-4.54c0-6.24-2.53-11.89-6.62-15.98
	c-4.09-4.1-9.74-6.63-15.99-6.63c-12.49,0-22.61,10.13-22.61,22.61v38.01c0,15.61-12.65,28.26-28.26,28.26s-28.26-12.65-28.26-28.26
	v-44.93c0-4.94-4.01-8.94-8.95-8.94s-8.94,4-8.94,8.94v21.64c0,6.46-5.24,11.7-11.71,11.7c-6.46,0-11.7-5.24-11.7-11.7V667.74
	c-48.36-23.97-120.03-75.57-129.65-205.01c-0.06-0.84-0.12-1.68-0.18-2.52c-1.66-24.51-1.1-51.78,2.24-82.14v-0.03
	c0-0.04,0-0.08,0.01-0.12c0.23-2.1,0.47-4.22,0.73-6.35c0-0.01,0-0.01,0-0.02c0-0.02,0-0.05,0.01-0.08v-0.01
	c0.01-0.02,0.01-0.03,0.01-0.05h0.01l12.02-4.41h0.01l5.2-1.91H339l61.66-22.59l2.17-0.8l58.55-21.45l3.06-1.12l61.46-22.51
	l2.82-1.04l11.28-4.13l2.76,43.25l0.04,0.62c-19.94,83.7,14.9,158.24,55.41,199.11c1.72,1.72,3.44,3.39,5.16,4.99
	C633.78,567.66,666.18,576.72,680.4,556.54z"/>
<g>
	<g id="XMLID_1_">
		<g>
			<path style="fill:#FF3A00;" d="M498.907,529.203l-0.014-0.041l278.303-137.034h0.014v0.027c0,0,4.073,0,4.073,68.313
				s-4.073,68.313-4.073,68.313v-0.027L498.92,665.775h-0.014c-0.543-0.394-4.005-5.308-4.005-68.286
				S498.364,529.596,498.907,529.203z"/>
			<polygon style="fill:#FF3A00;" points="584.964,273.49 777.196,392.128 498.893,529.162 498.866,529.176 306.62,410.537 			"/>
			<path style="fill:#FFB400;" d="M498.907,665.775l-0.041,0.027L306.62,547.163c0,0-4.073,0-4.073-68.313
				s4.073-68.313,4.073-68.313l192.246,118.638l0.027-0.014l0.014,0.041c-0.543,0.394-4.005,5.308-4.005,68.286
				S498.364,665.381,498.907,665.775z"/>
		</g>
	</g>
	<g>
		<polygon style="fill:#FFFFFF;" points="391.307,462.802 350.41,437.566 628.497,300.362 669.393,325.598 		"/>
	</g>
	<path style="fill:#FFFFFF;" d="M391.327,599.428c0,0-4.073,0-4.073-68.313s4.053-68.313,4.053-68.313l-40.897-25.236
		c0,0-4.073,0.029-4.073,68.342s4.073,68.313,4.073,68.313L391.327,599.428z"/>
	<g>
		<g>
			<polygon style="fill:#04294F;" points="565.04,580.179 527.762,598.541 527.762,605.845 565.04,587.484 			"/>
			<polygon style="fill:#04294F;" points="570.501,577.489 570.501,584.794 586.718,576.806 586.718,569.501 			"/>
		</g>
		<g>
			<polygon style="fill:#04294F;" points="548.258,602.11 548.258,609.414 604.254,581.833 604.254,574.528 			"/>
			<polygon style="fill:#04294F;" points="542.797,604.799 527.762,612.205 527.762,619.51 542.797,612.104 			"/>
		</g>
		<g>
			<polygon style="fill:#04294F;" points="575.332,602.438 575.332,609.743 596.001,599.562 596.001,592.258 			"/>
			<polygon style="fill:#04294F;" points="569.871,605.128 527.762,625.869 527.762,633.174 569.871,612.433 			"/>
		</g>
	</g>
	<g>
		<path style="fill:#04294F;" d="M512.167,520.693c10.302-5.384,20.673-10.627,31.008-15.944l31.121-15.714
			c10.359-5.268,20.795-10.38,31.195-15.565l31.223-15.507l31.32-15.31c10.45-5.083,20.859-10.25,31.349-15.252l31.424-15.1
			c10.514-4.953,20.991-9.981,31.538-14.867c0.906-0.42,1.98-0.025,2.4,0.88c0.407,0.878,0.045,1.918-0.804,2.362
			c-10.304,5.38-20.678,10.618-31.014,15.932l-31.129,15.699c-10.361,5.264-20.803,10.364-31.204,15.546l-31.232,15.489
			l-31.329,15.291c-10.451,5.081-20.866,10.236-31.358,15.234l-31.431,15.084c-10.516,4.949-20.996,9.972-31.545,14.854
			c-0.87,0.403-1.901,0.024-2.304-0.846C511.005,522.116,511.353,521.119,512.167,520.693z"/>
	</g>
	<path style="fill:#FF3A00;" d="M355.869,440.222c2.732,1.066,5.333,2.344,7.904,3.672c2.569,1.331,5.082,2.75,7.553,4.24
		c2.474,1.484,4.902,3.043,7.244,4.741c2.33,1.718,4.617,3.505,6.7,5.623c0.197,0.2,0.194,0.521-0.006,0.718
		c-0.139,0.137-0.338,0.177-0.511,0.121c-2.828-0.911-5.45-2.154-8.031-3.466c-2.568-1.332-5.05-2.803-7.486-4.349
		c-2.439-1.541-4.835-3.151-7.177-4.85c-2.339-1.702-4.648-3.454-6.826-5.418c-0.253-0.228-0.273-0.617-0.045-0.87
		C355.364,440.188,355.638,440.133,355.869,440.222z"/>
</g>
<g>
	<path style="fill:#04294F;" d="M745.4,466.78c-5.63-15.75-22.66-24.69-38.95-19.97c-16.93,4.9-26.67,22.6-21.77,39.52l0.16,0.55
		c3.44,11.89,4.87,24.04,4.11,35.88c-0.75,11.83-3.67,23.35-8.55,33.78c-4.85,10.44-11.66,19.76-19.77,27.18
		c-8.12,7.43-17.5,12.92-27.39,16.1c-0.68,0.22-1.46,0.49-2.13,0.75c-19.1,7.45-52.17,98.47-36.14,95.29
		c1.09-0.22,2.2-0.45,3.35-0.71c-4.96-1.65-4.99-3.73,4.87-4.97c17.93-2.26,27-5,30.41-6.23c0.04-0.01,0.07-0.02,0.1-0.03
		c0.52-0.21,1.03-0.42,1.55-0.63c22.86-9.3,47.87-22.98,67.25-40.58c0.01-0.01,0.02-0.02,0.03-0.03c0.02-0.02,0.04-0.03,0.06-0.05
		c2.9-2.57,5.7-5.25,8.38-8.01c14.45-14.91,25.57-32.49,33.02-51.3c7.46-18.8,11.23-38.86,11.33-58.74
		C755.44,504.69,751.87,485.03,745.4,466.78z M743.64,560.3c-0.52,0.5-1.03,1.04-1.59,1.51c-0.56,0.45-1.14,0.89-1.73,1.33
		c-2.38,1.67-4.98,3.05-7.71,4.02c-2.71,1-5.51,1.72-8.36,2.14c-2.84,0.4-5.7,0.58-8.59,0.24c-0.34-0.04-0.58-0.35-0.54-0.68
		c0.03-0.26,0.22-0.46,0.46-0.53h0.03c5.36-1.39,10.6-2.9,15.58-4.89c2.5-0.97,4.9-2.13,7.3-3.31c2.44-1.15,4.68-2.58,7.19-3.93
		l0.04-0.02c0.25-0.13,0.55-0.04,0.68,0.21c0.09,0.17,0.07,0.37-0.03,0.52C745.56,558.09,744.71,559.32,743.64,560.3z"/>
	<path style="fill:#FFB400;" d="M743.415,481.965c2.319,7.785-1.966,13.265-9.751,15.585c-7.785,2.319-16.122,0.6-18.441-7.185
		c-2.319-7.785-0.886-17.868,11.47-22.286C739.048,463.66,741.096,474.18,743.415,481.965z"/>
	<path style="fill:#00AEE0;" d="M723.945,545.568c1.5-0.708,3.014-1.28,4.485-1.877l4.372-1.716
		c1.445-0.564,2.841-1.177,4.293-1.718c1.467-0.536,2.872-1.143,4.568-1.61l0.03-0.008c0.283-0.078,0.575,0.088,0.653,0.371
		c0.037,0.134,0.018,0.27-0.04,0.385c-0.83,1.605-2.093,2.902-3.496,3.937c-1.418,1.016-2.98,1.816-4.607,2.37
		c-1.622,0.571-3.295,0.969-4.991,1.171c-1.704,0.176-3.403,0.234-5.15-0.098c-0.342-0.065-0.567-0.395-0.502-0.737
		c0.039-0.205,0.173-0.367,0.347-0.451L723.945,545.568z"/>
</g>
<g>
	<g>
		<path style="fill:#04294F;" d="M594.48,296.01c-9.92-11.69-22.01-22-35.78-29.87c-4.38-2.51-8.92-4.77-13.59-6.75h-0.01
			c-2.62,0.52-5.21,1.12-7.74,1.84c-2.59,0.7-5.09,1.61-7.6,2.54c-2.55,0.9-4.92,2.09-7.56,3.18l-0.04,0.02
			c-0.26,0.1-0.55-0.02-0.66-0.28c-0.07-0.18-0.03-0.37,0.09-0.51c0.93-1.1,1.9-2.23,3.06-3.1c0.57-0.44,1.13-0.93,1.73-1.34
			c0.61-0.39,1.23-0.77,1.86-1.15c2.54-1.42,5.27-2.52,8.08-3.2c0.79-0.2,1.58-0.38,2.37-0.54c-4.27-1.57-8.63-2.91-13.07-4h-0.01
			c-1.12,0.28-2.24,0.58-3.34,0.89c-1.8,0.5-3.53,1.12-5.3,1.7c-1.8,0.56-3.49,1.3-5.48,1.9l-0.04,0.01
			c-0.27,0.08-0.56-0.08-0.64-0.35c-0.04-0.15-0.02-0.31,0.07-0.44c1.16-1.76,2.77-3.22,4.57-4.3c0.71-0.42,1.44-0.8,2.19-1.13
			c-1.36-0.26-2.72-0.49-4.08-0.69c-2.07-0.3-4.14-0.56-6.23-0.77c-21.24-2.22-38.83,6.21-48.91,18.85
			c-2.88,0.16-5.76,0.41-8.64,0.77c-0.3,0.33-0.6,0.66-0.89,0.99c-1.24,1.4-2.37,2.86-3.53,4.31c-1.21,1.45-2.23,2.99-3.58,4.56
			l-0.02,0.03c-0.18,0.22-0.51,0.24-0.73,0.06c-0.12-0.11-0.18-0.25-0.18-0.4c0.02-2.12,0.58-4.21,1.51-6.1
			c0.44-0.9,0.95-1.77,1.52-2.59c-8.9,1.5-17.7,3.95-26.19,7.34c-5.62,2.66-10.57,7.2-14.51,13.08c-6.95,2.1-13.78,4.74-20.38,8.01
			c-14.21,7.01-27.3,16.73-38.22,28.7c-5.26,5.75-10.01,12.04-14.17,18.76c-4.56,8.03-7.3,16.59-8.65,25.37
			c-0.01,0.02-0.02,0.03-0.02,0.05v0.01c-0.01,0.03-0.01,0.06-0.01,0.08c0,0.01,0,0.01,0,0.02c-0.32,2.1-0.57,4.22-0.73,6.35
			c-0.01,0.04-0.01,0.08-0.01,0.12v0.03c-0.63,8.05-0.2,16.22,0.96,24.3c-0.07,0.34-0.17,0.67-0.25,1.02l30.88-15.26l57.18-28.17
			c0.01,0,0.01,0,0.01-0.01l18.62-9.16c2.58-0.81,5.24-1.5,7.96-2.04l1.05-0.2c8.02-1.61,14.83-6.16,19.41-12.38
			c2.59-0.67,5.23-1.19,7.92-1.52c7.77-0.98,15.9-0.54,24.04,1.3l1.04,0.24c12.96,2.89,26.14-2.62,33.34-13.29
			c1.4,0.54,2.79,1.11,4.16,1.75c5.46,2.56,10.65,5.94,15.45,10.05c1.44,1.23,2.83,2.52,4.19,3.88l0.76,0.75
			c11.63,11.55,30.37,12.45,43.09,1.65C604.24,329.58,605.89,309.44,594.48,296.01z M461.38,320.25c0.15-1.78,0.15-3.57-0.03-5.35
			c-0.31-3.39-1.25-6.69-2.76-9.7c-1.51-3.01-3.55-5.73-5.98-8.07c-2.45-2.33-5.28-4.25-8.34-5.76c-3.07-1.47-6.34-2.58-9.73-3.22
			c-1.33-0.27-2.67-0.47-4.02-0.6c-2.29-0.23-4.6-0.29-6.93-0.2h-0.03c-3.31,0.12-6.64,0.54-9.96,1.15h-0.01
			c-0.27,0.05-0.53-0.13-0.58-0.4c-0.04-0.23,0.09-0.46,0.31-0.55c6.76-2.71,14.33-3.84,21.79-2.87c7.43,1,14.76,4.21,20.23,9.6
			c5.53,5.28,9.07,12.77,9.27,20.41c0.05,1.49,0,2.97-0.17,4.44L461.38,320.25z M524.3,292.65c-1.59-3.31-3.77-6.3-6.36-8.85
			c-2.61-2.53-5.65-4.61-8.97-6.06c-0.76-0.31-1.52-0.61-2.3-0.89c-0.93-0.34-1.9-0.65-2.92-0.94c-1.82-0.55-3.65-1.07-5.5-1.56
			c-3.54-0.9-7.09-1.75-10.69-2.43c-0.15-0.03-0.31-0.06-0.46-0.09c-7.49-1.49-15.09-2.4-22.79-3.04c-0.27-0.02-0.47-0.26-0.45-0.53
			c0.02-0.24,0.21-0.43,0.44-0.46c7.76-0.79,15.62-0.47,23.38,0.56c3.87,0.56,7.73,1.25,11.54,2.2c3.81,0.96,7.52,1.91,11.36,3.58
			c0.92,0.46,1.85,0.89,2.75,1.38l2.61,1.64c0.81,0.61,1.61,1.26,2.42,1.89c0.78,0.67,1.48,1.41,2.23,2.11
			c2.86,2.93,5.12,6.41,6.69,10.15c0.59,1.39,1.07,2.82,1.44,4.27l-2.82,1.04C525.46,295.26,524.93,293.93,524.3,292.65z"/>
		<path style="fill:#FFB400;" d="M554.141,298.766c14.822,13.045,39.303,2.512,27.66-9.337
			C570.926,278.362,546.484,292.027,554.141,298.766z"/>
		<path style="fill:#FFB400;" d="M506.67,276.85c-3.07-0.08-8.2,0.89-13.58,6.74c-4.52,4.91-27.45-4.78-15.49-13.21
			c0,0,4.29,0.56,9.96,1.54c3.6,0.68,7.15,1.53,10.69,2.43c1.85,0.49,3.68,1.01,5.5,1.56C504.77,276.2,505.74,276.51,506.67,276.85z
			"/>
		<path style="fill:#FFB400;" d="M430.52,287.55c-2.22,0.97-5.3,3.26-7.28,8.74c-1.81,4.99-25.34,4.32-19.21-5.43
			c0,0,3.748-1.318,9.56-2.36c2.883-0.517,6.266-1.02,9.97-1.15h0.03C425.92,287.26,428.23,287.32,430.52,287.55z"/>
	</g>
	<path style="fill:#00AEE0;" d="M527.73,314.79c-0.12,0.31-0.47,0.46-0.78,0.34c-0.29-0.11-0.44-0.42-0.37-0.71
		c1.41-5.96,1.16-12.16-0.68-17.8l2.82-1.04C530.4,301.95,530.07,308.79,527.73,314.79z"/>
	<path style="fill:#00AEE0;" d="M464.44,319.13c-0.25,2.28-0.75,4.53-1.47,6.68c-1.18,3.54-2.92,6.85-5.04,9.83
		c-0.19,0.27-0.57,0.33-0.84,0.14c-0.25-0.18-0.33-0.51-0.19-0.77V335c2.4-4.67,4.05-9.7,4.48-14.75L464.44,319.13z"/>
	<path style="fill:#00AEE0;" d="M406.968,351.682c-2.179-4.742-5.433-8.937-9.533-12.014c-1.995-1.605-4.234-2.857-6.525-3.935
		l-1.772-0.693c-0.296-0.111-0.585-0.241-0.886-0.338l-0.915-0.257l-1.821-0.524l-1.862-0.349l-0.929-0.176
		c-0.312-0.044-0.628-0.06-0.941-0.091l-1.882-0.171c-0.628-0.025-1.259,0.002-1.888-0.002c-0.629,0.002-1.257-0.011-1.882,0.08
		l-1.874,0.185c-0.624,0.063-1.234,0.223-1.852,0.328c-1.244,0.181-2.432,0.596-3.636,0.936c-0.609,0.151-1.168,0.447-1.755,0.661
		c-0.572,0.25-1.178,0.427-1.723,0.734c-1.099,0.595-2.246,1.101-3.26,1.836c-0.521,0.343-1.057,0.663-1.568,1.021l-1.464,1.166
		l-0.734,0.581c-0.233,0.207-0.449,0.434-0.674,0.65l-1.341,1.306c-7.113,7.656-13.48,16.081-18.857,25.091
		c-5.424,8.996-9.835,18.6-13.399,28.6c-0.092,0.257-0.374,0.391-0.631,0.299c-0.236-0.084-0.368-0.329-0.317-0.568
		c2.21-10.479,6.162-20.607,11.294-30.08c2.614-4.711,5.47-9.301,8.683-13.636c3.171-4.373,6.628-8.502,10.369-12.433
		c3.923-4.047,8.847-7.17,14.245-8.791c5.386-1.609,11.169-1.966,16.634-0.733l2.043,0.463l1.987,0.661l0.99,0.336
		c0.326,0.123,0.638,0.28,0.958,0.419l1.903,0.86c2.451,1.307,4.826,2.783,6.857,4.664c4.202,3.585,7.338,8.336,9.085,13.468
		c0.108,0.317-0.062,0.662-0.379,0.77C407.42,352.107,407.097,351.96,406.968,351.682z"/>
</g>
<path style="fill:#FFFFFF;" d="M987.297,344.661c-4.318,0.194-8.584,0.907-12.732,1.974c-4.145,1.085-8.158,2.625-11.928,4.597
	c-3.775,1.964-7.289,4.389-10.447,7.189c-1.575,1.39-3.11,2.882-4.477,4.427c-1.354,1.448-2.703,3.332-4.056,5.076l0.11-0.141
	l-0.017,0.023c-0.737,0.994-2.141,1.202-3.135,0.465c-0.4-0.297-0.674-0.707-0.809-1.15l0-0.001l3.833,0.826
	c-5.811,7.225-13.576,13.115-22.059,16.804c-8.278,3.998-17.487,6.608-26.86,7.104c-4.654,0.185-9.326,0.041-13.798-0.357
	c-4.491-0.319-8.885-0.751-13.185-0.652c-8.636-0.08-16.996,2.068-25.006,5.39c-8.006,3.354-15.701,7.692-22.088,13.383l-2.36,2.183
	c-0.407,0.351-0.77,0.746-1.126,1.148l-1.086,1.191c-1.497,1.539-2.796,3.282-4.144,4.979c-2.618,3.495-5.06,7.178-7.617,10.942
	c-5.019,7.556-11.44,14.664-19.086,19.803l-5.872,3.586l-6.124,3.045c-4.114,1.93-8.405,3.495-12.785,4.681
	c-0.395,0.107-0.801-0.126-0.908-0.521c-0.1-0.371,0.107-0.754,0.458-0.888c4.162-1.564,8.187-3.459,12.057-5.622l5.717-3.36
	l5.393-3.783l2.505-2.111l1.257-1.045l0.628-0.522l0.577-0.577c1.517-1.559,3.142-3.001,4.483-4.72
	c0.691-0.838,1.422-1.636,2.08-2.502l1.933-2.637c0.667-0.855,1.249-1.8,1.864-2.709c0.605-0.922,1.227-1.814,1.81-2.772
	c2.359-3.743,4.714-7.652,7.373-11.418c1.399-1.851,2.747-3.738,4.341-5.462l1.154-1.322c0.38-0.445,0.767-0.884,1.2-1.28
	l2.526-2.447c0.43-0.397,0.826-0.837,1.285-1.2l1.364-1.104l2.734-2.205c0.909-0.739,1.918-1.322,2.879-1.981l2.918-1.923
	c1.995-1.18,4.049-2.24,6.074-3.364c0.999-0.587,2.072-1.026,3.124-1.509l3.165-1.427c4.251-1.84,8.706-3.319,13.29-4.346
	c1.127-0.33,2.309-0.428,3.465-0.634c1.163-0.17,2.322-0.39,3.489-0.514c2.339-0.135,4.69-0.427,7.013-0.351
	c9.377-0.072,18.199,1.586,26.783,1.242c2.137-0.159,4.292-0.2,6.398-0.602c1.057-0.168,2.122-0.3,3.176-0.493l3.131-0.767
	c2.109-0.424,4.135-1.21,6.188-1.893c2.078-0.607,4.049-1.567,6.059-2.411c8.077-3.261,15.09-8.409,20.824-14.928l0.053-0.061
	c0.803-0.913,2.194-1.002,3.107-0.199c0.34,0.299,0.565,0.679,0.673,1.086l0,0.001l-3.944-0.685l0.018-0.022l0.11-0.141
	c1.395-1.669,2.647-3.322,4.336-5.037c1.6-1.681,3.271-3.188,5.035-4.636c3.542-2.851,7.434-5.24,11.536-7.122
	c4.1-1.889,8.401-3.291,12.788-4.206c4.385-0.935,8.87-1.285,13.318-1.208c0.502,0.009,0.902,0.423,0.894,0.925
	c-0.008,0.482-0.391,0.87-0.866,0.893L987.297,344.661z"/>
<path style="fill:#FFFFFF;" d="M328.195,462.582c-4.23,0.331-8.572,0.413-12.869-0.253c-4.295-0.645-8.499-1.934-12.47-3.685
	c-1.977-0.891-3.926-1.853-5.795-2.94c-0.959-0.504-1.843-1.136-2.758-1.717l-2.726-1.786l-0.678-0.454l-0.636-0.517l-1.272-1.037
	c-0.845-0.696-1.704-1.376-2.537-2.09l-2.328-2.348l-1.163-1.179c-0.359-0.419-0.696-0.858-1.045-1.287
	c-0.688-0.865-1.392-1.722-2.066-2.6l-1.814-2.772c-0.639-0.911-1.109-1.896-1.64-2.856c-0.518-0.965-1.059-1.926-1.492-2.91
	c-1.908-3.916-3.402-7.861-5.162-11.569c-3.305-7.517-8.175-13.795-14.565-18.669c-1.619-1.181-3.324-2.268-4.976-3.411
	l-5.272-2.932l-2.739-1.186c-0.919-0.373-1.805-0.858-2.761-1.101l-2.823-0.886l-0.705-0.224c-0.239-0.059-0.482-0.099-0.723-0.15
	l-1.447-0.29c-1.911-0.475-3.895-0.591-5.859-0.809c-2.001-0.056-3.982-0.163-6.036-0.047c-4.07,0.114-8.266,0.545-12.64,0.609
	c-8.707,0.335-18.011-1.543-25.759-5.768c-1.904-1.114-3.82-2.153-5.701-3.336c-1.87-1.234-3.656-2.606-5.314-4.115
	c-3.339-3.003-6.111-6.562-8.42-10.3l4.272-0.375l-0.008,0.018l-0.038,0.086c-0.532,1.211-1.944,1.762-3.155,1.23
	c-0.471-0.207-0.842-0.547-1.088-0.957c-2.109-3.499-4.736-6.686-7.744-9.497c-3.012-2.812-6.453-5.18-10.135-7.13
	c-3.682-1.962-7.64-3.427-11.719-4.496c-4.086-1.046-8.307-1.67-12.571-1.844c-0.409-0.016-0.727-0.36-0.711-0.768
	c0.015-0.382,0.322-0.686,0.695-0.71c4.367-0.262,8.79-0.035,13.143,0.738c4.358,0.749,8.635,2.071,12.717,3.885
	c4.082,1.82,7.928,4.225,11.399,7.117c3.479,2.885,6.524,6.322,9.02,10.127l-4.281,0.36l0.007-0.018
	c0.485-1.231,1.876-1.836,3.107-1.351c0.472,0.186,0.852,0.505,1.114,0.897l0.052,0.079c2.24,3.348,4.855,6.377,7.854,8.94
	c1.49,1.293,3.084,2.458,4.756,3.504c1.711,1.015,3.528,1.942,5.28,2.921c7.218,3.592,14.967,5.192,23.09,4.83
	c4.054-0.094,8.252-0.564,12.609-0.65c2.157-0.11,4.392,0.005,6.599,0.085c2.224,0.244,4.456,0.402,6.647,0.942l1.65,0.342
	c0.274,0.06,0.551,0.109,0.823,0.178l0.801,0.253l3.203,1.02c1.089,0.295,2.07,0.822,3.099,1.247l3.053,1.346
	c1.925,1.072,3.846,2.153,5.739,3.274c1.798,1.274,3.63,2.49,5.389,3.821c6.956,5.437,12.646,12.963,15.838,21.02
	c1.744,3.958,3.136,7.947,4.826,11.655c0.39,0.958,0.863,1.845,1.317,2.749c0.463,0.897,0.881,1.829,1.429,2.665l1.548,2.58
	l1.779,2.415c0.3,0.4,0.589,0.811,0.899,1.204l1.019,1.107l2.037,2.223c0.742,0.683,1.514,1.339,2.269,2.012l1.139,1.006l0.57,0.504
	l0.62,0.448c1.674,1.166,3.267,2.456,4.995,3.561c1.718,1.126,3.505,2.127,5.321,3.066c3.647,1.844,7.503,3.255,11.511,4.078
	c4.01,0.803,8.144,1.109,12.327,1.06c0.502-0.006,0.914,0.396,0.92,0.899C329.043,462.145,328.668,462.544,328.195,462.582z"/>
<path style="fill:#FFFFFF;" d="M503.045,865.026c-0.336-19.808-0.298-39.607-0.173-59.405c0.079-9.898,0.161-19.797,0.328-29.693
	l0.216-14.845l0.307-14.843l0.307-14.843l0.402-14.841c0.239-9.895,0.635-19.786,0.981-29.678
	c0.826-19.781,1.736-39.561,3.265-59.326c0.032-0.408,0.388-0.713,0.795-0.681c0.379,0.029,0.67,0.344,0.683,0.715
	c0.618,19.814,0.617,39.615,0.533,59.413c-0.11,9.898-0.169,19.796-0.385,29.691l-0.281,14.844l-0.376,14.842l-0.376,14.841
	l-0.467,14.839c-0.288,9.893-0.661,19.785-1.038,29.676c-0.785,19.782-1.658,39.562-2.905,59.334
	c-0.032,0.501-0.464,0.882-0.965,0.851C503.422,865.888,503.054,865.494,503.045,865.026z"/>
<path style="fill:#FFFFFF;" d="M695.737,466.83c-3.615,1.476-7.135,3.176-10.518,5.108l-5.018,2.964
	c-1.637,1.032-3.177,2.202-4.765,3.29c-0.389,0.283-0.799,0.539-1.17,0.843l-1.098,0.931l-2.203,1.843
	c-0.363,0.311-0.746,0.6-1.092,0.928l-1.012,1.013l-2.023,2.02c-0.702,0.644-1.265,1.425-1.895,2.139l-1.844,2.181
	c-1.107,1.573-2.314,3.038-3.373,4.66c-4.337,6.347-8.052,13.514-13.47,19.784c-1.355,1.552-2.674,3.139-4.21,4.528l-2.23,2.153
	c-0.768,0.688-1.593,1.307-2.389,1.963l-2.424,1.922c-0.826,0.612-1.703,1.143-2.552,1.717c-1.721,1.111-3.395,2.32-5.215,3.229
	c-7.037,4.091-14.628,7.26-22.689,9.116c-4.012,0.956-8.148,1.438-12.26,1.585c-1.028,0.051-2.048-0.009-3.071-0.009
	c-1.019-0.029-2.053,0.003-3.057-0.078c-2.012-0.14-4.047-0.24-6.014-0.448c-3.984-0.398-7.831-0.835-11.693-1.086l-2.874-0.081
	c-0.957-0.021-1.923-0.107-2.872-0.039c-1.902,0.106-3.832,0.041-5.72,0.349c-7.622,0.773-15.086,3.092-22.396,5.977l-0.015,0.006
	c-0.38,0.15-0.811-0.036-0.961-0.417c-0.137-0.347,0.007-0.736,0.323-0.916c6.916-3.934,14.462-7.056,22.502-8.508
	c4.007-0.756,8.098-1.027,12.154-1.049c4.031,0.058,8.053,0.286,11.942,0.501c1.967,0.145,3.879,0.174,5.81,0.248
	c0.967,0.048,1.909-0.017,2.864-0.02c0.95-0.031,1.907-0.002,2.849-0.081c3.767-0.296,7.508-0.724,11.164-1.655
	c3.675-0.834,7.246-2.148,10.782-3.545l5.243-2.32c1.713-0.844,3.375-1.794,5.066-2.684c6.643-3.754,12.697-8.343,17.694-14.014
	c5.044-5.622,8.93-12.446,13.729-18.964c4.682-6.604,10.799-12.383,17.591-16.763c1.739-1.036,3.431-2.149,5.199-3.109l5.4-2.672
	c3.613-1.726,7.385-3.116,11.218-4.259c0.482-0.144,0.988,0.13,1.132,0.612c0.135,0.452-0.098,0.925-0.524,1.101L695.737,466.83z"/>
<path style="fill:#FFFFFF;" d="M485.965,543.112c-1.875-0.811-3.71-1.654-5.529-2.494l-2.83-0.995l-1.401-0.508l-0.698-0.254
	l-0.722-0.177c-1.933-0.429-3.793-1.072-5.751-1.266c-0.971-0.124-1.92-0.34-2.898-0.393c-0.979-0.045-1.951-0.126-2.922-0.19
	c-3.92-0.117-7.851,0.157-11.935,0.51c-4.085,0.353-8.303,0.691-12.638,0.471c-1.077-0.033-2.166-0.192-3.248-0.285l-1.626-0.165
	c-0.54-0.079-1.075-0.203-1.612-0.304l-3.214-0.673c-1.044-0.32-2.083-0.657-3.119-1.002c-4.148-1.374-7.976-3.434-11.568-5.725
	c-3.592-2.283-6.932-5-9.868-8.115c-2.932-3.111-5.397-6.668-7.119-10.504c-0.17-0.375-0.005-0.817,0.37-0.987
	c0.314-0.143,0.678-0.046,0.887,0.208c5.147,6.322,11.414,11.189,18.442,14.867c6.928,3.838,14.273,6.264,21.996,6.769l2.925,0.091
	c0.972,0.042,1.981-0.033,2.97-0.043c1.975,0.01,4.028-0.134,6.069-0.197c4.1-0.233,8.394-0.241,12.663,0.203
	c1.069,0.151,2.138,0.286,3.2,0.455c1.062,0.166,2.102,0.499,3.148,0.743c2.112,0.439,4.098,1.294,6.093,2.046l0.745,0.289
	l0.712,0.363l1.42,0.725l2.811,1.47c1.768,1.151,3.506,2.331,5.211,3.526c0.411,0.288,0.511,0.854,0.223,1.265
	c-0.252,0.359-0.717,0.481-1.104,0.313L485.965,543.112z"/>
<path style="fill:#FFFFFF;" d="M509.202,597.466c-0.728-2.398-1.123-4.788-1.383-7.174c-0.26-2.387-0.373-4.77-0.365-7.151
	c0-2.381,0.132-4.759,0.51-7.131c0.408-2.371,0.941-4.74,2.065-7.095c0.193-0.404,0.676-0.575,1.08-0.383
	c0.186,0.089,0.323,0.241,0.398,0.417c1.014,2.404,1.438,4.795,1.736,7.183c0.268,2.387,0.291,4.768,0.181,7.147
	c-0.101,2.379-0.324,4.754-0.693,7.127c-0.37,2.372-0.874,4.742-1.712,7.103c-0.177,0.498-0.724,0.759-1.222,0.582
	C509.502,597.985,509.288,597.745,509.202,597.466z"/>
</svg>
