<?xml version="1.0" encoding="iso-8859-1"?>
<!-- Generator: Adobe Illustrator 23.0.2, SVG Export Plug-In . SVG Version: 6.00 Build 0)  -->
<svg version="1.1" id="come_back_later" xmlns="http://www.w3.org/2000/svg" xmlns:xlink="http://www.w3.org/1999/xlink" x="0px"
	 y="0px" viewBox="0 0 1080 1080" style="enable-background:new 0 0 1080 1080;" xml:space="preserve">
<g>
	<path style="fill:#00AEE0;" d="M868.287,590.731c0-11.24-2.531-37.491-8.399-71.79l-8.735,4.819
		c-0.978-5.037-3.898-16.8-4.917-20.87l6.322-4.019c0.432-0.275,0.627-0.825,0.436-1.321c-0.218-0.566-0.853-0.848-1.419-0.63
		l-7.528,2.898c-4.702-2.28-9.451-4.453-14.29-6.389c-5.106-2.054-10.256-3.989-15.467-5.731c-5.206-1.759-10.449-3.396-15.731-4.9
		c-4.571-1.295-9.143-2.497-13.791-3.586l41.318-22.743l0.196-0.103c-18.984-67.627-35.932-104.089-42.05-116.139l0.658-0.794
		l1.64-1.995l1.535-2.09c1.997-2.815,3.79-5.778,5.19-8.942c0.681-1.595,1.314-3.198,1.78-4.877
		c0.251-0.827,0.443-1.684,0.621-2.539c0.072-0.442,0.162-0.86,0.215-1.314c0.061-0.462,0.105-0.852,0.138-1.442l0.001-0.017
		c0.025-0.479-0.313-0.91-0.797-0.991c-0.52-0.086-1.012,0.265-1.099,0.785c-0.261,1.57-0.784,3.086-1.399,4.549
		c-0.6,1.474-1.357,2.876-2.146,4.257c-1.619,2.741-3.585,5.262-5.714,7.62l-1.626,1.745l-1.722,1.651l-0.862,0.825l-0.907,0.775
		l-1.814,1.549c-1.208,0.977-2.464,1.894-3.696,2.841c-0.043,0.031-0.083,0.062-0.126,0.092l-3.842,2.605
		c-30.267,19.428-85.615,32.44-148.885,32.44c-1.808,0-3.606-0.01-5.403-0.031h-0.517v0.031
		c-45.322,17.511-121.132,7.976-129.159-17.315c-0.031-0.062-0.041-0.134-0.062-0.196c0,0-0.01-0.01-0.01-0.021
		c-0.723-2.138-0.806-4.711-0.434-7.552c-23.627-11.364-37.75-25.776-37.75-41.448v-6.416
		c-21.939,45.278-38.116,95.448-49.614,141.29l-0.006-0.001c0,0-0.018,0.082-0.049,0.225c-0.525,2.095-1.053,4.193-1.558,6.269
		c0.034,0.009,0.097,0.027,0.181,0.051c-1.983,9.124-5.669,26.166-8.677,40.551c-0.232-0.069-0.399-0.119-0.485-0.144
		c-5.892,29.44-9.637,55.049-11.612,73.538c-5.907,47.136,9.683,60.917,43.029,79.384s98.632,40.145,186.507,40.145
		c67.319,0,123.332-3.22,178.5-23.371c19.984-6.741,37.129-14.694,50.6-23.572c0,0,19.166-14.078,29.588-30.89
		c0.257-0.415,0.431-0.85,0.562-1.296C867.153,601.156,868.287,595.993,868.287,590.731z M797.464,486.645
		c5.221,1.486,10.403,3.104,15.542,4.841c5.146,1.72,10.222,3.628,15.246,5.649c4.75,1.9,9.394,4.026,13.984,6.249
		c0.814,3.249,3.604,14.452,4.77,20.047c-25.552-14.607-60.726-23.531-60.726-23.531s-1.461-10.697-3.362-17.013
		C787.767,484.002,792.645,485.279,797.464,486.645z M802.844,524.804c1.942,0.74,3.899,1.448,5.812,2.264l5.737,2.466
		c1.89,0.876,3.752,1.813,5.63,2.717c1.863,0.936,3.693,1.94,5.542,2.908c1.83,1.003,3.598,2.124,5.399,3.18
		c1.792,1.073,3.524,2.255,5.269,3.404c1.73,1.175,3.382,2.472,5.074,3.701c1.665,1.27,3.252,2.648,4.856,3.99
		c6.26,5.546,11.858,12.043,15.56,19.493c-5.114-6.544-11.088-12.117-17.54-17.08l-4.948-3.577c-1.703-1.12-3.357-2.304-5.094-3.37
		c-1.749-1.049-3.425-2.205-5.198-3.216c-1.775-1.007-3.516-2.068-5.317-3.03c-7.116-4.006-14.497-7.567-21.967-10.975
		c-7.48-3.394-15.073-6.58-22.68-9.902C787.088,519.522,795.05,521.916,802.844,524.804z M504.255,579.892
		c4.984,1.944,9.651,3.644,14.353,5.042c4.679,1.419,9.34,2.474,14.032,3.185c4.697,0.7,9.427,0.997,14.288,0.964
		c4.869-0.058,9.812-0.528,15.181-0.927c-4.087,3.511-9.079,5.798-14.346,7.161c-5.286,1.279-10.883,1.539-16.308,0.71
		c-5.424-0.826-10.676-2.645-15.362-5.352c-2.342-1.357-4.554-2.916-6.565-4.705C507.532,584.176,505.661,582.213,504.255,579.892z
		 M595.187,558.652c1.436,0.732,2.941,1.392,4.476,1.996c3.065,1.22,6.25,2.249,9.498,3.109c3.242,0.885,6.552,1.585,9.889,2.214
		c3.347,0.581,6.721,1.094,10.122,1.501c6.807,0.781,13.7,1.265,20.655,1.535c6.957,0.28,13.966,0.331,21.072,0.5
		c-6.812,2.031-13.796,3.416-20.87,4.289c-7.075,0.849-14.247,1.166-21.441,0.862c-7.188-0.362-14.409-1.298-21.49-3.183
		c-3.534-0.953-7.043-2.093-10.455-3.588c-1.707-0.743-3.394-1.554-5.055-2.476c-0.826-0.472-1.645-0.962-2.46-1.499
		c-0.407-0.264-0.815-0.547-1.223-0.837l-0.622-0.462c-0.226-0.176-0.386-0.296-0.716-0.576l-0.076-0.064
		c-1.511-1.28-1.698-3.542-0.418-5.053c0.051-0.06,0.111-0.125,0.165-0.181c2.719-2.797,5.193-5.897,7.408-9.229
		c2.219-3.328,4.2-6.868,5.979-10.541c1.788-3.671,3.361-7.481,4.798-11.372c1.43-3.896,2.716-7.871,3.801-11.952
		c0.096,4.234-0.323,8.477-0.984,12.686c-0.688,4.206-1.674,8.386-3.02,12.481c-0.668,2.048-1.405,4.084-2.266,6.078
		c-0.837,2.003-1.769,3.978-2.82,5.9c-1.371,2.582-2.966,5.067-4.732,7.448C594.665,558.372,594.918,558.518,595.187,558.652z
		 M739.378,584.466c7.299-1.535,14.47-3.23,21.312-5.037c1.064-0.281,2.163,0.355,2.444,1.423c0.282,1.068-0.354,2.162-1.423,2.444
		c-6.907,1.824-14.145,3.535-21.511,5.084c-0.139,0.029-0.276,0.043-0.413,0.043c-0.926,0-1.757-0.646-1.955-1.589
		C737.604,585.754,738.297,584.693,739.378,584.466z M739.378,566.637c7.299-1.535,14.47-3.23,21.312-5.037
		c1.064-0.281,2.163,0.355,2.444,1.423c0.282,1.068-0.354,2.162-1.423,2.444c-6.907,1.824-14.145,3.535-21.511,5.084
		c-0.139,0.029-0.276,0.043-0.413,0.043c-0.926,0-1.757-0.646-1.955-1.589C737.604,567.925,738.297,566.864,739.378,566.637z
		 M714.279,494.401c16.271-2.547,31.885-5.785,46.41-9.622c1.064-0.286,2.163,0.354,2.444,1.423
		c0.282,1.068-0.354,2.162-1.423,2.444c-14.657,3.872-30.407,7.138-46.812,9.707c-0.104,0.016-0.209,0.024-0.312,0.024
		c-0.968,0-1.818-0.705-1.973-1.691C712.442,495.596,713.188,494.572,714.279,494.401z M761.711,508.394
		c-6.916,1.827-14.153,3.537-21.511,5.084c-0.139,0.029-0.276,0.043-0.413,0.043c-0.926,0-1.757-0.646-1.955-1.589
		c-0.228-1.081,0.465-2.142,1.546-2.369c7.29-1.533,14.461-3.228,21.312-5.037c1.064-0.284,2.163,0.354,2.444,1.423
		C763.416,507.018,762.778,508.112,761.711,508.394z M761.711,526.223c-6.916,1.827-14.153,3.537-21.511,5.084
		c-0.139,0.029-0.276,0.043-0.413,0.043c-0.926,0-1.757-0.646-1.955-1.589c-0.228-1.081,0.465-2.142,1.546-2.369
		c7.29-1.533,14.461-3.228,21.312-5.037c1.064-0.284,2.163,0.354,2.444,1.423C763.416,524.847,762.778,525.941,761.711,526.223z
		 M714.279,551.449c16.271-2.548,31.885-5.785,46.41-9.622c1.064-0.283,2.162,0.354,2.444,1.423
		c0.282,1.067-0.354,2.162-1.423,2.444c-14.657,3.872-30.407,7.138-46.812,9.706c-0.105,0.017-0.209,0.024-0.312,0.024
		c-0.968,0-1.818-0.704-1.973-1.69C712.442,552.643,713.188,551.62,714.279,551.449z M714.279,608.522
		c16.279-2.55,31.894-5.787,46.41-9.622c1.064-0.281,2.162,0.355,2.444,1.423s-0.354,2.162-1.423,2.444
		c-14.648,3.87-30.398,7.136-46.812,9.706c-0.104,0.017-0.209,0.024-0.312,0.024c-0.968,0-1.818-0.704-1.973-1.69
		C712.442,609.716,713.188,608.693,714.279,608.522z M494.09,508.533c4.812-1.265,9.668-2.342,14.519-3.457
		c4.868-1.027,9.746-2.019,14.646-2.887c19.586-3.573,39.409-5.822,59.278-7.039c19.874-1.172,39.805-1.357,59.68-0.414
		c19.871,0.934,39.7,2.919,59.272,6.328c-19.784-1.757-39.574-2.862-59.372-3.208c-4.95-0.064-9.899-0.102-14.847-0.11
		c-4.948-0.008-9.896,0.098-14.842,0.188c-9.891,0.221-19.781,0.541-29.65,1.207c-4.941,0.238-9.868,0.661-14.802,1.007
		c-4.924,0.452-9.854,0.858-14.769,1.397c-4.924,0.467-9.832,1.073-14.742,1.668l-7.352,0.996c-2.455,0.308-4.901,0.668-7.345,1.049
		c-9.785,1.465-19.54,3.16-29.235,5.179c-9.708,1.966-19.354,4.252-28.96,6.776C474.916,513.846,484.465,511.04,494.09,508.533z
		 M465.576,543.441c3.408,0.652,6.801,1.477,10.274,1.905c1.731,0.231,3.455,0.612,5.202,0.763l5.252,0.546
		c0.878,0.084,1.757,0.229,2.638,0.279l2.649,0.142l5.329,0.353c3.563,0.153,7.141,0.148,10.78,0.382
		c-3.492,0.899-7.03,1.755-10.609,2.411c-1.795,0.262-3.599,0.494-5.409,0.727l-2.72,0.329c-0.908,0.099-1.82,0.116-2.732,0.169
		l-5.488,0.223c-0.918,0.053-1.832,0.001-2.749-0.027l-2.753-0.1c-3.684-0.048-7.334-0.59-11.005-1.02
		c-7.291-1.197-14.516-3.088-21.425-5.91l-2.581-1.081c-0.856-0.371-1.687-0.808-2.531-1.209c-0.838-0.417-1.688-0.803-2.514-1.248
		l-2.455-1.38c-0.823-0.446-1.616-0.963-2.414-1.466c-0.797-0.504-1.599-0.996-2.373-1.555c-0.775-0.553-1.552-1.09-2.31-1.699
		c-0.382-0.304-0.759-0.575-1.144-0.906c-0.392-0.333-0.736-0.607-1.2-1.032l-0.055-0.05c-1.483-1.359-1.583-3.662-0.224-5.145
		c0.006-0.006,0.025-0.027,0.031-0.033c2.449-2.606,4.875-5.276,6.995-8.222c1.121-1.428,2.083-2.973,3.135-4.469
		c0.936-1.564,1.972-3.087,2.842-4.708c1.831-3.193,3.499-6.515,4.997-9.941c1.513-3.425,2.87-6.941,4.016-10.59
		c0.031,3.837-0.476,7.681-1.24,11.469c-0.771,3.793-1.879,7.531-3.293,11.172c-0.665,1.84-1.503,3.611-2.314,5.401
		c-0.91,1.738-1.747,3.53-2.811,5.195c-1.277,2.252-2.771,4.376-4.356,6.442c0.387,0.249,0.78,0.494,1.17,0.74
		c0.694,0.468,1.435,0.886,2.168,1.314c0.733,0.426,1.455,0.867,2.222,1.246l2.263,1.19c0.755,0.396,1.542,0.739,2.311,1.112
		c0.777,0.358,1.537,0.75,2.328,1.081l2.378,0.985C452.198,539.846,458.819,541.847,465.576,543.441z M438.289,387.239
		c0.028-0.704,0.134-1.387,0.29-2.057c0.156-0.67,0.373-1.324,0.692-1.951c0.325-0.625,0.714-1.234,1.329-1.782
		c2.467-2.2,6.251-1.982,8.45,0.485c0.546,0.613,0.952,1.336,1.202,2.066c0.264,0.781,0.301,1.502,0.275,2.206
		c-0.032,0.703-0.167,1.378-0.362,2.038c-0.195,0.66-0.441,1.306-0.764,1.932c-0.337,0.622-0.704,1.236-1.257,1.801
		c-2.221,2.265-5.857,2.301-8.121,0.08c-0.76-0.745-1.274-1.673-1.531-2.631C438.29,388.662,438.275,387.947,438.289,387.239z
		 M426.872,428.144c0.178-2.575,0.567-5.114,1.114-7.619c0.543-2.506,1.236-4.979,2.099-7.406c0.886-2.421,1.9-4.808,3.305-7.082
		c1.519-2.459,4.744-3.221,7.204-1.702c1.484,0.917,2.35,2.455,2.469,4.07l0.005,0.072c0.175,2.605,0.007,5.108-0.24,7.589
		c-0.271,2.475-0.662,4.915-1.153,7.333c-0.487,2.419-1.081,4.814-1.833,7.184c-0.755,2.37-1.619,4.722-2.876,7.026l-0.024,0.045
		c-1.393,2.554-4.592,3.495-7.146,2.103c-1.475-0.804-2.416-2.238-2.677-3.775C426.684,433.32,426.697,430.718,426.872,428.144z"/>
	<path style="fill:none;" d="M387.746,492.228c0.002-0.008,0.003-0.016,0.005-0.024c-12.399-3.423-24.249-2.25-33.485,3.74
		c-10.744,6.963-16.55,19.422-14.815,31.768c2.18,15.445,15.362,28.937,36.768,38.08c1.975-18.489,5.72-44.098,11.612-73.538
		C387.784,492.24,387.746,492.228,387.746,492.228z"/>
	<path style="fill:none;" d="M775.298,683.06c21.984,10.393,43.091,10.672,56.459,0.733c8.533-6.333,12.501-16.116,10.889-26.84
		c-0.951-6.281-3.606-12.521-7.79-18.575c-20.724,13.658-50.095,25.146-85.221,33.359C758.148,675.218,766.702,679,775.298,683.06z"
		/>
	<path style="fill:#04294F;" d="M770.545,230.921l15.652-6.612c9.133,12.562,24.123,34.537,40.498,64.052
		c22.989,41.433,53.23,106.207,70.385,184.411l-44.518-11.368c-1.076-0.272-2.16,0.374-2.433,1.443
		c-0.273,1.07,0.372,2.159,1.442,2.433l43.275,11.051l-39.162,19.736c-2.097-10.724-4.494-21.995-7.19-33.648
		c-11.664-50.219-29.061-107.422-53.773-158.406v-39.186c0,36.748-77.607,66.532-173.345,66.532c-1.984,0-3.957-0.01-5.92-0.041
		v0.01c0,0-91.285,46.676-124.313,33.338c-2.49-1.002-4.039-2.758-4.845-5.021c8.027,25.29,83.836,34.826,129.159,17.315v-0.031
		h0.517c1.798,0.021,3.595,0.031,5.403,0.031c63.269,0,118.618-13.013,148.885-32.44l3.842-2.605
		c0.043-0.031,0.083-0.062,0.126-0.092c1.232-0.947,2.488-1.865,3.696-2.841l1.814-1.549l0.907-0.775l0.862-0.825l1.722-1.651
		l1.626-1.745c2.129-2.359,4.095-4.879,5.714-7.62c0.789-1.38,1.546-2.782,2.146-4.257c0.615-1.464,1.138-2.979,1.399-4.549
		c0.086-0.52,0.578-0.872,1.099-0.785c0.484,0.081,0.822,0.512,0.797,0.991l-0.001,0.017c-0.033,0.59-0.077,0.98-0.138,1.442
		c-0.052,0.454-0.142,0.872-0.215,1.314c-0.177,0.855-0.369,1.712-0.621,2.539c-0.467,1.679-1.1,3.282-1.78,4.877
		c-1.4,3.164-3.193,6.127-5.19,8.942l-1.535,2.09l-1.64,1.995l-0.658,0.794c6.118,12.05,23.066,48.513,42.05,116.139l-0.196,0.103
		l-41.318,22.743c4.649,1.088,9.22,2.291,13.791,3.586c5.282,1.503,10.526,3.14,15.731,4.9c5.211,1.742,10.361,3.677,15.467,5.731
		c4.839,1.935,9.588,4.109,14.29,6.389l7.528-2.898c0.566-0.218,1.201,0.064,1.419,0.63c0.191,0.496-0.003,1.046-0.436,1.321
		l-6.322,4.019c1.019,4.07,3.939,15.833,4.917,20.87l8.735-4.819l60.333-33.287C887.162,313.26,793.015,199.133,793.015,199.133
		l-46.686,19.588C755.565,222.398,763.706,226.489,770.545,230.921z M617.456,369.389c0,1.104-0.896,2-2,2s-2-0.896-2-2v-29.96
		c0-1.104,0.896-2,2-2s2,0.896,2,2V369.389z M843.748,462.579c-1.194-0.009-2.354-0.149-3.503-0.331
		c-1.15-0.18-2.285-0.418-3.41-0.695c-1.124-0.28-2.238-0.599-3.332-0.998c-1.096-0.389-2.177-0.836-3.221-1.43
		c-0.663-0.377-0.895-1.221-0.517-1.884c0.25-0.44,0.708-0.69,1.181-0.698c1.201-0.017,2.363,0.112,3.511,0.299
		c1.151,0.177,2.28,0.435,3.401,0.731c1.119,0.3,2.228,0.637,3.323,1.034c1.095,0.395,2.179,0.831,3.229,1.398
		c0.665,0.359,0.913,1.19,0.554,1.856C844.714,462.322,844.237,462.582,843.748,462.579z"/>
	<path style="fill:#FF3A00;" d="M848.493,462.419c2.696,11.653,5.093,22.925,7.19,33.648l39.162-19.736l-43.275-11.051
		c-1.07-0.273-1.716-1.363-1.442-2.433c0.272-1.07,1.356-1.715,2.433-1.443l44.518,11.368
		c-17.155-78.204-47.397-142.978-70.385-184.411c-16.375-29.516-31.365-51.49-40.498-64.052l-15.652,6.612
		c15.362,9.918,24.175,21.52,24.175,33.906v39.186C819.432,354.997,836.829,412.2,848.493,462.419z"/>
	<path style="fill:#FF3A00;" d="M864.444,607.488c-14.195-17.263-35.208-32.295-61.831-43.959c-0.3-0.124-0.651-0.279-1.054-0.465
		c-0.351-0.155-0.692-0.31-1.054-0.455c-16.137-6.147-31.82,31.2-11.726,41.118c0.331,0.145,0.661,0.289,0.981,0.444
		c0.041,0.021,0.093,0.041,0.134,0.062c15.259,7.118,27.718,15.435,36.716,24.402c3.192,3.172,5.951,6.436,8.244,9.742
		c4.184,6.054,6.839,12.294,7.79,18.575c1.612,10.724-2.356,20.507-10.889,26.84c-13.368,9.938-34.475,9.66-56.459-0.733
		c-8.595-4.06-17.15-7.841-25.662-11.323c-42.74-17.532-84.353-27.791-124.014-30.57c-19.846-1.384-39.031-0.878-57.513,1.498
		c6.364,7.914,10.155,17.842,10.155,28.627c0,4.349-0.62,8.606-1.777,12.656c-0.041,0.145-0.072,0.279-0.124,0.413
		c0.764-0.093,1.529-0.186,2.304-0.269c19.123-2.108,40.115-2.004,63.061,1.095c34.061,4.608,72.441,15.817,115.46,36.159
		c36.376,17.201,73.702,15.879,99.839-3.554c21.179-15.745,31.458-40.849,27.501-67.141
		C882.214,635.299,875.343,620.732,864.444,607.488z"/>
	<path style="fill:#04294F;" d="M786.279,499.901c0,0,35.175,8.924,60.726,23.531c-1.166-5.596-3.956-16.798-4.77-20.047
		c-4.589-2.224-9.233-4.35-13.984-6.249c-5.024-2.021-10.1-3.929-15.246-5.649c-5.139-1.737-10.322-3.355-15.542-4.841
		c-4.819-1.366-9.697-2.643-14.547-3.758C784.818,489.204,786.279,499.901,786.279,499.901z"/>
	<path style="fill:#FF3A00;" d="M793.015,199.133L717.743,185l-42.998,16.509v0.01c27.512,3.399,52.006,9.381,71.584,17.201
		L793.015,199.133z"/>
	<path style="fill:#FFB400;" d="M516.812,299.646c27.899,9.732,65.035,15.092,104.565,15.092c39.533,0,76.67-5.36,104.57-15.092
		c26.847-9.364,42.244-22.055,42.244-34.817s-15.397-25.453-42.244-34.818c-27.9-9.732-65.037-15.092-104.57-15.092
		c-39.53,0-76.666,5.36-104.565,15.092c-26.847,9.365-42.244,22.055-42.244,34.818C474.568,277.59,489.966,290.281,516.812,299.646z
		 M586.89,243.246h0.01c8.358-9.659,20.703-15.776,34.475-15.776c13.782,0,26.127,6.116,34.485,15.776h0.01
		c18.871,4.452,31.452,12.445,31.458,21.576c0,0.002,0.001,0.004,0.001,0.006c-0.002,0.414-0.033,0.824-0.086,1.23
		c-0.036,0.286-0.098,0.569-0.158,0.853c-0.023,0.106-0.041,0.213-0.067,0.319c-0.079,0.323-0.179,0.643-0.29,0.961
		c-0.019,0.054-0.037,0.109-0.057,0.163c-0.122,0.334-0.258,0.667-0.413,0.997c-0.008,0.017-0.017,0.033-0.025,0.05
		c-0.422,0.886-0.963,1.756-1.619,2.608c-0.126,0.164-0.251,0.327-0.383,0.486c-0.176,0.212-0.36,0.423-0.55,0.633
		c-0.029,0.032-0.056,0.067-0.086,0.099c-0.028,0.031-0.061,0.057-0.09,0.088c-0.46,0.496-0.957,0.984-1.494,1.465
		c-0.054,0.048-0.106,0.098-0.16,0.146c-1.54,1.356-3.374,2.651-5.483,3.87c-0.071,0.042-0.141,0.088-0.212,0.13
		c-0.199,0.112-0.403,0.214-0.604,0.323c-0.425,0.235-0.855,0.468-1.3,0.696c-0.189,0.097-0.379,0.189-0.569,0.284
		c-0.486,0.242-0.977,0.483-1.485,0.718c-0.29,0.135-0.583,0.263-0.875,0.394c-0.385,0.171-0.769,0.343-1.166,0.51
		c-0.491,0.208-0.986,0.406-1.482,0.602c-0.22,0.087-0.435,0.176-0.659,0.261c-0.716,0.275-1.437,0.539-2.161,0.793
		c-0.037,0.013-0.071,0.027-0.107,0.039c-0.009,0.003-0.018,0.006-0.027,0.009c-0.521,0.182-1.045,0.354-1.57,0.526
		c-0.272,0.089-0.541,0.181-0.817,0.268c-0.297,0.094-0.595,0.182-0.893,0.273c-5.264,1.614-11.184,2.924-17.587,3.86
		c-0.026,0.004-0.052,0.007-0.078,0.011c-2.968,0.432-6.039,0.783-9.194,1.049c-0.07,0.006-0.139,0.012-0.209,0.017
		c-4.513,0.374-9.192,0.578-13.996,0.578c-4.807,0-9.487-0.204-14.002-0.578c-0.059-0.005-0.119-0.01-0.178-0.015
		c-3.167-0.266-6.249-0.618-9.227-1.053c-0.017-0.003-0.034-0.005-0.051-0.007c-6.387-0.934-12.293-2.239-17.548-3.847
		c-0.318-0.097-0.636-0.191-0.953-0.291c-0.257-0.082-0.507-0.167-0.762-0.25c-0.543-0.177-1.086-0.356-1.625-0.544
		c-0.005-0.002-0.011-0.004-0.016-0.005c-0.022-0.008-0.043-0.016-0.065-0.024c-0.741-0.259-1.478-0.53-2.21-0.811
		c-0.216-0.083-0.423-0.168-0.636-0.252c-0.502-0.199-1.004-0.399-1.501-0.61c-0.393-0.166-0.774-0.336-1.156-0.506
		c-0.295-0.132-0.591-0.262-0.885-0.398c-0.507-0.235-0.997-0.475-1.482-0.717c-0.19-0.095-0.381-0.187-0.57-0.284
		c-0.447-0.23-0.878-0.464-1.305-0.699c-0.199-0.109-0.402-0.21-0.599-0.321c-0.071-0.041-0.139-0.087-0.21-0.129
		c-2.112-1.221-3.949-2.518-5.49-3.875c-0.051-0.045-0.099-0.091-0.15-0.136c-0.542-0.485-1.044-0.978-1.508-1.479
		c-0.026-0.028-0.056-0.052-0.082-0.08c-0.027-0.029-0.052-0.061-0.079-0.091c-0.195-0.215-0.384-0.432-0.564-0.649
		c-0.125-0.15-0.243-0.305-0.363-0.461c-0.667-0.864-1.217-1.747-1.643-2.647c-0.003-0.007-0.007-0.013-0.01-0.02
		c-0.159-0.336-0.297-0.675-0.421-1.016c-0.017-0.046-0.033-0.092-0.049-0.139c-0.113-0.326-0.215-0.653-0.296-0.983
		c-0.023-0.093-0.038-0.188-0.059-0.281c-0.064-0.295-0.128-0.59-0.165-0.888c-0.049-0.373-0.074-0.751-0.079-1.132
		c0-0.031-0.006-0.061-0.006-0.092C555.432,255.695,568.015,247.699,586.89,243.246z"/>
	<path style="fill:#FFB400;" d="M503.209,313.497l-0.041,0.103c0,0-15.383,22.873-17.377,38.276
		c-0.372,2.841-0.289,5.414,0.434,7.552c0,0.01,0.01,0.021,0.01,0.021c0.021,0.062,0.031,0.134,0.062,0.196
		c0.806,2.262,2.356,4.019,4.845,5.021c33.028,13.337,124.313-33.338,124.313-33.338v-0.01c1.963,0.031,3.936,0.041,5.92,0.041
		c95.738,0,173.345-29.784,173.345-66.532c0-12.387-8.812-23.989-24.175-33.906c-6.839-4.432-14.98-8.523-24.216-12.201
		c-19.577-7.821-44.072-13.802-71.584-17.201c-16.809-2.097-34.754-3.223-53.37-3.223c-95.727,0-173.334,29.784-173.334,66.532
		C448.041,284.044,469.271,301.359,503.209,313.497z M589.38,330.234c0,0-61.387,31.179-84.126,22.005
		c-12.087-4.887,9.835-34.847,9.835-34.847c21.344,6.364,46.665,10.858,74.291,12.831V330.234z M515.495,226.233
		c28.312-9.876,65.915-15.315,105.883-15.315c39.97,0,77.574,5.439,105.888,15.315c28.972,10.105,44.927,23.812,44.927,38.595
		s-15.955,28.489-44.927,38.594c-28.313,9.876-65.918,15.315-105.888,15.315c-39.968,0-77.57-5.439-105.883-15.315
		c-28.972-10.105-44.927-23.812-44.927-38.594S486.523,236.339,515.495,226.233z"/>
	<path style="fill:#FF3A00;" d="M607.195,289.546c-3.086-0.258-6.164-0.604-9.227-1.053
		C600.946,288.928,604.028,289.28,607.195,289.546z"/>
	<path style="fill:#FF3A00;" d="M580.37,284.639c5.255,1.609,11.161,2.914,17.548,3.847c-4.648-0.682-9.261-1.596-13.812-2.78
		C582.855,285.375,581.609,285.016,580.37,284.639z"/>
	<path style="fill:#FF3A00;" d="M644.853,288.484c6.403-0.936,12.323-2.246,17.587-3.86c-1.256,0.383-2.517,0.746-3.784,1.082
		C654.108,286.889,649.498,287.802,644.853,288.484z"/>
	<path style="fill:#FF3A00;" d="M576.193,278.986c2.891,1.111,5.895,2.05,8.932,2.852c11.705,3.049,24.012,4.269,36.255,4.301
		c12.243-0.032,24.55-1.252,36.256-4.301c3.037-0.802,6.041-1.741,8.932-2.852c0.254-1.941,0.398-3.916,0.398-5.924
		c0-11.395-4.184-21.819-11.096-29.815h-0.01c-8.358-9.659-20.703-15.776-34.485-15.776c-13.771,0-26.117,6.116-34.475,15.776h-0.01
		c-6.911,7.996-11.096,18.42-11.096,29.815C575.795,275.07,575.939,277.045,576.193,278.986z"/>
	<path style="fill:#FF3A00;" d="M577.014,283.548c0.005,0.002,0.011,0.004,0.016,0.005
		C577.025,283.551,577.019,283.549,577.014,283.548C577.014,283.547,577.014,283.548,577.014,283.548z"/>
	<path style="fill:#FF3A00;" d="M607.373,289.561c4.514,0.375,9.195,0.578,14.002,0.578c4.804,0,9.483-0.203,13.996-0.578
		c-4.654,0.383-9.326,0.564-13.991,0.577C616.711,290.126,612.033,289.945,607.373,289.561z"/>
	<path style="fill:#FF3A00;" d="M665.72,283.557c0.009-0.003,0.018-0.006,0.027-0.009c0,0,0,0,0-0.001
		C665.738,283.55,665.729,283.554,665.72,283.557z"/>
	<path style="fill:#FF3A00;" d="M644.775,288.495c-3.052,0.446-6.119,0.792-9.194,1.049
		C638.736,289.279,641.807,288.928,644.775,288.495z"/>
	<path style="fill:#FF3A00;" d="M664.15,284.083c-0.273,0.089-0.544,0.182-0.817,0.268
		C663.609,284.263,663.877,284.172,664.15,284.083z"/>
	<path style="fill:#FF3A00;" d="M579.417,284.348c-0.255-0.081-0.508-0.167-0.762-0.25
		C578.909,284.181,579.159,284.266,579.417,284.348z"/>
	<path style="fill:#00AEE0;" d="M578.667,684.093c13.875,0.93,28.142,1.415,42.709,1.415c6.849,0,13.637-0.103,20.352-0.32
		C618.782,682.089,597.79,681.985,578.667,684.093z"/>
	<path style="fill:#04294F;" d="M505.254,352.239c22.739,9.174,84.126-22.005,84.126-22.005v-0.01
		c-27.625-1.973-52.947-6.467-74.291-12.831C515.09,317.392,493.167,347.352,505.254,352.239z"/>
	<path style="fill:#04294F;" d="M485.791,351.877c1.994-15.404,17.377-38.276,17.377-38.276l0.041-0.103
		c-33.937-12.139-55.168-29.454-55.168-48.67v39.186v6.416C448.041,326.101,462.164,340.513,485.791,351.877z"/>
	<path style="fill:#FF3A00;" d="M479.086,673.121c0-0.527,0.01-1.064,0.031-1.591c-13.389,7.376-26.241,16.065-38.524,26.045
		c-1.581,1.281-2.934,2.748-4.039,4.349c-1.808,2.593-2.975,5.527-3.482,8.564c-13.234,39.63,24.691,54.527,44.981,61.294
		c21.695,7.232,42.357-15.321,47.006-32.46c4.61-16.985-15.154-24.558-26.063-6.646c0.046,0.007,0.093,0.01,0.136,0.026l0.028,0.01
		c1.091,0.402,2.053,0.923,2.959,1.475c0.905,0.554,1.755,1.148,2.567,1.774c0.82,0.615,1.593,1.263,2.305,2.011
		c0.711,0.754,1.384,1.532,2.008,2.629l0.014,0.025c0.159,0.279,0.061,0.635-0.218,0.794c-0.068,0.039-0.144,0.063-0.218,0.072
		c-1.307,0.158-2.48-0.167-3.556-0.602c-1.061-0.463-2.001-1.109-2.851-1.843c-0.848-0.735-1.614-1.555-2.282-2.461
		c-0.665-0.911-1.239-1.891-1.619-3.052c-0.079-0.242-0.005-0.492,0.161-0.664c-1.617-1.508-9.323-9.79-0.118-23.426v-0.01
		C486.71,701.531,479.086,688.215,479.086,673.121z M449.17,756.488c-0.16,0.034-0.32,0.008-0.454-0.064
		c-1.099-0.587-2.015-1.351-2.833-2.193c-0.816-0.845-1.528-1.777-2.135-2.774c-0.612-0.994-1.116-2.059-1.425-3.205
		c-0.29-1.152-0.461-2.356-0.2-3.672c0.063-0.315,0.369-0.519,0.684-0.457c0.085,0.017,0.163,0.052,0.229,0.1l0.01,0.007
		c1.06,0.779,1.777,1.633,2.454,2.502c0.658,0.875,1.2,1.793,1.703,2.742c0.507,0.946,0.979,1.918,1.407,2.937
		c0.425,1.021,0.814,2.081,1.072,3.277l0.001,0.007C449.758,756.056,449.53,756.411,449.17,756.488z M466.733,765.786
		c-0.16,0.035-0.32,0.008-0.454-0.064c-1.099-0.587-2.015-1.351-2.833-2.193c-0.816-0.845-1.528-1.777-2.136-2.774
		c-0.612-0.994-1.116-2.059-1.425-3.205c-0.29-1.152-0.461-2.356-0.2-3.672c0.063-0.315,0.369-0.519,0.684-0.457
		c0.085,0.017,0.163,0.052,0.229,0.1l0.01,0.007c1.059,0.779,1.777,1.633,2.454,2.502c0.658,0.875,1.2,1.793,1.703,2.743
		c0.507,0.946,0.979,1.918,1.407,2.937c0.425,1.021,0.814,2.081,1.072,3.277l0.002,0.007
		C467.321,765.354,467.092,765.709,466.733,765.786z"/>
	<path style="fill:#00AEE0;" d="M482.671,655.734c0.847-1.973,1.839-3.874,2.955-5.682c-0.031,0-0.072,0-0.103-0.01
		c-3.254-0.527-6.405-2.046-8.843-4.814c-11.189-12.718-31.179-22.925-48.587-30.022c2.046,12.852-2.056,22.573-8.843,29.97
		c16.416,8.967,36.768,16.788,60.106,23.09c0.444-4.091,1.457-8.017,2.965-11.684C482.433,656.292,482.547,656.013,482.671,655.734z
		"/>
	<path style="fill:none;stroke:#00AEE0;stroke-width:0;stroke-linecap:round;stroke-linejoin:round;" d="M482.319,656.581
		c0.114-0.289,0.227-0.568,0.351-0.847"/>
	<path style="fill:#FF3A00;" d="M428.092,615.205c17.408,7.097,37.398,17.305,48.587,30.022c2.438,2.769,5.589,4.287,8.843,4.814
		c0.031,0.01,0.072,0.01,0.103,0.01c2.758,0.444,5.579,0.155,8.1-0.682c3.967-1.322,7.159-4.008,8.12-7.459
		c0.578-2.035,0.372-4.329-0.919-6.757c-0.124-0.258-0.279-0.517-0.434-0.775c-0.041-0.062-0.072-0.124-0.124-0.186
		c-27.615-44.723-74.022-52.006-111.203-63.722c-2.593-0.785-5.093-1.632-7.511-2.521c-1.87-0.692-3.678-1.405-5.434-2.159
		c-21.406-9.143-34.588-22.635-36.768-38.08c-1.736-12.346,4.07-24.805,14.815-31.768c9.237-5.989,21.086-7.163,33.485-3.74
		c4.685-22.488,8.755-39.293,9.014-40.361c-23.337-5.868-46.558-3.746-65.538,8.562c-24.516,15.879-37.75,44.62-33.721,73.216
		c4.504,31.933,28.514,58.019,66.584,72.958c8.916,13.999-0.878,21.881-0.878,21.881c-10.383-17.707-29.65-10.455-25.208,5.93
		c4.453,16.385,24.216,37.956,44.971,31.045c10.631-3.544,26.334-9.432,36.272-20.259
		C426.036,637.779,430.137,628.057,428.092,615.205z M361.811,629.72c-0.015,0.069-0.04,0.138-0.072,0.198
		c-0.411,0.772-0.955,1.34-1.556,1.807c-0.602,0.464-1.269,0.819-1.98,1.067c-0.708,0.252-1.468,0.392-2.259,0.322
		c-0.789-0.09-1.612-0.31-2.362-0.995c-0.275-0.251-0.301-0.674-0.061-0.956l0.025-0.029c0.629-0.738,1.179-1.133,1.746-1.479
		c0.565-0.326,1.145-0.526,1.758-0.673c0.61-0.152,1.247-0.258,1.927-0.302c0.683-0.041,1.403-0.03,2.237,0.147l0.017,0.004
		C361.638,628.915,361.897,629.314,361.811,629.72z M424.265,597.762l0-0.006c0.025-0.301,0.29-0.525,0.591-0.499
		c0.126,0.011,0.239,0.063,0.325,0.143c1.194,1.101,2.022,2.368,2.737,3.676c0.704,1.314,1.229,2.697,1.653,4.109
		c0.431,1.411,0.762,2.854,0.98,4.325c0.196,1.479,0.337,2.965,0.19,4.528c-0.033,0.353-0.346,0.613-0.7,0.579
		c-0.195-0.018-0.362-0.123-0.467-0.272l-0.01-0.014c-0.87-1.259-1.524-2.576-2.155-3.891c-0.611-1.322-1.144-2.661-1.623-4.018
		c-0.482-1.355-0.896-2.731-1.182-4.157C424.345,600.829,424.13,599.375,424.265,597.762z M396.77,653.207
		c-0.309,1.146-0.813,2.211-1.425,3.205c-0.608,0.997-1.319,1.929-2.135,2.774c-0.818,0.842-1.734,1.606-2.833,2.193
		c-0.325,0.173-0.728,0.051-0.902-0.274c-0.077-0.145-0.096-0.305-0.064-0.453l0.002-0.008c0.258-1.196,0.647-2.255,1.072-3.277
		c0.428-1.019,0.9-1.99,1.407-2.937c0.503-0.949,1.045-1.867,1.703-2.743c0.677-0.869,1.394-1.723,2.454-2.502l0.007-0.005
		c0.259-0.19,0.623-0.135,0.813,0.124c0.052,0.07,0.085,0.151,0.102,0.231C397.232,650.851,397.061,652.056,396.77,653.207z
		 M414.333,643.909c-0.309,1.146-0.813,2.211-1.425,3.205c-0.608,0.997-1.319,1.929-2.136,2.774
		c-0.818,0.842-1.734,1.606-2.833,2.193c-0.325,0.173-0.728,0.051-0.902-0.274c-0.077-0.145-0.096-0.305-0.064-0.453l0.002-0.008
		c0.258-1.196,0.647-2.255,1.072-3.277c0.428-1.019,0.9-1.99,1.407-2.937c0.503-0.949,1.045-1.867,1.703-2.743
		c0.677-0.869,1.394-1.723,2.454-2.502l0.007-0.005c0.259-0.19,0.623-0.134,0.813,0.124c0.052,0.07,0.085,0.151,0.102,0.231
		C414.794,641.553,414.624,642.758,414.333,643.909z"/>
	<g>
		<path style="fill:#04294F;" d="M578.264,671.293c0-10.786-3.792-20.714-10.155-28.627c-8.885-11.034-22.78-18.131-38.401-18.131
			c-10.6,0-20.889,3.688-29.34,9.66c0.052,0.062,0.083,0.124,0.124,0.186c0.155,0.258,0.31,0.517,0.434,0.775
			c6.478-3.771,14.019-5.94,22.067-5.94c13.286,0,25.197,5.909,33.245,15.238c6.643,7.686,10.662,17.707,10.662,28.669
			c0,3.43-0.393,6.767-1.136,9.969c-0.227,0.992-0.496,1.973-0.795,2.944c-5.517,17.945-22.222,30.993-41.975,30.993
			c-1.891,0-3.76-0.124-5.589-0.351c2.479,0.403,6.602,1.116,12.304,1.384c22.119,1.064,40.818-13.906,46.655-33.7
			c0.052-0.134,0.083-0.269,0.124-0.413C577.644,679.898,578.264,675.642,578.264,671.293z"/>
		<path style="fill:#FFFFFF;" d="M564.968,686.035c0.3-0.971,0.568-1.953,0.795-2.944c0.744-3.203,1.136-6.54,1.136-9.969
			c0-10.961-4.019-20.982-10.662-28.669c-8.048-9.329-19.96-15.238-33.245-15.238c-8.048,0-15.59,2.169-22.067,5.94
			c1.291,2.428,1.498,4.721,0.919,6.757c6.033-4.101,13.317-6.498,21.148-6.498c10.073,0,19.236,3.967,26.003,10.424
			c7.211,6.87,11.705,16.561,11.705,27.284c0,3.234-0.413,6.385-1.178,9.381c-0.434,1.674-0.971,3.296-1.622,4.866
			c-5.63,13.751-19.154,23.462-34.909,23.462c-6.653,0-12.904-1.725-18.338-4.773c-11.55-6.447-19.371-18.792-19.371-32.935
			c0-1.095,0.052-2.19,0.145-3.265c0.052-0.599,0.114-1.198,0.196-1.787c0.94-7.025,3.823-13.451,8.1-18.699
			c-2.521,0.837-5.341,1.126-8.1,0.682c-1.116,1.808-2.107,3.709-2.955,5.682c-0.124,0.279-0.238,0.558-0.351,0.847
			c-1.508,3.667-2.521,7.593-2.965,11.684c-0.124,1.074-0.196,2.169-0.238,3.265c-0.021,0.527-0.031,1.064-0.031,1.591
			c0,15.094,7.624,28.41,19.226,36.314c5.269,3.595,11.354,6.064,17.935,7.077c0.382,0.062,0.765,0.114,1.157,0.165
			c1.829,0.227,3.698,0.351,5.589,0.351C542.746,717.028,559.451,703.98,564.968,686.035z"/>
		<path style="fill:#04294F;" d="M493.725,649.37c-4.277,5.248-7.159,11.674-8.1,18.699c-0.083,0.589-0.145,1.188-0.196,1.787
			c-0.093,1.074-0.145,2.169-0.145,3.265c0,14.143,7.821,26.489,19.371,32.935c5.434,3.048,11.684,4.773,18.338,4.773
			c15.755,0,29.278-9.711,34.909-23.462c0.651-1.57,1.188-3.192,1.622-4.866c0.765-2.996,1.178-6.147,1.178-9.381
			c0-10.724-4.494-20.414-11.705-27.284c-6.767-6.457-15.93-10.424-26.003-10.424c-7.831,0-15.114,2.397-21.148,6.498
			C500.884,645.362,497.692,648.048,493.725,649.37z M489.483,674.154c0-1.104,0.896-2,2-2h5.166c1.104,0,2,0.896,2,2s-0.896,2-2,2
			h-5.166C490.378,676.154,489.483,675.259,489.483,674.154z M512.236,697.773l-2.583,4.474c-0.37,0.642-1.042,1-1.734,1
			c-0.339,0-0.683-0.086-0.998-0.268c-0.957-0.553-1.284-1.776-0.732-2.732l2.583-4.474c0.552-0.956,1.775-1.285,2.732-0.732
			S512.788,696.817,512.236,697.773z M501.546,689.053l-4.473,2.583c-0.315,0.182-0.659,0.268-0.998,0.268
			c-0.691,0-1.363-0.358-1.734-1c-0.552-0.956-0.225-2.18,0.732-2.732l4.473-2.583c0.956-0.551,2.18-0.224,2.732,0.732
			S502.502,688.5,501.546,689.053z M525.509,705.147c0,1.104-0.896,2-2,2s-2-0.896-2-2v-5.166c0-1.104,0.896-2,2-2s2,0.896,2,2
			V705.147z M552.506,690.009c-0.371,0.642-1.043,1-1.734,1c-0.339,0-0.683-0.086-0.998-0.268l-4.474-2.582
			c-0.956-0.553-1.284-1.775-0.732-2.732c0.553-0.956,1.773-1.285,2.732-0.732l4.474,2.582
			C552.729,687.829,553.058,689.052,552.506,690.009z M529.219,678.714c1.548,2.44,3.055,4.907,4.466,7.438
			c1.418,2.526,2.769,5.096,4.02,7.733c1.246,2.64,2.422,5.326,3.367,8.164c-2.24-1.983-4.249-4.119-6.189-6.3
			c-1.935-2.185-3.769-4.436-5.536-6.731c-1.775-2.29-3.453-4.645-5.09-7.026c-0.65-0.953-1.284-1.916-1.916-2.881
			c-3.018-0.326-5.375-2.887-5.375-5.99c0-3.085,2.331-5.633,5.324-5.983c1.093-1.689,2.218-3.36,3.39-5.006
			c1.123-1.554,2.268-3.096,3.473-4.605c1.212-1.505,2.468-2.986,3.831-4.408c-0.474,1.912-1.056,3.764-1.681,5.593
			c-0.632,1.825-1.324,3.616-2.039,5.396c-0.651,1.59-1.343,3.158-2.051,4.717c1.114,1.094,1.807,2.615,1.807,4.296
			c0,1.32-0.431,2.538-1.154,3.532C528.318,677.339,528.776,678.022,529.219,678.714z M556.503,673.121c0,1.104-0.896,2-2,2h-5.166
			c-1.104,0-2-0.896-2-2s0.896-2,2-2h5.166C555.607,671.121,556.503,672.017,556.503,673.121z M549.132,655.767
			c0.959-0.553,2.179-0.224,2.732,0.732c0.552,0.957,0.224,2.18-0.732,2.732l-4.475,2.583c-0.315,0.182-0.659,0.268-0.998,0.268
			c-0.691,0-1.363-0.358-1.734-1c-0.552-0.957-0.224-2.18,0.732-2.732L549.132,655.767z M539.536,644.423
			c0.957,0.553,1.284,1.776,0.732,2.732l-2.583,4.474c-0.371,0.642-1.042,1-1.734,1c-0.339,0-0.683-0.086-0.998-0.268
			c-0.957-0.553-1.284-1.776-0.732-2.732l2.583-4.474C537.356,644.199,538.58,643.871,539.536,644.423z M520.476,642.128
			c0-1.104,0.896-2,2-2s2,0.896,2,2v5.166c0,1.104-0.896,2-2,2s-2-0.896-2-2V642.128z M505.9,644.938
			c0.956-0.553,2.179-0.224,2.732,0.732l2.583,4.474c0.552,0.956,0.225,2.18-0.732,2.732c-0.315,0.182-0.659,0.268-0.998,0.268
			c-0.691,0-1.363-0.358-1.734-1l-2.583-4.474C504.616,646.715,504.943,645.491,505.9,644.938z M501.886,661.977
			c-0.371,0.642-1.042,1-1.734,1c-0.339,0-0.683-0.086-0.998-0.268l-4.473-2.583c-0.957-0.553-1.284-1.776-0.732-2.732
			s1.776-1.283,2.732-0.732l4.473,2.583C502.111,659.797,502.438,661.021,501.886,661.977z"/>
		<path style="fill:#FFB400;" d="M522.476,649.294c1.104,0,2-0.896,2-2v-5.166c0-1.104-0.896-2-2-2s-2,0.896-2,2v5.166
			C520.476,648.398,521.372,649.294,522.476,649.294z"/>
		<path style="fill:#FFB400;" d="M507.751,652.145c0.371,0.642,1.042,1,1.734,1c0.339,0,0.683-0.086,0.998-0.268
			c0.957-0.553,1.284-1.776,0.732-2.732l-2.583-4.474c-0.553-0.956-1.776-1.285-2.732-0.732c-0.957,0.553-1.284,1.776-0.732,2.732
			L507.751,652.145z"/>
		<path style="fill:#FFB400;" d="M493.949,657.394c-0.552,0.956-0.225,2.18,0.732,2.732l4.473,2.583
			c0.315,0.182,0.659,0.268,0.998,0.268c0.691,0,1.363-0.358,1.734-1c0.552-0.956,0.225-2.18-0.732-2.732l-4.473-2.583
			C495.725,656.11,494.501,656.438,493.949,657.394z"/>
		<path style="fill:#FFB400;" d="M498.648,674.154c0-1.104-0.896-2-2-2h-5.166c-1.104,0-2,0.896-2,2s0.896,2,2,2h5.166
			C497.753,676.154,498.648,675.259,498.648,674.154z"/>
		<path style="fill:#FFB400;" d="M499.546,685.588l-4.473,2.583c-0.957,0.553-1.284,1.776-0.732,2.732c0.371,0.642,1.042,1,1.734,1
			c0.339,0,0.683-0.086,0.998-0.268l4.473-2.583c0.957-0.553,1.284-1.776,0.732-2.732S500.502,685.037,499.546,685.588z"/>
		<path style="fill:#FFB400;" d="M508.772,695.773l-2.583,4.474c-0.552,0.956-0.225,2.18,0.732,2.732
			c0.315,0.182,0.659,0.268,0.998,0.268c0.691,0,1.364-0.358,1.734-1l2.583-4.474c0.552-0.956,0.225-2.18-0.732-2.732
			S509.324,694.817,508.772,695.773z"/>
		<path style="fill:#FFB400;" d="M523.509,697.981c-1.104,0-2,0.896-2,2v5.166c0,1.104,0.896,2,2,2s2-0.896,2-2v-5.166
			C525.509,698.877,524.614,697.981,523.509,697.981z"/>
		<path style="fill:#FFB400;" d="M551.773,687.276l-4.474-2.582c-0.959-0.553-2.18-0.224-2.732,0.732
			c-0.552,0.957-0.224,2.18,0.732,2.732l4.474,2.582c0.315,0.182,0.659,0.268,0.998,0.268c0.691,0,1.363-0.358,1.734-1
			C553.058,689.052,552.729,687.829,551.773,687.276z"/>
		<path style="fill:#FFB400;" d="M547.337,673.121c0,1.104,0.896,2,2,2h5.166c1.104,0,2-0.896,2-2s-0.896-2-2-2h-5.166
			C548.232,671.121,547.337,672.017,547.337,673.121z"/>
		<path style="fill:#FFB400;" d="M543.925,661.082c0.371,0.642,1.043,1,1.734,1c0.339,0,0.683-0.086,0.998-0.268l4.475-2.583
			c0.956-0.553,1.284-1.775,0.732-2.732c-0.554-0.956-1.773-1.285-2.732-0.732l-4.475,2.583
			C543.701,658.902,543.373,660.125,543.925,661.082z"/>
		<path style="fill:#FFB400;" d="M534.22,649.629c-0.552,0.956-0.225,2.18,0.732,2.732c0.315,0.182,0.659,0.268,0.998,0.268
			c0.691,0,1.363-0.358,1.734-1l2.583-4.474c0.552-0.956,0.225-2.18-0.732-2.732c-0.956-0.552-2.179-0.224-2.732,0.732
			L534.22,649.629z"/>
		<path style="fill:#FFFFFF;" d="M527.213,668.825c0.709-1.559,1.4-3.127,2.051-4.717c0.715-1.779,1.407-3.571,2.039-5.396
			c0.625-1.829,1.207-3.681,1.681-5.593c-1.363,1.422-2.619,2.903-3.831,4.408c-1.205,1.509-2.35,3.051-3.473,4.605
			c-1.172,1.646-2.297,3.317-3.39,5.006c0.231-0.027,0.465-0.045,0.703-0.045C524.635,667.094,526.125,667.756,527.213,668.825z"/>
		<path style="fill:#FFFFFF;" d="M522.993,679.148c-0.22,0-0.437-0.014-0.652-0.037c0.632,0.965,1.266,1.928,1.916,2.881
			c1.637,2.381,3.315,4.735,5.09,7.026c1.767,2.295,3.601,4.547,5.536,6.731c1.94,2.181,3.949,4.317,6.189,6.3
			c-0.946-2.838-2.122-5.524-3.367-8.164c-1.25-2.637-2.601-5.207-4.02-7.733c-1.411-2.531-2.918-4.998-4.466-7.438
			c-0.443-0.692-0.901-1.375-1.353-2.061C526.77,678.162,524.997,679.148,522.993,679.148z"/>
		<path style="fill:#FFB400;" d="M527.866,676.653c0.722-0.994,1.154-2.212,1.154-3.532c0-1.681-0.693-3.202-1.807-4.296
			c-1.088-1.069-2.577-1.731-4.22-1.731c-0.238,0-0.472,0.018-0.703,0.045c-2.993,0.35-5.324,2.897-5.324,5.983
			c0,3.103,2.357,5.664,5.375,5.99c0.214,0.023,0.431,0.037,0.652,0.037C524.997,679.148,526.77,678.162,527.866,676.653z"/>
	</g>
	<path style="fill:#04294F;" d="M515.495,303.422c28.312,9.876,65.915,15.315,105.883,15.315c39.97,0,77.574-5.439,105.888-15.315
		c28.972-10.105,44.927-23.812,44.927-38.594s-15.955-28.489-44.927-38.595c-28.313-9.876-65.918-15.315-105.888-15.315
		c-39.968,0-77.57,5.439-105.883,15.315c-28.972,10.106-44.927,23.812-44.927,38.595S486.523,293.317,515.495,303.422z
		 M516.812,230.01c27.899-9.732,65.035-15.092,104.565-15.092c39.533,0,76.67,5.36,104.57,15.092
		c26.847,9.365,42.244,22.055,42.244,34.818s-15.397,25.453-42.244,34.817c-27.9,9.732-65.037,15.092-104.57,15.092
		c-39.53,0-76.666-5.36-104.565-15.092c-26.847-9.365-42.244-22.055-42.244-34.817C474.568,252.065,489.966,239.375,516.812,230.01z
		"/>
	<path style="fill:#04294F;" d="M387.751,492.204c-0.002,0.008-0.003,0.016-0.005,0.024c0,0,0.037,0.011,0.086,0.026
		c0.652,0.195,5.643,1.68,13.048,3.787c-0.586-1.005-1.103-2.108-1.536-3.312c-1.775-4.935-2-10.97-0.635-16.995
		c1.365-6.024,4.17-11.373,7.898-15.061c1.69-1.672,3.488-2.922,5.328-3.736c-8.393-3.242-14.617-4.999-15.123-5.141
		c-0.022-0.006-0.034-0.009-0.034-0.009s-0.005,0.02-0.014,0.056C396.506,452.911,392.437,469.716,387.751,492.204z"/>
	<path style="fill:#04294F;" d="M409.873,498.378c2.898,0.656,6.105-0.583,9.041-3.486c3.177-3.143,5.584-7.775,6.778-13.044
		c1.194-5.269,1.018-10.486-0.495-14.692c-1.397-3.885-3.761-6.386-6.655-7.042c-0.506-0.115-1.023-0.171-1.545-0.171
		c-2.464,0-5.073,1.262-7.495,3.657c-3.177,3.143-5.585,7.775-6.778,13.044c-1.194,5.269-1.019,10.487,0.494,14.692
		C404.615,495.221,406.979,497.722,409.873,498.378z"/>
	<path style="fill:#04294F;" d="M498.269,733.535c0.379,1.161,0.954,2.141,1.619,3.052c0.667,0.906,1.434,1.726,2.282,2.461
		c0.85,0.734,1.79,1.38,2.851,1.843c1.076,0.434,2.249,0.76,3.556,0.602c0.074-0.009,0.15-0.033,0.218-0.072
		c0.279-0.159,0.377-0.514,0.218-0.794l-0.014-0.025c-0.624-1.097-1.297-1.875-2.008-2.629c-0.712-0.748-1.485-1.396-2.305-2.011
		c-0.812-0.626-1.661-1.22-2.567-1.774c-0.905-0.552-1.867-1.073-2.959-1.475l-0.028-0.01c-0.043-0.016-0.09-0.019-0.136-0.026
		c-0.098-0.014-0.199-0.015-0.3,0.018c-0.107,0.035-0.193,0.1-0.266,0.176C498.265,733.043,498.19,733.292,498.269,733.535z"/>
	<path style="fill:#04294F;" d="M449.679,755.689c-0.258-1.196-0.647-2.255-1.072-3.277c-0.428-1.019-0.9-1.99-1.407-2.937
		c-0.503-0.949-1.045-1.867-1.703-2.742c-0.677-0.869-1.394-1.723-2.454-2.502l-0.01-0.007c-0.066-0.048-0.143-0.083-0.229-0.1
		c-0.315-0.063-0.621,0.142-0.684,0.457c-0.262,1.315-0.091,2.52,0.2,3.672c0.309,1.146,0.813,2.211,1.425,3.205
		c0.608,0.997,1.319,1.929,2.135,2.774c0.818,0.842,1.734,1.606,2.833,2.193c0.134,0.071,0.294,0.098,0.454,0.064
		c0.36-0.078,0.589-0.432,0.511-0.792L449.679,755.689z"/>
	<path style="fill:#04294F;" d="M467.242,764.987c-0.258-1.196-0.647-2.255-1.072-3.277c-0.428-1.019-0.9-1.99-1.407-2.937
		c-0.503-0.949-1.045-1.867-1.703-2.743c-0.677-0.869-1.394-1.723-2.454-2.502l-0.01-0.007c-0.066-0.048-0.143-0.083-0.229-0.1
		c-0.315-0.063-0.621,0.142-0.684,0.457c-0.262,1.315-0.091,2.52,0.2,3.672c0.309,1.146,0.813,2.211,1.425,3.205
		c0.608,0.997,1.319,1.929,2.136,2.774c0.818,0.842,1.734,1.606,2.833,2.193c0.134,0.071,0.294,0.098,0.454,0.064
		c0.36-0.078,0.589-0.432,0.511-0.792L467.242,764.987z"/>
	<path style="fill:#04294F;" d="M414.533,640.238c-0.016-0.08-0.05-0.161-0.102-0.231c-0.19-0.259-0.554-0.314-0.813-0.124
		l-0.007,0.005c-1.06,0.779-1.777,1.633-2.454,2.502c-0.658,0.875-1.2,1.793-1.703,2.743c-0.507,0.946-0.979,1.918-1.407,2.937
		c-0.425,1.021-0.814,2.081-1.072,3.277l-0.002,0.008c-0.032,0.149-0.013,0.309,0.064,0.453c0.173,0.325,0.577,0.447,0.902,0.274
		c1.099-0.587,2.015-1.351,2.833-2.193c0.816-0.845,1.528-1.777,2.136-2.774c0.612-0.994,1.116-2.059,1.425-3.205
		C414.624,642.758,414.794,641.553,414.533,640.238z"/>
	<path style="fill:#04294F;" d="M396.868,649.305c-0.19-0.259-0.554-0.314-0.813-0.124l-0.007,0.005
		c-1.059,0.779-1.777,1.633-2.454,2.502c-0.658,0.875-1.2,1.793-1.703,2.743c-0.507,0.946-0.979,1.918-1.407,2.937
		c-0.425,1.021-0.814,2.081-1.072,3.277l-0.002,0.008c-0.032,0.149-0.013,0.309,0.064,0.453c0.173,0.325,0.577,0.447,0.902,0.274
		c1.099-0.587,2.015-1.351,2.833-2.193c0.816-0.845,1.528-1.777,2.135-2.774c0.612-0.994,1.116-2.059,1.425-3.205
		c0.29-1.152,0.461-2.356,0.199-3.672C396.954,649.456,396.92,649.375,396.868,649.305z"/>
	<path style="fill:#04294F;" d="M425.788,606.423c0.479,1.357,1.012,2.697,1.623,4.018c0.631,1.315,1.285,2.632,2.155,3.891
		l0.01,0.014c0.104,0.149,0.271,0.253,0.467,0.272c0.353,0.033,0.667-0.226,0.7-0.579c0.147-1.563,0.006-3.05-0.19-4.528
		c-0.218-1.471-0.549-2.914-0.98-4.325c-0.425-1.413-0.95-2.795-1.653-4.109c-0.715-1.308-1.543-2.575-2.737-3.676
		c-0.086-0.08-0.199-0.132-0.325-0.143c-0.301-0.025-0.566,0.198-0.591,0.499l0,0.006c-0.136,1.613,0.079,3.067,0.34,4.504
		C424.892,603.691,425.306,605.067,425.788,606.423z"/>
	<path style="fill:#04294F;" d="M361.231,628.829l-0.017-0.004c-0.834-0.177-1.554-0.188-2.237-0.147
		c-0.681,0.044-1.317,0.149-1.927,0.302c-0.613,0.147-1.193,0.347-1.758,0.673c-0.567,0.346-1.117,0.741-1.746,1.479l-0.025,0.029
		c-0.239,0.282-0.214,0.705,0.061,0.956c0.751,0.685,1.574,0.906,2.362,0.995c0.791,0.07,1.551-0.07,2.259-0.322
		c0.711-0.248,1.377-0.602,1.98-1.067c0.601-0.467,1.145-1.034,1.556-1.807c0.031-0.06,0.057-0.128,0.072-0.198
		C361.897,629.314,361.638,628.915,361.231,628.829z"/>
	<path style="fill:#FFFFFF;" d="M846.161,549.434c-1.604-1.342-3.191-2.72-4.856-3.99c-1.691-1.229-3.344-2.526-5.074-3.701
		c-1.745-1.149-3.477-2.331-5.269-3.404c-1.801-1.056-3.569-2.177-5.399-3.18c-1.849-0.968-3.679-1.972-5.542-2.908
		c-1.878-0.904-3.74-1.841-5.63-2.717l-5.737-2.466c-1.913-0.816-3.87-1.524-5.812-2.264c-7.794-2.888-15.756-5.282-23.867-7.028
		c7.607,3.322,15.2,6.507,22.68,9.902c7.47,3.408,14.851,6.969,21.967,10.975c1.801,0.962,3.542,2.023,5.317,3.03
		c1.773,1.011,3.449,2.167,5.198,3.216c1.737,1.067,3.391,2.25,5.094,3.37l4.948,3.577c6.452,4.963,12.427,10.536,17.54,17.08
		C858.019,561.477,852.421,554.98,846.161,549.434z"/>
	<path style="fill:#FFFFFF;" d="M494.53,510.437c9.695-2.019,19.45-3.714,29.235-5.179c2.444-0.38,4.891-0.741,7.345-1.049
		l7.352-0.996c4.911-0.594,9.818-1.201,14.742-1.668c4.916-0.539,9.845-0.945,14.769-1.397c4.934-0.346,9.861-0.769,14.802-1.007
		c9.869-0.667,19.759-0.986,29.65-1.207c4.946-0.09,9.894-0.196,14.842-0.188c4.948,0.008,9.897,0.046,14.847,0.11
		c19.798,0.346,39.588,1.451,59.372,3.208c-19.572-3.409-39.401-5.394-59.272-6.328c-19.875-0.943-39.806-0.757-59.68,0.414
		c-19.869,1.217-39.692,3.466-59.278,7.039c-4.901,0.867-9.778,1.86-14.646,2.887c-4.851,1.114-9.707,2.192-14.519,3.457
		c-9.626,2.507-19.174,5.313-28.521,8.68C475.176,514.688,484.822,512.403,494.53,510.437z"/>
	<path style="fill:#FFFFFF;" d="M401.681,547.444c-2.109,0.535-3.977,1.456-5.74,2.526c-1.754,1.082-3.385,2.343-4.874,3.758
		c-1.49,1.415-2.843,2.982-4.007,4.696c-1.151,1.723-2.145,3.577-2.706,5.678c1.877-1.094,3.47-2.32,5.024-3.569
		c1.541-1.257,3.012-2.554,4.439-3.903c1.428-1.348,2.807-2.753,4.139-4.246C399.279,550.879,400.571,549.314,401.681,547.444z"/>
	<path style="fill:#04294F;" d="M532.64,588.119c-4.692-0.711-9.353-1.766-14.032-3.185c-4.702-1.398-9.369-3.098-14.353-5.042
		c1.406,2.321,3.277,4.284,5.273,6.079c2.011,1.789,4.223,3.348,6.565,4.705c4.687,2.708,9.939,4.526,15.362,5.352
		c5.425,0.828,11.022,0.569,16.308-0.71c5.267-1.363,10.258-3.651,14.346-7.161c-5.37,0.399-10.312,0.869-15.181,0.927
		C542.066,589.116,537.337,588.819,532.64,588.119z"/>
	<path style="fill:#04294F;" d="M496.92,547.429l-5.329-0.353l-2.649-0.142c-0.882-0.05-1.76-0.195-2.638-0.279l-5.252-0.546
		c-1.747-0.151-3.471-0.532-5.202-0.763c-3.472-0.428-6.866-1.253-10.274-1.905c-6.757-1.594-13.378-3.595-19.726-6.214
		l-2.378-0.985c-0.791-0.331-1.55-0.724-2.328-1.081c-0.769-0.373-1.556-0.716-2.311-1.112l-2.263-1.19
		c-0.767-0.379-1.489-0.819-2.222-1.246c-0.732-0.427-1.474-0.845-2.168-1.314c-0.39-0.246-0.783-0.492-1.17-0.74
		c1.585-2.066,3.079-4.19,4.356-6.442c1.064-1.665,1.901-3.457,2.811-5.195c0.811-1.79,1.649-3.561,2.314-5.401
		c1.414-3.641,2.523-7.379,3.293-11.172c0.764-3.788,1.271-7.632,1.24-11.469c-1.146,3.649-2.503,7.165-4.016,10.59
		c-1.498,3.426-3.166,6.748-4.997,9.941c-0.87,1.621-1.905,3.143-2.842,4.708c-1.052,1.496-2.014,3.041-3.135,4.469
		c-2.119,2.946-4.546,5.616-6.995,8.222c-0.006,0.006-0.025,0.027-0.031,0.033c-1.359,1.483-1.259,3.786,0.224,5.145l0.055,0.05
		c0.464,0.425,0.809,0.7,1.2,1.032c0.385,0.332,0.762,0.602,1.144,0.906c0.758,0.609,1.535,1.146,2.31,1.699
		c0.775,0.559,1.576,1.051,2.373,1.555c0.798,0.502,1.591,1.019,2.414,1.466l2.455,1.38c0.826,0.445,1.676,0.831,2.514,1.248
		c0.844,0.402,1.675,0.838,2.531,1.209l2.581,1.081c6.909,2.822,14.135,4.714,21.425,5.91c3.672,0.429,7.321,0.972,11.005,1.02
		l2.753,0.1c0.917,0.028,1.831,0.08,2.749,0.027l5.488-0.223c0.912-0.053,1.823-0.07,2.732-0.169l2.72-0.329
		c1.81-0.233,3.614-0.465,5.409-0.727c3.579-0.656,7.118-1.512,10.609-2.411C504.061,547.577,500.482,547.582,496.92,547.429z"/>
	<path style="fill:#04294F;" d="M629.171,567.471c-3.401-0.407-6.775-0.919-10.122-1.501c-3.337-0.629-6.647-1.329-9.889-2.214
		c-3.247-0.86-6.433-1.888-9.498-3.109c-1.535-0.603-3.039-1.263-4.476-1.996c-0.269-0.134-0.521-0.28-0.786-0.417
		c1.766-2.381,3.361-4.866,4.732-7.448c1.051-1.922,1.983-3.897,2.82-5.9c0.861-1.993,1.598-4.029,2.266-6.078
		c1.345-4.095,2.332-8.275,3.02-12.481c0.661-4.209,1.08-8.452,0.984-12.686c-1.085,4.081-2.371,8.057-3.801,11.952
		c-1.437,3.891-3.01,7.701-4.798,11.372c-1.778,3.673-3.76,7.214-5.979,10.541c-2.215,3.332-4.689,6.432-7.408,9.229
		c-0.054,0.056-0.114,0.121-0.165,0.181c-1.28,1.511-1.093,3.773,0.418,5.053l0.076,0.064c0.33,0.28,0.49,0.4,0.716,0.576
		l0.622,0.462c0.408,0.29,0.816,0.572,1.223,0.837c0.815,0.537,1.634,1.027,2.46,1.499c1.661,0.922,3.348,1.733,5.055,2.476
		c3.412,1.495,6.921,2.636,10.455,3.588c7.08,1.885,14.301,2.822,21.49,3.183c7.194,0.304,14.366-0.013,21.441-0.862
		c7.073-0.873,14.058-2.258,20.87-4.289c-7.106-0.17-14.115-0.22-21.072-0.5C642.871,568.736,635.978,568.252,629.171,567.471z"/>
	<path style="fill:#FFB400;" d="M615.456,337.428c-1.104,0-2,0.896-2,2v29.96c0,1.104,0.896,2,2,2s2-0.896,2-2v-29.96
		C617.456,338.324,616.561,337.428,615.456,337.428z"/>
	<path style="fill:#04294F;" d="M760.689,598.9c-14.517,3.835-30.131,7.072-46.41,9.622c-1.091,0.171-1.837,1.193-1.666,2.285
		c0.154,0.986,1.005,1.69,1.973,1.69c0.104,0,0.208-0.008,0.312-0.024c16.414-2.57,32.164-5.836,46.812-9.706
		c1.068-0.282,1.705-1.377,1.423-2.444S761.754,598.619,760.689,598.9z"/>
	<path style="fill:#04294F;" d="M760.689,579.429c-6.842,1.807-14.013,3.502-21.312,5.037c-1.081,0.228-1.773,1.288-1.546,2.368
		c0.198,0.942,1.029,1.589,1.955,1.589c0.137,0,0.274-0.014,0.413-0.043c7.366-1.549,14.604-3.26,21.511-5.084
		c1.068-0.282,1.705-1.376,1.423-2.444C762.853,579.784,761.754,579.147,760.689,579.429z"/>
	<path style="fill:#04294F;" d="M760.689,561.6c-6.842,1.807-14.013,3.502-21.312,5.037c-1.081,0.228-1.773,1.288-1.546,2.368
		c0.198,0.942,1.029,1.589,1.955,1.589c0.137,0,0.274-0.014,0.413-0.043c7.366-1.549,14.604-3.26,21.511-5.084
		c1.068-0.282,1.705-1.376,1.423-2.444C762.853,561.955,761.754,561.318,760.689,561.6z"/>
	<path style="fill:#04294F;" d="M714.586,498.378c0.104,0,0.208-0.008,0.312-0.024c16.405-2.569,32.155-5.834,46.812-9.707
		c1.068-0.282,1.705-1.376,1.423-2.444c-0.281-1.068-1.38-1.709-2.444-1.423c-14.525,3.837-30.14,7.074-46.41,9.622
		c-1.091,0.171-1.837,1.194-1.666,2.286C712.768,497.673,713.618,498.378,714.586,498.378z"/>
	<path style="fill:#04294F;" d="M760.689,541.827c-14.525,3.837-30.14,7.074-46.41,9.622c-1.091,0.171-1.837,1.193-1.666,2.285
		c0.154,0.986,1.005,1.69,1.973,1.69c0.104,0,0.207-0.008,0.312-0.024c16.405-2.568,32.155-5.834,46.812-9.706
		c1.068-0.282,1.705-1.377,1.423-2.444C762.852,542.182,761.754,541.544,760.689,541.827z"/>
	<path style="fill:#04294F;" d="M760.689,522.356c-6.851,1.809-14.021,3.504-21.312,5.037c-1.081,0.227-1.773,1.288-1.546,2.369
		c0.198,0.942,1.029,1.589,1.955,1.589c0.137,0,0.274-0.014,0.413-0.043c7.357-1.547,14.595-3.257,21.511-5.084
		c1.067-0.282,1.705-1.376,1.423-2.444C762.853,522.71,761.754,522.072,760.689,522.356z"/>
	<path style="fill:#04294F;" d="M760.689,504.527c-6.851,1.809-14.021,3.504-21.312,5.037c-1.081,0.227-1.773,1.288-1.546,2.369
		c0.198,0.942,1.029,1.589,1.955,1.589c0.137,0,0.274-0.014,0.413-0.043c7.357-1.547,14.595-3.257,21.511-5.084
		c1.067-0.282,1.705-1.376,1.423-2.444C762.853,504.881,761.754,504.243,760.689,504.527z"/>
	<path style="fill:#00AEE0;" d="M844.409,460.005c-1.05-0.568-2.135-1.003-3.229-1.398c-1.094-0.397-2.204-0.734-3.323-1.034
		c-1.12-0.296-2.25-0.554-3.401-0.731c-1.148-0.187-2.311-0.317-3.511-0.299c-0.472,0.008-0.93,0.258-1.181,0.698
		c-0.377,0.663-0.146,1.507,0.517,1.884c1.044,0.594,2.125,1.041,3.221,1.43c1.093,0.4,2.208,0.718,3.332,0.998
		c1.125,0.277,2.26,0.515,3.41,0.695c1.149,0.181,2.309,0.322,3.503,0.331c0.489,0.003,0.966-0.258,1.215-0.718
		C845.322,461.196,845.074,460.365,844.409,460.005z"/>
	<path style="fill:#04294F;" d="M555.518,266.051c0.037,0.298,0.101,0.593,0.165,0.888c0.021,0.094,0.036,0.188,0.059,0.281
		c0.081,0.33,0.183,0.657,0.296,0.983c0.016,0.046,0.032,0.093,0.049,0.139c0.123,0.341,0.262,0.68,0.421,1.016
		c0.003,0.007,0.007,0.013,0.01,0.02c0.426,0.9,0.976,1.783,1.643,2.647c0.12,0.155,0.238,0.31,0.363,0.461
		c0.18,0.218,0.369,0.434,0.564,0.649c0.027,0.029,0.052,0.061,0.079,0.091c0.026,0.028,0.056,0.052,0.082,0.08
		c0.464,0.5,0.966,0.993,1.508,1.479c0.05,0.045,0.099,0.092,0.15,0.136c1.542,1.358,3.378,2.654,5.49,3.875
		c0.071,0.042,0.139,0.087,0.21,0.129c0.198,0.111,0.4,0.212,0.599,0.321c0.427,0.236,0.858,0.469,1.305,0.699
		c0.189,0.097,0.38,0.19,0.57,0.284c0.485,0.242,0.975,0.482,1.482,0.717c0.293,0.136,0.589,0.266,0.885,0.398
		c0.382,0.17,0.762,0.34,1.156,0.506c0.497,0.21,0.999,0.411,1.501,0.61c0.213,0.084,0.42,0.17,0.636,0.252
		c0.732,0.282,1.469,0.552,2.21,0.811c0.022,0.008,0.042,0.016,0.065,0.024c0,0,0,0,0,0c0.005,0.002,0.011,0.004,0.016,0.006
		c0.539,0.188,1.082,0.367,1.625,0.544c0.254,0.083,0.507,0.17,0.762,0.25c0.317,0.1,0.635,0.194,0.953,0.291
		c1.24,0.378,2.485,0.736,3.736,1.067c4.551,1.184,9.164,2.098,13.812,2.78c0.017,0.003,0.034,0.005,0.051,0.007
		c3.063,0.448,6.141,0.795,9.227,1.053c0.059,0.005,0.119,0.01,0.178,0.015c4.66,0.384,9.337,0.565,14.007,0.578
		c4.665-0.013,9.337-0.194,13.991-0.577c0.07-0.006,0.139-0.012,0.209-0.017c3.075-0.257,6.142-0.603,9.194-1.049
		c0.026-0.004,0.052-0.007,0.078-0.011c4.645-0.682,9.255-1.595,13.803-2.779c1.267-0.336,2.528-0.699,3.784-1.082
		c0.298-0.091,0.596-0.179,0.893-0.273c0.273-0.086,0.544-0.179,0.817-0.268c0.525-0.171,1.049-0.344,1.57-0.526
		c0.009-0.003,0.018-0.007,0.028-0.01c0,0,0,0,0,0.001c0.037-0.013,0.071-0.027,0.107-0.039c0.724-0.254,1.445-0.518,2.161-0.793
		c0.223-0.086,0.438-0.174,0.659-0.261c0.496-0.196,0.991-0.394,1.482-0.602c0.397-0.167,0.781-0.339,1.166-0.51
		c0.292-0.13,0.585-0.259,0.875-0.394c0.508-0.235,0.999-0.476,1.485-0.718c0.19-0.095,0.38-0.187,0.569-0.284
		c0.445-0.229,0.875-0.462,1.3-0.696c0.2-0.11,0.405-0.211,0.604-0.323c0.072-0.042,0.141-0.088,0.212-0.13
		c2.109-1.22,3.943-2.515,5.483-3.87c0.054-0.048,0.107-0.098,0.16-0.146c0.537-0.481,1.034-0.969,1.494-1.465
		c0.029-0.031,0.061-0.057,0.09-0.088c0.03-0.032,0.057-0.067,0.086-0.099c0.19-0.21,0.374-0.421,0.55-0.633
		c0.132-0.159,0.257-0.322,0.383-0.486c0.656-0.852,1.197-1.721,1.619-2.608c0.008-0.017,0.017-0.033,0.025-0.05
		c0.155-0.33,0.291-0.662,0.413-0.997c0.02-0.054,0.038-0.109,0.057-0.163c0.11-0.319,0.21-0.639,0.29-0.961
		c0.026-0.105,0.044-0.213,0.067-0.319c0.06-0.283,0.122-0.567,0.158-0.853c0.053-0.406,0.085-0.815,0.086-1.23
		c0-0.002-0.001-0.004-0.001-0.006c-0.005-9.13-12.587-17.124-31.458-21.576c6.911,7.996,11.096,18.42,11.096,29.815
		c0,2.008-0.144,3.983-0.398,5.924c-2.891,1.111-5.894,2.05-8.932,2.852c-11.705,3.049-24.012,4.269-36.256,4.301
		c-12.243-0.031-24.55-1.252-36.255-4.301c-3.038-0.802-6.041-1.741-8.932-2.852c-0.254-1.941-0.398-3.916-0.398-5.924
		c0-11.395,4.184-21.819,11.096-29.815c-18.875,4.453-31.458,12.449-31.458,21.582c0,0.031,0.006,0.061,0.006,0.092
		C555.444,265.3,555.469,265.678,555.518,266.051z"/>
	<path style="fill:#FFFFFF;" d="M429.795,439.756c2.554,1.393,5.753,0.451,7.146-2.103l0.024-0.045
		c1.256-2.304,2.12-4.656,2.876-7.026c0.752-2.37,1.346-4.765,1.833-7.184c0.491-2.418,0.882-4.858,1.153-7.333
		c0.247-2.48,0.416-4.984,0.24-7.589l-0.005-0.072c-0.12-1.616-0.986-3.154-2.469-4.07c-2.459-1.519-5.684-0.757-7.204,1.702
		c-1.405,2.274-2.419,4.661-3.305,7.082c-0.863,2.427-1.556,4.9-2.099,7.406c-0.547,2.505-0.936,5.045-1.114,7.619
		c-0.175,2.574-0.188,5.177,0.247,7.837C427.379,437.518,428.32,438.951,429.795,439.756z"/>
	<path style="fill:#FFFFFF;" d="M440.023,392.058c2.265,2.221,5.901,2.185,8.121-0.08c0.554-0.565,0.92-1.179,1.257-1.801
		c0.324-0.626,0.569-1.272,0.764-1.932c0.195-0.66,0.33-1.335,0.362-2.038c0.026-0.704-0.011-1.425-0.275-2.206
		c-0.251-0.731-0.656-1.454-1.202-2.066c-2.2-2.467-5.983-2.685-8.45-0.485c-0.615,0.549-1.004,1.157-1.329,1.782
		c-0.319,0.627-0.536,1.281-0.692,1.951c-0.156,0.67-0.262,1.353-0.29,2.057c-0.014,0.707,0.001,1.423,0.203,2.187
		C438.749,390.385,439.264,391.313,440.023,392.058z"/>
</g>
<g>
	<path style="fill:#FFB400;" d="M427.947,783.922c-9.969,8.409-25.9,1.684-33.142,13.554c-0.372,0.537-0.692,1.116-0.94,1.756
		c-3.068,7.79-6.323,11.251-13.544,14.185c-5.248-2.851-11.271-5.444-17.924-7.728c7.19-18.203,9.246-35.89,9.246-43.535
		c0,16.633-28.927,30.446-66.976,33.204c-4.556,0.331-9.236,0.506-14.009,0.506c-4.773,0-9.463-0.176-14.009-0.506
		c-38.049-2.758-66.976-16.571-66.976-33.204c0,5.002,0.885,14.299,3.502,25.217c-5.5-4.292-10.993-9.997-15.361-17.508
		c1.039-15.713-17.72-17.977-22.569-30.715c-5.85-15.353-21.271,2.674-17.124,13.834c0.87,2.341,2.315,4.344,4.073,6.103
		c0.076-0.288,0.179-0.578,0.318-0.868c0.522-1.19,1.839-2.116,3.032-2.303c0.569-0.096,1.201-0.082,1.619-0.026
		c0.379,0.051,0.759,0.111,1.132,0.18c0.749,0.131,1.485,0.3,2.213,0.488c2.899,0.781,5.678,1.881,8.226,3.505
		c-3.008-0.035-5.888-0.268-8.715-0.409l-2.098-0.088l-1.034-0.02c-0.306-0.003-0.401,0.036-0.547,0.069
		c-0.211,0.127-0.212,0.123-0.26,0.286c-0.062,0.142-0.114,0.487-0.011,0.9c0.16,0.836,0.739,1.822,1.552,2.639
		c0.798,0.848,1.846,1.555,2.99,2.173c2.312,1.243,5.058,1.956,7.975,2.694c-0.547,0.176-1.108,0.316-1.674,0.436
		c2.431,1.444,4.319,2.821,5.038,4.343l0.008-0.002c8.198,16.645,20.686,26.9,31.407,33.054c0.337-0.791,0.705-1.574,1.122-2.339
		c0.703-1.291,1.498-2.51,2.386-3.657c3.451-4.494,8.234-7.79,13.782-9.432c5.186-1.539,10.651,1.415,12.201,6.612
		c0.196,0.672,0.32,1.343,0.372,2.015c0.362,4.525-2.469,8.843-6.994,10.186c-1.932,0.579-3.533,1.87-4.494,3.647
		c-0.961,1.767-1.178,3.802-0.61,5.734c1.188,3.977,5.403,6.261,9.391,5.073c3.11-0.919,6.323-0.227,8.73,1.601
		c1.612,1.209,2.851,2.924,3.471,5.011c1.55,5.197-1.415,10.662-6.612,12.201c-0.465,0.134-0.93,0.269-1.395,0.372
		c11.426,9.453,26.396,15.755,45.942,15.755c24.877,0,42.357-10.217,54.527-24.144c1.746,2.283,2.696,4.721,2.696,7.242
		c0,13.162-25.621,23.823-57.224,23.823c-30.415,0-55.292-9.876-57.11-22.356c-9.773-1.767-18.224-8.843-21.23-18.999
		c-1.622-5.465-1.498-11.178,0.32-16.468c-21.53,8.564-34.94,20.631-34.94,33.999c0,0.521,0.04,1.053,0.07,1.581
		c2.004,25.24,51.772,45.445,112.889,45.445s110.885-20.206,112.889-45.445c0.03-0.529,0.07-1.06,0.07-1.581
		c0-6.323-2.996-12.346-8.43-17.852c5.649-3.878,9.668-9.01,12.857-16.104c-0.307-0.349-0.604-0.706-0.88-1.077
		c2.803,1.094,5.453,2.107,8.057,2.439c1.29,0.161,2.553,0.194,3.696-0.033c1.137-0.193,2.18-0.659,2.796-1.247
		c0.324-0.277,0.482-0.588,0.514-0.739c0.056-0.161,0.052-0.159-0.046-0.384c-0.099-0.112-0.155-0.199-0.405-0.374l-0.853-0.584
		l-1.759-1.147c-2.384-1.527-4.862-3.009-7.332-4.727c3.018,0.157,5.919,0.875,8.732,1.923c0.701,0.269,1.399,0.56,2.085,0.888
		c0.344,0.161,0.688,0.333,1.026,0.511c0.374,0.197,0.895,0.552,1.303,0.961c0.863,0.845,1.396,2.364,1.13,3.635
		c-0.084,0.48-0.247,0.899-0.438,1.291c3.597-0.653,7.189-2.195,10.542-5.068C445.252,796.577,440.51,773.332,427.947,783.922z
		 M168.487,751.608c-1.189-0.608-2.247-1.46-3.118-2.489c-0.882-1.017-1.529-2.266-1.894-3.59c-0.37-1.321-0.365-2.787,0.156-4.142
		c1.112,1.001,1.84,1.879,2.64,2.702c0.769,0.825,1.451,1.635,2.163,2.461c0.698,0.831,1.376,1.699,2.057,2.649
		c0.679,0.961,1.344,1.975,1.991,3.288C171.005,752.607,169.683,752.197,168.487,751.608z M171.427,745.16
		c-1.022-0.469-1.923-1.166-2.654-2.029c-0.739-0.852-1.267-1.916-1.53-3.048c-0.265-1.129-0.195-2.385,0.378-3.529
		c1.059,0.79,1.722,1.458,2.418,2.089c0.668,0.632,1.231,1.258,1.799,1.919c0.557,0.664,1.08,1.378,1.593,2.188
		c0.511,0.822,0.998,1.709,1.454,2.914C173.598,745.893,172.455,745.61,171.427,745.16z M216.129,797.905
		c-0.017,0.003-0.033,0.003-0.048,0l-0.224-0.043c-1.544-0.297-2.442-0.795-3.144-1.352c-0.676-0.565-1.097-1.207-1.298-1.911
		c-0.202-0.703-0.175-1.471,0.109-2.306c0.31-0.841,0.821-1.734,1.995-2.794l0.17-0.153c0.056-0.05,0.141-0.046,0.191,0.01
		c0.011,0.012,0.02,0.027,0.025,0.041c0.266,0.677,0.512,1.359,0.732,2.047c0.225,0.687,0.418,1.383,0.628,2.074
		c0.178,0.7,0.376,1.395,0.539,2.099c0.169,0.703,0.312,1.413,0.437,2.13C216.252,797.822,216.203,797.892,216.129,797.905z
		 M378.291,832.264c-4.768,1.231-9.722,1.806-14.668,1.727c-4.952-0.021-9.885-0.739-14.707-1.871
		c-2.413-0.569-4.778-1.326-7.11-2.161c-1.164-0.425-2.322-0.868-3.463-1.351c-0.575-0.231-1.141-0.485-1.706-0.739l-0.849-0.379
		c-0.327-0.168-0.664-0.34-0.988-0.525c-2.57-1.567-4.353-4.31-4.771-7.264c-0.429-2.96,0.511-6.082,2.531-8.27
		c2.012-2.203,4.998-3.388,7.925-3.242c0.731,0.048,1.457,0.158,2.16,0.356c0.345,0.117,0.704,0.197,1.033,0.352
		c0.323,0.138,0.702,0.297,0.934,0.417c1.05,0.523,2.111,1.027,3.193,1.487c4.327,1.827,8.869,3.231,13.554,3.952
		c4.677,0.771,9.49,0.882,14.287,0.18c-4.601,1.574-9.583,2.02-14.496,1.773c-2.46-0.149-4.915-0.473-7.338-0.972
		c-2.424-0.5-4.802-1.207-7.143-2.025c-1.171-0.411-2.324-0.869-3.469-1.35c-0.315-0.134-0.501-0.193-0.735-0.286
		c-0.22-0.101-0.461-0.131-0.688-0.205c-0.465-0.111-0.94-0.161-1.414-0.176c-1.9-0.012-3.784,0.836-4.978,2.263
		c-1.206,1.416-1.784,3.342-1.49,5.167c0.288,1.83,1.413,3.487,2.982,4.427l0.606,0.333l0.8,0.369
		c0.533,0.247,1.065,0.495,1.608,0.721c1.076,0.472,2.168,0.906,3.266,1.323c2.197,0.835,4.443,1.535,6.707,2.169
		c4.528,1.28,9.192,2.041,13.889,2.42c9.389,0.681,19.028-0.568,27.865-4.598C387.62,829.042,383.045,830.995,378.291,832.264z
		 M424.915,790.392c0.753-0.594,1.483-1.093,2.23-1.534c0.756-0.434,1.494-0.838,2.334-1.212c0.865-0.364,1.713-0.774,2.974-1.167
		c0.161,1.27-0.191,2.477-0.815,3.454c-0.624,0.98-1.476,1.808-2.456,2.366c-0.976,0.571-2.058,0.929-3.177,1.032
		c-1.119,0.083-2.292-0.03-3.43-0.674C423.406,791.672,424.16,790.998,424.915,790.392z M433.381,796.32
		c-0.784,1.128-1.809,2.091-2.979,2.757c-1.164,0.681-2.444,1.133-3.768,1.312c-1.324,0.158-2.707,0.106-4.06-0.5
		c1.046-1.023,2.01-1.758,2.97-2.439c0.958-0.669,1.886-1.263,2.82-1.815c0.945-0.543,1.858-1.081,2.857-1.603
		c1.028-0.51,2.006-1.097,3.388-1.671C434.651,793.812,434.169,795.197,433.381,796.32z"/>
	<path style="fill:#04294F;" d="M290.658,889.04c-61.117,0-110.885-20.206-112.889-45.445
		c1.472,25.829,38.874,60.425,112.889,60.425c74.005,0,111.417-34.597,112.889-60.425
		C401.543,868.834,351.775,889.04,290.658,889.04z"/>
	<path style="fill:#04294F;" d="M177.769,843.594c-0.03-0.529-0.07-1.06-0.07-1.581
		C177.698,842.543,177.727,843.069,177.769,843.594z"/>
	<path style="fill:#04294F;" d="M403.618,842.013c0,0.521-0.04,1.053-0.07,1.581C403.589,843.069,403.618,842.543,403.618,842.013z"
		/>
	<path style="fill:#04294F;" d="M276.649,795.358c4.546,0.331,9.236,0.506,14.009,0.506c4.773,0,9.453-0.176,14.009-0.506
		c38.049-2.758,66.976-16.571,66.976-33.204c0-18.617-36.262-33.71-80.985-33.71c-44.733,0-80.985,15.094-80.985,33.71
		C209.673,778.787,238.6,792.6,276.649,795.358z M290.658,739.643c45.891,0,70.654,15.982,70.654,22.511
		c0,6.529-24.764,22.511-70.654,22.511c-45.901,0-70.654-15.982-70.654-22.511C220.004,755.625,244.757,739.643,290.658,739.643z"/>
	<path style="fill:#FF3A00;" d="M290.658,784.665c45.891,0,70.654-15.982,70.654-22.511c0-6.529-24.764-22.511-70.654-22.511
		c-45.901,0-70.654,15.982-70.654,22.511C220.004,768.683,244.757,784.665,290.658,784.665z M307.453,777.341
		c-1.896-0.095-3.797-0.098-5.688-0.133c-3.785-0.061-7.565-0.048-11.351-0.056c-3.785,0.013-7.566,0.005-11.349,0.079
		c-1.891,0.039-3.791,0.049-5.686,0.155c-1.901,0.095-3.803,0.138-5.695,0.579c0.75-0.654,1.675-1.08,2.574-1.483
		c0.908-0.405,1.845-0.703,2.781-1.02c1.885-0.562,3.797-1.023,5.725-1.351c3.857-0.67,7.757-0.94,11.645-0.957
		c3.888,0.002,7.788,0.266,11.646,0.923c1.929,0.321,3.842,0.778,5.728,1.329c1.859,0.615,3.78,1.236,5.391,2.417
		C311.255,777.478,309.36,777.409,307.453,777.341z M325.406,769.109c-1.626-0.464-3.248-0.906-4.909-1.217
		c-3.294-0.706-6.633-1.17-9.974-1.559c-1.672-0.188-3.352-0.311-5.024-0.479c-1.681-0.108-3.356-0.247-5.041-0.292
		c-3.361-0.174-6.732-0.215-10.101-0.226c-6.737,0.051-13.477,0.281-20.158,1.088c-3.337,0.41-6.674,0.893-9.957,1.635
		c-1.657,0.327-3.27,0.793-4.887,1.281c-1.591,0.541-3.191,1.107-4.606,2.087c1.127-1.321,2.66-2.248,4.171-3.1
		c1.538-0.814,3.136-1.523,4.761-2.139c3.26-1.214,6.619-2.142,10.018-2.833c6.799-1.42,13.738-1.974,20.65-2.018
		c6.912,0.001,13.851,0.543,20.657,1.912c3.403,0.671,6.766,1.577,10.036,2.756c1.629,0.603,3.234,1.288,4.783,2.078
		c1.535,0.806,3.056,1.719,4.287,2.933C328.616,770.164,327.021,769.602,325.406,769.109z M246.67,758.336
		c0.955-0.475,1.918-0.957,2.908-1.354c0.981-0.432,1.977-0.819,2.981-1.185c4.025-1.443,8.166-2.536,12.353-3.355
		c8.373-1.707,16.914-2.282,25.419-2.38c8.506,0.049,17.046,0.605,25.428,2.252c4.191,0.795,8.337,1.861,12.374,3.261
		c2.014,0.709,3.996,1.527,5.916,2.463c1.903,0.958,3.788,2.043,5.338,3.499c-1.814-1.093-3.774-1.828-5.757-2.472
		c-1.996-0.611-3.996-1.184-6.041-1.603c-4.061-0.926-8.184-1.55-12.312-2.064c-2.066-0.253-4.142-0.422-6.211-0.638
		c-2.078-0.144-4.15-0.329-6.234-0.395c-4.156-0.252-8.326-0.316-12.493-0.306c-4.167,0.006-8.337,0.085-12.491,0.354
		c-2.083,0.071-4.153,0.276-6.231,0.426c-2.066,0.232-4.143,0.399-6.206,0.672c-4.124,0.539-8.243,1.187-12.291,2.157
		c-2.041,0.437-4.029,1.041-6.015,1.681c-0.975,0.355-1.965,0.699-2.904,1.146c-0.966,0.405-1.873,0.917-2.727,1.547
		C242.905,760.461,244.793,759.344,246.67,758.336z"/>
	<path style="fill:#04294F;" d="M212.318,824.481c3.006,10.155,11.457,17.232,21.23,18.999c1.818,12.48,26.695,22.356,57.11,22.356
		c31.603,0,57.224-10.662,57.224-23.823c0-2.521-0.951-4.959-2.696-7.242c-12.17,13.926-29.65,24.144-54.527,24.144
		c-19.546,0-34.516-6.302-45.942-15.755c0.465-0.103,0.93-0.238,1.395-0.372c5.197-1.539,8.161-7.004,6.612-12.201
		c-0.62-2.087-1.86-3.802-3.471-5.011c-2.407-1.829-5.62-2.521-8.73-1.601c-3.988,1.188-8.203-1.095-9.391-5.073
		c-0.568-1.932-0.351-3.967,0.61-5.734c0.961-1.777,2.562-3.068,4.494-3.647c4.525-1.343,7.356-5.661,6.994-10.186
		c-0.052-0.672-0.176-1.343-0.372-2.015c-1.55-5.197-7.015-8.151-12.201-6.612c-5.548,1.643-10.331,4.938-13.782,9.432
		c-0.888,1.147-1.684,2.366-2.386,3.657c-0.417,0.764-0.784,1.547-1.122,2.339c-0.264,0.62-0.514,1.245-0.728,1.876
		C210.82,813.303,210.696,819.016,212.318,824.481z"/>
	<path style="fill:#04294F;" d="M363.751,830.883c-4.697-0.379-9.361-1.141-13.889-2.42c-2.264-0.633-4.509-1.333-6.707-2.169
		c-1.098-0.417-2.191-0.851-3.266-1.323c-0.542-0.226-1.075-0.473-1.608-0.721l-0.8-0.369l-0.606-0.333
		c-1.569-0.94-2.694-2.597-2.982-4.427c-0.295-1.825,0.284-3.751,1.49-5.167c1.194-1.427,3.078-2.276,4.978-2.263
		c0.474,0.015,0.949,0.065,1.414,0.176c0.227,0.074,0.468,0.104,0.688,0.205c0.234,0.093,0.419,0.152,0.735,0.286
		c1.146,0.481,2.299,0.94,3.469,1.35c2.341,0.818,4.719,1.525,7.143,2.025c2.423,0.499,4.879,0.823,7.338,0.972
		c4.913,0.247,9.895-0.199,14.496-1.773c-4.798,0.702-9.611,0.59-14.287-0.18c-4.685-0.721-9.227-2.125-13.554-3.952
		c-1.082-0.46-2.143-0.964-3.193-1.487c-0.232-0.12-0.611-0.279-0.934-0.417c-0.329-0.155-0.688-0.236-1.033-0.352
		c-0.703-0.198-1.429-0.308-2.16-0.356c-2.927-0.146-5.913,1.039-7.925,3.242c-2.02,2.188-2.96,5.31-2.531,8.27
		c0.419,2.954,2.201,5.697,4.771,7.264c0.323,0.185,0.661,0.357,0.988,0.525l0.849,0.379c0.565,0.254,1.131,0.507,1.706,0.739
		c1.142,0.483,2.299,0.926,3.463,1.351c2.332,0.836,4.697,1.592,7.11,2.161c4.822,1.132,9.755,1.85,14.707,1.871
		c4.946,0.079,9.9-0.496,14.668-1.727c4.754-1.268,9.33-3.221,13.326-5.979C382.779,830.316,373.14,831.565,363.751,830.883z"/>
	<path style="fill:#04294F;" d="M424.978,804.467c-0.408-0.409-0.929-0.764-1.303-0.961c-0.338-0.178-0.682-0.35-1.026-0.511
		c-0.686-0.328-1.384-0.618-2.085-0.888c-2.813-1.048-5.715-1.767-8.732-1.923c2.47,1.718,4.949,3.201,7.332,4.727l1.759,1.147
		l0.853,0.584c0.25,0.175,0.306,0.262,0.405,0.374c0.098,0.226,0.101,0.223,0.046,0.384c-0.032,0.152-0.19,0.462-0.514,0.739
		c-0.616,0.587-1.66,1.054-2.796,1.247c-1.142,0.227-2.406,0.194-3.696,0.033c-2.604-0.331-5.253-1.345-8.057-2.439
		c0.276,0.371,0.573,0.727,0.88,1.077c1.689,1.92,3.838,3.494,6.413,4.413c1.518,0.533,3.188,0.83,4.927,0.681
		c1.726-0.143,3.55-0.713,5.074-2.105c0.461-0.44,0.89-0.995,1.212-1.654c0.191-0.392,0.354-0.812,0.438-1.291
		C426.374,806.83,425.841,805.312,424.978,804.467z"/>
	<path style="fill:#04294F;" d="M286.871,696.883c0.214,2.411,0.485,4.821,0.842,7.232c0.356,2.411,0.76,4.821,1.348,7.232
		c0.177,0.721,0.741,1.324,1.512,1.512c1.104,0.269,2.218-0.408,2.487-1.512c0.588-2.411,0.992-4.821,1.348-7.232
		c0.357-2.411,0.628-4.821,0.842-7.232c0.241-2.411,0.364-4.821,0.43-7.232c0.028-2.411,0.005-4.821-0.286-7.232
		c-0.236-1.949-1.773-3.562-3.809-3.809c-2.393-0.29-4.568,1.416-4.858,3.809c-0.292,2.411-0.315,4.821-0.286,7.232
		C286.507,692.061,286.63,694.472,286.871,696.883z"/>
	<path style="fill:#04294F;" d="M306.465,716.626c1.026-1.135,1.938-2.327,2.821-3.534c0.883-1.207,1.713-2.44,2.508-3.692
		c0.811-1.243,1.55-2.522,2.253-3.82c0.68-1.309,1.328-2.634,1.81-4.042c0.428-1.253-0.006-2.69-1.151-3.476
		c-1.379-0.947-3.264-0.597-4.21,0.782c-0.843,1.227-1.519,2.538-2.164,3.864c-0.622,1.338-1.208,2.694-1.721,4.087
		c-0.53,1.384-1.024,2.786-1.466,4.215c-0.442,1.429-0.854,2.872-1.153,4.372c-0.094,0.478,0.057,0.995,0.446,1.346
		C305.025,717.26,305.933,717.214,306.465,716.626z"/>
	<path style="fill:#04294F;" d="M268.198,705.58c0.703,1.297,1.442,2.577,2.253,3.82c0.794,1.251,1.625,2.485,2.508,3.692
		c0.883,1.207,1.795,2.399,2.821,3.534c0.328,0.361,0.833,0.548,1.346,0.446c0.778-0.155,1.283-0.911,1.128-1.689
		c-0.299-1.5-0.711-2.944-1.153-4.372c-0.442-1.429-0.936-2.831-1.466-4.215c-0.513-1.393-1.099-2.749-1.721-4.087
		c-0.645-1.327-1.321-2.637-2.164-3.864c-0.75-1.091-2.162-1.6-3.476-1.151c-1.582,0.541-2.426,2.263-1.885,3.845
		C266.87,702.946,267.518,704.271,268.198,705.58z"/>
	<path style="fill:#04294F;" d="M170.61,765.612c-1.144-0.618-2.191-1.325-2.99-2.173c-0.813-0.817-1.392-1.803-1.552-2.639
		c-0.103-0.414-0.051-0.759,0.011-0.9c0.048-0.163,0.05-0.159,0.26-0.286c0.146-0.033,0.241-0.072,0.547-0.069l1.034,0.02
		l2.098,0.088c2.827,0.142,5.706,0.374,8.715,0.409c-2.548-1.625-5.327-2.725-8.226-3.505c-0.727-0.188-1.464-0.357-2.213-0.488
		c-0.374-0.068-0.753-0.129-1.132-0.18c-0.418-0.057-1.049-0.071-1.619,0.026c-1.193,0.187-2.51,1.113-3.032,2.303
		c-0.139,0.29-0.242,0.581-0.318,0.868c-0.231,0.879-0.194,1.735-0.05,2.487c0.432,2.018,1.587,3.541,2.908,4.66
		c1.33,1.131,2.862,1.859,4.407,2.307c2.514,0.714,5.057,0.712,7.452,0.203c0.566-0.12,1.127-0.261,1.674-0.436
		C175.668,767.568,172.923,766.855,170.61,765.612z"/>
	<path style="fill:#04294F;" d="M428.365,795.635c-0.934,0.552-1.862,1.145-2.82,1.815c-0.96,0.681-1.924,1.416-2.97,2.439
		c1.353,0.606,2.736,0.657,4.06,0.5c1.324-0.179,2.604-0.631,3.768-1.312c1.17-0.667,2.195-1.629,2.979-2.757
		c0.787-1.123,1.27-2.507,1.229-3.959c-1.382,0.575-2.36,1.161-3.388,1.671C430.223,794.555,429.31,795.093,428.365,795.635z"/>
	<path style="fill:#04294F;" d="M426.004,793.331c1.119-0.103,2.201-0.461,3.177-1.032c0.98-0.558,1.832-1.386,2.456-2.366
		c0.625-0.977,0.976-2.184,0.815-3.454c-1.262,0.393-2.109,0.803-2.974,1.167c-0.84,0.374-1.579,0.778-2.334,1.212
		c-0.746,0.441-1.476,0.941-2.23,1.534c-0.755,0.606-1.509,1.28-2.34,2.265C423.712,793.301,424.885,793.414,426.004,793.331z"/>
	<path style="fill:#04294F;" d="M168.434,746.549c-0.711-0.826-1.393-1.636-2.163-2.461c-0.8-0.823-1.528-1.701-2.64-2.702
		c-0.521,1.355-0.525,2.821-0.156,4.142c0.365,1.324,1.012,2.573,1.894,3.59c0.871,1.029,1.928,1.881,3.118,2.489
		c1.196,0.589,2.518,1,3.995,0.878c-0.647-1.312-1.312-2.326-1.991-3.288C169.81,748.248,169.132,747.38,168.434,746.549z"/>
	<path style="fill:#04294F;" d="M171.837,740.562c-0.568-0.66-1.131-1.287-1.799-1.919c-0.695-0.63-1.358-1.299-2.418-2.089
		c-0.574,1.144-0.643,2.4-0.378,3.529c0.263,1.132,0.791,2.196,1.53,3.048c0.73,0.862,1.632,1.56,2.654,2.029
		c1.028,0.45,2.172,0.733,3.458,0.504c-0.456-1.206-0.944-2.092-1.454-2.914C172.917,741.94,172.395,741.226,171.837,740.562z"/>
	<path style="fill:#04294F;" d="M247.105,759.349c1.986-0.64,3.974-1.244,6.015-1.681c4.048-0.97,8.167-1.618,12.291-2.157
		c2.062-0.273,4.14-0.441,6.206-0.672c2.078-0.15,4.147-0.355,6.231-0.426c4.154-0.269,8.324-0.347,12.491-0.354
		c4.167-0.01,8.338,0.053,12.493,0.306c2.083,0.066,4.155,0.25,6.234,0.395c2.068,0.216,4.145,0.385,6.211,0.638
		c4.128,0.514,8.252,1.138,12.312,2.064c2.045,0.419,4.045,0.992,6.041,1.603c1.983,0.644,3.943,1.379,5.757,2.472
		c-1.55-1.455-3.435-2.541-5.338-3.499c-1.92-0.936-3.902-1.754-5.916-2.463c-4.037-1.4-8.183-2.466-12.374-3.261
		c-8.382-1.647-16.923-2.202-25.428-2.252c-8.505,0.099-17.046,0.674-25.419,2.38c-4.187,0.819-8.328,1.912-12.353,3.355
		c-1.004,0.366-2,0.753-2.981,1.185c-0.99,0.397-1.953,0.879-2.908,1.354c-1.877,1.009-3.766,2.125-5.196,3.706
		c0.854-0.63,1.761-1.142,2.727-1.547C245.141,760.048,246.13,759.704,247.105,759.349z"/>
	<path style="fill:#04294F;" d="M321.042,766.005c-3.27-1.179-6.633-2.086-10.036-2.756c-6.806-1.369-13.745-1.911-20.657-1.912
		c-6.912,0.044-13.851,0.598-20.65,2.018c-3.4,0.691-6.758,1.618-10.018,2.833c-1.625,0.617-3.223,1.325-4.761,2.139
		c-1.51,0.851-3.043,1.778-4.171,3.1c1.415-0.98,3.015-1.546,4.606-2.087c1.617-0.488,3.23-0.954,4.887-1.281
		c3.283-0.741,6.62-1.224,9.957-1.635c6.681-0.808,13.421-1.037,20.158-1.088c3.369,0.011,6.74,0.052,10.101,0.226
		c1.685,0.044,3.36,0.184,5.041,0.292c1.672,0.168,3.352,0.291,5.024,0.479c3.34,0.39,6.68,0.854,9.974,1.559
		c1.661,0.312,3.283,0.753,4.909,1.217c1.615,0.492,3.211,1.055,4.706,1.906c-1.231-1.214-2.752-2.127-4.287-2.933
		C324.276,767.293,322.671,766.608,321.042,766.005z"/>
	<path style="fill:#04294F;" d="M302.057,774.076c-3.858-0.657-7.758-0.921-11.646-0.923c-3.889,0.017-7.788,0.287-11.645,0.957
		c-1.928,0.328-3.84,0.789-5.725,1.351c-0.936,0.316-1.873,0.614-2.781,1.02c-0.899,0.403-1.824,0.829-2.574,1.483
		c1.892-0.441,3.795-0.484,5.695-0.579c1.894-0.106,3.794-0.116,5.686-0.155c3.783-0.074,7.564-0.066,11.349-0.079
		c3.786,0.008,7.566-0.005,11.351,0.056c1.892,0.035,3.792,0.038,5.688,0.133c1.907,0.068,3.801,0.137,5.722,0.481
		c-1.611-1.181-3.532-1.801-5.391-2.417C305.898,774.854,303.986,774.397,302.057,774.076z"/>
	<path style="fill:#04294F;" d="M216.239,797.748c-0.124-0.717-0.268-1.427-0.437-2.13c-0.163-0.705-0.36-1.399-0.539-2.099
		c-0.21-0.691-0.403-1.387-0.628-2.074c-0.221-0.688-0.466-1.37-0.732-2.047c-0.006-0.015-0.014-0.029-0.025-0.041
		c-0.05-0.056-0.136-0.06-0.191-0.01l-0.17,0.153c-1.174,1.06-1.685,1.953-1.995,2.794c-0.284,0.834-0.311,1.602-0.109,2.306
		c0.201,0.704,0.622,1.346,1.298,1.911c0.703,0.557,1.601,1.055,3.144,1.352l0.224,0.043c0.016,0.003,0.032,0.003,0.048,0
		C216.203,797.892,216.252,797.822,216.239,797.748z"/>
</g>
</svg>
