<svg fill="#000000" xmlns="http://www.w3.org/2000/svg" viewBox="0 0 50 50" width="100px" height="100px"><path d="M 25 2 C 12.309288 2 2 12.309297 2 25 C 2 37.690703 12.309288 48 25 48 C 37.690712 48 48 37.690703 48 25 C 48 12.309297 37.690712 2 25 2 z M 25 4 C 36.609833 4 46 13.390175 46 25 C 46 36.609825 36.609833 46 25 46 C 13.390167 46 4 36.609825 4 25 C 4 13.390175 13.390167 4 25 4 z M 16.806641 15.998047 C 11.769641 15.998047 11.318969 20.523047 11.292969 21.623047 L 13.421875 21.623047 C 13.453875 20.865047 13.809641 17.914063 16.806641 17.914062 C 19.613641 17.914062 20 19.828156 20 20.785156 C 20 21.264156 19.709328 23.658203 16.611328 23.658203 L 15.740234 23.658203 L 15.740234 25.476562 C 16.127234 25.380562 16.514047 25.380859 16.998047 25.380859 C 17.481047 25.380859 20.773438 25.477422 20.773438 28.732422 C 20.773438 31.891422 17.385344 32.179688 16.902344 32.179688 C 15.186344 32.179688 13.198672 31.148047 13.138672 28.373047 L 11 28.373047 C 11.019 29.755047 11.444344 34 16.902344 34 C 17.967344 34 23 33.713672 23 28.638672 C 23 25.479672 20.870641 24.520125 19.806641 24.328125 L 19.806641 24.232422 C 20.484641 23.850422 22.226563 22.700453 22.226562 20.689453 C 22.226562 19.923453 22.033641 15.998047 16.806641 15.998047 z M 26 16 L 26 34 L 31.505859 34 C 36.857859 34 40 30.670141 40 24.994141 C 40 19.331141 36.844859 16 31.505859 16 L 26 16 z M 28 18 L 31.505859 18 C 36.873859 18 38 21.803141 38 24.994141 C 38 28.190141 36.873859 32 31.505859 32 L 28 32 L 28 18 z"/></svg>