<?xml version="1.0"?><svg fill="#000000" xmlns="http://www.w3.org/2000/svg" viewBox="0 0 24 24" width="50px" height="50px">    <path d="M 12.171875 3 L 2.5878906 12.585938 C 2.2088906 12.962938 2 13.465 2 14 C 2 14.535 2.2079375 15.038063 2.5859375 15.414062 L 8.5878906 21.414062 C 8.9658906 21.791063 9.467 22 10 22 C 10.535 22 11.038063 21.792063 11.414062 21.414062 L 21 11.828125 L 21 3 L 12.171875 3 z M 13 5 L 19 5 L 19 11 L 10 20 L 4 14 L 13 5 z M 16 7 A 1 1 0 0 0 15 8 A 1 1 0 0 0 16 9 A 1 1 0 0 0 17 8 A 1 1 0 0 0 16 7 z M 19 16 L 19 19 L 16 19 L 16 21 L 19 21 L 19 24 L 21 24 L 21 21 L 24 21 L 24 19 L 21 19 L 21 16 L 19 16 z"/></svg>