<svg fill="#000000" xmlns="http://www.w3.org/2000/svg" viewBox="0 0 24 24" width="50px" height="50px"><path d="M 9 3 C 7.9 3 7 3.9 7 5 L 7 9 L 7 15.191406 C 6.6711584 15.071478 6.3258514 15 6 15 C 4.3 15 3 16.3 3 18 C 3 19.7 4.3 21 6 21 C 7.7 21 9 19.7 9 18 L 9 9 L 18 9 L 18 12.099609 C 18.7 11.999609 19.3 11.999609 20 12.099609 L 20 9 L 20 7 L 20 3 L 9 3 z M 9 5 L 18 5 L 18 7 L 9 7 L 9 5 z M 19 14 C 16.2 14 14 16.2 14 19 C 14 21.8 16.2 24 19 24 C 21.8 24 24 21.8 24 19 C 24 16.2 21.8 14 19 14 z M 18 16 L 20 16 L 20 18 L 22 18 L 22 20 L 20 20 L 20 22 L 18 22 L 18 20 L 16 20 L 16 18 L 18 18 L 18 16 z M 6 17 C 6.6 17 7 17.4 7 18 C 7 18.6 6.6 19 6 19 C 5.4 19 5 18.6 5 18 C 5 17.4 5.4 17 6 17 z"/></svg>