<svg xmlns="http://www.w3.org/2000/svg" viewBox="0 0 16 16" width="500px" height="500px"><path fill="#c2e8ff" d="M2.843 2.843H13.157V13.157H2.843z" transform="rotate(-45.001 8 8)"/><path fill="#4e7ab5" d="M8,1.414L14.586,8L8,14.586L1.414,8L8,1.414 M8,0L0,8l8,8l8-8L8,0L8,0z"/><path fill="#589cdb" d="M9.462 9.79L9.648 9.591 15.081 8.337 8.212 15.206z"/><path fill="#4e7ab5" d="M13.495,9.216L9.091,13.62l0.826-3.578L13.495,9.216 M15.583,7.708l-6.195,1.43L9.005,9.547 l-1.422,6.161L8,16.125l0.667-0.667l6.666-6.666L16,8.125L15.583,7.708L15.583,7.708z"/><path fill="#97c9ff" d="M0.839 8.132L9.165 9.447 9.441 9.754 8.212 15.081 8 15.293z"/><path fill="#4e7ab5" d="M2.281,8.866L8.892,9.91l-1.044,4.524L2.281,8.866 M0.437,7.563L0,8l7.583,7.583L8,16l0.667-0.667 l1.32-5.721L9.418,8.981L0.437,7.563L0.437,7.563z"/><g><path fill="#4e7ab5" d="M8.601 0.601L8 0 7.563 0.437 0.437 7.563 0 8 0.601 8.601 9.387 9.988 9.994 9.422z"/></g><g><path fill="#fff" d="M4.713,7.306C4.732,7.181,4.765,7.062,4.814,6.95c0.049-0.112,0.111-0.213,0.188-0.302 c0.077-0.089,0.169-0.166,0.275-0.231s0.226-0.111,0.36-0.141c-0.172-0.133-0.3-0.289-0.387-0.47 c-0.086-0.181-0.115-0.37-0.085-0.57C5.19,5.079,5.244,4.937,5.33,4.812c0.085-0.125,0.193-0.228,0.324-0.31 c0.13-0.081,0.278-0.138,0.443-0.17C6.262,4.3,6.438,4.298,6.623,4.326C6.81,4.353,6.978,4.407,7.128,4.487 c0.15,0.08,0.275,0.178,0.376,0.294c0.101,0.116,0.174,0.246,0.218,0.39s0.055,0.295,0.031,0.452 c-0.03,0.199-0.112,0.373-0.247,0.52c-0.135,0.148-0.302,0.26-0.501,0.337c0.118,0.067,0.218,0.146,0.302,0.238 c0.084,0.092,0.151,0.192,0.201,0.3c0.05,0.108,0.082,0.223,0.097,0.345C7.62,7.485,7.618,7.609,7.599,7.736 C7.571,7.925,7.51,8.093,7.416,8.239S7.203,8.505,7.06,8.598C6.917,8.691,6.752,8.755,6.565,8.791 c-0.186,0.036-0.386,0.038-0.6,0.006c-0.211-0.031-0.4-0.092-0.567-0.18C5.232,8.529,5.093,8.419,4.982,8.288 c-0.111-0.131-0.191-0.28-0.239-0.448C4.695,7.673,4.685,7.495,4.713,7.306z M5.404,7.347C5.386,7.47,5.388,7.583,5.409,7.687 c0.022,0.104,0.06,0.195,0.117,0.273c0.056,0.078,0.128,0.143,0.217,0.193s0.19,0.084,0.304,0.101 c0.111,0.016,0.215,0.013,0.313-0.01C6.458,8.22,6.546,8.179,6.624,8.119C6.701,8.06,6.767,7.984,6.819,7.893 c0.053-0.092,0.088-0.198,0.106-0.319C6.942,7.463,6.94,7.356,6.918,7.253s-0.06-0.196-0.116-0.278 C6.746,6.893,6.675,6.823,6.588,6.767C6.5,6.711,6.399,6.674,6.285,6.657C6.176,6.641,6.072,6.646,5.972,6.671 C5.873,6.696,5.784,6.74,5.706,6.801C5.628,6.862,5.563,6.94,5.51,7.032C5.457,7.125,5.422,7.23,5.404,7.347z M5.844,5.413 C5.83,5.503,5.834,5.59,5.854,5.672c0.021,0.082,0.054,0.156,0.1,0.222C6,5.959,6.057,6.013,6.126,6.057 C6.194,6.1,6.271,6.128,6.355,6.14C6.44,6.153,6.521,6.148,6.6,6.126c0.078-0.022,0.15-0.058,0.213-0.107 c0.064-0.049,0.118-0.11,0.161-0.183C7.018,5.763,7.047,5.683,7.06,5.594c0.013-0.091,0.01-0.177-0.009-0.261 C7.032,5.25,6.999,5.177,6.953,5.112C6.907,5.048,6.849,4.994,6.78,4.951C6.71,4.907,6.632,4.879,6.545,4.866 C6.455,4.853,6.37,4.857,6.29,4.879C6.211,4.901,6.14,4.938,6.078,4.988C6.016,5.038,5.965,5.1,5.924,5.173 C5.883,5.247,5.857,5.326,5.844,5.413z"/></g></svg>