<svg fill="#000000" xmlns="http://www.w3.org/2000/svg" viewBox="0 0 50 50" width="100px" height="100px"><path d="M 11 2 L 11 10 L 14 10 L 14 45 L 27 45 L 27 48 L 35 48 L 35 40 L 27 40 L 27 43 L 16 43 L 16 34 L 27 34 L 27 37 L 35 37 L 35 29 L 27 29 L 27 32 L 16 32 L 16 22 L 24.949219 22 C 26.425781 24.957031 29.476563 27 33 27 C 37.964844 27 42 22.960938 42 18 C 42 13.039063 37.964844 9 33 9 C 28.035156 9 24 13.039063 24 18 C 24 18.6875 24.085938 19.355469 24.234375 20 L 16 20 L 16 10 L 19 10 L 19 2 Z M 13 4 L 17 4 L 17 8 L 13 8 Z M 32 14 L 34 14 L 34 17 L 37 17 L 37 19 L 34 19 L 34 22 L 32 22 L 32 19 L 29 19 L 29 17 L 32 17 Z M 29 31 L 33 31 L 33 35 L 29 35 Z"/></svg>