<svg xmlns="http://www.w3.org/2000/svg" viewBox="0 0 48 48" width="100px" height="100px"><path fill="#616161" d="M12 4H36V44H12z"/><path fill="#9e9e9e" d="M14 6H34V10H14zM14 12H34V16H14zM14 18H34V22H14z"/><path fill="#76ff03" d="M31 7A1 1 0 1 0 31 9 1 1 0 1 0 31 7zM31 13A1 1 0 1 0 31 15 1 1 0 1 0 31 13zM31 19A1 1 0 1 0 31 21 1 1 0 1 0 31 19z"/><path fill="#f44336" d="M24 25A8 8 0 1 0 24 41A8 8 0 1 0 24 25Z"/><path fill="#ffcdd2" d="M23 27H25V32H23z"/><path fill="#ffcdd2" d="M28.307,28.832l-1.299,1.559C27.617,31.094,28,31.999,28,33c0,2.206-1.794,4-4,4s-4-1.794-4-4 c0-1.001,0.383-1.906,0.993-2.609l-1.299-1.559C18.647,29.912,18,31.381,18,33c0,3.309,2.691,6,6,6s6-2.691,6-6 C30,31.381,29.353,29.912,28.307,28.832z"/></svg>