<svg fill="#000000" xmlns="http://www.w3.org/2000/svg" viewBox="0 0 50 50" width="100px" height="100px"><path d="M 25 2 C 17.832031 2 12 7.832031 12 15 C 12 24.523438 23.707031 39.957031 24.203125 40.609375 L 25 41.644531 L 25.796875 40.609375 C 26.292969 39.957031 38 24.523438 38 15 C 38 7.832031 32.167969 2 25 2 Z M 25 11 C 27.210938 11 29 12.789063 29 15 C 29 17.210938 27.210938 19 25 19 C 22.789063 19 21 17.210938 21 15 C 21 12.789063 22.789063 11 25 11 Z M 7.296875 32 L 1.578125 48 L 48.421875 48 L 42.703125 32 L 35.050781 32 C 34.660156 32.6875 34.269531 33.355469 33.878906 34 L 41.296875 34 L 45.578125 46 L 4.421875 46 L 8.703125 34 L 16.121094 34 C 15.730469 33.355469 15.339844 32.6875 14.949219 32 Z"/></svg>