<svg xmlns="http://www.w3.org/2000/svg" viewBox="0 0 64 64" width="100px" height="100px"><radialGradient id="LLfV2~ITjtatBYX0ADJb0a" cx="32" cy="32" r="32" gradientUnits="userSpaceOnUse" spreadMethod="reflect"><stop offset="0" stop-color="#f4e9c3"/><stop offset=".219" stop-color="#f8eecd"/><stop offset=".644" stop-color="#fdf4dc"/><stop offset="1" stop-color="#fff6e1"/></radialGradient><path fill="url(#LLfV2~ITjtatBYX0ADJb0a)" d="M4,56c-2.209,0-4,1.791-4,4c0,2.209,1.791,4,4,4s4-1.791,4-4C8,57.791,6.209,56,4,56z M12,16 l-8.386,0c-1.67,0-3.195,1.122-3.537,2.757C-0.392,21.002,1.332,23,3.5,23l0.912,0c1.139,0,2.202,0.721,2.497,1.821 C7.355,26.484,6.096,28,4.5,28h0C2.015,28,0,30.015,0,32.5l0,0C0,34.985,2.015,37,4.5,37h2.33c1.624,0,3.081,1.216,3.166,2.839 C10.086,41.569,8.71,43,7,43l-1.302,0c-1.895,0-3.594,1.419-3.693,3.312C1.899,48.33,3.505,50,5.5,50l11.33,0 c1.624,0,3.081,1.216,3.166,2.839C20.086,54.569,18.71,56,17,56l-1.828,0c-2.089,0-3.955,1.527-4.153,3.607 C10.791,61.993,12.661,64,15,64l35.828,0c2.089,0,3.955-1.527,4.153-3.607C55.209,58.007,53.339,56,51,56l-1.828,0 c-2.089,0-3.955-1.527-4.153-3.607C44.791,50.007,46.661,48,49,48l10.307,0c2.35,0,4.449-1.718,4.672-4.058 C64.235,41.258,62.131,39,59.5,39l-0.802,0c-1.895,0-3.594-1.419-3.693-3.312C54.899,33.67,56.505,32,58.5,32l1.328,0 c2.089,0,3.955-1.527,4.153-3.607C64.209,26.007,62.339,24,60,24l-3.357,0c-1.308,0-2.499-0.941-2.63-2.242 C53.863,20.261,55.034,19,56.5,19l1.328,0c2.089,0,3.955-1.527,4.153-3.607C62.209,13.007,60.339,11,58,11l-4.893,0 c-0.996,0-1.92-0.681-2.08-1.664C50.824,8.083,51.785,7,53,7l0.302,0c1.895,0,3.594-1.419,3.693-3.312C57.101,1.67,55.495,0,53.5,0 H24.357H12.5L6.236,0c-2.607,0-4.948,1.893-5.21,4.487C0.725,7.465,3.081,10,6,10l6,0c1.657,0,3,1.343,3,3v0 C15,14.657,13.657,16,12,16z"/><linearGradient id="LLfV2~ITjtatBYX0ADJb0b" x1="31" x2="31" y1="74.733" y2="-.561" gradientUnits="userSpaceOnUse" spreadMethod="reflect"><stop offset="0" stop-color="#155cde"/><stop offset=".372" stop-color="#2082e6"/><stop offset=".782" stop-color="#2aa7ed"/><stop offset="1" stop-color="#2eb5f0"/></linearGradient><path fill="url(#LLfV2~ITjtatBYX0ADJb0b)" d="M51.908,40H46h-5.929c-1.326,0-2.598,0.527-3.536,1.464l-2.917,2.917 c-5.801-3.356-10.644-8.199-14-14l2.917-2.917C23.473,26.527,24,25.255,24,23.929V18v-5.908C24,10.384,22.616,9,20.908,9H10.092 C8.384,9,7,10.384,7,12.092v1.985c0,3.522,0.419,7.044,1.417,10.422c4.41,14.916,16.168,26.674,31.084,31.084 C42.879,56.581,46.401,57,49.923,57h1.985C53.616,57,55,55.616,55,53.908V43.092C55,41.384,53.616,40,51.908,40z"/><linearGradient id="LLfV2~ITjtatBYX0ADJb0c" x1="44" x2="44" y1="6" y2="34" gradientUnits="userSpaceOnUse" spreadMethod="reflect"><stop offset="0" stop-color="#42d778"/><stop offset=".428" stop-color="#3dca76"/><stop offset="1" stop-color="#34b171"/></linearGradient><path fill="url(#LLfV2~ITjtatBYX0ADJb0c)" d="M55,17h-8V9c0-1.65-1.35-3-3-3s-3,1.35-3,3v8h-8c-1.65,0-3,1.35-3,3c0,1.65,1.35,3,3,3h8v8 c0,1.65,1.35,3,3,3s3-1.35,3-3v-8h8c1.65,0,3-1.35,3-3C58,18.35,56.65,17,55,17z"/></svg>