<?xml version="1.0"?><svg fill="#000000" xmlns="http://www.w3.org/2000/svg" viewBox="0 0 24 24" width="100px" height="100px">    <path d="M 14.998047 2.9980469 L 8.9980469 3.0039062 L 7.1640625 5 L 4 5 C 2.9 5 2 5.9 2 7 L 2 19 C 2 20.1 2.9 21 4 21 L 20 21 C 21.1 21 22 20.1 22 19 L 22 7 C 22 5.9 21.1 5 20 5 L 16.84375 5 L 14.998047 2.9980469 z M 14.121094 4.9980469 L 15.966797 7 L 20 7 L 20 19 L 4 19 L 4 7 L 8.0429688 7 L 9.8789062 5.0019531 L 14.121094 4.9980469 z M 11 9 L 11 12 L 8 12 L 8 14 L 11 14 L 11 17 L 13 17 L 13 14 L 16 14 L 16 12 L 13 12 L 13 9 L 11 9 z"/></svg>