<svg fill="#000000" xmlns="http://www.w3.org/2000/svg" viewBox="0 0 64 64" width="300px" height="300px"><path d="M 21.65625 2 C 20.320313 2 19.066406 2.519531 18.121094 3.464844 L 9.464844 12.121094 C 8.519531 13.066406 8 14.320313 8 15.65625 L 8 55 C 8 56.652344 9.347656 58 11 58 L 38.0625 58 C 40.375 61.601563 44.410156 64 49 64 C 56.167969 64 62 58.167969 62 51 C 62 45.601563 58.691406 40.96875 54 39.003906 L 54 5 C 54 3.347656 52.652344 2 51 2 Z M 22 4 L 51 4 C 51.550781 4 52 4.449219 52 5 L 52 38.363281 C 51.035156 38.132813 50.035156 38 49 38 C 41.832031 38 36 43.832031 36 51 C 36 52.769531 36.359375 54.460938 37.003906 56 L 11 56 C 10.449219 56 10 55.550781 10 55 L 10 16 L 19 16 C 20.652344 16 22 14.652344 22 13 Z M 20 4.5 L 20 13 C 20 13.550781 19.550781 14 19 14 L 10.5 14 C 10.605469 13.835938 10.734375 13.679688 10.878906 13.535156 L 19.535156 4.878906 C 19.679688 4.738281 19.835938 4.613281 20 4.5 Z M 17 22 C 16.449219 22 16 22.449219 16 23 C 16 23.550781 16.449219 24 17 24 L 33 24 C 33.550781 24 34 23.550781 34 23 C 34 22.449219 33.550781 22 33 22 Z M 37 22 C 36.449219 22 36 22.449219 36 23 C 36 23.550781 36.449219 24 37 24 L 41 24 C 41.550781 24 42 23.550781 42 23 C 42 22.449219 41.550781 22 41 22 Z M 17 26 C 16.449219 26 16 26.449219 16 27 C 16 27.550781 16.449219 28 17 28 L 37 28 C 37.550781 28 38 27.550781 38 27 C 38 26.449219 37.550781 26 37 26 Z M 17 32 C 16.449219 32 16 32.449219 16 33 C 16 33.550781 16.449219 34 17 34 L 39 34 C 39.550781 34 40 33.550781 40 33 C 40 32.449219 39.550781 32 39 32 Z M 17 36 C 16.449219 36 16 36.449219 16 37 C 16 37.550781 16.449219 38 17 38 L 34 38 C 34.550781 38 35 37.550781 35 37 C 35 36.449219 34.550781 36 34 36 Z M 49 40 C 55.066406 40 60 44.933594 60 51 C 60 57.066406 55.066406 62 49 62 C 42.933594 62 38 57.066406 38 51 C 38 44.933594 42.933594 40 49 40 Z M 49 44 C 48.449219 44 48 44.449219 48 45 L 48 50 L 43 50 C 42.449219 50 42 50.449219 42 51 C 42 51.550781 42.449219 52 43 52 L 48 52 L 48 57 C 48 57.550781 48.449219 58 49 58 C 49.550781 58 50 57.550781 50 57 L 50 52 L 55 52 C 55.550781 52 56 51.550781 56 51 C 56 50.449219 55.550781 50 55 50 L 50 50 L 50 45 C 50 44.449219 49.550781 44 49 44 Z M 13 50 C 12.449219 50 12 50.449219 12 51 L 12 53 C 12 53.550781 12.449219 54 13 54 C 13.550781 54 14 53.550781 14 53 L 14 51 C 14 50.449219 13.550781 50 13 50 Z M 18 50 C 17.449219 50 17 50.449219 17 51 L 17 53 C 17 53.550781 17.449219 54 18 54 C 18.550781 54 19 53.550781 19 53 L 19 51 C 19 50.449219 18.550781 50 18 50 Z M 23 50 C 22.449219 50 22 50.449219 22 51 L 22 53 C 22 53.550781 22.449219 54 23 54 C 23.550781 54 24 53.550781 24 53 L 24 51 C 24 50.449219 23.550781 50 23 50 Z M 28 50 C 27.449219 50 27 50.449219 27 51 L 27 53 C 27 53.550781 27.449219 54 28 54 C 28.550781 54 29 53.550781 29 53 L 29 51 C 29 50.449219 28.550781 50 28 50 Z M 33 50 C 32.449219 50 32 50.449219 32 51 L 32 53 C 32 53.550781 32.449219 54 33 54 C 33.550781 54 34 53.550781 34 53 L 34 51 C 34 50.449219 33.550781 50 33 50 Z"/></svg>