<?xml version="1.0"?><svg fill="#000000" xmlns="http://www.w3.org/2000/svg" viewBox="0 0 24 24" width="300px" height="300px">    <path d="M 11.701172 2.0039062 C 6.0377783 2.1695654 1.5560937 7.0455469 2.0351562 12.849609 C 2.4021562 17.302609 5.8128906 21.06775 10.212891 21.84375 C 11.526891 22.07475 12.801 22.043781 14 21.800781 L 14 17 L 17 17 L 17 14 L 21.798828 14 C 22.041828 12.802 22.073797 11.527891 21.841797 10.212891 C 21.066797 5.8128906 17.302609 2.4021562 12.849609 2.0351562 C 12.462672 2.0032187 12.078731 1.9928623 11.701172 2.0039062 z M 11.712891 5.6503906 L 12.720703 5.6503906 L 12.720703 7.1054688 C 13.041703 7.1664687 14.837891 7.576125 14.837891 10.203125 L 12.947266 10.203125 C 12.947266 8.830125 12.364141 8.6152344 12.119141 8.6152344 C 11.985141 8.6152344 11.365234 8.6503437 11.365234 9.7773438 C 11.366234 11.743344 14.824219 11.129938 14.824219 14.335938 C 14.824219 16.663938 12.912219 16.977531 12.574219 17.019531 L 12.574219 18.349609 L 11.572266 18.349609 L 11.572266 17.019531 C 11.260266 16.976531 9.1621094 16.747469 9.1621094 13.855469 L 11.052734 13.855469 C 11.052734 15.563469 11.932406 15.492188 12.066406 15.492188 C 12.213406 15.492188 12.935547 15.465609 12.935547 14.349609 C 12.935547 12.120609 9.4765625 13.108578 9.4765625 9.7675781 C 9.4765625 7.4775781 11.373891 7.121125 11.712891 7.078125 L 11.712891 5.6503906 z M 19 16 L 19 19 L 16 19 L 16 21 L 19 21 L 19 24 L 21 24 L 21 21 L 24 21 L 24 19 L 21 19 L 21 16 L 19 16 z"/></svg>