<svg fill="#000000" xmlns="http://www.w3.org/2000/svg" viewBox="0 0 24 24" width="300px" height="300px"><path d="M 3.9902344 2.9902344 A 1.0001 1.0001 0 0 0 3 4.1289062 L 3 13 A 1.0001 1.0001 0 0 0 3.2929688 13.707031 L 7.2050781 17.619141 A 1.0001 1.0001 0 0 0 8.1582031 18 L 17 18 A 1.0001 1.0001 0 0 0 18 17 L 18 8.1679688 A 1.0001 1.0001 0 0 0 17.617188 7.203125 L 13.707031 3.2929688 A 1.0001 1.0001 0 0 0 13 3 L 4.1171875 3 A 1.0001 1.0001 0 0 0 3.9902344 2.9902344 z M 6.4140625 5 L 12.585938 5 L 14.585938 7 L 8.4140625 7 L 6.4140625 5 z M 5 6.4140625 L 7 8.4140625 L 7 14.585938 L 5 12.585938 L 5 6.4140625 z M 9 9 L 16 9 L 16 16 L 9 16 L 9 9 z M 20 10 L 20 16 L 23 13 L 20 10 z M 10 20 L 13 23 L 16 20 L 10 20 z"/></svg>