<?xml version="1.0"?><svg fill="#000000" xmlns="http://www.w3.org/2000/svg" viewBox="0 0 24 24" width="100px" height="100px">    <path d="M 3 3 C 1.895 3 1 3.895 1 5 L 1 17 C 1 18.105 1.895 19 3 19 L 8 19 L 8 20 C 8 20.552 8.448 21 9 21 L 15 21 C 15.552 21 16 20.552 16 20 L 16 19 L 21 19 C 22.105 19 23 18.105 23 17 L 23 5 C 23 3.895 22.105 3 21 3 L 3 3 z M 3 5 L 21 5 L 21 17 L 3 17 L 3 5 z M 12.921875 8 C 12.587875 8 12.307531 8.2500312 12.269531 8.5820312 L 11.734375 13.251953 C 11.689375 13.640953 11.994719 13.982422 12.386719 13.982422 L 14.693359 13.982422 C 16.591359 13.982422 18.044922 12.768578 18.044922 10.392578 C 18.044922 8.0185781 15.513672 8 15.513672 8 L 12.921875 8 z M 8.7109375 8.0097656 C 8.2539375 8.0097656 7.7683281 8.1063906 7.3613281 8.2753906 C 7.2703281 8.3133906 6.8577188 8.5816094 7.0117188 9.0996094 C 7.1447187 9.5446094 7.5512969 9.3895156 7.6542969 9.3535156 C 7.8692969 9.2765156 8.1480781 9.2167969 8.4550781 9.2167969 C 8.6990781 9.2167969 9 9.3714375 9 9.6484375 C 9 10.031437 8.4242969 10.346656 7.9042969 10.347656 C 7.9042969 10.347656 7.4899062 10.359578 7.3789062 10.892578 C 7.2679063 11.425578 7.765625 11.457031 7.765625 11.457031 C 8.746625 11.457031 8.7460938 11.908641 8.7460938 12.056641 C 8.7460938 12.440641 8.3658281 12.697266 7.7988281 12.697266 C 7.5018281 12.697266 7.2391562 12.635406 7.0351562 12.566406 C 6.8681563 12.509406 6.4536875 12.419531 6.1796875 12.894531 C 5.9056875 13.369531 6.2604219 13.710922 6.4824219 13.794922 C 6.8224219 13.923922 7.29325 14.009766 7.78125 14.009766 C 8.99925 14.009766 10.292969 13.322875 10.292969 12.046875 C 10.292969 11.502875 10.030609 11.054219 9.5996094 10.824219 C 10.187609 10.554219 10.5625 10.033359 10.5625 9.4433594 C 10.5625 8.5853594 9.8199375 8.0097656 8.7109375 8.0097656 z M 13.925781 9.2167969 L 14.847656 9.2167969 C 14.847656 9.2167969 16.335938 9.2321719 16.335938 10.701172 C 16.334937 12.546172 14.539062 12.716797 14.539062 12.716797 L 13.515625 12.716797 L 13.925781 9.2167969 z"/></svg>