<svg xmlns="http://www.w3.org/2000/svg" viewBox="0 0 100 100" width="50px" height="50px"><path fill="#fefdef" d="M80.999,31.247c-7.874-7.875-12.373-12.373-20.247-20.248H41.937h-9.105h-2.833h-1.268 c-4.803,0-8.732,3.93-8.732,8.732v61.535c0,4.803,3.93,8.732,8.732,8.732h43.535c4.803,0,8.732-3.93,8.732-8.732L80.999,31.247 L80.999,31.247z"/><path fill="#fef6aa" d="M60.499,11.499v10.986c0,4.958,4.056,9.014,9.014,9.014h11.986"/><path fill="#1f212b" d="M72.267,90.999H28.732c-5.366,0-9.732-4.366-9.732-9.732V19.732C19,14.365,23.366,10,28.732,10 h32.021c0.266,0,0.52,0.105,0.707,0.293l20.247,20.248C81.895,30.729,82,30.983,82,31.248v50.02 C81.999,86.633,77.633,90.999,72.267,90.999z M28.732,11.999c-4.264,0-7.732,3.469-7.732,7.732v61.535 c0,4.264,3.469,7.732,7.732,7.732h43.535c4.264,0,7.732-3.469,7.732-7.732V31.661L60.338,11.999H28.732z"/><path fill="#1f212b" d="M81.499,31.999H69.514c-5.246,0-9.515-4.268-9.515-9.515V11.499c0-0.276,0.224-0.5,0.5-0.5 s0.5,0.224,0.5,0.5v10.985c0,4.695,3.819,8.515,8.515,8.515h11.985c0.276,0,0.5,0.224,0.5,0.5S81.776,31.999,81.499,31.999z M75.499,49.999c-0.276,0-0.5-0.224-0.5-0.5v-3c0-0.276,0.224-0.5,0.5-0.5s0.5,0.224,0.5,0.5v3 C75.999,49.775,75.776,49.999,75.499,49.999z M75.499,57.999c-0.276,0-0.5-0.224-0.5-0.5v-6c0-0.276,0.224-0.5,0.5-0.5 s0.5,0.224,0.5,0.5v6C75.999,57.775,75.776,57.999,75.499,57.999z M68.341,84.999H32.657c-4.223,0-7.658-3.45-7.658-7.689V24.647 c0-2.458,1.193-4.79,3.193-6.238c1.31-0.949,2.854-1.451,4.465-1.451c0.276,0,0.5,0.224,0.5,0.5c0,0.276-0.224,0.5-0.5,0.5 c-1.398,0-2.74,0.436-3.879,1.261c-1.74,1.262-2.779,3.291-2.779,5.429v52.663c0,3.688,2.987,6.689,6.658,6.689h35.684 c3.671,0,6.658-3.001,6.658-6.689V59.499c0-0.276,0.224-0.5,0.5-0.5s0.5,0.224,0.5,0.5V77.31 C75.999,81.549,72.564,84.999,68.341,84.999z"/><path fill="#1f212b" d="M51.499,53.999h-21c-0.276,0-0.5-0.224-0.5-0.5s0.224-0.5,0.5-0.5h21c0.276,0,0.5,0.224,0.5,0.5 S51.776,53.999,51.499,53.999z M43.499,60.999h-13c-0.276,0-0.5-0.224-0.5-0.5s0.224-0.5,0.5-0.5h13c0.276,0,0.5,0.224,0.5,0.5 S43.776,60.999,43.499,60.999z M70.499,60.999h-24c-0.276,0-0.5-0.224-0.5-0.5s0.224-0.5,0.5-0.5h24c0.276,0,0.5,0.224,0.5,0.5 S70.776,60.999,70.499,60.999z M61.499,67.999h-11c-0.276,0-0.5-0.224-0.5-0.5s0.224-0.5,0.5-0.5h11c0.276,0,0.5,0.224,0.5,0.5 S61.776,67.999,61.499,67.999z M71.499,67.999h-8c-0.276,0-0.5-0.224-0.5-0.5s0.224-0.5,0.5-0.5h8c0.276,0,0.5,0.224,0.5,0.5 S71.776,67.999,71.499,67.999z M47.499,67.999h-17c-0.276,0-0.5-0.224-0.5-0.5s0.224-0.5,0.5-0.5h17c0.276,0,0.5,0.224,0.5,0.5 S47.776,67.999,47.499,67.999z M70.499,74.999h-14c-0.276,0-0.5-0.224-0.5-0.5s0.224-0.5,0.5-0.5h14c0.276,0,0.5,0.224,0.5,0.5 S70.776,74.999,70.499,74.999z M54.499,74.999h-24c-0.276,0-0.5-0.224-0.5-0.5s0.224-0.5,0.5-0.5h24c0.276,0,0.5,0.224,0.5,0.5 S54.776,74.999,54.499,74.999z M51.499,46.999h-21c-0.276,0-0.5-0.224-0.5-0.5s0.224-0.5,0.5-0.5h21c0.276,0,0.5,0.224,0.5,0.5 S51.776,46.999,51.499,46.999z M51.499,39.999h-21c-0.276,0-0.5-0.224-0.5-0.5s0.224-0.5,0.5-0.5h21c0.276,0,0.5,0.224,0.5,0.5 S51.776,39.999,51.499,39.999z"/><path fill="#fef6aa" d="M54.499,53.499v-14h16v16h-12"/><path fill="#1f212b" d="M70.499,55.999h-12c-0.276,0-0.5-0.224-0.5-0.5s0.224-0.5,0.5-0.5h11.5v-15h-15v13.5 c0,0.276-0.224,0.5-0.5,0.5s-0.5-0.224-0.5-0.5v-14c0-0.276,0.224-0.5,0.5-0.5h16c0.276,0,0.5,0.224,0.5,0.5v16 C70.999,55.775,70.776,55.999,70.499,55.999z"/><circle cx="79.5" cy="79.5" r="14.5" fill="#60be92"/><path fill="#1f212b" d="M87.5,80H71.593c-0.276,0-0.5-0.224-0.5-0.5s0.224-0.5,0.5-0.5H87.5c0.276,0,0.5,0.224,0.5,0.5 S87.776,80,87.5,80z"/><path fill="#1f212b" d="M79.5,88c-0.276,0-0.5-0.224-0.5-0.5v-16c0-0.276,0.224-0.5,0.5-0.5s0.5,0.224,0.5,0.5v16 C80,87.776,79.776,88,79.5,88z"/><path fill="#1f212b" d="M79.5,95C70.953,95,64,88.047,64,79.5S70.953,64,79.5,64S95,70.953,95,79.5S88.047,95,79.5,95z M79.5,66C72.056,66,66,72.056,66,79.5S72.056,93,79.5,93S93,86.944,93,79.5S86.944,66,79.5,66z"/></svg>