<?xml version="1.0"?><svg fill="#000000" xmlns="http://www.w3.org/2000/svg" viewBox="0 0 24 24" width="500px" height="500px">    <path d="M 6 2 C 4.897 2 4 2.897 4 4 L 4 20 C 4 21.103 4.897 22 6 22 L 13 22 L 13 20 L 6 20 L 6 4 L 13 4 L 13 9 L 18 9 L 18 14 L 20 14 L 20 8 L 14 2 L 6 2 z M 12 11 L 12 14 L 15 14 C 15 12.343 13.641 11.031 12 11 z M 11 12 C 9.343 12 8 13.343 8 15 C 8 16.657 9.343 18 11 18 C 12.657 18 13.969 16.641 14 15 L 11 15 L 11 12 z M 18 16 L 18 19 L 15 19 L 15 21 L 18 21 L 18 24 L 20 24 L 20 21 L 23 21 L 23 19 L 20 19 L 20 16 L 18 16 z"/></svg>