<svg fill="#000000" xmlns="http://www.w3.org/2000/svg" viewBox="0 0 80 80" width="500px" height="500px"><path d="M 15 9 L 15 71 L 65 71 L 65 23.585938 L 50.414062 9 L 50 9 L 15 9 z M 17 11 L 49 11 L 49 25 L 63 25 L 63 69 L 17 69 L 17 11 z M 51 12.414062 L 61.585938 23 L 51 23 L 51 12.414062 z M 22 13 A 1 1 0 0 0 21 14 A 1 1 0 0 0 22 15 A 1 1 0 0 0 23 14 A 1 1 0 0 0 22 13 z M 22 17 A 1 1 0 0 0 21 18 A 1 1 0 0 0 22 19 A 1 1 0 0 0 23 18 A 1 1 0 0 0 22 17 z M 22 21 A 1 1 0 0 0 21 22 A 1 1 0 0 0 22 23 A 1 1 0 0 0 23 22 A 1 1 0 0 0 22 21 z M 22 25 A 1 1 0 0 0 21 26 A 1 1 0 0 0 22 27 A 1 1 0 0 0 23 26 A 1 1 0 0 0 22 25 z M 22 29 A 1 1 0 0 0 21 30 A 1 1 0 0 0 22 31 A 1 1 0 0 0 23 30 A 1 1 0 0 0 22 29 z M 22 33 A 1 1 0 0 0 21 34 A 1 1 0 0 0 22 35 A 1 1 0 0 0 23 34 A 1 1 0 0 0 22 33 z M 22 37 A 1 1 0 0 0 21 38 A 1 1 0 0 0 22 39 A 1 1 0 0 0 23 38 A 1 1 0 0 0 22 37 z M 22 41 A 1 1 0 0 0 21 42 A 1 1 0 0 0 22 43 A 1 1 0 0 0 23 42 A 1 1 0 0 0 22 41 z M 32.003906 41 C 29.565906 41 28 42.717094 28 45.496094 C 28 48.281094 29.548906 50 32.003906 50 C 34.452906 50 36 48.275094 36 45.496094 C 36 42.717094 34.447906 41 32.003906 41 z M 38 41 L 38 50 L 42.228516 50 C 44.155516 50 45.365234 48.988156 45.365234 47.410156 C 45.365234 46.263156 44.491641 45.307422 43.306641 45.232422 C 44.254641 45.095422 45 44.205141 45 43.244141 C 45 41.847141 43.951969 41 42.167969 41 L 38 41 z M 51 41 L 51 47.087891 C 51 47.878891 50.685859 48.294922 50.005859 48.294922 C 49.349859 48.294922 49.006 47.8675 49 47.1875 L 49 47 L 47 47 L 47 47.1875 C 47 48.9215 48.219297 50 50.029297 50 C 51.887297 50 53 48.956609 53 47.099609 L 53 41 L 51 41 z M 40 42.552734 L 41.697266 42.552734 C 42.513266 42.552734 42.988281 42.959953 42.988281 43.626953 C 42.988281 44.293953 42.477938 44.691406 41.585938 44.691406 L 40 44.691406 L 40 42.552734 z M 32.003906 42.71875 C 33.211906 42.71875 34 43.801094 34 45.496094 C 34 47.191094 33.210906 48.28125 32.003906 48.28125 C 30.784906 48.28125 30 47.191094 30 45.496094 C 30 43.801094 30.795906 42.71875 32.003906 42.71875 z M 22 45 A 1 1 0 0 0 21 46 A 1 1 0 0 0 22 47 A 1 1 0 0 0 23 46 A 1 1 0 0 0 22 45 z M 40 46.039062 L 41.609375 46.039062 C 42.607375 46.039062 43.169922 46.457609 43.169922 47.224609 C 43.169922 48.015609 42.627719 48.447266 41.636719 48.447266 L 40 48.447266 L 40 46.039062 z M 22 49 A 1 1 0 0 0 21 50 A 1 1 0 0 0 22 51 A 1 1 0 0 0 23 50 A 1 1 0 0 0 22 49 z M 22 53 A 1 1 0 0 0 21 54 A 1 1 0 0 0 22 55 A 1 1 0 0 0 23 54 A 1 1 0 0 0 22 53 z M 22 57 A 1 1 0 0 0 21 58 A 1 1 0 0 0 22 59 A 1 1 0 0 0 23 58 A 1 1 0 0 0 22 57 z M 22 61 A 1 1 0 0 0 21 62 A 1 1 0 0 0 22 63 A 1 1 0 0 0 23 62 A 1 1 0 0 0 22 61 z M 22 65 A 1 1 0 0 0 21 66 A 1 1 0 0 0 22 67 A 1 1 0 0 0 23 66 A 1 1 0 0 0 22 65 z"/></svg>