<svg fill="#000000" xmlns="http://www.w3.org/2000/svg" viewBox="0 0 50 50" width="300px" height="300px"><path d="M 25.144531 8 C 19.103964 8 13.561453 10.431954 9.2792969 14.439453 A 1.0001 1.0001 0 1 0 10.646484 15.898438 C 14.596328 12.201935 19.639099 10 25.144531 10 C 30.622398 10 35.641117 12.180148 39.582031 15.84375 A 1.0001 1.0001 0 1 0 40.943359 14.378906 C 36.670274 10.406508 31.154664 8 25.144531 8 z M 45.490234 20.9375 A 1.0001 1.0001 0 0 0 44.556641 21.625 C 40.545678 29.071912 33.337414 34 25.117188 34 C 16.915226 34 9.721572 29.091708 5.7050781 21.671875 A 1.0001 1.0001 0 0 0 3.7578125 22 L 3.7578125 22.048828 A 1.0001 1.0001 0 0 0 3.875 22.521484 C 4.6219944 23.916257 5.6065317 25.112634 6.5566406 26.335938 L 1.4003906 30.199219 A 1.0003907 1.0003907 0 1 0 2.5996094 31.800781 L 7.7089844 27.974609 C 8.2472989 28.570962 8.9203085 28.989449 9.5058594 29.529297 A 1.0001 1.0001 0 0 0 9.4453125 29.589844 L 4.0585938 35.505859 A 1.0001 1.0001 0 0 0 3.8886719 35.751953 A 1.0001 1.0001 0 0 0 3.8496094 35.84375 A 1.0001 1.0001 0 0 0 3.8007812 36.037109 A 1.0001 1.0001 0 0 0 3.8183594 36.433594 A 1.0001 1.0001 0 0 0 3.8867188 36.621094 A 1.0001 1.0001 0 0 0 3.9902344 36.792969 A 1.0001 1.0001 0 0 0 4.3769531 37.101562 A 1.0001 1.0001 0 0 0 4.765625 37.189453 A 1.0001 1.0001 0 0 0 4.8652344 37.1875 A 1.0001 1.0001 0 0 0 5.15625 37.119141 A 1.0001 1.0001 0 0 0 5.2460938 37.078125 A 1.0001 1.0001 0 0 0 5.4140625 36.96875 A 1.0001 1.0001 0 0 0 5.5371094 36.851562 L 10.923828 30.9375 A 1.0001 1.0001 0 0 0 11.017578 30.820312 C 11.573293 31.25731 12.042648 31.813295 12.630859 32.199219 A 1.0001 1.0001 0 0 0 12.621094 32.214844 L 8.4277344 39.027344 A 1.0001 1.0001 0 0 0 8.3066406 39.300781 A 1.0001 1.0001 0 0 0 8.2871094 39.398438 A 1.0001 1.0001 0 0 0 8.2753906 39.498047 A 1.0001 1.0001 0 0 0 8.28125 39.697266 A 1.0001 1.0001 0 0 0 8.3007812 39.794922 A 1.0001 1.0001 0 0 0 8.328125 39.890625 A 1.0001 1.0001 0 0 0 8.4667969 40.15625 A 1.0001 1.0001 0 0 0 8.5292969 40.232422 A 1.0001 1.0001 0 0 0 8.9414062 40.507812 A 1.0001 1.0001 0 0 0 9.0390625 40.535156 A 1.0001 1.0001 0 0 0 9.5332031 40.529297 A 1.0001 1.0001 0 0 0 9.6289062 40.498047 A 1.0001 1.0001 0 0 0 9.8066406 40.408203 A 1.0001 1.0001 0 0 0 9.8886719 40.351562 A 1.0001 1.0001 0 0 0 10.033203 40.212891 A 1.0001 1.0001 0 0 0 10.09375 40.132812 A 1.0001 1.0001 0 0 0 10.130859 40.074219 L 14.324219 33.261719 A 1.0001 1.0001 0 0 0 14.414062 33.083984 A 1.0001 1.0001 0 0 0 14.417969 33.070312 C 15.056384 33.41686 15.718933 33.706728 16.386719 33.992188 A 1.0001 1.0001 0 0 0 16.269531 34.21875 L 13.435547 41.699219 A 1.0001 1.0001 0 0 0 13.367188 41.990234 A 1.0001 1.0001 0 0 0 13.365234 42.091797 A 1.0001 1.0001 0 0 0 13.373047 42.191406 A 1.0001 1.0001 0 0 0 13.416016 42.384766 A 1.0001 1.0001 0 0 0 13.453125 42.478516 A 1.0001 1.0001 0 0 0 13.498047 42.566406 A 1.0001 1.0001 0 0 0 13.552734 42.650391 A 1.0001 1.0001 0 0 0 13.615234 42.728516 A 1.0001 1.0001 0 0 0 13.685547 42.800781 A 1.0001 1.0001 0 0 0 13.761719 42.865234 A 1.0001 1.0001 0 0 0 13.84375 42.921875 A 1.0001 1.0001 0 0 0 13.931641 42.96875 A 1.0001 1.0001 0 0 0 14.121094 43.037109 A 1.0001 1.0001 0 0 0 14.21875 43.056641 A 1.0001 1.0001 0 0 0 14.890625 42.917969 A 1.0001 1.0001 0 0 0 14.972656 42.861328 A 1.0001 1.0001 0 0 0 15.119141 42.724609 A 1.0001 1.0001 0 0 0 15.179688 42.646484 A 1.0001 1.0001 0 0 0 15.279297 42.472656 A 1.0001 1.0001 0 0 0 15.304688 42.408203 L 18.140625 34.927734 A 1.0001 1.0001 0 0 0 18.171875 34.832031 A 1.0001 1.0001 0 0 0 18.171875 34.830078 C 18.75057 35.020054 19.33217 35.185144 19.927734 35.328125 A 1.0001 1.0001 0 0 0 19.904297 35.425781 L 18.40625 43.283203 A 1.0001 1.0001 0 0 0 18.390625 43.382812 A 1.0001 1.0001 0 0 0 18.386719 43.482422 A 1.0001 1.0001 0 0 0 18.390625 43.582031 A 1.0001 1.0001 0 0 0 18.40625 43.681641 A 1.0001 1.0001 0 0 0 18.429688 43.777344 A 1.0001 1.0001 0 0 0 18.464844 43.873047 A 1.0001 1.0001 0 0 0 18.560547 44.046875 A 1.0001 1.0001 0 0 0 18.6875 44.201172 A 1.0001 1.0001 0 0 0 18.763672 44.267578 A 1.0001 1.0001 0 0 0 18.929688 44.375 A 1.0001 1.0001 0 0 0 19.117188 44.447266 A 1.0001 1.0001 0 0 0 19.3125 44.482422 A 1.0001 1.0001 0 0 0 19.513672 44.476562 A 1.0001 1.0001 0 0 0 19.611328 44.458984 A 1.0001 1.0001 0 0 0 19.800781 44.394531 A 1.0001 1.0001 0 0 0 19.888672 44.349609 A 1.0001 1.0001 0 0 0 20.123047 44.162109 A 1.0001 1.0001 0 0 0 20.185547 44.085938 A 1.0001 1.0001 0 0 0 20.242188 44.001953 A 1.0001 1.0001 0 0 0 20.289062 43.914062 A 1.0001 1.0001 0 0 0 20.328125 43.822266 A 1.0001 1.0001 0 0 0 20.357422 43.726562 A 1.0001 1.0001 0 0 0 20.371094 43.658203 L 21.869141 35.798828 A 1.0001 1.0001 0 0 0 21.875 35.755859 C 22.571939 35.858152 23.289789 35.880136 24.003906 35.916016 A 1.0001 1.0001 0 0 0 24.001953 35.929688 A 1.0001 1.0001 0 0 0 24 36 L 24 44 A 1.0001 1.0001 0 0 0 24.003906 44.099609 A 1.0001 1.0001 0 0 0 24.017578 44.199219 A 1.0001 1.0001 0 0 0 24.041016 44.296875 A 1.0001 1.0001 0 0 0 24.115234 44.480469 A 1.0001 1.0001 0 0 0 24.226562 44.648438 A 1.0001 1.0001 0 0 0 24.292969 44.720703 A 1.0001 1.0001 0 0 0 24.367188 44.789062 A 1.0001 1.0001 0 0 0 24.447266 44.847656 A 1.0001 1.0001 0 0 0 24.916016 45.009766 A 1.0001 1.0001 0 0 0 25.115234 45.007812 A 1.0001 1.0001 0 0 0 25.212891 44.990234 A 1.0001 1.0001 0 0 0 25.402344 44.929688 A 1.0001 1.0001 0 0 0 25.65625 44.769531 A 1.0001 1.0001 0 0 0 25.792969 44.623047 A 1.0001 1.0001 0 0 0 25.849609 44.541016 A 1.0001 1.0001 0 0 0 25.898438 44.455078 A 1.0001 1.0001 0 0 0 25.9375 44.363281 A 1.0001 1.0001 0 0 0 25.966797 44.267578 A 1.0001 1.0001 0 0 0 25.988281 44.169922 A 1.0001 1.0001 0 0 0 26 44 L 26 36 A 1.0001 1.0001 0 0 0 25.998047 35.933594 C 26.71373 35.905154 27.428183 35.870504 28.126953 35.775391 A 1.0001 1.0001 0 0 0 28.130859 35.798828 L 29.628906 43.658203 A 1.0001 1.0001 0 0 0 29.650391 43.755859 A 1.0001 1.0001 0 0 0 29.683594 43.849609 A 1.0001 1.0001 0 0 0 29.773438 44.027344 A 1.0001 1.0001 0 0 0 29.898438 44.183594 A 1.0001 1.0001 0 0 0 30.050781 44.3125 A 1.0001 1.0001 0 0 0 30.136719 44.363281 A 1.0001 1.0001 0 0 0 30.226562 44.408203 A 1.0001 1.0001 0 0 0 30.417969 44.464844 A 1.0001 1.0001 0 0 0 30.517578 44.480469 A 1.0001 1.0001 0 0 0 30.716797 44.480469 A 1.0001 1.0001 0 0 0 30.912109 44.439453 A 1.0001 1.0001 0 0 0 31.005859 44.404297 A 1.0001 1.0001 0 0 0 31.095703 44.361328 A 1.0001 1.0001 0 0 0 31.181641 44.308594 A 1.0001 1.0001 0 0 0 31.333984 44.179688 A 1.0001 1.0001 0 0 0 31.505859 43.935547 A 1.0001 1.0001 0 0 0 31.546875 43.84375 A 1.0001 1.0001 0 0 0 31.578125 43.75 A 1.0001 1.0001 0 0 0 31.613281 43.453125 A 1.0001 1.0001 0 0 0 31.605469 43.353516 A 1.0001 1.0001 0 0 0 31.59375 43.283203 L 30.095703 35.425781 A 1.0001 1.0001 0 0 0 30.085938 35.378906 C 30.682858 35.242054 31.279088 35.111721 31.859375 34.927734 L 34.695312 42.408203 A 1.0001 1.0001 0 0 0 34.78125 42.587891 A 1.0001 1.0001 0 0 0 35.224609 42.978516 A 1.0001 1.0001 0 0 0 35.414062 43.042969 A 1.0001 1.0001 0 0 0 35.511719 43.060547 A 1.0001 1.0001 0 0 0 35.712891 43.064453 A 1.0001 1.0001 0 0 0 35.810547 43.050781 A 1.0001 1.0001 0 0 0 36.464844 42.626953 A 1.0001 1.0001 0 0 0 36.558594 42.451172 A 1.0001 1.0001 0 0 0 36.591797 42.357422 A 1.0001 1.0001 0 0 0 36.630859 42.160156 A 1.0001 1.0001 0 0 0 36.634766 42.060547 A 1.0001 1.0001 0 0 0 36.628906 41.960938 A 1.0001 1.0001 0 0 0 36.587891 41.765625 A 1.0001 1.0001 0 0 0 36.564453 41.699219 L 33.730469 34.21875 A 1.0001 1.0001 0 0 0 33.666016 34.080078 C 34.332318 33.802225 34.983541 33.500631 35.621094 33.162109 A 1.0001 1.0001 0 0 0 35.640625 33.201172 A 1.0001 1.0001 0 0 0 35.675781 33.261719 L 39.869141 40.074219 A 1.0001 1.0001 0 0 0 40.058594 40.306641 A 1.0001 1.0001 0 0 0 40.134766 40.369141 A 1.0001 1.0001 0 0 0 40.794922 40.560547 A 1.0001 1.0001 0 0 0 40.990234 40.527344 A 1.0001 1.0001 0 0 0 41.085938 40.496094 A 1.0001 1.0001 0 0 0 41.177734 40.457031 A 1.0001 1.0001 0 0 0 41.345703 40.349609 A 1.0001 1.0001 0 0 0 41.550781 40.130859 A 1.0001 1.0001 0 0 0 41.603516 40.046875 A 1.0001 1.0001 0 0 0 41.646484 39.957031 A 1.0001 1.0001 0 0 0 41.681641 39.863281 A 1.0001 1.0001 0 0 0 41.726562 39.566406 A 1.0001 1.0001 0 0 0 41.722656 39.466797 A 1.0001 1.0001 0 0 0 41.708984 39.369141 A 1.0001 1.0001 0 0 0 41.650391 39.177734 A 1.0001 1.0001 0 0 0 41.572266 39.027344 L 37.4375 32.308594 C 38.03392 31.924296 38.51455 31.376025 39.078125 30.939453 L 44.462891 36.851562 A 1.0001 1.0001 0 0 0 44.533203 36.923828 A 1.0001 1.0001 0 0 0 44.779297 37.091797 A 1.0001 1.0001 0 0 0 45.066406 37.179688 A 1.0001 1.0001 0 0 0 45.558594 37.126953 A 1.0001 1.0001 0 0 0 45.896484 36.917969 A 1.0001 1.0001 0 0 0 45.964844 36.845703 A 1.0001 1.0001 0 0 0 46.027344 36.767578 A 1.0001 1.0001 0 0 0 46.1875 36.404297 A 1.0001 1.0001 0 0 0 46.210938 36.207031 A 1.0001 1.0001 0 0 0 46.208984 36.107422 A 1.0001 1.0001 0 0 0 46.195312 36.007812 A 1.0001 1.0001 0 0 0 46.138672 35.816406 A 1.0001 1.0001 0 0 0 46.097656 35.724609 A 1.0001 1.0001 0 0 0 45.941406 35.505859 L 40.597656 29.638672 C 41.193239 29.096865 41.876335 28.674147 42.423828 28.074219 L 47.400391 31.800781 A 1.0003905 1.0003905 0 0 0 48.599609 30.199219 L 43.597656 26.453125 C 44.594229 25.183563 45.610668 23.927061 46.386719 22.470703 A 1.0001 1.0001 0 0 0 46.505859 22 L 46.505859 21.951172 A 1.0001 1.0001 0 0 0 45.490234 20.9375 z"/></svg>