<svg xmlns="http://www.w3.org/2000/svg" viewBox="0 0 48 48" width="300px" height="300px"><path fill="#3F51B5" d="M38,13c0,0.553-0.447,1-1,1H5c-0.552,0-1-0.447-1-1V6c0-0.553,0.448-1,1-1h32c0.553,0,1,0.447,1,1V13z"/><path fill="#BBDEFB" d="M4 10H38V39H4z"/><path fill="#43A047" d="M44,34c0,5.523-4.477,10-10,10s-10-4.477-10-10s4.477-10,10-10S44,28.477,44,34"/><path fill="#FFF" d="M32 28H36V40H32z"/><path fill="#FFF" d="M28 32H40V36H28z"/><g><path fill="#1976D2" d="M15 19H31V21H15zM28.444 23H15v2h10.474C26.344 24.181 27.344 23.503 28.444 23zM15 15H31V17H15zM23.792 27H15v2h7.764C23.04 28.296 23.384 27.625 23.792 27zM11 15H13V17H11zM11 19H13V21H11zM11 31H13V33H11zM15 31v2h7c0-.684.071-1.351.191-2H15zM11 23H13V25H11zM11 27H13V29H11z"/></g></svg>