<svg xmlns="http://www.w3.org/2000/svg" viewBox="0 0 48 48" width="300px" height="300px"><path fill="#ffca28" d="M43,24c0,11-9,20-20,20S3,35,3,24S12,4,23,4S43,13,43,24z"/><path fill="#6d4c41" d="M20,23c0,2.2-1.8,4-4,4s-4-1.8-4-4s1.8-4,4-4S20,20.8,20,23z"/><path fill="#fff" d="M16,21.5c0,0.8-0.7,1.5-1.5,1.5S13,22.3,13,21.5s0.7-1.5,1.5-1.5S16,20.7,16,21.5z"/><path fill="#6d4c41" d="M34,23c0,2.2-1.8,4-4,4s-4-1.8-4-4s1.8-4,4-4S34,20.8,34,23z"/><path fill="#fff" d="M30,21.5c0,0.8-0.7,1.5-1.5,1.5S27,22.3,27,21.5s0.7-1.5,1.5-1.5S30,20.7,30,21.5z"/><path fill="#b76c09" d="M23,37c-2.8,0-5-2.2-5-5h2c0,1.7,1.3,3,3,3s3-1.3,3-3h2C28,34.8,25.8,37,23,37z"/><path fill="#f44336" d="M45,8.8C45,6.1,42.9,4,40.3,4c-1.9,0-3.5,1.1-4.2,2.7C35.2,5.1,33.6,4,31.8,4C29.1,4,27,6.1,27,8.8 C27,14,36,19,36,19v0h0h0v0C36,19,45,14,45,8.8z"/></svg>