<svg fill="#000000" xmlns="http://www.w3.org/2000/svg" viewBox="0 0 16 16" width="50px" height="50px"><path d="M 6.289063 2 C 5.785156 2 5.328125 2.3125 5.101563 2.820313 L 5.023438 3 L 2.5 3 C 1.671875 3 1 3.671875 1 4.5 L 1 11.5 C 1 12.328125 1.671875 13 2.5 13 L 6.210938 13 C 6.121094 12.675781 6.054688 12.34375 6.023438 12 L 2.5 12 C 2.222656 12 2 11.773438 2 11.5 L 2 4.5 C 2 4.226563 2.222656 4 2.5 4 L 5.667969 4 L 6.015625 3.230469 C 6.078125 3.089844 6.1875 3 6.289063 3 L 9.710938 3 C 9.8125 3 9.921875 3.089844 9.984375 3.230469 L 10.332031 4 L 13.5 4 C 13.777344 4 14 4.226563 14 4.5 L 14 6.605469 C 14.355469 6.789063 14.695313 7.003906 15 7.257813 L 15 4.5 C 15 3.671875 14.328125 3 13.5 3 L 10.980469 3 L 10.898438 2.820313 C 10.671875 2.3125 10.214844 2 9.710938 2 Z M 3 5 L 3 6 L 4 6 L 4 5 Z M 8 5 C 6.347656 5 5 6.347656 5 8 C 5 8.941406 5.445313 9.777344 6.128906 10.328125 C 6.207031 9.960938 6.324219 9.609375 6.472656 9.273438 C 6.183594 8.925781 6 8.488281 6 8 C 6 6.898438 6.898438 6 8 6 C 8.488281 6 8.925781 6.183594 9.273438 6.472656 C 9.609375 6.324219 9.960938 6.207031 10.328125 6.128906 C 9.777344 5.445313 8.941406 5 8 5 Z M 11.5 7 C 9.019531 7 7 9.019531 7 11.5 C 7 13.980469 9.019531 16 11.5 16 C 13.980469 16 16 13.980469 16 11.5 C 16 9.019531 13.980469 7 11.5 7 Z M 11.5 8 C 13.4375 8 15 9.5625 15 11.5 C 15 13.4375 13.4375 15 11.5 15 C 9.5625 15 8 13.4375 8 11.5 C 8 9.5625 9.5625 8 11.5 8 Z M 11 9 L 11 11 L 9 11 L 9 12 L 11 12 L 11 14 L 12 14 L 12 12 L 14 12 L 14 11 L 12 11 L 12 9 Z"/></svg>