<svg xmlns="http://www.w3.org/2000/svg" viewBox="0 0 80 80" width="50px" height="50px"><path fill="#fff" d="M12.5 75.5L12.5 4.5 49.793 4.5 67.5 22.207 67.5 75.5z"/><path fill="#788b9c" d="M49.586,5L67,22.414V75H13V5H49.586 M50,4H12v72h56V22L50,4L50,4z"/><path fill="#c5d4de" d="M47.729,76H68V42.918c-0.327-0.103-0.666-0.177-1-0.263V75H46.82 C47.113,75.342,47.413,75.678,47.729,76z"/><path fill="#788b9c" d="M24 32H56V33H24zM24 38H48V39H24zM56 44v1H24v-1H56zM48 50H24v1h24V50zM24 57h32v-1H24V57z"/><path fill="#c5d4de" d="M56 45v-1h-2.674c-.627.303-1.235.636-1.824 1H56zM56 57v-1H42.918c-.103.327-.177.666-.263 1H56zM48 51v-1h-1.973c-.247.329-.495.656-.722 1H48z"/><path fill="#fff" d="M50.5 21.5L50.5 5.207 66.793 21.5z"/><path fill="#788b9c" d="M51,6.414L65.586,21H51L51,6.414 M50,4L50,4l0,18h18L50,4L50,4z"/><g><path fill="#bae0bd" d="M62,79.5c-9.649,0-17.5-7.851-17.5-17.5S52.351,44.5,62,44.5S79.5,52.351,79.5,62 S71.649,79.5,62,79.5z"/><path fill="#5e9c76" d="M62,45c9.374,0,17,7.626,17,17s-7.626,17-17,17s-17-7.626-17-17S52.626,45,62,45 M62,44 c-9.941,0-18,8.059-18,18s8.059,18,18,18s18-8.059,18-18S71.941,44,62,44L62,44z"/></g><path fill="none" stroke="#fff" stroke-miterlimit="10" stroke-width="4" d="M62 72L62 52M52 62L72 62"/></svg>