<?xml version="1.0"?><svg fill="#000000" xmlns="http://www.w3.org/2000/svg" viewBox="0 0 24 24" width="300px" height="300px">    <path d="M 17 3 C 16.448 3 16 3.448 16 4 L 16 6 L 14 6 C 13.448 6 13 6.448 13 7 C 13 7.552 13.448 8 14 8 L 16 8 L 16 10 C 16 10.552 16.448 11 17 11 C 17.552 11 18 10.552 18 10 L 18 8 L 20 8 C 20.552 8 21 7.552 21 7 C 21 6.448 20.552 6 20 6 L 18 6 L 18 4 C 18 3.448 17.552 3 17 3 z M 5.0292969 3.0097656 C 3.8992969 3.0097656 2.9592969 3.9500781 3.0292969 5.0800781 C 3.2942969 9.3490781 5.1336562 13.188344 7.9726562 16.027344 C 10.811656 18.866344 14.650922 20.705703 18.919922 20.970703 C 20.049922 21.040703 20.990234 20.100703 20.990234 18.970703 L 20.990234 17.240234 C 20.990234 16.220234 20.230703 15.37 19.220703 15.25 L 16.699219 14.960938 C 16.089219 14.890937 15.490547 15.099297 15.060547 15.529297 L 13.210938 17.380859 C 11.791937 16.660859 10.504578 15.720422 9.3925781 14.607422 C 8.2795781 13.495422 7.3391406 12.208063 6.6191406 10.789062 L 8.4707031 8.9394531 C 8.9007031 8.5094531 9.1090625 7.9107813 9.0390625 7.3007812 L 8.75 4.7792969 C 8.63 3.7692969 7.7797656 3.0097656 6.7597656 3.0097656 L 5.0292969 3.0097656 z"/></svg>