<svg xmlns="http://www.w3.org/2000/svg" viewBox="0 0 100 100" width="100px" height="100px"><path fill="#c7ede6" d="M87.215,56.71C88.35,54.555,89,52.105,89,49.5c0-6.621-4.159-12.257-10.001-14.478 C78.999,35.015,79,35.008,79,35c0-11.598-9.402-21-21-21c-9.784,0-17.981,6.701-20.313,15.757C36.211,29.272,34.638,29,33,29 c-7.692,0-14.023,5.793-14.89,13.252C12.906,43.353,9,47.969,9,53.5C9,59.851,14.149,65,20.5,65c0.177,0,0.352-0.012,0.526-0.022 C21.022,65.153,21,65.324,21,65.5C21,76.822,30.178,86,41.5,86c6.437,0,12.175-2.972,15.934-7.614C59.612,80.611,62.64,82,66,82 c4.65,0,8.674-2.65,10.666-6.518C77.718,75.817,78.837,76,80,76c6.075,0,11-4.925,11-11C91,61.689,89.53,58.727,87.215,56.71z"/><path fill="#fdfcef" d="M77.5,45.5V46h-3v-0.5c0,0-4.242,0-5.5,0c-2.485,0-4.5-2.015-4.5-4.5 c0-2.333,1.782-4.229,4.055-4.455C68.533,36.364,68.5,36.187,68.5,36c0-2.485,2.015-4.5,4.5-4.5c1.438,0,2.703,0.686,3.527,1.736 C76.667,30.6,78.829,28.5,81.5,28.5c2.761,0,5,2.239,5,5c0,0.446-0.077,0.87-0.187,1.282c0.642-0.777,1.6-1.282,2.687-1.282 c1.781,0,3.234,1.335,3.455,3.055C92.636,36.533,92.813,36.5,93,36.5c2.485,0,4.5,2.015,4.5,4.5s-2.015,4.5-4.5,4.5s-9.5,0-9.5,0 H77.5z"/><path fill="#472b29" d="M81.5,28c3.033,0,5.5,2.467,5.5,5.5c0,0.016,0,0.031,0,0.047C87.602,33.192,88.29,33,89,33 c1.831,0,3.411,1.261,3.858,3.005C92.905,36.002,92.952,36,93,36c2.757,0,5,2.243,5,5s-2.243,5-5,5H77.5 c-0.276,0-0.5-0.224-0.5-0.5s0.224-0.5,0.5-0.5H93c2.206,0,4-1.794,4-4s-1.794-4-4-4c-0.117,0-0.23,0.017-0.343,0.032 l-0.141,0.019c-0.021,0.003-0.041,0.004-0.062,0.004c-0.246,0-0.462-0.185-0.495-0.437C91.768,35.125,90.496,34,89,34 c-0.885,0-1.723,0.401-2.301,1.1c-0.098,0.118-0.241,0.182-0.386,0.182c-0.078,0-0.156-0.018-0.228-0.056 c-0.209-0.107-0.314-0.346-0.254-0.573C85.946,34.218,86,33.852,86,33.5c0-2.481-2.019-4.5-4.5-4.5 c-2.381,0-4.347,1.872-4.474,4.263c-0.011,0.208-0.15,0.387-0.349,0.45c-0.05,0.016-0.101,0.024-0.152,0.024 c-0.15,0-0.296-0.069-0.392-0.192C75.362,32.563,74.221,32,73,32c-2.206,0-4,1.794-4,4c0,0.117,0.017,0.23,0.032,0.343 l0.019,0.141c0.016,0.134-0.022,0.268-0.106,0.373c-0.084,0.105-0.207,0.172-0.34,0.185C66.549,37.247,65,38.949,65,41 c0,2.206,1.794,4,4,4h5.5c0.276,0,0.5,0.224,0.5,0.5S74.776,46,74.5,46H69c-2.757,0-5-2.243-5-5c0-2.397,1.689-4.413,4.003-4.877 C68.001,36.082,68,36.041,68,36c0-2.757,2.243-5,5-5c1.176,0,2.293,0.416,3.183,1.164C76.781,29.76,78.945,28,81.5,28L81.5,28z"/><path fill="#472b29" d="M83,35c1.403,0,2.609,0.999,2.913,2.341C86.28,37.119,86.699,37,87.125,37 c1.202,0,2.198,0.897,2.353,2.068C89.681,39.022,89.874,39,90.063,39c1.529,0,2.811,1.2,2.918,2.732 C92.99,41.87,92.886,41.99,92.749,42c-0.006,0-0.012,0-0.018,0c-0.13,0-0.24-0.101-0.249-0.232 c-0.089-1.271-1.151-2.268-2.419-2.268c-0.229,0-0.47,0.042-0.738,0.127c-0.022,0.007-0.045,0.01-0.067,0.01 c-0.055,0-0.11-0.02-0.156-0.054C89.038,39.537,89,39.455,89,39.375c0-1.034-0.841-1.875-1.875-1.875 c-0.447,0-0.885,0.168-1.231,0.473c-0.047,0.041-0.106,0.063-0.165,0.063c-0.032,0-0.063-0.006-0.093-0.019 c-0.088-0.035-0.148-0.117-0.155-0.212C85.377,36.512,84.288,35.5,83,35.5c-0.208,0-0.425,0.034-0.682,0.107 c-0.023,0.007-0.047,0.01-0.07,0.01c-0.109,0-0.207-0.073-0.239-0.182c-0.038-0.133,0.039-0.271,0.172-0.309 C82.483,35.04,82.744,35,83,35L83,35z"/><path fill="#472b29" d="M69.117,36.5c1.326,0,2.508,0.897,2.874,2.182c0.038,0.133-0.039,0.271-0.172,0.309 C71.795,38.997,71.772,39,71.75,39c-0.109,0-0.209-0.072-0.24-0.182C71.205,37.748,70.221,37,69.117,37 c-0.117,0-0.23,0.014-0.342,0.029c-0.012,0.002-0.023,0.003-0.035,0.003c-0.121,0-0.229-0.092-0.246-0.217 c-0.019-0.137,0.077-0.263,0.214-0.281C68.842,36.516,68.978,36.5,69.117,36.5L69.117,36.5z"/><path fill="#fff" d="M31.5,81h-10c-0.276,0-0.5-0.224-0.5-0.5s0.224-0.5,0.5-0.5h10c0.276,0,0.5,0.224,0.5,0.5 S31.777,81,31.5,81z"/><path fill="#fff" d="M34.5,81h-1c-0.276,0-0.5-0.224-0.5-0.5s0.224-0.5,0.5-0.5h1c0.276,0,0.5,0.224,0.5,0.5 S34.777,81,34.5,81z"/><path fill="#fff" d="M39.491,83H30.5c-0.276,0-0.5-0.224-0.5-0.5s0.224-0.5,0.5-0.5h8.991c0.276,0,0.5,0.224,0.5,0.5 S39.767,83,39.491,83z"/><path fill="#fff" d="M28.5,83h-1c-0.276,0-0.5-0.224-0.5-0.5s0.224-0.5,0.5-0.5h1c0.276,0,0.5,0.224,0.5,0.5 S28.777,83,28.5,83z"/><path fill="#fff" d="M25.5,83h-2c-0.276,0-0.5-0.224-0.5-0.5s0.224-0.5,0.5-0.5h2c0.276,0,0.5,0.224,0.5,0.5 S25.777,83,25.5,83z"/><path fill="#fff" d="M31.5,85h-2c-0.276,0-0.5-0.224-0.5-0.5s0.224-0.5,0.5-0.5h2c0.276,0,0.5,0.224,0.5,0.5 S31.776,85,31.5,85z"/><path fill="#fff" d="M34.5,76c-0.177,0-0.823,0-1,0c-0.276,0-0.5,0.224-0.5,0.5c0,0.276,0.224,0.5,0.5,0.5 c0.177,0,0.823,0,1,0c0.276,0,0.5-0.224,0.5-0.5C35,76.224,34.776,76,34.5,76z"/><path fill="#fff" d="M34.5,78c-0.177,0-4.823,0-5,0c-0.276,0-0.5,0.224-0.5,0.5c0,0.276,0.224,0.5,0.5,0.5 c0.177,0,4.823,0,5,0c0.276,0,0.5-0.224,0.5-0.5C35,78.224,34.776,78,34.5,78z"/><path fill="#fff" d="M39.5,80c-0.177,0-2.823,0-3,0c-0.276,0-0.5,0.224-0.5,0.5c0,0.276,0.224,0.5,0.5,0.5 c0.177,0,2.823,0,3,0c0.276,0,0.5-0.224,0.5-0.5C40,80.224,39.776,80,39.5,80z"/><g><path fill="#fff" d="M69.5,21h-10c-0.276,0-0.5-0.224-0.5-0.5s0.224-0.5,0.5-0.5h10c0.276,0,0.5,0.224,0.5,0.5 S69.776,21,69.5,21z"/><path fill="#fff" d="M73.5,21h-2c-0.276,0-0.5-0.224-0.5-0.5s0.224-0.5,0.5-0.5h2c0.276,0,0.5,0.224,0.5,0.5 S73.776,21,73.5,21z"/><path fill="#fff" d="M78.5,23h-10c-0.276,0-0.5-0.224-0.5-0.5s0.224-0.5,0.5-0.5h10c0.276,0,0.5,0.224,0.5,0.5 S78.777,23,78.5,23z"/><path fill="#fff" d="M66.5,23h-1c-0.276,0-0.5-0.224-0.5-0.5s0.224-0.5,0.5-0.5h1c0.276,0,0.5,0.224,0.5,0.5 S66.776,23,66.5,23z"/><path fill="#fff" d="M63.47,23H61.5c-0.276,0-0.5-0.224-0.5-0.5s0.224-0.5,0.5-0.5h1.97c0.276,0,0.5,0.224,0.5,0.5 S63.746,23,63.47,23z"/><path fill="#fff" d="M72.5,19h-5c-0.276,0-0.5-0.224-0.5-0.5s0.224-0.5,0.5-0.5h5c0.276,0,0.5,0.224,0.5,0.5 S72.777,19,72.5,19z"/><path fill="#fff" d="M69.5,25h-2c-0.276,0-0.5-0.224-0.5-0.5s0.224-0.5,0.5-0.5h2c0.276,0,0.5,0.224,0.5,0.5 S69.776,25,69.5,25z"/></g><g><path fill="#a2b3cb" d="M35.562,74.3c-2.682,0-4.862-2.181-4.862-4.862V38.563c0-2.681,2.181-4.862,4.862-4.862h34.875 c2.682,0,4.862,2.181,4.862,4.862v30.875c0,2.681-2.181,4.862-4.862,4.862H35.562z"/><path fill="#472b29" d="M70.437,34.4c2.295,0,4.162,1.867,4.162,4.163v30.875c0,2.295-1.867,4.163-4.162,4.163H35.562 c-2.295,0-4.162-1.867-4.162-4.163V38.563c0-2.295,1.867-4.163,4.162-4.163H70.437 M70.437,33H35.562 C32.49,33,30,35.49,30,38.563v30.875C30,72.51,32.49,75,35.562,75h34.875C73.51,75,76,72.51,76,69.438V38.563 C76,35.49,73.51,33,70.437,33L70.437,33z"/><path fill="#fdfcef" d="M60.5,65.875c0-1.312,1.063-2.375,2.375-2.375H71.5V39.022c0-0.84-0.681-1.522-1.522-1.522H36.022 c-0.84,0-1.522,0.681-1.522,1.522v29.957c0,0.84,0.681,1.522,1.522,1.522H60.5V65.875z"/><path fill="#472b29" d="M60.625,38H46.25c-0.276,0-0.5-0.224-0.5-0.5s0.224-0.5,0.5-0.5h14.375c0.276,0,0.5,0.224,0.5,0.5 S60.901,38,60.625,38z"/><path fill="#472b29" d="M60.5,71H45.25c-0.276,0-0.5-0.224-0.5-0.5s0.224-0.5,0.5-0.5H60v-4.125 C60,64.29,61.29,63,62.875,63H71V39.022C71,38.458,70.542,38,69.979,38h-5.604c-0.276,0-0.5-0.224-0.5-0.5s0.224-0.5,0.5-0.5 h5.604C71.093,37,72,37.907,72,39.022V63.5c0,0.276-0.224,0.5-0.5,0.5h-8.625C61.841,64,61,64.841,61,65.875V70.5 C61,70.776,60.776,71,60.5,71z"/><path fill="#472b29" d="M41.5,71h-5.479C34.907,71,34,70.093,34,68.978V39.022C34,37.907,34.907,37,36.021,37h1.229 c0.276,0,0.5,0.224,0.5,0.5s-0.224,0.5-0.5,0.5h-1.229C35.458,38,35,38.458,35,39.022v29.957C35,69.542,35.458,70,36.021,70H41.5 c0.276,0,0.5,0.224,0.5,0.5S41.776,71,41.5,71z"/><rect width="8" height="3" x="63.5" y="66.5" fill="#d1dc82"/><path fill="#472b29" d="M71.5,70h-8c-0.276,0-0.5-0.224-0.5-0.5v-3c0-0.276,0.224-0.5,0.5-0.5h8c0.276,0,0.5,0.224,0.5,0.5 v3C72,69.776,71.776,70,71.5,70z M64,69h7v-2h-7V69z"/><polygon fill="#f4989e" points="53.5,64 44.5,59 44.5,48 53.5,53"/><path fill="#472b29" d="M53.5,64.5c-0.084,0-0.167-0.021-0.243-0.063l-9-5C44.099,59.349,44,59.182,44,59V48 c0-0.177,0.094-0.341,0.246-0.431c0.152-0.09,0.341-0.092,0.497-0.006l9,5C53.901,52.651,54,52.818,54,53v11 c0,0.177-0.094,0.341-0.246,0.431C53.676,64.477,53.588,64.5,53.5,64.5z M45,58.706l8,4.444v-9.856l-8-4.444V58.706z"/><polygon fill="#ee3e54" points="53.5,64 62.5,59 62.5,48 53.5,53"/><path fill="#472b29" d="M53.5,64.5c-0.088,0-0.176-0.023-0.254-0.069C53.094,64.341,53,64.177,53,64V53 c0-0.182,0.099-0.349,0.257-0.437l9-5c0.156-0.086,0.345-0.084,0.497,0.006C62.906,47.659,63,47.823,63,48v11 c0,0.182-0.099,0.349-0.257,0.437l-9,5C53.667,64.479,53.584,64.5,53.5,64.5z M54,53.294v9.856l8-4.444V48.85L54,53.294z"/><g><polygon fill="#f4989e" points="44.625,48 53.563,53 62.5,48 53.5,43.5"/><path fill="#472b29" d="M53.563,53.5c-0.084,0-0.168-0.021-0.244-0.064l-8.938-5c-0.161-0.09-0.26-0.262-0.256-0.447 c0.004-0.185,0.109-0.352,0.273-0.436l8.875-4.5c0.142-0.072,0.309-0.072,0.45-0.001l9,4.5c0.166,0.083,0.271,0.25,0.276,0.436 c0.004,0.185-0.095,0.358-0.256,0.448l-8.938,5C53.73,53.479,53.646,53.5,53.563,53.5z M45.688,48.022l7.875,4.405l7.869-4.402 l-7.93-3.965L45.688,48.022z"/></g><g><path fill="#472b29" d="M71.811,34.463l-22-9c-1.382-0.581-3.601-0.714-5.223,0.363C42.871,26.966,42,29.212,42,32.5h-1 c0-3.644,1.021-6.17,3.035-7.507c2.217-1.473,4.914-0.978,6.159-0.454l21.995,8.998L71.811,34.463z"/></g><g><path fill="#472b29" d="M41.5,45c-0.276,0-0.5-0.224-0.5-0.5v-12c0-0.276,0.224-0.5,0.5-0.5s0.5,0.224,0.5,0.5v12 C42,44.776,41.776,45,41.5,45z"/></g><g><path fill="#f4989e" d="M42.844,43h-2.688C39.518,43,39,42.482,39,41.844v-9.688C39,31.518,39.518,31,40.156,31h2.688 C43.482,31,44,31.518,44,32.156v9.688C44,42.482,43.482,43,42.844,43z"/><path fill="#472b29" d="M42.844,43.5h-2.688c-0.913,0-1.656-0.743-1.656-1.656v-9.688c0-0.913,0.743-1.656,1.656-1.656 h2.688c0.913,0,1.656,0.743,1.656,1.656v9.688C44.5,42.757,43.757,43.5,42.844,43.5z M40.156,31.5 c-0.362,0-0.656,0.294-0.656,0.656v9.688c0,0.362,0.294,0.656,0.656,0.656h2.688c0.362,0,0.656-0.294,0.656-0.656v-9.688 c0-0.362-0.294-0.656-0.656-0.656H40.156z"/></g></g><g><path fill="#fdfcef" d="M18.5,66.5c0,0-1.567,0-3.5,0s-3.5-1.567-3.5-3.5c0-1.781,1.335-3.234,3.055-3.455 C14.527,59.366,14.5,59.187,14.5,59c0-1.933,1.567-3.5,3.5-3.5c1.032,0,1.95,0.455,2.59,1.165c0.384-1.808,1.987-3.165,3.91-3.165 c2.209,0,4,1.791,4,4c0,0.191-0.03,0.374-0.056,0.558C28.872,57.714,29.408,57.5,30,57.5c1.228,0,2.245,0.887,2.455,2.055 C32.634,59.527,32.813,59.5,33,59.5c1.933,0,3.5,1.567,3.5,3.5s-1.567,3.5-3.5,3.5s-7.5,0-7.5,0V67h-7V66.5z"/><path fill="#472b29" d="M16.75,62c0.138,0,0.25-0.112,0.25-0.25c0-1.223-0.995-2.218-2.218-2.218 c-0.034,0.009-0.737-0.001-1.244,0.136c-0.133,0.036-0.212,0.173-0.176,0.306c0.036,0.134,0.173,0.213,0.306,0.176 c0.444-0.12,1.1-0.12,1.113-0.118c0.948,0,1.719,0.771,1.719,1.718C16.5,61.888,16.612,62,16.75,62z"/><circle cx="23.5" cy="66.5" r=".5" fill="#472b29"/><path fill="#472b29" d="M15,67h3.5c0.276,0,0.5-0.224,0.5-0.5S18.776,66,18.5,66H15c-1.654,0-3-1.346-3-3 c0-1.496,1.125-2.768,2.618-2.959c0.134-0.018,0.255-0.088,0.336-0.196s0.115-0.244,0.094-0.377C15.025,59.314,15,59.16,15,59 c0-1.654,1.346-3,3-3c0.85,0,1.638,0.355,2.219,1c0.125,0.139,0.321,0.198,0.5,0.148c0.182-0.049,0.321-0.195,0.36-0.379 C21.42,55.165,22.859,54,24.5,54c1.93,0,3.5,1.57,3.5,3.5c0,0.143-0.021,0.28-0.041,0.418c-0.029,0.203,0.063,0.438,0.242,0.54 c0.179,0.102,0.396,0.118,0.556-0.01C29.122,58.155,29.551,58,30,58c0.966,0,1.792,0.691,1.963,1.644 c0.048,0.267,0.296,0.446,0.569,0.405C32.686,60.025,32.84,60,33,60c1.654,0,3,1.346,3,3s-1.346,3-3,3h-7.5 c-0.276,0-0.5,0.224-0.5,0.5s0.224,0.5,0.5,0.5H33c2.206,0,4-1.794,4-4s-1.794-4-4-4c-0.059,0-0.116,0.002-0.174,0.006 C32.412,57.82,31.289,57,30,57c-0.349,0-0.689,0.061-1.011,0.18C28.824,54.847,26.874,53,24.5,53 c-1.831,0-3.466,1.127-4.153,2.774C19.667,55.276,18.845,55,18,55c-2.206,0-4,1.794-4,4c0,0.048,0.001,0.095,0.004,0.142 C12.261,59.59,11,61.169,11,63C11,65.206,12.794,67,15,67z"/><path fill="#472b29" d="M20.5,66c0.159,0,0.841,0,1,0c0.276,0,0.5,0.224,0.5,0.5c0,0.276-0.224,0.5-0.5,0.5 c-0.159,0-0.841,0-1,0c-0.276,0-0.5-0.224-0.5-0.5C20,66.224,20.224,66,20.5,66z"/></g></svg>