<svg fill="#000000" xmlns="http://www.w3.org/2000/svg" viewBox="0 0 32 32" width="500px" height="500px"><path d="M 16 3 C 15.722656 3 15.5 3.222656 15.5 3.5 C 15.5 3.777344 15.722656 4 16 4 C 16.277344 4 16.5 3.777344 16.5 3.5 C 16.5 3.222656 16.277344 3 16 3 Z M 13.46875 3.25 C 13.199219 3.304688 13.007813 3.574219 13.0625 3.84375 C 13.117188 4.113281 13.386719 4.273438 13.65625 4.21875 C 13.925781 4.164063 14.117188 3.925781 14.0625 3.65625 C 14.007813 3.386719 13.738281 3.195313 13.46875 3.25 Z M 18.34375 3.25 C 18.152344 3.289063 17.976563 3.453125 17.9375 3.65625 C 17.882813 3.925781 18.074219 4.164063 18.34375 4.21875 C 18.613281 4.273438 18.882813 4.113281 18.9375 3.84375 C 18.992188 3.574219 18.800781 3.304688 18.53125 3.25 C 18.464844 3.238281 18.40625 3.238281 18.34375 3.25 Z M 11.21875 3.9375 C 11.152344 3.9375 11.09375 3.972656 11.03125 4 C 10.777344 4.105469 10.644531 4.402344 10.75 4.65625 C 10.855469 4.910156 11.152344 5.011719 11.40625 4.90625 C 11.660156 4.800781 11.792969 4.503906 11.6875 4.25 C 11.609375 4.058594 11.414063 3.9375 11.21875 3.9375 Z M 20.78125 3.9375 C 20.585938 3.9375 20.390625 4.058594 20.3125 4.25 C 20.207031 4.503906 20.339844 4.800781 20.59375 4.90625 C 20.847656 5.011719 21.144531 4.910156 21.25 4.65625 C 21.355469 4.402344 21.222656 4.105469 20.96875 4 C 20.90625 3.972656 20.847656 3.9375 20.78125 3.9375 Z M 8.96875 5.125 C 8.90625 5.136719 8.839844 5.148438 8.78125 5.1875 C 8.550781 5.339844 8.472656 5.644531 8.625 5.875 C 8.777344 6.105469 9.113281 6.183594 9.34375 6.03125 C 9.574219 5.878906 9.621094 5.574219 9.46875 5.34375 C 9.355469 5.171875 9.160156 5.089844 8.96875 5.125 Z M 22.84375 5.125 C 22.71875 5.148438 22.609375 5.199219 22.53125 5.3125 C 22.378906 5.542969 22.425781 5.878906 22.65625 6.03125 C 22.886719 6.183594 23.222656 6.105469 23.375 5.875 C 23.527344 5.644531 23.449219 5.339844 23.21875 5.1875 C 23.105469 5.109375 22.96875 5.101563 22.84375 5.125 Z M 7.15625 6.65625 C 7.027344 6.65625 6.910156 6.714844 6.8125 6.8125 C 6.617188 7.007813 6.617188 7.304688 6.8125 7.5 C 7.007813 7.695313 7.304688 7.695313 7.5 7.5 C 7.695313 7.304688 7.695313 7.007813 7.5 6.8125 C 7.402344 6.714844 7.285156 6.65625 7.15625 6.65625 Z M 24.84375 6.65625 C 24.714844 6.65625 24.597656 6.714844 24.5 6.8125 C 24.304688 7.007813 24.304688 7.304688 24.5 7.5 C 24.695313 7.695313 24.992188 7.695313 25.1875 7.5 C 25.382813 7.304688 25.382813 7.007813 25.1875 6.8125 C 25.089844 6.714844 24.972656 6.65625 24.84375 6.65625 Z M 16 7 C 11.035156 7 7 11.035156 7 16 C 7 20.964844 11.035156 25 16 25 C 20.964844 25 25 20.964844 25 16 C 25 11.035156 20.964844 7 16 7 Z M 16 8 C 20.425781 8 24 11.574219 24 16 C 24 20.425781 20.425781 24 16 24 C 11.574219 24 8 20.425781 8 16 C 8 11.574219 11.574219 8 16 8 Z M 5.5 8.5625 C 5.375 8.585938 5.265625 8.667969 5.1875 8.78125 C 5.035156 9.011719 5.113281 9.316406 5.34375 9.46875 C 5.574219 9.621094 5.878906 9.574219 6.03125 9.34375 C 6.183594 9.113281 6.105469 8.777344 5.875 8.625 C 5.761719 8.546875 5.625 8.539063 5.5 8.5625 Z M 26.3125 8.5625 C 26.25 8.574219 26.183594 8.585938 26.125 8.625 C 25.894531 8.777344 25.816406 9.113281 25.96875 9.34375 C 26.121094 9.574219 26.425781 9.621094 26.65625 9.46875 C 26.886719 9.316406 26.964844 9.011719 26.8125 8.78125 C 26.699219 8.609375 26.503906 8.527344 26.3125 8.5625 Z M 4.4375 10.71875 C 4.242188 10.71875 4.078125 10.839844 4 11.03125 C 3.894531 11.285156 3.996094 11.582031 4.25 11.6875 C 4.503906 11.792969 4.800781 11.660156 4.90625 11.40625 C 5.011719 11.152344 4.910156 10.855469 4.65625 10.75 C 4.59375 10.722656 4.503906 10.71875 4.4375 10.71875 Z M 27.5625 10.71875 C 27.496094 10.71875 27.40625 10.722656 27.34375 10.75 C 27.089844 10.855469 26.988281 11.152344 27.09375 11.40625 C 27.199219 11.660156 27.496094 11.792969 27.75 11.6875 C 28.003906 11.582031 28.105469 11.285156 28 11.03125 C 27.921875 10.839844 27.757813 10.71875 27.5625 10.71875 Z M 16 11 C 13.257813 11 11 13.257813 11 16 C 11 18.742188 13.257813 21 16 21 C 18.742188 21 21 18.742188 21 16 C 21 13.257813 18.742188 11 16 11 Z M 3.625 13.0625 C 3.433594 13.101563 3.289063 13.265625 3.25 13.46875 C 3.195313 13.738281 3.386719 14.007813 3.65625 14.0625 C 3.925781 14.117188 4.164063 13.925781 4.21875 13.65625 C 4.273438 13.386719 4.113281 13.117188 3.84375 13.0625 C 3.777344 13.050781 3.6875 13.050781 3.625 13.0625 Z M 28.15625 13.0625 C 27.886719 13.117188 27.726563 13.386719 27.78125 13.65625 C 27.835938 13.925781 28.074219 14.117188 28.34375 14.0625 C 28.613281 14.007813 28.804688 13.738281 28.75 13.46875 C 28.695313 13.199219 28.425781 13.007813 28.15625 13.0625 Z M 16 14 C 17.121094 14 18 14.878906 18 16 C 18 17.121094 17.121094 18 16 18 C 14.878906 18 14 17.121094 14 16 C 14 14.878906 14.878906 14 16 14 Z M 3.5 15.5 C 3.222656 15.5 3 15.722656 3 16 C 3 16.277344 3.222656 16.5 3.5 16.5 C 3.777344 16.5 4 16.277344 4 16 C 4 15.722656 3.777344 15.5 3.5 15.5 Z M 28.5 15.5 C 28.222656 15.5 28 15.722656 28 16 C 28 16.277344 28.222656 16.5 28.5 16.5 C 28.777344 16.5 29 16.277344 29 16 C 29 15.722656 28.777344 15.5 28.5 15.5 Z M 3.65625 17.9375 C 3.386719 17.992188 3.195313 18.261719 3.25 18.53125 C 3.304688 18.800781 3.574219 18.992188 3.84375 18.9375 C 4.113281 18.882813 4.273438 18.613281 4.21875 18.34375 C 4.164063 18.074219 3.925781 17.882813 3.65625 17.9375 Z M 28.15625 17.9375 C 27.964844 17.976563 27.820313 18.140625 27.78125 18.34375 C 27.726563 18.613281 27.886719 18.882813 28.15625 18.9375 C 28.425781 18.992188 28.695313 18.800781 28.75 18.53125 C 28.804688 18.261719 28.613281 17.992188 28.34375 17.9375 C 28.277344 17.925781 28.21875 17.925781 28.15625 17.9375 Z M 4.46875 20.28125 C 4.402344 20.28125 4.3125 20.285156 4.25 20.3125 C 3.996094 20.417969 3.894531 20.714844 4 20.96875 C 4.105469 21.222656 4.402344 21.355469 4.65625 21.25 C 4.910156 21.144531 5.011719 20.847656 4.90625 20.59375 C 4.828125 20.402344 4.664063 20.28125 4.46875 20.28125 Z M 27.53125 20.28125 C 27.335938 20.28125 27.171875 20.402344 27.09375 20.59375 C 26.988281 20.847656 27.089844 21.144531 27.34375 21.25 C 27.597656 21.355469 27.894531 21.222656 28 20.96875 C 28.105469 20.714844 28.003906 20.417969 27.75 20.3125 C 27.6875 20.285156 27.597656 20.28125 27.53125 20.28125 Z M 5.5 22.4375 C 5.4375 22.449219 5.402344 22.492188 5.34375 22.53125 C 5.113281 22.683594 5.035156 22.988281 5.1875 23.21875 C 5.339844 23.449219 5.644531 23.527344 5.875 23.375 C 6.105469 23.222656 6.183594 22.886719 6.03125 22.65625 C 5.917969 22.484375 5.691406 22.402344 5.5 22.4375 Z M 26.28125 22.46875 C 26.15625 22.492188 26.046875 22.542969 25.96875 22.65625 C 25.816406 22.886719 25.894531 23.222656 26.125 23.375 C 26.355469 23.527344 26.660156 23.449219 26.8125 23.21875 C 26.964844 22.988281 26.886719 22.683594 26.65625 22.53125 C 26.542969 22.453125 26.40625 22.445313 26.28125 22.46875 Z M 7.15625 24.34375 C 7.027344 24.34375 6.910156 24.402344 6.8125 24.5 C 6.617188 24.695313 6.617188 24.992188 6.8125 25.1875 C 7.007813 25.382813 7.304688 25.382813 7.5 25.1875 C 7.695313 24.992188 7.695313 24.695313 7.5 24.5 C 7.402344 24.402344 7.285156 24.34375 7.15625 24.34375 Z M 24.84375 24.34375 C 24.714844 24.34375 24.597656 24.402344 24.5 24.5 C 24.304688 24.695313 24.304688 24.992188 24.5 25.1875 C 24.695313 25.382813 24.992188 25.382813 25.1875 25.1875 C 25.382813 24.992188 25.382813 24.695313 25.1875 24.5 C 25.089844 24.402344 24.972656 24.34375 24.84375 24.34375 Z M 8.96875 25.90625 C 8.84375 25.929688 8.703125 26.011719 8.625 26.125 C 8.472656 26.355469 8.550781 26.660156 8.78125 26.8125 C 9.011719 26.964844 9.316406 26.886719 9.46875 26.65625 C 9.621094 26.425781 9.574219 26.121094 9.34375 25.96875 C 9.230469 25.890625 9.09375 25.882813 8.96875 25.90625 Z M 22.84375 25.90625 C 22.78125 25.917969 22.714844 25.929688 22.65625 25.96875 C 22.425781 26.121094 22.378906 26.425781 22.53125 26.65625 C 22.683594 26.886719 22.988281 26.964844 23.21875 26.8125 C 23.449219 26.660156 23.527344 26.355469 23.375 26.125 C 23.261719 25.953125 23.035156 25.871094 22.84375 25.90625 Z M 11.21875 27.0625 C 11.023438 27.0625 10.828125 27.152344 10.75 27.34375 C 10.644531 27.597656 10.777344 27.894531 11.03125 28 C 11.285156 28.105469 11.582031 28.003906 11.6875 27.75 C 11.792969 27.496094 11.660156 27.199219 11.40625 27.09375 C 11.34375 27.066406 11.285156 27.0625 11.21875 27.0625 Z M 20.78125 27.0625 C 20.714844 27.0625 20.65625 27.066406 20.59375 27.09375 C 20.339844 27.199219 20.207031 27.496094 20.3125 27.75 C 20.417969 28.003906 20.714844 28.105469 20.96875 28 C 21.222656 27.894531 21.355469 27.597656 21.25 27.34375 C 21.171875 27.152344 20.976563 27.0625 20.78125 27.0625 Z M 13.46875 27.78125 C 13.277344 27.820313 13.101563 27.953125 13.0625 28.15625 C 13.007813 28.425781 13.199219 28.695313 13.46875 28.75 C 13.738281 28.804688 14.007813 28.613281 14.0625 28.34375 C 14.117188 28.074219 13.925781 27.835938 13.65625 27.78125 C 13.589844 27.769531 13.53125 27.769531 13.46875 27.78125 Z M 18.34375 27.78125 C 18.074219 27.835938 17.882813 28.074219 17.9375 28.34375 C 17.992188 28.613281 18.261719 28.804688 18.53125 28.75 C 18.800781 28.695313 18.992188 28.425781 18.9375 28.15625 C 18.882813 27.886719 18.613281 27.726563 18.34375 27.78125 Z M 16 28 C 15.722656 28 15.5 28.222656 15.5 28.5 C 15.5 28.777344 15.722656 29 16 29 C 16.277344 29 16.5 28.777344 16.5 28.5 C 16.5 28.222656 16.277344 28 16 28 Z"/></svg>