<svg fill="#000000" xmlns="http://www.w3.org/2000/svg" viewBox="0 0 80 80" width="100px" height="100px"><path d="M 39.992188 7 C 39.441406 7 38.992188 7.449219 38.992188 8 C 38.992188 8.550781 39.441406 9 39.992188 9 C 40.542969 9 40.992188 8.550781 40.992188 8 C 40.992188 7.449219 40.542969 7 39.992188 7 Z M 33.753906 7.617188 C 33.6875 7.613281 33.621094 7.621094 33.554688 7.632813 C 33.011719 7.742188 32.660156 8.269531 32.769531 8.8125 C 32.878906 9.351563 33.402344 9.703125 33.945313 9.59375 C 34.488281 9.488281 34.839844 8.960938 34.730469 8.421875 C 34.636719 7.953125 34.230469 7.617188 33.753906 7.617188 Z M 46.261719 7.617188 C 45.773438 7.601563 45.351563 7.941406 45.253906 8.421875 C 45.148438 8.960938 45.5 9.488281 46.042969 9.59375 C 46.300781 9.648438 46.570313 9.59375 46.792969 9.445313 C 47.011719 9.296875 47.164063 9.070313 47.21875 8.808594 C 47.324219 8.265625 46.972656 7.742188 46.433594 7.632813 C 46.375 7.621094 46.320313 7.617188 46.261719 7.617188 Z M 27.753906 9.4375 C 27.621094 9.433594 27.488281 9.460938 27.363281 9.511719 C 26.851563 9.722656 26.609375 10.308594 26.824219 10.816406 C 27.035156 11.328125 27.617188 11.570313 28.128906 11.359375 C 28.640625 11.148438 28.882813 10.5625 28.671875 10.050781 C 28.515625 9.683594 28.15625 9.4375 27.753906 9.4375 Z M 52.261719 9.4375 C 51.847656 9.425781 51.472656 9.671875 51.3125 10.050781 C 51.105469 10.5625 51.347656 11.148438 51.859375 11.359375 C 52.367188 11.570313 52.953125 11.328125 53.164063 10.816406 C 53.265625 10.570313 53.265625 10.296875 53.164063 10.050781 C 53.0625 9.804688 52.867188 9.609375 52.621094 9.507813 C 52.507813 9.464844 52.386719 9.4375 52.261719 9.4375 Z M 22.226563 12.390625 C 22.023438 12.390625 21.828125 12.449219 21.660156 12.5625 C 21.203125 12.867188 21.078125 13.488281 21.386719 13.949219 C 21.691406 14.40625 22.3125 14.53125 22.769531 14.222656 C 22.992188 14.078125 23.144531 13.847656 23.195313 13.585938 C 23.25 13.328125 23.195313 13.054688 23.046875 12.835938 C 22.863281 12.5625 22.554688 12.394531 22.226563 12.390625 Z M 57.789063 12.390625 C 57.449219 12.386719 57.128906 12.554688 56.9375 12.835938 C 56.632813 13.296875 56.757813 13.914063 57.214844 14.222656 C 57.433594 14.371094 57.707031 14.425781 57.964844 14.371094 C 58.226563 14.320313 58.457031 14.167969 58.605469 13.949219 C 58.910156 13.488281 58.785156 12.867188 58.328125 12.5625 C 58.167969 12.453125 57.980469 12.394531 57.789063 12.390625 Z M 40 14 C 25.652344 14 14 25.652344 14 40 C 14 54.347656 25.652344 66 40 66 C 54.347656 66 66 54.347656 66 40 C 66 25.652344 54.347656 14 40 14 Z M 40 16 C 53.265625 16 64 26.734375 64 40 C 64 53.265625 53.265625 64 40 64 C 26.734375 64 16 53.265625 16 40 C 16 26.734375 26.734375 16 40 16 Z M 17.378906 16.375 C 17.109375 16.367188 16.847656 16.472656 16.65625 16.667969 C 16.269531 17.054688 16.269531 17.691406 16.65625 18.078125 C 17.046875 18.46875 17.683594 18.46875 18.074219 18.078125 C 18.460938 17.691406 18.460938 17.054688 18.074219 16.667969 C 17.886719 16.480469 17.640625 16.378906 17.378906 16.375 Z M 62.636719 16.375 C 62.363281 16.371094 62.105469 16.476563 61.914063 16.667969 C 61.523438 17.054688 61.523438 17.691406 61.914063 18.078125 C 62.304688 18.46875 62.9375 18.46875 63.328125 18.078125 C 63.71875 17.691406 63.71875 17.054688 63.328125 16.667969 C 63.144531 16.480469 62.894531 16.375 62.636719 16.375 Z M 66.609375 21.21875 C 66.410156 21.21875 66.210938 21.277344 66.046875 21.390625 C 65.585938 21.695313 65.460938 22.316406 65.769531 22.777344 C 66.078125 23.234375 66.695313 23.359375 67.15625 23.050781 C 67.613281 22.742188 67.738281 22.125 67.433594 21.664063 C 67.25 21.390625 66.941406 21.222656 66.609375 21.21875 Z M 13.40625 21.21875 C 13.066406 21.214844 12.746094 21.382813 12.558594 21.667969 C 12.25 22.125 12.375 22.746094 12.832031 23.050781 C 13.292969 23.359375 13.910156 23.234375 14.21875 22.777344 C 14.367188 22.558594 14.421875 22.285156 14.367188 22.027344 C 14.316406 21.765625 14.164063 21.535156 13.941406 21.390625 C 13.785156 21.28125 13.597656 21.222656 13.40625 21.21875 Z M 40 22 C 30.078125 22 22 30.078125 22 40 C 22 49.921875 30.078125 58 40 58 C 49.921875 58 58 49.921875 58 40 C 58 30.078125 49.921875 22 40 22 Z M 40 25 C 48.300781 25 55 31.699219 55 40 C 55 48.300781 48.300781 55 40 55 C 31.699219 55 25 48.300781 25 40 C 25 31.699219 31.699219 25 40 25 Z M 69.5625 26.75 C 69.429688 26.75 69.296875 26.777344 69.171875 26.828125 C 68.664063 27.039063 68.421875 27.625 68.632813 28.136719 C 68.84375 28.644531 69.429688 28.886719 69.9375 28.675781 C 70.449219 28.464844 70.691406 27.878906 70.480469 27.371094 C 70.328125 27 69.964844 26.753906 69.5625 26.75 Z M 10.453125 26.753906 C 10.039063 26.746094 9.664063 26.988281 9.507813 27.371094 C 9.292969 27.882813 9.535156 28.464844 10.046875 28.675781 C 10.558594 28.890625 11.140625 28.648438 11.355469 28.136719 C 11.566406 27.625 11.324219 27.042969 10.8125 26.828125 C 10.699219 26.78125 10.574219 26.757813 10.453125 26.753906 Z M 40 32 C 35.605469 32 32 35.605469 32 40 C 32 44.394531 35.605469 48 40 48 C 44.394531 48 48 44.394531 48 40 C 48 35.605469 44.394531 32 40 32 Z M 8.632813 32.757813 C 8.144531 32.746094 7.722656 33.085938 7.625 33.5625 C 7.519531 34.105469 7.871094 34.628906 8.414063 34.738281 C 8.671875 34.789063 8.941406 34.734375 9.164063 34.589844 C 9.382813 34.441406 9.535156 34.210938 9.585938 33.953125 C 9.695313 33.410156 9.34375 32.882813 8.804688 32.777344 C 8.746094 32.765625 8.691406 32.757813 8.632813 32.757813 Z M 71.382813 32.757813 C 71.316406 32.757813 71.25 32.761719 71.183594 32.777344 C 70.640625 32.882813 70.289063 33.410156 70.398438 33.953125 C 70.449219 34.210938 70.601563 34.441406 70.824219 34.589844 C 71.042969 34.734375 71.3125 34.789063 71.574219 34.738281 C 72.117188 34.628906 72.46875 34.105469 72.359375 33.5625 C 72.265625 33.097656 71.859375 32.761719 71.382813 32.757813 Z M 40 36 C 42.234375 36 44 37.765625 44 40 C 44 42.234375 42.234375 44 40 44 C 37.765625 44 36 42.234375 36 40 C 36 37.765625 37.765625 36 40 36 Z M 7.992188 39 C 7.441406 39 6.992188 39.449219 6.992188 40 C 6.992188 40.550781 7.441406 41 7.992188 41 C 8.542969 41 8.992188 40.550781 8.992188 40 C 8.992188 39.449219 8.542969 39 7.992188 39 Z M 71.992188 39 C 71.441406 39 70.992188 39.449219 70.992188 40 C 70.992188 40.550781 71.441406 41 71.992188 41 C 72.542969 41 72.992188 40.550781 72.992188 40 C 72.992188 39.449219 72.542969 39 71.992188 39 Z M 8.613281 45.246094 C 8.546875 45.242188 8.480469 45.25 8.414063 45.265625 C 8.152344 45.316406 7.925781 45.46875 7.777344 45.6875 C 7.628906 45.910156 7.574219 46.179688 7.625 46.4375 C 7.734375 46.980469 8.261719 47.332031 8.804688 47.222656 C 9.0625 47.171875 9.292969 47.019531 9.441406 46.800781 C 9.585938 46.578125 9.640625 46.308594 9.589844 46.046875 C 9.496094 45.582031 9.089844 45.246094 8.613281 45.246094 Z M 71.40625 45.246094 C 70.917969 45.230469 70.492188 45.570313 70.398438 46.046875 C 70.347656 46.308594 70.402344 46.578125 70.546875 46.800781 C 70.695313 47.019531 70.925781 47.171875 71.1875 47.222656 C 71.445313 47.277344 71.714844 47.222656 71.9375 47.074219 C 72.15625 46.925781 72.308594 46.699219 72.359375 46.4375 C 72.414063 46.175781 72.359375 45.90625 72.210938 45.6875 C 72.0625 45.464844 71.835938 45.3125 71.574219 45.261719 C 71.519531 45.25 71.460938 45.246094 71.40625 45.246094 Z M 69.578125 51.246094 C 69.167969 51.234375 68.789063 51.480469 68.632813 51.859375 C 68.421875 52.371094 68.664063 52.957031 69.171875 53.167969 C 69.683594 53.378906 70.269531 53.136719 70.480469 52.625 C 70.691406 52.117188 70.449219 51.53125 69.9375 51.320313 C 69.824219 51.273438 69.703125 51.246094 69.578125 51.246094 Z M 10.4375 51.246094 C 10.304688 51.246094 10.171875 51.269531 10.046875 51.324219 C 9.535156 51.535156 9.292969 52.117188 9.507813 52.628906 C 9.71875 53.140625 10.300781 53.382813 10.8125 53.171875 C 11.324219 52.957031 11.566406 52.375 11.355469 51.863281 C 11.199219 51.492188 10.839844 51.25 10.4375 51.246094 Z M 66.621094 56.777344 C 66.277344 56.769531 65.957031 56.9375 65.769531 57.21875 C 65.460938 57.679688 65.585938 58.300781 66.046875 58.609375 C 66.503906 58.914063 67.125 58.789063 67.433594 58.328125 C 67.738281 57.871094 67.613281 57.25 67.15625 56.941406 C 66.996094 56.835938 66.8125 56.777344 66.621094 56.777344 Z M 13.398438 56.777344 C 13.195313 56.773438 13 56.832031 12.832031 56.945313 C 12.375 57.253906 12.25 57.871094 12.558594 58.332031 C 12.863281 58.792969 13.484375 58.914063 13.941406 58.609375 C 14.164063 58.460938 14.316406 58.234375 14.367188 57.972656 C 14.421875 57.710938 14.367188 57.441406 14.21875 57.21875 C 14.035156 56.945313 13.726563 56.78125 13.398438 56.777344 Z M 17.378906 61.625 C 17.109375 61.625 16.847656 61.730469 16.65625 61.921875 C 16.269531 62.308594 16.269531 62.945313 16.65625 63.332031 C 17.046875 63.722656 17.683594 63.722656 18.074219 63.332031 C 18.460938 62.945313 18.460938 62.308594 18.074219 61.921875 C 17.886719 61.734375 17.640625 61.628906 17.378906 61.625 Z M 62.636719 61.625 C 62.363281 61.621094 62.101563 61.726563 61.910156 61.921875 C 61.523438 62.308594 61.523438 62.945313 61.910156 63.332031 C 62.300781 63.722656 62.9375 63.722656 63.328125 63.332031 C 63.714844 62.945313 63.714844 62.308594 63.328125 61.921875 C 63.140625 61.734375 62.894531 61.632813 62.636719 61.625 Z M 22.234375 65.605469 C 21.894531 65.597656 21.574219 65.765625 21.386719 66.046875 C 21.238281 66.269531 21.183594 66.539063 21.234375 66.800781 C 21.285156 67.0625 21.4375 67.289063 21.660156 67.4375 C 22.121094 67.742188 22.742188 67.621094 23.046875 67.160156 C 23.355469 66.699219 23.230469 66.082031 22.769531 65.773438 C 22.613281 65.667969 22.425781 65.609375 22.234375 65.605469 Z M 57.78125 65.605469 C 57.582031 65.601563 57.382813 65.660156 57.21875 65.773438 C 56.757813 66.082031 56.632813 66.699219 56.941406 67.160156 C 57.25 67.617188 57.867188 67.742188 58.328125 67.4375 C 58.785156 67.128906 58.910156 66.507813 58.605469 66.046875 C 58.421875 65.773438 58.113281 65.609375 57.78125 65.605469 Z M 52.25 68.5625 C 52.113281 68.5625 51.980469 68.585938 51.859375 68.640625 C 51.347656 68.851563 51.105469 69.433594 51.316406 69.945313 C 51.527344 70.457031 52.113281 70.699219 52.625 70.484375 C 53.132813 70.273438 53.375 69.691406 53.164063 69.179688 C 53.011719 68.808594 52.648438 68.566406 52.25 68.5625 Z M 27.769531 68.5625 C 27.355469 68.554688 26.980469 68.800781 26.824219 69.183594 C 26.613281 69.691406 26.855469 70.273438 27.363281 70.484375 C 27.875 70.699219 28.460938 70.457031 28.671875 69.945313 C 28.882813 69.433594 28.640625 68.851563 28.128906 68.640625 C 28.015625 68.589844 27.894531 68.566406 27.769531 68.5625 Z M 33.777344 70.386719 C 33.289063 70.371094 32.867188 70.710938 32.769531 71.1875 C 32.664063 71.730469 33.015625 72.257813 33.558594 72.363281 C 34.097656 72.472656 34.625 72.121094 34.734375 71.578125 C 34.839844 71.039063 34.488281 70.511719 33.949219 70.40625 C 33.890625 70.394531 33.835938 70.386719 33.777344 70.386719 Z M 46.238281 70.386719 C 46.175781 70.382813 46.109375 70.390625 46.042969 70.40625 C 45.78125 70.457031 45.554688 70.609375 45.40625 70.828125 C 45.257813 71.050781 45.203125 71.320313 45.253906 71.578125 C 45.308594 71.839844 45.460938 72.070313 45.679688 72.21875 C 45.902344 72.363281 46.171875 72.417969 46.433594 72.367188 C 46.691406 72.316406 46.921875 72.164063 47.070313 71.941406 C 47.214844 71.722656 47.269531 71.453125 47.21875 71.191406 C 47.125 70.722656 46.71875 70.386719 46.238281 70.386719 Z M 39.992188 71 C 39.441406 71 38.992188 71.449219 38.992188 72 C 38.992188 72.550781 39.441406 73 39.992188 73 C 40.542969 73 40.992188 72.550781 40.992188 72 C 40.992188 71.449219 40.542969 71 39.992188 71 Z"/></svg>