<svg xmlns="http://www.w3.org/2000/svg" viewBox="0 0 48 48" width="50px" height="50px"><path fill="#ffca28" d="M44,24c0,11-9,20-20,20S4,35,4,24S13,4,24,4S44,13,44,24z"/><path fill="#6d4c41" d="M21,23c0,2.2-1.8,4-4,4s-4-1.8-4-4s1.8-4,4-4S21,20.8,21,23z"/><path fill="#fff" d="M17,21.5c0,0.8-0.7,1.5-1.5,1.5S14,22.3,14,21.5s0.7-1.5,1.5-1.5C16.3,20,17,20.7,17,21.5z"/><path fill="#6d4c41" d="M35,23c0,2.2-1.8,4-4,4s-4-1.8-4-4s1.8-4,4-4S35,20.8,35,23z"/><path fill="#fff" d="M31,21.5c0,0.8-0.7,1.5-1.5,1.5S28,22.3,28,21.5s0.7-1.5,1.5-1.5S31,20.7,31,21.5z"/><path fill="#b76c09" d="M21,36c-1.2,0-2.5-0.6-3.8-2.4l1.6-1.2c1.8,2.5,2.9,1.7,4.8,0.2c1.2-0.9,2.6-1.9,4.2-1.6 c1.1,0.2,2.1,1,3,2.4l-1.7,1.1c-0.6-0.9-1.2-1.4-1.7-1.5c-0.7-0.1-1.7,0.5-2.7,1.2C23.8,35,22.5,36,21,36z"/></svg>