<svg fill="#000000" xmlns="http://www.w3.org/2000/svg" viewBox="0 0 26 26" width="300px" height="300px"><path d="M 14 0 L 14 26 L 16.59375 26 C 17.894531 26 19 24.894531 19 23.59375 L 19 2.40625 C 19 1.105469 17.894531 0 16.59375 0 Z M 20 8 L 20 18 L 26 18 L 26 8 Z M 4.40625 9.03125 C 4.304688 9.03125 4.195313 9.042969 4.09375 9.09375 C 2.09375 10.492188 0.195313 12.585938 0.09375 12.6875 C -0.0078125 12.789063 0 12.898438 0 13 C 0 13.101563 0.09375 13.210938 0.09375 13.3125 C 0.195313 13.414063 2.1875 15.507813 4.1875 16.90625 C 4.289063 17.007813 4.488281 17.007813 4.6875 16.90625 C 4.886719 16.90625 5 16.699219 5 16.5 L 5 14.6875 C 5 14.6875 11.300781 14.414063 11.5 14.3125 C 11.699219 14.210938 11.90625 13.59375 11.90625 13.09375 C 11.90625 12.59375 11.800781 12.011719 11.5 11.8125 C 11.398438 11.613281 5 11.40625 5 11.40625 L 5 9.59375 C 5 9.394531 4.886719 9.195313 4.6875 9.09375 C 4.585938 9.042969 4.507813 9.03125 4.40625 9.03125 Z"/></svg>