<svg xmlns="http://www.w3.org/2000/svg" viewBox="0 0 16 16" width="100px" height="100px"><path fill="#8bb7f0" d="M0.5,15.5c0.3-3.4,3.4-4,3.6-4l3.9,0c0.1,0,3.2,0.7,3.5,4H0.5z"/><path fill="#4e7ab5" d="M7.9,12c0.4,0.1,2.5,0.7,3,3H1.1c0.5-2.3,2.5-2.9,3-3H7.9 M8,11H4c0,0-4,0.7-4,5h12 C12,11.7,8,11,8,11L8,11z"/><path fill="#deb974" d="M6,12.5c-0.7,0-1.3-0.4-1.5-0.6l0-3.4h3v3.4C7.3,12.1,6.8,12.5,6,12.5z"/><path fill="#967a44" d="M7,9v2.7C6.8,11.8,6.4,12,6,12c-0.4,0-0.8-0.2-1-0.3L5,9H7 M8,8H4l0,4.1c0,0,0.7,0.9,2,0.9 s2-0.9,2-0.9V8L8,8z"/><path fill="#f5ce85" d="M6,10.5c-0.2,0-0.4-0.1-0.5-0.2l-0.1-0.1l-0.1,0c-0.9-0.3-1.6-1-1.7-1.9L3.5,7.8l-0.4,0 c-0.2,0-0.5-0.4-0.6-0.8l0-0.1V5.1l0.6-2.6h5.6l0.8,2.6v1.8l0,0.1C9.4,7.4,9.1,7.7,8.9,7.8l-0.4,0L8.5,8.2 c-0.2,0.9-0.8,1.7-1.7,1.9l-0.1,0l-0.1,0.1C6.4,10.4,6.2,10.5,6,10.5z"/><path fill="#967a44" d="M8.4,3L9,5.1v1.6l0,0C9,7,8.8,7.2,8.8,7.3L8.1,7.4L8,8.1C7.8,8.8,7.3,9.4,6.6,9.6L6.3,9.7L6.1,9.9 C6.1,10,6,10,6,10s-0.1,0-0.1-0.1L5.7,9.7L5.4,9.6C4.7,9.4,4.2,8.8,4,8.1L3.9,7.4L3.2,7.3C3.2,7.2,3,7,3,6.8l0,0V5.1L3.5,3H8.4 M9.1,2H2.7L2,5v2l0,0c0.1,0.6,0.5,1.2,1,1.3c0.2,1.1,1,2,2.1,2.3C5.4,10.8,5.7,11,6,11s0.6-0.2,0.9-0.4c1.1-0.3,1.9-1.2,2.1-2.3 C9.5,8.2,9.9,7.6,10,7l0,0V5L9.1,2L9.1,2z"/><path fill="#a6714e" d="M9.5,5.8c0-1.5-1.8-2.5-2-2.6L7.1,3.1L6.9,3.3c0,0-1.1,1.2-2.7,1.2C3,4.5,2.5,5.4,2.5,6.2V3.5 c0-1.4,0.9-3,3.5-3c1.1,0,1.6,0.7,1.6,0.8l0.1,0.2l0.3,0c0.7,0,1.5,0.6,1.5,1.7v3.3V5.8z"/><path fill="#7a4f34" d="M6,1c0.8,0,1.1,0.5,1.2,0.5L7.4,2H8c0.5,0,1,0.4,1,1.2v0.6c-0.6-0.6-1.2-0.9-1.3-1L7,2.5L6.5,3 c0,0-0.9,1-2.3,1C3.7,4,3.3,4.1,3,4.3V3.5C3,2.9,3.2,1,6,1 M6,0C3.2,0,2,1.8,2,3.5C2,4.7,2,7,2,7h1c0,0,0-0.4,0-0.8 C3,5.7,3.2,5,4.2,5c1.9,0,3-1.3,3-1.3S9,4.6,9,5.8C9,6.3,9,7,9,7h1c0,0,0-1.8,0-3.8C10,1.9,9,1,8,1C8,1,7.4,0,6,0L6,0z"/><g><path fill="#5e9c76" d="M11.5 7A4.5 4.5 0 1 0 11.5 16A4.5 4.5 0 1 0 11.5 7Z"/></g><path fill="#fff" d="M11 9H12V14H11z"/><path fill="#fff" d="M9 11H14V12H9z"/></svg>