<svg xmlns="http://www.w3.org/2000/svg" viewBox="0 0 64 64" width="300px" height="300px"><linearGradient id="kJOXjlW0Y5GzxgR5sB0eNa" x1="32.007" x2="32.007" y1="8" y2="58" gradientUnits="userSpaceOnUse" spreadMethod="reflect"><stop offset="0" stop-color="#1a6dff"/><stop offset="1" stop-color="#c822ff"/></linearGradient><path fill="url(#kJOXjlW0Y5GzxgR5sB0eNa)" d="M56.529,12.616c-2.848-2.919-6.541-4.594-10.133-4.593c-2.716,0-5.181,0.993-6.94,2.798 c-2.305,2.362-3.179,6.096-2.42,9.902c-3.037-0.964-6.828-0.981-10.162-0.027c0.86-3.797-0.014-7.501-2.457-10.005 C22.67,8.954,20.253,8,17.604,8c-0.028,0-0.057,0-0.085,0.001c-3.551,0.027-7.213,1.709-10.048,4.615 C2.3,17.918,1.514,25.739,5.72,30.051c2.223,2.28,5.426,3.216,8.833,2.661c-0.706,1.992-1.062,4.115-1.062,6.335 C13.49,49.498,21.794,58,32,58s18.51-8.502,18.51-18.953c0-2.22-0.356-4.343-1.062-6.335c3.407,0.554,6.61-0.382,8.844-2.672 C62.498,25.596,61.725,17.942,56.529,12.616z M32,56c-5.905,0-11.081-3.21-14-8.01c0.004-3.568,1.791-4.102,2.857-4.102 c0.223,0,0.445,0.043,0.662,0.127c0.384,0.146,0.819,0.047,1.097-0.255c0.278-0.303,0.344-0.745,0.164-1.114 c-1.385-2.853-2.315-6.727-2.315-8.556c0-2.807,2.363-5.09,5.268-5.09S31,31.283,31,34.09c0,0.553,0.447,1,1,1s1-0.447,1-1 c0-2.807,2.363-5.09,5.268-5.09c2.905,0,5.269,2.283,5.269,5.09c0,1.828-0.931,5.702-2.316,8.556 c-0.18,0.369-0.114,0.812,0.164,1.114c0.279,0.302,0.714,0.401,1.097,0.255c0.217-0.084,0.439-0.127,0.662-0.127 c1.066,0,2.853,0.534,2.857,4.102C43.081,52.79,37.905,56,32,56z M56.849,28.654c-2.109,2.163-5.391,2.784-8.775,1.664 c-0.38-0.125-0.802-0.012-1.067,0.291c-0.265,0.303-0.322,0.735-0.146,1.097c1.095,2.243,1.649,4.713,1.649,7.341 c0,2.058-0.377,4.023-1.034,5.849c-0.761-1.922-2.246-2.803-3.758-2.976c1.139-2.887,1.818-6.115,1.818-7.83 c0-3.909-3.261-7.09-7.269-7.09c-2.667,0-5.003,1.409-6.268,3.504C30.735,28.409,28.399,27,25.732,27 c-4.008,0-7.268,3.181-7.268,7.09c0,1.716,0.679,4.944,1.817,7.83c-1.512,0.173-2.997,1.054-3.758,2.976 c-0.657-1.827-1.034-3.791-1.034-5.849c0-2.628,0.555-5.098,1.649-7.341c0.177-0.361,0.119-0.794-0.146-1.097 c-0.193-0.221-0.47-0.342-0.753-0.342c-0.105,0-0.211,0.017-0.314,0.051c-3.384,1.119-6.667,0.498-8.775-1.664 c-3.455-3.541-2.669-10.109,1.751-14.642c2.465-2.526,5.61-3.989,8.632-4.012C17.559,10,17.582,10,17.606,10 c2.146,0,4.012,0.729,5.39,2.099c2.299,2.356,2.842,6.125,1.416,9.834c-0.144,0.374-0.05,0.798,0.238,1.077 c0.288,0.278,0.715,0.361,1.084,0.202c3.874-1.634,9.089-1.582,12.347,0.089c0.364,0.188,0.805,0.133,1.114-0.137 c0.309-0.271,0.421-0.701,0.284-1.087c-1.329-3.75-0.776-7.62,1.408-9.859c1.4-1.436,3.305-2.194,5.509-2.194 c3.057-0.001,6.228,1.454,8.701,3.989C59.54,18.567,60.305,25.004,56.849,28.654z"/><linearGradient id="kJOXjlW0Y5GzxgR5sB0eNb" x1="32" x2="32" y1="45" y2="50" gradientUnits="userSpaceOnUse" spreadMethod="reflect"><stop offset="0" stop-color="#6dc7ff"/><stop offset="1" stop-color="#e6abff"/></linearGradient><path fill="url(#kJOXjlW0Y5GzxgR5sB0eNb)" d="M32 45A4 2.5 0 1 0 32 50A4 2.5 0 1 0 32 45Z"/><linearGradient id="kJOXjlW0Y5GzxgR5sB0eNc" x1="35" x2="35" y1="37" y2="44" gradientUnits="userSpaceOnUse" spreadMethod="reflect"><stop offset="0" stop-color="#6dc7ff"/><stop offset="1" stop-color="#e6abff"/></linearGradient><path fill="url(#kJOXjlW0Y5GzxgR5sB0eNc)" d="M35 37A2 3.5 0 1 0 35 44A2 3.5 0 1 0 35 37Z"/><linearGradient id="kJOXjlW0Y5GzxgR5sB0eNd" x1="29" x2="29" y1="37" y2="44" gradientUnits="userSpaceOnUse" spreadMethod="reflect"><stop offset="0" stop-color="#6dc7ff"/><stop offset="1" stop-color="#e6abff"/></linearGradient><path fill="url(#kJOXjlW0Y5GzxgR5sB0eNd)" d="M29 37A2 3.5 0 1 0 29 44A2 3.5 0 1 0 29 37Z"/></svg>