<svg xmlns="http://www.w3.org/2000/svg" viewBox="0 0 16 16" width="300px" height="300px"><path fill="#f5ce85" d="M7,15.5c-0.2,0-0.3-0.1-0.5-0.2L0.7,9.5C0.6,9.4,0.5,9.2,0.5,9s0.1-0.3,0.2-0.5l7.9-7.9 C8.7,0.6,8.9,0.5,9,0.5h5.2c0.7,0,1.2,0.5,1.2,1.2V7c0,0.2-0.1,0.3-0.2,0.5l-7.9,7.9C7.3,15.4,7.1,15.5,7,15.5z"/><path fill="#967a44" d="M14.3,1C14.7,1,15,1.3,15,1.7V7c0,0,0,0.1,0,0.1l-7.9,7.9C7,15,7,15,7,15s-0.1,0-0.1,0L1,9.1 C1,9.1,1,9,1,8.9L8.9,1C9,1,9,1,9,1H14.3 M14.3,0H9C8.7,0,8.5,0.1,8.2,0.3L0.3,8.2c-0.4,0.4-0.4,1.2,0,1.6l5.8,5.8 C6.4,15.9,6.7,16,7,16s0.6-0.1,0.8-0.3l7.9-7.9C15.9,7.5,16,7.3,16,7V1.7C16,0.8,15.2,0,14.3,0L14.3,0z"/><path fill="#967a44" d="M13 2A1 1 0 1 0 13 4A1 1 0 1 0 13 2Z"/><path fill="#5e9c76" d="M11.5 7A4.5 4.5 0 1 0 11.5 16A4.5 4.5 0 1 0 11.5 7Z"/><path fill="#fff" d="M11 9H12V14H11z"/><path fill="#fff" d="M9 11H14V12H9z"/></svg>