<svg fill="#000000" xmlns="http://www.w3.org/2000/svg" viewBox="0 0 24 24" width="100px" height="100px"><path d="M 8 3 C 7.5625 3 7.3349668 3.1791734 7.1621094 3.3144531 C 6.9892519 3.4497329 6.860994 3.5894634 6.7304688 3.7460938 C 6.4694182 4.0593543 6.2152334 4.4398808 5.9433594 4.8847656 C 5.3996112 5.7745353 4.799594 6.9144836 4.2304688 8.0527344 C 3.092218 10.329236 2.0859375 12.59375 2.0859375 12.59375 L 2.0878906 12.59375 A 1.0001 1.0001 0 0 0 2 13 L 2 18 C 2 18 1.9862119 18.458752 2.2304688 18.947266 C 2.4747256 19.43578 3.1666667 20 4 20 L 10 20 A 1.0001 1.0001 0 0 0 10.927734 19.371094 L 12 16.691406 L 13.072266 19.371094 A 1.0001 1.0001 0 0 0 14 20 L 20 20 C 20.833333 20 21.525274 19.43578 21.769531 18.947266 C 22.013788 18.458752 22 18 22 18 L 22 13 A 1.0001 1.0001 0 0 0 21.914062 12.59375 C 21.914062 12.59375 20.907782 10.329236 19.769531 8.0527344 C 19.200406 6.9144836 18.600389 5.7745353 18.056641 4.8847656 C 17.784767 4.4398808 17.530582 4.0593543 17.269531 3.7460938 C 17.139006 3.5894633 17.010748 3.4497329 16.837891 3.3144531 C 16.665033 3.1791734 16.4375 3 16 3 C 15.25 3 14.81638 3.4461247 14.498047 3.828125 C 14.179713 4.2101253 13.937845 4.6379821 13.730469 5.0527344 C 13.315716 5.882239 13.050781 6.6835938 13.050781 6.6835938 L 14.949219 7.3164062 C 14.949219 7.3164062 15.184284 6.617761 15.519531 5.9472656 C 15.649619 5.6870895 15.788167 5.4812892 15.917969 5.296875 C 16.050207 5.4784203 16.178752 5.6481503 16.349609 5.9277344 C 16.837111 6.7254647 17.424594 7.8355164 17.980469 8.9472656 C 18.534626 10.05558 19.058256 11.164067 19.445312 12 L 4.5546875 12 C 4.9417441 11.164067 5.4653742 10.05558 6.0195312 8.9472656 C 6.575406 7.8355164 7.1628888 6.7254647 7.6503906 5.9277344 C 7.8212476 5.6481503 7.949793 5.4784203 8.0820312 5.296875 C 8.2118326 5.4812892 8.3503807 5.6870895 8.4804688 5.9472656 C 8.8157163 6.617761 9.0507814 7.3164062 9.0507812 7.3164062 L 10.949219 6.6835938 C 10.949219 6.6835938 10.684284 5.882239 10.269531 5.0527344 C 10.062155 4.6379821 9.8202867 4.2101253 9.5019531 3.828125 C 9.1836195 3.4461247 8.75 3 8 3 z M 4 14 L 10.923828 14 L 9.3222656 18 L 4 18 L 4 14 z M 13.076172 14 L 20 14 L 20 18 L 14.677734 18 L 13.076172 14 z"/></svg>