<svg xmlns="http://www.w3.org/2000/svg" viewBox="0 0 48 48" width="100px" height="100px"><path fill="#ffca28" d="M44,24c0,11-9,20-20,20S4,35,4,24S13,4,24,4S44,13,44,24z"/><path fill="#b76c09" d="M24,37c-2.8,0-5-2.2-5-5h2c0,1.7,1.3,3,3,3s3-1.3,3-3h2C29,34.8,26.8,37,24,37z"/><path fill="#2196f3" d="M17 18A4 5 0 1 0 17 28A4 5 0 1 0 17 18Z"/><path fill="#fff" d="M16 20A2 2 0 1 0 16 24 2 2 0 1 0 16 20zM19 24A1 1 0 1 0 19 26 1 1 0 1 0 19 24z"/><g><path fill="#2196f3" d="M31 18A4 5 0 1 0 31 28A4 5 0 1 0 31 18Z"/><path fill="#fff" d="M30 20A2 2 0 1 0 30 24 2 2 0 1 0 30 20zM33 24A1 1 0 1 0 33 26 1 1 0 1 0 33 24z"/></g></svg>