<svg fill="#000000" xmlns="http://www.w3.org/2000/svg" viewBox="0 0 50 50" width="500px" height="500px"><path d="M 4.6875 4 C 2.101563 4 0 6.066406 0 8.625 C 0 9.507813 0.507813 10.503906 1.0625 11.53125 C 1.546875 12.429688 2.09375 13.4375 2.09375 14.09375 C 2.09375 14.65625 1.773438 15.953125 1.40625 17.34375 C 0.785156 19.683594 0 22.609375 0 25 C 0 27.359375 0.765625 30.210938 1.375 32.5 C 1.753906 33.933594 2.09375 35.285156 2.09375 35.90625 C 2.09375 36.636719 1.554688 37.660156 1.0625 38.5625 C 0.519531 39.550781 0 40.5 0 41.375 C 0 43.933594 2.101563 46 4.6875 46 C 5.386719 46 6.410156 45.675781 8 45.15625 C 9.648438 44.617188 11.691406 43.96875 13 43.96875 C 14.050781 43.96875 14.753906 44.394531 15.5625 44.90625 C 16.375 45.417969 17.277344 46 18.53125 46 C 19.726563 46 20.800781 45.480469 21.84375 44.96875 C 22.894531 44.453125 23.902344 43.96875 25 43.96875 C 26.042969 43.96875 26.753906 44.394531 27.5625 44.90625 C 28.375 45.421875 29.277344 46 30.53125 46 C 31.804688 46 33.148438 45.390625 34.4375 44.8125 C 35.394531 44.382813 36.382813 43.96875 37 43.96875 C 37.769531 43.96875 39.738281 44.554688 41.3125 45.03125 C 43.304688 45.636719 44.5625 46 45.3125 46 C 47.898438 46 50 43.933594 50 41.375 C 50 40.492188 49.492188 39.496094 48.9375 38.46875 C 48.453125 37.570313 47.90625 36.5625 47.90625 35.90625 C 47.90625 35.332031 48.242188 33.9375 48.625 32.46875 C 49.234375 30.125 50 27.21875 50 25 C 50 22.808594 49.253906 19.945313 48.65625 17.65625 C 48.261719 16.144531 47.90625 14.734375 47.90625 14.09375 C 47.90625 13.363281 48.445313 12.339844 48.9375 11.4375 C 49.476563 10.449219 50 9.5 50 8.625 C 50 6.066406 47.898438 4 45.3125 4 C 44.609375 4 43.589844 4.316406 42 4.84375 C 40.351563 5.390625 38.304688 6.0625 37 6.0625 C 35.953125 6.0625 35.246094 5.644531 34.4375 5.125 C 33.625 4.605469 32.726563 4 31.46875 4 C 30.269531 4 29.171875 4.542969 28.125 5.0625 C 27.074219 5.585938 26.097656 6.0625 25 6.0625 C 23.960938 6.0625 23.277344 5.640625 22.46875 5.125 C 21.65625 4.605469 20.726563 4 19.46875 4 C 18.191406 4 16.851563 4.601563 15.5625 5.1875 C 14.605469 5.621094 13.613281 6.0625 13 6.0625 C 12.234375 6.0625 10.261719 5.484375 8.6875 5 C 6.695313 4.386719 5.441406 4 4.6875 4 Z M 9 13 L 41 13 L 41 37 L 9 37 Z M 24 18 L 24 24 L 18 24 L 18 26 L 24 26 L 24 32 L 26 32 L 26 26 L 32 26 L 32 24 L 26 24 L 26 18 Z"/></svg>