<svg fill="#000000" xmlns="http://www.w3.org/2000/svg" viewBox="0 0 80 80" width="300px" height="300px"><path d="M 15 9 L 15 71 L 46.347656 71 C 46.089656 70.35 45.8735 69.682 45.6875 69 L 17 69 L 17 11 L 49 11 L 49 25 L 63 25 L 63 45.050781 C 63.333 45.033781 63.662 45 64 45 C 64.338 45 64.667 45.033781 65 45.050781 L 65 23.585938 L 50.414062 9 L 15 9 z M 51 12.414062 L 61.585938 23 L 51 23 L 51 12.414062 z M 22 13 A 1 1 0 0 0 21 14 A 1 1 0 0 0 22 15 A 1 1 0 0 0 23 14 A 1 1 0 0 0 22 13 z M 22 17 A 1 1 0 0 0 21 18 A 1 1 0 0 0 22 19 A 1 1 0 0 0 23 18 A 1 1 0 0 0 22 17 z M 22 21 A 1 1 0 0 0 21 22 A 1 1 0 0 0 22 23 A 1 1 0 0 0 23 22 A 1 1 0 0 0 22 21 z M 22 25 A 1 1 0 0 0 21 26 A 1 1 0 0 0 22 27 A 1 1 0 0 0 23 26 A 1 1 0 0 0 22 25 z M 22 29 A 1 1 0 0 0 21 30 A 1 1 0 0 0 22 31 A 1 1 0 0 0 23 30 A 1 1 0 0 0 22 29 z M 22 33 A 1 1 0 0 0 21 34 A 1 1 0 0 0 22 35 A 1 1 0 0 0 23 34 A 1 1 0 0 0 22 33 z M 57 36 A 2 2 0 0 0 55 38 A 2 2 0 0 0 55.070312 38.515625 L 45.517578 48.068359 A 2 2 0 0 0 45 48 A 2 2 0 0 0 44.484375 48.070312 L 38.931641 42.517578 A 2 2 0 0 0 39 42 A 2 2 0 0 0 37 40 A 2 2 0 0 0 35 42 A 2 2 0 0 0 35.070312 42.515625 L 28.517578 49.068359 A 2 2 0 0 0 28 49 A 2 2 0 0 0 26 51 A 2 2 0 0 0 28 53 A 2 2 0 0 0 30 51 A 2 2 0 0 0 29.929688 50.484375 L 36.482422 43.931641 A 2 2 0 0 0 37 44 A 2 2 0 0 0 37.515625 43.929688 L 43.068359 49.482422 A 2 2 0 0 0 43 50 A 2 2 0 0 0 45 52 A 2 2 0 0 0 47 50 A 2 2 0 0 0 46.929688 49.484375 L 56.482422 39.931641 A 2 2 0 0 0 57 40 A 2 2 0 0 0 59 38 A 2 2 0 0 0 57 36 z M 22 37 A 1 1 0 0 0 21 38 A 1 1 0 0 0 22 39 A 1 1 0 0 0 23 38 A 1 1 0 0 0 22 37 z M 22 41 A 1 1 0 0 0 21 42 A 1 1 0 0 0 22 43 A 1 1 0 0 0 23 42 A 1 1 0 0 0 22 41 z M 22 45 A 1 1 0 0 0 21 46 A 1 1 0 0 0 22 47 A 1 1 0 0 0 23 46 A 1 1 0 0 0 22 45 z M 64 48 C 55.178 48 48 55.178 48 64 C 48 72.822 55.178 80 64 80 C 72.822 80 80 72.822 80 64 C 80 55.178 72.822 48 64 48 z M 22 49 A 1 1 0 0 0 21 50 A 1 1 0 0 0 22 51 A 1 1 0 0 0 23 50 A 1 1 0 0 0 22 49 z M 64 50 C 71.72 50 78 56.28 78 64 C 78 71.72 71.72 78 64 78 C 56.28 78 50 71.72 50 64 C 50 56.28 56.28 50 64 50 z M 22 53 A 1 1 0 0 0 21 54 A 1 1 0 0 0 22 55 A 1 1 0 0 0 23 54 A 1 1 0 0 0 22 53 z M 22 57 A 1 1 0 0 0 21 58 A 1 1 0 0 0 22 59 A 1 1 0 0 0 23 58 A 1 1 0 0 0 22 57 z M 63 57 L 63 63 L 57 63 L 57 65 L 63 65 L 63 71 L 65 71 L 65 65 L 71 65 L 71 63 L 65 63 L 65 57 L 63 57 z M 22 61 A 1 1 0 0 0 21 62 A 1 1 0 0 0 22 63 A 1 1 0 0 0 23 62 A 1 1 0 0 0 22 61 z M 22 65 A 1 1 0 0 0 21 66 A 1 1 0 0 0 22 67 A 1 1 0 0 0 23 66 A 1 1 0 0 0 22 65 z"/></svg>