<?xml version="1.0"?><svg fill="#000000" xmlns="http://www.w3.org/2000/svg" viewBox="0 0 24 24" width="300px" height="300px">    <path d="M 10 2 L 9 3 L 5 3 L 4 3 L 4 5 L 5 5 L 5 20 C 5 21.103 5.897 22 7 22 L 12.683594 22 C 12.387594 21.378 12.181078 20.707 12.080078 20 L 7 20 L 7 5 L 17 5 L 17 12.294922 C 17.634 12.105922 18.305 12 19 12 L 19 5 L 20 5 L 20 3 L 19 3 L 15 3 L 14 2 L 10 2 z M 9 7 L 9 18 L 11 18 L 11 7 L 9 7 z M 13 7 L 13 15.408203 C 13.51 14.559203 14.19 13.824766 15 13.259766 L 15 7 L 13 7 z M 19 14 C 16.239 14 14 16.239 14 19 C 14 21.761 16.239 24 19 24 C 21.761 24 24 21.761 24 19 C 24 16.239 21.761 14 19 14 z M 18 16 L 20 16 L 20 18 L 22 18 L 22 20 L 20 20 L 20 22 L 18 22 L 18 20 L 16 20 L 16 18 L 18 18 L 18 16 z"/></svg>