<?xml version="1.0"?><svg fill="#000000" xmlns="http://www.w3.org/2000/svg" viewBox="0 0 24 24" width="100px" height="100px">    <path d="M21.911,12.595l0.003-0.001C17.649,3,16.617,3,16,3c-1.422,0-2.389,2.003-2.948,3.684l1.896,0.633 c0.265-0.791,0.664-1.623,0.971-2.064c0.758,1.051,2.224,3.919,3.529,6.747H4.552c1.306-2.828,2.771-5.696,3.53-6.747 c0.306,0.441,0.705,1.273,0.97,2.064l1.897-0.633C10.389,5.003,9.422,3,8,3c-0.617,0-1.65,0-5.914,9.594l0.003,0.001 C2.034,12.719,2,12.855,2,13v5c0,0.97,0.701,2,2,2h6c0.409,0,0.776-0.249,0.929-0.628L12,16.692l1.071,2.679 C13.224,19.751,13.591,20,14,20h6c1.299,0,2-1.03,2-2v-5C22,12.855,21.966,12.719,21.911,12.595z"/></svg>