<svg xmlns="http://www.w3.org/2000/svg" viewBox="0 0 80 80" width="100px" height="100px"><path fill="#5e9c76" d="M59.5 45.5L42.5 45.5 42.5 34.5 59.5 34.5 59.5 26.108 75.244 40 59.5 53.892z"/><path fill="#37774e" d="M60,27.216L74.489,40L60,52.784V46v-1h-1H43V35h16h1v-1V27.216 M59,25v9H42v12h17v9l17-15L59,25 L59,25z"/><path fill="#99c99e" d="M4.5 23.5H22.5V56.5H4.5z"/><path fill="#5e9c76" d="M22,24v32H5V24H22 M23,23H4v34h19V23L23,23z"/><g><path fill="#bae0bd" d="M32,73.5c-5.888,0-10.5-4.52-10.5-10.289V17c0-5.79,4.71-10.5,10.5-10.5h3.5v67H32z"/><path fill="#5e9c76" d="M35,7v66h-3c-5.607,0-10-4.3-10-9.789V17c0-5.514,4.486-10,10-10H35 M36,6h-4 c-6.075,0-11,4.925-11,11v46.211C21,69.286,25.925,74,32,74h4V6L36,6z"/></g></svg>