<?xml version="1.0"?><svg fill="#000000" xmlns="http://www.w3.org/2000/svg" viewBox="0 0 24 24" width="300px" height="300px">    <path d="M 4 7 C 2.897 7 2 7.897 2 9 L 2 15 C 2 16.103 2.897 17 4 17 L 5 17 C 5 13.134 8.134 10 12 10 C 15.866 10 19 13.134 19 17 L 20 17 C 21.103 17 22 16.103 22 15 L 22 9 C 22 7.897 21.103 7 20 7 L 4 7 z M 12 12 C 9.239 12 7 14.239 7 17 C 7 19.761 9.239 22 12 22 C 14.761 22 17 19.761 17 17 C 17 14.239 14.761 12 12 12 z M 12 14 C 12.552 14 13 14.448 13 15 L 13 16 L 14 16 C 14.552 16 15 16.448 15 17 C 15 17.552 14.552 18 14 18 L 13 18 L 13 19 C 13 19.552 12.552 20 12 20 C 11.448 20 11 19.552 11 19 L 11 18 L 10 18 C 9.448 18 9 17.552 9 17 C 9 16.448 9.448 16 10 16 L 11 16 L 11 15 C 11 14.448 11.448 14 12 14 z"/></svg>