<?xml version="1.0"?><svg fill="#000000" xmlns="http://www.w3.org/2000/svg" viewBox="0 0 24 24" width="300px" height="300px">    <path d="M20.922,7.615c-0.051-0.122-0.125-0.232-0.217-0.323l-3.999-3.999C16.52,3.105,16.266,3,16,3H4 C3.87,3,3.74,3.026,3.618,3.077c-0.245,0.101-0.44,0.296-0.541,0.541C3.026,3.74,3,3.87,3,4v12c0,0.266,0.105,0.52,0.293,0.707 l3.999,3.999c0.092,0.092,0.201,0.166,0.323,0.217C7.736,20.973,7.866,21,8,21h12c0.553,0,1-0.447,1-1V8 C21,7.866,20.973,7.736,20.922,7.615z M17.586,7H8.414l-2-2h9.172L17.586,7z M5,6.414l2,2v9.172l-2-2V6.414z"/></svg>