<svg xmlns="http://www.w3.org/2000/svg" viewBox="0 0 24 24" width="500px" height="500px"><path d="M14 15H9c-2.761 0-5 2.239-5 5v0h10V15zM12 4A3 3 0 1 0 12 10 3 3 0 1 0 12 4z" opacity=".3"/><path d="M18 12c-3.3 0-6 2.7-6 6s2.7 6 6 6 6-2.7 6-6S21.3 12 18 12zM21 19h-2v2h-2v-2h-2v-2h2v-2h2v2h2V19zM12 3C9.794 3 8 4.794 8 7s1.794 4 4 4 4-1.794 4-4S14.206 3 12 3zM12 9c-1.103 0-2-.897-2-2s.897-2 2-2 2 .897 2 2S13.103 9 12 9z"/><path d="M13.101,19H5v-0.5c0-0.869,3.708-2.5,7-2.5c0.456,0,0.92,0.034,1.382,0.09c0.291-0.703,0.747-1.312,1.306-1.81C13.713,14.095,12.774,14,12,14c-3.141,0-9,1.545-9,4.5V21h11.023C13.581,20.416,13.252,19.744,13.101,19z"/></svg>