<svg fill="#000000" xmlns="http://www.w3.org/2000/svg" viewBox="0 0 80 80" width="300px" height="300px"><path d="M 40 2.546875 L 39.085938 4.59375 L 28.933594 27.359375 L 1.914063 30.214844 L 22.09375 48.40625 L 16.460938 74.984375 L 40 61.417969 L 63.539063 74.984375 L 57.90625 48.40625 L 78.085938 30.214844 L 51.066406 27.359375 Z M 40 7.457031 L 49.707031 29.226563 L 73.414063 31.734375 L 55.707031 47.691406 L 60.652344 71.015625 L 40 59.109375 L 19.347656 71.015625 L 24.292969 47.691406 L 6.585938 31.734375 L 30.292969 29.226563 Z M 40 12 C 39.449219 12 39 12.449219 39 13 C 39 13.550781 39.449219 14 40 14 C 40.550781 14 41 13.550781 41 13 C 41 12.449219 40.550781 12 40 12 Z M 40 16 C 39.449219 16 39 16.449219 39 17 C 39 17.550781 39.449219 18 40 18 C 40.550781 18 41 17.550781 41 17 C 41 16.449219 40.550781 16 40 16 Z M 40 20 C 39.449219 20 39 20.449219 39 21 C 39 21.550781 39.449219 22 40 22 C 40.550781 22 41 21.550781 41 21 C 41 20.449219 40.550781 20 40 20 Z M 40 24 C 39.449219 24 39 24.449219 39 25 C 39 25.550781 39.449219 26 40 26 C 40.550781 26 41 25.550781 41 25 C 41 24.449219 40.550781 24 40 24 Z M 38.5 31.5 L 38.5 39 L 31 39 L 31 42 L 38.5 42 L 38.5 49.5 L 41.5 49.5 L 41.5 42 L 49 42 L 49 39 L 41.5 39 L 41.5 31.5 Z M 12.941406 32.761719 C 12.496094 32.761719 12.101563 33.066406 11.984375 33.5 C 11.84375 34.035156 12.160156 34.582031 12.691406 34.722656 C 13.226563 34.867188 13.773438 34.550781 13.917969 34.015625 C 14.0625 33.484375 13.746094 32.9375 13.210938 32.792969 C 13.125 32.769531 13.035156 32.757813 12.941406 32.761719 Z M 67.089844 32.761719 C 66.988281 32.757813 66.886719 32.765625 66.792969 32.792969 C 66.535156 32.859375 66.316406 33.027344 66.183594 33.257813 C 66.050781 33.488281 66.011719 33.761719 66.082031 34.015625 C 66.148438 34.273438 66.316406 34.492188 66.546875 34.625 C 66.777344 34.757813 67.050781 34.796875 67.308594 34.726563 C 67.5625 34.660156 67.78125 34.492188 67.914063 34.261719 C 68.046875 34.03125 68.085938 33.757813 68.015625 33.5 C 67.902344 33.078125 67.527344 32.777344 67.089844 32.761719 Z M 16.808594 33.792969 C 16.355469 33.796875 15.964844 34.101563 15.847656 34.535156 C 15.707031 35.070313 16.023438 35.617188 16.558594 35.761719 C 16.8125 35.828125 17.085938 35.792969 17.316406 35.660156 C 17.546875 35.527344 17.714844 35.308594 17.78125 35.050781 C 17.925781 34.515625 17.609375 33.96875 17.074219 33.828125 C 16.988281 33.804688 16.898438 33.792969 16.808594 33.792969 Z M 63.191406 33.792969 C 63.167969 33.792969 63.144531 33.792969 63.125 33.796875 C 63.054688 33.800781 62.992188 33.808594 62.925781 33.828125 C 62.390625 33.972656 62.074219 34.519531 62.21875 35.050781 C 62.363281 35.585938 62.910156 35.902344 63.441406 35.761719 C 63.976563 35.617188 64.292969 35.070313 64.152344 34.535156 C 64.035156 34.101563 63.644531 33.796875 63.191406 33.792969 Z M 20.671875 34.828125 C 20.222656 34.832031 19.832031 35.132813 19.714844 35.566406 C 19.570313 36.101563 19.886719 36.648438 20.421875 36.792969 C 20.957031 36.9375 21.503906 36.621094 21.644531 36.085938 C 21.789063 35.550781 21.472656 35.003906 20.9375 34.859375 C 20.851563 34.839844 20.761719 34.828125 20.671875 34.828125 Z M 59.328125 34.828125 C 59.304688 34.828125 59.28125 34.828125 59.261719 34.828125 C 59.191406 34.835938 59.128906 34.84375 59.0625 34.863281 C 58.527344 35.007813 58.210938 35.554688 58.355469 36.089844 C 58.5 36.621094 59.046875 36.9375 59.578125 36.796875 C 60.113281 36.652344 60.429688 36.105469 60.285156 35.570313 C 60.171875 35.136719 59.78125 34.832031 59.328125 34.828125 Z M 24.535156 35.859375 C 24.085938 35.867188 23.695313 36.167969 23.578125 36.605469 C 23.433594 37.136719 23.75 37.683594 24.285156 37.828125 C 24.820313 37.972656 25.367188 37.65625 25.511719 37.121094 C 25.652344 36.585938 25.335938 36.039063 24.800781 35.894531 C 24.714844 35.871094 24.625 35.859375 24.535156 35.859375 Z M 55.394531 35.863281 C 55.328125 35.867188 55.261719 35.878906 55.199219 35.894531 C 54.664063 36.039063 54.347656 36.585938 54.488281 37.121094 C 54.632813 37.65625 55.179688 37.972656 55.714844 37.828125 C 56.25 37.683594 56.566406 37.136719 56.421875 36.605469 C 56.308594 36.179688 55.933594 35.878906 55.496094 35.863281 C 55.464844 35.863281 55.429688 35.863281 55.394531 35.863281 Z M 33.351563 49.980469 C 33.011719 49.972656 32.691406 50.140625 32.5 50.421875 C 32.195313 50.882813 32.320313 51.503906 32.777344 51.8125 C 33.238281 52.117188 33.859375 51.992188 34.164063 51.53125 C 34.472656 51.074219 34.347656 50.453125 33.890625 50.144531 C 33.730469 50.039063 33.542969 49.980469 33.351563 49.980469 Z M 46.675781 49.980469 C 46.472656 49.976563 46.277344 50.035156 46.109375 50.144531 C 45.652344 50.453125 45.527344 51.074219 45.832031 51.53125 C 46.140625 51.992188 46.761719 52.117188 47.21875 51.808594 C 47.679688 51.5 47.804688 50.882813 47.496094 50.421875 C 47.3125 50.148438 47.003906 49.980469 46.675781 49.980469 Z M 31.128906 53.304688 C 30.789063 53.296875 30.46875 53.464844 30.28125 53.75 C 30.132813 53.96875 30.078125 54.238281 30.128906 54.5 C 30.183594 54.761719 30.335938 54.988281 30.558594 55.136719 C 31.015625 55.441406 31.636719 55.320313 31.941406 54.859375 C 32.25 54.398438 32.125 53.777344 31.667969 53.472656 C 31.507813 53.367188 31.320313 53.308594 31.128906 53.304688 Z M 48.898438 53.304688 C 48.695313 53.300781 48.5 53.359375 48.332031 53.472656 C 47.871094 53.777344 47.75 54.398438 48.054688 54.859375 C 48.363281 55.316406 48.980469 55.441406 49.441406 55.136719 C 49.902344 54.828125 50.023438 54.207031 49.71875 53.75 C 49.535156 53.472656 49.226563 53.308594 48.898438 53.304688 Z M 51.121094 56.628906 C 50.917969 56.628906 50.71875 56.6875 50.550781 56.796875 C 50.09375 57.105469 49.96875 57.726563 50.277344 58.1875 C 50.585938 58.644531 51.203125 58.769531 51.664063 58.460938 C 52.121094 58.152344 52.246094 57.535156 51.9375 57.074219 C 51.757813 56.800781 51.449219 56.632813 51.121094 56.628906 Z M 28.90625 56.628906 C 28.566406 56.625 28.246094 56.792969 28.058594 57.074219 C 27.910156 57.292969 27.855469 57.566406 27.910156 57.824219 C 27.960938 58.085938 28.113281 58.316406 28.332031 58.464844 C 28.792969 58.769531 29.414063 58.644531 29.71875 58.1875 C 30.027344 57.726563 29.902344 57.105469 29.445313 56.796875 C 29.285156 56.691406 29.101563 56.632813 28.90625 56.628906 Z M 26.6875 59.953125 C 26.34375 59.949219 26.023438 60.117188 25.835938 60.402344 C 25.527344 60.859375 25.652344 61.480469 26.109375 61.785156 C 26.570313 62.09375 27.191406 61.96875 27.5 61.511719 C 27.804688 61.050781 27.679688 60.433594 27.222656 60.125 C 27.0625 60.019531 26.878906 59.960938 26.6875 59.953125 Z M 53.34375 59.953125 C 53.140625 59.953125 52.941406 60.011719 52.777344 60.125 C 52.554688 60.269531 52.402344 60.5 52.351563 60.761719 C 52.296875 61.019531 52.351563 61.292969 52.5 61.511719 C 52.808594 61.96875 53.425781 62.09375 53.886719 61.785156 C 54.34375 61.480469 54.46875 60.859375 54.160156 60.402344 C 53.980469 60.125 53.671875 59.957031 53.34375 59.953125 Z M 24.464844 63.28125 C 24.121094 63.273438 23.800781 63.441406 23.613281 63.726563 C 23.304688 64.1875 23.429688 64.804688 23.890625 65.113281 C 24.347656 65.421875 24.96875 65.296875 25.277344 64.839844 C 25.421875 64.617188 25.476563 64.347656 25.425781 64.085938 C 25.375 63.824219 25.222656 63.597656 25 63.449219 C 24.839844 63.34375 24.65625 63.285156 24.464844 63.28125 Z M 55.5625 63.28125 C 55.363281 63.28125 55.164063 63.339844 55 63.453125 C 54.539063 63.757813 54.414063 64.378906 54.71875 64.839844 C 55.027344 65.296875 55.648438 65.421875 56.109375 65.113281 C 56.566406 64.808594 56.691406 64.1875 56.386719 63.726563 C 56.203125 63.453125 55.894531 63.285156 55.5625 63.28125 Z"/></svg>