<svg fill="#000000" xmlns="http://www.w3.org/2000/svg" viewBox="0 0 32 32" width="500px" height="500px"><path d="M 23.824219 -0.029296875 C 20.47383 -0.029296875 17.592753 2.0615655 16.40625 5 L 7.1425781 5 L 5.0117188 18.847656 L 5 27 L 27 27 L 27 19 L 26.466797 15.509766 C 29.576102 14.410801 31.824219 11.444045 31.824219 7.9707031 C 31.824219 3.5707031 28.224219 -0.029296875 23.824219 -0.029296875 z M 23.824219 1.9707031 C 27.124219 1.9707031 29.824219 4.6707031 29.824219 7.9707031 C 29.824219 11.270703 27.124219 13.970703 23.824219 13.970703 C 20.524219 13.970703 17.824219 11.270703 17.824219 7.9707031 C 17.824219 4.6707031 20.524219 1.9707031 23.824219 1.9707031 z M 22.824219 3.9707031 L 22.824219 6.9707031 L 19.824219 6.9707031 L 19.824219 8.9707031 L 22.824219 8.9707031 L 22.824219 11.970703 L 24.824219 11.970703 L 24.824219 8.9707031 L 27.824219 8.9707031 L 27.824219 6.9707031 L 24.824219 6.9707031 L 24.824219 3.9707031 L 22.824219 3.9707031 z M 8.8574219 7 L 15.888672 7 C 15.849549 7.3190384 15.824219 7.6415378 15.824219 7.9707031 C 15.824219 12.370703 19.424219 15.970703 23.824219 15.970703 C 24.057678 15.970703 24.287089 15.955398 24.515625 15.935547 L 24.833984 18 L 18 18 L 18 19 C 18 20.116666 17.116666 21 16 21 C 14.883334 21 14 20.116666 14 19 L 14 18 L 7.1660156 18 L 8.8574219 7 z M 7 20 L 12.203125 20 C 12.659479 21.706363 14.156406 23 16 23 C 17.843594 23 19.340521 21.706363 19.796875 20 L 25 20 L 25 25 L 7 25 L 7 20 z"/></svg>