<svg fill="#000000" xmlns="http://www.w3.org/2000/svg" viewBox="0 0 16 16" width="50px" height="50px"><path d="M 8 2 C 6.3494686 2 5 3.3494686 5 5 C 5 5.4959662 5.1872426 6.0037579 5.4335938 6.5644531 C 5.6410334 7.0365859 5.9029988 7.5276044 6.1699219 8 L 3.5 8 A 0.50005 0.50005 0 0 0 3.0351562 8.3144531 L 1.0351562 13.314453 A 0.50005 0.50005 0 0 0 1.5 14 L 14.5 14 A 0.50005 0.50005 0 0 0 14.964844 13.314453 L 12.964844 8.3144531 A 0.50005 0.50005 0 0 0 12.5 8 L 9.8300781 8 C 10.097001 7.5276044 10.358967 7.0365859 10.566406 6.5644531 C 10.812757 6.0037579 11 5.4959662 11 5 C 11 3.3494686 9.6505314 2 8 2 z M 8 3 C 9.1094686 3 10 3.8905314 10 5 C 10 5.1940338 9.8747425 5.6559296 9.6523438 6.1621094 C 9.4299449 6.6682892 9.1250489 7.2388455 8.8183594 7.7675781 C 8.4103035 8.4710665 8.2281023 8.7213996 8 9.0644531 C 7.7718977 8.7213996 7.5896965 8.4710665 7.1816406 7.7675781 C 6.8749511 7.2388455 6.5700552 6.6682892 6.3476562 6.1621094 C 6.1252574 5.6559296 6 5.1940338 6 5 C 6 3.8905314 6.8905314 3 8 3 z M 8 4 A 1 1 0 0 0 7 5 A 1 1 0 0 0 8 6 A 1 1 0 0 0 9 5 A 1 1 0 0 0 8 4 z M 3.8378906 9 L 6.7695312 9 C 7.2093725 9.7091228 7.5878906 10.283203 7.5878906 10.283203 L 8 10.878906 L 8.4121094 10.283203 C 8.4121094 10.283203 8.7906275 9.7091228 9.2304688 9 L 12.162109 9 L 13.761719 13 L 2.2382812 13 L 3.8378906 9 z"/></svg>