<svg fill="#000000" xmlns="http://www.w3.org/2000/svg" viewBox="0 0 26 26" width="50px" height="50px"><path d="M 22.898438 3 L 16.699219 3 L 16 5.800781 L 14.300781 5.800781 L 14 7 L 11.101563 3 L 5.101563 3 L 0 19 L 5.398438 24 L 11.300781 24 L 12.199219 20.398438 L 12.699219 20.898438 L 14.300781 20.898438 L 16.898438 23.898438 L 23 23.898438 L 26 8.898438 Z M 15 6.699219 L 18.101563 6.699219 C 18.5 6.699219 18.699219 7 18.601563 7.300781 L 18.5 8.398438 C 18.398438 8.800781 18.101563 9.101563 17.699219 9.101563 L 14.398438 9.101563 Z M 5.800781 3.898438 L 10.601563 3.898438 L 9.898438 6.101563 L 5.101563 6.101563 C 5.101563 6.101563 5.101563 6.101563 5 6.101563 Z M 6.199219 18.601563 L 1.101563 18.601563 L 2.800781 13.300781 C 2.898438 13.300781 3.101563 13.300781 3.199219 13.300781 L 3.699219 13.300781 C 4.101563 13.300781 4.300781 13.601563 4.199219 14 L 3.300781 16.601563 C 3.199219 17 3.398438 17.300781 3.800781 17.300781 L 6.601563 17.300781 Z M 6.601563 17.101563 L 4.300781 17.101563 C 3.898438 17.101563 3.699219 16.800781 3.800781 16.398438 L 3.898438 16.199219 C 4 15.800781 4.5 15.5 4.898438 15.5 L 7 15.5 C 7 15.5 7.101563 15.5 7.101563 15.5 Z M 18.800781 18.601563 L 13.601563 18.601563 L 15.199219 12.398438 L 13.300781 12.398438 L 12.5 15.398438 L 9.101563 15.398438 L 9.898438 12.398438 L 8 12.398438 L 7.199219 15.101563 C 7.101563 15.101563 7.101563 15.101563 7 15.101563 L 4.898438 15.101563 C 4.5 15.101563 4.300781 14.800781 4.398438 14.398438 L 4.601563 13.699219 C 4.699219 13.300781 4.5 13 4.101563 13 L 3.199219 13 C 3.101563 13 3 13 2.898438 13 L 5 6.5 L 9.800781 6.5 L 11.398438 6.601563 L 10.601563 9.5 L 14.300781 9.5 L 17.699219 9.398438 L 21.101563 9.398438 Z M 21.101563 9.101563 C 21 9.101563 21 9.101563 20.898438 9.101563 L 19.398438 9.101563 C 19 9.101563 18.800781 8.800781 18.800781 8.398438 L 19 7 C 19.101563 6.601563 18.800781 6.300781 18.398438 6.300781 L 16.800781 6.300781 L 17.398438 3.898438 L 22.199219 3.898438 Z"/></svg>