<svg xmlns="http://www.w3.org/2000/svg" viewBox="0 0 48 48" width="300px" height="300px"><path fill="#7e57c2" d="M38,5.002L14,5c-2.207,0-4.816,1.068-4.984,6.002H9c0,0,0,19.823,0,27.999l0.018-0.054 C9.2,42.585,11.565,43,12.607,43H36c0.188,0,0.5,0,1,0c2,0,2-2,2-2v-5.998v-29C39,5.449,38.553,5.002,38,5.002z"/><path fill="#ffe0b2" d="M36,36H12.607C11.275,36,11,37.119,11,38.499C11,39.88,11.275,41,12.607,41L36,40.998V36z"/><path fill="#e0b990" d="M12.607,36c-1.167,0-1.522,0.858-1.593,2H36v-2H12.607z"/><path fill="#ffecb3" d="M14 11H35V15.998000000000001H14z"/><path fill="#311b92" d="M38,36h-2v7c0.188,0,0.5,0,1,0c2,0,2-2,2-2v-5.998C39,35.553,38.553,36,38,36z"/><path fill="#43a047" d="M48,38c0,5.523-4.478,10-10,10c-5.523,0-10-4.477-10-10s4.477-10,10-10C43.522,28,48,32.477,48,38"/><path fill="#fff" d="M36 32H40V44H36z"/><path fill="#fff" d="M32 36H44V40H32z"/></svg>