<svg xmlns="http://www.w3.org/2000/svg" viewBox="0 0 24 24" width="100px" height="100px"><path d="M12 3A9 9 0 1 0 12 21A9 9 0 1 0 12 3Z" opacity=".3"/><path d="M12,22C6.5,22,2,17.5,2,12C2,6.5,6.5,2,12,2c5.5,0,10,4.5,10,10C22,17.5,17.5,22,12,22z M12,4c-4.4,0-8,3.6-8,8s3.6,8,8,8 s8-3.6,8-8S16.4,4,12,4z"/><path d="M15.5 16H13V8h2.5c1.4 0 2.5 1.1 2.5 2.5v3C18 14.9 16.9 16 15.5 16zM15 14h.5c.3 0 .5-.2.5-.5v-3c0-.3-.2-.5-.5-.5H15V14zM8.5 16C7.1 16 6 14.9 6 13.5h2C8 13.8 8.2 14 8.5 14S9 13.8 9 13.5C9 13 8.6 13 8.6 13v-2c1.2 0 2.4.9 2.4 2.5C11 14.9 9.9 16 8.5 16z"/><path d="M8.6,13v-2C9,11,9,10.7,9,10.5C9,10.2,8.8,10,8.5,10S8,10.2,8,10.5H6C6,9.1,7.1,8,8.5,8S11,9.1,11,10.5 C11,12.2,9.7,13,8.6,13z"/><path d="M8 11H9V13H8z"/></svg>