<svg xmlns="http://www.w3.org/2000/svg" viewBox="0 0 48 48" width="50px" height="50px"><path fill="#cfd8dc" d="M18,38h-1c-3.3,0-6-2.7-6-6v-7h2v7c0,2.2,1.8,4,4,4h1V38z"/><path fill="#bbdefb" d="M29.5 4A8.5 8.5 0 1 0 29.5 21A8.5 8.5 0 1 0 29.5 4Z"/><path fill="#bbdefb" d="M37 13.899999999999999A7 7 0 1 0 37 27.9 7 7 0 1 0 37 13.899999999999999zM11 14A7 7 0 1 0 11 28 7 7 0 1 0 11 14z"/><path fill="#bbdefb" d="M17.5 7A6.5 6.5 0 1 0 17.5 20A6.5 6.5 0 1 0 17.5 7Z"/><path fill="#bbdefb" d="M25 11.899999999999999A7 7 0 1 0 25 25.9A7 7 0 1 0 25 11.899999999999999Z"/><path fill="#bbdefb" d="M7,24c0,2.2,1.8,4,4,4h25c2.2,0,4-1.8,4-4v-1c0-2.2-1.8-4-4-4H11c-2.2,0-4,1.8-4,4V24z"/><path fill="#ffc107" d="M28 35L37 35 37 33 28 33zM28 41L37 41 37 39 28 39z"/><path fill="#90a4ae" d="M29 32L25 32 22 35 22 39 25 42 29 42z"/><path fill="#546e7a" d="M22 35L18 35 18 39 22 39zM32 44L28 44 28 30 32 30z"/></svg>