<?xml version="1.0"?><svg fill="#000000" xmlns="http://www.w3.org/2000/svg" viewBox="0 0 24 24" width="300px" height="300px">    <path d="M 4 4 C 2.895 4 2 4.895 2 6 L 2 18 C 2 19.105 2.895 20 4 20 L 12.183594 20 C 12.071594 19.686 12 19.352 12 19 C 12 18.546 12.104109 18.118375 12.287109 17.734375 C 12.451109 17.393375 12.204172 17 11.826172 17 L 6.0214844 17 C 5.6054844 17 5.3729063 16.521359 5.6289062 16.193359 L 8.1171875 12.990234 C 8.3131875 12.738234 8.6934844 12.733516 8.8964844 12.978516 L 11 15.509766 L 14.097656 11.517578 C 14.299656 11.256578 14.694578 11.261391 14.892578 11.525391 L 16.398438 13.533203 C 16.914438 12.623203 17.881 12 19 12 C 19.917 12 20.738063 12.413453 21.289062 13.064453 C 21.532062 13.351453 22 13.174828 22 12.798828 L 22 6 C 22 4.895 21.105 4 20 4 L 4 4 z M 19 14 C 18.448 14 18 14.448 18 15 L 18 18 L 15 18 C 14.448 18 14 18.448 14 19 C 14 19.552 14.448 20 15 20 L 18 20 L 18 23 C 18 23.552 18.448 24 19 24 C 19.552 24 20 23.552 20 23 L 20 20 L 23 20 C 23.552 20 24 19.552 24 19 C 24 18.448 23.552 18 23 18 L 20 18 L 20 15 C 20 14.448 19.552 14 19 14 z"/></svg>