<svg fill="#000000" xmlns="http://www.w3.org/2000/svg" viewBox="0 0 16 16" width="300px" height="300px"><path d="M 7.5 1 C 7.222656 1 7 1.222656 7 1.5 C 7 1.777344 7.222656 2 7.5 2 C 7.777344 2 8 1.777344 8 1.5 C 8 1.222656 7.777344 1 7.5 1 Z M 5.207031 1.457031 C 5.140625 1.457031 5.074219 1.46875 5.011719 1.492188 C 4.890625 1.546875 4.792969 1.644531 4.742188 1.765625 C 4.691406 1.886719 4.691406 2.027344 4.742188 2.148438 C 4.847656 2.402344 5.140625 2.523438 5.394531 2.417969 C 5.648438 2.3125 5.769531 2.019531 5.664063 1.765625 C 5.589844 1.578125 5.40625 1.457031 5.207031 1.457031 Z M 9.804688 1.457031 C 9.601563 1.453125 9.414063 1.574219 9.335938 1.765625 C 9.230469 2.019531 9.351563 2.3125 9.605469 2.417969 C 9.859375 2.523438 10.152344 2.402344 10.257813 2.148438 C 10.308594 2.027344 10.308594 1.886719 10.257813 1.765625 C 10.207031 1.644531 10.109375 1.546875 9.988281 1.492188 C 9.929688 1.46875 9.867188 1.457031 9.804688 1.457031 Z M 3.265625 2.757813 C 3.128906 2.757813 3 2.808594 2.90625 2.90625 C 2.710938 3.097656 2.710938 3.417969 2.90625 3.609375 C 3.097656 3.804688 3.417969 3.804688 3.609375 3.609375 C 3.804688 3.417969 3.804688 3.097656 3.609375 2.90625 C 3.519531 2.8125 3.394531 2.757813 3.265625 2.757813 Z M 11.75 2.757813 C 11.613281 2.753906 11.484375 2.808594 11.390625 2.90625 C 11.195313 3.097656 11.195313 3.417969 11.390625 3.609375 C 11.582031 3.804688 11.902344 3.804688 12.09375 3.609375 C 12.289063 3.417969 12.289063 3.097656 12.09375 2.90625 C 12.003906 2.8125 11.878906 2.761719 11.75 2.757813 Z M 7.5 3 C 5.019531 3 3 5.019531 3 7.5 C 3 9.980469 5.019531 12 7.5 12 C 9.980469 12 12 9.980469 12 7.5 C 12 5.019531 9.980469 3 7.5 3 Z M 7.5 4 C 9.4375 4 11 5.5625 11 7.5 C 11 9.4375 9.4375 11 7.5 11 C 5.5625 11 4 9.4375 4 7.5 C 4 5.5625 5.5625 4 7.5 4 Z M 1.953125 4.703125 C 1.941406 4.703125 1.929688 4.703125 1.917969 4.703125 C 1.730469 4.71875 1.566406 4.835938 1.492188 5.011719 C 1.441406 5.132813 1.441406 5.273438 1.492188 5.394531 C 1.546875 5.519531 1.644531 5.617188 1.765625 5.664063 C 2.019531 5.769531 2.3125 5.648438 2.417969 5.394531 C 2.523438 5.140625 2.402344 4.847656 2.148438 4.742188 C 2.085938 4.714844 2.019531 4.703125 1.953125 4.703125 Z M 13.046875 4.703125 C 12.980469 4.703125 12.914063 4.714844 12.851563 4.742188 C 12.597656 4.847656 12.476563 5.140625 12.582031 5.394531 C 12.6875 5.648438 12.980469 5.769531 13.234375 5.664063 C 13.355469 5.617188 13.453125 5.519531 13.507813 5.394531 C 13.558594 5.273438 13.558594 5.132813 13.503906 5.011719 C 13.429688 4.824219 13.246094 4.703125 13.046875 4.703125 Z M 7.5 5 C 6.125 5 5 6.125 5 7.5 C 5 8.875 6.125 10 7.5 10 C 8.875 10 10 8.875 10 7.5 C 10 6.125 8.875 5 7.5 5 Z M 7.5 6 C 8.335938 6 9 6.664063 9 7.5 C 9 8.335938 8.335938 9 7.5 9 C 6.664063 9 6 8.335938 6 7.5 C 6 6.664063 6.664063 6 7.5 6 Z M 1.5 7 C 1.222656 7 1 7.222656 1 7.5 C 1 7.777344 1.222656 8 1.5 8 C 1.777344 8 2 7.777344 2 7.5 C 2 7.222656 1.777344 7 1.5 7 Z M 13.5 7 C 13.222656 7 13 7.222656 13 7.5 C 13 7.777344 13.222656 8 13.5 8 C 13.777344 8 14 7.777344 14 7.5 C 14 7.222656 13.777344 7 13.5 7 Z M 13.039063 9.296875 C 13.027344 9.296875 13.015625 9.296875 13.003906 9.296875 C 12.816406 9.3125 12.652344 9.429688 12.582031 9.605469 C 12.476563 9.859375 12.597656 10.152344 12.851563 10.257813 C 12.972656 10.308594 13.113281 10.308594 13.234375 10.257813 C 13.355469 10.207031 13.453125 10.109375 13.503906 9.988281 C 13.558594 9.867188 13.558594 9.726563 13.507813 9.605469 C 13.453125 9.480469 13.355469 9.382813 13.234375 9.335938 C 13.171875 9.308594 13.105469 9.292969 13.039063 9.296875 Z M 1.960938 9.296875 C 1.894531 9.296875 1.828125 9.308594 1.765625 9.335938 C 1.644531 9.382813 1.546875 9.480469 1.492188 9.605469 C 1.441406 9.726563 1.441406 9.867188 1.492188 9.988281 C 1.546875 10.109375 1.644531 10.207031 1.765625 10.257813 C 1.886719 10.308594 2.027344 10.308594 2.148438 10.257813 C 2.402344 10.152344 2.523438 9.859375 2.417969 9.605469 C 2.339844 9.421875 2.160156 9.300781 1.960938 9.296875 Z M 3.265625 11.242188 C 3.128906 11.242188 3 11.292969 2.90625 11.390625 C 2.710938 11.582031 2.710938 11.902344 2.90625 12.09375 C 3.097656 12.289063 3.417969 12.289063 3.609375 12.09375 C 3.804688 11.902344 3.804688 11.582031 3.609375 11.390625 C 3.519531 11.296875 3.394531 11.242188 3.265625 11.242188 Z M 11.75 11.242188 C 11.613281 11.238281 11.484375 11.292969 11.390625 11.390625 C 11.195313 11.582031 11.195313 11.902344 11.390625 12.09375 C 11.582031 12.289063 11.902344 12.289063 12.09375 12.09375 C 12.289063 11.902344 12.289063 11.582031 12.09375 11.390625 C 12.003906 11.296875 11.878906 11.246094 11.75 11.242188 Z M 5.214844 12.542969 C 5.007813 12.539063 4.820313 12.660156 4.742188 12.851563 C 4.691406 12.972656 4.691406 13.113281 4.742188 13.234375 C 4.792969 13.355469 4.890625 13.453125 5.011719 13.503906 C 5.132813 13.558594 5.273438 13.558594 5.394531 13.507813 C 5.519531 13.453125 5.617188 13.355469 5.664063 13.234375 C 5.769531 12.980469 5.648438 12.6875 5.394531 12.582031 C 5.335938 12.558594 5.277344 12.542969 5.214844 12.542969 Z M 9.796875 12.542969 C 9.730469 12.542969 9.667969 12.554688 9.605469 12.582031 C 9.351563 12.6875 9.230469 12.980469 9.335938 13.234375 C 9.382813 13.355469 9.480469 13.453125 9.605469 13.507813 C 9.726563 13.558594 9.867188 13.558594 9.988281 13.503906 C 10.109375 13.453125 10.207031 13.355469 10.257813 13.234375 C 10.308594 13.113281 10.308594 12.972656 10.257813 12.851563 C 10.179688 12.664063 10 12.542969 9.796875 12.542969 Z M 7.5 13 C 7.222656 13 7 13.222656 7 13.5 C 7 13.777344 7.222656 14 7.5 14 C 7.777344 14 8 13.777344 8 13.5 C 8 13.222656 7.777344 13 7.5 13 Z"/></svg>