<svg xmlns="http://www.w3.org/2000/svg" viewBox="0 0 48 48" width="100px" height="100px"><path fill="#4CAF50" d="M6,10c0-2.209,1.791-4,4-4h28c2.209,0,4,1.791,4,4v28c0,2.209-1.791,4-4,4H10c-2.209,0-4-1.791-4-4V10z"/><path fill="#C8E6C9" d="M38 15L32 10 32 20z"/><path fill="#C8E6C9" d="M35.414 13.586C35.053 13.223 34.553 13 34 13h-8v4h8c1.105 0 2-.896 2-2C36 14.447 35.776 13.947 35.414 13.586zM38 28L32 23 32 33z"/><path fill="#C8E6C9" d="M35.414 26.586C35.053 26.223 34.553 26 34 26h-8v4h8c1.105 0 2-.896 2-2C36 27.447 35.776 26.947 35.414 26.586zM10 33L16 38 16 28z"/><path fill="#C8E6C9" d="M12.585 34.414C12.947 34.777 13.447 35 14 35h8v-4h-8c-1.105 0-2 .896-2 2C12 33.553 12.224 34.053 12.585 34.414zM10 20L16 25 16 15z"/><path fill="#C8E6C9" d="M12.585,21.414C12.947,21.777,13.447,22,14,22h8v-4h-8c-1.105,0-2,0.896-2,2C12,20.553,12.224,21.053,12.585,21.414z"/></svg>