<svg fill="#000000" xmlns="http://www.w3.org/2000/svg" viewBox="0 0 50 50" width="300px" height="300px"><path d="M 10 2 L 10 10 L 13 10 L 13 45 L 26 45 L 26 48 L 34 48 L 34 40 L 26 40 L 26 43 L 15 43 L 15 34 L 26 34 L 26 37 L 34 37 L 34 29 L 26 29 L 26 32 L 15 32 L 15 22 L 22.953125 22 C 24.429688 24.957031 27.480469 27 31 27 C 35.957031 27 40 22.957031 40 18 C 40 13.042969 35.957031 9 31 9 C 26.042969 9 22 13.042969 22 18 C 22 18.6875 22.085938 19.355469 22.234375 20 L 15 20 L 15 10 L 18 10 L 18 2 Z M 12 4 L 16 4 L 16 8 L 12 8 Z M 31 11 C 34.878906 11 38 14.121094 38 18 C 38 21.878906 34.878906 25 31 25 C 27.121094 25 24 21.878906 24 18 C 24 14.121094 27.121094 11 31 11 Z M 30 14 L 30 17 L 27 17 L 27 19 L 30 19 L 30 22 L 32 22 L 32 19 L 35 19 L 35 17 L 32 17 L 32 14 Z M 28 31 L 32 31 L 32 35 L 28 35 Z"/></svg>