<svg fill="#000000" xmlns="http://www.w3.org/2000/svg" viewBox="0 0 80 80" width="100px" height="100px"><path d="M 31.726563 9 C 26.886719 9 22.535156 11.648438 19.378906 14.222656 C 16.222656 16.800781 14.210938 19.386719 14.210938 19.386719 L 13.308594 20.542969 L 14.71875 20.957031 C 14.71875 20.957031 15.265625 21.109375 15.921875 21.78125 C 16.574219 22.449219 17.273438 23.589844 17.273438 25.75 C 17.273438 28.550781 17.703125 30.8125 17.917969 31.769531 C 17.359375 32.277344 17 32.996094 17 33.800781 C 17 34.449219 17.195313 35.003906 17.355469 35.546875 C 17.433594 35.820313 17.511719 36.074219 17.5625 36.265625 C 17.613281 36.457031 17.625 36.644531 17.625 36.5 C 17.625 37.859375 18.765625 38.921875 20.109375 38.96875 C 20.292969 42.84375 22.160156 46.265625 25 48.519531 L 25 52.25 C 23.558594 52.6875 20.097656 53.804688 16.574219 55.46875 C 14.273438 56.554688 11.960938 57.863281 10.160156 59.414063 C 8.359375 60.964844 7 62.820313 7 65 L 7 71 L 49.636719 71 C 52.238281 76.320313 57.6875 80 64 80 C 72.824219 80 80 72.824219 80 64 C 80 55.175781 72.824219 48 64 48 C 61.410156 48 58.96875 48.632813 56.800781 49.730469 L 56.800781 46.710938 C 59.335938 44.675781 61.003906 41.609375 61.1875 38.136719 C 62.40625 38.042969 63.4375 37.097656 63.4375 35.847656 C 63.4375 36.003906 63.441406 35.835938 63.488281 35.664063 C 63.535156 35.492188 63.605469 35.265625 63.675781 35.019531 C 63.820313 34.53125 64 34.035156 64 33.421875 C 64 32.671875 63.667969 32.003906 63.15625 31.53125 C 63.273438 30.855469 64 26.703125 64 23.699219 C 64 20.441406 62.777344 18.089844 61.125 16.636719 C 59.617188 15.3125 57.847656 14.785156 56.28125 14.6875 C 56.082031 14.347656 55.839844 13.808594 54.816406 13.011719 C 53.507813 11.988281 51.402344 11 48.355469 11 C 45.65625 11 43.132813 11.921875 40.929688 13.152344 C 40.820313 13.140625 40.710938 13.113281 40.605469 13.109375 C 40.332031 12.675781 39.847656 11.996094 38.84375 11.210938 C 37.402344 10.089844 35.089844 9 31.726563 9 Z M 31.726563 11 C 34.664063 11 36.488281 11.910156 37.609375 12.789063 C 38.734375 13.667969 39.105469 14.441406 39.105469 14.441406 L 39.378906 15 L 40 15 C 41.332031 15 43.125 15.507813 44.519531 16.738281 C 45.917969 17.96875 47 19.890625 47 23 C 47 25.789063 46.335938 29.859375 46.140625 31 C 46.136719 31 46.132813 31 46.125 31 C 46.039063 31 46.054688 31.019531 46 31.027344 L 46 28 C 46 24.578125 44.601563 22.277344 43.195313 20.914063 C 41.789063 19.550781 40.316406 19.050781 40.316406 19.050781 L 39.746094 18.859375 L 39.308594 19.277344 C 39.308594 19.277344 38.679688 19.894531 37.160156 20.589844 C 35.640625 21.285156 33.289063 22 30 22 C 28.199219 22 25.828125 22.636719 23.769531 24.074219 C 21.71875 25.507813 20.011719 27.851563 20.003906 31.03125 C 19.949219 31.023438 19.960938 31 19.875 31 C 19.851563 31 19.828125 31.007813 19.804688 31.007813 C 19.601563 30.042969 19.273438 28.160156 19.273438 25.75 C 19.273438 23.132813 18.335938 21.394531 17.355469 20.386719 C 16.9375 19.957031 16.84375 20.03125 16.480469 19.816406 C 17.171875 19.003906 18.457031 17.5625 20.644531 15.777344 C 23.617188 13.351563 27.632813 11 31.726563 11 Z M 48.355469 13 C 50.976563 13 52.59375 13.808594 53.589844 14.589844 C 54.582031 15.367188 54.902344 16.042969 54.902344 16.042969 L 55.175781 16.597656 L 55.800781 16.597656 C 56.976563 16.597656 58.566406 17.050781 59.800781 18.140625 C 61.039063 19.226563 62 20.925781 62 23.699219 C 62 25.964844 61.53125 29 61.296875 30.421875 L 61.296875 28.199219 C 61.296875 25.09375 60.023438 22.992188 58.746094 21.75 C 57.464844 20.507813 56.117188 20.050781 56.117188 20.050781 L 55.542969 19.859375 L 55.105469 20.277344 C 55.105469 20.277344 54.640625 20.738281 53.476563 21.3125 C 52.476563 21.800781 50.972656 22.3125 48.980469 22.550781 C 48.871094 19.199219 47.578125 16.761719 45.84375 15.234375 C 45.21875 14.6875 44.554688 14.269531 43.875 13.949219 C 45.316406 13.367188 46.828125 13 48.355469 13 Z M 40 21.15625 C 40.242188 21.25 40.875 21.449219 41.804688 22.347656 C 42.898438 23.410156 44 25.105469 44 28 L 44 34.304688 L 45.503906 33.421875 C 45.761719 33.273438 46 33.140625 46.167969 33.054688 C 46.1875 33.042969 46.195313 33.042969 46.214844 33.03125 C 46.671875 33.078125 47 33.398438 47 33.796875 L 47 33.800781 C 47 33.875 46.878906 34.460938 46.726563 34.984375 C 46.648438 35.242188 46.570313 35.503906 46.503906 35.742188 C 46.441406 35.980469 46.375 36.148438 46.375 36.5 C 46.375 36.765625 46.15625 37 45.8125 37 L 44 37 L 44 38.367188 C 44 43.789063 40.089844 48.269531 34.941406 49.1875 L 34.65625 49.234375 L 34.441406 49.433594 C 34.050781 49.789063 33.558594 50 33 50 C 32.441406 50 31.949219 49.789063 31.558594 49.433594 L 31.34375 49.234375 L 31.058594 49.1875 C 25.910156 48.269531 22 43.789063 22 38.367188 L 22 37 L 20.1875 37 C 19.84375 37 19.625 36.765625 19.625 36.5 C 19.625 36.148438 19.558594 35.980469 19.492188 35.742188 C 19.425781 35.503906 19.347656 35.242188 19.269531 34.984375 C 19.117188 34.460938 19 33.875 19 33.800781 C 19 33.398438 19.328125 33.078125 19.785156 33.03125 C 19.804688 33.042969 19.8125 33.042969 19.832031 33.054688 C 20 33.140625 20.238281 33.273438 20.496094 33.421875 L 22 34.304688 L 22 31.050781 C 22 28.558594 23.242188 26.882813 24.914063 25.714844 C 26.585938 24.546875 28.710938 24 30 24 C 33.582031 24 36.230469 23.214844 37.992188 22.410156 C 39.300781 21.8125 39.644531 21.445313 40 21.15625 Z M 55.808594 22.167969 C 56.050781 22.261719 56.554688 22.414063 57.351563 23.1875 C 58.320313 24.125 59.296875 25.621094 59.296875 28.199219 L 59.296875 34.046875 L 60.800781 33.167969 C 61.023438 33.039063 61.222656 32.929688 61.367188 32.855469 C 61.726563 32.894531 62 33.113281 62 33.421875 C 62 33.460938 61.894531 33.992188 61.757813 34.457031 C 61.6875 34.691406 61.617188 34.921875 61.558594 35.140625 C 61.5 35.359375 61.4375 35.507813 61.4375 35.847656 C 61.4375 36.035156 61.289063 36.199219 61.03125 36.199219 L 59.296875 36.199219 L 59.296875 37.53125 C 59.296875 42.363281 55.8125 46.351563 51.230469 47.171875 L 50.941406 47.21875 L 50.730469 47.414063 C 50.398438 47.71875 49.972656 47.902344 49.5 47.902344 C 49.023438 47.902344 48.601563 47.71875 48.265625 47.414063 L 48.050781 47.21875 L 47.769531 47.171875 C 46.300781 46.90625 44.953125 46.300781 43.789063 45.460938 C 45.019531 43.582031 45.777344 41.363281 45.890625 38.96875 C 47.234375 38.921875 48.375 37.859375 48.375 36.5 C 48.375 36.644531 48.386719 36.457031 48.4375 36.265625 C 48.488281 36.074219 48.566406 35.820313 48.644531 35.546875 C 48.804688 35.003906 49 34.449219 49 33.800781 C 49 32.980469 48.628906 32.257813 48.058594 31.746094 C 48.210938 30.859375 48.769531 27.519531 48.941406 24.589844 C 51.320313 24.339844 53.121094 23.714844 54.359375 23.105469 C 55.296875 22.644531 55.488281 22.421875 55.808594 22.167969 Z M 27.5 33 C 26.671875 33 26 33.671875 26 34.5 C 26 35.328125 26.671875 36 27.5 36 C 28.328125 36 29 35.328125 29 34.5 C 29 33.671875 28.328125 33 27.5 33 Z M 38.5 33 C 37.671875 33 37 33.671875 37 34.5 C 37 35.328125 37.671875 36 38.5 36 C 39.328125 36 40 35.328125 40 34.5 C 40 33.671875 39.328125 33 38.5 33 Z M 54.5 33 C 53.671875 33 53 33.671875 53 34.5 C 53 35.328125 53.671875 36 54.5 36 C 55.328125 36 56 35.328125 56 34.5 C 56 33.671875 55.328125 33 54.5 33 Z M 42.558594 47.035156 C 43.917969 48.023438 45.488281 48.726563 47.199219 49.066406 C 47.839844 49.558594 48.621094 49.902344 49.5 49.902344 C 50.390625 49.902344 51.1875 49.550781 51.835938 49.046875 C 52.886719 48.832031 53.878906 48.472656 54.800781 48.003906 L 54.800781 50.929688 C 52.953125 52.234375 51.398438 53.921875 50.238281 55.875 C 46.359375 53.941406 42.449219 52.6875 41 52.253906 L 41 48.523438 C 41.5625 48.074219 42.078125 47.570313 42.558594 47.035156 Z M 27 49.824219 C 28.066406 50.382813 29.21875 50.8125 30.441406 51.058594 C 31.148438 51.621094 32.023438 52 33 52 C 33.972656 52 34.84375 51.621094 35.546875 51.0625 C 36.773438 50.820313 37.929688 50.390625 39 49.828125 L 39 55.6875 C 38.878906 55.929688 37.296875 59 33 59 C 28.703125 59 27.121094 55.929688 27 55.6875 Z M 64 50 C 71.742188 50 78 56.257813 78 64 C 78 71.742188 71.742188 78 64 78 C 56.257813 78 50 71.742188 50 64 C 50 56.257813 56.257813 50 64 50 Z M 25 54.355469 L 25 56.234375 L 25.105469 56.449219 C 25.105469 56.449219 27.464844 61 33 61 C 38.535156 61 40.894531 56.449219 40.894531 56.449219 L 41 56.234375 L 41 54.355469 C 42.753906 54.90625 46.097656 56.050781 49.324219 57.648438 C 48.476563 59.597656 48 61.742188 48 64 C 48 65.746094 48.289063 67.425781 48.8125 69 L 9 69 L 9 65 C 9 63.679688 9.890625 62.285156 11.464844 60.929688 C 13.039063 59.574219 15.226563 58.320313 17.425781 57.28125 C 20.453125 55.851563 23.394531 54.859375 25 54.355469 Z M 63 57 L 63 63 L 57 63 L 57 65 L 63 65 L 63 71 L 65 71 L 65 65 L 71 65 L 71 63 L 65 63 L 65 57 Z M 13 65 C 12.449219 65 12 65.449219 12 66 C 12 66.550781 12.449219 67 13 67 C 13.550781 67 14 66.550781 14 66 C 14 65.449219 13.550781 65 13 65 Z M 17 65 C 16.449219 65 16 65.449219 16 66 C 16 66.550781 16.449219 67 17 67 C 17.550781 67 18 66.550781 18 66 C 18 65.449219 17.550781 65 17 65 Z M 21 65 C 20.449219 65 20 65.449219 20 66 C 20 66.550781 20.449219 67 21 67 C 21.550781 67 22 66.550781 22 66 C 22 65.449219 21.550781 65 21 65 Z M 25 65 C 24.449219 65 24 65.449219 24 66 C 24 66.550781 24.449219 67 25 67 C 25.550781 67 26 66.550781 26 66 C 26 65.449219 25.550781 65 25 65 Z M 29 65 C 28.449219 65 28 65.449219 28 66 C 28 66.550781 28.449219 67 29 67 C 29.550781 67 30 66.550781 30 66 C 30 65.449219 29.550781 65 29 65 Z M 33 65 C 32.449219 65 32 65.449219 32 66 C 32 66.550781 32.449219 67 33 67 C 33.550781 67 34 66.550781 34 66 C 34 65.449219 33.550781 65 33 65 Z M 37 65 C 36.449219 65 36 65.449219 36 66 C 36 66.550781 36.449219 67 37 67 C 37.550781 67 38 66.550781 38 66 C 38 65.449219 37.550781 65 37 65 Z M 41 65 C 40.449219 65 40 65.449219 40 66 C 40 66.550781 40.449219 67 41 67 C 41.550781 67 42 66.550781 42 66 C 42 65.449219 41.550781 65 41 65 Z M 45 65 C 44.449219 65 44 65.449219 44 66 C 44 66.550781 44.449219 67 45 67 C 45.550781 67 46 66.550781 46 66 C 46 65.449219 45.550781 65 45 65 Z"/></svg>