<svg xmlns="http://www.w3.org/2000/svg" viewBox="0 0 24 24" width="300px" height="300px"><path d="M16.812 11c-.319 0-.633-.152-.827-.436l-3.961-5.798-4.01 5.802c-.313.454-.937.566-1.391.254-.454-.314-.568-.937-.254-1.391l4.837-7C11.393 2.161 11.7 2 12.028 2c.001 0 .002 0 .003 0 .329.001.637.164.823.436l4.782 7c.312.456.194 1.078-.262 1.39C17.202 10.943 17.006 11 16.812 11zM24 20h-4v4h-2v-4h-4v-2h4v-4h2v4h4V20z"/><path d="M12,19H5.524l-2.21-8h17.372l-0.276,1h2.075l0.479-1.734c0.082-0.301,0.019-0.623-0.169-0.871 C22.605,9.146,22.312,9,21.999,9H2.001C1.688,9,1.395,9.146,1.205,9.395c-0.188,0.248-0.251,0.57-0.169,0.871l2.56,9.266 C3.835,20.396,4.628,21,5.524,21H12V19z"/><path d="M14,16h2v-2c0-1.105,0.895-2,2-2h3.4l0.6-2H2l3,10h7v-2C12,16.895,12.895,16,14,16z" opacity=".3"/></svg>