<?xml version="1.0"?><svg fill="#000000" xmlns="http://www.w3.org/2000/svg" viewBox="0 0 30 30" width="100px" height="100px">    <path d="M 7.984375 3.9863281 A 1.0001 1.0001 0 0 0 7 5 L 7 10 L 5 10 C 3.895 10 3 10.895 3 12 L 3 18 C 3 19.105 3.895 20 5 20 L 7 20 L 7 25 A 1.0001 1.0001 0 1 0 9 25 L 9 5 A 1.0001 1.0001 0 0 0 7.984375 3.9863281 z M 21 9 A 1 1 0 0 0 20 10 L 20 14 L 13 14 L 13 16 L 20 16 L 20 20 A 1 1 0 0 0 21 21 A 1 1 0 0 0 21.728516 20.683594 L 21.730469 20.681641 L 26.697266 15.716797 A 1 1 0 0 0 27 15 A 1 1 0 0 0 26.697266 14.283203 L 21.730469 9.3183594 L 21.728516 9.3164062 A 1 1 0 0 0 21 9 z"/></svg>