<svg fill="#000000" xmlns="http://www.w3.org/2000/svg" viewBox="0 0 26 26" width="50px" height="50px"><path d="M 11.3125 0 C 9.882813 0 8.476563 0.273438 7.46875 1.28125 C 6.808594 1.941406 6.371094 2.855469 6.15625 4 L 3 4 C 1.300781 4 0 5.300781 0 7 L 0 23 C 0 24.699219 1.300781 26 3 26 L 23 26 C 24.488281 26 25.664063 25.011719 25.9375 23.625 C 25.976563 23.425781 26 23.210938 26 23 L 26 7 C 26 5.300781 24.699219 4 23 4 L 22.8125 4 C 21.691406 4 20.257813 3.148438 18.40625 2.125 C 16.554688 1.101563 14.257813 0 11.3125 0 Z M 11.3125 2 C 13.765625 2 15.664063 2.898438 17.4375 3.875 C 17.511719 3.914063 17.582031 3.957031 17.65625 4 L 8.21875 4 C 8.378906 3.398438 8.609375 2.984375 8.875 2.71875 C 9.367188 2.226563 10.140625 2 11.3125 2 Z M 3 6 L 5 6 L 5 8 C 5 8.601563 5.398438 9 6 9 L 6 10 L 8 10 L 8 9 C 8.601563 9 9 8.601563 9 8 L 9 6 L 23 6 C 23.601563 6 24 6.398438 24 7 L 24 19 L 21 19 C 20 19 19.789063 19.085938 19.1875 19.6875 L 17.59375 21.3125 C 17.09375 21.8125 16.800781 22 16 22 L 2 22 L 2 7 C 2 6.398438 2.398438 6 3 6 Z M 12.8125 9 C 12.75 9.015625 12.683594 9.035156 12.625 9.0625 L 7.8125 11 C 7.78125 11.007813 7.75 11.019531 7.71875 11.03125 L 7.625 11.0625 C 7.558594 11.085938 7.496094 11.117188 7.4375 11.15625 C 7.417969 11.164063 7.394531 11.175781 7.375 11.1875 C 7.316406 11.234375 7.265625 11.285156 7.21875 11.34375 C 7.195313 11.363281 7.175781 11.382813 7.15625 11.40625 C 7.15625 11.417969 7.15625 11.425781 7.15625 11.4375 C 7.121094 11.488281 7.089844 11.539063 7.0625 11.59375 C 7.0625 11.605469 7.0625 11.613281 7.0625 11.625 C 7.050781 11.644531 7.039063 11.667969 7.03125 11.6875 C 7.03125 11.699219 7.03125 11.707031 7.03125 11.71875 C 7.015625 11.769531 7.007813 11.820313 7 11.875 C 7 11.886719 7 11.894531 7 11.90625 C 6.988281 12 6.988281 12.09375 7 12.1875 L 7 17.09375 C 6.996094 17.453125 7.1875 17.789063 7.5 17.96875 L 12.5 20.875 C 12.511719 20.886719 12.519531 20.894531 12.53125 20.90625 C 12.550781 20.90625 12.574219 20.90625 12.59375 20.90625 C 12.605469 20.917969 12.613281 20.925781 12.625 20.9375 C 12.644531 20.949219 12.667969 20.960938 12.6875 20.96875 C 12.699219 20.96875 12.707031 20.96875 12.71875 20.96875 C 12.738281 20.96875 12.761719 20.96875 12.78125 20.96875 C 12.792969 20.980469 12.800781 20.988281 12.8125 21 C 12.832031 21 12.855469 21 12.875 21 C 12.886719 21 12.894531 21 12.90625 21 C 12.925781 21 12.949219 21 12.96875 21 C 12.988281 21 13.011719 21 13.03125 21 C 13.042969 21 13.050781 21 13.0625 21 C 13.082031 21 13.105469 21 13.125 21 C 13.210938 20.988281 13.292969 20.96875 13.375 20.9375 C 13.417969 20.917969 13.460938 20.898438 13.5 20.875 L 18.5 17.96875 C 18.8125 17.789063 19.003906 17.453125 19 17.09375 L 19 12.09375 C 18.996094 12.03125 18.984375 11.96875 18.96875 11.90625 C 18.933594 11.703125 18.832031 11.519531 18.6875 11.375 C 18.667969 11.351563 18.648438 11.332031 18.625 11.3125 C 18.613281 11.3125 18.605469 11.3125 18.59375 11.3125 C 18.574219 11.289063 18.554688 11.269531 18.53125 11.25 C 18.425781 11.175781 18.3125 11.125 18.1875 11.09375 L 13.375 9.0625 C 13.226563 9.003906 13.066406 8.984375 12.90625 9 C 12.875 9 12.84375 9 12.8125 9 Z M 13 11.09375 L 15.40625 12.125 L 13.03125 13.125 L 10.59375 12.0625 Z M 9 13.53125 L 12 14.875 L 12 18.25 L 9 16.53125 Z"/></svg>