<svg fill="#000000" xmlns="http://www.w3.org/2000/svg" viewBox="0 0 26 26" width="50px" height="50px"><path d="M 16.59375 0.125 C 15.214844 0.1875 13.902344 0.789063 12.875 1.8125 L 8.84375 5.84375 C 9.476563 5.207031 11.839844 5.621094 12.40625 6.1875 L 14.8125 3.78125 C 15.351563 3.246094 16.058594 2.90625 16.75 2.875 C 17.21875 2.851563 17.882813 2.945313 18.46875 3.53125 C 19.011719 4.078125 19.125 4.726563 19.125 5.15625 C 19.125 5.878906 18.785156 6.621094 18.21875 7.1875 L 14 11.40625 C 12.933594 12.46875 11.28125 12.59375 10.34375 11.65625 C 9.808594 11.121094 8.945313 11.121094 8.40625 11.65625 C 7.871094 12.191406 7.871094 13.054688 8.40625 13.59375 C 9.375 14.558594 10.660156 15.03125 11.96875 15.03125 C 13.382813 15.03125 14.828125 14.484375 15.9375 13.375 L 20.1875 9.125 C 21.265625 8.046875 21.875 6.605469 21.875 5.15625 C 21.875 3.816406 21.351563 2.539063 20.40625 1.59375 C 19.394531 0.582031 18.03125 0.0585938 16.59375 0.125 Z M 10.03125 6.96875 C 8.617188 6.96875 7.171875 7.515625 6.0625 8.625 L 1.8125 12.875 C 0.734375 13.953125 0.125 15.394531 0.125 16.84375 C 0.125 18.1875 0.648438 19.460938 1.59375 20.40625 C 2.605469 21.417969 3.96875 21.941406 5.40625 21.875 C 6.785156 21.8125 8.101563 21.210938 9.125 20.1875 L 13.15625 16.15625 C 12.523438 16.792969 10.164063 16.378906 9.59375 15.8125 L 7.1875 18.21875 C 6.648438 18.753906 5.941406 19.09375 5.25 19.125 C 4.78125 19.148438 4.117188 19.054688 3.53125 18.46875 C 2.988281 17.921875 2.875 17.273438 2.875 16.84375 C 2.875 16.121094 3.214844 15.378906 3.78125 14.8125 L 8 10.59375 C 9.066406 9.53125 10.71875 9.40625 11.65625 10.34375 C 12.191406 10.878906 13.054688 10.878906 13.59375 10.34375 C 14.128906 9.808594 14.128906 8.945313 13.59375 8.40625 C 12.625 7.441406 11.335938 6.96875 10.03125 6.96875 Z M 20 14.1875 C 16.789063 14.1875 14.1875 16.789063 14.1875 20 C 14.1875 23.210938 16.789063 25.8125 20 25.8125 C 23.210938 25.8125 25.8125 23.210938 25.8125 20 C 25.8125 16.789063 23.210938 14.1875 20 14.1875 Z M 19 17 L 21 17 L 21 19 L 23 19 L 23 21 L 21 21 L 21 23 L 19 23 L 19 21 L 17 21 L 17 19 L 19 19 Z"/></svg>