<svg xmlns="http://www.w3.org/2000/svg" viewBox="0 0 48 48" width="100px" height="100px"><path fill="#009688" d="M18.008,32c-1.102,0-1.999-0.896-2-1.999L16,19.998l-4,0.004l0.008,10.003c0.003,3.306,2.694,5.995,6,5.995H37v-4H18.008z"/><path fill="#009688" d="M40.007,10l-6.034,13.41c-0.162,0.359-0.52,0.59-0.912,0.59H18.173c-0.431,0-0.813-0.275-0.948-0.684l-4.86-14.582C11.818,7.099,10.293,6,8.569,6H5.011v4h3.559l5.544,16.632C14.386,27.449,15.149,28,16.011,28H35c0.787,0,1.501-0.462,1.823-1.179L44.394,10H40.007z"/><path fill="#00695C" d="M7,8c0,1.105-0.895,2-2,2S3,9.105,3,8s0.895-2,2-2S7,6.895,7,8"/><path fill="#37474F" d="M34 36c1.657 0 3 1.343 3 3s-1.343 3-3 3-3-1.343-3-3S32.343 36 34 36M19 36c1.657 0 3 1.343 3 3s-1.343 3-3 3-3-1.343-3-3S17.343 36 19 36"/><g><path fill="#607D8B" d="M34 38c.552 0 1 .448 1 1s-.448 1-1 1-1-.448-1-1S33.448 38 34 38M19 38c.552 0 1 .448 1 1s-.448 1-1 1-1-.448-1-1S18.448 38 19 38"/></g><g><path fill="#8BC34A" d="M24 8H28V20H24z"/><path fill="#8BC34A" d="M20 12H32V16H20z"/></g></svg>