<svg xmlns="http://www.w3.org/2000/svg" viewBox="0 0 80 80" width="300px" height="300px"><path fill="#4e7ab5" d="M25.1 64H52.2V66H25.1zM38 9H40V63H38z"/><path fill="#8bb7f0" d="M39,11.5c-1.9,0-3.5-1.6-3.5-3.5s1.6-3.5,3.5-3.5s3.5,1.6,3.5,3.5S40.9,11.5,39,11.5z"/><path fill="#4e7ab5" d="M39 5c1.7 0 3 1.3 3 3s-1.3 3-3 3-3-1.3-3-3S37.3 5 39 5M39 4c-2.2 0-4 1.8-4 4s1.8 4 4 4 4-1.8 4-4S41.2 4 39 4L39 4zM22.4 22H55V24H22.4z"/><path fill="#4e7ab5" d="M22 22H24V42H22z"/><path fill="#4e7ab5" d="M4.4 45.8H24V47.8H4.4z" transform="rotate(-33.688 14.215 46.786)"/><path fill="#4e7ab5" d="M54 23H56V40.8H54z"/><path fill="#4e7ab5" d="M55 40H73V42H55zM24 63.8H26V76H24zM52 63.8H54V76H52z"/><path fill="#8bb7f0" d="M39,26.5c-1.9,0-3.5-1.6-3.5-3.5s1.6-3.5,3.5-3.5s3.5,1.6,3.5,3.5S40.9,26.5,39,26.5z"/><path fill="#4e7ab5" d="M39,20c1.7,0,3,1.3,3,3s-1.3,3-3,3s-3-1.3-3-3S37.3,20,39,20 M39,19c-2.2,0-4,1.8-4,4s1.8,4,4,4 s4-1.8,4-4S41.2,19,39,19L39,19z"/><path fill="#8bb7f0" d="M39,40.5c-1.9,0-3.5-1.6-3.5-3.5s1.6-3.5,3.5-3.5s3.5,1.6,3.5,3.5S40.9,40.5,39,40.5z"/><path fill="#4e7ab5" d="M39,34c1.7,0,3,1.3,3,3s-1.3,3-3,3s-3-1.3-3-3S37.3,34,39,34 M39,33c-2.2,0-4,1.8-4,4s1.8,4,4,4 s4-1.8,4-4S41.2,33,39,33L39,33z"/><path fill="#8bb7f0" d="M39,54.5c-1.9,0-3.5-1.6-3.5-3.5s1.6-3.5,3.5-3.5s3.5,1.6,3.5,3.5S40.9,54.5,39,54.5z"/><path fill="#4e7ab5" d="M39,48c1.7,0,3,1.3,3,3s-1.3,3-3,3s-3-1.3-3-3S37.3,48,39,48 M39,47c-2.2,0-4,1.8-4,4s1.8,4,4,4 s4-1.8,4-4S41.2,47,39,47L39,47z"/><path fill="#8bb7f0" d="M39,68.5c-1.9,0-3.5-1.6-3.5-3.5s1.6-3.5,3.5-3.5s3.5,1.6,3.5,3.5S40.9,68.5,39,68.5z"/><path fill="#4e7ab5" d="M39,62c1.7,0,3,1.3,3,3s-1.3,3-3,3s-3-1.3-3-3S37.3,62,39,62 M39,61c-2.2,0-4,1.8-4,4s1.8,4,4,4 s4-1.8,4-4S41.2,61,39,61L39,61z"/><path fill="#8bb7f0" d="M25,68.5c-1.9,0-3.5-1.6-3.5-3.5s1.6-3.5,3.5-3.5s3.5,1.6,3.5,3.5S26.9,68.5,25,68.5z"/><path fill="#4e7ab5" d="M25,62c1.7,0,3,1.3,3,3s-1.3,3-3,3s-3-1.3-3-3S23.3,62,25,62 M25,61c-2.2,0-4,1.8-4,4s1.8,4,4,4 s4-1.8,4-4S27.2,61,25,61L25,61z"/><path fill="#8bb7f0" d="M53,68.5c-1.9,0-3.5-1.6-3.5-3.5s1.6-3.5,3.5-3.5s3.5,1.6,3.5,3.5S54.9,68.5,53,68.5z"/><path fill="#4e7ab5" d="M53,62c1.7,0,3,1.3,3,3s-1.3,3-3,3s-3-1.3-3-3S51.3,62,53,62 M53,61c-2.2,0-4,1.8-4,4s1.8,4,4,4 s4-1.8,4-4S55.2,61,53,61L53,61z"/><g><path fill="#8bb7f0" d="M55,26.5c-1.9,0-3.5-1.6-3.5-3.5s1.6-3.5,3.5-3.5s3.5,1.6,3.5,3.5S56.9,26.5,55,26.5z"/><path fill="#4e7ab5" d="M55,20c1.7,0,3,1.3,3,3s-1.3,3-3,3s-3-1.3-3-3S53.3,20,55,20 M55,19c-2.2,0-4,1.8-4,4s1.8,4,4,4 s4-1.8,4-4S57.2,19,55,19L55,19z"/></g><g><path fill="#8bb7f0" d="M23,26.5c-1.9,0-3.5-1.6-3.5-3.5s1.6-3.5,3.5-3.5s3.5,1.6,3.5,3.5S24.9,26.5,23,26.5z"/><path fill="#4e7ab5" d="M23,20c1.7,0,3,1.3,3,3s-1.3,3-3,3s-3-1.3-3-3S21.3,20,23,20 M23,19c-2.2,0-4,1.8-4,4s1.8,4,4,4 s4-1.8,4-4S25.2,19,23,19L23,19z"/></g><g><path fill="#8bb7f0" d="M23,44.5c-1.9,0-3.5-1.6-3.5-3.5s1.6-3.5,3.5-3.5s3.5,1.6,3.5,3.5S24.9,44.5,23,44.5z"/><path fill="#4e7ab5" d="M23,38c1.7,0,3,1.3,3,3s-1.3,3-3,3s-3-1.3-3-3S21.3,38,23,38 M23,37c-2.2,0-4,1.8-4,4s1.8,4,4,4 s4-1.8,4-4S25.2,37,23,37L23,37z"/></g><g><path fill="#8bb7f0" d="M7,54.5c-1.9,0-3.5-1.6-3.5-3.5s1.6-3.5,3.5-3.5s3.5,1.6,3.5,3.5S8.9,54.5,7,54.5z"/><path fill="#4e7ab5" d="M7,48c1.7,0,3,1.3,3,3s-1.3,3-3,3s-3-1.3-3-3S5.3,48,7,48 M7,47c-2.2,0-4,1.8-4,4s1.8,4,4,4 s4-1.8,4-4S9.2,47,7,47L7,47z"/></g><g><path fill="#8bb7f0" d="M55,44.5c-1.9,0-3.5-1.6-3.5-3.5s1.6-3.5,3.5-3.5s3.5,1.6,3.5,3.5S56.9,44.5,55,44.5z"/><path fill="#4e7ab5" d="M55,38c1.7,0,3,1.3,3,3s-1.3,3-3,3s-3-1.3-3-3S53.3,38,55,38 M55,37c-2.2,0-4,1.8-4,4s1.8,4,4,4 s4-1.8,4-4S57.2,37,55,37L55,37z"/></g><g><path fill="#8bb7f0" d="M73,44.5c-1.9,0-3.5-1.6-3.5-3.5s1.6-3.5,3.5-3.5s3.5,1.6,3.5,3.5S74.9,44.5,73,44.5z"/><path fill="#4e7ab5" d="M73,38c1.7,0,3,1.3,3,3s-1.3,3-3,3s-3-1.3-3-3S71.3,38,73,38 M73,37c-2.2,0-4,1.8-4,4s1.8,4,4,4 s4-1.8,4-4S75.2,37,73,37L73,37z"/></g></svg>