<svg xmlns="http://www.w3.org/2000/svg" viewBox="0 0 48 48" width="50px" height="50px"><path fill="#78909c" d="M6 8H42V34H6z"/><path fill="#e5e5e5" d="M8 10H40V31H8z"/><path fill="#546e7a" d="M21 34H27V38H21z"/><path fill="#546e7a" d="M33,37c-2,0-16,0-18,0s-2,2-2,2v1h22v-1C35,39,35,37,33,37z"/><path fill="#ff3d00" d="M48,38c0,5.5-4.5,10-10,10s-10-4.5-10-10s4.5-10,10-10S48,32.5,48,38"/><path fill="#fff" d="M43.3 34.8L41.2 32.7 38 35.9 34.8 32.7 32.7 34.8 35.9 38 32.7 41.2 34.8 43.3 38 40.1 41.2 43.3 43.3 41.2 40.1 38z"/><path fill="#263238" d="M6 11H8V40H6z"/><path fill="#90a4ae" d="M3 3H11V14H3z"/><path fill="#455a64" d="M6 3H8V10H6z"/></svg>