<svg fill="#000000" xmlns="http://www.w3.org/2000/svg" viewBox="0 0 32 32" width="100px" height="100px"><path d="M 9.378906 3 L 5.511719 9.523438 L 11.171875 11.453125 L 6.625 16.058594 L 11.148438 20.503906 L 5.59375 22.425781 L 8.882813 29 L 20.621094 29 L 27.117188 15.984375 L 20.617188 3 Z M 10.515625 5 L 17.578125 5 L 14.589844 7.976563 L 8.753906 7.976563 Z M 19.722656 5.683594 L 23.488281 13.203125 L 16.589844 8.804688 Z M 13.253906 12.191406 L 14 12.476563 L 14 19.472656 L 13.246094 19.761719 L 9.457031 16.035156 Z M 16 13.238281 L 23.1875 15.984375 L 16 18.714844 Z M 23.492188 18.769531 L 19.722656 26.3125 L 16.589844 23.171875 Z M 8.617188 24 L 14.585938 24 L 17.585938 27 L 10.117188 27 Z"/></svg>