<svg fill="#000000" xmlns="http://www.w3.org/2000/svg" viewBox="0 0 24 24" width="100px" height="100px"><path d="M 4 2 L 4 9 L 2 9 L 2 18 L 4 18 L 4 22 L 20 22 L 20 7 L 15 2 L 4 2 z M 6 4 L 14 4 L 14 8 L 18 8 L 18 9 L 6 9 L 6 4 z M 9 11 L 10.5 11 C 11.328 11 12 11.672 12 12.5 C 12 12.886 11.850328 13.234 11.611328 13.5 C 11.850328 13.766 12 14.114 12 14.5 C 12 15.328 11.328 16 10.5 16 L 9 16 L 9 11 z M 15 11 L 16 11 L 16 14.5 C 16 15.328 15.328 16 14.5 16 C 13.672 16 13 15.328 13 14.5 L 14 14.5 C 14 14.776 14.224 15 14.5 15 C 14.776 15 15 14.776 15 14.5 L 15 11 z M 6 11.001953 C 7.864 10.971953 8 12.781859 8 13.130859 L 8 13.9375 C 8 14.2795 7.9138125 16.039047 6.0078125 15.998047 C 3.9668125 15.955047 4 14.2785 4 13.9375 L 4 13.130859 C 4 12.779859 4.167 11.030953 6 11.001953 z M 6.0019531 11.822266 C 5.0569531 11.841266 5 12.891047 5 13.123047 L 5 13.9375 C 5 14.1595 5.1547188 15.196687 6.0117188 15.179688 C 6.8337188 15.163687 7 14.1585 7 13.9375 L 7 13.123047 C 7 12.891047 6.8879531 11.804266 6.0019531 11.822266 z M 10 12 L 10 13 L 10.5 13 C 10.776 13 11 12.776 11 12.5 C 11 12.224 10.776 12 10.5 12 L 10 12 z M 10 14 L 10 15 L 10.5 15 C 10.776 15 11 14.776 11 14.5 C 11 14.224 10.776 14 10.5 14 L 10 14 z M 6 18 L 18 18 L 18 20 L 6 20 L 6 18 z"/></svg>