<svg fill="#000000" xmlns="http://www.w3.org/2000/svg" viewBox="0 0 32 32" width="100px" height="100px"><path d="M 4 5 L 4 27 L 16.59375 27 C 17.789063 29.917969 20.660156 32 24 32 C 28.40625 32 32 28.40625 32 24 C 32 21.050781 30.386719 18.480469 28 17.09375 L 28 5 Z M 6 7 L 26 7 L 26 9 L 6 9 Z M 6 11 L 26 11 L 26 16.28125 C 25.355469 16.113281 24.695313 16 24 16 C 21.984375 16 20.128906 16.761719 18.71875 18 L 13 18 L 13 20 L 17.09375 20 C 16.40625 21.179688 16 22.542969 16 24 C 16 24.339844 16.019531 24.667969 16.0625 25 L 6 25 Z M 9 14 L 9 16 L 11 16 L 11 14 Z M 13 14 L 13 16 L 23 16 L 23 14 Z M 9 18 L 9 20 L 11 20 L 11 18 Z M 24 18 C 27.324219 18 30 20.675781 30 24 C 30 27.324219 27.324219 30 24 30 C 20.675781 30 18 27.324219 18 24 C 18 20.675781 20.675781 18 24 18 Z M 23 20 L 23 23 L 20 23 L 20 25 L 23 25 L 23 28 L 25 28 L 25 25 L 28 25 L 28 23 L 25 23 L 25 20 Z"/></svg>