<?xml version="1.0"?><svg fill="#000000" xmlns="http://www.w3.org/2000/svg" viewBox="0 0 30 30" width="300px" height="300px">    <path d="M 12.236328 4 C 11.478328 4 10.786266 4.4274688 10.447266 5.1054688 L 10.052734 5.8945312 C 9.7137344 6.5715313 9.0206719 7 8.2636719 7 L 4 7 C 2.895 7 2 7.895 2 9 L 2 22 C 2 23.105 2.895 24 4 24 L 26 24 C 27.105 24 28 23.105 28 22 L 28 9 C 28 7.895 27.105 7 26 7 L 21.736328 7 C 20.978328 7 20.286266 6.5725312 19.947266 5.8945312 L 19.552734 5.1054688 C 19.213734 4.4284687 18.520672 4 17.763672 4 L 12.236328 4 z M 6 5 C 5.448 5 5 5.448 5 6 L 8 6 C 8 5.448 7.552 5 7 5 L 6 5 z M 15 9 C 15.552 9 16 9.448 16 10 L 16 14 L 20 14 C 20.552 14 21 14.448 21 15 C 21 15.552 20.552 16 20 16 L 16 16 L 16 20 C 16 20.552 15.552 21 15 21 C 14.448 21 14 20.552 14 20 L 14 16 L 10 16 C 9.448 16 9 15.552 9 15 C 9 14.448 9.448 14 10 14 L 14 14 L 14 10 C 14 9.448 14.448 9 15 9 z"/></svg>