<svg xmlns="http://www.w3.org/2000/svg" viewBox="0 0 48 48" width="50px" height="50px"><path fill="#42A5F5" d="M37 45L11 45 11 31.004 14 15 34 15 37 31.004z"/><path fill="#FDD835" d="M32 38H34V45H32zM29 38H31V45H29zM26 38H28V45H26zM23 38H25V45H23zM20 38H22V45H20zM17 38H19V45H17zM14 38H16V45H14z"/><path fill="#1E88E5" d="M37 31L11 31 14 15 34 15z"/><g><path fill="#0D47A1" d="M30 24L18 24 17 29 17 34 31 34 31 29z"/><path fill="#0D47A1" d="M27 4L21 4 20 26 28 26z"/></g><path fill="#1565C0" d="M17 29H31V34H17z"/></svg>