<svg fill="#000000" xmlns="http://www.w3.org/2000/svg" viewBox="0 0 32 32" width="100px" height="100px"><path d="M 16 3 C 14.895 3 14 3.895 14 5 C 14 5.0871492 14.014593 5.1697056 14.025391 5.2539062 C 12.683687 5.5919723 11.451775 6.2657478 10.429688 7.2578125 C 8.8636875 8.7768125 8 10.817 8 13 L 8 22 C 8 22.552 7.551 23 7 23 L 6 23 L 6 25 L 7 25 L 13.369141 25 C 13.250332 25.340961 13 25.645765 13 26 C 13 26.722222 13.235347 27.457882 13.751953 28.039062 C 14.268559 28.620244 15.083334 29 16 29 C 16.916666 29 17.731441 28.620244 18.248047 28.039062 C 18.764653 27.457881 19 26.722222 19 26 C 19 25.645765 18.749668 25.340961 18.630859 25 L 25 25 L 26 25 L 26 23 L 25 23 C 24.449 23 24 22.552 24 22 L 24 21 L 22 21 L 22 22 C 22 22.352391 22.071437 22.685609 22.183594 23 L 16 23 L 9.8164062 23 C 9.9285627 22.685609 10 22.352391 10 22 L 10 13 C 10 11.362 10.647266 9.8333594 11.822266 8.6933594 C 12.996266 7.5533594 14.546594 6.9429063 16.183594 7.0039062 C 17.820594 7.0529062 19.290656 7.82 20.347656 9 L 22.816406 9 C 21.740054 7.1793859 20.007022 5.8182999 17.972656 5.2714844 C 17.984976 5.181693 18 5.0931894 18 5 C 18 3.895 17.105 3 16 3 z M 22 11 L 22 14 L 19 14 L 19 16 L 22 16 L 22 19 L 24 19 L 24 16 L 27 16 L 27 14 L 24 14 L 24 11 L 22 11 z M 16 25 C 16.416666 25 16.601893 25.120244 16.751953 25.289062 C 16.902014 25.457881 17 25.722222 17 26 C 17 26.277778 16.90201 26.542118 16.751953 26.710938 C 16.601893 26.879756 16.416666 27 16 27 C 15.583334 27 15.398107 26.879756 15.248047 26.710938 C 15.097986 26.542119 15 26.277778 15 26 C 15 25.722222 15.097986 25.457882 15.248047 25.289062 C 15.398107 25.120244 15.583334 25 16 25 z"/></svg>