<svg fill="#000000" xmlns="http://www.w3.org/2000/svg" viewBox="0 0 50 50" width="50px" height="50px"><path d="M 12.46875 4 C 12.140625 4.007813 11.800781 4.023438 11.46875 4.0625 C 8.816406 4.375 6.105469 5.707031 3.90625 7.90625 C -0.5 12.3125 -1.371094 18.941406 2.40625 22.71875 C 4.375 24.6875 7.160156 25.347656 9.96875 24.9375 C 9.390625 26.589844 9 28.300781 9 30.09375 C 9 38.933594 16.160156 46.09375 25 46.09375 C 33.839844 46.09375 41 38.933594 41 30.09375 C 41 28.300781 40.609375 26.589844 40.03125 24.9375 C 42.839844 25.347656 45.625 24.6875 47.59375 22.71875 C 47.605469 22.707031 47.613281 22.699219 47.625 22.6875 C 51.375 18.820313 50.492188 12.304688 46.09375 7.90625 C 41.6875 3.5 35.058594 2.628906 31.28125 6.40625 C 29.167969 8.519531 28.625 11.632813 29.21875 14.6875 C 27.875 14.28125 26.457031 14 25 14 C 23.511719 14 22.066406 14.277344 20.6875 14.65625 C 21.355469 11.59375 20.78125 8.46875 18.59375 6.28125 C 16.941406 4.675781 14.765625 3.949219 12.46875 4 Z M 12.40625 6 C 14.242188 5.949219 15.953125 6.535156 17.1875 7.71875 C 19.167969 9.699219 19.5625 12.707031 18.375 15.71875 C 18.214844 16.09375 18.296875 16.53125 18.585938 16.820313 C 18.875 17.109375 19.3125 17.191406 19.6875 17.03125 C 21.257813 16.386719 23.132813 16 25 16 C 26.867188 16 28.734375 16.382813 30.15625 17.09375 C 30.523438 17.273438 30.964844 17.210938 31.269531 16.933594 C 31.570313 16.660156 31.675781 16.226563 31.53125 15.84375 C 30.433594 12.832031 30.863281 9.667969 32.71875 7.8125 C 35.539063 4.992188 40.890625 5.515625 44.6875 9.3125 C 48.480469 13.105469 49.015625 18.34375 46.1875 21.28125 C 44.390625 23.078125 41.628906 23.566406 38.8125 22.65625 C 38.425781 22.519531 37.992188 22.632813 37.722656 22.945313 C 37.457031 23.253906 37.402344 23.699219 37.59375 24.0625 C 38.523438 25.917969 39 27.9375 39 30.09375 C 39 37.855469 32.761719 44.09375 25 44.09375 C 17.238281 44.09375 11 37.855469 11 30.09375 C 11 27.9375 11.476563 25.917969 12.40625 24.0625 C 12.597656 23.699219 12.542969 23.253906 12.277344 22.945313 C 12.007813 22.632813 11.574219 22.519531 11.1875 22.65625 C 8.371094 23.566406 5.609375 23.078125 3.8125 21.28125 C 0.992188 18.460938 1.515625 13.109375 5.3125 9.3125 C 7.214844 7.410156 9.476563 6.328125 11.625 6.0625 C 11.890625 6.03125 12.144531 6.007813 12.40625 6 Z"/></svg>