<svg xmlns="http://www.w3.org/2000/svg" viewBox="0 0 128 128" width="50px" height="50px"><path fill="#444b54" d="M118.9,78.2l-10-35c-0.4-1.3-1.5-2.2-2.9-2.2H22c-1.3,0-2.5,0.9-2.9,2.2l-10,35c-0.3,0.9-0.1,1.9,0.5,2.6 S11.1,82,12,82h104c0.9,0,1.8-0.4,2.4-1.2C119,80.1,119.1,79.1,118.9,78.2z"/><path fill="#fff" d="M64,65c-6.6,0-12-4-12-9s5.4-9,12-9s12,4,12,9S70.6,65,64,65z"/><path fill="#444b54" d="M118,47c-1.7,0-3-1.3-3-3s1.3-3,3-3c1.7,0,3-1.3,3-3s-1.3-3-3-3H10c-1.7,0-3,1.3-3,3s1.3,3,3,3 c1.7,0,3,1.3,3,3s-1.3,3-3,3c-5,0-9-4-9-9s4-9,9-9h108c5,0,9,4,9,9S123,47,118,47z"/><path fill="#71c2ff" d="M94,61c-18.2,0-33,14.8-33,33s14.8,33,33,33s33-14.8,33-33S112.2,61,94,61z"/><path fill="#fff" d="M104,97H84c-1.7,0-3-1.3-3-3s1.3-3,3-3h20c1.7,0,3,1.3,3,3S105.7,97,104,97z"/><path fill="#fff" d="M94,107c-1.7,0-3-1.3-3-3V84c0-1.7,1.3-3,3-3s3,1.3,3,3v20C97,105.7,95.7,107,94,107z"/></svg>