<?xml version="1.0"?><svg fill="#000000" xmlns="http://www.w3.org/2000/svg" viewBox="0 0 50 50" width="100px" height="100px">    <path d="M 7 2 L 7 48 L 34.037109 48 C 35.706061 49.248916 37.767371 50 40 50 C 45.5 50 50 45.5 50 40 C 50 35.544504 47.045551 31.747182 43 30.464844 L 43 14.599609 L 30.400391 2 L 7 2 z M 30 4.4003906 L 40.599609 15 L 30 15 L 30 4.4003906 z M 27 19 C 31.971 19 36 23.029 36 28 L 27 28 L 27 19 z M 23 23 L 23 32 L 32 32 C 32 32.89333 31.865365 33.753789 31.623047 34.568359 C 31.124984 35.332341 30.723027 36.16543 30.447266 37.052734 C 28.828097 39.434351 26.097337 41 23 41 C 18.029 41 14 36.971 14 32 C 14 27.029 18.029 23 23 23 z M 40 32 C 44.4 32 48 35.6 48 40 C 48 44.4 44.4 48 40 48 C 35.6 48 32 44.4 32 40 C 32 35.6 35.6 32 40 32 z M 40 34.099609 C 39.4 34.099609 39 34.499609 39 35.099609 L 39 39 L 35.099609 39 C 34.499609 39 34.099609 39.4 34.099609 40 C 34.099609 40.6 34.499609 41 35.099609 41 L 39 41 L 39 44.900391 C 39 45.500391 39.4 45.900391 40 45.900391 C 40.6 45.900391 41 45.500391 41 44.900391 L 41 41 L 44.900391 41 C 45.500391 41 45.900391 40.6 45.900391 40 C 45.900391 39.4 45.500391 39 44.900391 39 L 41 39 L 41 35.099609 C 41 34.499609 40.6 34.099609 40 34.099609 z"/></svg>