<svg xmlns="http://www.w3.org/2000/svg" viewBox="0 0 128 128" width="500px" height="500px"><path fill="#fff" d="M103,69H25c-3.3,0-6,2.7-6,6s2.7,6,6,6h3.3l4.5,34.3c0.7,5,4.9,8.7,9.9,8.7h42.5c5,0,9.3-3.7,9.9-8.7L99.7,81h3.3c3.3,0,6-2.7,6-6S106.3,69,103,69z"/><path fill="#444b54" d="M103 66H25c-5 0-9 4-9 9s4 9 9 9h.7l4.2 31.7c.9 6.4 6.4 11.3 12.9 11.3h42.5c6.5 0 12-4.9 12.9-11.3l4.2-31.7h.7c5 0 9-4 9-9S108 66 103 66zM92.2 114.9c-.5 3.5-3.4 6.1-6.9 6.1H42.8c-3.5 0-6.5-2.6-6.9-6.1L31.7 84h64.5L92.2 114.9zM103 78H25c-1.7 0-3-1.3-3-3s1.3-3 3-3h78c1.7 0 3 1.3 3 3S104.7 78 103 78zM76.1 34.9c-1.2-1.2-3.1-1.2-4.2 0L67 39.8V16c0-1.7-1.3-3-3-3s-3 1.3-3 3v23.8l-4.9-4.9c-1.2-1.2-3.1-1.2-4.2 0-1.2 1.2-1.2 3.1 0 4.2l10 10c0 0 0 0 0 0 .3.3.6.5 1 .6.4.2.8.2 1.1.2.8 0 1.5-.3 2.1-.9l10-10C77.3 37.9 77.3 36.1 76.1 34.9zM112 51h-11c-1.7 0-3-1.3-3-3s1.3-3 3-3h11c1.7 0 3 1.3 3 3S113.7 51 112 51zM27 51H16c-1.7 0-3-1.3-3-3s1.3-3 3-3h11c1.7 0 3 1.3 3 3S28.7 51 27 51zM96 32.5c-1 0-2-.5-2.6-1.5-.8-1.4-.3-3.3 1.1-4.1l8.7-5c1.4-.8 3.3-.3 4.1 1.1.8 1.4.3 3.3-1.1 4.1l-8.7 5C97.1 32.4 96.6 32.5 96 32.5zM32 32.5c-.5 0-1-.1-1.5-.4l-8.7-5c-1.4-.8-1.9-2.7-1.1-4.1.8-1.4 2.7-1.9 4.1-1.1l8.7 5c1.4.8 1.9 2.7 1.1 4.1C34 32 33 32.5 32 32.5zM64 1A3 3 0 1 0 64 7 3 3 0 1 0 64 1zM124 45A3 3 0 1 0 124 51 3 3 0 1 0 124 45zM4 45A3 3 0 1 0 4 51 3 3 0 1 0 4 45z"/></svg>