<svg fill="#000000" xmlns="http://www.w3.org/2000/svg" viewBox="0 0 50 50" width="500px" height="500px"><path d="M 33.988281 3 A 1.0001 1.0001 0 0 0 33.746094 3.0332031 L 14.78125 8.0234375 A 1.0001 1.0001 0 0 0 14.755859 8.03125 L 14.746094 8.0332031 A 1.0001 1.0001 0 0 0 14.681641 8.0527344 A 1.0001 1.0001 0 0 0 14.675781 8.0546875 A 1.0001 1.0001 0 0 0 14.277344 8.3007812 L 2.359375 18.232422 A 1.0001 1.0001 0 1 0 3.640625 19.767578 L 4 19.46875 L 4 35 A 1.0001 1.0001 0 0 0 4.5703125 35.902344 L 25.513672 45.875 A 1.0003547 1.0003547 0 0 0 25.519531 45.878906 L 25.570312 45.902344 A 1.0003547 1.0003547 0 0 0 25.650391 45.935547 A 1.0001 1.0001 0 0 0 25.673828 45.945312 A 1.0003547 1.0003547 0 0 0 26.056641 45.998047 A 1.0001 1.0001 0 0 0 26.060547 45.998047 A 1.0003547 1.0003547 0 0 0 26.253906 45.966797 A 1.0001 1.0001 0 0 0 26.294922 45.955078 A 1.0003547 1.0003547 0 0 0 26.347656 45.9375 A 1.0001 1.0001 0 0 0 26.359375 45.931641 A 1.0003547 1.0003547 0 0 0 26.427734 45.904297 L 45.427734 36.904297 A 1.0001 1.0001 0 0 0 46 36 L 46 21.505859 L 47.388672 20.921875 A 1.0001 1.0001 0 0 0 47.775391 19.369141 L 34.775391 3.3691406 A 1.0001 1.0001 0 0 0 33.988281 3 z M 33.630859 5.1308594 L 45.382812 19.595703 L 28.365234 26.761719 L 16.626953 9.6054688 L 33.630859 5.1308594 z M 14.794922 10.472656 L 25.048828 25.458984 L 25.003906 43.417969 L 6 34.369141 L 6 18 A 1.0001 1.0001 0 0 0 5.984375 17.814453 L 14.794922 10.472656 z M 15.755859 18.794922 C 14.907859 18.720922 14.126219 19.138766 13.699219 19.884766 L 12.365234 22.216797 L 14.064453 23.273438 L 15.435547 20.878906 C 15.471547 20.816906 15.513406 20.785156 15.566406 20.785156 C 15.570406 20.785156 15.574125 20.786109 15.578125 20.787109 C 15.644125 20.792109 15.693656 20.836969 15.722656 20.917969 L 17.582031 26.117188 L 16 26.634766 L 20 29.332031 L 21 25 L 19.482422 25.496094 L 17.605469 20.244141 C 17.312469 19.425141 16.603859 18.869922 15.755859 18.794922 z M 44 22.349609 L 44 35.367188 L 27.003906 43.417969 L 27.041016 28.371094 L 27.173828 28.564453 A 1.0001 1.0001 0 0 0 28.388672 28.921875 L 44 22.349609 z M 13 23.40625 L 8.6875 25.140625 L 10.166016 26.060547 L 8.5839844 28.826172 C 8.2799844 29.358172 8.2049531 30.00175 8.3769531 30.59375 C 8.5479531 31.18075 8.9357969 31.656547 9.4667969 31.935547 L 12 33.263672 L 12 31.005859 L 10.396484 30.164062 C 10.334484 30.131063 10.307875 30.06625 10.296875 30.03125 C 10.286875 29.99725 10.269312 29.909312 10.320312 29.820312 L 11.865234 27.119141 L 13.347656 28.042969 L 13 23.40625 z M 21.085938 29.974609 L 19.183594 30.597656 L 20.839844 35.224609 C 20.895844 35.381609 20.813391 35.474813 20.775391 35.507812 C 20.706391 35.568812 20.662906 35.546297 20.628906 35.529297 L 16 33.101562 L 16 31 L 13 33.095703 L 16 37 L 16 35.359375 L 19.699219 37.298828 C 20.012219 37.463828 20.3505 37.544922 20.6875 37.544922 C 21.1885 37.544922 21.685938 37.364578 22.085938 37.017578 C 22.788938 36.406578 23.037703 35.437781 22.720703 34.550781 L 21.085938 29.974609 z"/></svg>