<svg xmlns="http://www.w3.org/2000/svg" viewBox="0 0 30 30" width="100px" height="100px"><path fill="#fff" d="M5.5 27.5L5.5 2.5 18.793 2.5 24.5 8.207 24.5 27.5z"/><path fill="#788b9c" d="M18.586,3L24,8.414V27H6V3H18.586 M19,2H5v26h20V8L19,2L19,2z"/><path fill="#c5d4de" d="M15.518,28H25V14.231c-0.327-0.074-0.66-0.134-1-0.172V27h-9.053 C15.118,27.345,15.305,27.682,15.518,28z"/><path fill="#fff" d="M18.5 8.5L18.5 2.5 18.793 2.5 24.5 8.207 24.5 8.5z"/><path fill="#788b9c" d="M19 3.414L23.586 8H19V3.414M19 2h-1v7h7V8L19 2 19 2zM9 12H21V13H9z"/><path fill="#bcc9d6" d="M9 21H21V22H9zM9 18H21V19H9z"/><path fill="#788b9c" d="M9 15H19V16H9z"/><path fill="#bae0bd" d="M23 16.5A6.5 6.5 0 1 0 23 29.5A6.5 6.5 0 1 0 23 16.5Z"/><path fill="#5e9c76" d="M23,17c3.308,0,6,2.692,6,6s-2.692,6-6,6s-6-2.692-6-6S19.692,17,23,17 M23,16 c-3.866,0-7,3.134-7,7s3.134,7,7,7s7-3.134,7-7S26.866,16,23,16L23,16z"/><g><path fill="#788b9c" d="M14.231 21H9v1h5.059C14.096 21.66 14.156 21.328 14.231 21zM15.518 18H9v1h5.947C15.118 18.655 15.305 18.318 15.518 18z"/></g><path fill="none" stroke="#fff" stroke-miterlimit="10" stroke-width="2" d="M23 27L23 19M19 23L27 23"/></svg>