<?xml version="1.0"?><svg fill="#000000" xmlns="http://www.w3.org/2000/svg" viewBox="0 0 24 24" width="500px" height="500px">    <path d="M 10 2 C 9.172 2 8.5 2.672 8.5 3.5 L 8.5 4.1972656 C 5.913 4.8642656 4 7.205 4 10 L 4 16 L 2 18 L 2 19 L 8.2773438 19 C 8.1063437 19.295 8 19.634 8 20 C 8 21.105 8.895 22 10 22 C 10.342 22 10.658453 21.906859 10.939453 21.755859 C 10.341453 20.634859 10 19.357 10 18 C 10 15.041 11.611 12.463078 14 11.080078 L 14 11.082031 C 14.619 10.722031 15.29 10.447672 16 10.263672 L 16 10 C 16 7.205 14.087 4.8642656 11.5 4.1972656 L 11.5 3.5 C 11.5 2.672 10.828 2 10 2 z M 18 12 C 14.7 12 12 14.7 12 18 C 12 21.3 14.7 24 18 24 C 21.3 24 24 21.3 24 18 C 24 14.7 21.3 12 18 12 z M 17 15 L 19 15 L 19 17 L 21 17 L 21 19 L 19 19 L 19 21 L 17 21 L 17 19 L 15 19 L 15 17 L 17 17 L 17 15 z"/></svg>