<svg xmlns="http://www.w3.org/2000/svg" viewBox="0 0 48 48" width="300px" height="300px"><path fill="#71c598" d="M44.095,38.096l-5.142-9.799c-0.142-0.27-0.296-0.553-0.558-0.709 c-0.217-0.129-0.48-0.153-0.732-0.171c-1.756-0.123-4.256-0.806-6.01-0.661L17.54,26.716c-1.703,0.223-5.426-0.718-6.723,0.376 c-0.489,0.413-0.732,1.039-0.968,1.634c-1.144,2.878-2.583,5.639-4.285,8.228c-0.722,1.098-1.511,2.215-1.956,3.433 c-0.272,0.745,0.214,1.571,1.002,1.674c3.267,0.426,6.593,0.385,9.863,0.597c1.797,0.078,3.591,0.156,5.388,0.234 c7.552,0.047,15.353,0.968,22.878-0.435c0.41-0.076,0.852-0.179,1.114-0.503C44.302,41.401,44.778,39.756,44.095,38.096z"/><path fill="#ef4823" d="M29.013,30.598c-1.131,1.972-2.294,3.984-4.024,5.477c-0.178,0.153-0.379,0.308-0.615,0.321 c-0.378,0.02-0.664-0.316-0.883-0.62c-0.726-1.005-1.452-2.009-2.179-3.014c-1.714-2.371-3.435-4.753-4.786-7.341 s-2.33-6.454-2.457-9.361c-0.054-1.234,0.048-2.489,0.457-3.657c0.713-2.036,1.5-3.126,3.051-4.646 c0.741-0.727,2.293-1.984,3.23-2.442c1.632-0.797,3.561-0.654,5.363-0.395c1.612,0.232,3.245,0.555,4.661,1.347 c2.033,1.138,3.448,3.185,4.085,5.399c0.637,2.215,0.768,4.469,0.066,6.664C33.679,22.411,31.148,26.873,29.013,30.598z"/><path fill="#010101" d="M44.54,37.86l-5.14-9.79c-0.15-0.29-0.36-0.68-0.75-0.91c-0.33-0.2-0.7-0.22-0.95-0.24 c-0.65-0.05-1.41-0.17-2.22-0.31c-1.192-0.196-2.406-0.379-3.471-0.356c1.334-2.507,2.635-5.22,3.449-7.77 c0.677-2.117,0.656-4.457-0.062-6.955c-0.715-2.483-2.29-4.56-4.321-5.697c-1.501-0.84-3.21-1.172-4.834-1.406 c-1.91-0.274-3.913-0.41-5.653,0.441c-1.007,0.49-2.599,1.786-3.36,2.533c-1.494,1.464-2.395,2.613-3.173,4.839 c-0.392,1.116-0.55,2.374-0.485,3.843c0.134,3.057,1.167,6.992,2.514,9.571c0.047,0.09,0.102,0.175,0.149,0.264 c-0.285,0.001-0.583-0.001-0.892-0.006c-1.8-0.03-3.82-0.06-4.84,0.8c-0.58,0.48-0.86,1.18-1.12,1.83 c-1.13,2.85-2.55,5.58-4.23,8.14l-0.26,0.38c-0.66,1-1.34,2.02-1.75,3.15c-0.19,0.51-0.13,1.06,0.15,1.52 c0.28,0.46,0.73,0.76,1.25,0.83C6.69,42.84,8.88,42.92,11,43c1.15,0.04,2.3,0.08,3.45,0.16l5.41,0.23 c2.04,0.01,4.15,0.09,6.19,0.17c2.28,0.08,4.59,0.17,6.9,0.17c3.31,0,6.63-0.18,9.88-0.78c0.49-0.09,1.05-0.23,1.41-0.68 C44.82,41.55,45.31,39.72,44.54,37.86z M14.569,16.037c-0.06-1.34,0.081-2.475,0.429-3.469c0.647-1.848,1.331-2.889,2.929-4.454 c0.711-0.697,2.233-1.928,3.1-2.35c0.837-0.408,1.774-0.548,2.744-0.548c0.768,0,1.556,0.087,2.328,0.198 c1.528,0.22,3.13,0.529,4.488,1.289c1.803,1.009,3.206,2.868,3.849,5.101c0.662,2.304,0.686,4.448,0.069,6.374 c-1.32,4.137-3.981,8.78-5.925,12.17c-1.099,1.915-2.234,3.896-3.917,5.347c-0.063,0.054-0.227,0.195-0.316,0.2 c-0.036,0.015-0.197-0.064-0.45-0.413l-2.179-3.014c-1.677-2.32-3.411-4.719-4.748-7.279 C15.684,22.727,14.696,18.963,14.569,16.037z M43.46,41.64c-0.15,0.19-0.48,0.26-0.81,0.32c-5.43,1.02-11.09,0.8-16.56,0.6 c-2.05-0.08-4.16-0.16-6.21-0.17l-5.38-0.23c-1.15-0.08-2.31-0.12-3.47-0.16c-2.09-0.08-4.26-0.16-6.36-0.44 c-0.21-0.02-0.41-0.15-0.53-0.35S4,40.78,4.08,40.56c0.37-1.02,1.02-2,1.64-2.94l0.26-0.39c1.72-2.61,3.18-5.41,4.35-8.36 c0.22-0.55,0.43-1.07,0.81-1.4c0.74-0.62,2.65-0.59,4.18-0.56c0.525,0.007,1.014,0.005,1.465-0.016 c1.245,2.153,2.697,4.189,4.122,6.161l2.18,3.015c0.182,0.25,0.6,0.826,1.253,0.826c0.021,0,0.04-0.001,0.061-0.002 c0.379-0.021,0.664-0.224,0.915-0.44c1.813-1.563,3.045-3.711,4.132-5.606c0.628-1.095,1.33-2.328,2.039-3.625 c0.065,0.023,0.133,0.037,0.204,0.028c1.02-0.07,2.35,0.14,3.63,0.35c0.83,0.14,1.61,0.27,2.31,0.32c0.21,0.01,0.39,0.03,0.51,0.1 c0.15,0.09,0.27,0.32,0.37,0.51l5.12,9.76C44.23,39.74,43.81,41.21,43.46,41.64z"/><path fill="#d6e5e5" d="M24.526,8.447c-0.878-0.081-1.784-0.159-2.625,0.102c-0.827,0.257-1.527,0.831-2.05,1.512 c-0.523,0.681-0.884,1.469-1.196,2.266c-0.335,0.858-0.378,1.347-0.333,2.265c0.076,1.537,1.067,2.887,2.198,3.949 c0.402,0.378,0.83,0.735,1.314,1.004c0.487,0.271,1.022,0.448,1.562,0.59c1.225,0.323,2.519,0.474,3.765,0.239 c1.246-0.235,2.442-0.888,3.149-1.924c0.237-0.347,0.417-0.731,0.565-1.123c0.851-2.244,0.823-4.973-0.591-6.921 C28.96,8.583,26.062,8.588,24.526,8.447z"/><path fill="#010101" d="M25.893,20.991c-0.813,0-1.682-0.123-2.622-0.371c-0.702-0.185-1.22-0.381-1.679-0.637 c-0.58-0.322-1.061-0.745-1.414-1.077c-1.491-1.401-2.283-2.844-2.354-4.289c-0.048-0.96-0.007-1.516,0.366-2.471 c0.292-0.747,0.67-1.615,1.265-2.39c0.641-0.834,1.435-1.416,2.298-1.686c0.95-0.297,1.943-0.203,2.82-0.123l0,0 c0.172,0.017,0.361,0.03,0.563,0.045c1.689,0.126,4.243,0.315,5.554,2.121c1.401,1.931,1.652,4.764,0.654,7.393 c-0.184,0.484-0.387,0.887-0.621,1.228c-0.734,1.078-1.999,1.855-3.468,2.133C26.816,20.95,26.363,20.991,25.893,20.991z M23.248,8.868c-0.412,0-0.817,0.039-1.199,0.158c-0.84,0.262-1.443,0.873-1.802,1.34c-0.518,0.675-0.86,1.462-1.126,2.144 c-0.305,0.778-0.342,1.197-0.3,2.059c0.059,1.177,0.745,2.392,2.042,3.609c0.462,0.435,0.837,0.722,1.215,0.933 c0.383,0.213,0.829,0.38,1.446,0.543c1.34,0.353,2.499,0.426,3.545,0.231c1.21-0.229,2.241-0.854,2.828-1.715 c0.189-0.275,0.356-0.608,0.511-1.018c0.88-2.318,0.678-4.79-0.527-6.45c-1.039-1.431-3.313-1.6-4.819-1.712 c-0.209-0.015-0.404-0.029-0.581-0.046l0,0C24.072,8.906,23.656,8.868,23.248,8.868z"/><path fill="#febf10" d="M26.682,11.72c-1.204-0.71-2.745-0.75-3.911,0.013c-1.166,0.763-1.684,2.258-1.236,3.508 c0.448,1.25,1.814,2.164,3.244,2.192c0.412,0.008,0.821-0.05,1.225-0.125c0.466-0.087,0.945-0.206,1.308-0.489 c0.589-0.459,0.738-1.234,0.777-1.943c0.035-0.63,0.011-1.274-0.209-1.872C27.661,12.405,27.259,12.06,26.682,11.72z"/><path fill="#010101" d="M24.861,17.933c-0.03,0-0.062,0-0.093-0.001c-1.634-0.032-3.191-1.094-3.704-2.522 c-0.531-1.481,0.071-3.204,1.433-4.095c1.29-0.844,3.033-0.854,4.438-0.025l0,0c0.563,0.332,1.124,0.748,1.414,1.542 c0.213,0.578,0.286,1.218,0.238,2.071c-0.038,0.697-0.181,1.695-0.969,2.311c-0.447,0.349-0.997,0.487-1.523,0.585 C25.761,17.861,25.322,17.933,24.861,17.933z M24.696,11.673c-0.589,0-1.165,0.159-1.652,0.478 c-0.963,0.631-1.409,1.887-1.038,2.921c0.378,1.054,1.548,1.836,2.783,1.86c0.407,0.015,0.812-0.059,1.122-0.116 c0.403-0.075,0.814-0.175,1.093-0.392c0.355-0.277,0.542-0.778,0.586-1.576c0.039-0.712-0.016-1.228-0.18-1.672 c-0.153-0.42-0.41-0.688-0.982-1.025l0,0C25.888,11.832,25.285,11.673,24.696,11.673z"/></svg>