<svg xmlns="http://www.w3.org/2000/svg" viewBox="0 0 64 64" width="300px" height="300px"><linearGradient id="sgae7UmX73KIQz2OTOxK5a" x1="43" x2="43" y1="17.833" y2="25.333" gradientUnits="userSpaceOnUse" spreadMethod="reflect"><stop offset="0" stop-color="#6dc7ff"/><stop offset="1" stop-color="#e6abff"/></linearGradient><path fill="url(#sgae7UmX73KIQz2OTOxK5a)" d="M40,19h4c1.105,0,2,0.895,2,2v4L40,19z"/><linearGradient id="sgae7UmX73KIQz2OTOxK5b" x1="32" x2="32" y1="7" y2="56.327" gradientUnits="userSpaceOnUse" spreadMethod="reflect"><stop offset="0" stop-color="#1a6dff"/><stop offset="1" stop-color="#c822ff"/></linearGradient><path fill="url(#sgae7UmX73KIQz2OTOxK5b)" d="M50,35.202V20c0-2.757-2.243-5-5-5h-1v-1c0-1.654-1.346-3-3-3H18.868l-0.443-0.664 C17.868,9.5,16.935,9,15.93,9H9c-1.654,0-3,1.346-3,3v27v1v4c0,2.757,2.243,5,5,5h27.841c1.547,3.527,5.068,6,9.159,6 c5.514,0,10-4.486,10-10C58,40.171,54.559,36.131,50,35.202z M41,13c0.551,0,1,0.449,1,1v1H22.07c-0.335,0-0.646-0.167-0.832-0.445 L20.202,13H41z M9,11h6.93c0.335,0,0.646,0.167,0.832,0.445l2.813,4.219C20.132,16.5,21.065,17,22.07,17H45c1.654,0,3,1.346,3,3v15 c-4.829,0-8.869,3.441-9.798,8H11c-1.302,0-2.402-0.839-2.816-2H16v-2H8v-2h6v-2H8v-2h4v-2H8V12C8,11.449,8.449,11,9,11z M11,47 c-1.654,0-3-1.346-3-3v-0.026C8.838,44.609,9.87,45,11,45h27c0,0.685,0.07,1.354,0.202,2H11z M48,53c-4.411,0-8-3.589-8-8 s3.589-8,8-8s8,3.589,8,8S52.411,53,48,53z"/><linearGradient id="sgae7UmX73KIQz2OTOxK5c" x1="48" x2="48" y1="7" y2="56.327" gradientUnits="userSpaceOnUse" spreadMethod="reflect"><stop offset="0" stop-color="#1a6dff"/><stop offset="1" stop-color="#c822ff"/></linearGradient><path fill="url(#sgae7UmX73KIQz2OTOxK5c)" d="M49 40L47 40 47 44 43 44 43 46 47 46 47 50 49 50 49 46 53 46 53 44 49 44z"/></svg>