<svg xmlns="http://www.w3.org/2000/svg" viewBox="0 0 24 24" width="300px" height="300px"><path d="M19,14c-2.761,0-5,2.239-5,5s2.239,5,5,5s5-2.239,5-5S21.761,14,19,14z M22,20h-2v2h-2v-2h-2v-2h2v-2h2v2h2V20z"/><path d="M12,19c0-0.34,0.033-0.673,0.08-1H6.5C4.019,18,2,15.981,2,13.5C2,11.019,4.019,9,6.5,9l0.859,0.047l0.308-0.533 C8.559,6.963,10.22,6,12,6c2.472,0,4.545,1.773,4.932,4.215l0.151,0.96l1.098-0.143C18.286,11.018,18.391,11,18.5,11 c1.131,0,2.128,0.548,2.768,1.383c1.023,0.351,1.941,0.925,2.688,1.674c-0.224-2.756-2.463-4.951-5.251-5.053 C17.839,6.056,15.149,4,12,4C9.709,4,7.561,5.138,6.258,7.004C2.785,7.132,0,9.997,0,13.5C0,17.084,2.916,20,6.5,20h5.58 C12.033,19.673,12,19.34,12,19z"/><path d="M19,12c1.383,0,2.669,0.407,3.755,1.099C22.164,11.304,20.493,10,18.5,10 c-0.199,0-0.389,0.034-0.581,0.059C17.466,7.193,14.993,5,12,5C9.774,5,7.836,6.215,6.8,8.015C6.7,8.01,6.601,8,6.5,8 C3.462,8,1,10.462,1,13.5C1,16.538,3.462,19,6.5,19c0.823,0,3.114,0,5.5,0C12,15.134,15.134,12,19,12z" opacity=".3"/></svg>