<svg fill="#000000" xmlns="http://www.w3.org/2000/svg" viewBox="0 0 64 64" width="500px" height="500px"><path d="M 51.181641 2.0078125 C 50.966328 1.9953125 50.746797 2.0040625 50.529297 2.0390625 L 16.529297 7.3398438 C 15.059297 7.5698438 13.98 8.8307812 14 10.300781 L 14 38.380859 C 13.34 38.260859 12.67 38.210938 12 38.210938 C 6.49 38.210938 2 41.969609 2 46.599609 C 2 51.239609 6.49 55 12 55 C 17.24 55 21.64 51.559609 22 47.099609 L 22 22.320312 L 46 18.570312 L 46 32.449219 C 45.34 32.339219 44.67 32.279297 44 32.279297 C 38.49 32.279297 34 36.049688 34 40.679688 C 34 42.739688 34.879844 44.610547 36.339844 46.060547 C 36.119844 47.000547 36 47.99 36 49 C 36 56.17 41.83 62 49 62 C 56.17 62 62 56.17 62 49 C 62 43.6 58.69 38.96 54 37 L 54 4.9609375 C 54 4.0909375 53.619219 3.2709375 52.949219 2.7109375 C 52.446719 2.2909375 51.827578 2.0453125 51.181641 2.0078125 z M 50.849609 3.9707031 C 51.399609 3.8907031 51.91 4.2490625 52 4.7890625 C 52.01 4.8490625 52.009766 4.9009375 52.009766 4.9609375 L 52 36.349609 C 51.04 36.119609 50.03 36 49 36 C 43.65 36 39.050547 39.239375 37.060547 43.859375 C 36.390547 42.919375 36 41.829688 36 40.679688 C 36 37.139688 39.59 34.259766 44 34.259766 C 44.55 34.259766 45.110391 34.300391 45.650391 34.400391 C 46.230391 34.500391 46.839062 34.340937 47.289062 33.960938 C 47.739063 33.590938 48 33.040937 48 32.460938 L 48 18.570312 C 48.01 17.480313 47.129531 16.590313 46.019531 16.570312 C 45.909531 16.570312 45.799453 16.579609 45.689453 16.599609 L 21.689453 20.339844 C 20.709453 20.489844 19.99 21.330313 20 22.320312 L 20 47.009766 C 19.73 50.389766 16.2 53.019531 12 53.019531 C 7.59 53.019531 4 50.139609 4 46.599609 C 4 43.069609 7.59 40.179688 12 40.179688 C 12.55 40.179688 13.110391 40.230312 13.650391 40.320312 C 14.230391 40.430312 14.839062 40.270625 15.289062 39.890625 C 15.739062 39.510625 16 38.970625 16 38.390625 L 16 10.269531 C 15.99 9.7695312 16.359609 9.3492969 16.849609 9.2792969 L 50.849609 3.9707031 z M 48 6.1074219 C 47.448 6.1074219 47 6.5497031 47 7.0957031 L 47 9.0703125 C 47 9.6163125 47.448 10.058594 48 10.058594 C 48.552 10.058594 49 9.6163125 49 9.0703125 L 49 7.09375 C 49 6.54875 48.552 6.1074219 48 6.1074219 z M 43 6.8476562 C 42.448 6.8476562 42 7.2899375 42 7.8359375 L 42 9.8105469 C 42 10.356547 42.448 10.798828 43 10.798828 C 43.552 10.798828 44 10.356547 44 9.8105469 L 44 7.8359375 C 44 7.2909375 43.552 6.8476562 43 6.8476562 z M 38 7.5878906 C 37.448 7.5878906 37 8.0301719 37 8.5761719 L 37 10.550781 C 37 11.096781 37.448 11.539062 38 11.539062 C 38.552 11.539062 39 11.096781 39 10.550781 L 39 8.5761719 C 39 8.0301719 38.552 7.5878906 38 7.5878906 z M 33 8.328125 C 32.448 8.328125 32 8.7704063 32 9.3164062 L 32 11.292969 C 32 11.838969 32.448 12.279297 33 12.279297 C 33.552 12.279297 34 11.838969 34 11.292969 L 34 9.3164062 C 34 8.7704063 33.552 8.328125 33 8.328125 z M 28 9.3164062 C 27.448 9.3164062 27 9.7586875 27 10.304688 L 27 12.279297 C 27 12.825297 27.448 13.267578 28 13.267578 C 28.552 13.267578 29 12.825297 29 12.279297 L 29 10.304688 C 29 9.7586875 28.552 9.3164062 28 9.3164062 z M 23 10.058594 C 22.448 10.058594 22 10.500875 22 11.046875 L 22 13.021484 C 22 13.567484 22.448 14.009766 23 14.009766 C 23.552 14.009766 24 13.567484 24 13.021484 L 24 11.046875 C 24 10.500875 23.552 10.058594 23 10.058594 z M 18 10.798828 C 17.448 10.798828 17 11.239156 17 11.785156 L 17 13.761719 C 17 14.307719 17.448 14.748047 18 14.748047 C 18.552 14.748047 19 14.307719 19 13.761719 L 19 11.785156 C 19 11.240156 18.552 10.798828 18 10.798828 z M 49 38 C 50.04 38 51.05 38.149922 52 38.419922 C 52.7 38.619922 53.37 38.880938 54 39.210938 C 57.56 41.030938 60 44.74 60 49 C 60 55.06 55.06 60 49 60 C 42.94 60 38 55.06 38 49 C 38 48.48 38.039375 47.960938 38.109375 47.460938 C 38.209375 46.750937 38.379375 46.060391 38.609375 45.400391 C 40.099375 41.100391 44.2 38 49 38 z M 49 42 C 48.447 42 48 42.448 48 43 L 48 48 L 43 48 C 42.447 48 42 48.448 42 49 C 42 49.552 42.447 50 43 50 L 48 50 L 48 55 C 48 55.552 48.447 56 49 56 C 49.553 56 50 55.552 50 55 L 50 50 L 55 50 C 55.553 50 56 49.552 56 49 C 56 48.448 55.553 48 55 48 L 50 48 L 50 43 C 50 42.448 49.553 42 49 42 z"/></svg>