<svg xmlns="http://www.w3.org/2000/svg" viewBox="0 0 100 100" width="300px" height="300px"><path fill="#fefdef" d="M28,11c-4.418,0-8,3.582-8,8v63c0,4.418,3.582,8,8,8h44c4.418,0,8-3.582,8-8V30L61,11H39v-1H28L28,11	z"/><path fill="#1f212b" d="M60.5,12H39c-0.553,0-1-0.448-1-1s0.447-1,1-1h21.5V12z"/><path fill="#1f212b" d="M72,91H28c-4.963,0-9-4.038-9-9V19c0-4.962,4.037-9,9-9c0.553,0,1,0.448,1,1s-0.447,1-1,1	c-3.859,0-7,3.14-7,7v63c0,3.86,3.141,7,7,7h44c3.859,0,7-3.14,7-7V30.5h2V82C81,86.962,76.963,91,72,91z"/><path fill="#fef6aa" d="M80.5,30.5H69c-4.694,0-8.5-3.806-8.5-8.5V10.5l0,0L80.5,30.5z"/><path fill="#1f212b" d="M80.5,31H69c-4.963,0-9-4.038-9-9V10.5c0-0.202,0.122-0.385,0.309-0.462	c0.186-0.077,0.402-0.034,0.545,0.108l20,20c0.143,0.143,0.186,0.358,0.108,0.545S80.702,31,80.5,31z M61,11.707V22	c0,4.411,3.589,8,8,8h10.293L61,11.707z"/><path fill="#1f212b" d="M35,29c-2.757,0-5-2.243-5-5V12.5c0-1.93,1.57-3.5,3.5-3.5s3.5,1.57,3.5,3.5V24c0,1.103-0.897,2-2,2	s-2-0.897-2-2v-9.5c0-0.276,0.224-0.5,0.5-0.5s0.5,0.224,0.5,0.5V24c0,0.551,0.448,1,1,1s1-0.449,1-1V12.5	c0-1.378-1.121-2.5-2.5-2.5S31,11.122,31,12.5V24c0,2.206,1.794,4,4,4s4-1.794,4-4v-9.5c0-0.276,0.224-0.5,0.5-0.5	s0.5,0.224,0.5,0.5V24C40,26.757,37.757,29,35,29z"/><path fill="#1f212b" d="M67.5,85h-35c-4.136,0-7.5-3.364-7.5-7.5v-54c0-2.446,1.201-4.745,3.214-6.15	c0.224-0.156,0.536-0.103,0.696,0.124c0.158,0.226,0.103,0.538-0.124,0.696C27.042,19.388,26,21.38,26,23.5v54	c0,3.584,2.916,6.5,6.5,6.5h35c3.584,0,6.5-2.916,6.5-6.5v-17c0-0.276,0.224-0.5,0.5-0.5s0.5,0.224,0.5,0.5v17	C75,81.636,71.636,85,67.5,85z"/><path fill="#1f212b" d="M74.5,59c-0.276,0-0.5-0.224-0.5-0.5v-7c0-0.276,0.224-0.5,0.5-0.5s0.5,0.224,0.5,0.5v7	C75,58.776,74.776,59,74.5,59z"/><path fill="#1f212b" d="M74.5,50.072c-0.276,0-0.5-0.224-0.5-0.5V46.5c0-0.276,0.224-0.5,0.5-0.5s0.5,0.224,0.5,0.5v3.072	C75,49.849,74.776,50.072,74.5,50.072z"/><path fill="#1f212b" d="M52.5,51h-22c-0.276,0-0.5-0.224-0.5-0.5s0.224-0.5,0.5-0.5h22c0.276,0,0.5,0.224,0.5,0.5	S52.776,51,52.5,51z"/><path fill="#1f212b" d="M43.5,58h-13c-0.276,0-0.5-0.224-0.5-0.5s0.224-0.5,0.5-0.5h13c0.276,0,0.5,0.224,0.5,0.5	S43.776,58,43.5,58z"/><path fill="#1f212b" d="M47.5,65h-17c-0.276,0-0.5-0.224-0.5-0.5s0.224-0.5,0.5-0.5h17c0.276,0,0.5,0.224,0.5,0.5	S47.776,65,47.5,65z"/><path fill="#1f212b" d="M49.5,65c-0.276,0-0.5-0.224-0.5-0.5c0-0.276,0.224-0.5,0.5-0.5l12,0c0.276,0,0.5,0.224,0.5,0.5	c0,0.276-0.224,0.5-0.5,0.5L49.5,65z"/><path fill="#1f212b" d="M63.5,65c-0.276,0-0.5-0.224-0.5-0.5c0-0.276,0.224-0.5,0.5-0.5l6,0c0.276,0,0.5,0.224,0.5,0.5	c0,0.276-0.224,0.5-0.5,0.5L63.5,65z"/><path fill="#1f212b" d="M56.5,72c-0.276,0-0.5-0.224-0.5-0.5c0-0.276,0.224-0.5,0.5-0.5l13,0c0.276,0,0.5,0.224,0.5,0.5	S69.776,72,69.5,72L56.5,72z"/><path fill="#1f212b" d="M54.5,72h-24c-0.276,0-0.5-0.224-0.5-0.5s0.224-0.5,0.5-0.5h24c0.276,0,0.5,0.224,0.5,0.5	S54.776,72,54.5,72z"/><path fill="#1f212b" d="M69.5,58h-24c-0.276,0-0.5-0.224-0.5-0.5s0.224-0.5,0.5-0.5h24c0.276,0,0.5,0.224,0.5,0.5	S69.776,58,69.5,58z"/><circle cx="79.5" cy="79.5" r="14.5" fill="#60be92"/><path fill="#1f212b" d="M87.5,80H71.593c-0.276,0-0.5-0.224-0.5-0.5s0.224-0.5,0.5-0.5H87.5c0.276,0,0.5,0.224,0.5,0.5	S87.776,80,87.5,80z"/><path fill="#1f212b" d="M79.5,88c-0.276,0-0.5-0.224-0.5-0.5v-16c0-0.276,0.224-0.5,0.5-0.5s0.5,0.224,0.5,0.5v16	C80,87.776,79.776,88,79.5,88z"/><path fill="#1f212b" d="M79.5,95C70.953,95,64,88.047,64,79.5S70.953,64,79.5,64S95,70.953,95,79.5S88.047,95,79.5,95z M79.5,66C72.056,66,66,72.056,66,79.5S72.056,93,79.5,93S93,86.944,93,79.5S86.944,66,79.5,66z"/></svg>