<svg xmlns="http://www.w3.org/2000/svg" viewBox="0 0 24 24" width="300px" height="300px"><path d="M15.478,15.48c-0.976,0.976-1.468,2.25-1.468,3.528c0,1.278,0.492,2.553,1.468,3.528c1.952,1.952,5.106,1.951,7.058-0.001 s1.952-5.106,0-7.058C20.586,13.529,17.431,13.529,15.478,15.48z M20.011,16.002v2h2v2h-2v2h-2v-2h-2v-2h2v-2H20.011z"/><path d="M12,19c0-0.34,0.033-0.673,0.08-1H4V8h16v4.08c0.707,0.101,1.378,0.307,2,0.603V8c0-1.1-0.9-2-2-2h-8l-2-2H4 C2.9,4,2,4.9,2,6v12c0,1.1,0.9,2,2,2h8.08C12.033,19.673,12,19.34,12,19z"/><path d="M19,12c0.695,0,1.366,0.105,2,0.294V7H3v12h9C12,15.134,15.134,12,19,12z" opacity=".3"/></svg>