<svg xmlns="http://www.w3.org/2000/svg" viewBox="0 0 48 48" width="500px" height="500px"><path fill="#bbdefb" d="M29.5,5C24.806,5,21,8.806,21,13.5s3.806,8.5,8.5,8.5s8.5-3.806,8.5-8.5S34.194,5,29.5,5z"/><path fill="#bbdefb" d="M37,14.893c-3.866,0-7,3.134-7,7s3.134,7,7,7s7-3.134,7-7S40.866,14.893,37,14.893z M11,15	c-3.866,0-7,3.134-7,7s3.134,7,7,7s7-3.134,7-7S14.866,15,11,15z"/><path fill="#bbdefb" d="M17.5,8c-3.59,0-6.5,2.91-6.5,6.5s2.91,6.5,6.5,6.5s6.5-2.91,6.5-6.5S21.09,8,17.5,8z"/><path fill="#bbdefb" d="M25,12.893c-3.866,0-7,3.134-7,7s3.134,7,7,7s7-3.134,7-7S28.866,12.893,25,12.893z"/><path fill="#bbdefb" d="M7,25c0,2.209,1.791,4,4,4h25c2.209,0,4-1.791,4-4v-1c0-2.209-1.791-4-4-4H11c-2.209,0-4,1.791-4,4	V25z"/><rect width="2" height="17" x="19" y="21" fill="#3f51b5"/><polygon fill="#3f51b5" points="24,24 16,24 20,19"/><rect width="2" height="17" x="28" y="19" fill="#3f51b5"/><polygon fill="#3f51b5" points="33,33 25,33 29,38"/></svg>