<svg fill="#000000" xmlns="http://www.w3.org/2000/svg" viewBox="0 0 50 50" width="500px" height="500px"><path d="M 21 2 C 19.354545 2 18 3.3545455 18 5 L 18 7 L 8 7 C 7.447 7 7 7.448 7 8 C 7 8.552 7.447 9 8 9 L 9 9 L 9 45 C 9 46.654 10.346 48 12 48 L 34.037109 48 C 35.706109 49.249 37.767 50 40 50 C 45.5 50 50 45.5 50 40 C 50 34.837 46.035 30.556781 41 30.050781 L 41 9 L 42 9 C 42.553 9 43 8.552 43 8 C 43 7.448 42.553 7 42 7 L 32 7 L 32 5 C 32 3.3545455 30.645455 2 29 2 L 21 2 z M 21 4 L 29 4 C 29.554545 4 30 4.4454545 30 5 L 30 7 L 20 7 L 20 5 C 20 4.4454545 20.445455 4 21 4 z M 19 14 C 19.553 14 20 14.448 20 15 L 20 40 C 20 40.552 19.553 41 19 41 C 18.447 41 18 40.552 18 40 L 18 15 C 18 14.448 18.447 14 19 14 z M 25 14 C 25.553 14 26 14.448 26 15 L 26 40 C 26 40.552 25.553 41 25 41 C 24.447 41 24 40.552 24 40 L 24 15 C 24 14.448 24.447 14 25 14 z M 31 14 C 31.553 14 32 14.448 32 15 L 32 34.017578 C 30.953 35.415578 30.257547 37.092875 30.060547 38.921875 C 30.042547 38.949875 30.018 38.972 30 39 L 30 15 C 30 14.448 30.447 14 31 14 z M 40 32 C 44.4 32 48 35.6 48 40 C 48 44.4 44.4 48 40 48 C 35.6 48 32 44.4 32 40 C 32 35.6 35.6 32 40 32 z M 40 34.060547 C 39.434 34.060547 39.009766 34.484781 39.009766 35.050781 L 39.009766 39.009766 L 35.050781 39.009766 C 34.484781 39.009766 34.060547 39.434 34.060547 40 C 34.060547 40.566 34.484781 40.990234 35.050781 40.990234 L 39.009766 40.990234 L 39.009766 44.949219 C 39.009766 45.515219 39.434 45.939453 40 45.939453 C 40.283 45.939453 40.566031 45.79825 40.707031 45.65625 C 40.848031 45.51425 40.990234 45.232219 40.990234 44.949219 L 40.990234 40.990234 L 44.949219 40.990234 C 45.232219 40.990234 45.51525 40.849031 45.65625 40.707031 C 45.79725 40.565031 45.939453 40.283 45.939453 40 C 45.939453 39.434 45.515219 39.009766 44.949219 39.009766 L 40.990234 39.009766 L 40.990234 35.050781 C 40.990234 34.485781 40.566 34.060547 40 34.060547 z"/></svg>