<svg fill="#000000" xmlns="http://www.w3.org/2000/svg" viewBox="0 0 80 80" width="500px" height="500px"><path d="M 40 5 C 37.802666 5 36 6.8026661 36 9 L 36 10.457031 C 29.133385 12.000409 23.695883 17.428262 22.308594 24.556641 C 20.815594 25.319641 19.802141 26.768891 19.619141 28.462891 L 16.542969 56.921875 C 16.291969 59.246875 14.34 61 12 61 L 11 61 L 11 67 L 33 67 C 33 70.86 36.141 74 40 74 C 42.634 74 44.931953 72.536859 46.126953 70.380859 C 45.518953 68.683859 45.148781 66.879 45.050781 65 L 13 65 L 13 62.925781 C 14.922901 62.633209 16.566782 61.497216 17.5625 59.898438 A 1 1 0 0 0 18 60 A 1 1 0 0 0 19 59 A 1 1 0 0 0 18.351562 58.064453 C 18.428906 57.761689 18.496939 57.455928 18.53125 57.136719 L 21.607422 28.677734 C 21.729422 27.544734 22.473875 26.591406 23.546875 26.191406 L 24.089844 25.988281 L 24.183594 25.417969 C 25.461594 17.643969 32.112 12 40 12 C 47.888 12 54.537453 17.643969 55.814453 25.417969 L 55.908203 25.988281 L 56.453125 26.191406 C 57.526125 26.591406 58.268625 27.544734 58.390625 28.677734 L 60.197266 45.382812 C 60.845266 45.250813 61.507734 45.155797 62.177734 45.091797 L 60.378906 28.462891 C 60.195906 26.769891 59.185406 25.317688 57.691406 24.554688 C 56.304959 17.427151 50.866594 12.000388 44 10.457031 L 44 9 C 44 6.8026661 42.197334 5 40 5 z M 40 7 C 41.116666 7 42 7.8833339 42 9 L 42 10.121094 C 41.341824 10.049044 40.676389 10 40 10 C 39.323611 10 38.658177 10.049043 38 10.121094 L 38 9 C 38 7.8833339 38.883334 7 40 7 z M 26 24 A 1 1 0 0 0 25 25 A 1 1 0 0 0 26 26 A 1 1 0 0 0 27 25 A 1 1 0 0 0 26 24 z M 30 24 A 1 1 0 0 0 29 25 A 1 1 0 0 0 30 26 A 1 1 0 0 0 31 25 A 1 1 0 0 0 30 24 z M 34 24 A 1 1 0 0 0 33 25 A 1 1 0 0 0 34 26 A 1 1 0 0 0 35 25 A 1 1 0 0 0 34 24 z M 38 24 A 1 1 0 0 0 37 25 A 1 1 0 0 0 38 26 A 1 1 0 0 0 39 25 A 1 1 0 0 0 38 24 z M 42 24 A 1 1 0 0 0 41 25 A 1 1 0 0 0 42 26 A 1 1 0 0 0 43 25 A 1 1 0 0 0 42 24 z M 46 24 A 1 1 0 0 0 45 25 A 1 1 0 0 0 46 26 A 1 1 0 0 0 47 25 A 1 1 0 0 0 46 24 z M 50 24 A 1 1 0 0 0 49 25 A 1 1 0 0 0 50 26 A 1 1 0 0 0 51 25 A 1 1 0 0 0 50 24 z M 54 24 A 1 1 0 0 0 53 25 A 1 1 0 0 0 54 26 A 1 1 0 0 0 55 25 A 1 1 0 0 0 54 24 z M 64 48 C 55.178 48 48 55.178 48 64 C 48 72.822 55.178 80 64 80 C 72.822 80 80 72.822 80 64 C 80 55.178 72.822 48 64 48 z M 64 50 C 71.72 50 78 56.28 78 64 C 78 71.72 71.72 78 64 78 C 56.28 78 50 71.72 50 64 C 50 56.28 56.28 50 64 50 z M 63 57 L 63 63 L 57 63 L 57 65 L 63 65 L 63 71 L 65 71 L 65 65 L 71 65 L 71 63 L 65 63 L 65 57 L 63 57 z M 22 58 A 1 1 0 0 0 21 59 A 1 1 0 0 0 22 60 A 1 1 0 0 0 23 59 A 1 1 0 0 0 22 58 z M 26 58 A 1 1 0 0 0 25 59 A 1 1 0 0 0 26 60 A 1 1 0 0 0 27 59 A 1 1 0 0 0 26 58 z M 30 58 A 1 1 0 0 0 29 59 A 1 1 0 0 0 30 60 A 1 1 0 0 0 31 59 A 1 1 0 0 0 30 58 z M 34 58 A 1 1 0 0 0 33 59 A 1 1 0 0 0 34 60 A 1 1 0 0 0 35 59 A 1 1 0 0 0 34 58 z M 38 58 A 1 1 0 0 0 37 59 A 1 1 0 0 0 38 60 A 1 1 0 0 0 39 59 A 1 1 0 0 0 38 58 z M 42 58 A 1 1 0 0 0 41 59 A 1 1 0 0 0 42 60 A 1 1 0 0 0 43 59 A 1 1 0 0 0 42 58 z M 35 67 L 45 67 C 45 69.757 42.757 72 40 72 C 37.243 72 35 69.757 35 67 z"/></svg>