<?xml version="1.0"?><svg fill="#000000" xmlns="http://www.w3.org/2000/svg" viewBox="0 0 24 24" width="300px" height="300px">    <path d="M 12 3 C 9.794 3 8 4.794 8 7 C 8 9.206 9.794 11 12 11 C 14.206 11 16 9.206 16 7 C 16 4.794 14.206 3 12 3 z M 12 5 C 13.103 5 14 5.897 14 7 C 14 8.103 13.103 9 12 9 C 10.897 9 10 8.103 10 7 C 10 5.897 10.897 5 12 5 z M 18 12 C 16.187783 12 14.559578 12.816944 13.457031 14.097656 C 12.936517 14.037674 12.438162 14 12 14 C 8.859 14 3 15.545 3 18.5 L 3 21 L 12.816406 21 C 13.858329 22.787761 15.792517 24 18 24 C 21.3 24 24 21.3 24 18 C 24 14.7 21.3 12 18 12 z M 17 15 L 19 15 L 19 17 L 21 17 L 21 19 L 19 19 L 19 21 L 17 21 L 17 19 L 15 19 L 15 17 L 17 17 L 17 15 z M 12 16 C 12.113338 16 12.229577 16.017468 12.34375 16.021484 C 12.124883 16.642338 12 17.306709 12 18 C 12 18.341286 12.036363 18.673872 12.091797 19 L 5 19 L 5 18.5 C 5 17.631 8.708 16 12 16 z"/></svg>