<svg xmlns="http://www.w3.org/2000/svg" viewBox="0 0 30 30" width="50px" height="50px"><path fill="#589cdb" d="M4.9 4.9H25.1V25.1H4.9z" transform="rotate(-45.001 14.999 15)"/><path fill="#4e7ab5" d="M15,1.4L28.6,15L15,28.6L1.4,15L15,1.4 M15,0L0,15l15,15l15-15L15,0L15,0z"/><path fill="#4585bf" d="M14.9 29.2L18 17 29.3 15 29.3 15 15 29.3z"/><path fill="#4e7ab5" d="M27.9,15.7l-12,12l2.6-10.3L27.9,15.7 M29.4,14.4l-11.5,2.1l-0.3,0.1l-0.1,0.3l-3.1,12.5L15,30 l0.4-0.4L30,15L29.4,14.4L29.4,14.4z"/><path fill="#737373" d="M16 0.9H17V17.2H16z" transform="rotate(-10.62 16.5 9)"/><path fill="#737373" d="M10.3 22.5H22.700000000000003V23.5H10.3z" transform="rotate(-75.978 16.5 23)"/><path fill="#737373" d="M9 7.4H10V24.5H9z" transform="rotate(-83.293 9.5 16)"/><path fill="#97c9ff" d="M0.7 15L0.7 15 18 17 14.9 29.2z"/><path fill="#4e7ab5" d="M2,15.6l15.3,1.8l-2.7,10.8L2,15.6 M0.6,14.4L0,15l15,15l0.4-0.4l3.1-12.5l0.1-0.5l-0.5-0.1 L0.6,14.4L0.6,14.4z"/><g><path fill="#c2e8ff" d="M0.7 15L15 0.8 18 16.9 18 17 17.9 17z"/><path fill="#4e7ab5" d="M14.6,1.8l2.7,14.7L1.8,14.6L14.6,1.8 M15,0l-0.6,0.6L0.6,14.4L0,15l0.4,0.4l17.5,2.1l0.5-0.1 l0.1-0.5L15.4,0.4L15,0L15,0z"/></g><g><path fill="#4e7ab5" d="M9.4,11.9c0-0.2,0.1-0.3,0.2-0.5c0.1-0.1,0.2-0.3,0.3-0.4c0.1-0.1,0.2-0.2,0.4-0.3 c0.1-0.1,0.3-0.1,0.5-0.2c-0.2-0.2-0.4-0.4-0.5-0.6c-0.1-0.2-0.1-0.5-0.1-0.8c0-0.2,0.1-0.4,0.2-0.6c0.1-0.2,0.3-0.3,0.4-0.4 C11,8.1,11.2,8.1,11.4,8c0.2,0,0.5,0,0.7,0c0.2,0,0.5,0.1,0.7,0.2c0.2,0.1,0.4,0.3,0.5,0.4c0.1,0.2,0.2,0.3,0.3,0.5 c0.1,0.2,0.1,0.4,0,0.6c-0.1,0.3-0.2,0.5-0.4,0.7c-0.2,0.2-0.4,0.3-0.7,0.4c0.2,0.1,0.3,0.2,0.4,0.3c0.1,0.1,0.2,0.3,0.3,0.4 c0.1,0.1,0.1,0.3,0.1,0.5c0,0.2,0,0.3,0,0.5c0,0.3-0.1,0.5-0.3,0.7s-0.3,0.3-0.5,0.5c-0.2,0.1-0.4,0.2-0.7,0.2c-0.3,0-0.5,0-0.8,0 c-0.3-0.1-0.5-0.1-0.7-0.3c-0.2-0.1-0.4-0.3-0.5-0.5c-0.1-0.2-0.2-0.4-0.3-0.6C9.4,12.4,9.4,12.2,9.4,11.9z M10.4,12 c0,0.2,0,0.3,0,0.5c0,0.1,0.1,0.3,0.1,0.4c0.1,0.1,0.2,0.2,0.3,0.3c0.1,0.1,0.2,0.1,0.4,0.2c0.1,0,0.3,0,0.4,0 c0.1,0,0.3-0.1,0.4-0.2c0.1-0.1,0.2-0.2,0.3-0.3c0.1-0.1,0.1-0.3,0.2-0.4c0-0.1,0-0.3,0-0.4c0-0.1-0.1-0.3-0.1-0.4 c-0.1-0.1-0.2-0.2-0.3-0.3c-0.1-0.1-0.2-0.1-0.4-0.2c-0.1,0-0.3,0-0.4,0c-0.1,0-0.3,0.1-0.4,0.2c-0.1,0.1-0.2,0.2-0.3,0.3 C10.4,11.7,10.4,11.8,10.4,12z M11,9.4c0,0.1,0,0.2,0,0.3c0,0.1,0.1,0.2,0.1,0.3c0.1,0.1,0.1,0.2,0.2,0.2c0.1,0.1,0.2,0.1,0.3,0.1 c0.1,0,0.2,0,0.3,0c0.1,0,0.2-0.1,0.3-0.1c0.1-0.1,0.2-0.1,0.2-0.2c0.1-0.1,0.1-0.2,0.1-0.3c0-0.1,0-0.2,0-0.3 c0-0.1-0.1-0.2-0.1-0.3c-0.1-0.1-0.1-0.2-0.2-0.2c-0.1-0.1-0.2-0.1-0.3-0.1c-0.1,0-0.2,0-0.3,0c-0.1,0-0.2,0.1-0.3,0.1 C11.3,9,11.2,9,11.2,9.1C11.1,9.2,11.1,9.3,11,9.4z"/></g></svg>