<svg xmlns="http://www.w3.org/2000/svg" viewBox="0 0 80 80" width="300px" height="300px"><path fill="#ffeea3" d="M40 64.4L15.7 77.1 20.5 49.8 1.1 31.3 28.3 27.5 40 3.2 51.7 27.5 78.9 31.3 59.5 49.8 64.3 77.1z"/><path fill="#ba9b48" d="M40,4.3l11.1,23.1l0.2,0.5l0.5,0.1l26,3.7L59.3,49.3l-0.4,0.4l0.1,0.5l4.6,26L40.5,64.1L40,63.9 l-0.5,0.2L16.3,76.2l4.6-26l0.1-0.5l-0.4-0.4L2.2,31.7l26-3.7l0.5-0.1l0.2-0.5L40,4.3 M40,2L28,27L0,31l20,19l-5,28l25-13l25,13 l-5-28l20-19l-28-4L40,2L40,2z"/><path fill="#5e9c76" d="M28 42H52V46H28z"/><path fill="#5e9c76" d="M38 32H42V56H38z"/></svg>