<svg fill="#000000" xmlns="http://www.w3.org/2000/svg" viewBox="0 0 50 50" width="100px" height="100px"><path d="M 19.3125 4 C 19.011719 4 18.707031 3.988281 18.40625 4.1875 C 18.105469 4.386719 18 4.699219 18 5 L 18 41.59375 C 18 41.992188 18.289063 42.394531 18.6875 42.59375 L 26.6875 45 L 27 45 C 27.199219 45 27.394531 44.914063 27.59375 44.8125 C 27.894531 44.613281 28 44.300781 28 44 L 28 13.40625 C 28.601563 13.707031 29 14.300781 29 15 L 29 26.09375 C 29 26.394531 29.199219 26.804688 29.5 26.90625 C 29.699219 27.007813 31.199219 27.90625 34 27.90625 C 36.699219 27.90625 40 26.414063 40 19.3125 C 40 13.613281 36.8125 9.292969 31.3125 7.59375 Z M 17 26.40625 L 5.90625 30.40625 L 4.3125 31 C 1.613281 32.101563 0 33.886719 0 35.6875 C 0 39.488281 2.699219 41.6875 7.5 41.6875 C 10.101563 41.6875 13.300781 41.113281 17 39.8125 L 17 36 C 16.101563 36.300781 15.113281 36.699219 14.3125 37 C 12.710938 37.601563 11.5 37.8125 10.5 37.8125 C 9 37.8125 8.300781 37.300781 8 37 C 7.601563 36.699219 7.398438 36.3125 7.5 35.8125 C 7.601563 34.8125 8.800781 33.894531 11 33.09375 C 11.5 32.894531 14.898438 31.699219 17 31 Z M 36.5 28.90625 C 34.101563 29.007813 31.601563 29.394531 29 30.09375 L 29 34.6875 C 30.101563 34.289063 31.585938 33.800781 33.6875 33 C 38.488281 31.300781 40.492188 31.488281 41.09375 31.6875 C 42.292969 31.789063 42.800781 32.5 43 33 C 43.5 34.5 41.613281 35.1875 38.8125 36.1875 C 37.511719 36.6875 31.898438 38.6875 29 39.6875 L 29 44.3125 L 44.5 38.8125 L 45.6875 38.3125 C 47.6875 37.613281 50.199219 36.300781 50 34 C 49.898438 31.800781 47.210938 30.695313 45.3125 30.09375 C 42.511719 29.195313 39.5 28.804688 36.5 28.90625 Z"/></svg>