<svg xmlns="http://www.w3.org/2000/svg" viewBox="0 0 48 48" width="100px" height="100px"><path fill="#1976D2" d="M43 24L24 5 5 24 24 43z"/><path fill="#1565C0" d="M24 5L28 32 43 24z"/><path fill="#0D47A1" d="M24 43L28 32 43 24z"/><path fill="#2196F3" d="M5 24L24 5 28 32z"/><path fill="#FFF" d="M21.935,19.42c-0.169,0.393-0.417,0.707-0.739,0.939c-0.328,0.234-0.701,0.386-1.123,0.453c0.308,0.317,0.506,0.676,0.593,1.078c0.088,0.402,0.034,0.828-0.158,1.273c-0.311,0.723-0.808,1.207-1.49,1.459c-0.684,0.25-1.466,0.231-2.348-0.062c-0.885-0.293-1.495-0.733-1.825-1.323c-0.332-0.59-0.343-1.242-0.034-1.958c0.188-0.432,0.464-0.778,0.83-1.036c0.369-0.258,0.799-0.416,1.293-0.472c-0.271-0.296-0.44-0.626-0.507-0.991c-0.07-0.365-0.021-0.744,0.147-1.135c0.304-0.702,0.78-1.178,1.44-1.423c0.657-0.246,1.396-0.235,2.215,0.036c0.826,0.273,1.391,0.693,1.699,1.259C22.233,18.084,22.237,18.718,21.935,19.42z M18.675,22.389c0.145-0.332,0.168-0.618,0.069-0.855c-0.096-0.235-0.285-0.4-0.57-0.495c-0.283-0.093-0.552-0.081-0.804,0.04c-0.255,0.121-0.452,0.35-0.595,0.681c-0.137,0.322-0.159,0.606-0.063,0.851c0.097,0.245,0.289,0.415,0.577,0.51c0.28,0.094,0.547,0.077,0.798-0.051C18.339,22.939,18.536,22.715,18.675,22.389z M19.606,17.701c-0.254-0.085-0.483-0.068-0.687,0.055c-0.203,0.118-0.368,0.326-0.493,0.618c-0.125,0.288-0.157,0.543-0.1,0.765c0.057,0.221,0.218,0.376,0.479,0.463c0.258,0.084,0.489,0.061,0.695-0.073c0.204-0.137,0.37-0.347,0.494-0.635s0.156-0.538,0.095-0.748C20.03,17.936,19.869,17.786,19.606,17.701z"/></svg>