<svg fill="#000000" xmlns="http://www.w3.org/2000/svg" viewBox="0 0 64 64" width="100px" height="100px"><path d="M 28 6 C 13.421875 6 2 10.832031 2 17 L 2 47 C 2 53.167969 13.421875 58 28 58 C 32.574219 58 36.832031 57.519531 40.53125 56.675781 C 42.898438 59.898438 46.703125 62 51 62 C 58.167969 62 64 56.167969 64 49 C 64 42.867188 59.722656 37.722656 54 36.363281 L 54 17 C 54 10.832031 42.578125 6 28 6 Z M 28 8 C 42.355469 8 52 12.652344 52 17 C 52 21.347656 42.355469 26 28 26 C 13.644531 26 4 21.347656 4 17 C 4 12.652344 13.644531 8 28 8 Z M 29.125 10.011719 C 28.578125 10.011719 28.132813 10.445313 28.125 10.988281 C 28.113281 11.542969 28.554688 12 29.105469 12.011719 C 30.050781 12.027344 31 12.066406 31.9375 12.128906 C 31.957031 12.132813 31.980469 12.132813 32.003906 12.132813 C 32.523438 12.132813 32.964844 11.726563 33 11.199219 C 33.039063 10.648438 32.621094 10.171875 32.070313 10.136719 C 31.101563 10.070313 30.121094 10.027344 29.140625 10.011719 Z M 24.628906 10.09375 C 21.472656 10.269531 18.464844 10.695313 15.9375 11.328125 C 15.402344 11.464844 15.078125 12.011719 15.214844 12.546875 C 15.328125 13 15.734375 13.300781 16.183594 13.300781 C 16.265625 13.300781 16.347656 13.292969 16.425781 13.269531 C 18.835938 12.667969 21.710938 12.257813 24.738281 12.089844 C 25.292969 12.058594 25.714844 11.585938 25.683594 11.035156 C 25.648438 10.484375 25.179688 10.0625 24.628906 10.09375 Z M 4 21.308594 C 7.886719 25.277344 17.054688 28 28 28 C 38.945313 28 48.113281 25.277344 52 21.308594 L 52 27 C 52 31.347656 42.355469 36 28 36 C 13.644531 36 4 31.347656 4 27 Z M 4 31.308594 C 7.886719 35.277344 17.054688 38 28 38 C 38.945313 38 48.113281 35.277344 52 31.308594 L 52 36.050781 C 51.667969 36.023438 51.339844 36 51 36 C 45.589844 36 40.941406 39.324219 38.988281 44.042969 C 38.957031 43.519531 38.53125 43.097656 38 43.097656 C 37.445313 43.097656 37 43.546875 37 44.097656 L 37 46.097656 C 37 46.652344 37.445313 47.097656 38 47.097656 C 38.058594 47.097656 38.105469 47.078125 38.160156 47.066406 C 38.066406 47.699219 38 48.34375 38 49 C 38 51.117188 38.519531 53.113281 39.421875 54.882813 C 36.117188 55.578125 32.277344 56 28 56 C 13.644531 56 4 51.347656 4 47 L 4 41.285156 C 7.214844 44.589844 14.078125 47.070313 22.855469 47.792969 C 22.882813 47.792969 22.914063 47.796875 22.9375 47.796875 C 23.457031 47.796875 23.890625 47.398438 23.9375 46.875 C 23.980469 46.328125 23.570313 45.84375 23.019531 45.796875 C 12.175781 44.90625 4 41.125 4 37 Z M 51 38 C 57.066406 38 62 42.933594 62 49 C 62 55.066406 57.066406 60 51 60 C 44.933594 60 40 55.066406 40 49 C 40 42.933594 44.933594 38 51 38 Z M 51 42 C 50.445313 42 50 42.449219 50 43 L 50 48 L 45 48 C 44.445313 48 44 48.449219 44 49 C 44 49.550781 44.445313 50 45 50 L 50 50 L 50 55 C 50 55.550781 50.445313 56 51 56 C 51.554688 56 52 55.550781 52 55 L 52 50 L 57 50 C 57.554688 50 58 49.550781 58 49 C 58 48.449219 57.554688 48 57 48 L 52 48 L 52 43 C 52 42.449219 51.554688 42 51 42 Z M 33 43.800781 C 32.445313 43.800781 32 44.25 32 44.800781 L 32 46.800781 C 32 47.351563 32.445313 47.800781 33 47.800781 C 33.554688 47.800781 34 47.351563 34 46.800781 L 34 44.800781 C 34 44.25 33.554688 43.800781 33 43.800781 Z M 28 44 C 27.445313 44 27 44.449219 27 45 L 27 47 C 27 47.550781 27.445313 48 28 48 C 28.554688 48 29 47.550781 29 47 L 29 45 C 29 44.449219 28.554688 44 28 44 Z"/></svg>