<?xml version="1.0"?><svg fill="#000000" xmlns="http://www.w3.org/2000/svg" viewBox="0 0 80 80" width="500px" height="500px">    <path d="M 9 18 C 7.3550302 18 6 19.35503 6 21 L 6 59 C 6 60.64497 7.3550302 62 9 62 L 48.138672 62 C 48.05633 62.656566 48 63.321416 48 64 C 48 72.824711 55.175289 80 64 80 C 72.824711 80 80 72.824711 80 64 C 80 58.95903 77.652694 54.463819 74 51.529297 L 74 21 C 74 19.35503 72.64497 18 71 18 L 60 18 A 1.0001 1.0001 0 1 0 60 20 L 71 20 C 71.56503 20 72 20.43497 72 21 L 72 50.164062 C 69.643551 48.796505 66.916024 48 64 48 C 56.558773 48 50.309907 53.109388 48.527344 60 L 9 60 C 8.4349698 60 8 59.56503 8 59 L 8 21 C 8 20.43497 8.4349698 20 9 20 L 20 20 A 1.0001 1.0001 0 1 0 20 18 L 9 18 z M 24 18 A 1 1 0 0 0 23 19 A 1 1 0 0 0 24 20 A 1 1 0 0 0 25 19 A 1 1 0 0 0 24 18 z M 28 18 A 1 1 0 0 0 27 19 A 1 1 0 0 0 28 20 A 1 1 0 0 0 29 19 A 1 1 0 0 0 28 18 z M 32 18 A 1 1 0 0 0 31 19 A 1 1 0 0 0 32 20 A 1 1 0 0 0 33 19 A 1 1 0 0 0 32 18 z M 36 18 A 1 1 0 0 0 35 19 A 1 1 0 0 0 36 20 A 1 1 0 0 0 37 19 A 1 1 0 0 0 36 18 z M 40 18 A 1 1 0 0 0 39 19 A 1 1 0 0 0 40 20 A 1 1 0 0 0 41 19 A 1 1 0 0 0 40 18 z M 44 18 A 1 1 0 0 0 43 19 A 1 1 0 0 0 44 20 A 1 1 0 0 0 45 19 A 1 1 0 0 0 44 18 z M 48 18 A 1 1 0 0 0 47 19 A 1 1 0 0 0 48 20 A 1 1 0 0 0 49 19 A 1 1 0 0 0 48 18 z M 52 18 A 1 1 0 0 0 51 19 A 1 1 0 0 0 52 20 A 1 1 0 0 0 53 19 A 1 1 0 0 0 52 18 z M 56 18 A 1 1 0 0 0 55 19 A 1 1 0 0 0 56 20 A 1 1 0 0 0 57 19 A 1 1 0 0 0 56 18 z M 64 50 C 67.141435 50 70.027881 51.042423 72.361328 52.783203 A 1.0001 1.0001 0 0 0 72.447266 52.847656 C 75.817004 55.401943 78 59.43625 78 64 C 78 71.743831 71.743831 78 64 78 C 56.256169 78 50 71.743831 50 64 C 50 56.256169 56.256169 50 64 50 z M 63 57 L 63 63 L 57 63 L 57 65 L 63 65 L 63 71 L 65 71 L 65 65 L 71 65 L 71 63 L 65 63 L 65 57 L 63 57 z"/></svg>