<?xml version="1.0"?><svg fill="#000000" xmlns="http://www.w3.org/2000/svg" viewBox="0 0 30 30" width="100px" height="100px">    <path d="M 11.181641 3.7421875 L 11.181641 24.857422 L 15.761719 26.257812 L 15.761719 8.5761719 C 15.761719 8.0671719 15.761625 7.8135937 16.015625 7.5585938 C 16.142625 7.3045937 16.396391 7.3046406 16.650391 7.4316406 C 17.286391 7.6856406 17.669922 8.1948906 17.669922 9.2128906 L 17.669922 16.207031 C 19.195922 16.970031 20.466375 16.970031 21.484375 16.207031 C 22.502375 15.444031 23.011719 14.300578 23.011719 12.392578 C 23.012719 10.357578 22.630234 9.0853594 21.740234 8.0683594 C 20.977234 7.0503594 19.578969 6.1594375 17.542969 5.5234375 C 14.998969 4.7604375 12.835641 4.1241875 11.181641 3.7421875 z M 9.9101562 16.972656 L 4.0585938 19.007812 L 3.1699219 19.388672 C 1.7709219 20.024672 1.0078125 20.660875 1.0078125 21.296875 C 1.1348125 22.059875 1.388875 23.078844 3.296875 23.714844 C 5.077875 24.350844 6.4770625 24.604891 10.039062 23.587891 L 10.039062 21.296875 C 6.6030625 22.440875 6.0949375 22.314547 5.5859375 22.060547 C 5.0769375 21.806547 5.076125 21.550828 5.203125 21.423828 C 5.585125 21.169828 6.984375 20.660156 6.984375 20.660156 L 9.9101562 19.642578 L 9.9101562 16.972656 z M 22.853516 17.962891 C 22.440109 17.948984 22.026781 17.956531 21.613281 17.988281 C 20.214281 17.988281 18.941063 18.243 17.414062 18.625 L 17.414062 21.296875 L 20.212891 20.277344 L 21.738281 19.769531 C 21.738281 19.769531 22.375812 19.642625 22.757812 19.515625 C 23.393812 19.388625 24.15625 19.642578 24.15625 19.642578 C 24.53825 19.642578 24.792969 19.768438 24.792969 20.023438 C 24.919969 20.277438 24.665297 20.406156 24.029297 20.660156 L 22.630859 21.169922 L 17.542969 23.076172 L 17.542969 25.748047 L 19.832031 24.984375 L 26.191406 22.695312 L 26.955078 22.3125 C 28.481078 21.8035 29.117234 21.167297 28.990234 20.404297 C 28.990234 19.642297 28.100219 19.134 26.574219 18.625 C 25.333719 18.24325 24.093734 18.004609 22.853516 17.962891 z"/></svg>