<svg fill="#000000" xmlns="http://www.w3.org/2000/svg" viewBox="0 0 100 100" width="50px" height="50px"><path d="M 44.287109 19 L 27.128906 19.017578 A 1.0001 1.0001 0 0 0 26.177734 19.710938 L 11.509766 65.277344 A 1.0001 1.0001 0 0 0 11.757812 66.294922 L 26.353516 80.710938 A 1.0001 1.0001 0 0 0 27.056641 81 L 45.03125 81 A 1.0001 1.0001 0 0 0 45.992188 80.273438 L 48.447266 71.667969 A 1.0001 1.0001 0 0 0 49.189453 72 L 54.025391 72 L 60.003906 80.572266 A 1.0001 1.0001 0 0 0 60.824219 81 L 78.855469 80.994141 A 1.0001 1.0001 0 0 0 79.837891 80.185547 L 88.521484 35.490234 A 1.0001 1.0001 0 0 0 88.390625 34.775391 L 78.96875 19.476562 A 1.0001 1.0001 0 0 0 78.117188 19 L 60.4375 19.019531 A 1.0001 1.0001 0 0 0 59.458984 19.822266 L 58.015625 27 L 53.640625 27.005859 A 1.0001 1.0001 0 0 0 52.675781 27.748047 L 52.283203 29.226562 L 45.095703 19.410156 A 1.0001 1.0001 0 0 0 44.287109 19 z M 43.486328 21 L 40.935547 30.013672 L 24.966797 30.001953 L 27.859375 21.017578 L 43.486328 21 z M 77.251953 21 L 74.09375 37.041016 A 0.50005 0.50005 0 0 0 73.886719 37 L 65.783203 37 L 67.767578 28.660156 A 0.50005 0.50005 0 0 0 67.28125 28.044922 L 59.845703 28.044922 L 61.257812 21.019531 L 77.251953 21 z M 44.318359 21.732422 L 51.90625 32.097656 A 1.0001 1.0001 0 0 0 52.564453 32.496094 L 51.410156 37.308594 A 0.50005 0.50005 0 0 0 51.408203 37.3125 A 0.50005 0.50005 0 0 0 51.373047 37.464844 L 51.244141 38 L 43.417969 38 L 45.521484 30.65625 A 0.50005 0.50005 0 0 0 45.041016 30.017578 L 41.974609 30.015625 L 44.318359 21.732422 z M 78.097656 21.873047 L 86.482422 35.492188 L 78.085938 78.712891 L 75.916016 75.316406 A 0.50005 0.50005 0 0 0 75.832031 75.185547 L 69.539062 65.335938 L 78.097656 21.873047 z M 54.421875 29.044922 L 66.648438 29.044922 L 64.753906 37 L 52.513672 37 L 54.421875 29.044922 z M 24.644531 31 L 44.378906 31.017578 L 42.271484 38.361328 A 0.50005 0.50005 0 0 0 42.753906 39 L 51.638672 39 A 0.50005 0.50005 0 0 0 52.125 38.617188 L 52.273438 38 L 73.886719 38 A 0.50005 0.50005 0 0 0 73.904297 38 L 68.599609 64.9375 L 52.126953 64.9375 L 56.533203 46.623047 A 0.50005 0.50005 0 0 0 56.046875 46.007812 L 50.625 46 A 0.50005 0.50005 0 0 0 50.142578 46.371094 L 47.826172 54.996094 L 39.513672 55 L 41.839844 46.619141 A 0.50005 0.50005 0 0 0 41.357422 45.984375 L 35.994141 46 L 35.96875 46 A 0.50021575 0.50021575 0 0 0 35.916016 46.001953 A 0.50021575 0.50021575 0 0 0 35.871094 46.009766 A 0.50021575 0.50021575 0 0 0 35.845703 46.015625 A 0.50005 0.50005 0 0 0 35.798828 46.029297 A 0.50005 0.50005 0 0 0 35.751953 46.048828 A 0.50005 0.50005 0 0 0 35.466797 46.445312 L 33.060547 54.972656 L 24.166016 54.972656 L 25.710938 49.703125 A 0.50005 0.50005 0 0 0 25.230469 49.0625 L 18.830078 49.0625 L 24.644531 31 z M 40.701172 46.986328 L 38.394531 55.296875 A 0.50005 0.50005 0 0 0 38.402344 55.707031 A 0.50005 0.50005 0 0 0 38.402344 55.708984 A 0.50005 0.50005 0 0 0 38.404297 55.712891 A 0.50005 0.50005 0 0 0 38.40625 55.716797 A 0.50005 0.50005 0 0 0 38.425781 55.753906 A 0.50005 0.50005 0 0 0 38.449219 55.789062 A 0.50005 0.50005 0 0 0 38.455078 55.796875 L 42.667969 61.730469 A 0.50005 0.50005 0 0 0 42.75 61.845703 L 47.503906 68.539062 A 1.0001 1.0001 0 0 0 47.101562 69.091797 L 44.380859 78.630859 L 31.1875 65.292969 L 36.349609 46.998047 L 40.701172 46.986328 z M 51.007812 47 L 55.412109 47.005859 L 52.107422 60.740234 L 48.748047 55.412109 L 51.007812 47 z M 18.507812 50.0625 L 24.564453 50.0625 L 21.523438 60.423828 A 0.50005 0.50005 0 0 0 22.003906 61.064453 L 31.341797 61.064453 L 30.195312 65.125 L 13.660156 65.125 L 18.507812 50.0625 z M 23.871094 55.972656 L 32.777344 55.972656 L 31.623047 60.064453 L 22.671875 60.064453 L 23.871094 55.972656 z M 47.931641 55.996094 L 51.78125 62.097656 L 51.023438 65.248047 L 51.023438 65.25 A 0.50005 0.50005 0 0 0 51.044922 65.662109 A 0.50005 0.50005 0 0 0 51.070312 65.705078 A 0.50005 0.50005 0 0 0 51.072266 65.710938 L 53.867188 70 L 49.714844 70 L 49.642578 69.894531 A 0.50018649 0.50018649 0 0 0 49.5625 69.710938 L 44.085938 62 L 46.78125 62 A 0.50005 0.50005 0 1 0 46.78125 61 L 43.375 61 L 39.824219 56 L 47.931641 55.996094 z M 52.414062 65.9375 L 68.734375 65.9375 L 74.539062 75.017578 L 70.841797 75.017578 A 0.50005 0.50005 0 1 0 70.841797 76.017578 L 75.177734 76.017578 L 77.082031 78.996094 L 61.345703 79 L 55.369141 70.427734 A 1.0001 1.0001 0 0 0 55.25 70.287109 L 52.414062 65.9375 z M 30.603516 66.123047 L 34.4375 70 L 31.78125 70 A 0.50005 0.50005 0 1 0 31.78125 71 L 35.367188 71 A 0.50005 0.50005 0 0 0 35.423828 70.998047 L 43.339844 79 L 27.466797 79 L 14.431641 66.125 L 30.574219 66.125 A 0.50005 0.50005 0 0 0 30.603516 66.123047 z"/></svg>