<?xml version="1.0"?><svg fill="#000000" xmlns="http://www.w3.org/2000/svg" viewBox="0 0 24 24" width="50px" height="50px">    <path d="M 3 3 C 1.895 3 1 3.895 1 5 L 1 17 C 1 18.105 1.895 19 3 19 L 8 19 L 8 21 L 16 21 L 16 19 L 21 19 C 22.105 19 23 18.105 23 17 L 23 5 C 23 3.895 22.105 3 21 3 L 3 3 z M 3 5 L 21 5 L 21 17 L 3 17 L 3 5 z M 12.335938 8 L 11.652344 13.982422 L 14.693359 13.982422 C 16.591359 13.982422 18.044922 12.768578 18.044922 10.392578 C 18.043922 8.0185781 15.513672 8 15.513672 8 L 12.335938 8 z M 8.7109375 8.0097656 C 8.1519375 8.0097656 7.5486094 8.1553906 7.0996094 8.4003906 L 7.0097656 8.4492188 L 7.2226562 9.5683594 L 7.3945312 9.4707031 C 7.6095313 9.3477031 8.0010781 9.2167969 8.4550781 9.2167969 C 8.6990781 9.2167969 9 9.3714375 9 9.6484375 C 9 10.031437 8.4252969 10.346703 7.9042969 10.345703 L 7.59375 10.345703 L 7.3847656 11.457031 L 7.765625 11.457031 C 8.746625 11.457031 8.7460938 11.906688 8.7460938 12.054688 C 8.7460938 12.438688 8.3658281 12.695312 7.7988281 12.695312 C 7.2588281 12.695313 6.8279688 12.49325 6.6679688 12.40625 L 6.5273438 12.330078 L 6.0625 13.537109 L 6.140625 13.603516 C 6.432625 13.846516 7.09125 14.009766 7.78125 14.009766 C 8.99925 14.009766 10.292969 13.322875 10.292969 12.046875 C 10.292969 11.502875 10.030609 11.054219 9.5996094 10.824219 C 10.187609 10.554219 10.5625 10.033359 10.5625 9.4433594 C 10.5625 8.5853594 9.8199375 8.0097656 8.7109375 8.0097656 z M 13.925781 9.2167969 L 14.847656 9.2167969 C 14.847656 9.2167969 16.335938 9.2321719 16.335938 10.701172 C 16.334937 12.546172 14.539062 12.716797 14.539062 12.716797 L 13.515625 12.716797 L 13.925781 9.2167969 z"/></svg>