<svg fill="#000000" xmlns="http://www.w3.org/2000/svg" viewBox="0 0 16 16" width="100px" height="100px"><path d="M 1.5 2 C 1.222656 2 1 2.222656 1 2.5 L 1 11.097656 C 1 11.246094 1.0625 11.382813 1.171875 11.476563 L 3.921875 13.875 C 4.011719 13.957031 4.128906 14 4.25 14 L 9 14 L 9 13 L 5 13 L 5 5 L 13 5 L 13 9 L 14 10 L 14 4.375 C 14 4.191406 13.902344 4.027344 13.742188 3.9375 L 10.367188 2.0625 C 10.292969 2.023438 10.210938 2 10.125 2 Z M 3.152344 3 L 9.996094 3 L 11.796875 4 L 4.652344 4 Z M 2 3.433594 L 4 4.765625 L 4 12.621094 L 2 10.875 Z M 11.050781 10.007813 C 11.03125 9.992188 11 10.003906 11 10.027344 L 11 15 L 12.214844 14.011719 L 12.9375 15.753906 L 13.042969 16 L 13.785156 15.699219 L 12.941406 13.707031 L 14.75 13.488281 Z"/></svg>