<svg xmlns="http://www.w3.org/2000/svg" viewBox="0 0 48 48" width="50px" height="50px"><path fill="#FFC107" d="M21.318 13.818H24.318V23.817999999999998H21.318z" transform="rotate(45.001 22.818 18.818)"/><path fill="#FFC107" d="M27.682 20.182H30.682V30.182H27.682z" transform="rotate(45.001 29.183 25.182)"/><path fill="#90A4AE" d="M35.637 23.678L40 19.435 40 14 34 8 28.564 8 24.322 12.364z"/><path fill="#90A4AE" d="M35.75 6.24H39.75V14.261000000000001H35.75z" transform="rotate(45.009 37.752 10.25)"/><path fill="#90A4AE" d="M23.678 35.636L19.435 40 14 40 8 34 8 28.564 12.364 24.322z"/><path fill="#90A4AE" d="M8.457 33.239H12.457V41.846999999999994H8.457z" transform="rotate(45.009 10.457 37.545)"/><g><path fill="#546E7A" d="M18.565 17.434H38.565V21.435000000000002H18.565z" transform="rotate(45.001 28.565 19.434)"/><path fill="#546E7A" d="M9.435 26.565H29.433999999999997V30.565H9.435z" transform="rotate(45.001 19.435 28.565)"/></g></svg>