<svg xmlns="http://www.w3.org/2000/svg" viewBox="0 0 24 24" width="50px" height="50px"><path d="M11 7H17V9H11zM7 7H9V9H7zM7 11H9V13H7zM7 15H9V17H7zM21 19h-2v2h-2v-2h-2v-2h2v-2h2v2h2V19z"/><path d="M18,24c-3.3,0-6-2.7-6-6s2.7-6,6-6s6,2.7,6,6S21.3,24,18,24z M18,14c-2.2,0-4,1.8-4,4s1.8,4,4,4s4-1.8,4-4S20.2,14,18,14z"/><path d="M18 13A5 5 0 1 0 18 23A5 5 0 1 0 18 13Z" opacity=".3"/><path d="M10,18c0-4.4,3.6-8,8-8c0.7,0,1.4,0.1,2,0.3V4H4v16h6.3 C10.1,19.4,10,18.7,10,18z" opacity=".3"/><path d="M10.1,19H5V5h14v5.1c0.7,0.1,1.4,0.3,2,0.5V5c0-1.1-0.9-2-2-2H5C3.9,3,3,3.9,3,5v14c0,1.1,0.9,2,2,2h5.6 C10.3,20.4,10.2,19.7,10.1,19z"/><path d="M11,13h0.8c0.7-0.8,1.5-1.5,2.4-2H11V13z"/></svg>