<svg fill="#000000" xmlns="http://www.w3.org/2000/svg" viewBox="0 0 16 16" width="500px" height="500px"><path d="M 2.4824219 1.9824219 C 1.6598905 1.9824219 0.98242185 2.6598905 0.98242188 3.4824219 L 0.98242188 11.482422 C 0.98242188 12.304953 1.6598905 12.982422 2.4824219 12.982422 L 7.2714844 12.982422 C 7.8884307 14.732826 9.5425032 16 11.5 16 C 13.979359 16 16 13.979359 16 11.5 C 16 10.430435 15.609096 9.4589913 14.982422 8.6855469 L 14.982422 3.4824219 C 14.982422 2.6598905 14.304953 1.9824219 13.482422 1.9824219 L 2.4824219 1.9824219 z M 2.4824219 2.9824219 L 13.482422 2.9824219 C 13.76389 2.9824219 13.982422 3.2009533 13.982422 3.4824219 L 13.982422 3.9824219 L 1.9824219 3.9824219 L 1.9824219 3.4824219 C 1.9824219 3.2009533 2.2009533 2.9824219 2.4824219 2.9824219 z M 1.9824219 4.9824219 L 13.982422 4.9824219 L 13.982422 7.7519531 C 13.398407 7.3635984 12.713422 7.1284203 11.982422 7.0488281 L 11.982422 6.9824219 L 5.9824219 6.9824219 L 5.9824219 7.9824219 L 8.7285156 7.9824219 C 8.3647809 8.2698257 8.0341598 8.5979991 7.7734375 8.9824219 L 5.9824219 8.9824219 L 5.9824219 9.9824219 L 7.28125 9.9824219 C 7.1090013 10.458734 7 10.96537 7 11.5 C 7 11.66533 7.0313214 11.821634 7.0488281 11.982422 L 2.4824219 11.982422 C 2.2009533 11.982422 1.9824219 11.76389 1.9824219 11.482422 L 1.9824219 4.9824219 z M 3.9824219 6.9824219 L 3.9824219 7.9824219 L 4.9824219 7.9824219 L 4.9824219 6.9824219 L 3.9824219 6.9824219 z M 11.5 8 C 13.438919 8 15 9.5610811 15 11.5 C 15 13.438919 13.438919 15 11.5 15 C 9.5610811 15 8 13.438919 8 11.5 C 8 9.5610811 9.5610811 8 11.5 8 z M 3.9824219 8.9824219 L 3.9824219 9.9824219 L 4.9824219 9.9824219 L 4.9824219 8.9824219 L 3.9824219 8.9824219 z M 11 9 L 11 11 L 9 11 L 9 12 L 11 12 L 11 14 L 12 14 L 12 12 L 14 12 L 14 11 L 12 11 L 12 9 L 11 9 z"/></svg>