<?xml version="1.0"?><svg fill="#000000" xmlns="http://www.w3.org/2000/svg" viewBox="0 0 24 24" width="500px" height="500px">    <path d="M 6 4 C 3.077 4 0.7384375 6.5101875 1.0234375 9.4921875 C 1.2714375 12.091187 3.6047969 14 6.2167969 14 L 9 14 C 9.552 14 10 13.552 10 13 C 10 12.448 9.552 12 9 12 L 6.1699219 12 C 4.5449219 12 3.0908594 10.782156 3.0058594 9.1601562 C 2.9148594 7.4301563 4.29 6 6 6 L 9 6 C 9.552 6 10 5.552 10 5 C 10 4.448 9.552 4 9 4 L 6 4 z M 15 4 C 14.448 4 14 4.448 14 5 C 14 5.552 14.448 6 15 6 L 17.830078 6 C 19.455078 6 20.909141 7.2178437 20.994141 8.8398438 C 21.085141 10.569844 19.71 12 18 12 L 15 12 C 14.448 12 14 12.448 14 13 C 14 13.552 14.448 14 15 14 L 18 14 C 20.923 14 23.261563 11.489813 22.976562 8.5078125 C 22.728563 5.9088125 20.395203 4 17.783203 4 L 15 4 z M 8 8 C 7.448 8 7 8.448 7 9 C 7 9.552 7.448 10 8 10 L 16 10 C 16.552 10 17 9.552 17 9 C 17 8.448 16.552 8 16 8 L 8 8 z M 20 16 C 19.448 16 19 16.448 19 17 L 19 19 L 17 19 C 16.448 19 16 19.448 16 20 C 16 20.552 16.448 21 17 21 L 19 21 L 19 23 C 19 23.552 19.448 24 20 24 C 20.552 24 21 23.552 21 23 L 21 21 L 23 21 C 23.552 21 24 20.552 24 20 C 24 19.448 23.552 19 23 19 L 21 19 L 21 17 C 21 16.448 20.552 16 20 16 z"/></svg>