<svg xmlns="http://www.w3.org/2000/svg" viewBox="0 0 48 48" width="300px" height="300px"><path fill="#ffca28" d="M44,24c0,11-9,20-20,20S4,35,4,24S13,4,24,4S44,13,44,24z"/><path fill="#6d4c41" d="M35,23c0,2.2-1.8,4-4,4s-4-1.8-4-4s1.8-4,4-4S35,20.8,35,23z"/><path fill="#fff" d="M31,21.5c0,0.8-0.7,1.5-1.5,1.5S28,22.3,28,21.5s0.7-1.5,1.5-1.5S31,20.7,31,21.5z"/><path fill="#c62828" d="M29,35c0-3-2-6-5-6s-5,3-5,6c0,0,1,3,5,3S29,35,29,35z"/><polygon fill="#b76c09" points="15.541,27.871 14.209,26.379 17.998,22.999 14.083,19.495 15.417,18.005 21,23.001"/></svg>