<svg xmlns="http://www.w3.org/2000/svg" viewBox="0 0 16 16" width="100px" height="100px"><path fill="#f5ce85" d="M0.4 12.7L0.9 11.2 5.6 6.5 7.5 8.4 5.3 10.6 3.6 10.6 3.6 12.3 2.8 13.1 1.3 13.6z"/><path fill="#967a44" d="M5.6,7.1l1.4,1.4l-1.8,1.8H4H3.3V11v1.1l-0.6,0.6l-1.3,0.4l-0.5-0.5l0.4-1.3L5.6,7.1 M5.6,6l-5,5 L0,12.8L1.2,14L3,13.4l1-1V11h1.4L8,8.4L5.6,6L5.6,6z"/><path fill="#967a44" d="M7.8 10.2H8.8V10.299999999999999H7.8z" transform="rotate(-45.001 8.263 10.22)"/><path fill="#967a44" d="M9.5,1c0.9,0,1.8,0.4,2.5,1c0.7,0.7,1,1.5,1,2.5S12.6,6.3,12,7c-0.7,0.7-1.5,1-2.5,1S7.7,7.6,7,7 S6,5.4,6,4.5S6.4,2.7,7,2S8.6,1,9.5,1 M9.5,0C8.3,0,7.2,0.4,6.3,1.3c-1.8,1.8-1.8,4.6,0,6.4C7.2,8.6,8.3,9,9.5,9s2.3-0.4,3.2-1.3 c1.8-1.8,1.8-4.6,0-6.4C11.8,0.4,10.7,0,9.5,0L9.5,0z"/><path fill="#f5ce85" d="M7.1,9.5C7,9.5,6.8,9.5,6.7,9.3l-2-2C4.5,7.2,4.5,7,4.5,6.9s0.1-0.3,0.2-0.4l0.9-0.9l0-0.2 C5.2,4,5.6,2.6,6.6,1.6C6.8,1.4,7,1.2,7.3,1L13,6.7c-0.2,0.3-0.4,0.5-0.6,0.7c-0.8,0.8-1.8,1.2-2.9,1.2l0,0c-0.3,0-0.6,0-0.9-0.1 l-0.2,0L7.6,9.3C7.5,9.5,7.3,9.5,7.1,9.5z"/><path fill="#967a44" d="M7.3,1.5l5.2,5.2c-0.1,0.2-0.2,0.3-0.3,0.4c-0.7,0.7-1.6,1.1-2.6,1.1c-0.3,0-0.5,0-0.8-0.1L8.3,8.1 L8,8.4L7.3,9.1C7.3,9.1,7.2,9.1,7.1,9.1S7,9.1,7,9.1l-2-2c-0.1-0.1-0.1-0.3,0-0.4L5.6,6l0.3-0.3L5.8,5.3C5.6,4,5.9,2.7,6.8,1.8 C7,1.7,7.1,1.6,7.3,1.5 M7.4,0.6C7,0.8,6.6,1,6.3,1.3C5.2,2.4,4.8,4,5.1,5.4L4.4,6.2C4,6.5,4,7.2,4.4,7.6l2,2 c0.2,0.2,0.5,0.3,0.7,0.3s0.5-0.1,0.7-0.3l0.7-0.7C8.9,9,9.2,9,9.5,9c1.1,0,2.3-0.4,3.2-1.3C13,7.4,13.2,7,13.4,6.6L7.4,0.6 L7.4,0.6z"/><path fill="#5e9c76" d="M11.5 7A4.5 4.5 0 1 0 11.5 16A4.5 4.5 0 1 0 11.5 7Z"/><path fill="#fff" d="M11 9H12V14H11z"/><path fill="#fff" d="M9 11H14V12H9z"/></svg>