<svg fill="#000000" xmlns="http://www.w3.org/2000/svg" viewBox="0 0 24 24" width="100px" height="100px"><path d="M 3.9902344 2.9902344 A 1.0001 1.0001 0 0 0 3.8613281 3 L 3 3 L 3 3.8632812 A 1.0001 1.0001 0 0 0 3 4.1289062 L 3 16.414062 L 7.2050781 20.619141 A 1.0001 1.0001 0 0 0 7.3964844 20.810547 L 7.5859375 21 L 7.8320312 21 A 1.0001 1.0001 0 0 0 8.1582031 21 L 14 21 L 14 19 L 9 19 L 9 9 L 19 9 L 19 11.111328 L 21 13.035156 L 21 8.1679688 A 1.0001 1.0001 0 0 0 21 7.8417969 L 21 7.5859375 L 20.806641 7.3925781 A 1.0001 1.0001 0 0 0 20.623047 7.2070312 A 1.0001 1.0001 0 0 0 20.617188 7.203125 L 16.414062 3 L 4.1171875 3 A 1.0001 1.0001 0 0 0 3.9902344 2.9902344 z M 6.4140625 5 L 15.585938 5 L 17.585938 7 L 8.4140625 7 L 6.4140625 5 z M 5 6.4140625 L 7 8.4140625 L 7 17.585938 L 5 15.585938 L 5 6.4140625 z M 16 11 L 16 21 L 18.273438 18.837891 L 20.306641 23.523438 L 22.353516 22.556641 L 20.291016 18 L 23.273438 18 L 16 11 z"/></svg>