<svg fill="#000000" xmlns="http://www.w3.org/2000/svg" viewBox="0 0 26 26" width="300px" height="300px"><path d="M 12.78125 0 C 12.679688 0.0273438 12.585938 0.0703125 12.5 0.125 C 12.480469 0.132813 12.457031 0.144531 12.4375 0.15625 C 12.425781 0.167969 12.417969 0.175781 12.40625 0.1875 C 12.363281 0.214844 12.320313 0.246094 12.28125 0.28125 C 12.222656 0.335938 12.167969 0.398438 12.125 0.46875 L 0.28125 12.28125 C 0.207031 12.355469 0.144531 12.4375 0.09375 12.53125 C 0.0820313 12.550781 0.0703125 12.574219 0.0625 12.59375 C 0.0625 12.605469 0.0625 12.613281 0.0625 12.625 C 0.0507813 12.644531 0.0390625 12.667969 0.03125 12.6875 C 0.03125 12.699219 0.03125 12.707031 0.03125 12.71875 C 0.0195313 12.738281 0.0078125 12.761719 0 12.78125 C 0 12.792969 0 12.800781 0 12.8125 C -0.0273438 12.96875 -0.015625 13.128906 0.03125 13.28125 C 0.0390625 13.300781 0.0507813 13.324219 0.0625 13.34375 C 0.0625 13.355469 0.0625 13.363281 0.0625 13.375 C 0.0742188 13.386719 0.0820313 13.394531 0.09375 13.40625 C 0.125 13.484375 0.167969 13.558594 0.21875 13.625 C 0.230469 13.636719 0.238281 13.644531 0.25 13.65625 C 0.257813 13.675781 0.269531 13.699219 0.28125 13.71875 C 0.3125 13.742188 0.34375 13.761719 0.375 13.78125 L 12.125 25.5625 C 12.160156 25.617188 12.203125 25.671875 12.25 25.71875 L 12.28125 25.71875 C 12.320313 25.765625 12.359375 25.804688 12.40625 25.84375 C 12.417969 25.84375 12.425781 25.84375 12.4375 25.84375 C 12.457031 25.867188 12.476563 25.886719 12.5 25.90625 C 12.511719 25.90625 12.519531 25.90625 12.53125 25.90625 C 12.550781 25.917969 12.574219 25.929688 12.59375 25.9375 C 12.605469 25.9375 12.613281 25.9375 12.625 25.9375 C 12.644531 25.949219 12.667969 25.960938 12.6875 25.96875 C 12.699219 25.96875 12.707031 25.96875 12.71875 25.96875 C 12.738281 25.980469 12.761719 25.992188 12.78125 26 C 12.792969 26 12.800781 26 12.8125 26 C 12.90625 26.011719 13 26.011719 13.09375 26 C 13.125 26 13.15625 26 13.1875 26 C 13.230469 25.992188 13.273438 25.980469 13.3125 25.96875 C 13.367188 25.953125 13.417969 25.929688 13.46875 25.90625 C 13.539063 25.863281 13.601563 25.808594 13.65625 25.75 C 13.703125 25.710938 13.742188 25.671875 13.78125 25.625 L 25.59375 13.8125 C 25.636719 13.785156 25.679688 13.753906 25.71875 13.71875 C 25.730469 13.707031 25.738281 13.699219 25.75 13.6875 C 25.761719 13.675781 25.769531 13.667969 25.78125 13.65625 C 25.792969 13.644531 25.800781 13.636719 25.8125 13.625 C 25.824219 13.605469 25.835938 13.582031 25.84375 13.5625 C 25.855469 13.550781 25.863281 13.542969 25.875 13.53125 C 25.886719 13.519531 25.894531 13.511719 25.90625 13.5 C 25.980469 13.367188 26.023438 13.214844 26.03125 13.0625 C 26.03125 13.042969 26.03125 13.019531 26.03125 13 C 26.03125 12.988281 26.03125 12.980469 26.03125 12.96875 C 26.03125 12.949219 26.03125 12.925781 26.03125 12.90625 C 26.023438 12.863281 26.011719 12.820313 26 12.78125 C 26 12.761719 26 12.738281 26 12.71875 C 25.988281 12.707031 25.980469 12.699219 25.96875 12.6875 C 25.96875 12.667969 25.96875 12.644531 25.96875 12.625 C 25.9375 12.546875 25.894531 12.472656 25.84375 12.40625 C 25.84375 12.394531 25.84375 12.386719 25.84375 12.375 C 25.824219 12.363281 25.800781 12.351563 25.78125 12.34375 C 25.773438 12.324219 25.761719 12.300781 25.75 12.28125 C 25.6875 12.207031 25.613281 12.144531 25.53125 12.09375 L 13.84375 0.4375 C 13.824219 0.414063 13.804688 0.394531 13.78125 0.375 L 13.71875 0.28125 C 13.644531 0.207031 13.5625 0.144531 13.46875 0.09375 C 13.449219 0.0820313 13.425781 0.0703125 13.40625 0.0625 C 13.394531 0.0625 13.386719 0.0625 13.375 0.0625 C 13.355469 0.0507813 13.332031 0.0390625 13.3125 0.03125 C 13.300781 0.03125 13.292969 0.03125 13.28125 0.03125 C 13.261719 0.0195313 13.238281 0.0078125 13.21875 0 C 13.113281 -0.015625 13.011719 -0.015625 12.90625 0 C 12.894531 0 12.886719 0 12.875 0 C 12.84375 0 12.8125 0 12.78125 0 Z M 12.34375 3.09375 L 14.71875 16.53125 L 2.875 12.5625 Z M 14.5625 4 L 23.34375 12.78125 L 16.75 16.4375 Z M 9.90625 6.8125 C 9.792969 6.824219 9.695313 6.855469 9.59375 6.90625 C 9.394531 7.007813 9.195313 7.210938 9.09375 7.3125 C 8.894531 7.511719 8.789063 7.699219 8.6875 8 C 8.585938 8.300781 8.59375 8.605469 8.59375 8.90625 C 8.695313 9.207031 8.800781 9.386719 9 9.6875 C 8.898438 9.6875 8.699219 9.710938 8.5 9.8125 C 8.398438 9.914063 8.210938 9.988281 8.3125 10.1875 C 8.113281 10.289063 8.007813 10.492188 7.90625 10.59375 C 7.804688 10.695313 7.695313 10.894531 7.59375 11.09375 C 7.394531 11.394531 7.40625 11.699219 7.40625 12 C 7.40625 12.300781 7.492188 12.613281 7.59375 12.8125 C 7.695313 13.011719 7.894531 13.207031 8.09375 13.40625 C 8.292969 13.605469 8.605469 13.710938 8.90625 13.8125 C 9.207031 13.914063 9.511719 13.90625 9.8125 13.90625 C 10.113281 13.90625 10.394531 13.789063 10.59375 13.6875 C 10.792969 13.585938 10.988281 13.386719 11.1875 13.1875 C 11.386719 12.886719 11.492188 12.613281 11.59375 12.3125 C 11.695313 12.113281 11.6875 11.886719 11.6875 11.6875 C 11.6875 11.585938 11.695313 11.386719 11.59375 11.1875 C 11.59375 10.988281 11.507813 10.886719 11.40625 10.6875 C 11.304688 10.585938 11.195313 10.414063 11.09375 10.3125 C 11.394531 10.210938 11.707031 10.105469 11.90625 9.90625 C 12.207031 9.707031 12.304688 9.394531 12.40625 9.09375 C 12.40625 8.792969 12.507813 8.613281 12.40625 8.3125 C 12.40625 8.113281 12.289063 7.886719 12.1875 7.6875 C 12.085938 7.488281 11.886719 7.289063 11.6875 7.1875 C 11.488281 7.085938 11.300781 7.007813 11 6.90625 C 10.800781 6.804688 10.511719 6.8125 10.3125 6.8125 C 10.164063 6.8125 10.019531 6.800781 9.90625 6.8125 Z M 10.40625 7.625 C 10.519531 7.613281 10.664063 7.636719 10.8125 7.6875 C 10.914063 7.789063 10.992188 7.804688 11.09375 7.90625 C 11.195313 8.007813 11.3125 8.085938 11.3125 8.1875 C 11.414063 8.289063 11.40625 8.398438 11.40625 8.5 C 11.40625 8.601563 11.3125 8.804688 11.3125 8.90625 C 11.3125 9.007813 11.1875 9.085938 11.1875 9.1875 C 11.085938 9.386719 11.007813 9.398438 10.90625 9.5 C 10.804688 9.5 10.695313 9.59375 10.59375 9.59375 C 10.492188 9.695313 10.289063 9.59375 10.1875 9.59375 C 10.085938 9.492188 10.007813 9.507813 9.90625 9.40625 C 9.804688 9.304688 9.6875 9.195313 9.6875 9.09375 C 9.585938 8.894531 9.59375 8.789063 9.59375 8.6875 C 9.59375 8.585938 9.6875 8.414063 9.6875 8.3125 C 9.789063 8.113281 9.894531 7.914063 10.09375 7.8125 C 10.195313 7.710938 10.292969 7.636719 10.40625 7.625 Z M 9.59375 10.40625 C 9.695313 10.40625 9.800781 10.5 10 10.5 C 10.199219 10.5 10.304688 10.585938 10.40625 10.6875 C 10.507813 10.789063 10.492188 10.898438 10.59375 11 C 10.695313 11.101563 10.6875 11.207031 10.6875 11.40625 C 10.6875 11.605469 10.695313 11.707031 10.59375 11.90625 C 10.492188 12.304688 10.289063 12.5 10.1875 12.5 C 9.886719 12.699219 9.613281 12.695313 9.3125 12.59375 C 9.113281 12.59375 9.007813 12.507813 8.90625 12.40625 C 8.804688 12.304688 8.789063 12.195313 8.6875 12.09375 C 8.585938 11.992188 8.59375 11.886719 8.59375 11.6875 C 8.59375 11.488281 8.585938 11.386719 8.6875 11.1875 C 8.6875 11.085938 8.804688 10.914063 8.90625 10.8125 L 9.1875 10.5 C 9.289063 10.5 9.492188 10.40625 9.59375 10.40625 Z M 4.71875 15.28125 L 14.65625 18.59375 L 12.6875 23.25 Z"/></svg>