<svg fill="#000000" xmlns="http://www.w3.org/2000/svg" viewBox="0 0 24 24" width="100px" height="100px"><path d="M 5 3 C 3.897 3 3 3.897 3 5 L 3 19 C 3 20.103 3.897 21 5 21 L 10.587891 21 C 10.331891 20.369 10.155359 19.699 10.068359 19 L 5 19 L 5 5 L 19 5 L 19 10.068359 C 19.699 10.155359 20.369 10.331891 21 10.587891 L 21 5 C 21 3.897 20.103 3 19 3 L 5 3 z M 7 7 L 7 9 L 9 9 L 9 7 L 7 7 z M 11 7 L 11 9 L 17 9 L 17 7 L 11 7 z M 7 11 L 7 13 L 9 13 L 9 11 L 7 11 z M 11 11 L 11 13 L 11.759766 13 C 12.410766 12.189 13.214859 11.507 14.130859 11 L 11 11 z M 18 12 C 14.698136 12 12 14.698136 12 18 C 12 21.301864 14.698136 24 18 24 C 21.301864 24 24 21.301864 24 18 C 24 14.698136 21.301864 12 18 12 z M 18 14 C 20.220984 14 22 15.779016 22 18 C 22 20.220984 20.220984 22 18 22 C 15.779016 22 14 20.220984 14 18 C 14 15.779016 15.779016 14 18 14 z M 7 15 L 7 17 L 9 17 L 9 15 L 7 15 z M 17 15 L 17 17 L 15 17 L 15 19 L 17 19 L 17 21 L 19 21 L 19 19 L 21 19 L 21 17 L 19 17 L 19 15 L 17 15 z"/></svg>