<svg fill="#000000" xmlns="http://www.w3.org/2000/svg" viewBox="0 0 26 26" width="500px" height="500px"><path d="M 10.5 0.15625 C 7.484375 0.15625 5.0625 2.226563 5.0625 6.1875 C 5.0625 8.773438 6.09375 11.410156 7.65625 13.03125 C 8.265625 14.652344 7.167969 15.257813 6.9375 15.34375 C 3.78125 16.5 0.09375 18.601563 0.09375 20.6875 L 0.09375 21.46875 C 0.09375 24.3125 5.507813 24.96875 10.53125 24.96875 C 11.632813 24.96875 12.738281 24.921875 13.8125 24.84375 C 12.492188 23.445313 11.6875 21.574219 11.6875 19.5 C 11.6875 17.710938 12.296875 16.066406 13.3125 14.75 C 13.160156 14.398438 13.101563 13.84375 13.375 13 C 14.929688 11.375 15.9375 8.761719 15.9375 6.1875 C 15.9375 2.226563 13.515625 0.15625 10.5 0.15625 Z M 19.5 13.1875 C 16.015625 13.1875 13.1875 16.011719 13.1875 19.5 C 13.1875 22.988281 16.011719 25.8125 19.5 25.8125 C 22.988281 25.8125 25.8125 22.988281 25.8125 19.5 C 25.8125 16.011719 22.984375 13.1875 19.5 13.1875 Z M 18.625 16 L 20.375 16 L 20.375 18.59375 L 22.96875 18.59375 L 22.96875 20.40625 L 20.375 20.40625 L 20.375 23 L 18.625 23 L 18.625 20.40625 L 16 20.40625 L 16 18.59375 L 18.625 18.59375 Z"/></svg>