<svg xmlns="http://www.w3.org/2000/svg" viewBox="0 0 24 24" width="50px" height="50px"><path fill="none" stroke="#000" stroke-miterlimit="10" stroke-width="2" d="M8 16L12 12 12 6"/><path d="M19,14c-2.761,0-5,2.239-5,5s2.239,5,5,5s5-2.239,5-5S21.761,14,19,14z M22,20h-2v2h-2v-2h-2v-2h2v-2h2v2h2V20z"/><path d="M12.079,19.996C12.052,19.996,12.027,20,12,20c-4.411,0-8-3.589-8-8s3.589-8,8-8s8,3.589,8,8 c0,0.027-0.004,0.052-0.004,0.079c0.695,0.099,1.357,0.299,1.97,0.588C21.981,12.445,22,12.225,22,12c0-5.514-4.486-10-10-10 S2,6.486,2,12s4.486,10,10,10c0.225,0,0.445-0.019,0.666-0.034C12.378,21.352,12.178,20.691,12.079,19.996z"/><path d="M12,19c0-3.866,3.134-7,7-7c0.69,0,1.355,0.104,1.985,0.29C20.988,12.193,21,12.098,21,12 c0-4.971-4.029-9-9-9s-9,4.029-9,9c0,4.971,4.029,9,9,9c0.098,0,0.193-0.012,0.29-0.015C12.104,20.355,12,19.69,12,19z" opacity=".3"/></svg>