<svg fill="#000000" xmlns="http://www.w3.org/2000/svg" viewBox="0 0 80 80" width="500px" height="500px"><path d="M 40 9 C 32.574219 9 26.714844 11.632813 22.824219 16.496094 C 18.929688 21.355469 17 28.34375 17 37 C 17 43.285156 18.667969 53.164063 18.667969 53.164063 L 18.808594 54 L 27.707031 54 C 26.550781 54.429688 25.34375 54.902344 24.09375 55.464844 C 21.671875 56.546875 19.230469 57.851563 17.335938 59.394531 C 15.441406 60.941406 14 62.796875 14 65 L 14 71 L 49.636719 71 C 52.238281 76.320313 57.6875 80 64 80 C 72.824219 80 80 72.824219 80 64 C 80 55.175781 72.824219 48 64 48 C 63.304688 48 62.621094 48.058594 61.949219 48.144531 C 62.46875 44.859375 63 40.285156 63 35 C 63 28.550781 61.277344 23.101563 58.546875 19.21875 C 55.925781 15.492188 52.316406 13.246094 48.46875 13.066406 C 48.261719 12.722656 47.960938 12.109375 46.832031 11.21875 C 45.421875 10.097656 43.175781 9 40 9 Z M 40 11 C 42.722656 11 44.476563 11.902344 45.589844 12.78125 C 46.703125 13.664063 47.113281 14.464844 47.113281 14.464844 L 47.394531 15 L 48 15 C 51.25 15 54.460938 16.886719 56.910156 20.371094 C 59.363281 23.855469 61 28.90625 61 35 C 61 40.539063 60.398438 45.335938 59.859375 48.5625 C 56.710938 49.40625 53.949219 51.183594 51.878906 53.582031 C 49.734375 52.8125 47.863281 52.382813 47 52.203125 L 47 50.089844 C 50.191406 47.742188 52 43.78125 52 39.367188 L 52 33 C 52 29.632813 50.90625 27.371094 49.769531 25.996094 C 48.636719 24.617188 47.390625 24.078125 47.390625 24.078125 L 46.78125 23.824219 L 46.308594 24.277344 C 46.308594 24.277344 45.679688 24.894531 44.160156 25.589844 C 42.640625 26.285156 40.289063 27 37 27 C 35.09375 27 32.929688 27.960938 31.148438 29.671875 C 29.367188 31.386719 28 33.921875 28 37.050781 L 28 39.371094 C 28 43.78125 29.808594 47.746094 33 50.089844 L 33 52 L 20.519531 52 C 20.3125 50.722656 19 42.492188 19 37 C 19 28.640625 20.875 22.125 24.382813 17.746094 C 27.890625 13.363281 33.035156 11 40 11 Z M 48 16 C 47.449219 16 47 16.449219 47 17 C 47 17.550781 47.449219 18 48 18 C 48.550781 18 49 17.550781 49 17 C 49 16.449219 48.550781 16 48 16 Z M 48 20 C 47.449219 20 47 20.449219 47 21 C 47 21.550781 47.449219 22 48 22 C 48.550781 22 49 21.550781 49 21 C 49 20.449219 48.550781 20 48 20 Z M 46.9375 26.191406 C 47.160156 26.304688 47.539063 26.433594 48.230469 27.265625 C 49.09375 28.3125 50 30.054688 50 33 L 50 39.367188 C 50 44.902344 47.070313 49.273438 41.941406 50.1875 L 41.65625 50.234375 L 41.441406 50.433594 C 41.050781 50.789063 40.558594 51 40 51 C 39.441406 51 38.949219 50.789063 38.558594 50.433594 L 38.34375 50.234375 L 38.058594 50.1875 C 32.929688 49.273438 30 44.902344 30 39.371094 L 30 37.050781 C 30 34.5 31.089844 32.507813 32.535156 31.113281 C 33.980469 29.722656 35.820313 29 37 29 C 40.582031 29 43.230469 28.214844 44.992188 27.410156 C 46.261719 26.828125 46.566406 26.496094 46.9375 26.191406 Z M 34.5 35 C 33.671875 35 33 35.671875 33 36.5 C 33 37.328125 33.671875 38 34.5 38 C 35.328125 38 36 37.328125 36 36.5 C 36 35.671875 35.328125 35 34.5 35 Z M 45.5 35 C 44.671875 35 44 35.671875 44 36.5 C 44 37.328125 44.671875 38 45.5 38 C 46.328125 38 47 37.328125 47 36.5 C 47 35.671875 46.328125 35 45.5 35 Z M 64 50 C 71.742188 50 78 56.257813 78 64 C 78 71.742188 71.742188 78 64 78 C 56.257813 78 50 71.742188 50 64 C 50 56.257813 56.257813 50 64 50 Z M 45 51.257813 L 45 56.253906 C 44.878906 56.496094 43.578125 59 40 59 C 36.421875 59 35.121094 56.496094 35 56.253906 L 35 51.261719 C 35.761719 51.601563 36.570313 51.875 37.4375 52.050781 C 38.140625 52.617188 39.019531 53 40 53 C 40.980469 53 41.859375 52.617188 42.5625 52.050781 C 43.429688 51.875 44.238281 51.601563 45 51.257813 Z M 47 54.25 C 47.890625 54.453125 49.167969 54.765625 50.617188 55.253906 C 48.96875 57.769531 48 60.773438 48 64 C 48 64.339844 48.03125 64.667969 48.050781 65 C 48.035156 65 48.015625 65 48 65 C 47.449219 65 47 65.449219 47 66 C 47 66.550781 47.449219 67 48 67 C 48.097656 67 48.191406 66.984375 48.285156 66.957031 C 48.417969 67.65625 48.589844 68.335938 48.8125 69 L 16 69 L 16 65 C 16 63.703125 16.933594 62.308594 18.601563 60.949219 C 20.269531 59.585938 22.578125 58.328125 24.90625 57.285156 C 28.152344 55.835938 31.320313 54.828125 33 54.332031 L 33 56.808594 L 33.105469 57.015625 C 33.105469 57.015625 35.179688 61 40 61 C 44.820313 61 46.894531 57.015625 46.894531 57.015625 L 47 56.808594 Z M 63 57 L 63 63 L 57 63 L 57 65 L 63 65 L 63 71 L 65 71 L 65 65 L 71 65 L 71 63 L 65 63 L 65 57 Z M 20 65 C 19.449219 65 19 65.449219 19 66 C 19 66.550781 19.449219 67 20 67 C 20.550781 67 21 66.550781 21 66 C 21 65.449219 20.550781 65 20 65 Z M 24 65 C 23.449219 65 23 65.449219 23 66 C 23 66.550781 23.449219 67 24 67 C 24.550781 67 25 66.550781 25 66 C 25 65.449219 24.550781 65 24 65 Z M 28 65 C 27.449219 65 27 65.449219 27 66 C 27 66.550781 27.449219 67 28 67 C 28.550781 67 29 66.550781 29 66 C 29 65.449219 28.550781 65 28 65 Z M 32 65 C 31.449219 65 31 65.449219 31 66 C 31 66.550781 31.449219 67 32 67 C 32.550781 67 33 66.550781 33 66 C 33 65.449219 32.550781 65 32 65 Z M 36 65 C 35.449219 65 35 65.449219 35 66 C 35 66.550781 35.449219 67 36 67 C 36.550781 67 37 66.550781 37 66 C 37 65.449219 36.550781 65 36 65 Z M 40 65 C 39.449219 65 39 65.449219 39 66 C 39 66.550781 39.449219 67 40 67 C 40.550781 67 41 66.550781 41 66 C 41 65.449219 40.550781 65 40 65 Z M 44 65 C 43.449219 65 43 65.449219 43 66 C 43 66.550781 43.449219 67 44 67 C 44.550781 67 45 66.550781 45 66 C 45 65.449219 44.550781 65 44 65 Z"/></svg>