<?xml version="1.0"?><svg fill="#000000" xmlns="http://www.w3.org/2000/svg" viewBox="0 0 30 30" width="50px" height="50px">    <path d="M 7 2 C 5.895 2 5 2.895 5 4 L 5 26 C 5 27.105 5.895 28 7 28 L 15.517578 28 C 14.559578 26.57 14 24.851 14 23 C 14 18.029 18.029 14 23 14 C 23.688 14 24.356 14.083469 25 14.230469 L 25 9.5 C 25 9.235 24.895031 8.9809688 24.707031 8.7929688 L 18.207031 2.2929688 C 18.019031 2.1049688 17.765 2 17.5 2 L 7 2 z M 17 3.9042969 L 23.095703 10 L 18 10 C 17.448 10 17 9.552 17 9 L 17 3.9042969 z M 23 16 C 19.134 16 16 19.134 16 23 C 16 26.866 19.134 30 23 30 C 26.866 30 30 26.866 30 23 C 30 19.134 26.866 16 23 16 z M 23 19 C 23.552 19 24 19.447 24 20 L 24 22 L 26 22 C 26.552 22 27 22.447 27 23 C 27 23.553 26.552 24 26 24 L 24 24 L 24 26 C 24 26.553 23.552 27 23 27 C 22.448 27 22 26.553 22 26 L 22 24 L 20 24 C 19.448 24 19 23.553 19 23 C 19 22.447 19.448 22 20 22 L 22 22 L 22 20 C 22 19.447 22.448 19 23 19 z"/></svg>