<svg fill="#000000" xmlns="http://www.w3.org/2000/svg" viewBox="0 0 32 32" width="50px" height="50px"><path d="M 15 3 L 15 7.5859375 L 13.414062 6 L 12 7.4140625 L 16 11.414062 L 20 7.4140625 L 18.585938 6 L 17 7.5859375 L 17 3 L 15 3 z M 5.7070312 6.2929688 L 4.2929688 7.7070312 L 9.5859375 13 L 3 13 L 3 14 L 3 19 L 4.2792969 19 L 7.2792969 28 L 24.720703 28 L 27.720703 19 L 29 19 L 29 13 L 22.414062 13 L 27.707031 7.7070312 L 26.292969 6.2929688 L 19.585938 13 L 12.414062 13 L 5.7070312 6.2929688 z M 5 15 L 27 15 L 27 17 L 26.279297 17 L 23.279297 26 L 8.7207031 26 L 5.7207031 17 L 5 17 L 5 15 z M 11 18 L 11 24 L 13 24 L 13 18 L 11 18 z M 15 18 L 15 24 L 17 24 L 17 18 L 15 18 z M 19 18 L 19 24 L 21 24 L 21 18 L 19 18 z"/></svg>