<svg fill="#000000" xmlns="http://www.w3.org/2000/svg" viewBox="0 0 32 32" width="100px" height="100px"><path d="M 6 3 L 6 29 L 17.771484 29 C 19.240982 30.824972 21.488603 32 24 32 C 28.4 32 32 28.4 32 24 C 32 20.291044 29.438915 17.160607 26 16.265625 L 26 9.5859375 L 19.414062 3 L 6 3 z M 8 5 L 18 5 L 18 11 L 24 11 L 24 16 C 21.651619 16 19.537215 17.030959 18.070312 18.65625 L 16 16.585938 L 14 18.585938 L 11 15.585938 L 8 18.585938 L 8 5 z M 20 6.4140625 L 22.585938 9 L 20 9 L 20 6.4140625 z M 19 13 C 18.448 13 18 13.448 18 14 C 18 14.552 18.448 15 19 15 C 19.552 15 20 14.552 20 14 C 20 13.448 19.552 13 19 13 z M 24 18 C 27.3 18 30 20.7 30 24 C 30 27.3 27.3 30 24 30 C 20.7 30 18 27.3 18 24 C 18 20.7 20.7 18 24 18 z M 11 18.414062 L 14 21.414062 L 16 19.414062 L 16.908203 20.322266 C 16.33159 21.425828 16 22.674807 16 24 C 16 25.06037 16.212827 26.071744 16.591797 27 L 8 27 L 8 21.414062 L 11 18.414062 z M 23 20 L 23 23 L 20 23 L 20 25 L 23 25 L 23 28 L 25 28 L 25 25 L 28 25 L 28 23 L 25 23 L 25 20 L 23 20 z"/></svg>