<svg fill="#000000" xmlns="http://www.w3.org/2000/svg" viewBox="0 0 32 32" width="500px" height="500px"><path d="M 4 5 L 4 27 L 16.59375 27 C 17.789063 29.917969 20.660156 32 24 32 C 28.40625 32 32 28.40625 32 24 C 32 21.050781 30.386719 18.480469 28 17.09375 L 28 5 Z M 6 7 L 26 7 L 26 16.28125 C 25.355469 16.113281 24.695313 16 24 16 L 24 15 L 12 15 L 12 17 L 20.125 17 C 19.210938 17.507813 18.433594 18.1875 17.78125 19 L 12 19 L 12 21 L 16.59375 21 C 16.210938 21.929688 16 22.933594 16 24 C 16 24.339844 16.019531 24.667969 16.0625 25 L 6 25 Z M 8 11 L 8 13 L 10 13 L 10 11 Z M 12 11 L 12 13 L 24 13 L 24 11 Z M 8 15 L 8 17 L 10 17 L 10 15 Z M 24 18 C 27.324219 18 30 20.675781 30 24 C 30 27.324219 27.324219 30 24 30 C 20.675781 30 18 27.324219 18 24 C 18 20.675781 20.675781 18 24 18 Z M 8 19 L 8 21 L 10 21 L 10 19 Z M 23 20 L 23 23 L 20 23 L 20 25 L 23 25 L 23 28 L 25 28 L 25 25 L 28 25 L 28 23 L 25 23 L 25 20 Z"/></svg>