<svg xmlns="http://www.w3.org/2000/svg" viewBox="0 0 16 16" width="300px" height="300px"><path fill="#4e7ab5" d="M12.8,1c0.6,0,1.1,0.2,1.5,0.6s0.6,1,0.6,1.5s-0.2,1.1-0.6,1.5l-2.6,2.6c-0.4,0.4-1,0.6-1.5,0.6 C9.6,8,9,7.8,8.6,7.4C8.2,7,8,6.4,8,5.8s0.2-1.1,0.6-1.5l2.6-2.6C11.7,1.2,12.2,1,12.8,1 M12.8,0c-0.8,0-1.6,0.3-2.3,0.9L7.9,3.6 c-1.2,1.2-1.2,3.3,0,4.5C8.5,8.7,9.4,9,10.2,9s1.6-0.3,2.3-0.9l2.6-2.6c1.2-1.2,1.2-3.3,0-4.5C14.5,0.3,13.6,0,12.8,0L12.8,0z"/><path fill="#4e7ab5" d="M5.8,8C6.4,8,7,8.2,7.4,8.6S8,9.6,8,10.2c0,0.6-0.2,1.1-0.6,1.5l-2.6,2.6c-0.4,0.4-1,0.6-1.5,0.6 S2,14.8,1.6,14.4S1,13.4,1,12.8c0-0.6,0.2-1.1,0.6-1.5l2.6-2.6C4.7,8.2,5.2,8,5.8,8 M5.8,7C5,7,4.2,7.3,3.6,7.9l-2.6,2.6 c-1.2,1.2-1.2,3.3,0,4.5C1.5,15.7,2.4,16,3.2,16s1.6-0.3,2.3-0.9l2.6-2.6c1.2-1.2,1.2-3.3,0-4.5C7.5,7.3,6.6,7,5.8,7L5.8,7z"/><path fill="#4e7ab5" d="M5.5,11c-0.1,0-0.3,0-0.4-0.1c-0.2-0.2-0.2-0.5,0-0.7l5-5c0.2-0.2,0.5-0.2,0.7,0s0.2,0.5,0,0.7l-5,5 C5.8,11,5.6,11,5.5,11z"/><path fill="#5e9c76" d="M11.5 7A4.5 4.5 0 1 0 11.5 16A4.5 4.5 0 1 0 11.5 7Z"/><path fill="#fff" d="M11 9H12V14H11z"/><path fill="#fff" d="M9 11H14V12H9z"/></svg>