<svg xmlns="http://www.w3.org/2000/svg" viewBox="0 0 48 48" width="300px" height="300px"><path fill="#ffca28" d="M44,24c0,11-9,20-20,20S4,35,4,24S13,4,24,4S44,13,44,24z"/><path fill="#6d4c41" d="M21,23c0,2.2-1.8,4-4,4s-4-1.8-4-4s1.8-4,4-4S21,20.8,21,23z"/><path fill="#fff" d="M17,21.5c0,0.8-0.7,1.5-1.5,1.5S14,22.3,14,21.5s0.7-1.5,1.5-1.5C16.3,20,17,20.7,17,21.5z"/><path fill="#b76c09" d="M24 37c-1.7 0-3-.5-3.9-1.4C19 34.5 19 33.1 19 33l2 0c0 .3.2 2 3 2 4.1 0 5-4 5-4.2l2 .4C30.6 33.2 28.6 37 24 37zM27.8 24.6l-1.6-1.2C26.3 23.3 28 21 31 21s4.7 2.3 4.8 2.4l-1.6 1.2c0 0-1.3-1.6-3.2-1.6S27.8 24.6 27.8 24.6z"/></svg>