<svg fill="#000000" xmlns="http://www.w3.org/2000/svg" viewBox="0 0 32 32" width="100px" height="100px"><path d="M 12 5 C 9.789063 5 8 6.789063 8 9 L 8 12 L 2 12 L 2 14 L 10 14 L 10 9 C 10 7.808594 10.808594 7 12 7 L 12 25 C 10.808594 25 10 24.191406 10 23 L 10 18 L 2 18 L 2 20 L 8 20 L 8 23 C 8 25.210938 9.789063 27 12 27 L 14 27 L 14 5 Z M 24.21875 9.28125 L 22.78125 10.71875 L 27.0625 15 L 16 15 L 16 17 L 27.0625 17 L 22.78125 21.28125 L 24.21875 22.71875 L 30.21875 16.71875 L 30.90625 16 L 30.21875 15.28125 Z"/></svg>