<svg xmlns="http://www.w3.org/2000/svg" viewBox="0 0 48 48" width="300px" height="300px"><path fill="#ffca28" d="M44,24c0,11-9,20-20,20S4,35,4,24S13,4,24,4S44,13,44,24z"/><path fill="#6d4c41" d="M21,23c0,2.2-1.8,4-4,4s-4-1.8-4-4s1.8-4,4-4S21,20.8,21,23z"/><path fill="#fff" d="M17,21.5c0,0.8-0.7,1.5-1.5,1.5S14,22.3,14,21.5s0.7-1.5,1.5-1.5C16.3,20,17,20.7,17,21.5z"/><path fill="#6d4c41" d="M35,23c0,2.2-1.8,4-4,4s-4-1.8-4-4s1.8-4,4-4S35,20.8,35,23z"/><path fill="#fff" d="M31,21.5c0,0.8-0.7,1.5-1.5,1.5S28,22.3,28,21.5s0.7-1.5,1.5-1.5S31,20.7,31,21.5z"/><path fill="#b76c09" d="M24,37c-2.8,0-5-2.2-5-5h2c0,1.7,1.3,3,3,3s3-1.3,3-3h2C29,34.8,26.8,37,24,37z"/><path fill="#ffeb3b" d="M24,4c0.2,0,0.3,0,0.4,0c3.3,0.1,6.4,1,9.1,2.5c3.9,0.4,6.3,1.1,7.2,1.5c-0.6,0.3-1.9,0.7-3.9,1.1 C34,9.6,29.7,10,24,10S14,9.6,11.1,9.1C9.1,8.7,7.8,8.3,7.2,8c0.9-0.5,3.3-1.1,7.2-1.5C17.1,5,20.3,4.1,23.6,4C23.7,4,23.8,4,24,4 C20.8,4,5,4.2,5,8c0,1.3,1.9,2.2,4.5,2.8C14.4,11.9,21.9,12,24,12s9.6-0.1,14.5-1.2C41.1,10.2,43,9.3,43,8C43,4.2,27.2,4,24,4z"/></svg>