<?xml version="1.0"?><svg fill="#000000" xmlns="http://www.w3.org/2000/svg" viewBox="0 0 24 24" width="100px" height="100px">    <path d="M 12 2 C 6.486 2 2 6.486 2 12 C 2 17.514 6.486 22 12 22 C 12.225 22 12.445016 21.981797 12.666016 21.966797 C 12.378016 21.352797 12.178125 20.691094 12.078125 19.996094 L 12.072266 19.996094 C 12.025266 19.671094 12 19.339 12 19 C 12 15.134 15.134 12 19 12 C 19.339 12 19.671094 12.026219 19.996094 12.074219 L 19.996094 12.078125 C 20.691094 12.177125 21.353797 12.378969 21.966797 12.667969 C 21.981797 12.445969 22 12.225 22 12 C 22 6.486 17.514 2 12 2 z M 11 6 L 13 6 L 13 12.414062 L 8.7070312 16.707031 L 7.2929688 15.292969 L 11 11.585938 L 11 6 z M 19 14 C 16.239 14 14 16.239 14 19 C 14 21.761 16.239 24 19 24 C 21.761 24 24 21.761 24 19 C 24 16.239 21.761 14 19 14 z M 18 16 L 20 16 L 20 18 L 22 18 L 22 20 L 20 20 L 20 22 L 18 22 L 18 20 L 16 20 L 16 18 L 18 18 L 18 16 z"/></svg>