<svg xmlns="http://www.w3.org/2000/svg" viewBox="0 0 40 40" width="100px" height="100px"><path fill="#fff" d="M6.5 37.5L6.5 2.5 24.793 2.5 33.5 11.207 33.5 37.5z"/><path fill="#788b9c" d="M24.586,3L33,11.414V37H7V3H24.586 M25,2H6v36h28V11L25,2L25,2z"/><path fill="#c5d4de" d="M23.189,38H34V20.941c-0.327-0.097-0.66-0.179-1-0.245V37H22.39 C22.635,37.351,22.904,37.682,23.189,38z"/><path fill="#fff" d="M24.5 11.5L24.5 2.5 24.793 2.5 33.5 11.207 33.5 11.5z"/><path fill="#788b9c" d="M25 3.414L32.586 11H25V3.414M25 2h-1v10h10v-1L25 2 25 2zM12 16H28V17H12zM12 19H24V20H12zM12 22H28V23H12zM12 28H28V29H12zM12 25H24V26H12z"/><path fill="#bcc9d6" d="M28 23v-1h-2.388c-.495.297-.966.628-1.404 1H28zM28 29v-1h-7.059c-.097.327-.179.66-.245 1H28zM24 26v-1h-1.61c-.225.322-.437.653-.625 1H24z"/><g><path fill="#bae0bd" d="M31,39.5c-4.687,0-8.5-3.813-8.5-8.5s3.813-8.5,8.5-8.5s8.5,3.813,8.5,8.5S35.687,39.5,31,39.5z"/><path fill="#5e9c76" d="M31,23c4.411,0,8,3.589,8,8s-3.589,8-8,8c-4.411,0-8-3.589-8-8S26.589,23,31,23 M31,22 c-4.971,0-9,4.029-9,9s4.029,9,9,9c4.971,0,9-4.029,9-9S35.971,22,31,22L31,22z"/></g><path fill="none" stroke="#fff" stroke-miterlimit="10" stroke-width="2" d="M31 36L31 26M26 31L36 31"/></svg>