<svg fill="#000000" xmlns="http://www.w3.org/2000/svg" viewBox="0 0 32 32" width="300px" height="300px"><path d="M 5 3 L 5 29 L 17.78125 29 C 19.25 30.828125 21.480469 32 24 32 C 28.40625 32 32 28.40625 32 24 C 32 19.933594 28.933594 16.5625 25 16.0625 L 25 13.4375 L 26.71875 11.71875 L 27 11.40625 L 27 3 Z M 7 5 L 21 5 L 21 11.40625 L 21.28125 11.71875 L 23 13.4375 L 23 16.0625 C 19.066406 16.5625 16 19.933594 16 24 C 16 25.066406 16.210938 26.070313 16.59375 27 L 7 27 Z M 23 5 L 25 5 L 25 10.5625 L 24 11.5625 L 23 10.5625 Z M 24 18 C 27.324219 18 30 20.675781 30 24 C 30 27.324219 27.324219 30 24 30 C 20.675781 30 18 27.324219 18 24 C 18 20.675781 20.675781 18 24 18 Z M 23 20 L 23 23 L 20 23 L 20 25 L 23 25 L 23 28 L 25 28 L 25 25 L 28 25 L 28 23 L 25 23 L 25 20 Z"/></svg>