<svg fill="#000000" xmlns="http://www.w3.org/2000/svg" viewBox="0 0 30 30" width="300px" height="300px"><path d="M 4 5 A 2 2 0 0 0 2 7 A 2 2 0 0 0 4 9 A 2 2 0 0 0 6 7 A 2 2 0 0 0 4 5 z M 10 6 A 1.0001 1.0001 0 1 0 10 8 L 27 8 A 1.0001 1.0001 0 1 0 27 6 L 10 6 z M 4 13 A 2 2 0 0 0 2 15 A 2 2 0 0 0 4 17 A 2 2 0 0 0 6 15 A 2 2 0 0 0 4 13 z M 10 14 C 9.447 14 9 14.447 9 15 C 9 15.553 9.447 16 10 16 L 17.349609 16 C 18.894609 14.751 20.859 14 23 14 L 10 14 z M 23 16 C 19.134 16 16 19.134 16 23 C 16 26.866 19.134 30 23 30 C 26.866 30 30 26.866 30 23 C 30 19.134 26.866 16 23 16 z M 23 19 C 23.552 19 24 19.447 24 20 L 24 22 L 26 22 C 26.552 22 27 22.447 27 23 C 27 23.553 26.552 24 26 24 L 24 24 L 24 26 C 24 26.553 23.552 27 23 27 C 22.448 27 22 26.553 22 26 L 22 24 L 20 24 C 19.448 24 19 23.553 19 23 C 19 22.447 19.448 22 20 22 L 22 22 L 22 20 C 22 19.447 22.448 19 23 19 z M 4 21 A 2 2 0 0 0 2 23 A 2 2 0 0 0 4 25 A 2 2 0 0 0 6 23 A 2 2 0 0 0 4 21 z M 10 22 C 9.447 22 9 22.447 9 23 C 9 23.553 9.447 24 10 24 L 14.058594 24 C 14.021594 23.671 14 23.338 14 23 C 14 22.662 14.021594 22.329 14.058594 22 L 10 22 z"/></svg>