<?xml version="1.0"?><svg fill="#000000" xmlns="http://www.w3.org/2000/svg" viewBox="0 0 24 24" width="100px" height="100px">    <path d="M 12 2 C 6.486 2 2 6.486 2 12 C 2 17.514 6.486 22 12 22 C 17.514 22 22 17.514 22 12 C 22 6.486 17.514 2 12 2 z M 14 7 L 16 7 C 17.657 7 19 8.343 19 10 L 19 14 C 19 15.657 17.657 17 16 17 L 14 17 C 13.448 17 13 16.552 13 16 L 13 8 C 13 7.448 13.448 7 14 7 z M 7.8554688 7.0039062 C 8.0075977 6.9966777 8.1631875 7.0012031 8.3203125 7.0175781 C 10.106312 7.2035781 11.309969 9.02825 10.917969 10.78125 C 10.803969 11.29025 10.578062 11.703203 10.289062 12.033203 C 10.715063 12.532203 11 13.189047 11 13.998047 C 11.001 15.334047 10.171672 16.499094 8.8886719 16.871094 C 7.4056719 17.300094 6.018 16.609219 5.375 15.449219 C 5.014 14.798219 5.5294375 14 6.2734375 14 C 6.6154375 14 6.9562344 14.161844 7.1152344 14.464844 C 7.2822344 14.782844 7.616 15 8 15 C 8.552 15 9 14.552 9 14 C 9 13.184 8.3326094 13 8.0996094 13 L 8 13 C 7.448 13 7 12.552 7 12 C 7 11.448 7.448 11 8 11 L 8.0996094 11 C 8.9996094 11 9 10.247 9 10 C 9 9.448 8.552 9 8 9 C 7.616 9 7.2822344 9.2171562 7.1152344 9.5351562 C 6.9552344 9.8381562 6.6154375 10 6.2734375 10 C 5.5264375 10 5.0149062 9.1949688 5.3789062 8.5429688 C 5.8697812 7.6627188 6.7905664 7.0545059 7.8554688 7.0039062 z M 15 9 L 15 15 L 16 15 C 16.55 15 17 14.55 17 14 L 17 10 C 17 9.45 16.55 9 16 9 L 15 9 z"/></svg>