<svg xmlns="http://www.w3.org/2000/svg" viewBox="0 0 48 48" width="500px" height="500px"><path fill="#ffc107" d="M5,34h6v2H5V34z"/><path fill="#455a64" d="M4 7H6V40H4z"/><path fill="#546e7a" d="M8,41H2v-2c0,0,2-1,2-3h2c0,2,2,3,2,3V41z"/><path fill="#cfd8dc" d="M46,41H10V23.4c0-1.4,1-2.7,2.4-2.9c3-0.6,8.5-1.4,15.6-1.4s12.6,0.9,15.6,1.4 C45,20.7,46,22,46,23.4V41z"/><path fill="#607d8b" d="M14,23h28v4H14V23z"/><path fill="#37474f" d="M23,26h-2v-2h2V26z M20,24h-2v2h2V24z M17,24h-2v2h2V24z M26,24h-2v2h2V24z M29,24h-2v2h2V24z M32,24h-2v2h2V24z M35,24h-2v2h2V24z M38,24h-2v2h2V24z M41,24h-2v2h2V24z"/><path fill="#fff" d="M40 30h2v2h-2V30zM40 33h2v2h-2V33zM40 36h2v2h-2V36z"/></svg>