<svg xmlns="http://www.w3.org/2000/svg" viewBox="0 0 40 40" width="100px" height="100px"><path fill="#fff" d="M1.5 13.5H38.5V26.5H1.5z"/><path fill="#4788c7" d="M38,14v12H2V14H38 M39,13H1v14h38V13L39,13z"/><path fill="#98ccfd" d="M31,39.5c-4.687,0-8.5-3.813-8.5-8.5s3.813-8.5,8.5-8.5s8.5,3.813,8.5,8.5S35.687,39.5,31,39.5z"/><path fill="#4788c7" d="M31,23c4.411,0,8,3.589,8,8s-3.589,8-8,8s-8-3.589-8-8S26.589,23,31,23 M31,22 c-4.971,0-9,4.029-9,9s4.029,9,9,9s9-4.029,9-9S35.971,22,31,22L31,22z"/><path fill="none" stroke="#fff" stroke-miterlimit="10" stroke-width="2" d="M31 36L31 26M26 31L36 31"/></svg>