<svg xmlns="http://www.w3.org/2000/svg" viewBox="0 0 100 100" width="500px" height="500px"><path fill="#f1bc19" d="M77 12A1 1 0 1 0 77 14A1 1 0 1 0 77 12Z"/><path fill="#e4e4f9" d="M50 13A37 37 0 1 0 50 87A37 37 0 1 0 50 13Z"/><path fill="#f1bc19" d="M83 11A4 4 0 1 0 83 19A4 4 0 1 0 83 11Z"/><path fill="#8889b9" d="M87 22A2 2 0 1 0 87 26A2 2 0 1 0 87 22Z"/><path fill="#fbcd59" d="M81 74A2 2 0 1 0 81 78 2 2 0 1 0 81 74zM15 59A4 4 0 1 0 15 67 4 4 0 1 0 15 59z"/><path fill="#8889b9" d="M25 85A2 2 0 1 0 25 89A2 2 0 1 0 25 85Z"/><path fill="#fff" d="M18.5 49A2.5 2.5 0 1 0 18.5 54 2.5 2.5 0 1 0 18.5 49zM79.5 32A1.5 1.5 0 1 0 79.5 35 1.5 1.5 0 1 0 79.5 32z"/><path fill="#fefdef" d="M68.333,35.521c-4.851-4.934-7.623-7.753-12.475-12.687H44.266h-5.61h-1.745H36.13 c-2.959,0-5.38,2.462-5.38,5.471v38.557c0,3.01,2.421,5.471,5.38,5.471H46.5h5.917h7.75h2.786c2.959,0,5.38-2.463,5.38-5.471 v-2.445v-8.083V49L68.333,35.521L68.333,35.521z"/><path fill="#472b29" d="M56.5 73.033H36.13c-3.353 0-6.08-2.769-6.08-6.171V28.305c0-3.403 2.728-6.172 6.08-6.172h19.729c.188 0 .368.075.499.209l12.475 12.688c.129.132.201.308.201.491L69.033 61c0 .387-.313.7-.7.7l0 0c-.387 0-.7-.313-.7-.7V35.807L55.565 23.533H36.13c-2.581 0-4.68 2.141-4.68 4.771v38.558c0 2.631 2.099 4.771 4.68 4.771H56.5c.387 0 .7.313.7.7S56.887 73.033 56.5 73.033zM62.953 73.033h-2.786c-.387 0-.7-.313-.7-.7s.313-.7.7-.7h2.786c2.581 0 4.68-2.14 4.68-4.771v-2.445c0-.387.313-.7.7-.7s.7.313.7.7v2.445C69.033 70.265 66.305 73.033 62.953 73.033z"/><path fill="#fef6aa" d="M55.5,23v7.047c0,2.999,2.407,5.453,5.349,5.453H68"/><path fill="#472b29" d="M68 36h-7.151C57.624 36 55 33.329 55 30.047V23h1v7.047C56 32.778 58.175 35 60.849 35H68V36zM55 69H37c-1.654 0-3-1.346-3-3V30c0-1.654 1.346-3 3-3h15c.276 0 .5.224.5.5S52.276 28 52 28H37c-1.103 0-2 .897-2 2v36c0 1.103.897 2 2 2h18c.276 0 .5.224.5.5S55.276 69 55 69zM64.5 52c-.276 0-.5-.224-.5-.5v-7c0-.276.224-.5.5-.5s.5.224.5.5v7C65 51.776 64.776 52 64.5 52zM64.5 42.75c-.276 0-.5-.224-.5-.5v-2.583c0-.276.224-.5.5-.5s.5.224.5.5v2.583C65 42.526 64.776 42.75 64.5 42.75z"/><path fill="#472b29" d="M48.5 39.75h-10c-.138 0-.25-.112-.25-.25s.112-.25.25-.25h10c.138 0 .25.112.25.25S48.638 39.75 48.5 39.75zM48.5 43.75h-10c-.138 0-.25-.112-.25-.25s.112-.25.25-.25h10c.138 0 .25.112.25.25S48.638 43.75 48.5 43.75z"/><g><path fill="#472b29" d="M48.5,47.75h-10c-0.138,0-0.25-0.112-0.25-0.25s0.112-0.25,0.25-0.25h10 c0.138,0,0.25,0.112,0.25,0.25S48.638,47.75,48.5,47.75z"/></g><g><path fill="#472b29" d="M45.5,51.75h-7c-0.138,0-0.25-0.112-0.25-0.25s0.112-0.25,0.25-0.25h7c0.138,0,0.25,0.112,0.25,0.25 S45.638,51.75,45.5,51.75z"/></g><g><path fill="#472b29" d="M48.5,55.75h-10c-0.138,0-0.25-0.112-0.25-0.25s0.112-0.25,0.25-0.25h10 c0.138,0,0.25,0.112,0.25,0.25S48.638,55.75,48.5,55.75z"/></g><g><path fill="#472b29" d="M54.5,59.75h-16c-0.138,0-0.25-0.112-0.25-0.25s0.112-0.25,0.25-0.25h16 c0.138,0,0.25,0.112,0.25,0.25S54.638,59.75,54.5,59.75z"/></g><g><path fill="#472b29" d="M60.5,51.75h-13c-0.138,0-0.25-0.112-0.25-0.25s0.112-0.25,0.25-0.25h13 c0.138,0,0.25,0.112,0.25,0.25S60.638,51.75,60.5,51.75z"/></g><g><path fill="#472b29" d="M58.5,55.75h-8c-0.138,0-0.25-0.112-0.25-0.25s0.112-0.25,0.25-0.25h8c0.138,0,0.25,0.112,0.25,0.25 S58.638,55.75,58.5,55.75z"/></g><g><path fill="#fef6aa" d="M51.5 49L51.5 39.5 60.5 39.5 60.5 48.5 55 48.5"/><path fill="#472b29" d="M51.75 49L51.25 49 51.25 39.25 60.75 39.25 60.75 48.75 55 48.75 55 48.25 60.25 48.25 60.25 39.75 51.75 39.75z"/></g><g><path fill="#60be92" d="M63 57.7A9.3 9.3 0 1 0 63 76.3A9.3 9.3 0 1 0 63 57.7Z"/><path fill="#472b29" d="M63,58.4c4.742,0,8.6,3.858,8.6,8.6s-3.858,8.6-8.6,8.6s-8.6-3.858-8.6-8.6S58.258,58.4,63,58.4 M63,57c-5.523,0-10,4.477-10,10s4.477,10,10,10s10-4.477,10-10S68.523,57,63,57L63,57z"/></g><g><path fill="#fefdef" d="M67.5,65.5h-3v-3c0-0.828-0.671-1.5-1.5-1.5s-1.5,0.672-1.5,1.5v3h-3c-0.828,0-1.5,0.671-1.5,1.5 s0.672,1.5,1.5,1.5h3v3c0,0.828,0.671,1.5,1.5,1.5s1.5-0.672,1.5-1.5v-3h3c0.828,0,1.5-0.671,1.5-1.5S68.328,65.5,67.5,65.5z"/><path fill="#472b29" d="M63,73.25c-0.965,0-1.75-0.785-1.75-1.75v-2.75H58.5c-0.965,0-1.75-0.785-1.75-1.75 s0.785-1.75,1.75-1.75h2.75V62.5c0-0.965,0.785-1.75,1.75-1.75s1.75,0.785,1.75,1.75v2.75h2.75c0.965,0,1.75,0.785,1.75,1.75 s-0.785,1.75-1.75,1.75h-2.75v2.75C64.75,72.465,63.965,73.25,63,73.25z M58.5,65.75c-0.689,0-1.25,0.561-1.25,1.25 s0.561,1.25,1.25,1.25h3.25v3.25c0,0.689,0.561,1.25,1.25,1.25s1.25-0.561,1.25-1.25v-3.25h3.25c0.689,0,1.25-0.561,1.25-1.25 s-0.561-1.25-1.25-1.25h-3.25V62.5c0-0.689-0.561-1.25-1.25-1.25s-1.25,0.561-1.25,1.25v3.25H58.5z"/></g></svg>