<svg fill="#000000" xmlns="http://www.w3.org/2000/svg" viewBox="0 0 32 32" width="100px" height="100px"><path d="M 14 4 C 13.477778 4 12.94539 4.1913289 12.568359 4.5683594 C 12.191329 4.9453899 12 5.4777778 12 6 L 12 7 L 7 7 L 6 7 L 6 9 L 7 9 L 7 25 C 7 26.645455 8.3545455 28 10 28 L 17 28 L 17 27.855469 C 18.367249 30.320181 20.996209 32 24 32 C 28.4 32 32 28.4 32 24 C 32 19.939374 28.931363 16.567445 25 16.070312 L 25 9 L 26 9 L 26 7 L 25 7 L 20 7 L 20 6 C 20 5.4777778 19.808671 4.9453899 19.431641 4.5683594 C 19.05461 4.1913289 18.522222 4 18 4 L 14 4 z M 14 6 L 18 6 L 18 7 L 14 7 L 14 6 z M 9 9 L 23 9 L 23 16.070312 C 22.301956 16.158582 21.631165 16.334117 21 16.591797 L 21 12 L 19 12 L 19 17.771484 C 18.18962 18.424016 17.507605 19.229482 17 20.144531 L 17 12 L 15 12 L 15 23 L 16.070312 23 C 16.028764 23.32857 16 23.660626 16 24 C 16 24.691044 16.098874 25.35927 16.265625 26 L 10 26 C 9.4454545 26 9 25.554545 9 25 L 9 9 z M 11 12 L 11 23 L 13 23 L 13 12 L 11 12 z M 24 18 C 27.3 18 30 20.7 30 24 C 30 27.3 27.3 30 24 30 C 20.7 30 18 27.3 18 24 C 18 20.7 20.7 18 24 18 z M 23 20 L 23 23 L 20 23 L 20 25 L 23 25 L 23 28 L 25 28 L 25 25 L 28 25 L 28 23 L 25 23 L 25 20 L 23 20 z"/></svg>