<?xml version="1.0"?><svg fill="#000000" xmlns="http://www.w3.org/2000/svg" viewBox="0 0 128 128" width="500px" height="500px">    <path d="M 64 1 A 3 3 0 0 0 61 4 A 3 3 0 0 0 64 7 A 3 3 0 0 0 67 4 A 3 3 0 0 0 64 1 z M 64 13 C 62.3 13 61 14.3 61 16 L 61 39.800781 L 56.099609 34.900391 C 54.899609 33.700391 53.000391 33.700391 51.900391 34.900391 C 50.700391 36.100391 50.700391 37.999609 51.900391 39.099609 L 61.900391 49.099609 C 62.200391 49.399609 62.500391 49.599219 62.900391 49.699219 C 63.300391 49.899219 63.7 49.900391 64 49.900391 C 64.8 49.900391 65.499609 49.6 66.099609 49 L 76.099609 39 C 77.299609 37.8 77.299609 35.900781 76.099609 34.800781 C 74.899609 33.600781 73.000391 33.600781 71.900391 34.800781 L 67 39.800781 L 67 16 C 67 14.3 65.7 13 64 13 z M 23.097656 21.527344 C 22.128906 21.601562 21.199219 22.125 20.699219 23 C 19.899219 24.4 20.400781 26.299609 21.800781 27.099609 L 30.5 32.099609 C 31 32.399609 31.5 32.5 32 32.5 C 33 32.5 33.999609 32 34.599609 31 C 35.399609 29.6 34.9 27.700391 33.5 26.900391 L 24.800781 21.900391 C 24.275781 21.600391 23.678906 21.482813 23.097656 21.527344 z M 104.90234 21.527344 C 104.32109 21.482812 103.72422 21.600391 103.19922 21.900391 L 94.5 26.900391 C 93.1 27.700391 92.600391 29.6 93.400391 31 C 94.000391 32 95 32.5 96 32.5 C 96.5 32.5 97 32.399609 97.5 32.099609 L 106.19922 27.099609 C 107.59922 26.299609 108.10078 24.4 107.30078 23 C 106.80078 22.125 105.87109 21.601563 104.90234 21.527344 z M 4 45 A 3 3 0 0 0 1 48 A 3 3 0 0 0 4 51 A 3 3 0 0 0 7 48 A 3 3 0 0 0 4 45 z M 16 45 C 14.3 45 13 46.3 13 48 C 13 49.7 14.3 51 16 51 L 27 51 C 28.7 51 30 49.7 30 48 C 30 46.3 28.7 45 27 45 L 16 45 z M 101 45 C 99.3 45 98 46.3 98 48 C 98 49.7 99.3 51 101 51 L 112 51 C 113.7 51 115 49.7 115 48 C 115 46.3 113.7 45 112 45 L 101 45 z M 124 45 A 3 3 0 0 0 121 48 A 3 3 0 0 0 124 51 A 3 3 0 0 0 127 48 A 3 3 0 0 0 124 45 z M 25 66 C 20 66 16 70 16 75 C 16 80 20 84 25 84 L 25.699219 84 L 29.900391 115.69922 C 30.800391 122.09922 36.300781 127 42.800781 127 L 85.300781 127 C 91.700781 127 97.299609 122.09922 98.099609 115.69922 L 102.30078 84 L 103 84 C 108 84 112 80 112 75 C 112 70 108 66 103 66 L 25 66 z M 25 72 L 103 72 C 104.7 72 106 73.3 106 75 C 106 76.7 104.7 78 103 78 L 25 78 C 23.3 78 22 76.7 22 75 C 22 73.3 23.3 72 25 72 z M 31.699219 84 L 96.199219 84 L 92.099609 114.90039 C 91.699609 118.40039 88.699219 121 85.199219 121 L 42.800781 121 C 39.300781 121 36.300391 118.40039 35.900391 114.90039 L 31.699219 84 z"/></svg>