<?xml version="1.0"?><svg fill="#000000" xmlns="http://www.w3.org/2000/svg" viewBox="0 0 24 24" width="50px" height="50px">    <path d="M 4 7 C 2.897 7 2 7.897 2 9 L 2 15 C 2 16.103 2.897 17 4 17 L 5 17 C 5 16.305 5.1059219 15.634 5.2949219 15 L 4 15 L 4 9 L 20 9 L 20 15 L 18.705078 15 C 18.894078 15.634 19 16.305 19 17 L 20 17 C 21.103 17 22 16.103 22 15 L 22 9 C 22 7.897 21.103 7 20 7 L 4 7 z M 12 12 C 9.239 12 7 14.239 7 17 C 7 19.761 9.239 22 12 22 C 14.761 22 17 19.761 17 17 C 17 14.239 14.761 12 12 12 z M 11 14 L 13 14 L 13 16 L 15 16 L 15 18 L 13 18 L 13 20 L 11 20 L 11 18 L 9 18 L 9 16 L 11 16 L 11 14 z"/></svg>