<svg xmlns="http://www.w3.org/2000/svg" viewBox="0 0 40 40" width="500px" height="500px"><path fill="#b0c1d4" d="M12.712,7.5c0.578-0.592,0.887-1.627,1.403-3.354c0.119-0.4,0.25-0.839,0.399-1.32 C14.828,1.81,16.11,1.5,20,1.5s5.172,0.31,5.486,1.325c0.148,0.481,0.28,0.92,0.399,1.32c0.516,1.727,0.825,2.762,1.403,3.354 H12.712z"/><path fill="#66798f" d="M20,2c3.937,0,4.818,0.357,5.008,0.973c0.148,0.479,0.278,0.916,0.397,1.314 C25.752,5.448,26.017,6.335,26.35,7H20h-6.35c0.333-0.665,0.598-1.552,0.945-2.713c0.119-0.398,0.249-0.835,0.397-1.314 C15.182,2.357,16.063,2,20,2 M20,1c-4.015,0-5.542,0.312-5.964,1.678C13.144,5.567,12.879,6.95,12,7.416V8h8h8V7.416 c-0.879-0.466-1.144-1.85-2.036-4.738C25.542,1.312,24.015,1,20,1L20,1z"/><path fill="#b0c1d4" d="M20,38.5c-3.89,0-5.172-0.31-5.486-1.325c-0.148-0.481-0.28-0.92-0.399-1.32 c-0.516-1.727-0.825-2.762-1.403-3.354h14.576c-0.578,0.592-0.887,1.627-1.403,3.354c-0.119,0.4-0.25,0.839-0.399,1.32 C25.172,38.19,23.89,38.5,20,38.5z"/><path fill="#66798f" d="M26.35,33c-0.333,0.665-0.598,1.552-0.945,2.713c-0.119,0.398-0.249,0.835-0.397,1.314 C24.818,37.643,23.937,38,20,38s-4.818-0.357-5.008-0.973c-0.148-0.479-0.278-0.916-0.397-1.314 c-0.347-1.161-0.611-2.048-0.945-2.713H20H26.35 M28,32h-8h-8v0.584c0.879,0.466,1.144,1.85,2.036,4.738 C14.458,38.688,15.985,39,20,39s5.542-0.312,5.964-1.678c0.892-2.889,1.157-4.272,2.036-4.738V32L28,32z"/><path fill="#f2faff" d="M14,32.5c-2.481,0-4.5-2.019-4.5-4.5V12c0-2.481,2.019-4.5,4.5-4.5h12c2.481,0,4.5,2.019,4.5,4.5v16 c0,2.481-2.019,4.5-4.5,4.5H14z"/><path fill="#788b9c" d="M26,8c2.206,0,4,1.794,4,4v16c0,2.206-1.794,4-4,4H14c-2.206,0-4-1.794-4-4V12c0-2.206,1.794-4,4-4 H26 M26,7H14c-2.761,0-5,2.239-5,5v16c0,2.761,2.239,5,5,5h12c2.761,0,5-2.239,5-5V12C31,9.239,28.761,7,26,7L26,7z"/><path fill="#424e5c" d="M26,31H14c-1.657,0-3-1.343-3-3V12c0-1.657,1.343-3,3-3h12c1.657,0,3,1.343,3,3v16 C29,29.657,27.657,31,26,31z"/><path fill="#788b9c" d="M30,18h0.882C31.499,18,32,17.499,32,16.882v-2.764C32,13.501,31.499,13,30.882,13H30V18z"/><path fill="#fff" d="M20 17A3 3 0 1 0 20 23 3 3 0 1 0 20 17zM24.5 11A1.5 1.5 0 1 0 24.5 14 1.5 1.5 0 1 0 24.5 11z"/><path fill="#f78f8f" d="M25 15A2 2 0 1 0 25 19A2 2 0 1 0 25 15Z"/><path fill="#ffeea3" d="M15 22A2 2 0 1 0 15 26A2 2 0 1 0 15 22Z"/><path fill="#c2e8ff" d="M26 20A2 2 0 1 0 26 24A2 2 0 1 0 26 20Z"/><path fill="#bae0bd" d="M23.5 24A1.5 1.5 0 1 0 23.5 27 1.5 1.5 0 1 0 23.5 24zM17 11A1 1 0 1 0 17 13 1 1 0 1 0 17 11zM14.5 18A1.5 1.5 0 1 0 14.5 21 1.5 1.5 0 1 0 14.5 18z"/><path fill="#f78f8f" d="M15.5 14A1.5 1.5 0 1 0 15.5 17A1.5 1.5 0 1 0 15.5 14Z"/><path fill="#8bb7f0" d="M20.321 12.536A2 2 0 1 0 20.321 16.536A2 2 0 1 0 20.321 12.536Z"/><path fill="#ffeea3" d="M19.5 25A1.5 1.5 0 1 0 19.5 28A1.5 1.5 0 1 0 19.5 25Z"/></svg>