<svg fill="#000000" xmlns="http://www.w3.org/2000/svg" viewBox="0 0 80 80" width="50px" height="50px"><path d="M 12 11 A 1.0001 1.0001 0 1 0 12 13 L 12 15 L 10 15 C 7.2504839 15 5 17.250484 5 20 L 5 62 C 5 64.749516 7.2504839 67 10 67 L 48.292969 67 C 49.70186 74.393226 56.201664 80 64 80 C 72.824711 80 80 72.824711 80 64 C 80 59.437729 78.072017 55.327165 75 52.410156 L 75 20 C 75 17.250484 72.749516 15 70 15 L 35 15 L 35 13 A 1.0001 1.0001 0 1 0 35 11 L 24 11 A 1.0001 1.0001 0 1 0 24 13 L 24 15 L 19 15 L 19 13 A 1.0001 1.0001 0 1 0 19 11 L 12 11 z M 14 13 L 17 13 L 17 15 L 14 15 L 14 13 z M 26 13 L 33 13 L 33 15 L 26 15 L 26 13 z M 10 17 L 70 17 C 71.668484 17 73 18.331516 73 20 L 73 50.779297 C 70.434248 49.027676 67.335331 48 64 48 C 62.911151 48 61.848559 48.112217 60.820312 48.320312 C 62.204342 45.859036 63 43.019664 63 40 C 63 30.622621 55.377379 23 46 23 C 36.622621 23 29 30.622621 29 40 C 29 49.377379 36.622621 57 46 57 C 47.326019 57 48.612627 56.833031 49.853516 56.544922 C 48.674768 58.773216 48 61.307767 48 64 C 48 64.337395 48.030113 64.667736 48.050781 65 L 10 65 C 8.3315161 65 7 63.668484 7 62 L 7 20 C 7 18.331516 8.3315161 17 10 17 z M 61 21 L 61 24 L 70 24 L 70 21 L 61 21 z M 46 25 C 54.296621 25 61 31.703379 61 40 C 61 43.500214 59.796227 46.704061 57.791016 49.253906 C 55.362387 50.279938 53.243031 51.892388 51.599609 53.908203 C 49.869252 54.606047 47.984248 55 46 55 C 37.703379 55 31 48.296621 31 40 C 31 31.703379 37.703379 25 46 25 z M 10 28 A 1 1 0 0 0 9 29 A 1 1 0 0 0 10 30 A 1 1 0 0 0 11 29 A 1 1 0 0 0 10 28 z M 14 28 A 1 1 0 0 0 13 29 A 1 1 0 0 0 14 30 A 1 1 0 0 0 15 29 A 1 1 0 0 0 14 28 z M 18 28 A 1 1 0 0 0 17 29 A 1 1 0 0 0 18 30 A 1 1 0 0 0 19 29 A 1 1 0 0 0 18 28 z M 22 28 A 1 1 0 0 0 21 29 A 1 1 0 0 0 22 30 A 1 1 0 0 0 23 29 A 1 1 0 0 0 22 28 z M 26 28 A 1 1 0 0 0 25 29 A 1 1 0 0 0 26 30 A 1 1 0 0 0 27 29 A 1 1 0 0 0 26 28 z M 30 28 A 1 1 0 0 0 29 29 A 1 1 0 0 0 30 30 A 1 1 0 0 0 31 29 A 1 1 0 0 0 30 28 z M 46 28 C 39.384428 28 34 33.384428 34 40 C 34 46.615572 39.384428 52 46 52 C 52.615572 52 58 46.615572 58 40 C 58 33.384428 52.615572 28 46 28 z M 62 28 A 1 1 0 0 0 61 29 A 1 1 0 0 0 62 30 A 1 1 0 0 0 63 29 A 1 1 0 0 0 62 28 z M 66 28 A 1 1 0 0 0 65 29 A 1 1 0 0 0 66 30 A 1 1 0 0 0 67 29 A 1 1 0 0 0 66 28 z M 70 28 A 1 1 0 0 0 69 29 A 1 1 0 0 0 70 30 A 1 1 0 0 0 71 29 A 1 1 0 0 0 70 28 z M 46 30 C 51.534692 30 56 34.465308 56 40 C 56 45.534692 51.534692 50 46 50 C 40.465308 50 36 45.534692 36 40 C 36 34.465308 40.465308 30 46 30 z M 25 38 A 2 2 0 0 0 23 40 A 2 2 0 0 0 25 42 A 2 2 0 0 0 27 40 A 2 2 0 0 0 25 38 z M 64 50 C 71.743831 50 78 56.256169 78 64 C 78 71.743831 71.743831 78 64 78 C 56.256169 78 50 71.743831 50 64 C 50 56.256169 56.256169 50 64 50 z M 63 57 L 63 63 L 57 63 L 57 65 L 63 65 L 63 71 L 65 71 L 65 65 L 71 65 L 71 63 L 65 63 L 65 57 L 63 57 z M 10 60 A 1 1 0 0 0 9 61 A 1 1 0 0 0 10 62 A 1 1 0 0 0 11 61 A 1 1 0 0 0 10 60 z M 14 60 A 1 1 0 0 0 13 61 A 1 1 0 0 0 14 62 A 1 1 0 0 0 15 61 A 1 1 0 0 0 14 60 z M 18 60 A 1 1 0 0 0 17 61 A 1 1 0 0 0 18 62 A 1 1 0 0 0 19 61 A 1 1 0 0 0 18 60 z M 22 60 A 1 1 0 0 0 21 61 A 1 1 0 0 0 22 62 A 1 1 0 0 0 23 61 A 1 1 0 0 0 22 60 z M 26 60 A 1 1 0 0 0 25 61 A 1 1 0 0 0 26 62 A 1 1 0 0 0 27 61 A 1 1 0 0 0 26 60 z M 30 60 A 1 1 0 0 0 29 61 A 1 1 0 0 0 30 62 A 1 1 0 0 0 31 61 A 1 1 0 0 0 30 60 z M 34 60 A 1 1 0 0 0 33 61 A 1 1 0 0 0 34 62 A 1 1 0 0 0 35 61 A 1 1 0 0 0 34 60 z M 38 60 A 1 1 0 0 0 37 61 A 1 1 0 0 0 38 62 A 1 1 0 0 0 39 61 A 1 1 0 0 0 38 60 z M 42 60 A 1 1 0 0 0 41 61 A 1 1 0 0 0 42 62 A 1 1 0 0 0 43 61 A 1 1 0 0 0 42 60 z M 46 60 A 1 1 0 0 0 45 61 A 1 1 0 0 0 46 62 A 1 1 0 0 0 47 61 A 1 1 0 0 0 46 60 z"/></svg>