<svg xmlns="http://www.w3.org/2000/svg" viewBox="0 0 80 80" width="300px" height="300px"><path fill="#fff" d="M2.5 71.5L2.5 8.5 77.5 8.5 77.5 63.8 70.8 71.5z"/><path fill="#788b9c" d="M77,9v54.6L70.5,71H3V9H77 M78,8H2v64h69l7-8V8L78,8z"/><path fill="#b5deff" d="M12 18H68V53.8H12z"/><path fill="#d9f6ff" d="M12 38H68V54H12z"/><path fill="#7aadf0" d="M12 54H68V62H12z"/><path fill="#d9f6ff" d="M29.5 29.999999999999996A7 6.3 0 1 0 29.5 42.599999999999994A7 6.3 0 1 0 29.5 29.999999999999996Z"/><path fill="#d9f6ff" d="M22.5 31.599999999999998A5.3 4.7 0 1 0 22.5 41 5.3 4.7 0 1 0 22.5 31.599999999999998zM40 33.1A7 6.3 0 1 0 40 45.699999999999996 7 6.3 0 1 0 40 33.1z"/><path fill="#d9f6ff" d="M50.5 29.999999999999996A7 6.3 0 1 0 50.5 42.599999999999994 7 6.3 0 1 0 50.5 29.999999999999996zM64.5 33.199999999999996A3.5 3.1 0 1 0 64.5 39.4 3.5 3.1 0 1 0 64.5 33.199999999999996zM15.5 33.199999999999996A3.5 3.1 0 1 0 15.5 39.4 3.5 3.1 0 1 0 15.5 33.199999999999996z"/><path fill="#d9f6ff" d="M57.5 31.599999999999998A5.3 4.7 0 1 0 57.5 41A5.3 4.7 0 1 0 57.5 31.599999999999998Z"/><path fill="#4a6d9c" d="M12 54L68 54 68 50.8 50.5 40z"/><path fill="#5d84b8" d="M54 54L12 54 12 46 29.5 38z"/><path fill="#bae0bd" d="M62,79.5c-9.6,0-17.5-7.9-17.5-17.5S52.4,44.5,62,44.5S79.5,52.4,79.5,62S71.6,79.5,62,79.5z"/><path fill="#5e9c76" d="M62,45c9.4,0,17,7.6,17,17s-7.6,17-17,17s-17-7.6-17-17S52.6,45,62,45 M62,44c-9.9,0-18,8.1-18,18 s8.1,18,18,18s18-8.1,18-18S71.9,44,62,44L62,44z"/><path fill="#fff" d="M60 52H64V72H60z"/><path fill="#fff" d="M52 60H72V64H52z"/></svg>