<svg xmlns="http://www.w3.org/2000/svg" viewBox="0 0 64 64" width="500px" height="500px"><path fill="#becde8" d="M58,55H6c-1.657,0-3-1.343-3-3V18c0-1.657,1.343-3,3-3h18l5-6h16l4,6h9c1.657,0,3,1.343,3,3v34 C61,53.657,59.657,55,58,55z"/><path fill="#a8b7d1" d="M29 9L45 9 49 16 24 16z"/><path fill="#ffeb97" d="M10 12H16V15H10zM53 12H57V15H53z"/><path fill="#a8b7d1" d="M14,55H6c-1.657,0-3-1.343-3-3V18c0-1.657,1.343-3,3-3h8c1.657,0,3,1.343,3,3v34 C17,53.657,15.657,55,14,55z"/><path fill="#becde8" d="M7,52L7,52c-0.552,0-1-0.448-1-1V25c0-0.552,0.448-1,1-1h0c0.552,0,1,0.448,1,1v26 C8,51.552,7.552,52,7,52z"/><path fill="#afc4e1" d="M60,55L60,55c-1.657,0-3-1.343-3-3V18c0-1.657,1.343-3,3-3l0,0V55z"/><path fill="#ffeb97" d="M37 21A14 14 0 1 0 37 49A14 14 0 1 0 37 21Z"/><path fill="#abdef9" d="M37 25A10 10 0 1 0 37 45A10 10 0 1 0 37 25Z"/><path fill="#c6edff" d="M37 30A5 5 0 1 0 37 40A5 5 0 1 0 37 30Z"/><path fill="#f2f2f2" d="M34 29A3 3 0 1 0 34 35 3 3 0 1 0 34 29zM40.5 37A1.5 1.5 0 1 0 40.5 40 1.5 1.5 0 1 0 40.5 37z"/><path fill="#72caaf" d="M51 37A12 12 0 1 0 51 61A12 12 0 1 0 51 37Z"/><g><path fill="#986ca1" d="M17 23.989c-.6 0-1 .442-1 1.01v26.021c0 .568.4 1.01 1 1.01.6 0 1-.505 1-1.01V25C18 24.432 17.6 23.989 17 23.989zM12 18c-.6 0-1 .447-1 1v2c0 .553.4 1 1 1 .6 0 1-.447 1-1v-2C13 18.447 12.6 18 12 18zM7 18c-.6 0-1 .447-1 1v2c0 .553.4 1 1 1 .6 0 1-.447 1-1v-2C8 18.447 7.6 18 7 18zM17 18c-.6 0-1 .447-1 1v2c0 .553.4 1 1 1 .6 0 1-.447 1-1v-2C18 18.447 17.6 18 17 18zM23 21v-2c0-.553-.4-1-1-1-.6 0-1 .447-1 1v2c0 .553.4 1 1 1C22.6 22 23 21.552 23 21zM27 22c.6 0 1-.447 1-1v-2c0-.553-.4-1-1-1-.6 0-1 .447-1 1v2C26 21.552 26.4 22 27 22zM47 22c.6 0 1-.447 1-1v-2c0-.553-.4-1-1-1-.6 0-1 .447-1 1v2C46 21.552 46.4 22 47 22zM57 22c.6 0 1-.447 1-1v-2c0-.553-.4-1-1-1-.6 0-1 .447-1 1v2C56 21.552 56.4 22 57 22zM52 22c.6 0 1-.447 1-1v-2c0-.553-.4-1-1-1-.6 0-1 .447-1 1v2C51 21.552 51.4 22 52 22zM31 14h12c.6 0 .96-.4.96-1 0-.6-.36-1-.96-1H31c-.48 0-.96.4-.96 1C30.04 13.6 30.4 14 31 14z"/><path fill="#986ca1" d="M62,42.08V17c0-1.7-1.3-3-3-3h-1v-1c0-1.1-0.9-2-2-2h-2c-1.1,0-2,0.9-2,2v1h-2.5L47,10.2 C46.1,8.8,44.5,8,42.8,8H31.1c-1.7,0-3.2,0.8-4.2,2.2L24.4,14H18v-2c0-1.1-0.9-2-2-2h-6c-1.1,0-2,0.9-2,2v2H5c-1.7,0-3,1.3-3,3v36 c0,1.7,1.3,3,3,3h35.05c2.31,3.61,6.35,6,10.95,6c7.17,0,13-5.83,13-13C64,46.46,63.27,44.09,62,42.08z M54,13h2v1h-2V13z M10,12 h6v2h-6V12z M5,54c-0.6,0-1-0.4-1-1V17c0-0.6,0.4-1,1-1h20c0.3,0,0.6-0.2,0.8-0.4l2.8-4.3c0.6-0.8,1.5-1.3,2.5-1.3h11.7 c1,0,1.9,0.5,2.5,1.3l2.8,4.3c0.2,0.3,0.5,0.4,0.8,0.4h10c0.6,0,1,0.4,1,1v22.53c-2.09-1.97-4.85-3.26-7.9-3.49 c0.03-0.34,0.04-0.69,0.04-1.04c0-6.184-3.742-11.491-9.079-13.79C42.975,21.14,43,21.074,43,21v-2c0-0.553-0.4-1-1-1 c-0.6,0-1,0.447-1,1v1.537c-0.965-0.264-1.968-0.432-3-0.498V19c0-0.553-0.4-1-1-1c-0.6,0-1,0.447-1,1v1.043 c-1.033,0.071-2.035,0.244-3,0.513V19c0-0.553-0.4-1-1-1c-0.6,0-1,0.447-1,1v2c0,0.086,0.026,0.163,0.045,0.243 c-5.304,2.315-9.015,7.6-9.015,13.757c0,8.29,6.72,15.01,15.01,15.01c0.34,0,0.67-0.01,1-0.04c0.1,1.42,0.44,2.77,0.96,4.03H5z M39.14,43.68c-0.67,0.16-1.37,0.25-2.1,0.25c-4.94,0-8.93-3.99-8.93-8.93s3.99-8.93,8.93-8.93s8.92,3.99,8.92,8.93 c0,0.74-0.09,1.45-0.26,2.13C42.79,38.43,40.45,40.77,39.14,43.68z M37.04,24c-6.06,0-11,4.94-11,11s4.94,11,11,11 c0.45,0,0.89-0.03,1.33-0.09c-0.16,0.66-0.27,1.34-0.32,2.03c-0.33,0.04-0.67,0.05-1.01,0.05c-7.17,0-13-5.82-13-12.99 c0-7.17,5.83-12.99,13-12.99c7.16,0,12.99,5.82,12.99,12.99c0,0.35-0.01,0.7-0.05,1.05c-0.69,0.04-1.37,0.15-2.03,0.31 c0.06-0.44,0.09-0.9,0.09-1.36C48.04,28.94,43.09,24,37.04,24z M59.53,55.96C57.5,58.42,54.43,60,51,60c-3.41,0-6.47-1.56-8.49-4 c-0.51-0.62-0.95-1.29-1.31-2c-0.67-1.3-1.08-2.75-1.18-4.29C40.01,49.48,40,49.24,40,49c0-0.47,0.03-0.93,0.09-1.38 c0.09-0.77,0.27-1.51,0.52-2.22c0.4-1.18,1.01-2.28,1.77-3.24c0.01,0,0.01-0.01,0.01-0.01c0.53-0.65,1.11-1.24,1.77-1.76 l0.01-0.01c0.97-0.77,2.07-1.38,3.26-1.78c0.71-0.25,1.46-0.43,2.23-0.51C50.1,38.03,50.55,38,51,38c0.25,0,0.49,0.01,0.74,0.02 v0.01c3.35,0.22,6.29,1.95,8.16,4.5C61.22,44.35,62,46.58,62,49C62,51.64,61.07,54.06,59.53,55.96z"/><path fill="#faefde" d="M57,48h-5v-5c0-0.552-0.447-1-1-1s-1,0.448-1,1v5h-5c-0.553,0-1,0.448-1,1s0.447,1,1,1h5v5 c0,0.552,0.447,1,1,1s1-0.448,1-1v-5h5c0.553,0,1-0.448,1-1S57.553,48,57,48z"/></g></svg>