<svg fill="#000000" xmlns="http://www.w3.org/2000/svg" viewBox="0 0 24 24" width="50px" height="50px"><path d="M 9.09375 1 C 8.63975 1 8.2429531 1.3061406 8.1269531 1.7441406 L 7.234375 5.1132812 C 5.957189 5.4571846 5 6.6209088 5 8 L 5 16 C 5 17.379091 5.957189 18.542815 7.234375 18.886719 L 8.1269531 22.255859 C 8.2429531 22.693859 8.63975 23 9.09375 23 L 13.90625 23 C 14.36025 23 14.757047 22.693859 14.873047 22.255859 L 15.765625 18.886719 C 17.042811 18.542815 18 17.379091 18 16 L 18 12 C 18.552 12 19 11.552 19 11 L 19 9 C 19 8.448 18.552 8 18 8 C 18 6.6209088 17.042811 5.4571846 15.765625 5.1132812 L 14.875 1.7441406 C 14.759 1.3061406 14.362203 1 13.908203 1 L 9.09375 1 z M 8 7 L 15 7 C 15.56503 7 16 7.4349698 16 8 L 16 16 C 16 16.56503 15.56503 17 15 17 L 8 17 C 7.4349698 17 7 16.56503 7 16 L 7 8 C 7 7.4349698 7.4349698 7 8 7 z M 9.5 9 A 1.5 1.5 0 0 0 8 10.5 A 1.5 1.5 0 0 0 9.5 12 A 1.5 1.5 0 0 0 11 10.5 A 1.5 1.5 0 0 0 9.5 9 z M 13 9 A 1 1 0 0 0 12 10 A 1 1 0 0 0 13 11 A 1 1 0 0 0 14 10 A 1 1 0 0 0 13 9 z M 13.5 12 A 1.5 1.5 0 0 0 12 13.5 A 1.5 1.5 0 0 0 13.5 15 A 1.5 1.5 0 0 0 15 13.5 A 1.5 1.5 0 0 0 13.5 12 z M 10 13 A 1 1 0 0 0 9 14 A 1 1 0 0 0 10 15 A 1 1 0 0 0 11 14 A 1 1 0 0 0 10 13 z"/></svg>