<?xml version="1.0"?><svg fill="#000000" xmlns="http://www.w3.org/2000/svg" viewBox="0 0 30 30" width="50px" height="50px">    <path d="M 9 0 C 6.791 0 5 1.791 5 4 C 5 5.8653084 6.2823561 7.4187916 8.0097656 7.8613281 A 1.0001 1.0001 0 0 0 8 8 L 8 9.8320312 A 1.0001 1.0001 0 0 0 8 10.158203 L 8 17.832031 A 1.0001 1.0001 0 0 0 8 18.158203 L 8 26 A 1.0001 1.0001 0 0 0 9 27 L 16 27 L 16 28 C 16 28.552 16.448 29 17 29 L 21 29 C 21.552 29 22 28.552 22 28 L 22 24 C 22 23.448 21.552 23 21 23 L 17 23 C 16.448 23 16 23.448 16 24 L 16 25 L 10 25 L 10 19 L 16 19 L 16 20 C 16 20.552 16.448 21 17 21 L 21 21 C 21.552 21 22 20.552 22 20 L 22 16 C 22 15.448 21.552 15 21 15 L 17 15 C 16.448 15 16 15.448 16 16 L 16 17 L 10 17 L 10 11 L 16 11 L 16 12 C 16 12.552 16.448 13 17 13 L 21 13 C 21.552 13 22 12.552 22 12 L 22 8 C 22 7.448 21.552 7 21 7 L 17 7 C 16.448 7 16 7.448 16 8 L 16 9 L 10 9 L 10 8 A 1.0001 1.0001 0 0 0 9.9902344 7.8613281 C 11.717644 7.4187916 13 5.8653084 13 4 C 13 1.791 11.209 0 9 0 z M 9 1 C 9.552 1 10 1.448 10 2 L 10 3 L 11 3 C 11.552 3 12 3.448 12 4 C 12 4.552 11.552 5 11 5 L 10 5 L 10 6 C 10 6.5325331 9.5797312 6.9582099 9.0546875 6.9882812 A 1.0001 1.0001 0 0 0 8.984375 6.9863281 A 1.0001 1.0001 0 0 0 8.9433594 6.9882812 C 8.4192436 6.9572338 8 6.5318666 8 6 L 8 5 L 7 5 C 6.448 5 6 4.552 6 4 C 6 3.448 6.448 3 7 3 L 8 3 L 8 2 C 8 1.448 8.448 1 9 1 z"/></svg>