<svg fill="#000000" xmlns="http://www.w3.org/2000/svg" viewBox="0 0 16 16" width="500px" height="500px"><path d="M 4.5 3 C 3.125 3 2 4.125 2 5.5 C 2 6.441406 2.535156 7.253906 3.304688 7.679688 C 1.40625 8.210938 0 9.9375 0 12 L 1 12 C 1 10.0625 2.5625 8.5 4.5 8.5 C 5.65625 8.5 6.664063 9.0625 7.296875 9.929688 C 7.113281 10.421875 7 10.945313 7 11.5 C 7 13.980469 9.019531 16 11.5 16 C 13.980469 16 16 13.980469 16 11.5 C 16 9.675781 14.902344 8.109375 13.339844 7.402344 C 13.609375 7.242188 13.863281 7.070313 14.09375 6.898438 C 14.785156 6.367188 15.269531 5.835938 15.269531 5.835938 L 15.578125 5.5 L 15.265625 5.160156 C 15.265625 5.160156 14.777344 4.628906 14.082031 4.101563 C 13.390625 3.574219 12.488281 3 11.5 3 C 10.125 3 9 4.125 9 5.5 C 9 6.226563 9.320313 6.875 9.816406 7.335938 C 8.992188 7.667969 8.289063 8.238281 7.789063 8.960938 C 7.238281 8.355469 6.527344 7.902344 5.71875 7.671875 C 6.476563 7.238281 7 6.429688 7 5.5 C 7 4.125 5.875 3 4.5 3 Z M 4.5 4 C 5.335938 4 6 4.664063 6 5.5 C 6 6.335938 5.335938 7 4.5 7 C 3.664063 7 3 6.335938 3 5.5 C 3 4.664063 3.664063 4 4.5 4 Z M 11.5 4 C 12.058594 4 12.859375 4.425781 13.480469 4.898438 C 13.875 5.199219 13.972656 5.324219 14.15625 5.5 C 13.976563 5.679688 13.878906 5.800781 13.484375 6.101563 C 12.867188 6.574219 12.070313 7 11.5 7 C 10.664063 7 10 6.335938 10 5.5 C 10 4.664063 10.664063 4 11.5 4 Z M 11.5 8 C 13.4375 8 15 9.5625 15 11.5 C 15 13.4375 13.4375 15 11.5 15 C 9.5625 15 8 13.4375 8 11.5 C 8 10.910156 8.15625 10.363281 8.414063 9.875 L 8.4375 9.859375 C 8.4375 9.855469 8.433594 9.851563 8.429688 9.84375 C 9.019531 8.75 10.164063 8 11.5 8 Z M 11 9 L 11 11 L 9 11 L 9 12 L 11 12 L 11 14 L 12 14 L 12 12 L 14 12 L 14 11 L 12 11 L 12 9 Z"/></svg>