<svg fill="#000000" xmlns="http://www.w3.org/2000/svg" viewBox="0 0 80 80" width="50px" height="50px"><path d="M 41.585938 9 L 10.464844 40.121094 C 8.519531 42.066406 8.519531 45.246094 10.464844 47.191406 L 32.808594 69.535156 C 34.753906 71.480469 37.933594 71.480469 39.878906 69.535156 L 48.269531 61.144531 C 48.101563 62.074219 48 63.023438 48 64 C 48 72.824219 55.175781 80 64 80 C 72.824219 80 80 72.824219 80 64 C 80 55.175781 72.824219 48 64 48 C 63.023438 48 62.074219 48.101563 61.144531 48.269531 L 71 38.414063 L 71 18 C 71 13.042969 66.957031 9 62 9 Z M 42.414063 11 L 62 11 C 65.878906 11 69 14.121094 69 18 L 69 37.585938 L 56.90625 49.679688 C 53.777344 51.234375 51.234375 53.777344 49.679688 56.90625 L 38.464844 68.121094 C 37.285156 69.300781 35.402344 69.300781 34.222656 68.121094 L 11.878906 45.777344 C 10.699219 44.597656 10.699219 42.714844 11.878906 41.535156 Z M 47 14 C 46.449219 14 46 14.449219 46 15 C 46 15.550781 46.449219 16 47 16 C 47.550781 16 48 15.550781 48 15 C 48 14.449219 47.550781 14 47 14 Z M 51 14 C 50.449219 14 50 14.449219 50 15 C 50 15.550781 50.449219 16 51 16 C 51.550781 16 52 15.550781 52 15 C 52 14.449219 51.550781 14 51 14 Z M 55 14 C 54.449219 14 54 14.449219 54 15 C 54 15.550781 54.449219 16 55 16 C 55.550781 16 56 15.550781 56 15 C 56 14.449219 55.550781 14 55 14 Z M 43 15 C 42.449219 15 42 15.449219 42 16 C 42 16.550781 42.449219 17 43 17 C 43.550781 17 44 16.550781 44 16 C 44 15.449219 43.550781 15 43 15 Z M 61 15 C 58.800781 15 57 16.800781 57 19 C 57 21.199219 58.800781 23 61 23 C 63.199219 23 65 21.199219 65 19 C 65 16.800781 63.199219 15 61 15 Z M 61 17 C 62.117188 17 63 17.882813 63 19 C 63 20.117188 62.117188 21 61 21 C 59.882813 21 59 20.117188 59 19 C 59 17.882813 59.882813 17 61 17 Z M 40 18 C 39.449219 18 39 18.449219 39 19 C 39 19.550781 39.449219 20 40 20 C 40.550781 20 41 19.550781 41 19 C 41 18.449219 40.550781 18 40 18 Z M 37 21 C 36.449219 21 36 21.449219 36 22 C 36 22.550781 36.449219 23 37 23 C 37.550781 23 38 22.550781 38 22 C 38 21.449219 37.550781 21 37 21 Z M 34 24 C 33.449219 24 33 24.449219 33 25 C 33 25.550781 33.449219 26 34 26 C 34.550781 26 35 25.550781 35 25 C 35 24.449219 34.550781 24 34 24 Z M 65 24 C 64.449219 24 64 24.449219 64 25 C 64 25.550781 64.449219 26 65 26 C 65.550781 26 66 25.550781 66 25 C 66 24.449219 65.550781 24 65 24 Z M 31 27 C 30.449219 27 30 27.449219 30 28 C 30 28.550781 30.449219 29 31 29 C 31.550781 29 32 28.550781 32 28 C 32 27.449219 31.550781 27 31 27 Z M 65 28 C 64.449219 28 64 28.449219 64 29 C 64 29.550781 64.449219 30 65 30 C 65.550781 30 66 29.550781 66 29 C 66 28.449219 65.550781 28 65 28 Z M 28 30 C 27.449219 30 27 30.449219 27 31 C 27 31.550781 27.449219 32 28 32 C 28.550781 32 29 31.550781 29 31 C 29 30.449219 28.550781 30 28 30 Z M 65 32 C 64.449219 32 64 32.449219 64 33 C 64 33.550781 64.449219 34 65 34 C 65.550781 34 66 33.550781 66 33 C 66 32.449219 65.550781 32 65 32 Z M 25 33 C 24.449219 33 24 33.449219 24 34 C 24 34.550781 24.449219 35 25 35 C 25.550781 35 26 34.550781 26 34 C 26 33.449219 25.550781 33 25 33 Z M 22 36 C 21.449219 36 21 36.449219 21 37 C 21 37.550781 21.449219 38 22 38 C 22.550781 38 23 37.550781 23 37 C 23 36.449219 22.550781 36 22 36 Z M 64 36 C 63.449219 36 63 36.449219 63 37 C 63 37.550781 63.449219 38 64 38 C 64.550781 38 65 37.550781 65 37 C 65 36.449219 64.550781 36 64 36 Z M 19 39 C 18.449219 39 18 39.449219 18 40 C 18 40.550781 18.449219 41 19 41 C 19.550781 41 20 40.550781 20 40 C 20 39.449219 19.550781 39 19 39 Z M 61 39 C 60.449219 39 60 39.449219 60 40 C 60 40.550781 60.449219 41 61 41 C 61.550781 41 62 40.550781 62 40 C 62 39.449219 61.550781 39 61 39 Z M 16 42 C 15.449219 42 15 42.449219 15 43 C 15 43.550781 15.449219 44 16 44 C 16.550781 44 17 43.550781 17 43 C 17 42.449219 16.550781 42 16 42 Z M 58 42 C 57.449219 42 57 42.449219 57 43 C 57 43.550781 57.449219 44 58 44 C 58.550781 44 59 43.550781 59 43 C 59 42.449219 58.550781 42 58 42 Z M 19 45 C 18.449219 45 18 45.449219 18 46 C 18 46.550781 18.449219 47 19 47 C 19.550781 47 20 46.550781 20 46 C 20 45.449219 19.550781 45 19 45 Z M 55 45 C 54.449219 45 54 45.449219 54 46 C 54 46.550781 54.449219 47 55 47 C 55.550781 47 56 46.550781 56 46 C 56 45.449219 55.550781 45 55 45 Z M 22 48 C 21.449219 48 21 48.449219 21 49 C 21 49.550781 21.449219 50 22 50 C 22.550781 50 23 49.550781 23 49 C 23 48.449219 22.550781 48 22 48 Z M 52 48 C 51.449219 48 51 48.449219 51 49 C 51 49.550781 51.449219 50 52 50 C 52.550781 50 53 49.550781 53 49 C 53 48.449219 52.550781 48 52 48 Z M 64 50 C 71.742188 50 78 56.257813 78 64 C 78 71.742188 71.742188 78 64 78 C 56.257813 78 50 71.742188 50 64 C 50 56.257813 56.257813 50 64 50 Z M 25 51 C 24.449219 51 24 51.449219 24 52 C 24 52.550781 24.449219 53 25 53 C 25.550781 53 26 52.550781 26 52 C 26 51.449219 25.550781 51 25 51 Z M 49 51 C 48.449219 51 48 51.449219 48 52 C 48 52.550781 48.449219 53 49 53 C 49.550781 53 50 52.550781 50 52 C 50 51.449219 49.550781 51 49 51 Z M 28 54 C 27.449219 54 27 54.449219 27 55 C 27 55.550781 27.449219 56 28 56 C 28.550781 56 29 55.550781 29 55 C 29 54.449219 28.550781 54 28 54 Z M 46 54 C 45.449219 54 45 54.449219 45 55 C 45 55.550781 45.449219 56 46 56 C 46.550781 56 47 55.550781 47 55 C 47 54.449219 46.550781 54 46 54 Z M 31 57 C 30.449219 57 30 57.449219 30 58 C 30 58.550781 30.449219 59 31 59 C 31.550781 59 32 58.550781 32 58 C 32 57.449219 31.550781 57 31 57 Z M 43 57 C 42.449219 57 42 57.449219 42 58 C 42 58.550781 42.449219 59 43 59 C 43.550781 59 44 58.550781 44 58 C 44 57.449219 43.550781 57 43 57 Z M 63 57 L 63 63 L 57 63 L 57 65 L 63 65 L 63 71 L 65 71 L 65 65 L 71 65 L 71 63 L 65 63 L 65 57 Z M 34 60 C 33.449219 60 33 60.449219 33 61 C 33 61.550781 33.449219 62 34 62 C 34.550781 62 35 61.550781 35 61 C 35 60.449219 34.550781 60 34 60 Z M 40 60 C 39.449219 60 39 60.449219 39 61 C 39 61.550781 39.449219 62 40 62 C 40.550781 62 41 61.550781 41 61 C 41 60.449219 40.550781 60 40 60 Z M 37 63 C 36.449219 63 36 63.449219 36 64 C 36 64.550781 36.449219 65 37 65 C 37.550781 65 38 64.550781 38 64 C 38 63.449219 37.550781 63 37 63 Z"/></svg>