<?xml version="1.0"?><svg fill="#000000" xmlns="http://www.w3.org/2000/svg" viewBox="0 0 16 16" width="500px" height="500px">    <path d="M 2 3 C 1.449 3 1 3.449 1 4 L 1 6 L 1.5 6 C 2.327 6 3 6.673 3 7.5 C 3 8.327 2.327 9 1.5 9 L 1 9 L 1 11 C 1 11.552 1.449 12 2 12 L 7.0507812 12 C 7.3027812 14.244 9.19 16 11.5 16 C 13.981 16 16 13.981 16 11.5 C 16 9.555 14.752484 7.9102031 13.021484 7.2832031 C 13.127484 6.5592031 13.747 6 14.5 6 L 15 6 L 15 4 C 15 3.449 14.552 3 14 3 L 2 3 z M 2 4 L 14 4 L 14 5.0507812 C 13.009 5.2527812 12.228969 6.0420625 12.042969 7.0390625 L 12.074219 7.0585938 C 11.884219 7.0335938 11.697 7 11.5 7 C 9.174 7 7.277875 8.780875 7.046875 11.046875 L 7.0273438 11 L 2 11 L 2 9.9492188 C 3.14 9.7172188 4 8.708 4 7.5 C 4 6.292 3.14 5.2837813 2 5.0507812 L 2 4 z M 11.5 8 C 13.43 8 15 9.57 15 11.5 C 15 13.43 13.43 15 11.5 15 C 9.57 15 8 13.43 8 11.5 C 8 9.57 9.57 8 11.5 8 z M 11 9 L 11 11 L 9 11 L 9 12 L 11 12 L 11 14 L 12 14 L 12 12 L 14 12 L 14 11 L 12 11 L 12 9 L 11 9 z"/></svg>