<?xml version="1.0"?><svg fill="#000000" xmlns="http://www.w3.org/2000/svg" viewBox="0 0 24 24" width="300px" height="300px">    <path d="M 5 3 C 3.895 3 3 3.895 3 5 L 3 19 C 3 20.105 3.895 21 5 21 L 14 21 L 14 19 L 5 19 L 5 7 L 19 7 L 19 14 L 21 14 L 21 5 C 21 3.895 20.105 3 19 3 L 5 3 z M 7 10 L 7 12 L 9 12 L 9 10 L 7 10 z M 11 10 L 11 12 L 17 12 L 17 10 L 11 10 z M 7 14 L 7 16 L 9 16 L 9 14 L 7 14 z M 11 14 L 11 16 L 17 16 L 17 14 L 11 14 z M 19 16 L 19 19 L 16 19 L 16 21 L 19 21 L 19 24 L 21 24 L 21 21 L 24 21 L 24 19 L 21 19 L 21 16 L 19 16 z"/></svg>