<?xml version="1.0"?><svg fill="#000000" xmlns="http://www.w3.org/2000/svg" viewBox="0 0 24 24" width="100px" height="100px">    <path d="M 6 2 C 4.895 2 4 2.895 4 4 L 4 6 C 4 6.552 4.448 7 5 7 L 19 7 C 19.552 7 20 6.552 20 6 L 20 4 C 20 2.895 19.105 2 18 2 L 6 2 z M 5 9 C 4.448 9 4 9.448 4 10 L 4 14 C 4 14.552 4.448 15 5 15 L 13.259766 15 C 14.524766 13.188 16.622 12 19 12 C 19.34 12 19.673 12.033078 20 12.080078 L 20 10 C 20 9.448 19.552 9 19 9 L 5 9 z M 19 14 C 16.239 14 14 16.239 14 19 C 14 21.761 16.239 24 19 24 C 21.761 24 24 21.761 24 19 C 24 16.239 21.761 14 19 14 z M 19 16 C 19.552 16 20 16.448 20 17 L 20 18 L 21 18 C 21.552 18 22 18.448 22 19 C 22 19.552 21.552 20 21 20 L 20 20 L 20 21 C 20 21.552 19.552 22 19 22 C 18.448 22 18 21.552 18 21 L 18 20 L 17 20 C 16.448 20 16 19.552 16 19 C 16 18.448 16.448 18 17 18 L 18 18 L 18 17 C 18 16.448 18.448 16 19 16 z M 5 17 C 4.448 17 4 17.448 4 18 L 4 20 C 4 21.105 4.895 22 6 22 L 12.683594 22 C 12.250594 21.09 12 20.075 12 19 C 12 18.305 12.105922 17.634 12.294922 17 L 5 17 z"/></svg>