<svg fill="#000000" xmlns="http://www.w3.org/2000/svg" viewBox="0 0 50 50" width="300px" height="300px"><path d="M 24.78125 0 C 24.679688 0.0273438 24.585938 0.0703125 24.5 0.125 C 24.480469 0.132813 24.457031 0.144531 24.4375 0.15625 C 24.425781 0.167969 24.417969 0.175781 24.40625 0.1875 C 24.363281 0.214844 24.320313 0.246094 24.28125 0.28125 C 24.222656 0.335938 24.167969 0.398438 24.125 0.46875 L 0.28125 24.28125 C 0.207031 24.355469 0.144531 24.4375 0.09375 24.53125 C 0.0820313 24.550781 0.0703125 24.574219 0.0625 24.59375 C 0.0625 24.605469 0.0625 24.613281 0.0625 24.625 C 0.0507813 24.644531 0.0390625 24.667969 0.03125 24.6875 C 0.03125 24.699219 0.03125 24.707031 0.03125 24.71875 C 0.0195313 24.738281 0.0078125 24.761719 0 24.78125 C 0 24.792969 0 24.800781 0 24.8125 C -0.0273438 24.96875 -0.015625 25.128906 0.03125 25.28125 C 0.0390625 25.300781 0.0507813 25.324219 0.0625 25.34375 C 0.0625 25.355469 0.0625 25.363281 0.0625 25.375 C 0.0742188 25.386719 0.0820313 25.394531 0.09375 25.40625 C 0.125 25.484375 0.167969 25.558594 0.21875 25.625 C 0.230469 25.636719 0.238281 25.644531 0.25 25.65625 C 0.257813 25.675781 0.269531 25.699219 0.28125 25.71875 C 0.3125 25.742188 0.34375 25.761719 0.375 25.78125 L 24.125 49.5625 C 24.160156 49.617188 24.203125 49.671875 24.25 49.71875 L 24.28125 49.71875 C 24.320313 49.765625 24.359375 49.804688 24.40625 49.84375 C 24.417969 49.84375 24.425781 49.84375 24.4375 49.84375 C 24.457031 49.867188 24.476563 49.886719 24.5 49.90625 C 24.511719 49.90625 24.519531 49.90625 24.53125 49.90625 C 24.550781 49.917969 24.574219 49.929688 24.59375 49.9375 C 24.605469 49.9375 24.613281 49.9375 24.625 49.9375 C 24.644531 49.949219 24.667969 49.960938 24.6875 49.96875 C 24.699219 49.96875 24.707031 49.96875 24.71875 49.96875 C 24.738281 49.980469 24.761719 49.992188 24.78125 50 C 24.792969 50 24.800781 50 24.8125 50 C 24.90625 50.011719 25 50.011719 25.09375 50 C 25.125 50 25.15625 50 25.1875 50 C 25.230469 49.992188 25.273438 49.980469 25.3125 49.96875 C 25.367188 49.953125 25.417969 49.929688 25.46875 49.90625 C 25.539063 49.863281 25.601563 49.808594 25.65625 49.75 C 25.703125 49.710938 25.742188 49.671875 25.78125 49.625 L 49.59375 25.8125 C 49.636719 25.785156 49.679688 25.753906 49.71875 25.71875 C 49.730469 25.707031 49.738281 25.699219 49.75 25.6875 C 49.761719 25.675781 49.769531 25.667969 49.78125 25.65625 C 49.792969 25.644531 49.800781 25.636719 49.8125 25.625 C 49.824219 25.605469 49.835938 25.582031 49.84375 25.5625 C 49.855469 25.550781 49.863281 25.542969 49.875 25.53125 C 49.886719 25.519531 49.894531 25.511719 49.90625 25.5 C 49.980469 25.367188 50.023438 25.214844 50.03125 25.0625 C 50.03125 25.042969 50.03125 25.019531 50.03125 25 C 50.03125 24.988281 50.03125 24.980469 50.03125 24.96875 C 50.03125 24.949219 50.03125 24.925781 50.03125 24.90625 C 50.023438 24.863281 50.011719 24.820313 50 24.78125 C 50 24.761719 50 24.738281 50 24.71875 C 49.988281 24.707031 49.980469 24.699219 49.96875 24.6875 C 49.96875 24.667969 49.96875 24.644531 49.96875 24.625 C 49.9375 24.546875 49.894531 24.472656 49.84375 24.40625 C 49.84375 24.394531 49.84375 24.386719 49.84375 24.375 C 49.824219 24.363281 49.800781 24.351563 49.78125 24.34375 C 49.773438 24.324219 49.761719 24.300781 49.75 24.28125 C 49.738281 24.28125 49.730469 24.28125 49.71875 24.28125 L 49.6875 24.21875 C 49.640625 24.171875 49.585938 24.128906 49.53125 24.09375 L 25.84375 0.4375 C 25.824219 0.414063 25.804688 0.394531 25.78125 0.375 L 25.71875 0.28125 C 25.644531 0.207031 25.5625 0.144531 25.46875 0.09375 C 25.449219 0.0820313 25.425781 0.0703125 25.40625 0.0625 C 25.394531 0.0625 25.386719 0.0625 25.375 0.0625 C 25.355469 0.0507813 25.332031 0.0390625 25.3125 0.03125 C 25.300781 0.03125 25.292969 0.03125 25.28125 0.03125 C 25.261719 0.0195313 25.238281 0.0078125 25.21875 0 C 25.113281 -0.015625 25.011719 -0.015625 24.90625 0 C 24.894531 0 24.886719 0 24.875 0 C 24.84375 0 24.8125 0 24.78125 0 Z M 24.34375 3.09375 L 29.71875 33.53125 L 2.875 24.5625 Z M 26.5625 4 L 47.34375 24.78125 L 31.75 33.4375 Z M 19.59375 12.6875 C 19.09375 12.6875 18.710938 12.800781 18.3125 13 C 17.914063 13.199219 17.488281 13.414063 17.1875 13.8125 C 16.789063 14.113281 16.605469 14.59375 16.40625 15.09375 C 16.207031 15.695313 16.210938 16.304688 16.3125 16.90625 C 16.414063 17.40625 16.695313 18.007813 17.09375 18.40625 C 16.792969 18.507813 16.394531 18.585938 16.09375 18.6875 C 15.792969 18.789063 15.488281 18.988281 15.1875 19.1875 C 14.886719 19.386719 14.699219 19.699219 14.5 20 C 14.300781 20.300781 14.101563 20.601563 14 21 C 13.800781 21.601563 13.6875 22.210938 13.6875 22.8125 C 13.6875 23.414063 13.792969 23.90625 14.09375 24.40625 C 14.394531 24.90625 14.6875 25.289063 15.1875 25.6875 C 15.6875 26.085938 16.210938 26.394531 16.8125 26.59375 C 17.414063 26.792969 17.992188 26.90625 18.59375 26.90625 C 19.195313 26.90625 19.6875 26.699219 20.1875 26.5 C 20.6875 26.300781 21.101563 26 21.5 25.5 C 21.800781 25 22.113281 24.511719 22.3125 23.8125 C 22.511719 23.414063 22.5 22.992188 22.5 22.59375 C 22.5 22.195313 22.414063 21.800781 22.3125 21.5 C 22.210938 21.101563 22.105469 20.800781 21.90625 20.5 C 21.707031 20.199219 21.488281 19.988281 21.1875 19.6875 C 21.789063 19.585938 22.3125 19.304688 22.8125 18.90625 C 23.210938 18.40625 23.488281 17.914063 23.6875 17.3125 C 23.886719 16.710938 23.898438 16.210938 24 15.8125 C 23.898438 15.3125 23.699219 14.898438 23.5 14.5 C 23.199219 14.101563 22.898438 13.800781 22.5 13.5 C 22.101563 13.300781 21.59375 13.105469 21.09375 12.90625 C 20.59375 12.804688 20.09375 12.6875 19.59375 12.6875 Z M 19.875 14.3125 C 20.101563 14.289063 20.34375 14.304688 20.59375 14.40625 C 20.792969 14.40625 20.988281 14.488281 21.1875 14.6875 C 21.386719 14.789063 21.492188 14.988281 21.59375 15.1875 C 21.695313 15.386719 21.8125 15.605469 21.8125 15.90625 C 21.8125 16.207031 21.789063 16.386719 21.6875 16.6875 C 21.585938 16.988281 21.5 17.292969 21.5 17.59375 C 21.398438 17.792969 21.199219 17.992188 21 18.09375 C 20.800781 18.195313 20.511719 18.3125 20.3125 18.3125 C 20.011719 18.3125 19.800781 18.289063 19.5 18.1875 C 19.199219 18.085938 19.011719 18.011719 18.8125 17.8125 C 18.613281 17.613281 18.507813 17.386719 18.40625 17.1875 C 18.304688 16.988281 18.3125 16.800781 18.3125 16.5 C 18.3125 16.199219 18.304688 15.988281 18.40625 15.6875 C 18.605469 15.085938 18.914063 14.699219 19.3125 14.5 C 19.460938 14.398438 19.648438 14.335938 19.875 14.3125 Z M 17.90625 19.6875 C 18.207031 19.6875 18.511719 19.710938 18.8125 19.8125 C 19.113281 19.914063 19.394531 19.988281 19.59375 20.1875 C 19.792969 20.386719 19.992188 20.605469 20.09375 20.90625 C 20.195313 21.207031 20.3125 21.511719 20.3125 21.8125 C 20.3125 22.113281 20.289063 22.414063 20.1875 22.8125 C 19.886719 23.613281 19.601563 24.105469 19 24.40625 C 18.5 24.707031 18.011719 24.699219 17.3125 24.5 C 17.011719 24.398438 16.699219 24.292969 16.5 24.09375 C 16.300781 23.894531 16.101563 23.707031 16 23.40625 C 15.898438 23.105469 15.8125 22.800781 15.8125 22.5 C 15.8125 22.199219 15.898438 21.898438 16 21.5 C 16.199219 21.101563 16.300781 20.792969 16.5 20.59375 C 16.699219 20.292969 16.894531 20.101563 17.09375 20 C 17.394531 19.800781 17.605469 19.6875 17.90625 19.6875 Z M 4.71875 27.28125 L 29.65625 35.59375 L 24.6875 47.25 Z M 43.1875 29.375 L 27.96875 44.59375 L 31.78125 35.71875 Z"/></svg>