<svg fill="#000000" xmlns="http://www.w3.org/2000/svg" viewBox="0 0 32 32" width="500px" height="500px"><path d="M 5 5 C 3.895 5 3 5.895 3 7 C 3 8.105 3.895 9 5 9 L 6 9 L 6 24 C 6 25.64497 7.3550302 27 9 27 L 16.591797 27 C 17.78536 29.923538 20.66037 32 24 32 C 28.4 32 32 28.4 32 24 C 32 20.291044 29.438915 17.160607 26 16.265625 L 26 9 L 27 9 C 28.105 9 29 8.105 29 7 C 29 5.895 28.105 5 27 5 L 26 5 L 7 5 L 5 5 z M 8 7 L 18 7 L 18 18.734375 C 16.759997 20.144636 16 21.985981 16 24 C 16 24.339374 16.028764 24.67143 16.070312 25 L 9 25 C 8.4349698 25 8 24.56503 8 24 L 8 7 z M 21 7 L 24 7 L 24 16 C 22.93963 16 21.928256 16.212827 21 16.591797 L 21 7 z M 24 18 C 27.3 18 30 20.7 30 24 C 30 27.3 27.3 30 24 30 C 20.7 30 18 27.3 18 24 C 18 20.7 20.7 18 24 18 z M 23 20 L 23 23 L 20 23 L 20 25 L 23 25 L 23 28 L 25 28 L 25 25 L 28 25 L 28 23 L 25 23 L 25 20 L 23 20 z"/></svg>