<svg fill="#000000" xmlns="http://www.w3.org/2000/svg" viewBox="0 0 50 50" width="100px" height="100px"><path d="M 25 2 C 12.317 2 2 12.317 2 25 C 2 37.683 12.317 48 25 48 C 37.683 48 48 37.683 48 25 C 48 12.317 37.683 2 25 2 z M 26 16 L 31.505859 16 C 36.844859 16 40 19.331141 40 24.994141 C 40 30.670141 36.857859 34 31.505859 34 L 26 34 L 26 16 z M 16.806641 16.001953 C 22.033641 16.001953 22.226563 19.925406 22.226562 20.691406 C 22.226562 22.701406 20.484641 23.851375 19.806641 24.234375 L 19.806641 24.330078 C 20.870641 24.520078 23 25.479672 23 28.638672 C 23 33.713672 17.967344 34 16.902344 34 C 11.443344 34 11.019 29.755 11 28.375 L 13.138672 28.375 C 13.198672 31.15 15.186344 32.181641 16.902344 32.181641 C 17.385344 32.181641 20.773437 31.893375 20.773438 28.734375 C 20.773438 25.478375 17.481047 25.382812 16.998047 25.382812 C 16.515047 25.382812 16.127234 25.382516 15.740234 25.478516 L 15.740234 23.660156 L 16.611328 23.660156 C 19.709328 23.660156 20 21.266109 20 20.787109 C 20 19.830109 19.612641 17.916016 16.806641 17.916016 C 13.808641 17.916016 13.452875 20.868953 13.421875 21.626953 L 11.292969 21.626953 C 11.318969 20.526953 11.770641 16.001953 16.806641 16.001953 z M 28 18 L 28 32 L 31.505859 32 C 36.873859 32 38 28.190141 38 24.994141 C 38 21.803141 36.873859 18 31.505859 18 L 28 18 z"/></svg>