<svg xmlns="http://www.w3.org/2000/svg" viewBox="0 0 24 24" width="100px" height="100px"><path d="M5 8H19V10H5zM19 14c-2.761 0-5 2.239-5 5s2.239 5 5 5 5-2.239 5-5S21.761 14 19 14zM22 20h-2v2h-2v-2h-2v-2h2v-2h2v2h2V20z"/><path d="M12.08,20H6v-4h6.683c0.356-0.749,0.837-1.426,1.423-2H6V4h12v8.08c0.327-0.047,0.66-0.08,1-0.08s0.673,0.033,1,0.08V4 c0-1.105-0.895-2-2-2H6C4.895,2,4,2.895,4,4v16c0,1.105,0.895,2,2,2h6.683C12.387,21.378,12.181,20.707,12.08,20z"/><path d="M12,19c0-3.866,3.134-7,7-7V3H5v18h7.294C12.105,20.366,12,19.695,12,19z" opacity=".3"/></svg>