<svg fill="#000000" xmlns="http://www.w3.org/2000/svg" viewBox="0 0 50 50" width="100px" height="100px"><path d="M 27 -0.03125 C 26.4375 -0.03125 25.96875 0.4375 25.96875 1 L 25.96875 49.09375 C 25.96875 49.65625 26.4375 50.125 27 50.125 L 33.6875 50.125 C 36.070313 50.125 38.03125 48.195313 38.03125 45.8125 L 38.03125 4.3125 C 38.03125 1.929688 36.070313 -0.03125 33.6875 -0.03125 Z M 40.03125 16 L 40.03125 34 L 50 34 L 50 16 Z M 9 17 C 8.746094 17 8.476563 17.085938 8.28125 17.28125 L 0.59375 25 L 8.28125 32.71875 C 8.476563 32.914063 8.742188 33 9 33 C 9.257813 33 9.523438 32.914063 9.71875 32.71875 C 10.109375 32.328125 10.109375 31.671875 9.71875 31.28125 L 4.40625 26 L 23 26 L 23 24 L 4.40625 24 L 9.71875 18.71875 C 10.109375 18.328125 10.109375 17.671875 9.71875 17.28125 C 9.523438 17.085938 9.253906 17 9 17 Z"/></svg>