<?xml version="1.0"?><svg fill="#000000" xmlns="http://www.w3.org/2000/svg" viewBox="0 0 30 30" width="300px" height="300px">    <path d="M 2 2 A 1.0001 1.0001 0 1 0 2 4 L 3.8789062 4 C 4.1048086 4 4.2933102 4.1414634 4.3574219 4.359375 L 8.6191406 18.847656 C 8.993174 20.11937 10.169409 21 11.496094 21 L 22.4375 21 C 23.80881 21 25.015133 20.05834 25.347656 18.728516 L 25.347656 18.726562 L 27.970703 8.2421875 A 1.0001 1.0001 0 0 0 27 7 L 7.21875 7 L 6.2773438 3.7949219 A 1.0001 1.0001 0 0 0 6.2753906 3.7949219 C 5.9634991 2.7348335 4.9830041 2 3.8789062 2 L 2 2 z M 17 9 C 17.552 9 18 9.447 18 10 L 18 13 L 21 13 C 21.552 13 22 13.447 22 14 C 22 14.553 21.552 15 21 15 L 18 15 L 18 18 C 18 18.553 17.552 19 17 19 C 16.448 19 16 18.553 16 18 L 16 15 L 13 15 C 12.448 15 12 14.553 12 14 C 12 13.447 12.448 13 13 13 L 16 13 L 16 10 C 16 9.447 16.448 9 17 9 z M 12 23 A 2 2 0 0 0 10 25 A 2 2 0 0 0 12 27 A 2 2 0 0 0 14 25 A 2 2 0 0 0 12 23 z M 22 23 A 2 2 0 0 0 20 25 A 2 2 0 0 0 22 27 A 2 2 0 0 0 24 25 A 2 2 0 0 0 22 23 z"/></svg>