<svg fill="#000000" xmlns="http://www.w3.org/2000/svg" viewBox="0 0 64 64" width="300px" height="300px"><path d="M 15.453125 4 C 14.148438 4 13.003906 4.832031 12.597656 6.070313 L 0.445313 43.472656 C 0.0859375 44.582031 0.40625 45.8125 1.265625 46.605469 L 12.746094 57.203125 C 13.304688 57.71875 14.023438 58 14.78125 58 L 26.371094 58 C 27.734375 58 28.929688 57.078125 29.273438 55.753906 L 30.578125 50.75 C 30.691406 50.308594 31.09375 50 31.546875 50 L 34.15625 50 C 34.449219 50 34.726563 50.128906 34.917969 50.355469 L 40.46875 56.933594 C 41.039063 57.609375 41.875 58 42.765625 58 L 54.34375 58 C 55.785156 58 57.023438 56.972656 57.292969 55.558594 L 63.851563 20.878906 C 63.976563 20.207031 63.871094 19.507813 63.550781 18.90625 L 56.449219 5.585938 C 55.925781 4.609375 54.910156 4 53.800781 4 L 42.699219 4 C 41.34375 4 40.15625 4.910156 39.800781 6.214844 L 38.433594 11.261719 C 38.316406 11.695313 37.917969 12 37.46875 12 L 34.007813 12 C 33.691406 12 33.390625 11.847656 33.203125 11.59375 L 28.484375 5.21875 C 27.921875 4.457031 27.019531 4 26.074219 4 Z M 15.453125 6 L 26.074219 6 C 26.265625 6 26.449219 6.0625 26.609375 6.164063 L 24.253906 14 L 12.125 14 L 14.5 6.691406 C 14.636719 6.277344 15.019531 6 15.453125 6 Z M 42.699219 6 L 53.800781 6 C 53.859375 6 53.914063 6.011719 53.972656 6.023438 L 50.957031 20 L 43.28125 20 L 44.65625 14.484375 C 44.808594 13.882813 44.675781 13.257813 44.296875 12.769531 C 43.914063 12.28125 43.339844 12 42.71875 12 L 40.285156 12 C 40.3125 11.929688 40.34375 11.859375 40.363281 11.785156 L 41.734375 6.738281 C 41.851563 6.304688 42.246094 6 42.699219 6 Z M 28.121094 8.082031 L 31.59375 12.785156 C 32.019531 13.355469 32.628906 13.753906 33.308594 13.917969 L 32.386719 16.671875 C 32.210938 17.199219 32.496094 17.765625 33.019531 17.9375 C 33.125 17.972656 33.230469 17.988281 33.335938 17.988281 C 33.753906 17.988281 34.144531 17.726563 34.28125 17.308594 L 35.390625 14 L 42.71875 14 L 41.21875 20 L 28.390625 20 L 29.511719 16.636719 C 29.710938 16.027344 29.609375 15.351563 29.234375 14.832031 C 28.859375 14.3125 28.253906 14 27.613281 14 L 26.34375 14 Z M 55.558594 8.164063 L 61.785156 19.847656 C 61.894531 20.050781 61.929688 20.28125 61.886719 20.503906 L 56.296875 50.0625 C 56.199219 50.03125 56.105469 50 56 50 C 55.449219 50 55 50.449219 55 51 L 55 53 C 55 53.394531 55.234375 53.734375 55.570313 53.894531 L 55.328125 55.1875 C 55.234375 55.65625 54.824219 56 54.34375 56 L 42.765625 56 C 42.46875 56 42.1875 55.871094 42 55.644531 L 40.453125 53.816406 C 40.613281 53.921875 40.796875 54 41 54 C 41.550781 54 42 53.550781 42 53 L 42 51 C 42 50.449219 41.550781 50 41 50 C 40.449219 50 40 50.449219 40 51 L 40 53 C 40 53.128906 40.027344 53.25 40.074219 53.363281 L 36.449219 49.066406 C 35.875 48.390625 35.042969 48 34.15625 48 L 31.546875 48 C 30.183594 48 28.988281 48.921875 28.640625 50.246094 L 27.339844 55.25 C 27.226563 55.691406 26.824219 56 26.371094 56 L 14.78125 56 C 14.527344 56 14.289063 55.90625 14.105469 55.734375 L 11 52.871094 L 11 51 C 11 50.449219 10.550781 50 10 50 C 9.449219 50 9 50.449219 9 51 L 9 51.023438 L 3.554688 46 L 15.28125 46 C 16.140625 46 16.902344 45.449219 17.175781 44.632813 L 22.71875 28 L 24.65625 28 L 22.425781 35.425781 C 22.246094 36.035156 22.359375 36.679688 22.738281 37.191406 C 23.121094 37.707031 23.707031 38 24.34375 38 L 30.21875 38 C 31.136719 38 31.933594 37.375 32.15625 36.484375 L 33.78125 30 L 36.722656 29.984375 L 33.339844 43.515625 C 33.191406 44.117188 33.320313 44.742188 33.703125 45.230469 C 34.085938 45.71875 34.660156 46 35.28125 46 L 45.78125 46 C 46.71875 46 47.539063 45.335938 47.734375 44.421875 L 49.363281 36.878906 C 49.480469 36.339844 49.136719 35.804688 48.59375 35.6875 C 48.050781 35.574219 47.523438 35.917969 47.40625 36.457031 L 45.78125 44 L 35.28125 44 L 38.660156 30.46875 C 38.8125 29.867188 38.679688 29.242188 38.296875 28.75 C 37.914063 28.265625 37.339844 27.984375 36.722656 27.984375 L 36.714844 27.984375 L 33.769531 28 C 32.855469 28.003906 32.0625 28.628906 31.839844 29.515625 L 30.21875 36 L 24.34375 36 L 26.574219 28.574219 C 26.753906 27.960938 26.640625 27.320313 26.261719 26.808594 C 25.878906 26.292969 25.292969 26 24.65625 26 L 22.71875 26 C 21.859375 26 21.09375 26.550781 20.824219 27.367188 L 18.609375 34 L 12.71875 34 L 13.511719 31.632813 C 13.710938 31.023438 13.609375 30.351563 13.234375 29.828125 C 12.859375 29.308594 12.253906 29 11.613281 29 L 7.25 29 L 11.476563 16 L 27.609375 16 L 26.488281 19.363281 C 26.289063 19.972656 26.390625 20.648438 26.765625 21.167969 C 27.140625 21.6875 27.746094 22 28.386719 22 L 50.527344 22 L 49.675781 25.933594 C 49.5625 26.472656 49.902344 27.003906 50.441406 27.121094 C 50.515625 27.136719 50.585938 27.144531 50.65625 27.144531 C 51.117188 27.144531 51.53125 26.824219 51.632813 26.355469 Z M 49.636719 29.015625 C 49.253906 29.089844 48.933594 29.382813 48.84375 29.789063 L 48.34375 32.105469 C 48.230469 32.644531 48.574219 33.175781 49.113281 33.292969 C 49.183594 33.308594 49.253906 33.3125 49.324219 33.3125 C 49.785156 33.3125 50.199219 32.996094 50.300781 32.527344 L 50.800781 30.210938 C 50.917969 29.671875 50.574219 29.140625 50.03125 29.023438 C 49.898438 28.996094 49.765625 28.992188 49.636719 29.015625 Z M 6.601563 31 L 11.609375 31 L 9.492188 37.367188 C 9.289063 37.976563 9.390625 38.648438 9.765625 39.171875 C 10.140625 39.691406 10.746094 40 11.386719 40 L 16.609375 40 L 15.28125 44 L 2.375 44 Z M 12.054688 36 L 17.945313 36 L 17.261719 38.050781 C 17.175781 38.027344 17.09375 38 17 38 L 11.390625 38 Z M 15 50 C 14.449219 50 14 50.449219 14 51 L 14 53 C 14 53.550781 14.449219 54 15 54 C 15.550781 54 16 53.550781 16 53 L 16 51 C 16 50.449219 15.550781 50 15 50 Z M 20 50 C 19.449219 50 19 50.449219 19 51 L 19 53 C 19 53.550781 19.449219 54 20 54 C 20.550781 54 21 53.550781 21 53 L 21 51 C 21 50.449219 20.550781 50 20 50 Z M 25 50 C 24.449219 50 24 50.449219 24 51 L 24 53 C 24 53.550781 24.449219 54 25 54 C 25.550781 54 26 53.550781 26 53 L 26 51 C 26 50.449219 25.550781 50 25 50 Z M 46 50 C 45.449219 50 45 50.449219 45 51 L 45 53 C 45 53.550781 45.449219 54 46 54 C 46.550781 54 47 53.550781 47 53 L 47 51 C 47 50.449219 46.550781 50 46 50 Z M 51 50 C 50.449219 50 50 50.449219 50 51 L 50 53 C 50 53.550781 50.449219 54 51 54 C 51.550781 54 52 53.550781 52 53 L 52 51 C 52 50.449219 51.550781 50 51 50 Z"/></svg>