<svg fill="#000000" xmlns="http://www.w3.org/2000/svg" viewBox="0 0 16 16" width="300px" height="300px"><path d="M 5 0 L 5 1 L 4 1 L 4 2 L 5 2 L 5 3 L 6 3 L 6 2 L 7 2 L 7 1 L 6 1 L 6 0 L 5 0 z M 5 4 L 5 5.4199219 A 0.50005 0.50005 0 0 0 5 5.5820312 L 5 9.4199219 A 0.50005 0.50005 0 0 0 5 9.5820312 L 5 13.5 A 0.50005 0.50005 0 0 0 5.5 14 L 8 14 L 8 14.5 A 0.50005 0.50005 0 0 0 8.5 15 L 10.5 15 A 0.50005 0.50005 0 0 0 11 14.5 L 11 12.5 A 0.50005 0.50005 0 0 0 10.5 12 L 8.5 12 A 0.50005 0.50005 0 0 0 8 12.5 L 8 13 L 6 13 L 6 10 L 8 10 L 8 10.5 A 0.50005 0.50005 0 0 0 8.5 11 L 10.5 11 A 0.50005 0.50005 0 0 0 11 10.5 L 11 8.5 A 0.50005 0.50005 0 0 0 10.5 8 L 8.5 8 A 0.50005 0.50005 0 0 0 8 8.5 L 8 9 L 6 9 L 6 6 L 8 6 L 8 6.5 A 0.50005 0.50005 0 0 0 8.5 7 L 10.5 7 A 0.50005 0.50005 0 0 0 11 6.5 L 11 4.5 A 0.50005 0.50005 0 0 0 10.5 4 L 8.5 4 A 0.50005 0.50005 0 0 0 8 4.5 L 8 5 L 6 5 L 6 4 L 5 4 z M 9 5 L 10 5 L 10 6 L 9 6 L 9 5.5800781 A 0.50005 0.50005 0 0 0 9 5.4179688 L 9 5 z M 9 9 L 10 9 L 10 10 L 9 10 L 9 9.5800781 A 0.50005 0.50005 0 0 0 9 9.4179688 L 9 9 z M 9 13 L 10 13 L 10 14 L 9 14 L 9 13 z"/></svg>