<svg fill="#000000" xmlns="http://www.w3.org/2000/svg" viewBox="0 0 32 32" width="100px" height="100px"><path d="M 16 3.1015625 L 7.1015625 12 L 2 12 L 2 18 L 3.2558594 18 L 6.2558594 28 L 17.087891 28 C 18.477015 30.384094 21.05638 32 24 32 C 28.4 32 32 28.4 32 24 C 32 21.614019 30.936342 19.469014 29.265625 18 L 30 18 L 30 16 L 30 12 L 24.898438 12 L 16 3.1015625 z M 16 5.9296875 L 22.070312 12 L 9.9296875 12 L 16 5.9296875 z M 4 14 L 28 14 L 28 16 L 27.255859 16 L 27.070312 16.617188 C 26.123384 16.220178 25.086711 16 24 16 C 20.996209 16 18.367249 17.679819 17 20.144531 L 17 17 L 15 17 L 15 24 L 16 24 C 16 24.691044 16.098874 25.35927 16.265625 26 L 7.7441406 26 L 4.7441406 16 L 4 16 L 4 14 z M 11 17 L 11 24 L 13 24 L 13 17 L 11 17 z M 24 18 C 27.3 18 30 20.7 30 24 C 30 27.3 27.3 30 24 30 C 20.7 30 18 27.3 18 24 C 18 20.7 20.7 18 24 18 z M 23 20 L 23 23 L 20 23 L 20 25 L 23 25 L 23 28 L 25 28 L 25 25 L 28 25 L 28 23 L 25 23 L 25 20 L 23 20 z"/></svg>