<svg xmlns="http://www.w3.org/2000/svg" viewBox="0 0 64 64" width="50px" height="50px"><path fill="#ace3ff" d="M-5 23H23V39H-5z" transform="rotate(-90 9 31)"/><path fill="#85cbf8" d="M26 8H54V54H26z" transform="rotate(-90 40 31)"/><path fill="#72caaf" d="M33 33A12 12 0 1 0 33 57A12 12 0 1 0 33 33Z"/><path fill="#8d6c9f" d="M7 40H5a1 1 0 0 0 0 2H7a1 1 0 0 0 0-2zM17 20a1 1 0 0 0-1 1V41a1 1 0 0 0 2 0V21A1 1 0 0 0 17 20zM7 35H5a1 1 0 0 0 0 2H7a1 1 0 0 0 0-2zM7 30H5a1 1 0 0 0 0 2H7a1 1 0 0 0 0-2zM7 25H5a1 1 0 0 0 0 2H7a1 1 0 0 0 0-2zM7 20H5a1 1 0 0 0 0 2H7a1 1 0 0 0 0-2zM49 20a1 1 0 0 0-1 1V41a1 1 0 0 0 2 0V21A1 1 0 0 0 49 20z"/><path fill="#8d6c9f" d="M61,16H3a3,3,0,0,0-3,3V43a3,3,0,0,0,3,3H20.05a13,13,0,0,0,25.9,0H61a3,3,0,0,0,3-3V19A3,3,0,0,0,61,16ZM33,56A11,11,0,1,1,44,45,11,11,0,0,1,33,56ZM62,43a1,1,0,0,1-1,1H45.95A13,13,0,0,0,34,32.05V21a1,1,0,0,0-2,0V32.05A13,13,0,0,0,20.05,44H3a1,1,0,0,1-1-1V19a1,1,0,0,1,1-1H61a1,1,0,0,1,1,1Z"/><path fill="#faefde" d="M39,44H34V39a1,1,0,0,0-2,0v5H27a1,1,0,0,0,0,2h5v5a1,1,0,0,0,2,0V46h5a1,1,0,0,0,0-2Z"/></svg>