<svg xmlns="http://www.w3.org/2000/svg" viewBox="0 0 64 64" width="300px" height="300px"><linearGradient id="8sT2MJ_HGz6~V1PlHUrp~a" x1="-197" x2="-197" y1="7" y2="17" gradientTransform="matrix(-.5 0 0 1 -52.5 0)" gradientUnits="userSpaceOnUse" spreadMethod="reflect"><stop offset="0" stop-color="#6dc7ff"/><stop offset="1" stop-color="#e6abff"/></linearGradient><path fill="url(#8sT2MJ_HGz6~V1PlHUrp~a)" d="M41,7v9c0,0.552,0.448,1,1,1h9L41,7z"/><linearGradient id="8sT2MJ_HGz6~V1PlHUrp~b" x1="32" x2="32" y1="6" y2="58" gradientUnits="userSpaceOnUse" spreadMethod="reflect"><stop offset="0" stop-color="#1a6dff"/><stop offset="1" stop-color="#c822ff"/></linearGradient><path fill="url(#8sT2MJ_HGz6~V1PlHUrp~b)" d="M51.12,15.71l-8.83-8.83C41.73,6.31,40.97,6,40.17,6H15c-1.65,0-3,1.35-3,3v46 c0,1.65,1.35,3,3,3h21.91c-0.29-0.61-0.45-1.3-0.44-2H15c-0.55,0-1-0.45-1-1v-1.19c0.31,0.12,0.65,0.19,1,0.19h21.62l-0.51-0.57 C35.72,53,35.43,52.51,35.24,52H15c-0.55,0-1-0.45-1-1V9c0-0.55,0.45-1,1-1h25v7c0,1.65,1.35,3,3,3h7v17.01 c0.17-0.02,0.33-0.03,0.5-0.03c0.52,0,1.02,0.09,1.5,0.27V17.83C52,17.03,51.69,16.27,51.12,15.71z M43,16c-0.55,0-1-0.45-1-1V9.41 L48.59,16H43z"/><linearGradient id="8sT2MJ_HGz6~V1PlHUrp~c" x1="50.5" x2="50.5" y1="6.5" y2="63.376" gradientUnits="userSpaceOnUse" spreadMethod="reflect"><stop offset="0" stop-color="#1a6dff"/><stop offset="1" stop-color="#c822ff"/></linearGradient><path fill="url(#8sT2MJ_HGz6~V1PlHUrp~c)" d="M50.5,64.024c-0.57,0-1.139-0.206-1.593-0.617l-1.501-1.358l-1.979,0.426 c-1.195,0.253-2.384-0.429-2.759-1.594l-0.621-1.926l-1.927-0.621c-1.166-0.377-1.851-1.562-1.593-2.76l0.425-1.979l-1.357-1.501 c-0.821-0.909-0.821-2.278,0-3.188l1.357-1.501l-0.425-1.979c-0.257-1.197,0.427-2.383,1.593-2.76l1.927-0.621l0.621-1.926 c0.375-1.166,1.561-1.851,2.759-1.594l1.979,0.426l1.501-1.358c0.908-0.823,2.278-0.822,3.187,0l1.501,1.358l1.979-0.426 c1.195-0.257,2.384,0.428,2.759,1.594l0.621,1.926l1.927,0.621c1.166,0.377,1.851,1.562,1.593,2.76l-0.425,1.979l1.357,1.501 c0.821,0.909,0.821,2.278,0,3.188l-1.357,1.501l0.425,1.979c0.257,1.197-0.427,2.383-1.593,2.76l-1.927,0.621l-0.621,1.926 c-0.375,1.165-1.561,1.847-2.759,1.594l-1.979-0.426l-1.501,1.358C51.639,63.818,51.069,64.023,50.5,64.024z M47.987,59.879 l2.261,2.046c0.144,0.129,0.359,0.129,0.503,0l2.261-2.046l2.981,0.641c0.189,0.04,0.376-0.067,0.436-0.252l0.936-2.902l2.902-0.936 c0.184-0.059,0.292-0.246,0.251-0.436l-0.641-2.981l2.045-2.261c0.13-0.144,0.13-0.36,0-0.504l-2.045-2.261l0.641-2.981 c0.041-0.189-0.068-0.377-0.252-0.436l-2.902-0.936l-0.936-2.902c-0.06-0.185-0.248-0.293-0.436-0.252l-2.981,0.641l-2.261-2.046 c-0.144-0.129-0.359-0.129-0.503,0l-2.261,2.046l-2.981-0.641c-0.188-0.041-0.376,0.067-0.436,0.252l-0.936,2.902l-2.902,0.936 c-0.184,0.059-0.292,0.246-0.251,0.436l0.641,2.981l-2.045,2.261c-0.13,0.144-0.13,0.36,0,0.504l2.045,2.261l-0.641,2.981 c-0.041,0.189,0.068,0.377,0.252,0.436l2.902,0.936l0.936,2.902c0.06,0.185,0.247,0.291,0.436,0.252L47.987,59.879z"/></svg>