<svg fill="#000000" xmlns="http://www.w3.org/2000/svg" viewBox="0 0 50 50" width="50px" height="50px"><path d="M 34.970703 1.9960938 A 1.993 1.993 0 0 0 34.580078 2.0390625 L 14.349609 6.4609375 A 3.03 3.03 0 0 0 12 9.4101562 L 12 31.929688 A 1 1 0 0 1 11 32.939453 L 8.2109375 32.939453 A 6.185 6.185 0 0 0 2.0195312 38.390625 A 6.118 6.118 0 0 0 3.5703125 43.039062 A 6 6 0 0 0 8 45 L 11 45 A 7.029 7.029 0 0 0 18 37.960938 L 18.029297 16.980469 L 31 13.720703 L 31 26.900391 A 1 1 0 0 1 30 27.910156 L 27.210938 27.910156 A 6.185 6.185 0 0 0 21.019531 33.359375 A 6.118 6.118 0 0 0 22.570312 38.009766 A 6.037 6.037 0 0 0 27 39.970703 L 28 39.970703 C 28 39.600703 28.020781 39.240859 28.050781 38.880859 A 9.059 9.059 0 0 1 28.179688 37.970703 L 27 37.970703 A 4.02 4.02 0 0 1 23.019531 33.539062 A 4.156 4.156 0 0 1 27.210938 29.910156 L 30 29.910156 A 3.011 3.011 0 0 0 33 26.900391 L 33 13.720703 A 2.006 2.006 0 0 0 30.550781 11.759766 L 17.580078 15.029297 A 2.022 2.022 0 0 0 16 17 L 16 37.960938 A 5.023 5.023 0 0 1 11 43 L 8 43 A 4.019 4.019 0 0 1 4.0195312 38.580078 A 4.156 4.156 0 0 1 8.2109375 34.939453 L 11 34.939453 A 3.011 3.011 0 0 0 14 31.929688 L 14 9.4101562 A 1.01 1.01 0 0 1 14.779297 8.4199219 L 35 4 L 35 29.089844 C 35.21 28.989844 35.420859 28.900313 35.630859 28.820312 A 13.632 13.632 0 0 1 37 28.380859 L 37 4.0097656 A 2 2 0 0 0 36.259766 2.4492188 A 1.993 1.993 0 0 0 34.970703 1.9960938 z M 40 30 C 37.625884 30 35.444157 30.835613 33.726562 32.224609 A 8.22 8.22 0 0 1 33.900391 32.080078 A 9.082 9.082 0 0 0 33.466797 32.443359 A 8.22 8.22 0 0 1 33.541016 32.380859 C 33.397665 32.502607 33.259305 32.630271 33.123047 32.759766 A 9.082 9.082 0 0 1 33.466797 32.443359 A 8.22 8.22 0 0 0 32.966797 32.904297 C 32.951408 32.919551 32.935212 32.933866 32.919922 32.949219 C 32.273926 33.597874 31.719437 34.336053 31.269531 35.140625 C 31.22547 35.21942 31.182597 35.298824 31.140625 35.378906 A 10.841 10.841 0 0 0 31.085938 35.496094 C 31.079626 35.508524 31.072667 35.520743 31.066406 35.533203 A 8.274 8.274 0 0 0 30.818359 36.048828 C 30.797381 36.097334 30.77804 36.146415 30.757812 36.195312 A 8.274 8.274 0 0 0 30.679688 36.380859 A 10.841 10.841 0 0 1 30.726562 36.279297 C 30.661302 36.441165 30.601812 36.605584 30.544922 36.771484 A 11.091 11.091 0 0 0 30.539062 36.791016 A 8.643 8.643 0 0 0 30.523438 36.832031 C 30.495344 36.915726 30.463417 36.997374 30.4375 37.082031 A 8.643 8.643 0 0 0 30.269531 37.689453 A 11.091 11.091 0 0 1 30.351562 37.417969 C 30.130012 38.243534 30 39.105814 30 40 C 30 45.511002 34.488994 50 40 50 C 45.511006 50 50 45.511002 50 40 C 50 34.488998 45.511006 30 40 30 z M 30.544922 36.771484 A 8.643 8.643 0 0 1 30.679688 36.380859 A 11.091 11.091 0 0 0 30.544922 36.771484 z M 40 32 C 44.430126 32 48 35.569877 48 40 C 48 44.430123 44.430126 48 40 48 C 35.569874 48 32 44.430123 32 40 C 32 35.569877 35.569874 32 40 32 z M 39 35 L 39 39 L 35 39 L 35 41 L 39 41 L 39 45 L 41 45 L 41 41 L 45 41 L 45 39 L 41 39 L 41 35 L 39 35 z"/></svg>