<svg fill="#000000" xmlns="http://www.w3.org/2000/svg" viewBox="0 0 32 32" width="50px" height="50px"><path d="M 15.429688 4 C 15.169196 4 14.908005 4.0083405 14.658203 4.0234375 C 13.253242 4.1002885 11.88732 4.4010196 10.607422 4.9101562 L 11.345703 6.7675781 C 12.423805 6.3387148 13.576539 6.0846805 14.767578 6.0195312 L 14.769531 6.0195312 L 14.773438 6.0195312 C 14.9793 6.0069438 15.204812 6 15.429688 6 C 17.312314 6 19.083974 6.4747145 20.636719 7.3125 L 21.585938 5.5527344 C 19.750682 4.5625199 17.64906 4 15.429688 4 z M 8.9140625 5.7324219 C 7.7409343 6.412229 6.6689955 7.2820626 5.7382812 8.3203125 C 5.3223362 8.7819897 4.9364368 9.2798087 4.5898438 9.8007812 C 4.2082714 10.372307 3.8735169 10.96834 3.5898438 11.580078 L 5.4042969 12.419922 C 5.644254 11.902457 5.9281002 11.397945 6.2539062 10.910156 L 6.2558594 10.910156 L 6.2558594 10.908203 C 6.5492664 10.467176 6.8765544 10.046479 7.2246094 9.6601562 L 7.2246094 9.6582031 L 7.2265625 9.6582031 C 8.0194195 8.7734182 8.9259307 8.0366275 9.9160156 7.4628906 L 8.9140625 5.7324219 z M 23.376953 6.7207031 L 22.152344 8.3007812 C 24.585225 10.187842 26.205417 13.068901 26.392578 16.367188 C 26.059706 16.26242 25.715042 16.185668 25.365234 16.125 C 24.917084 10.993295 20.612388 7 15.429688 7 L 15.429688 9 C 19.499606 9 22.86745 12.042129 23.347656 16.033203 C 23.010441 16.060691 22.677799 16.103578 22.353516 16.171875 C 22.105529 14.081075 20.952753 12.271449 19.292969 11.166016 L 18.183594 12.832031 C 19.453444 13.677765 20.319514 15.087771 20.408203 16.728516 L 20.724609 16.710938 C 20.248174 16.926213 19.798621 17.185878 19.376953 17.486328 C 19.382345 17.409044 19.392817 17.298958 19.396484 17.234375 C 19.407944 17.032694 19.420773 16.999376 19.408203 16.779297 C 19.332463 15.349572 18.502699 14.117028 17.3125 13.476562 L 16.365234 15.238281 C 16.959035 15.557815 17.373848 16.162491 17.412109 16.884766 L 17.412109 16.888672 L 17.412109 16.890625 C 17.402709 16.730707 17.410411 16.945245 17.400391 17.121094 C 17.390391 17.296943 17.3724 17.543652 17.34375 17.839844 C 17.28645 18.432227 17.185625 19.22384 17.019531 20.058594 L 17.046875 20.064453 C 16.479598 21.061612 16.122523 22.189894 16.03125 23.392578 C 15.356575 24.889879 14.186452 26.097155 12.787109 27.224609 L 14.042969 28.783203 C 14.883879 28.10568 15.698851 27.358823 16.408203 26.503906 C 17.463695 29.689451 20.468058 32 24 32 C 28.406438 32 32 28.406438 32 24 C 32 21.21652 30.563436 18.760039 28.396484 17.326172 C 28.405221 16.784325 28.399102 16.371539 28.394531 16.289062 C 28.183566 12.387825 26.258731 8.9559495 23.376953 6.7207031 z M 13.572266 7.1679688 C 11.421185 7.5639278 9.4589054 8.6652317 7.9707031 10.326172 C 7.6514212 10.681164 7.3532839 11.06271 7.0859375 11.464844 C 5.8945859 13.249552 5.3168001 15.340812 5.4277344 17.478516 L 5.4257812 17.408203 L 5.4160156 17.980469 L 7.4140625 18.019531 L 7.4257812 17.410156 L 7.4238281 17.375 C 7.3348056 15.659582 7.7903418 14.01103 8.75 12.574219 L 8.7519531 12.574219 L 8.7519531 12.572266 C 8.9643237 12.252877 9.2046543 11.944797 9.4589844 11.662109 L 9.4589844 11.660156 C 10.658782 10.321143 12.216675 9.4508065 13.933594 9.1347656 L 13.572266 7.1679688 z M 15.429688 9.9980469 C 15.286649 9.9980469 15.145814 10.003797 15.007812 10.011719 C 13.419066 10.098799 11.922932 10.726142 10.746094 11.783203 L 12.082031 13.271484 C 12.928237 12.511404 13.98133 12.069541 15.119141 12.007812 L 15.121094 12.007812 L 15.123047 12.007812 C 15.229046 12.001713 15.330725 11.998047 15.429688 11.998047 C 16.010334 11.998047 16.564947 12.097637 17.080078 12.279297 L 17.744141 10.392578 C 17.017177 10.136278 16.23704 9.9980469 15.429688 9.9980469 z M 15.419922 13 C 15.338322 13 15.260523 13.002259 15.189453 13.005859 L 15.1875 13.005859 L 15.185547 13.005859 C 14.132622 13.063099 13.143133 13.540491 12.435547 14.330078 C 11.727307 15.120394 11.363626 16.159681 11.421875 17.21875 L 11.419922 17.205078 C 11.419806 17.202378 11.456742 18.346819 10.998047 19.658203 C 10.539349 20.969587 9.6395763 22.443698 7.6679688 23.400391 L 7.6640625 23.402344 L 7.6582031 23.40625 C 7.6582031 23.40625 7.3885856 23.539734 7.0546875 23.689453 C 6.7207894 23.839172 6.2841272 24.003516 6.1894531 24.025391 L 6.640625 25.972656 C 7.0869509 25.869531 7.4952418 25.684156 7.8710938 25.515625 C 8.2469455 25.347094 8.5527344 25.195313 8.5527344 25.195312 L 8.5410156 25.199219 C 11.039408 23.986912 12.301464 21.985975 12.884766 20.318359 C 13.468067 18.650743 13.428038 17.312838 13.419922 17.121094 L 13.417969 17.115234 L 13.417969 17.107422 C 13.388219 16.566491 13.564021 16.067746 13.925781 15.664062 C 14.288195 15.25965 14.765847 15.032668 15.294922 15.003906 C 15.341212 15.001706 15.385152 15 15.419922 15 L 15.419922 13 z M 9.5839844 13.126953 C 8.7509732 14.37297 8.3431932 15.854636 8.4257812 17.369141 L 8.4238281 17.34375 C 8.4246433 17.37228 8.5269366 19.611276 6.3925781 20.677734 C 6.3641896 20.688792 5.5754438 21 4.4140625 21 L 4.4140625 23 C 5.9820322 23 7.1640625 22.53125 7.1640625 22.53125 L 7.1992188 22.517578 L 7.2324219 22.501953 C 10.455476 20.937561 10.429008 17.468388 10.423828 17.287109 L 10.423828 17.273438 L 10.421875 17.259766 C 10.362465 16.17027 10.651105 15.128265 11.246094 14.238281 L 9.5839844 13.126953 z M 15.414062 16 C 14.862063 16 14.414062 16.448 14.414062 17 C 14.414062 17.019449 14.424684 17.035512 14.425781 17.054688 L 14.416016 17.054688 C 14.416016 17.054688 14.523576 19.13171 13.5 21.447266 L 15.330078 22.255859 C 16.51835 19.567725 16.421232 17.150726 16.414062 17 C 16.413832 16.995161 16.414062 16.945312 16.414062 16.945312 L 16.402344 16.945312 C 16.372272 16.420269 15.946596 16 15.414062 16 z M 24 18 C 27.325562 18 30 20.674438 30 24 C 30 27.325562 27.325562 30 24 30 C 20.674438 30 18 27.325562 18 24 C 18 20.674438 20.674438 18 24 18 z M 23 20 L 23 23 L 20 23 L 20 25 L 23 25 L 23 28 L 25 28 L 25 25 L 28 25 L 28 23 L 25 23 L 25 20 L 23 20 z M 12.962891 22.488281 C 12.160355 23.837589 10.937544 25.148474 8.9785156 26.099609 L 9.8515625 27.900391 C 12.172534 26.773526 13.708176 25.148411 14.681641 23.511719 L 12.962891 22.488281 z"/></svg>