<svg fill="#000000" xmlns="http://www.w3.org/2000/svg" viewBox="0 0 32 32" width="500px" height="500px"><path d="M 20 3 C 18.117188 3 16.824219 3.601563 15.9375 4.40625 L 8.40625 10.96875 L 8.46875 11.03125 C 7.789063 11.820313 7 13.136719 7 15 C 7 16.03125 7.457031 16.910156 8.03125 17.5625 C 8.605469 18.214844 9.296875 18.691406 9.9375 19.125 C 10.578125 19.558594 11.160156 19.941406 11.53125 20.28125 C 11.789063 20.519531 11.882813 20.671875 11.9375 20.8125 L 6 26 L 5.9375 26.03125 C 5.9375 26.03125 6.433594 26.839844 7.40625 27.5625 C 8.378906 28.285156 9.898438 29 12 29 C 14.597656 29 17.128906 27.054688 19.1875 25.25 C 20.167969 24.390625 21.03125 23.566406 21.65625 22.90625 C 21.6875 22.871094 21.71875 22.8125 21.75 22.78125 C 23.929688 21.03125 24 18 24 18 C 24 14.738281 21.578125 13.179688 19.8125 11.71875 L 24 8 L 26 5 C 26 5 23.691406 3 20 3 Z M 20.5 7 C 21.007813 7 21.503906 7.085938 21.9375 7.1875 L 18.4375 10.28125 C 18.175781 9.886719 18 9.472656 18 9 C 18 8.085938 18.578125 7 20.5 7 Z M 14 8.71875 C 13.988281 8.898438 14 9 14 9 C 14 14.03125 20 14.792969 20 18 C 20 18 19.894531 20 17.46875 20 C 15.042969 20 14 19 14 19 L 13.46875 19.46875 C 13.296875 19.226563 13.113281 19 12.90625 18.8125 C 12.335938 18.289063 11.671875 17.882813 11.0625 17.46875 C 10.453125 17.054688 9.890625 16.660156 9.53125 16.25 C 9.171875 15.839844 9 15.480469 9 15 C 9 12.722656 10.5 11.8125 10.5 11.8125 L 10.46875 11.78125 Z M 13 23 C 13 23 14.730469 23.902344 17.53125 24 C 15.648438 25.589844 13.367188 27 12 27 C 10.574219 27 9.617188 26.613281 8.9375 26.1875 Z"/></svg>