<svg xmlns="http://www.w3.org/2000/svg" viewBox="0 0 24 24" width="50px" height="50px"><path d="M16 7H8C7.448 7 7 6.552 7 6V4l5 1 5-1v2C17 6.552 16.552 7 16 7zM19 14c-2.761 0-5 2.239-5 5s2.239 5 5 5 5-2.239 5-5S21.761 14 19 14zM22 20h-2v2h-2v-2h-2v-2h2v-2h2v2h2V20z"/><path d="M12,19H5V5h7c-0.552,0-1-0.448-1-1s0.448-1,1-1s1,0.448,1,1s-0.448,1-1,1h7v7c0.695,0,1.366,0.105,2,0.294V5 c0-1.105-0.895-2-2-2h-4.184C14.403,1.837,13.304,1,12,1S9.597,1.837,9.184,3H5C3.895,3,3,3.895,3,5v14c0,1.105,0.895,2,2,2h7.294 C12.105,20.366,12,19.695,12,19z"/><path d="M12,19c0-3.866,3.134-7,7-7c0.34,0,0.673,0.033,1,0.08V5H4v15h8.08C12.033,19.673,12,19.34,12,19z" opacity=".3"/></svg>