<?xml version="1.0"?><svg fill="#000000" xmlns="http://www.w3.org/2000/svg" viewBox="0 0 50 50" width="50px" height="50px">    <path d="M 37.511719 0.01953125 C 30.624719 0.01953125 25.021484 4.9298906 25.021484 10.962891 C 25.021484 14.255891 26.711969 17.323781 29.667969 19.425781 C 29.650969 19.530781 29.6195 19.675766 29.5625 19.884766 C 29.4075 20.466766 29.067937 21.381594 28.335938 22.433594 L 27.802734 23.197266 C 27.693734 23.353266 27.681531 23.557562 27.769531 23.726562 C 27.857531 23.894562 28.030703 24 28.220703 24 L 29.150391 24 C 32.084391 24 33.970984 22.386375 34.708984 21.609375 C 35.647984 21.809375 36.568719 21.90625 37.511719 21.90625 C 44.398719 21.90625 50 16.997891 50 10.962891 C 50 4.9298906 44.398719 0.01953125 37.511719 0.01953125 z M 37.511719 5.0996094 C 38.111719 5.0996094 38.511719 5.4996094 38.511719 6.0996094 L 38.511719 10 L 42.410156 10 C 43.010156 10 43.410156 10.4 43.410156 11 C 43.410156 11.6 43.010156 12 42.410156 12 L 38.511719 12 L 38.511719 15.900391 C 38.511719 16.500391 38.111719 16.900391 37.511719 16.900391 C 36.911719 16.900391 36.511719 16.500391 36.511719 15.900391 L 36.511719 12 L 32.611328 12 C 32.011328 12 31.611328 11.6 31.611328 11 C 31.611328 10.4 32.011328 10 32.611328 10 L 36.511719 10 L 36.511719 6.0996094 C 36.511719 5.4996094 36.911719 5.0996094 37.511719 5.0996094 z M 22.068359 8.2109375 C 20.816469 8.1854844 19.568703 8.5821563 18.564453 9.4101562 L 13.671875 13 L 10 13 C 9.447 13 9 13.448 9 14 L 9 17.294922 C 8.985 17.305922 8.967125 17.310266 8.953125 17.322266 L 2.3632812 22.75 C 2.3522812 22.759 2.3508437 22.77225 2.3398438 22.78125 L 11 29.585938 L 11 15 L 23.761719 15 C 23.283719 13.713 23.021484 12.356891 23.021484 10.962891 C 23.021484 10.077891 23.1215 9.2129531 23.3125 8.3769531 C 22.9035 8.2752031 22.485656 8.2194219 22.068359 8.2109375 z M 40.107422 23.685547 C 39.263422 23.822547 38.398719 23.90625 37.511719 23.90625 C 36.775719 23.90725 36.057938 23.855953 35.335938 23.751953 C 34.760937 24.226953 33.973094 24.759453 32.996094 25.189453 L 32.996094 29.464844 L 40.107422 23.685547 z M 41.996094 24.728516 L 30.261719 34.263672 L 41.996094 43.214844 L 41.996094 24.728516 z M 2 25.058594 L 2 43.216797 L 13.724609 34.269531 L 2 25.058594 z M 21.998047 32.005859 C 20.715797 32.005109 19.435125 32.412562 18.390625 33.226562 L 2 45.732422 L 2 46.988281 C 2 47.540281 2.447 47.988281 3 47.988281 L 40.996094 47.988281 C 41.549094 47.988281 41.996094 47.540281 41.996094 46.988281 L 41.996094 45.728516 L 25.613281 33.230469 C 24.564781 32.414469 23.280297 32.006609 21.998047 32.005859 z"/></svg>