<svg xmlns="http://www.w3.org/2000/svg" viewBox="0 0 128 128" width="50px" height="50px"><path fill="#444b54" d="M37,20.2c-1,0-2-0.5-2.6-1.5c-0.8-1.4-0.3-3.3,1.1-4.1C44.1,9.6,54,7,64,7c10,0,19.9,2.6,28.5,7.6c1.4,0.8,1.9,2.7,1.1,4.1c-0.8,1.4-2.7,1.9-4.1,1.1C81.8,15.4,73,13,64,13c-9,0-17.8,2.4-25.5,6.8C38,20.1,37.5,20.2,37,20.2z"/><path fill="#444b54" d="M97 41c-.9 0-1.8-.4-2.4-1.1C87.2 30.4 76 25 64 25c-3 0-6.1.4-9 1.1-1.6.4-3.2-.6-3.6-2.2-.4-1.6.6-3.2 2.2-3.6C57 19.4 60.5 19 64 19c13.8 0 26.7 6.2 35.3 17.1 1 1.3.8 3.2-.5 4.2C98.3 40.8 97.6 41 97 41zM31 41c-.7 0-1.3-.2-1.9-.6-1.3-1-1.5-2.9-.5-4.2 3.5-4.4 7.7-8.1 12.6-11 1.4-.8 3.3-.4 4.1 1.1.8 1.4.4 3.3-1.1 4.1-4.2 2.5-7.9 5.7-10.9 9.5C32.8 40.7 31.9 41 31 41zM94 75c-1.7 0-3-1.3-3-3v-8c0-4.4-1.1-8.8-3.2-12.7-.8-1.5-.2-3.3 1.2-4.1 1.5-.8 3.3-.2 4.1 1.2C95.7 53.2 97 58.6 97 64v8C97 73.7 95.7 75 94 75z"/><path fill="#444b54" d="M81.7 42.8c-.6 0-1.2-.2-1.8-.6C75.3 38.8 69.8 37 64 37c-4.9 0-9.8 1.3-13.9 3.9-1.4.9-3.3.4-4.1-1-.9-1.4-.4-3.3 1-4.1C52.1 32.6 58 31 64 31c7.1 0 13.8 2.2 19.5 6.3 1.3 1 1.6 2.9.7 4.2C83.5 42.3 82.6 42.8 81.7 42.8zM34 67c-1.7 0-3-1.3-3-3 0-5.8 1.5-11.5 4.4-16.5.8-1.4 2.7-1.9 4.1-1.1 1.4.8 1.9 2.7 1.1 4.1C38.2 54.6 37 59.3 37 64 37 65.7 35.7 67 34 67z"/><path fill="#444b54" d="M34 79H24c-1.7 0-3-1.3-3-3s1.3-3 3-3h10c5 0 9-4 9-9 0-7.4 3.8-14.1 10.1-17.9 1.4-.9 3.3-.4 4.1 1 .9 1.4.4 3.3-1 4.1C51.7 53.9 49 58.7 49 64 49 72.3 42.3 79 34 79zM81.1 61.9c-1.3 0-2.5-.8-2.9-2.1-1.8-5.6-6.5-9.8-12.2-10.6-1.6-.2-2.8-1.8-2.5-3.4.2-1.6 1.8-2.8 3.4-2.5 7.9 1.1 14.6 6.9 17 14.8.5 1.6-.4 3.3-2 3.8C81.7 61.8 81.4 61.9 81.1 61.9zM82 83c-1.7 0-3-1.3-3-3v-8.8c0-1.7 1.3-3 3-3s3 1.3 3 3V80C85 81.7 83.7 83 82 83z"/><path fill="#444b54" d="M34.4,103H32c-1.7,0-3-1.3-3-3s1.3-3,3-3h2.4C52.4,97,67,82.4,67,64.4c0-1.8-1.3-3.4-2.9-3.4L64,61c-1,0-1.7,0.5-2.1,0.8c-0.2,0.2-0.6,0.7-0.8,1.3C61,63.4,61,63.7,61,64c0,1.7-1.3,3-3,3s-3-1.3-3-3c0-0.9,0.1-1.7,0.4-2.5c0.6-1.9,1.6-3.2,2.4-3.9c1-1,3.2-2.6,6.6-2.5c4.8,0.2,8.6,4.4,8.6,9.4C73,85.7,55.7,103,34.4,103z"/><path fill="#444b54" d="M34 91h-8c-1.7 0-3-1.3-3-3s1.3-3 3-3h8c8.1 0 15.3-4.5 18.9-11.8.7-1.5 2.5-2.1 4-1.4 1.5.7 2.1 2.5 1.4 4C53.7 85.2 44.4 91 34 91zM42.3 114.3c-1.4 0-2.7-1-3-2.5-.3-1.6.8-3.2 2.4-3.5 9.4-1.6 18.1-6.2 24.5-12.8 2.6-2.6 6.4-3.5 9.8-2.2 1.5.6 2.3 2.3 1.7 3.9-.6 1.5-2.3 2.3-3.9 1.7-1.1-.4-2.4-.1-3.3.8-7.3 7.5-17.2 12.7-27.8 14.5C42.7 114.3 42.5 114.3 42.3 114.3z"/><g><path fill="#444b54" d="M22,67c-1.7,0-3-1.3-3-3c0-4.2,0.6-8.3,1.7-12.3c2-6.9,5.6-13.4,10.6-18.6c1.1-1.2,3-1.3,4.2-0.1c1.2,1.1,1.3,3,0.1,4.2c-4.3,4.6-7.5,10.1-9.2,16.2c-1,3.5-1.5,7-1.5,10.7C25,65.7,23.7,67,22,67z"/></g><g><path fill="#444b54" d="M106,73c-1.7,0-3-1.3-3-3v-6c0-13-6.4-25.1-17.2-32.3c-1.4-0.9-1.7-2.8-0.8-4.2c0.9-1.4,2.8-1.7,4.2-0.8C101.6,35.1,109,49,109,64v6C109,71.7,107.7,73,106,73z"/></g><g><path fill="#ff5576" d="M101 82A20 20 0 1 0 101 122A20 20 0 1 0 101 82Z" transform="rotate(-45.001 101 102.002)"/></g><g><path fill="#fff" d="M107.9,105h-14c-1.7,0-3-1.3-3-3s1.3-3,3-3h14c1.7,0,3,1.3,3,3S109.6,105,107.9,105z"/></g><g><path fill="#fff" d="M100.9,112c-1.7,0-3-1.3-3-3V95c0-1.7,1.3-3,3-3s3,1.3,3,3v14C103.9,110.7,102.6,112,100.9,112z"/></g></svg>