<svg xmlns="http://www.w3.org/2000/svg" viewBox="0 0 48 48" width="100px" height="100px"><path fill="#38b47b" d="M22.969,3.656C17.551,4.234,13.66,4.568,9.567,8.341C8.682,9.156,7.876,10.057,7.2,11.047 c-1.011,1.481-1.719,3.144-2.266,4.845c-1.178,3.661-1.631,7.573-1.068,11.372s2.168,7.478,4.771,10.342 c1.111,1.223,3.017,1.859,4.405,2.769c4.211,2.763,8.793,4.463,13.83,3.951c4.09-0.415,8.069-1.998,11.212-4.602 c3.142-2.604,5.418-6.233,6.235-10.191c0.577-2.792,0.438-5.676,0.225-8.517c-0.214-2.861-1.901-5.529-3.357-8.016 c-0.74-1.265-1.752-2.36-2.857-3.336C33.925,5.774,28.859,3.028,22.969,3.656z"/><path fill="#010101" d="M25.076,44.918c-4.048,0-8.093-1.358-12.309-4.125c-0.467-0.307-0.997-0.581-1.558-0.871 c-1.063-0.552-2.163-1.121-2.943-1.979c-2.562-2.818-4.3-6.585-4.896-10.605c-0.546-3.683-0.17-7.693,1.086-11.599 c0.64-1.988,1.402-3.615,2.329-4.974C7.448,9.796,8.27,8.856,9.228,7.974c4.118-3.797,7.972-4.207,13.306-4.774l0.381-0.04 c5.283-0.563,10.436,1.441,15.746,6.13c1.3,1.147,2.267,2.279,2.958,3.458l0.319,0.544c1.425,2.418,2.897,4.919,3.104,7.688 c0.209,2.795,0.363,5.765-0.234,8.656c-0.831,4.02-3.105,7.739-6.406,10.474c-3.147,2.608-7.225,4.283-11.48,4.715 C26.306,44.886,25.691,44.918,25.076,44.918z M23.022,4.153L22.64,4.194c-5.144,0.547-8.859,0.942-12.734,4.514 c-0.903,0.833-1.674,1.714-2.293,2.621c-0.873,1.277-1.593,2.82-2.203,4.716C4.2,19.805,3.837,23.658,4.36,27.19 c0.566,3.826,2.216,7.406,4.646,10.08c0.659,0.726,1.678,1.253,2.663,1.763c0.559,0.29,1.136,0.589,1.646,0.924 c4.658,3.055,9.082,4.32,13.505,3.872c4.061-0.412,7.947-2.007,10.944-4.49c3.126-2.59,5.28-6.108,6.064-9.907 c0.571-2.764,0.42-5.654,0.216-8.379c-0.189-2.536-1.602-4.935-2.968-7.254l-0.321-0.546c-0.636-1.087-1.538-2.138-2.756-3.214 C32.911,5.547,28.011,3.622,23.022,4.153L23.022,4.153z"/><path fill="#d6e5e5" d="M12.76,22.117c0.031,0.748,0.039,1.646,0.004,2.408c-0.027,0.575,0.433,1.041,1.008,1.034 c2.84-0.034,4.683,0.165,7.491,0.593c0.489,1.696,0.477,2.881,0.417,4.646c-0.041,1.2-0.092,2.655,0.918,3.303 c0.482,0.31,1.088,0.334,1.661,0.349l1.157,0.03c0.541,0.014,0.99-0.403,1.026-0.943c0.175-2.613,0.099-5.036-0.068-7.668 c2.289,0.168,5.579,0.337,7.868,0.505c0.243,0.018,0.523,0.022,0.688-0.157c0.12-0.131,0.142-0.322,0.157-0.499 c0.048-0.55,0.224-1.646,0.266-2.197c0.043-0.566,0.047-1.224-0.387-1.591c-0.255-0.216-0.699-0.07-1.03-0.118 c-2.323-0.334-4.7-0.216-7.045-0.325c0.227-2.093,0.463-5.277,0.255-7.372c-0.03-0.305-0.075-0.633-0.285-0.857 c-0.254-0.27-0.663-0.303-1.033-0.319c-1.111-0.047-1.781-0.038-2.892-0.086c-0.128-0.005-1.234,0.172-1.172,1.219 c0.123,2.064-0.177,4.984-0.106,7.05c-2.779-0.42-5.253-0.285-8.004-0.038C13.13,21.132,12.738,21.591,12.76,22.117z"/><path fill="#010101" d="M25.443,34.979c-0.013,0-0.026,0-0.039,0l-1.158-0.03c-0.58-0.015-1.303-0.033-1.917-0.428 c-1.248-0.801-1.19-2.496-1.148-3.733c0.055-1.621,0.069-2.724-0.313-4.19c-2.604-0.392-4.384-0.571-7.089-0.539 c-0.006,0-0.012,0-0.018,0c-0.408,0-0.801-0.165-1.081-0.455c-0.287-0.297-0.434-0.688-0.415-1.102 c0.032-0.686,0.03-1.547-0.004-2.364c-0.034-0.799,0.559-1.48,1.35-1.551c2.424-0.217,4.83-0.38,7.538-0.039 c-0.004-0.843,0.035-1.785,0.073-2.702c0.054-1.309,0.109-2.662,0.045-3.743c-0.028-0.475,0.121-0.892,0.431-1.207 c0.423-0.428,1.048-0.576,1.263-0.54c0.55,0.022,0.992,0.032,1.434,0.042c0.449,0.009,0.897,0.019,1.457,0.042 c0.362,0.016,0.969,0.041,1.377,0.478c0.34,0.359,0.389,0.854,0.418,1.149c0.213,2.158-0.034,5.273-0.2,6.942 c0.601,0.02,1.204,0.028,1.807,0.037c1.561,0.021,3.175,0.045,4.756,0.271c0.084,0.013,0.18,0.004,0.276-0.001 c0.289-0.016,0.686-0.038,1.005,0.231c0.672,0.569,0.598,1.543,0.563,2.011c-0.022,0.296-0.083,0.746-0.142,1.188 c-0.052,0.382-0.103,0.758-0.125,1.014c-0.017,0.198-0.045,0.531-0.288,0.794c-0.344,0.375-0.871,0.333-1.094,0.317 c-1.141-0.084-2.533-0.168-3.925-0.252c-1.173-0.071-2.346-0.142-3.371-0.213c0.128,2.177,0.207,4.544,0.032,7.162 C26.888,34.367,26.233,34.979,25.443,34.979z M14.374,25.055c2.546,0,4.333,0.201,6.965,0.604c0.192,0.029,0.351,0.168,0.405,0.355 c0.5,1.734,0.499,2.971,0.436,4.801c-0.038,1.116-0.08,2.372,0.689,2.865c0.352,0.226,0.823,0.255,1.403,0.27l1.158,0.03 c0.248,0.007,0.495-0.203,0.514-0.477c0.187-2.792,0.078-5.305-0.067-7.604c-0.009-0.144,0.044-0.285,0.147-0.387 c0.103-0.102,0.241-0.152,0.388-0.144c1.143,0.084,2.536,0.168,3.928,0.252c1.397,0.085,2.793,0.169,3.94,0.253 c0.211,0.018,0.277,0.001,0.299-0.009c-0.003-0.014,0.007-0.142,0.012-0.19c0.023-0.268,0.076-0.661,0.129-1.062 c0.057-0.421,0.114-0.849,0.136-1.13c0.035-0.462,0.037-0.962-0.211-1.172c-0.035-0.011-0.204-0.003-0.305,0.003 c-0.164,0.008-0.327,0.014-0.473-0.007c-1.516-0.218-3.098-0.24-4.627-0.262c-0.791-0.012-1.582-0.022-2.369-0.06 c-0.138-0.006-0.267-0.069-0.357-0.174s-0.132-0.242-0.117-0.379c0.12-1.102,0.491-4.881,0.255-7.27 c-0.022-0.227-0.053-0.457-0.151-0.562c-0.121-0.129-0.42-0.152-0.691-0.163c-0.552-0.023-0.994-0.033-1.436-0.043 c-0.449-0.009-0.897-0.019-1.457-0.042c0.015,0.001-0.689,0.061-0.652,0.688c0.067,1.132,0.011,2.511-0.044,3.844 c-0.048,1.172-0.094,2.279-0.062,3.219c0.005,0.149-0.056,0.292-0.167,0.391s-0.26,0.146-0.407,0.121 c-2.841-0.43-5.35-0.261-7.885-0.034c-0.258,0.023-0.451,0.248-0.44,0.513c0,0,0,0,0,0.001c0.035,0.845,0.037,1.737,0.004,2.451 c-0.006,0.136,0.042,0.264,0.134,0.36c0.096,0.099,0.23,0.171,0.369,0.15C13.974,25.057,14.176,25.055,14.374,25.055z"/></svg>