<?xml version="1.0"?><svg fill="#000000" xmlns="http://www.w3.org/2000/svg" viewBox="0 0 24 24" width="50px" height="50px">    <path d="M 12 2 C 11.448 2 11 2.448 11 3 C 11 3.552 11.448 4 12 4 C 12.552 4 13 3.552 13 3 C 13 2.448 12.552 2 12 2 z M 7.9257812 4.6816406 C 7.8460742 4.6888848 7.7655469 4.7074531 7.6855469 4.7363281 C 4.3265469 5.9463281 2 8.523 2 11.5 C 2 15.122574 5.4406991 18.153083 10 18.849609 L 10 20.810547 C 10 21.340547 10.640625 21.606422 11.015625 21.232422 L 13.826172 18.421875 C 14.058172 18.189875 14.058172 17.812078 13.826172 17.580078 L 11.015625 14.769531 C 10.640625 14.394531 10 14.659453 10 15.189453 L 10 16.818359 C 6.5554724 16.205175 4 14.056531 4 11.5 C 4 9.383 5.7505937 7.544 8.3085938 6.625 C 8.7145937 6.479 9 6.1116875 9 5.6796875 C 9 5.0846875 8.4837305 4.6309316 7.9257812 4.6816406 z M 16.074219 4.6816406 C 15.51627 4.6309316 15 5.0846875 15 5.6796875 C 15 6.1116875 15.285406 6.479 15.691406 6.625 C 18.249406 7.544 20 9.383 20 11.5 C 20 13.058 19.016078 14.542937 17.330078 15.585938 C 16.904078 15.848937 16.754656 16.396656 16.972656 16.847656 L 16.978516 16.859375 C 17.236516 17.392375 17.905203 17.584484 18.408203 17.271484 C 20.676203 15.859484 22 13.761 22 11.5 C 22 8.523 19.673453 5.9463281 16.314453 4.7363281 C 16.234453 4.7074531 16.153926 4.6888848 16.074219 4.6816406 z M 12 6 C 11.448 6 11 6.448 11 7 C 11 7.552 11.448 8 12 8 C 12.552 8 13 7.552 13 7 C 13 6.448 12.552 6 12 6 z M 12 10 C 11.448 10 11 10.448 11 11 C 11 11.552 11.448 12 12 12 C 12.552 12 13 11.552 13 11 C 13 10.448 12.552 10 12 10 z"/></svg>