<svg fill="#000000" xmlns="http://www.w3.org/2000/svg" viewBox="0 0 64 64" width="500px" height="500px"><path d="M 30 4 C 28.898438 4 28 4.898438 28 6 L 28 28 L 6 28 C 4.898438 28 4 28.898438 4 30 L 4 34 C 4 35.101563 4.898438 36 6 36 L 28 36 L 28 58 C 28 59.101563 28.898438 60 30 60 L 34 60 C 35.101563 60 36 59.101563 36 58 L 36 36 L 58 36 C 59.101563 36 60 35.101563 60 34 L 60 30 C 60 28.898438 59.101563 28 58 28 L 36 28 L 36 6 C 36 4.898438 35.101563 4 34 4 Z M 30 6 L 34 6 L 34 30 L 58 30 L 58 34 L 34 34 L 34 58 L 30 58 L 30 34 L 6 34 L 6 30 L 30 30 Z M 5 22 C 4.445313 22 4 22.445313 4 23 L 4 25 C 4 25.554688 4.445313 26 5 26 C 5.554688 26 6 25.554688 6 25 L 6 23 C 6 22.445313 5.554688 22 5 22 Z M 10 22 C 9.445313 22 9 22.445313 9 23 L 9 25 C 9 25.554688 9.445313 26 10 26 C 10.554688 26 11 25.554688 11 25 L 11 23 C 11 22.445313 10.554688 22 10 22 Z M 15 22 C 14.445313 22 14 22.445313 14 23 L 14 25 C 14 25.554688 14.445313 26 15 26 C 15.554688 26 16 25.554688 16 25 L 16 23 C 16 22.445313 15.554688 22 15 22 Z M 20 22 C 19.445313 22 19 22.445313 19 23 L 19 25 C 19 25.554688 19.445313 26 20 26 C 20.554688 26 21 25.554688 21 25 L 21 23 C 21 22.445313 20.554688 22 20 22 Z M 25 22 C 24.445313 22 24 22.445313 24 23 L 24 25 C 24 25.554688 24.445313 26 25 26 C 25.554688 26 26 25.554688 26 25 L 26 23 C 26 22.445313 25.554688 22 25 22 Z M 39 38 C 38.445313 38 38 38.445313 38 39 L 38 41 C 38 41.554688 38.445313 42 39 42 C 39.554688 42 40 41.554688 40 41 L 40 39 C 40 38.445313 39.554688 38 39 38 Z M 44 38 C 43.445313 38 43 38.445313 43 39 L 43 41 C 43 41.554688 43.445313 42 44 42 C 44.554688 42 45 41.554688 45 41 L 45 39 C 45 38.445313 44.554688 38 44 38 Z M 49 38 C 48.445313 38 48 38.445313 48 39 L 48 41 C 48 41.554688 48.445313 42 49 42 C 49.554688 42 50 41.554688 50 41 L 50 39 C 50 38.445313 49.554688 38 49 38 Z M 54 38 C 53.445313 38 53 38.445313 53 39 L 53 41 C 53 41.554688 53.445313 42 54 42 C 54.554688 42 55 41.554688 55 41 L 55 39 C 55 38.445313 54.554688 38 54 38 Z M 59 38 C 58.445313 38 58 38.445313 58 39 L 58 41 C 58 41.554688 58.445313 42 59 42 C 59.554688 42 60 41.554688 60 41 L 60 39 C 60 38.445313 59.554688 38 59 38 Z"/></svg>