<svg xmlns="http://www.w3.org/2000/svg" viewBox="0 0 64 64" width="500px" height="500px"><linearGradient id="TnpXD0Xea8k95yxQVf05ia" x1="20" x2="20" y1="33.915" y2="37.6" gradientUnits="userSpaceOnUse"><stop offset="0" stop-color="#6dc7ff"/><stop offset="1" stop-color="#e6abff"/></linearGradient><path fill="url(#TnpXD0Xea8k95yxQVf05ia)" d="M20,34c1.104,0,2,0.896,2,2s-0.896,2-2,2s-2-0.896-2-2S18.896,34,20,34"/><linearGradient id="TnpXD0Xea8k95yxQVf05ib" x1="36" x2="36" y1="30.915" y2="34.895" gradientUnits="userSpaceOnUse"><stop offset="0" stop-color="#6dc7ff"/><stop offset="1" stop-color="#e6abff"/></linearGradient><path fill="url(#TnpXD0Xea8k95yxQVf05ib)" d="M36,31c1.104,0,2,0.896,2,2c0,1.104-0.896,2-2,2s-2-0.896-2-2C34,31.896,34.896,31,36,31"/><g><linearGradient id="TnpXD0Xea8k95yxQVf05ic" x1="28" x2="28" y1="6.234" y2="59.374" gradientUnits="userSpaceOnUse"><stop offset="0" stop-color="#1a6dff"/><stop offset="1" stop-color="#c822ff"/></linearGradient><path fill="url(#TnpXD0Xea8k95yxQVf05ic)" d="M40,33V16.566c0-0.932-0.421-1.794-1.156-2.366c-0.734-0.573-1.673-0.771-2.577-0.543 l-12,3.024C22.932,17.02,22,18.215,22,19.591v12.966C21.409,32.212,20.732,32,20,32c-2.206,0-4,1.794-4,4s1.794,4,4,4s4-1.794,4-4 V25.591c0-0.459,0.311-0.857,0.756-0.97l12-3.024c0.3-0.075,0.614-0.01,0.859,0.181C37.859,21.969,38,22.256,38,22.566v6.99 C37.409,29.212,36.732,29,36,29c-2.206,0-4,1.794-4,4s1.794,4,4,4S40,35.206,40,33z M20,38c-1.103,0-2-0.897-2-2s0.897-2,2-2 s2,0.897,2,2S21.103,38,20,38z M36.267,19.657l-12,3.024c-0.092,0.023-0.178,0.06-0.266,0.092v-3.183 c0-0.459,0.311-0.857,0.756-0.97l12-3.024c0.3-0.073,0.614-0.01,0.859,0.181C37.859,15.969,38,16.256,38,16.566v3.19 C37.449,19.56,36.853,19.511,36.267,19.657z M34,33c0-1.103,0.897-2,2-2s2,0.897,2,2s-0.897,2-2,2S34,34.103,34,33z"/><linearGradient id="TnpXD0Xea8k95yxQVf05id" x1="32" x2="32" y1="6.234" y2="59.374" gradientUnits="userSpaceOnUse"><stop offset="0" stop-color="#1a6dff"/><stop offset="1" stop-color="#c822ff"/></linearGradient><path fill="url(#TnpXD0Xea8k95yxQVf05id)" d="M49,38.202V12c0-1.103-0.897-2-2-2h-2V9c0-1.654-1.346-3-3-3H14c-1.654,0-3,1.346-3,3v1H9 c-1.103,0-2,0.897-2,2v28c0,1.103,0.897,2,2,2h2v1c0,1.654,1.346,3,3,3h23.209C37.075,46.656,37,47.324,37,48 c0,5.514,4.486,10,10,10s10-4.486,10-10C57,43.171,53.559,39.131,49,38.202z M47,12v26c-0.682,0-1.35,0.076-2,0.208V12H47z M9,40 V12h2v28H9z M13,43V9c0-0.552,0.449-1,1-1h28c0.551,0,1,0.448,1,1v29.838c-2.278,0.993-4.143,2.815-5.166,5.162H14 C13.449,44,13,43.552,13,43z M47,56c-4.411,0-8-3.589-8-8c0-0.871,0.139-1.728,0.413-2.545C40.507,42.192,43.556,40,47,40 c4.411,0,8,3.589,8,8S51.411,56,47,56z"/><linearGradient id="TnpXD0Xea8k95yxQVf05ie" x1="47" x2="47" y1="6.234" y2="59.374" gradientUnits="userSpaceOnUse"><stop offset="0" stop-color="#1a6dff"/><stop offset="1" stop-color="#c822ff"/></linearGradient><polygon fill="url(#TnpXD0Xea8k95yxQVf05ie)" points="48,44 46,44 46,47 43,47 43,49 46,49 46,52 48,52 48,49 51,49 51,47 48,47"/></g></svg>