<svg fill="#000000" xmlns="http://www.w3.org/2000/svg" viewBox="0 0 50 50" width="50px" height="50px"><path d="M 24.90625 1 C 24.796875 1.015625 24.691406 1.046875 24.59375 1.09375 L 4.8125 9.59375 C 4.40625 9.664063 4.085938 9.972656 4 10.375 C 4 10.394531 4 10.417969 4 10.4375 C 3.960938 10.613281 3.972656 10.796875 4.03125 10.96875 L 5.28125 30.4375 C 5.296875 30.734375 5.445313 31.011719 5.6875 31.1875 L 13.09375 36.5625 C 12.972656 37.152344 12.875 37.742188 12.875 38.375 C 12.875 44.308594 18.398438 49 25 49 C 31.601563 49 37.09375 44.308594 37.09375 38.375 C 37.09375 37.757813 36.992188 37.171875 36.875 36.59375 L 44.3125 31.1875 C 44.554688 31.011719 44.703125 30.734375 44.71875 30.4375 L 46 10.75 C 46.003906 10.6875 46.003906 10.625 46 10.5625 C 46 10.550781 46 10.542969 46 10.53125 C 46 10.511719 46 10.488281 46 10.46875 C 46 10.457031 46 10.449219 46 10.4375 C 45.964844 10.25 45.878906 10.078125 45.75 9.9375 C 45.75 9.925781 45.75 9.917969 45.75 9.90625 C 45.652344 9.8125 45.535156 9.734375 45.40625 9.6875 L 25.40625 1.09375 C 25.25 1.019531 25.078125 0.988281 24.90625 1 Z M 25 3.09375 L 42.78125 10.71875 L 25 20.84375 L 7.21875 10.71875 Z M 24.9375 5.375 C 24.894531 5.382813 24.851563 5.394531 24.8125 5.40625 C 24.738281 5.417969 24.664063 5.441406 24.59375 5.46875 L 13.8125 10.125 C 13.46875 10.277344 13.238281 10.609375 13.21875 10.988281 C 13.199219 11.363281 13.390625 11.71875 13.71875 11.90625 L 24.5 18.0625 C 24.808594 18.242188 25.191406 18.242188 25.5 18.0625 L 36.28125 11.90625 C 36.609375 11.71875 36.800781 11.363281 36.78125 10.988281 C 36.761719 10.609375 36.53125 10.277344 36.1875 10.125 L 25.40625 5.46875 C 25.289063 5.414063 25.160156 5.382813 25.03125 5.375 C 25 5.375 24.96875 5.375 24.9375 5.375 Z M 25 7.5 L 33.5625 11.15625 L 28.5 14.03125 L 26.375 12.78125 L 27.375 10.875 C 27.476563 10.695313 27.457031 10.472656 27.324219 10.3125 C 27.191406 10.152344 26.976563 10.089844 26.78125 10.15625 L 25.3125 10.65625 L 26.21875 9.59375 C 26.359375 9.417969 26.363281 9.171875 26.234375 8.988281 C 26.101563 8.808594 25.867188 8.734375 25.65625 8.8125 L 22.46875 10.125 L 23.5 9.15625 C 23.609375 9.046875 23.660156 8.894531 23.644531 8.742188 C 23.625 8.589844 23.539063 8.453125 23.40625 8.375 L 23.21875 8.25 Z M 22.15625 8.71875 L 22.34375 8.84375 L 19.8125 11.25 C 19.601563 11.40625 19.546875 11.695313 19.6875 11.917969 C 19.828125 12.136719 20.113281 12.214844 20.34375 12.09375 L 24.125 10.53125 L 23.34375 11.4375 C 23.164063 11.605469 23.136719 11.882813 23.277344 12.085938 C 23.417969 12.289063 23.683594 12.359375 23.90625 12.25 L 25.90625 11.53125 L 25.25 12.75 C 25.128906 12.984375 25.210938 13.269531 25.4375 13.40625 L 27.5 14.59375 L 25 16.03125 L 16.4375 11.15625 Z M 6.09375 12.375 L 24 22.5625 L 24 42.03125 L 7.25 29.84375 Z M 43.90625 12.375 L 42.75 29.84375 L 26 42.03125 L 26 22.5625 Z M 9.1875 16.6875 C 8.660156 16.753906 8.273438 17.21875 8.3125 17.75 L 9.09375 28.5 C 9.109375 28.796875 9.257813 29.074219 9.5 29.25 L 20.09375 36.8125 C 20.398438 37.039063 20.804688 37.070313 21.140625 36.898438 C 21.480469 36.726563 21.691406 36.378906 21.6875 36 L 21.4375 24.5625 C 21.4375 24.21875 21.257813 23.902344 20.96875 23.71875 L 9.84375 16.8125 C 9.644531 16.695313 9.414063 16.652344 9.1875 16.6875 Z M 39.9375 16.6875 C 39.804688 16.714844 39.675781 16.765625 39.5625 16.84375 L 28.5625 23.53125 C 28.273438 23.714844 28.09375 24.03125 28.09375 24.375 L 27.875 35.6875 C 27.859375 36.070313 28.066406 36.429688 28.40625 36.609375 C 28.746094 36.789063 29.160156 36.761719 29.46875 36.53125 L 39.8125 29.28125 C 40.066406 29.109375 40.226563 28.835938 40.25 28.53125 L 41.0625 17.78125 C 41.089844 17.496094 40.992188 17.210938 40.792969 17 C 40.597656 16.792969 40.320313 16.675781 40.03125 16.6875 C 40 16.6875 39.96875 16.6875 39.9375 16.6875 Z M 10.46875 19.5625 L 19.4375 25.15625 L 19.65625 34.03125 L 11.0625 27.90625 Z M 38.90625 19.59375 L 38.28125 27.9375 L 29.90625 33.75 L 30.0625 24.96875 Z M 14.90625 37.90625 L 24.40625 44.8125 C 24.757813 45.074219 25.242188 45.074219 25.59375 44.8125 L 35.0625 37.90625 C 35.074219 38.0625 35.09375 38.21875 35.09375 38.375 C 35.09375 43.0625 30.664063 47 25 47 C 19.335938 47 14.875 43.0625 14.875 38.375 C 14.875 38.214844 14.894531 38.0625 14.90625 37.90625 Z"/></svg>