<svg xmlns="http://www.w3.org/2000/svg" viewBox="0 0 128 128" width="50px" height="50px"><path fill="#FFF" d="M85,96H41c-5.5,0-10-4.5-10-10V42c0-5.5,4.5-10,10-10h44c5.5,0,10,4.5,10,10v44C95,91.5,90.5,96,85,96z"/><path fill="#F3797B" d="M67.4,56.1c-1.8,0-3.4,0.8-4.4,2.1c-1-1.3-2.6-2.1-4.4-2.1c-3.1,0-5.6,2.5-5.6,5.6c0,3.1,1.7,5.8,3.3,7.4c1.3,1.3,3.2,3.2,6.7,4.9c3.5-1.7,5.4-3.6,6.7-4.9c1.6-1.6,3.3-4.3,3.3-7.4C73,58.6,70.5,56.1,67.4,56.1z"/><path fill="#53C5CE" d="M77,10H49c-2.6,0-4.7,1.9-5,4.5L43,24c-0.3,3.2-2,6.1-4.5,8l0,0h49v0c-2.6-1.9-4.2-4.8-4.5-8l-1-9.6C81.7,11.9,79.6,10,77,10z"/><path fill="#FFF" d="M49,30c0.8-8,7.6-14,15.6-14h17.5L82,14.5c-0.3-2.5-2.4-4.5-5-4.5H49c-2.6,0-4.7,1.9-5,4.5L43,24c-0.3,3.2-2,6.1-4.5,8h10.1C48.8,31.4,49,30.7,49,30L49,30z"/><path fill="none" stroke="#454B54" stroke-linecap="round" stroke-linejoin="round" stroke-miterlimit="10" stroke-width="6" d="M87.5,32L87.5,32c-2.6-1.9-4.2-4.8-4.5-8l-1-9.6c-0.3-2.5-2.4-4.5-5-4.5H49c-2.6,0-4.7,1.9-5,4.5L43,24c-0.3,3.2-2,6.1-4.5,8l0,0"/><path fill="#22B6C6" d="M77,118H49c-2.6,0-4.7-1.9-5-4.5l-1-9.6c-0.3-3.2-2-6.1-4.5-8h0h49l0,0c-2.6,1.9-4.2,4.8-4.5,8l-1,9.6C81.7,116.1,79.6,118,77,118z"/><path fill="#1FA1A8" d="M43.7,110l0.4,3.5c0.3,2.5,2.4,4.5,5,4.5h28c2.6,0,4.7-1.9,5-4.5l0.4-3.5H43.7z"/><path fill="none" stroke="#454B54" stroke-linecap="round" stroke-linejoin="round" stroke-miterlimit="10" stroke-width="6" d="M77,118H49c-2.6,0-4.7-1.9-5-4.5l-1-9.6c-0.3-3.2-2-6.1-4.5-8h0h49l0,0c-2.6,1.9-4.2,4.8-4.5,8l-1,9.6C81.7,116.1,79.6,118,77,118z"/><path fill="none" stroke="#454B54" stroke-linecap="round" stroke-linejoin="round" stroke-miterlimit="10" stroke-width="6" d="M85,96H41c-5.5,0-10-4.5-10-10V42c0-5.5,4.5-10,10-10h44c5.5,0,10,4.5,10,10v44C95,91.5,90.5,96,85,96z"/></svg>