<?xml version="1.0"?><svg fill="#000000" xmlns="http://www.w3.org/2000/svg" viewBox="0 0 24 24" width="50px" height="50px">    <path d="M 11 1 L 11 4 L 8 4 L 8 6 L 11 6 L 11 9 L 13 9 L 13 6 L 16 6 L 16 4 L 13 4 L 13 1 L 11 1 z M 4.4140625 1.9960938 L 1.0039062 2.0136719 L 1.0136719 4.0136719 L 3.0859375 4.0039062 L 6.3789062 11.908203 L 5.1816406 13.822266 C 4.7806406 14.461266 4.7609531 15.269687 5.1269531 15.929688 C 5.4929531 16.589688 6.1864063 17 6.9414062 17 L 19 17 L 19 15 L 6.9414062 15 L 6.8769531 14.882812 L 8.0527344 13 L 15.521484 13 C 16.246484 13 16.915531 12.606656 17.269531 11.972656 L 21.382812 4.5664062 L 19.634766 3.5957031 L 15.521484 11 L 8.1660156 11 L 4.4140625 1.9960938 z M 7 18 A 2 2 0 0 0 5 20 A 2 2 0 0 0 7 22 A 2 2 0 0 0 9 20 A 2 2 0 0 0 7 18 z M 17 18 A 2 2 0 0 0 15 20 A 2 2 0 0 0 17 22 A 2 2 0 0 0 19 20 A 2 2 0 0 0 17 18 z"/></svg>