<svg xmlns="http://www.w3.org/2000/svg" viewBox="0 0 512 512" width="50px" height="50px"><path fill="#BCBCBC" d="M205.5 396.7c-10.5-.6-21-1.4-31.5-2.2-8.1-.7-16.3-1.4-24.4-2.2.4 1.7.7 3.5 1.1 5.2 2.6 12.6 4.8 25.3 5.5 38.1.1.4.2.9.2 1.4v2.7c9.6 1.6 19.4 2.1 28.7 2.7 10.3.6 20.7.9 31 1.1C211.1 428.3 207.9 412.6 205.5 396.7zM201 360c-1.7-16.1-3.7-32-4.7-48.1-8.9.1-17.8.3-26.7.5-11.9.2-23.9.3-35.8.1 2.4 13 5.2 26 7.6 39 1.8 9.9 3.8 19.8 5.8 29.6 18.9 1.8 37.8 3.3 56.7 4.6C202.8 377 201.9 368.5 201 360zM233 228c-33.1-.6-66.3-2.1-99.4-3.2-24-.8-47.9-.8-71.9-.8-.8.8-1.9 1.4-3.4 1.5-5.1.3-13 8.2-11.2 13.8 1.6 4.9 6.4 6.7 11.1 7.5 13.9 2.5 29 .4 43.1.2 43.6-.6 87.4-.1 130.9 1 19.8.5 39.6 1.2 59.4 1.8-.9-1.6-1.5-3.3-1.7-5.1-.7-6.4 3.1-12.3 8.8-15 2.7-1.3 6-1.6 8.9-.7.4.1.8.3 1.2.4.4-.5.8-1 1.1-1.4C284.2 228.3 258.6 228.5 233 228zM139.2 396.1c-.3-1.6-.7-3.3-1-4.9-2.8-.3-5.6-.6-8.3-.9-10.5-1.1-21-2.5-31.2-5.5 3.6 13.6 8.7 26.5 18.3 36.5 7.8 8.3 17.7 13.1 28.2 16C144.6 423.4 142.1 409.7 139.2 396.1zM289.3 260.7c-27.8-.6-55.7-1.4-83.5-1.9 0 14 .3 28 .9 42 6.5 0 12.9 0 19.4.1 16.2.3 32.3 1.7 48.5 2.2 5.1.1 10.2.2 15.3.2C289.2 289.1 288.7 274.9 289.3 260.7zM293.8 395.8c-7.6.6-15.3 1.1-23 1.5-18.1.9-36.1.7-54.1 0 2.1 13.5 4.9 26.8 8.8 39.8.1.1.2.2.3.4 1.6 1.9 2.1 4 2.3 6.3 17.3.1 34.7-.1 51.9-.2 2.5 0 5 0 7.5-.1 0-2.2 1.7-4 3.8-4.8C294.1 424.7 294.3 410.2 293.8 395.8z"/><path fill="#EF4823" d="M318.7,43.5c-10.9-4.6-22.1-8.9-33.7-11.3c-10.8-2.2-33.1-9.1-37.7,5.2c0.6,1.6,0.3,3.7-0.8,5.3c0.6,11.6,18.9,16.4,27.6,19.4c7.8,2.7,15.3,5.7,23.4,7.3c7.8,1.6,15.7,2.9,23.3,5.3c0.1-0.4,0.2-0.8,0.4-1.2c3.7-8,1.5-18.6,6.6-25.6C324.9,46.4,321.9,44.9,318.7,43.5z"/><path fill="#BCBCBC" d="M351.7 58.2c-1-1.4-2.5-2.8-4.2-3.8-2.8-.2-5.5-.7-8.1-1.6-1.9.6-3.4 2.1-4 5-1.1 4.9-1.3 10-2.4 14.9 1.6.7 2.9 2.1 3.2 4.3.1.6.9.5 2.3 0 3.1-1 6-2.5 8.6-4.5-1.8-1.3-3.6-2.8-5.1-4.5-4.6-5.2 2.6-13.6 7.3-8.3 1.4 1.5 2.9 2.8 4.5 4C353.8 61.8 352.8 59.7 351.7 58.2zM116.8 259.4c0-.6.1-1.1.2-1.6-13.6.1-27.2.5-40.7.8-5.6.1-11.4.2-17-.5 4.5 13.2 9.5 26.3 14.4 39.4.9-.4 2-.6 3.2-.4 14.5 2.3 29.2 3.6 43.8 4.1C118.5 287.4 116.9 273.5 116.8 259.4zM194.8 259.4c0-.3 0-.6.1-.9-22.4-.4-44.8-.7-67.1-.7 0 .2.1.5.1.8.1 14.5 1.8 28.7 4.1 42.9 21.3.3 42.6-.3 63.8-.6C195.1 287 194.8 273.2 194.8 259.4zM130.1 350.4c-2.4-12.7-5.1-25.4-7.5-38.2-15-.5-30-1.7-44.9-3.9 4.2 11.6 8.2 23.3 11.5 35.2 2.5 9.1 4.3 18.9 6.5 28.8.2.1.4.1.5.2 10.8 4.2 22.6 5.6 34.1 6.8 1.9.2 3.7.4 5.6.6C133.9 370.1 132 360.2 130.1 350.4zM292.3 359c-.2-14.9-1.1-29.8-1.9-44.7-8.3-.1-16.6-.3-24.9-.6-16-.7-32-1.9-48.1-1.9-3.4 0-6.8 0-10.1 0 1 15.3 2.9 30.5 4.5 45.8 1 9.5 2.1 19.2 3.3 28.8 2.6.2 5.2.3 7.8.5 23.4 1.3 46.9.1 70.4-1.9C292.9 376.2 292.4 367.5 292.3 359zM464.6 304.9c-7 .4-14 .2-21 0-1.6 0-3.2-.1-4.8-.1-1 7.3-2 14.6-3 21.8 10.9 1 21.7 3.3 31.3 8.2 4.1-11.1 8.3-22.3 11.9-33.5C474.8 304 469.4 304.7 464.6 304.9zM478.1 261.3c-10.8.6-21.8-.1-32.6-.2-2 10.9-3.7 21.8-5.2 32.8 3 .1 5.9.2 8.9.3 5.2.1 10.5.2 15.7-.2 2.8-.2 6.2-.4 8.4-2 3.2-2.4 6.6-.5 7.9 2.4 3.3-11.2 6-22.5 7.3-34.1C484.8 260.8 481.2 261.1 478.1 261.3zM399.5 261.6c-7.6.1-15.1.2-22.7.2 0 .4 0 .8-.1 1.2-2.4 12.1-3.9 24.3-5.1 36.6 16.2-1.4 32.3-3.3 48.4-5.4 3.1-.4 6.1-.6 9.2-.6 1.5-10.9 3.2-21.7 5.1-32.6C422.7 261.2 411.1 261.4 399.5 261.6zM497.5 230.2c-3.6-3-8.6-3.5-13-4.2-3-.5-6-1.1-8.8-2.1-.2 0-.5 0-.7 0-15.2 0-30.4.9-45.6 1.7-32.7 1.7-65.4 1.4-98.1 1.9-2.4 0-4.7.1-7.1.1-2.9 3.6-5.9 7.3-8.8 10.9 0 .5 0 1-.1 1.5 0 .1 0 .3 0 .4-.1 3.3-1 6.8-2.7 9.7 5.6.1 11.3.2 16.9.2 33 .2 65.9 0 98.8-.3 14.8-.1 29.8.7 44.6.3 7.5-.2 15.6-.5 22.5-3.8 2.4-1.1 5-3 5.4-5.8C501.3 237.6 500.1 232.4 497.5 230.2zM341.4 442.5c-.1-.3-.2-.6-.3-.9-.1-.2-.1-.3-.2-.5-6-15.7-6.2-32.2-5.6-49-10.3 1-20.6 1.9-30.8 2.8.6 16.2.7 32.5-2.8 48.3C314.9 443.1 328.2 442.9 341.4 442.5zM359.8 311.6c-19.4 1.5-38.9 2.4-58.3 2.6.9 15.9 1.8 31.9 1.8 47.8 0 7.3.3 14.6.7 21.9 5.7-.5 11.3-1 16.9-1.5 3.8-.3 7.6-.7 11.4-1.1 2.7-15.1 12.9-27.7 25.2-36.9h-.6C358.1 333.6 358.9 322.6 359.8 311.6zM370.5 310.7c-.8 9-1.5 17.9-2.2 26.9 7.1-4 14.7-7.3 22.6-9.1 9-2.1 18.2-2.4 27.4-2.5 2.1 0 4.2 0 6.4 0 1-7 2-14 3-21C408.5 305.9 389.6 308.9 370.5 310.7zM312.7 261.2c-4.2-.1-8.4-.2-12.5-.3-.5 14.1 0 28.2.7 42.3 7.6-.1 15.2-.2 22.9-.5 12.3-.5 24.7-1.2 37-2.2 1.1-13 2.6-25.9 5-38.7C348.1 261.8 330.4 261.5 312.7 261.2z"/><path fill="#FEBF10" d="M489.2,385.8c-2-11.2-6.8-23.7-14.9-31.9c-7.5-7.7-17.1-12.2-27.5-14.4c-10.9-2.3-21.9-2.7-33-2.3c-10.4,0.4-20.2,1.2-30,5.2c-15.6,6.3-34.7,19-39.9,36.4c1.6,0.6,2.8,2.1,2.7,4.5c-0.6,14.5-1.3,30.8,2,45.3h2.2v7.5c4,11.3,11,21,23.5,27.3c29.1,14.8,67.2,6.6,91.4-14.1C483.9,433.7,493.5,409.7,489.2,385.8z M459.6,402.8c-11.6,3.5-24.8,2.3-36.8,2.3h-35.9c-7.1,0-7.9-11-0.8-11h34c6.4,0,12.9-0.2,19.3-0.2c4.5,0,9.1,0.1,13.5-0.8c0.8-0.6,1.8-1,3.2-1h1.3C463.3,392.1,465.9,400.9,459.6,402.8z"/><path fill="#010101" d="M501,219.3c-7.6-4.7-17.4-3.1-25.3-7.2c-2.5-1.3-4.7-0.6-6.1,1c-30.2,0.2-60.3,2.9-90.5,3c-15.3,0.1-30.7,0.3-46,0.5c18.3-22.7,36.3-45.7,49.1-72.1c7.9-16.3,12.8-36.4,4.4-53.3c-3.9-7.8-10-14.3-17.4-18.9c-1.7-1-3.4-1.9-5.2-2.8c1-3.1,0.9-6.5,0.1-10.3c-2.3-10.6-13.5-18.4-24-17.4c-2.5-1.1-4.9-2.5-7.2-3.7c-5.7-3-11.8-5.3-17.7-7.7c-11.6-4.6-23.4-7.8-35.6-10.3c-8.8-1.8-17.6-3.3-26.4-1.1c-7.9,1.9-13.8,8.5-16.3,16c-14.6,2-25,14.8-32.7,27c-9.6,15.4-15.9,32.7-21.9,49.7c-9.5,27.1-18,54.7-28.8,81.3c-1.7,4.2-3.5,8.4-5.6,12.5c-0.3,0.7-0.7,1.3-1.1,2c-0.2,0.3-0.3,0.6-0.5,0.9c0,0,0,0,0,0.1c0,0.1-0.1,0.1-0.2,0.2c-0.1,0.2-0.3,0.3-0.4,0.5c-2.2,0.9-3.3,3-3.2,5.1c-19.6-0.6-39.3-1-59-1H57.3c-2.1,0-3.5,1-4.2,2.3c-8.7,2.8-15.8,11.8-17.1,20.5c-1.4,8.6,4.9,16,12.4,19.4c-0.6,1.1-0.7,2.5-0.2,4.1c9.9,29.4,22.2,58,30.7,87.9c7.7,26.9,9.5,56.2,27.7,78.8c16,20,42,24.7,66.2,26.6c30.7,2.4,61.8,1.9,92.6,1.9c27.2,0,54.4-0.4,81.6-1.3c12.3,19.1,35.2,27.7,57.3,28.6c24.1,1,49.2-8.1,67.6-23.3c18.8-15.5,29.4-38,29.4-62.3c0-20.1-8.8-42.5-24.8-55.3c6.4-17.5,13.3-34.8,18.1-52.9c2.7-10.1,4.5-20.5,5.3-31c0-0.1,0-0.2,0-0.2c6.5-2.9,11.5-7.7,12.1-15.5C512.5,232.6,508.4,223.9,501,219.3z M335.4,57.9c0.7-2.8,2.2-4.4,4-5c2.6,0.8,5.3,1.4,8.1,1.6c1.7,1,3.2,2.3,4.2,3.8c1.1,1.5,2.1,3.6,2.2,5.6c-1.6-1.1-3.2-2.4-4.5-4c-4.7-5.3-11.9,3-7.3,8.3c1.5,1.7,3.2,3.2,5.1,4.5c-2.6,2-5.5,3.5-8.6,4.5c-1.5,0.5-2.2,0.6-2.3,0c-0.3-2.2-1.6-3.6-3.2-4.3C334.1,67.9,334.3,62.8,335.4,57.9z M247.4,37.4c4.6-14.3,26.9-7.4,37.7-5.2c11.6,2.4,22.8,6.7,33.7,11.3c3.1,1.3,6.2,2.9,9.3,4.4c-5.2,7-3,17.6-6.6,25.6c-0.2,0.4-0.3,0.8-0.4,1.2c-7.6-2.4-15.5-3.7-23.3-5.3c-8.1-1.6-15.6-4.6-23.4-7.3c-8.7-3-27-7.8-27.6-19.4C247.7,41.1,248,39.1,247.4,37.4z M157.5,210.7c3.2-5.8,5.6-12,8-18.2c6.3-16.2,11.8-32.8,17.3-49.3c3.6-10.7,7.3-21.2,11.1-31.8c6.1-17.2,12.9-35.1,23.6-50c4.3-6,10.6-13.4,18.3-15.5c2.2,12.4,16.1,19.7,27.5,24c8,3,16.1,6.3,24.3,8.6c11.5,3.2,23.7,3.8,34.7,8.5c2.7,1.1,5.1,0.1,6.5-1.6c4.7,4.3,12.7,3.1,19.1-0.3c3.4-1.8,6.6-4,9.4-6.6c0.7,0.4,1.4,0.7,2.1,1.1c7.5,3.8,13.5,9,17.3,16.6c8,16.1-0.1,35.2-7.7,49.7c-13.4,25.9-31.9,48.4-50.3,71c-12.5,0.2-25,0.4-37.4,0.5c-42.1,0.4-84.1-1.5-126.1-2.8C156.1,213.2,156.9,211.9,157.5,210.7z M73.7,297.5c-4.9-13.1-9.9-26.2-14.4-39.4c5.6,0.7,11.4,0.6,17,0.5c13.6-0.3,27.2-0.7,40.7-0.8c-0.1,0.5-0.2,1-0.2,1.6c0.1,14.1,1.6,28,3.9,41.8c-14.7-0.6-29.3-1.8-43.8-4.1C75.6,296.9,74.6,297,73.7,297.5z M95.7,372.4c-2.1-9.9-3.9-19.8-6.5-28.8c-3.3-11.9-7.3-23.6-11.5-35.2c14.9,2.2,29.9,3.4,44.9,3.9c2.3,12.8,5.1,25.5,7.5,38.2c1.9,9.9,3.8,19.7,5.8,29.5c-1.8-0.2-3.7-0.4-5.6-0.6c-11.4-1.2-23.3-2.6-34.1-6.8C96.1,372.5,95.9,372.4,95.7,372.4z M195.7,300.8c-21.3,0.3-42.6,1-63.8,0.6c-2.3-14.2-4-28.4-4.1-42.9c0-0.3,0-0.5-0.1-0.8c22.4,0,44.8,0.3,67.1,0.7c0,0.3-0.1,0.6-0.1,0.9C194.8,273.2,195.1,287,195.7,300.8z M116.9,421.3c-9.5-10-14.6-22.9-18.3-36.5c10.1,3,20.7,4.4,31.2,5.5c2.8,0.3,5.6,0.6,8.3,0.9c0.3,1.6,0.7,3.3,1,4.9c2.9,13.6,5.4,27.3,6,41.3C134.6,434.4,124.8,429.6,116.9,421.3z M141.4,351.4c-2.4-13-5.2-26-7.6-39c11.9,0.2,23.9,0.1,35.8-0.1c8.9-0.2,17.8-0.3,26.7-0.5c1,16.1,3,32.1,4.7,48.1c0.9,8.5,1.8,17.1,3,25.6c-18.9-1.2-37.8-2.8-56.7-4.6C145.2,371.2,143.2,361.3,141.4,351.4z M185,442.4c-9.3-0.5-19.1-1.1-28.7-2.7V437c0-0.5-0.1-1-0.2-1.4c-0.6-12.8-2.9-25.5-5.5-38.1c-0.4-1.7-0.7-3.5-1.1-5.2c8.1,0.8,16.3,1.5,24.4,2.2c10.5,0.9,21,1.6,31.5,2.2c2.4,15.9,5.6,31.6,10.5,46.8C205.6,443.3,195.3,443,185,442.4z M289.9,303.2c-5.1,0-10.2-0.1-15.3-0.2c-16.2-0.4-32.3-1.9-48.5-2.2c-6.5-0.1-12.9-0.1-19.4-0.1c-0.6-14-0.9-28-0.9-42c27.8,0.6,55.7,1.3,83.5,1.9C288.7,274.9,289.2,289.1,289.9,303.2z M290.4,314.2c0.8,14.9,1.7,29.8,1.9,44.7c0.1,8.5,0.6,17.2,1,25.9c-23.4,1.9-47,3.2-70.4,1.9c-2.6-0.1-5.2-0.3-7.8-0.5c-1.3-9.6-2.3-19.2-3.3-28.8c-1.6-15.3-3.5-30.5-4.5-45.8c3.4,0,6.8,0,10.1,0c16.1,0,32,1.2,48.1,1.9C273.8,314,282.1,314.2,290.4,314.2z M291.4,438.6c-2.1,0.8-3.7,2.6-3.8,4.8c-2.5,0-5,0-7.5,0.1c-17.2,0.1-34.6,0.3-51.9,0.2c-0.2-2.3-0.8-4.4-2.3-6.3c-0.1-0.1-0.2-0.2-0.3-0.4c-4-13-6.7-26.3-8.8-39.8c18,0.8,36,0.9,54.1,0c7.7-0.4,15.3-0.9,23-1.5C294.3,410.2,294.1,424.7,291.4,438.6z M289.8,244.6c0.2,1.8,0.8,3.5,1.7,5.1c-19.8-0.6-39.6-1.3-59.4-1.8c-43.6-1-87.4-1.6-130.9-1c-14,0.2-29.1,2.2-43.1-0.2c-4.7-0.8-9.5-2.6-11.1-7.5c-1.8-5.5,6-13.4,11.2-13.8c1.5-0.1,2.6-0.7,3.4-1.5c24,0,48,0,71.9,0.8c33.1,1.1,66.3,2.6,99.4,3.2c25.6,0.5,51.2,0.2,76.8-0.1c-0.4,0.5-0.8,1-1.1,1.4c-0.4-0.2-0.8-0.3-1.2-0.4c-2.9-0.9-6.2-0.6-8.9,0.7C292.9,232.3,289.1,238.3,289.8,244.6z M300.2,260.9c4.2,0.1,8.4,0.2,12.5,0.3c17.7,0.4,35.3,0.6,53,0.6c-2.5,12.8-3.9,25.7-5,38.7c-12.3,1-24.6,1.7-37,2.2c-7.6,0.3-15.2,0.5-22.9,0.5C300.2,289.1,299.7,275,300.2,260.9z M359.8,311.6c-0.9,11-1.7,21.9-2.9,32.8h0.6c-12.3,9.1-22.5,21.8-25.2,36.9c-3.8,0.4-7.6,0.8-11.4,1.1c-5.6,0.5-11.3,1-16.9,1.5c-0.3-7.4-0.7-14.7-0.7-21.9c-0.1-16-1-31.9-1.8-47.8C320.9,314.1,340.4,313.1,359.8,311.6z M301.6,443.2c3.5-15.8,3.5-32,2.8-48.3c10.3-0.9,20.6-1.8,30.8-2.8c-0.6,16.8-0.4,33.3,5.6,49c0.1,0.2,0.1,0.3,0.2,0.5c0.1,0.3,0.2,0.6,0.3,0.9C328.2,442.9,314.9,443.1,301.6,443.2z M489.2,385.8c4.2,23.9-5.3,47.9-23.6,63.5c-24.2,20.7-62.3,28.8-91.4,14.1c-12.4-6.3-19.5-16-23.5-27.3v-7.5h-2.2c-3.3-14.5-2.6-30.8-2-45.3c0.1-2.4-1.1-3.8-2.7-4.5c5.2-17.3,24.3-30.1,39.9-36.4c9.8-3.9,19.6-4.8,30-5.2c11.1-0.4,22.1,0,33,2.3c10.4,2.2,20,6.8,27.5,14.4C482.4,362.1,487.2,374.6,489.2,385.8z M427.6,305.1c-1,7-1.9,14-3,21c-2.1,0-4.3-0.1-6.4,0c-9.2,0.1-18.4,0.4-27.4,2.5c-7.9,1.8-15.5,5.1-22.6,9.1c0.8-9,1.5-17.9,2.2-26.9C389.6,308.9,408.5,305.9,427.6,305.1z M371.5,299.6c1.2-12.3,2.8-24.5,5.1-36.6c0.1-0.4,0.1-0.8,0.1-1.2c7.6,0,15.1-0.1,22.7-0.2c11.6-0.2,23.2-0.4,34.8-0.5c-2,10.8-3.6,21.7-5.1,32.6c-3.1,0-6.2,0.2-9.2,0.6C403.9,296.3,387.7,298.2,371.5,299.6z M467,334.8c-9.6-4.9-20.4-7.2-31.3-8.2c1.1-7.3,2.1-14.5,3-21.8c1.6,0,3.2,0,4.8,0.1c7,0.2,14,0.4,21,0c4.8-0.3,10.2-0.9,14.3-3.6C475.3,312.6,471.1,323.7,467,334.8z M481.1,294.3c-1.3-2.8-4.7-4.7-7.9-2.4c-2.2,1.6-5.6,1.7-8.4,2c-5.2,0.5-10.5,0.3-15.7,0.2c-3-0.1-5.9-0.2-8.9-0.3c1.5-11,3.2-21.9,5.2-32.8c10.9,0.1,21.8,0.8,32.6,0.2c3.1-0.2,6.7-0.5,10.3-1.1C487.1,271.8,484.4,283.1,481.1,294.3z M500.8,240.9c-0.4,2.8-3,4.6-5.4,5.8c-6.9,3.2-15,3.6-22.5,3.8c-14.8,0.3-29.7-0.5-44.6-0.3c-33,0.3-65.9,0.6-98.8,0.3c-5.6,0-11.3-0.1-16.9-0.2c1.7-2.9,2.6-6.4,2.7-9.7c0-0.1,0-0.3,0-0.4c0-0.5,0.1-1,0.1-1.5c2.9-3.7,5.8-7.3,8.8-10.9c2.4,0,4.7-0.1,7.1-0.1c32.7-0.5,65.4-0.2,98.1-1.9c15.2-0.8,30.4-1.7,45.6-1.7c0.2,0,0.5,0,0.7,0c2.9,1,5.8,1.6,8.8,2.1c4.4,0.8,9.5,1.2,13,4.2C500.1,232.4,501.3,237.6,500.8,240.9z"/><path fill="#010101" d="M457.4,392.1H456c-1.3,0-2.4,0.4-3.2,1c-4.4,0.8-9,0.8-13.5,0.8c-6.4,0-12.9,0.2-19.3,0.2h-34c-7.1,0-6.2,11,0.8,11h35.9c12,0,25.2,1.2,36.8-2.3C465.9,400.9,463.3,392.1,457.4,392.1z"/></svg>