<svg fill="#000000" xmlns="http://www.w3.org/2000/svg" viewBox="0 0 24 24" width="300px" height="300px"><path d="M 7.3320312 3.0136719 C 7.0215081 2.985961 6.704705 2.9909586 6.3867188 3.0253906 C 5.1142052 3.1631804 3.8192344 3.7862344 2.8027344 4.8027344 C 0.76987065 6.8355981 0.30743399 9.982611 2.1640625 11.837891 C 2.7260303 12.399333 3.436943 12.671296 4.1757812 12.822266 C 4.1155994 13.215176 4 13.590738 4 14 C 4 18.406438 7.593562 22 12 22 C 16.406438 22 20 18.406438 20 14 C 20 13.590448 19.88626 13.215121 19.826172 12.822266 C 20.564555 12.670922 21.276055 12.398836 21.837891 11.837891 C 23.691581 9.9815011 23.230266 6.8357344 21.197266 4.8027344 C 19.164402 2.7698707 16.017389 2.307434 14.162109 4.1640625 C 13.600667 4.7260303 13.328704 5.436943 13.177734 6.1757812 C 12.784824 6.1155994 12.409262 6 12 6 C 11.590448 6 11.215121 6.1137401 10.822266 6.1738281 C 10.670737 5.4352596 10.398216 4.7234963 9.8359375 4.1621094 C 9.1402879 3.4670642 8.2636007 3.0968044 7.3320312 3.0136719 z M 7.0761719 5.0097656 C 7.6139939 5.0461001 8.0883225 5.2406663 8.4238281 5.5761719 L 8.4238281 5.578125 C 8.826645 5.9803066 9.0161817 6.5451833 8.9804688 7.2480469 L 8.9082031 8.6660156 L 10.267578 8.2558594 C 10.817569 8.0900026 11.397522 8 12 8 C 12.602478 8 13.181883 8.091191 13.732422 8.2578125 L 15.09375 8.6699219 L 15.021484 7.2480469 C 14.985044 6.5458246 15.172656 5.9796874 15.576172 5.5761719 L 15.578125 5.5761719 C 16.472846 4.6808004 18.358067 4.7916606 19.783203 6.2167969 C 21.208203 7.6417969 21.318137 9.5282173 20.423828 10.423828 C 20.020335 10.826681 19.454817 11.016182 18.751953 10.980469 L 17.333984 10.908203 L 17.744141 12.267578 C 17.909954 12.817573 18 13.397522 18 14 C 18 17.325562 15.325562 20 12 20 C 8.674438 20 6 17.325562 6 14 C 6 13.397522 6.091191 12.818117 6.2578125 12.267578 L 6.6699219 10.90625 L 5.2480469 10.978516 C 4.5458246 11.014956 3.9796874 10.827344 3.5761719 10.423828 L 3.5761719 10.421875 C 2.6808004 9.5271972 2.7916606 7.6419332 4.2167969 6.2167969 C 4.9292969 5.5042969 5.7580449 5.121054 6.5195312 5.0273438 C 6.7099029 5.0039163 6.8968979 4.9976541 7.0761719 5.0097656 z"/></svg>