<svg xmlns="http://www.w3.org/2000/svg" viewBox="0 0 30 30" width="50px" height="50px"><path fill="#f5ce85" d="M7.8,25.5c0.2-0.4,0.4-0.8,0.4-1.3c0-0.6-0.2-1.2-0.7-1.7c-0.4-0.4-1-0.7-1.7-0.7 c-0.5,0-0.9,0.1-1.3,0.4L1.2,19L19,1.2l3.3,3.3c-0.2,0.4-0.4,0.8-0.4,1.3c0,0.6,0.2,1.2,0.7,1.7c0.4,0.4,1,0.7,1.7,0.7 c0.5,0,0.9-0.1,1.3-0.4l3.3,3.3L11,28.8L7.8,25.5z"/><path fill="#967a44" d="M19,1.9l2.7,2.7c-0.5,1.1-0.3,2.3,0.6,3.2c0.5,0.5,1.3,0.8,2,0.8c0.4,0,0.8-0.1,1.2-0.3l2.7,2.7 l-17,17l-2.7-2.7c0.5-1.1,0.3-2.3-0.6-3.2c-0.5-0.5-1.3-0.8-2-0.8c-0.4,0-0.8,0.1-1.2,0.3L1.9,19L19,1.9 M19,0.5L0.5,19l4,4 c0.4-0.4,0.8-0.5,1.3-0.5s1,0.2,1.3,0.5c0.7,0.7,0.7,1.9,0,2.6l4,4L29.5,11l-4-4c-0.4,0.4-0.8,0.5-1.3,0.5c-0.5,0-1-0.2-1.3-0.5 c-0.7-0.7-0.7-1.9,0-2.6L19,0.5L19,0.5z"/><path fill="#bae0bd" d="M23 16.5A6.5 6.5 0 1 0 23 29.5A6.5 6.5 0 1 0 23 16.5Z"/><path fill="#5e9c76" d="M23,17c3.3,0,6,2.7,6,6s-2.7,6-6,6s-6-2.7-6-6S19.7,17,23,17 M23,16c-3.9,0-7,3.1-7,7s3.1,7,7,7 s7-3.1,7-7S26.9,16,23,16L23,16z"/><path fill="#fff" d="M22 19H24V27H22z"/><path fill="#fff" d="M19 22H27V24H19z"/></svg>