<svg fill="#000000" xmlns="http://www.w3.org/2000/svg" viewBox="0 0 16 16" width="100px" height="100px"><path d="M 1 1 L 1 2 L 3 2 C 3.214844 2 3.398438 2.140625 3.46875 2.34375 L 4.402344 10.671875 C 4.488281 11.429688 5.136719 12.003906 5.894531 12.003906 C 5.386719 12.058594 5 12.488281 5 13 C 5 13.550781 5.449219 14 6 14 C 6.550781 14 7 13.550781 7 13 C 7 12.488281 6.609375 12.058594 6.101563 12.003906 L 10.894531 12.003906 C 10.386719 12.058594 10 12.488281 10 13 C 10 13.550781 10.449219 14 11 14 C 11.550781 14 12 13.550781 12 13 C 12 12.488281 11.609375 12.058594 11.097656 12.003906 L 12 12.003906 L 12 11.003906 L 5.894531 11.003906 C 5.636719 11.003906 5.425781 10.820313 5.398438 10.5625 L 5.335938 10 L 11.679688 10 C 12.390625 10 13.011719 9.492188 13.152344 8.796875 L 14.109375 4 L 13 4 L 13 4.453125 L 12.171875 8.597656 C 12.121094 8.835938 11.921875 9 11.679688 9 L 5.21875 9 L 4.445313 2.101563 L 4.429688 2.054688 C 4.238281 1.429688 3.65625 1 3 1 Z M 8 2 L 8 4 L 6 4 L 6 5 L 8 5 L 8 7 L 9 7 L 9 5 L 11 5 L 11 4 L 9 4 L 9 2 Z"/></svg>