<svg xmlns="http://www.w3.org/2000/svg" viewBox="0 0 64 64" width="50px" height="50px"><linearGradient id="r6RPZ7uBvYaMs7FA6F3Dza" x1="31" x2="31" y1="4" y2="59" gradientUnits="userSpaceOnUse" spreadMethod="reflect"><stop offset="0" stop-color="#1a6dff"/><stop offset="1" stop-color="#c822ff"/></linearGradient><path fill="url(#r6RPZ7uBvYaMs7FA6F3Dza)" d="M53.999,15.245c-0.001-0.029-0.012-0.057-0.015-0.085c-0.006-0.047-0.012-0.093-0.025-0.138 c-0.012-0.042-0.028-0.082-0.045-0.122c-0.018-0.042-0.036-0.082-0.059-0.121c-0.023-0.039-0.049-0.073-0.077-0.109 c-0.027-0.034-0.055-0.067-0.086-0.098c-0.034-0.033-0.07-0.061-0.108-0.088c-0.021-0.015-0.038-0.035-0.06-0.049 c-0.016-0.01-0.034-0.013-0.05-0.022c-0.018-0.01-0.032-0.024-0.051-0.033l-22-10.286c-0.268-0.125-0.579-0.125-0.847,0l-22,10.286 c-0.018,0.009-0.033,0.023-0.05,0.033c-0.016,0.009-0.034,0.012-0.05,0.022c-0.022,0.014-0.039,0.034-0.06,0.049 c-0.038,0.028-0.075,0.056-0.108,0.088c-0.032,0.031-0.059,0.064-0.086,0.098c-0.028,0.035-0.054,0.07-0.077,0.109 c-0.023,0.039-0.041,0.079-0.059,0.121c-0.017,0.04-0.033,0.08-0.045,0.122c-0.012,0.045-0.019,0.091-0.025,0.138 c-0.004,0.029-0.014,0.056-0.015,0.085C8,15.261,8.005,15.275,8.005,15.291c0,0.016-0.005,0.031-0.004,0.046l1.158,22.856 c0.015,0.305,0.169,0.586,0.418,0.764l9.695,6.911c-0.024,0.053-0.06,0.097-0.075,0.155c-0.205,0.79-0.309,1.585-0.309,2.361 c0,5.854,5.43,10.616,12.105,10.616s12.105-4.763,12.105-10.616c0-0.771-0.103-1.561-0.305-2.35 c-0.015-0.059-0.052-0.104-0.076-0.157l9.707-6.92c0.249-0.178,0.403-0.459,0.418-0.764l1.158-22.856 c0.001-0.016-0.004-0.031-0.004-0.046C53.995,15.275,54,15.261,53.999,15.245z M31,6.104l19.829,9.271L31,26.706L11.171,15.375 L31,6.104z M10.091,17.062l10.188,5.822L30,28.438V51.06l-18.868-13.45L10.091,17.062z M41.097,48.384 c0,4.751-4.533,8.616-10.105,8.616s-10.105-3.865-10.105-8.616c0-0.417,0.053-0.843,0.13-1.272l9.402,6.703 c0.018,0.013,0.04,0.018,0.059,0.029c0.022,0.014,0.04,0.033,0.064,0.045c0.016,0.008,0.035,0.005,0.051,0.012 C30.723,53.96,30.86,54,31,54s0.277-0.04,0.407-0.099c0.016-0.007,0.035-0.004,0.051-0.012c0.024-0.012,0.042-0.031,0.064-0.045 c0.019-0.012,0.04-0.016,0.059-0.029l9.389-6.693C41.045,47.548,41.097,47.971,41.097,48.384z M50.868,37.609L32,51.06V28.438 l9.72-5.554l10.188-5.822L50.868,37.609z"/><linearGradient id="r6RPZ7uBvYaMs7FA6F3Dzb" x1="31" x2="31" y1="9" y2="23" gradientUnits="userSpaceOnUse" spreadMethod="reflect"><stop offset="0" stop-color="#6dc7ff"/><stop offset="1" stop-color="#e6abff"/></linearGradient><path fill="url(#r6RPZ7uBvYaMs7FA6F3Dzb)" d="M45 15.3L31 23 17 15.3 31 9z"/><linearGradient id="r6RPZ7uBvYaMs7FA6F3Dzc" x1="42" x2="42" y1="21" y2="46.59" gradientUnits="userSpaceOnUse" spreadMethod="reflect"><stop offset="0" stop-color="#6dc7ff"/><stop offset="1" stop-color="#e6abff"/></linearGradient><path fill="url(#r6RPZ7uBvYaMs7FA6F3Dzc)" d="M50 21L49.24 35.81 34 46.59 34 30.07z"/><linearGradient id="r6RPZ7uBvYaMs7FA6F3Dzd" x1="20" x2="20" y1="21" y2="46.59" gradientUnits="userSpaceOnUse" spreadMethod="reflect"><stop offset="0" stop-color="#6dc7ff"/><stop offset="1" stop-color="#e6abff"/></linearGradient><path fill="url(#r6RPZ7uBvYaMs7FA6F3Dzd)" d="M28 30.07L28 46.59 12.76 35.81 12 21z"/></svg>