<svg xmlns="http://www.w3.org/2000/svg" viewBox="0 0 30 30" width="100px" height="100px"><path fill="#8bb7f0" d="M1.5,26.5c0.3-3.9,3.5-7,7.5-7h6c4,0,7.2,3.1,7.5,7H1.5z"/><path fill="#4e7ab5" d="M15,20c3.5,0,6.4,2.6,6.9,6H2.1c0.5-3.4,3.4-6,6.9-6H15 M15,19H9c-4.4,0-8,3.6-8,8h22 C23,22.6,19.4,19,15,19L15,19z"/><path fill="#deb974" d="M12,21.5c-2.3,0-3.1-1.3-3.2-1.6v-3.8h6.4v3.8C15.1,20.2,14.3,21.5,12,21.5z"/><path fill="#967a44" d="M14.7,16.6v3.2C14.5,20.1,13.8,21,12,21c-1.8,0-2.5-0.9-2.7-1.2v-3.2L14.7,16.6 M15.7,15.6H8.3V20 c0,0,0.7,2,3.7,2s3.7-2,3.7-2V15.6L15.7,15.6z"/><path fill="#e8d47b" d="M17,13.5c-0.8,0-1.5-0.6-1.5-1.4s0.7-1.4,1.5-1.4c1.5,0,1.5,0.4,1.5,0.7 C18.5,12.4,17.7,13.5,17,13.5z M7,13.5c-0.7,0-1.5-1.1-1.5-2c0-0.3,0-0.7,1.5-0.7c0.8,0,1.5,0.6,1.5,1.4S7.8,13.5,7,13.5z"/><path fill="#ba9b48" d="M17,11.3c0.8,0,1,0.1,1,0.1l0,0c0,0,0,0,0,0.1c0,0.6-0.6,1.5-1,1.5c-0.6,0-1-0.4-1-0.9 S16.4,11.3,17,11.3 M7,11.3c0.6,0,1,0.4,1,0.9S7.6,13,7,13c-0.4,0-1-0.9-1-1.5c0-0.1,0-0.1,0-0.1C6,11.4,6.3,11.3,7,11.3 M17,10.3 c-1.1,0-2,0.8-2,1.9s0.9,1.9,2,1.9s2-1.5,2-2.5C19,10.5,18.1,10.3,17,10.3L17,10.3z M7,10.3c-1.1,0-2,0.2-2,1.2S5.9,14,7,14 s2-0.8,2-1.9S8.1,10.3,7,10.3L7,10.3z"/><path fill="#f5ce85" d="M12,18.5c-0.4,0-0.7-0.2-1-0.5l-0.1-0.1l-0.2,0c-2.4-0.5-4.2-2.7-4.2-5.2V6.6c0-1.2,1-2.3,2.3-2.3 h6.5c1.2,0,2.3,1,2.3,2.3v6.2c0,2.5-1.8,4.7-4.2,5.2l-0.2,0L13,18C12.7,18.3,12.4,18.5,12,18.5z"/><path fill="#967a44" d="M15.2,4.8c1,0,1.8,0.8,1.8,1.8v6.2c0,2.3-1.6,4.2-3.8,4.7l-0.3,0.1l-0.2,0.2 C12.5,17.8,12.3,18,12,18s-0.5-0.2-0.6-0.3l-0.2-0.2l-0.3-0.1C8.6,17,7,15,7,12.7V6.6c0-1,0.8-1.8,1.8-1.8L15.2,4.8 M15.2,3.8H8.8 C7.2,3.8,6,5,6,6.6v6.2c0,2.8,2,5.1,4.6,5.7C11,18.8,11.5,19,12,19s1-0.2,1.4-0.6c2.6-0.5,4.6-2.9,4.6-5.7V6.6 C18,5,16.8,3.8,15.2,3.8L15.2,3.8z"/><g><path fill="#a6714e" d="M17.4,17.8c-1.1,0-2-0.4-2.6-0.7c0.7-0.6,1.6-2,1.6-4.2v-2.5c0-1.8-1.4-3-1.5-3L14.6,7l-0.3,0.5 c0,0.1-1.2,2-4.4,2.5c-1.7,0.2-2.4,0.4-2.4,2.6v0.3c0,2.2,0.9,3.6,1.6,4.2c-0.6,0.3-1.6,0.7-2.5,0.7c-1.2,0-2.5-0.6-3.2-0.9 C4,16.3,5,15.1,5,13.6c0-0.7-0.1-1.2-0.2-1.7c-0.1-0.6-0.3-1.1-0.3-2c0-5.4,3.5-8.3,6.8-8.3c2.5,0,3.6,1.7,3.6,1.8l0.1,0.2l0.3,0 c2,0,4.1,1.5,4.1,4.9c0,1.1-0.1,2-0.3,2.8c-0.1,0.8-0.2,1.5-0.2,2.3c0,1.4,1,2.3,1.7,2.8C20,16.9,18.8,17.8,17.4,17.8z"/><path fill="#7a4f34" d="M11.3,2c2.2,0,3.2,1.5,3.2,1.6L14.8,4h0.6C17.2,4,19,5.4,19,8.5c0,1.1-0.1,1.9-0.3,2.8 c-0.1,0.8-0.2,1.5-0.2,2.3c0,1.3,0.7,2.2,1.4,2.8c-0.6,0.5-1.5,0.9-2.4,0.9c-0.7,0-1.3-0.2-1.8-0.4c0.6-0.8,1.3-2.1,1.3-4.1v-2.5 c0-2.1-1.6-3.4-1.7-3.4l-0.9-0.7l-0.6,1c0,0.1-1.1,1.8-4,2.2C8.1,9.8,7,10.1,7,12.6v0.2v0.1c0,1.9,0.6,3.2,1.3,4 c-0.5,0.2-1.1,0.4-1.7,0.4c-0.8,0-1.7-0.3-2.4-0.6c0.6-0.7,1.3-1.8,1.3-3.2c0-0.8-0.1-1.3-0.3-1.8C5.1,11.2,5,10.7,5,9.8 C5,4.7,8.3,2,11.3,2 M11.3,1C7.5,1,4,4.5,4,9.8c0,1.8,0.5,2.4,0.5,3.7c0,2-2,3.4-2,3.4s2.1,1.4,4.1,1.4c1.7,0,3.4-1.1,3.4-1.1 S8,16,8,12.9c0-0.1,0-0.1,0-0.1v0.1c0,0,0-0.1,0-0.3c0-1.8,0.5-1.9,2-2.1c3.5-0.5,4.8-2.7,4.8-2.7s1.3,1,1.3,2.7 c0,0.8,0,1.2,0,2.5c0,3.1-2,4.3-2,4.3s1.4,1.1,3.4,1.1c2.2,0,4.1-2,4.1-2s-2-0.9-2-2.7c0-1.6,0.5-3,0.5-5.1C20,4.9,17.8,3,15.4,3 C15.4,3,14.2,1,11.3,1L11.3,1z"/></g><g><path fill="#bae0bd" d="M23 16.5A6.5 6.5 0 1 0 23 29.5A6.5 6.5 0 1 0 23 16.5Z"/><path fill="#5e9c76" d="M23,17c3.3,0,6,2.7,6,6s-2.7,6-6,6s-6-2.7-6-6S19.7,17,23,17 M23,16c-3.9,0-7,3.1-7,7s3.1,7,7,7 s7-3.1,7-7S26.9,16,23,16L23,16z"/></g><path fill="#fff" d="M22 19H24V27H22z"/><path fill="#fff" d="M19 22H27V24H19z"/></svg>