<svg xmlns="http://www.w3.org/2000/svg" viewBox="0 0 512 512" width="50px" height="50px"><path fill="#F4EEEB" d="M7.9,256C7.9,119,119,7.9,256,7.9C393,7.9,504.1,119,504.1,256c0,137-111.1,248.1-248.1,248.1C119,504.1,7.9,393,7.9,256z"/><path fill="#007883" d="M334.2 361.7L320.2 354.1 320.6 128.8 334.6 136.4z"/><path fill="#00ADBB" d="M334.6 136.4L320.6 128.8 368.8 122 382.8 129.6z"/><path fill="#00BAD3" d="M382.8 129.6L382.4 354.9 334.2 361.7 334.6 136.4z"/><path fill="#007883" d="M270.5 371.1L256.5 363.5 257 180.7 270.9 188.3z"/><path fill="#00ADBB" d="M270.9 188.3L257 180.7 305.1 173.9 319.1 181.5z"/><path fill="#00BAD3" d="M319.1 181.5L318.7 364.3 270.5 371.1 270.9 188.3z"/><g><path fill="#007883" d="M206.9 380.5L192.9 372.9 193.3 242 207.3 249.6z"/><path fill="#00ADBB" d="M207.3 249.6L193.3 242 241.5 235.2 255.4 242.8z"/><path fill="#00BAD3" d="M255.4 242.8L255 373.8 206.9 380.5 207.3 249.6z"/></g><g><path fill="#007883" d="M143.2 390L129.2 382.4 129.6 300.9 143.6 308.5z"/><path fill="#00ADBB" d="M143.6 308.5L129.6 300.9 177.8 294.2 191.8 301.8z"/><path fill="#00BAD3" d="M191.8 301.8L191.4 383.2 143.2 390 143.6 308.5z"/></g></svg>