<svg xmlns="http://www.w3.org/2000/svg" viewBox="0 0 16 16" width="50px" height="50px"><path fill="#66798f" d="M16,5.704h-1V5.242C14.257,4.137,13.192,3,12.719,3C12.212,3,12,3.139,12,4h-1 c0-1.327,0.578-2,1.719-2c1.267,0,2.77,2.157,3.2,2.819L16,4.943V5.704z"/><path fill="#e1ebf2" d="M15.5,5.5h-15v6c0,0,0.146,0,0.326,0h5.467c0.247,0,0.473-0.161,0.583-0.415l0.652-2.203 C7.626,8.659,7.813,8.547,8,8.547s0.374,0.113,0.471,0.335l0.652,2.203C9.234,11.339,9.461,11.5,9.707,11.5h5.467 c0.18,0,0.326,0,0.326,0V5.5z"/><path fill="#788b9c" d="M16,12H9.707c-0.443,0-0.852-0.28-1.042-0.713l-0.67-2.251L7.352,11.24 C7.145,11.72,6.736,12,6.293,12H0V5h16V12z M8,8.047c0.403,0,0.76,0.243,0.93,0.636l0.669,2.249C9.616,10.964,9.671,11,9.707,11H15 V6H1v5h5.293c0.044,0,0.096-0.047,0.125-0.114l0.635-2.158C7.24,8.29,7.597,8.047,8,8.047z"/><path fill="#4e7ab5" d="M5.601,7c0.324,0,0.466,0.341,0.37,0.677C5.759,8.414,5.516,9.52,5.349,9.778 C5.295,9.913,5.173,10,5.038,10H2.251C2.113,10,2,9.877,2,9.727V7.29C2,7.13,2.119,7,2.266,7h2.861H5.601z"/><path fill="#c74343" d="M11.071,9.5c-0.117-0.275-0.259-0.825-0.358-1.203c-0.068-0.264-0.137-0.528-0.203-0.757 c-0.004-0.015-0.007-0.028-0.008-0.04H13.5v2H11.071z"/><path fill="#c74343" d="M13,8v1h-1.578c-0.072-0.243-0.159-0.577-0.224-0.828C11.183,8.115,11.168,8.057,11.153,8H13 M13.734,7h-2.861h-0.474c-0.324,0-0.466,0.341-0.37,0.677c0.211,0.736,0.455,1.843,0.622,2.101C10.705,9.913,10.827,10,10.962,10 h2.787C13.887,10,14,9.877,14,9.727V7.29C14,7.13,13.881,7,13.734,7L13.734,7z"/><g><path fill="#66798f" d="M1,5.704H0V4.943l0.081-0.124C0.512,4.157,2.015,2,3.281,2C4.422,2,5,2.673,5,4H4 c0-0.861-0.212-1-0.719-1C2.808,3,1.743,4.137,1,5.242V5.704z"/></g></svg>