<?xml version="1.0"?><svg fill="#000000" xmlns="http://www.w3.org/2000/svg" viewBox="0 0 24 24" width="100px" height="100px">    <path d="M 9 2 C 7.897 2 7 2.897 7 4 L 7 20 C 7 21.103 7.897 22 9 22 L 15 22 C 16.103 22 17 21.103 17 20 L 17 19 C 13.134 19 10 15.866 10 12 C 10 8.134 13.134 5 17 5 L 17 4 C 17 2.897 16.103 2 15 2 L 9 2 z M 17 7 C 14.239 7 12 9.239 12 12 C 12 14.761 14.239 17 17 17 C 19.761 17 22 14.761 22 12 C 22 9.239 19.761 7 17 7 z M 17 9 C 17.552 9 18 9.448 18 10 L 18 11 L 19 11 C 19.552 11 20 11.448 20 12 C 20 12.552 19.552 13 19 13 L 18 13 L 18 14 C 18 14.552 17.552 15 17 15 C 16.448 15 16 14.552 16 14 L 16 13 L 15 13 C 14.448 13 14 12.552 14 12 C 14 11.448 14.448 11 15 11 L 16 11 L 16 10 C 16 9.448 16.448 9 17 9 z"/></svg>