<svg fill="#000000" xmlns="http://www.w3.org/2000/svg" viewBox="0 0 50 50" width="50px" height="50px"><path d="M 0.8125 0 C 0.78125 0.0078125 0.75 0.0195313 0.71875 0.03125 C 0.6875 0.0390625 0.65625 0.0507813 0.625 0.0625 C 0.59375 0.0703125 0.5625 0.0820313 0.53125 0.09375 C 0.519531 0.105469 0.511719 0.113281 0.5 0.125 C 0.480469 0.132813 0.457031 0.144531 0.4375 0.15625 C 0.425781 0.167969 0.417969 0.175781 0.40625 0.1875 C 0.386719 0.195313 0.363281 0.207031 0.34375 0.21875 C 0.34375 0.230469 0.34375 0.238281 0.34375 0.25 C 0.324219 0.257813 0.300781 0.269531 0.28125 0.28125 C 0.269531 0.292969 0.261719 0.300781 0.25 0.3125 C 0.238281 0.324219 0.230469 0.332031 0.21875 0.34375 C 0.207031 0.363281 0.195313 0.386719 0.1875 0.40625 C 0.175781 0.417969 0.167969 0.425781 0.15625 0.4375 C 0.15625 0.449219 0.15625 0.457031 0.15625 0.46875 C 0.132813 0.488281 0.113281 0.507813 0.09375 0.53125 C 0.09375 0.542969 0.09375 0.550781 0.09375 0.5625 C 0.0820313 0.574219 0.0742188 0.582031 0.0625 0.59375 C 0.0625 0.613281 0.0625 0.636719 0.0625 0.65625 C 0.0507813 0.667969 0.0429688 0.675781 0.03125 0.6875 C 0.03125 0.707031 0.03125 0.730469 0.03125 0.75 C 0.0195313 0.761719 0.0117188 0.769531 0 0.78125 C 0 0.800781 0 0.824219 0 0.84375 C -0.0195313 0.957031 -0.0195313 1.074219 0 1.1875 L 0 35 C 0 35.242188 0.0898438 35.476563 0.25 35.65625 L 12.1875 49.5625 L 12.25 49.65625 C 12.269531 49.679688 12.289063 49.699219 12.3125 49.71875 C 12.332031 49.742188 12.351563 49.761719 12.375 49.78125 C 12.40625 49.804688 12.4375 49.824219 12.46875 49.84375 C 12.488281 49.867188 12.507813 49.886719 12.53125 49.90625 C 12.542969 49.90625 12.550781 49.90625 12.5625 49.90625 C 12.582031 49.917969 12.605469 49.929688 12.625 49.9375 C 12.636719 49.9375 12.644531 49.9375 12.65625 49.9375 C 12.675781 49.949219 12.699219 49.960938 12.71875 49.96875 C 12.730469 49.96875 12.738281 49.96875 12.75 49.96875 C 12.8125 49.984375 12.875 49.996094 12.9375 50 C 12.980469 50.003906 13.019531 50.003906 13.0625 50 L 49 50 C 49.550781 50 50 49.550781 50 49 L 50 13.0625 C 50 13.042969 50 13.019531 50 13 C 50 12.988281 50 12.980469 50 12.96875 C 50 12.949219 50 12.925781 50 12.90625 C 50 12.894531 50 12.886719 50 12.875 C 49.992188 12.855469 49.980469 12.832031 49.96875 12.8125 C 49.96875 12.800781 49.96875 12.792969 49.96875 12.78125 C 49.960938 12.75 49.949219 12.71875 49.9375 12.6875 C 49.9375 12.675781 49.9375 12.667969 49.9375 12.65625 C 49.925781 12.644531 49.917969 12.636719 49.90625 12.625 C 49.90625 12.613281 49.90625 12.605469 49.90625 12.59375 C 49.886719 12.550781 49.867188 12.507813 49.84375 12.46875 C 49.835938 12.449219 49.824219 12.425781 49.8125 12.40625 C 49.765625 12.347656 49.714844 12.296875 49.65625 12.25 L 49.59375 12.1875 C 49.554688 12.152344 49.511719 12.121094 49.46875 12.09375 L 35.65625 0.25 C 35.476563 0.0898438 35.242188 0 35 0 L 1.09375 0 C 1.03125 -0.0078125 0.96875 -0.0078125 0.90625 0 C 0.875 0 0.84375 0 0.8125 0 Z M 3.4375 2 L 34.625 2 L 46.3125 12 L 13.4375 12 Z M 2 3.4375 L 12 13.4375 L 12 46.3125 L 2 34.625 Z M 14 14 C 14 14.550781 14.449219 15 15 15 C 15.550781 15 16 14.550781 16 14 L 20 14 C 20 14.550781 20.449219 15 21 15 C 21.550781 15 22 14.550781 22 14 L 26 14 C 26 14.550781 26.449219 15 27 15 C 27.550781 15 28 14.550781 28 14 L 32 14 C 32 14.550781 32.449219 15 33 15 C 33.550781 15 34 14.550781 34 14 L 38 14 C 38 14.550781 38.449219 15 39 15 C 39.550781 15 40 14.550781 40 14 L 44 14 C 44 14.550781 44.449219 15 45 15 C 45.550781 15 46 14.550781 46 14 L 48 14 L 48 16 C 47.449219 16 47 16.449219 47 17 C 47 17.550781 47.449219 18 48 18 L 48 22 C 47.449219 22 47 22.449219 47 23 C 47 23.550781 47.449219 24 48 24 L 48 28 C 47.449219 28 47 28.449219 47 29 C 47 29.550781 47.449219 30 48 30 L 48 34 C 47.449219 34 47 34.449219 47 35 C 47 35.550781 47.449219 36 48 36 L 48 40 C 47.449219 40 47 40.449219 47 41 C 47 41.550781 47.449219 42 48 42 L 48 46 C 47.449219 46 47 46.449219 47 47 C 47 47.550781 47.449219 48 48 48 L 14 48 Z M 14 20 C 14 20.550781 14.449219 21 15 21 C 15.550781 21 16 20.550781 16 20 C 16 19.449219 15.550781 19 15 19 C 14.449219 19 14 19.449219 14 20 Z M 14 26 C 14 26.550781 14.449219 27 15 27 C 15.550781 27 16 26.550781 16 26 C 16 25.449219 15.550781 25 15 25 C 14.449219 25 14 25.449219 14 26 Z M 14 32 C 14 32.550781 14.449219 33 15 33 C 15.550781 33 16 32.550781 16 32 C 16 31.449219 15.550781 31 15 31 C 14.449219 31 14 31.449219 14 32 Z M 14 38 C 14 38.550781 14.449219 39 15 39 C 15.550781 39 16 38.550781 16 38 C 16 37.449219 15.550781 37 15 37 C 14.449219 37 14 37.449219 14 38 Z M 14 44 C 14 44.550781 14.449219 45 15 45 C 15.550781 45 16 44.550781 16 44 C 16 43.449219 15.550781 43 15 43 C 14.449219 43 14 43.449219 14 44 Z M 18 48 C 18.550781 48 19 47.550781 19 47 C 19 46.449219 18.550781 46 18 46 C 17.449219 46 17 46.449219 17 47 C 17 47.550781 17.449219 48 18 48 Z M 24 48 C 24.550781 48 25 47.550781 25 47 C 25 46.449219 24.550781 46 24 46 C 23.449219 46 23 46.449219 23 47 C 23 47.550781 23.449219 48 24 48 Z M 30 48 C 30.550781 48 31 47.550781 31 47 C 31 46.449219 30.550781 46 30 46 C 29.449219 46 29 46.449219 29 47 C 29 47.550781 29.449219 48 30 48 Z M 36 48 C 36.550781 48 37 47.550781 37 47 C 37 46.449219 36.550781 46 36 46 C 35.449219 46 35 46.449219 35 47 C 35 47.550781 35.449219 48 36 48 Z M 42 48 C 42.550781 48 43 47.550781 43 47 C 43 46.449219 42.550781 46 42 46 C 41.449219 46 41 46.449219 41 47 C 41 47.550781 41.449219 48 42 48 Z M 18 16 C 17.449219 16 17 16.449219 17 17 C 17 17.550781 17.449219 18 18 18 C 18.550781 18 19 17.550781 19 17 C 19 16.449219 18.550781 16 18 16 Z M 24 16 C 23.449219 16 23 16.449219 23 17 C 23 17.550781 23.449219 18 24 18 C 24.550781 18 25 17.550781 25 17 C 25 16.449219 24.550781 16 24 16 Z M 30 16 C 29.449219 16 29 16.449219 29 17 C 29 17.550781 29.449219 18 30 18 C 30.550781 18 31 17.550781 31 17 C 31 16.449219 30.550781 16 30 16 Z M 36 16 C 35.449219 16 35 16.449219 35 17 C 35 17.550781 35.449219 18 36 18 C 36.550781 18 37 17.550781 37 17 C 37 16.449219 36.550781 16 36 16 Z M 42 16 C 41.449219 16 41 16.449219 41 17 C 41 17.550781 41.449219 18 42 18 C 42.550781 18 43 17.550781 43 17 C 43 16.449219 42.550781 16 42 16 Z M 21 19 C 20.449219 19 20 19.449219 20 20 C 20 20.550781 20.449219 21 21 21 C 21.550781 21 22 20.550781 22 20 C 22 19.449219 21.550781 19 21 19 Z M 27 19 C 26.449219 19 26 19.449219 26 20 C 26 20.550781 26.449219 21 27 21 C 27.550781 21 28 20.550781 28 20 C 28 19.449219 27.550781 19 27 19 Z M 33 19 C 32.449219 19 32 19.449219 32 20 C 32 20.550781 32.449219 21 33 21 C 33.550781 21 34 20.550781 34 20 C 34 19.449219 33.550781 19 33 19 Z M 39 19 C 38.449219 19 38 19.449219 38 20 C 38 20.550781 38.449219 21 39 21 C 39.550781 21 40 20.550781 40 20 C 40 19.449219 39.550781 19 39 19 Z M 45 19 C 44.449219 19 44 19.449219 44 20 C 44 20.550781 44.449219 21 45 21 C 45.550781 21 46 20.550781 46 20 C 46 19.449219 45.550781 19 45 19 Z M 18 22 C 17.449219 22 17 22.449219 17 23 C 17 23.550781 17.449219 24 18 24 C 18.550781 24 19 23.550781 19 23 C 19 22.449219 18.550781 22 18 22 Z M 24 22 C 23.449219 22 23 22.449219 23 23 C 23 23.550781 23.449219 24 24 24 C 24.550781 24 25 23.550781 25 23 C 25 22.449219 24.550781 22 24 22 Z M 30 22 C 29.449219 22 29 22.449219 29 23 C 29 23.550781 29.449219 24 30 24 C 30.550781 24 31 23.550781 31 23 C 31 22.449219 30.550781 22 30 22 Z M 36 22 C 35.449219 22 35 22.449219 35 23 C 35 23.550781 35.449219 24 36 24 C 36.550781 24 37 23.550781 37 23 C 37 22.449219 36.550781 22 36 22 Z M 42 22 C 41.449219 22 41 22.449219 41 23 C 41 23.550781 41.449219 24 42 24 C 42.550781 24 43 23.550781 43 23 C 43 22.449219 42.550781 22 42 22 Z M 21 25 C 20.449219 25 20 25.449219 20 26 C 20 26.550781 20.449219 27 21 27 C 21.550781 27 22 26.550781 22 26 C 22 25.449219 21.550781 25 21 25 Z M 27 25 C 26.449219 25 26 25.449219 26 26 C 26 26.550781 26.449219 27 27 27 C 27.550781 27 28 26.550781 28 26 C 28 25.449219 27.550781 25 27 25 Z M 33 25 C 32.449219 25 32 25.449219 32 26 C 32 26.550781 32.449219 27 33 27 C 33.550781 27 34 26.550781 34 26 C 34 25.449219 33.550781 25 33 25 Z M 39 25 C 38.449219 25 38 25.449219 38 26 C 38 26.550781 38.449219 27 39 27 C 39.550781 27 40 26.550781 40 26 C 40 25.449219 39.550781 25 39 25 Z M 45 25 C 44.449219 25 44 25.449219 44 26 C 44 26.550781 44.449219 27 45 27 C 45.550781 27 46 26.550781 46 26 C 46 25.449219 45.550781 25 45 25 Z M 18 28 C 17.449219 28 17 28.449219 17 29 C 17 29.550781 17.449219 30 18 30 C 18.550781 30 19 29.550781 19 29 C 19 28.449219 18.550781 28 18 28 Z M 24 28 C 23.449219 28 23 28.449219 23 29 C 23 29.550781 23.449219 30 24 30 C 24.550781 30 25 29.550781 25 29 C 25 28.449219 24.550781 28 24 28 Z M 30 28 C 29.449219 28 29 28.449219 29 29 C 29 29.550781 29.449219 30 30 30 C 30.550781 30 31 29.550781 31 29 C 31 28.449219 30.550781 28 30 28 Z M 36 28 C 35.449219 28 35 28.449219 35 29 C 35 29.550781 35.449219 30 36 30 C 36.550781 30 37 29.550781 37 29 C 37 28.449219 36.550781 28 36 28 Z M 42 28 C 41.449219 28 41 28.449219 41 29 C 41 29.550781 41.449219 30 42 30 C 42.550781 30 43 29.550781 43 29 C 43 28.449219 42.550781 28 42 28 Z M 21 31 C 20.449219 31 20 31.449219 20 32 C 20 32.550781 20.449219 33 21 33 C 21.550781 33 22 32.550781 22 32 C 22 31.449219 21.550781 31 21 31 Z M 27 31 C 26.449219 31 26 31.449219 26 32 C 26 32.550781 26.449219 33 27 33 C 27.550781 33 28 32.550781 28 32 C 28 31.449219 27.550781 31 27 31 Z M 33 31 C 32.449219 31 32 31.449219 32 32 C 32 32.550781 32.449219 33 33 33 C 33.550781 33 34 32.550781 34 32 C 34 31.449219 33.550781 31 33 31 Z M 39 31 C 38.449219 31 38 31.449219 38 32 C 38 32.550781 38.449219 33 39 33 C 39.550781 33 40 32.550781 40 32 C 40 31.449219 39.550781 31 39 31 Z M 45 31 C 44.449219 31 44 31.449219 44 32 C 44 32.550781 44.449219 33 45 33 C 45.550781 33 46 32.550781 46 32 C 46 31.449219 45.550781 31 45 31 Z M 18 34 C 17.449219 34 17 34.449219 17 35 C 17 35.550781 17.449219 36 18 36 C 18.550781 36 19 35.550781 19 35 C 19 34.449219 18.550781 34 18 34 Z M 24 34 C 23.449219 34 23 34.449219 23 35 C 23 35.550781 23.449219 36 24 36 C 24.550781 36 25 35.550781 25 35 C 25 34.449219 24.550781 34 24 34 Z M 30 34 C 29.449219 34 29 34.449219 29 35 C 29 35.550781 29.449219 36 30 36 C 30.550781 36 31 35.550781 31 35 C 31 34.449219 30.550781 34 30 34 Z M 36 34 C 35.449219 34 35 34.449219 35 35 C 35 35.550781 35.449219 36 36 36 C 36.550781 36 37 35.550781 37 35 C 37 34.449219 36.550781 34 36 34 Z M 42 34 C 41.449219 34 41 34.449219 41 35 C 41 35.550781 41.449219 36 42 36 C 42.550781 36 43 35.550781 43 35 C 43 34.449219 42.550781 34 42 34 Z M 21 37 C 20.449219 37 20 37.449219 20 38 C 20 38.550781 20.449219 39 21 39 C 21.550781 39 22 38.550781 22 38 C 22 37.449219 21.550781 37 21 37 Z M 27 37 C 26.449219 37 26 37.449219 26 38 C 26 38.550781 26.449219 39 27 39 C 27.550781 39 28 38.550781 28 38 C 28 37.449219 27.550781 37 27 37 Z M 33 37 C 32.449219 37 32 37.449219 32 38 C 32 38.550781 32.449219 39 33 39 C 33.550781 39 34 38.550781 34 38 C 34 37.449219 33.550781 37 33 37 Z M 39 37 C 38.449219 37 38 37.449219 38 38 C 38 38.550781 38.449219 39 39 39 C 39.550781 39 40 38.550781 40 38 C 40 37.449219 39.550781 37 39 37 Z M 45 37 C 44.449219 37 44 37.449219 44 38 C 44 38.550781 44.449219 39 45 39 C 45.550781 39 46 38.550781 46 38 C 46 37.449219 45.550781 37 45 37 Z M 18 40 C 17.449219 40 17 40.449219 17 41 C 17 41.550781 17.449219 42 18 42 C 18.550781 42 19 41.550781 19 41 C 19 40.449219 18.550781 40 18 40 Z M 24 40 C 23.449219 40 23 40.449219 23 41 C 23 41.550781 23.449219 42 24 42 C 24.550781 42 25 41.550781 25 41 C 25 40.449219 24.550781 40 24 40 Z M 30 40 C 29.449219 40 29 40.449219 29 41 C 29 41.550781 29.449219 42 30 42 C 30.550781 42 31 41.550781 31 41 C 31 40.449219 30.550781 40 30 40 Z M 36 40 C 35.449219 40 35 40.449219 35 41 C 35 41.550781 35.449219 42 36 42 C 36.550781 42 37 41.550781 37 41 C 37 40.449219 36.550781 40 36 40 Z M 42 40 C 41.449219 40 41 40.449219 41 41 C 41 41.550781 41.449219 42 42 42 C 42.550781 42 43 41.550781 43 41 C 43 40.449219 42.550781 40 42 40 Z M 21 43 C 20.449219 43 20 43.449219 20 44 C 20 44.550781 20.449219 45 21 45 C 21.550781 45 22 44.550781 22 44 C 22 43.449219 21.550781 43 21 43 Z M 27 43 C 26.449219 43 26 43.449219 26 44 C 26 44.550781 26.449219 45 27 45 C 27.550781 45 28 44.550781 28 44 C 28 43.449219 27.550781 43 27 43 Z M 33 43 C 32.449219 43 32 43.449219 32 44 C 32 44.550781 32.449219 45 33 45 C 33.550781 45 34 44.550781 34 44 C 34 43.449219 33.550781 43 33 43 Z M 39 43 C 38.449219 43 38 43.449219 38 44 C 38 44.550781 38.449219 45 39 45 C 39.550781 45 40 44.550781 40 44 C 40 43.449219 39.550781 43 39 43 Z M 45 43 C 44.449219 43 44 43.449219 44 44 C 44 44.550781 44.449219 45 45 45 C 45.550781 45 46 44.550781 46 44 C 46 43.449219 45.550781 43 45 43 Z"/></svg>