<svg xmlns="http://www.w3.org/2000/svg" viewBox="0 0 48 48" width="300px" height="300px"><path fill="#FFB74D" d="M9,24.5C9,25.881,7.881,27,6.5,27l0,0C5.119,27,4,25.881,4,24.5v-17C4,6.119,5.119,5,6.5,5l0,0C7.881,5,9,6.119,9,7.5V24.5z"/><path fill="#FFB74D" d="M24 41c0 0 0-10-3-12.857l-9.013-9.104c-.559-.559-1.831-1.351-2.987-.615C8.594 18.594 4 18 4 18v6c0 .083.018.162.024.243-.072.979.251 1.983 1 2.732L15 36.95V41H24zM39 24.5c0 1.381 1.119 2.5 2.5 2.5l0 0c1.381 0 2.5-1.119 2.5-2.5v-17C44 6.119 42.881 5 41.5 5l0 0C40.119 5 39 6.119 39 7.5V24.5z"/><path fill="#FFB74D" d="M24,41c0,0,0-10,3-12.857l9.013-9.104c0.559-0.559,1.831-1.351,2.987-0.615C39.406,18.594,44,18,44,18v6c0,0.083-0.018,0.162-0.024,0.243c0.071,0.979-0.251,1.983-1.001,2.732L33,36.95V41H24z"/><g><path fill="#FB8C00" d="M8.707 22.635C8.5 22.428 6.733 20.56 8.476 18.817c.119-.118.303-.26.524-.393V16.24c-.792.267-1.475.701-1.938 1.163C4.524 19.94 6.104 22.859 7.248 24l7 7.158 1.505-1.316L8.707 22.635zM39.293 22.635c.207-.207 1.975-2.075.231-3.817-.118-.118-.304-.26-.524-.393V16.24c.792.267 1.475.701 1.938 1.163 2.537 2.537.958 5.456-.187 6.597l-7 7.158-1.504-1.316L39.293 22.635z"/><path fill="#FB8C00" d="M15 29.5A1 1 0 1 0 15 31.5 1 1 0 1 0 15 29.5zM33 29.5A1 1 0 1 0 33 31.5 1 1 0 1 0 33 29.5z"/></g><path fill="#5D4037" d="M34,38.5c0,0.828-0.672,1.5-1.5,1.5l-17,1c-0.829,0-1.5-0.672-1.5-1.5l0,0c0-0.828,0.671-1.5,1.5-1.5l17-1C33.328,37,34,37.672,34,38.5L34,38.5z"/><path fill="#8D6E63" d="M34,41.5c0,0.828-0.672,1.5-1.5,1.5l-17,1c-0.829,0-1.5-0.672-1.5-1.5l0,0c0-0.828,0.671-1.5,1.5-1.5l17-1C33.328,40,34,40.672,34,41.5L34,41.5z"/></svg>