<svg xmlns="http://www.w3.org/2000/svg" viewBox="0 0 64 64" width="300px" height="300px"><path fill="#72caaf" d="M59 29L35 29 35 5 29 5 29 29 5 29 5 35 29 35 29 59 35 59 35 35 59 35 59 29z"/><path fill="#97e0bb" d="M9,29H55a3,3,0,0,1,3,3v0a0,0,0,0,1,0,0H6a0,0,0,0,1,0,0v0A3,3,0,0,1,9,29Z" transform="rotate(180 32 30.5)"/><path fill="#97e0bb" d="M30 6H35V29H30z"/><path fill="#8d6c9f" d="M58,28H36V6a2,2,0,0,0-2-2H30a2,2,0,0,0-2,2V28H6a2,2,0,0,0-2,2v4a2,2,0,0,0,2,2H28V58a2,2,0,0,0,2,2h4a2,2,0,0,0,2-2V36H58a2,2,0,0,0,2-2V30A2,2,0,0,0,58,28Zm0,6H34V58H30V34H6V30H30V6h4V30H58Z"/><path fill="#8d6c9f" d="M39 38a1 1 0 0 0-1 1v2a1 1 0 0 0 2 0V39A1 1 0 0 0 39 38zM44 38a1 1 0 0 0-1 1v2a1 1 0 0 0 2 0V39A1 1 0 0 0 44 38zM49 38a1 1 0 0 0-1 1v2a1 1 0 0 0 2 0V39A1 1 0 0 0 49 38zM54 38a1 1 0 0 0-1 1v2a1 1 0 0 0 2 0V39A1 1 0 0 0 54 38zM59 38a1 1 0 0 0-1 1v2a1 1 0 0 0 2 0V39A1 1 0 0 0 59 38zM10 26a1 1 0 0 0 1-1V23a1 1 0 0 0-2 0v2A1 1 0 0 0 10 26zM5 26a1 1 0 0 0 1-1V23a1 1 0 0 0-2 0v2A1 1 0 0 0 5 26zM15 26a1 1 0 0 0 1-1V23a1 1 0 0 0-2 0v2A1 1 0 0 0 15 26zM20 26a1 1 0 0 0 1-1V23a1 1 0 0 0-2 0v2A1 1 0 0 0 20 26zM25 26a1 1 0 0 0 1-1V23a1 1 0 0 0-2 0v2A1 1 0 0 0 25 26z"/></svg>