<svg fill="#000000" xmlns="http://www.w3.org/2000/svg" viewBox="0 0 24 24" width="300px" height="300px"><path d="M 11.5625 2.4375 L 2.40625 11.59375 L 13.59375 14.65625 Z M 12.59375 2.59375 L 14.625 14.625 L 21.625 11.625 Z M 9.40625 6.75 C 9.707031 6.722656 9.972656 6.777344 10.0625 6.8125 C 11.210938 7.246094 10.957031 8.433594 10.90625 8.65625 C 10.789063 9.167969 10.160156 9.464844 9.9375 9.5 L 9.90625 9.53125 C 9.988281 9.605469 10.476563 10.152344 10.1875 10.96875 C 9.785156 12.105469 8.492188 11.980469 8.28125 11.90625 C 8.070313 11.832031 6.96875 11.292969 7.375 10 C 7.644531 9.144531 8.355469 9.039063 8.46875 9.03125 L 8.46875 9 C 8.316406 8.835938 7.945313 8.03125 8.5625 7.1875 C 8.777344 6.890625 9.105469 6.777344 9.40625 6.75 Z M 9.5 7.5 C 9.214844 7.578125 9.027344 7.886719 9 7.96875 C 8.929688 8.167969 8.800781 8.769531 9.3125 8.9375 C 9.769531 9.066406 10.085938 8.574219 10.15625 8.375 C 10.195313 8.265625 10.273438 7.691406 9.8125 7.53125 C 9.699219 7.492188 9.59375 7.472656 9.5 7.5 Z M 8.84375 9.59375 C 8.375 9.589844 8.132813 10.109375 8.09375 10.21875 C 8.054688 10.332031 7.945313 10.980469 8.53125 11.1875 C 9.136719 11.402344 9.429688 10.800781 9.46875 10.6875 C 9.511719 10.5625 9.648438 9.914063 9.0625 9.625 C 8.984375 9.601563 8.910156 9.59375 8.84375 9.59375 Z M 2.71875 12.71875 L 11.59375 21.59375 L 13.59375 15.6875 Z M 21.0625 12.9375 L 14.625 15.71875 L 12.78125 21.21875 Z"/></svg>