<svg xmlns="http://www.w3.org/2000/svg" viewBox="0 0 40 40" width="500px" height="500px"><path fill="#dcd5f2" d="M20,38.5c-7.859,0-14.5-2.748-14.5-6V7h29v25.5C34.5,35.752,27.859,38.5,20,38.5z"/><path fill="#8b75a1" d="M34,7.5v25c0,2.601-5.75,5.5-14,5.5S6,35.101,6,32.5v-25H34 M35,6.5H5c0,1.29,0,24.71,0,26 c0,3.59,6.716,6.5,15,6.5s15-2.91,15-6.5C35,31.21,35,7.79,35,6.5L35,6.5z"/><path fill="#dcd5f2" d="M20,11.5c-8.674,0-14.5-2.585-14.5-5s5.826-5,14.5-5s14.5,2.585,14.5,5S28.674,11.5,20,11.5z"/><path fill="#8b75a1" d="M20,2c8.674,0,14,2.621,14,4.5S28.674,11,20,11S6,8.379,6,6.5S11.326,2,20,2 M20,1 C11.716,1,5,3.462,5,6.5S11.716,12,20,12s15-2.462,15-5.5S28.284,1,20,1L20,1z"/><path fill="none" stroke="#8b75a1" stroke-miterlimit="10" d="M34.5 15.183c0 2.936-6.492 5.317-14.5 5.317S5.5 18.12 5.5 15.183M5.5 23.217c0 3.47 6.492 6.283 14.5 6.283s14.5-2.813 14.5-6.283"/><path fill="#bae0bd" d="M31,39.5c-4.687,0-8.5-3.813-8.5-8.5s3.813-8.5,8.5-8.5s8.5,3.813,8.5,8.5S35.687,39.5,31,39.5z"/><path fill="#5e9c76" d="M31,23c4.411,0,8,3.589,8,8s-3.589,8-8,8s-8-3.589-8-8S26.589,23,31,23 M31,22 c-4.971,0-9,4.029-9,9s4.029,9,9,9s9-4.029,9-9S35.971,22,31,22L31,22z"/><path fill="none" stroke="#fff" stroke-miterlimit="10" stroke-width="2" d="M31 36L31 26M26 31L36 31"/></svg>