<?xml version="1.0"?><svg fill="#000000" xmlns="http://www.w3.org/2000/svg" viewBox="0 0 30 30" width="100px" height="100px">    <path d="M 21.984375 2.9863281 A 1.0001 1.0001 0 0 0 21 4 L 21 7 L 18 7 A 1.0001 1.0001 0 1 0 18 9 L 21 9 L 21 12 A 1.0001 1.0001 0 1 0 23 12 L 23 9 L 26 9 A 1.0001 1.0001 0 1 0 26 7 L 23 7 L 23 4 A 1.0001 1.0001 0 0 0 21.984375 2.9863281 z M 7.7382812 5.0039062 C 7.6128594 4.9935156 7.4851719 5.0039062 7.3574219 5.0351562 C 6.8614219 5.1561563 6.2179688 5.45 5.5429688 6.125 C 3.4299688 8.238 2.3089062 11.800094 10.253906 19.746094 C 18.198906 27.692094 21.761 26.571031 23.875 24.457031 C 24.552 23.780031 24.845797 23.135672 24.966797 22.638672 C 25.089797 22.129672 24.869969 21.605797 24.417969 21.341797 C 23.289969 20.681797 20.855563 19.25475 19.726562 18.59375 C 19.355563 18.37675 18.90025 18.380609 18.53125 18.599609 L 16.664062 19.712891 C 16.246063 19.961891 15.723844 19.933766 15.339844 19.634766 C 14.676844 19.116766 13.610641 18.244406 12.681641 17.316406 C 11.752641 16.387406 10.880281 15.321203 10.363281 14.658203 C 10.064281 14.275203 10.035156 13.751984 10.285156 13.333984 L 11.398438 11.466797 C 11.618438 11.097797 11.619344 10.638578 11.402344 10.267578 L 8.6601562 5.5859375 C 8.4606562 5.2469375 8.1145469 5.0350781 7.7382812 5.0039062 z"/></svg>