<?xml version="1.0"?><svg fill="#000000" xmlns="http://www.w3.org/2000/svg" viewBox="0 0 24 24" width="500px" height="500px">    <path d="M 7 2 C 6.448 2 6 2.448 6 3 L 6 5 C 6 5.552 6.448 6 7 6 L 7 8.8320312 A 1.0001 1.0001 0 0 0 7 9.1582031 L 7 14.832031 A 1.0001 1.0001 0 0 0 7 15.158203 L 7 21 A 1.0001 1.0001 0 0 0 8 22 L 14 22 C 14 22.552 14.448 23 15 23 L 17 23 C 17.552 23 18 22.552 18 22 L 18 20 C 18 19.448 17.552 19 17 19 L 15 19 C 14.448 19 14 19.448 14 20 L 9 20 L 9 16 L 14 16 C 14 16.552 14.448 17 15 17 L 17 17 C 17.552 17 18 16.552 18 16 L 18 14 C 18 13.448 17.552 13 17 13 L 15 13 C 14.448 13 14 13.448 14 14 L 9 14 L 9 10 L 11 10 A 1.0001 1.0001 0 1 0 11 8 L 9 8 L 9 6 C 9.552 6 10 5.552 10 5 L 10 3 C 10 2.448 9.552 2 9 2 L 7 2 z M 16 6 C 15.448 6 15 6.448 15 7 L 15 8 L 14 8 C 13.448 8 13 8.448 13 9 C 13 9.552 13.448 10 14 10 L 15 10 L 15 11 C 15 11.552 15.448 12 16 12 C 16.552 12 17 11.552 17 11 L 17 10 L 18 10 C 18.552 10 19 9.552 19 9 C 19 8.448 18.552 8 18 8 L 17 8 L 17 7 C 17 6.448 16.552 6 16 6 z"/></svg>