<svg xmlns="http://www.w3.org/2000/svg" viewBox="0 0 48 48" width="500px" height="500px"><path fill="#00acc1" d="M27,21.339V22c0,0,5,3,5,10c0,4-3.41,7-7,7c-6,0-6-6-6-6v-3l-7,1c0,0-1.001,0.625-1,1.805 c0.006,6.695,6,12.182,13,12.182c7.875,0,12.991-5.237,12.991-11.791C36.991,27.25,32.798,22.621,27,21.339z"/><path fill="#26c6da" d="M19,30v3c0,0,1,4,5,4c7,0,6.073-6.649,6-7l-1.035,0c-0.134,1.354-1.433,4-4.965,4 C20.25,34,19,30,19,30z"/><path fill="#00838f" d="M27,22v4.4c1.126,0.837,2,2.167,2,4.311C29,32.875,27.625,36,24,36c-4,0-5-3-5-3s-1,0.344-1,2.344 c0,3.25,2.5,5.661,6.75,5.661c4.223,0,9.25-3.38,9.25-9.005C34,25,27,22,27,22z"/><path fill="#0097a7" d="M24,3c-2.556,0-5.141,0.812-7.247,2.103c-3.234,2.072-5.448,5.493-5.75,9.433 c-0.001,0.019-0.002,0.038-0.003,0.057c-0.012,0.498,0.323,0.941,0.818,1.032L19,16c0-2,1-4,4-4s5,2,5,4c0,1-5,4-10,5v4c0,0,2,2,6,2 c7.18,0,11.146-6.917,11.146-12.646C35.146,7.451,29.5,3,24,3z"/><path fill="#006064" d="M23,13c4,0,5,3,5,3c0-4-2.842-4.954-4.5-5c-1.681-0.047-4.5,1-4.5,5C19.242,13.885,21,13,23,13z"/><path fill="#00838f" d="M24,27c6,0,8.796-2.841,8.796-2.841s-2.671,1.716-5.671,1.716C23.5,25.875,22,24,22,24 s-1.375,0.5-4,1C18,25,20,27,24,27z"/><path fill="#26c6da" d="M24,3c-2.679,0-5.167,0.782-7.241,2.111C17.261,4.829,18.985,4,22,4c3.625,0,10,2,10,9.375 C32,21,22,24,22,24s1.5,1.875,5.125,1.875c3,0,5.671-1.716,5.671-1.716C35.38,22.138,37,19.141,37,15.5C37,8.596,31.18,3,24,3z"/></svg>