<svg fill="#000000" xmlns="http://www.w3.org/2000/svg" viewBox="0 0 64 64" width="500px" height="500px"><path d="M 51.15625 2.015625 C 50.609375 1.929688 50.097656 2.304688 50.015625 2.851563 L 49.28125 7.585938 L 34.726563 5.976563 C 33.511719 5.84375 32.320313 6.261719 31.457031 7.125 L 3.484375 35.097656 C 1.921875 36.65625 1.921875 39.195313 3.484375 40.753906 L 24.699219 61.96875 C 25.453125 62.722656 26.457031 63.140625 27.527344 63.140625 C 28.59375 63.140625 29.597656 62.722656 30.355469 61.96875 L 38.355469 53.964844 C 39.699219 59.707031 44.855469 64 51 64 C 58.167969 64 64 58.167969 64 51 C 64 44.855469 59.707031 39.703125 53.96875 38.355469 L 58.328125 33.996094 C 59.191406 33.128906 59.609375 31.941406 59.472656 30.726563 L 57.886719 16.367188 L 63.074219 16 C 63.625 15.960938 64.039063 15.480469 64 14.929688 C 63.960938 14.378906 63.488281 13.953125 62.929688 14.003906 L 57.667969 14.378906 L 57.363281 11.625 C 57.152344 9.75 55.699219 8.296875 53.828125 8.089844 L 51.273438 7.808594 L 51.988281 3.15625 C 52.074219 2.609375 51.699219 2.097656 51.15625 2.015625 Z M 34.058594 7.960938 C 34.203125 7.945313 34.355469 7.945313 34.503906 7.964844 L 53.605469 10.078125 C 54.542969 10.179688 55.269531 10.90625 55.375 11.84375 L 55.671875 14.519531 L 52.660156 14.734375 C 52.472656 14.335938 52.226563 13.957031 51.894531 13.625 C 50.335938 12.066406 47.800781 12.066406 46.238281 13.625 C 44.679688 15.1875 44.679688 17.722656 46.238281 19.28125 C 47.019531 20.0625 48.042969 20.453125 49.066406 20.453125 C 50.09375 20.453125 51.117188 20.0625 51.894531 19.28125 C 52.609375 18.570313 52.980469 17.652344 53.042969 16.714844 L 55.890625 16.511719 L 57.484375 30.949219 C 57.554688 31.554688 57.34375 32.148438 56.910156 32.578125 L 51.46875 38.027344 C 51.3125 38.019531 51.15625 38 51 38 C 43.832031 38 38 43.832031 38 51 C 38 51.15625 38.015625 51.3125 38.023438 51.46875 L 28.9375 60.550781 C 28.183594 61.308594 26.867188 61.308594 26.109375 60.550781 L 4.898438 39.339844 C 4.117188 38.558594 4.117188 37.289063 4.898438 36.511719 L 32.871094 8.539063 C 33.191406 8.210938 33.613281 8.011719 34.058594 7.960938 Z M 49.066406 14.453125 C 49.578125 14.453125 50.089844 14.648438 50.480469 15.039063 C 51.261719 15.816406 51.261719 17.085938 50.480469 17.867188 C 49.703125 18.644531 48.433594 18.644531 47.652344 17.867188 C 46.875 17.085938 46.875 15.816406 47.652344 15.039063 C 48.042969 14.648438 48.554688 14.453125 49.066406 14.453125 Z M 8.46875 34.839844 C 8.210938 34.839844 7.957031 34.9375 7.761719 35.132813 L 6.347656 36.546875 C 5.957031 36.9375 5.957031 37.570313 6.347656 37.960938 C 6.542969 38.15625 6.796875 38.253906 7.054688 38.253906 C 7.3125 38.253906 7.566406 38.15625 7.761719 37.960938 L 9.175781 36.546875 C 9.566406 36.15625 9.566406 35.523438 9.175781 35.132813 C 8.980469 34.9375 8.726563 34.839844 8.46875 34.839844 Z M 12.003906 38.375 C 11.75 38.375 11.492188 38.472656 11.296875 38.667969 L 9.882813 40.078125 C 9.492188 40.472656 9.492188 41.101563 9.882813 41.496094 C 10.078125 41.6875 10.332031 41.785156 10.589844 41.785156 C 10.847656 41.785156 11.101563 41.6875 11.296875 41.496094 L 12.710938 40.078125 C 13.101563 39.6875 13.101563 39.058594 12.710938 38.667969 C 12.515625 38.472656 12.257813 38.375 12.003906 38.375 Z M 51 40 C 57.066406 40 62 44.933594 62 51 C 62 57.066406 57.066406 62 51 62 C 44.933594 62 40 57.066406 40 51 C 40 44.933594 44.933594 40 51 40 Z M 15.539063 41.910156 C 15.285156 41.910156 15.027344 42.007813 14.832031 42.203125 L 13.421875 43.617188 C 13.027344 44.007813 13.027344 44.640625 13.421875 45.03125 C 13.613281 45.226563 13.871094 45.324219 14.125 45.324219 C 14.382813 45.324219 14.636719 45.226563 14.832031 45.03125 L 16.246094 43.617188 C 16.636719 43.226563 16.636719 42.59375 16.246094 42.203125 C 16.050781 42.007813 15.792969 41.910156 15.539063 41.910156 Z M 51 44 C 50.445313 44 50 44.445313 50 45 L 50 50 L 45 50 C 44.445313 50 44 50.445313 44 51 C 44 51.554688 44.445313 52 45 52 L 50 52 L 50 57 C 50 57.554688 50.445313 58 51 58 C 51.554688 58 52 57.554688 52 57 L 52 52 L 57 52 C 57.554688 52 58 51.554688 58 51 C 58 50.445313 57.554688 50 57 50 L 52 50 L 52 45 C 52 44.445313 51.554688 44 51 44 Z M 19.074219 45.445313 C 18.820313 45.445313 18.5625 45.542969 18.367188 45.738281 L 16.953125 47.152344 C 16.5625 47.542969 16.5625 48.175781 16.953125 48.566406 C 17.148438 48.761719 17.402344 48.859375 17.660156 48.859375 C 17.917969 48.859375 18.171875 48.761719 18.367188 48.566406 L 19.78125 47.152344 C 20.171875 46.761719 20.171875 46.128906 19.78125 45.738281 C 19.585938 45.542969 19.328125 45.445313 19.074219 45.445313 Z M 22.609375 48.980469 C 22.355469 48.980469 22.101563 49.078125 21.90625 49.273438 L 20.488281 50.6875 C 20.097656 51.078125 20.097656 51.710938 20.488281 52.101563 C 20.683594 52.296875 20.9375 52.394531 21.195313 52.394531 C 21.453125 52.394531 21.707031 52.296875 21.902344 52.101563 L 23.316406 50.6875 C 23.710938 50.296875 23.710938 49.664063 23.316406 49.273438 C 23.121094 49.078125 22.867188 48.980469 22.609375 48.980469 Z M 26.144531 52.515625 C 25.890625 52.515625 25.636719 52.613281 25.4375 52.8125 L 24.027344 54.222656 C 23.632813 54.617188 23.632813 55.246094 24.027344 55.640625 C 24.21875 55.832031 24.476563 55.933594 24.734375 55.933594 C 24.988281 55.933594 25.246094 55.832031 25.4375 55.640625 L 26.855469 54.222656 C 27.246094 53.832031 27.246094 53.203125 26.855469 52.8125 C 26.65625 52.613281 26.402344 52.515625 26.144531 52.515625 Z M 29.683594 56.050781 C 29.425781 56.050781 29.167969 56.148438 28.972656 56.34375 L 27.5625 57.761719 C 27.167969 58.152344 27.167969 58.78125 27.5625 59.171875 C 27.753906 59.367188 28.011719 59.46875 28.265625 59.46875 C 28.523438 59.46875 28.78125 59.367188 28.972656 59.171875 L 30.390625 57.761719 C 30.78125 57.367188 30.78125 56.738281 30.390625 56.34375 C 30.191406 56.148438 29.9375 56.050781 29.683594 56.050781 Z"/></svg>