<svg xmlns="http://www.w3.org/2000/svg" viewBox="0 0 48 48" width="300px" height="300px"><path fill="#f4511e" d="M37,39H11l-6,6V11c0-3.301,2.699-6,6-6h26c3.301,0,6,2.699,6,6v22C43,36.301,40.301,39,37,39z"/><path fill="#ffecb3" d="M15.838,23.681c0-0.453-0.116-0.812-0.348-1.074s-0.647-0.52-1.246-0.77 c-1.167-0.411-2.044-0.878-2.633-1.398s-0.883-1.25-0.883-2.188c0-0.933,0.336-1.691,1.008-2.277s1.528-0.879,2.57-0.879 c1.104,0,1.992,0.313,2.664,0.938s0.997,1.464,0.977,2.516l-0.016,0.047h-2.141c0-0.589-0.132-1.035-0.395-1.34 s-0.64-0.457-1.129-0.457c-0.422,0-0.75,0.14-0.984,0.418s-0.352,0.626-0.352,1.043c0,0.386,0.133,0.703,0.398,0.953 s0.722,0.523,1.367,0.82c1.099,0.364,1.931,0.825,2.496,1.383s0.848,1.308,0.848,2.25c0,0.974-0.331,1.739-0.992,2.297 s-1.539,0.836-2.633,0.836c-1.078,0-2-0.301-2.766-0.902s-1.136-1.517-1.109-2.746l0.016-0.047h2.148 c0,0.714,0.145,1.227,0.434,1.539s0.715,0.469,1.277,0.469c0.474,0,0.829-0.13,1.066-0.391S15.838,24.113,15.838,23.681z"/><path fill="#ffecb3" d="M27.941,22.54c0,1.339-0.378,2.383-1.133,3.133s-1.761,1.125-3.016,1.125s-2.258-0.375-3.008-1.125 s-1.125-1.794-1.125-3.133v-3.172c0-1.333,0.374-2.379,1.121-3.137s1.749-1.137,3.004-1.137s2.262,0.379,3.02,1.137 s1.137,1.804,1.137,3.137V22.54z M25.746,19.345c0-0.828-0.168-1.453-0.504-1.875s-0.821-0.633-1.457-0.633 c-0.641,0-1.122,0.21-1.445,0.629s-0.484,1.046-0.484,1.879v3.195c0,0.844,0.163,1.477,0.488,1.898s0.809,0.633,1.449,0.633 s1.126-0.211,1.457-0.633s0.496-1.055,0.496-1.898V19.345z"/><path fill="#ffecb3" d="M34.896,23.681c0-0.453-0.116-0.812-0.348-1.074s-0.647-0.52-1.246-0.77 c-1.167-0.411-2.044-0.878-2.633-1.398s-0.883-1.25-0.883-2.188c0-0.933,0.336-1.691,1.008-2.277s1.528-0.879,2.57-0.879 c1.104,0,1.992,0.313,2.664,0.938s0.997,1.464,0.977,2.516l-0.016,0.047h-2.141c0-0.589-0.132-1.035-0.395-1.34 s-0.64-0.457-1.129-0.457c-0.422,0-0.75,0.14-0.984,0.418s-0.352,0.626-0.352,1.043c0,0.386,0.133,0.703,0.398,0.953 s0.722,0.523,1.367,0.82c1.099,0.364,1.931,0.825,2.496,1.383s0.848,1.308,0.848,2.25c0,0.974-0.331,1.739-0.992,2.297 s-1.539,0.836-2.633,0.836c-1.078,0-2-0.301-2.766-0.902s-1.136-1.517-1.109-2.746l0.016-0.047h2.148 c0,0.714,0.145,1.227,0.434,1.539s0.715,0.469,1.277,0.469c0.474,0,0.829-0.13,1.066-0.391S34.896,24.113,34.896,23.681z"/></svg>