<svg fill="#000000" xmlns="http://www.w3.org/2000/svg" viewBox="0 0 50 50" width="500px" height="500px"><path d="M 12 0 C 10.347656 0 9 1.347656 9 3 L 9 47 C 9 48.652344 10.347656 50 12 50 L 38 50 C 39.652344 50 41 48.652344 41 47 L 41 34.9375 C 46.046875 34.433594 50 30.175781 50 25 C 50 19.824219 46.046875 15.566406 41 15.0625 L 41 3 C 41 1.347656 39.652344 0 38 0 Z M 40 17 C 44.410156 17 48 20.589844 48 25 C 48 29.410156 44.410156 33 40 33 C 35.589844 33 32 29.410156 32 25 C 32 20.589844 35.589844 17 40 17 Z M 39 20 L 39 24 L 35 24 L 35 26 L 39 26 L 39 30 L 41 30 L 41 26 L 45 26 L 45 24 L 41 24 L 41 20 Z"/></svg>