<svg fill="#000000" xmlns="http://www.w3.org/2000/svg" viewBox="0 0 64 64" width="100px" height="100px"><path d="M 24.890625 3.382813 C 17.511719 3.382813 11.230469 8.410156 9.617188 15.621094 L 7.480469 25.238281 C 7.011719 27.351563 5.308594 33.019531 5.28125 33.089844 C 4.878906 34.519531 5.398438 36.121094 6.507813 36.890625 C 7.410156 37.511719 8.609375 38.128906 9.9375 38.671875 L 6.492188 40.671875 C 2.492188 42.980469 0 47.300781 0 51.921875 L 0 57 C 0 58.648438 1.351563 60 3 60 L 41.628906 60 C 43.992188 62.460938 47.320313 64 51 64 C 58.171875 64 64 58.171875 64 51 C 64 50.738281 63.992188 50.492188 63.96875 50.230469 C 63.992188 50.160156 64 50.078125 64 50 L 64 44.4375 C 64 40.6875 62.121094 37.242188 58.980469 35.210938 L 51.910156 30.640625 C 53.039063 29.191406 53.96875 27.449219 54.578125 25.609375 C 55.53125 25.199219 56.359375 24.058594 56.769531 22.53125 C 57.019531 21.609375 57.070313 20.679688 56.910156 19.921875 C 56.710938 18.921875 56.152344 18.238281 55.402344 18.039063 C 55.339844 18.019531 55.289063 18.011719 55.230469 18 C 55.128906 17.339844 54.960938 16.699219 54.679688 15.921875 C 54.859375 15.960938 55.058594 16.019531 55.230469 16.089844 C 55.570313 16.238281 55.96875 16.179688 56.25 15.9375 C 56.539063 15.699219 56.667969 15.320313 56.589844 14.960938 C 55.359375 9.332031 51.179688 5.96875 45.421875 5.96875 L 44.671875 5.96875 C 43.011719 5.96875 40.652344 6.480469 39.140625 7.46875 C 38.410156 7.511719 37.742188 7.667969 37.140625 7.9375 C 34.621094 5.839844 31.460938 4.539063 28.039063 4.328125 C 27.089844 3.710938 26.011719 3.382813 24.890625 3.382813 Z M 24.890625 5.382813 C 25.679688 5.382813 26.449219 5.628906 27.097656 6.117188 C 27.269531 6.238281 27.460938 6.308594 27.660156 6.320313 C 30.570313 6.429688 33.289063 7.480469 35.480469 9.179688 C 36.011719 9.578125 36.5 10.03125 36.960938 10.5 C 38.632813 12.238281 39.859375 14.429688 40.421875 16.890625 L 42.320313 25.390625 C 42.800781 27.519531 44.671875 33.410156 44.75 33.660156 C 44.839844 33.949219 44.769531 34.839844 44.230469 35.289063 C 43.332031 36.027344 42.0625 36.679688 39.96875 37.460938 L 35.929688 35.121094 C 36.78125 33.738281 37.460938 32.25 37.949219 30.75 C 39.089844 30.320313 40.109375 28.949219 40.609375 27.078125 C 41.289063 24.519531 40.640625 22.257813 39.078125 21.847656 C 38.980469 21.820313 38.859375 21.800781 38.730469 21.789063 C 38.628906 21.070313 38.46875 20.371094 38.25 19.679688 C 38.078125 19.160156 37.519531 18.871094 36.988281 19.03125 C 36.46875 19.199219 36.179688 19.757813 36.339844 20.289063 C 36.628906 21.1875 36.800781 22.128906 36.839844 23.089844 C 36.859375 23.449219 37.070313 23.769531 37.390625 23.929688 C 37.710938 24.089844 38.089844 24.070313 38.390625 23.878906 C 38.492188 23.8125 38.550781 23.789063 38.5625 23.78125 C 38.769531 23.9375 39.101563 24.980469 38.671875 26.570313 C 38.261719 28.109375 37.429688 28.902344 37.171875 28.902344 C 36.730469 28.902344 36.339844 29.1875 36.210938 29.621094 C 35.75 31.160156 35.070313 32.710938 34.210938 34.121094 C 33.871094 34.699219 33.488281 35.257813 33.078125 35.78125 C 31.179688 38.25 28.691406 40 25.96875 40 C 23.261719 40 20.78125 38.269531 18.878906 35.8125 C 18.472656 35.289063 18.089844 34.730469 17.75 34.152344 C 16.878906 32.730469 16.191406 31.167969 15.730469 29.621094 C 15.601563 29.1875 15.210938 28.902344 14.769531 28.902344 C 14.53125 28.902344 13.699219 28.191406 13.261719 26.570313 C 12.828125 24.949219 13.179688 23.898438 13.339844 23.78125 C 13.359375 23.78125 13.429688 23.8125 13.550781 23.878906 C 13.851563 24.082031 14.230469 24.089844 14.550781 23.929688 C 14.871094 23.769531 15.078125 23.449219 15.089844 23.089844 C 15.140625 22.140625 15.308594 21.199219 15.589844 20.300781 C 15.761719 19.78125 15.460938 19.222656 14.9375 19.050781 C 14.410156 18.878906 13.851563 19.167969 13.679688 19.699219 C 13.46875 20.378906 13.3125 21.078125 13.210938 21.789063 C 13.082031 21.800781 12.960938 21.820313 12.859375 21.847656 C 12 22.078125 11.398438 22.839844 11.171875 23.980469 C 10.980469 24.890625 11.039063 25.988281 11.328125 27.078125 C 11.828125 28.949219 12.851563 30.320313 13.988281 30.75 C 14.480469 32.261719 15.167969 33.75 16.03125 35.140625 L 12.179688 37.371094 C 10.417969 36.777344 8.742188 36 7.648438 35.25 C 7.289063 35 7.019531 34.308594 7.199219 33.652344 C 7.269531 33.410156 8.949219 27.859375 9.429688 25.671875 L 11.570313 16.050781 C 12.96875 9.769531 18.449219 5.382813 24.890625 5.382813 Z M 44.671875 7.96875 L 45.421875 7.96875 C 49.691406 7.96875 52.808594 10.089844 54.1875 13.839844 C 53.738281 13.851563 53.300781 13.96875 52.960938 14.289063 C 52.621094 14.609375 52.300781 15.21875 52.679688 16.269531 C 53.140625 17.5 53.289063 18.210938 53.339844 19.230469 C 53.359375 19.589844 53.570313 19.910156 53.890625 20.078125 C 54.199219 20.238281 54.570313 20.21875 54.871094 20.039063 C 54.988281 20.320313 55.101563 21.039063 54.839844 22.011719 C 54.53125 23.160156 53.960938 23.730469 53.789063 23.78125 C 53.347656 23.78125 52.960938 24.070313 52.828125 24.488281 C 52.289063 26.339844 51.359375 28.117188 50.21875 29.539063 C 49.789063 30.089844 49.328125 30.597656 48.839844 31.03125 C 48.820313 31.039063 48.808594 31.058594 48.789063 31.070313 C 48.367188 31.429688 48.328125 32.058594 48.6875 32.480469 C 49.050781 32.890625 49.691406 32.941406 50.097656 32.578125 C 50.257813 32.441406 50.410156 32.300781 50.5625 32.140625 L 57.890625 36.878906 C 60.351563 38.480469 61.871094 41.140625 61.988281 44.0625 C 59.679688 40.421875 55.621094 38 51 38 C 48.519531 38 46.191406 38.699219 44.210938 39.921875 L 42.179688 38.738281 C 43.429688 38.199219 44.589844 37.578125 45.5 36.828125 C 46.789063 35.769531 46.949219 33.980469 46.652344 33.0625 C 46.628906 33 44.738281 26.988281 44.269531 24.949219 L 42.371094 16.4375 C 41.769531 13.800781 40.5 11.441406 38.78125 9.519531 C 38.988281 9.480469 39.222656 9.460938 39.460938 9.460938 C 39.679688 9.460938 39.890625 9.390625 40.0625 9.257813 C 41.03125 8.53125 43.050781 7.96875 44.671875 7.96875 Z M 20.964844 14.480469 C 20.28125 14.417969 19.589844 14.730469 19.199219 15.332031 L 17.730469 17.5625 C 17.425781 18.023438 17.554688 18.640625 18.015625 18.945313 C 18.1875 19.058594 18.378906 19.109375 18.566406 19.109375 C 18.890625 19.109375 19.210938 18.953125 19.402344 18.660156 L 20.828125 16.496094 L 22.191406 17.15625 C 24.8125 18.433594 27.738281 19.109375 30.652344 19.109375 L 32.988281 19.109375 C 33.542969 19.109375 33.988281 18.660156 33.988281 18.109375 C 33.988281 17.558594 33.542969 17.109375 32.988281 17.109375 L 30.652344 17.109375 C 28.039063 17.109375 25.417969 16.507813 23.066406 15.359375 L 21.636719 14.664063 C 21.421875 14.558594 21.191406 14.5 20.964844 14.480469 Z M 34.8125 36.78125 L 38.109375 38.6875 L 38.109375 38.699219 L 39.789063 39.671875 L 42.449219 41.210938 C 40.199219 43.179688 38.628906 45.910156 38.152344 49 C 38.050781 49.660156 38 50.320313 38 51 C 38 53.570313 38.75 55.980469 40.050781 58 L 3 58 C 2.449219 58 2 57.550781 2 57 L 2 51.921875 C 2 48.011719 4.101563 44.359375 7.492188 42.402344 L 12.421875 39.550781 L 14.238281 38.488281 L 17.152344 36.800781 C 19.441406 39.820313 22.53125 42 25.96875 42 C 29.410156 42 32.511719 39.808594 34.8125 36.78125 Z M 51 40 C 56.390625 40 60.878906 43.890625 61.820313 49 C 61.941406 49.648438 62 50.320313 62 51 C 62 57.070313 57.070313 62 51 62 C 48.640625 62 46.46875 61.261719 44.679688 60 C 43.871094 59.429688 43.140625 58.761719 42.511719 58 C 40.941406 56.089844 40 53.660156 40 51 C 40 50.320313 40.058594 49.648438 40.179688 49 C 40.679688 46.28125 42.191406 43.898438 44.300781 42.28125 C 44.890625 41.820313 45.527344 41.429688 46.199219 41.097656 C 47.648438 40.390625 49.28125 40 51 40 Z M 18.0625 42 C 17.675781 41.976563 17.292969 42.183594 17.105469 42.550781 C 16.859375 43.046875 17.058594 43.648438 17.550781 43.894531 L 25.550781 47.894531 C 25.695313 47.964844 25.847656 48 26 48 C 26.152344 48 26.308594 47.964844 26.449219 47.894531 L 34.449219 43.894531 C 34.941406 43.648438 35.140625 43.046875 34.894531 42.550781 C 34.648438 42.058594 34.046875 41.859375 33.550781 42.105469 L 26 45.882813 L 18.449219 42.105469 C 18.324219 42.042969 18.195313 42.011719 18.0625 42 Z M 51 44 C 50.445313 44 50 44.449219 50 45 L 50 50 L 45 50 C 44.445313 50 44 50.449219 44 51 C 44 51.550781 44.445313 52 45 52 L 50 52 L 50 57 C 50 57.550781 50.445313 58 51 58 C 51.554688 58 52 57.550781 52 57 L 52 52 L 57 52 C 57.554688 52 58 51.550781 58 51 C 58 50.449219 57.554688 50 57 50 L 52 50 L 52 45 C 52 44.449219 51.554688 44 51 44 Z M 6 52 C 5.445313 52 5 52.449219 5 53 L 5 55 C 5 55.550781 5.445313 56 6 56 C 6.554688 56 7 55.550781 7 55 L 7 53 C 7 52.449219 6.554688 52 6 52 Z M 11 52 C 10.445313 52 10 52.449219 10 53 L 10 55 C 10 55.550781 10.445313 56 11 56 C 11.554688 56 12 55.550781 12 55 L 12 53 C 12 52.449219 11.554688 52 11 52 Z M 16 52 C 15.445313 52 15 52.449219 15 53 L 15 55 C 15 55.550781 15.445313 56 16 56 C 16.554688 56 17 55.550781 17 55 L 17 53 C 17 52.449219 16.554688 52 16 52 Z M 21 52 C 20.445313 52 20 52.449219 20 53 L 20 55 C 20 55.550781 20.445313 56 21 56 C 21.554688 56 22 55.550781 22 55 L 22 53 C 22 52.449219 21.554688 52 21 52 Z M 26 52 C 25.445313 52 25 52.449219 25 53 L 25 55 C 25 55.550781 25.445313 56 26 56 C 26.554688 56 27 55.550781 27 55 L 27 53 C 27 52.449219 26.554688 52 26 52 Z M 31 52 C 30.445313 52 30 52.449219 30 53 L 30 55 C 30 55.550781 30.445313 56 31 56 C 31.554688 56 32 55.550781 32 55 L 32 53 C 32 52.449219 31.554688 52 31 52 Z M 36 52 C 35.445313 52 35 52.449219 35 53 L 35 55 C 35 55.550781 35.445313 56 36 56 C 36.554688 56 37 55.550781 37 55 L 37 53 C 37 52.449219 36.554688 52 36 52 Z"/></svg>