<svg xmlns="http://www.w3.org/2000/svg" viewBox="0 0 48 48" width="50px" height="50px"><path fill="#4caf50" d="M29,33L29,33H19c0,0-11,1.986-11,13h32C40,35.025,29,33,29,33"/><path fill="#ff9800" d="M24 39L19 33 19 27 29 27 29 33z"/><path fill="#ffa726" d="M35,21c0,1.105-0.896,2-2,2c-1.105,0-2-0.895-2-2s0.895-2,2-2C34.104,19,35,19.895,35,21 M17,21c0-1.105-0.896-2-2-2c-1.106,0-2,0.895-2,2s0.894,2,2,2C16.104,23,17,22.105,17,21"/><path fill="#ffb74d" d="M33,15c0-7.635-18-4.971-18,0v7c0,4.971,4.028,9,9,9c4.971,0,9-4.029,9-9V15z"/><path fill="#ff5722" d="M24,6c-6.075,0-10,4.926-10,11v2.286L16,21v-5l12-4l4,4v5l2-1.742V17c0-4.025-1.038-8.016-6-9l-1-2H24z"/><path fill="#784719" d="M27,21c0-0.551,0.448-1,1-1s1,0.449,1,1s-0.448,1-1,1S27,21.551,27,21 M19,21c0,0.551,0.448,1,1,1s1-0.449,1-1s-0.448-1-1-1S19,20.449,19,21"/><path fill="#2e7d32" d="M29,33l-5,6l-5-6c0,0-0.88,0.161-2.141,0.637l0.603,0.645l5,6L23,40.925V46h2v-5.075l0.536-0.643l5-6l0.539-0.664C29.85,33.156,29,33,29,33z"/></svg>