<svg xmlns="http://www.w3.org/2000/svg" viewBox="0 0 48 48" width="100px" height="100px"><path fill="#b0bec5" d="M35.7,40H12.3C9.9,40,8,38.1,8,35.7V12.3C8,9.9,9.9,8,12.3,8h23.3c2.4,0,4.3,1.9,4.3,4.3v23.3 C40,38.1,38.1,40,35.7,40z M12.3,10C11,10,10,11,10,12.3v23.3c0,1.3,1,2.3,2.3,2.3h23.3c1.3,0,2.3-1,2.3-2.3V12.3 c0-1.3-1-2.3-2.3-2.3H12.3z"/><path fill="#455a64" d="M15 27c0 1.1-.9 2-2 2H5c-1.1 0-2-.9-2-2v-6c0-1.1.9-2 2-2h8c1.1 0 2 .9 2 2V27zM30 12c0 1.1-.9 2-2 2h-8c-1.1 0-2-.9-2-2V6c0-1.1.9-2 2-2h8c1.1 0 2 .9 2 2V12zM30 42c0 1.1-.9 2-2 2h-8c-1.1 0-2-.9-2-2v-6c0-1.1.9-2 2-2h8c1.1 0 2 .9 2 2V42zM45 27c0 1.1-.9 2-2 2h-8c-1.1 0-2-.9-2-2v-6c0-1.1.9-2 2-2h8c1.1 0 2 .9 2 2V27z"/><path fill="#90caf9" d="M5 21h8v6H5V21zM20 6h8v6h-8V6zM20 36h8v6h-8V36zM35 21h8v6h-8V21z"/></svg>