<?xml version="1.0"?><svg fill="#000000" xmlns="http://www.w3.org/2000/svg" viewBox="0 0 100 100" width="300px" height="300px">    <path d="M 31.449219 16.953125 C 27.858219 16.953125 24.9375 19.590984 24.9375 22.833984 L 24.9375 34.953125 L 21.603516 34.953125 C 18.478516 34.953125 15.9375 37.494141 15.9375 40.619141 L 15.9375 70.285156 C 15.9375 73.410156 18.478516 75.953125 21.603516 75.953125 L 58.509766 75.953125 C 61.169766 79.009125 65.0775 80.953125 69.4375 80.953125 C 77.4325 80.953125 83.9375 74.448125 83.9375 66.453125 C 83.9375 61.634125 81.5655 57.368469 77.9375 54.730469 L 77.9375 40.619141 C 77.9375 37.494141 75.394531 34.953125 72.269531 34.953125 L 67.9375 34.953125 L 67.9375 29.929688 C 67.9375 29.796688 67.884016 29.670172 67.791016 29.576172 L 55.314453 17.099609 C 55.220453 17.005609 55.093938 16.953125 54.960938 16.953125 L 31.449219 16.953125 z M 31.449219 17.953125 L 51.9375 17.953125 L 51.9375 24.898438 C 51.9375 28.237437 55.015781 30.953125 58.800781 30.953125 L 66.4375 30.953125 C 66.7135 30.953125 66.9375 30.729125 66.9375 30.453125 C 66.9375 30.177125 66.7135 29.953125 66.4375 29.953125 L 58.800781 29.953125 C 55.567781 29.953125 52.9375 27.685437 52.9375 24.898438 L 52.9375 17.953125 L 54.753906 17.953125 L 66.9375 30.136719 L 66.9375 30.453125 L 66.9375 40.453125 C 66.9375 40.729125 67.1615 40.953125 67.4375 40.953125 C 67.7135 40.953125 67.9375 40.729125 67.9375 40.453125 L 67.9375 36.953125 L 72.269531 36.953125 C 73.157531 36.953125 73.960703 37.282594 74.595703 37.808594 C 74.562703 37.821594 74.529047 37.828609 74.498047 37.849609 L 53.304688 52.3125 C 53.076687 52.4685 53.018828 52.779813 53.173828 53.007812 C 53.270828 53.149813 53.428891 53.226562 53.587891 53.226562 C 53.685891 53.226562 53.782141 53.197672 53.869141 53.138672 L 75.0625 38.675781 C 75.1395 38.622781 75.189562 38.54875 75.226562 38.46875 C 75.668562 39.07475 75.935547 39.814141 75.935547 40.619141 L 75.935547 53.509766 C 73.977547 52.521766 71.773547 51.951172 69.435547 51.951172 C 64.523547 51.951172 60.182594 54.412156 57.558594 58.160156 L 47.113281 51.382812 C 46.283281 50.845813 45.179141 50.861688 44.369141 51.429688 L 17.9375 69.986328 L 17.9375 40.619141 C 17.9375 40.072141 18.06525 39.558797 18.28125 39.091797 L 38.173828 53.195312 C 38.261828 53.257312 38.361891 53.287109 38.462891 53.287109 C 38.618891 53.287109 38.774094 53.214172 38.871094 53.076172 C 39.030094 52.850172 38.976953 52.538906 38.751953 52.378906 L 18.826172 38.253906 C 19.500172 37.464906 20.487516 36.953125 21.603516 36.953125 L 24.9375 36.953125 L 24.9375 39.453125 C 24.9375 39.729125 25.1615 39.953125 25.4375 39.953125 C 25.7135 39.953125 25.9375 39.729125 25.9375 39.453125 L 25.9375 22.833984 C 25.9375 20.142984 28.409219 17.953125 31.449219 17.953125 z M 30.4375 33.953125 C 30.1615 33.953125 29.9375 34.177125 29.9375 34.453125 C 29.9375 34.729125 30.1615 34.953125 30.4375 34.953125 L 47.4375 34.953125 C 47.7135 34.953125 47.9375 34.729125 47.9375 34.453125 C 47.9375 34.177125 47.7135 33.953125 47.4375 33.953125 L 30.4375 33.953125 z M 51.4375 33.953125 C 51.1615 33.953125 50.9375 34.177125 50.9375 34.453125 L 50.9375 42.453125 C 50.9375 42.729125 51.1615 42.953125 51.4375 42.953125 C 51.7135 42.953125 51.9375 42.729125 51.9375 42.453125 L 51.9375 34.953125 L 60.9375 34.953125 L 60.9375 43.953125 L 53.4375 43.953125 C 53.1615 43.953125 52.9375 44.177125 52.9375 44.453125 C 52.9375 44.729125 53.1615 44.953125 53.4375 44.953125 L 61.4375 44.953125 C 61.7135 44.953125 61.9375 44.729125 61.9375 44.453125 L 61.9375 34.453125 C 61.9375 34.177125 61.7135 33.953125 61.4375 33.953125 L 51.4375 33.953125 z M 30.4375 37.953125 C 30.1615 37.953125 29.9375 38.177125 29.9375 38.453125 C 29.9375 38.729125 30.1615 38.953125 30.4375 38.953125 L 47.4375 38.953125 C 47.7135 38.953125 47.9375 38.729125 47.9375 38.453125 C 47.9375 38.177125 47.7135 37.953125 47.4375 37.953125 L 30.4375 37.953125 z M 30.4375 42.953125 C 30.1615 42.953125 29.9375 43.177125 29.9375 43.453125 C 29.9375 43.729125 30.1615 43.953125 30.4375 43.953125 L 47.4375 43.953125 C 47.7135 43.953125 47.9375 43.729125 47.9375 43.453125 C 47.9375 43.177125 47.7135 42.953125 47.4375 42.953125 L 30.4375 42.953125 z M 45.751953 51.994141 C 46.038453 51.989141 46.325359 52.065156 46.568359 52.222656 L 57.019531 59.005859 C 55.706531 61.185859 54.9375 63.728125 54.9375 66.453125 C 54.9375 69.200125 55.718781 71.761125 57.050781 73.953125 L 21.603516 73.953125 C 19.873516 73.953125 18.428922 72.746813 18.044922 71.132812 L 44.945312 52.248047 C 45.180312 52.083547 45.465453 51.999141 45.751953 51.994141 z M 69.4375 53.953125 C 76.3305 53.953125 81.9375 59.560125 81.9375 66.453125 C 81.9375 73.346125 76.3305 78.953125 69.4375 78.953125 C 62.5445 78.953125 56.9375 73.346125 56.9375 66.453125 C 56.9375 59.560125 62.5445 53.953125 69.4375 53.953125 z M 69.4375 59.953125 C 69.1615 59.953125 68.9375 60.177125 68.9375 60.453125 L 68.9375 65.953125 L 63.4375 65.953125 C 63.1615 65.953125 62.9375 66.177125 62.9375 66.453125 C 62.9375 66.729125 63.1615 66.953125 63.4375 66.953125 L 68.9375 66.953125 L 68.9375 73.453125 C 68.9375 73.729125 69.1615 73.953125 69.4375 73.953125 C 69.7135 73.953125 69.9375 73.729125 69.9375 73.453125 L 69.9375 66.953125 L 76.4375 66.953125 C 76.7135 66.953125 76.9375 66.729125 76.9375 66.453125 C 76.9375 66.177125 76.7135 65.953125 76.4375 65.953125 L 69.9375 65.953125 L 69.9375 60.453125 C 69.9375 60.177125 69.7135 59.953125 69.4375 59.953125 z"/></svg>