<svg xmlns="http://www.w3.org/2000/svg" viewBox="0 0 48 48" width="500px" height="500px"><path fill="#FF3D00" d="M48,32c0,1.1-0.9,2-2,2H7L0,24l7-10h39c1.1,0,2,0.9,2,2L48,32z"/><path fill="#FFAB91" d="M8 32L46 32 46 16 46 16 8 16 2.4 24z"/><path fill="#FFF" d="M25,24c0,1.7-1.3,3-3,3s-3-1.3-3-3c0-1.7,1.3-3,3-3S25,22.3,25,24z M14,21c-1.7,0-3,1.3-3,3c0,1.7,1.3,3,3,3s3-1.3,3-3C17,22.3,15.7,21,14,21z M38,21c-1.7,0-3,1.3-3,3c0,1.7,1.3,3,3,3s3-1.3,3-3C41,22.3,39.7,21,38,21z M30,21c-1.7,0-3,1.3-3,3c0,1.7,1.3,3,3,3s3-1.3,3-3C33,22.3,31.7,21,30,21z"/></svg>