<svg xmlns="http://www.w3.org/2000/svg" viewBox="0 0 48 48" width="300px" height="300px"><path fill="#ffcc80" d="M40.746,32.647h-0.01v-9.294h-0.892L38.952,18h-8.786c-1.707,0-3.288,0.527-4.598,1.424	C25.024,19.797,24.384,20,23.726,20H5v16h16.579c1.057,0,2.024,0.532,2.653,1.382c0.003,0.005,0.007,0.009,0.01,0.014	c1.128,1.519,5.788,4.73,5.788,4.73c1.659,1.241,3.217,1.101,4.461,0C36.007,40.884,38.059,38,38.059,38s1.795,0,2.687,0	C41.639,38,41.733,32.647,40.746,32.647z"/><path fill="#ffcc80" d="M41.345,33c1.469,0,2.669-1.126,2.669-2.5s-1.2-2.5-2.669-2.5h-6.582 c-1.469,0-2.673,1.126-2.673,2.5s1.204,2.5,2.673,2.5H41.345z"/><path fill="#ffcc80" d="M41.345,38c1.469,0,2.669-1.126,2.669-2.5c0-1.374-1.2-2.5-2.669-2.5h-6.582 c-1.469,0-2.673,1.126-2.673,2.5c0,1.374,1.204,2.5,2.673,2.5H41.345z"/><path fill="#ffcc80" d="M41.345,28c1.469,0,2.669-1.126,2.669-2.5s-1.2-2.5-2.669-2.5h-6.582 c-1.469,0-2.673,1.126-2.673,2.5s1.204,2.5,2.673,2.5H41.345z"/><path fill="#ffcc80" d="M40.428,23c1.469,0,2.669-1.126,2.669-2.5s-1.2-2.5-2.669-2.5h-6.582 c-1.469,0-2.673,1.126-2.673,2.5s1.204,2.5,2.673,2.5H40.428z"/><path fill="#f2a25a" d="M29.822,38l6.151,2.635c0.039-0.049,0.088-0.098,0.129-0.147C37.154,39.27,38.059,38,38.059,38	H29.822z"/><path fill="#3498db" d="M22.794,11.5C21.191,8.725,18.205,7,15,7s-6.191,1.725-7.794,4.5l-1.732-1 C7.433,7.107,11.083,5,15,5s7.567,2.107,9.526,5.5L22.794,11.5z"/><path fill="#3498db" d="M19.33,13.5C18.44,11.958,16.781,11,15,11s-3.44,0.958-4.33,2.5l-1.732-1 C10.184,10.341,12.507,9,15,9s4.816,1.341,6.063,3.5L19.33,13.5z"/><path fill="#3498db" d="M15.867,15.501c-0.357-0.619-1.377-0.619-1.734,0l-1.73-1.002C12.937,13.574,13.933,13,15,13 s2.063,0.574,2.598,1.499L15.867,15.501z"/><path fill="#546e7a" d="M19,25l-0.789-1.578C18.072,23.145,18,22.838,18,22.528V21c0-0.552-0.448-1-1-1h-4	c-0.552,0-1,0.448-1,1v1.528c0,0.31-0.072,0.617-0.211,0.894L11,25v2h8V25z"/><path fill="#546e7a" d="M19,31l-0.789,1.578C18.072,32.855,18,33.162,18,33.472V35c0,0.552-0.448,1-1,1h-4	c-0.552,0-1-0.448-1-1v-1.528c0-0.31-0.072-0.617-0.211-0.894L11,31v-2h8V31z"/><path fill="#263238" d="M17.5,33h-5c-1.381,0-2.5-1.119-2.5-2.5v-5c0-1.381,1.119-2.5,2.5-2.5h5c1.381,0,2.5,1.119,2.5,2.5v5	C20,31.881,18.881,33,17.5,33z"/><circle cx="17" cy="26" r="1" fill="#64b5f6"/><circle cx="13" cy="26" r="1" fill="#ff1744"/><circle cx="17" cy="30" r="1" fill="#ffab00"/><circle cx="13" cy="30" r="1" fill="#76ff03"/></svg>