<svg fill="#000000" xmlns="http://www.w3.org/2000/svg" viewBox="0 0 16 16" width="50px" height="50px"><path d="M 7.4921875 0.9921875 A 0.50005 0.50005 0 0 0 7 1.5 L 7 3 L 5 3 L 4.5 3 A 0.50005 0.50005 0 0 0 4 3.5 L 4 7.1386719 L 1.3417969 8.0253906 A 0.50028222 0.50028222 0 0 0 1.6582031 8.9746094 L 4.6582031 7.9746094 A 0.50005 0.50005 0 0 0 5 7.5 L 5 4 L 7 4 L 7 10 L 4.5 10 A 0.50005 0.50005 0 0 0 4 10.5 L 4 13.5 A 0.50005 0.50005 0 1 0 5 13.5 L 5 11 L 10 11 L 10 13.5 A 0.50005 0.50005 0 1 0 11 13.5 L 11 10.5 A 0.50005 0.50005 0 0 0 10.5 10 L 8 10 L 8 4 L 10 4 L 10 7.5 A 0.50005 0.50005 0 0 0 10.5 8 L 13.5 8 A 0.50005 0.50005 0 1 0 13.5 7 L 11 7 L 11 3.5 A 0.50005 0.50005 0 0 0 10.5 3 L 8 3 L 8 1.5 A 0.50005 0.50005 0 0 0 7.4921875 0.9921875 z"/></svg>