<svg xmlns="http://www.w3.org/2000/svg" viewBox="0 0 80 80" width="50px" height="50px"><path fill="#8bb7f0" d="M2.5,53.5c0.3-8.3,7.1-15,15.5-15h12c8.4,0,15.2,6.7,15.5,15H2.5z"/><path fill="#4e7ab5" d="M30,39c7.9,0,14.5,6.2,15,14H3c0.5-7.8,7-14,15-14H30 M30,38H18C9.2,38,2,45.2,2,54h44 C46,45.2,38.8,38,30,38L30,38z"/><path fill="#deb974" d="M24,43c-5.1,0-6.3-2.9-6.5-3.4v-6.5h13v6.5C30.3,40.1,29.1,43,24,43z"/><path fill="#967a44" d="M30,33.6v5.9c-0.2,0.5-1.5,3-6,3c-4.5,0-5.8-2.4-6-3v-5.9H30 M31,32.6H17v7.1c0,0,1.1,3.8,7,3.8 s7-3.8,7-3.8V32.6L31,32.6z"/><path fill="#f5ce85" d="M24,36.5c-0.9,0-1.9-0.4-2.5-1.2l-0.1-0.1l-0.2,0c-5.2-1.3-8.8-5.9-8.8-11.2V13.5 c0-2.9,2.3-5.2,5.2-5.2h12.6c2.9,0,5.2,2.3,5.2,5.2V24c0,5.3-3.6,9.9-8.8,11.2l-0.2,0l-0.1,0.1C25.9,36.1,24.9,36.5,24,36.5z"/><path fill="#967a44" d="M30.3,8.8c2.6,0,4.7,2.1,4.7,4.7V24c0,5.1-3.4,9.5-8.4,10.7l-0.3,0.1L26.1,35c-0.5,0.6-1.3,1-2.1,1 s-1.6-0.4-2.1-1l-0.2-0.3l-0.3-0.1C16.4,33.5,13,29.1,13,24V13.5c0-2.6,2.1-4.7,4.7-4.7H30.3 M30.3,7.8H17.7 c-3.2,0-5.7,2.6-5.7,5.7V24c0,5.6,3.9,10.4,9.1,11.6c0.7,0.8,1.7,1.4,2.9,1.4s2.2-0.5,2.9-1.4c5.2-1.3,9.1-6,9.1-11.6V13.5 C36,10.3,33.4,7.8,30.3,7.8L30.3,7.8z"/><path fill="#a6714e" d="M36.3,38c-3.3,0-6.6-2.6-7.7-3.7c1.2-1,3.9-3.8,3.9-9.1v-3.3c0-3.5-1.8-6.8-1.9-6.9l-0.3-0.6 l-0.5,0.5c0,0-3.2,3.3-9.3,4.7c-3.2,0.7-5,3.7-5,5.5c0,5.4,2.4,8.2,3.5,9.1c-1,1-4,3.8-7.3,3.8c-3.1,0-5.8-1.7-6.8-2.5 c1.2-0.9,3.9-3.3,3.9-6.8c0-1.4-0.1-2.4-0.1-3.5c-0.1-1.3-0.2-2.6-0.2-4.6c0-11.8,7.4-18,14.7-18c6,0,7.9,4.1,8,4.3l0.1,0.3l0.3,0 c5.1,0,7.8,4.1,7.8,11.8c0,2.1-0.2,3.9-0.3,5.6c-0.1,1.6-0.3,3.1-0.3,4.7c0,2.9,2.5,4.4,4.3,4.9C42.2,35.3,39.6,38,36.3,38z"/><path fill="#7a4f34" d="M23.2,3c5.6,0,7.5,3.9,7.5,4L31,7.6h0.7c6,0,7.3,6.1,7.3,11.3c0,2.1-0.2,3.9-0.3,5.6 c-0.1,1.6-0.3,3.1-0.3,4.7c0,2.8,2.1,4.4,3.9,5.1c-1.1,1.2-3.3,3.1-6,3.1c-2.8,0-5.6-2-7-3.2c1.4-1.3,3.7-4.2,3.7-9.1v-3.3 c0-3.6-1.9-7-2-7.2l-0.7-1.2l-0.9,1c0,0-3.1,3.2-9,4.5c-3.5,0.8-5.4,4-5.4,6c0,5,2,7.9,3.3,9.1c-1.2,1.2-3.8,3.3-6.6,3.3 c-2.5,0-4.8-1.2-6-2.1c1.4-1.2,3.6-3.5,3.6-6.8c0-1.4-0.1-2.4-0.1-3.6C9.1,23.7,9,22.4,9,20.5C9,9,16.2,3,23.2,3 M23.2,2 C15.8,2,8,8.3,8,20.5c0,3.8,0.3,5.2,0.3,8.1c0,4.2-4.3,6.8-4.3,6.8s3.5,3.1,7.7,3.1c4.3,0,8-4.4,8-4.4S16,31.6,16,25 c0-1.4,1.5-4.3,4.6-5c6.3-1.4,9.5-4.8,9.5-4.8s1.8,3.3,1.8,6.7c0,1.6,0,0.6,0,3.3c0,6.5-4.2,9.1-4.2,9.1s4.2,4.2,8.5,4.2 c4.6,0,7.7-4.6,7.7-4.6s-4.6-0.8-4.6-4.6c0-3.4,0.6-6.2,0.6-10.3c0-8.9-3.6-12.3-8.3-12.3C31.7,6.6,29.6,2,23.2,2L23.2,2z"/><path fill="#c2e8ff" d="M18.5,65.5c0.3-8.3,7.1-15,15.5-15h12c8.4,0,15.2,6.7,15.5,15H18.5z"/><path fill="#7496c4" d="M46,51c7.9,0,14.5,6.2,15,14H19c0.5-7.8,7-14,15-14H46 M46,50H34c-8.8,0-16,7.2-16,16h44 C62,57.2,54.8,50,46,50L46,50z"/><path fill="#ffdea3" d="M40,55c-5.1,0-6.3-2.9-6.5-3.4v-6.5h13v6.5C46.3,52.1,45.1,55,40,55z"/><path fill="#967a44" d="M46,45.6v5.9c-0.2,0.5-1.5,3-6,3c-4.5,0-5.8-2.4-6-3v-5.9H46 M47,44.6H33v7.1c0,0,1.1,3.8,7,3.8 s7-3.8,7-3.8V44.6L47,44.6z"/><g><path fill="#ffdea3" d="M40,48.5c-0.9,0-1.8-0.4-2.5-1.2l-0.1-0.1l-0.2,0c-5.2-1.3-8.8-5.9-8.8-11.2V25.5 c0-2.9,2.3-5.2,5.2-5.2h12.6c2.9,0,5.2,2.3,5.2,5.2V36c0,5.3-3.6,9.9-8.8,11.2l-0.2,0l-0.1,0.1C41.8,48.1,40.9,48.5,40,48.5z"/><path fill="#967a44" d="M46.3,20.8c2.6,0,4.7,2.1,4.7,4.7V36c0,5.1-3.4,9.5-8.4,10.7l-0.3,0.1L42.1,47 c-0.5,0.6-1.3,1-2.1,1s-1.6-0.4-2.1-1l-0.2-0.3l-0.3-0.1C32.4,45.5,29,41.1,29,36V25.5c0-2.6,2.1-4.7,4.7-4.7H46.3 M46.3,19.8 H33.7c-3.2,0-5.7,2.6-5.7,5.7V36c0,5.6,3.9,10.4,9.1,11.6c0.7,0.8,1.7,1.4,2.9,1.4s2.2-0.5,2.9-1.4c5.2-1.3,9.1-6,9.1-11.6V25.5 C52,22.3,49.4,19.8,46.3,19.8L46.3,19.8z"/></g><g><path fill="#f5ce85" d="M52.3,50c-3.3,0-6.6-2.6-7.7-3.7c1.2-1,3.9-3.8,3.9-9.1v-3.3c0-3.5-1.8-6.8-1.9-6.9l-0.3-0.6 l-0.5,0.5c0,0-3.2,3.3-9.3,4.7c-3.2,0.7-5,3.7-5,5.5c0,5.4,2.4,8.2,3.5,9.1c-1,1-4,3.8-7.3,3.8c-3.1,0-5.8-1.7-6.9-2.5 c1.2-0.9,3.9-3.3,3.9-6.8c0-1.4-0.1-2.4-0.1-3.5c-0.1-1.3-0.2-2.6-0.2-4.6c0-11.8,7.4-18,14.7-18c6,0,7.9,4.1,8,4.3l0.1,0.3l0.3,0 c5.1,0,7.8,4.1,7.8,11.8c0,2.1-0.2,3.9-0.3,5.6c-0.1,1.6-0.3,3.1-0.3,4.7c0,2.9,2.5,4.4,4.3,4.9C58.2,47.3,55.6,50,52.3,50z"/><path fill="#967a44" d="M39.2,15c5.6,0,7.5,3.9,7.5,4l0.3,0.6h0.7c6,0,7.3,6.1,7.3,11.3c0,2.1-0.2,3.9-0.3,5.6 c-0.1,1.6-0.3,3.1-0.3,4.7c0,2.8,2.1,4.4,3.9,5.1c-1.1,1.2-3.3,3.1-6,3.1c-2.8,0-5.6-2-7-3.2c1.4-1.3,3.7-4.2,3.7-9.1v-3.3 c0-3.6-1.9-7-2-7.2l-0.7-1.2l-0.9,1c0,0-3.1,3.2-9,4.5c-3.5,0.8-5.4,4-5.4,6c0,5,2,7.9,3.3,9.1c-1.2,1.2-3.8,3.3-6.6,3.3 c-2.5,0-4.8-1.2-6-2.1c1.4-1.2,3.6-3.5,3.6-6.8c0-1.4-0.1-2.4-0.1-3.6c-0.1-1.3-0.2-2.6-0.2-4.6C25,21,32.2,15,39.2,15 M39.2,14 C31.8,14,24,20.3,24,32.5c0,3.8,0.3,5.2,0.3,8.1c0,4.2-4.3,6.8-4.3,6.8s3.5,3.1,7.7,3.1c4.3,0,8-4.4,8-4.4S32,43.6,32,37 c0-1.4,1.5-4.3,4.6-5c6.3-1.4,9.5-4.8,9.5-4.8s1.8,3.3,1.8,6.7c0,1.6,0,0.6,0,3.3c0,6.5-4.2,9.1-4.2,9.1s4.2,4.2,8.5,4.2 c4.6,0,7.7-4.6,7.7-4.6s-4.6-0.8-4.6-4.6c0-3.4,0.6-6.2,0.6-10.3c0-8.9-3.6-12.3-8.3-12.3C47.7,18.6,45.7,14,39.2,14L39.2,14z"/></g><g><path fill="#bae0bd" d="M62,79.5c-9.6,0-17.5-7.9-17.5-17.5S52.4,44.5,62,44.5S79.5,52.4,79.5,62S71.6,79.5,62,79.5z"/><path fill="#5e9c76" d="M62,45c9.4,0,17,7.6,17,17s-7.6,17-17,17s-17-7.6-17-17S52.6,45,62,45 M62,44c-9.9,0-18,8.1-18,18 s8.1,18,18,18s18-8.1,18-18S71.9,44,62,44L62,44z"/></g><path fill="#fff" d="M60 52H64V72H60z"/><path fill="#fff" d="M52 60H72V64H52z"/></svg>