<svg fill="#000000" xmlns="http://www.w3.org/2000/svg" viewBox="0 0 50 50" width="50px" height="50px"><path d="M 25 13 C 19.183594 13 13.34375 13.859375 8.851563 15.605469 C 6.605469 16.480469 4.6875 17.570313 3.285156 18.953125 C 1.882813 20.339844 1 22.066406 1 24 C 1 25.765625 1.734375 27.363281 2.929688 28.671875 C 4.121094 29.984375 5.765625 31.042969 7.703125 31.910156 C 11.339844 33.542969 16.074219 34.457031 21 34.796875 L 21 41.046875 L 32.628906 32 L 21 22.953125 L 21 28.777344 C 16.699219 28.4375 13.101563 27.644531 10.683594 26.65625 C 9.367188 26.121094 8.371094 25.539063 7.757813 25.019531 C 7.148438 24.503906 7 24.097656 7 24 C 7 23.894531 7.195313 23.40625 7.949219 22.824219 C 8.703125 22.238281 9.910156 21.59375 11.488281 21.023438 C 14.652344 19.878906 19.304688 19 25 19 C 30.695313 19 35.347656 19.878906 38.511719 21.023438 C 40.089844 21.59375 41.296875 22.238281 42.050781 22.824219 C 42.804688 23.40625 43 23.894531 43 24 C 43 24.121094 42.683594 24.777344 41.613281 25.484375 C 40.546875 26.1875 38.875 26.929688 36.730469 27.535156 L 36 27.746094 L 36 33.917969 L 37.238281 33.609375 C 40.492188 32.808594 43.347656 31.664063 45.46875 30.101563 C 47.585938 28.539063 49 26.457031 49 24 C 49 22.066406 48.117188 20.339844 46.714844 18.953125 C 45.3125 17.570313 43.394531 16.480469 41.148438 15.605469 C 36.65625 13.859375 30.816406 13 25 13 Z M 25 15 C 30.613281 15 36.273438 15.859375 40.421875 17.46875 C 42.5 18.277344 44.1875 19.273438 45.3125 20.378906 C 46.4375 21.488281 47 22.652344 47 24 C 47 25.710938 46.078125 27.167969 44.28125 28.488281 C 42.746094 29.621094 40.515625 30.535156 38 31.265625 L 38 29.15625 C 39.878906 28.558594 41.574219 27.90625 42.71875 27.152344 C 44.039063 26.277344 45 25.3125 45 24 C 45 22.882813 44.269531 22.011719 43.273438 21.238281 C 42.277344 20.46875 40.910156 19.765625 39.1875 19.140625 C 35.75 17.898438 30.902344 17 25 17 C 19.097656 17 14.25 17.898438 10.8125 19.140625 C 9.089844 19.765625 7.722656 20.46875 6.726563 21.238281 C 5.730469 22.011719 5 22.882813 5 24 C 5 25.015625 5.621094 25.835938 6.46875 26.550781 C 7.320313 27.265625 8.476563 27.917969 9.929688 28.511719 C 12.832031 29.695313 16.925781 30.628906 21.945313 30.90625 L 23 30.96875 L 23 27.042969 L 29.375 32 L 23 36.957031 L 23 32.96875 L 22.050781 32.921875 C 16.960938 32.652344 12.054688 31.671875 8.523438 30.089844 C 6.753906 29.296875 5.34375 28.351563 4.40625 27.328125 C 3.46875 26.300781 3 25.230469 3 24 C 3 22.652344 3.5625 21.488281 4.6875 20.378906 C 5.8125 19.273438 7.5 18.277344 9.578125 17.46875 C 13.726563 15.859375 19.386719 15 25 15 Z"/></svg>