<svg fill="#000000" xmlns="http://www.w3.org/2000/svg" viewBox="0 0 24 24" width="50px" height="50px"><path d="M 9 3.1875 L 9 19.8125 L 12.59375 20.90625 L 12.59375 7 C 12.59375 6.601563 12.613281 6.386719 12.8125 6.1875 C 12.914063 5.988281 13.113281 5.992188 13.3125 6.09375 C 13.8125 6.292969 14.09375 6.699219 14.09375 7.5 L 14.09375 13 C 15.292969 13.601563 16.292969 13.601563 17.09375 13 C 17.894531 12.398438 18.3125 11.5 18.3125 10 C 18.3125 8.398438 18.011719 7.394531 17.3125 6.59375 C 16.710938 5.792969 15.601563 5.09375 14 4.59375 C 12 3.992188 10.300781 3.488281 9 3.1875 Z M 8 13.59375 L 3.40625 15.1875 L 2.6875 15.5 C 1.585938 16 1 16.5 1 17 C 1.101563 17.601563 1.3125 18.40625 2.8125 18.90625 C 4.210938 19.40625 5.292969 19.613281 8.09375 18.8125 L 8.09375 17 C 5.394531 17.898438 4.992188 17.792969 4.59375 17.59375 C 4.195313 17.394531 4.210938 17.195313 4.3125 17.09375 C 4.613281 16.894531 5.6875 16.5 5.6875 16.5 L 8 15.6875 Z M 18.1875 14.375 C 17.863281 14.363281 17.511719 14.382813 17.1875 14.40625 C 16.085938 14.40625 15.105469 14.605469 13.90625 14.90625 L 13.90625 17 L 16.09375 16.1875 L 17.3125 15.8125 C 17.3125 15.8125 17.792969 15.695313 18.09375 15.59375 C 18.59375 15.492188 19.1875 15.6875 19.1875 15.6875 C 19.488281 15.6875 19.6875 15.800781 19.6875 16 C 19.789063 16.199219 19.59375 16.300781 19.09375 16.5 L 18 16.90625 L 14 18.40625 L 14 20.5 L 15.8125 19.90625 L 20.8125 18.09375 L 21.40625 17.8125 C 22.605469 17.414063 23.101563 16.914063 23 16.3125 C 23 15.710938 22.292969 15.304688 21.09375 14.90625 C 20.117188 14.605469 19.164063 14.40625 18.1875 14.375 Z"/></svg>