<svg fill="#000000" xmlns="http://www.w3.org/2000/svg" viewBox="0 0 32 32" width="500px" height="500px"><path d="M 11.5 5 L 11.1875 5.40625 L 10 7 L 3 7 L 3 25 L 14.0625 25 C 14.03125 24.671875 14 24.339844 14 24 C 14 23.660156 14.03125 23.328125 14.0625 23 L 5 23 L 5 9 L 11 9 L 11.3125 8.59375 L 12.5 7 L 19.5 7 L 20.6875 8.59375 L 21 9 L 27 9 L 27 14.46875 C 27.703125 14.691406 28.371094 14.980469 29 15.34375 L 29 7 L 22 7 L 20.8125 5.40625 L 20.5 5 Z M 8 10 C 7.449219 10 7 10.449219 7 11 C 7 11.550781 7.449219 12 8 12 C 8.550781 12 9 11.550781 9 11 C 9 10.449219 8.550781 10 8 10 Z M 16 10 C 12.691406 10 10 12.691406 10 16 C 10 18.707031 11.816406 21.003906 14.28125 21.75 C 14.433594 21.085938 14.628906 20.449219 14.90625 19.84375 C 13.226563 19.371094 12 17.828125 12 16 C 12 13.792969 13.792969 12 16 12 C 17.828125 12 19.371094 13.226563 19.84375 14.90625 C 20.449219 14.625 21.085938 14.4375 21.75 14.28125 C 21.003906 11.816406 18.707031 10 16 10 Z M 24 16 C 19.59375 16 16 19.59375 16 24 C 16 28.40625 19.59375 32 24 32 C 28.40625 32 32 28.40625 32 24 C 32 19.59375 28.40625 16 24 16 Z M 24 18 C 27.324219 18 30 20.675781 30 24 C 30 27.324219 27.324219 30 24 30 C 20.675781 30 18 27.324219 18 24 C 18 20.675781 20.675781 18 24 18 Z M 23 20 L 23 23 L 20 23 L 20 25 L 23 25 L 23 28 L 25 28 L 25 25 L 28 25 L 28 23 L 25 23 L 25 20 Z"/></svg>