<svg fill="#000000" xmlns="http://www.w3.org/2000/svg" viewBox="0 0 80 80" width="50px" height="50px"><path d="M 32 13 C 25.75 13 20.425781 15.382813 16.738281 19.730469 C 13.050781 24.074219 11 30.320313 11 38 C 11 43.792969 13.019531 53.207031 13.019531 53.207031 L 13.1875 54 L 25 54 L 25 54.167969 C 23.5625 54.507813 20.363281 55.339844 17.125 56.636719 C 14.953125 57.507813 12.757813 58.585938 11.042969 59.925781 C 9.324219 61.265625 8 62.949219 8 65 L 8 70 L 49.175781 70 C 51.554688 75.855469 57.296875 80 64 80 C 72.824219 80 80 72.824219 80 64 C 80 55.175781 72.824219 48 64 48 C 61.878906 48 59.855469 48.425781 58 49.175781 L 58 46.042969 C 58.449219 45.734375 58.863281 45.382813 59.242188 45 L 68.207031 45 L 68.46875 44.390625 C 68.46875 44.390625 70 40.691406 70 33.183594 C 70 28.449219 68.785156 24.457031 66.808594 21.597656 C 64.925781 18.886719 62.296875 17.230469 59.445313 17.0625 C 59 16.511719 56.878906 14 53 14 C 48.210938 14 44.640625 16.367188 43.113281 17.582031 C 42.265625 17.292969 41.382813 17.113281 40.476563 17.066406 C 40.269531 16.714844 39.988281 16.109375 38.875 15.21875 C 37.472656 14.097656 35.222656 13 32 13 Z M 32 15 C 34.777344 15 36.527344 15.902344 37.625 16.78125 C 38.722656 17.660156 39.105469 18.449219 39.105469 18.449219 L 39.382813 19 L 40 19 C 42.925781 19 45.605469 20.652344 47.644531 23.769531 C 49.683594 26.886719 51 31.453125 51 37 C 51 44.234375 49.4375 50.921875 49.179688 52 L 39 52 L 39 50.867188 C 41.5625 48.679688 43 45.273438 43 41.515625 L 43 35.730469 C 43 32.644531 42 30.566406 40.953125 29.300781 C 39.90625 28.035156 38.75 27.53125 38.75 27.53125 L 38.144531 27.28125 L 37.671875 27.734375 C 37.671875 27.734375 37.117188 28.28125 35.746094 28.90625 C 34.375 29.535156 32.25 30.183594 29.273438 30.183594 C 27.507813 30.183594 25.523438 31.066406 23.890625 32.640625 C 22.257813 34.210938 21 36.539063 21 39.410156 L 21 41.515625 C 21 45.273438 22.4375 48.679688 25 50.867188 L 25 52 L 14.832031 52 C 14.585938 50.777344 13 42.921875 13 38 C 13 30.679688 14.949219 24.925781 18.261719 21.019531 C 21.574219 17.117188 26.25 15 32 15 Z M 53 16 C 56.253906 16 58.195313 18.59375 58.195313 18.59375 L 58.496094 19 L 59 19 C 61.265625 19 63.464844 20.285156 65.160156 22.738281 C 66.859375 25.191406 68 28.792969 68 33.183594 C 68 39.542969 67.050781 42.304688 66.792969 43 L 60.71875 43 C 61.550781 41.484375 62 39.699219 62 37.8125 L 62 33.183594 C 62 30.675781 61.179688 28.960938 60.316406 27.914063 C 59.453125 26.867188 58.480469 26.441406 58.480469 26.441406 L 57.875 26.1875 L 57.398438 26.640625 C 57.398438 26.640625 56.984375 27.054688 55.910156 27.546875 C 55.011719 27.957031 53.667969 28.363281 51.882813 28.488281 C 51.257813 26.285156 50.394531 24.320313 49.316406 22.675781 C 48.164063 20.90625 46.746094 19.515625 45.15625 18.550781 C 46.738281 17.460938 49.507813 16 53 16 Z M 40 20 C 39.449219 20 39 20.449219 39 21 C 39 21.550781 39.449219 22 40 22 C 40.550781 22 41 21.550781 41 21 C 41 20.449219 40.550781 20 40 20 Z M 40 24 C 39.449219 24 39 24.449219 39 25 C 39 25.550781 39.449219 26 40 26 C 40.550781 26 41 25.550781 41 25 C 41 24.449219 40.550781 24 40 24 Z M 58.03125 28.558594 C 58.207031 28.660156 58.363281 28.6875 58.777344 29.1875 C 59.367188 29.902344 60 31.097656 60 33.183594 L 60 37.8125 C 60 41.738281 57.960938 44.769531 54.363281 45.410156 L 54.078125 45.464844 L 53.867188 45.65625 C 53.628906 45.871094 53.335938 46 53 46 C 52.753906 46 52.542969 45.914063 52.347656 45.792969 C 52.707031 43.160156 53 40.089844 53 37 C 53 34.664063 52.773438 32.484375 52.363281 30.472656 C 54.242188 30.300781 55.703125 29.839844 56.746094 29.363281 C 57.570313 28.988281 57.703125 28.808594 58.03125 28.558594 Z M 38.300781 29.648438 C 38.511719 29.757813 38.8125 29.851563 39.410156 30.574219 C 40.183594 31.511719 41 33.070313 41 35.730469 L 41 41.515625 C 41 45.179688 39.582031 48.257813 37.011719 49.96875 L 37 49.96875 L 37 49.976563 C 36.0625 50.597656 34.980469 51.042969 33.75 51.261719 L 33.464844 51.3125 L 33.25 51.503906 C 32.910156 51.816406 32.484375 52 32 52 C 31.515625 52 31.089844 51.816406 30.75 51.503906 L 30.535156 51.3125 L 30.25 51.261719 C 29.019531 51.042969 27.9375 50.597656 27 49.976563 L 27 49.96875 L 26.988281 49.96875 C 24.417969 48.257813 23 45.179688 23 41.515625 L 23 39.410156 C 23 37.117188 23.976563 35.332031 25.277344 34.078125 C 26.578125 32.828125 28.234375 32.183594 29.273438 32.183594 C 32.542969 32.183594 34.964844 31.464844 36.578125 30.730469 C 37.699219 30.214844 37.945313 29.9375 38.300781 29.648438 Z M 56.5 35 C 55.671875 35 55 35.671875 55 36.5 C 55 37.328125 55.671875 38 56.5 38 C 57.328125 38 58 37.328125 58 36.5 C 58 35.671875 57.328125 35 56.5 35 Z M 27.5 38 C 26.671875 38 26 38.671875 26 39.5 C 26 40.328125 26.671875 41 27.5 41 C 28.328125 41 29 40.328125 29 39.5 C 29 38.671875 28.328125 38 27.5 38 Z M 36.5 38 C 35.671875 38 35 38.671875 35 39.5 C 35 40.328125 35.671875 41 36.5 41 C 37.328125 41 38 40.328125 38 39.5 C 38 38.671875 37.328125 38 36.5 38 Z M 56 47.03125 L 56 49.859375 C 55.835938 50.023438 55.617188 50.257813 55.078125 50.652344 C 54.378906 51.167969 53.476563 51.597656 53 51.597656 C 52.34375 51.597656 51.832031 51.457031 51.410156 51.253906 C 51.597656 50.351563 51.8125 49.210938 52.035156 47.839844 C 52.34375 47.9375 52.664063 48 53 48 C 53.742188 48 54.421875 47.734375 54.96875 47.324219 C 55.324219 47.246094 55.667969 47.148438 56 47.03125 Z M 64 50 C 71.742188 50 78 56.257813 78 64 C 78 71.742188 71.742188 78 64 78 C 56.257813 78 50 71.742188 50 64 C 50 56.257813 56.257813 50 64 50 Z M 27 52.203125 C 27.804688 52.609375 28.675781 52.925781 29.621094 53.125 C 30.273438 53.644531 31.089844 54 32 54 C 32.910156 54 33.726563 53.644531 34.378906 53.125 C 35.324219 52.925781 36.195313 52.609375 37 52.203125 L 37 55.65625 C 36.878906 55.898438 35.578125 58.402344 32 58.402344 C 28.421875 58.402344 27.121094 55.898438 27 55.65625 Z M 50.972656 53.226563 C 51.277344 53.339844 51.601563 53.433594 51.957031 53.5 C 50.863281 54.75 49.953125 56.167969 49.289063 57.71875 C 45.199219 55.710938 40.613281 54.539063 39 54.167969 L 39 54 L 50.78125 54 L 50.96875 53.242188 C 50.96875 53.242188 50.972656 53.226563 50.972656 53.226563 Z M 38.992188 56.222656 C 41 56.726563 45.171875 57.894531 48.625 59.617188 C 48.226563 61.011719 48 62.480469 48 64 C 48 65.382813 48.195313 66.71875 48.527344 68 L 10 68 L 10 65 C 10 63.828125 10.800781 62.648438 12.269531 61.5 C 13.742188 60.355469 15.796875 59.324219 17.875 58.492188 C 20.722656 57.347656 23.492188 56.601563 25.011719 56.226563 L 25.105469 56.417969 C 25.105469 56.417969 27.179688 60.402344 32 60.402344 C 36.820313 60.402344 38.894531 56.417969 38.894531 56.417969 Z M 63 57 L 63 63 L 57 63 L 57 65 L 63 65 L 63 71 L 65 71 L 65 65 L 71 65 L 71 63 L 65 63 L 65 57 Z M 14 64 C 13.449219 64 13 64.449219 13 65 C 13 65.550781 13.449219 66 14 66 C 14.550781 66 15 65.550781 15 65 C 15 64.449219 14.550781 64 14 64 Z M 18 64 C 17.449219 64 17 64.449219 17 65 C 17 65.550781 17.449219 66 18 66 C 18.550781 66 19 65.550781 19 65 C 19 64.449219 18.550781 64 18 64 Z M 22 64 C 21.449219 64 21 64.449219 21 65 C 21 65.550781 21.449219 66 22 66 C 22.550781 66 23 65.550781 23 65 C 23 64.449219 22.550781 64 22 64 Z M 26 64 C 25.449219 64 25 64.449219 25 65 C 25 65.550781 25.449219 66 26 66 C 26.550781 66 27 65.550781 27 65 C 27 64.449219 26.550781 64 26 64 Z M 30 64 C 29.449219 64 29 64.449219 29 65 C 29 65.550781 29.449219 66 30 66 C 30.550781 66 31 65.550781 31 65 C 31 64.449219 30.550781 64 30 64 Z M 34 64 C 33.449219 64 33 64.449219 33 65 C 33 65.550781 33.449219 66 34 66 C 34.550781 66 35 65.550781 35 65 C 35 64.449219 34.550781 64 34 64 Z M 38 64 C 37.449219 64 37 64.449219 37 65 C 37 65.550781 37.449219 66 38 66 C 38.550781 66 39 65.550781 39 65 C 39 64.449219 38.550781 64 38 64 Z M 42 64 C 41.449219 64 41 64.449219 41 65 C 41 65.550781 41.449219 66 42 66 C 42.550781 66 43 65.550781 43 65 C 43 64.449219 42.550781 64 42 64 Z M 46 64 C 45.449219 64 45 64.449219 45 65 C 45 65.550781 45.449219 66 46 66 C 46.550781 66 47 65.550781 47 65 C 47 64.449219 46.550781 64 46 64 Z"/></svg>