<svg xmlns="http://www.w3.org/2000/svg" viewBox="0 0 48 48" width="100px" height="100px"><path fill="#ffca28" d="M24 4A20 20 0 1 0 24 44A20 20 0 1 0 24 4Z"/><path fill="#6d4c41" d="M17 18A4 4.5 0 1 0 17 27A4 4.5 0 1 0 17 18Z"/><path fill="#fff" d="M15.5 20A1.5 1.5 0 1 0 15.5 23A1.5 1.5 0 1 0 15.5 20Z"/><path fill="#6d4c41" d="M35,23.2V24c0,1.1-0.9,2-2,2h-4c-1.1,0-2-0.9-2-2v-1c0-2.2,1.8-4,4-4c0.1,0,0.3,0,0.4,0 C33.5,19.2,35,21.1,35,23.2z"/><path fill="#fff" d="M29.5 20A1.5 1.5 0 1 0 29.5 23A1.5 1.5 0 1 0 29.5 20Z"/><path fill="#b76c09" d="M18,36v-2c2.6,0,4-0.6,5.3-1.1c1.1-0.5,2.1-0.9,3.6-0.9c2.3,0,3.8,1.3,3.9,1.4l-1.3,1.5 c0,0-1-0.9-2.5-0.9c-1.1,0-1.8,0.3-2.8,0.7C22.7,35.3,21,36,18,36z"/></svg>