<svg xmlns="http://www.w3.org/2000/svg" viewBox="0 0 80 80" width="50px" height="50px"><path fill="#b0c1d4" d="M1.5,33.1v3.212h11.926V33.01c0,0,3.268-11.557,5.111-11.557c-0.424,2.826-0.14,8.047,1.704,8.047 c3.268,0,3.259-3.094,3.259-3.094c0.091-3.951,0.434-9.906-4.963-9.906S1.5,33.1,1.5,33.1z"/><path fill="#66798f" d="M13.926,36.812H1v-3.87l0.091-0.129C1.572,32.126,12.944,16,18.537,16 c1.546,0,2.783,0.465,3.677,1.381C24.174,19.39,23.937,22.95,24,26v0.418c0,0.05-0.008,1.531-1.056,2.582 c-0.662,0.663-1.571,1-2.704,1c-0.311,0-0.769-0.103-1.188-0.589c-1.047-1.217-1.31-4.404-1.138-6.837 c-1.017,1.544-2.643,5.761-3.989,10.505V36.812z M2,35.812h10.926l0.019-2.938c1.013-3.584,3.587-11.921,5.592-11.921h0.581 l-0.086,0.574c-0.382,2.543-0.13,6.176,0.779,7.231C19.997,28.975,20.145,29,20.241,29c0.857,0,1.528-0.237,1.996-0.706 C22.982,27.546,23,26.419,23,26.407l0.01-0.436c0.068-2.756,0.153-6.186-1.512-7.893C20.79,17.353,19.821,17,18.537,17 C14.362,17,5.276,28.61,2,33.258V35.812z"/><path fill="#b0c1d4" d="M78.5,33.1v3.212H66.574V33.01c0,0-3.268-11.557-5.111-11.557c0.688,3.485,0.14,8.047-1.704,8.047 c-3.268,0-3.259-3.094-3.259-3.094c-0.136-3.361-0.434-9.906,4.963-9.906S78.5,33.1,78.5,33.1z"/><path fill="#66798f" d="M79,36.813H66.074V33.08c-1.316-4.64-2.9-8.774-3.923-10.399c0.266,2.511-0.015,5.369-1.048,6.627 C60.633,29.88,60.113,30,59.759,30c-1.132,0-2.042-0.337-2.704-1c-1.048-1.051-1.057-2.532-1.056-2.595 c0.053-2.721-0.276-6.786,1.842-8.992c0.9-0.938,2.119-1.413,3.621-1.413c5.593,0,16.965,16.126,17.446,16.813L79,32.941V36.813z M67.074,35.813H78v-2.555C74.724,28.61,65.637,17,61.463,17c-1.237,0-2.185,0.361-2.899,1.105 c-1.823,1.898-1.662,5.856-1.566,8.221C57.001,26.671,57.091,29,59.759,29c0.075,0,0.302,0,0.571-0.328 c0.895-1.089,1.189-4.35,0.642-7.122l-0.118-0.597h0.608c2.005,0,4.579,8.337,5.592,11.922l0.019,0.136V35.813z"/><path fill="#e1ebf2" d="M78.5,33.5h-77v26c0,0,0.752,0,1.674,0h28.064c1.269,0,2.426-0.698,2.995-1.796l3.348-8.131 c0.497-0.965,1.458-1.454,2.419-1.454s1.922,0.489,2.419,1.454l3.348,8.131c0.569,1.098,1.733,1.796,2.995,1.796h28.064 c0.922,0,1.674,0,1.674,0V33.5z"/><path fill="#788b9c" d="M79,60H48.762c-1.438,0-2.788-0.811-3.438-2.065l-3.366-8.172c-0.364-0.702-1.102-1.145-1.957-1.145 s-1.593,0.442-1.975,1.183l-3.33,8.094C34.017,59.208,32.699,60,31.238,60H1V33h78V60z M40,47.618c1.218,0,2.316,0.661,2.864,1.726 l3.366,8.17C46.691,58.401,47.692,59,48.762,59H78V34H2v25h29.238c1.085,0,2.063-0.585,2.551-1.526l3.329-8.092 C37.684,48.279,38.782,47.618,40,47.618z"/><g><path fill="#8bb7f0" d="M32.332,37.5c2.133,0,3.658,2.011,3.023,4.022c-1.389,4.401-3.583,11.015-4.683,12.559 c-0.355,0.802-1.154,1.42-2.044,1.42l-18.446,0.003c-0.908,0-1.682-0.734-1.682-1.63V39.303c0-0.957,0.816-1.803,1.785-1.803 H32.332z"/><path fill="#4e7ab5" d="M9.895,56C8.692,56,8,55.048,8,53.873V39.304C8,38.055,9.046,37,10.285,37h22.047 c1.196,0,2.282,0.545,2.978,1.495c0.677,0.924,0.867,2.082,0.521,3.177c-1.544,4.895-3.611,11.04-4.723,12.656 c-0.463,1.002-1.454,1.672-2.48,1.619L9.895,56z M10.285,38C9.6,38,9,38.609,9,39.304v14.569c0,0.612,0.541,1.13,1.182,1.13 L28.628,55c0.643,0,1.295-0.461,1.586-1.122l0.05-0.088c0.803-1.126,2.441-5.537,4.613-12.419c0.249-0.788,0.112-1.621-0.375-2.285 C33.997,38.396,33.206,38,32.332,38H10.285z"/></g><g><path fill="#f78f8f" d="M47.668,37.5c-2.133,0-3.658,2.011-3.023,4.022c1.389,4.401,3.583,11.015,4.683,12.559 c0.355,0.802,1.154,1.42,2.044,1.42h18.522c0.908,0,1.606-0.829,1.606-1.725V39.205c0-0.957-0.74-1.705-1.709-1.705H47.668z"/><path fill="#c74343" d="M69.895,56H51.372c-1.026,0-2.017-0.67-2.48-1.672c-1.111-1.616-3.178-7.762-4.723-12.656 c-0.345-1.095-0.155-2.253,0.522-3.177C45.387,37.545,46.472,37,47.668,37h22.123C71.03,37,72,37.969,72,39.205v14.569 C72,54.98,71.036,56,69.895,56z M47.668,38c-0.874,0-1.666,0.396-2.171,1.086c-0.487,0.664-0.624,1.497-0.375,2.285 c2.172,6.882,3.811,11.293,4.613,12.419l0.05,0.088C50.077,54.539,50.729,55,51.372,55h18.522C70.556,55,71,54.366,71,53.774 V39.205C71,38.519,70.48,38,69.792,38H47.668z"/></g></svg>