<svg xmlns="http://www.w3.org/2000/svg" viewBox="0 0 80 80" width="300px" height="300px"><path fill="#c74343" d="M4.756 40L20.5 26.108 20.5 34.5 37.5 34.5 37.5 45.5 20.5 45.5 20.5 53.892z"/><path fill="#ab3434" d="M20,27.216V34v1h1h16v10H21h-1v1v6.784L5.511,40L20,27.216 M21,25L4,40l17,15v-9h17V34H21V25L21,25 z"/><path fill="#f76d6d" d="M57.5 23.5H75.5V56.5H57.5z"/><path fill="#c74343" d="M75,24v32H58V24H75 M76,23H57v34h19V23L76,23z"/><g><path fill="#f78f8f" d="M44.5,73.5v-67H48c5.79,0,10.5,4.71,10.5,10.5v46.211C58.5,68.98,53.888,73.5,48,73.5H44.5z"/><path fill="#c74343" d="M48,7c5.514,0,10,4.486,10,10v46.211C58,68.7,53.607,73,48,73h-3V7H48 M48,6h-4v68h4 c6.075,0,11-4.714,11-10.789V17C59,10.925,54.075,6,48,6L48,6z"/></g></svg>