<svg fill="#000000" xmlns="http://www.w3.org/2000/svg" viewBox="0 0 64 64" width="100px" height="100px"><path d="M 3 16 C 1.347656 16 0 17.347656 0 19 L 0 43 C 0 44.652344 1.347656 46 3 46 L 20.050781 46 C 20.566406 52.699219 26.171875 58 33 58 C 39.828125 58 45.433594 52.699219 45.949219 46 L 61 46 C 62.652344 46 64 44.652344 64 43 L 64 19 C 64 17.347656 62.652344 16 61 16 Z M 3 18 L 61 18 C 61.550781 18 62 18.449219 62 19 L 62 43 C 62 43.550781 61.550781 44 61 44 L 45.949219 44 C 45.460938 37.628906 40.371094 32.539063 34 32.050781 L 34 21 C 34 20.449219 33.554688 20 33 20 C 32.445313 20 32 20.449219 32 21 L 32 32.050781 C 25.628906 32.539063 20.539063 37.628906 20.050781 44 L 3 44 C 2.449219 44 2 43.550781 2 43 L 2 19 C 2 18.449219 2.449219 18 3 18 Z M 5 20 C 4.445313 20 4 20.449219 4 21 C 4 21.550781 4.445313 22 5 22 L 7 22 C 7.554688 22 8 21.550781 8 21 C 8 20.449219 7.554688 20 7 20 Z M 17 20 C 16.445313 20 16 20.449219 16 21 L 16 41 C 16 41.550781 16.445313 42 17 42 C 17.554688 42 18 41.550781 18 41 L 18 21 C 18 20.449219 17.554688 20 17 20 Z M 49 20 C 48.445313 20 48 20.449219 48 21 L 48 41 C 48 41.550781 48.445313 42 49 42 C 49.554688 42 50 41.550781 50 41 L 50 21 C 50 20.449219 49.554688 20 49 20 Z M 5 25 C 4.445313 25 4 25.449219 4 26 C 4 26.550781 4.445313 27 5 27 L 7 27 C 7.554688 27 8 26.550781 8 26 C 8 25.449219 7.554688 25 7 25 Z M 5 30 C 4.445313 30 4 30.449219 4 31 C 4 31.550781 4.445313 32 5 32 L 7 32 C 7.554688 32 8 31.550781 8 31 C 8 30.449219 7.554688 30 7 30 Z M 33 34 C 39.066406 34 44 38.933594 44 45 C 44 51.066406 39.066406 56 33 56 C 26.933594 56 22 51.066406 22 45 C 22 38.933594 26.933594 34 33 34 Z M 5 35 C 4.445313 35 4 35.449219 4 36 C 4 36.550781 4.445313 37 5 37 L 7 37 C 7.554688 37 8 36.550781 8 36 C 8 35.449219 7.554688 35 7 35 Z M 33 38 C 32.445313 38 32 38.449219 32 39 L 32 44 L 27 44 C 26.445313 44 26 44.449219 26 45 C 26 45.550781 26.445313 46 27 46 L 32 46 L 32 51 C 32 51.550781 32.445313 52 33 52 C 33.554688 52 34 51.550781 34 51 L 34 46 L 39 46 C 39.554688 46 40 45.550781 40 45 C 40 44.449219 39.554688 44 39 44 L 34 44 L 34 39 C 34 38.449219 33.554688 38 33 38 Z M 5 40 C 4.445313 40 4 40.449219 4 41 C 4 41.550781 4.445313 42 5 42 L 7 42 C 7.554688 42 8 41.550781 8 41 C 8 40.449219 7.554688 40 7 40 Z"/></svg>