<svg xmlns="http://www.w3.org/2000/svg" viewBox="0 0 64 64" width="300px" height="300px"><path fill="#fff7f7" d="M52.958,11c-0.215-2.27-2.105-4.053-4.431-4.053C46.056,6.947,44,8.529,44,11H19.917 c-0.006-0.068-0.023-0.133-0.032-0.2c-0.03-0.215-0.076-0.421-0.135-0.625c-0.032-0.108-0.061-0.218-0.1-0.322 c-0.053-0.141-0.115-0.275-0.182-0.409c-0.034-0.069-0.072-0.135-0.11-0.202c-0.153-0.273-0.331-0.526-0.536-0.76 c-0.011-0.012-0.02-0.025-0.03-0.037c-0.119-0.133-0.246-0.256-0.38-0.373c-0.013-0.011-0.027-0.022-0.04-0.033 c-0.782-0.671-1.786-1.091-2.898-1.091c-2.327,0-4.216,1.783-4.431,4.053H11v30.053h4h38V11H52.958z"/><path fill="#faefde" d="M16 14c0-2.519-1.869-4.582-4.292-4.929-.354.573-.598 1.222-.665 1.929H11v30.053h4 .995C15.995 41.035 16 41.018 16 41V14zM32 15A15 11 0 1 0 32 37 15 11 0 1 0 32 15z"/><path fill="#85cbf8" d="M53 57L53 41 11 41 11 57"/><path fill="#7bbeeb" d="M11,57h4.899C15.965,56.677,16,56.343,16,56V41h-5V57z"/><path fill="#8d6c9f" d="M48,26c0-6.617-7.178-12-16-12s-16,5.383-16,12s7.178,12,16,12S48,32.617,48,26z M32,36 c-7.72,0-14-4.486-14-10s6.28-10,14-10s14,4.486,14,10S39.72,36,32,36z"/><path fill="#8d6c9f" d="M53.97,10.852c-0.286-2.752-2.617-4.904-5.444-4.904c-2.773,0-4.942,1.685-5.423,4.053H20.896 c-0.481-2.368-2.65-4.053-5.423-4.053c-2.826,0-5.158,2.153-5.444,4.905C10.022,10.902,10,10.948,10,11v29v1.053V55 c0,1.654,1.346,3,3,3h38c1.654,0,3-1.346,3-3V41.053V41V11C54,10.947,53.978,10.902,53.97,10.852z M52,41v0.053V55 c0,0.551-0.448,1-1,1H13c-0.552,0-1-0.449-1-1V42h29c0.553,0,1-0.448,1-1s-0.447-1-1-1H12V11.421c0-1.916,1.559-3.474,3.474-3.474 C17.172,7.947,19,8.902,19,11c0,0.552,0.447,1,1,1h24c0.553,0,1-0.448,1-1c0-2.098,1.828-3.053,3.526-3.053 c1.915,0,3.474,1.558,3.474,3.474V41z"/><path fill="#8d6c9f" d="M26 22A2 2 0 1 0 26 26 2 2 0 1 0 26 22zM38 22A2 2 0 1 0 38 26 2 2 0 1 0 38 22zM49 40h-4c-.553 0-1 .448-1 1s.447 1 1 1h4c.553 0 1-.448 1-1S49.553 40 49 40zM16 50c-.553 0-1 .448-1 1v2c0 .552.447 1 1 1s1-.448 1-1v-2C17 50.448 16.553 50 16 50zM21 50c-.553 0-1 .448-1 1v2c0 .552.447 1 1 1s1-.448 1-1v-2C22 50.448 21.553 50 21 50zM26 50c-.553 0-1 .448-1 1v2c0 .552.447 1 1 1s1-.448 1-1v-2C27 50.448 26.553 50 26 50zM31 50c-.553 0-1 .448-1 1v2c0 .552.447 1 1 1s1-.448 1-1v-2C32 50.448 31.553 50 31 50zM36 50c-.553 0-1 .448-1 1v2c0 .552.447 1 1 1s1-.448 1-1v-2C37 50.448 36.553 50 36 50zM41 50c-.553 0-1 .448-1 1v2c0 .552.447 1 1 1s1-.448 1-1v-2C42 50.448 41.553 50 41 50zM46 50c-.553 0-1 .448-1 1v2c0 .552.447 1 1 1s1-.448 1-1v-2C47 50.448 46.553 50 46 50zM34 28c-.553 0-1 .448-1 1 0 .551-.448 1-1 1s-1-.449-1-1c0-.552-.447-1-1-1s-1 .448-1 1c0 1.654 1.346 3 3 3s3-1.346 3-3C35 28.448 34.553 28 34 28z"/></svg>