<svg fill="#000000" xmlns="http://www.w3.org/2000/svg" viewBox="0 0 50 50" width="500px" height="500px"><path d="M 6 2 L 6 48 L 34 48 C 34.007813 48.003906 34.023438 47.996094 34.03125 48 C 35.699219 49.25 37.761719 50 40 50 C 45.511719 50 50 45.511719 50 40 C 50 35.914063 47.519531 32.394531 44 30.84375 L 44 2 Z M 8 4 L 42 4 L 42 30.21875 C 41.351563 30.085938 40.6875 30 40 30 C 37.761719 30 35.699219 30.75 34.03125 32 L 20 32 L 20 34 L 32.03125 34 C 30.765625 35.675781 30 37.746094 30 40 C 30 42.253906 30.765625 44.324219 32.03125 46 L 8 46 Z M 13 14 L 13 16 L 17 16 L 17 14 Z M 20 14 L 20 16 L 37 16 L 37 14 Z M 13 20 L 13 22 L 17 22 L 17 20 Z M 20 20 L 20 22 L 37 22 L 37 20 Z M 13 26 L 13 28 L 17 28 L 17 26 Z M 20 26 L 20 28 L 37 28 L 37 26 Z M 13 32 L 13 34 L 17 34 L 17 32 Z M 40 32 C 44.429688 32 48 35.570313 48 40 C 48 44.429688 44.429688 48 40 48 C 35.570313 48 32 44.429688 32 40 C 32 35.570313 35.570313 32 40 32 Z M 39 35 L 39 39 L 35 39 L 35 41 L 39 41 L 39 45 L 41 45 L 41 41 L 45 41 L 45 39 L 41 39 L 41 35 Z"/></svg>