<svg id="Layer_1" data-name="Layer 1" xmlns="http://www.w3.org/2000/svg" viewBox="0 0 974.758 537.349"><title>1</title><g id="Illustrations_levitate" data-name="Illustrations/levitate"><path id="Accent" d="M829.884,287.551c5.6-3.7,17.3,13.2,12.2,19.2C837.984,312.851,825.484,291.651,829.884,287.551Zm-19.9-6.8c3.3,1.7,5.5,3.2,2.8,7.2C795.884,291.551,802.584,269.851,809.984,280.751Zm-16.5-35.1c7-1,16.1,6.3,10.1,11.9-3-.4-5.8-1.5-9.4-.1C782.484,259.851,779.784,245.551,793.484,245.651Zm-6.7,30.1c4.6,6.6,4.1,16.6,3.4,25.5C781.584,299.451,783.184,281.251,786.784,275.751Zm-30.2-24.1c-6-.6-11.2-8.9-5.3-14.1,6.4-3.3,18.2,3.8,18.2,11.1C769.084,256.051,762.784,253.351,756.584,251.651Zm-22.8-58.8c4.3,1.4,12.3,18.3,7.7,22C735.384,217.951,728.184,196.551,733.784,192.851Zm-30.5,18.4c4.3-12.5,18.7,9.6,15.3,16.6C712.884,232.751,702.784,217.451,703.284,211.251Zm4.4-42.3c6.8,9.1-4.6,14.8-11.9,17.7C678.784,190.751,701.384,163.251,707.684,168.951Zm-34.7-5c-4.2-8.8,6.6-24.9,6.4-9.3C677.184,158.251,678.384,178.351,672.984,163.951Zm-16-20.7c-.3-8.1,7.4-11.9,6.5.3C661.984,150.051,657.884,152.751,656.984,143.251Zm1.5-34.8c1,3.2,1.1,6.3-2.6,7.5C625.384,130.051,652.284,95.651,658.484,108.451Zm-13.9-27.2c5.8,3.3,9.7,17.1-.9,10.6-7.3-2-13.4-3-21.5-4.7C606.384,75.351,637.484,73.251,644.584,81.251Zm-34.9,143.3c-6.9-13.2,9.1-10.4,16.5-7.5C637.584,225.851,615.684,228.251,609.684,224.551Zm.3-118.6c-4.4-.8-8.6-3.8-14.3-3.1C586.684,82.551,617.384,92.251,609.984,105.951Zm-10.6,12.3c8.2-5.7,3.5,20.6.2,24.3C587.784,155.651,596.584,122.551,599.384,118.251Zm71.5,158.7c-2.5,13.9-11.3,25.1-7.8,2.6C663.484,271.251,673.584,262.851,670.884,276.951Zm-104.6-194.6c3.2-11.5,8.5-20.5,12.9-32.1a15.993,15.993,0,0,1,2.5,19.5C579.284,73.751,567.384,98.451,566.284,82.351Zm1.6,37.7c-1.3,5.5,4,11.3,1.7,15.5C554.584,137.251,561.284,93.451,567.884,120.051Zm-33-87.6c6.6,0,25.9-2.2,21.1,8.2C548.584,41.751,521.584,45.451,534.884,32.451Zm3.3,24.5c4.5,2,11.1,9.6,7,14.4C538.284,73.151,531.684,61.251,538.184,56.951Zm.8,87.8c-.7,3.4.9,18.8-5.8,16.6-5.3-11.8-.2-38.2,11.1-16.2C542.584,145.051,541.084,144.951,538.984,144.751Zm-3.9-34c1.2,2.8-3.3,9.3-6,5C526.884,112.551,532.084,102.551,535.084,110.751Zm-24.2-45.9c6.5,9.4,17.7,14.3,26.2,23.3,8.5,16.3-15.7,3.2-20.2-2.6C512.784,82.051,501.584,67.551,510.884,64.851Zm-18.9,75.5c6.2-6.1,20.2-18.2,13.6-.5C502.584,145.151,489.284,152.751,491.984,140.351Zm12.1-26.7c-7.4-4.7-11.9,3-19,3.8C477.584,104.751,508.184,96.351,504.084,113.651Zm-38.1-39.8c5.5,3.3,18.5,13.2,13.6,19.4C472.884,91.151,460.284,80.351,465.984,73.851Zm-36.2,123.9c.5-4.5,7.5-6.2,5.2,1.2,2.1,2.7,6.7,6.2,5.5,11.5C435.984,218.551,425.884,204.251,429.784,197.751Zm-2.4-35.8c11.3,4.9,2,11-6.4,11.3C415.684,167.151,419.584,160.251,427.384,161.951Zm1.3-116.1c-10.8-12,24.2-8.9,20.6,1.9C443.184,45.551,435.784,48.051,428.684,45.851Zm388,194.2c-17.5-18.1-39.3-28.9-56.1-47.6-58.5-68-39.1-43.5-65.3-45.8-5.7-5.2.8-10.7,8-9.1-29.3-49.3-61-67.2-90.9-98.5-3.5-5.2-8.8,9.2-14.5,0-3.9-5,6.1-7.4,2.5-11.2-15.9-17.7-9.7-10.7-24.4-.3-4.3-5.5-.8-10.2,4.3-14.5-10.2.9-7.4-6.1-13.8-7.8-23,3.9-43.5,14.5-66.5,15.5-8.2,2.9-9.3,20.8-12.7,28.5-7.3,3.6-5.3-21-2.2-24.8-1.6,0-7.6-5.5-14.8-4.3-80.3-3-94-12.1-63.3,36.8,3.2,9.8,16.2,2.7,21.2,10.3,1.5,4-2.2,4.4-6.1,4,.5.7,1.1,1.4,1.6,2.1-9.9,8.9,9.1,17.6,13.3,26.4,4.7,6.5,6.2,20.1,16,13.5,1.5,5.3,8.8.4,13.7,1.4,5.3,4.3-2,9.5-6.9,10.2,4.2,4.1-2,6.9-1,12.4,6.3,9.5,16.4,48.7-4,33.8-6.9-7.8,1.7-11.2,9.7-9.3.6-3.7-1-9-2.7-13.4-5.1,4.1-13.3,5.2-8.9-6-9.4,2.2-20.4,4.5-31.2,4.6,6.5,14.6-9.1,8.8-13.3.2-3.3-.8-10.8-1.4-15.6-1.7,3.3,12.2,11.8,27.9,15.6,41.6,4.3-4.2,13,2.6,9,6.6a57.082,57.082,0,0,1-9,3.6c4.4,12.1,4.5,84.6,9,65.4,1.1-8.5,11.3-17.3,6.4-22.3-11-9,3.7-14.8,7.4-4.5,8.6-10.1,21.9-16.8,27.5-30.2,5.5,3.2,8.3-1.6,11.3-8.3,2.3,4.9,11,4.7,13.6-1.1,2.1-4.7-1.6-6.9,4.8-10,6.3-3,3.5-10.1,7.7-16.6,3.6-2.6,5.6,6.4,3.7,9.9,2.6,1,6.1-4.9,8.8-1.9,15.3,4.7,33-1,48.7-3.1,6.1-1.3,20.5,24.4,25.7,31.1,14.9-20.7,18.3-5.2,6.1,5.6,10.1,11.9,23.1,28.8,33.2,42.3-1.3-8.1,11.2-20.6,12.3-11.6-8.6,12.6,5.4,31.3,11.2,41.1a97.216,97.216,0,0,1,9,18.3c10.2-3.4,23.8-9.5,33.9-16.4-5.8-3.8-.7-9.1,6.2-6.4-3.2-3.1,1-6.7-.5-11.9-3.6-8.2-10.8-11.2-18.5-13.6-13.2,15.3-33.3-8.8-3.1-4.4-5.8-7.9-15.2-22-24.4-25.4-9.3,2.4-20.4-6.2-7.3-10.6-9.2-9.7-2.1-12.4-6.8-18.6-3.6-4.9-11.5-9.2-13.7-16.2-.1-6.8-7-15.1,3.2-16.6-3.7.7-1.3-28.4,4.2-17.3,3.2,4-3.4,19.7,4.4,14.8,2,10.9,5.5,9.6,12.2,12.4,2.5,3,5,6.7,8.2,10.5,6.4-11,23.2-9.2,16.4,4.4-2-2-3.9-.8-7.1,1.2,21.9,22.1,35.5,45.1,53.7,58.2s32.2,28.8,51.6,40.7c7.2,20.7,3.4,26.7,25.9,31,4.3,7,5,13.7,12.2,10.1.9,1.5,2.8,3.1,4.5,5.6.4-5.7,13.1-25.7,14.9-11.4-4.1,5-8.1,14.9-12.1,20.4,3,6.4,8.3,14.5,9.2,23,9.4-8,20.3-19.7,29.9-26.3a18.951,18.951,0,0,1,1.9-11.4c4.7,16.6,5.2,1.9,13.9,4.5,2.5,1.9,6.1.1,9.3-.4.8-3.1,3.8-7.5,0-11.6C863.084,282.951,835.184,265.151,816.684,240.051Z" fill="#34558b" fill-rule="evenodd"/><g id="ink"><path id="ink-layer" d="M708.784,348.4c2.3-2-1.3-8.4-1.3-13.2.9-16.9,14,20.1,25.5,17.4-4.7-5-6.7-17.6-13.5-13.7,6.7-4.5-1.6-16.9,6.2-22.7-4.2-1.9-12.7-14.5-16.3-7.6-3.2-4.6-6.2-8.9-9.4-13.5-3.9,4.6-16.9,3.7-17,11.2.7,3.8,6,8,.8,11,2.5,9.2,4.2,21.3,11.2,29.6-.8-27.4,6.1-12.2,13.8,1.5Zm145.2,2c6.1,5.6,26.1,24.1,20.8,27.6-7.4,2.3-4.6,9.2-5.5,16.8,9.9-12.8,9,9.6,11.8,16.1,3.1,9.4,9.5,15,16.4,22.9-15.1-48.3-1.8-18.9,18.3-4.1-1.5-7.3-6.8-14.4-12.6-20.4-9.4-22.2,20.2,16.5,27.4,14.1-2.8-4.5-2.5-12.5-7.7-15.9-12.3-6.7-19.6-19.5-26-33-11.3-7.1-11-24.7-19.9-37.2-6.7,1-15.6,8.7-23,13.1Zm-490.5,73.3c1.5-9.2,3.7-20,5.5-29.9-3.3-19.9-5-38.4-6.6-59.2-5.9-35.2.9-48.3-34-50.5-4-.2-2.7,10.4-3.9,15-3,3.7-1.6,7.1-3.5,11.7-2.2,3.8,3.3,9.1,4.7,14.1,16.6,31.6,14.6,67.2,29.7,99.8.5-3.8,4.5-4.2,8.1-1Zm245-385.5c-6.8-7.3-14.7-16.2-22.9-23.7-24.6-4.9-49.2,4.9-74.3,11.3-37.4,8.1-88.1,5.1-116.3-4.8-.4,20.4,16.7,36.4,28,53.2,27.5,35.9,61.7,77.2,50.4,122,70.8-54.5,116.5-11.7,167.6-42.9,2.6,3.4.9,6.4-.1,11.4a263.241,263.241,0,0,0,35,36c60.5,60.3,133.5,101.7,147.1,159.6,17.9-13.4,36.2-33.3,53.4-29.1-29.8-60.7-91.9-97.5-136.8-147.1-12.5-14.1-23.1-26.7-34.6-42.4-31.2-53.4-65.9-71.2-96.5-103.5Zm151.4,4c-16.6-2.3-19.7-2.3-31.7-13.5-4.3,14.2-21.9-2.8-12.8,23.9-8.7,8.3-11-7.1-7.9-14.2-26.1.2-4.8,25.8-.8,38.9-6.2,8.1-14.3-5.7-15.7-12.3-10.1,3.1-20.8,4.7-32,7.4,82.1,73.4,26.7,59.9,72.7,36.8,2.6-2,.2-6.9,4.8-9.8,1.8-1.1,3.6-.3,4.6,2.6,5.1,27.1,25.7,5.6,8-6.4.1-4.4,8.1-2,7.4-7.3-.1-20.5,15.8-36.3,29.5-50.6-2-.4-3.6-.7-5.3-1.1,1,.9,1.7,1.6,2.7,2.6-4.1,2.9-8.6,1.6-12.1,3.5-1,7.8-3.8,11.2-9.2,10.7.8-3.6,1.5-7.2,2.3-10.8a34.259,34.259,0,0,0-4.5-.4Zm-339.2,105c-8,.9-16-.3-25.1-.1,22.5,49.6,16.4,77,20.2,115.6,7.6-29.4,32.6-38,42.6-63.5,7-15.7,8.3-31.5,3-48.7-1-3.5-3.4-8.5-8.1-6.5-10.4,3.8-21.1,2.8-32.6,3.2Zm-4.8-12c11.9.9,24.7,1.5,37.8-.7-7.1-12.7-14.1-24.5-23.9-36.5-57.7-72.8-22.2-62.8-56.3-62.1,19.7,29.5,25.6,64.2,24.1,99.4h18.3Zm217.9,126.4c33.7,39.5,8.1,43.9,46.2,27.8,4.1-4.7,18.6-5.1,13.1-12.5-14.7-24-33.6-42.9-53.1-64.1-27.4-36.1-15.3-35.9-36.1-32-11.7,2.3-22.1-.3-34.6,2.2,20.2,26.3,43.7,51.6,64.5,78.6Zm49.6-201.5q1.5-.3,2.7-.6c-8.5-28.8,17.2-28.5,35.1-31.9,1.6-3.9,2.5-7.5,8.5-7.6,15.7,9.3,11.6,12.1,32.2,14.2,5.2.8,8.5,2.3,14.7,2.3,2.1-1.6,3.8-3.9,7.3-4.4,22.4-2,42.7,14.2,49.5,35.5,5.2,12.8,0,26.5-4.8,39.2,7.3,20.6,68,20.1,44.9,52.9,31.4,17,62.3,38.2,86.3,66.4,11.8,14.8,27.7,48.7-2,50.3-4.1-.2-11,2-11.1,8.3,1.1,10.7,9.4,16.4,13.3,27,39.7,82.1-48,33.4-79.5,11,1.1,3.4,3,8,4.1,12-1.1,1.9-1.8,1.8,1.2,4.8,10.5,12,12,25.9,22.7,38.2,5.5,13,43,29.2,26.2,40.9,6.4,17.3-2,16.4-14,7.4,8.5,20.2-5.4,13.3-16,4.1,16,56-32.1,1.3-33.3-19.6-14.8,13.4-15.9-7.1-13.7-18.4-.4-3.5,4.1-7-.1-9.2,5-6.2,1.1-16.8-4.6-23.4-5.9-14.5-22.5,11.5-33.8,8.8-10-12.7-19-30.4-29.4-45.9-6.8,24.6-27.2,34.5-41.8,8.2-8.2-21.5-5.8-44.3-21.9-62.7-19.7-28-45-49.2-69.6-73.4-27.4-27.9-11.4-30.9-34.6-17.9,25.1,34.8,65.3,60,82,101.5.7,5.2.6,9.3,5,13.6,4.4,9.4,12.2,12.8,20.1,18.8,6.9,6.2,10.2,17.7-3.1,16.2,4.4,11.9,15.8,20.8,19.9,33.3,5.3,18.8-25.2-3-29.4-8.3,1.4,14-4.4,14.1-12,2.1,1.8,23.4-16.7-4-19-12-4.8-10.8-3.3-21.6-9.8-31.9-2.9-5.2-16.7,3.5-21.8,3.1-6.4-1-21.9-9.5-7.4-12.3-23-41.7-61.7-73.3-83.1-116.6-29.8-7.4-65.8,12.5-91.1,31.1-65.8,55.9-43.8,74.4-61.5,60-16.7-25.9-4.7-58.1-11.7-87.5-2-10-5.8-24.4-11.5-31.9-2.4.2-4,.9-5.3-2.3-1.2-5.8-3.7-5-9.1-2.5-9.8,3.7-17,6.8-28,7.5-51.8-.4-101.7-5.9-153.8-11.3,45.5,31.6,64.8,63.5,95.5,90.1,33.3,31.8,41.2,22,38.8,39.1,9.1,4.5,29.7-2.4,35.1,12.6,14.9,40.1,11.4,83.9,18.4,126.5-9.1-1.4-.6,27.6-15.1,18.5-8.2,25.2-27.3-31.4-27.9-37.8-5.1-25.1-8.3-50-17.6-74.5-2.7,2.7-4.1,12-10.8,8.6-19.2-8.2-37.5-18.8-56.2-29.9-47.7-24.6-90.6-55.9-127.7-94.8-20.9-21.4-49.4-43.1-45.8-77,4-34.9,100.2-62.7,119.3-71,29-14.9,169.7-55.8,172.7-29.6,6.8,1.1,7-6.4,11.8-10.5,2.9-2.9,5.7.1,7.8-4.9,29.9,3.7,60.8,4.2,91.8,3,33,.1,60.3-20.1,93.9-14,29.6,13.8,48.7,49.1,78.8,65.8,9.4-3.5,18.4-7.4,29.3-7.3Z" fill-rule="evenodd"/><path id="ink-layer-2" data-name="ink-layer" d="M102.484,407.9c-4.3,28.1-10.3,29.5-29.4,46.3-18.8,21.6-42.3,39.7-57.9,65,35-32.4,85.2-28.3,100.5-50.6,7.3-11.5,7.3-24.3,8.4-38.3,5.6-30.1-.9-17.2-21.6-22.4m-5.3-1.4c-3.3-3.8-3.9,3.3-8.1.3-2.9-14,1.8-29.4,2.2-44.6,5.3-51,14.7-100.1,37.9-146.6,78,69.9,70.2,37.5,47.2,91.5-10.2,14.8-14.7,30.7-20.8,48.3-6.6,18.5-15.7,34-13.5,55.1-.9,4.8-8.2-1.9-7.9,4-1.4,18-.6,35.4-6.3,53.3-5.5,13.4-16,22.7-31,25.7-31.2,10.8-60.6,19.1-85.7,43.6-34,4.8,19.5-61.4,28.7-66.3,32.1-36.4,52.9-42,57.3-64.3" fill-rule="evenodd"/><path id="ink-layer-3" data-name="ink-layer" d="M414.984,13.7c-2.7-.2-5.3-.5-8-.7,2.7.3,5.3.5,8,.7" fill-rule="evenodd"/><path id="ink-layer-4" data-name="ink-layer" d="M335.984,158.4c1.7,0,3.3,0,5,.1-1.7-.1-3.3-.1-5-.1" fill-rule="evenodd"/><path id="ink-layer-5" data-name="ink-layer" d="M343.984,18.9c-2,1.1-4,1.5-6,.1,2,0,4-.1,6-.1" fill-rule="evenodd"/><path id="ink-layer-6" data-name="ink-layer" d="M360.984,19.7l-6-.6,6,.6" fill-rule="evenodd"/><path id="ink-layer-7" data-name="ink-layer" d="M757.984,32.7c-2-.2-4-.4-6-.7,2,.3,4,.5,6,.7" fill-rule="evenodd"/><path id="ink-layer-8" data-name="ink-layer" d="M795.984,31.7c-1.7-.2-3.3-.4-5-.7,1.7.3,3.3.5,5,.7" fill-rule="evenodd"/><path id="ink-layer-9" data-name="ink-layer" d="M329.984,20.8h-5c1.6-1.2,3.3-1,5,0" fill-rule="evenodd"/><path id="ink-layer-10" data-name="ink-layer" d="M375.184,367.4c-.1-1.7-.2-3.3-.4-5,.1,1.7.2,3.3.4,5" fill-rule="evenodd"/><path id="ink-layer-11" data-name="ink-layer" d="M347.984,157.4c1,0,2,0,3-.1-1,.1-2,.1-3,.1" fill-rule="evenodd"/><path id="ink-layer-12" data-name="ink-layer" d="M286.984,28.1c-1.3.2-2.7.4-4,.6,1.3-.2,2.7-.4,4-.6" fill-rule="evenodd"/><path id="ink-layer-13" data-name="ink-layer" d="M265.984,154.4c1,0,2,0,3-.1-1,.1-2,.1-3,.1" fill-rule="evenodd"/><path id="ink-layer-14" data-name="ink-layer" d="M415.984,134c1.7.2,3.3.5,5,.7-1.7-.2-3.3-.4-5-.7" fill-rule="evenodd"/><path id="ink-layer-15" data-name="ink-layer" d="M762.984,41.4c-1,0-2,0-3-.1,1,.1,2,.1,3,.1" fill-rule="evenodd"/><path id="ink-layer-16" data-name="ink-layer" d="M753.984,43.4c-2.5,5-9.5,3.8-3.8,11.1,5.8,4.9-2,7.7-6.1,4.6-7.8-7.9.5-15.9,9.9-15.7" fill-rule="evenodd"/></g></g></svg>