<svg id="Layer_1" data-name="Layer 1" xmlns="http://www.w3.org/2000/svg" viewBox="0 0 925.13 612.778"><title>1</title><g id="Character_running" data-name="Character/running"><path id="Accent" d="M210.633,254.334c32.9,8.8,65.5,19.1,98.1,28.8,3.7,1.1,3.7,1.3,6.9-.7,8.9-5.4,18-10.5,27.2-15.4,27.8-14.8,56.3-26.6,86.9-34.1a669.927,669.927,0,0,1,65.8-12.7,45.316,45.316,0,0,1-12,19c-4.2,3.8-9.9,5.8-15,7.9-15.4,6-31.4,10.2-46.5,16.9-15.4,6.8-25.1,21-28,37.5-.5,3.1-.5,3.5,2,5.1a45.147,45.147,0,0,0,9.4,3.8c25.1,8.5,51.5,13.8,77.5,19,13.8,2.8,27.6,5.3,41.5,7.4,8.6,1.3,17.7,3,26.5,2.5,37.5-2.2,59.8-46.8,70.7-77.1,33.9,18.4,72.8,30.1,110.8,35.8,46,6.9,104,7.2,140.4-26.7,17.3-16.2,28-38,35.8-60.1-25.5-2.2-50.9-6-76.2-9.9l-13.2-2.1c-1.8-.3-4.5-1.3-6.3-1-2.8.4-6.3,3.4-8.8,4.7-18.7,10.2-38.1,19.5-58.2,26.6-10.8,3.8-21.9,7.2-33.3,8.4-12.2,1.2-24.8-1.3-36.6-4.3-29.6-7.5-60.7-20.2-85.4-38.5-6,8.6-16.9,14.4-27.2,10.2-11.3-4.5-17.6-16.4-23.7-26.2-2.2-3.6-6.4-3.6-10.5-4.6-11.5-2.9-23.1-5.3-34.8-7.3-38.4-6.5-77.9-8.7-116.7-4.2a298.618,298.618,0,0,0-108.4,34.9c-14.5,8-28.6,17.2-40.7,28.6-7.6,7.4-16.5,16.9-18,27.8" fill="#34558b" fill-rule="evenodd"/><path id="Ink" d="M324.933,6.234c11.9,4,22.6,9.8,33,16.6,5.1,3.3,10.2,7.2,15.8,9.5,5,2.1,10.5,3,15.6,4.7,23,7.7,48,9.2,71.4,1.8,23.9-7.5,44.1-23.6,68.8-28.7,24.1-4.9,48.5-3.8,71.6,5.1,11.2,4.3,20.7,11.6,30.3,18.7,9.2,6.8,18.8,13.5,25.9,22.6,7,8.9,11,20,14.1,30.8a65.119,65.119,0,0,1,2.5,19.1c-.1,4.5-2.5,8.9-1.1,13.3,2,6.1,4.9,10.7,4.1,17.5a22.95,22.95,0,0,1-7,14.1,34.2,34.2,0,0,1-14.2,8.4c-4,1.3-5.3,1-7.7-2.6-6.6,6-11.3,13.5-19.5,17.4a33.557,33.557,0,0,1-12.8,3.2c-3.4.2-6.6.3-9.4,2.4-3,2.2-14.1,11.9-9.9,15.8,2.5,2.2,8.2,2.7,11.4,4a75.581,75.581,0,0,1,12.6,6.6c14.6,9.4,29.2,15.3,46,19.5a217.557,217.557,0,0,0,53.3,6.8c16.4.1,33.7-1.2,48.9-7.8a78.4,78.4,0,0,0,20.4-12.7c6-5.3,9.6-12.7,15.8-17.6,4-3.2.3-8.1-.9-12.5a159.106,159.106,0,0,1-5.2-28.2,267.432,267.432,0,0,0-3.6-26.7c-1.7-9.4-5.2-18.1-7.7-27.3-1.8-6.8-3.7-14.7-1.5-21.6,1.1-3.4,3.4-7,6.7-8.7,3-1.5,4.8-.1,7.4-.2,7.8-.5,13.8,2.7,19.7,7.9,3.2,2.8,6.9,5.3,9.9,8.2,2.4,2.3,2.9,6,5.4,8,4.1-10.5,8.4-23.9,22.4-17.9,11,4.8,12.5,22.6,17.8,31.9,3-2.5,3.4-7.4,4.5-10.8a23.606,23.606,0,0,1,6.1-9.9c6.3-5.5,14-3.3,18.3,3.3,2.3,3.5.9,7.6,3.2,11.1s1.6,7.5,2.5,11.6c1.2,5.1,2.6,10.2,3.6,15.3.4,2.4,1.1,5.1,1,7.5,0,1-.9,2.8-.6,3.8.3,1.3,1.9,2.5,2.5,3.8.8,1.7.5,3,.6,4.8a37.174,37.174,0,0,0,2,9.1c2.3,8.1,1.8,18.3-1.7,25.9-1.8,4-3.1,6.8-3.6,11.1-.3,2.7-2.4,5.2-2.3,8.2.2,4.1,11.1,10.4,2.5,13.1-3.6,1.1-4.4.5-5.4,4.7a83.25,83.25,0,0,1-3.7,12c-3.4,8.3-8.4,15.7-13.2,23.2-5.1,8.2-10.6,16.1-18.2,22.1a137.755,137.755,0,0,1-23.2,14.3,116.445,116.445,0,0,1-54.9,12.9c-20.3-.5-40.9,1.4-61-2-20.6-3.5-40.7-9.4-61.2-13.3-9.2-1.8-17.8-3.7-26.2-8-8.5-4.4-17-8.9-24.8-14.5-5.4,12.9-8.3,26.3-15.9,38.1-6.7,10.3-14.8,20-24.7,27.4-9.7,7.2-22.3,12.6-34.5,13.1-3.7.1-9.4-1.5-12.1,1.3-1.3,1.4-1.5,4.2-2,6-.9,3.1-2.2,6.1-2.9,9.2-1.1,4.7,3.3,4.8,7.2,6.7,5.2,2.6,10.3,5.4,15.3,8.3,5.1,3,10,6.4,15.2,9.3,4.4,2.5,9,4.4,13.3,7.3,10.1,6.7,21.1,11.1,31.9,16.4,11.6,5.7,22.8,12,34.2,18,22.5,12,45.1,24.4,66.4,38.6,9.9,6.6,19.5,13.5,29.6,19.7,9.5,5.8,20.3,12.6,26.4,22.2,4.7,7.4,11.5,11,19.3,15,4.6,2.4,7.4,2.8,11.2-1.1,3.7-3.8,7.2-7.7,11.1-11.3,15.8-15,29.4-31.5,42.6-48.8,9.8-12.8,23.2-28.3,41.3-25.5,5.4.8,9,3.4,13,6.9,2.7,2.4,7.6,4,9.4,7.1,1,1.8,1.5,4.1,2.5,6,1.1,2,2.5,3.9,3.2,6,1.2,3.6-1.4,9.4,1.2,12.4,2,2.2.1,7.3-.4,9.7a106.674,106.674,0,0,1-3.4,13.5c-1.2,3.4-2.4,8.2-5,10.9-2.3,2.4-5,2.2-4.4,6.3-2.5-.8-4.6,5.2-5.4,6.7a40.37,40.37,0,0,1-7,10.7c-7.7,8.5-16.5,14.2-26.5,19.6-3.6,2-11.2,4.7-12.1,9.3-.8,4.4,1.7,7.9-.1,12.6-3.6,9.7-11.8,20-18.5,27.8-6,7-11.9,11.8-21.5,10.1-8.6-1.5-17-5.8-24.1-10.7-8.6-5.8-17.7-10.2-26.9-14.8-4.6-2.3-9.1-4.4-13.1-7.6-3.7-3-6.9-6.5-11.1-8.7-3-1.6-7-2.7-8.2-6.3-1.4-3.9,1.1-6.3,3.3-9.1,1.4-1.9,2.2-2.2,1-3.7-1-1.2-3.7-2.2-5.1-3-3.3-1.8-6.6-3.3-10.1-1.4-3.9,2.2-6.6,6.7-9.6,9.9a148.009,148.009,0,0,1-11.4,11c-7.7,7.1-16.1,13.4-23.6,20.7-1.7,1.7-5.1,5.9-7.9,5.1-2.1-.6-1-1.8-2.1-2.8-1.2-1-2.1-1-3.6-2.2-3.7-2.8-4.8-8.1-8.7-11-4-2.9-8.9-5.1-13.2-7.5-19.7-11.1-38.9-23-56.9-36.7-9-6.9-17.6-14.3-26.3-21.5-4.1-3.4-8.3-7.1-12.9-9.9-4.2-2.5-8.8-4.3-13.1-6.7-9.1-5.2-18.9-9.1-27.9-14.5-4.2-2.5-7.4-5.9-11.3-8.7-3.5-2.4-6.3-3.9-8.9-7.5-1.2,2.7-4.6-.8-5.8-1.6a32.069,32.069,0,0,1-3.1-1.9c-.9-.7-1.4-2.4-2.1-2.9-1.5-1.2-3.2-.9-5.2-1.6a28.584,28.584,0,0,1-8.3-5.5c-1.4-1.4.9-.3-1.5-2-1.1-.8-3.1-1-4.3-1.8-3-1.9-5.7-4.4-8.6-6.6-5.2-3.9-11.9-7.4-14.8-13.5-15.8,13-31.1,27.1-49.2,36.8-17.5,9.4-37.8,13.6-56.5,20.1-19.3,6.7-38.7,13.4-58.3,19-9.5,2.7-19.3,4.7-29.1,6.6-10,1.9-19.8,1.3-29.8,2.4-4.9.5-9.9.4-14.8.8-4.5.4-8.9,1.6-13.4,2.2-4,.5-8.4.1-12.3,1.2-2.8.8-6.5,3.6-8.5-.1-1.5,2.2-2,1.2-3.9,1a12.987,12.987,0,0,0-4.8.3c-3.3.6-7,.9-9.8-1.7-1.3,4.7-13.8.4-15.3-2.7-1.7,4.9-16.9.7-17.1-4-.2-3.9,2.4-9.6,3.5-13.3,1.8-6,3.9-11.9,6.2-17.8,2.4-6.2,4.9-12.4,7.4-18.5,1.1-2.7,2.1-5.5,3.4-8.1.6-1.3,2.2-3.2,2.2-4.7-.1-4.4-7.9-4.7-11.2-5.8a66.1,66.1,0,0,1-7.4-2.8c-1.7-.8-3.8-2.7-5.7-3-4.4-.6-3.4,4.4-3.9,7.4-.6,3.9-2.8,5.9-6.9,6-4.8,0-18.7-8.3-21.3-1.9-1.2,3-.9,8.7-1.3,11.9a58.983,58.983,0,0,0,.3,15.7c1.2,8.6,5.1,19.5.7,27.8-8.7,16.5-39.1,6.5-48.7-3.8-14.3-15.3-13.8-38.2-7-56.7,3.3-9,8.1-18.6,14.4-26,2.8-3.3,8.1-6.4,9-10.9.8-3.7-2.1-7.1-1.5-10.9.7-4.5,4.5-7.2,7.8-10,3.4-2.8,6.7-5.9,10.6-8.1,9-5.1,19.1-2,28.1,1.7a154.714,154.714,0,0,1,27.8,15.6c4.3,3,8,5.6,13.1,7,3.9,1.1,7.9,2.2,11.8,3.2,3.7,1,6.9,1.7,9.5-1.5,2.9-3.5,3.8-5,8.8-5.1,5.3-.2,10.6.1,15.9.3,1.1,0,3.7-.3,4.5.6.8.8-.4,2.6.4,3.1,1.2.8,7.7-8.4,8.3-.9.4-3.6,4.2-1.9,6.3-1.4.8.2,1.5.4,2.3.6a1.754,1.754,0,0,1,2.1.6,1.363,1.363,0,0,0,1.8-1c9.3-.1,18.6.4,27.9.4,10.7-.1,21.5-.2,32.1-1.7,3.9-.6,7.9-1.4,11.8-1.9a28.973,28.973,0,0,1,5.1.1,4.759,4.759,0,0,1,1.8.8,3.447,3.447,0,0,1,1.2-1.2c6.7-2,13.7-3.3,20.5-5a81.148,81.148,0,0,1,13.6-2.5l.9-.1,1.9.6a3.115,3.115,0,0,1,1.4-1.6,18.163,18.163,0,0,1,4.6-1.1c6.7-.7,13.2-.6,19.6-1.6,3.3-.5,15.5-2.4,17.7.9,1.7-4,14.1,1.5,17.7-.9-5.6-7.7-8.1-15.9-9.7-25.2-1.7-10.1-2.8-20.7-.3-30.8,2.4-9.3,7.5-18.8,14.6-25.3,6.8-6.3,8.4-13.9,12.9-21.6,9.5-16.2,25.1-26.1,42.4-32.1,9.5-3.3,19.1-6,28.6-9,7.8-2.4,14.2-5.9,18.2-13.4-33,0-64.6,10.2-94.8,22.7-15,6.2-30,12.6-44.8,19.2a199.781,199.781,0,0,0-22.1,11.3l-1.9,1.2a59.063,59.063,0,0,0-6.6,4.5c-.5.4-3.3,2-3.4,2.5-1.3,4.2,5.7,10.9,7.5,14.5,2.5,4.9,4.9,10.6,5.2,16.1.4,6.6-3.8,9.9-10.3,8.5-7.9-1.7-13.9-8.2-20.2-12.8-1.4,4.2.4,9,1.4,13.1,1.3,5.6,2.7,11.3,3.6,17,1.4,8.1.4,17.1-7.6,21.4-20.4,10.8-30.8-17.6-35-31.8-2.8,2-2.5,9.4-3,12.5-1,6-2.1,12.4-4.8,17.8-2,4.2-5.5,9.1-10.5,9.5-5.5.5-9.9-4.2-12.4-8.6-4.3-7.5-5.3-15.9-5.6-24.4-.1-1.9.5-19.1-1.4-19.6-5.5,9.9-8.6,20.9-15.1,30.4-5.7,8.3-14.3,13.9-22,4.3-11.9-14.8-8.1-36.3-3.2-53a117.02,117.02,0,0,1,11.9-27.7c2.2-3.6,4.8-6.3,7.5-9.5,2.2-2.6,3.1-3.8,2.1-6.9-.6-1.8-1.1-1.8-.6-3.8a34.889,34.889,0,0,1,2-4.4,112.875,112.875,0,0,1,5.7-10.9c4.6-7.5,10.8-13.7,17.4-19.4l.7-.6h0a23.084,23.084,0,0,0,2.6-2h.1c1.1-.7,1.6-3.2,2.8-1l.1.2c.2-3.2,2.9-5,5.2-6.8a11.019,11.019,0,0,1,2.8-2c.7-.3,2.4,0,2.9-.4,1-.8,1.5-2.2,2.5-3.1a23.291,23.291,0,0,1,3.4-2c2.7-1.7,5.2-3.7,7.8-5.4a190.136,190.136,0,0,1,17.5-10.2c12.6-6.5,26.1-11.7,39.5-16.3,11.8-4,24.1-7.8,36.3-10.8,12.5-3,25.6-2.3,38.3-3.5,26-2.5,53.4-2,79.4.5,12.7,1.2,25.4,3.2,37.9,5.6,12.2,2.4,24.8,5,35.6,11.4,2.3,1.4,6.5,5.7,9.2,5.5,2.3-.1,4.2-4.3,5.3-6,2.5-3.9,5.7-7.5,7.9-11.7,2.7-5.1,4-10.8,6-16.2-9.3,1.3-19,2.1-27.9-1.4-8.1-3.2-13.5-9.6-19.5-15.6-6.3-6.2-13.1-10.5-22.2-11.1-10.3-.7-19.6,3-29,6.5-20,7.3-40,15.2-60.5,20.7a146.028,146.028,0,0,1-30.8,5.3c-5.3.2-10.7,0-15.9,1-2.2.4-2.8.7-4.5-.2.2.1-2.2-3.9-2.7-2.3-.5,1.5.3,2.7-1,3.8-1.6,1.3-4.9.7-6.7.5-2.7-.2-4.8-1.1-7.4-1.8-4-.9-8.5-.3-12.6-.8a26.1,26.1,0,0,1-5-1.2c-1.8-.6-.6-.5-2.5-.7a19.255,19.255,0,0,1-4.5-.6,50.088,50.088,0,0,0-5.2-1.4c-1.7-.4-3-1.1-4.5-1.5,1.9.6-2.5-1.2-2.3-.7h0c-.5-.5-1-1.6-2-1.8h-.2c3.1,4.8-10.6-.3-11.5-.5-7.6-2.3-15.4-7.6-23.3-8-7.8-.5-15.3,4.8-21.5,8.7-7.5,4.7-15,9.5-22.5,14.3-16.6,10.6-34.6,20-53.2,26.4-9.1,3.1-18.3,5.6-27.5,8.3-4.1,1.2-8.7,1.7-12.6,3.5-2.7,1.2-6.5,4.7-9.2,1.6-1.1,2.7-6.4,2.6-8.6,2.7-.3,0,.2.7-.6.6-1.2-.1-1.5-1.2-2.4-1.4-1.9-.5-2.1.2-3.9.9-2.4.9-1.9.1-4.1-.1-1.2-.1-2.5.5-3.7.6-.5,0-1.1-.8-1.9-.8a28.483,28.483,0,0,0-3.2,1,43.275,43.275,0,0,1-7.2,0c-3.3-.1-36.1-3.1-33.8-9.9-4,3.6-13.1-2.3-17.2-4.2-1.5-.7-1.6-1.4-2.5-2.2.2-1-.2-1.4-1.2-1.3-.2,0-.5-.1-.7-.1-1.8-.9-2.5-.9-3.9-2.5-1.9-2.2-5.5-4.1-6.5-6.9-.3-.8,0-2.1-.3-2.7-.3-.8-1.3-.7-1.5-1.3a8.585,8.585,0,0,1,.3-1.7c-1.7-1.4-4-.7-5.9-2.4-5.3-4.6-8.5-13.9-10.1-20.5-4-17.2-5.4-34.5,2.4-50.8a156.886,156.886,0,0,1,13.5-22.6c1.4-2,2.9-4.6,4.7-6.2.8-.7,1.9-.9,2.3-1.3,2.1-2.4,3.2-5.5,6-7.8a88.6,88.6,0,0,1,9.7-7.4c3.2-2,7.2-3.2,10.1-5.1.8-.5.5-1.3,1.4-1.9a10.888,10.888,0,0,1,3.2-1,19.088,19.088,0,0,1,4.1-1.1c2.4-.2,3.2.5,5,2.2,0-6.6,12.1-7.5,17-7.5,2.3,0,13.6-1,13.4,2.4,2.6-3.4,10.4-.9,13.9.2,4.1,1.2,6.7,4.2,9.3,7.4.5-1,1-2,1.5-3.1.7.5,3.3,1.4,2.5,2.8,3-2.6,1.3-.5,3.8,0a11.584,11.584,0,0,0,3.2-.3c.1,1.5-.6,2-1.5,3.1,2.3,0,11.1-.9,4.6,2,.9,1.6,5,1,6.5,1.2.8.1,2.7.2,3.2.7.3.4-.2,1.4-.2,1.5.6.8-.7,1.3.6,1.5.3.1,1.3-.9,1.5-.9,1.7,0,.5-.3,2.2-.1.6.1,1.8.8,2.6,1,12,2.5,26.6-6.8,35.3-13.9,10.4-8.5,19.5-17.7,32-23.2a218.364,218.364,0,0,1,38.4-12.6C277.833-1.466,301.533-1.566,324.933,6.234Zm302.7,546.2,1.2.6a11.938,11.938,0,0,1,1.6-.8C628.933,551.434,628.833,551.134,627.633,552.434Zm127.8-34c-2.9,1.8-5.4,5.9-7.9,8.4-3.5,3.4-7.2,6.7-10.9,10,4.3,1.5,10.4,7.5,15.1,4.8,2.3-1.3,3.7-5.3,5.2-7.4a93.952,93.952,0,0,1,7.5-9.2C767.033,521.934,758.433,516.534,755.433,518.434Zm-270.3-62.1c1.1.5,3.6,3.2,2.5,4.2C486.433,459.134,484.833,458.134,485.133,456.334Zm-367-43.7c-2.1,1.8-4.4,5.6-5.9,7.9-1.6,2.7-1.7,4,.8,5.8,4.8,3.4,11.8,4.5,17.5,6.1,3,.9,6.7,3,9.2.3s2.5-7.7,3.7-11.1c.9-2.7,1.9-5.4,2.9-8.1a49.265,49.265,0,0,1-15.8-.6C126.733,412.134,121.433,409.734,118.133,412.634Zm91.2-144.3a133.106,133.106,0,0,0-11.4,18.3,141.035,141.035,0,0,0-12.6,33.3c-1.9,8.2-4.8,19.8-.3,27.6,9.6,17.2,29.2-32.4,32.2-37.6,1.8-3.1,4.5-6.4,7.6-2.4,2.5,3.3,1.7,8.5,1.8,12.3.3,11.4-1.2,25,3.3,35.8,1.5,3.5,5.5,8.6,9.9,7,4-1.4,6-8.3,7.2-11.9,3.9-11.2,6.7-25,6.8-36.9,0-2.4-2.1-18.2,3.4-14.7,3.6,2.3,3.5,13.4,3.8,17,1.4,14.2,4.2,38.3,21.8,40.7,3.9.5,8.3-.4,10.5-3.9,2.8-4.3,0-10.1-1-14.7-1.7-7.8-3.6-15.9-3.8-24-.1-4.9.4-13.2,7.3-11.3,8.4,2.3,11.9,13.3,21.3,13.6,0-2.2-1.2-4-2.2-5.8-3.3-6-9.4-11.1-11.5-17.6-.7-2.2,0-5.4-1.3-7.2-1.3-1.7-4.1-2.1-6-2.5-12.7-2.6-25.2-6-37.9-9-13.5-3.2-26.1-6.6-38.7-12.1C213.933,259.634,212.633,263.934,209.333,268.334Zm303.2,88.8c1.9.9,3.7,1.8,5.6,2.6,1.6.7,2.3.1,2.9-1.4C519.933,358.134,513.233,355.834,512.533,357.134Zm-80-192.2c-24.2.7-47.8,1-71.7,5.6-11.4,2.2-22.6,4.7-33.8,7.9a46.2,46.2,0,0,0-13,5.3c-1.5,1-5.6,4-6.2.5-2,2-6,7.9-9.3,4.6-.6,2.4-2.3,2.3-4.1,3.1-.6.3-.9,1.3-1.7,1.6-.2.1-.3-1.3-.6-1.3-1-.1-1.9,2.1-2.5,2.7a10.052,10.052,0,0,1-4.7,2.4,7.418,7.418,0,0,1-2.5.5q-1.5.6-1.8-.9a8.771,8.771,0,0,0-3.9,1.2c3.2.7-2.2,1.5-2.9,1.6-.1,2.4,1.9.9,3.3,1.4-.6,3-6.1,5.3-8.4,6.7-.4-.8-.8-1.7-1.2-2.5a8.008,8.008,0,0,0-1.5,2.1c-.2,1-.9,1.3-2,1-1.1.8-1.2.5-1.9,1.6-.7,1.2,1.3,3.6-1.6,2.6,0,4.1-3.8,1.6-3.1.5-2.9-.3-4.1,4.9-3.8,7-1.4-1.4-2.2-1.2-3.6-.1l-.1.1.1-.1c1.1-.7,0,2.2.1,2.2h0c-2.9,3.8-2.6-.5-1.7-2.7-2,.8-2.3,2.9-3.9,4.1-1.4,1.1-1.8.6-3,.7-1.9.2-1.3-1.3-2.1.8-.3.9.2,2.4.2,3.4.8-1.1.5-2.8,2-3.5-.4,3.2-6.6,14.2-9.3,7.7-2.5,1.8.3,3.7-1.4,6.1a6.149,6.149,0,0,1-1.4-4.7c-.8,1-.8,2.3-1.4,3.4s-1.3,1.2-1.6,2.4c-.5,1.8,1.1.9.3,2.8-.4,1-2.4,1.8-3.2,2.3-2.7,1.9-5.5,4.1-2.8,7.2,4.1,4.9,15,5.5,20.9,6.3,12.5,1.8,24.6,4.7,36.9,7.4,7.4,1.6,14.6,3.5,21.9,5.6,5.2,1.6,12.4,2.5,15.2,7.9,14.5-13.9,33.9-21.1,51.8-29.5,19.4-9,39.5-17.4,60-23.4,18.2-5.3,36.9-7.4,55.8-9.2,5-.5,12.6-1.7,17,1.3,2.7,1.9,2.9,4.7.8,7.2-1.1,1.4-2.4,1-3,3.4a10.205,10.205,0,0,0,.2,5.2c-1.3-1-3.5-.4-4.1-2.1l-.1-.2-.1.2c-.9,3.4,5.1,3.9,3.3,7.9l-.1.2c-.6,1.2-.6-2.7-1.2-2.8-1.5-.1-2.8,3.5-3.4,4.5,2.8,0,1.8,2.1.2,3.1-1.1.7-2.9,1-4.2,1.6-2.5,1.2-4.7,3-7.3,4.2-2.8,1.3-5.3,1.4-8.1,2.1-.4.1-2.2.8-2.3.8-.2,0-.3.7-.5.8-1.8.3-3.1-1.4-4.9-.7-.7.3-.3,1.9-.9,2.2-.6.4-2.4-.1-3.2-.2-1.8-.1-2.1-.3-3.6.5-2.5,1.5-3.8,3.5-7.2,3.8-2.7.3-4.4-.2-6.9.8-2.6,1-5,1.2-7.5,1.9-.3.1-.4,1.2-.7,1.2-.8.2-1.8.1-2.6.3a24.131,24.131,0,0,0-5,2.1,101.528,101.528,0,0,0-21.3,17.3c-2.6,2.9-10,10.2-7.6,14.3,1.5,2.7,6.9,4,9.5,5.1,4,1.7,8.1,2.9,12.1,4.5,5,1.9,9.5,5,14.6,6.7,4.9,1.6,10.2,2,15.2,2.8,21.9,3.8,43.4,9.9,65.3,13.6,12,2.1,24.3,4.5,36.5,2.6a66.4,66.4,0,0,0,29.7-13.1c15.6-12.1,26.6-29.3,32-48.2,1.1-3.9,1.4-13.7,5-16.1,3-2,4.6,2.4,6.6,4.1,3.2,2.8,7.9,3.9,11.8,5.5,9.6,4,18.2,8.2,28.3,10.9,10.2,2.7,20.6,4.9,31,7.1,21,4.6,41,8.9,62.6,8.9,21.3.1,42.8.9,63.9-3.1a104.608,104.608,0,0,0,50.8-25.6c7-6.4,12.3-14.6,17.8-22.3a106.7,106.7,0,0,0,8-12.9c1.7-3.3,4.6-8.1,4.9-11.9.3-3.4-1.7-2.9-5.1-3.2-5.2-.5-10.4-.9-15.5-1.4-10.4-1.1-20.8-2.4-31.3-3.5a200.971,200.971,0,0,1-31.6-5.5c-3.1-.8-5.4-1.9-7.6,1.1-1.4,1.9-1.4,6.3-4.3,3.1-5.6,7.1-13.9,11.4-21.6,15.9-8.3,4.8-16.5,10.2-25.3,14.1-19.1,8.4-40.1,7.8-60.3,5.1-20.6-2.7-41.4-6.3-60.7-14.1-8.9-3.6-16.5-9-24.4-14.3a101.229,101.229,0,0,0-11.6-6.5c-4.5-2.3-7.2-5.7-11.3-8.4-2.7,8.9-13.2,11.9-21.5,12.3-10.4.5-18.7-4.4-25-12.5-5.2-6.7-6.2-16.6-14.3-20.3-9.2-4.2-20-5.8-29.9-7.8C480.533,167.034,456.033,164.234,432.533,164.934Zm122.7,68.4c2.6,1.2,10.2,9.9,4.2,10-3.8.1-6.1-4.7-10.3-4-1.9.3-4.7,1-5.2,2.4-1.2,3.6,4.2,6,6.5,7,3.6,1.6,6.5,3.1,8.4,6.7,3,5.5,3.8,14.3-3.2,16.7-5.2,1.8-11.7.4-16.8-1-4.3-1.2-7.6-5.7-5.6-10.1.6-1.3,2.1-3.5,3.8-2.6,1.4.7.7,1.9,1.1,3,1.7,4.5,14.5,10.9,17.5,4.1,3.6-8.3-10.1-10.8-14.3-13.5-5.4-3.6-5.5-9.7-1.4-14.3C543.633,233.534,550.033,230.934,555.233,233.334Zm22.6,28c-.2,1.9-.5,4-.8,5.9-.3,1.7-.3,3.4-2.2,4-1.3.4-2.5-.9-3.7-.1-1.4,1-.7-6.2-.6-6.6.4-2.7,1.1-8.2,3.7-9.8C578.533,251.934,578.133,258.934,577.833,261.334Zm-.2-11.3c-4.7,2.9-5.9-5.4-4-8.1C578.233,235.134,584.933,245.334,577.633,250.034Zm-94.6-4.1c1.3,1,.9.4.9,3.1C482.433,249.034,482.633,246.934,483.033,245.934Zm5.3-2.3c-.4,1,1.6,2.3,2.2,2.5C490.533,245.734,489.533,240.634,488.333,243.634Zm-252.6-15.3c-1.2,1.8-.5,2.9,1.4,2.2l.2-.1Zm24.9-17.2-1.2.5c-.6.5-1.1,1.1-1.7,1.6C259.433,212.934,260.533,213.134,260.633,211.134Zm6.5-2.5c-.8-1.7-3.6,1.6-3.7,2.4C264.133,210.634,268.133,210.534,267.133,208.634Zm2.6-5.9a1.412,1.412,0,0,0,.4,2.3,11.63,11.63,0,0,0,1.8-3.5C270.933,200.834,270.133,201.834,269.733,202.734Zm533.7-118c-2,.9-1,4.1-.8,5.8.9,8.1,2.5,16.2,3.4,24.3,1.3,11.4,1.5,23,3.6,34.4,2,10.3,5.3,20.4,7,30.8,1.2,7-1.1,15,7.2,17.1,7.5,1.9,16,2,23.6,2.8,9.8,1.1,19.7,1.6,29.6,2.1a131.748,131.748,0,0,1,14.1,1c2.7.4,6.1,2.2,8.2-.3,2-2.5,2-8.7,2.7-11.9.8-4.1,1.6-8.3,2-12.5.9-9.5-.4-19-1.7-28.4-1.4-10.2-2.4-20.4-3.8-30.6-.9-6.6-.8-17.1-5.3-22.4-4.1,12.3-5.2,25.3-5.4,38.2,0,2.8-1.9,18.6-6.7,10.9-1.3-2.2-1.4-3.4-3.4-5.2a10.616,10.616,0,0,1-3.6-6.2c-1.3-5.1-1.5-9.7-4.4-14.3-5.8-9.4-8.1-21.1-16.7-28.7-.1,8.8-1.4,18.4.3,27.1,1,5.5,5.3,13.4,1.8,18.8-1.7,2.7-2.7,1.9-4.8.5-1.3-.9-1.1-1.3-2.8-2.2-1.6-.8-2.8-.8-4.3-2-5.3-4.1-5.7-11.3-7.4-17.2-3.8-13.1-16.9-21.1-27-29.2C807.833,86.734,805.033,83.934,803.433,84.734Zm-198.7,26.4c-7.7,3.1-15.7,4.3-23.9,2.5,0,1.8,2.6,4.7.6,5.8-.5.2-3.2-.9-3.7-1.1-3-.8-6.9-2.1-10-1.5-3.3.7-3.2,2.8-1,5.2,3,3.4,10.5,3.5,10.6,9.1,0,2.4-1.5,5.4-1.8,7.9a107.292,107.292,0,0,1-1.9,11.1,84.116,84.116,0,0,1-6.8,18.1c-2.5,5-5.5,10.2-10.2,13.4-3,2.1-1.9,1.2-1.3,4.3.4,2.1.3,3.6-2.4,3.1-.5-.2-1-.3-1.5-.5,6.3,10.4,22.3,16.9,33.3,10-4.6-3.7,1.7-10.2,4.3-13,4-4.1,8.1-8.9,12.4-12.6,6.5-5.8,15-3,22.7-5.4,7.8-2.5,13.5-8,18.5-14.2,4.5-5.5,10.4-12.3,11.1-19.7.1-1.5-.6-3.2-.3-4.6s1.1-1.6,1.6-2.5a17.452,17.452,0,0,0,1.3-6c.5-7.1-1.8-8.2-8.4-10-3.9-1.1-7.8-1.9-11.7-2.9-3.7-1-7-2.9-10.7-4C617.733,101.434,611.533,108.434,604.733,111.134Zm19.9,44.6c6.1,3.7-3.5,6.1-7.1,4.4C612.633,157.934,621.133,153.634,624.633,155.734Zm11.5-30.9c5.6,6.6,11.7,20.1-.4,22.9-3.8.8-9.6,2.2-13.3,1.2-5.4-1.5-4-8.5,1.4-8.8,3.2-.2,10.5,2.3,12.4-1.4,1-2-1.3-5.2-1.7-7.2A7.3,7.3,0,0,1,636.133,124.834Zm-331.7,19.9h0l.1.1h0l-.1-.1Zm342.7-17.6c3.9,0,1.9,8.2,0,9.6C643.733,139.234,642.233,127.234,647.133,127.134Zm-25.4,6.2c-4.5.5-3.5-10.2.6-10.5C627.633,122.434,626.833,132.734,621.733,133.334Zm38.7-17.8c-.5,1.1-.1,11.7,1.2,11.9a50.787,50.787,0,0,0,.1-7.8v-.7C661.733,119.034,661.933,112.534,660.433,115.534Z" fill-rule="evenodd"/></g></svg>