<svg id="Layer_1" data-name="Layer 1" xmlns="http://www.w3.org/2000/svg" viewBox="0 0 692.672 700.154"><title>1</title><g id="Character_petting" data-name="Character/petting"><path id="Combined-Shape" d="M189.537,386.6c1.4,9.6,5,18,8,26.9a77.889,77.889,0,0,0,5.8,12.4c1.4,2.5,3.2,8.5,5.8,5,.4,1.8-.1,2.7.5,4.4.8,2.4,5.2,5.3,7.1,7.2,1.8,1.8,3.9,3.1,5.8,4.7.4.3,1.2.1,1.5.4.6.7,0,1.6.3,1.9,3.1,3.9,8.5,6.7,12.5,9.5,5.8,4.1,11.5,8.2,17.1,12.5,4.4,3.4,8.7,7,13.1,10.4a24.7,24.7,0,0,1,5.3,5.4c1.9,2.6,2.2,2.7.9,5.5-2.4,4.9-6.8,8-9.7,12.3-3.3,5-5.5,10.5-10,14.7-2-4.5-4.6,2.1-1.3,1.4-1.6,4.6-5,8.5-7.4,12.9a146.871,146.871,0,0,1-9,14.6c-.3-1.2-.7-2.4-1-3.6-3.2.8-.6,3.1-.4,4,.2.8.9.9.4,2.7a12.3,12.3,0,0,1-2.5,3.6c-1.8,2.5-3.5,5-5.2,7.6-1.7,2.5-2.3,4.6-3.4,7-1,2.2-1.9,1.8-3.4,3.4-1.6,1.7-3.2,4.6-4.7,6.5a101.2,101.2,0,0,0-11.1,18.7c-2.8,6.2-8,10.5-10.3,17.1-1.2,3.4-1.6,6.9-2.7,10.3-1,3.2-2.6,6.1-3.2,9.4-.5,2.7-.2,5.9-.4,8.3-.2,2-1,5-.8,7.7.5,5.8,2.9,10.8,5.8,15.7-13.1,4.4-28,5.7-41.8,5.4-7-.2-15-.2-21.9,1.4-4,.9-7,2.1-11.2,1.8s-8.3-.7-12.5-1.1c1.2-2.5,5.2-5.5,7.4-7.4,1.3-1.1,3.4-1.3,4.4-2.4,1.1-1.2,1.5-4.2,1.9-5.6a324.548,324.548,0,0,0,7.3-33.6c3.4-20.1,4.7-40.5,6-60.7.1-1.5.8-3.2.8-4.6-.1-2.2-.5-3.5-.3-5.6.1-1.3,1.7-3.1,1.6-4.3-.1-1-1.8-.3-1.8-1.8,0-2.3,3.2-5.5,3.9-7.5.3-.8-.7-1.8-.8-2.7v-.2s.8-3.2.8-3.3c.2-1,1.2-1.3,1.1-2.6,0-1.1-1.7-2.5-.8-3.7.6-.8,2.8.5,3.3-.4.6-1.1-2.1-5.1-1.8-6.8.5-2.9,2.6-5.8,3.3-8.8.3-1.3,0-3.4,1-4.5,1.7-1.8,3.1,0,5.5-.6-2.5-2.1-2.9-3.9-2.2-7,.6-2.4,1.7-5,4.3-2.6-.4-3.6-.4-4.1,2.3-6.8,1.3-1.3,2.7-3.5,4.2-4.4.5-.5.9-1,1.4-1.5a3.356,3.356,0,0,0,2.3,1.1c7.4-.4,11.2-1.9,18,2.5,2.9,1.9,5.8,3.3,8.2,5.7,2.8,2.7,5,6,8,8.5,3.3,2.9,6.6,5.2,9.5,8.5,2.4,2.7,4.8,5.8,8.1,7.4.3-3.9-1.9-7.4-3.8-10.8a8.013,8.013,0,0,0-1.8-1.4c-.2-.7.6-1.3.3-1.9,2.8,2.6,5.8,6.4,9,8.3,5.3,3.1,2.9-3,1.9-6.1a76.354,76.354,0,0,0-14.1-24.8c-10.6-12.7-28.2-26.8-45.1-18.8-16.7,7.9-25.5,21.2-30.3,38.8-5.6,20.5-8.1,40.1-8.7,61.3-.3,12.1-1.5,24.2-2.8,36.3-1.2,11.8-1.8,24.6-4.1,36.1a19.485,19.485,0,0,1-3.1-6.3c-.3-1,.1-2-.4-2.9-.2-.4-1.4-.4-1.7-.8-1.9-3.3-4.5-7.9-5.3-11.8-.4-2,0-3.2-.9-5.1-.8-1.7-1.2-.1-1.5-2.2,0-.3,1.3-.8.9-2.2-1.1-3.5-1.8-.2-2.3-.2-1.1,0,1.3-7.2,1.1-8.3-.2-1.3-.8-.6-1.1-1.5a22.847,22.847,0,0,1-.8-3.3c-.6-3.6-2-4.8-2-8.7-.1-4.7-1.8-7.7-2.6-12.2-.1-.8.8-1.8.6-2.5-.3-1.5-1.4-2.8-1.9-4.4-.9-3.3.9-6.2.6-9.4,0,.5-1-2.4-1.1-2.6-.4-1.5-.2-3.4-.5-5-.3-1.5-1.2-3.5-.4-4.9.6-1,1.8-.7,2.6-1.8-2.7-.9-2.1.1-3.1-2.9-.9-2.9-1-5.3,2.1-3.4-.8-1.9-2.2-4.3-2.6-6.4-.3-1.9.4-3.7.2-5.6-.5-5-2.1-8.1.8-13-3.8-1.9-2.1-8.6-2.7-12.3-.6-4-2.2-7.8.8-10.4-3.8-2.7-1.9-11.5-1.8-15.7.1-4-.2-8.1-.2-12.8,0-2.6-.7-4.5-1.3-7.1-.8-3.4,0-5.9-.3-9.2-.2-2.6-1.2-5.2-1.3-7.9a83.345,83.345,0,0,0-.3-8.7c-.3-2.3-.9-3.9-.9-6.4a12.287,12.287,0,0,1-.2-2.7s1-2.4,1-1.3c0-3.9-1.9-7.7-.9-12.5.8-3.9,1.5-3.3,5.5-3,3.1.2,6.2.4,9.3.4,4,0,17-2.8,19.9.1,2.4,2.4,1,13.5,1.2,16.9.3,5.5-5,7.2-6.4,12.8-2.8,10.7,1.8,24.8,14.3,25.7,11.7.9,22.9-8.7,21.3-20.5-.6-4.7-2.8-9.9-6.9-12.7-4-2.7-12.4-.7-15.2-3.9-1.3-1.5-.8-7.4-.9-9.3-.2-2.9-1.5-8.6.4-9.9,2.1-1.5,8.7-1.6,11.1-1.6a55.973,55.973,0,0,0,10-.6c7.6-1.3,15.1-1.2,22.5-2.9C175.837,391.3,182.637,389.6,189.537,386.6Zm90.1,0c1.5,0,4.8,12.7,5.7,14.9,2.4,6.1,3.4,12.3,4.7,18.8,1.4,6.6,2.6,13.3,4.3,19.9,1.3,4.9,1,9.6,2.8,14.6-.5,3.1,0,8.3-3.4,9.6-3,1.2-5-1.7-6.2-4.2-3.1-6.8-2.1-15.8-3.2-23.1-1.3-8.6-1.4-17.1-2.4-25.7C281.037,403.7,278.037,394.1,279.637,386.6Zm-133.1-174.1c3.3,3.8,8.3,2.2,12.7,1.8-1.9,4.2-4.5,8.8-4.6,13.5-.1,2.5,1.3,4.7,1.3,7s-1.9,4.5-2.8,6.7c-4,9.7-5,22.9-5.2,33.3-.3,21.6,6.2,44.6,19.9,61.5a59.937,59.937,0,0,0,9.8,9.7c2,1.5,11.1,5.2,11.5,7.3.8,4.2-8.5,3.8-11.1,4.1-5.4.8-10.7,1.9-16.1,2.6-21.6,2.9-42.9,5.2-64.7,4-2.4-.1-6.9,1.1-9.2.1-2.7-1.1-1.8-3.4-1.7-6,.2-6.8-.8-13.4-1.4-20.1-.5-5.4.8-4.7,4.8-7.7a29.442,29.442,0,0,0,9.5-13.8c3.8,3.1,1.1,4.8,1.6,8.7.7,4.8,3.9,4,6.1.8,3.3-5,3-13-.1-18-2.8-4.5-12.8-11.4-18.5-9.3-7.5,2.7.7,11.9,4.2,13.9-.9,2.5-5.8,4.8-7.9,6.2-3,1.9-6.9,3.1-10.4,4.1a61.283,61.283,0,0,1-27.9,1.9c-9.2-1.3-19.8-4.3-25.7-11.9-2.6-3.3-4.9-8.2-2.5-12.3,2.2-3.7,7.7-3.9,10.4-7.5,1.2-1.5,1.7-3.6,2.8-5.1,1.7-2.4,1-2,4.3-1.7,5.3.5,11,.8,16.2-.5,3.9-1,7.8-2.8,11.6-3.9a30.982,30.982,0,0,0,11.1-6.5c7.3-6.4,14.4-13.3,21.1-20.2s11-15.8,17.3-23.1c7.1-8.3,13.9-18.9,24.4-23.4C143.437,206,143.337,208.8,146.537,212.5Zm25.4,27.5c1,1.1.4,7.1,1.3,9.1,3.7,7.5,10.2,5.8,16.9,4.2.6,6,1,12.7,3.4,18.3,1.1,2.5,2.8,4.6,3.6,7.2.5,1.6.3,3.7.9,5.3.7,1.7,2.4,2.9,3.4,4.6,1.2,2,1.8,3.8,3.4,5.5,3.5,3.8,8.2,7,10.8,11.5a8.34,8.34,0,0,1,1.2,5.4c0,.8-.6,3.6-.3,4.2.9,2.1,4.1,2.6,4.4,5.3.2,1.5-.6,1.3-.9,2.6-.3,1.5-.1,2.6-.7,4.3-.9,2.7-4.8,7.8-4.4,10.1-5.7,3.2-15.8,5.2-22.3,3.7-6.6-1.5-13.2-8.9-17.4-13.8-10-11.5-15.8-29.6-16.3-44.6-.3-7.6.7-15.3,1.1-22.9.2-4.3-.7-16.4,2.9-19.4C164.037,239.7,171.137,239.2,171.937,240Zm-53.7,14.4c-8.9.5-16.5,14.4-14.8,22.5,1.3,6.7,3.6,1.5,5.3-1.3,2-3.4,5.7-7.5,10.1-6.6,4.9,1,6.1,6.9,8.1,10.6,3.6,6.8,4.7-.5,5.5-4.7C131.837,266.8,128.937,253.8,118.237,254.4Z" fill="#34558b" fill-rule="evenodd"/><g id="Ink"><path id="ink-shape" d="M652.537,669.029a129.3,129.3,0,0,0-13.4,5.4c-5.1,2.1-8.6,2.5-14.1,2.5-21.4,0-42.5,1.1-63.9,1.5-5.8.1-11.8.2-17.6.1-2.4,0-4.7-.3-7-.5-1.5-.1-8.1.8-9,.3-2.5-1.5-1-11.1-1.3-14.2a59.588,59.588,0,0,0-3.8-15.5c-6.8-18-18.1-35.5-32.5-48.4,19.4-8.1,40.6-18.9,62.1-14.1,8.2,1.8,19.1,4.3,23.3,12.2,4.5,8.5,8.5,17.8,13.6,25.9,5.8,9.1,11.9,16.8,20.2,23.6,3.3,2.7,19.9,19.2,17.4,6.4-.8-4.1-3.8-7.9-6.2-11.2-1.2-1.7-7.7-7.3-6.7-9.2,1.1-2.2,12.9-3.8,15.5-4.5,5.2-1.4,10.4-3,15.6-4.5-1.9,3.5-12.1,16.9-5.6,20.4,2.4,1.3,8.6-3.2,11.2-4,4.5-1.3,8.6-.5,13,.9-.1,2.2-4.4,2.2-5.8,3.7-2.1,2.2-3.5,8-1.9,10.6,3,4.8,14.7-.1,19.9,1.7-5.9,6-15.1,8.4-23,10.9Zm-291.6-199.1c.1.1,0,.3-.8.9-.2-.8-.6-.9-1.1-.7.4-.4.7-.6,1.1.7a3.256,3.256,0,0,0,.8-.9Zm1.8-2.6a.857.857,0,0,1-.9.7c0-.1,0-.2.1-.2.3-1,.8-.8.6-2.7a1.02,1.02,0,0,1,.2.9,1.052,1.052,0,0,1,0,1.3Zm-51.9,87.3c.5-1.2.6-2.6,1.3-3.7-.7,1.1-.7,2.5-1.3,3.7Zm200.7,122.9c-7.7-.3-15.3-.2-23,.2-16.5.7-33.1.8-49.6,2.2a211.94,211.94,0,0,1-23.9.6c-7.1-.2-14.2,0-21.2-.6-7.7-.7-15-2.8-22.8-2.9-7.5-.1-16.4-1-23.6.1-1.3.2-1.9,1-3.4,1.2-2,.3-4.9-.6-7-.7-3.7-.2-7.7.2-11.3-.7a21.9,21.9,0,0,1-3.3-1.2,31.335,31.335,0,0,0-4.1-.9c3.4-1.3-4.2-3.9-4.8-4-.2.5.2,1.2.7,1.9-1.9-1.5.1-.9-3-2.4a22.742,22.742,0,0,0-5.3-1.2,13.6,13.6,0,0,0-2.9,0,1.538,1.538,0,0,0,.4-.6c1.1-2.2-2.2-4.7-4-3.2a18.144,18.144,0,0,0,1,2l-.1-.1c-.7-.8-1.9-2.8-3.2-4.1,1.6-.9-.4-2.1-1.1-3.3-.5.3-1.1.5-1.3.9.4-.9,1.5-1.7.8-3.4a4.448,4.448,0,0,0-1.2-1.7,2.56,2.56,0,0,0,1.9.8,8.382,8.382,0,0,1-1.6-3.3c-.2-1,1.1-1.9-.2-2.8,0-.9.6-5.2-1.7-3.7h0c1.5-4.5,4-9.2,5.9-13.6,4.4-10.3,8.9-20.7,13.4-31,7.6-16.9,15.4-33.8,24.1-50.3,8.6-16.3,18-32.1,26.2-48.7,7.8-16,17-31.3,24.9-47.2,3.7-7.5,8.7-13.7,10-22.4.4-2.8.5-8.7-3.7-7.7-2.8.7-6.7,7.7-8.5,9.9-1.6-2.2-10.7-15.2-13.1-7.5-2.1,6.6,11,9.5,5.8,16.2-.5.7-2.7,1.3-3.4,1.9-1.4,1.2-2.6,3.3-3.7,4.7-2.4,3.3-4.4,6.8-6.6,10.1-.4.6-2,2.1-2.1,2.8-.1.4.3.8.5,1.2-1.8,1.6-4.1,3-4.5,5.6.1.1.2.1.4,0-1.7,1.8-3.8,6-4.1,6.5-2.3,3.3-4.5,6.8-6.7,10.2-1.2,1.9-3.3,4.1-4,6.2-.2.7.5,2-.2,2.7-1.7,1.8-3.4,1.4-4.7,5-.5,1.4-.6,3.4-1.4,4.6-1.3,2-3.2,2.9-4.4,5-2.3,4-5.1,8.4-6.6,12.4h0c-.1-.3-.1-.7-.2-1-.8,1.5-1.7,3-2.5,4.5a3.927,3.927,0,0,0,2.6-1.3,2.544,2.544,0,0,1-.2.7,6.028,6.028,0,0,1-2.3.6c-.6.9-1.1,1.9-1.6,2.8a46.318,46.318,0,0,0-1.4,5.7,6.4,6.4,0,0,0-.3-1.7c-1.1,2-2.1,4.1-3.2,6.1,1.9-1.5,1.8-1.7,3.6-1.8-2.3,0-5.8,3.3-6.1,6.4-.1.5.3,1.1.5,1.6h-.2c-2.4-.2-1.7.3-2.6,2.3a14.158,14.158,0,0,0,3.1-1.5.846.846,0,0,1,0,.7c-.6.9-5.5.3-2.3,2.4-2.6-1.7-3.9,4-3,5.9-.7,1-1.5,1.9-2.3,2.9a25,25,0,0,0-4.2,6.8c-2.1,4.8-4.7,9.5-7,14.1a39.814,39.814,0,0,1-3,4.9c-1.9,2.9-1.6,2.2-.1,5.4-.6-.2-1.4.3-2.2.9a1.59,1.59,0,0,1,2.2-.9c-1.9-4-3.6.9-4.5,3.2h.1c-.1.2-.2.3-.3.5h0c-.9,1.9-2,3-1.2,5,.2-1.1,1.1-1.9,1.5-2.9-.5,2.3-3,5-3.8,6.6-.6,1.3-.7,2.6-1.5,4a24.652,24.652,0,0,0-1.9,3.6c-2.7,7.1-4,15.1-5.7,22.6a168.191,168.191,0,0,0-3.3,27.3c-.1,2.6-.2,5,.8,7.5.1.4,1.6,2.3,1.6,3-.2,3.7-7.1,2.9-9.8,2.8-4.2-.2-7.1.5-11.2,1.1-3.8.5-7.4.2-11.2,1.2-6.3,1.5-15.8,4-21.9.6-3-1.6-6.7-6.3-8.8-9-2.6-3.3-3.5-6.6-4-10.7-.8-7.1-.9-14.9,1.6-21.7,11.4-31.5,31.1-60.1,48-88.7,15.9-26.9,33.7-52.4,49.6-79.2,8.4-14.2,18.5-28.2,28.6-41.3,10.2-13.4,17.5-27.9,24.8-43.1,7.5,4,15.4,8,23.8,9.8,4.8,1,9.5.7,14.3,1,3.5.2,6.5,1.1,10.1,1.2,15.8.4,34-1.5,49.1-6.2a75.2,75.2,0,0,0,10.3-3.9c4.3-2.1,5.5-2.9,5.7,1.9.5,9.3,2,18.3,2.7,27.5.7,9,2.5,17.8,4.1,26.7.8,4.5,1.7,9,2.3,13.5.5,3.4,2,8.2,1.4,11.6-.7,3.8-4.2,7.6-6.3,10.8-2.1,3.3-4.2,6.5-6.2,9.8a179.775,179.775,0,0,1-12.4,17.6c-8.5,10.4-15.8,21.4-23.8,32.2-8.6,11.5-15.7,23.8-24.1,35.4-4.4,6.1-9,11.9-11.9,18.8-2.4,5.7-7.3,11-10.2,16.6-3.9,7.4-8.9,14.2-12.7,21.7-2.7,5.2-7.9,10.5-8.5,16.6-.9,10.2,8.7,0,11-2.8,3-3.8,6.3-10.4,10.8-12.5,3.2-1.5,7.9-1.3,11.4-2.5,3.7-1.2,7.2-2.5,10.9-3.6,7.2-2.2,14.1-5.2,21.1-7.9,7.2-2.8,14.5-5.7,21.6-8.8a36.4,36.4,0,0,1,9.6-2.8c1.5-.3,6.9-2.8,8.1-2.6,2,.4,4.8,6.2,6.3,7.8,2.3,2.3,5,4.2,7.2,6.7a171.787,171.787,0,0,1,12.6,15.6c8.3,12,16.1,25.1,19.1,39.6,1,6.4-.6,6.8-6.9,6.6Zm-216.8-15.7a.365.365,0,0,1-.1-.3c0,.1.1.2.1.3,1-.6,1.2-.3,1.4.2a1.465,1.465,0,0,0-1.4-.2Zm-2.3-6.7c0-.2-.1-.3-.1-.5a.9.9,0,0,1,.1.5,1.063,1.063,0,0,1,1.4,0,1.2,1.2,0,0,0-1.4,0Zm1-4.4c.3,0,.6-.2,1-.6-.3.3-.6.7-.9,1v-.1c.1-.1,0-.2-.1-.3Zm-98.3-36.7c-2.2,5.3-3.2,11.1-5.1,16.5a50.091,50.091,0,0,0-2.4,12.6c1.3,1,1.3,1.8-.1,2.6a26.2,26.2,0,0,0-.1,2.8,18.628,18.628,0,0,0,.9,7.8,40.439,40.439,0,0,0,4.8,10.8c-13.1,4.4-28,5.7-41.7,5.4-7.4-.2-15.7-.2-23,1.6-7.8,2-14.6,1.1-22.6.5,1.2-2.4,5.6-6.3,7.9-7.9,1.2-.8,3-1,3.9-1.9,1.2-1.3,1.4-3.9,1.9-5.6a324.548,324.548,0,0,0,7.3-33.6c3.4-20,5-40.5,6-60.7.1-1.7,1-3.6.9-5.2-.1-2.1-.7-2.8-.5-4.9.1-1.4,1.8-3.3,1.7-4.5-.1-.8-2-.1-1.9-1.6.2-2.3,3.2-5.4,3.9-7.5.3-.9-.8-1.9-.8-2.9,0,.3.8-3.2.8-3.3.2-1,1.2-1.4,1.1-2.6,0-1.1-1.7-2.5-.8-3.7s2.7.6,3.3-.4c.6-1.1-2.1-5.1-1.8-6.8.5-3.1,2.7-6.4,3.5-9.6.3-1.2-.2-2.6.8-3.7,1.7-1.8,3.1,0,5.5-.6-2.4-2-2.9-4-2.2-7,.6-2.4,1.7-5,4.3-2.6-.3-3.2-.7-3.5,1.5-6.1a47.723,47.723,0,0,1,6.8-6.7c3.5-2.6,9.1-3.9,13.2-4.2,4.5-.3,10.1,2.1,13.5,5.5,4.2,4.2,9.5,7.2,14.3,11.2,5,4.2,9.4,9.3,14.2,13.8,1,.9,2.8,3.5,4.4,3.1,2.5-.7.5-4.5-.1-6.1-3.9-11.8-10.9-23.8-20.6-31.8-5-4.2-9.9-9.4-15.7-12.5-4.7-2.5-8.3-2.1-13.3-2.2-4.3-.1-5.1-.4-8.9,1.4a84.6,84.6,0,0,0-7.9,4.1,43.384,43.384,0,0,0-11.2,9.2c-8,10-11.1,22.7-14.2,34.8a177.136,177.136,0,0,0-6.2,40.3c-.4,14.1-1.1,28-2.5,42.1-.7,7.3-1.6,14.6-2.5,21.9-.9,6.7-.9,13.9-2.3,20.5-1.7-2.5-2.2-4.4-3.2-7.1-.6-1.8-1.3-1.7-2.2-3.1a39.033,39.033,0,0,1-5.1-11.6c-.5-2.1,0-3.2-.9-5.1-.3-.6-1.7-.1-2-1-.2-.7.7-1.2.7-1.4-.1-.5,1.3-1.1.1-2.7-1.7-2.3-.9.6-1.8.5-.8,0,1.6-8,1.3-9.2-.1-.4-1.4-.5-1.5-.8-.3-1.1-.3-2.8-.6-4.1-.8-3-1.9-4.3-2-7.7-.1-4.6-1.8-7.8-2.6-12.2-.2-.8.8-1.8.6-2.5-.4-1.5-1.4-2.8-1.9-4.4-.8-3,.3-7.3,0-9.7-.2-2.2-.8-5.6-1.2-8.3-.6-4.4.5-2.9,2.4-5.7-2.6-.8-2.3-.1-3.1-2.9-1-3.3-.9-5.2,2.1-3.4-.8-1.9-2.2-4.3-2.6-6.4-.3-1.9.4-3.7.2-5.6-.5-5.2-2.2-8,.8-13-3.8-1.9-2.1-8.6-2.7-12.3-.6-4-2.2-7.7.8-10.4-3.1-2.2-1.9-8.5-1.8-11.9,0-1.5.5-4.2.4-5.6-.1-1-.7-1.6-.9-2.7-.7-4.1.8-8.2-.1-12.3a84.837,84.837,0,0,1-1.5-13.1c-.3-4.4-1-9-1.3-13.5-.2-3.3-1.5-7-.9-10.4,0-.3.8-2.7.9-2.2,0-.9-.7-2-.7-2.5a108.146,108.146,0,0,1-.1-11.4h0a2.026,2.026,0,0,0,.8-1.9c3.8-.4,7.9.6,11.7.7,4.1.1,8.2-.1,12.2-.3,2.6-.1,8.3-1.4,10.3.8,1.4,1.6.5,9.8.6,11.9.1,2.5,1.4,6.5-.1,8.7-.9,1.4-3,1.9-4,3.4a14.638,14.638,0,0,0-1.5,3.4,24.673,24.673,0,0,0-1.3,9.3c.7,14.7,12.6,21.5,25.8,15.6,11.6-5.2,14.7-20.8,4.8-29.6-2.3-2.1-4.8-2.6-7.8-3.1-1.9-.3-7.1-.1-8.3-1.5-1.2-1.3-.9-5.5-1.1-7.3-.2-2.8-1.3-7-.7-9.7-1-2.2-.3-3.2,2-2.9.7-.1,1.5-.3,2.2-.4,1.9-.3,3.7-.7,5.6-.9,3.4-.2,6.7.2,10-.3,3.3-.4,6.6-1.3,9.9-1.7,3.5-.5,7,.1,10.5-.5,7.2-1.2,15-2.9,21.8-5.7,1.8-.8,4.9-3,6.9-2.6,2.4.4,1.8,2,2.5,4.3,3.8,12.7,11.8,25.3,20.3,35.4,8,9.5,18.5,17.2,28,25.2,5.8,4.8,11.3,9.9,16.7,15.2,3.9,3.8,8.1,9.9,13.1,12.1,1.1,0,5.6-.5,6.4.4.9,1,.9,1.5.5,2.1,1.1-2.8-4-2.3-6.9-2.4.3.5,3.5,7,4.3,3.4a9.993,9.993,0,0,0,1.4.8,85.473,85.473,0,0,1-8.5,14.6c-2.3,3.3-5.4,5.7-7.5,9.1-2.7,4.3-4.9,8.8-8.2,12.6-6.7,7.7-10.4,17.9-16.3,26.4-2.8,4.1-4.3,7.9-7.2,11.9-2.3,3.2-6,7.2-7.3,10.9-.5,1.5,0,2.7-.9,4.1-.6.9-2.4,1.8-3.3,2.7-3.4,3.5-6.1,8.6-8.8,12.7-2.9,4.4-4.8,9-7.3,13.6-2.6,4.5-6.7,7.8-8.9,12.9Zm-88.8,20.1c-1.8,0-2.4,0-2.6-.7a2.2,2.2,0,0,1-.1-.9,2.2,2.2,0,0,0,.1.9c.2.8.8.8,2.6.7Zm.2-6.6c.2.5-.9,1.3-3.9,1,3,.4,4.1-.5,3.9-1Zm-7.2,16.6c.3.2.5.5.8.7a5,5,0,0,1-.8-.7Zm-18.3,34.7c-2.4-.8-8.6-2.3-12.7-4.1,1.8.5,3.7.9,4.4,1.2,2.8,1,5.5,2,8.3,2.9,3.9-14.1,18.5-19.4,31.1-24.6-6-.3-8.2-5.5-11.8-9.2,3.6,3.7,5.8,9,11.8,9.2-12.6,5.2-27.2,10.6-31.1,24.6Zm-13.7-14.1c-.1.2-.3.5-.4.7a38.548,38.548,0,0,0-2.4,5.9c-.1-2.1,1.2-4.6,2.8-6.6Zm13.8-266.8a1.272,1.272,0,0,1,.6-.1c-.7,0-.8.8-.9,1.9-.6-.7-.7-1.4.3-1.8Zm45.4,32.4c4.3,2.1,8.4,3.4,12.5,5.9-5,3.9-20.9,10.1-20.5-1.8.1-1.4.9-5.2,2.1-6,2-1.3,4.2,1.1,5.9,1.9Zm-48.8-55.8c18.8,6.6,40.7,4.9,59.8,1.7,20.5-3.4,41-5.5,60.9-11.9,0,2.8,1.2,5.7-1,7.9-1.7,1.8-5.4,2.1-7.7,2.9-5.9,2-11,4.8-17.3,6-7,1.3-13.9,1.3-20.9,2.1-2.5.3-4.9.7-7.3,1.2a32.619,32.619,0,0,0-9.2,1.4c-11.8.1-23.5.4-35.3-1-6-.7-11.9-1.6-17.9-2.2-5.6-.5-4.3-2.9-4.1-8.1Zm-7.2-50.4c-11.1,3.1-22.5,2.1-33.4-1.4-7.9-2.5-18.3-6.2-20-15.8-1.1-6.3,2.7-7.5,7.1-10.1a12.639,12.639,0,0,0,4.6-4.3c.9-1.3,1.6-4.4,2.6-5.3,2.3-2.1,9.7-.3,13.3-.4,5.4-.2,9.1-2.1,14.1-3.7,8.8-2.8,14.4-6.3,21.2-12.8,6.7-6.3,14.5-12.8,19.9-20.2,6-8.3,11.8-16.5,18.4-24.4,4.9-5.9,13.7-17.7,22.4-17.7,4.4,0,3.7,4.2,7.2,6.3,3.2,1.9,7.3.6,10.8.3-2.3,5.2-5.5,10.6-4.4,16.5.6,3.3,1,4.5-.3,7.6a51.172,51.172,0,0,0-3.2,8.5,116.719,116.719,0,0,0-3,37.7c2.1,21.2,9.3,43,25.2,58a52.846,52.846,0,0,0,12,8.4c4.4,2.2,4.8,4.6-.7,5.6-10.7,1.9-21.5,3.3-32.2,4.7s-21.6,2.9-32.5,3.2c-5.4.1-10.7.8-16,.4-2.7-.2-5.3-.7-8-.7-2.3-.1-5.8,1.1-8,.2-3.4-1.4-1.7-11.4-2-14.8-.3-4-2.8-11.4-1.3-15.1,1-2.6,4.9-3.7,6.9-5.8,3.3-3.4,6.3-7.3,7.6-11.9,4.1,3.3.6,5.5,1.8,9.5,1.4,4.4,3.9,3,5.9,0,3.3-5.1,3.1-12.9-.1-18a20.265,20.265,0,0,0-7.8-6.7c-2.5-1.3-7.9-3.7-10.6-2.6-7.4,3,.5,11.8,4.2,13.9-.9,2.6-7.3,6.4-9.7,7.5-3.5,1.3-8.1,2.3-12,3.4Zm101.4-80.8a14.1,14.1,0,0,0,.7,4.1,11.443,11.443,0,0,0,5.5,6.5c5.1,2.7,15.5-1.2,20-4.3,0,9.5,1.7,17.1,4.4,26.1,2.6,8.7,8,15.8,12.6,23.6,2.4,4,4.6,8.2,7.9,11.5,3.4,3.4,4,4.6,3.7,9.6-.5,8.1-4.4,13.7-11.7,17.1-5.8,3.2-17.8,5.8-24.1,3.1-6.7-2.8-13.1-10.2-17.4-15.8-9.8-12.8-14.8-32.1-14.2-48,.3-8.3.7-16.8,1.5-25,.6-6,.4-14.7,9.1-12,2.9.9,1.8.2,2,3.5Zm33.6,111.2c.8-1.7,8.3-3.4,9.6-2.4,2,1.5,2,10.5,2.7,13a72.628,72.628,0,0,0,4.3,11.8,79.282,79.282,0,0,0,15,22.4c6.4,6.4,13.8,10.9,21.6,15.5,2.2,1.3,4.4,2.9,6.7,4.1,1,.5,2.7.7,3.5,1.5,1.9,1.9,1,5.7,1,8.1-.1,9.8-.1,19.2,1.2,28.8-7.6-5.9-14.5-13.4-21.3-20.3-7.1-7.2-16.3-12-23.1-19.6-6.1-7-11-15.1-15.5-23.1-2-3.5-5.7-8-5.9-12.1-.1-4.4,1.9-9.2,1.9-13.8,0-3.3-3-11.3-1.7-13.9Zm91.7,99.6c-.5,2.9-.1,9.3-4.2,9.9-2.8.4-4.6-2.2-5.6-4.5-3.1-6.8-2.1-15.8-3.3-23.1-1.4-8.6-1.4-17.1-2.5-25.7-.9-7.6-4.1-17.2-2.4-24.6,1.5,0,5.7,14.6,6.6,16.9,1.9,4.8,4,8.8,5.6,13.8a121,121,0,0,1,5,19.7c.8,4.7,3.3,13.3.8,17.6Zm22.6-32.4c-3.8,5.9-8,12.1-13.3,17.1,0-2.8-2.1-11.8-.7-13.9,1.7-2.6,11.2-2.7,14-3.2Zm-148.3-233.7c3.2-1.5,6.9-1.9,10.1-3.5a23.422,23.422,0,0,1,8.9-2.6c12.1-1,24.4,2.1,35.6,5.5,6.2,1.9,11,5.9,16.2,9.5,5.4,3.7,8.3,6.8,10.7,13a183.91,183.91,0,0,1,10.1,39.9c2,14.2-1.3,28.6-1.1,42.9.2,14.1,1.2,28.7,5.7,42.1,3.5,10.4,9.6,27,22.5,28.1,12.3,1,22.6-11.7,27.7-21.1,13.4-25.1,18.4-53.7,19.1-81.9,1.9-9.4,3-19.6,6.2-28.6,3.6,5.7,6.6,11.8,10,17.7,3.7,6.4,3.4,11.7,3.1,19-.2,5.7-2.3,11.1-3,16.8-.8,6.5-2.4,12.9-2.8,19.5-.4,7.8,0,15.7-.7,23.5-.6,6.5-2,13.1-3,19.6a107.763,107.763,0,0,0-1,18.8c.1,6.1,2.2,12,7.4,15.2-7.7,9.4-17.2,23.4-30,25.6-4.3.7-8.3,1.3-12.7,1.7-3.5.3-7.7,2.2-10.7,0-5.3-3.8-6.3-12.3-8.3-17.8-1.4-3.8-15-35.2-22.2-26.3-1.3,1.6-1,7.4-1.2,9.6-.3,3.2-.2,6.5-.3,9.7-.1,4.1-.5,8.3-.2,12.4.2,2.5,1.7,5.1-1.1,5.7-2.6.6-8.1-4.6-10-5.9-2.5-1.8-5.3-3.1-7.8-4.9a51.373,51.373,0,0,1-13.2-13.1,88.954,88.954,0,0,1-9.7-16.6c-1.3-3-2.4-6-3.4-9a30.555,30.555,0,0,1-1.5-4c.3-.9,3.7-2.3,4.6-2.9,9.7-7.7,11.7-26.8,9.1-38-1.6-6.8-6.8-12.7-10.4-18.5-3.6-5.6-7.3-11-10.3-16.9-3.3-6.5-5.8-13.4-8.7-20.1-1.4-3.2-3.1-4.9-1-7.8,1.3-1.8,4-2.6,5.1-4.5,1.2-2,1.3-5.8-.8-7.3-2.3-1.6-5.6.6-7.7,1.5-2.8,1.1-5.6,1.7-8.4,2.6-3.2,1-6.1,3.2-9.6,3.2,1.8-6.3,9.8-5.7,12.4-11.6,1.8-4,1.5-11.5-4-12.2-3.1-.4-5.6,2-7.9,3.6-3.1,2.1-5.4,2.5-8.9,3.2-1.3.2-3.5,1.5-4.7,1.1-2-.7-.9-.3.2-1.9,1.6-2.5,5.3-4.9,7.6-6.7,5.1-4.1,12.1-7,16.5-11.7,2.9-3.1,4.3-13.6-1.2-15.3-2.2-.7-5.8,1.5-8,2.2-3.7,1.1-7.4,2-11,3.3-6.4,2.3-12.6,5-19.1,7.1,3.9-5.7,11-10.2,16.8-12.9Zm217.3-1.6c0,3.6,1.4,10.5-.2,13.8-1.4,3-10,4.6-13,5.8-9.8,3.7-19.5,7.8-29.5,10.8,10.3-15.2,25.7-24.1,42.7-30.4Zm-1.4-49.3c-2.5,3.6-7,8.6-12.1,6.9-5.6-1.9-9.9-10.4-7.1-15.8,2.4-4.6,9.4-7.5,13.6-3.9.9.8,1.5,2.8,2.4,3.4.6.4,1.5-.7,2.2-.2,2.1,1.3,2.9,4.3,5.9,4.1,1.4-.1,5.8-3.7,6.7-4.7,2.4-2.5,1.6-5,2-8.3.5-4.5,3.6-5.2,7.2-7.5,3.4-2.2,6.1-5.5,9.4-7.6,4-2.5,1.7.7,5.4,1,.7.1,2.1-2.1,3.3-2.1,1.5,0,2.1,1,3,2.1,1.8,2.3.5,3.1,3.7,3.6,2.3.4,3.7-1.3,5.7-1.3,1.6-1.8,4-5.7,6.9-4.5,2,.8,2.7,4.9,3.1,6.6,1.6,6.5,1.5,14.1,1.5,20.8-3.7-2.6-4.2-4.4-5.4-8.6-.8-2.7-2.6-6.8-4.6-2.6-.6,1.2-.1,3-.5,4.2-.4,1.5-1.5,2.2-1.6,3.8-.4,3.9,2.8,5.3,5.6,7.2-2.6,2.8-10.1.7-8.1,6.7,2.1,6.3,10.2,2.8,14.2,1.2,3.4,13-11.8,19.3-21.1,22.9-5.5,2.1-7.6,3.3-8.3,9.6a34.316,34.316,0,0,0,2.1,16.2,55.165,55.165,0,0,0,2.7,6.7c.9,1.6,2.8,1.7,3.4,2.6,2.3,3.3.6,10.5.4,14.4-.7,10.8-4.1,20.7-5.6,31.3-.7,5.4-3,10.5-3.9,15.8-.9,4.9-1.2,9.5-5.4,13-8.3,7-14.7-3.4-17.6-10.2-4.1-9.7-4.5-22.5-3.8-32.9.7-11.3,5.9-22.1,6.2-33.3.3-12-1.5-23.4-4.5-35-1.3-5.1-3.2-9.6-4.8-14.5-1.5-3.9.7-7.5-2.2-11.1Zm21.5-118.6h0s-.1-.1-.2-.2l.2.2Zm.3-1.1a11.965,11.965,0,0,0-.6-2.4c.4.3,1,.5,1,.8a3.1,3.1,0,0,1-.4,1.6Zm12.3,2.1c-.1,0-.2.1-.3.1a.749.749,0,0,1-.5-.1h.2a.637.637,0,0,0,.6,0Zm6.5-2.1a8.094,8.094,0,0,0-3.7.5l.6-.3a9.4,9.4,0,0,1,3.1-.2Zm-65.4,316.8c.2-5.4.2-7,4.5-10.5,3.6-2.9,7-6,10.6-8.8,7.9-6.4,16.4-13.1,25.5-17.8,5.1-2.7,18.9-8,15.4,2.5-3.3,9.9-9.7,18.7-15.1,27.5-5.6,9-11.2,18-17,26.8-2.5,3.8-5.2,7.6-7.6,11.5s-2.6,6.4-7.5,4.9c-3.5-1.2-7.5-2.6-10.9-4.1-2.9-1.3-2.8-2.1-2.8-5.6,1.8-9.1,4.5-17.2,4.9-26.4Zm22.7-108.5c-1.2,5-10.1,5.6-14.8,6.5-.8.2-5,1.5-5.7,1-1.5-.9-.8-3.5-1.4-4.8-3.6-7-3.6,1.9-4.6,4-2.8,5.7-7-5.8-8.6-8.6-1.2-2.2-2.5-3.3-1.2-5.1,1-1.5,6.8-2.6,8.6-3.2,6.5-2.4,12.9-4.8,19.3-7.2,2.8-1,11.3-6.5,11.2-1.3-1.1,6.1-1.3,12.7-2.8,18.7Zm-4.8,59.2c-2.7.8-10.1,4.2-12.8,2.6-2.3-1.3-.7-6.1-.5-8.5a97.675,97.675,0,0,0,.2-14.3c-.4-6.9-1-7.4,5.8-9.3,2.6-.7,10.6-4.6,12.6-2.4.9,1,.5,4.3.7,5.5a34.773,34.773,0,0,0,2.2,7.8,59.353,59.353,0,0,0,6.7,12.1,65.447,65.447,0,0,1-14.9,6.5Zm-15.4-48.6c1.2-1.7,7-1.9,8.9-2.3,3.4-.7,6.8-1.4,10.2-2.2.2,4.2,2.5,15-.5,18-1.7,1.7-7.3,2.1-9.7,2.7-2.6.6-5.2,1.3-7.8,1.9-.3-4-.5-8-1-12,0-1.4-1-4.7-.1-6.1Zm.7,54.9c1.8-2.1,6.7-2,9.4-2.6a79.468,79.468,0,0,0,12.5-4.1c2.3-1,6.8-4.2,9.3-3.4.7.2,2.2,3.1,2.7,3.7a27.94,27.94,0,0,0,11.4,5.7c-18.1,7.4-32.6,20.6-47.6,32.8-1.1-.9-.5-8.8-.4-10.7q.3-5.1.6-10.2c.1-2.9.2-9,2.1-11.2Zm54.9,72.2c-.5,3.1-.6,7.3-2,10.2-1.2,2.6-1.1,2.4-4.3,2.5-4.1.1-8.8.8-12.7-.5,3.5-7.8,6.5-16.2,11.3-23.3,1.5-2.2,4.4-7.9,7.6-7.6s2.5,3.5,2.2,5.8c-.4,4.3-1.3,8.6-2.1,12.9Zm15.9-121.5c2.4-16.8,2.2-33.2,2.2-50.1,3.9.5,8.2.2,12,1.3-1.2,3.9-4.7,7.4-1.3,11.1,3.5,3.7,11.7,5.4,16.5,6.8,5.6,1.6,11.3,3.6,17,4.5a23.922,23.922,0,0,0,8,.3c4.1-.8,4.5-1.9,7.2,2.4a.1.1,0,0,0,.1.1,6.527,6.527,0,0,0-2.6-.2c.1.3.2.7.3,1a6.6,6.6,0,0,0-2.6-1.1c-2.7-.5-6.1.7-8.7,1.3a146.144,146.144,0,0,0-17.2,4.8c-4.7,1.7-9.4,3.5-14,5.7-3.5,1.7-11.6,4.7-12.7,8.8-2.1,8,19,14,24.1,16.7,4.9,2.5,3.3,6.3,3.4,11.4.1,5.5.6,11,.2,16.4-.3,4.3-.6,3.6-4.9,3.5-3.2-.1-6.4-.2-9.5,0a46.044,46.044,0,0,0-13.3,2.5c-6.3,2.4-18.4,14-6.3,17.6,5,1.5,11.3.9,16.4.6,4.4-.3,11.3-2.3,15.6-.8q3.3-.9,2.4,2.4c.1,1.5.2,3.1.3,4.6l.6,9.3c.4,6.3.8,12.6,1.3,19-3.7-5.2-8.8-15.6-16.6-14.4-6.8,1-10.7,11.5-12.9,16.9a106.666,106.666,0,0,0-4.1,13.6c-1.1,4.4-1.6,10.6-3.7,14.6-2.1,3.9-4.9,2.6-9.2,3-5.3.5-3.2-2.5-2.3-7,1.3-6.9,5.8-18.7,1.4-25.1-5.6-8.2-13.5,7-15.6,11a124.912,124.912,0,0,0-5.3,11.8c-1,2.6-1.8,8.2-4.4,9.6-3.1,1.7-8.1-1-11-2-3.4-1.1-7.1-1.5-10.5-2.2,9.9-15.5,20.2-30.7,29.8-46.4,4.8-7.8,10.8-16,13.5-24.9a12.782,12.782,0,0,0,.9-5.1c-.2-1.5-2.5-3.9-2.3-5,.2-1.6,3.4-2.9,4.8-4.5,5.1-5.7,6.4-12.5,8-19.8,1.7-7.7,3.8-16,5-24Zm19.3-48c7.5-1.6,16.1,2.7,22.4,6.2,4.2,2.3,15.2,7.1,15.7,12.8-.1-1.5-10.3-.6-12.3-.5-8.6-1.9-17.8-4.4-25.8-8.1-2.9-1.4-6.4-2.7-5.3-6.2.6-2.3,3.2-3.7,5.3-4.2Zm-8.7,111.1c-4.8-.3-22-.1-13.3-8.7,5.4-5.4,15.5-6.6,22.7-6.6a64.93,64.93,0,0,1,7.7.5l2.1.3c2.2-.4,2.8.5,2,2.7.4,1.3,1,9-.1,10.1-1.5,1.4-6.3.8-8.1.9-4.4.2-8.7.8-13,.8Zm25.2,65.3c-12.5,1.9-25,4.2-37.7,4.4,1.9-9.3,4.1-18.5,7.6-27.3,2.2-5.6,6.2-17.8,13.9-17.2,6.2.5,13.4,11,15.1,16.4,2.2,7.1,1.1,16.4,1.1,23.7Zm32.2-140.7c-.2,1.3-5.9,3.6-7.1,4.3a62.052,62.052,0,0,0-21.6,21c-.6-3.3-.5-9.5-3.2-11.8-4.8-4.1-3.8,5.1-4.4,7.9-.5,2.6.1,2.2-2.1,2.4-2,.2-7.1-3.6-9-4.5-5.1-2.6-10-5.5-15-8.5,4.1-6.7,16.1-9.8,23-12.5,9.9-3.9,19.6-5.9,30-7.5,1.7.9,2-1.1,3.3-1.6a.367.367,0,0,0,.1-.3c1.5,2.4,6.4,9.2,6,11.1Zm12.8,90.9c4.9,22.3,6.1,45.5,12.2,67.5,5.8,20.9,11,41.8,17.7,62.4,3.9,11.9,7.5,23.9,12.7,35.3,3.6,8,6.5,25,15.3,28.7,5.8,2.4,8.3.3,7.7-5.6-.5-5.1-3.2-8.3-5.3-12.7-.8-1.5-3.2-5.8-3-7.5.3-2,.8-1.8,3-2.8a74.229,74.229,0,0,1,13.7-4.8c-1.9,3-5.8,7.2-6.1,10.9-.3,3,1.9,8.5,4.9,9.7,2.8,1.1,6.1-1.2,8.6-2.6,2.8-1.6,5.5-2.1,8.5-3.2-3.9,5.7-10.3,10.2-7.6,17.9,2.9,8.3,12,1.5,17.9.6-1.7,6.4-9,13.8-14.3,17.3a97.274,97.274,0,0,1-11.3,6.5c-1.5.8-3.4,1.2-4.8,2.1-.5.3-1.4,1.8-1.9,2-6.6,3.2-15.6,4-22.8,5.5a83.443,83.443,0,0,1-22.9,1.7c-6.7-.3-14.2-4.5-19.8-7.9-4.3-2.6-4.9-5.9-6.2-10.5-2.2-7.7-4.2-15.5-6.3-23.3-1.8-6.7-2.7-13.1-3.9-19.9-2.6-14.4-3.8-29-6.6-43.4-2.8-14.3-3.7-28.7-4.5-43.3-.4-7-1.5-14.2-1.9-21.1-.3-5.6-.2-11.2-.2-17,0-4.1-1.4-8.1-1.3-12.2a73.59,73.59,0,0,0,0-10.5c-.8-7.7-1.4-15.4-2.1-23.1-1.2-15.1-4.7-30-6.1-45-.6-6.5,6.5-12.7,11.4-16.5,5.2-4,9.3-9.7,15-12.9,2,26.2,4.7,52.1,10.3,77.7Zm-85.5,278.9-16.8,7.5c-4.1,1.8-9.5,5.6-14,5.3,3.2-4.4,5.2-9.3,8.7-13.6,3.4-4.2,6.2-8.7,9.3-13.2,4.1,4.9,8.3,9.5,12.8,14Zm1.2-21.9c8.5-4.5,20.5-12.9,30.4-11.3,7.1,1.2,15.2,6.4,19.5,12.1,2,2.7,4,5.2,6.4,7.9,2.1,2.4,3.2,2.1,1.4,4.6-1.4,1.9-4.8,3.3-7,4,0-4.3,1.3-8.5-3.8-8.1-2,.2-4.4.6-6.4,1-1.7.3-2.7,1-4.2,1.4-1.6.4-3.5-.1-5.1.1-2.8.2-5.1,1.3-7.7,1.9a138.435,138.435,0,0,0-15.5,4.7c-2.5-3.8-4.5-8.3-7.9-11.3-3.7-3.5-5.3-4.2-.1-7Zm-72.5-562.4a3.56,3.56,0,0,0,2.4-1.6c-1.2,1.8-1.8,1.8-2.4,1.6Zm-25.4,2.9a11.444,11.444,0,0,1,2.8.8,8.32,8.32,0,0,1,1.7,1.2,4.893,4.893,0,0,0-.7-.3,27,27,0,0,0-3.8-1.7Zm-16.9,139.7c-.1-.1-.1-.2-.2-.3a.78.78,0,0,0,.2.3Zm-3.3.5a1.553,1.553,0,0,1-.8-.6,1.557,1.557,0,0,0,.8.6,1.487,1.487,0,0,0,.7.1,1.489,1.489,0,0,1-.7-.1Zm-1.3-2.7a3.083,3.083,0,0,0,.1,1,2.787,2.787,0,0,1-.1-1Zm4,1.5-.2-.2.2.2Zm-.7-.6a.755.755,0,0,0-.4-.2.751.751,0,0,1,.4.2Zm140.6-134.7a.9.9,0,0,0,.5.1,4.423,4.423,0,0,1-.5-.1Zm4.4,2.9a4.366,4.366,0,0,1-1-1.5.367.367,0,0,0,.3.1l.5-.5a1.11,1.11,0,0,0-.1,1.1c.8,1.7,1.8-.9,3,.4-1,0-2.1.4-2.7.4-1.4,1.9-2.8,3.9-4.2,5.8,1.9,1,2.5-.2,3.6,1.5.1.1.1.3.1.6-.4-1.3-1.6-1-3.7-2.1,1.3-1.9,2.8-3.9,4.2-5.8Zm3.6,4.3a1.381,1.381,0,0,0,.3-.4c0-.1.1-.3.1-.4,0,.2,0,.3-.1.4s-.1.3-.3.4a.366.366,0,0,1-.3.1c.1,0,.2-.1.3-.1Zm.4-2.1v0Zm-2.1,5.2c.1.1.1.2.2.3,0-.1-.1-.2-.2-.3Zm-2.1,7.6c-2-1.1-.3-2.4-.2-4.1v.5c-.1,2.3-1.8,3,1.2,3.7.2,0,.5.1.8.1a4.7,4.7,0,0,1-1.8-.2Zm31.3,17.4c-.1-1,4.4-3.1,4.9-3.3-.6.3-5,2.4-4.9,3.3Zm5.2-8.5h0a.31.31,0,0,1-.1-.2c0,.1,0,.2.1.2Zm2.3,7.8a5.586,5.586,0,0,0,.1-.7,5.16,5.16,0,0,1,.2,1.1.535.535,0,0,0-.3-.4Zm-3.4-.1c0-1.6.5-1.3.8-1.2-.3.4-.8.5-.8,1.2Zm-4.8,3.6a1.344,1.344,0,0,1,1.2.5c-.7-.2-1.4-.4-1.2-.5Zm-3.8,9.3c-.1,0-.1,0-.2.1,0-.1.1-.1.2-.1Zm.3-.1c-.1,0-.1,0-.1.1l.1-.1Zm-.7.2a.366.366,0,0,0-.3.1.366.366,0,0,1,.3-.1Zm3,56.3a1.626,1.626,0,0,1,1.1-.5,1.746,1.746,0,0,0-1.2,1.5,1.211,1.211,0,0,1,.1-1Zm3.5-10.4h-.1c-1-.1-1.4.6-1.5,1.5a1.946,1.946,0,0,1,1.1-1.8c0-.1-.1-.1-.1-.2.2.2.4.3.6.5Zm-1.2,5.2a.756.756,0,0,0-.1-.4,7.362,7.362,0,0,0,.4,1.4c-.1-.3-.2-.7-.3-1Zm.9-16.2c-.1,0-.2.1-.3.1a.368.368,0,0,0,.3-.1Zm.2-.1c-.1,0-.1.1-.2.1a.345.345,0,0,0,.2-.1Zm-.5.2c-.1,0-.2.1-.4.1.2,0,.3,0,.4-.1Zm1-11.8v0Zm196,583.4c-2.7-2.4-11.8-2.6-15.3-3.3,7.8-7.4,13.6-26.2-1.2-28.7-3.3-.5-4.2.7-5-3-.5-2.3.5-4.4-.7-6.7-2.7-5.4-12.9-4.8-18-5.6,1.2-4.3,4.2-11.9-.3-15.4-3.6-2.7-10.9.9-14.7,2.1-10.2,3.2-20.6,6.8-29.2,13.2-3.9-5.2-7.9-10.3-11.1-16-3.1-5.4-5-11.3-7.9-16.8s-6-11.9-10.1-16.7c-3.4-4-8.2-4.4-12.7-6.3-11.5-4.8-21.5-4.6-33.5-2.8s-22.4,8.8-32.6,15c-4-13.5-13.2-28.1-27.6-32.3-6.4-1.9-13.2-.1-19.1,2.9-7.3,3.6-13,9.8-20.1,13.3,8.1-13.9,18.4-27,27.3-40.1,4.9-7.2,11.1-13.6,15.9-21,4.9-7.5,8.5-15.8,12-24,3,7.6,3.5,15.6,6.2,23.3,2.5,7,4.2,14.2,7.1,21.1,3,7.2,5.6,14.3,9.7,21,2.3,3.8,8,15.7,12.2,8.1,9.3,6.3,18.3,10.1,30,9.8,5.3-.1,11.3-.3,16.4-1.5,5.2-1.2,10.1-2.8,15.3-4,4.1-.9,7.8-3.4,11.5-5.3,4.3-2.1,8.5-5.9,11.8-9.3,4.1-4.1,8.3-8.1,12.4-12.2s3.8-8.2,5.9-13.3c2.3-5.3,3.2-10,.2-15.3-2.2-3.9-6.1-3.4-7-7.3-.9-3.8,0-7.3-2.4-10.7-1.8-2.6-8.2-4.4-8.2-7,0-2.2,2.3-4.2,2.2-6.8a19.61,19.61,0,0,0-2.5-8.2c-2.4-3.8-6-3.9-10.1-2.7-9.9,2.8-19.6,9.9-26.4,17.4-9.3-25.6-16.7-51.7-23.5-77.8-3-11.5-5.4-23.2-7.3-35-1.9-11.7-4.8-23.4-6.1-35.1-.8-7-2.9-13.6-3.9-20.5-.8-5.7-1.4-11.5-2.2-17.3-1.8-12.7-4.4-25.3-6.3-38-1.1-7-3.5-13.2-5.4-19.9-1.6-5.8-2.6-10.8-5.3-16.2-5.2-10.5-10.5-23.3-20.5-29.9-8.9-5.9-17.6-10.8-28.5-12.1-6.4-.7-11.5.8-17.8,1.5-5.5.6-10.3,3.7-15.6,4.8,0-5.1-.5-5.3,4.2-7.1,2.7-1,5.3-2.2,8.1-3.1a25.011,25.011,0,0,0,7.5-3.7c2.9-2.1,1.1-1.4,4.6-.7,5.5,1.1,3.9-.2,7.5-2.9,2.1-1.6,4.2-.6,6.7-.3,2.3.3,6.1,1.3,7.8-.8,1.3-1.6-.1-4.3.9-6,1.5-2.7,6-2.6,8.4-4.4,2.6-2,2.8-4.2,2.3-7.3-.4-2.1-3.7-6.8-3.5-8.6a1.664,1.664,0,0,1,1.6-1.7c6.5.3,6.2-.7,4.6-6.4-.1.9-.1,1.6-.2,2.2a6.841,6.841,0,0,1,.2-2.2c.2-.4.8-.6,1.3-.9l-.5.5c.3,1.2.4,4.4,1.5,5.3.8.6,3.8.6,4.4-.5,1.2-2.2-3-3.4-3.2-5,4.9-.4,3.2-2.8.7-5.3-.1-.7.3-1,1.2-1a2.479,2.479,0,0,0-1.5-.8,1.884,1.884,0,0,0,.9-.4.94.94,0,0,0,.1-.9,2.544,2.544,0,0,1,.2.7c4.2,1.7,2.1-7.4.3-8.9.1-2.5.3-5,.4-7.6a5.62,5.62,0,0,0-2.4,3.3c0-1.2.7-2.2,2.4-3.3-2.7-1.2-3-1.3-.1-1.6,2.4,2.2,2.1.4,3.6-1-.1.1,2.3-2.5,2.1-2.1,1.1-2.8-.1-8.6-4.6-6.7,2.5,2.2,0,2.6-.9,4.5,0,.1-.1.1-.1.2a1.421,1.421,0,0,1,.2-.6c1.5-3.3,1.9-.8.2-4.5h0a2.678,2.678,0,0,0,2.2-.3c1.4-1.7,1.8-1,2.5-3.1q.9-2.85-.9-3.9c.1,0,.3.1.4.1a2.769,2.769,0,0,0-1.5-3.5c-.5.9-1.1,1.7-1.6,2.6.2.1.5.1.7.2h0c-1.7-.2-2.4.1-2.6.9a1.183,1.183,0,0,1,.1-1c.2-.3,1.7.2,1.8-.1,2.6-4.3-.1-7.8-4.3-10-1.6-.8-4.7-.9-5.3-2.8-.4-1.4,1.6-4.7,2-6.3,2.9-1.3-2.5-2.1-2.5-2.1-.2,1.9-.1,2.8,1,2.6-1.1.2-1.2-.7-1-2.6,1.6.2,6.3-.2,8.5-1.8,3.8.1,5.7.8,8-2.5-2.2-.9-4.9-.4-6.9-1.9a4.97,4.97,0,0,1,.2,1.2,3.6,3.6,0,0,0-1.1-1.4c.3.3.2.4-.2.4a.52.52,0,0,0,.2-.4c.1-1.6,1.3-.9,2.5-.8a2.654,2.654,0,0,0-.5-1.4,4.566,4.566,0,0,1,.5,1.4c.8-.5,1.5-1,2.3-1.4a1.234,1.234,0,0,0,.8-.5h0c3.6,1.1,2.5-6.5.8-6.5a1.53,1.53,0,0,0-1,.4,18.292,18.292,0,0,1,.5-2.5h0c.2-.4.3-.9.5-1.3-.9.1-3.8-1.7-3.9.4a1.913,1.913,0,0,0-.5-1c.3-2.3-1.1-2.1-3.2-2.8-.8-.2-1.6-1.7-2.5-1.1-1.3.9-.5,1.8.3,2.5a2.865,2.865,0,0,1-1.1,1.9c-.1-.1-.2-.2-.3-.2a3.028,3.028,0,0,0,1.4-1.7c-2.7-2.1-3.9-.7-5.9,1a4.251,4.251,0,0,0,2.7,1.1c0,.1-.1.2-.1.3a3.973,3.973,0,0,1-2.6-1.4c2.2-1.8,2-3-.7-4-.9-.4-1.5.5-2.6,0-.6-.2-1-1.2-1.5-1.5-4.1-2.4-9-1-13.3-1.6.5-.1,1-.1,1.4-.2-.4-1.5-1.6-2.1-2.8-2.6v-2.6c-.2,0-.3-.1-.5-.1a.97.97,0,0,0,.4-1.1,2.015,2.015,0,0,1-2.5-.7c1.1,1.5,3.4.7,4-1.2.7-2-.8-3.3-2.1-4.7,0-1.4-.6-1.9-1.3-2,1.4-2.7,1.7-1.4.2-4.8-.1-2.3-2.1-1.5-3.4,0,.1-.3.3-.7.4-1-1-.1-2.1-.1-3.1-.2.3.8.8,2.3.1,3,.5-.7.1-2.3-.1-3-1.3-.7-2.5-1.4-3.8-2.1.1.2.4,1.1.8,2a33.1,33.1,0,0,0-3.1-3.6c-.6-.7-3.2-3.9-3.9-4.1-4.3-1.2-7.5,7.1-12.8,6-3.1-.7-1.6-1.5-4.6-.9-1.6-2.1-12,1.2-12.4,3.2a.9.9,0,0,1,.5-.1c-1.2.4-2.2,1.1-3.3,1.5-2.9,1.1-1.2,1.4-4.4-.5a3.885,3.885,0,0,0-1.9-.5c1.4-.6,2.1-5,2.1-6.5,0-3.7-.4-3,1-5.7a8.764,8.764,0,0,0-3,.2,5.663,5.663,0,0,0,.3-1.8c.7-2,.1-4.3-2.1-4.8-3.4-.8-4,4-1.6,4.8-2.3-.8-1.4-3.8-4.6-4.2,1.2-.1,1.9.2,3,1.5.4-.7.7-1.5,1.1-2.2-2.5-.3-3.7-.5-5.7.7-2,.4-3.4,1.8-4.9,3.2-4.1,3.9-7.8,7.6-11.6,11.8-1.9-4-4.1-6.9-7.3-2.4a50.262,50.262,0,0,0-6.6,14.3c-3-1.4-1.7-1.8-3-4,1.3,2.1,0,2.6,3,4,.3-.9.6-1.9.9-2.8-2.6-3-2.5-5.9-5.3-9-.3,1,.6,2.4.7,3.4.2,1-.9,1.7-.7,2.8,1-.4,1.3-.2,1.3.3,0-.4-.3-.6-1.3-.3-.4-1.8.6-2.7,0-4.7a6.256,6.256,0,0,0-1-2c1.8-3-4-5.1-5.3-3.3a2.092,2.092,0,0,0-.4.6c-2.3-1-3,1.1-4,2.8a10.93,10.93,0,0,1-.8,1.5c-1.3,1.1-2.6,3.4-3.6,4.9-2.1,3.2-3,7.9-5.7,10.5.1-1.7,1-5.5-2.1-4,1-.5,1.2-1.1.9-1.8l.6.3c.4,0,.9.1,1.3.1-.1-2.4-1.6-4-3.5-5.3v1.8c-.8-2-.5-2.6-1.2-3.2a3.086,3.086,0,0,0,1,.1c-2.3-3.9-5.4-4.5-9.6-3.4.3.1.6.1.9.2a3.529,3.529,0,0,0-1.4.3c-1.6.8-4.1,5.4-5.2,7-4,5.6-5.9,12.5-8,18.9-.6,1.8-1.5,6.1-3.8,6.7-2.6.7-5.5-3.6-7.8-5-7.5-4.6-11.2,3.7-12.3,10.2-1.7,2.9-1.3,5.2,1.2,6.5a6.471,6.471,0,0,1-1.1-3.2c.3,1.9,1.9,2.5,2.2,3.3a20.877,20.877,0,0,1,.4,3.6q1.95,1.5.3,2.1c-.7.5-1.3,1-1.9,1.5-1.8,1.9-1.8,4.5-3.4,6.3-1.8,2.1-3.5,1.2-4.4,4.6-1.5,5.8,2.2,14.7,8.8,15.2-.8,2.3-1.8,4.6-2.4,7-.8,3.1-.7,3.5.8,6.5-11-1.6-10.2,10-3.9,15.8a12.419,12.419,0,0,0,5,2.8c1.4.4,5.6.2,6.6,1.5,2.1,2.8-2.6,6.4-3,9.5a7.351,7.351,0,0,0,0,1.5c-1.7,2.1-1.7,2.3.8,4.3,1.4,1.8,5.6,1.3,6.8,3,2,2.6-2.4,6.7-.2,9.7,1.7,2.4,3.6.9,6.4,1.9,1.4.6,2.7,1.2,4.1,1.9a4.851,4.851,0,0,1,2.1-.8c1.6.8.1,2.2,2.1,2.7,1,.3,3.4,1.6,4.5.9-1.5.9-2.5,3.2-3.3,5.6-.8,1.3-1.6,2.8-1.3,3.9a20.917,20.917,0,0,1-1.6,3.9c3.4.5,3,3.8,5.4,5.5,3.2,2.8,3.8.2,3-1.1.3.2.7.4,1,.6.1,0-.6,1.7.1,2.1,1,.5.9,0,1.9,0,.9,0,2.3-1.4,3.4-1.5.6-.1,2.4.8,2.8.5a1.506,1.506,0,0,0,.5-2.3l.5.9c1.1,2.9,1.7,2.2,3.3,1.4-.5.2,1.3-1.1,1.7-1-.8-2.3-4.1-2.1-6.1-2.6,1.3.4,3.4.4,4.5.9,2,.8,1.3,1.7,3.7,2,1,.1,5-1,5.7-1.7.1-.1.1-.2.2-.2.4-.6.7-1.2,1.1-1.7,1.5.2-.1,2.5,2.2,1.5,1.7-.7.9-1.6.3-2.7a5.547,5.547,0,0,0-.6-.8c2.4.6,5.3,3.8,8.5,2.9,1.9-.5,2-1.8,3.3-3,1.8-1.6,2.4-1.3,4.6-2.1,1.3-.5,2.7-1.5,4.1-1.7,2.2-.4,1.6-.1,3.4.8,1.1.5,1.7,1.6,3.1,1.8,1.2.2,3.2-1.2,4.2-.9,2.7,1.1,2,4.9,2.2,7.5-13.9-4.4-30.1,2.6-40.3,12.3-2.8,2.6-4.6,5.7-7,8.6-2.7,3.1-5.2,4.5-5.6,8.9-.3,3.8,1.4,6.1,0,9.8-1.3,3.5-2.7,6.6-3.7,10.3-4.5,17.5-4.7,35.6-8.1,53.3a176.871,176.871,0,0,1-14.9,46c-3.4,7-6.2,11.2-13.7,14.2-6,2.4-10.4-.7-13.4-6.2-7.9-14.6-9.1-29.6-9-45.8a230.107,230.107,0,0,1,1.7-23.4c.8-8,.2-15.6-.4-23.6-1.1-16.1-4.8-29.9-10.3-45.1-2.6-7.2-4.8-14.2-11.1-18.9-3.5-2.6-7.1-5.9-11.2-8.2-3.3-1.8-5.3-3.4-9.1-4.3-2.5-.5-4.8-1.4-7.2-2.1a61.947,61.947,0,0,0-18.2-2.4c-13.9,0-29.1,4.7-41.6,10.7-6.2,3-13,7.4-17.1,13.1a39.217,39.217,0,0,0-4,7.6c-1.4,3.1-.9,3.7-3.9,3.6-1.8-.1-3.9-1.8-6-1.8-2.3-.1-4,.7-6.1,1.3a23.669,23.669,0,0,0-7.6,3c-5.8,3.8-10.8,9.8-15.2,15-8.2,9.6-15.5,20.3-23.2,30.1-7.5,9.6-16.6,18.1-28.3,22.5-4.5,1.7-9.4,2-13.9,3.3-2,.6-4.4,2.2-6.5,2.1-3.3,0-3-1.7-4.2-4.3a23.411,23.411,0,0,0-5.8-7.8c-10.8-10.3-24.3,4.9-23.5,16.7.5,6.8,5.6,11.4,5.4,18.1-.2,6.3.2,12.7,2.4,18.6,2.5,6.7,8.7,13.6,14.2,18.2,5.1,4.2,11.4,5.1,17.8,5.8,2.9.3,5.9,1.2,8.8,1.1,2.4,0,4.6-1,7.1-.9,4.2.2,6.4.1,10.4-1.3a21.357,21.357,0,0,1,8.7-1.6c0,6.7.4,13.2,1,19.9.1.9.7,3.2.3,3.9-.5,1-1.1.3-1.7,1-1.5,1.7-2.6,2.5-3.7,4.6a29.977,29.977,0,0,0-2.8,19.1c.9,5.2,4,7.3,3.3,12.8-.8,6.5-2.4,13-2.7,19.5a46.884,46.884,0,0,1-.8,8.4c-.4,1.7-1.7,4.9-1.6,6.6.1,1.1,1.2,1.6,1.2,2.6,0,.9-1,.8-1.1,1.5-.2,2.2-.3,4.3-.3,6.5.1,3.1-.2,6.1-.1,9.2.1,2.3-.5,7.8,2.2,6.9a13.77,13.77,0,0,0-1,4.8c0-.2-.1-.3,0-.5a11.257,11.257,0,0,1,1-4.3l-1.5.5c-.9,2.4.2,4.7.5,7v.7a68.19,68.19,0,0,0,.3,10.1c.6,7.8.9,16.4,3,23.4,2.3,7.6,1.6,17.2,2.5,25.7,1,9.6,2.7,19.1,3.9,28.7,1.1,8.6,1.6,17.9,3.5,26.2,1.5,6.8,2.8,13.5,3.7,20.7,1.1,10,4.8,17.5,8.8,26.6,1.7,3.8,1.8,3.8-1.3,6.6-1.3,1.2-2.4,2.5-3.7,3.7a16.38,16.38,0,0,1-9,4c-8.6,1-17.2,4.1-22.1,11.5-4.7,7.1-1.6,15.5,1.8,22.8-4.6.4-17,.1-14.1,8.5,2,5.7,12.6,3.8,17.3,3.9,6.8.1,13.7-.2,20.5-.3,3.1,0,3.4-.4,6.4.8a16.981,16.981,0,0,0,8.1,1c3.3-.2,6.5.3,9.7-.2,4-.6,6.5-1.1,10.5-.4a24.474,24.474,0,0,0,8.1-.1c3.2-.4,6.2-.2,9.5-.3,7.7-.2,15.4-.1,23.1,0,7.5.1,15-.9,22.5-.6,13,.6,26.2.1,39.3.4,6,.1,10.7,3.6,16.7,3.3,6.1-.4,12.4-.4,18.5-1.3,10.5-1.5,20.6-3.6,31.3-4.1,6.7-.3,12.7,2.6,19,4.4,2.3.7,4.4.4,6.5.8,2,.5,4.1,1.8,6.2,2.3a63.4,63.4,0,0,0,14.4,1.9c.6,1.1,1.2,1.2,2,.4.3-.2.6-.3.9-.5,1.4-.2,2.4-.8,3.9-.9,2.3-.1,4.6.2,6.8,0a68.23,68.23,0,0,1,13.6-.2c2.9.3,5.5-.1,8.4-.1,0,0,4,.8,4,.7.4-.1.9-1.1,1.1-1.2-.1-.9.2-1.4.9-1.3.5-.1.9.2,1,.8-.2,0,1.2.7,1.3.7s3.7-.4,3.9-.5c1-.4,1.5-1.5,2.3-1.7,1-.2,1.6.9,2.4.8,1.9-.1,1.6-.9,3.1-1.2,5-.9,11.2.3,16.4.3s10.3-.5,15.3-.7c6.1-.3,12.1.9,18.3.1,5.9-.8,11.8-1.1,17.7-1.4,12.4-.5,25.1,0,37.3-1.4,12.8-1.5,25.7,0,38.5-.2,13.5-.2,27-.4,40.5-.9,13.4-.5,26.8-2.1,40.1-2.5,3.4-.1,6.7-.9,10.1-1.1,3.1-.2,6.1.3,9.3,0,5.7-.5,10.9-.1,16.6-.2,6.4-.1,12.6-1.1,19-1.5s12.8.5,19.2-.8c3.3-.1,9.8-4.9,5.3-8.9Z" fill-rule="evenodd"/><path id="ink-shape-2" data-name="ink-shape" d="M438.737,107.029h0a.1.1,0,0,0-.1.1Z" fill-rule="evenodd"/><path id="ink-shape-3" data-name="ink-shape" d="M492.037,77.629c.8-2.8-1.2-4.8-2.6-7-.9,4.9-3.3,4.7,2.6,7" fill-rule="evenodd"/><path id="ink-shape-4" data-name="ink-shape" d="M343.636,183.029c0,.1,0,.1.1.2,0-.1,0-.2-.1-.2" fill-rule="evenodd"/><path id="ink-shape-5" data-name="ink-shape" d="M321.337,179.329c.2.4.6,3.3.9,3.3,2.6.1-.6-4.7-2.2-5-2.5,1.5,1.3,1.8,1.3,1.7" fill-rule="evenodd"/><path id="ink-shape-6" data-name="ink-shape" d="M321.136,162.629c-.2-2.2-.9-2.5-3-1.4.7,1.4,1.4,1.2,3,1.4" fill-rule="evenodd"/><path id="ink-shape-7" data-name="ink-shape" d="M292.136,109.129c1,.2,2,.3,3,.5-.6-1.3-1.2-2.7-1.8-4-.3,1.1-.8,2.3-1.2,3.5" fill-rule="evenodd"/><path id="ink-shape-8" data-name="ink-shape" d="M108.636,275.729c2.1-3.5,6.1-7.9,10.7-6.4,4.3,1.4,5.5,7,7.3,10.5,3.6,6.8,4.7-.5,5.5-4.7-.6-8.3-3.9-21.9-14.8-20.4-8.3,1.1-15.5,14.5-13.9,22.4,1.3,6.6,3.5,1.5,5.2-1.4" fill-rule="evenodd"/><path id="ink-shape-9" data-name="ink-shape" d="M424.437,118.929c-4.1-1.5-4.1,3-4.2,6.3-.1,3.1.3,10.2,4.2,11.3,3.8,1.1,4.2-5.2,4.8-7.8-1-3.1-1.5-8.6-4.8-9.8" fill-rule="evenodd"/><path id="ink-shape-10" data-name="ink-shape" d="M429.136,112.229c-3-2.7-5-3.5-8.8-1.8-2,.9-4.8,2.8-5.1,5.2-1,7.6,11.3-1.8,13.9-3.4" fill-rule="evenodd"/><path id="ink-shape-11" data-name="ink-shape" d="M429.837,157.429c7,1.8,7.4-7.8-.3-7.8-5.3,0-3.6,6.7.3,7.8" fill-rule="evenodd"/><path id="ink-shape-12" data-name="ink-shape" d="M376.337,127.629c-2.6.4-3.5,2-3,4.6.6,3,2.3,3,5.2,3.3,7.1.1,2.5-8.6-2.2-7.9" fill-rule="evenodd"/><path id="ink-shape-13" data-name="ink-shape" d="M438.237,111.429c.6,1.8,4.2,2.6,6,1.9,2.2-.8,2.6-2.8.7-4.6-1.7-1.6-4-1.1-6.1-1,0,.7-1,2.6-.6,3.7" fill-rule="evenodd"/><path id="ink-shape-14" data-name="ink-shape" d="M218.737,315.629c3.3,0,.2-5.6-2.6-6,.1,1.7,0,6,2.6,6" fill-rule="evenodd"/></g></g></svg>