<svg id="Layer_1" data-name="Layer 1" xmlns="http://www.w3.org/2000/svg" viewBox="0 0 771.061 723.309"><title>1</title><g id="Character_swinging" data-name="Character/swinging"><path id="Accent" d="M326.557,598.941c1.9,7.8,3.2,15.7,5.5,23.4,1,3.2,2.9,6.1,3.6,9.3.8,3.5-1.6,4.6-4.2,6.5,1.4-1.9,3.1-3.1,3-5.7-4.2,1-8.3,5.3-11.5,8-4.2,3.5-8.4,7.1-12.6,10.7-7.7,6.6-15.4,13.3-23,20-7.2,6.3-14.9,11.9-22.5,17.7a122.686,122.686,0,0,0-18.6,16.7c-1.1,1.3-4.7,7-6.9,6.1-1.1-.5-1.4-2.2-1.8-3.2-.7-1.7-1.3-3.4-2-5.1-1.4-3.9-2.7-7.9-4.1-11.8-1.2-3.2-3.1-5.7,0-8.5,5.8-5.2,11.1-10.8,16.9-16,6.7-5.9,13.7-11.4,20.5-17.2,6.5-5.6,12.7-11.5,19.4-16.9,6.5-5.4,13-10.7,19.3-16.3C314.157,610.841,320.057,604.541,326.557,598.941Zm421.3-55.8a16.353,16.353,0,0,1-4.3,4.4,57.328,57.328,0,0,0-5.4,5.6c-3.4,3.6-7.1,6.8-10.8,10.1-7.8,6.8-16.5,12.5-24.3,19.2-3.8,3.2-6.4,7.5-10.1,10.7-3.4,3-7.9,4.2-11.7,6.7-1.9,1.3-3.4,3.2-5.5,4.2-2,1-4.4,1.3-6.5,2.1a35.948,35.948,0,0,1-8,1.9c-2.4.3-4.4,1-6.8.6a26.672,26.672,0,0,1,3.6-2.2,9.758,9.758,0,0,1,3.4-.2c2.4-.1,4.5-1.4,7-1.5-2.2-1.8-5.6-.5-8,.2-3.1.9-6.2,1.7-9.3,2.6-14.4,4.3-29,7.8-43.6,11.2-14.5,3.3-29,7-43.6,9.8-14.1,2.7-28.4,4.5-42.6,7.1-15,2.8-30,5.7-44.9,9.1-7,1.6-14.1,2.9-21,4.8l-20.1,5.4c-1.8.5-3.7.9-5.5,1.5-1.7.6-3.1,1.5-4.8,1.8-3.1.5-5.9,1.3-8.9,1.9-6.9,1.6-13.6,3.9-20.4,5.8-7.4,2-14.7,4.1-21.9,6.4-6.8,2.1-13.8,3.6-20.5,5.9a27.044,27.044,0,0,1-4.8,1.6,27.032,27.032,0,0,0-4.1.5,29.038,29.038,0,0,1-4.1,1.6,8.494,8.494,0,0,0-3.7,1.2c-3,1.6-6.6,1.7-9.9,2.5-3.2.7-6.3,1.8-9.4,2.8-6.8,2.1-13.7,4-20.5,6-3.6,1-7.1,2.4-10.6,3.6-.9.3-5.8,2.3-4.8.3.4-.8,2.6-2,3.3-2.4,1.3-1,2.7-2,4-3,2.7-2,5.4-4,8-6.1,5.8-4.6,11.1-9.9,16.8-14.7,5.3-4.5,10.8-8.6,15.6-13.5,4.9-5,9.3-10.8,13.8-16.2,1.9-2.3,2.8-4.8,4.4-7.2,1.5-2.4,3.7-2.3,6.2-2.3h.5c7.3,0,14.8-2.6,21.8-4.7,6.6-2,13.3-4,20-5.5,3.4-.8,6.8-1.2,10.2-2.1,3.3-1,6.7-1.6,10.1-2.3a193.771,193.771,0,0,0,21.1-5.8c6.8-2.1,13.8-3.6,20.7-5.5,3.8-1,7.6-2.1,11.4-3.1,3.1-.8,6.5-2,9.8-2.3a101.107,101.107,0,0,0,20.4-3.4c3.5-1,7.1-1.6,10.7-2.5,3.3-.8,6.3-2.6,9.7-3.3,6.9-1.4,13.7-2.8,20.6-4.6a399.23,399.23,0,0,1,41.6-8.7c3.6-.5,7-1.6,10.6-2.3,3.4-.7,6.9-1,10.3-1.5,7.4-1.1,14.7-3,22-4.4,7.2-1.4,14.4-2.3,21.6-3.7,3.7-.7,7.4-1.3,11-2.2,3.3-.8,6.1-2.3,9.5-2.7a45.566,45.566,0,0,0,10.3-2.5,80.857,80.857,0,0,1,9.5-2.1c1.9-.3,3.2-1.5,5-2a22.211,22.211,0,0,1,4.5-.3c3.4-.4,6.7-1.7,10.1-2.4,7-1.4,14-2.6,20.9-4.2C734.157,547.141,740.957,545.041,747.857,543.141Zm-145,37.7c-2.8.1-5.5.2-8.3.4-6,.5-12,1.4-17.9,2.3-12.2,2-24.3,5.2-36.2,8.1-21.5,5.3-42.8,10.8-63.8,17.9-10.5,3.6-21,7.2-31.5,10.7-8.6,2.9-18.1,5.7-25.6,11-1.9,1.3-5.6,4.2-3.4,6.7,1.3,1.5,3.7,1.5,5.5,1.8a26.061,26.061,0,0,0,6.8.3c5.3-.5,10.7.1,16.1-.5a132.4,132.4,0,0,0,15.3-2.7c2.5-.6,4.9-1.4,7.4-2,2.6-.6,5.4-.5,8-1.1,2.3-.5,4.7-1.1,7-1.7a18.909,18.909,0,0,0,4.9-1.7c1.8-.9,3.9-.5,5.9-.9,2.3-.4,4.7-1,7-1.4,2.9-.6,5.9-1.2,8.8-1.8,2-.4,3.9-.8,5.5-2.2-2.7-2.1-5.1-.8-8.2-.1-3.5.8-7,1.6-10.6,2.4-6.6,1.5-13.2,3.2-19.9,4.4-6.6,1.2-13.1,2.7-19.8,3.4s-13.5,1-20.2,2a23.206,23.206,0,0,1-8.7.2c-1.9-.4-4.5-.3-2.3-2.4,1.4-1.4,3.7-1.7,4.7-3.5.5-1,.4-1.6,1.6-2a11.758,11.758,0,0,1,2.7-.3c1-.1,1.8.3,2.8.1a14.254,14.254,0,0,0,2.8-1.3c2.2-1,4.7-1,6.9-1.9.9-.4,2-1.7,2.9-1.9.6-.1,1.3.4,2,.4,1.9-.1,4-1.6,5.6-2.5a4.119,4.119,0,0,1,3-.6,2.845,2.845,0,0,0,2.5-.5c2.4-1.3,4.2-1.5,6.9-1.9a30.871,30.871,0,0,0,8-2.4c1.1-.5,2-1.2,3.1-1.7.8-.3,1.6-.3,2.3-.6,1.3-.6.2-.7.7-1.3.6-.5,1,0,1.7.1,1,.1.9-.1,1.7-.4a5.011,5.011,0,0,1,2.2-.2c2.7.1,5.3-1.6,7.7-2.5a18.155,18.155,0,0,0,3-1.1c.6-.4,1.1-1.4,1.9-1.3,1,.1,1.2,1.3,2.4,1.2.9-.1,1.6-.9,2.3-1.3,2-1.2,4.5-.7,6.7-1.5a18.261,18.261,0,0,1,3.3-1.1c.8-.2,1.3-.5,2-.7,2.2-.7,3.9,0,6.1-1.4a5.348,5.348,0,0,1,2.6-1.3c.9-.1,1.7.3,2.6.2,2.3-.3,4.9-1.5,7-2.3a30.929,30.929,0,0,1,7.9-2.2c2.7-.2,5.2-.2,7.8-1.1s5.2-1.7,7.7-2.7c2.4-.9,4.9-.8,7.4-1.2s5.8-.5,8-1.6c1.7-.8,3.6-.8,5.3-1.6,1.3-.6,2-1.3,3.5-1.3a17.1,17.1,0,0,0,3.2,0,10.358,10.358,0,0,1,3-.4,3.357,3.357,0,0,0,2.6-.5c2.3-1,5.1-.8,7.5-1.2a76.168,76.168,0,0,0,7.9-2,3.6,3.6,0,0,0,1.2-.8C607.757,580.641,605.157,580.741,602.857,580.841Zm149.3-74.3c1.6,3.6,2.3,8.1,3.5,11.9,1.1,3.7,2.2,7.4,3.3,11.2.8,2.8-1.3,3-3.4,3.2a52.1,52.1,0,0,0-10.2,2.4,215.759,215.759,0,0,1-22.5,5.2c-7.8,1.5-15.5,3.4-23.4,4.6-7.3,1.1-14.5,3.3-21.8,4.6a53.191,53.191,0,0,0-11.1,2.8,15.883,15.883,0,0,1-4.7,1.4,30.518,30.518,0,0,0-5.2.5,208.9,208.9,0,0,1-22.2,3.6c-7.8,1-15.5,2.7-23.2,4-3.8.7-7.6,1.3-11.4,2-3.3.6-6.8,2.1-10.1,2.2-2.2.1-4.2-.2-6.4.2-1.7.3-3.4.7-5.2,1-3.8.7-7.4,1.8-11.2,2.6-15.2,3.2-30.4,6.3-45.5,10-3.8.9-7.5,2-11.3,2.8-3.5.7-6.7,1.9-10.1,2.8-7.2,1.8-14.6,2.3-21.7,4.3s-14.5,2-21.7,3.8c-7.7,2-15.4,4.2-23,6.6-15,4.6-30.3,7.6-45.5,11.5-7.5,1.9-14.8,4.3-22.2,6.5-3.8,1.1-7.7,2.2-11.6,3-2.7.6-6.2,1.8-8.9,1.5-2.5-.3-4-4.7-5.1-6.6-1.5-2.9-1.8-5.7-2.2-8.9a17.263,17.263,0,0,0-1-4.5c-.4-.9-2.1-2.2-2.2-2.9-.3-1.6,5.3-1.6,6.5-1.9,3.5-.7,6.8-2.4,10.3-3.3a93.81,93.81,0,0,0,10.2-3.4c7-2.7,14.1-5,21.2-7.2,3.8-1.1,7.4-2.7,11.1-3.9,3-1,6.2-1,9.2-2,7.2-2.3,14.8-3.8,22.1-5.8,4-1.1,8.2-1.5,12.2-2.3,3.6-.8,7.2-1.7,10.9-2.2a80.427,80.427,0,0,0,9.7-2.3c3.5-1,7.1-1.2,10.6-1.8,3.9-.8,7.7-1.6,11.6-2.2a41.743,41.743,0,0,0,9.9-2.2c3.2-1.3,6.2-1.3,9.6-2.1,3.5-.8,7-1.2,10.5-1.8,4.2-.7,8.2-1.7,12.4-2.5,3.3-.6,6.7-.6,9.9-1.6,1.8-.6,3.1-1.4,5-1.6,1.6-.2,3.1-.3,4.7-.6,3.7-.7,7.5-1,11.2-1.6,7.6-1.3,15.2-2.2,22.7-3.8,4.1-.9,8.1-2,12.2-2.6a102.124,102.124,0,0,0,10.8-2,89.321,89.321,0,0,1,11.6-2.8c3.3-.5,6.7-1,10-1.7,8-1.7,16.1-2.1,24.1-3.3,7.3-1.1,14.7-2.4,21.6-5,3.6-1.4,7.5-1.9,11.1-3,3.6-1,7.2-2.1,10.7-3.1,15-4.4,30.2-8,45.5-11.2q5.55-1.2,11.1-2.4c1.5-.3,3.2-1,4.7-1.2C751.457,505.141,751.557,505.241,752.157,506.541Zm-218,101.9c-5,.6-9.9,1.2-14.9,1.9-4.7.6-9.6,1-13.9,3.3,7.6-.5,15.2-.7,22.7-1.8,6.8-1,13.9-3.1,20.8-1.3-3.1,2.4-7.1,3.3-10.7,4.5-4.6,1.5-9.2,3.2-13.7,4.7,1.4,1.8,3.7.5,5.4-.1,2.1-.8,4.3-1.2,6.4-1.9,4.9-1.6,9.6-3.7,14.4-5.8,1.3-.6,3.4-2.1,1.9-3.6-.9-.9-2.7-.7-3.9-.7A117.255,117.255,0,0,0,534.157,608.441Zm-266.2-482.8c2.4,3,0,5.3.2,8.5.2,3,3.3,1.5,5.3,1.1h.1l-1.8,8.9c-.7-.8.1-1.5-1.2-1.4a9.129,9.129,0,0,0-1.3.8c-.7.3-1.5.4-2.2.7.6.4,1.7,1.7,2.2,1.9,1.2.4,1.4-.8,2.3-1.3-1.2,16.2-4.3,34.5,2.2,50,.8,1.9,1.9,3.8,2.6,5.7.5,1.5.3,1.4-.7,2.3-.4.4-1.1,1-1,1.7.3,1.2,1.2.6,1.9,1.1,1.1.8.9,2.2,1.1,3.5a35.742,35.742,0,0,0,1,3.5c.2.7-.5.6.3,1.1.6.4,1.3-.1,2,0,1.1.1.4-.2.9.6a6.539,6.539,0,0,1,.6,2.3c-.3,1.4-1.6,1.2-2.8,1.6.8.8,1.7,1.4,2.4,2.2.2.3.2,1,.6,1.1.7.2,2.1-.7,2.7-1,.8-.5,1.7-1.7,2.6-1.8,1.5-.2,1.9,1.3,3,1.9,1.4.7,3,0,4.4.2a23.049,23.049,0,0,1,5,1.3,30.816,30.816,0,0,0,11.7,1.3c6.5-.5,13.2-3.2,19.1-6,5.7-2.8,9.4-7.9,13-13,3.9-5.5,7.8-10.9,10.7-17.1a78.1,78.1,0,0,0,6-20.7,81.764,81.764,0,0,0,1-11.1,5.522,5.522,0,0,1,4.9-5.5c1.8-.1,3,1.2,4.6,1.3,1.1.1,2.3-1.1,3.2-.9.9.1,1.9,2.3,2.4,3,1,1.3,1.9,2.7,2.9,4,2,2.8,4,5.8,5.8,8.7.9,1.4.8,2.8,1.5,4.2.6,1.3,1.7,1.7,2,3.1.4,1.5.2,2.3,1.5,3.3,1.1.9,1.6.8,2,2.4a28.11,28.11,0,0,1,.5,4.2c.1,1.4-.8,3.7,0,5,.5-1.1,1-3.1,2.5-3,.8,0,1.2,1,2,1.1s1.4-.8,2.2-.4c1.8.9.5,2.7-.3,3.5-1.6,1.5-2.1,3.2-1,5.2,1.8-2.2,3.6-.7,5,1.1-1.4.4-3.1.6-1.8,2.3.3.4,2.2,2.1,2.6,2,.7-.1.3-.9,1.2-1.1.5-.1,1.3.6,1.6,1,.7,1.2-1.1,3.8-1.6,5,1.3-.6,2.2-2.5,3.7-2.7a3.185,3.185,0,0,1,3,3.2c-.1,1.2-1.3,2,0,2.9,1.6,1.1,4.1-.7,5.8-.3s1.9,2.9,3.2,4.1,1.6,2.6,3.1,3.5c3.8,2.2,3.8,7.1,6.6,10.4,1.4-1.3,1.5-1.7,3.3-1.7.8,0,2-.3,2.7.1,1.1.6.7,1.8,1.3,2.7.7,1,1.7,1,2.8,1.2h.2l-.9,4.9c1-.7,1.6-2.9,2.6-.9,1.2-1.3.6-3.5,3.3-2.6,1.7.6,2.9,2.2,4.2,3.3,4,3.2,9.1,4.8,14,5.8,1.1.2,3.1,0,4.1.4.8.4.6.5,1,1.2.3.5,0,1.3.8,1.2.6-.1.7-1.4.9-1.8,1.1-1.8,2.9-1.2,4.7-.7,2.3.6,2.5,2.4,3.4,4.5,1.1-1.2,2-2.5,3.6-3.2,1.7-.7,3.8-.8,5.7-1.3s3.7-1.4,5.6-2.1a40.481,40.481,0,0,0,4.9-1.7c1.6-.8,2.7-2.1,4.4-2.9,1.8-.8,3.7-1.5,5.5-2.4a45.808,45.808,0,0,0,10.4-6.3,77.383,77.383,0,0,0,8.9-9.2c1.3-1.5,4.5-6.4,1.2-7.9-1.4-.6-2.6.9-3.5,1.8-1.5,1.6-3,3.2-4.6,4.6a32.426,32.426,0,0,1-10.2,5.9c2-3.4,5.3-5.9,7.8-8.9a44.822,44.822,0,0,1,8.8-8.6c2.5-1.6,5.6-2.3,7.6-4.6,1.5-1.7,4.3-6.7,6.9-6,2,.6,3.6,1.7,5.7,1.6,1.4-.1,2.5-.6,3.9-.2a38.389,38.389,0,0,1,3.9,2.2,20.243,20.243,0,0,1,4.6,3,56.4,56.4,0,0,1,12.1,18.6c1.4,3.6-.9,6.5-2.6,9.5a74.054,74.054,0,0,1-5.6,8.9c-4.7,6.4-9.4,12.7-13.8,19.2a196.382,196.382,0,0,1-13.5,18c-2.6,2.9-5.2,5.9-8.1,8.6-2.4,2.2-5.2,3.8-7.8,5.7-6.9,4.9-13.7,9.8-20.6,14.6a73.151,73.151,0,0,1-19.8,9.3c-.2-1.3-1-.5-1.9-.6-1.1-.1-2.4-1.3-3.3-2a19.929,19.929,0,0,0-2.4-1.9c-.9-.5-1.3,0-2-.2-2-.4-3.8-4.8-4.8-6.4-1.8-2.7-3.6-5.5-5.4-8.2-7.1-10.8-15.2-22.2-25.9-29.7-9.6-6.6-21.9-7.3-33-4.5-4.2,1.1-11.5,5.1-15,1.2-.8-.9-2.5-2.6-2.9-3.7-.3-.9.6-2.2.8-3.3a20.411,20.411,0,0,0,.2-7.4c-.7-5.3-2.6-10.4-4-15.6-1.7-6.2-3.4-12.3-4.6-18.6-1.1-6-2.7-12.8-2.3-19,.1-1.8,1.9-5.1-.5-6.1-2.3-.9-3.7,1.6-4.1,3.5-1,5.2-.2,11.3.4,16.4a155.111,155.111,0,0,0,3.4,17.8c1.4,5.9,2.9,11.7,4.5,17.6.7,2.6,1.1,5.1.1,7.7-.9,2.4-2.6,4.5-3.7,6.8-1.2,2.6-2.1,5.5-3.9,7.7-1.1,1.3-2.8,2.3-3,4.1-.2,2,1.8,3-.1,4.4a59.436,59.436,0,0,1-5.9,3.8c-5,3-10.4,5.5-15.2,8.7-1.2.8-6.3,5.4-7.7,3.6.3,1.7-6.6,4.7-7.8,5.4-4.5,2.8-9,5.6-13.4,8.4-9,5.7-18.1,11.3-26.7,17.5a113.044,113.044,0,0,1-13,7.6c-2.4,1.3-4.7,2.7-7.1,4.1a9.874,9.874,0,0,1-5.9,1.7c-1.9-.1-2.9.9-4.3,2.1-1.9,1.7-4,3.2-6,4.7-4.3,3.2-8.7,6.1-13.2,9.1-3.3,2.2-6.5,4.4-9.6,6.8-2.6,2-5.2,4.3-8.3,5.5-.4-1.3-.9-2.6-1.3-3.9a8.864,8.864,0,0,0-1.1,3.1c-.1.6.4,1.6.4,2.1-.2,1.1-2.4,2.7-3.3,3.4-3.3,2.6-6.6,5.2-9.9,7.9s-6,6-9.2,8.7a28.039,28.039,0,0,1-4.9,3.6c-1.6.8-2.1.2-3.1-1.2-1,2.1-.9,2.8-3.2,3.3-1.8.4-2.9,1-3.3-1.2a100.639,100.639,0,0,1-1.7-14.5,148.14,148.14,0,0,1,.2-14.9,33.571,33.571,0,0,1,.9-7,4.9,4.9,0,0,0-.3-4.1c-.8-2.2.8-1.9,1.2-3.6.4-1.5-1.6-2.5-1-4.2.2-.7,1-.9,1.2-1.7s-.4-1.4-.5-2.1a1.92,1.92,0,0,1,.1-1.8c.3-.6,1-.1,1-.8,0-1.3-1.9-1.9-1.4-3.7.2-.7.9-1.1,1.1-1.6.1-.5-.3-1.1,0-1.7.4-1,1-1.3,1.1-2.3a9.484,9.484,0,0,1,.5-2.3,13.193,13.193,0,0,0,1.2-5.2c.1-2.2-.4-4.4.3-6.6.5-1.4,1.5-2.7,1.5-4.3,0-1.9-1.9-2.9-2.4-4.7a8.841,8.841,0,0,1,.4-6.2c.3,1.1.7,2.2,1,3.3a6.859,6.859,0,0,0,.6-3.1c-.2-.8-.7-.9-1-1.6-.7-1.4.1-.8.6-2.1.3-.6-.1-1.5,0-2.2a19.481,19.481,0,0,1,.6-2.3c.4-1.6,0-2.6,1.2-3.9,2.5-2.6,5.7-4.8,8.4-7.2,1.5-1.3,3-2.6,4.5-4,1.4-1.3,1.4-2,1.3-3.9-4.4,1.6-7.5,5.4-11,8.3-3.7,3.1-7.9,5.8-11.8,8.8a226.632,226.632,0,0,1-24,15.9l-12.3,6.9c-3.8,2.1-7.5,4.3-11.8,5.4-3.6.9-8.2,1.9-11.1-1.2-1.4-1.5-.9-3.3-1.8-4.9-.5-.9-1-.6-1.5-1.2-.8-.8-.5-.2-.3-1.3.2-1,.7-.8.4-2.1a26.043,26.043,0,0,0-1-2.5c-.6-1.7-1-3.4-2.4-4.7-.9-.9-.7-.4-.9-1.5a3.529,3.529,0,0,0-.3-1.4c-.7-1.2-2.4-1.8-3.5-2.6a5.639,5.639,0,0,1,.8.5c-.1-1.5-1-2.8-1.1-4.4-.1-1.5.2-2.1-.6-3.4-.7-1.1-1.8-1.9-2.4-3-.7-1.3-1-2.8-1.6-4.1-1-2.3-3.1-4-3.5-6.6-.1-.8.1-1.4-.4-2.1-.2-.3-.7-.3-.9-.5-.6-.9-.3-2-1-2.8-.6-.8-2-.7-2.6-1.5-.7-1-.1-1.7.3-2.7,1.2-2.8-1-3.2-2.2-5.4s-1.6-4.9-2.5-7.3a7.334,7.334,0,0,0-1.9-2.9c-.8-.9-.7-.5-.3-1.8-2.6.1-2.4-5.4-3-7.1-.2-.6-.5-2-1.1-2.4-.3-.2-1.4,0-1.5,0h0l-.3-.2a5.177,5.177,0,0,1-1.1-2.8c.1-.5.5-.6.5-1.2-.1-.6-.8-1.2-1.2-1.6-1.9-2-5.1-6-4-9,5.5,5.7,10.5,11.8,16.3,17.2,4.9,4.5,10.6,6.6,17.1,7.3a76.371,76.371,0,0,0,11.7.5c3.2-.2,6.5-.7,9.8-.6,1.4.1,2.2.1,2.7,1.4.5,1.1-.2,1.7,1.3,1.8,2,0,3.4-2.1,4.5.4l.1.2.1-.3c.8-2.7,3.5-4,6-4.9l.2-.1a77.094,77.094,0,0,0,10.6-4.6,64.534,64.534,0,0,0,17.5-13.2c8.8-9.8,14.6-21.8,20.4-33.5a283.028,283.028,0,0,1,21.2-36,59.629,59.629,0,0,1,13.2-13.8c5.1-3.8,10.8-8.4,17.2-9.6,3.2-.6,6.5-1.1,9.8-1.6C262.657,123.541,265.757,122.941,267.957,125.641Zm-195,98.8,2.2-4.3q19.95,44.7,40,89.3a30.706,30.706,0,0,1-6.7-2.1c-1.1-.5-3.4-2.4-4.7-2-.4.1-.3.8-.6.8a3.219,3.219,0,0,1-1.7.1c-1.9-.4-3.7-1.5-5.6-2.1,1.1-1.8.2-3.4-1-4.8-.5-.7-1.4-2-2.4-1.8-1.2.3-.9,2.1-2.5,1.3-.4-.2-.3-.9-.8-1.1-.6-.2-.9.4-1.4.3-1.3-.2-1.6-2.3-2.9-2.3-.9,0-1.2,1.2-2.2,1.3-1.5.2-1.6-.9-1.7-2v-.2c-.2-1.7-.1-2.6-1.8-3.6-.4,1.5-.1,3.7-2.1,3.3-1.5-.3-3.1-1.8-3.8.6a106.285,106.285,0,0,1-24.1-16.8c-6.9-6.1-11.8-13.5-16.8-21.2-2.3-3.5-5-7-6.9-10.7-1-2-.5-3.3.1-5.4a6.9,6.9,0,0,0,.4-2.5c0-.4-.5-1.2-.3-1.6.6-1.3,3.2-.6,4.3-.5a41.551,41.551,0,0,0,6.1-.3,54.954,54.954,0,0,0,12.7-2.5c8.5-3,15.3-7.9,22.6-13l.8,2h0l.8,1.8,2.2-4.3Zm5.8,66c-.5.3-.4.5.4.7A5.736,5.736,0,0,1,78.757,290.441Zm256.3-6.4c.2,2.2,1.9,1.6,3.2,1.9A3.087,3.087,0,0,0,335.057,284.041Zm-1.5.9v.2C333.457,285.041,333.457,285.041,333.557,284.941Zm208.5-37.6a8.511,8.511,0,0,1-2.4,3.8c-1.2,1.1-2.6,1.1-4,1.8-2.4,1.3-2.6,4.3-3.6,6.5a5.853,5.853,0,0,0,.2,1.3c1.4-.6,1.9-2.1,3.4-2.5.7-.2,1.1,0,1.7-.4.6-.3.9-1.2,1.4-1.6,1.2-1.2,2.8-1.9,3.8-3.3a25.6,25.6,0,0,0,2.3-4.7c-.8-.3-1,.7-1.7.7C542.157,248.941,542.357,248.041,542.057,247.341Zm-199.9-3.5c-.3.1-1.3,0-1.4.3-.5,1.5-.7,3.1-1.1,4.7C341.857,247.941,341.957,245.941,342.157,243.841Zm-304.1-4.9c-.3,1-.6,1.8.5,2.4a2.054,2.054,0,0,0,1.1,0C39.057,240.541,38.557,239.741,38.057,238.941Zm368.8-14.7c-.2.9-.5,1.8-.8,3C409.057,226.041,409.057,225.941,406.857,224.241Zm-.8-7.5a11.019,11.019,0,0,0-1.8.2,7.976,7.976,0,0,1,1.8,2.3c.1.4-.2,1.4.1,1.8.9,1.1,2.6-.1,3.6-.4a6.723,6.723,0,0,1-2.6-2.1C406.957,218.341,406.557,216.741,406.057,216.741Zm3-5.5-.1.2c-.4,1.3-1.5,2.6-1,4.1.4,1.1,1,1.5,2,1a1.928,1.928,0,0,0,.8-3c-.2-.2-.6-.1-.8-.4a5.094,5.094,0,0,1-.7-1.7Zm132.1-3a3.39,3.39,0,0,1,.9,1.4c.1.4-.5.7-.4,1.2.1.9.3,1.2,1.3,1.3,2.1.2,3.7-2.4,1.3-3.4C543.257,208.241,542.157,208.441,541.157,208.241Zm-137.6-1.1c-.4.6-2.9,4.2-1,3.6a6.689,6.689,0,0,0,2-2.1c.1-.2.5-.5.5-.8C405.157,207.341,403.957,206.641,403.557,207.141Zm-8.3-.7h0c-.2.2-.2.5-.3.7-1.6,1.1,2.3,3.1,3,3.6.6-1.7.2-1.7-1-2.7-.2-.1-1.2-1.4-1.7-1.6Zm164.9-4.8-.6.6c.8.1.3,1.1.9,1.4.9.5,1.3.1,1.9-.7A25.293,25.293,0,0,0,560.157,201.641Zm-179.4-33.1c0,.1-.1.2-.1.3C380.757,168.741,380.957,168.841,380.757,168.541Zm.7-4.6-.5.1-.5.1.5,2.8C382.257,166.541,381.557,164.841,381.457,163.941Z" fill="#34558b" fill-rule="evenodd"/><g id="Ink"><path id="Fill-11" d="M73.857,89.141l.3.6q-.15-1.65-.3-.6" fill-rule="evenodd"/><path id="Fill-15" d="M757.057,532.641c-7.5.5-14.5,3.7-21.7,5.4-7.7,1.8-15.5,2.9-23.3,4.5-3.7.8-7.5,1.6-11.2,2.1s-7.2,1.4-10.9,2.2c-7.3,1.6-15.1,2.7-22.2,5.1-7,2.3-14.4,2.8-21.6,4-7.8,1.3-15.7,2.2-23.5,3.7-7.7,1.4-15.4,2.8-23,4.2-3.7.7-7.3,2-11,2.2a86.042,86.042,0,0,0-12.3,1.5c-15.8,3.1-31.5,6.9-47.2,10.5-3.8.9-7.6,1.8-11.5,2.8s-8,1.5-11.8,2.7c-7.1,2.1-14.2,4.2-21.5,4.7-3.7.2-7,1.8-10.6,2.6a107.536,107.536,0,0,1-11.4,1.4c-7.6.9-15.4,3.7-22.7,5.8-7.4,2.1-14.7,4.8-22.1,6.6-7.8,1.9-15.7,3.4-23.5,5.3-15.1,3.8-29.8,9.3-45.1,12.1-1.2.2-3.1.8-4.3.4-1.2-.5-1.8-2.1-2.5-3.1-1.9-3.1-3.6-6-4-9.7-.4-3.3-.3-6.5-2.5-9.2-.6-.8-1.5-.9-.3-1.8.7-.6,3.2-.4,4.1-.6,3.3-.6,6.2-2.2,9.4-3,3.7-.9,7.2-1.9,10.8-3.1,7.2-2.6,14.3-4.9,21.6-7.2,3.6-1.1,7.1-2.3,10.5-3.7a19.133,19.133,0,0,1,5.1-1.7c1.9-.3,3.6-.2,5.5-.9,7.5-2.4,15.2-4.2,22.9-6,7.3-1.7,14.8-3.6,22.2-4.5a78.727,78.727,0,0,0,10.7-2.4c3.8-1.1,7.7-1.4,11.6-2.2,6.8-1.4,14.4-1.7,20.8-4.3,3-1.2,5.9-1.3,9.1-1.8,3.9-.7,7.8-1.5,11.8-2.1,3.8-.7,7.5-1.5,11.3-2.2s8-.8,11.6-2.1c6.4-2.3,13.6-2.3,20.3-3.6,7.9-1.6,15.9-2.5,23.8-4.1,7.6-1.5,15.5-2.6,23-4.6a74.6,74.6,0,0,1,10.4-2.4c4-.5,7.9-1.3,11.8-2.1,7.3-1.4,14.7-1.7,22-3,14.9-2.6,29.3-7.1,43.8-11.2,7.5-2.1,14.8-4.2,22.4-5.7,3.6-.7,6.9-2,10.4-2.9,3.9-1,7.9-1.8,11.9-2.5,3.6-.7,7.2-1.4,10.7-2.2,1.7-.4,4.7-2,6.3-1.6s1.5,2.9,1.8,4.3c.8,3.5,1.9,6.9,2.9,10.3l2.7,8.7c.6,1.9,1.1,4.3-1.5,4.4Zm-11.1,13.2c-3.9,2.3-6.6,6.2-9.8,9.4-3.6,3.5-7.4,6.8-11.2,10.1-3.9,3.4-8,6.6-12.2,9.7a124.289,124.289,0,0,0-11.4,8.9c-3.3,3.1-5.7,7.1-9.4,9.9-3.6,2.7-7.9,4-11.5,6.7-1.7,1.2-3.2,2.7-5.2,3.5-2.3.9-4.7,1.6-7,2.4a33.027,33.027,0,0,1-6.8,1.4c-2.6.4-4.4,1.1-7,.7a19.5,19.5,0,0,1,3.7-2.1,9.062,9.062,0,0,1,3.3-.2c2.4-.1,4.5-1.4,7-1.5-2.2-1.8-5.4-.6-7.8.1-3.7,1.1-7.4,2.1-11,3.2-7.3,2.2-14.7,4.2-22.1,6-15.5,3.8-31.1,7.3-46.7,10.9-7.7,1.7-15.4,2.8-23.1,4.6-7.3,1.6-14.8,2.3-22.2,3.7-15.5,2.9-31,5.8-46.5,8.9-15.3,3-30.7,6.1-45.7,10.5-7,2-13.9,4.5-21,6.1-7.3,1.6-14.3,4-21.4,6-7.4,2.1-15,3.7-22.3,6.1-7.4,2.4-14.9,4.7-22.4,6.7a34.3,34.3,0,0,0-4.5,1.6,25.4,25.4,0,0,1-5.5,1,19.845,19.845,0,0,0-4.1,1.4c-1.6.6-3.3.3-4.8,1.2-3,1.8-6.1,2.2-9.6,2.9a115.9,115.9,0,0,0-11.9,3.3c-7.2,2.3-14.6,4.2-21.8,6.4-1.1.3-12.7,5-12.9,3.6-.1-.9,3-2.6,3.7-3.1l9.6-7.2c5.7-4.4,10.9-9.4,16.3-14.2,5.6-5,11.8-9.2,17.1-14.5,5.1-5,9.2-10.9,14-16.3a30.127,30.127,0,0,0,4.9-7.3c1.5-3,3.2-3.6,6.5-3.6,7.2.1,14.9-2.2,21.7-4.3,6.9-2.2,14.2-4.7,21.4-5.7,7.3-1.1,14.3-3.3,21.5-4.8,7.6-1.6,15-4,22.4-6.3,7.4-2.2,15-3.9,22.5-6,3.5-.9,6.9-1.9,10.4-2.9,3.8-1.1,7.4-1,11.3-1.5,7.3-.9,14-3.1,21.1-4.6a49.139,49.139,0,0,0,9.9-3c3.4-1.4,7-1.7,10.5-2.5,7.7-1.6,15.3-4,23-5.9,7.3-1.8,14.8-3.3,22.2-4.8,3.5-.7,7.1-1,10.6-1.5,4-.6,7.8-1.8,11.7-2.5,15.2-2.7,30.4-5.6,45.7-8.1a168.849,168.849,0,0,0,23.2-5.2c3.3-1.1,6.7-1.1,10-2,3.5-1,6.9-2.4,10.4-3a34.4,34.4,0,0,0,5.6-.9c1.2-.4,2.3-1.2,3.5-1.6,3.6-1.1,7.7-1.1,11.4-2,7.5-1.8,15.2-3,22.8-4.7,7.3-1.7,14.5-3.9,21.8-5.9-.6,1-.9,2.2-1.9,2.8Zm-472,136.2c-5.7,4.3-11.5,8.5-17,13-5,4.1-9.3,9-13.5,13.8-1.4,1.6-3.1,4.1-4.8,1.4-1.7-2.6-2.5-6.1-3.5-9.1-1.1-3.3-2.2-6.6-3.4-9.8-.9-2.4-2.6-4.9-.8-7.4,1.6-2.3,4.3-4.2,6.3-6.2,2.6-2.6,5.1-5.1,7.8-7.5,5.2-4.6,10.7-9,16-13.4,5.7-4.8,11.3-9.7,16.9-14.6,4.9-4.3,9.6-8.8,14.8-12.6,12.3-9,22.3-20.7,33.8-30.7,1.9,7.8,3.2,15.7,5.5,23.4.9,3.1,2.7,5.8,3.6,9,1,3.7-1.4,4.8-4.1,6.8,1.4-1.9,3.1-3.1,3-5.7-2.9.7-5.1,2.9-7.4,4.7-2.4,1.9-4.8,3.9-7.1,5.8-5.2,4.4-10.4,8.9-15.6,13.3-10.1,8.8-20,17.8-30.5,25.8Zm-23.3-50.9c-5,.3-9.7,1.8-14.7,2.1-2.4.1-4.7.6-7.1.7-2.7.1-5.4-.3-8.1-.2a139.01,139.01,0,0,1-15.8-.5c-5.3-.3-10.5-.4-15.7-1.2-2.1-.3-4.2-.7-6.4-.9-1.7-.2-4.4-.3-5.2-2.2-.7-1.8-.1-4.7-.1-6.5,0-1.7.1-3.4.1-5,0-2.3-.1-6.1-3.2-6.4-1.8-.2-3.5,1-5,1.8-2.5,1.3-4.9,2.6-7.3,4a75.19,75.19,0,0,0-6.9,4.6c-1.7,1.3-3.5,3.1-5.9,2.8-2-.3-3.8-1.7-5.6-2.4a24.2,24.2,0,0,0-8.4-1.7c.4-4.2.7-8.5,1.1-12.7.1-1.5.3-3.1.4-4.6a32.606,32.606,0,0,1,.3-5.4c.7-2.6,5.5-1,7.7-.8,4.1.3,8.2.6,12.4,1,2,.2,6,1.4,7.7,0,2.1-1.7,1.5-8,1.7-10.4.1-1.8-.5-6.9,1.2-8.1,1.1-.8,3.4-.2,4.6-.1a58.079,58.079,0,0,0,5.9.1c15.6-.3,31.1-3.8,46.2-7.2,3.4-.7,6.2-1.9,7.9,1.8s3.2,7.5,4.9,11.3c1.3,2.9,3.6,5.7,2,8.9-1.7,3.5-3.8,6.9-5.8,10.3-1.3,2.2-5.3,7.6-.3,8.1,3.6.3,7.9-1,11.4-1.6,1.5-.3,3-.6,4.2.6,1.3,1.3,1.9,3.9,2.7,5.6,1.9,4.3,4,8.4,5.8,12.8a37.982,37.982,0,0,1-6.7,1.4Zm-76.5-1.2c-4.4-.7-8.7-1.4-13.1-2.1-1.1-.2-7.5-.3-6.6-2.2.4-.7,2.7-1.6,3.3-2,1.9-1.2,3.8-2.4,5.7-3.5a54.094,54.094,0,0,1,11.2-5.2c-.1,5-.3,10-.5,15Zm-36.4-40.9c.2-2.8,0-6.3.7-9.1.7-2.5,2.9-3,5.2-2.8,2.9.3,5.8,1.2,8.8,1.6a67.712,67.712,0,0,0,11,.3c0,4.2.6,8.9-.4,13-.8,3.4-4.2,2.1-6.8,2-4.4-.3-8.8-.4-13.1-.9-2.7-.3-5.6-.8-5.4-4.1Zm94.4-32.6c-.1-.1-.1-.3-.2-.5a.764.764,0,0,0,.2.5Zm-6.8-19c-.4-1.3-1.2-2.4-1.5-3.7a19.808,19.808,0,0,0-.8-3.3c-1.1-2.4-2.9-4.4-3.9-7-1.1-2.9-1.4-6.3-3.2-8.8a9.233,9.233,0,0,1-1.8-3,31.669,31.669,0,0,0-1.7-3.8c-1-2.1-1.5-4-2.7-6.1-1.4-2.5-2.8-5.2-4-7.9-.5-1.2-.8-4.5-2.1-5.2-1.1-.6-1,.5-1.9-.7-.7-1-.6-1.6.6-2-.5-.7-1.5-.4-2.1-1s-.4-1.6-.7-2.3c.8.2,1.6.5,2.4.7-2.3-5-4.4-10-6.9-14.9-2.1-4.2-3.6-8.8-6.6-12.4-1.5-1.8-.4-3.7-1.4-5.6a24.258,24.258,0,0,1-1.4-2c-.3-.8-.2-2-.7-2.7-.7-1-1.3-.4-2.1-.9a5.936,5.936,0,0,1-1.3-1.8c-.2-.3-.9-1.4-.8-1.7.2-1.2,1-.1,1.6-.7-1.3-3.2-2.6-6.3-4-9.5-.6-1.4-1.7-6.6-4-5-1.2-3-1-5.5-2.3-8.6-1.9-4.3-3.6-8.6-5.4-12.9-.9-2.1-1.7-4.2-2.6-6.3-.8-1.7-2.1-2.6-3.2-4.1-.9-1.4-1-3.8-1.5-5.5-2.3-7.1-6.2-13.3-9.4-20-2-4.2-3.8-8.5-5.7-12.7-.9-2.1-2-4-3-6.1a9.889,9.889,0,0,1-.9-2.4c-.1-.5.1-1.6-.1-2-.3-.6-1.2-2.1-1.7-3-.7-1.4-2.1-2.2-2.4-3.6-.2-.9.1-1.3-.4-2.2-.7-1.1-1.1-1.2-1.3-2.5a9.893,9.893,0,0,0-2.2-5,21.856,21.856,0,0,1-2.7-5c-.6-1.4-2.3-3.4-1.7-5,.5-1.3,2-1.5,3.2-1.8a61.293,61.293,0,0,0,6.1-1.8,50.07,50.07,0,0,0,11.7-6.1c3.4-2.3,6.9-5.2,10.6-6.9,3.3-1.5,6.7-4.8,9.9-7.2,3.7-2.8,7.6-6.5,12-8.1-4.5,10.1-6.1,20.8-7.1,31.8a296.9,296.9,0,0,0-.8,34c.3,11.1-.1,22.2,1.7,33.2.9,5.3,2.2,10.5,2.9,15.8.3,2.5,1.3,9.3,4.6,9.8,2.1.3,3.4-1.8,5.1.3,1.3,1.5,1.4,3.6,2,5.4.7,1.9,2.7,2.9,2.4,5.1-.2,1.1-.7,1.4.1,2.4.5.6,1.6,1.3,2.2,2,0-.3-.2-1.2,0-1.5.3-.4.9,0,1.2-.4-.4.3-.8.1-1.1.5-.6.8.2,2.3.5,3.1a20.93,20.93,0,0,0,2.9,5,40.215,40.215,0,0,0,3.4,4.7c1.3,1.3,2.9,1.8,4.1,3.4,1,1.4,1.7,2.9,3.2,3.8a13.751,13.751,0,0,1,3.7,3.5c2.6,3.4,7.4,5.4,11,7.6,3.9,2.3,8.3,4.3,12.9,3.9a14.769,14.769,0,0,1,2.1-.1c1.2.2,1,.7,1.8,1.3,1.1.9,2.4.8,3.8.9,4.7.4,9.6.4,14.3,1.1,2.3.3,9.1,2.5,10-.8,3.2,2.3,6.2,1,9.7.2s7.7.2,10.8-1.8c1.6-1.1,1.8-1.4,3.8-1.5,1.7-.1,3.4,0,5-.8,1.6-.7,2.3-1.3,4-1.6a21.312,21.312,0,0,0,5.5-2c3.7,12.2,9.9,23.1,11.3,36a67.239,67.239,0,0,1-.9,19c-.5,2.8-.9,5.4-2.4,7.8a37.778,37.778,0,0,1-5.9,6.7,72.531,72.531,0,0,1-14.1,9.8,143.339,143.339,0,0,1-16.1,8.2c-5.7,2.3-11.2,4.8-16.8,7.3a67.54,67.54,0,0,1-18.2,5.1c-1.6.3-3.2.6-4.8,1-1.3.4-3.2,1.3-4.5.5-1.5-1-2.2-4.5-2.9-6.1-1.2-2.8-2.1-6-3.8-8.6a11.2,11.2,0,0,1-1.3-2.4c.1-1.1,0-2.1-1.3-2.5-.2,1-.9,2.9.6,3.3-1.2-.3-1.1-1-.6-3.3Zm-9.5-16.2c0,.1.1.3.1.4a.756.756,0,0,0-.1-.4Zm-20.6-49.1c-.2-.2-.3-.5-.5-.7.6-.2.6-.1,1,.4-.2.1-.3.2-.5.3Zm-37.8-85.2c-.6-.7-.5-.5-.1-1,.6.2.6.6.1,1Zm.4,1.3c-.3-.2-.3-.3,0-.5.3.1.3.3,0,.5Zm-.5,3.3a1.265,1.265,0,0,0,.7,1,1.087,1.087,0,0,1-.7-1Zm-3.8-9.8c-.1.4-.1.8-.2,1.3a6.922,6.922,0,0,0,.1-2.5c.1,1-.1,1,.6,1.8a2.651,2.651,0,0,0-.5-.6Zm33.2,12.7c.1-.2.2-.3.2-.5a1.689,1.689,0,0,1-.2.5Zm48.3,61,.1-.6Zm23.6,4.8a4.869,4.869,0,0,0,.1,1.2,4.869,4.869,0,0,1-.1-1.2Zm-7.6,1.4.1-.1a.1.1,0,0,1-.1.1Zm19.2.2a10.382,10.382,0,0,0-1.7,1.2c0-.3,1.3-1.1,1.7-1.2Zm207.7,56.8c-1.1-.5-2.5-1.6-1.6-3-1.3-.2-1.3-1.5-1.7-2.6a30.986,30.986,0,0,0-2.6-4.7c3.3-1.5,7.1-1.8,10.6-2.5Zm-2.8,4.1c1-1.4,1.9-2.8,2.8-4.2-.3,1.3-2,3.2-2.8,4.2Zm-36.7-78.1.3-.3q-.45,0-.3.3Zm-7.7-17.2c-.2,0-.4-.2-.5-.5.2.3.3.5.5.5Zm-3-6.6a10.835,10.835,0,0,1-3-3.4,8.251,8.251,0,0,0,3,3.4Zm-3.3-3.9c-.2-.4-.3-.7-.5-1.1a3.7,3.7,0,0,1,.5,1.1Zm1.3-2.7a3.284,3.284,0,0,0-1.7.1,2.972,2.972,0,0,1,1.7-.1Zm8.3,13.7c-.4-.1-.3-.6-.6-.8s-.8-.2-1-.4c-.7-.6-.5-.3-.6-1.5-.1-1.5-1-2.3-1.3-3.5-.4-1.5.2-2.3-1-3.5-1.5-1.5-3.4-2.8-3.9-4.9a12.892,12.892,0,0,1,.1-2.8c0-.7-.7-2.2-.4-2.8.5-1.1,3.9-1.3,5.1-1.5,5.5-1.3,11-2.5,16.5-3.8-3.5,8.8-7.3,17.7-12.9,25.5Zm2.1,12.9c.1.1.1.2.2.3-.2-.3-.4-.5-.6-.8a1,1,0,0,0,.4.5Zm-10.4,102.2c.2-2.8,1.3-5.5,1.9-8.2a41.9,41.9,0,0,0,.9-9.3c0-6-.6-12-1-17.9-.7-12.3-2.7-24.5-4.5-36.7-1.8-11.6-4.1-23.1-9.4-33.7-2.4-4.8-5.5-9.6-6.8-14.8-.3-1.2-.2-2.5-.6-3.6-.4-1.2-1.3-1.8-2.1-2.8-1.8-2.3-2.8-5.4-4.1-8.1-1.2-2.4-2.2-5-3.5-7.3a15.666,15.666,0,0,0-2-2.5c-.6-.5-1.8-1-2.1-1.7-.7-1.4,1.2-2.5,2.2-3.6,2.3-2.5,4.4-5.3,6.5-7.9,1.6,8.4,3.3,16.7,6.5,24.7,3.2,7.7,6.6,15.3,10.3,22.8q10.8,21.9,21.2,43.9c1.6,3.4,3.5,6.6,5.3,9.9,2.1,3.7,3.8,7.6,5.8,11.4,3.8,7.1,6.9,14.6,10.8,21.7,3.8,7,8.5,13.5,12.8,20.2,1.1,1.7,5.1,6.3,4.5,8.5-.3,1-1.2,1-2.1,1.1-2.3.4-4.6.6-6.9,1-4.4.8-8.7,2.1-13.2,2.8-3.9.6-7.8.9-11.5,2.2-2.2.8-4.2.8-6.5,1.2-2.1.3-4.2,1.1-6.3,1.6-4.6,1.2-9.3,1.8-14,2.7,3.4-5.5,7.4-11,7.9-17.6Zm-9.7-72.9c1,6,2,12.1,3,18.1-5.2-2-10.7-3.5-15.4-6.7,3.5-4.4,8.1-7.8,12.4-11.4Zm-17.4-48.5c2.1.7,1.5,1.6.6,3.4a47.5,47.5,0,0,0-2.5,5.6c-1.9,5.1-3.6,10.3-5.3,15.4-1.6,4.9-3.3,9.7-4.8,14.6-.2.6-.6,3.1-1.5,3.1-1-.1-2-4.5-2.3-5.4a118.866,118.866,0,0,0-6.4-14.7c-.7-1.5-2.5-3.5-2.3-5.3.2-1.7,2-2.5,3.2-3.3,4.5-2.8,9-5.6,13.4-8.4,1.5-1,3-2,4.4-3.1.8-.6,2.5-2.3,3.5-1.9Zm-72.1,85.4v0Zm0-.7a1.7,1.7,0,0,1,.1-.7,1.952,1.952,0,0,0-.1.7Zm-86.2,70.1h-.3c.2-.1.3,0,.3,0Zm1.5,19.2c1,2.2,1.9,4.3,3,6.5.6,1.2,2.1,3.1,1.3,4.5-.8,1.3-2.8,1-4.1,1.2-2.3.2-4.7.6-7,.9,2.4-4.5,4.6-8.8,6.8-13.1Zm-1.1-19c.2.4,0,1,.2,1.4-.2-.4.1-1-.2-1.4Zm12.7,27.7c-.5-.5.1-1.9,0-2.6-.1-1.5-.5-1-1.4-1.8-1.9-1.4,1.1-2.5-.1-4.5-.2-.4-.8-.4-1-.8-.1-.3,0-.7-.2-1-.3-.8-.6-1.8-.9-2.7-.5-1.4-1.3-4.6-3.4-4.1,1.9-4,3.9-8,5.8-12,4.3,11.1,9.1,22.2,16.3,31.8-5,0-10,.3-15-.3.9-.6-.1-1.2-.1-2Zm11.6,24.2a.829.829,0,0,1-1.1-.3,1.191,1.191,0,0,0,1.1.3Zm54.9-34.1c-5.8,4.2-11.4,8.6-16.9,13.2-2.4-6.7-2.6-13.8-2.9-20.8,6.3,3.3,13.4,4.6,19.8,7.6Zm47.4-21.6c-1.7.2-3.1-.8-4.7-1.4a26.8,26.8,0,0,0-5.6-1.3c-4-.7-8-1.4-12-2,5.9-7.5,11.7-15,17.6-22.5,0,9.2,3,18.1,4.7,27.2Zm23.9-26.6c1.1,2.2,2.3,4.3,3.4,6.5.7,1.4,1.4,3.9,2.6,5,1.4,1.3,2.9.2,2.6-1.5-.4-1.8-2-4-2.9-5.6-.9-1.7-2.3-2.6-.5-3.7a20.365,20.365,0,0,1,5.2-1.9c4.9-1.3,10.1-1.3,15.1-1.1a78.251,78.251,0,0,1-6.7,12,26.142,26.142,0,0,1-3.7,4.4c-1.1,1.1-1.5,2.4-2.5,3.5-1.2,1.2-3,1.5-4.6,1.9a47.182,47.182,0,0,0-5.3,1.8c-1.9.7-4.2.4-6,1.3a20.52,20.52,0,0,1-4.9,1.8c-3.7.8-7,3-10.6,3.6-1.8.3-1.8,0-2.3-1.8a35.83,35.83,0,0,1-.9-4.5c-1.6-9.3-3-18.7-4.6-28-4.2,4.8-8,10.1-12.2,14.9-2.1,2.4-4.4,4.7-6.6,7.1-1.3,1.4-4.1,3.7-4.1,5.8,0,3.1,5.1,3.9,7.3,4.3,5.9,1,12,1.2,17.4,3.9-1.7,1.9-4.3,2.2-6.5,3-3,1.1-6,2.3-9,3.5-1.5.6-3,1.3-4.6,1.8s-3.4.3-5,.8c-1.3.3-2.3,1.2-3.5,1.7a19.4,19.4,0,0,1-4.2.7,38.939,38.939,0,0,0-8.8,2.7c-2.9,1.2-5.3.9-8.1-.1-6.1-2.2-12.5-3.8-18.4-6.4-.8,6.1-1.1,13,.6,19,.6,2.2,2.5,5,1,7.2-1.2,1.8-4.1,3-5.7,4.3-5.1,3.8-10.1,7.9-15.8,10.8a30.145,30.145,0,0,1-8.8,2.8c-1,.2-3.3.8-4.1.3-.2-.1-.1-.7-.3-.8a3.51,3.51,0,0,0-1.8-.6c1.6-2.1-.9-2.1-1.9-3.5,3.6-2.9-2.4-5.8-3.3-8.3,2.2.2,1.5-1.3.7-2.6-1.1-1.8-2.8-1.8-4.9-2.3a23.486,23.486,0,0,0,4.6.9,37.977,37.977,0,0,0,4.6-.5c1.8-.2,6.8.3,7.7-1.4,1-1.8-1.6-4.8-2.5-6.2-1.9-3-3.9-5.8-5.6-9a178.51,178.51,0,0,1-8.3-18.4c-1.2-3-2.7-4.4-4.8-1-1.5,2.5-2,5.5-3.9,7.7-1.3-1.5-1.5-2.7-2.1-4.5-.7-2-2-3.7-2.9-5.6-1.9-4.2,3.2-3.2,5.8-3.4,4.3-.5,8.1-2.3,12.1-3.7,4.3-1.5,8.5-3.1,12.6-5,8.3-3.7,16.7-7.1,24.4-11.9,7.1-4.4,14.6-8.5,20.4-14.6a32.377,32.377,0,0,0,7-11.5c.8-2.3,1.4-4.7,2-7.1.6-2.1,1.6-4.2,1.4-6.4v.4c2.6-1.9,1.8-5,1.7-7.7a4.3,4.3,0,0,1,0-1.6c.3-.6.9,0,1.2-.8s-.9-2.2-1.1-2.9c.4.2.7.4,1.1.6a34.511,34.511,0,0,0,.9-7.1,45.084,45.084,0,0,0-1.2-7.2c-.5-2.2-1-4.4-1.6-6.6-.1-.4,0-1.1-.4-1.4-.7-.5-1.6.2-1.8.9.2-.7.5-.9.5-1.7a9.3,9.3,0,0,0-.5-2.4c-.4-2.1-.7-4.2-1.2-6.3-.4-1.8-.7-3.7-1.2-5.5a6.686,6.686,0,0,1-.5-1.9c-.1-.9.2-.8.5-1.5.1-.2.5-.4.6-.6.2-.4-.2-1,0-1.5a2.151,2.151,0,0,1,1.2-.9c1.7-.6,2.3-.2,3.7-1.6,1.1-1.2,2.6-1.6,4-2.5a22.053,22.053,0,0,0,4.5-3,49.07,49.07,0,0,0,4.8-4.3c1-1.1,1.3-3,2.5-3.8.8-.5,1.8-.5,2.5-1,.8-.5,1.5-1.3,2.3-1.9,1.9-1.4,4-2.7,5.9-4a163.229,163.229,0,0,0,22.3-18.3c3.4-3.4,6.6-7.1,9.8-10.7.3-.4,2.3-3.2,3.1-3.1.8.2,1.5,3.8,1.9,4.5a100.507,100.507,0,0,1,5,11.7c.6,1.6,1.3,2.5,0,3.6-1.5,1.4-3.9,2.3-5.7,3.3-4.3,2.5-8.5,5-12.7,7.5-2.3,1.4-7.7,3.4-8.5,6.2-1,3.6,3.1,8.6,4.6,11.5a94.8,94.8,0,0,1,5.1,12.8c.6,1.8,2.7,9.7,5.7,9,1.5-.4,2.1-2.2,2.6-3.5q1.2-3.15,2.4-6.3c3.7-10.4,7.1-20.9,11.2-31.1,3.4,6,6.1,12.4,8.9,18.7a34.366,34.366,0,0,1,2.7,8.4c.6,2.8,1.7,6.4,1.5,9.3-.3,5.8-24,14.5-13.2,21.5,4.7,3.1,10.9,3.6,15.6,6.5,2.5,1.5,2.4,4.1,2.4,6.7-.1,3.3.1,6.6.3,9.9.4,7.1,1.6,14.8.1,21.9-.5,2.3-.6,5.4-1.5,7.6-1.1,3-5.6,1.9-8.2,1.8-1.9-.2-21.9,1-19.1,6.3Zm91.1-9.7c.9-.6,1-.4.3.5-.2-.2-.3-.3-.3-.5Zm6.5,9.5a1.919,1.919,0,0,1-1.9.6,1.813,1.813,0,0,0,1.9-.6Zm-277.2-161.7c6.6-6,14.7-10.3,21.7-15.9,7.6-6,15.5-11.6,23.4-17.2,15.7-11.1,31.1-22.6,47.1-33.4,15.8-10.7,32.2-20.3,48.9-29.6,7.7-4.3,14.8-9.5,22.7-13.3,4.2-2,8.3-4,12.5-5.9,2-.9,3.2-1.2,4.8.6,1.1,1.3,1.8,2.9,2.8,4.3a79.608,79.608,0,0,0,9.3,11.7c1.5,1.5,6.8,6.8,9.2,4.6,1-.9,1.1-2.8,1.5-4,.8-2.5,1.7-5,2.5-7.5,1.8-5.1,3.8-10,5.8-15.1,4.1,2.1,8.4,3.8,11.9,6.7a103.245,103.245,0,0,1,9.6,9.1c1.2,1.3,1.5,1.3.9,2.9-.3.7-.8,1-.4,1.9.3.7,1.3.7,1.3,1.7,0,.9-1.6,2.4-2.3,2.9-1.9,1.3-4.4,2.1-6.4,3.1-2.3,1.1-8.4,2.8-9.1,5.7-.5,2.1,1.5,3.3,2.9,4.4,1.9,1.5,3.9,2.9,5.7,4.4a65.544,65.544,0,0,1,10,10.4c2.7,3.6,4.5,7.6,7,11.3.8,1.2,2.7,3.9,4.4,2.4,1.3-1.2,1.4-4.8,1.8-6.4a127.693,127.693,0,0,1,4.4-16.1c4.9,8,8.4,16.5,12.2,25.1,3.9,8.9,8.1,17.8,11.8,26.7.9,2.2,4.2,6.5,2.3,8.8-.9,1.1-2.5,1.7-3.6,2.5-1.9,1.3-3.7,2.7-5.6,4.1-3.6,2.7-8.2,5.3-11.1,8.8-2.6,3.2,1,6.2,3.6,7.8,3.9,2.5,8.6,3.5,12.9,5,4.8,1.6,9.4,3.9,14.5,4.6-.2-2.2-.2-4.1-2.2-5.3-2.4-1.3-5.4-1.8-7.9-2.6-5.9-1.9-11.8-4.1-17.6-6.4a226.294,226.294,0,0,1,19.3-15.9c6.3,14.2,8.6,29.8,14.9,44s12.5,28.7,15.5,44.1c-.7-.5-1.3-1-2-1.5-5.8,8-7.3,18.4-13.8,26-1-4.9-3.8-8.9-6.2-13.1-1.1-2-3.6-6.1-2-8.4,1-1.4,4-1.5,5.6-1.9a44.484,44.484,0,0,0,7.7-2.8,51.963,51.963,0,0,0,5.5-2.1c1.3-.8,2.5-2.6.3-2.6-2,0-4.3,1.3-6.1,1.9q-4.05,1.35-8.1,2.4c-1.8.5-3.7.5-5.4,1.1-2.3.7-2.5,2.4-2.3,4.6.4,4.8,2.6,8.9,5.1,13a33.124,33.124,0,0,1,3.3,6.5c.5,1.5.7,3.6,2.3,4.6,3.6,2.2,6.8-6.9,7.8-9,3-6,5.8-12.1,8.6-18.1,1.4,1.2,1.8,3.2,2.3,4.9.6,1.9,1.3,3.7,1.9,5.6.7,2.2,1.4,4.4,2.2,6.6.6,1.4,1.6,2.9,1.4,4.5-.2,1.9-2.1,3.5-3.2,4.9-1.2,1.5-2.3,3.1-3.4,4.7-2.6,3.6-5.2,7.2-7.7,10.9s-4.5,7.7-6.9,11.5c-2.3,3.6-4.8,7-7.3,10.5-2.4,3.3-4.1,6.8-6.3,10.2-2.6,4-5.6,7.6-8.4,11.4,0-.3-1.1-1-1.3-1.3-.5-.7-.1-1.1-1.1-1.3-.9-.2-1,1-2,0a2.219,2.219,0,0,1-.3-2.2c.3-.7.9-.5.8-1.5,0-.3-.6-.6-.7-.9-.2-.5,0-1.1-.2-1.6-.5-2-2.5-3.3-3.7-1.2-.1-.5-.3-.9-.4-1.4.4,0,.8.1,1.2.1-.3-1.7.1-3.4-.6-4.9-.5-1.3-1.1-2.2-.7-3.6a54.727,54.727,0,0,1,2.2-5.3c.9-2.2,1.7-4.4,2.4-6.7,1.1-3.1,3.4-7.9,1.2-11-1.1-1.6-2.4-1.5-4-1.1-2.4.6-4.7,1.2-7.1,1.9-1.5.5-3.4,1.2-4.9.4-1.6-.8-2.3-3.4-3-5a62.862,62.862,0,0,0-3.2-7c-1.1-1.9-1.8-4.1-3.2-5.7a9.726,9.726,0,0,1-2.6-4.5c-.1-.6.1-1.4-.2-1.9-.4-.6-1.1-.7-1.5-1.5-.9-1.8-.2-3.7-2.3-5-.8-.5-4-1.4-1.3-2.1-1.2-3.2-2.6-6.2-4.1-9.3-.7-1.5-1.4-3-2.1-4.6a24.425,24.425,0,0,0-1-2.4c-.3-.5-.8-.7-1.1-1.1-.7-1-.5-1.7-.8-2.8a8.859,8.859,0,0,0-2.1-3.3c-2-2.8-2.7-6.2-3.7-9.5a35,35,0,0,1-1.4-4.6c-.2-1.4.3-1.6,1.1-2.9,1.9-3.1,3.8-6.3,5.4-9.5,1.4-2.7,2.5-5.6,3.9-8.4,1.1-2.4,2.6-4.6,3.3-7.2.6-2.2.5-4.6-1.2-6.3-2.3-2.2-5.7-.7-8.4,0-3.4.9-6.7,1.8-10.1,2.7-1.6.4-6.1,2.7-7.5,1.2-.6-.6-.4-1.7-.5-2.5a8.081,8.081,0,0,0-1-3.1,27.929,27.929,0,0,1-1.7-3.5c-.3-1.1-.1-2.2-1-3.1-.8-.8-.9-.4-1-1.7-.1-1.2.2-2-.4-3.2a33.925,33.925,0,0,1-1.9-3.2,7.267,7.267,0,0,1-.4-2.5c-.4-2.5-3.1-5-2.6-7.6.4-2.3,3.1-3.5,3.4-6,.8-6.4-6.7-2.1-9-.4-.7.6-1.6,1.6-2.6,1.4-.8-.2-1-1.4-1.8-1.6-2-.6-1.1,3.4-1.6,4.6-1.2,2.8-4.2,4.9-6.2,7.2-2.4,2.8-4.6,5.7-7,8.5-.7.9-3,4.5-4.5,4.7-2.3.4.8-3.4,1.1-3.9,1.7-2.6,2.7-5.7,3.9-8.5,1.3-3.3,2.9-6.4,4.4-9.6,1.5-3,3-6,4.3-9.1.8-2,2.8-5.1,2.4-7.3-.4-2.4-3-2.3-5-2-3.2.4-6.5.9-9.7,1.4-8.1,1.3-16.3,1.9-24.3,3.6-1.4.3-8.8,1.3-7.9,3.3.7,1.5,6.6-.3,7.6-.4,3.9-.6,7.9-1,11.8-1.4,4.2-.4,8.3-.8,12.5-1.5,4.1-.7,8.1-2.1,12.2-2.4-2.2,7.2-6.5,13.9-9.4,20.8-1.5,3.4-3,6.8-4.6,10.2-.7,1.6-1.5,4.8-3.4,5.3-2.2.6-4.2-2.5-5.4-3.9a76.235,76.235,0,0,1-5.9-8.9c-1-1.7-9.6-17.9-11.4-16.8-.7.4,11.8,21.5,13.2,23.4,2,2.9,5,8,8.6,9.1.7.2,2.7-.1,2.8.8s-2.3,1.7-2.9,2c-3.6,2.2-6.5,5.6-9.5,8.4a115.785,115.785,0,0,1-11.1,8.8,43.321,43.321,0,0,0-4.2,3.3c-1.1.9-2.3,2.5-3.8,2.9-1.3.4-1.6-.3-2.3-1.4-1.3-2.1-2.6-4.1-3.8-6.1-5-8-10.4-15.5-17.3-22-.8-.8-2.1-2-2.9-.6-1,1.8,1,2.5,2.1,3.2,3.6,2.4,6.5,6.8,9,10.2,3,4,5.6,8.1,8.3,12.3,1.3,2,4.8,5.2,1.5,6.8-3.5,1.7-8.1,1.8-11.8,2.9-4.5,1.4-8.7,3.4-13.2,4.8-3.8,1.2-7.8,2-11.6,3-1,.3-3.1.7-3.4,1.8-.4,1.3.9,1.5,1.9,1.6,3.4.1,7.5-.9,10.7-1.8,2.6-.7,5.2-1.5,7.8-2.3,1.7-.6,3-1.7,3.9.2-2.8,1.2-5.4,2.7-8.3,3.7a21.956,21.956,0,0,0-2.5,1.7,22.261,22.261,0,0,1-4.3,1.6c-3,1.2-5.8,2.7-8.8,3.7-3.2,1.1-6.6,1.7-9.8,2.7-2.5.8-4.5,2.3-7.2,2.4-1.4.1-2.9-.1-4.3.1-1.3.2-2.4,1-3.7,1.2a16.079,16.079,0,0,1-3.1-.1,4.052,4.052,0,0,1-1.1,0c-.3,0-.7-.5-1.1-.6-1.3-.2-2.9.5-4.3.5s-2.8-.2-4.2-.3c-2.6-.2-5.6-.4-7.9-1.8-2.2-1.4-4.3-.7-6.7-1.7-2.6-1.1-5-.2-7.5-1a7,7,0,0,0-2.5,0c-1.3-.1-2.8-1.7-3.9-2.2-5.6-2.7-10.8-5.7-15.3-10.2-1.9-1.9-3.3-4.2-5.7-5.3-2.3-1.1-2.9-3.4-4.6-5.3-1.6-1.7-8.1-7.1-6-9.6.7-.8,2.4-1.1,3.4-1.5,1.5-.6,3.1-1.3,4.6-1.9,3.5-1.5,7-2.7,10.6-3.9-1.3,3.7-2.4,7.5-3.8,11.1-.4,1.1-1.4,2.4-1.3,3.6.1,1.5,1.5,1.9,2.2,3,1.2-3.1,2.3-6.2,3.5-9.2,1-2.5,2.5-5.4,2.3-8.1-.4-6.9-7.9-2.4-11.3-.9-2.7,1.2-5.4,2.3-8.1,3.5-1.5.7-3.8,2-5.5,1.2-2.2-1-2.1-4.1-1.6-6,.9-3.1.5-4.1-2.1-6,4.3-4.1,8.8-7.7,13-11.6Zm172-130.8c.6,1.5,3.1,5.7,2,7.1-.6.8-3.2,1.4-4,1.8-1.7.8-3.4,1.5-5.1,2.3,2.3-3.8,4.7-7.5,7.1-11.2Zm36.7,9.7c-1.9,5-3.6,10-5.2,15.1-.6,1.8-1.6,9.1-4.3,8.7-1.4-.2-2.9-2.1-3.9-3.1a42.405,42.405,0,0,1-4.6-4.9c-3.1-3.7-6.4-7.4-8.6-11.7,8.4-3.4,17.6-3.7,26.6-4.1Zm30.7,22.3-.6-.6.6.6Zm2.6,5c1.9,2.9,3.7,5.9,5.6,8.9l-3.6-5.7c-1.2-1.8-1.1-2.1-3.2-1.4,1,2.5,1.4,4.9,3.8,6.4,2.9,1.6,5.4,2.2,6.2,6,.7,3.4-1,6.9-1.9,10.1-1.2,4.1-2,8.3-3,12.5-2.4-1-3.3-3.8-4.3-5.9a40.977,40.977,0,0,0-5.3-8.4c-4.3-5.6-10-9.9-15.5-14.3,4.2-2.1,8.3-4.3,12.5-6.4,2.6-1.6,6.6-5.1,8.7-1.8Zm87.4,242.9c5-8.3,9.7-16.8,15-24.9,2.6-3.9,5.4-7.7,8.2-11.4,2.3-3.1,4.4-6.7,7.1-9.4,3-2.9,5.7-6.2,8.4-9.3,1.3-1.4,2.3-3.1,3.8-4.4,1.6-1.5,3.4-2.8,5-4.3,3.3-3,6.1-6.3,9.5-9.2,3.3-2.9,7-5.5,10.6-8.1,2.8-1.9,6.5-5.2,10.1-5.2,3.8,0,3.3,4.5,3.3,7.3a88.13,88.13,0,0,1-1.2,13.6,95.681,95.681,0,0,1-2.6,13.8,236.955,236.955,0,0,1-8.4,25.9c-1.7,4.2-3.8,8.1-5.6,12.2-1.2,2.7-2.1,6.2-4.8,7.9-1.8,1.1-4.3,1.2-6.4,1.6-2.7.5-5.4.9-8.1,1.4-5,.9-10,1.3-15,2.3-5.2,1-10.3,1.7-15.6,2.2a78.546,78.546,0,0,0-8.2,1.5c-2.5.5-5.1.4-7.6,1.1,1-1.6,1.6-3.2,2.5-4.6Zm-38.5,9.7c1-.6,1-1.7,1.4-2.7a13.066,13.066,0,0,1,1.7-2.8c1.1-1.9,1.2-3.8,2.7-5.5,3.4-3.9,4.5-9.5,7.1-13.8,6.2-10.6,12.4-21.3,18.4-32,1.9,3.9,3.8,7.9,5.8,11.7,1.6,3.1,4.6,6.7,5.2,10.2.6,3-2.9,6.6-4.3,9a104.869,104.869,0,0,0-5.6,11.1c-1.3,3.2-2,6.8-4,9.7-2,2.8-5.4,2.4-8.4,2.7-4,.5-8,1.4-11.9,2.2a34.117,34.117,0,0,0-5.3,1.3c-.9.3-4.2,1.2-2.8-1.1Zm-22-225.8c9.6.6,16.9-3.5,25-7.9,4.1-2.3,7.9-5,11.8-7.5s8-4.9,11.6-7.7c1.6-1.2,2.9-2.8,4.5-4.1,1.5-1.2,3.2-2.1,4.6-3.4a49.7,49.7,0,0,0,7.6-8.9c4.8-7.8,10.7-14.8,16.3-22,3.1-4,5.7-8.4,8.5-12.7,2.9-4.4,5.8-8.8,8.3-13.4,17.4,37.1,35.2,74,52.8,111q13.5,28.35,26.9,56.8c4.3,9.1,8.9,18,13.4,26.9,4.4,8.7,8.2,17.9,12.2,26.8,2.2,4.9,5.2,9.4,7.3,14.4a158.39,158.39,0,0,0,7.1,14.3c2.5,4.6,4.6,9.4,7.2,13.9,2.5,4.5,3.9,9.5,6.7,13.7-8.2,1.7-16.5,3.2-24.7,5.2-4.1,1-8.2,1.6-12.3,2.6-4,1-7.8,2.6-11.9,3.3-8.4,1.3-16.9,2.8-25.4,3.9-4.2.6-8.5.7-12.8,1.1-4.4.5-8.7,1.5-13.1,2.3.2-2.9,1.9-5.6,3-8.3a97.965,97.965,0,0,0,3.6-9.5c2-6.4,3.7-13,5.4-19.5,3.3-12.6,6.6-26.9,3.6-39.8-1-4.3-3.3-8.9-7.5-10.9-5.5-2.5-10.8,1.5-15.2,4.4a119.805,119.805,0,0,0-15.9,12.5,73.817,73.817,0,0,0-6.9,6.8c-2,2.4-4.5,4.1-6.6,6.3a214.89,214.89,0,0,0-26.7,35.6c-1.4-3.5-2.5-7-4.5-10.2-1.5-2.5-3.3-4.8-5-7.1-1.2-1.6-2.9-3.6-2-5.6,1-2.1,4.1-3.1,3.5-5.8-1.3.7-2.5,1.5-3.8,2.2-3.7-11.8-8.2-23.4-11.9-35.2-1.8-5.9-3.6-11.7-5.5-17.5-1.8-5.4-4.5-10.4-6.8-15.6-4.8-10.6-6.4-22.3-10.5-33.2-.8-2.2-2.1-4.2-2.9-6.4-.4-1-.7-1.7-.2-2.6.3-.6,1.3-.9,1.5-1.5.3-1.6-2.4-.9-3.3-1.8-.7-.7-1-2.1-1.4-3-.7-1.6-1.4-3.3-2-4.9-5.4-13-11.2-25.8-17.2-38.5,1.1.1,2.3.4,3.6.5Zm92.5-123.5c-.6-.8-.5-2.1-1.3-2.9-.8-.7-1.6-.5-2.3-1.4a18.467,18.467,0,0,1-1.3-2.4c-.1-.2.1-.9,0-1.3-.2-.7-.9-1.1-1.3-1.7-1.6-2.7,1.1-3.5,1.7-6.1.4-1.5.2-2.4,1.4-3.5a20.764,20.764,0,0,1,3.4-2.4c.8-.5.8-.3,1.6-.6.4-.1.5.1,1-.1.8-.3,1.6-1.5,2.2-2.1,1.8-1.8,2.7-3.2,2.1-5.8-.3-1.3-.8-3.5-2.4-3.2-.9.2-2,1.8-2.7,2.4a25.045,25.045,0,0,1-3.8,3.5c-1,.7-2.2.6-3.1,1.2-1.2.7-1.1,1.9-1.6,3.1-1.2,2.4-4.4,4.3-6.4,5.9a32.733,32.733,0,0,1-6.5,4.5c-2.1,1.1-5.7,2.6-8.2,1.9-4.1-1.3,2.7-10.8,4.1-12.6,3-3.7,9.9-6.6,8.9-12.2-.4-2.5-1.9-4.2-4.5-3.1-3.2,1.4-6.1,4-9.2,5.5-3.3,1.7-6.7,3.1-10.1,4.5-1.9.8-3.7,1.6-5.6,2.4-1.4.6-2.9,1.6-4.5,1a255.54,255.54,0,0,1,15.7-20.3,76.453,76.453,0,0,1,8.9-8.1c2.3-1.9,5-3.8,4.8-7.2-.1-2.5-1.5-5.9-4.5-5.3-1.9.4-3.6,2-5.4,2.8a27.093,27.093,0,0,0-4.2,2c-1.6.9-3.7,1.1-5.4,1.5-1.9.5-3.8,1.1-5.8,1.5-4.2.9-8.4.7-12.6.7,3.5-6.1,9.1-10.5,14.5-14.9,3-2.5,5.8-5.3,8.8-7.7s6.2-4.6,9.2-7l.7,2.6c1.4-.7,1.8-2.5,3.1-3.3,1.7-1,3.7-.6,5.5-.1a23.8,23.8,0,0,1,10.3,5.4c6.2,5.4,10.7,12.3,14.2,19.6a111.23,111.23,0,0,1,5,11.9,18.663,18.663,0,0,1,1.4,6.2c0,2.3-1,4.3-1.6,6.5-1.1,4.2-1.4,8.7-1.9,13-.6,4.6-1,9.2-1.3,13.7-.2,2.4-.5,4.9-.9,7.3a6.436,6.436,0,0,1-.5,2.4c-.3.6-1.1.8-1.4,1.5s-.1.7.1,1.6a5.834,5.834,0,0,1-.2,3.2c-.7,2.5-1.5,5-2.2,7.5a10.35,10.35,0,0,1-5.1-4.8c-.4-1.1,0-1.8.1-2.8a5.315,5.315,0,0,0-.9-3.9Zm-52.1-105.8.1.1a.1.1,0,0,1-.1-.1Zm-19.3-42.9-.1-.1.1.1Zm-.1,1.8c-.2-.5.4-1.2.2-1.6a7.772,7.772,0,0,1-.2,1.6Zm114.2,249.1a8.342,8.342,0,0,1,.8,1.2,8.342,8.342,0,0,1-.8-1.2Zm3.9.1a2.092,2.092,0,0,0-.4-.6,2.092,2.092,0,0,1,.4.6Zm2.4,4c0-.1.1-.2.1-.3-.1.4-.3.4-.5-.1.1.1.2.3.4.4Zm1.7,2.7a4.331,4.331,0,0,0-.1-.5.749.749,0,0,1,.1.5Zm-515.8,4.3c-1-.5-2.3-1.9-3.5-1.9-.5,0-1.6.3-1,.9.3.3-2,0-2,0a31.033,31.033,0,0,1-4-1.3c-2.3-.8-4.6-1.6-6.9-2.5-4.6-1.6-8.9-3.9-13.4-5.8-8.7-3.7-16.1-8.8-23.5-14.7-15.1-12-24.8-29.5-33.7-46.3,9.1.8,18.5,1.2,27.2-1.6,9.1-2.9,16.4-8.2,24.2-13.6.5,1.3,1,2.7,1.5,4,.7-1.4,1.5-2.9,2.2-4.3q19.95,44.7,40,89.3a29.244,29.244,0,0,1-7.1-2.2Zm-88-45.6c2.4,1.1,3,2.2,3,5.1,0-2.9-.6-4-3-5.1Zm1.7-118v0Zm-9.4,20.5c.3-1.1.6-2.3.9-3.4.2,2.2,1.4,3-1.3,4a2.092,2.092,0,0,0,.4-.6Zm2.1,2.4c-.2.4-.3.3-.2-.3,0,.2.1.2.2.3Zm12.1-30.1c5.5-7,10.8-14.1,16.8-20.6,4.8-5.1,10.2-10.9,17.5-12.2-.6,6.6-5.2,12-8.8,17.3a75.567,75.567,0,0,1-6.4,8.5c-2.1,2.4-3.3,5.1-1.9,8.3.8,1.9,2.7,4.6,5,4.3,1.4-.2,2.7-1.6,3.8-2.4,1.6-1.1,3.2-2.2,4.8-3.2,3.1-2,6.1-4,9.2-5.9,2.8-1.7,5.7-4.3,9.1-4.6a93.585,93.585,0,0,1-4.6,9.6,67.3,67.3,0,0,1-5.4,9.4c-2.1,2.8-4.8,4.7-7.5,6.9-2.3,1.9-2.1,4.7-.9,7.2,1.5,3,3.6,4.6,6.2,2.2a67.425,67.425,0,0,1,8.8-7.2,43.55,43.55,0,0,1,8.3-4.3c1.2-.5,3.6-2.2,5-1.5,1.9,1,.3,5.8-.1,7.4a39.527,39.527,0,0,1-4.1,10.5c-3.1,5.6-6.4,11.5-11.8,15.2-4.4,3.1-14.5,6.3-11.2,13.2,1.5,3,3.1,5.9,4.6,8.9,1,1.8,4.3,5.9,3.1,8.1-.8,1.5-3.6,2.5-5,3.3-1.9,1.1-3.8,2.3-5.8,3.3a92.6,92.6,0,0,1-11,5.3c-7.7,3-16.2,3.4-23.8,6.6a7.838,7.838,0,0,1,1.4-.5c-1.3-.2-1.9-2.3-2.3-3.4a13.158,13.158,0,0,1-.8-1.7c-.1-.6.3-1.1.3-1.4-.1-.8-.5-.6-.8-1.2-.5-.9-.3-.8-.4-1.7a13.894,13.894,0,0,0-.6-1.9,8.2,8.2,0,0,1,.3-3.5c-3.3.3,1.1-3.6.7-4.7s-1.6-1.3-1.8-2.6c-.2-1.4,0-2.9-.2-4.3a13.633,13.633,0,0,1-.2-4.5c.3-1.3,1-2.2.1-3.4-.6-.8-1.7-1-2.2-1.8a2.174,2.174,0,0,1,1.2-3.2,3.1,3.1,0,0,1-1.8-3c.1-1.2.7-1.3,1.4-2.2,2.2-2.7-2.4-2.8-1.8-5.7.3-1.4,1.6-2.5,2-3.8a18.506,18.506,0,0,0,.8-4.7c.1-1.2-.6-1.9-.7-2.9-.1-1.1.7-1.5.9-2.5.2-1.1-.7-2.3-.5-3.4.3-1.1,1.4-1.6,1.7-2.8.4-1.4-.3-2.3-.3-3.5.1-1.9.9-.8,1.8-1.5.6-.5.3-1.1.4-1.7a3.511,3.511,0,0,1,1-1.9,18.676,18.676,0,0,0,2.1-2.8c.6-1.3.8-2.7,1.4-3.9.9-1.7.8-2.3-.1-4-.5,1.2-1.6,2-2,3.2,1.1-2.3,3.6-4.8,5.1-6.7Zm-23.5,58.8c-.4-.4.2-.5.4-.2-.1.1-.3.1-.4.2Zm128.1-82.9.1-.1a.1.1,0,0,1-.1.1Zm-9.1-110.9c-.1.1-.1.1-.1.2,0-.1,0-.2.1-.2Zm.3-.2c-.1,0-.1.1-.2.1,0-.1.1-.1.2-.1Zm1-.2c-.3.1-.6.1-.9.2.3-.1.6-.1.9-.2Zm-20.7,108.6a3.741,3.741,0,0,1,1.6.7,3.741,3.741,0,0,0-1.6-.7Zm203.5,18.8c.4-6.6.3-13.5,2.7-19.8.8-2,1.6-4.9,3.8-5.7,3-1.1,7.7.3,10.9.5a75.27,75.27,0,0,0,19.5-1.6c3.4-.7,6.6-2.2,9.9-3.3a58.28,58.28,0,0,0,9.7-4,26.433,26.433,0,0,0,6.6,10.2c2.5,2.5,6.1,4.7,3.8,8.6-2.1,3.5-3.1,7.2-4.8,10.8-1.9,4.1-4.9,7.6-7.7,11.2a13.934,13.934,0,0,1-.4-3.5c-1.9.4-4.8,2.8-5.8.1-.3-1,.3-3-1.1-3.1-2.1-.3-2.2,3.6-2,4.8.5,2.7,2.2,4,4.6,5.1-7.2,3.9-13.4,9.3-20.8,12.9-3.7,1.8-7.9,2.5-12,3.2a13.125,13.125,0,0,1-7.6-.7c-8.9-4-9.7-17.4-9.3-25.7Zm464.1,403.1c-2.2-3.2-2.6-7.2-3.2-11a58.139,58.139,0,0,0-3.3-12.4,105.581,105.581,0,0,0-5.2-10.7c-.5-1-1.2-2.3-2.5-2.4-1.4-.1-2.1,1.3-3,2.1-1.3,1.1-3.1,1.4-4.7,1.9-2,.7-3.9,1.5-5.8,2.2-3.8,1.2-7.9,1.4-11.8,2.2-1.8.4-3.7.8-5.5,1.2-1.2.3-3.3,1.2-4.6,1-2.6-.4-4.5-6.6-5.4-8.8-1.5-3.5-3.7-6.8-5-10.4-1.4-3.7-2.6-7.4-4.3-11-1.8-3.8-3.6-7.5-5.3-11.3a21.946,21.946,0,0,0-2-4.4c-.9-1.4-2.2-1.7-2.6-3.5a4.552,4.552,0,0,0-.5-2c-.7-.8-1-.1-1.7-.3-.7-.3-.6,0-.8-.7,0-.1.4-.5.3-.7,0-.3-.3-.7-.3-1-.3-1.5.1-2.5-.5-4-.8-1.9-1.5-3.9-2.2-5.8-2.9-7.8-7-14.8-10.5-22.3-.4-.9-1.1-1.6-1.4-2.5-.3-.8-.1-1.8-.5-2.6-.5-.9-1.2-.8-1.8-1.5-.5-.5-.5-1.1-.7-1.8-.8-3.5-2.8-6.4-3.7-9.9-.5-2-1.6-3.4-2.6-5.2a63.974,63.974,0,0,1-2.9-6.5c-.9-2-1.8-4-2.8-6-.9-1.8-1.5-2-2.9-.4a25.809,25.809,0,0,1-3-4.6c-.6-1.5-1.6-1.6-3.1-2.5.9.6,1.5,1.4,2.5.4.4,1.7,2.6.1,2.2-1.3-.4-1.5-2.5-1.8-3.7-2.2.6-1.6,1.6-.2,1.6-2,0-1.5-1.5-3.3-2.2-4.6-1.9-3.5-3.3-7.3-4.9-10.9-1.6-3.7-3-7.4-4.8-11a37.373,37.373,0,0,0-2.4-4.4,5.8,5.8,0,0,0-1.4-1.7c-.4-.3-1.4-.3-1.6-.7-.4-.8.5-2.3.4-3.2a16.618,16.618,0,0,0-1.7-4.7c-1.7-3.5-3.3-7.2-5-10.7-1.7-3.4-3.5-6.6-4.9-10.2a48.134,48.134,0,0,0-2.5-5.1c-.7-1.4-1.1-2.9-2.3-3.9.1.7.1,1.5.2,2.2-.1-.8.2-1.9-.4-2.7-.6-.9-1.8-.7-2.5-1.4a4,4,0,0,0,2.3,1c-1.7-4.5-3-9.4-6-13.2a5.725,5.725,0,0,0-1.5-1.6c-.3-.2-1.5-.1-1.7-.3-1-1.1.6-3.1.3-4.4-.3-1.4-1.7-2.6-2.2-4.1a15.533,15.533,0,0,0-2.8-5.6,14.19,14.19,0,0,1-1.7-4c-.9-2.5-1.9-4.9-2.9-7.3-1.9-4.5-4.5-8.7-6.6-13.1-1-2.1-1.5-4.4-2.6-6.4-.9-1.5-2.3-2.6-3-4.3-.8-2-1.3-4.2-2.2-6.2-.6-1.4-1.3-2.8-1.9-4.2-.8-1.9-2.3-6.4-5.2-4.8,1-3.5,2.2-7,3.1-10.5a7.543,7.543,0,0,1,.9-2.9c.7-.8,1.1-.6,1.6-1.6,1.3-2.7.6-7.1.8-10,.3-3.6.9-7.1,1-10.7s.1-7.1.3-10.7a65.444,65.444,0,0,0,.1-9.9c-.3-3.1,2-5,2.6-8,.7-3.2.3-6.6-.2-9.9a73.184,73.184,0,0,0-14.4-33.6c-5.6-7.1-16-16.3-25.8-12-1.3.6-2,1.2-3.3.3-1.1-.8-1.1-2-2.7-2.1-1.5-.1-3,1.3-4.2,2-1.7,1-3.4,1.9-5.1,2.8-3.1,1.7-5.8,3.6-8-.2-.6-1-1.1-3.5-2.2-4-1-.4-1.4.5-2-.4-.1.1-.2.2-.2.3.5-.6,0-1.2.1-1.8,0-.2-.1-.5-.1-.7a4.62,4.62,0,0,0,.7-.7c.1-1-.8-2.3-1.2-3.1-1.4-2.7-2.3-5.5-3.7-8.2-1.7-3.2-2.9-6.4-4.4-9.6-1.5-3.4-3.6-6.5-5.2-9.9-3.2-7-6.2-14-9.5-21-.7-1.4-4.4-11.7-6.9-10.6.6-2.5-1.1-4-2.5-5.9a17.524,17.524,0,0,1-2-3.5c-.6-1-1.5-1.8-2-2.8a13.429,13.429,0,0,1-.7-2.7,7.707,7.707,0,0,0-1.7-2.7c-1.6-2.1-2.8-4.5-5-6.1-1.3,5.3,1.7,10.6,3.7,15.4,2.4,5.8,4.6,11.7,6.9,17.5,4.6,11.5,9.7,22.8,15.1,34,2.8,5.8,5.8,11.6,8.4,17.6a64.44,64.44,0,0,0,3.4,7c1.4,2.5,2.1,5.3,3.3,7.9.9,1.9,2.5,3.8,1.9,5.9s-3.5,4.7-5.1,6.2c-3.6,3.4-8.4,4.4-9.7,9.6-1.3,4.9-.6,11.8,3.6,15.3,4.4,3.6,12.3,1.6,17.2.9-3,4.5-6.1,9-9.1,13.5-2.7,4.2-5.1,8.6-4.5,13.8,1.7,12.6,18,1.7,23.8-1.1-1.5,5.1-2.6,12.2.9,16.8,2.5,3.4,7.7,3,11.3,2.1,2.7-.7,3.5-.5,5.1,2a42.233,42.233,0,0,0,4.7,5.6c4.1,4.4,6.6,9.1,9.2,14.4,1.5,2.9,2.3,4.9.8,8.1-1.4,2.8-3,5.7-4.6,8.4-3.1,5.2-7.2,9.6-10.8,14.5-7.2,9.8-13.4,20.2-21.7,29.3-8.1,8.9-18.6,15.6-28.5,22.5-5.2,3.6-10.1,7.4-15.9,9.9-2.9,1.3-6,2.3-9,3.3-1.5.5-2.9.9-4.4,1.3-.8.3-2.1,1-3,.6-.6-.3-1.3-2.3-1.5-2.8-.7-1.2-1.3-2.5-2.1-3.7-1.6-2.5-3.5-4.8-5.1-7.2-3.6-5.5-6.9-11.2-10.9-16.4a147.24,147.24,0,0,0-12.3-13.9c-4.2-4.2-8.8-8.1-14.4-10.3a38.465,38.465,0,0,0-17.5-2.1c-5.6.4-10.8,2.2-16.2,3.6-1.9.5-4.5,1.3-6.2.1a8.758,8.758,0,0,1-1.9-2.4c-.6-.8-1.8-1.5-2.2-2.4-.7-1.5.6-3.5.9-5.1a25.345,25.345,0,0,0-.7-9.5c-2.9-13-7-25.5-9-38.7a73.666,73.666,0,0,1-1.1-9.3c-.1-1.9.9-3.8.8-5.7-.1-1.8-2-2.4-3.6-1.4-1.7,1.1-1.7,3.6-1.8,5.3-.8,13.5,2.3,26.4,5.6,39.4.8,3.2,1.5,6.3,2.4,9.5.7,2.7,1.5,5.5.4,8.2-1,2.5-2.6,4.7-3.7,7.1-1.2,2.5-2.2,5.7-4,7.8-1.7,2-3.4,2.5-2.6,5.5.2.7.7,1.3.4,2-.3,1-2.5,2-3.3,2.5-5.5,3.5-11.4,6.5-17,9.8-2.4,1.5-4.8,3.5-7.5,4.6a30.228,30.228,0,0,0-6.9,3.6c-5.2,3.6-10.6,6.8-16,10.1-5.5,3.5-11,7-16.4,10.5-5.1,3.3-9.9,7.3-15.2,10.3s-10.7,5.9-16.1,8.8a7.326,7.326,0,0,1-3.7,1.4c-1.1,0-1.9-.4-3,0-2.6,1-5,3.8-7.1,5.5a179.96,179.96,0,0,1-16,10.9c-2.6,1.7-5.2,3.5-7.6,5.4-2.1,1.6-4,3.6-6.4,4.9a40.636,40.636,0,0,0-6.7,4.4c-2.2,2-4.5,3.9-6.8,5.8-2.5,1.9-4.9,3.8-7.3,5.9-2.1,1.9-3.9,4.2-6.1,6-2.1,1.9-4.5,3.4-6.4,5.6a57.615,57.615,0,0,0-5.2,7.7c0-.3-1.3-1.2-1.4-1.4-.7-1-.5-2.1-1-3.2-1.8,1.8-.4,6.3-.2,8.5-.3-4.7-.1-9.4-.7-14.1-.6-4.6-1.5-9.2-1.6-13.8-.1-4.7.2-9.4.4-14.2a40.657,40.657,0,0,1,.6-6,11.364,11.364,0,0,0,.6-2.5c.1-1.1-.3-1.2-.7-2.2-.7-1.6-.1-1.7.7-3,.9-1.5,0-2-.4-3.4-.6-1.9,1.1-2.3,1.1-4,0-.7-.7-1.4-.6-2,0-1.4.6-.6,1.1-1.5.5-.8-.8-1.5-1.1-2.4a2.657,2.657,0,0,1,.1-2.3c.1-.2.4-.4.5-.6.2-.4.1-.5.2-.8.7-2.6,1.8-5.2,2.7-7.8.8-2.4.2-4.9.2-7.4,0-2.1,1.1-3.8,1.5-5.8.5-2.2-.9-3.1-1.8-5a8.544,8.544,0,0,1,.1-7c.3,1.1.7,2.2,1,3.3a8.76,8.76,0,0,0,.6-2.7c-.1-1.1-.7-1.2-1-2-.6-1.4.1-.8.6-2.1.3-.7-.1-1.5,0-2.2a16.837,16.837,0,0,1,.6-2.4c.3-1.4,0-2.4,1-3.5a18.85,18.85,0,0,1,3.1-2.5c1.9-1.5,3.7-3.2,5.5-4.9,2.5-2.3,6-4.1,5.8-7.8-3.8,1.4-6.6,4.7-9.7,7.2-3.4,2.9-7.3,5.1-10.7,7.9a186.755,186.755,0,0,1-23.4,16.1c-4.1,2.4-8.2,4.7-12.3,7-3.7,2.1-7.2,4.6-11.3,6.1-3.7,1.3-8.3,3-12.1,1.5a6.324,6.324,0,0,1-3.6-3.2c-.5-1.3,0-3.4-1.3-4.3-.5-.4-1.5,0-1.7-.8-.1-.6,1-1.3,1.1-1.9.2-1.5-1.6-4.2-2.2-5.6a6,6,0,0,0-1.3-2.5c-.3-.2-.8-.2-.9-.5-.2-.3,0-.5-.2-.8-.4-.8-.3-1.4-1-2.1a17.128,17.128,0,0,0-2.7-2s.8.4.8.5c-.1-1.3-.8-2.4-1-3.7s.2-2.5-.4-3.7c-.7-1.3-2-2.1-2.7-3.4s-1-2.8-1.6-4.1c-1.1-2.5-3-4.1-3.5-6.9a4.711,4.711,0,0,0-.4-1.7c-.3-.5-1-.4-1.3-.9-.4-.8.1-1.5-.6-2.3-1.4-1.6-3.8-1.1-2.6-3.8,1.2-2.8.4-2.9-1.3-5s-2.2-5.4-3-7.9a6.453,6.453,0,0,0-1.2-2.8c-1.2-1.2-1.6-.4-1-2.3-2.3.1-2.4-4.1-2.7-5.7a6.29,6.29,0,0,0-1.2-3.3c-.5-.6-1.7-.5-1.7-.5a8.055,8.055,0,0,1-1.5-2.7c-.1-.6.5-1,.4-1.7a4.069,4.069,0,0,0-1.3-1.9c-1.8-1.9-4.7-5.9-3.6-8.7,4.6,4.8,9,9.7,13.6,14.5,3.7,3.8,7.7,7.2,12.8,8.7,5.8,1.8,12.1,2.1,18.1,1.9,3.2-.1,6.3-.8,9.4-.6a34.3,34.3,0,0,0,9.6-.7,31.97,31.97,0,0,1,4.2-1c1.1-.1,2.2.1,3.2-.1,2.8-.5,5.2-2.2,7.7-3.5a72.355,72.355,0,0,0,14.9-9.8c8.7-7.6,14.3-17.8,19.8-27.8,6.1-11.3,11.5-22.8,18.3-33.7a167.961,167.961,0,0,1,10.5-15.9,61.865,61.865,0,0,1,12.7-11.8c4.5-3.2,9-7,14.6-8.1,3-.6,6.1-.8,9.1-1.3,3.2-.5,6.3-.9,9.5,0,2.8.8,5.6,1.8,8.5,2.6,3.1.9,6.3,1.3,9.2,2.8,2.6,1.3,4.9,3.1,7.4,4.6,2.3,1.3,5.6,1.9,6.8,4.4s1,5.6,2,8.3a38.415,38.415,0,0,0,4.5,8.5c3.1,4.4,7.1,8.3,12.6,9,6.7.8,13.3-1.7,19.4-4.2,6.3-2.5,11.3-7.2,17.4-10.1a48.3,48.3,0,0,1,0,6.6,61.443,61.443,0,0,1-1.5,7.2,80.034,80.034,0,0,1-4.1,13.7,61.733,61.733,0,0,1-7.1,11.8c-2.6,3.6-5,7.5-8,10.7-5.5,5.7-13.3,9.1-21,10.3-8,1.2-17,.9-23.2-4.7-6-5.4-10.8-12.4-12.1-20.5-1.6-9.4-1.3-19.1-.6-28.5a140.588,140.588,0,0,1,1.5-14.4c.7-4.1,2.6-8.5,1.1-12.6-.3-.9-.5-1.9-1.4-1.9-1.6-.1-3,2.4-3.7,3.5-2.2,3.8-2.8,8-3.6,12.2a130.274,130.274,0,0,0-1.7,31.2c.3,5.1.5,10.3,1.9,15.3a68.787,68.787,0,0,0,6,14.3c-1-.2-1.5.4-1.2,1.3a15.933,15.933,0,0,1,1.3-1.3c4.9,6.3,10.6,13.8,18.4,16.4,4.6,1.5,9,2.8,13.9,2.6a38.23,38.23,0,0,0,13.7-3.3c4-1.6,8.2-3,11.5-5.9,3.4-2.9,6.2-6.8,8.9-10.3a82.29,82.29,0,0,0,13.7-25.4,110.351,110.351,0,0,0,2.8-13.9,55.57,55.57,0,0,0,.8-7c0-1.9-.5-3.8-.5-5.7,0-3.6,3.5-4.9,6.7-5.4,4.1-.6,6.1,3,8.2,5.9,2.8,3.8,5.5,7.7,8,11.7,1.1,1.8,1.8,4.1,2.9,5.8.8,1.1,2.2,1.7,3.2,2.9a93.176,93.176,0,0,1,8.3,11.5c2.3,3.8,5.6,7.3,8.5,10.7,3.2,3.7,6.7,7.2,9.9,10.9,2.5,2.9,5.9,4.6,8.4,7.5,2.6,2.9,6.8,4.7,10,7,1.8,1.3,3.6,2.8,5.3,4.2,1.7,1.5,3.1,3.3,4.9,4.7,6.5,4.9,13.1,9.4,21.6,9.7,1.9.1,3.4-.6,5.2-.7,1.9-.1,3.7.8,5.7.7a71.195,71.195,0,0,0,13.6-2.7c8.7-2.6,18-5.8,25.4-11.2a68.345,68.345,0,0,0,9.9-9.5c1.7-1.8,5.5-6,2.7-8.6-2.4-2.2-6.7,3.9-8.2,5.3a35.889,35.889,0,0,1-11.4,6.9c-4.2,1.7-8.5,3-12.8,4.5-4.5,1.6-8.8,3.4-13.5,3.9-2.4.3-4.9.4-7.3.7-2.5.3-5,.9-7.5.6-4.5-.7-9.4-1.2-13.5-3.5-7.9-4.4-13.9-12-21.1-17.4-3.6-2.7-7.5-5-10.9-8a117,117,0,0,1-9.6-10.3c-6.7-7.8-13.3-15.8-19.8-23.8-2.9-3.6-6.1-7-8.7-10.8a7.181,7.181,0,0,1-1.5-5.1c.3-2.2,1.8-4.1,2.1-6.4.5-4.3-1.7-8.6-3.5-12.4-.7-1.5-1.7-3.2-.5-4.6,1.2-1.5,3.1-2.6,4.4-4.1,3.1-3.4,6.2-6.9,9.1-10.6a35.879,35.879,0,0,0,3.7-5c1.3-2.2,1.8-4.7,2.5-7.1a72.416,72.416,0,0,0,2.8-28.9c-1-8.9-1.7-19-5.7-27.2-3.8-7.8-10-14-16.6-19.6-3.8-3.2-7.7-6.3-11.5-9.5-3.7-3.1-7.8-5-11.8-7.5-8.1-4.9-17-5.7-26.2-4.9-4.8.4-9.7.2-14.3,1.7a53.643,53.643,0,0,0-12.4,6.3c-7.8,5-15.5,10.2-23.4,15.1-16,9.9-36,18.1-54.9,13.3a126.833,126.833,0,0,1-27.2-10.6c-8.5-4.6-16.5-9.8-25.6-13.3-4.7-1.8-9.4-3.4-14-5.3-2-.8-4-2-6.2-2.3-.8-.1-1.9.2-2.6-.2-.6-.3-.4-.7-.9-1.1-1.1-.7-2.9-.6-4.3-1.1-1.2-.5-3.4-2.1-4.8-1.9-.7.1-1,.8-1.8.8-.7,0-1.4-.8-2-1.2-2-1.1-4.5-1.3-6.7-1.6-4.3-.6-8-1.2-12.1.3-3.9,1.4-7.9,2.6-11.8,3.9a16.749,16.749,0,0,0-5,2.5,13.306,13.306,0,0,1-3.5,1.3,17.612,17.612,0,0,0-8.8,8c-.8,1.7-1.9,1.3-2.9,2.6-1.1,1.3-.6,3.2-1.9,4.5-1.1,1.1-1.4,2.2-2.6,3.4a21.662,21.662,0,0,0-3.1,5.3,102.78,102.78,0,0,0-8.1,28.4,69.352,69.352,0,0,0-.3,14.4c.4,4.5.2,9.4,1.7,13.8a4.179,4.179,0,0,0,.4-1c.3.4,1,.9,1,1.5,0,.8-.5,1.3-1.2.5a47.566,47.566,0,0,0,4.6,10.9,4.371,4.371,0,0,0,2.8,2.4c1.4.5,1,.8,1.9,2.1.7,1.1,1.2,1.2,2.4.7.5-.2.6-.7,1.2-.6.5.1,1.1,1.2,1.4,1.5a4.069,4.069,0,0,0,1.9,1.3c1,.2,1.5-.5,2.2-.4,1.5.2,2.2,1.6,3.8,1.8a13.031,13.031,0,0,1,3.9.9,17.357,17.357,0,0,0,6.8,1.1,18.2,18.2,0,0,0,5.7-.7,14.262,14.262,0,0,1,2.7-.9,22.6,22.6,0,0,0,2.6-.1c1.8-.4,3.4-1.2,5.3-1.5a28.511,28.511,0,0,0,5-1.4c1-.3,2.4-1,3,.2.7,1.5-1.2,4-1.7,5.2a3.4,3.4,0,0,0,1-.1c-1.4.5-1.3.5-2,2s-1.6,2.8-2.2,4.3c-1.3,3.5-1.7,7.4-2.4,11.1-1.7,7.9-3.4,15.5-3,23.6.4,7.1,1,14.6,6.1,20a21.234,21.234,0,0,1,3,3.6c.7,1.4,1,2.8,2,4.1a15.2,15.2,0,0,0,8,5.1c3.4.8,7.1,1.6,10.6,1.1,3.4-.5,6.8-.9,10.2-1.6,7.3-1.4,12.9-7,17.6-12.4,2.5-2.8,5-5.6,7.3-8.5.6-.8,1.4-2.4,2.4-2.8,1.3-.5,2.3.6,3.5,1a38.971,38.971,0,0,0,5.9,1.4c1.4.3,2.6,0,2.5,1.7-.1,1.5-2,3.9-2.6,5.3-.9,1.8-1.8,3.7-2.7,5.5-3.6,7.2-7.3,14.3-11.4,21.2-3.8,6.5-8.1,12.7-14.1,17.5a84.253,84.253,0,0,1-19.2,11.3c-3.7,1.6-7.7,2.1-11.7,2.5-1.8.2-3.5.3-5.3.5a18.1,18.1,0,0,1-2.3.3c-.8,0-1.6-.5-2.3-.4-1.1,0-1.9.8-3.1.8-1.8,0-3.5-.2-5.3-.3a80.946,80.946,0,0,1-12-1c-7.6-1.4-12.6-5.9-18.1-11.1-2.3-2.2-4.9-4.4-7-6.8-.6-.7-1-1-.7-1.9.1-.4.8-.8,1-1.1a10.3,10.3,0,0,0,1.9-3.4c.6-1.9-.9-6.1-3.6-5.3-1.8.6-2,3.4-3.8,4.1-1.6.6-1.9-.6-2.2-1.8-.4-1.6-.5-2.8-1.7-4-1.1-1.2-2.5-1.6-2.6-3.5,0-.7.3-1.3.3-2-.1-.7-.9-1.6-.8-2.3.2-1.4,3.1-2.2,4.2-2.9a21.044,21.044,0,0,0,4.2-3.7,48.62,48.62,0,0,0,7.1-10.9c3.3-6.5,6.1-13.9,5.3-21.3a14.921,14.921,0,0,0-2.9-7.9c-2.9-3.4-6.8-2.7-10.8-2.7,3.2-6,7.7-14.9,3.2-21.4-3.6-5.3-10.8-2.4-15.7-1.1,1-4.9,2.4-9.9,1.4-14.9-.6-3.2-2.1-7.3-5.4-8.6-3.7-1.6-8.3.7-11.4,2.8a38.564,38.564,0,0,0-9.5,9.4c-1.3,1.7-4.1,7-6.2,3.3-.7-1.2-.8-2.7-1.3-4a26.171,26.171,0,0,0-3.5-6.1c-1-1.3-.7-2.7-1.5-4.1-.5-.9-1.2-1.5-1.7-2.4a14.249,14.249,0,0,1-1.1-3.5c-.6-2.1-1.9-3.7-3-5.5-1.2-2.2-1.1-4.6-2-6.9-2-5.4-5-10.6-7.4-15.8-2-4.4-4.1-8.8-8.2-11.6-1.1,3.2-.9,5.1.2,8.2,1,3.1,2.1,6.3,3.2,9.3,2.2,5.9,4.9,11.5,7.5,17.2,2.6,5.8,4.8,11.7,7.3,17.5,1.2,2.8,2.5,5.6,3.8,8.4.9,2,3.3,5.4,2,7.6a15.841,15.841,0,0,1-2.2,2.3c-.9,1.1-1.7,2.3-2.5,3.5-1.6,2.4-3.4,4.6-5.1,7-3.5,4.9-6.7,10.2-10,15.3-6.5,10.3-9.8,23.1-8.3,35.2.8,6.4.7,12.8,1.6,19.2a132.682,132.682,0,0,0,4.1,18.7c1.6,5.6,5,10.9,4.7,16.8a56.34,56.34,0,0,0,.5,14.2,22.859,22.859,0,0,0,1.8,5.6,13.788,13.788,0,0,0,1.7,2.5c.7.8,2,1.4,2.6,2.2.4.5.3,1.4.5,2a13.069,13.069,0,0,0,1.2,2.7,49.531,49.531,0,0,0,5.2,7.7c3.7,4.1,7.4,8.5,11.5,12.3,4.2,3.9,8.3,8.1,12.7,11.7a20.379,20.379,0,0,0,3.9,2.6,8.178,8.178,0,0,0,1.9.9c.4.1,1-.1,1.4,0,1,.3.1.1,1,1a7.692,7.692,0,0,0,2.7,1.4c5.7,2.9,10.8,6.5,16.9,8.6,6.7,2.3,13.4,4.8,20.4,5.9,3.1.5,10.4-1.2,11.1,3.2,2.1-2.1,4.6-.4,6.9.2,0-.6-.4-2.2,0-2.7.6-.6,3.1,0,3.6.4,1.2.9,1.6,2.8,2.1,4.1.9,2.2,1.9,4.3,2.9,6.4l11.4,25.2c7.7,16.8,15,33.7,22.3,50.6,1.7,3.9,3.3,7.9,4.9,11.9,1.5,3.6,3.6,6.9,5.3,10.4,1.9,3.9,3.2,8.1,5,12,1.9,4.1,3.7,8.1,5.5,12.2,7.5,16.6,14.7,33.3,21.9,50.1,8.2,19,16.6,37.9,25,56.8-9,2-18,4.3-27.1,5.6-4.3.6-8.6.5-12.9,1.3a35.224,35.224,0,0,1-6.4.9c-2.2-.1-4.4,0-6.6,0a148.907,148.907,0,0,1-26.7-1.1c-3.5-.5-7.4-1.6-10.8.2-2.9,1.6-3.8,4.6-4.3,7.7-5.8-1.4-10.8-5-16.5-6.7-5.4-1.6-11.6-2.1-17-.2a61.8,61.8,0,0,0-16,8.1c-4.8,3.6-8.2,8.6-11.1,13.7-3.3,5.7-6.2,11.6-9.4,17.3-3.3,5.9-6.7,11.7-9.5,17.9a193.852,193.852,0,0,0-13.1,38.7c-1.1,5-1.8,10.4,1.6,14.8,3.5,4.5,9.1,4.5,14.1,2.9a46.323,46.323,0,0,0,7.8-3.7,38.261,38.261,0,0,0,7-4.2c4.6-3.9,9.7-7.3,14.4-11.1,8.8-7.3,18.6-12.8,25.8-21.8,3.6-4.6,8.3-8.9,10.9-14.2.8-1.7,1.3-5.1-1.5-5.2-1.8,0-3.4,2.2-4.5,3.3a128.2,128.2,0,0,1-16.4,14.8c-2.8,2.1-5.8,3.9-8.7,5.7-2.9,1.9-5.5,4.1-8.3,6.1-2.7,2-5.7,3.6-8.3,5.8a79.3,79.3,0,0,1-8.3,6c-5.8,3.7-11.8,7.5-18.5,9.6,0-4.6,2.5-8.3,4-12.5,1.5-4.3,2.8-8.5,4.7-12.8,2-4.5,4-9.1,6.2-13.6,2-4.2,4.6-8.1,6.6-12.4,1.8-3.8,4.5-7,6.1-10.9.8-2,2.2-3.7,3.3-5.6,1.2-2.1,2.2-4.2,3.4-6.3,4.6-8,11-13.4,19.3-17.5a33.1,33.1,0,0,1,14.4-3.7c5.7-.2,11.4,1.5,17.1,1.5-.2,3.6.3,7.8-.9,11.3-.4,1.2-1.1,1.9-.9,3.1.1.5.7,1,.9,1.7a9.467,9.467,0,0,1-.2,2.9,238.179,238.179,0,0,0,.2,23.9c.1,2.6.1,6.1,2.8,7.6,1.1.6,1.3.3,2.4-.1,1.6-.6,2.5-.2,4,.5,1,.4,1.9.9,2.9,1.3.5.2,1.5.4,1.7,1,.1.3-.1,1,0,1.1.6.9.3.5,1.6.4,1.8-.2,2.8.5,4.3,1.4,13.3,7.8,29,8.6,44,10.3,7.9.9,15.6,2.3,23.6,2.4a236.618,236.618,0,0,0,23.8-.5c3.5-.3,7-.9,10.4-1.4,1.2-.2,5.8-2,4.4,1-.6,1.3-2.4,2.1-3.4,3-1.1,1-1.9,2.4-3.2,3.3a52.226,52.226,0,0,0-4.8,3.4c-5.4,4.8-10.3,9.9-16,14.3-2.3,1.8-5,3.7-6.5,6.3s-1.5,6-1.2,8.8c.3,3.2,1.7,6,3,9,1.6,3.7,2.7,7.5,4,11.3,1.3,3.6,2.6,7.1,4,10.6.9,2.2,1.8,5.3,3.6,7.1a2.855,2.855,0,0,0,3.1,1c1.1-.5,1.2-1.8,2-2.6,1.2-1.1,1.9-.3,3.3,0,2,.4,2.7-.5,4.4-1.1,1.2-.4,2.5.1,3.7-.5,1.1-.5,1.9-1.6,2.9-2.2,2.9-1.6,7.4-1.5,10.6-2,15.9-2.8,31.4-7.5,47-11.3,7.8-1.9,15.7-3.6,23.5-5.6,3.6-1,7.3-2,10.9-3.1,1.9-.6,3.9-1.1,5.8-1.9,1.7-.7,3.2-1.7,5.1-1.9,3.6-.5,6.7-1.9,10.3-2.8,3.8-.9,7.4-2.6,11.1-3.7,3.8-1.1,7.7-1.9,11.5-3,3.9-1.1,7.7-2.6,11.5-3.7,7.5-2.2,15.3-3.3,22.7-6.2a25.423,25.423,0,0,1,4.6-1.7c2-.4,3.9-.4,5.8-.9,3.9-1.1,7.7-2.6,11.6-3.6,7.5-1.9,15-3.7,22.4-5.6,7.1-1.9,14.3-2.7,21.5-4.2,7.8-1.7,15.6-3.4,23.3-5.2,3.5-.8,7-1.8,10.6-2.3,3.8-.5,7.2-2.2,10.9-2.7,15-2.1,29.8-4.5,44.5-7.9,7.7-1.8,15.4-3.6,23.2-5.2,3.5-.8,7.4-1.2,10.7-2.5,3.5-1.4,7-1.7,10.6-2.8,7.5-2.2,15.4-3.2,23-5.1,7.5-1.8,15.2-3.1,22.6-5.2,1.4-.4,3.7-1.8,5.1-1.3,1.1.3,1.3,1.6,2.2,2.2,2.4,1.6,4.9-1.5,6.4-3,2.2-2.2,4.4-3,6.9-4.5,3.1-1.9,6.1-5.1,8.5-7.8,10-11.2,23.7-17.7,34.5-28.1a190.4,190.4,0,0,0,15.5-16.9c2.3-2.7,4.8-5.3,7.3-7.8,1.4-1.4,2.8-2.7,4.2-4.1.9-.9,2.3-3.1,3.5-3.4,1.1-.3,2.4.8,3.7.5a4.333,4.333,0,0,0,2.6-2c2.2-3,2.8-6.6,1.2-9Z" fill-rule="evenodd"/><path id="Fill-18" d="M656.957,377.341c-.1,0,0,.1,0,0h0" fill-rule="evenodd"/><path id="Fill-20" d="M481.557,534.041c-.1,0-.1.1,0,0-.1.1-.1,0,0,0" fill-rule="evenodd"/><path id="Fill-22" d="M422.557,212.741c.8-.1,1.7-.2,2.5-.3-1.3-1-1.5-.5-2.5.3" fill-rule="evenodd"/><path id="Fill-24" d="M161.657,393.241c-.4.1-.7.1-1.1.2.6.9.6.5,1.1-.2" fill-rule="evenodd"/><path id="Fill-26" d="M325.057,338.441a13.222,13.222,0,0,0-2.5,2.8c1.2-.2,2.4-.5,3.6-.7-5.5,9.9-9.1,20.7-12.5,31.5-5.2-4.9-10.2-10-15.1-15.1-1.6-1.7-4.4-3.6-5.4-5.7-.4-1-.3-1.6-1.1-2.3-1-.9-2.9-1.3-4.1-1.8,12-4.4,24.7-6.1,37.1-8.7m-43.7,10.4c1.4-.4,3.2-1.7,4.7-1.5,1.7.2,1.9,2.2,2.9,3.4,3.1,4.2,7.4,7.9,11,11.6,3.7,3.7,7.3,7.7,11.2,11.2,1,.9,2.8,3.1,4.1,2.1,1.5-1.1,2.2-5.2,2.9-6.9,1.8-5,3.4-10.1,5.5-15,2.2-4.9,4.6-9.8,7-14.7.6-1.3,1.9-3.1.9-4.5-1.2-1.7-3.8-.5-5.4,0-5.2,1.5-10.7,2.4-16,3.4a160.636,160.636,0,0,0-17.2,4.5c-2.7.9-5.4,1.7-8.1,2.6-2.2.8-4.9,1.5-6.3,3.5a3.471,3.471,0,0,0,2.8.3" fill-rule="evenodd"/><path id="Fill-28" d="M354.157,327.241a118.988,118.988,0,0,1,22.9-5.3,116.308,116.308,0,0,1,11.8-.4c2.8,0,6.9-.2,4.5-4-1.7-2.7-5.3-4.6-7.7-6.7a28.3,28.3,0,0,1-5.8-7.9c-1.9-3.3-3.9-6.6-5.7-10-1.4-2.5-2.4-6.1-5.2-7.5,2.1,7,6.2,13.2,9.9,19.4,1.7,2.8,3.4,5.9,5.9,8.1,2,1.7,5.3,2.8,6.2,5.6a145.474,145.474,0,0,0-21.9,1.2c-6.1.9-12.5,4.7-18.7,4.2,3.7-8.4,8-16.5,12-24.8a45.978,45.978,0,0,0,3.8-9.5c.7-3.1-1-1.8-2,.2-3.6,7.1-7.3,14.2-11,21.3-1,1.9-2,3.9-2.9,5.9-.8,1.9-2.1,4-2.2,6.2-.1,3.6,3.1,5,6.1,4" fill-rule="evenodd"/><path id="Fill-30" d="M240.257,410.041c7.1-1.9,14-4.7,21.2-6.2,6.6-1.3,14.1-.7,20.3-3.4-2.1-3.9-6.4-4.8-9.5-7.8-3.4-3.2-6.3-7.2-9.3-10.9-3.1-3.8-5.5-8-8.4-11.9-1.6-2.2-4.6-6.7-7.7-6.5a1.927,1.927,0,0,0-1.5,3.2c.9,1,2.8.8,4,1.4,3.5,1.8,5.3,6.6,7.5,9.7,2.9,4,6.1,7.8,9.2,11.6a57.29,57.29,0,0,0,11.7,10.3c-13.6.2-26.7,4-39.5,8.2,2.2-6.6,3.3-13.5,4.3-20.4.5-3.4.9-6.8,1.3-10.3.3-3,.9-6.5.2-9.5-2,3.4-2,7.7-2.4,11.5-.5,4.6-1,9.3-1.8,13.8-.8,4.3-2.2,8.5-3,12.9-.6,2.5,0,5.2,3.4,4.3" fill-rule="evenodd"/><path id="Fill-32" d="M476.257,433.241c1.1,6,.9,12.1,2.2,18.1.6,2.9,1.3,5.8,2,8.7.5,2.1,1.6,5.2.7,7.3-1.4,3.7-8.1-3.8-9.6-5-5-3.9-9.9-7.9-14.8-11.8,6.5-5.7,13-11.5,19.5-17.3m-22.1,18.9c6.6,5.8,14.2,10.4,20.5,16.4,2,1.9,5.7,6.4,8.2,3.1,2.3-3.1.7-8.6,0-11.9a118.963,118.963,0,0,1-2.2-13.3l-.6-6.9c-.2-2.2-.7-4.5-.7-6.8a3.778,3.778,0,0,1,.4-2.1c.4-.6,1.2-.7,1.5-1.2.9-1.5-.7-1.7-1.9-1.7a3.113,3.113,0,0,0-3.1,1.5,23.424,23.424,0,0,1-4,3.7c-4,3.1-8,6.1-11.8,9.4-2.1,1.9-9.7,6.8-6.3,9.8" fill-rule="evenodd"/><path id="Fill-34" d="M446.557,358.841a70.394,70.394,0,0,0,4.6,24.4c-8.8-1.8-16.6-6.3-24.2-10.8,6.5-4.6,13.1-9.1,19.6-13.6m-20.4,17.1c4,2.3,7.9,4.9,12.1,6.8,3.6,1.6,7.6,2.2,11.3,3.5,2.1.8,6.5,2.9,5.3-1.3a34.889,34.889,0,0,0-2-4.4,40.386,40.386,0,0,1-2.2-6.7,73.147,73.147,0,0,1-1.5-14c-.1-3.6,2.6-5.8,6.1-6.7,1.1-.3,3.7-1.3,1.3-2.5-1.3-.7-3.3.5-4.4,1-3.9,1.9-7.3,4.5-10.9,6.9-4.5,3-9.1,5.8-13.6,8.8-1.4.9-3.3,1.9-3.8,3.7a4.144,4.144,0,0,0,2.3,4.9" fill-rule="evenodd"/><path id="Fill-36" d="M271.957,438.541c-6.4-2.2-13-3.3-19.6-4.5a115.946,115.946,0,0,1,15.5-16.6c4.5,7.9,8.9,15.9,11.6,24.6-2.6-1.1-4.9-2.6-7.5-3.5m7.9-.7c-1.6-3.8-3-7.7-4.9-11.4-.8-1.6-1.6-3.1-2.5-4.6-.6-.9-1.6-2-1.7-3-.2-1.2.4-1.3.1-2.5-.4-1.3-1.1-2.4-2.6-2.1-2.8.5-6.2,4.2-8.1,6.1a101.783,101.783,0,0,0-8.5,8.9c-2.6,3-2.9,6.3,1,8.3,3.2,1.7,7.3,1.7,10.8,2.2,4,.6,8,1.3,11.6,3.3,1.5.8,5.1,4.4,6.1,1.4.7-2.1-.6-4.9-1.3-6.6" fill-rule="evenodd"/><path id="Fill-38" d="M320.157,386.841c-4,8.4-7.8,16.8-11.2,25.5-1.5,3.9-3.1,7.8-4.4,11.9-.4,1.1-1.6,7.4,1.3,5a12.3,12.3,0,0,0,2.5-3.6c.7-1.7.1-3.3.7-5,1.5-4.1,3.2-8.1,4.7-12.2,1.6-4.1,3.1-8.2,4.7-12.3,1.3-3.4,4.3-7.4,3.3-11.2a10.629,10.629,0,0,0-1.6,1.9" fill-rule="evenodd"/><path id="Fill-40" d="M476.257,633.441c-.1,0-.2-.1-.3-.1a.367.367,0,0,0,.3.1m123.2-52.5c-21.3,1.1-42.2,6.6-62.9,11.5-20.8,5-41.5,10.9-61.9,17.7-10.1,3.4-20.1,7-30.2,10.4-8.5,2.9-18,5.8-25.4,11-2.1,1.5-5.6,4.8-2.4,7.1,2,1.4,5.9,1.8,8.3,1.9,2.3.1,4.6-.5,6.9-.5,2.8,0,5.6.2,8.5,0a119.291,119.291,0,0,0,15.7-2.5c5.6-1.2,11-2.7,16.7-3.3a22.8,22.8,0,0,0,5.7-1.5c2.2-.7,4.7-.6,6.9-1.4.9-.3,1.5-1.1,2.4-1.4,1.1-.4,2.3,0,3.5-.1,2.7-.2,5.5-1.1,8.2-1.6,2.9-.6,5.7-1.2,8.6-1.8,2.2-.5,4.5-.8,6.2-2.3-2.2-1.7-3.5-1.3-6.1-.6-2.9.8-5.9,1.4-8.9,2.1-6,1.4-12,2.9-18,4.2a310.236,310.236,0,0,1-36.9,5.6c-3.1.3-6.1.5-9.2.9-2.9.4-5.2.8-8.2.2-2.4-.5-4.5-.6-1.9-2.8.8-.7,1.8-1.1,2.6-1.7,1.1-.7,1.1-1.3,1.8-2.4,1.2-1.8,3.5-1.3,5.5-1.4,2.2-.1,4.1-1.5,6.3-2.1,2.4-.7,4.5-.9,6.7-2.2,1-.6.9-.4,1.9-.4a6.921,6.921,0,0,0,3.4-.9c2.3-1.1,3.9-2.1,6.5-2,1.4.1,1.9-.4,3.3-1.1a13.16,13.16,0,0,1,4.3-1.2,34.218,34.218,0,0,0,9.4-2.4c1.3-.6,2.5-1.4,3.9-2,.2-.1,2.4-.4,2.5-.5.2-.2-.2-1.3.7-1.4.8-.1,1.1.8,2,.7.4-.1.3-.6.6-.7a2.934,2.934,0,0,1,1.6-.4,12.645,12.645,0,0,0,6.5-1.7,20.211,20.211,0,0,1,3.2-1.1c1.2-.3,1.6-.9,2.6-1.4,1.7-.9,2,1.1,3.9.6a8.369,8.369,0,0,0,2.4-1.4,6.7,6.7,0,0,1,3.1-.7c2.3-.3,4.3-1.3,6.5-1.7.9-.2,1.7-.6,2.6-.8,1.2-.3,2.5,0,3.7-.4,2-.7,2.9-2.1,5-2.1,2.6,0,4.8-.9,7.3-1.8a37.413,37.413,0,0,1,8-2.6c2.6-.4,5.2-.3,7.8-.9a67.532,67.532,0,0,0,7.6-2.5,55.565,55.565,0,0,1,8.3-1.8c2.4-.4,5-.5,7.3-1.1,1-.3,1.9-.9,2.9-1.1a18.628,18.628,0,0,0,3.4-.7c1-.5,1.9-1.3,3.1-1.4,1.4-.2,2.7.1,4.2-.2a23.079,23.079,0,0,1,3.7-.3c1.1-.1,1.7-.7,2.9-1.1,2.5-.9,5.4-.4,8-.9s5.4-1,7.6-2.5c-2.7-2-6.9-1.3-10.2-1.1" fill-rule="evenodd"/><path id="Fill-42" d="M549.957,607.741c-8.3-.6-16.4.9-24.6,1.8-6.7.7-13.9.9-20,4.1,7.6-.5,15.2-.7,22.7-1.8,6.8-1,13.9-3.1,20.8-1.3-3.1,2.4-7.1,3.3-10.7,4.5-4.6,1.5-9.2,3.2-13.7,4.7,1.7,2.2,5.9-.3,8-.9,3.3-1,6.5-2,9.7-3.3,2.8-1.1,5.7-1.9,8.3-3.4,3-1.5,3.3-4.1-.5-4.4" fill-rule="evenodd"/><path id="Fill-44" d="M400.257,521.041c-1.1-2.3-4.2-3.8-5.8-5.8-2.3-2.9-4.6-5.8-7-8.7a56.574,56.574,0,0,1-6-8.5c-1.8-3.3-3-6.9-5-10.2a7.113,7.113,0,0,0-1.1,4c.2,1.3,1.3,2,2,3,1.8,2.6,2.8,5.8,4.6,8.5,3.9,5.7,8.7,10.9,13.1,16.2l-31.8,4.2c2.4-6.9,5.3-13.8,7.6-20.7,1.1-3.3,2-6.7,2.9-10.1.7-2.7,1.8-5.9-.2-8.3-1.2,4.2-2.1,8.6-3.6,12.7s-3.3,8.1-4.9,12.2c-1.6,4-8.4,17.1,0,17.8,3.5.3,7.4-.7,10.9-1.2,4.4-.7,8.7-1.4,13.1-2,1.5-.1,12.8.5,11.2-3.1" fill-rule="evenodd"/><path id="Fill-46" d="M331.157,546.641c-2.8-3.2-5.7-6.3-8.6-9.5-1.9,2-1.3,2.7.6,4.6,1.7,1.7,3.6,3.3,5.3,5.1s1.4,2.7-.4,4.2c-2,1.7-4.1,3.2-6.1,4.8-4.1,3.4-8.2,6.7-12.4,10-3.4,2.7-7.4,6.8-11.6,8.1-1.1-5.6-2.2-11.3-3.2-16.9-2,.5-2.4,1-2.1,3.1.4,2.7,1.3,5.3,1.8,7.9.4,2.3,1.4,4.8,1,7.1-.2,1-.9,1.9-.9,2.9,0,1.2.7,1.9,1.2,2.9a286.356,286.356,0,0,0,23.5-17.5c3.6-2.9,7.1-6,10.7-8.8,1.1-.9,2.7-1.7,3-3.2.4-1.5-.8-3.6-1.8-4.8" fill-rule="evenodd"/><path id="Fill-48" d="M355.957,458.641c-10,1.9-20.1,3.1-30.2,4.4,2.1,3.7,5.7,2.7,9.2,2.2,5.1-.7,10.3-1.3,15.5-1.7.4,9.1,1.2,18.2,1.2,27.3,0,2.3-.1,5.3-2.8,5.9-3.7.9-8.8-1.5-12.3-2.6.7,1.2-.4,2.4.9,3.5.8.7,2.2.8,3.1,1.1,3,1,6,2.3,9.2,1.7,4.7-1,4.1-6.5,4-10.2-.2-7.2-.9-14.4-.6-21.6.1-2.8,1.3-3.9,3.4-5.6.8-.6,1.7-1.2,1.8-2.3a2.023,2.023,0,0,0-2.4-2.1" fill-rule="evenodd"/><path id="Fill-50" d="M17.857,214.341c-.2.1-.1.1-.2.4.1,0,.2-.1.2-.4" fill-rule="evenodd"/><path id="Fill-52" d="M211.557,579.741c-1.9-1.1-2.6,1-3.4,2.3-1.5,2.6-3,5.1-4.5,7.6a20.883,20.883,0,0,1-1.5-7c-.1-1.2,0-5.2-2-4.1-1.8,1-.4,4-.2,5.4a43.378,43.378,0,0,0,1.4,7c1.7,4.9,4.6,1.8,6.4-1.1,1.4-2.3,3-4.4,4.3-6.7,1-1.5,1.3-2.3-.5-3.4" fill-rule="evenodd"/><path id="Fill-54" d="M236.957,619.441c-3.2,3.7-6.4,7.4-9.5,11.1,4.6-.2,6-2.7,8.8-5.7.9-1,2.3-2.7,3.7-2.9,1.1-.2.8-.3,1.6,1a22.688,22.688,0,0,0,1.8,2.5c.6.8,2.5,3.3,3.5,1.2.5-1-1.8-3.3-2.4-4.1-1.8-2.5-4.4-6.5-7.5-3.1" fill-rule="evenodd"/><path id="Fill-56" d="M336.957,142.341c1.3,5.4,6.4,1.4,8.3-1.1a29.088,29.088,0,0,0,5.2-12.4,9.559,9.559,0,0,0-.2-5.8c-.9-2-2.7-1.6-3.9-.1-1.5,1.8-2,4.6-2.9,6.8a45.737,45.737,0,0,1-3.5,7c-1.2-1.2-2.9-2.6-3.6-.3-.6,1.8.2,4.2.6,5.9" fill-rule="evenodd"/><path id="Fill-58" d="M328.557,131.141c2.4-.2,6.2-1.8,7.1-4.4,1.7-4.9-5.6-2.6-7.8-2.3.1-1.8,1.4-7.3-1-8.2-1.8-.7-2.8,3.1-3,4.3-.7,3.6-.4,11.1,4.7,10.6" fill-rule="evenodd"/><path id="Fill-60" d="M318.757,141.341c0,1.7,2.9,9.9,5.7,6.6,1.2-1.5-.2-2.6-1.1-3.7-1.4-1.8-2-4-3.3-5.9-.4.9-1.3,2.1-1.3,3" fill-rule="evenodd"/><path id="Fill-62" d="M431.357,218.841c-.9,1-1.8,1.9-1.1,3.3.3.6,1.5,2.1,2.4,1.9.8-.2.7-1.4.6-2-.4-1.3-1.7-1.6-1-3.1a2.769,2.769,0,0,0-.9-.1" fill-rule="evenodd"/><path id="Fill-64" d="M279.257,211.341c0,.2.1.3.2.5,1.1-1-.1-1-.2-.5" fill-rule="evenodd"/><path id="Fill-66" d="M84.957,297.041c-.1-.2-.2-.3-.3-.5a.563.563,0,0,0,0,.9,1.38,1.38,0,0,0,.3-.4" fill-rule="evenodd"/></g></g></svg>