<svg id="Layer_1" data-name="Layer 1" xmlns="http://www.w3.org/2000/svg" viewBox="0 0 865.234 674.13"><title>1</title><g id="Character_rolling" data-name="Character/rolling"><path id="Accent" d="M288.157,208.61c8.5,21.8,17,43.5,25.6,65.3,3.2,8.1,1.3,17.8,1.6,26.3.6,17.4,1.4,34.7,9.9,50.2,8,14.5,17.8,28.1,27.9,41.2,13.6-19.4,34.8-34.5,55.1-46,14-7.9,29.3-14.9,45.4-17.2,5-.7,10.5-1.2,15.5.1a137.082,137.082,0,0,1-.2-23.1c.9-12,4-20.2,13.2-28.2a146.982,146.982,0,0,1,14.7-11.3c1.8-1.2,7.2-3.5,8.3-5.4,1-1.7.1-6.6.2-8.6a93.272,93.272,0,0,1,3.6-21c3.9-12.8,10.9-24.7,15.2-37.4-6.5-.9-12.9-1.8-19.4-2.8-4.4-.6-7.3-2.5-10.1.7-9.7,11.1-18,23.9-26.9,35.6-5.9,7.8-11.6,15.6-18.2,22.7-10.6,11.4-29.7,29.9-45.3,15.5-8-7.4-9.3-20-9.4-30.3-.2-13.9,1.9-27.8,4.3-41.5-23.7-2.3-48,1.6-71.2,6-13.4,2.7-26.7,5.7-39.8,9.2" fill="#34558b" fill-rule="evenodd"/><g id="Ink"><path id="ink-shape" d="M419.757,126.11c-17.4,0-25,23-4,22.8,16.4-.1,25-22.8,4-22.8Zm-6.7,27.3c-26.1,0-16.6-31.5,6.8-31.6,28.8-.1,16.1,31.6-6.8,31.6Zm284.6,405.1a310.023,310.023,0,0,0-31.6,7.8c-6.3,2-13.5,7.9-16.9-.7-1.4-3.5-2-7.3-3.7-10.7a63.661,63.661,0,0,0-7.3-11c-6.3-7.8-12.8-16.1-19.9-23.1-13.8-13.7-26.8-28.7-43.5-38.6-4.3-2.5-7.9-6.6-12-9.5-4.5-3.1-8.9-6.3-13.5-9.2-9.4-6.1-18.9-11.9-28.6-17.5,4.9-5.9,11.6-9.9,17.9-14.2,6.7-4.6,13.3-9.4,19.8-14.1,2.9-2.1,4.3-2.6,7.5-.8,3,1.6,5.9,3.7,8.7,5.5a92.6,92.6,0,0,1,18.7,16.1c11.9,13.3,25.9,24.1,39.1,36,13.5,12.1,26.9,24.8,38.3,38.8a286.356,286.356,0,0,1,17.5,23.5c2.8,4.3,5.2,8.8,7.6,13.3.8,1.7,5.8,7.6,1.9,8.4Zm-183.6-124.2c-.3.8-1.1,1.5-1.9.9-.2-.2.4-3.8.5-4.3.3-3.2.3-6.3.3-9.5-.1-6-.6-11.9-1-17.9-.8-12.1-.9-24.2-2.3-36.2,3,1.5,7.1,3.6,9.2,6.4,1.7,2.2,1.5,4.2,1.5,6.9.1,8.3,1.4,16.5,2,24.8a47.135,47.135,0,0,0,1.3,9.9c.7,2.7,2.4,5.8,1.7,8.7-1.4,4.9-7.8,7.3-11.3,10.3Zm16.5-51.8c3.6,2.5,7.8,3.9,8.5,8.7.7,4.7-.3,8.9,1.3,13.5,1,2.7,3,6,1.3,8.7-1.7,2.8-6.1,4.2-8.7,6.1-.5-6-.1-12.1-.5-18.2-.4-6.2-1.9-12.4-1.9-18.8Zm18,13.9c3.2,2.5,6.3,5.1,9.5,7.6-3.2,1.7-6.3,3.4-9.5,5.2Zm-46.9,48.6c-2.3,1.9-6.3-.3-8.3-1.7-3.1-2.1-3.7-4.1-3.4-7.8.7-9.2-.9-18-2.5-27.1-3.4-20.3-6.2-40.8-7.8-61.4,5.9,2.8,13.7,6,17.4,11.8,2.4,3.7,1.7,8.4,1.6,12.7-.2,5.7-.6,11.5-.6,17.2,0,11.3,1.3,22.6,1.6,33.9.1,4.7.1,9.6,2.4,13.9.5,1,3.2,3.8,3.2,4.6.2,1.5-2.5,3-3.6,3.9Zm-28.7-13.9c-7.5-3.9-8.5-13.9-10.2-21.3-2.5-10.2-4.8-20.7-6.3-31.1-1.4-10.3-1.1-20.7-2.8-30.9-.4-2.2-2.6-7.2-1.6-9.5,1.2-2.8,5.6-2.8,8.2-3.2,2.3-.4,6.6-2.8,8.1-.8,1.2,1.7,0,5.6-.2,7.5-1.3,8.6,0,17.3,1,25.9,2.5,22,4.6,44,8.3,65.8-1.6-.9-3-1.7-4.5-2.4Zm-12.8,22.3c-.2-3.9-.4-7.8-.7-11.7,2.3.9,4.6,1.7,6.8,2.6-1.7,3.2-3.3,6.6-6.1,9.1Zm-8,9.7c-2.1,2.2-4,5.1-7,6.3v-31.5c2.5.4,5.3-.3,6.3,2.4.8,2.1-.3,5.3,0,7.6.6,3.9,3.9,12,.7,15.2Zm-14.6-46.3c-2.2-17.6-2.8-35.4-5.7-52.9a115.508,115.508,0,0,0-2.4-11.7c-.6-2.5-1.9-5.5-.3-7.8,2.4-3.6,9.3-3.5,13.1-4.3-.5,27.6.8,55.8,10.5,81.9-3.2-.4-14.7-.9-15.2-5.2Zm-1.2,60.4c-4.1,3-7.8,7.2-12.8,8.6-.3-12.5-.5-25.1-1-37.6-.1-2.9-.2-5.9-.5-8.8-.1-1.2-1-3.8-.4-5,1.5-3.2,7.1-1,9.4.4,3.2,2,2.8,5.2,2.8,8.7-.1,4.5,0,8.8.3,13.2a113.224,113.224,0,0,0,1.4,11.7c.3,1.5,2.2,7.8.8,8.8Zm-19.6,13.6c-5,2.7-6.8-2.5-9.1-5.9-1.6-2.3-4-4.6-4.7-7.4-.6-2.9.8-5.8,1-8.6.6-6.8-1.6-13.8-2.5-20.5a175.836,175.836,0,0,1-1.3-22.9c3.7,1.7,10.5,1.8,11.8,6.4.6,2-.2,4.7-.3,6.8-.2,3.5-.1,7.1-.1,10.6-.2,14,.4,27.6,8.2,39.8-1,.5-2,1.1-3,1.7Zm-15.9,8.5c-8.4,3.6-16.5,8.1-25.3,10.4-8.9,2.3-17.9,4.5-26.9,6.3-18.8,3.8-38.1,6-57.3,5.4a218.258,218.258,0,0,1-27.9-3c-9.4-1.4-17.5-4.8-26.4-7.9-17.3-6.1-35-10-51.4-18.4-4-2-7.8-4.3-11.7-6.4-2.1-1.1-4.7-1.6-4.8-4.2-.1-2.7,2.8-7.8,4-10.2,1.8-3.8,4.6-6.8,7.5-9.9,4.8-5.2,9.3-12.9,15.2-16.9,3.2-2.2,4.5-.9,7.4,1.1,3.7,2.6,8.2,4.4,12.3,6.2,17.1,7.3,36.6,11.7,55.1,13.8,18.2,2.1,36.1,4.2,54.2-.1,10.2-2.4,19.8-6.6,29.5-10.6,3.2-1.3,6.8-4.3,9.7-2,3.1,2.5,5,7.6,7.5,10.7,6.1,7.5,13.7,13.3,19.8,20.7,1.4,1.8,13.8,13.1,9.5,15Zm-240.5-35.8c-2.7,4-5.2,8.3-5.9,13.2-5.2-4.2-8.8-5.6-4.6-12.2,3.9-6.2,7.4-12.5,11-18.9,1.5-2.6,3.6-5.7,3.1-8.8a4.563,4.563,0,0,0-6.9-3.6c-2.2,1.2-3.9,4.2-5.4,6.2-2.6,3.5-4.9,7.3-7.2,11.1-1.7,2.8-3.2,7.4-5.6,9.5-1.6,1.5-3.5,1.5-4-1.3-.4-2.5,3.4-7,4.5-9,1.8-3.3,3.8-6.5,5.3-10,1.5-3.6,2.5-15.5-4.7-9.6-2.5,2-4.5,6-6.4,8.6-2.9,4-5.5,8.1-8,12.3-4.4-2.9-8.5-7.5-13.8-8.8-5-1.2-9.5,3.4-13.8,5.4-6.7,3.3-12.9,7.2-19.3,11-5.7,3.4-11.7,6.1-17.2,9.7-9.7,6.3-21.4,14.6-33.5,10.8-4.8-1.5-10.1-4.5-12.7-9-3.5-6-2.6-14-4.9-20.6,6.4,3.6,13.2-.5,18.9-3.6a204.62,204.62,0,0,1,19.6-9.1c13.8-5.7,28.1-10.7,41.6-16.9,26.5-12.1,48.9-31.5,75.5-43.3a125.261,125.261,0,0,0,30.3,48.3c-13.1,11.9-26,24-35.9,38.6Zm209.4-72.2c-3.5-1.7-7.9-2-5.4-6.7,1.7-3.3,5.6-5.6,8-8.4l3,17.9c-1.9-.9-3.7-1.9-5.6-2.8Zm20.1,9.8c-.5-8.9-1.6-18.1-4.9-26.4-1-2.4-2.6-5.3-1.2-7.9s5.5-4,8.1-5.1c1.9,15.2,2.9,30.6,7.4,45.3-3.3-.9-9.2-1.3-9.4-5.9Zm2.8,61.1a2.2,2.2,0,0,0,.1.8c-3.4-1.7-7.2-4.3-9-7.8-1.9-3.7-.9-7.9-.8-11.8a68.1,68.1,0,0,0-1.6-13.4c-.9-5-.4-9.7,0-14.7,2.7,1.9,6.9,3.2,8.7,6.1,1.9,3.1.8,7.1.4,10.5a79.385,79.385,0,0,0,2.2,30.3Zm32-46.2c-6.6-.9-10.1-2.3-11.3-9.1-1.4-8.4-2.9-16.8-4.1-25.2-1.1-7.9-4.8-16-5.1-23.8-.3-5.5,9-7.5,13.2-9.5,2.2,22.5,3.3,45.2,7.3,67.6Zm-67.4-36.6c-.7,1.7-1.3,3.4-2,5.1-4.7-6.9-9.2-13.7-14.7-20-5-5.9-9.2-11.9-11.8-19.2-2.8-8-5.3-16.4-6.2-24.8-.8-8.5-.1-17.2.1-25.7.1-4.9,2.9-17.4-1-21.4-1.4-1.5-3.7-1-5.3-2.3-2.2-1.9-2.9-5.7-3.8-8.3-5.7-16.2-10.8-33-19.3-48.1,11.3-4.8,24-7.3,35.9-10.2a246.388,246.388,0,0,1,38.3-6.1c6.2-.5,12.4-.7,18.6-.7,5,0,10.1-.8,8.4,5.6-2.6,9.7-4.4,19.6-4.3,29.7.2,14.7,3.9,34.2,18.9,40.9,23.4,10.4,41.8-14.7,53.7-30.6a382.729,382.729,0,0,0,23.6-34.1c2.4-3.9,4.4-9.9,8.9-11.9,5.6-2.4,13.6-.7,19.5-.7-.4,7.1-.9,13.1-4,19.6a133.647,133.647,0,0,0-7.4,19.4,111.706,111.706,0,0,0-3.6,19c-.7,5.8-6.7,3.8-10.9,5.4-10,3.9-15.4,15.8-19.4,24.9-2.5,5.8-5.1,11.8-6.2,18.2-1.3,7.6-.4,15.3-.1,22.9-1.7.4-3.6-1-5.2-1.4a24.954,24.954,0,0,0-7.7-.4,118.306,118.306,0,0,0-16.7,2.6c-11.8,2.7-22.9,7.5-33.5,13.1-17.2,9.1-34.8,21-42.8,39.5Zm-57.9-116.3c-17.6,6.1-35.5,11.7-53.9,15-9,1.6-18.1,1.3-27.2,1a58.875,58.875,0,0,1-11.9-1.7c-3.1-.7-8.3-2.3-11.1-.4-1.7-5.5-10.5-5.6-15.1-6.5-3.7-.7-6.9-2.6-10.6-3.5a12.439,12.439,0,0,1-3.9-1c-1.2-.7-1.8-2.2-3-2.7-1.7-.8-3.8-.9-5.1-2.1-3-2.8-6.3-5.2-9.2-8.1-3-2.8-4.4-6.5-6.4-10-2.4-4.1-6-8.2-7.8-12.6.8.5,1.5,1.1,2.3,1.6-.4-5.2-1.8-9.7-1.5-15a30.719,30.719,0,0,0-.4-6.8,34.876,34.876,0,0,1,0-5.6c.1-5.7,2-10.9,2.9-16.5a35.534,35.534,0,0,0,.5-5.7c.1-1.7-1-3.9-.8-5.7a8.008,8.008,0,0,1,2.1,1.5c-1.8-4.3,3.9-9.4,4.5-13.5.9-6.2-4.9-7.7-9.9-7-6.7,1-12.8,4.9-18.8,7.8-8.2,4-16.3,7.9-24.3,12.2-9.4,5-17.6,11.7-26.9,16.8-1.2.6-5.5,3.5-6.3,1.1-.7-2.1,4.1-5.8,5.3-6.9a177.163,177.163,0,0,1,19.5-15c4.7-3.2,9.5-6,14.3-9,5.1-3.2,12.3-6.9,14.3-13.1,1.7-5.1-.3-9.7-6-8.2-7.4,1.9-14.8,7.1-21.7,10.5-6.8,3.5-13.7,6.7-20.5,10.2-1.5.8-7.3,4.9-6.3,1.6.8-2.6,5.3-5.8,7.3-7.6a106.423,106.423,0,0,1,9.1-7.5,219.905,219.905,0,0,1,20.9-13.6c4.4-2.6,9.2-5.3,9.4-11,.4-9.8-8.5-4.6-13.7-2.7-6.9,2.6-14,4.5-20.9,7-6.3,2.3-12.6,4.9-19.4,5.7-3.4.4-8.5.6-7.7-4.2.9-5.1,8.2-8.7,12.2-11,6.9-3.9,13.9-5.4,21.5-7.1,8.3-1.9,16.5-3.9,24.9-5.3,17-2.9,33.3-4,50.5-2.4,7.9.7,15.9-.1,23.6.7,5.2.5,9.1,3.7,11.9,7.9,6.9,10.2,9.7,24,8.6,36-1.6,17.4-9.2,32-15.7,47.9-4.9,12-8.6,28.8,4.6,37,6.2,3.9,13.3,3.6,20.3,2.6a266.417,266.417,0,0,0,27.9-6c18.2-4.7,36.3-10.1,54.2-15.6,1.2,3.2,18.4,44.8,13.4,46.5Zm97.9-27.4c.7-9.3,1-18.5,2.6-27.7.5-3,.8-6.3,3.4-8.3s6.4-2,9.4-3.2c7.8-3.2,14.2-10.6,20.1-16.4a52.833,52.833,0,0,0,12.9-20.9c2.3-6.4,5.9-16.6,1.7-22.9-3.3-4.9-8.7-6.6-7-13.7,1.5-6.1,7.5-9.5,12.7-5.4,3.3,2.5,6.9,8.7,6.9.3,13.9,3.1,28.3-1.8,40.5-8.4,2.4-1.3,5.3-3.3,7.7-1.3,1.6,1.3,2.1,4,3.9,5.5,1.8,1.6,4.7,2.4,5.3,5,.4,2-.8,5.1-1.4,7-1.4,4.7-3.3,9.6-7,12.9-1.6,1.4-7.3,6.3-9.4,4.2-2.4-2.4,2.9-10.1-3.9-5.7-2.4,1.6-3.2,1.7-4.2,4.5a47.9,47.9,0,0,0-2.2,10.5c-2.6-.9-6.8-3.6-9.4-1.6-2.5,1.9-1.2,5.9.9,7.6s6.5,2,9,.9c4-1.8,4-6.3,4.9-9.9,2.3,1.6,3.8,4.5,7,4-9.9,11.7-22.8,19.8-38.3,19.8-7,0-9.6,2.7-11,9.5-1.5,7-1.5,14.6-1.5,21.6,0,5.7.2,11.6,2,17.2,1.2,3.7,3.4,7.2,4.9,1.2.8-3.2.2-6.9.2-10.2,0-2.1-.7-5.8.6-7.5,1.5-1.9,5-.8,7.1-.9,4.4,0,8.6-1.7,13-1.7-6.5,9.6-13.9,18.5-20.1,28.3-6.4,10-14.1,19.4-23.4,26.7-7.8,6.1-18.7,9.3-27.6,3.3-7.7-5.1-11-15.5-10.3-24.3Zm121-87.7c2.8,4-6.3,12-9.8,12,.9-1.5,8-14.5,9.8-12Zm6.2,55.4c1-3,6.9-2.7,9.4-2.8,5.3-.2,10.7-.2,16-.4,14.6-.4,29.1-1.5,43.7-1.3,15.1.2,30.2-1.2,45.3-.7a278.62,278.62,0,0,1,42.7,4.5c25.8,4.9,52.6,12,73.2,29.3,18.5,15.6,32.3,38.1,29.4,62.9-1.8,15.3-2.5,31.5-8.3,46-4.9,12.3-15.3,20-26,27.1-.1-3,7.7-22.1-.7-19.2-2.7.9-4.3,4.7-5.8,6.9-2.6,3.9-5.4,7.8-8.2,11.5-5.1,6.8-10.9,13.3-18.5,17.5-2.9,1.6-12.2,6.5-13.8,1.2-1.4-4.4,7.5-13.3,9.6-16.6,1.8-3,3.3-5.8,2.6-9.4-.3-1.4-1.1-2.6-1.4-4-.2-1.1,0-2.8-.5-3.8-3.3-6.7-6.9,4.9-8,7-3.7,7.3-12.2,12-18.8,16.2-8.2,5.2-16.4,10.8-25.9,13.3,6-10.2,12.1-20.4,17.5-31,5.1-9.8,8.3-21.2,14.2-30.3a30.264,30.264,0,0,0,2.5-5.1c.5-1.1,1.2-5.1,1.9-5.8.4-.4,2.4-.5,3.2-1.3a10.892,10.892,0,0,0,2.1-3.8c.6-1.5,2.9-6.7,2.3-8.4-.1-.4-1.8-.2-2.1-.9a4.973,4.973,0,0,1-.1-2.1c-.1-1.8,1.1-3.2-.3-4.9,6.8,0,.5-18.4-.7-21.7-1.3-3.7-3.5-6.4-4.5-10-1.2-4.4-4.6-8.3-7.6-11.6s-6.2-7.3-9.6-10.2c-3.5-3-8.3-4.7-12.3-7-1.8-1-3.7-2.4-5.8-2.8-.7.2-1.3.4-2,.6a6.524,6.524,0,0,1-2.1-1.6c-3.8-2-7.6-2.7-11.9-3.2a327.724,327.724,0,0,0-65.7-1.2,287.541,287.541,0,0,0-33.4,4.2c-11.4,2.3-22.5,5.1-34,6.8,2.7-11.5,8.4-22.4,12.4-33.9Zm61.8-146.5c2-.3,1.1,2.4.5,3.2a2.876,2.876,0,0,1-.5-3.2Zm276.6,567.8c-1.6-7.8-7.1-15.8-13.5-20.4-7.9-5.7-16.8-5.8-26-5.3-10.6.5-20.9,2.4-31.3,4.2-10.6,1.8-21,3.4-31.3,6.6-4.1,1.3-8.3,2.4-12.4,3.8-3,1.1-6.5,3.2-8.1-.8-2.8-7.2,7.9-10.3,12.1-13.4,2.3-1.7,5.4-4,2.5-6.6-3.4-3-9.2-.1-12.7,1.1-3.2,1.2-6.5,1.6-5.7-3.6.5-3.4,5-5.6,7.4-7.6,3-2.4,13.7-9.7,6.9-13.3-7.3-3.9-11.4,5.8-17.6,6.3-5.5.4-5.5-13.1-7-16.8-3.9-9.3-13.6.9-18-4.8-1.8-2.3-1.2-6.5-1.8-9.2-1.1-4.5-3.7-8.9-5.7-13a203.565,203.565,0,0,0-15.8-26.1,145.543,145.543,0,0,0-19.9-22.3c-7.5-6.9-14-14.7-21.4-21.8-14.7-14-31.5-25.5-46.6-39.1-3.5-3.1-6.8-6.4-10.8-8.8-3.7-2.2-9.9-3.4-12.8-6.6-1.9-2-1.6-4.9-2.5-7.5-1.6-4.3-5.4-7.2-8.6-10.2-15.1-13.9-31-27.7-48.7-38.1-8.6-5.1-17.4-11.4-26.6-15.2-3-1.2-7-1.7-9.5-4-2.6-2.4-3.1-6.5-4-9.7-6-19.8,6.4-40.4,21.5-52.7,2.7-2.2,6.6-4,8.3-7.1,1.9-3.4,2-7.7,4-11.1,3.7-6.3,13.9-5.5,20.4-6.9,38.8-8.7,84.9-12.1,123,1.8,16,5.8,29.7,15.6,35.8,31.9a61.653,61.653,0,0,1,4,23.2c-.3,8.8-3.5,16.9-6.4,25.1a280.089,280.089,0,0,1-12.1,28.9c-4.1,8.5-9.4,16.1-13.9,24.3-2.8,5.1-7.3,14.5-.8,18.7,5.2,3.4,13.4,1.4,18.5-1.1,7.6-3.7,13.3-10.3,19.9-15.3,0,5-4.4,9.4-2.4,14.5,2,5,7.4,4.4,11.7,3.1a76.42,76.42,0,0,0,14.5-6c5.7-3,9.8-7.7,14.6-11.8,8.5-7.3,19.7-9.7,28.8-16,9.4-6.5,15.8-16.4,19.8-26.9,4.6-12.2,6.4-25.4,8-38.3,1.6-12.8,2.3-25.4-1.9-37.7-8-23.5-24.4-42.1-46.3-53.7-46.3-24.6-98.6-23.6-149.5-22.2-13.9.4-27.9.6-41.8,1.5-6.4.4-12.8.9-19.2,1.8-1.9.3-6.3,1.7-8,.2-1.3-1.2-.6-3.8-1.8-5.3-2.9-3.5-9.3-2.6-13.1-2.1-4.8.6-10.5.7-14.9,3-4.2,2.3-5.6,7-10.8,7.1-5.8.1-11.8-1.3-17.6-1.5-4.6-.2-8.6-1.7-4.2-6.7,3.3-3.8,8.9-3.8,13.4-4.7,8.4-1.6,27.4-15.6,33.7-5.9,1.7,2.7,1.6,3.6,4.9,4.8a54.154,54.154,0,0,0,9.7,2.1c6,1,12.9,1.8,18.7-.3,9.1-3.2,11-13.4,13.1-21.7,9.7,5.1,24.3,7.5,33.9.8,8-5.7,10.9-17.5,10.6-26.8a25.315,25.315,0,0,0-1.5-8.2c-.9-2.4-3.4-4.9-3.3-7.6.1-2.3,2.3-4.4,3.3-6.3a26.753,26.753,0,0,0,2.5-9.6c1.1-11.9-7.8-18.6-17.1-24,5.4-6.5,11.5-12.9,11-22-.4-8.5-7.1-14.3-14-18.3-6.2-3.5-12.4-4.9-19.3-5.8-3-.4-4.2-.1-3.7-3.2.4-2.5,2.2-4.7,2.7-7.1,3.2-14.2-10.9-19.7-22.3-20.9-18.7-2-36.1,1.8-51.4,12.8-11.1-23.4-48.2-11.9-58.6,6.3a21.663,21.663,0,0,0-2.8,7.7c-.3,1.8.7,6.1-.2,7.5-1.8,2.7-8.8.1-11.3.3-4.5.2-9.4,2.6-13.1,5.1-15.5,10.8-14.7,33.1-11,49.5-9.9,1.3-20,9.6-20.2,20.2a27.212,27.212,0,0,0,4.9,15.6c3.2,4.4,9,7.3,9.6,13.2.6,6.1-.7,9.8,4.5,14.4a43.6,43.6,0,0,0,13.5,7.9c11.1,4,23.8,2.6,34.6-1.7-5.5,8.7-14.3,16.4-22.9,22-3.8,2.5-8.4,5.7-12.7,7.3-4.7,1.7-10.5-1.3-15.4-1.7-21.8-1.8-44.3,2.1-65.3,7.6-22.7,5.9-45.2,12.3-67.8,18.8-11.2,3.2-22.3,6.6-33.6,9.5-8.5,2.1-17.9,4-26.7,2.5-7.5-1.3-11.1-6.3-8.7-13.9,3.2-10,9.4-19.2,13.2-29,7.1-18.1,10.6-38.9,4.4-57.7-2.5-7.6-6.1-16.5-12.9-21.2-3.6-2.5-8.1-4-12.1-6a86.931,86.931,0,0,0-15.7-5.8c-21.7-5.8-44.5-3.1-66.1,1.4-19.5,4-49.9,9.7-58.6,30.6-3,7.2-4.1,19.3,3.3,24.2,6.4,4.3,16,1.5,22.2-1.7-6.1,7-13.6,13.6-16.5,22.6-1,3.2-1.8,7.6.3,10.5,3,4.3,8.1,1.8,12.2.8-4.8,6.1-11.6,15.9-6.7,23.7,5.4,8.7,16.2,2.9,22.9-.8,9.9-5.4,20.2-9.9,30.2-15.2a93.757,93.757,0,0,0,15.2-9.8c3.8-3.2,7.1-6.6,12.4-7-6.9,13.1-13.7,26.6-13.6,41.8.1,14.1,5.7,30.9,13.1,42.8,7.8,12.5,20.5,20.2,33.8,25.7,14.5,6,29.3,10.1,45.1,10.7,30.7,1.3,63.9-5.9,90.4-21.6,2-1.2,2.1-1.6,3.9-.2,2.4,1.7,4.3,8,5.8,10.7,4.5,7.7,3.2,14.2,2.4,22.7-1.5,15.1,1.8,30.3,6.5,44.5,4.6,14.2,12.3,25.5,21.9,36.9a51.659,51.659,0,0,0,14.7,12.4c6.3,3.5,11.8,6.6,14.2,13.9a20.142,20.142,0,0,1-1.1,16.8c-.7,1.5-2.2,5.9-3.5,7-1.3,1-1.6.1-2.8.4a8.272,8.272,0,0,0-4.6,2.6c-4.7,4.5-11.7,5.7-17.8,7.5-8.4,2.5-17,4.9-25.8,5.4-15.1.8-32.4.7-47-3.7-14.7-4.4-29.9-6.9-44-13.1-6.4-2.8-9.4-4.2-10.7-11.2-.7-3.7-1.8-4-4.9-5.1-3.6-1.2-5-2.9-7.1-6.2-3.8-5.8-7.3-11.7-10.8-17.7-4.4-7.5-9.9-14.3-14-21.9-2.5-4.5-4.3-12.5-10.8-12.7-3.8-.1-8,2.7-11.4,4.1-4.2,1.7-8.4,3.4-12.5,5.1-16,6.7-30.3,16.8-45,26-16,10.1-34.3,17.2-51.2,25.7a186.673,186.673,0,0,0-22.7,13.6c-4.7,3.3-13.8,6.9-13.1,13.4-2.3-1.3-5.2-3.5-7.4-.8-1.8,2.2-.6,6.1-.1,8.6,1.5,8.1,3.3,16.3,8.2,23.1,7.8,10.8,22.7,19.6,36.3,17.6,16.6-2.4,29.9-14.2,44.2-21.9,5.2-2.8,10.4-5.5,15.4-8.8,2.9-1.9,8-6.1,11.8-5.6,5.8.8,1,7.7-.6,10.3-1.7,2.8-3.1,5.8-4.6,8.8-1.7,3.3-4.5,7-5.5,10.6-.6,2.3-.3,5.7,2.5,6.3,2.9.6,5.3-3.1,6.8-5a100.076,100.076,0,0,0,6.4-9.6c1.4-2.2,3.1-6.3,5.4-7.7,6-3.5-.6,7.7-1.6,9.3-1.3,1.9-3.3,4.3-3.6,6.6-.5,3.5,2.4,6.9,6,6,2.8-.6,4.7-3.6,6.3-5.8,1-1.4,4.1-6.8,6.1-6.9,1.2,0,4.3,4.2,5.3,5.1a37.028,37.028,0,0,0,9.5,6.2c16,7.7,30.5,17.6,47.1,24.1a397.454,397.454,0,0,0,49.1,15c8.7,2.1,16.9,4.4,25.9,5.1,9.1.7,18.1.4,27.2.2,18.6-.4,36.2-4.2,54.1-9.2,31.8-8.8,61.6-23.1,86.2-45.4a171.487,171.487,0,0,0,17.5-18.7,83.73,83.73,0,0,0,6.8-8.9c1.3-2.1,2.6-5.7,4.9-6.9,3.6-1.8,12,4,15.3,5.6,3.6,1.8,7.2,4.1,11.2,5a29.788,29.788,0,0,1,4.3.9c1.4.5,3.1,2.1,4.8,1.7,6.1-1.3-3.9-13,5-7.1,14.3,9.5,27.6,20.8,41.1,31.4a121.756,121.756,0,0,0,10.4,7.3c3.4,2.2,6,5.1,9.2,7.5a230.044,230.044,0,0,1,20.1,16.6c6.4,5.9,12.5,12.1,19.2,17.6,6.6,5.4,11.7,11.6,17.3,18,5.4,6.2,9.5,13.4,13.3,20.7-3.2-1.1-5.9-3-7.7,1.2-1.1,2.7-.2,6.4.6,9.1,2.4,8.6,7.3,16.3,10.3,24.7,3.4,9.6,8.4,18.7,11.2,28.5,2.5,8.6,1.9,18.1,5.5,26.5,2.9,6.8,13.6,5.3,19.7,5.9,9.8,1,19.6,2.1,29.5,2.4,20.6.6,41.4,2.2,62,1.4,18.7-.7,37.4-1.9,56.1-3.5,5.1-.4,16.5-1.5,17.6-8.2.8-4.3-3.1-3.7-6-3.4-4.2.4-8.4.3-12.5.4-20,.3-39.6.6-59.5-.9-20.4-1.6-40.8-1.9-61.2-2.7-9.2-.3-18.1-.5-27.3-.1-2.7.1-6.1.5-7.6-2.2s-1.3-9-2-12c-2.4-10.4-7.7-19.7-11.3-29.7-3.6-10.1-7.2-20.2-11.8-29.9,14.8-2.6,29.5-5.5,44-9.1,5.9-1.5,12.2-2.4,17.9-4.4,6.4-2.2,6.5-1,7.7,5,1.1,5.2,2.3,9-2.5,12.4-5,3.6-11.1,5.8-15.5,10.1-4.1,3.9-3.3,9.5,3.3,8.7,6.5-.8,13.9-5.7,19.8-8.4.8,3.6,1.6,6.1-.7,9.2-2.4,3.3-6.2,5.3-8.9,8.3-2,2.2-4.2,5.4-.8,7.5,3.4,2.2,6.9-.7,9.4-2.6,1.9-1.5,5.2-4.8,7.7-2.9,2.7,1.9,1.3,6.8,2.9,9.4,2.7,4.4,4.5,1.1,7.2-.7,4.2-3,12.8-2.2,17.8-2.6,6-.5,11.9-1.6,17.9-2.3,7.1-.9,14.3-.9,21.4-1.9,10.9-1.6,22.9-6,33.9-3.2,17.1,4.4,25.4,22.7,22.7,39.2-.5,3.3-3.2,10.5-.1,13.2,2.8,2.6,4.9-2.1,5.9-4.3,5.2-11.7,3.7-25.3,1.1-37.6Z" fill-rule="evenodd"/><path id="ink-shape-2" data-name="ink-shape" d="M664.357,153.81c23.5-2.4,47.8,2.9,70.5,8.7,20.3,5.2,40.1,13.7,53.9,30.2,2.2,2.6,4.6,8.3,7.5,9.9,4.5,2.6,4-3.7,2.9-6.3-3.6-8.2-11.7-16.9-18.3-22.8-15.7-14.1-36.6-20.7-56.9-24.7a197.432,197.432,0,0,0-37.6-3.9,84.427,84.427,0,0,0-18.7,2.1c-1.9.4-4.8.8-5.8,2.9-1.2,2.3-.2,4.2,2.5,3.9" fill-rule="evenodd"/><path id="ink-shape-3" data-name="ink-shape" d="M112.657,296.91a44.055,44.055,0,0,0,23.8,12.9c4.7.9,12,2.2,16.3-.5,2.2-1.4,3.3-4,1.9-6.5-1.7-2.9-6-2.8-8.9-3.2-10.6-1.5-19.3-4.4-27.4-11.6-7.4-6.7-12.5-15.2-16-24.4-1.7-4.3-2.4-8.7-3.5-13.1-.6-2.5-2.3-8.4-5-4.1-4.3,6.7,1.2,20.3,3.7,26.8a73.546,73.546,0,0,0,15.1,23.7" fill-rule="evenodd"/><path id="ink-shape-4" data-name="ink-shape" d="M366.957,54.71c6-6.2,9-14.4,15.9-20.1,1.3-1.1,6.2-3.3,6.2-5.2-.1-2.5-3-2.1-4.5-1.6-7.4,2.5-21.5,19-17.6,26.9" fill-rule="evenodd"/><path id="ink-shape-5" data-name="ink-shape" d="M480.857,144.61c2.5-2,8.4-7.1,8-10.7-.4-3.4-3.1-2.5-5.3-1.2-.9.6-3.1,3-4.5,2.4s-.3-.4-.9-1.6c-.8-1.7.5-6.3-2.8-5-1.9.8-2.9,5.4-3,7.1-.2,4.5,2.8,13.7,8.5,9" fill-rule="evenodd"/><path id="ink-shape-6" data-name="ink-shape" d="M461.257,159.91c.4,2.6,4,7.5,7.1,4.9,2.4-2.1-.4-4.5-1.5-6.6-.7-1.3-1.6-6-3.6-5.9-3,.1-2.3,5.8-2,7.6" fill-rule="evenodd"/><path id="ink-shape-7" data-name="ink-shape" d="M450.457,129.61c.8-2.5-2-12.3-5.7-9.3-3,2.4.6,4.9,2,6.6.6.7,2.8,5.5,3.7,2.7" fill-rule="evenodd"/></g></g></svg>