<svg id="Layer_1" data-name="Layer 1" xmlns="http://www.w3.org/2000/svg" viewBox="0 0 900.3 734.366"><title>1</title><g id="Illustrations_groovy" data-name="Illustrations/groovy"><path id="Accent" d="M486.918,165.805c-1.7-6.8-3.3-13.2-11.7-9.9-6.4,2.5-9.5,6.5-10.1,13.3-.5,5.1.5,15.5,8.1,12.9,5-1.7,13.8-10.4,13.7-16.3m-33.6,26.9c1-6.8-4.5-22.7-13-15.3-3,2.6-5.5,4.7-8.6,7-3.7,2.7-3,4.3-3.2,9.1-.4,7.3.2,18.6,10.2,18.5,9.4-.2,15.5-11.1,14.6-19.3m-23.1-29.9c-2.1-9.5-6-22.7-14.5-28.3-11.2-7.4-15.2,14.7-15.2,21.2,0,9.4.3,23.1,11.2,27.5,10.3,4.3,17-13.7,18.5-20.4m76.2,2.8c-10.6,4.2-17.8,14.1-20.3,25.1-1.1,5.1-.1,12.9-3.4,17-4,4.9-10.2.7-14.8,3.7-10.5,7,.7,19.7,8.6,21.8,6.3,1.7,12.6,2.7,18.9,3.9,5.9,1.1,8.8,6.4,12.3,11.1-4.9-.8-9.7-2-14.6-2.8-2.1-.3-5.2-1.4-7.4-1.3-2.7.2-4.4,2-6.9,2.5-4.3.8-7.3-2-9,3.4a9.5,9.5,0,0,0,4.3,10.8c-3.2,3.1-10.5,4-14.7,5.2-6,1.9-12.2,3.1-17.8,6.2,0-9.8.1-17.6-4.7-26.6-2.3-4.4-6.8-16.6-11.5-18.5-1.4-.5-3.5-.2-5-.7-1.6-.5-2.4-1.8-4.2-1.9-3.2-.1-6.6,3.6-8.5,6-4.8,6.1-4.6,15.9-4.3,23.2.3,7.6,1.1,17.2,4.2,24.2.7,1.6,1.5,3.5,3,4.5,1.1.7,3.3.2,4.2,1,3.2,2.9-1.2,4.6-3.7,6.4-6.3,4.6-11.8,9.1-16.4,15.3-3.9,5.2-10,11.6-11,18.3-4.3-5.8-7.3-12.4-10.6-18.7-1.9-3.6-1.9-2.9.1-5.6a28.249,28.249,0,0,1,6.5-5.9c4.5-3.1,9.2-6.4,10.5-12.2,1-4.4-1.4-12.5-2.8-17-1.8-5.7-6.3-10.1-12.2-6.7-4.4,2.5-6.5,11.3-10.7,12.5-4.8,1.4-4.1-10.2-4.6-13.4-.8-6-4-16.1-2-21.9,1.5-4.6,9-7,12.8-9.8a63.929,63.929,0,0,0,15.4-15.3c4.1-6,3.8-12.1,3-19.1-.4-4.1-1.1-15.2-7.9-12.8-3.9,1.4-21.4,25.2-24.5,16.7-.9-2.4,1-8.4,1.3-11.1.2-2,.2-11.6,1.6-12.9.5-.5,6.7-1.3,8-2.2a23.615,23.615,0,0,0,7.6-7.8c6.4-10.7-.9-27.4-12.9-30.1-7.9-1.8-12.1,1-16.5,7.3-4.3,6.1-12.6,3.5-19.7,5-1.3-3.6,3.4-10.8,4.6-14.3,1.8-5.2,3.9-10.5,4.6-16,1.4-10.6-1-22.1-4.4-32.1,4,.6,9.8.4,12.6,3.4s4,9.3,6.4,12.9c4.5,7,9.8,14.7,16,20.3,8.2,7.3,11.4,3.9,17.7-2.9,6.3-6.9,3-16.6.8-25,5.1-.8,11.1.7,16.1,1.5,4.6.7,13.2.9,17,3.7,2.9,2.1,1.9,4.3,2.2,8.4a68.82,68.82,0,0,0,2.9,16.3c3.4,10.7,11.1,14.4,20.3,7.5,3.2,4.3,6.7,10,11.6,12.4s13.9,4.4,19.3,4.8c6.9.5,12.3-2.6,18-6,2.8-1.7,3.6-3.1,6-1.8,1.8,1,4.2,5.6,6,7.2a81.081,81.081,0,0,0,6.5,5.1c1,.8,2.1,1.6,3.2,2.4,2.4.6,3.2,2,2.4,4.3,1.5,4.4,1.8,9.1,3.1,13.5,1.5,5.3,5.1,8.1,10,10.1a49.128,49.128,0,0,1,5,1.7c2.9.1,3.6,1.2,2,3.5,0,3.1-3.1,7.7-4.8,10.1-1.6-4.5-8-9.6-12.9-7.7-5.7,2.2-5.9,8.8-5.5,13.9a48.849,48.849,0,0,1-9.7-6.6c-1.5-1.2-3.9-2.6-5-4.2-1.9-2.8-1.7-1.3-.4-5.1,1.6-3.9,12.5-14.1,8.7-18.1" fill="#34558b" fill-rule="evenodd"/><path id="Ink" d="M765.218,640.605c-4.2,3.4-8.6,6.8-12.9,10-10,7.4-19.3,15.5-28.7,23.5-8.5,7.3-17.7,13.8-26.6,20.6-8.5,6.5-16,14.2-23.9,21.3,5.2,3,10.8,7.5,17,6,5.1-1.2,11-5.6,15.4-8.4,10.2-6.6,18.6-15.8,27.1-24.4,8.3-8.4,16.3-16.6,24.1-25.3a132.738,132.738,0,0,0,21-30.9C773.218,630.205,768.218,638.205,765.218,640.605Zm-75.4,23.7c-5.9,1.9-12.1,2.8-18,4.6-5.1,1.6-9.5,6.6-12.8,10.7-2.1,2.7-3.5,5.9-5.4,8.9-1.1,1.7-5.2,5.6-5.1,7.2.1,2.1,6.1,7.3,7.5,9,2.6,3,5.3,5.9,8.1,8.8,4.1-8.5,13.8-15.7,21-21.5,7.5-6.1,15.4-12.1,23.2-18.1,17.2-13.3,33.3-26.4,51.9-37.9C759.018,633.205,696.718,662.105,689.818,664.305Zm-28.7-5c-5.7,7-14.3,15-16.1,24.2,3.6-4.1,6.7-8.6,10.2-12.9a57.885,57.885,0,0,1,4.8-5.1C663.018,662.405,664.018,662.705,661.118,659.305Zm-145.9-389.3a229.748,229.748,0,0,0-33.9,5.3h0c-2.7.6-5.4,1.2-8,1.8-26.1,6.3-52.1,18.7-71,38.1l-.6.7c-.9,1.4-2.9,3.3-2.5,5.2-1.3-.8-1.7-1.5-1.6-2.1-.2.3-.3.5-.5.8,5.3,3.4,8.8,11.1,12.3,16.3,4,5.9,8.4,11.4,12.3,17.4,8.3,13,16.2,26.5,23.7,40.1,12.9,23.4,28.8,45.7,43,68.4s27.7,45,41.8,67.6c15.1,24.1,32.4,46.8,47.9,70.2,9.3,14,19.9,27.1,29.4,41,9,13.1,17.9,26.2,27,39.2a57.892,57.892,0,0,1,27.3-32.1c-17.7-25.2-34.7-50.7-50.3-77.2-13.4-22.9-25.3-45.8-37.8-69-12.3-22.8-24.4-45.7-36.9-68.5-6.2-11.4-11.4-23.4-16.8-35.3-5.7-12.7-8.1-26.8-14.2-39.2-2.9-5.8-6.8-12.5-6.4-19.2.4-6.3,4.8-12.8,8.2-17.9,2-3,5.9-11.5,10-11.5,7.5-.1-1.4,15.2-2.6,18.2-5.4,13.8,2.1,25.8,7.8,38.2,5.5,12.1,9.9,24.8,15.7,36.8,2.5,5,5,9.9,7.2,15,.8,1.8,2.9,7.5,4.9,8.1,1.1.3,6.7-3.3,7.6-3.8,4.4-2.8,10.3-7.6,12.9-12.1s1.5-12.1.4-16.9c-3.5-13.9-10.7-27.1-16.4-40.1-6-13.7-12.3-27.5-17.5-41.5-2.8-7.6-5.3-15.2-8.4-22.7-1.7-4.2-3.6-8.5-5.5-12.6C521.318,271.505,521.118,269.605,515.218,270.005Zm-200.5,165.1c-5.4,2.6-6.9,4-8,9.9-1.2,6.1-.6,12.2-1.3,18.4h0l-.2,2.3c-.9,8.8-2,17.6-2.5,26.3-.8,12.4,3.8,24,9.2,34.8,2.4,4.8,4.8,9.4,8.4,13.4a76.268,76.268,0,0,0,7.3,6.6c3.2,2.6,3.7,4.3,5.8.7,2.6-4.4.5-11.6-.2-16.3a137.456,137.456,0,0,1-1.7-22.2c.3-3.4.5-6.9.7-10.3h0c.5-8.4.9-16.8,2.3-25.1.5-3,1.1-6,1.8-8.9.7-2.7,3.4-7.6,3.2-10.2-.2-2.7-4.4-7.6-5.1-12a66.55,66.55,0,0,1-.6-7.8c-.2-3.7.7-4.6-2.5-5.6C327.318,427.705,318.018,433.505,314.718,435.105Zm-56.3-29.1c-1.5,4.4-7.4,8.8-10.5,12.1-8.4,9-14.9,18.2-21.4,28.5-10.5,16.6-20.1,35.8-24.6,55.2-11.2,3.1-7.3-20-5.8-24.5a191.447,191.447,0,0,1,13.9-31.8,145.293,145.293,0,0,1,19.8-27c3-3.2,6.6-7.1,9.9-10,2.9-2.6,9.5-9,13.1-9.6C257.318,398.305,259.918,401.505,258.418,406.005Zm47,57.4v0Zm354-125.1c6.5,12.1,9.7,27.2,12.1,40.7,2.1,12.2,3.8,25.6,3.5,38,.3,2.1.4,4.3.5,6.4v1.9c0-1.6.1-3.2.1-4.7a5.525,5.525,0,0,1-.1,4.7c0,3.1-.2,6.3-.3,9.4-.1,4.5.9,13.8-2.2,17.7-4.7,5.9-6.1-4.7-6.4-7.6-.7-7.3-.8-14.7-1.4-22-2-25.6-5.3-53.9-15.2-77.8-.9-2.3-2.4-7.1-4.2-8.7-1.3-1.1-2.2.1-3.7-1.9-1.5-2.1-3.7-14.1-1.1-16.4C646.518,313.105,657.118,334.105,659.418,338.305Zm-448.5,59.7c7.8,5.5-20.9,18.8-24.8,21.2-6.9,4.4-13.8,8.6-20.5,13.3-7.1,4.9-13.8,10.7-21.1,15.1-9.1-10.7,16.6-26.4,24-30.4,7.6-4.1,14.8-8.7,22.6-12.2C194.918,403.405,206.918,395.205,210.918,398.005Zm223.1,4c-1.5.2-4.5,2.1-6,2.6-14.7,5.2-31.7,7.6-45.2,15-9.2.1-18.8,5.6-27.6,8.1-3.5,1-10.5,2-13.4,4-3.3,2.2-1.7,11.5-1.7,15.5,5.7-5.4,12.4-4.3,20-4.6,10.6-.5,21.2-1.5,31.8-2.1,11.2-.6,22.2-2.4,33.4-2.3,11.1,0,22-2.3,32.9-.1-1.9-7.5-8.8-15.5-12.9-21.9-2.6-3.9-4.5-9-7.4-12.6C435.618,400.705,437.118,401.505,434.018,402.005Zm-74.6,40.6-3.8.1C356.818,441.605,358.118,441.905,359.418,442.605Zm334.8-90.8c5.4,15.4,10.4,30.4,10.7,46.9.1,5.7.3,14.7-2.1,20-4,8.8-7.7,1-7.5-5-1.3-15.1-3.1-30.4-6.4-45.2-1.5-6.9-4.9-15.6-3.7-22.8C687.018,335.205,693.018,348.405,694.218,351.805Zm1,64.3v0Zm33.8-35.4c1.8,4.6,4.8,15.6,1.9,20.1-3.9,6-6.8-.7-7.9-5.1-1.8-6.8-1.7-13.9-4.2-20.6C722.718,366.805,726.818,374.905,729.018,380.705Zm-551.8-6.4c0,4.8-7.4,6.3-11.4,8.3-2.9,1.5-6.4,5.8-8.3,2.3C154.418,379.205,173.318,374.305,177.218,374.305Zm153.9-294.1c3.4,10,5.8,21.5,4.4,32.1-.7,5.5-2.8,10.8-4.6,16-1.1,3.2-5.9,10.8-4.6,14.3,5.2-1.1,13.9.7,18.1-2.2,4.8-3.3,4.4-10.3,12-10.7,11.7-.7,21.1,9.7,21.9,21.3.4,6-4,12.4-8.5,15.9-2.4,1.9-4.7,2.5-7.4,3.7-1.8.8-2.3.8-2.4.7h0c.1.1.2.6-.6,2.3-1,2.2-.7,5.7-1,8-.4,3.4-1.8,7.7-1.3,11.1.5,3.7.3,4,4.3,2.7,4.6-1.5,10.4-7.8,13.8-11.2,3.4-3.3,6.7-10.5,11.5-4.7,3.7,4.4,3.7,15.4,3.1,20.8-1.3,12.6-15.7,22.9-25.7,28.9-7.1,4.2-6.1,7-5.6,15,.4,6.5,1.4,13,2.2,19.4,1,7.7,3.5,7.9,7.3,2.1,2.9-4.4,7.7-11.6,13.9-9.1s5.7,10.6,7.1,15.8c1.9,7.4,1.3,12.9-4.9,18.3-2.8,2.4-12,6.4-12.8,10.4-.4,1.9,4.1,8,5.1,10a87.4,87.4,0,0,0,7.4,12.5c1-6.6,6.7-12.1,10.3-17.3,4.3-6.3,9.6-10.8,15.8-15.3,2.3-1.7,8-3.9,5.3-6.8-2.3-2.5-4.8-.7-7.1-4.7-3.9-6.8-4.4-17.7-4.7-25.4-.3-6.8-.5-16.4,3.5-22.3,4.9-7.2,9.9-7.5,17.3-4.4,5.8,2.4,8.8,11.7,11.9,17.3,5.2,9.4,5.3,17.4,5.3,27.8,5.6-3.2,11.7-4.4,17.8-6.2,4.2-1.3,11.5-2.1,14.7-5.2a9.425,9.425,0,0,1-4.5-9.8c1.2-6.3,4.4-3.6,9.2-4.4,2.2-.4,3.7-2,5.9-2.3s4.6.6,6.8.9c5.5.8,10.8,2.1,16.2,3-3-4-6.1-9.5-10.9-11-5.8-1.8-12.9-2.1-19-3.6-7.9-2-21.5-14.5-9.9-22.2,4.4-2.9,10.1.8,14.2-3.1,3.9-3.7,2.8-11.4,3.8-16.4,2.4-11.5,9.3-21.9,20.5-26.3,3.8,4.1-7.1,14.2-8.6,18.4-.9,2.5-1.6,2.2-.6,4.3.6,1.4,3.7,3.1,5.1,4.1l1.1.9a49.08,49.08,0,0,0,9.6,6.5c-.4-5.1-.2-11.7,5.5-13.9,4.9-1.9,11.2,3.1,12.9,7.7,1.7-2.4,4.8-7.1,4.8-10.1,1.6-2.3.9-3.5-2-3.5-1.2-.5-2.5-.9-3.7-1.3-5.4-2.1-9.5-4.5-11.2-10.4-1.3-4.4-1.6-9.1-3.1-13.5.8-2.3,0-3.7-2.4-4.3-.8-.5-1.5-1.1-2.3-1.6-2.5-1.8-5.1-3.8-7.4-5.8-1.8-1.6-3.5-5-5.4-6.2a7.639,7.639,0,0,0-1.7-2.3c-1.6,1-3.3,2-4.9,3-5.7,3.5-11.1,6.6-18,6a72.482,72.482,0,0,1-18.4-4.3c-5.5-2.2-9.2-8.4-12.6-12.9-9.2,6.9-16.9,3.2-20.3-7.5a67.854,67.854,0,0,1-2.8-14.8c-.4-4.1.9-7.7-2.3-9.9-3.9-2.8-12.4-2.9-17-3.7-5-.8-11-2.3-16.1-1.5,2.2,8.5,5.6,18.2-.8,25-6.3,6.8-9.5,10.2-17.7,2.9-6.3-5.6-11.4-13.3-16-20.3-2.4-3.7-3.5-8.5-5.9-12C341.418,80.405,335.918,80.905,331.118,80.205ZM40.618,284.4h0v0Zm282.6-202.5a71.2,71.2,0,0,0-9.1,1.3c-5.6,1.1-11.2,2-17.1,3-13.2,2.1-26.3,4.8-39.4,7.2-12,2.2-25.4,5.1-36.8,9.7-12.5,5-24.6,9.9-36.5,16.2-11.9,6.4-22.2,14.7-33.6,21.7-21.4,13.2-43,26.7-64,40.7-13.3,8.9-27.6,16.6-40.5,26-6.7,4.8-13.2,9.9-19.5,15.1-4.7,3.9-13.2,9.2-14.4,15.6,6.3,0,14.7-10.9,19.8-14.4,3.7-2.5,7.9-4.5,11.7-6.8,2.2-1.3,9.3-8.1,11.7-8.1,3.5-.1,4,4.9,3.1,7.2-1.1,2.9-4.4,5.3-6.6,7.4-7.2,6.8-13.1,15.8-17.9,24.4,8.8-3.2,16.1-13.8,22.3-20.6,3.3-3.6,20.2-19.1,19-4.4-.4,5.4-4.4,9.6-7.1,14.1-3,4.9-6,9.8-8.6,14.8a164.737,164.737,0,0,0-12.4,31.9c5.5-2.2,6.9-8.2,9.4-12.9,2.6-4.8,5.6-9.4,8.5-14,6.2-9.8,11.5-20,18.1-29.6,2.6-3.8,14.2-23.7,18.8-20.9,3.1,1.9,4.1,10.8,5,13.9,1.5,4.9,3.8,10.1,8.7,12.3.2-10.1-.1-20.1,0-30.2.1-7.9,4.4-10.2,9.8-15.7,12.5-12.8,28.5-21.1,43.4-30.7,6.6-4.3,12.7-9.9,20-13.5,8.2-4,16.2-8.7,24.2-13.2a93.131,93.131,0,0,1,54.9-11.3l.8.1h0c18.4-2.6,39.1,1,56.1,8.2,3.7-12.8,5.1-26.3,2.2-39.5C326.718,83.005,326.818,81.905,323.218,81.905Zm167.2,192c-.8,0-1.6.1-2.4.1A19.269,19.269,0,0,0,490.418,273.9Zm369.6-212.8c-5.4,4.9-12.4,8.9-18.3,12.9-5.4,3.7-10.5,7.9-15.9,11.7-14,9.7-26.7,21.1-40.2,31.4-25.4,19.5-51.9,37-80.9,50.6-13.7,6.4-27.8,12-41.9,17.4-13.7,5.3-26.7,12.6-41.8,12.7-7.8,0-16,.2-23.7-.9-8.3-1.3-17-6.3-24.6-9.8-3.6-1.6-7.2-3.2-10.6-5.1-3.2-1.8-7.4-6.3-10.7-6.9-7.5-1.3-8.3,14.2-10.3,19.6-.7,1.8-2.9,5-2.9,6.8,0,3.4-.6,1.7,2.5,3.8,3.3,2.4,7.8,4.3,11.5,6.2,6.9,3.5,14.3,6.7,21.4,9.6a81.144,81.144,0,0,0,23.2,6.1c3.2.3,6.2.5,9.3.5h1c1.4-.6,2.9-1,4.3,0h-1.1c2.5,0,5,0,7.6.1-1.3,0-2.6-.1-3.9-.1a3.664,3.664,0,0,1,3.9.1c19.3-2.1,36.2-13.2,54.3-19.1,18.4-6,37.6-14.7,55.1-23.7,16.6-8.6,33.3-17.4,50.4-25.3,9.8-4.5,20.2-13.9,31.4-10.4,5.2,1.6,9.8,4.8,15.1,5.9,6.2,1.3,12.1,1.5,18.2,3.3-.4-2.8-8.4-7.1-10.3-10-1.2-2-1.4-4.2-2.4-6.1-.9-1.8-2.4-1.9-2.8-4-1.4-8,11.8-16.5,16.8-21,16-14.3,34.7-25.7,50.6-40.4-9.6,0-21.1,12.2-28.3,17.8-4.8,3.8-9.6,7.5-14.7,10.9-1.4.9-7.8,5.9-9.6,5.3-5-1.6-.2-10.2,1.6-12.2,3.5-3.8,8.3-6.9,12.3-10.1a176.8,176.8,0,0,0,23.5-22.3c-7.1.4-17,12.2-22,16.9-5.5,5.1-12.8,12-20,14.7-3.7,1.4-5.5,1-5.8-3.5-.3-5.1,3.7-7.8,7.1-10.8C845.218,77.905,856.218,69.505,860.018,61.105Zm-253,166.7Zm-153.7-35.1c1,8.4-5.3,18.9-14.6,19.2-10,.4-10.6-11.3-10.2-18.5.2-3.8-.3-6.1,2.4-8.7,1.1-1.1,3.7-1.6,5-2.6,1.7-1.4,2.8-3.3,4.4-4.8C448.818,170.105,454.318,185.905,453.318,192.705Zm-37.6-58.2c3.2,2,6.7,7.1,8.3,10.5a86.475,86.475,0,0,1,6.3,17.9c-1.5,6.8-8.1,24.7-18.5,20.4-10.9-4.4-11.1-18.2-11.2-27.5C400.518,148.905,404.218,127.405,415.718,134.505Zm71.2,31.3c.2,6.2-7.8,12.9-12.8,15.6-8,4.3-9.6-6.4-9.1-12.2.6-6.5,3.2-10,9.1-12.8C483.018,152.305,485.018,158.305,486.918,165.805Zm-126.8,5.5Zm173.5-20.3h0Zm-64.4-84c-3,.9-7.4,6.6-9.7,8.9-1.4,1.4-3.8,5.7-5.8,6-3,.4-2.7-1-4.7-3.5-7.6-9.1-15.7-9.1-20,2a15.635,15.635,0,0,0,8,1.4c.9,0,4.6-1.1,5.3-.7,4,2.6-1.8,4.9-2.6,6.2a9.59,9.59,0,0,0-1.1,2.7v.4h0v-.1h0v.1c-.5,1.9-.9,3.3-4.3,4.4s-6.3.1-9.8-.9c.4,6.7.4,18.8,5.1,24.3l.3.3c1.3.6,2.7,1.2,4,1.8h-.5c2.3,0,5-1,6.6-1.3-.7-3.4-4.5-14.7-2.8-17.1,3.3-4.6,4.7,2.3,5.5,5.3,1.9,7.3,6.1,16.9,12.7,21.4-.1-.1-.1-.2-.2-.3,1.6.3,3.2.3,4,2.1a8.331,8.331,0,0,0-1.5-.4h0c6.3,2.9,18,7.8,24.2,4.5,8.7-4.5,15.7-12,23-18.3-5-2.5-5.7-6.4-1.8-10.4,8.3,8.9,13.4-10.2,16.1-16-5.1-.5-9.7,2.6-14.9,1.6-4.3-.9-9.4-2.4-13-4.7-4.9-3.2-9.2-7.8-13.3-11.8C475.318,72.305,471.918,66.105,469.218,67.005Zm-153.4,63.8c.2,1,.5,1.9.7,2.9C317.918,131.005,317.918,131.005,315.818,130.805Zm160.8-1.6c-2.1-.2-10.3-1.7-5-4.1C474.318,123.905,476.918,126.705,476.618,129.205Zm24.7-29.6c1.1,2.7-3.4,7.5-4.7,9.9-2,3.6-5.5,18.9-11.2,17.3-6.3,0-5.2-6-1.8-8.9,1.2-1,2.5-1.1,3.7-2.3,1-1.1,1.7-3.4,2.4-4.7,1.7-3.4,3.2-7.2,5.9-10C497.718,98.705,499.918,96.305,501.318,99.605Zm-232.1,18.6Zm-2.1-.2.7.1,1.3.1-1.1-.1Zm-1.4-.2.8.1h.4l-.6-.1Zm205.4-21.9c3,.4,1.1,1.8,2.6,3.1,1,.9,1.2,1.3,1.1,1.5h.1c.4,0,1.2,0,2.5.1,2.9.3,11.8-2.3,6.1,3.4-1.2,1.2-8.6,4.7-10.3,3.9C469.618,106.205,471.118,99.005,471.118,95.905Zm3.7,4.7c-.7,0-.2.2,0,0Zm-242.2-.9a19.269,19.269,0,0,0-2.4.1A19.269,19.269,0,0,0,232.618,99.705Zm205.9-9.1v0Zm0,0Zm0-.4Zm0,0Zm-81.7-17.3h0Zm192.8-16.5Zm0,0Zm-201.2,16.1h0a6.465,6.465,0,0,1,5.1.1h-3.2a104.554,104.554,0,0,1,11.1,1.2c16.1,2.5,34.8,3.9,50.1,10.3-.1-.1-.1-.2-.2-.2a2.9,2.9,0,0,1,3.2,1.3c-.1,0-.3.1-.4.1q2.55,1.2,5.1,2.7c2.5-5.3-2.1-3.7-6.4-5.7a37.005,37.005,0,0,1-12-8.7c-3-3.2-5.6-7.2-4.6-11.9.5-2.5,3.3-3.4,3.8-5.2.2-.6-1.5-2.7-1.6-3.5a16.214,16.214,0,0,1,.3-5.8c2.5-10.5,1.4-24,13.3-28.5,2.6-1,2.5.1,4.4-1.9s2.5-5.2,4.7-7.3a30.868,30.868,0,0,1,14.7-8.5c5.9-1.3,10.9.7,16.5.5,6.1-.2,10.7-2.6,17.2-.9,4.9,1.3,5.3,3.3,9,5.5,3.8,2.3,11.1.4,15.9,1.9,2.5.8,4.1,2.2,6.3,3.6,1.3.8,1.2,1.3,2.5,1.8.7.3,2.3-.1,3.2.1,5.9,1.3,6.4,8.2,10.2,9.6,2.9,1,4.2-1,7.4,1.2a15.3,15.3,0,0,1,4.5,5.6c.5,1,.9,4.2,1.3,4.7,1.3,1.5.8.7,2,1.5,2.6,1.8,5.6,1.7,8.4,4.7,3.8,4,8.3,7.2,9.2,13a8.881,8.881,0,0,1,.1,2.8v.6c-.1,1.7-.5,3.3-.6,5.1-.2,2-.4,2.1,0,3.5.3,1,2,2.3,2.4,3.8,3.2,11.4-15.3,24.3-24.8,17.9-3.9,8.2-6.7,16.9-10.4,25.1-2,4.5-12.8,15.1-12,18.3.6,2.7,6.8,4.4,8.9,5.7,3.9,2.3,7.6,5.1,11.4,7.7,2.7,1.9,5.3,3.8,7.9,5.7l1.6,1.2.2.1a7.87,7.87,0,0,1,3.9,2.8c2.2,1.5,4.4,2.8,6.7,4.1,3.6,1.9,4.5,2.3,6.1,6.1,1.6,3.9-.4,2.5,3,5,6.6,4.8,16.7,6.9,24.3,10.2,16.7,7.3,33,11.1,51.3,7.9,16.5-2.8,31.8-10.7,47.2-16.9a454.572,454.572,0,0,0,44.9-20.5c13.7-7.3,27.2-15.1,39.8-24.3,7.1-5.1,14.5-9.7,21.3-15.2,6.7-5.4,12.9-11.4,19.7-16.6,13.3-10.3,27.3-20.1,41.3-29.4,4-2.6,7.9-5.4,11.8-8.2,2.4-1.7,7.1-6.5,10.2-5.9,9.7,1.9,0,14.4-1.7,18.1,4.8-2.6,8.7-6.3,13.7-8.7,2.6-1.2,9.6-5.5,12.3-3.7,6.3,4.2-8.6,18.2-11,21.4,4-2.3,17.5-11.3,20.8-3.9,3.4,7.8-9,16.9-13.6,21.3-13.4,12.7-28.9,22.8-42.5,35.1-1.9,1.7-8,5.5-7.6,8.5.4,2.9,6.1,6.2,8.1,8.1,4,3.7,16.6,15.9,8.6,22.1-2.8,2.2-10.9.4-14.3,0-5-.5-9.9-.9-14.8-1.8-7.3-1.2-14.4-6.9-21.7-7.1-8.2-.2-17,7-24,10.5-8.3,4.1-16.2,8.6-24.4,12.8-15.7,8-30.7,16.9-46.9,24.1-17.8,7.9-36.8,13-54.3,21.4-17.8,8.5-35.1,11.2-54.6,10.6-19.1-.6-39.5-13.2-54.6-24.1-.9-.6-1.7-1.3-2.6-1.9-1.6-2.5-3-2.5-4.2-.2-2.5.4-3.5.8-6.4.6-4.8-.3-7.2-1.4-11.5-3-9.9-3.7-17.4-6.5-24.4-15.1-4.6,12,7,24.6,13.2,33.9,3.4,5.2,7.3,10.1,10.3,15.5,2.4,4.4,3.3,11.3,7.8,13.3,2.7,1.2,4.4-.8,6.3,2,1.2,1.8-.1,3.9-.4,5.4-.6,3.9-2.5-1.6-1.1,4.1.4,1.8,3,5.2,3.8,6.9,5.7,11.3,10.4,23.1,15.3,34.7s9.7,23.1,14.5,34.7c2.1,5,5,9.6,6.9,14.7,2.4,6.2,3.9,12.6,6.2,18.9a55.417,55.417,0,0,1,1.3,32.5c-2.9,9.8-15.3,19.9-25.3,19.2,4.6,9.2,9.8,17.5,14.6,26.5,4.5,8.5,7.6,17.5,12.3,25.7,5.3,9.3,9.9,19.2,15.3,28.3,4.5,7.7,7.3,16.5,11.5,24.3,9.6,17.8,18.9,36.4,29.2,54.1,6,10.3,11.4,20.9,17.5,31.1,3.3,5.5,6.6,10.9,9.9,16.4,1.9,3.1,4.1,10.1,7.7,11.6-1,1.1-4.3,3.6-4.5,5.1-.3,4.2,3.9,3,6.3,2.5,6-1.5,11.8-3,17.7-5.1,11.2-4,21.8-9.7,33.1-13.3,11.7-3.7,22.8-10.2,34.9-13,5.5-1.3,23.7-9,25.3-2.5.3,1.2-.5,4.2-.5,5.7,0,2.6.7,5,.3,7.7-.7,5.3-3.6,10.5-6.4,14.9-6.7,10.5-14.3,20.8-23.2,29.6-15.2,15.1-29,35.2-47.8,46-3.7,2.1-7.3,5.9-11.5,7-4.7,1.2-8.7-.3-12.8-.5-2.3-.1-2.4,1.2-5.2.1-2.3-.9-5.2-3.6-7.1-5.1-4.7-3.7-8.7-8.4-12.5-12.9-3.4-4-7.1-11.7-11.7-14.2-2.6-1.4-2.4.9-4.7-2.3-1.3-1.8-1.4-3.5-3-5.3-1.7-1.9-2.7-2.1-3.9-4.4-.8-1.6-.8-3.1-1.8-4.7-3.3-5.4-8.4-10-12-15.4-5.4-8-12.2-14.9-17.9-22.6-6.7-9.3-14.3-18.5-21.6-27.3-14.1-17-27.1-35.7-40.4-53.6a635.278,635.278,0,0,1-40-61.1c-6.5-11.3-14.3-22.1-21-33.3-6.6-10.9-12.7-22.3-20.5-32.4-1.5,1.2,1,5.5-.8,7.2-1.9,1.8-10.9,1.9-13.4,2.3-8.4,1.4-17.3,3.1-25.8,3.4-17.5.7-34.8,4.2-52.5,5-4,.2-7.1-.5-10.9-1.2-5.7-1.2-6.8-1.9-8,3.7-1.8,8.6-3.9,17.7-4.7,26.4-.8,9-1,17.9-1.1,26.9-.1,4.3-.2,8.6-.2,12.9,0,6.2,1.7,12.3,1.4,18.5-.4,7.9-1.8,14.8-10,17-4.6,1.2-4.7.6-7.9-1.9-3.4-2.6-7.9-5-10.7-8.1a96.273,96.273,0,0,1-22.2-43.4c-3.6-17.6,1.3-36.6,3-54.1.7-7.4,1-19.2,6.2-25,5.5-6.2,16.8-6,24.3-6.1a15.264,15.264,0,0,0,4.1-.5h-.8l1.4-.2a40.594,40.594,0,0,0,6.1-3.2c3.5-1.9,8.6-2.9,12.4-4.4,10.3-4,21.2-6,31.6-9.5,8.5-2.9,16.9-4.5,25.4-6.6,6.3-1.5,12.8-1.8,19.1-2.9a7.412,7.412,0,0,0-2.1-.1c1.5-1,3.1-.4,4.7-.4a37.447,37.447,0,0,0,4.5-1.2c-9.9-17.9-18.9-36.2-29.8-53.6-2.4,4.4-6.4,4.4-11.2,3-2.7-.8-3.8-3.5-6.2-4.4-1.6-.6-2.5,1.2-4.1-.1-.9-.7-1.5-3.3-2.1-5.5-9.1-9.2-13.4-19.6-17.7-31.8,3.1,5.8,5.9,11.7,9.1,17.4a44.025,44.025,0,0,0,2.6,3.9l-.3-.4a61.807,61.807,0,0,1-3.7-6.1c-10-18.7-15.3-37.1-18.5-58-2.9-18.7-3.5-38.4-2.9-57.3h0v-.1h0c0-1.3.1-2.6.2-3.9h0a138.291,138.291,0,0,1,3.6-23.8c.7-3.1,2.3-7.7,2.3-10.8,0-1.9-.5-11.1-1.1-11.6-2.4-2-11.6-.4-14.2-.2-4.7.5-9.4,1.2-14.2,1.7-1,.1-1.9.2-2.9.3a3.192,3.192,0,0,0-4,1.6c-2.5.4.7,2.5-2.8.5-4-2.3-3.9-11.1-3.9-15,0-1.5,1.1-7.8.1-8.9-.8-.9-6.2-.5-7.6-.6-5.2-.4-10.4-1-15.6-1.3-10.3-.4-20.7-.2-30.9-.1-18.2.1-35.5,8.4-50.7,17.7-7,4.3-14.8,7.3-21.7,11.8-6.8,4.3-12.8,9.7-19.5,14.2-9.4,6.4-19.2,11.7-27.9,19-4.2,3.5-9.7,7-12.7,11.6-3.1,4.6-1,9.9-1.1,15.2-.1,5.8.2,11.9-.8,17.6-.3,2-.6,5.7-2.5,7-2.8,2-2.1.5-4.4-.8-10.2-5.7-12-16.2-15-26.3-16.9,22.7-28.1,48.9-44.1,72.3-2.4,3.6-6.7,11.2-11.8,7.5-3-2.2-3.6-6.3-3.3-10.4v-.7a51.12,51.12,0,0,1,1.4-7.2c1.9-7.4,3.6-15,7.1-21.9,1.8-3.4,3.8-6.7,5.6-10.1.9-1.8,3.7-5.2,3.6-7.2-.8,1.1-1.7,2.2-2.5,3.2-4,1.9-7,8.2-10.3,11.3-3,2.8-6.4,5.6-9.6,8.3a124.061,124.061,0,0,0-16.1,16.3c-3.1,3.6-6.9,7.1-9.6.4-2.1-5.1,1.2-9.7,3.6-14.1a98.912,98.912,0,0,1,10.4-15.9c3.5-4.2,8.4-8.8,9.8-14.1-7,4.8-13.3,10.5-20.8,14.6-6,3.2-15.7,3-12-6.6,2.7-7,11-15.5,16.5-20.6,5.7-5.3,12.2-10.2,18.4-15.1,14.2-11.3,30.1-20.6,45.1-30.9,13.7-9.4,27.7-18.2,41.3-27.4,30.5-20.6,60.5-43.7,95.9-55.5a340,340,0,0,1,50.8-12.7c8.8-1.5,18.2-3.7,27.1-4.1,3.3-.1,6.4.5,9.7.3,3.4-.2,7.5.7,10.9-.1,3.5-.8,6.6-4.5,10-4.3,1.1.1,2,1.1,3.1,1.3h.3c1.4-.2,2.9-1.3,4.2-.1h0c4.8.1,9.6.2,14.4.4Z" fill-rule="evenodd"/></g></svg>