<svg id="Layer_1" data-name="Layer 1" xmlns="http://www.w3.org/2000/svg" viewBox="0 0 809.812 759.653"><title>1</title><g id="Character_plant" data-name="Character/plant"><path id="accent" d="M392.4,272.516c2.7.4,10.4,3.6,11.7,6-1.8.6-3.1,1.8-4.6,2.8-1.8,1.1-3.5,1.4-5.4,2.2-4.6,2-9,5.4-13.2,8a283.645,283.645,0,0,0-26.5,18.3c-7.3,5.5-13.8,12.1-20.7,17.8-4.7,3.9-17.2,15.2-11.8,21.6,3.8-3.2,7.6-6.3,11.4-9.5,2.2-1.8,5.6-6.3,8.4-6.4-3.3,4.2-6.9,8.2-10.5,12.2,5,.6,10-6.3,13.5-9.4,2.2-2,4.8-2.7,7.2-4.4,2.2-1.6,3.5-3.6,5.9-4.8,5-2.5,9.3-6.3,13.7-9.5,1.9-1.4,3.6-3.2,5.3-4.5,1-.9,5.1-4.5,6.1-4.7.2.5.5,1,.7,1.6,1.1-2.4,1.8-1.1,3.6-2.4,1-.7.5-1.8,1-2.3a48.683,48.683,0,0,1,4.5-2.7c2.1-1.3,1.3-2.2,3.9-1-.6-1.6,0-2,1.5-1.3l-.2-3.4c7.2,0,12.7-2.9,18.7-7,2.3-1.5,2.2-2.6,4.7-1.3,1.4.7,2.5,2.8,3.4,4a18.355,18.355,0,0,1,3.7,8c-.9-.9-1.5-.9-2-.2.7,1,2,2.2,1.9,3.4-.1,1.5-.8-.2-1.1.8-.4,1-1.6,2-1.8,3.1-.3,2.1,1.4,2.1,0,4.5-1.2-1.1-1.5-1.2-2.9-.3.4.8.9,1.5,1.3,2.3-2.8,0,.3,3.2-.5,5.3-1.3,3.3-5.8,3.7-5.4,8l2.1-3.2c-.1,2.2-.9,2.9-1.7,4.7-.4,1-.7,3-1.5,3.8-.7-1.1-1.4-2.2-2-3.2a15.155,15.155,0,0,1-2.8,11.4c-.8,1.2-2.4,2-3,3.1-.7,1.3.3,3.1-.5,4.2-.6.9-1.7,1-2.5,1.4a1.192,1.192,0,0,0-1.9.4,3.506,3.506,0,0,0-.6,1.4c.2.2.4.5.6.7-.7,1.6-1.4,1.8-2.2.5-1.4.7-1.7,1.1-2.5,2.8-3.6.6-7.6,3.9-11,5.7a78.175,78.175,0,0,1-12.5,5.1c-1.7.6-2.8,1.9-4.3,2.5-1.7.7-3.5.3-4.8.9-1.6.7-2.2,2.3-4.3,2.6a10.33,10.33,0,0,1-6.4-1.5c1.7,3.1,2,3-1.2,4.7,0,0-1-4.2-1.9-3.1-.7.9.8,2.8,0,3.9-.5.7-2.5,1.1-3.2,1.4-.4-.1-.9-.1-1.3-.2l-2,3c-1.8.2-3.6.4-5.5.6.8-2.5.9-2.4-1.4-3.5.4,1.2.7,2.4,1.1,3.7a50.007,50.007,0,0,1-9.2.7c-.5,0-.7-.7-1.5-.7-.7.1-2.3.7-1.2,1.2-5.4.5-10.5,0-15.9.1-2.4,0-4.8.6-7.2.4-2.5-.2-4.9-1.1-7.5-1.3-5.3-.4-11.3-.4-16.5-1.5-3.1-.6-3.3-.6-1-2.9,1.2-1.2,2.5-2.3,3.8-3.4,7.4-6.2,14.8-12.9,20.6-20.7,6-7.9,8.8-17.6,13.1-26.4,8-16.5,12.9-38.9,31.9-45.7,4-1.4,8.3-1.7,12.4-3.1,4.8-1.7,9.7-2.5,14.7-3.5C381.6,273.417,388,271.917,392.4,272.516Zm-48.8,100.2c-.5,1.2-1.5,2.4.9,2.5A24.938,24.938,0,0,0,343.6,372.717Zm221.1-113.1h.2c4,.3,7.9,1,12.2,1.5,1,.1,3.1-.4,4-.2,1.8.4,3.3,1.7,5.2,2.1a103.914,103.914,0,0,1,10.7,2.5,175.557,175.557,0,0,1,25.3,10.6c17.3,8.7,33,20,49.3,30.4,8.8,5.6,16.4,10.9,23.3,18.8,2.6,3,5.2,5,6.6,8.4,1.9,4.4,4,8.7,6.2,12.9-4,.9-6.5-1.1-10.3-1.9-3.6-.8-7.5-1.1-11.2-1.7-7.8-1.4-15.7-2.6-23.5-3.6-8.1-1-16.1-3.2-24.2-4.3a113.463,113.463,0,0,1-19.6-4c-3-1-6.3-1.3-9.4-2-4-.8-7.9-2.6-11.9-3.6-6.5-1.5-12.8-3-19.4-4.6-2.9-.7-7-1.4-9.7-2.7-2-.9-3.8-3.4-5.7-5.3a110.635,110.635,0,0,1-7.7-9c-2.2-2.6-6.6-6.2-4.1-10-2.9.3-1.8.8-3-1.7-.8-1.7-.9-4.2-1.3-6,1.7-.1,1-.9.9-2.4-.7-.2-1.1.2-1,1.3-2.9-9.1,2.5-16.3,9.3-21.8,1.6-1.3,3.8-3.3,5.7-3.9C564,258.917,562.6,259.417,564.7,259.617Zm-249.5,84.7c.6-.3,1.1-.5,1.7-.8C315.5,342.816,315.5,342.816,315.2,344.316Zm336.2-101.9c7.7-.1,15.4,2.1,23,3.7,4.5.9,8,3.1,12.3,4.5,1.4.5,2.8.4,4.3.8,2.4.6,4,1.8,6,3.1-4.3,2.6,16.7,17.3,18.4,19.1a40.965,40.965,0,0,1,7.8,12.6c1.6,3.7,5.5,10.3,2.1,13.9.6-.3,1.3-.5,1.9-.8.4.4-.3,4.8-.4,5.5l1.5.2c-2.2,3.5-2,4.1-6.1,3.2,0,2.4.7,4.9.1,7.3-.2.9-.9,1.6-1,2.5-.1.7.7,1.3.6,2.2-.5,5.3-3.5,11-5.3,16-5.8-12.7-10.1-26.6-18.6-37.8-4.1-5.4-8.9-9.9-13.7-14.7-4.7-4.8-8.8-9.3-14.5-12.9a71.2,71.2,0,0,0-15.1-7.6c-2.8-.9-5.6-.9-8.5-2.1a57.42,57.42,0,0,0-8-2.6c-7.2-1.8-14.2-4.1-21.3-5.9-2.1-.6-4.1-1.7-6.4-2.3-3.4-.9-7.3-.7-10.4-2.5,4-2.1,8.1-1.7,12.4-2.3,4.5-.6,8.9-1.3,13.4-1.9A219.711,219.711,0,0,1,651.4,242.417Zm-3.4,73.6c.9.8.5.8,1.7-.5C649.2,314.816,648.7,314.917,648,316.016Zm2.4-.4.9.1C651.6,313.217,650.9,313.217,650.4,315.617Zm-240.9-9.3c-1.8.9-2.4,1.6-.9,3A28.09,28.09,0,0,0,409.5,306.316Zm313.9-2.4c.2.6.4,1.2.7,2.2C725.1,304.016,725.1,304.016,723.4,303.917Zm-131.7-11.6c-.5.9,0,1.6.4,2.5C593.2,294.417,592.1,293.217,591.7,292.316Zm69.8-7.7c3.8,1.4,11.2,5.8,12.5,9.8-2.9-1-4.7-3.2-7.3-4.8C664.9,288.617,660.8,287.417,661.5,284.617Zm-69.8,2.8c3.4.7,6.1,2.9,9.8,1.9a3.872,3.872,0,0,0-3.1-2.4c-1-.1-1.9,1-3,.5-1-.4-.4-2.2-1.8-2.3A1.883,1.883,0,0,0,591.7,287.417Zm-236-1.7,2.2-1.1C356.1,283.617,356,284.816,355.7,285.717Zm305.6-1.3a5.227,5.227,0,0,1-4.5-1.9A4.88,4.88,0,0,1,661.3,284.417Zm-100.1-15.2c1.2-.6,2.3-1.2,3.5-1.8C562.1,266.417,562,266.516,561.2,269.217Zm1.9-7.2c.3.8.5,1.3.7,1.9C565,262.617,564.8,262.016,563.1,262.016Zm32.7-247.6a170.975,170.975,0,0,1,6.9,18.5h0l.6,1.1c5.6,10.8,9.4,21.5,13.1,33.1,1.6,4.9,2.6,10,4.1,15.1.9,2.9,1.9,5.7,2.6,8.7.6,2.6.2,4.8.3,7.5.1,2.5,1.1,4,1.6,6.2.7,2.9.4,6.6.4,9.7,0,6.6-1,13.1-1,19.7,0,5.9-.2,11.7-.5,17.6-.3,4.7-.8,13-4.8,16,1,.8,2.4,1.3,2,2.8-.8,2.9-2.8-.1-3.1.2-1.4,1.7,1.3,1.3,1.3,2.6-.1,1.3-1.2,2.5-1.9,3.7-4.6,7.3-10.7,12.7-16.9,18.5a23.518,23.518,0,0,1-4.1,3.6c-.8.4-2.7.9-3,1.1-1.5,1.3-.9,2.8-2.9,3.7-1.6.7-4.8-.5-5.9.1-.4.6-.9,1.3-1.3,1.9-.3,1.3-.7,1.6-1.4.9-.7.5-3.3,1.8-4.5,2.8.8.1,1.5.2,2.3.3l-2.6.4c-.8.4-1.3.1-1.6-.9-1.4.1-1.2.4-1.2,1.7-2.6,0-2.5-.8-4.6-1.2a27.188,27.188,0,0,1-3-.4c.3-.6.5-1.2.8-1.8-1.8,1.3-3.5,3-3.9,5.3-2.5.2-.5-4-3.1-1.4-.7.7-.3,1.9-.7,2.5q.9,1.8-.9,1.8c-1.1.3-2.1.7-3.2,1,.6-.8,1.3-1.6,1.9-2.3-1.8-.6-4.1.6-3,3a31.226,31.226,0,0,1-4.3.4c-1.5-.1-3.2,1.3-1.9-1l-2.3.3-2.3.3h0c-.5.6-.8,1.1.3,1.4a17.979,17.979,0,0,1-5.2,0c-.7-.2-.8-2.5-2.1-.9.7.5,1.4,1,2,1.5-12.1,5-25.2,6.4-37.7,9.5,0-4,2.1-7.3,3.8-10.8,2-4.1,3.4-8.4,5-12.7,3-8.3,5.9-16.6,9.6-24.6a130.708,130.708,0,0,1,6.7-11.4,88.137,88.137,0,0,0,5.2-11.8c3.3-8,8-15.2,11.6-23s8.8-14.6,13.3-21.9c4.6-7.5,8.4-15.4,12.9-23,4.9-8.3,10-16.5,14.8-24.8a53.407,53.407,0,0,0,5-11.5c.4-1.3,1.1-2.8.7-4.2-.9-3.6-2.4-1.5-4.3.1-.7-1.7-2-14.9-5.7-10.5-.7.9-.2,2.3-.7,3.1-.5.9-1.5,1.1-2.2,2-1.2,1.6-1.8,3.6-3.2,5.1-3.3,3.8-7.1,7.3-10.1,11.1-1,1.3-2.4,2.4-3.5,3.8-1.6,2.1-2.7,4.7-5,6,0-1.5.4-2.4-1.7-2.4,2.4,3.1,1.2,3-.9,5.3-1.7,1.9-3.5,5.1-5.3,7.5-3.9,5.3-7.4,10.3-10.9,15.8-8.1,12.7-15.7,25.5-22.7,38.8-6.8,12.9-13.5,26-18.9,39.6-5.5,13.9-9,28.5-14.3,42.4,3.2-.8,2.7-3.8,3.8-6.3.7-1.5,2-2.7,2.6-4.3.6-1.4,0-3.3.5-4.7,0,0,1.5-2.5,1.7-2.9.6-1.2.8-2.7,1.3-4a49.434,49.434,0,0,1,5-9.7l.8.9.8.9c-.5-4.1-2.8-4.8,1-8.3l-.9,5.4c2.1-.8,1.3-2.4,1.7-4,3,.5-1.2,3,2.7,3-.3,2-.1,3.1-1.6,3.8-.5.2-2.4,0-2.9.2a2.926,2.926,0,0,0,2.6,4.1c-.9,2.9-.6,3.8-3.6,4.1-.4,1,.2,1.5,1.7,1.5l-.7,1.4-.6,1.4h0v.5c-.5,3.9-2.9,8-4.4,11.7-1.7,4.1-2.7,8.4-4.1,12.6-1.1,3.2-1.3,8.1-2.9,11-2.6,4.5-4.9-1.8-6.1-4.3-3.7-8.1-7.2-16.2-10.7-24.3-2-4.6-4.3-9.2-6.3-13.8a23.879,23.879,0,0,1-1.9-5.3l-.1-.5c.1.3,1-5.4-.5-2.1-.2-.8-.4-1.7-.6-2.5.6,0,1.2.1,1.7.1-1.5-3.1-1.1-6.4-1.4-9.7-.1-1.2-1.8-6.4.8-5.2,0-4.6-.6-9.4.9-13.8,1.9-5.3,5.7-10,8.9-14.6,1.7,3.7,3.3-2.5,4.5-3.7-.2-.8,0-1.2.7-1.1.5,0,1.1-.1,1.6-.1.7-1.1.9-5.3.9-6.4,4.3,2,9.2-7.3,11.4-9.8,2.9-3.4,13.7-6.8,12.6-12.2,2,1.8,1.4,0,2.2-1.5s2.3-2.4,3.7-3.6a10.15,10.15,0,0,1,1.8-1.3c.6-.4,1.2.1,1.9-.6,1.8-1.7,2.8-4.7,4-6.8,2.1,1.4,8.4-4.2,10.2-6.1,1-1.2,1.3-2.8,2.3-3.9,1.5-1.6,2.9-1.3,3.2-3.7,2.7,2.2,2.2-2.9,3.9-4.4a15.584,15.584,0,0,1,2.1.4c.6-.9,1.3-1.9,1.9-2.8,2.6-3.9,5.5-6.4,8.9-9.5,1.4-1.3,2.3-3,3.6-4.2,1.4-1.4,3.2-1.9,4.7-3.2a22.081,22.081,0,0,0,3.9-4.2c.7-1.1.8-2.9,1.5-3.7.3.7.6,1.5.9,2.2,4-4.4,6.5-8.6,10.6-12.8.8,2.2.4,3.5,2.6,3.3,1.2-.1,2.2-1.6,3.2-2.2a24.524,24.524,0,0,0,3.1-2.2c.4-1.7-2.5-3.7-1.9-5.7.7-2.4,4.7-4.7,6.5-6.2C589,20.417,592.4,17.417,595.8,14.417ZM340,38.516c.4-.1,3.7,10.1,4.1,11.1,2.5,6.8,3.9,13.9,6.5,20.8a308.321,308.321,0,0,0,18.9,40.3c6.5,11.7,9.8,24.7,17.4,36,5.1,7.6,10.8,14.8,16.1,22.2,4.2,5.9,7.8,11.8,13.5,16.3a67.812,67.812,0,0,1,14.8,15.9,38.489,38.489,0,0,0,6.6,7.9c2.8,2.5,6.1,3.7,6.9,7.7-.7,0-1.4-.1-2-.1.4,1.6.9,3.3,1.3,4.9-5.7-2.2-10.9-2.9-16.9-3.8,1.3-.1,2.7-.2,4-.4-2.4-1.6-5.6-1.9-8.3-2.9-2.8-1-5.2-2.5-7.9-3.6-6.5-2.6-13-5.1-19.4-7.8-2-.8-4.4-1.3-5.9-3a7.557,7.557,0,0,1-.8-1.1q-.151-2.25-1.8-.9l-.9.4a14.3,14.3,0,0,1-2.3-2c-4.1-4.6-6.5-11.1-9.2-16.5-7.1-14.3-14.4-29.3-19-44.6-4.1-13.7-5.5-27.9-7.9-41.9-2.6-15.7-4.3-31.8-7.4-47.3C340,44.717,338.1,38.816,340,38.516Zm455.8,66.1a77.848,77.848,0,0,1,2,19.2c0,2.8.6,5.9.6,8.3,0,3.1-.9,6.8-1,10.1-.3,6.3-1.1,12.4-1.7,18.7a28.769,28.769,0,0,0-.1,5.1c.1,2.1-.1,4.8-1.7,6.3v-4.2c-1.5,2.9-3.3,5.4-6.7,6.1,2.3,2.1.9,3.5-.9,5.2.8.2,1.6.4,2.3.6l-5.1,4.5a5.716,5.716,0,0,0-.7-.8c-.9.5-1,1-.1,1.6-1.7,1.4-3.5,3.4-5.6,4.2-.1.1-5.3,0-1.6,1.1-1.7,1.3-3.3,2.5-5,3.8,0-1.1,1.1-1.8-.6-2.5-1.7,3.3-2.1,3.9-5.4,5.6-2.9,1.4-5.8,2.9-8.7,4.3a6.464,6.464,0,0,0-3-4.5c.6,1.2,1.5,2.7,1.4,4.1-.1,2.5-.9,2.2-3.2,3.3a88.582,88.582,0,0,1-10.9,4.9c-7.2,2.2-14.5,3.3-21.8,4.8-7,1.5-14,3.5-21.1,4.7-7,1.2-15.2,1-22.3.6-7.7-.4-15.5-.5-23.2-.3a92.168,92.168,0,0,0-12.9.9c-3.9.6-7.7-.2-11.7-.1-3.7.1-4.7-.9-7.8-2.4-3.2-1.5-7.9-2-11.5-2.3-1.2-.1-2.5.9-3.5-.2-1.6-1.8.9-2.7,2.2-3.9,3.8-3.6,6-5.8,11-7.4-.9-.2-1.7-.4-2.6-.6,18.3-4.9,35-13.2,52.5-20.3,7-2.8,13.7-5.5,20.6-8.4,8-3.4,16.1-6.8,23.8-11a488.772,488.772,0,0,0,43.2-26.4C769.3,127.516,781.1,114.217,795.8,104.617Zm-173.2,112.7c-.9.5-.7,1.1.7,1.8C624.1,218.617,623.9,218.016,622.6,217.316Zm-78.8.2Zm-2.8-4.6-.5,4.7h3.2v-.2C543.6,215.516,542.1,214.217,541,212.917Zm-131-53.4c7.7,5.5,13,14.7,18.6,22.2,5.8,7.8,12.1,15.1,15.9,24.1-1.9-.6-2.7-3.2-4.1-4.6a13.547,13.547,0,0,1-3.3-3.8,97.129,97.129,0,0,0-8.8-12.5C421.2,176.717,414.6,169.316,410,159.516Zm267.7,40.9c-2.3,0-1.6,1.5-1.8,3.6Zm-5.6.2C671.1,203.417,674,203.516,672.1,200.617Zm-177.2-3.5c-1.7,1.2-.5,4.3,1.1,2.6l.1-.1Zm2.4-5-1,1.1c.5.8,1,.6,1.4-.7C497.6,192.316,497.4,192.217,497.3,192.117ZM358.4,54.917c6.8,4.4,13.3,9.3,19.8,14.2,1.7,1.3,3.5,2.7,5.2,4,.6.4,1.2.9,1.7,1.3a3.231,3.231,0,0,1,2.2,2.7c2.3,1.5,4.8,2.7,7.4,4.6-.8.6-1.7,1.2-2.5,1.9,2.3,1.5,5.6,1.6,6.1,4.9.6-.9,1.3-1.8,1.9-2.6,8.2,5.7,17.4,9.2,25.7,14.5,7.4,4.7,14.6,11,20.9,17,3,2.9,6.6,5.1,9.9,7.7,1.7,1.3,2.6,1.4,2.4,3.2-.2,1.7-2.7,4.3-3.6,5.7-4.4,6.7-10,14.4-11.9,22.3-2,8.4,3.1,18.8,5.3,26.9.7,2.6,2.1,5.5,2.3,8.2.2,2.3,1.2,3-1.4.9-3.5-2.8-6.2-7.8-8.9-11.3-5.6-7.5-10.9-15-17.1-22.2-1.5-1.8-4.4-4.1-5.4-6.3-.4-.9-.1-2.4-.5-3.1-.8-1.3-1.7-1-2.4-2-.9-1.2-1.3-3.1-1.8-4.5-.4,1.1-.7,2.2-1.1,3.3-12-13.2-20.7-28.9-29-44.5-4.1-7.8-8.3-15.6-12.3-23.5-2.1-4.2-4.2-8.5-6.6-12.6C363,62.516,358.5,58.516,358.4,54.917Zm196.5,133.5.8-.2C554.9,185.516,554.2,185.816,554.9,188.417Zm211.7-77.1a22.438,22.438,0,0,1-5.1,5.1c-1.7,1.2-3.3,2.1-4.5,3.9-1.8,3.8-7.8,6.4-11.2,8.6-4.8,2.9-9.8,5.8-14.5,8.9-10.3,6.8-21.2,12-32.5,17.2-9.9,4.7-19.8,9.7-29.7,13.6-5.2,2.1-10.3,4.5-15.4,6.8-3,1.4-6.1,2.7-9.1,4.1-2.4,1.1-6.6,4.3-7.5,1.2-.7.7-1.2,1.5.2,1.8-2.2,1-4.4,2-6.6,3.1-2.1,1-2.7,2.1-2.9,0-.1-1.1,2.7-4.1,3.2-5.2.8-1.6,1.4-3.2,2.1-4.8,2.9-7.5,4.6-15.2,7.3-22.7.7.4,1.4.7,2.1,1.1,1.1-2.8,1.4-.3,3.4-1.1.7-.3.8-2,1.5-2.3.2-.1,1.2.8,1.7.7a20.209,20.209,0,0,0,5.5-1.4c.6-.3,1.7-1.8,2.2-1.9.7-.2,1.8.9,2.7.7,1.5-.3,2-2.1,3.4-2.7,1.1-.4,2.7-.2,3.8-.4,2.6-.4,6.2,0,7.3-3.1,3.9,1.9,7.8-.7,11.3-2.4,1.8-.9,3.4-.9,5.3-1.6,2-.8,3.5-2,5.6-2.6,3.3-.9,6.2-2.6,9.1-4,2.2-1.1,7.7-5.9,9.2-3.5,1.7-3.1,8.2-4.3,11.6-5.3,4.9-1.5,9.8-2.9,14.8-4.3,4.4-1.2,8.5-2.9,12.8-4.2C757,113.316,763.2,110.516,766.6,111.316Zm-208.5,69.9c-1.1,1.2-1.9,2.1-2.8,3.1C557.1,184.816,557.1,184.816,558.1,181.217Zm-54-12.2c.2.8-1.1,1.6-1.2,2.3,1,.2,1.4.8,1,1.6-.1.5-.1,1-.2,1.5,0,2.4-1,5-1.6,7.3-1.7-1.3-.4-2.9-.8-4.6-.5-2.4-.9-.9-1.9-2.3-1.4-2.2-.3-1.7.8-3.8.5-.9.8-4,.9-4C502.1,165.717,503.6,167.316,504.1,169.016Zm112.6-2.9v2.3C617.9,167.217,617.9,167.217,616.7,166.117Zm-109-7.9c1.1.6.9.2.9,2.1A1.817,1.817,0,0,1,507.7,158.217Zm283.1-2.8a15.861,15.861,0,0,1-.8,1.8C791,157.117,792,156.717,790.8,155.417Zm-282.1-2.6c1.6.4,3-.1,2.3,2.1.2-.7-2.4,1.4-2.7,1.6h0l.2-1.8A12.227,12.227,0,0,0,508.7,152.816Zm-133.9,1c-.9.3-2.4,0-2.3,2.2A25.217,25.217,0,0,0,374.8,153.816Zm208.7-3.1v1.8l2.2-.7Zm-70.1-2.1c-.4,1.3-.7,2.1-1.1,3.2C510.8,150.217,511.4,149.516,513.4,148.617Zm247.7-10.4c-1.1.2-1.2,2.2-1.4,3.2l2.4-.4A23.058,23.058,0,0,0,761.1,138.217Zm-350.7,1c.7.5,1.3,1,2,1.6C412.4,138.617,412.4,138.617,410.4,139.217Zm189.3-20.9c0,.9,1.8,3,2,4.4.3,3.2-1.8,5.9.2,8.9.4-1.8.9-3.6,1.2-5.4.2-1.8-.4-2.7-.3-4.2.1-1.7,1.8-4.5.1-5.7C601.5,115.417,599.7,116.717,599.7,118.316Zm-11.7,8.3c-1,1.9-1,1.9-.5,3.2C587.7,128.816,587.8,128.016,588,126.617Zm3-3.9c-1.6,1.3-1.3.9-.6,3.1,1.4-1.2,2.9-2.4,4.4-3.6C593.4,121.316,592.2,121.717,591,122.717Zm6.2-5.5a.777.777,0,0,0-.4.4c.3.5.6.9.9,1.4C598.8,118.417,598.6,117.816,597.2,117.217Zm3.6-7.1c-1.9,1.1-1.3,2.6-.8,4C600.9,112.917,601.8,111.717,600.8,110.117Zm22.7-.6c-1.6,1.3-.8,2.1,0,3.5.3-.1.5-.1.8-.2C624.1,111.717,623.8,110.617,623.5,109.516Zm-202.5,2.5c1.2-.3.9,0,.5-1.8C420.4,110.117,420.2,110.717,421,112.016Zm177.6-11.2c-1,.2-1,.9.1,2.1C599.8,102.617,599.8,101.917,598.6,100.816Zm-3.5-9.5c-.3,1.1-.6,2.2-.8,3.3C596.3,95.016,595.5,92.316,595.1,91.316Zm5.8-2.2c-.2,1.2-.5,2.3-.8,3.5.2.1.4.3.6.4l2.3-3.2Zm-5.3-3.6c-1,.1-.9,1.7.5,1.5A8.8,8.8,0,0,1,595.6,85.516Zm-204.8-4.3h-2.1C388.7,82.417,390.8,82.016,390.8,81.217Zm214.7-35.1c-.2,1-.4,1.7-.5,2.4C605.7,48.016,606.8,47.417,605.5,46.117Zm-2.8-13.2h0c-2.5.1-1.6,2.1-2.1,3.7,2.1-.4,1.8-2,2.1-3.6Zm0,0Zm-16.3-3.7c-.6,1.7-.1,1.9-2.2,1.1,1.1,2.1,3.6,0,5.1,1.3C588.3,30.816,587.4,30.016,586.4,29.217Zm0-4.2c.5,1.9,1,3,3.1,2.5C588.4,26.617,587.6,26.016,586.4,25.016Z" fill="#34558b" fill-rule="evenodd"/><g id="Ink"><path id="Fill-1" d="M483.4,299.417c.7.1,2.4-5.6,2.7-6.5.2-.6,1.5-3,1.2-3.5-.2-.4-3.6-1.6-3.9-1.8Zm-278.2-144.1c.4-6.1-.1-12.3.9-18.3.3-2.2,4.4-15.9-.6-11.3-3.9,3.6-4.5,10.4-4.3,15.3.1,3.5-1.5,14.9,4,14.3Zm315.7,158.2c-5.2-5.1-11.2-10-17.9-12.8-3.9-1.7-4-1.1-5.7,2.6-1.5,3.4-3,6.7-4.2,10.2Zm-70.9-.8c-6-9.5-16.2-18-25.8-23.8.9,2.3.9,4.6,1.3,6.9.4,2.4,1.5,4.2,2.1,6.4,1.2,4,.3,8.8.3,13,7.4-.8,14.8-1.7,22.1-2.5Zm20.2-48c-.2-7.9,3-15.1,4.9-22.6-10.4,1.7-11.7-16.8-18-21,1.2,8.4,1.8,16.7,2.7,25.2.4,3.7.5,8.8,1.8,12.2,1.3,3.5,5.3,4.5,8.6,6.2Zm21.9,14.6c2.1-1.9,3.7-6.2,5.3-8.8a76.684,76.684,0,0,1,7.7-10.3c5.2-6.3,11.3-11.9,16.4-18.3a131.55,131.55,0,0,0-17.3,3.3,48.507,48.507,0,0,0-9.1,3c-2.4,1-5.2,1.1-7.4,2.1-4.5,1.9-3.5,13.7-4.1,17.9-.3,2.2-1.4,4.4,0,6.3,1.8,2.1,6.2,3.6,8.5,4.8Zm-202.3,36.5c-8.7-1.5-16.7-3.7-23.7-9.3-6-4.8-11.2-10.6-16.3-16.3-1.2-1.3-2.2-2.7-4-3.2-1.3-.3-2.6.4-3.9-.4-1.1-.7-1-2.2-1.9-3-1.4-1.3.6-.6-1.5-1-1.4-.3-3.7.9-5.2,1.3-3.5.8-7.1,1.4-10.6,2.2-3.4.8-5.3,3.4-8.4,5.2-3.1,1.7-6.1,2.4-8.8,4.7-2.8,2.4-6.2,3.7-9,5.9-2.3,1.8-2.2,5-4.8,6.8-1.1.8-2.6.8-3.5,1.8-1.1,1.1-1.6,3-2.6,4.2-2.5,3.3-4.3,4.9-5.7,9s.3,7.5-.4,11.6c-.6,3.7-2.7,7.1-2,10.8.7,3.5,2.6,6.6,1.9,10.4-.4,2.1-1.7,3.7-1.3,5.8.2,1.6,1.5,3.1,2.1,4.6,1.3,3.1,2.4,7.1,1.8,10.5-.3,1.6-1.7,2.6-2.1,3.9-.6,1.9.8,4.2,1.4,6.5,1.1,4.2,1.5,8.6,2.5,12.8.6,2.5.8,6.9,3.5,8.1,3.2,1.3,5.8-1.4,8.6,2.1,4.6,5.6,4.6,14,9.2,19.9,2,2.5,4.7,5,8,5.3,2,.2,3.3-.7,5.2,0a7.091,7.091,0,0,1,3.3,3.1c1.5,2.6,1,6,2.5,8.7.9,1.7,4.4,5.6,6,6.5,2.6,1.4,3.9.8,6,3.5,2.4,3.1,4.2,7.1,7.2,9.7,2.9,2.5,4.9,1.2,8.2,1.4,3.3.3,4.4,3.3,6.3,5.8.7.9,2.3,3.6,3.4,4,1.6.5,1.1-.3,2.5-.9,2.9-1.3,4.8-2.1,7,.8,2.3,3,2.8,7.1,5.1,10.3,2.5,3.4,4.3,2.9,8,3.4,3.3.4,5.8,3,8.2,5.1,4,3.4,5.2,3.5,10.1,2.2,2.9-.8,4.5-.5,6.3,1.9,2,2.6,3.9,8,6.8,9.5,2.3,1.1,4.7-3.8,7.9-2.9,2.8.8,6.2,5.1,8.8,6.7,2.5,1.5,6.1,4.2,9.2,4.3,1.4.1,2.5-.9,3.8-.9a16.271,16.271,0,0,1,5.2,1.5c3,1.3,4.7,4.2,7.7,5.9,4.6,2.5,6.4.2,10.7-1.4,4.5-1.7,6.5.6,10.4,2.2a51.816,51.816,0,0,0,10.4,3c3.9.6,7.4-2.4,11.4-2.4a6.983,6.983,0,0,1,4.8,1.6c.7.5,1.3,1.3,2,1.9,2,1.9,1,1.6,3.3.8,2.7-1,5.6-2.8,8.7-2.1,2.3.5,4.7,5.2,6.6,5.1.9,0,3.3-3,4.1-3.7,1.7-1.6,2.8-2.9,5.3-2.3,1.9.4,2.9,2,4.4,1.5,1.3-.4,3.2-3.1,3.6-4.2,1.2-3.2.4-7.5.8-10.8.5-4.6,1.7-9.2,2.4-13.8.7-4.4.8-8.8,1.4-13.1.5-3.3,2.5-7.5-1.7-9-3.3-1.2-5.3-.5-8.3-2.9-3.4-2.7-5.7-2.5-10-2.4-9.1.2-15.4-5.8-23.6-8.7-7.4-2.7-14.5-6.1-22-8.9-4-1.5-7-3.6-10.6-5.6-3.3-1.8-7.7-1.4-11.4-2.5-7.3-2.4-14.3-5.5-21.6-7.6-4-1.2-8.2-1.7-12.3-2.9-4.6-1.5-7.7-4.2-11.1-7.5-3.9-3.8-14.8-12.5-12.4-18.8,2.5-6.7,14.7,6.9,17.7,8.7,2.6,1.6,5.5,3.5,8.3,4.3,3.8,1.1,6.8-.4,10.5,1.2,7.7,3.2,15.1,8.1,23.1,10.5,3.6,1.1,7.8.9,11,2.7,3.3,1.9,6.3,4.2,9.8,6a175.771,175.771,0,0,0,22.1,10c-2.5-13.4-5.1-27.1-8.4-40.4-3.4-14-2.2-28.5-3.9-42.7-6.1,3.9-12.4,7.1-18.6,10.5-6,3.3-12.3,4.9-18.8,7-7.1,2.3-14.5,5.6-21.8,6.5-7.4.9-15.7,1.8-23.2,1.3a284.517,284.517,0,0,1-43.1-5.9c-2.2-.5-4.2-1.3-6.5-1.2-1.4.1-3.5,1.1-4.8.3-2.8-1.7-.5-6.1,1.1-7.8,2.2-2.2,4.5-3,6.6-5.6,3-3.8,6-7.5,9.2-11,6-6.7,13-13.4,17.2-21.5,4.6-8.7,8-17.9,11.7-27a106.126,106.126,0,0,0-12.5-1.2Zm202.5,9.9c-4.3.4-8,.1-12,.4a84.237,84.237,0,0,1-18.1-.9c-5.4-.7-10.6.6-15.9.1-5.5-.5-11.2-.5-16.9-1.1-3.5-.3-3.3.5-4.3,3.8a42.49,42.49,0,0,1-3.9,9.3,96.926,96.926,0,0,1-10.9,16.1c-1.9,2.3-3.9,4.6-5.9,6.9-2.4,2.7-4.1,3.8-3.3,7.5,1.3,6.3,3.3,12.5,4.2,18.8.8,6.1.8,12.2,1.9,18.3,1.2,6.5,2.7,12.9,3.8,19.4,1,6.2,1.8,12.4,2.6,18.6.6,5.1.2,14.6,5.1,17.9,2.3,1.6,6.4,1.8,9,1.5,2.7-.3,5.3-2.2,7.9-2.1,2.4.1,3.4,1.7,4.9,3.3,2.5,2.7,2.5,3.4,5.9,3.4,2.1,0,2.4-.7,4.5.8s3.6,4.4,6.4,5.1c4.6,1.1,12.1-4.9,16.1-6.9,12-6,25.6-7.5,37.8-12.5a133.574,133.574,0,0,0,16.8-8.7,45.989,45.989,0,0,0,7.6-5.5c2.2-2,6.6-5.2,7.6-7.8-6.7,0-13.2,2.8-20,1.1-6.6-1.7-4.9-10.4-4.2-15.3-9.4,1.4-27.1,6.5-24.9-9.3.8-5.7,5-10,9.3-13.3,3.4-2.5,9.2-4.6,11.1-8.7-7.3-1-25.2,1.9-26.3-8.8-1.2-11.3,10.1-17.3,18.9-21.1,10.7-4.6,22.1-8.9,33.7-10.8,5.1-.8,10.3-1.9,15.4-2.2,4.8-.2,11.5.6,14.7-3.8a74.184,74.184,0,0,1-18.5-5.4,81.525,81.525,0,0,1-7.5-4.4c-2.6-1.6-3.8-5.2-6.4-6.5-2.3-1.2-5.6.4-8.2.6-4.1.4-8.1.8-12.2,1.1a222.9,222.9,0,0,1-25.8,1.1Zm-220.6-97.6c3.7,1.3,7.5,2.7,11.3,4,3.2,1.1,7.8,2,10.4,4.3,7.7,6.6-4.8,6.6-8.7,6.8,1.7,5.8,3.9,11.6,5.2,17.5.4,1.9,1.5,6.4-.2,8-2.1,1.8-3.9-.7-5.4-2.4-8.1,8.8-19.3,13.3-29.7,18.6,7.8,7.1,15.3,15,25.9,17.4,5.1,1.1,9.9,2.4,15,3.2,2,.3,3.9,1.2,5.9,1.7.9.2,2.6,1.1,3.4,1,1.6-.2,1.6-1.3,2.4-3.2,4.3-9.4,8.4-19,15.5-26.7a40.9,40.9,0,0,1,12.3-9.2c4.9-2.4,10.6-2.2,15.7-4.4-6-8.6-12.3-17.3-15.7-27.3-1-3-.5-4.1-3.1-4.5-1.9-.3-2.8.8-4.4-.7-4-3.6.8-7.8,3.2-10.3,5.8-6,12.2-12.5,16.3-19.9,1.7-3.1,3.2-6.8,2-10.2-1.8-5.3-4.7-10.5-7.3-15.5-4.8-9.2-9.2-19.3-15.3-27.7-3.1-4.3-6.6-8.4-9.3-13-2.2-3.7-2.3-7.3-7.3-5.5a9.428,9.428,0,0,0-3.9,2.2c-1.6,1.3-1.5,2.3-3.9,3-2,.6-4.4.2-6.4.6-2.9.6-4.2,2.1-6.5,4-4.2,3.3-8.3,2.2-13.1,3.4-1.8.5-2,1.2-3.4,2.3-2.3,1.6-5.2,1.9-7.8,2.6-2.6.6-5.6,1.1-8,2.4-2.2,1.2-3.8,3.1-6.2,4.1-2.1.9-5.6.9-6.4,2.5-1.1,2.2.4,6.7.9,8.8,1.1,4.9,10.9,31.4,1,31.2.7,3.6.9,6.6-3.6,5.1-3.8-1.3-9-4-13.1-2.5-3.3,1.2-7.3,6.2-8.2,9.6-1.4,5.2.8,6.8,5.1,8.8,5,2.4,8.5,2.8,13.8,1a21.918,21.918,0,0,0,6-2.8c2-1.4,2.8-3.2,5.4-3.3a5.325,5.325,0,0,1,4.8,2.5c.5,1,.1,2,.4,3a4.338,4.338,0,0,0,1.5,2.7c3.8,4.7,8.1,6.1,13.5,6.8Zm38.4,324.8c4.2.8,8.3-.5,12.5.4,3.7.7,7.8,3.2,11.2,4.9,7,3.6,15.6,2.9,23.5,3.9,4.1.5,8.7-.2,12.5,1.3,3.7,1.4,6.9,3.3,10.8,3.9,7.7,1.1,15.8.1,23.4,0,7.8-.1,15.1,1.7,23.3.2,1.6-.3,3.4.3,4.8.1,1-.2,2.1-1.4,3.1-1.8,3.4-1.4,7.8-1.3,11.3-1.5,8.3-.6,16.1-.3,24.1-2.4,3-.8,25.5-3.7,25.3-4.8-11,.6-22.4.1-33.1-2.9-8-2.2-14.3-6.2-21.5-10a14.834,14.834,0,0,0-6.2-1.8c-3.1-.1-2.8.3-5.1,2.4-4.4,4.1-7.6,3.7-12-.2s-4.8.7-9.6,1c-5,.4-5.6-5.7-10.7-4.9-2.3.4-4.2,2.1-6.6,1.9-2.2-.2-3.6-1.7-5.6-2.4-2.3-.8-5.1-.6-7.5-1.2-2.7-.7-4.9-2.5-7.8-2.2-4.5.5-7.4,4-12.4,3-5.2-1.1-8.1-6.4-13.7-6.3-6.1.2-10.7.6-16.4-2.2-1.9-.9-3.2-2.4-5-3.4-2.3-1.2-4.7-.1-7.1-.8-4.6-1.2-7.4-7.1-10-10.7-2.1-2.9-2.4-2.9-6-3.4a32.929,32.929,0,0,1-7.6-2.1c-2.7-1.1-5.2-3.2-8-4.1-2.5-.8-5-.2-7.4-1.5-2.3-1.3-4-4.2-5.6-6.1l-2.4-3c-1.8-2.2-1.6-2.4-4-2.8s-4.2-.1-6.4-1.4c-2.4-1.5-3.9-4-6.2-5.7-1.9-1.4-4-1.6-6.3-2.4-3-1.1-5.3-2.9-7.8-4.6-.3,5.1.8,12.5-2.8,16.5-1,1-2.2,1.6-3,2.9-1.4,2.2-1.1.9-.6,3.9.6,3.4.5,4.9-.7,7.8-.2.6-1.6.7-1.8,1.3-.3.8.7,3.2.9,4.2.4,1.8.7,4.1,1.7,5.6,1.4,2,4.5,4.1,6.3,6a46.959,46.959,0,0,0,6.5,6.1c4,3,9.5,7.4,14.4,8.7,2.8.7,5.7.4,8.5,1.3s5,2.8,7.6,3.9c11.1,4.2,23.4,4.6,35.2,5.4Zm150.1-26.2c1.8,1,2.4.2,4.1.3,1.5.1,3.2.3,4.8.3a45.551,45.551,0,0,0,9.7-1.5c5.6-1.5,11.2-2.4,16.7-3.5,4.7-.9,9.3-3,14.1-4.7,6.2-2.3,12.8-2.8,19.4-3.2,6-.3,11.9-1,17.9-1.5s11.9.3,17.8-1.1a40.154,40.154,0,0,0,8.4-2.3c2.9-1.5,5.6-3.8,8.5-5.4,3.4-1.9,12.2-4.6,13.6-8.8-2.7.7-8.8,3-11.2,1.1-2.5-1.9-1.6-6.9-.6-9.3,1.5-3.6,4.6-4.6,7.4-7a75.317,75.317,0,0,0,5.6-5.7l2.7-3c-.4-1-1.1-1.1-2.2-.1-5.2.2-19.6,11.5-20.1,1.4-.3-5.4,3-8,6.2-11.7s5.7-7.9,8.4-12c-5.3.9-9.9,3.6-15,5.1-5.5,1.5-11.4,3.3-16.9,3.9-2.1.2-7.7,2.3-9.5,1.2-1.4-.9-1.7-4.8-1.8-6.3-.2-5.5,4.2-10,6.8-14.6-6.1,3.7-10.3,9-15.9,13.3-5.5,4.2-10.3,8.1-16.6,11.3-5.7,2.9-12.2,4.4-18.3,6.2-6.3,1.9-12.3,3.8-18.7,5.1-7,1.5-14,4-21.1,5.2-1.7.3-5.6-.7-6.6.5-.8,1-.2,7.7-.3,9.3-.6,7.6-2.1,15.1-3.4,22.6-.6,3.8-2.3,8.7-2,12.5.2,2.6.2,2.6,3.5,2.8a37.3,37.3,0,0,1,4.6-.4Zm73.1-109c-.9.2-1.1.6-.7,1.2,12.1-2.6,23.8-7.6,36.3-8.9,3.3-.3,6.1-1.7,9.4-1.9,1.5-.1,3,.1,4.5.1,1,0,3.5.7,4.2.6,2.8-.4,5.7-3.5,7.9-5.1,2.6-1.9,5.8-3.9,7.9-6.4,8.1-9.8,10.1-22.3,4.9-33.8-1.3-2.8-2.4-6-4.2-8.4-1.5-2.2-5.4-3.6-6.1-5.7-.3-.9.5-2.9,0-3.7-.5-.7-4.1-.9-4.9-1.1-3.6-.8-7.2-1.6-10.5-3.4-.9,2.6-.6,4.2-3.2,5.8-2.9,1.8-7.4,1.4-10.6,2.3-7,2-14.5,2.6-21.7,4.5-16.2,4.5-33.2,9.9-47.7,18.6,6.6,2.6,14.8,1.2,21.7,1.3,4.9,0,17.8-3,20.4,2.4,3.3,6.9-5.6,11.4-10.1,14.3-7,4.4-14.3,8.5-20.7,13.8a39.05,39.05,0,0,0,10.7-1.6c3.9-.9,7.8-1,11.6-1.9,5.9-1.4,13.6-7.6,20-5.1,5.6,2.2,3.7,10.7-.1,13.5-2.5,1.9-5.7,1.8-8.6,2.7-4,1.2-7,3.7-10.4,5.9Zm-146.5-336c-12.1-9-23.7-18.6-36.3-26.8.1,3.9,5.5,9,7.4,12.5,2.8,5.1,5.4,10.2,7.9,15.4,4.6,9.2,9.6,18.2,14.3,27.4,9.6,18.9,23.6,34.2,37.2,50.1,7.2,8.5,13.3,17.6,20.2,26.4,1.4,1.8,2.8,4.1,4.5,5.6,3.4,2.8,1.5-.6.8-3-1.6-5.6-3.2-11.3-4.7-16.9-1.4-4.9-3.5-10.1-2.5-15.3,1-4.9,3.9-9.2,6.3-13.5,2.3-4.1,4.8-8.1,7.4-12.1,1.2-1.8,2.6-3.2,1.7-4.8-1-1.8-4.8-3.7-6.4-4.9-8.9-6.5-16.5-14.7-25.7-21-5.6-3.8-12-6.5-18-9.6-5.1-2.6-9.6-6.1-14.1-9.5ZM689,254.417c-2.1-1.3-3.7-2.5-6-3.1-1.4-.4-2.9-.3-4.3-.8-4.2-1.4-7.8-3.6-12.3-4.5-7.6-1.6-15.3-3.7-23-3.7a240.056,240.056,0,0,0-25.4,1.3c-4.5.5-8.9,1.2-13.4,1.9-4.3.6-8.4.2-12.4,2.3,2.9,1.6,6.3,1.6,9.5,2.3,2.5.6,4.8,1.8,7.2,2.5,6.7,1.9,13.6,4,20.4,5.7,5.7,1.4,11.3,3.3,16.9,4.8,5.2,1.4,11.1,4.8,15.7,7.7,5.4,3.4,9.3,7.6,13.8,12.2,4.7,4.9,9.6,9.3,13.8,14.7,8.8,11.4,13.2,25.5,19.1,38.5,3-8.5,5.3-16.8,8.5-25.1,1.8-4.7,4.3-9,6.1-13.8.7-2,1.5-3.9,2.2-5.9,1.2-3.3,1.6-3.9-.2-7a28.6,28.6,0,0,0-8.2-9.1c-3.2-2.2-5.1-5.1-8.4-7.1-6.8-4-12.6-9.8-19.6-13.8Zm-59.5-72c12.4-4.6,24.1-11.3,36.2-16.3,1.1-.4,2.1-.1,3.2-.6,1.5-.7,2.8-2,4.3-2.7,3-1.4,6.2-2.4,9.1-3.8,7.3-3.5,14.7-6.9,22-10.4,11.7-5.5,22.2-13,33.3-19.7,4.7-2.9,9.3-6.3,13.4-9.4,4.7-3.5,8.3-9.1,13.5-12-1.8-.9-7.1,1.4-9,1.9-2.8.8-5.8,1.9-8.7,2.9-7.5,2.4-15.5,3.9-22.8,6.6-8,3-16.6,4.8-24.8,7.4-9,2.8-18.2,5-27.2,7.7-7.8,2.4-15.3,5.4-23.1,7.8-4.2,1.3-8.7,2.4-12.6,4.5-3.4,1.8-3.5,3.9-4.5,7.4-2.3,7.6-4.3,15.2-7.3,22.6-.3.7-5.4,9.8-5.3,10,.8,1,9.3-3.3,10.3-3.9Zm-247.9,55.6c3.7.1,6.9,1.1,10.5,1.7,3.9.6,7.9-.1,11.7.8,3,.8,5.9,2.1,8.9,3,3.7,1,7.7.3,11.3,1.6s7.1,4.5,10.4,6.4c2.3,1.4,5.1,5.7,8,3,1.6-1.6-.2-7.7-.7-10.5-.5-3,.1-8-2-10.4-2.8-3.3-8-3.3-11.8-3.3a49.948,49.948,0,0,1-11.5-1.7c-8.9-2.2-17.9-4.9-26.1-9.1a103.768,103.768,0,0,1-20-13.6c-6.4-5.5-10.4-12.1-14.4-19.5-1,3.6,1.3,8.4,1.3,12.1a31.689,31.689,0,0,1-3.4,13.9,57.76,57.76,0,0,1-6.8,10.8c-1.5,1.8-3.2,3.3-4.8,5-2.3,2.4-2.5,2.7-1.1,5.8,1.9,4.1,4.9,7.5,7.2,11.4.3.5,1.9,4.2,2.4,4.4,1.9,1.1,3.8-1,5.4-1.6,5.1-1.8,9.6.3,14.1-3.6,3.3-2.9,6.5-6.8,11.4-6.6Zm54.8-32.2c-5.7-13.5-16.7-25.6-25.6-37.2-4-5.3-9.2-9.1-13.4-14-4.5-5.4-9-10.6-13.4-16.1a104.24,104.24,0,0,1-11.7-17.7c-3.1-6.3-6.9-12.1-10.1-18.3-6.5-12.7-12.3-25.6-19.1-38.1a142.046,142.046,0,0,1-8.2-17.7c-.7-1.9-3.2-11.7-3.7-5.9-.3,3.5,1.5,8,2,11.5,1,7.2,2,14.3,3,21.5,1,7.9,3.2,15.5,4,23.4,1.5,13.9,3.9,28.8,8.7,42a452.65,452.65,0,0,0,18.1,41.7c3,6.2,5.9,13.1,11.1,17.7a72.792,72.792,0,0,0,18.6,12.4c6.4,2.8,13.8,6,20.7,6.8,8.6,1,15.3,1.7,23,6.4-.9-3.2-.3-5-.6-8.2-.4-3.5-2.3-7.1-3.4-10.2Zm9.8,74.8c0-3.3-.7-6.2-1.1-9.4a10.226,10.226,0,0,0-2.6-5.9l-.9-1.2c-.5-1.4-1.2-1.5-2.2-.2-.8-.1-1.4.3-2.3,0-1-.2-2.9-1.7-4.1-2.1-3.2-1-5.2-3.5-8.4-4.6-.5-.2-1.7.5-2.4.3a3,3,0,0,0-2.8-1.1,21.112,21.112,0,0,1-2.5.1c-4.5-.3-7.5-2.6-11.6-3.8-4.5-1.3-8.9.1-13.4-.2-3.5-.2-6.1-2.1-9.8-1.9-4.8.2-3.5,2.2-2.9,6.5.5,3.7.1,5.9,4.2,6.5,3.8.6,7.1-1.2,11,0,4,1.3,7.4,4.1,10.3,7.1,1.6,1.6,2.5,3.2,4.7,3.6,1.6.3,3.8-.5,5.4-.6a19.186,19.186,0,0,1,11.8,3.2c7.6,4.6,14.2,10.7,20.6,16.8,0-4.3.4-8.9-1-13.1Zm116.3-36.5c6.8-7.3,19-10,28.1-12.8-2.6-3-7.7-6-11.7-6-4.1,0-9.5,2.4-13.4,3.7-8,2.9-14.2,9.2-20.4,14.7-14.9,13.4-27.2,28.5-39.9,43.9,5.7,3.6,11.8,7.8,16.6,12.6a56.374,56.374,0,0,1,6.6,7.2,32.388,32.388,0,0,1,1.7,3.2c1.2,2,0,2.3,2.7,2.1-5.5-12.5-8-29.2-5.1-42.6,1.7-7.7,7.1-14.1,13.6-18.3a41.142,41.142,0,0,1,10.5-5.2c2.4-.8,9.5-.5,10.7-2.5Zm234.7-122.8c.6-4.4.6-8.9,1-13.4.4-4.3,1.3-8.2.4-12.5-3.1,1.2-3.9,1.9-6.2,4.2a57.85,57.85,0,0,1-8.4,7.3c-7,4.6-13.5,10.3-19.9,15.8-13,11.2-26.4,23.5-42,31.2-14.6,7.2-28.7,15.2-43.8,21.5-7.1,3-13.8,5.6-21,8.6-8.3,3.5-16.4,7.7-24.8,10.8-4.1,1.5-8.2,3.1-12.3,4.6-4.3,1.6-10.2,2.2-14,4.6-3.2,2-5.9,5.6-8.6,8.2-4.8,4.5,1.4,3.3,4.7,3.8a34.9,34.9,0,0,1,11.2,3.5c3.2,1.6,6.9.6,10.4.9,4,.4,7.3-.4,11.2-.5,4.8-.1,9.6-.4,14.5-.4,8.3.1,16.7.5,25,.1,3.6-.2,7.2,0,10.8-.1,4.2-.2,7.9-1.7,11.9-2.4,15.8-2.8,31.8-5.6,46.3-12.7a143.363,143.363,0,0,0,40.7-28.8c7-7.1,8.7-13.8,9.4-23.7,1-10.2,2.5-20.3,3.5-30.6Zm-285.9,419.9a185.06,185.06,0,0,0,29.4-6.1c4.7-1.5,9.3-2.9,14.1-4.2,5.3-1.5,6.3-2.5,8-7.7-6.6,1.6-12.9,3.4-19.7,4.4-3.4.5-6.5,1.8-9.9,2.3-3.9.6-7.9-.6-11.7-.2-3.6.4-7.2,2.8-10.7,3.8-3.1.9-6.1,1.1-9.2,2.1a88.657,88.657,0,0,1-9.2,2.5c-2.9.6-5.6-.3-8.2,1.6a30.868,30.868,0,0,0,13.7,1.7,30.543,30.543,0,0,1,7.4-.1c2.1.1,4.2,1.1,6-.1Zm63.9-105a108.292,108.292,0,0,1,1.5-16.1c-5.9-1-10.6,3.1-15.9,4.8,4.3,7.7,4.8,12.7,2.3,21.4,2.7-1.2,5.5-2.2,8.2-3.3a9.934,9.934,0,0,0,2.9-1.5c1.9-1.7,1.3-2.6,1-5.3Zm-104.8-126.3c-.1-6.6-.1-13.1-.5-19.7a66.411,66.411,0,0,0-.5-8.9c-.6-3.4-3-4.7-5.6-7-.9,6.4.4,14.2,1,20.8.3,3.9.3,6.9,1.4,10.5,1.3,4.3,0,6.2,4.7,7.5a30.6,30.6,0,0,0-.5-3.2Zm-78.9,45.3c6.4-3.7,10.4-9.1,15-14.7,6.1-7.3,10.2-12.9,12.6-22.2,1.7-6.6,3.5-17.1-.2-23.3-1.7-2.8-4.8-7.6-7.8-8.9-3.2-1.3-7.7,1-10.6,2.2-7.7,3.3-14.4,8.2-21.8,12.2-8.1,4.3-15.9,10-23.3,15.5-14.6,10.8-27.8,21.5-41.6,33.2-5.4-6.3,7.1-17.7,11.8-21.6,6.9-5.7,13.4-12.2,20.7-17.8a319.858,319.858,0,0,1,26.5-18.3c4.3-2.6,8.6-6,13.2-8,1.9-.8,3.6-1.1,5.4-2.2,1.5-1,2.8-2.2,4.6-2.8-1.3-2.3-9-5.7-11.7-6-5.2-.6-11.9,1.1-16.9,2.2-9.4,2.1-19.3,3.7-28,7.6-4,1.8-6.8,4.2-10,7.2-4.1,3.8-5.8,8.3-8.1,13.4-4.8,10.6-10,21.1-14.6,31.7-4.2,9.8-8.4,18.1-15.9,25.9-3.2,3.3-6.4,6.6-9.8,9.6-1.9,1.6-10.8,7.5-9.3,9.7.6.9,7.4.5,8.7.6,2.7.3,5.4.7,8.1.9,5.4.4,10.2,1.2,15.6,1.1,5.3-.1,10.5.5,15.8,0,5-.4,10-1.1,15-1.7,11.2-1.5,21.8-6.7,32.2-10.7,4.7-1.8,8.7-4.1,13.1-6.2,3.8-1.7,9.3-5.3,11.3-8.6Zm-31.2-99.7c-1.6,0-4.5-.8-5.2.6-.4.8,1,3.4,1.3,4.4.6,1.8.7,3.2,2.2,3.8,1.5.5,5.7-.8,7.4-.9,2.2-.2,4.1-.6,6.3-1-.7-1.8-1.1-4.8-2.8-5.9-2-1.4-7.1-.8-9.2-1Zm293,28.9c-1.6-1.8-3.3-1.5-5.3-2.2-2.6-.8-5-2.4-7.4-3.5-5.1-2.4-10.6-3.2-15.8-5.2-10-4-19.6-7.7-29.7-11a126.931,126.931,0,0,0-16.1-4.2c-5.1-.9-12.3-3.2-17.3-2.4-8.5,1.5-20.2,10.9-23.2,18.9-1.7,4.7-.4,9.1.5,13.7,1.2,5.7,2.2,11.6,4.5,17.1,3.9,9.4,14.6,12,23.3,14.7,9.6,3,19.2,4.3,28.8,7.3,4.8,1.5,9.8,2.2,14.6,3.6,4.6,1.4,9,2,13.9,3,12.8,2.6,25.7,4.5,38.6,6.6,6.7,1.1,13.4,2.3,20.1,3.4,2.8.5,5.7.4,8.5,1.2,3.2,1,5.2,2.2,8.7,1.4-6-11.8-9.9-24.4-18.2-34.9-8.5-10.8-17.2-20.5-28.5-27.5Zm-97-71.5c5.1-1,10.3-1.9,15.3-3.2a35.035,35.035,0,0,0,6.1-2.4c2.1-1,2.6-2.3,4.2-3.6a1.662,1.662,0,0,0,1.9-.2,3.747,3.747,0,0,1,1.6-2.1,54.5,54.5,0,0,1,4.6-3.8c3.8-3.2,7.3-6.9,10.9-10.3a46.667,46.667,0,0,0,9.3-11.9c.6-1.1,2-3.1,2.4-4.1.4-1.3.3-2.8.9-4,.5-1,1.9-1.7,2.5-2.8.9-1.7.7-4.1,1.3-5.9,1.4-4.2,3.2-8.3,4.4-12.5,2.8-9.7,2.4-21.2,2-31.3-.2-5.3-1.9-10.5-3.3-15.5-1.3-4.9-2.3-10.1-4.2-14.7-1.4-3.3-3.5-6.1-4.8-9.4-1.8-4.7-3.7-9.1-5.1-14-2.8-9.9-7-19-11.8-28.1a152.259,152.259,0,0,0-6.9-18.5c-5.4,4.7-11.3,9.2-16.2,14.4-4,4.2-8.7,9-13.1,12.8-5,4.4-9.7,8.5-15.1,12.5-2.9,2.1-5.2,4.9-7.9,7.3-2.8,2.5-5.9,4-8.4,6.8-2.4,2.6-4.3,3.7-6.9,5.7-1.9,1.4-3.4,3.8-5.3,5.4-5.3,4.5-9.8,9.9-14.7,14.8a361.556,361.556,0,0,0-31.2,34.2c-1.3.8-2.9,3.6-4,5.1-1.9,2.6-3.3,5.6-5.1,8.3-2,3-4.2,5.9-5.9,9-.9,1.6-1.2,3.8-2.2,5.2-.6.8-1.7,1.3-2.4,2.2-4.4,6.2-3,11.7-.8,18.5,2.2,6.9,3.7,13.7,6.8,20.3,3.3,7.1,6.3,14.3,9.4,21.5,1.5,3.4,3,6.7,4.5,10,.9,2,2.2,7,4.3,8.2,3.9,2.1,3.5-4.2,4.2-6.7.8-3.1,2.1-6.1,3-9.2,2-6.7,6.8-14.3,7.4-21.1,4.9-10.4,6.2-22.2,11.7-32.5,2.4-4.4,4.2-8.7,7-12.9a61.2,61.2,0,0,0,7.4-13.8,75.885,75.885,0,0,1,8.7-16.1c1.5-2.2,3.1-3.9,4.5-6.1,1.8-2.9,3.5-5.9,5.3-8.8,7-11.5,14.9-23.1,22.9-33.9,3.5-4.7,6.9-9.5,10.8-13.4,1.9-1.9,11.3-15.8,13.7-15.1,7.1,2-11.8,30.3-13.6,33.4-6.6,11.2-12.5,23.1-19.4,34.1-7.2,11.5-14.2,23-20.3,35.2-3.2,6.5-5.2,13.6-8.9,19.8a182.951,182.951,0,0,0-9.6,18c-3.1,7.1-5.4,14.7-8,21.9-2.2,6.1-7.3,13-7.4,19.6,5.1-1.3,10.4-2.1,15.6-3.1,5.4-1,10.7-3,16.1-4.5,10.9-3,22.1-3,31.8-8.7Zm-218.6-63.7c.4,1.5.7,3.1,2.3,3.8q-1.2-3.75-2.7-7.5c.2,1.2.3,2.5.4,3.7Zm-145.8,504c-1.6-16.7-2-33.9.7-50.5.6-3.8.6-8.1,2-11.7,1.5-3.9,1.1-7.3,2.1-11.4,1.9-7.9,4.4-15.8,6.3-23.8,2-8.1,5.1-13.9,9.4-20.9a100.613,100.613,0,0,1,6.6-9.1c1.2-1.6,1.6-1.5,1.9-3.6.4-2.8-.8-5.3-1.1-8a24.963,24.963,0,0,1,2.1-11.1c1.6-3.8,2.2-7.8,3.8-11.5,1.5-3.3,4.1-4.9,4.6-8.6.5-3.2,1-7,1.2-10.2s-1.8-5.7-4.3-7.3c-1.1-.8-2.2-.9-3.3-1.9-1.2-1.1-2.4-2.9-3.5-4.1-2.3-2.5-3.4-7.8-5.8-9.2-1.6-.9-4.1-.6-5.9-1.2a13.722,13.722,0,0,1-5.3-3.2,33.193,33.193,0,0,1-6.7-8.6,40.5,40.5,0,0,1-2.6-5.6c-.5-1.1-1.3-5.4-2.2-6-2.1-1.3-6,1.5-8.8-.3-3.5-2.2-5.3-7.7-6.3-11.5-1.1-4.2-1.1-8.7-2.1-12.9-1.1-4.9-2.2-9.7-3.1-14.6-1.6-8.7-3.3-18.2-2.5-27.1.2-1.9.8-4.1.6-6.1-.1-1.8-1.1-3.5-1.3-5.4-.3-3.7,1.6-8,.6-11.2-1.4-4.7-3.2-7-1.3-12.2,1.3-3.5,4.6-6,5.7-9.2.5-1.6.1-3.4.5-5.1.6-2,1.9-2.8,2.9-4.5,1.9-3.3,1.9-5.7,5.3-7.9,4.4-2.7,5.2-4.3,7.9-8.5,1.8-2.9,5.7-5.2,8.8-6.8,3.6-1.8,7-4.1,10.7-5.8,1.9-.9,4-1.5,5.8-2.5.9-.5,1.5-1.4,2.5-1.9,3-1.4,9-1.1,12.1-.8,4.2.5,8.5,1.8,9.8,6.3,2.3-2.2,6-2.9,8.7-4.2,3.2-1.6,6.9-2.1,10.2-3.8,7.7-3.8,14.8-7.7,23.2-9.8-1.6-5.4-2-11.3-6.7-14.7-4.4-3.2-9-5.9-13-9.6-2-1.8-4.1-3.6-6-5.5-1.4-1.4-2.8-4.6-4.7-4.9-1.3-.2-4.4,2.2-5.6,2.7a30.35,30.35,0,0,1-8.3,2.4c-10.1,1.2-20.6-6.2-22.7-16.1-2.8-12.9,1.3-20.4,10.8-28.6-1.5-.9-3-1.8-4.6-2.7l-1.5-.9c-1.2-1.4-2-1.2-2.5.5-2.6,1.8-4.1,4.8-7.1,6.5a14,14,0,0,1-8.3,1.9,15.539,15.539,0,0,1-5.2-.7,9.485,9.485,0,0,1-2.7-1.7c-.7-1.4-1.7-1.5-2.8-.3-2.5.5-4.4,2.1-7,2.4a20.667,20.667,0,0,1-4.3.2c-1.6-.3-1.8-1.9-3.1-2.3-3.1-1.1-6.7,2-9.5,1-2.2-.8-5.2-4.3-6.2-6.3-1.4-2.7-.9-6.2-2.9-8.5-1.7-2-4.2-2.9-5.9-5.1-2.1-2.7-2.6-5.6-3.4-8.9-1-4-3.3-7.5-4.6-11.4-2.3-6.6-2.9-13.9-.4-20.5,1.2-3.1,2.9-4.2,4.6-6.8,1.9-3,2.2-7,3.9-10.2,1.3-2.3,2.3-4.4,4.5-5.8,2.7-1.8,5.1-1.8,7.3-4.5,1.9-2.4,3.2-4.8,6-6.5,2.4-1.5,5.9-.9,8.1-2.3,2.3-1.5,2.9-4.2,5.8-5.4a17.135,17.135,0,0,1,8.1-1c3.3.3,6.8,1.6,10.2,1.3,3.3-.4,5.6-2.7,9.1-3.2,3.6-.5,7.1-.5,10.4,1.3,2.8,1.5,4.8,5.3,7.9,5.9,2.7.6,4.3-.7,7.2.3,2.4.9,4.5,1.6,5.8,4.1.4.7.5,3.1,1.1,3.5,1.3,1.1.5.4,2.3.1,3.5-.5,7.4-2.9,10.8-4.1a65.474,65.474,0,0,1,10.7-3.1c1.2-.2,3,0,4.1-.3,1.3-.4,2.1-1.3,3.4-1.9,6.6-2.7,13.6,1.2,20.2,1.8,4.5.4,5.7,1.1,8.4,4.8,2.3,3.1,4,2.8,7,4.4,2.7,1.4,5.4,5.8,6.9,8.4,2.1,3.4.9,6,1.6,9.4.6,3,3.7,3.9,5.8,6,3,3,5.6,6.5,8.4,9.7.6-4.4-2-9.1-3.1-13.2-1.4-4.9-1.4-9.7-2.2-14.6-1.5-9.2-3.2-18.4-3.9-27.8-.7-10-1.3-20-2.4-29.9-.5-4.3,0-8.5-.3-12.8-.1-2-.3-3.9-.3-5.8,0-2.1-.8-6.9,0-8.7,1.5-3.1,5.2,1.2,7.5,2.3,1.6.7,3.4.8,4.9,1.7,2.4,1.3,3.3,3.5,4.9,5.5,5.1,6.6,13.6,11.2,20.5,15.8,16.5,11.1,32,24.2,48.9,34.6,9.1,5.6,18.4,10.5,26.9,17.1,7.2,5.5,17.4,12.8,20.3,21.9,4.4-2.8,6.3-8.1,9.6-11.9,3.8-4.3,7.4-8.8,11.1-13.2,2.4-2.8,5.2-4.5,7.6-7.2,3.6-4,7.4-8.2,11.4-12,14.6-13.7,29.8-26.5,45.6-39,4.6-3.6,9.2-7.1,13.7-10.8,4.6-3.8,8.6-8.4,13.4-11.7,4.2-2.9,7.7-6.6,12-9.4,2.7-1.7,9.2-7.5,12.8-5,1.2.8,1.2,2.3,1.6,3.5a49.578,49.578,0,0,0,4.3,7.8c3,4.8,5.3,10,8,15,2.6,5.1,5.6,9.9,7.5,15.3,2.1,5.9,3.9,12,6.3,17.8,5,11.8,10,23.1,12.6,35.8,1.4,6.9,2.2,13.8,3,20.7a59.179,59.179,0,0,1,.2,11.9c-.2,2-1.9,7.1-.5,8.7,10.8-5.9,21.1-11.4,32.8-14.5,5.4-1.4,10.7-4.2,16.1-5.7a201.579,201.579,0,0,0,19.9-6.6c5.9-2.4,12.2-3.9,18.2-6.1a200.324,200.324,0,0,1,20.4-6.2c13.8-3.5,28.7-6.7,41.9-11.9,3.7-1.5,7.3-3.3,11-4.6,2.4-.9,6.3-3.1,8.8-2.9,5.5.6,5.7,11.4,5.6,15.6-.1,13.2-.3,26.4-1.9,39.7-1.7,14.3-1.5,29.8-7.1,43.3-4.8,11.7-16.3,21.5-27,27.8-6.9,4.1-14.1,9.1-21.5,12.3-6.4,2.7-12.8,4.9-19.3,7.3-13.8,5.2-28.3,9.2-43.1,10.8a89.213,89.213,0,0,0,9.5,5.4,72.648,72.648,0,0,1,9.7,6.7c5.6,4.1,11.2,8.4,15.8,13.7,6.1,7.1,10.4,13.3,11.7,22.9,1.2,9.3-4,18.4-7.1,26.9-3.7,10.1-7.4,20.1-10.5,30.4-1,3.3-3.6,8.6-3.1,12.2.3,1.7,1.6,2.8,1.6,4.7-.1,4.2-2.1,3.9-5.3,3.5-4.3-.6-8.7-.7-13-1.5-4.1-.7-8-.5-12-1.1-4.1-.6-8-1.1-12.1-1.4-2.1-.1-4.3-.2-6.4-.2s-3-.7-4.9-1-3.9.5-5.9.2c-2.1-.3-4.4-1.5-6.5-1.5-2.7,0-2.7.3-5.3-.5-2-.6-3.9-.2-5.9-.4a98.408,98.408,0,0,1-13.2-2.2,80.48,80.48,0,0,0-8.4-1.1c-2-.3-4.1-1.7-6.2-1.6,5.6,8.9,7.6,16,7.5,26.5-.1,9.8-3.9,18.5-9.4,26.5-4.9,7.2-10.6,11.3-18.7,14.1-4.8,1.7-6.7,1.1-7.2,6.5-.4,5-.8,9.8-1.6,14.8,5.3-2.5,20.5-13.3,23.6-4.7,3.5,9.7-4.7,18.3-9.3,25.9,5.5-.7,11.3-3.2,12.5,4,.6,3.3-.8,6.7-2,9.7-.9,2.1-5.2,7.6-4.9,9.4.2.9,2.7,2.2,3.3,3.1a11.228,11.228,0,0,1,1.4,4,14.338,14.338,0,0,1-1.7,9.3c-2.7,4.7-9.9,8.7-14.5,11.4-5.7,3.3-10.4,6.7-17,7.6a18.513,18.513,0,0,0-3,.5c-.5.4-.5,4.9-.7,5.7a61.224,61.224,0,0,1-3.1,10.9c-2.3,5.3-10,6.6-15,8.8a209.7,209.7,0,0,1-21.8,7.9c-3.7,1.2-7.4,2.4-11.2,3.3-2.5.6-9.3.7-11.1,2.3-1.1,1-1.4,3.5-2.5,4.8-.6.7-1.8.2-2.3.6-1.3,1.2-1.9,4.8-3.1,6.4-.2.3-2.4,2.3-2.5,2.9-.1,1.1,1.9,4.2,2.4,5.1a86.982,86.982,0,0,1,4.4,11c2.1,6.6,2,13.6,4,20.1,4.2,13.8,6.2,28.1,8.5,42.4,1.2,7.6,2.7,15.1,4,22.7,1.3,7.4,4.4,14.4,6.8,21.5,4.4,13.2,4.5,27.8,3.2,41.5-.4,3.8,1.5,14.2-5.3,10.9-5.9-2.9-5.4-14.5-7-20-4.2-14.5-5.9-29.7-10.4-44.2-4.5-14.9-7.1-29.6-9.5-44.9-2.5-15.8-5.9-31.5-8.6-47.2-.6-3.3-.8-17.1-4.8-18.3-1.7-.5-5.9,1-7.9,1.1a70.314,70.314,0,0,0-13.6,2.3c-6.3,1.5-12.5.4-18.7,1.7-3.6.7-7.3,1-10.9,1.7-3.9.8-7.5,2.4-11.5,3.1-6.8,1.2-13.7,0-20.6.4-7.1.4-14.5,1.2-21.6.7-7.3-.5-12.2-4.8-19.4-4.9-6.8-.1-14,.9-20.8-.3a89.79,89.79,0,0,1-9.3-2.1c-3-.9-5.5-3-8.5-4.1-7.7-2.6-15.7-.6-23.8-2.1-3.3-.6-8.2-1.2-11.2-2.6a12.118,12.118,0,0,0-3.7-1.4,27.13,27.13,0,0,1-4.1-.9,74.8,74.8,0,0,1-10.1-3.4c-2.9-1.4-5-3.7-8.4-4.4-1.6-.3-3.3,0-4.9-.4-1.9-.5-3.9-1.9-5.8-2.7a37.616,37.616,0,0,1-9.8-5.9c-6-5-9.6-10.6-12.9-17.6-4.5,11-7.3,22.7-11.1,34-1.8,5.4-2.1,10.7-3,16.3-1.1,6.2-2.2,12.3-3.5,18.4-.5,2.1.2,4.4.1,6.6-.3,3.1-1.2,6.1-1.5,9.3-.5,6.2-.7,12.6-.9,18.8-.3,12,2.4,23.9,2.2,35.8,0,2.5-1.1,5-.6,7.5.6,3.3,1.9,5.6,2,9.1.2,6.1.8,12.2.4,18.4a95.388,95.388,0,0,1-6.9,29.5c-2,5-3.7,10.5-6.4,15.2-2,3.4-4.7,9.1-9.4,8.1-4.2-.9-4.8-4-3.9-7.6,1.4-5.6,2.3-11.2,3.4-16.9,1.1-6.2.8-12.5,1.7-18.7.9-6.4,2.8-13,3-19.5.2-7.4-2.7-14.8-2-22.2.3-3.3,1.1-5.4.6-8.8l-.6-4.5c.1-2,.9-4.4,0-6.1Z" fill-rule="evenodd"/><path id="Fill-3" d="M112.5,432.917c-.1-13.7-.4-27.4-.3-40.9,0-3.1-1-13.7,1.9-15.8,1.8-1.3,4.3.3,4.8,2.5.3,1.3-2,.9-1.3,3.2.7,2.2,1.5.9,3.1,2.2,2.7,2.3,1,12,1,15.3,0,1.8.5,3.5.5,5.1,0,2.9-.9,6-.6,9,.3,2.5,1,5.4.8,8-.2,2.1-1,3.4-.8,5.7.1,1.3.6,2.3.7,3.8.4,6.9,1.1,13.6,1.9,20.4,3.1,27.1,8.5,53.7,7.8,81.1-.2,7.1.5,14.1.2,21.2-.3,7.3-1,14.5-1.3,21.8-.4,9.8,0,19.2.1,28.4,0,4.2-.3,9.7-.2,14.4a86.259,86.259,0,0,1,.3,8.9c-.2,3.8-.8,7.7-.8,11.4,0,2.3.6,4.4.7,6.4.1,2.3-.2,4.2-.3,6.5,0,1.4.4,2.9.4,4.4-.1,2.7-.5,1.6-.7,3.3-.4,3.7,0,7.6.1,11.3.4,12.4-.2,24.9-.6,37.3a154.446,154.446,0,0,0,.2,18c.2,2,1.5,5.4.8,7.3-.3.8-.8,1.1-1.1,1.8-1.1,0-1.4.5-1.1,1.4,0,.9.1,1.9.1,2.8.1,3.1.1,6.3.4,9.5.3,2.7,2.2,6.2-1.6,6.8-6.6,1.1-6.6-8.9-6.9-12.8-1-13.8-2-28-1.1-41.8.4-6.1,0-11.9,0-18-.1-7.2.9-14.5,1.1-21.7.4-13.7,1-27.2.5-40.9-1.2-31.7-.9-63.5-1.4-95.2a378.774,378.774,0,0,0-3.9-46.3c-1-7.5-2.3-15-2.7-22.6-.4-7.8-.2-15.5-.7-23.2" fill-rule="evenodd"/><path id="Fill-5" d="M420,631.917c11.6,8.9-9.9,28.7-16,34.8-2.6,2.6-4.9,5.2-7.8,7.6-1.6,1.2-8.8,5.2-9.1,7.1-.3,2,5.5,8.1,6.6,9.8,2.6,3.7,5.2,7.3,7.8,11,9.6,13.3,20.3,26.9,24.9,42.9,1,3.4,2.6,8.7,1.5,12.2-1.3,4.5-4.3,1.6-6-1.2-4-6.6-5.9-13.5-10.9-19.7-6.1-7.6-12.7-14.7-18.4-22.6-5.6-7.9-9.2-16.6-14.3-24.7-2.7,2.2-5.9,3.8-8.4,6-1.1,1-1.7,2.5-2.6,3.6a33.916,33.916,0,0,1-4.2,3.3c-2.5,1.9-6.8,4.7-8.5,7.3-2.3,3.5-2.5,8.8-4.2,12.7-4.2,9.3-11,17.7-16.4,26.3-2.2,3.4-5.1,7.2-8.5,9.5-4.4,2.9-7.4-2.5-8.2-6.5-1.7-8,5.4-17.6,8.8-24.5,4.2-8.7,10.3-16.2,14.6-24.9,2.3-4.6,3.4-8.1,7.2-11.8,3.1-3,6.6-5.1,9.6-8.2,1.4-1.4,3.1-1.8,4.6-2.9,1.4-1,1.9-2.1,3.1-3.5a26.514,26.514,0,0,1,8.8-6.5c3.6-1.7,7.1-5.9,10.4-8.4,4.5-3.4,9.1-6.5,13.3-10.2,7.5-6.6,14.7-12.5,22.3-18.5" fill-rule="evenodd"/><path id="Fill-7" d="M654.9,528.617c1.7-1.1,1.5-1.8.3-2.8-.1,1-.2,1.6-.3,2.8m5.1-95.3c1.2-2.9,1.2-2.9-.3-3.4.1,1,.2,2,.3,3.4m6.4,8.9c-.1,9.7-.8,19.5-.7,29.2,0,4,.1,8.2-.1,12.2-.2,3.8,0,7.1-.1,10.7,0,1.1-.6,2.6-.6,4,0,2.6-.3,5.1-.5,7.6-.4,5-.6,10.1-.9,15.1-.2,4.6-.2,9.2-.3,13.9,0,4.3-1.7,6.8.3,10.9-3.4.5-1.6,3.5-1.9,6.3-.2,2.1,0,3.6-.2,5.6s-.9,4.3-.6,6.4c.2,1.1,3,2.6-.7,2-.5.8-.1,1.3,1.3,1.7a2.068,2.068,0,0,1-1,1.4,29.6,29.6,0,0,1-.7,5.8,74.981,74.981,0,0,0-1.1,8.1c0,1.6.6.8,1.3,1.7-2.8,2,.1,4.4-.8,7.1.5,1.5-.2,2.2-1.8,1.9.1.8.1,1.5.2,2.3s.1,1.5.2,2.3a1.091,1.091,0,0,0-.9,1.4c0,1.2,1.1,2.5,1,3.7a13.029,13.029,0,0,1-1,1.5,1.428,1.428,0,0,0,.6,2,25.832,25.832,0,0,0-.6,3.7c-.2,1.5-.7,3.7.8,5-2.4.8-.9,1.6-.8,3.4.1,2.5-.5,4.5-.5,6.9a13.664,13.664,0,0,1,.2,1.9,3.707,3.707,0,0,1,.4,1.5l-.9.9c-.2,1.4.3,4.2-.5,4.6,2,.8,1,3.5,1.3,5.3a2.976,2.976,0,0,1-.5,1.5,8.65,8.65,0,0,1,1,.7c-2.3,1.4-1.4,8.1-1.3,10.5.1,4.7-.2,9.4.1,14,.5,7.9.1,15.5.3,23.3,0,1.9.7,4.2.4,6s-.8,2.7-.7,4.7c.2,3.8.4,7.3.5,11.1.1,3.9,0,7.4.3,11.1.2,3.2.7,8.5-2.5,10.5.8.4,2.6.8,2.3,1.9-2.8-.2-3.7,1.4-4.9-1.5-.6.7-1.3,1.4-1.9,2-2.9-5.5-1.9-12.6-1.9-18.6,0-4.2,0-8.7-.1-12.4-.3-12-.7-24.1-.4-36.1.6-24.1-2.2-48.5-1-72.7,2.3-44.5,7.1-89.2,8-133.8.3-13,1-26.1,1.3-39.1.1-5.9.2-11.7.2-17.6,0-3.4-.5-6.9-.1-10.3.6-5.7.7-1.9,2.1-1.5,1.3-6.4,4.4-1.5,4.8,2.5.2,2.1-.2,4.2.4,6.2.7,2.1,1.6,3,1.7,5.4.7,11.2,1.2,22.8,1.5,34.2" fill-rule="evenodd"/><path id="Fill-9" d="M172.6,611.717l-1.7,1.5c3,.6,4.9,2.2,7.5,4.1-.7,1.2-1.8-.8-2.5-.2-1.6,1.3.3,2.5.1,3.3a24.13,24.13,0,0,0-.8,2.5c0,.8,1.7,3,2,4-1.8-.8-2.3-1.4-4-.3,3.2,1.2,2.5,2.5,2.5,5.8l-2.2-.5c3.2.9.1,3.8,2.9,5-2.1,2.9-.8,4.3.9,7.2-1.1.3-2.5.3-2.5,1.9-.1,2.1,1.4,1.1,2.6,2.2-2.9,1-1.6,1.5-1.4,3.9s-1.2,8,2.5,7.2c-.1,1-1.6,1.4-1.6,1.6.1,2.1.1,4.1.1,6.2a54.555,54.555,0,0,0,.6,8.2c.8,5.9.7,11.9.8,17.7,0,6.2,1.7,12.8.9,19.2a100.455,100.455,0,0,0-1.1,16.4c.2,4.7,2.7,13.5.2,17.3-4.1,6.3-9.9-3.3-10.2-7.5-.9-14.3-.7-28.7-1.3-43-.6-14.2-.9-28.3-2.1-42.7-1.3-14.7-1.5-29-1.7-43.8-.2-13.6-1.8-27.1-2.3-40.7-.6-14.9-.5-29.6.1-44.4.7-15.5-1-31.1-.4-46.6.2-3.7.2-7.5.2-11.2s-1-8.9,0-12.4a10.96,10.96,0,0,1,1.1-2.9c.3-.7-1.8-1.6.3-2.1,2.4-.6,1.8,6.8,1.4,7.8,3.6-.3,3.2,1.5,3.8,5.1a60.085,60.085,0,0,1,.7,7.3c.3,4.6,1.7,8.8,2.3,13.2.1.4-.3,1.2-.2,2,.2,1.5.6,2.9.9,4.4a36.123,36.123,0,0,1,.6,9.3c-.3,7,0,14.2-.4,21.1-.3,5,.2,9.7,0,14.7-.1,2.8.6,4.7.3,7.6a78.431,78.431,0,0,0,0,8.4c.1,5.1-.6,11.1.4,15.9.6,2.8.5-2.4,1.2,1.1.1.3-.7.9-.6,1.3.4,3.1,1,7.6-.6,10.2l1.7.1c-.6,1.8-1.2.2-1.6,1.8a2.739,2.739,0,0,0,.9,1.2c.6.4.5.8-.3,1.3.5,1.5-.2,3.7.3,5.4.4,1.3,1.2,1.6,1.5,2.7-.1.5-.3.9-.4,1.4a5.1,5.1,0,0,0,1.2,2.3c0,1.5-.9,3.5-1.3,4.9-.5-1-1.1-2.1-1.6-3.1v4.2c1.1-.1,2.1-.1,3.2-.2a8.511,8.511,0,0,0-2.4,3.8c-.9,2.6-1.3,2.6,1.4,4.3.6.3,3.2,1.2,3.3,1.9.2,1.1-1.1.8-1.4,1.2-.6.8-2.2,2.1-3.2.9,1.7-.8.9-1.5.3-3.2-1.4.4-1.8,1.5-.9,2.8" fill-rule="evenodd"/><path id="Fill-11" d="M87.4,527.516c-1-10.2-1.4-20.8-1.8-31.1-.2-4.5-1.3-9.2-.9-13.9.2-2.6.7-5.3.9-7.9.4-4,1.1-4.6,4.7-6.4,1,2.2.2,3.3.1,5.3a11.024,11.024,0,0,0,.9,5.2c1.5,4.7,1.8,9.9,2.4,14.8,1.1,9.2,1.6,18.4,2.8,27.7,1,7.5.4,15,1.5,22.1,1.1,6.9.5,15,.2,22.1-.6,16.4-.6,32.4-.4,48.8.1,8.9-.7,18.1-.6,26.7.1,7.6.4,15.3-.1,23-.2,3.8.1,6.9-.1,10.7-.2,3,.9,6.4.6,9.3-.1.9-.9,1.6-1,2.4-.2,1.4.4,4.1.3,5.7-.2,3.9,0,7.4-.4,11-.9,8.8.3,18.4.1,27.3-.1,4.4.1,8.9-.4,13.3-.4,3.4.1,10.4-4.5,9.5-6.3-1.2-4.7-12.7-5-17.2-.5-9.5.6-19,.6-28.5,0-20.1-.1-40.2,0-60.3.1-39.7,1.2-80,.1-119.6" fill-rule="evenodd"/><path id="Fill-13" d="M12.4,626.817c-.5,2.2.2,3.8.1,5.9-.1,1.5-.5,2.3-.7,3.8.1.4.1.8.2,1.2,1.1.9,1,1.6-.2,2.1a27.971,27.971,0,0,1,.6,2.8c.2,6.2-.4,13.3-.5,19.7-.1,3.5.1,6.7.3,10,.1,2.5-1.2,5.2-1,7.8.1,1.6.9,3.2.9,5,0,1.6-.9,2.8-1,4.7-.1,2.3.7,4.7.9,6.9.1,1.9-.9,2.5-.9,4.2a5.938,5.938,0,0,0,.4.8c1.3.8,1.5,1.8.5,3.2-.2.3-.5.7-.7,1a2.319,2.319,0,0,0,.6,2.2c.1,1.3-.4,2.7-.4,3.8,0,3.2.6,6.7.9,9.9.6,7.9,1.3,15.7.9,23.6-.1,1.5.9,3.2-1.4,4.2-.5.2-1.8-.5-2.2-.4-1.4.3-1.9,1.3-3.2.5-1.5-1-1.2-3.1-1.2-4.6-.1-15.1-2.4-30.5-2.9-45.8-.5-15.7.2-31.5.3-47.2.1-17.1-.6-34.2-.3-51.3.2-14.8,1-29.5.4-44.4-.4-9-2.6-17.9-2.7-26.9-.1-3.6-.5-6.3,1.6-9.1,2.9-3.8,6.1-3.3,8.6.5,1.9,2.8,2.5,7,.8,10.1-.3.6-2.4,2.2-2.5,2.5-.3,1.1.5,1.2,1.1,2.6a15.52,15.52,0,0,0-.1,2.3c.3,1.8.8,3.2.6,5-.2.4-.3.7-.5,1.1-1.4.9-1.3,1.8.5,2.7,1.7.8,1.9,1.8.7,2.9.1.8.1,1.6.2,2.4-.6-.6-1.1-1.3-1.7-1.9.1,3.2,1.8,5,2.4,7.9.5,2.4-.8,5.3-.6,8.1.1,2.1.3,3.5.4,5.5,0,1.4,1,2.9,1.1,3.6.1,1.3-.9,2.5-1,3.7a11.389,11.389,0,0,0,.4,3.5c1.3,7.3.2,15.9.1,23.3,0,3.6-.2,7.3,0,10.9a54.3,54.3,0,0,1,.2,5.6,7.125,7.125,0,0,0,0,4.1" fill-rule="evenodd"/><path id="Fill-15" d="M612.3,634.717c-.9-.2-1.2,1.5-.3,1.6.1-.5.2-1.1.3-1.6m8.7,5.5c-.1,2.5-1.1,2.5-.7,5.5.2,1.9-.4,4.9,1.6,6.1-2.2,1.3-.3,10.4-.2,12.9.2,5.6.2,11.2.3,16.8.2,10.8,1.2,21.3.3,32.1-.5,5.6-.7,11.1-.9,16.7-.1,2.8,1.3,10.6-2.8,10.5-7.2-.3-3.7-19.4-3.8-23.6-.1-10.1-3.2-19.7-3.6-29.7-.4-9-1.2-18.4-2-27.6-.8-9.3-.2-18.7.1-28.1.3-10.2.2-20.5.5-30.7.4-12.1,0-24.2.3-36.4.2-5.8.5-11.7,1-17.5.4-4.8-.4-12.2,2.2-16.4,3.7,2.1,1.8,2.2,2.4,5.7.4,2.5,1.2,3.1,2.9.6.1,1.4-.7,2.8-.6,4,.1,1.5,1,2.1,1.3,3.7.5,2.2-1.5,6.2,1.2,7.4-1,1.2-.4,2.1-.4,3.5.1,2-.2,4.5-.2,6.6.6-.7,1.1-1.3,1.7-2,1.4.6.7,1.7.5,2.8-2.6-1.9-2,2-2,3-.1,1.8,0,3-.2,5a24.19,24.19,0,0,0,.1,6.6l2.3.8c-.1,1-.1,2-.2,3-1.4-1,.3-2.7-2.6-1.8,1,1.5,1.2,1.3,1,3.3.4,4.3.6,10.7.5,14.4,0,1-1.1,2.9-1.1,4.3s.6,2.7.7,4c0-.4-.4,2.5-.4,2.6-.2,1.5-.2,1.6-.4,3.6-.3,3.8.3,7.7.2,11.4-.1,1.5-.4,2.8-.6,4.7-.3,2.5.5,4.9.5,7.3,0,1.7-.8,4,1.1,4.9" fill-rule="evenodd"/><path id="Fill-17" d="M703.6,564.317c2.2-1.1,2.3-1.4.6-3.2-.2,1.2-.4,2.1-.6,3.2m1.4-38.7a26.241,26.241,0,0,1-.1,2.7c.9,1,.8,1.6-.2,1.8a1.346,1.346,0,0,0-.5.9,11.632,11.632,0,0,0,2.6,8.1c-2.4,1.4-2.1,3.9-1.7,6.2.5,2.7-.1,2.9-.6,5.2-.8,3.7,2.7,3.4,1,7.1-.9,2.1-1.5-.1-.3,2.4,1.2,2.6,1.8,1.1.7,4.2-.2.5.6.9.5,1.3-.1.8-1.2,0-1.3,1.2,0,.5.8,1,.8,1.5.1,1.9.2,3.8.3,5.6-1.6-.7-1.8-2.7-2.3-4.3-.9.2-.4,3.8-.4,4.6.6-.2,1.1-.5,1.7-.7,0,1.9,1.4,1.9,2.7,2.7-3.3,1.4-1.1,3.1-1.6,6.1-.3,1.8-2,3.5-2.2,5.4-.1.7.9,1.4,1.1,2.1a20.777,20.777,0,0,0,0,2.5,5.949,5.949,0,0,1,1.4,1.6c.6,1.6-.4,3-.5,4.5-.1,2.8.2,4.5-.1,7.2a57.186,57.186,0,0,0,.2,8.3c0,1.4.4,1.8.5,3.4.2,2.6.3,5.5.3,7.8s.2,4.7.3,7c.1,2.1.3,4.6.3,6.4a22.116,22.116,0,0,0,.1,5.1c.4,2.3.3,4.4.9,6.7.9,3.5.6,3.9-.4,7.3-.8,2.6.5,4.7.5,7.1,0,1.9-1.7,4.8,1.4,4.7-.4,2.5,2.3,2.5,2.3,5.6-.6-.5-1.2-.9-1.8-1.4-.8,1.2-1.9,0-2.3,1-.5,1.3.2,2.5,1.7,2.2-.6.9-1.7,1.7-1.4,3,.9-.6,1.8-1.1,2.7-1.7a13.725,13.725,0,0,0-1.2,4.4c-.2,2.3,1.6,1.5-.6,3.3,2.1,1.4,1.2,3.2,1.2,5.6a11.343,11.343,0,0,0,.2,3.6,7.614,7.614,0,0,1-.2,4.5c-.5,1.7-2.1.8-.7,3.3,2.5-2.9,1.5,1.2,1,2.4-1.2,3-1.3,3.4,1.7,5.1-1,.8-2,1.5-3,2.2.4.8,1.1.8,2.1-.1a19.269,19.269,0,0,0-.1,2.4c-.1-.3-1.1.5-1.2.9-.1,1.2,1.3,2.9,1.4,4.4.1,2.9.4,3.7.3,6.4-.1,2.4-.1,4.8-.1,7.1,0,2.5.8,4.2-2.3,4.3-4.6.1-5-5.4-5.5-8.7-1.7-9.9-.6-20.6-1.4-30.6-.7-9-1-18-1.8-26.9-1.5-18.2-3-35.7-3.9-53.9-.5-9.1-.3-18.7-.4-28.1,0-10,.2-20,0-30-.2-10.6-1-21.4-.7-32.1.3-11,0-22.9,3.5-33.3,5.2,9.5,4.5,20.8,5.4,31.4" fill-rule="evenodd"/><path id="Fill-19" d="M47.2,710.017c-.9-17.8-.4-35.6-.3-53.4.1-17.4-.6-35.1,1.8-52.3a172.438,172.438,0,0,0,2-22.7c0-4.6.5-9.2.5-13.8,0-3.2-1-6.3-.8-9.7.3-7.7.5-16.3,1.9-23.9.4-2.4,1-3.5,3.1-1.6,2.2,2,.3,6.6,3,7.7.5-1.9.8-1.3.9-.4.1.7-.5,1.9-.5,2.7a33.539,33.539,0,0,0-.4,5.4c.4,1.6,1.8,1.2,2.5,2.3.6,1,.9,4.4.9,5.7-.1,2.7-1.8,5.1-1.4,7.7.2,1.4,1.1,2.2,1,3.6-.1,1.2-1.1,2-1.3,3-.4,1.5-.2,1.2.1,3a15.011,15.011,0,0,1,.3,3.7c-.1,2.4-.8,2.6,1.7,3.4-3.6,2.3-2,7.1-2.4,10.5-.2,1.5-1,3.8-.5,5.3.8,2.1,2.4,1.3,2,3.9-1-1.3-2.5-.2-3.8-.6.5,1.8,4.1,1.9,3.9,3.7,0,.4-2.6,1.1-3,1.8-.3.7.6,2.2.4,3.2-.7-.6-1.4-1.1-2.1-1.7.2.8,1.3,4.7,1.3,4.9-.1.6-1.6.6-1.9,2.1,1-.3,2-.7,3-1,.1,1.2-.6,1.6-.9,2.5,1,.7.9,1.2-.2,1.7a1.147,1.147,0,0,0-.9,1.1c.1,1.9,3.1,2.4-1.5,2.6.4,1,3.6,6.6,1.1,5.1a57.421,57.421,0,0,1,.9,7.1c.1,2.2-.6,3.3-.8,5.2a3.766,3.766,0,0,0-.9,1.5,2.4,2.4,0,0,0,.7,1.2c.2,2.6.6,2.8-1.3,4.7,3.2,2.8.2,1.2.1,3.7-.1,1.5.6,4,.7,5.6.2,1.9.7,4,.4,5.8-.2,1.8-1.6,2.5-.5,4-2,.4-.6,2.7-.6,3.1a2.132,2.132,0,0,1,1,1.1c-.3.5-.5.9-.8,1.4,0,1.2.1,2.2.1,3.4a25.653,25.653,0,0,0,.5,5c.1.6-.5,1.4-.2,2,.6,1.2,1.4-.3,2,1.5-1.9,0-2.9,1.6-2.9,3.5,0,1.2,1,2.9.9,4.5,0,1.4-.4,2.9-.4,4.3,0,1.5.4,2.8.5,4.3.3.5.5,1.1.8,1.6a1.27,1.27,0,0,0-1,1.3,29.09,29.09,0,0,1-.5,4.9c-.8,3.9.8,9.2.6,13.8,0,1.4-.3,2.7-.2,4.1.2,1.4,1.3,2.8,1.4,3.9.1,1.5-1,3.6-.8,5.3a87.531,87.531,0,0,1,1.1,13c-.1,3-3.7,10.5-6.9,6.9-1.3-1.5-.7-9-.9-11.1-.2-3.5-.5-7.1-.7-10.6a172.984,172.984,0,0,1-1.8-21.5" fill-rule="evenodd"/><path id="Fill-21" d="M546,594.617c.3,0,.7-.1,1-.1l-.7-2.3c-.9.2-.4,1.7-.3,2.4m-3.8-2.3c.3-5-.4-13,2.9-16.9,1.3,2,.7,2.4,1,3.8.4,1.8.7,3.6,2.4,4.5,1.2-3.2,3.4,1.8,3.6,3,.7,3.9.3,8.4.7,12.4.7,7.8,1.2,15.4,1.2,23.2,0,5.6,0,11.4.3,17,.2,3.3.1,6.6.1,10,0,1.9.1,3.8.1,5.7a30.261,30.261,0,0,1-.6,3.5c.6,1.3.5,2.3,1.9,3.8-2.4.7-1.2,1.7-1,4.3.2,3.1-.2,6.2-.1,9.4,0,2.2.2,4.4.3,6.6,0,1.4-.2,2.9-.1,4.3l-.3,1.3c.9.2,1.2.7,1,1.4-.2,1.7-1,3-1.1,4.9q-.3,4.8-.9,9.6c-.3,2-1.1,4.6-1.2,6.6-.1,2.6,1.8,3.7-.8,5.2,3,1.7,3.7,7.6-.3,8,2.8,1.8,2.9,1.4,2.6,4.4-.3,3.4-1.3,4.8-.5,8.2-1.4-1.1-2.9,1.7-4.5,1.9-2.3.4-3.2-.8-4.1-2.9-2.2-4.8-1.1-11.9-1.3-17-.5-11.6-.9-23.3-1-34.9-.1-11.4.2-22.9.1-34.4,0-3.1-.2-6.2,0-9.4.1-1.7,1-3.8.8-5.5-.2-1.8-.8-3.1-.8-5.1.1-2.6-.2-5.2,0-7.8.4.1,2.7,1.2,3,.5.4-1.1-1.2-.9-1.7-1.7-1.5-2.2-1.4-5-1.6-7.7-.6-6.6-.2-13.5-.1-20.2" fill-rule="evenodd"/><path id="Fill-23" d="M751.5,724.217c-1.1,2.7-.8,6.3-1.9,8.7-1.2,2.7-3.7,2-5.3-.3-1.7-2.4-1.1-7.3-1.4-10.1a99.111,99.111,0,0,1-.2-10.9c.5-13.2.4-26.6.8-39.6.4-14.1-.5-28.3-.1-42.4.4-14.5-.7-29,1.5-43.4,2.9,2.1.9,3.6,1.4,6.7.3,2,1.2,3.5,1.8,5.9,3-.7-.2.9.8,2.1.4.5.1,3,1.6,1-.9,3.3-.3,3.8.6,6.7.8,2.7-.5,4.7-.8,6.8a17.832,17.832,0,0,0,.3,3,19.086,19.086,0,0,0,.8,3.9c.4,1.3,1.6,3.8,1.6,5.7.2,7.1-1.8,14.6-1.1,21.8.3,2.7.8,4.1.5,6.7-.3,3.1-1.2,3.5-.3,6.4.1.3,1.3,3.2,1.3,3,0,1.3-1.3,2.3-1.4,3.8-.1,2.7,1.6,3.3.3,6.2-1,2.2-1.6,2.6-1.5,5.5,0,2.7.1,5,.2,7.6.1,3.7,1.1,7,1.1,10.7-.1,3.1-1,5.7-1.1,8.6a63.115,63.115,0,0,0-.2,9.7c.1.9.7,1.7.6,2.5-.1,1.5-1.3,2.3.1,3.7" fill-rule="evenodd"/><path id="Fill-28" d="M61.2,498.617c-6.1,1.6-7.2-10.8-7.2-14.5,0-3.3.4-6.7.7-10,.1-1.6-.1-9.3,1.5-10.2,5-2.6,5.4,13.2,5.6,15.1a58.543,58.543,0,0,1-.6,19.6" fill-rule="evenodd"/><path id="Fill-30" d="M786.2,725.217c-1.7,2.1-3.9.7-5.4-.9-2.3-2.5-2.3-5.5-2.2-8.6a63.1,63.1,0,0,1,1.6-10.6c.8-3.6,1.2-8.2,2.7-11.5.8-1.7-.1-2.4,2.3-1.8a3.517,3.517,0,0,1,2.1,1.7c1.4,2.1.7,6.5.6,8.9-.5,7.8-2.1,14.8-1.7,22.8" fill-rule="evenodd"/><path id="Fill-32" d="M587.9,689.817c-.6,1.8-.3,2.4-2.3,2.3.8,1.8-1.2,3.4-2.7,5.1-.8-3-.1-6.2-.1-9.4,0-3.8-.1-7.5-.2-11.3-.3-7.2-.8-14,1.1-20.9,1.2,1.6,5.7,7.4.4,6.7,1.6,1.6,1.2,2.1,3.4.7,1.8,3.3-.1,6.8-.4,10.1-.3,3.5,1.2,6.4.9,9.9-.3-.7-.6-1.3-.9-2-1.8.9,0,1.2-.4,2.7a10.675,10.675,0,0,1-2.3,5.1c2,.6,1.8.9,2.3,3a10.594,10.594,0,0,1,1.2-2" fill-rule="evenodd"/><path id="Fill-34" d="M701.8,443.417c2.3,2.2.8,1.9,1.5,4.5a15.644,15.644,0,0,0,.8,2.1,7.432,7.432,0,0,1,.3,3.1s-1.6,3.4-1.7,2.9c0,.6.7,1.4.8,2,.3.1.6.1.9.2v2.5a7.383,7.383,0,0,1-.4,3.9c-.7,1.3-1.5-.1-1.9.5-.7,1.2-.3,7.3-3.3,5-1.7-1.4-1.5-10.6-1.4-12.6a66.919,66.919,0,0,1,.9-9,3.887,3.887,0,0,1,.6-2.6c.1-1.1.6-1.3,1.5-.5a10.13,10.13,0,0,0,1.4-2" fill-rule="evenodd"/><path id="Fill-36" d="M581.6,715.417c0-2.7-1.5-13.9,1.9-14.2,3.1-.2,1.5,7.7,1.6,9.7,0,.9,1.1,1.7,1,2.9-.1,1.3-1.2.6-1.5,2.1-.3,1.4.8,3.9.7,5.5-.1,1.4-1.2,3.4,1.2,3.4-.2,1-.3,2-.5,2.9h-1.3c-1,2.1,0,1.7.2,3.3a13.882,13.882,0,0,1,.3,3.8,14.494,14.494,0,0,1-1.5,5c-2.2-2.1-.9-9.4-1.4-12.3-.8-3.9.8-8.6-.7-12.1" fill-rule="evenodd"/><path id="Fill-38" d="M117.9,218.917c-2.6-13.1-3.4-27.1-1.1-40.2,4.4,3.6,2.2,14,2.3,19.1-.1,2.8,1,20.9-1.2,21.1" fill-rule="evenodd"/><path id="Fill-40" d="M117.6,274.117c3.2,3.8,1.8,6.8,1.9,10.2.1,4.7,1.3,9.9-.7,14.8-.3.7.4,1.9-.8,2-2.6.3-1.5-3.2-1.5-4.6a52.553,52.553,0,0,0-.6-8.9c-.5-2.8-.8-5.5-1.1-8.3-.3-1.1-.4-9.4,2.8-5.2" fill-rule="evenodd"/><path id="Fill-42" d="M6.6,400.516c-.1-8.7-.6-17.4-.7-26.1-.1-7.1-1.5-17.5,1.6-24,1.5,8.1,1,16.8.9,24.9,0,9.5-.3,18.9-.8,28.4-.3-1.1-.6-2.1-1-3.2" fill-rule="evenodd"/><path id="Fill-44" d="M176.4,636.817c-2.8-1.2.4-4.1-2.9-5l2.2.5c0-3.4.8-4.6-2.5-5.8,1.7-1.1,2.1-.5,4,.3-.3-1-1.5-2.7-1.6-3.7-1-.5-1-1,0-1.6.9-.4,1-.8.4-1.3.1-.8-1.5-1.6-.4-2.8.9-1,2.1.7,2.7-.3-1.6-1.2-3.5-1.5-2.5-3.4.7-1.5,1.7-1,2.8.2,2,2.2-.1,6.3-.1,8.6,0,.8.8,1.8.8,2.2v3.5c0,3.4-.1,4.6,1,7.9a4.748,4.748,0,0,1-3.9.7" fill-rule="evenodd"/><path id="Fill-46" d="M746.4,545.317c-1.9-.7-1.4,1.1-1.7,1.9a2.045,2.045,0,0,0,.8.8c-.3.8-.5,1.7-.8,2.5l1.8.3c0,.9-.4,1.3-1.3,1.2,1.1,1.1-.9,3.4-1.1,4.7-.1.7.5,1.7.3,2.4.7,1.1.5,1.7-.7,1.6l-2.7.6c-.8-4.4-1.4-20.2,4.7-21.6a34.28,34.28,0,0,1,.7,5.6" fill-rule="evenodd"/><path id="Fill-48" d="M171.3,517.016c-.8-5.7,0-11.7.1-17.4,4.5,3.9,2,14.2,2.4,19.7.2,2.1,1.1,5.1.8,7.7-.3,2-1.6,3-3.1,4.7a24.367,24.367,0,0,1,.9-7.6c.5-2.3,1.5-7.1-1.1-7.1" fill-rule="evenodd"/><path id="Fill-50" d="M203.3,487.917c-.3,1.2-.8,3.9-2.9,2.5-.7-.4-.3-6.3-.4-7.3-.3-5.2-.5-10,1.1-15.1,2.5.6,1.2,6.1,1.3,7.8.1,1.9.5,3.5.7,5.4.2,2.3-.7,4.8.2,6.7" fill-rule="evenodd"/><path id="Fill-52" d="M55.8,664.117c-1.1-1.5.2-2.2.5-4,.3-1.9-.3-4-.5-5.8-.1-1.6-.8-4.2-.7-5.6.1-2.5,3.1-.8-.1-3.7,6.3-6.2,2.9,4,1.6,7.3,4.4,1.8,2.1,8.5,1.7,12.5a23.34,23.34,0,0,0-2.5-.7" fill-rule="evenodd"/><path id="Fill-54" d="M60.6,194.717c.4,4.8,1,9.5,1.5,14.2.4,3.4,2.2,8.8-1.7,10.8-.5-1.7.3-3.2.3-5,0-2.3-1-4.6-1.3-6.9-.5-3.9-1.1-9.8,1.2-13.1" fill-rule="evenodd"/><path id="Fill-56" d="M55.7,718.217c0-.9-.1-1.9-.1-2.8,2.1,0,1.7.2,1.8-1.3-2.3.1-2.4-1.3-2.5-3.7-.2-5.8-.4,0,.6-2.9.4-1.2,3.4-4.4,0-4.6a11.478,11.478,0,0,1,2.8-.7v18.9c-1-1-1.8-2-2.6-2.9" fill-rule="evenodd"/><path id="Fill-58" d="M76.4,411.816c-2.9-1-2-14.3,1.8-11,.6.5.6,1.6.7,2.5a2.185,2.185,0,0,1,1,.9c.4.5.1,1-1,1.4.2,2.8.4,4.8-2.5,6.2" fill-rule="evenodd"/><path id="Fill-60" d="M706.5,555.217c-.9-2-2.1-1.7-2-4.3,0-1,.7-2,.8-2.6a15.46,15.46,0,0,0-.7-4.5c1.6.4.5-1.6,1.5-1.6,1.8.1,1.9,2.5,2.1,3.6.3,1.4,1.1,11.1-1.7,9.4" fill-rule="evenodd"/><path id="Fill-62" d="M712,728.017c.3-3.6-.1-4.7-.2-8,0-1.5-1.6-3.5-1.3-4.7.5-2.3,2.1,2,2.2,2.2l1.5-3.6c.3,4.7.6,9.3.8,14h-3Z" fill-rule="evenodd"/><path id="Fill-64" d="M177.7,609.717c-1.9-1.1-5.3-1.9-5.6-4-.4-2.7,1.5-1.9,3.3-1.3.8-3,.4-3.6,3.6-3.6l-.6,1.8c-1,1.1-.9,1.9.1,2.3.8.2.9.6.3,1.1a17.608,17.608,0,0,0-1.1,1.8c.7.2,1.4.3,2.1.5-.7.5-1.4.9-2.1,1.4" fill-rule="evenodd"/><path id="Fill-66" d="M61.2,566.717c-2.3-4,.2-6.5.3-10.7.1-2.7-2.2-5.2,1.4-5.9.7,4.4.3,8.9.4,13.4l-2.2-.5c-.1,1.2,1.4,2.6.1,3.7" fill-rule="evenodd"/><path id="Fill-68" d="M657,622.917a1.824,1.824,0,0,1,1.4-1.8,2.294,2.294,0,0,0-.8-1.6c-.4-1.1-2.7-2.8.2-3.8-3-2.5,1.1-5.7,2.9-7.3-.3,2.3,0,9.7-2.6,9.4,3,2.1,2.4,2.8.1,5.4q.45-.45-1.2-.3" fill-rule="evenodd"/><path id="Fill-70" d="M56.4,699.817c-2.4-3.9-.9-9.3-1-13.6,2.3,1.6,2.3,1.1,2.7,4a45.567,45.567,0,0,1,0,6.4c0,.9.6,5-.7,4.6-.5-.1-.4-1.2-1-1.4" fill-rule="evenodd"/><path id="Fill-72" d="M173.3,584.516a4.785,4.785,0,0,1-.8-2.3c.9-.6.9-1.2-.1-1.7-.6-.4-.7-.8-.4-1.3,2.3-1.6,3.3,4.2,3.3,5.7,1.3-.3,1.3-1.1,1.2-2.2,1,1.3.2,11.1-1.3,11.2a9.071,9.071,0,0,1-1.3-4.7c0,.3-.6-1.1-.6-1-.3-1.2,1.1-1.9,0-3.7" fill-rule="evenodd"/><path id="Fill-74" d="M176.4,636.817c2.6.3,3,3.6,3.2,6.4.1.8.2,6-2.2,5-1.4-.6.1-3.1-.1-4.1-.5-3.6-3.5-3.7-.9-7.3" fill-rule="evenodd"/><path id="Fill-76" d="M752.3,635.117c.2-2.4,1.1-5.4,1-7.9-.1-1.4-.9-3.2-1-4.7,1.1.3,1.4-.5,1.6-1.4a119.122,119.122,0,0,1,1.6,15.8,9.154,9.154,0,0,1-3.2-1.8" fill-rule="evenodd"/><path id="Fill-78" d="M553.1,707.017c.1-1.4,1.1-2.8,2.3-1.2.9,1.2.4,4.6.5,6.1.1,3.9-.2,6.5-4.4,4.1,2.3-1.4,1-1.4.9-3.8a3.067,3.067,0,0,1,.5-2.9c.6.8,1.1.9,1.6.3-.5-.9-.9-1.7-1.4-2.6" fill-rule="evenodd"/><path id="Fill-80" d="M705.2,573.516c.3.1.7.3,1,.4-.1-1.9-.2-3.7-.3-5.6,1.9,0,2.1.2,2.9-1.5.9.3.2,8.1.3,9.6.2,2.5.8,3.2-2.1,3.7.3-1.3.6-2.6.8-3.9a2.384,2.384,0,0,0-1.1-.6c-.5-1-2,.1-1.5-2.1" fill-rule="evenodd"/><path id="Fill-82" d="M696.9,381.816c3.9-.1,4.7,1.2,4.1,6.1-4,.7-5.2-.9-4.1-6.1" fill-rule="evenodd"/><path id="Fill-84" d="M751.5,685.817c-.2-.5-.4-1-.6-1.6,1.6-.1,1.3-1.9,1.6-3.3-.9.1-1.2,1.3-1.6,2.1a16.76,16.76,0,0,1,0-5c.3-1.3,1.7-.8,1.4-2.6,3.3-1,1.8,2.6,1.7,4.4-.1,2.8.7,5.4-2.5,6" fill-rule="evenodd"/><path id="Fill-86" d="M708.5,664.717c-1-1.3,2-2.4,2.3-2.9.8-1.6.3-3.9.6-5.7-.3,4.8,1.7,9.5,1,14.3-3.4-1.5-1.2-4.5-3.9-5.7" fill-rule="evenodd"/><path id="Fill-88" d="M660,584.717c-2,.2.1-14.7,1.3-16.1a15.909,15.909,0,0,1,1.1,4.9c0,2.3-1.2,3.1-1.8,5a21.436,21.436,0,0,0-.6,6.2" fill-rule="evenodd"/><path id="Fill-90" d="M177.5,673.317c-.8-2.8-2-11.9.7-12.9.2,2.1.5,4.3.8,6.4.3,2.6-.6,4.4-.7,6.9a5.78,5.78,0,0,0-.8-.4" fill-rule="evenodd"/><path id="Fill-92" d="M61.2,598.617c-1.9-2.1-2.2-2-2.1-4.8.1-2.2.3-4.1,2.6-4.5.1,3.1,1.3,6.4-.5,9.3" fill-rule="evenodd"/><path id="Fill-94" d="M172.7,574.516c-.2-2.6-1-5.8.2-8.2,3.2,2.4,3.4,7.5,3,11.1a9.9,9.9,0,0,1-1.4-4.4l-1.8,1.5" fill-rule="evenodd"/><path id="Fill-96" d="M741.1,561.217c1.5-.3,3.1-.3,3.5-1.5.3-.7-.6-2.4-.5-3.1.2-1.5,2.3-3.5,1.1-4.7,2.4-.3,1.5,6.6,1.1,8.1s0,2.1-1.8,2.6a2.736,2.736,0,0,1-3.4-1.4" fill-rule="evenodd"/><path id="Fill-98" d="M178.3,659.317c-3.9.8-2.1-5.6-2.5-8.1,1.2.2,3.7.5,3.1,2.5-.3,1.1-1.5.5-2.4.9,1.2,3,4.6-.3,1.8,4.7" fill-rule="evenodd"/><path id="Fill-100" d="M11.4,548.817c-1-1.1-1.9-2.2-2.9-3.2a3.109,3.109,0,0,0,1.2-1.6,1.429,1.429,0,0,0-.3-1.9,1.928,1.928,0,0,0,.8-1.8,17.6,17.6,0,0,0-1-3c.1.3-.6-3.7-.9-2.7,1-3.6,2.3,2.6,2.4,4.4.1,1.2,1.4,9.7.7,9.8" fill-rule="evenodd"/><path id="Fill-102" d="M621,640.217c-2.5-1.3-.5-4.4-.7-6.6-.3-3.2-1.8-5.7.1-8.9,2.2,2.1.3,4.4.3,6.7,0,1.2.9,2.3.9,3.7.1,1.7-.8,3.3-.6,5.1" fill-rule="evenodd"/><path id="Fill-104" d="M171.3,547.417c0-1.9.1-3.7.1-5.6,3.7.1,2.9,4.7,3.1,7.4-1.9.7-1.7-1.6-3.2-1.8" fill-rule="evenodd"/><path id="Fill-106" d="M554.4,645.217c.7-4-.3-7.9-.1-12,2.5,1.5,3,10.4.1,12" fill-rule="evenodd"/><path id="Fill-108" d="M752.9,653.917c-.1-1.5.8-2,1.8-3,1.7,2.2.6,9.1.6,11.8-1.8-.8-1-7.5-2.7-4.1,0-1.4-.1-2.8-.1-4.2a2.023,2.023,0,0,0,1.3,1.4c0-1.7.2-1.3-.9-1.9" fill-rule="evenodd"/><path id="Fill-110" d="M752.3,650.717c-.6-2.2,0-5.2,0-7.6,1.7,1.3,2.5.9,3.1,2.5.2.5-.7,5.3-.6,5.3-.8-1.3-1.6-1.4-2.5-.2" fill-rule="evenodd"/><path id="Fill-112" d="M175.1,594.016c1.3,0,3.1-.2,2.9,1.9-.1,1.5-3.3,1.2-1.7,3.5a14.706,14.706,0,0,1-4.2.6v-4.2c.5,1,1.1,2.1,1.6,3.1a44.921,44.921,0,0,0,1.4-4.9" fill-rule="evenodd"/><path id="Fill-114" d="M57.5,625.317c-.7-1.7-1.5-3.3-2.2-5,3-.1,1.7-.1,2.4-1.6-.3.7-2.6-2.9.5-1.5,3.9,1.8.6,5.7-.7,8.1" fill-rule="evenodd"/><path id="Fill-116" d="M552.9,734.717c-.7-2.1.9-2.6,1.1-4.9.3-2.7-1.4-2.4,1.7-3.6.3,1.6,2,5.6,1,6.7-.9,1.2-3.2-.3-3.8,1.8" fill-rule="evenodd"/><path id="Fill-118" d="M56.3,640.317c-1.4-1.9,1.4-6.4,3.1-7.2v7.9c-1-.3-2.1-.5-3.1-.7" fill-rule="evenodd"/><path id="Fill-120" d="M92,480.717c-.7-1.8-4.1-8.3,0-7.4,2.8.6,1.5,5.6,0,7.4" fill-rule="evenodd"/><path id="Fill-122" d="M621.5,595.917c-2.1-2.5-.9-8.4-.9-11.5,1.8,2,2.6,3.8,2,6.7-.2.8-1,1.2-1.1,1.5a11.933,11.933,0,0,0,0,3.3" fill-rule="evenodd"/><path id="Fill-124" d="M585.7,711.717c-1-1.2.2-3.2.1-4.8-.1-.8-2.7-6.2,0-6.2,1.7,0,.8,5.4.9,6.3.1,1.3,2.4,5.7-1,4.7" fill-rule="evenodd"/><path id="Fill-126" d="M711.4,704.417a12.09,12.09,0,0,0,.5-1.8c3,1.6,1.4,5.3.8,7.8-1.2-.8-2.6-1-2.8-2.3-.5-2.9,1.4-2.2,3.4-2-.7-.6-1.3-1.1-1.9-1.7" fill-rule="evenodd"/><path id="Fill-128" d="M554.5,657.917c0-2.5-.1-5-.1-7.6s-.7-3.6,1.8-4.4c.2,1.9-.7,2.8-.8,4.9-.2,3.1,1.6,4.7-.9,7.1" fill-rule="evenodd"/><path id="Fill-130" d="M749.3,598.617c-.4.1-.7.2-1.1.3-.5-2.1-1.5-3.3-2-5-.4-1.6.5-4.6.7-6.2.4,1.1,1.2,2.2,1.3,3.4.1.6-.5,2.4-.4,2.7.1.5,1.5.7,1.6,1.5a7.407,7.407,0,0,1-.1,3.3" fill-rule="evenodd"/><path id="Fill-132" d="M11.1,556.317c-1.6-1.5-1.8-3.7-1.9-5.7.6.6,1.1,1.3,1.7,1.9-.1-.8-.1-1.6-.2-2.4,4.6.6,2.9,4.7.4,6.2" fill-rule="evenodd"/><path id="Fill-134" d="M656.5,634.317c-1.1-2-1.3-3.5.5-5,.4,1.7,1.1,2,2.3.9.8,2.7.5,4.6-2.8,4.1" fill-rule="evenodd"/><path id="Fill-136" d="M554.5,631.617c-.1-2.9.9-5.6.1-8.4-.2.6-.3,1.2-.5,1.8-.1-2.3-.3-4.6-.4-6.9,1.8,0,1.3,3.2,1.5,4.4a54.637,54.637,0,0,1,.3,9.9c-.3-.3-.7-.5-1-.8" fill-rule="evenodd"/><path id="Fill-138" d="M620.6,624.117c-1.1-2.1-2.1-13.2-.3-15a36.129,36.129,0,0,1,.3,15" fill-rule="evenodd"/><path id="Fill-140" d="M586.5,724.917c-2.3,0-1.2-2-1.2-3.4.1-1.3-1.2-4.9-.7-5.9,1-2,1.7,0,2.2,1.6.7,2.4.1,5.3-.3,7.7" fill-rule="evenodd"/><path id="Fill-142" d="M171.3,498.516a51.151,51.151,0,0,0-1.3-14.1c3.2.6,2.9,11.6,2.5,14.5a5.752,5.752,0,0,0-1.2-.4" fill-rule="evenodd"/><path id="Fill-144" d="M58.8,606.617c-1.7-1.8.3-3.1,2.1-1.7,1.5,1.1.8,5.1.8,7.2l-2.4-.5c1.8-.9,1.7-4.7-.5-5" fill-rule="evenodd"/><path id="Fill-146" d="M751.6,720.217a6.927,6.927,0,0,1-.7-4.3c.4-2.2,0-2,2.5-2.2-.1,1.2.9,7.9-1.8,6.5" fill-rule="evenodd"/><path id="Fill-148" d="M709.9,674.317a3.508,3.508,0,0,0,.5-.8c1.9,1.4,3.4,2.8,2.7,5.4-2.3-1-2.5-.6-4.7.8-.2-1.3,1.5-3.7,1.5-5.4" fill-rule="evenodd"/><path id="Fill-150" d="M656.9,734.617c-.8-.4-1.6-.9-2.5-1.3,2.9-1.8,2.1-4.8,2.5-7.6,1.2.8,1.2,3.3,1.5,4.8.6,2.6.6,2.6-1.5,4.1" fill-rule="evenodd"/><path id="Fill-152" d="M706.3,592.617c-1.9-.4-2.1-1.1-1.2-2.8-.2.3,2.5-1.6,2.2-1.6,3.4-.2,1.2,2.6,1,4.5-.6,0-1.3-.1-2-.1" fill-rule="evenodd"/><path id="Fill-154" d="M12,604.917c0-1.4-.7-8.4,1.8-5.7,1.4,1.5.2,4.4.2,6.2a14.475,14.475,0,0,0-2-.5" fill-rule="evenodd"/><path id="Fill-156" d="M553.8,702.917a32.421,32.421,0,0,1,.5-6.2c.7-2.8.5-2.8,1.2-.2.2,1.3.9,8.2-1.7,6.4" fill-rule="evenodd"/><path id="Fill-158" d="M56.4,728.717c.7-1.5-1-5.3-.9-7.4,1.9,2.2,4.8,5.3,1.7,8.1a2.7,2.7,0,0,1-.8-.7" fill-rule="evenodd"/><path id="Fill-160" d="M620.7,567.917c-.4-1.4-2-5.4.8-4.9,1,.2,1.3,1.6,1.4,2.5.3,2,.1,2.4-2.2,2.4" fill-rule="evenodd"/><path id="Fill-162" d="M751.1,616.317c-1.2-1.9.2-3.7.4-6.1,3.2-.3,2.1,5.5,2.1,7.3-1.8.6-.7-1.6-1.6-2.3a10.522,10.522,0,0,0-.9,1.1" fill-rule="evenodd"/><path id="Fill-164" d="M657.6,607.016c-1.9-1.5.1-1.4,0-2.7a15.038,15.038,0,0,0-.4-3.5c2.4-.6,2.5,1.6,2.7,3,.5,2.6.1,3-2.3,3.2" fill-rule="evenodd"/><path id="Fill-166" d="M13.3,732.017c-.1-1-1.4-7.7.7-6.5,1.6.9.6,5,.5,6.6a5.739,5.739,0,0,0-1.2-.1" fill-rule="evenodd"/><path id="Fill-168" d="M657.8,598.516c-.1-1-.1-2-.2-3-.6-1.2-.3-1.8.8-1.7s1.4-.5.9-1.7l.1-3.1c1.3.9,1.7,5.4,1.1,6.8-.2.2-3,2.5-2.7,2.7" fill-rule="evenodd"/><path id="Fill-170" d="M753.2,672.617c-1-.1-1.2-2.8-1-3.6.6-2.1,1-2.1,3-2.1-.9,2,.8,4.7-2,5.7" fill-rule="evenodd"/><path id="Fill-172" d="M60.1,574.016c-1.2-2.4-1.3-2.5.4-4.6,2.2,1.8,2.2,4.6,1.5,7.1a23.685,23.685,0,0,0-1.9-2.5" fill-rule="evenodd"/><path id="Fill-174" d="M620.5,552.317c-2.3-1.1-1.2-4.6-1.1-6.4,2.6,1.5,3.6,4.3,1.1,6.4" fill-rule="evenodd"/><path id="Fill-176" d="M618.6,537.117c-3.3,4.6-2.7-1.6-2.5-3.9,1.3.7,3.8,2.4,2.5,3.9" fill-rule="evenodd"/><path id="Fill-178" d="M203.3,487.917c-1.3-2.9.2-7-.9-10.3,4.7.4,1.7,7.4.9,10.3" fill-rule="evenodd"/><path id="Fill-180" d="M622.2,581.516c0-.8.1-1.5.1-2.2.3-.8-.1-1.2-1.1-1.2l-1.2-.4.3-4.2a9.921,9.921,0,0,1,3.4,5.2c0,.5-.4,3.9-1.5,2.8" fill-rule="evenodd"/><path id="Fill-182" d="M661.7,554.217c0-1.7-.5-4.3,0-6-.7-1.9,0-2.7,1.9-2.3a2.092,2.092,0,0,1,.4.6c.1.8-.8,2.8-1,3.8a57.583,57.583,0,0,0-.1,5.9c-.4-.7-.8-1.3-1.2-2" fill-rule="evenodd"/><path id="Fill-184" d="M706.7,539.016c-2.3-2.6-2-3.1.4-5.3.9,1.5,2,5.2-.4,5.3" fill-rule="evenodd"/><path id="Fill-186" d="M171.5,553.617c-.1-1.2-.1-2.4-.2-3.6.5,1.2,1.1,2.4,1.6,3.7.6-.7,1.2-1.5,1.9-2.2v6c-1.1-1.4-2.2-2.6-3.3-3.9" fill-rule="evenodd"/><path id="Fill-188" d="M12,681.817c-1.4-2.7-.4-5.8-.1-8.8,1,2.5,3.8,7.8.1,8.8" fill-rule="evenodd"/><path id="Fill-190" d="M698.7,470.117c3.3.3,1.6-.7,2.9-3.1.2-.5.6-3.3,2-1.6,2.1,2.3-2.1,6.6-4.9,4.7" fill-rule="evenodd"/><path id="Fill-192" d="M51,754.417c1.6-.9,3.1-1.8,4.7-2.7.8,2,1,2.4-1.4,3.2a3.574,3.574,0,0,1-3.3-.5" fill-rule="evenodd"/><path id="Fill-194" d="M13.9,747.217c-1.2-2.1-1.7-7.1.8-7.5.2,1.3,0,7.4-.8,7.5" fill-rule="evenodd"/><path id="Fill-196" d="M87.8,557.217c0,5.8,0,11.5-.1,17.3a124.846,124.846,0,0,1,.1-17.3" fill-rule="evenodd"/><path id="Fill-198" d="M583.5,739.917c1.5-2.5,1.6-5.2,2-8.1.9,2.4,0,3-.2,5.5s1.2,3.6-1.3,5.1a18.425,18.425,0,0,0-.5-2.5" fill-rule="evenodd"/><path id="Fill-200" d="M12,616.217v-8.7c1.7,2.6,1.4,5.9,2,8.8a13.536,13.536,0,0,0-2-.1" fill-rule="evenodd"/><path id="Fill-202" d="M131,587.817c-1.1-2.6-.5-5.2-.4-8,1,1.1,1,2,1.3,3.5.5,2.2,1.6,4-.9,4.5" fill-rule="evenodd"/><path id="Fill-204" d="M587.9,689.817c-.4.7-.9,1.3-1.3,2-.5-2.1-.3-2.4-2.3-3,.8-1,1.5-2.1,2.3-3.1,1.7.8,1.5,2.5,1.3,4.1" fill-rule="evenodd"/><path id="Fill-206" d="M656.9,718.217c-.1-2.4-.2-4.9-.4-7.3,2.4,2.3,1.2,5.1,1.6,8-.4-.2-.8-.5-1.2-.7" fill-rule="evenodd"/><path id="Fill-208" d="M122.3,416.516c-.9-3.6-.7-7.1-.6-10.8,1.2-.2,1.1,9.7,1.2,11.2-.2-.1-.4-.3-.6-.4" fill-rule="evenodd"/><path id="Fill-210" d="M704.4,518.617c0-.3-1.1-6.1.9-5.1,1.6.7,1,5.4.8,6.6a4.039,4.039,0,0,0-1.7-1.5" fill-rule="evenodd"/><path id="Fill-212" d="M122.4,429.117c-1.4-2.4-1.1-5.1,0-7.6.4,2.7,1.6,5.3,0,7.6" fill-rule="evenodd"/><path id="Fill-214" d="M709.7,662.217c-.5.7-.9,1.3-1.4,2-.9-2.8-1.1-6.7.9-9.1-.9,2.4.7,4.7.5,7.1" fill-rule="evenodd"/><path id="Fill-216" d="M555.8,726.217c-.5.2-1.1.4-1.6.6.6-2-1.8-2.2-3-2.9,2.8-.2,1.2-1.8,2.5-2.2,3-1,2,2.7,2.1,4.5" fill-rule="evenodd"/><path id="Fill-218" d="M120.2,290.717c-.6-1.2-.4-6.9,0-6.9,2.2.3,1.3,6.2,0,6.9" fill-rule="evenodd"/><path id="Fill-222" d="M620.7,605.617c-1.3-2.5-.4-5.3,0-7.9,2.4,1.9.9,1.3.8,3.8-.2,1.7,0,2.6-.8,4.1" fill-rule="evenodd"/><path id="Fill-224" d="M542.5,657.917a151.437,151.437,0,0,1,.3,16.5c-.2-5.5-.4-11-.3-16.5" fill-rule="evenodd"/><path id="Fill-226" d="M76.4,411.816c4.3-2,.7-5.4,3.7-7.5.6,1.9-1.6,10.8-3.7,7.5" fill-rule="evenodd"/><path id="Fill-228" d="M586.7,660.016c-1.3-2.1-1-2.1-1.1-4.3-.1-1.1-.3-1.2-1.4-1.6,2.4-1.1,2.5.3,2.8,2.8a9.11,9.11,0,0,0,1,.5,21.157,21.157,0,0,0-1.3,2.6" fill-rule="evenodd"/><path id="Fill-230" d="M160.5,459.317c0,5.3.5,10.7-.3,16-.1-4.7-1.4-11.7.3-16" fill-rule="evenodd"/><path id="Fill-232" d="M704.4,518.617c1.2.7,3.5,7.9,2.4,8.4-.6-1.6-.3-3.1-1.8-1.4-.2-2.3-.4-4.7-.6-7" fill-rule="evenodd"/><path id="Fill-234" d="M621.6,574.217c-2-1-1.6-3.8.4-4.9,2.4,1.2.8,3.7-.4,4.9" fill-rule="evenodd"/><path id="Fill-236" d="M705.2,589.417c-2.3-2.8,1.7-7.1,2.4-5.7.4.8-1.6,2.7-1.7,2.8a8.762,8.762,0,0,0-.7,2.9" fill-rule="evenodd"/><path id="Fill-238" d="M710.8,684.417a4.106,4.106,0,0,1,0-5.4c-1,1.6,5,2.8,0,5.4" fill-rule="evenodd"/><path id="Fill-240" d="M131.3,658.016c-.2-2.4-1.6-7.5-.2-9.5.9,3.9.5,5.7.2,9.5" fill-rule="evenodd"/><path id="Fill-242" d="M706.7,620.317c-.2-2.5-.3-2.8,1.7-4.3,1.2,1.9-.9,4.5,2,5.5-.1,0-1.2.9-1.3.9-.8-.6-1.6-1.4-2.4-2.1" fill-rule="evenodd"/><path id="Fill-244" d="M4,478.917c2.7-.2,2.5,1.9,3.3,3.4-2.7.7-3.3,0-3.3-3.4" fill-rule="evenodd"/><path id="Fill-246" d="M59.9,589.217c-.6-2.7-1-5.5.6-7.9l.9,6.9c-.4-.5-.7-.9-1.1-1.4Z" fill-rule="evenodd"/><path id="Fill-248" d="M706.7,602.417c-1.3-1-1.2-4.5.9-4.1,3.5.6.5,3-.9,4.1" fill-rule="evenodd"/><path id="Fill-250" d="M57.3,630.917a48.524,48.524,0,0,0-.9-5.5c1.8,1.1,2.6,3.8,3.6,5.7-.9-.1-1.8-.1-2.7-.2" fill-rule="evenodd"/><path id="Fill-252" d="M97.3,658.516c0-3.8,0-7.6.1-11.4.6,3.9,1,7.6-.1,11.4" fill-rule="evenodd"/><path id="Fill-254" d="M57,736.117c-2.1-1.7-1.4-4.8.9-5,0,1.8.9,3.7-.9,5" fill-rule="evenodd"/><path id="Fill-256" d="M121.7,401.217c0-2.5,0-5,.1-7.4,1.4,1,1.7,6.8-.1,7.4" fill-rule="evenodd"/><path id="Fill-258" d="M706.3,563.617c.4-1.6-.3-1.7-.3-2.7,0-.9-1.4-.2-.5-1.5.2-.3,3.5,1.9,3.5,1.9.5,1.3-1.7,2.6-2.7,2.3" fill-rule="evenodd"/><path id="Fill-260" d="M705.4,529.717c-.3-1-.7-2-1-3a11.247,11.247,0,0,1,2.2,1.9c.8,1.5.6,3.3.6,5l-1.8-3.9" fill-rule="evenodd"/><path id="Fill-264" d="M118.6,300.717c0-.8.4-7.7,2-6,.7.7-.8,5.7-2,6" fill-rule="evenodd"/><path id="Fill-266" d="M585.3,731.417c-1.6-.7-2.1-3.3,0-3.6,3.4-.3.9,2.7,0,3.6" fill-rule="evenodd"/><path id="Fill-268" d="M555.6,721.717c-1.7.6-2.4.1-2-1.5,0-1-.1-2-.1-3.1,1.7-1.9,2.2,4.2,2.1,4.6" fill-rule="evenodd"/><path id="Fill-270" d="M542.2,592.317c0,4.2-.1,8.4-.1,12.7,0-4.3,0-8.5.1-12.7" fill-rule="evenodd"/><path id="Fill-272" d="M169.3,478.217c-1.3-1.5-.5-3.4-.6-5.1,3.2,1.1,1.9,3.6.6,5.1" fill-rule="evenodd"/><path id="Fill-274" d="M746.5,550.717q-.9-.15-1.8-.3c.5-1.6,1.1-4.5,3.5-3.3-.6,1.2-1.1,2.4-1.7,3.6" fill-rule="evenodd"/><path id="Fill-276" d="M647.9,708.717v12.8c.1-4.3,0-8.6,0-12.8" fill-rule="evenodd"/><path id="Fill-278" d="M751.5,724.217c-1.2-1.2-.9-4.7,1.3-2.8,1.5,1.2.6,3.1-1.3,2.8" fill-rule="evenodd"/><path id="Fill-280" d="M663.3,536.817c0-3.1-.1-6.1-.1-9.2.2,3.1,1,6.2.1,9.2" fill-rule="evenodd"/><path id="Fill-282" d="M202.4,474.217c.1-2.3-1.2-6.5-.7-7.7,1.4,2.4,3.1,5.4.7,7.7" fill-rule="evenodd"/><path id="Fill-284" d="M61.1,603.217c-.3-2.1-3.3-1.7-3.9-3.7.7.2,7.3,1,3.9,3.7" fill-rule="evenodd"/><path id="Fill-286" d="M588.2,664.417c-.3-.5-.5-1-.8-1.4-2.2,1.4-1.8.9-3.4-.7,1.4.2,2.3-1.3,3.1-.9,1.2.6,2,1.8,1.1,3" fill-rule="evenodd"/><path id="Fill-288" d="M554.9,668.617c-.1-.5-.8-5.8-.5-5.9.6-.1,1.5,2.2,1.6,2.5.4,1.9.5,1.6-1.1,3.4" fill-rule="evenodd"/><path id="Fill-290" d="M58.9,543.516c-.5-1.7-.2-2.4.5-4.1,1.5,2,3.1,3.9-.5,4.1" fill-rule="evenodd"/><path id="Fill-292" d="M546.7,738.617a22.061,22.061,0,0,0,3.7-.4c1.1-.4.8-3.4,2.8-1.7-2.2,3.4-2.4,3.3-6.5,2.1" fill-rule="evenodd"/><path id="Fill-294" d="M130.9,609.217c0-1.5-.6-3.1.6-4.3,1.8.7,1.7,4.7-.6,4.3" fill-rule="evenodd"/><path id="Fill-296" d="M90.3,468.217c-1.2.6-2.5,1.2-3.7,1.8-.4-2.9,3.9-5.2,3.7-1.8" fill-rule="evenodd"/><path id="Fill-298" d="M11.1,556.317a13.552,13.552,0,0,0,2-.2c0,.5.5,5.7-1.2,4.7-1-.6-.8-3.5-.8-4.5" fill-rule="evenodd"/><path id="Fill-300" d="M582.9,697.217c1.4-1.7,3.8.9,2.2,2.5-2.3,2.2-3.2-.6-2.2-2.5" fill-rule="evenodd"/><path id="Fill-302" d="M175,575.917c2,3.3-1,2-3.3,1.9.9-1.5,1.5-3,3.3-1.9" fill-rule="evenodd"/><path id="Fill-304" d="M665.6,482.617v-6.6c.1,1,2.2,7.5,0,6.6" fill-rule="evenodd"/><path id="Fill-306" d="M657,639.317c-.2-1.4-.3-2.8-.5-4.2.6.7,2.8,2.4,2.4,3.5-.4,1-1.2,0-1.9.7" fill-rule="evenodd"/><path id="Fill-308" d="M656.3,689.017c.2-3-.5-4.5,2.5-5.3-.8,1.7-1.6,3.5-2.5,5.3" fill-rule="evenodd"/><path id="Fill-310" d="M708.2,646.117c-1-1.9-1.5-5.2-.3-7,1.6,1.1.4,5.5.3,7" fill-rule="evenodd"/><path id="Fill-312" d="M94.4,500.417c-.2-1.6-.3-3.2-.5-4.8,2.4,1.6,1.7,2.6.5,4.8" fill-rule="evenodd"/><path id="Fill-314" d="M710.5,686.517a8.342,8.342,0,0,0-1.2-.8c1.3-1.1,2.4-.5,4-.3l-.8,2.5c-.6-.5-1.3-.9-2-1.4" fill-rule="evenodd"/><path id="Fill-316" d="M172.5,563.717a2.747,2.747,0,0,1,.8-2.4c1,1.2,2.7,4.7-.9,4.3a12.1,12.1,0,0,1,.1-1.9" fill-rule="evenodd"/><path id="Fill-318" d="M619.3,544.917c-.1-1.1-.7-3.1,1-3.3.8,1.8,1.3,3-1,3.3" fill-rule="evenodd"/><path id="Fill-320" d="M657.4,726.117c-1-.7-.5-3-.5-4.1,1.9.9,1.5,2.8,1.6,4.8a6.726,6.726,0,0,0-1.1-.7" fill-rule="evenodd"/><path id="Fill-322" d="M585.6,697.517l-2.1-.9c1-.5.8-2.8,2.4-2.4,1.2.2.1,2.8-.3,3.3" fill-rule="evenodd"/><path id="Fill-324" d="M161.1,509.617c-.1,3.4-.1,6.7-.2,10.1,0-3.4.1-6.7.2-10.1" fill-rule="evenodd"/><path id="Fill-326" d="M704.4,458.217c-2.2.2-1.2-3-.7-3.6,1.4,1.2,1.6,2,.7,3.6" fill-rule="evenodd"/><path id="Fill-328" d="M706.8,615.117c-.5-.9-1.4-1.7-.6-2.8.8,1.4,1.1-.1,1.9-1.2.6,2.5,1.3,2.7-1.3,4" fill-rule="evenodd"/><path id="Fill-330" d="M742.7,687.017c0,3.1,0,6.2-.1,9.3a20.823,20.823,0,0,1,.1-9.3" fill-rule="evenodd"/><path id="Fill-332" d="M202.4,474.217a4.829,4.829,0,0,1,1.6-1.2c0,.4-.1,4.4-.4,4.6-1.8,1.4-1.2-2.8-1.2-3.4" fill-rule="evenodd"/><path id="Fill-334" d="M620.5,552.317a14.96,14.96,0,0,1,1.3-1.1c.3,1,.6,1.9.9,2.9-1.7.1-4,.3-2.2-1.8" fill-rule="evenodd"/><path id="Fill-336" d="M621.7,560.317c-.6.7-1.1,1.3-1.7,2,0-2-.1-4-.1-6,1.7.2.8,3.3,1.8,4" fill-rule="evenodd"/><path id="Fill-338" d="M8,352.917c-.2-.8-.3-1.7-.5-2.5-.3.6-.6,1.3-.9,1.9.1-1.3.1-2.7.2-4a3.823,3.823,0,0,1,1.2,4.6" fill-rule="evenodd"/><path id="Fill-340" d="M542.8,618.317c-.2,1.8,3.1,2.6,2.7,3.7-.2.6-1.9,0-2.3-.3-1-.8-.5-1.9-.4-3.4" fill-rule="evenodd"/><path id="Fill-342" d="M167.8,468.117c-.2-1.6-.3-3.2-.5-4.8,1,.1,1.2,3.3,2.3,4.6a10.91,10.91,0,0,0-1.8.2" fill-rule="evenodd"/><path id="Fill-344" d="M657.4,642.217c-.1-.5-2.3-2,.4-1.5,1.3.3,2.8,1.6.9,2.9a16.605,16.605,0,0,1-1.3-1.4" fill-rule="evenodd"/><path id="Fill-346" d="M60.6,550.217c-2.6-1-2.9-1.6-1.8-4.2l1.8,4.2" fill-rule="evenodd"/><path id="Fill-348" d="M705.5,535.117a2.678,2.678,0,0,1-.6.5c-.4-2-1.3-3.8-.3-5.6l.9,5.1" fill-rule="evenodd"/><path id="Fill-350" d="M656.6,677.017c0-2.2-.1-4.5-.1-6.7a7.853,7.853,0,0,1,.1,6.7" fill-rule="evenodd"/><path id="Fill-352" d="M130.5,673.217l-.3-7.5c2.1,1.1.6,5.5.3,7.5" fill-rule="evenodd"/><path id="Fill-354" d="M661.9,564.817c-1.5-.8-.9-2.1-.8-3.7a2.178,2.178,0,0,1,.8,3.7" fill-rule="evenodd"/><path id="Fill-356" d="M58.6,539.117c-.1.4-.2.9-.3,1.3-2.2-.9-1.1-2.7-1.4-4.4.6,1,1.1,2.1,1.7,3.1" fill-rule="evenodd"/><path id="Fill-358" d="M709.1,622.417a10,10,0,0,1,.5,6.4c-1-1.6.7-4.3-1.8-5,1.4-.5,1.9-1,1.3-1.4" fill-rule="evenodd"/><path id="Fill-360" d="M11.9,578.516c.2-1,.3-1.9.5-2.9a20.058,20.058,0,0,1,1.4,2.5Z" fill-rule="evenodd"/><path id="Fill-362" d="M743.3,645.817c0,2.9-.1,5.8-.1,8.8,0-2.9.1-5.8.1-8.8" fill-rule="evenodd"/><path id="Fill-364" d="M169.3,478.217a9.016,9.016,0,0,0,.9-1c1.6,1.5.3,3,0,4.7-1.3-.9-.8-2.4-.9-3.7" fill-rule="evenodd"/><path id="Fill-366" d="M12,584.617c-.3-2.8-.8-3.3,1.8-4.6-.6,2.1-1.8,3.2.5,4.8-.8-.1-1.5-.1-2.3-.2" fill-rule="evenodd"/><path id="Fill-368" d="M59.4,611.617h0c-.9,1.2-2.1,1.4-3.6,1.8.4-1.7,1.3-1.8,2.4-3l1.2,1.2" fill-rule="evenodd"/><path id="Fill-370" d="M704.4,450.117c-1.8-1.1-1.1-3.5-1.1-5.4a6.9,6.9,0,0,1,1.1,5.4" fill-rule="evenodd"/><path id="Fill-372" d="M665.8,474.717c-.1-1.6-.1-3.3-.2-4.9,1.8,2.2,1.8,2.6.2,4.9" fill-rule="evenodd"/><path id="Fill-374" d="M555.3,694.617c-2,0-1.2-3.5.1-4.3,1.1,1.4,0,2.8-.1,4.3" fill-rule="evenodd"/><path id="Fill-376" d="M6.6,400.516a15.929,15.929,0,0,1,1,5.7c-1.4-1.6-1.1-3.7-1-5.7" fill-rule="evenodd"/><path id="Fill-378" d="M656.7,628.217c-.6-1.7-.3-2.4.2-4.1.6.6,1.3,1.1,1.9,1.7-.6.8-1.4,1.6-2.1,2.4" fill-rule="evenodd"/><path id="Fill-380" d="M710.5,691.317c.1-1.3.1-2.5.2-3.8,1.7,1.9,4,4.1-.2,3.8" fill-rule="evenodd"/><path id="Fill-382" d="M702.9,500.617a3.96,3.96,0,0,1-1.7-3.6c2.2.9,2.3,1.1,1.7,3.6" fill-rule="evenodd"/><path id="Fill-384" d="M647.1,653.217c.8,2.4.2,4.8.3,7.2-.1-2.3-.2-4.8-.3-7.2" fill-rule="evenodd"/><path id="Fill-386" d="M7.5,750.217c1.2-1.8,2.9-.5,4.3-.6-1.3.8-2.6,2.2-4.3.6" fill-rule="evenodd"/><path id="Fill-388" d="M586.8,684.317c-.5-1.6-1.5-2.5.2-3.3a6.106,6.106,0,0,1,.8,3.8c-.3-.2-.7-.3-1-.5" fill-rule="evenodd"/><path id="Fill-390" d="M172.6,611.717c-.9-1.3-.5-2.4.9-3.1.6,1.6,1.4,3.4-.9,3.1" fill-rule="evenodd"/><path id="Fill-392" d="M57.3,680.517c-.4-.1-3.5-1.6-1.4-2.5,2.3-.9,2.1,1.5,1.4,2.5" fill-rule="evenodd"/><path id="Fill-394" d="M582.4,700.117c1.5-.6,2.2-.2,2.2,1.1-2.6.2-2.4.6-3,3.1-.2-1.5-.6-3.1.8-4.2" fill-rule="evenodd"/><path id="Fill-396" d="M120.7,571.817c-.1,2.7-.1,5.5-.2,8.2.1-2.8.1-5.5.2-8.2" fill-rule="evenodd"/><path id="Fill-398" d="M753.6,665.917c-1.3-1.1-2.2-2.3-.5-3.6.7,1.5,1.9,2.4.5,3.6" fill-rule="evenodd"/><path id="Fill-400" d="M532.1,721.917c.1-2.6.2-5.2.2-7.8-.1,2.6-.2,5.2-.2,7.8" fill-rule="evenodd"/><path id="Fill-402" d="M585.6,697.517c.2-.2,4.5,1.9-.6,2.3.2-.8.4-1.6.6-2.3" fill-rule="evenodd"/><path id="Fill-404" d="M55.9,671.217c-2.6-2.7,3.8-4.1,1.9.2-.5-.8-.9-1.6-1.4-2.4a14.217,14.217,0,0,1-.5,2.2" fill-rule="evenodd"/><path id="Fill-406" d="M117.6,274.117a1.748,1.748,0,0,0-2.6-.6,20.035,20.035,0,0,1,1-2.6c1.1.7,2.1,1.8,1.6,3.2" fill-rule="evenodd"/><path id="Fill-408" d="M657.4,642.217c1.7,1.9.9,2.1-.4,4.1.2-.4-1.8-2.9.4-4.1" fill-rule="evenodd"/><path id="Fill-410" d="M56,667.917l-1.5-1.4c1.6-1.1,3-1,3.5.9a11.6,11.6,0,0,0-2,.5" fill-rule="evenodd"/><path id="Fill-412" d="M584.2,654.117c2,.7,1.5,1.6.9,3.4-1.2-1.5-1.6-1.5-.9-3.4" fill-rule="evenodd"/><path id="Fill-414" d="M130.9,609.217c1.7.3,1.7,4.3,0,3.7v-3.7" fill-rule="evenodd"/><path id="Fill-416" d="M649.9,735.817c.6-.7,1.3-1.4,1.9-2,.6,1.4.2,4.3-1.9,2" fill-rule="evenodd"/><path id="Fill-418" d="M662.5,543.617c-.5-1.7-.6-3.4.7-4.9,1.1,1.9,0,3.4-.7,4.9" fill-rule="evenodd"/><path id="Fill-420" d="M696.7,604.317c.1,2.4.2,4.8.3,7.3-.1-2.5-.2-4.9-.3-7.3" fill-rule="evenodd"/><path id="Fill-422" d="M160.1,556.717c.1,2.4.2,4.8.3,7.1-.1-2.4-.2-4.7-.3-7.1" fill-rule="evenodd"/><path id="Fill-424" d="M657.1,656.717c.5-1.8.9-3.2,1.4-4.6.7,3.7.7,3.7-1.4,4.6" fill-rule="evenodd"/><path id="Fill-426" d="M588.1,680.417c-.6-1-1.2-2.2-.3-3.3.9,1,2.7,2.7.3,3.3" fill-rule="evenodd"/><path id="Fill-428" d="M665.7,489.217c-1.1-1.8-.5-3.7-.1-5.5.2,1.8,1.7,3.6.1,5.5" fill-rule="evenodd"/><path id="Fill-430" d="M706.6,596.417c0-1.2-.1-2.3-.1-3.5.7,1.1,1.4,2.1,2,3.2-.6.1-1.3.2-1.9.3" fill-rule="evenodd"/><path id="Fill-432" d="M11.9,710.917c-.1-2.2-.4-2.5,1-4.4v4.5Z" fill-rule="evenodd"/><path id="Fill-434" d="M130.9,642.117c-1.1-1.7-.7-3.5-.3-5.3a7.45,7.45,0,0,1,.3,5.3" fill-rule="evenodd"/><path id="Fill-436" d="M129.8,723.917c0-2.4-.1-4.8-.1-7.2,0,2.4.1,4.8.1,7.2" fill-rule="evenodd"/><path id="Fill-438" d="M665,499.717c.2-1.8-1-3.8.5-5.4,0,.9.4,6-.5,5.4" fill-rule="evenodd"/><path id="Fill-440" d="M711.8,702.317c-1.3-.3-1.8-1.2-1.3-2.7,2,.8,3.2.9,1.3,2.7" fill-rule="evenodd"/><path id="Fill-442" d="M160.8,501.117c.1,2.4.1,4.8.2,7.2-.1-2.4-.2-4.8-.2-7.2" fill-rule="evenodd"/><path id="Fill-444" d="M703.6,511.016c-.1-2.5-.2-4.9-.3-7.4.1,2.5.2,5,.3,7.4" fill-rule="evenodd"/><path id="Fill-446" d="M653.1,735.817c.9-1.7,2.3-.7,3.5-.6-1.1,1.3-2.4,1.5-3.5.6" fill-rule="evenodd"/><path id="Fill-448" d="M658.9,658.417c-.1,1.5-.2,2.9-.2,4.4-1.3-1-1.7-4.5.2-4.4" fill-rule="evenodd"/><path id="Fill-450" d="M582.3,671.117c.1,2.4.2,4.9.3,7.3-.1-2.5-.2-4.9-.3-7.3" fill-rule="evenodd"/><path id="Fill-452" d="M582.3,728.217a10.436,10.436,0,0,1,.2,6.3c-.1-2.1-.2-4.2-.2-6.3" fill-rule="evenodd"/><path id="Fill-454" d="M696.7,550.717c1,2.2.4,4.4.1,6.7-.1-2.2-.1-4.5-.1-6.7" fill-rule="evenodd"/><path id="Fill-456" d="M555.8,662.417c-.9-1-2.4-1.8-1.2-3.5.9,1,2,1.9,1.2,3.5" fill-rule="evenodd"/><path id="Fill-458" d="M96.6,706.117c-.1-2-.6-4.1.6-6a19.435,19.435,0,0,1-.6,6" fill-rule="evenodd"/><path id="Fill-460" d="M752.4,685.617c.4-.1.8-.3,1.2-.4,0,3.5-.6,4.5-1.2.4" fill-rule="evenodd"/><path id="Fill-462" d="M554.7,677.917c-.1-1.2-.1-2.4-.2-3.5.3.4,2.9,4.2.2,3.5" fill-rule="evenodd"/><path id="Fill-464" d="M163.7,454.217c-.1-1.6-.3-3.2-.4-4.8,1.2,2.3,1.9,2.8.4,4.8" fill-rule="evenodd"/><path id="Fill-466" d="M581.6,715.417c.8,1.8,1.2,3.6,0,5.4v-5.4" fill-rule="evenodd"/><path id="Fill-468" d="M167,460.817c-.3-1.4-.7-2.9-1-4.3,2.6.2,1.3,2.2,1,4.3" fill-rule="evenodd"/><path id="Fill-470" d="M58.5,615.817c-.8-1-1.4-1.9.3-2.4.9,1.4,2.8,3.7-.3,2.4" fill-rule="evenodd"/><path id="Fill-474" d="M706,607.016v-1.5c1.8.8,1.8.2,3.2-1.2-.2,2-1.3,2.9-3.2,2.7" fill-rule="evenodd"/><path id="Fill-476" d="M712.3,695.417c-.4-.7-.8-1.3-1.2-1.9,1.1-.6,2.1-1.2,3.2-1.9-.6,1.5-.8,2.6-2,3.8" fill-rule="evenodd"/><path id="Fill-480" d="M11.9,704.917l.6-2.1c2,1.4,1.3,3.2-.6,2.1" fill-rule="evenodd"/><path id="Fill-484" d="M98.3,585.817a8.281,8.281,0,0,1,0-6v6" fill-rule="evenodd"/><path id="Fill-490" d="M547,581.417c-.9-2.6.3-2.5,2.4-4-.3.8-1.4,4.1-2.4,4" fill-rule="evenodd"/><path id="Fill-492" d="M12.6,622.217l-.6-4.2c.5,1.1.5,2.2,1.8,2.4a14.093,14.093,0,0,0-1.2,1.8" fill-rule="evenodd"/><path id="Fill-494" d="M712.3,673.217c-.4-.6-.7-1.1-1.1-1.7,1.3-.3,3.1.8,1.1,1.7" fill-rule="evenodd"/><path id="Fill-496" d="M11.9,657.917v-4.8c.8.8,1.1,5.3,0,4.8" fill-rule="evenodd"/><path id="Fill-498" d="M665.5,493.217c-1-1-.6-3,.8-2.7a27.685,27.685,0,0,0-.8,2.7" fill-rule="evenodd"/><path id="Fill-500" d="M615.7,532.317c-.8-.5-1.7-1-2.5-1.4.5-.6,1-1.1,1.6-1.7.2.4,1.9,2.9.9,3.1" fill-rule="evenodd"/><path id="Fill-502" d="M743.3,669.717c.1,2,.8,4.1-.4,6,.2-2,.3-4,.4-6" fill-rule="evenodd"/><path id="Fill-504" d="M130.8,592.417c.1-.7.1-1.4.2-2.1,1.6.9,3.1,1.5-.2,2.1" fill-rule="evenodd"/><path id="Fill-506" d="M701.8,443.417c-.5,1.1-.7,2.8-2.6,1.5-.1-2.2,1.8-1,2.6-1.5" fill-rule="evenodd"/><path id="Fill-508" d="M658.9,689.817v3.6c-2.1-1-1.2-2,0-3.6" fill-rule="evenodd"/><path id="Fill-510" d="M750.9,607.117c-1.3-.6-1.3-1.8-.9-3,1.6.8,1.1,1.3.9,3" fill-rule="evenodd"/><path id="Fill-512" d="M130.9,596.617l1.8-2.1v3.4c-1.2.1-1.8-.3-1.8-1.3" fill-rule="evenodd"/><path id="Fill-514" d="M87.7,536.117c0,2,0,4-.1,6,.1-2,.1-4,.1-6" fill-rule="evenodd"/><path id="Fill-516" d="M746.4,545.317c-.1-1.1-.1-2.2-.2-3.2,1.4,1,1.2,2.7.7,4.1a4.053,4.053,0,0,0-.5-.9" fill-rule="evenodd"/><path id="Fill-518" d="M11.7,575.317c-1-1.6-.5-3.3.1-4.9,1.1,1.8.4,2.9-.1,4.9" fill-rule="evenodd"/><path id="Fill-520" d="M75.1,403.117c-.1,1.8-.2,3.6-.2,5.3.1-1.8.2-3.6.2-5.3" fill-rule="evenodd"/><path id="Fill-522" d="M86,501.117c.1,1.7.2,3.5.3,5.2-.1-1.8-.2-3.5-.3-5.2" fill-rule="evenodd"/><path id="Fill-524" d="M95,511.117c-.1-1.4-.3-2.8-.4-4.2,1.5,1.1.7,2.5.4,4.2" fill-rule="evenodd"/><path id="Fill-526" d="M658.5,390.917c-.2.9-.4,1.9-.6,2.8-1.1-.3.4-2.4-1.6-1.6.1-1.6,1.2-1.4,2.2-1.2" fill-rule="evenodd"/><path id="Fill-528" d="M620.2,556.516c-1.3-1.1,1.5-1.3,2-1.3.4,1-.3,1.5-2,1.3" fill-rule="evenodd"/><path id="Fill-530" d="M98.3,560.617q-.15-2.7-.3-5.4.15,2.7.3,5.4" fill-rule="evenodd"/><path id="Fill-532" d="M129.7,709.417c.1-1.7.2-3.4.2-5.1,0,1.7-.1,3.4-.2,5.1" fill-rule="evenodd"/><path id="Fill-534" d="M656.9,705.617l-.6-1.5c1.3-.5,1.9.2,1.8,1.4a4.822,4.822,0,0,1-1.2.1" fill-rule="evenodd"/><path id="Fill-536" d="M699,639.817c.1,1.6.2,3.2.3,4.9a4.387,4.387,0,0,1-.3-4.9" fill-rule="evenodd"/><path id="Fill-538" d="M621.3,655.317c-.7-1.3-1.1-2.5.5-3.4-.2,1.1-.4,2.2-.5,3.4" fill-rule="evenodd"/><path id="Fill-540" d="M162.4,591.516v5.4a6.761,6.761,0,0,1,0-5.4" fill-rule="evenodd"/><path id="Fill-542" d="M172.5,563.717c0,.7-.1,1.3-.1,2-1.3-1-1.1-1.5-1.1-3.1a11.985,11.985,0,0,1,1.2,1.1" fill-rule="evenodd"/><path id="Fill-544" d="M659.2,588.717c-.7-1.5-.1-5.1,2.1-3.4a3.371,3.371,0,0,0-2.1,3.4" fill-rule="evenodd"/><path id="Fill-546" d="M162.9,608.917c0,1.7,0,3.5-.1,5.2.1-1.7.1-3.4.1-5.2" fill-rule="evenodd"/><path id="Fill-548" d="M696.7,583.217c.1,1.8.1,3.6.2,5.4-.1-1.8-.2-3.6-.2-5.4" fill-rule="evenodd"/><path id="Fill-550" d="M165.8,456.117c-.8.1-1.7.1-2.5.2.6-1.6,3-2.8,2.5-.2" fill-rule="evenodd"/><path id="Fill-552" d="M208.7,637.417v-5.3c.1,1.8,0,3.5,0,5.3" fill-rule="evenodd"/><path id="Fill-554" d="M171.3,540.217c.3-.9.3-2.1,1.2-2.4.9,1.5.4,2.3-1.2,2.4" fill-rule="evenodd"/><path id="Fill-556" d="M554.2,614.317c-.2-1.1-.3-2.3-.5-3.4,2-.7.6,2.7.5,3.4" fill-rule="evenodd"/><path id="Fill-558" d="M172.5,537.717c.4-1.8.6-2.3,2.4-1.8a18.857,18.857,0,0,1-2.4,1.8" fill-rule="evenodd"/><path id="Fill-560" d="M87.6,580.417c0,1.8.1,3.6.1,5.3-.1-1.8-.1-3.6-.1-5.3" fill-rule="evenodd"/><path id="Fill-562" d="M56.8,742.017a26.2,26.2,0,0,0-.1-2.8c.4.5,2.7,3.7.1,2.8" fill-rule="evenodd"/><path id="Fill-564" d="M57.4,678.217c-1.4.3-2.1-.3-2.2-1.8,1,.4,2.4.2,2.2,1.8" fill-rule="evenodd"/><path id="Fill-566" d="M112.1,393.816c0,1.7.1,3.5.1,5.2,0-1.7,0-3.4-.1-5.2" fill-rule="evenodd"/><path id="Fill-568" d="M130.4,679.117c.1-1.6.2-3.2.2-4.7,0,1.6-.1,3.1-.2,4.7" fill-rule="evenodd"/><path id="Fill-570" d="M60.5,580.016c-1.3-.5-.5-1.8-.4-3,1.5.8.6,1.4.4,3" fill-rule="evenodd"/><path id="Fill-572" d="M55.8,675.917c0-.3-.8-3.5.7-2.9,1.4.5-.7,2.8-.7,2.9" fill-rule="evenodd"/><path id="Fill-574" d="M620.8,581.317c-.4-.5-.8-1.1-1.2-1.6,1.9-.6,3.2,1.2,1.2,1.6" fill-rule="evenodd"/><path id="Fill-576" d="M131.4,619.617c-1.2-1.3-.4-2.9-.3-4.3,1.2.9.4,3,.3,4.3" fill-rule="evenodd"/><path id="Fill-578" d="M56.8,674.517c-.2-.7.6-2.3,1.2-2.3l.3,2.7Z" fill-rule="evenodd"/><path id="Fill-580" d="M160.8,572.617c.1,1.5.2,3.1.3,4.6-.1-1.6-.2-3.1-.3-4.6" fill-rule="evenodd"/><path id="Fill-582" d="M697.6,612.917c-.2,1.3-.4,2.5-.6,3.8-.2-1.8-.9-2.8.6-3.8" fill-rule="evenodd"/><path id="Fill-584" d="M209.2,628.117c.1-1.5.2-3,.3-4.6a34.407,34.407,0,0,0-.3,4.6" fill-rule="evenodd"/><path id="Fill-586" d="M173.6,533.317c-.4-2.9.3-2.8.9,0h-.9" fill-rule="evenodd"/><path id="Fill-590" d="M97.2,679.117v-1.5c2.1.5.5,2,1.1,3.2Z" fill-rule="evenodd"/><path id="Fill-592" d="M12.4,626.817c-.1-.5-.3-1-.4-1.4,1,.5,2.1-.1,2.1,1.5a10.284,10.284,0,0,0-1.7-.1" fill-rule="evenodd"/><path id="Fill-594" d="M547,581.417a1.587,1.587,0,0,1,1.5,2.3c-1-.5-2.1-.9-1.5-2.3" fill-rule="evenodd"/><path id="Fill-596" d="M11.9,663.817v-4.7c.6,1.6,1,3.1,0,4.7" fill-rule="evenodd"/><path id="Fill-598" d="M175.3,611.617c.8-1.2,1.5-.3,2.6-1.4,1.8,1.6-2.2,1.4-2.6,1.4" fill-rule="evenodd"/><path id="Fill-600" d="M700,658.617c.1,1.5.3,3.1.4,4.6-.2-1.6-.3-3.1-.4-4.6" fill-rule="evenodd"/><path id="Fill-602" d="M11.5,691.117c-1-1.3,0-2.4.4-3.6,1.3,1.3.1,2.4-.4,3.6" fill-rule="evenodd"/><path id="Fill-604" d="M98.1,548.016c-.1-1.6-.2-3.1-.2-4.7.1,1.6.1,3.2.2,4.7" fill-rule="evenodd"/><path id="Fill-606" d="M702.7,696.217c.1,1.5.2,3.1.3,4.6-.1-1.5-.2-3-.3-4.6" fill-rule="evenodd"/><path id="Fill-608" d="M554.8,682.517c-.1-1-.1-2.1-.2-3.1,1.1,1,1.5,2,.2,3.1" fill-rule="evenodd"/><path id="Fill-610" d="M752.3,635.117c1.2,1,.9,2.1.4,3.6-.2-1.2-.3-2.4-.4-3.6" fill-rule="evenodd"/><path id="Fill-612" d="M710.4,635.417c-.1,1.7-.1,2.7-.2,3.7-1.6-.9-.9-2,.2-3.7" fill-rule="evenodd"/><path id="Fill-614" d="M705.2,589.417c.1-.6-.1-3.6,1.1-2.8,1.6,1.1-1.3,4.3-1.1,2.8" fill-rule="evenodd"/><path id="Fill-616" d="M98.1,553.917c-.1-1.5-.1-3.1-.2-4.6.1,1.5.2,3.1.2,4.6" fill-rule="evenodd"/><path id="Fill-618" d="M584,742.317c.4-.3.9-.5,1.4-.8v2.3c-.9.3-1.3-.2-1.4-1.5" fill-rule="evenodd"/><path id="Fill-620" d="M704,464.617c.5-1.8,2-2,1.8,0Z" fill-rule="evenodd"/><path id="Fill-622" d="M79.8,404.016c-1.3-.6-1.4-1.7-1.2-2.9,1.9.4,1.4,1.7,1.2,2.9" fill-rule="evenodd"/><path id="Fill-624" d="M646.7,593.516c-.1,1.6-.2,3.3-.3,4.9.1-1.6.2-3.2.3-4.9" fill-rule="evenodd"/><path id="Fill-626" d="M661.6,559.117v-2.6c1.5,1.9,1.5,2,0,2.6" fill-rule="evenodd"/><path id="Fill-628" d="M581.6,722.017l.3,3.9-.3-3.9" fill-rule="evenodd"/><path id="Fill-630" d="M12,643.417c.4-1.5,1.1-1.3,1.9.6-.5.8-1.2.6-1.9-.6" fill-rule="evenodd"/><path id="Fill-632" d="M620.1,644.217c-.5-1.6-.3-2.1.8-2.3.8,1.2-.3,1.7-.8,2.3" fill-rule="evenodd"/><path id="Fill-634" d="M752.3,694.217l-.6-2.1a12.09,12.09,0,0,1,1.8-.5Z" fill-rule="evenodd"/><path id="Fill-636" d="M751.7,706.817c-.3-1.2-.6-2.4.5-3.3-.2,1.1-.4,2.2-.5,3.3" fill-rule="evenodd"/><path id="Fill-638" d="M786.2,725.217c-.1-1.3-.1-2.6-.2-3.9.1,1.3.2,2.6.2,3.9" fill-rule="evenodd"/><path id="Fill-640" d="M752.6,724.417c.3-.2.5-.4.8-.6.2,1,.3,2,.5,3-1.8-.5-.5-1.5-1.3-2.4" fill-rule="evenodd"/><path id="Fill-642" d="M121.9,392.617l-.3-2.1q2.4.749.3,2.1" fill-rule="evenodd"/><path id="Fill-646" d="M707.7,638.817c-1.3-.7-.3-1.6-.3-2.4,1.1.4,1.2.8.3,2.4" fill-rule="evenodd"/><path id="Fill-648" d="M121.8,387.917c-.1-.9-.1-1.8-.2-2.8,1.8,1.1,1.8,1.5.2,2.8" fill-rule="evenodd"/><path id="Fill-650" d="M649.4,547.317c-.1,1.4-.2,2.7-.3,4.1.1-1.4.2-2.8.3-4.1" fill-rule="evenodd"/><path id="Fill-652" d="M611,547.317c-.1,1.4-.2,2.8-.4,4.2.2-1.4.3-2.8.4-4.2" fill-rule="evenodd"/><path id="Fill-654" d="M697.7,453.317c-.1,1.4-.2,2.7-.4,4.1.2-1.3.3-2.7.4-4.1" fill-rule="evenodd"/><path id="Fill-656" d="M160.4,545.217c-.1,1.4-.2,2.8-.3,4.3.1-1.5.2-2.9.3-4.3" fill-rule="evenodd"/><path id="Fill-658" d="M160.4,488.516c0,1.3.1,2.6.1,4-.1-1.4-.1-2.7-.1-4" fill-rule="evenodd"/><path id="Fill-660" d="M656,421.016c-.1,1.4-.2,2.7-.3,4.1.1-1.4.2-2.8.3-4.1" fill-rule="evenodd"/><path id="Fill-662" d="M666.4,442.217c0-1.3-.1-2.7-.1-4,0,1.3,0,2.7.1,4" fill-rule="evenodd"/><path id="Fill-664" d="M12.6,634.117l-.1-1.5c1.9-.6,1.7,2.7.1,1.5" fill-rule="evenodd"/><path id="Fill-666" d="M611.7,540.117c-.1,1.4-.2,2.7-.4,4.1.2-1.4.3-2.8.4-4.1" fill-rule="evenodd"/><path id="Fill-668" d="M752,661.317c-1.3-2.3.9-1.1,1.8,0Z" fill-rule="evenodd"/><path id="Fill-670" d="M200.4,490.516a16.2,16.2,0,0,0,2.2-.1c-1.2,1.8-2,1.9-2.2.1" fill-rule="evenodd"/><path id="Fill-672" d="M618.6,537.117l.6-.6c.7,1,1,2.1-.4,2.4a5.528,5.528,0,0,1-.2-1.8" fill-rule="evenodd"/><path id="Fill-674" d="M190.9,624.717c0,1.3-.1,2.6-.1,3.9a3.472,3.472,0,0,1,.1-3.9" fill-rule="evenodd"/><path id="Fill-676" d="M655.4,434.117c-.1,1.3-.1,2.7-.2,4,.1-1.3.1-2.7.2-4" fill-rule="evenodd"/><path id="Fill-678" d="M743,699.017c0,1.3.1,2.7.1,4,0-1.3,0-2.7-.1-4" fill-rule="evenodd"/><path id="Fill-680" d="M709.8,668.417a6.07,6.07,0,0,0,.7,1c-1.4,0-2.5-.1-2.3-1.9.5.3,1,.6,1.6.9" fill-rule="evenodd"/><path id="Fill-682" d="M658.1,623.117c.6.5,3.1,2.5.7,2.6.1.3-.7-2.8-.7-2.6" fill-rule="evenodd"/><path id="Fill-686" d="M87.4,527.516c0,1.3.1,2.6.1,3.9,0-1.3,0-2.6-.1-3.9" fill-rule="evenodd"/><path id="Fill-688" d="M85.3,492.516c1.3,1.2.1,2.6.3,3.9,0-1.3-.2-2.6-.3-3.9" fill-rule="evenodd"/><path id="Fill-690" d="M621.6,574.217a16.605,16.605,0,0,1,1.3-1.4,3.532,3.532,0,0,1-.7,3.4c-.2-.6-.4-1.3-.6-2" fill-rule="evenodd"/><path id="Fill-692" d="M634.9,137.516c-1-1.2-.5-2.4,0-3.6v3.6" fill-rule="evenodd"/><path id="Fill-694" d="M751,712.817a24.519,24.519,0,0,0,.2-2.7c1.5,1,.5,1.8-.2,2.7" fill-rule="evenodd"/><path id="Fill-696" d="M546.7,577.817l-1.5-2.4c1.6-.4,1.9.2,1.5,2.4" fill-rule="evenodd"/><path id="Fill-698" d="M701.3,674.417l.3,3.9-.3-3.9" fill-rule="evenodd"/><path id="Fill-700" d="M178,677.617a2.309,2.309,0,0,1,.6-2.5c.3,1.3.4,1.7-.6,2.5" fill-rule="evenodd"/><path id="Fill-702" d="M712.9,710.317c.2-1.2-.5-1.9.8-2.7v3.3a5.547,5.547,0,0,1-.8-.6" fill-rule="evenodd"/><path id="Fill-704" d="M658.2,610.516a14.8,14.8,0,0,0-.8,1.3c-.3-.7-.6-1.5-.9-2.2.4.5,1.8-.6,1.7.9" fill-rule="evenodd"/><path id="Fill-708" d="M651.3,519.516c-.1,1.4-.2,2.8-.3,4.1.1-1.4.2-2.7.3-4.1" fill-rule="evenodd"/><path id="Fill-710" d="M555.5,689.017c-1-.4-1.5-1-.7-2.1.4.7,2,.9.7,2.1" fill-rule="evenodd"/><path id="Fill-712" d="M666,431.717l-.3-4.2a29.666,29.666,0,0,0,.3,4.2" fill-rule="evenodd"/><path id="Fill-714" d="M553.6,607.117c-.1-.6-.3-1.1-.4-1.7,1.6.5,1.7,1.1.4,1.7" fill-rule="evenodd"/><path id="Fill-716" d="M211.1,606.817v-4a3.632,3.632,0,0,1,0,4" fill-rule="evenodd"/><path id="Fill-720" d="M554.7,685.117c.1-.7.1-1.4.2-2.1,2.2.8.5,1.4-.2,2.1" fill-rule="evenodd"/><path id="Fill-722" d="M609.7,602.117l-.3,4.2.3-4.2" fill-rule="evenodd"/><path id="Fill-724" d="M97.5,644.617c0-1-.1-1.9-.1-2.9,1.2.9.5,1.6.1,2.9" fill-rule="evenodd"/><path id="Fill-726" d="M97,687.717c-.3-.9-1.2-1.7,0-2.6v2.6" fill-rule="evenodd"/><path id="Fill-728" d="M610.8,681.017c.1,1.1.2,2.2.2,3.3-.1-1.1-.1-2.2-.2-3.3" fill-rule="evenodd"/><path id="Fill-730" d="M656.7,681.817c-.9-1.6-.5-2.2,1.3-1.7a19.225,19.225,0,0,1-1.3,1.7" fill-rule="evenodd"/><path id="Fill-732" d="M112.5,432.917c.1,1.1.1,2.2.2,3.3-.1-1.1-.2-2.2-.2-3.3" fill-rule="evenodd"/><path id="Fill-734" d="M178.3,682.417c-.1-1.2-.2-2.4-.3-3.5.2,1.2.2,2.4.3,3.5" fill-rule="evenodd"/><path id="Fill-738" d="M542.8,678.317c-.1,1.1-.1,2.3-.2,3.4.1-1.1.2-2.3.2-3.4" fill-rule="evenodd"/><path id="Fill-740" d="M588.2,669.817c0-.9-.1-1.8-.1-2.7,1.2.9,1.7,1.7.1,2.7" fill-rule="evenodd"/><path id="Fill-742" d="M702,688.317c.1,1.1.3,2.2.4,3.2a31.063,31.063,0,0,1-.4-3.2" fill-rule="evenodd"/><path id="Fill-744" d="M191.9,653.217a2.7,2.7,0,0,1,0,3.3v-3.3" fill-rule="evenodd"/><path id="Fill-746" d="M698.4,446.717c-.1,1.1-.3,2.3-.4,3.4.1-1.1.3-2.3.4-3.4" fill-rule="evenodd"/><path id="Fill-748" d="M161.2,449.417c-.2.8,1.6,1.8-.4,2.3a15.719,15.719,0,0,1,.4-2.3" fill-rule="evenodd"/><path id="Fill-750" d="M13.3,649.317v-2.6c1.2.1.3,2.6,0,2.6" fill-rule="evenodd"/><path id="Fill-752" d="M586.2,693.617c-.2-.5-.5-1-.7-1.5,1.8-.4,2,.1.7,1.5" fill-rule="evenodd"/><path id="Fill-754" d="M190.5,640.016c.1,1.1.2,2.2.3,3.2a17.348,17.348,0,0,0-.3-3.2" fill-rule="evenodd"/><path id="Fill-756" d="M12.7,638.917c-.2-.4-.5-.8-.7-1.2,1.2-1.2,1.8.3.7,1.2" fill-rule="evenodd"/><path id="Fill-758" d="M712.3,695.417l.9-.9c.4,1.1.2,1.4-.5,2.4a8.331,8.331,0,0,0-.4-1.5" fill-rule="evenodd"/><path id="Fill-760" d="M11.9,698.717v-2c1.2,1.2,1.2,1.2,0,2" fill-rule="evenodd"/><path id="Fill-762" d="M190.8,633.317c-.1,1.1-.2,2.3-.3,3.4.1-1.1.2-2.3.3-3.4" fill-rule="evenodd"/><path id="Fill-764" d="M707.2,632.117a10,10,0,0,1,2.6-.5,2.332,2.332,0,0,1-2.6.5" fill-rule="evenodd"/><path id="Fill-766" d="M657.8,698.317c.1.6.7,2.3,0,2.4-.2-.8-.5-1.5-.7-2.3.2,0,.4-.1.7-.1" fill-rule="evenodd"/><path id="Fill-770" d="M13.7,620.516c-.3-1-.6-2-.9-2.9-.1-.1,2.9,2.9.9,2.9" fill-rule="evenodd"/><path id="Fill-772" d="M121.1,608.917c.1,1.2.1,2.3.1,3.5,0-1.2-.1-2.3-.1-3.5" fill-rule="evenodd"/><path id="Fill-777" d="M97.7,611.016l-.3-3.6.3,3.6" fill-rule="evenodd"/><path id="Fill-779" d="M688.1,359.617c.8,0,1.6-.1,2.4-.1a17.4,17.4,0,0,0-2.4.1" fill-rule="evenodd"/><path id="Fill-781" d="M743.8,603.617c0,1.1-.1,2.3-.1,3.4,0-1.2,0-2.3.1-3.4" fill-rule="evenodd"/><path id="Fill-783" d="M654.7,467.917c0,1.2-.1,2.3-.1,3.5,0-1.2,0-2.3.1-3.5" fill-rule="evenodd"/><path id="Fill-785" d="M620.6,583.217c.8-.7,2-.7,2.4,1.1a25.829,25.829,0,0,1-2.4-1.1" fill-rule="evenodd"/><path id="Fill-787" d="M542.9,583.016c-.1,1.1-.2,2.3-.3,3.4a20.432,20.432,0,0,1,.3-3.4" fill-rule="evenodd"/><path id="Fill-789" d="M654.7,473.217l-.3,3.6.3-3.6" fill-rule="evenodd"/><path id="Fill-791" d="M647.4,579.717c-.1,1.2-.2,2.3-.3,3.5,0-1.2.2-2.4.3-3.5" fill-rule="evenodd"/><path id="Fill-793" d="M160.4,476.516l-.3,2.7.3-2.7" fill-rule="evenodd"/><path id="Fill-795" d="M175.5,578.217c.7.7.5-.6,1.2,1.2-.1.2-.3.3-.4.4-1-.4-1.2-.9-.8-1.6" fill-rule="evenodd"/><path id="Fill-797" d="M665.2,421.217c-.1-1.2-.1-2.4-.2-3.5,0,1.1.1,2.3.2,3.5" fill-rule="evenodd"/><path id="Fill-799" d="M711.6,712.317c-1,.9-1.7,1-2.1.1.9-1.3,1.6-1.3,2.1-.1" fill-rule="evenodd"/><path id="Fill-801" d="M648,569.117c-.1,1.2-.2,2.3-.3,3.5.1-1.2.2-2.3.3-3.5" fill-rule="evenodd"/><path id="Fill-803" d="M661.6,567.917c-1.4-.3-1.9-.9-1.3-1.7,1.7-.2,2.2.3,1.3,1.7" fill-rule="evenodd"/><path id="Fill-805" d="M742.6,716.017c0,1.1,0,2.2.1,3.3,0-1.1,0-2.2-.1-3.3" fill-rule="evenodd"/><path id="Fill-807" d="M705.7,568.016c-1-1.6-1-2,.4-2.2a16.927,16.927,0,0,1-.4,2.2" fill-rule="evenodd"/><path id="Fill-811" d="M610.4,559.217c-.1,1.1-.2,2.3-.4,3.4.1-1.1.3-2.3.4-3.4" fill-rule="evenodd"/><path id="Fill-813" d="M654.1,483.117c-.1,1.2-.2,2.3-.4,3.5.1-1.2.2-2.4.4-3.5" fill-rule="evenodd"/><path id="Fill-815" d="M114.1,277.316c.3.9.5,1.8.8,2.7a27.424,27.424,0,0,1-.8-2.7" fill-rule="evenodd"/><path id="Fill-817" d="M167.8,726.617v3.4c-.4-1.2-1.1-2.3,0-3.4" fill-rule="evenodd"/><path id="Fill-819" d="M117.2,488.717c.1,1,.1,2.1.2,3.1a30.285,30.285,0,0,0-.2-3.1" fill-rule="evenodd"/><path id="Fill-821" d="M650.1,536.016c-.1,1.2-.2,2.3-.4,3.5.1-1.2.2-2.3.4-3.5" fill-rule="evenodd"/><path id="Fill-823" d="M131.9,534.217c0-1.1.1-2.2.1-3.4,0,1.2-.1,2.3-.1,3.4" fill-rule="evenodd"/><path id="Fill-825" d="M650.7,526.817c-.1,1.1-.2,2.3-.3,3.4.1-1.1.2-2.2.3-3.4" fill-rule="evenodd"/><path id="Fill-827" d="M220,510.917c-.1,1.1-.1,2.3-.2,3.4,0-1.2.1-2.3.2-3.4" fill-rule="evenodd"/><path id="Fill-829" d="M119.1,510.417l.3,3.3-.3-3.3" fill-rule="evenodd"/><path id="Fill-855" d="M564.5,63.417c3-4.4,6.6-10.3,11.5-12.7-1.6,2.4-8.5,13-11.5,12.7" fill-rule="evenodd"/><path id="Fill-857" d="M798.4,105.816c-1.1-1.2-1-4.2-1.4-5.9-.9-3.4-1.6-3.3,1.8-4.6a24.708,24.708,0,0,1-.4,10.5" fill-rule="evenodd"/><path id="Fill-861" d="M360.3,255.516a43.392,43.392,0,0,0-5.2.9c.3-1.8,3.5-.9,5.2-.9" fill-rule="evenodd"/><path id="Fill-863" d="M303.5,552.417c2.2.2,4.4.3,6.6.5-2.2-.2-4.4-.3-6.6-.5" fill-rule="evenodd"/><path id="Fill-865" d="M614.3,166.516c.7-1.6,1.4-3.1,2.1-4.7a5.384,5.384,0,0,1-2.1,4.7" fill-rule="evenodd"/><path id="Fill-869" d="M294.2,315.917c-1.5,0-3-.1-4.4-.1,1.5,0,2.9.1,4.4.1" fill-rule="evenodd"/><path id="Fill-871" d="M467.7,312.217c2.4,0,2.2-.1,2.7-2.4l.6,3.3-3.3-.9" fill-rule="evenodd"/><path id="Fill-873" d="M210.8,435.317h6.1a6.883,6.883,0,0,1-6.1,0" fill-rule="evenodd"/><path id="Fill-875" d="M495.9,325.816c-1.2,0-2.4-.1-3.6-.1,1.2,0,2.4.1,3.6.1" fill-rule="evenodd"/><path id="Fill-881" d="M533.3,417.717l3.1.4c-1.3.3-2.5.6-3.8.8-.4-.6-.1-1,.7-1.2" fill-rule="evenodd"/><path id="Fill-883" d="M378.2,567.016c1.6.1,3.2.3,4.8.4-1.6-.1-3.2-.3-4.8-.4" fill-rule="evenodd"/><path id="Fill-885" d="M338.3,147.816c-.2.5-.4.9-.6,1.4l-.4-3.7a22.877,22.877,0,0,1,1,2.3" fill-rule="evenodd"/><path id="Fill-887" d="M460.2,526.717h4.9a5.029,5.029,0,0,1-4.9,0" fill-rule="evenodd"/><path id="Fill-889" d="M797.2,121.316c.1-.9-1.5-2.1.4-2.8a23.55,23.55,0,0,1-.4,2.8" fill-rule="evenodd"/><path id="Fill-891" d="M267.7,227.617c1.3.2,2.6.4,4,.5-1.3-.2-2.6-.4-4-.5" fill-rule="evenodd"/><path id="Fill-893" d="M381.6,238.016c1.3-.7,2.5-.9,3.7.1-1.2-.1-2.4-.1-3.7-.1" fill-rule="evenodd"/><path id="Fill-895" d="M558.9,245.316c1.2-.4,2.3-.8,3.5-1.2-.7,1.4-2.2,1.2-3.5,1.2" fill-rule="evenodd"/><path id="Fill-897" d="M568.9,410.016c1.4-.1,2.7-.3,4.1-.4Z" fill-rule="evenodd"/><path id="Fill-899" d="M459,479.317c-.4.6-.7,1.3-1.1,1.9-.3-1.9-.3-1.9,1.1-1.9" fill-rule="evenodd"/><path id="Fill-901" d="M414.8,273.816c1.3-1.3,2.6-.6,3.9-.1-1.4,0-2.7.1-3.9.1" fill-rule="evenodd"/><path id="Fill-905" d="M291.6,551.217c1.3.1,2.7.3,4,.4-1.4-.1-2.7-.3-4-.4" fill-rule="evenodd"/><path id="Fill-907" d="M526.9,286.717q-.15-1.65-.3-3.3.15,1.649.3,3.3" fill-rule="evenodd"/><path id="Fill-909" d="M507.3,541.217h4.1a3.451,3.451,0,0,1-4.1,0" fill-rule="evenodd"/><path id="Fill-911" d="M432.7,527.817a2.863,2.863,0,0,1,3.6.1c-1.2-.1-2.4-.1-3.6-.1" fill-rule="evenodd"/><path id="Fill-913" d="M660,433.317c-.1-1.4-.2-2.4-.3-3.4,1.5.4,1.5.4.3,3.4" fill-rule="evenodd"/><path id="Fill-915" d="M654.9,528.617c.1-1.1.2-1.8.3-2.8,1.2,1,1.4,1.7-.3,2.8" fill-rule="evenodd"/><path id="Fill-917" d="M612.3,634.717c-.1.6-.2,1.1-.3,1.6a.816.816,0,0,1,.3-1.6" fill-rule="evenodd"/><path id="Fill-919" d="M705.1,573.617c-.6.2-1.1.5-1.7.7,0-.9-.5-4.4.4-4.6a11.939,11.939,0,0,1,1.3,3.9" fill-rule="evenodd"/><path id="Fill-921" d="M703.6,564.317c.2-1.2.4-2.1.6-3.2,1.7,1.8,1.7,2.2-.6,3.2" fill-rule="evenodd"/><path id="Fill-923" d="M58.8,606.617c1.5.2-.4,3.4-.9,4.1-2.1-.6-1-2.7-1.5-4.2.7.6,1.4,1.1,2.1,1.7a4.973,4.973,0,0,0,.3-1.6" fill-rule="evenodd"/><path id="Fill-925" d="M546,594.617c-.1-.8-.6-2.3.3-2.5l.7,2.3a1.969,1.969,0,0,1-1,.2" fill-rule="evenodd"/><path id="Fill-927" d="M265.2,178.917c3.9,4.3,7.9,10.8,14.6,8.5-1.1-2.6-3.1-5.9-2.6-8.8.6-3.3,2.8-2.9,4.8-.6,3.3,3.9,5.4,12.9,2.1,17.4-3.1,4.2-10.9,1.4-13.9-1.5-2.8-2.8-9.4-11.5-5-15" fill-rule="evenodd"/><path id="Fill-929" d="M300.6,185.316c1.4-1.4,4.6,0,5.3-2.4.7-2.8-6.4-1.4-6.9-4.8-.4-2.7,3.5-5.1,5.7-5.4,3.9-.5,6.3,2.9,7.6,6.1,2.8,7-1,13.4-8.6,14.2-7,.8-8.5-7.1-4.6-11.7a27.484,27.484,0,0,1,1.5,4" fill-rule="evenodd"/><path id="Fill-931" d="M269.7,154.816c3.2,0,5.6-.7,6,3.4.2,2.8-1.4,4-3.4,5.8a85.575,85.575,0,0,1-7.2,5.1c-1.4,1-3.4,4.2-5.3,4.2-4.6.1-4.1-8.3-3.2-10.9,1.9-5.3,8.1-6.9,13.1-7.6" fill-rule="evenodd"/><path id="Fill-933" d="M310.4,163.217c4,1.4,5.4,6.7,9.8,7.2-.5-2.4-4-14.2,1.8-11,4.4,2.4,5.4,12.1,4,16.1-4.7,13.1-20-3.7-15.6-12.3" fill-rule="evenodd"/><path id="Fill-935" d="M291.8,204.917c6.2.9,11.1,3,17,.2,2.7-1.3,5.5-4,7.1-.3,1.2,2.7.2,5.5-1.6,7.6-5.4,6.5-24.9,2.7-22.5-7.5" fill-rule="evenodd"/><path id="Fill-937" d="M304,142.217c10,0,2.6,9-3.7,7.8a4,4,0,0,1-2.6-5.6c.5-1.3,6.3-3.7,6.3-2.2" fill-rule="evenodd"/><path id="Fill-939" d="M269.7,154.816c-1.3.2-2.6.4-3.8.5,1.2-.2,2.5-.3,3.8-.5" fill-rule="evenodd"/></g></g></svg>