<svg id="Layer_1" data-name="Layer 1" xmlns="http://www.w3.org/2000/svg" viewBox="0 0 877.479 706.845"><title>1</title><g id="Character_bikini" data-name="Character/bikini"><path id="Accent" d="M463.545,349.273c-3.5,5.9-6.9,11.7-10.4,17.6h0l-31.9,54.2c-2.4,4.1-3.6,8.3-5.1,12.9h0l-8.1,25.5c-4-2.1-8.1-4.2-12.1-6.2-3.9-2-10.8-4-13.9-7.1-2.7-2.8-4-9.3-5.5-12.9-4.2-10.3-8.5-20.6-12.7-30.8q-9.6-23.4-19.3-46.7c19.3,1.8,38.6,3.7,57.9,5.5C422.845,357.173,443.245,353.273,463.545,349.273Zm-31.7-164c.8,6,1.7,12,2.5,18.1.6,4.1.3,8.6,2.8,11.9,6.1,7.8,16.3,13.2,18.9,23h0l2.7,10.3c.3,1.3,2.1,5.1,1.6,6.3-.8,2.1-8.2,4.9-10.2,5.9a136.384,136.384,0,0,1-22.8,10.1c-8.2,2.5-14.9,1.5-22.4-3-4.8-2.8-13-7.7-15.8-12.7-1.9-3.5-1.8-9.6-2.5-13.6h-20.4c-4.1,0-11.2-1.4-14.5.9-2,1.4-3.7,4.4-5.3,6.2-2.6,2.9-5.4,5.7-8.2,8.4-6,5.7-12.9,11.6-20.8,14.5-9.6,3.5-18.5-1.4-26-7.5-3.4-2.8-11.3-9-11.7-13.7-.4-4.9,3.8-10.6,7.2-13.5,6.1-5.3,13.3-9.4,20.3-13.3,10.9-6.1,22-11.7,33.3-16.9,1.8,4.6,3.6,9.3,5.4,13.9,1.3,3.3,2.5,6.6,3.8,9.9.6,1.6,1.2,5.2,2.5,6.4,1.5,1.5,5.2.7,7.5.7h19.1c2.4,0,7.9,1.1,10.1,0,1.7-.9,3.6-4.4,4.8-5.9Q412.945,208.423,431.845,185.273Z" fill="#34558b" fill-rule="evenodd"/><g id="Ink"><path id="Fill-5" d="M855.845,317.473c-2.1-2.9-4.5-4.1-5.4.2-1,4.7,0,10.6-.4,15.4-1,11.7-1.4,23.6-2.7,35.3-2.4,21.5-3.9,44.4-12,64.7a210.265,210.265,0,0,1-13.6,28.3c-5.3,9-10.6,18.8-17.1,27-12.3,15.3-23.2,32-38.2,44.7-3.7,3.1-6.9,6.6-10.8,9.4-3.3,2.4-7.1,4.1-10.2,6.4-1.6,1.1-3.1,2-4.8,3.1-1.6,1-2.5,2.5-4.2,3.2s-3.7.5-5.5,1.2c-2.1.9-4,2.3-6.1,3.1-4.1,1.8-8.7,2.1-12.9,3.9a84.032,84.032,0,0,1-12,3.9c-4.9,1.3-9.8,2.1-14.7,3.3a46.117,46.117,0,0,0-6.3,2c-2.6,1.1-2.9,1-5.6.6-4.7-.7-9.4,1.5-14.2,1.3-2.4-.1-4.5-.7-6.9-.4a34.427,34.427,0,0,1-7.2.5c-4.9-.4-9.5-.6-14.3-.8-1.8,0-3.5-.5-5.4-.5-2.8.1-3.6-.4-6.3-1.1-2-.5-4.2.2-6.2.1-2.3-.1-4.6-.9-6.9-1.1-4.8-.4-9.2-1-14-1.8a169.958,169.958,0,0,1-29.9-7.5,68,68,0,0,1-12.4-6.1c-3.9-2.3-8.4-2.8-12-5.4-7.5-5.5-16.1-10-23.1-16-7.2-6.2-15.9-10.7-23-16.8-3.2-2.8-6.8-5.1-9.9-8-3.4-3.2-6.2-6.7-9.8-9.7-7.5-6.2-13.4-14.5-20.9-20.9-7.8-6.7-14.5-14.1-21.6-21.5a60.05,60.05,0,0,0-9.3-8.1c-4-2.8-1.5-5.5-.1-9.4,3.8-10.6,9.1-19.4,15.4-28.7,6.2-9.2,12.5-18.2,19.4-26.8,5.9-7.3,12.2-14,18.4-20.8,2.6-2.8,5.1-5.8,7.9-8.5,2.1-2.1,2.4-1.9,5.1-1.3,2.4.6,4.8.8,7,1.9,4.4,2.1,8.2,5.1,13.1,6.2,5.2,1.2,9.7,3.1,14.8,4.6,9.4,2.8,19.6,5.9,28,11.3,8.8,5.6,15.2,14.5,21.4,22.6,6.6,8.5,11.1,18.3,16.4,27.7,5.4,9.7,10.5,19.5,16.4,28.9,10.8,17.3,24.9,32.2,45.1,37.2,8.8,2.2,19.9,5,28.5.6,3.8-1.9,7-4.7,10.8-6.7,4.3-2.3,8.8-4.3,12.5-7.6,7.3-6.5,15.1-12.2,22.1-19,6.4-6.3,12.1-13.5,18.1-20.2a105.064,105.064,0,0,0,8-10.9c1.3-1.8,2.1-4,3.4-5.8,1.1-1.7,2.7-2.7,4-4.3,2.5-3.2,4.4-7.1,6.6-10.4a69.162,69.162,0,0,0,7-13.5c3.8-10,5.3-19.5,6.1-30,3.1,2.6,11.4,2.7,13.4-1.2,3.2-6.2-3.6-7.2-7.1-10-2.4-1.9-4-4.6-5.8-7-1.2-1.7-4.5-4.4-5-6.4-.7-3,2.7-6.1,4.2-8.4,2.2-3.2,4.2-6.5,6.3-9.7,8.2-12.4,16.8-24.7,26.8-35.7,4.5-4.9,9.2-10,14.6-13.8,4.8-3.4,9.5-10,15.5-11.2-3.4,5.2-12.6,15.9-6.2,22.4,5.3,5.3,15.7-6.6,22.3-5.6-3.7,5.3-10.1,13.9-5.3,20.6,4.1,5.8,11.6-3.7,16.7-3.7-3.2,7.2-6.6,14-10,20.7m-441.4,79.4c-3.2-.2-6.7,1.8-6.4,5.3.4,3.4,4.4,3.7,4.8,6.7.4,2.9-3,8.4-4,11.1-.6,1.7-1.6,8.4-3.6,9.2-2.8,1-6.9-4.4-9.5-1.9-2.1,1.9.3,6.4,1.5,8,2,2.6,6.2,2.9,7.3,5.8,1,2.7-.1,8.1-.1,10.9-3.5-1.8-5.8-2.7-7.3-6.5-1.4-3.5-2-2.8-5.4-4.8-2.9-1.7-4.5-4.7-6.4-7.3-2.1-2.7-5.1-5.5-5.7-9,4.9,0,9.8.2,12.9-4.4,2.7-4.2-.1-7.3-4.6-6.7-2.5.3-9.4,4.5-11.7,3.1-1.3-.8-1.5-3.4-2-4.8-1.1-3.2-2.3-6.2-3.3-9.4-.9-3-1.8-6.1-2.5-9.1-.4-1.7-2.4-6.2-1.4-7.7,1.9-2.9,6.8-.1,7-5.7.3-5.8-5.4-5.8-9.4-5.6-5.1.3-7.6-6.6-10.2-10.3,6.8,1.1,13.3,3,20.1,4,5.5.8,11-1.7,13.3,4.6.8,2.3,3.7,9.6,7.4,5.9,2.2-2.2-.5-7.2-1.5-9.5,10.9-2,22.1-1.6,33.1-4.1,5.2-1.2,10-3.5,15.1-5.1,4-1.2,8.6-4,12.7-4.4-1,3.2-5.1,5.9-7.3,8.3-3.3,3.7-6.5,7.4-9.7,11.2-1.7-2.8-3.9-8-7.4-9-5.2-1.5-5.6,5.5-4.4,8.7.8,2.3,2.2,3.6,3.8,5.3,2.6,2.9.9,3.9-1.6,6.9-2.1,2.5-3.8,5.1-5.7,7.7-3.1,4.2-3.6,2.9-7.9,2.6m-56.5,39.2c-10.1-1.6-20.8-2-31-2.6-9.5-.6-19.4-.7-28.9-.4s-19.3-.6-28.7.5c-8.8,1.1-17.7-1-26.7-1.4-3.8-.2-7.6.8-11.4.4-1.9-.2-3.6-.9-5.5-.9-2.8,0-5.4.8-8.2.8-10,0-21.1-2.4-30.9.7-4.3,1.3-8.3.7-12.6,1.8-4.2,1-8.3,2.5-12.4,3.6a155.324,155.324,0,0,0-24.5,8.7c-15.8,7-31.2,18.9-38.3,35.1a53.578,53.578,0,0,0-4.3,29.8c1.5,9.6,2.8,20,8,28.4,9.6,15.6,19.9,31.8,36,41.4,8,4.7,15.1,10.9,23.1,15.5,3.5,2,7.6,2.6,11,4.7,3,1.9,6,4,9,6,3.5,2.3,5.8,4.7,4.5,9.1s-4.6,8.7-7.3,12.3c-6.5,8.8-13,17.7-19.7,26.3-3.6,4.6-8,8.1-12.5,11.7-3,2.4-7.7,4.6-9.9,7.7-1.5,2-.4,3.4-1.2,5.3-.8,1.8-2.6,2.4-4.3,3.3-5.3,2.9-10.4,3.6-16.1,5.4,2.2-5.6,5-11.5,4.1-17.7-.7-5.1-3.3-7.3-8-4.6-4.9,2.8-9.6,6.3-14.5,9-5,2.8-11.2,4-16.7,5.5,2.5-5.1,5.5-10.5,4.1-16.4-1.3-5.4-4.2-6.5-8.6-3.5-9.5,6.4-24.5,9.6-35.6,6.8,1.7-5.9,7.7-10.8,11.7-15.2,4.7-5.2,9.4-10.4,14.5-15.1,4.8-4.5,9.4-9.1,13.8-14,.7-.8,1.2-1.9,2.2-2.3,1.1-.5,2.6.4,3.5-.3,1.6-1.4-.6-3.5-1.6-4.8,3.1-.7,6.5,2.8,9.3.8,4.5-3.2.3-10.6-2.4-13.2-7.5-7.5-16.4-13.3-23.4-21.5-7.5-8.9-16-17-23.2-26.2-6.6-8.3-13.9-17-18-26.9-4.4-10.7-6.6-21.2-5.4-32.7,1.3-11.8,3.9-23.5,6.2-35.2,2-9.9,7.9-19.3,13.6-27.4,5.5-7.8,10.9-16.9,17.6-23.8,3.3-3.4,7.5-5.5,10.9-8.8,3.9-3.7,6.7-6.1,11.5-8.6,4.7-2.4,9.3-5.1,14-7.6,4.7-2.4,9.2-4.3,14-6.5,4-1.8,8-2.4,12.2-4.1a108.363,108.363,0,0,1,16.5-5.1c9.8-2.1,19.4-4.7,29.2-6.7,4.6-1,9.5-.9,14-2,4.9-1.1,9.4-1.3,14.4-2.1,4.5-.7,8.9-.7,13.4-1.3,2.7-.4,5.3.1,8-.2,3.3-.4,5.6-1.1,8.9-.9,4.5.2,8.1-2.2,12.5-1.6,4.1.6,8.1-.5,12.2-1.2,2.2-.4,3.8.3,6,.3,2.9.1,5.9-.5,8.9-.6,6.1-.1,12.2-.4,18.2-.3,12.1.3,24,.3,36.1,2,2.9.4,5.8,1.7,8.6,2,2.3.3,3.5-.3,5.8.8,4.6,2.1,7.8,7.8,10.2,12.1,6.1,10.9,8,24,11.6,35.8a120.628,120.628,0,0,0,15.8,33.2c-4.7-.8-8.9-2.4-13.3-3.1m-48.9-134.1c-4.1-8.4-6.3-17.4-9.7-26,3.6-.6,7.5.9,11.2,1a48.492,48.492,0,0,0,12.6-1.1c8-1.8,17-5.2,23.4-10.5a26.234,26.234,0,0,0,7.1-9.7,34.889,34.889,0,0,0,2-7.2c.1-.6.1-3.6.6-4.1,1.2-1,6.9-1.2,8.4-1.1,4.4.3,8.7.9,13.2,1.2,3.4.2,7-.3,8.3,3.4,1.1,3.2.7,7,1.8,10.3,2.3,7.2,8,14.5,15.1,17.5s18.1,3.6,25.5,2.5c9.1-1.2,15.7-7,22.5-12.5,0,17.9-.6,35.3,4.7,52.7a65.915,65.915,0,0,0,4.5,11.4c.8,1.7,4.9,6.4,4.5,8.2-.4,1.9-8.1,3.9-9.9,4.6-4.4,1.5-8.8,2.9-13.3,4.3a110.912,110.912,0,0,1-24.7,5.2c-8,.6-16,.4-24,.5a89.73,89.73,0,0,1-23-2.6c-8.9-2-18.2-3.1-27-5.4-7.7-2.1-12.6-10.4-17.3-16.2a131.269,131.269,0,0,1-16.5-26.4m-11.4-44.6c-1.6,1.3-8-1.4-9.3-2.5-1.9-1.4-2.2-6.6.4-7.9,2.5-1.3,10.9,2.9,7-4.4-.9-1.7-2.1-1.6-1.4-3.6.4-1.2,3.4-3,4.4-3.4,4.4-1.6,4.9,3.1,8.7,4.7s8.2.5,12.1,2.1c1.5.6,2.3,1.7,3.5.1.6-.8.3-2.9.1-3.8-1.2-4.3-7.2-7.1-10.5-9.6,8.4-4.2,16.1-8.2,23.5-14.1.6,1.5,2.1,3.9,1.1,5.5-.6.9-3.7,2-4.6,2.8-2.9,2.6-6.8,8.6-3.7,12.5,3.7,4.8,12.6-3.5,15.1-6.4,4.5,4.6,4.2,15,.7,19.9-.6-4.1-8.2-10.4-11.6-5.6-4.8,6.7,7.4,8,11,7.1-2,3.2-5.8,8.4-9.9,8.9-3.9.5-5.6-4.5-7.9-7-2-2.2-6.3-7.2-8.4-2.9-2,4.3,2.5,9.2,4.7,12.4-3.1.4-6.1,1.8-9.2,1.5-1.5-.2-5.1-.3-6.4-.8-3.9-1.4-3.1-7.5-2.1-10.7,1-3.3,2-8.9-3.8-6.5-6.1,2.5-.2,9-3.5,11.7m48.8-55.7a68.872,68.872,0,0,0,6.3-13.8c1.6-4.8,1.5-8.6,6.2-10.9,8.4-4.2,18.3-8.8,24.5-16.2,2.4-2.9,3.5-7.3,6.9-9.1,4.2-2.1,9.8-3.2,14.3-4.8,5.2-1.9,10.8-2.8,15.9-5,3.6-1.5,8.6-4.4,12.6-4.7-.3,3.9-1,7.9-.4,11.7.4,2.6,3.7,6.1,3.4,8.3-.1,1-1.7,1.4-2.3,2.3a9.7,9.7,0,0,0-1,3.7,77.944,77.944,0,0,1-2.8,11.8c-5.8,16.1-21.4,27.1-32,40a112.161,112.161,0,0,0-7.7,10.8c-1.5,2.4-2.9,6.7-5.7,7.8-3.4,1.3-10-.8-13.5-1-3.4-.2-6.2,1-9.6.8s-6,1.3-7.6-2.3c-1.3-2.9-1.4-6.5-2.4-9.5-2.2-6.3-9.3-12.9-5.1-19.9m25.5-82.4c-4.9.2-9.2-2.1-13.3-4.5,8.3-3.3,16.7-2.8,25-.3a19.068,19.068,0,0,1-11.7,4.8m-19.3-22.2c2-7.5,7.9-16.1,13.4-21.4.9,4.6,4.4,3.7,7.7,5.3,2.8,1.3,3.1,3.9,6.3,4.7,2.4.6,6.5.9,8.4-1,3.2-3.3-.5-5.3-3.1-6.7,2-2.6,4.1-5.2,6.2-7.7,1.5-1.7,4.4-4.1,4.5-6.7.1-3.9-2.9-2.2-5.2-1-1.1.6-2.6,1.9-3.8,2.1s-2.3-.6-3.4-.3c-2.6.7-7.4,9.3-11.1,5.3-1.6-1.6,1.8-6.9,2.7-8.2,3.2-4.6,9.4-3,14.4-3.4,5.5-.4,11-1.6,16.4-1.8,6.1-.3,8.8,4.8,13.1,8.6,4.1,3.6,10.3,7.7,15.5,9.3,5,1.6,7.4.4,7.6,6.6.4,13.8,15.8,6.7,24.6,8.1,5.1.8,6,3.9,1.7,7a16.451,16.451,0,0,1-7.4,2.6c-3.3.5-4.6,1.3-7.4,3.2-9.3,6.2-24.5,9.5-35.3,6.7a54.32,54.32,0,0,1-17-8.1c-4.3-3.1-8.2-6.9-13.2-9-6-2.5-11.7-.6-17.9-.6-7.6-.2-11.8,1.3-17.7,6.4m88.9,44.8c.8-2.5,6.1-15.7,9.9-14.1,1,.4,2.8,5.7,3.5,6.7a30.673,30.673,0,0,0,8.9,7.5c-5.4,4.5-13.1,5.6-19.2,9.1-6.6,3.7-4.4-5.6-3.1-9.2m-19.7,119.1c-3.1-.3-6.3-.5-9.4-.8-2.8-.2-6-1.2-8.7-1.3-2.3,0-3.9,1.6-6.1.2-1.9-1.2-2.5-4.3-3.4-6.2,4.4.2,13.2,3.9,16.7-.1,2.5-2.8.2-7.1-2.5-8.8-5.1-3.1-9.1-.4-14,1.2,0-6,3.1-8.8,6.8-12.9a156.018,156.018,0,0,0,11.8-13.8c2.9,2.4,10,8.4,13.5,3.7,3.5-4.8-3.5-9.1-6.8-10.9,2.8-3.8,5.5-7.6,8.3-11.5,1,5.5.7,11,3,16.2,2.1,4.8,5.1,9.7,9.1,13.1-3.8,2.3-7.5,8.7-3.6,12.4,2.2,2.1,4.2,1.3,6.5-.2,3-2,3.7-3.1,7.2-1.4,1.5.7,4,1.9,3.6,3.6-.3,1.5-4.5,4.1-5.6,5.1-5,4.7-10.7,8.4-16.5,12.1-.9-3-1.8-11.9-6.3-11.5-4.4.6-3.6,8.8-3.6,11.8m74.4-117.9c34.2-9,68-18.3,102.8-24.8,8.4-1.6,17-2.8,25.4-4.4,8.3-1.6,16.8-2.1,25.1-3.6a504.057,504.057,0,0,1,50.4-6.8c16.6-1.5,32.9-2.1,49.4.7,6.9,1.2,14.2.7,20.8,2.5a61.443,61.443,0,0,1,10.3,3.2c3.5,1.7,6.4,4.6,9.7,6.7a47.659,47.659,0,0,1,15,15.3c4.5,7,4.9,15.5,5.1,23.7s-2,16.1-4.4,23.8c-2.5,7.9-3.5,16.7-7.1,24.2-.8,1.8-4.3,8.7-7.2,7.8-1.9-.6-1.7-3.6-1.8-5.2-.4-4.9-.9-17.2-9.3-11.9-3.2,2.1-5.7,6-8.1,8.9-3,3.6-6,7.2-9,10.7-5.3,6.2-10.5,15-18,18.7.6-3.7,9.8-40.8-1.8-36.5-2.1.8-3.9,3.7-5.3,5.4-2.6,3.2-5.1,6.4-7.5,9.7-4.3,5.8-8.5,11.6-12.7,17.5a112.55,112.55,0,0,1-13.1,15.3c-2.7,2.6-13.4,12.9-14.2,3.4-.2-1.9.7-4.2,1.1-6.1.7-3.8,1.2-7.7,1.8-11.5,1.4-7.8,3.3-15.5,5.3-23.2a92.568,92.568,0,0,0,3.5-22.8c.1-7.7.3-16-3.8-22.9-3.1-5.1-8.4-10.8-13.7-13.5-7.1-3.6-14.1-3.4-21.8-4.5-15.3-2.1-31.4.1-46.6,2.4-14.2,2.2-27.8,6.5-41.6,9.8-15.6,3.7-30.4,9.5-45.4,14.4-16.6,5.4-33.1,11.1-49.3,17.5.8-2.8.7-5.7,1.3-8.5.5-2.2,1.7-3.1,2.7-5.1,2-4.1,1.1-10-4.4-9.8-4.5.1-9.7,3.8-13.3,6.1-3.7,2.4-11.6,6.1-13.9,10.2-5.9,11,17.4,5.7,13.4,14.7-1.1,2.5-2.6,2.3-2.3,5.5a18.213,18.213,0,0,1-1,8.9c-2.2,6.3-3.1,13-5.4,19.3-6.2-7.4-17.4-15.9-18.7-26.1-1.4-10.8,4-21.1,6.6-31.3,1-4.1.2-9.6,1.8-13.3,1.9-4.3,9.1-4.1,13.1-5,12.1-2.4,24-6.4,36.1-9.5m381.1,146.9c-.6-4.5-4.2-7.6-8.5-8.5-4.2-.9-2.2-1.4-2-5.9.1-4.1-.7-9-4.4-11.4-3.4-2.1-7.8-1.4-11.6-1.5,2.6-7.6,5.2-19.2-6.4-17.2-9.4,1.7-16.4,8-24,13.5-7.8,5.7-14.5,11-21,18a205.617,205.617,0,0,0-18.3,22.4,151.354,151.354,0,0,0-14.2,25.1c-3.6,8.3-6.9,16.4-5,25.6,1,4.8,3.3,9.2,4.1,14,.8,5-.3,10-1.7,14.7-2.7,9.1-7.3,17.1-12.6,24.8-4.4,6.6-8.3,13.1-13.7,18.9-6.8,7.3-13.4,14.5-20.5,21.5a155.606,155.606,0,0,1-18.8,15.6c-3.9,2.7-8.6,4-12.8,6.1-4,2-7.3,4-11.6,5.2s-8.9,3.3-13.5,3.2-9.6-2.3-14-3.7c-9.2-2.8-16.2-5.4-22.7-12.7-13.9-15.3-23-34.6-33.3-52.5-9.3-16.2-20.4-34.4-35.5-46-7.2-5.5-15.8-9.5-24.1-13-4.1-1.7-8.6-2.3-12.9-3.5-3.8-1.1-7.9-1.1-11.4-2.5-4.3-1.8-8.4-5-13.1-5.6-1.5-.2-2.8.4-4.2-.1-1.8-.6-3.5-2.6-5.4-3.4-8.7-3.8-13.7-7.6-17.7-16.4-4.1-9.2-6.9-18.9-6.5-29a106.341,106.341,0,0,1,1.8-14.9c.8-4.6.9-9.5,2-13.9.5-1.9,1.4-3.7,1.8-5.6.4-1.8.1-3.9.8-5.6.6-1.5,1.8-2,2.7-3.2,1.5-2.3.4-3.6.1-6-.5-4.3,1.5-8.9,2.3-13,1-5.2,2.6-10.2,3.8-15.4.7-3.2.7-6.8,3.6-8.9,3.1-2.3,9-2.5,12.7-3.5,10.1-2.6,20.1-5.4,30.3-8a101.375,101.375,0,0,0,14.1-4.7c2.7-1.1,3.8-.7,6.5-1,2.1-.2,3.8-1.5,5.7-2,4.1-1.1,6.4,1.1,9.9,2.7,4,1.8,9.1,2.7,13.5,3.3,8.8,1.3,19.7-.2,28.4-1.7,9.9-1.7,19.9-4.6,28.5-9.7,1.7-1,3-2.2,4.9-1.7,1.5.4,2.9,2.5,4.2,3.4a13.385,13.385,0,0,0,13.1,1.6,14.323,14.323,0,0,0,7.6-7.7c1.2-2.7,1.7-6.8,4.8-8,3-1.3,9.4.2,12.6.9,4.1.8,7.4,3.2,10.5,5.9,6.9,6.1,7.7,14.2,6.4,22.9-3.2,20.4-11.3,39.9-10.9,60.8.2,8,3.5,15.5,13,14.5,4.7-.5,7.5-3.8,11-6.5a77.057,77.057,0,0,0,10.7-9.9c7-7.9,13-16.5,19.3-24.8.7,7.6-3.2,15.2,1.7,22.2,4,5.8,9.7,1.8,13.5-2,5.7-5.7,10.9-12.1,16-18.3,4.1-5,8.3-13.1,13.9-16.5-.2,6.3,4,17.1,12,14.3,7.3-2.6,12.2-12.9,15.3-19.4,1.9-3.9,3.6-7.9,5.4-11.8,2.1-4.5,2.4-8.3,3.4-13,1.9-9.2,3.5-18.2,5-27.5,1.5-9.6-.1-18-3.4-27-1.4-3.8-1.7-7.4-4.1-10.8a70.741,70.741,0,0,0-9-10c-6.7-6.2-15.3-8.3-23.4-12-4.4-2-8.2-2.2-12.8-2.8-4.4-.6-8.7-1.8-13.2-2-11.5-.6-22.9-2.9-34.5-2.2-5.4.3-10.8.6-16.2.8-4.3.2-10.4,1.4-14.5.2,2.2-4.5,6.7-8.2,6.5-13.6-.2-5.2-4.5-7.8-8.9-9.1a60.778,60.778,0,0,0-18.9-2.6c-5.2.2-12.4,2.3-17.3-.4,3.2-4.4,6.8-9.1,7.5-14.6,1-7.3-4.9-11.3-11-14-6.3-2.8-13.7-3.6-20.4-4.5a77.414,77.414,0,0,0-20.4-.8c-13.7,1.6-27.5,3.3-41.3,5.3-12.9,1.8-27.2,5-40.1,1.7-13.6-3.5-8.8-15.3-14.5-25-6.3-10.8-22-11.1-32.9-10.3-13.3.9-28.9,6.5-40.4,13-2.4,1.3-4.9,2.4-7.2,3.8-2.4,1.4-4.1,3.5-6.9,4.3-6.4,1.9-13.8-1.9-20.3-2-14.1-.3-30.6,6.6-40.6,16.5-6.4,6.4-14.9,25.7-4,32.1a58.094,58.094,0,0,0-10.8,17.2c-1.3,3.1-2.5,6.4-3.5,9.6-.8,2.3-1.1,6.2-2.9,8-1.7,1.8-4.1,2.9-5.8,4.9a56.906,56.906,0,0,0-6.2,8.4c-2.9,4.9-5.5,10.7-6.2,16.4-.7,5.3.4,10.5,4.7,14a15.007,15.007,0,0,0,8.6,3.3c3.4.2,6.9-1.5,10.2-1.1,2.7.3,2.4,1.7,4.1,3.6,2,2.1,5,3.2,7.7,3.8a18.624,18.624,0,0,0,7.8.1c3.3-.7,6.1-3.1,9.5-3.4a141.271,141.271,0,0,1-16.1,12.8c-6.2,4.2-12.1,5.5-19.3,7.1-14.2,3-27.8,7.6-42.4,9.2-6.9.8-13.7,2.3-20.7,2.8a243.052,243.052,0,0,1-25.6.5c-6.6-.1-13.3,0-19.8-1.2-7-1.3-14.3-.9-21.4-.9-7.3,0-14.6-.1-21.9-.8-6.9-.7-13.7-4.3-20.3-6.4a115.771,115.771,0,0,1-37.3-20.3c-5.4-4.3-11.3-8.1-16.1-13.1-4.3-4.6-8.4-10-12.3-15-8.4-10.8-10.9-24.7-17.6-36.4-3.5-6.1-10.9-21.9-18.3-10.5-4.3,6.6-4.9,15.1-6.6,22.6-3.4-6.2-6.7-12.5-10.2-18.6-1.7-2.9-4.5-8.1-8.6-6.7-3.9,1.4-5.8,9.1-6.6,12.6-1.7,6.8-1.7,13.8-4.7,20.3-2.3-4.7-3.9-10.7-9.2-13-6.4-2.8-12.8.2-16,6-7.9,14.3-6.5,33-3.9,48.5,5.2,30.3,19.6,60,42.7,80.7,5.5,4.9,11.9,8.7,18,13a21.5,21.5,0,0,0,7.5,3.9c3.7.8,5.4,3,8.9,4.6,13.1,5.8,27.8,6.3,41.3,10.8,3.1,1,6.4.4,9.5,1.5,3.4,1.2,5.8,1.3,9.3,1.9,7.2,1.2,14.9,3.1,22.3,3.3,7.4.1,14.6,1.1,22.1,1.5a120.859,120.859,0,0,0,22.5-1c16.6-2,34.7-2.5,50.1-9.6a48.818,48.818,0,0,0,15.4-11.2c1.2-1.4,4.7-5,3.4-7.2-1.5-2.4-4.8-.1-6.7.7-15.2,6.7-32,8.5-48.5,9.8-7.7.6-15.5,1.8-23.2,2a47.069,47.069,0,0,1-11.3-1.1c-4.4-.9-8.8-.5-13.3-1-7.7-.9-15.4-2.3-23.1-3.2-6.5-.8-13.7.3-19.5-2.7-5.4-2.7-12-3.2-17.8-5.1-6.9-2.3-14.1-3.5-20.9-6.2-3.4-1.4-6.8-2.1-10.2-3.2-2.7-.9-5-3.1-7.8-4.4-6.4-2.9-12.3-8.2-17.2-13.2a158.667,158.667,0,0,1-27.7-38.3c-4.1-7.7-6.4-17.2-9.1-25.5a157.106,157.106,0,0,1-6.1-24.3c-.5-2.8-3.8-17.2.8-17.3,6.5-.2,10.6,11.3,12.4,15.8,2.7,6.8,6.1,16.2,11.7,21.2,5.2,4.7,8.3-4.2,8.2-8.3-.1-3-1.2-4.3-2.8-6.7a17.49,17.49,0,0,1-3.3-10.2c-.4-9.5,1.3-19,3-28.3,3.9,6.9,8.1,13.5,10.8,21,1.4,3.9,3.5,15.4,9.8,13.5,3.9-1.2,5.4-7,6-10.5,1.3-7.8.4-15.6,2.6-23.3,2.7,1.3,4,6.6,5.2,9.1a107.015,107.015,0,0,1,5.8,15.5c3.2,10.2,9.4,18.8,15.6,27.4a106.206,106.206,0,0,0,22.3,22.6c8.4,6.3,18.1,13.3,28,17,5.1,1.9,10.3,3.1,15.4,5.1,2.3.9,4.5,1.8,6.9,2.6,3.1,1.1,6.2,1.1,9.3,1.9,4.9,1.3,9.1,2.5,14.3,2.6,5.1.1,10.1,0,15.1.4,10.3.8,21.2,1,31.5,1,11.7,0,23.6.2,35.2-2.1,11.7-2.4,23.7-4,35.3-6.9,13.2-3.3,26.4-7.3,39.5-10.9-5.7,10.4-16,21.1-26.5,26.5-5.2,2.7-10.6,5.8-16.1,8-6,2.3-11.9,4-17.5,7.2-6.1,3.5-8.2,6.8-11.1,12.9-2.9,6.2-4.9,12.1-4.2,19,.6,5.4,2.8,11.1,6.8,14.9a17.29,17.29,0,0,0,7.3,4.2c3.1.9,4.2.3,5,3.4.5,2.1-.1,5,.3,7.3.5,3.1,1.2,6.2,2,9.3a112.33,112.33,0,0,0,6.9,20.5,90.353,90.353,0,0,0,9.5,15c1.4,1.8,4,4,4.8,6.1.6,1.5-.2,5.3-1.9,6.1-.9.5-5.6-1.5-6.3-1.6-2.8-.7-5.4-1.2-8-2.1-6.3-2.3-13.9-2.4-20.6-3.1-5.9-.6-11.9-1.4-17.9-1.2-2.8.1-5.5,1.1-8.2,1.2-2.9.1-5.5-.6-8.4-.4a22.313,22.313,0,0,0-6.3.9c-2.8.9-4.1,0-6.8-.3-3.2-.3-6.1,1.2-9.2,1.2-3,0-6-.3-9.1-.2-5.6.2-11.4,1.4-16.9,1.3a31.685,31.685,0,0,0-8.6,1.1c-3.5.7-7.2-.5-10.6.5-4.8,1.4-10,1.4-15.1,2.4-5.6,1.1-10.9,2.9-16.5,3.8-12,1.8-24,5.6-35.5,9.4-49.6,16.4-90.6,60.6-99.9,112.6-2.7,15-6.5,31.9-4.8,47.2,1.6,14.6,7.4,29.6,15,42.1a183.817,183.817,0,0,0,26.9,34c5,5,9.9,10.4,15.4,14.8,2.3,1.8,4.4,4.2,6.8,5.9,2.9,2,6.5,3,9.8,4.3a164.606,164.606,0,0,0-32.9,24.7c-8.5,8.2-19.5,19.9-18.2,32.7,1.7,17.7,25.8,12,37.2,9.5,0,8.5.1,18.6,11.5,17.7a37.56,37.56,0,0,0,14.6-4.8,34.125,34.125,0,0,1,10.5-4c0,4.1-.9,9.9,2.4,13.1,3.6,3.4,10.2,3.2,14.6,1.9,10-3,20.8-6.2,27.4-15.1a59.624,59.624,0,0,0,8-14.1c.9-2.4.9-5.5,2.5-7.6,1.5-1.9,4.2-3.2,6-4.8,3.9-3.4,7.1-7.5,10.5-11.4,4-4.7,8.6-9,12.2-13.9,6.7-9,11.4-20.4,9.1-31.7-2.2-10.6-10.9-20.4-21.3-22.8-4.9-1.1-8-5.1-11.8-8a134.8,134.8,0,0,0-13.3-9,153.559,153.559,0,0,1-14.2-9.6c-4.4-3.4-7.8-8.5-11.3-12.9-7.2-9.1-15.4-18.5-17.8-30.2-.9-4.7-2.3-9.7-.8-14.4,1.6-4.9,5.1-8.9,8.3-12.8,7-8.6,17-13.7,27-18,5.4-2.3,10.8-4.2,16.2-5.9,2-.6,3.5-1.9,5.5-2.4,2.8-.7,5.9-1,8.8-1.6,5.5-1.3,10.3-2.6,16-2.7,6.5-.1,12.9-.5,19.4-1.2,5.6-.6,10.4.2,16,.4,2.4.1,4.8-.4,7.2-.3,2.9.2,5.7.9,8.6,1,4.8.1,9.3.6,14.1-.1,2.4-.3,4.3.4,6.7.1.6-.1,1.1-.8,1.7-.8,1.1,0,1.7.5,2.8.7,11.5,1.3,22.9-1,34.4-.5,11.2.5,22.9-.2,34.1-.8,11.1-.6,23.7-1.8,34-6.3,3.8-1.7,6.3-5.8,10-3,4.7,3.6,8.5,7.9,13.6,11,4.4,2.6,9.9,3.5,14.8,4.7,2.3.6,5.2,1.9,7.6,1.5,3.1-.5,2.8-2,4.9.9,3.2,4.4,5.3,9.4,8.7,13.7a146.868,146.868,0,0,0,11.8,13.1c7.7,7.5,15.1,15.4,22.7,23,3.9,3.9,6.4,8.9,10.5,12.6,3.9,3.5,7.6,7.3,11.5,10.7,9.1,7.8,19,14.8,28.6,22,4.6,3.5,8.6,7.5,13.7,10.3,4.9,2.8,10.1,5.3,14.7,8.4,9.1,6,19.7,9.7,30.2,13.2a126.55,126.55,0,0,0,17.1,4.5c5.3,1,10.3,1.3,15.6,1.9,4.9.6,9.8.8,14.6,1.4,2.9.4,3.6-.1,6.1-.4,2.2-.3,3.9.8,6.2,1,10.6.5,21.5,1.4,32.2.5,5.6-.5,10.5-.1,15.8-1.9s11-1.2,16.4-3.1c10.4-3.7,21.2-5.7,31.3-10.4,4.2-2,9.6-3.3,13.4-6.2,1.5-1.2,2.5-2.6,4.1-3.5a59.865,59.865,0,0,1,7.2-3.5c4.1-1.7,6.9-4.9,10.6-7.5a99.721,99.721,0,0,0,13.4-10.9c7.5-7.6,14.8-15.1,21.3-23.7a444,444,0,0,0,39.1-62.1c12.4-23.5,17.4-48.3,19.6-74.6q1.65-19.65,3-39.3a159.781,159.781,0,0,0,.5-18.3c-.1-2.6-.9-6.1,0-8.6.9-2.4,3.5-4.3,5.1-6.2,5.5-7.6,15.4-20.4,14-30.5" fill-rule="evenodd"/><path id="Fill-8" d="M388.044,390.173c-3.1-1.8,1.2-6.8-2.3-8-3.2-1.1-5,4.3-5.4,6.5-.7,4.5,1,8.6,4.9,10.8,2.1,1.2,4.5,1.8,6.4,3.2,2.1,1.6,3.1,3.8,5.3,5.2,3.9-8-2.5-14.2-8.9-17.7" fill-rule="evenodd"/><path id="Fill-10" d="M410.845,374.872c-5.9,1.4-7,17.7-.5,17.4,3.8-.2,2.7-7.8,3.3-10.4.6-2.5,1.7-8.1-2.8-7" fill-rule="evenodd"/><path id="Fill-12" d="M407.445,88.473c7.6,5.1,20.1-7.9,16.1-15.7-3.1,1.9-7.6,7.4-11.5,7-6-.6.2-6.4-.7-9.2-1.6-5.3-5.9,3.6-6.4,5.2-1.1,3.9-1.4,10.1,2.5,12.7" fill-rule="evenodd"/><path id="Fill-14" d="M426.744,242.872a11.734,11.734,0,0,0-3.2-8.2c-2.2-2.1-4.8-2.6-6.5-5.3-1.1-1.7-1.1-3.4-3.3-1.6-1.4,1.1-1.8,4.3-1.8,6a10.242,10.242,0,0,0,2.7,6.8c1.9,2.2,4.6,2.5,6.6,4.3,1.2,1.1,1.5,3.7,3.5,2.8,1.3-.7,1.7-3.7,2-4.8" fill-rule="evenodd"/></g></g></svg>