<svg id="Layer_1" data-name="Layer 1" xmlns="http://www.w3.org/2000/svg" viewBox="0 0 964.909 510.97"><title>1</title><g id="Illustrations_laying" data-name="Illustrations/laying"><polyline id="Accent" points="176.092 312.609 178.692 345.409 228.392 357.209 266.292 374.209 296.292 400.409 310.692 388.609 328.992 348.009 349.892 344.109 425.692 351.909 451.792 359.809 442.692 404.409 433.592 437.109 585.092 428.009 579.892 351.909 548.492 282.509 424.392 222.109 331.592 233.909 266.292 306.009 237.492 321.809 186.592 319.209" fill="#34558b" fill-rule="evenodd"/><path id="Combined-Shape" d="M801.092,11.409c10.2,12.4-4.8,30-13.4,38.6-4.1,4.2-7.6,9.1-11.6,13.4s-9,7.6-12.6,11.7c-3.8,4.3-8.1,9-11.3,13.9-2,3.1-5,6.5-5.9,10.1-1.4,5.1-.2,2.2,1.6,5.1,1.9,3,2.6,3.1,3.2,7.3a24.093,24.093,0,0,0,3.7,10.4c3.6,5.7,7.4,11,10,17.2,3.4,8.3,5.7,16.8,8.4,25.3,1,3.3,1.7,7.2,3.4,10.2,2.4,4.4,2.7,4,6.3,1.3,10.6-8.1,21.3-16.7,32.4-24.5,6.3-4.4,12.9-8.8,19.6-12.7,4.6-2.7,14.4-7.4,16.7-12.4,3-6.6-1.7-12.6,4.8-18.6,4.2-3.9,11.2-6.1,16.7-7.1,7.8-1.4,16.5.6,24.3,1.3a80.165,80.165,0,0,0,23.4-1.7c11.9-2.5,34.6-16.2,42.3.3,3.4,7.2,1.1,15.2.5,22.5-.5,6.4-2.4,13.3-6.4,18.5-4.6,6-11.2,6.4-18.2,8-8.2,1.9-16.6,2.6-24.8,4.4a61.688,61.688,0,0,1-12.2,1.5c-3.7.2-9-1.3-12.2-.9-3.1.4-2,2.4-4.2,3.7-.9.5-2.7.2-3.2.6-1.5,1.2-1.9,2.3-3,4.4-3.5,6.9-8.7,13.7-13.2,20-3.8,5.4-8.1,11.9-12.5,16.7-9.4,10.1-18.5,21.3-27.7,31.9a156.085,156.085,0,0,1-15.8,15.7c-1.7,1.4-5.1,2.7-6,4.7-1.2,2.9,2.1,9.1,2.9,12,1.9,6.8,2.1,13.8,4.1,20.6,1.9,6.4,2.6,13.4,3,20.1.9,15.1,3,29.5,2.5,44.6-.4,13-.9,25.6-5.4,38.4-4.1,11.7-16.5,24.3-28,28.6a126.084,126.084,0,0,1-20.1,6.3c-6.8,1.4-14,2.8-20.7,4.7a211.383,211.383,0,0,1-38.7,7.3,388.621,388.621,0,0,1-50.6,1.1c-7.6-.3-15.3-.3-22.8-.3-7.7,0-15,1.5-22.8,2.4-27.3,2.9-56.2.6-83.5,3.4-13.5,1.4-27,4-40.7,4.2-12.3.1-24.7-.7-36.8-.7-3.8,0-7.1.3-10.9-.6-2-.5-4.8-2.3-6.9-1.2-1.8.9-3.1,4.7-4.2,6.3a56.973,56.973,0,0,1-8.4,9.3c-12.3,11.7-24.4,15.6-40.5,19.9-7.4,2-11,3-17.2,7.5a64.682,64.682,0,0,1-16,8.5c-11.4,4.2-24.8,1-35.6-2.7-5.2-1.8-10.6-3.4-15.9-5.5-7.2-2.9-13.2-7.7-20.3-10.6.8,7.6-7.4,10.1-9.9,15.2-1.6,3.3-.6,8.5-2.4,12.2-1.6,3.5-4.1,6.7-7.9,7.6-5.2,1.2-14.6-4.6-18.3-8-2-1.9-3.9-6.9-6.4-7.8-3.3-1.1-9.3,3.7-12.3,4.8-14.8,5.2-29.8,7.7-45.7,5.6-16.1-2.1-30.8-7.8-45.9-13.2-29.6-10.6-55.3-28.1-78.4-49.1-1.3-1.2-3.2-2.2-4-3.7-.8-1.3-.7-4.5-1.2-5.2-1.5-2.2-3.8-1.8-6.6-2-8.7-.7-15.7-2.8-22.4-8.6-10.7-9.2-14.6-30.7,1.7-36.4a24.385,24.385,0,0,1,13.1-.9c1.8.4,8.4,4.4,10.1,4.1,2.6-.4,2.1-3.7,2.7-5.5a48.068,48.068,0,0,1,7.1-12.2,123.685,123.685,0,0,1,16.9-17.8c6.6-5.6,13.9-8.1,21.8-11.1,5.3-2.1,15.7-5.7,21.3-3.8,7.3,2.4,3.7,10.4-.9,13.2-6.6,4-14.5,5.6-21.2,9.7-7.4,4.5-14.1,10.6-20.9,16-5.4,4.3-10.1,9.7-15.6,13.8a31.757,31.757,0,0,0-4.3,3.6c-.2.2,0,1.9-.7,2.7-3.2,3.4-2.5,3-7.3,1.8-5.7-1.4-19.3-4.5-23.1,2.5-3.5,6.4,10.7,12.1,15.3,14,6.8,2.8,8.4,5.7,13.3,11.1,5,5.6,13.3,9.3,19.5,13.5,13.5,8.9,28.7,15.3,43.2,22.4,14.1,6.9,29.2,11.9,43.9,16.7,8.9,2.9,19.5,6.1,28.8,7,9.4.9,18.2-.6,27.3-2.4a70.661,70.661,0,0,0,10.3-2.6c1.7-.6,4.5-.7,5.9-1.7,2.1-1.6,1.2-2.9,1.6-5.7,1.6-12.3,10.1,1.4,13.9,5.5,2.9,3.2,5.8,7,9.6,9,4.8,2.5,5.6,1.3,7.2-2.8,2.9-7.7,4-16.5,15.2-15.4-8.8-7.5-17.1-13.9-24.6-22.9-7.4-8.9-14.3-18.5-21.4-27.6-5.8-7.5-10.9-17.8-18.5-23.8-2.4-1.9-9.7-6.2-12.4-6.1-4.1.1-7.8,6.9-12.3,7.5-4.9.6-7.2-1.1-8.6-5.1-1.5-4.1,2-8.9.8-11.9-.3-.8-2.4-1.8-3.1-3.1-1-1.8-1-4.2-.8-6.3.4-3,1.5-4.3,1.3-7.3-.3-3.5-1.8-6.1-.6-9.8,1.3-3.9,5.2-6,7.7-8.9,3.7-4.3,1.8-7.6.3-13.2-3.2-11.9-6.9-23.7-10.2-35.7-7.5,2.4-14.8,5-22.3,7.2-7.2,2.1-16.1,4-22.8,7.4-4,2-2.9.2-2.6,4.6.2,2.9,1.4,6.1,2,9,1,5.3,1.5,18.8,5.6,21.3,2.5,1.5,6.5-.7,9.2,2.4,2.3,2.6,1.6,6.3,3,9.2.9,1.8,2.5,2.5,3.6,4.1,2.2,3.4,1.9,6.3,2.3,10.2.2,2.4-.1,9.7,1.1,11.5,1.6,2.5,4.8,2.1,7.5,2.9a64.442,64.442,0,0,1,18.7,9.4c3,3.6,24.3,25,15,27.7-4.5,1.3-12.4-8.8-15.6-11.5a56.359,56.359,0,0,0-16.3-9.4c-14.8-5.7-28.3-10.8-44.4-8.5-6.9,1-15.4,4.1-22.3,3.4-7-.7-5.2-6.9-.8-10.4,3.9-3.1,9.4-2.2,11.1-7.5s-.1-12,2.7-17.3c2.4-4.5,8-9.2,12.3-11.8,1.9-1.1,5.1-1.9,6.1-3.6.8-1.4-2.5-9.3-3-10.9-2.3-8.1-4.7-16.1-6.6-24.3-1.8-7.5-2.2-11.5,5.7-14.2,12.1-4.2,24.9-6.1,37-10-2.2-5.6-8.9-.9-13.7-1.1-5.9-.2-12.8-2.2-18.4-4a33.663,33.663,0,0,1-23.5-27.7c-.4-2.9.9-8.8-.1-11.3-1-2.4-3.8-3.6-5.9-5.3a50.789,50.789,0,0,1-12.9-16.9,30.512,30.512,0,0,1-1.4-20.2c.9-3.7,1.4-4.2.1-7.7-1.5-4-4-7.6-5.4-11.8a64.2,64.2,0,0,1-3.4-21.3c.1-8.1,3.4-11.7,5.5-18.8,1.7-5.6-.6-13.4-.2-19.6a52.2,52.2,0,0,1,6.1-21.5c5.4-10.9,14-22.6,25.1-28.3,2.2-1.1,5.8-1.2,7.8-2.5,2.4-1.6,2.6-4,3.6-6.9,2.3-6.8,5.1-12.3,10.1-17.6,16-16.9,44.1-22.9,66.7-21.5,4,.3,7.9,2.2,11.7,1,2.7-.8,5.5-3.5,8.2-4.7a35.793,35.793,0,0,1,10.7-2.7,42.531,42.531,0,0,1,20.1,2.5c2.6.9,5,2,7.5,3,4,1.6,3.8.8,7.5.1,7.5-1.5,11.8-.4,18.4,2.8,1.8.8,4.6,1.5,6.1,2.7,2.1,1.7,3,6.8,5.4,7.8,1.3.5,5.4-1.4,7.1-1.7,3-.5,6-.1,9-.1,5.3-.1,10.9.1,15.8,2.7,3.7,1.9,8.1,5.5,11.2,8,4.4,3.4,7.1,9.7,12.5,11.5,2.1.7,4.4,0,6.6.6,2.8.8,5.6,2.8,7.9,4.6,4,3.1,7.3,10.4,11.3,11.6,2.7.8,6.9,0,9.9.8a20.849,20.849,0,0,1,9.9,5.6c5.5,5.6,7,13.8,7.2,21.3.1,2-1.2,7.8,0,9.6,1.1,1.6,5.2,2.5,6.8,4.2,5.2,5.1,7.5,13.7,8.1,20.7.6,8-1.5,13.7-2.9,21.4-.9,4.8-2,1.7,2,4.5,2.8,1.9,4.7,3.3,6.5,6.3,3.8,6.4,4.7,13.9,4.1,21.1-.8,9-5.4,15.8-7.4,24.3,9.5,0,19.7,2.5,29,4.3,3.4.6,6.1,2.5,9.1,4,2.6,1.3,4.6,1.5,7.1,2.3,6,2.1,4.8,1.7,9-2.5,16.6-17,40.2-27.3,64.1-27,13.3.2,26.2,1.9,38.6,6.7,5.2,2,10.9,4.1,15.4,7.2,5.3,3.6,6.1,3.6,13.1,3.7,25.3.5,49.9,14.1,68.4,30.6,1.6-11.1,19.6-17.7,28.3-22.3,3-1.6,5.7-2.4,7.2-5.3,1.4-2.7,1.3-8.4,2.2-11.6,1.7-5.9,3.6-13.2,3.5-19.5-.4-18.2-4.6-36.2-5.2-54.4-.1-4.6-.7-9.7,0-14.2.5-3.6,2.2-5.9-.2-9.3-4.5-6.4-12.9-8-15.7-16.4-4.5-13.6,3.3-27.5,13.9-35.6,6.1-4.7,12.1-5.6,17-12.2,4.4-5.9,8.2-12.8,13.2-18.2,4.2-4.5,8.1-10.5,12.9-14.2,5-3.8,12.3-6.4,18.2-8.2C773.592-1.891,791.092-.791,801.092,11.409Zm-445,341.3c-3.3.1-6.6.5-10,.5-2,0-6.7-1.1-8.5-.3-3.6,1.5-6.6,10-8.3,13.3-5.5,10.9-9.8,22.3-15.2,33.2-2.8,5.7-7,9.4-13.6,9.5-7.4.1-10.9-4.6-15.5-9.5-9.3-9.7-21.9-18-33.5-24.7-12.5-7.3-27.5-14.3-41.7-16.9-9.5-1.7-31.3-9.1-37,2.8,3-.4,14.2-2.1,14.7,2.9.4,3.7-13.5,4.4-15.2,10.3,3.6-.3,16.1-3.8,17,1.6.5,2.9-4.8,4.3-6.6,5.3a33.571,33.571,0,0,0-8.7,6.8c4.4,0,8.8-3.8,13-3.4,1.7.2,3.8,2.8,5.4,3.5a22.158,22.158,0,0,0,7.1,2c5.4.7,8.6-.9,12.9,2.6,3.8,3.1,7.8,7.3,11.4,10.8,7.6,7.5,13.8,16.9,20.3,25.3a124.749,124.749,0,0,0,27,26.3c8.7,6.3,17.5,10.4,27.3,15.1,9.6,4.6,21.8,9.9,32.7,10.1,8.7.2,19.6-2.6,27.6-6.3,4.6-2.2,6.3-2.2,10.9-3,7.2-1.3,15.5-5.2,22.1-8.2,20.8-9.5,34.1-30.2,43.5-50.4a136.829,136.829,0,0,0,10.9-35.2c1.2-6.8,2.3-8.4-4.3-11.2-6.7-2.8-13.9-4.6-20.9-6.6C400.392,353.109,377.092,351.809,356.092,352.709Zm49.8-122.8c-2.1.9-3.2,10.9-4.1,13.2-4.2,9.9-11.6,16.1-22.4,17.2-3.4.3-8.9-2.7-11.3-1.3-3.2,1.9-3.8,11.2-7.3,14.3-3.2,2.8-9.9,5.8-14,6.8a20.34,20.34,0,0,1-9.5-.1c-1.8-.4-5.2-2.6-7-1.8-3,1.4-4.4,9-7.8,11.6-5,3.8-13,6.6-19.1,6.5-6.3-.1-13.9-5.1-19.6-3.9-6.7,1.4-5.8,7.6-8.7,12.5-6.2,10.3-13.2,19.2-24.4,24.1-12.1,5.3-29.3,6-42,3.3-6.9-1.5-13.8-3.6-19.6-7.5-4.6-3.1-8.1-7.3-12.4-10.9l-.7-.6v.1c.1.3.2.7.3,1,2,6.5,2.9,18,7,23.3,3.6,4.7,16.2,5,22.3,5.6,16.2,1.7,30.2,5.5,44.5,13.7a245.319,245.319,0,0,1,38.1,27.4c2.4,2.1,4.4,5.4,7.3,6.8,4.8,2.2,4.4-.4,5.7-4.7,2.6-8.8,5.4-17.5,9.4-25.8,1.7-3.6,5.6-8,6.4-11.7.8-3.6-.8-7.6-.3-11.5,1.4-9.8,5.8-18.2,11.4-26.1,3.9-5.5,15.4-14.9,13.9-1-1.1,10.2-8.6,19.3-10.4,29.4,5.7-1.1,9.2-.7,14.3-.4,7,.4,14.9-2.3,22.1-2.3a233.492,233.492,0,0,1,40.9,3.3,106.6,106.6,0,0,1,18.3,4.6c4.7,1.7,11.1,7.1,16.1,7.5,3.7.3,2.4.8,3.4-2.4.9-2.9-.1-8.1-.3-11.2-.4-6.9-2.1-13.6-2.9-20.4-.4-2.9-3.9-15.2-.2-17.6,5.7-3.6,8,10.6,8.7,13.2,3.7,13.1,6.1,26,6,39.7a197.126,197.126,0,0,1-3.1,35,102.187,102.187,0,0,1-6.4,20.1c-1.4,3.4-9.7,16.4-8.6,18.7.9,1.8,15.1-1.4,17.2-1.5,7.7-.7,15.5-.2,23.2-.7,11.4-.7,23-.5,33.9-2.6,6.5-1.2,13.5-.1,20,0,7.2,0,14.2-.6,21.4.1,5.5.5,13.8,3.4,19.1,2.2,5.4-1.2,3.8-4.9,3.9-10.4.1-13.4-1.1-28.8-4.1-41.8-1.6-6.9-3.7-13.5-4.8-20.5s-1.1-14.5-3.2-21.3c-3.7-12-14-22.4-22.5-31.2-8.7-9.1-18.5-15.7-29.2-22.3a236.418,236.418,0,0,0-28.6-15.1c-11.9-5.2-25.3-8.4-36.3-15.3a129.45,129.45,0,0,0-32.9-14C415.592,232.909,407.092,229.309,405.892,229.909Zm325.6-110.8c-7.6,1.1-21.8-2.6-21.8,7.8,0,5.8,1.9,11.8,2.5,17.5.6,6.8.2,13.6,1.2,20.4,1.7,11,4.1,21.1,3.3,32.3-.9,12.2-3.4,24-3.2,36.4.2,11.8-.4,23.2,5.2,34,2.4,4.6,4.3,9.9,6.9,14.2,3.1,5,5.7,6.5,11.2,8.5,3.4,1.3,11.8,2.9,14,6.3,3.2,4.9-1.1,6.9-5.3,6.7-13-.5-26.3-6.3-38.5-10.5-5.7-2-11.2-4.5-16.9-6.7-4.5-1.7-8.2-2.3-12.3-5.3-10-7.2-17.7-17.2-27.5-24.6a129.573,129.573,0,0,0-64.2-24.9,77.711,77.711,0,0,0-16.7.2c-3.3.3-6.6.4-9.9,1-1.9.4-9.1,3.8-10.6,3-9.7-4.6,17.7-18.6,20.8-19.3-3.9-2.7-12-2.3-16.6-2.9a95.8,95.8,0,0,0-17.7-1.2c-8.4.5-17.3.2-25.6,2a119.832,119.832,0,0,0-29.5,10.7c-3.1,1.6-7.5,3.6-7.5,8.2,0,4.3,1.7,3.6,5.9,4.5,11.2,2.6,21.6,10,31.6,15.7a328.616,328.616,0,0,1,31.1,20c18.9,13.8,29.7,33.8,38.1,55.4a150.759,150.759,0,0,1,8.8,36.2c1.5,13.3.2,26.6,1.3,39.9.2,3.1.7,15.6,3,17.6,1.8,1.5,10.7-1.2,13.2-1.3,10.5-.7,21-.7,31.3-1.2,21.7-1.3,44,.5,66-.8a225.881,225.881,0,0,0,32.6-4.4c10.1-2.1,22.6-2.3,31.8-7.1,17.7-9.2,28.4-31.4,29.2-50.2a265.758,265.758,0,0,0-4.8-62.8c-2.2-10.6-4.2-20.8-6.8-31.3-3-11.8-6.3-23.5-9.5-35.1-5.6-20-14.3-38.7-18.4-59.2-2.3-11.3-5.5-23.1-8.9-34.1-1.2-4.1-3.7-11.8-6.6-14.9C738.592,116.609,736.092,118.509,731.492,119.109Zm-620,243.8c-4.6,2.9-7.9,9.5-7.7,15,0,7.2,6,4.1,11.6,4.4,3.4.2,16,3.7,18.3.3,2.7-4-5.3-2.2-6.3-4.4-2-4.4,7.3-6.2,6.2-10s-10.7,5-12.7.6c-1.9-4.1,7.7-7.6,6.2-10.4C125.792,355.909,113.092,361.909,111.492,362.909Zm19.9-37.3c0,3.1-1.1,7.1-4.9,6.5-4.7-.8-6.2-9.9-6.6-13.3C122.892,307.409,131.392,318.609,131.392,325.609Zm137.8-97.6c-5.5.9-6.1,3.3-8.7,7.1a5.92,5.92,0,0,1-2.2-3.7c-13,5.8-26.5,10.4-40.5,12.6-15.7,2.4-32-1.2-48-2.7-2.1-.2-8.4-2.7-10.1-1.7-1.4.8-1.4,7.9-1.5,9.2-.8,9.3,1,17.4,2.4,26.5.4,2.4,0,7.6,1.9,9.7,1.3,1.4,3.7.9,5.4,3.1,4.6,5.9,6,17.3,8.1,24.9l.1.2v-.1c.7-7.8,6.7-3.8,11.2-1.7a74.852,74.852,0,0,0,21.2,5.7c5.9.8,12.6,2.8,18.6,2.5,6.4-.3,14.2-2.8,20.4-4.7,5.9-1.7,9.1-5.4,13.1-10.2,3.9-4.6,8.1-7.7,12.2-11.8,10.5-10.3,7.6-31.5-1.5-41.6,7.4-3.8,20.2-12.1,9-20.6A15.613,15.613,0,0,0,269.192,228.009Zm-93.1,85.2v.1l.1.1Zm36-17.7c2.9.2,5,2.4,4.2,5.4-1,3.8-7.6,6.2-10.9,6.4C196.592,308.409,204.992,295.009,212.092,295.509Zm-27.7-14.6c.3,2.2,0,3.6,1.9,4.3,1.5.6,4.2-.6,6,.2s1.9,1.2,3,3c-1.3,3.9-7,8.3-11.6,6-5.7-2.9-6.3-14.5-4.7-19.4C181.692,266.609,183.892,277.609,184.392,280.909Zm509.7-44.2c-2.4.9-4.5,3.3-6.6,4.7-5.7,3.6-11.9,5.5-17.4,9.4,3.9,4.2,5.9,9.9,9.7,13.9,2.4,2.5,5.3,2.8,8.1,4.2,8.4,4,18.2,9.7,27.4,11.6a68.517,68.517,0,0,1-12-19.7,88.555,88.555,0,0,1-3.4-8.5c-1.2-4.1-.6-8.4-1.6-12.4C697.192,235.409,698.692,235.109,694.092,236.709Zm-525.5,24c2.4,2.9,4.3,9.3,4.5,13-2.6,12.3-11.1-4.7-10.9-10.2C162.392,258.409,165.092,256.609,168.592,260.709Zm23.3-6.7c4.2,3.6,5.5,9.5,6,14.4.5,5.3-.7,7.6-6,4.2-4.6-3-7-11-7.2-15.6C184.592,251.609,187.792,250.509,191.892,254.009Zm83.8-15.3c1,5.5-11.2,11.2-9.2,2.6C265.992,235.809,274.592,232.909,275.692,238.709Zm579.9-100.3c-9.3,11.3-20.5,18.5-32.1,27.1-10.3,7.6-20.1,15.8-31.2,22.1-3.3,1.8-8.6,2.9-9.2,6.4-.6,3.2,5.4,11.9,6.8,15.4,4.7,11.8,8.1,23.9,11.8,36.1,10.9-17,21.9-34.3,35.2-49.6,11.8-13.6,23.9-27.7,34.2-42.3A54.746,54.746,0,0,1,855.592,138.409Zm68-26.2c-10.3,3.2-22.2,5-33,3.9-4.9-.5-9.7-.9-14.6-1.2-3.7-.2-9.9-2-13.1.8-3,2.7-2.6,8-1.1,11.4,1,2.2,2.4,2.5,3.3,4.3.3.6-.6,1.6.2,2.9,2,3.7,9,10,12.7,11.9,4.8,2.4,5.5-.4,9.3-2.9,7.9-5.2,21.1-5.3,30.4-6.2.2,2,26.9-7.6,29.6-9.3,4.9-3.3,10.7-18.4,5.5-22.8C946.292,99.709,929.792,110.309,923.592,112.209Zm-179.9-71.8a61.992,61.992,0,0,1-12.4,14.6c-5.4,4.4-12.5,6.1-18.7,9.1-5.6,2.7-10.6,5.4-14.1,10.7-2.4,3.6-6.9,8.7-4.8,13.4,2.1,4.8,10.2,8.1,13.8,12.3,4.9,5.7,4.9,4.6,12.2,3a44.22,44.22,0,0,1,10.9-.9c1.5.1,6.6,1.5,8,.5,1.7-1.3,0-6.6.2-8.6a37.648,37.648,0,0,1,2.5-9.3c4.2-11.7,12.1-19.4,19.9-28.3,8.3-9.5,19.7-16.2,27.8-25.8,4.5-5.3,2.5-9-3.7-11.5-3.1-1.3-6.8-1.3-10.1-2.3s-6.3-3.1-9.9-3.1C749.992,13.409,749.492,31.009,743.692,40.409Z" fill-rule="evenodd"/></g></svg>