<svg id="Layer_1" data-name="Layer 1" xmlns="http://www.w3.org/2000/svg" viewBox="0 0 888.16 703.24"><title>1</title><g id="Illustrations_sitting-reading" data-name="Illustrations/sitting-reading"><path id="Accent" d="M594.11,258.552c-7.6,14.9-15.7,29.5-23.8,44.1-4.3,7.8-18.2,39.8-21.8,41.1-3.9,1.3-27.6-12.6-34.4-15.3-12.1-4.9-23.6-9.4-36.2-12.4-14.1-3.3-28.4-5.8-43-4.6-6.4.5-17,2.1-10.7-6.9,4.7-6.6,9.2-12.6,15.5-17.4,4.6-3.5,11.3-9.8,16.7-12.1,5.6-2.4,14-1.9,20.1-1.7,6.6.2,37.8,9.9,39.6-.3,3.2,2.9,5,1.8,8.7,3.2,4.1,1.6,6.7,4.7,10.8,6.6,2.7,1.2,7.5,6,10.5,6.1,3.9,0,5-3.2,7.8-5.6,6.3-5.4,14.7-8.9,21.6-13.6C581.41,265.552,587.11,261.252,594.11,258.552Zm-68.7-118c-.5,6.8,1.3,13.1,1.3,20.2,0,3.1-.2,6.1.8,9.1.8,2.6.3,7.4.7,10.2-7.8-2.4-22.3-5.9-30.3-2.7-7.6,3.1-8.6,17.2-8.8,24.1-.2,4.7,1.9,11.9.3,16.4a9.7,9.7,0,0,0-.7,3h0c-.2-.1-.8-.1-2.9,1.5-2.1,1.5-4.7,2.4-6.8,4.1-3.8,3.1-4.5,6.6-6.4,11.1a13.522,13.522,0,0,1-12.2,8.1c4.4-8,10.5-15.4,7-24.8-2.6-7.1,2-15.4,5.6-22.1,1.2-2.2,14.6-19.3,8.7-20.5-3.9-.8-12.7,17.3-14.4,20.5-4.7-3.2-6.8-7.1-3.2-11.9,2.8-3.7,6.2-6.9,8.9-10.7,4.4-6.2,8.7-13.6,14-19.1C496.01,147.252,512.11,140.652,525.41,140.552Zm-36.8,80.2Zm160.4-90.8c5.9,5.6,13.3,10.3,19,16.2,5,5.2,11.7,13.9,14,20.8-12.1,2.3-32.3,9.5-37.1,22.2-18.9-17.3-26.2,14.3-29.9,27.6-11-4.8-8.8-20.7-8.7-30,.1-7.4,4.6-16.1-6.1-16.7-8-.4-15.8,2.8-23,5.9a96.348,96.348,0,0,0-25.7,16l-7.6-5.9c12.4-7,18.9-20.3,26.2-32.5,2.3-3.9,5.4-8.2,7.1-12.4,1.2-2.9,2-8.8,3.3-11.4,2-4.1,21.7-5.2,26.9-6.2C621.31,120.852,637.81,119.252,649.01,129.952Z" fill="#34558b" fill-rule="evenodd"/><g id="Ink"><path id="ink-layer" d="M645.905,220.3c5.1-.3,10.2.9,15.2.4-4.4-3.8-8.8-7.7-13.3-11.5-1.9,3.4-2,7.3-1.9,11.1Zm-120.7-79.1c-13.2.1-29.2,6.7-38.4,16.3-4.8,5.1-8.9,12-13,17.7a77.169,77.169,0,0,1-8.8,11c-4.9,4.9-3.5,6.1,2,9.8,1.7-3.3,10.9-20.6,14.8-19.9,5.9,1.2-5.5,19.6-6.7,21.8-3.7,6.8-9.6,16.2-6.9,23.4,3.5,9.4-1.6,14.8-6,22.8,4.6.1,5.1-1.7,6.7-5.6,2.1-5.1,4.3-9.3,8.6-12.8,3.4-2.7,8.9-3.9,10.4-7.1,2-4.1.7-12.1.9-16.6.2-6.9.3-23.1,7.8-26.1,7.9-3.2,22.2-.2,29.9,2.2-1-6-4-10-4-16.7.2-7,2.1-13.3,2.7-20.2Zm-101.2,112.2c6.9-2.2,13.4-4.5,20.5-6,7.4-1.6,7.9-3.3,12.1-9.7,3.2-4.8,7-8.6,6.1-14.5-.6-3.8-2.6-5.6-2-9.9a46.275,46.275,0,0,1,2.5-8c1.1-3.1,3.4-6.6-1.9-6.7-2.9-.1-3,1.4-5,4-3.6,4.8-7.8,9.1-11.7,13.6-6.7,7.9-13.8,16.3-21.3,23.7a112.239,112.239,0,0,0-20.7,28.1c-1,1.9-7,13.1-4.4,15.3,2.3,2,15.4-2.7,17.8-3.2,10.3-2.4,21.9-3.2,31.6-7.6,4.9-2.2,15.8-4.8,19.7-8.2,3.6-3.2,3.5-10.8,1.4-15.3-5.9,3.7-48.5,17.5-44.7,4.4Zm128.2-63a87.509,87.509,0,0,1,23.5-14.9c7.6-3.3,17-7,25.5-6.4,10.5.7,6.1,9.2,6.1,16.4,0,9.6-4.2,23.4,7.2,28.3,3.7-13.3,11.6-44.6,30.5-27.2,4.8-12.8,22-17.1,34.1-19.4-2.2-6.4-8.9-12.3-13.5-17.1-5.8-6-10.3-13.1-16.1-19.1-11.4-11.7-32.1-8-46.6-5-4.8,1-18.8,2.2-21.2,5.7-1.5,2.2-.6,7.7-1.7,10.4-1.5,3.7-4.1,7.2-6.1,10.7-7.5,12.6-15.1,25.3-28,32.6Zm41.9,68.1c-6.8,2.6-11.8,7-17.8,10.6-7.3,4.4-15.9,8.6-22.4,14.1-2.4,2-3.7,5.5-7.1,5.7-2.9.2-7.3-3.1-9.8-4.3-4.3-2-8.4-4.9-12.7-6.7-3.5-1.4-5.1-1.1-8.2-3.9-1.7,10.2-32.9.7-39.5.5-6.1-.1-14.4.6-20,3-5.4,2.3-9.6,7.4-14.2,10.9-6.3,4.8-12.3,9.6-17,16.2-6.4,9.1,3.2,6.5,9.6,5.9,14.6-1.2,28.8,2.2,42.9,5.6a256.57,256.57,0,0,1,37.1,11.5c6.8,2.7,13.9,5.3,20.3,8.8,3.4,1.9,8.8,6.5,12.7,5.1,3.5-1.2,7.1-11.4,9.2-15.4,4.2-7.9,8.5-15.6,12.9-23.4,8.4-14.6,16.4-29.2,24-44.2Zm-83.5,194.7c4.2-2.4,11-1.8,15.6-2.8a107.175,107.175,0,0,0,15.5-4.9,156.858,156.858,0,0,0,14.4-6.4c2.1-1.1,4.9-2.2,6.9-3.8,1.6-1.3,2.1-3.6,3.6-4.7,3.8-3,4.9-1.1,5.4-6.8.5-6.2-2.9-9.7-7.3-14.4a62.281,62.281,0,0,0-13.8-10.7c-2.2-1.3-4.5-2.7-6.7-4-3.3-1.9-7.8-5-9.5-1,3.6.9,4.4,5.6,1.2,7.2-1.8.9-4.5-.4-6.6.5-3.1,1.5-6.2,5.7-8.9,8-8.8,7.4-17.3,10.2-28.8,10.8-24.1,1.2-49.4-1.5-73.1-5.1-6.1-.9-12.2.1-18.3-.1-6-.2-12.2-1.5-18.1-2.5-11.3-1.9-23.3-3.5-34.4-6.4a241.89,241.89,0,0,1-39.7-13.7c-12.1-5.6-25.9-14.8-39.5-15.5,5.8,5.7,14.5,7.9,21.6,11.7,5.7,3.1,14.7,5,18.3,10.1,2.4,3.3,3.5,9.3,5.3,13.2,2,4.3,3.8,8.6,5.6,12.9,1.8,4.4,3.7,8.7,5.2,13.2.9,2.8,1.3,8.6,3.5,10.5,3.5,3,15.1,4.4,19.7,5.4,8.7,1.9,18.7,1.6,27.6,1.8,3.7.1,7.4.6,10.9.6,4.9.1,4.5-.8,4.4-5,0-2.6,0-7.2,3.4-5.1,2.3,1.4.7,7.8.3,10.1a457.585,457.585,0,0,0,59.6,2.3c19.2-.7,37.7-3.2,56.7-5.4Zm88.6-45.1c3.5-24.9,7.7-50.2,12.4-74.7,4.8-24.8,10.5-49.4,17-74.1-4.3-1-8.5-2-12.8-3.1-.2,5.2-1.9,9.7-2.7,14.9-1,7.2-3,14.1-4.2,21.2-2.3,13.6-6.4,26.8-10.1,40-3.7,13.5-5,27.4-8.4,40.9-2.8,11.2-4.3,23.4-5.9,34.9-3.8,27.8-9.3,55.7-13.5,83.5-3.9,26.1-4.3,52.7-4.1,79.1.1,16.1,2.6,32.1,2.5,48.2,0,4,.3,8,.5,11.9.1,2.8-1.4,10.6-.1,12.9.8,1.5,4.3,2.9,5.5,4.9,1.9,3.3,2.4,7.2,5.5,9.6,2.5-10.2,1.3-23.7.8-34.1-.5-10,.5-20.4.7-30.6.4-20,1.5-39.7,2.5-59.7,1.1-22,4.3-44.4,7.4-66.2,2.9-19.6,4.8-39.7,7-59.5Zm-92.7-311.8c-1.4-.1-2.7-.3-4.1-.4.2,2.9-.4,7.6,1.6,9.1,1.5,1.1,4.7.8,6.5,1.1,6.1,1.2,13.3,2.2,19.4,0,2.4-.8.8-2.2,4.1-1.6,3.9.7,2.5,1.3,3.6,3.7.9,1.9,1.3,5.1,2.3,7.4,1.3,3,4,8.5,2.9,12-1.1,3.4-5.3,4.4-7.1,8.3-1.3,2.9-1,7-1.7,10.2-.9,4.2-2.1,8.4-2.6,12.7-.6,5.4-.4,11.8,6.3,12.6,6.2.8,10.7-1.2,14.9-5.8,8-8.7,17.1-20.9,21.8-31.8.5-1.3,1.9-3.4,1.7-4.8-.4-2.7-.5,0-1.4-1.8-.8-1.8-2.1-3.4-2.8-5.4a104.914,104.914,0,0,1-5.7-22.2,58.782,58.782,0,0,1-.6-10.3c0-1.2.7-4.7.3-5.5s-2.7-1.2-3.4-2c-1.3-1.5-3.5-5.8-5-6.9-1.8-1.4-5.7-.3-6.4-3-1.1-4.4,26-11.6,13.3-17.5-9.5-4.4-24,17.8-27.3.3-.6-3,.5-7.1-.8-9.9-1.5-3.1-5.5-4.2-8.2-5.7-3.6-1.9-7.2-3.9-10.6-5.9-2.4-1.4-5.8-5.2-8.3-5.6,1,5.1-.9,10.2-.9,15.4,5.5-1.5,9.2-1.5,14.6,1.1,2.6,1.3,12.3,8.4,7.3,11.8a63.5,63.5,0,0,0-12.7-5.8,22.249,22.249,0,0,0-5.8-1.3c-4.3-.1-3.7.4-5.3,3.6-1.6,3.1-1.2,11.3-4.7,13.3-3.5,2.1-.8-.8-3.8-.2-1.7.4-3.6,1.7-5.2,2.4,2.2,2.4,6.5,4.5,8,7.1,2.1,3.8,1.4,11.7,1.7,15.8,2.7-1,5.6-1,8.4-1.8,2.6-.7,6.2-3.7,6.5.7.4,5.3-7.3,6.6-10.8,6.6Zm35.7,128.1c.2-4.2.4-8.4.9-12.6.3-2.8,3-11,1.5-13.4-1.6-2.7-7.1-2.9-9.8-3.5-5.1-1.2-9.9-2.3-15.1-3.1a108.591,108.591,0,0,0-14-1.1c-5.2-.2-6.5-1.6-7.6,4.1-.9,4.5-2.1,9.2-2.3,13.8-.2,4.3,1.2,8.1-3.1,11,9.4,0,21.7-8.4,30.3-.9,12.3,10.7-9.1,13.8-14.8,16.2,4.7,2.3,11.7,4.1,13.9,9.3,2.5,5.8-1.1,8.3-6.6,8.8.5,2.3,2.5,3.7,3.1,6.4.9,4-1.9,2.7,1.6,5.7,4.7,4,14.4,6.7,20.2,9.3,1.4.6,2.7,1.2,4.1,1.7,2.2,1.9,3.8,1.6,4.8-1.1,3-1.9,5.6-6.1,8.2-8.5a102.694,102.694,0,0,1,19.3-14.1c-2.9-1.2-6.3,1.5-9.1.2-2.2-1.1-1.4-3-2.7-4.4.5-1.9,0-2.6-1.7-2.1a4.494,4.494,0,0,1-2.3-.4c-1.4-1.7-2-2.3-2.1-5-.1-2.8,1.5-3.8,2.2-6.1,2.1-1.4,2-2.8-.1-4.1a8.632,8.632,0,0,1-1.4-4.7c-.4-6.3,5.3-8.8,9.7-12.1-7.8-.9-7.5-10-2.1-14,5.6-4.2,17.5-2.5,24.2-1.5,1.4.2,5.2,2,6.6.9.9-.7.3-6.7.3-7.8.1-2.4.7-5.3.3-7.7-.8-5,.9-2.5-2.7-2.6-8.6-.3-19.5,7.2-27.1,10.7-8.5,4-13.9,4.6-14,14.4-.1,9.3-2.7,18.5-3.8,27.7-.5,4-.9,24.7-8.2,17.1-2.8-3-1-7.5-.8-11.2.2-5.1.1-10.3.2-15.3Zm-472.4,310.9c4.2.7,11-1.7,15.5-1.9a148.43,148.43,0,0,0,24-2.9c6.1-1.3,13.1-2.4,16.4-8.4,2.9-5.3,4-11.9,5.6-17.7.8-3.1,3-7.5,3-10.7,0-4.1-.6-3.3-4.9-5.6-5.4-2.9-10.7-6.8-16.6-8.4-1.8-.3-3.6-.7-5.3-1-2.3-1.3-3.6-.7-3.9,2-2.2,2.4-3.6,6.7-5.4,9.5a43.683,43.683,0,0,1-16,14.2,217.724,217.724,0,0,1-36,15.9c-7.1,2.4-13.6,5.7-20.5,8.3-5.5,2.1-13.2,2.7-17.4,7.4-4.8,5.2,2.6,7.1,6.7,10.7,3.4,2.9,3.4,3.6,8,2.2,3.4-1,6.5-3.1,9.7-4.4,11.3-4.8,24.9-7.9,37.1-9.2Zm257.5,83-12.6-2.7c4.1,7.7,12.8,19,6.6,27.9-2.3,3.3-6.2,4.3-9.7,6a130.476,130.476,0,0,0-12,7.1c-16.3,10.1-32.9,20.3-50.1,28.9,5.4,1.7,13.7,2.9,19.2,1.4,6.5-1.8,12.4-5.8,19.1-7.6a288.219,288.219,0,0,1,36.5-7.5c9.9-1.3,34.6,1.7,33.4-13.2-1.1-14.1-9.6-27.6-12.1-41.5-6.2,1.3-12,1.1-18.3,1.2Zm250.2-225.9c4.8-23.5,7.6-47.4,13.3-70.7,2.8-11.6,4.8-23.4,7.6-35.1,1.3-5.4,2.2-10.9,3.5-16.3,1.3-5.5,4-10.5,4.6-16.2-4.6,1.1-5.6,11.6-7,15.5a202.788,202.788,0,0,1-8.6,21.1c-5.2,11-10.7,21.6-16.6,32.3a270.272,270.272,0,0,1-20.4,32.3c-2.5,3.4-6,6-7.6,9.7-2.6,5.8-3.7,12.8-6.1,18.8,1.7.9,6.2,1.1,8.3,1.5a41.214,41.214,0,0,1,10.5,3.3c6.7,3.3,12.3,7.2,16.7,13.2,1.1-2.8,1.4-6.1,1.8-9.4Zm-186,179.2c-.1-22.6-.4-45.4,0-67.9a152.072,152.072,0,0,1,1.5-19.1c.6-3.9,3.9-12.2,1.7-14-1.9-1.6-11.8-.5-14.2-.6-4.7-.1-9.4-.3-14.1-.7,0,8.4,3.3,17.9,4.8,26.2,1.4,7.7,2.6,15.5,3.8,23.3,2.5,16.8,3.3,33.9,6,50.8,2.5,15.3,5.8,30.5,7.6,45.8,1,8.4,3,16.3,4.6,24.7.8,4.4,3.8,22.4,7.5,24.2.8-6.5-2.4-14.3-3-20.8-.6-6.7-1.1-13.5-2.2-20.3-1.3-8-1.9-16.1-2.4-24.2-.3-4.9-.4-9.9-.8-14.8-.4-3.6-1.7-9.1-.8-12.6Zm117.9-302.4c.2-2.5-6.2-2.4-7.4-5.2-2.4-5.7,3.1-4.7,6.5-5.3-1.2-3.2-23.7-2-18.5-10.7,3.6-6,17.5,3.2,21.1-2.5,2.4-3.7-4.2-4.3-6.8-4.6-3.9-.6-13.2,1.3-12.9-3.9.4-6.4,18.4-10.9,23.5-12.7-.6-4.4-22.3,1.9-25.4,3.6-7.1,4-12.6,11.3-13.6,19.3-1.2,9.4,3.5,16.7,12.9,19,3.9,1,6.8,1.1,10.4,2.5,2.4.9,10.1,3.3,11.7.9-.5-.1-1-.3-1.5-.4Zm127.5-58.3c.4-4,3.7-11.5-.2-14.2-5.4-3.7-7.7,2.4-8.9,6-1.5,4.4-7.8,15.3-2.3,18.1,1.3.6,7.4-.1,8.5-.5,3,.8,4-.3,2.9-3.4Zm-132.5,323c-.3-10.9,4.6-24.1,7.3-34.8,3.1-12.1,4.8-24.5,8.1-36.5a105.964,105.964,0,0,0-11.1,1.6c-5,1-5.1.9-4.7,5.8.5,7.4-.2,14.6-.5,21.9-.8,14.7,1.1,29.7-.1,44.3,1.1.2,1.4-.5,1-2.3Zm138.3-286.5a121.937,121.937,0,0,1,34.4,10.8c6,2.8,12.6,5.8,19.4,7,7.5,1.3,15.4.7,23,1.1,2.7.2,9.8,1.5,12.4-.1s2.4-4.2,2.5-7.4c.3-8.1-3.4-16.1-6.7-23.4-2.8-6.3-5-11.1-9.4-16.4-5.7-6.9-10.6-14.4-15.9-21.6-4-5.4-8-10.8-12.1-16.3-2.9-3.9-2.8-5.2-7.2-4.8-4.3.4-8.7,3-12.8,4.3-6.1,2-13.4,3.1-18.9,6.3-3.6,2.1-3.7,2.5-3.7,6.1a17.626,17.626,0,0,0,3.2,10.2c4.2,5.5,11.2,8.4,17.2,11.1a54.494,54.494,0,0,1,9.5,6c3.3,2.4,10,3.7,12.6,6.4,7.4,7.8-6.1,6.3-9.8,6-8.1-.5-16.2-.4-24.4-.4-8.9,0-17.8-.4-26.6-.1a17.936,17.936,0,0,1-14.4-6.8c-1.6-2.1-2.2-4.1-4.4-6.3-2.8-2.9-5.2-5.9-8.6-8.1-5.5-3.6-15.5-5.7-22.1-4.3,2.4.3,13.4,4.1,8.5,8.8-.6.6-7.7,1-9.2,1.7-2.8,1.3-6.3,3.1-7.9,5.8,4.8-.8,22.4-1.7,13.4,7.4-2.2,2.2-8.6,4.5-3.2,6.9,1.2.5,3.7-.2,5.3.3,2.4.7,4.3,2.7,6.5,3.8,6.3,3,15,4.8,21.6,4.2,9.3-1,18.8.6,27.8,1.8Zm-241.6,275.4c.3,13.1-.2,26.3.1,39.5.3,14.1,2.1,27.9,3,41.8.8,12.5,2.5,24.8,3.8,37.2.8,7.2,1.7,14,2.9,21.1,1.1,6.7,1.3,12.5-6.6,14.3-15.2,3.4-17.6-18.5-20.5-27.7-4.4-13.8-7.2-28.2-9.4-42.5-4-26.6-9.4-52.8-11.5-79.5-1.3-16.5-3.2-32.8-4.2-49.3-.2-3.2.6-8.2-2.2-9.6-1.7-.9-6.4-.9-8.6-1.5-6-1.7-11.5-4.3-17.4-7,4.2,21.7,5.5,43.3,8.6,65.2,1.7,11.6,4.8,23.7,7.6,35.1,2.8,11.9,3.5,24.6,6.7,36.2,1.4,5.1,2.7,7.2.6,12.4-2.6,6.4-.9,8,2.4,14.3,5.9,11.6,10.5,25.4,9.4,38.5-.8,10.7-8.9,16.3-18.9,19.2-12.5,3.6-25.7,3.2-38.3,7.3-11,3.6-22.2,6.2-32.8,10.9-4.3,1.9-8.4,4.2-13.2,4.5-6.6.5-11-3.3-17.2-4.1-3.9-.5-9.5,1.4-11.8-2.7-1.8-3.2.2-10.2,2.5-12.8,6.2-7.3,18.7-13.6,27.1-17.9a214.6,214.6,0,0,0,28-17.5c5.4-3.9,11-7.6,16.4-11.5,3.6-2.6,5-2.6,4.6-6.7-.3-3.3-1.8-6.4-2-9.7-.2-2.6.7-6-.5-7.7-.9-1.2-4.2-2.1-5.5-3-4.8-3.4-5.9-7.6-8.1-12.8-4.9-11.7-10.6-23.1-15.4-34.9-10.2-25.4-16.5-52.1-25-78-8.7-26.5-16.4-54.2-21.2-81.7-6.4,1.9-12.4,10.6-17.5,14.8-6.9,5.8-13.9,11.3-20.7,17.2-11.1,9.7-22.2,19.1-31.4,30.7-4.4,5.6-8,11.6-12,17.5-2.3,3.4-4.4,7.2-6.9,10.5-.4.5-.4,1.6-.8,2-.9,1-2.8-.3-3.4.3-3.8,3.9-3.7,15.1-4.9,20.3-1.6,7.1-3.4,15.4-9,20.3-8.6,7.6-24.5,8.8-35.4,9.2-14,.5-27.6,4.4-40.8,8.6-6.2,2-12.2,4.2-18.4,6.1-3.6,1.1-7.7,3.3-11.5,2.8-4.6-.5-8.2-4.4-11.6-7.3-5.4-4.6-10.4-9.1-10.2-16.7.2-8,4.5-14,11.4-18,13.2-7.7,28-12.6,42.2-17.9a124.084,124.084,0,0,0,15.3-7c7.4-3.9,15.8-7,22.4-12.1,1.9-1.5,9-6.1,9.6-8.5.1-.3-1.7-3.9-1.7-4.5,0-1.5.9-3.1,1.4-4.4,3.4-8,9.1-15.7,13.5-23.2,8-13.8,16-27.7,25.3-40.7,18.5-25.9,39.2-51.3,61.6-73.9,10.9-11,20.4-23.5,31.4-34.4a59.517,59.517,0,0,1,14.4-10.6c6-3.1,12.8-3.7,19.7-4.7,16.7-2.3,30.7,2.6,46.4,7,14.9,4.1,29.7,7.5,44.7,11.8,16.4,4.7,32.6,9.1,49,14.2,8.7,2.7,17.7,4.4,26.5,7,4.2,1.3,20.2,9.1,23.7,6.5-11.1-5.2-22.5-10-34.4-13.1-3.5-.9-5.7.1-5.6-3.9.1-2.2,2.5-5.1,3.4-7,2.1-4.3,4.5-8.5,6.6-12.9-7.5,2.1-27.8,9.5-33.5,1.9-5.9-8-1-23.7,2.7-31.6,9.7-20.5,26.2-37.6,42.3-53,3.5-3.3,11-7.7,12.8-11.9.6-1.3-.7-3.2.6-4.9.8-1,3.8-1.7,5-2.8,4.4-3.9,8-12.2,11-17.3,3.2-5.4,6.1-11.2,10.1-16,6.6-7.9,13.4-16.3,24.1-18.1,5.2-.9,10.8-.4,15.8-2.2,6.1-2.2,11.8-5.6,17.9-7.9-1.5-3.1-2.8-8.1-5.7-8.4-2.8-.3-7,2.1-10.2,2.1a67.339,67.339,0,0,1-13.4-1.7c-5.1-1-6.7-.8-8.6-6.3-1.9-5.8-1.4-12.4-1.4-18.4,0-2.9.6-6.5.3-9.4-.4-4.3-1.2-4.5-4.6-7.2-4.2-3.4-9.4-8-4.3-13.9,2.8-3.2,8.6-.7,11-4.2,2.5-3.5,2.4-12.4,3.2-16.5-7.8,3.8-4.9-10.5-4.9-13.9,0-5-3.4-14,1.5-18.2,2.2-1.9,3.9-.3,6.5-1.4,2.9-1.3,4.8-4.6,7.9-5.9,6.2-2.6,12.5.5,18.9,0,7.3-.6,14.5-1.7,21.8-.5,3.5.6,4.9,1.9,7.9,3.4,2.8,1.4,5.7,1.8,8.8,2.7,2.7.8,5.1,1.2,7,3.6,1.5,1.9.9,5.1,2.3,6.7,1.5,1.6,4.3,1.4,6.1,3.3,1.7,1.8,2.7,4.8,3.5,7.1,1.2,3.1,1.3,4.2,3.4,6.7,1.8,2.1,4.4,3.9,5.9,6.3,3.5,5.7,3.6,14.1,2.5,20.5-.4,2.2-3.6,7.9-3.1,9.8.5,1.8,3.5,1.3,4.8,2.4,1.2,1,2.2,5.3,3.1,5.6,2,.6,4.5-3.4,6-4,2.6-1,3.7-2.1,5.2,1.8,1.1,2.9-.4,6.8-1.2,9.5-1,3.5-2.1,7.7-4.8,10.3-3.1,3.1-5.6,1.4-9.1,3.1-5.2,2.5-3.7,10.3-10,12.6-6.1,2.1-12.8-4.6-17.4-7.7,1,7.5,4.5,14.7,2.8,22.4,14-5.5,27.8-13.2,43-15,7.8-.9,15.6-1.9,22.9,1.3,8.6,3.8,13.8,12.1,19.6,19,10.9,13,22.1,25.6,32.6,39.1,9.6,12.3,17.7,26.6,28.3,38.1,10.7,11.7,18.8,30.7,17.6,46.8-.1,1.5-1.2,4.8-1.1,6.4.1,1.2,1.2,2.7,1.2,3.7-.1,3.3-1.1,5.2-4.3,7-5.4,3.2-13.5,4.7-19.6,5.5a104.419,104.419,0,0,1-26.2,0c-8.4-1.1-15.8-5.8-23.5-8.7a162.02,162.02,0,0,0-20.7-5.6c-3.9-.9-8.3-3.3-10.7-1-2.2,2.2-2.7,13.2-3.2,16.2-5.6,31.9-12.3,62.7-18.2,94.5-6.7,36-11.3,71.9-16,108.2-4.2,33-5.6,66.3-6.6,99.3-.5,15.7-.5,31.3-.4,47,.1,8.8,4.5,38.2-8.6,39.3-7.7.7-13.8-10.3-15.9-16.3a104.023,104.023,0,0,1-5.2-28.2c-1-19.2-2.3-38.4-3.1-57.5-.8-20.8.2-41.9,1.9-62.6,1.7-20.8,6.1-41.4,7.4-62.3-4,5.7-5.3,6.8-11.9,9.2-6.9,2.6-13.6,5.7-20.6,8.1-2.4.8-6.1,1.3-8.1,2.7-3.6,2.5-1.2-.3-2.4,4.5-1.2,5.2-1.5,11.4-1.8,16.7-1.5,24.9-8.4,49.6-11.6,74.4-.8,6,.3,31.4-10,23.4-7.9-6.2-7.8-25.5-8.9-34.6-1.5-12.1-.7-24.5-.4-36.7.3-13.9.5-28.4,3.8-41.9-5.9-1-14.1,1.7-20.1,2.2-5.2.4-10.3.7-15.4.9-12.2.7-24.8,1.2-37.2,1-2.3,0-17-2.1-18.9-.4-.6.5-.8,8-.9,8.9-.4,3.4-1,6.8-1.5,10.3-.6,10.7-1.9,22.4-1.5,33.2Z" fill-rule="evenodd"/><path id="ink-layer-2" data-name="ink-layer" d="M620.605,626.295c9.3,3.6,19.2,5,28.6,8.3,8.4,3,16.2,7,24.5,10,.5-3.8.7-10.3-.7-14-2-5.1-7.3-5.3-12.5-7.1-12.7-4.4-26-5.4-38.6-10.6,2.3,4.2,1.3,9.7-1.3,13.4m161-13.4c-20.1.6-39.4,5.3-59.2,8.2-9.7,1.4-19.3,2.7-29,4-3.7.5-10.5-.1-13.2,3.1-2.2,2.7.2,11.8-.8,15.7,4.1.3,11.3-3.5,15.7-4.1,6.9-1,13.7-2.3,20.6-2.8,11-.7,21.8-1.3,32.8-2.5,11.2-1.2,22-3.6,33.3-4.4,5.5-.4,7.7.6,8-5.2.1-2.3.4-6-.2-8.3,1-2.7.1-4.1-2.7-4a15.936,15.936,0,0,0-5.3.3m-38.9-18.5c5.4-.5,10.9-1.2,16.4-1.6,1.1-.1,6.7.3,7.6-.8,1.3-1.5-.1-6.8-.4-8.4-.8-5.6-1.7-8.9-7.8-8.9-5.2,0-10.5,1.1-15.6,1.6-23.3,2.3-46.5,3.3-69.6,7.6,1.4,6,3,12.2,1.3,18.3,11.1.6,23.2-1.6,34-3.7a276.045,276.045,0,0,1,34.1-4.1m-37-56.3c-8.3,0-17.1,3.7-25.4,2.9-.1,1.5,2.5.3,3.2,1.7,1.6,0,2.1.5,1.6,1.5a1.073,1.073,0,0,1-1.1,1.2c-.4,0-.7.1-1.1.1-1.6.1-1.9,1.1-.8,3.2-.5,2.6.2,5.9.3,8.5,14.8-2,29.1-4.1,44-5,7-.4,14.1-.4,21.1-1,7.7-.6,16.2.7,23.7-.7,4-.8,3.6-.7,3.3-6-.2-3.2-.1-7-2.7-9.3-4.3-3.9-14.2-1.6-19.4-1.5a370.44,370.44,0,0,0-46.7,4.4m8.6,75c22.3-2,44.5-6.5,67-6.5-1.6-1.6-5-2-7-2.9-2.3-1-4.4-3.1-6.6-3.9-4.4-1.7-8.9.7-13.5,1.7-10.9,2.5-22.2,2.6-33.1,5.1a330.219,330.219,0,0,1-34.4,6.2c-5.5.6-11.4,1.9-16.8.4-.4-.3-.9-.6-1.3-.9-.5-2-1.8-2.6-4-1.6-2.7-.5-6.2.2-9,.2-.1,1.1,10.1,4.6,12,5.4,4.7,2.1,7.9,3.6,12.9,2.7,11.3-2.1,22.4-4.5,33.8-5.9m-78.6-65.3c.9,3.4,4.5,1.9,7.7,2.2,4.2.5,8.4,2,12.6,3.1,7.4,2,14.9,4,22.3,6.1-.3-3,.4-9.8-1.2-12.5-1.7-2.8-9.5-4-13.2-4.9-9.2-2.1-19.1-.9-28.5-.5.1,2.2.2,4.3.3,6.5m88.8,21.3c8.8-.7,17.6-1.3,26.3-1.6,10.1-.4,2.7-2,2.5-8.1-13.2,2.1-26.6,2.5-39.7,4.3-10.9,1.5-23.9,5.4-35.1,3.3-5.3-1-10.6-1.4-16.2-1.9-5.3-.5-10.2-3-15.5-3.6-5.8-.7-11.8,2.6-17.6,3.5-2.5.4-3,2-4.2-.9-1.2-3.1,2.2-5.6,3.6-7.4,1.6-2.1.9,1.3,1.8-2,.2-.9-.4-3.3-.5-4.3-.3-2.6-1.1-5.3-1.2-7.9-.1-2.3-.1-5.9,2.4-7.3,1.6-.8,2.7.4,4,.1a106.426,106.426,0,0,1,33.8-.2c11.6,1.9,21.7-3.2,33.1-5.2,13.5-2.4,27.1-2.8,40.6-3.8,11.6-.9,32.8-5.4,37.2,9.4,1.3,4.2,3.1,15.8-.3,19.3-4.4,4.7-14.7,3.2-20.4,4.4.9,2.4,3.4,4.1,2.5,7,8,.4,9.4,7.9,10.7,15,1.3,7.3-1.2,10.2,5.7,14,9.7,5.3,20,10.7,19.9,23.3-.1,6.3-.8,15.9-7.3,19.2-6.4,3.2-16.8,2.7-23.8,3.8-13.6,2.3-27.3,4.9-41,6.3-14.6,1.4-29.4,2.6-44,3.3-8,.4-14.8,1.6-22.5-1.1-7.6-2.6-14.9-4.6-22.7-6.5-7.7-1.9-31.3-4.5-24.4-17.7,1.1-2.1,4.9-3.8,5.5-5.8,1-3.2-2.3-5.7-2.2-8.6.3-5.3,6.2-6,10.4-6-7.1-4.4,2.4-9.7,2.3-13.5-.1-6.6-8.4-10.9-8.8-16.5-1.1-13.5,41.8.6,48.4,3.5-5.1,7.5-28.7,1-35.7-.1a28.531,28.531,0,0,1,2.2,7.4c.2,2.1-.6,4.5.2,6.6,1.2,3.3,1.1,2.7,5.2,3.6,3,.7,6,1.5,9.1,2.2,4.7,1.1,12,4,16.6,3.9,4-.1,3.2,1.1,4-3.4.4-2.4-.3-5-.7-7.3-.8-5-2.1-9.6,2.2-13.2,4.1-3.4,12.8-5,17.9-6.2,11.2-2.8,24.2-3.5,35.7-3.3" fill-rule="evenodd"/><path id="ink-layer-3" data-name="ink-layer" d="M778.005,484.5a175.4,175.4,0,0,0-36.9-1.9c.7,3.1,1.3,6.1,2,9.2,11.5-3,23.2-4.8,34.9-7.3Zm-99.2,23.7c-4.9-.4-1.5,1.8-.3,5,1.5,3.9,1.2,8.9,1.5,13,14.3-5.5,31-8.7,46.2-10.5,7.2-.9,14.5-1.1,21.8-1.5,2.1-.1,9.9.8,11.5-.7,1.2-1.1.3-7-.8-8.3-6.1-7.1-29.6-1-38.1-.3-14.1,1.1-27.8,3.6-41.8,3.3Zm20.3-19c12.7,1.2,24.9,1.1,37.6,3-1-8.1.2-10.1-9-10.5-8.1-.4-16.3-.7-24.4-.7-18.2,0-36.4-.3-54.7-.3v8.2c17-1.8,33.6,1.3,50.5.3Zm-60.9,30.1c8,0,15.6,3,23.6,3.8,4.8.5,3.3,1.1,6.6,3.5,5.2,3.7,6.7,1.7,6-3.3-2.2-17.2-24-13.4-36.5-14.3.8,4.1-1.1,7.6-3.9,10.4h4.2Zm86.4-22.1c-11.5.2-23,.8-34.4.6-5.1-.1-11.7-1.1-16.7-.2-3.7.6-6.7,2.5-10.8,3.2,5.9,3.2,8.9,1,15.1.3s12.5-.7,18.8-1.1c10.2-.6,21.2-3.1,31.3-2.4.1-1.5-1-1.6-3.3-.4Zm-91.2,37.2c-5.3,0,2-6,2.9-6.6-5.8,0-7.3-3.5-5.6-9.1,1.6-5.3,2.8-3.7-1.2-8.1-3-3.3-3.5-5.8.1-9.5,3.6-3.8,11-2.7,14.2-5.8,5.5-5.3-1.6-15.9,6-20,5.1-2.8,13.4-2.4,19-3a153.61,153.61,0,0,1,16.6-.7c12-.2,24.4,1.8,36.4,3,4.4.4,9.2,2.2,13.5,2.2,4.4,0,9-1,13.5-.9,5.2.1,10.3-.3,15.7.6,4.1.7,13.8,1,17,4.1,10.6,10.3-14.5,15-18.8,16.1,4.4,4.8,4.2,11.2,3.5,17.2,2.1,0,5.7-.9,6.8,1.4,1.3,2.9-3.6,3.7-4.8,4-6.8,2-14.7,1.4-21.6,2.1-13.9,1.4-27.7,2.2-41.5,4.9-6.7,1.3-13.4,2.9-20.1,4.1-1.2.2-2.3.4-3.5.5-1.8-.2-2.4,1-1.7,3.4-1.9.9-8.8-1.4-11-1.7-12.3-1.9-23.2-1.1-35.4,1.8Z" fill-rule="evenodd"/><path id="ink-layer-4" data-name="ink-layer" d="M881.605,653.795c-7.9,6.2-15.3,12.1-23.9,17.5,6.1-.1,26.3-9.8,23.9-17.5m-3.1-10.2c-4.3-3.7-8.6-3.3-14-4.5-4.9-1-9.7-2.8-14.6-4-3.9-.9-7.7-2.2-11.5-3.1-5.4-1.2-6,.1-11,3-17.7,10.1-37.6,17.1-56.2,25.3,5.5,4.8,17.8,5,24.7,6.6a122.719,122.719,0,0,1,14.6,4.4c4.5,1.7,11.6,5.5,16.4,5.6,4,.1,7.2-3.8,10.6-5.9,4.5-2.8,9-5.5,13.5-8.2,9.4-5.7,18.4-12.7,27.5-19.2m-80.1,41c-2-2-8.2-1.9-10.8-2.5-5.1-1.2-10-2.4-15.2-3.3-8.3-1.4-21.4-2.1-22.3-12.9-.8-9,10.1-11.1,16.4-14.1,9.5-4.6,19.2-8.8,29-12.8,9.2-3.8,18.4-7,27.8-10.2,1.8-.6,3.3-.5,4.8-2,1.2-1.1.8-3.4,2.1-4.6,2.9-2.7,6.8-1.3,10.3-.6a145.087,145.087,0,0,1,24,6.7c7.9,3.1,15.1,3.7,17,12.7,4.1-1.9,7.1-2.2,6.6,3.4-.1,1.6-1.3,3.4-1.6,5.1-.4,2.5.3,5.1-.1,7.6-1.5,9.1-13.8,15.9-21.4,19.5-9.4,4.4-21.5,10.9-32,11.8-11.3,1-23.5-3.4-34.6-3.8" fill-rule="evenodd"/><path id="ink-layer-5" data-name="ink-layer" d="M656.105,533.2c-3.3,0-6.7,0-10,.1a30.485,30.485,0,0,1,10-.1" fill-rule="evenodd"/><path id="ink-layer-6" data-name="ink-layer" d="M461.105,180.6c-1,1.7-2,3.3-3,5,.3-2.2,1.1-4,3-5" fill-rule="evenodd"/><path id="ink-layer-7" data-name="ink-layer" d="M656.105,581c2,0,4,0,6,.1-2,0-4,0-6-.1" fill-rule="evenodd"/><path id="ink-layer-8" data-name="ink-layer" d="M702.105,472.3c-2.3-.1-4.7-.3-7-.4,2.3.1,4.6.2,7,.4" fill-rule="evenodd"/><path id="ink-layer-9" data-name="ink-layer" d="M662.105,533.295c-2,0-4,0-6-.1a11.12,11.12,0,0,1,6,.1" fill-rule="evenodd"/><path id="ink-layer-10" data-name="ink-layer" d="M741.705,249.6c-.1-2-.1-4-.2-6,.1,2,.1,4,.2,6" fill-rule="evenodd"/><path id="ink-layer-11" data-name="ink-layer" d="M401.605,551.6c0-1.7-.1-3.3-.1-5,.1,1.6.1,3.3.1,5" fill-rule="evenodd"/><path id="ink-layer-12" data-name="ink-layer" d="M635.105,110.9c-1.7.1-3.3.2-5,.4,1.6-.2,3.3-.3,5-.4" fill-rule="evenodd"/><path id="ink-layer-13" data-name="ink-layer" d="M592.705,599.6c0-1.3-.1-2.7-.1-4,0,1.3,0,2.6.1,4" fill-rule="evenodd"/><path id="ink-layer-14" data-name="ink-layer" d="M594.605,548.6c0-1.3-.1-2.7-.1-4,.1,1.3.1,2.6.1,4" fill-rule="evenodd"/><path id="ink-layer-15" data-name="ink-layer" d="M560.505,571.6c0,1.3.1,2.7.1,4,0-1.4,0-2.7-.1-4" fill-rule="evenodd"/><path id="ink-layer-16" data-name="ink-layer" d="M754.105,521.1c1,0,2-.1,3-.1-1,0-2,.1-3,.1" fill-rule="evenodd"/><path id="ink-layer-17" data-name="ink-layer" d="M562.505,603.6c.1,1.3.1,2.7.2,4-.1-1.4-.1-2.7-.2-4" fill-rule="evenodd"/><path id="ink-layer-18" data-name="ink-layer" d="M669.705,596.6c-.1,1.3-.1,2.7-.2,4,0-1.4.1-2.7.2-4" fill-rule="evenodd"/><path id="ink-layer-19" data-name="ink-layer" d="M554.405.7c-1.4-.2-2.8-.4-4.2-.5,1.4.3,2.9-.9,4.2.5" fill-rule="evenodd"/><path id="ink-layer-20" data-name="ink-layer" d="M493.605,513.6c0,1.3-.1,2.7-.1,4,.1-1.4.1-2.7.1-4" fill-rule="evenodd"/><path id="ink-layer-21" data-name="ink-layer" d="M407.705,635.6c-.1-1.3-.1-2.7-.2-4,0,1.3.1,2.6.2,4" fill-rule="evenodd"/><path id="ink-layer-22" data-name="ink-layer" d="M731.105,523.1c1,0,2,0,3-.1-1,.1-2,.1-3,.1" fill-rule="evenodd"/><path id="ink-layer-23" data-name="ink-layer" d="M619.8,572.6c0,1.3-.1,2.7-.1,4a5.048,5.048,0,0,1,.1-4" fill-rule="evenodd"/><path id="ink-layer-24" data-name="ink-layer" d="M798.105,685c1,0,2,.1,3,.1-1,0-2,0-3-.1" fill-rule="evenodd"/><path id="ink-layer-25" data-name="ink-layer" d="M347.605,567.6c0-1-.1-2-.1-3,.1,1,.1,2,.1,3" fill-rule="evenodd"/><path id="ink-layer-26" data-name="ink-layer" d="M757.105,566.795c-.9.9-2,.4-3,.4,1-.1,2-.3,3-.4" fill-rule="evenodd"/><path id="ink-layer-27" data-name="ink-layer" d="M638.105,534.795a4.346,4.346,0,0,1-4,0h4" fill-rule="evenodd"/><path id="ink-layer-28" data-name="ink-layer" d="M669.105,534.295c-1.3-.1-2.7-.2-4-.4,1.3.1,2.6.2,4,.4" fill-rule="evenodd"/><path id="ink-layer-29" data-name="ink-layer" d="M363.605,529.6c0,1-.1,2-.1,3,.1-1,.1-2,.1-3" fill-rule="evenodd"/><path id="ink-layer-30" data-name="ink-layer" d="M593.505,583.6c.1-1,.1-2,.2-3-.1,1-.1,2-.2,3" fill-rule="evenodd"/><path id="ink-layer-31" data-name="ink-layer" d="M731.105,525.9c-1.3.1-2.7.2-4,.3,1.3-.1,2.6-.2,4-.3" fill-rule="evenodd"/><path id="ink-layer-32" data-name="ink-layer" d="M401.605,522.6c0-1-.1-2-.1-3,.1,1,.1,2,.1,3" fill-rule="evenodd"/><path id="ink-layer-33" data-name="ink-layer" d="M568.705,445.6c-.1,1-.2,2-.2,3,0-1,.1-2,.2-3" fill-rule="evenodd"/><path id="ink-layer-34" data-name="ink-layer" d="M751.105,475.8a4.346,4.346,0,0,1-4,0h4" fill-rule="evenodd"/><path id="ink-layer-35" data-name="ink-layer" d="M592.705,614.6c-.1-1-.1-2-.2-3,0,1,.1,2,.2,3" fill-rule="evenodd"/><path id="ink-layer-36" data-name="ink-layer" d="M592.605,622.6c0-1-.1-2-.1-3,.1,1,.1,2,.1,3" fill-rule="evenodd"/><path id="ink-layer-37" data-name="ink-layer" d="M688.105,650.1a13.4,13.4,0,0,0,2-.1,14.084,14.084,0,0,1-2,.1" fill-rule="evenodd"/><path id="ink-layer-38" data-name="ink-layer" d="M365.705,658.6c-.1-1-.1-2-.2-3,.1,1,.1,2,.2,3" fill-rule="evenodd"/><path id="ink-layer-39" data-name="ink-layer" d="M582.105,667h2a6.7,6.7,0,0,1-2,0" fill-rule="evenodd"/><path id="ink-layer-40" data-name="ink-layer" d="M727.105,475.2c-1.3-.1-2.7-.2-4-.3,1.3.1,2.6.2,4,.3" fill-rule="evenodd"/><path id="ink-layer-41" data-name="ink-layer" d="M734.105,476.3l-3-.4Z" fill-rule="evenodd"/><path id="ink-layer-42" data-name="ink-layer" d="M582.505,581.6c.1-3,.1-6,.2-9-.1,3-.1,6-.2,9" fill-rule="evenodd"/><path id="ink-layer-43" data-name="ink-layer" d="M504.505,471.6c0,2.3.1,4.7.1,7,0-2.4,0-4.7-.1-7" fill-rule="evenodd"/><path id="ink-layer-44" data-name="ink-layer" d="M332.105,618c-1.7,0-3.3,0-5,.1,1.7,0,3.3,0,5-.1" fill-rule="evenodd"/><path id="ink-layer-45" data-name="ink-layer" d="M469.105,419.1c-1.7,0-3.3-.1-5-.1,1.7.1,3.3.1,5,.1" fill-rule="evenodd"/><path id="ink-layer-46" data-name="ink-layer" d="M448.105,418c-1.3,0-2.7,0-4,.1,1.3,0,2.6,0,4-.1" fill-rule="evenodd"/><path id="ink-layer-47" data-name="ink-layer" d="M520.105,107.2c1.7-.1,3.3-.2,5-.3-1.7.1-3.4.2-5,.3" fill-rule="evenodd"/><path id="ink-layer-48" data-name="ink-layer" d="M542.505,224.6c.1-1.7.1-3.3.2-5-.1,1.6-.2,3.3-.2,5" fill-rule="evenodd"/><path id="ink-layer-49" data-name="ink-layer" d="M394.105,455.9c1.3.1,2.7.2,4,.3-1.4-.1-2.7-.2-4-.3" fill-rule="evenodd"/><path id="ink-layer-50" data-name="ink-layer" d="M391.505,506.6c0-1.3,0-2.7.1-4,0,1.3,0,2.6-.1,4" fill-rule="evenodd"/><path id="ink-layer-51" data-name="ink-layer" d="M506.105,453.3c1.3-.1,2.7-.3,4-.4-1.4.1-2.7.2-4,.4" fill-rule="evenodd"/><path id="ink-layer-52" data-name="ink-layer" d="M597.505,429.6c.1-1.3.2-2.7.2-4-.1,1.3-.2,2.6-.2,4" fill-rule="evenodd"/><path id="ink-layer-53" data-name="ink-layer" d="M615.105,245.2c1.3-.1,2.7-.2,4-.3-1.4.1-2.7.2-4,.3" fill-rule="evenodd"/><path id="ink-layer-54" data-name="ink-layer" d="M391.705,581.6c-.1-1-.1-2-.1-3,0,1,0,2,.1,3" fill-rule="evenodd"/><path id="ink-layer-55" data-name="ink-layer" d="M503.805,530.6c2.2,5.4,1,1.6,1,2.8-1.9.3-2.2-.7-1-2.8" fill-rule="evenodd"/><path id="ink-layer-56" data-name="ink-layer" d="M412.105,415.1c-1,0-2-.1-3-.1,1,.1,2,.1,3,.1" fill-rule="evenodd"/><path id="ink-layer-57" data-name="ink-layer" d="M616.505,313.6c.1-1.3.1-2.7.2-4-.1,1.3-.2,2.6-.2,4" fill-rule="evenodd"/><path id="ink-layer-58" data-name="ink-layer" d="M391.505,541.6c.1-1,.1-2,.2-3-.1,1-.2,2-.2,3" fill-rule="evenodd"/><path id="ink-layer-59" data-name="ink-layer" d="M599.405,410.6l.3-3-.3,3" fill-rule="evenodd"/><path id="ink-layer-60" data-name="ink-layer" d="M378.405,544.6l.3,3-.3-3" fill-rule="evenodd"/><path id="ink-layer-61" data-name="ink-layer" d="M376.405,536.6l.3,3-.3-3" fill-rule="evenodd"/><path id="ink-layer-62" data-name="ink-layer" d="M576.505,399.6c.1-1,.1-2,.2-3-.1,1-.2,2-.2,3" fill-rule="evenodd"/><path id="ink-layer-63" data-name="ink-layer" d="M66.105,535.2c1.3-.1,2.7-.2,4-.3-1.4.1-2.7.2-4,.3" fill-rule="evenodd"/><path id="ink-layer-64" data-name="ink-layer" d="M567.605,559.6c0,1-.1,2-.1,3,.1-1,.1-2,.1-3" fill-rule="evenodd"/><path id="ink-layer-65" data-name="ink-layer" d="M583.505,562.6c.1-1,.1-2,.2-3-.1,1-.2,2-.2,3" fill-rule="evenodd"/><path id="ink-layer-66" data-name="ink-layer" d="M577.405,395.6l.3-3-.3,3" fill-rule="evenodd"/><path id="ink-layer-67" data-name="ink-layer" d="M74.105,534.295c1.3-.1,2.7-.3,4-.4-1.4.1-2.7.2-4,.4" fill-rule="evenodd"/><path id="ink-layer-68" data-name="ink-layer" d="M585.705,530.6a2.936,2.936,0,0,1,.2-3c-.1,1-.2,2-.2,3" fill-rule="evenodd"/><path id="ink-layer-69" data-name="ink-layer" d="M568.605,511.6c0,1-.1,2-.1,3,.1-1,.1-2,.1-3" fill-rule="evenodd"/><path id="ink-layer-70" data-name="ink-layer" d="M569.505,610.6c.1,1,.1,2,.2,3-.1-1-.2-2-.2-3" fill-rule="evenodd"/><path id="ink-layer-71" data-name="ink-layer" d="M643.105,246.9c1,.1,2,.3,3,.4-1-.2-2-.3-3-.4" fill-rule="evenodd"/><path id="ink-layer-72" data-name="ink-layer" d="M639.105,246.9c1.3.1,2.8-.6,4,.4Z" fill-rule="evenodd"/><path id="ink-layer-73" data-name="ink-layer" d="M498.105,245.9l4,.3c-1.4-.1-2.7-.2-4-.3" fill-rule="evenodd"/><path id="ink-layer-74" data-name="ink-layer" d="M432.105,457.8h4a4.071,4.071,0,0,1-4,0" fill-rule="evenodd"/><path id="ink-layer-75" data-name="ink-layer" d="M395.705,625.6c-.1-1-.2-2-.2-3,0,1,.1,2,.2,3" fill-rule="evenodd"/><path id="ink-layer-76" data-name="ink-layer" d="M457.105,458.2c1.3-.1,2.7-.2,4-.3-1.4.1-2.7.2-4,.3" fill-rule="evenodd"/><path id="ink-layer-77" data-name="ink-layer" d="M570.505,634.6c0,1,0,2,.1,3,0-1,0-2-.1-3" fill-rule="evenodd"/><path id="ink-layer-78" data-name="ink-layer" d="M574.105,222.3c1.3-.1,2.7-.3,4-.4-1.4.1-2.7.2-4,.4" fill-rule="evenodd"/><path id="ink-layer-79" data-name="ink-layer" d="M591.405,477.6l.3-3-.3,3" fill-rule="evenodd"/><path id="ink-layer-80" data-name="ink-layer" d="M637.505,210.6c.1-1,.2-2,.2-3-.1,1-.2,2-.2,3" fill-rule="evenodd"/><path id="ink-layer-81" data-name="ink-layer" d="M542.505,124.6c0,1,0,2,.1,3,0-1,0-2-.1-3" fill-rule="evenodd"/><path id="ink-layer-82" data-name="ink-layer" d="M507.105,105.9c1.3.1,2.7.2,4,.3-1.4-.1-2.7-.2-4-.3" fill-rule="evenodd"/><path id="ink-layer-83" data-name="ink-layer" d="M307.105,674.3c1.3-.1,2.7-.3,4-.4-1.4.1-2.7.2-4,.4" fill-rule="evenodd"/><path id="ink-layer-84" data-name="ink-layer" d="M263.105,687.3a4.669,4.669,0,0,1,4,0h-4" fill-rule="evenodd"/><path id="ink-layer-85" data-name="ink-layer" d="M782.105,629.2c2.3-.1,4.7-.2,7-.4-2.4.2-4.7.3-7,.4" fill-rule="evenodd"/><path id="ink-layer-86" data-name="ink-layer" d="M782.105,612c-1.3,0-2.7.1-4,.1,1.3,0,2.6,0,4-.1" fill-rule="evenodd"/><path id="ink-layer-87" data-name="ink-layer" d="M762.105,592.2c1.7-.1,3.3-.3,5-.4-1.6,1-3.4.3-5,.4" fill-rule="evenodd"/><path id="ink-layer-88" data-name="ink-layer" d="M743.105,594.295c1.7-.1,3.3-.2,5-.4-1.7.1-3.4.2-5,.4" fill-rule="evenodd"/><path id="ink-layer-89" data-name="ink-layer" d="M715.105,612.2c1.3-.1,2.7-.2,4-.3-1.4.1-2.7.2-4,.3" fill-rule="evenodd"/><path id="ink-layer-90" data-name="ink-layer" d="M722.105,612.2c1.3-.1,2.7-.2,4-.3-1.4.1-2.7.2-4,.3" fill-rule="evenodd"/><path id="ink-layer-91" data-name="ink-layer" d="M727.105,611.2c1.3-.1,2.7-.2,4-.4-1.4.2-2.7.3-4,.4" fill-rule="evenodd"/><path id="ink-layer-92" data-name="ink-layer" d="M759.105,632.2c1.3-.1,2.7-.2,4-.3-1.3.8-2.7.3-4,.3" fill-rule="evenodd"/><path id="ink-layer-93" data-name="ink-layer" d="M721.105,552.295c1.3-.1,2.7-.3,4-.4-1.4.1-2.7.2-4,.4" fill-rule="evenodd"/><path id="ink-layer-94" data-name="ink-layer" d="M682.105,540.9c-.3.8-2.1.7-2-.1a14.084,14.084,0,0,1,2,.1" fill-rule="evenodd"/><path id="ink-layer-95" data-name="ink-layer" d="M635.505,544.6c0,1,.1,2,.1,3,0-1,0-2-.1-3" fill-rule="evenodd"/><path id="ink-layer-96" data-name="ink-layer" d="M772.105,549.9c1,0,2,0,3-.1a2.729,2.729,0,0,1-3,.1" fill-rule="evenodd"/><path id="ink-layer-97" data-name="ink-layer" d="M708.105,598.295c1.3-.1,2.7-.2,4-.4-1.4.1-2.7.2-4,.4" fill-rule="evenodd"/><path id="ink-layer-98" data-name="ink-layer" d="M692.105,600.2l4-.3Z" fill-rule="evenodd"/><path id="ink-layer-99" data-name="ink-layer" d="M770.105,630.295c1.3-.1,2.7-.3,4-.4-1.4.1-2.7.2-4,.4" fill-rule="evenodd"/><path id="ink-layer-100" data-name="ink-layer" d="M722.105,636.295a4.669,4.669,0,0,1,4,0h-4" fill-rule="evenodd"/><path id="ink-layer-101" data-name="ink-layer" d="M720.005,498.4l-1.9-.6c2.3,0,4.7-.1,7-.1,0,0-4.9.8-5.1.7" fill-rule="evenodd"/><path id="ink-layer-102" data-name="ink-layer" d="M639.105,519.295a7.169,7.169,0,0,1,5,0h-5" fill-rule="evenodd"/><path id="ink-layer-103" data-name="ink-layer" d="M719.105,489.9c1.7.1,3.3.2,5,.3-1.7-.1-3.4-.2-5-.3" fill-rule="evenodd"/><path id="ink-layer-104" data-name="ink-layer" d="M698.105,500.2c1.7-.1,3.3-.2,5-.4-1.7.2-3.4.3-5,.4" fill-rule="evenodd"/><path id="ink-layer-105" data-name="ink-layer" d="M711.105,498.2c1.3-.1,2.7-.2,4-.3-1.4.1-2.7.2-4,.3" fill-rule="evenodd"/><path id="ink-layer-106" data-name="ink-layer" d="M700.105,488.9c1.3.1,2.7.2,4,.3-1.4-.1-2.7-.2-4-.3" fill-rule="evenodd"/><path id="ink-layer-107" data-name="ink-layer" d="M702.105,498.1c-.7,0-1.3-.1-2-.1.7,0,1.3.1,2,.1" fill-rule="evenodd"/><path id="ink-layer-108" data-name="ink-layer" d="M689.105,498.1a13.4,13.4,0,0,1-2-.1,13.4,13.4,0,0,0,2,.1" fill-rule="evenodd"/><path id="ink-layer-109" data-name="ink-layer" d="M725.105,497.2c0,.3,3-1.1,3,.2Z" fill-rule="evenodd"/><path id="ink-layer-110" data-name="ink-layer" d="M359.105,433.6c1.1-4.4.8-7.9,4.6-5.1,2.1,1.6,5.6,9.4,5.3,12.1-.3,3.3-1.8,4.6-4.9,3.5-3.5-1.1-4.9-7.1-5-10.5" fill-rule="evenodd"/><path id="ink-layer-111" data-name="ink-layer" d="M553.905,406.8c9,0,5,9.5-2.4,9.7-3.4.1-8.4-.6-7.3-5.2.6-2.4,9.3-5.7,9.7-4.5" fill-rule="evenodd"/><path id="ink-layer-112" data-name="ink-layer" d="M457.905,425.6c6.5,3.1-2.6,16.9-8.5,13.5-7.6-4.4,5.8-11.6,8.5-13.5" fill-rule="evenodd"/><path id="ink-layer-113" data-name="ink-layer" d="M442.105,438.6c2.1,2.3,11.7,10.1,6.4,13.3-6.4,3.8-11.4-9-6.4-13.3" fill-rule="evenodd"/><path id="ink-layer-114" data-name="ink-layer" d="M333.805,432.6c-2.1-4.1.8-14.7,7.2-12.8,6.4,2-3.7,11.7-7.2,12.8" fill-rule="evenodd"/><path id="ink-layer-115" data-name="ink-layer" d="M476.405,434.9c4.2-1.7,3.4,3.3,4,4.9.7,1.8,4.4,6.3,3.5,8.2-1.4,2.9-4.7,1-6.4-.8-3.1-3.3-2.9-8.5-1.1-12.3" fill-rule="evenodd"/><path id="ink-layer-116" data-name="ink-layer" d="M412.505,439.5c-3.5,0-11.8-10.1-6.9-11.8,6.1-2,11.2,12.6,6.9,11.8" fill-rule="evenodd"/><path id="ink-layer-117" data-name="ink-layer" d="M533.3,423.6c3.2.8,7.4,9.9,2.6,10.9-5.3,1.1-6.3-8.4-2.6-10.9" fill-rule="evenodd"/><path id="ink-layer-118" data-name="ink-layer" d="M513.905,440.6c-2.5-4.8-3.1-15.2,3-6.9,1.3,1.8,2.7,1.1,2,4-.6,2.6-3,2.9-5,2.9" fill-rule="evenodd"/><path id="ink-layer-119" data-name="ink-layer" d="M381.705,415.6c2.6,3.9,1.8,15.9-3.5,8.8-2.4-3.1-.8-8.7,3.5-8.8" fill-rule="evenodd"/><path id="ink-layer-120" data-name="ink-layer" d="M510.305,52.7c5-1.3,6.2,10.4,3.3,11.7-4.1,1.8-3.6-9.8-3.3-11.7" fill-rule="evenodd"/><path id="ink-layer-121" data-name="ink-layer" d="M824.205,647.2c-4.6-.3-11.1-1.5-4.1-4.8,4.4-2.1,11-2.2,15.7-1.4,3.2.6,8.1,3.3,3.1,6.7-2.8,2.1-11.2-.4-14.7-.5" fill-rule="evenodd"/><path id="ink-layer-122" data-name="ink-layer" d="M819.105,655.6c-1.3-.2-2.7-.3-4-.4,1-2,4.2-2.4,4,.4" fill-rule="evenodd"/><path id="ink-layer-123" data-name="ink-layer" d="M825.105,647c1.3,0,2.7.1,4,.1-1.4,0-2.7,0-4-.1" fill-rule="evenodd"/></g></g></svg>