<?xml version="1.0" encoding="utf-8"?>
<!-- Generator: Adobe Illustrator 21.0.0, SVG Export Plug-In . SVG Version: 6.00 Build 0)  -->
<svg version="1.1" id="Layer_2" xmlns="http://www.w3.org/2000/svg" xmlns:xlink="http://www.w3.org/1999/xlink" x="0px" y="0px" viewBox="0 0 800 800" style="enable-background:new 0 0 800 800;" xml:space="preserve">

<g>
	<g>
		<path d="M700.6,328.9c-0.4,1.2-1,2.3-1.8,3.3c-2,8.1-5.5,15.9-8.1,24.1c-0.1,1.4-0.5,2.7-1.2,3.9
			c-2.4,7.7-5.4,16.1-10.5,22.3c-0.3,1.6-0.9,3-1.9,4.2c-0.5,1.3-1.4,2.4-2.5,3.3c15.6,24.9,27,72.1,12.8,119.6
			c-15.8,52.9-51.5,70.7-51.5,70.7s32.7-6.7,55.6-30c22.9-23.3,42.5-43.1,51.1-98.2C750.9,398.6,724.6,346.7,700.6,328.9z" style="fill:#FFFFFF;"/>
		<g>
			<path d="M703.7,331.3l-8.1,11c0,0,39.7,35.3,35.7,104.1c-4.1,70.7-30.7,102.2-86.6,130.9l2.6-0.4
				c11.6-4,29.8-12.1,44.3-26.7c22.9-23.3,42.5-43.1,51.1-98.2C750.6,400.9,726.8,351.1,703.7,331.3z" style="fill:#FECE2F;"/>
		</g>
		<path d="M743.7,412.7c-3.8-35.2-18.6-64.3-42.6-84.2c-0.4-0.3-0.8-0.3-1.2-0.2c0,0-0.1-0.1-0.1-0.1
			c0,0.1-0.1,0.2-0.1,0.3c-0.1,0.1-0.2,0.1-0.2,0.2c-0.1,0.2-0.2,0.4-0.2,0.6c-12.2,17.2-17.3,38-27.4,56.2c1.3,1.5,2.3,2.7,3.3,4
			c-0.4-0.3-1-0.4-1.4-0.1c-0.6,0.4-0.8,1.1-0.4,1.7c18,29.4,23.7,75.2,14.2,113.9c-5.7,23.2-19.6,55-53.4,75.2c0,0-0.1,0.1-0.1,0.1
			c-0.1,0-0.1,0.1-0.2,0.2c-0.1,0.1-0.1,0.1-0.1,0.2c0,0.1-0.1,0.1-0.1,0.2c0,0.1,0,0.1-0.1,0.2c0,0.1,0,0.1,0,0.2
			c0,0.1,0,0.2,0,0.2c0,0,0,0.1,0,0.1c0,0.1,0.1,0.1,0.1,0.1c0,0,0,0.1,0,0.1c0,0,0,0,0,0.1c0,0,0.1,0.1,0.1,0.1
			c0.1,0.1,0.1,0.1,0.2,0.2c0,0,0.1,0.1,0.1,0.1c0.1,0,0.1,0.1,0.2,0.1c0,0,0.1,0,0.1,0c0.1,0,0.2,0.1,0.3,0.1c0,0,0,0,0,0
			c0,0,0,0,0,0c0,0,0,0,0,0c0.1,0,0.2,0,0.4-0.1c0,0,0,0,0,0C725.4,552.2,750.4,474.9,743.7,412.7z M675.5,390.3
			c0.9,1.3,1.7,2.7,2.5,4.4C677.2,393.2,676.4,391.7,675.5,390.3z M722.5,510.5c-17,30.1-43.5,52.3-78.7,66
			c22.7-16.5,38.4-40.8,45.9-71c8.3-33.8,5.2-72.9-7.5-102.3c9.7-6.6,29.8-29.4,30.5-60c15.8,18.4,25.6,42.1,28.6,69.7
			C745.1,448.3,738.6,482,722.5,510.5z" style="fill:#1A1A1A;"/>
	</g>
	<g>
		<path d="M683.1,574.3c-0.5,0-1-0.3-1.2-0.9c-0.2-0.6,0.2-1.3,0.8-1.5c0.2-0.1,22.6-7.5,46-39.7
			c0.4-0.5,1.2-0.7,1.7-0.3c0.5,0.4,0.7,1.2,0.3,1.7c-23.9,33-46.3,40.3-47.3,40.6C683.3,574.3,683.2,574.3,683.1,574.3z" style="fill:#1A1A1A;"/>
	</g>
</g>
<g>
	<path d="M661.3,381.2c-14.1-202-143-263.1-307.5-245.6c-53.4,5.7-105.6,28-151.4,60.4
		c-59.2,41.8-70.2,125.9-22.9,180.8c20.8,24.1,33.3,55.5,33.2,89.7c-0.1,59.6-38.4,110.3-91.6,129c75.6,65.4,195.1,87.3,301.1,60.2
		C567.6,618.5,671.2,522.9,661.3,381.2z" style="fill:#FECE2F;"/>
</g>
<g>
	<g>
		<path d="M94.9,258.1l4.6-29.7l6.5-23.6l9.8-25.9l11.5-22.8l12.3-16.3l11.5-13.2c0,0,24.5-21.5,34.1-24.2l-1-7.5
			c0,0-15.5-2.1-39.4,10.9s-41.8,39.9-48.9,54.8S73.4,220.3,94.9,258.1z" style="fill:#FFFFFF;"/>
	</g>
	<g>
		<g>
			<path d="M184.9,100.4l-0.7-5.5c0,0-15.5-2.1-39.4,10.9s-41.8,39.9-48.9,54.8C89,175,74.2,218,93.3,255.2l0.4,0.3
				c-15.4-49.6,14.6-103.1,38.5-127.1C156.2,104.5,184.9,100.4,184.9,100.4z" style="fill:#FECE2F;"/>
		</g>
		<g>
			<g>
				<path d="M197.2,281.1c0,0-18.3,16-33.1,43.7c-14.8,27.8-12.7,29.6-12.7,29.6s-5.6,14.6-4.8,25.1
					c0.8,10.5,4.6,41,0,75.9c0,0-1,19.4-14.6,25.5c0,0,2.7,13.8-5.4,18s-14.4,2.5-17.6-4.8s3.6-13.6,3.6-13.6s-11.5-5-14-12.1
					c0,0-6.3,3.1-11.5-0.8c-5.2-4-13.2-29.7-13.2-29.7s-4.8-15.5-0.4-18c4.4-2.5,8.6,5.9,8.6,5.9l4,14.6c0,0,1,9.2,6.5,8.2
					c0,0-5.6-27.2-0.6-30.7c5-3.6,7.5,2.5,9.4,7.7s2.1,7.7,2.1,7.7s4.4-8.4,10.5-9.2c0,0,1.7-5.4,6.7-11.1c0,0-18.4-21.8-12.3-31.4
					c2.6-4.1,12.5-4.2,12.5-4.2s-10.2-13.2-18.2-41.2s-8.8-54.8-8.8-54.8l0.8-20.7c0,0,14.8,26.5,23.4,46.4s14.6,46.8,14.6,46.8
					l14.2-38.3l14.4-29.5l15.9-23.4l9.6-9.6l4.8,16.3L197.2,281.1z" style="fill:#FFFFFF;"/>
			</g>
			<g>
				<path d="M120.4,430.2c0,0-3.2-3.6-0.3-10.5c2.1-5,11.1-14.7,18.6-9.3c0,0-4.8-7.1-13.2-2s-14.1,16.6-10,22.3
					C117.4,433.2,120.4,430.2,120.4,430.2z" style="fill:#FECE2F;"/>
			</g>
			<g>
				<path d="M95.4,462l-3-13.5c0,0-2.6,5.6-5.6-4.6c-0.3-0.9-0.5-1.7-0.7-2.4c-0.2-0.9-0.4-1.8-0.7-2.9l-3.5-12.9
					c0,0-4.2-8.4-8.6-5.9c-2.4,1.4-2.1,6.6-1.3,11l0.2,0.2c0,0,6-1.2,7.8,4.2C81.9,440.7,83.8,461.3,95.4,462z" style="fill:#FECE2F;"/>
			</g>
			<g>
				<path d="M90.3,424c0,0,8,0,8.3,11.2s-0.3,30.1,8.5,27.7c8.8-2.4,7.5-25.3,31.2-18.6c0,0-10.7-8.3-22.4-1.9
					c0,0-7.6,7.7-9.1,15.1c0,0-1-26.5-6.8-37.2C94,409.6,90.3,424,90.3,424z" style="fill:#FECE2F;"/>
			</g>
			<g>
				<path d="M143.8,407.7c4.6,24.5,4,74.5-32.4,71.7l0.7,1c0.2,0.1,0.4,0.2,0.4,0.2s-0.1,0.1-0.2,0.2
					c0,0-8.7,14.3,2.7,19.9c12.9,6.3,16.9-10,16.9-10c0.9-4.8,0-9.7,0-9.7c13.6-6.1,14.6-25.5,14.6-25.5c4.6-34.9,0.8-65.4,0-75.9
					C146.5,379.6,139.3,383.2,143.8,407.7z" style="fill:#FECE2F;"/>
			</g>
			<g>
				<path d="M94.5,260.9c0,0,2.4,71.6,36.1,117.6l-9.9-0.9c0,0-10.2-14-18.4-42.7S94.5,260.9,94.5,260.9z" style="fill:#FECE2F;"/>
			</g>
			<path d="M198,280.4c-0.5-0.5-1.2-0.5-1.7-0.1c-39.6,37-50.6,85.8-50.9,93.2c-0.2,3.6,0.3,8.8,0.9,15.3
				c1.4,15.8,3.6,39.7-1.2,68.1c-2.6,15.2-9.9,24-20.7,24.7c-10.9,0.7-23.2-7.2-26.2-17c-5.5-17.7-9.4-39.8-5.6-45.8
				c0.5-0.8,1.1-1.2,1.9-1.3c0.3,0,0.8,0,1.4,0.5c5.5,4.4,8.7,30,9.5,39.5c0.1,0.6,0.5,1.1,1.1,1.1c0.6,0.1,1.1-0.4,1.3-1
				c0-0.1,2.4-11.3,10.8-15c5.7-2.4,12.8-1,21.3,4.3c0.6,0.4,1.3,0.2,1.7-0.4s0.2-1.3-0.4-1.7c-9.2-5.8-17.2-7.3-23.6-4.5
				c-5.5,2.4-8.7,7.3-10.4,11.2c-0.4-3.4-1-7.8-1.8-12.5c-0.3-1.9-0.7-3.6-1-5.3c0.5-0.9,3.1-5.3,8-8.1c0,0.1,0,0.1,0,0.2
				c-0.1,2.5,0.7,4.5,2.1,5.7c0.7,0.6,1.5,0.9,2.5,0.9c2.4,0,5.7-1.7,10-5c1-0.8,1.9-1.5,2.8-2.3l2.2,4.4c0.2,0.4,0.6,0.7,1.1,0.7
				c0.2,0,0.4,0,0.6-0.1c0.6-0.3,0.8-1,0.5-1.6l-2.5-4.8c0,0-0.1-0.1-0.1-0.1c1.9-1.7,3.2-3,3.2-3.1c0.5-0.5,0.5-1.3,0-1.7
				c-0.5-0.5-1.3-0.5-1.7,0c-8.5,8.6-15.5,12.4-17.1,11.1c-0.9-0.7-1.3-2.1-1.3-3.8c0.1-3.9,3.1-10.6,11.2-16.6
				c2.7-2,5.2-2.7,7.4-1.9c4.7,1.6,6.9,8.9,6.9,8.9c0.2,0.6,0.9,1,1.5,0.8c0.6-0.2,1-0.9,0.8-1.5c-0.1-0.3-2.6-8.6-8.4-10.6
				c-3-1-6.2-0.2-9.6,2.3c-1.7,1.3-3.2,2.6-4.5,3.9c-4.1-5.3-11.3-16.4-12.1-23.6c0.2,0,0.3,0,0.5,0c1.2,0,2.4-0.4,3.2-1.2
				c1.1-1,1.6-2.6,1.4-4.2c-0.1-0.6-0.3-1.3-0.5-1.9c6.6-2.3,18.6-0.1,23.7,1.2c0.7,0.2,1.3-0.2,1.5-0.9c0.2-0.7-0.2-1.3-0.9-1.5
				c-0.6-0.2-8.3-2.2-15.9-2.3c-1.6-2.2-21.2-31.2-25.1-82.8c-0.7-10-0.8-20-0.2-30c2.5,5.1,4.9,10,7.2,14.7
				c11.8,23.6,21.9,44,28.2,76.6c0,0,0,0,0,0c-1.7,6-2.5,9.6-2.5,9.7c-0.1,0.7,0.3,1.3,0.9,1.5c0.1,0,0.2,0,0.3,0
				c0.6,0,1.1-0.4,1.2-1c0.2-0.7,15.6-70.4,56.7-112.1c0.5-0.5,0.5-1.3,0-1.7c-0.5-0.5-1.3-0.5-1.7,0c-30,30.4-46.4,75.5-53.4,98.5
				c-6.4-30.2-16.2-50-27.5-72.6c-2.8-5.6-5.6-11.3-8.6-17.5c-0.2-0.3-0.3-0.7-0.5-1c1.7-21,6.4-41.9,13.9-62.7
				c9-24.6,20.5-43.9,27.6-52.9c13-16.4,25.3-26.4,33.3-31.8c8.7-5.9,14.4-7.9,14.4-7.9c0.6-0.2,1-0.9,0.7-1.6
				c-0.2-0.6-0.9-1-1.6-0.7c-0.9,0.3-23.4,8.5-48.8,40.5c-7.2,9.1-18.9,28.6-28,53.5c-7.1,19.5-11.7,39.2-13.7,58.9
				c-16.4-39.7-8.5-85.3,21.8-123c28.3-35.3,66-35.9,68.3-35.9c0.1,0,0.1,0,0.1,0c0.7,0,1.2-0.5,1.2-1.2c0-0.7-0.5-1.2-1.2-1.2
				c-0.4,0-40.5-0.4-70.4,36.8c-31.9,39.8-39.5,88.1-20.4,129.6c-0.9,11.6-1,23.1-0.1,34.7c3.5,47.3,20.2,75.9,24.6,82.7
				c-2.4,0.1-4.8,0.5-6.8,1.3c-0.1-0.1-0.2-0.3-0.3-0.4c-1.2-1.3-2.7-2.2-4.3-2.5c-1.7-0.3-3.2,0.1-4.3,1.1c-1.1,1-1.6,2.6-1.4,4.2
				c0.2,1.6,0.9,3.1,2.1,4.4c0.7,0.8,1.6,1.4,2.4,1.8c0.2,3.7,1.9,8.6,5.3,14.5c0,0,0,0.1,0.1,0.1c-1.8,1.3-7.2,5.6-7.7,10.3
				c-0.2,2,0.4,3.8,1.9,5.4c0.7,0.7,1.6,1.1,2.7,1.1c0,0,0,0,0.1,0c3.4-0.1,7.9-4.3,9.9-6.3c0.3,0.4,0.6,0.8,0.8,1.1
				c-3,3.4-4.7,6.8-5.5,9.6c-4.6,2.1-7.6,5.5-9.2,7.8c-1.8-7.6-3.9-12.5-6.3-14.4c-1-0.8-2.1-1.2-3.3-1c-1.5,0.2-2.7,1-3.6,2.5
				c-3.3,5.2-1.8,18.1,0.7,30.1c-0.1,0-0.4,0-0.7-0.2c-0.6-0.3-1.7-1.2-2.5-4.3c-0.2-0.8-0.5-1.9-0.8-3.2c-2-8.4-5.3-22.4-13.2-20.9
				c-1.2,0.2-2.2,1-2.8,2.1c-3.3,6.3,4.2,26.1,8.9,37.4c2.1,5,4.7,9.8,9.1,11.6c1.1,0.5,2.4,0.7,3.6,0.7c1.6,0,3.2-0.4,5-1
				c2.8,4.7,7.5,8.8,12.9,11.3c-1.4,2.2-4.3,7.3-3.3,12.4c0.6,3.2,2.5,5.7,5.6,7.7c1.9,1.2,4.1,1.8,6.3,1.8c3.2,0,6.4-1.2,9.1-3.4
				c4-3.4,7.2-9.8,4.4-17.9c5.9-3.1,12-9.8,14.5-24.4c4.8-28.7,2.6-52.8,1.2-68.8c-0.6-6.4-1-11.5-0.9-14.9
				c0.4-7.3,11.1-55.1,50.2-91.5C198.5,281.6,198.5,280.9,198,280.4z M90.2,468c-3.6-1.4-5.9-6-7.7-10.3c-7.6-18-11.1-31.5-9-35.3
				c0.3-0.5,0.6-0.8,1.1-0.9c5.6-1.1,8.8,12.5,10.3,19.1c0.3,1.3,0.6,2.5,0.8,3.3c0.9,3,2.1,5,3.8,5.8c0.9,0.5,1.8,0.5,2.3,0.4
				c1.3,5.8,2.8,11.2,4.1,15.3c0.2,0.8,0.6,1.6,0.9,2.3C94.2,468.6,92.1,468.7,90.2,468z M127,497.7c-3.8,3.2-8.8,3.8-12.6,1.5
				c-2.5-1.6-4.1-3.6-4.5-6c-0.8-4.5,2.1-9.4,3.2-11c3.2,1.2,6.6,1.9,9.9,1.9c0.5,0,1,0,1.6-0.1c1.8-0.1,3.9-0.5,6.2-1.3
				C133.1,489.5,130.4,494.9,127,497.7z" style="fill:#1A1A1A;"/>
			<path d="M128,383.6c-4.2,0-7.5,3.4-7.5,7.5c0,4.2,3.4,7.5,7.5,7.5c4.2,0,7.5-3.4,7.5-7.5
				C135.6,387,132.2,383.6,128,383.6z M128,396.2c-2.8,0-5.1-2.3-5.1-5.1c0-1.9,1.1-3.6,2.7-4.5c0.2,3.3,2.9,6,6.3,6
				c0.3,0,0.7,0,1-0.1C132.3,394.7,130.4,396.2,128,396.2z" style="fill:#1A1A1A;"/>
			<g>
				
					<ellipse transform="matrix(0.9053 -0.4248 0.4248 0.9053 -158.4178 87.5022)" cx="117" cy="399" rx="2.3" ry="3.3" style="fill:#1A1A1A;"/>
			</g>
			<g>
				<path d="M144.8,482.1c-0.4,0-0.7-0.2-1-0.5c-0.4-0.5-0.3-1.3,0.2-1.7c12.1-9.2,10.2-26.9,10.2-27.1
					c-0.1-0.7,0.4-1.3,1.1-1.4c0.7-0.1,1.3,0.4,1.4,1.1c0.1,0.8,2.1,19.3-11.1,29.3C145.3,482,145,482.1,144.8,482.1z" style="fill:#1A1A1A;"/>
			</g>
			<g>
				<path d="M68.4,439.6c-0.5,0-1-0.3-1.1-0.8c-4-10.9-4.5-18.7-1.4-23.3c2.4-3.6,6.1-3.8,6.2-3.8
					c0.7,0,1.2,0.5,1.3,1.2c0,0.7-0.5,1.2-1.2,1.3c-0.1,0-2.6,0.2-4.3,2.7c-1.8,2.7-2.9,8.6,1.7,21.1c0.2,0.6-0.1,1.3-0.7,1.6
					C68.7,439.5,68.6,439.6,68.4,439.6z" style="fill:#1A1A1A;"/>
			</g>
			<g>
				<path d="M84.8,300.8c-0.6,0-1.1-0.4-1.2-1c-2.8-16.7-1-23-0.9-23.2c0.2-0.6,0.9-1,1.5-0.8c0.6,0.2,1,0.9,0.8,1.5
					c0,0.1-1.7,6.1,1,22.1c0.1,0.7-0.3,1.3-1,1.4C84.9,300.8,84.9,300.8,84.8,300.8z" style="fill:#1A1A1A;"/>
			</g>
			<g>
				<path d="M124.9,106.3c-0.3,0-0.5-0.1-0.7-0.2c-0.5-0.4-0.6-1.2-0.2-1.7c0.4-0.6,10.7-13.8,33.6-17.6
					c0.7-0.1,1.3,0.3,1.4,1c0.1,0.7-0.3,1.3-1,1.4c-21.9,3.6-32,16.5-32.1,16.6C125.6,106.1,125.2,106.3,124.9,106.3z" style="fill:#1A1A1A;"/>
			</g>
		</g>
	</g>
</g>
<g>
	<g>
		<path d="M259.6,381.8l25,21.5c0,0-8.1,17.9-3.4,56.9c0,0-33.5,37.7-22,67l-5.1,0.8c0,0-29.7-17.4-30.5-53.4
			C222.7,438.6,249.9,390.7,259.6,381.8z" style="fill:#FFFFFF;"/>
	</g>
	<path d="M260.7,382.7c0,0,0.1-0.1,0.1-0.1c-0.8-0.4-1.4-0.9-1.9-1.6c-12.5,16.6-22.7,34.9-30.1,56.4
		c-7.6,21.9-8.7,41.2-3.3,57.3c4.4,13.3,13.3,24.6,26.4,33.4c0.2,0.1,0.4,0.2,0.7,0.2c0.4,0,0.8-0.2,1-0.5c0.4-0.6,0.2-1.3-0.3-1.7
		c-28.2-19.2-35.7-48.7-22.1-88c5.2-15.1,11.9-28.6,19.7-41.1c4.7,6.4,20.9,31.4,22,72c-28.4,42-14.8,58.3-14.1,59
		c0.2,0.3,0.6,0.4,0.9,0.4c0.3,0,0.6-0.1,0.8-0.3c0.5-0.4,0.6-1.2,0.1-1.7c-0.2-0.2-15.1-18,21.2-65.5c0.4-0.5,0.3-1.3-0.2-1.7
		c-0.1-0.1-0.3-0.2-0.5-0.2c-4.3-38.1,3.6-55.6,3.6-55.6L260.7,382.7z" style="fill:#1A1A1A;"/>
</g>
<g>
	<path d="M248.7,221.5l0.2,27.6c0,0,21.7-8.8,43.9-9.5c22.2-0.7,42.7-1.1,42.7-1.1s-25.9-11.8-51.3-14.8
		C258.9,220.6,248.7,221.5,248.7,221.5z" style="fill:#FFFFFF;"/>
</g>
<g>
	<path d="M422.4,304.6l77,101.2c0,0,33.5,41.4,59.6,43.5c0,0-19.8,15.5-41.1,20.6c0,0-21.2-7.5-42.1-25.7
		c-20.9-18.1-87-119.1-87-119.1L422.4,304.6z" style="fill:#1A1A1A;"/>
</g>
<g>
	<path d="M252.5,249.1c0,0,41.8-1.9,92.2,52.2l42-33.2c0,0-33.8-25.3-48.4-28.2C338.2,239.8,287.4,233.6,252.5,249.1z" style="fill:#1A1A1A;"/>
</g>
<g>
	<path d="M559.9,450.8c-0.1,0-0.1,0-0.2,0c-34.2-4.5-63.8-45.7-95.2-89.4c-20.9-29.1-42.4-59.1-67.6-82.7
		c-32.7-30.6-95.9-60.4-148.5-55.3c-0.7,0.1-1.3-0.4-1.3-1.1c-0.1-0.7,0.4-1.3,1.1-1.3c53.3-5.2,117.3,25,150.4,55.9
		c25.3,23.7,47,53.9,67.9,83c31,43.3,60.4,84.1,93.5,88.4c0.7,0.1,1.1,0.7,1.1,1.4C561.1,450.4,560.5,450.8,559.9,450.8z" style="fill:#1A1A1A;"/>
</g>
<g>
	<path d="M337.8,97.1c69.1,9.5,97,38.5,102.9,62.2s-0.7,63.6-41.8,98.6c-35.3,30-83.2,66.3-83.2,66.3l13.1,13.6
		c0,0,31.4-22.8,79.7-12.1c0,0,40.3-25.3,60.4-77c20-51.7,7-98.7-0.6-108.1c-7.6-9.3-33.3-69.6-103.6-85.5" style="fill:#FFFFFF;"/>
</g>
<g>
	<path d="M337.8,97.1c69.1,9.5,97,38.5,102.9,62.2s-0.7,63.6-41.8,98.6c-35.3,30-83.2,66.3-83.2,66.3l13.1,13.6
		c0,0,31.4-22.8,79.7-12.1c0,0,40.3-25.3,60.4-77c20-51.7,7-98.7-0.6-108.1c-7.6-9.3-33.3-69.6-103.6-85.5" style="fill:#FFFFFF;"/>
</g>
<g>
	<g>
		<path d="M259.6,277.7c0,0,19.9,13.4,41.1,31.6c21.2,18.2,30.4,31.6,30.4,31.6l-46.6,62.1c0,0-23.6-18.7-42.1-42.3
			s-32.2-50.5-32.2-50.5s4.5-13.1,20.3-22.8C246.2,277.7,259.6,277.7,259.6,277.7z" style="fill:#FECE2F;"/>
	</g>
	<g>
		<path d="M259.6,277.7c0,0,19.9,13.4,41.1,31.6c21.2,18.2,30.4,31.6,30.4,31.6l-46.6,62.1c0,0-23.6-18.7-42.1-42.3
			s-32.2-50.5-32.2-50.5s4.5-13.1,20.3-22.8C246.2,277.7,259.6,277.7,259.6,277.7z" style="fill:#FECE2F;"/>
	</g>
	<g>
		<path d="M259.6,277.7c0,0,47.9,33.3,69.1,60.1l-4.8,3.6l-70.5-63.8L259.6,277.7z" style="fill:#FFFFFF;"/>
	</g>
	<g>
		<path d="M214.2,304.9c0,0,39.7,70.8,72.1,88.2l-2.2,9.5c0,0-28-23.1-46.9-49.5s-27-43-27-43L214.2,304.9z" style="fill:#FFFFFF;"/>
	</g>
	<g>
		<path d="M246.8,260.7c0,0,2.6-14,1.7-33.6S242,169,242,169l-5.3-30.6c0,0-5.2-29.1-9.4-33l-1.8-3.1
			c0,0,0.7-5.9-2.2-14.8c-3-8.9-6.3-7.2-8.5-7.6c-2.2-0.4-4.8,3.7-4.8,3.7s-6.1-3.3-9.2,2c0,0-4.4-3.3-7.9,2.2c0,0-8.5-0.4-8.5,7
			c0,7.4,3.1,11.1,5.7,12c0,0,2.4,12.9,2.4,28c0,15.1-3.9,44.6-3.9,44.6s-3.5,33.6-3.3,47.6c0.2,14,2.6,42.4,15.3,57.7l18.4-9.8
			l12.9-8.3L246.8,260.7z" style="fill:#FECE2F;"/>
	</g>
	<g>
		<path d="M249.4,280.3c1.1-0.4,2.2-0.7,3.4-0.8c1.8-0.1,7.8-0.6,8.3-1.3c1.3-1.8-1.7-5.2-2.9-6.8
			c-2.6-3.5-5.4-7.7-8.6-10.6c-2.9-2.6-8.4-0.6-12.4-0.4c-0.9,0-1.6,0-2.4-0.2c0.8,1.2,2.4,2.3,3.6,3.2c3,2.2,5.4,4.6,7.3,7.8
			C247.5,273.9,248.7,277,249.4,280.3z" style="fill:#FFFFFF;"/>
	</g>
	<g>
		<path d="M210.1,310.7c0,0,2.9-5.4,8.2-11.6c-5-0.8-8.9-5.1-10.4-9.9c-0.7-2.4-0.9-4.9-0.7-7.4
			c0.1-1.4,1.4-4.2,0.5-5.5c-4.5,4.2-7.6,8.5-7.5,12.1c0.2,6,2.2,5.8,2.2,5.8s-2,8.1,2.9,11.1C205.3,305.3,204,309.8,210.1,310.7z" style="fill:#FFFFFF;"/>
	</g>
	<g>
		<path d="M232.2,138.5c0,0,5.6,24.8,8.9,58.3s0.8,62.9,0.8,62.9l4.7,0.9c0,0,3.8-20.1,0.9-47.4
			c-2.8-27.3-10.2-73.4-10.2-73.4L232.2,138.5z" style="fill:#FFFFFF;"/>
	</g>
	<g>
		<path d="M217.5,135.7c0,0,10.2,29.8,8.2,60.8c-2,31-3.3,57.6,1.6,67l3-1.3c0,0-4.2-14.6-1-36.7
			c3.3-22,2.4-45.7-0.8-62.5s-5.4-25.9-5.4-25.9L217.5,135.7z" style="fill:#FFFFFF;"/>
	</g>
	<g>
		<path d="M197.9,155.1c0.7-22.9-3.9-49.3-3.9-49.3l-4.7,0.6c0.2,0.1,0.5,0.3,0.7,0.3c0,0,2.4,12.9,2.4,28
			s-3.9,44.6-3.9,44.6s-3.5,33.6-3.3,47.6c0.2,14,2.6,42.4,15.3,57.7l3.2-4C183.2,250.9,196.2,210.4,197.9,155.1z" style="fill:#FFFFFF;"/>
	</g>
	<g>
		<path d="M218.5,99.8c-0.1,0-0.2,0-0.4-0.1c-0.6-0.2-1-0.9-0.8-1.5c0.6-1.9-0.3-6.6-0.9-9.1c-0.2-0.7,0.2-1.3,0.9-1.5
			c0.7-0.2,1.3,0.2,1.5,0.9c0.2,0.7,1.9,7.3,0.9,10.4C219.5,99.5,219.1,99.8,218.5,99.8z" style="fill:#1A1A1A;"/>
	</g>
	<path d="M211.7,126.6c11.4-1.1,21.1,1.8,24.2,3.6c4.3,2.6,4.3,8.1-0.1,8.3c-4.4,0.2-9.4-3.4-22.9-1.9
		c-13.9,1.6-18.2,6.2-20.4,5.8c-4.8-0.8-6.4-6.6,1.1-10.3C199.1,129.4,205,127.2,211.7,126.6z" style="fill:#FFFFFF;"/>
	<path d="M329,336.6c-25.6-30.3-61.7-55.7-67.3-59.5c0.3-1.2,0.6-3.4-0.6-5.2c-0.6-0.9-1.5-1.5-2.6-2
		c0-0.5-0.2-2.6-2-4.2c-0.7-0.7-1.6-1.2-2.6-1.5c-0.4-1.3-1.6-3.9-5.4-5.1c0.8-4.3,3-19,0.9-43.3c-2.5-27.7-5.8-51.7-10.8-77.2
		c1.1-0.6,1.9-1.5,2.2-2.8c0.6-2.6-0.8-5.6-3.6-7.2c-0.2-0.1-0.5-0.3-0.7-0.4c-3.2-14.5-6-22.1-9-26.2c0,0,0,0,0,0
		c-0.1-2.2-1.4-21.6-9.2-23.3c-3.8-0.8-6,0.6-7.2,2c-0.2,0.2-0.4,0.5-0.6,0.7c-1.1-0.5-3.5-1.2-5.8-0.5c-1.4,0.5-2.6,1.4-3.5,2.8
		c-1.4-0.5-4.1-1-6.2,0.3c-1,0.6-1.7,1.4-2.3,2.5c-1.1-0.1-3.7-0.2-5.8,1.4c-1.7,1.3-2.7,3.3-2.9,5.9c-0.4,5.4,1.7,12.1,5.6,13.5
		c0.1,0,0.2,0.1,0.3,0.1c0.4,2.4,1.6,11.2,1.9,24.2c-2.9,1.9-4.3,4.4-4,6.9c0.3,2,1.8,3.6,3.9,4.3c-0.1,2.6-0.2,5.4-0.3,8.2
		c-0.5,8.4-1.7,18.1-3,28.3c-0.7,5.5-1.4,11.2-2.1,16.9c-0.4,0.4-0.6,1-0.3,1.5c0,0.1,0.1,0.1,0.1,0.2c-1.8,16.6-2.9,33.8-0.7,48.8
		c3.9,27.2,12.2,36.8,14.2,38.8c-0.6,1.7-0.8,3.4-0.6,4.9c0.4,2.7,2,4.4,2.8,5c-0.2,0.9-0.4,1.9-0.4,2.8c-0.1,3.1,1.1,5.9,3.5,8.3
		c0,1,0.2,1.7,0.5,2.3c0.8,1.8,2.6,2.9,4.9,3c3.5,6.7,33.6,62.7,73.4,92c0.2,0.2,0.5,0.2,0.7,0.2c0.4,0,0.7-0.2,1-0.5
		c0.4-0.5,0.3-1.3-0.3-1.7c-15.8-11.6-30-27.5-41.7-42.8c0.8-2.4,8.5-23.2,27.5-37.3c13.9,31.2,19,42.4,25.8,48.4
		c0.2,0.2,0.5,0.3,0.8,0.3c0.3,0,0.7-0.1,0.9-0.4c0.5-0.5,0.4-1.3-0.1-1.7c-6.4-5.8-12.1-18.1-25.3-48c0,0,0,0,0-0.1
		c7.2-4.9,15.9-8.8,26.3-10.5c0,0,0,0,0,0c9.5,8.5,19.4,18.2,28.1,28.5c0.2,0.3,0.6,0.4,0.9,0.4c0.3,0,0.6-0.1,0.8-0.3
		C329.3,337.9,329.4,337.1,329,336.6z M246.8,216.1c2.1,23.7-0.1,38.4-0.9,42.6c-0.6-0.1-1.3-0.1-2.1-0.1c-3.2,0-7.5,0.7-12.4,2.2
		c-3-8.2-2-21.6-0.4-40c0.5-6.4,1.1-13.6,1.6-21.4c0.2-2.9,0.2-5.8,0.2-8.6c3.9,0.6,7.9,1.7,11.8,3.3
		C245.4,201.2,246.1,208.5,246.8,216.1z M244.2,191.3c-3.8-1.5-7.7-2.5-11.5-3.1c-0.5-23.6-6.4-46-7.7-50.9c2.3,0.3,4.2,0.7,5.8,1.1
		c1.9,0.4,3.5,0.8,5.2,0.8C239.5,156.7,242.1,173.5,244.2,191.3z M212.7,82.3c1.1-1.3,2.7-1.7,4.8-1.2c4,0.9,6.3,10.7,7.1,18.3
		c-1-0.7-2.1-1.2-3.2-1.5c-2.4-0.7-6-1.4-9.5-1.3C210.4,91.6,210.2,85.2,212.7,82.3z M220.7,100.2c4.6,1.4,8.2,6.4,12.8,26.9
		c-4.9-1.7-12.9-3.1-21.4-2.3c-5.8,0.5-11.4,2.2-18.1,5.4c-0.3-11.8-1.4-20-1.8-22.8c1.1-0.3,2.4-1.1,3.8-2.8c0.1,0,0.1,0.1,0.2,0.1
		c0.7,0.5,1.7,0.9,3,0.9c0.7,0,1.6-0.1,2.4-0.5c0.2,1,0.7,2,1.4,2.8c4.1,4.4,15.1,3.4,16.4,3.3c0.7-0.1,1.2-0.7,1.1-1.3
		c-0.1-0.7-0.7-1.2-1.3-1.1c-3.1,0.3-11.6,0.4-14.4-2.6c-0.7-0.8-1-1.7-0.8-2.9c0.2-1.2,0.9-2.2,2-2.9
		C209.4,98.4,216.1,98.8,220.7,100.2z M202.7,85.8c0.6-1.3,1.5-2.1,2.5-2.5c1.5-0.5,3.2,0,4,0.4c-1.3,3.8-1,8.9,0.2,13.1
		c-1.8,0.3-3.4,0.8-4.7,1.6c-0.2,0.1-0.3,0.2-0.5,0.3C202.9,95.4,201.1,89.2,202.7,85.8z M194,90.1c0.2-2,0.9-3.3,2-3.9
		c1.3-0.7,3-0.4,4-0.1c-1.5,5.3,1.6,12.9,2.4,14.7c-0.3,0.5-0.5,1.1-0.7,1.7c-1.6,0.9-3.1,1-4.2,0.3C194.9,101,193.4,95.6,194,90.1z
		 M190.3,105c-2.4-0.9-4.4-6.3-4-11c0.2-1.9,0.8-3.3,1.9-4.2c1.2-0.9,2.7-1,3.6-0.9c-0.1,0.3-0.1,0.6-0.1,0.9
		c-0.5,4.4,0.2,9.9,2.7,13.1C193.1,104.3,191.7,105.5,190.3,105z M190.1,138c-0.2-1.5,0.8-3.6,4.4-5.4c6.6-3.2,12.1-4.9,17.8-5.4
		c1.7-0.2,3.3-0.2,4.9-0.2c9.2,0,16.4,2.4,18.6,3.7c2.1,1.2,2.8,3.2,2.5,4.5c-0.2,0.9-1,1.4-2.1,1.5c-1.3,0.1-2.8-0.3-4.7-0.7
		c-3.9-0.9-9.2-2.2-18.2-1.2c-9.3,1-14.4,3.4-17.5,4.8c-1.2,0.5-2.3,1-2.7,1C191.4,140.4,190.3,139.3,190.1,138z M190.6,179.5
		c1.3-10.3,2.5-19.9,3.1-28.5c0.2-2.8,0.3-5.5,0.3-8.2c0.8-0.2,1.6-0.6,2.8-1.1c2.9-1.3,7.8-3.6,16.7-4.6c3.5-0.4,6.5-0.4,9-0.3
		c0.3,1.2,7.3,25.3,7.9,50.9c-18.4-2.1-35.5,4.3-41.6,7C189.3,189.7,190,184.5,190.6,179.5z M187.6,246.3c-2.1-14.9-1.1-32,0.8-48.6
		c4.2-2,22.3-9.7,41.9-7.3c0,3,0,5.9-0.2,8.8c-0.5,7.7-1.1,14.9-1.6,21.3c-1.5,18.7-2.6,32.2,0.6,41c-8.7,3.1-18.6,8.9-26.2,18.1
		c-1,1.2-1.7,2.3-2.4,3.4C198.1,280.1,191.1,270.2,187.6,246.3z M201.2,289.9c-0.4-2.5,0.8-5.5,3.5-8.8
		c12.6-15.3,31.8-20.2,39.1-20.2c0.8,0,1.6,0.1,2.2,0.2c0.1,0.1,0.3,0.2,0.5,0.2c0.1,0,0.2,0,0.3,0c0.1,0,0.2,0,0.3-0.1
		c2,0.5,3.1,1.5,3.6,2.3c-0.9-0.1-1.8,0-2.9,0.1c-10.1,1-24.6,7.4-33.7,15c-4.4,3.7-9.4,8.7-11.8,14.1
		C201.9,292.1,201.4,291.2,201.2,289.9z M205.1,303.2c-1.1-1.5-1.6-3.2-1.5-5c0.2-5,4.5-11.3,12.2-17.7c8.6-7.2,22.9-13.5,32.4-14.4
		c2.9-0.3,5.2,0.2,6.5,1.3c0.7,0.7,1.1,1.4,1.2,1.9c-0.3,0-0.5,0-0.8,0c-7.1,0-24.3,3.7-38.7,18
		C209.2,294.6,206.1,299.7,205.1,303.2z M207.3,307.7c-1.2-2.6,1-8.9,10.8-18.6c12.8-12.8,29.1-17.4,37-17.3c2,0,3.3,0.5,3.9,1.4
		c0.6,0.9,0.5,2.2,0.3,3.1c-2.4,0.1-9.3,0.6-17.6,3.8c-9.3,3.7-22.4,11.7-31.8,29C209,309.2,207.8,308.8,207.3,307.7z M241.4,356.6
		c-16.5-22.1-27.4-42.5-29.3-46.1c8.1-15,19.1-22.9,28.5-27.1c3.5,2.1,17.8,11.7,29,35.9C251.9,332.2,243.6,350.8,241.4,356.6z
		 M271.7,317.9c-10.3-22.1-22.9-32.1-28.3-35.6c8.3-3.1,15-3.4,16.5-3.5c2.4,1.6,18.6,12.8,36.8,28.8
		C286.9,309.5,278.6,313.2,271.7,317.9z" style="fill:#1A1A1A;"/>
</g>
<g>
	<g>
		<path d="M533.7,514.8c-5.6-18.8-44.1-38.6-83.9-33c11.1-51.1,13.4-83.7,2.5-116.3c-12.6-37.6-48.4-41.8-65.9-42.1
			c-37-0.7-70,15.1-90.2,47.9c-20.2,32.7-21.5,92.3-4.1,143.9c17.5,52.3,44.6,96.7,83.1,109c47,15.1,96.5-8.1,123-34.1
			C521.9,567.8,539.4,533.6,533.7,514.8z" style="fill:#FECE2F;"/>
	</g>
	<g>
		<path d="M454.7,398.8c0,0,0,5.7-1.7,22.1l5.7-8.6l0.4-13.9L454.7,398.8z" style="fill:#FFFFFF;"/>
	</g>
	<g>
		<path d="M440.5,495.3c0,0-15.1,48.9,2.7,73.2c0,0-11.5-38.3,9.9-94.9L440.5,495.3z" style="fill:#FFFFFF;"/>
	</g>
	<g>
		<path d="M434.7,397.7c0,0,2.4,27.8-2.1,46.6l6-11.9c0,0,2.6-37.2,0.6-48.1L434.7,397.7z" style="fill:#FFFFFF;"/>
	</g>
	<g>
		<path d="M411.2,528c0,0-12.2,33.1-2.7,57.9s34.3,26.2,50.9,10.3s24.3-40.7,30.1-52.8c5.8-12.1,17.9-42,33.8-43.2
			l-3.9-2.9c0,0-9.8-1.6-19.6,16.8c-9.8,18.4-23.8,48.1-23.8,48.1s-11.6,28.4-27.4,36.2s-27.6-1.6-27.6-1.6s-11.6-5.3-11-31.6
			c0.6-26.3,8.3-41.8,8.3-41.8L411.2,528z" style="fill:#FFFFFF;"/>
	</g>
	<g>
		<path d="M533.7,514.8c-5-16.7-35.7-34.1-70.4-33.9l-9.7,11.9c0,0,47.5-3.9,67.5,21.1c20,25-19.5,82-79.9,109.2
			l0.7,0.2c22.5-7,42.4-19.7,56.1-33.2C521.9,567.8,539.4,533.6,533.7,514.8z" style="fill:#FFFFFF;"/>
	</g>
	<g>
		<path d="M382.7,324.1l15.9,0c0,0-59.3,5.1-72.5,75.9c-14.1,75.9,0.6,148.7,49.1,224.1l-5.5-2.4
			c0,0-49-64.9-52.9-164.3c-2.9-81.7,32.3-113.7,32.3-113.7S355.4,331.7,382.7,324.1z" style="fill:#FFFFFF;"/>
	</g>
	<g>
		<path d="M377.9,323.1c0,0-38.8,0.8-66.5,29.2c-27.6,28.4-35.4,67.2-29.2,120c6.2,52.8,39,125.6,84.5,148.8
			c0,0-54.5-47.5-67.9-120.3S299.2,373.9,325,351C350.8,328,377.9,323.1,377.9,323.1z" style="fill:#FFFFFF;"/>
	</g>
	<path d="M534.9,514.4c-5.9-19.6-44.2-38.9-83.5-34.1c10.8-49.8,13.1-82.3,2.1-115.3c-9.2-27.5-32.4-42.3-67.1-43
		c-39.1-0.7-71.5,16.5-91.3,48.5c-7.2,11.7-12.1,26.9-14.5,44c0,0,0,0,0,0c-4.4,30.5-1,67.1,10.3,100.9c1.7,5,3.5,10.1,5.5,15.3
		c-0.2,0.2-0.3,0.4-0.3,0.6c-0.1,0.7,0.3,1.3,1,1.4c0,0,0.1,0,0.1,0c15.1,38.5,39.8,80.3,77.6,92.4c9.9,3.2,20.4,4.8,31.1,4.8
		c12.7,0,25.7-2.1,38.8-6.5c15.7-5.2,31.1-13.6,44-23.8c0.1-0.1,0.3-0.2,0.4-0.3c3.5-2.8,6.8-5.7,9.9-8.7c7.1-6.7,14-14.9,19.9-23.6
		c0.2-0.2,0.4-0.4,0.5-0.6c0,0,0,0,0-0.1C531.5,548.5,539,528.2,534.9,514.4z M532.6,515.1c3.3,11.1-1.7,28.4-12.1,45.4
		c1.2-10.4,0.7-31.6-20.3-44.7c5.9-10.3,12-17.3,18.8-17.3C526,503.7,530.9,509.5,532.6,515.1z M504.1,490.3c4.3,1.9,8.2,4,11.7,6.2
		c-6.6,1.6-12.3,8.5-17.8,18.2c-0.1-0.1-0.2-0.1-0.3-0.2c-22.1-12.2-45.4-10.2-52-9.2c1.9-7.8,3.6-15.3,5.2-22.3
		C468.8,480.5,487.6,483.2,504.1,490.3z M348.9,586.4c-7.9-15.5-14.4-32.6-19.4-50.7c5.4,0.2,11.4,0.4,17.9,0.4
		c18.7,0,41.6-1.1,66.5-4.7c-3.6,15.3-5.6,28.6-5.2,39.6c-22.8,10.7-40.8,14.3-53.2,15.2C353.2,586.4,350.9,586.4,348.9,586.4z
		 M322.3,403c6.4-0.5,13.5-0.6,21.5,0.1c47.2,4.2,76.7,19.2,93.3,31.4c-1.4,12.4-4.1,28.1-9.4,46.9c-20.1-6.2-50.9-11.3-80.9-12.7
		c-11.1-0.5-20.5-0.3-28.4,0.4C317.1,445.3,318.4,422.4,322.3,403z M346.8,471.1c29.5,1.4,60.4,6.5,80.3,12.6
		c-0.4,1.5-0.9,3.1-1.4,4.7c-4.3,14.5-8.2,28-11.2,40.4c-34.3,5.1-64.6,5.3-85.8,4.4c-3.1-11.7-5.6-23.9-7.4-36.4
		c-1.2-8.5-2.1-16.9-2.7-25.3C326.5,470.9,335.8,470.6,346.8,471.1z M442.9,506.4C442.9,506.4,442.9,506.4,442.9,506.4
		C442.9,506.5,442.9,506.5,442.9,506.4c-1.5,6.4-2.5,12.3-3.1,17.9c-7.7,1.6-15.3,3-22.7,4.2c2.9-12,6.7-25.2,10.9-39.3
		c0.5-1.6,0.9-3.1,1.3-4.7c7.9,2.6,13.8,5.3,16.8,8C445.2,497,444.1,501.6,442.9,506.4z M416.5,531c7.5-1.1,15.2-2.5,23.1-4.2
		c-0.9,10-0.5,18.4,0.2,24.5c0.1,0.8,0.2,1.5,0.3,2.2c0,0-0.1,0-0.1,0c-10.3,6.7-19.9,12-28.8,16.3C410.8,559.1,413,546,416.5,531z
		 M440.4,556.2c1.2,7.9,2.8,12.4,2.9,12.6c0.2,0.6,0.9,1,1.6,0.7c0.6-0.2,1-0.9,0.7-1.6c0-0.1-2.3-6.3-3.4-17
		c-0.2-1.5-0.3-3.2-0.4-4.9c4-0.3,24.9-1.1,37.1,8.7c-12.3,26-26.6,50.4-47.5,45.2c-7.4-1.8-12.6-5.6-15.9-11.4
		c-2.5-4.4-3.8-9.8-4.2-16.1C422.1,567.3,432.1,561.5,440.4,556.2z M479.9,552.5c-7.3-5.6-17-7.8-24.1-8.6
		c-6.7-0.8-12.2-0.5-14.2-0.4c-0.4-9.3,0.2-21.7,3.5-35.8c4.6-0.7,28.7-3.7,51.5,8.8c0.1,0.1,0.2,0.1,0.3,0.2c-4,7.3-8,16-12.1,25.2
		C483.2,545.5,481.6,549,479.9,552.5z M448.7,481.4c0,0.1-0.1,0.2-0.1,0.4c-0.6,2.6-1.2,5.4-1.8,8.1c-3.4-2.6-9.2-5.2-16.7-7.7
		c5.1-18.3,7.8-33.6,9.3-46c9.4,7.2,14.2,13.2,15.3,14.6C453.1,460.2,451.1,470.4,448.7,481.4z M451.2,365.9
		c8.3,24.7,8.9,49.3,4,81.6c-2.4-2.9-7.3-8.2-15.4-14.2c2.3-21.7,0.4-33.2,0.4-33.4c-0.1-0.7-0.8-1.1-1.4-1c-0.7,0.1-1.1,0.7-1,1.4
		c0,0.2,1.8,10.9-0.2,31.3c-1.7-1.2-3.5-2.4-5.4-3.6c-16.1-10.3-44.4-23.4-88-27.3c-7.8-0.7-14.9-0.7-21.2-0.2
		c1.4-6.4,3-12.4,5-17.9c4.6-13,10.3-23.1,16.2-31c17.9-1.6,42.7,0.3,73.1,13c0.6,0.3,1.3,0,1.6-0.7c0.3-0.6,0-1.3-0.7-1.6
		c-29.5-12.3-54-14.6-72-13.4c18.7-22.7,39.4-24.3,40.3-24.3C420,325.2,442.3,339.5,451.2,365.9z M374.3,325
		c-3.2,1.2-6.9,2.9-10.8,5.3c-6.2,3.7-13.6,9.7-20.8,19c-4.1,0.4-7.8,1-11.2,1.7c-11.8,2.4-20.3,6-25.4,8.7
		C323.2,339.2,346.7,327.2,374.3,325z M297.3,371.9c1.5-2.4,3.1-4.8,4.7-7c0,0,0.1,0,0.1-0.1c0.1-0.1,10.7-7.8,30.1-11.6
		c2.6-0.5,5.5-1,8.6-1.3c-5.5,7.7-10.8,17.4-15.2,29.8c-2.1,5.8-3.8,12.2-5.2,19c-19.8,1.9-32,8.4-36.8,11.5
		C286,396.6,290.6,382.7,297.3,371.9z M283,415.5c1.3-0.9,6.3-4.4,14.9-7.4c5.3-1.9,12.6-3.8,21.9-4.8c-3.8,19.5-5.1,42.3-3.7,66.1
		c-20,2-29.7,6.6-32,7.9C280.7,455.7,280.3,434.4,283,415.5z M284.5,479.7c0.1,0,0.2-0.1,0.3-0.1c0.1-0.1,9.5-5.6,31.4-7.8
		c0.6,8.4,1.4,16.9,2.7,25.4c1.8,12.3,4.2,24.3,7.3,35.9c-14.1-0.7-23.7-1.9-27.2-2.4c-2.1-5.4-4-10.7-5.7-15.9
		C289.4,503.3,286.5,491.5,284.5,479.7z M326.9,535.6c5,18.2,11.4,35.3,19.2,50.8c-12.8-0.3-19.6-3.4-19.7-3.4c-0.1,0-0.2,0-0.3-0.1
		c-10.7-15.2-19.3-32.7-26.1-49.6C304.5,533.9,313.9,534.9,326.9,535.6z M328.6,586.4c3.5,1,9.8,2.4,18.8,2.5
		c5.7,11,12,21.2,18.9,30.4C351.6,612.2,339.1,600.4,328.6,586.4z M444,621.4c-23.6,7.8-47.3,8.4-68.4,1.6c-1.6-0.5-3.2-1.1-4.8-1.7
		c0-0.1-0.1-0.2-0.1-0.3c-7.6-9.6-14.4-20.4-20.6-32.1c1.7,0,3.5-0.1,5.4-0.2c18.5-1.3,37-7.4,53.4-15c0.5,6.3,1.9,11.8,4.5,16.2
		c3.6,6.3,9.5,10.6,17.4,12.5c2.1,0.5,4.2,0.8,6.2,0.8c19.1,0,32.3-22.6,43.7-46.7c15.5,15,7.6,38.5,6.4,41.6
		C474.5,608,459.3,616.3,444,621.4z M497.3,589.2c-2.1,2.1-4.3,4.1-6.7,6c2.3-8.4,5.6-27.9-8.8-41.1c1.7-3.7,3.4-7.5,5.1-11.2
		c4-8.9,8-17.6,12-25c26.6,16.5,18.6,46,18,47.9C511.5,574.2,504.8,582.2,497.3,589.2z" style="fill:#1A1A1A;"/>
	<g>
		
			<ellipse transform="matrix(2.425062e-03 -1 1 2.425062e-03 -8.0262 707.0012)" cx="350.3" cy="357.5" rx="2.1" ry="2.9" style="fill:#1A1A1A;"/>
	</g>
	<g>
		
			<ellipse transform="matrix(2.425062e-03 -1 1 2.425062e-03 60.7902 718.0533)" cx="390.3" cy="328.6" rx="1.7" ry="2.4" style="fill:#1A1A1A;"/>
	</g>
	<g>
		
			<ellipse transform="matrix(2.425062e-03 -1 1 2.425062e-03 15.2403 704.0432)" cx="360.5" cy="344.4" rx="1.7" ry="2.4" style="fill:#1A1A1A;"/>
	</g>
	<g>
		
			<ellipse transform="matrix(0.9897 -0.1435 0.1435 0.9897 -46.0522 52.2618)" cx="339.3" cy="345.4" rx="2.4" ry="1.7" style="fill:#1A1A1A;"/>
	</g>
	<g>
		
			<ellipse transform="matrix(0.9897 -0.1435 0.1435 0.9897 -47.9069 51.1687)" cx="330.8" cy="357.7" rx="2.4" ry="1.7" style="fill:#1A1A1A;"/>
	</g>
	<g>
		
			<ellipse transform="matrix(0.9897 -0.1435 0.1435 0.9897 -53.534 49.2459)" cx="314.6" cy="395.7" rx="2.7" ry="1.9" style="fill:#1A1A1A;"/>
	</g>
	<g>
		
			<ellipse transform="matrix(2.425062e-03 -1 1 2.425062e-03 -61.0659 726.84)" cx="333.8" cy="394" rx="2.1" ry="2.9" style="fill:#1A1A1A;"/>
	</g>
	<g>
		
			<ellipse transform="matrix(2.425062e-03 -1 1 2.425062e-03 -135.5174 789.0906)" cx="327.7" cy="462.5" rx="2.1" ry="2.9" style="fill:#1A1A1A;"/>
	</g>
	<g>
		
			<ellipse transform="matrix(0.9968 -7.964996e-02 7.964996e-02 0.9968 -35.9583 26.2116)" cx="310.6" cy="463.8" rx="2.9" ry="2.1" style="fill:#1A1A1A;"/>
	</g>
	<g>
		
			<ellipse transform="matrix(2.425062e-03 -1 1 2.425062e-03 -148.6916 803.137)" cx="328.2" cy="476.1" rx="2.1" ry="2.9" style="fill:#1A1A1A;"/>
	</g>
	<g>
		
			<ellipse transform="matrix(0.9968 -7.964996e-02 7.964996e-02 0.9968 -37.0422 26.291)" cx="311" cy="477.5" rx="2.9" ry="2.1" style="fill:#1A1A1A;"/>
	</g>
	<g>
		
			<ellipse transform="matrix(0.4293 -0.9032 0.9032 0.4293 -133.9459 627.0921)" cx="429.2" cy="419.5" rx="2.1" ry="2.9" style="fill:#1A1A1A;"/>
	</g>
</g>
<g>
	<g>
		<path d="M304.5,545.5l5.6,13.3c0,0,94.2,3.4,134-52.1l4.8-23.3l-70.4,39.8L304.5,545.5z" style="fill:#1A1A1A;"/>
	</g>
	<g>
		<path d="M644.2,335.8c3.5-9.2,10.4-18.1,11.6-28.1c-10.5-2.8-21-4.3-31.5-4.3c-38.2-0.1-76.9,24.3-82.1,27.8
			c-0.4,0.7-4.7,5.8-27.4,30c-34,36.4-43.3,37.2-43.3,37.2l-9.4,10.6c0,0-45.5,52-107.5,86.6s-101,32-101,32
			c20.3,12.8,64.3,32.8,128.4,8.4c64.1-24.4,98.9-71.4,116.8-101c17.9-29.6,29.4-49.9,66.3-68.9c21.6-11.1,47.2-11,68.3-4.7
			C638.4,353.5,640.9,344.3,644.2,335.8z" style="fill:#FFFFFF;"/>
		<g>
			<g>
				<path d="M541.5,331.6c0,0,0.2-0.1,0.6-0.4C542.3,330.8,541.5,331.6,541.5,331.6z" style="fill:#FECE2F;"/>
			</g>
			<g>
				<path d="M394.3,489.6c82.6-58.9,151.2-189.5,249.4-175.1l2.4-9.1c-7.3-1.4-14.6-2.1-21.8-2.1
					c-38.2-0.1-76.9,24.3-82.1,27.8c-0.4,0.7-4.7,5.8-27.4,30c-34,36.4-43.3,37.2-43.3,37.2l-9.4,10.6c0,0-45.5,52-107.5,86.6
					s-101,32-101,32S311.8,548.5,394.3,489.6z" style="fill:#FECE2F;"/>
			</g>
		</g>
		<path d="M642.9,339.9c1.3-6.4,4.9-11.9,7.6-17.7c0.3-0.6,0.6-1.1,1-1.5c1.3-4.6,2.4-9.3,3.7-13.8
			c-5.6-1.4-11.1-2.4-16.8-3.2c-0.7-0.1,3.7,28.2-14.6,54c0,0,4,1.4,9.8,3.8c1.9-7,5.5-13.2,9.1-19.5
			C642.7,341.3,642.7,340.6,642.9,339.9z" style="fill:#1A1A1A;"/>
		<g>
			<path d="M537.9,335.7c-0.4,0-0.8-0.2-1-0.5c-0.4-0.6-0.3-1.3,0.3-1.7c9.8-6.9,44.7-29.6,84.8-31
				c11.1-0.4,22.1,0.7,32.6,3.1c0.7,0.2,1.1,0.8,0.9,1.5c-0.2,0.7-0.8,1.1-1.5,0.9c-10.3-2.4-21.1-3.5-32-3.1
				c-39.4,1.4-73.8,23.8-83.4,30.6C538.4,335.6,538.2,335.7,537.9,335.7z" style="fill:#1A1A1A;"/>
		</g>
		<g>
			<path d="M321.2,547.9c-6.1,0-11.8-0.4-16.8-1.2c-11.8-1.7-34.4-6.5-52.9-19.1c-0.6-0.4-0.7-1.1-0.3-1.7
				c0.4-0.6,1.1-0.7,1.7-0.3c18.1,12.4,40.3,17,51.9,18.7c30.4,4.4,83-3.1,130.9-38.9c31.7-23.6,50.2-52.4,66.5-77.7
				c8.2-12.8,16-24.9,24.5-34.6c27.1-31.1,67.6-44,105.4-33.8c0.7,0.2,1,0.8,0.9,1.5s-0.8,1-1.5,0.9c-37-10-76.4,2.6-103,33
				c-8.4,9.6-16.1,21.6-24.3,34.3c-16.5,25.5-35.1,54.5-67.1,78.4C396.5,537.7,352.5,548,321.2,547.9z" style="fill:#1A1A1A;"/>
		</g>
		<g>
			<path d="M260,528.5c-4.5,0-6.8-0.5-7.2-0.5c-0.7-0.1-1.1-0.8-0.9-1.5c0.1-0.7,0.8-1.1,1.5-0.9c0.1,0,7.3,1.5,22.2-1
				c13.7-2.2,36.9-8.4,69.4-24.8c62.6-31.6,123.3-99.7,123.9-100.4c0.4-0.5,1.2-0.6,1.7-0.1c0.5,0.4,0.6,1.2,0.1,1.7
				C470.1,401.8,409,470.2,346,502C300,525.3,272.1,528.5,260,528.5z" style="fill:#1A1A1A;"/>
		</g>
	</g>
</g>
<g>
	<path d="M248.4,250.5c-0.5,0-1-0.3-1.1-0.8c-0.2-0.6,0.1-1.3,0.7-1.6c26.6-9.8,57.2-13,91-9.4c0.7,0.1,1.2,0.7,1.1,1.3
		c-0.1,0.7-0.7,1.2-1.3,1.1c-33.4-3.5-63.6-0.4-89.9,9.2C248.7,250.5,248.6,250.5,248.4,250.5z" style="fill:#1A1A1A;"/>
</g>
<g>
	<path d="M344.7,302c-0.3,0-0.6-0.1-0.9-0.4c-16.4-16.2-41.7-37.4-69.2-46.9c-16.4-5.6-26-4.3-26.1-4.3
		c-0.7,0.1-1.3-0.4-1.4-1c-0.1-0.7,0.4-1.3,1-1.4c1.6-0.2,39.6-5.1,97.3,51.9c0.5,0.5,0.5,1.2,0,1.7C345.4,301.9,345,302,344.7,302z
		" style="fill:#1A1A1A;"/>
</g>
<g>
	<path d="M517.9,471.3c-0.1,0-0.2,0-0.4-0.1c-11-3.4-21.7-9.2-31.5-17.3c-0.5-0.4-0.6-1.2-0.2-1.7
		c0.4-0.5,1.2-0.6,1.7-0.2c9.6,7.9,20,13.6,30.7,16.9c0.6,0.2,1,0.9,0.8,1.5C518.9,470.9,518.4,471.3,517.9,471.3z" style="fill:#1A1A1A;"/>
</g>
<g>
	<g>
		<path d="M579.8,263.6c0,0,16.4-18.3,20.3-50.7c3.9-32.3,3-63.8,5.6-72.4c0,0,4.5-29.5,10.6-40.7c0,0,5.4,1.3,6.5-5.4
			s-0.4-12.1-5.6-9.3c0,0-1.3-8.4-8-5.2c0,0-3.2-6.5-8.6-2.2c0,0-4.3-7.8-11-0.6c-6.7,7.1-6,13.6-6,13.6s-6.9,1.1-14.7,23.1
			s-19,42.9-27.4,78.2s-11.6,46.1-11.6,46.1s1.7,12.7,17,23.7S579.8,263.6,579.8,263.6z" style="fill:#FECE2F;"/>
	</g>
	<g>
		<path d="M575.8,135c0,0-12.5,19.8-17.1,51.5c-5,34.4-11.2,60.9-19.4,65.1l-2.3-1.9c0,0,7.9-7,13.2-39.5
			s13-68.1,21.8-77.8L575.8,135z" style="fill:#FFFFFF;"/>
	</g>
	<g>
		<path d="M605.6,140.5c0,0,0-0.2,0.1-0.5l-4.5,1.4c0,0-3.6,0.5-5,32c-1,24.4,2.9,53.6-24.8,92.4l7.4-1.8
			c0.6-0.3,0.9-0.4,0.9-0.4s16.4-18.3,20.3-50.7C603.9,180.6,603,149.2,605.6,140.5z" style="fill:#FFFFFF;"/>
	</g>
	<g>
		<path d="M530.1,236.8l3.4,6.9c11.7-57.2,33.8-115.4,33.8-115.4l-2.7-3.7c-7.3,18.4-16.3,37.9-23.3,67.4
			C534.6,220.5,531.2,233,530.1,236.8z" style="fill:#FFFFFF;"/>
	</g>
	<g>
		<path d="M529.5,236.5c0,0,1.7,12.1,18.8,22.2c17,10.1,31.5,5,31.5,5s5.8,8-2.2,10.1c0,0,2.6,6.3-3.2,7.5
			c0,0,0.9,10.3-13.1,10.1c-14-0.2-30.6-11-38.4-18.8c-7.8-7.8-9.1-18.1-5-20.3c0,0-0.2-8.4,5.6-10.6
			C523.5,241.8,522.9,236.2,529.5,236.5z" style="fill:#FECE2F;"/>
	</g>
	<g>
		<path d="M534,246c-3.9-5.4-4.5-9.6-4.5-9.6c-6.7-0.2-6,5.4-6,5.4c-5.8,2.2-5.6,10.6-5.6,10.6c-3.3,1.8-3.1,9,1.3,15.8
			c0.9-4.9,3.1-9.7,6.2-13.6C528.3,250.8,532.2,248.7,534,246z" style="fill:#FFFFFF;"/>
	</g>
	<g>
		<path d="M551.7,260.5c2.6,1.2,4.6,9.9,4.3,13.4c-0.5,5.7-2.4,11.3-6.6,15.2c4,1.3,7.9,2.2,11.7,2.2
			c14,0.2,13.1-10.1,13.1-10.1c5.8-1.3,3.2-7.5,3.2-7.5c8-2.2,2.2-10.1,2.2-10.1S567.2,268.1,551.7,260.5z" style="fill:#FFFFFF;"/>
	</g>
	<g>
		<path d="M568.6,275.8c-7.7,0-18.2-2.1-27.8-9.7c-20.4-15.9-18.6-25.4-18.1-27.2c0.5-1.7,1.5-2.8,2.8-3.3
			c2.3-0.8,4.6,0.5,4.9,0.7c0.3,0.2,0.4,0.4,0.5,0.7c0,0.1,4.5,14.3,21.5,22.7c17,8.3,26,3.3,26.1,3.2c0.4-0.2,0.8-0.2,1.2,0
			c1.9,1.1,3,3.5,2.7,6c-0.3,2.8-2.1,4.9-4.9,5.7C575.5,275.3,572.3,275.8,568.6,275.8z M527.1,237.8c-0.2,0-0.5,0-0.7,0.1
			c-0.6,0.2-1,0.8-1.3,1.8c-1,3.3,1.4,12.1,17.3,24.5c14,11,29.7,9.6,34.6,8.1c2.6-0.8,3.1-2.8,3.1-3.6c0.1-1.3-0.3-2.5-1-3.3
			c-2.6,1.2-12.1,4.1-27.7-3.5c-16.4-8-21.6-20.9-22.6-23.7C528.4,238.1,527.7,237.8,527.1,237.8z" style="fill:#1A1A1A;"/>
	</g>
	<g>
		<path d="M564.8,283.8c-6.8,0-14.8-1.7-20.7-4.9c-20.4-11.1-24.4-21.4-25.7-24.8c-1.5-3.8-1.5-6.9-0.2-9.4
			c1.7-3.1,5.1-3.8,5.3-3.8c0.7-0.1,1.3,0.3,1.4,1c0.1,0.7-0.3,1.3-1,1.4c-0.1,0-2.5,0.5-3.6,2.6c-1,1.8-0.9,4.2,0.3,7.3
			c1.2,3.2,5,12.9,24.6,23.5c8.9,4.8,26,6.6,30.8,1.7c0.7-0.7,1.5-2,0.1-4.5c-0.3-0.6-0.1-1.3,0.5-1.7c0.6-0.3,1.3-0.1,1.7,0.5
			c2.1,3.8,0.6,6.2-0.5,7.4C575.4,282.7,570.5,283.8,564.8,283.8z" style="fill:#1A1A1A;"/>
	</g>
	<g>
		<path d="M567.6,117.3c0.2,0,0.5,0,0.7,0.1c0.3-0.8,0.6-1.6,0.9-2.3c0.3-0.6-0.1-1.3-0.7-1.6c-0.6-0.2-1.3,0.1-1.6,0.7
			c-0.5,1.2-1,2.4-1.5,3.7C566,117.5,566.7,117.3,567.6,117.3z" style="fill:#1A1A1A;"/>
		<path d="M563.6,122.6c-1.9,5-4,10.6-6.3,16.8c-15.3,40.8-28.5,97.2-28.7,97.8c-0.2,0.7,0.3,1.3,0.9,1.5
			c0.1,0,0.2,0,0.3,0c0.6,0,1.1-0.4,1.2-0.9c0.1-0.6,13.3-56.9,28.6-97.5c2.1-5.5,4-10.6,5.7-15.1
			C564.4,124.5,563.8,123.6,563.6,122.6z" style="fill:#1A1A1A;"/>
	</g>
	<g>
		<path d="M583.3,92.3c0,0-0.1,0-0.1,0c-0.7-0.1-1.2-0.7-1.1-1.3c0.1-0.5,1.5-13.5,10.1-17.1c2.8-1.2,5.5-0.7,7.5,1.4
			c3.6,3.7,4,11.5,1.9,15.9c-0.3,0.6-1,0.9-1.6,0.6c-0.6-0.3-0.9-1-0.6-1.6c1.8-4,1.1-10.5-1.5-13.2c-1.3-1.3-2.8-1.6-4.8-0.8
			c-7.3,3-8.6,14.9-8.6,15C584.5,91.9,583.9,92.3,583.3,92.3z" style="fill:#1A1A1A;"/>
	</g>
	<g>
		<path d="M605.5,95.7c-0.2,0-0.5-0.1-0.7-0.2c-0.5-0.4-0.7-1.2-0.3-1.7c0.1-0.1,5.4-7.5,3.2-13.1
			c-0.7-1.7-1.6-2.7-2.7-3c-1.9-0.5-4,1.1-4,1.1c-0.5,0.4-1.3,0.3-1.7-0.2c-0.4-0.5-0.3-1.3,0.2-1.7c0.1-0.1,3-2.4,6.1-1.5
			c1.9,0.5,3.3,2,4.3,4.4c2.7,6.8-3.2,15.1-3.5,15.4C606.2,95.6,605.9,95.7,605.5,95.7z" style="fill:#1A1A1A;"/>
	</g>
	<g>
		<path d="M610.2,99.3c-2.7,0-4.8-1.9-5.7-3.2c-0.4-0.6-0.2-1.3,0.3-1.7c0.6-0.4,1.3-0.2,1.7,0.3c0.1,0.1,2.2,3,5,1.8
			c2.6-1.1,4.3-7.5,3.3-12.7c-0.3-1.7-0.9-2.8-1.8-3.2c-1.3-0.6-3.1,0.3-3.7,0.7c-0.6,0.4-1.3,0.2-1.7-0.4c-0.4-0.6-0.2-1.3,0.4-1.7
			c0.1-0.1,3.2-2,5.9-0.8c1.7,0.7,2.8,2.4,3.3,5c1.1,5.9-0.6,13.7-4.8,15.4C611.7,99.2,611,99.3,610.2,99.3z" style="fill:#1A1A1A;"/>
	</g>
	<g>
		<path d="M604.2,141.1c-1,6.5-1.8,13.6-2.2,21.3c-0.3,4.6-0.5,9.3-0.6,13.7c-1.4,31.8-2.6,61.8-23.2,87.1
			c-0.4,0.5-0.3,1.3,0.2,1.7c0.2,0.2,0.5,0.3,0.8,0.3c0.4,0,0.7-0.2,1-0.5c21.1-25.9,22.4-56.3,23.8-88.5c0.2-4.5,0.4-9.1,0.6-13.7
			c0.4-8,1.3-15.4,2.3-22.2c-0.3,0.1-0.6,0.1-1,0.2C605.3,140.8,604.8,141,604.2,141.1z" style="fill:#1A1A1A;"/>
		<path d="M616.6,98.9c-0.6-0.3-1.3,0-1.6,0.6c-0.1,0.2-5.2,12-9,31.7c1,0,1.7,0.3,2.3,0.7c3.8-19.5,8.9-31.3,8.9-31.4
			C617.5,99.9,617.2,99.2,616.6,98.9z" style="fill:#1A1A1A;"/>
	</g>
	<g>
		<path d="M567.9,114.5c0,0,12.8,18.3,39.2,16.8c0,0,4.2,1.1,3.4,4.9c-1.4,6.6-20.6,5.5-32.9-0.6
			C561.3,127.4,557.7,114.3,567.9,114.5z" style="fill:#FFFFFF;"/>
		<path d="M599.4,141.9c-7,0-15.6-1.9-22.4-5.3c-11.9-6-17.1-14.3-15.9-19.2c0.7-2.7,3.1-4.2,6.8-4.2
			c0.4,0,0.8,0.2,1,0.5c0.1,0.2,12.7,17.7,38.1,16.3c0.1,0,0.3,0,0.4,0c1.8,0.5,5.1,2.5,4.3,6.3c-0.2,1.2-1.1,2.8-3.5,3.9
			C606,141.4,602.9,141.9,599.4,141.9z M567.3,115.7c-1.6,0.1-3.3,0.6-3.8,2.3c-0.8,3.3,3.3,10.8,14.6,16.4c9.4,4.7,23.2,6.5,29,3.7
			c1.2-0.6,2-1.3,2.2-2.2c0.5-2.2-1.7-3.1-2.4-3.4C582.8,133.8,569.7,118.8,567.3,115.7z" style="fill:#1A1A1A;"/>
	</g>
	<g>
		<path d="M537,251c-0.3,0-0.6-0.1-0.8-0.3c-0.5-0.4-0.6-1.2-0.1-1.7c0.1-0.1,9.3-11.5,14.9-51.4
			c5.7-40.7,19.8-65.5,19.9-65.8c0.3-0.6,1.1-0.8,1.7-0.5c0.6,0.3,0.8,1.1,0.5,1.7c-0.1,0.2-14,24.7-19.6,64.9
			c-5.7,40.8-15.1,52.2-15.5,52.6C537.7,250.8,537.3,251,537,251z" style="fill:#1A1A1A;"/>
	</g>
	<g>
		<path d="M594.9,210.6c-42.2,0-52-24.2-52.4-25.3c-0.2-0.6,0.1-1.3,0.7-1.6c0.6-0.2,1.3,0.1,1.6,0.7l0,0
			c0.1,0.3,10.4,25.6,55.2,23.6c0.7,0,1.2,0.5,1.3,1.2c0,0.7-0.5,1.2-1.2,1.3C598.3,210.6,596.6,210.6,594.9,210.6z" style="fill:#1A1A1A;"/>
	</g>
	<g>
		<path d="M566.8,290.6c0,0-27.3,47.9-61.3,81.4s-49.6,35.7-66.5,28c-14.4-6.6-20.5-22.4-21-32
			c-1.5-26,26.7-52.7,38.5-63c17.6-15.4,59-43.2,59-43.2s3.8,12.3,20.2,20.8S559.8,291.4,566.8,290.6z" style="fill:#FECE2F;"/>
	</g>
	<g>
		<path d="M421.8,384c0,0,17.1-20.9,49-51c34-32,61-52.4,61-52.4l-2.6-2.1c0,0-37.8,28.1-64.9,54.7
			c-27.2,26.7-43.8,45.9-43.8,45.9L421.8,384z" style="fill:#FFFFFF;"/>
	</g>
	<g>
		<path d="M561.2,291.4c0,0-15.5,26.9-53.8,69.9c-24.5,27.4-46.2,38.8-75.8,33.9c2.2,1.8,4.6,3.5,7.4,4.7
			c16.9,7.7,32.5,5.5,66.5-28s61.3-81.4,61.3-81.4L561.2,291.4z" style="fill:#FFFFFF;"/>
	</g>
	<g>
		<path d="M515.5,261.8c0,0-41.4,27.9-59,43.2c-11.8,10.3-40,37-38.5,63c0.2,3.2-2.8-18.2,37.7-55.7
			c27.2-25.2,61.3-45.7,61.9-46C514.9,262.4,515.5,261.8,515.5,261.8z" style="fill:#FFFFFF;"/>
	</g>
	<g>
		<path d="M454.2,404.9c-5.4,0-10.5-1.5-15.7-3.8c-16.1-7.3-21.2-24.8-21.7-33c-1.4-24.9,23.8-50.8,38.9-64
			c17.5-15.2,58.7-43,59.1-43.3c0.6-0.4,1.3-0.2,1.7,0.3c0.4,0.6,0.2,1.3-0.3,1.7c-0.4,0.3-41.5,28-58.9,43.1
			c-14.8,12.9-39.4,38.1-38.1,62c0.5,9,6.3,24.6,20.3,31c16.4,7.5,31.6,5.3,65.1-27.8c33.5-33,60.8-80.6,61.1-81.1
			c0.3-0.6,1.1-0.8,1.7-0.5c0.6,0.3,0.8,1.1,0.5,1.7c-0.3,0.5-27.8,48.4-61.5,81.6C482.1,396.8,467,404.9,454.2,404.9z" style="fill:#1A1A1A;"/>
	</g>
	<g>
		<path d="M514.3,364.4c-0.1,0-0.2,0-0.2,0c-42.5-8.1-58.6-58.5-58.8-59c-0.2-0.6,0.2-1.3,0.8-1.5
			c0.6-0.2,1.3,0.2,1.5,0.8c0.2,0.5,15.8,49.5,56.9,57.3c0.7,0.1,1.1,0.8,1,1.4C515.4,364,514.9,364.4,514.3,364.4z" style="fill:#1A1A1A;"/>
	</g>
	<g>
		<path d="M420.5,380.9c-0.3,0-0.5-0.1-0.8-0.3c-0.5-0.4-0.6-1.2-0.2-1.7c0.1-0.1,10.8-13,47.2-49.2
			c36.5-36.2,61.7-52,61.9-52.2c0.6-0.4,1.3-0.2,1.7,0.4c0.4,0.6,0.2,1.3-0.4,1.7c-0.2,0.2-25.2,15.8-61.5,51.8
			c-36.3,36.1-46.9,48.9-47,49C421.2,380.7,420.8,380.9,420.5,380.9z" style="fill:#1A1A1A;"/>
	</g>
	<g>
		<path d="M560.9,292.3c-5.3,0-13-1.5-23.2-7c-16-8.6-21.4-18.5-23.1-25.3c-1.4-5.8,1.7-8.5,3.6-9.1
			c0.6-0.2,1.3,0.1,1.5,0.8c0.2,0.6-0.1,1.3-0.8,1.5c-0.3,0.1-3.2,1.3-2,6.2c1.3,5.2,5.8,15.1,21.9,23.7c10.8,5.8,21,8,27.9,5.9
			c7.3-2.2,6.4-7.1,6.4-7.3c-0.1-0.7,0.3-1.3,1-1.4c0.7-0.1,1.3,0.3,1.4,1c0,0.1,1.3,7.3-8,10.1C566,291.9,563.8,292.3,560.9,292.3z
			" style="fill:#1A1A1A;"/>
	</g>
	<g>
		<path d="M568,115.8c-0.2,0-0.3,0-0.5-0.1c-0.6-0.3-0.9-1-0.7-1.6c6.4-16,9.9-21.2,15.9-24.1c6-2.9,15-2.6,20.1,0.7
			c2.5,1.6,3.8,3.7,3.8,6.2c0,1.5-0.6,2.7-1.7,3.8c-1.3,1.2-3.2,1.9-5.3,2.5c3,1,6.3,2.4,9.5,4.6c0.6,0.4,0.7,1.1,0.3,1.7
			c-0.4,0.6-1.1,0.7-1.7,0.3c-5.8-4-11.8-5.3-15.9-5.8c-2.7,0-4.8-0.1-5.3-0.1c-0.6-0.1-1.1-0.6-1.1-1.2s0.5-1.2,1.1-1.2
			c0.2,0,2.3-0.2,5.5,0.1c4.2-0.1,9.1-0.7,11.2-2.7c0.6-0.6,0.9-1.2,0.9-2c0-1.6-0.9-3-2.7-4.1c-4.4-2.8-12.5-3-17.8-0.5
			c-5.3,2.5-8.6,7.6-14.7,22.8C569,115.5,568.5,115.8,568,115.8z" style="fill:#1A1A1A;"/>
	</g>
	<g>
		<path d="M589.1,90.7c-0.1,0-0.2,0-0.4-0.1c-0.6-0.2-1-0.9-0.8-1.5l2.6-8.4c0.2-0.6,0.9-1,1.5-0.8
			c0.6,0.2,1,0.9,0.8,1.5l-2.6,8.4C590.2,90.4,589.7,90.7,589.1,90.7z" style="fill:#1A1A1A;"/>
	</g>
	<g>
		<path d="M617,101.4c-3,0-4.2-3.2-4.4-5c-0.1-0.7,0.4-1.3,1.1-1.3c0.7-0.1,1.3,0.4,1.3,1.1c0,0,0.3,3,2.1,2.8
			c1.4-0.1,2.3-1.3,2.9-2.2c1.6-2.7,1.9-6.9,0.7-9.7c-0.3-0.6-0.7-1.3-1.3-1.4c-0.7-0.1-1.8,0.7-2.1,1.2c-0.4,0.5-1.2,0.6-1.7,0.1
			c-0.5-0.4-0.6-1.2-0.1-1.7c0.2-0.2,2.1-2.3,4.4-2c1.3,0.2,2.4,1.2,3.1,2.9c1.5,3.5,1.2,8.6-0.8,11.9c-1.2,2-2.8,3.2-4.7,3.4
			C617.3,101.3,617.2,101.4,617,101.4z" style="fill:#1A1A1A;"/>
	</g>
</g>
<g>
	<path d="M434.3,76.7c-0.3,0-0.7-0.1-0.9-0.4c-16-18-45.2-27-45.5-27.1c-0.6-0.2-1-0.9-0.8-1.5c0.2-0.6,0.9-1,1.5-0.8
		c1.2,0.4,30.2,9.4,46.6,27.8c0.4,0.5,0.4,1.3-0.1,1.7C434.8,76.6,434.6,76.7,434.3,76.7z" style="fill:#1A1A1A;"/>
</g>
<g>
	<g>
		<g>
			<path d="M714.2,202.5c0,0-4.1-53.1-33.3-80.5c-29.2-27.4-56.1-32.8-56.1-32.8l-1.9-0.5c0.8,3.3-0.1,7.1-2.5,9.5
				c0.2,0.1,0.4,0.1,0.5,0.2c28.1,9.7,41.4,52.4,41.4,52.4s11,47.7,3.2,104.2c-7.8,56.5-26.8,91.4-26.8,91.4s-19.1,51.9-61.1,88.6
				c-42,36.6-59.8,34.9-59.8,34.9c12.8,4.5,29.5,5.6,29.5,5.6s43.1,5.5,83.1-30.6c40.1-36.1,49-61.4,70.7-121
				C722.9,264.5,714.2,202.5,714.2,202.5z" style="fill:#FFFFFF;"/>
		</g>
		<g>
			<path d="M680.9,122.1c-29.2-27.4-56.1-32.8-56.1-32.8l-1.9-0.5c0.3,1.4,0.3,3,0.1,4.4l0.2,1.7c0,0,53,19.5,70.4,66.5
				c21.5,58.2,4.7,166-27.7,218.9c-38.1,62.3-89.8,99.1-144.8,89.7l-0.4,0.9c12.3,3.7,26.6,4.7,26.6,4.7s43.1,5.5,83.1-30.6
				c40.1-36.1,49-61.4,70.7-121c21.7-59.6,13-121.5,13-121.5S710.1,149.5,680.9,122.1z" style="fill:#FECE2F;"/>
		</g>
		<g>
			<path d="M552.9,476.7c-11.6,0-23.4-1.9-35.4-5.5c-0.6-0.2-1-0.9-0.8-1.5c0.2-0.6,0.9-1,1.5-0.8
				c21.3,6.5,42.1,7.2,61.8,2.1c17.8-4.6,34.8-13.9,50.6-27.7c26.8-23.4,50-60.3,63.7-101.3c17.6-52.7,23.9-100.3,18.7-141.6
				c-5.2-42-20.6-64.2-29.4-73.8C658.9,99.5,623.3,90.1,623,90c-0.7-0.2-1-0.8-0.9-1.5c0.2-0.7,0.8-1,1.5-0.9
				c0.4,0.1,36.7,9.7,61.9,37.3c8.9,9.8,24.7,32.5,30,75.1c5.2,41.6-1.1,89.6-18.8,142.7c-13.8,41.4-37.3,78.7-64.4,102.4
				C608.1,466.1,581.2,476.8,552.9,476.7z" style="fill:#1A1A1A;"/>
		</g>
		<g>
			<path d="M517.9,471.3c-0.5,0-1-0.3-1.2-0.9c-0.2-0.6,0.2-1.3,0.8-1.5c36.3-10.6,68.8-37.1,96.3-78.7
				c20.1-30.3,33.7-63.6,39.3-82.9c13.5-47,21.1-118,5.9-162.8c-11.1-32.6-37.4-44.6-37.7-44.7c-0.6-0.3-0.9-1-0.6-1.6
				c0.3-0.6,1-0.9,1.6-0.6c0.3,0.1,27.6,12.6,39,46.2c11.2,32.9,13.7,96.4-5.9,164.3c-5.6,19.5-19.3,53-39.6,83.6
				c-27.9,42.1-60.8,68.9-97.7,79.7C518.1,471.2,518,471.3,517.9,471.3z" style="fill:#1A1A1A;"/>
		</g>
	</g>
	<g>
		<path d="M724.6,188.7c-0.6,0-1.2-0.5-1.2-1.2c-1.9-40.5-21.4-57.3-21.6-57.5c-0.5-0.4-0.6-1.2-0.2-1.7
			c0.4-0.5,1.2-0.6,1.7-0.2c0.8,0.7,20.5,17.7,22.5,59.2C725.8,188.1,725.3,188.7,724.6,188.7C724.6,188.7,724.6,188.7,724.6,188.7z
			" style="fill:#1A1A1A;"/>
	</g>
</g>
<g>
	<g>
		<g>
			<path d="M636.4,579.7c0,0-16.1,0.6-39.8,35.2c-23.7,34.6-11.9,73.7-22.7,99.4c-10.9,25.7-40.5,28.7-51.4,11.9
				c-10.9-16.8-14.6-32.4-1-69.7c11.4-31.1,53.9-51.4,53.9-51.4S614.9,584.6,636.4,579.7z" style="fill:#FFFFFF;"/>
		</g>
		<g>
			<path d="M575.4,605c0,0-8.9,4.3-19.7,11.8c2.5,3.5,6,7.9,8.4,14.6c12,32.6-13.7,78.8-37.3,99.5c0,0-0.1,0-0.1,0.1
				c13,11,37.5,6.1,47.1-16.7c10.9-25.7-1-64.8,22.7-99.4c14.6-21.3,26.3-29.7,33.2-33c0-0.1,0-0.2,0-0.4
				C607.7,588.3,575.4,605,575.4,605z" style="fill:#FECE2F;"/>
		</g>
		<g>
			<path d="M544.9,737.7c-3.9,0-7.9-0.8-11.7-2.4c-7.3-3.1-13.4-9-17.3-16.7c-4.3-8.5-5.9-19.1-4.5-30.6
				c6.3-51.2,41.9-82.6,123.1-108.3c0.1,0,0.2-0.1,0.3-0.1c0.6-0.2,1.3,0.2,1.5,0.8c0.2,0.6-0.2,1.3-0.8,1.5c0,0-0.1,0-0.1,0
				c-1.9,0.6-35.9,12.5-50.6,64.6c-2.6,9.2-3.3,20.3-3.9,31c-1.1,17.9-2.2,36.3-12.1,48.4C562.5,733.5,553.9,737.7,544.9,737.7z
				 M621.4,586.5c-70.3,24.5-101.7,54.6-107.5,101.7c-1.9,15.8,2.2,37.1,20.3,44.8c11.5,4.9,24.4,1.5,32.7-8.7
				c9.3-11.5,10.5-29.5,11.5-47c0.7-10.8,1.4-22,4-31.5c8.1-28.6,21.8-45.1,32-53.9C616.8,589.8,619.2,588,621.4,586.5z" style="fill:#1A1A1A;"/>
		</g>
	</g>
	<g>
		<path d="M514.3,737.7c-0.3,0-0.6-0.1-0.8-0.3c-21.7-19.7-12.8-49.6-12.7-49.9c0.2-0.6,0.9-1,1.5-0.8
			c0.6,0.2,1,0.9,0.8,1.5c-0.1,0.3-8.6,28.7,12,47.3c0.5,0.5,0.5,1.2,0.1,1.7C515,737.6,514.6,737.7,514.3,737.7z" style="fill:#1A1A1A;"/>
	</g>
	<g>
		<path d="M591.8,673.9c-0.6,0-1.2-0.5-1.2-1.1c-1.3-18.9,4.4-30.6,4.7-31.1c0.3-0.6,1-0.8,1.6-0.5
			c0.6,0.3,0.8,1,0.5,1.6c-0.1,0.1-5.7,11.6-4.4,29.8C593.1,673.2,592.6,673.8,591.8,673.9C591.9,673.9,591.8,673.9,591.8,673.9z" style="fill:#1A1A1A;"/>
	</g>
</g>
<g>
	<g>
		<path d="M212.8,564.6L86.2,598.9c16.4,41.6,25.6,82.7,25.6,82.7c93.2,12.6,125.7-41.9,125.7-41.9
			C222.6,597.7,212.8,564.6,212.8,564.6z" style="fill:#FECE2F;"/>
	</g>
	<g>
		<path d="M237.6,639.7c-2-5.5-3.8-10.8-5.6-16c0,0-1.1,5.3-2.3,7.4c-16.6,27.7-69.8,44.7-88,42.4
			c-4.6-0.6-10.1-2.8-10.4-7.4c-0.3-3.8,3.4-6.8,7.1-8c4.8-1.6,10.1-1.4,14.9-3.1s9-6.9,7.1-11.6c-2.1-5-9-5.3-14.4-4.8
			c-6.3,0.6-33.9,7.5-46-0.7c7.8,24.9,12,43.7,12,43.7C205.1,694.3,237.6,639.7,237.6,639.7z" style="fill:#FFFFFF;"/>
	</g>
	<g>
		<path d="M100.6,699.7c-0.5,0-1-0.4-1.2-0.9l-11.2-39.1c-0.2-0.6,0.2-1.3,0.8-1.5c0.6-0.2,1.3,0.2,1.5,0.8l11.2,39.1
			c0.2,0.6-0.2,1.3-0.8,1.5C100.8,699.6,100.7,699.7,100.6,699.7z" style="fill:#1A1A1A;"/>
	</g>
	<g>
		<path d="M95.2,710.1c-0.5,0-1-0.4-1.2-0.9l-7-25.3c-0.2-0.7,0.2-1.3,0.9-1.5c0.6-0.2,1.3,0.2,1.5,0.9l7,25.3
			c0.2,0.7-0.2,1.3-0.9,1.5C95.5,710.1,95.3,710.1,95.2,710.1z" style="fill:#1A1A1A;"/>
	</g>
	<g>
		<path d="M249,641.6c-0.5,0-1-0.4-1.2-0.9l-11.2-39.1c-0.2-0.6,0.2-1.3,0.8-1.5c0.6-0.2,1.3,0.2,1.5,0.8l11.2,39.1
			c0.2,0.6-0.2,1.3-0.8,1.5C249.2,641.6,249.1,641.6,249,641.6z" style="fill:#1A1A1A;"/>
	</g>
	<g>
		
			<ellipse transform="matrix(0.9681 -0.2506 0.2506 0.9681 -136.6781 53.5498)" cx="141.9" cy="563.5" rx="95" ry="26.5" style="fill:#FECE2F;"/>
	</g>
	<g>
		<path d="M135.3,537.8c-21.9,5.7-41.5,13-56.4,20.7c-12.5,8-19.2,15.9-17.6,22.2c3.7,14.2,47.8,15,98.6,1.8
			c21.9-5.7,41.5-13,56.4-20.7c12.5-8,19.2-15.9,17.6-22.2C230.3,525.5,186.1,524.7,135.3,537.8z" style="fill:#FFFFFF;"/>
	</g>
	<path d="M238.8,639.3c-13.9-38.8-23.4-70.4-24.6-74.6c14.8-9,22.9-18,21-25.4c-3.9-15-47.9-16.2-100.1-2.7
		c-24.7,6.4-47.2,15.1-63.4,24.5c-9.6,5.6-25.4,16.4-22.8,26.5c2.6,10,21.7,11.9,32.8,12.1c0.9,0,1.8,0,2.7,0c0.3,0,0.6,0,1,0
		c16.1,40.9,25.4,81.8,25.5,82.2c0.1,0.5,0.5,0.9,1,0.9c9.7,1.3,18.7,1.9,27,1.9c33.6,0,57-9.4,71.6-18.3
		c19.8-12.1,28-25.6,28.3-26.1C238.8,640,238.9,639.6,238.8,639.3z M81.6,597.2c-17.8-0.3-28.9-4.1-30.5-10.2
		c-1.6-6.2,6.3-14.8,21.7-23.7c16-9.3,38.3-17.9,62.8-24.2c24-6.2,46.8-9.3,64.3-9.3c18.5,0,31,3.4,32.8,10.2
		c3.4,13.2-35.3,35.2-84.5,47.9C123.8,594.2,100.1,597.5,81.6,597.2z M209.1,664.4c-17.8,10.8-48.9,22.4-96.2,16.2
		c-1.3-5.5-9-37.8-21.8-72.3c10.5,1.4,63.3,6.4,125.3-27.8c4.3,13.6,11.2,34.9,19.8,59.1C234.6,642,226.3,653.8,209.1,664.4z" style="fill:#1A1A1A;"/>
	<g>
		
			<ellipse transform="matrix(0.9681 -0.2506 0.2506 0.9681 -136.6781 53.5498)" cx="141.9" cy="563.5" rx="70.6" ry="19.7" style="fill:#1A1A1A;"/>
	</g>
</g>
<g>
	<path d="M443.3,165.9c-3.9-24.9-22.1-44.3-52.6-56.3c-0.6-0.2-1.3,0.1-1.6,0.7c-0.2,0.6,0.1,1.3,0.7,1.6
		c29.7,11.6,47.4,30.4,51.1,54.4c2.4,15.4-1.3,32.7-10.6,50.1c-9.6,17.7-25.1,35.6-45,51.6c-10.4,8.4-20.6,16.4-30.4,24.1
		c-14.1,11.1-27.5,21.6-40,32.1c0.7,0.4,1.3,1,1.8,1.7c0.1-0.1,0.2-0.2,0.3-0.2l11.9,12.3c0,0,4.5-3.3,12.7-6.7
		c-3.6-6.9-7.4-12.9-10.4-17.3c8.1-6.5,16.5-13.1,25.2-20c9.8-7.7,20-15.7,30.4-24.1C427.8,236.7,448.4,198.8,443.3,165.9z" style="fill:#1A1A1A;"/>
	<g>
		<path d="M364.6,55.2C296,39.8,219.2,87.2,219.2,87.2c1.3,5.6,1,11.1,1,11.1c7.5-1.5,54.4-9.9,117.6-1.2" style="fill:#FFFFFF;"/>
	</g>
	<g>
		<path d="M219.9,91.9c5.4-3.6,46-28.8,108.4-25.9c67,3.1,136.8,32.9,150.7,138.8l0,0c2.6-32.3-5.4-57.5-10.7-64
			c-7.6-9.3-33.3-69.6-103.6-85.5c-69.2-15.6-133.2,21.5-145.4,31.9L219.9,91.9z" style="fill:#FECE2F;"/>
	</g>
	<g>
		<path d="M409.7,326.7c-0.4,0-0.8-0.2-1-0.5c-0.4-0.6-0.2-1.3,0.3-1.7c24.8-16.5,46.8-45.4,58.9-77.1
			c13.5-35.3,14-71.1,1.6-100.8c-12.8-30.6-34.3-55.5-61.9-72c-25.8-15.4-55.6-22.8-86-21.5C262.9,55.5,219.4,89,219,89.3
			c-0.5,0.4-1.3,0.3-1.7-0.2c-0.4-0.5-0.3-1.3,0.2-1.7c0.4-0.3,44.5-34.3,104-36.9c30.9-1.3,61.1,6.2,87.4,21.9
			c28.1,16.8,49.9,42,62.9,73.1c12.7,30.3,12.2,66.8-1.5,102.6c-12.3,32.2-34.7,61.5-59.9,78.3C410.1,326.6,409.9,326.7,409.7,326.7
			z" style="fill:#1A1A1A;"/>
	</g>
</g>
<g>
	<path d="M390.2,112c-0.1,0-0.3,0-0.4-0.1c-73.3-28.6-169.4-12.7-170.4-12.6c-0.7,0.1-1.3-0.3-1.4-1
		c-0.1-0.7,0.3-1.3,1-1.4c1-0.2,97.8-16.1,171.7,12.7c0.6,0.2,0.9,1,0.7,1.6C391.1,111.7,390.7,112,390.2,112z" style="fill:#1A1A1A;"/>
</g>
<g>
	<path d="M363.7,218.5c13.8-2,26.3,12.6,28.2,40.1c2,27.9-8.5,48.3-23.4,47.3c-15-1-23.8-24.8-24.2-47.9
		C343.8,232.9,354.6,219.8,363.7,218.5z" style="fill:#FECE2F;"/>
</g>
<g>
	<g>
		<g>
			<path d="M375.4,227.2c2.4-0.3,4.7-0.2,7,0.4c-5.1-7-11.7-10.2-18.7-9.2c-9,1.3-19.9,14.5-19.4,39.5
				c0.4,22,8.4,44.6,22.2,47.6c-6.5-9.2-10.2-24.2-10.4-38.8C355.5,241.7,366.4,228.5,375.4,227.2z" style="fill:#FFFFFF;"/>
		</g>
	</g>
	<path d="M393.1,258.5c-1.2-17-6.4-30.1-14.7-36.8c-3-2.5-6.4-3.9-9.9-4.4c-0.2-0.1-0.5-0.1-0.8-0.1
		c-1.4-0.1-2.8-0.1-4.2,0.1h0c-5.2,0.7-10.4,4.9-14.1,11.4c-3,5.3-6.6,14.6-6.3,29.3c0.2,11.9,2.7,23.8,6.7,32.7
		c4.7,10.2,11.1,15.9,18.6,16.4c0.4,0,0.7,0,1.1,0c4.6,0,8.9-1.9,12.6-5.5C390.3,293.3,394.4,277.2,393.1,258.5z M390.4,255.4
		c-3.8-1.1-7.4-1.7-11-1.8c-1.7-19.3-6-29-8.6-33.3c2.1,0.7,4.2,1.7,6.1,3.3C384,229.3,388.8,240.8,390.4,255.4z M363.8,219.7
		L363.8,219.7c1.2-0.2,2.4-0.2,3.5-0.1c1.4,1.8,7.4,10.7,9.6,33.9c-14.9,0.1-27,7.1-31.2,9.8c-0.1-1.8-0.2-3.6-0.3-5.4
		C345,232.1,356.5,220.8,363.8,219.7z M368.5,304.6c-8.2-0.6-13.6-8.5-16.6-15c-3-6.5-5.1-14.8-6-23.5c2.2-1.5,15-10.1,31.2-10.2
		c0.1,0.8,0.1,1.7,0.2,2.6c1.8,29.3-4.5,44.4-5.2,45.8C371,304.6,369.8,304.7,368.5,304.6z M380.3,299.8c-1.6,1.6-3.4,2.8-5.2,3.6
		c1.9-5.2,6.1-19.9,4.6-45.1c0-0.8-0.1-1.6-0.2-2.4c3.6,0.2,7.3,0.8,11,2c0,0.2,0,0.4,0.1,0.6C391.9,276.7,388.1,292.1,380.3,299.8z
		" style="fill:#1A1A1A;"/>
	<g>
		<g>
			
				<ellipse transform="matrix(0.9743 -0.225 0.225 0.9743 -53.8049 85.1171)" cx="346.5" cy="278.6" rx="7.6" ry="23.9" style="fill:#FFFFFF;"/>
		</g>
		<g>
			
				<ellipse transform="matrix(0.9743 -0.225 0.225 0.9743 -54.4128 85.1016)" cx="346.1" cy="281.2" rx="3.7" ry="15.1" style="fill:#1A1A1A;"/>
		</g>
		<path d="M360.3,274.4c-2.7-11.9-8.7-23.8-14.2-22.5c-0.1,0-0.1,0-0.2,0.1l-5.2,2.2c-5.4,1.5-5.5,14.7-2.8,26.4
			c2.6,11.3,8.1,22.6,13.4,22.6c0.3,0,0.6,0,0.8-0.1c0.2-0.1,0.5-0.1,0.7-0.2c0,0,0,0,0.1,0c0.2,0,0.3,0,0.5-0.1l4.2-1.9
			C362.4,298.3,363.4,288.2,360.3,274.4z M340.3,280c-3.1-13.3-1.6-22.4,0.9-23.5c0.7,0.2,2.7,1.1,5.1,4c2.3,3.5,4.7,9.1,6.5,16.6
			c3.2,13.7,1.5,22.9-1.1,23.5C349,301.3,343.4,293.7,340.3,280z" style="fill:#1A1A1A;"/>
	</g>
	<path d="M431.2,188.1c-2,0-3.6,1.6-3.6,3.6c0,0.3,0.1,0.6,0.1,0.9l-3.6,2.2l-2.3,1.4l-1.1,0.7l-1.1,0.8l-4.4,3.1
		c-0.7,0.5-1.5,1-2.2,1.6L411,204l-4.2,3.4l-3.9,3.7c-0.6,0.6-1.3,1.2-2,1.8l-1.8,2c-1.2,1.3-2.5,2.6-3.7,4
		c-4.7,5.4-8.9,11.3-12.6,17.5c-0.9,1.5-1.8,3.1-2.6,4.7c-0.8,1.5-1.5,3-2.2,4.5c-1.7,0-3.4,0.9-4.9,2.6c-1.6,1.8-2.8,4.4-3.4,7.3
		c-0.6,2.9-0.6,5.7,0.1,8c0.8,2.6,2.3,4.2,4.2,4.6c0.3,0.1,0.6,0.1,0.9,0.1c1.6,0,3.3-0.9,4.8-2.6c1.6-1.8,2.8-4.4,3.4-7.3
		c0.6-2.9,0.6-5.7-0.1-8c-0.3-0.9-0.6-1.6-1-2.3c0-0.1,0-0.1,0.1-0.2c0.7-1.6,1.3-3.2,2.1-4.7c0.8-1.6,1.5-3.1,2.4-4.6
		c3.3-6.1,7.2-11.9,11.6-17.2c1.1-1.4,2.3-2.6,3.4-3.9l1.7-2c0.6-0.6,1.2-1.2,1.8-1.8l3.7-3.7l3.9-3.4l2-1.7
		c0.7-0.6,1.4-1.1,2.1-1.6l4.2-3.2l1-0.8l1.1-0.7l2.2-1.4l3.6-2.4c0.6,0.4,1.3,0.7,2.1,0.7c2,0,3.6-1.6,3.6-3.6
		C434.8,189.7,433.2,188.1,431.2,188.1z" style="fill:#1A1A1A;"/>
	<path d="M411.4,183.8c-2,0.2-3.5,1.9-3.3,3.9c0,0.3,0.1,0.6,0.2,0.9l-3.4,2.5l-2.2,1.6l-1.1,0.8l-1,0.9l-4.1,3.4
		c-0.7,0.6-1.4,1.1-2,1.7l-1.9,1.9l-3.9,3.7l-3.6,4c-0.6,0.7-1.2,1.3-1.8,2l-1.7,2.1c-1.1,1.4-2.3,2.8-3.3,4.2
		c-0.8,1.1-1.6,2.3-2.4,3.4c1.2,0.6,2.2,1.5,2.9,2.6c0.8-1.3,1.6-2.6,2.5-3.8c1-1.5,2.1-2.8,3.1-4.2l1.6-2.1c0.5-0.7,1.1-1.3,1.7-2
		l3.4-4l3.7-3.7l1.8-1.9c0.6-0.6,1.3-1.2,1.9-1.8l3.9-3.5l1-0.9l1-0.8l2.1-1.6l3.4-2.6c0.6,0.4,1.3,0.5,2.1,0.5
		c2-0.2,3.5-1.9,3.3-3.9C415.1,185.1,413.3,183.7,411.4,183.8z" style="fill:#1A1A1A;"/>
</g>
<g>
	<g>
		<path d="M584.3,89.5c0.1-0.1,0.3-0.1,0.4-0.2c0.3-0.2,0.6-0.3,1-0.3c0.6-0.1,1.1-0.4,1.7-0.5c0.3-0.1,0.6-0.1,1-0.1
			c0.8-2.7,1.5-5.4,2.7-8c-4.1-2.6-19-11.7-30.8-18.6c-13.8-8.1-31.5-12.4-31.5-12.4s-28.4-5.5-36.2,15.3
			c-7.7,20.7,11.5,25,19.2,27.4s50.8-3,50.8-3s8.2-0.1,19.9,1.2C582.9,89.9,583.5,89.6,584.3,89.5z" style="fill:#FFFFFF;"/>
	</g>
	<g>
		<path d="M591.1,80.4c-4.1-2.6-19-11.7-30.8-18.6c-13.8-8.1-31.5-12.4-31.5-12.4s-28.4-5.5-36.2,15.3
			c-2,5.4-2.2,9.7-1.2,13.2c3.2-3.9,3.8-8.9,6.1-13.6c3.5-7.2,11.5-10.2,18.9-7c4.2,1.8,7.6,5.4,9.7,9.5c1.7,3.4,2.9,7.5,6.2,9.4
			c3.6,2.1,8.2,0.8,12.2-0.3c6-1.7,12.3-2.7,18.4-1.6c9.4,1.6,17.5,7.7,26.6,10.4C589.9,83.2,590.4,81.8,591.1,80.4z" style="fill:#FECE2F;"/>
	</g>
	<g>
		<path d="M550,55.1c-9.8-5-20.2-7.7-29.4-7.7c0,0-0.1,0-0.1,0c-10.8,0-19.5,3.7-25.3,10.7c-5.7,6.9-7.2,15.3-4,22.5
			c3.4,7.7,11.4,12.5,21.2,12.9c1.1,0,2.3,0.1,3.4,0.1c7.2,0,15.9-0.6,25-1.3c14.8-1.1,30-2.1,39.3-0.4c0.1-0.1,0.3-0.3,0.5-0.4
			c0.4-0.4,1-0.6,1.6-0.8c0.3-0.3,0.6-0.5,0.9-0.7c-9.3-2.5-26.1-1.4-42.4-0.2c-10.5,0.8-20.5,1.5-28.1,1.2
			c-8.9-0.3-16-4.6-19.1-11.4c-2.9-6.4-1.5-13.6,3.7-19.9c11.6-14,34.4-11.2,51.9-2.3c19.2,9.8,36.9,21.3,41.6,24.4
			c0.2-0.5,0.5-0.9,0.8-1.4c0.1-0.2,0.9-0.1,1-0.3C587.2,76.7,569,64.8,550,55.1z" style="fill:#1A1A1A;"/>
	</g>
	<g>
		<path d="M493.4,45.5c-0.3,0-0.6-0.1-0.9-0.4c-0.5-0.5-0.4-1.3,0-1.7c0.2-0.2,18.9-17.4,50.4-3.1
			c0.6,0.3,0.9,1,0.6,1.6c-0.3,0.6-1,0.9-1.6,0.6c-29.9-13.6-47,2-47.7,2.6C494,45.4,493.7,45.5,493.4,45.5z" style="fill:#1A1A1A;"/>
	</g>
</g>
</svg>
