<?xml version="1.0" encoding="utf-8"?>
<!-- Generator: Adobe Illustrator 22.0.0, SVG Export Plug-In . SVG Version: 6.00 Build 0)  -->
<svg version="1.1" id="Layer_6" xmlns="http://www.w3.org/2000/svg" xmlns:xlink="http://www.w3.org/1999/xlink" x="0px" y="0px" viewBox="0 0 800 800" style="enable-background:new 0 0 800 800;" xml:space="preserve">

<path d="M498.6,685.8C327,660.2,313.1,727.3,215,674.6c-103-55.3-226.6-226.5-63.5-487.2
	c109.4-174.9,303.7-128.3,381.5,1.7c95.8,160.3,213.9,92.7,221,276.9C758.9,595.4,570.4,696.5,498.6,685.8z" style="fill:#FECE2F;"/>
<ellipse cx="382.6" cy="661" rx="313.6" ry="59.8" style="fill:#FFFFFF;"/>
<g>
	<g>
		<path d="M318.7,302.2c0,0-10.3,42.9-16.5,51.7l-24.3-22.3l11.8-28.7l3.7-10.9l25.3,5.5V302.2z" style="fill:#FECE2F;"/>
	</g>
	<g>
		<path d="M383.7,568.3l2,22.9h-14.2c0,0-11.4-2.1-11.4-3.2c0-1.1,2.1-3.5,2.1-3.5l-1.6-16.1L383.7,568.3L383.7,568.3z" style="fill:#FECE2F;"/>
	</g>
	<path d="M390.5,606.2l-4.3-20.5l-1.5-17.5c0-0.6-0.6-1-1.2-1s-1,0.6-1,1.2l1.4,16.9c-6.6,4.4-11.5,4.8-14,3.6
		c-1.1-0.6-1.8-1.5-1.8-2.6c-0.1-2.2-1.2-4.3-3-5.4c-0.6-0.4-1.3-0.7-2.1-0.8l-0.8-6.5l20.3-4.4l-20.9-1l0-0.2
		c-0.1-0.6-0.6-1-1.2-0.9s-1,0.6-0.9,1.2l1.5,11.8c-0.6,0.1-1.1,0.3-1.7,0.5c-1,0.4-3.3,1.6-6.5,3.2c-7.5,3.9-20.1,10.4-27.8,12.1
		c-1.4,0.3-2.7,0.7-3.8,1.3c-3,1.4-3.8,4.4-3.2,6.8c0.6,2.4,2.6,4.7,5.9,4.7c0,0,0.1,0,0.1,0l65.6-1.1c0.3,0,0.6-0.1,0.8-0.4
		C390.5,606.8,390.6,606.5,390.5,606.2z" style="fill:#191919;"/>
	<g>
		<polygon points="491.9,558.7 501.2,589.4 489.7,602.7 476.7,594.4 466.5,567.8 		" style="fill:#FECE2F;"/>
	</g>
	<g>
		<path d="M361.3,187.9c0,0-29.2-4.3-55.7,0.5c-26.5,4.8-49.8,16.8-65.8,30.6c-16,13.8-19.3,31.5-7.9,47.3
			c11.4,15.7,38.3,32.3,61.7,37.6c0,0,0.2-11.6,2.1-17.5c1.9-5.9,6.3-12.2,6.3-12.2L275,257c0,0,23.5-2.3,34-5.4l-8.5,21.3
			c0,0,14.8,8.3,18.3,8.8c3.4,0.6,18.1-19.8,21.2-24.8c3.1-5,8-18.6,8-19.3s1.9-18.7,1.9-18.7l5.9-16.7L361.3,187.9z" style="fill:#FECE2F;"/>
	</g>
	<path d="M282.8,298.9c-1.2-1-2.1-2.5-2.8-4.7c0-0.1-0.1-0.3-0.1-0.5c-0.5-1.5-1-3.1-2.4-4.2c-0.9-0.7-2.2-1.1-3.8-1.2
		c-0.8,0-1.6,0-2.4,0.1c-1,0.1-1.9,0.1-2.8,0c-1.3-0.1-2.9-0.7-3.5-1.9c-0.6-1.2-0.2-2.7,0.2-4.1l0.1-0.5c0.9-3.5-0.2-5.3-1.2-6.2
		c-0.8-0.7-1.9-1-2.7-1.2c-2.6-0.7-4.3-0.8-6-0.9c-2.5-0.1-5.2-0.3-11.3-1.9c-2.9-0.8-9.3-4.4-10-5c-0.4-0.4-1-0.3-1.5,0
		c-0.4,0.4-0.4,1-0.1,1.5c1,1.2,2.1,2.2,3.2,3.1c0.6,0.5,1.2,1,1.7,1.5c1.6,1.5,3.2,2.9,4.7,4.2c1.2,1,2.4,2.1,3.7,3.3
		c1.6,1.5,4.5,3.7,6.3,4.9c1.4,0.9,2.8,1.9,4.2,2.8c2.8,1.9,5.7,3.9,8.9,5.6l1,0.6c5.3,2.9,9.8,5.3,15.8,6.7c0.1,0,0.1,0,0.2,0
		c0.4,0,0.8-0.2,1-0.6C283.3,299.8,283.2,299.3,282.8,298.9z" style="fill:#FFFFFF;"/>
	<g>
		<path d="M400,187.5l1.3,58.8l6.9,61.7c0,0-13.8,0-14.2,0s-19.6,0.6-20.2,0.7c-0.6,0-26.4,2.4-26.4,2.4l-31.8,5l3-13.8
			v-20.4l4.7-5.5l18.2-21.8l6.9-11l7.1-14.6l4.7-17.7l1.1-23.3L400,187.5z" style="fill:#FFFFFF;"/>
	</g>
	<g>
		<path d="M520.4,153.7c0,0,0.4,9.4,26.1,23.5c0,0-5.8,21.7-20.2,39.6c-14.4,17.9-45,43.4-94.8,45l17.9,64
			c0,0-17.3,18.1-29.8,20.6c0,0-13.9-44.8-17.7-71.3c-3.8-26.5-5-78.4-1.8-87.6c0,0,11.8-0.1,36.4,3.3c24.6,3.4,40.7,8.1,57.9-0.2
			C503.2,186.2,520.4,153.7,520.4,153.7z" style="fill:#FECE2F;"/>
	</g>
	<path d="M326.5,185.3c-16.6,1.3-35.3,5.7-52.5,12.4c-5.7,2.2-10,4.2-13.9,6.3c-5.9,3.3-11.5,7.6-16.2,11.3
		c-2.5,2-5.2,4.1-7.7,6.6c-1.3,1.3-2.4,2.6-3.4,3.9c-0.5,0.7-3.4,4.4-3.5,4.4c-0.3,0.4-0.3,1,0.1,1.5c0.2,0.2,0.5,0.3,0.7,0.3
		s0.5-0.1,0.7-0.3c0.3-0.2,0.5-0.5,0.8-0.9c1-1.2,3.2-4.1,13.4-11.4c5.2-3.7,11.2-6,15.9-7.6c3.1-1,6.3-1.9,9.7-2.7
		c10.6-2.3,21.6-2.9,32.3-3.5c4.7-0.3,9.6-0.6,14.4-1c1.3-0.1,3.1-0.3,4.6-1.2c1.5-1,2.7-3.1,1.9-5c-0.4-1.1-1.3-1.7-2.1-2.3
		c-0.4-0.3-0.7-0.6-1-0.8c-1.1-1.2-0.9-3.2-0.3-4.6c1.2-2.6,3.8-3,6.1-3.2c0.6,0,1-0.6,1-1.2C327.6,185.7,327.1,185.2,326.5,185.3z" style="fill:#FFFFFF;"/>
	<path d="M499.8,185.8c-0.4-0.3-1.1-0.3-1.5,0.1c-3.2,3.5-9.6,7.9-14.1,8.7c-4.1,0.8-5.5,0.6-21.7-1.1
		c-2.1-0.2-4.5-0.5-7.2-0.8c-0.6-0.1-1.1,0.3-1.2,0.9c-0.1,0.6,0.3,1.1,0.8,1.2c2.8,0.7,6.7,1.8,9.4,2.8c0.1,0,0.3,0.1,0.6,0.2
		c1.9,0.6,7.8,2.2,11.5,6.8c0.6,0.7,1.1,1.5,1.7,2.2c1.4,2,2.9,4.1,5.2,5.4c1.2,0.6,2.5,0.9,3.8,0.9c0.9,0,1.9-0.1,2.7-0.5
		c2.1-0.8,3.9-2.5,4.7-4.6c0.6-1.6,0.7-3.2,0.8-4.9c0-0.2,0-0.4,0-0.6c0.3-5.6,2.1-11.6,4.6-15.5
		C500.4,186.7,500.3,186.1,499.8,185.8z" style="fill:#FFFFFF;"/>
	<g>
		<path d="M524.4,145c0,0,10.5,13,24.2,19l-4.6,11.8c0,0-18.9-9.2-23.7-22.1L524.4,145z" style="fill:#FFFFFF;"/>
	</g>
	<g>
		<path d="M524.4,145c0,0,7.9-17.2,10.7-22.1s10.1-10.5,10.1-10.5l4.2-9.2c0,0,1.1-4.7,2-4.3s1.6,4.3,1.7,5.7
			c0.1,1.5,7.2-8,9.5-6c2.3,1.9-2.2,7.2-2.2,7.2s8.2-4.1,9-2.2c0.9,1.8-6.8,7.4-7.1,7.6c-0.3,0.2-14.1,8.7-12.8,14.9
			c1.3,6.3,17.1,7.3,17.1,7.3s8.9,2.3,7.5,4.6c-1.4,2.3-8.7,1.7-9.2,1.9c-0.5,0.1-8.2-1.4-10.9,3.5c-2.7,4.9-7.8,19.7-7.8,19.7
			S530.1,153.6,524.4,145z" style="fill:#FECE2F;"/>
	</g>
	<g>
		<polygon points="393.5,169 395.2,182.3 379.3,193.2 366.1,182.3 367.2,167.7 		" style="fill:#FECE2F;"/>
	</g>
	<g>
		<polygon points="395.2,182.3 400,187.5 390.3,203.1 379.3,193.2 		" style="fill:#FFFFFF;"/>
	</g>
	<g>
		<polygon points="379.3,193.2 366.1,182.3 361.3,187.9 367.5,202.8 		" style="fill:#FFFFFF;"/>
	</g>
	<g>
		<path d="M361.3,187.9l0.6,12.5l-3.8,22.1l-6.2,14l-8.2,13.6l1.3-11.4l-1.3-21c0,0-1-2.9,2.9-3.5
			c3.8-0.6,5.8-1,2.4-4.1c-3.4-3.1-6.5-4.2-1.6-9.3C352.2,195.8,361.3,187.9,361.3,187.9z" style="fill:#FECE2F;"/>
	</g>
	<g>
		<path d="M311,279.2l7.7,2.5l10-3.8l14,4.9l9.6,6.2c0,0-1,1.8-4.4,1c-3.4-0.8-9-1.9-9-1.9s4.5,3.7,4.7,3.9
			c0.3,0.2,7,5.3,7,5.3s-1.7,1.8-3.5,1.4c-1.8-0.3-0.9,0.6-0.9,0.6s0.7,2.4-4.3,1.9c-5-0.5-13.7-3.4-13.7-3.4l8.1,7.4
			c0,0-1.1,1.8-3.7,0.8c-2.7-1-8.6-5-8.6-5s-7.7,2.1-10.3,1.5c-2.7-0.5-9.1-3.3-9.1-3.3S306.4,285.1,311,279.2z" style="fill:#FECE2F;"/>
	</g>
	<g>
		<path d="M302.1,274.2l8.4,4.9c0,0-5.4,9.9-5.9,20.2l-10.7-2.8C293.9,296.4,295.7,280,302.1,274.2z" style="fill:#FFFFFF;"/>
	</g>
	<g>
		<path d="M316.7,325.3c0,0,24.2-4.6,52.3-7.8c28.1-3.2,41-1.5,41-1.5l22.9,23.4l59,219.3l-38.7,13.7L410,449.1
			l-34.4-93.4l2.4,73.3l5.6,139.3h-35.9l-11.2-80.1l-11.9-84.9L316.7,325.3z" style="fill:#FECE2F;"/>
	</g>
	<g>
		<polygon points="374.4,336.3 368.3,337.1 366.4,318.1 363.4,318 364.8,340.9 374.7,340.9 		" style="fill:#FFFFFF;"/>
	</g>
	<g>
		<path d="M320.8,324.5L352,568.3h-4.2c0,0-15.4-97.4-20.2-143.4l-10.8-99.5L320.8,324.5z" style="fill:#FFFFFF;"/>
	</g>
	<g>
		<polyline points="427.7,342.4 484.9,561.2 491.9,558.7 432.9,339.5 427.7,342.4 		" style="fill:#FFFFFF;"/>
	</g>
	<g>
		<path d="M410.2,215.8l-7.8,39.6l10.9-31.8C413.3,223.5,415.7,218.1,410.2,215.8" style="fill:#FFFFFF;"/>
	</g>
	<g>
		<path d="M343.4,215.6c-0.5,0.6,1.3,26.5,1.3,26.5l3.5-28.2C348.2,213.9,344.9,214,343.4,215.6z" style="fill:#FFFFFF;"/>
	</g>
	<path d="M410,315L410,315c-0.1,0-0.1,0-0.2,0l-1.2-5.8c0.3-0.2,0.5-0.5,0.6-0.9c0-0.6-0.4-1.1-1-1.1
		c-40.5-2.1-84.3,6.1-92.6,7.8c-0.6,0.1-1,0.7-0.9,1.3c0.1,0.5,0.6,0.9,1,0.9c0,0,0.1,0,0.1,0l0.7,7.2c0,0-0.1,0-0.1,0
		c-0.6,0.1-0.9,0.7-0.8,1.3c0.1,0.5,0.6,0.9,1,0.9c0.1,0,0.1,0,0.2,0c34.6-7.8,76.6-9.1,93.1-9.3c0.6,0,1.1-0.5,1.1-1.1
		C411.1,315.5,410.6,315,410,315z" style="fill:#191919;"/>
	<g>
		<path d="M374,316.2l-10.7,0.9c-2,0.1-3.7-1.5-3.7-3.5v-0.1c0-1.8,1.4-3.2,3.2-3.4l10.7-0.7c2.1-0.1,3.8,1.5,3.7,3.6
			l0,0C377,314.7,375.7,316.1,374,316.2z" style="fill:#FECE2F;"/>
	</g>
	<g>
		<g>
			<polygon points="385.2,199.2 381.8,206.2 383.1,226.7 387.1,281.2 374.4,298.7 361.9,278.6 375.7,205.3 373.2,198.4 
				379.3,193.2 			" style="fill:#FECE2F;"/>
		</g>
		<path d="M382.9,206.4l3.3-6.8c0.3-0.5,0-1.2-0.5-1.5c-0.5-0.3-1.2,0-1.5,0.5l-3.1,6.3l-4.7-0.7l-2.2-6.3
			c-0.2-0.6-0.8-0.9-1.4-0.7s-0.9,0.8-0.7,1.4l2.3,6.7l-13.8,73.9c0,0.3,0,0.6,0.1,0.8l12.7,19.3c0.2,0.3,0.5,0.5,0.9,0.5h0
			c0.3,0,0.7-0.1,0.9-0.4l12.7-16.9c0.1-0.2,0.2-0.4,0.2-0.7L382.9,206.4z M376.5,206.5l4.3,0.6l0.7,10.6l-8.6,8.1L376.5,206.5z
			 M382.1,226.5l0.6,8.1l-13.9,13.1l2.5-13.2L382.1,226.5z M383.3,243.4l0.4,6.3l-18.5,17l2.2-11.6L383.3,243.4z M363.6,275.4
			l20.8-15.9l0.4,5.8l-19.3,18l-2.7-4L363.6,275.4z M374.4,296.8l-6.2-9.4l17.2-12.9l0.5,6.9L374.4,296.8z" style="fill:#191919;"/>
	</g>
	<path d="M595.4,105.5h-26.7c-0.6,0-1.1,0.5-1.1,1.1v26.7c0,0.6,0.5,1.1,1.1,1.1h26.7c0.6,0,1.1-0.5,1.1-1.1v-26.7
		C596.5,106,596,105.5,595.4,105.5z" style="fill:#191919;"/>
	<g>
		<path d="M315.7,317.1c-0.1,0-0.1,0-0.2,0c-0.6-0.1-1-0.7-0.8-1.3l3-13.8c0.1-0.6,0.7-1,1.3-0.8c0.6,0.1,1,0.7,0.8,1.3
			l-3,13.8C316.7,316.8,316.2,317.1,315.7,317.1z" style="fill:#191919;"/>
	</g>
	<path d="M353.3,287.6c-5.1-3.8-21.6-10.7-24.1-10.7c0,0,0,0,0,0c-1.2,0-3.7,0.9-6,1.8c3.6-4,9.5-10.6,15.6-18.7
		c0,0,0,0,0.1-0.1c0.7-0.9,1.3-1.8,1.9-2.7c4.4-6.2,8.8-13,12.4-20c11.8-23.2,9.6-49,9.6-49.6l0,0l0,0c0,0,0,0,0-0.1l0,0
		c0,0,0-0.1,0-0.1c0,0,0,0,0,0c0,0,0,0,0-0.1l0,0c0,0,0-0.1,0-0.1c0,0,0,0,0,0c0,0,0,0,0-0.1c0,0,0,0,0,0l0,0l0,0l0,0
		c0,0,0,0-0.1-0.1c0,0,0,0-0.1-0.1l0,0c0,0,0,0-0.1,0l0,0c0,0,0,0-0.1-0.1l0,0c0,0-0.1,0-0.1,0s0,0,0,0c0,0,0,0,0,0l0,0
		c0,0-0.1,0-0.1,0c0,0-0.1,0-0.1,0l0,0l0,0l0,0c-0.8-0.1-34.9-4.1-59.7,1.3c-19.2,4.3-37.2,11.5-50.7,20.5
		c-15,10-24.2,21.7-26.5,33.9c-2.4,12.3,3.9,25.2,18.1,37.1c11.5,9.8,27.9,18.3,45.5,23.8c-7.2,18.6-11.4,27.7-11.5,27.7
		c-0.2,0.4-0.1,0.9,0.3,1.3l24.3,22.3c0.2,0.2,0.4,0.3,0.7,0.3c0.1,0,0.1,0,0.2,0c0.3-0.1,0.6-0.3,0.8-0.6
		c9.3-20.4,15.4-46.7,16.4-51.3c0.8-0.2,1.6-0.4,2.5-0.6c0.6-0.1,1.3-0.3,1.7-0.4c0.1,0.1,0.1,0.1,0.2,0.2c3,2.3,7.3,5.2,10.5,5.2
		c0.2,0,0.4,0,0.7,0c1-0.1,1.9-0.6,2.5-1.4c0.3-0.5,0.3-1.2-0.2-1.5l-6.3-5c4.1,1.3,9.3,2.8,12.4,2.9c0.1,0,0.3,0,0.4,0
		c1.1,0,2-0.3,2.7-1c0.6-0.6,0.8-1.3,0.9-1.8c0,0,0.1,0,0.1,0c0.2,0,0.4,0,0.6,0c1.6,0,3.2-0.8,3.7-1.9c0.3-0.8,0.1-1.6-0.6-2.1
		c-2.2-1.6-5.8-3.9-9.1-6c3.3,1,6.7,1.9,8.8,1.9l0,0c1.4,0,2.5-0.7,2.8-1.8C354,289.1,354,288.1,353.3,287.6z M351.1,236.4
		c-1.9,3.7-4,7.3-6.2,10.8c2.1-8.9,0.8-18-0.1-24.3c-0.4-2.9-0.9-6-0.5-6.7c0.7-1.3,1.8-1.3,3.5-1.2c1.4,0.1,3.3,0.2,4-1.6
		c0.9-2.1-0.9-3.2-2.4-4.2c-1.3-0.9-2.8-1.9-3.5-3.6c0-0.1-0.7-1.9,7.4-9.4c2.7-2.5,5.5-4.9,7.2-6.2
		C360.8,196.4,360.8,217.2,351.1,236.4z M226.9,242.8c2.2-11.6,11-22.8,25.6-32.4c13.3-8.8,31.1-16,50-20.2
		c20.6-4.6,47.9-2.4,56.4-1.6c-1.8,1.4-4.4,3.6-6.9,6c-6.4,5.9-8.8,9.6-7.9,11.9c1,2.3,2.9,3.6,4.3,4.6c1.4,1,1.7,1.3,1.6,1.6
		c-0.1,0.3-0.6,0.3-1.9,0.3c-1.7-0.1-4.2-0.3-5.6,2.3c-0.7,1.3-0.3,3.8,0.3,8c1.2,8.4,3.2,22.1-3.8,33c-9,12.5-18.3,22.2-20.4,24.4
		l-7.3-2.7l-8.4-4.6h0h0c-0.3-0.1-0.5-0.3-0.8-0.4c4.9-11.1,7.5-19.1,8-20.6c4.3-1.5,8.1-3.1,11.2-5c0.5-0.3,0.7-1,0.4-1.5
		c-0.3-0.5-1-0.7-1.5-0.4c-2.9,1.8-6.2,3.2-9.6,4.4c-17.7,3.5-27.8-4.5-34.5-9.7c-2.1-1.7-4-3.1-5.6-3.8c-3.3-1.5-6-1.6-8-0.5
		c-1.5,0.9-2.5,2.5-2.8,4.5c-0.5,3.5,3.2,6.5,3.7,6.9c0.5,0.4,5.4,5,12.1,10.5l0.3,0.2c0,0,0,0,0.1,0s0,0,0.1,0c0,0,0,0,0,0
		c7.2,5.8,16.4,12.5,24.7,16.7c-1.5,2-4.6,6.6-6.4,13.8c-1.2,5-1.5,11.2-1.5,14c-18.7-5.3-36.2-14.2-48.4-24.5
		C227.1,263.4,225.3,250.8,226.9,242.8z M303.7,298.4l-8.6-2.2c0.2-2.4,0.6-5,1.1-7.3c1.8-7.4,5-11.8,6.2-13.4l6.7,3.7
		C307.9,281.6,304.8,288.2,303.7,298.4z M292.6,256.3c5.5-0.9,10.4-2,14.8-3.3c-1,3.1-3.5,9.9-7.4,18.8c-7-3.7-14.4-9-20.7-14
		C282.1,257.7,287,257.2,292.6,256.3z M301.8,352.1l-22.7-20.8c1.1-2.5,5.1-11.5,11.2-27.3c0.9,0.3,1.9,0.6,2.8,0.8c0,0,0.1,0,0.1,0
		c0.3,0.1,0.5,0.1,0.8,0.1c0.4,0,0.9-0.1,1.3-0.3c0.5-0.3,0.9-0.6,1.2-1c1.3-1.4,2.1-2.8,2.4-4.3l5.3,1.3c0.7,0.2,7.4,2.5,9.1,3.1
		c0.7,0.2,2,0.1,3.8-0.3C315.8,310,310.2,333.3,301.8,352.1z M351.7,289.2c-0.1,0.1-0.4,0.2-0.7,0.2l0,0c-4.7,0-17.7-5.1-17.9-5.2
		c0,0,0,0,0,0s-0.1,0-0.1,0s-0.1,0-0.1,0c0,0-0.1,0-0.1,0s-0.1,0-0.1,0s-0.1,0-0.1,0s-0.1,0-0.1,0c0,0-0.1,0-0.1,0s-0.1,0-0.1,0
		c0,0-0.1,0-0.1,0c0,0-0.1,0-0.1,0c0,0,0,0-0.1,0.1c0,0,0,0-0.1,0.1c0,0,0,0-0.1,0.1c0,0,0,0.1-0.1,0.1c0,0,0,0,0,0s0,0,0,0.1
		c0,0,0,0,0,0.1c0,0,0,0,0,0s0,0.1,0,0.1s0,0.1,0,0.1c0,0,0,0.1,0,0.1s0,0.1,0,0.1s0,0.1,0,0.1s0,0.1,0,0.1s0,0.1,0,0.1s0,0.1,0,0.1
		c0,0,0,0.1,0,0.1c0,0,0,0.1,0,0.1c0,0,0,0,0.1,0.1c0,0,0,0.1,0.1,0.1c0,0,0,0,0.1,0.1c0,0,0.1,0,0.1,0.1c0,0,0,0,0,0
		c0.1,0.1,12.2,7.1,17.5,11c-0.4,0.2-1,0.4-1.8,0.3c-1.6-0.2-11.9-4.9-18.1-7.7c-0.6-0.3-1.2,0-1.5,0.5c-0.3,0.6,0,1.2,0.5,1.5
		c0.8,0.4,4.9,2.3,9.1,4.1l7.2,3.8c0,0-0.1,0.1-0.1,0.1c-0.3,0.3-0.9,0.3-1.4,0.3c-5.2-0.3-17.7-4.8-17.8-4.9h0c0,0-0.1,0-0.1,0
		s-0.1,0-0.1,0s-0.1,0-0.1,0s-0.1,0-0.1,0s-0.1,0-0.1,0s-0.1,0-0.1,0c0,0-0.1,0-0.1,0s-0.1,0-0.1,0c0,0-0.1,0-0.1,0s-0.1,0-0.1,0.1
		c0,0,0,0-0.1,0.1c0,0,0,0-0.1,0.1l0,0l0,0c0,0,0,0.1-0.1,0.1c0,0,0,0.1,0,0.1c0,0,0,0,0,0v0c0,0,0,0.1,0,0.1s0,0.1,0,0.1
		s0,0.1,0,0.1s0,0.1,0,0.1s0,0.1,0,0.1c0,0,0,0.1,0,0.1c0,0,0,0.1,0,0.1c0,0,0,0.1,0,0.1s0,0.1,0,0.1c0,0,0,0.1,0.1,0.1
		c0,0,0,0,0.1,0.1c0,0,0,0,0.1,0.1l0,0l10.2,7.9h0c-1.9,0.3-5.1-1.3-9.6-4.7c-0.6-0.4-0.7-0.5-0.9-0.6c-0.4-0.1-0.7-0.1-2.9,0.5
		c-0.7,0.2-1.8,0.5-2.9,0.7c-0.1,0-0.3,0-0.4,0.1c-1.8,0.4-3.7,0.8-4.2,0.6c-1.4-0.4-6.3-2.1-8.3-2.8c1.1-10.1,4.2-16.8,5.4-18.9
		l7.2,2.7c0,0,0,0,0.1,0c0,0,0.1,0,0.1,0s0.1,0,0.1,0s0.1,0,0.1,0s0,0,0,0s0.1,0,0.1,0c0,0,0.1,0,0.1,0s0.1,0,0.1,0c0,0,0.1,0,0.1,0
		c0,0,0,0,0,0c3.1-1.4,8.5-3.7,10-3.7l0,0C331,279.1,346.4,285.4,351.7,289.2C351.7,289.1,351.7,289.2,351.7,289.2z" style="fill:#191919;"/>
	<path d="M289.1,229.2c-1.4-0.9-6.2-3.7-8.6-0.9c-1.3,1.4-0.9,3.5-0.2,4.8c1.3,2.5,3.8,4.1,6,5.3
		c1.2,0.6,2.5,1.3,4.1,1.3l0,0c1.6,0,3.5-0.9,4-2.7l0,0C295.4,233.3,290.6,230.2,289.1,229.2z" style="fill:#FFFFFF;"/>
	<path d="M575.3,136.8c-0.7-2.9-6.9-4.1-15-5.3c-1.9-0.3-3.8-0.6-4.4-0.8c-2.8-0.9-4.7-2.7-5.3-4.6
		c-0.5-1.8,0.1-3.8,1.9-6c0.9-1.1,3.9-3.2,6.8-5.3c8.4-6.1,12.3-9.2,11.1-11.6c-0.1-0.3-0.4-0.6-1-0.8c-0.6-0.2-1.6-0.6-7.2,1.6
		c1.1-1.5,2-3.1,1.9-4.4c0-0.7-0.4-1.3-0.9-1.8c-0.9-0.7-2.3-0.7-9.1,5.1c0.1-1.7-0.2-3.1-0.9-4c-0.5-0.7-1.2-1-1.9-1
		c-2.1,0.1-2.5,1.9-3.4,5.1c-0.1,0.4-0.2,0.9-0.4,1.4c-0.9,3.4-4.9,8.7-5.5,9.6c-3.1,2.3-5.8,5.2-7.9,8.5l-2.9,4.7
		c0,0,0,0.1-0.1,0.1l-7.8,17.4l-4,8.6c-0.1,0.3-14.7,29.5-25.2,36.4c-5.7,3.7-16.6,7.2-51,1.4c-18.1-3.1-39.3-4.3-42.6-4.5l-4.4-4.6
		l-2.8-14.3c-0.1-0.6-0.7-1-1.3-0.9c-0.6,0.1-1,0.7-0.9,1.3l2.8,13.9l-14.6,10l-12.1-10l1.4-16.4c0-0.6-0.4-1.1-1-1.2
		c-0.6,0-1.1,0.4-1.2,1l-1.4,16.6l-4.3,5.2c-0.3,0.3-0.3,0.7-0.2,1.1l6.1,15.3c0.1,0.3,0.4,0.6,0.7,0.6c0.1,0,0.2,0,0.3,0
		c0.3,0,0.5-0.1,0.7-0.3l10.9-9.3l10.2,10.2c0.2,0.2,0.5,0.3,0.8,0.3c0,0,0.1,0,0.1,0c0.3,0,0.6-0.2,0.8-0.5l7.4-12.4
		c-0.7,7.7-1.8,23.9-0.9,44.9c0.4,10.1,1.3,22,2.9,35.2c0,0.1,0,0.2,0,0.3c0,0.1,0,0.2,0.1,0.3c2.9,22.3,8.3,48.1,18,73.9
		c0.1,0.3,0.3,0.5,0.6,0.6c0.1,0.1,0.3,0.1,0.4,0.1c0.1,0,0.3,0,0.4-0.1c0.8-0.3,19.4-7.8,30.3-20.9c0.2-0.3,0.3-0.6,0.2-1
		L433.1,263c0.4,0,1-0.1,1.6-0.1c3.8-0.1,11-0.6,20.1-2.4c10.5-2.1,25.2-6.3,40.1-14.9c0.1,0,0.1-0.1,0.2-0.1
		c2.9-1.7,5.8-3.5,8.7-5.5c17.8-12.5,28.8-28.7,34.8-40.2c6.6-12.4,8.9-21.8,9-22.2c0,0,0,0,0-0.1c0,0,0-0.1,0-0.1s0-0.1,0-0.1
		s0-0.1,0-0.1s0-0.1,0-0.1c0,0,0-0.1,0-0.1c0,0,0-0.1,0-0.1c0,0,0-0.1,0-0.1c0,0,0,0,0-0.1c0,0,0-0.1-0.1-0.1c0,0,0,0-0.1-0.1
		c0,0,0,0-0.1-0.1c0,0-0.1,0-0.1-0.1c0,0,0,0-0.1,0c-0.6-0.3-1.1-0.6-1.6-0.9l4.2-10.9c0.2-0.5,0-1.1-0.5-1.3
		c-0.4-0.2-0.9-0.5-1.3-0.7c1.9-7.6,6-19.4,9.6-20.8c1.3-0.5,4.3-0.6,7.1-0.7c5.6-0.1,9.1-0.3,10.4-2.1
		C575.3,138.3,575.5,137.5,575.3,136.8z M368.1,201.3l-5.3-13.3l3.4-4.1l11.3,9.3L368.1,201.3z M553.1,106.6c0,0,0.1-0.1,0.1-0.1
		c4-3.5,7.4-6.2,8.7-6.8c0,1.3-2.5,4.3-4.3,6.1c-2.2,1-4.8,2.2-7.9,3.8C550.9,108.5,552,107.5,553.1,106.6z M549.6,104.9
		c0.1-0.5,0.3-1,0.4-1.4c0.6-2.3,0.9-3.5,1.4-3.5c0.4,0.1,1,1.9,0.1,5.1c-0.1,0.1-0.2,0.1-0.3,0.2c-1,0.9-1.9,1.7-2.8,2.6
		C548.9,106.9,549.3,105.8,549.6,104.9z M389.9,202.3l-8.9-8.9l14.1-9.6l3.7,3.8L389.9,202.3z M399.7,237
		c-0.9-23.6,0.5-41.1,1.2-47.1c9.3,9.9,14.8,17.5,14.7,19c-0.7,0.8-2.4,1-3.8,1.1c-1.6,0.1-3.1,0.3-4,1.3c-0.4,0.5-0.6,1.2-0.5,1.9
		c0.2,1.9,1.8,2.9,3.1,3.9c1.6,1.1,2.6,1.9,2.6,3.5c0,1-1.2,4.3-2.7,8c-2.9,7.7-7.3,19-9,30.5C400.5,251.1,400,243.7,399.7,237z
		 M536.6,198.6c-5.9,11.3-16.7,27.3-34.2,39.5c-2.9,2-5.7,3.8-8.6,5.5c-14.6,5.5-27.7,7.1-39.1,4.5c-1.1-0.3-2.2-0.6-3.4-0.8
		c-2.5-0.6-5-1.3-7.6-1.5c-3.5-0.3-6.4,0.1-8.7,1.4c-3.1,1.7-6.6,7.5-4.6,14.6c0,0.1,0,0.2,0,0.3l17.7,63.4
		c-9.1,10.7-24,17.7-28,19.4c-9.4-25.5-14.7-50.8-17.5-72.8c-1-14.8,5.6-32.2,9.6-42.6c1.9-5,2.8-7.5,2.8-8.8c0-2.8-2-4.1-3.5-5.3
		c-1.3-0.9-2.1-1.5-2.2-2.4c0-0.1,0-0.3,0-0.3c0.3-0.3,1.6-0.4,2.5-0.5c1.8-0.2,4.1-0.4,5.4-2c1.2-1.4,0.3-4.3-7.4-13.4
		c-2.7-3.2-5.4-6.2-7.2-8.1c6.7,0.4,24.5,1.7,40.1,4.4c10.2,1.7,20.8,3.2,30.3,3.2c8.9,0,16.8-1.3,22.3-4.9
		c9.3-6.1,21.1-27.8,24.8-34.9c1.9,3.8,7.6,11.6,25,21.3C544.5,180.2,542,188.5,536.6,198.6z M543.5,174.2
		c-18.7-11-21.6-18.9-22-20.4l3.1-6.6c2.4,3,8.7,9.9,22.6,17.4L543.5,174.2z M573.1,137.5c-0.8,1-5.5,1.1-8.7,1.2s-6.2,0.1-7.9,0.8
		c-5.4,2.1-9.6,16.8-10.8,21.8c-13.5-7.7-18.9-14.6-20.2-16.4l7.5-16.8l2.8-4.6c2.6-4.3,6.3-7.7,10.8-10c15.8-8.1,20.3-9.2,21.5-9.3
		c-0.8,1.8-7.1,6.4-10.3,8.6c-3.3,2.4-6.2,4.4-7.2,5.7c-2.2,2.8-3,5.5-2.3,8c0.7,2.7,3.2,4.8,6.6,6c0.8,0.3,2.5,0.6,4.8,0.9
		c2.7,0.4,6,1,8.8,1.7c4.1,1.1,4.4,2,4.4,2C573.2,137.4,573.2,137.5,573.1,137.5z" style="fill:#191919;"/>
	<g>
		<g>
			<path d="M368.6,124c0,0-7.1,8.8-3.2,24c3.8,15.2,22.5,11.3,22.5,11.3l14.1-9.9c0,0,2.4-13.4-3.6-18.3
				C392.4,126.2,368.6,124,368.6,124z" style="fill:#FECE2F;"/>
		</g>
		<g>
			<path d="M366.1,139c0,0-7.1-4.3-9.8-2.5c-2.8,1.9,1.7,10.4,7,12.4C368.6,150.9,366.1,139,366.1,139z" style="fill:#FECE2F;"/>
		</g>
		<g>
			<path d="M410,136.5c0,0-4.6-2.1-9.9,4.6c-5.3,6.8-1.3,9.3,0.3,8.8C401.9,149.4,411.8,144.4,410,136.5z" style="fill:#FECE2F;"/>
		</g>
		<g>
			<path d="M370,139c0.3,0.3,0.7,0.4,1.1,0.6c1.4,0.4,2.8,0.6,4.3,0.3c0.3-0.1,0.7-0.1,0.9-0.4c1.7-1.4-1.7-3.4-2.9-3.5
				C372.2,135.9,368.3,137.4,370,139z" style="fill:#181818;"/>
		</g>
		<g>
			<path d="M388.8,139.3c0.2,0.3,0.5,0.5,0.9,0.6c0.9,0.4,1.8,0.5,2.8,0.5c1.9,0,3.5-2.3,1-2.9
				C392.5,137.4,387.4,137.2,388.8,139.3z" style="fill:#181818;"/>
		</g>
		<g>
			<g>
				<ellipse cx="374.5" cy="144.6" rx="5.8" ry="2.7" style="fill:#FFFFFF;"/>
			</g>
			<path d="M374.5,140.7c-4,0-6.9,1.6-6.9,3.8s3,3.8,6.9,3.8s6.9-1.6,6.9-3.8S378.4,140.7,374.5,140.7z M376.8,145.9
				c-0.6-1-1.7-1.6-2.9-1.4c-0.8,0.1-1.5,0.6-1.9,1.3c-1.4-0.4-2.2-1-2.2-1.3c0-0.6,1.9-1.6,4.7-1.6s4.7,1.1,4.7,1.6
				C379.2,144.9,378.3,145.6,376.8,145.9z" style="fill:#181818;"/>
		</g>
		<g>
			<g>
				<ellipse cx="391.6" cy="144.6" rx="5.8" ry="2.7" style="fill:#FFFFFF;"/>
			</g>
			<path d="M391.6,140.7c-4,0-6.9,1.6-6.9,3.8s3,3.8,6.9,3.8c3.9,0,6.9-1.6,6.9-3.8S395.6,140.7,391.6,140.7z
				 M393.9,145.9c-0.6-1-1.7-1.6-2.9-1.4c-0.8,0.1-1.5,0.6-1.9,1.3c-1.4-0.4-2.2-1-2.2-1.3c0-0.6,1.9-1.6,4.7-1.6s4.7,1.1,4.7,1.6
				C396.3,144.9,395.5,145.6,393.9,145.9z" style="fill:#181818;"/>
		</g>
		<g>
			<path d="M380.3,154.2c-1.3,0-2.4-0.3-2.8-1.3c-0.8-1.8,1.8-3.8,2.9-4.5c0.7-0.4,1-0.9,1-1.4c0-1.1-1.8-2.5-2.6-3
				c-0.5-0.3-0.7-1-0.4-1.5c0.3-0.5,1-0.7,1.5-0.4c0.4,0.2,3.6,2.2,3.7,4.8c0,0.9-0.3,2.1-2,3.3c-1.2,0.8-1.8,1.5-2,1.8
				c0.4,0.1,1.4,0.1,3.7-0.3c0.6-0.1,1.2,0.3,1.3,0.8c0.1,0.6-0.3,1.2-0.8,1.3C382.6,154,381.4,154.2,380.3,154.2z" style="fill:#191919;"/>
		</g>
		<path d="M410.7,135.7c-1.2-1-3.6-1.9-7.7,1.5c-0.3-1.6-0.7-3-1.2-4.3c2.4-1.7,3.8-4,4-6.7c0.3-3.1-0.4-5.7-2-7.7
			c-2.2-2.5-5.3-3.3-6.6-3.5c-2.4-3.8-5.2-6.1-8.4-6.7c-3.1-0.6-5.7,0.5-7.1,1.3c-2.1-2.9-5.3-4.8-8.7-5c-2.9-0.2-5.7,1-7.4,3.3
			c-2.4,3.1-3.2,6.4-2.4,10c0.6,2.6,2,5,3.9,7.3c-1,2-3.1,6.5-3.8,12.1c-4.1-3.6-6.6-2.6-7.7-1.6c-1.1,1-1.5,2.7-0.9,4.8
			c0.7,2.8,2.9,5.8,6,7.7c-1.9,1.8-2.7,5.5-2,9.6c1.2,6.9,5.6,12.6,12,15.2c4.1,1.7,8.3,2.5,12.4,2.5c1.5,0,3-0.1,4.5-0.4
			c4.7-0.8,8.9-2.9,11.4-5.7c3.7-4.1,6.1-13.2,4.9-18.3c-0.2-0.7-0.4-1.3-0.7-1.8c4.3-1.6,7.4-5.5,8.4-8.9
			C412.1,138.4,411.8,136.6,410.7,135.7z M356.8,139.9c-0.3-1.2-0.3-2.2,0.2-2.6c1.7-1.4,4.8,1.4,6.1,2.8c0,2.1,0.1,4.2,0.6,6.4
			c-0.3,0.1-0.7,0.2-1,0.4C359.7,145.3,357.5,142.4,356.8,139.9z M392.7,150.5c-2.9,2-6.2,4.2-10,4.4l0,0c-3.1,0.2-7.5-0.2-10.9-3.5
			c-0.5-0.5-1-1-1.5-1.5c-1.3-1.4-2.7-2.8-4.3-3.4c-2.1-8.1,1-16.2,2.7-19.6c2.7,2.8,6,5,9.1,6.6c3.5,1.8,7.8,2.7,12,2.7
			c3.7,0,7.3-0.7,10.1-2.1c0.6,1.6,1,3.4,1.3,5.3c0,0.1,0,0.2,0,0.3c0.3,2.4,0.2,5-0.6,7.6c0,0,0,0,0,0.1
			C398.1,146.8,395.6,148.6,392.7,150.5z M409.5,139.9c-0.7,2.7-3.1,5.7-6.5,7.2c0.6-2.5,0.7-5,0.4-7.3c1.5-1.5,4.3-3.8,5.9-2.5
			C409.8,137.7,409.8,138.7,409.5,139.9z" style="fill:#191919;"/>
		<g>
			<path d="M378.9,162.9l10.9-3.4c0,0-1.1,4.7-4.7,6C380.4,167.1,378.9,162.9,378.9,162.9z" style="fill:#FFFFFF;"/>
		</g>
	</g>
	<path d="M530,625.9c-7.2-11.9-26-34.9-27.8-37.1l-9.3-30.5L434,339.1c-0.1-0.6-0.7-0.9-1.3-0.8
		c-0.6,0.1-0.9,0.7-0.8,1.3L490.6,558l-36.7,13c-2.8-8.2-21.8-63-39.8-113.8c0.3-0.3,0.4-0.7,0.3-1.1c-1.7-4.9,0.3-11,4.7-14
		c0.4-0.3,0.8-0.5,1.2-0.7c2.1-1.3,4.4-2.7,4.6-5.3c0.3-3.1-2.7-5.3-4.3-6.5c-11.5-8.4-21-19.5-27.6-32.1c-0.1-0.3-0.3-0.4-0.6-0.5
		c-4.4-12-8-21.3-10.2-26.4l-6-16.9l-0.3-12.8c0,0,0,0,0,0c0,0,0,0,0,0l-1.4-23.4c0-0.6-0.6-1-1.2-1s-1,0.6-1,1.2l1.3,22.2h-7.7
		l-1.4-21.8c0-0.6-0.6-1-1.2-1s-1,0.6-1,1.2l1.5,22.8c0,0.6,0.5,1,1.1,1h8.8l0.3,12l0,0l0,0l8.7,213.2h-33.9
		c-10.3-53-21.4-151.4-27.4-208.1c0,0,0.1-0.1,0.1-0.1c8.7-9.4,5.5-34.6,5.3-35.7c-0.1-0.6-0.6-1-1.2-0.9c-0.6,0.1-1,0.6-0.9,1.2
		c0,0.2,2.9,22.7-3.6,32.4c-2.5-23.9-4.1-39.6-4.1-40.1c-0.1-0.6-0.6-1-1.2-1c-0.6,0.1-1,0.6-1,1.2c0.2,1.8,17.1,175.8,32.1,252.3
		c0.1,0.5,0.6,0.9,1.1,0.9h35.9c0.3,0,0.6-0.1,0.8-0.3c0.2-0.2,0.3-0.5,0.3-0.8L376.3,361l3.7,10.4c0,0,0,0,0,0.1
		c12.7,29.3,71.5,199.7,72.1,201.4c0.1,0.3,0.3,0.5,0.6,0.6c0.1,0.1,0.3,0.1,0.5,0.1c0.1,0,0.3,0,0.4-0.1l12.3-4.4l9.7,25.6
		c0.7,4.4,1.8,11.6,1.8,12.4c0,0.6,0,1,5.2,5c2.9,2.2,6.8,5.2,11.1,8.2c7.8,5.6,17.4,12.2,21,13.9c2.7,1.3,5.4,1.9,7.8,1.9
		c2.9,0,5.5-0.9,7.1-2.7C531.5,631.4,531.6,628.6,530,625.9z M491.7,561.9l7.8,25.6c-2.6-0.9-4.7-0.9-6.4-0.1
		c-3.1,1.5-4,5.4-4.7,8.2c-0.3,1.2-0.6,2.6-1,3c-0.6,0.7-4.7-0.9-9.9-4.9l-7.4-19.4L491.7,561.9z" style="fill:#191919;"/>
	<g>
		<g>
			
				<ellipse transform="matrix(0.9936 -0.1132 0.1132 0.9936 -29.8806 48.4278)" cx="411.5" cy="287.3" rx="3.2" ry="4" style="fill:#191919;"/>
		</g>
		<g>
			
				<ellipse transform="matrix(0.9936 -0.1132 0.1132 0.9936 -31.5904 48.9996)" cx="415.7" cy="302.7" rx="3.2" ry="4" style="fill:#191919;"/>
		</g>
	</g>
</g>
<g>
	<g>
		<path d="M204.1,550.6c11.5-0.6,45.8,3.9,45.8,3.9s44.8,9.3,59.7,17.5s19,26.5,13.8,42.4
			c-5.2,15.9-29.9,23.6-50.7,21.3s-32.4-14.1-32.4-14.1L186,587.8l-24.1-28.9C161.9,558.8,193.4,551.2,204.1,550.6z" style="fill:#FECE2F;"/>
	</g>
	<g>
		<path d="M309.6,572.1c-8.4-4.6-26.2-9.6-40.2-13.1c-0.4,0.5-0.7,1.2-0.7,2c-0.3,6,7.8,7.8,12.2,8.6
			c4.4,0.9,8.8,1.8,13.2,2.9c3,0.7,5.9,1.5,8.8,2.7c12.1,5,21,17.3,21.9,30.4c0.2-0.1,0.4-0.3,0.6-0.5
			C326.5,591.9,321.5,578.7,309.6,572.1z" style="fill:#FFFFFF;"/>
	</g>
	<g>
		<path d="M158.6,578c0,0-3.8,17.1-14.1,20.2c-10.3,3.1-45.2-15.8-45.2-15.8s-10.4,15.6-5.9,33
			c4.5,17.3,18.2,17.2,18.2,17.2s-6.4,15.9-6.6,32.4l47.7,5.6c0,0,63.2,10,81.9,10.3c18.6,0.3,36.5-3.2,39.3-30.1
			c2.8-26.9-24.5-48.5-42.9-59.6c-18.3-11-21.3-10.3-21.3-10.3s-16.4,3.6-26.6,0l-1.4,3.5C181.8,584.6,164.6,579.9,158.6,578z" style="fill:#FECE2F;"/>
	</g>
	<g>
		<path d="M94.8,579.5c0,0,15,9.9,26.4,14.6c11.3,4.7,19.6,6,27,2.5c7.4-3.4,10.3-18.7,10.3-18.7l11.7,2.9
			c0,0,5.1-19.5,11.4-22.1l-15.4-9c0,0,6.8-25.6,8.4-44.6c1.5-19,2.5-51.8-4.6-68.6c0,0-33.7-3.3-62.6,21.1
			c-28.9,24.5-32.8,41.2-34.1,50.2c-1.3,9-0.2,31.8,29.1,48.6L94.8,579.5z" style="fill:#FECE2F;"/>
	</g>
	<g>
		<path d="M200.5,448.3c0,0,17.1,8.7,29.8,22.2c12.7,13.4,26.6,43.3,40,39.5c6.2-1.8,12.6-5.9,29.9-18
			c0,0,9,17.3,18.8,21.8c0,0-20.7,29-37.3,37.6c-16.5,8.6-43.7,1.4-43.7,1.4s-26.1-11.1-31.7-19.5c0,0-1.8-41.8-3-53.9
			C202.1,467.1,200.5,448.3,200.5,448.3z" style="fill:#FECE2F;"/>
	</g>
	<g>
		<path d="M300.9,491.9l14.8-10.6c0,0,9,16.8,12.6,19.5l-9.3,12.8C319,513.7,304.9,505.6,300.9,491.9z" style="fill:#FFFFFF;"/>
	</g>
	<g>
		<path d="M315.7,481.3l13.4-11.1l8.2-5.3l8.8-14.5c0,0,2.4,0.3,3.2,2.5l4.5-4.7c0,0,2.3,0.8,0.7,4.3l7.2-2.9
			c0,0,1.5,3.4,0,4.8l6.7-1.5c0,0,0.9,2.9-5.5,6c-6.3,3.1-15.6,8.1-12.4,15.9s16.5,4.4,16.5,9.6l-8.8,1.3l-17.8,3l-12.1,12.1
			C328.3,500.9,317,487.8,315.7,481.3z" style="fill:#FECE2F;"/>
	</g>
	<g>
		<path d="M181.7,558.8l9,3.8c0,0-7.3,12.2-8.3,21l-12.2-2.6C170.3,581,174.8,564.9,181.7,558.8z" style="fill:#FFFFFF;"/>
	</g>
	<g>
		<path d="M190.7,562.6c0,0,11.2,0,18.9,4.3c7.7,4.3,14.1,13.8,15.4,20.9l-15.2-6.8c0,0-12,2.8-26.6,0
			C183.2,581,187.2,567.9,190.7,562.6z" style="fill:#FECE2F;"/>
	</g>
	<g>
		<path d="M204.1,549.6c0,0,2.6-30.4,0.7-52.1c-1.9-21.7-3.2-38.8-3.2-38.8l-6.6,3.7l-5.2-14.3l-6,13.8l-9.6-7.3
			c0,0,3,33.5,0.3,51.9c-2.7,18.4-8.9,42.3-8.2,43.3c0.7,1,8.6,5.6,8.6,5.6L204.1,549.6z" style="fill:#FFFFFF;"/>
	</g>
	<g>
		<polygon points="189.8,448 199.9,443.4 201.6,458.7 195.1,462.4 		" style="fill:#FFFFFF;"/>
	</g>
	<g>
		<polygon points="189.8,448 183.9,461.9 174.3,454.6 170.1,436.7 174.8,430.4 		" style="fill:#FFFFFF;"/>
	</g>
	<g>
		<path d="M199.9,443.4l3.4-10.2c0,0,11.2,3.7,16.4-7.6c0,0,6.3,0.3,6.6-3.4c0.2-3.7-2.2-4.3-2.2-4.3s2.7-9.5,2.2-17.8
			c-0.4-8.3-22.4-14.4-22.6-14.3c-0.3,0.2-7.3,11.8-7.3,11.8l-14.3-0.8c0,0-8.1,8.3,2.8,14l-10.1,19.5l15,17.7L199.9,443.4z" style="fill:#FECE2F;"/>
	</g>
	<g>
		<polygon points="111.6,632.6 106.3,652.4 85.9,648.8 81.8,637.6 94.8,632.1 104.5,630.1 		" style="fill:#FECE2F;"/>
	</g>
	<g>
		<path d="M106.5,567.9c-0.3,2.3-0.5,4.6,0,6.7c0.1,0.5,0.3,1,0.5,1.5c0.2,0.4,0.5,0.9,0.8,1.3c0.6,0.8,1.4,1.3,2.4,1.8
			c1.9,0.8,4.1,0.8,6.2,0.3c2.1-0.5,4.3-1.4,6.5-2.3c2.2-0.9,4.6-1.8,7.2-1.9c0.6-0.1,1.3-0.1,1.9,0c0.7,0,1.3,0.1,2,0.3
			c1.3,0.3,2.6,0.9,3.7,1.8c1.1,0.9,1.9,1.9,2.6,3c0.7,1.1,1.2,2.4,1.4,3.6c0.3,1.2,0.4,2.5,0.4,3.7c0,1.2-0.1,2.5-0.3,3.7
			c-0.1,0.4-0.5,0.7-1,0.7c-0.4-0.1-0.7-0.4-0.7-0.9l0,0c0-1.2,0-2.3,0-3.4c-0.1-1.1-0.3-2.2-0.6-3.2c-0.3-1-0.7-2-1.3-2.9
			c-0.6-0.9-1.3-1.6-2.1-2.2c-0.8-0.6-1.7-1-2.7-1.2c-0.5-0.1-1-0.2-1.5-0.2c-0.5,0-1,0-1.6,0c-1,0.1-2.1,0.3-3.2,0.6
			c-1,0.3-2.1,0.7-3.2,1.1c-2.2,0.8-4.4,1.8-6.9,2.3c-1.2,0.3-2.5,0.3-3.8,0.2c-1.3-0.1-2.6-0.4-3.8-1c-1.2-0.6-2.4-1.4-3.2-2.5
			c-0.4-0.6-0.7-1.2-1-1.8c-0.2-0.6-0.4-1.3-0.5-1.9c-0.2-1.3-0.2-2.5-0.1-3.8c0.1-1.2,0.3-2.4,0.5-3.6c0.1-0.4,0.5-0.7,0.9-0.6
			C106.3,567.2,106.6,567.5,106.5,567.9L106.5,567.9z" style="fill:#FFFFFF;"/>
	</g>
	<g>
		<path d="M231.1,591.3c-0.8-0.5-1.6-1-2.4-1.4c-5.7-3.1-9.1-4-9.1-4s-0.7,8.3,12.7,16.8c13.4,8.5,33.5,20.5,35.2,38.6
			c2.5,27.2-22.1,39.3-22.1,39.3l0,0c14.3-1.6,26.3-8.1,28.6-29.7C276.8,624,249.5,602.4,231.1,591.3z" style="fill:#FFFFFF;"/>
	</g>
	<g>
		<g>
			<path d="M269.6,515.2c1.3-0.4,2.7-0.9,4.1-1.2c0.7-0.1,1.5-0.2,2.2-0.2s1.5,0.1,2.2,0.4c0.7,0.2,1.4,0.6,2.1,1
				c0.6,0.4,1.2,1.1,1.6,1.8c0.4,0.7,0.6,1.6,0.6,2.4c0,0.8-0.1,1.6-0.2,2.2c-0.1,0.7-0.3,1.4-0.3,2c0,0.6,0,1.2,0.2,1.6
				c0.3,0.9,1.2,1.5,2.1,1.8c0.9,0.3,1.9,0.1,2.9-0.2c1-0.4,1.9-1,2.8-1.7c1.6-1.5,2.7-3.7,2.7-6c0-1.2-0.2-2.5-0.3-4
				c-0.1-1.5-0.1-3.2,0.6-4.9c0.3-0.8,0.9-1.7,1.6-2.3c0.7-0.6,1.6-1,2.4-1.3c1.6-0.5,3.2-0.4,4.6-0.3c0.7,0,1.4,0.1,2,0.1
				c0.6,0,1.3,0,1.9,0c1.2-0.1,2.4-0.5,3.1-1.4v0c0.3-0.3,0.7-0.3,1-0.1c0.3,0.2,0.3,0.6,0.1,0.9c-0.4,0.7-1,1.3-1.7,1.8
				c-0.7,0.4-1.5,0.7-2.2,0.9s-1.5,0.3-2.2,0.3c-0.7,0.1-1.5,0.1-2.1,0.1c-1.3,0-2.6,0.2-3.6,0.6c-0.5,0.2-0.9,0.4-1.2,0.8
				c-0.3,0.3-0.5,0.7-0.7,1.2c-0.1,0.4-0.2,1-0.2,1.5s0,1.1,0.1,1.8c0.1,1.3,0.5,2.7,0.6,4.3c0.1,3.4-1.3,6.6-3.8,8.9
				c-1.2,1.1-2.7,2-4.4,2.5c-1.7,0.4-3.6,0.4-5.3-0.5c-0.8-0.4-1.5-1-2.1-1.7c-0.6-0.7-1-1.6-1.1-2.5c-0.1-0.9-0.1-1.8,0.1-2.5
				s0.4-1.5,0.6-2.1c0.4-1.3,0.5-2.5,0-3.5c-0.5-1-1.5-1.8-2.7-2.2c-0.6-0.2-1.2-0.3-1.8-0.3c-0.6,0-1.3,0-1.9,0.1
				c-1.3,0.3-2.6,0.7-3.9,1.2c-0.4,0.1-0.8,0-0.9-0.4S269.2,515.3,269.6,515.2C269.6,515.2,269.6,515.2,269.6,515.2z" style="fill:#FFFFFF;"/>
		</g>
		<g>
			<path d="M234.3,545.7c-0.3-0.9-0.4-1.9-0.3-2.9c0.1-1,0.4-1.9,0.7-2.7s0.9-1.6,1.5-2.4c0.6-0.7,1.3-1.4,2-1.9
				c1.5-1.2,3.2-1.8,5-2.3c1.8-0.5,3.5-0.7,5.3-0.8c0.9-0.1,1.8-0.1,2.7-0.2c0.9,0,1.8-0.1,2.7-0.1c1.8,0,3.8,0.1,5.7,1
				c0.9,0.4,1.9,1,2.7,1.8c0.8,0.8,1.5,1.8,1.8,2.9c0.3,1.1,0.4,2.2,0.3,3.2c0,1-0.1,1.8-0.1,2.6c0,0.7,0,1.4,0.1,1.9
				c0,0.1,0.1,0.2,0.1,0.3c0,0.1,0.1,0.2,0.2,0.3c0.1,0.2,0.3,0.4,0.5,0.5c0.4,0.3,1,0.6,1.5,0.7s1.3,0.1,1.9,0
				c1.4-0.2,2.9-0.9,4.3-1.6c1.4-0.7,2.8-1.6,4.2-2.7c1.4-1,2.8-2.1,4.2-3.1c0.7-0.5,1.5-1,2.2-1.5c0.7-0.5,1.5-1,2.3-1.5
				c0.8-0.4,1.7-0.9,2.7-1.1c1-0.3,2-0.4,3.1-0.2s2,0.6,2.8,1.3s1.5,1.6,1.6,2.7c0.1,0.4-0.2,0.7-0.6,0.8c-0.4,0-0.7-0.1-0.8-0.5v0
				c-0.4-1.3-1.9-2.1-3.3-2.2c-0.7,0-1.4,0.1-2.1,0.4c-0.7,0.3-1.4,0.6-2.1,1.1c-0.7,0.4-1.3,1-2,1.5c-0.7,0.5-1.3,1.1-2,1.6
				c-1.3,1.1-2.7,2.3-4,3.4c-1.4,1.1-2.9,2.2-4.5,3.1c-0.8,0.5-1.7,0.9-2.5,1.3c-0.9,0.4-1.8,0.7-2.8,0.9s-2.1,0.3-3.2,0.1
				s-2.2-0.6-3.2-1.3c-0.5-0.4-0.9-0.8-1.3-1.3c-0.2-0.3-0.4-0.6-0.5-0.8c-0.1-0.3-0.3-0.6-0.4-0.9c-0.4-1.2-0.4-2.3-0.4-3.3
				c0-1,0.1-1.9,0.2-2.7s0-1.5-0.1-2c-0.1-0.6-0.3-1.1-0.7-1.6c-0.4-0.5-0.9-1-1.5-1.3c-2.4-1.5-6.1-1.6-9.5-1.7
				c-1.7,0-3.4,0.1-5,0.5c-0.8,0.2-1.6,0.4-2.4,0.7c-0.8,0.3-1.5,0.7-2.2,1.2c-1.3,1-2.4,2.2-3.1,3.7s-0.8,3.1-0.3,4.6
				c0.1,0.4-0.1,0.8-0.4,0.9S234.4,546.1,234.3,545.7C234.3,545.7,234.3,545.7,234.3,545.7z" style="fill:#FFFFFF;"/>
		</g>
		<g>
			<path d="M230.5,475.1c1,2.5,1.6,5.1,1.6,7.8l0,1l0,1l0,0.5l0,0.5l-0.1,1l-0.1,1l-0.1,0.5l-0.1,0.5l-0.2,1l-0.3,1
				c-0.8,2.5-2,5-3.7,7.1c-1.6,2.1-3.6,3.9-5.2,5.8c-1.6,1.9-2.9,4-3.9,6.3c-0.5,1.2-0.9,2.3-1.2,3.5c-0.3,1.2-0.5,2.4-0.6,3.5
				c-0.1,1.2-0.1,2.4,0.1,3.4c0.1,0.6,0.2,1.1,0.4,1.6c0.2,0.5,0.4,0.9,0.6,1.4c0.5,0.8,1.2,1.5,2.1,1.9c0.9,0.4,1.9,0.7,2.9,0.9
				c1.1,0.1,2.2,0.1,3.1-0.2c0.4-0.1,0.9-0.3,1.2-0.6c0.4-0.2,0.7-0.5,1-0.9c0.6-0.7,1-1.7,1.2-2.7c0.1-0.5,0.2-1.1,0.2-1.6
				c0-0.6,0-1.1,0-1.7c-0.1-2.4-0.6-5-0.6-7.8c0-1.5,0.3-2.9,0.9-4.4c0.6-1.4,1.5-2.8,2.8-3.8c0.6-0.5,1.4-0.9,2.2-1.2
				c0.8-0.3,1.6-0.4,2.4-0.4c1.6,0,3.1,0.4,4.4,1.1c1.3,0.7,2.5,1.7,3.4,2.8s1.7,2.2,2.4,3.4c0.3,0.6,0.6,1.2,0.9,1.8
				c0.3,0.6,0.6,1.2,0.8,1.7c0.6,1.1,1.2,2.1,2,2.7c1.3,1.2,5.3,1.3,4.8,0l0-0.1c-0.1-0.4,0-0.8,0.4-0.9c0.3-0.1,0.7,0,0.9,0.3
				c0.3,0.5,0.3,1.1,0.1,1.5c-0.1,0.5-0.4,0.9-0.8,1.2c-0.7,0.6-1.6,0.7-2.4,0.7c-0.7,0-1.4,0-2.2-0.1c-0.7-0.1-1.5-0.5-2.1-0.9
				c-1.3-0.9-2.2-2.1-2.9-3.2c-0.4-0.6-0.7-1.2-1-1.7c-0.3-0.6-0.6-1.1-1-1.6c-0.7-1-1.4-2-2.2-2.8c-0.8-0.8-1.7-1.5-2.7-1.9
				c-1-0.4-2.1-0.7-3-0.6c-1,0-1.9,0.4-2.6,1c-1.4,1.2-2.1,3.5-2.1,5.7c0,2.3,0.6,4.8,0.7,7.6c0,0.7,0.1,1.4,0,2.2
				c0,0.7-0.1,1.5-0.3,2.2c-0.3,1.5-0.9,2.9-1.9,4.3c-1,1.3-2.6,2.4-4.1,2.8c-0.8,0.2-1.6,0.3-2.3,0.4c-0.7,0-1.5,0-2.3,0
				c-1.5-0.1-3-0.6-4.4-1.3c-1.4-0.8-2.6-2.1-3.4-3.4c-0.4-0.7-0.7-1.5-0.9-2.2c-0.2-0.7-0.3-1.5-0.4-2.2c-0.1-1.5,0-2.9,0.2-4.3
				c0.3-1.4,0.6-2.7,1.1-4c0.4-1.3,1-2.5,1.6-3.7c1.3-2.4,2.9-4.6,4.7-6.5s3.8-3.6,5.4-5.5l0.6-0.7c0.2-0.3,0.4-0.5,0.5-0.7l0.5-0.8
				c0.1-0.3,0.3-0.6,0.4-0.8l0.2-0.4c0.1-0.1,0.1-0.3,0.2-0.4l0.4-0.9l0.3-0.9l0.1-0.4c0-0.1,0.1-0.3,0.1-0.4l0.3-0.9l0.2-0.9
				l0.1-0.4l0.1-0.4l0.1-0.9l0.1-0.9l0-0.5l0-0.5l0-0.9l0-0.9v-0.5l0-0.5l-0.1-0.9l-0.1-0.9l-0.1-0.4l-0.1-0.4
				c-0.2-1.2-0.7-2.4-1.2-3.5v0c-0.1-0.4,0-0.8,0.4-0.9S230.3,474.7,230.5,475.1L230.5,475.1z" style="fill:#FFFFFF;"/>
		</g>
		<g>
			<path d="M83.4,541.4c7.1-5.6,15.5-9.5,24.3-11.2l0.8-0.2l0.8-0.1c0.6-0.1,1.1-0.2,1.7-0.3s1.1-0.1,1.7-0.2l0.9-0.1
				l0.9,0c2.3-0.1,4.7,0,7,0.6c1.2,0.3,2.3,0.8,3.4,1.4c0.3,0.2,0.5,0.3,0.8,0.5l0.7,0.6c0.2,0.2,0.4,0.4,0.7,0.7s0.4,0.5,0.6,0.7
				c0.2,0.3,0.4,0.5,0.5,0.8c0.1,0.3,0.3,0.6,0.4,0.9l0.2,0.4c0.1,0.1,0.1,0.3,0.1,0.4l0.1,0.4l0.1,0.4c0.3,1.2,0.3,2.5,0.2,3.7
				c-0.3,2.5-1.1,4.7-2.2,6.8l-0.8,1.5c-0.3,0.4-0.5,0.9-0.7,1.4c-0.4,0.9-0.6,1.8-0.4,2.4c0.1,0.3,0.2,0.6,0.4,0.8
				c0.2,0.2,0.5,0.4,0.9,0.5c0.7,0.3,1.8,0.3,2.9,0.2c2.2,0,4.5,0,6.7,0.1s4.5,0.3,6.7,0.5c1.1,0.1,2.2,0.3,3.3,0.4
				c1.1,0.1,2.4,0.3,3.6,1c0.6,0.3,1.2,0.7,1.6,1.3c0.4,0.6,0.8,1.2,0.9,1.9c0.4,1.3,0.2,2.7-0.2,3.9c-0.4,1.2-1.2,2.2-1.9,3.1
				c-0.8,0.9-1.6,1.6-2.5,2.4c-0.3,0.3-0.9,0.3-1.2-0.1c-0.3-0.3-0.3-0.8,0-1.2c0.8-0.8,1.5-1.6,2.2-2.4c0.6-0.8,1.2-1.7,1.4-2.6
				c0.3-0.9,0.3-1.9,0-2.7c-0.1-0.4-0.3-0.7-0.6-1c-0.3-0.3-0.6-0.5-1-0.7c-0.8-0.4-1.8-0.5-2.8-0.6s-2.2-0.2-3.3-0.3
				c-2.2-0.2-4.4-0.3-6.6-0.4c-2.2-0.1-4.4-0.1-6.6-0.1c-1.1,0-2.4,0.1-3.7-0.3c-0.7-0.2-1.4-0.6-2-1.2s-0.9-1.3-1.1-2.1
				c-0.1-0.8-0.1-1.5,0-2.2c0.1-0.7,0.4-1.3,0.6-1.8c0.3-0.6,0.5-1.1,0.8-1.6l0.8-1.5c1-1.8,1.8-3.8,2-5.7s-0.2-3.9-1.3-5.4
				c-0.1-0.2-0.3-0.4-0.4-0.6l-0.5-0.5l-0.6-0.4c-0.2-0.1-0.4-0.3-0.6-0.4c-0.8-0.5-1.8-0.9-2.7-1.2s-2-0.4-3-0.6
				c-1-0.1-2.1-0.1-3.2-0.1c-1,0-2.1,0.1-3.2,0.3c-0.5,0-1.1,0.1-1.6,0.2l-0.8,0.1l-0.8,0.1c-4.3,0.8-8.4,2.1-12.5,3.8
				c-4,1.7-7.8,3.9-11.3,6.5l0,0c-0.3,0.3-0.9,0.2-1.1-0.2C83,542.1,83.1,541.6,83.4,541.4z" style="fill:#FFFFFF;"/>
		</g>
		<g>
			<path d="M142.7,444.2c1.2-0.3,2.4-0.7,3.6-1.1c0.6-0.2,1.3-0.4,1.9-0.4c0.7-0.1,1.5-0.1,2.2,0.2
				c0.4,0.1,0.7,0.3,1,0.6c0.3,0.3,0.6,0.6,0.8,1c0.4,0.7,0.4,1.6,0.3,2.3c0,0.4-0.1,0.7-0.2,1c-0.1,0.3-0.2,0.7-0.3,1
				c-0.3,0.6-0.6,1.2-0.9,1.8c-0.7,1.2-1.4,2.2-2.2,3.3c-0.7,1-1.4,2.1-2,3.1c-0.6,1-1,2-1.4,3.1c-0.4,1-0.7,2.1-0.9,3.1
				c-0.1,1-0.1,2,0.1,2.9c0.2,0.9,0.7,1.7,1.3,2.3c1.1,1.1,3.6,1.3,5.7,1.1c2.2-0.3,4.4-1,6.5-2.2c1-0.6,2-1.2,3-2
				c0.5-0.4,1-0.7,1.4-1.2c0.2-0.2,0.4-0.4,0.7-0.6l0.3-0.3c-0.1,0.1-0.1,0.2-0.1,0.2s0,0.1,0,0.1c0,0,0,0.1,0.1,0.3
				c0,0,0.1,0.1,0.2,0.2c0.1,0.1,0.3,0.1,0.4,0.1c0.1,0,0.1,0,0.2,0c0,0,0.1,0,0.1-0.1c0,0,0.1-0.1,0.1-0.1c-0.3,0.3-0.7,0.3-1,0
				c-0.3-0.3-0.3-0.7,0-1c0,0,0.1-0.1,0.1-0.1c0,0,0.1-0.1,0.1-0.1c0,0,0.1,0,0.2,0c0.2,0,0.3,0,0.5,0.1c0.1,0.1,0.2,0.2,0.2,0.2
				c0.1,0.3,0.1,0.3,0.2,0.5c0,0.1,0,0.2,0,0.4c0,0.1-0.1,0.3-0.2,0.4l-0.3,0.4c-0.2,0.3-0.4,0.5-0.6,0.7c-0.4,0.5-0.9,1-1.3,1.5
				c-0.9,0.9-1.9,1.8-3,2.6c-1.1,0.8-2.2,1.5-3.5,2.1c-1.2,0.6-2.6,1-4,1.2c-1.4,0.3-2.8,0.3-4.2,0.2c-0.7-0.1-1.5-0.2-2.2-0.5
				c-0.8-0.3-1.5-0.7-2.2-1.2c-1.3-1.1-2.2-2.5-2.7-4c-0.5-1.5-0.5-3.1-0.3-4.6c0.2-1.5,0.7-2.8,1.3-4.1s1.4-2.4,2.3-3.4
				c0.9-1,1.8-1.9,2.7-2.8c0.9-0.9,1.8-1.8,2.4-2.7c0.3-0.5,0.6-1,0.9-1.5c0.1-0.3,0.2-0.5,0.3-0.8c0.1-0.3,0.2-0.5,0.2-0.8
				c0.1-0.5,0.1-1-0.1-1.4c-0.1-0.4-0.5-0.7-1-0.9c-0.4-0.2-1-0.2-1.5-0.2c-0.6,0.1-1.1,0.2-1.7,0.4c-1.2,0.4-2.4,0.7-3.6,1.2
				c-0.4,0.1-0.8-0.1-0.9-0.4c-0.1-0.4,0.1-0.8,0.4-0.9C142.7,444.2,142.7,444.2,142.7,444.2z" style="fill:#FFFFFF;"/>
		</g>
		<g>
			<path d="M121.2,449.2c-1.9,1.6-3.7,3.3-5.4,5.2c-1.6,1.9-3.2,3.8-4.6,5.9c-0.7,1-1.3,2.1-2,3.2
				c-0.3,0.5-0.6,1.1-0.9,1.6c-0.1,0.3-0.3,0.5-0.4,0.8c-0.1,0.3-0.2,0.5-0.3,0.8c-0.1,0.6-0.3,1.1-0.2,1.6c0,0.5,0.2,0.9,0.4,1.2
				c0.1,0.1,0.3,0.2,0.4,0.3c0.2,0,0.4,0.1,0.6,0c0.4,0,1-0.2,1.6-0.4c2.3-0.9,4.5-2.1,6.8-3.2s4.9-2.1,7.9-2.1
				c0.7,0,1.6,0.1,2.4,0.4c0.8,0.3,1.7,0.9,2.2,1.6c0.6,0.7,0.9,1.6,1.1,2.5c0.2,0.9,0.1,1.7,0,2.5c-0.1,0.8-0.4,1.6-0.8,2.4
				c-0.1,0.2-0.2,0.4-0.3,0.6c-0.1,0.1-0.2,0.3-0.3,0.5c-0.3,0.3-0.5,0.6-0.8,0.9c-1.1,1.1-2.4,1.9-3.5,2.5
				c-1.2,0.6-2.4,1.1-3.5,1.6l-3.4,1.6c-2.3,1-4.6,2.1-6.9,3.2c-4.6,2.1-9.2,4.2-13.8,6.2l-0.9,0.4c-0.3,0.1-0.5,0.2-0.8,0.4
				c-0.5,0.3-1,0.5-1.5,0.8c-0.4,0.3-0.9,0.6-1.2,1c-0.3,0.3-0.6,0.7-0.8,1c-0.1,0.3-0.2,0.7-0.1,1c0,0.3,0.2,0.7,0.5,1.2
				c0.1,0.3,0.3,0.5,0.5,0.9s0.3,0.7,0.5,1.1c0.3,0.7,0.4,1.5,0.4,2.3c0,1.5-0.4,2.9-1.1,4.2c-0.3,0.6-0.7,1.2-1.2,1.8
				c-0.5,0.6-1,1-1.5,1.5c-1.1,0.9-2.2,1.5-3.4,2.1s-2.4,1-3.5,1.5c-0.4,0.1-0.8,0-0.9-0.4c-0.1-0.3,0-0.7,0.4-0.9
				c1.1-0.6,2.2-1.1,3.3-1.7c1-0.6,2.1-1.3,2.9-2.1c0.9-0.8,1.5-1.6,2-2.7c0.4-1,0.7-2.1,0.6-3.1c0-0.5-0.1-1-0.3-1.4
				c-0.1-0.2-0.2-0.4-0.3-0.6s-0.3-0.4-0.5-0.7c-0.2-0.3-0.4-0.6-0.6-0.9c-0.2-0.4-0.4-0.8-0.4-1.2c-0.2-0.9-0.1-1.9,0.2-2.7
				c0.3-0.8,0.8-1.5,1.3-2.1c0.5-0.6,1.1-1,1.6-1.5c0.6-0.4,1.2-0.8,1.8-1.1c0.3-0.1,0.6-0.3,0.9-0.4l0.9-0.4
				c4.5-2.2,9.1-4.4,13.6-6.6c2.3-1.1,4.6-2.2,6.8-3.2l3.4-1.6c1.1-0.6,2.3-1.1,3.3-1.6c1-0.5,1.9-1.1,2.7-1.8
				c0.2-0.1,0.3-0.3,0.5-0.5l0.2-0.3l0.2-0.3c0.2-0.3,0.4-0.7,0.5-1.2c0.2-0.8,0.1-1.7-0.2-2.2c-0.1-0.3-0.4-0.4-0.7-0.6
				s-0.8-0.3-1.3-0.3c-0.5-0.1-1.1,0-1.6,0s-1.1,0.1-1.7,0.2c-1.2,0.2-2.3,0.6-3.5,1c-2.3,0.8-4.6,1.9-7.1,2.7
				c-0.6,0.2-1.3,0.4-2.1,0.4c-0.4,0-0.8,0-1.3-0.1c-0.4-0.1-0.8-0.4-1.2-0.7c-0.3-0.3-0.6-0.7-0.7-1.2c-0.1-0.4-0.2-0.8-0.2-1.2
				c0-0.7,0.1-1.5,0.4-2.1c0.1-0.3,0.2-0.6,0.4-1c0.1-0.3,0.3-0.6,0.5-0.9c0.3-0.6,0.6-1.1,1-1.6c0.7-1.1,1.4-2.2,2.1-3.2
				c1.5-2.1,3.1-4.1,4.8-6c0.9-1,1.7-1.9,2.7-2.8c0.9-0.9,1.9-1.8,2.8-2.6c0.3-0.3,0.7-0.2,1,0.1
				C121.5,448.5,121.5,448.9,121.2,449.2L121.2,449.2L121.2,449.2z" style="fill:#FFFFFF;"/>
		</g>
		<g>
			<path d="M162.7,497.3c-2.2,1.6-4.1,3.5-5.9,5.6c-0.4,0.5-0.9,1-1.3,1.6c-0.4,0.6-0.8,1.1-1.2,1.6
				c-0.3,0.6-0.6,1.1-0.8,1.7c-0.1,0.3-0.2,0.6-0.2,0.9c0,0.3-0.1,0.6-0.1,0.9c0,0.6,0.1,1.1,0.4,1.6c0.3,0.4,0.6,0.8,1,0.9
				c0.4,0.2,0.9,0.3,1.6,0.3l2.1,0.2c1.4,0.1,2.8,0.3,4.1,0.5l1,0.1l0.3,0l0.3,0c0.2,0,0.4,0.1,0.6,0.1c0.4,0.1,0.9,0.3,1.5,0.6
				c0.5,0.3,1.1,0.9,1.4,1.7c0.1,0.4,0.2,0.8,0.2,1.2s0,0.7-0.1,1c0,0.3-0.1,0.5-0.2,0.7c-0.1,0.2-0.1,0.4-0.2,0.6
				c-0.3,0.8-0.8,1.6-1.4,2.2c-1.1,1.3-2.4,2.2-3.7,3c-2.5,1.5-5.1,2.5-6.2,4.1c-0.3,0.4-0.4,0.7-0.4,1c0,0.3,0.1,0.6,0.3,1
				c0.2,0.3,0.6,0.7,1.1,0.9c0.2,0.1,0.5,0.3,0.7,0.4c0.3,0.1,0.6,0.2,1,0.4c0.4,0.1,0.8,0.3,1.2,0.6c0.4,0.3,0.8,0.7,1,1.1
				c0.5,0.9,0.7,1.8,0.6,2.7c-0.1,0.9-0.4,1.7-0.8,2.3c-0.4,0.7-0.9,1.2-1.3,1.8c-0.3,0.3-0.7,0.3-1,0.1c-0.3-0.2-0.3-0.6-0.2-0.9
				c0.3-0.6,0.7-1.2,0.9-1.8c0.2-0.6,0.4-1.1,0.3-1.6c0-0.5-0.2-1-0.4-1.3c-0.1-0.1-0.3-0.2-0.4-0.3c-0.2-0.1-0.4-0.2-0.7-0.3
				l-1-0.3c-0.4-0.1-0.8-0.3-1.2-0.4c-0.7-0.3-1.5-0.8-2.2-1.5c-0.3-0.4-0.6-0.8-0.8-1.3c-0.2-0.5-0.3-1-0.3-1.5
				c0-1.1,0.3-2.1,0.7-2.8c0.4-0.8,1-1.4,1.6-2c0.3-0.3,0.6-0.5,0.9-0.8c0.3-0.2,0.6-0.4,0.9-0.6c1.2-0.8,2.5-1.5,3.5-2.2
				c0.5-0.4,1-0.7,1.5-1.1c0.4-0.4,0.9-0.8,1.2-1.2c0.3-0.4,0.6-0.9,0.8-1.3c0.1-0.2,0.1-0.5,0.2-0.6c0-0.1,0-0.1,0-0.1s0,0.1,0,0.1
				c0,0.1,0.1,0.2,0.1,0.1c0,0-0.2-0.1-0.4-0.2c-0.4-0.1-1.2-0.3-1.8-0.4c-1.3-0.3-2.7-0.7-4-1.1l-2-0.6c-0.7-0.2-1.5-0.5-2.3-1
				c-0.4-0.3-0.7-0.6-1-1s-0.5-0.8-0.6-1.2c-0.3-0.8-0.4-1.6-0.4-2.5c0.1-1.7,0.8-3.1,1.7-4.3c0.9-1.2,1.8-2.2,2.7-3.3
				c1.9-2.1,3.8-4.1,6-5.8c0.3-0.3,0.8-0.2,1,0.1C163,496.6,163,497,162.7,497.3C162.7,497.2,162.7,497.2,162.7,497.3z" style="fill:#FFFFFF;"/>
		</g>
	</g>
	<path d="M203.9,347.4c-2.2-1.9-5.4-2.9-9.2-2.8c-3.5,0.1-7.1,1.2-10,2.9c-4.7,2.9-6.7,7.4-5.4,12.3
		c3,10.9,13.3,15,13.7,15.2c0.1,0,0.3,0.1,0.4,0.1c0.1,0,0.2,0,0.3,0l11-3.2c0.3-0.1,0.6-0.3,0.7-0.7
		C205.7,370.4,211.4,354.1,203.9,347.4z" style="fill:#191919;"/>
	<g>
		
			<rect x="359.9" y="457.1" transform="matrix(0.6557 -0.755 0.755 0.6557 -226.6784 443.7582)" width="26.7" height="26.7" style="fill:#FFFFFF;"/>
		<path d="M374.6,490.5c-0.3,0-0.5-0.1-0.7-0.3l-20.2-17.5c-0.5-0.4-0.5-1.1-0.1-1.6l17.5-20.2c0.2-0.2,0.5-0.4,0.8-0.4
			c0.3,0,0.6,0.1,0.8,0.3l20.2,17.5c0.5,0.4,0.5,1.1,0.1,1.6l-17.5,20.2C375.3,490.3,375,490.5,374.6,490.5
			C374.6,490.5,374.6,490.5,374.6,490.5z M356,471.7l18.5,16.1l16.1-18.5L372,453.2L356,471.7z" style="fill:#191919;"/>
	</g>
	<g>
		<path d="M199.9,444.5c-0.1,0-0.2,0-0.3,0c-0.6-0.2-0.9-0.8-0.7-1.3l3.4-11c0.2-0.6,0.8-0.9,1.3-0.7s0.9,0.8,0.7,1.3
			l-3.4,11C200.8,444.2,200.4,444.5,199.9,444.5z" style="fill:#191919;"/>
	</g>
	<g>
		
			<ellipse transform="matrix(0.3884 -0.9215 0.9215 0.3884 -248.5787 443.4096)" cx="209.7" cy="409" rx="2.8" ry="5.9" style="fill:#FFFFFF;"/>
		<path d="M211.3,405.4c-1.6-0.7-3.2-1-4.6-1c-1.7,0.1-2.8,0.7-3.3,1.8c-0.4,1.1-0.1,2.4,1,3.6c0.9,1,2.3,2,3.9,2.7
			c1.5,0.6,3,1,4.3,1c1.8,0,3.1-0.6,3.7-1.8l0,0C217.1,409.7,214.9,407,211.3,405.4z M206,408.4c-0.6-0.6-0.7-1.1-0.6-1.3
			c0.1-0.2,0.6-0.4,1.4-0.4c0.1,0,0.1,0,0.2,0c1,0,2.3,0.3,3.5,0.8c0.3,0.1,0.5,0.2,0.7,0.3c-0.9,0.1-1.5,0.5-1.7,1.1
			c-0.2,0.6-0.1,1.3,0.4,2c-0.3-0.1-0.5-0.2-0.7-0.3C207.8,410,206.7,409.2,206,408.4z" style="fill:#191919;"/>
	</g>
	<g>
		<path d="M203.4,420.3l6,5.1c0,0-3.2,2-5.7,0.1C201.6,424,203.4,420.3,203.4,420.3z" style="fill:#FFFFFF;"/>
		<path d="M206.1,427.4c-1,0-2.1-0.3-3.1-1c-2.2-1.6-1.3-4.9-0.5-6.6c0.1-0.3,0.4-0.5,0.7-0.6c0.3-0.1,0.7,0,0.9,0.2
			l6,5.1c0.3,0.2,0.4,0.6,0.4,0.9c0,0.3-0.2,0.7-0.5,0.8C209.8,426.4,208.1,427.4,206.1,427.4z M203.9,422.2c-0.2,0.9-0.3,2,0.4,2.5
			c1,0.7,2.2,0.7,3.1,0.4L203.9,422.2z" style="fill:#191919;"/>
	</g>
	<path d="M230.2,403.9c-3.6-1.3-7.7,0.3-10.4,3.7c-0.4-3.7-2.7-6.9-6.1-8.1c-2.5-0.9-5.2-0.7-7.7,0.6
		c-2.4,1.3-4.3,3.5-5.3,6.2c-1,2.7-1,5.6,0,8.2c1,2.6,2.9,4.6,5.5,5.5c1,0.4,2.1,0.6,3.1,0.6c4.2,0,8.2-2.9,9.9-7.4l0,0
		c0.1-0.3,0.2-0.5,0.3-0.8c0.3-0.1,0.5-0.3,0.6-0.6c1.7-4.5,5.9-7.2,9.4-5.9c3.5,1.3,5,6,3.4,10.6c-1.3,3.4-4.1,5.9-7,6.2
		c-0.6,0-1,0.6-1,1.2c0,0.6,0.5,1,1.1,1c0,0,0.1,0,0.1,0c3.8-0.4,7.3-3.3,8.8-7.6C236.9,411.7,234.8,405.6,230.2,403.9z
		 M217.1,412.5c-1.7,4.5-6.3,7-10.3,5.6c-1.9-0.7-3.4-2.2-4.2-4.2c-0.8-2.1-0.8-4.4,0-6.6s2.4-4,4.3-5.1c1.2-0.6,2.4-0.9,3.5-0.9
		c0.8,0,1.6,0.1,2.4,0.4C216.9,403.1,218.8,407.9,217.1,412.5z" style="fill:#191919;"/>
	<g>
		<path d="M187.6,372.5c-0.6,0-1.2-0.3-1.6-0.9c-0.5-0.9-0.2-2,0.6-2.5c0.4-0.2,9.4-5.5,19.7-5c1,0,1.8,0.9,1.7,1.9
			c0,1-0.9,1.8-1.9,1.7c-9.3-0.4-17.7,4.5-17.7,4.6C188.2,372.3,187.9,372.5,187.6,372.5z" style="fill:#FFFFFF;"/>
	</g>
	<g>
		<path d="M226.7,375.1c-4.1-4.1-11.8-8.7-24.9-7.2c-9.5,1.1-16.2,4.8-19.9,11c-4.4,7.5-2.9,16-1.4,19.5
			c-1.3,1.5-1.9,3.6-1.9,5.9c0,3.8,2.7,6,4.9,7.1l-10.1,18.4c-0.3,0.5-0.1,1.2,0.4,1.5c0.1,0.1,0.3,0.1,0.5,0.1c0.4,0,0.7-0.2,1-0.6
			l10.7-19.5c0.1-0.3,0.2-0.6,0-0.9c-0.1-0.3-0.4-0.5-0.7-0.6c-0.2,0-4.6-1.4-4.6-5.5c0-2,0.7-3.8,1.9-5c1-1,2.3-1.5,3.8-1.5
			c2.9,0.1,4.7,3.1,5,3.7c1.1,5.1,3.6,5.6,4.1,5.7c0.1,0,0.1,0,0.2,0c1.5,0,2.5-2.1,4.2-5.9c1.7-3.7,4.3-9.3,6.6-9.3
			c2.2,0,4.5,2.5,6.6,5c2.3,2.6,4.7,5.3,7.7,5.9c1.6,0.3,3.1,0.4,4.6,0.1c-0.1,5.7-1,10.5-2.6,14.6c-3.1-2.4-2.7-4.4-2.6-4.5
			c0.2-0.6-0.1-1.2-0.7-1.3s-1.2,0.1-1.4,0.7c-0.1,0.2-1.6,4.9,6.4,8.7c0.5,0.3,0.8,0.6,0.8,1c0,0.4-0.3,0.7-0.8,1
			c-1.8,0.9-5.3,0.4-7.3-2.3c-0.3-0.5-1-0.6-1.5-0.3s-0.6,1-0.3,1.5c0.9,1.2,2.1,2.1,3.4,2.8c-1.1,2.3-4.3,7.1-10.9,7.1
			c-1.5,0-2.8-0.3-4-0.7c-0.1,0-0.2-0.1-0.3-0.1c0,0-0.1,0-0.2-0.1c-4.3-1.6-6.6-5.1-6.6-5.2c0,0,0,0,0,0c0,0,0-0.1-0.1-0.1
			c0,0,0,0-0.1-0.1c0,0-0.1,0-0.1-0.1c0,0,0,0-0.1,0c0,0-0.1,0-0.1,0s0,0-0.1,0c0,0-0.1,0-0.1,0s0,0-0.1,0c0,0-0.1,0-0.1,0h0
			c0,0-0.1,0-0.1,0h0c-0.1,0-0.1,0-0.2,0c0,0,0,0,0,0c-0.1,0.1-1.2,0.5-1.8,1.8c-0.4,1-0.4,2.1,0.1,3.4c0.4,1.1,1.5,2.1,2.6,3.2
			c2.3,2.2,3.8,4,3.4,6.4l-0.3,1c-0.2,0.6,0.1,1.2,0.7,1.3c0.1,0,0.2,0.1,0.4,0.1c0.4,0,0.9-0.3,1-0.7c0.1-0.4,0.3-0.8,0.4-1.2
			l2.2-7.1c1.2,0.3,2.5,0.5,3.9,0.5l0,0c8.1,0,11.8-6,13-8.6c0.5,0.1,1.1,0.1,1.6,0.1c1.1,0,2.1-0.2,2.9-0.6c1.3-0.6,2-1.7,2-2.9
			c0-1.2-0.7-2.3-2-2.9c-0.3-0.1-0.6-0.3-0.8-0.4c1.9-4.6,2.9-10,2.9-16.5c0.6-0.3,1.2-0.6,1.8-1c2.6-1.9,4.1-4.9,4.6-8.8
			C234.3,388.1,232.3,380.7,226.7,375.1z" style="fill:#191919;"/>
		<g>
			
				<ellipse transform="matrix(0.3884 -0.9215 0.9215 0.3884 -245.2726 460.8386)" cx="224.5" cy="415.2" rx="2.8" ry="5.9" style="fill:#FFFFFF;"/>
			<path d="M226,411.7c-1.6-0.7-3.2-1-4.6-1c-1.7,0.1-2.8,0.7-3.3,1.8c-0.9,2,1.3,4.7,4.9,6.3c1.5,0.6,3,1,4.3,1
				c0.1,0,0.2,0,0.3,0c1.7-0.1,2.8-0.7,3.3-1.8C231.8,415.9,229.7,413.2,226,411.7z M220.1,413.3c0.1-0.2,0.6-0.4,1.4-0.4
				c0.1,0,0.1,0,0.2,0c1,0,2.3,0.3,3.5,0.8c0.3,0.1,0.5,0.2,0.7,0.3c-0.9,0.1-1.5,0.5-1.7,1.1c-0.2,0.6-0.1,1.3,0.4,2
				c-0.3-0.1-0.5-0.2-0.7-0.3C221.2,415.6,219.9,413.9,220.1,413.3z" style="fill:#191919;"/>
		</g>
		<path d="M188.4,399.9c-0.2,0-2-0.3-3.5,0.6l0,0l0,0c-0.3,0.1-0.6,0.4-0.8,0.6c-1,1-1.4,2.4-1.2,4.2
			c0.1,0.6,0.5,1,1.1,1c0,0,0.1,0,0.1,0c0.6-0.1,1-0.6,0.9-1.2c-0.1-0.7,0-1.3,0.1-1.8l1.2,2.2c0.2,0.4,0.6,0.6,1,0.6
			c0.2,0,0.3,0,0.5-0.1c0.5-0.3,0.7-0.9,0.4-1.5l-1.3-2.4c0.5-0.1,0.9,0,1.1,0c0.6,0.1,1.2-0.3,1.2-0.9
			C189.4,400.5,188.9,400,188.4,399.9z" style="fill:#191919;"/>
	</g>
	<path d="M368.8,452.4c-0.4-0.5-0.7-0.9-5,0.6c0.3-0.7,0.3-1.6,0.1-2.5c-0.3-1.1-1-1.8-1.8-1.9
		c-0.4-0.1-0.8-0.1-6.1,3.2c0,0,0-0.1,0.1-0.1c1-2.1-0.4-3.8-1.6-4.4c-0.4-0.2-1-0.1-1.3,0.2l-3.5,3.7c-0.8-1.2-2.2-1.6-3.1-1.8
		c-0.4,0-0.8,0.1-1,0.5c-3.2,5.2-8.4,13.6-9,14.3c-0.1,0.1-0.1,0.2-0.2,0.3c-1.4,0.6-2.4,1.2-3.1,1.5c-4.4,2.4-16.8,13.3-18.1,14.4
		c-2.4,1.2-6.7,4.3-12.2,8.2c-8,5.7-18.7,13.3-27,17.4c-0.6,0.3-1.1,0.5-1.7,0.8c-2.9,1.3-5.4,2.1-7.2,2.1c-0.1,0-0.2,0-0.3,0
		c-6-0.3-14-11.3-21.8-21.9c-5.6-7.7-11.5-15.6-17.2-20.9c-12.7-11.5-23.7-17.5-26.1-18.7c-0.3-2.7-0.4-4.2-0.4-4.3c0,0,0,0,0-0.1
		s0-0.1,0-0.1c0,0,0-0.1,0-0.1c0,0,0,0,0-0.1c0,0,0,0,0,0c0,0,0-0.1,0-0.1c0,0,0-0.1-0.1-0.1c0,0,0,0-0.1-0.1c0,0-0.1-0.1-0.1-0.1
		c0,0,0,0-0.1,0c0,0-0.1,0-0.1-0.1c0,0,0,0-0.1,0c0,0-0.1,0-0.1,0c0,0,0,0-0.1,0c0,0-0.1,0-0.1,0c0,0-0.1,0-0.1,0c0,0-0.1,0-0.1,0h0
		c0,0,0,0,0,0c0,0-0.1,0-0.1,0c0,0-0.1,0-0.1,0c0,0,0,0-0.1,0l-9.4,4.3l-14.9-17c-0.2-0.3-0.6-0.4-0.9-0.4c-0.3,0-0.6,0.2-0.8,0.5
		l-3.8,5.7c-4-0.1-26.1-0.3-44.8,9.6c-21.1,11.2-52.6,38.7-52.9,68.7c-0.2,20.9,16.1,35.4,30,43.9l-8.1,21.5c-0.2,0.5,0,1,0.4,1.3
		c0,0,1.5,1,3.7,2.4c-1.2,2.4-2.3,4.7-3.3,6.9c-2.4,5.3-3.6,12.9-3.2,19.7c0.3,4.6,1.2,8.2,2.4,11.1c-9.4,6.6-30.7,11.8-38.8,13.8
		c-0.6,0.1-1.1,0.3-1.5,0.4c-4.8,1.2-7.6,2.9-8.4,5.1c-0.3,0.9-0.5,2.3,0.7,3.8c1.8,2.4,9.7,3.3,22.6,4.5c2,0.2,4,0.4,5.9,0.6
		c12.2,1.2,26.8,3.8,30.8,4.5c-0.9,6.4-1.2,11.3-1.2,11.7c0,0.6,0.4,1,1,1.1c0.6,0.1,55,6,77.7,9.7l1.6,0.3c15.5,2.6,36.1,6,52.7,6
		c9.4,0,17.5-1.1,22.7-4c7.5-4.2,13.2-13.7,14.9-24.7c0.6-4,0.9-10-0.6-16.8c1.2,0,2.4,0,3.5,0c25.5,0,40.1-6.3,46-19.6
		c2.4-5.4,4.3-14.5,2.3-23.9c-1.5-7.5-6.1-17.7-19.1-23.7c-10.8-5-28.4-9.6-43.1-12.8c7.8-0.3,14.6-1.9,19.8-5
		c8.2-4.9,18.4-14.8,30.3-29.5c8.5-10.5,14.8-19.7,15.4-20.5c5.2-5.6,10.6-10.6,11.5-11.4c1.6-0.6,14.8-2.5,26.6-3.9
		c0.6-0.1,1-0.6,0.9-1.2c-0.5-4.3-4.2-4.8-7.5-5.2c-3.9-0.5-7.9-1.1-9.5-6.3c-2.2-6.4,6.1-10.5,12.2-13.6c1.3-0.7,2.6-1.3,3.6-1.9
		c1.5-0.9,2.3-1.9,2.5-3.1C369.7,453.7,368.9,452.6,368.8,452.4z M361.6,450.8c0.1,0.2,0.2,0.4,0.2,0.7c0,0.2,0,0.6-0.3,0.8
		l-2.2,2.1c-0.1,0.1-0.1,0.1-0.2,0.2c-2,0.8-4.4,1.8-7.4,3c-1.1,0.4-2.2,0.9-3.3,1.4C354.4,455.3,360,451.7,361.6,450.8z M354,449.6
		c0.1,0.3,0.3,0.6,0,1c-0.7,1.4-3.8,4.4-5.1,5.5c-1.2,0.7-2.3,1.5-3.4,2.2L354,449.6z M346.9,451.7c0.4,0.1,0.9,0.4,1,0.9
		c0,0.1,0,0.1,0.1,0.2l-5,5.2C344.6,455.4,346.1,452.9,346.9,451.7z M206.9,480.6c0.3,1.5,1.8,2.4,3.2,3.2c2.2,1.3,3.2,2,2.7,3.5
		c-0.3,1-1,2.5-1.9,4.3c-1.6,3.4-3.8,8-5.3,13.4c-0.9-20.2-2.6-40.2-3.7-51.7c5.6,10.4,10.7,20.8,10.8,22.7
		c-0.4,0.5-1.5,0.8-2.4,1.1C208.9,477.6,206.5,478.3,206.9,480.6z M206.2,534.5c6.3,6.6,15.5,12.4,26,16.4c-8.9-1-17.9-1.3-26.8-1
		C205.7,545.2,206,540,206.2,534.5z M199,445c0.2,2.2,0.7,6.7,1.3,12.8l-4.7,2.9l-4.4-12.1L199,445z M189.5,469.1
		c0-2.2,0.1-4.4,0.3-6.7c0.1-2.2,0.3-4.5,0.5-6.7c0.1-0.9,0.1-1.9,0.2-2.8l3.6,9.9c0.1,0.3,0.4,0.6,0.7,0.7c0.1,0,0.2,0.1,0.3,0.1
		c0.2,0,0.4-0.1,0.6-0.1l4.9-3.1c2.1,23.1,5.1,64.8,2.6,89.7c-7.5,0.4-14.9,1.2-22.3,2.5c-0.4-1.8-0.6-3.7-0.6-5.5
		c0.1-2.2,0.4-4.3,1-6.4c0.6-2.1,1.3-4.2,2.2-6.2c0.9-2.1,1.9-4,2.9-6l3.2-6c1-2,2.1-4.1,2.9-6.3c0.9-2.2,1.6-4.4,2-6.8
		c0.4-2.4,0.6-4.8,0.4-7.2c-0.2-2.4-0.7-4.7-1.4-6.9s-1.4-4.4-2.1-6.5c-0.3-1.1-0.7-2.1-0.9-3.2c-0.1-0.5-0.3-1.1-0.4-1.6
		c-0.1-0.6-0.2-1.1-0.3-1.6c-0.3-2.2-0.5-4.4-0.5-6.6C189.4,473.5,189.4,471.3,189.5,469.1z M191.3,563.8l6.9,0.7
		c3.6,0.6,7.7,1.6,10.9,3.3c5.8,3.2,12.4,11.7,14.4,18.1c-7.8-4-13.2-5.9-13.4-6l0,0c0,0-0.1,0-0.1,0c-0.1,0-0.1,0-0.2,0h0
		c-0.1,0-0.1,0-0.2,0l0,0c-0.1,0-0.1,0-0.2,0.1l0,0c-4.5,2.2-15.6,1.4-21.9,0.7c0,0-0.1,0-0.1,0l-3.2-0.4
		C186.2,573.4,190.1,565.9,191.3,563.8z M181.1,583.2l-9.6-2.5c1.2-3.6,5.4-15.5,10.4-20.6l7.3,3
		C187.5,566.3,182.8,575.5,181.1,583.2z M191.7,502.4c0.1,2.1,0,4.2-0.4,6.3c-0.4,2.1-0.9,4.2-1.7,6.2s-1.6,4.1-2.5,6.1
		c-0.9,2-1.9,4-2.9,6.1c-2,4.1-4,8.3-5.1,12.8c-0.6,2.2-1,4.6-1,6.9c0,2,0.1,4,0.6,6c-1.5,0.3-3,0.6-4.5,0.9c-2-1.1-4.3-2.4-6.6-3.7
		c2.8-11.5,5-23,6.7-33.7c0,0,0,0,0,0c0-0.1,0-0.2,0-0.3c1.6-10.2,2.6-19.6,2.9-27.8c0.6-12.6-0.2-23.2-1.4-31.5l7.9,6.4
		c0.2,0.1,0.4,0.2,0.7,0.2c0.1,0,0.2,0,0.3,0c0.3-0.1,0.6-0.3,0.7-0.7l2.6-6.9c-0.4,2.1-0.7,4.2-1,6.3c-0.3,2.3-0.5,4.6-0.6,6.8
		c-0.1,2.3,0,4.6,0.3,6.9l0.2,1.7l0.3,1.7c0.1,0.6,0.2,1.1,0.3,1.7c0.1,0.6,0.2,1.1,0.3,1.7c0.4,2.3,1,4.5,1.5,6.7
		C190.4,493.8,191.5,498.2,191.7,502.4z M174.4,432.1l14.2,16.1l-4.6,12.3l-8.6-6.9c-1.5-9.3-3.4-15.1-4-16.9L174.4,432.1z
		 M170.6,441.8c2.1,7.5,5.5,23.6,4.4,46.4c-0.2,5.5-0.8,11.6-1.6,18.1c-1.8-6.4-5.3-12.5-7.6-16.4c-0.9-1.5-1.8-3.2-1.9-3.6
		c0-0.5,1.5-1.7,2.4-2.5c1.6-1.3,3.4-2.8,3.6-4.6c0.1-0.9-0.2-1.6-0.5-1.9c-1-1.2-2.9-1.3-4.9-1.3c-0.8,0-1.7-0.1-2.1-0.2
		c-0.1-0.7,0.7-3.1,1.4-5.3c0.8-2.3,1.7-5.1,2.6-8.5C168.8,453.6,170,446.3,170.6,441.8z M92.2,548.1
		c-12.1-10.2-18.2-21.8-18.1-34.3c0.1-16.3,10-30.8,18.3-40.2c9.2-10.5,21.7-20.4,33.4-26.6c17.5-9.3,38.2-9.4,43.2-9.3
		c-0.3,3.1-1.5,12.2-4.6,23.9c-0.9,3.3-1.8,6.1-2.6,8.3c-0.7,2-1.2,3.6-1.4,4.8c-0.3,1.7,0.1,2.8,1.2,3.2c0.7,0.3,1.8,0.3,2.9,0.4
		c1.1,0,2.9,0.1,3.3,0.6c0,0,0,0.1,0,0.2c-0.1,0.9-1.6,2.2-2.8,3.1c-1.7,1.4-3.3,2.7-3.1,4.3c0.1,0.8,0.7,1.9,2.2,4.5
		c3.3,5.7,9.4,16.2,8.1,24.8c-1.6,10.5-3.8,21.8-6.5,33.2c-3-1.8-6-3.8-8.5-5.9c-1.4-1.1-3.1-2.5-5.1-4.1
		c-8.5-6.9-19.9-16.3-26.8-19.3c1.3-2.2,4.4-7.2,7.5-12.4c8.3-14.2,7.8-15.2,7.5-16c-0.4-1-1.6-1.8-3.1-1.9
		c-2.2-0.2-5.3,0.9-7.2,3.7c-1,1.6-1.7,3.5-2.3,5.5c-1.3,4-2.5,7.8-7.4,8.7c-0.7,0.1-1.4,0.3-2.2,0.4c-6.9,1.2-15.4,2.7-18.1,6.5
		c-0.8,1.1-1,2.3-0.8,3.7c0.9,5.4,9.4,6.2,17.5,6.9c2.6,0.2,5,0.4,6.9,0.8c6.3,1.2,11.7,3.8,14.9,5.7l3.1,2c3.2,2.5,6.3,5.1,9,7.3
		c2,1.6,3.7,3,5.1,4.1c2.9,2.4,6.5,4.7,9.9,6.7c0,0,0.1,0,0.1,0.1c3,1.8,6,3.5,8.5,4.8c0,0,0.1,0,0.1,0.1l0.1,0
		c2.2,1.2,4.1,2.1,5.3,2.7c-5.2,5.8-9.3,17.4-10.5,21c-5.9-1.8-35.5-10.6-48.6-15.6C115.9,562.7,103.2,557.4,92.2,548.1z
		 M96.1,579.1l7.6-20.3c7.2,4.2,13.6,6.8,16.3,7.8c9,3.4,25.6,8.6,37.1,12.1c-1.3,3.8-2.5,6.9-3.5,9.3c-2,4.5-4.7,7.4-8.4,8.8
		c-2.9,1.1-6.3,1.2-9.9,0.6c-0.9-0.1-3.4-0.7-7.2-1.8c-4-1.3-8.1-3.1-11.9-4.9C109,587.4,98.9,580.9,96.1,579.1z M109.2,633
		c-1.6,2-5.3,7.5-7.2,17.4c-3.3-0.6-8.2-1.4-13.5-2.2c0-1.5-0.7-2.7-1.3-3.7c-0.9-1.6-1.3-2.5-0.6-3.9c1.2-2.4,11.5-7,17.9-9.4
		C105.9,631.9,107.5,632.5,109.2,633z M272.4,653.1c-1.6,10.2-7,19.3-13.8,23.1c-13.8,7.8-51.4,1.5-73.9-2.2l-1.6-0.3
		c-21-3.5-69.1-8.8-76.8-9.7c0.3-4,1.5-19.1,6-30.1c4.1,1.2,8.8,2.1,13.7,2.9c5.3,5.3,13,8.1,23.8,8.6c8.5,0.4,18.9-0.7,31.7-3.4
		c13.8-2.8,29.1-0.6,43.2,6.3c1.6,0.7,7.6,3.5,12.7,3.5c2.2,0,4.1-0.5,5.6-1.8c1.7-1.6,1.9-3.1,1.9-4.1c-0.1-1.8-1.3-3.2-2.4-3.9
		l0,0l0,0l0,0l0,0c-11.7-8-52.7-7.2-75.2-5.4c-15.1,1.2-39.8-0.6-55.1-5c-0.1,0-0.1,0-0.2-0.1c-2.5-0.7-4.8-1.6-6.7-2.4
		c0,0-0.1,0-0.1-0.1c-1.6-0.8-3-1.6-4.1-2.5c-8.8-7.3-8.7-24.8-4.6-34.9c4.1,1.8,19.4,8.1,39.3,8.1c0,0,0,0,0.1,0l0,0
		c1.3,0.2,2.6,0.3,3.9,0.3c2.3,0,4.5-0.3,6.6-1.1c4.2-1.6,7.5-5,9.7-10c1.1-2.5,2.3-5.6,3.6-9.6c6.1,1.9,10.4,3.1,10.5,3.2
		c0,0,0,0,0,0l0,0l11.7,3c0.3,0.1,0.9,0.4,1.8,0.4c0.4,0,0.9-0.1,1.5-0.3c1.2-0.4,2.2-1.3,3-2.7c3.1,0.3,7.2,0.7,11.2,0.7
		c4.2,0,8.2-0.4,10.9-1.5c3.2,1.2,24.9,9.7,44,27.2l6.3,6.2c6.3,6.8,9.7,13.8,11.4,20.1c0,0.1,0,0.2,0.1,0.3
		C273.3,642.9,273,649,272.4,653.1z M267.5,559.8c0.1,0,0.3,0,0.4-0.1c22.9,5.3,33.8,9.7,38,11.6c12.1,5.7,16.4,15.2,17.8,22.2
		c1.8,8.9,0.1,17.5-2.2,22.6c-5.8,13.1-21.1,18.9-48.2,18.3c-1.6-5.7-4.6-12-9.8-18.2c1.8,0.2,4.2,0.3,7.2,0.3
		c3.1,0,6.8-0.2,10.8-0.7c9-1.2,14.3-6.1,15.4-10.2c0.7-2.5-0.1-4.9-2.1-6.6c-4.7-3.8-10.6-0.3-15.8,2.8c-1.6,0.9-3.1,1.8-4.6,2.5
		c-5.6,2.7-17.2,2.9-19.6,3c-9.9-9-20.5-15.6-28.9-20.1c-1.3-7.1-9-17.5-15.9-21.4c-2.8-1.5-6.2-2.5-9.4-3.2c-0.6-1.6-0.6-3,0.2-4.3
		c1.3-2.2,4.8-4,10-5.1c4.1-0.9,7.8-1.1,7.8-1.1c0,0,0.1,0,0.1,0c0.1,0,0.1,0,0.3,0c2.5-0.2,5.2,0.3,8.8,1.8c1,0.4,1.9,0.8,2.9,1.2
		c1.9,0.9,4,1.8,6.1,2.4c3,0.9,6.1,1.2,9.1,1.5c6.3,0.6,11.8,0.8,16.9,0.8C264.5,559.9,266,559.8,267.5,559.8z M282.4,549.7
		c-8.8,5.3-23.3,6.2-38.6,2.5c-15.2-3.7-29.1-11.3-37.1-20.4c-0.1-0.1-0.3-0.2-0.4-0.3c0.1-5.3,0-10.8-0.1-16.5v0
		c0.8-9.5,4.5-17.2,6.9-22.4c0.9-1.9,1.6-3.4,2-4.6c1-3.3-1.8-5-3.7-6c-0.9-0.5-2.1-1.2-2.2-1.7c-0.1-0.4,0.6-0.7,2.1-1.1
		c1.4-0.4,3-0.9,3.7-2.2c0.4-0.7,0.9-1.8-6.3-15.8c-1.9-3.8-4-7.5-5.3-10.1c4.5,2.6,13.2,8.1,22.9,16.9c5.7,5.2,11.4,13,17,20.6
		c0.4,0.6,0.9,1.2,1.3,1.8c2,3.7,6.9,14.1,6,18.5c-0.7,3.2-2.3,5.7-3.7,7.8c-1.9,2.9-3.7,5.6-1.2,8.5c0.6,0.7,1.4,1,2.3,1
		c2.9,0,7.5-3.4,13.2-7.7c3.7-2.8,7.8-5.9,11.7-8.2c2.5-0.9,4.2-2.2,4.4-2.3c6.9-3.5,15.3-9.1,22.6-14.4c0.9,1.6,2.8,4.7,5.3,8.2
		c4.3,6,8.4,10.1,12.3,12.3C308,526.1,294,542.8,282.4,549.7z M318.6,512.4c-7.8-4.2-15.2-16.7-17.1-20.1c0.9-0.6,1.8-1.2,2.6-1.8
		c4.6-3.3,8.7-6.2,11.1-7.6c1.6,3.1,6.9,12.6,11.7,18.1C325.8,502.6,322.8,506.9,318.6,512.4z M367.3,454.7c-0.1,0.5-0.6,1-1.5,1.6
		c-0.9,0.6-2.2,1.2-3.4,1.8c-6.4,3.2-16,8-13.3,16.2c2.1,6.5,7.4,7.3,11.3,7.8c2.9,0.4,4.7,0.7,5.4,2.3c-2.2,0.3-7.1,0.9-11.9,1.5
		c-13.6,1.8-14.1,2.3-14.6,2.7c-0.6,0.5-5.8,5.2-11,10.8c-4.7-5.5-9.8-14.9-11.3-17.7c2.7-2.4,13.4-11.6,17.2-13.7
		c4.9-2.8,29-13,33-13.8C367.3,454.3,367.3,454.5,367.3,454.7z" style="fill:#181818;"/>
</g>
<g>
	<g>
		<path d="M600.4,351.4c-5.5,0-11.2,0.4-16.1,2.9c-1.3,0.6-2.6,1.6-2.8,3c-0.2,1.4,0.9,2.6,1.8,3.6c-1.3,1-2.6,2-3.9,3
			c-0.5,0.4-1,0.8-1.4,1.3c-1,1.6,0,4,1.6,5c1.6,1,3.7,1.1,5.6,1.2c6.7,0.2,13.4,0.4,20.1,0.6c2.1,0.1,4.6,0,5.9-1.8
			c0.5-0.7,0.7-1.5,0.9-2.3c0.8-2.9,1.8-5.8,2.9-8.7c1-2.5,3.7-7.9-1-8.2c-2.2-0.1-4.6,0.3-6.8,0.3
			C605,351.5,602.7,351.4,600.4,351.4z" style="fill:#FECE2F;"/>
	</g>
	<g>
		<path d="M642.1,560.4c0,0-41.2-1.6-60-1.8c-18.8-0.2-64.2,5.3-80,15.3c-15.8,10-26.5,16-28.2,36
			c-1.7,20,14.4,35.9,51.3,37.7c0,0,0.3,22.7,22.4,29.5c22.2,6.8,42.7,1.4,42.7,1.4s33.7-7.4,42.9-11.4c9.1-4,33.7-8.3,33.7-8.3
			l38-7.8c0,0,1-20.1-10.3-33.7c0,0,13.1-14,12.6-35.2s-5.7-21.8-5.7-21.8H642.1z" style="fill:#FECE2F;"/>
	</g>
	<g>
		<path d="M502.1,574c-15.8,10-26.5,16-28.2,36c-0.2,2.3-0.1,4.5,0.1,6.6c0.3-0.4,0.6-0.9,0.8-1.3
			c1.9-3.6,4.6-6.8,7.9-9.3c4.3-3.3,9.5-5.5,13-9.7c0.8-1,1.6-2.2,1.7-3.5c0.1-1.3-0.4-2.8-1.6-3.3c-0.7-0.3-1.7-0.3-2.3-0.8
			c-0.9-0.6-0.9-1.9-0.4-2.9c0.5-0.9,1.4-1.6,2.3-2.1c5.6-3.4,12.4-4.3,18.8-5.5c6.5-1.3,13.2-3.2,17.6-8c1-1.1,2-2.7,1.4-4.1
			c-0.4-1-1.5-1.5-2.6-1.6C518.7,566.9,508.2,570.1,502.1,574z" style="fill:#FFFFFF;"/>
	</g>
	<g>
		<path d="M618.9,451.2l9.3-2.4c0,0-2.2,26.8-0.1,41.5c2.1,14.7,14.6,70.2,14.6,70.2s-19.9-0.9-20.3-0.9
			c-0.4,0-20.5-0.9-20.5-0.9l-2.3-26l-1.5-29.1l1.6-23.9l2.5-25l6.1-6.6L618.9,451.2z" style="fill:#FFFFFF;"/>
	</g>
	<g>
		<path d="M454.2,478.3l-17.8-7.4c0,0-4.2-8.5-4.3-8.9c-0.1-0.4-1.6-5.1-1.6-5.1s-3.5-0.4-2.8,5.5l-8.1-7.9
			c0,0-3.7,1.5,1.6,7.9l-9.6-4.5c0,0-3,1.8,2,5.3c5,3.5,11,7.6,11,7.6l-21.7-0.1c0,0-2.1,2.8,3.6,4.2c5.7,1.3,18.8,2.2,22.6,5.4
			c3.8,3.2,4.7,10.5,3.1,11.7c-1.5,1.2-12.3,8.4-12.3,8.4s-3.8,3.6-2.8,5.5l7.5-1.8l9.7-1.2l8-0.5l4.7-12.8L454.2,478.3z" style="fill:#FECE2F;"/>
	</g>
	<g>
		<path d="M454.2,478.3l9,4.6c0,0-7.5,12.9-12.5,27.4l-9.2-4.7l3-9.9L454.2,478.3z" style="fill:#FFFFFF;"/>
	</g>
	<g>
		<path d="M463.2,482.9l33.3,16.6l21.6,9.5c0,0,10.5,2.1,13.2,1.3s11.5-6.8,11.5-6.8l13.2-16.9l10.9-15.3l13.3-16.1
			c0,0,15.4-13,23.3-14.1l-0.4,6l-2.7,22.8l-1.7,28.5l0.7,31.4c0,0-15.5,15.1-35.6,20.9c-20.2,5.9-27.8,4.3-27.8,4.3
			s-21.5-1.2-43.1-13.1c-21.6-11.9-43-27.8-43-27.8S454.7,496.4,463.2,482.9z" style="fill:#FECE2F;"/>
	</g>
	<path d="M555.4,487.5c-0.5-0.3-1.1-0.2-1.5,0.3l-10.5,13.5c0,0.1-5.2,6.6-12.3,8.1c-7.1,1.4-19.2-4.4-19.3-4.5
		c-0.5-0.3-1.2,0-1.4,0.4c-0.3,0.5-0.1,1.2,0.4,1.5c0.1,0,6.6,3.9,8.8,9.7c1.2,3.2,0.5,5.4,0,7.4c-0.5,1.6-1,3.3,0.2,4.9
		c1,1.4,2.5,2.1,4.2,2.1c0.1,0,0.3,0,0.4,0c5.3-0.4,12.8-7.7,18.4-17.7c4.4-7.8,12.8-24,12.9-24.1
		C556,488.4,555.9,487.8,555.4,487.5z" style="fill:#FFFFFF;"/>
	<g>
		<polygon points="612.1,443.4 602,456.5 603.5,441.1 		" style="fill:#FFFFFF;"/>
	</g>
	<g>
		<polygon points="612.1,443.4 622.1,454.8 628.1,450.3 630.3,428.6 		" style="fill:#FFFFFF;"/>
	</g>
	<g>
		<path d="M630.3,428.6l-13.6-22.2c0,0,7.8-3.8,6.2-12.2c-1.6-8.4-8.4-6.6-8.4-6.6l-6.2,5.1l-10.5-7.7l-17.6,4.4
			l-5.4,9.9c0,0-1.2,9.4,6.9,18c0,0-5,3.7-2.2,6.6l3.9-0.1c0,0,5,8,12.2,8c7.2,0,6.3,0,6.3,0s0.4,9.6,1.6,9.3
			c1.2-0.3,8.6,2.4,8.6,2.4L630.3,428.6z" style="fill:#FECE2F;"/>
	</g>
	<g>
		<polygon points="609.7,458.9 604.2,530.7 611.7,538.4 623.5,522.4 615,457.8 		" style="fill:#FECE2F;"/>
	</g>
	<g>
		<path d="M618.7,450.1l-3.7,7.7l-5.3,1.1c0,0-3.8-7.6-3.3-7.7c0.6-0.1,5.7-7.8,5.7-7.8L618.7,450.1z" style="fill:#FECE2F;"/>
	</g>
	<g>
		<path d="M709.9,550.3l-17.8-42.9c0,0-6.5-14.7-4-22.8s14-32.8,14-32.8l11.8-30.8l2.6-15.6c0,0-2.5-35.1-12.7-44.4
			c-10.1-9.3-17-5.7-17-5.7l-42-5.9l-27-3.1l-8.8,32.6l32.6,6.2l26.7,6.2c0,0-1.4,21.4-14.6,30.9c-6.6,4.7-9.7,6.6-9.7,6.6h-12.3
			l-1.5,3.2l-2.2,18.5c0,0-0.5,29.2,1,46.5c1.6,17.3,13.4,63.3,13.5,63.8c0.1,0.4,6.9,34.9,18.4,35.4c11.6,0.5,23.4-16.6,23.4-16.6
			L709.9,550.3z" style="fill:#FECE2F;"/>
	</g>
	<g>
		<polygon points="617.9,346.2 609,378.8 625.3,381.8 634.8,348.6 		" style="fill:#FFFFFF;"/>
	</g>
	<path d="M697.8,355.7c-0.2,0-18.4-4-30.2-5.5c-11.5-1.4-31.6-2.7-32.7-2.8l-14.8-2.1c-1.2-0.2-2.1-0.3-2.2-0.3
		c-0.6,0-1.1,0.4-1.2,1s0.3,1.1,0.9,1.2l1.9,0.3c3.3,0.6,10.4,2.2,14.3,6.3c4.8,5.1,7.7,7.7,11.1,8.5c0.8,0.2,1.6,0.3,2.5,0.3
		c2.8,0,6-0.9,10.7-2.2c1.2-0.3,2.3-0.6,3.4-0.9c10.5-2.9,18.7-5.3,35.7-1.6c0.6,0.1,1.2-0.3,1.3-0.8
		C698.8,356.4,698.4,355.9,697.8,355.7z" style="fill:#FFFFFF;"/>
	<g>
		<path d="M567,590c-6,2.2-12.5,7.6-17,12c-5.4,5.3-10.5,11-15.1,17.1c-2.7,3.5-5.3,7.2-6.7,11.4
			c-1.6,4.8-1.6,10-3.1,14.8c-0.2,0.7-0.5,1.5-0.8,2.3c0.3,0,0.6,0,0.9,0c0,0,0.3,22.7,22.4,29.5c1.8,0.6,3.6,1,5.4,1.4
			c0,0,0,0,0.1-0.1c-7.5-4.3-15.4-9.6-18.1-17.8c-1.9-5.7-1-12.2,1.8-17.6c2.8-5.4,7.3-9.8,12.3-13.2c1.6-1.1,3.3-2.2,4.3-3.8
			c1-1.6,0.9-4.1-0.8-5.2c-0.5-0.3-1.2-0.5-1.7-0.7c-2.3-1.2-2.8-4.4-1.7-6.8c1.1-2.4,3.3-3.9,5.3-5.5c3.5-2.5,6.9-5.2,10.2-7.9
			c2.4-1.9,7.1-4.6,8.4-7.5C575.2,587.5,570.4,588.8,567,590z" style="fill:#FFFFFF;"/>
	</g>
	<path d="M631.7,427.6l-12.6-21.1c1.3-1,3.5-3.1,4.6-7c0.9-3.1,0.5-6.6-1.1-9.3c-1.2-2-2.9-3.4-4.8-3.7
		c-1-0.2-1.9-0.2-2.9,0c-0.1-1.6-0.5-5.2-1.1-9.1c-1.2-7.1-2.7-11.8-4.6-13.7c-1.4-1.5-2.9-2.1-4.4-1.8c-1.9,0.3-3.2,1.8-4,2.9
		c-2.2-1.5-5-2.2-8.5-2.1c-9.4,0.5-21.6,7.3-26.6,13.1c-3.2,3.7-4.5,8.2-3.8,12.8c0.7,4.4,3.3,8.4,6.9,10.6
		c3.2,1.9,7.1,2.2,11.8,0.9c4.2-1.2,7.8-3.4,9.5-4.6c3-2.1,4.7-4.2,5.8-5.6c0.5-0.6,1.1-1.4,1.3-1.5c0,0,0,0,0,0
		c1.2,0.5,3.2,4.5,4.6,10c0.8,3.2,2.1,6.5,5.3,6.5c0.1,0,0.1,0,0.3,0c2.8-0.1,3.1-4.2,3.5-11c0-0.1,0-0.1,0-0.2
		c0.2-1.8,1.1-3.2,2.4-4.1c1.2-0.9,2.7-1.2,4.1-0.9c1.3,0.3,2.5,1.2,3.3,2.7c1.3,2.2,1.6,5,0.9,7.5c-1.4,4.6-4.4,6.3-4.5,6.3
		c-0.3,0.1-0.5,0.4-0.6,0.7c-0.1,0.3,0,0.6,0.1,0.9l13.2,22c0.2,0.3,0.6,0.6,1,0.6c0.2,0,0.4,0,0.6-0.1
		C631.9,428.9,632,428.2,631.7,427.6z" style="fill:#191919;"/>
	<path d="M454.6,477.3c-1.5-0.6-14.2-6-17.6-6.9c-2.9-4.1-5.5-13.7-5.5-13.8c-0.1-0.6-0.7-0.9-1.3-0.8
		c-0.2,0-2.1,0.4-3.1,1.8c-0.5,0.7-0.7,1.6-0.5,2.5c0,0.1,0,0.1,0,0.2l-6.2-6.7c-0.3-0.3-0.6-0.4-1-0.3c-0.6,0.1-1.8,0.6-2.2,1.8
		c-0.5,1.3-0.1,3,1.2,5.2l-6.2-3.4c-0.5-0.3-1.2-0.1-1.5,0.4c-0.7,1.1-1.6,3.7,0.6,5.5c1.3,1.1,6.2,4.5,9.5,6.8c-0.7,0-1.3,0-1.9,0
		c-4.3-0.1-8.1-0.1-10.9-0.1c-5.6,0-5.6,0.1-6,0.7c-0.3,0.5-0.7,2.2,0,3.7c0.4,0.8,1.3,1.8,3.2,2l0.8,0.1
		c12.5,1.6,20.1,3.3,22.5,5.2c2,1.6,4.9,6.5,3.1,9.9c-0.3,0.6-2.7,2.1-4.7,3.2c-5.6,3.4-12.7,7.7-10.7,12c0.2,0.4,0.6,0.6,1,0.6
		c0.1,0,0.2,0,0.3,0c13.3-3.5,22.8-4.6,24.2-3.7c0.5,0.3,1.2,0.2,1.6-0.3s0.2-1.2-0.3-1.6c-1-0.7-3.7-1.5-14.7,0.7
		c-4.2,0.8-8.2,1.8-10.2,2.3c0.5-2.5,6.3-6,9.9-8.2c3.2-2,5-3.1,5.5-4.1c1.5-2.9,0.7-9.1-3.7-12.7c-3.7-2.9-15.2-4.6-23.6-5.7
		l-0.8-0.1c-1.1-0.1-1.3-0.6-1.4-0.7c-0.2-0.4-0.2-0.8-0.2-1.2c2.5-0.1,12.5,0,20.6,0.2c0.1,0,0.1,0,0.2,0
		c5.6,0.1,10.5,0.4,11.4,0.5c1.6,0.3,11.4,4.3,17.5,6.9c0.6,0.2,1.2,0,1.5-0.6C455.5,478.2,455.2,477.5,454.6,477.3z M429.6,463.3
		c0,0-0.3-1.6-0.7-3.6c-0.1-0.4,0-0.7,0.1-0.9c0.1-0.2,0.4-0.4,0.7-0.6c0.5,1.8,1.6,5.2,2.9,8.4L429.6,463.3
		C429.6,463.4,429.6,463.4,429.6,463.3z M419.4,455.9c0,0,0-0.1,0.1-0.1l9.5,10.2l-5.7-3.1C419,458,419.3,456.2,419.4,455.9z
		 M412.8,461.1c-0.6-0.5-0.6-1.1-0.5-1.6l9.5,5.2c0.1,0.1,0.3,0.2,0.5,0.3l9.1,5c-1.9-0.1-4.1-0.1-6.4-0.2
		C423.4,468.5,414.5,462.5,412.8,461.1z" style="fill:#191919;"/>
	<path d="M420.1,500.6l-9-25.2c-0.2-0.6-0.8-0.9-1.4-0.7l-25.2,9c-0.6,0.2-0.9,0.8-0.7,1.4l9,25.2
		c0.1,0.3,0.3,0.5,0.6,0.6c0.1,0.1,0.3,0.1,0.4,0.1c0.1,0,0.3,0,0.4-0.1l25.2-9c0.3-0.1,0.5-0.3,0.6-0.6
		C420.2,501.2,420.2,500.9,420.1,500.6z" style="fill:#191919;"/>
	<g>
		<g>
			<path d="M694.6,617.5c0,0,1.1,0.7,2.8-3.6c0,0,18.5,3.1,20.2,8.1c1.8,5-1.3,9.1-1.3,9.1l-13.6,3.5
				C702.7,634.6,695.8,618.1,694.6,617.5z" style="fill:#FECE2F;"/>
		</g>
		<path d="M769.3,614.9c-0.9-3.1-5.1-5.5-9.7-5.5l0,0c-0.6,0-1.5,0-2.5,0.1c-5,0.3-14.3,0.8-21.9-3
			c-9.7-4.9-25-7.7-32.2-4.1c-0.6,0.3-0.8,0.9-0.5,1.5c0.1,0.2,0.3,0.4,0.5,0.5c-1.1,1.9-4,5.8-5.3,8.4c-0.2,0-0.3,0-0.3,0
			c-0.6-0.1-1.2,0.3-1.2,0.9c-0.1,0.6,0.3,1.2,0.9,1.2c5.6,0.8,15,3.2,16.4,6.2c0.1,0.4,0.3,0.9-0.3,1.7c-1.9,3-2.4,5.4-1.4,7.1
			c0.2,0.4,0.4,0.7,0.7,0.9l-10.2,2.6c-0.6,0.1-1,0.7-0.8,1.3c0.1,0.5,0.6,0.9,1.1,0.9c0.1,0,0.2,0,0.3,0l14.9-3.8
			c2.4,2.6,11.4,12.1,17.5,12.1c0.2,0,0.4,0,0.6,0c1.6-0.1,2.8-1,3.6-2.4c0.6-1,0.8-1.9,0.8-2.7c0.3,0,0.6,0,0.8,0
			c1.6,0,3-0.3,4-0.9c0.9-0.6,1.9-1.6,1.8-3.7c0-1.7-0.7-3.1-2.1-4.1c-1.7-1.3-4.4-2-7.4-2.3c12.1-2.5,26.5-5.9,30-8.2
			C769.2,618.5,769.9,616.7,769.3,614.9z M737.5,640.4c-0.4,0.8-1.1,1.2-1.9,1.3c-2.2,0.2-5.8-1.8-10.2-5.6
			c-0.8-0.7-1.6-1.5-2.4-2.1c4.2,1.8,10.1,3.9,14.9,4.7C738,639.1,737.9,639.7,737.5,640.4z M726.2,632.9c0.3,0.1,0.6,0.1,0.9,0.2
			c3.7,0.8,6.5,1.8,8.4,2.8C732.6,635.2,729.4,634.1,726.2,632.9z M744.6,634.4c0,1.1-0.4,1.5-0.8,1.8c-0.9,0.6-2.4,0.7-4.2,0.5
			c-2-3.3-8.4-5.2-13.7-6.1c6.4-0.7,14.3-1,17.4,1.5C744.1,632.6,744.6,633.4,744.6,634.4z" style="fill:#191919;"/>
	</g>
	<g>
		<g>
			
				<ellipse transform="matrix(0.9309 -0.3653 0.3653 0.9309 -111.0715 239.8091)" cx="578.3" cy="413.5" rx="5.8" ry="2.7" style="fill:#FFFFFF;"/>
		</g>
		<path d="M584.7,410.9c-0.8-2.1-4.2-2.5-7.9-1c-1.6,0.6-3,1.5-4,2.5c-1.2,1.2-1.5,2.5-1.1,3.6c0.4,1.1,1.6,1.8,3.3,1.9
			c0.1,0,0.3,0,0.5,0c1.3,0,2.7-0.3,4.1-0.9c1.6-0.6,3-1.5,4-2.5C584.8,413.3,585.2,412,584.7,410.9z M582,413
			c-0.7,0.7-1.9,1.5-3.1,2c-0.2,0.1-0.4,0.1-0.6,0.2c0.5-0.7,0.7-1.3,0.4-1.9c-0.2-0.6-0.8-0.9-1.6-1.1c0.2-0.1,0.4-0.2,0.6-0.3
			c1.3-0.5,2.4-0.7,3.3-0.7c1,0,1.6,0.3,1.7,0.5C582.7,411.9,582.6,412.4,582,413z" style="fill:#191919;"/>
	</g>
	<g>
		<g>
			
				<ellipse transform="matrix(0.9309 -0.3653 0.3653 0.9309 -107.3939 244.9727)" cx="593.7" cy="406.3" rx="5.8" ry="2.7" style="fill:#FFFFFF;"/>
		</g>
		<path d="M600.2,403.8c-0.8-2.1-4.2-2.5-7.9-1c-1.6,0.6-3,1.5-4,2.5c-1.2,1.2-1.5,2.5-1.1,3.6c0.5,1.2,1.9,1.9,3.8,1.9
			c1.2,0,2.6-0.3,4.1-0.9c1.6-0.6,3-1.5,4-2.5C600.2,406.2,600.7,404.9,600.2,403.8z M597.5,405.9c-0.7,0.7-1.9,1.5-3.1,2
			c-0.2,0.1-0.4,0.1-0.6,0.2c0.5-0.7,0.7-1.3,0.4-1.9s-0.8-0.9-1.6-1.1c0.2-0.1,0.4-0.1,0.6-0.3c1.3-0.5,2.4-0.7,3.3-0.7
			c1,0,1.6,0.3,1.7,0.5C598.2,404.8,598.1,405.2,597.5,405.9z" style="fill:#191919;"/>
	</g>
	<g>
		<path d="M587.7,402.8c0.4,0.1,0.8,0,1.2,0c1.4-0.3,2.7-0.7,4-1.3c0.3-0.1,0.6-0.3,0.9-0.6c1.9-2.1-3.1-2.5-4.3-2.1
			C588.2,399.1,585,402.3,587.7,402.8z" style="fill:#191919;"/>
	</g>
	<g>
		<path d="M573.8,408.1c0.4,0.1,0.8,0,1.2,0c1.4-0.3,2.7-0.7,4-1.3c0.3-0.1,0.6-0.3,0.9-0.6c1.9-2.1-3.1-2.5-4.3-2.1
			C574.3,404.5,571.1,407.7,573.8,408.1z" style="fill:#191919;"/>
	</g>
	<g>
		<path d="M608.3,422.3c0,0,1.6-3.5,2.5,0.6c0.7,3.3-2.4,6.4-5.3,9.1c-3.3,3.3-1.5,9-1.5,9l-2.2-9.6l3.4-3.2l2.5-3.5
			L608.3,422.3z" style="fill:#181818;"/>
		<g>
			<path d="M577.9,409.2c-2-4.4-2-8.2-2-8.2c0-0.6-0.5-1.1-1.1-1.1c-0.6,0-1.1,0.5-1.1,1.1c0,0.2,0,4.3,2.2,9.2
				c0.2,0.4,0.6,0.6,1,0.6c0.1,0,0.3,0,0.5-0.1C577.9,410.4,578.1,409.7,577.9,409.2z" style="fill:#191919;"/>
			<path d="M611.9,422.6c-0.1-0.7-0.6-2.6-2-2.8c-1.4-0.1-2.3,1.5-2.5,2v0c0,0,0,0,0,0c0,0.1-3.2,7.8-9.1,8.7
				c-5.3,0.8-10.2-1.4-13.5-6.1c1.2-0.5,2.5-1.2,3.7-1.9c0.2-0.1,0.4-0.3,0.5-0.3c0.5-0.2,0.8-0.7,0.7-1.3c-0.1-0.6-0.7-1-1.3-0.9
				c-0.3,0-0.4,0.1-1.1,0.5c-1.2,0.7-5,3-6.9,2.5c-0.4-0.1-0.6-0.3-0.8-0.7c-0.6-1.1-0.1-1.6,1.7-3.2c1.5-1.3,3.4-2.9,3.4-5.7
				c0-0.6-0.5-1.1-1.1-1.2c-0.6,0-1.1,0.5-1.2,1.1c0,1.8-1.3,2.8-2.7,4c-1.6,1.4-3.6,3.1-2.2,5.9c0.4,0.9,1.2,1.6,2.2,1.8
				c0.4,0.1,0.8,0.2,1.3,0.2c0.5,0,1-0.1,1.6-0.2c3.2,4.9,8.1,7.7,13.5,7.7c0.8,0,1.6-0.1,2.4-0.2c0.6-0.1,1.3-0.3,1.9-0.5l2.7,8.8
				c0,0.1,0.1,0.2,0.1,0.2s0,0,0,0.1s0,0,0,0.1c0,0,0,0.1,0,0.1c0,0,0,0,0,0.1c0,0,0,0,0.1,0.1c0,0,0,0,0,0.1c0,0,0,0,0.1,0.1
				c0,0,0,0,0.1,0c0,0,0,0,0.1,0c0,0,0,0,0.1,0s0.1,0,0.1,0s0,0,0.1,0c0,0,0.1,0,0.1,0h0c0.1,0,0.1,0,0.2,0c0,0,0.1,0,0.1,0h0
				c0,0,0.1,0,0.1,0l0,0l0,0c0,0,0,0,0.1,0c0,0,0.1,0,0.1,0s0,0,0.1,0c0,0,0.1,0,0.1-0.1s0,0,0.1-0.1c0,0,0,0,0.1-0.1
				c0,0,0,0,0.1-0.1c0,0,0-0.1,0.1-0.1c0,0,0-0.1,0-0.1c0,0,0-0.1,0-0.1c0,0,0-0.1,0-0.1c0,0,0-0.1,0-0.1c0,0,0-0.1,0-0.1
				c0,0,0-0.1,0-0.1c0,0,0-0.1,0-0.1c0,0,0,0,0-0.1l-0.3-1.3c-0.3-1.7-0.4-4.7,1.5-6.6C609.5,429.8,612.7,426.4,611.9,422.6z" style="fill:#191919;"/>
		</g>
	</g>
	<path d="M618.4,392.7L618.4,392.7c-0.1-0.1-0.3-0.3-0.4-0.4c-1.7-1.3-3.7-0.7-3.8-0.6c-0.6,0.2-0.9,0.8-0.7,1.4
		c0.2,0.6,0.8,0.9,1.4,0.7c0,0,0.6-0.2,1.3,0l-2.6,4.2c-0.3,0.5-0.1,1.2,0.4,1.5c0.2,0.1,0.4,0.1,0.6,0.1c0.4,0,0.7-0.2,1-0.5
		l2.2-3.5c0.1,0.6,0.2,1.2,0.3,2.1c0,0.6,0.5,1.1,1.1,1.1l0,0c0.6,0,1.1-0.5,1.1-1.1C620.1,395.4,619.5,393.7,618.4,392.7z" style="fill:#191919;"/>
	<g>
		<path d="M597.1,415.1l-5,10.2c0,0,4.7,0,6.5-2.8C600.4,419.7,597.1,415.1,597.1,415.1z" style="fill:#FFFFFF;"/>
		<path d="M592.1,426.4c-0.4,0-0.7-0.2-0.9-0.5c-0.2-0.3-0.2-0.7,0-1l5-10.2c0.1-0.3,0.5-0.6,0.9-0.6
			c0.4,0,0.7,0.1,1,0.4c0.4,0.5,3.7,5.3,1.6,8.6C597.4,426.3,592.3,426.4,592.1,426.4z M597.2,417.4L594,424c1.4-0.3,3-0.9,3.8-2.1
			C598.5,420.7,597.9,418.8,597.2,417.4z" style="fill:#191919;"/>
	</g>
	<g>
		
			<ellipse transform="matrix(0.9842 -0.1773 0.1773 0.9842 -84.0946 122.8101)" cx="645.1" cy="531.9" rx="4.2" ry="5.1" style="fill:#191919;"/>
	</g>
	<g>
		
			<ellipse transform="matrix(0.9842 -0.1773 0.1773 0.9842 -87.4439 124.3031)" cx="651.8" cy="551.4" rx="4.2" ry="5.1" style="fill:#191919;"/>
	</g>
	<path d="M709.4,366.9c-3.9-6.6-8.8-10.7-14.7-12.1c-19.6-4.9-76.1-9.6-76.7-9.6l0,0c0,0-0.1,0-0.1,0c0,0-0.1,0-0.1,0
		c0,0-0.1,0-0.1,0c0,0,0,0-0.1,0c0,0-0.1,0-0.1,0c0,0,0,0-0.1,0c0,0-0.1,0-0.1,0.1c0,0,0,0-0.1,0c0,0-0.1,0.1-0.1,0.1c0,0,0,0,0,0.1
		c0,0,0,0.1-0.1,0.1c0,0,0,0.1,0,0.1c0,0,0,0.1,0,0.1c0,0,0,0.1,0,0.1l0,0l-1.2,4.3c-3.7-0.1-17.4-0.4-24.5,0.7
		c-7.2,1.1-9.6,4.4-10.3,5.7c-0.7,1.3-0.7,2.7-0.1,3.8c0.1,0.3,0.3,0.5,0.6,0.7c-1.9,0.9-4.1,2.2-5,4c-0.4,0.8-0.4,1.7-0.1,2.5
		c0.2,0.4,0.6,0.7,1,0.7c0.1,0,0.3,0,0.4-0.1c0.6-0.2,0.9-0.9,0.6-1.5c-0.1-0.2-0.1-0.4,0.1-0.8c0.7-1.5,3.9-3,5.9-3.8
		c1.5,0.3,3.3,0.4,5,0.4c2.1,0,4-0.2,5.2-0.5c1.9-0.4,2.8-1.2,2.8-2.4c0-3-5.8-4.2-8.3-4.6c-0.6-0.1-1.2,0.3-1.3,0.9
		c-0.1,0.6,0.3,1.2,0.9,1.3c3.5,0.5,5.9,1.6,6.3,2.2c-0.7,0.4-3.2,0.9-6.6,0.7c-3.7-0.1-5.4-0.8-5.6-1.1c-0.2-0.4-0.1-1,0.1-1.7
		c0.9-1.7,3.5-3.7,8.6-4.5c6.5-1,19.3-0.8,23.6-0.7l-7,26c0,0.1,0,0.2,0,0.3c-0.1,0.1-0.1,0.3-0.1,0.4c-0.1,0.6,0.3,1.2,0.9,1.3
		c0.5,0.1,40.2,6,58.3,11.3c-3.8,18.6-9.3,28.2-18.9,33.2c-8.1,4.2-14.6,3.3-16.9,2.2h0c0,0,0,0,0,0c0,0-0.1,0-0.1,0l0,0
		c0,0,0,0-0.1,0l0,0c0,0-0.1,0-0.1,0l0,0h0c-0.1,0-0.1,0-0.2,0l0,0l0,0c0,0-0.1,0-0.1,0c0,0,0,0,0,0s0,0-0.1,0c0,0,0,0-0.1,0
		c0,0,0,0,0,0l0,0c-0.1,0-0.1,0.1-0.2,0.1l-18.1,14.8l-7.4-2.4c0,0,0,0-0.1,0l0,0c0,0-0.1,0-0.1,0l0,0c0,0-0.1,0-0.1,0c0,0,0,0,0,0
		c0,0,0,0-0.1,0l0,0c0,0-0.1,0-0.1,0s0,0-0.1,0h0c-0.5,0.1-13.4,3.7-27,17.2c-4.7,4.7-9.9,12.1-15.3,19.9
		c-10,14.4-21.5,30.7-31.8,32.2c-12.7,1.9-65.5-26.8-66.1-27.1l0,0l0,0l-9-4.6c-0.5-0.3-1.1-0.1-1.4,0.3
		c-0.4,0.5-9.2,12.7-12.9,27.8c-0.1,0.5,0.1,1,0.6,1.3l8.4,4.3c-0.3,1-0.5,1.9-0.7,2.8c-0.1,0.4,0,0.9,0.4,1.2
		c0.1,0.1,11.5,9,26.5,18.3c20.2,12.5,36.9,19.9,49.7,22c3.8,0.6,7.7,0.9,11.7,0.9c9,0,18.4-1.5,27.7-4.5c1.3-0.4,2.5-0.9,3.8-1.3
		c0.6-0.1,1.6-0.6,2.9-1.1c8.8-3.6,16.9-8.4,23.9-14.1c1.4-1,2.6-2.1,3.6-2.9c0.3,8.6,1,17.2,1.9,25.6c-8.3-0.2-54.7-0.7-84.9,9.6
		c-33.8,11.6-47.1,28.3-42,52.5c2.3,10.5,10.1,18.8,22.5,23.9c9.6,3.9,20.2,5.3,27.4,5.3c0.3,0,0.7,0,1,0c0.2,3.4,0.8,6.8,1.8,10.2
		c3.5,11.7,13.7,19,30.2,21.4c4.4,0.7,8.9,0.9,13.3,0.9c11.8,0,22.5-1.9,27.5-2.9c10.2-2.1,20.7-5.4,30.9-8.5
		c12.2-3.8,24.9-7.7,36.6-9.5c21.3-3.2,39.9-8.1,40.1-8.1c0.5-0.1,0.8-0.6,0.8-1.1c0-0.9,0.1-21.1-10.2-33.9c5.3-5.3,9-12.2,11-21.1
		c4.6-19.4-2.6-35.4-2.9-36.1c-0.1-0.1-0.2-0.3-0.3-0.4c4-4.8,6.8-8.2,7.2-8.7c0.3-0.3,0.3-0.8,0.1-1.2
		c-0.1-0.4-16.5-37.2-21.3-55.1c-1.1-4.2-0.8-8.6,0.4-13.3c1.1-3.7,2.7-7.6,4.1-10.9c1.7-3.7,3.7-7.7,5.7-11.7
		c4.9-9.6,10.5-20.5,13.8-32.5c0.6-2.3,1.2-4.7,1.6-7.1c0.6-2.3,0.8-3.6,0.9-3.8c0-0.2,0-0.4-0.1-0.6
		C718.6,396.9,716.1,378.4,709.4,366.9z M610.3,378.5l8.4-31.1c2.1,0.2,7.7,0.7,14.9,1.4l-9.2,32
		C617.9,379.6,612.6,378.8,610.3,378.5z M631.1,432.9c5.7,17.2,10.8,34.7,10.2,36.8c-0.5,1-2.4,1.1-4,1.2c-1.9,0.1-4.6,0.1-4.6,2.5
		c0,2,2.3,3.2,4.8,4.6c1.3,0.7,3.9,2.1,3.8,2.9c0,0.5-1.1,2.1-2,3.6c-2.5,3.9-6.5,10.2-8.2,18.3c-0.9-5.8-1.5-11.4-1.9-16.7
		C627.4,463.1,629.8,441.9,631.1,432.9z M629.2,431c-0.6,3.6-1.5,10.3-2.1,18.8l-4.5,3.9l-8.8-10L629.2,431z M612.2,445.2l5.1,5.9
		l-3.1,5.9l-3.7,1.2l-2.8-6.7L612.2,445.2z M622.3,522.1l-10.4,15l-6.6-6.8l5.7-70l3.1-1L622.3,522.1z M605.1,442.3l5.2,1.6
		l-6.4,8.9C604.4,447.8,604.9,444.2,605.1,442.3z M442.8,505.1c3.1-12.2,9.8-22.5,11.7-25.3l7.1,3.7c-1.9,3.4-8.1,14.4-11.6,25.4
		L442.8,505.1z M593.8,516.2c-3.9,15.3-11.9,25.6-23.6,30.9c-2.1,0.8-4.2,1.6-6.3,2.3c-13,4.2-26.2,5.5-38.3,3.5
		c-12.4-1.9-29.3-9.4-48.9-21.7c-13-8.1-23.2-15.8-25.7-17.7c3-11.9,10.6-25.5,12.7-29.2c7.2,3.9,50.7,27,65,27c0.5,0,1,0,1.5-0.1
		c11.3-1.6,22.5-17.7,33.3-33.1c5.4-7.7,10.5-15,15-19.6c9.4-9.4,18.6-13.9,23.1-15.7c-1.3,2.2-3.3,5.6-5.2,8.9
		c-7,12.3-6.6,12.8-6.1,13.6c0.5,0.6,1.4,1,2.4,1.4c0.6,0.3,1.9,0.8,2.1,1.1c0,0,0,0,0,0c-0.1,0.3-1.3,0.6-1.9,0.7
		c-1.5,0.3-4.1,0.8-3.7,3.5c0.1,0.8,0.7,2.2,1.5,4.4c1.5,3.8,3.7,9.5,5.4,16.5C596.3,494.7,596.7,504.9,593.8,516.2z M592.8,475.7
		c-0.7-1.8-1.3-3.3-1.4-3.9c0-0.4-0.1-0.6,1.9-0.9c1.3-0.3,3.1-0.6,3.6-2.1c0.9-2.4-1.8-3.4-3.4-4c-0.4-0.1-0.9-0.3-1.2-0.5
		c0.7-2.1,5.2-10,10-18.2c-1,8.5-2.8,26.5-3.7,48.2C597,486.3,594.5,479.8,592.8,475.7z M603.5,457.3l2.8-3.8l2.6,6.2l-5.7,71
		c0,0.3,0.1,0.6,0.3,0.9l8,8.1c0.2,0.2,0.5,0.3,0.8,0.3c0,0,0.1,0,0.1,0c0.3,0,0.6-0.2,0.8-0.5l11.4-16.5c0.1-0.2,0.2-0.5,0.2-0.8
		l-8.4-64.2l2.8-5.2l2.7,3c0.2,0.3,0.5,0.4,0.9,0.4c0.3,0,0.5-0.1,0.7-0.3l3.7-3.1c-0.6,9.6-0.9,21.2,0.1,33.3
		c0.6,8.3,1.9,17.5,3.5,26.8l0,0c0,0,0,0.1,0,0.1c2.8,16,6.7,32.5,10.5,46.2l-38-1.6C598.6,520.7,601.3,479.5,603.5,457.3z
		 M524.7,646.6c-12.2,0.2-43.7-4.2-48.8-27.3c-2.5-11.5-0.5-21.1,6-29.2c6.6-8.2,17.9-15,34.5-20.7c32.7-11.2,84.9-9.5,85.4-9.5
		l29.7,1.3c-12.4,2.7-34.5,9.1-58.6,23.7c-13.7,8.3-24.5,16.9-32.4,25.8c-2.7-0.1-13.8-0.6-22.5,2.1c-6,1.9-10.6,6.2-11.4,10.7
		c-0.5,2.7,0.4,5.1,2.6,6.8c1.2,0.9,2.7,1.3,4.3,1.3c3.7,0,8.2-1.8,12-3.4c1.3-0.5,2.8-1.1,3.9-1.5
		C526.4,633.2,524.8,639.9,524.7,646.6z M705.4,573.9L705.4,573.9c0.9,6,1.2,13.6-0.7,21.7c-4,17.1-13.9,26.7-31.1,30.3
		c-6.1,1.3-14.1,1.9-23.4,2.7c-14.4,1.2-30.8,2.4-46.3,6.6c-25.1,6.8-31.8,11.8-34,17.3c0,0.1-0.1,0.2-0.1,0.3
		c-0.5,1.8-0.4,3.7,0.6,5.3c0.8,1.3,2.4,2.9,5.5,3c0.1,0,0.3,0,0.5,0c6.8,0,15.6-4,22.4-10.4c4.6-4.3,16.8-14.6,30.9-17.9
		c7.1-0.9,14.1-1.4,20.6-1.9c9.3-0.7,17.4-1.4,23.6-2.7c8.3-1.8,14.9-4.8,20.2-9.4c8.5,10.8,9.5,27.5,9.6,31.5c-3.8,1-20.3,5-39,7.9
		c-11.9,1.8-24.6,5.7-37,9.6c-10.1,3.1-20.6,6.4-30.7,8.5c-6.7,1.4-24.1,4.4-40.1,2c-15.6-2.4-25.1-9-28.3-19.9
		c-3.7-12.2-1.6-24.6,6.2-36.7c7.7-12,20.9-23.7,39.3-34.9c33.6-20.4,63-24.6,67.4-25.2c1.9,6.8,3.8,12.8,5.4,17.5
		c3.4,10,7.4,15.8,12.1,17.6c1.2,0.5,2.3,0.7,3.4,0.7c2.2,0,4.2-0.8,5.7-1.6c2.7-1.4,6.8-4.9,11.3-9.5c6.4-5.9,17.5-14.8,23.3-14.1
		C703.9,572.4,704.8,572.9,705.4,573.9z M713.3,417.7l-1,3.8c-2.6,7.8-9,22.5-24.2,42.2c-15.2,19.6-11.1,26.4-4.7,32.7
		c3.1,3,6.5,9.4,9.1,15.3c2,5.2,3.9,9.4,4.6,11c5.1,12.8,10.2,24.6,11.5,27.4c-2.2,2.7-12.8,15.5-23,26.7l-10.3,10.6
		c-3.3,3.1-6.2,5.5-8.2,6.5c-1.9,1-4.4,1.9-7.2,0.8c-4-1.6-7.6-7.1-10.8-16.3c-5-14.6-12.1-40.8-16.5-65.7
		c-1.1-12.1,5.2-21.8,8.5-27c1.4-2.2,2.3-3.5,2.4-4.6c0.2-2.2-2.4-3.7-5-5.1c-1.3-0.7-3.6-2-3.6-2.7l0,0c0.3-0.2,1.6-0.3,2.4-0.3
		c2.2-0.1,5-0.1,6-2.5c0.3-0.8,1.1-2.4-5.2-23c-2.2-7.2-4.5-14.3-5.6-17.7c3,0.7,8.9,1,16.6-3c1.8-0.4,10.9-2.8,13.6-8.5
		c4.2-9.4,9-13,12.2-15.3c1.6-1.2,2.9-2.1,3.5-3.4c2.2-4.4-0.3-5.8-2.8-7c0,0-0.1-0.1-0.2-0.1c-6.7-3.8-31.4-8.4-48.7-11.4l9.2-32.1
		c18.4,1.8,45.8,4.8,58.2,7.9c5.3,1.3,9.8,5,13.4,11.1C714.4,379.8,716.6,399.4,713.3,417.7z" style="fill:#191919;"/>
</g>
<g>
	<g>
		<rect x="347.3" y="637.8" width="26.7" height="26.7" style="fill:#FECE2F;"/>
		<rect x="320.7" y="637.8" width="26.7" height="26.7" style="fill:#FFFFFF;"/>
		<rect x="347.3" y="611.8" width="26.7" height="26.7" style="fill:#FFFFFF;"/>
		<rect x="347.3" y="585.8" width="26.7" height="26.7" style="fill:#FFFFFF;"/>
		<rect x="373.9" y="585.8" width="26.7" height="26.7" style="fill:#FFFFFF;"/>
		<rect x="453.9" y="637.8" width="26.7" height="26.7" style="fill:#FFFFFF;"/>
		<rect x="320.7" y="585.4" width="26.7" height="26.7" style="fill:#FFFFFF;"/>
		<rect x="453.9" y="585.4" width="26.7" height="26.7" style="fill:#FFFFFF;"/>
		<rect x="453.9" y="611.8" width="26.7" height="26.7" style="fill:#FFFFFF;"/>
		<rect x="427.1" y="611.8" width="26.7" height="26.7" style="fill:#FFFFFF;"/>
		<rect x="400.6" y="585.8" width="26.7" height="26.7" style="fill:#FFFFFF;"/>
		<rect x="427.1" y="585.8" width="26.7" height="26.7" style="fill:#FECE2F;"/>
		<rect x="347.3" y="558.8" width="26.7" height="26.7" style="fill:#FFFFFF;"/>
		<rect x="373.9" y="532.8" width="26.7" height="26.7" style="fill:#FFFFFF;"/>
		<rect x="400.6" y="558.8" width="26.7" height="26.7" style="fill:#FFFFFF;"/>
		<rect x="427.1" y="558.8" width="26.7" height="26.7" style="fill:#FFFFFF;"/>
		<rect x="400.6" y="532.8" width="26.7" height="26.7" style="fill:#FECE2F;"/>
	</g>
	<path d="M360.7,690.3H334c-0.6,0-1.1,0.5-1.1,1.1v26.7c0,0.6,0.5,1.1,1.1,1.1h26.7c0.6,0,1.1-0.5,1.1-1.1v-26.7
		C361.8,690.8,361.3,690.3,360.7,690.3z" style="fill:#191919;"/>
	<g>
		<rect x="460.2" y="691.5" width="26.7" height="26.7" style="fill:#FFFFFF;"/>
		<path d="M486.9,719.3h-26.7c-0.6,0-1.1-0.5-1.1-1.1v-26.7c0-0.6,0.5-1.1,1.1-1.1h26.7c0.6,0,1.1,0.5,1.1,1.1v26.7
			C488.1,718.8,487.6,719.3,486.9,719.3z M461.3,717.1h24.5v-24.5h-24.5V717.1z" style="fill:#191919;"/>
	</g>
	<g>
		<rect x="288.8" y="678.6" width="26.7" height="26.7" style="fill:#FECE2F;"/>
		<path d="M315.6,706.4h-26.7c-0.6,0-1.1-0.5-1.1-1.1v-26.7c0-0.6,0.5-1.1,1.1-1.1h26.7c0.6,0,1.1,0.5,1.1,1.1v26.7
			C316.7,706,316.2,706.4,315.6,706.4z M290,704.2h24.5v-24.5H290V704.2z" style="fill:#191919;"/>
	</g>
	<path d="M480.6,584.3H455v-25.5c0-0.6-0.5-1.1-1.1-1.1h-25.4v-24.9c0-0.6-0.5-1.1-1.1-1.1h-26.7h-26.7
		c-0.6,0-1.1,0.5-1.1,1.1v24.9h-25.4c-0.6,0-1.1,0.5-1.1,1.1v25.5h-25.5c-0.6,0-1.1,0.5-1.1,1.1v26.4v0.4v25.6v0.7v26
		c0,0.6,0.5,1.1,1.1,1.1h26.6h0.1h26.6c0.6,0,1.1-0.5,1.1-1.1v-26v-0.7v-24.1h25.4h25.4v24.1v0.7v26c0,0.6,0.5,1.1,1.1,1.1h26.7
		h26.7c0.6,0,1.1-0.5,1.1-1.1v-26v-0.7v-25.6v-0.4v-26.4C481.8,584.8,481.2,584.3,480.6,584.3z M399.5,611.4h-24.3v-24.5h24.3V611.4
		z M348.6,610.7v-23.7h24.2v23.7H348.6z M426,584.4h-24.3v-23.7H426V584.4z M452.8,610.7h-24.3v-23.7h24.3V610.7z M348.6,636.6v-23
		H373v23H348.6z M428.3,613.6h24.5v23h-24.5V613.6z M455,636.6v-23.4h24.5v23.4H455z M479.5,610.7H455v-24.1h24.5V610.7z
		 M452.8,584.4h-24.3v-24.5h24.3V584.4z M426.2,557.6h-24.5v-23.7h24.5V557.6z M399.5,533.9v23.7H375v-23.7H399.5z M348.5,559.9
		h24.3v24.5h-24.3V559.9z M346.2,586.5v24.1h-24.4v-24.1H346.2z M321.8,639.7h24.4v23.7h-24.4V639.7z M348.6,663.4v-23.7H373v23.7
		H348.6z M401.7,586.9H426v24.5h-24.3V586.9z M455,663.4v-23.7h24.5v23.7H455z" style="fill:#191919;"/>
</g>
</svg>
