<?xml version="1.0" encoding="utf-8"?>
<!-- Generator: Adobe Illustrator 21.0.0, SVG Export Plug-In . SVG Version: 6.00 Build 0)  -->
<svg version="1.1" baseProfile="tiny" id="Layer_1" xmlns="http://www.w3.org/2000/svg" xmlns:xlink="http://www.w3.org/1999/xlink"
	 x="0px" y="0px" viewBox="0 0 2000 2000" xml:space="preserve">
<g id="Layer_4">
	<path fill="#FECE2F" d="M607.9,1907.8c-558.3-91-714.2-669-370.4-1016.6c313.1-316.7,150.5-563.5,664.6-596
		c455-28.7,908.1,345,1001.2,989.6C1996.3,1927.6,1308.1,2021.9,607.9,1907.8z"/>
</g>
<g>
	<g>
		<g>
			<path fill="#FECE2F" d="M1236.4,448.3l-14,176.5l385.5,28.5l15.6-179.7c10.7,27.4,33.5,46.2,59.8,46.2
				c36.7,0,66.4-36.6,66.4-81.7s-29.7-81.7-66.4-81.7c-21.3,0-40.3,12.4-52.4,31.6l13-150.1L1485,222.5
				c26.8,14.6,43.3,41.8,39.8,70.7c-4.8,39.3-45.1,66.6-89.9,61.1s-77.2-41.8-72.4-81.1c3.4-27.3,23.9-48.9,51.1-57.6l-158.3-15.3
				l-14.9,191.5"/>
		</g>
	</g>
	<path fill="#1A1A1A" d="M1300.8,341.4c-22.4,0-43.2,13.3-56.1,34.8l13.6-175.6c0.1-1.6-1.1-3-2.7-3.2l-161.7-16.8
		c24.1-11,40.8-32.1,43.8-56.5c2.5-19.9-4-39.6-18.3-55.6c-14.2-15.9-34.3-26.1-56.7-28.9c-46.4-5.7-88.2,22.9-93.2,63.7
		c-3.2,25.8,9,51.1,31.5,67.5l-148.8-15.5c-0.8-0.1-1.6,0.2-2.2,0.7c-0.7,0.5-1,1.3-1.1,2.1l-27,432c-0.1,1.6,1.1,3.1,2.7,3.2
		l397.5,34.5c0.1,0,0.2,0,0.3,0c0.7,0,1.4-0.3,1.9-0.7c0.7-0.6,1-1.3,1.1-2.1l12.6-162.7c11.3,29.2,35.4,48.5,62.8,48.5
		c38.3,0,69.4-38,69.4-84.7C1370.2,379.4,1339.1,341.4,1300.8,341.4z"/>
	<g>
		<g>
			<g>
				<path fill="#1A1A1A" d="M1607.9,656.3c-0.1,0-0.1,0-0.2,0l-385.5-28.5c-0.8-0.1-1.5-0.4-2.1-1c-0.5-0.6-0.8-1.4-0.7-2.2
					l14-176.5c0.1-1.7,1.6-2.9,3.2-2.8c1.7,0.1,2.9,1.6,2.8,3.2L1225.6,622l379.5,28.1l15.3-176.8c0.1-1.4,1.2-2.5,2.6-2.7
					s2.7,0.6,3.2,1.9c10.6,26.9,33,44.3,57.1,44.3c35,0,63.4-35.3,63.4-78.7s-28.5-78.7-63.4-78.7c-19.6,0-37.8,11-49.9,30.2
					c-0.7,1.2-2.2,1.7-3.5,1.2c-1.3-0.4-2.1-1.7-2-3.1l12.7-147.1L1497,226.7c22,16.4,33.8,41.6,30.7,66.8
					c-4.6,37.4-40,64.5-81.5,64.5c-3.9,0-7.8-0.2-11.8-0.7c-22.4-2.8-42.5-13-56.7-28.9c-14.3-16-20.8-35.7-18.3-55.6
					c2.9-23.8,18.5-44.2,41.6-55.4l-142.9-13.8L1243.5,392c-0.1,1.7-1.6,2.9-3.2,2.8c-1.7-0.1-2.9-1.6-2.8-3.2l14.9-191.5
					c0.1-0.8,0.4-1.5,1.1-2.1c0.6-0.5,1.4-0.8,2.2-0.7l158.3,15.3c1.4,0.1,2.5,1.3,2.7,2.7s-0.7,2.7-2.1,3.2
					c-27.2,8.7-46,29.8-49.1,55.1c-2.2,18.1,3.8,36.2,16.8,50.8c13.2,14.8,32,24.3,52.9,26.9c43.1,5.3,81.9-21,86.5-58.5
					c3.3-26.6-11.7-53.2-38.2-67.7c-1.3-0.7-1.8-2.2-1.4-3.5c0.4-1.4,1.8-2.2,3.2-2.1l158.9,15.3c1.6,0.2,2.8,1.6,2.7,3.2
					l-12.1,139.3c12.9-15.4,30.1-24.1,48.5-24.1c38.3,0,69.4,38,69.4,84.7s-31.1,84.7-69.4,84.7c-23.3,0-45.1-14.5-57.8-37.8
					l-14.6,168.6C1610.7,655.1,1609.4,656.3,1607.9,656.3z"/>
			</g>
		</g>
	</g>
	<g>
		<path fill="#FFFFFF" d="M1222.7,621.9l206.1,15.2c27.6-22.4,43.6-49,43.6-77.5c0-80.6-128-146-286-146s-286,65.4-286,146
			c0,12.1,2.9,23.8,8.3,35L1222.7,621.9z"/>
	</g>
	<path fill="#1A1A1A" d="M1683.3,353.2c-18.4,0-35.6,8.7-48.5,24.1l12.1-139.3c0.1-1.6-1.1-3-2.7-3.2l-158.9-15.3
		c-1.4-0.1-2.8,0.7-3.2,2.1c-0.4,1.3,0.1,2.8,1.4,3.5c26.5,14.5,41.5,41.1,38.2,67.7c-4.6,37.5-43.4,63.8-86.5,58.5
		c-20.9-2.6-39.7-12.1-52.9-26.9c-13-14.6-19-32.7-16.8-50.8c3.1-25.3,21.9-46.4,49.1-55.1c1.4-0.5,2.3-1.8,2.1-3.2
		c-0.2-1.4-1.3-2.6-2.7-2.7l-158.3-15.3c-0.8-0.1-1.6,0.2-2.2,0.7c-0.7,0.6-1,1.3-1.1,2.1l-14.9,191.5c-0.1,1.6,1.1,3.1,2.8,3.2
		c1.6,0.1,3.1-1.1,3.2-2.8l14.6-188.4l142.9,13.8c-23.1,11.2-38.7,31.6-41.6,55.4c-2.5,19.9,4,39.6,18.3,55.6
		c14.2,15.9,34.3,26.1,56.7,28.9c4,0.5,7.9,0.7,11.8,0.7c41.5,0,76.9-27.1,81.5-64.5c3.1-25.2-8.7-50.4-30.7-66.8l143.6,13.9
		l-12.7,147.1c-0.1,1.4,0.7,2.7,2,3.1c1.3,0.5,2.8,0,3.5-1.2c12.1-19.2,30.3-30.2,49.9-30.2c34.9,0,63.4,35.3,63.4,78.7
		s-28.4,78.7-63.4,78.7c-24.1,0-46.5-17.4-57.1-44.3c-0.5-1.3-1.8-2.1-3.2-1.9s-2.5,1.3-2.6,2.7l-15.3,176.8L1428.9,637
		c-1.1,0.9-2.3,1.8-3.5,2.8l-203.1-15l-2.9-0.3l0,0.1c-0.1,0.8,0.2,1.6,0.7,2.2c0.6,0.6,1.3,0.9,2.1,1l385.5,28.5c0.1,0,0.1,0,0.2,0
		c1.5,0,2.8-1.2,3-2.9l14.6-168.6c12.7,23.3,34.5,37.8,57.8,37.8c38.3,0,69.4-38,69.4-84.7C1752.7,391.2,1721.6,353.2,1683.3,353.2z
		"/>
	<g>
		<g>
			<g>
				<path fill="#FFFFFF" d="M1433.6,491.1c-0.7,0-1.4-0.2-1.9-0.7c-1.3-1.1-1.5-2.9-0.4-4.2c53-63.9,118.7-114.2,195.2-149.5
					c1.5-0.7,3.3,0,4,1.5s0,3.3-1.5,4c-75.7,34.9-140.7,84.6-193.1,147.8C1435.3,490.7,1434.5,491.1,1433.6,491.1z"/>
			</g>
		</g>
	</g>
	<g>
		<g>
			<g>
				<path fill="#1A1A1A" d="M1222.4,627.8c-0.1,0-0.2,0-0.2,0c-1.7-0.1-2.9-1.6-2.8-3.2l13.9-179.2c0.1-1.5,1.3-2.7,2.8-2.8
					c1.5-0.1,2.8,0.9,3.1,2.4c7,35.2,32.3,59.8,61.5,59.8c35,0,63.4-35.3,63.4-78.7c0-1.7,1.3-3,3-3s3,1.3,3,3
					c0,46.7-31.1,84.7-69.4,84.7c-27.4,0-51.5-19.3-62.8-48.5L1225.4,625C1225.3,626.6,1224,627.8,1222.4,627.8z"/>
			</g>
		</g>
	</g>
	<g>
		<g>
			<g>
				<path fill="#1A1A1A" d="M1248.3,295c-0.1,0-0.1,0-0.2,0c-1.7-0.1-2.9-1.6-2.8-3.2l5.2-71.8c0.1-1.7,1.6-2.9,3.2-2.8
					c1.7,0.1,2.9,1.6,2.8,3.2l-5.2,71.8C1251.1,293.8,1249.8,295,1248.3,295z"/>
			</g>
		</g>
	</g>
	<path fill="#FFFFFF" d="M1251.6,287.7c46.2-16.5,88.9-40.7,127.5-72.3l-86.1-8.3c-12,6.8-24.3,12.9-36.9,18.4L1251.6,287.7z"/>
	<g>
		<g>
			<g>
				<circle fill="#FECE2F" cx="1025.8" cy="375" r="35.5"/>
			</g>
		</g>
	</g>
	<path fill="#FFFFFF" d="M1249.9,228.2c-13.8,5.7-27.9,10.6-42.4,14.7c-45.2,12.7-94.4,17.5-146,14.3c-96.4-6-174.1-37.6-209.3-54.5
		l-3.7,59.8c44.5,19,119.7,44.9,209.5,50.6c11.6,0.7,23.1,1.1,34.5,1.1c45.5,0,89.1-5.8,130.2-17.3c7.7-2.2,15.2-4.5,22.7-7.1
		L1249.9,228.2z"/>
	<g>
		<g>
			<g>
				<circle fill="#FFFFFF" cx="1538.5" cy="499.7" r="22"/>
			</g>
		</g>
	</g>
	<g>
		<g>
			<g>
				<path fill="#1A1A1A" d="M1348.5,636.3c-0.3,0-0.6,0-0.9-0.1c-1.6-0.5-2.5-2.2-2-3.8c0.1-0.4,12-37.6,42.9-87.1
					c12.8-20.5,27.2-40.4,42.7-59.1c1.1-1.3,2.9-1.5,4.2-0.4c1.3,1.1,1.5,2.9,0.4,4.2c-15.4,18.5-29.6,38.2-42.3,58.5
					c-30.5,48.9-42.2,85.4-42.3,85.8C1351,635.5,1349.8,636.3,1348.5,636.3z"/>
			</g>
		</g>
	</g>
</g>
<path fill="#1A1A1A" d="M1351,1740.8c-24.5-31.5-63.6-67.6-116.3-107.1c-108.1-81.1-261.1-167.9-431-244.6
	c-169.8-76.7-336.2-134-468.5-161.4c-64.5-13.3-117.4-18.9-157.3-16.4c-42.2,2.7-68.3,14.3-77.4,34.5c-9.1,20.2-0.6,47.4,25.4,80.8
	c24.5,31.5,63.6,67.6,116.3,107.1c108.1,81.1,261.2,167.9,431,244.6s336.2,134,468.5,161.4c54.5,11.3,100.7,17,137.8,17
	c6.8,0,13.3-0.2,19.5-0.6c42.2-2.7,68.3-14.3,77.4-34.5C1385.5,1801.4,1377,1774.2,1351,1740.8z"/>
<g>
	<g>
		<g>
			<path fill="#FFFFFF" d="M1613.9,752.3c0,0,12.6,179.4-23.4,309.4s-93,274-222,405s-279,186.2-405.5,205.1
				c0,0-4.4-195.3,43.6-282.3s100.4-160.1,100.4-160.1s47.5-55.6,92.5-73.6s133-31,208-96s79-138,79-138s35.9-136.7,37.5-185.9
				C1589,720.8,1613.9,752.3,1613.9,752.3z"/>
		</g>
	</g>
</g>
<g>
	<g>
		<g>
			<path fill="#FFFFFF" d="M764.4,1033.6c0,0-4.5-70-42.5-156c-17-38.6-52.5-80-47-162s61.5-174,127.5-238s0,0,0,0
				s-6.3-67.7-54.3-65.7c0,0-79.7,75.7-135.2,139.7s-159.5,180-206.5,344s0,322,10,344s169,29,250-43s93-135,93-135L764.4,1033.6z"
				/>
		</g>
	</g>
</g>
<g>
	<g>
		<g>
			<path fill="#1A1A1A" d="M1550.4,1274.6c-0.5,0-1.1-0.1-1.6-0.4c-1.4-0.9-1.9-2.7-1-4.1c49.4-81.2,73.8-173.3,85.6-236.2
				c12.8-68.2,13.9-117.8,13.9-118.3c0-1.7,1.4-3,3.1-2.9c1.7,0,3,1.4,2.9,3.1c0,0.5-1.2,50.5-14.1,119.2
				c-11.9,63.4-36.6,156.2-86.4,238.3C1552.4,1274.1,1551.4,1274.6,1550.4,1274.6z"/>
		</g>
	</g>
</g>
<g>
	<g>
		<g>
			<path fill="#1A1A1A" d="M358.4,998.6c-1.6,0-2.9-1.3-3-2.9c-3.1-80.1,17.8-148.6,36-192c19.7-47,40.4-75.6,40.6-75.9
				c1-1.3,2.9-1.6,4.2-0.6c1.3,1,1.6,2.9,0.6,4.2c-0.2,0.3-20.6,28.4-40,74.8C379,849,358.4,916.6,361.4,995.5
				c0.1,1.7-1.2,3-2.9,3.1C358.5,998.6,358.5,998.6,358.4,998.6z"/>
		</g>
	</g>
</g>
<g>
	<g>
		<g>
			<ellipse fill="#1A1A1A" cx="1379.4" cy="1198.6" rx="23" ry="29"/>
		</g>
	</g>
</g>
<path fill="#1A1A1A" d="M1109.7,1048.7c1.3-8.9,2.1-18.8,1.9-29.3c-0.7-27.7-9.3-63.2-43.6-87.4c0-0.1,0-0.1,0-0.2
	c0.5-6.5,2.2-39.3-10.1-43.1c-11.5-3.6-40.8,16.9-46.6,21.1c0,0-0.1,0.1-0.1,0.1c-31.8-4.4-61,3.4-82,12.2
	c-13.6,5.7-25,12.2-33.7,17.7c-0.2-0.3-0.4-0.5-0.7-0.7c-17.7-11.6-61.7-20.6-77.9-2.9c-4.6,5-6.2,10.2-4.9,15.4
	c2.6,10.3,16.5,17.5,23.6,20.6c-16.6,9.9-32.9,22.3-48.7,37.3c-12.6,11.9-24.8,24.1-36.6,35.8c-68.6,68.2-133.3,132.5-290.7,179.5
	c-16.4,4.9-31.7,10.4-45.5,16.2c-63.3,26.8-91.2,59.7-110.2,88.4c-7.6,11.6-14.3,23.4-20.7,34.9c-12,21.3-23.3,41.5-40.7,60.5
	c-8.2,9-16.9,16.8-26.8,24.1c-28.5,21-51.8,54.7-65.5,95.1c-14.5,42.6-17.5,88.8-8.6,133.4c10.3,51.7,36.6,99.3,76.1,137.6
	c46,44.6,109.2,77.1,188,96.6c36.1,8.9,78.7,13.4,123.1,13.4c45.9,0,93.9-4.7,138.7-14.3c51.1-10.9,97.1-27.4,136.9-49
	c44.7-24.4,80.7-54.9,107-90.8c4.3-5.9,8.4-12,12.2-18.2c14.7-24.1,27.6-49.4,39.3-77.2c9.2-21.7,16.3-41.8,23.2-61.2
	c15.9-44.7,28.5-80,55.5-107c50.8-50.9,103.4-113.7,83.3-215.7c-4.6-23.1-8.8-42.5-12.5-59.6c-10.4-47.4-16.7-76.6-14.7-115.5
	c2.7,1.5,6.5,3.3,10.8,5c6.5,2.5,12,3.7,16.7,3.7c3.7,0,6.9-0.8,9.4-2.3c5-3,8.2-9,8.8-16.3C1144,1098.4,1142,1076.3,1109.7,1048.7z
	 M1056.2,894.5c4.9,1.5,6.8,18.1,6.1,33.7c-5.1-3.1-10.6-6.1-16.7-8.7c-8.7-3.8-17.4-6.4-26-8.2
	C1032.9,902.4,1050.5,892.7,1056.2,894.5z M842,968.4c-6-2.1-21.9-9.3-24.1-18.1c-0.8-3.2,0.4-6.5,3.5-9.9
	c12.5-13.7,50.8-7.8,68.8,3c-7.6,5.2-12,9-12.4,9.3c-0.1,0.1-0.3,0.3-0.4,0.4c-11.9,3.9-23.6,9-35.2,15.4
	C842.1,968.5,842.1,968.4,842,968.4z M1030.4,970.1c-38.6-20.9-77.8-29.2-116.6-24.9c-7,0.8-14.1,2-21,3.6
	c8.8-6.1,22.3-14.4,38.8-21.3c27.4-11.3,68.9-21,111.6-2.5c22.2,9.6,38.7,23.8,49.1,42.2c8.3,14.8,12.8,32.4,13.3,52.2
	c0.5,18.8-2.7,36.1-5.8,48C1096.1,1026.1,1072.4,992.8,1030.4,970.1z M1137.4,1106.1c-0.4,5.4-2.6,9.7-5.9,11.7
	c-8,4.9-25.6-3.3-33.4-7.8c0.3-4.5,0.8-9.1,1.3-13.9c0.4-3.4,0.7-6.8,0.8-10.1c0.1-0.2,0.3-0.4,0.4-0.7c0.2-0.7,4.8-12.4,7.9-29.7
	C1127.8,1073,1138.5,1091.6,1137.4,1106.1z"/>
<g>
	<g>
		<g>
			<path fill="#FECE2F" d="M248.7,1426.8l-4.5-4c16.4-18.5,27.4-38,39-58.6c6.4-11.5,13.1-23.3,20.7-34.9
				c16.8-25.5,43.5-58.1,101.1-84.3l2.5,5.5c-55.8,25.5-81.1,55.8-98.5,82.2c-7.5,11.4-14.1,23.1-20.5,34.5
				C277.1,1387.2,265.5,1407.9,248.7,1426.8z"/>
		</g>
	</g>
</g>
<g>
	<g>
		<g>
			
				<ellipse transform="matrix(0.763 -0.6464 0.6464 0.763 -243.4084 546.7458)" fill="#1A1A1A" cx="623.9" cy="605.3" rx="25.5" ry="22.5"/>
		</g>
	</g>
</g>
<g>
	<g>
		<g>
			<path fill="#FECE2F" d="M802.4,477.6c0,0,43.5-32.5,61-57s40-73,43-79.5s10-26,3-29.5s-36.5,31-36.5,31s-23.5,30-31,19
				s-5.5-32.5-5.5-32.5l3.3-18.4l2.5-38.8c0,0-22.4,9.3-27.8,19.8s-25.5,53-25.5,53l-12.5,30l-30,37c0,0,27-2,38.5,17
				S802.4,477.6,802.4,477.6z"/>
		</g>
	</g>
</g>
<g>
	<g>
		<g>
			<path fill="#FECE2F" d="M915.8,1764.6l-4.9-3.4c2.6-3.8,5.1-7.7,7.5-11.5c13.6-22.3,25.6-45.4,36.5-70.8l5.5,2.4
				c-11.1,25.6-23.1,49-36.9,71.5C921,1756.8,918.5,1760.7,915.8,1764.6z"/>
		</g>
	</g>
</g>
<g>
	<g>
		<g>
			<path fill="#FECE2F" d="M268.7,1761.4l-0.5-6c54.7-4.8,94.4-24.2,121.3-59.2c31-40.5,45.4-101.5,44-186.7
				c-3.9-73.4,6.8-126.4,33.5-166.8c22.3-33.7,55.3-58.8,110.3-83.8c17.4-7.9,35.9-14.4,55.4-21.2c32.9-11.5,67-23.4,97.4-43.3
				c34.3-22.5,59.1-52.3,75.7-91.3c26.7-62.6,64.1-94,90.9-109.3c29.1-16.7,51.7-18.4,52.7-18.5l0.4,6l-0.2-3l0.2,3
				c-0.2,0-22.4,1.8-50.4,17.9c-25.9,14.9-62.1,45.4-88,106.3c-17.1,40.1-42.5,70.8-77.9,93.9c-31.1,20.3-65.5,32.3-98.8,43.9
				c-19.4,6.8-37.7,13.1-54.9,21c-53.9,24.5-86.2,48.9-107.8,81.6c-26,39.3-36.3,91.2-32.5,163.2v0.1
				c1.4,86.6-13.4,148.9-45.2,190.5C366.2,1736.3,325.2,1756.4,268.7,1761.4z"/>
		</g>
	</g>
</g>
<g>
	<g>
		<g>
			<path fill="#FECE2F" d="M530.5,1830.2l-2.2-5.6c192.7-74.3,183.8-172.9,173.4-286.9c-0.8-8.8-1.6-17.8-2.3-26.8v-0.2
				c-0.9-40.8,13.8-87.9,41.4-132.6c24-38.8,55.4-72.1,84-89.1c10.7-6.4,21.9-12,32.7-17.4c44-22.1,85.5-42.9,91.8-110.3
				c4.2-45.2,25.5-79.8,42.7-100.9c18.6-22.8,35.9-34.8,36.6-35.3l3.4,4.9c-0.2,0.1-17.5,12.1-35.5,34.3
				c-16.6,20.4-37.2,53.9-41.2,97.5c-3,31.8-13.9,56.6-33.3,75.8c-17.3,17.1-38.9,27.9-61.8,39.4c-10.7,5.4-21.8,10.9-32.4,17.2
				c-27.8,16.5-58.4,49-82,87.1c-27,43.7-41.4,89.6-40.6,129.2c0.7,9,1.5,18,2.3,26.7c5.2,57.3,10.1,111.4-10.9,161
				C673.2,1753.6,620.4,1795.6,530.5,1830.2z"/>
		</g>
	</g>
</g>
<g>
	<g>
		<g>
			<path fill="#FECE2F" d="M761.3,1236.5l-1.7-5.8c0.2-0.1,17.9-5.3,37.7-20.2c18.2-13.7,42.1-38.7,52.2-79.6
				c17.1-69.2,59.6-94.8,61.4-95.9l3,5.2l-1.5-2.6l1.5,2.6c-0.4,0.2-42.2,25.5-58.6,92.1c-10.6,42.8-35.5,68.8-54.6,83.1
				C780,1231,762,1236.3,761.3,1236.5z"/>
		</g>
	</g>
</g>
<g>
	<path fill="#1A1A1A" d="M844.1,314.1c0,0,0,0-0.1,0.1l0,0C844,314.2,844,314.2,844.1,314.1z"/>
	<path fill="#1A1A1A" d="M914.8,313.8c-0.9-2.9-2.7-4.3-4-4.9c-6.8-3.1-16,6.6-31.7,24c-11.4,12.7-27,30-33.6,28.1
		c-2.4-0.7-3.5-4.7-4.1-7.9c-5.4-30.7,1.6-38,2.6-38.9l-3-5.2c-0.6,0.3-3.8,2.4-5.8,9.2c-2.5,8.4-2.4,20.5,0.3,35.9
		c1.2,7.1,4,11.4,8.3,12.6c10.2,3,24.5-12.9,39.7-29.8c6-6.7,11.6-13,16.4-17.3c6.5-5.9,8.3-5.3,8.3-5.3c0.1,0.1,0.4,0.3,0.7,1.2
		c3.6,12.2-23.5,66.2-43,96.5c-14.4,22.4-49.1,50.5-61.1,60c-3.2-24.1-11.6-41.7-25-52.6c-10.1-8.1-20.6-10.3-27.2-10.8l26-32.1
		c0.1-0.2,0.3-0.4,0.4-0.7l30-70.2c4.9-11.5,13.7-21,24.8-26.7l10.9-5.6c1.5-0.7,2.1-2.5,1.3-4c-0.7-1.5-2.5-2.1-4-1.3l-10.9,5.6
		c-12.3,6.3-22.1,16.9-27.5,29.6L773.8,373l-29.6,36.6c-4.6,4.2-75.5,69.6-151.3,159.6c-45.8,54.4-84.4,107-114.8,156.4
		c-38,61.8-63.1,118.8-74.6,169.3c-25.9,114.1-21.8,202-13.8,255.6c8.7,58.3,23.4,89.1,24,90.4c0.5,1.1,1.6,1.7,2.7,1.7
		c0.5,0,0.9-0.1,1.3-0.1c1.5-0.7,2.1-2.5,1.4-4c-0.1-0.3-14.3-30.3-23-85.8c26-7.9,47.4-44.7,50.1-90c3.1-51.5-18.8-94.9-49.3-98.3
		c3-21.5,7.1-44.1,12.5-68c11.3-49.9,36.1-106.2,73.8-167.5c30.1-49.2,68.6-101.5,114.2-155.7c31.1-36.8,61.3-69.6,86.4-95.6
		c1.2-0.1,12.5-0.8,25.9,5c1.1,0.5,2.1,1,3.2,1.5c-0.2-0.1-0.3-0.1-0.5-0.2c0,0,35.6,23.6,9.3,87.4c-14.8,23.9-26.5,48-34.8,71.8
		c-12.7,36.2-17.5,71.7-14.5,105.8c0,0.4,0.1,0.7,0.1,1.1c-18,8.8-113.9,56.8-124.9,81.2c-9.8,21.8,7.3,47,38.8,38
		s61.3-33,76.5-19.5c9.3,8.3,18.5,19.4,48.8,12.1c20.1,41.5,41.4,90.1,49.7,172.1c0.2,1.7,1.7,2.9,3.3,2.7c1.7-0.2,2.9-1.7,2.7-3.3
		c-9.1-90-33.6-140.3-55.3-184.6c-16.3-33.2-30.3-61.9-33.7-100.4c-3-33.2,1.8-67.9,14.1-103.2c9.9-28.3,24.7-57.1,43.9-85.5
		c6.1-9.1,12.3-17.5,18.4-25.3c0.8-0.4,1.4-1.1,1.6-2c23.5-29.9,44.2-49,47.6-52.1c0.2-0.1,0.3-0.2,0.5-0.3
		c2-1.5,48.6-36.7,66.7-64.8c7.8-12.2,20-33.5,29.6-53.8C912.2,337.2,916.9,321.1,914.8,313.8z M713.1,477.6c-0.3-0.2-0.7-0.3-1-0.5
		c-9-3.9-17.1-5.1-22.5-5.5c31.3-32.2,53.7-53,58.1-57c2.3-0.1,9,0,16.9,3L713.1,477.6z M718.6,480.4l51.5-60.1c2,1.1,4,2.4,6,4
		c5.7,4.6,10.5,10.7,14.2,18.2L740,499.1C733.1,490.2,725.6,484.3,718.6,480.4z M754.4,525.2c-3.1-8.3-6.8-15.3-10.8-21.2l49.3-55.5
		c3.1,8,5.2,17.4,6.4,28C794.5,480.8,775.9,498.4,754.4,525.2z"/>
</g>
<g>
	<g>
		<g>
			<path fill="#FECE2F" d="M1228.1,1394.7c-1.6,0-3.7-0.5-5.6-2.6c-3.2-3.3-7.4-11.6-7.6-44.6c-0.1-19,1.1-44.1,3.6-74.4
				c4.3-51.6,11-101.3,11-101.8l5.9,0.8c-0.1,0.5-6.7,50.1-11,101.5c-2.5,30.1-3.7,55-3.6,73.8c0.2,30,3.8,38.3,6,40.6
				c0.7,0.7,1.2,0.7,1.4,0.7c9.4-0.7,14.9-27.6,20.2-53.6c7.6-37.3,16.3-79.7,40.8-90.2l2.4,5.5c-21.7,9.3-30.3,51.7-37.3,85.9
				c-6.5,32-11.7,57.3-25.6,58.4C1228.5,1394.6,1228.3,1394.7,1228.1,1394.7z"/>
		</g>
	</g>
</g>
<g>
	<g>
		<g>
			<path fill="#FECE2F" d="M517.4,1080l-6-0.6c6.3-58.2,56.6-71.6,93.3-81.4c24.4-6.5,39.3-11.1,38.7-22.1c-0.2-4-2-7.4-5.6-10.4
				c-22.6-18.7-100.3-8.9-101-8.8l-0.8-6c3.3-0.4,81.1-10.2,105.6,10.2c4.8,4,7.4,8.9,7.7,14.6c0.9,16.5-18.5,21.7-43.2,28.2
				C569.3,1013.6,523.3,1025.9,517.4,1080z"/>
		</g>
	</g>
</g>
<g>
	<g>
		<g>
			<path fill="#1A1A1A" d="M490.2,367.6c-4.7,0-8.7-1.4-11.7-4.2c-2.2-2-3.8-4.7-5.2-8.5c-5.3-14.9-1.5-32.5,9.5-43.8
				c4.1-4.2,8.2-6.1,12.4-5.7c3.2,0.4,6.2,2.7,7.5,5.9c1.1,2.7,0.7,5.5-1.1,7.5c-1.2,1.4-3.3,1.6-4.7,0.4c-1.4-1.2-1.6-3.3-0.4-4.7
				c0.2-0.2,0-0.6-0.1-0.7c-0.3-0.9-1.3-1.7-2-1.7c-2.5-0.3-5.1,1.9-6.9,3.7c-9.3,9.6-12.5,24.4-8,37c1,2.7,2.1,4.6,3.4,5.9
				c4.9,4.5,13.6,1.6,17.1,0.2c20.4-8.5,34.6-26.8,48.6-46.3c2.6-3.7,5.2-7.4,7.6-11.1c-2.3-1.2-4.4-2.7-6-4.7
				c-3.1-3.8-4.8-8.9-5.2-15.6c-0.5-9,2.9-18.5,8.5-24.1c3.8-3.8,8.4-5.6,13.4-5.3c3.3,0.2,6.2,1.5,7.9,3.6c2.3,2.7,2.5,6.3,2.4,9
				c-0.5,11.7-4.6,22.4-10.5,32.8c1.3,0,2.6-0.1,4-0.4c6.2-1.3,11.8-5.1,16.5-8.7c16.5-12.6,30.5-28.8,40.6-47
				c-1.9-1.3-3.6-3-4.8-4.9c-2-3.3-2.4-7-1.1-10.3c1.7-4.2,6.8-7.5,11.6-5.7c2.2,0.8,3.9,2.5,4.8,4.7c1.5,3.8,0.5,8.6-1,12.2
				c4.7-0.2,9.4-2.8,14.2-5.7c21.4-12.8,37.8-24.9,48.5-41.8c1-1.6,3-2,4.6-1s2,3,1,4.6c-12.1,19.1-31.5,32.4-50.7,43.9
				c-6.2,3.7-12.8,7.3-20.1,6.5c-0.3,0-0.6-0.1-0.8-0.1c-10.6,19.3-25.3,36.5-42.8,49.8c-5.3,4-11.7,8.4-19.2,9.9
				c-3.1,0.6-6.2,0.7-9.2,0.3c-2.8,4.3-5.7,8.6-8.8,12.9c-14.6,20.4-29.5,39.5-51.5,48.6C498.2,366.7,494,367.6,490.2,367.6z
				 M566,258.3c-2.8,0-5.4,1.1-7.7,3.4c-4.3,4.2-6.9,11.9-6.5,19c0.3,5.2,1.5,9.1,3.7,11.7c1.2,1.4,2.7,2.5,4.4,3.3
				c6-10.1,10.3-20.5,10.8-31.6c0.1-1.5,0-3.5-0.8-4.5c-0.6-0.7-1.7-1.1-3.2-1.2C566.4,258.3,566.2,258.3,566,258.3z M630.8,226.1
				c-1,0-2.2,0.9-2.7,2c-0.7,1.7-0.1,3.3,0.6,4.4c0.6,0.9,1.3,1.8,2.2,2.4c1.4-2.9,1.9-6.2,1.3-7.8c-0.2-0.5-0.5-0.8-0.9-0.9
				C631.1,226.1,630.9,226.1,630.8,226.1z"/>
		</g>
	</g>
	<g>
		<g>
			<path fill="#1A1A1A" d="M1871.1,821.3c-0.5,0-1-0.1-1.5-0.4c-12.1-6.2-18.6-20.1-19.2-41.4c-10.8,2.1-22.5,3.1-31.4-3.9
				c-3.7-2.9-6.7-7.1-9.1-12.9c-6.6-15.8-6.2-32.8-5-51.7c0.3-4.9,0.7-10.3,1.6-15.8c-14.6,1.5-31.4,1.1-40-11.4
				c-5.6-8.1-5.3-17.9-4.6-28.2c0.4-6,1.6-21.9,13.3-26.8c1.7-0.7,3.7,0.1,4.4,1.8s-0.1,3.7-1.8,4.4c-7,3-8.6,12.9-9.2,21.2
				c-0.7,9-0.9,17.6,3.4,23.9c7.1,10.2,22.8,9.9,36,8.3c1.2-4.2,2.8-8.3,5.1-12.1c2.6-4.2,6.5-8,10.9-10.7c6.6-4,13.4-1.1,16.6,3.9
				c3.3,4.9,3.3,12.3-2.9,16.8c-1.1,0.8-2.3,1.5-3.5,2.2c-6.6,3.6-14,4.9-20.9,5.8c-1,5.3-1.5,11-1.9,17.1
				c-1.1,18.1-1.6,34.3,4.5,48.7c2,4.7,4.3,8.1,7.1,10.3c7,5.5,17.6,4.2,27.2,2.3c0.1-4.9,0.7-9.9,3.5-14.2c2.1-3.2,5.6-5.4,9.3-6.1
				c3-0.5,5.9,0.1,8.2,1.8c0.3,0.2,0.5,0.5,0.7,0.8c4,5.8,1.3,13.7-3.5,17.8c-3.4,2.9-7.7,4.3-11.6,5.2c0.4,19.4,5.6,31.8,15.6,36.9
				c1.6,0.8,2.3,2.8,1.5,4.5C1873.4,820.6,1872.3,821.3,1871.1,821.3z M1865.1,759c-0.3,0-0.6,0-0.9,0.1c-1.9,0.3-3.8,1.6-4.8,3.2
				c-1.6,2.5-2.2,5.6-2.4,9c2.7-0.7,5.2-1.8,7.2-3.4c2.4-2,3.9-5.8,2.6-8.4C1866.3,759.1,1865.7,759,1865.1,759z M1830.3,670.5
				c-0.9,0-1.9,0.3-3,0.9c-3.5,2.1-6.5,5.1-8.6,8.5c-1.5,2.4-2.6,4.9-3.5,7.6c5.6-0.9,11-2.1,15.8-4.7c0.9-0.5,1.8-1.1,2.7-1.7
				c3.2-2.3,2.7-5.6,1.3-7.8C1834,671.8,1832.4,670.5,1830.3,670.5z"/>
		</g>
	</g>
	<g>
		<g>
			<path fill="#1A1A1A" d="M1801.8,1143.8c-0.3,0-0.6,0-0.8,0c-4.6-0.2-9.1-2.7-12.2-6.7c-3.2-4.2-4.6-9.5-3.7-14.3
				c1.8-9.4,11.7-16.5,21.6-15.3c1.8,0.2,3.1,1.9,2.9,3.7c-0.2,1.8-1.9,3.2-3.7,2.9c-6.4-0.7-13.1,3.9-14.3,10
				c-0.6,2.9,0.3,6.3,2.4,9c1.9,2.5,4.6,4,7.3,4.1c4.4,0.2,9.1-2.6,12-7.3c3-4.7,4-10.5,4.7-16c3.5-27.2-0.7-55.2-11.8-80.2
				c-7,1.4-14.4-0.3-19.8-1.9c-15-4.4-19.3-13.1-18.3-19.7c0.6-3.8,2.9-7.1,6.6-9.2c4.5-2.6,10.3-3.1,15.1-1.2
				c7.9,3.1,12.7,10.3,16.4,16.9c1.2,2.2,2.4,4.5,3.6,6.8c0.1-0.1,0.2-0.1,0.3-0.2c5.4-3.3,8-10,10.1-16.8
				c7.5-24.2,10.4-49.3,8.8-74.6c-0.1-1.8,1.3-3.4,3.1-3.5c1.8-0.1,3.4,1.3,3.5,3.1c1.7,26.1-1.4,52-9.1,76.9
				c-2.3,7.6-5.7,16-13,20.5c-0.3,0.2-0.7,0.4-1.1,0.6c11.4,26,15.7,55.1,12.1,83.3c-0.8,6.3-2.1,12.9-5.7,18.7
				C1815,1139.8,1808.3,1143.8,1801.8,1143.8z M1783.7,1007c-2,0-4,0.5-5.6,1.4c-1.3,0.8-3,2.2-3.3,4.5c-0.9,6.3,8.1,10.7,13.6,12.4
				c6,1.8,11,2.4,15,2c-0.9-1.9-1.9-3.8-3-5.6c-3.1-5.6-7.1-11.6-13-13.9C1786.3,1007.2,1785,1007,1783.7,1007z"/>
		</g>
	</g>
	<g>
		<g>
			<polygon fill="#1A1A1A" points="260.7,321.2 276.7,361.2 335.7,331.2 319.7,304.2 			"/>
		</g>
	</g>
	<g>
		<g>
			<polygon fill="#FFFFFF" points="1279.4,924.6 1303.4,948.6 1339.4,914.6 1318.4,890.6 			"/>
		</g>
		<g>
			<path fill="#1A1A1A" d="M1303.4,951.6c-0.8,0-1.5-0.3-2.1-0.9l-24-24c-0.6-0.6-0.9-1.4-0.9-2.2s0.4-1.6,1-2.2l39-34
				c1.2-1.1,3.1-1,4.2,0.3l21,24c1.1,1.2,1,3-0.2,4.2l-36,34C1304.9,951.4,1304.2,951.6,1303.4,951.6z M1283.8,924.8l19.7,19.7
				l31.8-30l-17.1-19.6L1283.8,924.8z"/>
		</g>
	</g>
	<g>
		<g>
			<polygon fill="#FFFFFF" points="329.1,591.4 348,595.4 356.1,567.8 331.1,559 			"/>
		</g>
		<g>
			<path fill="#1A1A1A" d="M348,598.4c-0.2,0-0.4,0-0.6-0.1l-18.9-4c-1.5-0.3-2.5-1.6-2.4-3.1l2-32.4c0.1-0.9,0.6-1.8,1.3-2.3
				c0.8-0.5,1.8-0.6,2.7-0.3l25,8.8c1.5,0.5,2.3,2.1,1.9,3.7l-8.1,27.7C350.5,597.6,349.3,598.4,348,598.4z M332.3,589l13.6,2.9
				l6.5-22.3l-18.5-6.5L332.3,589z"/>
		</g>
	</g>
	<g>
		<g>
			<polygon fill="#1A1A1A" points="540.4,488.6 560.4,505.6 544.4,542.6 525.4,531.6 			"/>
		</g>
	</g>
	<polygon fill="#1A1A1A" points="1439.4,864.6 1401.4,782.6 1383.2,792.2 1357.4,733.6 1334.4,747.6 1375.4,829.6 1393.6,818.2 
		1423.4,873.6 	"/>
	<g>
		<g>
			<polygon fill="#1A1A1A" points="1749.9,226.9 1766,228.7 1745.2,286.3 1716.4,277.6 			"/>
		</g>
	</g>
	<g>
		<g>
			<polygon fill="#1A1A1A" points="1508,109.5 1534.9,120.7 1532.5,151.1 1491.7,146.3 			"/>
		</g>
	</g>
	<g>
		<g>
			<polygon fill="#1A1A1A" points="920.7,703.2 945.7,688.2 982.7,740.2 956.7,746.2 			"/>
		</g>
	</g>
	<polygon fill="#1A1A1A" points="1881.4,576.9 1862.6,542.5 1856.1,547.9 1832.4,518.5 1813.4,542.5 1847.4,578.5 1853.7,571.9 
		1865.3,589.5 	"/>
</g>
<g>
	<g>
		<g>
			<path fill="#FECE2F" d="M1613.9,752.3c0,0,14.1-81.1,18.6-111.1s10-79.5,0.5-75s-39.5,82-39.5,82l-77-0.5l9.5,87
				c0,0,37.9-8.6,58.5,0C1600.9,741.1,1613.9,752.3,1613.9,752.3z"/>
		</g>
	</g>
</g>
<g>
	<path fill="#1A1A1A" d="M1638.8,563.2c-1.2-1.7-3.1-2.5-5-2.2c-4.3,0.7-10.9,6.6-27.2,45.7c-7.2,17.2-13.5,34.4-15.7,40.4
		l-74.4-2.6c-0.9,0-1.7,0.4-2.3,1c-0.6,0.7-0.9,1.5-0.8,2.4l0,0c0,0,0,0.1,0,0.1l7.4,87.4c0,0.1,0,0.2,0,0.3
		c0,0.8-3.5,76.4-43.4,213.8c-15.8,54.6-53,100.1-110.5,135.5c-48.5,29.8-101.7,46.7-137,57.9c-6.3,2-12.3,3.9-17.5,5.6
		c-63.1,21-107.5,78.4-107.9,79c-1,1.3-0.7,3.2,0.6,4.2c0.5,0.4,1.2,0.6,1.8,0.6c0.9,0,1.8-0.4,2.3-1.2c0.5-0.6,43.7-56.5,105.1-77
		c5.1-1.7,11.1-3.6,17.4-5.6c33.2-10.6,82.3-26.1,128.7-52.8c0.2,7.7,1.8,27.1,13,27.9c14,1,33-6,36,8s7.1,86.2,40,77
		c25-7,5-66-2-119c-4.6-34.5-2.8-55.8-1-66.5c16.9-21.9,29.2-45.9,36.8-72c9.1-31.4,16.3-59.5,22-84.3c5.7-15.1,22.9-48.2,64.7-44.7
		c0,0,0,0-0.1-0.1c13.5,3.8,28.9,11.3,44.5,25.2c-0.3,18.5-1.3,39.2-3.1,61.7c-4.4,54.5-13.3,108.5-26.4,160.4
		c-16.4,64.9-39.3,126.9-68.3,184.1c-17.5,34.6-36.5,67.2-57,97.8c-33.4-12.1-90.3,15.6-135.8,68.5c-37.8,44.1-57.2,93.3-52.8,126.7
		c-43.2,30.2-90.5,55.6-140.9,75.7c-51.8,20.7-108.2,36.4-167.8,46.6c-1.6,0.3-2.7,1.9-2.4,3.5c0.3,1.5,1.6,2.5,3,2.5
		c0.2,0,0.3,0,0.4-0.2c60-10.3,116.9-26.2,169-47c54.2-21.7,105-49.5,151-82.7c47.7-34.4,91.6-75.6,130.7-122.5
		c40.3-48.4,76.7-104.4,108-166.3c29.2-57.6,52.3-120,68.8-185.4c13.2-52.3,22.1-106.6,26.6-161.4c1.8-22.4,2.7-43.1,3.1-61.7
		c0.3-0.8,0.4-1.6,0-2.4c0.8-52-2.9-86.2-3.6-92.3c0.5-3.2,8.1-45.7,14.6-89.1C1643.6,582.2,1641.8,567.2,1638.8,563.2z
		 M1526.7,738.1c3.9-1.1,13.6-3.4,25.7-3.9l-11.3,78.3c-11.4,0.4-20.2,2.7-25.4,4.4C1524,772.6,1526.2,745.8,1526.7,738.1z
		 M1547.1,812.5l11.3-78.3c9.3,0.2,19.5,1.6,29.6,5.4l-4.5,80.9C1569.8,814.8,1557.2,812.8,1547.1,812.5z M1589.4,823.2l4.5-81.1
		c5.9,2.8,11.7,6.6,17,11.6c0.7,6.1,4.1,37.7,3.6,85.8C1606,832.4,1597.5,827.1,1589.4,823.2z M1611.9,746.7
		c-14.5-12.1-33.4-18.4-55.2-18.5c-0.1,0-0.3-0.1-0.4-0.1c-0.5-0.1-0.9,0-1.4,0.1c-12.8,0.1-23.2,2.4-28.5,3.8l-5.5-65.1l71.6-13.5
		c1.3,0.2,2.7-0.6,3.2-2c0.1-0.2,7.4-21,16.1-41.9c14.4-34.7,20.6-41.2,22.4-42.4c1.2,3,2.9,18.3-8.7,96
		C1620.2,698.8,1614.2,733.8,1611.9,746.7z"/>
</g>
</svg>
