<?xml version="1.0" encoding="utf-8"?>
<!-- Generator: Adobe Illustrator 21.0.0, SVG Export Plug-In . SVG Version: 6.00 Build 0)  -->
<svg version="1.1" id="Layer_1" xmlns="http://www.w3.org/2000/svg" xmlns:xlink="http://www.w3.org/1999/xlink" x="0px" y="0px" viewBox="0 0 2000 2000" style="enable-background:new 0 0 2000 2000;" xml:space="preserve">

<g id="Layer_5">
	<g id="Layer_4">
		<path d="M971.5,143.3c-490,147.2-907,353.2-907,864.8s414.8,926.5,926.5,926.5s577.6-417.2,797.5-938.5
			C1989.5,524.9,1640.5-57.7,971.5,143.3z" style="fill:#FECE2F;"/>
	</g>
</g>
<g id="Layer_4_1_">
	<g>
		<g>
			<polygon points="1490.4,396.3 1251.8,621 1289.8,635 1501.1,397.6 			" style="fill:#FFFFFF;"/>
		</g>
		<g>
			<path d="M1201.4,604.6l277-211l-22-3l-357.8,203.8C1098.7,594.4,1093.4,580.6,1201.4,604.6z" style="fill:#FFFFFF;"/>
		</g>
		<path d="M1693.1,873.8L1606.4,459c0-0.1,0-0.3-0.1-0.4c-0.3-0.9-8-20.5-59.5-45.7c-0.7-0.4-1.4-0.7-2.1-1
			c0.8-1,1.4-2.2,1.6-3.6l56-370.7c0.6-3.9-2.1-7.4-5.9-8c-3.9-0.6-7.4,2.1-8,5.9l-56,370.7v0.1c-43.5-18.5-74.4-18.7-75.9-18.7
			c-0.5,0-1,0.1-1.5,0.4l-361.3,204.5c-0.5,0.3-0.8,0.7-1.1,1.1c-1.9,1.5-3.4,3.2-4.4,5.3c-9.6,19.9,33.1,56.3,70.6,83.2
			c52,37.3,124.8,79.1,205.2,117.5c80.3,38.5,158.6,69,220.3,86c26.4,7.3,56.6,13.9,78.7,13.9c15.1,0,26.5-3.1,30.4-11.2
			C1695.4,884.1,1695.1,879.2,1693.1,873.8z M1622.8,805.1c-52-37.3-124.8-79.1-205.2-117.5c-80.3-38.5-158.6-69-220.3-86
			c-28.2-7.8-60.5-14.8-82.9-13.8l343-194.2c13.5,0.2,47.9,5.6,86.9,24.7c23.9,11.7,38.7,22.7,47.3,30.8l45.2,366.3
			C1632.1,811.9,1627.4,808.4,1622.8,805.1z" style="fill:#1A1A1A;"/>
		<g>
			<path d="M1445.3,504.5l61.3-77.3c1.6-2,4.5-2.3,6.5-0.8c1.7,1.4,2.2,3.8,1.2,5.7l-44.6,88
				c-3.6,7.2-12.4,10.1-19.6,6.4c-7.2-3.6-10.1-12.4-6.4-19.6C1444.2,506.1,1444.7,505.2,1445.3,504.5z" style="fill:#FFFFFF;"/>
		</g>
	</g>
</g>
<g id="Layer_3">
	<g>
		<path d="M1690.3,488.6l-82-16c-1.6-0.3-3.2,0.8-3.5,2.4s0.8,3.2,2.4,3.5l78.8,15.4c-1.7,4.4-6.7,12.8-19.6,14.7
			c-19.4,2.9-50.5,0.5-50.8,0.5c-1.6-0.1-3.1,1.1-3.2,2.8c-0.1,1.6,1.1,3.1,2.8,3.2c0.5,0.1,4.7,0.4,10.9,0.7
			c0.2,0.1,0.5,0.3,0.8,0.3s24.3,6.4,31.7,19.4c2.2,3.8,2.6,7.6,1.4,11.8c-1.3,4.3-4.2,7.5-9,9.7c-16.3,7.6-48.2,0.9-61.4-5
			c-7-3.1-10.6-7.7-10-10.4c0.4-1.8,3.7-4,11.8-4c20.7,0,45.2,1,45.4,1c1.6,0,3-1.2,3.1-2.9c0-1.6-1.2-3-2.9-3.1
			c-0.2,0-24.8-1-45.6-1c-13.8,0-17,5.5-17.7,8.8c-1.3,6.1,4.2,13,13.5,17.1c5.4,2.4,14.1,5,23.8,6.8c-2.8,0.7-5.8,1.6-8.9,2.5
			c-21.7,6.5-25.7,10.6-26.7,13.7c-0.6,1.8-0.2,3.6,1.1,5.1c4.2,4.8,19.5,6.9,28.3,7.8c6.2,0.6,12.4,0.9,18.3,0.9
			c1.6,0,3.2,0,4.7-0.1l2,8.1c-4.1,1.2-12,3.8-20,6.7c-24.2,8.7-25.8,12.3-26.5,14c-0.5,1.2-0.5,2.6,0.1,3.7
			c1.2,2.4,4.5,3.6,11.5,4.2c2.5,0.2,5.4,0.3,8.6,0.3c3.3,0,6.9-0.1,10.7-0.4c9.8-0.6,42.1-3.6,46.2-15.2c3.8-10.8-3.9-20.3-9-25.1
			c3.8-1.6,6.1-3.6,7.1-6.2c3.4-9.3-1.4-16.8-6.3-21.1c0.5-0.2,1-0.4,1.4-0.6c6.3-3,10.4-7.5,12.2-13.5c1.7-5.8,1-11.3-1.9-16.5
			c-4.2-7.4-12.5-12.9-20-16.5c8,0,16.4-0.4,23.3-1.6c21.9-3.2,25.5-22.2,25.5-22.4C1693,490.5,1691.9,488.9,1690.3,488.6z
			 M1654.7,613.7c-0.3,0.8-1.9,3.5-10.9,6.3c-17.5,5.4-45.8,6.1-53.6,4.2c4.8-3.4,21.3-10.2,44.1-17c1.6-0.4,2.5-2.1,2-3.7
			c0-0.1-0.1-0.1-0.1-0.2l-2.4-9.4c3.5-0.3,6.7-0.7,9.5-1.2c0.4-0.1,0.8-0.2,1.2-0.2C1647.1,594.4,1658.2,603.8,1654.7,613.7z
			 M1645.2,565.5c0.5,0.3,11.4,6.6,7.7,16.7c-0.1,0.5-1.5,2.9-10.5,4.6c-20.4,3.8-55.6-0.4-61-4.8c2.9-3.6,22.9-10.5,45-15.3
			c0.3-0.1,0.7-0.2,0.9-0.4c1.5,0.1,3,0.1,4.5,0.1c4.5,0,8.9-0.4,13-1.2C1645,565.3,1645.1,565.4,1645.2,565.5z" style="fill:#1A1A1A;"/>
		<g>
			<path d="M1644.6,592.5c-0.4,0.1-0.8,0.2-1.2,0.2c-2.8,0.6-6,1-9.5,1.2l2.4,9.4c0,0.1,0.1,0.1,0.1,0.2
				c0.5,1.6-0.4,3.3-2,3.7c-22.8,6.8-39.3,13.6-44.1,17c7.8,1.9,36.1,1.2,53.6-4.2c9-2.8,10.6-5.5,10.9-6.3
				C1658.2,603.8,1647.1,594.4,1644.6,592.5z" style="fill:#FECE2F;"/>
			<path d="M1639.9,535.7c-0.1,1.7-1.5,2.9-3.1,2.9c-0.2,0-24.7-1-45.4-1c-8.1,0-11.4,2.2-11.8,4
				c-0.6,2.7,3,7.3,10,10.4c13.2,5.9,45.1,12.6,61.4,5c4.8-2.2,7.7-5.4,9-9.7c1.2-4.2,0.8-8-1.4-11.8c-7.4-13-31.4-19.4-31.7-19.4
				c-0.3-0.1-0.6-0.2-0.8-0.3c-3.2-0.1-5.9-0.3-7.9-0.4l3.4,16.8c8.9,0.3,15.3,0.5,15.4,0.5C1638.7,532.7,1639.9,534.1,1639.9,535.7
				z" style="fill:#FECE2F;"/>
			<path d="M1644.8,565.2c-4.1,0.8-8.5,1.2-13,1.2c-1.5,0-3,0-4.5-0.1c-0.3,0.2-0.6,0.3-0.9,0.4
				c-22.1,4.8-42.1,11.7-45,15.3c5.4,4.4,40.6,8.6,61,4.8c9-1.7,10.4-4.1,10.5-4.6c3.7-10.1-7.2-16.4-7.7-16.7
				C1645.1,565.4,1645,565.3,1644.8,565.2z" style="fill:#FECE2F;"/>
		</g>
	</g>
</g>
<g id="Layer_2">
	<g>
		<path d="M1399.1,1754.5c-29.2-26.3-73.7-56.1-132.1-88.7c-119.9-66.9-285.4-138-466.1-200.2
			c-180.6-62.2-354.8-108.1-490.5-129.3c-66.1-10.3-119.5-14.2-158.7-11.5c-41.6,2.9-65.8,13.2-71.9,30.8
			c-6.1,17.6,6.6,40.7,37.7,68.6c29.2,26.3,73.7,56.1,132.1,88.7c119.9,66.9,285.4,138,466.1,200.2
			c180.6,62.2,354.8,108.1,490.5,129.3c52.5,8.2,97,12.3,132.7,12.3c9.3,0,18-0.2,26-0.8c41.6-2.9,65.8-13.2,71.9-30.8
			C1442.9,1805.5,1430.2,1782.4,1399.1,1754.5z" style="fill:#1A1A1A;"/>
		<g>
			<path d="M300.4,1535.6l164.7,76c0,0,36.7,110.7,134,184.7s244.7,67.3,307.3,51.3s107-35,186-106s123-198,123-198
				s54.7-141,58.3-196c0,0,56.7-56,66-72.7s12-90,12-90s-12.3,3-24.3,38.7s-12,40-13.7,40.7s-56.7,34-71.3,22.3
				c-14.7-11.7-25.7-26.7-44-72s-35.3-32.3-35.3-32.3s25.3,71,27.3,107.7s-0.3,64.3-26.3,103.3s-52.3,103.7-96.7,139.3l-3.7-27
				c0,0-13.3-144.7-35.3-198.7s-25-75.3-25-75.3l18.3-24c0,0,73.3-105.3,83.7-154c0,0-109-129.3-164.3-162s-128.7-80-128.7-80
				s-18.7,42.7-53,36l-58,76l1,23.3c0,0-0.3,41-40.7,45.3c-40.3,4.3-60.7,7.3-106-15.3c-45.3-22.7-37.3-53.3-39.3-53.3
				s-52,52-100,118.7s-78.7,134.7-103.3,226C288.4,1359.6,282.4,1467.6,300.4,1535.6z" style="fill:#FFFFFF;"/>
		</g>
		<g>
			<path d="M525.3,1048c-4.3,0-8.6-0.3-12.8-0.7c-21.6-1.9-38.6-5.2-53.8-10.2c-4.6-1.5-9.3-3.3-13.9-5.1
				c-4.6-1.7-9.3-3.5-13.9-5.1c-1.6-0.5-2.4-2.2-1.9-3.8c0.5-1.6,2.2-2.4,3.8-1.9c4.8,1.6,9.5,3.4,14.2,5.2c4.5,1.7,9.1,3.5,13.7,5
				c14.7,4.9,31.3,8.1,52.4,9.9c8.8,0.8,18.1,1.3,26.7-1.1c9.1-2.5,16-8.3,18.6-15.4c1.3-3.6,1.6-7.6,1.9-11.8
				c0.4-6,0.9-12.1,4.4-17.5c2.2-3.3,5.1-5.7,8-8.1c1.9-1.5,3.6-2.9,5.1-4.6c1.1-1.2,3-1.3,4.2-0.2s1.3,3,0.2,4.2
				c-1.8,2-3.8,3.6-5.8,5.2c-2.6,2.1-5.1,4.1-6.8,6.7c-2.6,4.1-3,9.2-3.4,14.7c-0.3,4.4-0.6,9-2.2,13.4
				c-3.2,8.9-11.7,16.1-22.7,19.1C536.1,1047.5,530.7,1048,525.3,1048z" style="fill:#FECE2F;"/>
		</g>
		<g>
			<path d="M1004.3,1583.6L1004.3,1583.6c-24.1,0-47.9-13.2-60.6-33.7c-12.7-20.5-14-47.7-3.2-69.3
				c3-6.1,7-12.1,10.9-17.8c8.7-13,17-25.3,14.7-39.1c-2.2-12.9-12.7-21.6-23.8-30.7c-9.2-7.6-18.6-15.4-23.9-26.1
				c-8.8-18-3.3-39.1,2.5-55.4c5.5-15.5,13.7-34.9,28.9-47.8c9.6-8.2,35.2-24.6,66.1-0.3c1.3,1,1.5,2.9,0.5,4.2
				c-1,1.3-2.9,1.5-4.2,0.5c-26.4-20.7-48-8.8-58.5,0.2c-14,12-21.6,29.6-27.1,45.3c-5.4,15.2-10.6,34.8-2.7,50.8
				c4.7,9.5,13.6,16.9,22.3,24.1c11.5,9.5,23.4,19.3,25.9,34.4c2.7,16.2-6.6,30.1-15.6,43.5c-3.8,5.6-7.6,11.3-10.5,17.1
				c-9.8,19.8-8.7,44.7,3,63.4c11.6,18.8,33.4,30.9,55.5,30.9c1.7,0,3,1.3,3,3S1005.9,1583.6,1004.3,1583.6z" style="fill:#FECE2F;"/>
		</g>
		<g>
			<path d="M861.2,1217.4c-5.5,0-10.9-0.6-16.2-1.8c-4.6-1-10.4-2.8-14.6-7.1c-7.5-7.8-6.3-20.1-1.9-28.3
				c3.7-6.8,9.3-12.1,14.7-17.3c1.1-1.1,2.3-2.2,3.4-3.3c16.8-16.4,29.1-41.4,18.6-60.5c-5.2-9.4-14.6-15.3-24.5-21.5
				c-9-5.6-18.4-11.5-24.7-20.4c-11-15.5-9.3-38.4,3.8-52.2c1.1-1.2,3-1.2,4.2-0.1c1.2,1.1,1.2,3,0.1,4.2
				c-11,11.6-12.4,31.6-3.2,44.6c5.6,7.9,14,13.2,22.9,18.7c10.1,6.3,20.6,12.9,26.6,23.7c5.7,10.4,6.2,22.9,1.4,36.1
				c-4,11-11.5,22.2-21.1,31.6c-1.1,1.1-2.3,2.2-3.5,3.3c-5.3,5-10.3,9.8-13.5,15.8c-3.5,6.5-4.3,15.9,0.9,21.3
				c2.4,2.5,6,4.2,11.6,5.4c19.4,4.3,40.6-0.1,56.7-11.7c5-3.6,9.6-8,14.1-12.2c4.7-4.5,9.6-9.1,15.1-13c13.3-9.5,28-12.1,39.1-6.8
				c1.5,0.7,2.1,2.5,1.4,4c-0.7,1.5-2.5,2.1-4,1.4c-9.1-4.4-21.5-2-33,6.2c-5.1,3.7-9.8,8.1-14.4,12.4c-4.6,4.3-9.4,8.8-14.7,12.7
				C893.4,1212.3,877.3,1217.4,861.2,1217.4z" style="fill:#FECE2F;"/>
		</g>
		<g>
			<path d="M550.7,1477.9c-0.5,0-1.1-0.1-1.6-0.4c-1.4-0.9-1.9-2.7-1-4.1c4-6.6,10-12.9,16.7-17.6
				c6.6-4.6,13.8-8.3,20.7-11.9c8.8-4.5,17.1-8.8,24.4-14.8c4.9-4.1,9.4-9,13.7-13.8c3.4-3.8,6.9-7.7,10.8-11.3
				c7.8-7.2,19.9-15.5,33.8-14.1c10.9,1.2,21.2,8.6,27,19.5c4.7,9,6.6,19.9,5.5,32.5c-0.1,1.6-1.6,2.9-3.2,2.7
				c-1.7-0.1-2.9-1.6-2.7-3.2c1-11.4-0.6-21.3-4.8-29.2c-4.8-9.1-13.4-15.4-22.3-16.3c-11.7-1.2-22.3,6.1-29.1,12.5
				c-3.6,3.4-7.1,7.2-10.4,10.9c-4.5,4.9-9.1,10-14.3,14.4c-7.8,6.4-16.8,11.1-25.5,15.5c-6.8,3.5-13.8,7.1-20,11.5
				c-6.1,4.3-11.4,9.9-15,15.8C552.7,1477.4,551.7,1477.9,550.7,1477.9z" style="fill:#FECE2F;"/>
		</g>
		<g>
			<path d="M1044.1,1170.8c-3,0-6.1-0.9-9-2.7c-6.3-3.9-10.9-11.3-11.9-19c-0.9-6.9,0.2-13.7,1.3-20.2
				c0.7-4.4,1.4-8.6,1.5-12.8c0.2-8.5-1.8-16.8-3.9-25.6c-1.3-5.4-2.7-11-3.4-16.6c-0.8-5.9-0.9-12-0.4-18.1
				c0.1-1.7,1.6-2.9,3.3-2.7c1.7,0.2,2.9,1.6,2.7,3.3c-0.5,5.6-0.4,11.2,0.4,16.7c0.7,5.3,2.1,10.7,3.3,16
				c2.1,8.8,4.3,17.8,4.1,27.1c-0.1,4.6-0.9,9.2-1.6,13.6c-1,6.4-2,12.5-1.3,18.5c0.7,5.8,4.4,11.7,9.1,14.6
				c2.1,1.3,5.3,2.5,8.8,1.3c1.6-0.5,3.3,0.3,3.8,1.8s-0.3,3.3-1.8,3.8C1047.5,1170.5,1045.8,1170.8,1044.1,1170.8z" style="fill:#FECE2F;"/>
		</g>
		<g>
			<path d="M863.6,961.5c-1.6,0-3.3,0-4.9-0.1c-19.2-0.7-33.7-4.2-45.6-11c-11.2-6.5-20-16-28.6-25.2
				c-5.5-6-11.2-12.1-17.4-17.3c-9-7.4-20.1-13.8-35-20c-1.5-0.6-2.3-2.4-1.6-3.9c0.6-1.5,2.4-2.3,3.9-1.6
				c15.5,6.4,27.1,13,36.5,20.9c6.5,5.4,12.4,11.7,18,17.8c8.6,9.3,16.7,18.1,27.2,24.1c11,6.4,24.7,9.6,42.8,10.2
				c21.4,0.7,37.9-3.4,48.9-12.3c1.3-1,3.2-0.8,4.2,0.4c1,1.3,0.8,3.2-0.4,4.2C900.3,956.9,884.2,961.5,863.6,961.5z" style="fill:#FECE2F;"/>
		</g>
		<g>
			<path d="M817.1,1467.6c0,0-84.7,48-159.7,64s-151.3,27.7-213.7,23.3c0,0,56.7,166.7,138.7,228.7s227,111,387,43
				s227-238,227-238s74.7-191,77.3-241c0,0,57.3-57.3,66-72.7l12-90c0,0-20.2,11-38,79.3c0,0-53.3,34.8-71.3,22.3
				s-39.5-63.5-39.5-63.5s-22.2-60.7-39.8-40.8c0,0,28.3,81.5,27.3,107.7s7.5,61.2-43,131.7s-77,130-157,172.5s-127.5,8.5-139.5-1
				S813.3,1533.1,817.1,1467.6z" style="fill:#FECE2F;"/>
		</g>
		<g>
			<path d="M613.4,618.8c-0.4,0-0.8-0.1-1.2-0.3c-1.5-0.7-2.2-2.4-1.5-4c8.7-19.9,25.9-16.3,26.1-16.2
				c1.6,0.4,2.6,2,2.3,3.6c-0.4,1.6-2,2.6-3.6,2.3c-0.6-0.1-12.6-2.4-19.3,12.8C615.7,618.1,614.6,618.8,613.4,618.8z" style="fill:#1A1A1A;"/>
		</g>
		<g>
			<path d="M626.8,633.8c-1.6,0-2.9-1.3-3-2.9l-1-28.3c-0.1-1.7,1.2-3,2.9-3.1c1.6-0.1,3,1.2,3.1,2.9l1,28.3
				C629.9,632.4,628.6,633.7,626.8,633.8L626.8,633.8z" style="fill:#1A1A1A;"/>
		</g>
		
			<ellipse transform="matrix(0.7245 -0.6893 0.6893 0.7245 -251.5846 740.7991)" cx="800.9" cy="685.1" rx="18.1" ry="38.4" style="fill:#FFFFFF;"/>
		<g>
			<path d="M715.9,744.6c1.5,0.5,39,56.5,39,56.5s-24.5,8-40.5-11S715.9,744.6,715.9,744.6z" style="fill:#FFFFFF;"/>
			<path d="M742.6,805.9c-9,0-21-2.6-30.5-13.8c-7.2-8.5-9.2-19.8-5.9-32.6c2.5-9.4,7-16.2,7.1-16.5
				c0.7-1.1,2.2-1.6,3.5-1.2c1.3,0.4,1.9,0.6,21.6,29.6c9.5,13.9,18.9,27.9,19,28.1c0.5,0.8,0.6,1.8,0.3,2.6c-0.3,0.9-1,1.6-1.9,1.9
				C755.4,804.1,750,805.9,742.6,805.9z M716.4,750c-3.8,7.6-10.7,25.1,0.4,38.2c10.8,12.9,26.1,12.2,33.3,11
				C738.5,782.1,722.5,758.5,716.4,750z" style="fill:#1A1A1A;"/>
		</g>
		<path d="M831.8,695c-2.6-8-8.1-16.7-15.5-24.4c-7.3-7.7-15.7-13.7-23.6-16.7c-8.6-3.3-15.8-2.9-20.2,1.3
			s-5.2,11.3-2.3,20.1c2.6,8,8.1,16.7,15.5,24.4c7.3,7.7,15.7,13.7,23.6,16.7c3.8,1.5,7.3,2.2,10.4,2.2c4,0,7.3-1.2,9.8-3.5
			C833.9,710.9,834.7,703.8,831.8,695z M790.1,695.6c-6.8-7.1-11.8-15-14.2-22.2c-2.1-6.3-1.9-11.3,0.7-13.8
			c1.3-1.3,3.2-1.9,5.6-1.9c2.3,0,5.1,0.6,8.3,1.8c7,2.8,14.6,8.2,21.4,15.3c2.6,2.7,4.9,5.4,6.9,8.3c-6.1,1.2-17.9,5.2-21.4,19.2
			C794.9,700.3,792.4,698,790.1,695.6z" style="fill:#1A1A1A;"/>
		<g>
			<path d="M662.4,1946.5c-0.1,0-0.1,0-0.2,0c-40.8-2.8-81.2-15.5-120-37.8c-31-17.8-61-41.7-89.3-71.1
				c-48.1-50-74.8-99.2-75.1-99.7c-0.8-1.5-0.2-3.3,1.2-4.1c1.5-0.8,3.3-0.2,4.1,1.2c0.3,0.5,26.7,49.1,74.3,98.5
				c27.9,28.9,57.5,52.5,88,70c38,21.8,77.5,34.3,117.4,37c1.7,0.1,2.9,1.5,2.8,3.2C665.3,1945.2,664,1946.5,662.4,1946.5z" style="fill:#1A1A1A;"/>
		</g>
		<g>
			<path d="M1736.5,905.4c-1.4,0-2.6-1-2.9-2.4l-39-183c-0.3-1.6,0.7-3.2,2.3-3.6c1.6-0.3,3.2,0.7,3.6,2.3l39,183
				c0.3,1.6-0.7,3.2-2.3,3.6C1737,905.3,1736.8,905.4,1736.5,905.4z" style="fill:#1A1A1A;"/>
		</g>
		<g>
			<path d="M1021.9,1745c-5.3,0-10.6-2.4-14-7c-5.8-7.7-4.3-18.7,3.5-24.5c24.3-18.2,44.7-39.1,60.8-62
				c5.6-7.9,16.5-9.8,24.4-4.3c7.9,5.6,9.8,16.5,4.3,24.4c-18.2,25.9-41.2,49.4-68.4,69.8C1029.2,1743.9,1025.5,1745,1021.9,1745z" style="fill:#FFFFFF;"/>
		</g>
		<g>
			<path d="M551.4,550.6c-1.5,0-2.8-1.2-3-2.7c-1.3-14.1,5.4-28.2,19.3-41c10.3-9.4,20.9-14.7,21.3-15
				c1.5-0.7,3.3-0.1,4,1.3c0.7,1.5,0.1,3.3-1.3,4c-0.4,0.2-40.1,20.5-37.4,50c0.2,1.6-1.1,3.1-2.7,3.3
				C551.6,550.6,551.5,550.6,551.4,550.6z" style="fill:#FECE2F;"/>
		</g>
		<g>
			<path d="M508.4,688.6c-0.6,0-1.2-0.2-1.7-0.5c-7-4.8-11-10.9-11.8-18.1c-1.8-16,12.6-31.8,13.3-32.4
				c1.1-1.2,3-1.3,4.2-0.2c1.2,1.1,1.3,3,0.2,4.2c-0.2,0.2-13.2,14.4-11.7,27.7c0.6,5.5,3.6,10,9.2,13.8c1.4,0.9,1.7,2.8,0.8,4.2
				C510.3,688.2,509.4,688.6,508.4,688.6z" style="fill:#FECE2F;"/>
		</g>
		<g>
			<path d="M520.9,1373.6c-19.9,0-40.4-8.9-53.6-25.2c-3.7-4.6-6.9-9.7-9.9-14.6c-3.2-5.1-6.5-10.4-10.4-15
				c-8.8-10.5-21.1-17.9-34.5-20.7c-3.9-0.8-8.2-1.4-12.3-1.9c-13.2-1.7-26.9-3.5-35-14.4c-6.5-8.8-8.3-25.2,3.3-40.4
				c5.9-7.7,13.7-13.1,21.2-18.3c12.2-8.3,22.7-15.6,24-31c0.6-6.7-0.3-13-1.1-19.2c-0.7-5-1.3-10.2-1.2-15.4c0-1.7,1.4-2.9,3.1-2.9
				s3,1.4,2.9,3.1c-0.1,4.7,0.5,9.5,1.2,14.5c0.9,6.5,1.7,13.2,1.1,20.5c-1.5,18.2-14.2,27-26.5,35.4c-7.1,4.9-14.5,10-19.8,17
				c-7,9.2-10.4,23.6-3.3,33.2c6.6,8.9,18.4,10.4,30.9,12c4.3,0.5,8.7,1.1,12.8,2c14.7,3.1,28.2,11.2,37.9,22.7
				c4.2,4.9,7.6,10.4,10.9,15.7c2.9,4.8,6,9.7,9.5,14c8.9,11.1,22.5,19,37.3,21.9c15.2,2.9,30,0.2,41.5-7.6
				c12-8.2,19.8-22.7,20.7-38.8c0.8-14.6-4.3-27.8-14-36.1c-7.4-6.3-17.1-10.3-26.5-14.2c-13.7-5.6-27.9-11.4-35.5-24.6
				c-6.7-11.6-6.6-27.4,0.4-41.2c5.4-10.8,14.3-20.4,27.9-30.1c1.8-1.3,3.7-2.6,5.5-3.9c7.1-4.9,13.9-9.5,19-15.8
				c5.8-7.1,9.5-18.2,4.8-26.7c-2.5-4.5-7.2-8.2-14.5-11.4c-13.9-6.1-34.2-8.5-54.3-6.4c-1.6,0.2-3.1-1-3.3-2.7
				c-0.2-1.6,1-3.1,2.7-3.3c21.1-2.2,42.6,0.4,57.3,6.8c8.6,3.8,14.3,8.3,17.4,14c4.4,7.9,4.4,21.3-5.4,33.4
				c-5.7,7-13.1,12.1-20.2,17c-1.8,1.3-3.7,2.5-5.4,3.8c-12.8,9.2-21.1,18-26,27.9c-6,12.1-6.2,25.7-0.5,35.5
				c6.6,11.4,19.2,16.6,32.6,22.1c9.8,4,20,8.2,28.1,15.1c11.2,9.6,17,24.5,16.1,41c-1,18-9.7,34.2-23.3,43.4
				C544.4,1370.5,532.7,1373.6,520.9,1373.6z" style="fill:#FECE2F;"/>
		</g>
		<g>
			<path d="M741.5,1318.1c-12.8,0-25-7.6-28.9-19c-2.2-6.5-1.8-13.2-1.1-20.2c2.1-20.8,4.7-46.6-11-60.9
				c-5-4.6-11.3-7.3-17.9-10.3c-4.9-2.2-10-4.4-14.6-7.5c-23.4-15.6-24.3-40.3-17.4-58.2c4.4-11.2,12.1-20.9,21.9-27.4
				c10.7-7.1,23-9.9,35.6-7.9c26.1,4.1,31.8,27,33.7,43.9c2.6,22.4,9.4,33.1,18.8,48c3.4,5.3,7.2,11.4,11.2,18.6
				c5.5,9.9,7.7,21,8.9,28.5c2.7,16.8,2.1,30.1-1.8,41.6c-5,14.9-16.3,26.3-29.4,29.7C746.8,1317.8,744.1,1318.1,741.5,1318.1z
				 M700.7,1112.2c-16.5,0-35.7,9.4-44.5,32.1c-6.1,15.7-5.4,37.4,15.1,51l0,0c4.2,2.8,8.8,4.9,13.8,7c6.8,3,13.8,6.1,19.5,11.3
				c17.9,16.3,15.2,43.8,12.9,65.9c-0.6,6.3-1,12.3,0.8,17.7c3.7,10.7,17.5,17.3,29.7,14.1c11.2-2.9,20.9-12.8,25.2-25.8
				c3.6-10.6,4.1-22.9,1.6-38.7c-1.8-11.2-4.4-19.7-8.2-26.6c-3.9-7-7.5-12.8-11-18.3c-9.5-14.9-17-26.7-19.7-50.5
				c-2.8-24-11.7-36-28.7-38.6C705,1112.4,702.9,1112.2,700.7,1112.2z" style="fill:#FECE2F;"/>
		</g>
		<g>
			<circle cx="177.6" cy="1257.6" r="34.9" style="fill:#1A1A1A;"/>
			<path d="M177.6,1296.9c-21.6,0-39.2-17.6-39.2-39.2s17.6-39.2,39.2-39.2s39.2,17.6,39.2,39.2
				S199.2,1296.9,177.6,1296.9z M177.6,1227.1c-16.8,0-30.5,13.7-30.5,30.5s13.7,30.5,30.5,30.5s30.5-13.7,30.5-30.5
				S194.4,1227.1,177.6,1227.1z" style="fill:#1A1A1A;"/>
		</g>
		<g>
			<circle cx="200.1" cy="1541.2" r="15.1" style="fill:#1A1A1A;"/>
			<path d="M200.1,1558.1c-9.4,0-17-7.6-17-17s7.6-17,17-17s17,7.6,17,17S209.4,1558.1,200.1,1558.1z M200.1,1528
				c-7.3,0-13.2,5.9-13.2,13.2s5.9,13.2,13.2,13.2s13.2-5.9,13.2-13.2S207.3,1528,200.1,1528z" style="fill:#1A1A1A;"/>
		</g>
		<g>
			<path d="M1502.4,337.3c-0.1,0-0.3,0-0.5,0c-1.6-0.2-2.8-1.8-2.5-3.4l19.5-129c0.2-1.6,1.8-2.8,3.4-2.5
				c1.6,0.2,2.8,1.8,2.5,3.4l-19.5,129C1505.1,336.2,1503.8,337.3,1502.4,337.3z" style="fill:#1A1A1A;"/>
		</g>
		<g>
			<path d="M1416.4,690.3c-44-21.1-87.4-39.8-127.8-55.2c-1.2,6.4-1.8,12.9-1.8,19.6c0,59.6,48.4,108,108,108
				c34.3,0,64.8-16,84.6-40.8C1459,711.3,1438,700.7,1416.4,690.3z" style="fill:#FFFFFF;"/>
			<path d="M1394.8,765.8c-61.2,0-111-49.8-111-111c0-6.7,0.6-13.5,1.8-20.1c0.2-0.9,0.7-1.6,1.5-2.1
				c0.8-0.4,1.7-0.5,2.5-0.2c41.2,15.7,84.2,34.3,128.1,55.3c21.4,10.2,42.6,20.8,63.1,31.6c0.8,0.4,1.4,1.2,1.5,2
				c0.2,0.9,0,1.8-0.6,2.5C1460.5,750.5,1428.8,765.8,1394.8,765.8z M1290.9,639.3c-0.8,5.1-1.1,10.3-1.1,15.5
				c0,57.9,47.1,105,105,105c31,0,59.9-13.4,79.9-36.9c-19.4-10.2-39.4-20.2-59.6-29.8l0,0C1372.6,672.7,1330.9,654.6,1290.9,639.3z
				" style="fill:#1A1A1A;"/>
		</g>
	</g>
</g>
<g>
	<path d="M1352.4,1111.3c0,87.8-40.3,119-90,119s-90-31.2-90-119s40.3-159,90-159
		C1312.1,952.3,1352.4,1023.5,1352.4,1111.3z" style="fill:#FFFFFF;"/>
	<path d="M1328.7,997.4c-4.1-7.2-8.5-13.6-13.1-19.3c-0.2-1.1-1-2-2-2.4c-15-17.2-32.6-26.5-51.2-26.5
		c-25.2,0-48.7,17.1-66.3,48.1c-13.9,24.6-22.8,55.8-25.7,89.5c-0.3,0.7-0.4,1.5-0.2,2.2c-0.6,7.3-0.9,14.7-0.9,22.2
		c0,41.9,9.1,73.7,27.1,94.4c15.9,18.3,38.1,27.6,65.9,27.6c27.9,0,50-9.3,65.9-27.6c18-20.7,27.1-52.5,27.1-94.4
		C1355.4,1068.3,1345.9,1027.9,1328.7,997.4z M1348.6,1090.5l-20.3-16.1c-1-0.7-2.3-0.8-3.4-0.2l-37.6,22.5l-7.3-50.3
		c-0.2-1.3-1.2-2.3-2.5-2.5l-23.7-3.7l-9.9-22.2l17.8-6.6c0.5-0.2,1-0.6,1.4-1.1l18.2-26.8l29.5-1.8
		C1331,1006.1,1345.2,1045.2,1348.6,1090.5z M1262.4,955.3c15.8,0,30.5,7.5,43.3,20.7l-26.3,1.6c-0.9,0-1.8,0.5-2.3,1.3l-18.5,27.2
		l-18.6,6.8l-34.6-19.4C1220.7,969.7,1240.6,955.3,1262.4,955.3z M1202.3,998.7l35,19.6l11.6,25.8c0.4,0.9,1.3,1.5,2.3,1.7l23.2,3.7
		l7.1,48.1l-33.8-7.1c-0.6-0.1-1.1-0.1-1.6,0.1l-14.6,4.9l-33.4-22.5c-0.9-0.6-2.1-0.6-3.1-0.1l-18.1,9.9
		C1180.2,1050,1189.4,1020.8,1202.3,998.7z M1323.8,1201.8c-14.7,16.9-35.3,25.5-61.4,25.5s-46.7-8.6-61.4-25.5
		c-17-19.6-25.6-50.1-25.6-90.5c0-7.2,0.3-14.3,0.8-21.3l20.1-10.9l33.2,22.3c0.7,0.6,1.7,0.7,2.6,0.4l15.2-5.1l36.7,7.7
		c0.2,0.1,0.4,0.1,0.7,0.2c0.1,0,0.2,0,0.4,0c0.4,0,0.9-0.1,1.3-0.4c0.3-0.1,0.5-0.3,0.7-0.5l39.1-23.3l22.9,18.1
		c0.2,4.2,0.3,8.5,0.3,12.8C1349.4,1151.8,1340.8,1182.2,1323.8,1201.8z" style="fill:#1A1A1A;"/>
</g>
<path d="M1394.4,1229.7c-4.2-2.5-12-0.3-19.9,3.1c17.1-24,16.5-26.9,16.1-28.7c-0.2-1.1-0.9-2-1.9-2.5
	c-10.4-5.4-28.5,12.9-38.3,24.3c2.3-20.2,4.1-39,4.3-40.5c0.1-1.4-0.7-2.6-1.9-3.1c-1.3-0.5-3.5-0.9-6.2,0.4
	c-14.8,7.3-32.4,68.6-35.5,79.9c-13.4,8.6-48.7,28-65.2,23c-16.6-5-38-55.3-48.3-79.5c-2.8-6.5-5-11.6-6.6-15
	c-9.8-20.5-29.1-11.5-29.3-11.4c-1.5,0.6-2.1,2.3-1.5,3.8c0.1,0.3,11.3,27.9,19.5,62.4c7.5,31.6,13.9,75.6,1.8,105.8
	c-12.4,31.2-48.5,98.7-96.8,156.9c-5.7,6.9-11.4,13.5-17.2,19.7c-4.5-110.5-25.4-209.5-62-294.7c0-0.1,0.1-0.1,0.1-0.1
	c30.3-37.3,53.7-76,70.4-107.8h0.1c0.9-0.7,1.3-1.7,1.3-2.7c20.6-39.6,30.6-67.9,30.7-68.4c0.4-1,0.2-2-0.4-2.8
	c-8.4-11.2-17.1-21.9-25.9-32.2c24.8-46.8,28.2-162.3,30.3-231.8l0.1-4.9c2-66.2,38-113.8,38.4-114.3c1.1-1.3,0.8-3.2-0.5-4.2
	c-1.3-1.1-3.2-0.8-4.2,0.5c-0.3,0.3-20.4,26.8-31.9,67.9c-30.1-42.8-53.1-95.6-78-78.7c-37.2,25.2,46.6,86.4,65.2,184
	c2.6,11.7-0.3,29.6,1.2,39.1c-1.1,17.2-2.6,34.6-4.5,51.2c-15.8,54.1-71.2,25.4-103.2,3.1c-29.2-25.5-57-46.4-80.2-62.5
	c-50.4-34.9-89.7-54.7-98.8-59.1c0.6-1.5,1.3-3.1,1.9-4.8c5.2-13.7,8.2-27.1,9.7-35.7c5.7,10.1,16.4,25.5,27.4,25.5
	c4.6,0,6.5-6,7.7-11.2c2.4-10.5,3.8-30.7,2.5-55.3c2.4-3,90.3-110.1,219.1-184.2c129.9-74.8,275.4-96.4,276.9-96.6
	c1.7-0.2,2.8-1.8,2.6-3.4s-1.8-2.7-3.4-2.5c-1.5,0.2-148.1,22-279.1,97.4C966,605.2,883.4,697.4,864.3,719.7
	c-1.2-16.1-3.5-33.6-7.4-51.3c-8.3-37.7-25.6-85.8-61.8-109.5c8.2-11.5,9.5-28.4,3.6-45.8c-7.4-22-28.4-48.3-64.8-56.5
	c-62.1-13.9-124.2-2.7-166,30.1c-24.6,19.3-37.9,40.6-37.2,59.9c0.4,12.6,6.7,23.9,18.3,32.9c-13,9-56.7,41.6-68.1,82.3
	c-3.7,13.5-2.3,24.3,4.2,31.9c8.2,9.7,22.8,11.9,32.4,12.2c-7.2,6.1-17.2,16.5-19.6,28.6c-1.4,7.3,0.1,14.3,4.5,20.8
	c15.2,22.2,41.4,14.2,51.1,10.2c1.3,5.7,5.4,15.3,17.8,17.3l-59.6,139.3c-7.1,6.8-73.5,72.3-131.7,175.5
	c-36,63.9-61.9,129.4-77,194.9c-18.8,81.9-20.7,163.9-5.6,243.7c0.2,1.4,1.5,2.4,2.9,2.4c0.2,0,0.4,0,0.6,0c0.7-0.1,1.3-0.5,1.7-1
	l15,8.3c0,0.1,0,0.2-0.1,0.3c-0.1,1.3,0.5,2.5,1.7,3.1c51.1,24.8,88.2,41.2,142.8,64.6c0.3,0.1,0.7,0.2,1,0.2
	c5.5,13.5,11.3,26.3,17.4,38.6c41.3,83.6,96,141.5,162.6,172.2c42.1,19.4,86.5,31.5,131.9,36c13.2,1.3,26.5,2,39.7,2
	c31.3,0,62.4-3.7,92.8-11c43.6-10.5,84.7-28.3,122.2-52.9c38.7-25.4,72.7-57.5,101.1-95.5c59.6-79.8,96.1-172.2,116.2-235.6
	s28.3-111.3,29.5-118.7c6-5.9,31.9-31.5,49.5-51.3l68.5-56.5c1.9-1.6,3.1-4,3-6.4C1397.3,1232.7,1396.2,1230.8,1394.4,1229.7z
	 M1349,1236.8c12-15.4,28-30.3,35.1-30.3c-3.1,7.3-20.3,31.4-38.6,55.1C1346.7,1254.6,1347.9,1245.9,1349,1236.8
	C1349,1236.9,1349,1236.9,1349,1236.8z M1047.5,1163.9c-38,13.5-84.5-24.5-112.4-52.9c0.4,0.6,0.9,1.2,1.3,1.9
	c-0.6-0.8-1.1-1.5-1.7-2.3c0.1,0.1,0.3,0.3,0.4,0.4c-5.4-7.5-10.5-14.1-15.2-19.2c-12.9-15.7-26.7-30.5-41.2-44.5
	c-46.1-44.4-91.6-71.5-121.6-86.5c-27.1-13.5-46.5-19.7-52.7-21.5l-0.4-14.1l44.1-57.8c39.6,7.5,81.3,25.7,123.8,54
	c34.1,22.7,68.9,51.9,103.3,86.9c53,53.9,88.9,105.1,95.6,114.8C1064.1,1135.7,1056.3,1149.5,1047.5,1163.9z M703.7,915.6l-2.2-82.4
	c20,9.2,37.4,15,51.9,17.3L703.7,915.6z M911.1,873.9c52.4,36.3,127.9,97,191,180.2c-2.2,6.1-11.5,30.3-28.2,62.8
	c-10.2-14.5-44.9-62.5-94.3-112.8c-34.7-35.3-69.8-64.8-104.3-87.8c-42.2-28-83.6-46.2-123.1-54.3l8.1-10.6c2.4,0.2,4.6,0.3,6.8,0.3
	c0.5,0,0.9-0.1,1.6,0.1c18.1-0.4,33.4-12.9,44.5-36.5C822.4,819.7,861.2,839.3,911.1,873.9z M578.1,782.1c0.2-0.2,0.3-0.5,0.4-0.8
	l18.2-42.8l32.4-75.7c0.6-1.4,0-2.9-1.3-3.7c-0.3-0.2-0.5-0.3-0.8-0.4c-0.2-0.1-19-5.3-20.8-26.4c-2-23.4,6.1-42.9,19.3-46.3
	c3.6-0.9,6.8,0.1,9.7,3c6.3,6.4,11,23.5,3.5,50.4c-1.2,4.4-0.6,9,1.7,12.7c2.9,4.6,9.2,9.3,22.6,5.9c20.3-5.2,26.5-42.3,27.9-52.9
	c9.3-0.2,38.2-3.4,45.5-36.5c9.7,4.7,35.9,14.5,54.8-5.1c17.4,11.3,31.9,29.6,43.3,54.8c13.5,29.9,19.5,63,22.2,85.5
	c2.4,20.4,3.2,41.2,2.2,58.5c-1.1,18.3-3.7,25.1-4.8,26.5c-8.8-0.7-20.4-18.8-25.8-30.3c-0.6-1.2-1.9-1.9-3.2-1.7
	c-1.3,0.2-2.3,1.3-2.5,2.6c-0.1,0.8-10.2,85.4-54.1,86.3c-0.5,0-0.9,0-1.3,0c-20.2,0-46.5-9.9-69.7-21.1L642.9,794
	c-0.1,0-0.1-0.1-0.2-0.1c0,0,0,0-0.1,0c-0.2-0.1-0.4-0.1-0.5-0.2c-1.1-0.2-2.3,0.1-3,1c-0.6,0.7-0.8,1.6-0.6,2.5
	c0.1,0.6,0.4,1.2,0.9,1.7c4,5,44.5,56.5,57.6,107.4c0.1,0.4,0.3,0.8,0.5,1.1l0.9,33.9c0,0.3,0,0.7,0.1,1c0.3,2.7,1.5,19.7-10.9,33.1
	c-12.6,13.8-34.8,19.9-66,18.1c-44.8-2.5-70.7-21.5-84.6-37.1c-13.1-14.7-18.2-29.1-19.4-32.7L578.1,782.1z M401.4,1328
	c-0.1-0.9-0.6-1.6-1.2-2.1c-4.2-4.4-9.7-6.3-16.1-5.3c-11.8,1.7-24.3,12.8-28.4,22.1c-7.8,17.4-3.3,36.4,1.9,49.4
	c1.3,3.3,2.8,6.7,4.3,9.9c4.9,10.8,9.5,21.1,8.6,32c-0.9,12.2-8.6,22.3-16.6,33c-7.1,9.3-14.4,19-17.2,30.6
	c-1.3,5.4-1.6,11-1.8,16.3c-0.2,4.4-0.4,8.5-1.1,12.6c-1,5.5-3.9,14.9-12.8,16.9l-17.6-8.4c-15-78.9-13.1-160.1,5.5-241.1
	c15-64.9,40.6-129.9,76.3-193.2c1.1-1.9,2.1-3.7,3.2-5.6c31.7,20.8,45.2,102.5,73.7,86.4c31.2-17.6-19.2-51.8-27.7-130.6
	c-1.4-10.5,3.5-23.4,1.8-29.9c35.7-49.6,66.9-82,76.9-92c2.5,6.4,8.1,18.5,19.2,31.1c14.7,16.5,42,36.8,89,39.4
	c3.6,0.2,7,0.3,10.4,0.3c27.8,0,48.1-6.8,60.4-20.7c11.1-12.1,12.6-26.3,12.6-33.5c18.1,5.6,93.5,32.5,169.8,106
	c51.2,49.4,92.8,109.8,123.5,179.5c38.3,87.1,59.8,189.1,63.9,303.3c-19.7,20.8-39.5,37.6-59,50.2c-32,20.8-63.2,30.1-92.7,27.7
	c-42.8-3.5-68.4-23.8-80.5-64c-6.8-22.3-9.2-49.2-9.8-79.6c0.3-0.7,0.3-1.5,0-2.2c-0.3-19.7,0.1-40.9,0.5-63.2
	c0.1-3,0.1-5.9,0.2-8.9c0.1-0.5,0.2-1,0-1.6c0.7-38.3,1.1-77.8-2.2-118.4c-7.1-87.5-45.3-153.1-76.2-192.8
	c-33.5-43-65.8-65.7-66.1-65.9c-1.4-0.9-3.3-0.6-4.2,0.8s-0.6,3.3,0.8,4.2c0.3,0.2,31.9,22.3,64.8,64.6c30.3,39,68,103.6,74.9,189.6
	c3.2,40,2.9,78.9,2.2,116.8c-108.7,53.1-208.6,73.4-273.4,81c-62.4,7.3-104.9,4.7-114.5,4C416.2,1431.2,407.7,1381.6,401.4,1328z
	 M447.1,1552.1c-6.9-21.8-13.2-44.9-19-69.1c5.4,0.4,16,1,31,1c20.3,0,48.5-1,82.4-5.1c64.8-7.6,164.4-27.7,272.9-80.3
	c0,1.6-0.1,3.1-0.1,4.7c-0.4,22.2-0.8,43.2-0.5,62.9c-81.7,49.9-177.1,70.6-242.8,79.2C505.8,1553.8,456,1552.4,447.1,1552.1z
	 M1271.6,1345.5c-0.5,0.5-0.8,1.1-0.9,1.7c0,0.5-7.8,50.6-29.4,118.8c-19.9,63-56.1,154.7-115.3,233.9
	c-27.9,37.4-61.4,69.1-99.5,94.1c-36.9,24.2-77.3,41.7-120.3,52.1c-42.6,10.3-86.5,13.3-130.5,8.9c-40.5-4-80.2-14.2-118.2-30.3
	c-59.9-72.5-60.6-167.9-101.4-153.7c-25.5,8.9-5,50,11.3,94.3c-31.2-30.1-58.4-68.6-81.5-115.2c-8.2-16.7-16-34.4-23.2-53.3
	c225.7-8.8,331.3-97.9,351.5-117.1c0.9,26.4,3.6,50.1,9.6,70.3c2.7,9,6.1,17.1,10.1,24.3l-72.7,35.9c-17,8.4-24.1,29.2-15.7,46.2
	c8.4,17,29.2,24.1,46.2,15.7l62.4-30.8c0,0.1,0,0.1,0,0.1s38.4-17.7,76-23.3c2.9-0.3,5.7-0.6,8.6-1.1c1.9-0.2,3.8-0.3,5.6-0.4
	c0,0-1.1,0-3.1,0c21.1-3.7,42.8-12.8,64.7-27c27.7-17.9,55.7-43.9,83.4-77.3c48.7-58.7,85.2-127,97.8-158.5
	c10.2-25.4,9.7-62.3-1.5-109.5c-6.7-28.5-15.5-52.2-18.6-60.3c4.4-1.2,13.3-1.8,18.7,9.5c1.5,3.3,3.8,8.6,6.4,14.7
	c15.9,37.3,34.3,77.5,52.1,82.9c23.1,7,69.2-23.1,71.2-24.4c0.6-0.4,1-1,1.2-1.7c7.3-26.4,22-69.6,31.8-76.6
	c-2.7,27.6-8.1,76.2-11.5,85.5c-1.2,3.2-7,10.5-14.9,19.5l-1.2,1c-0.5,0.4-0.8,0.9-0.9,1.4
	C1305.9,1311.2,1286.4,1331.1,1271.6,1345.5z M1390.6,1236.7l-48.4,39.9c0.1-0.2,0.2-0.4,0.2-0.6c0.1-0.4,0.3-0.8,0.4-1.2
	c0.1-0.1,0.2-0.2,0.3-0.3c0.1-0.2,12.2-15.6,24-31.6c0,0,0,0,0-0.1c20.8-10.6,24.2-8,24.2-8c0,0,0,0.1,0,0.3
	C1391.4,1235.7,1391.1,1236.3,1390.6,1236.7z" style="fill:#1A1A1A;"/>
</svg>
