<svg xmlns="http://www.w3.org/2000/svg" viewBox="0 0 48 48" width="100px" height="100px"><path fill="#2196f3" d="M27 40c0 1-.48 1.88-1.23 2.42C25.28 42.78 24.66 43 24 43c-1.66 0-3-1.34-3-3 0-1.66 1.34-3 3-3 .36 0 .71.07 1.03.19C26.18 37.6 27 38.7 27 40zM2 18.898l3.55 3.551c10.28-9.908 26.62-9.908 36.9 0L46 18.898C33.762 7.033 14.238 7.033 2 18.898z"/><path fill="#2196f3" d="M39.61,25.29l-3.56,3.56c-1.1-1.05-2.31-1.92-3.59-2.62c-6.53-3.59-14.87-2.71-20.51,2.62l-3.56-3.56 c8.63-8.27,22.27-8.34,30.99-0.21C39.46,25.15,39.53,25.22,39.61,25.29z"/><path fill="#2196f3" d="M33.21,31.69l-3.55,3.55c-1.11-0.99-2.42-1.63-3.79-1.93c-2.6-0.59-5.42,0.06-7.53,1.93l-3.55-3.55 c3.84-3.57,9.25-4.5,13.91-2.77C30.33,29.52,31.87,30.44,33.21,31.69z"/><path fill="#64b5f6" d="M27 40c0 1-.48 1.88-1.23 2.42C25.27 41.04 25 39.55 25 38c0-.27.01-.54.03-.81C26.18 37.6 27 38.7 27 40zM28.7 28.92c1.63.6 3.17 1.52 4.51 2.77l-3.55 3.55c-1.11-.99-2.42-1.63-3.79-1.93C26.52 31.65 27.49 30.16 28.7 28.92zM39.61 25.29l-3.56 3.56c-1.1-1.05-2.31-1.92-3.59-2.62C34.14 25.44 36.02 25 38 25c.47 0 .93.02 1.38.08C39.46 25.15 39.53 25.22 39.61 25.29z"/><path fill="#43a047" d="M48,38c0,5.523-4.478,10-10,10c-5.523,0-10-4.477-10-10s4.477-10,10-10C43.522,28,48,32.477,48,38"/><path fill="#dcedc8" d="M42.492 33.35L36.802 39.051 34.074 36.33 31.951 38.457 36.806 43.301 44.619 35.473z"/></svg>