<svg fill="#000000" xmlns="http://www.w3.org/2000/svg" viewBox="0 0 24 24" width="100px" height="100px"><path d="M 14.5 2.015625 C 13.089844 2.015625 12.117188 2.476563 11.453125 3.097656 C 11.453125 3.097656 7.164063 6.824219 5.851563 8.1875 C 5.304688 8.757813 4.699219 9.808594 4.75 11.238281 C 4.828125 13.496094 8.414063 15.597656 8.453125 15.707031 L 4 19.695313 L 3.953125 19.71875 C 3.953125 19.71875 5.421875 22 8.5 22 C 10.953125 22 13.535156 19.703125 15.8125 17.21875 C 17.441406 15.441406 17.5 13.546875 17.5 13.546875 C 17.5 11.039063 15.683594 9.839844 14.359375 8.71875 L 17.5 5.859375 L 19 3.554688 C 19 3.554688 17.269531 2.015625 14.5 2.015625 Z M 14.875 5.089844 C 15.253906 5.089844 15.628906 5.15625 15.953125 5.234375 L 13.328125 7.613281 C 13.132813 7.308594 13 6.988281 13 6.628906 C 13 5.925781 13.433594 5.089844 14.875 5.089844 Z M 10 6.410156 C 9.988281 6.546875 10 6.628906 10 6.628906 C 10 10.496094 14.5 11.078125 14.5 13.546875 C 14.5 13.546875 14.421875 15.082031 12.601563 15.082031 C 10.785156 15.082031 10 14.3125 10 14.3125 L 9.601563 14.675781 C 9.472656 14.488281 6.53125 12.929688 6.328125 11.238281 C 6.15625 9.808594 6.898438 9.265625 7.375 8.789063 C 8.023438 8.144531 10 6.410156 10 6.410156 Z M 9.25 17.386719 C 9.25 17.386719 10.550781 18.082031 12.648438 18.15625 C 11.234375 19.378906 9.523438 20.640625 8.5 20.640625 C 7.429688 20.640625 6.714844 20.167969 6.203125 19.839844 Z"/></svg>