<svg xmlns="http://www.w3.org/2000/svg" viewBox="0 0 48 48" width="50px" height="50px"><path fill="#546E7A" d="M6 8H42V34H6z"/><path fill="#BBDEFB" d="M8 10H40V31H8z"/><path fill="#3F51B5" d="M16.034 19H23V23H16.034z"/><path fill="#3F51B5" d="M12 21L18 16 18 26zM26 19H32.966V23H26z"/><path fill="#3F51B5" d="M37 21L31 16 31 26z"/><g><path fill="#B0BEC5" d="M23 34H25V39H23zM6 40H42V42H6z"/></g><path fill="#0097A7" d="M33,42c0,1.104-0.896,2-2,2H17c-1.104,0-2-0.896-2-2v-2c0-1.104,0.896-2,2-2h14c1.104,0,2,0.896,2,2V42z"/></svg>