<svg fill="#000000" xmlns="http://www.w3.org/2000/svg" viewBox="0 0 24 24" width="300px" height="300px"><path d="M 12 2 L 3 6 L 3 15 L 7.046875 17.453125 C 7.277344 20 9.394531 22 12 22 C 14.605469 22 16.722656 20 16.953125 17.453125 L 21 15 L 21 6 Z M 12 4 L 17 6.222656 L 14.015625 7.882813 L 13 7.226563 L 13 4.6875 L 11.003906 5.691406 L 11 4.445313 Z M 10 4.890625 L 10.011719 7.308594 L 12 6.3125 L 12 7.773438 L 13.019531 8.429688 L 12 9 L 7 6.222656 Z M 5 8.65625 L 10 11.433594 L 10 16.53125 L 5 13.5 Z M 19 8.65625 L 19 13.5 L 14 16.53125 L 14 11.433594 Z"/></svg>