<svg fill="#000000" xmlns="http://www.w3.org/2000/svg" viewBox="0 0 26 26" width="300px" height="300px"><path d="M 21.316406 5.195313 C 22.066406 4.269531 22.722656 2.40625 22.605469 1.890625 C 22.496094 1.371094 21.023438 0.828125 20.164063 0.464844 C 18.96875 -0.078125 17.355469 -0.0625 16.320313 0.101563 C 15.292969 0.269531 14.105469 0.941406 13.023438 1.390625 C 12.070313 1.734375 11.460938 2.566406 10.765625 3.222656 C 9.136719 4.675781 7.621094 6.253906 5.992188 7.722656 C 5.675781 8.015625 5.425781 8.113281 5.152344 8.695313 C 4.882813 9.277344 4.367188 11.613281 4.839844 13.0625 C 5.132813 13.964844 5.902344 14.574219 6.421875 15.34375 C 7.054688 16.222656 8.097656 16.699219 8.886719 17.421875 C 9.089844 17.53125 9.113281 17.945313 8.910156 18.0625 C 7.371094 19.277344 5.632813 20.183594 4.140625 21.449219 C 3.621094 21.828125 3.644531 22.535156 3.441406 23.101563 C 3.394531 23.820313 3.164063 24.855469 4.050781 25.171875 C 4.972656 25.441406 5.925781 25.644531 6.851563 25.871094 C 8.210938 25.960938 9.585938 26.121094 10.921875 25.851563 C 12.453125 25.535156 13.113281 25.441406 14.0625 24.8125 C 15.214844 24.050781 16.300781 23.167969 17.273438 22.175781 C 18.175781 21.269531 19.277344 20.40625 19.914063 19.257813 C 20.5625 18.089844 21.027344 17.53125 21.207031 16.042969 C 21.386719 14.539063 21.183594 12.898438 20.347656 11.589844 C 19.511719 10.28125 17.046875 8.683594 17.046875 8.421875 C 17.050781 8.167969 19.917969 6.277344 21.316406 5.195313 Z M 4.882813 21.761719 C 5.585938 21.175781 6.398438 20.703125 7.144531 20.160156 C 8.140625 19.527344 9.042969 18.714844 10.105469 18.171875 C 9.992188 18.667969 9.902344 19.1875 9.835938 19.683594 C 7.867188 20.816406 6.332031 22.511719 4.457031 23.777344 C 4.5 23.121094 4.296875 22.265625 4.882813 21.761719 Z M 11.351563 25.121094 C 8.859375 25.773438 4.71875 24.941406 4.65625 24.605469 C 4.578125 24.148438 5.769531 23.664063 6.308594 23.214844 C 7.480469 22.265625 8.59375 21.199219 9.945313 20.496094 C 10.3125 20.273438 10.71875 20.496094 11.058594 20.632813 C 12.410156 21.242188 13.925781 21.46875 15.394531 21.289063 C 16.1875 21.109375 16.980469 20.902344 17.75 20.699219 C 15.894531 22.46875 13.953125 24.4375 11.351563 25.121094 Z M 17.273438 16.316406 C 16.839844 17.148438 15.9375 17.742188 14.988281 17.71875 C 13.699219 17.558594 12.386719 17.328125 11.125 17.058594 C 10.695313 16.949219 10.3125 17.171875 9.925781 17.308594 C 9.089844 16.453125 8.003906 15.910156 7.144531 15.074219 C 6.421875 14.371094 5.769531 13.582031 5.425781 12.628906 C 5.246094 11.769531 5.3125 10.890625 5.539063 10.054688 C 5.675781 9.535156 5.722656 8.949219 6.171875 8.5625 C 7.824219 7.089844 9.269531 5.417969 11.058594 4.109375 C 10.558594 5.554688 10.96875 7.160156 11.753906 8.449219 C 13 10.390625 14.765625 11.929688 16.640625 13.265625 C 17.65625 13.878906 17.972656 15.34375 17.273438 16.316406 Z M 16.640625 7.746094 C 15.871094 8.152344 15.285156 7.316406 15.101563 6.6875 C 14.648438 5.824219 15.191406 4.832031 15.960938 4.382813 C 17.316406 3.359375 20.363281 4.46875 20.460938 4.722656 C 20.554688 4.972656 18.019531 6.886719 16.640625 7.746094 Z"/></svg>