<svg xmlns="http://www.w3.org/2000/svg" viewBox="0 0 48 48" width="100px" height="100px"><path fill="#78909C" d="M6,21v10c0,2.209,1.791,4,4,4h28c2.209,0,4-1.791,4-4V21H6z"/><path fill="#455A64" d="M42,21c0,2.209-1.791,4-4,4H10c-2.209,0-4-1.791-4-4l3-11c0.623-1.933,1.791-4,4-4h22c2.209,0,3.459,1.667,4,4L42,21z"/><path fill="#64DD17" d="M35 28A2 2 0 1 0 35 32A2 2 0 1 0 35 28Z"/><path fill="#B0BEC5" d="M23 35H25V40H23zM6 40H42V42H6z"/><path fill="#FFEB3B" d="M12 28A2 2 0 1 0 12 32 2 2 0 1 0 12 28zM19 28A2 2 0 1 0 19 32 2 2 0 1 0 19 28z"/><path fill="#90CAF9" d="M27.272,11h-6.545C15.907,11,12,13.181,12,18c0,0,0,1,1,1s4,0,5,0s1-1,1-1v-2c0-1.104,0.896-2,2-2h6c1.104,0,2,0.896,2,2v2c0,0,0,1,1,1s4,0,5,0s1-1,1-1C36,13.181,32.093,11,27.272,11z"/></svg>