<svg xmlns="http://www.w3.org/2000/svg" viewBox="0 0 48 48" width="300px" height="300px"><path fill="#2196F3" d="M24 37A3 3 0 1 0 24 43 3 3 0 1 0 24 37zM2 18.898l3.55 3.551c10.28-9.908 26.62-9.908 36.9 0L46 18.898C33.762 7.033 14.238 7.033 2 18.898z"/><path fill="#2196F3" d="M8.39,25.291l3.559,3.561c6.753-6.384,17.351-6.384,24.104,0l3.559-3.561C30.896,16.948,17.104,16.948,8.39,25.291z"/><path fill="#2196F3" d="M14.788,31.691l3.55,3.552c3.222-2.867,8.102-2.866,11.325,0l3.549-3.55C28.025,26.873,19.973,26.874,14.788,31.691z"/></svg>