<?xml version="1.0"?><svg fill="#000000" xmlns="http://www.w3.org/2000/svg" viewBox="0 0 30 30" width="500px" height="500px">    <path d="M15,3C8.373,3,3,8.373,3,15c0,6.627,5.373,12,12,12s12-5.373,12-12C27,8.373,21.627,3,15,3z M17.647,23.603 c-0.098,0.03-0.197,0.044-0.294,0.044c-0.428,0-0.823-0.277-0.956-0.707c-0.162-0.528,0.135-1.087,0.662-1.25 c2.219-0.682,3.95-2.413,4.631-4.631c0.162-0.527,0.716-0.823,1.25-0.663c0.527,0.162,0.824,0.722,0.662,1.25 C22.727,20.499,20.5,22.726,17.647,23.603z"/></svg>