<svg xmlns="http://www.w3.org/2000/svg" viewBox="0 0 48 48" width="50px" height="50px"><path fill="#CFD8DC" d="M36,7H8c-2.209,0-4,1.791-4,4v17c0,2.209,1.791,4,4,4h28c2.209,0,4-1.791,4-4V11C40,8.791,38.209,7,36,7z"/><path fill="#78909C" d="M5.088,8.273c-0.461,0.491-0.795,1.098-0.961,1.773L22,23l17.873-12.953c-0.166-0.676-0.5-1.282-0.961-1.773L22,20.53L5.088,8.273z"/><path fill="#F44336" d="M44,31c0,5.523-4.477,10-10,10s-10-4.477-10-10s4.477-10,10-10S44,25.477,44,31"/><path fill="#FFF" d="M32.5 24H35.5V33H32.5zM32.5 35H35.5V38H32.5z"/></svg>