<svg xmlns="http://www.w3.org/2000/svg" viewBox="0 0 48 48" width="50px" height="50px"><path fill="#bbdefb" d="M44,24c0,11.044-8.956,20-20,20S4,35.044,4,24S12.956,4,24,4S44,12.956,44,24z"/><path fill="#3f51b5" d="M24 35c-4.262 0-7.953-2.445-9.777-6H17l-4-5-4 5h3.02c1.961 4.691 6.586 8 11.98 8 6.133 0 11.277-4.277 12.637-10h-2.063C33.262 31.609 29.023 35 24 35zM24 13c4.262 0 7.953 2.445 9.777 6H31l4 5 4-5h-3.02c-1.961-4.691-6.586-8-11.98-8-6.133 0-11.277 4.277-12.637 10h2.063C14.738 16.391 18.977 13 24 13z"/></svg>