<svg id="Layer_1" data-name="Layer 1" xmlns="http://www.w3.org/2000/svg" viewBox="0 0 932.815 594.105"><title>1</title><g id="Character_chilling" data-name="Character/chilling"><path id="Accent" d="M476.21,238c37.4-3,73,11,102.9,32.7,38.5,28,71.1,68,93.2,110.1,2.3,1.8,4.7,3.7,7,5.5,12.3,10,24.3,20.6,34.9,32.4,5.9,6.6,21.5,22.5,14.8,32.6a11.724,11.724,0,0,1-6.2,4.2c-6.6,2.4-13.5,3.6-20.1,6.3-8.1,3.4-16.4,8.2-21.6,15.5-1.5,2.1-1.9,4.5-3.8,5.4-2.1,1-6,.6-8.3.8-4.6.5-9.2.9-13.8,1.4-10.8,1.1-22.1,1.2-32.7,3.8l-48.7,12c-10,2.5-21.4,3.8-30.8,7.8-14.1,6-27.5,14.9-41,22.1l-19.5,10.5c-3.2,1.7-5.4,1.7-9.1,2l-26.9,2.1c-4.3.3-6.4,2.1-7-2.3l-6.3-47.8-3.3-25.3c-.2-1.5-.1-8.9-1.4-9.8-.8-.6-5.3.6-6.1.8l-12.2,1.5c-8.8,1.1-17.6,2.2-26.4,3.2-.7.1-4.7,0-5.1.6-.5.7.5,4.6.6,5.5.9,8.9,1.9,17.7,2.8,26.6.1,1,1.4,5.8.7,6.6-.5.6-3.8.7-4.4.8q-12.75,2.1-25.5,4.2c-6.1,1-14,.9-19.8,3.2-3.3,1.3-6.6,4.7-9.4,6.8l-41.4,30.5c-6.3,4.6-14.7,3.4-22.4,4l-88.2,6.7c.1-2.7.1-5.5.2-8.2.4-14.5.8-29.1,1.2-43.6l.5-19c0-1.2-.4-4.7.3-5.6,1-1.2,5.7-1.7,7.2-2.1,4.9-1.4,9.7-2.9,14.6-4.3,14.3-4.2,28.6-8.5,42.8-12.7,14.1-4.2,28.2-8.4,42.3-12.5,4.8-1.4,9.7-2.9,14.5-4.3,1.1-.3,5-.8,5.8-1.7,1-1.2.5-6.3.7-7.8.8-7.3,1.9-14.7,3.2-21.9,9.6-52.4,32-105.7,73.6-140.6C406.11,253.6,440.51,240.9,476.21,238Zm6.6,105.1c-3.7-4.3-9.9-11.4-16.4-10.3-5.3,1-8.2,7.5-10.1,11.9-7.4,17.6-9.7,37.8-12.1,56.6-1.5,11.8-2.6,23.6-3.4,35.5,26.5-2,53-4.1,79.5-6.1-1.3-8.4-2.3-17-3.8-25.4-.8-4.2-2.8-8-4.6-11.9C504.01,376.1,495.31,357.8,482.81,343.1Z" fill="#34558b" fill-rule="evenodd"/><path id="Ink" d="M850.71.2h.6c17.6.5,33.1,11.8,45.1,23.8,5.9,5.9,11.4,12.9,13.9,21,2.9,9.4,2,19.7-.3,29.1-5,20.8-11,41.6-17.8,61.9-3.4,10-8.2,19.7-10.7,29.9-2.1,8.4,6.7,14.5,7,23.1.3,8.7-5.5,16.9-13.6,20-3.4,1.3-7.6.2-10.7,1.6-2.9,1.2-3.9,4.9-4.5,7.7a44.351,44.351,0,0,0-.4,11.5c.1,2.4-.5,6.2.7,8.3.8,1.4,2.2,1.9,3.5,2.9a46.928,46.928,0,0,1,4.3,4.6c2.5,2.6,4.8,4,5.5,7.7.4-.9.7-1.7,1.1-2.6,1.8,3.3,3.2,5,1.4,8.1,5.4-.5,8.6,9.3,10,13,2.6,6.8,4.4,13.9,7,20.7,3.6,9.3,8.2,18.5,10.5,28.3,1.9,8.2,3.4,16.6,5.1,24.9,1,4.7,1.8,9.4,3.5,13.8.7,1.7,1.9,2.9,2.7,4.4,1.1,2.1.7,3.2.7,5.5.1,4.1,2.7,6.8,3.5,10.8.9,4.3,1.6,8.6,2.5,12.8,1.8,8.6,5,17.2,5.8,25.9.9,10.1,2.9,20.1,3.9,30.2.9,8.8-.6,18.3,1.2,26.9,1.6,7.6-.4,14.5-1.1,22.1-.2,1.9,2.8,13.3-2,11.1.9,2.7,2.1,4,2.2,6.9a33.287,33.287,0,0,1-1.2,8.3c-1.1,5.2-1.9,10.8-4.1,15.6-2.5,5.5-6.3,6.1-11.4,8-3.5,1.3-9.7,5.8-12.5,1-1.6,5-4.8,1.5-8.4,1.3a16.676,16.676,0,0,1-2.4.8c-1.3.2-2.7-.4-4-.5a31.571,31.571,0,0,0-9.2.8c-7,1.5-13.8,3.5-21,4.5-13.9,2-27.6,1-41.6,1.9-27.3,1.7-55.1.3-82.5-.5-2.9-.1-6.1.3-9-.1-3.1-.5-3.8-2-6.2-3.4-4-2.5-8.5-.1-12.7.8-12.3,2.6-25.2,2.8-37.6,5.4-25.2,5.2-48.5,15.4-72.6,24-10.5,3.7-22.8,9.8-34.1,10.1-13.7.3-10.5-13.2-7.9-21.9-7.9,2.1-20.3,11.7-28.4,6.1-9.6-6.6,2.6-17.7,3.2-25.5-17.1,3.6-36.6,11.4-53.9,5-3.3-1.2-6.3-3.8-9.8-4.2-3.7-.4-7.7.9-11.5.9-8.6-.1-16.9-1.2-25.5-.1-19.2,2.4-38.1,3.7-57.4,4.2-19.4.5-38.9,1.7-58.4,1.6-9.9,0-19.9-1.2-29.8-.7-3.9.2-12.2,3-14.9-.9-2.7,3.3-5,1.1-8.6,1.4.6-.1-1.8,1.4-2.2,1.5-1.8.7-3.6.5-5.5.5-5.1-.1-9.9,2.3-15,2.1a9.5,9.5,0,0,1-3.4-.9c-.3-.1-.2-1.2-.6-1.3-2.5-.6-1.8,1-3.4,1.7-1.8.9-4.3-.5-3.4,2.1-4.8-.2-9.3,1.4-13.6-1.4,2,4.5-5.1.8-7,.7-3.1-.1-5.8,1.4-8.9,1.8-3.7.4-7.4-1.3-11.1-.2-2.8.8-3.8,2.8-6.8,1.8a10,10,0,0,1-5.3-4.8c-1.7-2.8-1.9-4.1-6-4.1-3,0-6,.6-9.1.6-3.5,0-7.3-.4-10.5,1.3-3.4,1.8-5.4,4.5-9.2,5.9-17.1,6.3-35.9,4.6-53.7,4.5-7.5,0-13.1.6-15.2-7.9-1.8-7.3-2.5-14.8-4.2-22.2-2.1-9-4.4-17.3-9-25.3-4.5-7.8-8.3-15.8-12.2-23.9-8.1-16.8-19.5-31.1-32.1-44.7-4.8-5.2-10.3-11-10.5-18.4-.2-6.4,2.7-13.1,6.4-18.3,3.3-4.6,8.8-9.8,15-8.7,3.7.6,6.2,3.7,9,5.9a32.637,32.637,0,0,0,10,5.5,87.553,87.553,0,0,1,23.1,12,165.9,165.9,0,0,1,21,18.3c12.4,12.8,25.2,26,32.4,42.6a153.74,153.74,0,0,1,6.5,19.5c1.9,6.6,7,4.8,12.8,3.8,7-1.2,14.1-1.8,21.2-2.5,2.7-.3,6.4-.4,8-2.9,1.8-2.8-.3-6.4-.4-9.3a20.258,20.258,0,0,1,.6-4.2c.1-1.7-.4-3.3-.4-5a11.227,11.227,0,0,1,4.6-9.1c5.3-4.2,13.1-6.6,19.4-8.9,8.6-3.1,17.8-4.7,26.7-6.9,10-2.5,20-4.8,30.1-7,9.9-2.2,19.7-4.5,29.7-6.3,5.8-1,12.2-.6,17.9-2.5,6-2,5-8,5-13.4a185.353,185.353,0,0,1,2.4-26.8c2.8-18.6,9.3-36.9,15.3-54.7,5.8-17.2,12.9-33.6,24.7-47.6a207.977,207.977,0,0,1,40.2-35.9c15.2-10.5,32.2-18.1,48.1-27.4-3.5-2.7-7.6-4.9-9.6-9-2.3-4.6-1.3-10.1-1.2-15.1.1-5.6.3-10.5,2.3-15.8,1.1-2.9,5.3-8.4,4.7-11.6-1.1-5.3-12.7-9.2-17-11.4a165.194,165.194,0,0,1-19.6-11.2c-5.9-4.1-11.5-9.1-15.1-15.5a29,29,0,0,1-2.5-5.7c-.7-2.2-.2-2.9-2.4-3.1-3.5-.3-8.8,3.3-11.7,4.8-15.2,8-32,18.8-49.9,18.1-6.5-.3-13.9-2.3-16.2-9.1-3-9,3.3-18.2,8.9-24.7-10.8,1.7-30.9,7-39.4-2.6-5.7-6.4-1.4-16.7,3.4-22.3,6.3-7.4,15.3-11.9,23.7-16.6-10.2-3.9-21.5-6.4-30.5-12.9-8.6-6.2-7.5-15.8-.7-23.2,7.3-7.9,19.9-11.9,29.9-14.8,12.2-3.6,24.4-3.3,37-3.1,22.6.4,42.1,8.8,60.6,21.4a250.077,250.077,0,0,1,28.2,21.9c8.2,7.6,16.9,14.6,24.9,22.3,7.8,7.4,13.9,16.6,22.2,23.5,7,5.9,14.7,14.2,23.6,16.9,9.4,2.8,17.9,7.4,27.4,10.1,10.8,3.1,20,8.3,30,13.2,41.9,20.7,86.9,34.2,131.1,49.1,22.6,7.6,45.4,13,68.4,18.8,11.6,2.9,22.4,4.5,34.3,4a43.656,43.656,0,0,1,8.1.2c2,.3,3.5,1,5.3-.2,2.6-1.7,3.5-6.2,5.1-8.7-8.5-2.6-16.8-5.5-20.7-14.2-2.4-5.5-3.7-11.9-4.8-17.8-.6-3.2-.6-6.4-1.1-9.6-.3-1.8-1.1-3.6-1-5.4-.2,1-6.5-2.3-7.5-2.9-3.5-2.4-4.2-7.1-4.2-11.1,0-4.5,1.4-9.5,4.5-12.9a11.557,11.557,0,0,1,5.3-3.4c1.5-.4,3.5.1,4.8-.3,5.9-1.9,6.5-16.4,7.3-21.7,1.8-11.6,3.7-22.7,7.6-33.9a332.97,332.97,0,0,1,27.5-58.6c9.5-15.9,18.9-35.3,39.7-35.5h.7Zm-180,488.3c-8.4,1.5-16.5,4.4-24.6,7a203.655,203.655,0,0,1-23.1,5.4c-15.5,3.1-31.4,5.8-46.7,9.8-4.3,1.1-6.6,3.7-10.3,5.4-2.8,1.3-5.4,0-8.3-.1-6.3-.2-13.3,1.8-19.4,3.4-14.3,3.6-27,9.9-40,16.9-1.2.6-9,4.2-8.6,5.7.3,1.2,10.3-2,11.9-2.3,8-1.2,15.9-3.8,23.8-5.3,6.5-1.3,13.2-2.2,19.7-3.6,7.2-1.6,22.7-7.1,23.3,4.8.7,12.9-13.6,16.9-22.2,23,1,1.7,14.7-3.8,16.4-4.3,5.9-1.9,11.3-5.3,17.3-6.7,10.4-2.5,9.1,8.9,3.4,14-6.4,5.7-16.9,7.4-20.4,16.1,4.6,1.7,10.7-1.5,14.9-3,5.6-2,11.2-4.1,16.8-6,12.6-4.4,24.6-10.4,37.3-14.6,26-8.6,53.5-11,80.7-12.5-2.4-9.4-5.1-18.7-7.2-28.2-.9-4-1.8-8.1-2.5-12.2-.5-2.8-.1-9.7-2-11.9-2.4-2.7-8.6,1.1-12,1-3.3-.1-5.7-1.8-8.8-2.3C677.01,487.2,673.61,488,670.71,488.5Zm-488.7,54.4c0,4.5-.8,9.9,5.1,10.5,4.8.4,14.1,1,17.9-2.4-3.7-1.8-7.8-2.1-11.7-3.1A47.489,47.489,0,0,1,182.01,542.9Zm97.5-81.8c-1.8,0-4.8,2-6.5,2.6-3,1-6.1,1.9-9.1,2.7-9.2,2.4-21.1,2.8-25.3,12.7-2.1,4.9-3.6,17.6-10.9,17.6-6.5,0-10.4-9.4-15.1-12.8-4.8-3.5-12.4-1.1-17.6.4-5.3,1.5-13.4,3.5-12.8,10.2.4,4.8,1.3,9.2,1.2,14.1-.1,6.2-.6,12.5-.6,18.7,3.7-5.1,6.9-15.2,13.5-17.3s10.4,9.5,12.1,13.9c2.1,5.5,4.8,11.7,5,17.7.1,1.9-1.1,7,.2,8.5,1.2,1.4,5.6.4,7,.2,8.9-.9,17.7-2.1,26.6-2.8,4.6-.4,5.8-1.4,5.4-6.3a48.3,48.3,0,0,1,0-11.4c2.2-17.3,12.8-33.1,30.8-36.1,10.9-1.8,23.5-.5,34.4,1.3,4.2.7,8.7,2.7,13,2.5,3.1-.1,2.1-.3,2.8-3.3a9.478,9.478,0,0,1,3-5.3c1.2-1.1,2.8-.5,4-2,.8-1.1.7-2.5,1.1-3.8.8-2.4,2.2-5.6,5-6.2,4.5-1,9.3,5.1,11.6,8.2,2.4,3.2,3.1,12.8,6.8,14.1,4.4,1.5,9.6-4.3,10.5-7.9,1.2-4.8-.3-10.1-1.1-14.9-.1-.3-.3-3.5-.5-3.7-.6-.6-5.4-.4-6.3-.4-4.2-.2-8.4-.2-12.6-.2-16.4,0-32.5-1.7-48.8-3.4,2.4,3.9,6.4,10.2,2.3,14.3-3.1,3-8.6,1.5-12.5,2.1-5.5.9-14.7,6.1-19.9,2.3-7.3-5.3,1-14.5,3.7-19.6.6-1.1,2.8-4.9,1.8-6.2C280.91,460.3,280.71,461,279.51,461.1Zm-122.3,59.4c-3.8,1.1-7.5,2.2-11.4,3.1-4.5,1-11.5,0-13.7,5-1.7,3.8-.8,9.8.5,13.6,1.5,4.3,5.2,5.4,9.5,5.7,5,.4,10.1-.4,15-1.1a39.38,39.38,0,0,1,6-.8c1.2,0,3.5,1.1,4.6.2,1.4-1.1.5-7.6.4-9.2-.3-3.8-1-7.6-1.2-11.5-.1-2.8.9-6.5-2.3-7.1C162.61,518.1,158.91,520,157.21,520.5Zm302.9-76a47.774,47.774,0,0,1-8.4.8c-1.8,0-3.9-.6-5.5.3-3,1.8-2.5,6.5-2.4,9.4.1,3.5.4,7.1.8,10.7.4,3.4,2.2,8.9-.4,11.8-1.8-2-2.8-8.6-6.3-8.4-3.9.3-2.1,6.5-1.8,8.8,1.9,12.4,4.1,24.7,5.8,37.2.8,5.9,1.9,11.8,2.4,17.7.4,4,.5,7.6,4.9,8.4,4.1.8,8.8-.5,12.9-.6,4.3-.1,6.7-.4,9.2-4.3-5.9-1.3-15.3-.5-18.6-6.8-3.9-7.3,4.3-13.8,8.3-18.8,3.1-3.8,9.4-16.5,15.1-9,2.1,2.7,2.4,6.9,3.5,10,1.7,5.1,3.8,10.2,5.8,15.2,18.6-9.6,37.7-18.3,58-23.7-5.2-8.7-11.6-16.6-15.5-26.1-4.3-10.6-7.9-21.5-12.4-32.1-7,4.1-14.6-5.8-21.6-6.2C483.11,438.1,470.91,442.6,460.11,444.5Zm-110.3,71.6c-3.9,2.3-9.5,6.8-10.5,11.4-1.6,8,7.5,2.6,10.3.9,5.9-3.7,11.7-4.8,18.4-2.6,8.7,2.9,16.7,7.8,26,4.1,4.6-1.8,14.9-5.8,12.1-12.9-1.9-4.9-7.5-.7-10.5,1.1-7.7,4.6-14.2,1.7-21.9-1.6C366.21,513.1,357.51,511.6,349.81,516.1Zm-274.7-41c-3.1,4.4,3.2,3.4,6,3.9,5.8.9,11.7,5.5,10.1,12-1.6,6.4-7.6,10.3-8.8,17-1,5.7,0,13,5.5,16.1,3.1,1.8,9.9,2.5,13,.5,4.8-3.1-1.2-7.7-4.3-9.3-4.2-2-7.6-3.1-5.5-8.5,2.5-6.5,7.4-11.5,7-19-.4-6.2-3.6-13.2-9.6-15.8C84.31,470.3,78.01,471,75.11,475.1Zm422.9-18.9c5.4-.2,5.6,6.2,5.3,9.4-.4,4.4.4,9,.5,13.4.1,5.8,1.3,24.7-8.9,21.9-6.6-1.8-12-8.1-17.3-12.2-4.9-3.7-17.2-8.2-18-15.3-.9-8,8.8-9.5,14.4-10.7C482.01,460.9,489.71,456.5,498.01,456.2Zm-26.1-210.3a106.451,106.451,0,0,0-25,4.9c-5.5,1.9-13.9,3.3-17.7,8-3.3,4-1.9,9.8-3,14.6-1.5,6.5-5.9,5.6-10.3,1.5-5.2-4.8-6.7-8.3-13.9-3.8-14.9,9.4-26.8,23.3-38.6,36.1,9.2,2.8,27.2,3.4,30.2,14.9,1.7,6.3-3.4,10.8-7.9,14.2-5.8,4.4-11.9,8.5-17.6,13.1-5.3,4.3-17.2,21.3-20.6,6.3-2.1-9.3,1.8-18.9.2-28-7.2,11.6-14.5,23.2-21.1,35.2-5.6,10.2-8.9,21.1-11.6,32.4,4.2.3,8.6-1.9,12.7-.6,4,1.2,5.9,5,6.2,8.9.5,6.7-2.6,13.4-4.1,19.8-1.1,4.4-2.3,14.3-7.6,15.8-6.1,1.6-9.9-7.7-12.6-11.6-2.6,4-2.5,9.8-2.9,14.3-.3,3.1-2,9,1.5,10.7,3.3,1.6,10.3-.4,13.8-.6,6.5-.3,13.2-.8,19.8-.6,6.2.2,15.3,3.5,17.7-4.1,1.6-5.2,3.1-23.8,11.9-13.7,3.9,4.5,6.9,9.6,10.7,14.2s7.3,4.9,12.9,4.7c11.2-.5,22.2,1.7,33.2,3.4,9.6,1.5,8.4-6.7,8.2-13.9-.2-11.3,2-23.1,3.2-34.3a338.535,338.535,0,0,1,18-78.3c-7.7-2.6-21.4,7.9-27.1-.1-4.7-6.6,1.3-15.6,3.8-21.8,3-7.7,4.6-15.7,9.5-22.5,1.6-2.1,3.8-5,6.8-4.3,2.6.6,3.6,3.9,5.1,5.8,4.6,5.9,10.6,10.4,14.7,16.9a35.875,35.875,0,0,1,5.3,12.8c.2,1.3-.1,3.9.8,5,2.8,3.3,11.6,3.3,15.5,5.3,13.3,7,18,27.2,23.2,40a61.872,61.872,0,0,1,3.7,11c.5,2.6.5,5.8,1.9,8.1,3,5,12.4.5,17-.2q11.55-1.95,23.1-3.6c4.7-.7,11.6-2.4,15.2,1.8,3.7,4.3,1.6,11.2-.3,15.8-3.1,7.6-7,14.9-10.2,22.4-2.6,6-3.9,13.7-8.8,18.4-4.3,4-11.4,5.2-16.4,1.9-2.9-1.9-10.3-19.9-12.2-19.1,3.5,13.9,8.7,28.1,14.1,41.4,1.7,4.1,4.6,12.4,8.8,14.6,3.5,1.8,11.5-1.6,15.1-2.3,3.4-.6,10.1-3.4,13.4-1.4,3.9,2.5,4.4,9,4.9,13.1.3,3-.3,5.3,3.4,5.1,2.6-.1,5.2-1.4,7.7-2,5.8-1.5,11.7-2.4,17.6-3.4,13.6-2.2,27.1-4.4,40.7-6.6,11.6-1.9,23.1-1.9,33.7-7.4,5.3-2.8,11.5-3.7,17.1-5.5a82.951,82.951,0,0,1,17.1-3.8c12.9-1.5,25.4-3,38.2-5.6,7-1.4,13.9-2.9,20.9-4.5,6.2-1.4,12.1-3.7,18.3-5.1,5.1-1.2,9.3-.3,11.5-6.1,1.6-4.2,1.2-8.8,1.6-13.2,1.8-19.9-5.1-39.9-6.5-59.7-.5-6.4-.6-12.8-1.1-19.2-.2-2.9-.1-11.5-3.5-13.1-.3,2.3-.1,6.3-2.7,7.5,1.3-.6-.4,6.4-.5,7.1-.4,2.8.5,5.7.1,8.4a1.649,1.649,0,0,1-.5,2.2,4.177,4.177,0,0,0-1.1,1.5c0,1.9.5.8.6,1.5.3,6.7-.9,13.6-.4,20.4.5,7.2,2.1,14.3,3.3,21.4,1.1,6.4,2.3,12.8,3.2,19.2.6,4.5,1.1,9.7-1.3,13.8-4.6,7.8-17.9,6.9-25.6,8.2-12.9,2.1-25.8,4-38.7,5.8-5,.7-10,2.3-15,2.3-5.4.1-8.2-2.1-11.6-6-6.8-8-11.2-17-16.9-25.7-3.2-4.9-5.8-6.2-11.2-7.6-5-1.4-9-5-13-8-8.5-6.4-19.5-13.3-25.1-22.6-5.9-9.8,2.4-13.1,10.3-15.8-1.9-5.1-5.7-9.3-8.8-13.7-3.5-5-6.8-10.2-10.6-15.1-7.8-9.8-15.6-19.6-23.1-29.7-6.5-8.6-13-16.7-21.2-23.6-8.3-7-17.5-12.7-26.6-18.5-4.7-3.1-13.1-10.8-19.1-10-5.8.8-8.1,11.6-9.6,16.2-1.7,5.2-2.3,12.5-6.1,16.6-5.7,6-11.6-3.5-14.4-7.9-5-8-10.1-16-15.1-24.1-2.3-3.7-5.6-7.2-6.9-11.3,0-.1-.6-3.6,0-3.1h0c-1.4-1.4-6.7-1.7-8.7-1.9h-.2A54.652,54.652,0,0,0,471.91,245.9Zm-55.7,225.6c-4.8,0-9.5.5-14.3.9-4.2.3-8-.3-12.2-.5-5.2-.3-7.7.2-6.5,5.6.9,3.9,1.9,9,5.9,10.7,5.4,2.2,12.6,1.9,18.3,2.8,4.2.6,8.4,1.2,12.6,1.9,2.8.5,4.2,1,5.5-2.2,1.1-2.6.4-6.2,0-8.9-.3-2.1-.1-5.8-1.1-7.6C423.01,471.2,419.11,471.5,416.21,471.5Zm222.5-53.1c7,6.4,11.7,14.6,17,22.4,3.2,4.7,9.6,12.3,5,18.1-3.9,4.9-13,3.8-18.5,4-8.6.4-15.6,4.3-23.8,6.3-20.6,5.1-3.5-29.6-.6-36.8,2-5.1,4.1-10.1,6.5-15,1.1-2.2,3.3-8.6,6-9.5C634.21,406.5,636.21,416.1,638.71,418.4Zm-177.1-72.9c-3.3,6.3-3.8,14.9-5.4,21.8-4.7,20.9-7.5,42.2-9.7,63.5,10.9-4.3,22.3-4.6,33.8-5.7,8.3-.8,15.9-1.6,24.2-1.3,1.4.1,5.5.8,6.7-.4,1.6-1.6-.3-6.1-.8-7.8-2.5-9.2-3.6-18.8-6.5-27.9-2.9-9.4-6.5-18.7-10.2-27.8-2.8-6.6-6.6-13.1-13.2-16.3C474.61,340.8,465.21,338.6,461.61,345.5Zm-44.7,40.7c4.5,6.7,10.1,12.6,14.5,19.5,3.1,4.8,6.7,13.8-.7,16.8-2.6,1.1-5.7.6-8.4.7-4.2.1-8.4.4-12.7.3-4-.1-8-.6-12-.8-2.5-.1-5.7.1-7.9-1.4-6-3.9-1.6-11.8.3-16.9a148.295,148.295,0,0,1,7.4-15.6c1.8-3.5,4.6-10.8,8.8-12.2C411.11,374.9,414.81,383.1,416.91,386.2Zm216.9-76.4a305.99,305.99,0,0,1,26.4,36.6c3.9,6.2,7.7,12.5,11.5,18.8,2.5,4.1,4.4,9.4,7.4,13.1,6.9,8.5,8.8-10.1,9.9-14.1,3.8-14.9,8.4-29.6,12.6-44.4h-4.2c-16.9,0-33.2-.3-49.6-5.2C643.01,313.2,638.81,310.1,633.81,309.8Zm-35.7,2.9c5.4,4,39.6,27.2,25.2,36.1-3,1.9-7.9,1-11.2,1.3-4.3.3-8.7.8-13,1.5-5.5,1-10.9,2.7-16.4,3.6-4.4.7-10.3,1.5-14.2-1.2-6.5-4.5-2.6-13.4-.4-19.2,3.1-8.2,5.9-19.2,13.5-24,1.8-1.1,3.9-5.2,5.8-5.6C590.31,304.6,595.91,311.1,598.11,312.7Zm189-192.6c-2.6,2-2.7,6.1-3.4,9-2.3,9.7-5.4,19.2-7.3,29.1a103.088,103.088,0,0,0-1.5,28.8c.6,6.5.7,14.5,4.6,20,4.7,6.6,14.1,6.3,21.2,8.2,6.8,1.9,13.6,7.7,6.1,13.8-2.6,2.2-6.1,2.5-8.7,4.6-3.2,2.6-5.1,7.2-6.4,10.9-1.1,3.1-1.1,3.7,2.3,4.8a12.484,12.484,0,0,0,4.7.7c3.7-.3,7-2.7,10-4.6,7.9-4.7,16.9-10.9,26.3-11.6,3-.2,6.4,1,9.3,0,2.7-.9,1.9-1.5,2.4-4,1.9-10,2.6-19.8,7.7-28.9,2.5-4.5,9.2-13.6,13.7-6.7,1.9,2.9,2.5,4.3,6.7,3.4,3.4-.7,7.1-3.4,6.4-7.3-.6-3.7-5.5-6.2-8.4-7.8-3.9-2.1-6.6-1.9-10.9-2.4-11.7-1.4-3.5-18.4-1.8-24.8,1.1-4,2.3-9.2-.5-12.8-4.2-5.5-13.4-3.7-19.2-2.9-8,1.1-16.7,1.7-24.2-2-7.9-3.8-11.3-12.5-18.7-16.7C794.81,119.5,790.01,118,787.11,120.1Zm34.8,70.4c5.5-.1,2.8,7.8,1.3,10.4-3.2,5.6-10,7.7-16,5.7-4.7-1.6-9.8-8.8-2.4-10,3.6-.6,7.1-.3,10.4-2C817.21,193.6,819.71,190.6,821.91,190.5Zm-13.8-41.7c3.4,2.1-2.4,15.4-3.4,18-1.6,4.4-3,7.2,1,10.6,2.8,2.4,8.4,4.4,5.8,9.1-2.5,4.3-10.9,2.5-14.4.4-5-3.1-3.5-9-2.4-13.8C795.41,169.8,802.01,145.1,808.11,148.8Zm-539-87.2a212.027,212.027,0,0,0,32.5,11.3c9.8,2.4,19.4,4.9,29.4,4.4,9.3-.5,10.4,8.6,5.1,15-2.9,3.4-6.2,3.4-10.4,3.5-4.9.2-9.4,1.5-14.2,2.7-7.2,1.9-14.6,3.4-21.6,6.1a55.734,55.734,0,0,0-10.4,5.1c-2,1.4-6.6,3.8-4.2,5.7,3.5,2.7,13.7-1,17.9-1.3,9.6-.6,19.2-1.4,28.7-2.6,4.7-.6,9.7-1.2,14.1-2.9,2.9-1.1,6.1-3.9,9.4-3.2,6.9,1.5,3.5,11.8.3,15.2-4.7,5-11.7,7.2-17.8,10.1-4.2,2-8.4,4.1-12.5,6.3-1.9,1.1-10.9,5-10.6,8,.3,3.1,7.4,1.6,9.2,1.3,11.7-1.9,22.3-6.4,33.1-11.1,4.7-2,9.6-4,14.2-6.2,3.2-1.6,6.4-4,10-4.7,8.4-1.7,8.1,7.7,11.4,12.8,9.9,15.1,29,21.6,43.8,30.4a148.354,148.354,0,0,1,16.1,11.1c3.7,2.8,5.2,6.8,9.3,3,3.4-3.1,5.1-7.7,7.3-11.7,2.6-4.6,6-8.7,8.6-13.3,3.9-6.8,5-13.3-3.5-15.8-8.9-2.6-16-6.5-23.6-12.1-18.6-13.7-34.1-31.2-52.7-45-17.2-12.8-35.5-24.8-57.1-28.2C310.71,52.2,288.21,53,269.11,61.6ZM827.51,160c-.4,3.8-1.4,11.8-6.6,12.1-6.4.4-2.1-19,1.5-21.1C828.21,147.5,827.91,156.8,827.51,160Zm-59.2-1.5c-7.9.7-10.2,9.4-2.3,12.4Zm29.5-7.7c-1,3.9-.7,10.3-3.8,13.3-4.5,4.3-6.4-2-6.4-5.6,0-3.5,1.8-12.4,6.5-12.8C798.11,145.3,794.81,150,797.81,150.8ZM883.51,63c-2.9,6,.2,12,2,17.9-3.6,1.1-8.4.3-10.5,4-1.4,2.4-1.1,6-.7,8.5.3,2.1,2.1,5,.6,6.9-1.9,2.6-6.6,1.4-8.6,4.2-3.2,4.3-1.4,14.2,3,17.5,6.2,4.6,2.5-6.7,2.1-8.7-1-5.1,4.4-4.4,8-6.5,1.9-1.1,2.3-1.3,2.7-3.7a15.062,15.062,0,0,0-.3-6.3c-1.8-8,1.3-6.7,7.7-8.5,5.5-1.5,5-5.9,3.6-10.5-1.1-3.6-4.3-9.5-.8-12.6,1.4-1.2,3.5-.4,3.8-3,.2-1.7-2.1-4.5-3.3-5.5C888.61,53.4,885.21,59.4,883.51,63Z" fill-rule="evenodd"/></g></svg>