<svg id="Layer_1" data-name="Layer 1" xmlns="http://www.w3.org/2000/svg" viewBox="0 0 968.138 768.534"><title>1</title><g id="Character_clumsy" data-name="Character/clumsy"><g id="Accent"><path id="Fill-1" d="M528.081,337.724c-1.1-1.7-3.2-2.5-4.8-3.6.7,1.6.8,2.1.1,3.7-.6,1.2-.9,2.5-1.5,3.7a14.243,14.243,0,0,0-1.2,2.5c-.3,1-.1,2-.5,3,4.4-1.2,8.3-4,12-6.5-.7-.1-2.5-.1-3.1-.6-.4-.3-.5-1.6-1-2.2" fill="#34558b" fill-rule="evenodd"/><path id="Fill-3" d="M633.481,323.024c1.9,1.5,1.9,1.5,2,4.1a3.968,3.968,0,0,1-2-4.1m-92.5,6.7c-.9.1-1.1-2.5-1.3-3.2.3,0,.6-.1.9-.1.4.4,1.9,3.2.4,3.3m132.8,26.2a186.142,186.142,0,0,1,4.8-20.6c1-3.3,2.1-6.6,3.3-9.8,1-2.8,3-5.8,3.4-8.8-3.2,2.9-5.7,6.4-8.5,9.7-2.6,3.1-5.3,6.2-7.8,9.4a8.392,8.392,0,0,0-2,4.5c-.1,1.9,1,3,1.8,4.6a26.035,26.035,0,0,1,1.7,5.4c.4,1.9-.2,2.9-.9,4.6a9.849,9.849,0,0,1-3.7-2.4c-1.1-1.3-2-2.9-3.1-4.3-2.3-3-4.6-6.1-6.8-9.1a129.719,129.719,0,0,1-11.9-19.1c-3.4-6.9-6.5-14-9.9-20.9-.7-1.5-1-3.1-2.9-3.1-1.4,0-2.6.9-3.9,1.2a3.553,3.553,0,0,1-1,.2,1.8,1.8,0,0,1-.2,1c-.3.4-.5.3-.9.2-.6,0-1-.4-1.6-.3a9.973,9.973,0,0,0-2.4.9v-1.9c-2.5,1.3-8.6,5.6-9.9.7-.1.9.1,2.5-.8,3.1-.6.4-1.3,0-1.9.1a14.461,14.461,0,0,0-2.2.9c0-1.3-1.1-1.2-2-1.3-1.3-.2-2.4-.9-3.7-.7s-2.2.8-3.5.1c-.9-.5-1.7-1.1-2.6-1.6a2.589,2.589,0,0,1-1.4-1.7c-.4-1-.3-.8-1.4-.5-2.2.6-3-2-3.4-3.8a14.624,14.624,0,0,1,3-12.4c3.7-4.3,7.5-8.6,12.3-11.7,4.4-2.9,9.1-6.5,14.3-7.9-4.1-9.2-10-17.8-15.2-26.5-1.5.3-2.4,1.2-4,.9-1.3-.2-1.2-.1-1.7,1.2-.4,1.2-.6,1.3-1.8,1.7s-.2-.4-1.1.6c-.4.4-.6.9-1.1,1.2-1.8,1.2-4.1.5-6,1.3-1.3.5-.7,1.2-1.3,2.1-.7,1-1.9.5-2.9.3-2.1-.3-2.7.4-3.1,2.3-.3,1.4-.5,2.2-2.1,2.5-.9.2-2.2-.5-2.8,0-.2.2-.1.8-.2,1.1a3.805,3.805,0,0,1-.9,1.3,7.364,7.364,0,0,1-2.7,1.9c-.9.4-2,.2-2.9.5-1.4.5-1.1,2.1-1,3.3-.8-.2-1-.2-1.5-.8-.2-.3-.1-.7-.5-.9a6.63,6.63,0,0,0-2.7,1.5c-.8,1,0,2.5-.2,3.7s-1.2,2.1-2,3c-.3-.7-.5-1.5-.8-2.2-.4.5-.9.8-1.1,1.4-.1.3.2.7,0,1.1-.4.9-.8.3-1.6.4-.7,0-2.5.5-2.1,1.6.2.7,1.6.5,1.4,1.5-.2,1.2-1.7.4-2.3.6-.8.3-.5,1-.8,1.7-.5,1.2-1.4,1.3-2.5,1.9a4.089,4.089,0,0,0-1.8,2.3c-.6,1.3-.5.9-1.7.8a1.1,1.1,0,0,0-1.4.8c-.2.6.2,1.3,0,1.8-.3.6-1.6,1.4-2.1,2-1.3,1.8-1.8,4-2.9,5.9a20.024,20.024,0,0,1-1.6,2.4c-.8,1-1.3.8-2.3,1.4-1.7.9-1.2,3.3-1.4,4.8a3.6,3.6,0,0,1-.9,2.2c-.3.4-1.6.8-1.3,1.5.3.9,1.3-.1,1.1,1.3-.1,1.1-1.4,2-1.7,3.1-.2.8.1,1.5-.1,2.2a15.452,15.452,0,0,1-1.2,2.2c-.3.8.2,1.8-.1,2.4-.3.7-1.5.5-1.8,1.4-.3,1,.5,2.5.6,3.5.1.6.4,1.3-.1,1.9-.5.4-1.6.4-1.1,1.5.2.5,1,.4,1.1,1.2.1.6-.6,1.5-1,1.9-1,1.1-2.9,2-1.5,3.4.2.2.5.1.7.4a3.707,3.707,0,0,1,.4,1.5,15.934,15.934,0,0,0,1.5,2.9c2.4,3.4,6.4,5,9,8,3.2-3.2,6.5-6.3,9.5-9.7a105.831,105.831,0,0,1,8-8.4c1.5-1.3,3.3-2.3,4.5-3.9,1.2-1.5,1.7-3.4,2.6-5.1,1.8-3.3,4.4-6,6.3-9.2,3.8,2.5,2.2,8.8,1.1,12.3a34.216,34.216,0,0,1-2.7,6.2c-.9,1.7-2.3,3.3-2.7,5.2a4.837,4.837,0,0,0,1.1,4.1c1.3,1.8,2.8,3.5,4.1,5.2,3.3,4.3,6.6,8.5,9.8,12.8,1.2-1.7,3.1-.6,4.7-.3,2.3.5,4.7.3,7,.5,2.5.2,4.9.6,7.4,1,2.2.4.7,1.4,1.8,2.6,2.2-4,6.5-1.5,10-1.1,2.2.2,4.5.1,6.6.4,2.2.3,4.3,1,6.5,1.2,4.2.4,8,1.9,12.2,2.6,2.2.4,4.4.7,6.6,1.1.8.1,2.1.2,2.6,1,.5.9-.5,2.9-.8,3.8-.4,1.3-.7,3.2-1.6,4.3-.7.8-.8.3-1.7.3-1,0-.6.2-1.3.9a4.474,4.474,0,0,1-3.2,1.1,4.433,4.433,0,0,0-2,.3c-.6.5-.1.6-.1,1.4-.1,1.4-2,2.4-3.1,3a4.656,4.656,0,0,1-2.3.6c-.5,0-1.1-.5-1.6-.3-.7.3-.7,1.7-1.1,2.3-.8,1.1-1.8.3-2.9.8-1.2.7-1.9,2.2-3.1,3-2.3,1.5-5,1.7-6.1-1.2-.5,1-1.6,2.4-1.1,3.4a4.754,4.754,0,0,0,2.3,1.9c2.3,1.2,4.5,2.5,6.7,3.9,5,3.2,9.8,6.7,15.1,9.4,5.3,2.6,10.8,5.4,16.6,6.6a29.553,29.553,0,0,0,17.6-2,8.892,8.892,0,0,1-1-4.6c0-1.8-.1-3.6-.1-5.3,0-3.5,0-7.1.1-10.6a166.365,166.365,0,0,1,2.5-21.1" fill="#34558b" fill-rule="evenodd"/><path id="Fill-13" d="M736.681,350.824a38.745,38.745,0,0,1-1.3-5.9c-.1-1.4.4-3.6-.4-4.8-.4-.5-1-.7-1.2-1.4-.2-.5.1-1.5,0-2.1a20.44,20.44,0,0,0-1.3-4.2c-1.2-3.1-1.3-6.3-2.3-9.5-.6-1.7-1.6-3.2-2.2-4.9a19.528,19.528,0,0,1-1-4.8,44.29,44.29,0,0,0-.6-5.1c-.4-1.6-.9-3.1-1.2-4.7a88.613,88.613,0,0,0-3.1-11.2c-.5-1.4-.9-3.7-2.1-4.6-.9-.7-2.1-.5-3.1-.4-1.2.1-2.1.1-2.9,1.1a33.747,33.747,0,0,1-2.8,3.8,41.192,41.192,0,0,0-3.7,3.5c-.8,1-.4,1.4.5,2.2-1.2.2-2.1-.2-3,.7a15.487,15.487,0,0,0-2.1,3.5,21.017,21.017,0,0,0-1.7,7.4c-.3-.5-.7-1-1-1.5a4.415,4.415,0,0,1-2.2,2.8c-1.5.6-1.4.4-1.4,2,0,2.4-2,3.8-3.2,5.6a13.182,13.182,0,0,0-1.8,3.3c-.6,1.4-.2,2.4-.1,3.9.2,2.2-1.9,3.9-3.2,5.5a3.528,3.528,0,0,0-.8,1.3c-.2.4.1.7-.3,1.2-.6.9-1.9.6-2.3,1.7-.5,1,.2,2,.3,2.9.2,1.5-.8,3-1.3,4.4a19.1,19.1,0,0,0-1.2,4.7,13.129,13.129,0,0,0-.1,2.8c0,.4.4,1.5.1,1.9-.4.5-1.2-.1-1.5.5-.7,1.2,1.9,1.5,2.4,1.7a7.607,7.607,0,0,0-1.9,1.2c-.6.7-.2,1.1-.5,1.9-.3.9-1.3,1.1-1.7,1.9-.3.8.3,1,.7,1.6.8,1.6.1,4-.2,5.6-.1.7-.1,2.4-.5,2.9-.3.3-.8.2-1.1.5-.5.6,0,.8.2,1.5a5.7,5.7,0,0,1,0,2.6,23.4,23.4,0,0,0-.9,2.4c-.2.9.3,1.2.6,2.1.7,1.9.2,4.2,0,6.1-.3,2.2.5,4.3-.1,6.4-.6-.3-1.2-.5-1.9-.8l.6,3,.3,1.5c-.1.6.1.9.6.8,1.1.3,2.7-1.4,3.6-1.9,2.7-1.5,5.5-2.6,8.3-3.9,2.9-1.3,5.3-3.2,7.9-4.9,2.7-1.8,5.5-3.3,8.2-5.1,11.4-8.1,23.7-14.9,35.6-22.2-3.5.2-4.1-4.2-4.7-6.5" fill="#34558b" fill-rule="evenodd"/><path id="Fill-17" d="M750.681,258.924c1.8.5,1.4,2,.7,3.3-.7-.6-1.9-1.4-2.2-2.3-.4-1.1.5-1.3,1.5-1m49.8,44.6a10,10,0,0,1-.5,2.6c-.3.3-2-.1-2.4-.1a11.415,11.415,0,0,0-3.7.5c-2.2.6-2.6-.8-2.7-2.9-1.7,3.4-4.6,5.1-8.2,5.8a42.934,42.934,0,0,1-5,.7,17.544,17.544,0,0,1-3.9-.3,14.273,14.273,0,0,1-2.2-.8c-1.6-.3-.2.9-1.3,1.2-.3.1-1.4-.4-1.9-.4a14.719,14.719,0,0,1-2.1,0c-1.6-.1-2.1-1-3.4-1.7a2.292,2.292,0,0,0-1.8-.2c-.8.1-.2.4-1.1.2-.3-.1-.8-.4-1.1-.5a14.361,14.361,0,0,1-4.4-2.8c-1-1-2.2-1.7-3.2-2.6-.4-.4-.5-.8-.9-1.2-.4-.5-.4-.4-.9-.7a3.483,3.483,0,0,1-1.4-1.3,9.857,9.857,0,0,1-.7-3.8,19.662,19.662,0,0,1,2.4-11.4c2.1-3.9,3.9-8.1,6.4-11.8a78.781,78.781,0,0,1,7.8-9.5,20.616,20.616,0,0,1,2.6-2.5,19.832,19.832,0,0,0,2-1.1c1.4-1.1.7-3.1.7-4.7.4.8,1.1,1.9,2.2,1.7.7-.2.7-.9,1.2-1.2a5.067,5.067,0,0,1,1.3-.2,203.867,203.867,0,0,0-6.5-24.4q-11.1,10.8-21.9,21.9c-3.7,3.8-7.1,7.9-10.8,11.8l-11.7,12c1.1,1,2.3,1.7,3,3a23.489,23.489,0,0,0,2.3,3.2c2.1,2.3,3.1,5.8,4.3,8.7a1.942,1.942,0,0,1,.3,1.2c0,.3-.4.6-.4,1a1.433,1.433,0,0,0,.5,1.1c.3.3,1,.7,1.1,1.2s-.5.9-.6,1.4c-.8,2.2,1.8,3.7,2.7,5.4a2.586,2.586,0,0,1,.1,2.8c-.5.8-1.6,1.1-1,2.2.4.7,1.4.3,1.3,1.3-.1.5-1.1,1-.1,1.6.8.5,1.7-.4,1.4,1.1-.2.7-1.1,1.3-.8,2.1.2.7,1.5.8,2.1,1.4a6.855,6.855,0,0,1,1.1,2.8,91.768,91.768,0,0,0,1.9,9.1c.5,2.1-.8,2.1-2.6,2.1,1.2,1.7,2.5,3.5,3.8,5.2s1.6,4.2,2.3,6.2c.7,2.4,1.5,4.8,2.2,7.2a5.324,5.324,0,0,1,.1,3.3,3.412,3.412,0,0,0-.3,2.6c5.8-3.3,11.2-7,16.7-10.8,2.6-1.8,5.3-3.6,7.8-5.5,2-1.5,4.1-3,5.4-5.2,3-5.1,7.5-9,11.6-13.3,2.1-2.2,4-4.9,6.5-6.5s5.1-3,7.5-4.6a15.174,15.174,0,0,1-3.1-3.6" fill="#34558b" fill-rule="evenodd"/><path id="Fill-35" d="M617.881,371.524c2.4-1.1,4.5-2.6,6.8-3.9,2-1.1,3.8-1.6,5.5-3.1a9.8,9.8,0,0,1,2.2-1.3,15.1,15.1,0,0,0,2.8-2.2c-2.4-.9-4.8-2.4-7.4-2.4a20.554,20.554,0,0,1-3.5.2,7.459,7.459,0,0,1-3.1-1.5c-1.7-1.3-2.5-1.1-4.4,0a3.465,3.465,0,0,1-1.6.8c-.9,0-.7-.6-1.1-1.2-.3-.6.1-.6-.5-.6-.4,0-.6.5-1,.6-.8.2-2.3-.6-3.2-.8a16.117,16.117,0,0,0-3.8.1,9.594,9.594,0,0,1-4.1-.7c-1.2-.4-2.4-1-3.6-1.4-1.6-.5-1.9.1-3.4.5-2.2.5-4.4-2.7-6.4-1,3,4.4,7.1,8,10.9,11.7q3,3,6.3,5.7c1,.8,2,1.6,3.1,2.4.5.4.9.7,1.4,1.1.8.6.8.8,1.5.5,1.1-.5,1.9-1.5,3-2,1.3-.6,2.5-1,3.6-1.5" fill="#34558b" fill-rule="evenodd"/><path id="Fill-37" d="M619.381,276.124c.1,2,1.3,3.6-.4,5.2-.1-1-.1-1.9-.2-2.9,0-1-.5-2.1.6-2.3m-1.9-8.6a2.911,2.911,0,0,1-1.5,1.9c-1.2.6-2.8-.4-3.6.5s-.7,3-1.8,3.7c-.3.2-.7.1-1.1.4-.3.3-.4.9-.7,1.2-.6.4-1.1,0-1.6.2-.6.3-.7,1-.9,1.6s-.2,1.4-.6,1.8c-.5.6-1.8,1-2.4,1.4-2.4,1.5-4.7,2.9-7.1,4.4.7.7,2.3,1.5,2.4,2.6.1.7-.4.8.2,1.4.3.3,1.2.5,1.5.7a15.866,15.866,0,0,0,4.1,1.6c1.7.4,3.5.2,5.2.6a20.241,20.241,0,0,0,5.5.7c1.6,0,3.1-.5,4.7-.6,3-.3,6.8,0,9.3-2.1a18.833,18.833,0,0,0-1.3-5.8c-.7-1.9-1.5-3.8-2.2-5.6a91.228,91.228,0,0,0-5.1-11c-.4,2.5-1.4-.8-2.3-.8-.5-.2-.5.7-.7,1.2" fill="#34558b" fill-rule="evenodd"/><path id="Fill-45" d="M782.281,294.724a15,15,0,0,1,3.6,1.1c.9.4,1.3.6,2-.1.4-.4.5-1,1.1-1.3a4,4,0,0,1,1.9-.2c1.5-.1,3-.1,4.4-.2-1.7-1.6-3.4-3.3-5.1-4.9-.3.5-1,2.1-1.5,2.2-.2,0-.6-.5-.9-.5a1.445,1.445,0,0,0-.7.2c-.6.3-.9.9-1.6,1.1a5.5,5.5,0,0,1-2.2-.2c-.2.8-.7,2-1,2.8" fill="#34558b" fill-rule="evenodd"/><path id="Fill-47" d="M780.181,273.524c.3-1.2-.3-2.5-.1-3.7-.1-.2-.3-.4-.4-.6a8.108,8.108,0,0,1-1,2.1c-.4.6-1,1-1.2,1.7-.5,1.2.1,2.1.7,3.2.7-.9,1.7-1.5,2-2.7" fill="#34558b" fill-rule="evenodd"/><path id="Fill-51" d="M770.081,276.224c-1,0-.6.5-.8,1.3a3.1,3.1,0,0,1-.6,1.3c-.5.8-1.8,1.7-1.1,2.8.6.9.7-.2,1.2.2.5.5-3,4.1-3.6,4.3-.3.1-.6-.2-.9,0a12.638,12.638,0,0,0,.1,2.7c0,1.1-.1,2.3.8,3.1,1.1.9,2.8,1,4.1,1.5a14.452,14.452,0,0,0,2.6,1.1c1,.3,1.8-.3,2.6-.2a21.754,21.754,0,0,1,2.5,1.4c.8.4,1,.5,1.8.2a4.171,4.171,0,0,0,1.6-.9c.5-.6.1-.6.2-1.4.1-1.5,1.7-1.3,2.7-1.7-2.1-.6-3.2-2.9-4.3-4.7a10.679,10.679,0,0,1-1.6-2.7c-.3-1.1.5-1.9,1-2.8-.7.3-3.4,1.5-2.1.1.4-.5,2.9-1.2,1.9-2.4-.6-.7-1.4.8-2.1.6-.8-.2-1.8-1.6-2.5-2-.9-.6-2.5-1.9-3.5-1.8" fill="#34558b" fill-rule="evenodd"/><path id="Fill-5" d="M518.981,318.224a39.536,39.536,0,0,1,1.6-10.3c2.1-6.9,6.5-12.9,7.9-20,.7-3.4.5-6.9,1.1-10.3a67.057,67.057,0,0,0,.8-11c.1-3.6.3-7.2.2-10.8,0-1.3-.4-3.1-.1-4.3.3-1.1.7-.7,1.6-1-.6-.4-1.9-.6-2-1.4-.1-.5.4-1.1.4-1.7a5.732,5.732,0,0,0-.4-1.4c-.8-2.5-1.9-6.4-.5-8.8-.9-.1-1.2-.4-2,0a15,15,0,0,0-2.5,1.9,52.04,52.04,0,0,0-4.3,3.7,107.022,107.022,0,0,0-6.8,8.3c-2.2,2.8-4.5,5.6-6.7,8.4-1.8,2.2-4.5,5.4-7,2.5-.7,1-1.2,2-2.4,2.4a6.715,6.715,0,0,0-3.1,2.4c-.2.3-.8,1.3-1.1,1.4-.6.2-.2-.2-.7-.5-.7-.4-1-.7-1.3.5-.1.5.2,1.1-.1,1.6-.2.5-1,1-1.5,1.3a21.853,21.853,0,0,1-3.4,1c-1.9.6-3.1,3.5-5.2,2.1-.8-.5-1.4-1.3-2.3-.8-.7.4-.9,1.4-1.9,1-.6-.2-1-.9-1.7-1.2a7.006,7.006,0,0,0-1.4-.3,17.681,17.681,0,0,1-3.2-.4c-2.2-.7-3.8-2.7-5.3-4.4-1.1-1.2-.8-2-.5-3.6.3-1.3.5-2.7.9-4a33.7,33.7,0,0,1,2.8-7.7,52.132,52.132,0,0,1,5.6-7.7c4.1-5.1,8-10.6,12.4-15.4.8-.9,2.3-1.9,2.1-3.3-.2-1.5-1.9-.8-3-.5-2.8.7-5.5,2.1-8.2,3.1-1.5.6-3.5,1.7-5.1,1-1.5-.7-3.9-2.6-3.1-4.4a13.013,13.013,0,0,0,1.7-3.8c.3-1.4.5-2.7.8-4.1.7-3.2,1.5-6.4,2.5-9.6,1.8-6,4.1-11.9,6.1-17.9-8.3.7-15.9,3.2-23.6,5.9.4.8,1.1,1.8.8,2.7-.3,1.1-1.8.7-2.2,1.5-.4.9.9,1.4.5,2.5a14.15,14.15,0,0,1-1.8,2.9c2.6,1.6,1.6-1.8,3.3-2,.5,2.7-.6,4-1.7,6.3-.9,2,1.2,1.8,1.7,3.4-1.2.2-2.1-.4-2.6,1.1-.2.6.1,2.9-.6,3-.5,0-.4-1-.8-1-.6-.1-2,1.9-2.3,2.3a10.21,10.21,0,0,1,3.8.7c-.9.9-1.9,1.8-2.8,2.7.9.4,2.4.4,2.8,1.4.4.9-.2,2.6-.3,3.5.4-.6.9-1.9,1.5-2.3.8-.5,1,0,.9,1-.1,1.9-2.6,1.8-3,3.3s1.8.5,1.9,2c0,.9-1,1.6-.5,2.5a3.8,3.8,0,0,1-1.9-2.2c-.4,1.5-1.3,4-.8,5.6.4,1.3,1.3,1,.3,2.3-.4.5-.9.8-.9,1.5,0,1.5,2.1,2.6.4,3.9-.6.5-1.3.6-1.6,1.5-.3.8,0,1.8-.2,2.6a9.026,9.026,0,0,1-2.9,4c-1.1,1-2.1,2.2-3.2,3.1a5.706,5.706,0,0,0-1.3,1.4c-.2.3,0,.5-.2.8a2.232,2.232,0,0,1-1.4.3c-1.3.3-2.8.8-3.3,2.2-1.6-1.2-3.2.3-4.7.7a2.809,2.809,0,0,1-2.2-.1,2.724,2.724,0,0,0-2.5-.5c-3.8.5-6.9-3.4-9.1-6.1a15.154,15.154,0,0,1-2.8-6.8,80.85,80.85,0,0,1-1.2-8.6,154.424,154.424,0,0,1-.1-18,138.649,138.649,0,0,0-19.9,13.4c-6.3,4.8-11.7,10.8-17.3,16.4,1.4.1,2.8.6,4.3.6a5.222,5.222,0,0,0,2.1-.4,8.794,8.794,0,0,0,1-.6c.3-.5.6-.6,1.1-.3,1.4-.1,2.7-.4,4.1-.6,1.8-.3,3.7.3,5.5.6,3.3.6,6.8.2,10,1.2,2.8.9,5.7,2.2,8.4,3.3,2.6,1.1,4.8,3.6,7,5.3,1.3,1,2.6,1.4,4,2.3,1.3.8,2.3,2.5,3.2,3.7,2.2,2.8,4.6,5.5,6.8,8.3a14.225,14.225,0,0,1,2.4,4.1c.3.8.3,1.6.6,2.4a4.569,4.569,0,0,0,1.1,1.6c1.3-3.6,2.6-7.3,4-10.9.5-1.4,2.9-8,4.8-5.5,1.6,2.2.7,6.7.2,9.1-.7,3.3-1.4,6.5-2.2,9.8-1.5,6.5-2.8,13-4.6,19.4a6.429,6.429,0,0,0-.4,1.3c-.1.7-.3.3.2.8.3.3.9.2,1.1.5.5.6.3,2.6.3,3.3-.1,1.3-.8,1.9-1.2,3.1-.3,1,.2,2.1.2,3.1,0,2.6-1.3,5.4-1.8,8-.3,1.6.6,4.2-1.6,4.5.6,1-.1,1.4-.6,2.1a13.586,13.586,0,0,0-1.1,2.8c-.3.9-.9,1.5-1,2.4-.1.8.3,1.6,0,2.4-.3,1-.9,1.1-1.8,1.5-.8.4-.6-.1-.8.7a8.533,8.533,0,0,0,0,1.6c-.4,1.9-1.9,3.2-3.1,4.5-.5.5-1.1,1.7-1.7,2-.8.4-2.1-.3-2.9.1-.7.4-1.5,3.4-1.7,4.2-.6,1.6-1.1,3.2-1.6,4.7-1.9,5.8-3.9,11.6-5.8,17.4.9,0,2.5-1,3.3-.6,1,.5.4,1.9.7,2.6.3.5,1.9.5,2.6.5a7.173,7.173,0,0,0,2.9-.6c1.9-.6,4.4-.4,6.4-.6,4.5-.5,9.1-.6,13.5-1.6,4.2-.9,8.2-2.5,12.4-3.7-1.9-1-2.3-3.5-2.8-5.4a8.486,8.486,0,0,0-1-2.8,14.193,14.193,0,0,1-1.7-3.5c-1.7-4.8-1.8-10.7-1.2-15.7a65.132,65.132,0,0,1,10.4-28.3,77.8,77.8,0,0,1,9.2-11.4c3.5-3.6,7.1-7.4,11.2-10.3,1.9-1.3,4-1.8,5.7-3.3,1.2-1.2,3.2-1.4,4.8-2.3a21.035,21.035,0,0,1,6.4-2.6c1.8-.4,3.8-1.3,5.6-1,1.3.2.8.7,1.5,1.3,1,.8.6-.3,1.4-.6.6-.2,1,.4,1.5.5.2.1,1.3.1,1.2,0,.6.3.5,1.5.8,2.1s.9,1,1.1,1.7a2.89,2.89,0,0,1-.3,2.4c-.4.9-1.1,1.3,0,2.1-2.6,1.7-1,5.1-2.9,7.2-.7.7-2.2,1.7-2.1,2.8,0,1.2,2.1,1.6,1.1,2.8-1,1.1-3.1.6-4.3,1.5-1.2,1-.8,2.6-.9,3.9-.1,1-1.1,2.2-.7,3.2.3.6.7.5.8,1.2,0,.6-.5,1.3-.6,1.9l-1.3-.6a20.156,20.156,0,0,0-.7,2.3,5.45,5.45,0,0,0,.5,2.2c.2.8-.3,2.3-.3,3.3a5.284,5.284,0,0,1-1,3.2c-.5.5-1.1.6-1.6,1s-.6.9-1,1.4a18.66,18.66,0,0,0,2.2-.7,5.806,5.806,0,0,1-1.8,3.1c-.2-.8-.3-1.6-.5-2.5a5.528,5.528,0,0,0-.7,2.5c0,.8.4,1.6.4,2.4,0,1.6-1.2,2.6-.7,4.2a6.365,6.365,0,0,1,.1,4.7,22.472,22.472,0,0,0-1.3,5.1c-.1,2,.8,3.7.6,5.7-.1.9-.5,1.6.6,1.7.9.1,1.9-.7,2.7-1.1,4-1.9,7.9-3.8,11.8-5.7-.7-1-.6-1.1-.1-2.3.3-.9.7-1.9,1-2.8.7-2,1.5-4,2.2-6,1.4-3.7,3.3-7.4,4-11.4.8-3.1.5-6.7.5-10.3" fill="#34558b" fill-rule="evenodd"/><path id="Fill-7" d="M277.581,605.824c-1.3-.8-2.6-1.6-3.9-2.5.8-.6,1.5-1.2,2.3-1.7.8-.6,1.2-1.2,1.7,0,.4,1.3-.2,2.8-.1,4.2m-1.7-9.5c1.8,2.1-1.6,2.8-2.9,3,.2-1,1-5.3,2.9-3m40.3-7.6c-.6-1.8-1.6-6.9-4.3-6.6-.7.1-1.3.7-2,.8a13.552,13.552,0,0,1-2-.2,13.16,13.16,0,0,0-4.4.4c-1.6.5-2.8,1.3-4.6,1.4a23.4,23.4,0,0,0-3.8.3c-2.1.6-2,2.5-1.7,4.3a3.775,3.775,0,0,1-1-1.2c-.3-.5-.3-1.1-.7-1.6-.9-.9-1.9-.5-3-.4-1.2.1-2.9-.7-4.1-.3-.5.2-.8.8-1.4,1.1a4.146,4.146,0,0,1-1.6.3c-1.2.1-2.4.5-3.5.5a15.6,15.6,0,0,0-4.3.3c-1.4.4-2.7,1-4.1,1.3-1.6.4-3.2.5-4.7.8-3.1.6-6.2,2-9.5,2.2a42.1,42.1,0,0,0-5,.4,13.268,13.268,0,0,0-2.1.3c-.5.3-.8,1.7-1.1,2.2-2.9,6-5,12.3-7.3,18.5-2.4,6.4-4.8,12.9-7.2,19.3-1.1,3-2.6,6-3.5,9.1-.9,2.9,2.5,4.9,4.3,6.7a136.517,136.517,0,0,0,13.8,12.5c5,3.8,10.7,6.3,16.4,8.8a69.061,69.061,0,0,0,18.3,5c3.3.5,6.5.8,9.8,1a41.2,41.2,0,0,0,9.3-.6c-.3-.7-1.4-2.1-1.2-2.9,0-.2.5-.6.6-.9a2.474,2.474,0,0,0,.1-1.2c0-1.9-.7-3.7,1.7-4.4.1,1,.2,2.1.2,3.1,1.2-1.8.4-3.6-.3-5.4-.8.7-1.6,1.4-2.5,2.1.2-.5,1.5-3.7,1.2-4-.4-.3-1.1.5-1.5.1-.3-.3,0-1-.1-1.4-.2-.6-.9-1.1-.9-1.8,0-.9,1.2-1.7,1.8-2.3a3.571,3.571,0,0,0,1.2-2.7c0-1.7.8-1.6,2-2.7,2-1.8,2.1-4.3,1.1-6.6.9-.1,1.7-.1,2.6-.2-.8-2-1.6-4-2.4-6.1-.8-2,.3-3.1.8-4.9,1.2,1.2,2.4,2.4,3.6,3.5.3-3.8,1.3-7.6.9-11.5-.1-1.2-.4-1.1.2-2,.4-.6.9-1.1,1.3-1.8a11.29,11.29,0,0,0,1-4.4,21.018,21.018,0,0,1,.5-4.3c.3-1,1.3-1.6,1.5-2.7.4-2-2.7-5.4-.9-6.8.9-.7,2.1,0,2.8-1.2a15,15,0,0,0,1.1-3.6c.5-1.8.8-3.2.1-5-.4-1.4-1-3-1.5-4.6" fill="#34558b" fill-rule="evenodd"/><path id="Fill-11" d="M344.881,496.924c-.5-1-1.2-1.2-2.3-1.4-4.7-.9-9.4-.9-14.1-1.3a27.608,27.608,0,0,1-4-.6c-1.1-.3-2.1-.9-3.2-1.1-2.1-.5-4.3.9-6.4.8a18.613,18.613,0,0,1-3.1-1,10.454,10.454,0,0,0-2.5,0,29.023,29.023,0,0,1-5.1-.2,40.975,40.975,0,0,1-6.1-1.1c-1.3-.4-3.3-.7-4.3-1.8a69.431,69.431,0,0,0-5.7,10.8c-1.6,3.7-3.7,7.1-5.6,10.6-3.9,7.1-6.7,14.7-9.4,22.4,1.5-.7,2.5-1.4,3.6.2,1,1.4,2.3,1,3.9,1.2,2.7.4,3,3.4,3.6,5.6.9-1.1,1.7-2.2,2.6-3.2.7.8,1.8,1.2,2.4,2.1.4.6.2,1.1.4,1.6s.7.7,1.1,1.1c2.7-3.4,5.2,3,5.5,5.2.3-.8.7-1.7,1-2.5a11.37,11.37,0,0,1,1.5,1.6c.2.4.2,1,.5,1.3.4.5.6.3,1.1.4.8.2.7.2,1.2.8,1.5,2,3.7,3.5,4.9,5.6,1.6,2.7,3.7,5.4,4.6,8.4a21.91,21.91,0,0,0,1.7,4.9c.5.8,1.3,1.5,1.7,2.3.5,1-.4,1.4-.3,2.3s1.6,1.8,2.4,2.1a12.22,12.22,0,0,0,3.8.3,16.68,16.68,0,0,0,5-.5c1.4-.4,1.2-1.1,1.6-2.3a30.022,30.022,0,0,1,1.8-4.1c.9-2,1.4-3.3-1.4-3.9,1.6-.3,4.1-.7,3.6-2.8-.2-1-1.1-1.7-1-2.8s1-1.5,1.9-2.1a10.033,10.033,0,0,0,3.3-5,4.476,4.476,0,0,0,.1-2.8,17.863,17.863,0,0,1-.9-4.6,14.979,14.979,0,0,0,2.2.2,10.926,10.926,0,0,0-.5-1.7c-.1-.2-.6-.3-.6-.6,0-.5.7-.5,1-.8.7-.8.9-2.8,1.2-3.8a9.643,9.643,0,0,1,1-3c1-1.6,2.2.7,2-1.6-.1-1.2-.2-2.9-1.7-3.1-1.7-.2-2.2.5-2.1-1.6.1-1.5-.3-4.6,1.3-5.4a9.034,9.034,0,0,1,2.8-.4c1-.1,1.8.4,2.7.4,1.6-.1,1.5-2.3,1.6-3.4a58.9,58.9,0,0,0,.7-15.1,20.282,20.282,0,0,0-1-6.6" fill="#34558b" fill-rule="evenodd"/><path id="Fill-15" d="M385.281,299.724c-.1-3.6-.1-3.6,1.9-5,.6,2.3-.8,3.5-1.9,5m36.8,9.3c.4-.9,2.2-.6,3-.6a19.88,19.88,0,0,0-2,3.9c-.4-.8-1.5-2.4-1-3.3m-4.8,25.9c.8-.6.6-.6,1-1.4.3-.6.2-.9.8-1.3,1.3-.8,1.5-.8,1.8-2.5.3-1.5.2-3.5.8-4.9.5-1,2-1.1,2-2.3,0-2.4-4.2-3.6-3.4-6,.2-.7,1-.9,1.3-1.5a2.879,2.879,0,0,0,.1-1.3c.1-.9.4-1.1,1.2-1.3a1.668,1.668,0,0,0,0,1c.5,1,2.7-.2,3.2-.9,1-1.5.1-4-.3-5.5a16.179,16.179,0,0,1-.2-5.8c.9,1,1.8,2,2.8,3,.5-1.5.6-2.3,2-3.3a7.74,7.74,0,0,0,2.6-2.8c.3-.5.5-1.1,1.2-1.2.6-.2,1.6.5,2.1.2a7.607,7.607,0,0,0,.8-2.1c.3-.9.7-1.9,1-2.8-2-5-3.6-10.2-6.5-14.7a43.218,43.218,0,0,0-10.5-10.4c-2-1.5-3.9-3-6-4.3s-4.3-1.8-6.5-2.8a23.1,23.1,0,0,0-7.2-2.2c-1.2-.1-2.5.2-3.7.1-1.4-.2-2.7-.6-4.1-.9,0,7.2-2.6,14.5-5.1,21.1-1.1,3-2.7,5.8-3.9,8.9-1.2,3-2.3,6.1-3.6,9.1-2.6,6.2-5,12.6-8.4,18.4-.3.5-.6.9-.5,1.3.1.1.5.4.6.5l.9,1.2a20.821,20.821,0,0,1,1.2,3.2c.9,2.5,2.6,4.9,3.9,7.2a31.8,31.8,0,0,0,5.7,7c1,1,2.6,1.9,3.2,3.2a17.674,17.674,0,0,1,.8,3.3,21.656,21.656,0,0,1,.4-2.5c.9,1.9,3.2,2.1,4.9,3,2.1,1.2,4,2.7,6.2,3.7a30.667,30.667,0,0,0,7.1,2.2,23.4,23.4,0,0,0,3.8.3,11.655,11.655,0,0,0,3.3-1.1c-3.6-3.1-2.3-8.5-.2-12.1.6,1.4,1.3,2.8,1.9,4.2.4-1,1.8-1.9,1.2-3.1-.4-.7-.9-.5-1-1.3a3.606,3.606,0,0,1,.6-2,4.394,4.394,0,0,1,.7,2.2" fill="#34558b" fill-rule="evenodd"/><path id="Fill-19" d="M406.781,358.124c-.8-1.8-4.2-2.2-5.8-2.6-2.8-.6-5.4-2.2-7.9-3.5a25.09,25.09,0,0,1-6.3-4.3,7.847,7.847,0,0,0-2.8-1.6,7.545,7.545,0,0,1-2.6-2.1c-1.6-1.8-3.7-3.2-5-5.3-1.2-2.1-3-3.5-4.5-5.4a80.858,80.858,0,0,1-4.6-7.3c-2.8,3-3.5,7.7-5.2,11.3-2.1,4.5-4.1,9.1-6.1,13.7-3.5,8.2-7,16.5-10.1,25-.1.3-.7,1.3-.6,1.7.1.3.9.7,1.1.9a11.835,11.835,0,0,1,1.6,2.3c1,1.4,2.1,2.8,3.2,4.1a41.414,41.414,0,0,0,9.2,7.5c1.5.8,3.6,2.5,5.3,2.4a17.3,17.3,0,0,1,6,.2,21.579,21.579,0,0,0,6.2.8,7.609,7.609,0,0,1,2.6.2c.6.2,1,.9,1.7.9.8,0,1.3-.7,2.1-1a7.613,7.613,0,0,1,2.1-.3c1,.1,3.5,1,4.3.2.9-.9.6-3.4,2.2-3.7,1.2-.2,3.8,2,4.8,2.7-.4-1.3-2-3.9-1.1-5.3.4-.6.8-.7,1.6-.6.8.2.9.8,1.6,1.1,3.6,2,3.3-7.5,3.1-9-.9-.1-1.8-.1-2.7-.2,0,.8.3,2.7-.3,3.1-.5.3-2.1,0-2.7,0,1.2,1.2,1.8,2.2-.1,3.2a2.008,2.008,0,0,1-3-1.6c-.1-1.6,2.4-1.9,2-3.5-.6-2.2-2.5,1.5-2.9,2.2a5.267,5.267,0,0,1,1.1-5.1c1.5-1.8,3.2-1.9,5.3-1.3.2-.9.7-1.5.9-2.3.3-1-.2-.7-.6-1.6-.7-1.4.7-1.9,1-3a2.237,2.237,0,0,0-.5-1.9c-.4-.7-1.1-1.1,0-1.5.8-.3,1.8.5,2.6-.2.8-.8.5-2.4,1-3.3.7-1.4,1.4-.5,2.6-.1.8.3,1.1.3,1.2-.6a1.093,1.093,0,0,0-.4-1.2c-.6-.5-1.4-.2-2-.3-.9-.2-.9-.8-1.3-1.6,1.5-.1,1.6.4,2.9.9a4.45,4.45,0,0,0,3.4,0,9.678,9.678,0,0,1-2.4-.8c-1-.7-.8-1.5-1.2-2.3" fill="#34558b" fill-rule="evenodd"/><path id="Fill-21" d="M502.481,306.224c1.5-2.8,2.9-5.7,4.3-8.6.8-1.8,2.6-4.2.5-5.6-1.4-1-4.1-2.3-5.9-1.6-1.5.6-2.4,4.3-4.5,1.9-.4,1.1-1.7.9-2.5,1.5-.6.4-.5.9-.9,1.5a20.362,20.362,0,0,1-1.4,1.5,9.635,9.635,0,0,0-1.4-2.1,5.562,5.562,0,0,0-.6,2.1c-.2.5-.3.8-.8,1-1.1.4-2.2-1-2.8-1.7.3,1.2.5,2.6-.3,3.6-.6.8-1.7,1-2.3,1.8-.7.9-.7,1.7-1.9,2.1a4.961,4.961,0,0,1-1.3.3c-.3,0-.4-.5-.5-.5-.4,0-1,.5-1.3.6.7.9.5,1.3-.4,1.9-1,.7-.9.8-1.4,2a2.56,2.56,0,0,1-1,1.3c-.5.3-1.3,0-1.7.4-.9.6-.8,2.3-1.5,3.1-1,1.1-2.2,1.8-3.1,3a25,25,0,0,0-2.3,3.9c-1.3,2.6-3.1,5-3.3,7.9a13.72,13.72,0,0,1-.5,4c-.6,1.1-1.8,1.6-2.3,2.9a22.089,22.089,0,0,0-.8,3.7c-.2,1.4.7,2.5.1,3.9a9.483,9.483,0,0,0-.8,3.7c-.1,1.3-1.2,2.3-.5,3.4a9.041,9.041,0,0,1,1.5,3.3c.2,1.5,0,2-1.3,2.6a13.831,13.831,0,0,1,2,3.8,11.07,11.07,0,0,0,1.8,3.8c1.8,2.3,4,3.5,4,6.8,8-2.7,16-5.4,24.1-8.1-3.1-.6-1.5-6-1.3-8,.4-3.7.8-7.4,1.3-11.1.5-3.2,1.4-6.3,1.9-9.4.3-1.6.5-3.3.9-4.9.4-1.4,1.2-2.7,1.5-4.1a48.194,48.194,0,0,1,2.5-9,62.654,62.654,0,0,1,4.2-8.6" fill="#34558b" fill-rule="evenodd"/><path id="Fill-23" d="M268.781,582.824a3.289,3.289,0,0,1,2-.4,26.192,26.192,0,0,0,5.4-1.2c2.2-.6,4.6-1,6.9-1.4,2.2-.4,4.4-.3,6.5-.9a24.529,24.529,0,0,1,6.1-1.3c2.5-.1,3.9-1.2,5.9.8,1.8-2.5,4.4-2.5,7.3-2.9,1-.1,2.2,0,2.5-1.2.2-1.1-.7-2.7-1.2-3.6-2.6-4.9-4.9-10.1-8.4-14.5-3.4-4.3-7.9-9.1-12.7-11.8-2.6-1.5-5.7-2.3-8.5-3.4-3-1.2-6-2.5-9-3.8-1.6,1.7-1.7,3.7-2.5,5.8-.7,2-2,3.7-2.6,5.7-1.3,4-2.5,7.9-4.1,11.8-3.5,8.2-6.9,16.4-10.1,24.7,5-.8,9.9-1.3,14.9-1.6,1-.1.9-.3,1.6-.8" fill="#34558b" fill-rule="evenodd"/><path id="Fill-25" d="M533.281,276.424c1.4.2,3.1.5,4,1.7a108.8,108.8,0,0,1,13.4-15.4,169.172,169.172,0,0,1,14.7-13.4c10.4-8.4,22-15.2,33.9-21.2-3.8-4.4-7.5-8.8-11.3-13.1a101.728,101.728,0,0,0-11.9-10.8c-.3,3.4-.9,6.8-.9,10.2s.5,6.8.5,10.2a29.6,29.6,0,0,1-.8,8.4c-.6,2.1-1.8,5.1-4.1,5.8-3.1.9-8.4-.6-10.7-2.8-2-1.9-3.1-4.7-4.7-6.9-1.1-1.5-2.2-2.1-4.1-1.6a64.758,64.758,0,0,0-8,3.8c-2.9,1.5-5.8,2.9-8.7,4.4.2.1,1.4.8,1.4,1a17.076,17.076,0,0,0-.7,1.8,7.562,7.562,0,0,0,.8,3.2,9.6,9.6,0,0,1,.6,3.3c0,1.2-.7,2-1,3.2s.6,1.6,1.1,2.6a5.315,5.315,0,0,1,.3,3.3,13.429,13.429,0,0,0-.7,2.7c0,.5.4,1,.3,1.5s-.7.8-1.1,1.1c1.6,1,1.9.9,1.2,2.6a7.691,7.691,0,0,0-.1,3.7c.1.7.8,2.5.3,3.2-.4.6-1.9.1-2.5.1.2,1.3.6,1.1,1.2,2.2a4.594,4.594,0,0,1,.3,2.3c.1,2-1.1,2.2-2.7,2.9" fill="#34558b" fill-rule="evenodd"/><path id="Fill-27" d="M301.781,484.824a26.984,26.984,0,0,0,6.3,1.2,15.028,15.028,0,0,1,5.6,1c.6.3,1.4,1.1,2.1,1.1.8,0,.6-.6,1.2-1s1,0,1.5.2a10.554,10.554,0,0,0,2.5.2c2.4.1,4.7.1,7.1.2,2.1.1,4.2.4,6.3.4h6.7c-1.8-3.4-3.2-6.9-6-9.7-1.4-1.4-2.6-2.9-3.9-4.4a39.147,39.147,0,0,0-4.4-3.7,27.619,27.619,0,0,0-4.6-3.7,10.775,10.775,0,0,0-2.4-1.2c-.7-.2-1.3-.1-1.9-.5-.7-.4-1.4-1.3-2.1-1.8a17.611,17.611,0,0,0-2.3-1.4c-1.6-.9-3.2-1.6-4.7-2.6-4.7,8.7-8.9,17.5-12.8,26.5a6.418,6.418,0,0,1,5.8-.8" fill="#34558b" fill-rule="evenodd"/><path id="Fill-29" d="M424.581,219.024a7.352,7.352,0,0,1,1.2,1.7c.3.7.1,1.4.3,2.1.3.8,1.2,1.2.6,2.3-.4.7-1.4.9-1.6,1.7-.5,1.5,1.2,2.9,1.9,4.1a3.153,3.153,0,0,1,.5,2.3,5.388,5.388,0,0,1-.7,1.3c-.2.8,0,0,.1.8s.4,1.7.5,2.5c.1.9-.2,1.9-.1,2.7a19.867,19.867,0,0,0,2.8,6.1c1,1.4,1.7,1.9,3.3,1.3,8.4-3.3,10.1-12.4,11.8-20.2a63.486,63.486,0,0,0,1.6-13.8c.1-4.9.4-9.9.1-14.8-1.4.4-3.1.5-4.1,1.7-.5.6-.5,1.4-1,2a16.1,16.1,0,0,1-3,2.1l-13.2,9.9c-.6.5-1.2.9-1.8,1.4s-.8.4-.7,1.1a8.3,8.3,0,0,0,1.5,1.7" fill="#34558b" fill-rule="evenodd"/><path id="Fill-31" d="M483.581,246.524c-.8,1-2.3,1.3-3.3,2.2a8.4,8.4,0,0,0-1.9,3.3,14.488,14.488,0,0,0-1.3,4.5,25.673,25.673,0,0,1-.8,4.7c-.2,1.1-.1,1.4,1,1.7a12.946,12.946,0,0,0,4.8.2c7.3-.7,13.1-6.4,17.6-11.7,5.1-6.1,9.2-12.9,13.5-19.5-2.1-1.2-4.4-2.1-6.4-3.4-1.9-1.3-3.6-2.9-5.4-4.2-.3.8-.3,1.7-.6,2.4-.4.9-.9,1-1.6,1.5a12.228,12.228,0,0,0-3.4,3.4c-.8,1.2-1.2,2.8-2.2,3.9-.9,1-2.3,1.4-3.3,2.3-1.5,1.2-2.8,3.4-4.1,4.9a36.178,36.178,0,0,0-2.6,3.8" fill="#34558b" fill-rule="evenodd"/><path id="Fill-33" d="M346.681,313.324c.3.8.9,1.9.4,2.7-.8,1.5-1.6-.7-2.3-1.1a23.205,23.205,0,0,0,.7,3.8,7.457,7.457,0,0,1,.4,2.6c-.2.9-.9,1.5-1,2.4a26.139,26.139,0,0,0,.6,2.7c-1.5-.2-1.8-.4-2.7.7a7.491,7.491,0,0,1,1.6.4c.4.3.2.2.3.8a17.129,17.129,0,0,1-.1,3.2c0,1.1-.6.9-1.1,1.6a4.869,4.869,0,0,0-.2,2.1c.1.8.8,1.6.7,2.4-.1,1-1,1-1.5,1.7-.6.9-.1,1.6.2,2.6a27.331,27.331,0,0,1,.5,4c6.4-13,11.5-26.6,18.7-39.2a4.053,4.053,0,0,0,.5-.9c-.2-.1-.4-.3-.6-.4a14.083,14.083,0,0,1-.1-2.1c-.1-1.5-.5-3-.7-4.5-.2-1.7.2-3.3,0-5a9.852,9.852,0,0,1-.2-1.7c0-.9.5-1.5.5-2.3a25.123,25.123,0,0,0-.4-2.7,13.552,13.552,0,0,1,.2-2c.3-1.8.8-3.5,1.1-5.3.6-3.6.6-7.3,1.2-11-1,1.4-2.1,2.8-3,4.2a38.829,38.829,0,0,0-2.4,4.5,21.14,21.14,0,0,1-2.6,3.5c-.8.9-.8.8-.5,2a4.4,4.4,0,0,1,.2,1.6c-.3,2.2-3.6,1.5-3.2,3.9.2,1.2,1.2,2.3.7,3.6-.4,1.2-1.8,1.8-2.3,2.9-.6,1.3.2,2.1.2,3.4a3.225,3.225,0,0,1-1.2,2.6c-1,1-1,1.7-1.2,3.1a11.077,11.077,0,0,1-1.3,3.6c-.6,1.1-1.4,1.4-1.1,2.7a13.888,13.888,0,0,0,1,2.9" fill="#34558b" fill-rule="evenodd"/><path id="Fill-39" d="M331.381,333.224a43.837,43.837,0,0,0,5.1,12,45.024,45.024,0,0,0,1.1-6.4c.1-2.2.2-4.3.4-6.5a120.11,120.11,0,0,1,2-12c1.7-8.4,3.4-16.7,5.2-25.1-2.6,4.2-5.2,8.3-7.8,12.5-1.3,2-2.5,4.1-3.8,6.1-1,1.7-2.9,3.8-3.2,5.7a43.27,43.27,0,0,0,0,7.2,29.263,29.263,0,0,0,1,6.5" fill="#34558b" fill-rule="evenodd"/><path id="Fill-41" d="M368.281,283.124a6.356,6.356,0,0,0,.6,1.8,14.769,14.769,0,0,1,.1,2.1c0,1.7.1,3.4.2,5.1,3.5-4.8,5.3-10.4,8.4-15.4a47.263,47.263,0,0,0,3.8-6.6c1.1-2.6,2.1-5.1,3.3-7.6.7-1.4,1.4-2.7,2.1-4.1.3-.7.7-1,.3-1.6a1.6,1.6,0,0,0-.9-.7c-.9-.2-1.4.9-2.1,1.2-1,.5-2.2.3-3.2.7-2.3.8-4.6,2.3-6.9,3.2-.7.3-1.3.4-1.2,1.3.1.8.9.6,0,1.3-.4.4-1,.2-1.5.1,0,1.7.3,2.7-.5,4.2-.7,1.2-.4,2.1-.5,3.4a15.211,15.211,0,0,1-1.2,4.3c-.5,1.3-1.3,2.2-.5,3.5.4.7,1.3,1.2.8,2.1s-1.2.6-1.1,1.7" fill="#34558b" fill-rule="evenodd"/><path id="Fill-43" d="M358.281,505.624c-2.5-1.5-.1-3,0-4.4Zm-3.8-8.4c-.4,0-1.7.2-1.9.5a13.4,13.4,0,0,0,.1,2c0,1.2-.1,2.5-.1,3.7.1,1.3.7,2.4.8,3.6,0,1.1-.7,1.7-1,2.8-.4,1.3.1,5,1.6,5.4a12.021,12.021,0,0,1,.3-2.8c.7-.3,1.1,1.5,1.3,2,2-1.9,2.5-4.6,3.5-7.2,1.1-3,2.1-6,3.2-9-1.3-.1-2.6-.2-3.9-.4a13.2,13.2,0,0,0-3.9-.6Z" fill="#34558b" fill-rule="evenodd"/><path id="Fill-49" d="M320.081,582.424c-1.1.5-.8,1.8-.8,3a4.221,4.221,0,0,0,2,3.8c.5-1.4,2.4-4.4,1.8-5.9-.4-1.2-2-1.4-3-.9" fill="#34558b" fill-rule="evenodd"/><path id="Fill-106" d="M533.281,249.224c.7-.7,1.9-1.1,2-2.2s-.9-2.8-1.2-3.8c-.3,2-.6,4-.8,6" fill="#34558b" fill-rule="evenodd"/><path id="Fill-9" d="M371.881,454.724c-1.9,0,.2-3.9.5-4.8.5,1,1.9,4.8-.5,4.8m15.7-49.7c.7-.4,2.2-1,2.6-1.8.5-1-.5-1-1.3-1a12.173,12.173,0,0,0-3.3.1c-1,.2-1.4.4-2.4-.2-.5-.3-1-1.2-1.6-1.3s-1.4.5-1.9.8c-1.9.9-4,.3-6,.4a4.893,4.893,0,0,1-2.1-.1c-.9-.4-1.1-1-2.2-.9-1.8.1-3.2.7-5.1.2-1.2-.3-2.7-1.5-4-1.2-1.2.3-1.8,2.2-2.7,2.9-.3-1.6-.5-3.3-1.7-4.5-1.4-1.3-3.6-1.8-5.1-2.9-3.6-2.5-6.1-6-8.8-9.3a45.482,45.482,0,0,0-4.1,7.9l-3.3,8.4c-2.2,5.6-4.6,11.1-7,16.7-4.9,11.2-10.4,22.1-15.3,33.3,3.3.1,6.5,1.7,9.4,3.3a3.745,3.745,0,0,1,1.3,1.2c.2.3.5,1.1,1,1.2.2.1,1-.4,1.4-.3a3.224,3.224,0,0,1,1.4.8c2.8,2.2,5.6,4.5,8.2,6.9a16.382,16.382,0,0,1,2.9,3.5,14.386,14.386,0,0,0,3.3,3.7c2.2,1.8,3.5,5,5.1,7.4a37,37,0,0,1,2.5,4.3c.6,1.4.8,3,2,4.1,2.4,2.3,6.1,1,9,1.3,1.1.1,1.4.5,2.4,0,0-.4.2-.5.5-.4a2.044,2.044,0,0,1,.9.5,16.443,16.443,0,0,1,2.2,1.4c.4-1,.8-2.1,1.3-3.1-.5,0-2.2.2-2.5-.5-.2-.6.7-.8,1.1-1.1.4-.4.6-1.8,1.4-1.7.6,0,.6.6.6,1.1,1.4,0,1.3-1.2,1.6-2.2.2-.7.4-1.4.6-2,.1-.5.9-2.3.7-2.7-.5-1-3.6-.9-1.6-2.1.6-.4,2.1-.3,2.6-.8.4-.4.4-2.2.5-2.8-.9.1-2,.6-2.6-.2-.8-1.2.4-3,1-4,.8.6,1.3,1.3,2.2.6a8,8,0,0,0,2.2-3.3c-1,0-.9.2-1.4-.6a6.07,6.07,0,0,1-.5-1.8c-.3-1.1-.9-1.9.4-2.2.8-.2,1,0,1.2.8a23.405,23.405,0,0,1,.3,3.8c1.3-1.6,2.5-3.3,2.1-5.4-.8.8-.9.6-1.8,0-1-.6-1.9-1.3-2.9-1.9,1.2-1.1,3.1,0,4.3-.9.8-.6.4-2.5.5-3.3.1-1.1.5-2.1.5-3.2-.1-1.1-1.4-1.7-.7-2.7.5-.7,1.6-.6,1.8-1.7s-.9-1.8-1.7-2.3c1.2-.4,3.6-.8,2.5-2.5-.5-.8-1.2-.8-1.2-2a5.422,5.422,0,0,1,.9-2.4c.5,1.1,1.1,3.5,2.6,3.5,1.2-.1,2.3-1.1,1.9-2.2-1.1-3.3-4.1-3.6-7-4.2.5-2,2-1.9,3.5-.9.9.6,1.4,1.1,2.5.5,1.1-.7.6-.9.1-1.8-1-1.9.4-3,1.8-4.1a18.953,18.953,0,0,0,1.9-2.1c.7-.7,1.9-.9,2.7-1.3-1.1-.5-2-1.1-3.2-.7-.8.3-1.4.8-2.3.3-2-1,.6-1.3.9-2.1.2-.5-.4-1.5-.2-2.1a6.916,6.916,0,0,1,1-1.9c.8-1.3,1.7-2.6,1.2-4.2a3.749,3.749,0,0,1,1.4,3,29.838,29.838,0,0,0,.4,4.2c.1-2.1,2-3.4,2.3-5.4.1-.6-.4-2.1.2-2.5.5-.3,1.4.4,1.9.4a35.75,35.75,0,0,0-1-5.7c-1.2-2.2-2.8-2.8-4.2-4" fill="#34558b" fill-rule="evenodd"/></g><g id="Ink"><path id="Fill-53" d="M905.881,204.724c-2.5.5-4.9,1.3-7.4,1.8q-4.5.9-9,1.5c-2,.3-3.9.8-5.2,2.4-2.5,3.2-5,8.6-1.6,11.9,1.6,1.6,4.4,1.1,6.5,1.7a52.669,52.669,0,0,0,6.8,1.9c11.2,1.5,22.4,4.2,33.4,6.9a98.676,98.676,0,0,1,14.8,4.9,35.6,35.6,0,0,1,7,3.6,28.615,28.615,0,0,1,5.5,4.2,58.659,58.659,0,0,1-18.7.1,90.969,90.969,0,0,0-9.1-.6c-3-.2-6.1-.4-9.1-.7s-5.9-.6-8.8-1a12.222,12.222,0,0,0-3.3-.2,2.917,2.917,0,0,1-1.6.1,10.092,10.092,0,0,1-1.5-.7c-2.2-.8-4.6-.6-7-.7-1.7-.1-3.6-.6-5.4-.2-3.1.7-4.5,5-5.2,7.6a11.056,11.056,0,0,0,.4,5.4c.6,1.9,1.8,1.9,3.3,2.7a57.052,57.052,0,0,0,6.4,3.5c2,.8,4,1.5,5.9,2.4,4.3,1.9,8.9,3.5,13,5.9,2.2,1.3,4.3,2.6,6.6,3.7a31.7,31.7,0,0,1,5.9,3.5,46.5,46.5,0,0,1,10.1,9.7,9.31,9.31,0,0,1-3.7-.3c-1.6-.6-3-1.4-4.6-1.9-3-.9-6-1.8-8.9-2.9-3-1.1-6-2.2-9-3.1a39.577,39.577,0,0,0-4.7-1,18.428,18.428,0,0,1-3.9-1.5c-6.3-2.5-13.1-3.8-19.6-5.6-6.4-1.8-12.6-3.6-19.1-4.9-3-.6-6-1.1-9.1-1.6a20.4,20.4,0,0,0-8.5.8,67.913,67.913,0,0,0-8.7,2.8c-2.1.9-5.1,1.7-6.8,3.3a17.36,17.36,0,0,1-2.8,2.6,20.814,20.814,0,0,1-3,1.3c-2.3.8-4.4,1.9-6.7,2.8a16.707,16.707,0,0,1-4.4,1.1,6.5,6.5,0,0,0-3.3,1.1,36.852,36.852,0,0,1-6.4,2.1c-2.1.7-4.6,2.5-6.9,1.7s-3.7-3.7-5.1-5.5c-3.5-4.7-6.6-9.4-8.6-15.1-2.1-6-4.1-11.9-6.1-17.9-1.1-3.1-2.1-6.2-3.2-9.3-.6-1.7-1.8-3.6-.5-5.2,1.6-1.8,2.1-4.7,3.7-6.8s3.4-3.9,5.1-5.9c1-1.2,2-2.3,2.9-3.6a35.291,35.291,0,0,1,2.1-3.2,17.086,17.086,0,0,1,2.6-2.1c.9-.9,1.7-1.9,2.5-2.8,2.1-2.4,4.1-5,6.3-7.3,1.9-1.9,4-3.6,5.9-5.5,4.1-4.1,8.5-7.9,12.8-11.8,4.2-3.8,8.4-7.5,12.4-11.4,3.8-3.7,8.4-6.6,12.6-9.7,4.7-3.3,9.1-6.9,14.2-9.7,4.8-2.7,9.6-3.5,15-4.3a22.85,22.85,0,0,1-1.6,3.1,43.754,43.754,0,0,1-3.6,3.9l-7.2,7.8c-4.7,5-9.6,9.8-14.2,15-3.6,4.1-6.5,8.3-8,13.6-.8,2.8-1.2,5.8.5,8.4,1.3,2,3.4,1.8,5.6,1.6,5.6-.5,11.1-2.4,16.6-3.4,6.1-1.1,12.4-1.4,18.5-2,3.1-.3,6.2-1.2,9.3-1.4,1.4-.1,2.8.2,4.2.1s2.8-.5,4.2-.7a26.39,26.39,0,0,1,8.4-.4,35.378,35.378,0,0,0,8.6-.2c6.1-.5,12.4.2,18.5.8a126.965,126.965,0,0,1,17.3,2.7c-6,1.5-11.9,3.1-17.9,4.5-6.1,1.4-12.4,2.4-18.4,4.2-2.6.7-5.3.8-8,1.4Zm-471.8,126.3c.7-2.4,1.3-4.9,2.1-7.3a6.376,6.376,0,0,1,.8-1.4,9.654,9.654,0,0,0-1.3,3.1c-.5,1.9-1,3.7-1.6,5.6Zm-1.3,2.4c.1-.3.3-.6.4-.9a3.552,3.552,0,0,1-.4.9Zm-.5,1.2.3-.9a3.178,3.178,0,0,1-.3.9Zm1.7-3.2-.6.9.6-.9Zm364.8-22.1c-2.4,1.5-4.7,2.5-6.6,4.6-4.4,4.7-9.1,9.2-13.3,14.1-1.7,2-2.6,4.4-4.5,6.2a61.443,61.443,0,0,1-7.2,5.4c-5.4,3.8-10.8,7.9-16.5,11.2-1.3.7-2.6,1.5-3.9,2.2a11.256,11.256,0,0,0-2.7,1.3c-.7.6-1,1.5-1.8,2-.6.4-1.3.8-1.9,1.2-5,3.2-10.1,6.3-15.1,9.4-5,3-9.9,6-14.8,9.2-2.6,1.7-5,3.6-7.6,5.2-2.1,1.4-4.3,2.6-6.4,4a50.477,50.477,0,0,1-6.7,4.2c-2.3,1.1-4.7,2.1-7.1,3.2-1.4.7-2.6,1.5-3.9,2.3a24.13,24.13,0,0,1-2.5.8c-2.7.9-5.1,2.5-7.9,3.4-11.4,3.5-22.5-1.5-32.4-6.9-5-2.7-9.6-6.2-14.4-9.2-2.1-1.3-4.7-2.3-6.6-3.9-1-.8-1.3-1.6-2.5-2.2a28.226,28.226,0,0,1-2.9-1.8,125.7,125.7,0,0,1-12.9-11.3c-2.2-2.2-4.4-4.5-6.6-6.8-1.7-1.8-3-4-4.6-5.9-3.8-4.6-7.4-9.3-11.1-14.1-1.8-2.3-3.5-4.6-5.3-6.9-1.2-1.5-3-3-3.4-5-.4-1.8.7-3.6,1.6-5.1a45.737,45.737,0,0,0,3.5-7c1.3-3.7,3.4-10.9-.7-13.6-1.5,2.5-3.4,4.7-5,7.1s-2.3,5.5-4.3,7.7c-2.1,2.3-4.8,3.9-7,6.1s-4.1,4.6-6.2,6.9c-2.2,2.4-4.5,4.6-6.8,6.9a65.6,65.6,0,0,1-7.1,5.7,82.957,82.957,0,0,1-7.9,5.2,19.042,19.042,0,0,1-3.7,2,26.191,26.191,0,0,0-3.9,1.5c-5.4,2.8-10.8,5.5-16.3,8.1a27.165,27.165,0,0,1-4.6,2.1,8.752,8.752,0,0,0-1.6.2,18.945,18.945,0,0,0-2.1.9c-2.8,1.2-5.7,2.2-8.6,3.2-6.1,2-12.2,3.9-18.2,6.1-5.6,2.1-11.1,4.3-16.9,5.9-5.7,1.6-11.7,1.8-17.6,2.4-1.6.2-3.4,0-4.9.4a8.808,8.808,0,0,1-3.6.6,33.459,33.459,0,0,0-7.7.7c4-7.8,6-16.7,8.9-24.9.8-2.2,1.7-4.2,2.3-6.4a28.654,28.654,0,0,1,2.4-5.7c1.2-2.2,1.6-4.8,2.4-7.1-.6,1.9-1,3.8-1.6,5.7.8-1.6,1.7-3.1,2.5-4.7a8.434,8.434,0,0,0,.8-4.4c2.1.2,2.2-1.9,2.5-3.5.5-2.4,1-4.7,1.5-7.1a6.448,6.448,0,0,0,.3-2,17.3,17.3,0,0,1,.7-2.1,153.438,153.438,0,0,0,5.2-15.8c1.5-6,2.8-12,4.1-18a79.447,79.447,0,0,0,2-9.7c.1-1.6.9-6.6-1.3-7.3-1.7-.5-3.5,4.7-4,5.8-1.1,2.8-2.1,5.6-3.1,8.4-.9,2.5-1.6,5-2.7,7.5-1,2.5-1.4,5.1-2.3,7.6-.5,1.5-1.4,2.6-2,4-.4,1-.6,2.2-1,3.2-.7,2.2-1.9,4.4-2.7,6.6-1.1,2.8-2.4,5.5-3.5,8.3-1.1,2.5-1.7,5.2-2.7,7.7-1,2.4-2.5,4.6-3.4,7.1-1.1,2.7-2,5.4-3.1,8.1-2.2,5.6-4.3,11.1-6,16.9-.4,1.4-1.1,2.9-1.5,4.1a30.543,30.543,0,0,1-1.3,3.2,37.364,37.364,0,0,0-1.6,6.6h0l.1-.7c-.9,0-1.8.2-2.4-.5-.7-.9-.5-2.6-.6-3.6-1,.1-.6.6-.5,1.5.1.5.1.9.2,1.4l.4,3.5c.3-.2,1-1.3,1.3-1.3.4,0,.9,1.1,1.1,1.7l-.3.6a6.872,6.872,0,0,0-.7,1.5,28.494,28.494,0,0,1-1.2,3.1c-.3.5-.6,1-.9,1.4-.3.3-1.2.8-1.3,1.2-.4.8.2,2.9.1,3.9a12.271,12.271,0,0,1-.8,3.8c-.2.5-.7.8-.9,1.2a4.26,4.26,0,0,0-.4,1.7,34.773,34.773,0,0,1-2.2,7.8c-1.1,2.8-1.9,5.8-2.8,8.6-.9,2.7-2.1,5.3-3,8-1.1,3.1-2.1,6.3-3.2,9.5-.8,2.4-2,4.5-2.8,6.8-.9,2.4-2.1,4.5-2.5,7-.5,2.7-1.9,5.5-3,8.1-.9,2.1-2.7,4.4-3,6.7-.2,1.1.1,2.1-.3,3.1-.3.9-.9,1.7-1.3,2.6-.5,1.2-.1,2.3-.5,3.6-.3,1.1-1.1,1.8-1.6,2.8-1,1.6-.7,3.5-1.8,5.2-1.5,2.4-2,5.1-2.9,7.8-.4,1.3-.7,2.7-1.1,4.1a8.018,8.018,0,0,1-.5,2.1c-.4.6-1,.4-1.3.7s-.3,1.3-.4,1.7c-.4,1.3-.9,2.5-1.4,3.7-1.1,2.6-2.4,5.2-3.3,7.9l-3,8.4c-.5,1.3-.9,2.7-1.5,4a7.364,7.364,0,0,1-1.9,2.7c-.8,1-1.2,2.3-2,3.4a10.244,10.244,0,0,0-1.6,2.9,51.62,51.62,0,0,1-2,6.7c-2.4,5.5-5.4,10.7-7.8,16.2-2.5,5.8-4.9,11.6-7.1,17.4-2,5.5-3.4,11.3-5.4,16.8-2.1,5.5-3.9,11-5.9,16.5-2.1,5.7-4.3,11.3-6.1,17.1-.7,2.1-1.1,4.1-1.6,6.2.1-.9.3-1.9.4-2.7-2,3.4-3.9,7.1-3,11.1a9.055,9.055,0,0,0,1.3-2.6,5.782,5.782,0,0,1-.5,1.4,18.446,18.446,0,0,0-1.5,3.5c-.9,3-1.7,5.9-2.6,8.9-.4,1.4-.8,2.9-1.3,4.3-.4,1.2-1.3,2.3-1.7,3.5-.4,1.4-.3,3-.6,4.4a12.228,12.228,0,0,1-1.4,3.6c-.5.9-1.2,1.6-1.6,2.5-.5,1.1-.2,2.2-.3,3.4-.2,1.5-.7,2.9-.9,4.3s.5,2.3.7,3.6c.3,1.4-.3,2.3-.7,3.6a20.9,20.9,0,0,0-.8,3.4,7.788,7.788,0,0,1-.5,2.3,6.448,6.448,0,0,1-2,.3,27.032,27.032,0,0,1-4.1.5,84.974,84.974,0,0,1-8.7-.7,84.3,84.3,0,0,1-17.2-3.3,97.148,97.148,0,0,1-15.5-6.8,68.281,68.281,0,0,1-13.4-9.9c-2.2-2-4.4-4.2-6.5-6.3-1-1-2-2.1-3.1-3.1-.8-.8-1.9-1.6-2-2.8-.1-1.4.9-3,1.4-4.3.4-1.1.9-2.3,1.3-3.4,1.1-2.8,2.1-5.6,3.1-8.4,2.2-5.8,4.3-11.6,6.4-17.4,2.2-5.8,4.4-11.5,7-17.2,2.5-5.4,4.8-10.8,6.9-16.4,2-5.3,4.3-10.3,6.5-15.5q1.8-4.2,3.3-8.4a40.5,40.5,0,0,1,2.5-6.9,19.241,19.241,0,0,0,1.8-4.5,8.894,8.894,0,0,1,1.5-3.6,24.838,24.838,0,0,0,3.9-7.8,126.468,126.468,0,0,1,6.6-16.1c2.6-5.2,5.6-10.2,8-15.6s5.7-10.2,8-15.7c4.7-11.3,11.1-21.6,15.9-32.8,4.7-11.1,10.2-21.7,15-32.7,2.5-5.8,4.9-11.5,7.2-17.4q1.65-4.2,3.3-8.4c1-2.5,2.8-4.4,3.5-7a32.248,32.248,0,0,1,3.2-7.1c1.3-2.5,2-5.4,3-8,2.2-5.7,4.6-11.3,7-16.9,2.5-5.8,5.1-11.4,7.6-17.2,1-2.2,1.5-4.5,2.5-6.6.5-1.1,1.5-2,1.9-3a9.016,9.016,0,0,0,.3-1.6,12.528,12.528,0,0,1,1-2c2.6-5.2,5.4-10.3,7.7-15.6,2.4-5.5,4.8-10.9,6.9-16.5,2.1-5.5,4.7-10.7,6.5-16.4.8-2.7,1.7-5.4,2.3-8.1.6-2.4,1.6-5.9,1.1-8.4-.3-1.5-2.1-4.6-3.9-3.2-1.6,1.3-2.6,3.8-3.5,5.6-1.3,2.7-2.8,5.4-3.9,8.2a42.289,42.289,0,0,1-3,6.5c-3.1,5-5.5,10.2-8.3,15.4a17.332,17.332,0,0,1-2.2,3.1c-.8,1-.6,1.4-.9,2.7-.6,2.2-2.4,4-3.4,6.1a59.126,59.126,0,0,1-3.9,8c-1.3,2.3-2.6,4.6-3.7,7-2.5,5.5-4.9,11-7.4,16.5-1.3,2.9-2.6,5.9-4,8.7-.6,1.3-1.2,2.5-1.9,3.8-.4.8-1.2,1.4-1.6,2.3s0,1.7-.3,2.6c-.4,1-.9,1.5-1.8.9-2-1.4-2.4-4.3-3.5-6.3-2.6-4.9-5-9.5-6-15a57.844,57.844,0,0,1-.3-9.3c0-2.7,1.7-4.6,3.1-6.9,3.4-5.3,6.7-10.7,10.2-16,1.5-2.3,2.8-4.8,4.4-7.1,1.5-2.2,3.5-3.9,5.1-5.9.9-1.2,1.6-2.4,2.6-3.5a23.721,23.721,0,0,0,2.3-3c1.3-2,2.2-4.2,3.6-6.1,3.3-4.6,6.7-9.1,10.2-13.6,1.9-2.4,4.1-3.8,6.4-5.7a71.943,71.943,0,0,0,6.3-6c4-3.9,7.8-8,12.2-11.5,4.6-3.5,9.3-6.8,14.1-10,2.4-1.5,5.3-2.7,7.2-4.8a11.357,11.357,0,0,1,2.6-2.3c1-.6,2.1-.7,3-1.3,2.7-1.5,5.1-3.9,7.6-5.8,2.4-1.9,4.8-3.7,7.3-5.6,1-.8,2.9-1.7,3.7-2.7.4-.6.4-1.3.8-1.9,1.1-1.3,3.2-1.5,4.7-2a54.269,54.269,0,0,1,8.8-2.3c2.7-.5,5.2-1.7,7.8-2.6a73.133,73.133,0,0,1,17.3-3.7c-2.7,7.8-5.7,15.5-7.7,23.5-.8,3.2-1,7-2.3,10.1-.5,1.1-1.8,2.2-1.2,3.4a10.725,10.725,0,0,0,2.7,2.5c1.8,1.2,4.1-.1,5.8-.8,3-1.2,5.9-2.8,9.2-3.3,3.4-.6,6.2-3.7,9.6-3.7a5.685,5.685,0,0,1,3.7,1.6c1.1.9,2.4,1.7,3.5,2.7a27.175,27.175,0,0,0,8.2,5.2c1,.4,1.9.2,2.9,1,.7.6,1.3,1.5,2.3,1.7a144.979,144.979,0,0,0-12.9,15.3,32.65,32.65,0,0,0-4.4,8.5c-.5,1.5-.9,2.6,0,4.1a2.556,2.556,0,0,0,2.3,1.3c2.4-.4,4.5-3.6,5.8-5.3,1.5-2,3.2-3.9,4.8-5.9,3.3-4.1,6.2-8.4,10.3-11.8,1.2-1,2.5-2.1,3.8-3,1.1-.7,1.8-.2,3-.4,3-.5,5.7-2.1,8.3-3.4,2.9-1.5,5.8-2.9,8.7-4.3,1.5-.7,3.8-2.3,5.6-1.6,2,.8,3.1,4,4.2,5.7,1.1,1.6,2,3,3.7,3.9,2.8,1.5,8.4,3.3,10.8.4,3.5-4.1,3.2-10.8,2.9-15.9a57.844,57.844,0,0,1-.3-9.3c.2-2.7.5-5.4.8-8.1a102.745,102.745,0,0,1,13.9,13.3c2.2,2.7,4.5,5.2,6.8,7.8a16.369,16.369,0,0,1,2.9,4,15.174,15.174,0,0,0,2.6,3.5c2.1,2.3,3.5,5.3,5.1,7.9,1.5,2.5,3.1,5.1,4.5,7.7a139.514,139.514,0,0,1,7.9,15.4c1.2,2.8,2.7,5.3,3.9,8.1s2.3,5.5,3.5,8.3a41.4,41.4,0,0,1,1.9,4.9c.4,1.1,0,2.6.5,3.7.4,1,1.4,1.9,1.8,3s.7,2.3,1.1,3.4c2.2,5.4,5.1,10.6,7.6,16a178.117,178.117,0,0,0,8.1,16.4,160.307,160.307,0,0,0,10.6,15.3c1.9,2.6,3.9,5.1,5.8,7.8a15.1,15.1,0,0,0,2.2,2.8,13.229,13.229,0,0,0,2.9,1.5c.5-1.4,1.3-2.4,1-4a26.192,26.192,0,0,0-1.1-4c-.8-2.5-2.9-4.8-2.4-7.5.5-2.6,2.6-4.7,4.2-6.6,2.1-2.6,4.3-5.2,6.4-7.8,7.2-8.7,14.8-17,22.3-25.4,3.8-4.3,7.5-8.7,11.4-12.9,1.8-1.9,3.8-3.4,5.7-5.2,1.5-1.4,2.5-3.2,4-4.7,1.1-1.1,2.3-1.9,3.4-3l2.7-2.7c2-2,3.9-4,5.8-6,3.9-4,7.5-8.3,11.3-12.4,7.4-7.9,15.1-15.4,22.8-23a207.106,207.106,0,0,1,5.6,20.1c.4,1.7.6,3.4,1.1,5,.6,1.6,1.3,3.1,1.9,4.6a86.481,86.481,0,0,0,4.1,10.4c3.2,6.3,6,13.5,10.6,18.9,2.3,2.7,5.4,5,8.1,7.3,2.9,2.5,5.7,5,8.6,7.5a59.7,59.7,0,0,1-7.1,5.2Zm-237.7,41.6a2.583,2.583,0,0,0-.7-1.1,1.441,1.441,0,0,1,.6.7,16.293,16.293,0,0,1,1.1,3.1c-.3-.9-.6-1.8-1-2.7Zm-69.4,49.6c2,2.2,4.1,4.3,6.1,6.5a78.37,78.37,0,0,1,5,6.4c3.6,4.7,7.3,9.3,11.2,13.7,3.7,4.3,7.8,8.3,11.4,12.7a87.326,87.326,0,0,1,9,14.2,46.633,46.633,0,0,0,4.3,6.6,12.776,12.776,0,0,1,2.3,2.9,30.588,30.588,0,0,1,1,4.1c2.8,11.9,5.6,23.8,8.3,35.7,1.3,5.8,2.2,11.6,3.4,17.4,1.3,5.9,3.2,11.5,4.4,17.4,2.4,11.9,4.1,24,6.7,35.8,2.6,11.5,7,22.5,9.4,34.1.3,1.6.8,3.1.4,4.8a18.436,18.436,0,0,0-.6,4,10.313,10.313,0,0,1-1.7,6.4,27.6,27.6,0,0,1-11.2,9.7c-2.4,1.1-4.7,2.6-7.3,3.2-1.3.3-2.5.1-3.7.3-1.3.2-2.3,1.1-3.5,1.5-4.7,1.9-10.6,1.3-15.5,1.3-5.4,0-10.9-.4-15.9-2.6l-1.2-.6c-.7-.1-.8-.4-.4-.9,0-.6.3-1.2.3-1.8a11.325,11.325,0,0,0-.6-3.6c-.7-2.8-1.4-5.6-2.1-8.5-2.7-11.8-3.9-23.7-5.6-35.6-.8-6.1-2.1-12.2-3.1-18.4-1-5.9-1.6-11.8-2.4-17.7s-1.6-11.8-2.4-17.6c-.4-3.2-1.4-6.4-1.8-9.6-.3-2.4.3-4.7-.2-7.2-1.3-5.7-1.3-11.7-2.8-17.4-1.5-5.9-3.7-11.6-5.7-17.3-1-3-2.1-5.9-3.1-8.9-.6-1.7-1.3-3.6-3.1-4.5-1-.5-2-.4-2.9-1.1a28.32,28.32,0,0,1-3-3c-2.1-2.1-4.2-4.2-6.3-6.4-8.2-8.2-16.2-16.8-25.2-24.1-4.2-3.4-8.1-7.2-12.8-9.9-5-2.9-9.9-6-14.9-9a55.04,55.04,0,0,0-7.7-3.8c-2.3-.9-.9-3.2-.2-5,1-2.8,2-5.7,2.8-8.5.7-2.2,1-5,3.2-6.2,1.5-.8,2.1.1,3.5.6a8,8,0,0,0,3.1.3c2.3-.1,5-1.1,7.3-.8a9.72,9.72,0,0,0,3.8,0,29.838,29.838,0,0,1,4.2-.4,68.474,68.474,0,0,0,7.8-.7,103.479,103.479,0,0,0,16.6-4.2,176.769,176.769,0,0,0,16.7-7.4,32.576,32.576,0,0,0,1.7,7.5c.7,1.9,2,4.5,3.8,5.5,4.1,2.9,6.2,6.8,9.2,10.1Zm83.9,241.5c1.7-.9,2.1.4,3.1,1.8,2.8,3.9,5.7,7.8,8.5,11.7,2.8,3.8,5.6,7.6,8.3,11.3,2.6,3.5,5.5,6.9,7.9,10.6a92.612,92.612,0,0,1,6.3,12.1c1.6,3.5,3.9,7.1,2.3,11-1.6,3.6-6,5.1-9.3,6.8-4.1,2.2-7.3,3.7-11.9,2.1a227.308,227.308,0,0,1-25.8-11.4c-7.7-3.8-13.4-9.5-19.8-15.1-3.3-2.9-6.8-5.6-9.9-8.8-3.2-3.3-6.3-6.8-9.6-10-5.1-5.1-10.4-9.6-9.5-17.5,4.8,1.6,9.6,3.7,14.6,4.6a67.017,67.017,0,0,0,16.1,1.4,49.408,49.408,0,0,0,6.7-1.2c2.2-.4,4.5,0,6.6-1.1,1.8-1,3-2.1,5.1-2.6a15.74,15.74,0,0,0,5.8-2.5,41.593,41.593,0,0,1,4.5-3.2Zm-152.7-209.9a.1.1,0,0,1,.1.1.1.1,0,0,0-.1-.1Zm-5.7-3.2c.1,0,.1.1.2.1-.1,0-.1-.1-.2-.1Zm-103.7,279.4c2.3,4.1,4.5,8.2,6.7,12.3,1.1,2.1,2.1,4.2,3.1,6.2.9,1.9,1.8,3.4,1.9,5.6-4.5-.5-9.1-3.2-13-5.6a71.158,71.158,0,0,1-10.9-8.8c-3.3-3.2-6.8-6.3-10.3-9.2a60.275,60.275,0,0,0-5.2-3.6,9.062,9.062,0,0,1-1.6-1.1c-.6-.6-.8-1.6-1.4-2-1.4-.9-3.5.4-4.8,1a22.71,22.71,0,0,0-4.6,3c-1.6,1.4-2.6,3.2-4,4.7a51.936,51.936,0,0,0-3.7,4.5,61.609,61.609,0,0,1-8.7,10.3c-1.5,1.3-3.4,2.4-4.7,3.9a30.234,30.234,0,0,1-4,4,79.673,79.673,0,0,0-8.9,8.5c-3.1,3.5-6.6,6.6-9.9,9.9-.5-2.1.4-3.8,1.3-5.6,1.1-2.1,1.8-4.3,2.7-6.5,1.9-4.7,4.1-9.3,6.4-13.7,2.2-4.2,4.5-8.3,6.6-12.5,1.8-3.5,4.5-7.8,3.7-11.9-.3-1.6-1.2-4-2.9-4.5s-3.4,1-4.8,1.8a96.261,96.261,0,0,1-12.5,6.1c-4.3,1.8-8.7,3.6-12.8,5.7-4,2.1-7.8,4.6-11.9,6.7-2,1-4.1,1.8-6.1,2.9-1.9,1-3.7,2.2-5.6,3.2a33.027,33.027,0,0,1-11.9,4.1c3-3.9,7-6.8,10.9-9.8,4.5-3.5,9-7,13.6-10.3,4.2-3,8.4-5.8,12.5-8.9,1.9-1.4,3.8-2.9,5.6-4.5,1.5-1.3,3.2-2.6,3.6-4.7a5.472,5.472,0,0,0-2.1-5.2c-1.6-1.1-3.6-.8-5.4-.6-5,.7-10,2.3-14.9,3.7-1.1.3-2.3.9-3.4,1.1a14.523,14.523,0,0,1-3.6.2c-2.2.1-4.4.2-6.5.5-2.3.3-4.6.2-6.8.6-2,.3-3.5,1.4-5.6,1.4-9.3-.2-17.9,4.9-27.1,4.9l16.5-9.6c2.5-1.5,5.2-2.7,7.6-4.3,2.7-1.8,5.2-3.8,8-5.4,10-5.9,21.1-10.2,30.2-17.5,2.2-1.8,4.3-3.7,6.4-5.5a12.165,12.165,0,0,1,1.7-1.5c.9-.4.6-.5,1.4.3a20.97,20.97,0,0,1,2.2,3,47.992,47.992,0,0,0,10.5,10.6c4.7,3.4,10.1,5.5,15.3,7.9,5.3,2.4,10.5,5,16,6.9a93.111,93.111,0,0,0,17.3,3.5,77.34,77.34,0,0,0,18-.4c.4,4.6.8,8.5,3,12.7,2.1,4,4.7,7.6,6.9,11.5Zm23.2-350.5a7.972,7.972,0,0,1,1.5.3c-.4-.1-.8-.1-1.1-.2-.2,0-.3-.1-.4-.1Zm1.6,2.6a5.782,5.782,0,0,0,.5-1.4,3.36,3.36,0,0,1-.5,1.4Zm-52.7,77.9c-6.9,4.1-13,9.2-19.7,13.6a106.207,106.207,0,0,1-10.3,6,48.961,48.961,0,0,1-5.2,2.4c-1.5.6-3,1.6-4.6,2.1a13.007,13.007,0,0,1-5.2,0c-1.5-.2-3-.1-4.2-1.1-2.2-1.8-3.7-5.4-5-7.9a92.714,92.714,0,0,1-5.5-10.9c-1.3-3.5-3-6.7-3.6-10.4a5.869,5.869,0,0,0,.1-6,22.606,22.606,0,0,0-1.6-2.6c-.6-1-.6-1.2-1.7-1.2,1.1,3.3,2.1,6.5,3.2,9.8-1-3.2-2.4-6.5-3.2-9.8a61.426,61.426,0,0,0-1.9-8.5c-.5-1.4-1.4-2.8-1.8-4.2-.3-1.2-.3-2.5-.5-3.7-.4-3.4-1.3-6.8-1.9-10.2-1-6.5-1.7-13.1-2.9-19.6-1.3-6.7-2.9-13.3-4.4-19.9-.6-2.5-1.5-4.7.9-6.4s5-3,7.5-4.5a63.363,63.363,0,0,1,7.3-3.8,50.338,50.338,0,0,0,6.2-3c1.2-.8,2.5-.8,3.8-1.2l4.2-1.5c2.6-.9,5.1-1.8,7.7-2.7,1.4-.5,4.3-2.3,5.6-.9.7.7.8,2.2,1,3.1l.9,4.5c1.1,5.8,2.2,11.6,3.1,17.4.9,5.7,1.4,11.5,2.3,17.2.2,1.4.9,3.1.8,4.5a3.9,3.9,0,0,1-1.5,2.3,65.1,65.1,0,0,0-5.1,5.4c-1.8,2.1-3.5,4.3-5.4,6.2a25.369,25.369,0,0,0-4.8,6c-1.1,2-2.6,3.8-2.1,6.2.4,1.8.9,3.7,3.1,2.9,2.5-.9,4.7-3.3,6.7-5.1,1.9-1.7,3.8-3.4,5.8-5,2.2-1.8,4.6-3.3,6.7-5.2,1.8-1.6,3.4-3.5,5.1-5.3,4.2-4.2,8.6-7.9,13-11.7,2-1.8,3.7-4,5.5-5.9s3.8-3.7,5.7-5.6c4.1-4,8.5-8,12.3-12.3l5.7-6c.8-.8,1.3-1.9,2.1-2.7a25.6,25.6,0,0,1,2.6-2c3.5-3.2,5.4-7.6,8.8-10.8a44.4,44.4,0,0,1,2.2,6.1c.6,1.9,1.1,4.2,2.2,5.9.5.8,1.4,1.4,1.8,2.2a19.8,19.8,0,0,1,.6,2.6,31.954,31.954,0,0,0,2.6,4.8,30.885,30.885,0,0,0,3.6,4.5,9.428,9.428,0,0,0,1,1c-.2-.1-.3-.2-.5-.2a9.846,9.846,0,0,0,3.6,3.7c0,.1-.1.2-.1.3a56.161,56.161,0,0,0-2.5,5.6c-1.2,3.4-2.9,6.6-4,10-.6,1.8-.8,3.7-1.7,5.5-.8,1.5-1.8,2.9-2.5,4.5-1.8,3.6-2.9,7.6-4.3,11.3-1.4,3.9-3.1,7.6-4.8,11.4-1.7,3.7-3.4,7.5-4.9,11.3a23.44,23.44,0,0,1-2.3,5.1c-1.2,1.6-2.9,2.1-4.7,2.7-7.3,2-14.3,5.8-20.9,9.7Zm-85.8-110c-4.1-3.4-9.7-2.5-14.7-2.5-5.8,0-11.5,1.1-17.3,1.5a167.394,167.394,0,0,1-17.3.5,86.294,86.294,0,0,1-15.3-1.6,61.5,61.5,0,0,0-7.5-1,4.359,4.359,0,0,1-3.9-2.1c-1.1-2-.8-5-.9-7.1s-.4-4.8.5-6.8c.8-2,2.7-2.9,4.6-3.7,2.3-.9,4.6-1.8,7-2.7,9.4-3.6,19.1-7.7,29.2-8.6,2.8-.2,5.6-.3,8.5-.3,2.4-.1,4.7-.7,7.1-.9,5-.5,9.9-.6,14.8-1.7,1.4-.3,2.2.4,3.6.7a17.389,17.389,0,0,0,3.2.1,36.425,36.425,0,0,1,6.6-.2c2.6.2,5.3.4,7.9.8,2.3.4,4.6,1,7,1.3a67.606,67.606,0,0,1,7.7,1c1.3.3,3.2.6,4,1.8,1,1.6.2,4.7.1,6.5-.1,2.5-.3,5-.3,7.5a37.4,37.4,0,0,0,1,8.1c.4,1.9,1.2,4.2.8,6.2a1.692,1.692,0,0,1-2.2,1.4c-.8-.1-1.4-.9-2.2-1-1.4-.2,0,.9-.8,1.8-.6.7-1.7.5-2.6.8s-1.8.7-2.7,1.1c-2,.9-4,1.5-6,2.4-4.3,2.1-8.5,4.7-12.6,7.2-.7-2.1-1.2-5.2-2.6-6.9-1.3-1.7-3.2-2.4-4.7-3.6Zm284.6-130.2c.9-2.6,2.2-5.2,2.9-7.9.3-1,.3-2.3,1.3-2.9a8.133,8.133,0,0,1,3.1-.2h4.7c.8,0,1.9-.2,2.4.6.5.9-.3,2.4-.3,3.4a14.781,14.781,0,0,0,.7,4.2c1.6,5.9,3.2,11.7,5,17.6-1.8-.8-3.2-2.7-5.2-2.9-1.3-.1-2.3.6-3.5.8-1,.2-2,.2-3,.5-4.5,1.1-8.7,3.4-13.3,4.2a27.78,27.78,0,0,1,.8-4.9c.5-1.4,1-2.8,1.4-4.2,1-2.6,2-5.4,3-8.3Zm15-39.6c2.2-1,4.4-3.8,2.3-6.1-1.1-1.2-3.9-.6-5.3-.3-2,.4-9.8,5.5-10.7,2-.6-2.3.5-5.7,1.5-7.7a9.659,9.659,0,0,1,2.6-3.4c1.1-1,1.6-.7,3-.6,2.3.3,4.4-.4,5.9,1.8.3.4.4,1,1,1.1.5.1.7-.5,1.2-.5.8,0,.9.5,1.2,1.1.8,1.6,1.9,4.6,4.3,3.3s2.5-5.5,2.5-7.7c0-3.5.2-7,.4-10.4.1-2.8.4-5.3,2.4-7.3,1.9-2,3.4-4.7,5.7-6.2,2.6-1.7,6-1.5,8.9-1.7a60.276,60.276,0,0,1,10.4-.3,72.36,72.36,0,0,0,10.4.4c3.5-.2,6.9-.4,10.4-.5,3.3-.1,6.7.2,10-.2,1.3-.1,3.1-.6,4,.7,1,1.5.9,4.2,1.2,5.9-3.6-.7-9.4-2.3-10.8,2.7-.4,1.5.9,2.9,2,3.8,1.6,1.3,4,1.3,6,1.5,1.1.2,2.9.1,3.6,1.2.6,1.1.3,3.1.4,4.3.3,4.9,1,9.8,1.5,14.7.5,4.7.9,9.5.1,14.2-.4,2.4-1.3,4.7-1.5,7.1-.1,1.5.1,3.2-1.2,4.2-1.6,1.1-4.3,1.2-6.2,1.6-2.5.5-4.9,1.2-7.3,1.9-3.8,1.1-8.5,1.7-9.9,6-1.5,4.6-2.6,9.3-4,13.9a47.682,47.682,0,0,1-2.8,6.7,5.785,5.785,0,0,0-.9,2.8,12.538,12.538,0,0,0,1.2,3,10.1,10.1,0,0,0,2.5-1.4,15.666,15.666,0,0,0,2-2.5c1.3-1.7,2.2-3.2,4.1-4.4a3.572,3.572,0,0,1-.2,2.5,10.7,10.7,0,0,1-1.4,1.6c-1.2,1.4-2.3,2.9-3.5,4.3-2.5,2.7-5.5,4.9-8.1,7.6-2.6,2.6-5,5.7-8.2,7.7-3,1.9-6.3,3.5-9.5,5.2,2.8-6.3.9-12.7-2.5-18.4-1.5-2.6-3.4-5.1-5.2-7.6-1.4-2-4-4.7-4-7.2,0-1.4,1-2.5,1.6-3.7.7-1.2,1.3-2.6,1.9-3.9,1.2-2.7,2.8-5.5,3.3-8.4a11.343,11.343,0,0,0-1.9-8.2c-.7-.8-1.7-.7-2.6-1.3a15.531,15.531,0,0,1-2.3-2.1c-.8-.8-1.9-1.4-2.7-2.2a14.8,14.8,0,0,1-2.1-3c-1.7-2.6-3.2-5.1-4.7-7.6Zm9.5-55.6c2.6,0,4,1.5,5.2,3.6-.8,1.3-3,5.2-4.8,3.6-.3-.3-.5-.9-.9-1.2a8.265,8.265,0,0,0-1.3-.7,6.446,6.446,0,0,1-2.8-1.8c-1.4-2.3,3-3.5,4.6-3.5Zm51.2,98.2c.5-.1,1.9.8,2.4,1a13.43,13.43,0,0,1,2.7,1.3,6.623,6.623,0,0,1,1.5,2.2c.2,5.7.5,11.4.5,17.2-.2-5.7-.3-11.4-.5-17.2a24.927,24.927,0,0,0-.9,4.6c0,1.6.3,3.3.4,5,.3,3.1.6,6.2,1,9.3a48.863,48.863,0,0,1-.3,5.4c-2.3-3.2-4.5-6.4-6.8-9.5-2-2.8-4.7-3-7.9-3.2,2.1-4.2,4.2-8.5,6.3-12.7.2-.6,1.2-3.3,1.6-3.4Zm371.5,9.6c3.4-.9,6.9-2.2,10.4-2.7,3.3-.4,6.3-1.9,9.4-2.8,2.8-.8,5.7-1.5,8.4-2.5a16.146,16.146,0,0,0,6-3,7.766,7.766,0,0,0,2.3-6.5c-.4-2.7-2.4-3.1-4.7-3.9a185.394,185.394,0,0,0-36-8c-6.3-.8-12.7-1.8-19.1-1.7a81.75,81.75,0,0,1-9.9,0c-3-.2-6,.9-9,.3s-5.8.2-8.9.6c-3.2.4-6.5.6-9.7.7-3,.1-6.1,0-9,.8-2.8.8-5,1.3-7.9.4l9-9.9c6.2-6.8,12.6-14.1,16.3-22.6,1.6-3.6,2.4-8.9-.3-12.3-2.4-3-7.6-2.4-10.9-1.9a32.188,32.188,0,0,0-12,4.4c-3.5,2.2-7.4,3.9-10.6,6.5s-6.8,4.3-10,6.8c-3.3,2.6-6.6,5.1-9.9,7.6-7.2,5.5-13.2,12.4-20,18.4a107.986,107.986,0,0,0-10.2,10.1,54.925,54.925,0,0,0-4.4,5.2c-1.1,1.6-2,3.2-3.2,4.7-1.4,1.8-3.1,3.3-4.6,5.1-1.3,1.6-2.6,3.3-3.8,5.1-1.3,1.8-2.5,3.7-3.7,5.5-.7,1-1.3,2.6-2.6,2.4-1.9-.2-2.9-1.8-4.9-.7a12.165,12.165,0,0,0-1.7,1.5,13.5,13.5,0,0,1-2.6,1.5,37.053,37.053,0,0,0-5.2,3.6,65.54,65.54,0,0,0-5.3,3.9c-7,6.3-13.4,13.1-20.1,19.6-1.6,1.6-3.3,3.1-4.9,4.7-1.3,1.3-2.2,2.8-3.5,4.1-.7.7-1.6,1-2.4,1.7a14.54,14.54,0,0,0-1.9,2.3c-1.5,1.7-2.9,3.4-4.4,5.1-3,3.2-6.2,6.1-9.1,9.4-2.9,3.4-6.2,6.6-9.2,10-6.3,7.2-12.1,14.5-17.9,22-2.9,3.8-6.1,7.2-8.8,11.1a79.251,79.251,0,0,0-6.7,11.6c-.6,1.1-1.3,4.5-3.3,3.3-.7-.4-1.2-1.7-1.7-2.4-.6-1-1.2-1.9-1.8-2.9a125.933,125.933,0,0,1-7.5-12.8c-4-8.6-8-17.1-11.3-26-1.7-4.5-3.6-8.9-5.4-13.3-1.9-4.4-3.3-8.9-5.1-13.3-3.6-8.7-8.4-17-13.2-25.1-4.4-7.5-9-15.2-15.1-21.4-3.2-3.3-5.7-7.1-9.1-10.2-1.7-1.6-3.5-3.1-5.2-4.7-1.2-1.2-2.3-2.9-3.8-3.6a7.781,7.781,0,0,0-3.4-.4c-.9,0-1.9-.2-2.8-.2-.8.1-1.1.8-1.9.9a2.211,2.211,0,0,1-1.9-.6c-3.9-2.7-9.2-3.8-13.6-5.4,2.8-1.7,6.2-1.8,9.3-2.5a20.084,20.084,0,0,0,7.3-3.3c4.8-3.6,5.6-9.3,6.4-14.9,1-6.4,1.8-13.2.9-19.7-.8-6.3-1.7-12.7-2.7-19a53.407,53.407,0,0,0-2-9c-.7-2.4-1.7-4.9-1.6-7.5,0-1.3.1-3.2,1-4.1.7-.7,1.7-1,2.5-1.7a19.065,19.065,0,0,0,4.3-5.5c.9-1.7,2.3-4.2,1.5-6.1-.9-2.1-3.8-2.5-5.8-3-5.8-1.5-11.7-1.3-17.6-2.1-2.8-.4-5.8-1.2-8.6-1.2s-5.6.1-8.4,0a141.317,141.317,0,0,0-18.4.4c-1.6.2-3.2.3-4.8.4-1.3.1-2.2.7-3.5.9a21.3,21.3,0,0,1-2.5-.3,11.533,11.533,0,0,0-3.7.2c-2.6.5-4.6,2.1-7.2,2.7a6.738,6.738,0,0,0-4.6,3.3c-2.6,4.5-2.7,10.7-3,15.7-.3,6,.2,12-.1,17.9-.1,1.4-.2,2-1.8,1.9-2.1-.2-4-.8-6.2-.2-4.1,1.1-6.7,4.8-8.3,8.5a27.019,27.019,0,0,0-2.3,12.5c.2,3.7,1.6,8.5,5.7,9.6,2.2.6,4.4-.3,6.5-1,2-.6,3.7-2.4,4.8.1,2.2,5,4.3,9.5,7.8,13.9-3.2-.2-6.4-.5-9.7-.7-2.1-.1-5.1-.7-7.2.1-1.2.5-1.2,1.3-2.1,2.1s-2.8.5-3.9.4c-3.5-.1-6.7-.7-10.2-.4-2.6.3-4.9,1.6-7.5,2a49.472,49.472,0,0,0-9.2,3c-2.8,1.1-5.5,2.3-8.4,3.2a88.176,88.176,0,0,0-8.6,3.1c-5,2.3-9.2,6-13.6,9.1a27.96,27.96,0,0,0-3.5,2.5c-.9.8-1.5,1.8-2.3,2.5-1.4,1.3-3,1.2-4.5,1.9a42.864,42.864,0,0,0-4.4,3c-1.3.9-2.5,1.7-3.8,2.6-2.4,1.6-4.7,3.6-7.3,4.9-4.8,2.4-8.5,6.2-12.4,9.9-4.2,3.9-8.8,7.4-12.9,11.4a105.972,105.972,0,0,0-11,13.1c-3.4,4.9-6.2,10.2-9.4,15.2a76.793,76.793,0,0,1-5,6.3,34.327,34.327,0,0,0-2.4,3.3c-.7,1-1.1,2.3-2.1,3.1-1.9,1.5-3.9,2.4-5.5,4.4a67.974,67.974,0,0,0-4.8,7.1c-3,4.8-5.8,9.8-8.4,14.9a8.85,8.85,0,0,0-.9,4.2c-.1,1.3-.5,2.5-.7,3.7-.4,2-.1,4.1-.7,6.1-.3,1.3-1.2,1.5-2.2,2.2a20.936,20.936,0,0,0-2.8,2.4,64.105,64.105,0,0,1-5.5,4.9,68.234,68.234,0,0,0-5.8,4.9,55.048,55.048,0,0,1-5.4,5.4c-4.4,3.6-8.5,7.5-12.8,11.1-4.5,3.8-8.5,8-12.6,12.1-4.2,4.3-8.7,8.4-13.2,12.5-.3-4.9-.6-9.8-1-14.7a118.341,118.341,0,0,0-2.7-15.6c-.9-4.6-1.6-9.6-3.1-14-1.1-3.1-3.2-5.6-6.4-6.3-1.6-.4-4.1.4-4.9-1.4s-.9-4.6-1.2-6.5c-1.4-8.6,1.4-18.1-2.2-26.3-1.6-3.6-4.4-5.4-7.9-7-4.5-2-9.5-1.5-14.2-2.5-2.2-.5-3.9-1.6-6.2-1.7s-4.6,0-6.8.1c-2.4.1-4.7-.4-7-.4-2.1,0-3.7,1.4-5.7,1.1-2.3-.4-4.1-.9-6.4-.3a20.868,20.868,0,0,1-6.1.8c-2.6.1-5.2-.2-7.8,0-2.4.1-4.7.8-7,1.1a104.836,104.836,0,0,0-14.7,2.5,147.643,147.643,0,0,0-14.1,5c-7.5,2.8-16.1,4.9-18.2,13.8a45.668,45.668,0,0,0-.8,15.2c.5,4,1.4,8.5,3.8,11.9,2.5,3.6,6.8,4.7,10.8,6,4.6,1.4,9.4,1.7,14.1,2.5a73.513,73.513,0,0,0,14.8,1.5c5-.1,9.8-1.4,14.8-1.8,5.1-.4,10.2-1,15.3-1.5,3.4-.3,10-1.3,11.7,2.6.5,1.2,1.3,2.7.3,3.8a45.447,45.447,0,0,0-3.3,4.1,16.669,16.669,0,0,0-3,6.3,43.587,43.587,0,0,0-.5,7.2c-.1,10,2.4,20.1,4.9,29.7,2.5,10,5.4,20,8.9,29.8,3.4,9.3,5.9,18.9,9.9,28a80.849,80.849,0,0,0,7.4,12.7c2.3,3.5,4.4,7.6,7.9,10.1a15.762,15.762,0,0,0,10.1,2.9c4.2-.3,8.3-2.9,12-4.8,9-4.5,17.2-10.7,25.3-16.7,3.9-2.9,7.4-6.2,11.5-8.7a50.243,50.243,0,0,1,12.6-6c-3.8,7.9-7.2,16-11.2,23.8-3.9,7.7-7.2,15.7-10.8,23.6-1.5,3.2-3.6,6.1-5.1,9.3-1.6,3.7-3.3,7.4-4.9,11.1-3,6.8-6.2,13.5-8.9,20.4-.6,1.6-.3,3.5-1.1,4.8a33.024,33.024,0,0,0-2.3,4.1c-1.3,3.2-2.4,6.5-3.9,9.7-3.3,7-5.4,14.6-8.6,21.7s-6.1,14.3-8.9,21.6c-1.4,3.6-3,7.1-4.3,10.7-1.2,3.3-2.3,6.7-4.3,9.7-4.3,6.5-7.6,13.6-10.9,20.7-1.5,3.4-2.9,6.7-3.1,10.4-.2,3.4,1.9,6.1,3.6,8.8-3.1,1.5-5.9,3.5-8.9,5.1-3.3,1.7-6.7,3-10.1,4.4-3.5,1.4-6.9,2.8-10.4,4.2-3,1.3-5.8,2.8-8.8,4.2-2.8,1.4-5.3,3.1-8,4.8-2.9,1.7-5.7,3.4-8.6,5.2-5.6,3.4-11,6.9-16.9,9.8-3.1,1.5-6.1,3-9.2,4.6-2.5,1.3-5.3,2.4-7.1,4.6a9.9,9.9,0,0,0,.1,11.9c1.7,2.2,5.9,2,8.4,2.1a22.808,22.808,0,0,0,5.2-.4c1.4-.3,2.6-1,4-1.4a40.68,40.68,0,0,1,4.9-.5c1.6-.2,3.1-.5,4.7-.8,3.3-.7,6.7-1.5,10-2.2s6.5-1.4,9.7-2.3a14.648,14.648,0,0,1,4.1-1.1,30.879,30.879,0,0,0,4.3-.1c1.5-.3,3-.7,4.6-.9,1.4-.2,2.9,0,4.3-.2,1.6-.3,3.1-1,4.6-1.4a16.32,16.32,0,0,1,4.4-.3c-3.8,3-7.8,5.7-11.7,8.5-3.9,2.9-7.6,6.1-11.4,9.1-3.1,2.5-6.9,4.9-8.8,8.5a15.108,15.108,0,0,0-1.2,9.6c.8,4,3.7,4.5,7.3,4.7,4.6.3,8.2-1.6,12.2-3.6,7.9-3.9,15.5-8.4,23-13a128.062,128.062,0,0,1,11.7-5.9c2.1-1,4.2-2,6.2-3,1.7-.8,3.9-2.4,5.8-2.2-5.2,10.7-10.6,21.3-15.1,32.3a47.916,47.916,0,0,0-3.8,14.4c-.3,3.5-.1,10.4,4.3,11.6,2,.5,3.7-.8,5-2.1,1.9-1.8,3.6-3.9,5.4-5.8,3.5-3.8,7.2-7.3,11-10.8a142.777,142.777,0,0,0,11.2-10.8c3.3-3.7,7.5-6.5,10.6-10.4,3.2-4,6.1-8.2,9.4-12.1,2.1-2.6,3.9-6.7,7.6-7.2.5,3.1,3.2,5.8,5,8.3a97.382,97.382,0,0,0,14.1,14.6,49.882,49.882,0,0,0,15.4,9.8c3.8,1.5,11.8,4.9,14.8.3,1.4-2.2.7-6.5.1-8.9-.7-3.4-2.4-6.5-3.8-9.6-3-6.3-6.3-12.3-9.7-18.4-1.7-3.1-3.3-6.1-5.2-9.1-1.6-2.6-3.8-5.1-4.6-8a8.143,8.143,0,0,1-.1-4.1c.4-1.3,1-1.1,2.1-1.2,2.6-.4,1.8-5.1,1.5-7a24.424,24.424,0,0,0-1.5-4.8c-.5-1.3-1.6-3.1-1.6-4.6.1-1.4,1.4-2.8,1.9-4,.6-1.4,1-2.9,1.5-4.4,2-6.8,4.7-13.4,6.3-20.3a180.933,180.933,0,0,1,5.9-20.3c2.5-6.9,5.3-13.7,7.6-20.7,2.2-6.8,4.5-13.5,6.9-20.3,4.9-13.5,10.2-26.8,16.1-39.9,5.8-12.9,12.3-25.5,17.3-38.8,2.4-6.4,4.8-12.7,7-19.1,2.3-6.7,4.8-13.2,7.5-19.7,2.8-6.7,5-13.5,7.4-20.3,2.3-6.7,4.3-13.6,7.2-20.1a13.615,13.615,0,0,1,1.9,2.3,14.558,14.558,0,0,0,1.7,2.6,22.845,22.845,0,0,0,4.6,3.6,7.526,7.526,0,0,0,3,1.7h.1a1.268,1.268,0,0,0-.6.1c1.4,1,2.9,2,4.4,3a2.01,2.01,0,0,0-.4-.8c.5.8,1,1.6,2,1.8h-.2c.7.5,3.1,2.9,2.9.3.1.4-.1.7.1,1.2a3.775,3.775,0,0,0,1,1.2,14.339,14.339,0,0,0,2.3,2c1.9,1.4,4,2.6,5.9,4,.5.4,2.4,2.6,3,2.6,1.2,1,2.4,2.1,3.6,3.1-.5-1.6-.9-3.2-1.4-4.8.3,1.2.7,2.3,1,3.5a5.36,5.36,0,0,0,2,2.7c1.8,1.6,3.5,3.2,5.3,4.7,3.3,2.7,7.2,4.9,10.8,7.3,1.9,1.3,3.9,2.7,5.7,4.1,1.5,1.2,3.4,1.6,4.9,2.7a40.974,40.974,0,0,1,5.2,5,22.324,22.324,0,0,1,4.2,5c1.2,2.1,1.2,4.9,1.5,7.3.4,2.4.7,4.8,1.1,7.2.7,4.9,1.4,9.9,2,14.8s1.3,9.7,1.7,14.6.3,9.9.9,14.8a295.456,295.456,0,0,0,4.5,29.7c2.1,9.8,3.5,19.8,5.4,29.6,1,5.1,2,10.1,3,15.2l1.5,7.5c.4,2.1.2,4.1.6,6.2a18.568,18.568,0,0,1,.5,3.4c0,1.1-.7,2.1-.7,3.1-.1,1.4,1.2,3.6,2,4.7,1.2,1.7,2.8,3.2,4.1,4.7,1.4,1.5,1.9,2.1,1.4,4.2-2.1,9,3.2,16.5,8.9,22.8,6.3,7,12.5,13.7,19.7,19.7,3.8,3.2,7.3,6.6,10.9,9.9a74.828,74.828,0,0,0,11.2,8.2c4.1,2.5,8.4,4.3,12.7,6.5a96.5,96.5,0,0,0,12.7,5.7c4.2,1.5,8.5,2.8,12.6,4.6a13.216,13.216,0,0,0,10.5,0c2.2-.9,4-2.6,6-3.9,1.8-1.2,3.7-2.4,5.6-3.5,3.1-1.8,6.2-3.9,7.6-7.5,1.6-4.2.2-9.2-.7-13.4a35.607,35.607,0,0,0-5.2-12c-2.4-3.9-5.4-7.2-8.1-10.9-2.8-3.7-5.4-7.7-8.4-11.3a101.56,101.56,0,0,0-9.4-10.3c-3.3-3.3-6.2-6.9-9.3-10.4-.7-.8-1.9-1.7-2-2.9-.1-1,.6-1.8.9-2.7.7-1.8.5-3.7.5-5.6a5.2,5.2,0,0,1,.5-2.7c.4-.8,1.2-1.1,1.5-1.9a9.863,9.863,0,0,0,.3-2.4,11.663,11.663,0,0,1,1-2.6c.8-2.3-.2-5-.6-7.3-.4-2.2-.8-4.3-1.2-6.5-.9-4.7-1.5-9.3-3-13.9-3-9.2-5.9-18.3-6.1-28.1-.1-4.9-1.5-9.6-2.6-14.3-1.2-5-2.4-10-3.7-15-2.4-9.6-5.2-19-7.6-28.6-2.4-9.5-4.6-19.1-7.5-28.5a185.935,185.935,0,0,0-11.3-27.4,59.244,59.244,0,0,0-7.4-11.7c-3.2-3.8-6.4-7.5-9.7-11.3l-19.8-22.5a94.813,94.813,0,0,0-10.6-10.4c-3.5-2.8-8.2-5.1-9.3-9.7-.3-1.3-.5-2.6-.9-3.9a8.279,8.279,0,0,1-.7-2.7c.2-1.6,3.1-2.2,4.3-2.8,4.1-1.9,8.3-3.7,12.4-5.8a59.525,59.525,0,0,0,6.3-3.9c1.8-1.2,3.8-1.5,5.7-2.1a69.756,69.756,0,0,0,12.5-5.5c4.2-2.2,8.4-4.4,12.5-6.9a64.933,64.933,0,0,0,10.8-8.8c1.6-1.5,2.7-.7,3.8.9,1.3,1.9,2.8,3.8,4.2,5.7a8.511,8.511,0,0,0,2.1,2.5.1.1,0,0,1,.1.1c-.2-.1-.3-.1-.5-.2.3,2.4,2.1,4,3.7,5.7-.1-.4-.3-.8-.4-1.2a12.23,12.23,0,0,0,1.7,2.9c1.5,1.9,3.1,3.6,4.8,5.4.9.9,1.8,1.8,2.7,2.6.4.3.7.7,1.1,1a4.366,4.366,0,0,0,1.5,1c1.2.6,1.5,1.5,2.6,2.3,1.6,1.2,3.6,1.9,5.3,3.1,1.4.9,2.5,2.8,4.1,3.2.6.1,1,0,1.4.5.6.6,0,.6.9.8.5.1,1-.2,1.5,0a6.706,6.706,0,0,1,1.4.9c1,.7,2,1.4,2.9,2.1,1.8,1.3,3.5,2.6,5.3,3.9,3.5,2.6,6.6,5.6,10.1,8.2a65.345,65.345,0,0,0,5.6,3.5c1.6,1,2.9,2.3,4.4,3.4,1.8,1.3,3.9,1.9,5.7,3.1a62.622,62.622,0,0,0,5.5,3.4,114.706,114.706,0,0,0,12.7,6.2,43.789,43.789,0,0,0,13.8,3.5,33.7,33.7,0,0,0,14-2.8c4.4-1.8,8.8-3.8,13-6,4.1-2.2,7.9-4.8,11.9-7.2,4-2.3,7.9-4.8,11.7-7.4,3.7-2.5,7.1-5.3,11.1-7.4s7.5-4.8,11.3-7.2c3.9-2.5,7.7-5.1,11.5-7.6,8-5.3,16-10.8,23.5-16.7a99.631,99.631,0,0,0,10.4-9.1c3.4-3.6,7.5-6.6,11.2-9.8,3.6-3.5,7.2-7,10.8-10.4h0l-10.8,10.5c1.7-.3,2.8-1.4,4.2-2.5s2.9-2.3,4.3-3.4c2.1-1.7,4.4-3.4,4.2-6.4a32.176,32.176,0,0,1,2.8-2.4,53.322,53.322,0,0,1,5.1-3.1c3.4-2.3,6.4-5.2,9.6-7.7,1.4-1.1,2.7-2,2.9-3.9a45.584,45.584,0,0,0-.1-6.4c0-1.6-.5-3.9.1-5.4s2.7-2.2,4-2.9c3.8-2.1,7.5-4.3,11.3-6.3a28.137,28.137,0,0,1,11.2-3.8c1.9-.2,3.6-.4,5.5-.7s3.7.3,5.5.6c4.2.8,8.5,1.2,12.7,2s8.4,1.8,12.6,2.9c4.2,1,8.4,2.1,12.6,2.9a46.735,46.735,0,0,1,6.5,1.3c1.6.5,3.1,1.2,4.8,1.6,4,.9,8,1,11.9,2.3a68.206,68.206,0,0,0,11.9,2.6c2.1.3,4.2.7,6.3,1.1a7.726,7.726,0,0,0,3.7.1,8.342,8.342,0,0,0,5.7-5.4c2.3-7.1-2.2-14.7-6.8-19.8-5-5.4-11.2-9.2-17.1-13.4,2.4-.3,4.7.1,7.1.1,2,0,4-.1,6,.1,4.5.2,9-1.1,13.5-1.2,6.1-.1,13.6-1.4,15.2-8.3,1.5-6.5-5.4-12.3-10.3-15.2-3.1-1.9-6.3-3.6-9.4-5.6-3.3-2.1-7.4-3.4-11-4.8a88.656,88.656,0,0,0-11.3-3.9c-3.7-1-7.4-1.5-11-3,3.2-1.4,6.7-1.7,10.2-2.4,4-.9,7.4-1.7,10.8-2.7Z" fill-rule="evenodd"/><path id="Fill-56" d="M952.281,463.924a3.187,3.187,0,0,1-2.8,2.6,66.49,66.49,0,0,1-7.8,1c-4.6.6-9.4.8-14,1.9a50.3,50.3,0,0,0-12.4,4.7c1.3-6,2.7-11.9,2.2-18.1-.4-4.5-.5-11.4-5.1-14-1.1-.6-2.7-.4-3.9-.4-1.5-.1-3.1-.2-4.6-.2-3-.2-6.1-.5-9.1-.8-6-.6-11.9-1.3-17.9-2.2-1-.1-2.7,0-3.4-.9-.5-.6-.3-1.6-.2-2.3a44.6,44.6,0,0,0-.3-7.3,84.528,84.528,0,0,0-3.8-15.6c-.8-2.6-1.7-5.1-2.5-7.7-.4-1.2-1.3-2.9,0-3.8.8-.6,2.3-.5,3.3-.8,1.2-.3,2.3-.7,3.4-1,2.7-.9,5.3-1.8,8-2.7,10.1-3.4,20.3-6.5,30.4-10l4.2-1.5c.6-.2,1.7-.7,2.3-.5.8.3.6,1.2,1.2,1.7a14.273,14.273,0,0,0,2.2.8c1.6.9,2.6,2.5,3.8,3.8,1.6,1.6,3.4,3.1,4.9,4.8,6.4,6.8,11.1,14.9,15,23.3a34.039,34.039,0,0,1,2.4,7c.6,2.3,1.4,4.5,1.8,6.8.8,5.4.9,11,1.5,16.5.8,4.7,2.3,10.3,1.2,14.9m-40.4-12.3a48.814,48.814,0,0,1-1,10.8,79.114,79.114,0,0,1-3.6,10.7c-1.2,3.3-2.3,6.7-3.7,9.9s-3.2,6.1-4.4,9.4c-2.3,6.8-6.4,12.7-9.2,19.2a194.958,194.958,0,0,1-9.7,19.4,71.021,71.021,0,0,1-5.5,9.1,43.754,43.754,0,0,1-3.6,3.9c-1.1,1-1.6.2-2.9.5-1.9.3-2.9,2.8-4.1,4.1a96.93,96.93,0,0,1-7.3,7c-2.6,2.2-5.5,4.1-8.2,6.2a47.581,47.581,0,0,1-8.1,5.4c-5.8,3-12.5,6.6-19.2,6.3-3.1-.1-4.7-2.2-6-4.8-1.4-2.8-.9-6.2-.7-9.3a21.736,21.736,0,0,1,3.1-10c1.9-3.1,0-5-1.9-7.5-4.3-5.7-10-10.1-15.2-14.9-2.7-2.5-5.3-5-8-7.5-1.5-1.4-2.9-2.8-4.4-4.2-1.1-1-2.1-1.7-2.5-3.1,2.9-1.6,6-2.9,8.7-4.9,5.5-4,10.5-8.9,15.7-13.3a49.925,49.925,0,0,0,6.5-7.3c1.9-2.5,4.1-4.8,5.8-7.5,3.6-5.8,7.7-11.5,10.5-17.6a52.158,52.158,0,0,0,2.9-9.5c.4-2,1-3.9,1.5-5.9.3-1.3.4-3.4,1.2-4.5,1.5-1.9,6.2,1.2,7.9,1.7a65.565,65.565,0,0,0,10,2c7.1,1.1,14.2,2,21.3,3.4,3.7.7,7.4,1.5,11.1,1.9a79.31,79.31,0,0,0,10.9.1c.8,0,1.7.1,2.3-.6.3-.4.1-.9.6-1.3.6-.5,1.4-.2,2.2-.2,1.5.2,2.9.2,4.4.4a9.283,9.283,0,0,1,2.4.3c.4.3.2,1.4.2,2.2m-102.1,97.3a29.2,29.2,0,0,0-2.7,12,25.39,25.39,0,0,0,.7,6.1c.4,1.7,1.4,3.7,1,5.5-4.3-2-8.5-4.1-12.9-5.9-3.8-1.6-6.6-4.3-9.8-6.8-3.4-2.8-6.4-5.8-9.6-8.7-3.5-3.1-7.1-6.1-10.6-9.1-6.3-5.4-11.5-11.5-16.7-18-4.5-5.7-11-13-10.7-20.7.1-3.6.4-7.6,2.2-10.9a24.613,24.613,0,0,1,6.6-7.4c2.4-1.7,4.7,2.6,6,4.1,2.9,3.3,5.8,6.5,8.7,9.7,5.5,6.1,10.8,12.5,16.8,18.2s12.2,11.3,18.7,16.5c3.3,2.6,6.8,5,9.8,8,1.1,1.1,3.2,2.3,3.9,3.6s-.8,2.6-1.4,3.8m148.2-84.4c-.9-.1-.9,0-.9-.9a21.984,21.984,0,0,1,.5-4.4,104.963,104.963,0,0,0-.2-20.2c-1.1-13-3.8-25.8-10.6-37a66.909,66.909,0,0,0-11.1-14.3,68.887,68.887,0,0,0-6.3-5.7c-1.1-.8-2.8-1.3-3.8-2.1-.6-.5-.8-1.4-1.3-2-1.9-2.4-4-3-7-2.7a51.027,51.027,0,0,0-9.4,2.1c-6.4,1.8-12.5,4.8-18.7,7.2s-12.4,4.9-18.5,7.5c-2.7,1.1-5.9,2-8.3,3.7a3.933,3.933,0,0,0-1.7,4c.5,6.1,2.8,12.1,4.5,17.9a95.047,95.047,0,0,1,3.8,19.1c-6.3-.5-12.7-.9-19-1.7-3.2-.4-6.3-.7-9.5-1.2a7.4,7.4,0,0,1-3.7-1.7c-1.2-.7-1.7-.1-2.2,1-2.6,5.9-3.6,12.3-6.3,18.1-1.2,2.6-2.8,5.1-4.1,7.7a68.288,68.288,0,0,1-4.9,8.2c-.8,1.2-1.9,2.2-2.8,3.3-.8,1.1-1.4,2.3-2.2,3.4a55.155,55.155,0,0,1-5.5,6.3c-2,2-3.9,4-5.8,6.1-1.9,2-4.1,3.7-6.1,5.6-1.9,1.8-3.5,3.8-5.4,5.6-1.8,1.7-2.7,4.1-4.7,5.6-1.1.8-2.2,1.5-3.3,2.3-.9.7-1.8,1.9-3,1.7-1.4-.3-2.5-2.1-3.3-3.1-1.1-1.2-2.2-2.5-3.4-3.7-4.4-4.8-9-9.5-13.4-14.2-2.2-2.3-4.6-4.4-6.7-6.8-1.5-1.7-4.1-3-6.2-1.8-2.2,1.2-4.8,2.2-6.6,4-1.9,1.9-3.4,4.5-5,6.7a18.192,18.192,0,0,0-2.7,7.8,37.348,37.348,0,0,0-.7,8.8c.4,5.7,1.5,12,4.7,16.7a44.762,44.762,0,0,0,5.6,5.9c2.1,2.1,3.5,4.7,5.3,7.1a92.8,92.8,0,0,0,11.9,13.2c2,1.9,4.4,3.6,6.4,5.5a63.287,63.287,0,0,0,6.9,5.7c2.5,1.8,4.6,4.1,6.9,6.1a82.983,82.983,0,0,0,7.4,5.9,54.622,54.622,0,0,0,15.8,7.5c6.4,1.9,12.5,4.4,18.9,6.4,3,1,6-.4,8.9-1.3a58.661,58.661,0,0,0,8.6-3.7c5.5-3.1,10.8-6.7,16.2-10a59.324,59.324,0,0,0,14.6-12.3c4.1-4.7,8.4-9.5,12.2-14.5,7.6-10.2,12.2-22.3,17.8-33.7,3-6,6-12,8.5-18.2,1.2-3.1,2.3-6.2,3.6-9.3a2.556,2.556,0,0,1,2.4-2c1.6-.3,3.3-.4,5-.6,6.5-.8,12.9-1.9,19.3-3,6-1,12-2.1,17.4-5.1a7.133,7.133,0,0,0,3.1-2.6c.3-.5,1-3.3.6-3.8-.6-.1-2.1,0-2.5-.1" fill-rule="evenodd"/><path id="Fill-58" d="M691.481,53.524c2.1-1.1,4.2-2.1,6.3-3.1,4.5-2.2,8.9-4.5,13.4-6.6,2-.9,4.2-1.5,6.3-2.3a54.413,54.413,0,0,0,6.5-3,138.824,138.824,0,0,1,13.8-5.8c1.4-.5,2.9-1.1,4.3-1.6a15.555,15.555,0,0,1,3.6-1.3c1.8-.2,3.2,1.6,4.4,2.8,6.7,6,11.4,15,14.3,23.4a85.608,85.608,0,0,1,3.1,14.2,80.911,80.911,0,0,1,1.8,14.7c0,5.1.6,10.1.3,15.1-.1,1.9.3,5.3-.8,6.9-1.1,1.7-3.7,2.1-5.4,2.8-9.3,3.4-18.6,7-28.1,10-9.8,3.1-19.6,6.2-29.5,9.4.4-2.8.9-5.6,1.2-8.4a71.184,71.184,0,0,0,.1-8,83.618,83.618,0,0,0-1.4-17.3c-2.1-10.4-5.6-20.6-11.3-29.6a51.954,51.954,0,0,0-4.6-5.9c-.6-.7-2.5-2.3-2.4-3.3.2-1.6,3.1-2.6,4.1-3.1m111.8-1.2c2.2.1,3.5.6,3.7,2.9.2,2.9.1,5.9.3,8.8.2,5.6.4,11.3.3,16.9-.3,9.9-1.3,19.7-4.3,29.1-1.5,4.6-3.2,9-5.1,13.4-1.8,4.3-4.4,8.1-6.7,12.1a25.252,25.252,0,0,1-3.9,5.2,2.838,2.838,0,0,1-2.1,1.3,18.845,18.845,0,0,1-3.4-.2c-5-.4-10-.9-15-1.1s-9.9,0-14.9-.3c-2.3-.1-4.5-.9-6.8-1.2-2.3-.4-4.6-.5-6.9-.8-1.2-.1-1.2.1-1.3-.9a12.1,12.1,0,0,1,.1-1.9c.1-1.1.1-2.3.2-3.4.1-1-.1-2.8.3-3.8.4-.9,1.2-1,2-1.2a126.179,126.179,0,0,0,13.5-4.6c4.5-1.8,9.1-3.5,13.6-5.5,1.9-.8,4.1-1.6,5.6-3.2a11.958,11.958,0,0,0,2.4-4.6c2.9-9.1,2-19.7,1.1-29.1-.9-9.7-2.3-19.6-5.8-28.7,10.8.2,22,.3,33.1.8m-124.4,8.4c3.1,1.2,5,3.9,6.9,6.5a73.222,73.222,0,0,1,6.1,10.1,87.876,87.876,0,0,1,7.5,23.8c1.3,7.8,2,16.5.5,24.4-.4,2.1-1.5,3.8-2.1,5.8a10.236,10.236,0,0,0,.2,4.6c.5,1.9,2.3,1.3,3.8.9,2.2-.4,4.4-.9,6.5-1.4,8.2-1.7,16.4-4.8,24.7-5.4-.7,2.2-1.1,4.2-2.5,6.2-1.3,1.8-3.1,3.3-3.9,5.5a9.789,9.789,0,0,0-.1,6.1c.7,1.9,2.4,1.9,4.1,2.2,5,.6,9.9,1.4,14.9,1.7a11.428,11.428,0,0,0,3.2,0,6.343,6.343,0,0,1,2.3-.3,33.741,33.741,0,0,0,3.4.9,19.3,19.3,0,0,0,3.4,0c4.2-.2,8.3.3,12.5-.1,1.2-.1,3.5-.8,4.7-.1s.3,2.2.9,3.3c.8,1.3,3.5.7,4.8.6a11.439,11.439,0,0,0,5.2-1.3,30.765,30.765,0,0,0,9-7,55.646,55.646,0,0,0,6.4-10.1,96.022,96.022,0,0,0,5.4-11.2,87.881,87.881,0,0,0,3.9-12.3c.9-4.2,1.4-8.4,2.2-12.7a99.586,99.586,0,0,0,1.2-13.3,127.05,127.05,0,0,0,0-13.8c-.3-4.5-.8-9-1.3-13.5-.1-1.2-.1-2.3-.2-3.5-.1-.8-.5-1.5-.6-2.3-.1-1.5,1.3-2.5,1.3-4.2-.1-3.8-4.1-5.2-7-6.1a33.919,33.919,0,0,0-12.2-1.6c-8.7.6-17.6.7-25.8,3.9-4.3-7.3-8.2-15.2-15.2-20.4a9.626,9.626,0,0,1-2.2-1.8,8.8,8.8,0,0,0-1.2-2.1c-1.4-1.6-3.2-1.8-5.2-1.4a70.546,70.546,0,0,0-12.7,3.6c-1.8.7-3.8,1.1-5.6,1.8s-3.5,1.6-5.2,2.4c-3.7,1.8-7.6,3.4-11.3,5.3a167.7,167.7,0,0,0-21.8,12.4c-3.3,2.3-7.1,4.7-10,7.6a5.805,5.805,0,0,0-1.6,4.7c.3,1.8,1.3,1.1,2.7,1.6" fill-rule="evenodd"/><path id="Fill-60" d="M188.381,75.024c.4-4.8.2-9.5.6-14.3a106.561,106.561,0,0,1,2.1-13.6,57.923,57.923,0,0,1,4.4-12.7c1-2.3,2-4.6,3-7,.6-1.4,1-2.9,2.7-3.3,2.2-.5,4.8-.1,7-.2,2.3-.1,4.5-.2,6.7-.4,4.9-.4,9.7-1.1,14.6-1.7,4.7-.5,9.3-.8,13.9-1.7,2.4-.5,4.7-1.1,7.1-1.6,1.8-.4,4.2-1.5,6-1.1a38.418,38.418,0,0,0-2.9,15.7c0,2.1-.3,3-2.5,2.9-2.8-.2-5.5-.4-8.3-.8-5.2-.6-10.3-1.5-15.5-2.4-2.4-.4-4.8-1-7.2-1.6-1.7-.4-2.4.3-3,1.8a3.408,3.408,0,0,1-1.6,2.3,21.284,21.284,0,0,0-2.5,1.6,19.632,19.632,0,0,0-3.7,3.9,42.75,42.75,0,0,0-5.1,10.8,95.545,95.545,0,0,0-5.4,29.5c-.2,5.1-1,10-1,15.1,0,2.2.5,5.1-1.3,6.7s-4.2,2.7-6.2,4c-1.8-5.1-2.2-10.5-2.3-15.9a142.468,142.468,0,0,1,.4-16m75.5-27c2.2.6,4.5,1.1,6.7,1.6-3.8,9.2-3.7,19.3-4,29.1a114.66,114.66,0,0,0,.4,13.1,119.827,119.827,0,0,0,2.3,13.1c.2,1,.7,2.5,0,3.4-.7,1-3,1.5-4,1.9-3.9,1.8-7.8,3.7-11.8,5.3-4.1,1.6-8.3,2.6-12.2,4.4s-7.8,3.5-11.8,4.9-8.1,2.5-11.9,4.2a48.374,48.374,0,0,0-9.7,6.5,67.656,67.656,0,0,1-2.9-17.9c-.3-5.8-.8-11.9-.2-17.8a50.825,50.825,0,0,0,.2-7.8c0-2.4.5-4.7.7-7.1.4-5.2.4-10.4,1.1-15.7,1.3-9.8,4-20.3,9.4-28.7a10.814,10.814,0,0,1,1.1-1.8c.8-.7.5-.5,1.6,0,1,.5,1.9,1,2.9,1.5,2.1.9,4.4,1.3,6.6,2,2.4.7,4.7,1.8,7.2,2.2s5,.4,7.4.8c1.4.2,2.6.7,3.9,1a17.61,17.61,0,0,0,3.3.3c2.2.2,4.3.8,6.5,1,2.5.3,4.7-.2,7.2.5m-80.9,42.5a70.792,70.792,0,0,0,4.7,17.5c.8,1.8,1.6,4.3,3.8,4.8,2,.5,4.4-1,6.3-1.5,1.5,8.7,2.1,17.8,6,26,.5,1,1.1,2.9,2.2,3.6,1,.7,2.3,0,3.3-.4a119.151,119.151,0,0,1,13.3-3.8c2.2-.6,4.4-1,6.6-1.8a36.2,36.2,0,0,1,5.3-1.7,72.015,72.015,0,0,0,11.2-3.3c7.8-2.8,15.6-5.2,22.8-9.4a107.645,107.645,0,0,0,10.2-6.3c2.6-2,5.5-4.9,4.2-8.4-.4-1.1-1.4-2.8-2.7-3.2-1.1-.3-2.2.7-3.2,1-1.6.4-1.2-.9-1.4-2.2a25.351,25.351,0,0,0-.4-2.9c-.2-2.1-.5-4.1-.7-6.2-.8-8.5-.4-17.1-.4-25.6,0-4.3,1-8,2-12.2l1.5-6.6a7.036,7.036,0,0,0,.2-3.8c-.8-2.8-4.8-3.5-7.1-4.3a46.3,46.3,0,0,0-6.1-1.7c-1.1-.2-4.2,0-4.9-1-.7-.9.1-4,.2-5.2a62,62,0,0,1,.6-6.2c.4-3.3.4-6.4-2.3-8.9,1.7-1.3,2.8-4.1.4-5.4a14.541,14.541,0,0,0-9.4-.9c-3.2.8-6.7.8-10,1.2-3.5.4-7,.8-10.5,1.3-6,.8-12.1.9-18.1,2.1-3,.6-5.9,1.1-8.9,1.5-3.1.5-5,.9-6.8,3.5-3.5,5-6.8,10-8.7,15.8a76.3,76.3,0,0,0-3.3,17,165.131,165.131,0,0,0-.6,18.6,149.483,149.483,0,0,0,.7,19" fill-rule="evenodd"/><path id="Fill-62" d="M56.881,335.824c.4-.6,1.4-.8,2-1,.9-.4,1.7-.8,2.6-1.3a108.574,108.574,0,0,0,12.1-7.8c.9-.7,3.3-3.3,4.6-2.9.7.2,1,1.3,1.3,1.9a25.432,25.432,0,0,0,1.6,2.8,48.473,48.473,0,0,0,8.3,9.8c5.9,5.4,12.7,8.9,20.9,9.3-5.3,7.2-10.3,14.6-16.3,21.2-3,3.3-6.3,6.3-9.5,9.6a4.428,4.428,0,0,1-1.5,1.2,4.981,4.981,0,0,0-1.9,1,3.831,3.831,0,0,0-.8,3.7c-5.6.2-11.6-2.3-16.7-4.3a69.048,69.048,0,0,1-8.7-4.1,19.451,19.451,0,0,1-5.4-4c5.1-2.7,10.3-5.3,15.2-8.4,3.3-2.1,9.2-4.6,8.8-9.5a3,3,0,0,0-1-2.1c-1-.6-1.2.1-2.1.3-1.5.3-3.2-1.6-4.3-2.5-3-2.3-6-4.8-7.8-8.1-.6-1-2.1-3.7-1.4-4.8m-31.1,43.1c.8-2.7-3-4.8-4.7-6.1a24.834,24.834,0,0,1-6.1-6.8c-6.7-10.6-9.1-23.6-8.6-36,.2-3.4.5-6.9.6-10.3a22.4,22.4,0,0,1,.3-5.2c.4-1.7.8-3.3,1.2-5,.8-3.3,1.2-6.7,2.2-10a47.869,47.869,0,0,1,3.6-8.8c1-1.9,1.9-4.5,4.4-4.2,3.2.5,6.2,2.1,9.3,2.9,3.4.9,6.8,1.7,10.3,2.5,3.3.8,6.6,1.9,9.9,2.6a23.25,23.25,0,0,0,5.3.5c.8,0,2.2-.1,2.2,1,.1,1.2-1.7,2.4-2.4,3.1a11.2,11.2,0,0,0-2.4,3.3,43.731,43.731,0,0,0-3.1,9.9,69.071,69.071,0,0,0-.4,10.2,53.005,53.005,0,0,0,3.3,19.7c2.2,5.8,5.7,9.7,10.4,13.6-4.9,2.5-9.9,4.9-14.8,7.4-4.5,2.2-9,4.1-12.8,7.4a20.1,20.1,0,0,0-4.5,4.7c-1.4,2.2.6,3.7,2.7,2.8,2.3-1,4.6-2.1,6.8-3.1,1.5-.7,3.9-2.6,5.6-2.5,1.5,0,2,1.9,2.6,2.9a22.127,22.127,0,0,0,3.7,4.4,41.59,41.59,0,0,0,10.2,6.9,48.317,48.317,0,0,0,12.9,4,35.87,35.87,0,0,0,7.3.5c1.8-.1,4.4-.1,6.1-1,1.4-.8.7-2.4,2.1-3.2,1.5-.8,3.1-1.5,4.5-2.4,3.4-2.3,5.4-5.2,7.4-8.6,4.6-8,10.2-15.3,13.6-23.9.8-2,1.3-4.4,2.6-6.2.9-1.2,2.8-1.9,3-3.4s-.4-4.8-1.9-5.5c-1.7-.8-4.2-.8-6.1-1.3-8.1-1.9-15.7-4.8-22.2-10.2a61.683,61.683,0,0,1-4.6-4.3c-1.1-1.1-2.2-2.3-2-4,.2-1.5,1.4-3.7-1.1-4.1-1.6-.3-3.9.6-5.2,1.4-4,2.5-7.7,5.6-11.6,8.4-3.5,2.5-7.1,5-10.6,7.4.4-5.9.2-12.2,1.6-17.9a29.051,29.051,0,0,1,3.4-7.9c1.6-2.5,2.8-5.1,4.2-7.7.8.4,2,1.4,2.7.3.4-.7.1-2.7,0-3.5-1.2-6.3-10.7-6.9-15.6-8-7-1.5-14.1-3.4-21.2-4.5-3.3-.5-6.6-.6-9.9-.8-1.7-.1-3.7-.5-4.7,1.2-.3.5-.3,1.1-.6,1.5-.3.3-1.1.7-1.5,1a17.148,17.148,0,0,0-2.9,3.1,36.785,36.785,0,0,0-4,7.6,71.971,71.971,0,0,0-5.1,19.9,108.276,108.276,0,0,0-1,21.3c.8,13,4.4,26.2,12.6,36.6a20.049,20.049,0,0,0,6.6,5.7c1.5.7,5.6,3.1,6.4.7" fill-rule="evenodd"/><path id="Fill-65" d="M118.981,531.824c-2.5,3.3-5.1,6.5-7.3,9.9-2.3,3.5-4.5,7-6.7,10.5a91.628,91.628,0,0,0-6.3,10.3c-1,2.1-1.1,4.9-3.8,4.8a22.682,22.682,0,0,1-10.2-2.9,42.882,42.882,0,0,1-15.7-14.2,87.432,87.432,0,0,1-9.7-20.5c-1.3-3.9-2.3-8-3.3-12a26.723,26.723,0,0,1-1-6.2c0-.9.1-1.9.1-2.8s.5-2.4-.5-2.5c.3-2.5.6-5.1.9-7.6.2-1.8.2-3.9,1.8-5.1,1.5-1.2,3.9-1.2,5.7-1.6,2.2-.5,4.3-1.1,6.5-1.7a116.39,116.39,0,0,0,12.8-4.9c2.1-.9,4.2-1.8,6.2-2.9,1.6-.9,2.8-2.3,4-.2,7.6,14.5,13.2,30.8,25.6,42,1,.9,2.7,2,2.8,3.5.2,1.7-1.1,3-1.9,4.1m10-10.3c-1.8-1.2-3.9-1.4-5.7-2.5-2-1.3-3.4-4.2-4.8-6.1-3.3-4.6-6.7-9.2-9.7-14-2.7-4.4-5.2-8.9-7.8-13.3a57.436,57.436,0,0,0-4.3-6.6c-.7-.9-2.4-4.1-3.8-3.9-.7.1-.7.8-1.2,1a2.152,2.152,0,0,1-.8,0c-1,.1-2-.4-3-.3-2.5.2-5.1,1.3-7.5,2-4.9,1.5-9.6,3.6-14.5,5.3-4.8,1.7-10.2,2.8-14.6,5.5-1.7,1-3.7,2.7-2,4.8.6.8,1.5.8,2.2,1.4.6.5.3.8.2,1.6a7.719,7.719,0,0,0-.2,1.5c-.8,5.1-1.4,10.2-.7,15.3a100.48,100.48,0,0,0,3.3,15.4c4.6,15.9,12.8,34.8,29,41.8,3.8,1.6,7.5,2,11.5,2.8a10.187,10.187,0,0,1,3.4,1.4,3,3,0,0,0,1.8.6c1.5-.2,2.7-2.5,3.3-3.5,2.6-4.1,5.5-7.9,8.2-11.9a59.816,59.816,0,0,0,3.8-6.4c.7-1.3,1.1-3.4,2.9-3.4.5.7,1,1.3,1.5,2,.2.3.5.6.6.8.4.7.3.2.2,1.1a8.027,8.027,0,0,1-1.9,3.2c-3.8,5.1-7.8,10.2-11.8,15.2a128.563,128.563,0,0,1-12.5,14.1,5.438,5.438,0,0,1-3.3,2c-1.3.1-2.6-.6-3.9-.8-2.7-.5-5.5-.6-8.1-1.4-1.4-.4-2.5-1.2-3.9-1.3a6.931,6.931,0,0,1-3.1-.9c-2.4-1.4-5-2.2-7.4-3.6a51.382,51.382,0,0,1-13.7-11.3c-1.9-2.3-3.4-4.8-5.3-7.1a66.965,66.965,0,0,1-5.1-6.8,71.263,71.263,0,0,1-7.4-15.2c-1-2.8-1.5-4.6,1-6.6a46.146,46.146,0,0,0,6.3-6.2c.9-1.1,5.1-5.2,2-5.9-1.7-.4-4.4,2.5-5.7,3.6a38.841,38.841,0,0,1-6.6,4.6c-2.7,1.4-2.8,3.1-2.7,6,.1,5.9,2.3,11.7,4.6,17a80.822,80.822,0,0,0,8.8,15.7c6.8,9.3,14.3,18.7,24.8,24a50.154,50.154,0,0,0,16.5,4.6,69.614,69.614,0,0,0,10.2.4,14.91,14.91,0,0,0,4.7-.3c1.1-.4,1.3-1.2,1.7-2.2,1-2.4,3.5-3.7,5.2-5.6,1.8-2.1,3.7-4,5.6-6,4-4.3,6.7-9.5,9.9-14.4,1.8-2.7,3.7-5.4,5.3-8.2a29.393,29.393,0,0,0,3.3-8c.3-2.1-1.3-5.1-3.6-5.2-1.2-.1-2.2.9-3.4,1a6.7,6.7,0,0,0-2,0c1.9-4.7,4.8-9.1,7-13.7,1.2-2.6,2.4-5.2,3.5-7.8.8-2.2,1.8-3.8-.3-5.3" fill-rule="evenodd"/><path id="Fill-67" d="M159.981,148.824c3.8,8.8,9.9,15.8,16.2,22.9a68.786,68.786,0,0,0,10.7,10.2c3.7,2.8,7.5,5.6,11.3,8.4-3.8,4.9-8,9.3-12.2,13.8-3.9,4.2-7.8,8.4-10.3,13.5-.3-2.5-1.9-4-4-5a37.78,37.78,0,0,1-7.5-4.4,122.075,122.075,0,0,1-13.7-13.2c-8.6-9.5-14-21.5-20-32.6,9.8-4.5,19.6-9,29.5-13.6m-31.6,22.2a84.378,84.378,0,0,0,5.5,11.8,121.39,121.39,0,0,0,6.1,11.2,64.1,64.1,0,0,0,15.8,18.2,67.772,67.772,0,0,0,10.2,6.5,10.378,10.378,0,0,0,5.4,1.4c1.2-.1,2.8-1.1,3.7-.2s.6,2.8,2.6,1.9a18.19,18.19,0,0,0,4.2-3.6c3-3.2,6-6.4,8.9-9.8a109.72,109.72,0,0,0,7.5-10.4c1.3-2,2.6-3.9,3.9-5.9.9-1.4,2.2-2.8,2.2-4.6-.1-3.5-4.4-5.8-6.8-7.7a65.914,65.914,0,0,1-8.2-7.6c-2.7-3-6.1-5.5-9-8.4a116.2,116.2,0,0,1-8.8-9.8,101.865,101.865,0,0,1-6.4-8.3c-1.5-2.3-3.2-4-6.1-3.6a41.093,41.093,0,0,0-6.9,1.8c-2.3.9-4.4,1.9-6.6,2.9-4,1.8-7.6,4.1-11.5,6.2a20.675,20.675,0,0,0-2.5,1.5c-.4.3-.9,1-1.3,1.2-.3.2-.6.1-1,.2-1.6.4-2.1,1.3-2.9,2.7-1.3,2.2-1.2,3.4-.1,5.6.9,2.3,1.3,4.6,2.1,6.8" fill-rule="evenodd"/><path id="Fill-69" d="M284.681,280.324c1,1.6,2.6.8,3.5-.3,2.8-3.4,5.4-7,7.9-10.6a117.414,117.414,0,0,1,7.7-10.8c2.9-3.4,5.8-6.8,8.8-10.2,11.2-12.5,22.6-24.7,34.9-36,3-2.8,6.1-5.5,9-8.4,1.3-1.3,2.8-2.7,2.8-4.7a4.887,4.887,0,0,0-2.2-3.8c-2.7-1.6-6.2,2.2-8.2,3.6a42.3,42.3,0,0,1-4.7,2.5,29.813,29.813,0,0,0-4,3c-2.7,2.4-5.5,4.4-8.2,6.7-2.7,2.4-5.2,5.1-7.9,7.5-2.9,2.6-6,4.8-8.5,7.7s-4.7,6.1-7.3,8.9c-5.6,6-10.2,12.8-15,19.4a49.576,49.576,0,0,0-5.6,10.4c-.8,1.8-1.5,3.6-2.3,5.5a23.784,23.784,0,0,0-1.1,5.3c.4.2.1,3.7.4,4.3" fill-rule="evenodd"/><path id="Fill-71" d="M907.681,575.924c2.1-2.5,3.5-6.2,5-9.1,1.6-3.1,3.2-6,3.9-9.5.3-1.7.5-3.4.9-5.1a12.275,12.275,0,0,0,.7-4.6c-.2-1.7-1-6.9-3.6-6.3-1.5.3-1.2,2-1.2,3.1a13.364,13.364,0,0,1-.6,4c-.9,3.1-3.2,5.8-4.6,8.7a33.235,33.235,0,0,1-5.1,7.7,49.175,49.175,0,0,1-6.6,6.3c-2.1,1.7-4.5,2.9-6,5.2-.9,1.4-1,1.8-2.7,2.1a10.163,10.163,0,0,0-3.7,1.6c-1.3.9-2.2,2-3.6,2.6-1.3.5-2.6.8-3.9,1.3-3,1.1-5.6,3-8.7,4l-4.8,1.5c-1.3.4-2.8.6-3.9,1.5-1.8,1.5-2.8,5.2-1.2,7.1,1.7,2.1,5.6.8,7.8.5,0,.1.1.3.1.4a104.049,104.049,0,0,0,11.1-2.3,31.779,31.779,0,0,0,5.3-2.4,26.945,26.945,0,0,1,4.5-1.6,6.873,6.873,0,0,0,3.4-2.4c1.1-1.5,1.6-1.1,3.3-1.5,2.8-.6,5.2-3.8,7.1-5.7a95.118,95.118,0,0,0,7.1-7.1" fill-rule="evenodd"/><path id="Fill-73" d="M377.881,128.724c.6-1,2.9-2,3.9-2.6,1.4-.9,2.8-1.8,4.2-2.8,2.5-1.8,4.2-.6,6.4,1.1a13.72,13.72,0,0,1,5.4,12.4c0,1.5.4,3.9-.7,5.1s-3.3,1-4.7,1.3c-1.9.4-4.7,2.7-6.6,2.1-1.7-.6-1.1-3.6-1.2-5a14.193,14.193,0,0,0-2.6-6.9,14.382,14.382,0,0,0-2.8-2.7c-.9-.6-1.9-1-1.3-2m-7.4,7.5a26.043,26.043,0,0,1,4.7,1.6,11.135,11.135,0,0,1,3.1,1.5c1.3,1.2.8,3.1,1.1,4.6a4.689,4.689,0,0,1,.3,2.6c-.4,1.1-1.5,1.3-2.1,2.2-.9,1.3.2,3.2,1,4.3,1.3,1.9,3,.9,5,.7a34.006,34.006,0,0,0,7.1-1.2c1.9-.6,3.4-2.1,4.8-.1.5.7.6,1.4,1.7,1.1.9-.2,1.8-1.4,2.3-2,3.7-3.8,4.6-8.9,4.7-14,.2-5.6-1.9-10.9-4.8-15.7a10.277,10.277,0,0,0-2.1-2.9c-.9-.8-2-1.1-2.8-1.9-1.2-1.3-.9-4-2.8-4.6-2-.6-4.9,1.8-6.4,2.9-2.1,1.5-4.2,3-6.3,4.6-4.4,3.4-9.4,6.6-13.4,10.5a3.758,3.758,0,0,0-.5,5.2c1.3,1.3,3.6.3,5.4.6" fill-rule="evenodd"/><path id="Fill-75" d="M607.581,539.824a83.444,83.444,0,0,0-4.1-14.6c-1.1-3.1-3.7-8.4-7.9-8.1-4.6.3-1.5,6.3-1.1,8.6,1.7,9.3,2.7,18.7,4.1,28,.7,4.6.9,9.4,2,13.9a38.273,38.273,0,0,0,2.2,6.5c.6,1.3,1.3,3.1,2.8,3.7,4.5,1.8,3.4-6.1,3.3-8.1-.1-4.8-.2-9.6-.4-14.4h.4c-.5-5.1-.4-10.3-1.3-15.5" fill-rule="evenodd"/><path id="Fill-77" d="M70.681,627.024c-2.5.8-4.3,1.4-7,1.2-1.9-.2-3.7-.6-5.6-.8a47.988,47.988,0,0,1-13.9-3.9,46.335,46.335,0,0,1-11.2-6.9,45.337,45.337,0,0,1-4.9-4.9,6.213,6.213,0,0,0-3.9-2.4,21.991,21.991,0,0,0,2.2,6.7,45.853,45.853,0,0,0,3.3,5.2,37.633,37.633,0,0,0,9.1,8.7,36.536,36.536,0,0,0,11.3,5.3c2.3.6,4.6.9,6.9,1.4a20.428,20.428,0,0,0,6.5.5c2.1-.3,4.2-.4,6.3-.9a19.477,19.477,0,0,0,4.5-2.4c2.6-1.9-.3-7.9-3.6-6.8" fill-rule="evenodd"/><path id="Fill-79" d="M151.381,64.024c1.2,1.6,3.9,1.7,3.7-.8a24.74,24.74,0,0,0-1.6-6.5,21.223,21.223,0,0,1-.6-6.7,75.449,75.449,0,0,1,1.1-15.7c1-5,1.6-10.1,2.7-15.1,1.1-4.9,3.1-9.5,4.3-14.4.4-1.5.7-4.4-1.5-4.8-1.8-.3-2.9,2.3-3.6,3.5-2.4,4-4.9,7.7-6.3,12.2a66.3,66.3,0,0,0-2.7,12.5c-.5,4.4-.4,8.9-.7,13.3.4,5.1.2,10.8,1.9,15.8a24.626,24.626,0,0,0,3.3,6.7" fill-rule="evenodd"/><path id="Fill-82" d="M840.881,84.224c-.7,1.7-1.1,3.6.2,5.2,2.3,3,5.8-3.8,6.4-5.7,1.2-4.1,2.7-8.2,3.3-12.4.7-4.3.4-8.9.5-13.3a86.929,86.929,0,0,0-2.3-15.3c-1.1-4.5-2.2-9-5.9-12-1.5-1.2-2.5-.3-2.8,1.5a9.817,9.817,0,0,0,1.2,5.6c2.1,4,2.1,8.7,2.6,13.2.9,8.9,1.4,17.8-.9,26.6a46.7,46.7,0,0,1-2.3,6.6" fill-rule="evenodd"/><path id="Fill-84" d="M74.781,184.024q.75,3,1.8,6a47.428,47.428,0,0,0,5.6,10.7,60.083,60.083,0,0,0,14.3,14.6c1.8,1.3,6.2,4.8,8.5,3.6,3.2-1.6-1.1-5.8-2.4-7-2.7-2.5-5.3-5-8-7.5s-4.7-5.7-6.9-8.6c-2.2-3-4.3-6-6.2-9.2-1-1.6-1.9-3.3-2.9-4.9a22.018,22.018,0,0,0-3.3-3.5c-.9.4-.8.4-1.1,1.2a7.084,7.084,0,0,0-.1,1.4c.2,1.1.5,2.1.7,3.2" fill-rule="evenodd"/><path id="Fill-86" d="M304.281,215.424c5.1-4.6,10.6-8.5,15.4-13.4,1.2-1.2,2.1-2,1.1-3.6-.7-1.1-1.5-1.7-2.7-.9-2.8,1.8-5.5,4.1-8.2,6.1-5.6,4.1-11.3,8.1-16.3,12.9a40.937,40.937,0,0,0-6.1,7.1c-1.9,2.7-3.2,5.5-1.2,8.5,6-5.5,11.9-11.2,18-16.7" fill-rule="evenodd"/><path id="Fill-88" d="M921.881,593.224c-.9-.2-2.4.8-3.1,1.2-2.7,1.8-5.5,3.4-8.2,5.1-2.5,1.6-5,3.2-7.4,4.9-2.1,1.4-3.4,3.1-2.7,5.7.3,1.2.9,2.6,2.3,1.9a27.51,27.51,0,0,1,3-1.4,58.964,58.964,0,0,0,8.2-3.4c4.5-2.5,8.7-6.3,9.4-11.7-.5-.7-.6-2.1-1.5-2.3" fill-rule="evenodd"/><path id="Fill-90" d="M624.981,538.924c-.9-1-2-1-2.5.2s.1,3.4.3,4.6c.3,2,.6,4,1,6.1.2,1.2.4,4.8,1.9,5.3,2.4.7,2.4-5,2.6-6.2l-1.5-5.1c-.5-1.5-.7-3.7-1.8-4.9" fill-rule="evenodd"/><path id="Fill-92" d="M225.481,439.424c-.6-.3-1-.2-1.1-.8s.8-1.1.9-1.6c.5-1.7-1.3.1-2,.6.6,1.5,1.2,3.1,1.9,4.6a18.028,18.028,0,0,1,2.1-.8c-.7-1-.8-1.6-1.8-2" fill-rule="evenodd"/><path id="Fill-94" d="M557.281,160.024c1.2.4,2.9-.1,4.1-.4a14.793,14.793,0,0,0,3.6-1c2.7-1.1,2.5-4.3,1.9-6.8-.9-3.4-2.7-6.6-4.3-9.8-.8-1.6-1.5-3.3-2.2-4.9-.5-1.3-1.2-3-2.9-3-2.5,0-1.3,5.9-.9,7.3,1,3.5,2.9,6.8,4.4,10.1a30.954,30.954,0,0,1-4.3.2c-1.5,0-1.9,0-2.3,1.7-.5,2.5.2,5.7,2.9,6.6" fill-rule="evenodd"/><path id="Fill-96" d="M534.681,131.124c2.7-.2,5.4-.4,8.1-.8,2-.2,5.4-.3,6.8-1.8,1-1.1.8-3.4-.1-4.5-1-1.3-3.3-.8-4.8-.8a26.677,26.677,0,0,0-11.5,2.4c-1.3.6-4.3,1.8-4,3.6.5,2.3,3.8,2,5.5,1.9" fill-rule="evenodd"/><path id="Fill-98" d="M545.881,162.224c-2.3.6-1.8,4.4-1.1,6,1,2.4,3.7,3,6.1,2.9,1.2-.1,2.8.3,3.7-.7a3.839,3.839,0,0,0,.2-4c-.8-1.4-2.9-2.2-4.3-2.9-1.2-.4-3.2-1.6-4.6-1.3" fill-rule="evenodd"/><path id="Fill-100" d="M546.181,142.224c.2-2.2-1.1-7.2-4-7-1.4.1-2.6,2.1-2.9,3.3a8.694,8.694,0,0,0,.4,3.9c.6,2.1,1.4,5.2,4.1,4.8,2.4-.5,2.4-3.2,2.4-5" fill-rule="evenodd"/><path id="Fill-102" d="M567.481,144.424a2.04,2.04,0,0,0,2.3.6c1.2-.6,1-2,1-3.1.1,0,.3-.1.4-.1-.7-1.9-1.2-6-3.6-6.6-2.4-.5-2.6,2.1-2.3,3.8.3,1.8.9,4.1,2.2,5.4" fill-rule="evenodd"/><path id="Fill-104" d="M492.481,144.224c-1.2.1-3.4.7-3.2,2.2.3,2.2,3.7,2.6,5.4,2.8,2,.2,4.9,0,2.9-2.5a6.49,6.49,0,0,0-5.1-2.5" fill-rule="evenodd"/><path id="Fill-108" d="M392.481,403.224c-.4.8-.8,1.7-1.3,2.5,1.3.2,2.7.3,4,.5.1-1.1-2-2.4-2.7-3" fill-rule="evenodd"/></g></g></svg>