<svg id="Layer_1" data-name="Layer 1" xmlns="http://www.w3.org/2000/svg" viewBox="0 0 833.618 651.39"><title>1</title><g id="Character_unboxing" data-name="Character/unboxing"><path id="Accent" d="M208.243,362.129q7.05,53.4,14.2,106.8l3.8,28.7c.5,3.6,0,10.8,1.9,14,.7,1.1,2.4,1.7,3.6,2.4,4.3,2.3,8.7,4.7,13,7q54.9,29.55,109.9,59,52.8,28.35,105.5,56.6c3.6,2,9.5,7,13.4,5.7,3.7-1.3,7.5-4.4,10.9-6.4l19.5-11.4q59.1-34.65,118.1-69.2c16.2-9.5,32.5-19,48.7-28.6,4.4-2.6,8.9-5.2,13.3-7.8,2.3-1.4,2.6-1.3,3.5-3.6,3.4-8.6,5-18.5,7.4-27.5,2.7-9.9,5.3-19.8,8-29.6,1.2-4.4.6-5-1.3-9.2-3.8-8.4-7.7-16.9-11.5-25.3q-12.75-28.05-25.6-56.1c-3.4-7.6-11.7-12.9-17.7-18.4l-92.8-86.4c-2.4-2.2-4.7-4.4-7.1-6.6-.4,13.2-3,27.4.8,40.1,6.3,20.9,12.5,41.8,18.8,62.7,3,10.1,6.1,20.2,9.1,30.3.6,1.9,4,9.3,3.1,11-.5.9-4.8,1.8-5.8,2.2-4,1.5-8.1,3.1-12.1,4.6-11.2,4.3-22.5,8.5-33.7,12.8-10.1,3.8-20.2,7.7-30.3,11.5-3.4,1.3-7.4,3.7-11.1,3.5-3.2-.2-6.9-1.8-10-2.6-5.5-1.4-11-2.8-16.5-4.3l-32.4-8.4c-12.2-3.1-22.4-12.3-32.8-19.1q-26.85-17.551-53.6-35.1c-4.1-2.7-4.1-4.2-5.7-9.1-3.7-11-7.3-22-11-33-2-5.9-4.4-11.8-5.8-17.8-2.4-9.9-3.9-20.2-5.8-30.2-.6-3-1.2-6.1-1.7-9.1-7.5,3-15,6.1-22.5,9.1-1.1.4-6.4,1.8-6.8,2.8-.3.7,1.3,3.8,1.5,4.4l18.6,55.2c2,5.8,3.9,11.6,5.9,17.4-4.7-7.3-9.3-14.7-14-22-3.7,12.3-7.3,24.7-11,37-8.7-10-17.3-20-26-30l-9,30c-9.3-12.3-18.7-24.7-28-37-1.1,6.4-2.2,12.9-3.3,19.3-.3,1.9-.3,7.5-1.6,9.1-1,1.2-4,.6-6,.6" fill="#34558b" fill-rule="evenodd"/><g id="Ink"><path id="ink-shape" d="M799.143,439.029c-.5,16.8-.2,38.5-9.3,53.2-1.5,2.4-6.5,9.8-7.1,3.3-.5-6.4,1-12.7-.5-19.2-.8-3.5-3.6-11-8.4-7.9-2.4,1.6-3.1,5.5-4,8-1.4,3.7-3,7.3-4.5,10.9-5.2,12.7-10.6,27.9-22.1,36.3,1.5-11,5.6-22.7,2.9-33.8-.9-3.8-3.8-10.7-8.7-8.5-4.8,2.2-7.9,11.8-10.2,16.1-6.9,13-13.9,25.8-21.6,38.3a102.188,102.188,0,0,1-13.2,17.4c-3.2,3.4-7.2,9.1-12.2,9.6,0-9.6,3.2-18.9,6-27.9,3.1-9.7,5.9-19.5,9-29.3,2.6-8.5,4.8-16.8,6.6-25.5.7-3.6,1.3-7.3,4.4-9.6,2.7-2.1,7.1-3.1,10.1-4.6a240.856,240.856,0,0,0,23.8-13.3c3.1-2,5.7-4.7,8.9-6.5a101.366,101.366,0,0,0,10.5-6.4c14.6-11,27.8-24.6,36.6-40.7,1.4,6.5,3.3,12.8,3.6,19.5,0,6.9-.4,13.8-.6,20.6m-120.2,77c-2.3-3.9-5.9-2.3-9-.4-4.9,3-9.7,5.9-14.6,8.8-10,5.9-19.7,12.2-29.4,18.5-19.8,12.8-40.3,23.3-61.1,34.1-20.2,10.5-39.5,23-58.4,35.6-4.5,3-9.1,6.1-13.4,9.4-3.9,2.9-7,7-11,9.6-4.2,2.7-7.2.5-11.2-1.5-5.1-2.5-10.4-4.6-15.6-6.8-20.9-9.1-41.9-18.5-62.3-28.8-20.2-10.2-39.4-22-58.8-33.8-9.2-5.6-18.3-11.5-27.4-17.3-9.7-6.2-19.7-10.8-29.9-16-4.5-2.3-8.5-5.5-13.1-7.6-4.9-2.2-10-3.8-14.3-7-2-1.4-3.6-3.1-5.8-4.2-1.8-.8-3.9-1-5.7-1.9-3.7-1.8-4.7-5.4-5.4-9.2-4.6-24.3-7-49.3-9.7-74-1.5-13.8-3.2-27.6-5.2-41.4-.9-6.2.9-11,1.9-17.1,1.1-7.1,1.6-14.2,2.4-21.3,3.6,6.7,6.8,13.8,11.4,19.9,3.4,4.5,9.2,10.9,15.5,10.8,9.7-.2,9.3-16.9,9.7-23.5,4.4,4,5.8,10.4,9.5,15,3.4,4.2,7.9,9.4,13.1,11.3,10.9,4,9.8-16.2,9.2-21.9-.3-2.9-1.9-7.4,1.9-6.1,3.5,1.2,7,6.2,10,8.5,5.1,4,10.8,7.2,16,11,6.5,4.7,13.6,8.1,20.3,12.4,4.2,2.7,8.7,3.3,13.3,5.4,6.7,2.9,12.5,7.3,18.9,10.9a220.388,220.388,0,0,0,40.2,17.5c4.4,1.4,10.4,5.2,13.7,1.3,2.1-2.4,3.4-6.1,5.2-8.9,2.2-3.4,4.6-6.8,7.1-10.1a231.411,231.411,0,0,1,29.2-32.6,238.508,238.508,0,0,1,40.9-30.4c6.3-3.7,32.6-20.2,38.4-8.6-4.7-.3-8.9,1.4-12.9,3.6-1,.5-6.1,4.2-4.9,1-1.5.3-2.8,2.2-3.9,3.1a56.38,56.38,0,0,1-7.1,4.4c-2.2,1.2-5,1.5-7,3-.7.5-1.2,1.4-1.9,2h-2c-.3,1.1-.6,2.2-.9,3.4-1.1-3.7-2.8,1.1-4.7,2.7a22.983,22.983,0,0,1-4.3,2.5c-1,.4-1.2-.6-2.1.2-.9.7-1.4,2.3-2.4,3.1a34.84,34.84,0,0,1-3.9,2.8c-2.5,1.8-5.1,3.2-7.5,4.8-3.4,2.3-5.1,6.1-8.4,8.5-1.5,1.1-3.9,1.2-4.8,2-2.1,1.8-1.4,4.5-5.3,4.6a3.226,3.226,0,0,1,.6,1.8,4.871,4.871,0,0,1-2.5-1.2c.2,3.9-3.7,5.3-6,7.7a26.905,26.905,0,0,0-3.9,5,15.657,15.657,0,0,0-.5,2.5c-.4.2-2.5-1.7-2.3-1.6-.6,3.6-4.1,7-5.6,10.3-.8,1.8-1.6,4.6-3.2,5.8-.4.3-1.8,0-2.8,1.1a11.749,11.749,0,0,0-2.1,3.6c-.2.8,0,2.7-.3,3.2-.6.8-1.5,0-2.4.6-1.7,1.1-1.7,2.9-4.1,3.1,1.7,4.1,11.8,5.3,15.4,6.5,10.4,3.3,21.2,6.5,30.9,11.5,2.5,1.3,4.9,2.4,5.3,5.3.6,4.1-1.5,9.6-1.9,13.8a301.63,301.63,0,0,0-1.1,34.3c.2,10.7.6,21.6,1.1,32.3.5,10,2.5,19.7,3.6,29.6.3,2.7.1,14.9,4.8,14.3,3.9-.5,1.4-8.9,1.4-11.3-.2-5.3,1-10.7.9-16.1,0-2.6,1.1-4.8,1.2-7.2s-1.1-4.4-.7-6.9c.3-2.4,7.5-16.3.6-14.7.4-2,.8-4,1.3-6a10.179,10.179,0,0,1,1.8,2.3c.6-4.3.4-8.5.8-12.8.2-1.9,1-4.1.7-6a6.606,6.606,0,0,0-.3-2.4,2.175,2.175,0,0,0-1.6-.7,2.305,2.305,0,0,1,.2-2.4,1.71,1.71,0,0,1,1.5-1.3c1.4-.2,1.6-1,.5-2.4a19,19,0,0,0,.2-7.5c-.3-2.4.9-7-.4-9.2-1.5-2.5-2.3-.1-2.5-3.5a7.625,7.625,0,0,1,.2-3c.3-.8,1.3-.5,1.4-.8.8-1.9.9-5.7-2.1-5.4.1-1.4.2-2.8.4-4.1,2.2,2.5,1.4.4,2.6-1,1.6-1.9,3.3-2.2,5.6-2.9,6.3-2,12.3-4.9,18.4-7.3,13-5.1,26.2-9.6,38.8-15.5,26.5-12.6,52.5-26.2,79.1-38.5-1.9-3.5-.7-3.7.7-7,1.9,1.3,1.5.4,2.8.3-.1-1.1.2-1.4,1-1a4.421,4.421,0,0,0,2,.2c1.7.3,3,1.2,4.5,1.5a4.812,4.812,0,0,0,1.6.8,2.851,2.851,0,0,0,1.4-.8c2.4.5,3.2,2.3,3.4,4.9,0,.5-1.4.9-1,1.6.7,1.1,2.6.8,3.7,1-.2,1.1-.5,2.2-.7,3.4,4.8-2.2,3.5,4.7,5,6.9.4.6,1.3.1,1.8.9.6,1,.4,2.3.9,3.3,1.2,2.1,2.3,1.9,3.5,4.3,6.1,12.8,14.2,24.8,20.1,37.9,2.8,6.2,5.3,12.6,8.2,18.8,2.7,5.7,4.2,10.5,2.3,16.8-4.4,14.4-9.2,29.1-15,43.1a2.058,2.058,0,0,1-1.7-1.1m-309.3,107.8-1.2,2.1c-.9-5.3,1.5-2.8,1.2-2.1m-19.5-10c-1.3-.4-.8-2.6-.7-3.5a39.756,39.756,0,0,1,2.4,3.3,11.135,11.135,0,0,1-1.7.2m-53.6-20.4c1.4-.8,2.4-1.3,4-2.2-1.7,3.1-1.7,3.1-4,2.2m-84.4-276.9c-2.1,5.2,4.4,37.7-1.7,38.7-.9-2.8-1-10.7-4.6-11.6-4.5-1.2-4,6.9-4.6,9.4-9.2-6.4-13.3-18.7-17.6-28.5-5.6-12.5-10-25.4-14.2-38.4-3.6-11.1-6.6-22.4-10.2-33.5-2.3-7-4.7-13.9-6.3-21.1-.3-1.6-1.6-5.5-.5-7,1.6-2.2,7.4.3,9.3.9,12.2,3.7,24.8,5.2,37.3,7.4,13.9,2.4,27.8,4.8,41.8,6.6,3.5.5,7,.9,10.5,1.3,2.3.3,5.7,0,7.9,1,4.4,2.1,5.3,9.9,6.9,14,6,15.3,13.2,30,19.5,45.1,5.7,13.6,10.1,28.1,18.3,40.5-6.1-2.7-13.9-17.1-20.8-8.8-3,3.6-2.2,8.3-2,12.6.3,6.2.4,12.4.4,18.6-6.7-1.7-11.2-9.4-14.8-14.8a71.439,71.439,0,0,1-10-22.8c-.9-3.7-3.4-3.8-5.6-6-1.4-1.4-2.1-3.3-4.1-1.3-2.5,2.6-.8,9.7-.4,12.8,1,7.2,4.4,18.4,1.1,25.2-4.5,9.2-16.4-13.9-17.8-17.3-.5-1.7-13.2-34.2-17.8-23m-8.3-157.5c.8.1,1.5.2,2.3.3-.6.5-1.9,2.4-2.9,1.9.2-.6.4-1.4.6-2.2m39.8-8.5c-.2.3-.5.5-.7.8-1.1-1.3-.7-3.3-.7-4.9a3.514,3.514,0,0,1,1.4,4.1m3.2,15v4.4c-2.9-1.3-3-2,0-4.4m3.7,5.6c-2.1-.6-2.3-1-2-4.3.8,1.8,1.4,3,2,4.3m12,32.6c-.9,2.3-6-3.1-5.8-4.7.2-1.5,1-2,2.1-1,.4.3-.2,1.5.1,1.9.7,1.5,2.4,2.7,3.6,3.8m.1,13.6c-1.3,3.2-3.6-1.8-.2-2a6.478,6.478,0,0,1,.2,2m-2.5-5.1a24.258,24.258,0,0,1-1.4-2c1.7.3,3.1,2.9,4.9,1.2-.3,2.6-2.1,2.6-3.5.8m-111.8-41.6c-2.8-3,15.3-5.2,17.5-5.7a255.339,255.339,0,0,0,45.7-16c7.1-3.2,14.1-6.4,21-10,3-1.5,7.1-2.8,9.6-5.1,1.8-1.6,1.7-2.9,4-3.9,2-.8,2.1,0,3-1.5.5-.9,1.2-4.2.8-5.2-.9-2.7-2.1-.5-3.9-2.3-1.3-1.3-1-5.1-.6-6.6a4.9,4.9,0,0,1,.8,2.4c1.9-1,1.2-4.2,3.3-4.8,2.2-.6,2,1.2,2.6,3,1.7-2.5.3-4.6-.6-7,4.6-.9,9.6-1.7,14.2-.2,3.3,1.1,6.2,3.9,9.7,4.4,3.4.5,4.1-1.1,6.6-2.8,2.1-1.3,3.8.2,4.9-.8-.7,3.4-6.3,3-5.6,7.2.3,1.9,2.7,3.7,3.8,5.2a30.071,30.071,0,0,1,3.3,6.1c3.6,8.3,5.1,17.8,6.6,26.7,3.7,21.8,4.2,44,7.7,65.9,1.7,10.4,3.3,20.8,4.2,31.4.2,2.6,1.8,8.6.5,11.1-1.1,2.1-3.6,2.1-5.8,2.7a109.6,109.6,0,0,0-12.3,3.9c-3.7,1.4-4.7,2.2-7.1-1.2-2.3-3.3-3.4-7.3-5-10.9-2.1-4.6-4.6-9.1-7-13.6,4.7,0,7.4-2.5,7.3-7.3-.1-5.3-4.5-6.6-6.3-10.9-1.7,2.3-1.9,2.3-3.1.2-1.4-2.5-2.4-7-3.3-9.8.6.7,1.2,1.3,1.9,2,1.6-2.2-.9-5.6-1.7-7.6-1.3-3.1-1.5-6.5-2.7-9.7-.7-1.7-2.2-3.1-2.6-4.8-.2-1.2.7-2.3.5-3.5-.4-2.1-2.8-4.4-3.5-6.5-1.1-3.3-2.4-6.2-3.8-9.4-1.9-4.4-1.5-8.9-1.8-13.6-.4-4.8-1.9-9.4-2.4-14.2-.4-3.3.8-7.5-1.7-10.1-.3,4.4,1,4.3-3.2,5.1-4.7.9-8.1,4.4-12.6,5.5-.9.2-1.6-3.8-1.2,1.7-2.1-1.6-6.7.4-5,1.3-1.3,1.4-3.8.4-4.3,2.5-4.4-4.3-11.4,10.2-16.6,2.7-.9,5.1-4.6,8.2-9.6,8.8-2.5.3-4,1.2-6.3,1.9-.5.2-.6.8-1.2,1-.8.3-2-.5-2.6-.4-1.2.3-2.5,1.9-4.2,2.2a19.451,19.451,0,0,1-5.9,0c-2.4-.3-3.5-.6-5.8.2-2.1.7-4.4,2.7-6.3.5-2.9,5-10.2,3.7-13.9-.2m142.4-64.3c-2.3-.3-.7-2.3.4-2.9,2.9-1.6,2.1,3.2-.4,2.9m-129,19.1c13.7-19.7,37.1-33.3,57.7-44.7,11.2-6.2,22.7-12.3,34.5-17.4,5.9-2.5,11.8-5,17.8-7.2,3.2-1.2,6.4-2.3,9.7-3.3.9-.3,2.5-1.2,3.5-1.1-.2,0,2.3.7,1.8.9,1.6-.7,2.4-2.5,4.3-3.3a21.176,21.176,0,0,1,7.1-1.2c2-.1,3.8.8,5.7.8,1.3,0,2.3-.6,3.6-.6.6,0,.6.9,1,1,.2,0,1.8-.6,1.9-.6.6.4,1.2,1.9,1.7,2.5a18,18,0,0,0,6,3.8c2.6,1.1,8.9,2.2,5.9,6.3,2.1-.3,3,1.6.4,2-1.4.3-2-1-3-1.9-2.4-2-8.2-4.9-11.7-4.8-1.9.1-3.5,1.6-5.3,2.1s-2.6-.3-4.2-.2c-1.8.2-3,1.7-4.7,2-1.6.3-2.5-.8-4-.8-1.7.1-3.4,1.6-5,2.1a34.385,34.385,0,0,0-7.1,2.7c-4.9,2.6-10.5,3.5-15.6,5.7-4.1,1.8-8.7,2.7-12.5,4.6-4.2,2.2-8.4,4.3-12.5,6.7-3,1.7-9,2.3-12.3,1.9,0,6-3,1.8-6,4.4a7.217,7.217,0,0,0,2.4,1.4c-3.2,1.3-6.2,2.9-9.4,4.4s-6.7,1.9-8.8,4.8c-2,2.7-1.3,1.3-4.2,2.3-1.3.5-2.5,2-3.5,3-1.7,1.7-2,4.3-3,.8-.3.4-1.4,3.1-1.6,3.2-1.2-1.3-1.4.2-2,.8.3,1.2-.2,1.9-1.5,2.3l-2.1,1.5c-2.5,1.8-5.8,3.3-7.5,5.9a2.432,2.432,0,0,1-1-3.5c-2.5,2.3-5.5,4.7-6.2,8.3a4.129,4.129,0,0,0-1.1-.7c-1,.7.3,2.7,1,3.2,2.8-1.1-.7-.7,1.2-.5a8.447,8.447,0,0,0,1.7.5,42.362,42.362,0,0,0,5.1-.3,88.786,88.786,0,0,0,11.3-2.8c4-1.2,8.1-2.4,12-3.9,3.2-1.2,6.4-2.6,9.6-3.9,1.3-.5,2.6-1.1,3.8-1.6,2.4-1,3.7-2.7,3.4.2,1.9-.3,3.6-3.1,5.1-4.2a22.477,22.477,0,0,1,6.9-3.5,8.865,8.865,0,0,1,2.8-.7c.5,0,.8,1.4,1.1,1.4,2.2-.5,1.2-1.8,2.2-3.5,2.2-3.9,8.1-6,11.7-8.2,2.3-1.4,3.9-3.3,6-4.8a8.358,8.358,0,0,1,2.7-1.3c.8-.2,1.8,1.6,2.3-.2a43.609,43.609,0,0,0-5.1-2.2c-1.3-.4.3-1.7-1.7-.9-.8.3-1.1,1.9-1.4,2.5-2.2-2-8.5.1-11.1.9-.2.1-1-.4-1.4-.3-1.5.1-2.6,2.2-3.6,3-2.7,2.3-5.6,3.3-8.8,4.7.9-4.8,7.3-6.7,11-8.6,5.5-2.7,10.6-6.1,16.6-7.5,4-1,9.3-1.7,11,2.9,1,2.8,1.2,9.7-2.3,11-.4-1.3.8-2.4,1.2-3.5-3.5,1.3-4.1,5.5-6.7,7.7a8.768,8.768,0,0,0-2.7,2.8,9.2,9.2,0,0,1-2.7,3.5c-2.7-5.8-2.3,2.1-3.7,3.1.6-.4-2.3.8-1.9.6-.1,0-1.4-1.9-2.2-1.9-1.4.1-1.2,1.7-1.9,2.5-2.4,2.7-5.4,4.5-9.2,4.1-.1,1.9.5,4.2-2.1,4.4l-.3-4.3c-1.4,1.5-3.3,2.8-4.5,4.5-1.3,1.9-1.2,3.1-3.4,4.4-2.3,1.3-7.2,4-9.9,4.2a1.669,1.669,0,0,0-.4-2.6c-1.4,1.4-3.4,1.6-4.9,2.8,5.1,2.1-3.9,2-5.1,2.3-.8.2-1.4.9-2.2,1-1,.2-1.2-.9-2-.5-1.3.5-.8,1.9-2.1,2.6-1,.5-2.6.5-3.7,1-2.6,1.2-8.2,3.7-10,.6-.9,5.3-10.1,2.1-13.4,1.7-4.8-.9-12.8-3.1-8.5-9.3m19.5-54.7a1.34,1.34,0,0,1,2,.1c-.9-4.8,6.2-7.2,9.3-9.2,4.1-2.7,8.9-8,14.3-7.6-.9.7-1.8,1.4-2.7,2,1.3.2,2.6.3,3.9.5-.7,1.1-1.5,2.2-2.2,3.2-1.2-6.6-7.5,1.7-9.3,3a38.02,38.02,0,0,0-5.3,3.6c-1.6,1.5-3.1,4.2-5.7,2.8-.2,3.8-3.3,2.8-5.4,4.9-.3-1.3.5-2.2,1.1-3.3m27.8-18.9c6.5-2.4,12.1-6.9,18.2-10.1,5.8-3.1,11.8-5.8,17.7-8.7,3-1.5,8.5-5.2,12-3.3,4.6,2.6-1.7,3.4-3.4,4.3-.6-4-2.8-.4-1.5,1.8-3.5-1.5-11.3,4.5-14.7,6.1-.8.4-.4.6-1.3,1-.2.1-2.4.6-3.1.8-3.2,1.1-5.3.2-6.6,4.1l-.9-2.7c-2,4.5-8,6.4-11.9,9.1-1,.7-3.8,3.3-5.1,2.8-1.7-.7-1-4.6.6-5.2m117,13.5c2.7.2.1,1.5.8,2.3-.1-.1,1.6,1.4,1.4,1,.3.5,1,.5,1.4,1.6,1.3,3.8-4.4,7.8-6.3,9.9-3.7,4.2-5.9,9.5-9.7,13.6a12.836,12.836,0,0,1-5.9,3.8c-1.7.5-3.5,0-5,1.6-1.3,1.3-1,2.1-2.4,2.8-2.4,1.2-3.5.2-5.9,2.8-2-5.6,3.8-5.5,6.9-8.6,4.2-4.3,8.9-8.6,12.8-13.2,3.5-4.1,4.9-7.6,6.6-12.6.5-1.6,1.1-4.9,2.6-5.9,2.4-1.5,1,.8,2.7.9m13.5,144.3a91.244,91.244,0,0,1,25.7-20.1c3.5-1.7,8.4-4,11.9-1.3,3.5,2.6,2.8,7.8,1.3,11.4-1.4-.5-.1-5.5-.8-6.7-1.5-2.7-4.8-1.3-7.1-.4a23.942,23.942,0,0,0-7.1,4.1c-.8.8-2.5,1.5-3,2-.8-.3-1.3-.1-1.4.7a1.962,1.962,0,0,1-.1,1.5c-.1.2-1.2-.5-1.3-.4-.7.6-1.3,1.3-2,1.8a18.468,18.468,0,0,0-3.8,3.2c-2.4,3-5.6,4.7-8,7.5a21.232,21.232,0,0,0-1.3,2.4c-1.2,1.4-3,2.6-4.4,4.1a60.889,60.889,0,0,1-7.7,6.6,13.73,13.73,0,0,0-3.4,3.4c-.4.6-.6,4-.6,4-2.7,3-2.2-3-2-3.7,2.3-8.1,9.7-14.2,15.1-20.1m-14.8,54.4c.3,1.3.6,2.3,1,3.6-2.2-1.8-2.2-1.8-1-3.6m-2.3,4.1-2.4,2.4c-1.8-1.9,2.7-2.7,2.4-2.4m-1.2-31.9c-.8,3.4-3.9,7.5-6,10.2.2-.3-1.8.3-2,.4-.8.4,1.1,3.3-1.6,2-.9.5.9,2.7-.4,3.6-3.6-8.3,6.3-15.5,10.1-21.6,2,1.7.4,3.5-.1,5.4m-23.6,44.8c2.7.7,4,.3,5.8-2.4,1.1-1.6,1.5-4.3,3.9-2l.4-3c3.5,1.4,3.2,6.6,4.8,9.5.7-3.3,2.5-12.4,7.9-10.9,6.1,1.6-4,12.1-5,14.7-2.1-3.2-1.3-.2-2.8.2-1.4.4-3.5-.6-5.1-.5-5,.3-9.4,2.5-14,4.4-1.2-3.1-2.3-6.2-3.5-9.4,2.7.2,8.3-7,9-1.7-2-.3-2.6-.3-3.5,1.6a5.813,5.813,0,0,1,2.1-.5m11.2,40.7a50.385,50.385,0,0,0,5.6.1c3.5-1.3,2.2-5.3,3-8.2,1.5,1.3.7,3.8,1.1,5.5.5,2,2.1,3.8,2.2,6,.3,4.9-3.7,3.8-6.8,5.4-2.6,1.4-2.9,3.1-5.1-.6-.6-1-1.9-3.6-1.8-4.9.2-1.1,2.2-2.2,1.8-3.3m4.2,21.3-1.4-1.6c4.3,1.3,1.8-.7,2.7-3.3,3.3,2.2,6,4.4,8.5.1l4.5,18.1c-3,.7-6.9-3.9-9-5.5-1.2-.9-7.8-4.5-3.8-5.5-.5-.8-1-1.5-1.5-2.3m29.3-56.7c-2.5,2.4-5,3.7-7.7,5.5-2.4,1.6-1.6,3.5-3.6,5.3-1.4,1.2-4.6,2.4-6.3,3.4-3,1.6-5.7,2-8.8.1.8,6.8-3.8,7.3-9.6,8.7-2.8.6-4.4,1.6-6.4-.9-1.4-1.7-1.9-4.9-.2-6.4,2.7-2.5,9.9-1.6,13.3-3.2,2.6-1.2,5.3-7.9,8.5-5.5-1.7-2.7.3-3.4,1.7-5.3,1.6-2.1,2.6-4.5,4.2-6.6a43.26,43.26,0,0,1,12.3-10.2c3.9-2.1,5.9-.6,6.5,3.8.3,2.2.3,5.5-.9,7.4-.4.6-1.7.6-2.1,1.2-.5,1,.1,1.7-.9,2.7m45.7-52.6c3.1,2.4,2.8,7.5,3.3,10.9.7,4.9.2,9.6.1,14.5-.1,5.2-2.6,8.6-3.8,13.4-1.3,5.4-3,8.3-6,12.8,3.2.5-1.6,10.2-2.4,11.4-.9,1.4-7.8,7.6-4.8,7.6-1.6,2.2-3.4,4.4-5.1,6.5-.6.8-1.8,1.2-2.3,1.7-1,1.2-1.1,2.3-1.8,3.6-1.1,2.1-1.5,1.5-3,3.1-1,1.1-1.7,2.5-2.7,3.5-3.2,3.3-3.6.6-5.5-1.9a2.172,2.172,0,0,1-1.5,1.3c-.6-2.8,3.3-5.7,5-7.4,2.7-2.8,5.1-6,7.5-9a119.189,119.189,0,0,0,13.2-21.2,103.355,103.355,0,0,0,8.5-25.5c1.2-6.7,2.4-18.1-6.6-19.8-6.5-1.2-13.7,2.7-19,5.9-3.3,1.9-6.5,3.9-9.7,6.1-3.4,2.4-6.3,5.7-10,7.6,2-1-4.6,2.1-3.6,1.2-.5.4-.1,1.7-.4,2.2a7.9,7.9,0,0,1-2.5,1.9c-1.7,1.3-4.4,2.6-5.1,4.6-10.7-7.6,10.5-21.1,16-24.5,11-6.8,29.7-20.1,42.2-10.5m28.8-73.9c-.1-5.5,4.4-12.9,7.4-17.4,1.5-2.2,3.8-2.1,4.7-4.7.5-1.5-.2-3,0-4.5a13.829,13.829,0,0,1,2.1-5.4c9.1-15.7,20.2-29.5,32-43.2,5.8-6.7,11.3-13.7,17.6-20.1,2.6-2.6,9.7-12.1,13.7-11.2,2.1.5,3.4,3.8,4.3,5.4a66.958,66.958,0,0,0,5.3,7.8,75.415,75.415,0,0,0,18,17.2c4.3,3,8.7,5.8,13,8.9,3.5,2.5,8.8,5.5,11.3,9,2.5,3.6-1.2,6.6-3.2,9.6-3.1,4.6-6,9.4-9.1,14-1.2-.9-.9-2.7-1.8-3.9a10.277,10.277,0,0,0-2.9-2.1c-2-1.2-4-2.7-5.8-.7-3.2,3.5,1.2,11.8,5.9,10.9.6,3.5-8.8,9.2-11.2,11.1-7.2,5.9-14.6,11-24.1,11.5a29.848,29.848,0,0,1-11.5-1.4,12.961,12.961,0,0,1-5-2.8c-1.6-1.6-2-4-3.6-5.6-1.4-1.4-3.2-1.6-4.6-3s-2-3.6-2.6-5.4c-1.1-3.5-1.3-7.2-2.3-10.7-.6-2.1-1.1-5-3.2-2.9-2.9,3-1.5,12.3-.7,15.8,1.1,5.1,3.6,9.1,6.2,13.5,2.9,4.7,3.9,9.1,4.4,14.6a83.22,83.22,0,0,0,8.5,29.2c1.9,3.9,4.2,7.5,6.3,11.3,1,1.8,3.1,7.8,5.8,7.8,4.2-.1-1.8-12.3-2.6-14.4-4.6-11.4-9-23.4-10-35.8,6.6,1.7,13.8,3.3,20.7,2.2-4.4,9.9.2,19.7-.4,29.9-.3,5.1-.5,9.8-.4,14.9.1,4.5-1.9,8.9-3.7,13-3.5,8-7.8,17.9-14.2,24-5.4,5.1-12.6,5.5-19.6,4.3-16-2.7-26.4-15-33.1-28.9a121.93,121.93,0,0,1-9.6-28.2c-2.4-10.9-1.8-22.2-2-33.6m20.7-75.8c-14.9-10.8,6.7-23,17.8-21.3,2.6.4,7.3,1.5,7.1,4.8-.2,2.8-4.8,5.8-6.6,7.5-5,4.8-10.2,14.9-18.3,9m108.3,239.4c-.5-.5-4.7.7-3-1.8,1.4-2,5.2.5,6.6,1-1.2.8-2.2,2-3.6.8m-62,130.3c-1.3.2-2.6-3.3,2-.7-.7.2-1.3.5-2,.7m-.1,56.3c.2,1.5.6,2.6-.5,3.7-.9-1.2-1-2.8.5-3.7m1.9,23.2c-.1.8-.3,1.7-.4,2.5-1.1-.5-2.1-1.1-3.2-1.6l3.6-.9m1.3-19.6c1.6.6.8-1.3,2-1.6a6.636,6.636,0,0,1-1.2,5.3,36.029,36.029,0,0,1-.8-3.7m40.5-140.3c-2.2-.3-2.6,2.1-4.2,3-1.1.6-4.3.1-4.9,1.3.8.2,1.6.5,2.4.7-1.8,1-3.7,2-5.5,3,4.4,0,9-2.1,13.4-1.5a6.29,6.29,0,0,1,4.4,2.4,7.62,7.62,0,0,1,1.4,3.5c.1,1.2-.8,2.1-.7,2.6,2,.1,1.7,3.3,1.3,4.6-1,2.9-4.8,7.4-8.2,5.5,1.4,2,1.1,3.2-1.1,4.4.2-.7.3-1.9-.8-1.7-.3,1.1-.2,2.9-1.1,3.8-1,1-2-.2-2.9.5-1.2.7-.8,1.9-1.7,2.7-1.2,1.1-1.4.3-2.8.5-2.2.3-.8-1.1-2.6.7-.6.6-.5,2.2-1.5,3.1-1.9,1.7-7,3.5-8.8,1.3-4.4,6.9-17.5,8.6-23.6,3.1-9.7-8.7,8.4-26.5,14.4-32.2s12.7-10.5,19.5-15.3c3.8-2.7,7.8-5.1,11.8-7.5,2.5-1.5,5.6-4.2,8.7-3.9,2.7.2,5.1,2.4,8,2.8,2.1.3,6.1.8,3.5,3.6-1.2,1.3-6.1,3.5-7.7,3.8-1,.2-2-.2-2.9,0-1.6.3-2.7,1.7-4.5,1.5.5,2.8-.5,4.1-3.3,3.7m28.9-97.2c0,2-3.7,1.5-4.5.8-1.3-1.1-1.3-4.6-1.8-6.1,2.1.6,6.3,2.6,6.3,5.3m-30.1-67.6a202.671,202.671,0,0,1,24.8-17.6c3.1-1.9,7.5-5.6,11.4-5.2,1.6.2,5,2.1,3.8,4.1-.2.4-2,.5-2.6.8s-1.1,1.2-1.7,1.6c-4.1,3-9,4.8-13.1,7.9-3.4,2.5-6.5,5.3-10.1,7.5-3.5,2.1-7.1,3.4-10.4,5.7.1,0-4.3,1.5-3.4,1.8-3.9-1.2.2-5.7,1.3-6.6m52.3-2.4c4.7-1.9,9.2-4.1,14.1-5.4a20.869,20.869,0,0,1,7.5-.8,1.078,1.078,0,0,1,1.7-.5,6.012,6.012,0,0,0,2.2,2c1.4,1.1,6.5,2.5,5.5,4.8-.7,1.6-5.8,1.7-7.2,2-4.3,1.1-8.2,3.4-12.6,4a6.044,6.044,0,0,1-1.8-.4c-1.7.4-3.1,2.1-4.6,3-3.2,1.8-7.7,2.1-10,5.3,7.3,5,13.7,0,20.2-3.7a60.9,60.9,0,0,1,12.3-5.3c2.2-.8,4.4-1.5,6.7-2.2a13.655,13.655,0,0,1,2.9-.7,1.606,1.606,0,0,1,2,1c2.7-.1,2.9-1.8,4.6,1.4,2.3,4.5-1.2,4.2-4.5,4.8-4.6.8-9.2,2.5-13.8,3.6-1,.3-10.2,2.4-10.2,2.5-.4,2.9,25.8.2,28-.2,4-.8,8.2-2.9,12.3-2.4,3.2.4,10.3,5,5.3,8.1-1-4.7-4.4-.8-6.2.8-2.4,2.1-5.8,1.9-9,2.8-4.4,1.1-15.8,5.4-19,0,1,4.8-17.1,2.4-19.6,2.2-2.4-.2-5.6.4-7.9-.3-1.5-.5-2.4-1.4-3.8-1.7a3.528,3.528,0,0,1-1.3.8,9.022,9.022,0,0,1-2-1.4c-4.8-2.2-12.4-3.5-9.7-10.6,2.7-6.9,11.8-11,17.9-13.5m45.5,4.1a9.288,9.288,0,0,1,.4-1.3c0,1.3,3.1,1.8,2.7,3.5-.8,3.7-4.3-1.8-4.6-2.4a7.719,7.719,0,0,0,1.5.2m18.6,6.1c.4,1.5,4.4,4.7,3.4,5.4-1.6-2.1-6-1.1-3.4-5.4m-68.4,137.2c1.5-2.9,6,2.1,5.5-3,2.4.2.9,2.1,3.8,1.3,1.1-.3,1.8-1.5,3.2-1.8a19.2,19.2,0,0,1,2.4,0c1.8-.1,8.7-.2,3.9-2.6,2.7-1.8,3-.9,5.4.7-.6-3.3,2.9-1.4,4.6-1-1.2-1.9,1.7-3.9,2.7-5.2-.3,2-.2,4.2,2.7,2.9.7-.3.6-1.7,1.1-1.9,1-.4,1.6.3,2,.3a4.271,4.271,0,0,0,1.9-.1c1-.4.5-1.7,1.8-1.9.8-.1,1.4,1.1,2.4,1.1.5,0,1.4-.5,1.8-.5.1,0,.6-1.2,1.2-1.2.9,0,1.2,2.3,1.6,2.8a14.9,14.9,0,0,0,6,4.8c-4.3,3.9-12.9,3.5-18.3,4.8a39.8,39.8,0,0,0-8.1,3.1,7.965,7.965,0,0,0-1.7,1.5,10.475,10.475,0,0,1-1.1-.8c-1.5.1-2.8-.6-4.5-.4-5.1.9-9.1,4.7-14.2,5.5-2.3.4-4.2.9-5.7-1.1-1.6-1.6-1.3-5.4-.4-7.3m-7-23.5c1.2,1-.2,4.1,2,3.8,1.6-.2,1.3-2.7,2.5-3.2,1.6-.7,2.6.9,4.2.8,2.9-.3,2.7-2.8.3-3.9,2.5-.7,3.3,2.3,5.5,2.3,2.9,0,2.2-3.5,4.7-4.1,1.1-.2.7,1.3,1.4,1.5,1.4.4,2.4-.3,3.6-.9,1.1-.5,1.9-1.6,3.1-1.9.6-.2,2,.1,2.4-.2.8-.6,1.5-2.9,2.3-3.2a14.136,14.136,0,0,0,2.8,1.5c-.2,1-.8,1.1-1.6.3,0,2.2,6.1,2.9,4.9.2,3.3,1.4.8,2.1.5,4-.1.8-.6.7-.4,1.6.1.4,1.8.1,1.8.6-.1,3.3-10.6,4.3-12.6,4.6a72.3,72.3,0,0,0-12,2.9c-3,.9-8,3.6-11.2,3.4-4.5-.2-5.1-6.1-4.2-10.1m-10.1-33.6c-1.1-3.7,2.4-11.2,7-10.3,1.1.2,1.4,1.2,2.3,1.6,1.2.6,3.2.3,4.3.9,2.4,1.3,1.2,4.8,3.6,6-3.8.9-15.4,7.6-17.2,1.8m4.4,14.2c1.6-.9,4.3-1,5.4-2.7.6.4,1.6,2.7,2.6,2.3.5-.2.9-1.4.9-1.4.9,0,1.1-1.2,2.4-1.1,1.2.1,2.6,1.6,3.7,2.2-.2-3.7.8-4,3.7-6,.7-.4,1.2-2.1,1.8-2.7-.6,3.9.9,3.9,4,4.5a9.666,9.666,0,0,1,7.8,6.5c-3.3-.6-7.6.1-8.9,3.7-2.6-4.8-12.2,1.8-15.3,3.2-2.3,1-5,2.4-6.9,0-1.4-1.7-.6-3.6-.5-5.1,0-.5.5-.5.4-1.2,0-.8-1.1-1.2-1.1-2.2m35.2,75.7c-.9.3-5.4.5-5.4-1,0-1.3,7.9,0,5.4,1m-7.3-4.8c-3.4,2.1-7.2-5.3-8.4-7.4,3.6.5,5.3-2.5,7.4-4.8,2,4.4,5,2.1,8.2.6,3.8-1.7,7.9-1.7,11.7-3.1,1.2-.4,2.3-1.1,3.5-1.6.9-.4,1.9-.7,2.8-1.1a2.051,2.051,0,0,0,.7-2.2c-.3-.7-.1-1.2.6-1.4a12.816,12.816,0,0,0,2.7.5c1.5-.3,3.6-1.7,1.8-3.2,1.9-1.7,3.8,0,5.7.8-.4-1.3-.9-2.5-1.3-3.8.9.4,3.6,4.2,3.9,4.2,1.8-.1,1.6-2.5,2.6-3.4.6.7.8,6.1,3,4.3,1-.8-1.1-3.4-1.7-4,2.6.6,4.9,3.7,5.6,6.2a4.943,4.943,0,0,1-3.5-.8c-.7,3.4,5.6,2,6.6,3.8,2,3.5-10.9,5.9-12.6,6.2-3.4.6-7.3.9-10.4,2.4-3,1.4-3.7,1.8-7.1,2.1-3.9.3-7.8,1.6-11.6,2.6-3.1.7-7.2,1.3-10.2,3.1m72.1-123.9c3.1-1.1,13.6-6.9,16.3-4.4a24.161,24.161,0,0,0,1.9,4c.2,2.4.1,3.3-2.8,4.5-2.1.8-3.9-.9-5.8-.2-2.1.8-.6,2.1-1.7,3-1.2,1-3.4,1.5-4.9,1.9-3.6,1.1-7.1,2-10.7,3.2-7.2,2.4-14.8,4.6-22.2,6.3-5.5,1.3-14.9,4.4-20,.7-.5,2.1-1.7,1.8-3.4,2.1a46.326,46.326,0,0,1-4.9.9c-2,.1-7.4-.5-6.6-3.2-.2.8,4.2-1.8,3.5-2,1.9.4,1.3-.6,2.8-1.1,2-.7,4.1-.7,6.2-1.4,5.2-1.8,9.5-4.2,15-5.4,12.6-2.5,25.3-4.6,37.3-8.9m-501.7,283.6c-1,0-1.8-2.9,1.3-.8-.4.2-.8.5-1.3.8m-24.3-3.8c-1.4.4-1.9-.4-1.6-2.3,1.8-.7,2.4,0,1.6,2.3m-18.9-3.8c-.4-1.7.9-2.1,2-2.8,0,2.2,0,2.2-2,2.8m-47.3-13.9c-1.9-.4-4.4-2.3-4.9.8-.3-.7-1.9-4.1-1.2-4.9.4-.4,1.7,1.5,1.6,1.3,1.7-3.4,4.5.7,6.2,1.9-.6.3-1.2.6-1.7.9m495.8-373.1c.7-1.4,1.4-1.8,2.3-1.3-1.4,3.2-6.1,5-2.3,1.3m33-30.6c1.2,2.2-.6,3.1-1.9,5,.8-2,1.3-3.3,1.9-5m143.4,215.3c4.2,0,13.3-2.2,15.8,2.6,1.7-3.3,3.6,2.9,5.1,3.9.2.1,1.2-.7,1.7-.4a7.22,7.22,0,0,1,1.8,2.4c1.3,2.2,1.8,4.8,2.5,7.2-7.4,0-15-1.7-22.4-2.4a116.951,116.951,0,0,0-14.5-.2c-1,.1-2.9-.3-3.7-.1s-2.4,1.9-3.3,1.6c1.4,2.7,19.9,9.2,21.3,6.2-1.7-1-5.4-1.8-5.4-4.2,0-2.7,3.5-2.7,5.3-2.6,4,.2,10.8,1.5,12.4,5.7.7,1.8.9,6.3.1,8-.5,1.1-1.3,2.5-2.7,2.7-.6.1-1.3-.6-1.4-.6-2.8.6-7.9,2.8-10.9-.3-2.2,2.8-12.6-.3-15.8-1.3-5.6-1.9-13.3-4.4-16.7-9.6-4.1-6.4,4.3-11.7,9.1-14.3,6.8-3.5,14.3-4.3,21.7-4.3m28.2,14.7c1.3.4,2.6.7,3.9,1.1-.3,2.3-5.5.5-3.9-1.1m39.3,82.9c.4-9.1-2.2-17.2-3.8-26-.4-2.2,0-6-1.7-7.8-1.6-1.7-5.1-.3-5.3-3.4-1.6,1.8-1.4,2.2-3.3.1a4.45,4.45,0,0,1,.2,2.8c-1.2-.7-5.5-3-5.2.2-3.6-.8-2.5-3-4.6-4.7-.3-.2-1.5.6-1.9.3a18.953,18.953,0,0,1-1.9-2.1,26.059,26.059,0,0,1-3.1,2.7,4.53,4.53,0,0,0-3.3-2.7c1.4,2.9,4.7,6.5.1,8.2-2.8,1-7.3-.2-10.2,0-10.8.8-22.7-1.5-33.2-4.1-10.8-2.7-21.6-6.4-31.3-11.9a29.082,29.082,0,0,1-5.1-4c-1.7-1.4-3-1.6-5.1-2.5a32.008,32.008,0,0,1-10-7.1c-6.1-6.2-11.8-14.4-10.1-23.5s7.9-16.2,14.6-22.1a118.35,118.35,0,0,1,26.2-17.7c4.2-2.1,15-10.1,19.2-5.4,2.7,3,1.2,6.8-2.5,7.5-.9.2-1.8-.4-2.7,0-1.3.6-.8,1.3-1.4,1.8a16.193,16.193,0,0,1-3.3,3c-4.9,2.6-9.6,4.7-14.3,7.9-2.2,1.5-4.2,2.1-6.1,3.4s-2.3,3.4-4.9,2.1c.9,3.7-4.5,7.7-6.7,9.9-3.3,3.5-7.3,8-5.7,13.2,3,10.2,16.6,17.9,25.4,22.4a117.853,117.853,0,0,0,35,11.9c6,.9,12.3,1.5,18.3,2.1,4.7.5,12-1.2,15.4,3.1.1-5,15.6-4.5,18.9-5.2-6.6-22.6-19.6-42.7-33.5-61.5-6.8-9.2-13.5-18.7-21.3-27.2-8.5-9.3-18.2-17.5-27.5-26-18.1-16.7-38.6-31.6-59.4-44.7s-42.3-26-65.1-35.3c-26-10.7-53.4-17.7-80.8-23.7,3.7-4.7,9.8-7.1,14.5-10.5,1.7-1.2,3.9-4.1,6.1-4.5,2.3-.4,4.2,2.1,5.9,3.4,4.8,3.6,8.1,2.1,13.6,1.9,3.3-.1,11.1,1.7,12.4-2.7,1.8,2.5-.8,4.4-2.2,6.2,1,1.4,1.8-.1,2.8-.3.3-.3.6-.5.9-.8.5-.7.9-.7,1.3,0q.9,1.35,1.8-.6c.2-.1.3-.2.5-.3.7-.4,1.4-1,2.1-1.4a92,92,0,0,1,14.9-9.2c4.6-2.2,2.1-6.4,5.2-9.4.7-.7,1.9-.3,2.6-.9s.8-1.2,1.4-1.8c1.3-1.4-.2-3.1,3-1.4l-1.2-6.6c6.3,6.1,6.3-11.5,7.2-14.2-.1.3.6-2.3.6-2.3.2-5.3.9-9.2-5.3-9.5,2.4-1.5,3.1,1.4,4.2-1.6.5-1.5-1.2-4.1,1.6-3.1.6-3.2,0-5.8-.7-8.9-.7-3.2-.3-5.3-.3-8.5,0-3.6-1.6-7.2-2.2-10.8-.4-2.8,0-7.1-3.6-6.1-.5-.8,1.3-3.2,1.2-4.4-.1-1.9-2.1-3.8-2.7-5.5a2.924,2.924,0,0,1-3.2.8c1.1-2.4.1-3.2-1-5.3-.6-1.2-.2-2.5-1.5-3.4-.7-.5-2,.3-2.5-.2-1.2-1.2-.8-2.9-1.6-4.5-1.1-2-3.5-3.6-5.1-5.2-9.3-8.6-19.4-15.3-31.8-18.6-12.5-3.4-27-4.6-39.5-.7-5,1.6-9.4,1.4-13.9,4.3-1.5,1-1.6.7-2.3,2.3-.2.4,1.4,1.4.4,2-1,.7-2.2-.7-2.7-1.8-6.5,4.7-12.5,10.9-16.2,18.1-3.7,7.1-4,15.5-5.4,23.2-6.4-8.1-15.1-11.6-24.6-8.1-8.3,3.1-14.7,9.9-16.3,18.7a24.749,24.749,0,0,0,2.5,15.6c1.1,2.1,2.3,4.4,4.3,5.8,1.5,1.1,4.2,1,4.9,3,1.1,3.1-5.3,9.7-6.9,12.4a99.687,99.687,0,0,0-7.9,15.2c-7.6-10.7-14.9-22.5-23.5-32.4-8.2-9.3-17.9-17.7-27.4-25.6-19.8-16.4-40.4-31.8-62.5-44.9-20.8-12.1-45.7-18.8-69.7-16.5-23.5,2.3-41.5,17.2-56.6,34.3-29.1,32.9-46.9,79.9-48.6,123.7a137.124,137.124,0,0,0,3.7,38.9c1.5,6.1,1.3,12.1,2.2,18.2,1,6.9,2.8,13.9,4.5,20.7a743.61,743.61,0,0,0,24,76.9c4.8,13,10.6,25.8,18.5,37.3,3.6,5.3,8.3,9.5,12.3,14.5,3.8,4.9,4.8,10.9,5.6,16.9,2,14.4,3.3,28.8,4.5,43.3.5,6.1,1.1,12.2,1.9,18.3.7,5.3-1.1,5-5.5,6.9.9-4.8-20.4-1.5-22.5-1.2-2.2.4-4.5.4-6.2.6a28.205,28.205,0,0,1-6,.7c-3.3-.1-9.4-.9-10.6,3.2-.9-4.8-6.5.5-2.3-.4-4.3.5-8.7-.3-13.1.1-5,.5-10,.9-15,1.7-3.5.5-6.8,1.9-10.2,2.2-4.4.5-9.1.4-13.5.8-16.5,1.5-33.6,5.1-49.6,9.2-3.6.9-7.8,1.6-11.3,3.1-.9.4-1.8,1.3-2.7,1.6-1.5.6-1.3.2-2.6.4-7.9,1.6-16.1,4.2-24.1,6.2-4.4,1.1-11.6,2.1-15.2,5.2-1.6,1.4-3,3.8-.4,5.4,2.1,1.2,5-.7,6.7-1.8-1.5,3.9-4.3,5.8-2.8,10.2,1.2,3.5,3.9,7.8,8,5.5.6,1.3.8,3.9,2.4,4.3,1.5.4,2.5-1.4,4-1,.5.2.3,1.1.8,1.4a18.41,18.41,0,0,0,2.5.9,13.969,13.969,0,0,0,2.9.9,5.162,5.162,0,0,0,1.7-.9c1.2.2,1.8,2.5,2.7,3.1a6.861,6.861,0,0,0,3.4,1.4c2.9.6,6.6,1.7,8.6-1.2-.4,2.1,2.4,1.9,3.7,2.2a4.178,4.178,0,0,0-1.7-2.8c2.8.2,1.7,3,3.8,3.8,1.5.5,1.3-.8,2.5-1,1.5-.2,2.7.9,5-.1.5,2.3.7,4.6,3.5,4.9,1.6.2,5.5-2.8,5.2-.3,3.7-1.1,5-.3,7,2.9.3-2,1.9-1.4,3.3-1.5,2.3-.2,2.3,0,4.1-1.3.2-.1,1.5-3.3,2.2-1.3.3.9-1.6,3-2.2,3.5.8.4,3.6,1.9,4.7,1.6.9-.2.9-1.8,2-1.9-.3.9-.5,1.8-.8,2.7,2.1.3,3.9-1.1,5.6-2.2,1.6,4.1,6.2,1.8,8.7,4.9,1.3,1.6,1.4,2.9,3.9,3.3,2.6.4,4.9-.7,7.1,1.4-.7-1.3-2.4-2.4-.7-3.9,1.2,1.7,1.8,3.7,3.1,5.2l.6-2.4c3.5,3.8,8,3.8,12.5,5.9v-2.4c3.2,4.9,3.4,1.8,7.3-.2-.3,1.5-.5,2.9-.8,4.4,2.8-.2,5.4,3.1,7.7.3,1.4,2.3,3.1,1.2,5.3,1.9,1.3.4,2.2,1.7,3.5,2.1,1.9.7,2.4.7,4.2,1.3,1.6.5,2.5,1.6,4.4,1.9a15.284,15.284,0,0,0,3.7.1c.5,0,.3-1.1,1.4-.8,1.6.4,2.8,2.4,4,3.5,1.8-4.4,6.7,1.5,9.1,2.3.2-1.1.2-2.5,1-3.4,1,2.1,1.3,3.9,3.3,5.2a13.482,13.482,0,0,0,4.2,1.6c.8.2,2.4,0,2.9.2.9.4,1.2,1.6,2.1,1.7.5.1,1.3-1.3,1.7-1.2,1.8.5,2.9,2.7,4.7,3.9,5.5,3.6,12.5,3.9,18.6,4.7,1.5.2,1.8-.2,3,.7.7.5.4,2,1.2,2.4,3.1,1.6,3.1-1.8,3.8-3.8,1,1.4,1.2,3.1,2.6,4.2a17.7,17.7,0,0,1,2.3.1,3.805,3.805,0,0,1,.8,1.7c1.9,1.3,4,.8,5.9,1.8.6.3,1.7,2.2,2.5,2.7a15.739,15.739,0,0,0,5.1,1.9c3.3.9,8.1-.3,10.1,3.2,2.6-2.8,1.6.5,3.4,1.3,1.1.4,2.6-1.2,3.8-1.1,2.1.3,2.9,2.6,3.5,4.2,1.3-.3.4-3.9.4-4.7,1.6-.2,1.9,4,2.2,4.9,2.5-1.2-1.6-5,1.1-6.2-.2,3.2,2.3,5.9-2.3,6.3.6,1.9,15.4,4.1,16.4,2.4.2,3.2,2.3.2,3.1-.9.1,1.8-.5,4.5,1.5,5.3,1.4.6,4.6-.9,5.1-2.3.6,2.1,1.7,2,3,3.4.9.9,1.5,2.5,2.4,3.3,1.7,1.4,5,1.2,7,.9,4-.6,3.5-1.4,4.9,2.7.3-1.6,1.3-4.8,3.1-2.4,1.1,1.5-1.3,4.9-1.9,6.3a19.107,19.107,0,0,1,4.8-2.2,4.121,4.121,0,0,1-.1,2.2,21.731,21.731,0,0,1,2.6,1.5,14.355,14.355,0,0,1,.5-3.1c2.4,1.5.7,4.4,2.9,5.9.6.4,1.9-.1,2.5.2,1.2.4,2.2,1.5,3.2,2.2-.8-1.1-.7-3-.7-4.3.5.3.9,1.4,1.4,1.5.2,0,2.3.3,2.3.3,2.2,1.5,1.7,1.7-.1,3.6.7,1.1,3.5-.8,4.2-1.1.2.4.2,1.9.5,2.2a6.943,6.943,0,0,1,.5,1.3,2.04,2.04,0,0,1,1.8-.4c.4.1,3.6,1.4,3.8,1a6.916,6.916,0,0,1-1.9-1c1.8-1.6,3-2.5,4.7-.1.2.3-.5,1.4-.3,1.8.8,1.5,2.5,2.6,3.6,3.8.5-1.6-.6-5.7,2-5.6,2.1.1,3.6,5.1,2.9,6.7.8-.9,5.7-1.8,6.6-1.5,2.6.8,1.9,3.2,5.1-.3,2.2,1.5.3,2.1.7,3.9a1.875,1.875,0,0,0,1.6-.4c-.4,7.8,5.4,1.8,9.2,3,1.5.5,1.9,2.1,3.4,2.6.8.3,1.8-.4,2.6-.2.7-.1,1.3-.2,1.9-.3.8-.4,1.2,0,1.1,1.4,1.3.7.8.9,2.4,1.1,1,.1,1.9-.9,3-.8,1.9.3,1.7,1.8,2.9,2.6a5.229,5.229,0,0,0,3.7.5c.7-.1,2.7-1,2.9-1,1.5,0,.7-.3,2.4.9a10.04,10.04,0,0,0,3.6,2.1c1.9.5,5.4,1.6,6.6.3,1.8,2.6,3.1.7,5.4.9,1.2.1,1.4.6,2.4.7,1.7.3,3.8,0,5.7.6,2.9.9,3.2,1.4,6.1,1.5.5-.2,1.1-.4,1.6-.6a4.321,4.321,0,0,0,1.2,2.2c1.6.3,2.7-.5,4.1-1.4,1,3.1,4.3,3.4,7.1,3.8,4.5.7,8.8,1,13.2,2.5a112.032,112.032,0,0,1,10.9,4.3c3.1,1.4,6,3.5,9.6,2.5,8-2.2,15.7-10.4,22.3-15.1,7.9-5.6,16.4-10.1,24.6-15.1,32.8-19.9,67.5-36.7,99.9-57.4,17.7-11.3,34.1-24.6,53-33.8-2.7,11.2-7.3,22.5-6.5,34.2.3,4.7,1.7,10.3,5.4,13.6,4.5,4.1,9.5,1.5,13.9-1.4,9.3-6.2,15.4-15.3,22.3-23.8,8.2-10.1,14.5-20.9,20.6-32.4,1.4,2,.3,5.4.4,7.7a18.164,18.164,0,0,0,2.1,8.2c3.4,6.6,9.9,8.2,15.8,3.7,11.3-8.7,17.9-24.2,24-36.6,3.5,6.4,8.4,14.6,16.7,10,6.9-3.8,10.9-12.3,13-19.5,6.7-21.6,4.8-43,5.7-64.5" fill-rule="evenodd"/><path id="ink-shape-2" data-name="ink-shape" d="M798.643,302.829c-.8-1.9-1.1-1.6.3-3.4,1.2,1.1.3,2-.3,3.4m34.7,115.1c-2.2-6.3-.8-13.1-2.2-19.5-.6-2.9-1.6-5.8-1.9-8.8-.2-1.3-1.3-7.3-.5-8.3-2.5-1.5-2.5-2.6-3.1-5.6q1.35-1.35-.3-2.4a27.462,27.462,0,0,0-2.2-2.6c3.2,1.5,1.3-2.4,1-4.7a32.157,32.157,0,0,0-1-5.4c-.7-2.1-2.4-3.2,1-3.2-1.1-1.3-2.8-2.6-3.4-4.2-.8-2.3.5-5.2-1.1-7.2-.9-1.1-5.7-1.5-4.8-4,.4-1.2,2.3-.3,2.9-1.2,2.3-3.4-4.6-4.8-4.9-6.2-.4-1.9,2.1-2.3,2.2-4s-2.5-4.5-3.2-6c-1,.2-2,1.7-3.1,1-.2-.1.1-6-.1-6.8s-.7-2.8-.9-3.2c-.7-1.5-2.7-2.2-3.1-4-.2-1.1,4-2.7-.8-2.7,1.7-3-1.4-4.8-2.6-7.4-1.5-3.3-2.3-6.9-3.8-10.2a55.691,55.691,0,0,0-5.2-9.2c-1.9-2.6-2.7-5.1-4.3-7.8-.3-.2-.6-.5-.9-.7-1.3.2-1.7-.4-1.2-1.7-1-1.4-1.7-3-2.6-4.5-1-1.7-2.3-3.2-3.4-4.9-1.4-2.3-1.8-4.8-3.3-7.1-1.9-2.8-4-5.2-5.8-8.1-2.2-3.6-4.6-5.9-7.4-8.7-1.3-1.3-1.5-4.7-3.1-6.6-1.8-2.1-3.5-2.6-4.7-5.3-1.6-3.5-3.9-5.2-6.2-8.2-1.9-2.5-2.8-5.4-4.9-7.8-1.8-2.1-3.8-4-5.7-6-2.4-2.5-4.2-5.5-6.6-7.9.4.3-2.2-1.7-2-1.6a6.069,6.069,0,0,0-2.1-.4c-3.8-2.2-8.5-10.3-14.1-6-3,2.3-1.5,6.4.5,8.6.9,1,5.5,5.7,6.5,3.7,1.1,1.5,4.4,8.9,7.2,6.8-.3,2.5,1.2,1.7,2.2,3.4.6,1.1.3,1.7.8,3.4,1.3,4.8,6.1,9.6,8.7,13.8,6.5,10.5,13.6,20.5,20,31,6.2,10,13.1,19.5,19,29.7,6.7,11.6,15.1,22.5,20.2,34.9.2.4,1.6,1.1,1.9,1.7.6,1.1.5,3,.9,4.2a47.419,47.419,0,0,0,6.1,12.1c2.2,3.1,2.4,7.4,3.9,11,2.1,5.2,4.4,10.3,6.5,15.4a226.8,226.8,0,0,1,7.7,24.2,104.215,104.215,0,0,1,3.1,16.5c.4,5.2.5,10.6,2.4,15.5,1.2-1.7,2.7-4.3,1.8-6.8" fill-rule="evenodd"/><path id="ink-shape-3" data-name="ink-shape" d="M94.243,529.029c-2.3-.5-4.5-1.1-5-3.8-.3,1.3-.7,2.5-1,3.8,2.8.6,5.7,1.3,8.5,1.9a3.05,3.05,0,0,0-2.5-1.9" fill-rule="evenodd"/><path id="ink-shape-4" data-name="ink-shape" d="M100.443,91.429a14.161,14.161,0,0,1,.7-2.2c.2.7,1.1,2.2.6,2.9-.7.8-1.4.4-1.3-.7m11.4-21.6c.8.3,2.4.4,3.4.7-2.5,2.1-2.9,1.5-6.1,1.2-.1-2.1.7-2.8,2.7-1.9m-21.3,52.9h1a26.2,26.2,0,0,0-.1-2.8c3.3.7,1.5-5.1.4-6.3,3.3.1,4.9-10.2,5.9-12.2.9-1.8,2-2.5,2.6-4.6a35.488,35.488,0,0,1,2.1-5.4c1.9-4.1,4.5-7.8,4-12.6,1.6,3.6,3.1,0,4.1-1.7,1.7-2.8,5.8-6.3,6.2-9.6.4-2.9-1.8-3-.5-5.7s2.3-2.4,4.6-3.3c1.5-.6,1.8.1,2.8-1.8.7-1.2.4-2.1,1.3-3.1a1.922,1.922,0,0,0,1.2.4,7.269,7.269,0,0,0,1.4-3.1,34.718,34.718,0,0,1,1.7-4.5c.8-1.4,2.3-5.2,3.1-5.8.8-.7,5.5-.4,5.5-.3,1.9-2.4-1.6-4.9,3.3-4.3-1-1.8,2.4-4.1,3.4-5.1,2.5-2.5,2.7-3.7,3.2-6.8.3-1.6-1.5-1.4.9-1.8,1-.2,1.9,1.1,2.6.9,3.1-.8-.1-.6.7-1.9.3-.4,1.6-2,1.6-2a5.162,5.162,0,0,1,.6-1.8,8.585,8.585,0,0,0,1.7-.3c.3-.6.5-1.2.8-1.8,2.2-1.8,5.5-2.7,7-4.7,1-1.3.7-2.6,2-3.9,1.2-1.2,2.8-.3,3.1-3.2.3-3.6-3.5-5.2-5.1-1.6-4.3-5.2-22.1,14-24.1,16.5-8.9,10.9-17.7,22.1-25,34.2a203.2,203.2,0,0,0-17.6,37.1,139.452,139.452,0,0,0-4.9,19c-.5,2.2-3.8,11.8-2.4,14,.4,0,.6-.1.9-.1" fill-rule="evenodd"/><path id="ink-shape-5" data-name="ink-shape" d="M793.843,390.429c1.5-1,1.5-1,1.8-2.9-2,.4-2,.4-1.8,2.9" fill-rule="evenodd"/><path id="ink-shape-6" data-name="ink-shape" d="M52.043,518.029h0" fill-rule="evenodd"/><path id="ink-shape-7" data-name="ink-shape" d="M51.043,519.029c.5,1,1.2,1.3,2.2.7.4.7-3.5-3.5-2.2-.7" fill-rule="evenodd"/><path id="ink-shape-8" data-name="ink-shape" d="M118.943,60.329c-2.4,4.6.6,1.3.4,2.8.2-1,.6-2.4-.4-2.8" fill-rule="evenodd"/><path id="ink-shape-9" data-name="ink-shape" d="M502.143,131.929c1,8.3,12.4,4.4,14.9-.6,1.9-3.6,6.5-18.1,1.5-21.1-3.7-2.3-4.5,7.5-5.5,9.6-1.5,3.6-2.8,1.1-6.2,2-3.7,1-5.1,6.6-4.7,10.1" fill-rule="evenodd"/><path id="ink-shape-10" data-name="ink-shape" d="M489.743,116.729c4.1.9,8,.4,10.9-2.8,1.6-1.8,3.7-5.3.8-7-2.6-1.6-5.6,2.1-8.3,1.3-3.7-1-1.8-5-3.1-7.7-4.6,2.8-7.2,14.7-.3,16.2" fill-rule="evenodd"/><path id="ink-shape-11" data-name="ink-shape" d="M493.943,137.629c-3.9,0-3.9,4.8-1.9,6.9,2,2,6.9,4,9.5,2.4,5.3-3-4.4-9-7.6-9.3" fill-rule="evenodd"/><path id="ink-shape-12" data-name="ink-shape" d="M266.643,328.729c.8.4,3.3,2.5,4.3,1.5l-4.4-4.4c-.7.9-1.3,2.2.1,2.9" fill-rule="evenodd"/><path id="ink-shape-13" data-name="ink-shape" d="M248.243,117.929l-1.2.9c1.4,1.2,1.4,1.5,2.8.4a6.529,6.529,0,0,0-1.6-1.3" fill-rule="evenodd"/><path id="ink-shape-14" data-name="ink-shape" d="M512.943,392.829c-.8-1.4-2.3,1.2-3.3,1.6-1.6.7-3-3-2.5,1.4-3.7-1.7-5.9,2.2-8.3,4.2-3.4,2.9-7.5,4.4-9.7,8.4,10.6,2.5,22.1-6.6,30-12.6,1.3-1,7.7-5.9,3.4-6.4-1.8-.1-8.3,5.8-9.6,3.4" fill-rule="evenodd"/><path id="ink-shape-15" data-name="ink-shape" d="M509.843,384.329c2.1-1.6-2.4-1.8-3.1-1.9.1,1.3.1,2.6.2,3.9,1-.7,1.9-1.3,2.9-2" fill-rule="evenodd"/><path id="ink-shape-16" data-name="ink-shape" d="M502.043,389.729c.6-.4,2.3-1.6,1.2-2.5a4.414,4.414,0,0,0-2,3,2.177,2.177,0,0,0,.8-.5" fill-rule="evenodd"/><path id="ink-shape-17" data-name="ink-shape" d="M331.143,284.729a2.331,2.331,0,0,0-1.8,2.5,2.305,2.305,0,0,0,1.8-2.5" fill-rule="evenodd"/></g></g></svg>