<svg id="Layer_1" data-name="Layer 1" xmlns="http://www.w3.org/2000/svg" viewBox="0 0 924.768 692.43"><title>1</title><g id="Illustrations_roller-skating" data-name="Illustrations/roller-skating"><path id="Accent" d="M387.942,271.021c-10.6.7-21.3.4-32,.1-1,0-3.6-.5-4.2.1-.7.7-.6,4.7-.7,5.7-.9,7.5-1.8,14.9-2.8,22.4-.4,3.4-.8,6.8-1.3,10.3-.1,1-1.3,5.2-.7,6,1,1.5,8.4,1.9,10.4,2.3l23.3,4.5c2.2.4,7.8.5,8.8,2.3.6,1.1.3,4.1.3,5.3l.6,10.3c.8,13.5,1.7,26.9,2.5,40.4,16.5-1.3,32.9-2.6,49.4-4,4-.3,8-.6,12-1,1-.1,3,.1,3.7-.4,1.7-1.2,3.1-6.1,4.1-7.8,2.3-4.5,4.7-9,7-13.5,2.3-4.3,4.5-8.7,6.8-13,.6-1.1,2-3,2-4.2,0-1.4-2.1-3.8-2.7-5-1.9-3.4-3.7-6.9-5.6-10.3-9.3-17-18.5-34-27.8-51-.5-.9-1.5-4-2.4-4.5-1.8-.9-8,.9-10,1.2-13.5,1.3-27.1,3-40.7,3.8" fill="#34558b" fill-rule="evenodd"/><g id="Ink"><path id="ink-shape" d="M231.142,241.82l9.9,11.7c8.7-10.8,17.4-21.5,26.1-32.3-4.4-2-8.7-3.9-13.1-5.9-3.9-1.7-3.4-.9-5.8,2.5q-8.55,12.15-17.1,24" fill-rule="evenodd"/><path id="ink-shape-2" data-name="ink-shape" d="M399.242,495.521v17c17.3-.9,34.7-1.7,52-2.6-.8-2.4-1.6-4.8-2.4-7.1-.6-1.9-1.4-7.5-2.9-8.7-1.6-1.4-8.8,0-11,.1-11.9.5-23.8.9-35.7,1.3" fill-rule="evenodd"/><path id="ink-shape-3" data-name="ink-shape" d="M357.942,66.521c-20.2,12.8-40.5,25.6-60.7,38.4,4.5,5.2,8.9,10.5,13.4,15.7,1.1,1.3,1.3,2,2.5,1.9,1.4-.1,3.8-2.4,5-3.1,14.4-8.9,28.7-17.9,43.1-26.8,4.3-2.7,8.7-5.4,13-8.1-5.5-6-10.9-12-16.3-18" fill-rule="evenodd"/><path id="ink-shape-4" data-name="ink-shape" d="M828.442,266.521c-.7-5.9-3.7-12-5.9-17.5-2.6-6.5-5.3-12.9-8.1-19.3-1.8-4.1-2.4-3.1-7-2.9q-8.1.3-16.2.6c4.2,15.1,8.3,30.2,12.5,45.2.7,2.6,1.9,12.4,4.1,13.7.8.5,3.5-.1,4.4-.2,2.5-.1,5.1-.2,7.6-.3,3.5-.1,6.9-.3,10.4-.4-.6-6.3-1.1-12.6-1.8-18.9" fill-rule="evenodd"/><path id="ink-shape-5" data-name="ink-shape" d="M485.842,648.32c-9.3-2.3-19.4-.1-28.7-.1-5.5,0-11-.3-16.5,0-1.8.1-10.3-.1-10.6,1-.2.9,1.5,3,2.1,3.4,1.8,1,3.1-.3,4.9-.8,5-1.3,10.8-.5,15.9-.7,5.4-.3,10.7-.6,16.1-.8,5.3-.4,12.1.7,16.8-2m-454.7-481.1c-.7-1.6-1-4.2-2.6-5.2-1.5-.9-4.7-.3-6.4-.3-3.7-.1-11.8.1-14.2,3.5-3,4.1,5.7,7.1,8.6,7,4.9-.2,9.5-4.1,14.6-5m92.7-51.7c.4-1-1-1.7-1.9-2.1-2.5-.8-4.1.6-6.3,1.6-5.5,2.7-11.5,4.4-17.3,6.4-5,1.7-9.7,4-14.7,5.9-3.5,1.3-10.9,1.1-12.9,4.5-4,6.7,6.5,1.7,8.3,1,5.3-1.9,10.9-3,16.1-5.1,5-2,10.1-4.1,15-6.3,2.2-1,4.5-1.9,6.8-2.8,2-.8,4.6-2.9,6.9-3.1m150.5,115.9c-1.3-.8-6.7-5.3-8.5-4.7-1.4.5-3,5.6-3.9,7-4.4,6.8-9.2,13.3-13.9,19.9,2.1,1.1,4.2,2.3,6.3,3.4,4.3-10.2,12.6-17.8,20-25.6m81.7,36.3c6.8,0,13.5-.8,20.2-.7,7.6.1,15,.3,22.6-.3,7.4-.6,14.8-.6,22.3-1.1,2.3-.1,15.4-1.1,7.7-4.9-2.6-1.3-5.7.3-8.4.9-3.2.7-6.5.9-9.8,1.3-3.1.4-6.4,1.4-9.6,1.3-3.3-.1-5.8-.7-9.1-.2-6.9,1-13.7.4-20.6-.2-4.6-.5-15-3.1-15.3,3.9m183.9,384.8c4.4-3.5,11.2-2,16.4-3.1,5.7-1.2,1.2-7.3-1-10.5-2.3-3.4-5.7-10.1-9.6-5.1-3.9,5.1-4.4,12.5-5.8,18.7m-136.9-152.4c-.1,3.2-1.7,6.4,1.6,7.5,3.1,1,8.5-.5,11.8-.8,4.3-.4,8.4-1.1,12.7-1.5a36.344,36.344,0,0,1,5.7-.2c1.3.1,4.5,1.5,5.6,1,1.4-.7,2.1-4.6,1-6.1-1.3-1.6-9,0-11.7.2-9,.5-17.8-.5-26.7-.1m-.5-10.2c4.1-1.7,9-.9,13.4-.9,5.1,0,10.2.3,15.3.6,2.3.1,8.8,1.8,10.7.4,1-.8,1.4-7.3.5-8.3-1.4-1.6-5.7.3-7.5.6a86.326,86.326,0,0,1-14.4.6c-4.5,0-9-.2-13.5-.2-5.2,0-4.5,2.7-4.5,7.2m-142-266.8c-1.7-1-7.2-5.5-9.3-4.8-1.8.6-3.6,5.9-4.7,7.6-2,3.2-4.1,6.4-6.2,9.5-1.3,2-4.9,5.7-4.3,8.4.3,1.5,3.3,4,4.8,3.5s4.1-6.2,4.9-7.3c4.6-5.9,10.4-10.5,14.8-16.9m536.7,6.6c5.9,11.6,6.7,24.7,9.9,37.1.7,2.9,1.9,5.7,2.5,8.7.4,1.6-.3,4.4.6,5.8,2.3,3.5,12.8,2.4,15-.7,1.3-1.8.3-3.6-.3-5.5-.8-2.5-.4-4.7-.8-7.2-.9-5-5.4-10.1-7.5-14.7-2.3-5.1-3.4-11.1-6.8-15.6-2.3-3.1-8.5-9.3-12.6-7.9m-385.2,451.6c7.9-1,20.3-3.4,19.9-14s-14.3-12.4-22-13.4c-2.3-.3-2.5-.4-4.8,1a45.3,45.3,0,0,0-4.6,3c-2.9,2.1-6.1,5-6.7,8.8-1.5,9.5,11.3,13.8,18.2,14.6m-45.1-599.7c3.6.4-1.2-3.1-2.1-3.5-2.7-1.3-5.8-1-8.7-.6-7,1.2-13.3,7.1-19.3,10.8-6.4,3.9-12.7,8.3-19.3,11.6a32.916,32.916,0,0,0-8.1,5.2c-1.3,1.2-1.7,2-3.5,2-1,0-3.1-2.2-4.1-.9-2.9,3.6,11.5,4.8,13,4.5,7.5-1.2,14-4.1,20.4-7.9,6.6-3.9,13.5-7.1,20.1-11,2.9-1.7,5.3-3.9,7.9-5.8.4-.3,1-1.2,1.4-1.6a1.282,1.282,0,0,0,1.5-.5c.3-.8.5-1.6.8-2.3m144.9,566.8c-7.3,2.6-19.2,4.6-22.6,13.2-3.9,9.7,13.5,16.6,20.4,17.1,7.2.6,19.9-2.4,20.9-11.3.6-5.1-3.5-8.4-7.3-11-3.9-2.6-9.5-3.2-11.4-8m-466.3-539.4c-5.2.6-8.7,1.1-12.8,4.4-3.4,2.8-6.2,5.6-7.6,9.9-3.2,9.9,4.7,18.4,14.9,17.2a18.61,18.61,0,0,1,3.4-.4c1,.1,1.8.9,2.7,1,2.1.4,2.5,0,4.2-1.6,3.5-3.3,7-7,8.9-11.4,4.6-10.8-2.4-18.9-13.7-19.1m117.1-20.6c.5-11.1-16.5-13-24.3-12.1-8.9,1-23.4,10-20.1,21,3,9.7,19.8,9,27,7,1.6-.4,4-1.3,5.5-1,2.3.5,2.4,2.4,4.6.6,1.4-1.1,2.6-4.2,3.5-5.7a29.384,29.384,0,0,0,3.8-9.8m238.4,457.5c-.2,2.4-1.1,5.5,1.4,6.6,1.6.7,6-.1,7.6,0,6.7.2,13.5-.3,20.1.2,2,.2,7.8,2.1,9.5.8s.4-5.4.3-7.2c-.5-7.4.5-14.7.9-22,.1-2,.9-6.8-.6-8.3-1.9-1.8-6-.8-8.2-.5-6.9.7-14,1.7-20.9,1.7-1.9,0-6.1-1.3-7.8-.6-2.5,1.1-1.9,4.9-2.1,7.3a179.27,179.27,0,0,0-.2,22m-154.9-332.7c-9-6.7-18.4-13-27.4-19.5-3.2-2.3-5.6-5.6-8.6-7.9-1.9-1.4-2.5-2-5-.7-3,1.6-5.8,4.1-8.5,6-2.3,1.6-4.6,3.3-7,4.9-2.1,1.5-2.9,1.9-1.3,4.4,2.7,4.4,8.2,8.5,11.9,12.1,9,9,17.7,18.4,27.8,26.2,3.3-10,10.5-18.2,18.1-25.5m101.2-155.9c-15.7-6.2-16.9-27.2-22.4-40.5-1.7,9.2,2.8,24-4.8,31.2-4.7,4.4-7.4-1.8-9.9-5.2-3.8-5.2-7.9-10.1-11.6-15.4,1.1,6.4,4.3,13.6,3.7,20.1-.5,5.1-3.7,12.1-8.5,6.3a118.4,118.4,0,0,0-11.2-11.2c-4.6-4.2-9.8-7-14.8-10.6a71.4,71.4,0,0,0,11,26.2c2.8,4.2,5.8,8.1,8.4,12.4,2.1,3.5,3.2,7.8,6,10.8,2.7,2.8,6.5,5,9.7,7.1,4.5,3,5.6,2.2,9.8-.7,8-5.6,16.8-10,24.9-15.5-1.5-2-3.9-3.9-3.8-6.6.1-2.2,1.7-4.2,4-3.9,1.8.2,2.6,2,4.5,1.4,1.8-.7,4-4.7,5-5.9m539.9,167c-7.3.9-14,3.4-21.5,3-3-.2-5.3.4-6.6-2.7-1.1-2.4,0-6.1-3.3-6.7-2.5-.5-5.5,1.8-7.3,3.1a55.576,55.576,0,0,1-9.9,6c-6.6,2.9-13.2,5.4-20.4,5.8a128.552,128.552,0,0,0,6,15.6c2.3,4.8,4.6,8.9,5.3,14.2.3,2.3.3,4.8,2.5,5.8s6.1.2,8.5.2c5.5.1,10.9.2,16.4.2,4.2,0,8.3,1,12.4.9,5-.1,10.7-2.3,15.7-3.3,9.3-2,22.3-3.2,29.8-9.5-6.9-1.1-13.9-.3-20.6,1.1-3.1.7-10.2,4.2-12.2.7-2.5-4.2,2.4-10,5.8-12,3.8-2.2,9.6-2,12.3-6-5.1.4-10.5.6-15.5,2.1-3.8,1.2-8.7,4.4-10.2-1.3-2.6-9.1,6.5-13.4,12.8-17.2m-542.2,78.9c1.3-12.2,3.6-24.5,3.8-36.8.1-5.3-5.9-4.4-10.1-5.9-6.1-2.2-12.1-4.8-18.1-7.3s-12-4.8-18-7.3c-5.4-2.2-10.7-5.5-16.1-7.4-3-1.1-3.2,0-4.9,2.7s-3.5,5.3-5.3,7.8c-3.8,5.4-8,10.6-12.2,15.7,12.7,7.6,25.9,14.7,39,21.6,13.4,7.2,27.9,11.5,41.9,16.9m270.7-46.2c6.7,0,13.2-.9,19.9-1.2,6.6-.2,13,.1,19.5.3,6.3.2,12.4,1.4,18.7,1.7,1.5.1,3.1.1,4.6.2,1.5.2,2.4.7,3.8,1,3.5.6,6.9-.2,10.4-.1,12.9.7,25.7,3.3,38.6,4,13.3.7,26.3,1.7,39.5,3.3,7,.8,14,1.3,21,1.8,1.4.1,4.5,1,5.3-.6,1-2-2.3-8.8-2.9-10.9a77.568,77.568,0,0,0-2.5-8.2c-.6-1.6-1.9-6.6-3.1-7.6-1.7-1.4-4.3-.1-6.3.2-4.1.6-8.3.9-12.4,1.3-6.1.6-12.2,2-18.3,2.2-6.9.2-13.7-.1-20.6-.3-13.7-.5-27.8-.2-41.5-1.7-15.8-1.6-31.7-2.3-47.5-3.5-3.8-.3-7.5-.4-11.3-.6-2.7-.2-8.2-2-10.7-1.2-2.6.9-2.1,3.9-2.4,6.3-.4,4.6-1.1,9.1-1.8,13.6m-164.6,124.3a226.537,226.537,0,0,1-28.5,2.3c-4.3.1-8.5.3-12.7.8-3.5.4-5.5.5-5.7,4.4-.6,17-1.5,33.8-2,50.8-.3,9.6,0,19.2,0,28.8,0,3.6-.8,6.3,3.2,6.7,4.9.5,10-.2,14.9-.1,4.5,0,9,.2,13.5.3,2.9.1,8.3,1.5,9.2-2,.3-1.1-.2-3.1-.2-4.3.1-2.3.3-4.6.5-6.9l.9-15.9c1.3-21.8,4.8-43.3,6.9-64.9m-109.2-269.9c6.3,4.8,13.4,8.1,20.2,12.4,3.2,2,6.3,4.2,9.5,6.3,3.2,2.2,7,3.5,10.1,5.9,5.9,4.7,13.3,7.7,19.8,11.8,6.6,4.1,13.2,8.3,20,12.2,3,1.7,6.3,2.8,9.4,4.3,3.7,1.9,7,4.3,10.8,6.1,8,3.8,16,7.6,24,11.5,15.7,7.6,31.7,14.7,47.7,21.6,3.4,1.5,7,2.1,10.6,3a25.237,25.237,0,0,1,5.4,1.4c.5.3,1,.3,1.4.7.7.8.1,2,.6,2.6,2.5,3.4,9.4-6.2,11-8.5,2.5-3.6,1.5-4.2-2.4-5.7s-7.8-2.9-11.6-4.5c-7-3-14.2-6.3-21-9.9-7-3.8-14.3-6.9-21.2-10.8-7.8-4.4-15.5-8.9-23.3-13.1-13.3-7.2-25.4-16.2-38.3-24-7.1-4.3-13.8-9.4-20.7-14.1-6.7-4.6-13.1-9.8-19.9-14.1-3.8-2.4-7.7-4.3-11.2-7.1-2.6-2-5.3-4.1-8.6-2.4-3.6,1.9-6.9,5-10.4,7.1-4.1,2.4-8,4.8-11.9,7.3m292,79.8c-2-1.1-9.5-3.9-6-7.4,2.5-2.5,8.4.8,10.9,1.6-.1-3.4,0-5.8-1.2-9.1-1.1-3.3-.8-5.8,1.9-8.3,1.2-1.1,5.7-2.1,6.3-3.6.8-2.3-3.2-1.6-4.6-1.9-7.3-1.7-6.8-9.3-7-15.2-.2-6.9-1.8-13.5-7.1-17.9-2.4-2-3.3-2-6.2-.7a13.986,13.986,0,0,1-3.3,1.5c-1.7.3-2.8-.8-4.3-.7-2.3.1-4.7,4-7,5.2-3,1.6-5.9,1.1-8.8,2.3-2.6,1-5.1,3.8-7.5,5.3-3.3,2-2.5,4-2.3,7.9.2,3.3.1,5.4-3.2,6.7-1,.4-2.9.2-3.8.8-1.3.9-.6,1.6-1,3.2-1.1,3.9-3.3,1.5-6.2,1-3.5-.6-7.4,1.8-5.6,5.6a6.057,6.057,0,0,0,3.5,3c1.7.5,3.8-.9,5.3-.3,3.9,1.6.8,5.3,1,7.9,2.4-1.3,3.2-5,5.7-.9,1.8,3,1.1,7.5.6,10.7-1,7.5-3.3,16.7-8.2,22.7-.7.9-1.8,2.5-3.1,2.3-1.1-.2-1.2-1.6-2.2-2-2-.8-5.2.4-5.9,2.3-1.3,3.2-1.2,7.9-1.3,11.3-.1,3.9-.6,8.3.4,12.1,1.6,6.5,7.7,8.8,13.6,10.2,3.3.8,6.9,1.7,10.2.6,3.6-1.2,6.1-4.5,8.7-7.2,1.9-2,5.7-4.3,5.9-7.2.1-1.4-.8-3.2-1.1-4.6a49.219,49.219,0,0,1-.4-6.7c.1-4.1,1.3-8.3.9-12.3-.4-4.2-3.5-4.5-5.2-7.7-1-1.9-1.2-4.9,1.2-5.6,1.4-.4,4.1.7,5.6.8,2.4.2,4.7.2,7.1.2,4.4,0,7.6-.2,11.6-2.1a51.6,51.6,0,0,1,12.1-3.8m-101,458.7a41.254,41.254,0,0,1,1.8-10.5c.9-2.9,3-5.4,3.3-8.4.7-6.2-1.4-12.1-7.4-14.4-5.8-2.2-12.2-2.1-18.3-1.7-3.5.2-6.5-1-10-.8a60.994,60.994,0,0,1-10.5-.7c-6.7-.7-12.5-3.7-19-4.9-3.2-.6-4.3.8-6.3,3a36.824,36.824,0,0,1-7.3,6.4c-4.2,2.8-11.7,8-12.1-.7-.3-7.3,7-12.7,11.5-17.4-4.6-1.9-4.2-9.2-9.5-6.3-2.3,1.3-4.1,3.1-6.3,4.6-1.8,1.3-5.9,4.8-8.3,4.5-3.3-.4-3.7-5.1-3.2-7.7.9-4.8,5.9-7.5,9.4-10.3,2.1-1.7,5.3-3,7.1-5,1.9-2.1,1.5-4.5,1.4-7.1,0-1.2.9-5.8.4-6.8-.8-1.6-3.4-1.2-5.2-1.3-3.5-.3-6.9-.9-10.4-1.2-2.7-.3-5.3.4-8,.5-6.8.3-13.8-.1-20.6-.1-1.2,0-6.5-.9-7.3.2-.7.9,0,5.2,0,6.3,0,6.9,0,13.8.2,20.7.4,13.6-.1,27.6-2.8,40.9-.5,2.4-2.1,5.1.4,6.3,1.9.9,6.9-.5,9-.6,6.7-.4,13.4,0,20.1-.5,11.6-.8,23.5-.1,35.3.2,15.7.4,31.3,2.1,47,2.5,6.8.2,13.8-1.1,20.5-.9,2.6.1,3.4.8,3.5,3.6.1,3-1.4,4.8,1.6,7.6m-329.4-481.2c-6-10.2-11.7-20.6-17.7-30.8-2.7-4.6-5.8-9-8.8-13.4a52,52,0,0,1-4.5-7c-1.1-2.3-1.4-4.9-2.7-7.1-2.4,5.4-7.6,8.3-13.1,10.2-4.2,1.5-8.4,3.6-12.8,4.6-11.6,2.4-23,7.6-34.3,11.4-24.1,8-49.8,12.4-73,22.8,7.9,7.8,5.5,24.5,18.7,27.1,5.3,1,10.7-.6,15.8-2,6.3-1.7,12.7-3.5,19.1-5.2,6.9-1.9,13.9-3.3,20.8-5,3.5-.8,7-1.4,10.5-2.1,2.9-.6,2.9-1.2,4.5-4,2.6-4.6,7.4-9.4,11.4-3.3,1.6,2.5,1.3,5.6,2.7,8.1,1.2,2.1,3.9,3.2,5.7,4.6,1.3-3.6,2.8-8.6,5.7-11.4,3.1-3,6.2-.6,7.3,3,1.3,4.3-.6,9.5-1.5,13.8-.4,2.1-1.2,4.4-.7,6.6.6,2.8,3.1,5.7,4.6,8.2,13.5-10.1,27.5-20.5,42.3-29.1m267.7,171.5c-4-5.4-8.2-10.3-11.3-16.3-3.2-6.5-5.8-13.5-9.2-19.9-3.4-6.3-6.5-12.7-9.7-19.2-2.2-4.5-4.6-15.3-10.9-15.1-3.1.1-6.3,1.3-9.4,1.6-3.7.4-7.3.3-11,.8-8,1-15.8,2.7-23.9,3.2a209.9,209.9,0,0,1-21,.3c-1.9-.1-6.8-1.6-8.6-.7-2.1,1-1.4,4.8-1.5,6.8-.7,7.4-1.7,14.8-2.8,22.2-.2,1.3-2.1,7.5-1.3,8.6,1.3,1.6,7.1.5,9,.7,7.4.6,14.7,2.3,22,3.1a104.921,104.921,0,0,0,11.2.5c3.7,0,9-1,12.4.3,2.2.8,3.5,2.7,2.8,5.1-.8,2.7-3.4,3.3-5.8,3.7-1.8.4-6.8.2-7.9,1.8-1.2,1.7.9,5,1.5,6.7,1.1,3.2.5,4.5.4,7.6-.1,3.3,1.8,6.1,1.5,9.4a55.186,55.186,0,0,0-.1,9.1c.3,2.9.1,6.1.5,8.9.9,6.5,15,2.6,19.4,2.5,9-.2,18.1,1.3,27,.8,2.6-.1,8.8.4,10.6-1.9,1.9-2.3,2.2-7.5,3.4-10.3,3.4-7.3,8.2-13.7,12.7-20.3m80.3-144.7c-.7,7.5-1,13.3-5.5,19.7-4.8,6.8-10.4,6.2-18,6.9a33.861,33.861,0,0,0-17.7,7c-6.5,4.8-13.4,8.7-20.3,12.8-13.1,7.8-28.7,9.9-43.6,12.2-3.7.6-10.6,2.3-6.2,6.7,4.7,4.8,7.4,11.8,10.5,17.7,7.3,13.7,12.9,28.3,21.2,41.4,3.4,5.3,7.4,11.7,12.5,15.4,4.9,3.5,14.7-3,19.7-5.2,6.5-2.8,13.3-5,19.3-8.5a176.429,176.429,0,0,1,17.4-8.7,182.1,182.1,0,0,1,17.7-7.2c7.2-2.3,14.9-3.1,22.2-5,7.5-2,13.5-4.2,19.6-9.2,2.8-2.3,6.3-4.6,7.4-8.3,1.2-3.8.3-8.5.1-12.4-.2-4-.8-8.1-.7-12.2s2.1-7.2,3.3-11c1.9-5.9,4-16.7-1.9-20.7-.4,6.3-2.7,12-4.8,18-2,5.7-5.3,9.2-10.3,12.6-1.9,1.3-3.9,3-6.2,3.6-2.4.6-5.7.3-8.1.3-5.5.1-11.5-1.4-15.8-5.1-8.6-7.6-10.5-21.1-9.7-31.9.5-6.2,1.5-12.4,4.3-18,1-1.9,2.9-4,1.8-6.2-1.1-2.1-6.1-3.6-8.2-4.7m-170.4,131.7c-10.2-1.3-20.8-2.4-30.7-5.3-3.6-1-7.9-2.4-8-6.7,0-1.3,1-3.7.4-5s-4.2-1.4-5.9-1.7c-19.6-3.9-37.8-11.5-55.4-21-17.7-9.6-34.1-21-50.8-32.2-16.3-11-29.9-24.3-43.4-38.4-1.9-2-3.8-3.9-5.8-5.8-1.4-1.4-3.4-4.2-5.3-4.9-3.4-1.3-8,3.8-11,5.3-3.9,2-8.5,2.3-11-1.9-1.7-2.8-.1-3.3.1-5.8.2-2.1-1.3-3.3-2.5-4.8-1,2.3-2.3,6.6-5.7,6.1-3-.5-3.4-4.6-3.6-7-.3-2.8.6-6.3-1.3-8.5-1.5-1.8-4.4-3.1-6.2-1.5-3.8,3.2-1.3,12.8-6.7,15.2-7.6,3.4-6.8-12-7-15.1-16.9,1.9-32.8,9.3-49.8,11.7-6.9,1-14.9.7-20.9-3.3-5.5-3.6-11.3-11.6-13.6-17.7-5.7,4.2-11.6,7.4-18.9,5.6-7.4-1.9-13.9-6-16.7-13.5-2.7-7.5-1.9-13.2,4.9-17.4a27.369,27.369,0,0,1,8.1-3.4c3.4-.9,7.7-1.6,10.9-3.1-3.3-4.8-7.1-9.6-8.6-15.4a31.251,31.251,0,0,1,1.8-20c4.8-11.1,18.1-18.6,30.2-16.1,10.5,2.2,18,11.3,20.9,21.3,1.4,4.5.2,7.3,5.7,4.9,6.3-2.8,11.8-6.9,18.3-9.3,5.6-2.1,11.8-3.9,17-7,2.7-1.6,2.6-1.7,1.5-4.6a23.962,23.962,0,0,1-1.9-10.9c.9-11.2,10.2-19.2,20.1-22.9,11.3-4.2,25.3-2.5,33.7,6.5a26.866,26.866,0,0,1,7.3,16.2c.2,2.7-1.4,6.8-.5,9.2.8,2.2,4.4,3.8,5.9,5.9,2.2,3.3,3.3,7.2,5.5,10.5,1.9,2.9,3.9,5.7,5.8,8.7a225.867,225.867,0,0,1,12.4,22q2.55,5.25,4.8,10.5c1.1,2.4,1.9,6.8,3.8,8.8,1.9,1.9,4.8,1.3,6.5,3.8,2.1,3.1.1,5.9-1.5,8.6,12.6,3.7,20.3,14.3,30.4,22.1,10.2,7.9,21.3,14.7,32.2,21.5,11.4,7,22.5,13.7,34.9,18.8,11.5,4.8,22.7,10.4,34.2,15.2,1.6.7,2.9,1.6,4.5.5,1.5-1,1.8-4.1,3.3-5.4,3.9-3.2,13.1-1.4,17.7-1.5,6.7-.1,13.5-.5,20.2-.1,2.3.1,4.5,1,6.7.7a84.489,84.489,0,0,1,10.1-1.3c2.9-.1,5.9-.3,8.8-.2,1.4.1,3.8.7,5-.3,1.6-1.2.6-4,1.7-5.8.7-1.1,2.1-1.4,2.7-2.3-.1.1,1.1-1.9.7-1.6,2.1-1.6,7.8-2.1,10.3-1.5.7.2.8,1.4,1.7,1.4s1-.9,1.6-1.1.8-1.1,1.7-1.3c1-.2,2.2.9,3.2,1,1.2.1,2.3-.7,3.4-1a16.721,16.721,0,0,1,3.8-.2c2.2-.3,4.6-.5,6.8-.8a86.228,86.228,0,0,0,9.8-2.2c1.4-.3,2.8-.7,4.3-.9,1.7-.1,3.9.7,5.5.3,1.4-.3.3-.8,1.4-1.2,1.3-.4,2.7-.6,4-1a39.617,39.617,0,0,0,8.4-4.4c6.2-3.8,11.8-8.5,17.9-12.4-1.4-2-6.6-2.4-8.8-3.1-3-1-6-2.2-9-3.3-6.8-2.7-13.5-5.5-20.2-8.3-12.7-5.3-25.6-10.4-37.7-16.9-11.4-6.1-23.7-10.9-35-17.2-5.8-3.2-11.6-6.6-17.2-10.1-5.2-3.3-10.9-5.5-16.3-8.5-10.6-5.8-20.3-13.1-30.9-18.8-2.5-1.3-5.3-4.2-8-4.9-2.3-.6-4.7.7-6.8,1.6-2.2,1-4.3,2.5-6.8,2.6-2.8.1-5.9-1.4-8.5-2.3-4.8-1.7-9-6.3-10.8-11.1a32.374,32.374,0,0,1-1.6-7.5c-.4-2.9.6-6.4-.1-9.2-1.4-5.3-7.6-10.3-11.2-14.1a97.85,97.85,0,0,1-11.6-15.5c-7.7-12.1-13-26.5-8.8-40.8.7-2.2,1.8-5.8,3.7-7.2,2.7-2,3.8.3,6.1,1.5,2.9,1.5,5.6,2.3,8.3,4.3,3.3,2.4,6,5.3,9,8,0-6.2-.9-11.6.4-17.7.7-3.2,2.2-9.8,6.2-10.3,4.2-.6,7.2,7,9,9.8,3.4,5.1,7.2,10,10.9,14.8.5-7.5-.5-25.5,9-28.4,8.5-2.7,12.9,20.2,14.9,25.4a70,70,0,0,0,7.5,13.7c3.1,4.4,6.4,2.2,11.1,2.4,4.4.2,6.3,3.2,6.3,7.5-.1,5.4-4.4,9.4-7.4,13.5,6.5,3.1,14.8,7.2,18.7,13.6a10.013,10.013,0,0,1,1.5,4.7c.1,1.7-1.5,4.7-.7,6.2.6,1.1,2.5,1.5,3.6,2.1,2.1,1.3,4.1,2.9,6.2,4.2,13.9,8.6,27,18.9,40.4,28,12.1,8.2,24.9,15.5,37.2,23.7,15.6,10.4,31.9,19.3,48.6,27.9,3.8,2,7.4,4.2,11.1,6.4,3.8,2.3,8.3,3.8,12.3,5.6,2.8,1.3,5.9,3.7,8.9,4.5,3.5,1,5-2.8,9.1-1.8,3.6.8,7.4,1.2,9.6,4.4,1.9,2.8,1.7,7.1,4.7,8.9,3.5,2.1,4.5-.2,5.3-3.1.9-3.3,3.5-7.1.3-9.5-3-2.3-7.3-2.5-10.8-3.3-1.8-.4-4.2-2-5.8-2.1-2.1-.2-2.6,1.8-4.4,1.8-1,0-1.8-.9-2.7-1.2-.2-.1-.7.7-1,.6a10.085,10.085,0,0,1-1.8-.9c-3.1-1.3-7.2-3.3-6.3-7.2.5-2.1,3.9-5.4,1.5-7.3-2.2-1.8-5.2,1.9-6.5-1.8-.9-2.7,1.3-3.4-1.5-5.6-2-1.6-3.8-2-2.7-5,.7-1.9,4.4-4.8,3.3-7.1-1.5-3.2-7.2,0-6.7-5.8.4-4.2,5.7-7.2,5.7-11.4,0-3-2.8-2.9-3.5-4.9-.7-1.9-.1-1.9,1-3.2a11.779,11.779,0,0,0,1.9-2.5c.7-1.4,1.9-3.3,1.5-4.9-.4-1.5-2.1-2.4-2.6-4-1.6-6.2,11.4-20.2,14.8-11.7,2.5-2.9,5.7-8.8,10.1-8.4,2.6.3,1.5,1,2.4,2.6.7,1.1,2.5,1.7,3,2.9,1-3.2-.1-9.2,2.8-11.5,2.8-2.3,4.6,1.7,5.8,4,.8-2.1,1.3-6.1,3.9-6.9,2.8-.8,4.6,2.7,6,4.5,1.5-2.1,4.3-8.3,7.5-7.6,2.4.6,3.6,4.6,4.7,6.4,2.6-1.7,6.8-5.9,10.2-5.5,3.3.4,3,3.5,6.9,2.3,2.8-.9,5.7-3.4,8.7-3.6,3.2-.2,4.8,2,8.3,1.5,3.7-.6,4.3-1.4,6.7,1.6,1.2,1.5.9,2.2,3,2.5,1.8.3,3.3-.9,5.1-.2a5.524,5.524,0,0,1,2.9,3.1c.7,1.5-.1,4.2.6,5.4,1.3,2.3,6.2.3,8.4,1.9,3,2.2.2,5.5,1.7,7.9,1.3,1.9,4.8,1.4,6.2,4a7.6,7.6,0,0,1-.5,7.7c-.6.9-2.4,1.7-2.8,2.5-.9,1.7-.1,1.5.4,3.3.9,3.4.2,4.6-2.4,6.9-1.5,1.3-1.8.9-1.9,3-.1,1.6,1.2,3,1,4.7-.4,2.8-3.2,4.6-4,7.4-1.1,3.6-4,5.5-6.3,8.5,2.6,1.6,6.1,2.9,7.4,5.9,1.4,3.2,1.1,7.9.1,11.2-.9,3.2-3,5.2-4.9,7.7-2.4,3.1-2.2,5.5-2.3,9.2-.3,7.9-3.7,15-11.4,17.5-3.1,1-5.8,2.4-8.9,3.4a28.691,28.691,0,0,1-10.5,1c-2.5-.1-5.3-.7-6.2,1.9-.4,1.3-.3,6.4.3,7.5,1,2,3.8,1.7,5.5,3.4,3.1,3.1,2.2,5.7,7.4,5.8,16.9.2,33.7-1.1,50.5.2,8.3.6,16.4,2,24.8,2.5,9.2.5,18.4.6,27.6,1.2,8.7.5,17.1,1.7,25.9,1.2,8.1-.4,15.9-1,24-1.9,2.8-.3,7.1.1,9-2,1.1-1.2,1.3-3.2,2.4-4.5a20.485,20.485,0,0,1,3.6-3c3-2.3,5.8-4.3,9.7-4.2,3.4.1,6.2,2.6,9,4.4,3.3,2.1,4.6,3.1,8.5,2.3,3.8-.8,7.4-2.3,11.1-3.5a112.807,112.807,0,0,0,22.6-9.8c3.6-2,6.1-3.3,10.1-2.1,4.2,1.2,5.4,2.4,5.4,6.8,0,1.4-.5,3.8,1.1,4.6,1.2.6,3.7-1,4.7-1.5a123.063,123.063,0,0,1,13.1-5.2c4.1-1.3,8.3-2.4,12.5-3.6,3.5-1,8.1-2.4,11.5-.6,8.7,4.7-4.1,16.7-7.5,20.6,4.2-1,13.1-.4,15.3,4,2.6,5.3-2.6,10.5-5.5,14.4,4.1,1.9,12.4.3,13.5,6.1,1,4.9-4.2,9.9-7.5,12.8-8.7,7.5-22.1,12.7-33.6,12.8-2.9,0-5.7-.5-8.6-.7-2.1-.1-4,.6-6.1.6-2.9,0-5.5-.6-8.4-.2-3.4.5-6.9,1-10.3,1.4q-4.8.6-9.6.9c-2.1.2-5.3-.3-7.3.4-2.5.9-1.8,1.8-2,4.3a12.091,12.091,0,0,1-4,7.7c-8.1,7.3-21.8,5.5-25.8-5.2-1-2.6.3-4,0-6.3-.4-2.4-2.6-2.3-4.7-2.4-6.6-.5-13.2-.5-19.8-1-12.7-.9-25.8-2.7-38.6-2.4-13.3.3-26.6-.5-39.9-1.2-6.2-.3-12.6-2.5-18.7-2-6.5.5-13.3-.9-19.9-1.6-14.5-1.5-30.8-2-44.2-8,1.1,14.6,2.8,29.4-9,40.2-5,4.6-11.2,9.8-17.7,11.7-8.4,2.5-16.4,4.6-24.9,6.4-15.8,3.5-31.6,11.7-45.9,19.1-6.7,3.5-14.6,4.9-21.9,6.8-3.5.9-7.4,2.2-11,2-3.6-.1-6.1-2.6-9.2-4-3,7.1-7.1,13.7-10.2,20.7-1.5,3.5-2.7,7.2-4.5,10.6-1.3,2.6-3.5,4-3.7,7-.5,7.3.8,14.8.5,22.2-.4,8-1.6,16.1-2.4,24.1-1.6,17.3-.8,34.7-2.1,52.1-1.2,15.8-.4,31.5-2.2,47.4-.5,4.4-1,8.8-1.4,13.2-.2,2.9-1.8,9.6-.3,12.2.7,1.1,2.2,1.3,3.3,1.8a14.252,14.252,0,0,1,4.4,3.7c2.6,3,3.2,6.5,3.8,10.3,3.4-1.8,17.5-11.1,15.4-.9-.7,3.2-3.5,4.9-5.8,6.9-1.7,1.5-3.2,3.1-5,4.4-1.2.9-3.7,2.1-4.3,3.5-1,2.7,4.3,6.5,6.8,6.5,3.5,0,7.9-5.3,10.9-7,7.9-4.5,7.2,5.2,4.2,9.4-2.3,3.2-.3,2.9,2.8,3.6,4.8,1,9.3,1.9,14.2,2.5,9.4,1.2,18.7-.3,28,1.8,9.3,2.2,14.8,8,16.2,17.5.7,5.1,1.4,2.5,5.6,3.7,3.9,1.1,6.1,5.6,8.4,8.6,4.5,6.1,12.9,21.3,6,28.5-2.9,3-10,2.3-13.9,2.8-2.5.3-5.5,1.5-8,.9-2.4-.6-4-2.7-5.7-4.3,0,9.6-.1,17.9-7.7,24.9a30.043,30.043,0,0,1-22.6,7.6c-8.1-.6-16.3-3.8-21.4-10.3a26.2,26.2,0,0,1-5.3-11.9,20.793,20.793,0,0,1-.1-6.1c.2-1.2,1.3-3.3.6-4.5-1.3-2-7.4-.3-9.4-.1-5.4.5-10.7,1.2-16,1.9-4.4.6-8.9,1.2-13.3.4-3.8-.7-5.3-1.1-4.6,3.4,1.4,9.1-.9,17.1-8.4,22.7s-14.3,6.7-23.4,5.2c-8.3-1.3-15.9-9.2-18.4-17-3.2-10.4.1-19.9,7.9-27-4.7-2.4-7.8-3.8-9.5-9.3-1.7-5.8-.1-11.8.7-17.6,1.8-12.4,1.1-24.5,1.7-37,.3-5.5,1.4-11.1,1.4-16.6,0-3.1-.2-3-3.4-3-2,0-4.1.1-5-2.2-2-5.6,7.5-5.1,9.9-7.4,2.9-2.7.9-13.2.8-16.9-.3-12,.9-23.7,1.1-35.7.1-5.4.4-11.1,0-16.5-.2-2.2-1.4-3.9-1.3-6,.1-2.7.6-5.3.5-8.2-1.2-25.1-1.5-50.7,1.7-75.6.2-1.5,1.2-4.9.7-6.4-.9-2.3-3.6-1.5-5.5-2.3-5.3-2.3-6.6-6-6.9-11.4-.2-3.2-.3-6.4-.5-9.6-.1-1.6-.2-3.3-.3-4.9-.1-1.9.7-4.1.6-5.7,0-.5-.2-1.3-.2-1.6-.6-.3-.9-.7-.7-1.3a4.146,4.146,0,0,1,.3-1.6c0,.3-.4-1.8-.4-1.6a13.823,13.823,0,0,0,1-2.2c-.5-1-1.5.2-1.9-1.6-.3-1.5.7-3.3.4-5-.5-4.5.3-8.7,1-13.4" fill-rule="evenodd"/><path id="ink-shape-6" data-name="ink-shape" d="M122.842,400.521c59,.1,118.1,1.6,176.9,3.3,6.5.2,13,.7,19.5,1,1.1,0,4.8-.4,5.7.8,1.4,2-1.8,4-3.2,4.9-5,3.1-11.7,2.6-17.5,2.7-7.9.3-15.8.3-23.7.2-27.4-.4-54.9-2.5-82.3-4.1-16.9-1-33.8-1.6-50.7-2.1-8.3-.2-16.7-.4-25-.7-2.3-.1-6.4.6-6.4-2.3,0-3,4.5-3.5,6.7-3.7" fill-rule="evenodd"/><path id="ink-shape-7" data-name="ink-shape" d="M193.342,433.72c41.7,1.8,83.5,3,125.2,4.7,2.7.1,8.5-.7,9.5,2.6,1.1,3.5-3.3,6.9-6.3,7.8-3.8,1.2-8.6.5-12.5.6a134.731,134.731,0,0,1-15.6-.3c-20.2-1.4-40.3-3.1-60.5-4.5q-17.1-1.2-34.2-2.7c-3-.3-12.1.6-14.2-1.9-1.3-1.5.1-3.9,1.4-5.1,2.1-1.8,4.5-1.4,7.2-1.2" fill-rule="evenodd"/><path id="ink-shape-8" data-name="ink-shape" d="M316.442,479.32a183.55,183.55,0,0,1-40.6-2.6c-1.8-.3-6-.3-7.2-2-1.8-2.6,1.6-4.8,3.8-5,6.2-.6,13.6,1.5,19.9,1.9,6.6.4,13.2-.3,19.8-.4,3.8,0,7.5-.1,11.3-.1,2.2,0,5.4-.6,7.5-.1,6.1,1.4-1.7,6.5-4.4,7.1-.9.3-10.1,1.6-10.1,1.2" fill-rule="evenodd"/><path id="ink-shape-9" data-name="ink-shape" d="M612.342,154.021c.1-1.6-.3-5.6,1.6-6.4,3.8-1.5,3.6,8,5.1,9.3,5.5,4.9,4-13.9,9.2-7.8,4.3,4.9.8,16.7-5.1,19-4.4,1.6-7.4-1.5-9.1-5.1-.1-.1-2.4-9-1.7-9" fill-rule="evenodd"/><path id="ink-shape-10" data-name="ink-shape" d="M617.242,132.62c2.7-.5,6.1,2.2,4.5,4.9-1.2,1.9-9.2,5-11.4,5-2.7.1-2.4-2.1-1.6-4.2a9.123,9.123,0,0,1,8.5-5.7" fill-rule="evenodd"/><path id="ink-shape-11" data-name="ink-shape" d="M134.142,89.92c.8-3.4,2-7.4,6-4.1,2.7,2.2,4.7,7.6,4.9,11,.3,4.1-1.9,6.1-5.5,3.8s-4.9-6.6-5.4-10.7" fill-rule="evenodd"/><path id="ink-shape-12" data-name="ink-shape" d="M47.142,132.521c-1.3,9.1-9.4.6-9-4.9.2-2.9,1.8-5.2,5-3.5,2.8,1.5,3.8,5.6,4,8.4" fill-rule="evenodd"/><path id="ink-shape-13" data-name="ink-shape" d="M505.142,662.62c.6-2.3.7-6.9,3.3-7.9,3.9-1.5,5.5,4.9,5.7,7.5.1,2.8-.8,8.7-4.8,8.2-3.3-.3-3.5-5.4-4.2-7.8" fill-rule="evenodd"/><path id="ink-shape-14" data-name="ink-shape" d="M408.142,666.22c.7-2.8.9-7.7,4.2-8.6,3.6-.9,4.8,4.1,4.8,6.9,0,2.6-1.4,9.4-5.1,9-2.9-.3-3.3-5.1-3.9-7.3" fill-rule="evenodd"/></g></g></svg>