<?xml version="1.0" encoding="utf-8"?>
<!-- Generator: Adobe Illustrator 21.0.0, SVG Export Plug-In . SVG Version: 6.00 Build 0)  -->
<svg version="1.1" xmlns="http://www.w3.org/2000/svg" xmlns:xlink="http://www.w3.org/1999/xlink" x="0px" y="0px" viewBox="0 0 3460.9 3645" style="enable-background:new 0 0 3460.9 3645;" xml:space="preserve">

<g>
	<g>
		<g>
			<path d="M1525.6,1246.7l-0.7-0.4c-12.1-7.2-16-22.8-8.9-34.9c7.2-12.1,22.8-16,34.9-8.9l0.7,0.4
				c12.1,7.2,16,22.8,8.9,34.9C1553.3,1249.9,1537.7,1253.9,1525.6,1246.7z" style="fill:#0185D0;"/>
			<path d="M1438.9,1195.1l-0.7-0.4c-12.1-7.2-16-22.8-8.9-34.9s22.8-16,34.9-8.9l0.7,0.4c12.1,7.2,16,22.8,8.9,34.9
				C1466.6,1198.4,1451,1202.3,1438.9,1195.1z" style="fill:#0185D0;"/>
			<path d="M1352.2,1143.6l-0.7-0.4c-12.1-7.2-16-22.8-8.9-34.9s22.8-16,34.9-8.9l0.7,0.4c12.1,7.2,16,22.8,8.9,34.9
				C1379.9,1146.8,1364.3,1150.8,1352.2,1143.6z" style="fill:#0185D0;"/>
			<path d="M1265.5,1092l-0.7-0.4c-12.1-7.2-16-22.8-8.9-34.9c7.2-12.1,22.8-16,34.9-8.9l0.7,0.4
				c12.1,7.2,16,22.8,8.9,34.9C1293.2,1095.2,1277.6,1099.2,1265.5,1092z" style="fill:#0185D0;"/>
			<path d="M1178.8,1040.4l-0.7-0.4c-12.1-7.2-16-22.8-8.9-34.9c7.2-12.1,22.8-16,34.9-8.9l0.7,0.4
				c12.1,7.2,16,22.8,8.9,34.9C1206.5,1043.7,1190.9,1047.6,1178.8,1040.4z" style="fill:#0185D0;"/>
			<path d="M1092.1,988.9l-0.7-0.4c-12.1-7.2-16-22.8-8.9-34.9c7.2-12.1,22.8-16,34.9-8.9l0.7,0.4
				c12.1,7.2,16,22.8,8.9,34.9C1119.8,992.1,1104.2,996.1,1092.1,988.9z" style="fill:#0185D0;"/>
			<path d="M1475.8,1330.5l-0.7-0.4c-12.1-7.2-16-22.8-8.9-34.9c7.2-12.1,22.8-16,34.9-8.9l0.7,0.4
				c12.1,7.2,16,22.8,8.9,34.9C1503.5,1333.7,1487.9,1337.7,1475.8,1330.5z" style="fill:#0185D0;"/>
			<path d="M1389.1,1278.9l-0.7-0.4c-12.1-7.2-16-22.8-8.9-34.9c7.2-12.1,22.8-16,34.9-8.9l0.7,0.4
				c12.1,7.2,16,22.8,8.9,34.9S1401.2,1286.1,1389.1,1278.9z" style="fill:#0185D0;"/>
			<path d="M1302.4,1227.4l-0.7-0.4c-12.1-7.2-16-22.8-8.9-34.9c7.2-12.1,22.8-16,34.9-8.9l0.7,0.4
				c12.1,7.2,16,22.8,8.9,34.9S1314.5,1234.5,1302.4,1227.4z" style="fill:#0185D0;"/>
			<path d="M1215.7,1175.8l-0.7-0.4c-12.1-7.2-16-22.8-8.9-34.9c7.2-12.1,22.8-16,34.9-8.9l0.7,0.4
				c12.1,7.2,16,22.8,8.9,34.9C1243.4,1179,1227.7,1183,1215.7,1175.8z" style="fill:#0185D0;"/>
			<path d="M1129,1124.2l-0.7-0.4c-12.1-7.2-16-22.8-8.9-34.9c7.2-12.1,22.8-16,34.9-8.9l0.7,0.4
				c12.1,7.2,16,22.8,8.9,34.9C1156.6,1127.5,1141,1131.4,1129,1124.2z" style="fill:#0185D0;"/>
			<path d="M1042.3,1072.7l-0.7-0.4c-12.1-7.2-16-22.8-8.9-34.9s22.8-16,34.9-8.9l0.7,0.4c12.1,7.2,16,22.8,8.9,34.9
				C1069.9,1075.9,1054.3,1079.9,1042.3,1072.7z" style="fill:#0185D0;"/>
			<path d="M1426,1414.3l-0.7-0.4c-12.1-7.2-16-22.8-8.9-34.9s22.8-16,34.9-8.9l0.7,0.4c12.1,7.2,16,22.8,8.9,34.9
				C1453.6,1417.5,1438,1421.5,1426,1414.3z" style="fill:#0185D0;"/>
			<path d="M1339.3,1362.7l-0.7-0.4c-12.1-7.2-16-22.8-8.9-34.9s22.8-16,34.9-8.9l0.7,0.4c12.1,7.2,16,22.8,8.9,34.9
				C1366.9,1365.9,1351.3,1369.9,1339.3,1362.7z" style="fill:#0185D0;"/>
			<path d="M1252.5,1311.2l-0.7-0.4c-12.1-7.2-16-22.8-8.9-34.9s22.8-16,34.9-8.9l0.7,0.4c12.1,7.2,16,22.8,8.9,34.9
				C1280.2,1314.4,1264.6,1318.3,1252.5,1311.2z" style="fill:#0185D0;"/>
			<path d="M1165.8,1259.6l-0.7-0.4c-12.1-7.2-16-22.8-8.9-34.9c7.2-12.1,22.8-16,34.9-8.9l0.7,0.4
				c12.1,7.2,16,22.8,8.9,34.9C1193.5,1262.8,1177.9,1266.8,1165.8,1259.6z" style="fill:#0185D0;"/>
			<path d="M1079.1,1208l-0.7-0.4c-12.1-7.2-16-22.8-8.9-34.9c7.2-12.1,22.8-16,34.9-8.9l0.7,0.4
				c12.1,7.2,16,22.8,8.9,34.9C1106.8,1211.2,1091.2,1215.2,1079.1,1208z" style="fill:#0185D0;"/>
			<path d="M992.4,1156.5l-0.7-0.4c-12.1-7.2-16-22.8-8.9-34.9c7.2-12.1,22.8-16,34.9-8.9l0.7,0.4
				c12.1,7.2,16,22.8,8.9,34.9S1004.5,1163.6,992.4,1156.5z" style="fill:#0185D0;"/>
			<path d="M1625.3,1079.1l-0.7-0.4c-12.1-7.2-16-22.8-8.9-34.9c7.2-12.1,22.8-16,34.9-8.9l0.7,0.4
				c12.1,7.2,16,22.8,8.9,34.9C1653,1082.3,1637.4,1086.3,1625.3,1079.1z" style="fill:#0185D0;"/>
			<path d="M1538.6,1027.6l-0.7-0.4c-12.1-7.2-16-22.8-8.9-34.9c7.2-12.1,22.8-16,34.9-8.9l0.7,0.4
				c12.1,7.2,16,22.8,8.9,34.9C1566.3,1030.8,1550.6,1034.7,1538.6,1027.6z" style="fill:#0185D0;"/>
			<path d="M1451.9,976l-0.7-0.4c-12.1-7.2-16-22.8-8.9-34.9c7.2-12.1,22.8-16,34.9-8.9l0.7,0.4
				c12.1,7.2,16,22.8,8.9,34.9C1479.5,979.2,1463.9,983.2,1451.9,976z" style="fill:#0185D0;"/>
			<path d="M1365.2,924.4l-0.7-0.4c-12.1-7.2-16-22.8-8.9-34.9c7.2-12.1,22.8-16,34.9-8.9l0.7,0.4
				c12.1,7.2,16,22.8,8.9,34.9S1377.2,931.6,1365.2,924.4z" style="fill:#0185D0;"/>
			<path d="M1278.5,872.9l-0.7-0.4c-12.1-7.2-16-22.8-8.9-34.9c7.2-12.1,22.8-16,34.9-8.9l0.7,0.4
				c12.1,7.2,16,22.8,8.9,34.9C1306.1,876.1,1290.5,880,1278.5,872.9z" style="fill:#0185D0;"/>
			<path d="M1191.7,821.3l-0.7-0.4c-12.1-7.2-16-22.8-8.9-34.9c7.2-12.1,22.8-16,34.9-8.9l0.7,0.4
				c12.1,7.2,16,22.8,8.9,34.9C1219.4,824.5,1203.8,828.5,1191.7,821.3z" style="fill:#0185D0;"/>
			<path d="M1575.5,1162.9l-0.7-0.4c-12.1-7.2-16-22.8-8.9-34.9c7.2-12.1,22.8-16,34.9-8.9l0.7,0.4
				c12.1,7.2,16,22.8,8.9,34.9C1603.1,1166.1,1587.5,1170.1,1575.5,1162.9z" style="fill:#0185D0;"/>
			<path d="M1488.7,1111.3l-0.7-0.4c-12.1-7.2-16-22.8-8.9-34.9c7.2-12.1,22.8-16,34.9-8.9l0.7,0.4
				c12.1,7.2,16,22.8,8.9,34.9S1500.8,1118.5,1488.7,1111.3z" style="fill:#0185D0;"/>
			<path d="M1402,1059.8l-0.7-0.4c-12.1-7.2-16-22.8-8.9-34.9c7.2-12.1,22.8-16,34.9-8.9l0.7,0.4
				c12.1,7.2,16,22.8,8.9,34.9S1414.1,1067,1402,1059.8z" style="fill:#0185D0;"/>
			<path d="M1315.3,1008.2l-0.7-0.4c-12.1-7.2-16-22.8-8.9-34.9c7.2-12.1,22.8-16,34.9-8.9l0.7,0.4
				c12.1,7.2,16,22.8,8.9,34.9C1343,1011.4,1327.4,1015.4,1315.3,1008.2z" style="fill:#0185D0;"/>
			<path d="M1228.6,956.7l-0.7-0.4c-12.1-7.2-16-22.8-8.9-34.9c7.2-12.1,22.8-16,34.9-8.9l0.7,0.4
				c12.1,7.2,16,22.8,8.9,34.9C1256.3,959.9,1240.7,963.8,1228.6,956.7z" style="fill:#0185D0;"/>
			<path d="M1141.9,905.1l-0.7-0.4c-12.1-7.2-16-22.8-8.9-34.9c7.2-12.1,22.8-16,34.9-8.9l0.7,0.4
				c12.1,7.2,16,22.8,8.9,34.9C1169.6,908.3,1154,912.3,1141.9,905.1z" style="fill:#0185D0;"/>
			<path d="M1724.9,911.5l-0.7-0.4c-12.1-7.2-16-22.8-8.9-34.9c7.2-12.1,22.8-16,34.9-8.9l0.7,0.4
				c12.1,7.2,16,22.8,8.9,34.9C1752.6,914.7,1737,918.7,1724.9,911.5z" style="fill:#0185D0;"/>
			<path d="M1638.2,860l-0.7-0.4c-12.1-7.2-16-22.8-8.9-34.9c7.2-12.1,22.8-16,34.9-8.9l0.7,0.4
				c12.1,7.2,16,22.8,8.9,34.9C1665.9,863.2,1650.3,867.1,1638.2,860z" style="fill:#0185D0;"/>
			<path d="M1551.5,808.4l-0.7-0.4c-12.1-7.2-16-22.8-8.9-34.9c7.2-12.1,22.8-16,34.9-8.9l0.7,0.4
				c12.1,7.2,16,22.8,8.9,34.9C1579.2,811.6,1563.6,815.6,1551.5,808.4z" style="fill:#0185D0;"/>
			<path d="M1464.8,756.8l-0.7-0.4c-12.1-7.2-16-22.8-8.9-34.9c7.2-12.1,22.8-16,34.9-8.9l0.7,0.4
				c12.1,7.2,16,22.8,8.9,34.9C1492.5,760.1,1476.9,764,1464.8,756.8z" style="fill:#0185D0;"/>
			<path d="M1378.1,705.3l-0.7-0.4c-12.1-7.2-16-22.8-8.9-34.9c7.2-12.1,22.8-16,34.9-8.9l0.7,0.4
				c12.1,7.2,16,22.8,8.9,34.9S1390.2,712.5,1378.1,705.3z" style="fill:#0185D0;"/>
			<path d="M1291.4,653.7l-0.7-0.4c-12.1-7.2-16-22.8-8.9-34.9c7.2-12.1,22.8-16,34.9-8.9l0.7,0.4
				c12.1,7.2,16,22.8,8.9,34.9C1319.1,656.9,1303.5,660.9,1291.4,653.7z" style="fill:#0185D0;"/>
			<path d="M1675.1,995.3l-0.7-0.4c-12.1-7.2-16-22.8-8.9-34.9c7.2-12.1,22.8-16,34.9-8.9l0.7,0.4
				c12.1,7.2,16,22.8,8.9,34.9C1702.8,998.5,1687.2,1002.5,1675.1,995.3z" style="fill:#0185D0;"/>
			<path d="M1588.4,943.8l-0.7-0.4c-12.1-7.2-16-22.8-8.9-34.9c7.2-12.1,22.8-16,34.9-8.9l0.7,0.4
				c12.1,7.2,16,22.8,8.9,34.9C1616.1,947,1600.5,950.9,1588.4,943.8z" style="fill:#0185D0;"/>
			<path d="M1501.7,892.2l-0.7-0.4c-12.1-7.2-16-22.8-8.9-34.9c7.2-12.1,22.8-16,34.9-8.9l0.7,0.4
				c12.1,7.2,16,22.8,8.9,34.9C1529.4,895.4,1513.8,899.4,1501.7,892.2z" style="fill:#0185D0;"/>
			<path d="M1415,840.6l-0.7-0.4c-12.1-7.2-16-22.8-8.9-34.9s22.8-16,34.9-8.9l0.7,0.4c12.1,7.2,16,22.8,8.9,34.9
				C1442.7,843.8,1427.1,847.8,1415,840.6z" style="fill:#0185D0;"/>
			<path d="M1328.3,789.1l-0.7-0.4c-12.1-7.2-16-22.8-8.9-34.9c7.2-12.1,22.8-16,34.9-8.9l0.7,0.4
				c12.1,7.2,16,22.8,8.9,34.9C1356,792.3,1340.4,796.2,1328.3,789.1z" style="fill:#0185D0;"/>
			<path d="M1241.6,737.5l-0.7-0.4c-12.1-7.2-16-22.8-8.9-34.9c7.2-12.1,22.8-16,34.9-8.9l0.7,0.4
				c12.1,7.2,16,22.8,8.9,34.9C1269.3,740.7,1253.7,744.7,1241.6,737.5z" style="fill:#0185D0;"/>
			<path d="M1824.6,743.9l-0.7-0.4c-12.1-7.2-16-22.8-8.9-34.9s22.8-16,34.9-8.9l0.7,0.4c12.1,7.2,16,22.8,8.9,34.9
				S1836.7,751.1,1824.6,743.9z" style="fill:#0185D0;"/>
			<path d="M1737.9,692.4l-0.7-0.4c-12.1-7.2-16-22.8-8.9-34.9c7.2-12.1,22.8-16,34.9-8.9l0.7,0.4
				c12.1,7.2,16,22.8,8.9,34.9C1765.6,695.6,1750,699.6,1737.9,692.4z" style="fill:#0185D0;"/>
			<path d="M1651.2,640.8l-0.7-0.4c-12.1-7.2-16-22.8-8.9-34.9c7.2-12.1,22.8-16,34.9-8.9l0.7,0.4
				c12.1,7.2,16,22.8,8.9,34.9C1678.9,644,1663.3,648,1651.2,640.8z" style="fill:#0185D0;"/>
			<path d="M1564.5,589.3l-0.7-0.4c-12.1-7.2-16-22.8-8.9-34.9c7.2-12.1,22.8-16,34.9-8.9l0.7,0.4
				c12.1,7.2,16,22.8,8.9,34.9C1592.2,592.5,1576.6,596.4,1564.5,589.3z" style="fill:#0185D0;"/>
			<path d="M1477.8,537.7l-0.7-0.4c-12.1-7.2-16-22.8-8.9-34.9c7.2-12.1,22.8-16,34.9-8.9l0.7,0.4
				c12.1,7.2,16,22.8,8.9,34.9C1505.5,540.9,1489.8,544.9,1477.8,537.7z" style="fill:#0185D0;"/>
			<path d="M1391.1,486.1l-0.7-0.4c-12.1-7.2-16-22.8-8.9-34.9c7.2-12.1,22.8-16,34.9-8.9l0.7,0.4
				c12.1,7.2,16,22.8,8.9,34.9S1403.1,493.3,1391.1,486.1z" style="fill:#0185D0;"/>
			<path d="M1774.8,827.7l-0.7-0.4c-12.1-7.2-16-22.8-8.9-34.9s22.8-16,34.9-8.9l0.7,0.4c12.1,7.2,16,22.8,8.9,34.9
				S1786.8,834.9,1774.8,827.7z" style="fill:#0185D0;"/>
			<path d="M1688.1,776.2l-0.7-0.4c-12.1-7.2-16-22.8-8.9-34.9c7.2-12.1,22.8-16,34.9-8.9l0.7,0.4
				c12.1,7.2,16,22.8,8.9,34.9C1715.7,779.4,1700.1,783.4,1688.1,776.2z" style="fill:#0185D0;"/>
			<path d="M1601.4,724.6l-0.7-0.4c-12.1-7.2-16-22.8-8.9-34.9c7.2-12.1,22.8-16,34.9-8.9l0.7,0.4
				c12.1,7.2,16,22.8,8.9,34.9C1629,727.8,1613.4,731.8,1601.4,724.6z" style="fill:#0185D0;"/>
			<path d="M1514.7,673l-0.7-0.4c-12.1-7.2-16-22.8-8.9-34.9c7.2-12.1,22.8-16,34.9-8.9l0.7,0.4
				c12.1,7.2,16,22.8,8.9,34.9C1542.3,676.3,1526.7,680.2,1514.7,673z" style="fill:#0185D0;"/>
			<path d="M1427.9,621.5l-0.7-0.4c-12.1-7.2-16-22.8-8.9-34.9s22.8-16,34.9-8.9l0.7,0.4c12.1,7.2,16,22.8,8.9,34.9
				C1455.6,624.7,1440,628.7,1427.9,621.5z" style="fill:#0185D0;"/>
			<path d="M1341.2,569.9l-0.7-0.4c-12.1-7.2-16-22.8-8.9-34.9c7.2-12.1,22.8-16,34.9-8.9l0.7,0.4
				c12.1,7.2,16,22.8,8.9,34.9C1368.9,573.1,1353.3,577.1,1341.2,569.9z" style="fill:#0185D0;"/>
			<path d="M1326.3,1581.9l-0.7-0.4c-12.1-7.2-16-22.8-8.9-34.9s22.8-16,34.9-8.9l0.7,0.4c12.1,7.2,16,22.8,8.9,34.9
				C1354,1585.1,1338.4,1589,1326.3,1581.9z" style="fill:#0185D0;"/>
			<path d="M1239.6,1530.3l-0.7-0.4c-12.1-7.2-16-22.8-8.9-34.9s22.8-16,34.9-8.9l0.7,0.4c12.1,7.2,16,22.8,8.9,34.9
				C1267.3,1533.5,1251.7,1537.5,1239.6,1530.3z" style="fill:#0185D0;"/>
			<path d="M1152.9,1478.7l-0.7-0.4c-12.1-7.2-16-22.8-8.9-34.9c7.2-12.1,22.8-16,34.9-8.9l0.7,0.4
				c12.1,7.2,16,22.8,8.9,34.9C1180.6,1482,1165,1485.9,1152.9,1478.7z" style="fill:#0185D0;"/>
			<path d="M1066.2,1427.2l-0.7-0.4c-12.1-7.2-16-22.8-8.9-34.9c7.2-12.1,22.8-16,34.9-8.9l0.7,0.4
				c12.1,7.2,16,22.8,8.9,34.9C1093.9,1430.4,1078.3,1434.4,1066.2,1427.2z" style="fill:#0185D0;"/>
			<path d="M979.5,1375.6l-0.7-0.4c-12.1-7.2-16-22.8-8.9-34.9c7.2-12.1,22.8-16,34.9-8.9l0.7,0.4
				c12.1,7.2,16,22.8,8.9,34.9C1007.2,1378.8,991.5,1382.8,979.5,1375.6z" style="fill:#0185D0;"/>
			<path d="M892.8,1324.1l-0.7-0.4c-12.1-7.2-16-22.8-8.9-34.9c7.2-12.1,22.8-16,34.9-8.9l0.7,0.4
				c12.1,7.2,16,22.8,8.9,34.9C920.4,1327.3,904.8,1331.2,892.8,1324.1z" style="fill:#0185D0;"/>
			<path d="M1426,1414.3l-0.7-0.4c-12.1-7.2-16-22.8-8.9-34.9s22.8-16,34.9-8.9l0.7,0.4c12.1,7.2,16,22.8,8.9,34.9
				C1453.6,1417.5,1438,1421.5,1426,1414.3z" style="fill:#0185D0;"/>
			<path d="M1339.3,1362.7l-0.7-0.4c-12.1-7.2-16-22.8-8.9-34.9s22.8-16,34.9-8.9l0.7,0.4c12.1,7.2,16,22.8,8.9,34.9
				C1366.9,1365.9,1351.3,1369.9,1339.3,1362.7z" style="fill:#0185D0;"/>
			<path d="M1252.5,1311.2l-0.7-0.4c-12.1-7.2-16-22.8-8.9-34.9s22.8-16,34.9-8.9l0.7,0.4c12.1,7.2,16,22.8,8.9,34.9
				C1280.2,1314.4,1264.6,1318.3,1252.5,1311.2z" style="fill:#0185D0;"/>
			<path d="M1165.8,1259.6l-0.7-0.4c-12.1-7.2-16-22.8-8.9-34.9c7.2-12.1,22.8-16,34.9-8.9l0.7,0.4
				c12.1,7.2,16,22.8,8.9,34.9C1193.5,1262.8,1177.9,1266.8,1165.8,1259.6z" style="fill:#0185D0;"/>
			<path d="M1079.1,1208l-0.7-0.4c-12.1-7.2-16-22.8-8.9-34.9c7.2-12.1,22.8-16,34.9-8.9l0.7,0.4
				c12.1,7.2,16,22.8,8.9,34.9C1106.8,1211.2,1091.2,1215.2,1079.1,1208z" style="fill:#0185D0;"/>
			<path d="M992.4,1156.5l-0.7-0.4c-12.1-7.2-16-22.8-8.9-34.9c7.2-12.1,22.8-16,34.9-8.9l0.7,0.4
				c12.1,7.2,16,22.8,8.9,34.9S1004.5,1163.6,992.4,1156.5z" style="fill:#0185D0;"/>
			<path d="M1376.1,1498.1l-0.7-0.4c-12.1-7.2-16-22.8-8.9-34.9c7.2-12.1,22.8-16,34.9-8.9l0.7,0.4
				c12.1,7.2,16,22.8,8.9,34.9S1388.2,1505.3,1376.1,1498.1z" style="fill:#0185D0;"/>
			<path d="M1289.4,1446.5l-0.7-0.4c-12.1-7.2-16-22.8-8.9-34.9c7.2-12.1,22.8-16,34.9-8.9l0.7,0.4
				c12.1,7.2,16,22.8,8.9,34.9S1301.5,1453.7,1289.4,1446.5z" style="fill:#0185D0;"/>
			<path d="M1202.7,1395l-0.7-0.4c-12.1-7.2-16-22.8-8.9-34.9c7.2-12.1,22.8-16,34.9-8.9l0.7,0.4
				c12.1,7.2,16,22.8,8.9,34.9C1230.4,1398.2,1214.8,1402.1,1202.7,1395z" style="fill:#0185D0;"/>
			<path d="M1116,1343.4l-0.7-0.4c-12.1-7.2-16-22.8-8.9-34.9c7.2-12.1,22.8-16,34.9-8.9l0.7,0.4
				c12.1,7.2,16,22.8,8.9,34.9C1143.7,1346.6,1128.1,1350.6,1116,1343.4z" style="fill:#0185D0;"/>
			<path d="M1029.3,1291.8l-0.7-0.4c-12.1-7.2-16-22.8-8.9-34.9s22.8-16,34.9-8.9l0.7,0.4c12.1,7.2,16,22.8,8.9,34.9
				C1057,1295,1041.4,1299,1029.3,1291.8z" style="fill:#0185D0;"/>
			<path d="M942.6,1240.3l-0.7-0.4c-12.1-7.2-16-22.8-8.9-34.9c7.2-12.1,22.8-16,34.9-8.9l0.7,0.4
				c12.1,7.2,16,22.8,8.9,34.9C970.3,1243.5,954.7,1247.4,942.6,1240.3z" style="fill:#0185D0;"/>
		</g>
	</g>
	<path d="M2486.6,2954.6c117.2-71.9,230.9-157.5,301.9-275.3c115.4-191.2,98.6-438.9,14.3-645.7
		c-64.9-159.2-183.4-314.2-352-347.6c-131.9-26.1-266.5,27.4-383.5,93.8c-353.2,200.5-629.6,532.6-762.8,916.2
		c-35.3,101.6-59.8,217.9-10.4,313.5c59,114.2,200.4,156.4,328.2,169.9C1947,3213.7,2212,3123.1,2486.6,2954.6z" style="fill:#E5E5E5;"/>
	<g>
		<g>
			<path d="M610.4,2349.4c0.1-0.2,0.2-0.6,0.3-0.6c0.9-0.1,1.7,0,2.6,0c673.3,0,1346.5,0,2019.8,0c1,0,2,0.4,2.9,0.6
				c-0.6,1-1.3,2-1.8,3c-42.2,86.5-84.4,173.1-126.5,259.6c-1.2,2.6-2.5,3.6-5.5,3.6c-591-0.1-1182-0.1-1773,0c-3,0-4.3-0.9-5.4-3.6
				c-33.2-77.3-66.5-154.5-99.9-231.7C619.6,2370,614.9,2359.7,610.4,2349.4z" style="fill:#D48F00;"/>
		</g>
	</g>
	<g>
		<g>
			<path d="M2636.7,2348.1c0,1.1,0,2.2,0,3.9c-1,0-2.2,0-3.3,0c-672.2,0-1344.4,0-2016.6,0c-1.5,0-3-0.1-4.6,0
				c-2.6,0.1-0.8-1.8-1.3-2.6c0.8-2.2,2-4.2,2.5-6.5c0.8-3.8,1.3-7.7,1.9-11.6c7.7-47.2,15.4-94.3,23.1-141.5
				c7.1-43.7,14.2-87.5,21.3-131.2c6.7-41.4,13.5-82.7,20.3-124.1c6.8-41.6,13.5-83.2,20.3-124.7c6.7-41.4,13.5-82.7,20.2-124.1
				c7.6-46.5,15.1-93,22.7-139.5c7.2-43.9,14.4-87.9,21.5-131.8c7.2-44.4,14.4-88.7,21.7-133.1c7.2-44.2,14.4-88.3,21.6-132.5
				c6.7-41.4,13.5-82.7,20.3-124.1c2.4-15,4.7-30,7.1-45c525.7,0,1051.3,0,1577,0c4.8,28.9,9.5,57.9,14.2,86.8
				c7.6,46.5,15.2,93,22.8,139.6c7.6,46.3,15.2,92.6,22.8,138.9c6.8,41.2,13.4,82.3,20.2,123.5c7.6,46.5,15.3,93,22.9,139.5
				c8,48.9,16,97.8,24,146.6c7.7,46.9,15.4,93.9,23.1,140.8c7.6,46.1,15.1,92.2,22.6,138.3c7.6,46.3,15.2,92.6,22.8,138.9
				c8.5,51.7,16.9,103.3,25.3,155C2634.4,2334.5,2635.6,2341.3,2636.7,2348.1z" style="fill:#FFC52D;"/>
		</g>
	</g>
	<g>
		<path d="M974.3,1043.7c1.7,1.8,3.3,3.8,5.2,5.3c58.6,44.3,117.2,88.5,175.8,132.8
			c157.8,119.2,315.6,238.3,473.5,357.5c135.3,102.1,270.6,204.2,405.9,306.4c135.8,102.5,271.6,205.1,407.4,307.6
			c12.8,9.7,25.6,19.4,38.5,29c3.3,2.5,5.3,5,5.8,9.5c1.8,16.2,4.2,32.3,6.4,48.4c0.1,0.8,0.7,1.5,1.1,2.2c0,2.6,0,5.2,0,7.8
			c-25.7,0-51.3,0-77,0c-2.4-2.1-4.8-4.3-7.3-6.3c-77.3-59.5-154.7-119-232-178.5c-96.6-74.4-193.2-148.8-289.9-223.1
			c-97.3-74.9-194.7-149.7-292-224.6c-90.3-69.5-180.5-138.9-270.8-208.4c-103-79.3-206-158.5-309-237.8
			c-35-26.9-69.9-53.9-105-80.6c-3.8-2.9-5-5.8-4.1-10.4c1.8-10,3.2-20.2,4.6-30.3c0.3-2.1,0.2-4.3,0.3-6.5
			C932.6,1043.7,953.4,1043.7,974.3,1043.7z" style="fill:#333333;"/>
		<path d="M2137.8,2250.3c-2-1.9-3.8-4-5.9-5.8c-96.2-76.7-192.3-153.4-288.5-230.2
			c-109.4-87.3-218.9-174.6-328.3-261.8c-112-89.3-224-178.6-336-267.9c-96.5-77-193-154-289.5-231c-0.5-0.4-1-0.9-1.5-1.2
			c-4.8-2.6-5.2-6.3-4.4-11.5c4-25.3,7.5-50.7,11.2-76.1c0.2-1.1,0.4-2.1,0.6-3.4c2.9-0.3,4.4,1.8,6.1,3.2
			c30,23.4,59.9,46.8,89.9,70.3c104.3,81.6,208.5,163.1,312.8,244.7c124.3,97.2,248.6,194.5,372.9,291.7
			c101.2,79.1,202.4,158.3,303.6,237.4c102.2,79.9,204.4,159.9,306.6,239.9c0.7,0.5,1.3,1.1,1.9,1.7
			C2238.7,2250.3,2188.2,2250.3,2137.8,2250.3z" style="fill:#333333;"/>
		<path d="M1197.4,1043.7c1.5,1.5,2.9,3.1,4.6,4.4c112.5,82.1,225,164.2,337.6,246.4c97.1,70.8,194.1,141.7,291.2,212.6
			c185.2,135.2,370.4,270.3,555.6,405.4c20.9,15.2,41.7,30.6,62.7,45.7c3.1,2.2,4.5,4.8,5,8.5c3.6,26,7.4,52,11.1,78.1
			c1.6,11.4,3.2,22.7,5.1,35.5c-3.8-2.8-6.6-4.8-9.3-6.8c-85.1-63.3-170.3-126.5-255.4-189.8c-104-77.3-207.9-154.5-311.9-231.8
			c-105.9-78.7-211.7-157.4-317.6-236.1c-126.5-94-252.9-188-379.4-281.9c-37.9-28.1-75.7-56.2-113.6-84.4c-2.4-1.8-4.7-3.8-7.1-5.7
			C1116.5,1043.7,1156.9,1043.7,1197.4,1043.7z" style="fill:#333333;"/>
		<path d="M1857.4,2250.3c-12.6-10.6-25.2-21.3-37.9-31.8c-76.3-63.2-152.6-126.5-229-189.7
			c-80.7-66.8-161.4-133.6-242.1-200.4c-80-66.3-160-132.5-240.1-198.8c-82-67.9-164-135.9-246.1-203.7c-3.1-2.6-4.8-4.8-4.1-9.2
			c4.3-28.3,8.3-56.7,12.4-85.1c0.2-1.1,0.5-2.1,1-3.9c1.9,1.3,3.4,2.2,4.9,3.4c61.6,50,123.2,99.9,184.8,149.9
			c81.2,65.9,162.4,131.7,243.5,197.6c118.1,95.9,236.3,191.7,354.4,287.6c92.3,74.9,184.7,149.8,277,224.7
			c22.6,18.3,45.2,36.7,67.8,55.1c1.7,1.3,3.1,2.9,4.7,4.4C1958.2,2250.3,1907.8,2250.3,1857.4,2250.3z" style="fill:#333333;"/>
		<path d="M1423,1043.7c1.7,1.6,3.3,3.4,5.2,4.7c101.7,71.9,203.5,143.7,305.2,215.5c114.4,80.7,228.7,161.5,343,242.2
			c112.9,79.7,225.9,159.4,338.8,239.2c1.2,0.9,2.4,1.9,3.7,2.6c3.1,1.7,4.4,4.2,4.9,7.8c4.1,29.5,8.4,58.9,12.6,88.4
			c0.8,5.6,1.6,11.1,2.5,17.9c-2.9-2-5.1-3.3-7.1-4.8c-58.3-41.8-116.5-83.7-174.7-125.6c-120.7-86.7-241.5-173.5-362.2-260.2
			c-118.1-84.9-236.2-169.7-354.2-254.6c-78-56.1-156-112.1-234-168.2c-1.8-1.3-3.3-3.2-5-4.8
			C1342.1,1043.7,1382.6,1043.7,1423,1043.7z" style="fill:#333333;"/>
		<path d="M1576.9,2250.3c-2.1-2.1-4.1-4.4-6.3-6.4c-148.7-128.1-297.5-256.1-446.2-384.1
			c-95.4-82.1-190.8-164.2-286.2-246.3c-0.8-0.7-1.6-1.6-2.5-2.1c-4.7-2.7-5-6.6-4.2-11.6c4.4-28.6,8.4-57.2,12.5-85.8
			c0.3-2.1,0.8-4.3,1.4-7.5c2.4,1.9,4.4,3.4,6.3,5c35.2,29.7,70.5,59.4,105.7,89.1c76.4,64.4,152.9,128.9,229.3,193.3
			c102.2,86.2,204.4,172.3,306.6,258.5c70.1,59.1,140.3,118.2,210.4,177.3c6.6,5.6,13.3,11.2,19.9,16.9c1.3,1.1,2.2,2.5,3.3,3.8
			C1676.9,2250.3,1626.9,2250.3,1576.9,2250.3z" style="fill:#333333;"/>
		<path d="M1647.4,1043.7c1.6,1.4,3.1,3,4.8,4.2c137.9,94.4,275.9,188.7,413.9,283.1c107.6,73.6,215.3,147.2,323,220.7
			c4.5,3.1,6.7,6.3,7.4,11.9c3.8,28.9,8.2,57.6,12.3,86.5c0.3,2.3,0.5,4.7,0.8,8c-2-1.1-3.5-1.8-4.8-2.7
			c-82.1-57.1-164.2-114.1-246.2-171.2c-109-75.8-218-151.7-327-227.5c-99.7-69.4-199.5-138.7-299.2-208.1c-1.9-1.3-3.3-3.1-5-4.7
			C1567.4,1043.7,1607.4,1043.7,1647.4,1043.7z" style="fill:#333333;"/>
		<path d="M1296.5,2250.3c-22.3-20.1-44.6-40.2-66.9-60.2c-72.8-65.3-145.7-130.6-218.5-195.9
			c-64.3-57.6-128.5-115.2-192.8-172.8c-4.2-3.8-8.3-7.7-12.7-11.3c-3.1-2.5-4-5.2-3.4-9c2.4-15.5,4.6-31,6.8-46.4
			c2.4-16.8,4.9-33.5,7.4-50.3c0.2-1.6,0.7-3.3,1.2-5.6c2,1.6,3.6,2.7,5,3.9c96.3,84.4,192.5,168.9,288.8,253.3
			c91.8,80.5,183.7,161.1,275.6,241.6c19,16.6,37.9,33.3,56.8,49.9c1,0.8,1.8,1.8,2.7,2.8
			C1396.5,2250.3,1346.5,2250.3,1296.5,2250.3z" style="fill:#333333;"/>
		<path d="M1873,1043.7c1.6,1.4,3.1,3,4.9,4.1c89.6,59.5,179.3,118.9,269,178.4c72.6,48.2,145.3,96.3,217.9,144.4
			c2.7,1.8,4.6,3.5,5.1,7c4.1,29.5,8.3,58.9,12.5,88.4c0.1,0.6,0,1.3,0,3c-2.9-1.9-5.2-3.4-7.4-4.9
			c-109.6-73.8-219.2-147.7-328.7-221.5c-96.1-64.7-192.1-129.5-288.2-194.2c-1.9-1.3-3.4-3.1-5-4.6
			C1793,1043.7,1833,1043.7,1873,1043.7z" style="fill:#333333;"/>
		<path d="M1014.7,2250.3c-8.7-8.4-17.4-17-26.2-25.3c-71.4-66.8-142.8-133.6-214.3-200.3c-2.4-2.2-3.8-4.3-3.3-7.8
			c5.4-36.3,10.6-72.6,15.9-108.9c0.1-0.6,0.5-1.2,1.1-2.6c2,1.7,3.7,3.1,5.4,4.6c33.8,30.9,67.6,61.9,101.5,92.8
			c70.7,64.6,141.5,129.3,212.2,193.9c18.1,16.6,36.2,33.1,54.3,49.7c1.2,1.1,2.2,2.6,3.3,3.8
			C1114.7,2250.3,1064.7,2250.3,1014.7,2250.3z" style="fill:#333333;"/>
		<path d="M2098.7,1043.7c2,1.6,3.8,3.4,6,4.8c77.8,50.1,155.7,100.2,233.6,150.2c4.6,2.9,6.9,6.1,7.7,11.7
			c3.3,25.4,7.2,50.8,10.8,76.1c0.2,1.5,0,3,0,5.4c-2.2-1.4-4-2.4-5.8-3.6c-104.6-68.4-209.2-136.7-313.8-205.1
			c-18-11.8-36-23.5-54-35.3c-2-1.3-3.9-2.8-5.8-4.2C2017.8,1043.7,2058.2,1043.7,2098.7,1043.7z" style="fill:#333333;"/>
		<path d="M735.6,2249c0.8-1.6,2.2-3.2,2.4-4.9c5.4-36.5,10.6-73,15.9-109.5c0.4-2.5,0.9-5,1.5-8.7
			c43.9,42,87,83.2,130.1,124.4c-48.5,0-97,0-145.5-0.1C738.8,2250.1,736.3,2252.2,735.6,2249z" style="fill:#333333;"/>
		<path d="M2321.7,1043.7c2.6,17.8,5.3,35.7,7.8,53.5c1.4,9.6,2.7,19.3,4.3,30c-2.2-1.1-3.7-1.7-5.1-2.5
			c-40.5-25.7-81.1-51.4-121.6-77.2c-1.6-1-2.8-2.5-4.2-3.8C2242.6,1043.7,2282.2,1043.7,2321.7,1043.7z" style="fill:#333333;"/>
	</g>
	<g>
		<path d="M2135.2,1975c-0.2,0.4-0.4,1.2-0.7,1.2c-0.7,0.2-1.5,0.1-2.3,0.1c-346,0-692,0-1038,0c0-1.9,0-3.9,0.2-5.8
			c1.2-13.1,2.4-26.2,3.6-39.3c3-32.9,5.9-65.8,8.8-98.7c2.5-27.3,5-54.5,7.5-81.8c3.2-35.3,6.3-70.6,9.5-105.8
			c2.5-27.3,5-54.5,7.5-81.8c3.2-35.3,6.3-70.6,9.5-105.8c2.5-27.6,5-55.2,7.5-82.8c3.8-42.1,7.6-84.2,11.4-126.3
			c0.4-4.9,1.2-9.9,1.8-14.8c302.6,0,605.2,0,907.8,0c0.1,1,0.1,2,0.2,2.9c2.5,27.8,5,55.6,7.5,83.4c3,33.7,5.9,67.3,8.8,101
			c2.5,27.8,5,55.6,7.5,83.4c3,33.7,5.8,67.3,8.8,101c2.9,32.6,5.9,65.1,8.7,97.7c4.5,50.5,8.9,101.1,13.3,151.6
			c3.1,34.7,6.1,69.5,9.2,104.2C2133.9,1964.1,2134.6,1969.6,2135.2,1975z" style="fill:#B3D8DD;"/>
	</g>
	<g>
		<g>
			<path d="M1204.5,1607.9c0-64.3,0-128.7,0-193c0.6-0.1,1.3-0.2,1.9-0.2c24.5,0,790.9,0,814.6,0c1.2,0,2.5,0.1,3.9,0.2
				c0,1.4,0,2.4,0,3.3c0,60.3,0,120.6,0,181c0,16.9-1.9,33.6-5.5,50.1c-9.7,44.5-30.4,83.4-59.6,118.1
				c-32.2,38.2-71.3,67.6-115.6,90.4c-66.9,34.5-138.5,50.9-213.4,53.4c-43.1,1.4-85.7-2.4-127.9-11.5
				c-63.9-13.8-123-38.6-175.5-77.9c-39.1-29.2-71.3-64.6-94-108.1c-14.4-27.5-23.6-56.7-27.1-87.6
				C1205.7,1619.9,1205.2,1613.9,1204.5,1607.9z" style="fill:#9B1F0F;"/>
		</g>
	</g>
	<g>
		<g>
			<path d="M2005.5,1264.2c0.2,0,0.4,0,0.6,0c0.1,0,0.2,0,0.2,0c3,0,6,0.4,8.9,1.2c4.6,1.2,8.7,3.1,12.4,6.1
				c2.4,2,4.4,4.3,5.9,7.1c1.7,3.4,2.4,6.9,2,10.7c-0.3,2.4-1.1,4.7-2.3,6.8c-1.9,3.3-4.6,6-7.8,8.1c-5.3,3.5-11.1,5.1-17.3,5.5
				c-0.6,0-1.1,0.1-1.7,0.1c-0.4,0-0.8,0-1.2,0c-0.1,0-0.3,0-0.4,0c-2.5-0.1-5-0.4-7.5-0.9c-4.4-1-8.4-2.7-12.1-5.3
				c-2.7-2-5-4.4-6.8-7.3c-1.3-2.2-2.1-4.6-2.4-7.2c0-0.4-0.1-0.8-0.1-1.3c0-0.4,0-0.9,0-1.3c0-0.1,0-0.2,0-0.3
				c0.1-0.9,0.2-1.8,0.4-2.7c0.8-3.7,2.6-6.8,5.1-9.5c2.4-2.6,5.3-4.6,8.4-6.1c4.7-2.3,9.7-3.4,14.8-3.5
				C2005,1264.2,2005.3,1264.2,2005.5,1264.2z" style="fill:#333333;"/>
		</g>
		<g>
			<path d="M1223.4,1264.2c0.2,0,0.4,0,0.6,0c0.1,0,0.2,0,0.2,0c3,0,6,0.4,8.9,1.2c4.6,1.2,8.7,3.1,12.4,6.1
				c2.4,2,4.4,4.3,5.9,7.1c1.7,3.4,2.4,6.9,2,10.7c-0.3,2.4-1.1,4.7-2.3,6.8c-1.9,3.3-4.6,6-7.8,8.1c-5.3,3.5-11.1,5.1-17.3,5.5
				c-0.6,0-1.1,0.1-1.7,0.1c-0.4,0-0.8,0-1.2,0c-0.1,0-0.3,0-0.4,0c-2.5-0.1-5-0.4-7.5-0.9c-4.4-1-8.4-2.7-12.1-5.3
				c-2.7-2-5-4.4-6.8-7.3c-1.3-2.2-2.1-4.6-2.4-7.2c0-0.4-0.1-0.8-0.1-1.3c0-0.4,0-0.9,0-1.3c0-0.1,0-0.2,0-0.3
				c0.1-0.9,0.2-1.8,0.4-2.7c0.8-3.7,2.6-6.8,5.1-9.5c2.4-2.6,5.3-4.6,8.4-6.1c4.7-2.3,9.7-3.4,14.8-3.5
				C1222.9,1264.2,1223.2,1264.2,1223.4,1264.2z" style="fill:#333333;"/>
		</g>
		<g>
			<path d="M2049.4,1882c0.2,0,0.5,0,0.7,0c0.1,0,0.2,0,0.3,0c3.3,0,6.6,0.5,9.8,1.3c5,1.3,9.6,3.4,13.7,6.7
				c2.7,2.2,4.9,4.7,6.5,7.8c1.9,3.7,2.7,7.6,2.2,11.8c-0.3,2.7-1.2,5.2-2.6,7.5c-2.1,3.7-5.1,6.6-8.6,8.9
				c-5.8,3.8-12.2,5.7-19.1,6.1c-0.6,0-1.2,0.1-1.9,0.1c-0.4,0-0.9,0-1.3,0c-0.2,0-0.3,0-0.5,0c-2.8-0.1-5.5-0.4-8.2-1
				c-4.8-1.1-9.3-3-13.3-5.9c-3-2.2-5.6-4.8-7.4-8.1c-1.4-2.5-2.3-5.1-2.6-7.9c-0.1-0.5-0.1-0.9-0.1-1.4c0-0.5,0-1,0-1.5
				c0-0.1,0-0.3,0.1-0.4c0.1-1,0.2-2,0.4-2.9c0.8-4,2.8-7.5,5.6-10.5c2.7-2.9,5.8-5,9.3-6.7c5.2-2.5,10.6-3.7,16.3-3.9
				C2048.9,1882,2049.2,1882,2049.4,1882z" style="fill:#333333;"/>
		</g>
		<g>
			<path d="M1179.4,1882c0.2,0,0.5,0,0.7,0c0.1,0,0.2,0,0.3,0c3.3,0,6.6,0.5,9.8,1.3c5,1.3,9.6,3.4,13.7,6.7
				c2.7,2.2,4.9,4.7,6.5,7.8c1.9,3.7,2.7,7.6,2.2,11.8c-0.3,2.7-1.2,5.2-2.6,7.5c-2.1,3.7-5.1,6.6-8.6,8.9
				c-5.8,3.8-12.2,5.7-19.1,6.1c-0.6,0-1.2,0.1-1.9,0.1c-0.4,0-0.9,0-1.3,0c-0.2,0-0.3,0-0.5,0c-2.8-0.1-5.5-0.4-8.2-1
				c-4.8-1.1-9.3-3-13.3-5.9c-3-2.2-5.6-4.8-7.4-8.1c-1.4-2.5-2.3-5.1-2.6-7.9c-0.1-0.5-0.1-0.9-0.1-1.4c0-0.5,0-1,0-1.5
				c0-0.1,0-0.3,0.1-0.4c0.1-1,0.2-2,0.4-2.9c0.8-4,2.8-7.5,5.6-10.5c2.7-2.9,5.8-5,9.3-6.7c5.2-2.5,10.6-3.7,16.3-3.9
				C1178.9,1882,1179.2,1882,1179.4,1882z" style="fill:#333333;"/>
		</g>
	</g>
	<g>
		<g>
			<path d="M1610.8,1109.6c2.8,0,5.7,0,8.5,0c1.1,0.1,2.1,0.4,3.2,0.4c41.3,0.6,82.1,5.7,122.2,16
				c62.5,16.1,120,42.6,170.3,83.5c33.3,27.1,61,59,80.9,97.3c24,46.2,33.6,95.2,26.9,147c-4.3,33.5-15.4,64.8-32.3,94
				c-26.5,45.9-63.2,82.2-107.2,111.1c-72.1,47.4-152.1,70.5-237.8,75.7c-7.7,0.5-15.4,0.8-23.1,1.2c-5.4,0-10.9,0-16.3,0
				c-1.9-0.2-3.9-0.4-5.8-0.5c-34.6-0.8-68.9-4.9-102.7-12.6c-60-13.7-115.7-37-165.7-73.3c-37.7-27.3-69.3-60.3-92.7-100.7
				c-17.7-30.6-29.1-63.5-33-98.7c-0.6-5.8-1.2-11.6-1.8-17.5c0-6.1,0-12.2,0-18.3c0.2-1.6,0.4-3.2,0.6-4.8
				c1.6-12.2,2.5-24.4,5-36.4c10.4-50.3,35-93.2,69.7-130.6c33.1-35.7,72.3-63,116-84c64.4-31,132.6-46.1,203.9-48.3
				C1603.5,1110.1,1607.2,1109.8,1610.8,1109.6z" style="fill:#F1592B;"/>
		</g>
	</g>
	<g>
		<path d="M1503.3,1334.2c-2.1,3.7-5.5,1.7-8.4,1.9c-1.3,0.1-2.7-0.1-4-0.2c-0.9-0.1-1.7-0.3-2.6-0.6
			c-0.6-0.2-1.3-0.8-1.6-0.7c-2.7,1.9-4.9,0-7.3-0.9c-0.9-0.3-1.9-0.2-3.7-0.4c1.1,1.2,1.5,1.7,2.3,2.5c-4.2-1.1-7.9-2-11.6-3
			c-0.2,0.5-0.5,1.1-0.8,1.8c-2.2-1.2-4.2-2.4-6.4-3.7c-0.3,0.6-0.7,1.3-0.8,1.7c-3.1-0.8-6.2-1.6-9.2-2.4c0,0.1,0.1,0.2,0.1,0.4
			c-1.1-0.1-2.2-0.1-3.3-0.2c-1-0.1-2.1-0.5-3.1-0.6c-1.4-0.1-2.8,0-4.2-0.7c-1,0.3-2,1-2.8,0.7c-2.7-0.7-5.8,0.3-8.3-2.4
			c-0.8-0.9-4.1,0.5-6.5,0.8c-1.8-1.9-6.2-1.4-7.9,1.1c-0.6,1-1.1,2.1-1.9,3c-0.3,0.4-1.1,0.3-1.6,0.5c-0.1-0.3-0.2-0.5-0.3-0.8
			c0.8-0.6,1.6-1.2,2.4-1.9c0-0.3-0.1-0.6-0.1-0.9c-1.8,0.4-3.5,0.8-5.6,1.2c-0.5-3.2,0.1-6.3-2.4-8.6c-0.4-0.3,0.7-2,0.6-3
			c-0.4-5.2-2.2-10.4,0.7-15.5c0.3-0.6-0.5-1.8-0.7-2.6c0.5-6.5,4.7-12.2,4-19.6c0.4-0.3,1.2-0.9,2-1.5c-0.3-0.1-0.5-0.1-0.8-0.2
			c0.3-1.6,0.2-4.3,0.9-4.5c2.2-0.8-0.6-5.3,3.5-3.6c-1.2-3.6,0.3-7.2,3.4-8.9c-0.4-4.4,3.6-10.9,7-11.2c-0.6-0.7-1.1-1.2-2-2.1
			c2-0.1,3.4-0.2,4-0.2c-0.2-0.4-1.2-1.4-1.1-2.2c0.1-0.8,1.3-1.5,2.1-2c2-1.1,4.1-2.1,6.5-3.3c0,0.2-0.2-0.6-0.4-1.5
			c0.8-0.1,1.6-0.3,2.5-0.4c-0.3,1.1-0.5,1.9-0.8,2.7c2.1-1.1,2.6-3.7,5.4-3.6c0.2,0,0.5-2.5,0.9-4.1c3.1,1.2,2.7-2.6,4.2-4.3
			c2.1-2.4,2-4.5-1.2-7.1c2.8,0.6,4.3,0.9,5.9,1.3c0.3-2.4,0.9-4.7-2.8-4.8c1.2-1.2,2-2.1,3.1-3.3c0.6,0.9,1.3,1.8,2.2,3.2
			c0.3-1,0.4-1.5,0.4-1.4c2.2-1,4.1-1.9,6.1-2.8c0-1,0.1-1.9,0.1-2.9c-0.7-2.6,0.9-3.9,3-4.8c2-0.9,4.2-1.4,6-2.5
			c1.8-1.2,3.2-2.4,5.5-1.3c0.4,0.2,1.4-0.7,2-1.3c3.1-3.2,6.6-3.6,10.6-1.4c0-1.3,0-2.1,0-3c3.6-0.3,6.2-3.9,9-3.7
			c4.4-1.7,8.2-3.1,12.6-4.7c-0.6,1.4-0.8,1.8-1,2.3c0.3,0.2,0.6,0.4,0.9,0.6c2.2-2.8,4.4-5.5,6.8-8.5c2,1.5,2.6-0.9,3.4-2.7
			c1,0.6,1.9,1.2,2.8,1.8c2.2-4.6,6.9-5,10.6-6.8c1.8-0.9,4.4-0.1,6.8-0.1c0-3.8,3.9-0.8,5.8-2.1c3-2.1,3.9,2.2,5.4,2.5
			c2.3-1.4,4-2.9,5.9-3.5c1.5-0.4,3.4,0.3,5.3,0.6c-0.1-0.5-0.2-1.7-0.4-2.9c3.2,0.9,6.5,1.9,9.7,2.9c1.2-2.7,4.1-3.3,6.9-1
			c0.2-1,0.4-1.7,0.5-2.4c0.1-0.8,0.2-1.5,0.6-2.6c1.1,3.4,3.2,3.5,5.8,1.9c0-0.4,0-1.1,0-2.4c2.4,1.4,4.5,2.6,6.8,3.9
			c0.4-0.9,0.7-1.7,1.3-3.2c6.2,0.9,12.6,1.9,18.8,2.9c0.3-0.6,0.6-2,1.1-2.2c0.9-0.2,2,0.6,3,0.7c1.7,0.1,4.2,0.6,4.8-0.3
			c1.7-2.2,3.2-0.7,4.8-0.6c1.5,0.1,3.9,2.2,4-1.6c1.6,1.1,3.1,2,4.7,3.1c0.4-0.9,0.7-1.5,1-2.1c0,0.3,0.1,0.6,0.1,0.9
			c2.8,0,5.7,0.6,8.2-0.1c3.5-1,6.7,0.2,10,0.2c0.3,0,0.9,0.4,0.9,0.3c2.3-3.5,5.5,0.9,7.9-1c0.3,0.4,0.5,0.8,0.9,1.5
			c0.5-1.2,0.9-2,1.2-2.9c2.2,1,4.3,2,6.4,3c1.7-2.5,4.4-2.1,8.1,1.6c0-0.5,0.1-1.2,0.1-1.2c2.4,0.1,4.7,0.2,7.1,0.4
			c3.1,0.2,6.2,0.3,9.2,0.7c3.8,0.4,7.5,1.1,10.6,3.7c0.3,0.3,1,0.8,1.1,0.7c2.1-1.7,3.3,0.1,4.9,0.9c2,1,4.3,1.2,6.4,1.9
			c1.1,0.3,2.1,1,3.2,1.3c1.3,0.4,2.7,0.6,4.6,1.1c0.3,0.6,0.9,1.9,1.5,3.3c0.1-0.3,0.3-0.7,0.4-1c1.4,0.3,2.8,0.9,4.2,0.8
			c2.8-0.2,4.4,2.7,6.1,2.9c3.8,0.3,6.5,2,9,4.4c0.1,0.1,0.4,0.2,0.6,0.2c3.3-0.6,5.9-0.1,5.8,4.1c0.9,0,1.9,0,3.1,0
			c0.1,2.7,2.5,2.7,5,2.9c0.9,0.1,1.8,1.3,3.4,2.5c-3.8-0.7-3.4,0.8-2.7,2.8c1.2-0.5,2.3-0.9,3.3-1.3c0.1,0.1,0.2,0.3,0.3,0.4
			c-0.7,0.6-1.5,1.2-1.9,1.6c4.7,2.4,9.6,4.9,14.8,7.6c-1.1,1-1.7,1.6-2.6,2.4c1.5,0.8,2.7,1.5,4.1,2.3c0.3-1.2,0.5-2.3,0.9-3.9
			c1.3,2.9,3.4,3.6,6.2,3.8c1,0.1,1.8,2.9,2.7,4.5c0.4-0.1,1-0.3,1.9-0.6c-0.3,1.1-0.5,2.1-0.7,3.2c3.7-2,3.9-1.9,7.6,4
			c0.4-0.5,0.8-0.9,1.6-1.8c0.8,2.1,1.5,3.9,2.2,5.7c0.1-0.3,0.1-0.5,0.2-0.8c1.1,0.4,3.2,1,3.2,1.1c-0.8,3.5,1.8,2.6,3.6,2.7
			c0.9,1.4,0.2,4.6,4.6,2.2c-1,2.5-1.5,3.7-2.1,5.3c0.4,0.3,1.4,0.9,2,1.2c0.7,1.4,1.2,2.5,1.7,3.6c0.4-0.4,0.7-0.9,1.2-1.5
			c1.6,1.9,3.6,3.9,5.1,6.2c1.5,2.1,2.5,4.6,4.1,7.5c1.6,0.3,3.9,1.3,4.7,4.4c0.2,1,1.2,1.8,1.8,2.7c0.3,0.5,0.9,1.1,0.8,1.5
			c-0.4,2.4-0.7,4.5,2.9,3.3c0.2-0.1,0.8,0.4,0.9,0.7c0.8,3.3,1.5,6.6,2.2,9.9c0,0.1-0.3,0.3-0.6,0.7c0.8,0.2,1.6,0.4,2.3,0.6
			c0,3.3,0,6.3,0,9.6c-0.2,0,0.2,0.1,0.5-0.1c0.6-0.3,1.1-0.7,1.6-1c0.2,0.6,0.6,1.1,0.7,1.7c0.4,1.9,0.7,3.9,1.1,6
			c-0.4-0.2-1-0.4-1.6-0.6c0.3,2.3,0.6,4.7,0.9,7c0.4,3.2,1.8,6.8,0.8,9.5c-1,2.8-1.6,5.5-1.9,8.4c-0.4,5-3.8,8.4-5.8,12.4
			c-0.2,0.4-0.8,0.9-0.7,1.3c0.6,5.1-2.7,7.8-6.2,10.5c-0.9,0.7-1.8,2.4-1.5,3.1c0.4,0.9,2.1,1.2,3.4,1.9c-0.7,4.2-4.4,6.4-7.5,9.1
			c-1.6,1.5-3.2,3-4.9,4.5c-1.3,1.2-2.6,3.4-4,3.5c-4.6,0.4-6.2,4.8-9.8,6.3c-0.7,0.3-1.4,0.3-2.3-0.2c-2.4,2.5-4.7,4.9-7.3,7.6
			c-0.2-0.3-0.8-0.9-2-2.2c0.4,1.7,0.7,2.5,0.9,3.4c-2.6-0.2-4.1,0.6-5.5,2.7c-1.1,1.7-1.6,4.8-5.2,3.5c-0.8-0.3-2.7,1.2-3.4,2.3
			c-1.8,3-3.6,2.5-5.6,0.4c-0.2,1-0.3,1.8-0.4,2.6c-1-0.2-1.9-0.4-3.1-0.6c0,1.1,0,1.9,0,2.7c0,1.8-0.1,3.3-2.6,3.3
			c-1.4,0-2.3,1.5-3.4,2.4c-2.1,1.8-4.8,2.9-7.4,3.9c-4.8,1.8-9.7,3.3-14.5,5c-0.2,0.1-0.3,0.8-0.4,0.8c-2.4,0.2-1.7,4.8-5.8,3.5
			c-1.7-0.6-4.5,2.2-7,3.5c0.1,2.9-2,4.2-5.2,3.7c-2.5,1.8-4.5,3.3-6.5,4.6c-1.8,1.2-3.8,2.1-5.6,3.3c-0.5,0.3-0.5,1.4-0.8,2.1
			c-0.6,1.2-1.1,2.4-1.9,3.4c-0.2,0.3-1.3,0-1.4-0.1c-1.8,1.9-3.4,3.7-5,5.5c-0.7,0.8-1.5,1.7-1.7,2.7c-0.4,2-1.5,2.6-3.2,3.5
			c-1.8,1.1-2.6,4.2-3.6,6.5c-1,2.4-1.7,5-2.5,7.5c1.9,0.5,2.5,2,1.3,4.3c-2.5,5.1-3.9,10.3-2.7,16c0.1,0.3-0.2,0.6-0.3,0.9
			c-1.2,2.6-1.3,5.4-0.1,8c1.2,2.8-0.6,3.9-2.4,5.1c-0.2,0.2-0.7-0.2-1.1-0.1c-1,0-2.4-0.3-2.9,0.3c-1.8,1.8-3.2,3.9-5,6.2
			c-2-2.1-5.2-2.8-5.1-6.5c0-1.6-1.2-2-2.9-2.1c-3.8-0.1-7.6,1-11.6-0.6c-3.4-1.4-7.9-3-11.1-1.3c-2.6,1.4-5-2.1-6.8,0.9
			c0,0.1-0.6-0.2-0.9-0.3c-3.5-1.5-7.1-1.8-10.9-1.1c-0.9,0.2-2.1-0.9-3.4-1.5c-1.7,1.2-3.3,2.6-6.2,1c-1.4-0.8-4.5-1.9-6.5,0.5
			c-0.2,0.3-1.2-0.1-1.8-0.2c-5-0.6-10.1-1.2-15.2-1.7c-0.7-0.1-1.4,0.4-2.3,0.8c-0.3-0.7-0.6-1.5-1.1-2.7c-0.7,0.9-1.2,1.5-1.1,1.5
			c-1.8,0.2-3,0.4-4.2,0.5c-0.4,0-0.9,0.2-1.1,0.1c-2.9-2.3-5.6-1.8-8.6-0.2c-0.8,0.4-2.4,0-3.4-0.4c-2.6-1.3-5.1-1.3-7.8-0.5
			c-2.3,0.7-4-0.7-3.9-3.4c-2.1-0.1-5.1,6.9-6.4-1.1c-0.6,1.1-0.9,1.5-1.2,2.1c-3.2-1.2-6.7,3.3-10.6-0.7c-2-2-7-0.4-9-4.8
			c1.3,0.1,2.5,0.3,3.4,0.3c0-4.1-0.1-8.4,0-12.7c0-1.8,0.5-3.6,0.6-5.4c0-0.5-0.6-1.1-0.7-1.2c0.3-2.3,0.6-4.3,0.9-6.3
			c0.5-4,0.8-8.1,1.3-12.1c0.2-1.3,0.9-2.5,1.5-3.7c1.1-2.3,1.4-4.3-0.9-5.1c0-2.9,0-5.4,0-7.7c0.4,0,2,0.2,2.2-0.3
			c0.7-1.5,1-3.2,1.5-5.3c1-1.7,2.9-3.8,3.3-6.2c0.6-3.1,2.1-5.3,3.8-7.6c1.1-1.5,1.9-3.1,3-5c2.8-0.3,4.2-2.8,5.9-5.3
			c1.4-2,3.5-3.6,5.1-5.5c0.6-0.7,1-1.6,1.3-2.4c1-2.5,2.6-4.4,5.2-5.2c0.7-0.2,1.5,0.1,2.5,0.1c-1-4.3,2.4-5.9,5-8.2
			c1.6-1.5,2.8-3.4,4.1-5.2c0.5-0.7,0.8-1.6,1.3-2.4c0.3,1,0.4,1.8,0.6,2.7c0.6-0.5,1-1.1,1.7-1.4c1.6-0.9,3.2-1.6,4.8-2.4
			c0.2,0.3,0.4,0.5,0.6,0.8c0.1-0.9,0.2-1.9,0.2-2.8c2.7-0.3,5.6-3,5.4-4.3c3.1-1.9,5.8-3.6,8.6-5.2c4-2.1,8.1-4.1,12.2-6.2
			c-0.2-0.4-0.5-0.8-0.4-0.7c2.4-1.4,4.9-2.8,7.4-4.1c0.6-0.3,1.3-0.3,2-0.4c0,0.6,0.1,1.3,0.2,2.9c1.7-2.2,2.8-3.8,4.5-6
			c0,1.6,0,2.4,0,3.3c0.3,0.3,0.7,0.7,1,1c0.9-1.3,1.8-2.7,3.1-4.6c0.4,0.7,0.7,1.3,1.1,2c1.4-2.4,2.2-5.6,5.4-4.3
			c0.7-1.3,1.1-2.6,2-3.3c2.9-2.7,5.9-5.3,8.9-7.9c0.8-0.7,1.7-1.4,2.5-2.2c2.2-2.2,4.3-4.6,6.6-6.7c1.3-1.2,3-1.8,4.2-3.1
			c1.5-1.6,2.6-3.6,3.9-5.4c0.3,0.3,0.7,0.6,1,0.8c-0.5-1.3-0.9-2.6-1.2-3.4c-1.3-1.1-2.5-1.9-3.3-2.9c-3.4-4.5-6.9-9.1-10-13.8
			c-2.1-3.2-2.9-7-2.4-10.9c0.1-0.4,0.8-0.7,1.3-1.2c-4.7-3.5-10-2.8-15.3-3.3c0.4-0.6,0.8-1.2,1.4-1.9c-2,0.3-3.8,0.8-5.6,0.7
			c-1,0-1.9-1.1-2.9-1.4c-1.9-0.6-3.8-1.1-5.7-1.4c-1.4-0.2-2.8,0.3-4.2,0.3c-0.3,0-0.6-0.8-0.9-1.3c-2.1,2.1-9.7,2.1-11.5,0
			c-5.4,2.8-5.8,2.8-8.6,0.6c-2,1.3-4.1,2.7-6.2,4c-0.7-1-1.1-1.6-1.6-2.5c-1.7,0.8-3.5,1.5-5,2.5c-1,0.6-1.5,1.8-2.5,2.3
			c-0.7,0.4-1.8,0.2-2.7,0.2c-0.1-0.3-0.2-0.6-0.2-0.9c-0.4,1.2-0.8,2.3-1.3,3.8c-2.6-1.3-4,0.7-6,1.7c-1.9,0.9-3.5,2.1-5,3.3
			c-3.4,2.9-7,5.8-9.7,9.3c-1.8,2.3-2.3,5.7-3.5,8.5c-1.3,3-2.7,6-4.1,9c-0.3,0.7-0.7,1.4-0.9,1.9c1.6,0.5,3.8,1,3.7,1.2
			c-0.3,2-0.6,4.2-1.6,5.9c-0.7,1.2-2.4,1.9-3.6,2.8c-0.2-0.2-0.4-0.5-0.6-0.7c-0.2,1.1-0.2,3.1-0.7,3.2c-3.2,1-5.7,4-9.5,3.5
			c-3.5-0.4-7.2-0.2-10.7-0.2c-0.3,0-0.7,0-1,0c-5.4-0.9-7.9-0.8-13.4,0.5c-1.1,0.2-2.5,0.2-3.4-0.2c-4.1-2.1-4.1-2.1-7.3,0.2
			c-0.6-0.8-1.2-1.7-1.9-2.6c-1.2,0.5-2.4,0.9-3.6,1.4c-0.5-0.6-1-1.2-1.5-1.9C1500.1,1330.6,1500.7,1332.7,1503.3,1334.2
			C1503.4,1334.3,1503.3,1334.2,1503.3,1334.2z M1447.6,1253.9c-2.6,2.6-5.6,4.6-7.2,7.4c-1.5,2.5-3.1,3.8-5.7,4.9
			c-1.6,0.7-3.5,2.6-3.7,4.2c-0.5,3-0.2,6-2.9,8.1c-0.4,0.3-0.6,1.4-0.4,1.7c2.8,3.2-0.6,5.1-1.5,7.5c-0.5,1.5-2.3,3-0.1,4.8
			c-0.8,0.3-1.4,0.5-2.1,0.8c2,5.9-0.2,10.8-3.3,14.9c1.6,0.7,2.9,1.7,4.4,2c4.3,1,8.6,0.7,12.9,0.3c1.9-0.2,3.9,0.5,5.9,0.7
			c2.7,0.3,5.3,0.6,7.9,0.9c0.6,0.3,1.4,1,2.1,1c1.8,0.1,3.7-0.3,5.5-0.1c1.6,0.2,3,1,4.6,1.3c4.1,0.6,8.2,0.9,12.3,1.4
			c4.3,0.5,8.6,1.5,12.7-0.7c0.5-0.2,1.2,0,1.8,0c5.7,0.6,11.5,1.8,15.7-1.6c2,0.2,3,0.3,4,0.3c2.5,0.1,4.9,0.2,7.4,0.1
			c2.9-0.2,5.8-1,8.8-1.1c4.2-0.1,8.4,0.8,12.3-1.6c0.5-0.3,1.5,0.5,2.3,0.5c1.7,0.1,3.4,0.2,5,0c0.2,0,0.2-1.8,0.3-2.7
			c0.3,0.2,0.5,0.3,0.8,0.5c0.7-1.1,1.5-2.2,2.2-3.2c-1.1-0.7-1.7-1.1-2.7-1.7c1.5-0.6,2.6-1,3.7-1.4c0-0.2-0.1-0.3-0.1-0.5
			c-1,0-1.9,0-3.2,0c0.6-1.1,1.1-1.9,1.5-2.7c0.1,0.2,0.3,0.4,0.4,0.7c1.4-0.7,2.8-1.4,4.1-2.1c-1.8-3.3,1.8-4.8,2.8-6.8
			c1.6-3.1,4.9-5.3,7.5-7.9c0.2-0.2,0.3-0.5,0.6-0.9c-1-0.3-1.8-0.6-3.1-1.1c5.5-2,11.4-2.7,12.3-9.8c2,0.1,4.1,0.2,7.4,0.3
			c-4-1.9-1.8-3.3-0.8-4c1.3-0.9,3.1-1.1,5.1-1.8c0-0.2,0.3-1.3,0.6-2.7c1.1,0.8,1.8,1.2,2.4,1.8c0.3,0.3,0.2,0.8,0.2,1.3
			c0.4-0.4,1.2-0.7,1.2-1.1c0.2-2.1,1.2-2.4,3.1-2c0.7,0.2,1.5-0.6,2.3-0.9c-0.1-0.2-0.1-0.4-0.2-0.6c-0.6,0.1-1.1,0.1-1.7,0.2
			c0.4-3,0.5-3.1,3.2-3.1c1.3,0,2.5-0.6,3.8-1c1.2-0.4,2.4-0.8,3.6-1.2c3.5-1.2,7.3-0.6,10.8-1.2c3.5-0.6,5.7,0.2,8,2.8
			c0.2-1.4,0.3-2.3,0.5-3.9c1.3,1.2,2.2,2,3.1,2.9c0.1-0.3,0.1-0.6,0.2-0.9c2.4,0.6,4.9,1.2,7.3,1.9c0.4,0.3,1.3-0.4,1.7-0.2
			c2.4,1,4.7,2.4,7.1,3.5c0.9,0.4,2.1,0.7,3,0.6c2.8-0.5,4.4,0.3,4.6,3.3c0.1,0.6,0.5,1.1,0.8,1.8c2.2-1.3,3.8-1.1,4.9,1.1
			c0.2,0.4,0.9,0.6,1.3,0.9c2.4,1.8,4.7,3.6,7.2,5.5c3-0.8,4.3,1.7,5.3,4.7c0.5-0.7,0.8-1.1,0.8-1.1c1.2,1.9,2.5,3.9,3.8,5.9
			c1.4,2,2.8,3.9,4,5.6c2.9,1.1,5.7,2.2,8.9,3.4c0.3,1.6,0.1,3.8,1,5.4c1.7,3.2,2.4,6.4,0.8,9.5c-1.4,2.7-2,5.3-1,7.7
			c-1,0.6-2,0.9-2.2,1.5c-1,2.4-2.4,4.9-2.6,7.5c-0.3,5.6-4.7,7.3-8.4,9.4c-1.7,0.9-3.8,0.8-4.2,3.3c0,0.3-1,0.6-1.6,0.6
			c-1.2,0-2.3-0.1-3.5-0.2c0.3,0.3,0.6,0.5,0.9,0.8c-0.5,0.7-0.8,1.8-1.5,2.2c-3.1,1.5-6.3,2.9-9.4,4.3c-1.5,0.7-3.5,0.9-4.6,2
			c-2.7,2.6-5.2,5.3-9.4,5.2c-0.5,0-1,0.7-1.5,1.1c-0.6,0.5-1.3,0.9-2,1.4c-0.5,0.4-1.3,0.7-1.6,1.3c-1.3,3.1-4,3.3-6.8,3.6
			c0.1,0.6,0.1,1.3,0.2,1.9c-1.6,0.3-3.5,0.1-4.2,1c-2.3,3-4.6,5.8-8.4,6.8c-0.1,0-0.3,0.3-0.3,0.5c-0.7,3.1-3.5,3.6-5.8,4.8
			c-0.1,0.1-0.5-0.3-0.9-0.6c0.4-0.6,0.8-1.2,1.3-2c-3.3-1-2.8,1.5-3.3,3.3c-2.9-1.9-3.9-0.2-4.2,1.1c-1.8,0.7-3.1,0.9-4,1.6
			c-1.5,1.3-2.6,3-4.1,4.4c-1.6,1.5-5.1,0.8-5.1,4.3c0,0.1-0.8,0.1-1.2,0.2c-1,0.3-2.2,0.5-2.9,1.1c-1.2,1.2-1.8,3.2-3.2,3.9
			c-3.5,1.8-3.9,4.8-3.8,8.2c-1.2-0.1-2.4-0.3-4-0.5c1,2.3,1.9,4.4,2.9,6.6c-2,1.8-3.8,3.5-5.8,5.2c0.6,0.7,1.2,1.3,2,2.1
			c-1.4,0.3-2.5,0.6-3.4,0.8c-0.3,1.1-0.5,2-0.8,2.9c-0.2,0.6-0.7,1.1-1.1,1.6c-0.3-0.5-0.6-1.1-1-1.6c-0.9-1.3-1.8-2.5-2.7-3.7
			c-0.7,2.2-0.9,3.8-1.7,5c-2.4,3.4-6.5,6-4.7,11.2c0.1,0.4-0.5,1.2-0.9,1.6c-3.3,3-1.8,7.6-4,10.9c-1.1,1.6,0.1,3.4-0.1,4.9
			c-0.5,3.7-1.7,7.4-2.6,11c-0.7,2.8-1.1,5.6-2.1,8.3c-1.5,4.2-0.5,7.7,3.3,9.9c0.8-1.2,1.5-2.4,2.4-3.9c0.4,1.6,0.7,2.7,1.2,4.8
			c0.9-1.6,1.5-2.5,2-3.6c0.8,1,1.2,1.6,1.7,2.1c0.9-0.8,1.6-1.4,2.2-1.9c0.7,0.8,1.3,1.5,2.1,2.5c1.7-3.5,3.3-4,4.5-0.1
			c0.5-0.9,0.9-1.7,1.5-2.7c0.6,1.2,1.1,2,1.2,2.2c5.4,0,10.4,0,15.7,0c0,0,0.2-0.7,0.4-1.2c3.2,0.2,5.9,1.9,9.4,0.9
			c3.8-1.1,7.5,3,11.6,1.2c0.2-0.1,0.7,0.8,1.1,1.1c0.4,0.2,0.9,0.5,1.4,0.4c3.1-0.2,6.3-0.5,7.7,3.4c2-3.9,2.6-4.3,5.9-1.5
			c1.7,1.4,3,1.2,4.8,0.8c1.1-0.3,2.4,0,3.6,0.2c1,0.2,2,0.8,3,0.9c3.3,0.2,6.7,0.5,10,0.4c2.2-0.1,5,1.8,6.5-1.6
			c0,0,1.5,0.5,2.3,0.9c0.8,0.3,2.1,1.2,2.1,1.1c1.7-2.8,2.2,0.2,3.1,0.6c0.6-0.8,1.3-1.7,2-2.6c2.5,4,3.8,4.2,5.1,2.3
			c3.6-0.4,6.5-0.8,8.6-1c0.5-1.9,0.8-3.2,1.2-4.6c0.4-1.6,1-3.3,1.2-5c0.1-0.6-0.6-1.3-1-1.9c-0.1,0.1-0.3,0.2-0.4,0.3
			c0.1,0.6,0.1,1.1,0.2,2.1c-1.9-2.3-1.5-4.7,1-5.2c3.2-0.6,2-2.3,1.7-4c-0.1-0.9,0-1.8,0.2-2.7c0.3-1,1-1.9,1.4-2.9
			c0.3-0.8,0.4-1.7,0.6-2.5c0.2,0,0.4,0.1,0.6,0.1c0.2,0.5,0.4,1,0.7,1.9c3.1-5.4,6.1-10.5,8.8-15.3c-0.5-1.8-1-3.6-1.5-5.7
			c1.8-0.3,3-0.5,4.4-0.7c-2.2-4.8,2.8-5.1,4.1-7.2c1.2,0.4,2.3,1.2,3.1,1c0.6-0.2,1.4-2,1.1-2.5c-1.4-2.1,0.2-2.4,1.4-3.1
			c3.1-1.6,6.3-3,9.2-4.9c2.2-1.3,4-4.5,6-4.5c3.4,0,3.4-4.6,7.2-3.8c1.3,0.3,3.2-2.8,5-4.1c2-1.4,4-3.5,6.7-1.8
			c3.4-2.9,6.6-5.8,10.1-8.5c2.7-2.1,5.6-4.1,8.5-5.9c2.3-1.5,4.7-3.6,7.2-3.8c2.7-0.2,3.9-1.1,5-3.1c0.4-0.7,1.2-1.1,1.8-1.7
			c1,1.7,1.4,0.4,2.2-0.3c1.6-1.2,3.3-2.2,5.2-3.4c0,0,0.4,0.6,0.8,1.3c3-3.2,3.4-2.6,7.6-5.3c2.1-1.3,4-3.8,5.6-5.9
			c2-2.6,5.2-3.5,6.9-6.7c1.4-2.7,5-4.3,7.6-6.4c-1.5-4.4,4.1-3.9,4.9-7.2c0.6-2.6,3.4-4.6,5.5-7.1c2,0.4,1.8,0.3,2-2.2
			c0.1-1.5,1.3-2.9,2.4-5c-1.8-3.2,2.2-5.7,3-8.4c-0.7-1.1-1.8-2-1.6-2.5c1.2-4.3,2.1-8.8,4.2-12.6c1.7-3,1.6-5.1-0.3-7.6
			c-0.4-0.5-0.9-1.7-0.8-1.7c2.1-1.4,0.3-2.6,0-3.6c0.9-0.3,1.8-0.7,2.7-1c-0.1-0.2-0.1-0.3-0.2-0.5c-0.7,0-1.3,0-2.1,0
			c0.4-0.8,0.7-1.3,1-1.9c-0.4,0.1-0.7,0.2-1.1,0.3c-1-1.9-2-3.7-3.2-5.8c-0.1,0-0.8,0.1-1.9,0.2c0.7-1,1.2-1.7,1.5-2.3
			c2,0.7,3.7,1.3,5.5,2c0.2-0.4,0.3-0.7,0.5-1.1c-1.8-1-3.7-1.9-5.4-3.1c-3.9-2.5-5-6.2-2.9-9.2c-0.9-0.1-1.8-0.3-2.9-0.5
			c1.4-1.9,0.8-2.9-1.8-3.1c1.1-0.9,1.7-1.3,2.2-1.8c-2.7-3.2-5.3-6.2-5.6-10.5c-0.1-1.1-0.8-2.7-2.7-1.9c-0.1,0-0.3-0.2-0.5-0.3
			c0.3-0.9,0.6-1.7,0.9-2.6c-3.1-2.5-6.2-4.6-8.9-7.2c-2.8-2.6-5.1-5.7-8.4-6.3c-0.4-1-0.4-1.8-0.9-2.1c-2.6-2.1-5.3-4-7.9-6.2
			c-1.8-1.6-3.1-4.1-5.1-5.2c-4.5-2.5-7.1-7.4-12.4-8.8c-0.5-0.1-0.7-1.2-1.1-1.8c-0.5-0.6-1-1.4-1.7-1.7c-4.9-2.7-9.9-5.2-14.7-8
			c-3-1.7-5.9-3.6-9.2-1.5c-1.3-2.1-1.6-5.4-5.2-3.2c-0.2,0.1-0.6,0-0.9-0.1c-3.1-1-6.3-2-9.4-2.9c-1-0.3-2-0.2-3-0.3
			c-3.2-0.5-6.4-1.4-8.6-3.8c-1.2,0.5-2.3,0.7-3.3,0.5c-1.1-0.2-2.1-1.1-3.2-1.3c-1.2-0.2-2.5-0.1-3.7-0.1c0-0.3-0.1-0.6-0.1-1
			c1.1-0.5,2.2-1,4-1.8c-0.8-1.3-1.6-2.4-2.4-3.6c0,0-0.4,0.2-0.7,0.3c0.3,0.6,0.6,1.1,0.9,1.7c-1.6-1-4.2,4.3-4.7-1.1
			c-2.9,1.6-3.8,0.4-3.8-2.3c0-0.9-0.7-1.8-1.1-2.7c-0.3,0.1-0.5,0.2-0.8,0.2c-0.1,1.2-0.2,2.5-0.3,3.7c-0.3,0.1-0.5,0.1-0.8,0.2
			c-0.2-0.6-0.4-1.2-0.7-1.9c-0.3-0.8-0.4-2.1-0.8-2.2c-2.2-0.5-4.4-0.6-6.6-1c-0.8-0.1-1.5-0.9-2.3-0.9c-1.9,0.1-3.7,0.5-5.8,0.8
			c0.3-1.2,0.4-1.7,0.5-2.2c-0.5,0-1,0-1.4-0.1c-1.5-0.1-3.2,0.3-4.3-0.4c-1.8-1-3.1-2.6-4.7-4.1c-1.9,3.6-2.9,3.7-5.6,0.9
			c-1.5-1.5-5.6-1.8-6.8-1c0.8,0.9,1.5,1.8,2.3,2.5c0.7,0.6,1.6,1.3,2.5,1.5c0.9,0.2,2-0.1,3-0.2c0,0.3,0,0.6,0.1,0.9
			c-2.2,0.5-4.4,1-6.1,1.3c-0.5-1.6-0.9-3.1-1.3-4.6c-0.3,0.1-0.5,0.1-0.8,0.2c-0.2,1-0.3,2-0.5,3.4c-1.9-1.7-0.5-6.4-4.9-4.6
			c-2.1,0.9-5.5-1.1-6,2.8c-1.4-0.3-2.8-1-3.5-0.6c-2.3,1.4-3.6,0.2-5-0.3c-8,0.3-16,0.6-24.2,0.9c-0.3,1.2-1,2.5-3.3,2.4
			c-1.6-0.1-3.2,0.8-4.8,1.2c-0.1-0.3-0.1-0.6-0.2-0.8c1.2-0.2,2.5-0.5,3.7-0.7c-0.5-1.6-1-2.8-1.6-4.6c-1.7,5.3-6.2,2.6-9.7,3.5
			c0.8,1.5,1.4,2.5,1.9,3.5c-0.2,0.2-0.4,0.3-0.5,0.5c-1-0.6-2-1.2-2.9-1.8c-0.4,0.9-0.7,1.7-1.1,2.6c-0.2-0.3-0.4-0.6-0.6-0.9
			c-1.9,1-3.7,2-4.7,2.5c-2.7,0.4-4.5,0.8-6.4,1.1c-2.4,0.3-4.7,0.6-7.1,0.7c-0.3,0-0.7-0.5-1-0.8c-2.1-3-4.7-2.9-7.1,0.5
			c-1-1.1-1.8-2.3-3-3c-1.3-0.8-2.9-1.4-4.5-1.6c-0.4-0.1-0.9,1.6-1.6,2.2c-0.5,0.5-1.6,1.2-1.9,1c-2.7-1.8-4.4-0.2-6.3,1.5
			c-0.5,0.4-1.7,1-1.9,0.8c-2-1.9-3.3,0.6-5,0.8c-1.1,0.1-2.2,0.6-3.3,0.9c-2.5,0.6-6,0.2-7.3,1.8c-2.7,3.1-7.3-0.2-9.3,3.5
			c-3.8-1.5-7.2,2-11.1,0.9c0.3,0.4,0.6,0.7,1.4,1.7c-1.3-0.4-2-0.7-2.7-0.9c-0.7-0.2-1.6-0.5-2.2-0.3c-0.9,0.3-1.6,1.2-2.5,1.6
			c-1.8,0.8-5.1,1.2-5.3,2.3c-0.7,2.9-2.7,2.5-4.5,2.9c-1.2,0.2-2.5,0.2-3.5,0.7c-3.5,2-6.8,4.3-10.2,6.4c-1.4,0.8-3,1.1-4.4,1.8
			c-0.7,0.4-1.3,1.1-2.3,2.1c-0.6,0.9-1.6,2.4-2.5,3.8c-0.9-0.6-1.5-0.9-2.3-1.4c-0.5,3-1.3,5.4-3.9,3.9c-2.5,2.3-4.8,4.3-6.9,6.4
			c-2.2,2.1-4.8,4-6.3,6.5c-1.5,2.5-5.3,2.8-5.5,6.5c0,0.7-1.8,1.4-2.7,2c-0.1,0.1-0.2,0.1-0.1,0.1c0.3,0.8,0.6,1.5,1.1,2.7
			c1.2-2.9,6.9-0.7,5.5-5.4c2.4-1.6,4.7-3,7.2-4.6c0,1.7,0,3,0,4.4c-1.1-0.4-1.9-0.6-2.9-1c-0.5,1.3-1,2.4-1.5,3.5
			c-0.7,1.5-1.1,3.6-2.3,4.4C1447.7,1249.8,1447.2,1251.8,1447.6,1253.9z M1427.9,1319.1c-1-0.6-2.1-1.8-3.1-1.8
			c-2.5,0.2-5.1,0.9-7.6,1.3C1420.3,1320.5,1423.9,1319.3,1427.9,1319.1z M1584.7,1180.8c-0.1,0.5-0.1,1.1-0.2,1.6
			c1,0.2,2.1,0.4,3.1,0.4c1.4,0,2.8-0.1,4.3-0.2c-0.2-0.8-0.5-2-0.8-3.1C1588.9,1180,1586.8,1180.4,1584.7,1180.8z M1572.4,1407.9
			c-0.6-0.1-1.4-0.4-2.1-0.2c-1,0.3-1.8,0.9-3.1,1.6c0.5,0.6,1.3,1.6,2.2,2.8C1570.6,1410.5,1571.4,1409.4,1572.4,1407.9z" style="fill:#FFFFFF;"/>
		<path d="M1603.7,1649.6c-0.9-0.7-1.8-1.4-2.9-2.2c-1.1,0.1-2.5,3.5-4.2,0c0-0.1-2.5-1.1-3.3,1
			c-0.2,0.4-2.2,0.1-3.4,0.2c-0.9,0-1.8,0.1-2.7,0.2c-0.8,0.1-1.9,0.6-2.2,0.3c-1.6-1.5-5.2,1.8-5.6-2.9c-1.1,4.6-4.2,1.2-6.3,1.9
			c-2.3,0.8-5.2,0.2-7.8,0c-0.9-0.1-1.7-0.7-2.7-1.2c-3.2,0-6.6-0.1-10.1,0.1c-1.7,0.1-3.3,1.1-5,1.2c-2.3,0.1-4.6-0.2-7.2-0.4
			c-0.7,0.8-2,2.2-3.5,3.9c1.1,1.9-0.2,3.4-2.9,4.8c-1-4.5-6.5-6.3-5.2-12.4c0.9-4-0.8-8.6,0.7-13.1c-0.4-0.2-1.2-0.5-2.5-1
			c3.1-2.3,2.7-5,1.8-7.9c-0.1-0.3-0.2-0.7-0.1-1c1.2-3.8-1.7-7.3-1.2-10.7c0.4-3-1.1-5.8,0.2-9.1c1-2.6-1.2-6.4-2-10.1
			c1.7-1,2.4-2.9,1.3-5.6c-0.9-2.1-1-4.3,1.1-4.8c0.1-2,0.3-3.6,0.3-5.2c0.1-1.7,0-3.4,0-5.2c-0.3-0.1-0.6-0.1-1-0.2
			c-0.4,0.4-0.9,0.7-1.3,1.1c-0.5,0.4-0.9,0.7-1.9,1.4c1.6-4.2,3-7.7,4.3-11.3c1-2.7-1.2-3.1-2.9-3.8c2.6-2.6,2.8-5.4,1.2-8.9
			c-0.4-0.9-0.5-2.7,0-3.1c1.9-1.4,0.9-3.1,0.9-4.7c0-0.8,0.2-1.6,0.3-2.4c0-0.5,0-0.9,0-1.4c-0.7,0.1-1.4,0.1-2.2,0.2
			c-0.5-2.4-1.1-4.9-1.4-7.4c-0.3-2.5,0.1-4.5,3.5-3.6c-0.3-4.8,1-8.4,6-10c0.9,1.2,1.9,2.6,3.1,3.8c0.4,0.4,1.3,0.6,1.9,0.6
			c1.7-0.2,3.4-0.5,5.1-0.8c1.7-0.3,3.3-0.9,5.1,0.4c1.2,0.9,3.1,1.5,4.6-0.4c0.3-0.3,1.8,0.5,2.8,0.7c1,0.3,2.6,0.9,2.8,0.7
			c1.4-2.1,3.3-1.9,5.3-1.6c0.3,0,0.9-0.1,0.9-0.1c1.5,3.8,4.7,0.8,6.9,2c0.2-0.9,0.3-1.6,0.4-2.1c2.4,0.7,4.6,1.3,7.7,2.1
			c0.8-0.3,2.3-1.4,4-1.6c1.8-0.2,3.7,0.5,5.5,0.8c1.8,0.3,4.2,1.4,5.2,0.6c2.8-2.2,3.8,0.2,5.6,1.6c0.1-0.9,0.2-1.6,0.4-2.8
			c2.4,3.8,5.7,2.1,8.6,2.1c1.8,0,4.5,1.6,5.4-1.8c0.8,0.2,1.6,0.3,2.2,0.7c0.9,0.7,1.6,1.6,2.3,2.5c1.1-1.1,2.3-2.2,3.4-3.4
			c0.2-0.3,0.2-0.8,0.3-1.3c2.7,3,10.2,4.8,12.4,3.1c1.6,0.9,3.2,3.2,4.8-0.1c1.8,0.6,3.4,2.5,5.7,1.1c0.4-0.2,1.2,0.2,1.7,0.6
			c1.9,1.3,3.6,2,4.4-2.1c1,1.9,1.4,2.8,1.6,3.1c1.8,0.2,3.3,0.3,4.8,0.5c-0.1-0.2-0.2-0.5-0.3-0.7c1-0.3,2-0.7,3.1-0.8
			c1.4-0.1,3,1.1,3.8-1.1c0-0.1,0.8,0.1,1.3,0.1c4.4,0.3,8.8,0.7,13.2,0.9c0.8,0,1.6-0.8,1.7-0.8c3.2,1.6,5.9,3,9.1,4.5
			c-0.8,1.4-2.1,3.4-3.2,5.2c-0.1,3.2,4.8,5.9,1.4,8.4c0.2,2.7,0.3,4.6,0.5,6.5c0.2,2.7,0.2,5.4,0.7,8.1c0.8,4.3,2,8.5,2.8,12.9
			c0.3,1.8-0.2,3.7,0,5.6c0.1,1.7,0.6,3.4,0.9,5.1c0.1,0.7,0.3,1.4,0.3,2.2c0.1,1.2,0.4,2.5,0.3,3.7c-0.1,1.3-0.5,2.5-0.5,3.6
			c0.2,2.6,0.4,5.2,0.6,7.8c0,0.2-0.5,0.7-0.5,0.7c2.4,2.1,0.1,4.5,0.5,6.7c0.3,1.9,0.2,3.9,0.6,5.8c0.5,3.2,1.2,6.3,1.9,9.5
			c0.1,0.3,0.9,0.4,1.4,0.6c-4.1,3.9-2.9,8.9-2.8,13.6c0,3.5,0.4,6.9,0.7,10.4c0.3,3.1-2.5,3.3-4.1,4.3c-1.7,1.1-2.9-0.5-3.8-1.9
			c-0.3-0.4-0.8-0.7-1.4-1.2c-1,2.7-2.4,3.2-4.5,1.4c-0.3-0.3-1.3-0.2-1.8,0.1c-2,1.2-3.9,2.4-6.1,3.8c0.7,0.9,1.3,1.6,1.9,2.4
			c-2.8,2.7-4.3-1.1-6.5-1.2c-1.5-0.1-3-0.6-4.6-0.7c-1.1-0.1-2.7,0.7-3.3,0.2c-2.5-2.2-4.9,0.1-7.2,0.2c-2.9,0.1-3.3,0.8-6-0.7
			c-0.5-0.3-1.3,0.2-1.9,0.1c-2.4-0.1-4.7-0.4-7.1-0.4c-2.1,0-4.2,0.4-6.3,0.4c-1,0-1.9-0.9-2.9-0.9c-2.2,0-4.5,0.1-6.7,0.5
			c-0.9,0.1-1.7,1-3,1c0.3-0.6,0.6-1.3,1.3-2.7c-2.7,1-4.6,1.7-6.6,2.4c-0.1,0-0.2,0.2-0.2,0.2c-0.9-0.9-1.8-1.9-2.8-2.6
			c-0.6-0.4-1.5-0.4-2.8-0.7c-0.1,0.1-0.6,0.9-1.2,2.1c-0.8-0.7-1.8-1.4-2.8-2.2C1605.2,1648.2,1604.5,1648.8,1603.7,1649.6z
			 M1607.7,1536.4c-1,0.3-2,0.8-3,1c-2.4,0.3-4.9,0.1-7.2,0.8c-2.3,0.7-4.1,1.8-6.1-0.7c-0.4-0.6-2.1-0.3-3.1-0.2
			c-1.8,0.2-3.6,0.6-5.5,0.8c-2,0.3-4,0.5-6.6,0.8c-1.1-1.8-2.7-0.8-3.8,0.7c-1.3-0.6-2.4-1.6-3.2-1.4c-2,0.5-3.8,0.6-5.9,0.2
			c-2.3-0.4-4.8,0.1-7.2,0.4c-0.6,0.1-1,0.8-1.3,1c-0.7-0.8-1.6-2.3-1.8-2.2c-1.1,0.6-2.1,1.5-2.6,1.9c-3.2-0.6-6.2-1.2-9.6-1.9
			c0.4,1.8,0.9,2.7,0.7,3.6c-0.5,3.4-1.2,6.9,1,10c0.1,0.1-0.4,0.5-0.5,0.8c-0.4,3.3-1.1,6.7-1.2,10c0,1.7,1.7,3.6,1.4,5.1
			c-0.9,4.1,3.1,8.2-0.1,12.1c-0.1,0.1,0,0.4,0.2,0.6c2.1,2.1,0.9,4.4,0.4,6.7c-0.7,3.1,1,5.8,1.6,8.7c1,4.7,0.3,9.7-1.7,14.2
			c0.4,1.8,0.6,3.6,0.5,5.4c-0.2,1.9-0.9,3.7-1.1,5.5c-0.1,1.3,0.3,2.7,0.4,4.1c0.1,1.5-0.1,3.1,0.1,4.6c0.3,1.8,0.8,3.5,1.1,4.5
			c2.4-0.5,5.2-1.1,8.6-1.8c1-2,2.2-2,5.6,0.8c2.7-2.9,26.1-1.6,29.7,1.7c0.5-1.8,1.1-2.6,3.3-1.7c1.9,0.8,3.8,2.6,6.2,1.4
			c0.8-0.4,1.9-1.6,2.3-1.4c2.8,1.7,5.6,1.8,8.6,1.2c0.3-0.1,0.7,0,0.8,0.2c2,2.9,3.5,0.3,5.2,0.1c1.4,0.4,2.7,0.4,4.1,0.5
			c1.8,0.1,3.6,0.4,5.4,0.7c0.8,0.1,1.5,0.5,2.3,0.6c4,0.2,8.1,0.3,12.1,0.4c1.8,0,3.6-0.3,5.5-0.4c3.3-0.1,6.6-0.4,9.9-0.3
			c3.7,0.2,7.2,0.3,10.7,2.2c2.3,1.3,5.1,0.6,7.5-2.2c2.6-3,4.5-5.4,3.1-9.4c-0.2-0.7,0.1-1.6,0.1-2.4c0.5,0,0.9,0,1.4,0
			c0.5,3.3,0.9,6.7,1.4,10.1c0.7,0.6,1.6,1.3,2.3,1.9c-1.2,0.5-2.3,1-3.4,1.5c0.1,0.3,0.2,0.6,0.4,0.9c1.5,0.2,3,0.5,4.9,0.7
			c-0.4-2.3-0.7-4.4-1-6.5c0.4,0,1.4,0.3,1.6,0.1c0.6-0.9,0.9-2,1.1-3.1c0.1-0.3-0.6-0.9-1-0.9c-1.6-0.2-1.5-0.1-1.3-1.7
			c0.3-1.5,0.6-3,0.4-4.5c-0.2-1.4-1.9-3.3-1.4-4c1.7-2.7-1.1-2.6-1.9-3.8c-0.2-0.3-0.5-0.6-0.8-1.1c1-0.5,1.7-0.8,2.8-1.4
			c-4.2-1.5-2.5-4.6-2.7-7.2c-0.2-3.8,2.2-8-1.9-11.2c-0.4-0.3-0.2-1.7,0.1-2.4c1.3-2.4,2.4-4.7,0.3-7.3c-0.4-0.5,0-1.7,0-2.6
			c0-1,0.4-2,0.1-2.9c-1.5-3.8-0.1-7.3,0.6-11c-3.9-2.4-3.8-2.3-1.5-6.4c0.5-0.9-0.3-2.4-0.5-3.6c-0.2,0-0.4,0.1-0.6,0.1
			c0.3-0.6,0.6-1.2,1-2c-1.1,0.1-1.8,0.2-2.9,0.3c3-5.6,5.5-10.9,2.4-16.9c-1.6,1.3-1.3,4.9-3.9,3.9c-1.1-3.3-1.9-5.8-2.9-8.6
			c-2.9,2.4-4.9,2.5-8,1.8c-2.7-0.6-6,0.9-8.4-1.8c0,0-0.2,0-0.3,0.1c-2.5,1.8-5.2,1.8-7.9,0.6c-2.2,2-4.8,2.6-7.2,1.2
			c-2.5-1.4-2.4,0.2-2.7,1.7c-0.6-0.3-1.4-0.5-1.7-1c-1.8-3-4.5-1.7-6.6-1c-2,0.7-3.5,2.4-6,1.9
			C1615.5,1537,1611.7,1536.8,1607.7,1536.4z M1539.6,1640.8c1.3-0.7,2.6-1.3,3.8-1.9c0.1-0.3,0.1-0.7,0.2-1
			c-1.5-0.5-2.9-0.9-4.7-1.5C1539.2,1638.4,1539.4,1639.4,1539.6,1640.8z" style="fill:#FFFFFF;"/>
		<path d="M1459.6,1212.5c0,1-0.1,1.9-0.1,2.9c-1.5,0.1-2.9,0.4-4.4,0.3c-0.8-0.1-1.5-0.8-2.3-1.2
			c0.5-0.6,0.9-1.7,1.5-1.8C1456,1212.4,1457.8,1212.5,1459.6,1212.5z" style="fill:#FFFFFF;"/>
		<path d="M1432.9,1236.9c-0.3-2.1-0.7-4.3-1-6.6c1.2,0.4,2.6,0.8,4.9,1.5c-1.2,2.2-2.2,4-3.3,5.9
			C1433.3,1237.4,1433.1,1237.2,1432.9,1236.9z" style="fill:#FFFFFF;"/>
		<path d="M1503.3,1334.2C1503.3,1334.2,1503.4,1334.3,1503.3,1334.2c-0.4-0.7-0.9-1.5-1.4-2.3c2,1,3.5,2.8,5.5-0.8
			c0.1,0.4,0.3,0.8,0.4,1.2c-0.7,1.1-1.2,2.3-2.1,3.2C1505.6,1335.7,1504.2,1334.7,1503.3,1334.2z" style="fill:#FFFFFF;"/>
		<path d="M1668.1,1182.9c-0.1-0.6-0.3-1.4-0.4-2.2c1.5,1.3,2.9,2.7,0.5,4.1c-0.6,0.3-1.5,0.5-2.1,0.3
			c-0.3-0.1-0.4-1.1-0.6-1.7C1666.3,1183.2,1667.1,1183.1,1668.1,1182.9z" style="fill:#FFFFFF;"/>
		<path d="M1672.3,1615.3c3.7,1.4,4.1,5.5,1.5,8c-1-0.8-2-1.6-3.7-2.9c2.2-0.6,3.2-0.9,4.4-1.2
			C1673.9,1618.1,1673.3,1617,1672.3,1615.3z" style="fill:#FFFFFF;"/>
		<path d="M1671,1551.1c-1.8-1.9,0.5-4-0.6-6.6C1675.3,1546.7,1669.8,1549.1,1671,1551.1z" style="fill:#FFFFFF;"/>
	</g>
</g>
<g id="COLORS" style="display:none;">
	<rect x="-1774.6" y="3107.2" width="216.2" height="216.2" style="display:inline;fill:#0185D0;"/>
	<rect x="-1558.5" y="3107.2" width="216.2" height="216.2" style="display:inline;fill:#B3D8DD;"/>
	<rect x="-1774.6" y="3335.2" width="216.2" height="216.2" style="display:inline;fill:#0070CC;"/>
	<rect x="-1558.5" y="3335.2" width="216.2" height="216.2" style="display:inline;fill:#00A1C6;"/>
	<rect x="-1342.3" y="3107.2" width="216.2" height="216.2" style="display:inline;fill:#D3E9EF;"/>
	<rect x="-1774.6" y="1810.1" width="216.2" height="216.2" style="display:inline;fill:#F26981;"/>
	<rect x="-1774.6" y="2026.3" width="216.2" height="216.2" style="display:inline;fill:#9EA09E;"/>
	<rect x="-2000.1" y="2026.3" width="216.2" height="216.2" style="display:inline;fill:#333333;"/>
	<rect x="-2000.1" y="2242.5" width="216.2" height="216.2" style="display:inline;fill:#D48F00;"/>
	<rect x="-1774.6" y="2242.5" width="216.2" height="216.2" style="display:inline;fill:#F4B321;"/>
	<rect x="-1774.6" y="2458.7" width="216.2" height="216.2" style="display:inline;fill:#003501;"/>
	<rect x="-1774.6" y="2891" width="216.2" height="216.2" style="display:inline;fill:#9B1F0F;"/>
	<rect x="-1342.3" y="2026.3" width="216.2" height="216.2" style="display:inline;fill:#E5E5E5;"/>
	<rect x="-1342.3" y="2242.5" width="216.2" height="216.2" style="display:inline;fill:#FFDA54;"/>
	<rect x="-1342.3" y="2458.7" width="216.2" height="216.2" style="display:inline;fill:#009B4D;"/>
	<rect x="-1774.6" y="2674.8" width="216.2" height="216.2" style="display:inline;fill:#B45116;"/>
	<rect x="-1342.3" y="2891" width="216.2" height="216.2" style="display:inline;fill:#F1592B;"/>
	<rect x="-1558.5" y="1810.1" width="216.2" height="216.2" style="display:inline;fill:#FEAEB6;"/>
	<rect x="-1558.5" y="2026.3" width="216.2" height="216.2" style="display:inline;fill:#DDDDDD;"/>
	<rect x="-1558.5" y="2242.5" width="216.2" height="216.2" style="display:inline;fill:#FFC52D;"/>
	<rect x="-1558.5" y="2458.7" width="216.2" height="216.2" style="display:inline;fill:#004901;"/>
	<rect x="-1558.5" y="2674.8" width="216.2" height="216.2" style="display:inline;fill:#D46400;"/>
	<rect x="-1558.5" y="2891" width="216.2" height="216.2" style="display:inline;fill:#A55C54;"/>
	<rect x="-1782.2" y="1535.4" width="245" height="286.5" style="display:inline;fill:#FFA1AF;"/>
	<g style="display:inline;">
		<path d="M3414.3,6187.5c-0.2-0.9-0.4-1.8-0.7-2.7c-0.5-1.4-1.6-2.9-1.4-4.2c0.1-0.7,2.3-1.2,3.8-1.9
			c-0.6-1.9-1.5-4.2-2.2-6.6c-1-3.3-1.8-6.7-2.7-10c-0.1-0.5-0.3-1.2-0.7-1.4c-1.7-0.9-1.9-2-1.4-3.9c0.5-1.8-0.1-3.3-2.5-3.6
			c-1-0.1-1.8-1.1-3-1.9c1.2-0.6,2-1,2.7-1.3c-0.1-0.2-0.2-0.5-0.3-0.7c-0.7,0.1-1.4,0.2-1.7,0.2c-2.3-5.9-4.2-11.7-7.1-17
			c-0.8-1.4-1.2-2.7-1.7-4.1c-0.5-1.5-1.6-3.4-2.9-3.8c-2.9-0.9-2.8-2.3-1.9-3.9c-1-1.7-1.6-3-2.5-4.2c-2-2.8-4.3-5.3-6.2-8.2
			c-0.9-1.3-1-3-1.4-4.3c-1.7-2.7-3.5-5.3-5-8c-0.8-1.5-0.8-3.5-1.5-5.1c-0.5-1.1-1.6-1.9-2.3-2.8c-2.3-3.1-3-7.1-4.9-10.4
			c-2.2-3.9-5-7.4-7.5-11.2c-0.8-1.2-1.6-2.5-2.7-4.2c0-0.6,0-1.9-0.3-3.2c-0.1-0.4-1.1-1-1.6-0.9c-1.8,0.1-3.7,0.6-5.5,0.8
			c-0.6,0.1-1.7-0.1-1.8-0.3c-0.5-2.5-4.6-2.3-4.1-5.5c0.1-0.4-0.5-1.1-0.8-1.2c-3.2-0.8-4-3.6-5.4-6c-0.9-1.5-2.3-2.7-3.4-4.1
			c-2.5-3.2-5-6.4-7.6-9.6c-0.3-0.3-0.6-0.6-1-0.8c-2.1-1.1-3.9-1.9-5.3-4.5c-1.5-3-4.9-4.9-7.4-7.4c-2.9-3-5.7-6.1-8.7-9.1
			c-0.6-0.6-1.8-0.6-3-0.9c-0.3-1.6-0.8-3.5-1.2-5.6c-0.2,0.1-1.2,0.3-2.4,0.6c-0.1-1-0.1-1.8-0.2-2.6c-3.7-0.3-4.9-3.5-6.8-5.8
			c-0.4-0.5-1-1.5-1.4-1.5c-5.5,0.3-7.5-4.7-11.1-7.4c-0.3-0.2,0.1-1.3,0.2-1.6c-2.3-0.1-4.5-0.3-7.3-0.4c1-2.8,1.8-5.1,2.9-8.3
			c0.7,1.7,1.2,2.7,1.9,4.5c0.7-1.4,1.1-2.3,1.8-3.7c0.7,1.2,1.4,2.4,2.3,3.8c1.9,0.6,5,0.1,4.4,4.4c-0.2,1.4,2,3.4,3.5,4.7
			c3,2.7,6,5.5,10.8,5.4c-0.8,0.4-1.6,0.8-2.5,1.3c2,3.3,2.6,0,4.1-1.3c1.3,2,2.5,3.9,3.7,5.8c0.9-1,1.8-2.2,3.2-3.8
			c0.7,1.7,1.1,2.7,1.4,3.6c3.1-0.6,13.2,4.1,14.8,6.8c3.4-1.2,4.6-0.2,5.9,5.5c0.9-1.1,1.6-1.9,2.1-2.5c1.6,1.4,3.4,2.9,5.2,4.4
			c-0.1,0.2-0.3,0.8-0.6,1.4c1.1,0.1,2.1,0.2,3.3,0.3c0.3,1.8,0.2,4.3,3.8,3.8c0.9-0.1,2.2,1.2,3,2.2c2.5,3.3,7.2,4.2,8.5,8.8
			c0.6,2,2.7,3.5,4.4,5.5c4.3-0.6,4.5-0.5,4,4c1,0,1.9,0,2.1,0c1.4,2.1,2.7,3.8,3.8,5.6c0.7,1.2,1.3,2.5,1.4,3.8
			c0.2,2.6,1.4,1.8,2.9,1c2.2,6.3,4.5,12.6,6.9,19.4c0.8-2.1,1.3-3.5,1.9-5c0.4,0.2,0.8,0.4,1.2,0.5c-0.5,0.9-1.5,2-1.3,2.7
			c0.5,1.8,1.3,3.5,2.4,5c0.5,0.7,1.7,0.8,2.6,1.1c0.3-0.9,0.7-1.7,1-2.7c-4.8-1.3-4.7-1.3-3.3-5.5c0.3-1,0.7-2.1,0.6-3.1
			c0-0.9-0.6-1.7-1.2-3.1c4.2,1.3,1.8,4.6,2.9,6.1c1.1,0.1,2.2-0.1,2.7,0.3c1.1,0.9,2.7,2.1,2.8,3.3c0.1,2-0.3,3.4,2.6,3.1
			c0.6-0.1,1.5,1.3,2.2,2.2c1.3,1.7,2.8,3.3,3.8,5.1c1.3,2.4,4.9,3.7,3.8,7.1c0.9,0.5,2.2,0.8,2.4,1.5c1.2,4.8,5,7.9,7.3,12
			c1,1.7,1.6,3.5,2.7,5.1c0.5,0.9,1.6,1.4,2.1,1.9c0.4,1.7,0.4,3.4,1.2,4.7c1,1.6,2.7,2.7,3.8,4.2c0.8,1.2,1,2.7,1.5,4.1
			c0.7,1.7,1.5,3.4,2.1,5.2c0.7,1.9,1.1,3.9,1.4,5.1c2.1,2.7,3.7,4.8,5.8,7.5c-0.6,2.5,0.8,5.3,3.6,6c-1.2,3.4-0.3,5.2,3.7,6.7
			c-1.1,0-1.6,0-2.4,0c0.3,1.6,0.4,3.1,0.9,4.5c0.2,0.7,0.8,1.6,1.4,1.9c3.2,1.5,3.4,1.9,0.8,4.8c1,0.4,1.9,0.8,3,1.3
			c-0.9,3.2-0.3,5.8,3.4,7.1c0.6,0.2,0.6,1.9,0.8,3c0.1,0.3-0.2,0.8,0,1c1,2.2,2.1,4.4,3.2,6.5c1.1,2.2,2.2,4.4,3.4,6.8
			c0.3-0.1,0.9-0.5,1.6-0.9c1.3,4.2,2.5,8.4,3.9,12.9c3.6,0.5,2.8,4.2,3.7,7c0.5,1.5,0.6,3.5,1.6,4.3c2.4,2,1.4,3.7,0.3,5.6
			c-0.5,0.9-1.1,1.7-1.6,2.6c0.2,0.2,0.5,0.4,0.7,0.6c0-0.8,0.1-1.7,0.1-2.5c0.6,0.4,1.2,0.8,1.7,1.2c-0.4,2.4,0.6,5-1.6,7.4
			c-0.7,0.7,0.1,2.9,0.4,4.4c1,4.3,3.8,8,4,12.6c0.2,3.4,1.7,6.8,2.6,10.2c0.2,1-0.1,2.1,0.2,3.1c1.2,3.8,2.5,7.7,3.8,11.5
			c0.3,1,0.9,1.9,1.3,2.9c0.3-0.3,0.6-0.6,0.9-1c-0.5,3.5-1,7-1.5,10.8c0.7-0.2,1.2-0.4,2-0.7c0.8,2.1,1.9,4.2-0.3,6.3
			c-0.8,0.8-1.6,1.7-2.4,2.5c-0.2-0.2-0.5-0.4-0.7-0.7c0.4-0.4,0.8-0.8,1.3-1.2c-0.1-0.3-0.3-0.6-0.4-0.9c-1.3,0.5-2.7,0.9-4,1.4
			c-1,0.3-2.4,1.4-2.8,1.1c-2.3-1.9-3.8-0.2-5.7,0.6c-2.5,1.1-5,2.1-8.1,1c-2.8-0.9-6-0.5-9-0.7c-1.2-0.1-2.3-0.5-3.4-0.7
			c-1.2-0.1-2.5-0.4-3.5,0c-2.9,1-7.2,0-9-2.3c-0.2-0.2-0.2-0.8-0.3-0.9c-6-1.7-3.8-6.3-3.7-10.2c0-1.5-1.4-3.1-1.4-4.6
			c0-1.8,0.9-3.7,1.1-5.5c0.1-0.9-0.2-2-0.4-2.9c0-0.1-0.8,0-1.2,0c0.1,0.9,0.1,1.9,0.2,2.8c-0.2,0.1-0.5,0.2-0.7,0.2
			c-0.3-0.9-0.8-1.8-0.8-2.7c0.1-3.1,0.9-3.5,3.7-2.4c0.3,0.1,1,0.1,1.1-0.1c0.2-0.4,0.3-1,0.2-1.3c-1-2-2-4-4.9-1.2
			c0.2-2.5,5.3-4.4,0.5-6.4c0.3-1.4,0.6-2.9,0.9-4.3c-0.3,0.2-0.6,0.3-0.9,0.5c0.9,1,1.8,1.9,2.8,2.9c0.2-0.3,0.5-0.6,0.7-1
			c1.2-0.7,2.3-1.4,4-2.5c-1.3-0.4-2.7-0.8-4.8-1.5c-1.4-1.3,1.9-6.3-3.5-6.3c0.8-0.2,1.7-0.4,2-0.4c-0.2-2.5-0.3-4.6-0.5-6.8
			c0-0.6,0.1-1.5-0.2-1.7c-3-1.6-2.1-4-1.5-6.4c0.2-0.9-0.4-2.9-0.8-2.9c-3.5-0.2-1-3.3-2.3-4.4c2.2-2.4-0.2-3.4-1.4-4.7
			c-0.3-0.3-0.6-0.5-1.2-1c2.7-1.9,2.3-3.4-0.5-4.7c-0.5-0.2-1.1-0.7-1.1-1.1c-0.4-3-0.3-6-2.2-8.7c-0.5-0.6,0.7-2.4,1-3.7
			c0.3-1.2,1-2.6,0.7-3.4c-0.4-0.9-1.9-1.2-3.2-1.9c0-0.2,0.1-0.7,0.2-1.3c0-0.1,0.2-0.2,0.2-0.2
			C3414.1,6187.2,3414.2,6187.3,3414.3,6187.5c1.2,0.1,2.3,0.1,3.5,0.2c0-1.1-0.1-2.2-0.1-3.2c0-0.8,0.1-1.7,0-2.5
			c-0.1-0.8-0.4-1.5-0.7-2.4c-3.2,2.5-1.3,4.8-0.4,7C3415.7,6187,3415,6187.2,3414.3,6187.5z M3311.2,6005.5
			c-0.3-1.2-0.6-2.3-0.9-3.5c-1.2,0.1-2.4,0.3-3.5,0.4c-0.1,0.3-0.2,0.6-0.3,0.9C3308.1,6004,3309.7,6004.7,3311.2,6005.5
			c0.2,0.6,0.2,1.5,0.6,1.9c2.1,2,4.3,4,6.6,5.8c2.4,1.9,4.1,1.2,5-1.9c-3.3,1.7-7,0.3-7.9-3.4
			C3314.8,6005.1,3313.4,6004.9,3311.2,6005.5z M3443.5,6247.4c-1.2,0.6-2.2,0.8-2.7,1.4c-1.7,2-2.6,4.3-0.7,6.8
			c-0.9,0.7-1.6,1.3-2.4,1.9c0.3-0.1,0.7-0.2,1-0.3c1.1,1.5,2.2,2.9,3.2,4.4c1,1.6,1.9,3.3,3.1,5.3c0.4-2.2,0.7-3.8,1-5.6
			C3442.1,6259.3,3441.7,6254.7,3443.5,6247.4z M3432.9,6218.9c-2.9-3.3-1.1-9.1-6-11c-1.2,0.9-2.2,1.7-2.5,1.9
			c1.2,3.2,2.4,6.1,3.5,8.9C3428.7,6218,3428.8,6218,3432.9,6218.9z M3430.7,6255.6c-0.1,0.3-0.3,0.7-0.2,0.9c1,2,1.9,3.9,0.7,6.2
			c-0.2,0.3,1,1.7,1.8,2.1c0.5,0.2,1.8-0.3,2.1-0.8c0.3-0.6,0-1.7-0.3-2.4c-0.3-0.7-1.1-1.3-1.6-1.9
			C3435.6,6256.5,3435.6,6256.5,3430.7,6255.6z M3410.5,6138.5c1.3-3.1,2.4-5.9,3.5-8.7c-0.3-0.1-0.6-0.3-0.9-0.4
			c-1.9,0.9-3.7,1.8-5.6,2.6C3412.3,6132.7,3407.9,6137,3410.5,6138.5z M3431.3,6228.9c-1.5,5.1,3,7.5,3,9.5
			C3433,6236.8,3434.8,6232.4,3431.3,6228.9z M3415.6,6137.8c-0.3,0.1-0.7,0.2-1,0.4c-0.3,2.5,1.4,4.5,2.8,6.4c0.5,0.7,1.9,0.7,3,1
			C3418.5,6142.6,3417.1,6140.2,3415.6,6137.8z M3353.1,6046.9c0-0.3,0-0.5-0.1-0.8c0.8,0.1,1.6,0.1,2.2,0.4c0.9,0.5,1.7,1.3,2.5,2
			c0.4-0.4,0.7-0.8,1.1-1.3c-1.3-1-2.5-2.4-3.9-2.9c-0.8-0.2-3,1.2-3,1.8c0.1,1.2,1.2,2.4,1.9,3.6c0.4-0.3,0.8-0.6,1.2-0.9
			C3354.4,6048.2,3353.7,6047.5,3353.1,6046.9z M3333.9,6030.2c-0.4,0.5-0.9,0.9-1.3,1.4c1.9,1.8,3.9,3.5,5.8,5.3
			c0.3-0.3,0.6-0.6,1-1C3337.6,6033.9,3335.7,6032.1,3333.9,6030.2z M3442.8,6271c0.3-0.1,0.5-0.3,0.8-0.4c-0.7-1.7-1.2-3.6-2.2-5.2
			c-0.2-0.3-1.9,0.3-2.8,0.5C3440.3,6267.8,3441.5,6269.4,3442.8,6271z M3350.6,6055.3c-0.8-1.9-1.6-3.6-2.5-5.9
			c-0.4,0.7-1.4,1.8-1.2,2.2C3347.8,6053,3346.9,6056.2,3350.6,6055.3z M3407.8,6122.2c-0.4,0.2-0.7,0.4-1.1,0.6
			c1.3,2.3,2.6,4.5,3.9,6.8c0.4-0.3,0.9-0.5,1.3-0.8C3410.6,6126.6,3409.2,6124.4,3407.8,6122.2z M3349.4,6040.9
			c-0.3-0.1-0.6-0.2-0.9-0.3c-0.4,1.2-0.9,2.3-1.3,3.5c1.1,0.2,2.2,0.3,3.9,0.6C3350.2,6042.8,3349.8,6041.9,3349.4,6040.9z
			 M3420.2,6194.1c-0.4,0-0.7,0-1.1,0c-0.2,0.9-0.9,2.3-0.6,2.7c0.7,0.8,2,1,3,1.5c0.1-0.2,0.3-0.4,0.4-0.6
			C3421.4,6196.4,3420.8,6195.2,3420.2,6194.1z M3355.8,6049.2c0.8,1.1,1.7,2.2,2.8,3.8c0.7-1.4,1.3-2.6,1.9-3.8
			C3358.6,6049.2,3357.3,6049.2,3355.8,6049.2z" style="fill:#FFFFFF;"/>
		<path d="M3253.7,5972.9c1.9-2,3.4-3.6,5.2-5.5c0.9,2.5,1.1,4.7,2.4,5.7c0.8,0.7,3.1-0.5,4.8-0.8
			c0.7,1.5,1.2,2.7,1.7,3.7c1.4-0.4,2.8-0.7,4.3-1.2c-0.5,2.4-0.8,3.9-1.2,5.7c-0.6,0.1-1.4,0.3-2,0.5c-0.2-3.9-5.3-1.6-5.9-4.7
			c-2.2,1.2-4.3,2.4-5.9-0.9C3256.7,5974.4,3255.3,5974,3253.7,5972.9z" style="fill:#FFFFFF;"/>
		<path d="M3255.2,5969.3c-1.8-0.4-3.2-0.6-4.5-0.9c-0.3,0.3-0.5,0.6-0.8,0.8c0.8,1.1,1.6,2.2,2.4,3.4
			c0.4-0.3,0.9-0.5,1.3-0.8c-1.6,0.3-3.2,0.5-4.5,0.7c-0.2-1.2-0.3-2.3-0.5-3.3c-1,0.3-2,0.6-3.1,1c-1.2-1.5-0.5-5.5,1.5-6.4
			c0.4-0.2,1.3,0,1.4,0.2c1.1,2.6,3.8,2.5,5.9,3.5C3254.8,5967.9,3255,5968.9,3255.2,5969.3z" style="fill:#FFFFFF;"/>
		<path d="M3232.9,5963.2c0.7-1.4,1.3-2.8,2-4.3c4.4-0.1,1,3.3,2,5c0.9-0.6,1.8-1.2,2.8-1.8c0.1,0.9,0.2,1.8,0.3,2.9
			c1.1,0,2,0,3.1,0c-0.2,1-0.3,2-0.4,2.8C3238.9,5968,3236.7,5966.9,3232.9,5963.2z" style="fill:#FFFFFF;"/>
		<path d="M3220.1,5957c-1.7-1-3.2-1.9-4.7-2.8C3217.5,5952.8,3219.7,5954,3220.1,5957z" style="fill:#FFFFFF;"/>
	</g>
	<g style="display:inline;">
		<circle cx="5554" cy="6606.7" r="783.2" style="fill:none;stroke:#000000;stroke-width:50;stroke-linecap:round;stroke-linejoin:round;stroke-dasharray:0,136.71;"/>
	</g>
</g>
</svg>
