<?xml version="1.0" encoding="utf-8"?>
<!-- Generator: Adobe Illustrator 21.0.0, SVG Export Plug-In . SVG Version: 6.00 Build 0)  -->
<svg version="1.1" baseProfile="tiny" id="Layer_2" xmlns="http://www.w3.org/2000/svg" xmlns:xlink="http://www.w3.org/1999/xlink"
	 x="0px" y="0px" viewBox="0 0 2000 2000" xml:space="preserve">
<path fill="#FECE2F" d="M1248.4,453.6c-179.2-195.5-524-172-696-36c-187.1,147.9-72,295.7-404,744c-160,216-121.7,532.6,312,548
	c452,16,1215.3,87.9,1268-504C1764.4,801.6,1468.4,693.6,1248.4,453.6z"/>
<g>
	<path fill="#1A1A1A" d="M571,866.7c0,0,27-9,47-36.5s35.5-40.3,46.5-39c29,3.4,62.5,91.4,90,94L669,993.3L571,866.7z"/>
</g>
<path fill="#FFFFFF" d="M672.8,994.5l417.1-532.9c1-1.3,0.8-3.2-0.5-4.2s-3.2-0.8-4.2,0.5L668.9,989.6L252.7,457.9
	c-1-1.3-2.9-1.5-4.2-0.5s-1.5,2.9-0.5,4.2l417.1,532.9L248,1527.4c-1,1.3-0.8,3.2,0.5,4.2c0.5,0.4,1.2,0.6,1.8,0.6
	c0.9,0,1.8-0.4,2.4-1.2l416.2-531.7l416.2,531.7c0.6,0.8,1.5,1.2,2.4,1.2c0.6,0,1.3-0.2,1.8-0.6c1.3-1,1.5-2.9,0.5-4.2L672.8,994.5z
	"/>
<g>
	<path fill="#1A1A1A" d="M374.5,1510c0,0,7.5-17.9,29.5-33.3s44-38.4,53.5-60.8c9.5-22.4,37-79.3,64-102.3c27-23,55-46,67.5-76.1
		s58-117,79.5-116.4c21.5,0.6,12.5,33.3,33,43.5s36.5,39,47.5,63.9c11,24.9,34,75.5,58.5,83.1s45.5,42.2,64,83.1
		c18.5,40.9,56.5,48.6,89,115.7L374.5,1510z"/>
</g>
<g>
	<path fill="#FECE2F" d="M409.2,665.1c-0.9,0-1.8-0.4-2.4-1.2L248,461.6c-1-1.3-0.8-3.2,0.5-4.2s3.2-0.8,4.2,0.5l158.8,202.4
		c1,1.3,0.8,3.2-0.5,4.2C410.5,664.9,409.9,665.1,409.2,665.1z"/>
</g>
<g>
	<g>
		<path fill="#1A1A1A" d="M668.4,1030c-0.2,0-0.5,0-0.7-0.1c-0.2-0.1-0.4-0.1-0.6-0.3c-0.2-0.1-0.4-0.2-0.6-0.4
			c-0.2-0.2-0.4-0.3-0.5-0.5c-0.7-0.8-1-2-1-3.2c0-1.2,0.4-2.3,1-3.2c0.2-0.2,0.3-0.4,0.5-0.6c0.2-0.2,0.4-0.3,0.6-0.4
			c0.2-0.1,0.4-0.2,0.6-0.3c0.5-0.1,0.9-0.1,1.4,0c0.2,0.1,0.5,0.2,0.7,0.3c0.2,0.1,0.4,0.3,0.6,0.4c0.2,0.2,0.4,0.4,0.5,0.6
			c0.7,0.8,1,2,1,3.2c0,1.2-0.4,2.3-1,3.2c-0.2,0.2-0.3,0.4-0.5,0.5c-0.2,0.2-0.4,0.3-0.6,0.4c-0.2,0.1-0.4,0.2-0.7,0.3
			C668.9,1030,668.7,1030,668.4,1030z"/>
	</g>
</g>
<g>
	<g>
		<path fill="#1A1A1A" d="M668.4,1068.6c-1.7,0-3-1.7-3-3.8v-5.5c0-2.1,1.3-3.8,3-3.8s3,1.7,3,3.8v5.5
			C671.4,1066.9,670.1,1068.6,668.4,1068.6z"/>
	</g>
</g>
<g>
	<g>
		<path fill="#1A1A1A" d="M668.4,1103.1c-1.7,0-3-1.7-3-3.8v-12.8c0-2.1,1.3-3.8,3-3.8s3,1.7,3,3.8v12.8
			C671.4,1101.4,670.1,1103.1,668.4,1103.1z"/>
	</g>
</g>
<g>
	<path fill="#1A1A1A" d="M1066.9,1506.1H253.1c-31.4,0-56.9,25.5-56.9,56.9v27c0,1.9,1.5,3.4,3.4,3.4h921c1.9,0,3.4-1.5,3.4-3.4v-27
		C1123.9,1531.7,1098.3,1506.1,1066.9,1506.1z"/>
</g>
<g>
	<path fill="#FECE2F" d="M794.5,1592.3c-38.5-20.3-104.3-43.5-198.9-38.9c-111.3,5.5-171.8,26.5-197.9,38.5c-1.5,0.7-2.2,2.5-1.5,4
		c0.7,1.5,2.5,2.2,4,1.5c25.8-11.9,85.5-32.5,195.7-38c93.3-4.6,158,18.2,195.9,38.2c0.4,0.2,0.9,0.3,1.4,0.3c1.1,0,2.1-0.6,2.7-1.6
		C796.5,1594.9,796,1593,794.5,1592.3z"/>
	<path fill="#FECE2F" d="M1128.1,1542.3c-0.8-1.5-2.6-2-4.1-1.2l-3,1.6c-46.2,24.7-93.9,50.3-161.4,23
		c-64.7-26.1-89.7-31.7-166.9-37.5c-22.3-1.7-38.2-9.2-47.7-22.3h216.8c1.7,0,3-1.3,3-3s-1.3-3-3-3H382c-1.7,0-3,1.3-3,3s1.3,3,3,3
		h154.4c-10.1,25.6-61.6,40.9-149.4,44.5c-51.2,2.1-114.5,0.1-183.3-5.6c-1.7-0.1-3.1,1.1-3.2,2.7c-0.1,1.7,1.1,3.1,2.7,3.2
		c51,4.3,99.1,6.4,141.5,6.4c14.9,0,29.1-0.3,42.5-0.8c93.9-3.8,146.3-20.8,155.6-50.5h47.8c-0.1,2.7,0.6,5.1,2.1,7.2
		c5.7,7.9,21.7,9.8,45.9,12.5c26.8,3.1,63.5,7.3,99.5,22.6c33.3,14.2,69.6,18.3,101.5,22c37.7,4.3,67.4,7.8,76,25.4
		c0.5,1.1,1.6,1.7,2.7,1.7c0.4,0,0.9-0.1,1.3-0.3c1.5-0.7,2.1-2.5,1.4-4c-10-20.6-41.2-24.2-80.7-28.8c-31.5-3.6-67.3-7.8-99.8-21.6
		c-36.8-15.6-74-19.9-101.1-23c-21-2.4-37.5-4.3-41.7-10.1c-0.5-0.7-1.1-1.8-1-3.7h141.3c10.1,16.8,28.4,26.3,54.4,28.2
		c76.4,5.7,101.1,11.3,165.1,37.1c20,8.1,39.5,12.1,59,12.1c11.1,0,22.2-1.3,33.4-3.9c27-6.3,51-19.1,74.1-31.5l3-1.6
		C1128.3,1545.5,1128.9,1543.7,1128.1,1542.3z"/>
	<path fill="#FECE2F" d="M958.9,1537.7c0,11.5,27.7,17.5,55,17.5c27.3,0,55-6,55-17.5s-27.7-17.5-55-17.5
		C986.5,1520.2,958.9,1526.2,958.9,1537.7z M1013.9,1526.2c31.7,0,49,7.6,49,11.5s-17.3,11.5-49,11.5c-31.7,0-49-7.6-49-11.5
		S982.2,1526.2,1013.9,1526.2z"/>
</g>
<g>
	<path fill="#FECE2F" d="M796.5,388.9h-92c-1.9,0-3.4-1.5-3.4-3.4s1.5-3.4,3.4-3.4h92c1.9,0,3.4,1.5,3.4,3.4
		S798.4,388.9,796.5,388.9z"/>
</g>
<g>
	<g>
		<path fill="#FFFFFF" d="M926.8,1351.9c15.8-21.7,26.1-56.6,26.1-95.9c0-38.8-10-73.3-25.5-95c0,0-24.5,46-23.5,103.5
			S926.8,1351.9,926.8,1351.9z"/>
	</g>
	<g>
		<path fill="#FFFFFF" d="M1388.6,985.3L1388.6,985.3c-15.6,3.4-27.6,15.8-30.5,31.5l-44.5,239.2l23-10.3l39.7-244L1388.6,985.3z"/>
	</g>
	<g>
		<path fill="#FFFFFF" d="M903.4,1444.5c31.7-16.3,121.3-52.2,121.3-52.2l-28.6-2.3c-64.7-12.7-93.3-44.7-94.7-122
			c-1.3-77.3,43.3-140.7,43.3-140.7s57.7-17.1,120.8,8.3c57.8,23.3,80.5,30.8,97.6,64.3c4.4-3.8-5.8,16.5-32.4,13.7l-6.3,14
			c0,0,71.5,7.9,71,5.9s20.7,2.5,20.7,2.5l21.7-51.7l18.2-34.3l10-115c0,0-42.8-1-60.5-28.7s-22-55.3-22-55.3s-56.7,3.5-95.3,22
			c-38.7,18.5-62,33-97.7,56.7c-35.7,23.7-70,68-102.7,111c-32.7,43-66.3,127.3-74.3,155c-8,27.7-30,107.3-35.5,178.3
			c0,0-4,54-2,63.5C775.9,1537.5,822.4,1486,903.4,1444.5z"/>
	</g>
	<g>
		<path fill="#FECE2F" d="M1238.1,1123.7c-0.5,0-1-0.1-1.5-0.4c-11.4-6.6-18.2-19-17.9-32.1c0.3-9.6,4.3-18.5,11.3-25.1
			c7-6.6,16.2-10.1,25.7-9.8c1.7,0,3,1.4,2.9,3.1c0,1.6-1.4,2.9-3,2.9c0,0-0.1,0-0.1,0c-8-0.2-15.6,2.7-21.5,8.2
			c-5.8,5.5-9.2,12.9-9.4,21c-0.3,11,5.4,21.2,14.9,26.8c1.4,0.8,1.9,2.7,1.1,4.1C1240.2,1123.1,1239.2,1123.7,1238.1,1123.7z"/>
	</g>
	<g>
		<path fill="#FECE2F" d="M1113.7,1039.2c-29.9,0-54.6-23.4-56.2-53.3c-0.1-1.7,1.2-3.1,2.8-3.2c1.7-0.1,3.1,1.2,3.2,2.8
			c1.4,26.7,23.4,47.6,50.2,47.6c27.7,0,50.2-22.5,50.2-50.2c0-10.2-3.1-20.1-8.8-28.5c-0.9-1.4-0.6-3.2,0.8-4.2
			c1.4-0.9,3.2-0.6,4.2,0.8c6.5,9.4,9.9,20.4,9.9,31.9C1169.9,1013.9,1144.7,1039.2,1113.7,1039.2z"/>
	</g>
	<g>
		<path fill="#FECE2F" d="M1087.4,1144.2c-1.7,0-3-1.3-3-3c0-29.8,24.2-54,54-54c23.9,0,44.7,15.4,51.7,38.2c0.5,1.6-0.4,3.3-2,3.7
			c-1.6,0.5-3.3-0.4-3.7-2c-6.2-20.3-24.7-34-45.9-34c-26.5,0-48,21.5-48,48C1090.4,1142.8,1089.1,1144.2,1087.4,1144.2z"/>
	</g>
	<g>
		<path fill="#FECE2F" d="M1056,1134.5c-0.3,0-0.5,0-0.8-0.1c-1.6-0.4-2.5-2.1-2.1-3.7c0.9-3.2,1.3-6.5,1.3-9.8
			c0-20.3-16.5-36.7-36.7-36.7c-20.3,0-36.7,16.5-36.7,36.7c0,1.7-1.3,3-3,3s-3-1.3-3-3c0-23.6,19.2-42.7,42.7-42.7
			c23.6,0,42.7,19.2,42.7,42.7c0,3.9-0.5,7.7-1.5,11.4C1058.5,1133.7,1057.3,1134.5,1056,1134.5z"/>
	</g>
	<g>
		<path fill="#FECE2F" d="M921.5,1400.7c-26.5,0-48.1-21.6-48.1-48.1c0-19.4,11.5-36.8,29.4-44.3c1.5-0.6,3.3,0.1,3.9,1.6
			c0.6,1.5-0.1,3.3-1.6,3.9c-15.6,6.6-25.7,21.8-25.7,38.8c0,23.2,18.9,42.1,42.1,42.1c14.1,0,27.1-7,35-18.7
			c0.9-1.4,2.8-1.7,4.2-0.8c1.4,0.9,1.7,2.8,0.8,4.2C952.5,1392.7,937.5,1400.7,921.5,1400.7z"/>
	</g>
	<g>
		<path fill="#FECE2F" d="M857.8,1474.2c-1.1,0-2.2-0.6-2.7-1.7c-11.6-24.2-36.4-39.9-63.2-39.9c-2.5,0-5.1,0.1-7.6,0.4
			c-1.6,0.2-3.1-1-3.3-2.7c-0.2-1.6,1-3.1,2.7-3.3c2.7-0.3,5.5-0.4,8.3-0.4c29.1,0,56.1,17,68.6,43.3c0.7,1.5,0.1,3.3-1.4,4
			C858.7,1474.2,858.3,1474.2,857.8,1474.2z"/>
	</g>
	<g>
		<path fill="#FECE2F" d="M812.9,1333.2c-2.6,0-5.2-0.1-7.8-0.4c-1.6-0.2-2.8-1.6-2.7-3.3c0.2-1.6,1.7-2.8,3.3-2.7
			c2.4,0.2,4.8,0.4,7.2,0.4c38,0,69-31,69-69c0-23-11.4-44.3-30.4-57.2c-1.4-0.9-1.7-2.8-0.8-4.2c0.9-1.4,2.8-1.7,4.2-0.8
			c20.7,14,33.1,37.2,33.1,62.2C887.9,1299.5,854.3,1333.2,812.9,1333.2z"/>
	</g>
	<path fill="#FECE2F" d="M1817.9,1524l-23.5-4.6l-470.5-66.4c0,0,9-11.9-60.1,54.1s-120.6,80.6-120.6,80.6l661.2,2.2
		C1820.6,1575.7,1819.6,1538.2,1817.9,1524z"/>
	<g>
		<path fill="#FFFFFF" d="M1296.3,1478.2l524.6,57.9l-3-12l-494-71C1318.3,1458.3,1302.5,1473.6,1296.3,1478.2z"/>
	</g>
	<path fill="#1A1A1A" d="M1910.8,1451.5c-9.9-6.1-28.5,3.9-56.9,30.6c-4.5,4.2-8.8,8.5-12.9,12.7c0.7-1.7,1.4-3.4,2-5.1
		c4.4-12.6,5.3-24.6,2.3-31.3c-2-4.6-5.9-6.9-10.6-6.1c-6,1-10.5,7.1-13.6,18.6c-2.3-12.4-6.6-22.1-12.5-25.5
		c-2.4-1.4-7.2-2.9-12.6,2.2c-14.2,13.3,6.3,56.1,14.9,72.5l-125.5-18c-0.2,0-0.5,0-0.7,0l-360.4-52c-1.6-0.2-3.2,0.9-3.4,2.5
		c-0.1,0.5,0,1,0.1,1.4c-10.5,12.6-28.1,26.6-38.7,37.3c-63.6,63.9-126.8,89.9-142.3,95.7h-9.7c-1.7,0-3,1.3-3,3s1.3,3,3,3h674
		l61,0.5c0,0,0,0,0,0c1.3,0,2.5-0.8,2.9-2.1l43.8-136.5C1912.5,1453.6,1912,1452.2,1910.8,1451.5z M1800.2,1451.8
		c1.6-1.5,2.8-1.9,3.7-1.9c0.8,0,1.4,0.3,1.8,0.5c8.1,4.7,14.9,34.5,9.4,64.4C1803.3,1492.1,1791.3,1460.2,1800.2,1451.8z
		 M1362.4,1555c-20-3-59.2-20.8-61.8-51.2c-2.4-29.3,15.6-44.2,21.6-48.3c0.4,0.2,0.8,0.4,1.2,0.5l383.4,55.3c0.1,0,0.3,0,0.4,0
		c0.1,0,0.2,0,0.3,0l83.9,12c0.7,6.6,2.7,36.3-10.3,63.7h-347.2C1436,1571.6,1413.8,1562.8,1362.4,1555z M1803.1,1587h-15.2
		c11.8-26.6,10.6-53.8,9.8-62.9l17,2.4c0.3,0.2,0.6,0.4,0.9,0.6C1817.7,1535.5,1823.3,1565.8,1803.1,1587z M1822.7,1502.2
		c0-0.5,0.1-1.1,0.1-1.6c1.5-20.7,5.5-41.3,12.9-42.5c0.3,0,0.6-0.1,0.9-0.1c1.2,0,2.3,0.5,3.2,2.6c4,9.2-1.9,36.6-17.6,52.6
		C1822.3,1509.7,1822.4,1505.9,1822.7,1502.2z"/>
	<path fill="#FECE2F" d="M1609.1,1518.4l25.1,25.6c2,1.2,17.5,9.7,42.6,2.1c20.8-6.3,25.1-14,26-16.7c-4.5-4.8-23-24.9-48.2-52.2
		C1636,1500.4,1616.1,1514,1609.1,1518.4z"/>
	<g>
		<path fill="#FECE2F" d="M1674.9,1494.5l-122.7-132.2c0,0-108.7-132.7-150.7-130.7s-67.3,16.7-67.3,16.7l-131.3,64l-75.3,46
			c0,0-47.4,31.4-101.4,32.9c0,0-64.3,25.7-130.8,59.2s-87,56-87,56s7.6,30.1,24.2,56.8c11.3,18.2,29.5,30.9,50.4,35.6
			c22.6,5,57.7,10.9,93.4,9.7c72-2.4,121.6-9.8,121.6-9.8l61.6-17.8l65.8-37.3l146.8-138.1l178.6,133.3l57.1-18.2l25.9,27.1
			l38.8,5.8l35.4-22.9l-23-25.8"/>
	</g>
	<g>
		<path fill="#FFFFFF" d="M1441,1250C1441,1250,1441,1249.9,1441,1250c-15.3-11.5-29.3-18.8-39.4-18.3c-10.8,0.5-20.5,1.9-28.9,3.6
			c-11.2,0.3-17.8,4.3-18.9,5c-12.6,4.1-19.5,8.1-19.5,8.1l-131.3,64h0c15.5,6.3,32.9,5.8,48-1.4c28.6-13.5,77.2-36.4,111.6-52.6
			c23.7-11.2,52-6,70.2,12.8l210.2,217.1l13.2-13.2C1656.1,1475.2,1482.6,1282.1,1441,1250z"/>
	</g>
	<path fill="#1A1A1A" d="M980.3,1409.4c-0.3-0.8-0.9-1.4-1.6-1.7c-0.7-0.3-1.6-0.3-2.3,0l-5.9,2.5c-1.3,0.6-2,1.9-1.8,3.3
		c0.2,0.8,15.2,85-22.7,104.1c-1.1,0.5-1.7,1.6-1.6,2.8c0,1.2,0.8,2.2,1.9,2.7l19.7,8c0.4,0.1,0.8,0.2,1.1,0.2
		c0.8,0,1.5-0.3,2.1-0.9c13.9-13.8,21.3-33.1,22.1-57.2C992.3,1440.5,980.8,1410.7,980.3,1409.4z"/>
	<path fill="#FFFFFF" d="M1593.5,1524.3l-196.2-209.7c-14-14.9-37.4-16.6-53.4-3.9c-34.2,27.2-101.4,79.8-166.8,126.5
		c-79.1,56.5-132.2,87.7-157.6,92.9c-16.2,3.3-32.2,1.5-47.2-2.9c11.9-13.5,18.3-31.6,19-53.8c1.1-32.8-10.4-62.6-10.9-63.9
		c-0.6-1.5-2.3-2.3-3.9-1.7c-1.5,0.6-2.3,2.3-1.7,3.9c0.1,0.3,11.6,30,10.5,61.5c-0.7,21.9-7.2,39.4-19.3,52
		c-16.9-6-32.2-15.1-44.3-23.8c-26.4-18.9-44.1-40-44.3-40.2c-1.1-1.3-3-1.4-4.2-0.4c-1.3,1.1-1.4,3-0.4,4.2
		c0.7,0.9,18.3,21.8,45.3,41.1c29.2,20.9,58,31.7,84.4,31.7c6.2,0,12.3-0.6,18.2-1.8c60-12.2,248.7-158.3,327-220.5
		c13.6-10.8,33.5-9.3,45.3,3.3l196.2,209.7c1.1,1.2,3,1.3,4.2,0.1C1594.5,1527.4,1594.6,1525.5,1593.5,1524.3z"/>
	<path fill="#1A1A1A" d="M1656.1,1475.2c0,0-15.2,38.5-41.2,52.2l-6.9-6.7C1607.9,1520.8,1643,1499.3,1656.1,1475.2z"/>
	<path fill="#FECE2F" d="M1857.8,1525.4c-1.4-2.4-4.5-3.2-6.8-1.8c-2.4,1.4-3.2,4.5-1.8,6.8c6.1,10.3,13.1,22.2,21,35.5l4.1-12.7
		C1868.2,1543.1,1862.7,1533.7,1857.8,1525.4z"/>
	<path fill="#FECE2F" d="M1878.3,1515.7c-4.4-7.1-8.6-13.8-12.4-21.1c-1.3-2.4-4.3-3.4-6.8-2.1c-2.4,1.3-3.4,4.3-2.1,6.8
		c4,7.6,8.5,14.8,12.8,21.7c3.2,5.2,6.5,10.5,9.6,16l4.1-12.8C1881.8,1521.3,1880.1,1518.5,1878.3,1515.7z"/>
	
		<ellipse transform="matrix(9.455537e-02 -0.9955 0.9955 9.455537e-02 361.4944 2154.9839)" fill="#FFFFFF" cx="1365.4" cy="878.8" rx="8.8" ry="17"/>
	<path fill="#1A1A1A" d="M1379.6,871.2c-3.4-2.2-8.1-3.7-13.1-4.1c-11.4-1.1-20.4,3.1-21,9.8c-0.3,3.5,1.7,6.9,5.7,9.4
		c3.4,2.2,8.1,3.7,13.1,4.1c1.2,0.1,2.4,0.2,3.5,0.2c9.7,0,17-4,17.5-10C1385.7,877.2,1383.6,873.8,1379.6,871.2z M1364.9,884.5
		c-4-0.4-7.8-1.6-10.4-3.2c-2-1.3-3.1-2.7-3-3.8c0.2-2.1,4.7-4.5,11.6-4.5c0.9,0,1.9,0,2.9,0.1c0.3,0,0.5,0.1,0.8,0.1
		c-2,1.2-3.3,2.8-3.5,4.7c-0.2,2.5,1.6,4.9,4.7,6.8C1367,884.6,1366,884.6,1364.9,884.5z"/>
	<path fill="#1A1A1A" d="M1315.8,876.8l-2.8-10.6c0.5-0.5,0.9-1,1.4-1.4c1.2-1.2,1.2-3.1,0-4.2c-1.2-1.2-3.1-1.2-4.2,0
		c-9.1,9.1-9.3,9.7-9.6,10.5c-0.5,1.6,0.3,3.3,1.9,3.8c0.3,0.1,0.6,0.2,0.9,0.2c1,0,2-0.6,2.6-1.5c0.3-0.4,1.1-1.2,2.1-2.3l1.9,7.1
		c0.4,1.3,1.6,2.2,2.9,2.2c0.3,0,0.5,0,0.8-0.1C1315.3,880.1,1316.3,878.4,1315.8,876.8z"/>
	<path fill="#1A1A1A" d="M1769.6,1551.5c-19.5-9.5-34.4-15.7-44.8-19.7c7.9-0.3,16.4-1.9,24.7-5c12.5-4.6,22.4-11.5,25.8-18
		c2.3-4.5,1.6-8.9-1.9-12c-4.5-4-12.1-3.6-23,1.2c8.2-9.6,12.9-19.1,11.9-25.8c-0.4-2.7-2.3-7.4-9.6-8.4
		c-20-2.7-41.1,43.5-47.6,59.1c-26.7-28.9-211.6-229.2-249.9-266.1c-31.1-30-70.5-35.4-113.8-15.6c-0.8,0.4-1.8,0.8-2.8,1.3
		l39.9-238.7c0.8-0.8,1.7-1.7,2.8-2.7c5.5-5.2,13.8-13,18.2-24.1c5.4-13.8,5.1-24.3-1.2-32.2c-4.1-5.2-8.7-7.3-12-8
		c2.5-5.5,4.5-11.6,6-18.1c0.7-0.9,3.8-2.8,6.1-4.1c5.6-3.3,12.6-7.5,16.4-13.5c1.3-2.1,1.2-4,0.8-5.2c-1.3-4.3-7.1-7-13.2-9.8
		c-3-1.4-7.9-3.6-8.6-4.9c-1.1-23-6.4-42.2-9.6-52.1c7.1-10.5,11.5-21.6,12.5-32.1c1.2-13.2-3.2-24.2-12.8-31.9
		c-12.5-10-29.8-10.9-50.1-2.8c-9.8,4-18.1,9.1-22.7,12.2c-0.2,0.2-0.3,0.3-0.5,0.5l-19.5,14c-0.5,0.4-1.1,0.6-1.7,0.6
		c-0.9,0-1.9-0.4-2.4-1.3c-1-1.3-0.7-3.2,0.7-4.2l13.5-9.7c-11.3-2.2-22.9-1.3-33.7,2.8c-6,2.3-11.7,5.6-17.1,9.9l-8.1-11.3
		c-1-1.3-2.8-1.7-4.2-0.7c-1.3,1-1.7,2.8-0.7,4.2l8.4,11.8c-1.1,1-2.1,2-3.2,3.1l-11.1-0.7c-1.6-0.1-3.1,1.2-3.2,2.8
		c-0.1,1.7,1.2,3.1,2.8,3.2l6.6,0.4c-3.8,4.8-7.3,10.1-10.4,16c-9.6,18.4-13.1,35.9-10.3,52.1c2.4,13.9,8.9,24.2,14.3,31.7
		c0.8,1.1,1.6,2.1,2.6,3.2l-49.8,44.1c-5.7,0.1-31.1,1.2-68,12.6c-37.9,11.7-95.3,37.1-153.9,91.2c-56.9,52.5-104.4,124.7-137.6,209
		c-34.4,87.3-51.8,184.2-50.3,280.2c0,1,0.1,7.6,5.4,12.8c4.2,4.2,10.4,6.2,18.4,6.2c0.9,0,1.8,0,2.8-0.1
		c11.4-0.4,18.2-3.5,21.6-5.7c10.4,18.3,22.2,31.2,35,38.3c26.5,14.7,70.4,19.5,116.2,19.5c29.9,0,60.6-2,87.8-4.7
		c34.9-3.4,69-12.2,101.1-26.1c32.2-14,61.8-32.8,88.1-56.1c8.3-7.4,16.8-15.1,25.3-23.1c59.5-56.1,89.5-84.6,96.8-91.6l73.1,54.8
		c0.2,0.2,0.4,0.3,0.7,0.4l101.8,76.1c0.6,0.4,1.3,0.6,2,0.6c1.1-0.1,26.8-2.2,55.7-17.8l23.1,23.5l-10.9,42c-0.2,0.9,0,1.9,0.5,2.6
		s1.4,1.2,2.4,1.2h183.5c0.8,0,1.6-0.3,2.2-1c0.6-0.6,0.9-1.4,0.8-2.3C1807.4,1588.9,1805.4,1568.9,1769.6,1551.5z M1393.3,948.6
		c4.9,6.2,5,14.5,0.3,26.3c-3.9,9.9-11.6,17.2-16.7,22c-1.4,1.4-2.7,2.5-3.7,3.6c-0.4,0.4-0.7,1-0.8,1.5l-40.7,243.7
		c-8.1,3.9-19.2,9.3-31.6,15.3c-0.1-0.2-0.3-0.3-0.5-0.4c-1-0.7-25-18-58.3-23.5c-5.4-0.9-12.1-1.9-19.5-2.8
		c4.1-6.6,12.7-25.2,36.1-78.2c2.2-5,4.3-9.9,6.3-14.4c3.8-8.6,8.6-19.6,14.1-32.2c19.5-44.7,55.8-128,60.9-133
		c4.1-3.4,6.7-6.3,7.5-8.2c0.3,0,0.6,0,0.9,0c0.2,2.2,0.5,3.5,0.5,3.5c0.1,0.4,0.3,0.8,0.5,1.2c1.3,1.7,2.8,2.1,3.8,2.1
		c0.2,0,0.5,0,0.6,0c1.7-0.3,3.2-1.4,4.6-3.8c0.2,2.9,0.6,4.7,0.6,4.8c0.1,0.4,0.3,0.8,0.5,1.2c1.3,1.7,2.8,2.1,3.8,2.1
		c0.3,0,0.6,0,0.8-0.1c2.3-0.5,4.5-2.5,7.2-9.5c0.7,2.7,1.7,4.2,1.9,4.5c1.4,1.9,3,2.3,4.2,2.3c0.3,0,0.6,0,0.9-0.1
		c4.3-0.9,6.7-7.4,10.2-20.7c0.2-0.9,0.4-1.7,0.6-2.3c0.4-1.6-0.5-3.2-2.1-3.7c-1.6-0.4-3.2,0.5-3.7,2.1c-0.2,0.7-0.4,1.5-0.6,2.4
		c-0.8,3.2-3.1,12-5,15.3c-0.8-2.2-2.2-8.1,1.1-18.6c0.1-0.3,0.1-0.6,0.1-1c1.7-2.3,3.3-4.8,4.8-7.5
		C1385.2,942.7,1389.4,943.6,1393.3,948.6z M1103.9,1269.2c0,0.1,0,0.2,0,0.3c0,0.1,0,0.1,0.1,0.2c0,0.1,0.1,0.2,0.1,0.3
		c0,0.1,0.1,0.1,0.1,0.2c0,0.1,0.1,0.2,0.1,0.3c0,0.1,0.1,0.1,0.1,0.2c0.1,0.1,0.1,0.2,0.2,0.3c0.1,0.1,0.1,0.1,0.2,0.2
		c0.1,0.1,0.2,0.1,0.2,0.2c0.1,0.1,0.1,0.1,0.2,0.1c0,0,0.1,0.1,0.1,0.1c0,0,0.1,0,0.1,0.1c0.1,0,0.1,0.1,0.2,0.1
		c0.1,0,0.2,0.1,0.3,0.1c0.1,0,0.1,0,0.2,0.1c0.2,0.1,0.5,0.1,0.7,0.1c0.2,0,0.4,0,0.6-0.1c0,0,0.1,0,0.1,0c0.2,0,0.4-0.1,0.6-0.2
		c0,0,0,0,0.1,0c0.2-0.1,0.3-0.2,0.5-0.3c0,0,0.1,0,0.1-0.1c0.2-0.1,0.3-0.3,0.4-0.4c0,0,0,0,0,0c0.3-0.3,27.6-34.2,71.6-35.5
		c22,2.4,45.4,5.3,59.6,7.6c26.4,4.4,47.2,16.8,53.6,21.1c-40.9,20-91.7,45.3-92.5,45.6c0,0,0,0-0.1,0c-0.1,0-0.1,0-0.2,0.1
		l-66.2,40.5c-10,5.9-19.8,11.4-28.3,15.8c-13.5,6-38.8,16-64.9,20.6c-20.2,2.7-43.4,2.5-66.2-5.2c-24.7-9.2-39.4-23.7-39.6-23.9
		c-0.3-0.3-0.6-0.5-1-0.6c-16.8-17.4-26.7-42.5-28.7-73.8c-2.7-40.5,8.1-87.8,31.1-136.8c2.5-5.3,5-10.4,7.5-15.4
		c0.4-0.2,32.2-17.8,102.2,2.4c1.2,0.4,2.4,0.8,3.6,1.2c41,14.3,66.4,33.6,84.9,60.6l-13.1,30.1c-0.4,0.3-0.8,0.7-1,1.3l-17.5,41.3
		l0,0l0,0l0,0c-0.1,0.2-0.1,0.4-0.2,0.5c0,0.1,0,0.1,0,0.2c0,0.1,0,0.3,0,0.4C1103.9,1269,1103.9,1269.1,1103.9,1269.2z
		 M1261.5,1133.1l8.9-98.3l16-33.5c0.1-0.2,0.2-0.3,0.3-0.5l20.9-43.9c9.5,4.8,21.2,9.4,32.2,10.8c-0.9,1-2.2,2.3-4.3,4
		c-4.7,4-24.8,48.7-62.6,135.2C1268.6,1116.8,1264.8,1125.6,1261.5,1133.1z M1363.7,963.4c1.3-0.7,2.5-1.5,3.7-2.4
		c-1.5,4.9-2.7,7.9-3.6,9.7C1363.7,968.8,1363.6,966.3,1363.7,963.4z M1237.8,907.2c7.8,6.8,18.3,11.4,29.6,11.4
		c6,0,12.3-1.3,18.5-4.2c5.2-2.5,9.6-5.3,13.1-8.4c6.4-5.7,7.3-15.5,2.1-22.3c-4.3-5.5-5.7-12.4-3.8-18.8c1.4-5,4.7-9,8.4-10.4
		c3.4-1.3,6.7-1.3,9.2-0.1c2.1,1,3.7,2.9,4.6,5.5c1.4,4.3,4.4,7.6,8.5,9.2c3.6,1.4,7.6,1.4,10.5-0.2c16.6-8.8,30.8-20.8,41-33.9
		c3.1,10.4,7.1,27.1,8.1,46.5c0.2,4.4,5.7,7,12.1,9.9c2.9,1.3,9.7,4.5,10,6.1c0,0,0,0.1-0.1,0.3c-3,4.8-9.3,8.6-14.4,11.6
		c-4.9,2.9-8.2,4.9-8.8,7.8c-0.9,4-2,7.8-3.3,11.4l-24,3.9c-1.6,0.3-2.7,1.8-2.5,3.4c0.2,1.5,1.5,2.5,3,2.5c0.2,0,0.3,0,0.5,0
		l20.3-3.3c-7.3,15.8-18.8,25.8-31.5,26.8c-17.9,1.4-41.9-11.8-52.5-18.4l-5.6-3.6c-0.1-0.1-0.3-0.2-0.4-0.2c0,0-0.1,0-0.1,0
		c-0.1-0.1-0.3-0.1-0.4-0.1c-0.1,0-0.1,0-0.2,0c-0.1,0-0.2,0-0.4,0c-0.1,0-0.1,0-0.2,0c-0.1,0-0.3,0-0.4,0c0,0-0.1,0-0.1,0
		c-0.2,0-0.3,0.1-0.5,0.1c0,0-0.1,0-0.1,0.1c-0.1,0.1-0.2,0.1-0.4,0.2c-0.1,0-0.1,0.1-0.2,0.1c0,0-0.1,0.1-0.1,0.1
		c-0.1,0-0.1,0.1-0.1,0.1c0,0-0.1,0.1-0.1,0.1c-0.1,0.1-0.2,0.3-0.3,0.4c0,0,0,0,0,0c0,0,0,0,0,0c-0.1,0.1-0.2,0.3-0.3,0.5
		c0,0.1,0,0.1-0.1,0.2c0,0.1-0.1,0.2-0.1,0.3c0,0.1,0,0.1,0,0.2c0,0.1,0,0.3,0,0.4c0,0,0,0.1,0,0.1c0,0.2,0,0.4,0,0.5
		c0,0,0,0.1,0,0.1c0,0.1,0,0.2,0.1,0.3c0.1,0.2,7.4,23.8-4.5,54l-16.2,33.8c-2,0.2-6.2,0.3-12-0.8c-7.7-1.5-19.9-5.5-34.2-16.4
		c-24.7-18.7-30.2-55.2-31.2-62.9L1237.8,907.2z M1052.4,993.2c0.2-0.1,0.4-0.3,0.6-0.4c24.5-13.2,46.6-21.8,64.4-27.3
		c33.1-10.3,57.2-12.1,65-12.4c1.3,10.4,7.6,46.3,33.4,65.8c21.2,16.1,38.3,18.5,46.8,18.5c0.3,0,0.6,0,0.8,0l-62.1,194.2
		c-6.6-0.8-13.3-1.5-19.9-2.3l0,0l0,0c-22.4-2.5-43.3-4.6-51.4-5.4l4-9.2c1,0.1,2.6,0.1,4.6,0.1c1.7,0,3.6-0.1,5.7-0.2
		c8.6-0.7,14.6-3.1,17.9-7.1c1-1.2,1.6-2.6,2-4.2c0.1-0.2,0.3-0.4,0.3-0.7l42.2-116.1c0.6-1.6-0.2-3.3-1.8-3.8
		c-1.6-0.6-3.3,0.2-3.8,1.8l-38.9,107.2c-5.3-10.6-22.8-30.3-79.8-52.9c-74.5-29.5-116.8-21.6-132.7-16.2
		c25.6-49.3,50.2-80.5,67.2-98.8C1037.8,1001.2,1052.2,993.2,1052.4,993.2z M804.4,1506C804.4,1506,804.4,1506,804.4,1506
		c-0.7,0.6-15.1,12.2-24.5,24.3c-0.2-92.1,17.1-184.7,50-268.3c32.9-83.4,79.9-154.9,136.1-206.8c17.5-16.1,34.8-29.6,51.6-41
		c-1.6,1.7-3.3,3.4-5,5.2c-20,21.3-50.1,60.2-80.3,124.3c-43.3,92.1-42.4,177.1,0.4,219c2.7,3.6,10.7,13.2,24.3,22.9
		c8,5.7,18.7,11.9,32.2,16.5c-3.8,1.5-7.9,3.1-12.2,4.9c-29.2,12.2-75.3,33.9-129.6,68.1c-18.4,11.6-32.3,22-42.8,30.8
		C804.5,1506,804.4,1506,804.4,1506z M1605,1517.4c-25.2,14.1-48.9,17.4-54.2,18l-98.7-73.8l4.4-4.3c2-1.9,3.1-4.6,3-7.4
		c-0.1-2.8-1.3-5.4-3.4-7.2l-19.7-16.8c-0.8-0.7-1.3-1.7-1.3-2.8s0.4-2.1,1.1-2.9c1.9-1.9,3-4.6,2.9-7.4c-0.1-2.7-1.4-5.3-3.5-7.1
		l-29.6-24.8c-3.9-3.2-9.5-3-13.1,0.5l-22.7,21.9c-0.6,0.5-29.8,28.4-98.6,93.3c-8.4,7.9-16.9,15.7-25.1,23
		c-25.8,22.8-54.9,41.3-86.5,55c-31.6,13.7-65,22.3-99.3,25.7c-123.3,11.9-177.1-1.1-200.5-14.1c-16.8-9.4-29.5-28.8-38-46
		c-3.4-7.8-8.6-20.4-12.3-31c9.9-8.2,23.2-18.1,40.7-29.2c63.6-40.1,116.6-63.3,148-75.3c9.8,2.5,20.7,4.1,32.8,4.1
		c0.7,0,1.4,0,2.1,0c28.4-0.4,65.9-16.5,111.5-47.7c31.9-21.8,56.7-43.8,59.6-46.4c7.3-3.6,117-58,139-68.1
		c40.9-18.7,78-13.7,107.2,14.4c28.2,27.2,136.2,143.3,201.6,213.9C1647.7,1481.2,1629.6,1503.6,1605,1517.4z M1693,1539.3
		c-3.8,2.3-9,4.6-16.3,6.8c-2.6,0.8-5.1,1.4-7.5,1.9c-0.1,0-0.1,0-0.2,0c-19.9,1.7-29.8-1.6-33.3-3.2c-0.7-0.4-1.3-0.7-1.5-0.8
		l-15.2-15.5c10.3-6.2,20-16.5,28.8-30.8c4.5-7.2,7.6-13.6,9.4-17.5c23.2,25,40.2,43.5,45.1,48.8
		C1701,1531.3,1698.1,1535.4,1693,1539.3z M1750.7,1469.7c0.3,0,0.7,0,1,0.1c4.1,0.6,4.4,2.6,4.5,3.4c1.5,9.3-17.4,33.3-44,48
		C1722.2,1498.3,1738.7,1469.7,1750.7,1469.7z M1718,1525.7c2.9-2.3,5.9-4.5,9-6.7c0.4-0.3,0.7-0.5,1.1-0.8
		c17-12,35.6-21.8,41.2-16.9c1.1,1,1.9,2.2,0.6,4.8C1765.3,1514.9,1740.4,1527.7,1718,1525.7z"/>
	<path fill="#FECE2F" d="M1678,1587c8.6-8.6,16.4-16.4,23.3-23.3c2-1.9,2-5.1,0-7.1c-1.9-2-5.1-2-7.1,0c-8.8,8.8-19.1,19-30.4,30.4
		H1678z"/>
	<path fill="#FECE2F" d="M1696.1,1587h14.1c1.9-2,3.8-3.9,5.7-5.9c5.8-6.1,11.3-11.8,17.4-17.3c2-1.9,2.2-5,0.4-7.1
		c-1.9-2-5-2.2-7.1-0.4c-6.3,5.7-12.2,11.9-17.9,17.8C1704.6,1578.5,1700.5,1582.8,1696.1,1587z"/>
</g>
<path fill="#FFFFFF" d="M1024,489.2c-0.6-1.2-1.8-1.9-3-1.9h-51.5c-1.2,0-2.2,0.6-2.9,1.6L751.1,831.2c-1,1.5-0.6,3.5,0.9,4.6
	c0.6,0.4,1.3,0.6,1.9,0.6c1,0,2-0.5,2.7-1.3l267-342.3C1024.5,491.7,1024.6,490.4,1024,489.2z"/>
<path fill="#FFFFFF" d="M478.3,1295.3c-1.3-0.9-3-0.7-4,0.5l-147.4,176.5c-0.7,0.9-0.9,2.1-0.4,3.2c0.5,1.1,1.5,1.7,2.7,1.7
	l40.4,0.3c0,0,0,0,0,0c1,0,2-0.5,2.6-1.4l107-176.8C479.9,1297.9,479.6,1296.2,478.3,1295.3z"/>
<path fill="#FFFFFF" d="M902.8,545.3c-0.6-1.1-1.7-1.7-3-1.7h-23.7c-1.3,0-2.4,0.7-3,1.8l-41.6,79.3c-0.5,1-0.5,2.2,0,3.2
	s1.6,1.7,2.7,1.7l17.2,1.4c0.1,0,0.2,0,0.3,0c1.2,0,2.3-0.6,2.9-1.7l48.2-80.7C903.4,547.6,903.4,546.3,902.8,545.3z"/>
<g>
	<path fill="#1A1A1A" d="M1126.1,375.8h-921c-1.9,0-3.4,1.5-3.4,3.4v27c0,31.4,25.5,56.9,56.9,56.9h813.8
		c31.4,0,56.9-25.5,56.9-56.9v-27C1129.5,377.3,1127.9,375.8,1126.1,375.8z"/>
	<g>
		<g>
			<path fill="#FECE2F" d="M593.4,470.4c-1.4,0-2.6-1-2.9-2.4c-0.8-3.8-0.2-7.1,1.8-9.9c5.8-8.2,22.3-10.4,47.2-13.7
				c26.5-3.5,62.7-8.3,98.2-23.3c33.3-14.2,69.6-18.3,101.5-22c37.7-4.3,67.4-7.8,76-25.4c0.7-1.5,2.5-2.1,4-1.4
				c1.5,0.7,2.1,2.5,1.4,4c-10,20.6-41.2,24.2-80.7,28.8c-31.5,3.6-67.3,7.8-99.8,21.6c-36.2,15.4-72.9,20.2-99.7,23.8
				c-21.7,2.9-38.8,5.1-43.1,11.2c-1,1.4-1.3,3.1-0.8,5.2c0.3,1.6-0.7,3.2-2.3,3.6C593.8,470.3,593.6,470.4,593.4,470.4z"/>
		</g>
		<g>
			<path fill="#FECE2F" d="M539.6,469.7c-1.3,0-2.5-0.8-2.9-2.2c-14.8-50.5-180.2-55.5-330-43.4c-1.7,0.1-3.1-1.1-3.2-2.7
				c-0.1-1.7,1.1-3.1,2.7-3.2c31-2.5,111.1-7.9,184.6-4.1c92,4.8,143,22.2,151.7,51.8c0.5,1.6-0.4,3.3-2,3.7
				C540.2,469.7,539.9,469.7,539.6,469.7z"/>
		</g>
		<g>
			<path fill="#FECE2F" d="M619.4,416.4c-7.9,0-15.9-0.2-24.3-0.6c-46-2.3-132.3-10-193.5-36.6c-1.5-0.7-2.2-2.4-1.6-3.9
				c0.7-1.5,2.4-2.2,3.9-1.6c60.4,26.2,145.9,33.8,191.5,36.1c93.3,4.6,158-18.2,195.9-38.2c1.5-0.8,3.3-0.2,4.1,1.3
				c0.8,1.5,0.2,3.3-1.3,4.1C758.9,395.5,701.1,416.4,619.4,416.4z"/>
		</g>
		<g>
			<path fill="#FECE2F" d="M738.6,470.3c-0.5,0-1-0.1-1.4-0.4c-1.5-0.8-2-2.6-1.2-4.1c9.8-18.4,28.6-28.7,55.9-30.8
				C868.3,429.4,893,423.8,957,398c31.3-12.7,61.5-15.3,92.3-8.2c27,6.3,51,19.1,74.1,31.5l3,1.6c1.5,0.8,2,2.6,1.2,4.1
				c-0.8,1.5-2.6,2-4.1,1.2l-3-1.6c-46.2-24.7-93.9-50.3-161.4-23c-64.7,26.1-89.7,31.7-166.9,37.5c-25.2,1.9-42.3,11.2-51.1,27.6
				C740.7,469.7,739.7,470.3,738.6,470.3z"/>
		</g>
		<g>
			<path fill="#FECE2F" d="M1013.5,449c-27.3,0-55-6-55-17.5s27.7-17.5,55-17.5c27.3,0,55,6,55,17.5S1040.8,449,1013.5,449z
				 M1013.5,420c-31.7,0-49,7.6-49,11.5s17.3,11.5,49,11.5c31.7,0,49-7.6,49-11.5S1045.2,420,1013.5,420z"/>
		</g>
	</g>
</g>
</svg>
