<svg xmlns="http://www.w3.org/2000/svg" width="300" height="300" fill="#000" viewBox="0 0 26 26"><path d="M 2 2 C 0.894531 2 0 2.894531 0 4 C 0 4.738281 1.15625 6.058594 1.15625 7 C 1.15625 7.941406 0 10.921875 0 13 C 0 15.078125 1.15625 17.992188 1.15625 19 C 1.15625 20.007813 0 21.261719 0 22 C 0 23.105469 0.894531 24 2 24 C 2.738281 24 5.125 22.875 6.5 22.875 C 7.875 22.875 8.394531 24 9.5 24 C 10.605469 24 11.632813 22.875 13 22.875 C 14.367188 22.875 14.894531 24 16 24 C 17.105469 24 18.5625 22.875 19.5 22.875 C 20.4375 22.875 23.261719 24 24 24 C 25.105469 24 26 23.105469 26 22 C 26 21.261719 24.84375 19.941406 24.84375 19 C 24.84375 18.058594 26 14.949219 26 13 C 26 11.050781 24.84375 8.007813 24.84375 7 C 24.84375 5.992188 26 4.738281 26 4 C 26 2.894531 25.105469 2 24 2 C 23.261719 2 20.875 3.15625 19.5 3.15625 C 18.125 3.15625 17.605469 2 16.5 2 C 15.394531 2 14.367188 3.15625 13 3.15625 C 11.632813 3.15625 11.105469 2 10 2 C 8.894531 2 7.4375 3.15625 6.5 3.15625 C 5.5625 3.15625 2.738281 2 2 2 Z M 4 5 L 22 5 C 22.550781 5 23 5.449219 23 6 L 23 20 C 23 20.550781 22.550781 21 22 21 L 4 21 C 3.449219 21 3 20.550781 3 20 L 3 6 C 3 5.449219 3.449219 5 4 5 Z M 12 7 C 11.445313 7 11 7.449219 11 8 L 11 11 L 8 11 C 7.445313 11 7 11.449219 7 12 L 7 14 C 7 14.554688 7.445313 15 8 15 L 11 15 L 11 18 C 11 18.554688 11.445313 19 12 19 L 14 19 C 14.554688 19 15 18.554688 15 18 L 15 15 L 18 15 C 18.554688 15 19 14.554688 19 14 L 19 12 C 19 11.449219 18.554688 11 18 11 L 15 11 L 15 8 C 15 7.449219 14.554688 7 14 7 Z"/></svg>