<?xml version="1.0"?><svg fill="#000000" xmlns="http://www.w3.org/2000/svg" viewBox="0 0 24 24" width="300px" height="300px">    <path d="M 4 2 L 4 7 L 20 7 L 20 2 L 4 2 z M 4 9 L 4 15 L 15.685547 15 C 16.635547 14.369 17.774 14 19 14 C 19.341 14 19.674 14.034844 20 14.089844 L 20 9 L 4 9 z M 18 16 L 18 19 L 15 19 L 15 21 L 18 21 L 18 24 L 20 24 L 20 21 L 23 21 L 23 19 L 20 19 L 20 16 L 18 16 z M 4 17 L 4 22 L 13.349609 22 C 13.127609 21.374 13 20.702 13 20 C 13 18.906 13.297594 17.883 13.808594 17 L 4 17 z"/></svg>