<svg xmlns="http://www.w3.org/2000/svg" width="500" height="500" fill="#000" viewBox="0 0 26 26"><path d="M 3 0 C 1.34375 0 0 1.34375 0 3 L 0 19 C 0 20.65625 1.34375 22 3 22 L 12.46875 22 C 12.300781 21.359375 12.1875 20.691406 12.1875 20 L 3 20 C 2.449219 20 2 19.550781 2 19 L 2 6 C 2 5.449219 2.449219 5 3 5 L 22 5 C 22.550781 5 23 5.449219 23 6 L 23 12.78125 C 23.730469 13.085938 24.402344 13.503906 25 14 L 25 6 C 25 4.34375 23.65625 3 22 3 L 11 3 C 11 1.34375 9.65625 0 8 0 Z M 20 14.1875 C 16.789063 14.1875 14.1875 16.789063 14.1875 20 C 14.1875 23.210938 16.789063 25.8125 20 25.8125 C 23.210938 25.8125 25.8125 23.210938 25.8125 20 C 25.8125 16.789063 23.210938 14.1875 20 14.1875 Z M 19 17 L 21 17 L 21 19 L 23 19 L 23 21 L 21 21 L 21 23 L 19 23 L 19 21 L 17 21 L 17 19 L 19 19 Z"/></svg>