<svg xmlns="http://www.w3.org/2000/svg" width="500" height="500" fill="#000" viewBox="0 0 50 50"><path d="M 24.103516 2 C 21.115687 2 18.512788 2.6079138 16.271484 3.578125 A 1.0003209 1.0003209 0 1 0 17.066406 5.4140625 C 19.071102 4.5462737 21.385344 4 24.103516 4 C 28.101694 4 31.397162 4.9167913 34.142578 6.3457031 A 1.0006835 1.0006835 0 0 0 35.066406 4.5703125 C 32.047822 2.9992244 28.409337 2 24.103516 2 z M 13.347656 5.3261719 A 1.0001 1.0001 0 0 0 12.818359 5.5136719 C 10.01399 7.4723209 7.9702464 9.9140881 6.4589844 11.974609 C 5.7033533 13.00487 5.0788805 13.942456 4.5722656 14.667969 C 4.0656508 15.393482 3.6255999 15.916171 3.4980469 16.015625 A 1.0001 1.0001 0 1 0 4.7265625 17.59375 C 5.2890094 17.155204 5.685193 16.568206 6.2128906 15.8125 C 6.7405883 15.056794 7.3486467 14.142864 8.0722656 13.15625 C 9.5195036 11.183022 11.42526 8.9266478 13.962891 7.1542969 A 1.0001 1.0001 0 0 0 13.447266 5.3261719 A 1.0001 1.0001 0 0 0 13.347656 5.3261719 z M 25.0625 7 A 1.0001 1.0001 0 0 0 25.044922 8.9980469 C 31.802884 9.3928203 35.911068 12.04945 38.505859 15.638672 C 41.100651 19.227894 42.140366 23.837232 42.345703 28.048828 A 1.0002161 1.0002161 0 0 0 44.34375 27.951172 C 44.126089 23.486772 43.045662 18.504075 40.126953 14.466797 C 37.208244 10.429519 32.407147 7.4251797 25.162109 7.0019531 A 1.0001 1.0001 0 0 0 25.0625 7 z M 38.507812 7.0527344 A 1.0001 1.0001 0 0 0 37.933594 8.8847656 C 45.753348 14.284745 47.003906 26.488281 47.003906 26.488281 A 1.0003149 1.0003149 0 1 0 48.996094 26.304688 C 48.996094 26.304688 47.936605 13.362302 39.068359 7.2382812 A 1.0001 1.0001 0 0 0 38.507812 7.0527344 z M 21.009766 7.375 A 1.0001 1.0001 0 0 0 20.841797 7.3964844 C 13.931303 8.7684444 10.597769 13.544472 8.0097656 17.572266 A 1.0006597 1.0006597 0 1 0 9.6933594 18.654297 C 12.253356 14.67009 15.054963 10.583462 21.230469 9.3574219 A 1.0001 1.0001 0 0 0 21.009766 7.375 z M 25.103516 12 C 21.627233 12 18.958311 13.120788 16.904297 14.787109 A 1.0001 1.0001 0 1 0 18.164062 16.339844 C 19.914049 14.920165 22.043798 14 25.103516 14 C 25.986778 14 26.830365 14.07537 27.634766 14.21875 A 1.0001 1.0001 0 1 0 27.986328 12.25 C 27.062728 12.085377 26.100253 12 25.103516 12 z M 31.474609 13.453125 A 1.0001 1.0001 0 0 0 31.046875 15.351562 C 34.527486 17.126841 36.917616 20.54692 37.769531 25.181641 C 37.882459 25.795628 37.967052 26.430342 38.023438 27.085938 A 1.0001 1.0001 0 1 0 40.015625 26.914062 C 39.954005 26.197658 39.8614 25.498372 39.736328 24.818359 C 38.794243 19.69308 36.038467 15.651082 31.955078 13.568359 A 1.0001 1.0001 0 0 0 31.474609 13.453125 z M 25.103516 17 C 22.499698 17 20.478847 17.82382 18.951172 19.111328 C 17.423497 20.398836 16.377586 22.093809 15.449219 23.837891 A 1.0001 1.0001 0 1 0 17.212891 24.777344 C 18.097523 23.115426 19.035909 21.655617 20.240234 20.640625 C 21.444559 19.625633 22.902334 19 25.103516 19 C 29.111416 19 33 22.41019 33 29 A 1.0001 1.0001 0 1 0 35 29 C 35 21.58981 30.273615 17 25.103516 17 z M 14.748047 17.576172 A 1.0001 1.0001 0 0 0 13.914062 17.994141 C 11.91913 20.693106 10.493876 23.70348 8.8378906 25.853516 C 7.1819051 28.003551 5.5178411 29.272557 2.5957031 29.003906 A 1.0003149 1.0003149 0 0 0 2.4121094 30.996094 C 6.0379714 31.329443 8.5651106 29.484934 10.421875 27.074219 C 12.278639 24.663504 13.68737 21.665676 15.523438 19.181641 A 1.0001 1.0001 0 0 0 14.748047 17.576172 z M 6.6894531 20.394531 A 1.0001 1.0001 0 0 0 5.8574219 20.814453 C 4.6850156 22.413102 3.5156888 23.558152 2.0703125 24.054688 A 1.0001 1.0001 0 1 0 2.7207031 25.945312 C 4.7393268 25.251849 6.1951094 23.735445 7.4707031 21.996094 A 1.0001 1.0001 0 0 0 6.6894531 20.394531 z M 23.523438 21.375 A 1.0001 1.0001 0 0 0 23.076172 21.501953 C 21.332988 22.447163 20.51444 24.354104 19.839844 26.257812 C 19.165247 28.161521 18.640864 30.173 17.960938 31.482422 C 15.999507 35.260934 12.238628 39 7.1035156 39 A 1.0001 1.0001 0 1 0 7.1035156 41 C 13.200404 41 17.539758 36.635785 19.736328 32.404297 C 20.593402 30.753719 21.094456 28.704072 21.724609 26.925781 C 22.354763 25.14749 23.12048 23.752555 24.029297 23.259766 A 1.0001 1.0001 0 0 0 23.523438 21.375 z M 27.087891 21.558594 A 1.0001 1.0001 0 0 0 26.525391 23.394531 C 27.512278 24.064741 28.103516 25.851917 28.103516 28.130859 C 28.103516 29.638262 27.552507 33.186458 26.126953 36.851562 C 24.701399 40.516667 22.409118 44.335706 19.048828 46.734375 A 1.0001 1.0001 0 1 0 20.210938 48.361328 C 24.031647 45.633998 26.475991 41.474317 27.992188 37.576172 C 29.508382 33.678027 30.103516 30.080457 30.103516 28.130859 C 30.103516 25.539802 29.555504 23.034025 27.650391 21.740234 A 1.0001 1.0001 0 0 0 27.087891 21.558594 z M 25.056641 25.986328 A 1.0001 1.0001 0 0 0 24.105469 26.933594 C 24.105469 26.933594 23.883599 30.227823 22.160156 34.097656 A 1.0001 1.0001 0 1 0 23.986328 34.912109 C 25.856886 30.711943 26.101562 27.066406 26.101562 27.066406 A 1.0001 1.0001 0 0 0 25.056641 25.986328 z M 14.412109 27.005859 A 1.0001 1.0001 0 0 0 13.546875 27.544922 C 12.581342 29.342442 11.519814 30.960799 10.078125 32.111328 C 8.6364363 33.261857 6.8121155 34 4.0742188 34 A 1.0001 1.0001 0 1 0 4.0742188 36 C 7.1873219 36 9.5493604 35.091799 11.326172 33.673828 C 13.102983 32.255857 14.293127 30.382667 15.308594 28.492188 A 1.0001 1.0001 0 0 0 14.412109 27.005859 z M 40 30 C 34.5 30 30 34.5 30 40 C 30 45.5 34.5 50 40 50 C 45.5 50 50 45.5 50 40 C 50 34.5 45.5 30 40 30 z M 40 34 C 40.552 34 41 34.448 41 35 L 41 39 L 45 39 C 45.552 39 46 39.448 46 40 C 46 40.552 45.552 41 45 41 L 41 41 L 41 45 C 41 45.552 40.552 46 40 46 C 39.448 46 39 45.552 39 45 L 39 41 L 35 41 C 34.448 41 34 40.552 34 40 C 34 39.448 34.448 39 35 39 L 39 39 L 39 35 C 39 34.448 39.448 34 40 34 z M 21.255859 36.78125 A 1.0001 1.0001 0 0 0 20.443359 37.242188 C 18.715253 39.861513 16.20624 42.36394 12.498047 43.984375 A 1.0001 1.0001 0 1 0 13.298828 45.816406 C 17.398635 44.024841 20.215388 41.218471 22.113281 38.341797 A 1.0001 1.0001 0 0 0 21.255859 36.78125 z"/></svg>