<svg fill="#000000" xmlns="http://www.w3.org/2000/svg" viewBox="0 0 50 50" width="50px" height="50px"><path d="M 7 2 L 7 48 L 31.074219 48 C 30.523219 47.386 30.033187 46.718 29.617188 46 L 9 46 L 9 4 L 29 4 L 29 16 L 41 16 L 41 28.050781 C 41.686 28.107781 42.352 28.225578 43 28.392578 L 43 14.585938 L 30.414062 2 L 7 2 z M 31 5.4140625 L 39.585938 14 L 31 14 L 31 5.4140625 z M 36 23 C 34.895 23 34 23.895 34 25 C 34 25.256 34.052625 25.498656 34.140625 25.722656 L 28.294922 33.029297 C 28.197922 33.015297 28.101 33 28 33 C 27.862 33 27.727656 33.014016 27.597656 33.041016 L 21.890625 26.623047 C 21.955625 26.425047 22 26.219 22 26 C 22 24.895 21.105 24 20 24 C 18.895 24 18 24.895 18 26 C 18 26.178 18.031219 26.346719 18.074219 26.511719 L 14.511719 30.074219 C 14.347719 30.030219 14.178 30 14 30 C 12.895 30 12 30.895 12 32 C 12 33.105 12.895 34 14 34 C 15.105 34 16 33.105 16 32 C 16 31.822 15.968781 31.653281 15.925781 31.488281 L 19.488281 27.925781 C 19.652281 27.969781 19.822 28 20 28 C 20.138 28 20.272344 27.985984 20.402344 27.958984 L 26.107422 34.378906 C 26.043422 34.575906 26 34.781 26 35 C 26 36.105 26.895 37 28 37 C 28.138 37 28.273297 36.985984 28.404297 36.958984 C 29.138297 34.153984 30.850969 31.749625 33.167969 30.140625 L 35.705078 26.970703 C 35.802078 26.985703 35.899 27 36 27 C 37.105 27 38 26.105 38 25 C 38 23.895 37.105 23 36 23 z M 40 30 C 34.5 30 30 34.5 30 40 C 30 45.5 34.5 50 40 50 C 45.5 50 50 45.5 50 40 C 50 34.5 45.5 30 40 30 z M 40 32 C 44.4 32 48 35.6 48 40 C 48 44.4 44.4 48 40 48 C 35.6 48 32 44.4 32 40 C 32 35.6 35.6 32 40 32 z M 40 34.099609 C 39.4 34.099609 39 34.499609 39 35.099609 L 39 39 L 35.099609 39 C 34.499609 39 34.099609 39.4 34.099609 40 C 34.099609 40.6 34.499609 41 35.099609 41 L 39 41 L 39 44.900391 C 39 45.500391 39.4 45.900391 40 45.900391 C 40.6 45.900391 41 45.500391 41 44.900391 L 41 41 L 44.900391 41 C 45.500391 41 45.900391 40.6 45.900391 40 C 45.900391 39.4 45.500391 39 44.900391 39 L 41 39 L 41 35.099609 C 41 34.499609 40.6 34.099609 40 34.099609 z"/></svg>