<svg xmlns="http://www.w3.org/2000/svg" width="500" height="500" viewBox="0 0 64 64"><linearGradient id="SwOQiWgCV38nsuRasaYLqa" x1="-953" x2="-953" y1="7" y2="17" gradientTransform="matrix(-.5 0 0 1 -430.5 0)" gradientUnits="userSpaceOnUse" spreadMethod="reflect"><stop offset="0" stop-color="#6dc7ff"/><stop offset="1" stop-color="#e6abff"/></linearGradient><path fill="url(#SwOQiWgCV38nsuRasaYLqa)" d="M41,7v9c0,0.552,0.448,1,1,1h9L41,7z"/><linearGradient id="SwOQiWgCV38nsuRasaYLqb" x1="51" x2="51" y1="6" y2="63.126" gradientUnits="userSpaceOnUse" spreadMethod="reflect"><stop offset="0" stop-color="#1a6dff"/><stop offset="1" stop-color="#c822ff"/></linearGradient><path fill="url(#SwOQiWgCV38nsuRasaYLqb)" d="M56,50h-4v-4c0-0.552-0.448-1-1-1s-1,0.448-1,1v4h-4c-0.552,0-1,0.448-1,1s0.448,1,1,1h4v4 c0,0.552,0.448,1,1,1s1-0.448,1-1v-4h4c0.552,0,1-0.448,1-1S56.552,50,56,50z"/><linearGradient id="SwOQiWgCV38nsuRasaYLqc" x1="32" x2="32" y1="-443" y2="-498.012" gradientTransform="matrix(1 0 0 -1 0 -438)" gradientUnits="userSpaceOnUse" spreadMethod="reflect"><stop offset="0" stop-color="#1a6dff"/><stop offset="1" stop-color="#c822ff"/></linearGradient><path fill="url(#SwOQiWgCV38nsuRasaYLqc)" d="M51.12,15.71l-8.83-8.83C41.73,6.31,40.97,6,40.17,6H15c-1.65,0-3,1.35-3,3v46 c0,1.65,1.35,3,3,3h22.74c-0.34-0.64-0.64-1.31-0.88-2H15c-0.55,0-1-0.45-1-1v-1.19c0.31,0.12,0.65,0.19,1,0.19h21.3 c-0.13-0.65-0.22-1.32-0.26-2H15c-0.55,0-1-0.45-1-1V9c0-0.55,0.45-1,1-1h25v7c0,1.65,1.35,3,3,3h7v18.04 c0.33-0.03,0.66-0.04,1-0.04s0.67,0.01,1,0.04V17.83C52,17.03,51.69,16.27,51.12,15.71z M43,16c-0.55,0-1-0.45-1-1V9.41L48.59,16H43 z"/><linearGradient id="SwOQiWgCV38nsuRasaYLqd" x1="51" x2="51" y1="6" y2="63.752" gradientUnits="userSpaceOnUse" spreadMethod="reflect"><stop offset="0" stop-color="#1a6dff"/><stop offset="1" stop-color="#c822ff"/></linearGradient><path fill="url(#SwOQiWgCV38nsuRasaYLqd)" d="M51,64c-7.168,0-13-5.832-13-13s5.832-13,13-13s13,5.832,13,13S58.168,64,51,64z M51,40 c-6.065,0-11,4.935-11,11s4.935,11,11,11s11-4.935,11-11S57.065,40,51,40z"/></svg>