<svg xmlns="http://www.w3.org/2000/svg" width="100" height="100" fill="#000" viewBox="0 0 24 24"><path d="M 4 2 L 4 22 L 13 22 L 13 17 L 16 17 L 16 14 L 20 14 L 20 8 L 14 2 L 4 2 z M 13 3.5 L 18.5 9 L 13 9 L 13 3.5 z M 14 11.292969 L 15.414062 12.707031 L 10.707031 17.414062 L 8.7070312 15.414062 L 7.4140625 16.707031 L 6 15.292969 L 8.7070312 12.585938 L 10.707031 14.585938 L 14 11.292969 z M 18 16 L 18 19 L 15 19 L 15 21 L 18 21 L 18 24 L 20 24 L 20 21 L 23 21 L 23 19 L 20 19 L 20 16 L 18 16 z"/></svg>