<svg xmlns="http://www.w3.org/2000/svg" width="100" height="100" fill="#000" viewBox="0 0 24 24"><path d="M 4 4 C 2.9 4 2 4.9 2 6 L 2 18 C 2 19.1 2.9 20 4 20 L 12.080078 20 C 12.033078 19.673 12 19.34 12 19 C 12 15.134 15.134 12 19 12 C 20.075 12 21.09 12.250594 22 12.683594 L 22 8 C 22 6.9 21.1 6 20 6 L 12.828125 6 C 12.298125 6 11.789062 5.7890625 11.414062 5.4140625 L 10.585938 4.5859375 C 10.210938 4.2109375 9.701875 4 9.171875 4 L 4 4 z M 19.007812 14.015625 C 17.731188 14.016 16.455016 14.504969 15.478516 15.480469 C 14.502516 16.456469 14.009766 17.729812 14.009766 19.007812 C 14.009766 20.285812 14.502516 21.560156 15.478516 22.535156 C 17.430516 24.487156 20.583156 24.487156 22.535156 22.535156 C 24.487156 20.583156 24.487156 17.428562 22.535156 15.476562 C 21.560156 14.502563 20.284437 14.01525 19.007812 14.015625 z M 19.011719 16.001953 C 19.563719 16.002953 20.011719 16.449953 20.011719 17.001953 L 20.011719 18.001953 L 21.011719 18.001953 C 21.563719 18.001953 22.011719 18.449953 22.011719 19.001953 C 22.011719 19.553953 21.563719 20.001953 21.011719 20.001953 L 20.011719 20.001953 L 20.011719 21.001953 C 20.011719 21.553953 19.563719 22.001953 19.011719 22.001953 C 18.459719 22.001953 18.011719 21.553953 18.011719 21.001953 L 18.011719 20.001953 L 17.011719 20.001953 C 16.459719 20.001953 16.011719 19.553953 16.011719 19.001953 C 16.011719 18.449953 16.459719 18.001953 17.011719 18.001953 L 18.011719 18.001953 L 18.011719 17.001953 C 18.011719 16.449953 18.459719 16.001953 19.011719 16.001953 z"/></svg>