<svg xmlns="http://www.w3.org/2000/svg" width="300" height="300" fill="#000" viewBox="0 0 32 32"><path d="M 5 3 L 5 29 L 17.771484 29 C 19.240982 30.824972 21.488603 32 24 32 C 28.4 32 32 28.4 32 24 C 32 19.939374 28.931363 16.567445 25 16.070312 L 25 15.414062 L 27 13.414062 L 27 3 L 23 3 L 22 3 L 5 3 z M 7 5 L 21 5 L 21 13.414062 L 23 15.414062 L 23 16.070312 C 19.068637 16.567445 16 19.939374 16 24 C 16 25.06037 16.212827 26.071744 16.591797 27 L 7 27 L 7 5 z M 23 5 L 25 5 L 25 12.585938 L 24 13.585938 L 23 12.585938 L 23 5 z M 24 18 C 27.3 18 30 20.7 30 24 C 30 27.3 27.3 30 24 30 C 20.7 30 18 27.3 18 24 C 18 20.7 20.7 18 24 18 z M 23 20 L 23 23 L 20 23 L 20 25 L 23 25 L 23 28 L 25 28 L 25 25 L 28 25 L 28 23 L 25 23 L 25 20 L 23 20 z"/></svg>