<svg xmlns="http://www.w3.org/2000/svg" viewBox="0 0 64 64" width="300px" height="300px"><path fill="#bbdef9" d="M21.24,4.94H50a3,3,0,0,1,3,3v48a3,3,0,0,1-3,3H12a3,3,0,0,1-3-3V17.18a3,3,0,0,1,.88-2.12l9.24-9.24A3,3,0,0,1,21.24,4.94Z"/><path fill="#cce7fc" d="M9 59L8.85 49.54 52.34 6.06 53 29 23 59 9 59zM8.85 39.15L43.06 4.94 48.81 5.19 9 45 8.85 39.15zM8.85 33.15L37 5 40 5 8.85 36.15 8.85 33.15z"/><path fill="#fff" d="M41.5 17L42.74 19.26 45 20.5 42.74 21.74 41.5 24 40.26 21.74 38 20.5 40.26 19.26 41.5 17zM27.42 12L28.27 13.56 29.84 14.42 28.27 15.27 27.42 16.84 26.56 15.27 25 14.42 26.56 13.56 27.42 12zM17.65 41L18.23 42.06 19.3 42.65 18.23 43.23 17.65 44.3 17.07 43.23 16 42.65 17.07 42.06 17.65 41z"/><path fill="#f9e3ae" d="M21 5L21 17 9 17 21 5z"/><path fill="#8d6c9f" d="M51,4H21.66a5,5,0,0,0-3.54,1.46L9.46,14.12A5,5,0,0,0,8,17.66V57a3,3,0,0,0,3,3H51a3,3,0,0,0,3-3V7A3,3,0,0,0,51,4ZM19.54,6.88A3,3,0,0,1,20,6.5V15a1,1,0,0,1-1,1H10.5a3,3,0,0,1,.38-.46ZM52,57a1,1,0,0,1-1,1H11a1,1,0,0,1-1-1V18h9a3,3,0,0,0,3-3V6H51a1,1,0,0,1,1,1Z"/><path fill="#8d6c9f" d="M13 52a1 1 0 0 0-1 1v2a1 1 0 0 0 2 0V53A1 1 0 0 0 13 52zM18 52a1 1 0 0 0-1 1v2a1 1 0 0 0 2 0V53A1 1 0 0 0 18 52zM23 52a1 1 0 0 0-1 1v2a1 1 0 0 0 2 0V53A1 1 0 0 0 23 52zM28 52a1 1 0 0 0-1 1v2a1 1 0 0 0 2 0V53A1 1 0 0 0 28 52zM33 52a1 1 0 0 0-1 1v2a1 1 0 0 0 2 0V53A1 1 0 0 0 33 52zM38 52a1 1 0 0 0-1 1v2a1 1 0 0 0 2 0V53A1 1 0 0 0 38 52zM43 52a1 1 0 0 0-1 1v2a1 1 0 0 0 2 0V53A1 1 0 0 0 43 52zM48 52a1 1 0 0 0-1 1v2a1 1 0 0 0 2 0V53A1 1 0 0 0 48 52zM43 32H32V21a1 1 0 0 0-2 0V32H19a1 1 0 0 0 0 2H30V45a1 1 0 0 0 2 0V34H43a1 1 0 0 0 0-2z"/></svg>