<svg xmlns="http://www.w3.org/2000/svg" width="100" height="100" viewBox="0 0 128 128"><path fill="#fff" d="M64 9A55 55 0 1 0 64 119A55 55 0 1 0 64 9Z"/><path fill="#444b54" d="M64,122C32,122,6,96,6,64S32,6,64,6s58,26,58,58c0,1.7-1.3,3-3,3s-3-1.3-3-3c0-28.7-23.3-52-52-52S12,35.3,12,64s23.3,52,52,52c1.7,0,3,1.3,3,3S65.7,122,64,122z"/><path fill="#1fd4af" d="M102 82A20 20 0 1 0 102 122A20 20 0 1 0 102 82Z" transform="rotate(-45.001 102 102.002)"/><path fill="#fff" d="M109,99h-4v-4c0-1.7-1.3-3-3-3s-3,1.3-3,3v4h-4c-1.7,0-3,1.3-3,3s1.3,3,3,3h4v4c0,1.7,1.3,3,3,3s3-1.3,3-3v-4h4c1.7,0,3-1.3,3-3S110.7,99,109,99z"/><path fill="#444b54" d="M75.1,73.9c0-3.7-1.8-7.1-4.8-9.2L61,58.3c-1.3-1-2.1-2.5-2.1-4.2c0-2.8,2.3-5.1,5.1-5.1c2.1,0,3.9,1.2,4.7,3.1c0.6,1.5,2.4,2.2,3.9,1.6c1.5-0.6,2.2-2.4,1.6-3.9c-1.3-3.2-4-5.5-7.2-6.4V43c0-1.7-1.3-3-3-3s-3,1.3-3,3v0.4c-4.7,1.3-8.1,5.6-8.1,10.7c0,3.6,1.7,6.9,4.7,9l9.3,6.5c1.4,1,2.2,2.5,2.2,4.2c0,2.8-2.3,5.1-5.1,5.1c-2,0-3.9-1.2-4.7-3.1c-0.7-1.5-2.4-2.2-3.9-1.6c-1.5,0.7-2.2,2.4-1.6,3.9c1.4,3.1,4,5.4,7.2,6.3V85c0,1.7,1.3,3,3,3s3-1.3,3-3v-0.4C71.7,83.3,75.1,79,75.1,73.9z"/></svg>