<svg xmlns="http://www.w3.org/2000/svg" width="300" height="300" fill="#000" viewBox="0 0 32 32"><path d="M 3 5 L 3 27 L 14 27 L 14 25 L 5 25 L 5 7 L 27 7 L 27 15 L 29 16 L 29 5 Z M 7 9 L 7 23 L 14 23 L 14.40625 21 L 9 21 L 9 11 L 23 11 L 23 14 L 25 14.3125 L 25 9 Z M 24 16 C 19.59375 16 16 19.59375 16 24 C 16 28.40625 19.59375 32 24 32 C 28.40625 32 32 28.40625 32 24 C 32 19.59375 28.40625 16 24 16 Z M 24 18 C 27.324219 18 30 20.675781 30 24 C 30 27.324219 27.324219 30 24 30 C 20.675781 30 18 27.324219 18 24 C 18 20.675781 20.675781 18 24 18 Z M 23 20 L 23 23 L 20 23 L 20 25 L 23 25 L 23 28 L 25 28 L 25 25 L 28 25 L 28 23 L 25 23 L 25 20 Z"/></svg>