<svg xmlns="http://www.w3.org/2000/svg" width="100" height="100" viewBox="0 0 80 80"><path fill="#f5ce85" d="M2.6,71.7l2.9-9.5l23.4-23.4L28.1,38c-0.9-0.9-1.4-2.2-1.4-3.5s0.5-2.6,1.4-3.5l1.8-1.8l0-0.2 c-0.1-0.9-0.1-1.8-0.1-2.6c0-13.2,10.7-23.9,23.9-23.9c0.2,0,0.5,0,0.7,0c12.5,0.3,22.9,10.8,23.2,23.2c0.2,6.5-2.2,12.7-6.8,17.4 c-4.5,4.7-10.6,7.2-17.2,7.2c-0.8,0-1.7,0-2.6-0.1l-0.2,0L49,51.9c-0.9,0.9-2.2,1.4-3.5,1.4c-1.3,0-2.6-0.5-3.5-1.4l-0.8-0.8 l-4.4,4.4h-7.3v7.3l-2.7,2.7h-7.3v7.3l-1.7,1.7l-9.5,2.9L2.6,71.7z M53.9,11.5c-3.9,0-7.5,1.5-10.3,4.3l-0.4,0.4l20.6,20.6 l0.4-0.4c5.7-5.7,5.7-14.9,0-20.6C61.5,13,57.8,11.5,53.9,11.5z"/><path fill="#967a44" d="M53.6,3c0.2,0,0.4,0,0.7,0C66.4,3.3,76.7,13.6,77,25.8c0.2,6.4-2.2,12.4-6.6,17 c-4.4,4.6-10.4,7.1-16.8,7.1c-0.8,0-1.6,0-2.5-0.1l-0.5-0.1L50.2,50l-1.6,1.6c-0.8,0.8-1.9,1.3-3.1,1.3c-1.2,0-2.3-0.5-3.1-1.3 l-0.5-0.5l-0.7-0.7l-0.7,0.7L36.6,55H30h-1v1v6.6L26.6,65H20h-1v1v6.6l-1.5,1.5l-9.1,2.8l-5.3-5.3l2.8-9.1l22.9-22.9l0.7-0.7 l-0.7-0.7l-0.5-0.5c-0.8-0.8-1.3-1.9-1.3-3.1s0.5-2.3,1.3-3.1l1.6-1.6l0.3-0.3L30.3,29c-0.1-0.9-0.1-1.7-0.1-2.5 C30.1,13.5,40.7,3,53.6,3 M63.9,37.4l0.7-0.7c2.8-2.8,4.4-6.6,4.4-10.6s-1.6-7.8-4.4-10.6C61.7,12.6,58,11,53.9,11 s-7.8,1.6-10.6,4.4l-0.7,0.7l0.7,0.7l19.9,19.9L63.9,37.4 M53.6,2C40.1,2,29.1,12.9,29.1,26.4c0,0.9,0.1,1.8,0.1,2.6l-1.6,1.6 c-2.1,2.1-2.1,5.6,0,7.7l0.5,0.5L5.1,61.9L2,71.9L8.1,78l9.9-3L20,73v-7h7l3-3v-7h7l4.2-4.2l0.5,0.5c1.1,1.1,2.4,1.6,3.8,1.6 s2.8-0.5,3.8-1.6l1.6-1.6c0.9,0.1,1.7,0.1,2.6,0.1c13.7,0,24.8-11.3,24.4-25.1C77.6,13,67,2.4,54.3,2C54,2,53.8,2,53.6,2L53.6,2z M63.9,36L44,16.1c2.7-2.7,6.3-4.1,9.9-4.1c3.6,0,7.2,1.4,9.9,4.1C69.4,21.6,69.4,30.5,63.9,36L63.9,36z"/><path fill="#dbb065" d="M6.6 54.4H38.1V55.4H6.6z" transform="rotate(-45.001 22.386 54.898)"/><path fill="#967a44" d="M34.6 35.8H35.6V54.199999999999996H34.6z" transform="rotate(-45.001 35.052 44.956)"/><path fill="#bae0bd" d="M62,79.5c-9.6,0-17.5-7.9-17.5-17.5S52.4,44.5,62,44.5S79.5,52.4,79.5,62S71.6,79.5,62,79.5z"/><path fill="#5e9c76" d="M62,45c9.4,0,17,7.6,17,17s-7.6,17-17,17s-17-7.6-17-17S52.6,45,62,45 M62,44c-9.9,0-18,8.1-18,18 s8.1,18,18,18s18-8.1,18-18S71.9,44,62,44L62,44z"/><path fill="#fff" d="M60 52H64V72H60z"/><path fill="#fff" d="M52 60H72V64H52z"/></svg>