<svg xmlns="http://www.w3.org/2000/svg" width="50" height="50" fill="#000" viewBox="0 0 64 64"><path d="M 21.65625 4 C 20.320313 4 19.066406 4.519531 18.121094 5.464844 L 9.464844 14.121094 C 8.519531 15.066406 8 16.320313 8 17.65625 L 8 57 C 8 58.652344 9.347656 60 11 60 L 51 60 C 52.652344 60 54 58.652344 54 57 L 54 7 C 54 5.347656 52.652344 4 51 4 Z M 22 6 L 51 6 C 51.550781 6 52 6.449219 52 7 L 52 57 C 52 57.550781 51.550781 58 51 58 L 11 58 C 10.449219 58 10 57.550781 10 57 L 10 18 L 19 18 C 20.652344 18 22 16.652344 22 15 Z M 20 6.5 L 20 15 C 20 15.550781 19.550781 16 19 16 L 10.5 16 C 10.605469 15.835938 10.734375 15.679688 10.878906 15.535156 L 19.535156 6.878906 C 19.679688 6.738281 19.835938 6.613281 20 6.5 Z M 31 20 C 30.449219 20 30 20.449219 30 21 L 30 32 L 19 32 C 18.449219 32 18 32.449219 18 33 C 18 33.550781 18.449219 34 19 34 L 30 34 L 30 45 C 30 45.550781 30.449219 46 31 46 C 31.550781 46 32 45.550781 32 45 L 32 34 L 43 34 C 43.550781 34 44 33.550781 44 33 C 44 32.449219 43.550781 32 43 32 L 32 32 L 32 21 C 32 20.449219 31.550781 20 31 20 Z M 13 52 C 12.449219 52 12 52.449219 12 53 L 12 55 C 12 55.550781 12.449219 56 13 56 C 13.550781 56 14 55.550781 14 55 L 14 53 C 14 52.449219 13.550781 52 13 52 Z M 18 52 C 17.449219 52 17 52.449219 17 53 L 17 55 C 17 55.550781 17.449219 56 18 56 C 18.550781 56 19 55.550781 19 55 L 19 53 C 19 52.449219 18.550781 52 18 52 Z M 23 52 C 22.449219 52 22 52.449219 22 53 L 22 55 C 22 55.550781 22.449219 56 23 56 C 23.550781 56 24 55.550781 24 55 L 24 53 C 24 52.449219 23.550781 52 23 52 Z M 28 52 C 27.449219 52 27 52.449219 27 53 L 27 55 C 27 55.550781 27.449219 56 28 56 C 28.550781 56 29 55.550781 29 55 L 29 53 C 29 52.449219 28.550781 52 28 52 Z M 33 52 C 32.449219 52 32 52.449219 32 53 L 32 55 C 32 55.550781 32.449219 56 33 56 C 33.550781 56 34 55.550781 34 55 L 34 53 C 34 52.449219 33.550781 52 33 52 Z M 38 52 C 37.449219 52 37 52.449219 37 53 L 37 55 C 37 55.550781 37.449219 56 38 56 C 38.550781 56 39 55.550781 39 55 L 39 53 C 39 52.449219 38.550781 52 38 52 Z M 43 52 C 42.449219 52 42 52.449219 42 53 L 42 55 C 42 55.550781 42.449219 56 43 56 C 43.550781 56 44 55.550781 44 55 L 44 53 C 44 52.449219 43.550781 52 43 52 Z M 48 52 C 47.449219 52 47 52.449219 47 53 L 47 55 C 47 55.550781 47.449219 56 48 56 C 48.550781 56 49 55.550781 49 55 L 49 53 C 49 52.449219 48.550781 52 48 52 Z"/></svg>