<svg xmlns="http://www.w3.org/2000/svg" viewBox="0 0 100 100" width="300px" height="300px"><path fill="#c7ede6" d="M87.215,56.71C88.35,54.555,89,52.105,89,49.5c0-6.621-4.159-12.257-10.001-14.478 C78.999,35.015,79,35.008,79,35c0-11.598-9.402-21-21-21c-9.784,0-17.981,6.701-20.313,15.757C36.211,29.272,34.638,29,33,29 c-7.692,0-14.023,5.793-14.89,13.252C12.906,43.353,9,47.969,9,53.5C9,59.851,14.149,65,20.5,65c0.177,0,0.352-0.012,0.526-0.022 C21.022,65.153,21,65.324,21,65.5C21,76.822,30.178,86,41.5,86c6.437,0,12.175-2.972,15.934-7.614C59.612,80.611,62.64,82,66,82 c4.65,0,8.674-2.65,10.666-6.518C77.718,75.817,78.837,76,80,76c6.075,0,11-4.925,11-11C91,61.689,89.53,58.727,87.215,56.71z"/><path fill="#fdfcef" d="M67.125,44.5c0,0-3.64,0-6.125,0s-4.5-2.015-4.5-4.5c0-2.333,1.782-4.229,4.055-4.455 C60.533,35.364,60.5,35.187,60.5,35c0-2.485,2.015-4.5,4.5-4.5c1.438,0,2.703,0.686,3.527,1.736 C68.667,29.6,70.829,27.5,73.5,27.5c2.761,0,5,2.239,5,5c0,0.446-0.077,0.87-0.187,1.282c0.642-0.777,1.6-1.282,2.687-1.282 c1.781,0,3.234,1.335,3.455,3.055C84.636,35.533,84.813,35.5,85,35.5c2.485,0,4.5,2.015,4.5,4.5s-2.015,4.5-4.5,4.5s-9.5,0-9.5,0 h-5.375V45h-3V44.5z"/><path fill="#472b29" d="M73.5,27c3.033,0,5.5,2.467,5.5,5.5c0,0.016,0,0.031,0,0.047C79.602,32.192,80.29,32,81,32 c1.831,0,3.411,1.261,3.858,3.005C84.905,35.002,84.952,35,85,35c2.757,0,5,2.243,5,5s-2.243,5-5,5H70.125 c-0.276,0-0.5-0.224-0.5-0.5s0.224-0.5,0.5-0.5H85c2.206,0,4-1.794,4-4s-1.794-4-4-4c-0.117,0-0.23,0.017-0.343,0.032 l-0.141,0.019c-0.021,0.003-0.041,0.004-0.062,0.004c-0.246,0-0.462-0.185-0.495-0.437C83.768,34.125,82.496,33,81,33 c-0.885,0-1.723,0.401-2.301,1.1c-0.098,0.118-0.241,0.182-0.386,0.182c-0.078,0-0.156-0.018-0.228-0.056 c-0.209-0.107-0.314-0.346-0.254-0.573C77.946,33.218,78,32.852,78,32.5c0-2.481-2.019-4.5-4.5-4.5 c-2.381,0-4.347,1.872-4.474,4.263c-0.011,0.208-0.15,0.387-0.349,0.45c-0.05,0.016-0.101,0.024-0.152,0.024 c-0.15,0-0.296-0.069-0.392-0.192C67.362,31.563,66.221,31,65,31c-2.206,0-4,1.794-4,4c0,0.117,0.017,0.23,0.032,0.343 l0.019,0.141c0.016,0.134-0.022,0.268-0.106,0.373c-0.084,0.105-0.207,0.172-0.34,0.185C58.549,36.247,57,37.949,57,40 c0,2.206,1.794,4,4,4h6.125c0.276,0,0.5,0.224,0.5,0.5s-0.224,0.5-0.5,0.5H61c-2.757,0-5-2.243-5-5 c0-2.397,1.689-4.413,4.003-4.877C60.001,35.082,60,35.041,60,35c0-2.757,2.243-5,5-5c1.176,0,2.293,0.416,3.183,1.164 C68.781,28.76,70.945,27,73.5,27L73.5,27z"/><path fill="#472b29" d="M75 34c1.403 0 2.609.999 2.913 2.341C78.28 36.119 78.699 36 79.125 36c1.202 0 2.198.897 2.353 2.068C81.681 38.022 81.874 38 82.063 38c1.529 0 2.811 1.2 2.918 2.732C84.99 40.87 84.886 40.99 84.749 41c-.006 0-.012 0-.018 0-.13 0-.24-.101-.249-.232-.089-1.271-1.151-2.268-2.419-2.268-.229 0-.47.042-.738.127-.022.007-.045.01-.067.01-.055 0-.11-.02-.156-.054C81.038 38.537 81 38.455 81 38.375c0-1.034-.841-1.875-1.875-1.875-.447 0-.885.168-1.231.473-.047.041-.106.063-.165.063-.032 0-.063-.006-.093-.019-.088-.035-.148-.117-.155-.212C77.377 35.512 76.288 34.5 75 34.5c-.208 0-.425.034-.682.107-.023.007-.047.01-.07.01-.109 0-.207-.073-.239-.182-.038-.133.039-.271.172-.309C74.483 34.04 74.744 34 75 34L75 34zM61.117 35.5c1.326 0 2.508.897 2.874 2.182.038.133-.039.271-.172.309C63.795 37.997 63.772 38 63.75 38c-.109 0-.209-.072-.24-.182C63.205 36.748 62.221 36 61.117 36c-.117 0-.23.014-.342.029-.012.002-.023.003-.035.003-.121 0-.229-.092-.246-.217-.019-.137.077-.263.214-.281C60.842 35.516 60.978 35.5 61.117 35.5L61.117 35.5z"/><path fill="#fff" d="M15.405 51H5.5C5.224 51 5 50.776 5 50.5S5.224 50 5.5 50h9.905c.276 0 .5.224.5.5S15.682 51 15.405 51zM18.5 51h-1c-.276 0-.5-.224-.5-.5s.224-.5.5-.5h1c.276 0 .5.224.5.5S18.777 51 18.5 51zM23.491 53H14.5c-.276 0-.5-.224-.5-.5s.224-.5.5-.5h8.991c.276 0 .5.224.5.5S23.767 53 23.491 53zM12.5 53h-1c-.276 0-.5-.224-.5-.5s.224-.5.5-.5h1c.276 0 .5.224.5.5S12.777 53 12.5 53zM9.5 53h-2C7.224 53 7 52.776 7 52.5S7.224 52 7.5 52h2c.276 0 .5.224.5.5S9.777 53 9.5 53zM15.5 55h-2c-.276 0-.5-.224-.5-.5s.224-.5.5-.5h2c.276 0 .5.224.5.5S15.776 55 15.5 55zM18.5 46c-.177 0-.823 0-1 0-.276 0-.5.224-.5.5 0 .276.224.5.5.5.177 0 .823 0 1 0 .276 0 .5-.224.5-.5C19 46.224 18.776 46 18.5 46zM18.5 48c-.177 0-4.823 0-5 0-.276 0-.5.224-.5.5 0 .276.224.5.5.5.177 0 4.823 0 5 0 .276 0 .5-.224.5-.5C19 48.224 18.776 48 18.5 48zM23.5 50c-.177 0-2.823 0-3 0-.276 0-.5.224-.5.5 0 .276.224.5.5.5.177 0 2.823 0 3 0 .276 0 .5-.224.5-.5C24 50.224 23.776 50 23.5 50zM84.5 53h-10c-.276 0-.5-.224-.5-.5s.224-.5.5-.5h10c.276 0 .5.224.5.5S84.776 53 84.5 53zM88.5 53h-2c-.276 0-.5-.224-.5-.5s.224-.5.5-.5h2c.276 0 .5.224.5.5S88.776 53 88.5 53zM93.5 55h-10c-.276 0-.5-.224-.5-.5s.224-.5.5-.5h10c.276 0 .5.224.5.5S93.777 55 93.5 55zM81.5 55h-1c-.276 0-.5-.224-.5-.5s.224-.5.5-.5h1c.276 0 .5.224.5.5S81.776 55 81.5 55zM78.375 55H76.5c-.276 0-.5-.224-.5-.5s.224-.5.5-.5h1.875c.276 0 .5.224.5.5S78.651 55 78.375 55zM87.5 51h-5c-.276 0-.5-.224-.5-.5s.224-.5.5-.5h5c.276 0 .5.224.5.5S87.777 51 87.5 51zM84.5 57h-2c-.276 0-.5-.224-.5-.5s.224-.5.5-.5h2c.276 0 .5.224.5.5S84.776 57 84.5 57z"/><path fill="#fdfcef" d="M34.5,77.5c0,0,1.567,0,3.5,0s3.5-1.567,3.5-3.5c0-1.781-1.335-3.234-3.055-3.455 C38.473,70.366,38.5,70.187,38.5,70c0-1.933-1.567-3.5-3.5-3.5c-1.032,0-1.95,0.455-2.59,1.165 c-0.384-1.808-1.987-3.165-3.91-3.165c-2.209,0-4,1.791-4,4c0,0.191,0.03,0.374,0.056,0.558C24.128,68.714,23.592,68.5,23,68.5 c-1.228,0-2.245,0.887-2.455,2.055C20.366,70.527,20.187,70.5,20,70.5c-1.933,0-3.5,1.567-3.5,3.5s1.567,3.5,3.5,3.5s7.5,0,7.5,0 V78h7V77.5z"/><path fill="#472b29" d="M36.25 73C36.112 73 36 72.888 36 72.75c0-1.223.995-2.218 2.218-2.218.034.009.737-.001 1.244.136.133.036.212.173.176.306-.036.134-.173.213-.306.176-.444-.12-1.1-.12-1.113-.118-.948 0-1.719.771-1.719 1.718C36.5 72.888 36.388 73 36.25 73zM29.5 77A.5.5 0 1 0 29.5 78 .5.5 0 1 0 29.5 77z"/><path fill="#472b29" d="M38,78h-3.5c-0.276,0-0.5-0.224-0.5-0.5s0.224-0.5,0.5-0.5H38c1.654,0,3-1.346,3-3 c0-1.496-1.125-2.768-2.618-2.959c-0.134-0.018-0.255-0.088-0.336-0.196s-0.115-0.244-0.094-0.377C37.975,70.314,38,70.16,38,70 c0-1.654-1.346-3-3-3c-0.85,0-1.638,0.355-2.219,1c-0.125,0.139-0.321,0.198-0.5,0.148c-0.182-0.049-0.321-0.195-0.36-0.379 C31.58,66.165,30.141,65,28.5,65c-1.93,0-3.5,1.57-3.5,3.5c0,0.143,0.021,0.28,0.041,0.418c0.029,0.203-0.063,0.438-0.242,0.54 c-0.179,0.102-0.396,0.118-0.556-0.01C23.878,69.155,23.449,69,23,69c-0.966,0-1.792,0.691-1.963,1.644 c-0.048,0.267-0.296,0.446-0.569,0.405C20.314,71.025,20.16,71,20,71c-1.654,0-3,1.346-3,3s1.346,3,3,3h7.5 c0.276,0,0.5,0.224,0.5,0.5S27.776,78,27.5,78H20c-2.206,0-4-1.794-4-4s1.794-4,4-4c0.059,0,0.116,0.002,0.174,0.006 C20.588,68.82,21.711,68,23,68c0.349,0,0.689,0.061,1.011,0.18C24.176,65.847,26.126,64,28.5,64c1.831,0,3.466,1.127,4.153,2.774 C33.333,66.276,34.155,66,35,66c2.206,0,4,1.794,4,4c0,0.048-0.001,0.095-0.004,0.142C40.739,70.59,42,72.169,42,74 C42,76.206,40.206,78,38,78z"/><path fill="#472b29" d="M32.5,77c-0.159,0-0.841,0-1,0c-0.276,0-0.5,0.224-0.5,0.5c0,0.276,0.224,0.5,0.5,0.5 c0.159,0,0.841,0,1,0c0.276,0,0.5-0.224,0.5-0.5C33,77.224,32.776,77,32.5,77z"/><g><path fill="#fefdef" d="M67.575,41.252c-4.366-4.441-6.861-6.977-11.227-11.418H45.915h-5.049h-1.571h-0.703 c-2.663,0-4.842,2.216-4.842,4.924v34.701c0,2.709,2.179,4.924,4.842,4.924h9.333h5.325h6.975h2.507 c2.663,0,4.842-2.216,4.842-4.924v-2.201v-7.275v-6.6L67.575,41.252L67.575,41.252z"/></g><g><path fill="#472b29" d="M54.824,75.083H38.557c-3.037,0-5.507-2.523-5.507-5.624V34.758c0-3.102,2.471-5.625,5.507-5.625 h17.629c0.188,0,0.369,0.076,0.501,0.211l11.147,11.419c0.127,0.131,0.199,0.307,0.199,0.489l0,21.131c0,0.387-0.313,0.7-0.7,0.7 l0,0c-0.387,0-0.7-0.313-0.7-0.7V41.537L55.892,30.533H38.557c-2.265,0-4.107,1.896-4.107,4.225v34.701 c0,2.329,1.842,4.224,4.107,4.224h16.267c0.387,0,0.7,0.313,0.7,0.7S55.21,75.083,54.824,75.083z"/></g><g><path fill="#472b29" d="M62.622,74.867h-2.397c-0.387,0-0.7-0.313-0.7-0.7s0.313-0.7,0.7-0.7h2.397 c2.166,0,3.928-1.828,3.928-4.075v-2.134c0-0.387,0.313-0.7,0.7-0.7s0.7,0.313,0.7,0.7v2.134 C67.95,72.411,65.56,74.867,62.622,74.867z"/></g><g><path fill="#fef6aa" d="M56.5,30.75v6.162c0,2.523,1.923,4.588,4.273,4.588h5.935"/><path fill="#472b29" d="M66.708,42h-5.935C58.141,42,56,39.718,56,36.912V30.75h1v6.162C57,39.166,58.693,41,60.773,41 h5.935V42z"/></g><g><path fill="#472b29" d="M54.5,71H39.75C38.233,71,37,69.767,37,68.25v-32.5c0-1.517,1.233-2.75,2.75-2.75H53.5 c0.276,0,0.5,0.224,0.5,0.5S53.776,34,53.5,34H39.75C38.785,34,38,34.785,38,35.75v32.5c0,0.965,0.785,1.75,1.75,1.75H54.5 c0.276,0,0.5,0.224,0.5,0.5S54.776,71,54.5,71z"/></g><g><path fill="#472b29" d="M64.5,56c-0.276,0-0.5-0.224-0.5-0.5v-6c0-0.276,0.224-0.5,0.5-0.5s0.5,0.224,0.5,0.5v6 C65,55.776,64.776,56,64.5,56z"/></g><g><path fill="#472b29" d="M64.5,48c-0.276,0-0.5-0.224-0.5-0.5v-3c0-0.276,0.224-0.5,0.5-0.5s0.5,0.224,0.5,0.5v3 C65,47.776,64.776,48,64.5,48z"/></g><g><path fill="#472b29" d="M49.5,43.75h-9c-0.138,0-0.25-0.112-0.25-0.25s0.112-0.25,0.25-0.25h9c0.138,0,0.25,0.112,0.25,0.25 S49.638,43.75,49.5,43.75z"/></g><g><path fill="#472b29" d="M49.5,47.75h-9c-0.138,0-0.25-0.112-0.25-0.25s0.112-0.25,0.25-0.25h9c0.138,0,0.25,0.112,0.25,0.25 S49.638,47.75,49.5,47.75z"/></g><g><path fill="#472b29" d="M49.5,51.75h-9c-0.138,0-0.25-0.112-0.25-0.25s0.112-0.25,0.25-0.25h9c0.138,0,0.25,0.112,0.25,0.25 S49.638,51.75,49.5,51.75z"/></g><g><path fill="#472b29" d="M47.5,55.75h-7c-0.138,0-0.25-0.112-0.25-0.25s0.112-0.25,0.25-0.25h7c0.138,0,0.25,0.112,0.25,0.25 S47.638,55.75,47.5,55.75z"/></g><g><path fill="#472b29" d="M49.5,59.75h-9c-0.138,0-0.25-0.112-0.25-0.25s0.112-0.25,0.25-0.25h9c0.138,0,0.25,0.112,0.25,0.25 S49.638,59.75,49.5,59.75z"/></g><g><path fill="#472b29" d="M55.5,63.75h-15c-0.138,0-0.25-0.112-0.25-0.25s0.112-0.25,0.25-0.25h15 c0.138,0,0.25,0.112,0.25,0.25S55.638,63.75,55.5,63.75z"/></g><g><path fill="#472b29" d="M60.5,55.75h-12c-0.138,0-0.25-0.112-0.25-0.25s0.112-0.25,0.25-0.25h12 c0.138,0,0.25,0.112,0.25,0.25S60.638,55.75,60.5,55.75z"/></g><g><path fill="#472b29" d="M58.5,59.75h-7c-0.138,0-0.25-0.112-0.25-0.25s0.112-0.25,0.25-0.25h7c0.138,0,0.25,0.112,0.25,0.25 S58.638,59.75,58.5,59.75z"/></g><g><path fill="#fef6aa" d="M52.5 52L52.5 43.5 60.5 43.5 60.5 51.5 56 51.5"/><path fill="#472b29" d="M52.75 52L52.25 52 52.25 43.25 60.75 43.25 60.75 51.75 56 51.75 56 51.25 60.25 51.25 60.25 43.75 52.75 43.75z"/></g><g><path fill="#60be92" d="M63 60.7A9.3 9.3 0 1 0 63 79.3A9.3 9.3 0 1 0 63 60.7Z"/><path fill="#472b29" d="M63,61.4c4.742,0,8.6,3.858,8.6,8.6s-3.858,8.6-8.6,8.6s-8.6-3.858-8.6-8.6S58.258,61.4,63,61.4 M63,60c-5.523,0-10,4.477-10,10s4.477,10,10,10s10-4.477,10-10S68.523,60,63,60L63,60z"/></g><g><path fill="#fefdef" d="M67.5,68.5h-3v-3c0-0.828-0.671-1.5-1.5-1.5s-1.5,0.672-1.5,1.5v3h-3c-0.828,0-1.5,0.671-1.5,1.5 s0.672,1.5,1.5,1.5h3v3c0,0.828,0.671,1.5,1.5,1.5s1.5-0.672,1.5-1.5v-3h3c0.828,0,1.5-0.671,1.5-1.5S68.328,68.5,67.5,68.5z"/><path fill="#472b29" d="M63,76.25c-0.965,0-1.75-0.785-1.75-1.75v-2.75H58.5c-0.965,0-1.75-0.785-1.75-1.75 s0.785-1.75,1.75-1.75h2.75V65.5c0-0.965,0.785-1.75,1.75-1.75s1.75,0.785,1.75,1.75v2.75h2.75c0.965,0,1.75,0.785,1.75,1.75 s-0.785,1.75-1.75,1.75h-2.75v2.75C64.75,75.465,63.965,76.25,63,76.25z M58.5,68.75c-0.689,0-1.25,0.561-1.25,1.25 s0.561,1.25,1.25,1.25h3.25v3.25c0,0.689,0.561,1.25,1.25,1.25s1.25-0.561,1.25-1.25v-3.25h3.25c0.689,0,1.25-0.561,1.25-1.25 s-0.561-1.25-1.25-1.25h-3.25V65.5c0-0.689-0.561-1.25-1.25-1.25s-1.25,0.561-1.25,1.25v3.25H58.5z"/></g></svg>