<?xml version="1.0"?><svg fill="#000000" xmlns="http://www.w3.org/2000/svg" viewBox="0 0 24 24" width="300px" height="300px">    <path d="M 12 2 C 6.477 2 2 6.477 2 12 C 2 17.523 6.477 22 12 22 C 12.685 22 13.354 21.929828 14 21.798828 L 14 19.738281 C 13.36 19.903281 12.692 20 12 20 C 7.582 20 4 16.418 4 12 C 4 7.582 7.582 4 12 4 C 16.418 4 20 7.582 20 12 C 20 12.692 19.903281 13.36 19.738281 14 L 21.798828 14 C 21.929828 13.354 22 12.685 22 12 C 22 6.477 17.523 2 12 2 z M 11.712891 5.6503906 L 11.712891 7.078125 C 11.373891 7.121125 9.4765625 7.4775781 9.4765625 9.7675781 C 9.4765625 13.108578 12.935547 12.120609 12.935547 14.349609 C 12.935547 15.465609 12.213406 15.492188 12.066406 15.492188 C 11.932406 15.492188 11.052734 15.563469 11.052734 13.855469 L 9.1621094 13.855469 C 9.1621094 16.747469 11.260266 16.976531 11.572266 17.019531 L 11.572266 18.349609 L 12.574219 18.349609 L 12.574219 17.019531 C 12.912219 16.977531 14.824219 16.663938 14.824219 14.335938 C 14.824219 11.129938 11.366234 11.743344 11.365234 9.7773438 C 11.365234 8.6503437 11.985141 8.6152344 12.119141 8.6152344 C 12.364141 8.6152344 12.947266 8.830125 12.947266 10.203125 L 14.837891 10.203125 C 14.837891 7.576125 13.041703 7.1664688 12.720703 7.1054688 L 12.720703 5.6503906 L 11.712891 5.6503906 z M 19 16 L 19 19 L 16 19 L 16 21 L 19 21 L 19 24 L 21 24 L 21 21 L 24 21 L 24 19 L 21 19 L 21 16 L 19 16 z"/></svg>