<svg xmlns="http://www.w3.org/2000/svg" width="300" height="300" fill="#000" viewBox="0 0 80 80"><path d="M 39.548828 7 C 37.636968 7.023654 35.761158 7.1988235 33.929688 7.5136719 A 1.0001 1.0001 0 1 0 34.267578 9.484375 C 35.996107 9.1872234 37.768078 9.022346 39.574219 9 L 39.841797 9 C 49.230683 9 57.925506 12.736603 64.376953 19.539062 A 1.0002374 1.0002374 0 1 0 65.828125 18.162109 C 59.009572 10.97257 49.762911 7 39.841797 7 L 39.556641 7 L 39.548828 7 z M 26.1875 9.859375 A 1.0001 1.0001 0 1 0 26.1875 11.859375 A 1.0001 1.0001 0 1 0 26.1875 9.859375 z M 23.166016 11.371094 L 22.365234 11.771484 L 22.207031 12.654297 L 22.818359 13.308594 L 23.166016 13.371094 L 23.966797 12.96875 L 24.125 12.085938 L 23.511719 11.431641 L 23.166016 11.371094 z M 39.611328 12 C 33.779973 12.07232 28.318753 13.781591 23.675781 16.681641 A 1.0001 1.0001 0 1 0 24.736328 18.376953 C 29.081356 15.663002 34.180074 14.067676 39.636719 14 L 39.841797 14 C 42.413739 14 44.918693 14.32723 47.318359 14.962891 A 1.0001 1.0001 0 1 0 47.832031 13.03125 C 45.263698 12.35091 42.583855 12 39.841797 12 L 39.617188 12 L 39.611328 12 z M 20.28125 13.130859 L 19.480469 13.533203 L 19.322266 14.414062 L 19.933594 15.068359 L 20.28125 15.130859 L 21.082031 14.730469 L 21.240234 13.847656 L 20.628906 13.193359 L 20.28125 13.130859 z M 52.517578 14.794922 L 51.716797 15.197266 L 51.558594 16.078125 L 52.171875 16.732422 L 52.517578 16.794922 L 53.318359 16.394531 L 53.476562 15.511719 L 52.865234 14.857422 L 52.517578 14.794922 z M 17.589844 15.177734 A 1.0001 1.0001 0 1 0 17.589844 17.177734 A 1.0001 1.0001 0 1 0 17.589844 15.177734 z M 56.009766 16.740234 L 55.208984 17.140625 L 55.050781 18.023438 L 55.664062 18.677734 L 56.009766 18.740234 L 56.810547 18.337891 L 56.96875 17.457031 L 56.357422 16.802734 L 56.009766 16.740234 z M 39.673828 17 C 28.025562 17.144537 18.16483 25.060033 15.035156 35.755859 A 1.0003133 1.0003133 0 1 0 16.955078 36.318359 C 19.840874 26.456 28.940211 19.13608 39.693359 19 C 43.578109 18.97308 47.296376 19.849947 50.638672 21.552734 A 1.0001 1.0001 0 1 0 51.546875 19.771484 C 47.917171 17.922272 43.874938 16.970924 39.679688 17 L 39.677734 17 L 39.673828 17 z M 59.207031 19.138672 L 58.40625 19.539062 L 58.248047 20.421875 L 58.861328 21.076172 L 59.207031 21.138672 L 60.007812 20.736328 L 60.166016 19.855469 L 59.554688 19.199219 L 59.207031 19.138672 z M 62.056641 21.939453 L 61.255859 22.341797 L 61.097656 23.224609 L 61.708984 23.878906 L 62.056641 23.939453 L 62.857422 23.539062 L 63.015625 22.65625 L 62.404297 22.001953 L 62.056641 21.939453 z M 39.736328 22 C 34.52981 22.065055 29.764933 24.037391 26.125 27.248047 A 1.0001 1.0001 0 1 0 27.447266 28.748047 C 30.743332 25.840703 35.042284 24.058945 39.759766 24 C 51.015693 23.859396 59.671684 33.747017 58.933594 45.021484 A 1.000126 1.000126 0 0 0 60.929688 45.150391 C 61.739598 32.778858 52.176401 21.844604 39.736328 22 z M 16.035156 24.056641 A 1.0001 1.0001 0 0 0 15.197266 24.466797 C 11.310377 29.647937 9 36.075659 9 42.998047 L 9 45.998047 A 1.0001 1.0001 0 1 0 11 45.998047 L 11 42.998047 C 11 36.520435 13.159716 30.518828 16.798828 25.667969 A 1.0001 1.0001 0 0 0 16.035156 24.056641 z M 57.863281 24.720703 A 1.0001 1.0001 0 0 0 57.121094 26.417969 C 61.586968 31.12693 64.048669 37.470038 63.974609 43.988281 A 1.0001 1.0001 0 1 0 65.974609 44.011719 C 66.054549 36.975962 63.402391 30.134055 58.572266 25.041016 A 1.0001 1.0001 0 0 0 57.863281 24.720703 z M 64.525391 25.083984 L 63.722656 25.484375 L 63.566406 26.367188 L 64.177734 27.021484 L 64.525391 27.083984 L 65.326172 26.681641 L 65.484375 25.800781 L 64.871094 25.144531 L 64.525391 25.083984 z M 40 26.998047 C 31.17552 26.998047 24 34.173567 24 42.998047 A 1.0001 1.0001 0 1 0 26 42.998047 C 26 35.254527 32.25648 28.998047 40 28.998047 C 45.877801 28.998047 50.896209 32.611677 52.976562 37.730469 A 1.0001 1.0001 0 1 0 54.828125 36.976562 C 52.44848 31.121355 46.698199 26.998047 40 26.998047 z M 67.287109 30.087891 A 1.0001 1.0001 0 0 0 66.408203 31.501953 C 68.252236 35.692409 69.142793 40.301585 68.949219 44.958984 A 1.0001 1.0001 0 1 0 70.947266 45.041016 C 71.153691 40.074415 70.204248 35.164809 68.238281 30.697266 A 1.0001 1.0001 0 0 0 67.287109 30.087891 z M 22.701172 31.984375 A 1.0001 1.0001 0 0 0 21.818359 32.496094 C 20.027234 35.586992 19 39.177975 19 42.998047 L 19 45.998047 A 1.0001 1.0001 0 1 0 21 45.998047 L 21 42.998047 C 21 39.536119 21.927953 36.295149 23.548828 33.498047 A 1.0001 1.0001 0 0 0 22.701172 31.984375 z M 40 31.998047 A 1.0001 1.0001 0 1 0 40 33.998047 C 44.981375 33.998047 49 38.016672 49 42.998047 C 49 45.358244 48.43691 48.885955 46.861328 52.607422 A 1.0003209 1.0003209 0 0 0 48.703125 53.388672 C 50.387543 49.410139 51 45.66985 51 42.998047 C 51 36.935421 46.062625 31.998047 40 31.998047 z M 35 33.335938 A 1.0001 1.0001 0 1 0 35 35.335938 A 1.0001 1.0001 0 1 0 35 33.335938 z M 32.123047 35.847656 L 31.322266 36.25 L 31.164062 37.130859 L 31.777344 37.785156 L 32.123047 37.847656 L 32.925781 37.447266 L 33.082031 36.564453 L 32.470703 35.910156 L 32.123047 35.847656 z M 40 36.96875 C 36.705135 36.96875 34 39.638977 34 42.941406 A 1.0001 1.0001 0 1 0 36 42.941406 C 36 40.719836 37.772865 38.96875 40 38.96875 C 42.214812 38.96875 44 40.775478 44 42.996094 C 44 42.873146 43.9935 43.624338 43.847656 44.677734 C 43.701834 45.73113 43.417189 47.203754 42.867188 48.880859 C 41.767181 52.23507 39.615796 56.396715 35.376953 59.777344 A 1.0001 1.0001 0 1 0 36.623047 61.341797 C 41.230204 57.667425 43.579083 53.127945 44.767578 49.503906 C 45.361825 47.691887 45.668635 46.10526 45.828125 44.953125 C 45.987615 43.80099 46 43.198041 46 42.996094 C 46 39.69471 43.309188 36.96875 40 36.96875 z M 30.398438 39.25 L 29.595703 39.650391 L 29.439453 40.533203 L 30.050781 41.1875 L 30.398438 41.25 L 31.199219 40.847656 L 31.357422 39.966797 L 30.744141 39.3125 L 30.398438 39.25 z M 14.984375 41.984375 A 1.0001 1.0001 0 0 0 14 42.998047 L 14 45.998047 A 1.0001 1.0001 0 1 0 16 45.998047 L 16 42.998047 A 1.0001 1.0001 0 0 0 14.984375 41.984375 z M 39.984375 41.984375 A 1.0001 1.0001 0 0 0 39 42.998047 C 39 42.998047 39.000281 47.113934 36.251953 51.4375 C 33.503625 55.761066 28.075262 60.289868 16.708984 60.923828 A 1.0005731 1.0005731 0 1 0 16.820312 62.921875 C 28.690036 62.259835 34.878781 57.326652 37.939453 52.511719 C 41.000125 47.696785 41 42.998047 41 42.998047 A 1.0001 1.0001 0 0 0 39.984375 41.984375 z M 54.984375 41.984375 A 1.0001 1.0001 0 0 0 54 42.998047 C 54 44.230644 53.90625 45.523247 53.712891 46.855469 A 1.000726 1.000726 0 1 0 55.693359 47.144531 C 55.900004 45.720753 56 44.33145 56 42.998047 A 1.0001 1.0001 0 0 0 54.984375 41.984375 z M 29.871094 43.041016 L 29.070312 43.443359 L 28.912109 44.324219 L 29.523438 44.980469 L 29.871094 45.041016 L 30.671875 44.640625 L 30.830078 43.757812 L 30.216797 43.103516 L 29.871094 43.041016 z M 34.070312 45.986328 A 1.0001 1.0001 0 0 0 33.169922 46.626953 C 31.697908 50.302823 27.782193 55.42791 15.955078 55.955078 A 1.0001 1.0001 0 1 0 16.044922 57.953125 C 28.447811 57.400293 33.317357 51.639271 35.027344 47.369141 A 1.0001 1.0001 0 0 0 34.070312 45.986328 z M 28.208984 46.451172 L 27.408203 46.853516 L 27.25 47.736328 L 27.861328 48.390625 L 28.208984 48.451172 L 29.009766 48.050781 L 29.167969 47.167969 L 28.556641 46.513672 L 28.208984 46.451172 z M 64 48 C 55.178 48 48 55.178 48 64 C 48 72.822 55.178 80 64 80 C 72.822 80 80 72.822 80 64 C 80 55.178 72.822 48 64 48 z M 25.201172 48.798828 L 24.400391 49.201172 L 24.242188 50.082031 L 24.853516 50.736328 L 25.201172 50.798828 L 26.001953 50.396484 L 26.160156 49.515625 L 25.548828 48.861328 L 25.201172 48.798828 z M 64 50 C 71.72 50 78 56.28 78 64 C 78 71.72 71.72 78 64 78 C 56.28 78 50 71.72 50 64 C 50 56.28 56.28 50 64 50 z M 21.621094 50.158203 L 20.818359 50.560547 L 20.662109 51.441406 L 21.273438 52.095703 L 21.621094 52.158203 L 22.421875 51.757812 L 22.580078 50.875 L 21.966797 50.220703 L 21.621094 50.158203 z M 17.839844 50.814453 L 17.037109 51.216797 L 16.880859 52.097656 L 17.492188 52.751953 L 17.839844 52.814453 L 18.640625 52.414062 L 18.798828 51.53125 L 18.185547 50.876953 L 17.839844 50.814453 z M 14 50.998047 A 1.0001 1.0001 0 1 0 14 52.998047 A 1.0001 1.0001 0 1 0 14 50.998047 z M 46 54.998047 A 1 1 0 0 0 45 55.998047 A 1 1 0 0 0 46 56.998047 A 1 1 0 0 0 47 55.998047 A 1 1 0 0 0 46 54.998047 z M 63 57 L 63 63 L 57 63 L 57 65 L 63 65 L 63 71 L 65 71 L 65 65 L 71 65 L 71 63 L 65 63 L 65 57 L 63 57 z M 44 57.998047 A 1 1 0 0 0 43 58.998047 A 1 1 0 0 0 44 59.998047 A 1 1 0 0 0 45 58.998047 A 1 1 0 0 0 44 57.998047 z M 43.630859 61.630859 C 42.09819 61.701821 40.582176 62.249998 39.324219 63.277344 L 39.324219 63.275391 C 35.756685 66.186382 30.991592 68.612931 24.791016 69.931641 A 1.0001 1.0001 0 1 0 25.208984 71.886719 C 31.694408 70.507429 36.765424 67.94518 40.587891 64.826172 C 41.812614 63.825967 43.364412 63.450984 44.839844 63.691406 A 1.0001 1.0001 0 1 0 45.160156 61.71875 C 44.654514 61.636356 44.141749 61.607205 43.630859 61.630859 z M 30 63.115234 A 1.0001 1.0001 0 1 0 30 65.115234 A 1.0001 1.0001 0 1 0 30 63.115234 z M 26.757812 64.292969 L 25.957031 64.693359 L 25.798828 65.576172 L 26.410156 66.230469 L 26.757812 66.292969 L 27.558594 65.890625 L 27.716797 65.007812 L 27.105469 64.353516 L 26.757812 64.292969 z M 23.40625 65.109375 L 22.605469 65.509766 L 22.447266 66.392578 L 23.058594 67.046875 L 23.40625 67.109375 L 24.207031 66.707031 L 24.365234 65.824219 L 23.753906 65.169922 L 23.40625 65.109375 z M 20 65.664062 A 1.0001 1.0001 0 1 0 20 67.664062 A 1.0001 1.0001 0 1 0 20 65.664062 z M 43.990234 66.625 C 43.456381 66.6207 42.920747 66.79486 42.484375 67.150391 C 40.636749 68.658201 38.611982 69.980733 36.419922 71.113281 A 1.0002023 1.0002023 0 1 0 37.337891 72.890625 C 39.647831 71.697173 41.789673 70.299362 43.748047 68.701172 C 43.879303 68.594232 44.068311 68.591841 44.214844 68.712891 A 1.0002993 1.0002993 0 0 0 45.488281 67.169922 C 45.055548 66.812445 44.524088 66.629339 43.990234 66.625 z"/></svg>