<svg fill="#000000" xmlns="http://www.w3.org/2000/svg" viewBox="0 0 16 16" width="300px" height="300px"><path d="M 9 1 C 6.2447116 1 4 3.2447116 4 6 C 4 6.4002062 4.091225 6.7583276 4.1796875 7.1132812 L 1 10.292969 L 1 14 L 5 14 L 5 13 L 6 13 L 6 12 L 6.7070312 12 L 7.0195312 11.6875 C 7.1205622 14.078392 9.0849179 16 11.5 16 C 13.979359 16 16 13.979359 16 11.5 C 16 9.834854 15.078191 8.3934204 13.728516 7.6152344 C 13.901839 7.1077056 14 6.5648348 14 6 C 14 3.2447116 11.755288 1 9 1 z M 9 2 C 11.214712 2 13 3.7852884 13 6 C 13 6.4262396 12.914267 6.8269727 12.791016 7.2109375 C 12.379305 7.08631 11.951583 7 11.5 7 C 9.5403415 7 7.8848261 8.2700155 7.2695312 10.023438 L 6.2929688 11 L 5 11 L 5 12 L 4 12 L 4 13 L 2 13 L 2 10.707031 L 5.2753906 7.4316406 L 5.1894531 7.1464844 C 5.0752218 6.7647845 5 6.3866984 5 6 C 5 3.7852884 6.7852884 2 9 2 z M 10 4 A 1 1 0 0 0 9 5 A 1 1 0 0 0 10 6 A 1 1 0 0 0 11 5 A 1 1 0 0 0 10 4 z M 11.5 8 C 13.438919 8 15 9.5610811 15 11.5 C 15 13.438919 13.438919 15 11.5 15 C 9.5610811 15 8 13.438919 8 11.5 C 8 9.5610811 9.5610811 8 11.5 8 z M 11 9 L 11 11 L 9 11 L 9 12 L 11 12 L 11 14 L 12 14 L 12 12 L 14 12 L 14 11 L 12 11 L 12 9 L 11 9 z"/></svg>