<svg xmlns="http://www.w3.org/2000/svg" width="500" height="500" viewBox="0 0 30 30"><path fill="#f5ce85" d="M1.6,26.6l1-3.3l8.8-8.8L10.8,14c-0.6-0.6-0.6-1.5,0-2.1l0.8-0.8l0-0.2c0-0.3-0.1-0.6-0.1-0.9 c0-4.7,3.8-8.5,8.5-8.5l0.2,0c4.4,0.1,8.1,3.8,8.3,8.3c0.1,2.3-0.8,4.5-2.4,6.2c-1.6,1.7-3.8,2.6-6.1,2.6c-0.3,0-0.6,0-0.9-0.1 l-0.2,0l-0.8,0.8c-0.3,0.3-0.7,0.4-1.1,0.4s-0.8-0.2-1.1-0.4l-0.5-0.5l-2.9,2.9h-2.1v2.1l-0.9,0.9H7.5v2.1l-0.9,0.9l-3.2,1 L1.6,26.6z M20,4.5c-1.5,0-2.9,0.6-3.9,1.6l-0.4,0.4l7.8,7.8l0.4-0.4c2.1-2.1,2.1-5.6,0-7.8C22.9,5.1,21.5,4.5,20,4.5z"/><path fill="#967a44" d="M20,2c0.1,0,0.2,0,0.2,0c4.2,0.1,7.7,3.6,7.8,7.8c0.1,2.2-0.7,4.2-2.3,5.8C24.2,17.1,22.2,18,20,18 c-0.3,0-0.6,0-0.9,0l-0.5-0.1l-0.3,0.3l-0.6,0.6c-0.2,0.2-0.4,0.3-0.7,0.3s-0.5-0.1-0.7-0.3l-0.2-0.2l-0.7-0.7l-0.7,0.7L12.4,21 H11h-1v1v1.4L9.4,24H8H7v1v1.4L6.4,27l-2.8,0.9l-1.4-1.4L3,23.6l8.3-8.3l0.7-0.7l-0.7-0.7l-0.2-0.2c-0.2-0.2-0.3-0.4-0.3-0.7 s0.1-0.5,0.3-0.7l0.6-0.6l0.3-0.3L12,10.9c0-0.3,0-0.6,0-0.9C12,5.6,15.6,2,20,2 M23.5,14.9l0.7-0.7c1.1-1.1,1.8-2.6,1.8-4.2 s-0.6-3.1-1.8-4.2C23.1,4.6,21.6,4,20,4s-3.1,0.6-4.2,1.8l-0.7,0.7l0.7,0.7l7.1,7.1L23.5,14.9 M20,1c-5,0-9,4-9,9 c0,0.3,0,0.7,0.1,1l-0.6,0.6c-0.8,0.8-0.8,2,0,2.8l0.2,0.2l-8.5,8.5L1,26.7L3.3,29l3.7-1.1L8,26.8V25h1.8l1.2-1.2V22h1.8l2.6-2.6 l0.2,0.2c0.4,0.4,0.9,0.6,1.4,0.6s1-0.2,1.4-0.6l0.6-0.6c0.3,0,0.6,0.1,1,0.1c5.1,0,9.1-4.2,9-9.3C28.9,5,25,1.1,20.3,1 C20.2,1,20.1,1,20,1L20,1z M23.5,13.5l-7.1-7.1c1-1,2.3-1.5,3.5-1.5s2.6,0.5,3.5,1.5C25.5,8.4,25.5,11.6,23.5,13.5L23.5,13.5z"/><path fill="#dbb065" d="M2.7 19.7H14.7V20.7H2.7z" transform="rotate(-45.001 8.75 20.25)"/><path fill="#967a44" d="M12.9 13.8H13.9V19.4H12.9z" transform="rotate(-45.001 13.395 16.604)"/><path fill="#bae0bd" d="M23 16.5A6.5 6.5 0 1 0 23 29.5A6.5 6.5 0 1 0 23 16.5Z"/><path fill="#5e9c76" d="M23,17c3.3,0,6,2.7,6,6s-2.7,6-6,6s-6-2.7-6-6S19.7,17,23,17 M23,16c-3.9,0-7,3.1-7,7s3.1,7,7,7 s7-3.1,7-7S26.9,16,23,16L23,16z"/><path fill="#fff" d="M22 19H24V27H22z"/><path fill="#fff" d="M19 22H27V24H19z"/></svg>