<svg xmlns="http://www.w3.org/2000/svg" viewBox="0 0 64 64" width="300px" height="300px"><linearGradient id="IO4whNR37vsGlDFUvbcwpa" x1="33" x2="33" y1="20.375" y2="27.517" gradientUnits="userSpaceOnUse" spreadMethod="reflect"><stop offset="0" stop-color="#6dc7ff"/><stop offset="1" stop-color="#e6abff"/></linearGradient><path fill="url(#IO4whNR37vsGlDFUvbcwpa)" d="M33 21A3 3 0 1 0 33 27A3 3 0 1 0 33 21Z"/><linearGradient id="IO4whNR37vsGlDFUvbcwpb" x1="32" x2="32" y1="9.333" y2="53.861" gradientUnits="userSpaceOnUse" spreadMethod="reflect"><stop offset="0" stop-color="#1a6dff"/><stop offset="1" stop-color="#c822ff"/></linearGradient><path fill="url(#IO4whNR37vsGlDFUvbcwpb)" d="M53,32h-3V13c0-1.654-1.346-3-3-3H9c-1.654,0-3,1.346-3,3v27v1v4c0,1.654,1.345,3,3,3h27v1 c0,2.757,2.243,5,5,5h12c2.757,0,5-2.243,5-5V37C58,34.243,55.757,32,53,32z M8,13c0-0.551,0.448-1,1-1h38c0.552,0,1,0.449,1,1v19 h-2V16c0-1.103-0.898-2-2-2H12c-1.103,0-2,0.897-2,2v22c0,1.103,0.897,2,2,2h24v2H9c-0.552,0-1-0.449-1-1v-1V13z M36,37v1H24.949 C24.456,31.079,19,25.543,12,25.051V16h32v16h-3C38.243,32,36,34.243,36,37z M12,35.142c1,0.364,2.494,1.459,2.858,2.858H12V35.142z M16.909,38C16.486,35.493,15,33.514,12,33.09v-2.021c4,0.453,6.477,3.319,6.93,6.931H16.909z M20.949,38 C20.478,33.283,17,29.521,12,29.051v-2c6,0.484,10.466,5.13,10.949,10.949H20.949z M9,46c-0.552,0-1-0.449-1-1v-1.184 C8,43.928,8.647,44,9,44h27v2H9z M56,49c0,1.654-1.346,3-3,3H41c-1.654,0-3-1.346-3-3v-1v-2v-2v-2v-2v-2v-1c0-1.654,1.345-3,3-3h12 c1.654,0,3,1.346,3,3V49z"/><linearGradient id="IO4whNR37vsGlDFUvbcwpc" x1="47" x2="47" y1="9.333" y2="53.861" gradientUnits="userSpaceOnUse" spreadMethod="reflect"><stop offset="0" stop-color="#1a6dff"/><stop offset="1" stop-color="#c822ff"/></linearGradient><path fill="url(#IO4whNR37vsGlDFUvbcwpc)" d="M48 38L46 38 46 42 42 42 42 44 46 44 46 48 48 48 48 44 52 44 52 42 48 42z"/></svg>