<svg xmlns="http://www.w3.org/2000/svg" width="100" height="100" viewBox="0 0 24 24"><path d="M24,21h-3v3h-2v-3h-3v-2h3v-3h2v3h3V21z"/><path d="M14,19.738C13.36,19.903,12.692,20,12,20c-4.418,0-8-3.582-8-8c0-4.418,3.582-8,8-8s8,3.582,8,8 c0,0.692-0.097,1.36-0.262,2h2.061C21.93,13.354,22,12.685,22,12c0-5.523-4.477-10-10-10S2,6.477,2,12s4.477,10,10,10 c0.685,0,1.354-0.07,2-0.201V19.738z"/><path d="M12.575,18.35v-1.33c0.338-0.042,2.25-0.356,2.25-2.684c0-3.206-3.459-2.593-3.46-4.559c0-1.127,0.621-1.162,0.755-1.162 c0.245,0,0.828,0.216,0.828,1.589h1.89c0-2.627-1.796-3.037-2.117-3.098V5.65h-1.008v1.428c-0.339,0.043-2.237,0.4-2.237,2.69 c0,3.341,3.459,2.352,3.459,4.581c0,1.116-0.721,1.143-0.868,1.143c-0.134,0-1.015,0.071-1.015-1.637h-1.89 c0,2.892,2.099,3.122,2.411,3.165v1.33H12.575z"/><path d="M16,17h1v-1c0-1.105,0.895-2,2-2h1.769c0.404-1.778,0.336-3.734-0.675-5.813 c-1.357-2.794-4.046-4.817-7.135-5.137C7.558,2.491,3,6.713,3,12c0,4.971,4.029,9,9,9c0.691,0,1.354-0.101,2-0.249V19 C14,17.895,14.895,17,16,17z" opacity=".3"/></svg>