<svg xmlns="http://www.w3.org/2000/svg" width="100" height="100" viewBox="0 0 64 64"><path fill="#faefde" d="M53,53H4a3,3,0,0,1-3-3V14a3,3,0,0,1,3-3H18l6,6H50a3,3,0,0,1,3,3Z"/><path fill="#fff7f0" d="M4,11H18l7,7H1V14A3,3,0,0,1,4,11Z"/><path fill="#cda1a7" d="M53,21h2a2,2,0,0,1,2,2V50a3,3,0,0,1-3,3H53a0,0,0,0,1,0,0V21A0,0,0,0,1,53,21Z"/><path fill="#efd8be" d="M1,43H55a0,0,0,0,1,0,0V53a0,0,0,0,1,0,0H4a3,3,0,0,1-3-3V43A0,0,0,0,1,1,43Z"/><path fill="#72caaf" d="M51 35A12 12 0 1 0 51 59A12 12 0 1 0 51 35Z"/><path fill="#8d6c9f" d="M5 46a1 1 0 0 0-1 1v2a1 1 0 0 0 2 0V47A1 1 0 0 0 5 46zM10 46a1 1 0 0 0-1 1v2a1 1 0 0 0 2 0V47A1 1 0 0 0 10 46zM15 46a1 1 0 0 0-1 1v2a1 1 0 0 0 2 0V47A1 1 0 0 0 15 46zM20 46a1 1 0 0 0-1 1v2a1 1 0 0 0 2 0V47A1 1 0 0 0 20 46zM25 46a1 1 0 0 0-1 1v2a1 1 0 0 0 2 0V47A1 1 0 0 0 25 46zM30 46a1 1 0 0 0-1 1v2a1 1 0 0 0 2 0V47A1 1 0 0 0 30 46zM35 46a1 1 0 0 0-1 1v2a1 1 0 0 0 2 0V47A1 1 0 0 0 35 46z"/><path fill="#8d6c9f" d="M58,36.06V23a3,3,0,0,0-3-3H54V19a3,3,0,0,0-3-3H25.71a3,3,0,0,1-2.11-.87l-3.73-3.69A5,5,0,0,0,16.36,10H3a3,3,0,0,0-3,3V50a4,4,0,0,0,4,4H40.06A13,13,0,1,0,58,36.06ZM55,22a1,1,0,0,1,1,1V35a12.91,12.91,0,0,0-2-.64V22ZM3,12H16.36a3,3,0,0,1,2.11.87l3.72,3.69A5,5,0,0,0,25.71,18H51a1,1,0,0,1,1,1V34.05c-.33,0-.66-.05-1-.05a13,13,0,0,0-12,8H2V13A1,1,0,0,1,3,12ZM4,52a2,2,0,0,1-2-2V44H38.36A12.81,12.81,0,0,0,39,52Zm47,6A11,11,0,1,1,62,47,11,11,0,0,1,51,58Z"/><path fill="#f9efde" d="M57,46H52V41a1,1,0,0,0-2,0v5H45a1,1,0,0,0,0,2h5v5a1,1,0,0,0,2,0V48h5a1,1,0,0,0,0-2Z"/></svg>