<svg xmlns="http://www.w3.org/2000/svg" width="500" height="500" fill="#000" viewBox="0 0 32 32"><path d="M 6 3 L 6 29 L 17.771484 29 C 19.240982 30.824972 21.488603 32 24 32 C 28.4 32 32 28.4 32 24 C 32 20.291044 29.438915 17.160607 26 16.265625 L 26 9.5859375 L 19.414062 3 L 6 3 z M 8 5 L 18 5 L 18 11 L 24 11 L 24 16 C 23.513712 16 23.039136 16.0506 22.576172 16.134766 L 20.285156 13.462891 L 15.998047 18.462891 L 13.330078 15.349609 L 12.570312 14.462891 L 9.2402344 18.349609 L 10.757812 19.650391 L 12.570312 17.537109 L 16 21.537109 L 16.294922 21.882812 C 16.108021 22.558511 16 23.266942 16 24 C 16 25.06037 16.212827 26.071744 16.591797 27 L 8 27 L 8 5 z M 20 6.4140625 L 22.585938 9 L 20 9 L 20 6.4140625 z M 24 18 C 27.3 18 30 20.7 30 24 C 30 27.3 27.3 30 24 30 C 20.7 30 18 27.3 18 24 C 18 20.7 20.7 18 24 18 z M 23 20 L 23 23 L 20 23 L 20 25 L 23 25 L 23 28 L 25 28 L 25 25 L 28 25 L 28 23 L 25 23 L 25 20 L 23 20 z"/></svg>