<svg xmlns="http://www.w3.org/2000/svg" width="100" height="100" fill="#000" viewBox="0 0 80 80"><path d="M 19 9 C 16.800781 9 15 10.800781 15 13 L 15 22 C 15 23.210938 15.578125 24.265625 16.4375 25 C 15.578125 25.734375 15 26.789063 15 28 L 15 37 C 15 38.210938 15.578125 39.265625 16.4375 40 C 15.578125 40.734375 15 41.789063 15 43 L 15 52 C 15 53.210938 15.578125 54.265625 16.4375 55 C 15.578125 55.734375 15 56.789063 15 58 L 15 67 C 15 69.199219 16.800781 71 19 71 L 49.636719 71 C 52.238281 76.320313 57.6875 80 64 80 C 72.824219 80 80 72.824219 80 64 C 80 55.511719 73.359375 48.570313 65 48.050781 L 65 43 C 65 41.789063 64.421875 40.734375 63.5625 40 C 64.421875 39.265625 65 38.210938 65 37 L 65 28 C 65 26.789063 64.421875 25.734375 63.5625 25 C 64.421875 24.265625 65 23.210938 65 22 L 65 13 C 65 10.800781 63.199219 9 61 9 Z M 19 11 L 61 11 C 62.117188 11 63 11.882813 63 13 L 63 22 C 63 23.117188 62.117188 24 61 24 L 61 26 C 62.117188 26 63 26.882813 63 28 L 63 37 C 63 38.117188 62.117188 39 61 39 L 61 41 C 62.117188 41 63 41.882813 63 43 L 63 48.050781 C 58.035156 48.359375 53.6875 50.929688 50.96875 54.75 C 50.851563 54.308594 50.457031 54 50 54 C 49.449219 54 49 54.449219 49 55 C 49 55.550781 49.449219 56 50 56 C 50.058594 56 50.117188 55.996094 50.171875 55.984375 C 48.800781 58.34375 48 61.078125 48 64 C 48 65.746094 48.289063 67.425781 48.8125 69 L 19 69 C 17.882813 69 17 68.117188 17 67 L 17 58 C 17 56.882813 17.882813 56 19 56 L 19 54 C 17.882813 54 17 53.117188 17 52 L 17 43 C 17 41.882813 17.882813 41 19 41 L 19 39 C 17.882813 39 17 38.117188 17 37 L 17 28 C 17 26.882813 17.882813 26 19 26 L 19 24 C 17.882813 24 17 23.117188 17 22 L 17 13 C 17 11.882813 17.882813 11 19 11 Z M 45 16 L 45 18 L 51 18 L 51 16 Z M 22 24 C 21.449219 24 21 24.449219 21 25 C 21 25.550781 21.449219 26 22 26 C 22.550781 26 23 25.550781 23 25 C 23 24.449219 22.550781 24 22 24 Z M 26 24 C 25.449219 24 25 24.449219 25 25 C 25 25.550781 25.449219 26 26 26 C 26.550781 26 27 25.550781 27 25 C 27 24.449219 26.550781 24 26 24 Z M 30 24 C 29.449219 24 29 24.449219 29 25 C 29 25.550781 29.449219 26 30 26 C 30.550781 26 31 25.550781 31 25 C 31 24.449219 30.550781 24 30 24 Z M 34 24 C 33.449219 24 33 24.449219 33 25 C 33 25.550781 33.449219 26 34 26 C 34.550781 26 35 25.550781 35 25 C 35 24.449219 34.550781 24 34 24 Z M 38 24 C 37.449219 24 37 24.449219 37 25 C 37 25.550781 37.449219 26 38 26 C 38.550781 26 39 25.550781 39 25 C 39 24.449219 38.550781 24 38 24 Z M 42 24 C 41.449219 24 41 24.449219 41 25 C 41 25.550781 41.449219 26 42 26 C 42.550781 26 43 25.550781 43 25 C 43 24.449219 42.550781 24 42 24 Z M 46 24 C 45.449219 24 45 24.449219 45 25 C 45 25.550781 45.449219 26 46 26 C 46.550781 26 47 25.550781 47 25 C 47 24.449219 46.550781 24 46 24 Z M 50 24 C 49.449219 24 49 24.449219 49 25 C 49 25.550781 49.449219 26 50 26 C 50.550781 26 51 25.550781 51 25 C 51 24.449219 50.550781 24 50 24 Z M 54 24 C 53.449219 24 53 24.449219 53 25 C 53 25.550781 53.449219 26 54 26 C 54.550781 26 55 25.550781 55 25 C 55 24.449219 54.550781 24 54 24 Z M 58 24 C 57.449219 24 57 24.449219 57 25 C 57 25.550781 57.449219 26 58 26 C 58.550781 26 59 25.550781 59 25 C 59 24.449219 58.550781 24 58 24 Z M 45 31 L 45 33 L 51 33 L 51 31 Z M 22 39 C 21.449219 39 21 39.449219 21 40 C 21 40.550781 21.449219 41 22 41 C 22.550781 41 23 40.550781 23 40 C 23 39.449219 22.550781 39 22 39 Z M 26 39 C 25.449219 39 25 39.449219 25 40 C 25 40.550781 25.449219 41 26 41 C 26.550781 41 27 40.550781 27 40 C 27 39.449219 26.550781 39 26 39 Z M 30 39 C 29.449219 39 29 39.449219 29 40 C 29 40.550781 29.449219 41 30 41 C 30.550781 41 31 40.550781 31 40 C 31 39.449219 30.550781 39 30 39 Z M 34 39 C 33.449219 39 33 39.449219 33 40 C 33 40.550781 33.449219 41 34 41 C 34.550781 41 35 40.550781 35 40 C 35 39.449219 34.550781 39 34 39 Z M 38 39 C 37.449219 39 37 39.449219 37 40 C 37 40.550781 37.449219 41 38 41 C 38.550781 41 39 40.550781 39 40 C 39 39.449219 38.550781 39 38 39 Z M 42 39 C 41.449219 39 41 39.449219 41 40 C 41 40.550781 41.449219 41 42 41 C 42.550781 41 43 40.550781 43 40 C 43 39.449219 42.550781 39 42 39 Z M 46 39 C 45.449219 39 45 39.449219 45 40 C 45 40.550781 45.449219 41 46 41 C 46.550781 41 47 40.550781 47 40 C 47 39.449219 46.550781 39 46 39 Z M 50 39 C 49.449219 39 49 39.449219 49 40 C 49 40.550781 49.449219 41 50 41 C 50.550781 41 51 40.550781 51 40 C 51 39.449219 50.550781 39 50 39 Z M 54 39 C 53.449219 39 53 39.449219 53 40 C 53 40.550781 53.449219 41 54 41 C 54.550781 41 55 40.550781 55 40 C 55 39.449219 54.550781 39 54 39 Z M 58 39 C 57.449219 39 57 39.449219 57 40 C 57 40.550781 57.449219 41 58 41 C 58.550781 41 59 40.550781 59 40 C 59 39.449219 58.550781 39 58 39 Z M 45 46 L 45 48 L 51 48 L 51 46 Z M 64 50 C 71.742188 50 78 56.257813 78 64 C 78 71.742188 71.742188 78 64 78 C 56.257813 78 50 71.742188 50 64 C 50 56.257813 56.257813 50 64 50 Z M 22 54 C 21.449219 54 21 54.449219 21 55 C 21 55.550781 21.449219 56 22 56 C 22.550781 56 23 55.550781 23 55 C 23 54.449219 22.550781 54 22 54 Z M 26 54 C 25.449219 54 25 54.449219 25 55 C 25 55.550781 25.449219 56 26 56 C 26.550781 56 27 55.550781 27 55 C 27 54.449219 26.550781 54 26 54 Z M 30 54 C 29.449219 54 29 54.449219 29 55 C 29 55.550781 29.449219 56 30 56 C 30.550781 56 31 55.550781 31 55 C 31 54.449219 30.550781 54 30 54 Z M 34 54 C 33.449219 54 33 54.449219 33 55 C 33 55.550781 33.449219 56 34 56 C 34.550781 56 35 55.550781 35 55 C 35 54.449219 34.550781 54 34 54 Z M 38 54 C 37.449219 54 37 54.449219 37 55 C 37 55.550781 37.449219 56 38 56 C 38.550781 56 39 55.550781 39 55 C 39 54.449219 38.550781 54 38 54 Z M 42 54 C 41.449219 54 41 54.449219 41 55 C 41 55.550781 41.449219 56 42 56 C 42.550781 56 43 55.550781 43 55 C 43 54.449219 42.550781 54 42 54 Z M 46 54 C 45.449219 54 45 54.449219 45 55 C 45 55.550781 45.449219 56 46 56 C 46.550781 56 47 55.550781 47 55 C 47 54.449219 46.550781 54 46 54 Z M 63 57 L 63 63 L 57 63 L 57 65 L 63 65 L 63 71 L 65 71 L 65 65 L 71 65 L 71 63 L 65 63 L 65 57 Z"/></svg>