<svg xmlns="http://www.w3.org/2000/svg" width="100" height="100" viewBox="0 0 30 30"><path fill="#dcd5f2" d="M13,28.5c-5.7,0-10.5-2.1-10.5-4.5V5.5h21V24C23.5,26.4,18.7,28.5,13,28.5z"/><path fill="#8b75a1" d="M23,6v18c0,1.9-4.3,4-10,4S3,25.9,3,24V6H23 M24,5H2c0,0,0,18.1,0,19c0,2.8,4.9,5,11,5s11-2.2,11-5 C24,23.1,24,5,24,5L24,5z"/><path fill="#dcd5f2" d="M13,8.5C6.8,8.5,2.5,6.7,2.5,5S6.8,1.5,13,1.5S23.5,3.3,23.5,5S19.2,8.5,13,8.5z"/><path fill="#8b75a1" d="M13 2c6 0 10 1.8 10 3s-4 3-10 3S3 6.2 3 5 7 2 13 2M13 1C6.9 1 2 2.8 2 5s4.9 4 11 4 11-1.8 11-4S19.1 1 13 1L13 1zM13 23c-5.3 0-11-1.5-11-4.3h1C3 20.3 7.1 22 13 22c5.9 0 10-1.7 10-3.3h1C24 21.5 18.3 23 13 23zM13 16c-5.3 0-11-1.5-11-4.3h1C3 13.3 7.1 15 13 15c5.9 0 10-1.7 10-3.3h1C24 14.5 18.3 16 13 16z"/><path fill="#bae0bd" d="M23 16.5A6.5 6.5 0 1 0 23 29.5A6.5 6.5 0 1 0 23 16.5Z"/><path fill="#5e9c76" d="M23,17c3.3,0,6,2.7,6,6s-2.7,6-6,6s-6-2.7-6-6S19.7,17,23,17 M23,16c-3.9,0-7,3.1-7,7s3.1,7,7,7 s7-3.1,7-7S26.9,16,23,16L23,16z"/><path fill="#fff" d="M22 19H24V27H22z"/><path fill="#fff" d="M19 22H27V24H19z"/></svg>