<svg xmlns="http://www.w3.org/2000/svg" width="100" height="100" fill="#000" viewBox="0 0 100 100"><path d="M 33.5 9 C 31.572833 9 30 10.572833 30 12.5 L 30 24 C 30 26.755288 32.244712 29 35 29 C 37.755288 29 40 26.755288 40 24 L 40 14.5 A 0.50005 0.50005 0 1 0 39 14.5 L 39 24 C 39 26.214712 37.214712 28 35 28 C 32.785288 28 31 26.214712 31 24 L 31 12.5 C 31 11.113167 32.113167 10 33.5 10 C 34.886833 10 36 11.113167 36 12.5 L 36 24 C 36 24.557469 35.557469 25 35 25 C 34.442531 25 34 24.557469 34 24 L 34 14.5 A 0.50005 0.50005 0 1 0 33 14.5 L 33 24 C 33 25.098531 33.901469 26 35 26 C 36.098531 26 37 25.098531 37 24 L 37 12.5 C 37 10.572833 35.427167 9 33.5 9 z M 28 10 C 23.037 10 19 14.038 19 19 L 19 82 C 19 86.962 23.037 91 28 91 L 69.144531 91 C 71.892823 93.477401 75.517159 95 79.5 95 C 88.047 95 95 88.047 95 79.5 C 95 71.459493 88.845078 64.8337 81 64.076172 L 81 30.5 A 0.50005 0.50005 0 0 0 80.853516 30.146484 L 60.853516 10.146484 A 0.50005 0.50005 0 0 0 60.5 10 L 60.492188 10 L 39 10 C 38.447 10 38 10.448 38 11 C 38 11.552 38.447 12 39 12 L 60 12 L 60 22 C 60 26.964274 64.035726 31 69 31 L 79 31 L 79 64.025391 C 77.614219 64.069928 76.271661 64.283213 75 64.669922 L 75 60.5 A 0.50005 0.50005 0 0 0 74.492188 59.992188 A 0.50005 0.50005 0 0 0 74 60.5 L 74 65.027344 C 70.935663 66.196124 68.33227 68.298571 66.552734 71 L 56.5 71 A 0.50005 0.50005 0 1 0 56.5 72 L 65.945312 72 C 64.709576 74.224476 64 76.779878 64 79.5 C 64 81.065242 64.236459 82.574591 64.669922 84 L 32.5 84 C 28.904219 84 26 81.095781 26 77.5 L 26 23.5 C 26 21.288526 27.103662 19.345176 28.787109 18.169922 A 0.50005 0.50005 0 0 0 28.478516 17.255859 A 0.50005 0.50005 0 0 0 28.212891 17.349609 C 26.272338 18.704355 25 20.955474 25 23.5 L 25 77.5 C 25 81.636219 28.363781 85 32.5 85 L 65.027344 85 C 65.58051 86.450304 66.340512 87.795181 67.279297 89 L 28 89 C 24.141 89 21 85.86 21 82 L 21 19 C 21 15.14 24.141 12 28 12 C 28.553 12 29 11.552 29 11 C 29 10.448 28.553 10 28 10 z M 61 11.707031 L 79.292969 30 L 69 30 C 64.576274 30 61 26.423726 61 22 L 61 11.707031 z M 74.492188 45.992188 A 0.50005 0.50005 0 0 0 74 46.5 L 74 49.572266 A 0.50005 0.50005 0 1 0 75 49.572266 L 75 46.5 A 0.50005 0.50005 0 0 0 74.492188 45.992188 z M 30.5 50 A 0.50005 0.50005 0 1 0 30.5 51 L 52.5 51 A 0.50005 0.50005 0 1 0 52.5 50 L 30.5 50 z M 74.492188 50.992188 A 0.50005 0.50005 0 0 0 74 51.5 L 74 58.5 A 0.50005 0.50005 0 1 0 75 58.5 L 75 51.5 A 0.50005 0.50005 0 0 0 74.492188 50.992188 z M 30.5 57 A 0.50005 0.50005 0 1 0 30.5 58 L 43.5 58 A 0.50005 0.50005 0 1 0 43.5 57 L 30.5 57 z M 45.5 57 A 0.50005 0.50005 0 1 0 45.5 58 L 69.5 58 A 0.50005 0.50005 0 1 0 69.5 57 L 45.5 57 z M 61.5 63.998047 L 49.5 64 A 0.50005 0.50005 0 1 0 49.5 65 L 61.5 64.998047 A 0.50005 0.50005 0 1 0 61.5 63.998047 z M 69.5 63.998047 L 63.5 64 A 0.50005 0.50005 0 1 0 63.5 65 L 69.5 64.998047 A 0.50005 0.50005 0 1 0 69.5 63.998047 z M 30.5 64 A 0.50005 0.50005 0 1 0 30.5 65 L 47.5 65 A 0.50005 0.50005 0 1 0 47.5 64 L 30.5 64 z M 79.5 66 C 86.944 66 93 72.056 93 79.5 C 93 86.944 86.944 93 79.5 93 C 72.056 93 66 86.944 66 79.5 C 66 72.056 72.056 66 79.5 66 z M 30.5 71 A 0.50005 0.50005 0 1 0 30.5 72 L 54.5 72 A 0.50005 0.50005 0 1 0 54.5 71 L 30.5 71 z M 79.5 71 C 79.224 71 79 71.224 79 71.5 L 79 79 L 71.59375 79 C 71.31775 79 71.09375 79.224 71.09375 79.5 C 71.09375 79.776 71.31775 80 71.59375 80 L 79 80 L 79 87.5 C 79 87.776 79.224 88 79.5 88 C 79.776 88 80 87.776 80 87.5 L 80 80 L 87.5 80 C 87.776 80 88 79.776 88 79.5 C 88 79.224 87.776 79 87.5 79 L 80 79 L 80 71.5 C 80 71.224 79.776 71 79.5 71 z"/></svg>