<svg xmlns="http://www.w3.org/2000/svg" width="50" height="50" fill="#000" viewBox="0 0 24 24"><path d="M 6 2 C 4.9 2 4 2.9 4 4 L 4 20 C 4 21.1 4.9 22 6 22 L 13 22 L 13 20 C 13 18.343 14.343 17 16 17 C 16 15.343 17.343 14 19 14 L 20 14 L 20 8.828125 C 20 8.298125 19.789062 7.7890625 19.414062 7.4140625 L 14.585938 2.5859375 C 14.210937 2.2109375 13.701875 2 13.171875 2 L 6 2 z M 13 3.5 L 18.5 9 L 13 9 L 13 3.5 z M 14 12 C 14.256 12 14.512031 12.097469 14.707031 12.292969 C 15.098031 12.682969 15.098031 13.316031 14.707031 13.707031 L 11.707031 16.707031 C 11.316031 17.097031 10.682969 17.097031 10.292969 16.707031 L 9 15.414062 L 7.7070312 16.707031 C 7.3170313 17.097031 6.6829688 17.097031 6.2929688 16.707031 C 5.9029688 16.317031 5.9029688 15.682969 6.2929688 15.292969 L 8.2929688 13.292969 C 8.6839688 12.902969 9.3170312 12.902969 9.7070312 13.292969 L 11 14.585938 L 13.292969 12.292969 C 13.487969 12.097469 13.744 12 14 12 z M 19 16 C 18.448 16 18 16.448 18 17 L 18 19 L 16 19 C 15.448 19 15 19.448 15 20 C 15 20.552 15.448 21 16 21 L 18 21 L 18 23 C 18 23.552 18.448 24 19 24 C 19.552 24 20 23.552 20 23 L 20 21 L 22 21 C 22.552 21 23 20.552 23 20 C 23 19.448 22.552 19 22 19 L 20 19 L 20 17 C 20 16.448 19.552 16 19 16 z"/></svg>