<svg xmlns="http://www.w3.org/2000/svg" width="500" height="500" fill="#000" viewBox="0 0 16 16"><path d="M 3.5 1 C 2.6774686 1 2 1.6774686 2 2.5 L 2 12.5 C 2 13.322531 2.6774686 14 3.5 14 L 7.7617188 14 C 8.5704696 15.204592 9.94479 16 11.5 16 C 13.979359 16 16 13.979359 16 11.5 C 16 9.94479 15.204592 8.5704696 14 7.7617188 L 14 2.5 C 14 1.6774686 13.322531 1 12.5 1 L 3.5 1 z M 3.5 2 L 12.5 2 C 12.781469 2 13 2.2185314 13 2.5 L 13 5 L 6 5 L 6 6 L 13 6 L 13 7.2753906 C 12.528582 7.1071101 12.028145 7 11.5 7 C 9.94479 7 8.5704696 7.795408 7.7617188 9 L 6 9 L 6 10 L 7.2753906 10 C 7.1071101 10.471418 7 10.971855 7 11.5 C 7 12.028145 7.1071101 12.528582 7.2753906 13 L 3.5 13 C 3.2185314 13 3 12.781469 3 12.5 L 3 10 L 5 10 L 5 9 L 3 9 L 3 6 L 5 6 L 5 5 L 3 5 L 3 2.5 C 3 2.2185314 3.2185314 2 3.5 2 z M 11.5 8 C 13.438919 8 15 9.5610811 15 11.5 C 15 13.438919 13.438919 15 11.5 15 C 9.5610811 15 8 13.438919 8 11.5 C 8 9.5610811 9.5610811 8 11.5 8 z M 11 9 L 11 11 L 9 11 L 9 12 L 11 12 L 11 14 L 12 14 L 12 12 L 14 12 L 14 11 L 12 11 L 12 9 L 11 9 z"/></svg>