<svg xmlns="http://www.w3.org/2000/svg" width="100" height="100" fill="#000" viewBox="0 0 64 64"><path d="M 5 12 C 3.300781 12 2 13.300781 2 15 L 2 51 C 2 52.699219 3.300781 54 5 54 L 38.363281 54 C 39.722656 59.722656 44.863281 64 51 64 C 58.167969 64 64 58.167969 64 51 C 64 46.410156 61.601563 42.375 58 40.0625 L 58 15 C 58 13.300781 56.699219 12 55 12 Z M 5 14 L 55 14 C 55.601563 14 56 14.398438 56 15 L 56 39.003906 C 54.460938 38.359375 52.769531 38 51 38 C 50.808594 38 50.621094 38.019531 50.429688 38.03125 L 47.097656 34.699219 C 46 33.597656 44 33.597656 42.902344 34.699219 L 34.5 43.097656 L 31.097656 39.699219 C 30 38.5 28.101563 38.5 26.902344 39.699219 L 18.597656 48 L 15.042969 48 C 14.417969 48 14 48.398438 14 49 C 14 49.601563 14.523438 50 15.042969 50 L 38.050781 50 C 38.023438 50.332031 38 50.660156 38 51 C 38 51.339844 38.023438 51.667969 38.050781 52 L 5 52 C 4.398438 52 4 51.5 4 51 L 4 15 C 4 14.398438 4.398438 14 5 14 Z M 17 16 C 16.398438 16 16 16.445313 16 17 L 16 19 C 16 19.550781 16.398438 20 17 20 C 17.601563 20 18 19.554688 18 19 L 18 17 C 18 16.445313 17.601563 16 17 16 Z M 11.894531 17.335938 C 11.761719 17.351563 11.628906 17.398438 11.5 17.472656 C 10.980469 17.773438 10.859375 18.359375 11.136719 18.839844 L 12.136719 20.570313 C 12.320313 20.894531 12.65625 21.074219 13 21.074219 C 13.132813 21.09375 13.328125 21.039063 13.5 20.9375 C 14.019531 20.636719 14.140625 20.050781 13.863281 19.570313 L 12.863281 17.839844 C 12.660156 17.480469 12.289063 17.285156 11.894531 17.335938 Z M 22.109375 17.339844 C 21.714844 17.285156 21.34375 17.480469 21.136719 17.839844 L 20.136719 19.574219 C 19.859375 20.050781 19.980469 20.636719 20.5 20.9375 C 20.675781 21.039063 20.871094 21.097656 21 21.074219 C 21.347656 21.074219 21.683594 20.890625 21.867188 20.574219 L 22.867188 18.839844 C 23.144531 18.359375 23.023438 17.773438 22.5 17.472656 C 22.371094 17.398438 22.238281 17.355469 22.109375 17.339844 Z M 8.464844 21 C 8.082031 20.945313 7.699219 21.113281 7.472656 21.5 C 7.171875 22.019531 7.363281 22.589844 7.839844 22.867188 L 9.570313 23.867188 C 9.730469 23.960938 9.875 24.042969 10.054688 24.03125 C 10.414063 24.007813 10.738281 23.847656 10.9375 23.5 C 11.238281 22.980469 11.050781 22.410156 10.570313 22.136719 L 8.839844 21.136719 C 8.71875 21.066406 8.59375 21.019531 8.464844 21 Z M 25.53125 21 C 25.40625 21.019531 25.28125 21.066406 25.160156 21.136719 L 23.425781 22.136719 C 22.949219 22.410156 22.761719 22.980469 23.0625 23.5 C 23.261719 23.847656 23.585938 24.007813 23.945313 24.03125 C 24.125 24.042969 24.269531 23.957031 24.425781 23.863281 L 26.160156 22.863281 C 26.640625 22.589844 26.824219 22.019531 26.527344 21.5 C 26.300781 21.109375 25.914063 20.945313 25.53125 21 Z M 17.074219 22.007813 C 14.320313 22.007813 12.082031 24.246094 12.082031 27 C 12.082031 29.753906 14.320313 31.992188 17.074219 31.992188 C 19.828125 31.992188 22.066406 29.753906 22.066406 27 C 22.066406 24.246094 19.828125 22.007813 17.074219 22.007813 Z M 17.074219 23.992188 C 18.738281 23.992188 20.082031 25.335938 20.082031 27 C 20.082031 28.664063 18.738281 30.007813 17.074219 30.007813 C 15.410156 30.007813 14.066406 28.664063 14.066406 27 C 14.066406 25.335938 15.410156 23.992188 17.074219 23.992188 Z M 7 26 C 6.445313 26 6 26.398438 6 27 C 6 27.601563 6.445313 28 7 28 L 9 28 C 9.554688 28 10 27.601563 10 27 C 10 26.398438 9.554688 26 9 26 Z M 25 26 C 24.445313 26 24 26.398438 24 27 C 24 27.601563 24.445313 28 25 28 L 27 28 C 27.554688 28 28 27.601563 28 27 C 28 26.398438 27.554688 26 27 26 Z M 9.945313 30 C 9.816406 30.019531 9.691406 30.066406 9.570313 30.136719 L 7.839844 31.136719 C 7.363281 31.410156 7.171875 31.980469 7.472656 32.5 C 7.671875 32.847656 7.996094 33.007813 8.355469 33.03125 C 8.535156 33.042969 8.679688 32.957031 8.839844 32.863281 L 10.570313 31.863281 C 11.050781 31.589844 11.238281 31.019531 10.9375 30.5 C 10.714844 30.109375 10.328125 29.945313 9.945313 30 Z M 24.054688 30 C 23.671875 29.945313 23.289063 30.109375 23.0625 30.5 C 22.761719 31.019531 22.949219 31.589844 23.425781 31.863281 L 25.160156 32.863281 C 25.320313 32.957031 25.464844 33.042969 25.640625 33.03125 C 26.003906 33.007813 26.324219 32.847656 26.527344 32.5 C 26.824219 31.980469 26.640625 31.410156 26.160156 31.136719 L 24.425781 30.136719 C 24.308594 30.066406 24.183594 30.019531 24.054688 30 Z M 13.105469 32.925781 C 12.710938 32.875 12.339844 33.070313 12.136719 33.425781 L 11.136719 35.160156 C 10.859375 35.640625 10.980469 36.226563 11.5 36.527344 C 11.671875 36.625 11.867188 36.683594 12 36.660156 C 12.34375 36.660156 12.679688 36.480469 12.863281 36.160156 L 13.863281 34.425781 C 14.140625 33.949219 14.019531 33.363281 13.5 33.0625 C 13.371094 32.988281 13.238281 32.941406 13.105469 32.925781 Z M 20.894531 32.925781 C 20.761719 32.941406 20.628906 32.988281 20.5 33.0625 C 19.980469 33.363281 19.859375 33.949219 20.136719 34.425781 L 21.136719 36.160156 C 21.320313 36.484375 21.65625 36.660156 22 36.660156 C 22.132813 36.683594 22.328125 36.625 22.5 36.527344 C 23.019531 36.226563 23.140625 35.640625 22.863281 35.160156 L 21.863281 33.425781 C 21.660156 33.070313 21.289063 32.875 20.894531 32.925781 Z M 17 34 C 16.398438 34 16 34.445313 16 35 L 16 37 C 16 37.554688 16.398438 38 17 38 C 17.601563 38 18 37.554688 18 37 L 18 35 C 18 34.445313 17.601563 34 17 34 Z M 45 35.800781 C 45.25 35.800781 45.5 35.898438 45.699219 36.097656 L 47.96875 38.371094 C 43.226563 39.511719 39.492188 43.25 38.363281 48 L 32.402344 48 L 44.300781 36.097656 C 44.5 35.898438 44.75 35.800781 45 35.800781 Z M 51 40 C 57.066406 40 62 44.933594 62 51 C 62 57.066406 57.066406 62 51 62 C 44.933594 62 40 57.066406 40 51 C 40 44.933594 44.933594 40 51 40 Z M 29 40.800781 C 29.25 40.800781 29.5 40.898438 29.699219 41.097656 L 33.097656 44.5 L 29.597656 48 L 21.402344 48 L 28.300781 41.097656 C 28.5 40.898438 28.75 40.800781 29 40.800781 Z M 51 44 C 50.449219 44 50 44.449219 50 45 L 50 50 L 45 50 C 44.449219 50 44 50.449219 44 51 C 44 51.550781 44.449219 52 45 52 L 50 52 L 50 57 C 50 57.550781 50.449219 58 51 58 C 51.550781 58 52 57.550781 52 57 L 52 52 L 57 52 C 57.550781 52 58 51.550781 58 51 C 58 50.449219 57.550781 50 57 50 L 52 50 L 52 45 C 52 44.449219 51.550781 44 51 44 Z M 7 48 C 6.398438 48 6 48.398438 6 49 C 6 49.601563 6.398438 50 7 50 L 11 50 C 11.601563 50 12 49.601563 12 49 C 12 48.398438 11.601563 48 11 48 Z"/></svg>