<svg xmlns="http://www.w3.org/2000/svg" width="50" height="50" viewBox="0 0 40 40"><path fill="#fff" d="M6.5 37.5L6.5 2.5 24.793 2.5 33.5 11.207 33.5 37.5z"/><path fill="#4788c7" d="M24.586,3L33,11.414V37H7V3H24.586 M25,2H6v36h28V11L25,2L25,2z"/><path fill="#dff0fe" d="M24.5 11.5L24.5 2.5 24.793 2.5 33.5 11.207 33.5 11.5z"/><path fill="#4788c7" d="M25,3.414L32.586,11H25V3.414 M25,2h-1v10h10v-1L25,2L25,2z"/><path fill="#fff" d="M21 19H34V38H21z"/><path fill="#4788c7" d="M33.5 18L33.5 18c.275 0 .5.225.5.5v1c0 .275-.225.5-.5.5l0 0c-.275 0-.5-.225-.5-.5v-1C33 18.225 33.225 18 33.5 18zM20.5 38h1c.275 0 .5-.225.5-.5l0 0c0-.275-.225-.5-.5-.5h-1c-.275 0-.5.225-.5.5l0 0C20 37.775 20.225 38 20.5 38z"/><path fill="#98ccfd" d="M31 22.5A8.5 8.5 0 1 0 31 39.5A8.5 8.5 0 1 0 31 22.5Z"/><path fill="#4788c7" d="M31,23c4.411,0,8,3.589,8,8s-3.589,8-8,8s-8-3.589-8-8S26.589,23,31,23 M31,22 c-4.971,0-9,4.029-9,9s4.029,9,9,9s9-4.029,9-9S35.971,22,31,22L31,22z"/><path fill="none" stroke="#fff" stroke-miterlimit="10" stroke-width="2" d="M31 36L31 26M26 31L36 31"/></svg>