<svg xmlns="http://www.w3.org/2000/svg" width="50" height="50" fill="#000" viewBox="0 0 50 50"><path d="M 5 4 C 3.3544268 4 2 5.3555411 2 7 L 2 16 L 2 26 L 2 43 C 2 44.644459 3.3544268 46 5 46 L 32 46 A 1.0001 1.0001 0 0 0 32.027344 45.998047 C 33.856702 48.420289 36.748552 50 40 50 C 45.5 50 50 45.5 50 40 C 50 37.766393 49.247954 35.704489 47.998047 34.035156 A 1.0001 1.0001 0 0 0 48 34 L 48 11 C 48 9.3549372 46.645063 8 45 8 L 18 8 C 18.08657 8 17.96899 8.000364 17.724609 7.71875 C 17.480227 7.437136 17.179419 6.9699412 16.865234 6.46875 C 16.55105 5.9675588 16.221777 5.4327899 15.806641 4.9628906 C 15.391504 4.4929914 14.818754 4 14 4 L 5 4 z M 5 6 L 14 6 C 13.93925 6 14.06114 6.00701 14.308594 6.2871094 C 14.556051 6.5672101 14.857231 7.0324412 15.169922 7.53125 C 15.482613 8.0300588 15.806429 8.562864 16.212891 9.03125 C 16.619352 9.499636 17.178927 10 18 10 L 45 10 C 45.562937 10 46 10.437063 46 11 L 46 13.1875 C 45.685108 13.07394 45.351843 13 45 13 L 5 13 C 4.6481575 13 4.3148915 13.07394 4 13.1875 L 4 7 C 4 6.4364589 4.4355732 6 5 6 z M 5 15 L 45 15 C 45.56503 15 46 15.43497 46 16 L 46 32.027344 C 44.324674 30.761674 42.249111 30 40 30 C 34.5 30 30 34.5 30 40 C 30 41.421143 30.305196 42.772767 30.845703 44 L 5 44 C 4.4355732 44 4 43.563541 4 43 L 4 16 C 4 15.43497 4.4349698 15 5 15 z M 40 32 C 44.4 32 48 35.6 48 40 C 48 44.4 44.4 48 40 48 C 35.6 48 32 44.4 32 40 C 32 35.6 35.6 32 40 32 z M 40 34.099609 C 39.4 34.099609 39 34.499609 39 35.099609 L 39 39 L 35.099609 39 C 34.499609 39 34.099609 39.4 34.099609 40 C 34.099609 40.6 34.499609 41 35.099609 41 L 39 41 L 39 44.900391 C 39 45.500391 39.4 45.900391 40 45.900391 C 40.6 45.900391 41 45.500391 41 44.900391 L 41 41 L 44.900391 41 C 45.500391 41 45.900391 40.6 45.900391 40 C 45.900391 39.4 45.500391 39 44.900391 39 L 41 39 L 41 35.099609 C 41 34.499609 40.6 34.099609 40 34.099609 z"/></svg>