<svg xmlns="http://www.w3.org/2000/svg" width="500" height="500" viewBox="0 0 30 30"><path fill="#dbb065" d="M1.5,26.5v-23h8.3l3,3h15.7V26c0,0.3-0.2,0.5-0.5,0.5H1.5z"/><path fill="#967a44" d="M9.6,4l2.7,2.7L12.6,7H13h15v19H2V4H9.6 M10,3H1v24h27c0.6,0,1-0.4,1-1V6H13L10,3L10,3z"/><path fill="#f5ce85" d="M1.5,26.5v-18h8.7l3-2h15.3V26c0,0.3-0.2,0.5-0.5,0.5H1.5z"/><path fill="#967a44" d="M28,7v19H2V9h8h0.3l0.3-0.2L13.3,7H28 M29,6H13l-3,2H1v19h27c0.6,0,1-0.4,1-1V6L29,6z"/><path fill="#bae0bd" d="M23 16.5A6.5 6.5 0 1 0 23 29.5A6.5 6.5 0 1 0 23 16.5Z"/><path fill="#5e9c76" d="M23,17c3.3,0,6,2.7,6,6s-2.7,6-6,6s-6-2.7-6-6S19.7,17,23,17 M23,16c-3.9,0-7,3.1-7,7s3.1,7,7,7 s7-3.1,7-7S26.9,16,23,16L23,16z"/><path fill="#fff" d="M22 19H24V27H22z"/><path fill="#fff" d="M19 22H27V24H19z"/></svg>