<svg xmlns="http://www.w3.org/2000/svg" width="100" height="100" viewBox="0 0 100 100"><path fill="#fff" d="M19.8 55.1A.9.9 0 1 0 19.8 56.9.9.9 0 1 0 19.8 55.1zM78.9 30.400000000000002A.7.7 0 1 0 78.9 31.8.7.7 0 1 0 78.9 30.400000000000002z"/><path fill="#f1bc19" d="M76.2 11.2A.9.9 0 1 0 76.2 13 .9.9 0 1 0 76.2 11.2zM20.3 62.800000000000004A.9.9 0 1 0 20.3 64.60000000000001.9.9 0 1 0 20.3 62.800000000000004z"/><path fill="#e6edb7" d="M49.1 11.799999999999997A37.5 37.5 0 1 0 49.1 86.8A37.5 37.5 0 1 0 49.1 11.799999999999997Z"/><path fill="#f1bc19" d="M81.7 10.2A4 4 0 1 0 81.7 18.2A4 4 0 1 0 81.7 10.2Z"/><path fill="#88ae45" d="M85.7 21.400000000000002A1.9 1.9 0 1 0 85.7 25.2A1.9 1.9 0 1 0 85.7 21.400000000000002Z"/><path fill="#fbcd59" d="M76.7 73.8A1.9 1.9 0 1 0 76.7 77.60000000000001 1.9 1.9 0 1 0 76.7 73.8zM13.5 58.8A4 4 0 1 0 13.5 66.8 4 4 0 1 0 13.5 58.8z"/><path fill="#88ae45" d="M23.8 85A1.9 1.9 0 1 0 23.8 88.80000000000001A1.9 1.9 0 1 0 23.8 85Z"/><path fill="#fff" d="M75.3 27.8A1.8 1.8 0 1 0 75.3 31.400000000000002 1.8 1.8 0 1 0 75.3 27.8zM17.3 48.2A2.5 2.5 0 1 0 17.3 53.2 2.5 2.5 0 1 0 17.3 48.2z"/><path fill="#f6cca4" d="M59.5,40.9c0.1-1.5-0.3-2.8-0.2-3.6l0,0c-1.3-1.7-2.2-3.6-4-4.8c-2.1-1.3-4.4-2.2-6.8-2.8 c-5.7-1.4-11.3,2.7-13.1,8.1l-0.1,0.1c0.2,1,0.3,2,0.4,2.9c-1.5,0-2.3,0.8-1.8,2.4c0,0,0.6,2.6,1,3.9c0.1,0.7,0.8,1.2,1.5,1.2 c0,0.8,0,1.7,0,2.5c0,1,0.3,2,0.8,2.8c1.5,2.2,9.2,7.2,11.1,7c3,0,9-5.1,10.6-7.7c0.3-0.5,0.4-1.1,0.5-1.7c0-1,0-2,0-3 c0.6-0.1,1.1-0.6,1.3-1.2c0.4-1.3,1-3.9,1-3.9C62.2,41.7,61,40.9,59.5,40.9z"/><path fill="#edbc94" d="M64.1,66.5l-0.3-0.1l-0.6-0.2c-1.2-0.5-9.3-3.3-9.3-3.3c-0.6-0.2-1-0.6-1.2-1.1 c-0.2-1-0.3-1.9-0.2-2.9c-1.4,0.6-2.8,1.1-4.2,1.4c-1.9,0.2-5.2-2.3-5.2-2.3s-0.1,3-0.2,3.7c-0.2,0.6-0.7,1-1.3,1.1l-7.7,2.6 c-0.8,0.2-1.5,0.5-2.2,0.9c-1.6,1.1-2.8,2.8-3.3,4.7l0,0c0,0.1,0,0.3-0.1,0.6c-0.1,0.5-0.2,0.9-0.2,1.4c0,0.5-0.1,7.1-0.1,7.7 c8.6,4.8,15.4,5,25.9,5c4.6,0,10-3.2,14.1-4.8C67.6,71.4,68.3,67.8,64.1,66.5z"/><g opacity=".3"><path fill="#f4989e" d="M40.7 47.5A2 2 0 1 0 40.7 51.5 2 2 0 1 0 40.7 47.5zM55.8 47.5A2 2 0 1 0 55.8 51.5 2 2 0 1 0 55.8 47.5z" opacity=".8"/></g><path fill="#472b29" d="M36.6 49.1c-.1 0-.2-.1-.2-.2l-.8-8c0-.1.1-.2.2-.2.1 0 .2.1.2.2l.8 8C36.9 49 36.8 49.1 36.6 49.1 36.7 49.1 36.7 49.1 36.6 49.1zM59.2 48.7C59.2 48.7 59.2 48.7 59.2 48.7c-.1 0-.2-.1-.2-.2l.5-8.1c0-.1.1-.2.2-.2.1 0 .2.1.2.2l-.5 8.1C59.4 48.6 59.3 48.7 59.2 48.7z"/><path fill="#6d1b18" d="M44.8,53.7c0,0.2-0.1,0.3-0.1,0.5c0,1.4,1.5,2.5,3.5,2.5s3.5-1.1,3.5-2.5c0-0.2,0-0.3-0.1-0.5 H44.8z"/><path fill="#ee3e54" d="M50,56.3c-0.5-0.4-1.2-0.6-1.8-0.6c-0.7,0-1.3,0.2-1.8,0.6C47.5,56.8,48.8,56.8,50,56.3z"/><path fill="#fdfcef" d="M45.8,53.7L45.8,53.7v0.4c0,0.4,0.5,0.7,1.1,0.7h2.6c0.6,0,1.1-0.3,1.1-0.7v-0.4l0,0H45.8z"/><path fill="#472b29" d="M48.2,56.9c-2,0-3.6-1.2-3.6-2.7c0-0.2,0-0.4,0.1-0.5c0-0.1,0.1-0.1,0.2-0.1h6.8 c0.1,0,0.2,0.1,0.2,0.1c0,0.2,0.1,0.3,0.1,0.5C51.8,55.6,50.2,56.9,48.2,56.9z M44.9,53.9c0,0.1,0,0.2,0,0.3 c0,1.3,1.5,2.3,3.2,2.3c1.8,0,3.3-1,3.3-2.3c0-0.1,0-0.2,0-0.3H44.9z"/><path fill="#fdfcef" d="M39.1,63.7c-0.2,9,17.4,9.6,16.2-0.7l4.9,1.7l1.4,19.4c0,0-16.1,5.1-28.4-0.7l0.7-18L39.1,63.7z"/><path fill="#472b29" d="M48.2 51.8c.8 0 1.5-.3 2-.9 0-.1 0-.1 0-.2l0 0c-.1 0-.1 0-.2 0-1 .9-2.6.9-3.6 0 0 0-.1 0-.1 0 0 0-.1 0-.1 0-.1 0-.1.1 0 .2 0 0 0 0 0 0C46.7 51.5 47.4 51.8 48.2 51.8zM49.1 58.5C49.1 58.5 49.2 58.5 49.1 58.5c.1-.1 0-.2 0-.2h-1.8c0 0-.1 0-.1.1s0 .1.1.1H49.1z" opacity=".41"/><path fill="#512c2b" d="M46.2 39.8c-2.4-.7-4.9-1-7.4-.8-.1 0-.2.1-.2.2 0 .1.1.2.2.2 0 0 5.1.9 6.6 1.4h.1c.1 0 .2 0 .2-.1l.6-.7c0-.1 0-.1 0-.2C46.3 39.8 46.2 39.8 46.2 39.8zM50.2 39.5c2.4-.6 5-.7 7.5-.4.1 0 .2.1.2.2s-.1.2-.2.2c0 0-5.1.6-6.7 1.1h-.1c-.1 0-.2 0-.2-.1L50 39.8c0-.1 0-.1 0-.2C50 39.6 50.1 39.6 50.2 39.5z"/><path fill="#472b29" d="M42.6 41.8c-.5 0-1 .3-1.2.8.1 0 .1 0 .2 0 .5.1.8.5.7.9 0 .4-.3.7-.7.7-.1 0-.3 0-.4-.1.1.7.7 1.2 1.4 1.3 1-.2 1.6-1.3 1.4-2.3C43.8 42.5 43.3 42 42.6 41.8L42.6 41.8zM53.6 41.8c-.4 0-.8.2-1.1.6.1 0 .2 0 .3 0 .5.1.8.5.7.9 0 .4-.3.7-.7.7-.3 0-.5-.1-.6-.4.2.8 1 1.3 1.8 1.1.8-.2 1.3-1 1.1-1.8C54.9 42.3 54.3 41.9 53.6 41.8L53.6 41.8z"/><path fill="#472b29" d="M47.3,86.9c-7,0-14.3-1.7-19.6-6.4c-0.1-0.1-0.2-0.3-0.2-0.4c0-0.1,0-0.2,0-0.4 c-0.2-7.5,1.1-12.1,4-13.6c0.7-0.4,1.5-0.7,2.3-0.9l7.7-2.6c0.5-0.1,0.8-0.4,1-0.8c0.1-0.4,0.2-2.1,0.2-2.9 c-2.3-1.5-4.9-3.4-5.8-4.7c-0.6-0.9-1-2-0.9-3.1l0-2c-0.7-0.2-1.3-0.8-1.5-1.6c-0.4-1.2-1-3.8-1-3.9c-0.4-1.1-0.1-1.8,0.2-2.2 c0.2-0.3,0.7-0.7,1.6-0.8c0-0.1,0-0.3,0-0.4c-0.3-0.6-0.4-1.2-0.5-1.8c0-6.5,5.8-11.8,12.9-11.8c7.1,0,12.9,5.3,12.9,11.8 c0,0.7-0.2,1.3-0.5,1.9c0,0,0,0,0,0c0,0.1,0,0.2,0,0.3c0.8,0.1,1.5,0.5,1.9,1c0.3,0.4,0.6,1.1,0.2,2.1c-0.1,0.6-0.7,3-1,3.9 c-0.1,0.6-0.6,1.2-1.2,1.4v2.6c0,0.7-0.2,1.3-0.5,1.9c-1.8,2.4-3.9,4.4-6.4,6c0,0.8,0,1.5,0.2,2.3c0.1,0.3,0.5,0.6,0.9,0.7 c0.4,0.1,8.1,2.7,9.3,3.3l0.9,0.3c3.8,1.2,3.9,4,4.1,10.2c0,1.3,0.1,2.8,0.2,4.5c0,0.2-0.1,0.3-0.2,0.4 C64.9,84.1,56.3,86.9,47.3,86.9z M28.5,79.9c11.8,10.1,32.8,5.5,39,0.7c-0.1-1.6-0.1-3-0.1-4.2c-0.2-6.1-0.2-8.3-3.4-9.3 c0,0,0,0,0,0L63,66.7c-1.2-0.5-9.1-3.2-9.2-3.2c-0.7-0.2-1.2-0.7-1.5-1.4c-0.3-1-0.3-2-0.3-2.9c0-0.2,0.1-0.3,0.2-0.4 c2.5-1.6,4.6-3.5,6.3-5.9c0.2-0.4,0.3-0.9,0.4-1.4l0-3c0-0.3,0.2-0.5,0.4-0.5c0.4-0.1,0.8-0.4,0.8-0.8c0.4-1.3,1-3.8,1-3.9 c0.2-0.6,0.2-1-0.1-1.3c-0.3-0.4-0.9-0.6-1.6-0.6c-0.3,0-0.5-0.2-0.5-0.5c0-0.8,0-1.2,0.2-1.3c0.2-0.4,0.3-0.9,0.3-1.4 c0-5.9-5.3-10.8-11.9-10.8c-6.6,0-11.9,4.8-11.9,10.8c0,0.5,0.2,1,0.4,1.5c0,0.1,0,0.1,0,0.2c0,0.3,0.1,0.7,0.1,1 c0,0.1,0,0.3-0.1,0.4s-0.2,0.2-0.4,0.2c-0.4,0-1,0.1-1.3,0.4c-0.3,0.4-0.2,0.9,0,1.3c0,0.1,0.6,2.7,1,3.9c0.1,0.5,0.5,0.9,1,0.9 c0,0,0,0,0,0c0.1,0,0.3,0.1,0.4,0.1c0.1,0.1,0.1,0.2,0.1,0.4V51c0,0.9,0.2,1.8,0.8,2.5c0.7,1,3.1,2.9,5.8,4.6 c0.2,0.1,0.2,0.3,0.2,0.5l0,0.2c-0.1,1.3-0.2,2.7-0.3,3.1c-0.2,0.8-0.9,1.4-1.7,1.6L34,66.1c-0.7,0.2-1.4,0.5-2.1,0.9 c-1.7,0.9-3.7,3.8-3.4,12.6C28.5,79.7,28.5,79.8,28.5,79.9z"/><path fill="#472b29" d="M48.4,60.4c-1.9,0-5-1.7-5.2-1.7c-0.1-0.1-0.2-0.2-0.1-0.3c0.1-0.1,0.2-0.2,0.3-0.1 c0,0,3.4,1.8,5.1,1.7c1.5-0.3,3-0.8,4.3-1.6c0.1-0.1,0.3,0,0.3,0.1c0.1,0.1,0,0.3-0.1,0.3c-1.4,0.8-2.9,1.4-4.5,1.7 C48.6,60.4,48.5,60.4,48.4,60.4z"/><path fill="#3a2221" d="M57.2,23.8c0-0.2,0-0.5-0.1-0.7c0.1-0.2,0.1-0.4,0.1-0.6c0-1.3-0.9-2.5-2.2-2.8 c-0.2-1.7-1.6-3-3.4-3c-1-1.9-3.3-2.7-5.2-1.7c-0.6,0.3-1.2,0.8-1.5,1.4c-0.3-0.1-0.5-0.1-0.8-0.1c-1.7-0.1-3.1,1.2-3.2,2.8 c0,0,0,0,0,0.1c0,0.1,0,0.1,0,0.2c-1.5,0.4-2.5,1.7-2.5,3.2c0,0.8,0.3,1.5,0.8,2.1c-0.4,0.5-0.6,1.1-0.6,1.7 c0.1,1.6,1.5,2.9,3.1,2.8c0.4,0,0.9-0.1,1.3-0.2c0.1,1.4,1.3,2.4,2.7,2.4c0.3,0,0.6,0,0.8-0.1c0.8,0.9,1.9,1.3,3,1.3 c1.8,0.1,3.3-1.2,3.7-2.9c1.2-0.4,2.1-1.5,2.3-2.8C56.5,26.1,57.2,25,57.2,23.8z"/><path fill="#512c2b" d="M47.8,22.8c-11.5,0-15.5,9.7-12.1,19.3c0.2,0.4,0.9,0.4,1-0.1c0.5-5.4,3-10,11.2-7.7 c8.1-2.3,10.6,2.3,11.1,7.7c0,0.5,0.8,0.5,1,0.1C63.3,32.5,59.2,22.8,47.8,22.8z"/><path fill="#88ae45" d="M46.7 41.4C44.5 38.6 36 40.6 36 40.6c.2.6.3 1.2.4 1.8.6.1.7 1.5.7 2 .3 2.5 2 4.3 5.5 4.3 2.4.1 4.4-1.9 4.5-4.3 0 0 0 0 0-.1C47.2 43.3 47.1 42.3 46.7 41.4zM46.3 44.5c0 2-1.6 3.7-3.7 3.7 0 0-.1 0-.1 0-.2 0-.4 0-.7 0-3.5 0-4.1-3.1-4.2-5-.1-1.1.8-2.1 1.9-2.2.6-.1 1.4-.1 2.2-.1 2.6 0 3.8.6 4.1 1.1C46.2 42.7 46.4 43.6 46.3 44.5zM49.2 44.3c0 2.4 2 4.4 4.5 4.3 0 0 0 0 0 0 3.5.1 5.2-1.8 5.5-4.3.1-.5.1-1.9.7-2 .1-.6.3-1.2.4-1.8 0 0-8.5-1.9-10.7.8C49.2 42.3 49.1 43.3 49.2 44.3zM50.5 42c.3-.5 1.4-1.1 4.1-1.1.8 0 1.6 0 2.2.1 1.1.1 1.9 1.1 1.9 2.2-.1 1.9-.7 5-4.2 5-.2 0-.4 0-.7 0-2 .1-3.7-1.5-3.8-3.5 0 0 0-.1 0-.1C49.9 43.6 50.1 42.8 50.5 42z"/><path fill="#88ae45" d="M49.7,43.5c-0.5-0.3-1-0.5-1.6-0.5c-0.5,0-1,0.1-1.5,0.5c-0.2-0.4-0.3-0.8-0.5-1.3h4 C50,42.7,49.8,43.1,49.7,43.5z"/><g><path fill="#fdfcee" d="M69.6 57.800000000000004A14.4 14.4 0 1 0 69.6 86.60000000000001A14.4 14.4 0 1 0 69.6 57.800000000000004Z"/><path fill="#472b29" d="M69.6,87c-8.2,0-14.8-6.6-14.8-14.8c0-8.2,6.6-14.8,14.8-14.8c8.2,0,14.8,6.6,14.8,14.8 C84.4,80.4,77.8,87,69.6,87z M69.6,58.1c-7.8,0-14.1,6.3-14.1,14.1s6.3,14.1,14.1,14.1s14.1-6.3,14.1-14.1S77.4,58.1,69.6,58.1z"/></g><g><path fill="#93bc39" d="M69.6 60.300000000000004A11.9 11.9 0 1 0 69.6 84.10000000000001A11.9 11.9 0 1 0 69.6 60.300000000000004Z"/><path fill="#472b29" d="M69.6,84.4c-6.7,0-12.2-5.5-12.2-12.2c0-6.7,5.5-12.2,12.2-12.2c6.7,0,12.2,5.5,12.2,12.2 C81.8,78.9,76.4,84.4,69.6,84.4z M69.6,60.5c-6.4,0-11.7,5.2-11.7,11.7s5.2,11.7,11.7,11.7s11.7-5.2,11.7-11.7 S76.1,60.5,69.6,60.5z"/></g><path fill="#c0d078" d="M69.7,62.1c5.1,0,9.7,3.1,11.5,7.9 c-1.2-6.3-7.3-10.5-13.6-9.3c-4.7,0.9-8.4,4.6-9.3,9.3C60,65.2,64.6,62.1,69.7,62.1z" opacity=".79"/><path fill="#fdfcee" d="M69.6,78.5c-0.7,0-1.2-0.5-1.2-1.2l0,0v-3.9h-3.9c-0.6-0.1-1.1-0.6-1.1-1.3c0.1-0.6,0.5-1,1.1-1.1 h3.9v-3.9c0-0.7,0.5-1.2,1.2-1.2s1.2,0.5,1.2,1.2V71h3.9c0.6,0.1,1.1,0.6,1.1,1.3c-0.1,0.6-0.5,1-1.1,1.1h-3.9v4 C70.8,78,70.3,78.5,69.6,78.5L69.6,78.5z"/><path fill="#472b29" d="M69.6,66.1c0.5,0,0.9,0.4,0.9,0.9l0,0v4.2h4.2c0.5,0.1,0.9,0.5,0.8,1c0,0.4-0.4,0.8-0.8,0.8h-4.2 v4.2c0,0.5-0.4,0.9-0.9,0.9s-0.9-0.4-0.9-0.9v-4.2h-4.2c-0.5-0.1-0.9-0.5-0.8-1c0-0.4,0.4-0.8,0.8-0.8h4.2v-4.2 C68.7,66.6,69.1,66.1,69.6,66.1L69.6,66.1 M69.6,65.6c-0.8,0-1.4,0.6-1.4,1.4l0,0v3.7h-3.7c-0.8,0.1-1.4,0.8-1.3,1.5 c0.1,0.7,0.6,1.2,1.3,1.3h3.7v3.7c0,0.8,0.6,1.4,1.4,1.4s1.4-0.6,1.4-1.4v-3.7h3.7c0.8-0.1,1.4-0.8,1.3-1.5 c-0.1-0.7-0.6-1.2-1.3-1.3h-3.7v-3.7C71.1,66.3,70.4,65.6,69.6,65.6L69.6,65.6z"/></svg>