<svg xmlns="http://www.w3.org/2000/svg" width="100" height="100" viewBox="0 0 80 80"><path fill="#8bb7f0" d="M52.2,42.5c-3.9,0-7.6-1.5-10.4-4.3s-4.3-6.5-4.3-10.4s1.5-7.6,4.3-10.4L52.4,6.8 c2.8-2.8,6.5-4.3,10.4-4.3c3.9,0,7.6,1.5,10.4,4.3s4.3,6.5,4.3,10.4s-1.5,7.6-4.3,10.4L62.6,38.2C59.9,41,56.2,42.5,52.2,42.5z M62.8,9.6c-2.1,0-4,0.8-5.4,2.2L46.8,22.4c-1.4,1.4-2.2,3.4-2.2,5.4s0.8,4,2.2,5.4c1.4,1.4,3.4,2.2,5.4,2.2s4-0.8,5.4-2.2 l10.6-10.6c1.4-1.4,2.2-3.4,2.2-5.4s-0.8-4-2.2-5.4S64.9,9.6,62.8,9.6z"/><path fill="#4e7ab5" d="M62.8,3c3.8,0,7.4,1.5,10.1,4.2c2.7,2.7,4.2,6.3,4.2,10.1s-1.5,7.4-4.2,10.1L62.3,37.8 C59.6,40.5,56,42,52.2,42s-7.4-1.5-10.1-4.2c-2.7-2.7-4.2-6.3-4.2-10.1s1.5-7.4,4.2-10.1L52.7,7.2C55.4,4.5,59,3,62.8,3 M52.3,35.9 c2.2,0,4.3-0.8,5.8-2.4L68.6,23c1.5-1.5,2.4-3.6,2.4-5.8s-0.8-4.3-2.4-5.8S65,9.1,62.8,9.1c-2.2,0-4.3,0.8-5.8,2.4L46.5,22 c-1.5,1.5-2.4,3.6-2.4,5.8s0.8,4.3,2.4,5.8C48,35.1,50.1,35.9,52.3,35.9 M62.8,2C58.9,2,55,3.5,52,6.4L41.4,17 c-5.9,5.9-5.9,15.6,0,21.5c3,3,6.9,4.4,10.8,4.4S60,41.5,63,38.6L73.6,28c5.9-5.9,5.9-15.6,0-21.5C70.6,3.5,66.7,2,62.8,2L62.8,2z M52.3,34.9c-1.9,0-3.7-0.7-5.1-2.1c-1.3-1.3-2.1-3.1-2.1-5.1s0.7-3.7,2.1-5.1l10.6-10.6c1.3-1.3,3.1-2.1,5.1-2.1 c1.9,0,3.7,0.7,5.1,2.1c1.3,1.3,2.1,3.1,2.1,5.1s-0.7,3.7-2.1,5.1L57.4,32.9C56,34.2,54.2,34.9,52.3,34.9L52.3,34.9z"/><path fill="#8bb7f0" d="M17.2,77.5c-3.9,0-7.6-1.5-10.4-4.3C4,70.4,2.5,66.7,2.5,62.8S4,55.1,6.8,52.4l10.6-10.6 c2.8-2.8,6.5-4.3,10.4-4.3s7.6,1.5,10.4,4.3s4.3,6.5,4.3,10.4s-1.5,7.6-4.3,10.4L27.6,73.2C24.9,76,21.2,77.5,17.2,77.5z M27.8,44.6c-2.1,0-4,0.8-5.4,2.2L11.8,57.4c-1.4,1.4-2.2,3.4-2.2,5.4s0.8,4,2.2,5.4c1.4,1.4,3.4,2.2,5.4,2.2s4-0.8,5.4-2.2 l10.6-10.6c1.4-1.4,2.2-3.4,2.2-5.4s-0.8-4-2.2-5.4S29.9,44.6,27.8,44.6z"/><path fill="#4e7ab5" d="M27.8,38c3.8,0,7.4,1.5,10.1,4.2c2.7,2.7,4.2,6.3,4.2,10.1s-1.5,7.4-4.2,10.1L27.3,72.8 C24.6,75.5,21,77,17.2,77s-7.4-1.5-10.1-4.2C4.5,70.2,3,66.6,3,62.8s1.5-7.4,4.2-10.1l10.6-10.6C20.4,39.5,24,38,27.8,38 M17.3,70.9c2.2,0,4.3-0.8,5.8-2.4L33.6,58c1.5-1.5,2.4-3.6,2.4-5.8c0-2.2-0.8-4.3-2.4-5.8c-1.5-1.5-3.6-2.4-5.8-2.4 c-2.2,0-4.3,0.8-5.8,2.4L11.5,57c-1.5,1.5-2.4,3.6-2.4,5.8s0.8,4.2,2.4,5.8C13,70.1,15.1,70.9,17.3,70.9 M27.8,37 c-3.9,0-7.8,1.5-10.8,4.4L6.4,52c-5.9,5.9-5.9,15.6,0,21.5c3,3,6.9,4.4,10.8,4.4S25,76.5,28,73.6L38.6,63c5.9-5.9,5.9-15.6,0-21.5 C35.6,38.5,31.7,37,27.8,37L27.8,37z M17.3,69.9c-1.9,0-3.7-0.7-5.1-2.1s-2.1-3.1-2.1-5.1c0-1.9,0.7-3.7,2.1-5.1l10.6-10.6 c1.3-1.3,3.1-2.1,5.1-2.1c1.9,0,3.7,0.7,5.1,2.1c1.3,1.3,2.1,3.1,2.1,5.1c0,1.9-0.7,3.7-2.1,5.1L22.4,67.9 C21,69.2,19.2,69.9,17.3,69.9L17.3,69.9z"/><path fill="#8bb7f0" d="M29.8,53.5c-1.1,0-2.2-0.6-2.8-1.6c-0.8-1.3-0.6-3.1,0.6-4.3l20.1-20.1c0.7-0.7,1.6-1.1,2.6-1.1 c0.7,0,1.3,0.2,1.8,0.6c0.8,0.6,1.3,1.5,1.4,2.4c0.1,1-0.3,1.9-1,2.6L32.1,52.5C31.5,53.2,30.7,53.5,29.8,53.5z"/><path fill="#4e7ab5" d="M50.3,27L50.3,27c0.6,0,1.1,0.2,1.5,0.5c0.7,0.5,1.1,1.2,1.2,2.1c0.1,0.8-0.2,1.6-0.8,2.2L31.8,52.2 c-0.5,0.5-1.2,0.8-2,0.8c-1,0-1.9-0.5-2.4-1.3c-0.7-1.1-0.5-2.6,0.6-3.6L48,27.9C48.6,27.3,49.5,27,50.3,27 M50.3,26 c-1.1,0-2.2,0.4-3,1.2L27.2,47.3c-1.3,1.3-1.7,3.3-0.7,4.9c0.8,1.2,2,1.8,3.2,1.8c1,0,2-0.4,2.7-1.1l20.4-20.4 c1.6-1.6,1.5-4.4-0.5-5.8C51.8,26.2,51,26,50.3,26L50.3,26z"/><g><path fill="#bae0bd" d="M62,79.5c-9.6,0-17.5-7.9-17.5-17.5S52.4,44.5,62,44.5S79.5,52.4,79.5,62S71.6,79.5,62,79.5z"/><path fill="#5e9c76" d="M62,45c9.4,0,17,7.6,17,17s-7.6,17-17,17s-17-7.6-17-17S52.6,45,62,45 M62,44c-9.9,0-18,8.1-18,18 s8.1,18,18,18s18-8.1,18-18S71.9,44,62,44L62,44z"/></g><path fill="#fff" d="M60 52H64V72H60z"/><path fill="#fff" d="M52 60H72V64H52z"/></svg>