<svg xmlns="http://www.w3.org/2000/svg" width="100" height="100" fill="#000" viewBox="0 0 30 30"><path d="M 15 2 C 9.6246345 2 4.9962937 5.27036 3.0214844 9.9375 A 1.0001 1.0001 0 1 0 4.8632812 10.716797 C 6.532472 6.7719368 10.435366 4 15 4 C 17.693028 4 20.148277 4.9621815 22.060547 6.5644531 A 1.0002922 1.0002922 0 1 0 23.345703 5.03125 C 21.087973 3.1395216 18.170972 2 15 2 z M 15 6 C 13.971 6 12.962953 6.1717187 12.001953 6.5117188 C 11.480953 6.6957188 11.207578 7.2661094 11.392578 7.7871094 C 11.575578 8.3081094 12.150969 8.5834375 12.667969 8.3984375 C 13.414969 8.1344375 14.199 8 15 8 C 18.543 8 21.473641 10.648359 21.931641 14.068359 C 22.282641 14.027359 22.638 14 23 14 C 23.321 14 23.637219 14.017781 23.949219 14.050781 C 23.473219 9.5327812 19.642 6 15 6 z M 25.427734 8.2402344 C 25.298562 8.2534375 25.170078 8.292625 25.048828 8.359375 C 24.564828 8.624375 24.386344 9.2327969 24.652344 9.7167969 C 25.455344 11.184797 25.89375 12.833719 25.96875 14.511719 C 26.69075 14.764719 27.375 15.098578 28 15.517578 L 28 15 C 28 12.819 27.447297 10.659859 26.404297 8.7558594 C 26.204797 8.3928594 25.81525 8.200625 25.427734 8.2402344 z M 8.5683594 9.0878906 C 8.3146094 9.1191406 8.0742969 9.2473437 7.9042969 9.4648438 C 6.6582969 11.059844 6 12.973 6 15 L 6 25 C 6 25.552 6.447 26 7 26 C 7.553 26 8 25.552 8 25 L 8 15 C 8 13.423 8.5124688 11.934312 9.4804688 10.695312 C 9.8204687 10.260312 9.7435938 9.6339688 9.3085938 9.2929688 C 9.0895937 9.1224687 8.8221094 9.0566406 8.5683594 9.0878906 z M 15 10 C 12.243 10 10 12.243 10 15 L 10 27 C 10 27.552 10.447 28 11 28 C 11.553 28 12 27.552 12 27 L 12 15 C 12 13.346 13.346 12 15 12 C 16.654 12 18 13.346 18 15 C 18 15.165 17.992234 15.353437 17.990234 15.523438 C 18.595234 15.117437 19.256125 14.790062 19.953125 14.539062 C 19.717125 12.000063 17.599 10 15 10 z M 2.9804688 13.175781 A 1.0001 1.0001 0 0 0 2.0292969 14.121094 C 2.009781 14.411663 2 14.705022 2 15 L 2 22 A 1.0001 1.0001 0 1 0 4 22 L 4 15 C 4 14.748978 4.0089096 14.50129 4.0253906 14.255859 A 1.0001 1.0001 0 0 0 2.9804688 13.175781 z M 15 14 C 14.447 14 14 14.448 14 15 L 14 21.837891 C 14 21.920891 14.027875 21.995266 14.046875 22.072266 C 14.228875 20.292266 14.933 18.668609 16 17.349609 L 16 15 C 16 14.448 15.553 14 15 14 z M 23 16 C 19.134 16 16 19.134 16 23 C 16 26.866 19.134 30 23 30 C 26.866 30 30 26.866 30 23 C 30 19.134 26.866 16 23 16 z M 23 19 C 23.552 19 24 19.447 24 20 L 24 22 L 26 22 C 26.552 22 27 22.447 27 23 C 27 23.553 26.552 24 26 24 L 24 24 L 24 26 C 24 26.553 23.552 27 23 27 C 22.448 27 22 26.553 22 26 L 22 24 L 20 24 C 19.448 24 19 23.553 19 23 C 19 22.447 19.448 22 20 22 L 22 22 L 22 20 C 22 19.447 22.448 19 23 19 z"/></svg>