<?xml version="1.0"?><svg fill="#000000" xmlns="http://www.w3.org/2000/svg" viewBox="0 0 24 24" width="100px" height="100px">    <path d="M 4 4 C 2.9 4 2 4.9 2 6 L 2 18 C 2 19.1 2.9 20 4 20 L 12.080078 20 C 12.033078 19.673 12 19.34 12 19 C 12 18.66 12.033078 18.327 12.080078 18 L 4 18 L 4 8 L 20 8 L 20 12.080078 C 20.707 12.181078 21.378 12.387594 22 12.683594 L 22 8 C 22 6.9 21.1 6 20 6 L 12 6 L 10 4 L 4 4 z M 19.007812 14.015625 C 17.731188 14.016 16.455016 14.504969 15.478516 15.480469 C 14.502516 16.456469 14.009766 17.729812 14.009766 19.007812 C 14.009766 20.285812 14.502516 21.560156 15.478516 22.535156 C 17.430516 24.487156 20.583156 24.487156 22.535156 22.535156 C 24.487156 20.583156 24.487156 17.428562 22.535156 15.476562 C 21.560156 14.502563 20.284437 14.01525 19.007812 14.015625 z M 18.011719 16.001953 L 20.011719 16.001953 L 20.011719 18.001953 L 22.011719 18.001953 L 22.011719 20.001953 L 20.011719 20.001953 L 20.011719 22.001953 L 18.011719 22.001953 L 18.011719 20.001953 L 16.011719 20.001953 L 16.011719 18.001953 L 18.011719 18.001953 L 18.011719 16.001953 z"/></svg>