<svg fill="#000000" xmlns="http://www.w3.org/2000/svg" viewBox="0 0 64 64" width="500px" height="500px"><path d="M 3 10 C 1.347656 10 0 11.347656 0 13 L 0 50 C 0 52.207031 1.792969 54 4 54 L 40.0625 54 C 42.375 57.601563 46.410156 60 51 60 C 58.167969 60 64 54.167969 64 47 C 64 42.410156 61.601563 38.375 58 36.0625 L 58 23 C 58 21.347656 56.652344 20 55 20 L 54 20 L 54 19 C 54 17.347656 52.652344 16 51 16 L 25.707031 16 C 24.910156 16 24.164063 15.691406 23.597656 15.132813 L 19.871094 11.445313 C 18.929688 10.515625 17.679688 10 16.355469 10 Z M 3 12 L 16.355469 12 C 17.152344 12 17.898438 12.308594 18.464844 12.867188 L 22.1875 16.554688 C 23.132813 17.488281 24.378906 18 25.707031 18 L 51 18 C 51.550781 18 52 18.449219 52 19 L 52 34.050781 C 51.667969 34.023438 51.339844 34 51 34 C 45.601563 34 40.96875 37.308594 39.003906 42 L 2 42 L 2 13 C 2 12.449219 2.449219 12 3 12 Z M 54 22 L 55 22 C 55.550781 22 56 22.449219 56 23 L 56 35.003906 C 55.359375 34.734375 54.6875 34.527344 54 34.363281 Z M 51 36 C 57.066406 36 62 40.933594 62 47 C 62 53.066406 57.066406 58 51 58 C 44.933594 58 40 53.066406 40 47 C 40 40.933594 44.933594 36 51 36 Z M 51 40 C 50.445313 40 50 40.449219 50 41 L 50 46 L 45 46 C 44.445313 46 44 46.449219 44 47 C 44 47.550781 44.445313 48 45 48 L 50 48 L 50 53 C 50 53.550781 50.445313 54 51 54 C 51.554688 54 52 53.550781 52 53 L 52 48 L 57 48 C 57.554688 48 58 47.550781 58 47 C 58 46.449219 57.554688 46 57 46 L 52 46 L 52 41 C 52 40.449219 51.554688 40 51 40 Z M 2 44 L 38.363281 44 C 38.132813 44.964844 38 45.964844 38 47 C 38 48.769531 38.359375 50.460938 39.003906 52 L 4 52 C 2.898438 52 2 51.101563 2 50 Z M 5 46 C 4.445313 46 4 46.449219 4 47 L 4 49 C 4 49.550781 4.445313 50 5 50 C 5.554688 50 6 49.550781 6 49 L 6 47 C 6 46.449219 5.554688 46 5 46 Z M 10 46 C 9.445313 46 9 46.449219 9 47 L 9 49 C 9 49.550781 9.445313 50 10 50 C 10.554688 50 11 49.550781 11 49 L 11 47 C 11 46.449219 10.554688 46 10 46 Z M 15 46 C 14.445313 46 14 46.449219 14 47 L 14 49 C 14 49.550781 14.445313 50 15 50 C 15.554688 50 16 49.550781 16 49 L 16 47 C 16 46.449219 15.554688 46 15 46 Z M 20 46 C 19.445313 46 19 46.449219 19 47 L 19 49 C 19 49.550781 19.445313 50 20 50 C 20.554688 50 21 49.550781 21 49 L 21 47 C 21 46.449219 20.554688 46 20 46 Z M 25 46 C 24.445313 46 24 46.449219 24 47 L 24 49 C 24 49.550781 24.445313 50 25 50 C 25.554688 50 26 49.550781 26 49 L 26 47 C 26 46.449219 25.554688 46 25 46 Z M 30 46 C 29.445313 46 29 46.449219 29 47 L 29 49 C 29 49.550781 29.445313 50 30 50 C 30.554688 50 31 49.550781 31 49 L 31 47 C 31 46.449219 30.554688 46 30 46 Z M 35 46 C 34.445313 46 34 46.449219 34 47 L 34 49 C 34 49.550781 34.445313 50 35 50 C 35.554688 50 36 49.550781 36 49 L 36 47 C 36 46.449219 35.554688 46 35 46 Z"/></svg>