<svg xmlns="http://www.w3.org/2000/svg" width="50" height="50" viewBox="0 0 64 64"><radialGradient id="IoYjmHX9J_W1Ht8XL~RvBa" cx="213.125" cy="287.333" r="195.624" gradientUnits="userSpaceOnUse" spreadMethod="reflect"><stop offset="0" stop-color="#eed7a2"/><stop offset=".106" stop-color="#f1dcab"/><stop offset=".437" stop-color="#f8e8c3"/><stop offset=".744" stop-color="#fcefd2"/><stop offset="1" stop-color="#fef2d7"/></radialGradient><path fill="url(#IoYjmHX9J_W1Ht8XL~RvBa)" d="M6,4L6,4c0-2.209,1.791-4,4-4h0c2.209,0,4,1.791,4,4v0c0,2.209-1.791,4-4,4h0 C7.791,8,6,6.209,6,4z M54.5,25h-7c-1.933,0-3.5,1.567-3.5,3.5v0c0,1.933,1.567,3.5,3.5,3.5H49c2.209,0,4,1.791,4,4v0 c0,2.209-1.791,4-4,4h-3v0.5c0,1.381,1.119,2.5,2.5,2.5H48c2.209,0,4,1.791,4,4v0c0,2.209-1.791,4-4,4l-3.5,6 c1.933,0,3.5,1.567,3.5,3.5v0c4,0.5,6,0.5,4,3.5c-7.575,0-32.934,0-40.508-0.001C9.56,63.999,8,62.432,8,60.5v0 c0-1.932,1.566-3.498,3.498-3.499l3.002-0.001c1.933,0,3.5-1.568,3.5-3.501v0c0-1.933-1.567-3.5-3.5-3.5H9c-2.209,0-4-1.791-4-4v0 c0-2.209,1.791-4,4-4h8v-5c0,0-3.707,0-7.001,0C7.237,37.001,5,34.762,5,31.975V31.85c0-2.68,2.173-4.851,4.852-4.851L13,26.999 c1.657,0,3-1.343,3-2.999v0c0-1.657-1.343-3-3-3h-3c-1.657,0-3-1.343-3-3v-1c0-1.657,1.343-3,3-3h14c1.657,0,3-1.343,3-3v0 c0-1.657-1.343-3-3-3h-4c-2.209,0-4-1.791-4-4v0c0-2.209,1.791-4,4-4l32,0c2.209,0,4,1.791,4,4v0c0,2.209-1.791,4-4,4h-8 c-2.209,0-4,1.791-4,4v0c0,2.209,1.791,4,4,4h10.5c2.485,0,4.5,2.015,4.5,4.5v0C59,22.985,56.985,25,54.5,25z"/><linearGradient id="IoYjmHX9J_W1Ht8XL~RvBb" x1="32" x2="32" y1="36.713" y2="12.518" gradientUnits="userSpaceOnUse" spreadMethod="reflect"><stop offset=".003" stop-color="#7ed3f4"/><stop offset="1" stop-color="#9ce6fc"/></linearGradient><path fill="url(#IoYjmHX9J_W1Ht8XL~RvBb)" d="M54,12H10c-3.314,0-6,2.686-6,6v28c0,3.314,2.686,6,6,6h44c3.314,0,6-2.686,6-6V18 C60,14.686,57.314,12,54,12z"/><linearGradient id="IoYjmHX9J_W1Ht8XL~RvBc" x1="32" x2="32" y1="52" y2="38" gradientUnits="userSpaceOnUse" spreadMethod="reflect"><stop offset="0" stop-color="#5eb8f1"/><stop offset="1" stop-color="#61c3f3"/></linearGradient><path fill="url(#IoYjmHX9J_W1Ht8XL~RvBc)" d="M4,38v8c0,3.314,2.686,6,6,6h44c3.314,0,6-2.686,6-6v-8H31l-1,2l-2-2H4z"/><linearGradient id="IoYjmHX9J_W1Ht8XL~RvBd" x1="21" x2="21" y1="39.026" y2="12" gradientUnits="userSpaceOnUse" spreadMethod="reflect"><stop offset="0" stop-color="#98dcf6"/><stop offset="1" stop-color="#b0ecfd"/></linearGradient><path fill="url(#IoYjmHX9J_W1Ht8XL~RvBd)" d="M7.97,24.03C8.61,24.66,9,25.54,9,26.5C9,28.42,7.43,30,5.5,30H4v8h24.5 c0.537,0,1.045,1.216,1.5,1c0.353-0.168,0.673-1.73,0.949-2C31.598,36.365,32,35.479,32,34.5v0c0-1.933-1.567-3.5-3.5-3.5h-1 c-0.96,0-1.84-0.39-2.47-1.03c-0.611-0.601-0.994-1.43-1.028-2.339C23.928,25.635,25.699,24,27.696,24l7.175,0 c1.292,0,2.513-0.759,2.948-1.975c0.425-1.187,0.061-2.384-0.7-3.145C36.58,18.34,35.82,18,35,18h-3c-1.1,0-2.1-0.45-2.82-1.18 C28.45,16.1,28,15.1,28,14c0-0.73,0.2-1.41,0.55-2H10c-3.314,0-6,2.686-6,6v5h1.5C6.46,23,7.34,23.39,7.97,24.03z"/><linearGradient id="IoYjmHX9J_W1Ht8XL~RvBe" x1="23.595" x2="23.595" y1="52" y2="33" gradientUnits="userSpaceOnUse" spreadMethod="reflect"><stop offset="0" stop-color="#5392e9"/><stop offset="1" stop-color="#5eb6f0"/></linearGradient><path fill="url(#IoYjmHX9J_W1Ht8XL~RvBe)" d="M26.52,34.553c-1.512-2.131-4.676-2.057-6.08,0.149c-3.498,5.482-9.127,14.291-11.08,17.263 C9.571,51.987,9.784,52,10,52h24.285c1.388,0,2.652-0.578,3.544-1.503L26.52,34.553z"/><linearGradient id="IoYjmHX9J_W1Ht8XL~RvBf" x1="17.68" x2="17.68" y1="52" y2="33.026" gradientUnits="userSpaceOnUse" spreadMethod="reflect"><stop offset="0" stop-color="#569ceb"/><stop offset="1" stop-color="#5fbdf2"/></linearGradient><path fill="url(#IoYjmHX9J_W1Ht8XL~RvBf)" d="M15.73,48.73C16.18,48.28,16.81,48,17.5,48h5.89c0.79-1.21,1.66-2.57,2.58-4H21.5 c-1.38,0-2.5-1.12-2.5-2.5c0-0.69,0.28-1.32,0.73-1.77C20.18,39.28,20.81,39,21.5,39H23c0.82,0,1.58-0.34,2.12-0.88 C25.66,37.58,26,36.82,26,36c0-1.561-1.211-2.846-2.737-2.974c-1.094,0.079-2.157,0.63-2.823,1.675 c-3.498,5.482-9.127,14.291-11.08,17.263C9.571,51.987,9.784,52,10,52h5.5c-0.31-0.41-0.5-0.94-0.5-1.5 C15,49.81,15.28,49.18,15.73,48.73z"/><linearGradient id="IoYjmHX9J_W1Ht8XL~RvBg" x1="38.045" x2="38.045" y1="52" y2="29" gradientUnits="userSpaceOnUse" spreadMethod="reflect"><stop offset="0" stop-color="#5aaaee"/><stop offset="1" stop-color="#62c5f3"/></linearGradient><path fill="url(#IoYjmHX9J_W1Ht8XL~RvBg)" d="M55.29,50.18C54.21,51.3,52.68,52,51,52H20.8c2.34-3.56,9.19-14.28,13.44-20.94 c1.7-2.67,5.53-2.76,7.36-0.18L55.29,50.18z"/><linearGradient id="IoYjmHX9J_W1Ht8XL~RvBh" x1="47.644" x2="47.644" y1="52" y2="32" gradientUnits="userSpaceOnUse" spreadMethod="reflect"><stop offset="0" stop-color="#569eec"/><stop offset="1" stop-color="#5fbbf2"/></linearGradient><path fill="url(#IoYjmHX9J_W1Ht8XL~RvBh)" d="M53.74,48l-2.83-4l-2.84-4l-2.84-4l-2.84-4H42c-0.55,0-1.05,0.22-1.41,0.59 C40.22,32.95,40,33.45,40,34c0,1.1,0.9,2,2,2c0.55,0,1.05,0.22,1.41,0.59C43.78,36.95,44,37.45,44,38c0,1.1-0.9,2-2,2h-1 c-0.55,0-1.05,0.22-1.41,0.59C39.22,40.95,39,41.45,39,42c0,1.1,0.9,2,2,2h3c0.55,0,1.05,0.22,1.41,0.59C45.78,44.95,46,45.45,46,46 c0,1.1-0.9,2-2,2h-1c-0.55,0-1.05,0.22-1.41,0.59C41.22,48.95,41,49.45,41,50c0,1.1,0.9,2,2,2h8h3c0.811,0,1.583-0.163,2.288-0.454 L53.74,48z"/><linearGradient id="IoYjmHX9J_W1Ht8XL~RvBi" x1="16.5" x2="16.5" y1="27" y2="18" gradientUnits="userSpaceOnUse" spreadMethod="reflect"><stop offset="0" stop-color="#f5fcfe"/><stop offset="1" stop-color="#f7fdfe"/></linearGradient><path fill="url(#IoYjmHX9J_W1Ht8XL~RvBi)" d="M16.5 18A4.5 4.5 0 1 0 16.5 27A4.5 4.5 0 1 0 16.5 18Z"/><linearGradient id="IoYjmHX9J_W1Ht8XL~RvBj" x1="52" x2="52" y1="64" y2="27.834" gradientUnits="userSpaceOnUse" spreadMethod="reflect"><stop offset="0" stop-color="#31995f"/><stop offset=".093" stop-color="#329e62"/><stop offset=".666" stop-color="#39ba71"/><stop offset="1" stop-color="#3bc477"/></linearGradient><path fill="url(#IoYjmHX9J_W1Ht8XL~RvBj)" d="M52 40A12 12 0 1 0 52 64A12 12 0 1 0 52 40Z"/><path fill="#fff" d="M57,54H47c-1.1,0-2-0.9-2-2v0c0-1.1,0.9-2,2-2h10c1.1,0,2,0.9,2,2v0C59,53.1,58.1,54,57,54z"/><path fill="#fff" d="M54,47v10c0,1.1-0.9,2-2,2h0c-1.1,0-2-0.9-2-2V47c0-1.1,0.9-2,2-2h0C53.1,45,54,45.9,54,47z"/></svg>