<svg xmlns="http://www.w3.org/2000/svg" viewBox="0 0 512 512" width="300px" height="300px"><path fill="#EFC849" d="M7.9,256C7.9,119,119,7.9,256,7.9C393,7.9,504.1,119,504.1,256c0,137-111.1,248.1-248.1,248.1C119,504.1,7.9,393,7.9,256z"/><path fill="#F5F5F5" d="M159.1,106.1c-9.2,0-16.7,7.5-16.7,16.7v267.7c0,9.2,7.5,16.7,16.7,16.7h192.4c9.2,0,16.7-7.5,16.7-16.7v-207l-80.7-77.5H159.1z"/><path fill="#E1E1E1" d="M368.3,183.6h-63.9c-9.2,0-16.7-7.5-16.7-16.7v-60.8L368.3,183.6z"/><path fill="#C9C9C8" d="M344.7 206.5c0 2.9-2.3 5.2-5.2 5.2H172.4c-2.9 0-5.2-2.3-5.2-5.2l0 0c0-2.9 2.3-5.2 5.2-5.2h167.1C342.4 201.2 344.7 203.6 344.7 206.5L344.7 206.5zM344.7 233.9c0 2.9-2.3 5.2-5.2 5.2H172.4c-2.9 0-5.2-2.3-5.2-5.2l0 0c0-2.9 2.3-5.2 5.2-5.2h167.1C342.4 228.7 344.7 231 344.7 233.9L344.7 233.9zM344.7 260c0 2.9-2.3 5.2-5.2 5.2H172.4c-2.9 0-5.2-2.3-5.2-5.2l0 0c0-2.9 2.3-5.2 5.2-5.2h167.1C342.4 254.8 344.7 257.1 344.7 260L344.7 260zM344.7 287.4c0 2.9-2.3 5.2-5.2 5.2H172.4c-2.9 0-5.2-2.3-5.2-5.2l0 0c0-2.9 2.3-5.2 5.2-5.2h167.1C342.4 282.2 344.7 284.5 344.7 287.4L344.7 287.4zM259.9 309.6h-87.5c-2.9 0-5.2 2.3-5.2 5.2s2.3 5.2 5.2 5.2h87.5c2.9 0 5.2-2.3 5.2-5.2S262.8 309.6 259.9 309.6z"/><g><path fill="#0EA24A" d="M351.5 323A59.7 59.7 0 1 0 351.5 442.4A59.7 59.7 0 1 0 351.5 323Z"/><path fill="#FFF" d="M391.7,382.6c0,5.2-4.2,9.4-9.4,9.4h-61.3c-5.2,0-9.4-4.2-9.4-9.4l0,0c0-5.2,4.2-9.4,9.4-9.4h61.3C387.5,373.1,391.7,377.4,391.7,382.6L391.7,382.6z"/><path fill="#FFF" d="M351.6,422.6c-5.2,0-9.4-4.2-9.4-9.4v-61.3c0-5.2,4.2-9.4,9.4-9.4l0,0c5.2,0,9.4,4.2,9.4,9.4v61.3C361,418.4,356.8,422.6,351.6,422.6L351.6,422.6z"/></g></svg>