<svg xmlns="http://www.w3.org/2000/svg" width="50" height="50" fill="#000" viewBox="0 0 24 24"><path d="M 12 2 C 6.477 2 2 6.477 2 12 C 2 17.523 6.477 22 12 22 C 12.868 22 13.705766 21.877922 14.509766 21.669922 C 14.187766 21.191922 14 20.618 14 20 C 14 18.346 15.346 17 17 17 C 17 15.346 18.346 14 20 14 C 20.618 14 21.191922 14.187766 21.669922 14.509766 C 21.877922 13.705766 22 12.868 22 12 C 22 6.477 17.523 2 12 2 z M 12.214844 5.6484375 L 12.220703 5.6484375 C 12.497703 5.6484375 12.722656 5.8733906 12.722656 6.1503906 L 12.722656 7.1054688 C 12.988656 7.1564688 14.267266 7.4460156 14.697266 9.0410156 C 14.855266 9.6280156 14.399969 10.203125 13.792969 10.203125 L 13.789062 10.203125 C 13.344062 10.203125 12.974047 9.8851719 12.873047 9.4511719 C 12.707047 8.7441719 12.312094 8.6132813 12.121094 8.6132812 C 11.987094 8.6132812 11.365234 8.6483906 11.365234 9.7753906 C 11.365234 11.742391 14.824219 11.129937 14.824219 14.335938 C 14.824219 16.663937 12.912219 16.977531 12.574219 17.019531 L 12.574219 17.849609 C 12.574219 18.126609 12.351219 18.349609 12.074219 18.349609 C 11.797219 18.349609 11.572266 18.126609 11.572266 17.849609 L 11.572266 17.019531 C 11.309266 16.983531 9.7816875 16.814156 9.3046875 15.035156 C 9.1456875 14.440156 9.5890781 13.853516 10.205078 13.853516 C 10.637078 13.853516 11.027187 14.146359 11.117188 14.568359 C 11.324188 15.540359 11.955406 15.490234 12.066406 15.490234 C 12.213406 15.490234 12.935547 15.463656 12.935547 14.347656 C 12.935547 12.118656 9.4765625 13.108578 9.4765625 9.7675781 C 9.4765625 7.4775781 11.373891 7.1191719 11.712891 7.0761719 L 11.712891 6.1503906 C 11.712891 5.8733906 11.937844 5.6484375 12.214844 5.6484375 z M 20 16 C 19.448 16 19 16.448 19 17 L 19 19 L 17 19 C 16.448 19 16 19.448 16 20 C 16 20.552 16.448 21 17 21 L 19 21 L 19 23 C 19 23.552 19.448 24 20 24 C 20.552 24 21 23.552 21 23 L 21 21 L 23 21 C 23.552 21 24 20.552 24 20 C 24 19.448 23.552 19 23 19 L 21 19 L 21 17 C 21 16.448 20.552 16 20 16 z"/></svg>