<svg xmlns="http://www.w3.org/2000/svg" width="500" height="500" viewBox="0 0 48 48"><path fill="#8CBCD6" d="M40,41H8c-2.2,0-4-1.8-4-4V11c0-2.2,1.8-4,4-4h32c2.2,0,4,1.8,4,4v26C44,39.2,42.2,41,40,41z"/><path fill="#B3DDF5" d="M35 13A3 3 0 1 0 35 19A3 3 0 1 0 35 13Z"/><path fill="#9AC9E3" d="M20 16L9 32 31 32z"/><path fill="#B3DDF5" d="M31 22L23 32 39 32z"/><path fill="#43A047" d="M38 28A10 10 0 1 0 38 48A10 10 0 1 0 38 28Z"/><path fill="#FFF" d="M36 32H40V44H36z"/><path fill="#FFF" d="M32 36H44V40H32z"/></svg>