<svg xmlns="http://www.w3.org/2000/svg" width="50" height="50" fill="#000" viewBox="0 0 32 32"><path d="M 16 4.0019531 C 9.383 4.0019531 4 9.383 4 16 C 4 22.617 9.383 28 16 28 C 16.356886 28 16.708675 27.982536 17.056641 27.949219 C 18.438365 30.361665 21.035171 32 24 32 C 28.4 32 32 28.4 32 24 C 32 21.035171 30.361665 18.438365 27.949219 17.056641 C 27.982534 16.708568 28 16.358337 28 16.001953 C 28 9.3849531 22.617 4.0019531 16 4.0019531 z M 16 6 C 21.514 6 26 10.486 26 16 C 26 16.088035 25.98533 16.172439 25.982422 16.259766 C 25.34709 16.096004 24.684614 16 24 16 C 22.101914 16 20.35408 16.672026 18.978516 17.787109 C 18.865923 16.24142 17.572199 15 16 15 C 15.43497 15 15 14.56503 15 14 C 15 13.43497 15.43497 13 16 13 C 16.56503 13 17 13.43497 17 14 L 17 15 L 18 15 L 18 13 L 19 15 L 19 14 C 19 12.743378 18.106694 11.85942 17 11.416016 L 17 10 L 15 10 L 15 11.416016 C 13.893306 11.85942 13 12.743378 13 14 L 13 15 L 13.416016 15 C 13.85942 16.106694 14.743378 17 16 17 C 16.56503 17 17 17.43497 17 18 C 17 18.56503 16.56503 19 16 19 C 15.43497 19 15 18.56503 15 18 L 14 19 L 14 17 L 13 17 L 13 18 C 13 19.256622 13.893306 20.14058 15 20.583984 L 15 22 L 16.265625 22 C 16.098874 22.64073 16 23.308956 16 24 C 16 24.684614 16.096004 25.34709 16.259766 25.982422 C 16.172439 25.98533 16.088035 26 16 26 C 10.486 26 6 21.514 6 16 C 6 10.486 10.486 6 16 6 z M 24 18 C 27.3 18 30 20.7 30 24 C 30 27.3 27.3 30 24 30 C 20.7 30 18 27.3 18 24 C 18 20.7 20.7 18 24 18 z M 23 20 L 23 23 L 20 23 L 20 25 L 23 25 L 23 28 L 25 28 L 25 25 L 28 25 L 28 23 L 25 23 L 25 20 L 23 20 z"/></svg>