<svg xmlns="http://www.w3.org/2000/svg" width="50" height="50" fill="#000" viewBox="0 0 50 50"><path d="M 25 2 C 12.317 2 2 12.318 2 25 C 2 37.682 12.317 48 25 48 C 26.9 48 28.744719 47.764125 30.511719 47.328125 C 30.077719 46.767125 29.691328 46.170109 29.361328 45.537109 C 27.953328 45.836109 26.496 46 25 46 C 13.421 46 4 36.58 4 25 C 4 13.42 13.421 4 25 4 C 36.579 4 46 13.42 46 25 C 46 26.496 45.836109 27.953328 45.537109 29.361328 C 46.170109 29.691328 46.767125 30.078719 47.328125 30.511719 C 47.764125 28.744719 48 26.9 48 25 C 48 12.318 37.683 2 25 2 z M 24 10 L 24 12.800781 C 18.4 13.100781 17.449219 17.299219 17.449219 19.199219 C 17.449219 28.599219 31.150391 23.599219 31.150391 30.699219 C 31.150391 30.966219 31.127219 31.509719 30.949219 32.136719 C 31.592219 31.397719 32.321 30.737828 33.125 30.173828 C 32.587 21.892828 19.449219 26.159391 19.449219 19.400391 C 19.449219 17.100391 20.350781 14.400391 25.050781 14.400391 C 29.850781 14.400391 30.450781 18.200391 30.550781 19.900391 L 32.650391 19.900391 C 32.850391 17.100391 30.850781 13.000781 26.050781 12.800781 L 26.050781 10 L 24 10 z M 16.849609 29.300781 C 17.049609 36.000781 21.3 36.899219 24 37.199219 L 24 40 L 26 40 L 26 37.199219 C 26.942 37.129219 27.748938 36.962281 28.460938 36.738281 C 28.688938 35.931281 28.993953 35.157687 29.376953 34.429688 C 28.471953 35.104687 27.116781 35.599609 25.050781 35.599609 C 24.850781 35.599609 18.749219 35.600781 18.949219 29.300781 L 16.849609 29.300781 z M 40.011719 30.023438 C 37.448469 30.023438 34.885906 30.996906 32.941406 32.941406 C 29.052406 36.830406 29.052406 43.193031 32.941406 47.082031 C 36.830406 50.971031 43.193031 50.971031 47.082031 47.082031 C 50.971031 43.193031 50.971031 36.830406 47.082031 32.941406 C 45.137531 30.996906 42.574969 30.023438 40.011719 30.023438 z M 40.011719 32.021484 C 42.062344 32.021484 44.114422 32.799969 45.669922 34.355469 C 48.780922 37.467469 48.780922 42.558922 45.669922 45.669922 C 42.557922 48.780922 37.466469 48.780922 34.355469 45.669922 C 31.244469 42.557922 31.243469 37.466469 34.355469 34.355469 C 35.911469 32.799969 37.961094 32.021484 40.011719 32.021484 z M 40.011719 34.072266 C 39.445719 34.072266 39.021484 34.4965 39.021484 35.0625 L 39.021484 39.021484 L 35.0625 39.021484 C 34.4965 39.021484 34.072266 39.445719 34.072266 40.011719 C 34.072266 40.577719 34.4965 41.001953 35.0625 41.001953 L 39.021484 41.001953 L 39.021484 44.962891 C 39.021484 45.528891 39.445719 45.951172 40.011719 45.951172 C 40.294719 45.951172 40.57775 45.810922 40.71875 45.669922 C 40.86075 45.528922 41.001953 45.245891 41.001953 44.962891 L 41.001953 41.001953 L 44.962891 41.001953 C 45.245891 41.001953 45.528922 40.85975 45.669922 40.71875 C 45.811922 40.57775 45.951172 40.294719 45.951172 40.011719 C 45.951172 39.445719 45.528891 39.021484 44.962891 39.021484 L 41.001953 39.021484 L 41.001953 35.0625 C 41.001953 34.4975 40.577719 34.072266 40.011719 34.072266 z"/></svg>