<svg xmlns="http://www.w3.org/2000/svg" width="100" height="100" fill="#000" viewBox="0 0 80 80"><path d="M 9 11 C 6.800781 11 5 12.800781 5 15 L 5 65 C 5 67.199219 6.800781 69 9 69 L 48.8125 69 C 50.914063 75.378906 56.921875 80 64 80 C 72.824219 80 80 72.824219 80 64 C 80 59.4375 78.070313 55.328125 75 52.410156 L 75 27 C 75 24.800781 73.199219 23 71 23 L 70 23 L 70 21 C 70 18.800781 68.199219 17 66 17 L 28.167969 17 L 27.203125 14.691406 C 26.273438 12.460938 24.085938 11 21.667969 11 Z M 9 13 L 21.667969 13 C 23.285156 13 24.738281 13.96875 25.359375 15.460938 L 26.832031 19 L 66 19 C 67.117188 19 68 19.882813 68 21 L 68 23 L 9 23 C 8.257813 23 7.597656 23.261719 7 23.621094 L 7 15 C 7 13.882813 7.882813 13 9 13 Z M 9 25 L 71 25 C 72.117188 25 73 25.882813 73 27 L 73 50.78125 C 70.433594 49.027344 67.335938 48 64 48 C 55.636719 48 48.761719 54.449219 48.066406 62.636719 C 48.023438 62.753906 48 62.875 48 63 C 48 63.089844 48.011719 63.179688 48.035156 63.265625 C 48.027344 63.511719 48 63.753906 48 64 C 48 65.027344 48.109375 66.027344 48.292969 67 L 9 67 C 7.882813 67 7 66.117188 7 65 L 7 27 C 7 25.882813 7.882813 25 9 25 Z M 69 26 C 68.449219 26 68 26.449219 68 27 C 68 27.550781 68.449219 28 69 28 C 69.550781 28 70 27.550781 70 27 C 70 26.449219 69.550781 26 69 26 Z M 69 30 C 68.449219 30 68 30.449219 68 31 C 68 31.550781 68.449219 32 69 32 C 69.550781 32 70 31.550781 70 31 C 70 30.449219 69.550781 30 69 30 Z M 69 34 C 68.449219 34 68 34.449219 68 35 C 68 35.550781 68.449219 36 69 36 C 69.550781 36 70 35.550781 70 35 C 70 34.449219 69.550781 34 69 34 Z M 69 38 C 68.449219 38 68 38.449219 68 39 C 68 39.550781 68.449219 40 69 40 C 69.550781 40 70 39.550781 70 39 C 70 38.449219 69.550781 38 69 38 Z M 69 42 C 68.449219 42 68 42.449219 68 43 C 68 43.550781 68.449219 44 69 44 C 69.550781 44 70 43.550781 70 43 C 70 42.449219 69.550781 42 69 42 Z M 69 46 C 68.449219 46 68 46.449219 68 47 C 68 47.550781 68.449219 48 69 48 C 69.550781 48 70 47.550781 70 47 C 70 46.449219 69.550781 46 69 46 Z M 64 50 C 71.742188 50 78 56.257813 78 64 C 78 71.742188 71.742188 78 64 78 C 56.257813 78 50 71.742188 50 64 C 50 56.257813 56.257813 50 64 50 Z M 63 57 L 63 63 L 57 63 L 57 65 L 63 65 L 63 71 L 65 71 L 65 65 L 71 65 L 71 63 L 65 63 L 65 57 Z M 9 62 C 8.449219 62 8 62.449219 8 63 C 8 63.550781 8.449219 64 9 64 C 9.550781 64 10 63.550781 10 63 C 10 62.449219 9.550781 62 9 62 Z M 13 62 C 12.449219 62 12 62.449219 12 63 C 12 63.550781 12.449219 64 13 64 C 13.550781 64 14 63.550781 14 63 C 14 62.449219 13.550781 62 13 62 Z M 17 62 C 16.449219 62 16 62.449219 16 63 C 16 63.550781 16.449219 64 17 64 C 17.550781 64 18 63.550781 18 63 C 18 62.449219 17.550781 62 17 62 Z M 21 62 C 20.449219 62 20 62.449219 20 63 C 20 63.550781 20.449219 64 21 64 C 21.550781 64 22 63.550781 22 63 C 22 62.449219 21.550781 62 21 62 Z M 25 62 C 24.449219 62 24 62.449219 24 63 C 24 63.550781 24.449219 64 25 64 C 25.550781 64 26 63.550781 26 63 C 26 62.449219 25.550781 62 25 62 Z M 29 62 C 28.449219 62 28 62.449219 28 63 C 28 63.550781 28.449219 64 29 64 C 29.550781 64 30 63.550781 30 63 C 30 62.449219 29.550781 62 29 62 Z M 33 62 C 32.449219 62 32 62.449219 32 63 C 32 63.550781 32.449219 64 33 64 C 33.550781 64 34 63.550781 34 63 C 34 62.449219 33.550781 62 33 62 Z M 37 62 C 36.449219 62 36 62.449219 36 63 C 36 63.550781 36.449219 64 37 64 C 37.550781 64 38 63.550781 38 63 C 38 62.449219 37.550781 62 37 62 Z M 41 62 C 40.449219 62 40 62.449219 40 63 C 40 63.550781 40.449219 64 41 64 C 41.550781 64 42 63.550781 42 63 C 42 62.449219 41.550781 62 41 62 Z M 45 62 C 44.449219 62 44 62.449219 44 63 C 44 63.550781 44.449219 64 45 64 C 45.550781 64 46 63.550781 46 63 C 46 62.449219 45.550781 62 45 62 Z"/></svg>