<svg xmlns="http://www.w3.org/2000/svg" viewBox="0 0 80 80" width="500px" height="500px"><path fill="#dcd5f2" d="M40,75.5c-16.3,0-29.5-5.6-29.5-12.5V15.5h59V63C69.5,69.9,56.3,75.5,40,75.5z"/><path fill="#8b75a1" d="M69,16v47c0,6.5-13.3,12-29,12s-29-5.5-29-12V16H69 M70,15H10c0,2.6,0,45.4,0,48 c0,7.2,13.4,13,30,13s30-5.8,30-13C70,60.4,70,17.6,70,15L70,15z"/><path fill="#dcd5f2" d="M40,25.5c-16,0-29.5-4.8-29.5-10.5S24,4.5,40,4.5S69.5,9.3,69.5,15S56,25.5,40,25.5z"/><path fill="#8b75a1" d="M40 5c17.3 0 29 5.2 29 10S57.3 25 40 25s-29-5.2-29-10S22.7 5 40 5M40 4C23.4 4 10 8.9 10 15s13.4 11 30 11 30-4.9 30-11S56.6 4 40 4L40 4zM40 43c-16.8 0-30-5-30-11.3h1C11 37.3 24.3 42 40 42s29-4.7 29-10.3h1C70 38 56.8 43 40 43zM40 60c-16.8 0-30-5.8-30-13.3h1C11 53.5 24 59 40 59c16 0 29-5.5 29-12.3h1C70 54.2 56.8 60 40 60z"/><path fill="#bae0bd" d="M62,79.5c-9.6,0-17.5-7.9-17.5-17.5S52.4,44.5,62,44.5S79.5,52.4,79.5,62S71.6,79.5,62,79.5z"/><path fill="#5e9c76" d="M62,45c9.4,0,17,7.6,17,17s-7.6,17-17,17s-17-7.6-17-17S52.6,45,62,45 M62,44c-9.9,0-18,8.1-18,18 s8.1,18,18,18s18-8.1,18-18S71.9,44,62,44L62,44z"/><path fill="#fff" d="M60 52H64V72H60z"/><path fill="#fff" d="M52 60H72V64H52z"/></svg>