<svg xmlns="http://www.w3.org/2000/svg" width="50" height="50" fill="#000" viewBox="0 0 50 50"><path d="M 7 2 L 7 48 L 34.037109 48 C 35.706061 49.248916 37.767371 50 40 50 C 45.5 50 50 45.5 50 40 C 50 35.544504 47.045551 31.747182 43 30.464844 L 43 14.599609 L 30.400391 2 L 7 2 z M 30 4.4003906 L 40.599609 15 L 30 15 L 30 4.4003906 z M 36 23 C 37.105 23 38 23.895 38 25 C 38 26.105 37.105 27 36 27 C 35.899 27 35.801125 26.985703 35.703125 26.970703 L 29.859375 34.275391 C 29.947375 34.500391 30 34.744 30 35 C 30 36.105 29.105 37 28 37 C 26.895 37 26 36.105 26 35 C 26 34.781 26.044375 34.575906 26.109375 34.378906 L 20.404297 27.960938 C 20.273297 27.986937 20.138 28 20 28 C 19.822 28 19.653281 27.968781 19.488281 27.925781 L 15.925781 31.488281 C 15.969781 31.652281 16 31.822 16 32 C 16 33.105 15.105 34 14 34 C 12.895 34 12 33.105 12 32 C 12 30.895 12.895 30 14 30 C 14.178 30 14.346719 30.031219 14.511719 30.074219 L 18.074219 26.511719 C 18.030219 26.347719 18 26.178 18 26 C 18 24.895 18.895 24 20 24 C 21.105 24 22 24.895 22 26 C 22 26.219 21.955625 26.424094 21.890625 26.621094 L 27.595703 33.039062 C 27.726703 33.013063 27.862 33 28 33 C 28.101 33 28.199875 33.014297 28.296875 33.029297 L 34.140625 25.724609 C 34.053625 25.499609 34 25.256 34 25 C 34 23.895 34.895 23 36 23 z M 40 32 C 44.4 32 48 35.6 48 40 C 48 44.4 44.4 48 40 48 C 35.6 48 32 44.4 32 40 C 32 35.6 35.6 32 40 32 z M 40 34.099609 C 39.4 34.099609 39 34.499609 39 35.099609 L 39 39 L 35.099609 39 C 34.499609 39 34.099609 39.4 34.099609 40 C 34.099609 40.6 34.499609 41 35.099609 41 L 39 41 L 39 44.900391 C 39 45.500391 39.4 45.900391 40 45.900391 C 40.6 45.900391 41 45.500391 41 44.900391 L 41 41 L 44.900391 41 C 45.500391 41 45.900391 40.6 45.900391 40 C 45.900391 39.4 45.500391 39 44.900391 39 L 41 39 L 41 35.099609 C 41 34.499609 40.6 34.099609 40 34.099609 z"/></svg>