<svg xmlns="http://www.w3.org/2000/svg" width="300" height="300" viewBox="0 0 30 30"><path fill="#fff" d="M2.5 4.5H27.5V25.5H2.5z"/><path fill="#788b9c" d="M27,5v20H3V5H27 M28,4H2v22h26V4L28,4z"/><path fill="#b5deff" d="M5 7H25V20.7H5z"/><path fill="#99c9f0" d="M5 16H25V23H5z"/><path fill="#d9f6ff" d="M24,12c-0.3,0-0.6,0.2-0.8,0.4C22.9,12.2,22.5,12,22,12s-0.9,0.2-1.2,0.4C20.6,12.2,20.3,12,20,12 c-0.3,0-0.5,0.1-0.7,0.3c-0.3-0.5-0.7-0.8-1.3-0.8c-0.2,0-0.4,0-0.6,0.1C17.1,11.2,16.6,11,16,11c-0.9,0-1.6,0.6-1.9,1.3 C13.8,12.1,13.4,12,13,12s-0.8,0.1-1.1,0.3c-0.3-0.8-1-1.3-1.9-1.3c-0.6,0-1.1,0.2-1.4,0.6c-0.2-0.1-0.4-0.1-0.6-0.1 c-0.6,0-1.1,0.3-1.3,0.8C6.5,12.1,6.3,12,6,12c-0.6,0-1,0.4-1,1v6h20v-6C25,12.4,24.6,12,24,12z"/><path fill="#6e9ee0" d="M5.2 19L25 19 25 17.9 18.8 14.6z"/><path fill="#77a9ed" d="M19.3 19L5 19 5 17 11.7 14.2z"/><path fill="#bae0bd" d="M23,29.5c-3.6,0-6.5-2.9-6.5-6.5s2.9-6.5,6.5-6.5s6.5,2.9,6.5,6.5S26.6,29.5,23,29.5z"/><path fill="#5e9c76" d="M23,17c3.3,0,6,2.7,6,6s-2.7,6-6,6s-6-2.7-6-6S19.7,17,23,17 M23,16c-3.9,0-7,3.1-7,7s3.1,7,7,7 s7-3.1,7-7S26.9,16,23,16L23,16z"/><path fill="#fff" d="M22 19H24V27H22z"/><path fill="#fff" d="M19 22H27V24H19z"/></svg>