<svg fill="#000000" xmlns="http://www.w3.org/2000/svg" viewBox="0 0 32 32" width="100px" height="100px"><path d="M 13 6 L 6 26 L 8 26 L 10.099609 20 L 17.087891 20 C 16.40061 21.17955 16 22.54362 16 24 C 16 28.4 19.6 32 24 32 C 28.4 32 32 28.4 32 24 C 32 19.6 28.4 16 24 16 C 22.15365 16 20.451472 16.638297 19.09375 17.699219 L 15 6 L 13 6 z M 14 8.8574219 L 17.201172 18 L 10.800781 18 L 14 8.8574219 z M 24 18 C 27.3 18 30 20.7 30 24 C 30 27.3 27.3 30 24 30 C 20.7 30 18 27.3 18 24 C 18 20.7 20.7 18 24 18 z M 23 20 L 23 23 L 20 23 L 20 25 L 23 25 L 23 28 L 25 28 L 25 25 L 28 25 L 28 23 L 25 23 L 25 20 L 23 20 z"/></svg>