<svg xmlns="http://www.w3.org/2000/svg" width="50" height="50" fill="#000" viewBox="0 0 30 30"><path d="M 22 2 C 20.397 2 18.891813 2.6248125 17.757812 3.7578125 L 15.757812 5.7578125 C 14.624813 6.8918125 14 8.397 14 10 C 14 11.264269 14.393404 12.463973 15.113281 13.472656 L 13.472656 15.113281 C 12.463857 14.39375 11.263505 14 10 14 C 8.397 14 6.8918125 14.624813 5.7578125 15.757812 L 3.7578125 17.757812 C 2.6248125 18.891813 2 20.397 2 22 C 2 23.603 2.6248125 25.108187 3.7578125 26.242188 C 4.8908125 27.376187 6.397 28 8 28 C 9.603 28 11.108188 27.375187 12.242188 26.242188 L 14.115234 24.371094 C 14.047234 23.923094 14 23.467 14 23 C 14 22.469 14.054578 21.953266 14.142578 21.447266 C 14.042578 21.577266 13.947125 21.709125 13.828125 21.828125 L 10.828125 24.828125 C 9.268125 26.388125 6.730875 26.388125 5.171875 24.828125 C 3.612875 23.268125 3.611875 20.730875 5.171875 19.171875 L 7.171875 17.171875 C 7.951875 16.391875 8.9769531 16.003906 10.001953 16.003906 C 10.703717 16.003906 11.398642 16.199155 12.021484 16.564453 L 9.2929688 19.292969 A 1.0001 1.0001 0 1 0 10.707031 20.707031 L 20.707031 10.707031 A 1.0001 1.0001 0 0 0 19.980469 8.9902344 A 1.0001 1.0001 0 0 0 19.292969 9.2929688 L 16.564453 12.021484 C 15.663256 10.488367 15.857195 8.4857125 17.171875 7.171875 L 19.171875 5.171875 C 19.951875 4.391875 20.975 4.0039063 22 4.0039062 C 23.025 4.0039062 24.048125 4.392875 24.828125 5.171875 C 26.388125 6.731875 26.388125 9.269125 24.828125 10.828125 L 21.828125 13.828125 C 21.709125 13.947125 21.577266 14.042578 21.447266 14.142578 C 21.953266 14.054578 22.47 14 23 14 C 23.467 14 23.923094 14.047234 24.371094 14.115234 L 26.242188 12.242188 C 27.375188 11.108187 28 9.603 28 8 C 28 6.397 27.375187 4.8918125 26.242188 3.7578125 C 25.108188 2.6248125 23.603 2 22 2 z M 23 16 C 19.134 16 16 19.134 16 23 C 16 26.866 19.134 30 23 30 C 26.866 30 30 26.866 30 23 C 30 19.134 26.866 16 23 16 z M 23 19 C 23.552 19 24 19.447 24 20 L 24 22 L 26 22 C 26.552 22 27 22.447 27 23 C 27 23.553 26.552 24 26 24 L 24 24 L 24 26 C 24 26.553 23.552 27 23 27 C 22.448 27 22 26.553 22 26 L 22 24 L 20 24 C 19.448 24 19 23.553 19 23 C 19 22.447 19.448 22 20 22 L 22 22 L 22 20 C 22 19.447 22.448 19 23 19 z"/></svg>