<svg xmlns="http://www.w3.org/2000/svg" width="300" height="300" fill="#000" viewBox="0 0 16 16"><path d="M 2.5 2 C 1.671875 2 1 2.671875 1 3.5 L 1 12.5 C 1 13.328125 1.671875 14 2.5 14 L 6.605469 14 C 6.445313 13.683594 6.3125 13.347656 6.210938 13 L 2.5 13 C 2.222656 13 2 12.777344 2 12.5 L 2 11.574219 L 5.554688 7.566406 L 6.71875 8.789063 C 6.886719 8.492188 7.082031 8.210938 7.300781 7.953125 L 5.53125 6.089844 L 2 10.066406 L 2 3.5 C 2 3.222656 2.222656 3 2.5 3 L 13.5 3 C 13.777344 3 14 3.222656 14 3.5 L 14 6.605469 C 14.355469 6.789063 14.695313 7.003906 15 7.257813 L 15 3.5 C 15 2.671875 14.328125 2 13.5 2 Z M 11 4 C 10.449219 4 10 4.449219 10 5 C 10 5.550781 10.449219 6 11 6 C 11.550781 6 12 5.550781 12 5 C 12 4.449219 11.550781 4 11 4 Z M 11.5 7 C 9.019531 7 7 9.019531 7 11.5 C 7 13.980469 9.019531 16 11.5 16 C 13.980469 16 16 13.980469 16 11.5 C 16 9.019531 13.980469 7 11.5 7 Z M 11.5 8 C 13.4375 8 15 9.5625 15 11.5 C 15 13.4375 13.4375 15 11.5 15 C 9.5625 15 8 13.4375 8 11.5 C 8 9.5625 9.5625 8 11.5 8 Z M 11 9 L 11 11 L 9 11 L 9 12 L 11 12 L 11 14 L 12 14 L 12 12 L 14 12 L 14 11 L 12 11 L 12 9 Z"/></svg>