<svg xmlns="http://www.w3.org/2000/svg" width="100" height="100" viewBox="0 0 64 64"><path fill="#faefde" d="M21.24,2.94H50a3,3,0,0,1,3,3v48a3,3,0,0,1-3,3H12a3,3,0,0,1-3-3V15.18a3,3,0,0,1,.88-2.12l9.24-9.24A3,3,0,0,1,21.24,2.94Z"/><path fill="#fff7f0" d="M9 57L8.85 47.54 52.34 4.06 53 27 23 57 9 57zM8.85 37.15L43.06 2.94 48.81 3.19 9 43 8.85 37.15zM8.85 31.15L37 3 40 3 8.85 34.15 8.85 31.15z"/><path fill="#fff" d="M43.5 11L44.74 13.26 47 14.5 44.74 15.74 43.5 18 42.26 15.74 40 14.5 42.26 13.26 43.5 11zM28.42 9L29.27 10.56 30.84 11.42 29.27 12.27 28.42 13.84 27.56 12.27 26 11.42 27.56 10.56 28.42 9zM14.65 40L15.23 41.06 16.3 41.65 15.23 42.23 14.65 43.3 14.06 42.23 13 41.65 14.06 41.06 14.65 40z"/><path fill="#bbdef9" d="M21 3L21 15 9 15 21 3z"/><path fill="#72caaf" d="M49 39A12 12 0 1 0 49 63A12 12 0 1 0 49 39Z"/><path fill="#8d6c9f" d="M13 50a1 1 0 0 0-1 1v2a1 1 0 0 0 2 0V51A1 1 0 0 0 13 50zM18 50a1 1 0 0 0-1 1v2a1 1 0 0 0 2 0V51A1 1 0 0 0 18 50zM23 50a1 1 0 0 0-1 1v2a1 1 0 0 0 2 0V51A1 1 0 0 0 23 50zM28 50a1 1 0 0 0-1 1v2a1 1 0 0 0 2 0V51A1 1 0 0 0 28 50zM33 50a1 1 0 0 0-1 1v2a1 1 0 0 0 2 0V51A1 1 0 0 0 33 50zM41 22H37a1 1 0 0 0 0 2h4a1 1 0 0 0 0-2zM17 24H33a1 1 0 0 0 0-2H17a1 1 0 0 0 0 2zM17 28H37a1 1 0 0 0 0-2H17a1 1 0 0 0 0 2zM34 36H17a1 1 0 0 0 0 2H34a1 1 0 0 0 0-2zM39 32H17a1 1 0 0 0 0 2H39a1 1 0 0 0 0-2z"/><path fill="#f9efde" d="M55,50H50V45a1,1,0,0,0-2,0v5H43a1,1,0,0,0,0,2h5v5a1,1,0,0,0,2,0V52h5a1,1,0,0,0,0-2Z"/><path fill="#8d6c9f" d="M13 50a1 1 0 0 0-1 1v2a1 1 0 0 0 2 0V51A1 1 0 0 0 13 50zM18 50a1 1 0 0 0-1 1v2a1 1 0 0 0 2 0V51A1 1 0 0 0 18 50zM23 50a1 1 0 0 0-1 1v2a1 1 0 0 0 2 0V51A1 1 0 0 0 23 50zM28 50a1 1 0 0 0-1 1v2a1 1 0 0 0 2 0V51A1 1 0 0 0 28 50zM33 50a1 1 0 0 0-1 1v2a1 1 0 0 0 2 0V51A1 1 0 0 0 33 50z"/><path fill="#8d6c9f" d="M54,39V5a3,3,0,0,0-3-3H21.66a5,5,0,0,0-3.54,1.46L9.46,12.12A5,5,0,0,0,8,15.66V55a3,3,0,0,0,3,3H38.06A13,13,0,1,0,54,39ZM19.54,4.88A3,3,0,0,1,20,4.5V13a1,1,0,0,1-1,1H10.5a3,3,0,0,1,.38-.46ZM11,56a1,1,0,0,1-1-1V16h9a3,3,0,0,0,3-3V4H51a1,1,0,0,1,1,1V38.36A13,13,0,0,0,37,56Zm38,6A11,11,0,1,1,60,51,11,11,0,0,1,49,62Z"/></svg>