<svg xmlns="http://www.w3.org/2000/svg" width="300" height="300" viewBox="0 0 128 128"><path fill="#fff" d="M101,26c-0.8-6.7-17-12-37-12s-36.2,5.3-37,12h0v60h0c0,0.2,0,0.3,0,0.5C27,93.4,43.6,99,64,99s37-5.6,37-12.5c0-0.2,0-0.3,0-0.5h0L101,26L101,26z"/><path fill="#444b54" d="M101,29.5c-1.7,0-3-1.3-3-3c0-3.2-12-9.5-34-9.5s-34,6.3-34,9.5c0,1.7-1.3,3-3,3s-3-1.3-3-3C24,16.3,44.1,11,64,11c19.9,0,40,5.3,40,15.5C104,28.2,102.7,29.5,101,29.5z"/><path fill="#444b54" d="M103.9,25.2C102.2,15.9,83,11,64,11c-19.9,0-40,5.3-40,15.5S44.1,42,64,42c13.2,0,26.6-2.4,34-6.9v11.4c0,3.2-12,9.5-34,9.5s-34-6.3-34-9.5c0-1.7-1.3-3-3-3s-3,1.3-3,3v40C24,96.7,44.1,102,64,102c2.8,0,5.6-0.1,8.3-0.3c1.7-0.1,2.9-1.6,2.8-3.2c-0.1-1.7-1.6-2.9-3.2-2.8C69.3,95.9,66.7,96,64,96c-22,0-34-6.3-34-9.5V75.1c7.4,4.6,20.8,6.9,34,6.9c19.9,0,40-5.3,40-15.5V26C104,25.7,103.9,25.4,103.9,25.2z M64,36c-22,0-34-6.3-34-9.5S42,17,64,17s34,6.3,34,9.5S86,36,64,36z M64,76c-22,0-34-6.3-34-9.5V55.1c7.4,4.6,20.8,6.9,34,6.9c13.2,0,26.6-2.4,34-6.9v11.4C98,69.7,86,76,64,76z"/><path fill="#ff5576" d="M101 82A20 20 0 1 0 101 122A20 20 0 1 0 101 82Z" transform="rotate(-45.001 101 102.002)"/><path fill="#fff" d="M107.9,105h-14c-1.7,0-3-1.3-3-3s1.3-3,3-3h14c1.7,0,3,1.3,3,3S109.6,105,107.9,105z"/><g><path fill="#fff" d="M100.9,112c-1.7,0-3-1.3-3-3V95c0-1.7,1.3-3,3-3s3,1.3,3,3v14C103.9,110.7,102.6,112,100.9,112z"/></g></svg>