<svg xmlns="http://www.w3.org/2000/svg" width="100" height="100" viewBox="0 0 80 80"><path fill="#dbb065" d="M2.5,71.5v-63h21.3l6,6h47.7V68c0,1.9-1.6,3.5-3.5,3.5H2.5z"/><path fill="#967a44" d="M23.6,9l5.7,5.7l0.3,0.3H30h47v53c0,1.7-1.3,3-3,3H3V9H23.6 M24,8H2v64h72c2.2,0,4-1.8,4-4V14H30 L24,8L24,8z"/><path fill="#f5ce85" d="M2.5,71.5v-53h21.7l6-4h47.3V68c0,1.9-1.6,3.5-3.5,3.5H2.5z"/><path fill="#967a44" d="M77,15v53c0,1.7-1.3,3-3,3H3V19h21h0.3l0.3-0.2l5.7-3.8H77 M78,14H30l-6,4H2v54h72c2.2,0,4-1.8,4-4 V14L78,14z"/><path fill="#bae0bd" d="M62,79.5c-9.6,0-17.5-7.9-17.5-17.5S52.4,44.5,62,44.5S79.5,52.4,79.5,62S71.6,79.5,62,79.5z"/><path fill="#5e9c76" d="M62,45c9.4,0,17,7.6,17,17s-7.6,17-17,17s-17-7.6-17-17S52.6,45,62,45 M62,44c-9.9,0-18,8.1-18,18 s8.1,18,18,18s18-8.1,18-18S71.9,44,62,44L62,44z"/><path fill="#fff" d="M60 52H64V72H60z"/><path fill="#fff" d="M52 60H72V64H52z"/></svg>