<svg xmlns="http://www.w3.org/2000/svg" viewBox="0 0 48 48" width="500px" height="500px"><linearGradient id="3ZjWsJ9Xsdp7EE5oPx4rda" x1="24" x2="24" y1="6.708" y2="14.977" gradientUnits="userSpaceOnUse"><stop offset="0" stop-color="#eba600"/><stop offset="1" stop-color="#c28200"/></linearGradient><path fill="url(#3ZjWsJ9Xsdp7EE5oPx4rda)" d="M24.414,10.414l-2.536-2.536C21.316,7.316,20.553,7,19.757,7L5,7C3.895,7,3,7.895,3,9l0,30	c0,1.105,0.895,2,2,2l38,0c1.105,0,2-0.895,2-2V13c0-1.105-0.895-2-2-2l-17.172,0C25.298,11,24.789,10.789,24.414,10.414z"/><linearGradient id="3ZjWsJ9Xsdp7EE5oPx4rdb" x1="24" x2="24" y1="10.854" y2="40.983" gradientUnits="userSpaceOnUse"><stop offset="0" stop-color="#ffd869"/><stop offset="1" stop-color="#fec52b"/></linearGradient><path fill="url(#3ZjWsJ9Xsdp7EE5oPx4rdb)" d="M21.586,14.414l3.268-3.268C24.947,11.053,25.074,11,25.207,11H43c1.105,0,2,0.895,2,2v26	c0,1.105-0.895,2-2,2H5c-1.105,0-2-0.895-2-2V15.5C3,15.224,3.224,15,3.5,15h16.672C20.702,15,21.211,14.789,21.586,14.414z"/><path fill="#ed3675" d="M22,26c-2.761,0-5,2.239-5,5s2.239,5,5,5s5-2.239,5-5S24.761,26,22,26z"/><linearGradient id="3ZjWsJ9Xsdp7EE5oPx4rdc" x1="27" x2="32" y1="20" y2="20" gradientUnits="userSpaceOnUse"><stop offset="0" stop-color="#bd1949"/><stop offset=".108" stop-color="#c31a4b"/><stop offset=".38" stop-color="#ca1b4d"/><stop offset="1" stop-color="#cc1b4e"/></linearGradient><path fill="url(#3ZjWsJ9Xsdp7EE5oPx4rdc)" d="M31,22h-4v-4h4c0.552,0,1,0.448,1,1v2C32,21.552,31.552,22,31,22z"/><path fill="#ed3675" d="M27,18h-1c-1.105,0-2,0.895-2,2v11h3V18z"/></svg>