<svg xmlns="http://www.w3.org/2000/svg" viewBox="0 0 48 48" width="50px" height="50px"><linearGradient id="O4o9OCsIH6ms_Pji4Bk47a" x1="5.715" x2="40.857" y1="7.63" y2="42.771" gradientUnits="userSpaceOnUse"><stop offset="0" stop-color="#32bdef"/><stop offset="1" stop-color="#1ea2e4"/></linearGradient><path fill="url(#O4o9OCsIH6ms_Pji4Bk47a)" d="M36.172,6H8C6.895,6,6,6.895,6,8v32c0,1.105,0.895,2,2,2h32c1.105,0,2-0.895,2-2V11.828	c0-0.53-0.211-1.039-0.586-1.414l-3.828-3.828C37.211,6.211,36.702,6,36.172,6z"/><path fill="#1fa4e6" d="M33,19H13c-1.105,0-2-0.895-2-2V6h24v11C35,18.105,34.105,19,33,19z"/><path d="M33,18.909H17c-1.607,0-2.909-1.302-2.909-2.909V6h21.818v10 C35.909,17.607,34.607,18.909,33,18.909z" opacity=".018"/><path d="M33,18.818H17c-1.556,0-2.818-1.262-2.818-2.818V6h21.636v10 C35.818,17.556,34.556,18.818,33,18.818z" opacity=".036"/><path d="M33,18.727H17c-1.506,0-2.727-1.221-2.727-2.727V6h21.455v10 C35.727,17.506,34.506,18.727,33,18.727z" opacity=".054"/><path d="M33,18.636H17c-1.456,0-2.636-1.18-2.636-2.636V6h21.273v10 C35.636,17.456,34.456,18.636,33,18.636z" opacity=".073"/><path d="M33,18.545H17c-1.406,0-2.545-1.14-2.545-2.545V6h21.091v10 C35.545,17.406,34.406,18.545,33,18.545z" opacity=".091"/><path d="M33,18.455H17c-1.356,0-2.455-1.099-2.455-2.455V6h20.909v10 C35.455,17.356,34.356,18.455,33,18.455z" opacity=".109"/><path d="M33,18.364H17c-1.305,0-2.364-1.058-2.364-2.364V6h20.727v10 C35.364,17.305,34.305,18.364,33,18.364z" opacity=".127"/><path d="M33,18.273H17c-1.255,0-2.273-1.018-2.273-2.273V6h20.545v10 C35.273,17.255,34.255,18.273,33,18.273z" opacity=".145"/><path d="M33,18.182H17c-1.205,0-2.182-0.977-2.182-2.182V6h20.364v10 C35.182,17.205,34.205,18.182,33,18.182z" opacity=".164"/><path d="M33,18.091H17c-1.155,0-2.091-0.936-2.091-2.091V6h20.182v10 C35.091,17.155,34.155,18.091,33,18.091z" opacity=".182"/><path d="M33,18H17c-1.105,0-2-0.895-2-2V6h20v10C35,17.105,34.105,18,33,18z" opacity=".2"/><radialGradient id="O4o9OCsIH6ms_Pji4Bk47b" cx="17.573" cy="2.608" r="23.87" gradientUnits="userSpaceOnUse"><stop offset="0" stop-color="#fafafb"/><stop offset=".523" stop-color="#e2e4e7"/><stop offset="1" stop-color="#c8cdd1"/></radialGradient><path fill="url(#O4o9OCsIH6ms_Pji4Bk47b)" d="M15,6v10c0,1.105,0.895,2,2,2h16c1.105,0,2-0.895,2-2V6H15z"/><path fill="#fff" d="M34,42H14c-1.105,0-2-0.895-2-2V28c0-1.105,0.895-2,2-2h20c1.105,0,2,0.895,2,2v12	C36,41.105,35.105,42,34,42z"/><rect width="4" height="8" x="27" y="8" fill="#177cad"/><linearGradient id="O4o9OCsIH6ms_Pji4Bk47c" x1="38.003" x2="40.027" y1="38.003" y2="40.027" gradientUnits="userSpaceOnUse"><stop offset="0" stop-color="#0d61a9"/><stop offset="1" stop-color="#16528c"/></linearGradient><rect width="2" height="2" x="38" y="38" fill="url(#O4o9OCsIH6ms_Pji4Bk47c)"/><linearGradient id="O4o9OCsIH6ms_Pji4Bk47d" x1="8.003" x2="10.027" y1="38.003" y2="40.027" gradientUnits="userSpaceOnUse"><stop offset="0" stop-color="#0d61a9"/><stop offset="1" stop-color="#16528c"/></linearGradient><rect width="2" height="2" x="8" y="38" fill="url(#O4o9OCsIH6ms_Pji4Bk47d)"/><path d="M42,15.602L26.101,31.504L24.868,36.4c-0.111,0.442,0.29,0.843,0.732,0.732l4.897-1.233L42,24.394	V15.602z" opacity=".05"/><path d="M42,16.309L26.941,31.371l-0.547,1.017l0,0l-0.001,0l-0.864,3.434	c-0.099,0.392,0.256,0.746,0.648,0.648l3.446-0.868l0,0l0,0l1.006-0.543L42,23.673V16.309z" opacity=".07"/><path fill="#c94f60" d="M45.781,18.141l-1.922-1.921c-0.292-0.293-0.768-0.293-1.061,0l-0.904,0.905l2.981,2.981l0.905-0.904	C46.073,18.908,46.073,18.434,45.781,18.141"/><path fill="#f0f0f0" d="M27.003,32.016L26,36l3.985-1.003l0.418-3.456L27.003,32.016z"/><path fill="#edbe00" d="M42.333,22.648L29.985,34.996l-2.981-2.981l12.348-12.348L42.333,22.648z"/><linearGradient id="O4o9OCsIH6ms_Pji4Bk47e" x1="42.112" x2="42.112" y1="17.312" y2="22.801" gradientUnits="userSpaceOnUse"><stop offset="0" stop-color="#dedede"/><stop offset="1" stop-color="#d6d6d6"/></linearGradient><path fill="url(#O4o9OCsIH6ms_Pji4Bk47e)" d="M39.349,19.667l2.543-2.544l2.983,2.981l-2.543,2.544L39.349,19.667z"/><path fill="#787878" d="M26.508,33.985L26,36l2.014-0.508L26.508,33.985z"/></svg>