<svg xmlns="http://www.w3.org/2000/svg" viewBox="0 0 48 48" width="100px" height="100px"><linearGradient id="kEhyfYsarGfPmSU42jezva" x1="6.221" x2="37.408" y1="6.221" y2="37.408" gradientUnits="userSpaceOnUse"><stop offset="0" stop-color="#f0f0f0"/><stop offset="1" stop-color="#bbc1c4"/></linearGradient><path fill="url(#kEhyfYsarGfPmSU42jezva)" d="M24,5C13.507,5,5,13.507,5,24s8.507,19,19,19s19-8.507,19-19S34.493,5,24,5z"/><linearGradient id="kEhyfYsarGfPmSU42jezvb" x1="12.859" x2="35.224" y1="12.859" y2="35.224" gradientUnits="userSpaceOnUse"><stop offset="0" stop-color="#e04f12"/><stop offset=".615" stop-color="#ce400d"/><stop offset="1" stop-color="#c03409"/></linearGradient><path fill="url(#kEhyfYsarGfPmSU42jezvb)" d="M24,40c8.837,0,16-7.163,16-16S32.837,8,24,8S8,15.163,8,24S15.163,40,24,40z"/><path d="M30.414,20l3.89-3.89c0.708-0.708,0.449-1.772,0-2.221l-2.195-2.195	c-0.611-0.609-1.606-0.61-2.218,0.001l-7.194,7.194c-0.549,0.549-0.752,1.469-0.001,2.22l7.196,7.196	c0.76,0.76,1.592,0.625,2.218-0.001l2.194-2.194c0.707-0.707,0.716-1.505,0.001-2.22L30.414,20z" opacity=".05"/><path d="M33.951,14.244l-2.195-2.195c-0.417-0.416-1.094-0.416-1.511,0l-7.195,7.195	c-0.386,0.386-0.487,1.025,0,1.512l7.196,7.196c0.491,0.491,1.087,0.424,1.511,0l2.195-2.195c0.464-0.464,0.469-1.044,0-1.512	L29.707,20l4.244-4.244C34.416,15.291,34.286,14.579,33.951,14.244z" opacity=".07"/><path d="M17.586,28l-3.89,3.89c-0.708,0.708-0.449,1.772,0,2.221l2.195,2.195	c0.611,0.609,1.606,0.61,2.218-0.001l7.194-7.194c0.549-0.549,0.752-1.469,0.001-2.22l-7.196-7.196	c-0.76-0.76-1.592-0.625-2.218,0.001l-2.194,2.194c-0.707,0.707-0.716,1.505-0.001,2.22L17.586,28z" opacity=".05"/><path d="M14.049,33.756l2.195,2.195c0.417,0.416,1.094,0.416,1.511,0l7.195-7.195	c0.386-0.386,0.487-1.025,0-1.512l-7.196-7.196c-0.491-0.491-1.087-0.424-1.511,0l-2.195,2.195c-0.464,0.464-0.469,1.044,0,1.512	L18.293,28l-4.244,4.244C13.584,32.709,13.714,33.421,14.049,33.756z" opacity=".07"/><linearGradient id="kEhyfYsarGfPmSU42jezvc" x1="23.755" x2="38.564" y1="9.93" y2="33.557" gradientUnits="userSpaceOnUse"><stop offset="0" stop-color="#fcfcfc"/><stop offset="1" stop-color="#c3c9cd"/></linearGradient><path fill="url(#kEhyfYsarGfPmSU42jezvc)" d="M33.598,14.598l-2.196-2.196c-0.222-0.222-0.582-0.222-0.804,0l-7.196,7.196 c-0.222,0.222-0.222,0.582,0,0.804l7.196,7.196c0.222,0.222,0.582,0.222,0.804,0l2.196-2.196c0.222-0.222,0.222-0.582,0-0.804 L29,20l4.598-4.598C33.82,15.18,33.82,14.82,33.598,14.598z"/><linearGradient id="kEhyfYsarGfPmSU42jezvd" x1="11.438" x2="26.247" y1="17.637" y2="41.265" gradientUnits="userSpaceOnUse"><stop offset="0" stop-color="#fcfcfc"/><stop offset="1" stop-color="#c3c9cd"/></linearGradient><path fill="url(#kEhyfYsarGfPmSU42jezvd)" d="M14.402,23.402L19,28l-4.598,4.598c-0.222,0.222-0.222,0.582,0,0.804l2.196,2.196 c0.222,0.222,0.582,0.222,0.804,0l7.196-7.196c0.222-0.222,0.222-0.582,0-0.804l-7.196-7.196c-0.222-0.222-0.582-0.222-0.804,0 l-2.196,2.196C14.18,22.82,14.18,23.18,14.402,23.402z"/></svg>