<svg xmlns="http://www.w3.org/2000/svg" viewBox="0 0 48 48" width="100px" height="100px"><path fill="#50e6ff" d="M18.03,19.912h-0.04l-2.302,1.142l-0.469-2.171l3.159-1.565h2.416V30.32H18.03V19.912z"/><path fill="#50e6ff" d="M31.626,19.717H27.62l-0.284,2.159c0.187-0.019,0.351-0.022,0.548-0.022 c0.798,0.012,1.99,0.282,2.802,0.969c0.815,0.689,1.281,1.709,1.281,3.089c0,2.488-1.821,4.588-4.924,4.588 c-1.159,0-2.272-0.277-2.868-0.595l0.456-2.186c0.518,0.252,1.37,0.514,2.237,0.514c1.276,0,2.278-0.733,2.277-2.093 c-0.001-1.591-1.229-2.246-3.106-2.246c-0.484,0-0.856,0.022-1.219,0.073l0.765-6.652h6.042V19.717z"/><path fill="#0884db" d="M23.401,10.798L18.069,6.8c-0.533-0.4-0.533-1.2,0-1.599l5.331-3.999C24.06,0.707,25,1.178,25,2.001	v7.997C25,10.822,24.06,11.293,23.401,10.798z"/><path fill="#0884db" d="M17.401,10.798L12.069,6.8c-0.533-0.4-0.533-1.2,0-1.599l5.331-3.999C18.06,0.707,19,1.178,19,2.001	v7.997C19,10.822,18.06,11.293,17.401,10.798z"/><path fill="#0368ba" d="M25.105,43.97C13.609,44.597,4,35.366,4,24c0-4.358,1.462-8.63,4.146-12.099	c0.346-0.447,1.008-0.494,1.435-0.124l1.479,1.282c0.411,0.356,0.447,0.964,0.113,1.393c-2.688,3.464-3.711,8.072-2.906,12.531	c1.399,7.746,8.128,13.145,15.998,13.015c9.228-0.152,16.62-8.218,15.649-17.667l4.056,2.775	C43.42,35.174,35.174,43.42,25.105,43.97z"/><path fill="#0884db" d="M24,44c0,0,16-3,16-20c0-8.8-7.2-16-16-16h-3.2V4H24c11,0,20,9,20,20S35,44,24,44z"/></svg>