<svg xmlns="http://www.w3.org/2000/svg" viewBox="0 0 48 48" width="100px" height="100px"><path fill="#ffadc8" d="M39,16v25c0,1.105-0.895,2-2,2H11c-1.105,0-2-0.895-2-2V7c0-1.105,0.895-2,2-2h17L39,16z"/><linearGradient id="8IksPYbkeUFElfnkmcFOka" x1="28.649" x2="33.551" y1="15.351" y2="10.449" gradientUnits="userSpaceOnUse"><stop offset="0" stop-color="#f44f5a"/><stop offset=".337" stop-color="#f34c57"/><stop offset=".595" stop-color="#f0424f"/><stop offset=".825" stop-color="#eb3240"/><stop offset="1" stop-color="#e52030"/></linearGradient><path fill="url(#8IksPYbkeUFElfnkmcFOka)" d="M28,5v9c0,1.105,0.895,2,2,2h9L28,5z"/><path fill="#e52030" d="M15.675,24.554c0.49-0.096,1.158-0.161,1.947-0.161c1.007,0,1.772,0.165,2.309,0.634 c0.495,0.419,0.754,1.089,0.754,1.811c0,0.852-0.265,1.495-0.71,1.946c-0.548,0.55-1.404,0.8-2.201,0.8 c-0.151,0-0.293-0.005-0.418-0.017v2.956h-1.681V24.554z M17.356,28.217c0.105,0.021,0.222,0.027,0.376,0.027 c0.847,0,1.275-0.536,1.275-1.298c0-0.709-0.359-1.22-1.144-1.22c-0.219,0-0.399,0.025-0.507,0.06V28.217z"/><path fill="#e52030" d="M21.71,24.555c0.491-0.097,1.181-0.162,1.914-0.162c1.204,0,2.018,0.254,2.629,0.772 c0.747,0.627,1.163,1.668,1.163,3.184c0,1.604-0.471,2.736-1.204,3.375c-0.658,0.585-1.632,0.87-2.921,0.87 c-0.663,0-1.225-0.053-1.581-0.102V24.555z M23.397,31.207c0.106,0.026,0.269,0.026,0.398,0.026 c1.057,0.005,1.854-0.792,1.854-2.898c0.001-1.654-0.617-2.61-1.767-2.61c-0.209,0-0.369,0.015-0.486,0.049V31.207z"/><path fill="#e52030" d="M28.491,24.438h4.035v1.436h-2.341v1.966h2.195v1.393h-2.195v3.29h-1.694V24.438z"/></svg>