<svg xmlns="http://www.w3.org/2000/svg" viewBox="0 0 40 40" width="100px" height="100px"><path fill="#fff" d="M6.5 37.5L6.5 2.5 24.793 2.5 33.5 11.207 33.5 37.5z"/><path fill="#4788c7" d="M24.586,3L33,11.414V37H7V3H24.586 M25,2H6v36h28V11L25,2L25,2z"/><path fill="#fff" d="M21 19H34V38H21z"/><path fill="#dff0fe" d="M24.5 11.5L24.5 2.5 24.793 2.5 33.5 11.207 33.5 11.5z"/><path fill="#4788c7" d="M25 3.414L32.586 11H25V3.414M25 2h-1v10h10v-1L25 2 25 2zM27.5 17h-15c-.276 0-.5-.224-.5-.5l0 0c0-.276.224-.5.5-.5h15c.276 0 .5.224.5.5l0 0C28 16.776 27.776 17 27.5 17zM23.5 20h-11c-.276 0-.5-.224-.5-.5l0 0c0-.276.224-.5.5-.5h11c.276 0 .5.224.5.5l0 0C24 19.776 23.776 20 23.5 20zM27.5 23h-15c-.276 0-.5-.224-.5-.5l0 0c0-.276.224-.5.5-.5h15c.276 0 .5.224.5.5l0 0C28 22.776 27.776 23 27.5 23zM27.5 29h-15c-.276 0-.5-.224-.5-.5l0 0c0-.276.224-.5.5-.5h15c.276 0 .5.224.5.5l0 0C28 28.776 27.776 29 27.5 29zM23.5 26h-11c-.276 0-.5-.224-.5-.5l0 0c0-.276.224-.5.5-.5h11c.276 0 .5.224.5.5l0 0C24 25.776 23.776 26 23.5 26z"/><path fill="#fff" d="M28 23v-1h-2.388c-.495.297-.966.628-1.404 1H28zM28 29v-1h-7.059c-.097.327-.179.66-.245 1H28zM24 26v-1h-1.61c-.225.322-.437.653-.625 1H24z"/><path fill="#98ccfd" d="M31,39.5c-4.687,0-8.5-3.813-8.5-8.5s3.813-8.5,8.5-8.5s8.5,3.813,8.5,8.5S35.687,39.5,31,39.5z"/><path fill="#4788c7" d="M31,23c4.411,0,8,3.589,8,8s-3.589,8-8,8c-4.411,0-8-3.589-8-8S26.589,23,31,23 M31,22 c-4.971,0-9,4.029-9,9s4.029,9,9,9c4.971,0,9-4.029,9-9S35.971,22,31,22L31,22z"/><path fill="none" stroke="#fff" stroke-miterlimit="10" stroke-width="2" d="M31 36L31 26M26 31L36 31"/><path fill="#4788c7" d="M33.5 17L33.5 17c.275 0 .5.225.5.5v2c0 .275-.225.5-.5.5l0 0c-.275 0-.5-.225-.5-.5v-2C33 17.225 33.225 17 33.5 17zM20.5 38h1c.275 0 .5-.225.5-.5l0 0c0-.275-.225-.5-.5-.5h-1c-.275 0-.5.225-.5.5l0 0C20 37.775 20.225 38 20.5 38z"/></svg>