<svg fill="#000000" xmlns="http://www.w3.org/2000/svg" viewBox="0 0 80 80" width="50px" height="50px"><path d="M 9 16 C 6.792969 16 5 17.792969 5 20 L 5 34 L 6 34 C 9.308594 34 12 36.691406 12 40 C 12 43.308594 9.308594 46 6 46 L 5 46 L 5 60 C 5 62.207031 6.792969 64 9 64 L 45 64 C 45 63.324219 45.042969 62.65625 45.117188 62 L 26 62 C 26 61.449219 25.550781 61 25 61 C 24.449219 61 24 61.449219 24 62 L 9 62 C 7.898438 62 7 61.101563 7 60 L 7 47.9375 C 10.941406 47.445313 14 44.074219 14 40 C 14 35.925781 10.941406 32.554688 7 32.0625 L 7 20 C 7 18.898438 7.898438 18 9 18 L 24 18 C 24 18.550781 24.449219 19 25 19 C 25.550781 19 26 18.550781 26 18 L 71 18 C 72.101563 18 73 18.898438 73 20 L 73 32.0625 C 69.058594 32.554688 66 35.925781 66 40 C 66 44.074219 69.058594 47.445313 73 47.9375 L 75 47.9375 L 75 46 L 74 46 C 70.691406 46 68 43.308594 68 40 C 68 36.691406 70.691406 34 74 34 L 75 34 L 75 20 C 75 17.792969 73.207031 16 71 16 Z M 25 21 C 24.449219 21 24 21.449219 24 22 C 24 22.550781 24.449219 23 25 23 C 25.550781 23 26 22.550781 26 22 C 26 21.449219 25.550781 21 25 21 Z M 25 25 C 24.449219 25 24 25.449219 24 26 C 24 26.550781 24.449219 27 25 27 C 25.550781 27 26 26.550781 26 26 C 26 25.449219 25.550781 25 25 25 Z M 25 29 C 24.449219 29 24 29.449219 24 30 C 24 30.550781 24.449219 31 25 31 C 25.550781 31 26 30.550781 26 30 C 26 29.449219 25.550781 29 25 29 Z M 25 33 C 24.449219 33 24 33.449219 24 34 C 24 34.550781 24.449219 35 25 35 C 25.550781 35 26 34.550781 26 34 C 26 33.449219 25.550781 33 25 33 Z M 25 37 C 24.449219 37 24 37.449219 24 38 C 24 38.550781 24.449219 39 25 39 C 25.550781 39 26 38.550781 26 38 C 26 37.449219 25.550781 37 25 37 Z M 25 41 C 24.449219 41 24 41.449219 24 42 C 24 42.550781 24.449219 43 25 43 C 25.550781 43 26 42.550781 26 42 C 26 41.449219 25.550781 41 25 41 Z M 25 45 C 24.449219 45 24 45.449219 24 46 C 24 46.550781 24.449219 47 25 47 C 25.550781 47 26 46.550781 26 46 C 26 45.449219 25.550781 45 25 45 Z M 64 48 C 55.175781 48 48 55.175781 48 64 C 48 72.824219 55.175781 80 64 80 C 72.824219 80 80 72.824219 80 64 C 80 55.175781 72.824219 48 64 48 Z M 25 49 C 24.449219 49 24 49.449219 24 50 C 24 50.550781 24.449219 51 25 51 C 25.550781 51 26 50.550781 26 50 C 26 49.449219 25.550781 49 25 49 Z M 64 50 C 71.742188 50 78 56.257813 78 64 C 78 71.742188 71.742188 78 64 78 C 56.257813 78 50 71.742188 50 64 C 50 56.257813 56.257813 50 64 50 Z M 25 53 C 24.449219 53 24 53.449219 24 54 C 24 54.550781 24.449219 55 25 55 C 25.550781 55 26 54.550781 26 54 C 26 53.449219 25.550781 53 25 53 Z M 25 57 C 24.449219 57 24 57.449219 24 58 C 24 58.550781 24.449219 59 25 59 C 25.550781 59 26 58.550781 26 58 C 26 57.449219 25.550781 57 25 57 Z M 63 57 L 63 63 L 57 63 L 57 65 L 63 65 L 63 71 L 65 71 L 65 65 L 71 65 L 71 63 L 65 63 L 65 57 Z"/></svg>