<svg fill="#000000" xmlns="http://www.w3.org/2000/svg" viewBox="0 0 50 50" width="50px" height="50px"><path d="M 10.40625 4 C 10.015625 4.042969 9.683594 4.3125 9.5625 4.6875 L 0.0625 34.28125 C -0.0703125 34.652344 0.0273438 35.070313 0.3125 35.34375 L 10.40625 44.71875 C 10.589844 44.898438 10.835938 44.996094 11.09375 45 L 22 45 C 22.457031 45 22.855469 44.691406 22.96875 44.25 L 24.28125 39.34375 C 24.292969 39.34375 24.300781 39.34375 24.3125 39.34375 C 24.402344 39.378906 24.496094 39.398438 24.59375 39.40625 L 27.0625 39.40625 L 31.65625 44.65625 C 31.84375 44.875 32.117188 45 32.40625 45 L 43.6875 45 C 44.175781 45.007813 44.597656 44.664063 44.6875 44.1875 L 49.96875 16.1875 C 50.011719 15.964844 49.980469 15.734375 49.875 15.53125 L 44.1875 4.53125 C 44.015625 4.207031 43.679688 4.003906 43.3125 4 L 31.90625 4 C 31.449219 4 31.050781 4.308594 30.9375 4.75 L 29.8125 9.125 L 27.46875 9.1875 C 27.023438 9.203125 26.640625 9.507813 26.53125 9.9375 L 26.46875 10.125 L 22.3125 4.40625 C 22.121094 4.148438 21.820313 3.996094 21.5 4 L 10.5 4 C 10.46875 4 10.4375 4 10.40625 4 Z M 11.21875 6 L 20.09375 6 L 18.71875 10.59375 L 9.75 10.59375 Z M 32.6875 6 L 41.96875 6 L 39.6875 15.59375 L 34.84375 15.59375 C 34.898438 15.433594 35.039063 15.332031 35.0625 15.15625 L 35.09375 15.15625 C 35.09375 15.144531 35.09375 15.136719 35.09375 15.125 L 35.59375 11.75 C 35.59375 11.738281 35.59375 11.730469 35.59375 11.71875 C 35.664063 11.097656 35.5625 10.4375 35.15625 9.90625 C 34.75 9.375 34.078125 9.09375 33.40625 9.09375 L 31.875 9.09375 Z M 21.84375 7.1875 L 25.84375 12.65625 L 25.0625 15.59375 L 22 15.59375 L 22.96875 11.84375 C 23.046875 11.542969 22.980469 11.226563 22.789063 10.980469 C 22.601563 10.738281 22.308594 10.59375 22 10.59375 L 20.8125 10.59375 Z M 43.625 7.8125 L 47.96875 16.15625 L 42.875 43 L 32.84375 43 L 28.25 37.75 C 28.0625 37.53125 27.789063 37.40625 27.5 37.40625 L 25.09375 37.40625 L 24.59375 36.78125 C 24.363281 36.484375 23.984375 36.34375 23.613281 36.417969 C 23.242188 36.488281 22.945313 36.761719 22.84375 37.125 L 21.25 43 L 11.46875 43 L 3.5 35.5625 L 12.3125 35.5 C 12.75 35.492188 13.128906 35.199219 13.25 34.78125 L 15.1875 28.03125 C 15.199219 28.019531 15.207031 28.011719 15.21875 28 C 15.277344 27.902344 15.320313 27.796875 15.34375 27.6875 L 16.625 23.3125 L 18.09375 23.3125 L 16.84375 27.71875 C 16.753906 28.023438 16.816406 28.351563 17.003906 28.601563 C 17.195313 28.855469 17.496094 29.003906 17.8125 29 L 24 29 C 24.457031 29 24.855469 28.691406 24.96875 28.25 L 26.28125 23.40625 L 27.6875 23.40625 L 24.71875 34.4375 C 24.640625 34.738281 24.707031 35.054688 24.898438 35.300781 C 25.085938 35.542969 25.378906 35.6875 25.6875 35.6875 L 36.59375 35.6875 C 37.058594 35.683594 37.460938 35.359375 37.5625 34.90625 L 41.28125 17.625 L 41.40625 17.09375 L 41.46875 16.8125 C 41.480469 16.792969 41.492188 16.769531 41.5 16.75 L 41.5 16.71875 Z M 30.34375 11.09375 C 30.394531 11.097656 30.449219 11.097656 30.5 11.09375 L 33.40625 11.09375 C 33.519531 11.09375 33.574219 11.117188 33.59375 11.125 C 33.589844 11.117188 33.625 11.21875 33.59375 11.5 L 33.625 11.5 L 33.125 14.84375 C 33.113281 14.855469 33.105469 14.863281 33.09375 14.875 C 33.054688 15.242188 32.769531 15.5 32.3125 15.5 C 32.160156 15.496094 32.011719 15.53125 31.875 15.59375 L 27.125 15.59375 L 28.0625 12.15625 C 28.089844 12.054688 28.101563 11.949219 28.09375 11.84375 L 28.28125 11.15625 Z M 9.09375 12.59375 L 20.6875 12.59375 L 19.71875 16.34375 C 19.640625 16.644531 19.707031 16.960938 19.898438 17.207031 C 20.085938 17.449219 20.378906 17.59375 20.6875 17.59375 L 39.28125 17.59375 L 35.8125 33.6875 L 27 33.6875 L 29.96875 22.65625 C 30.046875 22.355469 29.980469 22.039063 29.789063 21.792969 C 29.601563 21.550781 29.308594 21.40625 29 21.40625 L 25.5 21.40625 C 25.042969 21.40625 24.644531 21.714844 24.53125 22.15625 L 23.21875 27 L 19.125 27 L 20.375 22.5625 C 20.453125 22.261719 20.386719 21.945313 20.195313 21.699219 C 20.007813 21.457031 19.714844 21.3125 19.40625 21.3125 L 15.90625 21.3125 C 15.457031 21.308594 15.0625 21.601563 14.9375 22.03125 L 13.8125 25.90625 L 13.78125 25.9375 C 13.714844 26.023438 13.660156 26.117188 13.625 26.21875 L 13.5625 26.40625 L 10.15625 26.40625 L 10.5625 25.21875 C 10.5625 25.207031 10.5625 25.199219 10.5625 25.1875 C 10.730469 24.59375 10.660156 23.945313 10.3125 23.4375 C 9.964844 22.929688 9.324219 22.59375 8.6875 22.59375 L 5.875 22.59375 Z M 5.25 24.59375 L 8.625 24.59375 C 8.625 24.605469 8.636719 24.582031 8.625 24.625 L 8.28125 25.71875 L 8.25 25.78125 L 8.28125 25.78125 C 8.109375 26.21875 8.132813 26.675781 8.28125 27.125 C 7.941406 27.394531 7.574219 27.648438 7.4375 28.125 L 7.03125 29.53125 L 7.0625 29.53125 C 6.855469 30.082031 6.753906 30.785156 7.15625 31.46875 C 7.585938 32.203125 8.488281 32.59375 9.59375 32.59375 L 11.8125 32.59375 L 11.53125 33.5 L 2.34375 33.59375 Z M 10.09375 28.40625 L 13 28.40625 L 12.375 30.59375 L 9.59375 30.59375 C 8.898438 30.59375 8.871094 30.460938 8.875 30.46875 C 8.878906 30.476563 8.847656 30.328125 8.90625 30.1875 C 8.929688 30.148438 8.949219 30.105469 8.96875 30.0625 L 9.375 28.6875 C 9.386719 28.640625 9.398438 28.601563 9.53125 28.53125 C 9.664063 28.460938 9.886719 28.40625 10.09375 28.40625 Z"/></svg>