<svg xmlns="http://www.w3.org/2000/svg" viewBox="0 0 64 64" width="100px" height="100px"><path fill="#c4939c" d="M28.09 6.83L32.73 12.5 35.67 12.83 32.73 21.25 27.25 20.81 28.75 15.31 24.94 15.13 27.75 5.69 28.09 6.83z"/><path fill="#97e0bb" d="M34.53 13L32 21.19 41.91 20.92 43.64 13 34.53 13z"/><path fill="#c4939c" d="M51 5L55.15 6 63 20.14 55.66 57 53.97 56.92 43.25 42.75 51 5z"/><path fill="#cda1a7" d="M2.38 45.03L16 45.03 22.07 27 25.47 27 23.17 36.62 30.84 36.62 32.73 29 37.51 29 34.31 45.03 46.31 45.03 55.94 56.99 42.23 57.49 36.97 50.72 35.03 49.22 30.3 49.33 27.73 57 14.67 57 1.51 45.03 2.38 45.03z"/><path fill="#c4939c" d="M23.12 37.5L33.41 48.99 30.3 49.33 26.83 56.92 16 45.03 22.07 27 25.47 27 23.12 37.5z"/><path fill="#72caaf" d="M14 5.5L1.04 45.03 16 45.03 22.07 27 25 27 25.51 29 23.17 36.62 28.81 37.5 31.42 36.62 33.34 29 36.92 29 37.6 30 34.31 45.03 46.58 45.03 55.15 5.1 41.06 5.1 39.25 13 43.64 13 41.64 21 27.25 20.81 28.75 15.31 24.94 15.13 27.75 5.69 25.75 4.75 14 5.5z"/><path fill="#5dbc9d" d="M5.98 29.93L1.51 44.81 16.07 44.81 17.95 38.84 10.76 38.84 12.55 30.72 9.73 29.53 5.98 29.93z"/><path fill="#8d6c9f" d="M63.55,18.91,56.45,5.59A3,3,0,0,0,53.8,4H42.7a3,3,0,0,0-2.9,2.22l-1.37,5a1,1,0,0,1-1,.74H34a1,1,0,0,1-.8-.41L28.49,5.22A3,3,0,0,0,26.07,4H15.45A3,3,0,0,0,12.6,6.07L.44,43.47a3,3,0,0,0,.82,3.13l11.48,10.6a3,3,0,0,0,2,.79H26.37a3,3,0,0,0,2.9-2.24l1.3-5a1,1,0,0,1,1-.75h2.61a1,1,0,0,1,.76.36l5.55,6.58A3,3,0,0,0,42.76,58H54.34a3,3,0,0,0,2.95-2.44l6.56-34.68h0A3,3,0,0,0,63.55,18.91ZM41.73,6.74a1,1,0,0,1,1-.74H53.8L54,6,51,20H43.28l1.38-5.51A2,2,0,0,0,42.72,12H40.29c0-.07.06-.14.08-.22Zm-8.43,7.18-.92,2.76a1,1,0,1,0,1.9.63L35.39,14h2.08a3,3,0,0,0,.38,0A.94.94,0,0,0,38,14h4.72l-1.5,6H28.39l1.12-3.37A2,2,0,0,0,27.61,14H26.34l1.78-5.92,3.48,4.7A3,3,0,0,0,33.31,13.92ZM14.5,6.69a1,1,0,0,1,1-.69H26.07a1,1,0,0,1,.53.16L24.26,14H12.13Zm2.76,31.36A1,1,0,0,0,17,38H11.39l.67-2h5.89Zm-7.77-.69A2,2,0,0,0,11.39,40h5.23l-1.33,4H2.38L6.6,31h5Zm52.4-16.86L56.3,50.06A1,1,0,0,0,56,50a1,1,0,0,0-1,1v2a1,1,0,0,0,.57.89l-.24,1.29a1,1,0,0,1-1,.81H42.76a1,1,0,0,1-.76-.36l-1.54-1.83A1,1,0,0,0,41,54a1,1,0,0,0,1-1V51a1,1,0,0,0-2,0v2a1,1,0,0,0,.07.36l-3.63-4.3A3,3,0,0,0,34.15,48H31.55a3,3,0,0,0-2.9,2.24l-1.3,5a1,1,0,0,1-1,.75H14.78a1,1,0,0,1-.68-.27L11,52.87V51a1,1,0,0,0-2,0v0L3.56,46H15.28a2,2,0,0,0,1.9-1.37L22.72,28h1.94l-2.23,7.43A2,2,0,0,0,24.34,38h5.88a2,2,0,0,0,1.94-1.51L33.78,30h2.94L33.34,43.52A2,2,0,0,0,35.28,46h10.5a2,2,0,0,0,2-1.58l1.63-7.54a1,1,0,0,0-2-.42L45.78,44H35.28l3.38-13.53A2,2,0,0,0,36.72,28h-3a2,2,0,0,0-1.93,1.51L30.22,36H24.34l2.23-7.43A2,2,0,0,0,24.66,26H22.72a2,2,0,0,0-1.9,1.37L18.61,34H12.72l.79-2.37A2,2,0,0,0,11.61,29H7.25l4.22-13H27.61l-1.12,3.37A2,2,0,0,0,28.39,22H50.53l-.85,3.93a1,1,0,0,0,.77,1.19l.21,0a1,1,0,0,0,1-.79L55.56,8.17l6.23,11.68A1,1,0,0,1,61.89,20.51Z"/><path fill="#8d6c9f" d="M50.8 30.21a1 1 0 1 0-2-.42l-.5 2.32a1 1 0 0 0 .77 1.19l.21 0a1 1 0 0 0 1-.79zM15 50a1 1 0 0 0-1 1v2a1 1 0 0 0 2 0V51A1 1 0 0 0 15 50zM20 50a1 1 0 0 0-1 1v2a1 1 0 0 0 2 0V51A1 1 0 0 0 20 50zM25 50a1 1 0 0 0-1 1v2a1 1 0 0 0 2 0V51A1 1 0 0 0 25 50zM46 50a1 1 0 0 0-1 1v2a1 1 0 0 0 2 0V51A1 1 0 0 0 46 50zM51 50a1 1 0 0 0-1 1v2a1 1 0 0 0 2 0V51A1 1 0 0 0 51 50z"/></svg>