<svg xmlns="http://www.w3.org/2000/svg" viewBox="0 0 80 80" width="500px" height="500px"><path fill="#fff" d="M12.5 75.5L12.5 4.5 49.8 4.5 67.5 22.2 67.5 75.5z"/><path fill="#788b9c" d="M49.6,5L67,22.4V75H13V5H49.6 M50,4H12v72h56V22L50,4L50,4z"/><path fill="#c5d4de" d="M47.7,76H68V42.9c-0.3-0.1-0.7-0.2-1-0.3V75H46.8C47.1,75.3,47.4,75.7,47.7,76z"/><path fill="#788b9c" d="M24 32H56V33H24zM24 38H48V39H24zM56 44v1H24v-1H56zM48 50H24v1h24V50zM24 57h32v-1H24V57z"/><path fill="#c5d4de" d="M56 45v-1h-2.7c-.6.3-1.2.6-1.8 1H56zM56 57v-1H42.9c-.1.3-.2.7-.3 1H56zM48 51v-1h-2c-.2.3-.5.7-.7 1H48z"/><path fill="#fff" d="M50.5 21.5L50.5 5.2 66.8 21.5z"/><path fill="#788b9c" d="M51,6.4L65.6,21H51V6.4 M50,4L50,4v18h18L50,4L50,4z"/><g><path fill="#bae0bd" d="M62,79.5c-9.6,0-17.5-7.9-17.5-17.5S52.4,44.5,62,44.5S79.5,52.4,79.5,62S71.6,79.5,62,79.5z"/><path fill="#5e9c76" d="M62,45c9.4,0,17,7.6,17,17s-7.6,17-17,17s-17-7.6-17-17S52.6,45,62,45 M62,44c-9.9,0-18,8.1-18,18 s8.1,18,18,18s18-8.1,18-18S71.9,44,62,44L62,44z"/></g><path fill="#fff" d="M60 52H64V72H60z"/><path fill="#fff" d="M52 60H72V64H52z"/></svg>