<svg xmlns="http://www.w3.org/2000/svg" viewBox="0 0 30 30" width="50px" height="50px"><path fill="#fff" d="M5.5 27.5L5.5 2.5 18.8 2.5 24.5 8.2 24.5 27.5z"/><path fill="#788b9c" d="M18.6,3L24,8.4V27H6V3H18.6 M19,2H5v26h20V8L19,2L19,2z"/><path fill="#c5d4de" d="M15.5,28H25V14.2c-0.3-0.1-0.7-0.1-1-0.2V27h-9.1C15.1,27.3,15.3,27.7,15.5,28z"/><path fill="#fff" d="M18.5 8.5L18.5 2.5 18.8 2.5 24.5 8.2 24.5 8.5z"/><path fill="#788b9c" d="M19 3.4L23.6 8H19V3.4M19 2h-1v7h7V8L19 2 19 2zM9 12H21V13H9z"/><path fill="#bcc9d6" d="M9 21H21V22H9zM9 18H21V19H9z"/><path fill="#788b9c" d="M9 15H19V16H9z"/><path fill="#bae0bd" d="M23 16.5A6.5 6.5 0 1 0 23 29.5A6.5 6.5 0 1 0 23 16.5Z"/><path fill="#5e9c76" d="M23,17c3.3,0,6,2.7,6,6s-2.7,6-6,6s-6-2.7-6-6S19.7,17,23,17 M23,16c-3.9,0-7,3.1-7,7s3.1,7,7,7 s7-3.1,7-7S26.9,16,23,16L23,16z"/><g><path fill="#788b9c" d="M14.2 21H9v1h5.1C14.1 21.7 14.2 21.3 14.2 21zM15.5 18H9v1h5.9C15.1 18.7 15.3 18.3 15.5 18z"/></g><path fill="#fff" d="M22 19H24V27H22z"/><path fill="#fff" d="M19 22H27V24H19z"/></svg>