<svg fill="#000000" xmlns="http://www.w3.org/2000/svg" viewBox="0 0 64 64" width="500px" height="500px"><path d="M 21.660156 2 C 20.320313 2 19.058594 2.519531 18.121094 3.460938 L 9.460938 12.121094 C 8.519531 13.070313 8 14.320313 8 15.660156 L 8 55 C 8 56.648438 9.351563 58 11 58 L 41.511719 58 L 41.921875 59.269531 C 42.160156 60.007813 42.910156 60.4375 43.660156 60.28125 L 46.128906 59.75 L 48 61.4375 C 48.289063 61.699219 48.648438 61.828125 49 61.828125 C 49.359375 61.828125 49.71875 61.699219 50.011719 61.4375 L 51.878906 59.75 L 54.347656 60.28125 C 55.109375 60.4375 55.851563 60.007813 56.089844 59.269531 L 56.871094 56.871094 L 59.269531 56.089844 C 60.007813 55.859375 60.4375 55.109375 60.28125 54.347656 L 59.75 51.878906 L 61.4375 50.011719 C 61.960938 49.441406 61.960938 48.570313 61.4375 48 L 59.75 46.128906 L 60.28125 43.660156 C 60.4375 42.898438 60 42.148438 59.269531 41.921875 L 56.871094 41.140625 L 56.089844 38.738281 C 55.859375 38 55.109375 37.570313 54.347656 37.730469 L 54 37.8125 L 54 5 C 54 3.351563 52.648438 2 51 2 Z M 22 4 L 51 4 C 51.550781 4 52 4.449219 52 5 L 52 38.230469 L 51.878906 38.261719 L 50.011719 36.570313 C 49.441406 36.050781 48.570313 36.050781 48 36.570313 L 46.128906 38.261719 L 43.660156 37.730469 C 42.910156 37.570313 42.160156 38 41.921875 38.738281 L 41.140625 41.140625 L 38.738281 41.921875 C 38.011719 42.148438 37.570313 42.898438 37.730469 43.660156 L 38.261719 46.128906 L 36.570313 48 C 36.050781 48.570313 36.050781 49.441406 36.570313 50.011719 L 38.261719 51.878906 L 37.730469 54.347656 C 37.589844 55.03125 37.910156 55.699219 38.511719 56 L 11 56 C 10.449219 56 10 55.550781 10 55 L 10 16 L 19 16 C 20.652344 16 22 14.652344 22 13 Z M 20 4.5 L 20 13 C 20 13.550781 19.550781 14 19 14 L 10.5 14 C 10.613281 13.835938 10.738281 13.679688 10.878906 13.539063 L 19.539063 4.882813 C 19.679688 4.738281 19.835938 4.609375 20 4.5 Z M 17 22 C 16.449219 22 16 22.445313 16 23 C 16 23.554688 16.449219 24 17 24 L 35 24 C 35.550781 24 36 23.554688 36 23 C 36 22.445313 35.550781 22 35 22 Z M 39 22 C 38.449219 22 38 22.445313 38 23 C 38 23.554688 38.449219 24 39 24 L 43 24 C 43.550781 24 44 23.554688 44 23 C 44 22.445313 43.550781 22 43 22 Z M 17 26 C 16.449219 26 16 26.445313 16 27 C 16 27.554688 16.449219 28 17 28 L 37 28 C 37.550781 28 38 27.554688 38 27 C 38 26.445313 37.550781 26 37 26 Z M 17 32 C 16.449219 32 16 32.445313 16 33 C 16 33.554688 16.449219 34 17 34 L 39 34 C 39.550781 34 40 33.554688 40 33 C 40 32.445313 39.550781 32 39 32 Z M 17 36 C 16.449219 36 16 36.445313 16 37 C 16 37.554688 16.449219 38 17 38 L 34 38 C 34.550781 38 35 37.554688 35 37 C 35 36.445313 34.550781 36 34 36 Z M 49 38.359375 L 50.730469 39.921875 C 51.082031 40.230469 51.550781 40.371094 52 40.28125 C 52.019531 40.28125 52.03125 40.269531 52.050781 40.269531 L 54 39.847656 L 54.328125 39.78125 L 55.039063 42 C 55.1875 42.460938 55.558594 42.820313 56.011719 42.960938 L 58.230469 43.679688 L 57.738281 45.960938 C 57.640625 46.429688 57.769531 46.917969 58.089844 47.28125 L 59.652344 49 L 58.089844 50.730469 C 57.769531 51.089844 57.640625 51.582031 57.738281 52.050781 L 58.230469 54.328125 L 56.011719 55.039063 C 55.550781 55.1875 55.1875 55.558594 55.039063 56.011719 L 54.328125 58.230469 L 52.050781 57.738281 C 51.582031 57.640625 51.089844 57.769531 50.730469 58.089844 L 49.011719 59.652344 L 47.28125 58.089844 C 47 57.839844 46.640625 57.710938 46.269531 57.710938 C 46.167969 57.710938 46.0625 57.71875 45.960938 57.738281 L 43.679688 58.230469 L 43.609375 58 L 42.96875 56.011719 L 42.96875 56 C 42.8125 55.550781 42.460938 55.1875 42 55.039063 L 39.78125 54.328125 L 40.269531 52.050781 C 40.371094 51.582031 40.238281 51.089844 39.921875 50.730469 L 38.359375 49 L 39.921875 47.28125 C 40.238281 46.917969 40.371094 46.429688 40.269531 45.960938 L 39.78125 43.679688 L 42 42.96875 C 42.449219 42.820313 42.820313 42.460938 42.96875 42 L 43.679688 39.78125 L 45.949219 40.269531 C 46.417969 40.378906 46.917969 40.238281 47.28125 39.921875 Z M 13 50 C 12.449219 50 12 50.445313 12 51 L 12 53 C 12 53.554688 12.449219 54 13 54 C 13.550781 54 14 53.554688 14 53 L 14 51 C 14 50.445313 13.550781 50 13 50 Z M 18 50 C 17.449219 50 17 50.445313 17 51 L 17 53 C 17 53.554688 17.449219 54 18 54 C 18.550781 54 19 53.554688 19 53 L 19 51 C 19 50.445313 18.550781 50 18 50 Z M 23 50 C 22.449219 50 22 50.445313 22 51 L 22 53 C 22 53.554688 22.449219 54 23 54 C 23.550781 54 24 53.554688 24 53 L 24 51 C 24 50.445313 23.550781 50 23 50 Z M 28 50 C 27.449219 50 27 50.445313 27 51 L 27 53 C 27 53.554688 27.449219 54 28 54 C 28.550781 54 29 53.554688 29 53 L 29 51 C 29 50.445313 28.550781 50 28 50 Z M 33 50 C 32.449219 50 32 50.445313 32 51 L 32 53 C 32 53.554688 32.449219 54 33 54 C 33.550781 54 34 53.554688 34 53 L 34 51 C 34 50.445313 33.550781 50 33 50 Z"/></svg>