<svg xmlns="http://www.w3.org/2000/svg" viewBox="0 0 48 48" width="50px" height="50px"><path fill="#ffca28" d="M44,24c0,11-9,20-20,20S4,35,4,24S13,4,24,4S44,13,44,24z"/><path fill="#b76c09" d="M17 25c-3 0-4.7-2.3-4.8-2.4l1.6-1.2c0 0 1.3 1.6 3.2 1.6s3.2-1.6 3.2-1.6l1.6 1.2C21.7 22.7 20 25 17 25zM31 25c-3 0-4.7-2.3-4.8-2.4l1.6-1.2c0 0 1.3 1.6 3.2 1.6s3.2-1.6 3.2-1.6l1.6 1.2C35.7 22.7 34 25 31 25z"/><path fill="#f44336" d="M44,34.5c0,2.8-5,6.5-5,6.5s-5-3.6-5-6.5H44z"/><path fill="#f44336" d="M39 34.5c0 1.4-1.1 2.5-2.5 2.5S34 35.9 34 34.5s1.1-2.5 2.5-2.5S39 33.1 39 34.5zM44 34.5c0 1.4-1.1 2.5-2.5 2.5S39 35.9 39 34.5s1.1-2.5 2.5-2.5S44 33.1 44 34.5z"/><path fill="#b76c09" d="M25.5,35H24v-2h1.5c0.3,0,0.5-0.2,0.5-0.5S25.8,32,25.5,32H22v-2h3.5c1.4,0,2.5,1.1,2.5,2.5 S26.9,35,25.5,35z"/><path fill="#b76c09" d="M25.5,38H22v-2h3.5c0.3,0,0.5-0.2,0.5-0.5S25.8,35,25.5,35H24v-2h1.5c1.4,0,2.5,1.1,2.5,2.5 S26.9,38,25.5,38z"/></svg>