<svg fill="#000000" xmlns="http://www.w3.org/2000/svg" viewBox="0 0 26 26" width="100px" height="100px"><path d="M 9.40625 0 C 8.105469 0 7 1.105469 7 2.40625 L 7 23.59375 C 7 24.894531 8.105469 26 9.40625 26 L 12 26 L 12 0 Z M 0 8 L 0 18 L 6 18 L 6 8 Z M 21.6875 9.03125 C 21.601563 9.03125 21.507813 9.042969 21.40625 9.09375 C 21.207031 9.09375 21.09375 9.300781 21.09375 9.5 L 21.09375 11.40625 C 21.09375 11.40625 14.792969 11.710938 14.59375 11.8125 C 14.394531 11.914063 14.1875 12.5 14.1875 13 C 14.1875 13.5 14.292969 14.113281 14.59375 14.3125 C 14.695313 14.511719 21.09375 14.6875 21.09375 14.6875 L 21.09375 16.5 C 21.09375 16.601563 21.207031 16.804688 21.40625 16.90625 C 21.507813 17.007813 21.707031 17.007813 21.90625 16.90625 C 23.90625 15.507813 25.804688 13.414063 25.90625 13.3125 C 26.007813 13.210938 26 13.101563 26 13 C 26 12.898438 26.007813 12.789063 25.90625 12.6875 C 25.804688 12.585938 23.804688 10.492188 21.90625 9.09375 C 21.855469 9.042969 21.773438 9.03125 21.6875 9.03125 Z"/></svg>