<svg fill="#000000" xmlns="http://www.w3.org/2000/svg" viewBox="0 0 64 64" width="300px" height="300px"><path d="M 3 10 C 1.347656 10 0 11.347656 0 13 L 0 21.1875 C 0 22.636719 1.019531 23.875 2.421875 24.125 C 6.234375 24.8125 9 28.121094 9 32 C 9 35.878906 6.234375 39.1875 2.421875 39.875 C 1.019531 40.125 0 41.363281 0 42.8125 L 0 51 C 0 52.652344 1.347656 54 3 54 L 40.0625 54 C 42.375 57.601563 46.410156 60 51 60 C 58.167969 60 64 54.167969 64 47 C 64 40.625 59.382813 35.320313 53.324219 34.21875 C 53.117188 33.511719 53 32.769531 53 32 C 53 28.121094 55.765625 24.8125 59.578125 24.125 C 60.980469 23.875 62 22.636719 62 21.1875 L 62 13 C 62 11.347656 60.652344 10 59 10 Z M 3 12 L 14 12 C 14 12.554688 14.449219 13 15 13 L 17 13 C 17.550781 13 18 12.554688 18 12 L 59 12 C 59.550781 12 60 12.449219 60 13 L 60 21.1875 C 60 21.667969 59.671875 22.078125 59.222656 22.15625 C 54.457031 23.015625 51 27.152344 51 32 C 51 32.6875 51.082031 33.359375 51.21875 34.011719 C 51.144531 34.011719 51.074219 34 51 34 C 43.832031 34 38 39.832031 38 47 C 38 48.769531 38.359375 50.460938 39.003906 52 L 18 52 C 18 51.445313 17.550781 51 17 51 L 15 51 C 14.449219 51 14 51.445313 14 52 L 3 52 C 2.449219 52 2 51.550781 2 51 L 2 42.8125 C 2 42.332031 2.328125 41.921875 2.777344 41.84375 C 7.542969 40.984375 11 36.847656 11 32 C 11 27.152344 7.542969 23.011719 2.777344 22.15625 C 2.328125 22.074219 2 21.667969 2 21.1875 L 2 13 C 2 12.449219 2.449219 12 3 12 Z M 21 14 C 20.449219 14 20 14.445313 20 15 L 20 49 C 20 49.554688 20.449219 50 21 50 C 21.550781 50 22 49.554688 22 49 L 22 15 C 22 14.445313 21.550781 14 21 14 Z M 15 16 C 14.449219 16 14 16.445313 14 17 C 14 17.554688 14.449219 18 15 18 L 17 18 C 17.550781 18 18 17.554688 18 17 C 18 16.445313 17.550781 16 17 16 Z M 15 21 C 14.449219 21 14 21.445313 14 22 C 14 22.554688 14.449219 23 15 23 L 17 23 C 17.550781 23 18 22.554688 18 22 C 18 21.445313 17.550781 21 17 21 Z M 15 26 C 14.449219 26 14 26.445313 14 27 C 14 27.554688 14.449219 28 15 28 L 17 28 C 17.550781 28 18 27.554688 18 27 C 18 26.445313 17.550781 26 17 26 Z M 15 31 C 14.449219 31 14 31.445313 14 32 C 14 32.554688 14.449219 33 15 33 L 17 33 C 17.550781 33 18 32.554688 18 32 C 18 31.445313 17.550781 31 17 31 Z M 15 36 C 14.449219 36 14 36.445313 14 37 C 14 37.554688 14.449219 38 15 38 L 17 38 C 17.550781 38 18 37.554688 18 37 C 18 36.445313 17.550781 36 17 36 Z M 51 36 C 57.066406 36 62 40.933594 62 47 C 62 53.066406 57.066406 58 51 58 C 44.933594 58 40 53.066406 40 47 C 40 40.933594 44.933594 36 51 36 Z M 51 40 C 50.445313 40 50 40.449219 50 41 L 50 46 L 45 46 C 44.445313 46 44 46.449219 44 47 C 44 47.550781 44.445313 48 45 48 L 50 48 L 50 53 C 50 53.550781 50.445313 54 51 54 C 51.554688 54 52 53.550781 52 53 L 52 48 L 57 48 C 57.554688 48 58 47.550781 58 47 C 58 46.449219 57.554688 46 57 46 L 52 46 L 52 41 C 52 40.449219 51.554688 40 51 40 Z M 15 41 C 14.449219 41 14 41.445313 14 42 C 14 42.554688 14.449219 43 15 43 L 17 43 C 17.550781 43 18 42.554688 18 42 C 18 41.445313 17.550781 41 17 41 Z M 15 46 C 14.449219 46 14 46.445313 14 47 C 14 47.554688 14.449219 48 15 48 L 17 48 C 17.550781 48 18 47.554688 18 47 C 18 46.445313 17.550781 46 17 46 Z"/></svg>