<?xml version="1.0"?><svg fill="#000000" xmlns="http://www.w3.org/2000/svg" viewBox="0 0 24 24" width="300px" height="300px">    <path d="M 6 2 C 4.897 2 4 2.897 4 4 L 4 20 C 4 21.103 4.897 22 6 22 L 12.683594 22 C 12.387594 21.378 12.181078 20.707 12.080078 20 L 12.074219 20 C 12.026219 19.673 12 19.34 12 19 C 12 18.66 12.031125 18.327 12.078125 18 L 8 18 L 8 16 L 12.677734 16 C 13.039734 15.241 13.533859 14.556516 14.130859 13.978516 C 14.122859 13.986516 14.113469 13.992 14.105469 14 L 8 14 L 8 12 L 16 12 L 16 12.683594 C 15.975 12.695594 15.953688 12.712609 15.929688 12.724609 C 16.572688 12.410609 17.266 12.185078 18 12.080078 C 18.327 12.033078 18.66 12 19 12 C 19.34 12 19.673 12.033078 20 12.080078 L 20 8 L 14 2 L 6 2 z M 13 3.4550781 L 18.5 9 L 13 9 L 13 3.4550781 z M 19 14 C 16.239 14 14 16.239 14 19 C 14 21.761 16.239 24 19 24 C 21.761 24 24 21.761 24 19 C 24 16.239 21.761 14 19 14 z M 18 16 L 20 16 L 20 18 L 22 18 L 22 20 L 20 20 L 20 22 L 18 22 L 18 20 L 16 20 L 16 18 L 18 18 L 18 16 z"/></svg>