<svg xmlns="http://www.w3.org/2000/svg" viewBox="0 0 24 24" width="300px" height="300px"><path d="M4,5C3.448,5,3,5.448,3,6v3.116l0.498,0.289C4.425,9.942,5,10.936,5,12s-0.575,2.058-1.502,2.595L3,14.884V18c0,0.552,0.448,1,1,1h16c0.552,0,1-0.448,1-1v-2.54v-0.576l-0.498-0.289C19.575,14.058,19,13.064,19,12s0.575-2.058,1.502-2.595L21,9.116V6c0-0.552-0.448-1-1-1H4z" opacity=".3"/><path d="M20,6v2.537c-1.195,0.693-2,1.986-2,3.463s0.805,2.771,2,3.463V18H4v-2.537C5.195,14.771,6,13.478,6,12S5.195,9.229,4,8.537V6H20 M20,4H4C2.9,4,2,4.9,2,6v4c1.1,0,2,0.9,2,2c0,1.1-0.9,2-2,2v4c0,1.1,0.9,2,2,2h16c1.1,0,2-0.9,2-2v-4c-1.1,0-2-0.9-2-2c0-1.1,0.9-2,2-2V6C22,4.9,21.1,4,20,4L20,4z"/><path d="M13 11L16 11 16 13 13 13 13 16 11 16 11 13 8 13 8 11 11 11 11 8 13 8z"/></svg>