<svg xmlns="http://www.w3.org/2000/svg" viewBox="0 0 48 48" width="300px" height="300px"><path fill="#3e2723" d="M16 17H32V35H16z"/><path fill="#ff9800" d="M24,39c-5,0-5-6-5-6v-6h10v6C29,33,29,39,24,39z"/><path fill="#eceff1" d="M24,44c5.229,0,9.664-3.352,11.309-8.016C32.316,33.615,29,33,29,33s-1,4-5,4s-5-4-5-4s-3.32,0.604-6.314,2.973C14.328,40.645,18.767,44,24,44z"/><path fill="#f44336" d="M35.309,35.984C33.664,40.648,29.229,44,24,44c-5.233,0-9.672-3.355-11.314-8.027C10.233,37.912,8,41.039,8,46h32C40,41.053,37.764,37.928,35.309,35.984z"/><path fill="#37474f" d="M23,40c0-0.553,0.447-1,1-1c0.552,0,1,0.447,1,1s-1,2-1,2S23,40.553,23,40z M31,39c0,0,1-1.447,1-2s-0.448-1-1-1c-0.553,0-1,0.447-1,1S31,39,31,39z M17,39c0,0,1-1.447,1-2s-0.448-1-1-1c-0.553,0-1,0.447-1,1S17,39,17,39z"/><path fill="#ffb74d" d="M33,16c0-7.635-18-4.971-18,0v7c0,4.971,4.028,9,9,9c4.971,0,9-4.029,9-9V16z"/><path fill="#795548" d="M23.875,6C17.8,6,9,9.119,9,29l7,5V21l12-7l4,5v15l6-6c0-4.025,0.201-20-10.125-20l-1-2H23.875z"/><path fill="#784719" d="M27,23c0-0.551,0.448-1,1-1s1,0.449,1,1s-0.448,1-1,1S27,23.551,27,23 M19,23c0,0.551,0.448,1,1,1s1-0.449,1-1s-0.448-1-1-1S19,22.449,19,23"/><path fill="#fbc02d" d="M33,13.25c0,0-1.921-1-9-1c-7.08,0-9.056,1.035-9.056,1.035l-1-10.25l6,3L24,1l4,5l6-3L33,13.25z"/><path fill="#ffff8d" d="M33.001,13.979C21.852,11.648,15.086,13.977,15,14l-0.181-2.019c0.372-0.102,6.658-2.453,18.303-0.02L33.001,13.979z"/></svg>