<?xml version="1.0"?><svg fill="#000000" xmlns="http://www.w3.org/2000/svg" viewBox="0 0 24 24" width="50px" height="50px">    <path d="M21.37,10.102C21.763,9.971,22,9.565,22,9.15V6c0-1.1-0.9-2-2-2H4C2.9,4,2,4.9,2,6v3.15c0,0.415,0.237,0.821,0.63,0.952 C3.424,10.368,4,11.12,4,12c0,0.88-0.576,1.632-1.37,1.898C2.237,14.029,2,14.435,2,14.85V18c0,1.1,0.9,2,2,2h16c1.1,0,2-0.9,2-2 v-3.15c0-0.415-0.237-0.821-0.63-0.952C20.576,13.632,20,12.88,20,12C20,11.12,20.576,10.368,21.37,10.102z M15,13h-2v2 c0,0.552-0.448,1-1,1s-1-0.448-1-1v-2H9c-0.552,0-1-0.448-1-1c0-0.552,0.448-1,1-1h2V9c0-0.552,0.448-1,1-1s1,0.448,1,1v2h2 c0.552,0,1,0.448,1,1C16,12.552,15.552,13,15,13z"/></svg>