<svg xmlns="http://www.w3.org/2000/svg" viewBox="0 0 24 24" width="500px" height="500px"><path d="M18.5 9L13 9 13 3.5zM14 11A1 1 0 1 0 14 13 1 1 0 1 0 14 11zM19 14c-2.761 0-5 2.239-5 5s2.239 5 5 5 5-2.239 5-5S21.761 14 19 14zM22 20h-2v2h-2v-2h-2v-2h2v-2h2v2h2V20z"/><path d="M12,19c0-0.611,0.086-1.201,0.234-1.766L9,14l-3,3V4h7.172L18,8.828v3.251c0.327-0.047,0.66-0.08,1-0.08s0.673,0.033,1,0.08 V8l-6-6H6C4.897,2,4,2.897,4,4v16c0,1.103,0.897,2,2,2h6.683C12.25,21.09,12,20.075,12,19z"/><path d="M12,19c0-3.866,3.134-7,7-7V8.414L13.586,3H6C5.449,3,5,3.449,5,4v16c0,0.551,0.449,1,1,1h6.294 C12.105,20.366,12,19.695,12,19z" opacity=".3"/></svg>