<svg xmlns="http://www.w3.org/2000/svg" xmlns:xlink="http://www.w3.org/1999/xlink" id="Layer_2" x="0" y="0" version="1.1" viewBox="0 0 600 600" xml:space="preserve" style="enable-background:new 0 0 600 600"><g><path d="M362,287c-11,0-10,19-28,45c-12.6,18.2-37.6,25.4-47.5,28.5c17-1,40.4,4.5,57.4,7.2c1.8-1.9,3.5-4.1,5.1-6.7 c15-25,20-38,23-50S373,287,362,287z" style="fill:#ff564f"/><path d="M506.4,205.7l-0.2-1l-0.6-0.8c-0.7-0.9-16.9-21.1-67.9-37.3c-47.1-15-75-15.2-76.2-15.2H360l-1.1,1 c-26.5,23.5-44.1,48-53.8,74.9c-8.7,23.9-11.1,49.9-7.5,79.6c4.2,34.3,27.7,64.4,60,76.7c8.3,3.1,16.7,5,25.2,5.7 c3.4-2.6,11.4-4.4,20.8-4.4c4.1,0,7.9,0.3,11.2,0.9c14.5-4.2,28.6-12.1,41.4-23.4c35.5-31.3,47.3-72.3,51-101.1 C511,230.2,506.6,206.7,506.4,205.7z M363.1,159.5c6.5,0.3,32.6,2.1,72.2,14.8c25.3,8.1,41.3,17.1,50.4,23.2 c7.6,5.2,11.6,9.2,13.1,10.8c0,0.2,0.1,0.6,0.1,0.9l-0.2,0.1c0,0,0.1,0.3-0.3,0.7c-0.6,0.6-3.5,2.6-15.5,1.2 c-13.3-1.6-33.4-6.8-59.7-15.5c-54-17.8-60.9-28.9-61.4-32.8C361.6,161.1,362.5,160,363.1,159.5z M499.1,260.6 c-3.5,27.4-14.7,66.3-48.3,95.9c-27.3,24.1-60.3,31.3-90.5,19.7c-29.5-11.2-51.1-38.8-54.9-70.2c-6.9-56.9,9.3-101,52.5-141.8 c2.3,10.2,23.8,22,63.9,35.2c32.7,10.8,55.6,16.2,68.5,16.2c4,0,7.1-0.5,9.1-1.6C500.5,223,501.7,240.2,499.1,260.6z" style="fill:#2568ef"/><path d="M115.6,360.3c-45.7-5.9-88.7,34.8-96,91.1C12.2,507.6,43.4,558,89.1,563.9s88.7-34.8,96-91.1 C192.4,416.6,161.3,366.3,115.6,360.3z M130,499c-1.2,0-29-2.5-40.7-27c-4.8-10.1-5.7-23.2-2.4-37.9c2.4-10.9,9-22.1,13.1-20.8 c1.8,0.6,0.5,2.9-0.4,4.7c-0.1,0.3-15.1,30.3-4,51c11.3,21,37.1,24,37.3,24C138,493,140,499,130,499z" style="fill:#ffe7e6"/><polygon points="96.5 379.5 122.5 379.5 122.5 338.5" style="fill:#2568ef"/><polygon points="51.9 433.3 56.3 402.3 19.1 390.7" style="fill:#2568ef"/><polygon points="42.5 481.5 48.5 511.5 5.5 516.5" style="fill:#2568ef"/><polygon points="85.5 534.5 106.5 555.5 85.5 589.5" style="fill:#2568ef"/><polygon points="147.5 522.5 155.5 494.5 197.5 513.5" style="fill:#2568ef"/><polygon points="345.5 413.5 349.5 402.5 364.5 402.5 358.5 421.5" style="fill:#2568ef"/><path d="M311.5,501.5c0,0,12,2,16,2c0,0-7,21,6,35s39,32,39,32s11,8-4,10s-58-12-72-17s-61-28-65-36s7-7,7-7s40,7,58-4 C309.9,508.3,311.5,501.5,311.5,501.5z" style="fill:#2568ef"/><path d="M483.5,81.5c0,0-13,2-11-10S505,33,526,23s38.9-19,54.5-21.5c9.5-1.5,15-1,16,2s-3,4-8,5s-51,12-78,58 s-24,93-24,93s11,6,6,16c-6,12-16,4-16,4s-2,27,2,52s-9,36-9,36s7-5,11-1s3,17-5,23c0,0,9-1,9,7S484,322,464,344 s-54.5,49.5-99.5,34.5s-69.5-59.5-57-116c9.5-43.1,24.4-52.9,35-51c11,2,9,15,5,22s-19,41-5,60s33,24,57,15s56-40,60-88 s4.2-64.5,8-88C471.5,107.5,483.5,81.5,483.5,81.5z" style="fill:#ff9b19"/><path d="M460.6,206.2c-0.1,1.3-0.2,2.7-0.3,4c6.1,1.5,11.5,2.7,16.3,3.5c-0.1-1.4-0.2-2.8-0.2-4.1 C471.7,208.8,466.5,207.7,460.6,206.2z" style="fill:#fff"/><ellipse cx="393.1" cy="281.7" rx="15" ry="12.6" transform="matrix(0.6562 -0.7546 0.7546 0.6562 -77.417 393.4428)" style="fill:#ff9b19"/><ellipse cx="367.7" cy="240.6" rx="12.1" ry="8.8" transform="matrix(0.8093 -0.5874 0.5874 0.8093 -71.1913 261.8517)" style="fill:#ff9b19"/><ellipse cx="371.8" cy="208.8" rx="8.3" ry="6.8" transform="matrix(0.2535 -0.9673 0.9673 0.2535 75.5911 515.494)" style="fill:#ff9b19"/><circle cx="286.6" cy="214.8" r="5.9" style="fill:#ff9b19"/><circle cx="277.6" cy="198.3" r="4.3" style="fill:#ff9b19"/><circle cx="276" cy="263.7" r="4.8" style="fill:#ff9b19"/><circle cx="181" cy="278" r="8.5" style="fill:#ff9b19"/><circle cx="176" cy="310" r="5.5" style="fill:#ff9b19"/><circle cx="547.1" cy="152.2" r="7.4" style="fill:#ff9b19"/><circle cx="525.9" cy="169.6" r="4.9" style="fill:#ff9b19"/><ellipse cx="464.9" cy="92.8" rx="7.2" ry="6" transform="matrix(0.5 -0.866 0.866 0.5 152.1116 449.0188)" style="fill:#ff9b19"/><path d="M411.4,112.6c0,0,2.3-11.5-2.3-26.4s-11.5-23-19.5-19.5c-9.1,3.9-5.7,16.1,1.1,20.7 C395.5,90.5,410.3,101.1,411.4,112.6z" style="fill:#ff9b19"/><path d="M378.1,127.5c0,0,0-14.9-19.5-23c-15.2-6.3-31-2.3-31,8c0,13.8,18.4,5.7,28.7,6.9 C366.6,120.6,371.2,121.8,378.1,127.5z" style="fill:#ff9b19"/><circle cx="528" cy="323" r="7.5" style="fill:#ff9b19"/><circle cx="492.5" cy="403.5" r="7" style="fill:#ff9b19"/><path d="M452.7,456.9c0,0,7.2,8.4,9.6,13.1c1.9,3.9,4.8,9.6,10.8,7.2c6-2.4,1.9-8.9-1.2-11.9 C467,460.5,462.8,458.7,452.7,456.9z" style="fill:#ff9b19"/><path d="M430,460.5c0,0,11.9,6,15.5,16.7c3.6,10.8,2.4,16.7-2.4,19.1c-4.8,2.4-9.6,0-10.8-10.8 C431.2,474.9,430,460.5,430,460.5z" style="fill:#ff9b19"/><path d="M291.5,484.5c0,0,18,6,24,6l-4,11c0,0-14-2-21-6S286.5,485.5,291.5,484.5z" style="fill:#ff564f"/><g><path d="M292.5,158.5c-1.7,0-3-1.3-3-3c0,0,1.3-22,3-22s3,22,3,22C295.5,157.2,294.2,158.5,292.5,158.5z" style="fill:#ff9b19"/></g><g><path d="M299.5,165.5c-1.7,0-3-1.3-3-3s1.3-3,3-3c0,0,24,1.3,24,3S299.5,165.5,299.5,165.5z" style="fill:#ff9b19"/></g><g><path d="M292.5,190.5c-1.7,0-3-20-3-20c0-1.7,1.3-3,3-3s3,1.3,3,3C295.5,170.5,294.2,190.5,292.5,190.5z" style="fill:#ff9b19"/></g><g><path d="M286.5,165.5c0,0-22-1.3-22-3s22-3,22-3c1.7,0,3,1.3,3,3S288.2,165.5,286.5,165.5z" style="fill:#ff9b19"/></g><g><path d="M255.5,301.5c-1.7,0-3-1.3-3-3c0,0,1.3-22,3-22s3,22,3,22C258.5,300.2,257.2,301.5,255.5,301.5z" style="fill:#ff9b19"/></g><g><path d="M262.5,308.5c-1.7,0-3-1.3-3-3s1.3-3,3-3c0,0,24,1.3,24,3S262.5,308.5,262.5,308.5z" style="fill:#ff9b19"/></g><g><path d="M255.5,333.5c-1.7,0-3-20-3-20c0-1.7,1.3-3,3-3s3,1.3,3,3C258.5,313.5,257.2,333.5,255.5,333.5z" style="fill:#ff9b19"/></g><g><path d="M249.5,308.5c0,0-22-1.3-22-3s22-3,22-3c1.7,0,3,1.3,3,3S251.2,308.5,249.5,308.5z" style="fill:#ff9b19"/></g><g><path d="M542.7,261.5c-1.7,0-3-1.4-3-3.1c0,0,1.4-22.5,3-22.5s3,22.5,3,22.5C545.8,260.2,544.4,261.5,542.7,261.5z" style="fill:#ff9b19"/></g><g><path d="M549.8,268.7c-1.7,0-3-1.4-3-3.1s1.4-3.1,3-3.1c0,0,24.2,1.4,24.2,3.1S549.8,268.7,549.8,268.7z" style="fill:#ff9b19"/></g><g><path d="M542.7,294.2c-1.7,0-3-20.4-3-20.4c0-1.7,1.4-3.1,3-3.1s3,1.4,3,3.1C545.8,273.8,544.4,294.2,542.7,294.2z" style="fill:#ff9b19"/></g><g><path d="M536.7,268.7c0,0-22.2-1.4-22.2-3.1s22.2-3.1,22.2-3.1c1.7,0,3,1.4,3,3.1S538.4,268.7,536.7,268.7z" style="fill:#ff9b19"/></g><g><path d="M449.4,405.5c-1.8,0-3.2,0.4-3.8,1.5c-1,2.1,0.1,4.6,3.4,7.6c3.2,3,7.4,5.3,9.6,6.4c1.5-0.8,5.9-3.8,4.9-11.5 c-0.2-0.1-0.4-0.3-0.5-0.4C459.1,407.5,453.3,405.5,449.4,405.5z" style="fill:#ff564f"/><path d="M466.1,412c-0.1,8.9-7,11.7-7.1,11.7l-0.5,0.2l-0.5-0.2c-2-1-6.9-3.6-10.7-7.1c-5.2-4.8-5-8.4-3.9-10.6 c1.8-3.6,7-3.3,11.8-2.1c-18.4-11.3-47.5-21-61.7-24.3c-17-4-58-10-79-12s-48-8-107,5s-111,55-111,55s-9,22-2,39s30,24,30,24 c14-15,28.6-28.2,51-34c31-8,74,10,89,16s67,19,70,19s1,3,1,3h-4l-4,9c0,0,13,1,20,0s15-7,10-17c-1.3-2.7-4.1-5.5-7.3-8.2 c-17.9-13.1-37.9-21.2-38.2-21.4c-0.8-0.3-1.1-1.2-0.8-2c0.3-0.8,1.2-1.1,2-0.8c0.2,0.1,17.9,7.3,35,18.9l12.5,5.4c0,0,21,9,28-1 c5.6-8-3.4-15.9-7.3-18.8c-26.6-15.7-56.7-26.6-57.2-26.8c-0.8-0.3-1.2-1.1-0.9-1.9c0.3-0.8,1.1-1.2,1.9-0.9 c0.2,0.1,23.4,8.4,46.9,21c5.3,2.8,10.3,5.6,14.8,8.4c9.3,0.5,14.5-2.9,17.8-7c4-5-1.7-15-16-23c-16-9-51-21-51-21s25,0,44,1 s61,15,71,19C462.1,431.4,479.2,425,466.1,412z M395,389.7l-2,14c-0.1,0.7-0.7,1.3-1.5,1.3c-0.1,0-0.1,0-0.2,0 c-0.8-0.1-1.4-0.9-1.3-1.7l2-14c0.1-0.8,0.9-1.4,1.7-1.3C394.5,388.1,395.1,388.9,395,389.7z M401,400.6c-0.1,0.8-0.7,1.4-1.5,1.4 c0,0-0.1,0-0.1,0c-0.8-0.1-1.4-0.8-1.4-1.6l1-12c0.1-0.8,0.8-1.4,1.6-1.4c0.8,0.1,1.4,0.8,1.4,1.6L401,400.6z" style="fill:#ff564f"/></g></g></svg>