<?xml version="1.0" encoding="iso-8859-1" ?>
              <svg
                version="1.1"
                xmlns="http://www.w3.org/2000/svg"
                xmlns:xlink="http://www.w3.org/1999/xlink"
                viewBox="0 0 1257.0000000000002 838"
                width="1257.0000000000002"
                height="838"
              >
                <g transform="translate(412.069 183.636) scale(0.497 0.497) rotate(0 399.6378269617706 356.7203219315895)"><g clip-path="url(#clipPath_2xtvBnjnP3V-9ZM2szawr)"><defs>
          <clipPath id="clipPath_2xtvBnjnP3V-9ZM2szawr">
            <rect x="0" y="0" width="800" height="713" />
          </clipPath>
       </defs> <path d="M237.352,694.567C-2.718,655.437-69.756,406.896,78.079,257.427  C212.713,121.288,142.838,15.12,363.859,1.188C559.51-11.153,756.967,225.649,794.378,426.719  C845.548,701.232,538.483,743.674,237.352,694.567z" fill="rgb(121,196,237)"/> </g></g><g transform="translate(479.111 174.5) scale(0.602 0.6) rotate(0 243.17275747508305 349.1666666666667)"><g clip-path="url(#clipPath_6Rz1-1PvkYscnH37fSRWK)"><defs>
          <clipPath id="clipPath_6Rz1-1PvkYscnH37fSRWK">
            <rect x="0" y="0" width="486.742" height="697.913" />
          </clipPath>
       </defs><title>man_with_gun_2</title><g id="Layer_26Rz1-1PvkYscnH37fSRWK" data-name="Layer 2"><g id="man_with_gun_26Rz1-1PvkYscnH37fSRWK"><path d="M180.541,139.683l-6.47-28.054s-7.828-1.041-8.462-7.24c-.588-6.2,5.747-9.638,5.747-9.638l12.081-16.29,17.195-5.294,6.335-5.746s6.651,3.167,10.723,12.669c.905,0,3.485.136,4.209.136.769,0,4.072-.317,4.208,1.358s-4.208,8.008-4.208,8.008,1.493,14.163-4.073,22.172-7.375,8.462-7.375,8.462l3.167,6.923s-5.113,10.271-12.534,12.534S180.541,139.683,180.541,139.683Z" fill="#fece2f"/><path d="M222.532,644.2l-5.52,23.846s3.62,7.692,11.764,6.788,14.027-8.145,20.905-7.557l7.466-20.95Z" fill="#fece2f"/><path d="M324.16,325.02a1.434,1.434,0,0,0-1.041-.407l-25.791,1.72h-.091l-22.76,3.439L268.6,305.7a1.363,1.363,0,0,0-2.624-.09l-8.643,27.42c-4.8.815-29.366,5.023-49.094,10.317-21.946,5.837-42.941,17.33-43.122,17.466a1.32,1.32,0,0,0-.679,1.267l.905,16.651-2.081,25.747-14.751,57.194-16.878,67.873L104.479,639.362a1.372,1.372,0,0,0,.678,1.538c1,.5,24.706,12.534,47.149,12.534h.815a1.435,1.435,0,0,0,1.267-.86l36.787-94.117,33.484-88.641,9.909-24.887-7.1,40.452L202.125,632.574a1.234,1.234,0,0,0,.5,1.267c.5.408,12.76,10.181,28.235,14.706,15.43,4.525,23.348,4.3,23.665,4.3a1.359,1.359,0,0,0,1.267-.95l3.3-11.132,33.167-99.546c0-.045.045-.091.045-.136.091-.453,10.634-47.375,15.385-71.809,4.8-24.48,13.484-90.814,13.574-91.493v-.09l3.3-51.584A1.19,1.19,0,0,0,324.16,325.02Z" fill="#1a1a1a"/><path d="M158.822,596.421c.272-2.353-1.221-7.33-4.57-15.2-1.131-2.669-2.579-4.3-4.3-4.977a4.891,4.891,0,0,0-4.028.317c-4.343,2.126-2.941,7.059-2.081,10.045.09.271.136.543.226.769a9.314,9.314,0,0,1-.5,5.973,12.729,12.729,0,0,0-.86,4.3c0,2.669,2.534,9.049,3.3,10.95.543,1.312,3.348,8.054,4.8,9.23a4.225,4.225,0,0,0,2.715.951,4.469,4.469,0,0,0,.769-.091,5.058,5.058,0,0,0,3.394-2.4c1.086-1.81.226-4.932-.905-8.552q-.339-1.086-.543-1.765c-.633-2.488.272-4.208,1.222-6.018A8.975,8.975,0,0,0,158.822,596.421Z" fill="#fece2f"/><polygon points="438.051 27.195 443.933 22.263 449.499 52.941 443.435 58.054 438.051 27.195" fill="#1a1a1a"/><path d="M443.435,59.412a1.579,1.579,0,0,1-.452-.091,1.274,1.274,0,0,1-.86-1.04l-5.43-30.9a1.331,1.331,0,0,1,.453-1.267l5.882-4.932a1.262,1.262,0,0,1,1.312-.226,1.354,1.354,0,0,1,.86,1.04l5.566,30.679a1.332,1.332,0,0,1-.453,1.267L444.3,59.05A1.071,1.071,0,0,1,443.435,59.412ZM439.5,27.738l4.887,27.782,3.619-3.077-4.977-27.6Z" fill="#1a1a1a"/><path d="M486.557,1.313a1.426,1.426,0,0,0-1.9-.453l-2.172,1.358C480.9.543,479.363-.362,478.729.136c-.588.453-.181,2.036.95,3.846l-4.163,2.58c-2.217-2.308-4.343-3.53-5.248-2.806-.815.634-.272,2.806,1.221,5.339L466.2,12.4a9.925,9.925,0,0,0-1.538-.815,10.147,10.147,0,0,0-9.683,1.086l-11.9,8.462a1.407,1.407,0,0,0-.543,1.357l3.62,20.09a1.428,1.428,0,0,0,.86,1.041,1.637,1.637,0,0,0,.5.091,1.489,1.489,0,0,0,.859-.272l18.643-14.66a10.1,10.1,0,0,0,3.71-9.593,9.019,9.019,0,0,0-.271-1.177l4.615-4.389c2.081,2.082,4.072,3.122,4.887,2.489.86-.679.181-3.032-1.493-5.747l3.574-3.393c1.448,1.448,2.851,2.217,3.439,1.764.588-.5.136-2.126-1.041-4.027l1.856-1.764A1.238,1.238,0,0,0,486.557,1.313Z" fill="#1a1a1a"/><path d="M153.076,652.077l-6.471,17.33s-4.072,6.787-9.638,5.113-16.425-8.733-21.357-7.24l6.878-20.5,17.737,4.524Z" fill="#fece2f"/><path d="M333.165,328.1l-9.955-52.488-6.651-24.434s2.4,4.208,11.764,2.127,47.647-35.294,47.647-35.294l12.081-12.353s-9.366,3.62-17.059-10.86-5.746-22.624-5.746-22.624l-34.253,22.308L325.7,184.388l-35.52-47.375s-16.335-10.679-33.529-10.407-26.38,3.167-26.38,3.167l-16.742-2.579s-6.652,10.271-12.534,12.534-20.5,0-20.5,0-8.009,6.2-11.9,21.855L151.99,174.388,133.3,196.107s-16.651,24.344-19.14,45.837-2.715,39.593,4.3,57.24,17.42,30.09,43.664,31.447l-5.882,36.652,11.539-7.014s23.3-12.217,50-18.1,40.588-7.919,40.588-7.919l8.914-28.19,6.2,25.249C273.437,331.31,321.174,322.577,333.165,328.1Z" fill="#fff"/><path d="M332.531,193.393l-6.651-11.041c-8.6-13.982-16.471-25.656-23.394-34.8a55.479,55.479,0,0,0-36.334-21.538A87.012,87.012,0,0,0,229.229,129a23.927,23.927,0,0,0-3.846-1.312,39.568,39.568,0,0,0-13.122-1.086h0a.343.343,0,0,0-.181.045c-.046,0-.091,0-.091.045-.045,0-.045.046-.09.046-.045.045-.091.045-.181.09h0a.044.044,0,0,0-.045.045c-.046,0-.046.046-.091.046h0a.044.044,0,0,0-.045.045l-.091.09-.045.046-.045.045a.044.044,0,0,1-.045.045c-.046.045-.046.091-.091.091h0l-.045.045v.045a.161.161,0,0,1-.045.091v.09h0a15.33,15.33,0,0,1-2.172,3.982,21.568,21.568,0,0,1-8.552,6.923c-8.552,3.937-19.5,0-19.638-.045h-.045c-.046,0-.091-.046-.136-.046h-.543a.165.165,0,0,0-.136.046c-.045,0-.09.045-.136.045s-.09.045-.135.045-.091.045-.136.045c-.045.046-.091.046-.091.091a.044.044,0,0,0-.045.045c-.452.407-11.538,10.091-13.348,31.448a1.241,1.241,0,0,0,.543,1.176,1.428,1.428,0,0,0,1.267.227l10.905-3.847L177.6,180.768a1.371,1.371,0,0,0,1.041,1.448c.226.045,21.222,5.159,34.525,13.8a1.5,1.5,0,0,0,.724.226,1.346,1.346,0,0,0,1.131-.633,1.329,1.329,0,0,0-.407-1.855c-12.036-7.828-29.593-12.67-34.208-13.892l1.221-14.027a1.3,1.3,0,0,0-.5-1.176,1.425,1.425,0,0,0-1.267-.226l-10.86,3.8c1.629-13.619,7.33-21.945,10.317-25.52a19.7,19.7,0,0,0,4.57,6.742c1.357,1.4,3.756,3.53,6.832,6.2,5.747,5.023,13.711,12.036,20.046,19.1l5.656,6.968a29.954,29.954,0,0,1,4.117,7.693,1.357,1.357,0,0,0,1.312.95,1.264,1.264,0,0,0,.408-.045,1.347,1.347,0,0,0,.905-1h.09a1.26,1.26,0,0,0,.905-.362l7.647-7.058a1.263,1.263,0,0,0,.905.361.579.579,0,0,0,.272-.045,1.374,1.374,0,0,0,1.085-1.583A165.853,165.853,0,0,0,223.98,148.1c-.045-.136-.09-.226-.136-.362-3.71-8.733-7.239-15.475-8.959-18.6a38.6,38.6,0,0,1,10.045,1.131,27.74,27.74,0,0,1,9.638,4.8l-6.923,7.874a1.253,1.253,0,0,0-.226,1.4,1.33,1.33,0,0,0,1.176.86l11.448.814,5.43,24.661a1.353,1.353,0,0,0,1.312,1.086.579.579,0,0,0,.272-.045,1.415,1.415,0,0,0,1.04-1.629l-5.656-25.656a1.346,1.346,0,0,0-1.221-1.041l-9.729-.724,6.064-6.878a1.318,1.318,0,0,0-.136-1.9,30.977,30.977,0,0,0-4.389-3.122,87.2,87.2,0,0,1,32.986-2.082,52.462,52.462,0,0,1,34.525,20.5c6.877,9.05,14.7,20.678,23.257,34.524l6.652,11.041a1.47,1.47,0,0,0,1.176.679,1.178,1.178,0,0,0,.679-.181A1.526,1.526,0,0,0,332.531,193.393ZM199.546,160c-2.579-2.353-5.023-4.479-7.149-6.38-3.032-2.67-5.385-4.751-6.652-6.063-2.67-2.806-3.665-4.8-4.027-6.018a37.2,37.2,0,0,0,9.728,1.357,24.392,24.392,0,0,0,8.1-1.267Zm2.715,2.534v-10l4.072,2.715,3.032,14.208C207.057,167.058,204.659,164.75,202.261,162.533Zm24.027,0-11.9-11.765-.452-4.3,7.421,3.032C223.075,153.483,224.749,157.872,226.288,162.533Zm-6.426-16.606L204.116,139.5a22.859,22.859,0,0,0,8.371-8.6C214.071,133.8,216.831,139.094,219.862,145.927Z" fill="#1a1a1a"/><path d="M255.609,244.071s3.348,6.878,3.031,12.443-.316,15.611-.316,15.611l12.533-4.163,9.955-4.842,7.557-3.3,3.62.453s1.719-5.475-1-7.6c0,0,2.443-2.534,1.4-5.2s-4.3-4.616-4.3-4.616,1.9-2.76,1.041-4.344-3.575-2.76-3.575-2.76l-11.4-.271,9.095-6.7s6.606-.272,6.877-3.077-3.891-3.8-6.244-4.118a15.133,15.133,0,0,0-10.136,2.534,45.233,45.233,0,0,0-9.5,8.145C262.532,234.252,255.609,244.071,255.609,244.071Z" fill="#fece2f"/><path d="M181.718,274.3a38.023,38.023,0,0,1-4.434-17.2,74.668,74.668,0,0,1,1.945-17.239l.453-1.674h-1.81c-3.032,0-9.005,1.448-10.5,7.058l-.226.86c-1.4,5.43-2.986,11.629-6.425,13.71a44.6,44.6,0,0,1-3.982,2.037c-5.475,2.624-12.941,6.2-14.027,11.266a10.144,10.144,0,0,0,2.9,9.322,10.5,10.5,0,0,0,7.466,2.9,14.008,14.008,0,0,0,3.3-.408c8.145-2.036,24.027-8.371,24.706-8.642l1.447-.588Z" fill="#fece2f"/><path d="M147.193,179.275s-5.791,5.973-5.656,19.683c.091,13.575,5.656,29.185,1.132,35.746s-15.792,3.032-20.815,7.466c-7.692,6.788-9.5,19.005-9.5,19.005s1.131-21.946,7.014-39.366,21.04-34.842,21.04-34.842Z" fill="#fece2f"/><path d="M243.3,248.731l12.986-5.746s3.394,7.6,2.942,19.366A68.462,68.462,0,0,1,254.7,283.8l-11.4,5.43s2.806-15.792,2.806-24.842A43.932,43.932,0,0,0,243.3,248.731Z" fill="#fff"/><path d="M440.4,79.231l5.746-5.475-8.235-45.249a1.362,1.362,0,0,0,.226-2.715l-14.027-1.448a19.142,19.142,0,0,0-13.3,3.62L329.545,87.692a19.1,19.1,0,0,0-7.557,12.172L319.5,114.117,200.632,202.94a62.988,62.988,0,0,0-25.113,55.746,62.372,62.372,0,0,0,3.71,16.7,1.361,1.361,0,0,0,1.267.905,1.586,1.586,0,0,0,.453-.091,1.393,1.393,0,0,0,.814-1.764c0-.046-.045-.091-.045-.136l74.479-31.4,13.258-15.7,10.407-5.565.769-2.715L350,163.71l4.887-.272s48.371-37.285,52.443-40.769a13.1,13.1,0,0,0,4.072-8.054,1.291,1.291,0,0,0,1.584-.091l28.959-22.941a1.34,1.34,0,0,0,.5-1.312Z" fill="#1a1a1a"/><path d="M257.781,163.71l.407,20.95a5.5,5.5,0,0,0,11-.227L268.6,155.61Z" fill="#fff"/><path d="M293.255,137.239l.408,20.905a5.5,5.5,0,1,0,11-.226l-.588-28.824Z" fill="#fff"/><path d="M275.518,150.452l.407,20.95a5.5,5.5,0,0,0,11-.226l-.588-28.824Z" fill="#fff"/><path d="M193.709,263.03a1.407,1.407,0,0,1-1.358-1.222,26.174,26.174,0,0,1,6.38-19.728,23.418,23.418,0,0,0,5.837-16.244l-.633-18.507a1.358,1.358,0,1,1,2.715-.09l.633,18.506a25.836,25.836,0,0,1-6.515,18.1,23.551,23.551,0,0,0-5.747,17.647,1.363,1.363,0,0,1-1.222,1.493C193.8,263.03,193.754,263.03,193.709,263.03Z" fill="#fff"/><path d="M341.309,120.814a5.822,5.822,0,0,1-2.307-.453,6.382,6.382,0,0,1-3.937-4.751l-1.176-6.38a1.357,1.357,0,0,1,2.669-.5l1.177,6.38A3.637,3.637,0,0,0,340,117.828a3.682,3.682,0,0,0,3.484-.453L411.309,66.7a7.956,7.956,0,0,1,9.864.226,5.088,5.088,0,0,0,6.154.091,1.362,1.362,0,0,1,1.584,2.217A7.8,7.8,0,0,1,419.5,69a5.239,5.239,0,0,0-6.516-.135l-67.827,50.678A6.744,6.744,0,0,1,341.309,120.814Z" fill="#fff"/><path d="M211.763,688.547l-2.262,7.375h86.877s-.453-3.71-1.267-7.375Z" fill="#fff"/><path d="M365.291,172.126l10.272-6.652s.316,10.091,4.072,17.059a21.668,21.668,0,0,0,11,9.366s-6.787,6.335-7.556,6.471-6.471,4.072-6.471,4.072a30.573,30.573,0,0,1-8.28-14.479C366.2,179.049,365.291,172.126,365.291,172.126Z" fill="#fff"/><polygon points="70.135 688.547 68.913 695.968 152.171 695.968 150.225 688.547 70.135 688.547" fill="#fff"/><path d="M254.161,653.434c-4.344,0-25.249-1-51.357-19.185a1.321,1.321,0,0,1-.543-1.358l35.113-204.206a1.357,1.357,0,1,1,2.669.5L205.066,632.529c24.525,16.833,44.615,18.1,48.914,18.19,34.434-87.872,50.95-171.039,58.732-225.473,8.462-59.095,8.733-97.827,8.733-98.235a1.334,1.334,0,0,1,1.358-1.357h0a1.361,1.361,0,0,1,1.357,1.357c0,.408-.271,39.321-8.733,98.6-7.828,54.7-24.434,138.505-59.23,226.921a1.394,1.394,0,0,1-1.222.86A3.482,3.482,0,0,1,254.161,653.434Z" fill="#1a1a1a"/><path d="M255.745,653.117c.045,0,.045-.045.09-.045C255.79,653.072,255.745,653.072,255.745,653.117Z" fill="#fece2f"/><path d="M239.138,584.2c1.4,4.615,4.254,11.855,6.969,18.868,2.533,6.471,5.113,13.168,6.606,17.828.317,1,.633,1.946.95,2.9,2.715,8.055,4.57,13.575.95,24.887l-.724,2.036h.046a975.921,975.921,0,0,0,35.655-110.5,1.425,1.425,0,0,0-.226.453l-.407,1.312c-.815,2.308-3.213,7.149-8.914,7.918-2.67.363-4.706-.633-6.7-1.583-1.855-.9-3.8-1.81-5.973-1.358a6.844,6.844,0,0,0-4.57,3.077c-1.945,3.032-2.081,8.009-.407,15.294.226.95.543,2.036.9,3.349,1.176,3.982,2.9,10,1.4,12.488a2.189,2.189,0,0,1-1.539,1.086c-1.357.317-3.529-2.217-5.565-4.66-2.127-2.489-4.48-5.34-7.421-7.15a6.675,6.675,0,0,0-7.873.5C239.365,573.163,237.283,578.186,239.138,584.2Z" fill="#fece2f"/><path d="M255.292,653.344c-.045,0-.045,0-.09.045A.139.139,0,0,1,255.292,653.344Z" fill="#fece2f"/><path d="M255.111,653.389h0Z" fill="#fece2f"/><path d="M256.061,652.71a.044.044,0,0,1,.045-.045Z" fill="#fece2f"/><path d="M255.88,652.936l.045-.045A.044.044,0,0,1,255.88,652.936Z" fill="#fece2f"/><path d="M255.654,653.163c-.045,0-.045.045-.09.045C255.609,653.208,255.654,653.208,255.654,653.163Z" fill="#fece2f"/><path d="M255.473,653.253c-.045,0-.045.045-.09.045C255.428,653.3,255.473,653.3,255.473,653.253Z" fill="#fece2f"/><path d="M302.034,484.521c-.86,4.978-1.4,8.462-1.448,8.507v.272c5.384-25.611,9.276-48.688,12.081-68.054,1.9-13.213,3.394-25.43,4.525-36.38a133.291,133.291,0,0,1-3.982,15.973c-3.077,9.547-6.516,14.932-9.5,14.66-3.53-.271-6.7-3.393-9.729-6.38-3.755-3.71-7.692-7.511-11.855-4.525a6.886,6.886,0,0,0-2.85,4.706c-.724,4.661,2.217,11.448,9,20.724C293.3,440.766,304.206,461.671,302.034,484.521Z" fill="#fece2f"/><path d="M319.862,389.273v-.09h0C319.907,389.183,319.907,389.228,319.862,389.273Z" fill="#fece2f"/><path d="M150.135,653.8c-18.236,0-44.027-12.308-45.158-12.9a1.341,1.341,0,0,1-.724-1.538c.5-1.946,48.053-196.243,55.655-221.763,7.511-25.249,4.525-54.977,4.48-55.294a1.364,1.364,0,1,1,2.715-.271c.045.316,3.122,30.588-4.57,56.334-7.285,24.48-51.493,204.84-55.385,220.586,5.159,2.353,29.231,12.987,44.977,12.082C156.741,639,211.491,496.648,235.564,433.3c3.167-8.326,5.7-15.068,7.556-19.954,1.991-5.3,3.258-8.643,3.711-10a1.309,1.309,0,0,1,1.719-.815,1.363,1.363,0,0,1,.815,1.72c-.453,1.357-1.72,4.751-3.711,10.045-1.855,4.887-4.389,11.583-7.556,19.954-25.023,65.837-83.167,217.057-83.755,218.551a1.323,1.323,0,0,1-1.131.859C152.216,653.751,151.221,653.8,150.135,653.8Z" fill="#1a1a1a"/><path d="M164.931,383.165l-1.4,17.33A153.543,153.543,0,0,0,164.931,383.165Z" fill="#fece2f"/><path d="M164.976,372.758c-.136-5.7-.5-9.548-.543-10.272Z" fill="#fece2f"/><path d="M165.609,360.812a1.363,1.363,0,0,1,1.494,1.222c.045.316,3.122,30.588-4.57,56.334-7.285,24.48-51.493,204.84-55.385,220.586,1.494.679,4.616,2.082,8.643,3.666,8.371-30.588,46.38-169.592,59.773-219.456A74.277,74.277,0,0,1,190.27,394.7a56.329,56.329,0,0,1,6.018-6.2c7.149-6.289,7.466-11.4,5.339-14.027-1.991-2.443-6.47-3.122-11.267.362-2.307,1.674-4.162,2.353-5.248,1.9s-1.584-2.036-1.856-3.3c-.045-1.674-1.357-15.52-2.036-18.642l-.362-1.629-1.538.679c-8.462,3.8-14.208,6.923-14.253,6.968l-.77.407.046.95A1.491,1.491,0,0,1,165.609,360.812Z" fill="#fece2f"/><path d="M158.867,421.354q.612-2.239,1.086-3.8c.905-3.032,1.675-6.154,2.308-9.276Z" fill="#fece2f"/><path d="M110.361,643.344c1,.407,2.082.9,3.3,1.357l1.4.588h0C113.3,644.565,111.719,643.932,110.361,643.344Z" fill="#fece2f"/><path d="M104.253,640l-.091.407.453.227A1.291,1.291,0,0,1,104.253,640Z" fill="#fece2f"/><path d="M171.582,523.48c3.258,8.281,8.779,22.127,9.548,31.267,1.04,11.991-1.9,24.932-1.946,25.068l.226.09c10.181-26.561,21.855-56.968,32.579-85.022-4.072,8.733-11.629,21.177-16.561,21.177h-.09c-3.62-.136-6.018-3.077-8.552-6.154-2.353-2.9-4.8-5.882-8.416-6.2a8.385,8.385,0,0,0-7.6,3.122,11.219,11.219,0,0,0-1.629,10.271C169.591,518.458,170.5,520.675,171.582,523.48Z" fill="#fece2f"/><path d="M237.238,439.635a1.9,1.9,0,0,1-.5-.091,1.37,1.37,0,0,1-.769-1.764c2.353-6.2,11.357-34.48,15.656-48.1,1.357-4.3,2.036-6.335,2.127-6.652.135-.407,3.574-10.362,17.647-15.294a1.345,1.345,0,1,1,.9,2.534c-12.805,4.48-15.927,13.484-15.972,13.575-.091.316-.95,2.941-2.127,6.606-4.344,13.62-13.348,41.945-15.746,48.235A1.239,1.239,0,0,1,237.238,439.635Z" fill="#fece2f"/><path d="M167.1,362.124a1.347,1.347,0,0,0-.769-1.176,1.331,1.331,0,0,0-1.358.09l-9.955,6.923a1.389,1.389,0,0,0-.588,1.086c0,.317-.136,7.376,11.72,9.367h.226a1.441,1.441,0,0,0,.905-.362,1.407,1.407,0,0,0,.452-1.086Z" fill="#1a1a1a"/><path d="M334.748,327.962c-.045-.272-4.072-27.466-12.171-60.814-8.055-33.394-18.643-63.167-18.733-63.484a1.345,1.345,0,0,0-2.534.905c.09.317,10.633,29.954,18.642,63.167,6.7,27.692,10.588,51.131,11.765,58.325-14.027-4.117-49.819,2.082-57.24,3.439l-14.208-62.986a1.367,1.367,0,1,0-2.669.588l8.325,36.968a1.091,1.091,0,0,0-.316.543l-8.055,28.552c-4.57.543-25.61,3.349-56.56,12.625-26.652,8.1-38.28,15.294-43.167,19.275l5.882-33.755a1.358,1.358,0,0,0-2.67-.5l-6.606,38.009a1.4,1.4,0,0,0,.86,1.493,1.614,1.614,0,0,0,.452.091,1.366,1.366,0,0,0,1.177-.679c.045-.09,5.927-9.547,44.841-21.4,34.66-10.407,56.742-12.579,56.968-12.624a1.349,1.349,0,0,0,1.176-1l7.195-25.43,4.977,22.036a1.312,1.312,0,0,0,1.312,1.041.568.568,0,0,0,.272-.046c.452-.09,46.968-8.913,59.094-3.031a1.318,1.318,0,0,0,1.4-.136A1.035,1.035,0,0,0,334.748,327.962Z" fill="#1a1a1a"/><path d="M257.011,242.216a1.4,1.4,0,0,0-1.764-.589l-12.489,5.883-62.714,26.244a1.349,1.349,0,0,0,1.041,2.489L242.4,250.587c5.249,19.773-2.217,45.384-3.3,48.913-3.032,2.217-25.022,17.964-45.7,24.661-31.4,10.135-48.009,4.706-56.38-1.674-15.882-12.037-29.637-41.177-20.588-86.742,4.435-22.4,18.326-41.085,29.14-52.76a153.118,153.118,0,0,1,22.76-20.271,1.368,1.368,0,1,0-1.538-2.262,156.155,156.155,0,0,0-23.212,20.633c-11.086,11.946-25.294,31.086-29.864,54.117-9.276,46.787,5.067,76.877,21.628,89.411,5.385,4.073,13.892,7.828,26.968,7.828,8.552,0,19.05-1.584,31.9-5.746,22.579-7.285,46.606-25.113,46.832-25.294a1.488,1.488,0,0,0,.5-.679,104.437,104.437,0,0,0,2.714-10.452l11-5.249a1.618,1.618,0,0,0,.452-.317c.408-.453,3.982-5.023,4.389-20.769C260.5,248.822,257.147,242.487,257.011,242.216Zm.362,21.674c-.362,13.077-2.986,17.918-3.619,18.868l-8.869,4.208q.339-1.9.679-3.936c1.4-9.095,2.4-22.172-.679-33.529l10.181-4.8C255.971,247.057,257.69,253.121,257.373,263.89Z" fill="#1a1a1a"/><path d="M209.546,106.877c-7.647,0-9.548-7.239-9.593-7.33a1.35,1.35,0,1,1,2.624-.633,8.155,8.155,0,0,0,1.9,3.258c1.855,1.9,4.525,2.443,7.873,1.629a1.35,1.35,0,0,1,.634,2.624A13.818,13.818,0,0,1,209.546,106.877Z" fill="#1a1a1a"/><path d="M227.419,81.176a3.146,3.146,0,0,0-2.081-2.036,7.336,7.336,0,0,0-3.756.226,16.512,16.512,0,0,1-2.263.362c-2.624-5.384-6.244-9.864-9.909-12.4-6.878-4.751-17.692-10.181-32.081-2.262A19.535,19.535,0,0,0,167.1,79.14c-.046.226-.091.407-.091.407v.227a35.713,35.713,0,0,0,1.4,15.339c-2.444,1.81-5.566,5.7-4.072,10.814a9.812,9.812,0,0,0,8.37,6.878l6.245,27.24a1.348,1.348,0,0,0,1.312,1.04.891.891,0,0,0,.317-.045,1.415,1.415,0,0,0,1.04-1.629l-6.47-28.19a1.312,1.312,0,0,0-1.312-1.04c-.046,0-5.43-.046-6.833-4.978-1.493-5.2,3.53-8.19,3.756-8.325h.09a4.838,4.838,0,0,1,3.439-.589,4.742,4.742,0,0,1,2.715,2.987c1.946,4.615,3.394,5.339,4.389,5.339h.226a2.059,2.059,0,0,0,1.765-1.855c.136-.724-.09-1.584-.679-3.711-1.267-4.479-3.665-12.76.362-17.013,2.218-2.353,6.018-3.122,10.046-3.937,5.61-1.131,11.945-2.443,14.886-8.506.046,0,.046.045.091.045,3.3,2.262,6.7,6.606,9.14,11.629.86,1.764,3.122,1.267,5.113.86a10.173,10.173,0,0,1,2.308-.317c.226.09.362.181.362.226.271.86-1.9,3.62-2.715,4.661-1.312,1.674-1.991,2.534-1.72,3.529,1.4,5.43,1.041,9.909-1.267,15.927a26.505,26.505,0,0,1-10.859,13.485,20.833,20.833,0,0,1-6.833,2.895c-.045,0-.136.046-.181.046H201.4l-.271.135-.046.046c-.045.045-.135.09-.181.181,0,.045-.045.045-.045.09-.045.091-.136.181-.181.272h0a2.893,2.893,0,0,0-.09.316v.453a.644.644,0,0,0,.09.271.045.045,0,0,0,.045.046l.136.271v.045a.045.045,0,0,0,.045.046h0a6.994,6.994,0,0,0,6.2,2.4c2.534-.362,3.982,0,4.208,1.131,0,.045.046.09.046.136s0,.045.045.09c0,.045.045.091.045.136s.045.045.045.09.046.046.091.091c0,.045.045.045.045.09l.091.091.09.09c.045.046.091.046.091.091.045,0,.045.045.09.045s.09.045.136.045.045.046.09.046.091.045.136.045h.317a.575.575,0,0,0,.271-.045h0c.045,0,.045,0,.091-.046.045,0,.09-.045.135-.045s.046-.045.091-.045c.045-.045.09-.045.136-.091.045,0,.045-.045.09-.09s.091-.045.091-.091l.09-.09c.045-.045.045-.091.091-.091,0-.045.045-.045.045-.09a.167.167,0,0,0,.045-.136.157.157,0,0,1,.045-.09c0-.046.046-.091.046-.136v-.543c-1-5.792-1.267-7.194-1.448-7.692a30.062,30.062,0,0,0,9.366-13.032c2.443-6.38,2.9-11.4,1.448-17.194.226-.362.769-1.041,1.131-1.539C226.016,85.973,228.052,83.348,227.419,81.176Z" fill="#1a1a1a"/><path d="M279.545,221.447a1.446,1.446,0,0,1-1.086-.5,1.362,1.362,0,0,1,.226-1.9l73.032-57.691a1.353,1.353,0,1,1,1.674,2.126L280.36,221.175A1.266,1.266,0,0,1,279.545,221.447Z" fill="#1a1a1a"/><path d="M350.133,137.873a1.444,1.444,0,0,1-1.086-.5,1.361,1.361,0,0,1,.226-1.9l53.212-42.307a1.354,1.354,0,1,1,1.675,2.127L350.993,137.6A1.492,1.492,0,0,1,350.133,137.873Z" fill="#fff"/><path d="M354.793,166.153a1.427,1.427,0,0,1-1.221-.724,1.3,1.3,0,0,1,.588-1.81c2.036-1.041,3.575-4.887,1.855-12.4a32.747,32.747,0,0,0-6.832-13.756,1.344,1.344,0,0,1,1.945-1.855,34.753,34.753,0,0,1,7.512,14.977c2.533,11.086-1.4,14.48-3.213,15.43A1.587,1.587,0,0,1,354.793,166.153Z" fill="#fff"/><path d="M355.925,165.338a1.288,1.288,0,0,1-1.041-.5,1.361,1.361,0,0,1,.226-1.9L406.06,122.4a12.068,12.068,0,0,0,2.262-2.308c1.267-1.719,2.534-4.163.951-11.176a32.746,32.746,0,0,0-6.833-13.756,1.344,1.344,0,0,1,1.946-1.855A34.757,34.757,0,0,1,411.9,108.28c1.765,7.738.362,11-1.4,13.394a14.688,14.688,0,0,1-2.76,2.8l-50.95,40.543A1.351,1.351,0,0,1,355.925,165.338Z" fill="#fff"/><path d="M307.147,193.89a1.357,1.357,0,0,1-1.312-.95,28.365,28.365,0,0,1,9.411-30.452l34.027-27.013a1.353,1.353,0,1,1,1.674,2.126L316.92,164.615a25.572,25.572,0,0,0-8.506,27.511,1.374,1.374,0,0,1-.9,1.719C307.418,193.845,307.283,193.89,307.147,193.89Z" fill="#fff"/><path d="M356.015,84.072,336.92,97.647a3.331,3.331,0,0,1-4.66-.769h0a3.332,3.332,0,0,1,.769-4.661l19.1-13.575a3.33,3.33,0,0,1,4.66.77h0A3.291,3.291,0,0,1,356.015,84.072Z" fill="#fff"/><path d="M387.01,61.222,367.916,74.8a3.332,3.332,0,0,1-4.661-.769h0a3.332,3.332,0,0,1,.769-4.661l19.1-13.574a3.332,3.332,0,0,1,4.661.769h0A3.292,3.292,0,0,1,387.01,61.222Z" fill="#fff"/><path d="M418.006,38.371,398.911,51.946a3.332,3.332,0,0,1-4.661-.769h0a3.332,3.332,0,0,1,.769-4.661l19.095-13.575a3.331,3.331,0,0,1,4.661.77h0A3.292,3.292,0,0,1,418.006,38.371Z" fill="#fff"/><path d="M365.608,157.465a1.426,1.426,0,0,1-1.222-.724,1.3,1.3,0,0,1,.588-1.81c2.037-1.04,3.575-4.886,1.856-12.4A32.738,32.738,0,0,0,360,128.778a1.344,1.344,0,1,1,1.946-1.855,34.757,34.757,0,0,1,7.511,14.977c2.534,11.086-1.4,14.479-3.213,15.429A3.925,3.925,0,0,1,365.608,157.465Z" fill="#fff"/><path d="M377.418,148.325a1.425,1.425,0,0,1-1.222-.724,1.3,1.3,0,0,1,.588-1.81c2.036-1.041,3.575-4.887,1.855-12.4a32.73,32.73,0,0,0-6.832-13.755,1.345,1.345,0,0,1,1.946-1.856,34.785,34.785,0,0,1,7.511,14.978c2.534,11.085-1.4,14.479-3.213,15.429A1.437,1.437,0,0,1,377.418,148.325Z" fill="#fff"/><path d="M389.273,139.094a1.426,1.426,0,0,1-1.222-.724,1.3,1.3,0,0,1,.588-1.81c3.349-1.764,2.761-8.868,1.856-12.805A32.738,32.738,0,0,0,383.662,110a1.314,1.314,0,0,1,.091-1.9,1.351,1.351,0,0,1,1.9.045,34.772,34.772,0,0,1,7.511,14.978c1.4,6.108,1.267,13.438-3.212,15.791A1.519,1.519,0,0,1,389.273,139.094Z" fill="#fff"/><path d="M401.083,129.411a1.425,1.425,0,0,1-1.222-.724,1.3,1.3,0,0,1,.588-1.81c1.946-1.04,3.62-4.977,1.855-12.669A31.963,31.963,0,0,0,395.879,101a1.35,1.35,0,0,1,2.082-1.719,35.428,35.428,0,0,1,6.968,14.343c2.624,11.584-1.81,14.932-3.258,15.7A2.66,2.66,0,0,1,401.083,129.411Z" fill="#fff"/><path d="M375.563,165.474l1.99-9.683s-4.841-12.9-6.244-14.932c-1.267-1.991,1.629-4.253,3.258-3.529,1.674.769,5.656,10.769,7.33,10.905a15.372,15.372,0,0,0,3.3-.136l-7.828-15.973s-2.715-4.525-.316-4.842,6.2,4.661,6.2,4.661l-2.715-5.113s-1.493-4.389,0-4.389,11.629,10.09,11.629,10.09l-2.715-5.068s-6.109-3.484-3.892-6.289c.815-1.041,12.987,6.108,13.394,7.149s6.289,17.964,6.289,17.964-3.167,15.475-3.529,15.611-4.072,11.674-4.072,11.674l-13.032,15.837s-5.656-5.521-7.149-10.408S375.563,165.474,375.563,165.474Z" fill="#fece2f"/><ellipse cx="218.188" cy="299.138" rx="4.253" ry="4.842" fill="#1a1a1a"/><ellipse cx="231.31" cy="291.129" rx="4.253" ry="4.842" fill="#1a1a1a"/><ellipse cx="238.776" cy="222.125" rx="4.253" ry="4.842" fill="#fff"/><path d="M238.776,227.193a4.787,4.787,0,0,1-4.479-5.068c0-2.805,2.036-5.067,4.479-5.067s4.48,2.262,4.48,5.067A4.787,4.787,0,0,1,238.776,227.193Zm0-9.683c-2.217,0-4.027,2.081-4.027,4.615s1.81,4.616,4.027,4.616,4.027-2.082,4.027-4.616S240.993,217.51,238.776,217.51Z" fill="#fff"/><ellipse cx="250.858" cy="212.94" rx="4.253" ry="4.842" fill="#fff"/><path d="M250.858,217.962a4.787,4.787,0,0,1-4.48-5.067c0-2.806,2.036-5.068,4.48-5.068a5.106,5.106,0,0,1,0,10.135Zm0-9.637c-2.218,0-4.027,2.081-4.027,4.615s1.809,4.615,4.027,4.615,4.027-2.081,4.027-4.615S253.075,208.325,250.858,208.325Z" fill="#fff"/><path d="M297.735,695.741l-1.222-7.375h0A13.393,13.393,0,0,0,286.2,677.551c-1.72-.407-3.937-.859-6.516-1.4-3.3-.679-7.195-1.448-11.131-2.444,1.131.091,2.217.181,3.348.181,6.2,0,11.9-1.719,12.851-5.475.226-.9.543-3.936-4.48-5.792-2.534-.95-6.47-1.131-11.719-.543,5.611-2.579,10.543-5.746,11.764-9.185a5.206,5.206,0,0,0-.769-5.023,5.9,5.9,0,0,0-4.8-2.533h-.136c-6.47,0-15.7,8.959-21.4,15.294l2.986-8.009a1.374,1.374,0,0,0-2.579-.951l-5.249,14.254c-1.81-.046-5.566.5-11.086,4.072-4.434,2.9-10,3.846-14.117,2.353a7.255,7.255,0,0,1-4.8-4.661c0-.045-.045-.045-.045-.09,3.122-12.851,5.52-22.851,5.566-23.032a1.35,1.35,0,1,0-2.625-.633c-.045.226-5.565,23.3-10.859,44.3l-2.172,7.376a1.223,1.223,0,0,0,.226,1.176,1.349,1.349,0,0,0,1.086.543h86.877a1.354,1.354,0,0,0,1.041-.5A1.517,1.517,0,0,0,297.735,695.741Zm-18.416-30.633c1.946.724,2.986,1.72,2.805,2.625-.181.724-1.221,1.81-3.62,2.579-1.9.633-5.2,1.221-10.316.633a63.963,63.963,0,0,1-14.208-3.439c2.262-.588,5.339-1.267,8.642-1.9C270.586,664.158,276.378,663.977,279.319,665.108Zm-4.751-17.149h.09a3.078,3.078,0,0,1,2.67,1.4,2.656,2.656,0,0,1,.453,2.488c-.589,1.629-3.349,5.068-15.159,9.638-3.529,1.358-6.968,2.489-9.5,3.258C258.821,658.185,268.821,647.959,274.568,647.959ZM211.31,694.61l1.4-4.66h81.312l.769,4.66Z" fill="#1a1a1a"/><path d="M153.573,651.036a1.349,1.349,0,0,0-1.764.769l-6.335,16.018v.09a6.881,6.881,0,0,1-.588,1.313c-2.489,2.579-7.014,5.52-12.9,2.4-1.72-.9-3.53-1.765-5.2-2.534a22.506,22.506,0,0,0-8.19-3.213c-.271-.09-.5-.181-.678-.226l5.791-18.552a1.374,1.374,0,0,0-2.624-.814l-5.656,18.1c-1.674-2.036-4.57-5.294-7.828-8.552-7.195-7.149-12.986-10.724-17.1-10.678a5.839,5.839,0,0,0-4.8,2.533,5.189,5.189,0,0,0-.77,5.023c1.222,3.439,6.2,6.606,11.765,9.185-5.294-.588-9.231-.407-11.719.543-4.978,1.9-4.706,4.933-4.48,5.792.905,3.8,6.652,5.475,12.851,5.475.769,0,1.493-.045,2.262-.09-2.4.588-4.932,1.222-7.421,1.81-.9.181-1.81.362-2.624.543-2.579.543-4.751.95-6.516,1.4a12.647,12.647,0,0,0-10.09,9.819v.091a4.118,4.118,0,0,0-.181.9h0l-1.222,7.375a1.308,1.308,0,0,0,.317,1.086,1.35,1.35,0,0,0,1.04.5h83.258a1.35,1.35,0,0,0,1.086-.543,1.385,1.385,0,0,0,.226-1.176l-2.172-7.285a.412.412,0,0,0-.045-.227,1.326,1.326,0,0,0,.045-.724l-.045-.271-.86-4.57c-.181-1.041-.317-2.082-.5-3.122-.543-3.439-1.131-7.014-1.719-10.86l6.2-15.7A1.316,1.316,0,0,0,153.573,651.036Zm-66.017.86a2.436,2.436,0,0,1,.452-2.489,3.082,3.082,0,0,1,2.67-1.4h.09c5.747,0,15.792,10.181,21.494,16.787-2.534-.769-5.973-1.9-9.5-3.257C90.9,656.963,88.144,653.524,87.556,651.9Zm-4.344,15.837c-.226-.9.86-1.9,2.8-2.625a15.3,15.3,0,0,1,5.34-.724,66.722,66.722,0,0,1,11.357,1.222c3.3.588,6.38,1.312,8.643,1.9a69.505,69.505,0,0,1-14.209,3.439C88.1,671.986,83.619,669.361,83.212,667.733ZM70.542,694.61l.77-4.66H149l1.4,4.66Z" fill="#1a1a1a"/><path d="M222.08,76.018,220.27,73.3a3.893,3.893,0,0,0-2.489-1.719,4.073,4.073,0,0,0-2.986.543l-1.267.814h0s-9.05,5.475-18.145,10.769l-.045.045h-.045L177.419,95.927a1.373,1.373,0,0,0-.362,1.9,1.3,1.3,0,0,0,1.132.588,1.532,1.532,0,0,0,.769-.226l16.108-11a7.884,7.884,0,0,0,2.4,4.163,5.473,5.473,0,0,0,3.982,1.041c6.426-.905,11.131-5.792,11.765-9.819a5.916,5.916,0,0,0-1.81-5.023l2.443-1.583,3.213,5.294a1.366,1.366,0,0,0,1.177.633.77.77,0,0,0,.316-.045l1.358-.362a3.6,3.6,0,0,0,2.488-2.217A3.482,3.482,0,0,0,222.08,76.018Z" fill="#1a1a1a"/><path d="M406.6,147.013c.136-3.349-4.932-16.29-7.466-19.955-1.131-1.629-10.633-7.511-13.756-7.42a1.965,1.965,0,0,0-1.719.95,3.724,3.724,0,0,0-.453,1.086,4.592,4.592,0,0,0-1.9-.589,2.9,2.9,0,0,0-2.353,1,4.031,4.031,0,0,0-.679,3.3,3.279,3.279,0,0,0-1.9-.407,3.053,3.053,0,0,0-2.534,2.489c-1.086,3.665,6.109,14.8,9.593,19.818a1.388,1.388,0,0,1-1.584-.769c-.317-.543-.679-1.131-1.041-1.765-2.941-4.932-5.972-10.045-9.276-8.235a3.183,3.183,0,0,0-1.493,1.946c-1.222,4.3,4.344,14.525,6.063,17.511l-1.764,8.552-49.774,32.76a1.382,1.382,0,0,0-.407,1.9,1.345,1.345,0,0,0,1.131.634,1.372,1.372,0,0,0,.724-.226l38.009-24.978c.634,5.159,2.76,17.919,9.412,25.792a31.436,31.436,0,0,0,3.167,3.258c.091.045.317.317.724.633a13.934,13.934,0,0,0,7.421,3.3l-3.213,3.031a104.992,104.992,0,0,1-10.045,6.923c-3.439,2.127-6.832,2.9-9.321,2.082a5.848,5.848,0,0,1-3.665-3.575,15.534,15.534,0,0,1-.543-4.389c-.136-4.118-.407-10.362-6.878-10.362H350.9c-6.335.091-8.6,10.136-11.222,21.765-1.131,4.977-2.307,10.135-3.846,14.751-2.4,7.33-5.52,10.95-7.692,12.714a9.866,9.866,0,0,1-4.072,2.082h-.045a7.594,7.594,0,0,1-6.019-2.308,1.344,1.344,0,1,0-1.945,1.855,10.424,10.424,0,0,0,7.873,3.168h.362c17.783-.453,50-32.76,61.221-44.615a17.5,17.5,0,0,0,2.172-2.308c.9-.95,1.493-1.629,1.72-1.855a10.587,10.587,0,0,0,2.669-13.167l1.946-1.448a12.374,12.374,0,0,0,4.344-3.123l.09-.09c4.163-5.656,1.9-14.118,1.177-16.38C401.852,167.691,406.467,149.909,406.6,147.013Zm-40,25.972,7.6-4.977c.272,4.344,1.584,13.394,7.421,20.271a18.574,18.574,0,0,0,2.76,2.625h0a10.188,10.188,0,0,0,4.253,1.855l-11,8.281a26.319,26.319,0,0,1-2.127-2.263C368.73,190.632,366.92,176.424,366.6,172.985Zm30.453-1.447-12.218,16.153a15.342,15.342,0,0,1-1.176-1.221c-6.38-7.512-6.833-18.281-6.878-20.5a.34.34,0,0,0,.045-.226l1.991-9.683a1.692,1.692,0,0,0-.135-.951c-2.76-4.706-6.833-13.167-6.064-15.837.091-.271.136-.316.181-.316.091-.046.724.09,1.946,1.583a53.332,53.332,0,0,1,3.71,5.656q.543.951,1.086,1.765c1.4,2.308,3.892,2.715,6.652,1.131a1.218,1.218,0,0,0,.633-.905,1.343,1.343,0,0,0-.226-1.086c-5.339-7.647-10.724-17.058-10.181-18.914a1.678,1.678,0,0,1,.226-.543c.272.046,2.218.589,7.24,7.964,2.9,4.3,5.385,8.688,5.385,8.733a1.367,1.367,0,0,0,2.4-1.312c-.045-.045-2.534-4.57-5.52-9a55.088,55.088,0,0,0-3.892-5.2,1.826,1.826,0,0,0-.135-.679c-.951-1.764-1.494-3.936-1.041-4.434l.045-.045c.769-.272,4.57,2.669,9.05,9.23l4.253,8.19h0c.045.091.136.181.181.272,0,.045.045.045.045.09a1,1,0,0,0,.227.181l.045.045.271.136h.091a1.974,1.974,0,0,1,.226.045h.091a.275.275,0,0,0,.181-.045h.09c.09-.045.181-.045.271-.09h0l.046-.046c.045-.045.135-.045.181-.09l.09-.091.091-.09c.045-.045.045-.091.09-.091.045-.045.045-.09.091-.09a.161.161,0,0,1,.045-.091c0-.045.045-.09.045-.135s0-.091.045-.091c0-.045.046-.09.046-.135V140.5a.269.269,0,0,0-.046-.181v-.09h0l-1.583-5.792c-.679-2.489-2.625-4.254-4.525-5.928-.588-.543-1.222-1.086-1.765-1.674l-.814-.815c-1.991-1.945-2.67-2.76-2.4-3.665,2.263.408,10.046,4.887,11.041,6.2,2.534,3.62,7.1,16.018,7.014,18.281C403.752,149.5,398.911,168.189,397.056,171.538Z" fill="#1a1a1a"/><path d="M334.748,328.052a1.362,1.362,0,0,0-1.267-1.267l-10.407-.769a1.2,1.2,0,0,0-1,.362,1.271,1.271,0,0,0-.453.95l-.452,13.484a1.376,1.376,0,0,0,.5,1.086,1.428,1.428,0,0,0,.859.317,1,1,0,0,0,.362-.045C335.382,338.866,334.748,328.188,334.748,328.052Z" fill="#1a1a1a"/><path d="M438.1,75.52a1.313,1.313,0,0,1-1.312-1.131l-7.647-41.131a1.358,1.358,0,1,1,2.669-.5l7.647,41.131a1.375,1.375,0,0,1-1.086,1.584A.575.575,0,0,1,438.1,75.52Z" fill="#fff"/><path d="M442.53,54.48a1.316,1.316,0,0,1-1.312-1.132L437.734,34.57a1.358,1.358,0,0,1,2.67-.5l3.484,18.778a1.374,1.374,0,0,1-1.086,1.583C442.711,54.434,442.621,54.48,442.53,54.48Z" fill="#fff"/><path d="M447.191,38.416a1.4,1.4,0,0,1-1.358-1.131l-1.357-8.823a1.339,1.339,0,0,1,1.131-1.539,1.373,1.373,0,0,1,1.539,1.132l1.357,8.823a1.337,1.337,0,0,1-1.131,1.538Z" fill="#fff"/><path d="M316.287,697.913H185.655a1.358,1.358,0,1,1,0-2.715H316.287a1.358,1.358,0,0,1,0,2.715Z" fill="#1a1a1a"/><path d="M366.377,697.913h-37.42a1.358,1.358,0,1,1,0-2.715h37.42a1.334,1.334,0,0,1,1.358,1.358A1.362,1.362,0,0,1,366.377,697.913Z" fill="#1a1a1a"/><path d="M161.22,697.913H1.357a1.358,1.358,0,0,1,0-2.715H161.22a1.358,1.358,0,1,1,0,2.715Z" fill="#1a1a1a"/><path d="M170.044,106.289a1.4,1.4,0,0,1-1.358-1.131,6.072,6.072,0,0,1,.951-4.8,6.22,6.22,0,0,1,3.846-2.218,1.344,1.344,0,0,1,.317,2.67,3.228,3.228,0,0,0-2.037,1.177,3.44,3.44,0,0,0-.407,2.714,1.373,1.373,0,0,1-1.131,1.584Z" fill="#1a1a1a"/><path d="M292.215,262.035h0a7.577,7.577,0,0,0,2.081-5.657,6.516,6.516,0,0,0-2.036-4.162,5.771,5.771,0,0,0,1.493-4.435c-.135-1.493-1-3.484-3.891-5.022a5.124,5.124,0,0,0,.588-4.073,5.53,5.53,0,0,0-5.43-4.389c-.724,0-4.932,0-8.144.045l6.018-4.3a33.668,33.668,0,0,0,5.565-.543c.589-.226.95-.769,1.267-1.81.045-.136,1-3.3,0-4.8-1.131-1.629-7.647-3.077-10.724-2.4-3.077.724-10,5.883-12.805,8.055-2.534,1.991-10.724,13.529-11.629,14.841a1.219,1.219,0,0,0,.272,1.674,1.2,1.2,0,0,0,1.674-.271c2.443-3.484,9.185-12.8,11.131-14.3,4.344-3.348,9.728-7.149,11.855-7.6,2.489-.589,7.285.724,8.235,1.4a7.62,7.62,0,0,1-.407,3.077c-.86.136-3.077.272-4.932.362a1.088,1.088,0,0,0-.634.226l-9.411,6.7a.044.044,0,0,0-.046.045c-.045.046-.09.046-.09.091l-.09.09-.091.091a.157.157,0,0,1-.045.09c0,.046-.045.046-.045.091s-.046.09-.046.136,0,.09-.045.09v.226h0v.272c0,.045,0,.045.045.09,0,.046.046.091.046.136a.044.044,0,0,0,.045.045c.045.046.045.091.09.181h0l.046.046c.045.045.045.09.09.135s.045.046.09.046l.091.09c.045,0,.045.045.09.045a23.1,23.1,0,0,0,.181.091c.046,0,.091.045.136.045h.226c.091,0,10.724-.09,11.855-.09a3.18,3.18,0,0,1,3.168,2.533c.271,1.132,0,2.263-.634,2.58-.045.045-.09.045-.135.09a50.063,50.063,0,0,0-8.326-.226,1.2,1.2,0,0,0,.136,2.4c2.9-.136,7.466-.09,8.642.362,1.539.634,3.439,1.765,3.62,3.575a3.277,3.277,0,0,1-1.131,2.805l-.045.045c-2.127-.859-5.159-1.04-7.964-1.086h-.724a1.153,1.153,0,0,0-1.312,1.041,1.176,1.176,0,0,0,1.04,1.312c.181,0,.453.046,1,.046,1.583,0,6.38.09,8.009,1.4a4.3,4.3,0,0,1,1.719,2.987,5,5,0,0,1-.588,2.579,5.128,5.128,0,0,0-2.172-1.222,9.416,9.416,0,0,0-8.054,2.172,34.858,34.858,0,0,1-4.57,3.258,43.781,43.781,0,0,1-9.276,4.434l-9.367,3.213a1.192,1.192,0,0,0-.724,1.538,1.211,1.211,0,0,0,1.132.815,1.261,1.261,0,0,0,.407-.045l9.366-3.213a46.245,46.245,0,0,0,9.774-4.661,34.915,34.915,0,0,0,4.887-3.529,7.119,7.119,0,0,1,5.837-1.629,2.1,2.1,0,0,1,1.584,1.4.044.044,0,0,0,.045.045c0,.045.045.09.045.136s.045.045.045.09.045.045.045.091l.091.09.045.045h.045c.046,0,.046.046.091.046.045.045.09.045.09.09.046,0,.046.045.091.045s.09.046.136.046.045,0,.09.045a.167.167,0,0,1,.136.045h.317a.165.165,0,0,0,.135-.045h.046a.044.044,0,0,0,.045-.045.156.156,0,0,0,.09-.046c.046,0,.091-.045.136-.045s.045-.045.091-.045c.045-.045.09-.045.135-.091,0-.09,0-.135.046-.18Z" fill="#1a1a1a"/><path d="M293.753,207.963a1.21,1.21,0,0,0-1.9-.77l-4.8,3.349a1.159,1.159,0,0,0-.453,1.357c.045.181,4.977,16.335-6.109,21.719a1.134,1.134,0,0,0-.633,1.313,1.162,1.162,0,0,0,1.131.95l6.018.362h.091a1.091,1.091,0,0,0,.814-.317,21.439,21.439,0,0,0,5.747-9.457C295.654,219.094,293.844,208.415,293.753,207.963Z" fill="#1a1a1a"/><path d="M292.622,261.13h0a.933.933,0,0,0-.181-.272,1.375,1.375,0,0,0-.407-.588c-.588-.407-3.53-2.489-5.747-2.353-2.081.09-7.013,3.8-8.6,5.022l-7.375,3.937a1.193,1.193,0,0,0-.589,1.4l1.041,3.529a1.606,1.606,0,0,0,.181.5v.045h0l.045.045c0,.046.045.046.045.091a2.927,2.927,0,0,0,2.67,1.086,10.006,10.006,0,0,0,2.4-.317,34.093,34.093,0,0,0,7.6-2.941C284.794,269.863,294.477,264.7,292.622,261.13Zm-10.045,7.149c-4.48,2.353-7.964,3.122-9.186,2.986.046-.136.091-.317.136-.5.905-1.176,3.439-3.348,7.511-5.475a25.492,25.492,0,0,1,8.236-2.941c.362,0,.769.046,1.086.046C289.771,263.437,287.147,265.881,282.577,268.279Z" fill="#1a1a1a"/></g></g></g></g>
              </svg>