<svg xmlns="http://www.w3.org/2000/svg" xmlns:xlink="http://www.w3.org/1999/xlink" id="no_comment" x="0" y="0" version="1.1" viewBox="0 0 1080 1080" xml:space="preserve" style="enable-background:new 0 0 1080 1080"><g><path style="fill:none" d="M722.76,665.33c-6.91-16-18.21-30.65-34.9-40.86C704.55,634.68,715.85,649.36,722.76,665.33z"/><path style="fill:none" d="M443.34,451.13l0.22-0.08L443.34,451.13z"/><path style="fill:none" d="M521.8,774.32C492,764,460.14,751.67,430.64,739C460.14,751.67,492,764,521.8,774.32z"/><path style="fill:#ff3a00" d="M639.47,342.06c-8.751-0.968-17.487,1.957-23.89,8c-1.999,1.923-3.731,4.106-5.15,6.49l-0.1,0.06 c-0.54,0.92-1,1.88-1.49,2.86l0,0c-1.015,2.147-1.751,4.416-2.19,6.75c-0.16,0.82-0.29,1.65-0.38,2.5 c-0.532,4.802,0.11,9.661,1.87,14.16c5.75-3.8,27.4,11.71,27.91,19.18c5.236,0.037,10.39-1.297,14.95-3.87 c2.244-1.208,4.299-2.737,6.1-4.54l0,0c0.38-0.37,0.75-0.75,1.12-1.15l0.21-0.22l0,0c2.015-2.227,3.699-4.733,5-7.44 c7.079-15.059,0.61-33.006-14.45-40.085c-3.013-1.416-6.24-2.324-9.55-2.685L639.47,342.06z"/><path style="fill:#04294f" d="M626.74,400.55L626.74,400.55c2.032,0.675,4.131,1.127,6.26,1.35c1.036,0.116,2.078,0.173,3.12,0.17 c-0.51-7.47-22.16-23-27.91-19.18c0.958,2.465,2.239,4.792,3.81,6.92C614.51,386.39,629.18,397.18,626.74,400.55z"/><path style="fill:#00aee0" d="M607.25,427.37l19.49-26.82l0,0c2.44-3.37-12.23-14.16-14.75-10.74l0,0L586.43,425 c4.3,0.407,8.587,0.863,12.86,1.37C602,426.66,604.6,427,607.25,427.37z"/><path style="fill:#ff3a00" d="M985.22,464.39c-8.4-0.011-16.42,3.5-22.11,9.68c-2.048,2.152-3.737,4.621-5,7.31l0,0 c-0.498,1.037-0.936,2.102-1.31,3.19h0.05c-0.76,2.125-1.276,4.329-1.54,6.57c-0.124,1.119-0.188,2.244-0.19,3.37 c-0.01,4.833,1.153,9.596,3.39,13.88c5.31-4.4,28.51,8.68,29.82,16c5.54-0.567,10.811-2.669,15.22-6.07 c5.43-4.87,8.07-7.38,10.69-15.92c4.374-16.027-5.072-32.565-21.099-36.939c-2.575-0.703-5.232-1.06-7.901-1.061L985.22,464.39z"/><path style="fill:#04294f" d="M958.52,508.36c1.22,2.348,2.747,4.524,4.54,6.47c2.13-3.68,17.88,5.47,15.82,9.08l0,0 c2.084,0.448,4.209,0.672,6.34,0.67c1.042,0.004,2.084-0.053,3.12-0.17C987,517,963.83,504,958.52,508.36z"/><path style="fill:#ff3a00" d="M329.64,662.65c-17.14,7.89-28,20.28-31.73,36.15c1.533-0.755,3.196-1.213,4.9-1.35 c3.307-0.312,6.611,0.619,9.27,2.61c5.36-17.93,22.93-26.32,40.12-30.18c-1.14-4.47-2.09-9-2.8-13.72 C342.604,657.623,335.98,659.798,329.64,662.65z"/><path style="fill:#04294f" d="M341.73,701.28L341.73,701.28c-0.006-0.036-0.006-0.074,0-0.11 C341.725,701.206,341.725,701.244,341.73,701.28z"/><path style="fill:#04294f" d="M722.76,665.33c-6.91-16-18.21-30.65-34.9-40.86c-7.774-4.715-16.197-8.266-25-10.54 c-48.36-12.78-153.17-37.68-235.17-71.86c-16.08-6.7-31.29-13.75-45-21.14C371.21,537,362,556.6,355.46,580.1 c-7.83,28.08-9.53,53.32-6.06,76.06c0.71,4.68,1.66,9.25,2.8,13.72c2.237,8.734,5.325,17.228,9.22,25.36 c-8.27-0.46-16.08,0.39-18.94,4.56c1.482-2.096,4.34-2.675,6.52-1.32c6.19,3.77,13.14,7.68,20.68,11.68 c17.67,9.37,38.64,19.2,61,28.81c29.5,12.7,61.37,25,91.16,35.35c33.31,11.55,64,20.63,85.85,25c67.9,13.62,109-27.94,120.24-65.25 C733.59,715.18,732.94,688.86,722.76,665.33z"/><path style="fill:#00aee0" d="M720.4,796.58c-7.583,6.681-15.984,12.373-25,16.94c-1.65,0.84-3.31,1.62-5,2.38 c3.69,6.078,8.43,11.451,14,15.87c13.055-5.858,24.984-13.953,35.25-23.92c-5.014-5.117-9.581-10.654-13.65-16.55 C724.18,793.11,722.31,794.86,720.4,796.58z"/><path style="fill:#00aee0" d="M495.71,481.86l-19.06-5.56c-13.386,12.325-24.377,27.018-32.42,43.34 c6.16,2.34,12.333,4.637,18.52,6.89C470.865,509.721,482.042,494.572,495.71,481.86z"/><path style="fill:#00aee0" d="M845.27,647.26c0.239-10.3-0.983-20.583-3.63-30.54c-2.417-9.165-5.831-18.038-10.18-26.46 c-4.52-8.719-9.807-17.019-15.8-24.8c-12.15-15.84-27.13-30.12-43.68-42.7c-16.826-12.669-34.836-23.683-53.78-32.89 c-19.213-9.399-39.139-17.267-59.59-23.53c-20.676-6.465-41.712-11.718-63-15.73c-12.26-2.293-24.593-4.097-37-5.41l-0.92-0.11 c-36-4.23-61.34-4-80.27-1.69c-11.466,1.624-22.781,4.182-33.83,7.65l-0.22,0.08c-6.369,2.021-12.616,4.408-18.71,7.15 c-1.587,0.7-3.163,1.437-4.73,2.21c-16.659,8.065-31.693,19.126-44.35,32.63l0,0l-1.08,1.15l2,0.88 c-0.185-0.431-0.185-0.919,0-1.35c0.041-0.083,0.087-0.164,0.14-0.24l65.56,27.36c0,0,87.62,32.13,104.59,37.08 s137,40.66,137,40.66s70.25,23,73.25,102.1s-63.73,135.15-145,121s-235.42-83-253-94.12h-1.16c-0.036-0.081-0.066-0.165-0.09-0.25 c-0.64-0.33-1.27-0.67-1.9-1c40.33,53.57,115.59,89.09,204.32,114c101.17,28.38,199.91,17.26,264.3-22.85 c-25.28-7.84-43.13-29.8-32.36-91.23C802.46,667.09,821.21,649.31,845.27,647.26z"/><path style="fill:#ffb400" d="M357.88,726c0.475-0.865,1.556-1.19,2.43-0.73l0,0c17.38,9.21,35.11,17.74,53,25.82 s36.1,15.63,54.42,22.79s36.76,14,55.4,20.28s37.41,12.12,56.37,17.17c4.73,1.33,9.51,2.4,14.26,3.59c2.38,0.61,4.77,1.08,7.16,1.6 s4.78,1.07,7.17,1.51c9.521,1.9,19.201,2.894,28.91,2.97c19.28,0.09,38.66-3.87,55.78-12.67c8.576-4.354,16.563-9.781,23.77-16.15 c3.574-3.194,6.96-6.593,10.14-10.18c3.174-3.609,6.12-7.413,8.82-11.39c5.412-7.934,9.781-16.531,13-25.58 c1.58-4.509,2.827-9.128,3.73-13.82c0.888-4.721,1.475-9.494,1.76-14.29c0.26-4.803,0.26-9.617,0-14.42l-0.27-3.61l-0.14-1.8 l-0.21-1.79l-0.42-3.59l-0.57-3.57c-0.17-1.19-0.4-2.37-0.65-3.55l-0.72-3.54l-0.86-3.51l-0.43-1.75l-0.51-1.74l-1-3.46l-1.17-3.42 c-0.72-2.29-1.7-4.5-2.55-6.75c-3.705-8.87-8.505-17.242-14.29-24.92c-11.734-15.323-27.579-27-45.69-33.67 c-2.26-0.8-4.49-1.71-6.82-2.33s-4.58-1.39-7-2c-4.76-1.29-9.53-2.55-14.28-3.88c-19.027-5.233-37.977-10.72-56.85-16.46 c-37.75-11.47-75.29-23.65-112.44-37s-73.89-27.81-109.86-44.08c-0.41-0.19-0.732-0.53-0.9-0.95l-2-0.88 c-1.873,2.04-3.7,4.143-5.48,6.31c-3.279,3.996-2.699,9.894,1.297,13.173c0.372,0.306,0.768,0.582,1.183,0.827 c3.62,2.14,7.367,4.25,11.24,6.33c13.73,7.39,28.93,14.44,45,21.14c82,34.18,186.81,59.08,235.17,71.86 c8.803,2.274,17.226,5.825,25,10.54c16.69,10.21,28,24.89,34.9,40.86c10.18,23.53,10.83,49.85,5.13,68.75 c-11.25,37.31-52.34,78.87-120.24,65.25c-21.85-4.38-52.54-13.46-85.85-25C492,764,460.14,751.67,430.64,739 c-22.32-9.61-43.29-19.44-61-28.81c-7.54-4-14.49-7.91-20.68-11.68c-2.18-1.355-5.038-0.776-6.52,1.32 c-0.306,0.416-0.542,0.879-0.7,1.37c-0.006,0.036-0.006,0.074,0,0.11c-0.373,1.221-0.235,2.541,0.38,3.66 c4.002,7.491,8.586,14.656,13.71,21.43l0,0c0.63,0.34,1.26,0.68,1.9,1C357.587,726.932,357.641,726.427,357.88,726z"/><path style="fill:#ffb400" d="M388.91,629c0.262,0.475,0.6,0.904,1,1.27c2.01,1.746,5.054,1.532,6.8-0.478 c0.003-0.004,0.007-0.008,0.01-0.012l0.27-0.31c1.543-1.858,2.822-3.921,3.8-6.13c1.785-3.978,2.832-8.247,3.09-12.6 c0.065-1.159,0.065-2.321,0-3.48c-0.05-1.248-0.245-2.487-0.58-3.69l-0.3-1c-0.776-2.454-3.395-3.814-5.848-3.038 c-0.442,0.14-0.86,0.345-1.242,0.608c-1.191,0.82-2.278,1.78-3.24,2.86c-0.877,0.997-1.667,2.068-2.36,3.2 c-1.332,2.209-2.323,4.606-2.94,7.11c-0.642,2.523-0.885,5.132-0.72,7.73C386.781,623.832,387.554,626.556,388.91,629z"/><path style="fill:#ffb400" d="M451.83,698c0.36,0.17,8.9,4.15,20.55,8.17c0.836,0.292,1.715,0.44,2.6,0.44 c4.418,0.081,8.064-3.434,8.145-7.852c0.065-3.523-2.183-6.673-5.535-7.758c-10.73-3.7-18.8-7.44-19-7.53 c-4.012-1.867-8.778-0.127-10.645,3.885S447.818,696.133,451.83,698z"/><path style="fill:#04294f" d="M302.81,697.45c-1.704,0.137-3.367,0.595-4.9,1.35c-10.81,5.37-11.89,24.73-11.1,33.94 c1.433,10.395,11.022,17.66,21.417,16.227c9.657-1.331,16.74-9.755,16.393-19.497c-0.69-8-4.09-23.27-12.54-29.41 C309.421,698.069,306.117,697.138,302.81,697.45z"/><path style="fill:#ff3a00" d="M424.62,458.26c0,0,3.07-6,17.33-12.38c34.87-15.55,101.62-24.44,229.06,13.21 c132.19,39.06,189.88,117.15,189.47,188.64l1.19,0.16c4.209,0.548,8.366,1.438,12.43,2.66c3.41,0.94,6.54,2,9.44,3.06l9.36-16.33 c-1.191-11.509-3.639-22.854-7.3-33.83c-4.045-12.067-9.39-23.658-15.94-34.57c-6.387-10.588-13.702-20.587-21.86-29.88 c-16.1-18.37-34.63-33.71-54.23-46.74c-19.498-12.809-40.184-23.712-61.77-32.56c-21.264-8.759-43.185-15.827-65.56-21.14 c-19.464-4.723-39.156-8.451-59-11.17c-2.65-0.36-5.3-0.71-8-1c-4.28-0.507-8.567-0.963-12.86-1.37 c-18.332-1.792-36.756-2.46-55.17-2c-22.8,0.479-45.492,3.267-67.73,8.32c-22.54,4.95-35.43,15.7-44,29.37l0.36-0.17 c1.56-0.767,3.137-1.503,4.73-2.21L424.62,458.26z"/><path style="fill:#00aee0" d="M963.06,514.83L963.06,514.83L892.9,637.28l-9.36,16.33c5.737,2.107,11.219,4.854,16.34,8.19 l79-137.89l0,0C980.94,520.3,965.19,511.15,963.06,514.83z"/><path style="fill:#04294f" d="M891.55,813.45c-3.101,1.606-6.341,2.928-9.68,3.95C885.258,816.52,888.514,815.192,891.55,813.45z"/><path style="fill:#ffb400" d="M925,707.5c-1.16-12.37-4.26-21.73-8.81-28.79c-5.63-8.75-13.48-14-22.6-17 c-4.127-1.334-8.368-2.281-12.67-2.83c-29.49-4-52.6,5.85-64.25,72.38s13,82.93,42.52,87c2,0.28,4.08,0.49,6.1,0.61 c5.532,0.398,11.093-0.071,16.48-1.39h0.08c3.339-1.022,6.579-2.344,9.68-3.95c7.52-4.31,14.2-11.5,19.69-22.69 C930.05,751.22,925,707.5,925,707.5z"/><path style="fill:#ff3a00" d="M927.32,711l-0.06-0.1c-0.656-1.026-1.392-1.999-2.2-2.91c-2.979-3.323-6.8-5.78-11.06-7.11 c-1.531-0.509-3.094-0.913-4.68-1.21c-0.9-0.18-1.82-0.33-2.76-0.47c-10-1.36-18.82,0-25.76,9.06 c-1.301,1.576-2.409,3.301-3.3,5.14l-1.86,13.3l18.74,66.1c0,0-1.12,0.55,6,0.35c2.416-0.032,4.818-0.368,7.15-1h0.1 c1.244-0.416,2.466-0.897,3.66-1.44c0.54-0.24,1-0.49,1.51-0.74c8.69-5,15.5-16.55,18.73-39.7 C934.22,730.86,932.21,718.61,927.32,711z"/><path style="fill:#ff3a00" d="M897.34,793.09l-2.4-0.22C895.74,793,896.55,793,897.34,793.09z"/><path style="fill:#ff3a00" d="M893.49,792.7h0.32l0.57,0.06l2-22.73l3.31,0.41c0.65,0.09,1.27,0.15,1.85,0.18 c1.656,0.131,3.322-0.015,4.93-0.43c0.62-0.202,1.227-0.439,1.82-0.71c0.28-0.13,0.51-0.24,0.72-0.36 c4.68-2.68,7.88-9.79,9.46-21.1c1.36-9.71,0.68-16.78-2-21l-0.11-0.17c-0.299-0.446-0.633-0.868-1-1.26 c-1.399-1.547-3.193-2.685-5.19-3.29c-0.779-0.257-1.574-0.464-2.38-0.62c-0.49-0.1-1-0.17-1.47-0.24 c-5.64-0.77-9.09,0.28-11.92,3.64l-2.05,2.43L877.5,713.4c-3.52,6.52-6.44,15.66-8.65,28.29 C862.05,780.52,876.32,790.25,893.49,792.7z M904.49,733.18l0.75,0.13c0.434,0.078,0.862,0.188,1.28,0.33 c1.156,0.361,2.192,1.028,3,1.93c0.222,0.246,0.423,0.51,0.6,0.79l0,0c1.33,2.09,1.88,5.44,1.15,10.73 c-0.89,6.33-2.75,9.49-5.12,10.85l-0.42,0.21c-0.287,0.133-0.62,0.263-1,0.39l0,0c-0.907,0.236-1.846,0.32-2.78,0.25l-1-0.09h-0.09 c-4.69-0.67-8.59-3.33-6.73-13.94s5.64-12.22,10.37-11.58H904.49z"/><path style="fill:#04294f" d="M907.62,792.12c1.241-0.355,2.452-0.81,3.62-1.36c0.52-0.25,1-0.52,1.55-0.82 c-0.47,0.25-1,0.5-1.51,0.74C910.086,791.223,908.864,791.704,907.62,792.12z"/><path style="fill:#04294f" d="M909,696.45c-2.035-0.799-4.112-1.49-6.22-2.07l-0.66-0.19c-1.552-0.451-3.128-0.818-4.72-1.1l0,0 c-0.7-0.13-1.39-0.23-2.09-0.33c-18.74-2.55-33.43,3.73-40.83,46c-7,40.1,6.72,51.55,24.12,54.8c0.28,0.06,0.55,0.11,0.83,0.15 c4.286,0.791,8.644,1.126,13,1c5.132-0.135,10.22-0.997,15.11-2.56c-2.332,0.632-4.734,0.968-7.15,1l1.47-16.47 c2.167,0.102,4.337-0.138,6.43-0.71h0.11c0.823-0.273,1.631-0.59,2.42-0.95c0.4-0.17,0.75-0.35,1.16-0.57 c6.53-3.74,10.61-12.09,12.48-25.52c1.58-11.29,0.65-19.47-2.84-25l-0.18-0.28c-0.448-0.704-0.95-1.373-1.5-2 c-2.1-2.332-4.787-4.058-7.78-5c-1.024-0.344-2.069-0.618-3.13-0.82c-0.58-0.107-1.18-0.207-1.8-0.3c-4.18-0.56-10-0.73-15.09,3.48 l-11.34-10.75c6.94-9,15.71-10.42,25.76-9.06c0.94,0.14,1.86,0.29,2.76,0.47c1.586,0.297,3.149,0.701,4.68,1.21 c4.254,1.316,8.075,3.755,11.06,7.06c0.808,0.911,1.544,1.884,2.2,2.91c-0.654-1.181-1.41-2.302-2.26-3.35 C922.43,704.27,917.65,699.88,909,696.45z M892.47,727.53l2.05-2.43c2.83-3.36,6.28-4.41,11.92-3.64c0.49,0.07,1,0.14,1.47,0.24 c0.806,0.156,1.601,0.363,2.38,0.62c1.997,0.605,3.791,1.742,5.19,3.29c0.367,0.392,0.701,0.814,1,1.26l0.11,0.17 c2.68,4.24,3.36,11.31,2,21c-1.58,11.31-4.78,18.42-9.46,21.1c-0.21,0.12-0.44,0.23-0.72,0.36c-0.593,0.271-1.201,0.508-1.82,0.71 c-1.608,0.415-3.274,0.561-4.93,0.43c-0.58,0-1.2-0.09-1.85-0.18l-3.31-0.41l-2,22.73l-0.57-0.06h-0.32 c-17.17-2.45-31.44-12.18-24.64-51c2.21-12.63,5.13-21.77,8.65-28.29L892.47,727.53z"/><path style="fill:#04294f" d="M883.54,653.61c-2.9-1.09-6-2.12-9.44-3.06c-4.064-1.222-8.221-2.112-12.43-2.66l-1.19-0.16 c0.41-71.49-57.28-149.58-189.47-188.64C543.57,421.44,476.82,430.33,442,445.88c-14.26,6.36-17.33,12.38-17.33,12.38l0,0 c6.094-2.742,12.341-5.129,18.71-7.15l0.22-0.08c11.049-3.468,22.364-6.026,33.83-7.65c18.93-2.32,44.22-2.54,80.27,1.69l0.92,0.11 c12.4,1.3,24.733,3.103,37,5.41c21.288,4.012,42.324,9.265,63,15.73c20.451,6.263,40.377,14.131,59.59,23.53 c18.948,9.213,36.961,20.234,53.79,32.91c16.55,12.58,31.53,26.86,43.68,42.7c5.993,7.781,11.28,16.081,15.8,24.8 c4.349,8.422,7.763,17.295,10.18,26.46c2.647,9.957,3.869,20.24,3.63,30.54c-24.06,2-42.81,19.83-53.17,79 c-10.77,61.43,7.08,83.39,32.36,91.23c2.7,0.82,5.445,1.488,8.22,2c0.65,0.13,1.29,0.25,1.94,0.36 c18.81,3.31,35.61,1.12,47.17-2.49c-5.387,1.319-10.948,1.788-16.48,1.39c-2-0.12-4-0.33-6.1-0.61c-29.49-4-54.17-20.41-42.52-87 s34.76-76.41,64.25-72.38c4.302,0.549,8.543,1.496,12.67,2.83c9.12,3,17,8.26,22.6,17c-1.77-3.23-6.16-10.16-16.33-16.91 C894.767,658.385,889.279,655.678,883.54,653.61z"/><circle style="fill:#04294f" cx="431.53" cy="502.97" r="5.29"/><circle style="fill:#04294f" cx="842.46" cy="749.3" r="5.29"/><circle style="fill:#04294f" cx="840.91" cy="769.45" r="5.29"/><path style="fill:#04294f" d="M443.28,481.53c-2.927-0.006-5.304,2.363-5.31,5.29c-0.006,2.927,2.363,5.304,5.29,5.31 c2.927,0.006,5.304-2.363,5.31-5.29c0-0.007,0-0.013,0-0.02C448.57,483.898,446.202,481.53,443.28,481.53 C443.28,481.53,443.28,481.53,443.28,481.53z"/><path style="fill:#ffb400" d="M579.61,694.67c0.26,0.479,0.598,0.912,1,1.28c2.018,1.738,5.062,1.519,6.81-0.49l0.26-0.31 c1.55-1.853,2.83-3.917,3.8-6.13c0.891-1.977,1.598-4.033,2.11-6.14c0.531-2.121,0.866-4.287,1-6.47c0.07-1.156,0.07-2.314,0-3.47 c-0.052-1.251-0.243-2.492-0.57-3.7l-0.3-1c-0.144-0.434-0.35-0.844-0.61-1.22c-1.462-2.122-4.366-2.659-6.49-1.2 c-1.192,0.814-2.277,1.775-3.23,2.86c-0.883,0.988-1.673,2.056-2.36,3.19c-1.336,2.21-2.328,4.611-2.94,7.12 c-0.65,2.518-0.897,5.124-0.73,7.72C577.496,689.5,578.266,692.222,579.61,694.67z"/><path style="fill:#04294f" d="M790.9,609.59h0.18c22.66-1.32,40.6-3.46,40.78-3.48c1.657-0.196,2.841-1.698,2.645-3.355 c-0.196-1.657-1.698-2.841-3.355-2.645c-0.17,0-16.88,2-38.38,3.33c-3.33-7-16.06-30.94-42-52c12.592-3.55,25.654-5.142,38.73-4.72 h0.09c1.657,0.022,3.018-1.303,3.04-2.96c0.022-1.657-1.303-3.018-2.96-3.04c-27.38-0.75-45.52,6.56-46.28,6.87 c-1.533,0.628-2.266,2.381-1.638,3.914c0.204,0.498,0.539,0.932,0.968,1.256c31.89,24.09,45.26,54.69,45.39,55 C788.584,608.879,789.685,609.601,790.9,609.59z"/><path style="fill:#ff3a00" d="M611,574.88c1.779-5.053,3.966-9.952,6.54-14.65c0.82-1.44-0.33-2.64-1.77-3.46 s-2.62-0.95-3.44,0.49c-2.806,5.105-5.184,10.433-7.11,15.93L611,574.88z"/><path style="fill:#ff3a00" d="M640.23,566.86c0.82-1.44-0.32-2.64-1.76-3.46s-2.63-0.95-3.45,0.49 c-2.797,5.089-5.169,10.4-7.09,15.88l5.8,1.65C635.499,576.399,637.673,571.53,640.23,566.86z"/><path style="fill:#ff3a00" d="M663.27,573.49c0.82-1.44-0.33-2.64-1.77-3.46s-2.62-0.95-3.44,0.49 c-2.76,5.043-5.102,10.304-7,15.73l5.81,1.61C658.611,582.905,660.751,578.099,663.27,573.49z"/><path style="fill:#04294f" d="M900.92,758.73H901l1,0.09c0.934,0.07,1.873-0.014,2.78-0.25l0,0c0.373-0.133,0.707-0.263,1-0.39 l0.42-0.21c2.37-1.36,4.23-4.52,5.12-10.85c0.73-5.29,0.18-8.64-1.15-10.73l0,0c-0.177-0.28-0.378-0.544-0.6-0.79 c-0.808-0.902-1.844-1.569-3-1.93c-0.418-0.142-0.846-0.252-1.28-0.33l-0.75-0.13c-4.73-0.64-8.44,0.94-10.31,11.61 S896.23,758.06,900.92,758.73z"/><path style="fill:#04294f" d="M1008.42,508.5c-1.109-3.097-2.807-5.949-5-8.4c-2.015-2.349-4.271-4.481-6.73-6.36 c-2.408-1.854-4.952-3.526-7.61-5c-5.303-3.027-11.077-5.143-17.08-6.26c-3.179-0.591-6.437-0.632-9.63-0.12 c-1.737,0.309-3.406,0.921-4.93,1.81c-0.2,0.12-0.39,0.27-0.58,0.41c-1.344,0.913-2.434,2.152-3.17,3.6 c-0.515,0.977-0.14,2.187,0.838,2.702c0.261,0.137,0.548,0.215,0.842,0.228c0.591,0.049,1.174-0.167,1.59-0.59l0.15-0.14 c1.616-1.469,3.762-2.213,5.94-2.06c2.523,0.042,5.03,0.425,7.45,1.14c5.141,1.521,10.093,3.621,14.76,6.26 c4.689,2.55,9.054,5.656,13,9.25c1.832,1.666,3.391,3.61,4.62,5.76c1.148,1.827,1.423,4.07,0.75,6.12l-0.06,0.17 c-0.145,0.428-0.145,0.892,0,1.32c0.124,0.393,0.36,0.741,0.68,1c0.901,0.684,2.185,0.509,2.87-0.39c1.135-1.477,1.828-3.245,2-5.1 c0.019-0.333,0.019-0.667,0-1C1009.113,511.373,1008.877,509.905,1008.42,508.5z"/><path style="fill:#04294f" d="M1008.55,492.41c-4.363-4.775-9.494-8.787-15.18-11.87c-5.605-3.179-11.682-5.444-18-6.71 c-3.293-0.66-6.674-0.758-10-0.29c-0.756,0.135-1.504,0.312-2.24,0.53c-0.974,0.288-1.911,0.691-2.79,1.2 c-1.626,0.915-2.96,2.27-3.85,3.91c-0.399,0.739-0.124,1.661,0.615,2.06c0.316,0.171,0.683,0.224,1.035,0.15 c0.335-0.064,0.639-0.24,0.86-0.5l0.06-0.06c1.766-1.872,4.248-2.898,6.82-2.82c2.82-0.052,5.633,0.305,8.35,1.06 c2.83,0.739,5.601,1.688,8.29,2.84c2.746,1.123,5.418,2.419,8,3.88c2.591,1.41,5.093,2.98,7.49,4.7 c2.378,1.679,4.622,3.541,6.71,5.57c2.023,1.91,3.713,4.144,5,6.61c1.267,2.221,1.444,4.901,0.48,7.27v0.07 c-0.182,0.416-0.159,0.893,0.06,1.29c0.104,0.225,0.262,0.421,0.46,0.57c0.692,0.48,1.64,0.315,2.13-0.37 c1.077-1.514,1.714-3.296,1.84-5.15c0.088-1.321-0.033-2.647-0.36-3.93c-0.12-0.48-0.25-1-0.41-1.42 C1012.696,497.819,1010.873,494.903,1008.55,492.41z"/><path style="fill:#04294f" d="M607.71,365.7c1.76-1.292,3.97-1.808,6.12-1.43c2.504,0.309,4.956,0.951,7.29,1.91 c4.945,2.054,9.641,4.66,14,7.77c4.41,3.025,8.439,6.571,12,10.56c1.649,1.849,2.998,3.944,4,6.21c0.954,1.938,0.994,4.2,0.11,6.17 l-0.08,0.16c-0.355,0.801-0.175,1.737,0.45,2.35c0.785,0.777,2.051,0.77,2.828-0.015c0.021-0.021,0.042-0.043,0.062-0.065 c1.272-1.357,2.135-3.045,2.49-4.87c0-0.27,0.08-0.53,0.11-0.8c0.183-1.524,0.112-3.069-0.21-4.57 c-0.768-3.193-2.151-6.205-4.07-8.87c-1.754-2.533-3.765-4.879-6-7c-2.188-2.096-4.528-4.028-7-5.78 c-4.98-3.566-10.524-6.27-16.4-8c-3.102-0.918-6.339-1.3-9.57-1.13c-1.705,0.123-3.376,0.539-4.94,1.23l-0.15,0.06 c-1.7,0.776-3.141,2.026-4.15,3.6c-0.737,0.828-0.663,2.098,0.165,2.835c0.828,0.737,2.098,0.663,2.835-0.165L607.71,365.7z"/><path style="fill:#04294f" d="M610.68,356.4c1.82-1.74,4.37-2.28,7.08-2.09c2.809,0.247,5.567,0.897,8.19,1.93 c2.736,1.035,5.393,2.268,7.95,3.69c2.589,1.416,5.093,2.982,7.5,4.69c2.445,1.672,4.783,3.496,7,5.46 c2.195,1.916,4.234,4.002,6.1,6.24c1.819,2.111,3.272,4.51,4.3,7.1c1.032,2.341,0.925,5.028-0.29,7.28v0.06 c-0.27,0.467-0.27,1.043,0,1.51c0.08,0.15,0.185,0.285,0.31,0.4c0.637,0.555,1.604,0.489,2.159-0.148 c0-0.001,0.001-0.001,0.001-0.002c1.23-1.393,2.05-3.099,2.37-4.93c0.161-0.911,0.218-1.837,0.17-2.76 c-0.049-0.889-0.177-1.773-0.38-2.64c-0.859-3.281-2.339-6.367-4.36-9.09c-3.842-5.204-8.527-9.729-13.86-13.39 c-5.252-3.75-11.068-6.64-17.23-8.56c-3.202-0.997-6.549-1.447-9.9-1.33c-0.718,0.046-1.433,0.136-2.14,0.27 c-1.05,0.182-2.074,0.491-3.05,0.92c-1.713,0.737-3.181,1.948-4.23,3.49c-0.404,0.593-0.342,1.387,0.15,1.91 c0.493,0.513,1.278,0.609,1.88,0.23c0.102-0.05,0.199-0.111,0.29-0.18L610.68,356.4z"/><path style="fill:#ffb400" d="M663.41,337.13c0.544,0.307,1.233,0.115,1.539-0.429c0,0,0-0.001,0.001-0.001l9.05-16.17l9.29,6.23 l0.61,0.42c0.415,0.278,0.875,0.481,1.36,0.6c2.375,0.612,4.796-0.817,5.408-3.191c0.001-0.003,0.002-0.006,0.002-0.009l6.46-25.22 c0.218-0.511-0.019-1.102-0.53-1.32c-0.511-0.218-1.102,0.019-1.32,0.53l-10.66,17.05l-9.49-6.38l-0.64-0.43 c-0.486-0.32-1.029-0.544-1.6-0.66c-2.416-0.478-4.762,1.094-5.24,3.51l-4.82,24.26C662.737,336.407,662.972,336.898,663.41,337.13 z"/><path style="fill:#ffb400" d="M644.18,332.71c0.219,0.458,0.768,0.652,1.227,0.433c0.318-0.152,0.521-0.471,0.523-0.823 l0.05-10.48l4-1.81l0.7-0.32c1.516-0.692,2.214-2.459,1.58-4l-5.54-13.61c-0.156-0.425-0.626-0.644-1.052-0.488 c-0.319,0.117-0.533,0.418-0.538,0.758l-0.58,11.33l-4.11,1.86l-0.73,0.34l0,0c-1.559,0.734-2.228,2.593-1.494,4.152 c0.001,0.003,0.003,0.005,0.004,0.008L644.18,332.71z"/><path style="fill:#ffb400" d="M691.55,345.34l-0.4-0.69l0,0c-0.91-1.463-2.834-1.912-4.297-1.002 c-0.001,0.001-0.002,0.001-0.003,0.002l-11.92,7.27c-0.291,0.196-0.458,0.53-0.44,0.88c0.053,0.501,0.498,0.867,1,0.82l10.43-1 l2.22,3.78l0.4,0.67c0.847,1.427,2.667,1.934,4.13,1.15l13-6.94c0.285-0.148,0.457-0.449,0.44-0.77 c-0.027-0.455-0.415-0.803-0.87-0.78l-11.33,0.61L691.55,345.34z"/><path style="fill:#ffb400" d="M1003.93,460c0.563,0.256,1.227,0.008,1.483-0.555c0.002-0.005,0.004-0.01,0.007-0.015l7.57-16.92 l9.82,5.36l0.65,0.36c2.156,1.169,4.851,0.368,6.019-1.787c0.239-0.44,0.401-0.918,0.481-1.413l4.15-25.7 c0.171-0.527-0.118-1.094-0.645-1.265s-1.094,0.118-1.265,0.645l0,0l-9.07,17.94l-10-5.49l-0.67-0.36 c-0.51-0.278-1.072-0.452-1.65-0.51c-2.449-0.26-4.646,1.514-4.906,3.964c-0.001,0.012-0.003,0.024-0.004,0.036l-2.59,24.6 C1003.266,459.353,1003.513,459.795,1003.93,460z"/><path style="fill:#ffb400" d="M984.38,457.32c0.174,0.305,0.51,0.481,0.86,0.45c0.506-0.042,0.883-0.487,0.841-0.993 c0-0.002,0-0.005-0.001-0.007l-0.9-10.44l3.81-2.17l0.68-0.38c1.443-0.826,1.977-2.644,1.21-4.12l-6.76-13.05 c-0.145-0.283-0.442-0.455-0.76-0.44c-0.453,0.016-0.806,0.396-0.79,0.849c0,0,0,0.001,0,0.001l0.45,11.34l-3.92,2.23l-0.7,0.4l0,0 c-1.485,0.875-1.979,2.787-1.105,4.272c0.002,0.003,0.003,0.005,0.005,0.008L984.38,457.32z"/><path style="fill:#ffb400" d="M1046.56,467.64l-11.23,1.63l-2.63-3.66l-0.47-0.66l0,0c-1.032-1.38-2.985-1.666-4.37-0.64 l-11.22,8.33c-0.409,0.292-0.503,0.861-0.211,1.27c0.211,0.295,0.576,0.436,0.931,0.36l10.29-2l2.55,3.56l0.46,0.64 c0.973,1.346,2.834,1.685,4.22,0.77l12.27-8.09c0.266-0.173,0.407-0.486,0.36-0.8c-0.054-0.45-0.463-0.77-0.913-0.715 C1046.585,467.636,1046.573,467.638,1046.56,467.64z"/><path style="fill:#04294f" d="M377.32,496.11c36,16.27,72.72,30.77,109.86,44.08s74.69,25.49,112.44,37 c18.867,5.733,37.817,11.22,56.85,16.46c4.75,1.33,9.52,2.59,14.28,3.88c2.42,0.62,4.68,1.33,7,2s4.56,1.53,6.82,2.33 c18.111,6.67,33.956,18.347,45.69,33.67c5.785,7.678,10.585,16.05,14.29,24.92c0.85,2.25,1.83,4.46,2.55,6.75l1.17,3.42l1,3.46 l0.51,1.74l0.43,1.75l0.86,3.51l0.72,3.54c0.25,1.18,0.48,2.36,0.65,3.55l0.57,3.57l0.42,3.59l0.21,1.79l0.14,1.8l0.27,3.61 c0.26,4.803,0.26,9.617,0,14.42c-0.278,4.792-0.86,9.561-1.74,14.28c-0.916,4.676-2.172,9.278-3.76,13.77 c-3.219,9.049-7.588,17.646-13,25.58c-2.712,3.988-5.671,7.802-8.86,11.42c-3.186,3.597-6.578,7.007-10.16,10.21 c-7.207,6.369-15.194,11.796-23.77,16.15c-17.12,8.8-36.5,12.76-55.78,12.67c-9.686-0.09-19.343-1.095-28.84-3 c-2.39-0.44-4.78-1-7.17-1.51s-4.78-1-7.16-1.6c-4.75-1.19-9.53-2.26-14.26-3.59c-19-5.05-37.74-10.9-56.37-17.17 s-37.09-13.12-55.4-20.28s-36.5-14.69-54.42-22.79s-35.66-16.61-53-25.82l0,0c-0.874-0.46-1.955-0.135-2.43,0.73 c-0.228,0.42-0.278,0.913-0.14,1.37c0.13,0.464,0.444,0.854,0.87,1.08c17.36,9.43,35.08,18.17,53,26.46S447.69,771,466,778.36 s36.82,14.28,55.51,20.68s37.52,12.4,56.62,17.59c4.75,1.36,9.59,2.48,14.38,3.71c2.4,0.63,4.83,1.12,7.25,1.67s4.84,1.1,7.29,1.57 c9.838,1.988,19.843,3.036,29.88,3.13c16.344,0.216,32.581-2.654,47.86-8.46c4.439,7.642,10.427,14.27,17.58,19.46l1.35,0.91 l1.5-0.65c10.079-4.358,19.559-9.987,28.21-16.75c3.67,4.89,12.47,15.41,25,22.86c0.462,0.278,0.991,0.423,1.53,0.42 c1.657-0.004,2.997-1.351,2.992-3.008c-0.003-1.049-0.553-2.021-1.452-2.562c-11.71-7-20.11-17.14-23.41-21.53 c2.74-2.36,5.41-4.83,8-7.43l2.14-2.17l-2.2-2.1c-0.1-0.1-9.7-9.36-15.76-18.88c0.28-0.32,0.58-0.63,0.86-1 c3.345-3.802,6.448-7.809,9.29-12c5.707-8.318,10.328-17.331,13.75-26.82c1.688-4.79,3.024-9.696,4-14.68 c0.937-4.956,1.558-9.966,1.86-15c0.27-5.036,0.27-10.084,0-15.12l-0.29-3.77l-0.15-1.88l-0.22-1.87l-0.46-3.75l-0.6-3.73 c-0.18-1.25-0.42-2.48-0.68-3.72l-0.76-3.7l-0.91-3.66l-0.46-1.84l-0.53-1.81l-1.07-3.62l-1.23-3.58c-0.76-2.4-1.79-4.71-2.69-7.07 c-3.918-9.33-8.991-18.132-15.1-26.2c-6.208-8.019-13.494-15.143-21.65-21.17c-8.175-5.98-17.145-10.79-26.65-14.29 c-2.38-0.84-4.73-1.78-7.16-2.43s-4.86-1.46-7.21-2.06l-8.67-2.32c1.621-4.559,3.608-8.98,5.94-13.22c2.46-4.32,0.31-9.18-4-11.65 s-9.17-1.59-11.63,2.72c-3.055,5.56-5.637,11.368-7.72,17.36l-5.71-1.6c1.637-4.64,3.644-9.141,6-13.46 c2.47-4.32,0.32-9.18-4-11.65s-9.16-1.59-11.63,2.72c-3.067,5.593-5.659,11.434-7.75,17.46l-5.38-1.55 c1.655-4.694,3.689-9.245,6.08-13.61c2.46-4.32,0.31-9.18-4-11.65s-9.17-1.59-11.63,2.72c-3.076,5.597-5.672,11.444-7.76,17.48 c-37.47-11.16-74.74-23-111.63-36c-6.78-2.36-13.55-4.76-20.31-7.2c2.58-5.43,14-27.7,35.28-45.8 c1.264-1.071,1.422-2.964,0.351-4.228c-0.381-0.45-0.885-0.777-1.451-0.942l-20.52-6c13.12-10.62,29.78-19.58,50.22-22.55 c1.649-0.164,2.853-1.633,2.689-3.282c-0.164-1.649-1.633-2.853-3.282-2.689c-0.093,0.009-0.185,0.023-0.277,0.041 c-24.39,3.53-43.48,15.11-57.4,27.33c-0.182,0.125-0.346,0.273-0.49,0.44c-4.661,4.137-9.04,8.58-13.11,13.3 c-8.737,10.058-16.083,21.245-21.84,33.26c-20.14-7.72-40.093-15.903-59.86-24.55l0,0c-0.873-0.388-1.895,0.006-2.283,0.879 c-0.189,0.425-0.199,0.909-0.027,1.341C376.578,495.576,376.904,495.92,377.32,496.11z M739.67,807.85 c-10.266,9.967-22.195,18.062-35.25,23.92c-5.57-4.419-10.31-9.792-14-15.87c1.68-0.76,3.34-1.54,5-2.38 c9.016-4.567,17.417-10.259,25-16.94c1.91-1.72,3.78-3.47,5.59-5.28C730.083,797.196,734.653,802.733,739.67,807.85z M658.06,570.52c0.82-1.44,2-1.31,3.44-0.49s2.59,2,1.77,3.46c-2.533,4.608-4.686,9.413-6.44,14.37l-5.83-1.61 C652.918,580.822,655.279,575.561,658.06,570.52z M635.06,563.89c0.82-1.44,2-1.31,3.45-0.49s2.58,2,1.76,3.46 c-2.557,4.67-4.731,9.539-6.5,14.56l-5.8-1.65c1.902-5.478,4.253-10.789,7.03-15.88H635.06z M612.38,557.26 c0.82-1.44,2-1.31,3.44-0.49s2.59,2,1.77,3.46c-2.591,4.696-4.795,9.596-6.59,14.65l-5.78-1.69 c1.929-5.498,4.311-10.826,7.12-15.93H612.38z M476.69,476.26l19.06,5.56c-13.682,12.708-24.873,27.857-33,44.67 c-6.187-2.26-12.36-4.557-18.52-6.89c8.047-16.307,19.038-30.987,32.42-43.3L476.69,476.26z"/><path style="fill:#ffb400" d="M296.28,707.86c-0.634,0.255-1.249,0.556-1.84,0.9c-0.61,0.335-1.188,0.723-1.73,1.16 c-1.172,0.881-2.121,2.025-2.77,3.34c-0.404,0.742-0.131,1.671,0.611,2.076c0.502,0.274,1.115,0.245,1.589-0.076l0.27-0.17 c1.697-1.026,3.568-1.731,5.52-2.08c2.066-0.414,4.164-0.652,6.27-0.71c2.12-0.074,4.243,0.013,6.35,0.26 c2.103,0.244,4.171,0.734,6.16,1.46h0.11c0.809,0.297,1.705-0.119,2.002-0.927c0.193-0.526,0.089-1.114-0.272-1.543 c-1.817-2.02-4.161-3.492-6.77-4.25c-2.518-0.773-5.149-1.111-7.78-1C301.355,706.363,298.742,706.891,296.28,707.86z"/></g><g><path style="fill:#ffb400" d="M314.67,530.82c-9.1-9.14-11.86-22-12-34c-18.87,1.93-27-2.73-15.83-3.77 c5.468-0.52,10.905-1.321,16.29-2.4c68.25-16.5,80.94-55,80.94-99.81c0-59.86-23-108.38-169.9-108.38S44.29,331,44.29,390.88 s22.59,108.39,169.9,108.39c6.187,0,12.157-0.087,17.91-0.26c23.31,32.27,61.48,37.52,79.91,38.06 c2.015,0.055,3.693-1.534,3.748-3.549C315.786,532.509,315.392,531.53,314.67,530.82z"/><path style="fill:#ff3a00" d="M286.34,457.07c1.831-1.793,1.861-4.731,0.068-6.562c-0.003-0.003-0.006-0.006-0.008-0.008 c-10.65-10.86-21.71-21.22-32.93-31.41c-8.88-8.107-17.88-16.077-27-23.91c9.12-7.827,18.14-15.78,27.06-23.86 c11.24-10.16,22.32-20.5,33-31.34c1.87-1.91,1.838-4.974-0.071-6.844c-1.67-1.635-4.27-1.844-6.179-0.496 c-12.41,8.78-24.39,18.06-36.23,27.52c-10.09,8-20,16.22-29.86,24.53c-9.84-8.31-19.78-16.52-29.87-24.53 c-11.83-9.46-23.82-18.74-36.23-27.52c-2.196-1.525-5.211-0.981-6.736,1.215c-1.318,1.898-1.111,4.464,0.496,6.125 c10.66,10.84,21.74,21.18,33,31.34c8.9,8.093,17.92,16.047,27.06,23.86c-9.1,7.847-18.1,15.817-27,23.91 c-11.22,10.19-22.28,20.55-32.93,31.41c-1.831,1.793-1.863,4.73-0.07,6.562c1.619,1.654,4.208,1.862,6.07,0.488 c12.43-8.77,24.44-18,36.29-27.45c10.12-8,20.1-16.16,29.94-24.48c9.86,8.293,19.83,16.453,29.91,24.48 c11.86,9.43,23.86,18.68,36.29,27.45C282.245,458.837,284.736,458.635,286.34,457.07z"/></g></svg>