<?xml version="1.0" encoding="iso-8859-1"?>
<!-- Generator: Adobe Illustrator 23.0.2, SVG Export Plug-In . SVG Version: 6.00 Build 0)  -->
<svg version="1.1" id="coming_soon" xmlns="http://www.w3.org/2000/svg" xmlns:xlink="http://www.w3.org/1999/xlink" x="0px"
	 y="0px" viewBox="0 0 1080 1080" style="enable-background:new 0 0 1080 1080;" xml:space="preserve">
<title>Plan de travail 1 copie</title>
<g>
	<path style="fill:none;" d="M682.6,762.4c-5,1.94-11,4-18.3,6c-3.338,0.922-6.791-1.036-7.714-4.373
		c-0.146-0.53-0.223-1.077-0.226-1.627v0.55c-0.011,3.457,2.783,6.269,6.24,6.28c0.574,0.002,1.146-0.075,1.7-0.23
		c7.3-2.05,13.33-4.07,18.3-6c2.419-0.93,4.011-3.259,4-5.85v-0.55C686.587,759.172,685,761.474,682.6,762.4z"/>
	<path style="fill:none;" d="M682.6,539.19c-5,1.94-11,3.95-18.3,6c-3.338,0.922-6.791-1.036-7.714-4.373
		c-0.151-0.546-0.227-1.11-0.227-1.677v0.45c0.024,3.463,2.851,6.25,6.313,6.226c0.55-0.004,1.097-0.08,1.627-0.226
		c7.3-2.06,13.33-4.07,18.3-6c2.417-0.933,4.008-3.259,4-5.85v-0.45C686.629,535.899,685.034,538.251,682.6,539.19z"/>
	<path style="fill:none;" d="M682.6,807c-5.995,2.306-12.103,4.308-18.3,6c-3.33,0.928-6.783-1.02-7.71-4.35
		c-0.15-0.537-0.227-1.092-0.23-1.65v0.59c0.009,3.452,2.815,6.242,6.267,6.233c0.566-0.002,1.128-0.08,1.673-0.233
		c6.197-1.692,12.305-3.694,18.3-6c2.424-0.923,4.019-3.256,4-5.85v-0.58C686.612,803.75,685.019,806.076,682.6,807z"/>
	<path style="fill:none;" d="M682.6,717.75c-5,1.94-11,4-18.3,6c-3.33,0.928-6.783-1.02-7.71-4.35
		c-0.15-0.537-0.227-1.092-0.23-1.65v0.53c0.017,3.457,2.833,6.246,6.29,6.23c0.558-0.003,1.112-0.08,1.65-0.23
		c6.197-1.692,12.305-3.694,18.3-6c2.422-0.925,4.016-3.257,4-5.85v-0.53C686.614,714.492,685.021,716.822,682.6,717.75z"/>
	<path style="fill:none;" d="M682.6,673.09c-5,1.95-11,4-18.3,6c-3.338,0.922-6.791-1.036-7.714-4.373
		c-0.146-0.53-0.223-1.077-0.226-1.627v0.52c0.031,3.468,2.868,6.254,6.336,6.223c0.542-0.005,1.081-0.08,1.604-0.223
		c7.3-2.06,13.33-4.07,18.3-6c2.416-0.923,4.008-3.244,4-5.83v-0.52C686.608,669.846,685.016,672.167,682.6,673.09z"/>
	<path style="fill:none;" d="M682.6,628.46c-5.995,2.306-12.103,4.308-18.3,6c-3.33,0.928-6.783-1.02-7.71-4.35
		c-0.154-0.553-0.231-1.125-0.23-1.7v0.5c-0.026,3.463,2.761,6.291,6.223,6.316c0.58,0.004,1.158-0.072,1.717-0.226
		c7.3-2,13.33-4.07,18.3-6c2.417-0.933,4.008-3.259,4-5.85v-0.5C686.594,625.227,685.005,627.535,682.6,628.46z"/>
	<path style="fill:none;" d="M682.6,583.81c-5.995,2.306-12.103,4.308-18.3,6c-3.323,0.933-6.774-1.004-7.707-4.327
		c-0.153-0.544-0.231-1.107-0.233-1.673v0.47c0.017,3.457,2.833,6.246,6.29,6.23c0.558-0.003,1.112-0.08,1.65-0.23
		c7.3-2,13.33-4.07,18.3-6c2.421-0.928,4.014-3.258,4-5.85V578C686.603,580.579,685.011,582.892,682.6,583.81z"/>
	<path style="fill:none;" d="M650,276.1V257c-0.009-14.002,4.401-27.65,12.6-39c-19-39-56.28-63.68-102.17-63.68H523
		c-25.879,0.055-46.845,21.021-46.9,46.9v1.25c74.72,1,133.8,9.41,137.58,19.76c0.009,0.033,0.009,0.067,0,0.1
		c4.16,12.6,6.63,30.6,6.63,53.18c0,4.5-0.1,8.82-0.29,12.93l0,0c5.24,0.86,10.307,1.76,15.2,2.7c0.21-5.71,0.49-10.78,0.86-11.85
		C636.58,278,642,276.78,650,276.1z"/>
	<path style="fill:none;" d="M780.57,576.68c6.87,8,10.8,14.09,9.55,15.32c-0.71,2-6.09,7.79-9.63,10.39
		c-0.012,0.194-0.086,0.38-0.21,0.53c-0.193,0.161-0.439,0.243-0.69,0.23l-59.31,59.31c0,9.39-0.07,18.39-0.13,27.06l26.65-26.63
		c1.91-4.46,10.11-12.52,13.42-14.24c1.9-1.9,12.31,5.26,25.26,17c16.392-16.26,25.584-38.411,25.52-61.5
		c0.022-23.978,19.452-43.412,43.43-43.44c19.661,0,35.6-15.939,35.6-35.6c0-19.661-15.939-35.6-35.6-35.6l0,0h-26.7
		c-8.229,32.5-24.517,62.401-47.36,86.94L780.57,576.68z"/>
	<path style="fill:none;" d="M752.47,372V257c0.018-19.623-15.875-35.544-35.498-35.562c-6.316-0.006-12.52,1.673-17.972,4.862
		c5.54,17.425,8.333,35.606,8.28,53.89v37c0.35,0.33,0.68,0.66,1,1c0.138,0.129,0.268,0.266,0.39,0.41
		c2.41,2.56,4.44,4.4,6.11,13.89c0.81,4.68,1.54,11.25,2.18,20.69C724.69,363,736.86,369.53,752.47,372z"/>
	<path style="fill:none;" d="M783.78,408.25v7.26c0.131,14.025,7.144,27.09,18.76,34.95c0.21-3.51,0.33-7,0.33-10.58
		C802.856,426.615,795.511,414.444,783.78,408.25z"/>
	<path style="fill:#FF3A00;" d="M699,226.3c-10.958,6.343-17.712,18.039-17.73,30.7v19.1c1.68,0.13,3.25,0.31,4.69,0.49
		c5.33,0.7,8.79,1.66,9.18,2.72c0.82,2.44,1.29,25.34,1.29,29.7v0.74c3.92,1.974,7.559,4.463,10.82,7.4v-37
		C707.309,261.881,704.526,243.714,699,226.3z"/>
	<path style="fill:#FF3A00;" d="M783.78,408.25c11.731,6.194,19.076,18.365,19.09,31.63c0,3.55-0.12,7.07-0.33,10.58l0.08,0.06
		c-0.652,11.053-2.387,22.016-5.18,32.73l-0.11-0.05c-6.95,26.534-20.264,50.973-38.79,71.2c3.31,2.93,6.9,6.3,10.58,10
		c4.22,4.22,8.06,8.36,11.25,12.08c22.843-24.539,39.131-54.44,47.36-86.94h-0.07c2.594-10.278,4.353-20.749,5.26-31.31H833
		c0.553-6.047,0.83-12.153,0.83-18.32c-0.039-30.44-20.626-57.015-50.09-64.66v33L783.78,408.25z M795.28,542.47
		c-2.728,0-4.94-2.212-4.94-4.94s2.212-4.94,4.94-4.94s4.94,2.212,4.94,4.94c0,0.003,0,0.007,0,0.01c0,2.723-2.207,4.93-4.93,4.93
		C795.287,542.47,795.283,542.47,795.28,542.47z M797.06,520.65c-1.778,0.005-3.224-1.432-3.23-3.21
		c-0.005-1.778,1.432-3.224,3.21-3.23s3.224,1.432,3.23,3.21c0,0.003,0,0.007,0,0.01C800.27,519.204,798.834,520.645,797.06,520.65
		L797.06,520.65z M823.35,424.41c1.778,0,3.22,1.442,3.22,3.22s-1.442,3.22-3.22,3.22c-1.778,0-3.22-1.442-3.22-3.22l0,0
		C820.13,425.852,821.572,424.41,823.35,424.41L823.35,424.41z"/>
	<path style="fill:#FF3A00;" d="M445.05,217.69v7.71c0,1.13,6.84,2,15.49,2s15.51-0.92,15.51-2v-8.49L476,202.49h0.09v-1.25
		c0.055-25.879,21.021-46.845,46.9-46.9h37.44c45.89,0,83.17,24.73,102.17,63.68c1.213-1.68,2.493-3.297,3.84-4.85
		c5.638-6.478,12.469-11.811,20.12-15.71c-5.488-9.917-12.087-19.176-19.67-27.6c-27.07-30-64.87-46.52-106.46-46.52H523
		c-43,0.055-77.845,34.9-77.9,77.9v16.45L445.05,217.69z M651.05,176.37c1.461-1.014,3.467-0.652,4.481,0.809
		s0.652,3.467-0.809,4.481s-3.467,0.652-4.481-0.809l-0.001-0.001c-1.023-1.448-0.683-3.451,0.76-4.48H651.05z M609.44,139.72
		c2.24-1.558,5.319-1.004,6.876,1.236s1.004,5.319-1.236,6.876c-2.24,1.558-5.319,1.004-6.876-1.236
		c-0.001-0.002-0.003-0.004-0.004-0.006c-1.558-2.233-1.011-5.306,1.222-6.864c0.003-0.002,0.006-0.004,0.008-0.006L609.44,139.72
		L609.44,139.72z M590.06,146.72c1.458-1.018,3.466-0.661,4.483,0.798c1.018,1.458,0.661,3.466-0.798,4.483
		s-3.466,0.661-4.483-0.798c-0.001-0.001-0.002-0.002-0.002-0.003c-1.032-1.455-0.689-3.471,0.766-4.503
		c0.008-0.006,0.016-0.011,0.024-0.017L590.06,146.72z M467.92,169.94c2.242-1.555,5.32-0.998,6.875,1.244s0.998,5.32-1.244,6.875
		c-2.24,1.553-5.314,0.999-6.871-1.238c-1.558-2.24-1.005-5.318,1.235-6.876C467.916,169.942,467.918,169.941,467.92,169.94z
		 M461.41,195.94c1.778,0,3.22,1.442,3.22,3.22s-1.442,3.22-3.22,3.22s-3.22-1.442-3.22-3.22c0.033-1.755,1.465-3.16,3.22-3.16
		V195.94z"/>
	<path style="fill:#FF3A00;" d="M752.47,403.28V372c-15.61-2.47-27.78-9-35.54-18.86c0.33,4.95,0.64,10.68,0.92,17.36
		c2.347-1.38,5.369-0.596,6.748,1.751s0.596,5.369-1.751,6.749c-0.757,0.445-1.619,0.68-2.497,0.68
		c-0.75-0.006-1.489-0.184-2.16-0.52c-0.11-3.27-0.24-6.31-0.33-8.53c0.22,5.31,0.43,11.21,0.62,17.78c0,1.61,0.1,3.28,0.14,5
		c10.6,5.301,22.065,8.658,33.85,9.91V403.28z"/>
	<path style="fill:#04294F;" d="M720.36,617.2c0-18.49-0.02-35.83-0.06-52c-0.15-82.23-0.71-136.11-1.68-171.76
		c0-1.69-0.09-3.36-0.14-5c-0.19-6.57-0.4-12.47-0.62-17.78v-0.13c-0.14-3.34-0.29-6.44-0.44-9.33c-0.16-2.88-0.32-5.56-0.48-8.03
		c-0.64-9.44-1.37-16-2.18-20.69c-1.67-9.49-3.7-11.33-6.11-13.89c2.72,3,4.15,6,4.15,9.19c0,7.52-8.14,14.66-22.74,21.06
		c-39.77,17.49-127.59,29.64-229.51,29.64c-139.34,0-252.27-22.7-252.27-50.7c0.11-2.9,1.17-5.67,3.01-7.9
		c-7.32,8.58-8.61,16.49-8.61,28.33c0,12.37,2.64,25.05,11.15,34.3l-0.1,0.06c6.52,6.91,17.3,13.29,31.53,19
		c19.37,7.75,45.14,14.24,75.35,19.12c9.15,1.5,18.72,2.83,28.64,4c36.95,4.23,74.11,6.3,111.3,6.2
		c38.58,0.1,77.14-2.15,115.45-6.75l-0.64,112.36L574.94,649l-0.18,168.72l0.07,53.58c-27.22,2.69-54.58,4.17-82,4.86
		c-28.27,0.65-56.56,0.61-84.81-0.4s-56.48-3-84.51-6.35c-14-1.74-28-3.86-41.69-6.95c-6.84-1.48-13.57-3.42-20.15-5.79
		c-3.22-1.15-6.32-2.62-9.26-4.38c-1.38-0.83-2.65-1.84-3.77-3c-0.49-0.52-0.91-1.11-1.25-1.75c-0.27-0.56-0.43-1.18-0.46-1.8v-0.11
		c-0.05-0.93-0.83-1.66-1.76-1.65c-0.24,0.01-0.48,0.06-0.7,0.16c-0.62,0.29-1.01,0.92-1,1.6c0.02,1.15,0.29,2.28,0.78,3.32
		c0.47,0.94,1.06,1.81,1.77,2.59c1.32,1.42,2.82,2.65,4.47,3.67c3.12,1.92,6.42,3.53,9.85,4.82c6.71,2.52,13.59,4.59,20.58,6.2
		c13.89,3.31,27.94,5.61,42,7.54s28.23,3.34,42.38,4.48c14.15,1.14,28.33,2,42.51,2.58c28.36,1.2,56.74,1.49,85.14,0.87
		c28.38-0.65,56.76-2.13,85-4.94c0.96-0.11,1.81-0.68,2.27-1.53c2.26,1.2,4.6,2.22,7,3.08c2.59,0.94,5.23,1.72,7.89,2.42
		c2.66,0.7,5.34,1.34,8,1.86c2.72,0.55,5.47,0.96,8.23,1.22c0.34,0.03,0.64-0.23,0.67-0.57c0.01-0.25-0.12-0.49-0.34-0.6
		c-2.5-1.21-5.07-2.27-7.69-3.19c-2.59-0.95-5.21-1.79-7.86-2.55s-5.3-1.46-8-2c-2.5-0.5-5.03-0.82-7.57-0.95c0,0,0-0.08,0-0.11
		l0.07-56.25l-0.06-56.24L580.59,649l-0.38-112.49L579.57,424c0.01-0.11,0.01-0.22,0-0.33c13.8-1.79,26.88-3.88,39.05-6.26v467.84
		c-43.25,7-98.21,11.19-158,11.19c-139.34,0-252.27-22.7-252.27-50.7c0.04-2.26,0.74-4.46,2-6.34c-6.42,9.24-7.57,21.39-7.57,32.64
		c0,12.36,2.64,27,11.15,36.25l-0.1,0.06c27.24,28.86,128.5,48.31,246.82,48.31c113.8,0,213.76-18,245.32-45.06
		c2.77-2.35,4.7-5.54,5.5-9.08c1.94-8.57,4.54-27.12,6.44-81.06c1.1-30.84,2-73.24,2.35-131.94c-0.05-8.67-0.02-17.67,0.02-27.06
		c0.04-9.56,0.07-19.51,0.08-29.84c0-5.21,0-11.2-0.06-15.42L720.36,617.2L720.36,617.2z M272.28,930.74c0,0.3-0.23,0.56-0.54,0.6
		c-0.3,0.02-0.58-0.18-0.64-0.48c-0.48-2.24-0.87-4.51-1.19-6.78s-0.57-4.55-0.79-6.83c-0.36-4.13-0.6-8.25-0.69-12.41
		c-3-0.79-6-1.63-9-2.48c-3.4-0.94-6.79-2-10.17-3.09s-6.74-2.3-10-3.7c-2.45-1.02-4.84-2.17-7.16-3.44l-0.22,3.08l-0.39,6
		c-0.11,2-0.25,4-0.32,6s-0.17,4-0.14,6c0.03,0.28-0.17,0.52-0.45,0.56c-0.27,0.03-0.52-0.17-0.55-0.45c-0.4-1.98-0.68-3.99-0.85-6
		c-0.18-2-0.32-4-0.39-6.07s-0.14-4-0.14-6.06s0-4,0.05-6.07c0.04-0.98,0.86-1.75,1.84-1.72c0.27,0.01,0.54,0.09,0.78,0.22h0.08
		c3.03,1.63,6.14,3.08,9.33,4.36c3.21,1.28,6.49,2.46,9.79,3.58c3.3,1.12,6.66,2.14,10,3.21l10.08,3.15h0.06
		c0.71,0.23,1.19,0.9,1.17,1.65c-0.08,2.23-0.09,4.51-0.12,6.77s0,4.52,0,6.79c0,4.53,0.23,9,0.57,13.57L272.28,930.74
		L272.28,930.74z"/>
	<path style="fill:#00AEE0;" d="M636.07,279.31c-0.01,0.07-0.01,0.14,0,0.21c0,2.23,13.25,4,29.59,4
		c6.816,0.044,13.629-0.327,20.4-1.11c5.64-0.73,9.16-1.76,9.16-2.92c0.01-0.07,0.01-0.14,0-0.21c-0.39-1.06-3.85-2-9.18-2.72
		c-1.44-0.18-3-0.36-4.69-0.49l0,0c0,3.4-7,4.3-15.65,4.3s-15.66-0.9-15.66-4.3l0,0C642,276.78,636.58,278,636.07,279.31z"/>
	<path style="fill:#04294F;" d="M779.59,603.15c0.251,0.013,0.497-0.069,0.69-0.23c0.124-0.15,0.198-0.336,0.21-0.53
		c-0.16,0.1-0.31,0.22-0.45,0.31L779.59,603.15z"/>
	<path style="fill:#FFB400;" d="M854.41,458.2h-21.49c-0.907,10.561-2.666,21.032-5.26,31.31h26.75c19.661,0,35.6,15.939,35.6,35.6
		c0,19.661-15.939,35.6-35.6,35.6c-23.97,0.039-43.388,19.47-43.41,43.44c0.064,23.079-9.12,45.221-25.5,61.48
		c3.7,3.33,7.59,7,11.54,11c3.82,3.81,7.38,7.57,10.61,11.13c22.257-22.113,34.736-52.216,34.65-83.59
		c-0.017-6.705,5.405-12.153,12.11-12.17l0,0c36.953,0.007,66.915-29.945,66.922-66.898s-29.945-66.915-66.898-66.922
		c-0.008,0-0.016,0-0.024,0V458.2z M874,484c-1.778,0-3.22-1.442-3.22-3.22s1.442-3.22,3.22-3.22c1.778,0,3.22,1.442,3.22,3.22l0,0
		C877.22,482.558,875.778,484,874,484z M820.1,637.42c-1.778,0-3.22-1.442-3.22-3.22c0-1.778,1.442-3.22,3.22-3.22
		c1.778,0,3.22,1.442,3.22,3.22c0,0.003,0,0.007,0,0.01c0.011,1.773-1.417,3.219-3.19,3.23l0,0L820.1,637.42z M822.1,591.98
		c0-1.778,1.442-3.22,3.22-3.22s3.22,1.442,3.22,3.22s-1.442,3.22-3.22,3.22l0,0c-1.778,0.011-3.229-1.422-3.24-3.2l0,0
		L822.1,591.98z M831.53,611.6c-2.728,0-4.94-2.212-4.94-4.94s2.212-4.94,4.94-4.94s4.94,2.212,4.94,4.94
		c0.011,2.728-2.192,4.949-4.92,4.96c-0.013,0-0.027,0-0.04,0L831.53,611.6z M892.81,491.82c-2.728,0.006-4.944-2.202-4.95-4.93
		c-0.005-2.728,2.202-4.944,4.93-4.95s4.944,2.202,4.95,4.93c0,0.003,0,0.007,0,0.01c0.011,2.728-2.192,4.949-4.92,4.96
		c-0.01,0-0.02,0-0.03,0L892.81,491.82z"/>
	<path style="fill:#04294F;" d="M785.48,665.63c-13-11.72-23.36-18.88-25.26-17c-3.31,1.72-11.51,9.78-13.42,14.24l0.29,0.29
		c2.45-2.42,18.92,10.1,36.81,28c16.65,16.64,28.62,32,28.27,36.08c4.71-3.44,11.88-11.09,12.82-13.81
		c1.91-1.92-5.42-12.52-17.36-25.69c-3.23-3.56-6.79-7.32-10.61-11.13C793.07,672.65,789.18,669,785.48,665.63z"/>
	<path style="fill:#FFB400;" d="M747.09,663.18l-0.29-0.29l-26.65,26.63c-0.39,58.7-1.25,101.1-2.35,131.94l93.2-93.18l0,0l0.58-0.6
		l0.61-0.44c0.35-4-11.62-19.44-28.27-36.08C766,673.28,749.54,660.76,747.09,663.18z M731.89,782.64c-2.728,0-4.94-2.212-4.94-4.94
		s2.212-4.94,4.94-4.94s4.94,2.212,4.94,4.94S734.618,782.64,731.89,782.64L731.89,782.64z M743.11,730.88
		c-2.728,0.006-4.944-2.202-4.95-4.93c-0.005-2.728,2.202-4.944,4.93-4.95c2.728-0.005,4.944,2.202,4.95,4.93
		c0,0.003,0,0.007,0,0.01C748.04,728.664,745.834,730.875,743.11,730.88z M769.23,734.47c-4.971,0-9-4.029-9-9s4.029-9,9-9
		s9,4.029,9,9l0,0C778.23,730.441,774.201,734.47,769.23,734.47L769.23,734.47z M798.61,719.54c2.57,2.22,5.19,4.39,7.95,6.34l0,0
		c0.239,0.23,0.246,0.61,0.016,0.848c-0.162,0.168-0.406,0.227-0.626,0.152c-3.096-1.576-6.062-3.395-8.87-5.44
		c-2.82-2-5.55-4.11-8.22-6.3s-5.28-4.44-7.81-6.77s-5-4.69-7.49-7.12c-4.927-4.835-9.6-9.921-14-15.24
		c-2.16-2.69-4.28-5.42-6.24-8.27c-2.022-2.835-3.782-5.847-5.26-9c-0.099-0.258,0.031-0.547,0.289-0.646
		c0.199-0.076,0.424-0.018,0.561,0.146l0,0c2,2.73,4.21,5.33,6.46,7.88s4.52,5.08,6.85,7.56c4.6,5,9.35,9.88,14.11,14.75l7.26,7.19
		c2.45,2.37,4.9,4.72,7.4,7S796,717.33,798.61,719.54L798.61,719.54z"/>
	<path style="fill:#04294F;" d="M811,728.28c0.329,0.015,0.651-0.096,0.9-0.31c0.178-0.203,0.28-0.461,0.29-0.73l-0.61,0.44
		L811,728.28z"/>
	<path style="fill:#04294F;" d="M741.49,543.38c-2.48,1.29-8.61,7.32-10.07,10.68l0,0l0.21,0.22c1.84-1.84,14.21,7.57,27.65,21
		c12.48,12.48,21.48,24.07,21.21,27.1c3.54-2.6,8.92-8.34,9.63-10.39c1.25-1.23-2.68-7.34-9.55-15.32l-0.2-0.23
		c-3.19-3.72-7-7.86-11.25-12.08c-3.68-3.67-7.27-7-10.58-10l0,0C749.71,546.65,742.82,542.05,741.49,543.38z"/>
	<path style="fill:#FF3A00;" d="M780,602.7c0.14-0.09,0.29-0.21,0.45-0.31c0.27-3-8.73-14.62-21.21-27.1
		c-13.44-13.42-25.81-22.83-27.65-21l-0.21-0.22l-11.06,11.06h-0.06c0.04,16.213,0.06,33.547,0.06,52c1.261-0.654,2.66-0.997,4.08-1
		c4.984,0,9.025,4.041,9.025,9.025s-4.041,9.025-9.025,9.025c-1.42-0.002-2.82-0.345-4.08-1v-0.62c0,10.34-0.027,20.287-0.08,29.84
		l59.31-59.31L780,602.7z M741.45,602.29c-2.728,0-4.94-2.212-4.94-4.94s2.212-4.94,4.94-4.94s4.94,2.212,4.94,4.94
		c0,2.713-2.187,4.918-4.9,4.94H741.45z M776.1,601.89c-0.174,0.226-0.482,0.3-0.74,0.18c-4.497-2.337-8.728-5.153-12.62-8.4
		c-2-1.58-3.89-3.2-5.75-4.89s-3.71-3.39-5.49-5.16c-3.611-3.511-7.017-7.227-10.2-11.13c-1.56-2-3.09-4-4.5-6.08
		c-1.451-2.085-2.722-4.29-3.8-6.59c-0.118-0.244-0.016-0.537,0.228-0.654c0.004-0.002,0.008-0.004,0.012-0.006
		c0.199-0.091,0.434-0.043,0.58,0.12l0,0c3.28,3.74,6.68,7.31,10.12,10.88s6.88,7.11,10.33,10.65l5.27,5.24
		c1.77,1.72,3.54,3.45,5.34,5.15c3.59,3.39,7.21,6.79,11.09,9.82l0,0c0.283,0.172,0.373,0.541,0.201,0.825
		c-0.01,0.016-0.02,0.031-0.031,0.045H776.1z"/>
	<path style="fill:#04294F;" d="M695.14,279.31c0.01,0.07,0.01,0.14,0,0.21c0,1.16-3.52,2.19-9.16,2.92
		c-6.771,0.783-13.584,1.154-20.4,1.11c-16.34,0-29.59-1.8-29.59-4c-0.01-0.07-0.01-0.14,0-0.21c-0.37,1.07-0.65,6.14-0.86,11.85
		c-0.28,7.2-0.43,15.42-0.43,17.85c0,4.36,0.47,24,1.27,26.41c0.51,2.18,13.56,3.9,29.57,3.9c7.279,0.053,14.553-0.398,21.77-1.35
		c4.68-0.69,7.62-1.61,7.85-2.61c0.78-2.31,1.23-20.17,1.27-25.67V309C696.43,304.65,696,281.75,695.14,279.31z"/>
	<path style="fill:#FFB400;" d="M666.4,213.17c-1.333,1.553-2.613,3.17-3.84,4.85c-8.181,11.349-12.576,24.989-12.56,38.98v19.08
		c0,3.4,7,4.3,15.66,4.3s15.65-0.9,15.65-4.3V257c0.009-12.653,6.747-24.347,17.69-30.7c16.976-9.886,38.752-4.138,48.638,12.838
		c3.158,5.423,4.826,11.586,4.832,17.862v146.28l0,0v12.22c0,30.32,18.68,56.28,44.86,67.69l0.11,0.05
		c2.793-10.714,4.528-21.677,5.18-32.73l-0.08-0.06c-11.616-7.86-18.629-20.925-18.76-34.95V257
		c-0.056-36.964-30.067-66.884-67.032-66.828c-8.518,0.013-16.955,1.652-24.858,4.828c-1.83,0.75-3.62,1.59-5.37,2.49
		C678.871,201.38,672.041,206.703,666.4,213.17z M776.57,265.81c1.778,0,3.22,1.442,3.22,3.22s-1.442,3.22-3.22,3.22
		c-1.778,0-3.22-1.442-3.22-3.22l0,0C773.35,267.252,774.792,265.81,776.57,265.81z M773.35,338.21c1.778,0,3.22,1.442,3.22,3.22
		s-1.442,3.22-3.22,3.22c-1.778,0-3.22-1.442-3.22-3.22l0,0C770.13,339.652,771.572,338.21,773.35,338.21L773.35,338.21z
		 M763.61,314.63c2.728,0,4.94,2.212,4.94,4.94s-2.212,4.94-4.94,4.94s-4.94-2.212-4.94-4.94S760.882,314.63,763.61,314.63
		L763.61,314.63z M661,272.4c-2.728,0-4.94-2.212-4.94-4.94s2.212-4.94,4.94-4.94s4.94,2.212,4.94,4.94S663.728,272.4,661,272.4
		L661,272.4z M673.56,242.64c0.005,1.778-1.432,3.224-3.21,3.23s-3.224-1.432-3.23-3.21s1.432-3.224,3.21-3.23
		c0.003,0,0.007,0,0.01,0c1.767,0.011,3.195,1.443,3.2,3.21H673.56z"/>
	<path style="fill:#00AEE0;" d="M460.54,378.45c101.92,0,189.74-12.15,229.51-29.64c14.6-6.4,22.74-13.54,22.74-21.06
		c0-3.15-1.43-6.2-4.15-9.19c-0.122-0.144-0.252-0.281-0.39-0.41c-0.32-0.34-0.65-0.67-1-1c-3.261-2.937-6.9-5.426-10.82-7.4
		c0,5.5-0.49,23.36-1.27,25.67c-0.23,1-3.17,1.92-7.85,2.61c-7.192,0.928-14.439,1.359-21.69,1.29c-16,0-29.06-1.72-29.57-3.9
		c-0.8-2.42-1.27-22.05-1.27-26.41c0-2.43,0.15-10.65,0.43-17.85c-4.893-0.94-9.96-1.84-15.2-2.7l0,0
		c-0.73,16.54-2.92,29.92-6.27,40c-2.77,11.21-70.3,20.19-153.18,20.19s-150.43-9-153.21-20.19c-3.35-10.1-5.54-23.48-6.26-40l0,0
		c-44.06,7.24-75.74,17.42-87.62,29c-0.578,0.556-1.126,1.144-1.64,1.76c-2.148,2.32-3.396,5.331-3.52,8.49
		C208.27,355.75,321.2,378.45,460.54,378.45z"/>
	<path style="fill:#04294F;" d="M460.54,348.67c82.88,0,150.41-9,153.18-20.19c3.35-10.1,5.54-23.48,6.27-40
		c0.19-4.11,0.29-8.43,0.29-12.93c0-22.58-2.47-40.58-6.63-53.18c0.115,0.321,0.172,0.659,0.17,1c0,11.54-68.64,20.91-153.28,20.91
		s-153.31-9.37-153.31-20.91c-0.004-0.342,0.057-0.681,0.18-1c-4.17,12.6-6.63,30.6-6.63,53.18c0,4.5,0.09,8.82,0.29,12.93
		c0.72,16.54,2.91,29.92,6.26,40C310.11,339.69,377.63,348.67,460.54,348.67z M556.38,319.88c-0.314,2.075-0.92,4.095-1.8,6
		c-0.533,1.098-1.855,1.556-2.953,1.023c-0.016-0.008-0.031-0.015-0.047-0.023c-0.436-0.212-0.788-0.564-1-1
		c-0.882-1.904-1.485-3.924-1.79-6c-0.333-1.982-0.49-3.99-0.47-6c0.005-2.01,0.173-4.017,0.5-6c0.325-2.068,0.916-4.085,1.76-6
		c0.519-1.105,1.836-1.579,2.94-1.06c0.466,0.219,0.841,0.594,1.06,1.06c0.848,1.914,1.44,3.931,1.76,6
		c0.327,1.983,0.495,3.99,0.5,6C556.863,315.89,556.709,317.897,556.38,319.88z M577.78,317.45c-0.304,2.076-0.907,4.097-1.79,6
		c-0.532,1.105-1.859,1.569-2.964,1.036c-0.453-0.218-0.818-0.584-1.036-1.036c-0.883-1.903-1.486-3.924-1.79-6
		c-0.333-1.982-0.49-3.99-0.47-6c0.008-1.993,0.175-3.983,0.5-5.95c0.317-2.069,0.909-4.087,1.76-6
		c0.509-1.103,1.817-1.584,2.92-1.075c0.003,0.002,0.007,0.003,0.01,0.005c0.475,0.214,0.856,0.595,1.07,1.07
		c0.851,1.913,1.443,3.931,1.76,6c0.325,1.967,0.492,3.957,0.5,5.95C578.27,313.46,578.113,315.468,577.78,317.45z M599.19,313.33
		c-0.305,2.076-0.908,4.096-1.79,6c-0.54,1.101-1.871,1.555-2.971,1.014c-0.01-0.005-0.019-0.01-0.029-0.014
		c-0.435-0.214-0.786-0.565-1-1c-0.882-1.904-1.485-3.924-1.79-6c-0.338-1.982-0.495-3.99-0.47-6c0.006-2.01,0.173-4.017,0.5-6
		c0.32-2.069,0.912-4.086,1.76-6c0.519-1.105,1.836-1.579,2.94-1.06c0.466,0.219,0.841,0.594,1.06,1.06
		c0.844,1.915,1.435,3.932,1.76,6c0.327,1.983,0.494,3.99,0.5,6C599.68,309.34,599.523,311.348,599.19,313.33L599.19,313.33z
		 M345.33,244.86c3.606,0,6.53,2.924,6.53,6.53s-2.924,6.53-6.53,6.53s-6.53-2.924-6.53-6.53l0,0
		C338.8,247.784,341.724,244.86,345.33,244.86z M306.33,260.62c0.261-0.6,0.955-0.881,1.56-0.63l0,0
		c5.922,2.272,12.055,3.947,18.31,5c6.27,1.26,12.62,2.14,19,3c12.71,1.66,25.5,2.79,38.31,3.64s25.64,1.47,38.48,1.87
		s25.69,0.54,38.53,0.55s25.7-0.15,38.54-0.54s25.66-1,38.48-1.86s25.6-2,38.32-3.62c6.34-0.86,12.7-1.73,19-3
		c6.262-1.048,12.403-2.723,18.33-5l0,0c0.594-0.242,1.272,0.039,1.52,0.63c0.243,0.583-0.029,1.252-0.61,1.5
		c-6.036,2.485-12.308,4.351-18.72,5.57c-6.32,1.41-12.71,2.43-19.09,3.42c-12.78,1.84-25.63,3.11-38.48,4.12
		c-25.72,2-51.5,2.7-77.28,2.81c-9.907-0.04-19.823-0.183-29.75-0.43c0.18,1.22,0.3,2.43,0.39,3.64c0.13,1.74,0.17,3.47,0.19,5.21
		s0,3.48-0.17,5.21c-0.097,1.748-0.304,3.488-0.62,5.21c-0.041,0.196-0.131,0.378-0.26,0.53c-0.192,0.378-0.576,0.62-1,0.63
		c-7.512,0.39-15.038,0.39-22.55,0c-6.83-0.33-13.66-0.86-20.45-1.83c0,3,0.07,6,0.08,9c0,10.29-0.15,20.58-0.79,30.87
		c-0.043,0.665-0.615,1.17-1.28,1.13c-0.609-0.035-1.095-0.521-1.13-1.13c-0.64-10.29-0.78-20.58-0.8-30.87c0-10,0.19-20,0.8-30
		c-12.85-1-25.68-2.27-38.46-4.1c-6.38-1-12.76-2-19.09-3.41c-6.417-1.225-12.695-3.091-18.74-5.57
		C306.328,261.887,306.078,261.206,306.33,260.62z"/>
	<path style="fill:#04294F;" d="M386.31,293.6c6.91-0.05,13.79,0.21,20.67,0.52s14,0.76,20.95,1.5c-0.19-1.3-0.31-2.6-0.4-3.91
		c-0.13-1.73-0.16-3.47-0.17-5.21s0.06-3.47,0.2-5.21c0.08-1.24,0.21-2.48,0.39-3.72c-14.11-0.4-28.22-1.07-42.31-2.11
		C386,281.51,386.2,287.55,386.31,293.6z"/>
	<path style="fill:#00AEE0;" d="M460.54,896.44c59.83,0,114.79-4.19,158-11.19V417.43c-12.17,2.38-25.25,4.47-39.05,6.26
		c0.01,0.11,0.01,0.22,0,0.33l0.64,112.48l0.46,112.5l0.11,112.48l0.06,56.24L580.69,874l0,0c0,0,0,0.07,0,0.11
		c2.543,0.128,5.074,0.445,7.57,0.95c2.71,0.52,5.37,1.21,8,2s5.27,1.6,7.86,2.55c2.621,0.919,5.188,1.984,7.69,3.19
		c0.305,0.156,0.425,0.53,0.269,0.835c-0.114,0.222-0.35,0.354-0.599,0.335c-2.763-0.259-5.511-0.666-8.23-1.22
		c-2.71-0.52-5.39-1.15-8-1.86s-5.3-1.48-7.89-2.42c-2.405-0.855-4.745-1.885-7-3.08c-0.459,0.853-1.308,1.425-2.27,1.53
		c-28.29,2.81-56.67,4.29-85,4.94s-56.78,0.33-85.14-0.87c-14.18-0.6-28.35-1.46-42.51-2.58c-14.15-1.14-28.29-2.56-42.38-4.48
		s-28.13-4.23-42-7.54c-6.99-1.607-13.865-3.679-20.58-6.2c-3.431-1.285-6.73-2.899-9.85-4.82c-1.648-1.017-3.152-2.251-4.47-3.67
		c-0.707-0.777-1.303-1.649-1.77-2.59c-0.49-1.04-0.756-2.171-0.78-3.32c-0.01-0.683,0.381-1.309,1-1.6
		c-0.82-2.45-2.26-8.52-3.75-23.29c-12.66,4.48-22,9.41-27.34,14.64l0,0c-1.119,1.162-2.145,2.409-3.07,3.73
		c-0.038,0.039-0.066,0.087-0.08,0.14c-1.263,1.877-1.958,4.078-2,6.34C208.27,873.74,321.2,896.44,460.54,896.44z"/>
	<path style="fill:#00AEE0;" d="M460.54,244.22c84.64,0,153.28-9.37,153.28-20.91c0.003-0.341-0.055-0.679-0.17-1
		c0.009-0.033,0.009-0.067,0-0.1c-3.78-10.35-62.86-18.72-137.58-19.76H476l0.09,14.42v3.23c8.06,1.09,13.56,3,13.56,5.24
		c0,3.43-13,6.22-29.07,6.22s-29.08-2.79-29.08-6.22c0-2.21,5.51-4.15,13.59-5.24v-17.61c-74.78,1-133.84,9.41-137.62,19.76
		c-0.009,0.033-0.009,0.067,0,0.1c-0.123,0.319-0.184,0.658-0.18,1C307.23,234.85,375.87,244.22,460.54,244.22z"/>
	<path style="fill:#FF3A00;" d="M245.22,844c0.935-0.012,1.712,0.717,1.76,1.65v0.11c0.034,0.624,0.191,1.236,0.46,1.8
		c0.336,0.637,0.756,1.226,1.25,1.75c1.119,1.162,2.386,2.171,3.77,3c2.936,1.759,6.038,3.226,9.26,4.38
		c6.581,2.375,13.312,4.309,20.15,5.79c13.72,3.09,27.69,5.21,41.69,6.95c28,3.4,56.26,5.34,84.51,6.35s56.54,1,84.81,0.4
		c27.37-0.69,54.73-2.17,82-4.86l-0.07-53.58l0.06-56.24l0.07-112.5l0.37-112.49L576,424.14c-38.298,4.583-76.839,6.824-115.41,6.71
		c-37.189,0.104-74.353-1.966-111.3-6.2c-9.92-1.18-19.49-2.51-28.64-4v382.9c-32.89,4.41-60.31,10.34-79.83,17.3
		c1.49,14.77,2.93,20.84,3.75,23.29C244.777,844.057,244.997,844.01,245.22,844z M524,866.62c-2.728,0.006-4.944-2.202-4.95-4.93
		c-0.005-2.728,2.202-4.944,4.93-4.95c2.728-0.005,4.944,2.202,4.95,4.93c0,0.003,0,0.007,0,0.01
		C528.93,864.404,526.724,866.615,524,866.62z M544.3,850.15c-4.971,0-9-4.029-9-9s4.029-9,9-9s9,4.029,9,9
		S549.271,850.15,544.3,850.15c-0.007,0-0.013,0-0.02,0H544.3z M557.71,563.09c2.728,0,4.94,2.212,4.94,4.94s-2.212,4.94-4.94,4.94
		s-4.94-2.212-4.94-4.94c0-2.721,2.2-4.929,4.92-4.94H557.71z M548.07,470.29c2.728-0.006,4.944,2.202,4.95,4.93
		c0.005,2.728-2.202,4.944-4.93,4.95s-4.944-2.202-4.95-4.93c0-0.003,0-0.007,0-0.01c0-2.717,2.193-4.924,4.91-4.94H548.07z
		 M551.29,547.75c0,1.778-1.442,3.22-3.22,3.22s-3.22-1.442-3.22-3.22s1.442-3.22,3.22-3.22l0,0c1.771,0.011,3.2,1.449,3.2,3.22
		H551.29z M531.7,491c4.971,0,9,4.029,9,9s-4.029,9-9,9s-9-4.029-9-9S526.729,491,531.7,491z M530.41,791.63
		c0,1.778-1.442,3.22-3.22,3.22s-3.22-1.442-3.22-3.22s1.442-3.22,3.22-3.22l0,0c1.774,0,3.214,1.436,3.22,3.21V791.63z
		 M380.32,437.5c2.728,0,4.94,2.212,4.94,4.94s-2.212,4.94-4.94,4.94s-4.94-2.212-4.94-4.94S377.592,437.5,380.32,437.5
		L380.32,437.5z M347.12,628.71l0.08-39.57v-19.79l0.13-19.79l0.26-39.57l0.46-39.57c0.19-13.19,0.38-26.38,0.66-39.58
		c0-0.276,0.224-0.5,0.5-0.5s0.5,0.224,0.5,0.5c0.28,13.2,0.47,26.39,0.66,39.58l0.46,39.57l0.26,39.57l0.13,19.79v19.79l0.08,39.57
		v19.79l-0.07,19.78l-0.21,39.58L351,727.64l-0.08,5c-0.07,1.65-0.1,3.3-0.2,4.95c-0.17,3.29-0.42,6.59-0.87,9.89
		c-0.04,0.329-0.339,0.563-0.668,0.523c-0.007-0.001-0.015-0.002-0.022-0.003c-0.269-0.041-0.479-0.252-0.52-0.52
		c-0.45-3.3-0.7-6.6-0.87-9.89c-0.1-1.65-0.14-3.3-0.2-4.95l-0.08-5l-0.13-19.78l-0.21-39.58l-0.07-19.78L347.12,628.71z
		 M324.07,804.19c0.099-0.111,0.233-0.185,0.38-0.21c1.091-0.206,2.205-0.26,3.31-0.16c1.059,0.071,2.11,0.235,3.14,0.49
		c1.04,0.229,2.047,0.585,3,1.06c1.023,0.487,1.943,1.166,2.71,2c0.21,0.252,0.179,0.626-0.07,0.84
		c-0.061,0.049-0.128,0.09-0.2,0.12c-1.092,0.34-2.239,0.469-3.38,0.38c-1.054-0.08-2.094-0.285-3.1-0.61
		c-1.031-0.305-2.035-0.696-3-1.17c-0.998-0.489-1.929-1.104-2.77-1.83C323.851,804.847,323.843,804.454,324.07,804.19z
		 M248.07,838.08c2.569-2.319,5.458-4.256,8.58-5.75c3.065-1.533,6.225-2.869,9.46-4c6.429-2.246,12.98-4.129,19.62-5.64
		c6.62-1.57,13.31-2.81,20-3.93s13.42-2.08,20.15-2.92c13.47-1.72,27-2.94,40.52-3.86s27.08-1.57,40.63-2s27.11-0.6,40.66-0.59
		s27.13,0.33,40.67,0.85s27.08,1.37,40.59,2.3c6.76,0.45,13.51,1.06,20.26,1.65s13.49,1.27,20.22,2
		c0.273,0.031,0.469,0.277,0.44,0.55c-0.031,0.259-0.26,0.448-0.52,0.43l-20.27-1.14l-20.27-0.94
		c-13.52-0.62-27.04-1.073-40.56-1.36c-27-0.76-54.07-0.5-81.1,0.17s-54,2.2-80.89,5.06c-13.43,1.46-26.8,3.38-40,6.06
		c-6.601,1.303-13.125,2.972-19.54,5c-3.193,1.014-6.322,2.22-9.37,3.61c-3.047,1.317-5.89,3.065-8.44,5.19l0,0
		c-0.275,0.195-0.655,0.131-0.851-0.144c-0.161-0.227-0.148-0.533,0.031-0.746L248.07,838.08z"/>
	<path style="fill:#04294F;" d="M460.54,227.45c-8.65,0-15.49-0.92-15.49-2v-5.26c-8.08,1.09-13.59,3-13.59,5.24
		c0,3.43,13,6.22,29.08,6.22s29.07-2.79,29.07-6.22c0-2.21-5.5-4.15-13.56-5.24v5.26C476.05,226.53,469.17,227.45,460.54,227.45z"/>
	<path style="fill:#FFB400;" d="M320.6,420.64c-30.21-4.88-56-11.37-75.35-19.12c0,0-9.79,42.93-9.79,238.93
		c0,103.47,2.72,154.91,5.31,180.4c19.52-7,46.94-12.89,79.83-17.3V420.64z M293.41,512.21c0,2.728-2.212,4.94-4.94,4.94
		s-4.94-2.212-4.94-4.94c0-2.728,2.212-4.94,4.94-4.94S293.41,509.482,293.41,512.21L293.41,512.21z M280.16,430.84
		c2.728,0,4.94,2.212,4.94,4.94s-2.212,4.94-4.94,4.94s-4.94-2.212-4.94-4.94S277.432,430.84,280.16,430.84L280.16,430.84
		L280.16,430.84z M271.16,483.39c4.971,0,9,4.029,9,9s-4.029,9-9,9s-9-4.029-9-9c0-4.963,4.017-8.989,8.98-9H271.16z M261.28,731.39
		c-2.728,0-4.94-2.212-4.94-4.94s2.212-4.94,4.94-4.94s4.94,2.212,4.94,4.94c-0.027,2.717-2.243,4.901-4.96,4.89L261.28,731.39z
		 M269.68,673.99c-1.778,0-3.22-1.442-3.22-3.22c0-1.778,1.442-3.22,3.22-3.22s3.22,1.442,3.22,3.22l0,0
		c-0.027,1.767-1.473,3.181-3.24,3.17L269.68,673.99z M274.02,689.59c0-4.971,4.029-9,9-9s9,4.029,9,9s-4.029,9-9,9
		c-4.971,0.011-9.009-4.009-9.02-8.98c0-0.023,0-0.047,0-0.07L274.02,689.59z M292.02,767.8c-2.728,0-4.94-2.212-4.94-4.94
		s2.212-4.94,4.94-4.94s4.94,2.212,4.94,4.94c-0.027,2.717-2.243,4.901-4.96,4.89L292.02,767.8z"/>
	<path style="fill:#04294F;" d="M210.32,839.26c0.925-1.321,1.951-2.568,3.07-3.73C212.225,836.65,211.195,837.901,210.32,839.26z"
		/>
	<path style="fill:#00AEE0;" d="M344.77,271.19c12.78,1.83,25.61,3.1,38.46,4.1c-0.61,10-0.76,20-0.8,30
		c0,10.29,0.16,20.58,0.8,30.87c0.035,0.609,0.521,1.095,1.13,1.13c0.665,0.04,1.237-0.465,1.28-1.13
		c0.64-10.29,0.78-20.58,0.79-30.87c0-3,0-6-0.08-9c6.79,1,13.62,1.5,20.45,1.83c7.512,0.39,15.038,0.39,22.55,0
		c0.424-0.01,0.808-0.252,1-0.63c0.129-0.152,0.219-0.334,0.26-0.53c0.316-1.722,0.523-3.462,0.62-5.21
		c0.13-1.73,0.16-3.47,0.17-5.21s-0.06-3.47-0.19-5.21c-0.09-1.21-0.21-2.42-0.39-3.64c9.92,0.26,19.837,0.403,29.75,0.43
		c25.78-0.11,51.56-0.83,77.28-2.81c12.85-1,25.7-2.28,38.48-4.12c6.38-1,12.77-2,19.09-3.42c6.412-1.219,12.684-3.085,18.72-5.57
		c0.581-0.248,0.853-0.917,0.61-1.5c-0.248-0.591-0.926-0.872-1.52-0.63l0,0c-5.927,2.277-12.068,3.952-18.33,5
		c-6.26,1.26-12.62,2.13-19,3c-12.72,1.65-25.51,2.78-38.32,3.62s-25.64,1.46-38.48,1.86s-25.69,0.53-38.54,0.54
		s-25.69-0.16-38.53-0.55s-25.66-1-38.48-1.87s-25.6-2-38.31-3.64c-6.35-0.85-12.7-1.73-19-3c-6.255-1.053-12.388-2.728-18.31-5l0,0
		c-0.63-0.222-1.321,0.109-1.543,0.74c-0.201,0.572,0.052,1.205,0.593,1.48c6.045,2.479,12.323,4.345,18.74,5.57
		C332,269.18,338.39,270.2,344.77,271.19z M428,277.57c-0.18,1.24-0.31,2.48-0.39,3.72c-0.14,1.74-0.18,3.47-0.2,5.21
		s0,3.48,0.17,5.21c0.09,1.31,0.21,2.61,0.4,3.91c-7-0.74-14-1.15-20.95-1.5s-13.76-0.57-20.67-0.52
		c-0.11-6.05-0.3-12.09-0.67-18.14C399.73,276.5,413.84,277.17,428,277.57z"/>
	<path style="fill:#FFB400;" d="M248.92,839L248.92,839c2.55-2.125,5.393-3.873,8.44-5.19c3.048-1.39,6.177-2.596,9.37-3.61
		c6.415-2.028,12.939-3.697,19.54-5c13.21-2.68,26.58-4.6,40-6.06c26.85-2.86,53.87-4.27,80.89-5.06s54.07-0.93,81.1-0.17
		c13.52,0.287,27.04,0.74,40.56,1.36l20.27,0.94l20.27,1.14c0.26,0.018,0.489-0.171,0.52-0.43c0.029-0.273-0.167-0.519-0.44-0.55
		c-6.733-0.76-13.473-1.427-20.22-2c-6.75-0.59-13.5-1.2-20.26-1.65c-13.507-0.933-27.037-1.7-40.59-2.3
		c-13.54-0.52-27.1-0.91-40.67-0.85s-27.11,0.18-40.66,0.59s-27.1,1-40.63,2s-27.05,2.14-40.52,3.86
		c-6.733,0.84-13.45,1.813-20.15,2.92c-6.7,1.12-13.39,2.36-20,3.93c-6.64,1.511-13.191,3.394-19.62,5.64
		c-3.235,1.131-6.395,2.467-9.46,4c-3.122,1.494-6.011,3.431-8.58,5.75c-0.217,0.258-0.184,0.643,0.074,0.859
		c0.213,0.179,0.519,0.191,0.746,0.031L248.92,839z"/>
	<path style="fill:#FFB400;" d="M347.36,707.86l0.13,19.78l0.08,5c0.06,1.65,0.1,3.3,0.2,4.95c0.17,3.29,0.42,6.59,0.87,9.89
		c0.041,0.268,0.251,0.479,0.52,0.52c0.327,0.052,0.635-0.171,0.687-0.498c0.001-0.007,0.002-0.015,0.003-0.022
		c0.45-3.3,0.7-6.6,0.87-9.89c0.1-1.65,0.13-3.3,0.2-4.95l0.08-5l0.13-19.78l0.21-39.58l0.07-19.78v-19.79l-0.08-39.57v-19.79
		l-0.13-19.79L350.86,510l-0.46-39.57c-0.19-13.19-0.38-26.38-0.66-39.58c0-0.276-0.224-0.5-0.5-0.5s-0.5,0.224-0.5,0.5
		c-0.28,13.2-0.47,26.39-0.66,39.58L347.63,510l-0.26,39.57l-0.13,19.79v19.79l-0.08,39.57v19.79l0.07,19.78L347.36,707.86z"/>
	<path style="fill:#FFB400;" d="M326.9,807c0.965,0.474,1.969,0.865,3,1.17c1.006,0.325,2.046,0.53,3.1,0.61
		c1.141,0.089,2.288-0.04,3.38-0.38c0.072-0.03,0.139-0.071,0.2-0.12c0.249-0.214,0.28-0.588,0.07-0.84
		c-0.767-0.834-1.687-1.513-2.71-2c-0.953-0.475-1.96-0.831-3-1.06c-1.03-0.255-2.081-0.419-3.14-0.49
		c-1.105-0.1-2.219-0.046-3.31,0.16c-0.147,0.025-0.281,0.099-0.38,0.21c-0.261,0.27-0.254,0.701,0.017,0.962
		c0.014,0.013,0.028,0.026,0.043,0.038C325.004,805.951,325.921,806.536,326.9,807z"/>
	<path style="fill:#FF3A00;" d="M554.58,302c-0.519-1.105-1.836-1.579-2.94-1.06c-0.466,0.219-0.841,0.594-1.06,1.06
		c-0.844,1.915-1.435,3.932-1.76,6c-0.327,1.983-0.495,3.99-0.5,6c-0.02,2.01,0.137,4.018,0.47,6c0.305,2.076,0.908,4.096,1.79,6
		c0.212,0.436,0.564,0.788,1,1c1.085,0.559,2.418,0.132,2.977-0.953c0.008-0.016,0.016-0.031,0.023-0.047
		c0.88-1.905,1.486-3.925,1.8-6c0.329-1.983,0.483-3.99,0.46-6c-0.005-2.01-0.173-4.017-0.5-6
		C556.02,305.931,555.428,303.914,554.58,302z"/>
	<path style="fill:#FF3A00;" d="M576,299.58c-0.214-0.475-0.595-0.856-1.07-1.07c-1.1-0.515-2.41-0.041-2.925,1.06
		c-0.002,0.003-0.003,0.007-0.005,0.01c-0.851,1.913-1.443,3.931-1.76,6c-0.325,1.967-0.492,3.957-0.5,5.95
		c-0.02,2.01,0.137,4.018,0.47,6c0.304,2.076,0.907,4.097,1.79,6c0.532,1.105,1.859,1.569,2.964,1.036
		c0.453-0.218,0.818-0.584,1.036-1.036c0.883-1.903,1.486-3.924,1.79-6c0.333-1.982,0.49-3.99,0.47-6
		c-0.008-1.993-0.175-3.983-0.5-5.95C577.443,303.511,576.851,301.493,576,299.58z"/>
	<path style="fill:#FF3A00;" d="M597.4,295.45c-0.519-1.105-1.836-1.579-2.94-1.06c-0.466,0.219-0.841,0.594-1.06,1.06
		c-0.848,1.914-1.44,3.931-1.76,6c-0.327,1.983-0.494,3.99-0.5,6c-0.025,2.01,0.132,4.018,0.47,6c0.305,2.076,0.908,4.096,1.79,6
		c0.214,0.435,0.565,0.786,1,1c1.093,0.556,2.429,0.121,2.986-0.971c0.005-0.01,0.01-0.019,0.014-0.029
		c0.882-1.904,1.485-3.924,1.79-6c0.333-1.982,0.49-3.99,0.47-6c-0.006-2.01-0.173-4.017-0.5-6
		C598.835,299.382,598.244,297.365,597.4,295.45z"/>
	<circle style="fill:#00AEE0;" cx="345.33" cy="251.39" r="6.53"/>
	<path style="fill:#FF3A00;" d="M776.36,698.5c-4.76-4.87-9.51-9.75-14.11-14.75c-2.33-2.48-4.6-5-6.85-7.56s-4.43-5.15-6.46-7.88
		l0,0c-0.178-0.211-0.493-0.239-0.704-0.061c-0.163,0.137-0.222,0.362-0.146,0.561c1.478,3.153,3.238,6.165,5.26,9
		c2,2.85,4.08,5.58,6.24,8.27c4.4,5.319,9.073,10.405,14,15.24c2.44,2.433,4.937,4.807,7.49,7.12c2.53,2.33,5.15,4.57,7.81,6.77
		s5.4,4.3,8.22,6.3c2.808,2.045,5.774,3.864,8.87,5.44c0.314,0.107,0.655-0.06,0.762-0.374c0.075-0.22,0.016-0.464-0.152-0.626l0,0
		c-2.76-2-5.38-4.12-7.95-6.34s-5.09-4.5-7.59-6.81s-4.95-4.67-7.4-7L776.36,698.5z"/>
	<path style="fill:#FFB400;" d="M776,601c-3.88-3-7.5-6.43-11.09-9.82c-1.8-1.7-3.57-3.43-5.34-5.15l-5.27-5.24
		c-3.45-3.54-6.93-7.07-10.33-10.65s-6.84-7.14-10.12-10.88l0,0c-0.146-0.163-0.381-0.211-0.58-0.12
		c-0.247,0.111-0.357,0.401-0.246,0.648c0.002,0.004,0.004,0.008,0.006,0.012c1.078,2.3,2.349,4.505,3.8,6.59
		c1.41,2.1,2.94,4.11,4.5,6.08c3.183,3.903,6.589,7.619,10.2,11.13c1.78,1.767,3.61,3.487,5.49,5.16c1.86,1.69,3.79,3.31,5.75,4.89
		c3.892,3.247,8.123,6.063,12.62,8.4c0.318,0.111,0.666-0.056,0.777-0.374c0.076-0.218,0.023-0.46-0.137-0.626L776,601z"/>
	<path style="fill:#00AEE0;" d="M265.63,917.143c-0.04-2.267-0.04-4.53,0-6.79c0-2.26,0-4.54,0.12-6.77
		c0.022-0.749-0.456-1.423-1.17-1.65h-0.06l-10.08-3.15c-3.34-1.07-6.69-2.1-10-3.21s-6.58-2.3-9.79-3.58
		c-3.19-1.276-6.305-2.732-9.33-4.36h-0.08c-0.239-0.134-0.506-0.21-0.78-0.22c-0.981-0.028-1.802,0.739-1.84,1.72
		c-0.07,2-0.06,4-0.05,6.07s0.05,4,0.14,6.06s0.21,4.05,0.39,6.07c0.171,2.014,0.455,4.018,0.85,6
		c0.03,0.276,0.279,0.475,0.555,0.445s0.475-0.279,0.445-0.555c0-2,0.06-4,0.14-6s0.21-4,0.32-6l0.39-6l0.22-3.08
		c2.324,1.273,4.714,2.421,7.16,3.44c3.29,1.4,6.66,2.61,10,3.7s6.77,2.15,10.17,3.09c3,0.85,6,1.69,9,2.48
		c0.09,4.16,0.33,8.28,0.69,12.41c0.22,2.28,0.47,4.56,0.79,6.83s0.71,4.54,1.19,6.78c0.085,0.326,0.418,0.521,0.744,0.436
		c0.274-0.072,0.463-0.323,0.456-0.606l0,0C265.9,926.193,265.68,921.673,265.63,917.143z"/>
	<circle style="fill:#FFB400;" cx="795.28" cy="537.54" r="4.94"/>
	<circle style="fill:#FF3A00;" cx="831.51" cy="606.68" r="4.94"/>
	<circle style="fill:#FF3A00;" cx="892.79" cy="486.9" r="4.94"/>
	<circle style="fill:#FF3A00;" cx="763.61" cy="319.57" r="4.94"/>
	<circle style="fill:#FF3A00;" cx="660.98" cy="267.46" r="4.94"/>
	<path style="fill:#FFB400;" d="M797.06,514.22c-1.778-0.005-3.224,1.432-3.23,3.21s1.432,3.224,3.21,3.23s3.224-1.432,3.23-3.21
		c0-0.007,0-0.013,0-0.02C800.265,515.659,798.831,514.225,797.06,514.22z"/>
	<path style="fill:#FFB400;" d="M544.83,547.75c0,1.778,1.442,3.22,3.22,3.22s3.22-1.442,3.22-3.22s-1.442-3.22-3.22-3.22l0,0
		C546.272,544.53,544.83,545.972,544.83,547.75z"/>
	<circle style="fill:#FFB400;" cx="527.19" cy="791.62" r="3.22"/>
	<path style="fill:#FFB400;" d="M461.41,202.38c1.778,0,3.22-1.442,3.22-3.22s-1.442-3.22-3.22-3.22s-3.22,1.442-3.22,3.22
		c0,0.003,0,0.007,0,0.01C458.195,200.944,459.636,202.38,461.41,202.38z"/>
	<path style="fill:#FFB400;" d="M615.07,147.83c2.24-1.558,2.792-4.637,1.235-6.876c-1.558-2.24-4.637-2.793-6.876-1.235
		c-2.238,1.556-2.792,4.631-1.238,6.871c1.555,2.242,4.633,2.799,6.875,1.244C615.066,147.833,615.068,147.831,615.07,147.83z"/>
	<path style="fill:#FFB400;" d="M473.56,178.05c2.238-1.56,2.787-4.64,1.227-6.878s-4.64-2.787-6.878-1.227
		c-2.237,1.56-2.787,4.636-1.229,6.874c1.559,2.239,4.637,2.791,6.877,1.232C473.558,178.052,473.559,178.051,473.56,178.05z"/>
	<path style="fill:#FFB400;" d="M654.71,181.66c1.461-1.013,1.825-3.02,0.811-4.481s-3.02-1.825-4.481-0.811
		c-1.461,1.013-1.825,3.019-0.811,4.481l0.001,0.001C651.247,182.305,653.248,182.667,654.71,181.66z"/>
	<path style="fill:#FFB400;" d="M593.73,152c1.46-1.016,1.819-3.023,0.803-4.482c-1.016-1.46-3.023-1.819-4.482-0.803
		s-1.819,3.023-0.803,4.482c0.001,0.001,0.002,0.002,0.002,0.003c1.01,1.457,3.01,1.819,4.467,0.809
		C593.721,152.006,593.726,152.003,593.73,152z"/>
	<path style="fill:#FFB400;" d="M823.35,430.84c1.778,0,3.22-1.442,3.22-3.22s-1.442-3.22-3.22-3.22c-1.778,0-3.22,1.442-3.22,3.22
		c0,0.003,0,0.007,0,0.01C820.135,429.404,821.576,430.84,823.35,430.84z"/>
	<path style="fill:#FF3A00;" d="M820.13,631c-1.778,0-3.22,1.442-3.22,3.22s1.442,3.22,3.22,3.22s3.22-1.442,3.22-3.22l0,0
		C823.35,632.442,821.908,631,820.13,631z"/>
	<path style="fill:#FF3A00;" d="M828.52,592c0-1.778-1.442-3.22-3.22-3.22s-3.22,1.442-3.22,3.22s1.442,3.22,3.22,3.22l0,0
		C827.078,595.22,828.52,593.778,828.52,592z"/>
	<path style="fill:#FF3A00;" d="M874,477.59c-1.778,0-3.22,1.442-3.22,3.22s1.442,3.22,3.22,3.22c1.778,0,3.22-1.442,3.22-3.22
		c0-0.003,0-0.007,0-0.01C877.214,479.026,875.774,477.59,874,477.59z"/>
	<circle style="fill:#FF3A00;" cx="773.35" cy="341.43" r="3.22"/>
	<path style="fill:#FF3A00;" d="M670.32,239.43c-1.778,0-3.22,1.442-3.22,3.22s1.442,3.22,3.22,3.22c1.778,0,3.22-1.442,3.22-3.22
		c0-0.003,0-0.007,0-0.01C673.534,240.866,672.094,239.43,670.32,239.43z"/>
	<path style="fill:#FF3A00;" d="M776.57,272.25c1.778,0,3.22-1.442,3.22-3.22s-1.442-3.22-3.22-3.22c-1.778,0-3.22,1.442-3.22,3.22
		l0,0C773.35,270.808,774.792,272.25,776.57,272.25z"/>
	<path style="fill:#FFB400;" d="M720.35,379.68c2.728,0.019,4.955-2.177,4.975-4.905c0.019-2.728-2.177-4.955-4.905-4.975
		c-0.904-0.006-1.793,0.236-2.57,0.7l0,0v0.13c0.09,2.22,0.22,5.26,0.33,8.53C718.854,379.498,719.596,379.676,720.35,379.68z"/>
	<path style="fill:#FFB400;" d="M531.7,509c4.971,0,9-4.029,9-9s-4.029-9-9-9s-9,4.029-9,9S526.729,509,531.7,509z"/>
	<path style="fill:#FF3A00;" d="M769.23,716.42c-4.971,0-9,4.029-9,9s4.029,9,9,9s9-4.029,9-9l0,0
		C778.23,720.449,774.201,716.42,769.23,716.42z"/>
	<path style="fill:#FFB400;" d="M544.28,832.11c-4.971,0-9,4.029-9,9s4.029,9,9,9s9-4.029,9-9l0,0
		C553.28,836.139,549.251,832.11,544.28,832.11z"/>
	<path style="fill:#FF3A00;" d="M292,689.54c0-4.971-4.029-9-9-9s-9,4.029-9,9s4.029,9,9,9l0,0
		C287.971,698.54,292,694.511,292,689.54z"/>
	<path style="fill:#FF3A00;" d="M271.14,501.43c4.971,0,9-4.029,9-9s-4.029-9-9-9s-9,4.029-9,9S266.169,501.43,271.14,501.43z"/>
	<circle style="fill:#FFB400;" cx="548.05" cy="475.23" r="4.94"/>
	<circle style="fill:#FFB400;" cx="380.32" cy="442.44" r="4.94"/>
	<path style="fill:#FFB400;" d="M557.69,573c2.728,0,4.94-2.212,4.94-4.94s-2.212-4.94-4.94-4.94s-4.94,2.212-4.94,4.94
		S554.962,573,557.69,573L557.69,573z"/>
	<circle style="fill:#FF3A00;" cx="731.89" cy="777.7" r="4.94"/>
	<circle style="fill:#FF3A00;" cx="743.11" cy="725.94" r="4.94"/>
	<circle style="fill:#FFB400;" cx="741.49" cy="597.35" r="4.94"/>
	<circle style="fill:#FFB400;" cx="523.98" cy="861.68" r="4.94"/>
	<path style="fill:#FF3A00;" d="M261.26,721.47c-2.728,0-4.94,2.212-4.94,4.94s2.212,4.94,4.94,4.94s4.94-2.212,4.94-4.94
		c0-0.003,0-0.007,0-0.01c0-2.723-2.207-4.93-4.93-4.93C261.267,721.47,261.263,721.47,261.26,721.47z"/>
	<circle style="fill:#FF3A00;" cx="280.16" cy="435.78" r="4.94"/>
	<circle style="fill:#FF3A00;" cx="292.04" cy="762.81" r="4.94"/>
	<circle style="fill:#FF3A00;" cx="288.47" cy="512.21" r="4.94"/>
	<path style="fill:#FFB400;" d="M724.44,634.23c4.984,0,9.025-4.041,9.025-9.025s-4.041-9.025-9.025-9.025
		c-1.42,0.003-2.819,0.346-4.08,1h-0.06c0,4.22,0.05,10.21,0.06,15.42v0.62C721.62,633.878,723.019,634.225,724.44,634.23z"/>
	<path style="fill:#FF3A00;" d="M269.66,667.5c-1.778,0-3.22,1.442-3.22,3.22c0,1.778,1.442,3.22,3.22,3.22s3.22-1.442,3.22-3.22
		l0,0C272.88,668.942,271.438,667.5,269.66,667.5z"/>
	<path style="fill:none;" d="M437.85,822L437.85,822c-0.25,0.06-0.5,0.14-0.76,0.22L437.85,822z"/>
	<path style="fill:#FF3A00;" d="M377.1,656.33c-0.039-0.679-0.621-1.199-1.3-1.16s-1.199,0.621-1.16,1.3l0,0
		c0,14.7,1.13,29.08-4.4,40.75v0.06c0,0,6.53-8.15,7.79-12.72l0,0C378.384,675.14,378.073,665.706,377.1,656.33z"/>
	<path style="fill:#FF3A00;" d="M447.76,718.63c0.338-0.498,0.209-1.176-0.29-1.514c-0.372-0.252-0.86-0.251-1.23,0.004
		c-2.854,2.01-5.558,4.226-8.09,6.63c1.579,0.855,3.052,1.892,4.39,3.09L447.76,718.63z"/>
	<path style="fill:#FF3A00;" d="M493.81,742h0.05c0.526-0.293,0.993-0.679,1.38-1.14c0.322-0.376,0.582-0.802,0.77-1.26
		c0.201-0.449,0.294-0.939,0.27-1.43c-0.04-0.651-0.247-1.281-0.6-1.83l0,0c-0.18-0.304-0.534-0.461-0.88-0.39
		c-1.248,0.211-2.248,1.148-2.54,2.38c-0.147,0.527-0.195,1.076-0.14,1.62c0.051,0.634,0.25,1.247,0.58,1.79
		C492.945,742.103,493.429,742.216,493.81,742z"/>
	<path style="fill:#FF3A00;" d="M505.59,762.6l-0.07-0.12c-0.705-1.271-1.278-2.612-1.71-4c-0.414-1.361-0.725-2.752-0.93-4.16
		l-0.15-1.06l-0.1-1.09c-0.12-0.71-0.12-1.45-0.23-2.2s-0.14-1.5-0.28-2.28c-0.067-0.818-0.208-1.628-0.42-2.42l0,0
		c-0.036-0.117-0.11-0.219-0.21-0.29c-0.243-0.17-0.578-0.112-0.75,0.13c-0.471,0.722-0.87,1.489-1.19,2.29
		c-0.279,0.806-0.5,1.632-0.66,2.47c-0.265,1.703-0.228,3.44,0.11,5.13c0.316,1.746,0.961,3.415,1.9,4.92
		c0.942,1.544,2.31,2.784,3.94,3.57l0,0c0.16,0.069,0.34,0.069,0.5,0l0,0c0.31-0.159,0.432-0.538,0.274-0.848
		C505.606,762.628,505.598,762.614,505.59,762.6z"/>
	<path style="fill:#FF3A00;" d="M519.39,762.05l-0.07-0.08c-1.088-1.159-2.09-2.396-3-3.7c-0.863-1.259-1.645-2.571-2.34-3.93
		c-0.31-0.7-0.68-1.37-1-2.08s-0.62-1.42-0.94-2.14s-0.6-1.47-1-2.21c-0.325-0.793-0.706-1.561-1.14-2.3l0,0
		c-0.066-0.113-0.174-0.196-0.3-0.23c-0.275-0.082-0.565,0.074-0.647,0.35c-0.001,0.003-0.002,0.007-0.003,0.01
		c-0.24,0.875-0.387,1.774-0.44,2.68c-0.027,0.9,0.027,1.8,0.16,2.69c0.291,1.802,0.89,3.541,1.77,5.14
		c0.903,1.606,2.066,3.052,3.44,4.28c1.385,1.245,3.053,2.13,4.86,2.58c0.165,0.028,0.335-0.011,0.47-0.11h0.07l0.08-0.1
		C519.593,762.669,519.607,762.297,519.39,762.05z"/>
	<path style="fill:#FF3A00;" d="M342.06,717c0.234-0.639,0.313-1.325,0.23-2c-0.087-0.744-0.401-1.442-0.9-2
		c-0.565-0.631-1.397-0.955-2.24-0.87c-0.325,0.042-0.583,0.295-0.63,0.62v0.12c-0.14,0.87-0.2,1.31-0.25,1.73
		c-0.031,0.374,0.009,0.751,0.12,1.11c0.109,0.42,0.249,0.831,0.42,1.23c0.208,0.516,0.469,1.009,0.78,1.47l0.05,0.07l0.1,0.15l0,0
		c0.241,0.33,0.704,0.403,1.034,0.162c0.005-0.004,0.011-0.008,0.016-0.012c0.186-0.142,0.357-0.303,0.51-0.48
		C341.641,717.924,341.9,717.481,342.06,717z"/>
	<path style="fill:#FF3A00;" d="M485.31,632.91c-0.653-0.473-1.566-0.327-2.039,0.326c-0.384,0.53-0.368,1.251,0.039,1.764
		c4.977,6.863,8.611,14.606,10.71,22.82c0.14,0.57,0.2,0.89,0.2,0.89l0.41-18.25l0,0C491.776,637.647,488.654,635.118,485.31,632.91
		z"/>
	<path style="fill:#FF3A00;" d="M360.21,801.61c-2.431-1.764-5.177-3.047-8.09-3.78c0.177,1.491,0.547,2.954,1.1,4.35
		c2.153,0.016,4.298,0.258,6.4,0.72c0.385,0.101,0.778-0.13,0.879-0.514C360.575,802.092,360.46,801.782,360.21,801.61z"/>
	<path style="fill:#FF3A00;" d="M445.54,819.71c-3.049-1.385-6.361-2.094-9.71-2.08c0.699,1.468,1.54,2.865,2.51,4.17l0,0
		c2.268-0.507,4.587-0.748,6.91-0.72c0.402-0.031,0.702-0.383,0.671-0.785C445.901,820.048,445.758,819.828,445.54,819.71z"/>
</g>
<g>
	<path style="fill:#04294F;" d="M575.68,613.93c-1.235-1.83-3.719-2.313-5.55-1.08c-14,9.44-21.23,24-21.55,43.35
		c-0.31,18.8-5.39,31.09-11.32,39.09c-0.579,4.782-1.451,9.524-2.61,14.2c10-7.93,21.44-23.47,21.93-53.16
		c0.27-16.56,6.34-29,18-36.85c1.836-1.228,2.329-3.712,1.101-5.549L575.68,613.93z"/>
	<path style="fill:#04294F;" d="M481.42,602.62c2.23,0.9,4.4,1.86,6.53,2.88c1.767-2.117,3.359-4.375,4.76-6.75
		c8.48-14.45,7-28.85,2.83-37.5c-5.73-11.82-15.92-42.55,13-72.59c17.42-18.11,16.52-40.1,10.46-53.43
		c-0.86-2.035-3.207-2.987-5.242-2.126c-2.035,0.86-2.987,3.207-2.126,5.242c0.028,0.066,0.057,0.13,0.088,0.194
		c5,11,5.69,29.35-8.95,44.57c-32.38,33.67-20.87,68.3-14.41,81.62c3.14,6.49,4.36,18.23-2.53,30c-1.572,2.649-3.43,5.117-5.54,7.36
		l1.16,0.55L481.42,602.62z"/>
	<path style="fill:#FFFFFF;" d="M527,640.57c-8.65-14.9-22.28-27-39-35.07c-2.13-1-4.3-2-6.53-2.88l0,0l-1.16-0.55
		c-12.31-5.83-15.1-5.65-12.92-57.46c2.24-53.39-28.14-87.56-78.42-79.69s-53.81,57.82-43.34,81.78
		c4.318,9.816,9.286,19.334,14.87,28.49c3.18-11.86,10.55-23.06,19.34-24.71c12.21-2.29,36.37,21,38.3,35.68
		c2,15.18-15.49,19.78-30.78,20.44c-5.01,0.346-10.044-0.044-14.94-1.16c-0.983,1.36-2.231,2.507-3.67,3.37l0,0
		c-6.89,4.28-11.13,9.53-11.12,15.77c0,0.11,0,0.22,0,0.33c0,0.42,0.03,0.84,0.09,1.26l0,0c3,24.49,1.7,41.44-6.95,54
		c2.27-0.17,4.55,0.172,6.67,1c2.351,0.929,4.488,2.328,6.28,4.11c1.772,1.78,3.185,3.885,4.16,6.2
		c0.973,2.321,1.361,4.844,1.13,7.35c0.44-0.52,0.86-1,1.27-1.57c5.53-11.67,4.43-26.05,4.4-40.75
		c-0.039-0.679,0.481-1.261,1.16-1.3c0.679-0.039,1.261,0.481,1.3,1.16c0.969,9.373,1.276,18.803,0.92,28.22l0,0
		c-0.62,13.46-2.75,25.29-6.58,29.7c-0.244,0.291-0.467,0.599-0.67,0.92c-1.24,1.65-2.45,3.32-3.59,5.05
		c-5.953,9.072-10.47,19.009-13.39,29.46c-2.959,10.466-4.252,21.332-3.83,32.2c0.272,6.857,1.357,13.658,3.23,20.26
		c-8.284-0.021-15.017,6.678-15.038,14.962s6.678,15.017,14.962,15.038c3.06,0.008,6.048-0.92,8.566-2.66l8.86-6l6-4.07
		c5.273-3.585,7.074-10.523,4.21-16.22v-0.07c-3.322-6.988-5.145-14.595-5.35-22.33c-0.322-8.185,0.65-16.369,2.88-24.25
		c2.212-7.919,5.629-15.45,10.13-22.33c2.807-4.231,6.023-8.177,9.6-11.78l0,0h0.05l0.56-0.55c6.51-5.55,30.53-3,39.51,1.94
		c2.532-2.404,5.236-4.62,8.09-6.63c0.496-0.341,1.174-0.216,1.516,0.28c0.255,0.37,0.256,0.859,0.004,1.23
		c-3.9,5.67-7.48,12.07-8.48,13.91c-1,2.07-2,4.17-2.92,6.3c-4.167,10.022-6.761,20.627-7.69,31.44
		c-0.96,10.844-0.2,21.772,2.25,32.38c1.19,5.135,2.833,10.155,4.91,15c3.349-0.014,6.661,0.695,9.71,2.08
		c0.365,0.172,0.52,0.607,0.348,0.972c-0.12,0.255-0.376,0.417-0.658,0.418c-2.491-0.041-4.978,0.235-7.4,0.82l0,0l-0.78,0.18
		c-1.426,0.408-2.801,0.975-4.1,1.69c-7.16,4.166-9.587,13.349-5.421,20.509c4.166,7.16,13.349,9.587,20.509,5.421
		c1.18-0.687,2.26-1.531,3.212-2.51l7.58-7.56l5.14-5.12c4.518-4.501,5.001-11.652,1.13-16.72v-0.06
		c-4.557-6.253-7.759-13.389-9.4-20.95c-1.86-8.011-2.441-16.267-1.72-24.46c0.702-8.192,2.665-16.227,5.82-23.82
		c3.185-7.544,7.527-14.545,12.87-20.75l0.05-0.06c0.388-0.457,0.743-0.941,1.06-1.45c14.609-19.765,21.776-44.05,20.24-68.58
		c-2.096-8.213-5.726-15.956-10.7-22.82c-0.501-0.632-0.395-1.55,0.236-2.051c0.513-0.407,1.234-0.423,1.764-0.039
		c3.354,2.201,6.485,4.722,9.35,7.53l0,0c4.041,3.78,7.513,8.125,10.31,12.9c8.59,14.8,9.95,32.76,4.11,53.43
		c1.56-0.75,3.232-1.239,4.95-1.45c2.511-0.28,5.053-0.045,7.47,0.69c2.402,0.742,4.637,1.944,6.58,3.54
		c2.008,1.649,3.566,3.778,4.53,6.19c0.07,0.17,0.12,0.36,0.19,0.54c0.667-2.307,1.287-4.57,1.86-6.79
		c1.159-4.676,2.031-9.418,2.61-14.2C540.2,670.66,533.85,652.45,527,640.57z M371.54,547.21c-0.831,1.197-1.892,2.216-3.12,3
		c-1.242,0.793-2.588,1.409-4,1.83c-1.386,0.41-2.81,0.678-4.25,0.8c-1.456,0.116-2.919,0.092-4.37-0.07
		c-1.066-0.141-1.831-1.099-1.73-2.17v-0.13c0.343-2.357,0.48-4.739,0.41-7.12c0-1.23-0.06-2.48-0.09-3.74s-0.09-2.53-0.11-3.8l0,0
		c-0.011-0.331,0.248-0.609,0.58-0.62c0.007,0,0.014,0,0.02,0c0.249-0.01,0.478,0.133,0.58,0.36c0.534,1.197,0.981,2.43,1.34,3.69
		c0.372,1.255,0.672,2.531,0.9,3.82c0.36,1.935,0.517,3.902,0.47,5.87c0.58,0,1.18,0,1.75,0c1.24,0,2.47-0.16,3.7-0.31
		c1.224-0.173,2.436-0.421,3.63-0.74c1.223-0.369,2.417-0.83,3.57-1.38l0,0c0.25-0.118,0.548-0.01,0.665,0.24
		c0.002,0.003,0.003,0.007,0.005,0.01C371.576,546.888,371.595,547.057,371.54,547.21z M414.54,542.96
		c-1.455,0.119-2.919,0.099-4.37-0.06c-1.066-0.141-1.831-1.099-1.73-2.17v-0.12l0,0c0.348-2.356,0.485-4.739,0.41-7.12
		c0-1.24-0.06-2.49-0.09-3.75s-0.09-2.53-0.11-3.8l0,0c-0.011-0.337,0.253-0.619,0.59-0.63c0.003,0,0.007,0,0.01,0
		c0.247-0.002,0.472,0.138,0.58,0.36c0.532,1.197,0.98,2.43,1.34,3.69c0.371,1.256,0.671,2.531,0.9,3.82
		c0.359,1.938,0.517,3.909,0.47,5.88c0.58,0,1.18,0,1.75,0c1.24,0,2.47-0.16,3.7-0.31c1.225-0.168,2.437-0.415,3.63-0.74
		c1.224-0.371,2.421-0.829,3.58-1.37l0,0c0.258-0.114,0.559,0.003,0.673,0.26c0.071,0.16,0.054,0.344-0.043,0.49
		c-0.831,1.197-1.892,2.216-3.12,3c-1.242,0.793-2.588,1.409-4,1.83c-1.374,0.4-2.784,0.662-4.21,0.78L414.54,542.96z"/>
	<path style="fill:#FFFFFF;" d="M358.21,707.28l0.07-0.06c1.485-1.098,2.762-2.453,3.77-4c0.885-1.393,1.376-3,1.42-4.65
		c-0.048-3.449-1.491-6.732-4-9.1c-2.318-2.501-5.591-3.897-9-3.84c-1.696,0.13-3.333,0.684-4.76,1.61
		c-1.601,1.052-3.051,2.317-4.31,3.76l-0.07,0.08c-0.514,0.545-1.319,0.702-2,0.39c-2.656,1.86-5.44,3.53-8.33,5
		c-2.5,1.14-5,1.58-10.08,3.76l0,0c-7.41,3.07-14.5,9.14-16,16c-0.697,3.151,1.275,6.275,4.42,7c0,0,0,0,0-0.08
		c0.161-1.945,0.669-3.845,1.5-5.61c0.811-1.778,1.875-3.428,3.16-4.9c0.645-0.743,1.34-1.442,2.08-2.09
		c0.761-0.633,1.577-1.195,2.44-1.68c1.709-1.001,3.632-1.58,5.61-1.69c0.287-0.017,0.533,0.202,0.55,0.488c0,0.001,0,0.001,0,0.002
		c0.007,0.143-0.043,0.284-0.14,0.39l0,0c-1.35,1.4-2.71,2.42-3.93,3.64s-2.46,2.31-3.6,3.56s-2.25,2.55-3.32,3.93
		s-2.09,2.83-3.16,4.29l0,0c-0.161,0.211-0.437,0.299-0.69,0.22c-0.661,2.01-1.054,4.098-1.17,6.21
		c-0.188,3.236,2.284,6.012,5.52,6.2h0.34c1.601-0.005,3.13-0.667,4.23-1.83c-0.082-0.058-0.15-0.133-0.2-0.22
		c-1.07-2.138-1.547-4.525-1.38-6.91c0.125-2.388,0.716-4.729,1.74-6.89c1.015-2.131,2.396-4.067,4.08-5.72
		c0.845-0.789,1.747-1.515,2.7-2.17c0.973-0.616,1.997-1.148,3.06-1.59c0.259-0.112,0.559,0.007,0.671,0.266
		c0.065,0.151,0.054,0.323-0.03,0.464l0,0c-0.577,0.939-1.208,1.844-1.89,2.71c-0.58,0.9-1.25,1.71-1.82,2.58s-1.18,1.67-1.67,2.56
		c-0.544,0.84-1.045,1.708-1.5,2.6c-0.895,1.783-1.596,3.657-2.09,5.59c-0.492,1.992-0.727,4.038-0.7,6.09v0.09
		c-0.003,0.227-0.129,0.434-0.33,0.54c1.036,1.845,2.984,2.99,5.1,3h0.33c3.232-0.183,5.706-2.948,5.53-6.18
		c-0.32-5.75,4-10.07,9.31-12.79c-0.311-0.461-0.572-0.954-0.78-1.47c-0.171-0.399-0.311-0.81-0.42-1.23
		c-0.111-0.359-0.151-0.736-0.12-1.11c0.05-0.42,0.11-0.86,0.25-1.73v-0.12c0.047-0.325,0.305-0.578,0.63-0.62
		c0.843-0.085,1.675,0.239,2.24,0.87c0.499,0.558,0.813,1.256,0.9,2c0.083,0.675,0.004,1.361-0.23,2
		c-0.168,0.46-0.426,0.882-0.76,1.24c0.089,0.82-0.003,1.649-0.27,2.43c-1.302,2.963,0.04,6.421,3,7.73
		c2.963,1.302,6.421-0.04,7.73-3c1.157-2.927,1.533-6.104,1.09-9.22v-0.06c-0.13-2.36,0.83-3.49,2.66-4.9
		c0.24-0.17,0.46-0.35,0.69-0.52l0.95-0.69l0.07-0.09c0.17-0.12,0.32-0.25,0.48-0.38l-0.06-0.11
		C357.435,708.605,357.632,707.788,358.21,707.28z"/>
	<path style="fill:#04294F;" d="M422.72,540.34c1.228-0.784,2.289-1.803,3.12-3c0.157-0.234,0.094-0.551-0.14-0.707
		c-0.145-0.097-0.33-0.113-0.49-0.043l0,0c-1.168,0.556-2.374,1.027-3.61,1.41c-1.193,0.325-2.405,0.572-3.63,0.74
		c-1.23,0.15-2.46,0.27-3.7,0.31c-0.57,0-1.17,0-1.75,0c0.047-1.971-0.111-3.942-0.47-5.88c-0.229-1.289-0.529-2.564-0.9-3.82
		c-0.36-1.26-0.808-2.493-1.34-3.69c-0.108-0.222-0.333-0.362-0.58-0.36c-0.337,0.005-0.606,0.283-0.6,0.62c0,0.003,0,0.007,0,0.01
		l0,0c0,1.27,0.07,2.55,0.11,3.8s0.08,2.51,0.09,3.75c0.075,2.381-0.062,4.764-0.41,7.12l0,0v0.12
		c-0.101,1.071,0.664,2.029,1.73,2.17c1.451,0.159,2.915,0.179,4.37,0.06c1.44-0.119,2.864-0.384,4.25-0.79
		C420.164,541.737,421.493,541.125,422.72,540.34z"/>
	<path style="fill:#04294F;" d="M370.91,546.47L370.91,546.47c-1.153,0.55-2.347,1.011-3.57,1.38
		c-1.194,0.319-2.406,0.567-3.63,0.74c-1.23,0.15-2.46,0.27-3.7,0.31c-0.57,0-1.17,0-1.75,0c0.047-1.968-0.11-3.935-0.47-5.87
		c-0.228-1.289-0.528-2.565-0.9-3.82c-0.359-1.26-0.806-2.493-1.34-3.69c-0.102-0.227-0.331-0.37-0.58-0.36
		c-0.331,0-0.6,0.268-0.6,0.6c0,0.007,0,0.014,0,0.02l0,0c0,1.27,0.06,2.54,0.11,3.8s0.08,2.51,0.09,3.74
		c0.07,2.381-0.067,4.763-0.41,7.12v0.13c-0.101,1.071,0.664,2.029,1.73,2.17c1.451,0.162,2.914,0.186,4.37,0.07
		c1.44-0.122,2.864-0.39,4.25-0.8c1.412-0.422,2.758-1.037,4-1.83c1.228-0.784,2.289-1.803,3.12-3c0.08-0.154,0.08-0.336,0-0.49
		c-0.113-0.252-0.409-0.365-0.661-0.251C370.949,546.448,370.929,546.458,370.91,546.47z"/>
	<path style="fill:#FF3A00;" d="M319.63,733.8v-0.09c-0.027-2.052,0.208-4.098,0.7-6.09c0.494-1.933,1.195-3.807,2.09-5.59
		c0.455-0.892,0.956-1.76,1.5-2.6c0.49-0.89,1.12-1.69,1.67-2.56s1.24-1.68,1.82-2.58c0.682-0.866,1.313-1.771,1.89-2.71l0,0
		c0.145-0.242,0.066-0.555-0.176-0.7c-0.141-0.084-0.314-0.096-0.464-0.03c-1.063,0.442-2.087,0.974-3.06,1.59
		c-0.953,0.655-1.855,1.381-2.7,2.17c-1.684,1.653-3.065,3.589-4.08,5.72c-1.024,2.161-1.615,4.502-1.74,6.89
		c-0.167,2.385,0.31,4.772,1.38,6.91c0.05,0.087,0.118,0.162,0.2,0.22c0.105,0.068,0.226,0.106,0.35,0.11
		c0.095-0.005,0.187-0.033,0.27-0.08C319.501,734.273,319.639,734.046,319.63,733.8z"/>
	<path style="fill:#FF3A00;" d="M310.45,723.5L310.45,723.5c1.07-1.46,2.09-2.93,3.16-4.29s2.17-2.69,3.32-3.93s2.35-2.41,3.6-3.56
		s2.58-2.24,3.93-3.64l0,0c0.097-0.106,0.147-0.247,0.14-0.39c-0.016-0.287-0.262-0.506-0.548-0.49c-0.001,0-0.001,0-0.002,0
		c-1.978,0.11-3.901,0.689-5.61,1.69c-0.863,0.485-1.679,1.047-2.44,1.68c-0.74,0.648-1.435,1.347-2.08,2.09
		c-1.285,1.472-2.349,3.122-3.16,4.9c-0.831,1.765-1.339,3.665-1.5,5.61c0,0,0,0,0,0.08c0.005,0.182,0.093,0.352,0.24,0.46
		l0.18,0.09C309.976,723.906,310.304,723.778,310.45,723.5z"/>
	<path style="fill:#00AEE0;" d="M387.32,606.6c15.29-0.66,32.78-5.26,30.78-20.44c-1.93-14.7-26.09-38-38.3-35.68
		c-8.79,1.65-16.16,12.85-19.34,24.71c-1.228,4.411-1.784,8.983-1.65,13.56c0.045,3.23,0.909,6.395,2.51,9.2l1.33-0.81
		c-0.29-0.915-0.438-1.87-0.44-2.83c0-5.12,4.15-9.27,9.27-9.27s9.27,4.15,9.27,9.27s-4.15,9.27-9.27,9.27
		c-1.081-0.004-2.153-0.194-3.17-0.56l-0.88,0.55c1.574,0.809,3.234,1.437,4.95,1.87C377.276,606.556,382.31,606.946,387.32,606.6z
		 M392.61,567.24c0.283-0.143,0.617-0.143,0.9,0c2.374,1.277,4.558,2.879,6.49,4.76c1.958,1.847,3.709,3.903,5.22,6.13
		c1.576,2.244,2.806,4.711,3.65,7.32c0.923,2.698,1.082,5.598,0.46,8.38c-0.105,0.418-0.53,0.671-0.947,0.565
		c-0.018-0.004-0.035-0.01-0.053-0.015c-0.199-0.05-0.369-0.181-0.47-0.36l0,0c-1.35-2.31-2.54-4.33-3.82-6.4l-3.81-6.18l-4-6.25
		c-1.35-2.11-2.71-4.25-4-6.58l0,0c-0.274-0.479-0.108-1.09,0.371-1.365C392.604,567.243,392.607,567.242,392.61,567.24
		L392.61,567.24z M388.93,582.58c0.192-0.059,0.398-0.059,0.59,0c1.558,0.446,3.015,1.19,4.29,2.19
		c1.254,0.962,2.365,2.096,3.3,3.37c0.993,1.295,1.72,2.773,2.14,4.35c0.49,1.717,0.369,3.551-0.34,5.19
		c-0.21,0.438-0.736,0.623-1.174,0.413c-0.002-0.001-0.004-0.002-0.006-0.003c-0.078-0.038-0.149-0.089-0.21-0.15l-0.08-0.07
		c-1.067-0.977-2.069-2.022-3-3.13c-0.831-1.018-1.592-2.09-2.28-3.21c-0.71-1.12-1.41-2.28-2.08-3.52
		c-0.728-1.306-1.337-2.675-1.82-4.09l0,0c-0.206-0.512,0.042-1.095,0.554-1.301C388.852,582.603,388.891,582.591,388.93,582.58
		L388.93,582.58z"/>
	<path style="fill:#FFFFFF;" d="M527,728.06v-0.09c0.795-1.66,1.289-3.448,1.46-5.28c0.132-1.646-0.183-3.297-0.91-4.78
		c-1.665-3.027-4.487-5.25-7.82-6.16c-3.229-1.13-6.787-0.828-9.78,0.83c-1.442,0.903-2.629,2.16-3.45,3.65
		c-0.904,1.664-1.577,3.444-2,5.29v0.1c-0.148,0.565-0.568,1.019-1.12,1.21c-0.85,2-1.51,3.44-2.26,4.92
		c-0.12,0.085-0.233,0.179-0.34,0.28c-2.336,2.016-5.48,2.826-8.5,2.19c-3.181-0.63-6.27,1.439-6.9,4.62s1.439,6.27,4.62,6.9l0,0
		c1.135,0.217,2.285,0.351,3.44,0.4c-2.47,6.806-1.924,14.341,1.5,20.72c1.031,1.887,3.01,3.06,5.16,3.06
		c0.979,0.001,1.943-0.247,2.8-0.72c0.79-0.417,1.474-1.009,2-1.73l0,0c-1.63-0.786-2.998-2.026-3.94-3.57
		c-0.958-1.494-1.623-3.157-1.96-4.9c-0.331-1.702-0.358-3.449-0.08-5.16c0.16-0.838,0.381-1.664,0.66-2.47
		c0.32-0.801,0.719-1.568,1.19-2.29c0.172-0.242,0.507-0.3,0.75-0.13c0.1,0.071,0.174,0.173,0.21,0.29l0,0
		c0.212,0.792,0.353,1.602,0.42,2.42c0.14,0.78,0.2,1.54,0.28,2.28s0.11,1.49,0.23,2.2l0.1,1.09l0.15,1.06
		c0.205,1.408,0.516,2.799,0.93,4.16c0.432,1.388,1.005,2.729,1.71,4l0.07,0.12c0.145,0.284,0.055,0.632-0.21,0.81
		c1.161,2.289,2.661,4.389,4.45,6.23c2.233,2.335,5.936,2.418,8.271,0.185c1.861-1.78,2.34-4.567,1.179-6.865
		c-0.135,0.099-0.305,0.138-0.47,0.11c-1.807-0.45-3.475-1.335-4.86-2.58c-1.374-1.228-2.537-2.674-3.44-4.28
		c-0.88-1.599-1.479-3.338-1.77-5.14c-0.133-0.89-0.187-1.79-0.16-2.69c0.053-0.906,0.2-1.805,0.44-2.68
		c0.076-0.277,0.363-0.439,0.64-0.363c0.004,0.001,0.007,0.002,0.01,0.003c0.126,0.034,0.234,0.117,0.3,0.23l0,0
		c0.434,0.739,0.815,1.507,1.14,2.3c0.39,0.74,0.64,1.5,1,2.21s0.6,1.45,0.94,2.14s0.65,1.38,1,2.08
		c0.695,1.359,1.477,2.671,2.34,3.93c0.91,1.304,1.912,2.541,3,3.7l0.07,0.08c0.179,0.226,0.179,0.544,0,0.77
		c0.55,0.45,1.14,0.87,1.74,1.27c2.714,1.773,6.352,1.009,8.125-1.705s1.009-6.352-1.705-8.125c-4.54-3-5.6-8.53-4.91-14.07
		c0.81-6,2.3-7.18,4.42-10.42C526.843,729.212,526.784,728.6,527,728.06z M492.72,741.68c-0.33-0.543-0.529-1.156-0.58-1.79
		c-0.055-0.544-0.007-1.093,0.14-1.62c0.292-1.232,1.292-2.169,2.54-2.38c0.346-0.071,0.7,0.086,0.88,0.39l0,0
		c0.353,0.549,0.56,1.179,0.6,1.83c0.024,0.491-0.069,0.981-0.27,1.43c-0.188,0.458-0.448,0.884-0.77,1.26
		c-0.387,0.461-0.854,0.847-1.38,1.14h-0.05c-0.39,0.242-0.902,0.126-1.15-0.26L492.72,741.68L492.72,741.68z"/>
	<path style="fill:#04294F;" d="M528.07,709.55c-1.943-1.596-4.178-2.798-6.58-3.54c-2.417-0.735-4.959-0.97-7.47-0.69
		c-1.718,0.211-3.39,0.701-4.95,1.45c-0.788,0.384-1.535,0.847-2.23,1.38c-2.056,1.559-3.641,3.656-4.58,6.06
		c-0.84,2.237-1.257,4.611-1.23,7c0.005,0.789,0.537,1.477,1.3,1.68c0.327,0.093,0.673,0.093,1,0c0.552-0.191,0.972-0.645,1.12-1.21
		v-0.1c0.423-1.846,1.096-3.626,2-5.29c0.821-1.49,2.008-2.747,3.45-3.65c2.993-1.658,6.551-1.96,9.78-0.83
		c3.333,0.91,6.155,3.133,7.82,6.16c0.727,1.483,1.042,3.134,0.91,4.78c-0.159,1.819-0.636,3.596-1.41,5.25v0.09
		c-0.319,0.755-0.103,1.63,0.53,2.15c0.785,0.621,1.924,0.492,2.55-0.29c1.533-1.9,2.617-4.122,3.17-6.5
		c0.515-2.374,0.37-4.843-0.42-7.14c-0.07-0.18-0.12-0.37-0.19-0.54C531.669,713.343,530.096,711.202,528.07,709.55z"/>
	<path style="fill:#04294F;" d="M367.84,691.44c-0.975-2.315-2.388-4.42-4.16-6.2c-1.792-1.782-3.929-3.181-6.28-4.11
		c-2.12-0.828-4.4-1.17-6.67-1c-0.33,0-0.67,0.07-1,0.13c-2.548,0.414-4.93,1.529-6.88,3.22c-1.783,1.576-3.255,3.472-4.34,5.59
		c-0.371,0.697-0.223,1.557,0.36,2.09c0.132,0.117,0.28,0.215,0.44,0.29c0.681,0.312,1.486,0.155,2-0.39l0.07-0.08
		c1.242-1.432,2.671-2.69,4.25-3.74c1.427-0.926,3.064-1.48,4.76-1.61c3.409-0.057,6.682,1.339,9,3.84
		c2.509,2.368,3.952,5.651,4,9.1c-0.044,1.65-0.535,3.257-1.42,4.65c-1.008,1.547-2.285,2.902-3.77,4l-0.07,0.06
		c-0.646,0.512-0.868,1.394-0.54,2.15l0.06,0.11c0.44,0.843,1.456,1.205,2.33,0.83c2.245-0.958,4.242-2.415,5.84-4.26
		c1.746-2,2.853-4.476,3.18-7.11c0-0.08,0-0.16,0-0.24C369.216,696.262,368.818,693.749,367.84,691.44z"/>
	<path style="fill:#04294F;" d="M371.48,603.58c5.12,0,9.27-4.15,9.27-9.27s-4.15-9.27-9.27-9.27s-9.27,4.15-9.27,9.27
		c0.002,0.96,0.15,1.915,0.44,2.83l-1.33,0.81c-20.66,12.18-38.16,8.51-48.21,0.27c-10.62-8.71-13.66-22.41-7.74-34.9
		c16.25-34.26,20.26-45.57,5.21-77.55c-13.47-28.62,3.57-58.94,3.75-59.24c1.105-1.914,0.449-4.36-1.465-5.465
		s-4.36-0.449-5.465,1.465l0,0c-0.8,1.38-19.34,34.18-4.06,66.65c13.59,28.89,10.42,37.76-5.2,70.72
		c-7.505,15.327-3.395,33.809,9.9,44.51c7.706,6.158,17.306,9.458,27.17,9.34c0.49,0,1,0,1.49,0c10.08-0.31,20.59-3.81,30.73-10.16
		l0.88-0.55C369.328,603.399,370.4,603.582,371.48,603.58z"/>
	<path style="fill:#04294F;" d="M392.24,568.54c1.28,2.33,2.64,4.47,4,6.58l4,6.25l3.81,6.18c1.28,2.07,2.47,4.09,3.82,6.4l0,0
		c0.101,0.179,0.271,0.31,0.47,0.36c0.409,0.135,0.85-0.088,0.985-0.497c0.006-0.017,0.011-0.035,0.015-0.053
		c0.622-2.782,0.463-5.682-0.46-8.38c-0.844-2.609-2.074-5.076-3.65-7.32c-1.519-2.203-3.272-4.235-5.23-6.06
		c-1.933-1.874-4.117-3.469-6.49-4.74c-0.466-0.241-1.039-0.059-1.28,0.407c-0.145,0.281-0.142,0.616,0.01,0.893L392.24,568.54z"/>
	<path style="fill:#04294F;" d="M388.29,583.9c0.483,1.415,1.092,2.784,1.82,4.09c0.67,1.24,1.37,2.4,2.08,3.52
		c0.688,1.12,1.449,2.192,2.28,3.21c0.931,1.108,1.933,2.153,3,3.13l0.08,0.07c0.061,0.061,0.132,0.112,0.21,0.15
		c0.437,0.214,0.964,0.033,1.177-0.404c0.001-0.002,0.002-0.004,0.003-0.006c0.709-1.639,0.83-3.473,0.34-5.19
		c-0.42-1.577-1.147-3.055-2.14-4.35c-0.935-1.274-2.046-2.408-3.3-3.37c-1.275-1-2.732-1.744-4.29-2.19
		c-0.192-0.059-0.398-0.059-0.59,0c-0.529,0.16-0.828,0.718-0.668,1.247c0.005,0.018,0.011,0.036,0.018,0.053L388.29,583.9z"/>
	<circle style="fill:#FF3A00;" cx="459.96" cy="614.02" r="9.02"/>
	<circle style="fill:#FF3A00;" cx="441.47" cy="578.51" r="4.94"/>
	<circle style="fill:#FF3A00;" cx="398.33" cy="662" r="4.94"/>
	<circle style="fill:#FF3A00;" cx="446.41" cy="794.04" r="4.94"/>
	<circle style="fill:#FF3A00;" cx="406.49" cy="678.73" r="3.22"/>
	<circle style="fill:#FF3A00;" cx="438.25" cy="767.35" r="3.22"/>
	<circle style="fill:#FF3A00;" cx="449.53" cy="635.65" r="3.22"/>
</g>
<g>
	<path style="fill:#00AEE0;" d="M669.1,439.75c10.63,0.92,20.19-9.21,21.35-22.61s-6.52-25-17.15-25.94s-20.19,9.2-21.35,22.61
		S658.47,438.83,669.1,439.75z M663.1,413.22l6.21,5.51l8.53-16.85l7.14,3.61l-13.24,26.11l-14-12.39L663.1,413.22z"/>
	<polygon style="fill:#04294F;" points="684.95,405.49 677.81,401.88 669.28,418.73 663.07,413.22 657.76,419.21 671.74,431.6 	"/>
	<path style="fill:#FF3A00;" d="M675.05,840.44c-10.54-1.69-20.81,7.72-22.93,21s4.7,25.42,15.23,27.1s20.81-7.72,22.93-21
		S685.58,842.12,675.05,840.44z M683.05,873.89l-6.44,4.75l-4-5.48l-4.66,8.91l-7.09-3.71l6.41-12.36l-6.66-9l6.43-4.75l4.35,5.9
		l4.84-9.24l7.09,3.71l-6.64,12.69L683.05,873.89z"/>
	<polygon style="fill:#04294F;" points="676.23,848.88 671.39,858.12 667.04,852.22 660.61,856.97 667.27,866 660.8,878.36 
		667.89,882.07 672.55,873.16 676.59,878.64 683.03,873.89 676.68,865.28 683.32,852.59 	"/>
	<path style="fill:#FFFFFF;" d="M681.68,448c-9.024,3.213-18.222,5.914-27.55,8.09c-5.579,1.348-9.509,6.341-9.51,12.08v349
		c0.025,6.87,5.615,12.42,12.485,12.395c1.034-0.004,2.064-0.136,3.065-0.395c5.653-1.473,10.9-3.003,15.74-4.59
		c5.126-1.632,10.163-3.531,15.09-5.69c4.455-2.008,7.316-6.444,7.31-11.33V459.71c0.022-6.854-5.517-12.428-12.37-12.449
		C684.487,447.256,683.046,447.506,681.68,448z M686.59,782.8v18.92c0.019,2.594-1.576,4.927-4,5.85
		c-5.995,2.306-12.103,4.308-18.3,6c-3.323,0.933-6.774-1.004-7.707-4.327c-0.153-0.544-0.231-1.107-0.233-1.673v-20.13
		c0-2.858,1.933-5.354,4.7-6.07c5.89-1.52,11.72-3.21,17.29-5c3.28-1.094,6.825,0.679,7.919,3.959
		c0.212,0.636,0.32,1.301,0.321,1.971L686.59,782.8z M686.59,738.15v18.95c0.011,2.591-1.581,4.92-4,5.85c-5,1.94-11,4-18.3,6
		c-3.33,0.928-6.783-1.02-7.71-4.35c-0.154-0.553-0.231-1.125-0.23-1.7v-20.1c-0.006-2.858,1.93-5.355,4.7-6.06
		c5.89-1.53,11.72-3.21,17.29-5.07c3.28-1.094,6.825,0.678,7.919,3.958c0.219,0.658,0.328,1.348,0.321,2.042L686.59,738.15z
		 M686.59,693.48v18.92c0.016,2.593-1.578,4.924-4,5.85c-5.995,2.306-12.103,4.308-18.3,6c-3.33,0.928-6.783-1.02-7.71-4.35
		c-0.15-0.537-0.227-1.092-0.23-1.65v-20.09c-0.002-2.857,1.932-5.352,4.7-6.06c5.89-1.53,11.72-3.21,17.29-5.07
		c3.28-1.094,6.825,0.678,7.919,3.958c0.219,0.658,0.328,1.348,0.321,2.042L686.59,693.48z M686.59,648.83v18.92
		c0.008,2.586-1.584,4.907-4,5.83c-5,2-11,4-18.3,6c-3.345,0.917-6.8-1.051-7.717-4.396c-0.143-0.523-0.218-1.062-0.223-1.604V653.5
		c-0.002-2.857,1.932-5.352,4.7-6.06c5.89-1.51,11.72-3.19,17.29-5.05c3.28-1.094,6.825,0.678,7.919,3.958
		c0.219,0.658,0.328,1.348,0.321,2.042L686.59,648.83z M686.59,604.16v18.92c0.008,2.591-1.583,4.917-4,5.85c-5,1.94-11,4-18.3,6
		c-3.338,0.922-6.791-1.036-7.714-4.373c-0.151-0.546-0.227-1.11-0.227-1.677v-20c-0.007-2.86,1.929-5.361,4.7-6.07
		c5.89-1.52,11.72-3.21,17.29-5.07c3.287-1.088,6.834,0.695,7.923,3.982c0.215,0.651,0.323,1.332,0.317,2.018L686.59,604.16z
		 M686.59,559.49v18.92c0.014,2.592-1.579,4.922-4,5.85c-5,1.94-11,4-18.3,6c-3.33,0.928-6.783-1.02-7.71-4.35
		c-0.15-0.537-0.227-1.092-0.23-1.65v-20c0-2.858,1.933-5.354,4.7-6.07c5.89-1.52,11.72-3.21,17.29-5
		c3.28-1.094,6.825,0.679,7.919,3.959c0.212,0.636,0.32,1.301,0.321,1.971L686.59,559.49z M686.59,514.84v18.92
		c0.008,2.591-1.583,4.917-4,5.85c-5,1.94-11,4-18.3,6c-3.338,0.922-6.791-1.036-7.714-4.373c-0.146-0.53-0.223-1.077-0.226-1.627
		v-20c-0.006-2.858,1.93-5.355,4.7-6.06c5.89-1.53,11.72-3.21,17.29-5.07c3.28-1.094,6.825,0.679,7.919,3.959
		c0.214,0.642,0.323,1.315,0.321,1.991L686.59,514.84z M686.59,488.67c0.008,2.591-1.583,4.917-4,5.85c-5,1.93-11,3.95-18.3,6
		c-3.33,0.928-6.783-1.02-7.71-4.35c-0.15-0.537-0.227-1.092-0.23-1.65V475c-0.01-2.859,1.928-5.358,4.7-6.06
		c5.89-1.53,11.72-3.21,17.29-5.07c3.28-1.094,6.825,0.679,7.919,3.959c0.214,0.642,0.323,1.315,0.321,1.991L686.59,488.67z"/>
	<path style="fill:#00AEE0;" d="M678.35,687c-5.57,1.86-11.4,3.54-17.29,5.07c-2.768,0.708-4.702,3.203-4.7,6.06v19.55
		c0.017,3.457,2.833,6.246,6.29,6.23c0.558-0.003,1.112-0.08,1.65-0.23c7.3-2,13.33-4.07,18.3-6c2.421-0.928,4.014-3.258,4-5.85V693
		c0.036-3.457-2.738-6.289-6.195-6.325C679.707,686.668,679.012,686.778,678.35,687z"/>
	<path style="fill:#FF3A00;" d="M678.35,508.47c-5.57,1.86-11.4,3.54-17.29,5.07c-2.77,0.705-4.706,3.202-4.7,6.06v19.55
		c-0.004,3.463,2.801,6.273,6.263,6.276c0.567,0.001,1.13-0.076,1.677-0.227c7.3-2.06,13.33-4.07,18.3-6
		c2.417-0.933,4.008-3.259,4-5.85v-18.93c0.008-3.457-2.788-6.267-6.245-6.275C679.673,508.144,678.996,508.253,678.35,508.47z"/>
	<path style="fill:#FF3A00;" d="M678.35,463.83c-5.57,1.86-11.4,3.54-17.29,5.07c-2.772,0.702-4.71,3.201-4.7,6.06v19.55
		c0.017,3.457,2.833,6.246,6.29,6.23c0.558-0.003,1.112-0.08,1.65-0.23c7.3-2.05,13.33-4.07,18.3-6c2.417-0.933,4.008-3.259,4-5.85
		v-18.88c0.008-3.457-2.788-6.267-6.245-6.275C679.673,463.504,678.996,463.613,678.35,463.83z"/>
	<path style="fill:#00AEE0;" d="M678.35,731.68c-5.57,1.86-11.4,3.54-17.29,5.07c-2.77,0.705-4.706,3.202-4.7,6.06v19.55
		c0.024,3.463,2.851,6.25,6.313,6.226c0.55-0.004,1.097-0.08,1.627-0.226c7.3-2.06,13.33-4.07,18.3-6
		c2.417-0.933,4.008-3.259,4-5.85v-18.88c0.008-3.457-2.788-6.267-6.245-6.275C679.673,731.354,678.996,731.463,678.35,731.68z"/>
	<path style="fill:#00AEE0;" d="M678.35,642.39c-5.57,1.86-11.4,3.54-17.29,5.05c-2.768,0.708-4.702,3.203-4.7,6.06v19.57
		c0.024,3.463,2.851,6.25,6.313,6.226c0.55-0.004,1.097-0.08,1.627-0.226c7.3-2.05,13.33-4.07,18.3-6
		c2.416-0.923,4.008-3.244,4-5.83v-18.9c0.008-3.457-2.788-6.267-6.245-6.275C679.673,642.064,678.996,642.173,678.35,642.39z"/>
	<path style="fill:#00AEE0;" d="M678.35,553.11c-5.57,1.84-11.4,3.53-17.29,5c-2.767,0.716-4.7,3.212-4.7,6.07v19.55
		c0.009,3.452,2.815,6.242,6.267,6.233c0.566-0.002,1.128-0.08,1.673-0.233c6.197-1.692,12.305-3.694,18.3-6
		c2.424-0.923,4.019-3.256,4-5.85V559c-0.025-3.457-2.848-6.24-6.305-6.215C679.634,552.79,678.977,552.9,678.35,553.11z"/>
	<path style="fill:#00AEE0;" d="M678.35,597.74c-5.57,1.86-11.4,3.55-17.29,5.07c-2.771,0.709-4.707,3.21-4.7,6.07v19.54
		c-0.011,3.457,2.783,6.269,6.24,6.28c0.574,0.002,1.146-0.075,1.7-0.23c6.197-1.692,12.305-3.694,18.3-6
		c2.419-0.93,4.011-3.259,4-5.85v-18.93c0-3.463-2.806-6.27-6.269-6.271C679.658,597.419,678.989,597.527,678.35,597.74z"/>
	<path style="fill:#00AEE0;" d="M678.35,776.32c-5.57,1.84-11.4,3.53-17.29,5c-2.767,0.716-4.7,3.212-4.7,6.07V807
		c0.017,3.457,2.833,6.246,6.29,6.23c0.558-0.003,1.112-0.08,1.65-0.23c6.197-1.692,12.305-3.694,18.3-6
		c2.422-0.925,4.016-3.257,4-5.85v-18.9c-0.003-3.457-2.808-6.258-6.265-6.255C679.66,775.996,678.99,776.106,678.35,776.32z"/>
</g>
</svg>
