<?xml version="1.0" encoding="utf-8"?>
<!-- Generator: Adobe Illustrator 23.0.2, SVG Export Plug-In . SVG Version: 6.00 Build 0)  -->
<svg version="1.1" id="brainstorm" xmlns="http://www.w3.org/2000/svg" xmlns:xlink="http://www.w3.org/1999/xlink" x="0px" y="0px" viewBox="0 0 800 774.4" style="enable-background:new 0 0 800 774.4;" xml:space="preserve">

<title>success+brainstorm</title>
<g>
	<g>
		<path d="M798.9,382.2l-71.6-52.4c-1.2-0.9-2.6-1.6-4.1-2.1c-7.6-2.5-15.7,1.7-18.2,9.3l-1.3,4.1l-8.8,27
			c-1.2,3.8-5.3,5.9-9.1,4.6c-0.6-0.2-1.2-0.5-1.8-0.9l-5.8-3.9l0,0l-1.3-0.8c-10.8-7.4-13.6-14.1-21.9-31.1l0,0
			c-8.9-19-21.9-36.9-29.4-55.1c-12.9-31.1-14.8-70.4-38.3-93.9c-23.4-23.4-62.8-25.4-93.9-38.3c-13.8-5.7-27.5-14.6-41.5-22.4l0,0
			c-9.6-5.5-14.4-14.1-10.1-22.5l9.6-18.7l1.5-2.9c1-2,1.6-4.2,1.9-6.4c1-9.8-6.7-18.7-16.6-19.7L405,52.9c-4.3-0.4-7.4-4.2-7-8.5
			c0.1-0.6,0.2-1.1,0.3-1.7l13.4-41.1c0.3-0.9,0-1.8-0.8-2.3c-0.9-0.5-2.1-0.3-2.7,0.6l-42,57.4c-0.7,1-1.3,2.1-1.7,3.3
			c-2,6.1,1.3,12.6,7.4,14.6c0,0,0,0,0,0l3.3,1.1l21.7,7c3.1,1,4.7,4.3,3.7,7.3c-0.2,0.5-0.4,1-0.7,1.4l-3.1,4.6l0,0l-0.7,1
			c-5.8,8.4-11,10.8-23.8,17c-23,8.5-44.1,25-65.8,33.9c-31.1,12.9-70.4,14.8-93.9,38.3s-25.4,62.8-38.4,93.9
			c-4.3,10.5-10.4,20.8-16.5,31.3l0,0c-6.9,11.9-16.8,17.7-27.3,12.4l0,0l-23.3-11.9l-3.6-1.8c-2.5-1.3-5.2-2.1-8-2.3
			c-12.3-1.2-23.3,8.4-24.5,20.6l-4.1,41.3c-0.6,5.4-5.4,9.3-10.7,8.7c-0.7-0.1-1.3-0.2-2-0.4L3.2,362.1c-1.1-0.4-2.3,0.1-2.9,1.1
			c-0.7,1.2-0.3,2.6,0.8,3.4l71.6,52.4c1.2,0.9,2.6,1.6,4.1,2.1c7.6,2.5,15.7-1.7,18.2-9.3l1.3-4.1l8.8-27c1.2-3.8,5.3-5.9,9.1-4.6
			c0.6,0.2,1.2,0.5,1.8,0.9l5.8,3.9l0,0l1.3,0.8c10.8,7.4,13.6,14.1,21.9,31.1l0,0c8.9,19,21.9,36.9,29.4,55.1
			c12.9,31.1,14.9,70.4,38.3,93.9c23.4,23.4,62.8,25.4,93.9,38.3c10.5,4.3,20.8,10.4,31.3,16.5l0,0c11.9,6.9,17.7,16.8,12.4,27.3
			l0,0l-11.9,23.3l-1.8,3.6c-1.3,2.5-2.1,5.2-2.3,8c-1.2,12.3,8.4,23.3,20.6,24.5l41.3,4.1c5.4,0.5,9.3,5.3,8.7,10.7
			c-0.1,0.7-0.2,1.3-0.4,2l-16.7,51.1c-0.4,1.1,0.1,2.3,1.1,2.9c1.2,0.7,2.6,0.3,3.4-0.8l52.4-71.6c0.9-1.2,1.6-2.6,2.1-4.1
			c2.5-7.6-1.7-15.7-9.3-18.2c0,0,0,0,0,0l-4.1-1.3l-27-8.8c-3.8-1.2-5.9-5.3-4.7-9.1c0.2-0.6,0.5-1.2,0.9-1.8l3.9-5.8l0,0l0.8-1.3
			c7.4-10.8,14.1-13.6,31.1-21.9l0,0c19-8.9,36.9-21.9,55.1-29.4c31.1-12.9,70.4-14.8,93.9-38.3c23.4-23.4,25.4-62.8,38.3-93.9
			c4.3-10.5,10.4-20.8,16.5-31.3l0,0c6.9-11.9,16.8-17.7,27.3-12.4l0,0l23.3,11.9l3.6,1.8c2.5,1.3,5.2,2.1,8,2.3
			c12.3,1.2,23.3-8.4,24.5-20.6l4.1-41.3c0.5-5.3,5.3-9.2,10.6-8.7c0.7,0.1,1.4,0.2,2.1,0.4l51.1,16.6c1.1,0.4,2.3-0.1,2.9-1.1
			C800.3,384.5,800,383,798.9,382.2z" style="fill:#FDB813;"/>
		<path d="M540.9,83.4c-1.3-1.4-2.6-2.8-3.9-4.2c-1.3-1.4-2.6-2.8-4-4.1c-0.8-0.8-1.5-1.5-2.3-2.3
			c-1.4-1.4-1.8-3.5-0.9-5.3c0.8-1.5,1.6-3.3,2.2-4.4l1.6-3.5l1.6-3.5c1-2.4,2-4.7,2.9-7.2c0.4-1,0.1-2.2-0.7-3
			c-1-0.9-2.6-0.9-3.6,0c-2,1.6-3.9,3.4-5.8,5.1l-2.8,2.7l-2.7,2.7c-1.8,1.8-3.6,3.6-5.3,5.5c-1.7,1.9-3.5,3.7-5.2,5.6
			c-1.9,2.1-2.2,5.2-0.8,7.7l1.1,1.9c1,1.8,2.9,4.8,4.4,7.2c1.4,2.2,1.2,5.1-0.4,7.1c-0.2,0.3-0.5,0.6-0.7,1c-1.5,2-2.8,4.2-3.8,6.5
			c-1.2,2.5-2,5.2-2.5,8c0,0.3,0,0.6,0,0.9c0.1,2.3,2.1,4.1,4.4,3.9c2.8-0.2,5.5-0.8,8.1-1.7c2.4-0.8,4.7-1.9,6.8-3.2
			c2.1-1.2,4.1-2.6,5.9-4.1c1.9-1.5,3.6-3.2,5.1-5.1l1.6-2C544.2,91.8,544,86.8,540.9,83.4z" style="fill:#00ACDC;"/>
		<path d="M293.9,69c-1.9-0.1-3.8-0.2-5.7-0.2c-1.9,0-3.8-0.1-5.7-0.1c-1.1,0-2.2,0-3.3,0c-2,0-3.7-1.2-4.4-3.1
			c-0.5-1.6-1.1-3.5-1.5-4.6l-1.3-3.6l-1.4-3.6c-0.9-2.4-1.9-4.8-3-7.2c-0.5-1-1.5-1.7-2.6-1.6c-1.4,0.1-2.5,1.2-2.6,2.5
			c-0.2,2.6-0.4,5.1-0.5,7.7l-0.1,3.9v3.8c0,2.6,0,5.1,0.1,7.6c0.1,2.5,0.2,5.1,0.3,7.6c0.2,2.9,2.1,5.3,4.9,6l2.1,0.6
			c2,0.5,5.4,1.3,8.2,2c2.5,0.6,4.5,2.7,4.8,5.3c0.1,0.4,0.1,0.8,0.2,1.2c0.4,2.5,1,4.9,1.9,7.3c0.9,2.6,2.2,5.1,3.9,7.4
			c0.2,0.2,0.4,0.4,0.6,0.6c1.7,1.5,4.3,1.4,5.9-0.3c0,0,0,0,0,0c1.8-2.1,3.4-4.5,4.6-7c1.1-2.3,2-4.6,2.6-7.1
			c0.6-2.3,1-4.7,1.3-7.1c0.3-2.4,0.3-4.8,0-7.2l-0.3-2.5C302.2,72.6,298.4,69.2,293.9,69z" style="fill:#00ACDC;"/>
		<path d="M109,233.5c-1.4,1.3-2.8,2.6-4.2,3.9c-1.4,1.3-2.8,2.6-4.1,4l-2.3,2.3c-1.4,1.4-3.5,1.8-5.3,0.9l-4.3-2.2
			l-3.5-1.6l-3.5-1.6c-2.4-1-4.7-2-7.2-3c-1-0.4-2.2-0.1-3,0.7c-0.9,1-0.9,2.6,0,3.6c1.6,2,3.4,3.9,5.1,5.8l2.7,2.8l2.7,2.7
			c1.8,1.8,3.6,3.6,5.5,5.3c1.8,1.8,3.7,3.5,5.6,5.2c2.1,1.9,5.2,2.2,7.7,0.8l1.9-1.1c1.8-1,4.8-2.9,7.2-4.4
			c2.2-1.4,5.1-1.2,7.1,0.3c0.3,0.2,0.6,0.5,1,0.7c2,1.5,4.2,2.7,6.5,3.8c2.5,1.2,5.2,2,8,2.5c0.3,0,0.6,0.1,0.9,0
			c2.3-0.1,4.1-2.1,3.9-4.4c0,0,0,0,0,0c-0.2-2.8-0.8-5.5-1.7-8.1c-0.8-2.4-1.9-4.7-3.2-6.8c-1.2-2.1-2.6-4.1-4.1-5.9
			c-1.5-1.9-3.2-3.6-5.1-5.1l-2-1.6C117.5,230.2,112.4,230.4,109,233.5z" style="fill:#00ACDC;"/>
		<path d="M94.6,480.5c-0.1,1.9-0.2,3.8-0.2,5.7c-0.1,1.9-0.1,3.8-0.1,5.7c0,1.1,0,2.2,0,3.3c0,2-1.2,3.7-3.1,4.4
			c-1.6,0.5-3.4,1.1-4.6,1.5l-3.6,1.3l-3.6,1.4c-2.4,0.9-4.8,1.9-7.2,3c-1,0.5-1.6,1.5-1.6,2.6c0.1,1.4,1.2,2.5,2.5,2.6
			c2.6,0.3,5.1,0.4,7.7,0.5l3.8,0.1h3.8c2.6,0,5.1,0,7.6-0.1c2.5-0.1,5.1-0.2,7.6-0.3c2.9-0.2,5.3-2.1,6-4.9l0.6-2.1
			c0.5-2,1.3-5.4,2-8.2c0.6-2.5,2.7-4.5,5.3-4.8c0.4,0,0.8-0.1,1.2-0.2c2.5-0.4,4.9-1,7.3-1.9c2.6-0.9,5.1-2.2,7.4-3.9
			c0.2-0.2,0.4-0.4,0.6-0.6c1.5-1.7,1.4-4.4-0.3-5.9c-2.1-1.8-4.5-3.4-7-4.6c-2.3-1.1-4.6-2-7.1-2.6c-2.3-0.6-4.7-1-7.1-1.3
			c-2.4-0.3-4.8-0.3-7.2,0l-2.5,0.3C98.2,472.2,94.8,476,94.6,480.5z" style="fill:#00ACDC;"/>
		<path d="M259.1,665.4c1.3,1.4,2.6,2.8,3.9,4.2c1.3,1.4,2.6,2.8,4,4.1c0.8,0.8,1.5,1.5,2.3,2.3
			c1.4,1.4,1.8,3.5,0.9,5.3c-0.8,1.5-1.6,3.3-2.2,4.4l-1.6,3.5l-1.6,3.5c-1,2.4-2,4.7-2.9,7.2c-0.4,1-0.1,2.2,0.7,3
			c1,0.9,2.6,0.9,3.6,0c2-1.6,3.9-3.4,5.8-5.1l2.8-2.7l2.7-2.7c1.8-1.8,3.6-3.6,5.3-5.5c1.7-1.8,3.5-3.7,5.2-5.6
			c1.9-2.1,2.2-5.2,0.8-7.7l-1.1-1.9c-1-1.8-2.9-4.8-4.4-7.2c-1.4-2.2-1.2-5.1,0.3-7.1c0.2-0.3,0.5-0.6,0.7-1c1.5-2,2.7-4.2,3.8-6.5
			c1.2-2.5,2-5.2,2.5-7.9c0-0.3,0.1-0.6,0-0.9c-0.1-2.3-2.1-4.1-4.4-3.9c0,0,0,0,0,0c-2.8,0.2-5.5,0.8-8.1,1.7
			c-2.4,0.8-4.7,1.9-6.8,3.2c-2.1,1.2-4.1,2.6-5.9,4.1c-1.9,1.5-3.6,3.2-5.1,5.1l-1.6,2C255.8,656.9,256,662,259.1,665.4z" style="fill:#00ACDC;"/>
		<path d="M506.1,679.8c1.9,0.1,3.8,0.2,5.7,0.2s3.8,0.1,5.7,0.1h3.3c2,0,3.7,1.2,4.4,3.1c0.5,1.6,1.1,3.5,1.5,4.6
			l1.3,3.6l1.4,3.6c0.9,2.4,1.9,4.8,3,7.2c0.5,1,1.5,1.7,2.6,1.6c1.4-0.1,2.5-1.2,2.6-2.5c0.3-2.6,0.4-5.1,0.5-7.7l0.1-3.9V686
			c0-2.5,0-5.1-0.1-7.6c-0.1-2.5-0.2-5.1-0.3-7.6c-0.2-2.9-2.1-5.3-4.9-6l-2.1-0.6c-2-0.5-5.4-1.3-8.2-2c-2.5-0.6-4.5-2.7-4.8-5.3
			c0-0.4-0.1-0.8-0.2-1.2c-0.4-2.5-1-4.9-1.9-7.3c-0.9-2.6-2.2-5.1-3.9-7.4c-0.2-0.2-0.4-0.5-0.6-0.7c-1.7-1.5-4.3-1.4-5.9,0.3
			c0,0,0,0,0,0c-1.8,2.1-3.4,4.5-4.6,7c-1.1,2.3-2,4.6-2.6,7.1c-0.6,2.3-1,4.7-1.3,7.1c-0.3,2.4-0.3,4.8,0,7.2l0.3,2.5
			C497.8,676.2,501.5,679.6,506.1,679.8z" style="fill:#00ACDC;"/>
		<path d="M691,515.3c1.4-1.3,2.8-2.6,4.2-3.9c1.4-1.3,2.8-2.6,4.1-4c0.8-0.8,1.5-1.5,2.3-2.3c1.4-1.4,3.5-1.8,5.3-0.9
			l4.4,2.2l3.5,1.6l3.5,1.6c2.4,1,4.7,2.1,7.2,3c1,0.4,2.2,0.1,3-0.7c0.9-1,0.9-2.6,0-3.6c-1.6-2-3.4-3.9-5.1-5.8l-2.7-2.8l-2.7-2.7
			c-1.8-1.8-3.6-3.6-5.5-5.3c-1.8-1.7-3.7-3.5-5.6-5.2c-2.1-1.9-5.2-2.2-7.7-0.8l-1.9,1.1c-1.8,1-4.8,2.9-7.2,4.4
			c-2.2,1.4-5.1,1.2-7.1-0.3l-1-0.7c-2-1.5-4.2-2.7-6.5-3.8c-2.5-1.2-5.2-2-8-2.5c-0.3,0-0.6,0-0.9,0c-2.3,0.1-4.1,2.1-3.9,4.4
			c0.2,2.8,0.8,5.5,1.7,8.1c0.8,2.4,1.9,4.7,3.2,6.8c1.2,2.1,2.6,4.1,4.1,5.9c1.5,1.9,3.2,3.6,5.1,5.1l2,1.6
			C682.6,518.6,687.6,518.4,691,515.3z" style="fill:#00ACDC;"/>
		<path d="M705.4,268.3c0.1-1.9,0.2-3.8,0.2-5.7s0.1-3.8,0.1-5.7c0-1.1,0-2.2,0-3.3c0-2,1.2-3.8,3.1-4.4
			c1.6-0.5,3.4-1.1,4.6-1.5l3.6-1.3l3.6-1.4c2.4-0.9,4.8-1.9,7.2-3c1-0.5,1.7-1.5,1.6-2.6c-0.1-1.4-1.2-2.5-2.5-2.6
			c-2.6-0.3-5.1-0.4-7.7-0.5l-3.8-0.1h-3.8c-2.6,0-5.1,0-7.7,0.1c-2.5,0.1-5.1,0.2-7.6,0.3c-2.9,0.2-5.3,2.1-6,4.9l-0.6,2.1
			c-0.5,2-1.3,5.4-2,8.2c-0.6,2.5-2.7,4.5-5.3,4.8l-1.2,0.2c-2.5,0.4-4.9,1-7.3,1.9c-2.6,0.9-5.1,2.2-7.4,3.9
			c-0.2,0.2-0.4,0.4-0.6,0.6c-1.5,1.7-1.4,4.4,0.3,5.9c2.1,1.8,4.5,3.4,7,4.6c2.3,1.1,4.6,2,7.1,2.6c2.3,0.6,4.7,1,7.2,1.2
			c2.4,0.3,4.8,0.3,7.2,0l2.5-0.3C701.8,276.6,705.2,272.8,705.4,268.3z" style="fill:#00ACDC;"/>
		<path d="M166.7,626.4c-2.8,2.9-5.8,5.5-8.9,7.9c-3.2,2.4-6.5,4.8-10,7c-3.4,2.2-6.9,4.3-10.6,6.4
			c-3.7,2.1-7.4,4-11.3,5.7c-1.9,0.8-4.1-0.1-4.9-1.9c0,0,0,0,0,0c-0.4-0.9-0.4-2,0-2.9c1.7-4,3.6-7.6,5.6-11.3
			c2-3.6,4.2-7.1,6.4-10.6c2.2-3.4,4.5-6.8,7-10c2.4-3.2,5.1-6.2,7.9-8.9c5.4-5,11.7-2.7,16.7,2.7
			C169.4,615.5,171.4,621.4,166.7,626.4z" style="fill:#FDB813;"/>
		<path d="M652,607.7c2.9,2.8,5.5,5.8,7.9,8.9c2.4,3.2,4.8,6.5,7,10s4.3,6.9,6.4,10.6c2.1,3.7,4,7.4,5.6,11.3
			c0.8,1.9-0.1,4.1-2,4.9c0,0,0,0,0,0c-0.9,0.4-2,0.4-2.9,0c-3.9-1.7-7.6-3.6-11.3-5.7c-3.6-2-7.1-4.1-10.6-6.4
			c-3.4-2.2-6.8-4.5-10-6.9c-3.2-2.4-6.2-5.1-8.9-7.9c-5-5.4-2.7-11.7,2.7-16.7C641.1,605,647,603,652,607.7z" style="fill:#FDB813;"/>
	</g>
	<g>
		<path d="M374.8,523.3c0,0,35,26.6,35,57.4c0,3.4,2.2,6.7,6.7,9.3c8.9,5.1,23.2,5.1,32,0c4.4-2.6,6.6-5.9,6.6-9.3
			c0-0.2,1.2-17-3.8-33.5c14.9-0.3,29.5-3.4,43.2-9.3c53.4-23,79.8-80.9,58.9-129.5l-193.4,83.2L374.8,523.3z" style="fill:#10294C;"/>
		<path d="M474.9,534c-1,1-2.1,1.8-3.3,2.6c-1.1,0.8-2.3,1.5-3.5,2.1c-1.2,0.6-2.5,1.2-3.8,1.7c-1.3,0.5-2.6,0.9-4,1.2
			c-0.8,0.2-1.6-0.4-1.8-1.2c-0.1-0.5,0.1-1,0.4-1.4l0,0c1-1,2.1-1.8,3.3-2.6c1.1-0.8,2.3-1.5,3.5-2.1c1.2-0.6,2.5-1.2,3.7-1.7
			c1.3-0.5,2.6-0.9,4-1.2l0,0c0.8-0.2,1.6,0.4,1.7,1.2C475.3,533.2,475.1,533.7,474.9,534L474.9,534z" style="fill:#00ACDC;"/>
		<path d="M533.8,498c-3.6,3.1-7.5,6-11.4,8.7c-3.9,2.8-7.9,5.4-11.9,7.9c-4,2.5-8.1,5-12.3,7.2
			c-4.2,2.3-8.4,4.5-12.7,6.5c-0.7,0.4-1.6,0-2-0.7c-0.3-0.7-0.1-1.5,0.5-1.9c3.9-2.7,7.9-5.2,11.9-7.7l12-7.5l12-7.5
			c4.1-2.4,8-5,12.2-7.3c0.7-0.4,1.5-0.2,1.9,0.5C534.3,496.8,534.2,497.5,533.8,498L533.8,498z" style="fill:#00ACDC;"/>
		<path d="M412.4,550.1c1.8,2.3,3.2,4.8,4.4,7.5c1.2,2.6,2.2,5.4,2.9,8.2c0.7,2.8,1.2,5.7,1.4,8.6
			c0.2,2.9,0.1,5.8-0.2,8.6c-0.1,0.8-0.9,1.4-1.7,1.2c-0.6-0.1-1.1-0.6-1.2-1.2l0,0c-0.4-2.7-0.8-5.4-1.3-8.1
			c-0.4-2.7-1-5.3-1.7-7.9c-0.7-2.6-1.4-5.2-2.2-7.8c-0.8-2.6-1.8-5.1-2.8-7.7l0,0c-0.3-0.7,0.2-1.6,0.9-1.8
			C411.4,549.5,412,549.7,412.4,550.1L412.4,550.1z" style="fill:#00ACDC;"/>
		<path d="M432,563.5c0.7,1.5,1.2,3.2,1.5,4.8c0.3,1.6,0.5,3.3,0.6,5c0.1,1.7,0,3.4-0.2,5c-0.2,1.7-0.6,3.3-1.1,4.9
			c-0.3,0.8-1.2,1.2-1.9,0.9c-0.5-0.2-0.9-0.7-1-1.2l0,0c-0.2-1.6-0.3-3.2-0.4-4.8s-0.1-3.1-0.2-4.7c0-1.6-0.1-3.1-0.1-4.7
			c0-1.6,0-3.2,0.1-4.8l0,0c0.1-0.8,0.8-1.4,1.6-1.3C431.3,562.7,431.7,563.1,432,563.5L432,563.5z" style="fill:#00ACDC;"/>
		<path d="M446.5,559.6c0.7,1.7,1.2,3.4,1.5,5.2c0.4,1.8,0.6,3.6,0.7,5.4c0.1,1.8,0.1,3.6,0,5.5c-0.1,1.8-0.4,3.7-1,5.4
			c-0.3,0.8-1.1,1.2-1.9,1c-0.5-0.2-0.9-0.6-1-1.2l0,0c-0.3-1.7-0.4-3.5-0.6-5.2c-0.1-1.7-0.3-3.4-0.4-5.1c-0.1-1.7-0.2-3.4-0.2-5.2
			c-0.1-1.8,0-3.5,0.1-5.3l0,0c0.1-0.8,0.8-1.4,1.6-1.3c0,0,0,0,0,0C445.8,558.7,446.3,559.1,446.5,559.6z" style="fill:#00ACDC;"/>
		<path d="M551.3,468c-4.4,3.4-8.8,6.7-13.3,10c-4.5,3.3-9,6.4-13.6,9.5c-9.1,6.2-18.5,12.2-28,18
			c-4.7,2.9-9.5,5.7-14.3,8.4c-4.9,2.7-9.7,5.4-14.6,7.9c-2.4,1.3-4.9,2.5-7.4,3.8c-2.5,1.3-4.9,2.5-7.4,3.7c-5,2.4-10,4.7-15.1,6.9
			c-0.8,0.3-1.6-0.1-1.9-0.8c-0.3-0.7,0-1.4,0.6-1.8l0,0c2.4-1.3,4.9-2.6,7.3-3.8c2.4-1.2,4.9-2.6,7.3-3.9l3.6-1.9l3.6-2
			c2.4-1.3,4.9-2.6,7.2-4c9.6-5.4,19.1-10.9,28.5-16.6c9.4-5.7,18.8-11.5,28.1-17.4c4.7-2.9,9.3-6,13.8-8.9s9.2-6.1,13.8-9.1
			c0.6-0.4,1.5-0.3,2,0.4c0,0,0,0,0,0C551.9,466.7,551.8,467.5,551.3,468z" style="fill:#00ACDC;"/>
		<path d="M519.9,471.9c-8,5.6-16.1,11-24.4,16.1c-8.3,5.2-16.7,10.1-25.1,14.9c-8.5,4.8-17.1,9.4-25.8,13.8
			c-8.7,4.4-17.4,8.6-26.4,12.5c-0.7,0.3-1.6,0-1.9-0.7c-0.3-0.7,0-1.5,0.7-1.9l0,0l25.6-13.8c8.5-4.6,17-9.3,25.5-14.1
			c8.4-4.8,16.9-9.6,25.3-14.4l25.1-14.8l0,0c0.7-0.4,1.5-0.2,1.9,0.5c0,0,0,0,0,0C520.7,470.6,520.5,471.4,519.9,471.9z" style="fill:#00ACDC;"/>
		<path d="M554.2,448.3c-1.6,1.7-3.2,3.2-5,4.7c-1.7,1.4-3.5,2.8-5.4,4.1s-3.8,2.5-5.7,3.7c-1.9,1.2-4,2.2-6,3.2
			c-0.8,0.3-1.6-0.1-2-0.8c-0.2-0.6-0.1-1.2,0.3-1.6l0,0c1.6-1.6,3.3-3,5.1-4.4c1.8-1.4,3.6-2.7,5.4-4s3.7-2.5,5.6-3.7
			c1.9-1.2,3.9-2.3,5.9-3.3l0,0c0.7-0.4,1.6-0.1,1.9,0.6C554.7,447.2,554.6,447.8,554.2,448.3L554.2,448.3z" style="fill:#00ACDC;"/>
	</g>
	<g>
		<path d="M339,337.1c-0.6-0.4-57.5-39.5-107.7-128.4c-4.9-11.3,2-15.4,8-28.5c0.5-0.9,1-1.8,1.4-2.8l0.5-1.3l0.4-1
			c0.2-0.6,0.4-1.3,0.7-1.9c0.4-1.3,0.7-2.5,1-3.8c0.2-1,0.4-1.9,0.6-2.9c0,0,0-0.1,0-0.1c0.2-1,0.4-2,0.4-3
			c0.1-0.7,0.1-1.4,0.2-2.1c0.2-3.2,0-6.3-0.6-9.4c-0.7-3.8-2-7.5-3.9-10.8c-0.5-0.9-1.1-1.9-1.8-2.7c-0.6-0.9-1.4-1.8-2.1-2.6
			c-1.5-1.6-3.2-3-5.1-4.3c-0.8-0.5-1.7-1-2.5-1.5c-0.1-1.9-0.1-3.9-0.4-5.8c-0.1-1.1-0.3-2.2-0.5-3.3c-0.2-1.1-0.4-2.2-0.7-3.3
			c-1-4.7-2.7-9.3-5.1-13.6l-0.5-0.8c-0.2-0.3-0.3-0.6-0.5-0.9l-1.1-1.7c-0.3-0.5-0.8-1.1-1.2-1.7c-0.4-0.6-0.8-1.1-1.3-1.7
			l-1.5-1.7c-0.6-0.6-1.1-1.1-1.7-1.7c-0.3-0.3-0.7-0.6-1-0.9l-1.1-0.9l-1.2-1l-0.8-0.6l-0.4-0.3c-0.3-0.2-0.7-0.4-1-0.6
			c-8-5.4-18.8-3.3-24.2,4.7c-2.4,3.6-3.4,8-2.8,12.3l0,0c0,0.3,0.1,0.5,0.1,0.7l0.1,0.5c0,0.2,0.1,0.4,0.1,0.6h0l-1.1-0.8l-1.3-0.8
			l-0.8-0.5l-0.4-0.3c-0.3-0.2-0.6-0.4-1-0.6c-8-4.8-18.4-2.1-23.2,5.9c-2.7,4.6-3.1,10.2-1.1,15.1h0l-0.8-0.5l-0.4-0.2
			c-0.3-0.2-0.6-0.4-0.9-0.5c-7.6-4.5-17.4-2-21.9,5.6c0,0,0,0,0,0c-1,1.7-1.7,3.7-2,5.7c-6,24.1,18.6,54.5,38.9,65.6
			c18.3,10,19.6,5.7,27.9,19.6c2,3.7,4,7.3,6,10.8v0c0.3,0.5,0.5,0.9,0.8,1.3c53.8,92.7,113.7,133.9,116.6,135.9
			c9,6.1,21.2,3.7,27.3-5.3C350.4,355.5,348,343.3,339,337.1L339,337.1z" style="fill:#10294C;"/>
		<path d="M223.2,126.5c-1.5-0.5-3.1-0.9-4.7-1.2c-1.6-0.3-3.2-0.4-4.8-0.4c-3.3-0.1-6.5,0.3-9.7,1.1
			c-2.2,0.6-4.2,1.6-6.1,2.9c-1.1-3.2-2.6-6.4-4.3-9.3c-1.9-3.1-4.1-5.9-6.7-8.4c-0.6-0.5-1.5-0.5-2,0.1c-0.5,0.5-0.5,1.3,0,1.9l0,0
			c4.2,5.2,7.3,11.1,9.1,17.5c0.2,0.6,0.3,1.2,0.5,1.8c-1.8,2.6-2.8,5.7-2.7,8.9c0,3.6,1.3,7.1,3.6,9.9c0.3,0.3,0.5,0.6,0.8,0.9
			c-0.1,1-0.2,2-0.4,2.9c-0.2,0.8-0.3,1.6-0.6,2.2c-0.2,0.7-0.5,1.3-0.8,1.9c-1.4,2.5-3.7,4.4-6.4,5.2c-2.8,0.8-5.8,0.5-8.4-0.8
			c-1.3-0.7-2.5-1.7-3.5-2.8c-1.1-1.2-2.1-2.6-3-3.9c-0.1-0.1-0.1-0.2-0.2-0.2c-0.2-1.6-0.6-3.3-1-4.9c-1-4.3-2.7-8.5-4.8-12.4
			c-0.5-1-1.2-1.9-1.8-2.8s-1.3-1.8-2-2.7c-1.4-1.7-2.9-3.3-4.6-4.8c-0.6-0.5-1.4-0.5-2,0c-0.6,0.6-0.6,1.5-0.1,2.1c0,0,0,0,0,0
			c5.7,6,9.2,13.5,10.8,21.5c0.4,2,0.7,4,0.9,6c0.2,2,0.3,4.1,0.2,6.1c0,0.5,0,1,0,1.5c0,0.5,0,1-0.1,1.5c-0.1,1-0.2,2-0.3,3
			c-0.1,0.5-0.1,1-0.2,1.5c-0.1,0.5-0.2,0.9-0.3,1.3c-0.3,0.8-0.6,1.6-1,2.4c-0.9,1.5-2.1,2.7-3.6,3.6c-3,1.7-6.8,1.7-9.8,0
			c-1.5-1-2.9-2.2-3.9-3.7c-2.4-3.4-4.6-6.9-6.6-10.6c-1.1-1.8-2.2-3.7-3.4-5.5c-1.2-1.8-2.5-3.5-3.9-5.2c-0.5-0.6-1.4-0.7-2-0.2
			c-0.5,0.5-0.7,1.2-0.3,1.8c1.2,1.8,2.3,3.5,3.3,5.3c1,1.8,2,3.7,2.9,5.6c1.9,3.9,4,7.7,6.4,11.4c1.3,2.1,3.1,3.8,5.1,5.1
			c4.5,2.7,10,2.7,14.6,0.2c2.2-1.3,4.1-3.1,5.4-5.3c0.6-1.1,1.1-2.2,1.5-3.4c0.2-0.6,0.3-1.2,0.4-1.8c0.1-0.6,0.2-1.1,0.3-1.7
			c0.1-1.1,0.3-2.2,0.3-3.3c0.1-0.6,0.1-1.1,0.1-1.7c0-0.6,0-1.1,0-1.7s0-1.2,0-1.8c1.1,1.5,2.5,2.9,4.1,3.9
			c1.7,1.1,3.6,1.8,5.6,2.1c6.2,1,12.4-2,15.5-7.5c0.5-0.9,0.9-1.8,1.2-2.8c0.3-0.9,0.5-1.8,0.7-2.8l0.1-0.7
			c0.4,0.2,0.8,0.3,1.2,0.5c0.8,0.3,1.5,0.5,2.3,0.7c0.8,0.2,1.5,0.4,2.1,0.6c0.2,0.1,0.5,0.2,0.7,0.3l0.1,0.1
			c0.1,0,0.2,0.4,0.2,1.1c0,0.3,0,0.7-0.1,1l-0.1,0.5l-0.1,0.5c-0.3,1.4-0.7,3-0.9,4.6c-0.2,1.6-0.4,3.2-0.4,4.8
			c-0.1,0.8,0.6,1.5,1.4,1.6c0.8,0.1,1.5-0.6,1.6-1.4l0,0l0,0c0.1-1.5,0.4-2.9,0.7-4.3c0.3-1.4,0.7-2.8,1.2-4.3l0.2-0.6l0.1-0.6
			c0.1-0.4,0.2-0.8,0.2-1.2c0.1-0.5,0.1-1,0.1-1.5c0-0.7-0.2-1.3-0.5-1.9c-0.3-0.6-0.8-1.1-1.4-1.5c-0.4-0.3-0.9-0.5-1.4-0.7
			c-0.9-0.3-1.6-0.6-2.3-0.8s-1.4-0.5-2-0.8c-0.6-0.2-1.2-0.5-1.7-0.9c-1.1-0.7-2-1.5-2.8-2.5c-1.6-2-2.4-4.5-2.4-7
			c0-2.5,0.8-4.9,2.4-6.9c1.7-2,4-3.4,6.5-4.2c2.7-0.9,5.5-1.4,8.4-1.5c1.4-0.1,2.9-0.1,4.3,0c1.4,0.1,2.9,0.3,4.3,0.5l0,0
			c0.8,0.2,1.5-0.3,1.7-1.1c0.1-0.7-0.3-1.4-0.9-1.6L223.2,126.5z" style="fill:#00ACDC;"/>
		<path d="M213.9,131.7c-10-0.2-11.6,10.8-0.7,10.8C220.7,142.5,219.7,131.8,213.9,131.7z" style="fill:#00ACDC;"/>
		<path d="M178.7,150.4c2.5,7.7,13.4,5.2,10.4-3.1C187.1,141.6,177.2,146,178.7,150.4z" style="fill:#00ACDC;"/>
		<path d="M151.9,165.5c0.9,8,12.1,7.7,10.8-0.9C161.9,158.5,151.4,160.9,151.9,165.5z" style="fill:#00ACDC;"/>
		<path d="M176.6,114.6c-0.8,0.6-1.5,1.1-2.4,1.6c-0.8,0.5-1.6,1-2.4,1.4l-2.4,1.3c-0.8,0.5-1.7,0.9-2.6,1.2l-0.1,0
			c-0.8,0.3-1.7-0.1-2-0.9c-0.2-0.4-0.1-0.8,0.1-1.2c0.5-1,1.2-2,2-2.8c0.8-0.8,1.7-1.5,2.7-2c1-0.5,2-1,3.1-1.2
			c1.1-0.3,2.3-0.4,3.4-0.3c0.8,0.1,1.4,0.8,1.3,1.6c0,0,0,0,0,0c0,0.4-0.2,0.7-0.5,1L176.6,114.6z" style="fill:#00ACDC;"/>
		<path d="M144.5,133.7c-0.5,0.5-1.1,0.9-1.7,1.2c-0.6,0.3-1.1,0.6-1.7,0.9c-0.6,0.3-1.1,0.5-1.8,0.7
			c-0.6,0.2-1.3,0.4-2,0.5h-0.2c-0.9,0.1-1.7-0.5-1.8-1.4c0-0.3,0-0.6,0.1-0.8c0.4-0.8,0.9-1.5,1.6-2.1c0.6-0.6,1.4-1,2.1-1.3
			c0.8-0.3,1.6-0.5,2.4-0.6c0.9-0.1,1.8,0,2.6,0.2c0.8,0.2,1.3,1.1,1,1.9c-0.1,0.2-0.2,0.5-0.4,0.6L144.5,133.7z" style="fill:#00ACDC;"/>
		<path d="M154.3,141c-1.3,0.6-2.7,1.2-4.1,1.8c-1.3,0.6-2.7,1.1-4,1.7c-1.3,0.6-2.6,1.2-3.9,1.8
			c-1.3,0.6-2.6,1.3-4,1.9h-0.1c-0.8,0.3-1.6,0-2-0.8c-0.2-0.5-0.1-1.1,0.2-1.5c1-1.3,2.2-2.5,3.6-3.5c1.3-1,2.8-1.8,4.3-2.4
			c1.5-0.7,3.1-1.2,4.7-1.5c1.6-0.3,3.3-0.5,5-0.3c0.8,0.1,1.4,0.8,1.3,1.5c0,0,0,0,0,0c0,0.5-0.4,0.9-0.8,1.2L154.3,141z" style="fill:#00ACDC;"/>
		<path d="M208.8,104.3c-0.4,0.5-0.9,1-1.5,1.3c-0.5,0.4-1,0.7-1.6,1s-1.1,0.6-1.6,0.8c-0.6,0.3-1.2,0.5-1.9,0.6l-0.2,0
			c-0.9,0.2-1.7-0.4-1.9-1.3c0,0,0,0,0,0c-0.1-0.3,0-0.6,0-0.8c0.3-0.8,0.7-1.5,1.3-2.1c0.6-0.6,1.2-1.1,1.9-1.5
			c0.7-0.4,1.5-0.7,2.3-0.8c0.8-0.2,1.7-0.2,2.5,0c0.8,0.2,1.4,1,1.2,1.8c0,0.2-0.1,0.4-0.3,0.6L208.8,104.3z" style="fill:#00ACDC;"/>
		<path d="M206.3,94.9c-1,0.7-2.2,1.3-3.3,1.9l-3.3,1.8c-1.1,0.6-2.1,1.2-3.3,1.8c-1.1,0.6-2.1,1.3-3.3,1.8l-0.1,0
			c-0.8,0.4-1.7,0.1-2-0.7c-0.2-0.5-0.2-1,0-1.4c0.7-1.3,1.7-2.4,2.7-3.4c1.1-1,2.3-1.8,3.5-2.5c1.3-0.7,2.6-1.2,4-1.6
			c1.4-0.4,2.9-0.6,4.3-0.6c0.8,0,1.4,0.7,1.4,1.5c0,0.5-0.3,0.9-0.6,1.2L206.3,94.9z" style="fill:#00ACDC;"/>
	</g>
	<g>
		<path d="M587.3,353.1c-2.9-6.4,13-40.6-13.5-79c-1.1-1.9-2.4-3.6-3.9-5.3l-0.1-0.2h-0.1c-4.1-4.6-9.3-8.1-15.1-10.3
			l-0.3-0.1c-6-2.4-8.3-4-10.6-8c-0.3-0.7-0.7-1.3-1-1.9c-0.1-0.2-0.2-0.4-0.3-0.6h0c-7.9-13.7-22.4-22.2-38.2-22.2h-0.5
			c-0.5-0.1-1.1-0.1-1.6,0c-0.3,0-0.7,0.1-1,0.1c-0.6,0-1.3,0.1-1.9,0.2c-7,0.2-13.9-1.6-19.9-5.3h-0.1c-1.2-0.7-2.5-1.4-3.8-2
			l-0.1-0.1c-7.3-3.1-13.9-7.8-19.1-13.8c-0.4-0.5-0.9-1.1-1.3-1.6c-0.1-0.2-0.3-0.3-0.4-0.5h0c-14.9-16.2-38.4-21-58.4-11.9
			c-0.4,0.1-0.8,0.3-1.1,0.5c-0.2,0.1-0.3,0.2-0.5,0.3c-1,0.5-1.9,1-2.8,1.5c-5.7,2.9-12.2,3.7-18.5,2.3c-1-0.4-2.1-0.7-3.2-0.9
			l-0.1,0c-0.6-0.2-1.2-0.3-1.8-0.4c-1.8-0.3-3.7-0.5-5.6-0.5c-8.6,0-16.8,3.3-23.1,9.2c-0.6,0.5-1.2,1-1.6,1.6
			c-4,5.3-10.6,8.1-19.5,6.2c-0.4-0.1-0.8-0.1-1.1-0.1c-2.2-0.3-4.4-0.5-6.7-0.5c-17.3,0-33.1,9.6-41.2,24.8
			c-0.1,0.2-0.3,0.5-0.4,0.7c-4.1,8.4-8.6,13.4-15.6,17.7c-0.6,0.3-1.1,0.6-1.6,0.9c-0.5,0.3-1,0.6-1.6,0.9
			c-0.5,0.3-0.9,0.5-1.3,0.9c-20.8,13-35.7,33.5-41.7,57.3c-0.2,0.5-0.3,1-0.4,1.6c0,0.2-0.1,0.4-0.1,0.6v0.1
			c-1.8,9.2-7.1,17.1-12,23.7c-0.4,0.5-0.8,1-1.2,1.6l-0.1,0.1c-0.6,0.9-1.2,1.8-1.6,2.8c-5.5,9.5-7.4,20.7-5.3,31.5
			c0.1,0.7,0.2,1.4,0.4,2.1v0.1c0.1,0.6,0.3,1.2,0.6,1.8v0.1c0.2,0.6,0.4,1.1,0.5,1.7c0.3,1.3,0.5,2.7,0.4,4.1
			c3.8,18.6,6.4,30.6,3,46c-3.7,16.5,8.4,33.8,26.9,36.4c1.3,0.1,2.5,0.2,3.7,0.3h0.1c0.7,0,1.4,0.1,2.1,0.3
			c8,1.5,14.6,5.4,17.1,11.7l0.2,0.5c0.2,0.5,0.3,0.9,0.5,1.4c0.3,0.9,0.6,1.9,1.1,2.7c6.4,14.5,20.6,24,36.4,24.6
			c0.5,0.1,0.9,0.1,1.4,0.1c1,0,1.9-0.1,2.9-0.1c6.2-0.1,12.2,2,17,5.9l0.2,0.2c8.5,8.6,21,11.8,32.6,8.4c0.4-0.1,0.8-0.2,1.1-0.3
			l0.3-0.1c0.1,0,0.1,0,0.2-0.1c6.3-2.9,11.9-0.3,18,3.3c0.2,0.1,0.5,0.2,0.7,0.3c0.6,0.3,1.3,0.7,1.9,0.9
			c21.9,10.2,61.9-0.2,79.5-24.3l0.2-0.2c0.9-0.9,1.7-1.9,2.4-2.9c4.5-4.6,8.8-5.8,12.3-7.1l0,0c4.8-1.2,9.1-3.8,12.5-7.4
			c1.5-1.3,2.7-2.9,3.5-4.7l0,0c0,0,0-0.1,0.1-0.1c2.6-5.8,7.9-5.9,13.2-5.7l0,0c1.2,0.1,2.5,0.2,3.7,0.2c15.9,0,29.7-10.7,33.8-26
			c0-0.1,0.1-0.2,0.1-0.3c0.1-0.5,0.2-0.9,0.3-1.4c0-0.1,0-0.2,0.1-0.2c1.6-5.9,6.4-6.9,9.5-7.2h0.1c19.4-1.7,36.2-13.9,43.8-31.8
			c0.3-0.4,0.5-0.9,0.6-1.3c0,0,0,0,0,0c0.6-1.6,1.2-3.3,1.7-5c1.7-4.9,4-9.6,6.7-14c1.3-1.4,2.4-2.8,3.5-4.4l0-0.1v-0.1
			c5.5-8.3,7.2-18.6,4.6-28.2C587.7,354.3,587.6,353.7,587.3,353.1z" style="fill:#F04E23;"/>
		<path d="M357.6,438.3c-0.7-1.1-1.2-2.3-1.8-3.4c-0.5-1.2-1-2.3-1.4-3.5c-0.9-2.3-1.6-4.7-2.2-7.2
			c-1.2-4.9-1.9-9.8-2.1-14.8c-0.3-5.1,0-10.2,0.6-15.3c0.7-5.3,2.1-10.5,4.3-15.5c3.5-7.5,12.3-10.7,19.7-7.2
			c3.9,1.8,6.9,5.3,8.1,9.4l0.4,1.5c1.1,4.1,1.8,8.2,2.4,12.3c0.5,4.1,0.9,8.3,1.3,12.6c0.3,4.2,0.5,8.6,0.3,13
			c-0.1,2.2-0.2,4.4-0.4,6.7c-0.2,2.3-0.6,4.6-1.1,6.9l-0.2,0.7c-2,8.2-10.3,13.1-18.5,11.1C363.1,444.4,359.7,441.9,357.6,438.3
			L357.6,438.3z" style="fill:#FFFFFF;"/>
		<path d="M219.1,410.5c-0.7-1.1-1.2-2.3-1.8-3.4c-0.5-1.2-1-2.3-1.4-3.5c-0.9-2.4-1.6-4.7-2.2-7.2
			c-1.2-4.9-1.9-9.8-2.1-14.8c-0.3-5.1-0.1-10.2,0.6-15.3c0.7-5.3,2.1-10.6,4.3-15.5c3.5-7.5,12.3-10.7,19.7-7.2
			c3.9,1.8,6.9,5.3,8,9.4l0.4,1.5c1.1,4.1,1.8,8.2,2.4,12.3c0.6,4.1,1,8.3,1.3,12.6s0.5,8.6,0.3,12.9c0,2.2-0.2,4.4-0.4,6.7
			c-0.2,2.3-0.6,4.6-1.1,6.9l-0.2,0.7c-2,8.2-10.3,13.1-18.4,11.1C224.6,416.6,221.1,414,219.1,410.5L219.1,410.5z" style="fill:#FFFFFF;"/>
		<path d="M377.7,425.5v-0.6c0-0.2-0.1-0.5-0.1-0.7c-0.1-0.5-0.2-0.9-0.3-1.4c-0.1-0.4-0.3-0.8-0.4-1.2
			c-0.1-0.3-0.3-0.7-0.4-1c-0.1-0.3-0.3-0.7-0.5-0.9c-0.3-0.5-0.6-1-0.9-1.4s-0.6-0.8-0.9-1.2l0,0c-1-1.3-0.8-2.2,0.1-3.7l0,0
			c0.6-1,1.2-2,1.6-3.1c0.1-0.3,0.2-0.6,0.3-0.9c0.1-0.3,0.2-0.6,0.3-1c0.2-0.8,0.4-1.7,0.4-2.5c0.1-1,0-1.9-0.2-2.9
			c-0.1-0.5-0.2-0.8-0.3-1.2c-0.1-0.4-0.2-0.7-0.4-1.1c-0.8-1.8-1.9-3.4-3.3-4.9c-0.3-0.3-0.5-0.6-0.7-0.8l0,0
			c-1.2-1.3-0.6-2-0.1-2.9l0,0c0.1-0.2,0.2-0.4,0.3-0.6c0.1-0.2,0.4-0.7,0.6-1.1c0.2-0.4,0.4-0.8,0.6-1.3c0.5-1.2,0.7-2.4,0.7-3.7
			c0.4-2.3-1.1-4.5-3.5-5c-0.3,0-0.6-0.1-0.8-0.1l0,0h-0.2h-0.3c-4.1,0.4-9.4,4.4-11.9,11.1c-0.1,0.2-0.2,0.4-0.3,0.7v0.1l0,0
			c0,0.1,0,0.1-0.1,0.2c-0.1,0.2-0.1,0.4-0.2,0.6c-0.7,2.4-0.4,5.1,0.9,7.2l0.1,0.2l0.2,0.4l0.2,0.3c0.4,0.8,0.8,1.5,1.2,2.1l0,0
			c0.7,1.1,0.7,2.5-0.1,3.5l-0.6,1c-0.2,0.4-0.4,0.7-0.7,1.2l-0.4,0.7l-0.4,0.8l-0.2,0.4l-0.2,0.5c-0.1,0.3-0.2,0.7-0.3,1.1
			c-0.1,0.4-0.2,0.9-0.2,1.3c0,0.2-0.1,0.4-0.1,0.7c0,0.3,0,0.5,0,0.8c0,0.5,0,1,0.1,1.5c0.1,0.5,0.2,0.9,0.3,1.4
			c0.1,0.4,0.2,0.8,0.4,1.2c0.1,0.4,0.3,0.7,0.5,1.1c0.3,0.6,0.6,1.2,1,1.7l0.5,0.7l0.5,0.6c0.6,0.7,1.2,1.3,1.8,1.9l1.1,1l0,0
			c0.9,0.8,1.6,1.4,1,3.3l0,0c-0.1,0.3-0.2,0.5-0.2,0.8l-0.2,0.6l-0.2,0.6c-0.1,0.4-0.2,0.9-0.3,1.4c-0.3,1.4-0.2,2.8,0.1,4.2
			c0.4,2.1,2.2,3.7,4.3,3.7h0.1c0.1,0,0.3,0,0.4,0c0.1,0,0.2,0,0.2,0h0.1c0.2,0,0.4-0.1,0.5-0.1l0.3-0.1c3.8-1.4,8.5-7.3,9.1-14.1
			c0-0.1,0-0.1,0-0.2C377.6,426.3,377.7,425.9,377.7,425.5z" style="fill:#00ACDC;"/>
		<path d="M423.7,341.7c0.8-0.2,1.3-1,1.1-1.8c0,0,0,0,0,0c-1.1-4.6-3.1-8.9-5.8-12.8c-1.4-1.9-3-3.7-4.7-5.4l0,0
			l0.6-0.2c1.1-0.4,2.1-0.7,3.2-0.9c2.1-0.5,4.2-0.7,6.4-0.6c2.1,0,4.1,0.4,6.1,1.2c1,0.4,2,0.8,3,1.3c0.5,0.2,1,0.5,1.5,0.8
			c0.5,0.3,1,0.6,1.5,0.8l0.2,0.1c0.7,0.4,1.6,0.1,2-0.6c0.3-0.5,0.2-1.2-0.2-1.6c-0.4-0.5-0.9-0.9-1.3-1.4
			c-0.4-0.5-0.9-0.9-1.4-1.3l-1.6-1.2c-0.6-0.4-1.1-0.7-1.7-1c-1.2-0.6-2.5-1.1-3.8-1.4c-0.7-0.2-1.3-0.2-2-0.4
			c-0.7-0.1-1.3-0.2-2-0.2c-2.7-0.1-5.3,0.4-7.9,1.3c-0.6,0.3-1.2,0.5-1.8,0.8s-1.2,0.6-1.7,0.9c-0.6,0.4-1.2,0.8-1.8,1.3
			c-0.9-0.7-1.8-1.3-2.8-1.9c-4.1-2.4-8.6-4.1-13.3-4.9c-2.3-0.4-4.7-0.6-7-0.7c-2.4,0-4.7,0.2-7,0.6c-0.8,0.2-1.2,0.9-1.1,1.7
			c0.1,0.6,0.7,1.1,1.4,1.1h0.1c2.1,0,4.3,0.1,6.4,0.4c2.1,0.3,4.2,0.6,6.3,1.2c4.1,1,8.1,2.6,11.7,4.8c3.6,2.2,6.8,5,9.4,8.2
			c2.7,3.4,4.9,7.1,6.6,11l0,0C422.2,341.6,423,341.9,423.7,341.7z" style="fill:#FDB813;"/>
		<path d="M299.2,236h0.1c1.5-0.6,3.1-1.1,4.7-1.5c1.6-0.4,3.2-0.8,4.9-1c3.2-0.5,6.5-0.5,9.7,0c3.2,0.5,6.2,1.5,9.1,3
			c2.9,1.6,5.6,3.5,8.1,5.7l0,0c0.6,0.6,1.5,0.6,2.1,0.1c0.6-0.6,0.6-1.5,0.1-2.1c-3.2-4.6-7.8-8.2-13.1-10.1
			c-5.4-2-11.2-2.3-16.7-0.9c-1.8,0.4-3.6,1-5.3,1.7c-1.7,0.7-3.4,1.6-4.9,2.7c-0.6,0.5-0.7,1.4-0.2,2
			C298,235.9,298.7,236.1,299.2,236L299.2,236z" style="fill:#FDB813;"/>
		<path d="M494,258.5c-3-2.2-6.3-3.9-9.9-4.9c-1.8-0.5-3.7-0.8-5.6-0.9c-1.9-0.1-3.8,0-5.7,0.3
			c-3.7,0.6-7.3,1.9-10.6,3.9c-1.6,0.9-3.1,2-4.5,3.2c-1.4,1.2-2.7,2.5-3.9,4c-0.5,0.6-0.4,1.5,0.2,2c0.5,0.4,1.2,0.4,1.8,0l0.1-0.1
			c1.3-1,2.7-2,4.1-2.8c1.4-0.9,2.8-1.7,4.3-2.4c2.9-1.4,6-2.4,9.2-2.9c3.2-0.5,6.4-0.4,9.6,0.1c3.2,0.7,6.4,1.7,9.4,3.1l0,0
			c0.8,0.3,1.6,0,1.9-0.8C494.6,259.6,494.5,258.9,494,258.5L494,258.5z" style="fill:#FDB813;"/>
		<path d="M381.9,488.9L381.9,488.9c-1.4,1.1-2.7,2.1-4.2,3c-1.4,0.9-2.8,1.7-4.3,2.4c-2.9,1.4-6,2.5-9.2,3
			c-3.2,0.5-6.4,0.5-9.6,0c-3.2-0.6-6.4-1.6-9.4-3l0,0c-0.8-0.3-1.6,0-1.9,0.8c-0.3,0.6-0.1,1.3,0.5,1.7c4.5,3.4,10,5.4,15.6,5.6
			c5.7,0.2,11.4-1.3,16.2-4.3c1.6-1,3.1-2,4.5-3.3c1.4-1.2,2.7-2.6,3.8-4.1c0.4-0.5,0.4-1.2,0-1.7
			C383.4,488.5,382.5,488.4,381.9,488.9C381.9,488.9,381.9,488.9,381.9,488.9z" style="fill:#FDB813;"/>
		<path d="M458.4,418.3c-0.1-0.6-0.3-1.3-0.5-1.9l-0.7-1.8c-0.3-0.6-0.6-1.2-1-1.8c-0.7-1.2-1.5-2.3-2.4-3.3
			c-0.5-0.5-1-0.9-1.5-1.4c-0.5-0.5-1.1-0.9-1.6-1.2c-2.2-1.5-4.7-2.6-7.3-3.1c-0.7-0.1-1.3-0.3-1.9-0.3c-0.7-0.1-1.3-0.1-2-0.1
			c-1.3,0-2.6,0.1-3.9,0.3c-0.8,0.1-1.3,0.9-1.1,1.7c0.1,0.6,0.6,1,1.1,1.1h0.2c1,0.2,2.2,0.4,3.3,0.7c1.1,0.3,2.1,0.6,3.2,0.9
			c2,0.7,3.9,1.7,5.7,2.9c1.8,1.2,3.3,2.6,4.6,4.3c0.7,0.9,1.3,1.8,1.8,2.7c0.3,0.5,0.6,1,0.8,1.5c0.3,0.5,0.5,1,0.8,1.5l0.1,0.2
			c0.4,0.7,1.3,1,2,0.6c0.5-0.3,0.8-0.9,0.7-1.5C458.6,419.6,458.5,418.9,458.4,418.3z" style="fill:#FDB813;"/>
		<path d="M277.4,286h0.2c0.6,0,1.2-0.4,1.4-0.9c0.3-0.8-0.1-1.6-0.8-1.9c-0.6-0.2-1.2-0.5-1.8-0.7
			c-0.6-0.2-1.2-0.4-1.9-0.5l-2-0.3c-0.7-0.1-1.3-0.1-2-0.1c-1.4,0-2.7,0.1-4,0.4c-0.7,0.1-1.3,0.4-1.9,0.6
			c-0.6,0.2-1.3,0.4-1.9,0.7c-2.4,1.1-4.6,2.7-6.4,4.7c-0.4,0.5-0.9,1-1.3,1.5c-0.4,0.5-0.8,1-1.1,1.6c-0.7,1.1-1.3,2.3-1.7,3.5
			c-0.3,0.7,0,1.6,0.7,1.9c0.6,0.3,1.3,0.1,1.7-0.5l0.1-0.1c0.7-0.8,1.4-1.7,2.2-2.4c0.8-0.7,1.6-1.6,2.4-2.3
			c1.6-1.4,3.5-2.6,5.4-3.4c1.9-0.9,4-1.5,6.1-1.7c1.1-0.1,2.2-0.2,3.3-0.2c0.6,0,1.1,0,1.7,0.1C276.3,285.9,276.8,286,277.4,286z" style="fill:#FDB813;"/>
		<path d="M359.6,211.3h0.2c0.7,0.1,1.6,0.2,2.4,0.3s1.6,0.3,2.4,0.5c1.5,0.4,2.9,0.9,4.3,1.6c0.3,0.2,0.7,0.3,1,0.6
			c0.3,0.2,0.6,0.4,0.9,0.6l0.9,0.7c0.2,0.1,0.3,0.2,0.4,0.4l0.4,0.4c0.3,0.3,0.6,0.6,0.9,0.9c-1,0.4-2,0.8-3,1.4
			c-0.6,0.3-1.1,0.6-1.7,1s-1.1,0.7-1.6,1.2c-1,0.8-2,1.8-2.8,2.8c-0.4,0.5-0.4,1.1-0.1,1.6c0.4,0.7,1.3,0.9,1.9,0.5c0,0,0,0,0,0
			l0.2-0.1c0.9-0.5,1.9-1.2,2.9-1.6c1-0.5,2-1,3-1.4c2-0.8,4.1-1.3,6.2-1.6c2.1-0.3,4.2-0.2,6.3,0.3c1.1,0.2,2.1,0.5,3.1,0.8
			c0.5,0.2,1.1,0.4,1.6,0.6c0.5,0.2,1.1,0.4,1.6,0.6l0.2,0.1c0.8,0.3,1.6-0.1,1.9-0.9c0.2-0.6,0-1.2-0.4-1.6c-0.5-0.4-1-0.8-1.5-1.2
			c-0.5-0.4-1.1-0.8-1.6-1.1l-1.8-0.9c-0.6-0.3-1.2-0.5-1.9-0.7c-1.3-0.4-2.6-0.7-3.9-0.9c-0.7-0.1-1.4,0-2-0.1c-0.7,0-1.4,0-2,0.1
			l-0.4,0.1c0,0,0-0.1-0.1-0.1c-0.4-0.9-0.9-1.8-1.5-2.6c-0.6-0.8-1.3-1.6-2.1-2.3c-0.8-0.7-1.7-1.3-2.6-1.7c-1.8-1-3.8-1.5-5.9-1.7
			c-1-0.1-2,0-3,0.1c-1,0.1-2,0.3-3,0.7c-0.7,0.3-1.1,1.1-0.8,1.8C358.7,210.9,359.1,211.3,359.6,211.3L359.6,211.3z" style="fill:#FDB813;"/>
		<path d="M515.1,316.7c-0.1-0.5-0.3-1-0.5-1.4c-0.4-0.9-0.9-1.8-1.6-2.6c-0.6-0.8-1.3-1.6-2.1-2.3
			c-0.8-0.7-1.7-1.3-2.6-1.7c-1.8-1-3.8-1.5-5.9-1.7c-1-0.1-2-0.1-3,0.1c-1,0.1-2,0.4-3,0.7c-0.5,0.2-0.8,0.6-0.9,1.1
			c-0.1,0.8,0.4,1.5,1.2,1.6c0,0,0,0,0,0l0.2,0c0.7,0.1,1.6,0.2,2.4,0.3c0.8,0.2,1.6,0.3,2.4,0.5c1.5,0.4,2.9,0.9,4.3,1.6
			c0.3,0.2,0.7,0.3,1,0.6c0.3,0.2,0.6,0.4,0.9,0.6l0.9,0.7c0.2,0.1,0.3,0.2,0.4,0.4l0.4,0.4c0.6,0.5,1.1,1.1,1.6,1.7
			c0.5,0.6,0.9,1.3,1.5,2l0.2,0.2c0.4,0.4,0.9,0.6,1.4,0.4c0.8-0.2,1.3-1,1.1-1.8C515.4,317.6,515.2,317.1,515.1,316.7z" style="fill:#FDB813;"/>
		<path d="M552.5,407.2c-0.2-1-0.6-2-1-2.9c-0.4-0.7-1.2-1-1.9-0.6c-0.5,0.2-0.7,0.7-0.8,1.2v0.2c0,0.7,0,1.6,0,2.4
			c0,0.8-0.1,1.6-0.2,2.4c-0.2,1.5-0.6,3-1.1,4.4c-0.1,0.4-0.3,0.7-0.4,1c-0.2,0.3-0.3,0.7-0.5,1l-0.6,1c-0.1,0.2-0.2,0.3-0.3,0.5
			l-0.3,0.5c-0.5,0.6-1,1.2-1.5,1.8c-0.5,0.6-1.2,1.1-1.8,1.7l-0.2,0.2c-0.6,0.6-0.5,1.5,0.1,2.1c0.4,0.4,1,0.5,1.5,0.3
			c0.5-0.2,0.9-0.3,1.4-0.5c0.5-0.2,0.9-0.4,1.3-0.7c0.9-0.5,1.7-1.1,2.4-1.8c0.8-0.7,1.5-1.5,2-2.4c0.6-0.9,1.1-1.8,1.4-2.8
			c0.7-1.9,1.1-4,1-6.1C552.9,409.2,552.7,408.1,552.5,407.2z" style="fill:#FDB813;"/>
		<path d="M327.1,352.6c-0.3-0.4-0.6-0.8-0.9-1.2c-0.7-0.8-1.4-1.5-2.2-2.1c-0.8-0.6-1.7-1.2-2.7-1.6
			c-1-0.4-2-0.7-3-0.9c-2-0.4-4.1-0.4-6.1,0.1c-1,0.2-1.9,0.5-2.9,0.9c-0.9,0.4-1.8,0.9-2.6,1.5c-0.6,0.5-0.8,1.4-0.3,2
			c0.3,0.4,0.8,0.6,1.3,0.6l0.2,0c0.7-0.1,1.6-0.3,2.4-0.4c0.8-0.1,1.6-0.2,2.4-0.2c1.5-0.1,3.1,0,4.6,0.3c0.4,0.1,0.7,0.1,1.1,0.3
			c0.3,0.1,0.7,0.2,1.1,0.3l1,0.4c0.2,0.1,0.4,0.1,0.5,0.2l0.5,0.3c0.7,0.4,1.4,0.8,2,1.2c0.7,0.4,1.3,1,2,1.4l0.2,0.1
			c0.7,0.4,1.6,0.2,2-0.5c0.3-0.5,0.3-1,0-1.5C327.7,353.5,327.4,353,327.1,352.6z" style="fill:#FDB813;"/>
		<path d="M403.7,498.3c-0.7-0.4-1.5-0.2-1.9,0.5c0,0,0,0,0,0l-0.1,0.2c-0.4,0.6-0.8,1.4-1.2,2.1s-0.9,1.4-1.4,2
			c-0.9,1.2-2,2.3-3.2,3.3c-0.3,0.3-0.6,0.5-0.9,0.7c-0.3,0.2-0.6,0.4-0.9,0.6l-1,0.5c-0.2,0.1-0.3,0.2-0.5,0.2l-0.5,0.2
			c-0.7,0.3-1.4,0.6-2.2,0.8c-0.8,0.3-1.6,0.4-2.4,0.7l-0.3,0.1c-0.8,0.3-1.2,1.1-0.9,1.9c0.2,0.5,0.6,0.9,1.1,1
			c0.5,0.1,1,0.1,1.5,0.2c0.5,0.1,1,0.1,1.5,0.1c1,0,2-0.2,3-0.4c1-0.2,2-0.6,2.9-1.1c2.8-1.4,5-3.7,6.4-6.5
			c0.5-0.9,0.8-1.8,1.1-2.8c0.3-1,0.4-2,0.5-3C404.3,499.1,404.1,498.6,403.7,498.3z" style="fill:#FDB813;"/>
		<path d="M451.6,459.3c-0.1-0.5-0.3-1-0.5-1.4c-0.4-0.9-0.9-1.8-1.6-2.6c-0.6-0.8-1.3-1.6-2.1-2.3
			c-0.8-0.7-1.7-1.3-2.6-1.7c-1.8-1-3.8-1.5-5.9-1.7c-1-0.1-2-0.1-3,0.1h-0.3c0-1.3,0-2.6-0.1-3.9c-0.5-3.7-1.6-7.3-3.4-10.7
			c-0.9-1.6-1.9-3.2-3-4.7c-1.1-1.5-2.4-2.9-3.8-4.1c-0.6-0.5-1.5-0.4-2,0.2c-0.4,0.5-0.4,1.2-0.1,1.7l0.1,0.1
			c1,1.3,1.8,2.7,2.7,4.2c0.8,1.4,1.6,2.9,2.2,4.4c1.3,3,2.1,6.1,2.5,9.3c0.3,3.2,0.2,6.4-0.5,9.5c-0.8,3.2-2,6.3-3.5,9.3l0,0
			c-0.4,0.7,0,1.6,0.7,2c0.6,0.3,1.3,0.1,1.8-0.4c2.4-2.9,4.2-6.2,5.3-9.7c0.4-1.2,0.7-2.4,0.9-3.7c0.2,0,0.4,0.1,0.6,0.1
			c0.8,0.1,1.6,0.3,2.4,0.5c1.5,0.4,2.9,0.9,4.3,1.6c0.3,0.2,0.7,0.3,1,0.6c0.3,0.2,0.6,0.4,0.9,0.6l0.9,0.7
			c0.2,0.1,0.3,0.2,0.4,0.4l0.4,0.4c0.6,0.5,1.1,1.1,1.6,1.7c0.5,0.6,0.9,1.3,1.5,2l0.2,0.2c0.4,0.4,0.9,0.6,1.4,0.4
			c0.8-0.2,1.3-1,1.1-1.8C451.8,460.2,451.7,459.7,451.6,459.3z" style="fill:#FDB813;"/>
		<path d="M364.9,399.5c0.6,0.4,1.1,0.9,1.6,1.5c0.5,0.6,0.9,1.3,1.2,2c0.7,1.5,0.9,3.2,0.6,4.8c-0.3,1.5-0.9,3-1.9,4.2
			c-0.5,0.6-1,1.1-1.6,1.5c-0.6,0.5-1.2,0.8-1.9,1.1c-0.8,0.3-1.6,0-1.9-0.8c-0.2-0.4-0.2-0.8,0-1.2l0.2-0.4
			c0.2-0.4,0.6-0.9,0.8-1.4c0.3-0.5,0.5-0.9,0.7-1.4c0.4-0.8,0.7-1.7,0.9-2.6c0.2-0.8,0.2-1.7,0-2.6c-0.1-0.5-0.2-1-0.3-1.4
			c-0.1-0.5-0.3-1-0.5-1.6l-0.1-0.3c-0.2-0.8,0.3-1.5,1.1-1.7C364.1,399.1,364.5,399.2,364.9,399.5L364.9,399.5z" style="fill:#FFFFFF;"/>
		<path d="M366.8,390.3c0,0.5-0.1,1-0.3,1.5c-0.2,0.4-0.4,0.8-0.6,1.3c-0.2,0.4-0.5,0.8-0.8,1.1
			c-0.3,0.4-0.7,0.8-1.2,1.1l-0.2,0.2c-0.8,0.5-1.8,0.4-2.4-0.4c-0.1-0.1-0.2-0.3-0.2-0.4c-0.2-0.7-0.3-1.4-0.1-2.1
			c0.1-0.7,0.4-1.3,0.7-1.9c0.3-0.6,0.8-1.1,1.3-1.5c0.6-0.5,1.2-0.8,2-0.9c0.8-0.2,1.6,0.3,1.8,1.1c0,0,0,0,0,0c0,0.1,0,0.2,0,0.3
			L366.8,390.3z" style="fill:#FFFFFF;"/>
		<path d="M236.8,397.7v-0.6c0-0.2,0-0.5-0.1-0.7c-0.1-0.5-0.2-1-0.3-1.4c-0.1-0.4-0.3-0.8-0.4-1.2
			c-0.1-0.3-0.3-0.7-0.4-1c-0.1-0.3-0.3-0.6-0.5-0.9c-0.3-0.5-0.6-1-0.9-1.4c-0.3-0.4-0.6-0.8-0.9-1.2l0,0c-1-1.3-0.8-2.2,0.1-3.7
			l0,0c0.6-1,1.2-2,1.6-3.1c0.1-0.3,0.2-0.6,0.3-0.9c0.1-0.3,0.2-0.6,0.3-1c0.2-0.8,0.4-1.7,0.4-2.5c0.1-1,0-1.9-0.2-2.9
			c-0.1-0.4-0.2-0.8-0.3-1.2c-0.1-0.4-0.2-0.7-0.4-1.1c-0.8-1.8-1.9-3.4-3.3-4.9l-0.7-0.8l0-0.1c-1.2-1.3-0.6-2-0.1-2.9l0,0
			c0.1-0.2,0.2-0.4,0.3-0.6c0.1-0.2,0.4-0.7,0.6-1.1c0.2-0.4,0.4-0.8,0.6-1.4c0.5-1.2,0.7-2.4,0.8-3.7c0.3-2.4-1.4-4.7-3.8-5
			c-0.2,0-0.3,0-0.5,0l0,0h-0.2h-0.3c-4.1,0.4-9.4,4.4-11.9,11.1c-0.1,0.2-0.2,0.4-0.3,0.7v0.1l0,0c0,0.1,0,0.1-0.1,0.2
			c-0.1,0.2-0.1,0.4-0.2,0.6c-0.7,2.4-0.4,5.1,0.9,7.2l0.1,0.2l0.2,0.4l0.2,0.3c0.4,0.8,0.8,1.5,1.2,2.1l0,0
			c0.7,1.1,0.7,2.5-0.1,3.5l-0.6,1c-0.2,0.4-0.4,0.7-0.7,1.2l-0.4,0.7l-0.4,0.8l-0.2,0.4l-0.2,0.5c-0.1,0.4-0.2,0.7-0.3,1.1
			c-0.1,0.4-0.2,0.9-0.2,1.3c0,0.2-0.1,0.4-0.1,0.7c0,0.3,0,0.5,0,0.8c0,0.5,0,1,0.1,1.5c0.1,0.5,0.2,0.9,0.3,1.4
			c0.1,0.4,0.2,0.8,0.4,1.2c0.1,0.4,0.3,0.7,0.5,1.1c0.3,0.6,0.6,1.2,1,1.7l0.5,0.7l0.5,0.6c0.5,0.7,1.1,1.3,1.8,1.9
			c0.4,0.4,0.8,0.7,1.1,1l0,0c0.9,0.8,1.6,1.4,1,3.4l0,0c-0.1,0.3-0.2,0.5-0.2,0.8l-0.2,0.6l-0.2,0.6c-0.1,0.4-0.2,0.9-0.3,1.4
			c-0.3,1.4-0.2,2.8,0.1,4.2c0.4,2.1,2.2,3.7,4.3,3.7h0.1c0.1,0,0.3,0,0.4,0c0.1,0,0.2,0,0.2,0h0.1c0.2,0,0.4-0.1,0.5-0.1l0.3-0.1
			c3.8-1.4,8.5-7.3,9-14.1c0-0.1,0-0.1,0-0.2C236.8,398.5,236.8,398.1,236.8,397.7z" style="fill:#00ACDC;"/>
		<path d="M224,371.7c0.6,0.4,1.1,0.9,1.6,1.5c1.5,1.9,2.2,4.3,1.7,6.7c-0.3,1.5-0.9,3-1.9,4.2c-0.5,0.6-1,1.1-1.6,1.5
			c-0.6,0.5-1.2,0.8-1.9,1.1c-0.8,0.3-1.6,0-1.9-0.8c-0.2-0.4-0.2-0.8,0-1.2l0.2-0.4c0.2-0.4,0.5-0.9,0.8-1.4s0.5-0.9,0.7-1.4
			c0.4-0.8,0.7-1.7,0.9-2.6c0.2-0.8,0.2-1.7,0-2.6c-0.1-0.5-0.2-1-0.3-1.4c-0.1-0.5-0.3-1-0.5-1.6l-0.1-0.3
			c-0.1-0.8,0.4-1.5,1.1-1.7C223.3,371.3,223.7,371.5,224,371.7z" style="fill:#FFFFFF;"/>
		<path d="M226,362.5c0,0.5-0.1,1-0.3,1.5c-0.2,0.4-0.4,0.9-0.6,1.3c-0.2,0.4-0.5,0.8-0.8,1.1c-0.3,0.4-0.7,0.8-1.2,1.1
			l-0.3,0.2c-0.8,0.5-1.8,0.4-2.4-0.4c-0.1-0.1-0.2-0.3-0.2-0.4c-0.2-0.7-0.3-1.4-0.1-2.1c0.1-0.7,0.4-1.3,0.7-1.9
			c0.3-0.6,0.8-1.1,1.3-1.5c0.6-0.5,1.2-0.8,2-0.9c0.8-0.2,1.6,0.3,1.8,1.1c0,0.1,0,0.2,0,0.3L226,362.5z" style="fill:#FFFFFF;"/>
		<path d="M301.7,478.2h-0.3c-1.1,0-2.1,0.2-3.1,0.3s-2,0.2-3,0.2c-1.9,0.1-3.9,0.1-5.8,0c-1.9-0.1-3.8-0.4-5.7-0.9
			c-0.4-0.1-0.9-0.2-1.3-0.3c0.8-0.5,1.5-1.1,2.2-1.8c0.9-0.8,1.7-1.7,2.4-2.7c0.4-0.5,0.7-1,1-1.5c0.3-0.5,0.7-1.1,0.9-1.7
			c0.4-1-0.1-2.1-1.1-2.4c-0.8-0.3-1.6,0-2.2,0.6l-0.1,0.1c-0.3,0.4-0.5,0.8-0.8,1.1c-0.3,0.4-0.6,0.8-1,1.1c-0.7,0.7-1.4,1.4-2.2,2
			c-1.5,1.2-3.2,2.1-5.1,2.8c-1.8,0.6-3.8,0.9-5.7,0.9c-1.9,0-3.8-0.2-5.6-0.8c-1.4-0.4-2.6-1.4-3.3-2.7c-0.7-1.6-1.1-3.3-1.2-5.1
			L261,466c0-0.6-0.1-1.2-0.1-1.9c-0.1-1.3-0.4-2.5-0.7-3.8c-0.7-2.5-2-4.8-3.6-6.9c-1.5-1.9-3.2-3.6-5-5.2
			c-0.4-0.4-0.9-0.8-1.3-1.1l-0.6-0.6c-0.2-0.1-0.3-0.2-0.4-0.4c-0.5-0.5-0.8-1-1.1-1.6c-0.5-1.4-0.5-2.9,0-4.2
			c0.6-1.4,1.6-2.6,2.9-3.4c1.5-0.8,3.2-1.3,5-1.3c1.9,0,3.9,0.2,5.8,0.7c4,1.1,7.9,2.8,11.5,4.9l0,0c1,0.5,2.2,0.1,2.7-0.8
			c0.5-0.9,0.2-1.9-0.6-2.5c-2.3-1.7-4.8-3.2-7.4-4.5c0.1-0.1,0.1-0.1,0.2-0.2c0.4-0.6,1-1.2,1.5-1.8c1-1.2,2.2-2.4,3.3-3.5
			c1.2-1.2,2.4-2.3,3.7-3.5c0.7-0.6,1.3-1.2,1.9-1.8c0.7-0.6,1.3-1.2,1.9-1.9l0.1-0.1c0.7-0.9,0.5-2.2-0.3-2.9
			c-0.5-0.4-1.1-0.5-1.7-0.4c-0.9,0.3-1.9,0.6-2.8,1c-0.9,0.4-1.8,0.8-2.6,1.3c-1.7,1-3.3,2.3-4.7,3.7c-1.5,1.4-2.7,3.1-3.7,4.9
			c-0.2,0.5-0.5,0.9-0.7,1.4c-0.2,0.5-0.4,1-0.5,1.5l-0.1,0.4l-0.2-0.1c-2.3-0.8-4.8-1.2-7.2-1.3c-2.7-0.1-5.4,0.5-7.8,1.7
			c-2.6,1.3-4.6,3.5-5.8,6.2c-1.2,2.8-1.3,5.9-0.3,8.7c0.5,1.5,1.3,2.8,2.4,3.9c0.3,0.3,0.6,0.6,0.8,0.8l0.6,0.5
			c0.4,0.3,0.8,0.7,1.2,1.1c1.5,1.3,2.9,2.8,4.2,4.4c1.1,1.4,2,3,2.5,4.7c0.3,0.9,0.4,1.8,0.5,2.7c0.1,0.5,0.1,1,0.1,1.4l0.1,1.7
			c0.2,2.7,0.9,5.3,2.1,7.6c0.8,1.3,1.8,2.4,3,3.3c1.2,0.8,2.5,1.5,3.9,1.9c2.4,0.7,5,0.9,7.5,0.7c2-0.1,3.9-0.5,5.8-1.1l0.2,0.2
			c0.5,0.4,1,0.7,1.5,1.1c1,0.7,2.1,1.3,3.2,1.7c4.5,1.9,9.6,2.4,14.4,1.2c1.2-0.3,2.3-0.6,3.4-1.1c1.1-0.5,2.1-1.1,3.1-1.7
			c0.9-0.6,1.2-1.8,0.6-2.7C303.1,478.6,302.4,478.3,301.7,478.2L301.7,478.2z" style="fill:#10294C;"/>
		<path d="M275,456.2c-1.7-4.3-5.2-7.6-9.5-9.2c-1.7-0.6-3.5,0.4-4.1,2.1c-0.3,1-0.1,2.2,0.5,3c2.1,2.7,2.1,3.2,2,4
			c-0.1,1.3,0,2.6,0.2,3.9c0.4,2.4,2.2,4.4,4.6,5.1c0.5,0.1,1,0.2,1.5,0.2c1.5,0,3-0.6,4-1.7C275,462.8,276.6,460.4,275,456.2z" style="fill:#10294C;"/>
		<path d="M482.5,225.8c3.5,0.3,7,0.3,10.4,0.2c1.2-0.1,3.6-0.2,4.9-0.4c-5.7-0.2-11.3-1.8-16.3-4.6
			c-5.9-0.6-12.9-1.4-18.8-2.3c-6.8-1.1-13.7-1.8-20.6-2.1c-3.5-0.1-7.1,0-10.6,0.4c-3.6,0.4-7.2,1.2-10.6,2.4
			c-1.7,0.7-3.4,1.5-5,2.4l-1.2,0.7l-1.1,0.7c-0.7,0.5-1.5,1-2.2,1.5c-2.9,2-5.6,4.1-8.3,6.4c-2.7,2.3-5.2,4.6-7.7,7.1
			c-2.4,2.5-4.8,5-7.1,7.5c-2.2,2.4-4.5,4.7-7.1,6.7c-2.4,1.9-5.1,3.5-8,4.5c-5.8,2.2-12.3,2.6-18.9,2.4l-2.5-0.1
			c-0.9,0-1.8-0.1-2.7-0.1c-1.9,0-3.7,0.1-5.5,0.4c-7.7,0.9-14.7,5.1-19.2,11.4c-2.1,3-3.9,6.1-5.4,9.5c-2.9,6.5-4.9,13-7.4,19.1
			c-2.5,6.1-5.5,11.9-9.8,16.5c-1.1,1.1-2.2,2.2-3.4,3.2l-2,1.5c-0.7,0.5-1.4,1.1-2.1,1.6c-2.8,2.3-5.3,4.8-7.7,7.5
			c-2.3,2.7-4.4,5.7-6,8.9c-1.6,3.2-2.9,6.6-3.8,10.1c-0.8,3.5-1.3,7-1.5,10.6c-0.1,3.5-0.1,7,0.2,10.5c0.6,6.9,1.6,13.7,3,20.4
			c0.2,1,1.1,1.7,2.2,1.5c1-0.2,1.7-1.1,1.5-2.2c-0.5-3.4-1-6.7-1.4-10.1c-0.4-3.4-0.7-6.7-0.9-10c-0.3-6.6,0-13.3,1.7-19.5
			c0.8-3.1,2-6.1,3.5-8.9c1.5-2.8,3.4-5.4,5.5-7.8c2.2-2.4,4.5-4.6,7.1-6.6c0.6-0.5,1.3-1,1.9-1.5l2.1-1.5c1.5-1.1,2.9-2.3,4.1-3.7
			c2.5-2.6,4.7-5.6,6.5-8.7c1.8-3.1,3.3-6.3,4.7-9.5c2.7-6.4,4.8-12.9,7.5-18.9c1.3-2.9,2.8-5.7,4.7-8.2c1.7-2.4,4-4.4,6.5-6
			c2.6-1.5,5.5-2.4,8.4-2.8c1.5-0.2,3.1-0.3,4.6-0.3c0.8,0,1.6,0,2.4,0l2.6,0.1c3.5,0.1,7.1,0,10.6-0.4c3.7-0.4,7.3-1.2,10.7-2.4
			c3.5-1.3,6.8-3.2,9.7-5.6c2.7-2.3,5.3-4.8,7.6-7.4c4.4-5,9.1-9.8,14.1-14.3c2.5-2.2,5.1-4.2,7.8-6.2c0.7-0.5,1.4-1,2-1.4l1-0.7
			l1-0.6c1.3-0.8,2.7-1.5,4.1-2c5.8-2.3,12.4-2.8,19-2.7s13.3,0.9,20.1,1.7C468.8,224.4,475.6,225.4,482.5,225.8z" style="fill:#FDB813;"/>
	</g>
	<g>
		<path d="M695.4,174.6c-1.6-8.7-9.9-14.4-18.5-12.9c-2,0.4-3.9,1.1-5.6,2.2c-0.3,0.2-0.6,0.4-0.9,0.6l-0.4,0.2
			l-0.8,0.5h0c3.4-8.7-1-18.5-9.7-21.9c-5-1.9-10.6-1.4-15.1,1.4c-0.3,0.2-0.7,0.4-1,0.6l-0.4,0.3l-0.8,0.5l-1.3,0.9l-1.1,0.8h0
			c0-0.2,0.1-0.4,0.1-0.6s0.1-0.3,0.1-0.5c0-0.2,0.1-0.5,0.1-0.7l0,0c1.1-9.6-5.8-18.2-15.4-19.3c-4.3-0.5-8.5,0.6-12,3.1
			c-0.3,0.2-0.7,0.5-1,0.7l-0.4,0.3l-0.8,0.6l-1.3,1l-1,0.9c-0.3,0.3-0.7,0.6-1,0.9c-0.6,0.6-1.1,1.2-1.7,1.7l-1.5,1.8
			c-0.5,0.6-0.9,1.1-1.3,1.7c-0.4,0.6-0.8,1.2-1.2,1.7l-1,1.7c-0.2,0.3-0.3,0.6-0.5,0.9l-0.4,0.8c-2.2,4.3-3.8,8.9-4.8,13.7
			c-0.3,1.1-0.5,2.2-0.6,3.4c-0.1,1.1-0.3,2.2-0.4,3.3c-0.2,2-0.2,3.9-0.2,5.8c-0.8,0.5-1.6,1-2.4,1.5c-1.8,1.3-3.5,2.7-5,4.4
			c-0.7,0.8-1.4,1.7-2.1,2.6c-0.6,0.9-1.2,1.8-1.7,2.8c-1.8,3.4-3.1,7.1-3.7,10.9c-0.5,3.1-0.6,6.3-0.3,9.4c0,0.7,0.1,1.4,0.2,2.1
			c0.1,1,0.2,2,0.5,3c0,0,0,0.1,0,0.1c0.2,1,0.4,2,0.6,2.9c0.3,1.3,0.7,2.5,1.1,3.8c0.2,0.6,0.4,1.3,0.7,1.9l0.4,1l0.6,1.3
			c0.4,1,0.9,1.9,1.5,2.8c6.3,12.9,13.3,16.8,8.7,28.2c-48,90.1-103.9,130.5-104.5,131c-4.7,3.8-6.9,15.3-2.7,25.3
			c6.5,15.7,22.1,9.1,25.4,6.7c2.8-2,61.8-44.6,113.3-138.6c0.2-0.4,0.5-0.9,0.7-1.3l0,0c1.9-3.6,3.9-7.2,5.8-10.9
			c8-14.1,9.4-9.9,27.4-20.3C678.1,229.5,701.9,198.5,695.4,174.6z" style="fill:#10294C;"/>
		<path d="M689.3,192.8c-0.6-0.5-1.5-0.4-2,0.2c0,0,0,0,0,0c-1.4,1.7-2.6,3.5-3.8,5.3c-1.1,1.8-2.2,3.7-3.3,5.6
			c-1.9,3.7-4,7.3-6.3,10.8c-1,1.5-2.3,2.8-3.8,3.8c-3,1.8-6.7,1.8-9.8,0.2c-1.5-0.8-2.8-2-3.7-3.5c-0.5-0.7-0.8-1.5-1.1-2.4
			c-0.1-0.4-0.3-0.8-0.3-1.3c-0.1-0.5-0.2-1-0.3-1.5c-0.2-1-0.3-2-0.4-3c-0.1-0.5-0.1-1-0.1-1.5c0-0.5-0.1-1-0.1-1.5
			c-0.1-2,0-4.1,0.1-6.1c0.2-2,0.4-4.1,0.8-6.1c1.5-8,4.8-15.7,10.3-21.8c0.6-0.6,0.6-1.5,0-2.1s-1.5-0.6-2.1,0
			c-1.6,1.5-3.1,3.1-4.5,4.9c-0.7,0.9-1.3,1.8-1.9,2.7c-0.6,0.9-1.2,1.9-1.7,2.9c-2.1,3.9-3.6,8.1-4.5,12.5
			c-0.4,1.6-0.6,3.3-0.8,4.9c-0.1,0.1-0.1,0.2-0.2,0.2c-0.9,1.4-1.8,2.8-2.9,4.1c-1,1.2-2.1,2.2-3.4,2.9c-2.6,1.4-5.6,1.8-8.4,1
			c-3.5-1-6.3-3.6-7.4-7c-0.2-0.7-0.4-1.5-0.6-2.2c-0.2-1-0.4-1.9-0.5-2.9c0.3-0.3,0.5-0.6,0.8-0.9c2.2-2.8,3.4-6.4,3.4-10
			c0-3.2-1.1-6.3-2.9-8.8c0.1-0.6,0.3-1.2,0.4-1.8c1.6-6.5,4.6-12.5,8.7-17.7l0,0c0.5-0.6,0.4-1.5-0.3-2c-0.6-0.4-1.3-0.4-1.8,0.1
			c-2.5,2.6-4.7,5.4-6.5,8.5c-1.7,3-3.1,6.1-4.2,9.4c-1.9-1.3-4-2.2-6.2-2.8c-3.2-0.8-6.4-1.1-9.7-0.9c-1.6,0.1-3.2,0.3-4.8,0.6
			c-1.6,0.3-3.1,0.7-4.6,1.3c-0.7,0.3-1.1,1.1-0.9,1.8c0.2,0.7,1,1.1,1.7,0.9l0,0c1.4-0.3,2.8-0.5,4.3-0.6c1.4-0.1,2.9-0.1,4.3-0.1
			c2.9,0.1,5.7,0.5,8.4,1.3c2.5,0.7,4.8,2.1,6.6,4.1c1.6,1.9,2.5,4.3,2.6,6.8c0,2.5-0.8,5-2.3,7.1c-0.7,1-1.7,1.9-2.7,2.6
			c-0.5,0.4-1.1,0.7-1.6,0.9c-0.6,0.3-1.3,0.5-2,0.8c-0.7,0.3-1.4,0.5-2.3,0.9c-0.5,0.2-0.9,0.5-1.3,0.7c-0.6,0.4-1.1,0.9-1.4,1.6
			c-0.3,0.6-0.5,1.2-0.5,1.9c0,0.5,0,1,0.1,1.5c0.1,0.4,0.2,0.9,0.3,1.2l0.1,0.6l0.2,0.6c0.5,1.5,0.9,2.9,1.3,4.3
			c0.4,1.4,0.6,2.9,0.8,4.3l0,0c0.1,0.8,0.9,1.4,1.7,1.2c0.7-0.1,1.3-0.8,1.3-1.5c-0.1-1.6-0.3-3.2-0.6-4.7c-0.3-1.6-0.7-3.1-1-4.5
			l-0.1-0.5l-0.1-0.5c0-0.4-0.1-0.7-0.1-1c-0.1-0.6,0.1-1,0.1-1.1s0,0,0.1-0.1c0.2-0.1,0.5-0.2,0.7-0.3c0.6-0.2,1.3-0.4,2.1-0.6
			c0.8-0.2,1.5-0.5,2.3-0.8c0.4-0.2,0.8-0.3,1.2-0.5c0,0.2,0.1,0.5,0.1,0.7c0.2,0.9,0.5,1.9,0.8,2.8c0.3,1,0.8,1.9,1.3,2.8
			c3.2,5.4,9.4,8.2,15.6,7.1c2-0.4,3.9-1.1,5.5-2.2c1.6-1.1,2.9-2.4,4-4c0,0.6,0,1.2,0,1.8s0,1.1,0.1,1.7c0.1,0.6,0,1.1,0.1,1.7
			c0.1,1.1,0.3,2.2,0.4,3.3c0.1,0.6,0.2,1.1,0.3,1.6c0.1,0.6,0.3,1.2,0.5,1.8c0.4,1.2,1,2.3,1.6,3.4c1.4,2.2,3.3,3.9,5.5,5.1
			c4.6,2.4,10.1,2.2,14.5-0.5c2-1.4,3.8-3.2,5-5.3c2.3-3.7,4.3-7.5,6.1-11.5c0.9-1.9,1.8-3.8,2.8-5.6s2.1-3.6,3.2-5.3
			C690,193.9,689.8,193.2,689.3,192.8z" style="fill:#00ACDC;"/>
		<path d="M608.8,172.4c10-0.2,11.6,10.8,0.7,10.8C602.1,183.2,603.1,172.5,608.8,172.4z" style="fill:#00ACDC;"/>
		<path d="M644.1,191c-2.5,7.7-13.4,5.2-10.4-3.1C635.7,182.3,645.5,186.6,644.1,191z" style="fill:#00ACDC;"/>
		<path d="M670.9,206.1c-0.9,8-12.1,7.7-10.8-0.9C660.9,199.2,671.4,201.5,670.9,206.1z" style="fill:#00ACDC;"/>
		<path d="M672,171.8c1.1-0.1,2.3,0,3.4,0.3c1.1,0.3,2.2,0.7,3.1,1.2c1,0.5,1.9,1.2,2.7,2c0.8,0.8,1.5,1.7,2,2.8
			c0.4,0.8,0,1.7-0.7,2.1c0,0,0,0,0,0c-0.4,0.2-0.8,0.2-1.2,0l-0.1-0.1c-0.9-0.4-1.8-0.8-2.6-1.2l-2.4-1.3c-0.8-0.5-1.6-0.9-2.4-1.4
			c-0.8-0.5-1.6-1-2.4-1.6l-0.2-0.2c-0.6-0.5-0.7-1.4-0.2-2.1c0,0,0,0,0,0C671.2,172.1,671.6,171.9,672,171.8z" style="fill:#00ACDC;"/>
		<path d="M619.3,132.3c0.8-0.3,1.7-0.3,2.6-0.2c0.8,0.1,1.7,0.3,2.4,0.6c0.8,0.3,1.5,0.8,2.1,1.3
			c0.7,0.6,1.2,1.3,1.6,2.1c0.4,0.8,0,1.8-0.8,2.1c-0.3,0.1-0.5,0.2-0.8,0.1h-0.2c-0.7-0.1-1.4-0.3-2-0.5c-0.6-0.2-1.2-0.4-1.8-0.7
			s-1.1-0.6-1.7-0.9c-0.6-0.3-1.2-0.7-1.7-1.2l-0.3-0.3c-0.6-0.6-0.6-1.5,0-2.1C618.9,132.5,619.2,132.4,619.3,132.3L619.3,132.3z" style="fill:#00ACDC;"/>
		<path d="M609.5,139.6c1.7-0.1,3.3,0,5,0.3c1.6,0.3,3.2,0.8,4.7,1.5c1.5,0.6,3,1.5,4.3,2.4c1.4,1,2.6,2.2,3.6,3.5
			c0.5,0.7,0.4,1.6-0.3,2.1c-0.4,0.3-1,0.4-1.5,0.2h-0.1c-1.4-0.6-2.7-1.3-4-1.9s-2.6-1.2-3.9-1.8c-1.3-0.6-2.7-1.2-4-1.7
			c-1.4-0.6-2.8-1.1-4.1-1.8l-0.1-0.1c-0.7-0.3-1-1.2-0.7-1.9C608.6,139.9,609,139.6,609.5,139.6z" style="fill:#00ACDC;"/>
		<path d="M641.8,158.8c0.8-0.2,1.7-0.2,2.5,0c0.8,0.2,1.6,0.4,2.3,0.8c0.7,0.4,1.4,0.9,1.9,1.5c0.6,0.6,1,1.3,1.3,2.1
			c0.3,0.9-0.2,1.8-1,2.1c0,0,0,0,0,0c-0.3,0.1-0.5,0.1-0.8,0l-0.2,0c-0.6-0.1-1.3-0.3-1.9-0.6c-0.6-0.2-1.1-0.5-1.6-0.8
			c-0.5-0.3-1.1-0.6-1.6-1c-0.5-0.4-1-0.8-1.5-1.3l-0.3-0.3c-0.5-0.7-0.4-1.6,0.2-2.1c0,0,0,0,0,0
			C641.4,159,641.6,158.9,641.8,158.8z" style="fill:#00ACDC;"/>
		<path d="M644.3,149.4c1.5,0,2.9,0.2,4.3,0.6c1.4,0.4,2.7,0.9,4,1.6c1.3,0.7,2.5,1.5,3.5,2.5c1.1,1,2,2.1,2.7,3.4
			c0.4,0.7,0.2,1.7-0.6,2.1c-0.4,0.2-1,0.3-1.4,0.1l-0.1-0.1c-1.2-0.6-2.2-1.3-3.3-1.9s-2.1-1.2-3.3-1.8l-3.3-1.8
			c-1.1-0.6-2.2-1.2-3.3-1.9l-0.1-0.1c-0.7-0.5-0.8-1.4-0.4-2C643.5,149.7,643.9,149.4,644.3,149.4L644.3,149.4z" style="fill:#00ACDC;"/>
	</g>
</g>
</svg>
