<svg xmlns="http://www.w3.org/2000/svg" id="remote-working_track-statistics" viewBox="0 0 1080 1080"><title>remote-working_track-statistics</title><path d="M735.48,860a3,3,0,0,1-2.92-2.32L721,807.79,685.68,800a3,3,0,0,1,1.29-5.86l37.13,8.17a3,3,0,0,1,2.27,2.25l11.39,48.95L785,844.73a3,3,0,0,1,1.1,5.9L736,860A2.56,2.56,0,0,1,735.48,860Z" style="fill:#10294c"/><rect width="22.52" height="22.52" x="672.53" y="783.95" rx="5.82" ry="5.82" transform="translate(-4.06 1586.9) rotate(-98.32)" style="fill:#10294c"/><rect width="19.19" height="19.19" x="778.26" y="836.96" rx="5.82" ry="5.82" transform="translate(615.01 1990.02) rotate(-128.46)" style="fill:#10294c"/><rect width="27.29" height="27.29" x="709.81" y="790.62" rx="5.82" ry="5.82" transform="translate(-259.77 1255.37) rotate(-72.67)" style="fill:#10294c"/><rect width="34.7" height="34.7" x="718.15" y="836.38" rx="5.82" ry="5.82" transform="translate(-277.9 360.95) rotate(-23.32)" style="fill:#00aee0"/><rect width="628.63" height="380.24" x="159.56" y="317.38" rx="7.43" ry="7.43" style="fill:#10294c"/><path d="M920.27,377.79h-205a20.45,20.45,0,0,1-20.43-20.43V185.52a20.45,20.45,0,0,1,20.43-20.43h205a20.45,20.45,0,0,1,20.43,20.43V357.36A20.45,20.45,0,0,1,920.27,377.79Zm-205-206.7a14.44,14.44,0,0,0-14.43,14.43V357.36a14.45,14.45,0,0,0,14.43,14.43h205a14.45,14.45,0,0,0,14.43-14.43V185.52a14.44,14.44,0,0,0-14.43-14.43Z" style="fill:#ffb400"/><rect width="219.9" height="186.7" x="707.8" y="178.09" rx="7.43" ry="7.43" style="fill:#ff3a00"/><rect width="159.63" height="104.45" x="838.52" y="409.87" rx="7.49" ry="7.49" style="fill:#fff"/><path d="M990.66,517.31H846a10.49,10.49,0,0,1-10.49-10.49V417.36A10.49,10.49,0,0,1,846,406.87H990.66a10.49,10.49,0,0,1,10.49,10.49v89.46A10.49,10.49,0,0,1,990.66,517.31ZM846,412.87a4.49,4.49,0,0,0-4.49,4.49v89.46a4.49,4.49,0,0,0,4.49,4.49H990.66a4.49,4.49,0,0,0,4.49-4.49V417.36a4.49,4.49,0,0,0-4.49-4.49Z" style="fill:#10294c"/><rect width="125.12" height="65.04" x="646.78" y="501.87" rx="7.43" ry="7.43" style="fill:#ff3a00"/><polygon points="664.35 551.24 675.05 532.25 685.74 551.24 664.35 551.24" style="fill:#ffb400"/><path d="M690.88,554.24H659.22l15.83-28.1Zm-21.39-6h11.12l-5.56-9.88Z" style="fill:#10294c"/><polygon points="662.99 538.96 675.05 517.55 687.11 538.96 662.99 538.96" style="fill:#ffb400"/><path d="M692.24,542H657.86l17.19-30.52Zm-24.12-6H682l-6.92-12.29Z" style="fill:#10294c"/><path d="M757.47,521h-52.7a3,3,0,0,1,0-6h52.7a3,3,0,0,1,0,6Z" style="fill:#10294c"/><path d="M757.47,542.85H722.05a3,3,0,0,1,0-6h35.42a3,3,0,0,1,0,6Z" style="fill:#10294c"/><path d="M712.41,541.51h-7.64a3,3,0,0,1,0-6h7.64a3,3,0,1,1,0,6Z" style="fill:#10294c"/><path d="M757.47,531.94h-16.8a3,3,0,0,1,0-6h16.8a3,3,0,0,1,0,6Z" style="fill:#10294c"/><path d="M729.53,531.94H704.77a3,3,0,0,1,0-6h24.76a3,3,0,0,1,0,6Z" style="fill:#10294c"/><path d="M747.5,553.75H704.77a3,3,0,0,1,0-6H747.5a3,3,0,0,1,0,6Z" style="fill:#10294c"/><path d="M919.69,627.88l67.94,29.76a76.65,76.65,0,0,0-67.94-103.92Z" style="fill:#ff3a00"/><path d="M912.34,622.07V553.72a76.37,76.37,0,0,0-50.92,22.77Z" style="fill:#00aee0"/><path d="M914.54,633.65l-.29-.15-.15-.09a3.08,3.08,0,0,1-.5-.37l0,0L856.52,582a76.65,76.65,0,1,0,128.16,82.41Z" style="fill:#10294c"/><path d="M902.46,770.84h-42.7a4,4,0,0,1,0-8h38.72l.4-77a4,4,0,0,1,4-4h0a4,4,0,0,1,4,4l-.42,80.93A4,4,0,0,1,902.46,770.84Z" style="fill:#ffb400"/><path d="M963.68,668.67a4.06,4.06,0,0,0-2.23-2.53L924.4,649.92a4,4,0,0,0-5.54,4.4l6.41,34.48a4,4,0,0,0,3.93,3.27l.35,0a44.59,44.59,0,0,0,33.63-20A4,4,0,0,0,963.68,668.67Z" style="fill:#ffb400"/><path d="M682.69,508.74a3,3,0,0,1-3-3V468.93l-39.26-39.26a3,3,0,0,1,4.24-4.24l40.14,40.14a3,3,0,0,1,.88,2.12v38.05A3,3,0,0,1,682.69,508.74Z" style="fill:#ff3a00"/><rect width="146.9" height="81.86" x="723.87" y="728.49" rx="7.43" ry="7.43" style="fill:#ffb400"/><path d="M853.74,745.84H813.82a3,3,0,0,1,0-6h39.92a3,3,0,0,1,0,6Z" style="fill:#10294c"/><path d="M799,745.84h-57.7a3,3,0,0,1,0-6H799a3,3,0,0,1,0,6Z" style="fill:#10294c"/><path d="M853.74,785.12H833.53a3,3,0,0,1,0-6h20.21a3,3,0,0,1,0,6Z" style="fill:#fff"/><path d="M824.1,785.12H793.82a3,3,0,0,1,0-6H824.1a3,3,0,0,1,0,6Z" style="fill:#10294c"/><path d="M779,785.12h-37.7a3,3,0,0,1,0-6H779a3,3,0,0,1,0,6Z" style="fill:#10294c"/><path d="M853.74,758.94H831.2a3,3,0,0,1,0-6h22.54a3,3,0,0,1,0,6Z" style="fill:#10294c"/><path d="M815.11,758.94H774.93a3,3,0,1,1,0-6h40.18a3,3,0,1,1,0,6Z" style="fill:#fff"/><path d="M758.9,758.94H741.32a3,3,0,0,1,0-6H758.9a3,3,0,1,1,0,6Z" style="fill:#10294c"/><path d="M838.31,772h-97a3,3,0,1,1,0-6h97a3,3,0,0,1,0,6Z" style="fill:#10294c"/><path d="M818.6,798.22H741.32a3,3,0,1,1,0-6H818.6a3,3,0,1,1,0,6Z" style="fill:#10294c"/><rect width="12" height="56.52" x="757.75" y="279.82" style="fill:#ffb400"/><rect width="12" height="13.17" x="757.75" y="266.65" style="fill:#fff"/><rect width="12" height="74.96" x="780.41" y="261.38" style="fill:#ffb400"/><rect width="12" height="27.76" x="780.41" y="233.62" style="fill:#fff"/><rect width="12" height="47.3" x="803.06" y="289.04" style="fill:#ffb400"/><rect width="12" height="36.98" x="803.06" y="252.06" style="fill:#fff"/><rect width="12" height="28.86" x="825.72" y="307.49" style="fill:#ffb400"/><rect width="12" height="27.76" x="825.72" y="279.73" style="fill:#fff"/><rect width="12" height="84.19" x="848.38" y="252.16" style="fill:#ffb400"/><rect width="12" height="36.98" x="848.38" y="215.17" style="fill:#fff"/><rect width="12" height="111.85" x="871.04" y="224.49" style="fill:#ffb400"/><rect width="12" height="15.77" x="871.04" y="208.72" style="fill:#fff"/><polygon points="898.88 340.34 735.57 340.34 735.57 208.72 743.57 208.72 743.57 332.34 898.88 332.34 898.88 340.34" style="fill:#fff"/><circle cx="748.97" cy="576.65" r="13.89" style="fill:#ffb400"/><path d="M749,593.54a16.89,16.89,0,1,1,16.89-16.89A16.92,16.92,0,0,1,749,593.54Zm0-27.78a10.89,10.89,0,1,0,10.89,10.89A10.91,10.91,0,0,0,749,565.76Z" style="fill:#10294c"/><circle cx="711.59" cy="576.65" r="13.89" style="fill:#00aee0"/><path d="M711.59,593.54a16.89,16.89,0,1,1,16.89-16.89A16.91,16.91,0,0,1,711.59,593.54Zm0-27.78a10.89,10.89,0,1,0,10.89,10.89A10.91,10.91,0,0,0,711.59,565.76Z" style="fill:#10294c"/><path d="M542,384.38a80.57,80.57,0,0,1-73.49-47.82l21.94-9.74a56.43,56.43,0,0,0,91,17.46l16.79,17.15A80.83,80.83,0,0,1,542,384.38Z" style="fill:#fff"/><path d="M598.21,361.43l-16.79-17.15a56.64,56.64,0,0,0,12.1-63.18A56,56,0,0,0,572,256.2l12.73-20.35a80.41,80.41,0,0,1,13.53,125.58Z" style="fill:#ff3a00"/><path d="M485.92,298l-23.87-2.56a80.4,80.4,0,0,1,122.63-59.6L572,256.2a56.39,56.39,0,0,0-86,41.81Z" style="fill:#10294c"/><path d="M468.52,336.56a80.38,80.38,0,0,1-6.47-41.11L485.92,298a56.32,56.32,0,0,0,4.54,28.81Z" style="fill:#ffb400"/><path d="M309.2,246.66a47.86,47.86,0,0,1,40.18-73.85v12a35.86,35.86,0,0,0-30.11,55.32Z" style="fill:#10294c"/><path d="M349.38,268.51a47.72,47.72,0,0,1-40.18-21.85l10.07-6.53a35.85,35.85,0,1,0,30.11-55.32v-12a47.85,47.85,0,0,1,0,95.7Z" style="fill:#00aee0"/><path d="M472.35,251.15a3,3,0,0,1-2.13-.88l-23.38-23.38H406a3,3,0,0,1,0-6h42.06a3,3,0,0,1,2.12.87L474.47,246a3,3,0,0,1,0,4.24A3,3,0,0,1,472.35,251.15Z" style="fill:#00aee0"/><rect width="17.62" height="30" x="557.85" y="272.79" style="fill:#ffb400"/><rect width="36.3" height="30" x="508.5" y="272.79" style="fill:#ffb400"/><rect width="24.92" height="16" x="336.92" y="227.22" style="fill:#ff3a00"/><rect width="24.92" height="16" x="348.36" y="204.44" style="fill:#ff3a00"/><rect width="12.57" height="16" x="325.47" y="204.44" style="fill:#ff3a00"/><rect width="584.13" height="58.62" x="181.93" y="617.25" style="fill:#ff3a00"/><path d="M754.07,666.88H193.93a3,3,0,0,1-3-3V629.25a3,3,0,0,1,3-3H754.07a3,3,0,0,1,3,3v34.63A3,3,0,0,1,754.07,666.88Zm-557.14-6H751.07V632.25H196.93Z" style="fill:#10294c"/><path d="M213.93,666.88a3,3,0,0,1-2.12-5.13l34.63-34.62a3,3,0,0,1,4.24,4.24L216.06,666A3,3,0,0,1,213.93,666.88Z" style="fill:#10294c"/><path d="M245,666.88a3,3,0,0,1-2.12-5.13l34.63-34.62a3,3,0,0,1,4.24,4.24L247.14,666A3,3,0,0,1,245,666.88Z" style="fill:#10294c"/><path d="M276.1,666.88a3,3,0,0,1-2.13-5.13l34.63-34.62a3,3,0,1,1,4.24,4.24L278.22,666A3,3,0,0,1,276.1,666.88Z" style="fill:#10294c"/><path d="M307.18,666.88a3,3,0,0,1-2.13-5.13l34.63-34.62a3,3,0,0,1,4.24,4.24L309.3,666A3,3,0,0,1,307.18,666.88Z" style="fill:#10294c"/><path d="M338.26,666.88a3,3,0,0,1-2.13-5.13l34.63-34.62a3,3,0,0,1,4.24,4.24L340.38,666A3,3,0,0,1,338.26,666.88Z" style="fill:#10294c"/><path d="M369.34,666.88a3,3,0,0,1-2.13-5.13l34.63-34.62a3,3,0,0,1,4.24,4.24L371.46,666A3,3,0,0,1,369.34,666.88Z" style="fill:#10294c"/><path d="M400.42,666.88a3,3,0,0,1-2.13-5.13l34.63-34.62a3,3,0,0,1,4.24,4.24L402.54,666A3,3,0,0,1,400.42,666.88Z" style="fill:#10294c"/><path d="M431.5,666.88a3,3,0,0,1-2.12-5.13L464,627.13a3,3,0,0,1,4.24,4.24L433.62,666A3,3,0,0,1,431.5,666.88Z" style="fill:#10294c"/><path d="M462.58,666.88a3,3,0,0,1-2.12-5.13l34.62-34.62a3,3,0,0,1,4.24,4.24L464.7,666A3,3,0,0,1,462.58,666.88Z" style="fill:#10294c"/><path d="M493.66,666.88a3,3,0,0,1-2.12-5.13l34.62-34.62a3,3,0,0,1,4.24,4.24L495.78,666A3,3,0,0,1,493.66,666.88Z" style="fill:#10294c"/><path d="M524.74,666.88a3,3,0,0,1-2.12-5.13l34.62-34.62a3,3,0,0,1,4.24,4.24L526.86,666A3,3,0,0,1,524.74,666.88Z" style="fill:#10294c"/><polygon points="555.82 663.88 590.44 629.25 754.07 629.25 754.07 663.88 555.82 663.88" style="fill:#10294c"/><path d="M193.93,656.46a3,3,0,0,1-2.12-5.12L216,627.13a3,3,0,0,1,4.24,4.24l-24.2,24.21A3,3,0,0,1,193.93,656.46Z" style="fill:#10294c"/><rect width="33.47" height="26.22" x="190.62" y="726.37" style="fill:#ff3a00"/><rect width="103.39" height="26.22" x="87.9" y="726.37" style="fill:#00aee0"/><rect width="8" height="26.22" x="186.62" y="726.37" style="fill:#10294c"/><rect width="93.47" height="26.22" x="190.62" y="767.13" style="fill:#ff3a00"/><rect width="43.39" height="26.22" x="147.9" y="767.13" style="fill:#00aee0"/><rect width="8" height="26.22" x="186.62" y="767.13" style="fill:#10294c"/><rect width="63.47" height="26.22" x="190.62" y="807.88" style="fill:#ff3a00"/><rect width="77.74" height="26.22" x="113.55" y="807.88" style="fill:#00aee0"/><rect width="8" height="26.22" x="186.62" y="807.88" style="fill:#10294c"/><path d="M588,495.27l-8.85-19a12.5,12.5,0,0,1-7.09,3.72l9,19.43A12.57,12.57,0,0,1,588,495.27Z" style="fill:#3fa8f4"/><path d="M561.23,476.42l-27.15,43.49a12.49,12.49,0,0,1,7.07,3.78L568.42,480A12.44,12.44,0,0,1,561.23,476.42Z" style="fill:#3fa8f4"/><path d="M429.5,360.63,350.76,484.34a4,4,0,1,0,6.75,4.29L436.22,365A12.49,12.49,0,0,1,429.5,360.63Z" style="fill:#3fa8f4"/><path d="M529.33,520,448.19,361.65a12.56,12.56,0,0,1-7.15,3.59l81.43,159A12.45,12.45,0,0,1,529.33,520Z" style="fill:#3fa8f4"/><circle cx="532.04" cy="532.25" r="6.52" style="fill:#3fa8f4"/><circle cx="439.29" cy="352.85" r="6.52" style="fill:#3fa8f4"/><path d="M596.71,505a6.52,6.52,0,0,0-12.42,1.19,6.14,6.14,0,0,0-.13,1.29,6.52,6.52,0,0,0,13,0A6.61,6.61,0,0,0,596.71,505Z" style="fill:#3fa8f4"/><path d="M576.65,467.64a6.52,6.52,0,1,0-6.51,6.51A6.52,6.52,0,0,0,576.65,467.64Z" style="fill:#3fa8f4"/><path d="M538.56,532.25a6.52,6.52,0,1,1-6.52-6.52A6.53,6.53,0,0,1,538.56,532.25Z" style="fill:#3fa8f4"/><path d="M317.72,440.61l-18.58-20.37a4,4,0,0,0-6.2.35L232.56,504a12.47,12.47,0,0,1,7.37,3.46l56.61-78.22L311.8,446a4,4,0,0,0,5.92-5.39Z" style="fill:#3fa8f4"/><path d="M190.42,532.59a12.45,12.45,0,0,1,3.83,7l27.54-15a12.49,12.49,0,0,1-3-7.45Z" style="fill:#3fa8f4"/><path d="M188.45,541.77a6.52,6.52,0,1,0-6.52,6.52A6.52,6.52,0,0,0,188.45,541.77Z" style="fill:#3fa8f4"/><circle cx="231.25" cy="516.48" r="6.52" style="fill:#3fa8f4"/><path d="M519.69,422.6l-85.31,14.58-31.12-1.56a4,4,0,0,0-.4,8l31.56,1.58a3.64,3.64,0,0,0,.87-.05L521,430.49a12.14,12.14,0,0,1-1.34-7.89Z" style="fill:#fff"/><path d="M636.31,474.36l-34.74-30.8a12.58,12.58,0,0,1-5.56,5.77l35,31A12.57,12.57,0,0,1,636.31,474.36Z" style="fill:#fff"/><path d="M685.72,445.63l-36.42,29a12.59,12.59,0,0,1,5,6.24l36.08-28.76A12.53,12.53,0,0,1,685.72,445.63Z" style="fill:#fff"/><path d="M579.25,432.26l-34.74-8.71c0,.33,0,.66,0,1a12.42,12.42,0,0,1-2,6.76l35.35,8.87a12.23,12.23,0,0,1,1.34-7.92Z" style="fill:#fff"/><path d="M710.2,442.47a12.48,12.48,0,0,1-2.83,7.5L745,467a12.4,12.4,0,0,1,3.15-7.36Z" style="fill:#fff"/><path d="M697.7,435.5a6.52,6.52,0,1,0,6.52,6.52A6.53,6.53,0,0,0,697.7,435.5Z" style="fill:#fff"/><circle cx="757.47" cy="467.99" r="6.52" style="fill:#fff"/><circle cx="642.55" cy="485.2" r="6.52" style="fill:#fff"/><circle cx="590.26" cy="438.22" r="6.52" style="fill:#fff"/><circle cx="532.04" cy="424.55" r="6.52" style="fill:#fff"/><path d="M311.86,431l-32.73-1.65a4,4,0,0,0-.85.05l-36,5.9a12.49,12.49,0,0,1,1.47,5.87,13.42,13.42,0,0,1-.18,2l35.57-5.82,32.3,1.62a4,4,0,1,0,.4-8Z" style="fill:#fff"/><path d="M220.67,447.87,186.3,490.16a12.55,12.55,0,0,1,6.21,5l34.37-42.29A12.55,12.55,0,0,1,220.67,447.87Z" style="fill:#fff"/><circle cx="181.93" cy="501.88" r="6.52" style="fill:#fff"/><circle cx="231.25" cy="441.2" r="6.52" style="fill:#fff"/><path d="M325.93,459.29a35.34,35.34,0,0,1-54.17-12.56,35.37,35.37,0,1,1,51.74-44.36,35.38,35.38,0,0,1,15.1,23.06" style="fill:#04294f"/><path d="M303.78,469.1a37.52,37.52,0,0,1-33.59-21A37.37,37.37,0,1,1,325.07,401a37.13,37.13,0,0,1,15.5,24.06,2,2,0,0,1-3.94.71A33.16,33.16,0,0,0,322.38,404a1.94,1.94,0,0,1-.69-.81,33.37,33.37,0,1,0-48.81,41.85,2,2,0,0,1,.7.81,33.32,33.32,0,0,0,51.09,11.85,2,2,0,1,1,2.51,3.12A37.45,37.45,0,0,1,303.78,469.1Z" style="fill:#fff"/><path d="M303.78,457.1a25.42,25.42,0,0,1-24-17.23,25.36,25.36,0,1,1,34.9-32.75,7.6,7.6,0,0,0,2.81,3.26,25.36,25.36,0,0,1-13.7,46.72Z" style="fill:#fff"/><path d="M305.67,413.93A14.23,14.23,0,1,0,289,432a14.23,14.23,0,1,0,20.44-13.69A7.2,7.2,0,0,1,305.67,413.93Z" style="fill:#10294c"/><path d="M199.16,339.92a12.26,12.26,0,0,0-24.4,2.35l-28.61,12a14.65,14.65,0,0,0-21.37-1.68l-20.1-12a26.42,26.42,0,0,0-1.25-23.42L143,285l-34.81-46.41a19.24,19.24,0,1,0-6.72,4.37L132,283.65,98.5,310.9a26.49,26.49,0,1,0,2,36.52l20.09,12a14.7,14.7,0,1,0,28.71,2.26l28.62-12a12.26,12.26,0,0,0,21.28-9.72Z" style="fill:#ffb400"/><path d="M136.52,247.57a15.09,15.09,0,1,0-6.5-4.67L69,328.13l35.63,45a23.77,23.77,0,1,0,6.27-5L79,327.89Z" style="fill:#ff3a00"/><path d="M98.5,310.9l-25,20.4,27,16.12a26.46,26.46,0,0,0,4.22-6.79L87.37,330.29l16.06-13.08A26.38,26.38,0,0,0,98.5,310.9Z" style="fill:#10294c"/><circle cx="73.98" cy="328.06" r="7.42" style="fill:#10294c"/><polygon points="116.05 262.41 121.08 269.12 125.97 262.3 120.93 255.59 116.05 262.41" style="fill:#10294c"/><path d="M120.1,365.31a14.66,14.66,0,0,0,22.16,10.74A23.81,23.81,0,0,0,120.1,365.31Z" style="fill:#10294c"/><path d="M900.18,497.07c-9.11,0-12.11-15.08-15.58-32.55-2.63-13.25-6.24-31.41-12.16-31.41-5.43,0-7.62,8.05-10.12,19.43-2.45,11.14-5,22.66-14.57,22.66a3,3,0,0,1,0-6c4.76,0,6.77-9.12,8.71-17.95,2.49-11.32,5.31-24.14,16-24.14,10.84,0,14.34,17.6,18,36.24,2.19,11,5.51,27.72,9.69,27.72,4.88,0,7.16-3.77,10.47-9.94,3.14-5.84,7-13.1,15.75-13.1,5.05,0,7-3.87,9.68-10.25,2.27-5.43,4.83-11.58,11.64-11.58,7.91,0,9,10,10,18.85.55,4.94,1.48,13.19,3.8,13.19,3.39,0,6.55-3.77,9.91-7.77,4.48-5.33,9.55-11.38,17.46-11.38a3,3,0,0,1,0,6c-5.11,0-8.88,4.49-12.87,9.24s-8.32,9.91-14.5,9.91c-7.68,0-8.79-9.84-9.77-18.52-.6-5.38-1.52-13.52-4.06-13.52s-3.86,2.53-6.1,7.89C939.17,466,935.81,474,926.4,474c-4.87,0-7.15,3.77-10.46,9.94C912.8,489.81,908.89,497.07,900.18,497.07Z" style="fill:#00aee0"/><path d="M946.32,501c-8.45,0-13.58-6.33-17.32-11-1.93-2.38-4.11-5.07-5.45-5.07-10.42,0-12.06-12.05-13.51-22.68-1.41-10.42-2.69-17.25-7.34-17.25-6.21,0-10,5.89-14,12.13-4.18,6.49-8.92,13.84-17.23,13.84-5.9,0-8.79,4.43-11.84,9.12-2.82,4.31-6,9.21-11.85,9.21a3,3,0,0,1,0-6c2.47,0,4.2-2.47,6.82-6.49C858,471.56,862.29,465,871.44,465c5,0,8.35-5.14,12.19-11.09,4.49-7,9.59-14.88,19.07-14.88,10.24,0,11.86,11.92,13.29,22.44S918.73,479,923.55,479c4.2,0,7.07,3.54,10.11,7.29,3.48,4.3,7.08,8.74,12.66,8.74,3.49,0,4.67-10.08,5.53-17.43,1.27-10.86,2.59-22.08,11-22.08,4.91,0,8.47,5.21,12.58,11.23s8.58,12.56,13.48,12.56a3,3,0,0,1,0,6c-8.07,0-13.58-8.06-18.43-15.17-2.35-3.43-5.89-8.62-7.63-8.62-3.09,0-4.27,10.09-5.05,16.77C956.5,489.42,955.14,501,946.32,501Z" style="fill:#ff3a00"/><path d="M488.64,580.89A48.09,48.09,0,0,1,482,582c-2.15.24-4.26.39-6.36.5a49.57,49.57,0,0,1-6.33,0c-1.08-.11-2.16-.23-3.29-.45a18.53,18.53,0,0,1-3.51-1l-.07,0a1.15,1.15,0,0,1-.63-1.5,1.21,1.21,0,0,1,.26-.39,15.69,15.69,0,0,1,6.41-3.66,22.71,22.71,0,0,1,7-.94,28,28,0,0,1,7,.94,19.6,19.6,0,0,1,6.64,3,1.3,1.3,0,0,1,.28,1.82,1.26,1.26,0,0,1-.73.5Z" style="fill:#10294c"/><path d="M286.63,946.26c22-1.58,43.94-2.41,65.91-3.07s43.94-1,65.91-1.08,43.94,0,65.91.69q16.47.48,32.95,1.39c11,.61,22,1.3,33,2.41a1.49,1.49,0,0,1,0,3c-11,1.12-22,1.81-33,2.42s-22,1.06-32.95,1.38c-22,.65-43.94.8-65.91.69s-43.94-.42-65.91-1.07-43.94-1.5-65.91-3.08a1.82,1.82,0,0,1,0-3.64Z" style="fill:#10294c"/><path d="M654.48,677.51a3.23,3.23,0,0,0-1.79-2h0c-4.25-2.54-15.51-4.35-28.73-4.35-14.68,0-26.93,2.24-29.86,5.22h0l-.05,0c-.69.6-1.32,2.11-1.86,4.28a20.14,20.14,0,0,0-4.14,1.49,15,15,0,0,0-4.59,3.38,5.67,5.67,0,0,0-.86,1.27,5.43,5.43,0,0,0,2.5,7.25,14.76,14.76,0,0,0,5.09,1.38,252.14,252.14,0,0,0,.12,37.7A15.1,15.1,0,0,0,585,734.7a5.48,5.48,0,0,0-1.22.88,5.42,5.42,0,0,0-.2,7.68,15.29,15.29,0,0,0,4.65,3.26,20.32,20.32,0,0,0,4.94,1.54h.11c.09.19.19.36.28.53a2.81,2.81,0,0,0,.81,1.06h0l.06.05a5.54,5.54,0,0,0,1.24.81c4.54,2.41,15.5,4.12,28.3,4.12,15.39,0,28.11-2.46,30.23-5.66h0C657.81,744.85,660.76,689.08,654.48,677.51Z" style="fill:#00aee0"/><path d="M616.56,715.4a9.73,9.73,0,0,0-2-13.62l-.71-.49A9.47,9.47,0,0,0,610.32,690a29.45,29.45,0,0,0-9.82-4.11,41,41,0,0,0-9.82-1.05,41.71,41.71,0,0,0-9.82,1.22,30.06,30.06,0,0,0-9.82,4.26,9.33,9.33,0,0,0-2.35,2.34,9.2,9.2,0,0,0-.78,1.4c-9.24-3.46-18.11-8.35-25.3-15.17a56.82,56.82,0,0,1-15.12-25c-1.5-5-2.3-10.16-3.31-15.28-1-4.87-2.07-9.71-3.42-14.49a94.15,94.15,0,0,0-8.83-21.67,46.49,46.49,0,0,0-14.15-15.65,35.7,35.7,0,0,0-9.77-4.51,38.45,38.45,0,0,0-5.72-1.18c-1-.12-2-.21-3-.27a3.13,3.13,0,0,0-1.26,0l-.08-.05c1-9.24,2.06-26.53,2.06-57.88,0-57.29-3.61-67.65-3.61-67.65H349.24s-2.71,21-2.71,67.65c0,29.62,1.09,48.87,1.89,59-2.23,0-4.44,0-6.61,0a148.53,148.53,0,0,1-18.62-1.61c-.71-.1-1.36-.25-2.06-.37s-1.37-.23-2-.39l-1.93-.42-1.81-.46a59.91,59.91,0,0,1-6.33-2.05,35.62,35.62,0,0,1-4.68-2.23,18.62,18.62,0,0,1-3.51-2.56,16.27,16.27,0,0,1-3-3.9,20.69,20.69,0,0,1-1.59-3.8c-.16-.69-.32-1.4-.46-2.11a66,66,0,0,1-1-16.66c0-.32.05-.64.08-1a95.44,95.44,0,0,1,1.5-10c.32-1.7.7-3.4,1.11-5.06l.39-1.58a15.4,15.4,0,0,1,7.36-7.17l.18-.1a27,27,0,0,0,7.4-5,24.13,24.13,0,0,0,2.9-3.38,21.38,21.38,0,0,0,1.29-2c.4-.7.76-1.44,1.1-2.19a23.93,23.93,0,0,0,1.95-9.78,27.44,27.44,0,0,0-1.66-8.73,33.2,33.2,0,0,0-3.4-6.77,38,38,0,0,0-4.24-5.36,32.73,32.73,0,0,0-5-4.36,6.74,6.74,0,0,0-1.94-.9c.73-3.27,1.43-6.53,2-9.8.95-5,1.85-10,2.61-15.07.36-2.55.73-5.09,1-7.67.15-1.28.28-2.58.4-3.88l.15-2,.05-1a6.87,6.87,0,0,0,0-.9l-.23-1.83a6.06,6.06,0,0,0-2.17-3.95,6.34,6.34,0,0,0-8.85,1.08l-.6.76-.64.82c0-.32.09-.64.13-1,.17-1.31.32-2.66.46-4l.19-2,.06-1a6.13,6.13,0,0,0,0-.94l-.12-1.58a6.13,6.13,0,0,0-2.57-4.51,6.3,6.3,0,0,0-8.52,1.35l-.63.78-.71.91c-.46.61-.89,1.23-1.31,1.85-.85,1.24-1.6,2.5-2.35,3.77a75.44,75.44,0,0,0-3.87,7.87,90.82,90.82,0,0,0-5.17,16.59q-.81,3.88-1.32,7.85a6.12,6.12,0,0,0-2.45-1.32,6.45,6.45,0,0,0-7.58,3.86c-.27.65-.48,1.21-.71,1.81s-.48,1.34-.69,2c-.16.5-.31,1-.45,1.49a6.42,6.42,0,0,0-1.91-1.14,6.29,6.29,0,0,0-8.06,3.63c-11.58,15.71-9.81,39.39-.4,54.1a8.76,8.76,0,0,1,1,7.53c-.27.82-.52,1.65-.78,2.47-.26.57-.53,1.12-.78,1.7a99.46,99.46,0,0,0-8.33,31.49,80.24,80.24,0,0,0,.49,18.55,75.28,75.28,0,0,0,5.52,19.37c.67,1.59,1.47,3.13,2.24,4.69s1.68,3,2.56,4.54,1.88,2.91,2.87,4.33,2,2.77,3.12,4.1a86.11,86.11,0,0,0,14.2,13.84,107.67,107.67,0,0,0,15.4,9.94l3.89,2c1.28.62,2.57,1.21,3.87,1.8s2.58,1.13,3.86,1.65,2.58,1.07,3.85,1.54c3.61,1.35,7.18,2.54,10.74,3.6-.46,13.42-.65,28.09-.34,43.34.55,26.94,3.52,53.83,4.32,63.34,0,.34.07.63.12.9l-.25-.09v56.93c0,32.83,3.19,69.6,6.34,89.25h0v0c.1.62.2,1.23.3,1.81a129.42,129.42,0,0,1,1,24.37h0c-.06.53-.11,1.06-.16,1.59-.43,4.85-.6,6.66-.23,10.09a3.43,3.43,0,0,0,2.73,3.14c3.23.53,9.35,1.28,27.07,1.28,18.86,0,27.37-.85,31.84-1.38,9.12-1.16,7.22-7.48-2.61-13.31a34.73,34.73,0,0,1-6.07-5.14c-2.2-2.77-2.43-12-1-20.36h0c2.54-15.77,5-46.68,5-82.35v-59c8.33.29,17.55.45,27.72.45s19.39-.16,27.72-.45v59a481.87,481.87,0,0,0,7.07,80.22h0a131,131,0,0,1,1.41,22.67c-.21,1.67-.4,3.44-.55,5.14-.44,4.85-.61,6.66-.24,10.09a3.43,3.43,0,0,0,2.73,3.14c3.24.53,9.35,1.28,27.07,1.28,18.86,0,27.37-.85,31.84-1.38,9.12-1.16,7.22-7.48-2.61-13.31a34.88,34.88,0,0,1-6-5c-2.5-2.67-3.25-7.37-3-12.73a846.17,846.17,0,0,0,6.43-99.14V761a11.38,11.38,0,0,0,3.24-7c.37-4.1-.7-20.29-.37-28.5h0A112.85,112.85,0,0,0,536.08,739,125,125,0,0,0,576.23,742a28.42,28.42,0,0,0,7.15,3,35.12,35.12,0,0,0,9,1.22,34.44,34.44,0,0,0,9-1,25.73,25.73,0,0,0,9-4.11,10.37,10.37,0,0,0,2-2,9.73,9.73,0,0,0,1.1-9.66l.22-.15a10.11,10.11,0,0,0,2-2,9.72,9.72,0,0,0,.28-11.16C616.19,715.84,616.39,715.63,616.56,715.4Z" style="fill:#ffb400"/><ellipse cx="469.92" cy="490.37" rx="4.83" ry="10.26" style="fill:#10294c"/><path d="M478.13,537.15a34.64,34.64,0,0,1-4.18.27c-1.4,0-2.79,0-4.19-.11s-2.79-.22-4.18-.41a33.78,33.78,0,0,1-4.18-.79,1.86,1.86,0,0,1,0-3.61,33.78,33.78,0,0,1,4.18-.79c1.39-.19,2.79-.31,4.18-.41s2.79-.13,4.19-.11a34.64,34.64,0,0,1,4.18.27,2.87,2.87,0,0,1,0,5.69Z" style="fill:#10294c"/><path d="M421.3,507.5a7.28,7.28,0,0,1-1-2.38,10.76,10.76,0,0,1-.29-2.38,10.14,10.14,0,0,1,.25-2.38,7.38,7.38,0,0,1,.94-2.38,2.15,2.15,0,0,1,3-.66,2.3,2.3,0,0,1,.66.66,7.41,7.41,0,0,1,1,2.38,10.68,10.68,0,0,1,.24,2.38,11.37,11.37,0,0,1-.28,2.38,7.75,7.75,0,0,1-1,2.38,2.07,2.07,0,0,1-3.47,0Z" style="fill:#10294c"/><path d="M306.77,493.65a10.24,10.24,0,0,0-1.59-2.11c0-.15,0-.3,0-.45l.32-6.62c.1-2.22.23-4.46.29-6.7v0a.92.92,0,0,0-1.74-.47,35.21,35.21,0,0,0-2.66,6.48,55.71,55.71,0,0,0-1.62,6.75,61.63,61.63,0,0,0-.85,13.83v.24a2.83,2.83,0,0,0,4.54,2.09,6.4,6.4,0,0,0,.55-.47l.44-.42c.28-.28.54-.58.8-.88a13.33,13.33,0,0,0,1.33-2,10.17,10.17,0,0,0,1.29-4.69A9,9,0,0,0,306.77,493.65Z" style="fill:#10294c"/><path d="M270.57,456.5a18.14,18.14,0,0,1,.26,4.29,30.42,30.42,0,0,1-.47,4,18.58,18.58,0,0,1-1.07,3.82,13,13,0,0,1-2.34,3.76l0,0a.92.92,0,0,1-1.3.06,1.19,1.19,0,0,1-.15-.18,9.24,9.24,0,0,1-1.41-4.46,13.28,13.28,0,0,1,.46-4.32,17.83,17.83,0,0,1,1.57-4,12.79,12.79,0,0,1,2.77-3.59,1,1,0,0,1,1.45.09,1,1,0,0,1,.24.48Z" style="fill:#10294c"/><path d="M296.92,432.25c-.84,2.73-1.57,5.59-2.27,8.37s-1.35,5.6-2,8.41-1.27,5.65-2.09,8.46c-.4,1.42-.82,2.83-1.33,4.24a30.38,30.38,0,0,1-1.72,4.26v0a.78.78,0,0,1-1.06.34.8.8,0,0,1-.41-.51,30.66,30.66,0,0,1-.68-4.62c-.07-1.53-.08-3.07,0-4.59a44.82,44.82,0,0,1,1.51-9,46.36,46.36,0,0,1,3.18-8.68,33.39,33.39,0,0,1,2.33-4.05,19.24,19.24,0,0,1,3.08-3.68.92.92,0,0,1,1.3.07.9.9,0,0,1,.2.89Z" style="fill:#10294c"/><path d="M258.49,464.56a6.64,6.64,0,0,1,.88,2.33,6,6,0,0,1,0,2,3.61,3.61,0,0,1-.69,1.78,6.06,6.06,0,0,1-2.1,1.71l-.05,0a1.3,1.3,0,0,1-1.42-.12,4.36,4.36,0,0,1-1.65-2.41,4.19,4.19,0,0,1,.08-2.28,5.82,5.82,0,0,1,1.06-2,5.75,5.75,0,0,1,2.14-1.62,1.31,1.31,0,0,1,1.64.52Z" style="fill:#10294c"/><path d="M287,417.55c2.48-4,8.36-.88,6.55,3.19S283.59,422.94,287,417.55Z" style="fill:#ff3a00"/><path d="M298.77,430c2.48-4,8.37-.88,6.56,3.18S295.41,435.34,298.77,430Z" style="fill:#ff3a00"/><path d="M275.93,442.4a5.94,5.94,0,0,1,2.26-1.08,7,7,0,0,1,2.37-.2,5.45,5.45,0,0,1,2.37.68,3.74,3.74,0,0,1,1.8,2.11.64.64,0,0,1-.43.8h0l-.09,0a10.45,10.45,0,0,1-2.2.45,7.63,7.63,0,0,1-1.9-.12,12.53,12.53,0,0,1-2-.48,8.56,8.56,0,0,1-2.1-1l0,0a.72.72,0,0,1-.21-1A.63.63,0,0,1,275.93,442.4Z" style="fill:#10294c"/><path d="M293.75,447.46a4.94,4.94,0,0,1,2.12-1,6.21,6.21,0,0,1,2.19-.11,4.8,4.8,0,0,1,2.08.72,3.86,3.86,0,0,1,1.55,1.91.71.71,0,0,1-.37.88l0,0a5.72,5.72,0,0,1-3.88.4,10.7,10.7,0,0,1-1.72-.55,8.87,8.87,0,0,1-1.81-1l-.09-.07a.73.73,0,0,1-.14-1Z" style="fill:#10294c"/><path d="M278.88,437.65a3.09,3.09,0,0,1,1.28-1.06,2.92,2.92,0,0,1,1.39-.26,2.38,2.38,0,0,1,1.41.5,2.28,2.28,0,0,1,.91,1.74.85.85,0,0,1-.36.71l-.18.12a8.55,8.55,0,0,1-1.3.82,1.45,1.45,0,0,1-.94.06,3.2,3.2,0,0,1-1-.42,4.43,4.43,0,0,1-1.11-1l-.08-.1A.92.92,0,0,1,278.88,437.65Z" style="fill:#10294c"/><path d="M297.24,525.79a5,5,0,0,1-1.43,2.13,4.81,4.81,0,0,1-1.89,1,3.51,3.51,0,0,1-2.13,0,4.12,4.12,0,0,1-2.2-1.7,1.38,1.38,0,0,1-.1-1.41l0-.06a5.68,5.68,0,0,1,1.55-2.06,3,3,0,0,1,1.58-.63,5.07,5.07,0,0,1,1.76.09,6.62,6.62,0,0,1,2.13.91l.18.11A1.31,1.31,0,0,1,297.24,525.79Z" style="fill:#10294c"/><path d="M575.66,946.87c3.51-.55,7-.92,10.54-1.26s7-.6,10.54-.8q10.53-.63,21.07-.71c7-.07,14.05,0,21.07.46A157.84,157.84,0,0,1,660,947.1a1,1,0,0,1,.78,1.18,1,1,0,0,1-.78.79,159.47,159.47,0,0,1-21.08,2.53c-7,.43-14,.54-21.07.46s-14-.28-21.07-.7c-3.52-.21-7-.46-10.54-.81s-7-.71-10.54-1.26a1.22,1.22,0,0,1,0-2.42Z" style="fill:#10294c"/><path d="M210.83,946.87a33,33,0,0,1,7.39-2.06,51.47,51.47,0,0,1,7.4-.71,36.76,36.76,0,0,1,7.39.46,22.57,22.57,0,0,1,7.39,2.54,1.13,1.13,0,0,1,.42,1.55,1.21,1.21,0,0,1-.42.42A22.78,22.78,0,0,1,233,951.6a36,36,0,0,1-7.39.46,51.45,51.45,0,0,1-7.4-.7,32.47,32.47,0,0,1-7.39-2.07,1.31,1.31,0,0,1-.7-1.72A1.33,1.33,0,0,1,210.83,946.87Z" style="fill:#10294c"/><path d="M436.75,766.49V816.8c0-16.54-55.44-17.18-55.44,0V766.49c8.33.29,17.55.45,27.72.45S428.42,766.78,436.75,766.49Z" style="fill:#ffb400"/><path d="M596.68,746.43a6.74,6.74,0,0,1,2.15-.7,7.61,7.61,0,0,1,2,0,5.36,5.36,0,0,1,1.92.53,4.91,4.91,0,0,1,1.78,1.57v0a.7.7,0,0,1-.14,1,4.63,4.63,0,0,1-2.17.94,5.64,5.64,0,0,1-2-.1,7.81,7.81,0,0,1-1.94-.66,6,6,0,0,1-1.81-1.34.75.75,0,0,1,0-1.06.58.58,0,0,1,.15-.11Z" style="fill:#10294c"/><path d="M501.13,725.52a36,36,0,0,1-5.58-2.52c-1.8-1-3.51-2-5.2-3.13s-3.31-2.31-4.92-3.53-3.16-2.5-4.68-3.83a103.83,103.83,0,0,1-16.2-18,84.2,84.2,0,0,1-11.26-21.58,60.46,60.46,0,0,1-3.39-24A1,1,0,0,1,451,648a1,1,0,0,1,.88.7v0c1.14,3.78,2.24,7.46,3.57,11s2.79,7.08,4.4,10.5A140.79,140.79,0,0,0,471.08,690a159.75,159.75,0,0,0,14.24,17.84c1.31,1.39,2.61,2.8,4,4.17s2.73,2.69,4.12,4a87.74,87.74,0,0,0,8.8,7.36l0,0a1.22,1.22,0,0,1-1.1,2.15Z" style="fill:#10294c"/><path d="M410,766.94c61.71,0,92.85-9,92.85-9,.22,24.92-1.64,46.69-1.61,46-31.52,18.53-64.83,12.87-64.83,12.87S437.26,805,409.23,805s-28,11.84-28,11.84-32.51,5.66-64-12.87a357,357,0,0,1,0-46S348.32,766.94,410,766.94Z" style="fill:#00aee0"/><path d="M379.08,818.3a58.9,58.9,0,0,1-15.82,2.44,75.53,75.53,0,0,1-16-1.3,68.26,68.26,0,0,1-15.37-4.75c-1.22-.59-2.42-1.19-3.61-1.82a17.91,17.91,0,0,1-1.75-1c-.57-.35-1.14-.71-1.7-1.08a41.15,41.15,0,0,1-6.35-5,1,1,0,0,1-.05-1.43,1,1,0,0,1,1-.3h.06c5.2,1.19,10,2.73,14.84,4s9.65,2.51,14.52,3.56,9.81,1.87,14.8,2.56,10,1.21,15.21,1.7h0a1.24,1.24,0,0,1,.25,2.41Z" style="fill:#10294c"/><path d="M603.82,679.81a80.63,80.63,0,0,1,10.37-1.55c3.45-.31,6.91-.48,10.37-.53a96.93,96.93,0,0,1,10.36.35,52.44,52.44,0,0,1,10.37,1.9.78.78,0,0,1,.51,1,.81.81,0,0,1-.51.51,52.44,52.44,0,0,1-10.37,1.9,96.93,96.93,0,0,1-10.36.35c-3.46-.05-6.92-.22-10.37-.53a80.63,80.63,0,0,1-10.37-1.55.93.93,0,0,1,0-1.82Z" style="fill:#10294c"/><path d="M619,680.09a22.39,22.39,0,0,0-.12-5.75,9.81,9.81,0,0,0-1.7-4,18.6,18.6,0,0,0-6.63-5.26,14.63,14.63,0,0,1-6.52-7.33,15.77,15.77,0,0,1-.94-8.69,14.51,14.51,0,0,1,3.63-7.38,11.24,11.24,0,0,1,6.68-3.59.91.91,0,0,1,1,.8.9.9,0,0,1,0,.4l0,.07a22.51,22.51,0,0,0-1.28,5.74,14.33,14.33,0,0,0,.38,4.42,9.42,9.42,0,0,0,2.82,5.13,22.2,22.2,0,0,1,6,5.14,17.73,17.73,0,0,1,3.64,7.46,13.68,13.68,0,0,1-.71,8.17,13.25,13.25,0,0,1-4.58,5.7,1.06,1.06,0,0,1-1.49-.26,1,1,0,0,1-.19-.69Z" style="fill:#fff"/><path d="M633.87,648.82c-1.19-.85-2.28-1.59-3.35-2.25-.52-.33-1.06-.63-1.58-.93l-.78-.42a2,2,0,0,1-.44-.26l-.58-.45a12.74,12.74,0,0,1-2-2.12,14.58,14.58,0,0,1-1.39-2.5,14.94,14.94,0,0,1-.86-2.68c-.1-.46-.14-.91-.2-1.37a8,8,0,0,1-.09-1.38,14,14,0,0,1,3.61-10c2.52-2.58,6.21-4,9.74-2.85a.89.89,0,0,1,.56,1.12l0,.07,0,0a71.7,71.7,0,0,0-2.69,7c-.32.86-.55,1.68-.88,2.47-.08.42-.29.81-.34,1.24l-.15.62q0,.32-.09.63a11.63,11.63,0,0,0-.11,2.49c0,.42.09.78.13,1.21a8,8,0,0,0,.32,1.13l.09.3a.51.51,0,0,0,.1.2l.17.25c.22.33.42.68.61,1a16.15,16.15,0,0,1,1,2.16,11.92,11.92,0,0,1,.78,4.62.92.92,0,0,1-1,.88.94.94,0,0,1-.5-.17Z" style="fill:#fff"/><path d="M500.61,757.29c-15.06,2.3-30.14,3.74-45.28,4.58-7.56.46-15.15.67-22.72.89l-5.69.12-5.69,0c-3.79.08-7.58,0-11.37.07-7.59-.06-15.16-.18-22.73-.45S372,762,364.46,761.47s-15.1-1.12-22.63-1.91-15-1.86-22.66-2.82a1,1,0,0,0-.44,1.92h0a228.84,228.84,0,0,0,45.06,9.83,354.9,354.9,0,0,0,46.07,2.39c7.67,0,15.35-.21,23-.67s15.34-1,23-1.85q5.65-.65,11.29-1.46c-.56,3.51-.91,7-1.16,10.48-.31,4.25-.47,8.48-.52,12.71s0,8.44.33,12.68a89.21,89.21,0,0,0,1.14,9.09c-4.35.71-8.71,1.31-13.11,1.91-5.08.72-10.19,1.33-15.47,2.29a1,1,0,0,0-.78.65,1,1,0,0,0,.6,1.32,42.3,42.3,0,0,0,7.91,2,61,61,0,0,0,8.09.76,71.65,71.65,0,0,0,16.19-1.44,76.55,76.55,0,0,0,15.56-4.8,59.62,59.62,0,0,0,13.9-8.42,1.23,1.23,0,0,0-1.14-2.13h0c-5.06,1.55-9.95,3.05-14.87,4.35-4.16,1.06-8.33,2-12.52,2.73.15-.58.3-1.16.43-1.74.5-2.13.85-4.27,1.14-6.41a89.67,89.67,0,0,0,.6-12.89,123.3,123.3,0,0,0-.9-12.86,81,81,0,0,0-2.05-10.81,235.32,235.32,0,0,0,30.63-6.74,1.21,1.21,0,0,0-.53-2.36Z" style="fill:#10294c"/><path d="M377.18,927.89a6.85,6.85,0,0,1,1.46,2.6,7.49,7.49,0,0,1,.33,2.64,5.51,5.51,0,0,1-.7,2.6,4.94,4.94,0,0,1-2.47,2.18,1.16,1.16,0,0,1-1.34-.38l-.07-.09a7.28,7.28,0,0,1-1.32-2.62,5.41,5.41,0,0,1,0-2.3,9,9,0,0,1,.71-2.29,7.92,7.92,0,0,1,1.62-2.34l.05,0a1.22,1.22,0,0,1,1.72,0Z" style="fill:#10294c"/><path d="M495.8,927.89a6.89,6.89,0,0,1,1.47,2.6,7.73,7.73,0,0,1,.33,2.64,5.63,5.63,0,0,1-.7,2.6,5,5,0,0,1-2.48,2.18,1.16,1.16,0,0,1-1.34-.38l-.06-.09a7.28,7.28,0,0,1-1.32-2.62,5.41,5.41,0,0,1,0-2.3,8.58,8.58,0,0,1,.7-2.29,8.11,8.11,0,0,1,1.62-2.34l0,0a1.23,1.23,0,0,1,1.73,0Z" style="fill:#10294c"/><path d="M512.8,438.85a13.5,13.5,0,0,1-4.48,4.1s7.16-31.51-16.41-48.93a1.46,1.46,0,0,0-2.32,1.4c.56,3.45,1,8.43-.67,9.55,0,0-4.18-13.4-16.12-17.21-.91-.3-1.79.71-1.63,1.66.5,3-8.86,14.39-24.19,21.36h0c-1.89.79-3.63,1.56-5.29,2.29h0c-7.47,2.31-7.82-6.4-17.95-7.45a1.26,1.26,0,0,0-1.34,1.66c1.32,3.8,3.05,12.32-8.43,11.32-1.28-.13-2.61-.31-4-.53-5.05-.78-9.75-1.37-14.11-1.71h0c-6-.64-9.13-5.23-10.58-8.23a1.91,1.91,0,0,0-3.2-.36,15.5,15.5,0,0,0-2.66,4.68c-3.1-1.75-5.22-5.13-6.39-7.49a1.92,1.92,0,0,0-3.14-.45,57.37,57.37,0,0,0-14.68,31.28s-6.09-3.51-18.35-4a1.53,1.53,0,0,0-1.48,2.12,14.66,14.66,0,0,1-.21,12.57c-8,14-9.75,44-9,65.13a93.12,93.12,0,0,0,1.39,17l0,.25c0,.09,0,.16.05.24a107.07,107.07,0,0,0,3.17,13,1.21,1.21,0,0,0,2.32,0,40.21,40.21,0,0,1,3.3-8.42c11.38,26,33.75,22.15,53.25,21.69,25.07-.6,26-30.44,26-44.17V499.28c0-11.29,14.39-11.69,14.39,0,0,3.52.53,7.74.53,12.82,0,4.42,15.82,4.42,15.82,0,0-14.82,5.21-39,32.28-40.78a25.37,25.37,0,0,0,7.6-1.69h0c18.95-4.87,28.42-19.29,29.24-29.81A1.46,1.46,0,0,0,512.8,438.85Z" style="fill:#ff3a00"/><path d="M366.6,441.05a12.82,12.82,0,0,1,3-9.1,17.59,17.59,0,0,1,8.27-5.34,22.38,22.38,0,0,1,9.4-.83c.76.12,1.52.24,2.27.39s1.48.4,2.2.63a15,15,0,0,1,2.13.84,21.8,21.8,0,0,1,2,1.09.78.78,0,0,1,.25,1.08.76.76,0,0,1-.53.36h0c-3,.52-5.74.55-8.41.89a49.45,49.45,0,0,0-7.59,1.27,19.05,19.05,0,0,0-6.5,3.1,16.52,16.52,0,0,0-4.74,5.91l0,.06a.93.93,0,0,1-1.25.41A.94.94,0,0,1,366.6,441.05Z" style="fill:#10294c"/><path d="M377.28,440.45a7.22,7.22,0,0,1,2.53-3.12,9.85,9.85,0,0,1,3.59-1.58,8.26,8.26,0,0,1,3.83,0,6.56,6.56,0,0,1,3.45,2.09,1,1,0,0,1-.11,1.42l0,0,0,0A11,11,0,0,1,387.3,441a13.74,13.74,0,0,1-2.82.61c-.93.12-1.84.2-2.83.26s-2,.09-3.33.05h-.07a1.08,1.08,0,0,1-1.05-1.12A1.11,1.11,0,0,1,377.28,440.45Z" style="fill:#10294c"/><path d="M361.88,447.38a10.37,10.37,0,0,0-4.91,1,13.56,13.56,0,0,0-3.61,2.89,46.65,46.65,0,0,0-3.12,4.05,58.37,58.37,0,0,1-3.5,4.84l0,0a.82.82,0,0,1-1.16.09.73.73,0,0,1-.26-.41,12.78,12.78,0,0,1,.15-6.75,14.31,14.31,0,0,1,3.64-6,12,12,0,0,1,6.6-3.47,8.38,8.38,0,0,1,7,2.05,1,1,0,0,1,0,1.36.94.94,0,0,1-.7.29Z" style="fill:#10294c"/><path d="M497.79,434.12a16.38,16.38,0,0,0-.35-2.3c-.09-.38-.18-.76-.29-1.14a11.47,11.47,0,0,0-.42-1.25,3,3,0,0,0-5.23-.56l0,0a18.85,18.85,0,0,1-1.81,2.45,24.53,24.53,0,0,1-2.28,2.28q-1.26,1.1-2.67,2.13c-.94.69-2,1.37-2.94,2l-.09.06a1,1,0,0,0-.41.75.94.94,0,0,0,.91,1,15,15,0,0,0,4-.47,18.09,18.09,0,0,0,3.81-1.42,15.67,15.67,0,0,0,2.05-1.2c0,.55.07,1.11.09,1.67a24.47,24.47,0,0,1-.12,3.51c-.08,1.23-.35,2.44-.55,3.85v.07a.78.78,0,0,0,.14.57.8.8,0,0,0,1.1.19,10.89,10.89,0,0,0,3.06-3.31,13.19,13.19,0,0,0,1.7-4.29A15.28,15.28,0,0,0,497.79,434.12Z" style="fill:#10294c"/><path d="M464.66,422.84a3,3,0,0,0-4.11-.77l-.07.05a27.74,27.74,0,0,1-4.23,2.51,33.33,33.33,0,0,1-4.75,1.82,47.38,47.38,0,0,1-5.13,1.24c-1.75.32-3.58.57-5.36.74h-.07a.9.9,0,0,0-.78.63.92.92,0,0,0,.59,1.16,24.57,24.57,0,0,0,5.79,1.1,31,31,0,0,0,5.93-.14,26.67,26.67,0,0,0,5.9-1.41,34.86,34.86,0,0,1-1.71,5.08c-.33.86-.77,1.65-1.16,2.5s-.87,1.63-1.4,2.4a50.42,50.42,0,0,1-3.45,4.72l0,.06a.74.74,0,0,0-.1.72.76.76,0,0,0,1,.44,18.06,18.06,0,0,0,5.59-3.3,22.55,22.55,0,0,0,2.36-2.33,24.68,24.68,0,0,0,1.95-2.7,24.42,24.42,0,0,0,2.73-6.08l.42-1.62c.12-.54.23-1.09.32-1.64s.16-1.11.22-1.68a16.39,16.39,0,0,0,.09-1.82A2.94,2.94,0,0,0,464.66,422.84Z" style="fill:#10294c"/><path d="M379.15,507.15a.71.71,0,0,0-.83-.6,6.18,6.18,0,0,0-2.4,1.05,22.12,22.12,0,0,0-1.86,1.41c-1.19,1-2.26,2-3.33,3.1s-1.86,2-2.76,3c-.11-.56-.22-1.13-.32-1.69-.2-1-.35-2.08-.52-3.12s-.31-2.1-.43-3.1v0a3,3,0,0,0-.52-1.32,3,3,0,0,0-4.11-.7,16.61,16.61,0,0,0-3.75,3.81,37.12,37.12,0,0,0-2.54,4c-.37.68-.72,1.35-1.06,2a38.62,38.62,0,0,1-1.13-5.44,31.26,31.26,0,0,1-.17-6.12,28.56,28.56,0,0,1,1.15-6.12v0a.92.92,0,0,0-.39-1,.9.9,0,0,0-1.26.28,22.22,22.22,0,0,0-2.77,6.32,27.33,27.33,0,0,0-.91,6.92,32.33,32.33,0,0,0,.66,6.94c.23,1.15.5,2.28.83,3.41.17.56.35,1.12.55,1.67s.4,1.08.69,1.75a2.77,2.77,0,0,0,5,.07l.09-.17c1.25-2.6,2.51-5.16,3.89-7.55.36-.61.72-1.22,1.1-1.8,0,.18.08.36.13.54a39.27,39.27,0,0,0,2.3,6.57l.1.22a2.47,2.47,0,0,0,.88,1,2.36,2.36,0,0,0,3.26-.73l2.33-3.66c.78-1.23,1.6-2.42,2.4-3.63s1.65-2.37,2.49-3.52c.43-.57.87-1.11,1.33-1.63a6.11,6.11,0,0,1,1.32-1.21l.2-.12A.72.72,0,0,0,379.15,507.15Z" style="fill:#10294c"/><path d="M340.24,581.75c0,.12,0,.24,0,.36a17.63,17.63,0,0,0,1.61,5.57,14.48,14.48,0,0,0,1.64,2.6,13.84,13.84,0,0,0,1.11,1.2,11.29,11.29,0,0,0,1.4,1l.26.11a1.24,1.24,0,0,0,1.54-.82v-.06a19.61,19.61,0,0,0,.88-5.73,21.12,21.12,0,0,0-.37-4C346.35,581.88,342.3,581.72,340.24,581.75Z" style="fill:#10294c"/><path d="M313.32,652.2c.21-1.57.39-3.13.51-4.68a49.45,49.45,0,0,0,.11-6.89,27.3,27.3,0,0,0-1.4-7.27v0a1,1,0,0,0-.31-.45,1.14,1.14,0,0,0-1.61.08,14.81,14.81,0,0,0-2.24,3.3,20.14,20.14,0,0,0-1.42,3.54,25.57,25.57,0,0,0-.8,3.65,35,35,0,0,0-.28,3.69c0,.88,0,1.76,0,2.64Z" style="fill:#10294c"/><path d="M629.8,439.75l-36.3,55.56a12.55,12.55,0,0,1,6.81,4.2l36.07-55.2A17,17,0,0,1,629.8,439.75Z" style="fill:#3fa8f4"/><path d="M749.23,434.23,710,411.43a12.46,12.46,0,0,1-4,6.94l39.19,22.77A12.52,12.52,0,0,1,749.23,434.23Z" style="fill:#3fa8f4"/><path d="M757.47,437.12a6.36,6.36,0,0,0-2.44.48,6.51,6.51,0,0,0-4.08,6,6.15,6.15,0,0,0,.06.87,6.52,6.52,0,1,0,6.46-7.39Z" style="fill:#3fa8f4"/><path d="M685.19,408.92l-28.71,9.7a17,17,0,0,1,2.92,7.46l28.29-9.56a12.43,12.43,0,0,1-2.51-7.49S685.19,409,685.19,408.92Z" style="fill:#3fa8f4"/><circle cx="697.7" cy="409.03" r="6.52" style="fill:#3fa8f4"/><path d="M642.5,417.32a11.08,11.08,0,1,0,11.07,11.07A11.09,11.09,0,0,0,642.5,417.32Z" style="fill:#3fa8f4"/></svg>