<?xml version="1.0" encoding="iso-8859-1"?>
<!-- Generator: Adobe Illustrator 23.0.2, SVG Export Plug-In . SVG Version: 6.00 Build 0)  -->
<svg version="1.1" id="payment_processed" xmlns="http://www.w3.org/2000/svg" xmlns:xlink="http://www.w3.org/1999/xlink" x="0px"
	 y="0px" viewBox="0 0 1080 1080" style="enable-background:new 0 0 1080 1080;" xml:space="preserve">
<g>
	<path style="fill:#FDB813;" d="M349.3,780.16c-0.933-1.336-2.763-1.682-4.12-0.78L322.89,793l0,0c-2,1-3.55-3.12-1.3-4.47
		l6.68-4.13c1.411-0.892,1.855-2.746,1-4.18c-0.839-1.429-2.677-1.907-4.106-1.068c-0.005,0.003-0.009,0.005-0.014,0.008l-4.68,2.84
		c-2.52,1.52-4-1-4.08-4.4v-0.25c0-0.93-0.08-1.85-0.13-2.78l0,0c0-0.47-0.06-1-0.1-1.42l0,0c-0.22-3.75,0.8-6.82,4.16-8.84l0,0
		l8.49-5.1c1.863-1.187,2.411-3.66,1.224-5.523c-1.141-1.791-3.483-2.378-5.334-1.337l-5.91,3.55c-2.19,1.31-4.42,0.7-4.89-2.26l0,0
		c-0.17-1-0.35-2-0.54-3c-0.48-3.79,0.56-6.58,3-8.05l21.94-13.22c1.433-0.853,1.903-2.707,1.05-4.14
		c-0.853-1.433-2.707-1.903-4.14-1.05l-17,10.2l0,0c-1.71,1-3.44-1.77-1.83-2.74l7.43-4.47c1.863-1.187,2.411-3.66,1.224-5.523
		c-1.141-1.791-3.483-2.378-5.334-1.337l-7.18,4.31c-3.93,2.36-6.8,0.75-8.32-2.44c-0.418-0.936-0.896-1.845-1.43-2.72
		c-0.41-0.75-0.84-1.48-1.27-2.19c-0.32-0.54-0.65-1.07-1-1.59l0,0l-0.06-0.11c-1.83-3-1.23-6,1.11-7.39l0,0l4.74-2.84
		c1.469-0.766,2.039-2.578,1.272-4.047c-0.766-1.469-2.578-2.039-4.047-1.272c-0.109,0.057-0.214,0.12-0.315,0.19l-4.7,2.85l0,0
		c-3,2-7.48-3-4.23-4.92l16.53-9.94c1.863-1.187,2.411-3.66,1.224-5.523c-1.141-1.791-3.483-2.378-5.334-1.337l-15.53,9.31
		c-5.15,3.09-12.63,3.25-16.34,0.59l0,0l-0.14-0.1l-1.73-1.16c-1.05-0.7-2.11-1.39-3.18-2.05c-0.21-0.15-0.42-0.31-0.66-0.46
		c-3.65-2.36-5.21-5-5.33-7.66c-0.027-1.019,0.129-2.035,0.46-3c0.11-0.34,0.24-0.68,0.38-1c0.484-1.086,1.081-2.118,1.78-3.08
		c0.24-0.33,0.49-0.67,0.76-1c0.54-0.68,1.13-1.35,1.76-2c1-1,2-2,3.08-2.94s2.26-1.89,3.44-2.79c0.78-0.6,1.58-1.18,2.38-1.75
		s1.6-1.13,2.39-1.66c1.59-1.07,3.14-2.06,4.57-3c0.234-0.148,0.458-0.311,0.67-0.49l0.25-0.22l0.4-0.37
		c0.11-0.11,0.21-0.23,0.32-0.35l0.3-0.34l0.36-0.47l0.23-0.31l0.39-0.59l0.17-0.27l0.42-0.72l0.11-0.22
		c0.15-0.28,0.3-0.56,0.44-0.86l0.06-0.14c0.16-0.33,0.31-0.67,0.46-1l0,0l0,0c1.57-3.11,4.66-7.11,7.32-8.7l7.1-4.27
		c1.863-1.187,2.411-3.66,1.224-5.523c-1.141-1.791-3.483-2.378-5.334-1.337l-3,1.8c-2.09,1.25-3.34-1.19-3.15-4.13l0,0
		c0-0.61,0.06-1.22,0.08-1.84c0.387-5.039,0.233-10.104-0.46-15.11c-0.005-0.07-0.005-0.14,0-0.21c0-4.81,1.49-9.91,4.81-11.9l0,0
		l9.33-5.59c1.422-0.853,1.883-2.698,1.03-4.12c-0.853-1.422-2.698-1.883-4.12-1.03l-1.06,0.64c-1.05,0.63-2.06,0.67-2.58-1.26l0,0
		c-0.091-0.298-0.219-0.583-0.38-0.85c-1.137-1.889-3.588-2.502-5.48-1.37l-2,1.33c-2.21,1.32-4.5-0.15-5.5-3l0,0
		c-6.39-14.08-15.93-24.43-31-24.13h-0.92h-0.66c-1,0.07-2,0.16-3.11,0.32C191,570,205.63,620.5,205.63,620.5
		s16.52,44.54-4.27,56.75l-1.21,0.56c-0.88,0.41-1.76,0.86-2.62,1.35l-0.31,0.16l0,0c-2.916,1.672-5.622,3.686-8.06,6
		c-3.924,3.752-7.273,8.061-9.94,12.79c-2.51,4.523-4.592,9.27-6.22,14.18c-1.651,4.811-2.987,9.725-4,14.71
		c-0.25,1.24-0.49,2.48-0.74,3.73s-0.4,2.47-0.61,3.71c-0.44,2.49-0.68,4.95-1,7.43c-0.53,4.92-0.95,9.82-1.16,14.6
		c-0.13,2.39-0.22,4.76-0.26,7.08c0,1.17,0,2.32-0.07,3.47v3.41c0,1.12,0,2.24,0,3.34s0,2.19,0.07,3.27c0,2.16,0.1,4.26,0.2,6.3
		c0.14,4.1,0.41,7.94,0.63,11.49s0.52,6.78,0.82,9.63s0.51,5.36,0.76,7.4c0.48,4.08,0.76,6.42,0.76,6.42
		c0.113,1.029,0.366,2.038,0.75,3c0.46,6.09,1.71,15.17,5.15,21.17c1.374,2.395,4.429,3.224,6.825,1.85
		c0.558-0.32,1.048-0.744,1.445-1.25c0.23,0.48,0.47,1,0.73,1.4c1.374,2.393,4.426,3.22,6.82,1.85c0.409-0.237,0.779-0.533,1.1-0.88
		c1.574,3.135,3.644,5.995,6.13,8.47c0.95,8,4.92,48.52-1.52,120.81c-0.91,10.18,6.61,15.16,16.78,16.07c0.56,0,1.12,0.07,1.67,0.07
		c2.563,0.028,5.119-0.264,7.61-0.87l0,0h0.13c0.998-0.256,1.974-0.591,2.92-1c10.44-3.71,18.05-7.28,23.27-10.6l0,0
		c-0.09,1.3-0.19,2.61-0.29,3.93c0,0.22,0,0.44,0,0.66c-0.08,1.11-0.17,2.23-0.26,3.36c0,0.32-0.05,0.64-0.08,1
		c-0.08,1.06-0.17,2.13-0.26,3.21l-0.09,1c-0.12,1.393-0.24,2.793-0.36,4.2c-0.131,1.19-0.131,2.39,0,3.58
		c0.482,4.149,3.003,7.785,6.72,9.69c0.46,0.26,0.94,0.5,1.44,0.72c1.573,0.691,3.216,1.21,4.9,1.55
		c1.216,0.247,2.444,0.424,3.68,0.53c0.56,0,1.12,0.07,1.67,0.07s1.34,0,2-0.05c1.893-0.085,3.772-0.36,5.61-0.82l0,0h0.13
		c0.998-0.256,1.974-0.591,2.92-1c32.49-11.54,37.62-21.81,28.64-26.9c-10.22-5.8-19.45,1.7-18.45-19.27l0,0
		c0.55-11.48,0.94-21.9,1-31.3c0-0.73,0-1.48,0-2.2c0.191-2.758,1.708-5.253,4.07-6.69l0,0l7-4.22
		c1.422-0.853,1.883-2.698,1.03-4.12c-0.853-1.422-2.698-1.883-4.12-1.03l0,0l-4.72,2.73c-1.95,1.17-3.19,0.07-3.21-1.83
		c0-0.78,0-1.54,0-2.3c0.3-3,2.76-5.44,6.22-7.51l0,0l10.39-6.23c1.896-1.175,2.504-3.65,1.37-5.57c-0.1-0.17-0.21-0.56-0.33-0.56
		l0,0c-1.11-1-0.89-2.6,0.72-3.57l3.73-2.2c1.395-0.861,1.84-2.682,1-4.09c-0.839-1.429-2.677-1.907-4.106-1.068
		c-0.005,0.003-0.009,0.005-0.014,0.008L292.93,890l0,0c-4.53,3-6.1,0.8-6.45-3.41c-0.28-5-0.51-11.24-0.69-17.73
		c1.131-0.21,2.155-0.803,2.9-1.68l-0.15,0.29c-1.381,2.397-0.557,5.459,1.84,6.84c2.397,1.381,5.459,0.557,6.84-1.84
		c0.423-0.753,0.807-1.527,1.15-2.32c1.193,2.49,4.18,3.541,6.67,2.348c0.916-0.439,1.676-1.146,2.18-2.028
		c3-5.29,4.36-13,4.95-18.9c0.1-0.34,0.2-0.69,0.28-1.06s0.09-0.51,0.13-0.77s0.06-0.26,0.08-0.4l0,0c0,0,0.45-2.32,0.92-6.28
		c0.263-1.075,0.447-2.168,0.55-3.27l0,0c0-3.27,3.62-6.68,5.69-7.92l11.05-6.68c1.895-1.069,2.566-3.472,1.497-5.367
		c-1.069-1.895-3.472-2.565-5.367-1.497c-0.106,0.06-0.209,0.125-0.309,0.194l-7.28,4.48l0,0c-2,1-4.28-2.74-3.28-6.25l0,0
		c0-0.55-0.07-1.09,0-1.64c0.13-1.8,0.15-3.67,0.24-5.57v-0.09c0.26-4.81,3.15-7.42,5.52-9.42l0,0l26.45-15.8
		c1.381-0.823,1.833-2.609,1.01-3.99C349.334,780.213,349.317,780.187,349.3,780.16z M244.67,914.82
		c-0.839-1.429-2.677-1.907-4.106-1.068c-0.005,0.003-0.009,0.005-0.014,0.008l-0.48,0.34c-2.14,1.29-4.07,0.39-3.93-2.92l0,0
		c0-1.11,0-2.18,0-3.26l0,0c0.054-2.519,1.503-4.8,3.76-5.92l0,0l5.19-3.29c1.894-1.138,2.508-3.596,1.37-5.49
		s-3.596-2.508-5.49-1.37l-2.61,1.75c-1.24,0.79-2.19,0-2.24-2.66l0,0c-0.053-4-0.13-7.72-0.23-11.16
		c0.183-0.339,0.25-0.729,0.19-1.11c-0.21-8,12.69,2.69,13.34,8.91c0.22,3.39,0.43,7.38,0.6,12l0,0c0,0.65,0,1.31,0.07,2l0,0
		c0.18,5.44,0.3,11.67,0.3,18.69l0,0l-7.93,4.84l0,0c-2,1-3.55-3.12-1.31-4.46l2.46-1.68
		C245.029,918.102,245.5,916.262,244.67,914.82z M195.93,803.62c0-0.34,0-0.68,0-1c0-1.07-0.08-2.22-0.11-3.39l0.23,4.34
		L195.93,803.62z M235.13,942.73L235.13,942.73c0.05-1.05,0.09-2.06,0.14-3.08l0,0c0.056-2.435,1.374-4.666,3.48-5.89l11.64-6.93
		c0,1.13,0,2.29,0,3.46v0.51c0,2.38-0.05,4.837-0.15,7.37v0.52c-0.06,2.547-0.14,5.173-0.24,7.88c0,0.17,0,0.34,0,0.51
		c-0.1,2.72-0.21,5.52-0.35,8.39c0,0.17,0,0.33,0,0.5c-0.07,1.41-0.14,2.83-0.21,4.27v0.06C241,957.76,234.27,960.73,235.13,942.73
		L235.13,942.73z"/>
	<path style="fill:#F04E23;" d="M233.87,867.57c-3.687-3.27-6.522-7.388-8.26-12c-0.901-2.308-1.57-4.7-2-7.14
		c-0.388-2.437-0.552-4.904-0.49-7.37c0.119-4.95,1.238-9.824,3.29-14.33c2.005-4.5,5.098-8.432,9-11.44
		c0.559-0.433,1.363-0.33,1.796,0.229c0.355,0.459,0.357,1.1,0.004,1.561l0,0c-2.596,3.499-4.621,7.387-6,11.52
		c-1.329,4.059-2.027,8.299-2.07,12.57c-0.052,2.127,0.072,4.254,0.37,6.36c0.262,2.114,0.69,4.204,1.28,6.25
		c1.216,4.149,3.046,8.093,5.43,11.7l0,0c0.466,0.744,0.241,1.725-0.503,2.192c-0.58,0.364-1.329,0.315-1.857-0.122L233.87,867.57z"
		/>
	<g id="_Groupe_">
		<path style="fill:#10294C;" d="M309.57,984.26c4.41,2.5,5.11,5.62,4.92,7.8c-0.31,3.48-3.7,6.39-8.61,9
			c2.8-9.66-3.25-16.55-8.43-20.46c0.898,0.301,1.817,0.535,2.75,0.7C303.473,981.727,306.646,982.729,309.57,984.26z"/>
		<path style="fill:#F04E23;" d="M291.91,977.12c1.524,1.599,3.431,2.783,5.54,3.44c5.18,3.91,11.23,10.8,8.43,20.46
			c-8,4.17-19.92,7.44-29.19,10.74c-1.001,0.439-2.034,0.8-3.09,1.08l-1.57,0.52l-0.09-0.14c-0.48,0.1-1,0.18-1.48,0.25
			c4.16-17.47-14.92-25.17-25.63-18c0.86-9.69,1.54-21.31,2.06-32.35c0.19-4,0.36-8,0.51-11.8c4.16,6.74,40.77,9.49,41,0.54h0.05
			c-0.11,4.69-0.22,9.18-0.35,11.88C287.81,970.36,289.45,974.51,291.91,977.12z"/>
		<path style="fill:#10294C;" d="M288.88,936.47c0.086-0.864-0.546-1.634-1.41-1.72c-0.864-0.086-1.634,0.546-1.72,1.41
			c-0.033,0.14-0.076,0.277-0.13,0.41c-0.07,0-0.2,0.18-0.42,0.35c-0.349,0.248-0.729,0.449-1.13,0.6
			c-0.686,0.237-1.387,0.424-2.1,0.56c-2.029,0.337-4.083,0.508-6.14,0.51c-2.33,0-4.85-0.05-7.37-0.21s-5-0.43-7.38-0.76
			c-1.17-0.18-2.29-0.34-3.34-0.55s-2-0.42-2.88-0.66c-1.278-0.298-2.498-0.804-3.61-1.5c-0.182-0.128-0.347-0.279-0.49-0.45
			l-0.11-0.17l-0.27-0.52c-0.296-0.593-1.016-0.834-1.609-0.538c-0.376,0.188-0.627,0.559-0.661,0.978c0,0,0,0.06,0,0.19
			c-0.006,0.113-0.006,0.227,0,0.34c-0.015-0.14-0.015-0.28,0-0.42c-0.16,4.67-0.36,10.56-0.62,17c4.16,6.74,40.77,9.49,41,0.54
			h0.05c0.11-5.16,0.21-10.56,0.29-14c0.073-0.278,0.12-0.563,0.14-0.85C288.965,936.827,288.935,936.645,288.88,936.47z"/>
		<path style="fill:#10294C;" d="M244.83,995.51c10.71-7.21,29.79,0.49,25.63,18l0,0c-1.72,0.237-3.454,0.354-5.19,0.35
			c-0.61,0-1.23,0-1.84-0.08c-5.74-0.51-10.47-2.25-13.68-5C246,1005.51,244.34,1000.94,244.83,995.51z"/>
	</g>
	<path style="fill:#F04E23;" d="M192.47,721.38c1.588,5.936,2.767,11.973,3.53,18.07c0.44,3,0.73,6.08,1.05,9.12s0.48,6.1,0.68,9.15
		c0.3,6.1,0.48,12.21,0.36,18.32s-0.42,12.22-1.11,18.3c-0.088,0.701-0.728,1.198-1.43,1.11c-0.58-0.073-1.037-0.53-1.11-1.11l0,0
		c-0.36-3-0.57-6.06-0.82-9.09s-0.44-6-0.66-9.06l-1.2-18.1L189.37,722v-0.05c-0.063-0.87,0.592-1.627,1.463-1.689
		c0.753-0.054,1.439,0.431,1.637,1.159V721.38z"/>
	<path style="fill:#10294C;" d="M224,662.5c-9.42-2.66-14.16-1.5-23.16-29.5s-9.53-58.83,14.84-68.33
		c29.28-11.42,23.37-20.67,45-22.42c0,0-4.38,6.63-3.51,10.74c0,0,11.51-8,34.76-6.66c0,0-1.75,8.17-10.09,17.67
		c0,0,1.45-1.33,10.88,0.5c0,0-1.54,11.17-16.21,16.5s-15.67,8.33-9.67,35.33c0,0-2,2-6.66,3.17c0,0-2.28-9.33-5.39-12.17
		s-13.11,1.17-7.28,15.17S246.06,668.75,224,662.5z"/>
	<path style="fill:#10294C;" d="M252.58,613.48c0.784,0.325,1.472,0.845,2,1.51c0.463,0.594,0.803,1.274,1,2
		c0.211,0.737,0.283,1.507,0.21,2.27c-0.074,0.861-0.371,1.688-0.86,2.4c-0.546,0.779-1.618,0.971-2.4,0.43l-0.12-0.08
		c-0.618-0.425-1.165-0.944-1.62-1.54c-0.372-0.486-0.674-1.021-0.9-1.59c-0.22-0.56-0.351-1.15-0.39-1.75
		c-0.058-0.717,0.044-1.438,0.3-2.11l0.18-0.46c0.389-0.998,1.514-1.492,2.512-1.103c0.003,0.001,0.005,0.002,0.008,0.003
		L252.58,613.48z"/>
	<path style="fill:#10294C;" d="M288.14,601.78c0.92,3.61,1.24,6.91-1.66,7.39s-4.08-2.09-5-5.7s-1.3-6.63,1.67-7.39
		S287.23,598.17,288.14,601.78z"/>
	<path style="fill:#10294C;" d="M292.48,631.2c-0.486,0.809-1.133,1.51-1.9,2.06c-0.689,0.505-1.447,0.909-2.25,1.2
		c-0.805,0.299-1.645,0.49-2.5,0.57c-0.953,0.108-1.917,0.029-2.84-0.23c-0.861-0.242-1.363-1.137-1.12-1.998
		c0-0.001,0-0.001,0-0.002c0.038-0.122,0.088-0.239,0.15-0.35c0.473-0.832,1.097-1.568,1.84-2.17c0.669-0.545,1.405-1.002,2.19-1.36
		c0.769-0.365,1.588-0.614,2.43-0.74c0.932-0.152,1.885-0.111,2.8,0.12c1.041,0.288,1.665,1.351,1.41,2.4
		C292.643,630.876,292.572,631.044,292.48,631.2z"/>
	<path style="fill:#F04E23;" d="M277.24,744.06c3.052,7.616,5.425,15.486,7.09,23.52c0.91,4,1.56,8,2.24,12.06l0.82,6.08
		c0.24,2,0.44,4.07,0.64,6.1s0.33,4.08,0.44,6.12s0.3,4.08,0.3,6.13c0,4.09,0.17,8.18-0.07,12.27
		c-0.25,8.166-1.109,16.302-2.57,24.34c-0.15,0.691-0.832,1.129-1.523,0.978c-0.573-0.125-0.988-0.622-1.007-1.208v-0.05
		c0.07-8.07,0.29-16.07,0-24.08s-0.73-16-1.51-23.93c-0.22-2-0.37-4-0.61-6l-0.75-5.94c-0.51-4-1.12-7.92-1.76-11.87
		c-1.31-7.87-2.84-15.78-4.69-23.51V745c-0.276-0.828,0.172-1.724,1-2s1.724,0.172,2,1L277.24,744.06z"/>
	<path style="fill:#F04E23;" d="M278.28,867.89c-1.766-1.447-2.514-3.798-1.91-6c0.072-0.281,0.158-0.558,0.26-0.83l0.32-0.7
		c0.15-0.33,0.31-0.67,0.45-1c0.28-0.7,0.54-1.43,0.79-2.18c0.5-1.49,1-3,1.44-4.62s0.95-3.19,1.59-4.79l0,0
		c0.167-0.451,0.667-0.681,1.118-0.514c0.307,0.113,0.524,0.389,0.562,0.714c0.231,1.734,0.258,3.49,0.08,5.23
		c-0.146,1.767-0.481,3.514-1,5.21c-0.271,0.88-0.605,1.738-1,2.57c-0.22,0.42-0.43,0.85-0.69,1.26l-0.27,0.42l-0.19,0.35
		c-0.496,1.124-0.496,2.406,0,3.53v0.1c0.228,0.545-0.03,1.172-0.576,1.399c-0.354,0.148-0.76,0.095-1.065-0.139L278.28,867.89z"/>
	<path style="fill:#F04E23;" d="M300.47,866.94c0.014-1.675,0.158-3.347,0.43-5c0.24-1.63,0.57-3.23,0.94-4.83s0.81-3.17,1.28-4.73
		c0.469-1.587,1.026-3.146,1.67-4.67l0,0c0.186-0.443,0.696-0.651,1.139-0.465c0.004,0.001,0.007,0.003,0.011,0.005
		c0.287,0.124,0.489,0.39,0.53,0.7c0.175,1.692,0.175,3.398,0,5.09c-0.151,1.663-0.398,3.316-0.74,4.95
		c-0.335,1.627-0.766,3.234-1.29,4.81c-0.503,1.605-1.155,3.158-1.95,4.64c-0.311,0.509-0.976,0.669-1.485,0.358
		c-0.305-0.186-0.497-0.511-0.515-0.868L300.47,866.94z"/>
	<path style="fill:#F04E23;" d="M291.47,863c-0.078-1.352-0.024-2.708,0.16-4.05c0.15-1.317,0.37-2.626,0.66-3.92
		c0.29-1.29,0.63-2.57,1-3.84c0.386-1.298,0.878-2.562,1.47-3.78l0,0c0.223-0.439,0.758-0.618,1.2-0.4
		c0.25,0.128,0.427,0.364,0.48,0.64c0.229,1.371,0.299,2.763,0.21,4.15c-0.063,1.343-0.22,2.679-0.47,4
		c-0.239,1.332-0.573,2.646-1,3.93c-0.421,1.312-0.988,2.574-1.69,3.76c-0.344,0.501-1.029,0.628-1.529,0.284
		c-0.263-0.181-0.435-0.467-0.471-0.784L291.47,863z"/>
	<path style="fill:#F04E23;" d="M187.78,841.28c-2.306-3.277-3.825-7.041-4.44-11c-0.695-3.953-0.624-8.004,0.21-11.93
		c0.822-3.995,2.531-7.754,5-11c2.408-3.197,5.578-5.741,9.22-7.4c0.649-0.288,1.409,0.002,1.7,0.65
		c0.214,0.488,0.112,1.058-0.26,1.44l0,0c-2.484,2.393-4.624,5.119-6.36,8.1c-1.604,2.918-2.741,6.07-3.37,9.34
		c-1.227,6.735-0.839,13.664,1.13,20.22v0.09c0.24,0.845-0.251,1.724-1.096,1.963c-0.632,0.179-1.309-0.049-1.704-0.573
		L187.78,841.28z"/>
</g>
<g>
	<path style="fill:#10294C;" d="M483.63,171.33c0,0-21.5,7.34-36,26.36c-28.17,199,0,370,0,370c33-21.56,33-35.11,33-35.11
		C454.81,458.35,483.63,171.33,483.63,171.33z"/>
	<path style="fill:#00ACDC;" d="M447.63,197.69c14.5-19,36-26.36,36-26.36c-63.5-28.66-113.17-111.66-113.17-111.66
		C338.46,61,326.13,70,326.13,70C362.13,134,447.63,197.69,447.63,197.69z"/>
	<path style="fill:#FDB813;" d="M447.63,197.69c0,0-85.5-63.69-121.5-127.69c-27,189-5,369-5,369c36,64,126.5,128.69,126.5,128.69
		S419.46,396.67,447.63,197.69z"/>
	<path style="fill:#10294C;" d="M318,142c22.63,17.47,19.69,49.06-2.59,36C315.41,178.05,316.87,154.65,318,142z"/>
	<path style="fill:#10294C;" d="M314.5,195c25.13,12.65,19.11,44-1.05,32.75C313.45,227.74,313.37,207.6,314.5,195z"/>
	<path style="fill:#10294C;" d="M312.9,245c25.13,12.65,20,43.28-0.22,32C312.68,277,311.77,257.6,312.9,245z"/>
	<path style="fill:#10294C;" d="M427.94,528.27c-0.702-0.001-1.382-0.249-1.92-0.7c-0.65-0.54-64.94-54.41-95.16-108.13
		c-0.184-0.336-0.306-0.701-0.36-1.08c-0.18-1.39-18.3-140.72,4.22-298.36c0.258-1.637,1.794-2.754,3.431-2.496
		c0.908,0.143,1.7,0.694,2.149,1.496c29.63,52.68,88.86,98.09,89.45,98.55c0.864,0.655,1.308,1.726,1.16,2.8
		c-23.37,165.09-0.25,303.08,0,304.46c0.216,1.238-0.363,2.479-1.45,3.11C428.991,528.164,428.468,528.284,427.94,528.27z
		 M336.38,417c24.31,42.92,70.75,86,87.38,100.68c-4.52-31.91-18.94-154.08,1-296.5c-8.78-6.91-56.73-45.83-85.25-91.83
		C319.58,277.57,335.16,407.34,336.38,417z"/>
</g>
<path style="fill:#10294C;" d="M503.54,526.3c0.561-0.882,1.204-1.709,1.92-2.47c4.198-5.151,9.802-8.972,16.13-11l0,0
	c1.872-0.623,3.827-0.961,5.8-1h0.71c1.931-0.007,3.858,0.157,5.76,0.49c14.83,2.5,20.56,12.86,20.7,27.43
	c0.347-0.474,0.724-0.925,1.13-1.35c7.08-8.5,16-12.07,22.41-12.07l0,0c2.011-0.024,4.02,0.14,6,0.49
	c14.51,2.44,20.3,12.42,20.67,26.49c0.378-0.497,0.789-0.968,1.23-1.41c6.87-8.28,15.32-11.88,21.67-12l0,0
	c2.27-0.083,4.543,0.075,6.78,0.47c14.17,2.39,20,12,20.64,25.51c0.192-0.274,0.399-0.538,0.62-0.79
	c7.13-9.12,15.8-12.68,22.43-12.68c2.204-0.069,4.409,0.092,6.58,0.48c13,2.18,19,10.37,20.37,22.12c0.241-0.348,0.501-0.682,0.78-1
	l0,0c4.215-5.649,10.132-9.796,16.88-11.83c2.258-0.737,4.626-1.075,7-1c1.781,0.011,3.557,0.175,5.31,0.49
	c4.539,0.611,8.824,2.455,12.39,5.33c-1.62-29.4-2.82-65.61-2.82-108.37c0-52.37,1.83-91.8,4.06-120.36
	c-5.35,6.18-13.85,13.14-24.77,12.2c-1.408-0.058-2.811-0.209-4.2-0.45c-12.89-2.25-18.69-12.22-19.12-25.05
	c-4.78,6.38-14.23,15.34-27.43,14.21l0,0c-1.583-0.019-3.162-0.17-4.72-0.45c-13.69-2.39-19.39-13.52-19.13-27.52
	c-4.5,6.38-14,16.16-27.93,15l0,0c-1.432-0.048-2.859-0.198-4.27-0.45c-13.46-2.34-19.19-13.13-19.15-26.79
	c-4.65,6.35-14.23,15.41-27.8,14.25l0,0c-1.583-0.027-3.161-0.181-4.72-0.46c-14.55-2.54-20.07-14.93-19-30.15
	c-4.85,6.23-14.42,14.29-27.54,13.16l0,0c-1.583-0.027-3.161-0.181-4.72-0.46c-15.26-2.65-20.59-16.17-18.82-32.41
	c0.86-7.93,2.39-13.53,4.4-17.42c-2.32-0.88-4.537-1.737-6.65-2.57c-3.15,28.07-6.47,73.85-6.47,142.21c0,93.16,6.17,144.4,9.67,166
	l1.78,0.81c0.08-2.87,0.32-6,0.72-9.59C499.5,536,500.86,530.45,503.54,526.3z"/>
<g>
	<path style="fill:#00ACDC;" d="M953.86,180l-0.1-0.05c-1.09-0.46-10.7-4.46-30.35-10.71c-19.66-6.26-49.37-14.76-90.65-24.24
		c-103.34-23.67-121-20.84-121-20.84s-47-0.1-117.67,22.34c-75.51,24-124.5,52.5-124.5,52.5s-13,48.91-13,186s13,186,13,186
		c2.5,1.55,5.09,2.96,7.75,4.22c6.23,3.11,16.7,7.87,33.12,14.11c9.07,3.45,20,7.35,33,11.68c14.48,4.82,31.57,10.16,51.67,16
		c58.59,17,113.92,27.12,149.69,32.59c18.06,2.76,31.13,4.34,37.13,5l3.68,0.4l0.12,0.18c0,0,8.52-5.48,22.61-15.77
		c28.12-20.62,55.05-42.82,80.64-66.51c2.75-2.54,5.39-5.01,7.92-7.42c12.87-12.24,22.95-22.69,30.83-31.45
		c7.18-7.84,13.88-16.11,20.06-24.76c5.29-7.58,6.79-11.18,6.79-11.18s8.5-57.64,8.5-167.09S953.86,180,953.86,180z M747.47,566.97
		c1.09,19.77,2.38,36.46,3.61,50c0.1,1.11,0.2,2.19,0.3,3.25l-2.73-0.42l-5.38-0.84c-9.14-1.45-19.4-3.18-30.53-5.23
		c-4.25-0.78-8.62-1.61-13.12-2.49l-1.19-0.22l-5.37-1.02c-10.1-2-20.7-4.29-31.67-6.81c-4.06-0.93-8.18-1.89-12.33-2.9
		c-0.84-0.19-1.67-0.4-2.51-0.6l-4.15-1c-10.28-2.54-20.79-5.3-31.42-8.29c-2.49-0.7-4.99-1.41-7.49-2.14l-4.78-1.39l-2.42-0.72
		l-4.09-1.21c-11.94-3.56-22.65-6.91-32.24-10c-4.08-1.33-7.94-2.62-11.62-3.86l-1-0.33c-1.71-0.58-3.38-1.15-5-1.72
		c-14.26-4.93-25.29-9.16-33.67-12.59c-4.18-1.72-7.69-3.23-10.62-4.54l-1.75-0.9c-3.5-21.6-9.67-72.84-9.67-166
		c0-68.36,3.32-114.14,6.47-142.21c2.11,0.83,4.32,1.69,6.65,2.57c11.56,4.39,25.71,9.4,43,15c2.67,0.86,5.41,1.74,8.23,2.63
		c10.79,3.41,22.7,7,35.82,10.83c2.43,0.7,4.85,1.4,7.26,2.07c2.56,0.73,5.12,1.44,7.66,2.13c15.09,4.14,29.85,7.83,44,11.11
		c2.49,0.58,4.96,1.15,7.41,1.7c15.53,3.5,30.27,6.5,43.86,9.05c2.63,0.5,5.21,0.98,7.75,1.44c16.58,3,31.22,5.35,43.22,7.11
		l3.52,0.5c-0.92,8.1-1.88,17.82-2.77,29.31c-2.23,28.56-4.06,68-4.06,120.36C744.65,501.36,745.85,537.6,747.47,566.97z"/>
	<path style="fill:#10294C;" d="M927.78,534l-0.18,2.2c-0.67,2.24-9.53,32.09-6.92,32.22c2.203,0.196,4.364-0.688,5.8-2.37
		c4.21-4.87,13.64-15.87,16.87-20.33c0.788-1.088,1.278-2.364,1.42-3.7c0.56-5.39,2.1-20.46,3.07-32.78
		C941.657,517.889,934.958,526.157,927.78,534z"/>
	<path style="fill:#F04E23;" d="M897,565.48c7.82,1.612,15.754,2.615,23.73,3c2.101,0.08,3.906-1.48,4.13-3.57
		c0.69-6.35,2.11-19.9,3-30.85C919.9,542.79,909.82,553.24,897,565.48z"/>
	<path style="fill:#10294C;" d="M811.21,663.78c-0.58-4.19-1.47-11.21-2.52-21.18c-0.106-1.016-1.016-1.754-2.032-1.648
		c-0.32,0.033-0.626,0.15-0.888,0.338c-12.54,9.08-20,13.89-20,13.89l-0.12-0.18l-3.68-0.4c1,10.37,2,18.21,2.66,23.5l-2.44,0.49
		l-0.55,7.19c2.21,0.18,5.26-0.4,6.57-1.33l20.3-14.38C810.505,668.635,811.543,666.215,811.21,663.78z"/>
	<path style="fill:#F04E23;" d="M744.82,649.59v0.14c1.36,13.81,2.53,22.55,3.19,27c0.324,2.175,1.961,3.923,4.11,4.39
		c9.755,2.05,19.607,3.602,29.52,4.65c1.762,0.194,3.348-1.077,3.542-2.839c0.029-0.266,0.025-0.536-0.012-0.801
		c-0.67-4.87-1.86-14.1-3.2-27.54C776,653.93,762.88,652.35,744.82,649.59z"/>
	<path style="fill:#10294C;" d="M510.5,589.33c0.517,8.692,1.602,17.34,3.25,25.89l-2.49,0.88l0.8,5
		c2.244,0.707,4.674,0.528,6.79-0.5c9.128-5.28,17.422-11.885,24.61-19.6C530.46,596.68,519.57,592.78,510.5,589.33z"/>
	<path style="fill:#F04E23;" d="M477.38,575.22L477.38,575.22c0.82,16,2.87,25.61,4.16,30.25c0.602,2.164,2.138,3.946,4.19,4.86
		c6.4,2.88,15,6.49,26.33,10.76c0.976,0.37,2.067-0.121,2.437-1.097c0.134-0.352,0.159-0.736,0.073-1.103
		c-1.14-4.61-3-14-4.07-29.57C494.08,583.09,483.61,578.33,477.38,575.22z"/>
	<path style="fill:#10294C;" d="M941,186.73l-9.56,4.69c-3.18,1.58-6.34,3.193-9.48,4.84c-6.32,3.24-12.57,6.59-18.8,10
		s-12.43,6.85-18.57,10.41s-12.28,7.13-18.36,10.78c-12.153,7.28-24.11,14.893-35.87,22.84c-5.86,4-11.68,8-17.41,12.23
		c-2.88,2.06-5.73,4.18-8.56,6.32s-5.63,4.32-8.41,6.52l0,0c-0.53,0.461-1.334,0.405-1.795-0.125
		c-0.461-0.53-0.405-1.334,0.125-1.795c10.449-9.803,21.508-18.934,33.11-27.34c5.76-4.25,11.66-8.31,17.61-12.29
		s12-7.78,18.13-11.5s12.29-7.31,18.53-10.81s12.54-6.88,18.93-10.1c12.729-6.557,25.805-12.419,39.17-17.56
		c0.801-0.332,1.719,0.048,2.052,0.849c0.324,0.782-0.03,1.681-0.802,2.031L941,186.73z"/>
	<path style="fill:#10294C;" d="M812.11,301.6c-0.49,6.37-3.34,11.35-6.37,11.12s-5.09-5.59-4.6-12s3.34-11.35,6.37-11.12
		S812.6,295.22,812.11,301.6z"/>
	<path style="fill:#10294C;" d="M948.25,208c0.44,5.34-1.26,9.84-3.8,10s-5-4-5.38-9.3s1.27-9.83,3.8-10S947.82,202.65,948.25,208z"
		/>
	<path style="fill:#10294C;" d="M947.24,484.91c-0.64,5.32-3.2,9.39-5.73,9.09s-4.06-4.86-3.42-10.18s3.19-9.39,5.72-9.08
		S947.87,479.59,947.24,484.91z"/>
	<path style="fill:#10294C;" d="M810.1,611.61c0.66,6.36-1.26,11.77-4.28,12.09s-6-4.6-6.66-11s1.25-11.77,4.27-12.09
		S809.44,605.25,810.1,611.61z"/>
</g>
<path style="fill:#00ACDC;" d="M505.46,523.83c-0.716,0.761-1.359,1.588-1.92,2.47C504.16,525.43,504.8,524.61,505.46,523.83z"/>
<g>
	<path style="fill:#F04E23;" d="M746.81,326.88c-2.79,14.54-9.68,24-22.89,23.55c10.92,0.94,19.42-6,24.77-12.2
		c0.89-11.49,1.85-21.21,2.77-29.31l-3.52-0.5C748.63,312.85,748.36,318.79,746.81,326.88z"/>
	<path style="fill:#FDB813;" d="M700.6,324.93c0.43,12.83,6.23,22.8,19.12,25.05c1.389,0.241,2.792,0.392,4.2,0.45
		c13.21,0.47,20.1-9,22.89-23.55c1.55-8.09,1.82-14,1.13-18.46c-12-1.76-26.64-4.09-43.22-7.11c-1.72,3.82-3.05,9.09-3.83,16.27
		C700.617,320.02,700.52,322.476,700.6,324.93z"/>
	<path style="fill:#F04E23;" d="M695.55,315.58c-2.75,14.34-9.49,23.75-22.38,23.55l0,0c13.2,1.13,22.65-7.83,27.43-14.21
		c-0.08-2.454,0.017-4.91,0.29-7.35c0.78-7.18,2.11-12.45,3.83-16.27c-2.54-0.46-5.123-0.94-7.75-1.44
		C697.137,305.138,696.66,310.417,695.55,315.58z"/>
	<path style="fill:#FDB813;" d="M649.32,311.16c-0.26,14,5.44,25.13,19.13,27.52c1.558,0.28,3.137,0.431,4.72,0.45
		c12.89,0.2,19.63-9.21,22.38-23.55c1.119-5.158,1.606-10.434,1.45-15.71c-13.59-2.55-28.33-5.55-43.86-9.05
		c-1.87,4.964-3.041,10.164-3.48,15.45C649.45,307.93,649.35,309.57,649.32,311.16z"/>
	<path style="fill:#F04E23;" d="M621.39,326.11L621.39,326.11c13.91,1.2,23.43-8.58,27.93-15c0-1.59,0.13-3.23,0.31-4.89
		c0.439-5.286,1.61-10.486,3.48-15.45c-2.453-0.547-4.923-1.113-7.41-1.7c-0.076,4.517-0.575,9.016-1.49,13.44
		C641.43,317.09,634.56,326.55,621.39,326.11z"/>
	<path style="fill:#FDB813;" d="M598,298.87c0,13.66,5.69,24.45,19.15,26.79c1.411,0.252,2.838,0.402,4.27,0.45
		c13.17,0.44,20-9,22.82-23.55c0.915-4.424,1.414-8.923,1.49-13.44c-14.16-3.28-28.92-7-44-11.11
		c-1.82,4.902-2.964,10.029-3.4,15.24C598.09,295.17,598,297.05,598,298.87z"/>
	<path style="fill:#F04E23;" d="M570.17,313.11L570.17,313.11c13.57,1.16,23.15-7.9,27.8-14.25c0-1.82,0.12-3.7,0.32-5.62
		c0.436-5.211,1.58-10.338,3.4-15.24c-2.54-0.69-5.1-1.4-7.66-2.13c-0.058,4.594-0.557,9.172-1.49,13.67
		C589.8,303.91,583.05,313.33,570.17,313.11z"/>
	<path style="fill:#FDB813;" d="M546.43,282.5c-1,15.22,4.47,27.61,19,30.15c1.559,0.279,3.137,0.433,4.72,0.46
		c12.88,0.22,19.63-9.2,22.37-23.56c0.93-4.499,1.425-9.076,1.48-13.67c-2.41-0.67-4.83-1.37-7.26-2.07
		c-13.12-3.81-25-7.42-35.82-10.83c-2,3.89-3.46,9.44-4.32,17.27C546.55,281,546.48,281.76,546.43,282.5z"/>
	<path style="fill:#F04E23;" d="M518.89,295.65L518.89,295.65c13.12,1.13,22.69-6.93,27.54-13.16c0.05-0.74,0.12-1.49,0.2-2.25
		c0.86-7.83,2.35-13.38,4.32-17.27c-2.82-0.893-5.563-1.77-8.23-2.63c-0.191,3.944-0.679,7.869-1.46,11.74
		C538.52,286.45,531.77,295.87,518.89,295.65z"/>
	<path style="fill:#FDB813;" d="M514.17,295.19c1.559,0.279,3.137,0.433,4.72,0.46c12.88,0.22,19.63-9.2,22.37-23.56
		c0.781-3.871,1.269-7.796,1.46-11.74c-17.26-5.59-31.41-10.6-43-15c-2,3.89-3.54,9.49-4.4,17.42
		C493.58,279,498.91,292.54,514.17,295.19z"/>
	<path style="fill:#F04E23;" d="M511.33,258.43c0.338,0.964,0.51,1.978,0.51,3c0,0.957-0.097,1.912-0.29,2.85
		c-0.196,0.945-0.481,1.869-0.85,2.76c-0.402,0.977-0.944,1.89-1.61,2.71l0,0c-0.536,0.646-1.495,0.734-2.14,0.198
		c-0.003-0.003-0.006-0.005-0.01-0.008c-0.144-0.125-0.266-0.274-0.36-0.44c-0.513-0.988-0.835-2.063-0.95-3.17
		c-0.13-1.026-0.13-2.064,0-3.09c0.134-1.033,0.41-2.042,0.82-3c0.42-1.021,1.042-1.946,1.83-2.72
		c0.714-0.715,1.873-0.716,2.588-0.002c0.001,0.001,0.001,0.001,0.002,0.002c0.177,0.183,0.313,0.401,0.4,0.64L511.33,258.43z"/>
	<path style="fill:#F04E23;" d="M582.12,271.75c0.456,1.042,0.727,2.155,0.8,3.29c0.084,1.057,0.047,2.121-0.11,3.17
		c-0.154,1.057-0.415,2.096-0.78,3.1c-0.393,1.081-0.953,2.093-1.66,3v0.05c-0.508,0.641-1.439,0.748-2.079,0.241
		c0,0-0.001,0-0.001-0.001c-0.175-0.138-0.318-0.312-0.42-0.51c-0.485-1.047-0.799-2.164-0.93-3.31c-0.11-1.081-0.11-2.169,0-3.25
		c0.088-1.077,0.296-2.14,0.62-3.17c0.326-1.099,0.844-2.132,1.53-3.05c0.614-0.794,1.754-0.942,2.55-0.33
		c0.234,0.18,0.423,0.413,0.55,0.68L582.12,271.75z"/>
	<path style="fill:#F04E23;" d="M720.12,314.75c0.456,1.042,0.727,2.155,0.8,3.29c0.084,1.057,0.047,2.121-0.11,3.17
		c-0.154,1.057-0.415,2.096-0.78,3.1c-0.393,1.081-0.953,2.093-1.66,3v0.05c-0.508,0.641-1.439,0.748-2.079,0.241
		c0,0-0.001,0-0.001-0.001c-0.175-0.138-0.318-0.312-0.42-0.51c-0.485-1.047-0.799-2.164-0.93-3.31c-0.11-1.081-0.11-2.169,0-3.25
		c0.088-1.077,0.296-2.14,0.62-3.17c0.326-1.099,0.844-2.132,1.53-3.05c0.614-0.794,1.754-0.942,2.55-0.33
		c0.234,0.18,0.423,0.413,0.55,0.68L720.12,314.75z"/>
	<path style="fill:#F04E23;" d="M563.75,295.86c0.489,0.577,0.832,1.263,1,2c0.12,0.624,0.12,1.266,0,1.89
		c-0.109,0.637-0.322,1.252-0.63,1.82c-0.378,0.681-0.892,1.277-1.51,1.75h-0.05c-0.767,0.589-1.861,0.474-2.49-0.26
		c-0.5-0.58-0.865-1.263-1.07-2c-0.183-0.65-0.25-1.327-0.2-2c0.039-0.654,0.198-1.294,0.47-1.89c0.301-0.698,0.776-1.308,1.38-1.77
		c0.954-0.748,2.333-0.587,3.09,0.36L563.75,295.86z"/>
	<path style="fill:#F04E23;" d="M674.75,305.86c0.489,0.577,0.832,1.263,1,2c0.12,0.624,0.12,1.266,0,1.89
		c-0.109,0.637-0.322,1.252-0.63,1.82c-0.378,0.681-0.892,1.277-1.51,1.75h-0.05c-0.767,0.589-1.861,0.474-2.49-0.26
		c-0.5-0.58-0.865-1.263-1.07-2c-0.183-0.65-0.25-1.327-0.2-2c0.039-0.654,0.198-1.294,0.47-1.89c0.301-0.698,0.776-1.308,1.38-1.77
		c0.954-0.748,2.333-0.587,3.09,0.36L674.75,305.86z"/>
	<path style="fill:#F04E23;" d="M679.93,320.27c0.389,1.119,0.589,2.295,0.59,3.48c0.02,1.117-0.077,2.233-0.29,3.33
		c-0.212,1.1-0.527,2.178-0.94,3.22c-0.424,1.079-1.003,2.089-1.72,3l-0.08,0.11c-0.499,0.599-1.383,0.696-2,0.22
		c-0.184-0.149-0.329-0.341-0.42-0.56c-0.473-1.139-0.753-2.349-0.83-3.58c-0.082-1.134-0.049-2.273,0.1-3.4
		c0.147-1.119,0.415-2.219,0.8-3.28c0.393-1.13,0.975-2.184,1.72-3.12c0.637-0.769,1.775-0.88,2.55-0.25
		c0.241,0.208,0.426,0.473,0.54,0.77L679.93,320.27z"/>
	<path style="fill:#F04E23;" d="M521.64,271.36c0.273,1.46,0.371,2.947,0.29,4.43c-0.054,1.435-0.204,2.865-0.45,4.28
		c-0.256,1.417-0.59,2.819-1,4.2c-0.409,1.445-0.968,2.843-1.67,4.17l0,0c-0.369,0.673-1.214,0.919-1.887,0.55
		c-0.291-0.16-0.516-0.419-0.633-0.73c-0.527-1.474-0.833-3.017-0.91-4.58c-0.091-1.505-0.04-3.015,0.15-4.51
		c0.194-1.495,0.529-2.968,1-4.4c0.464-1.488,1.155-2.894,2.05-4.17c0.547-0.761,1.608-0.936,2.37-0.39
		c0.34,0.238,0.579,0.595,0.67,1L521.64,271.36z"/>
	<path style="fill:#F04E23;" d="M629.64,292.36c0.273,1.46,0.371,2.947,0.29,4.43c-0.054,1.435-0.204,2.865-0.45,4.28
		c-0.256,1.417-0.59,2.819-1,4.2c-0.409,1.445-0.968,2.843-1.67,4.17l0,0c-0.369,0.673-1.214,0.919-1.887,0.55
		c-0.291-0.16-0.516-0.419-0.633-0.73c-0.527-1.474-0.833-3.017-0.91-4.58c-0.091-1.505-0.04-3.015,0.15-4.51
		c0.194-1.495,0.529-2.968,1-4.4c0.464-1.488,1.155-2.894,2.05-4.17c0.547-0.761,1.608-0.936,2.37-0.39
		c0.34,0.238,0.579,0.595,0.67,1L629.64,292.36z"/>
</g>
<g>
	<path style="fill:#F04E23;" d="M747.45,567c-3.569-2.928-7.877-4.814-12.45-5.45c-1.753-0.315-3.529-0.479-5.31-0.49
		c-2.374-0.075-4.742,0.263-7,1c-6.748,2.034-12.665,6.181-16.88,11.83c2.222-2.76,5.338-4.66,8.81-5.37
		c3.411-0.665,6.919-0.665,10.33,0c15,2.53,20.7,13.15,20.7,28c0,10.3-0.9,17.46-2.45,22.39l5.38,0.84l2.71,0.41
		c-0.1-1.06-0.2-2.14-0.3-3.25C749.83,603.42,748.54,586.73,747.45,567z"/>
	<path style="fill:#FDB813;" d="M725,568.55c-3.411-0.665-6.919-0.665-10.33,0c-3.472,0.71-6.588,2.609-8.81,5.37l0,0
		c-0.26,0.34-0.52,0.7-0.77,1.06s-0.66,1-1,1.5l0,0c-2.3,4-3.52,9.23-4.17,15c-0.812,6.133-0.97,12.334-0.47,18.5
		c0,0.43,0.1,0.85,0.16,1.25c4.493,0.88,8.867,1.71,13.12,2.49c11.13,2,21.39,3.78,30.53,5.23c1.55-4.93,2.45-12.09,2.45-22.39
		C745.72,581.7,740.05,571.08,725,568.55z"/>
	<path style="fill:#F04E23;" d="M699.93,591.49c0.65-5.74,1.87-10.94,4.17-15l0,0c0.32-0.51,0.64-1,1-1.5s0.51-0.72,0.77-1.06
		c-0.279,0.318-0.539,0.652-0.78,1c-1.4-11.75-7.4-19.94-20.37-22.12c-2.171-0.388-4.376-0.549-6.58-0.48
		c-6.63,0-15.3,3.56-22.43,12.68c2.214-2.67,5.272-4.504,8.67-5.2c3.415-0.665,6.925-0.665,10.34,0c15,2.53,20.71,13.14,20.71,28
		c0,10.09-0.86,17.16-2.36,22.08l5.37,1.07l1.19,0.22c-0.06-0.4-0.11-0.82-0.16-1.25C698.971,603.784,699.125,597.603,699.93,591.49
		z"/>
	<path style="fill:#FDB813;" d="M674.71,559.85c-3.415-0.665-6.925-0.665-10.34,0c-3.398,0.696-6.456,2.53-8.67,5.2
		c-0.21,0.26-0.41,0.53-0.62,0.81s-0.37,0.51-0.56,0.77c-2.78,4.17-4.19,9.84-4.9,16.16c-0.615,4.975-0.852,9.989-0.71,15
		c0,0.85,0.08,1.67,0.15,2.45c4.15,1,8.27,2,12.33,2.9c11,2.52,21.57,4.78,31.67,6.81c1.5-4.92,2.36-12,2.36-22.08
		C695.42,573,689.75,562.38,674.71,559.85z"/>
	<path style="fill:#F04E23;" d="M649.62,582.79c0.71-6.32,2.12-12,4.9-16.16c0.19-0.26,0.37-0.52,0.56-0.77s0.41-0.55,0.62-0.81
		c-0.221,0.252-0.428,0.516-0.62,0.79c-0.62-13.55-6.47-23.12-20.64-25.51c-2.237-0.395-4.51-0.553-6.78-0.47l0,0
		c-6.35,0.17-14.8,3.77-21.67,12c2.164-2.333,5.003-3.931,8.12-4.57c3.411-0.665,6.919-0.665,10.33,0c15,2.54,20.7,13.15,20.7,28
		c0,10.92-1,18.31-2.74,23.26l4.15,1c0.84,0.2,1.67,0.41,2.51,0.6c-0.07-0.78-0.12-1.6-0.15-2.45
		C648.772,592.719,649.01,587.735,649.62,582.79z"/>
	<path style="fill:#FDB813;" d="M624.44,547.33c-3.411-0.665-6.919-0.665-10.33,0c-3.114,0.641-5.949,2.239-8.11,4.57
		c-0.39,0.46-0.77,0.94-1.14,1.43s-0.54,0.72-0.8,1.09c-2.65,4.15-4,9.69-4.7,15.85c-0.569,4.644-0.82,9.322-0.75,14
		c0,0.89,0.06,1.73,0.11,2.54l4.78,1.39c2.5,0.727,4.997,1.44,7.49,2.14c10.63,3,21.14,5.75,31.42,8.29
		c1.73-5,2.74-12.34,2.74-23.26C645.14,560.48,639.47,549.87,624.44,547.33z"/>
	<path style="fill:#F04E23;" d="M599.35,570.27c0.69-6.16,2-11.7,4.7-15.85c0.26-0.37,0.53-0.73,0.8-1.09s0.75-1,1.14-1.43
		c-0.412,0.435-0.797,0.896-1.15,1.38c-0.37-14.07-6.16-24-20.67-26.49c-1.98-0.35-3.989-0.514-6-0.49l0,0
		c-6.4,0-15.33,3.57-22.41,12.07c2.164-2.333,5.003-3.931,8.12-4.57c3.411-0.665,6.919-0.665,10.33,0c15,2.53,20.7,13.15,20.7,28
		c0,10.77-1,18.11-2.67,23.06l4.09,1.21l2.42,0.72c-0.05-0.81-0.09-1.65-0.11-2.54C598.558,579.579,598.795,574.908,599.35,570.27z"
		/>
	<path style="fill:#FDB813;" d="M574.17,533.79c-3.411-0.665-6.919-0.665-10.33,0c-3.117,0.639-5.956,2.237-8.12,4.57
		c-0.38,0.45-0.76,0.92-1.13,1.41s-0.54,0.72-0.8,1.09c-2.66,4.15-4,9.7-4.71,15.87c-0.523,4.313-0.777,8.655-0.76,13
		c0,0.42,0,0.82,0,1.22c3.68,1.24,7.54,2.53,11.62,3.86c9.59,3.11,20.3,6.46,32.24,10c1.69-5,2.67-12.29,2.67-23.06
		C594.87,546.94,589.2,536.32,574.17,533.79z"/>
	<path style="fill:#F04E23;" d="M549.08,556.73c0.7-6.17,2-11.72,4.71-15.87c0.26-0.37,0.53-0.73,0.8-1.09s0.75-1,1.13-1.41
		c-0.406,0.425-0.783,0.876-1.13,1.35c-0.14-14.57-5.87-24.93-20.7-27.43c-1.902-0.333-3.829-0.497-5.76-0.49h-0.71
		c-1.973,0.039-3.928,0.377-5.8,1l0,0c-6.328,2.028-11.932,5.849-16.13,11c2.155-2.325,4.984-3.916,8.09-4.55
		c3.415-0.665,6.925-0.665,10.34,0c15,2.53,20.71,13.14,20.71,28c0,9.79-0.81,16.74-2.23,21.64c1.62,0.567,3.287,1.14,5,1.72l1,0.33
		c0-0.4,0-0.8,0-1.22C548.358,565.373,548.585,561.038,549.08,556.73z"/>
	<path style="fill:#FDB813;" d="M523.89,519.28c-3.415-0.665-6.925-0.665-10.34,0c-3.106,0.634-5.935,2.225-8.09,4.55
		c-0.66,0.78-1.3,1.6-1.92,2.47c-2.68,4.15-4,9.72-4.74,15.92c-0.4,3.54-0.64,6.72-0.72,9.59c2.93,1.31,6.44,2.82,10.62,4.54
		c8.38,3.43,19.41,7.66,33.67,12.59c1.42-4.9,2.23-11.85,2.23-21.64C544.6,532.42,538.92,521.81,523.89,519.28z"/>
	<path style="fill:#F04E23;" d="M532.35,552.65c0.558,0.798,0.952,1.699,1.16,2.65c0.199,0.862,0.279,1.747,0.24,2.63
		c-0.036,0.891-0.18,1.774-0.43,2.63c-0.278,0.959-0.721,1.863-1.31,2.67l0,0c-0.518,0.696-1.501,0.84-2.197,0.322
		c-0.001-0.001-0.002-0.002-0.003-0.002c-0.115-0.09-0.22-0.195-0.31-0.31c-0.588-0.797-1.025-1.695-1.29-2.65
		c-0.244-0.87-0.382-1.767-0.41-2.67c-0.033-0.901,0.055-1.802,0.26-2.68c0.213-0.959,0.614-1.867,1.18-2.67
		c0.633-0.864,1.847-1.052,2.711-0.419c0.16,0.117,0.301,0.258,0.419,0.419L532.35,552.65z"/>
	<path style="fill:#F04E23;" d="M610,579.91c0.935,1.051,1.369,2.455,1.19,3.85c-0.072,0.642-0.252,1.267-0.53,1.85
		c-0.338,0.704-0.822,1.328-1.42,1.83l0,0c-0.733,0.63-1.831,0.578-2.5-0.12c-0.538-0.57-0.941-1.253-1.18-2
		c-0.213-0.628-0.318-1.287-0.31-1.95c0-0.658,0.125-1.309,0.37-1.92c0.268-0.71,0.708-1.342,1.28-1.84
		c0.914-0.797,2.299-0.712,3.11,0.19L610,579.91z"/>
	<path style="fill:#F04E23;" d="M687,587.91c0.935,1.051,1.369,2.455,1.19,3.85c-0.072,0.642-0.252,1.267-0.53,1.85
		c-0.338,0.704-0.822,1.328-1.42,1.83l0,0c-0.733,0.63-1.831,0.578-2.5-0.12c-0.538-0.57-0.941-1.253-1.18-2
		c-0.213-0.628-0.318-1.287-0.31-1.95c0-0.658,0.125-1.309,0.37-1.92c0.268-0.71,0.708-1.342,1.28-1.84
		c0.914-0.797,2.299-0.712,3.11,0.19L687,587.91z"/>
	<path style="fill:#F04E23;" d="M621,554c0.448,1.099,0.712,2.265,0.78,3.45c0.076,1.115,0.035,2.234-0.12,3.34
		c-0.15,1.108-0.404,2.2-0.76,3.26c-0.363,1.112-0.885,2.167-1.55,3.13l-0.08,0.11c-0.459,0.643-1.352,0.792-1.995,0.334
		c-0.002-0.001-0.004-0.003-0.005-0.004c-0.194-0.136-0.352-0.318-0.46-0.53c-0.53-1.115-0.868-2.312-1-3.54
		c-0.141-1.128-0.168-2.267-0.08-3.4c0.087-1.126,0.295-2.239,0.62-3.32c0.331-1.147,0.855-2.229,1.55-3.2
		c0.597-0.798,1.725-0.967,2.53-0.38c0.261,0.188,0.465,0.444,0.59,0.74L621,554z"/>
	<path style="fill:#F04E23;" d="M718,577c0.448,1.099,0.712,2.265,0.78,3.45c0.076,1.115,0.035,2.234-0.12,3.34
		c-0.15,1.108-0.404,2.2-0.76,3.26c-0.363,1.112-0.885,2.167-1.55,3.13l-0.08,0.11c-0.459,0.643-1.352,0.792-1.995,0.334
		c-0.002-0.001-0.004-0.003-0.005-0.004c-0.194-0.136-0.352-0.318-0.46-0.53c-0.53-1.115-0.868-2.312-1-3.54
		c-0.141-1.128-0.168-2.267-0.08-3.4c0.087-1.126,0.295-2.239,0.62-3.32c0.331-1.147,0.855-2.229,1.55-3.2
		c0.597-0.798,1.725-0.967,2.53-0.38c0.261,0.188,0.465,0.444,0.59,0.74L718,577z"/>
	<path style="fill:#F04E23;" d="M661,590c0.448,1.099,0.712,2.265,0.78,3.45c0.076,1.115,0.035,2.234-0.12,3.34
		c-0.15,1.108-0.404,2.2-0.76,3.26c-0.363,1.112-0.885,2.167-1.55,3.13l-0.08,0.11c-0.459,0.643-1.352,0.792-1.995,0.334
		c-0.002-0.001-0.004-0.003-0.005-0.004c-0.194-0.136-0.352-0.318-0.46-0.53c-0.53-1.115-0.868-2.312-1-3.54
		c-0.141-1.128-0.168-2.267-0.08-3.4c0.087-1.126,0.295-2.239,0.62-3.32c0.331-1.147,0.855-2.229,1.55-3.2
		c0.597-0.798,1.725-0.967,2.53-0.38c0.261,0.188,0.465,0.444,0.59,0.74L661,590z"/>
	<path style="fill:#F04E23;" d="M517.74,528.39c0.252,1.466,0.333,2.956,0.24,4.44c-0.073,1.433-0.244,2.86-0.51,4.27
		c-0.25,1.415-0.584,2.814-1,4.19c-0.427,1.44-1.003,2.831-1.72,4.15l0,0c-0.37,0.667-1.209,0.907-1.876,0.538
		c-0.005-0.003-0.009-0.005-0.014-0.008c-0.293-0.166-0.517-0.432-0.63-0.75c-0.503-1.478-0.79-3.02-0.85-4.58
		c-0.076-1.507-0.005-3.017,0.21-4.51c0.188-1.49,0.523-2.957,1-4.38c0.482-1.483,1.191-2.883,2.1-4.15
		c0.556-0.756,1.62-0.919,2.377-0.362c0.001,0.001,0.002,0.002,0.003,0.002c0.332,0.244,0.566,0.599,0.66,1L517.74,528.39z"/>
	<path style="fill:#F04E23;" d="M583.74,534.39c0.252,1.466,0.333,2.956,0.24,4.44c-0.073,1.433-0.244,2.86-0.51,4.27
		c-0.25,1.415-0.584,2.814-1,4.19c-0.427,1.44-1.003,2.831-1.72,4.15l0,0c-0.37,0.667-1.209,0.907-1.876,0.538
		c-0.005-0.003-0.009-0.005-0.014-0.008c-0.293-0.166-0.517-0.432-0.63-0.75c-0.503-1.478-0.79-3.02-0.85-4.58
		c-0.076-1.507-0.005-3.017,0.21-4.51c0.188-1.49,0.523-2.957,1-4.38c0.482-1.483,1.191-2.883,2.1-4.15
		c0.556-0.756,1.62-0.919,2.377-0.362c0.001,0.001,0.002,0.002,0.003,0.002c0.332,0.244,0.566,0.599,0.66,1L583.74,534.39z"/>
	<path style="fill:#F04E23;" d="M735.69,592.1c0.435,1.42,0.7,2.887,0.79,4.37c0.09,1.432,0.09,2.868,0,4.3
		c-0.084,1.435-0.248,2.863-0.49,4.28c-0.247,1.484-0.646,2.938-1.19,4.34l0,0c-0.291,0.709-1.1,1.049-1.81,0.76
		c-0.306-0.131-0.557-0.364-0.71-0.66c-0.69-1.405-1.168-2.905-1.42-4.45c-0.256-1.486-0.373-2.992-0.35-4.5
		c0.01-1.506,0.171-3.006,0.48-4.48c0.297-1.528,0.826-3.002,1.57-4.37c0.456-0.82,1.49-1.115,2.31-0.66
		c0.381,0.221,0.664,0.578,0.79,1L735.69,592.1z"/>
</g>
<g>
	<path style="fill:#10294C;" d="M754.7,623.75l-3.79-0.57c-35.78-5.41-90.54-15.37-148.26-32.11
		c-61.75-17.91-93.92-31.08-107.6-37.34l-1.46-0.67l-0.25-1.58c-3.63-22.38-9.71-73.76-9.71-166.48c0-70,3.53-116.17,6.49-142.54
		l0.43-3.9l3.65,1.44c24.66,9.7,56.08,20.11,93.4,30.93c64.89,18.82,125.15,29.43,164.28,35l2.89,0.41l-0.33,2.9
		c-3.11,27.18-6.81,75.14-6.81,149.33c0,74.38,3.65,128.79,6.71,161.34L754.7,623.75z M499,548.93c14.3,6.43,46,19.18,105.32,36.38
		c55.4,16.06,108.09,25.85,143.7,31.36c-3-33-6.39-86.31-6.39-158.08s3.47-119.33,6.52-147.12c-39.36-5.71-98.57-16.32-162.22-34.78
		c-35.68-10.34-66-20.32-90.28-29.68c-2.84,26.76-6,71.56-6,138C489.63,475.16,495.39,525.94,499,548.93z"/>
	<path style="fill:#10294C;" d="M784.07,302.26c-1.493,13.873-2.637,27.78-3.43,41.72s-1.437,27.887-1.93,41.84
		c-0.86,27.913-1.21,55.847-1.05,83.8c0,7,0.1,14,0.14,20.95l0.36,21c0.23,14,0.72,27.93,1.2,41.89s1.21,27.91,2.09,41.85
		s1.89,27.88,3.12,41.8c0.08,0.699-0.421,1.33-1.12,1.41c-0.699,0.08-1.33-0.421-1.41-1.12c-2-13.88-3.38-27.82-4.71-41.77
		s-2.22-27.94-3.05-41.93c-1.66-28-2.42-56-2.6-84c-0.11-14,0-28,0.22-42c0.15-7,0.3-14,0.53-21s0.47-14,0.84-21
		c0.69-14,1.58-28,2.75-42c0.62-6.98,1.333-13.957,2.14-20.93c0.39-3.48,0.82-7,1.27-10.44s1-6.95,1.52-10.42
		c0.113-0.862,0.903-1.468,1.765-1.355c0.862,0.113,1.468,0.903,1.355,1.765L784.07,302.26z"/>
	<path style="fill:#10294C;" d="M482.16,203.8c11.333,4.88,22.833,9.333,34.5,13.36c11.62,4.15,23.35,8,35.14,11.72
		s23.62,7.3,35.5,10.73s23.75,6.78,35.69,9.95c23.9,6.25,48,11.78,72.19,16.81c12.1,2.507,24.24,4.84,36.42,7
		c12.15,2.27,24.36,4.26,36.58,6.24c0.696,0.094,1.184,0.734,1.09,1.43c-0.094,0.696-0.734,1.184-1.43,1.09l0,0
		c-12.34-1.26-24.63-2.93-36.91-4.68s-24.51-3.9-36.72-6.11c-24.42-4.43-48.67-9.85-72.73-16c-24.04-6.313-47.827-13.41-71.36-21.29
		c-11.76-4-23.47-8.11-35.07-12.56c-5.79-2.26-11.55-4.59-17.27-7.05s-11.38-5-17-7.81c-0.787-0.367-1.127-1.303-0.76-2.09
		s1.303-1.127,2.09-0.76l0,0L482.16,203.8z"/>
</g>
<g>
	<path style="fill:#10294C;" d="M932.16,380.16c-1.194,3.449-2.035,7.011-2.51,10.63c1.12,0.18,2.27,0.34,3.43,0.48
		c3.16,0.39,6.44,0.65,9.8,0.73c-3.098,2.21-6.339,4.215-9.7,6c-1.247,0.667-2.58,1.363-4,2.09c0.102,5.618,1.042,11.19,2.79,16.53
		c2.93,8.84,8,16,14.2,20.23c3.14-8.641,5.055-17.678,5.69-26.85c1.55-19.54-1.76-35.37-7.72-47.88
		C939,366.29,934.79,372.59,932.16,380.16z"/>
	<path style="fill:#FDB813;" d="M931.92,416.63c-1.748-5.34-2.688-10.912-2.79-16.53c-6.527,3.255-13.414,5.728-20.52,7.37
		c1.63,15.23,7.36,28.87,15.77,39.14c3.136,3.851,6.752,7.286,10.76,10.22c4.659-6.071,8.368-12.815,11-20
		C939.88,432.64,934.85,425.47,931.92,416.63z"/>
	<path style="fill:#FDB813;" d="M924,350.81c-0.85,1.05-1.66,2.13-2.45,3.25c2,2,4.35,4.4,6.34,6.77
		c1.272,1.467,2.432,3.028,3.47,4.67c0,0-0.76-0.25-2.24-0.58c-4.319-0.887-8.712-1.362-13.12-1.42
		c-3.402,7.022-5.728,14.516-6.9,22.23c6.694,2.266,13.569,3.959,20.55,5.06c0.475-3.619,1.316-7.181,2.51-10.63
		c2.63-7.57,6.82-13.87,12-18c-3.271-6.93-7.621-13.296-12.89-18.86C928.629,345.583,926.196,348.096,924,350.81z"/>
	<path style="fill:#FFFFFF;" d="M924.38,446.61c-8.41-10.27-14.14-23.91-15.77-39.14c7.106-1.642,13.993-4.115,20.52-7.37
		c1.453-0.7,2.787-1.397,4-2.09c3.361-1.785,6.602-3.79,9.7-6c-3.36-0.08-6.64-0.34-9.8-0.73c-1.16-0.14-2.31-0.3-3.43-0.48
		c-6.981-1.101-13.856-2.794-20.55-5.06c1.187-7.72,3.53-15.218,6.95-22.24c4.418,0.056,8.821,0.532,13.15,1.42
		c1.48,0.33,2.24,0.58,2.24,0.58c-1.038-1.642-2.198-3.203-3.47-4.67c-2-2.37-4.29-4.76-6.34-6.77c0.79-1.12,1.6-2.2,2.45-3.25
		c2.178-2.726,4.594-5.252,7.22-7.55c-6.896-7.314-15.319-13.02-24.67-16.71c-4.141-1.651-8.487-2.728-12.92-3.2
		c-22.54-2.12-44.19,32-48.35,76.32s10.75,81.86,33.29,84c6.861,0.489,13.754-0.277,20.34-2.26
		c14.376-4.119,27.06-12.724,36.2-24.56C931.131,453.91,927.515,450.469,924.38,446.61z"/>
	<path style="fill:#10294C;" d="M878.6,483.65c-22.54-2.12-37.45-39.72-33.29-84s25.81-78.44,48.35-76.32
		c4.432,0.472,8.779,1.549,12.92,3.2c-9.49-8.64-19.81-13-27.81-13.72c-21.4-2-42.57,36.94-47.27,87s8.84,92.25,30.24,94.26
		c9.66,0.91,23.94-2.49,37.2-12.7C892.355,483.36,885.462,484.133,878.6,483.65z"/>
	<path style="fill:#F04E23;" d="M891.45,467.36c1.014-0.395,1.64-1.417,1.53-2.5l-1.46-14.6c-0.086-0.863-0.855-1.493-1.717-1.407
		c-0.771,0.077-1.371,0.704-1.413,1.477l-0.7,12.37L870,466.53c-1.322,0.283-2.384,1.265-2.77,2.56l-0.19,0.64l-2.23,7.52
		c2.636,2.408,5.741,4.247,9.12,5.4l1.19-9l15.95-6.18L891.45,467.36z"/>
	<path style="fill:#F04E23;" d="M865.38,446.22l0.52-0.11c0.987-0.224,1.838-0.846,2.35-1.72l8.2-14.1l24.41,2.71
		c0.851,0.146,1.659-0.424,1.805-1.275c0.146-0.851-0.424-1.659-1.275-1.805L887,426.65l5-8c0.381-0.575,0.224-1.351-0.351-1.732
		c-0.489-0.324-1.137-0.265-1.559,0.142l-8.77,8.14l-0.09,0.11l-6-1.38c-1.067-0.251-2.182,0.139-2.86,1l-0.23,0.3l-9.78,12.67
		l-15.58,1.56c0.667,3.58,1.483,6.997,2.45,10.25L865.38,446.22z"/>
	<path style="fill:#F04E23;" d="M903.89,465.93c-0.171-0.709-0.885-1.144-1.593-0.973c-0.56,0.135-0.968,0.618-1.007,1.193
		L900.34,481c2.209-0.683,4.382-1.477,6.51-2.38L903.89,465.93z"/>
	<path style="fill:#F04E23;" d="M861.26,370.67l17.65,8.13c0.647,0.324,1.434,0.062,1.758-0.585
		c0.298-0.596,0.101-1.322-0.458-1.685l-17.13-11.93c-0.451-0.311-0.994-0.459-1.54-0.42l-0.6,0.05l-8.2,0.68
		c-1,2.91-2,5.94-2.81,9.06L861.26,370.67z"/>
	<path style="fill:#F04E23;" d="M852.94,421.73l0.13,0.07c1.958,1.009,4.363,0.244,5.38-1.71l8.62-16.68l17.23-11
		c0.721-0.482,0.915-1.457,0.433-2.178c-0.424-0.635-1.245-0.872-1.943-0.562l-19.44,9.09c-0.354,0.168-0.66,0.422-0.89,0.74
		l-0.22,0.33l-8.4,12l-8.93-6.8c-0.25,4.08-0.33,8.09-0.27,12l7.8,4.44L852.94,421.73z"/>
	<path style="fill:#F04E23;" d="M901.91,337c-0.504-0.705-1.347-1.087-2.21-1h-0.39l-14.17,1.39l-8.45-8.94
		c-2.546,1.836-4.892,3.934-7,6.26l11.44,9.35l0.37,0.3c0.187,0.148,0.388,0.279,0.6,0.39L892.28,356l-0.45,11.08
		c-0.043,0.899,0.65,1.663,1.55,1.707c0.813,0.039,1.53-0.527,1.68-1.327l2.33-12.11c0.102-0.574-0.031-1.165-0.37-1.64l-0.19-0.26
		l-7-9.54l9-1.94l9,9c0.634,0.592,1.627,0.558,2.219-0.075c0.492-0.526,0.562-1.32,0.171-1.925L901.91,337z"/>
</g>
<g>
	<path style="fill:#F04E23;" d="M482.63,716.91c4.741,5.961,8.458,12.67,11,19.85c0,0-17.88,10.6-15.17,31.33l0,0
		c1.88,10.82-0.34,16.56-6.52,23.59c-0.93,0.93-1.91,1.66-3,2.61c-6.53,5.15-16.46,9.53-22.58,5.54c-9.27-5.14-21.5-11.18-39,5.83
		c-5.29-3.132-10.008-7.143-13.95-11.86c6.36-1.89,25.86-15.95,47.58-34.6C463.35,740,480.52,722.47,482.63,716.91z"/>
	<path style="fill:#FDB813;" d="M436.44,751.89c23.54-20.21,41.12-38.58,40.1-41.81c2.19,2.128,4.226,4.411,6.09,6.83
		c-2.11,5.56-19.28,23.12-41.6,42.29c-21.72,18.65-41.22,32.71-47.58,34.6c-2.129-2.568-3.699-5.551-4.61-8.76
		C390.94,787.51,412.26,772.66,436.44,751.89z"/>
	<path style="fill:#10294C;" d="M476.53,710.07L476.53,710.07c1,3.23-16.56,21.6-40.1,41.81c-24.18,20.77-45.5,35.62-47.6,33.15
		s15.79-21.27,40-42s45.49-35.61,47.6-33.15C476.476,709.936,476.511,710,476.53,710.07z"/>
	<path style="fill:#10294C;" d="M433.36,791.61c0,0-0.09-0.32-0.26-0.89c-0.08-0.27-0.17-0.59-0.25-1s-0.22-0.82-0.31-1.28
		c-0.17-0.93-0.44-2-0.59-3.16c-0.1-0.57-0.22-1.16-0.3-1.77s-0.13-1.21-0.26-1.81s-0.19-1.21-0.26-1.81c0-0.3-0.06-0.6-0.09-0.9
		s-0.11-0.58-0.15-0.86c-0.09-0.57-0.15-1.12-0.21-1.66c-0.027-0.503-0.084-1.004-0.17-1.5c-0.13-0.92-0.21-1.72-0.24-2.31
		s0-0.93,0-0.93v-0.18c0.032-0.739,0.65-1.317,1.39-1.3c0.344,0.008,0.672,0.151,0.91,0.4c0.226,0.235,0.44,0.482,0.64,0.74
		c0.4,0.49,0.92,1.21,1.51,2.11c0.31,0.482,0.578,0.991,0.8,1.52c0.24,0.55,0.49,1.14,0.73,1.76c0.262,0.623,0.466,1.269,0.61,1.93
		c0.17,0.67,0.32,1.35,0.46,2c0.139,0.676,0.229,1.361,0.27,2.05c0.07,0.68,0.11,1.35,0.13,2c0.005,1.189-0.085,2.376-0.27,3.55
		c-0.127,0.851-0.321,1.69-0.58,2.51c-0.063,0.232-0.143,0.46-0.24,0.68c-0.07,0.15-0.1,0.23-0.1,0.23
		c-0.374,0.846-1.362,1.231-2.21,0.86C433.878,792.411,433.53,792.056,433.36,791.61z"/>
	<path style="fill:#10294C;" d="M474.86,757.5l-0.21-0.08c-0.12,0-0.33-0.1-0.57-0.2c-0.5-0.2-1.19-0.49-2-0.85
		s-1.73-0.81-2.69-1.31l-1.47-0.75l-1.52-0.78l-5.58-3l-1.91-1.07c-0.47-0.28-0.74-0.47-0.74-0.47l-0.1-0.07
		c-0.612-0.442-0.751-1.297-0.31-1.91c0.193-0.269,0.477-0.457,0.8-0.53c0.311-0.066,0.624-0.116,0.94-0.15
		c0.815-0.11,1.639-0.136,2.46-0.08c0.547,0.015,1.092,0.072,1.63,0.17c0.6,0.084,1.194,0.205,1.78,0.36
		c0.631,0.157,1.252,0.35,1.86,0.58c0.627,0.223,1.241,0.48,1.84,0.77c0.606,0.275,1.194,0.589,1.76,0.94
		c0.57,0.32,1.09,0.7,1.61,1.06c0.92,0.675,1.776,1.431,2.56,2.26c0.559,0.601,1.067,1.246,1.52,1.93c0.17,0.25,0.28,0.46,0.38,0.62
		c0.045,0.069,0.082,0.143,0.11,0.22l0.05,0.16c0.293,0.898-0.198,1.863-1.096,2.156c-0.005,0.001-0.009,0.003-0.014,0.004
		C475.598,757.602,475.216,757.609,474.86,757.5z"/>
</g>
<g>
	<path style="fill:#00ACDC;" d="M389.48,675.6c0,0,43.66-18.75,63.32-33.44c14.018,5.391,28.347,9.936,42.91,13.61
		c0,0-21.37,21.43-56.71,37.49C439,693.26,401.1,683.58,389.48,675.6z"/>
	<path style="fill:#FFFFFF;" d="M463.48,667.62c-0.14,3.72-8,6.45-17.58,6.09s-17.2-3.67-17.06-7.39s8-6.44,17.57-6.08
		S463.62,663.91,463.48,667.62z"/>
</g>
<path style="fill:#F04E23;" d="M354,673.92c8.85-6.29,17.94-12.18,27.14-17.91c4.58-2.89,9.24-5.65,13.87-8.46s9.34-5.49,14-8.18
	s9.43-5.32,14.18-7.93s9.51-5.18,14.33-7.65c9.6-5.027,19.33-9.797,29.19-14.31c0.636-0.296,1.391-0.02,1.687,0.616
	c0.274,0.589,0.06,1.29-0.497,1.624l0,0c-9.22,5.66-18.57,11.08-27.89,16.55l-28,16.28l-28.09,16.15
	c-9.37,5.36-18.78,10.69-28.26,15.88l0,0c-0.775,0.4-1.728,0.096-2.129-0.679c-0.354-0.686-0.16-1.528,0.459-1.991L354,673.92z"/>
<path style="fill:#F04E23;" d="M372.76,631.12c2.81-2.18,5.752-4.184,8.81-6c3-1.83,6.1-3.53,9.24-5.15s6.31-3.14,9.56-4.54
	c3.238-1.447,6.557-2.706,9.94-3.77c0.646-0.329,1.436-0.071,1.765,0.575s0.071,1.436-0.575,1.765l0,0l0,0
	c-2.795,2.167-5.713,4.171-8.74,6c-3,1.88-6,3.63-9.14,5.29s-6.23,3.25-9.45,4.68c-3.215,1.496-6.518,2.795-9.89,3.89l0,0
	c-0.847,0.253-1.738-0.229-1.99-1.076c-0.186-0.623,0.024-1.296,0.53-1.704L372.76,631.12z"/>
<g>
	<path style="fill:#F04E23;" d="M411.82,590.56c2.09,5.58,6,9.35,15.79,6.86s8.38-11.43,8-13.7S411.82,590.56,411.82,590.56z"/>
	<path style="fill:#FDB813;" d="M435.65,583.72c1.11,3.88-3.32,8.57-9.89,10.45s-12.82,0.27-13.94-3.61s3.32-8.57,9.9-10.46
		S434.53,579.83,435.65,583.72z"/>
</g>
<g>
	<path style="fill:#F04E23;" d="M388.08,649.3c1.52,5.76,5,9.9,15,8.4s9.48-10.53,9.36-12.83S388.08,649.3,388.08,649.3z"/>
	<path style="fill:#FDB813;" d="M412.46,644.87c0.72,4-4.15,8.19-10.88,9.42s-12.78-1-13.5-5s4.15-8.2,10.88-9.42
		S411.74,640.89,412.46,644.87z"/>
</g>
<path style="fill:#F04E23;" d="M761.78,834.78c3.502,3.069,6.628,6.543,9.31,10.35c2.68,3.857,4.82,8.063,6.36,12.5
	c3.15,8.991,3.564,18.714,1.19,27.94c-2.444,9.279-7.576,17.628-14.75,24c-7.18,6.271-15.845,10.602-25.17,12.58
	c-4.64,1.072-9.4,1.536-14.16,1.38c-4.749-0.195-9.453-0.995-14-2.38c-9.021-2.809-17.394-7.384-24.63-13.46
	c-7.158-5.99-13.422-12.974-18.6-20.74c-2.606-3.848-4.967-7.856-7.07-12c-2.116-4.111-3.999-8.338-5.64-12.66
	c-6.435-17.288-9.848-35.555-10.09-54c-0.287-18.307,1.728-36.577,6-54.38c4.215-17.716,10.063-35.003,17.47-51.64
	c7.401-16.574,15.983-32.596,25.68-47.94c0.366-0.592,1.142-0.776,1.734-0.41c0.005,0.003,0.011,0.007,0.016,0.01
	c0.58,0.361,0.77,1.117,0.43,1.71l0,0c-4.5,7.813-8.79,15.727-12.87,23.74c-4.06,8-7.78,16.21-11.23,24.5
	c-6.985,16.509-12.451,33.619-16.33,51.12c-3.879,17.435-5.642,35.273-5.25,53.13c0.57,17.76,3.57,35.5,10,52
	c1.588,4.116,3.394,8.145,5.41,12.07c1.994,3.921,4.228,7.715,6.69,11.36c4.85,7.295,10.72,13.858,17.43,19.49
	c6.617,5.606,14.273,9.857,22.53,12.51c4.081,1.277,8.309,2.026,12.58,2.23c4.28,0.151,8.563-0.229,12.75-1.13
	c8.481-1.641,16.4-5.428,23-11c6.539-5.612,11.271-13.034,13.6-21.33c2.338-8.345,2.181-17.193-0.45-25.45
	c-2.746-8.329-7.563-15.824-14-21.78l0,0c-0.617-0.617-0.618-1.617-0.001-2.234c0.578-0.579,1.503-0.62,2.131-0.096L761.78,834.78z"
	/>
<g>
	<path style="fill:#00ACDC;" d="M614.57,750.16c8.518-23.608,20.517-45.81,35.6-65.87l47.83,1.07c0,0-18.15,31.12-25.92,67.58
		C672.07,752.94,641.49,752.88,614.57,750.16z"/>
	<path style="fill:#FFFFFF;" d="M672,714.12c0.87,6.1-5.33,12-13.85,13.25s-16.12-2.74-17-8.84s5.32-12,13.84-13.24
		S671.15,708,672,714.12z"/>
</g>
<g>
	<path style="fill:#00ACDC;" d="M544.62,850.76c0,0,4.42-39.47,22-75.61l48.88-3.34c0,0-11.83,39.09-12.25,76.38
		C603.28,848.19,571.55,848.09,544.62,850.76z"/>
	<path style="fill:#FFFFFF;" d="M595.81,804.15c2.06,5.8-2.85,12.84-11,15.72s-16.35,0.5-18.41-5.3s2.85-12.84,11-15.72
		S593.75,798.34,595.81,804.15z"/>
</g>
<path style="fill:#F04E23;" d="M630.31,863.49c-1.738-6.688-2.995-13.492-3.76-20.36c-0.43-3.42-0.7-6.86-0.95-10.31
	c-0.12-1.72-0.19-3.44-0.24-5.17s-0.16-3.45-0.14-5.18c-0.068-6.923,0.299-13.843,1.1-20.72c0.797-6.895,2.233-13.701,4.29-20.33
	c0.215-0.669,0.929-1.039,1.6-0.83c0.584,0.175,0.959,0.744,0.89,1.35l0,0c-0.74,6.76-1.39,13.45-1.68,20.19
	c-0.1,1.68-0.07,3.37-0.15,5.05s-0.12,3.37-0.1,5.06s0,3.37,0,5.05l0.08,5.06c0,1.69,0.08,3.37,0.11,5.06l0.07,2.53l0.13,2.53
	c0.08,3.38,0.33,6.75,0.48,10.14c0.41,6.74,0.89,13.53,1.4,20.27V863c0.055,0.871-0.606,1.622-1.477,1.677
	c-0.747,0.047-1.424-0.436-1.623-1.157L630.31,863.49z"/>
<path style="fill:#F04E23;" d="M508.91,892.9c0.25-4.94,0.69-9.78,1.31-14.63l0.43-3.63l0.52-3.62c0.36-2.42,0.67-4.84,1.07-7.25
	c1.65-9.61,3.5-19.19,5.82-28.67c4.506-18.99,10.234-37.669,17.15-55.92c6.847-18.272,14.846-36.091,23.95-53.35l3.39-6.48
	c0.57-1.08,1.11-2.17,1.71-3.23l1.85-3.15l7.41-12.6c2.41-4.23,5.22-8.23,7.88-12.3s5.39-8.11,8.12-12.13
	c0.373-0.596,1.159-0.778,1.755-0.405c0.596,0.373,0.778,1.159,0.405,1.755l0,0v0.05c-2.42,4.2-4.867,8.377-7.34,12.53
	c-2.44,4.17-5,8.26-7.2,12.58l-6.87,12.76l-1.72,3.18c-0.56,1.07-1.07,2.17-1.6,3.25l-3.18,6.51
	c-8.557,17.295-16.205,35.026-22.91,53.12l-5,13.6l-4.48,13.76c-2.9,9.19-5.6,18.46-8,27.8c-1.31,4.64-2.33,9.35-3.47,14l-0.85,3.52
	l-0.75,3.54l-1.5,7.08c-1.93,9.44-3.59,19-4.75,28.49v0.07c-0.075,0.864-0.836,1.505-1.7,1.43s-1.505-0.836-1.43-1.7l0,0
	L508.91,892.9z"/>
<g>
	<path style="fill:#F04E23;" d="M609.84,741.71c5.14,3,13,5.17,18.6-3.59c5.43-8.55-2.66-15.15-4.36-16.7
		S609.84,741.71,609.84,741.71z"/>
	<path style="fill:#FDB813;" d="M624.08,721.42c3.31,2.32,4.81,9.75,0.88,15.35s-11.81,7.26-15.12,4.94S605,732,609,726.35
		S620.77,719.09,624.08,721.42z"/>
</g>
<g>
	<path style="fill:#F04E23;" d="M703.45,809.91c5.95-0.32,13.71-2.91,13.5-13.27c-0.21-10.13-10.6-11.15-12.87-11.51
		S703.45,809.91,703.45,809.91z"/>
	<path style="fill:#FDB813;" d="M704.08,785.13c4,0.11,9.39,5.46,9.22,12.3s-5.81,12.58-9.85,12.48s-9.4-5.46-9.23-12.3
		S700,785,704.08,785.13z"/>
</g>
<g>
	<path style="fill:#F04E23;" d="M598.61,705.46c4,2.89,10.4,5.25,15.66-1.57s-1.06-12.75-2.35-14.16S598.61,705.46,598.61,705.46z"
		/>
	<path style="fill:#FDB813;" d="M611.92,689.73c2.57,2.17,3.25,8.43-0.43,12.77s-10.32,5.13-12.88,3s-3.25-8.43,0.43-12.78
		S609.35,687.55,611.92,689.73z"/>
</g>
<g>
	<path style="fill:#00ACDC;" d="M744,380l-2-0.79c-17.28,13.91-55.9,31.89-55.9,31.89c10.49,7.28,44.48,15.83,44.48,15.83
		c4.15-2.05,8.07-4.18,11.76-6.33L744,380z"/>
	<path style="fill:#FFFFFF;" d="M743.3,397.25c-2.266-0.396-4.553-0.656-6.85-0.78c-8.54-0.22-15.51,2.42-15.57,5.88
		s6.81,6.44,15.34,6.66c2.197,0.079,4.397,0.035,6.59-0.13L743.3,397.25z"/>
</g>
<g>
	<path style="fill:#00ACDC;" d="M624.32,572c13.375-20.271,29.841-38.323,48.8-53.5l43.64,9.93
		c-15.307,17.092-28.317,36.109-38.7,56.57C678.06,585,648.51,581.72,624.32,572z"/>
	<path style="fill:#FFFFFF;" d="M686.37,550.15c-0.77,6.11-8,10.2-16.23,9.14s-14.21-6.87-13.43-13s8-10.2,16.23-9.14
		S687.15,544,686.37,550.15z"/>
</g>
<g>
	<path style="fill:#00ACDC;" d="M554.05,463.6c0,0,45.21-14.63,66.14-27.44c13.458,6.673,27.306,12.527,41.47,17.53
		c0,0-23.27,19.36-59.9,32.09C601.76,485.78,564.88,472.63,554.05,463.6z"/>
	<path style="fill:#FFFFFF;" d="M624.69,460.85c-0.48,3.69-8.57,5.68-18.06,4.43s-16.79-5.24-16.31-8.93s8.57-5.68,18.06-4.43
		S625.17,457.16,624.69,460.85z"/>
	<path style="fill:#00ACDC;" d="M507.41,445.88c9.88,10.06,45.26,26.84,45.26,26.84c37.71-9,62.81-26,62.81-26
		c-13.582-6.374-26.766-13.564-39.48-21.53C553.86,435.84,507.41,445.88,507.41,445.88z M581.59,449.16
		c-0.47,3.63-8.44,5.59-17.8,4.37s-16.55-5.17-16.07-8.81s8.44-5.59,17.8-4.37S582.07,445.52,581.59,449.16z"/>
	<path style="fill:#10294C;" d="M621.46,446.31c-0.155-2.164-1.467-4.076-3.43-5c-13.341-6.289-26.297-13.365-38.8-21.19
		c-1.758-1.14-3.983-1.28-5.87-0.37C552.15,430,506.6,439.92,506.14,440c-3.238,0.706-5.291,3.902-4.585,7.14
		c0.241,1.107,0.791,2.123,1.585,2.93c10.32,10.51,43.25,26.29,47,28.05c1.244,0.6,2.66,0.745,4,0.41
		c38.34-9.15,63.71-26.09,64.77-26.8C620.666,450.507,621.637,448.442,621.46,446.31z M615.46,446.77c0,0-25.1,17-62.81,26
		c0,0-35.38-16.78-45.26-26.84c0,0,46.45-10,68.56-20.69c12.73,7.968,25.931,15.157,39.53,21.53H615.46z"/>
	<path style="fill:#FFFFFF;" d="M547.72,444.72c-0.48,3.64,6.72,7.58,16.07,8.81s17.33-0.74,17.8-4.37s-6.72-7.58-16.07-8.81
		S548.19,441.08,547.72,444.72z"/>
</g>
<g>
	<path style="fill:#F04E23;" d="M629.88,395.85c0.87,5.9,3.87,10.4,14,10s10.59-9.41,10.73-11.71S629.88,395.85,629.88,395.85z"/>
	<path style="fill:#FDB813;" d="M654.61,394.17c0.28,4-5,7.68-11.87,8.15s-12.58-2.43-12.86-6.47s5-7.68,11.87-8.14
		S654.34,390.14,654.61,394.17z"/>
</g>
<g>
	<path style="fill:#F04E23;" d="M651.4,500.79c4,4.45,9,6.57,17.2,0.7s3.7-13.68,2.55-15.68S651.4,500.79,651.4,500.79z"/>
	<path style="fill:#FDB813;" d="M671.15,485.81c2.45,3.23,0,9.19-5.45,13.33s-11.85,4.87-14.3,1.65s0-9.19,5.45-13.32
		S668.71,482.59,671.15,485.81z"/>
</g>
<g>
	<path style="fill:#F04E23;" d="M664.88,395.76c1.5,4.74,4.57,8,12.85,6.37s7.46-9.15,7.27-11.06S664.88,395.76,664.88,395.76z"/>
	<path style="fill:#FDB813;" d="M685,391.07c0.76,3.28-3.12,7-8.68,8.29s-10.68-0.31-11.44-3.6s3.11-7,8.67-8.29
		S684.23,387.79,685,391.07z"/>
</g>
<path style="fill:#F04E23;" d="M234.82,244.71c-6.585-4.83-14.155-8.145-22.17-9.71c-7.991-1.564-16.209-1.564-24.2,0
	c-7.944,1.439-15.48,4.585-22.09,9.22c-6.51,4.518-11.474,10.927-14.22,18.36c-2.492,7.487-2.722,15.543-0.66,23.16
	c2.095,7.713,5.899,14.856,11.13,20.9c5.279,6.157,11.454,11.483,18.32,15.8c6.944,4.366,14.315,8.012,22,10.88
	c15.4,5.86,31.79,9,48.29,10.71c16.581,1.517,33.256,1.724,49.87,0.62c16.672-1.093,33.269-3.133,49.71-6.11
	c8.24-1.433,16.45-3.05,24.63-4.85c8.18-1.8,16.327-3.757,24.44-5.87c0.677-0.191,1.379,0.203,1.57,0.88s-0.203,1.379-0.88,1.57l0,0
	c-16.12,4.853-32.453,8.96-49,12.32c-16.555,3.34-33.29,5.714-50.12,7.11c-16.893,1.43-33.877,1.43-50.77,0
	c-16.9-1.57-33.79-4.8-49.86-10.81c-8.074-2.995-15.811-6.833-23.08-11.45c-7.373-4.643-14.002-10.374-19.66-17
	c-2.821-3.378-5.287-7.038-7.36-10.92c-2.105-3.912-3.714-8.07-4.79-12.38c-1.091-4.332-1.582-8.794-1.46-13.26
	c0.136-4.485,0.993-8.918,2.54-13.13c1.576-4.216,3.832-8.145,6.68-11.63c2.818-3.444,6.107-6.474,9.77-9
	c7.264-4.938,15.514-8.237,24.18-9.67c8.587-1.448,17.373-1.213,25.87,0.69c4.23,0.962,8.347,2.37,12.28,4.2
	c3.92,1.86,7.612,4.169,11,6.88c0.688,0.53,0.815,1.517,0.285,2.205s-1.517,0.815-2.205,0.285H234.82z"/>
<g>
	<path style="fill:#00ACDC;" d="M266.47,311.06c0,0,42.59,7,86.23,0.31c0,0,1.83,22.61,7.35,38.34c0,0-34.78,13.87-87.66,7.92
		C267.261,342.673,265.246,326.825,266.47,311.06z"/>
	<path style="fill:#FFFFFF;" d="M325.06,335.43c0.645,7.012-4.516,13.22-11.528,13.865c-7.012,0.645-13.22-4.516-13.865-11.528
		c-0.645-7.012,4.516-13.22,11.528-13.865c0.092-0.008,0.183-0.016,0.275-0.022C318.411,323.322,324.492,328.49,325.06,335.43z"/>
</g>
<g>
	<path style="fill:#00ACDC;" d="M342,396.42c0,0,43.1-2.76,84.07-19.21c0,0,7,21.91,16,36.19c0,0-30.68,21.56-83.57,27.65
		C350.054,427.435,344.442,412.255,342,396.42z"/>
	<path style="fill:#FFFFFF;" d="M404.75,407.23c2.13,6.712-1.584,13.879-8.296,16.01c-6.712,2.13-13.879-1.584-16.01-8.296
		s1.584-13.879,8.296-16.01c0.036-0.012,0.073-0.023,0.11-0.034c6.682-2.095,13.798,1.624,15.893,8.306
		C404.745,407.214,404.748,407.222,404.75,407.23z"/>
</g>
<g>
	<path style="fill:#F04E23;" d="M245.84,445c0.08,6,2.46,10.81,12.55,11.77c10.09,0.96,11.74-7.93,12.18-10.19
		S245.84,445,245.84,445z"/>
	<path style="fill:#FDB813;" d="M270.57,446.59c-0.26,4-6,7-12.83,6.52s-12.16-4.07-11.9-8.1s6-6.95,12.83-6.52
		S270.83,442.55,270.57,446.59z"/>
</g>
<g>
	<path style="fill:#F04E23;" d="M144.25,343.87c-1.69,5.72-0.85,11.07,8.5,15s13.56-4.09,14.65-6.12S144.25,343.87,144.25,343.87z"
		/>
	<path style="fill:#FDB813;" d="M167.4,352.72c-1.44,3.78-7.8,4.86-14.19,2.42s-10.4-7.49-9-11.27s7.8-4.85,14.19-2.41
		S168.85,349,167.4,352.72z"/>
</g>
<g>
	<path style="fill:#F04E23;" d="M165.33,473.09c0.23,5.12,2.41,9.23,11.1,9.78s9.87-7.12,10.19-9.08S165.33,473.09,165.33,473.09z"
		/>
	<path style="fill:#FDB813;" d="M186.62,473.79c-0.11,3.48-5,6.14-10.85,5.94s-10.56-3.17-10.44-6.64s5-6.13,10.85-5.94
		S186.74,470.32,186.62,473.79z"/>
</g>
<g>
	<path style="fill:#F04E23;" d="M219.33,421.09c0.23,5.12,2.41,9.23,11.1,9.78s9.87-7.12,10.19-9.08S219.33,421.09,219.33,421.09z"
		/>
	<path style="fill:#FDB813;" d="M240.62,421.79c-0.11,3.48-5,6.14-10.85,5.94s-10.56-3.17-10.44-6.64s5-6.13,10.85-5.94
		S240.74,418.32,240.62,421.79z"/>
</g>
<path style="fill:#F04E23;" d="M189.77,251.88c-2.94,1.33-5.758,2.916-8.42,4.74c-2.536,1.753-4.792,3.881-6.69,6.31
	c-0.897,1.207-1.683,2.492-2.35,3.84c-0.66,1.379-1.205,2.811-1.63,4.28c-0.777,3.158-1.213,6.389-1.3,9.64l0,0
	c-0.021,0.712-0.615,1.273-1.327,1.252c-0.538-0.016-1.009-0.363-1.183-0.872c-1.234-3.527-1.651-7.288-1.22-11
	c0.221-1.922,0.688-3.807,1.39-5.61c0.726-1.812,1.666-3.531,2.8-5.12c2.296-3.068,5.257-5.578,8.66-7.34
	c3.282-1.805,6.914-2.883,10.65-3.16c0.878-0.02,1.606,0.676,1.626,1.554c0.014,0.606-0.318,1.167-0.856,1.446L189.77,251.88z"/>
<path style="fill:#F04E23;" d="M250.79,388.62c4.57-0.19,9.09-0.22,13.6-0.31l13.53-0.32l13.55-0.42c4.53-0.16,9.07-0.32,13.67-0.29
	l0,0c0.707-0.019,1.295,0.539,1.314,1.245c0.016,0.598-0.384,1.127-0.964,1.275c-4.448,1.269-8.979,2.228-13.56,2.87
	c-4.573,0.687-9.18,1.131-13.8,1.33c-4.63,0.202-9.267,0.138-13.89-0.19c-4.637-0.287-9.243-0.956-13.77-2
	c-0.85-0.212-1.371-1.068-1.17-1.92c0.163-0.692,0.77-1.188,1.48-1.21L250.79,388.62z"/>
<path style="fill:#F04E23;" d="M246,494.36c11.82-2.14,23.67-4.41,35.46-6.78s23.57-4.85,35.3-7.53s23.44-5.44,35.1-8.41
	s23.25-6.18,34.92-9.29l0,0c0.668-0.218,1.387,0.147,1.605,0.815c0.218,0.668-0.147,1.387-0.815,1.605l0,0
	c-11.29,4.38-22.74,8.39-34.37,11.8c-5.78,1.83-11.65,3.33-17.48,5c-2.93,0.79-5.88,1.49-8.81,2.23s-5.89,1.44-8.84,2.12
	c-5.9,1.38-11.83,2.6-17.76,3.84S288.47,492,282.49,493c-12,2-23.95,3.62-36.08,4.52c-0.868,0.057-1.621-0.593-1.69-1.46
	c-0.064-0.8,0.49-1.518,1.28-1.66L246,494.36z"/>
</svg>
