<?xml version="1.0" encoding="utf-8"?>
<!-- Generator: Adobe Illustrator 23.0.2, SVG Export Plug-In . SVG Version: 6.00 Build 0)  -->
<svg version="1.1" id="sign_up_form" xmlns="http://www.w3.org/2000/svg" xmlns:xlink="http://www.w3.org/1999/xlink" x="0px" y="0px" viewBox="0 0 800 583.1" style="enable-background:new 0 0 800 583.1;" xml:space="preserve">

<g>
	<g>
		<path d="M325.3,468.9c-0.9-1.3-1.7-2.6-2.3-4.1c-0.6-1.4-1.2-2.8-1.6-4.3c-0.5-1.4-0.8-2.9-1.1-4.3
			c-0.3-1.5-0.5-3-0.6-4.5v0c-0.1-1.1,0.8-2.1,2-2.2c0.6,0,1.2,0.2,1.6,0.7c1.1,1.2,2,2.6,2.7,4.1c0.7,1.4,1.3,2.9,1.7,4.4
			c0.5,1.5,0.8,3,1,4.5c0.3,1.6,0.4,3.1,0.3,4.7l0,0c-0.1,1.1-1,1.9-2.1,1.9C326.2,469.7,325.7,469.4,325.3,468.9L325.3,468.9z" style="fill:#10294C;"/>
		<path d="M375,521.9c-1.8-0.6-3.6-1.4-5.3-2.1c-1.8-0.7-3.5-1.5-5.3-2.3c-1.8-0.8-3.5-1.7-5.2-2.6
			c-1.7-0.9-3.4-2-5.1-3c-0.8-0.5-1.6-1.1-2.4-1.7c-0.8-0.6-1.6-1.1-2.4-1.8c-1.6-1.2-3.1-2.5-4.5-3.9c-2.9-2.7-5.4-5.9-7.5-9.3
			c-0.5-0.9-0.2-2.2,0.7-2.7c0.7-0.4,1.7-0.3,2.3,0.3l0,0c2.7,2.5,5.5,5,8.4,7.2c1.5,1.1,2.9,2.3,4.4,3.3s3,2.1,4.6,3.1
			c3.1,2.1,6.3,4,9.5,5.9c1.6,1,3.3,2,4.9,3c1.6,1,3.3,2.1,4.8,3.3c0.8,0.6,1,1.8,0.4,2.7C376.7,521.8,375.9,522.1,375,521.9
			L375,521.9z" style="fill:#10294C;"/>
		<path d="M538.7,581.2c-6.2,1.6-12.6,2.2-19,1.8c-3.2-0.2-6.3-0.6-9.5-1.1c-3.1-0.6-6.2-1.3-9.2-2l-8.9-2.4
			c-1.5-0.4-2.9-0.7-4.3-1.1c-1.3-0.3-2.7-0.5-4.1-0.6c-0.7,0-1.3,0-2,0c-0.7,0-1.4,0.1-2.2,0.2c-1.5,0.1-2.9,0.3-4.4,0.5
			c-3,0.4-6,1-9.1,1.4c-1.1,0.1-2.1-0.6-2.2-1.7c-0.1-0.9,0.4-1.8,1.3-2.1c2.9-1,5.9-1.9,9-2.7c1.5-0.4,3.1-0.7,4.7-1
			c0.8-0.1,1.6-0.3,2.4-0.4c0.9-0.1,1.7-0.2,2.6-0.2c1.7,0,3.4,0.2,5.1,0.5c1.6,0.3,3.2,0.6,4.7,1c3.1,0.7,6,1.5,9,2.3
			s5.9,1.5,8.8,2.1c2.9,0.6,5.9,1.1,8.8,1.5c5.9,0.8,11.9,0.9,17.8,0.4l0,0c1-0.1,2,0.7,2,1.7C540.2,580.1,539.6,580.9,538.7,581.2
			L538.7,581.2z" style="fill:#10294C;"/>
		<path d="M669.4,549.9c-2.2,2.1-4.5,4-7,5.7c-2.5,1.8-5.1,3.3-7.9,4.7c-2.8,1.4-5.7,2.5-8.7,3.3
			c-3,0.8-6.1,1.3-9.2,1.3c-1.1,0-2-0.9-2-2c0-0.8,0.5-1.5,1.3-1.8l0,0c2.7-1,5.4-1.9,8-3s5.2-2.2,7.7-3.5s5.1-2.5,7.7-3.9
			s5.2-2.7,8-3.8c1-0.4,2.1,0,2.5,1c0,0,0,0,0,0C670.1,548.5,670,549.3,669.4,549.9z" style="fill:#10294C;"/>
		<path d="M786.6,481.2c0.1,0.7,0,1.4-0.2,2.1c-0.2,0.6-0.5,1.1-0.8,1.6c-0.4,0.5-0.8,0.9-1.3,1.3
			c-0.6,0.4-1.2,0.7-1.9,0.8c-1.4,0.3-2.8-0.7-3.1-2.1c0,0,0,0,0,0v-0.2v-0.1c-0.1-0.7,0-1.4,0.2-2c0.2-0.6,0.5-1.1,0.8-1.6
			c0.4-0.5,0.8-0.9,1.3-1.2c0.6-0.4,1.2-0.7,1.9-0.8h0.1c1.4-0.3,2.7,0.6,3,2c0,0,0,0,0,0L786.6,481.2z" style="fill:#10294C;"/>
		<path d="M791.5,418.7c1.9,3.2,3.6,6.5,5,9.9c1.5,3.5,2.5,7.2,3.1,11c0.3,1.9,0.4,3.9,0.4,5.8c0,1-0.1,2-0.1,2.9
			c-0.1,1-0.2,1.9-0.4,2.8c-0.6,3.8-1.7,7.4-3.3,10.9c-0.5,1-1.7,1.4-2.6,0.9c-0.8-0.4-1.2-1.2-1.1-2.1l0,0
			c0.5-3.5,0.9-6.9,1.1-10.4l0.1-2.6c0-0.8,0-1.6,0-2.5c-0.1-1.7-0.2-3.3-0.5-5c-0.5-3.4-1.3-6.7-2.2-10c-0.9-3.4-2-6.8-2.9-10.3
			c-0.3-1,0.4-2.1,1.4-2.3C790.3,417.7,791.1,418,791.5,418.7L791.5,418.7z" style="fill:#10294C;"/>
		<path d="M794.5,169.4c-1.2,4-2.5,8.1-3.9,12c-1.4,3.8-2.5,7.7-3.3,11.6c-0.4,1.9-0.6,3.8-0.6,5.7c0,0.4,0,0.8,0,1.2
			c0,0.4,0.1,0.8,0.2,1.3c0.2,0.9,0.4,1.8,0.7,2.7c1.2,3.7,2.8,7.6,4.3,11.4c1.6,3.8,3.1,7.9,4.4,12c1.3,4.1,2.3,8.4,2.9,12.7
			c0.6,4.4,0.7,8.8,0.2,13.2c-0.5,4.3-1.6,8.6-3.2,12.7c-0.4,1-1.5,1.5-2.5,1.2c-0.9-0.3-1.5-1.4-1.2-2.3l0,0
			c1-3.9,1.5-7.9,1.7-11.9c0.1-2,0-4-0.2-5.9c-0.1-2-0.4-4-0.8-5.9c-1.4-7.9-4.3-15.5-7.4-23.2c-1.5-3.9-3.2-7.8-4.4-12.1
			c-0.3-1.1-0.6-2.2-0.8-3.4c-0.1-0.6-0.2-1.2-0.2-1.8c0-0.6,0-1.3,0-1.9c0.1-2.3,0.4-4.5,1-6.8c1.1-4.2,2.5-8.3,4.3-12.2
			c1.7-3.9,3.3-7.6,5.1-11.4v-0.1c0.5-0.9,1.6-1.3,2.5-0.9C794.4,167.6,794.8,168.6,794.5,169.4L794.5,169.4z" style="fill:#10294C;"/>
		<path d="M770.8,83.6c1.1,1.7,2,3.6,2.8,5.4c0.8,1.8,1.6,3.7,2.3,5.3c0.6,1.5,1.6,3.2,2.5,4.9c1,1.8,1.8,3.6,2.6,5.5
			c0.4,1.1-0.2,2.2-1.2,2.6c-0.7,0.2-1.4,0.1-2-0.3c-1.6-1.3-3-2.8-4.3-4.5c-1.4-1.7-2.6-3.6-3.5-5.6c-0.8-2-1.4-4-1.9-6.1
			c-0.5-2-0.7-4.1-0.8-6.2c0-1.1,0.8-2,1.9-2C769.8,82.7,770.4,83,770.8,83.6L770.8,83.6z" style="fill:#10294C;"/>
		<path d="M591.2,20.2c5-0.6,9.9-2.1,15-3.6c2.5-0.8,5.1-1.4,7.7-2.1c2.6-0.7,5.3-1.2,8-1.7c2.8-0.4,5.6-0.7,8.4-0.7
			c2.8,0,5.7,0.3,8.5,0.8c5.5,1.1,10.7,3.1,15.5,6c0.9,0.6,1.3,1.8,0.7,2.7c-0.5,0.8-1.4,1.2-2.3,0.9l0,0c-4.8-1.7-9.8-2.9-14.8-3.6
			c-2.5-0.3-4.9-0.4-7.4-0.3c-2.5,0.1-5,0.3-7.5,0.7c-2.5,0.4-5,0.9-7.6,1.4c-2.5,0.5-5.1,1.1-7.7,1.6s-5.3,1-8,1.4
			c-2.8,0.4-5.6,0.5-8.4,0.2c-1-0.1-1.8-1-1.7-2.1C589.5,21,590.3,20.3,591.2,20.2L591.2,20.2z" style="fill:#10294C;"/>
		<path d="M466.1,0.1c1.5-0.2,3-0.2,4.5,0c1.4,0.1,2.9,0.3,4.3,0.6c1.4,0.3,2.8,0.6,4.1,1c1.4,0.4,2.8,0.9,4.1,1.5h0.1
			c1,0.5,1.5,1.7,1,2.8c-0.3,0.5-0.7,0.9-1.3,1.1c-1.5,0.4-3.1,0.6-4.7,0.5c-1.5,0-3.1-0.2-4.6-0.5c-1.5-0.3-2.9-0.7-4.3-1.3
			c-1.4-0.5-2.8-1.2-4.1-2.1c-0.9-0.6-1.2-1.9-0.5-2.8C465,0.5,465.5,0.2,466.1,0.1z" style="fill:#10294C;"/>
		<path d="M369.8,58.9c2.7-1.8,5.5-3.4,8-5.1c1.2-0.8,2.4-1.7,3.5-2.7c0.2-0.2,0.5-0.4,0.7-0.7l0.3-0.4l0.4-0.4
			c0.5-0.6,1-1.2,1.4-1.8c1.8-2.5,3.5-5.1,5.1-7.7c1.6-2.7,3.1-5.5,4.6-8.3c1.5-2.8,3.1-5.7,4.7-8.6c1.7-2.9,3.5-5.7,5.5-8.4
			c2-2.7,4.4-5.3,6.9-7.5c2.6-2.3,5.5-4.2,8.6-5.6c1-0.5,2.2,0,2.6,0.9c0.4,0.9,0.1,2-0.7,2.5l0,0c-5,3.5-9.3,7.9-12.5,13.1
			c-1.7,2.6-3.3,5.3-4.8,8s-3,5.6-4.5,8.5c-3.1,5.7-6.4,11.5-10.9,16.7c-0.6,0.6-1.1,1.3-1.7,1.9l-0.4,0.5c-0.1,0.2-0.4,0.4-0.5,0.5
			c-0.4,0.3-0.7,0.6-1.1,0.9c-1.4,1-2.9,2-4.4,2.8c-3,1.6-5.9,2.9-9,4.1c-1,0.4-2.1-0.1-2.5-1.1C368.7,60.3,369,59.3,369.8,58.9
			L369.8,58.9z" style="fill:#10294C;"/>
		<path d="M766.5,300.5c0-18.3,14.1-35,14.3-50.6c0.2-18.7-13.5-35.6-13.4-50.8c0.1-19.5,13.8-36.6,13-51.1
			c-1.2-20.7-17.3-33.5-22.6-46.3c-6.5-15.8-7.6-35.8-24.6-44.3c-12.1-6-32.1,2.6-51.5-1.9c-14-3.2-27.3-20.3-45.8-23.6
			c-14.7-2.6-33.1,8.9-51,5.9c-19.7-3.3-34.4-20.6-49.4-23.3c-20.7-3.7-39.1,7.7-53.5,6.9c-19.7-1.2-38.1-12.3-53.7-3.7
			c-12.6,6.9-16.9,29.1-31.9,45.3c-10.1,11-31.8,14.9-44.8,31.2c-9.8,12.3-9.8,35.2-21.9,51c-9.9,12.8-31.6,18-43.4,33.4
			c-9.1,11.9-9.9,31.9-18.7,46.7l0,0c-21.1,33.4-19.1,94.3-1.4,125.1h0c10.2,15,10.5,36.5,20.1,48.9c11.8,15.4,33.5,20.5,43.4,33.4
			c12.1,15.8,12.1,38.7,21.9,51c13,16.3,34.6,20.2,44.8,31.2c15,16.3,19.3,38.4,31.9,45.3c15.6,8.5,34-2.6,53.7-3.7
			c14.5-0.9,32.8,10.5,53.5,6.8c14.9-2.7,29.6-20,49.3-23.3c17.1-2.9,34.9,8.9,49,6.7c17.7-2.7,31.1-19.3,44.7-21.6
			c18.9-3.3,37.4,7.4,49.6,3.4c18.6-6.2,21.9-24.6,29.1-38.1c6-11.3,21.9-22.6,23.2-43.3c0.8-13.6-13-30-13.1-49.1
			c-0.1-14.4,13.6-30.7,13.4-48.8C780.6,334.2,766.5,318.1,766.5,300.5z" style="fill:#10294C;"/>
		<path d="M741,168.2h0.3c4.3-0.2,7.5-5,7.2-10.8c-0.3-5.8-4-10.2-8.3-10c-2.4,0.2-4.5,1.6-5.6,3.7
			c-1.2,2.2-1.8,4.6-1.6,7.1C733.4,163.9,736.8,168.2,741,168.2z M738.9,153.6c0.2-0.4,0.8-1.3,1.6-1.3h0.1c1.3,0,2.9,2.3,3.1,5.4
			c0.2,3.1-1.2,5.6-2.6,5.7c-1.3,0.1-3-2.3-3.2-5.4C737.8,156.4,738.2,154.9,738.9,153.6z" style="fill:#00ACDC;"/>
		<path d="M561.8,42c-1.3-2-3.6-3.1-6-3.1c-4.3,0.2-7.5,5-7.2,10.8c0.3,5.7,3.8,10,8,10h0.3c4.3-0.2,7.5-5,7.2-10.8
			C564.1,46.4,563.3,44,561.8,42z M556.7,54.8c-1.3,0-3-2.3-3.2-5.4c-0.2-3.1,1.2-5.6,2.6-5.7h0.1c0.8,0,1.5,0.8,1.7,1.1
			c0.8,1.2,1.3,2.7,1.4,4.2C559.5,52.2,558.1,54.7,556.7,54.8L556.7,54.8z" style="fill:#F04E23;"/>
		<path d="M443.7,152.9c-4.3,0.2-7.5,5-7.2,10.8c0.3,5.7,3.8,10,8,10h0.3c2.4-0.2,4.5-1.6,5.6-3.7
			c1.2-2.2,1.8-4.6,1.6-7.1C451.7,157.1,448.1,152.7,443.7,152.9z M446.2,167.5c-0.2,0.4-0.9,1.3-1.6,1.3c-1.4,0-3-2.3-3.2-5.4
			c-0.2-3.1,1.2-5.6,2.6-5.7h0.1c1.3,0,2.9,2.3,3.1,5.4C447.3,164.7,447,166.2,446.2,167.5L446.2,167.5z" style="fill:#FDB813;"/>
		<path d="M405.4,383.3c-2.4,0.2-4.5,1.6-5.6,3.7c-1.2,2.2-1.8,4.6-1.6,7.1c0.3,5.7,3.8,10,8,10h0.3
			c2.4-0.2,4.5-1.6,5.6-3.7c1.2-2.2,1.8-4.6,1.6-7.1C413.4,387.5,409.7,383.1,405.4,383.3z M407.9,397.9c-0.2,0.4-0.8,1.3-1.6,1.3
			c-1.3,0.1-3-2.3-3.2-5.4c-0.1-1.5,0.2-3,0.9-4.3c0.2-0.4,0.8-1.3,1.6-1.3h0.1c1.3,0,2.9,2.3,3.1,5.4
			C408.9,395.1,408.6,396.6,407.9,397.9z" style="fill:#00ACDC;"/>
		<path d="M449.4,509.8c-4.3,0.2-7.5,5-7.2,10.8c0.3,5.7,3.8,10,8,10h0.3c4.3-0.2,7.5-5,7.2-10.8
			S453.7,509.6,449.4,509.8z M450.2,525.7c-1.3,0.1-3-2.3-3.2-5.4s1.2-5.6,2.6-5.7h0.1c1.3,0,2.9,2.3,3.1,5.4
			S451.5,525.7,450.2,525.7L450.2,525.7z" style="fill:#00ACDC;"/>
		<path d="M740.3,445.4c-2.4,0.2-4.5,1.6-5.6,3.7c-1.2,2.2-1.8,4.6-1.6,7.1c0.3,5.7,3.8,10,8,10h0.3
			c4.3-0.2,7.5-5,7.2-10.8S744.6,445.2,740.3,445.4z M741.1,461.3L741.1,461.3c-1.4,0-3-2.3-3.1-5.4c-0.1-1.5,0.2-3,0.9-4.3
			c0.2-0.4,0.8-1.3,1.6-1.3h0.1c1.3,0,2.9,2.3,3.1,5.4C743.8,458.7,742.4,461.3,741.1,461.3L741.1,461.3z" style="fill:#FDB813;"/>
		<path d="M686.3,242.2c-2.4,0.2-4.5,1.6-5.6,3.7c-1.2,2.2-1.8,4.6-1.6,7.1c0.3,5.7,3.8,10,8,10h0.3
			c4.3-0.2,7.5-5,7.2-10.8C694.3,246.4,690.6,241.9,686.3,242.2z M687.1,258.1c-1.3,0.1-3-2.3-3.2-5.4c-0.1-1.5,0.2-3,0.9-4.3
			c0.2-0.4,0.8-1.3,1.6-1.3h0.1c1.3,0,2.9,2.3,3.1,5.4C689.8,255.5,688.5,258,687.1,258.1L687.1,258.1z" style="fill:#F04E23;"/>
		<path d="M764.2,237.1c-1.3-1-2.6-1.9-4-2.7c-0.9-0.5-1.9-1-2.9-1.5c0-1.3-0.1-2.5-0.2-3.8c-0.2-1.7-0.4-3.3-0.8-4.9
			c-0.1-0.5-0.5-0.9-1.1-1.1c-0.8-0.2-1.6,0.3-1.8,1c0,0,0,0,0,0c-0.4,1.6-0.7,3.3-0.8,4.9c0,0.6-0.1,1.1-0.1,1.7
			c-0.4-0.1-0.7-0.3-1.1-0.4c-1.5-0.6-3.1-1-4.7-1.3c-0.5-0.1-1,0.1-1.4,0.5c-0.5,0.6-0.4,1.5,0.2,2.1c1.3,1,2.6,1.9,4,2.7
			c0.9,0.5,1.9,1.1,2.9,1.5c0,1,0.1,2,0.2,3c0.1,1.6,0.4,3.3,0.8,4.9c0.2,0.8,1,1.3,1.9,1.1c0.5-0.1,1-0.6,1.1-1.1
			c0.4-1.6,0.7-3.2,0.8-4.9c0-0.3,0-0.6,0-0.9c0.4,0.1,0.7,0.3,1.1,0.4c1.5,0.6,3.1,1,4.7,1.3c0.5,0.1,1.1-0.1,1.4-0.5
			C765,238.5,764.9,237.6,764.2,237.1C764.2,237.1,764.2,237.1,764.2,237.1z" style="fill:#00ACDC;"/>
		<path d="M723.9,308.1l10.6,4.9c1.2,0.6,2.7,0,3.2-1.2c0.3-0.6,0.3-1.2,0.1-1.8l-5.3-15.6c-0.4-1.3-1.8-2-3.1-1.5
			c-0.6,0.2-1.1,0.6-1.4,1.2l-5.3,10.6C722.1,306,722.6,307.4,723.9,308.1C723.8,308.1,723.9,308.1,723.9,308.1L723.9,308.1z" style="fill:#FDB813;"/>
		<path d="M633.1,101c-0.4-1.3-1.8-2-3.1-1.5c-0.6,0.2-1.1,0.6-1.4,1.2l-5.3,10.6c-0.6,1.2-0.1,2.7,1.1,3.3c0,0,0,0,0,0
			l10.6,4.9c0.3,0.2,0.7,0.2,1,0.2c1.3,0,2.4-1.1,2.5-2.4c0-0.3,0-0.6-0.1-0.8L633.1,101z" style="fill:#00ACDC;"/>
		<path d="M402.6,119.8c1.3,0,2.5-1.1,2.5-2.4c0-0.3,0-0.6-0.1-0.8l-5.3-15.6c-0.4-1.3-1.8-2-3.1-1.5
			c-0.6,0.2-1.1,0.6-1.4,1.2l-5.3,10.6c-0.6,1.2-0.1,2.7,1.1,3.3c0,0,0,0,0,0l10.6,4.9C401.9,119.7,402.3,119.8,402.6,119.8z" style="fill:#00ACDC;"/>
		<path d="M340.5,381.7c-0.3-0.9-1.2-1.6-2.2-1.6c-1-0.1-1.9,0.5-2.3,1.3l-5.3,10.6c-0.6,1.2-0.1,2.7,1.1,3.3l10.6,4.9
			c1.2,0.6,2.7,0,3.2-1.2c0.3-0.6,0.3-1.2,0.1-1.8L340.5,381.7z" style="fill:#00ACDC;"/>
		<path d="M506,449.8c1.3,0,2.5-1.1,2.5-2.4c0-0.3,0-0.6-0.1-0.8l-5.3-15.6c-0.4-1.3-1.8-2-3.1-1.5
			c-0.6,0.2-1.1,0.6-1.4,1.2l-5.3,10.6c-0.6,1.2-0.1,2.7,1.1,3.3c0,0,0,0,0.1,0l10.6,4.9C505.2,449.6,505.6,449.7,506,449.8z" style="fill:#FDB813;"/>
		<path d="M529.9,499.3c-0.4-1.3-1.8-2-3.1-1.5c-0.6,0.2-1.1,0.6-1.4,1.2l-5.3,10.6c-0.3,0.6-0.3,1.3-0.1,1.9
			c0.2,0.6,0.7,1.1,1.3,1.4l10.6,4.9c0.9,0.4,1.9,0.3,2.7-0.4c0.7-0.7,1-1.7,0.7-2.6L529.9,499.3z" style="fill:#00ACDC;"/>
		<path d="M677.9,484.8c-0.4-1.3-1.8-2-3.1-1.5c-0.6,0.2-1.1,0.6-1.4,1.2l-5.3,10.6c-0.3,0.6-0.3,1.3-0.1,1.9
			c0.2,0.6,0.7,1.1,1.3,1.4l10.6,4.9c1.2,0.6,2.7,0,3.3-1.2c0.3-0.6,0.3-1.2,0.1-1.8L677.9,484.8z" style="fill:#00ACDC;"/>
		<path d="M700,83.6c-0.9-0.5-1.9-1-2.9-1.5c0-1.3-0.1-2.5-0.2-3.8c-0.1-1.6-0.4-3.3-0.8-4.9c-0.2-0.8-1-1.3-1.8-1.1
			c-0.5,0.1-0.9,0.5-1.1,1.1c-0.4,1.6-0.7,3.2-0.8,4.9c0,0.6-0.1,1.1-0.1,1.7l-1.1-0.4c-1.5-0.6-3.1-1-4.7-1.3
			c-0.8-0.1-1.6,0.4-1.7,1.2c-0.1,0.5,0.1,1.1,0.5,1.4c1.3,1,2.6,1.9,4,2.7c0.9,0.6,1.9,1.1,2.9,1.5c0,1,0.1,2,0.2,3
			c0.1,1.6,0.4,3.3,0.8,4.9c0.2,0.8,1,1.3,1.8,1.1c0.5-0.1,1-0.6,1.1-1.1c0.4-1.6,0.7-3.2,0.8-4.9c0-0.3,0-0.6,0.1-0.9
			c0.4,0.1,0.7,0.3,1.1,0.4c1.5,0.6,3.1,1,4.7,1.3c0.5,0.1,1.1-0.1,1.4-0.5c0.5-0.6,0.4-1.6-0.2-2.1C702.8,85.3,701.5,84.4,700,83.6
			z" style="fill:#FDB813;"/>
		<path d="M462.9,60.2c-0.9-0.5-1.9-1-2.9-1.5c0-1.3-0.1-2.5-0.2-3.8c-0.1-1.6-0.4-3.3-0.8-4.9c-0.1-0.5-0.5-0.9-1-1.1
			c-0.8-0.2-1.6,0.3-1.8,1.1c-0.4,1.6-0.7,3.2-0.8,4.9c0,0.6-0.1,1.1-0.1,1.7l-1.1-0.4c-1.5-0.6-3.1-1-4.6-1.3
			c-0.8-0.1-1.6,0.4-1.7,1.2c-0.1,0.5,0.1,1.1,0.5,1.4c1.3,1,2.6,1.9,4,2.7c0.9,0.6,1.9,1.1,2.9,1.5c0,1,0.1,2,0.2,3
			c0.1,1.6,0.4,3.3,0.8,4.9c0.2,0.8,1,1.3,1.8,1.1c0.6-0.1,1-0.6,1.1-1.1c0.4-1.6,0.7-3.2,0.8-4.9c0-0.3,0-0.6,0-0.9l1.1,0.4
			c1.5,0.6,3.1,1,4.7,1.3c0.5,0.1,1.1-0.1,1.4-0.5c0.5-0.6,0.4-1.6-0.2-2.1c0,0,0,0,0,0C465.7,61.9,464.3,61,462.9,60.2z" style="fill:#F04E23;"/>
		<path d="M364.6,209.8c-0.9-0.5-1.9-1.1-2.9-1.5c0-1.3-0.1-2.5-0.2-3.8c-0.2-1.7-0.4-3.3-0.8-4.9
			c-0.1-0.5-0.5-0.9-1.1-1.1c-0.8-0.2-1.6,0.3-1.8,1c0,0,0,0,0,0c-0.4,1.6-0.7,3.3-0.8,4.9c0,0.6-0.1,1.1-0.1,1.7l-1.1-0.4
			c-1.5-0.6-3.1-1-4.7-1.3c-0.8-0.1-1.5,0.4-1.7,1.2c-0.1,0.5,0.1,1,0.5,1.3c1.3,1,2.6,1.9,4,2.7c0.9,0.6,1.9,1.1,2.9,1.5
			c0,1,0.1,2,0.2,3c0.1,1.7,0.4,3.3,0.8,4.9c0.2,0.8,1,1.3,1.9,1.1c0.5-0.1,1-0.6,1.1-1.1c0.4-1.6,0.6-3.3,0.8-4.9
			c0-0.3,0-0.6,0-0.9c0.4,0.1,0.7,0.3,1.1,0.4c1.5,0.6,3.1,1,4.7,1.3c0.5,0.1,1.1-0.1,1.4-0.5c0.5-0.6,0.4-1.6-0.2-2.1c0,0,0,0,0,0
			C367.3,211.5,366,210.6,364.6,209.8z" style="fill:#00ACDC;"/>
		<path d="M416.5,462.3c-0.9-0.5-1.9-1-2.9-1.5c0-1.3-0.1-2.5-0.2-3.8c-0.2-1.6-0.4-3.3-0.8-4.9c-0.2-0.8-1-1.3-1.8-1.1
			c-0.5,0.1-0.9,0.5-1.1,1.1c-0.4,1.6-0.7,3.2-0.8,4.9c-0.1,0.6-0.1,1.1-0.1,1.7c-0.4-0.1-0.7-0.3-1.1-0.4c-1.5-0.6-3.1-1-4.7-1.3
			c-0.8-0.1-1.6,0.4-1.7,1.2c-0.1,0.5,0.1,1.1,0.5,1.4c1.3,1,2.6,1.9,4,2.7c0.9,0.5,1.9,1.1,2.9,1.5c0,1,0.1,2,0.2,3
			c0.1,1.6,0.4,3.3,0.8,4.9c0.2,0.8,1,1.3,1.9,1.1c0.5-0.1,1-0.6,1.1-1.1c0.4-1.6,0.6-3.2,0.8-4.9c0-0.3,0-0.6,0.1-0.9
			c0.4,0.1,0.7,0.3,1.1,0.4c1.5,0.6,3.1,1,4.7,1.3c0.5,0.1,1.1-0.1,1.4-0.5c0.5-0.6,0.4-1.6-0.2-2.1c0,0,0,0,0,0
			C419.2,464,417.8,463.1,416.5,462.3z" style="fill:#F04E23;"/>
		<path d="M597.4,493.8c-0.9-0.5-1.9-1-2.9-1.5c0-1.3-0.1-2.5-0.2-3.8c-0.1-1.6-0.4-3.3-0.8-4.9c-0.2-0.8-1-1.3-1.8-1.1
			c-0.5,0.1-0.9,0.5-1.1,1.1c-0.4,1.6-0.7,3.2-0.8,4.9c-0.1,0.6-0.1,1.1-0.1,1.7c-0.4-0.1-0.7-0.3-1.1-0.4c-1.5-0.6-3.1-1-4.7-1.3
			c-0.8-0.1-1.6,0.4-1.7,1.2c-0.1,0.5,0.1,1.1,0.5,1.4c1.3,1,2.6,1.9,4,2.7c0.9,0.5,1.9,1.1,2.9,1.5c0,1,0.1,2,0.2,3
			c0.1,1.6,0.4,3.3,0.8,4.9c0.1,0.5,0.6,1,1.1,1.1c0.8,0.2,1.6-0.3,1.8-1.1c0,0,0,0,0,0c0.4-1.6,0.7-3.2,0.8-4.9
			c0-0.3,0-0.6,0.1-0.9c0.4,0.1,0.7,0.3,1.1,0.4c1.5,0.6,3.1,1,4.7,1.3c0.8,0.2,1.6-0.4,1.8-1.2c0.1-0.6-0.1-1.1-0.5-1.5
			C600.1,495.5,598.8,494.6,597.4,493.8z" style="fill:#F04E23;"/>
		<path d="M734.4,387.3c0.5-0.6,0.4-1.6-0.2-2.1c0,0,0,0,0,0c-1.3-1-2.6-1.9-4-2.7c-0.9-0.5-1.9-1-2.9-1.5
			c0-1.3-0.1-2.5-0.2-3.8c-0.1-1.6-0.4-3.3-0.8-4.9c-0.1-0.5-0.5-0.9-1.1-1.1c-0.8-0.2-1.6,0.3-1.8,1c0,0,0,0,0,0
			c-0.4,1.6-0.7,3.2-0.8,4.9c-0.1,0.6-0.1,1.1-0.1,1.7c-0.4-0.1-0.7-0.3-1.1-0.4c-1.5-0.6-3.1-1-4.7-1.3c-0.5-0.1-1,0.1-1.4,0.5
			c-0.5,0.6-0.4,1.5,0.2,2.1c0,0,0,0,0,0c1.3,1,2.6,1.9,4,2.7c0.9,0.5,1.9,1.1,2.9,1.5c0,1,0.1,2,0.2,3c0.1,1.6,0.4,3.3,0.8,4.9
			c0.2,0.8,1,1.3,1.8,1.1c0.5-0.1,1-0.6,1.1-1.1c0.4-1.6,0.7-3.2,0.8-4.9c0-0.3,0-0.6,0.1-0.9c0.4,0.1,0.7,0.3,1.1,0.4
			c1.5,0.6,3.1,1,4.7,1.3C733.5,387.9,734,387.8,734.4,387.3z" style="fill:#00ACDC;"/>
	</g>
	<g>
		<path d="M334,243.8c-0.4-2.6-1.3-5.1-2.7-7.4l-0.1-0.1c-4.5-7.5-13.1-11.6-21.7-10.3c-0.9,0.1-1.8,0.3-2.7,0.4
			c-5.1,0.9-10.6,2.2-17.6,4.1c-11.3,3-26.4,7.5-49.8,14.2c-54.7,15.6-79,25.8-89.6,31.2c-5.3,2.7-9.3,7.6-10.9,13.4
			c-2.3,8.2-4.9,23.1-4.9,47.7c0,17.5,1.3,30.6,2.9,40c0.1,0.6,0.2,1.3,0.4,1.9c2.4,9,10.2,15.5,19.5,16c1.5,0.1,3,0,4.5-0.2
			c15.3-2.3,40.5-7.2,78.1-17.7c23.1-6.5,39.8-12.6,52.2-17.8c14.3-6.1,23-11.1,29.5-14.2c5.7-2.7,9.9-7.9,11.4-14
			c2.1-8.1,4.1-22.4,4.1-46.9C336.6,265.7,335.5,252.8,334,243.8z" style="fill:#00ACDC;"/>
		<path d="M282.9,411.6c-0.2,3.9-0.4,7.6-0.6,11.1C230,464.2,175.3,464.5,153,456.3c-4.9-1.8-9.5-4.6-13.4-8.1
			c-11.9-19.4-6.1-47.2,45.8-45.8c52.5,1.5,84.3-16.7,98.1-27C283.5,380.8,283.5,397,282.9,411.6z" style="fill:#FFFFFF;"/>
		<path d="M288.2,417.7c-1.3-2.4-3.1-4.5-5.4-6.1c-0.2,3.9-0.4,7.6-0.6,11.1C230,464.2,175.3,464.5,153,456.4
			c-4.9-1.8-9.5-4.6-13.4-8.1c4.8,7.9,12.6,14.4,21.3,16.9c25.1,7.3,76.9,4.3,121.3-31.7l0.1-0.1c0.8-0.6,1.5-1.3,2.3-1.9
			c2.7-2.5,4.1-5,4.5-7.3c0-0.8,0.1-1.6,0.2-2.4C289.2,420.3,288.9,419,288.2,417.7z" style="fill:#10294C;"/>
		<path d="M89,323.4c0.2,3.1-2.1,5.8-5.2,6c-0.6,0-1.3,0-1.9-0.2c-3.5-0.9-6.8-2.1-10.1-3.5c-1.9-0.8-3.2-2.5-3.5-4.5
			c-1.2-10.4-1.7-20.8-1.5-31.2c8.1,2.4,15.3,4.1,20.8,5.4C87.9,307,88.6,317,89,323.4z" style="fill:#FDB813;"/>
		<path d="M88,261.7c-11-3-24.1-7.1-37.5-12.2c-1.9-0.7-3.8-1.2-5.8-1.4v-0.1c-2.2-1.4-4.4-2.8-6.5-4.4
			c-3.9,1.8-6.7,5.4-7.4,9.6c0.1-0.3,0.3-0.7,0.5-1c0.9-1.2,2.4-1.7,3.8-1.1c3.1,1.2,6.2,2.4,9.3,3.5c14.2,5,28.7,9.3,43.4,12.9
			c10.8,2.7,17.8,4,17.8,4c0.7-1.7,1.6-3.2,2.6-4.7C103,265.7,96,264,88,261.7z" style="fill:#00ACDC;"/>
		<path d="M42.8,332.9c0.1,25.2,0.6,46.5,1.4,64.1c-40.1-28.4-33.8-112.4-6.4-116.6l0,0c1.4,0.5,2.8,1.1,4.2,1.6
			c-4.8,2.1-8,7.3-8.7,15.3C32.4,309.8,33.3,323.7,42.8,332.9z" style="fill:#FDB813;"/>
		<path d="M239.4,377c-37.6,10.5-62.8,15.4-78.1,17.7c-1.5,0.2-3,0.3-4.5,0.2c-17.4-0.7-35-7.1-46.4-18.5l0,0
			c-2.4-2.3-4.5-4.9-6.3-7.7c-0.9-1.8-1.5-3.8-1.8-5.8c-1.6-9.4-2.9-22.5-2.9-40c0-9.7,0.4-17.8,1-24.6c0,0-4.8-0.8-12.7-2.7
			c0.3,11.5,0.9,21.5,1.4,27.9c0.2,3.1-2.1,5.8-5.2,6c-0.6,0-1.3,0-1.9-0.2c-3.5-0.9-6.8-2.1-10.1-3.5c-1.9-0.8-3.2-2.5-3.5-4.5
			c-1.2-10.4-1.7-20.8-1.5-31.2l-1.2-0.3c-8.4-7.5-16.3-10-22.2-8.2c-0.4,0.1-0.9,0.3-1.3,0.5c-4.8,2.1-8,7.3-8.7,15.3
			c-1.1,12.5-0.1,26.4,9.4,35.6c0.1,25.2,0.6,46.5,1.4,64.1c0.6,12.4,1.2,22.9,1.9,31.5c2.1,26.1,17.1,49.7,40.3,63.6
			c22.9,13.7,53.5,24,80.9,24s58.3-10.5,81.2-24.2c23.3-14,38.3-37.8,40.3-64.2c0.1-1.2,0.2-2.4,0.3-3.6c-0.5,2.4-1.9,4.9-4.5,7.3
			c-0.7,0.7-1.5,1.3-2.3,1.9l-0.1,0.1c-44.4,36-96.2,39.1-121.3,31.7c-8.7-2.6-16.5-9.1-21.3-16.9c-11.9-19.4-6.1-47.2,45.8-45.8
			c52.5,1.5,84.3-16.7,98.1-27c2.8-2.1,5.5-4.3,8-6.8l0,0c0.1-3,0.1-6.2,0.2-9.4C279.2,364.4,262.5,370.5,239.4,377z" style="fill:#F04E23;"/>
		<path d="M331.3,85.4c-2.4,5.9-5.5,11.5-9.2,16.7c-10.5-41.3-49.2-56.3-69.8-60.3c4.7,6,7.1,13.4,6.9,21
			c-29.2,0.8-50.5,19.9-71.5,31.5c-36.9,20.5-57.5,24-88.4,20.7c-10.5-1.1-21.2-0.1-31.3,3c-0.3,0-0.5,0.1-0.7,0.2h-0.1
			c-1.2,0.4-2.3,0.8-3.4,1.2c-6.8,2.1-14.1,2.2-20.9,0.3c-0.9-0.3-1.7-0.6-2.6-0.8h-0.1c-0.3-0.1-0.5-0.2-0.8-0.2
			C18.9,113.3,0,122.7,0,122.7c21.4,1.1,23.9,18,23.9,18c-17.1,1.1-22.1,15.5-22.1,15.5c2.9-0.3,5.9,0,8.8,0.9
			c0.3,0.1,0.6,0.2,0.9,0.3l0.1,0c5.9,2.5,5.7,10.2,4.4,15.4v0.1c-7,25.2-1.2,53,22.2,70.9c2.1,1.6,4.2,3.1,6.5,4.4v0.1
			c2,0.2,3.9,0.7,5.8,1.4c13.4,5.1,26.5,9.1,37.5,12.2c0.7-13.1,2.2-25.7,5.1-35.2c9.9-32.4,38.7-30.2,60.7-24.8
			c21.3,5.2,41.7,6.8,68.8-13.8c3.4-2.6,6.6-4.9,9.5-6.9c29.6-20.5,39.8-16.2,51.3,0c0,0,1.6,5.8,3.5,22.2l0,0
			c8.7-3.7,16.6-9.3,22.9-16.3l0,0C332.5,163.7,342.2,131.4,331.3,85.4z" style="fill:#FDB813;"/>
		<g id="_Groupe_">
			<path d="M286.8,203.1c-1.8-16.3-3.5-22.2-3.5-22.2c-11.5-16.2-21.7-20.5-51.3,0c-3,2.1-6.1,4.4-9.5,6.9
				c-27.1,20.6-47.5,19-68.8,13.8c-22-5.4-50.8-7.6-60.7,24.8c-2.9,9.5-4.4,22.1-5.1,35.2c8,2.2,15,3.9,20.2,5.1l0,0
				c3.5-5,9.5-10.2,19.7-12.8c23.6-5.9,26.2,5.8,88.3-13.7c67.2-21.1,56.4-25.4,70.5-28.4c0.4-0.1,0.7-0.2,1.1-0.2
				C287.4,208.6,287.1,205.7,286.8,203.1z" style="fill:#F04E23;"/>
			<path d="M293.6,211.8L293.6,211.8c-1.2-0.1-2.3-0.2-3.5-0.3c-0.8,0-1.6,0.1-2.4,0.2c-0.4,0-0.7,0.1-1.1,0.2
				c-14,3-3.3,7.3-70.5,28.4c-62.1,19.5-64.7,7.8-88.3,13.7c-10.2,2.6-16.2,7.8-19.7,12.8l0,0c-1,1.5-1.9,3.1-2.6,4.7
				c0,0-7-1.3-17.8-4c-14.7-3.6-29.1-7.9-43.4-12.9c-3.1-1.1-6.2-2.3-9.3-3.5c-1.4-0.6-3-0.1-3.8,1.1c-0.2,0.3-0.4,0.6-0.5,1
				c0,0.1,0,0.2-0.1,0.3c-0.5,3.2-0.8,6.4-0.7,9.6c0,7.1,0.8,11.3,1.4,13.3c0.3,1,1,1.8,1.9,2.1c1.5,0.6,3.1,1.2,4.6,1.8l0,0
				c1.4,0.5,2.8,1.1,4.2,1.6c0.4-0.2,0.9-0.3,1.3-0.5c5.9-1.8,13.8,0.7,22.2,8.2l1.2,0.3c8.1,2.4,15.3,4.1,20.8,5.4
				c7.9,1.8,12.7,2.7,12.7,2.7c-0.6,6.8-1,15-1,24.6c0,17.5,1.3,30.6,2.9,40c0.3,2,0.9,3.9,1.8,5.8c1.8,2.8,3.9,5.4,6.3,7.7l0,0
				c11.4,11.4,29,17.8,46.4,18.5c-9.3-0.6-17.1-7.1-19.5-16c-0.2-0.6-0.3-1.2-0.4-1.9c-1.6-9.4-2.9-22.5-2.9-40
				c0-24.6,2.6-39.4,4.9-47.7c1.6-5.8,5.5-10.6,10.9-13.4c10.6-5.4,34.9-15.6,89.6-31.2c23.4-6.7,38.5-11.2,49.8-14.2
				c7-1.9,12.5-3.2,17.6-4.1c0.9-0.2,1.8-0.3,2.7-0.4c8.7-1.3,17.3,2.7,21.8,10.3C327,228.4,319.5,214.7,293.6,211.8z" style="fill:#10294C;"/>
		</g>
		<path d="M280.6,400.8c-0.3-0.4-0.8-0.4-1.1-0.2l0,0c-1.3,0.9-2.5,1.8-3.8,2.6c-0.6,0.4-1.2,0.9-1.9,1.3l-1.9,1.2
			l-0.4,0.3c-0.1-2.4-0.3-4.7-0.5-7.1c-0.3-3.2-0.9-6.3-1.7-9.4c-0.1-0.5-0.7-0.9-1.2-0.7c-0.4,0.1-0.6,0.4-0.7,0.7
			c-0.8,3.1-1.4,6.2-1.7,9.4c-0.3,3.1-0.5,6.2-0.6,9.4c0,0.5,0,1.1,0,1.6l-1,0.6c-1.3,0.7-2.7,1.4-4,2.1l-2,1l-2.1,1
			c-1.4,0.6-2.7,1.3-4.1,1.9l-1.5,0.6c-0.1-2.5-0.3-4.9-0.5-7.4c-0.3-3.3-0.9-6.7-1.7-9.9c-0.2-0.5-0.7-0.9-1.3-0.7
			c-0.3,0.1-0.6,0.4-0.7,0.7c-0.8,3.3-1.4,6.6-1.7,9.9c-0.3,3.3-0.5,6.6-0.6,9.9c-4.4,1.6-8.9,3-13.4,4.2c-1.4,0.4-2.9,0.7-4.4,1.1
			l-0.8,0.2c-0.1-3-0.2-5.9-0.5-8.9c-0.3-3.7-0.9-7.3-1.7-10.9c-0.1-0.5-0.7-0.9-1.2-0.8c-0.4,0.1-0.7,0.4-0.8,0.8
			c-0.8,3.6-1.4,7.3-1.7,10.9c-0.3,3.4-0.5,6.9-0.6,10.3c-0.6,0.1-1.1,0.2-1.7,0.3l-4.5,0.8c-3,0.5-6,1-9,1.3
			c-1.5,0.2-3,0.4-4.5,0.5c-0.9,0.1-1.7,0.2-2.6,0.3c-0.1-3.3-0.2-6.6-0.5-10c-0.3-3.9-0.9-7.7-1.7-11.5c-0.1-0.4-0.4-0.7-0.8-0.8
			c-0.5-0.1-1.1,0.2-1.2,0.8c-0.8,3.8-1.4,7.6-1.7,11.5c-0.3,3.5-0.5,7-0.6,10.5l0,0l-4.6,0.3c-3,0.2-6.1,0.3-9.1,0.3
			c-3.7,0.1-7.4,0.1-11.2,0c-0.1-3.7-0.2-7.4-0.6-11.1c-0.3-3.9-0.9-7.7-1.8-11.5c-0.1-0.4-0.4-0.7-0.8-0.8
			c-0.5-0.1-1.1,0.2-1.2,0.7c0,0,0,0,0,0c-0.8,3.8-1.3,7.6-1.6,11.5c-0.3,3.7-0.5,7.3-0.6,11c-6.4-0.2-12.7-0.7-19-1.3h0
			c-0.5-0.1-1,0.3-1.1,0.9c0,0.5,0.3,0.9,0.7,1c6.4,1.5,12.9,2.7,19.4,3.4c0,2.6,0.1,5.3,0.4,7.9c0.3,3.9,1,7.7,2.1,11.5
			c0.1,0.3,0.3,0.5,0.6,0.6c0.4,0.1,0.9-0.1,1-0.5c0,0,0,0,0,0c1.1-3.8,1.8-7.6,2.1-11.5c0.2-2.4,0.3-4.9,0.4-7.3
			c3.7,0.3,7.4,0.6,11.1,0.7c4.6,0.1,9.2,0.2,13.8,0c0,2.2,0.2,4.4,0.4,6.5c0.3,3.9,1,7.7,2.1,11.5c0.1,0.3,0.3,0.5,0.6,0.6
			c0.4,0.1,0.9-0.1,1-0.5c0,0,0,0,0,0c1.1-3.8,1.8-7.6,2.1-11.5c0.2-2.3,0.3-4.6,0.4-6.9l3.2-0.2c1.6-0.1,3.1-0.3,4.7-0.4
			c3.1-0.3,6.2-0.8,9.3-1.3c1.7-0.3,3.4-0.6,5.1-0.9c0.1,1.6,0.2,3.3,0.3,5c0.3,3.7,1,7.4,2,11c0.1,0.3,0.3,0.5,0.6,0.5
			c0.4,0.2,0.9-0.1,1.1-0.5c0,0,0,0,0-0.1c1.1-3.6,1.8-7.2,2.1-10.9c0.2-2.1,0.3-4.2,0.4-6.4c2.3-0.5,4.6-1.1,6.9-1.8
			c4-1.2,8-2.5,11.8-4.1c0.1,1.2,0.1,2.4,0.3,3.6c0.3,3.4,1,6.7,2.1,9.9c0.1,0.2,0.3,0.4,0.5,0.5c0.4,0.2,0.9,0,1.1-0.5
			c0,0,0,0,0-0.1c1.1-3.2,1.8-6.6,2.1-9.9c0.2-2.1,0.3-4.2,0.4-6.3c5.1-2.4,10.1-5.2,14.8-8.4c0.1,0.9,0.1,1.9,0.2,2.8
			c0.3,3.2,1,6.3,2.1,9.4c0.1,0.2,0.3,0.4,0.5,0.5c0.4,0.2,0.9-0.1,1.1-0.5c1.1-3,1.7-6.2,2.1-9.4c0.3-2.5,0.4-5,0.4-7.6
			c3.2-2.6,6.2-5.4,9-8.3C280.8,401.5,280.8,401.1,280.6,400.8z" style="fill:#10294C;"/>
		<path d="M45.9,334.1c0.5,0.1,0.9,0.3,1.4,0.5c0.5,0.2,0.9,0.4,1.3,0.6c0.9,0.4,1.7,0.9,2.5,1.4c0.8,0.5,1.7,1,2.4,1.6
			c0.9,0.6,1.7,1.3,2.4,2.1l0.1,0.1c0.8,0.9,0.7,2.3-0.2,3.1c-0.3,0.3-0.8,0.5-1.2,0.5c-1.2,0.1-2.4-0.1-3.6-0.4
			c-1.1-0.4-2.2-0.9-3.3-1.5c-1-0.6-2-1.4-2.8-2.3c-0.4-0.5-0.8-1-1.1-1.5c-0.4-0.6-0.7-1.2-0.9-1.9c-0.3-1,0.2-2,1.2-2.4
			c0.3-0.1,0.5-0.1,0.8-0.1L45.9,334.1z" style="fill:#10294C;"/>
		<path d="M51.9,301.4c0.5,1.1,0.9,2.2,1.1,3.3c0.2,1.1,0.3,2.2,0.3,3.3c0,1.1-0.1,2.2-0.3,3.3c-0.2,1.2-0.5,2.3-1,3.3
			c-0.5,1.1-1.8,1.5-2.9,1c0,0,0,0,0,0c-0.4-0.2-0.8-0.6-1-1c-0.5-1.1-0.9-2.2-1-3.3c-0.2-1.1-0.3-2.2-0.3-3.3
			c0-1.1,0.1-2.2,0.3-3.3c0.2-1.2,0.6-2.3,1.1-3.3c0.5-1,1.8-1.5,2.8-0.9C51.4,300.7,51.7,301,51.9,301.4L51.9,301.4z" style="fill:#10294C;"/>
		<path d="M321.8,253.2c-0.3-1.7-0.9-3.4-1.8-4.9l-0.1-0.1c-2.6-4.3-7.3-7-12.3-7c-0.7,0-1.4,0.1-2.2,0.2
			c-0.7,0.1-1.4,0.2-2.1,0.4c-3.8,0.7-8.2,1.6-14.1,3.3c-4,1.1-9.8,3-16.6,5.3c-8.3,2.8-18.5,6.2-29.1,9.2
			c-47.2,13.5-73.2,24-80.4,27.6c-3.5,1.8-6.2,5-7.2,8.9c-1.7,6.4-3.8,18.2-3.8,38.1c-0.1,10.8,0.7,21.5,2.3,32.1
			c0.1,0.4,0.2,0.8,0.3,1.2c1.5,6,6.8,10.3,13,10.7c1,0.1,2,0,3-0.1c1.9-0.3,4.1-0.7,6.8-1.2V356c0-1.7,1.3-3.2,3.1-3.3
			c0,0,5.7-0.4,19.9-3.7c13.8-3.2,19.7-5.9,19.8-5.9c1.6-0.8,3.6-0.1,4.3,1.5c0.2,0.4,0.3,0.9,0.3,1.4v19.7c5.5-1.4,11.2-3,17-4.6
			c18.9-5.3,37.4-13.1,47.3-17.3c8.5-3.6,14.5-6.7,19.3-9.2c1.7-0.9,3.3-1.7,4.6-2.4c3.8-1.8,6.5-5.2,7.6-9.3
			c1.5-5.9,3.3-17.2,3.3-37.5C324,272.8,323.3,261.9,321.8,253.2L321.8,253.2z" style="fill:none;"/>
		<path d="M183.9,358.9v16.6c9.2-1.9,21.1-4.7,34.4-8v-16.7c-5.4,1.8-10.9,3.4-16.5,4.6
			C192.8,357.6,187.1,358.5,183.9,358.9z" style="fill:none;"/>
		<path d="M328.3,252.2c-0.4-2.5-1.3-4.9-2.6-7.1c0,0-0.1-0.1-0.1-0.1c-4.3-7.3-12.7-11.3-21.1-10
			c-0.8,0.1-1.5,0.2-2.3,0.4c-4,0.7-8.5,1.7-14.7,3.4c-4.2,1.1-10.1,3.1-16.9,5.4c-8.2,2.7-18.4,6.2-28.9,9.1
			c-41.4,11.8-71.3,22.9-81.5,28.1c-5.2,2.7-9.1,7.4-10.6,13c-1.9,6.8-4.1,19.2-4.1,39.8c-0.1,11.1,0.7,22.2,2.4,33.2
			c0.1,0.6,0.2,1.2,0.4,1.8c2.2,8.7,9.9,15,18.9,15.5c0.4,0,0.9,0,1.3,0c1,0,2-0.1,3-0.2c11.8-1.8,39.3-7.8,72-16.9
			c19.3-5.4,38-13.3,48.1-17.6c8.8-3.7,14.9-6.9,19.8-9.4c1.6-0.8,3.2-1.6,4.5-2.3c5.5-2.7,9.5-7.6,11-13.6
			c2.3-9.1,3.5-22.3,3.5-39.1C330.5,272.4,329.7,261.2,328.3,252.2z M218.3,367.6c-13.3,3.4-25.2,6.1-34.4,8v-16.6
			c3.1-0.4,8.9-1.4,17.9-3.5c5.6-1.2,11.1-2.8,16.5-4.6L218.3,367.6z M320.7,323.1c-1,4.1-3.8,7.5-7.6,9.3c-1.4,0.7-2.9,1.5-4.6,2.4
			c-4.8,2.5-10.8,5.6-19.3,9.2c-10,4.2-28.5,12-47.3,17.3c-5.8,1.6-11.5,3.2-17,4.6v-19.7c0-1.8-1.5-3.3-3.3-3.3
			c-0.5,0-1,0.1-1.4,0.3c-0.1,0-5.9,2.8-19.8,5.9c-14.2,3.3-19.9,3.6-19.9,3.7c-1.7,0.1-3.1,1.5-3.1,3.3v20.8
			c-2.6,0.5-4.9,0.9-6.8,1.2c-1,0.2-2,0.2-3,0.1c-6.2-0.4-11.4-4.7-13-10.7c-0.1-0.4-0.2-0.8-0.3-1.2c-1.7-10.6-2.5-21.4-2.4-32.1
			c0-19.8,2.1-31.6,3.9-38.1c1.1-3.8,3.7-7.1,7.2-8.9c7.2-3.7,33.2-14.2,80.4-27.6c10.6-3,20.9-6.5,29.1-9.2
			c6.7-2.2,12.5-4.2,16.6-5.3c5.9-1.6,10.3-2.6,14.1-3.3c0.7-0.1,1.4-0.2,2.1-0.4c0.7-0.1,1.4-0.2,2.2-0.2c5,0,9.7,2.6,12.3,7
			l0.1,0.1c0.9,1.5,1.5,3.2,1.8,4.9l0,0c1.4,8.6,2.1,19.5,2.1,32.4C324,305.9,322.2,317.2,320.7,323.1z" style="fill:#10294C;"/>
		<ellipse cx="306" cy="261" rx="5.6" ry="8.1" style="fill:#10294C;"/>
		<ellipse cx="287.4" cy="265.8" rx="5.6" ry="8.1" style="fill:#10294C;"/>
		<path d="M104.7,324.4c2,0.1,4,0.3,6,0.6c2,0.3,3.9,0.7,5.9,1.2c1.9,0.4,3.9,1,5.8,1.5c1.9,0.6,3.9,1.3,5.7,2.1l0,0
			c1,0.5,1.5,1.7,1,2.7c-0.3,0.7-0.9,1.1-1.7,1.2c-2.1,0.2-4.2,0.1-6.2-0.1c-4.1-0.4-8.2-1.4-12-2.9c-2-0.7-3.9-1.7-5.7-2.8
			c-0.9-0.6-1.2-1.8-0.6-2.7c0.4-0.6,1-0.9,1.7-0.9L104.7,324.4z" style="fill:#00ACDC;"/>
		<path d="M104.7,310.5c2,0.1,4,0.3,6,0.6c2,0.3,3.9,0.7,5.9,1.2c1.9,0.4,3.9,1,5.8,1.5c1.9,0.6,3.9,1.3,5.7,2.1l0,0
			c1,0.5,1.5,1.7,1,2.7c-0.3,0.7-0.9,1.1-1.7,1.2c-2.1,0.2-4.2,0.1-6.2-0.1c-4.1-0.4-8.2-1.4-12-2.9c-2-0.7-3.9-1.7-5.7-2.8
			c-0.9-0.6-1.2-1.8-0.6-2.7c0.4-0.6,1-0.9,1.7-0.9L104.7,310.5z" style="fill:#00ACDC;"/>
		<path d="M303.9,127.5c-0.4-3.1-1.2-6.1-2.4-8.9c-1.3-2.8-2.9-5.4-4.8-7.9c-1.1-1.4-3.1-1.6-4.4-0.5
			c-0.6,0.4-0.9,1-1.1,1.7l0,0.2l-0.1,0.6l-0.2,0.6c-0.1,0.4-0.3,0.9-0.4,1.3c-0.3,0.9-0.6,1.7-1,2.5c-0.7,1.7-1.6,3.3-2.6,4.8
			c-0.5,0.7-1,1.4-1.5,2.1c0-0.2,0-0.3-0.1-0.5c-0.3-1.8-0.9-3.4-1.8-5c-0.9-1.5-2.2-2.8-3.6-3.9l-0.2-0.2c-0.2-0.1-0.4-0.2-0.6-0.3
			c-1.4-0.5-2.9,0.2-3.4,1.5c-0.2,0.6-0.5,1.2-0.8,1.9s-0.6,1.3-0.9,1.9c-0.6,1.2-1.3,2.4-2.1,3.6l-0.1,0.1
			c-0.6,0.9-0.3,2.1,0.6,2.7c0.7,0.5,1.7,0.4,2.4-0.2c0.6-0.5,1.2-1.1,1.8-1.7c0.5-0.6,1.1-1.2,1.5-1.8l0.4-0.5
			c0.4,0.9,0.7,1.8,0.8,2.8c0.1,1.1,0.1,2.2,0,3.3c-0.1,0.6-0.2,1.1-0.3,1.7c-0.1,0.3-0.1,0.6-0.2,0.8l-0.1,0.4l-0.1,0.3
			c-0.8,1.5-0.3,3.4,1.1,4.2c1,0.6,2.3,0.5,3.3-0.1l0.4-0.2c1.8-1.3,3.5-2.7,5.1-4.3c1.5-1.6,2.9-3.3,4.1-5.2
			c1.1-1.8,2.1-3.7,2.9-5.6c1.5,2.6,2.5,5.5,3.1,8.5c0.5,2.5,0.6,5.1,0.4,7.7c-0.1,1.3-0.3,2.6-0.5,3.9c-0.1,0.6-0.3,1.3-0.4,1.9
			c-0.2,0.6-0.4,1.3-0.6,1.8l0,0.1c-0.3,1,0.2,2.1,1.2,2.4c0.8,0.3,1.8-0.1,2.2-0.8c0.4-0.7,0.7-1.4,1-2.1c0.3-0.7,0.6-1.4,0.8-2.1
			c0.5-1.4,0.9-2.9,1.1-4.4C304.1,133.6,304.2,130.5,303.9,127.5z" style="fill:#F04E23;"/>
		<path d="M271.9,101.7l0.2,0.4c0.3,0.7,0.9,1.1,1.6,1.1c1,0.1,1.9-0.7,2-1.7c0,0,0,0,0,0c0.1-0.9,0.1-1.9,0-2.8
			c-0.1-0.9-0.2-1.8-0.4-2.7c-0.2-0.9-0.5-1.7-0.7-2.6c-0.3-0.9-0.7-1.7-1.1-2.5c-0.8-1.6-1.8-3.2-3-4.6c-1.2-1.4-2.6-2.6-4.1-3.7
			c-1.5-1.1-3.5-0.7-4.5,0.7c-0.4,0.5-0.6,1.2-0.6,1.8v0.1c0,0.2,0,0.6,0,0.9s-0.1,0.7-0.1,1c-0.1,0.7-0.2,1.3-0.3,2
			c-0.2,1.4-0.5,2.7-0.9,4c-0.1,0.3-0.2,0.7-0.3,1c-0.1,0.3-0.2,0.7-0.3,1c-0.2,0.7-0.4,1.3-0.7,2c-0.5,1.3-1.1,2.6-1.6,3.9
			l-0.1,0.1c-0.5,1-0.1,2.2,0.9,2.6c0.8,0.4,1.8,0.2,2.3-0.5c1.1-1.2,2.2-2.4,3-3.8c0.9-1.4,1.7-2.8,2.3-4.4
			c0.5-1.1,0.8-2.2,1.2-3.3c0.6,0.7,1.1,1.4,1.6,2.2c0.8,1.2,1.5,2.4,2.1,3.7c0.3,0.7,0.6,1.3,0.9,2c0.1,0.3,0.3,0.7,0.4,1
			C271.8,101.1,271.8,101.5,271.9,101.7z" style="fill:#F04E23;"/>
		<path d="M239.3,135.7c-0.7-2.2-1.7-4.3-2.9-6.3l0,0c-0.3-0.6-0.9-1-1.4-1.2c-1.6-0.7-3.6,0-4.3,1.7c0,0,0,0,0,0
			c-0.1,0.3-0.3,0.7-0.5,1.1c-0.2,0.4-0.4,0.8-0.6,1.2c-0.5,0.8-0.9,1.6-1.4,2.3c-1,1.5-2,3-3.2,4.4c-0.3,0.4-0.6,0.7-0.9,1.1
			s-0.6,0.7-0.9,1c-0.6,0.7-1.2,1.3-1.9,2c-1.3,1.3-2.7,2.5-4.1,3.7l-0.1,0.1c-0.8,0.7-0.9,2-0.2,2.8c0.6,0.7,1.5,0.9,2.3,0.5
			c1.9-0.9,3.7-1.9,5.3-3.2c1.7-1.2,3.3-2.6,4.7-4.1c0.7-0.7,1.4-1.5,2.1-2.3s1.3-1.6,1.9-2.4c0.6,1.7,1.1,3.5,1.4,5.3
			c0.4,1.9,0.5,3.8,0.6,5.7c0,1,0,1.9,0,2.9c0,0.5-0.1,1-0.1,1.4c0,0.5-0.1,1-0.1,1.4v0.3c-0.1,1,0.7,2,1.7,2.1
			c0.8,0.1,1.6-0.4,1.9-1.1c0.5-1,0.9-2.1,1.2-3.3c0.3-1.1,0.5-2.2,0.7-3.3c0.2-1.1,0.3-2.3,0.3-3.4c0-1.1,0-2.3-0.1-3.4
			C240.5,140.2,240.1,138,239.3,135.7z" style="fill:#F04E23;"/>
		<path d="M80.6,148.3c-0.8-0.8-1.7-1.5-2.7-2.1c-0.9-0.6-1.9-1.2-2.9-1.8c-1-0.5-2.1-1-3.1-1.4
			c-2.2-0.8-4.4-1.4-6.7-1.7c-2.3-0.3-4.6-0.3-6.9-0.1l0,0c-1.8,0.2-3.1,1.8-2.9,3.6c0.1,0.7,0.3,1.3,0.8,1.8
			c0.2,0.2,0.5,0.6,0.7,0.9c0.2,0.3,0.5,0.7,0.8,1.1c0.5,0.7,1,1.5,1.5,2.2c0.9,1.5,1.8,3.1,2.6,4.8c0.2,0.4,0.4,0.8,0.6,1.2
			c0.2,0.4,0.4,0.8,0.5,1.3c0.3,0.8,0.7,1.7,1,2.6c0.6,1.7,1.1,3.5,1.5,5.3v0.1c0.3,1.1,1.4,1.7,2.4,1.4c0.9-0.2,1.5-1,1.5-1.9
			c0-2.1-0.1-4.1-0.5-6.2c-0.3-2.1-0.9-4.1-1.6-6c-0.3-1-0.7-1.9-1.1-2.9c-0.4-1-0.9-1.9-1.4-2.8c1.8,0.2,3.6,0.5,5.4,1
			c1.8,0.5,3.6,1.2,5.4,2c0.9,0.4,1.7,0.8,2.6,1.3c0.4,0.2,0.8,0.5,1.2,0.7s0.8,0.5,1.2,0.7l0.2,0.1c0.9,0.5,2,0.2,2.6-0.7
			c0.4-0.7,0.3-1.5-0.1-2.1C82.2,149.9,81.4,149.1,80.6,148.3z" style="fill:#F04E23;"/>
		<path d="M50,169.2c-0.5-0.4-1.1-0.8-1.7-1.1c-1.2-0.7-2.5-1.2-3.8-1.5c-2.7-0.7-5.5-0.7-8.3,0
			c-0.6,0.2-1.2,0.5-1.6,0.9c-1.2,1.3-1.2,3.4,0.2,4.6c0,0,0,0,0,0l0.1,0.1l0.4,0.4l0.5,0.5c0.3,0.3,0.6,0.7,1,1
			c0.6,0.7,1.2,1.5,1.8,2.2c0.6,0.8,1.1,1.6,1.6,2.4c0.5,0.8,1,1.7,1.5,2.6l0.1,0.1c0.6,1,1.8,1.3,2.7,0.7c0.6-0.4,1-1.1,1-1.8
			c-0.1-2.4-0.8-4.8-1.8-7c-0.1-0.3-0.3-0.6-0.5-0.8h0.3c1,0.1,2,0.2,2.9,0.4c0.5,0.1,1,0.2,1.5,0.4c0.2,0.1,0.5,0.1,0.7,0.2
			c0.2,0.1,0.5,0.2,0.7,0.2l0.8,0.1c0.5,0,1-0.1,1.4-0.5c0.7-0.7,0.8-1.8,0.1-2.6c0,0,0,0,0,0C51.1,170.2,50.6,169.7,50,169.2z" style="fill:#F04E23;"/>
	</g>
	<g>
		<g>
			<path d="M674.6,171L674.6,171L674.6,171L674.6,171c-7.6-3.2-17.1-1.6-23.8,4.1c-1.2,1-2.2,2.1-3.2,3.3l37.5,17.3
				C687.1,183.8,683.3,174.7,674.6,171z" style="fill:none;"/>
			<path d="M676.5,166.4L676.5,166.4L519.2,93.9c-0.1,0-0.2-0.1-0.3-0.1c-9.4-3-20.3-0.4-27.8,6.6
				c-5.5,5.2-13.9,17.3-8.3,39.9c0.4,3.2,5.7,52.9,5.7,106.1c0,54.6-5.6,93.9-5.7,94.3c-4,26.1-31.9,28.6-33.1,28.7
				c-1.3,0.1-2.3,1.3-2.2,2.6c0.1,0.9,0.6,1.6,1.4,2L595.8,442c0.3,0.1,0.7,0.2,1,0.2c0.2,0,0.4,0,0.6-0.1
				c1.1-0.3,26.3-7.3,37.5-23.2c11.6-16.3,18.2-37.2,18.2-95.7c0-75.8-9.7-110.2-10.3-112.2c-3.3-13.5-1.3-22.7,1.9-28.7l41,18.9
				c0.3,0.2,0.7,0.2,1,0.2c1,0,1.8-0.6,2.2-1.4c0.1-0.3,0.2-0.6,0.2-1C692.9,183.7,688.2,171.5,676.5,166.4z M597,437.2l-139.3-64.4
				c10-2.8,26.7-10.5,29.9-31.4c0.1-0.4,5.7-40,5.7-95s-5.7-106.3-5.7-106.8c0-0.1,0-0.2-0.1-0.3c-3.8-15.1-1.3-27.6,6.9-35.3
				c6.2-5.8,15.1-8,22.8-5.6l143.9,66.3c-5,0.9-9.7,3.1-13.6,6.5c-10.3,8.7-13.7,23.7-9.4,41v0.1c0.1,0.3,10.1,35.2,10.1,110.9
				c0,57.2-6.4,77.3-17.3,92.9C621.8,429.1,601.4,435.9,597,437.2z M650.8,175c6.7-5.7,16.2-7.3,23.7-4.1h0.1l0,0l0,0
				c8.7,3.8,12.5,12.9,10.4,24.6l-37.5-17.3C648.5,177,649.6,176,650.8,175z" style="fill:#00ACDC;"/>
			<polygon points="514.8,224.5 617.5,272.5 617.5,255.8 514.8,207.8 			" style="fill:#10294C;"/>
			<path d="M648.3,323.3c0-75.8-10-110.6-10.1-110.9v-0.1c-4.3-17.4-0.9-32.3,9.4-41c3.9-3.3,8.6-5.5,13.6-6.4
				L517.3,98.5c-7.7-2.4-16.6-0.2-22.8,5.6c-8.2,7.7-10.7,20.2-6.9,35.3c0,0.1,0,0.2,0.1,0.3c0.1,0.5,5.7,51.9,5.7,106.8
				s-5.7,94.6-5.7,95c-3.2,20.8-19.9,28.6-30,31.4L597,437.2c4.4-1.3,24.8-8.1,34-21.1C642,400.6,648.3,380.5,648.3,323.3z
				 M588.2,398.6c0,0.8-0.4,1.6-1.1,2.1c-0.4,0.2-0.8,0.4-1.3,0.4c-0.4,0-0.7-0.1-1.1-0.2l-44-21.2c-0.8-0.4-1.4-1.3-1.4-2.2V347
				c0-1.3,1.1-2.4,2.4-2.4c0.4,0,0.7,0.1,1.1,0.2l44,21.2c0.8,0.4,1.4,1.3,1.4,2.2L588.2,398.6z M622.4,357.8c0,1.3-1.1,2.4-2.4,2.4
				c-0.4,0-0.7-0.1-1-0.2l-107.7-50.3c-0.9-0.4-1.4-1.3-1.4-2.2v-22.1c0-1.3,1.1-2.4,2.4-2.4c0.4,0,0.7,0.1,1,0.2L621,333.5
				c0.9,0.4,1.4,1.3,1.4,2.2V357.8z M622.4,317.5c0,0.8-0.4,1.6-1.1,2.1c-0.4,0.3-0.9,0.4-1.3,0.4c-0.4,0-0.7-0.1-1-0.2l-107.7-50.3
				c-0.9-0.4-1.4-1.3-1.4-2.2v-22.1c0-1.3,1.1-2.4,2.4-2.4c0.4,0,0.7,0.1,1,0.2L621,293.2c0.9,0.4,1.4,1.3,1.4,2.2V317.5z
				 M622.4,276.4c0,1.3-1.1,2.4-2.4,2.4c-0.4,0-0.7-0.1-1-0.2l-107.7-50.2c-0.9-0.4-1.4-1.3-1.4-2.2V204c0-1.3,1.1-2.4,2.4-2.4
				c0.4,0,0.7,0.1,1,0.2L621,252.1c0.9,0.4,1.4,1.3,1.4,2.2V276.4z" style="fill:#10294C;"/>
			<polygon points="514.8,265.7 617.5,313.7 617.5,297 514.8,249 			" style="fill:#10294C;"/>
			<polygon points="514.8,306 617.5,354 617.5,337.3 514.8,289.3 			" style="fill:#10294C;"/>
			<path d="M621,252.1l-107.7-50.3c-1.2-0.6-2.7,0-3.2,1.2c-0.2,0.3-0.2,0.7-0.2,1v22.1c0,0.9,0.5,1.8,1.4,2.2
				l107.7,50.3c0.3,0.1,0.7,0.2,1,0.2c1.3,0,2.4-1.1,2.4-2.4v-22.1C622.4,253.3,621.9,252.5,621,252.1z M617.5,272.5l-102.8-48
				v-16.7l102.8,48V272.5z" style="fill:#00ACDC;"/>
			<path d="M621,293.2l-107.7-50.3c-1.2-0.6-2.7,0-3.2,1.2c-0.2,0.3-0.2,0.7-0.2,1v22.1c0,0.9,0.5,1.8,1.4,2.2
				l107.7,50.3c0.3,0.2,0.7,0.2,1,0.2c0.5,0,0.9-0.1,1.3-0.4c0.7-0.5,1.1-1.2,1.1-2.1v-22.1C622.4,294.4,621.9,293.6,621,293.2z
				 M617.5,313.7l-102.8-48V249l102.8,48V313.7z" style="fill:#00ACDC;"/>
			<path d="M621,333.5l-107.7-50.3c-1.2-0.6-2.7,0-3.2,1.2c-0.2,0.3-0.2,0.7-0.2,1v22.1c0,0.9,0.5,1.8,1.4,2.2
				L618.9,360c1.2,0.6,2.7,0,3.2-1.2c0.2-0.3,0.2-0.7,0.2-1v-22.1C622.4,334.8,621.9,333.9,621,333.5z M617.5,354l-102.8-48v-16.7
				l102.8,48V354z" style="fill:#00ACDC;"/>
			<path d="M586.8,366l-44-21.2c-1.2-0.6-2.7-0.1-3.3,1.1c-0.2,0.3-0.2,0.7-0.2,1.1v30.4c0,0.9,0.5,1.8,1.4,2.2l44,21.2
				c0.3,0.2,0.7,0.2,1.1,0.2c0.5,0,0.9-0.1,1.3-0.4c0.7-0.4,1.1-1.2,1.1-2.1v-30.5C588.1,367.2,587.6,366.4,586.8,366z" style="fill:#00ACDC;"/>
			<path d="M577.6,388.1c-0.4,0-0.7-0.1-1.1-0.2l-27.7-13.3c-0.8-0.4-1.4-1.3-1.4-2.2V360c0-1.3,1.1-2.4,2.4-2.4
				c0.4,0,0.7,0.1,1.1,0.2l27.7,13.3c0.8,0.4,1.4,1.3,1.4,2.2v12.4c0,0.8-0.4,1.6-1.1,2.1C578.5,388,578,388.1,577.6,388.1z
				 M552.3,370.8l22.8,11v-6.9l-22.8-11V370.8z" style="fill:#10294C;"/>
			<polygon points="574.2,241.4 522.5,217.3 522.5,222.7 574.2,246.8 			" style="fill:#FDB813;"/>
			<polygon points="580.7,244.4 580.7,249.8 609.3,263.2 609.3,257.8 			" style="fill:#FDB813;"/>
			<polygon points="540.5,272.1 540.5,266.7 522.5,258.4 522.5,263.8 			" style="fill:#FDB813;"/>
			<polygon points="574.2,282.5 547,269.8 547,275.2 574.2,287.9 			" style="fill:#FDB813;"/>
			<polygon points="580.7,285.5 580.7,290.9 588.6,294.6 588.6,289.2 			" style="fill:#FDB813;"/>
			<ellipse cx="566.1" cy="174.6" rx="18.5" ry="28.9" style="fill:#10294C;"/>
			<path d="M566.1,208.4c12.9,0,23.4-15.2,23.4-33.8s-10.5-33.8-23.4-33.8c-12.9,0-23.4,15.2-23.4,33.8
				S553.3,208.4,566.1,208.4z M566.1,145.7c10.2,0,18.5,13,18.5,28.9s-8.3,28.9-18.5,28.9c-10.2,0-18.5-13-18.5-28.9
				S556,145.7,566.1,145.7z" style="fill:#00ACDC;"/>
			<ellipse cx="566.1" cy="174.6" rx="9.7" ry="14.6" style="fill:#FDB813;"/>
			<path d="M479,256.6c-2.6-3.1-11.6,1.1-6.9,8.1C475.7,270,483,261.3,479,256.6z" style="fill:#10294C;"/>
		</g>
		<g>
			<path d="M501.1,248.7l-0.5-0.9l-0.4-0.7c-0.3-0.4-0.5-0.9-0.8-1.3c-0.5-0.8-1.1-1.7-1.6-2.4
				c-1.1-1.6-2.3-3.1-3.6-4.6c-2.6-3.1-5.4-5.9-8.5-8.4c-3.3-2.7-6.8-5-10.6-6.8c-4-2-8.2-3.4-12.5-4.3l-1.6-0.3
				c-0.5-0.1-1.1-0.2-1.6-0.3c-1.1-0.1-2.2-0.3-3.4-0.4c-1.1-0.1-2.2-0.1-3.4-0.1h-0.8l-0.8,0l-1.7,0.1l-1.7,0.1
				c-45.5,3.3-66.5,42.6-87.4,91.6l0.1,0.1c-2.8,6.8,1.2,17.9,10.2,27c9.6,9.6,21.6,13.5,28.2,9.6c0.7-0.4,1.3-0.9,1.8-1.4
				c0.8-0.8,1.5-1.8,1.9-2.9l0,0c4.5-8.2,15-23.1,33.4-26.4c1.8,4,5.9,6.4,10.3,6.1l1,0h0.8l1.5-0.1c1-0.1,2-0.2,2.9-0.3
				c1.9-0.3,3.9-0.6,5.8-1c2.7-0.6,5.3-1.4,7.9-2.3c15.7-6.2,17.3-20.2,14.8-28.9c4.8-9.1,2.2-19.9-1.4-23.7c-1.5-1.6-4.4-4-7.5-6.9
				l0.8-7.7c1.7,1.1,3.4,2.3,5,3.6c1,0.8,2,1.7,2.9,2.7c0.5,0.5,0.9,0.9,1.3,1.4c0.2,0.2,0.4,0.5,0.6,0.7l0.3,0.3l0.1,0.1l0,0.1
				c0,0,0,0,0,0c2.6,5.2,9,7.3,14.2,4.6c5.2-2.6,7.3-9,4.6-14.2C501.8,249.7,501.5,249.2,501.1,248.7z" style="fill:#FFFFFF;"/>
			
				<ellipse transform="matrix(0.7071 -0.7071 0.7071 0.7071 -116.3211 365.6804)" cx="383.3" cy="323.3" rx="3.8" ry="6.7" style="fill:#10294C;"/>
			<path d="M443.7,296.4c1.1,3.9,11.1,3.7,9.6-4.6C452.2,285.5,442,290.5,443.7,296.4z" style="fill:#10294C;"/>
			<path d="M442.9,316.4c1.1,3.9,11.1,3.7,9.6-4.6C451.4,305.5,441.2,310.5,442.9,316.4z" style="fill:#10294C;"/>
			<path d="M390,316.5L390,316.5c-5.4-5.4-11.3-7.9-15.5-7.9c-1.6-0.1-3.2,0.4-4.4,1.5c-3.2,3.2-1.4,12.2,6.4,19.9
				c3.7,3.7,7.9,6.3,11.9,7.4c3.5,1,6.4,0.6,8-1s2-4.5,1-8C396.3,324.4,393.7,320.2,390,316.5z" style="fill:none;"/>
			<path d="M393.5,313.1c-9.3-9.3-21.1-12.1-26.8-6.4c-5.7,5.7-2.9,17.5,6.4,26.8c4.3,4.3,9.3,7.3,14.1,8.7
				c1.6,0.5,3.2,0.7,4.9,0.7c2.9,0.1,5.7-1,7.8-3c2.9-2.9,3.7-7.4,2.3-12.7C400.8,322.3,397.7,317.3,393.5,313.1z M396.4,336.4
				c-1.6,1.6-4.5,2-8,1c-4-1.1-8.3-3.7-11.9-7.4c-7.8-7.8-9.6-16.7-6.4-19.9c1.2-1.1,2.8-1.6,4.4-1.5c4.2,0,10.1,2.5,15.5,7.9l0,0
				c3.7,3.7,6.3,7.9,7.4,11.9C398.4,331.9,398,334.8,396.4,336.4L396.4,336.4z" style="fill:#10294C;"/>
			<path d="M471.7,286.6c-0.3-0.4-0.7-0.8-1.2-1.1c-0.1,0-0.1-0.1-0.2-0.1c-0.5-0.2-1,0.1-1.1,0.5l0,0.1
				c-0.3,0.8-0.5,1.7-0.5,2.6c-0.1,0.7-0.1,1.5-0.1,2.2c0,0.7,0.1,1.4,0.3,2.1c0.2,0.9,0.6,1.7,1.1,2.5v0.1c0.2,0.4,0.7,0.5,1.1,0.3
				c0.5-0.3,0.9-0.6,1.3-1.1c0.3-0.4,0.6-0.9,0.8-1.3c0.3-0.9,0.5-1.9,0.3-2.9c-0.1-1-0.4-1.9-0.8-2.8
				C472.3,287.4,472.1,287,471.7,286.6z" style="fill:#10294C;"/>
			<path d="M468.7,307c-0.3-0.5-0.7-0.9-1.2-1.2c-0.1,0-0.1-0.1-0.2-0.1c-0.4-0.2-0.9,0-1.1,0.5c0,0,0,0,0,0.1l-0.1,0.2
				c-0.3,0.8-0.5,1.6-0.7,2.4l-0.4,2c-0.1,0.6-0.2,1.3-0.3,1.9c-0.1,0.9-0.1,1.8,0,2.7v0.1c0,0.4,0.4,0.8,0.9,0.7
				c1.2-0.1,2.2-0.7,3-1.6c0.3-0.4,0.6-0.9,0.8-1.5c0.2-0.5,0.3-1.1,0.4-1.6c0.1-1.1,0-2.2-0.4-3.2
				C469.2,307.9,468.9,307.5,468.7,307z" style="fill:#10294C;"/>
			<path d="M475.3,306.2c-0.4-0.5-1-1-1.6-1.2c-0.5-0.2-1-0.1-1.3,0.3l-0.1,0.1c-0.4,0.5-0.7,1-0.9,1.6
				c-0.2,0.4-0.2,0.9-0.2,1.3c0,0.4,0.1,0.8,0.4,1.2c0.4,0.5,0.9,1,1.5,1.3l0.1,0c0.3,0.2,0.8,0.3,1.1,0.1c0.7-0.3,1.3-0.8,1.6-1.5
				c0.2-0.5,0.3-1.1,0.2-1.7C475.9,307.2,475.7,306.7,475.3,306.2z" style="fill:#10294C;"/>
			<path d="M442.9,244.3c-2.7,0.6-5.2,1.8-7.4,3.4c-1.2,0.8-2.2,1.8-3.2,2.9c-0.5,0.6-0.9,1.2-1.3,1.8
				c-0.2,0.3-0.4,0.7-0.5,1.1c-0.2,0.4-0.3,0.8-0.4,1.2c-0.3,1-0.3,2,0,2.9c0.3,1,1,1.9,1.9,2.4c0.4,0.2,0.8,0.4,1.2,0.5
				c0.4,0.1,0.8,0.1,1.2,0.2c0.4,0,0.7,0,1.1,0c0.4,0,0.7-0.1,1-0.2c0.2,0,0.3-0.2,0.4-0.3c0.1-0.3,0-0.7-0.3-0.8h0
				c-0.6-0.2-1.1-0.5-1.6-0.8c-0.2-0.1-0.4-0.3-0.6-0.4c-0.2-0.1-0.3-0.3-0.4-0.5c-0.2-0.2-0.2-0.5-0.1-0.7c0.1-0.3,0.2-0.6,0.3-0.8
				c0.5-0.8,1.1-1.6,1.8-2.3c0.8-0.8,1.6-1.5,2.4-2.2c1.8-1.4,3.8-2.6,5.9-3.5c0.6-0.3,1.2-0.5,1.8-0.7L442.9,244.3z" style="fill:#10294C;"/>
		</g>
		<path d="M557.9,44.9c-0.3-0.4-1-1.1-1.7-1.1h-0.1c-1.3,0.1-2.7,2.6-2.6,5.7c0.2,3.1,1.8,5.4,3.2,5.4
			c1.3,0,2.7-2.6,2.6-5.7C559.3,47.7,558.8,46.2,557.9,44.9z" style="fill:none;"/>
		<path d="M686.6,247.1L686.6,247.1c-0.9,0-1.5,0.9-1.7,1.3c-0.7,1.3-1,2.8-0.9,4.3c0.2,3.1,1.8,5.4,3.2,5.4
			c1.3-0.1,2.7-2.6,2.6-5.7C689.6,249.3,687.9,247.1,686.6,247.1z" style="fill:none;"/>
		<path d="M449.7,510.6L449.7,510.6c-1.4,0.1-2.8,2.6-2.6,5.7s1.8,5.5,3.2,5.4s2.7-2.6,2.6-5.7S451,510.6,449.7,510.6z" style="fill:none;"/>
		<path d="M741.1,163.3c1.3-0.1,2.7-2.6,2.6-5.7c-0.2-3.1-1.8-5.4-3.1-5.4h-0.1c-0.8,0-1.4,1-1.6,1.3
			c-0.7,1.3-1,2.8-0.9,4.3C738.1,161,739.8,163.4,741.1,163.3z" style="fill:none;"/>
		<path d="M740.6,450.3L740.6,450.3c-0.9,0-1.5,1-1.7,1.3c-0.7,1.3-1,2.8-0.9,4.3c0.2,3.1,1.8,5.4,3.1,5.4h0.1
			c1.3-0.1,2.7-2.6,2.6-5.7C743.5,452.6,741.9,450.3,740.6,450.3z" style="fill:none;"/>
		<g>
			<path d="M522.4,300.2l-4.6-13.9c0,3.3-1.3,10.1-11.5,12.7l13.3,4c1.2,0.4,2.4-0.3,2.7-1.5
				C522.6,301.1,522.6,300.6,522.4,300.2z" style="fill:#FDB813;"/>
			<path d="M517.8,286.2l-1-3.2c-1.1-3.4-3-6.4-5.6-8.8l-0.5-0.5c0.1,4.4-1.4,15-17.1,18.7l0.5,0.5c2.4,2.3,5.4,4,8.6,5
				l3.7,1.1C516.6,296.3,517.8,289.4,517.8,286.2z" style="fill:#FFFFFF;"/>
			<path d="M510.7,273.7l-75.1-71.2c0,4.7-1.8,14.9-17,18.7l75,71.1C509.3,288.7,510.8,278.2,510.7,273.7z" style="fill:#00ACDC;"/>
			<path d="M435.6,202.5l-12-11.3c0.1,4.3-1.1,15.1-16.5,19.2l11.5,10.9C433.8,217.5,435.6,207.2,435.6,202.5z" style="fill:#FFFFFF;"/>
			<path d="M423.6,191.2l-6.5-6.2c0,0-10.4-10.8-19.7-1.4s2.4,19.8,2.4,19.8l7.3,6.9
				C422.5,206.4,423.7,195.5,423.6,191.2z" style="fill:#F04E23;"/>
			<path d="M511.7,277.2c0-0.5-0.3-1-0.8-1.3c-0.7-0.3-1.6,0-1.9,0.7c0,0,0,0,0,0v0.1c-0.6,1.5-1.4,2.9-2.3,4.3
				c-0.9,1.3-1.9,2.5-3,3.5c-1.2,1.1-2.4,2.1-3.8,2.9c-1.4,0.9-2.8,1.7-4.3,2.6l-0.1,0c-0.7,0.4-0.9,1.4-0.5,2.1
				c0.3,0.5,0.9,0.8,1.4,0.7c1.9-0.2,3.8-0.7,5.6-1.5c1.8-0.8,3.5-1.9,5-3.3c1.5-1.4,2.7-3.1,3.5-5
				C511.4,281.3,511.7,279.2,511.7,277.2z" style="fill:#10294C;"/>
			<path d="M423.6,200.5c0.8-1.9,1.1-3.9,1-5.9c0-0.8-0.7-1.4-1.5-1.4c-0.5,0-1,0.4-1.2,0.9v0.1c-0.6,1.5-1.3,3-2.2,4.4
				c-0.8,1.3-1.8,2.5-2.9,3.6c-1.1,1.1-2.3,2.2-3.6,3.1c-1.3,0.9-2.8,1.8-4.3,2.8l-0.1,0c-0.5,0.3-0.7,0.9-0.7,1.4
				c0.1,0.8,0.9,1.4,1.7,1.3c0,0,0,0,0,0c1.9-0.3,3.8-0.8,5.6-1.7c1.8-0.9,3.5-2.1,4.9-3.5C421.8,204.2,422.9,202.4,423.6,200.5z" style="fill:#10294C;"/>
			<path d="M432.5,216.2c1.4-1.5,2.6-3.3,3.3-5.2c0.7-1.9,1.1-3.9,0.9-6c-0.1-0.8-0.8-1.4-1.5-1.3c-0.5,0-1,0.4-1.2,0.9
				v0.1c-0.6,1.5-1.3,3-2.1,4.5c-0.8,1.3-1.8,2.6-2.8,3.7c-1.1,1.1-2.3,2.2-3.6,3.1c-1.3,1-2.8,1.8-4.3,2.8l-0.1,0
				c-0.7,0.5-0.9,1.4-0.4,2.1c0.3,0.5,0.9,0.7,1.5,0.7c2-0.3,3.8-0.9,5.6-1.8C429.4,218.9,431.1,217.7,432.5,216.2z" style="fill:#10294C;"/>
			<path d="M518.7,289.6c0-0.4-0.2-0.8-0.5-1c-0.6-0.5-1.6-0.4-2.1,0.2c0,0,0,0,0,0l-0.1,0.1c-0.7,0.8-1.2,1.5-1.8,2.2
				c-0.6,0.7-1.1,1.3-1.7,1.8c-0.6,0.6-1.2,1.2-1.9,1.8c-0.7,0.6-1.4,1.2-2.2,1.9l-0.1,0.1c-0.3,0.3-0.5,0.7-0.5,1.1
				c0,0.9,0.7,1.5,1.6,1.5c0,0,0,0,0,0c1.2,0,2.4-0.3,3.5-0.8c1.1-0.5,2.1-1.2,3-2.1C517.8,294.6,518.8,292.1,518.7,289.6z" style="fill:#10294C;"/>
		</g>
		<g>
			<path d="M653.1,310.3c0.2,9.4,0.4,32.7-0.8,46.1c-0.1,0.7-0.2,1.3-0.2,2c0,0.9-0.1,1.7-0.1,2.5
				c-1,11.4-7.3,22.5-14.1,16.4c-1.4-1.7-2.6-3.6-3.7-5.5c-1.1-1.8-1.9-3.7-2.7-5.7c-0.7-1.8-1.1-3.8-1.4-5.7
				c-0.1-0.9-0.1-1.8-0.1-2.7c0-0.2-0.1-1.6-0.1-1.6c-1.1-13.2-19-12.3-21.9-0.3c-0.1,0.6-0.2,1.2-0.3,1.8c0,0.2-0.1,0.5-0.1,0.7
				c-0.1,0.5-0.1,0.9-0.2,1.4c-0.3,3.8-0.2,7.6,0.3,11.3c0.5,3.6,1.4,7.2,2.5,10.6c1.1,3.4,2.5,6.6,4.1,9.8c1.7,3.3,3.6,6.4,5.6,9.5
				l0,0c7.4,12.8,0.1,26.9-4.3,34.1l0,0c-1.2,1.5-1.9,3.4-1.9,5.4c-0.1,7.7,9.2,16.1,22.3,19.7c12.3,3.4,24,1.3,28.5-4.5h0.1
				c22.1-27.8,30.1-43.4,34.1-70.2c0-0.1,0-0.2,0-0.3C703.9,351.4,684.6,320,653.1,310.3z" style="fill:#FFFFFF;"/>
			<path d="M649.4,458.7c-3.9,0-7.8-0.6-11.5-1.6c-5.8-1.6-10.9-4.1-14.5-7.1c-4.1-3.4-5.9-7.2-5-10.6
				c1.8-6.5,12.9-8.8,25.8-5.3c12.9,3.5,21.3,11.1,19.6,17.7C662.5,456.3,656.9,458.7,649.4,458.7z M632.8,437.3
				c-5.5,0-9.2,1.5-9.7,3.3c-0.4,1.4,0.9,3.5,3.4,5.6c3.1,2.6,7.6,4.7,12.7,6.1c11,3,19.1,0.9,19.8-1.9c0.8-2.8-5.1-8.7-16.1-11.7
				C639.6,437.9,636.2,437.4,632.8,437.3z" style="fill:#10294C;"/>
			<ellipse transform="matrix(0.2639 -0.9646 0.9646 0.2639 42.0545 946.229)" cx="641" cy="445.6" rx="3" ry="6.7" style="fill:#10294C;"/>
			<path d="M616.9,351.9c4.1-0.5,7.8,8.7-0.4,10.6C610.3,364,610.8,352.7,616.9,351.9z" style="fill:#10294C;"/>
			<path d="M621.5,372.9c-0.9,0.5-1.8,0.9-2.6,1.3l-2.2,1c-0.7,0.3-1.4,0.7-2.1,1c-0.9,0.4-1.9,0.7-2.9,0.9h-0.1
				c-0.4,0.1-0.8-0.2-0.9-0.6c0,0,0-0.1,0-0.1c-0.1-1.3,0.3-2.6,1.1-3.6c0.4-0.5,0.9-0.9,1.4-1.3c0.5-0.3,1.1-0.6,1.6-0.8
				c1.1-0.4,2.4-0.6,3.6-0.5c0.6,0,1.2,0.2,1.8,0.4c0.6,0.2,1.1,0.5,1.6,0.9c0.4,0.3,0.4,0.8,0.2,1.1c0,0,0,0,0,0
				c-0.1,0.1-0.2,0.2-0.3,0.2L621.5,372.9z" style="fill:#10294C;"/>
			<path d="M622.3,380.5c-0.4,0.5-0.8,0.9-1.2,1.3c-0.2,0.3-0.5,0.5-0.8,0.7c-0.3,0.2-0.6,0.2-0.9,0.2
				c-0.4,0-0.9-0.1-1.9-0.2h-0.2c-0.4,0-0.7-0.3-0.9-0.6c-0.3-0.8-0.3-1.7,0.2-2.4c0.2-0.3,0.5-0.6,0.8-0.9c0.9-0.6,2.1-0.9,3.2-0.6
				c0.8,0.2,1.4,0.6,1.9,1.3c0.3,0.3,0.3,0.8,0,1.1L622.3,380.5z" style="fill:#10294C;"/>
			<path d="M685.7,335.3c1.3,3.5,2.2,7.2,2.7,10.9c0.2,1.8,0.3,3.7,0.3,5.5c0,1.9-0.2,3.7-0.4,5.6
				c-0.6,3.8-1.5,7.6-2.6,11.2l0,0c-0.1,0.2,0,0.5,0.2,0.6c0.3,0.2,0.6,0.2,0.9-0.1c2.7-3.2,4.7-6.9,5.8-11c0.5-2,0.9-4.1,1-6.3
				c0.1-2.1,0-4.2-0.3-6.3c0-0.2-0.1-0.6-0.1-0.8c-2.5-5.3-5.8-10.3-9.6-14.8C684.2,331.7,685,333.6,685.7,335.3z" style="fill:#10294C;"/>
			<path d="M667,317.5c1.2,1.5,2.2,3.1,3,4.8c1.6,3.4,2.6,7.1,2.9,10.8c0.3,3.9,0.2,7.7-0.2,11.6c-0.4,3.9-1,7.9-1.5,12
				l0,0c0,0.2,0.1,0.5,0.3,0.6c0.3,0.1,0.6,0.1,0.8-0.2c2.1-3.6,3.6-7.6,4.6-11.7c1-4.2,1.2-8.5,0.8-12.8c-0.4-4.1-1.7-8-3.8-11.6
				c-2.8-2.2-5.8-4.1-9-5.8C665.6,315.9,666.3,316.7,667,317.5z" style="fill:#10294C;"/>
		</g>
		<path d="M481.4,267.8l0.4-0.6c0.4-0.5,0.7-1,1-1.6c6-10.7-6.5-23.6-16.3-14.6l-0.1-0.2l-0.3,0.4l-0.2,0.2l-0.2,0.2
			c-0.1,0.2-0.3,0.3-0.4,0.5c-0.6,0.7-1.2,1.3-1.9,1.9c-1.5,1.3-3.1,2.4-4.9,3.3c-1.9,1-3.8,1.8-5.8,2.4c-2.1,0.6-4.3,1.1-6.5,1.5
			c-4.7,0.7-9.4,0.9-14.1,0.6c-5-0.3-10-0.8-14.9-1.7c-1.1-0.2-2.1-0.3-3.2-0.3c-9.4,0.3-16.8,8.1-16.5,17.6
			c0.3,9.2,7.8,16.5,16.9,16.5h0.3c6.5,0,13-0.5,19.4-1.4c6.7-0.9,13.3-2.6,19.6-4.9c3.3-1.2,6.5-2.7,9.6-4.4
			c3.2-1.7,6.3-3.8,9.1-6.1c2.9-2.4,5.6-5.1,7.9-8.1C480.9,268.6,481.1,268.2,481.4,267.8z" style="fill:#FFFFFF;"/>
		<path d="M456.3,277.4c0.3,0.3,0.7,0.6,1.5,1.2l0.1,0.1c0.3,0.2,0.7,0.3,1.1,0.1c0.8-0.3,1.4-1.1,1.6-1.9
			c0.1-0.4,0.1-0.8,0-1.2c-0.1-0.4-0.2-0.7-0.4-1.1c-0.3-0.7-0.9-1.2-1.5-1.6c-0.3-0.2-0.7-0.3-1-0.4c-0.4-0.1-0.8-0.1-1.2,0
			c-0.4,0-0.8,0.4-0.8,0.8v0.4c0,0.6,0,1.1,0,1.7c0,0.4,0.1,0.7,0.2,1C455.9,277,456.1,277.3,456.3,277.4z" style="fill:#10294C;"/>
		<path d="M475.2,246.1c-1.6-0.2-3.3,0-4.8,0.5c-1.5,0.5-2.9,1.3-4.1,2.3l-0.9,0.8c-0.3,0.3-0.5,0.5-0.7,0.7l-1.4,1.4
			c-0.9,0.9-1.8,1.8-2.9,2.5c-2.1,1.5-4.3,2.7-6.7,3.7c-2.4,1-5,1.7-7.5,2.3c-0.4,0.1-0.6,0.5-0.5,0.9c0.1,0.4,0.4,0.6,0.8,0.6
			c5.4-0.6,10.9-1.9,15.7-5c1.2-0.7,2.3-1.6,3.3-2.6l1.5-1.4c0.2-0.2,0.5-0.5,0.7-0.7l0.7-0.5c1.7-1.3,4-1.9,6.1-1.6
			c2.1,0.4,4,1.6,5.3,3.4c1.4,1.7,2.1,3.9,2.2,6.1c0,1.1-0.2,2.2-0.5,3.2c-0.2,0.5-0.4,1-0.7,1.5c-0.1,0.3-0.3,0.5-0.4,0.7l-0.5,0.7
			c-0.1,0.2-0.4,0.6-0.6,0.8l-0.5,0.7c-0.4,0.5-0.8,1-1.2,1.5c-0.8,1-1.7,1.9-2.6,2.8c-0.9,0.9-1.8,1.8-2.8,2.6
			c-0.5,0.4-0.9,0.8-1.5,1.2l-1.5,1.3c-0.5,0.4-1,0.8-1.4,1.2c0.4-0.7,0.7-1.5,0.7-2.3c0-0.6,0-1.3-0.1-1.9
			c-0.1-0.6-0.4-1.2-0.7-1.8c-0.6-1.1-1.3-2-2.3-2.8c-0.5-0.4-1-0.7-1.5-0.9c-0.6-0.3-1.2-0.4-1.8-0.5c-0.1,0-0.2,0-0.3,0
			c-0.4,0.1-0.7,0.6-0.5,1c0,0,0,0,0,0l0,0.1c0.3,1,0.7,1.9,1.1,2.7l1,2.3c0.3,0.7,0.6,1.4,0.9,2.1c0.4,0.9,0.9,1.8,1.5,2.6l0,0.1
			l0.1,0.1c0.1,0.1,0.2,0.2,0.3,0.2c-1,0.7-2,1.4-3.1,2c-2.2,1.2-4.6,2.3-6.9,3.3c-1.2,0.5-2.4,0.9-3.7,1.3
			c-1.2,0.4-2.6,0.9-3.8,1.3c-5.1,1.9-10.2,3.9-14.9,6.9c-2.4,1.5-4.5,3.3-6.4,5.5c-1.8,2.1-3.2,4.5-4.4,7c-0.2,0.3-0.1,0.7,0.2,0.8
			c0.3,0.2,0.7,0.1,0.8-0.2c1.4-2.2,3.1-4.2,5-6c1.9-1.7,4-3.2,6.3-4.3c0.1-0.1,0.3-0.1,0.4-0.2c0.1,0.5,0.2,1,0.3,1.5
			c0.3,1.2,0.9,2.3,1.6,3.3c0.1,0.2,0.3,0.4,0.4,0.6c-0.8,0.3-1.5,0.6-2.1,1.1c-1.1,0.9-2,2-2.6,3.3c-0.6,1.3-0.9,2.7-0.7,4.1
			c0.1,1.4,0.8,2.8,1.8,3.7c0,0,0.1,0.1,0.2,0.1c0.4,0.2,0.8,0,1-0.3c0,0,0,0,0,0l0,0c0.6-1.2,0.9-2.2,1.3-3.1
			c0.4-0.9,0.6-1.7,0.9-2.5c0.3-0.9,0.7-1.7,1.1-2.5c0.3-0.6,0.7-1.2,1-1.9l0.3,0.2c1,0.8,2.2,1.4,3.4,1.7c1.2,0.4,2.5,0.6,3.8,0.6
			h1.7c0.6,0,1.1,0,1.7-0.1c1.1-0.1,2.2-0.2,3.3-0.3l3.3-0.5c1.1-0.2,2.2-0.4,3.3-0.6c1.1-0.3,2.2-0.6,3.3-0.9
			c1.1-0.3,2.1-0.7,3.2-1.1c1.1-0.4,2.2-0.9,3.2-1.5c4.1-2.2,7.7-5.6,9.5-9.8c0.1-0.3,0-0.7-0.3-0.8c-0.2-0.1-0.5-0.1-0.7,0.1l0,0
			c-3,2.9-6.5,5.1-10.4,6.6c-1,0.4-1.8,0.7-2.9,1c-1,0.3-2,0.6-3,0.8c-1,0.2-2,0.5-3,0.8c-1,0.2-2.1,0.4-3.1,0.6l-3.1,0.6l-3.1,0.4
			c-0.5,0.1-1,0.1-1.5,0.2l-1.6,0.1c-0.9,0.1-1.8,0.1-2.6-0.1c-3.3-0.7-6-3-7.2-6.2c4.1-1.8,8.2-3.3,12.5-4.5
			c1.3-0.4,2.5-0.8,3.8-1.2c1.3-0.4,2.6-0.8,3.9-1.3c2.6-0.9,5.2-2.1,7.7-3.4c2.5-1.4,4.8-3,7-4.8l1.5-1.3c0.5-0.4,1.1-0.9,1.6-1.4
			c1.1-0.9,2.1-1.9,3-2.9c1-1,1.9-2.1,2.8-3.2c0.4-0.5,0.9-1.1,1.3-1.7l0.6-0.9l0.6-0.8l0.6-0.9c0.2-0.3,0.4-0.7,0.6-1
			c0.4-0.7,0.7-1.5,0.9-2.2c0.5-1.5,0.7-3.1,0.7-4.7c-0.1-3.2-1.3-6.3-3.3-8.7C481.3,248.2,478.4,246.6,475.2,246.1z" style="fill:#10294C;"/>
	</g>
</g>
</svg>
