<?xml version="1.0" encoding="utf-8"?>
<!-- Generator: Adobe Illustrator 23.0.2, SVG Export Plug-In . SVG Version: 6.00 Build 0)  -->
<svg version="1.1" id="Layer_2" xmlns="http://www.w3.org/2000/svg" xmlns:xlink="http://www.w3.org/1999/xlink" x="0px" y="0px" viewBox="0 0 485.9 600" style="enable-background:new 0 0 485.9 600;" xml:space="preserve">

<g>
	<g>
		<path d="M329.5,387.9c-21.5-10.6-39.4-22-54.3-33.7c0,0.2-0.1,0.3-0.1,0.5c-0.7,6.5-0.5,23,13.5,47.6
			c6.3,11.2,9.2,21.3,9.2,30.2l3.7-3.2C340.3,400.9,329.5,387.9,329.5,387.9z" style="fill:#2568EF;"/>
		<path d="M201.2,233.7c-13,0-25.3,0.8-37,2.3c0,14.7-0.9,22.7-7.3,30.1c-5.7,6.6-11.8,8.1-16.2,8.1c-0.3,0-0.6,0-0.9,0
			c-4.8-0.2-8.1-2.2-8.2-2.2c-0.8-0.5-1-1.4-0.6-2.2c0.5-0.8,1.4-1,2.2-0.6c0.5,0.3,11.3,6.3,21.3-5.1c5.4-6.1,6.5-12.8,6.5-27.5
			c-87.3,12.1-137,59.8-137,59.8c17.6,204.2,169.7,226.5,169.7,226.5l1.5-2.4c-8.9-6.4-13.8-13.4-13.8-13.4
			c7.2,4.7,15.3,6.6,20.7,7.4l3.4-2.9l-10-11.7c7.1,3.4,13.8,4.2,19,4l5.7-4.9c-28-15.3-24.7-45.1-24.7-45.1
			c-2.2,21.9,28,18.3,28,18.3s12.7-2.1,23.7,3.6l15.1-12.9c-7-4.4-15.3-13.3-14.4-31c0.5-8.8,2.9-16.2,11.9-33.1
			c9.8-18.4,13.9-36.8,15.3-44c0-0.2,0-0.4,0.1-0.6C202.4,297.1,201.2,233.7,201.2,233.7z M135.9,264.2c2.6-4,5.9-7.5,8.3-11.6
			c-0.4-1-1-2-1.7-2.9c-0.5,1.3-2,2-3.4,1.7c-1.5-0.3-2.3-2-2-3.4c0.3-1.3,0.7-2.6,1.3-3.8c0.7-1.4,2.6-1.7,3.8-1
			c0.2,0.1,0.4,0.2,0.5,0.4c0.8-0.2,1.6,0,2.4,0.8c1.7,1.9,3.4,4.1,4.3,6.6c0.5,0.6,0.8,1.4,0.6,2.3c0.2,1.5,0.2,3-0.3,4.5
			c-1.5,4.8-6,7.9-10.1,10.3C137.4,269.5,134.3,266.6,135.9,264.2z" style="fill:#2568EF;"/>
	</g>
	<g>
		<path d="M209.4,442.6c-1.5,0-3-0.4-4.3-1.4L75.6,348.8c-3.3-2.4-4.1-7-1.7-10.3c2.4-3.3,7-4.1,10.3-1.7l104.9,74.8
			c-1.7-4.2-3.5-8.9-5.2-14.1c-5.3-15.6-9.1-32.3-11.3-49.6c-2.8-21.6-3.3-44.1-1.3-67.1c0.3-4.1,3.9-7.1,8-6.7
			c4.1,0.3,7.1,3.9,6.7,8c-1.9,21.7-1.5,43.1,1.2,63.4c2.1,16.3,5.7,32,10.6,46.7c8.3,25,17.8,38.6,17.9,38.7
			c2.1,2.9,1.7,6.9-0.8,9.5C213.2,441.9,211.3,442.6,209.4,442.6z" style="fill:#FFFFFF;"/>
	</g>
</g>
<g>
	<path d="M411.6,73.6c-35.1-43.2-89.8-56.8-122.3-30.5s-30.4,82.8,4.7,126s89.8,56.8,122.3,30.5
		C448.8,173.2,446.7,116.8,411.6,73.6z M381.6,172.8c-0.2,1.2-1.2,2-2.3,2c-0.1,0-0.2,0-0.4,0c-1.3-0.2-2.2-1.4-2-2.7
		c0-0.2,3.7-25.3-7.9-43.7c-7.8-12.4-17.8-19.9-29.6-22.2c-8.8-1.8-15.5,0.2-15.6,0.2c-1.2,0.4-2.5-0.3-2.9-1.6
		c-0.4-1.2,0.3-2.5,1.6-2.9c0.3-0.1,7.7-2.3,17.6-0.4c9.1,1.7,22.2,7.4,32.9,24.4C385.5,145.8,381.7,171.7,381.6,172.8z" style="fill:#FFE7E6;"/>
	<polygon points="247.9,87.8 280,82.6 281.1,103.1 	" style="fill:#2568EF;"/>
	<polygon points="303.4,10.7 309.2,55.3 334.3,49.5 	" style="fill:#2568EF;"/>
	<polygon points="376,67.8 398.3,75.4 406.9,34.1 	" style="fill:#2568EF;"/>
	<polygon points="428.2,114.9 423.8,139 463.4,126.8 	" style="fill:#2568EF;"/>
	<polygon points="399.4,190.5 415.8,182.9 422.3,214 	" style="fill:#2568EF;"/>
	<path d="M335.8,106.3c0,0-16.6,18.5-51.8,29.8c-36.8,11.9-80.4-2.6-97.2-9.2l-2.7,7.3c-0.2,0.7-0.9,1.1-1.5,1.1
		c-0.2,0-0.4,0-0.6-0.1c-0.8-0.3-1.3-1.2-1-2.1l2.7-7.3c-2.6-1.1-4.1-1.8-4.1-1.8s-5.6-2.6-11.9-5.3c-0.1,1.1-0.6,2.3-1.5,3.5
		c-1.2,1.8-2.9,2.9-5,3.2c-0.5,0.1-1.1,0.1-1.7,0.1c-5.1,0-10.3-3.6-10.5-3.8c-0.6-0.4-0.7-1.2-0.3-1.8c0.4-0.6,1.2-0.7,1.8-0.3
		c0.1,0,5.8,4,10.3,3.2c1.4-0.3,2.5-1,3.4-2.2c0.9-1.2,1.2-2.3,1-3.2c-5.7-2.4-11.4-4.8-14-5.4c-5.8-1.4-10.8,5.8,3.2,16.9
		c6.7,5.3,11.6,8.5,14.9,10.4c25.8,3.9,51.3,10.9,51.6,11c0.7,0.2,1.1,0.9,0.9,1.6c-0.2,0.6-0.7,0.9-1.2,0.9c-0.1,0-0.2,0-0.3,0
		c-0.3-0.1-27.4-7.6-53.7-11.3l-3,9.2c-0.2,0.7-0.9,1.1-1.5,1.1c-0.2,0-0.3,0-0.5-0.1c-0.9-0.3-1.3-1.2-1-2l2.7-8.4
		c-6.6-0.3-15.6-0.4-25.3-0.1c-9.5,0.3-21.2,2.4-30.6,5.6c1.1,0.1,2.1,0.4,2.9,0.8c1.4,0.7,2.4,1.9,2.7,3.4c0.4,2,0,3.9-1.2,5.5
		c-3.8,5.2-14.6,6.4-15,6.4c0,0-0.1,0-0.1,0c-0.6,0-1.2-0.5-1.2-1.1c-0.1-0.7,0.4-1.3,1.1-1.4c2.8-0.3,10.7-1.9,13.3-5.4
		c0.8-1.1,1-2.2,0.7-3.5c-0.2-0.8-0.6-1.3-1.3-1.7c-1.8-0.9-5.2-0.7-9.8,0.4c-5.8,3-9.5,6.7-9.2,10.8c0.7,11.1,19.3,2.3,33.4,0.7
		c1.2-0.1,2.3-0.3,3.4-0.4c24.8-3.7,49.3-1.9,65.8,0.5c18.7,2.6,31.4,6.4,31.5,6.4c0.8,0.2,1.2,1,1,1.8c-0.2,0.6-0.8,1-1.4,1
		c-0.1,0-0.3,0-0.4-0.1c-0.4-0.1-28.6-8.4-63.4-8.9l-2.1,10.7c-0.2,0.8-0.8,1.3-1.6,1.3c-0.1,0-0.2,0-0.3,0c-0.9-0.2-1.4-1-1.3-1.9
		l2-10.1c-5,0-10.2,0.2-15.4,0.5c-14,1.4-26.5,4.2-36.2,7.6c0.9,0.9,1.7,2.4,1.7,4.7c0,4.2-2.8,7.7-8.1,10.1
		c-3.8,1.7-7.5,2.3-7.7,2.3c-0.1,0-0.1,0-0.2,0c-0.6,0-1.2-0.5-1.2-1.1c-0.1-0.7,0.4-1.3,1.1-1.4c0.2,0,13.7-2.1,13.7-9.9
		c0-1.6-0.5-2.8-1.5-3.4c-0.2-0.1-0.4-0.2-0.5-0.3c-12.9,5-20.1,11.2-18.3,16.6c3.6,10.8,19.1,2.5,46.4-1.4
		c18.7-2.7,38.1-0.4,48.5,1.4c7-0.3,13.2-0.4,18.3-0.4c16,0,25.6,1,25.7,1c0.7,0.1,1.2,0.7,1.1,1.4s-0.7,1.2-1.4,1.1
		c-0.3,0-19.5-2-49.5-0.3c-38.2,6.4-40.5,31.9-36.6,43.2c1.6,4.8,1.8,8.6,1.4,11.5c2.3-0.8,4.2-0.4,5.6,0.3c2.1,1.1,3.4,2.6,3.8,4.7
		c1.2,6.4-6.8,15.3-7.2,15.7c-0.2,0.3-0.6,0.4-0.9,0.4c-0.3,0-0.6-0.1-0.8-0.3c-0.5-0.5-0.6-1.3-0.1-1.8c2.1-2.3,7.4-9.2,6.5-13.5
		c-0.2-1.3-1-2.3-2.4-3c-1.9-0.9-4.2-0.8-5.3,0.7c-1.6,2-13.9,19.4-2.8,21.9c11.1,2.5,16-0.7,22.1-9.5c6.5-9.3,3.7-25,4.5-31.8
		c0.5-4.4,1.1-9.3,12.2-12.9c14.3-4.6,31.6,0.7,31.6,0.7c26.2,7.5,53.9-1.1,53.9-1.1c-6.8,4.7,2.9-2.9-16.2,15.5
		s-39.2,20.1-39.2,20.1c1.8,12.6,7.9,21.2,7.9,21.2c5.9-0.9,11.5-2,17-3.2l-4.5-10.9c-0.3-0.8,0-1.8,0.9-2.1c0.8-0.3,1.8,0,2.1,0.9
		l4.7,11.3c1.7-0.4,3.4-0.9,5.1-1.4l-6.6-11c-0.5-0.8-0.2-1.8,0.6-2.2c0.8-0.5,1.8-0.2,2.2,0.6l7,11.8
		c95.9-28.8,135.4-120.6,135.4-120.6C365.6,106.3,335.8,106.3,335.8,106.3z M172.7,145.3l-2.5,6.8c-0.2,0.7-0.9,1.1-1.5,1.1
		c-0.2,0-0.4,0-0.6-0.1c-0.8-0.3-1.3-1.2-1-2.1l2.5-6.8c0.3-0.8,1.2-1.3,2.1-1C172.5,143.6,173,144.5,172.7,145.3z M154.5,217.9
		c-0.3,0.4-0.8,0.7-1.3,0.7c-0.3,0-0.6-0.1-0.9-0.3l-8.6-6.1c-0.7-0.5-0.9-1.5-0.4-2.3c0.5-0.7,1.5-0.9,2.3-0.4l8.6,6.1
		C154.8,216.2,155,217.2,154.5,217.9z M157.6,212c-0.3,0.3-0.7,0.5-1.2,0.5c-0.4,0-0.8-0.1-1.1-0.4l-6.5-6.1
		c-0.6-0.6-0.7-1.6-0.1-2.3c0.6-0.6,1.6-0.7,2.3-0.1l6.5,6.1C158.2,210.3,158.2,211.4,157.6,212z" style="fill:#FF564F;"/>
</g>
<g>
	<circle cx="271.8" cy="429.4" r="13.8" style="fill:#FF9B19;"/>
	<path d="M323.3,467.6c-2.6-1.5-6.5-3.1-11.4-3.1c-12.9,0-20.5,13.3-27,21.2c-6.5,7.9-14,11.9-14,11.9s4,7.5-5,11.9
		c-9,4.3-20.8-2.2-24.8-6.1v81.6c0,0,11.5-18.7,33.4-6.8c21.9,11.9,33.4-7.5,33.4-7.5v-54c0.4,0.1,0.7,0.1,1.1,0.1
		c5.2,0,9.3-4.2,9.3-9.3s-4.2-10.8-9.3-10.8c-0.4,0-0.7,0-1.1,0.1v-0.8c0.1-2,1-7.8,8.9-7.4c0.6,0.1,1.2,0.2,1.8,0.2c0,0,0,0,0,0
		c0,0,0,0,0,0c0.1,0,0.1,0,0.2,0c6.1,0,11-4.9,11-11C329.8,473.1,327.2,469.3,323.3,467.6z" style="fill:#FF9B19;"/>
	<path d="M271.4,435c0.4-0.2,0.9-0.5,1.4-0.8c0.6-0.3,1.2-0.7,1.8-1.3c0.6-0.6,1.1-1.5,1.3-2.4c0.2-0.9,0.1-1.8-0.1-2.5
		c-0.4-1.5-1-2.6-1.7-3.7c-0.2-0.3-0.4-0.5-0.5-0.8l-0.5-0.7c-0.3-0.4-0.6-0.8-0.8-1.2c-0.5-0.9-0.8-1.8-1-2.9
		c-0.5-2.1-0.5-4.3-0.4-6.5c0.1-2.3,0.5-4.5,1-6.9c-0.3,0.5-0.6,1-0.9,1.5c-0.3,0.5-0.5,1.1-0.7,1.6c-0.5,1.1-0.9,2.2-1.2,3.4
		c-0.6,2.3-1,4.8-0.7,7.3c0.1,1.3,0.4,2.5,1,3.8c0.3,0.6,0.6,1.2,1,1.8l0.5,0.7c0.2,0.2,0.3,0.4,0.4,0.7c0.5,0.9,1,1.8,1.2,2.6
		c0.1,0.4,0.1,0.7,0,1c0,0.2-0.1,0.4-0.4,0.7c-0.2,0.2-0.6,0.5-1,0.8c-0.4,0.3-1,0.5-1.6,1c-0.6,0.4-1.1,0.9-1.6,1.5
		c-0.5,0.6-0.9,1.3-1.1,2.1c-0.2,0.8-0.2,1.7,0,2.5c0.2,0.8,0.5,1.5,0.9,2c0.8,1.2,2.9,3,2.6,6.6v39.4c0,1.5,1.2,2.7,2.7,2.7
		s2.7-1.2,2.7-2.7v-37.9c0-0.2-0.1-2.3-0.2-2.6c-0.2-0.6-0.5-1.2-0.9-1.8c-0.4-0.5-0.8-1-1.2-1.5c-0.2-0.2-0.4-0.4-0.7-0.7
		c-0.2-0.2-0.4-0.4-0.6-0.6c-0.4-0.4-0.7-0.8-1-1.2c-0.3-0.4-0.6-0.8-0.8-1.2c-0.2-0.4-0.3-0.8-0.4-1.2c0-0.4,0-0.7,0.1-1
		C270.1,436.1,270.6,435.5,271.4,435z" style="fill:#324A58;"/>
	<path d="M264.1,462.9c-7.4-4.6-17.1-14.2-16.2-31.1c0.5-8.8,2.9-16.2,11.9-33.1c12.5-23.6,15.8-47.1,15.8-47.1
		s-5.4,18.3,12.9,50.7c16,28.3,11.4,50-6.6,60.5" style="fill:none;stroke:#FF564F;stroke-width:11;stroke-linecap:round;stroke-linejoin:round;stroke-miterlimit:10;"/>
	<path d="M263.2,503.1c-5-30.9-27.1-32.6-39.7-31.1c-8.3,1-25.2,1.8-28-18.3c0,0-6.6,32.2,28.8,46c0,0-12.9,7.5-28.8,0
		l12.9,15.1c0,0-14.7,0-27-7.9c0,0,30.7,47.6,77.3,16.7" style="fill:none;stroke:#FF564F;stroke-width:11;stroke-linecap:round;stroke-linejoin:round;stroke-miterlimit:10;"/>
	<path d="M331.1,369.1c0,0,21.7,25.7,12.9,55.4c-0.1,0.2,16.9-16.5,13.7-34.5c0,0,27.3,39.5-11.5,58.6
		c-10.6,5.2-24.6,9.5-28.2,22.1c0,0-11.5-18.7-6.5-39.5C316.5,410.2,334.7,417.9,331.1,369.1z" style="fill:none;stroke:#FF564F;stroke-width:11;stroke-linecap:round;stroke-linejoin:round;stroke-miterlimit:10;"/>
	<path d="M275.7,323.8c0.3-2.2,1.1-4.5,2.2-6.5c1.1-2.1,2.7-3.9,4.3-5.5c0.4-0.4,0.8-0.8,1.3-1.2
		c0.4-0.4,0.9-0.7,1.3-1.1c0.9-0.7,1.8-1.4,2.6-2c1.8-1.3,3.5-2.5,5.1-3.7c1.6-1.2,3.1-2.4,4.4-3.8c1.3-1.3,2.4-2.7,3.3-4.3l0.3-0.6
		l0.3-0.6c0.2-0.4,0.4-0.8,0.6-1.3c0.2-0.4,0.4-0.8,0.6-1.3c0.2-0.4,0.4-0.9,0.5-1.3c1.3-3.6,2.1-7.4,2.8-11.5
		c0.3-2.1,0.7-4.2,1.1-6.3c0.2-1.1,0.4-2.2,0.7-3.3c0.3-1.1,0.6-2.2,0.9-3.3c0.3-1.1,0.8-2.2,1.2-3.2c0.5-1.1,1-2.1,1.6-3.1
		c1.2-2,2.7-3.8,4.4-5.4c3.4-3.1,6.3-3.2,6.8-2.1c0.5,1.1-2.8,3-3.9,4.6c-2.2,3.3-3.5,6.9-4.2,10.8c-0.2,1-0.3,1.9-0.4,2.9
		c-0.1,1-0.2,2-0.3,3c-0.2,2.1-0.3,4.2-0.6,6.3c-0.4,4.3-1.1,8.9-2.8,13.3c-0.4,1.1-0.9,2.2-1.4,3.3c-0.2,0.5-0.5,1.1-0.8,1.6
		l-0.4,0.8c-0.2,0.3-0.3,0.5-0.5,0.8c-1.3,2.1-3,4-4.8,5.6c-1.8,1.6-3.7,2.9-5.7,4.1c-1,0.6-1.9,1.1-2.9,1.6l-2.8,1.5
		c-0.9,0.5-1.8,1-2.7,1.5c-0.9,0.5-1.7,1-2.5,1.6c-1.6,1.1-3.1,2.3-4.4,3.7c-1.3,1.4-2.4,3.1-3.3,4.9
		C276.9,326.3,275.3,326,275.7,323.8z" style="fill:#324A58;"/>
	<path d="M320,310.3c3.6-3.6,7.6-6.6,11.4-9.6c0.9-0.7,1.9-1.5,2.8-2.3c0.9-0.8,1.8-1.5,2.6-2.3
		c1.7-1.6,3.2-3.2,4.5-4.9c1.3-1.7,2.5-3.6,3.4-5.5c0.9-1.9,1.6-4,2.2-6.2c0.6-2.2,1.2-4.7,2.1-7.2c0.2-0.6,0.5-1.3,0.7-1.9
		c0.3-0.6,0.6-1.3,0.8-1.9c0.3-0.6,0.7-1.3,1-1.9c0.4-0.6,0.7-1.2,1.2-1.8c1.7-2.3,3.8-4.3,5.9-5.9l0.4-0.3l0.4-0.3l0.8-0.6
		c0.5-0.4,1.1-0.8,1.7-1.1c0.6-0.3,1.1-0.7,1.7-1l1.7-0.9c0.6-0.3,1.1-0.6,1.7-0.8c0.6-0.3,1.1-0.5,1.7-0.8l3.3-1.5
		c2.2-1,4.2-2,6-3.4c5.4-4,6.6-8.9,7.6-8.7c0.8,0.1,1.1,0.2,0.7,1.7c-1,4.5-3.3,6.9-3.3,6.9c-0.2,0.3-0.4,0.5-0.6,0.8l-0.6,0.8
		c-0.2,0.3-0.4,0.5-0.6,0.8l-0.7,0.7c-1.8,1.9-3.9,3.6-6,4.9c-1,0.7-2.1,1.4-3.1,2c-0.5,0.3-1,0.7-1.5,1c-0.5,0.3-1,0.6-1.5,1
		l-1.4,1l-1.4,1c-0.5,0.3-0.9,0.7-1.3,1l-0.6,0.5l-0.3,0.3l-0.3,0.3l-1.2,1.1c-0.2,0.2-0.4,0.4-0.6,0.6l-0.5,0.6
		c-0.7,0.8-1.3,1.6-1.8,2.4c-0.1,0.2-0.3,0.4-0.4,0.7l-0.4,0.7c-0.2,0.4-0.4,0.9-0.7,1.4c-0.2,0.5-0.4,1-0.6,1.5
		c-0.2,0.5-0.4,1-0.5,1.6c-0.7,2.1-1.2,4.5-1.9,6.9c-0.7,2.5-1.6,5-2.8,7.5c-1.2,2.4-2.8,4.8-4.5,6.8c-1.8,2.1-3.7,3.9-5.8,5.5
		c-1,0.8-2.1,1.6-3.1,2.3c-1.1,0.7-2.1,1.4-3.2,2.1c-4.3,2.6-8.5,4.9-12.4,7.5c-2,1.3-3.8,2.8-5.6,4.4
		C315.1,319.2,316.5,313.9,320,310.3z" style="fill:#324A58;"/>
	<path d="M344,334.9c1.8-1.2,3.3-2.8,4.6-4.5c1.4-1.7,2.6-3.6,3.9-5.4c0.7-1,1.4-1.9,2.1-2.8c0.8-1,1.5-1.8,2.2-2.7
		c1.5-1.8,3-3.5,4.9-5.3l0.7-0.6l0.7-0.6c0.5-0.4,1-0.8,1.6-1.2c1.1-0.8,2.3-1.5,3.5-2c1.2-0.6,2.4-1,3.6-1.4c1.2-0.4,2.3-0.7,3.4-1
		c1.1-0.3,2.2-0.6,3.4-0.9l1.7-0.4l1.6-0.4c8.5-2.3,16.5-5.5,22.7-11.1c3.1-2.8,5.8-6.2,8-10c1.1-1.9,2.1-3.9,3-6
		c0.9-2.1,2.4-1.7,2.1,0.6c-0.4,2.3-0.9,4.6-1.6,6.9c-1.4,4.6-3.8,9-7,12.8c-3.2,3.8-7.3,6.9-11.6,9.2c-2.2,1.2-4.4,2.1-6.6,3
		c-2.3,0.8-4.5,1.6-6.8,2.2l-1.7,0.4l-1.7,0.4l-3.3,0.8c-2.2,0.5-4.3,1.1-6,1.8c-0.9,0.3-1.7,0.7-2.5,1.2c-0.4,0.3-0.8,0.5-1.2,0.8
		l-0.6,0.4l-0.6,0.5c-0.4,0.3-0.8,0.7-1.2,1c-0.4,0.3-0.8,0.7-1.2,1.1c-0.8,0.7-1.7,1.5-2.5,2.2l-2.5,2.3c-0.8,0.8-1.6,1.5-2.4,2.3
		c-1.6,1.6-3.3,3.3-5.1,4.8c-1.9,1.5-4,2.9-6.3,3.7C342.7,337.6,342.3,336.1,344,334.9z" style="fill:#324A58;"/>
</g>
</svg>
