<?xml version="1.0" encoding="utf-8"?>
<!-- Generator: Adobe Illustrator 22.0.1, SVG Export Plug-In . SVG Version: 6.00 Build 0)  -->
<svg version="1.1" id="Layer_2" xmlns="http://www.w3.org/2000/svg" xmlns:xlink="http://www.w3.org/1999/xlink" x="0px" y="0px" viewBox="0 0 600 600" style="enable-background:new 0 0 600 600;" xml:space="preserve">

<g id="Layer_3">
</g>
<g>
	<path d="M252.5,332.5c0,0,13,4,15-22s2-24,2-24l49,44l3,25c0,0-6,3-13,17s-11,14-11,14L252.5,332.5z" style="fill:#FF564F;"/>
	<path d="M305.5,445.5l42-15l11,37l34-10l-10-37l40-11l11,37l31-8l-9-36l44-8c0,0,15,77-6,118s-42,58-66,71s-72,11-91,4
		s-52-30-59-39S305.5,445.5,305.5,445.5z" style="fill:#FF9B19;"/>
	<path d="M493.5,324.5c0,0-41,3-36-27s50-26,59-11c0,0,8-16,23-13s4,20,4,20s8-7,20-1s10,20,1,23s-15,0-15,0s3,3,2,9
		s-4,7-7,8s-10-1-12-4c0,0-2,6-8,11s-13,7-20,4C497.9,340.7,494.5,335.5,493.5,324.5z" style="fill:#FF9B19;"/>
	<path d="M81.5,174.5c0,0,5-23,25-15c13.3,5.3,7,23,7,23s16.4-9.3,26,3c7,9,0.7,17.5-3,20c-6,4-13,3-13,3s8,9,1,17
		s-20,8-26,4s-8-13-8-13s-3,10-18,10s-13-14-10-21c0,0-15-4-12-21S71.5,168.5,81.5,174.5z" style="fill:#FF9B19;"/>
	<g>
		<defs>
			<path id="SVGID_1_" d="M305.5,445.5l42-15l11,37l34-10l-10-37l40-11l11,37l31-8l-9-36l44-8c0,0,15,77-6,118s-42,58-66,71
				s-72,11-91,4s-52-30-59-39S305.5,445.5,305.5,445.5z"/>
		</defs>
		<clipPath id="SVGID_2_">
			<use xlink:href="#SVGID_1_" style="overflow:visible;"/>
		</clipPath>
		<path d="M285.5,470.5c0,0,147-59,229-68" style="clip-path:url(#SVGID_2_);fill:none;stroke:#324A58;stroke-width:5;stroke-miterlimit:10;"/>
		<path d="M519.5,449.5c0,0-194,72-272,113" style="clip-path:url(#SVGID_2_);fill:none;stroke:#324A58;stroke-width:5;stroke-miterlimit:10;"/>
		<path d="M317.5,590.5c0,0,113-70,197-93" style="clip-path:url(#SVGID_2_);fill:none;stroke:#324A58;stroke-width:5;stroke-miterlimit:10;"/>
		<line x1="445.5" y1="433.5" x2="456" y2="473.7" style="clip-path:url(#SVGID_2_);fill:none;stroke:#324A58;stroke-width:5;stroke-miterlimit:10;"/>
		<line x1="372.5" y1="453.5" x2="385.5" y2="499.5" style="clip-path:url(#SVGID_2_);fill:none;stroke:#324A58;stroke-width:5;stroke-miterlimit:10;"/>
		<line x1="402.2" y1="496.2" x2="417.5" y2="534.5" style="clip-path:url(#SVGID_2_);fill:none;stroke:#324A58;stroke-width:5;stroke-miterlimit:10;"/>
		<line x1="479.2" y1="466.3" x2="490.5" y2="502.5" style="clip-path:url(#SVGID_2_);fill:none;stroke:#324A58;stroke-width:5;stroke-miterlimit:10;"/>
		<line x1="464.5" y1="516.5" x2="475.5" y2="549.5" style="clip-path:url(#SVGID_2_);fill:none;stroke:#324A58;stroke-width:5;stroke-miterlimit:10;"/>
		<line x1="335.5" y1="575.5" x2="315.5" y2="534.5" style="clip-path:url(#SVGID_2_);fill:none;stroke:#324A58;stroke-width:5;stroke-miterlimit:10;"/>
		<line x1="383.5" y1="557.5" x2="396.5" y2="598.5" style="clip-path:url(#SVGID_2_);fill:none;stroke:#324A58;stroke-width:5;stroke-miterlimit:10;"/>
	</g>
	<path d="M171.5,490.5c0,0,33-30,66-8s29,62,29,62" style="fill:none;stroke:#FFE7E6;stroke-miterlimit:10;"/>
	<path d="M317.5,115.5c0,0,12-24,38-53s43-44,35-54s-27-4-36,3S319,39,289,71c-25.7,27.4-84,159-84,159
		s5.5,20.5,33.5,28.5l25-24l66-93l26-11c0,0,9-10,10-16s-8-13-12-11s-22,16-22,16L317.5,115.5z" style="fill:#FF564F;"/>
	<g>
		<path d="M353.5,55.5c-0.4,0-0.8-0.1-1.2-0.4l-19-14c-0.9-0.7-1.1-1.9-0.4-2.8c0.7-0.9,1.9-1.1,2.8-0.4l19,14
			c0.9,0.7,1.1,1.9,0.4,2.8C354.7,55.2,354.1,55.5,353.5,55.5z" style="fill:#FFFFFF;"/>
	</g>
	<path d="M415.7,259.8c0,0-3.1-5.7-8.1-15.2c-0.6,0.5-1.5,0.8-2.5,0.8c-1.4,0-2.4-0.6-3.1-1.4c-0.2,0-0.5,0.1-0.8,0.1
		c-3.9,0-4.9-4.4-3.1-6.8c-0.2-0.5-0.3-1-0.2-1.4c0-0.4,0.1-0.9,0.2-1.3c0.3-0.9,0.6-1.3,1.2-2c0.4-0.4,0.9-0.7,1.4-0.9
		c-3.7-7-8-14.9-12.6-23.5c-0.1,0.4-0.3,0.7-0.4,1c-1,1.9-5.9,6.7-7.7,7.5c-0.1,0-4.6,4.8-6,6.2C362,235,359.7,223,358,220
		c-1.7-3.2-6-9-0.4-12.2c0.1-0.1,0.3-0.2,0.5-0.3c0.3-0.6,0.7-1.2,1.2-1.6l0.6-0.6c0.1-0.1,0.3-0.3,0.4-0.4c0.3-0.6,0.7-1.1,1.1-1.5
		c0.3-0.3,0.5-0.5,0.8-0.8c0,0,0.1,0,0.1-0.1c0.2-2.6,2.2-4.8,4.7-5.6c4.4-1.6,10-2.4,14,0.6c0.9,0.7,1.6,1.4,2.1,2.3
		c0.2,0.1,0.4,0.1,0.6,0.2c-5.2-9.6-10.7-19.9-16.3-30.4c-0.2,0.2-0.5,0.5-0.8,0.7c-5.4,3.4-10.2,7.7-15.5,11.3
		c-2.3,1.5-4.4-0.1-5-2.1c-0.4-0.1-0.7-0.2-1.1-0.4c-4-2.4-5-7.6-6.5-11.6c-0.5-1.5,0.3-3.2,1.6-4c0-0.6,0.1-1.4,0.7-2.1
		c4.2-5.6,8.9-10.1,15.7-12.2c-25.5-47.4-50.5-93.9-55-102.3c-9.8-18-27.5-10.8-27.5-10.8l-90.5,48.5c0,0-14.6,7.3-18.6,22.5
		c-3.5,13.5,7.1,27.9,7.1,27.9S287.2,320,300.5,335.5c13.3,15.5,23.6,9.3,34.2,3c10.6-6.3,67.3-42.7,78.8-49
		C429,281,415.7,259.8,415.7,259.8z" style="fill:#FFE7E6;"/>
	<path d="M381.9,194c1-0.7,2.6-0.8,3.8-0.5c1.3,0.4,2.2,1.2,2.9,2.2c1.1,1.6,1.6,3.6,1.6,5.5c0,2.7-2.3,4.8-4.9,4.9
		c-0.1,0-0.2,0-0.4,0c5.3,9.8,10.1,18.8,14.3,26.5c0.5-0.7,1.3-1,2.1-1.1c-0.9-2.7,0.3-6.2,3.8-6.6c-9.8-18-21.4-39.3-33.2-61
		c-1.4,2.8-3.5,4.9-6,6.8c4.8,8.8,9.4,17.5,13.8,25.8C380.1,195.5,381,194.6,381.9,194z" style="fill:#324A58;"/>
	<path d="M431.5,273.5c0,0-7.2-13.3-18.3-33.6c-0.8,3.1-3.1,6.4-5.6,8.1c-0.1,0-0.1,0.1-0.2,0.1
		c4,7.4,6.3,11.8,6.3,11.8s15.3,19.2-2.2,29.7c-11.3,6.8-66.2,42.7-76.8,49c-10.6,6.3-20.9,12.5-34.2-3
		C287.2,320,171.8,134.9,171.8,134.9s-10.6-14.4-7.1-27.9c4-15.2,18.6-22.5,18.6-22.5l4.2-2.2c1.6,3.6,5.4,8.9,13,6.1
		c11-4,57-32,57-32s5.9-3.4,1.5-12.4l14.9-8c0,0,15.7-7.2,25.5,10.8c4.5,8.3,29.4,54.7,54.9,102c0.5-0.4,1.2-0.8,2-1
		c1.8-0.4,4.1-0.8,6.5-0.9c-28.1-51.6-55.2-101.4-60.2-110.5c-11-20-31-12-31-12l-102,54c0,0-16.5,8.1-21,25c-4,15,8,31,8,31
		s125,200,140,217.2c15,17.2,26,10.8,38,3.8s81-54,94-61S431.5,273.5,431.5,273.5z" style="fill:#324A58;"/>
	<path d="M227.5,192.5c0,0,0-42,32-65c31.5-22.7,65.2-9.9,65.2-9.9" style="fill:none;stroke:#2568EF;stroke-width:16;stroke-linecap:round;stroke-linejoin:round;stroke-miterlimit:10;"/>
	<path d="M251.5,208.5c0,0,0.9-35.7,26.8-54.5c28.2-20.5,54.7-4.9,54.7-4.9" style="fill:none;stroke:#2568EF;stroke-width:16;stroke-linecap:round;stroke-linejoin:round;stroke-miterlimit:10;"/>
	<path d="M279.5,217.5c0,0,1.5-23.7,17-34.4c18-12.6,34.5-3.3,34.5-3.3" style="fill:none;stroke:#2568EF;stroke-width:16;stroke-linecap:round;stroke-linejoin:round;stroke-miterlimit:10;"/>
	
		<ellipse transform="matrix(0.8944 -0.4473 0.4473 0.8944 -66.9748 168.1958)" cx="322.7" cy="225.9" rx="12.9" ry="13" style="fill:#2568EF;"/>
	<g>
		<path d="M353.5,211c-0.5,0-1-0.1-1.5-0.3l-142-67c-1.7-0.8-2.5-2.9-1.7-4.7c0.8-1.7,2.9-2.5,4.7-1.7l142,67
			c1.7,0.8,2.5,2.9,1.7,4.7C356.1,210.3,354.8,211,353.5,211z" style="fill:#FF564F;"/>
	</g>
	<g>
		<path d="M376.5,165.1c11.5-7.5,19.8-17.7,25-25.6c0,0,0,0,0,0s0,0,0,0c1.7-2.6,3.1-4.9,4.2-6.8
			c4.1-8.4,8.2-22.8-5.2-34.2c-20-17-51.5,7.9-51.5,7.9l10.5,10.1l6-2c6-3,4,5-1,11s-24.5,29.5-30,40c-4.4,8.4,2,21,15,17
			C359.5,179.4,376,165,376.5,165.1z M348.5,179.2l-9-12c-0.3-0.4-0.3-0.9-0.1-1.3c0.1-0.3,3.5-6.8,13.6-13.9
			c3.6-2.5,7.3-2.6,10.6-1.2c3.3,1.4,5.8,4.3,6.4,8.2c1.7,11.7-19.2,20.3-20,20.7c-0.1,0.1-0.3,0.1-0.5,0.1
			C349.1,179.8,348.7,179.6,348.5,179.2z" style="fill:#FF564F;"/>
		<path d="M378.8,200.6c-2.5-1.9-6.7-2.6-11,1.3c-6.4,5.7-8.9,9.1-9.8,10.4l10.1,11c2.5-1.9,9.6-7.6,12.7-13.9
			C382.7,205.9,381.1,202.4,378.8,200.6z" style="fill:#FF564F;"/>
		<path d="M367.3,159.7c-0.4-3-2.2-5.5-4.6-6.6c-2.6-1.1-5.6-0.6-8.4,1.4c-7.7,5.4-11.2,10.2-12.2,11.9l7.9,10.6
			C353.7,175.3,368.5,168.3,367.3,159.7z" style="fill:#FF564F;"/>
		<path d="M400.1,241.7c-0.6-0.2-1-0.8-0.8-1.5c0.1-0.6,3.2-13.7,12.7-17.9c1.6-0.7,3.2-1,4.5-0.8c0-0.3,0-0.7,0-1
			c0-18.4-3.8-29.2-6.1-32c-4.4,6.4-9.5,12.5-14.1,17.4c1.2,9.9-1.8,23.6-1.8,23.6c-2,15,3,20,8,20c2.2,0,5.2-1.2,7.8-4.4
			L400.1,241.7z" style="fill:#FF564F;"/>
		<path d="M393.6,203.9c0,0.1,0,0.1,0,0.2c5.8-6.4,12.2-14.3,16.5-22.2c1.8-6.1,3.9-14.9,3.3-23.4
			c-0.7-10.2-6-15.3-9.3-17.5c-5.6,8.5-14.8,19.8-27.8,27.7c-0.4,5.5-2,10.9-13.9,25.8c-15.3,19.1-14.5,25.5-9,33
			c4.3,5.8,12.5,5.5,21-3C382.2,216.8,379.2,218.8,393.6,203.9z M383.1,210.6c-4.1,8.2-14,15.2-14.4,15.5c-0.2,0.2-0.5,0.2-0.7,0.2
			c-0.3,0-0.7-0.1-0.9-0.4l-11.5-12.5c-0.3-0.4-0.4-0.9-0.2-1.3c0.1-0.2,1.7-3.8,10.8-11.9c5.5-4.9,11.1-3.8,14.2-1.4
			C384.1,201.5,385.2,206.4,383.1,210.6z" style="fill:#FF564F;"/>
		<path d="M413,224.6c-6.8,3-10.1,11.9-11,15l9.8,3.3c2.4-3.9,4.2-9.9,4.6-18.9C415.5,223.9,414.4,224,413,224.6z" style="fill:#FF564F;"/>
	</g>
	<g>
		<path d="M97.5,349.5c-0.2,0-0.4,0-0.7-0.1c-1-0.4-1.6-1.5-1.2-2.5c0.1-0.4,3.1-8.7,11.5-12.2c5.3-2.2,11.4-2,18.2,0.7
			c-0.1-5.4,0.6-15.8,6.5-21.7c3.3-3.3,7.6-4.7,12.9-4.1c1.1,0.1,1.9,1.1,1.8,2.2s-1.1,1.9-2.2,1.8c-4.1-0.4-7.3,0.6-9.7,3
			c-6.6,6.6-3.2,23.7-3.1,23.8c0.1,0.7-0.2,1.4-0.8,1.8c-0.6,0.4-1.4,0.5-2,0.2c-7-3.3-15-6-20-4c-6.7,2.8-9.3,9.7-9.3,9.8
			C99.1,349,98.3,349.5,97.5,349.5z" style="fill:#324A58;"/>
	</g>
	<g>
		<path d="M476.5,166.5c-0.1,0-0.3,0-0.4-0.1c-0.5-0.2-0.7-0.8-0.5-1.3l3.7-8.1l-7.2,4.3c-0.5,0.3-1.1,0.1-1.4-0.3
			s-0.1-1.1,0.3-1.4l10-6c0.4-0.2,0.9-0.2,1.2,0.1c0.3,0.3,0.4,0.8,0.2,1.2l-5,11C477.2,166.3,476.9,166.5,476.5,166.5z" style="fill:#324A58;"/>
	</g>
	<path d="M545.5,122.5c-4-3-21-19-34,0c-6.3,9.2-8.6,13-9.3,14.5c-2-3.3-13.6-21.3-22.7-19.5c-10,2-19,10-24,11
		s-8,7,3,6s10-6,18-6c7.9,0,17.7,3.9,19.9,13.5c-2-2.7-5.2-4.5-8.9-4.5c-6.1,0-11,4.9-11,11s4.9,11,11,11c3.3,0,6.2-1.4,8.2-3.7
		c1.3,1.9,8.9,11.7,19.8,1.7c0,0,8,1,8-1s-5-3-5-3s7,0,6-3s-7-1-7-1s1-1,1-3s-3,1-3,1l-2,2c0,0,0-4-7-6c0,0,9-21,28-17s21,3,22,1
		S549.5,125.5,545.5,122.5z M482.5,149.5c-1.1,0-2-0.9-2-2c0-1.1,0.9-2,2-2s2,0.9,2,2C484.5,148.6,483.6,149.5,482.5,149.5z
		 M487.5,146.5c-1.1,0-2-0.9-2-2c0-1.1,0.9-2,2-2s2,0.9,2,2C489.5,145.6,488.6,146.5,487.5,146.5z" style="fill:#324A58;"/>
	<path d="M213.5,407.5c0,0,33-50-17-98s-48-63-44-96s-8-64-8-64s-9-22,10-22s33,43,35,57s6,65,38,74s40,49,31,63
		c-6.5,10.2,3,10,8.2-0.9c0.7-1.5,0.8-3.3,0.8-5.1c0,0,41.1,56,40.9,56.6c-7.9,17.4-15.4,38.9-15.9,71.4L213.5,407.5z" style="fill:#FF564F;"/>
	
		<ellipse transform="matrix(0.2589 -0.9659 0.9659 0.2589 -301.5746 575.8387)" cx="224.5" cy="484.5" rx="87" ry="100.9" style="fill:#FFE7E6;"/>
	<g>
		<defs>
			
				<ellipse id="SVGID_3_" transform="matrix(0.2589 -0.9659 0.9659 0.2589 -301.8524 575.7043)" cx="224.3" cy="484.6" rx="87" ry="100.9"/>
		</defs>
		<clipPath id="SVGID_4_">
			<use xlink:href="#SVGID_3_" style="overflow:visible;"/>
		</clipPath>
		<path d="M140.5,534.5c0,0,25-12,49-50c0,0,26-15,48,4s19,46,19,46s-14,34-29,48l-49-15L140.5,534.5z" style="clip-path:url(#SVGID_4_);fill:#2568EF;"/>
	</g>
	<polygon points="148,501 152,474 111,492 	" style="fill:#2568EF;"/>
	<polygon points="164.5,437.5 191.5,427.5 158.5,394.5 	" style="fill:#2568EF;"/>
	<polygon points="235.5,452.9 243.4,422.3 278.3,439.7 	" style="fill:#2568EF;"/>
	<polygon points="296.5,512.5 296.5,484.5 334.5,510.5 	" style="fill:#2568EF;"/>
	<polygon points="256.5,556.5 273.5,547.5 280.5,577.5 	" style="fill:#2568EF;"/>
	<g>
		<path d="M153.7,167.8c-3.1,0-6.1-1.5-7.9-4.3c-5.1-7.6-6.2-19.7-6.2-20.2c-0.1-0.6,0.4-1.2,1-1.3l16.6-3.7
			c0.5-0.1,1,0.1,1.3,0.5c0.1,0.1,2.5,3.4,5,15.3c1.5,7.2-2.2,11.5-5.9,13C156.2,167.6,155,167.8,153.7,167.8z M142.2,144.2
			c0.4,3.1,1.8,12.1,5.7,18c2.2,3.3,6,3.7,8.7,2.6c2.9-1.2,5.5-4.5,4.4-10.2c-1.7-8.4-3.4-12.2-4.1-13.7L142.2,144.2z" style="fill:#FFFFFF;"/>
	</g>
	<g>
		<path d="M146.5,247.1c-0.9,0-1.7-0.6-1.9-1.6c-0.2-1.1,0.4-2.1,1.5-2.4l23-5.2c1.1-0.2,2.1,0.4,2.4,1.5
			c0.2,1.1-0.4,2.1-1.5,2.4l-23,5.2C146.8,247.1,146.6,247.1,146.5,247.1z" style="fill:#FFFFFF;"/>
	</g>
	<g>
		<path d="M145.2,257.7c-1.1,0-1.9-0.8-2-1.9c-0.1-1.1,0.8-2,1.9-2.1l28.8-1.7c1.1-0.1,2,0.8,2.1,1.9
			c0.1,1.1-0.8,2-1.9,2.1l-28.8,1.7C145.3,257.7,145.2,257.7,145.2,257.7z" style="fill:#FFFFFF;"/>
	</g>
</g>
</svg>
