<?xml version="1.0" encoding="utf-8"?>
<!-- Generator: Adobe Illustrator 22.0.1, SVG Export Plug-In . SVG Version: 6.00 Build 0)  -->
<svg version="1.1" id="Layer_2" xmlns="http://www.w3.org/2000/svg" xmlns:xlink="http://www.w3.org/1999/xlink" x="0px" y="0px" viewBox="0 0 600 600" style="enable-background:new 0 0 600 600;" xml:space="preserve">

<g>
	<path d="M574.8,236.5C556.2,174.5,503,132,456,146.3c-46.9,14.4-65.9,74.3-47.2,136.2s75.8,102.5,122.8,88.2
		C578.5,356.3,593.5,298.5,574.8,236.5z M499.8,292.9c0.1,1.7-1.2,3-2.9,3.1c0,0-0.1,0-0.1,0c-1.6,0-2.9-1.3-3-2.9l0-0.4
		c-0.5-15.1-0.9-29.3-10.1-46.8c-9-17.2-35.3-17.9-35.6-17.9c-1.6,0-3-1.4-2.9-3.1c0-1.6,1.4-2.9,3-2.9c0,0,0,0,0.1,0
		c24.7-2,38.3,12.6,42.7,21.1c9.8,18.7,10.8,30.9,8.8,49.4L499.8,292.9z" style="fill:#FFE7E6;"/>
	<g>
		<path d="M259.2,361.5c1.2-1.4,4-5.6,3.7-9c-4.7-2.3-15.9-6.6-21.2-4.1c-1.4,0.7-2.3,1.8-2.7,3.5
			c-0.5,2.1-0.2,3.8,0.9,5.2c3.1,4.1,12.3,5,15.5,5c0,0,0.1,0,0.1,0c1.2,0,2.4-0.1,3.5-0.1C259,361.8,259.1,361.6,259.2,361.5z" style="fill:#FF564F;"/>
		<path d="M174.1,296.5c-0.1,0,18.3,20.5,42.1,29.6c8.5,3.2,18.5,5.8,27.4,8.3c-0.5-0.5-0.9-1-1.2-1.6
			c-1.6-2.6-1.6-5.6-0.3-8.8c1.3-3.1,3.5-5.2,6.6-6.3c10.2-3.6,26.5,5.2,27.2,5.5c0.4,0.2,0.7,0.7,0.8,1.2
			c0.7,6.5-2.3,12.3-4.4,15.5c5.5-0.5,11.2-2.6,13.4-10.8c2.2-8-5.3-13.8-8.2-15.7c-2.4,0-5.1-0.2-8-0.5c-11.9-1.4-27.2-5.6-44.4-12
			c-28-10.5-47.3-29.6-53.8-36.7C155.2,275.7,174.1,296.5,174.1,296.5z" style="fill:#FF564F;"/>
		<path d="M273.8,325.5c-3.2-1.6-16.2-7.7-24.1-5c-2.3,0.8-3.9,2.3-4.9,4.6c-1,2.3-0.9,4.3,0.1,6.1
			c1.4,2.5,4.7,4.3,8.2,5.7c7,1.8,12.7,2.9,15.4,3.1C269.9,338.2,274.2,332.1,273.8,325.5z" style="fill:#FF564F;"/>
		<path d="M280.7,298.4c-1.4-0.9-5.4-3.4-9.9-5.2c-4.9-1.9-11.6-3.4-15.4,0.4c-2.1,2.1-2.9,4-2.4,5.9
			c1.2,4.8,9.8,10.6,23.1,11C276.8,309.4,281.1,303.2,280.7,298.4z" style="fill:#FF564F;"/>
		<path d="M269.3,343L269.3,343C269.3,343,269.3,343,269.3,343c-0.8,0-10.9-1-17.1-3.3c-11.4-2.8-25.9-7.1-37-10.8
			c-16.4-5.5-33.2-19.9-44.1-30.6c-11.7,8.7-2.1,26.5,1,31.8c16.8,11.9,35.7,21.4,53.7,26.9c4.5,1.4,8.8,2.5,12.9,3.3
			c-0.5-0.4-0.9-0.8-1.3-1.3c-1.7-2.2-2.1-4.8-1.4-7.8c0.6-2.6,2.1-4.4,4.4-5.5c8-3.7,23.8,4.1,24.5,4.5c0.4,0.2,0.7,0.6,0.8,1
			c0.7,3.7-1.3,7.8-2.8,10.2c1.8-0.3,3.4-0.7,4.8-1.3c4.8-1.9,7.6-4.4,8.4-7.6c1.1-4.3-1.9-8.6-2.8-9.8
			C271.9,343,270.5,343,269.3,343L269.3,343z" style="fill:#FF564F;"/>
		<path d="M256.9,365C256.9,365,256.9,365,256.9,365c-0.6,0-1.3,0-1.9,0c-20.9,0-53.5-10.6-84.2-32.3
			c-5.2,8.2,1.7,25.2,32,36.7c26.9,10.2,43.3,6.1,48.5,4C255.3,369.7,256.9,365.1,256.9,365z" style="fill:#FF564F;"/>
		<path d="M485.4,247.5C478,231,455.2,229,455.2,229c-27.8,25-73.8,40.3-103.6,39.5c-39.7-1-116-41-132.9-46
			c-8.1-2.4-17.2-3-25.4-1.3c5.8,4.5,14.6,8.9,27.8,11.5c0.9,0.2,1.5,1.1,1.3,2c-0.1,0.7-0.7,1.2-1.3,1.3c-0.2,0-0.4,0-0.6,0
			c-15.4-3.1-25.1-8.4-31.2-13.7c-7.1,2.2-13.2,6.2-17.1,12.3c-8.9,14,2,28,2,28c-0.1,0-0.1,0.1-0.1,0.1
			c6.6,7.2,25.3,25.4,52.2,35.5c11.1,4.2,21.3,7.3,30.2,9.4c-2.9-1.9-5.4-4.3-6.2-7.3c-0.7-2.9,0.3-5.9,3.2-8.7
			c9.2-9.3,28.8,4.2,29.7,4.8c0.3,0.2,0.6,0.6,0.6,1c0.8,4.7-2.1,10.3-3.9,13.2c6.5-0.2,11.1-1.8,13.1-4.8c2.2-3.2,2.9-6.5,2.1-9.8
			c-1.3-5.4-6.8-10.7-15.5-15c-7.9-4-57.1-22.9-70.2-26.9c-0.8-0.2-1.2-1.1-1-1.9c0.2-0.8,1.1-1.2,1.9-1
			c13.6,4.2,62.4,22.9,70.6,27.1c9.5,4.8,17.4,10.7,19,17c1,4.1,0.2,8.3-2.6,12.2c-2.3,3.4-6.7,5.3-13,5.9c3.8,3.3,8.4,9,6.3,16.6
			c-2.1,7.8-9,11-14,12.3c2.1,1.8,3.6,6.6,2.5,11.1c-1,4.1-4.5,7.4-10.2,9.6c-2.6,1-5.6,1.6-9.1,1.9c0.2,0.3,0.2,0.7,0.1,1.1
			c-0.1,0.3-1.2,3.7-4.1,7.2c11.7,3,66.7,14.6,132.5-14.6c74.4-33,104.6-72.5,104.6-72.5S494,266.6,485.4,247.5z M284.7,264.3
			c-0.3,0.2-0.6,0.3-0.9,0.3c-0.4,0-0.9-0.2-1.2-0.6c-17.4-21.7-40.3-22-40.6-22c-0.8,0-1.5-0.7-1.5-1.5s0.7-1.5,1.5-1.5
			c1,0,24.6,0.3,42.9,23.1C285.4,262.9,285.3,263.8,284.7,264.3z M357.1,322.9c-9,6.1-16.6,6.7-22.9,6.7c-5.4,0-8.3-1.2-12.7-3.5
			c-12.7-6.7-15.9-22.7-16-23.3c-0.2-0.8,0.3-1.6,1.1-1.8c0.8-0.2,1.6,0.3,1.8,1.1c0,0.1,3.1,13.2,14.5,19.3
			c8.6,4.5,19.7,4.1,33-1.4c0.8-0.3,1.6,0.1,1.9,0.8C358.2,321.7,357.8,322.4,357.1,322.9z" style="fill:#FF564F;"/>
	</g>
	<path d="M300,48.5c-21.8-21-41.6-24-63.5-16c-22.2,8.1-31.7,33-23.8,74c6.9,36,10.9,46,10.9,82c0,28-3.5,69.5-3.5,69.5
		l34.7,13c0,0,11.4-71.5,23.3-94.5s29.7-53,33.7-67S319.3,67.1,300,48.5z M252.1,63.4c-8.9,5.2-18.8,4.5-22.3-1.5
		c-3.4-6,1-15,9.9-20.2s18.8-4.5,22.3,1.5C265.4,49.2,261,58.3,252.1,63.4z M278,61.1c-3.9,1.4-8-0.5-9.3-4.1
		c-1.3-3.6,0.8-7.7,4.7-9.1c3.9-1.4,8,0.5,9.3,4.1C284,55.6,281.9,59.7,278,61.1z" style="fill:#FF9B19;"/>
	<g>
		<path d="M194,199.1c3,1.4,13.2,5.6,18.5,0.9c1.6-1.4,2.3-3,2.2-4.8c0-0.6-0.2-1.3-0.4-1.9c-7.4-3.1-14.2-5.9-20-6.6
			C194.4,189.8,194.4,194.2,194,199.1z" style="fill:#FF564F;"/>
		<path d="M353.2,273.4c-16.1-10.5-33.9-34.1-44.6-56.1c-1.4-2.9-3-5.2-4.9-7.1c-1.3,8.8-9.7,10.8-10,10.9
			c-0.2,0.1-0.3,0.1-0.5,0.1c-0.6,0-1.2-0.4-1.4-1c-0.3-0.8,0.1-1.6,0.9-1.9c0.3-0.1,5.7-2.2,8.6-10.2c-2.1-1.6-4.5-2.8-7-3.6
			c-1.7,8-7.6,12.6-8,12.8c-0.3,0.2-0.6,0.3-0.9,0.3c-0.4,0-0.9-0.2-1.2-0.6c-0.5-0.7-0.4-1.6,0.3-2.1c0.1-0.1,5.3-4.2,6.8-11.2
			c-14.9-3-34.9,3.7-54-1.6c-6.7-1.9-12.5-4.7-18.9-7.4c0,0.1,0,0.3,0,0.4c0.1,2.7,0,5.1-2.2,7.2c-2.4,2.2-6.1,2.7-10.6,2.9
			c-6.8,0.3-13.7-3.6-14.1-3.9c-0.5-0.3-0.8-0.9-0.8-1.5c0.6-5.4,0.5-10.1,0.4-13.3c-4.3,0.1-7.8,1.6-10.2,5.5
			c-7.8,12.5-0.1,23.9,21.8,35.4s61.7,8.5,79,30c10,12.4,21.4,19.5,26.1,36.8c3.6,13.3,5.6,34.7,41.2,23.8
			C382.3,307.9,369.3,284,353.2,273.4z" style="fill:#FF564F;"/>
	</g>
	<g>
		<path d="M270.6,452.8c0.9-2.2,3.8-9.3,4.6-19.3c0.2-2.1-0.3-3.7-1.2-5c-1.6-0.5-3.5-1-5.7-1.5
			c-12.3-2.8-30.6-4.6-54.6-5.5c-20.1-0.8-35.1-0.4-46.3,0.5c-0.1,0.3-0.3,0.5-0.3,0.5c-1.7-0.1-3.2-0.1-4.7-0.1
			c-3.3,0.4-6.3,0.8-8.9,1.2c-18.9,5.2-11.6,25.2-9,31.2c18.1-1.9,39.1-3.2,63.3-3.3C231.4,451.4,252.3,451.9,270.6,452.8z" style="fill:#FF9B19;"/>
		<path d="M207.8,457.5C132,457.8,87,470.2,68.4,476.8c-1.3,4.3-1.3,10.1-0.7,16.6c14.4-8,51.5-21.5,138.1-21.8
			c59.6-0.2,100.2,3.9,123.8,7.3c13.8,2,23.5,4.1,29.6,5.6c0.8-6.8,0.9-12.7,0.1-16.5C339.3,464.4,288.4,457.1,207.8,457.5z" style="fill:#FF9B19;"/>
		<path d="M328.8,482.8c-23.4-3.5-63.8-7.5-123-7.3c-89.4,0.4-125.2,14.8-137.6,22.2c3.3,24.1,14.6,54.8,14.6,54.8
			h260.8c0,0,11.3-37.7,15-64.1C352.6,486.9,342.8,484.8,328.8,482.8z" style="fill:#FF9B19;"/>
		<path d="M155.2,402.5c11.6,4.7,13.4,11.1,13.2,15.4c11.4-0.8,26.2-1.1,45.4-0.4c14,0.5,29.6,1.5,42.7,3.4
			c1.7-4.3,5.7-11.1,13.7-12.4c13.7-2.3,44.6-17,10.9-31c-39.8-16.5-102.1-17-125.9-4C133.2,385.5,145.3,398.5,155.2,402.5z
			 M159.3,393.6c2.3-0.7,56.1-16,114.7,2c1.6,0.5,2.5,2.2,2,3.7c-0.4,1.3-1.6,2.1-2.8,2.1c-0.3,0-0.6,0-0.9-0.1
			c-57-17.5-110.8-2.1-111.3-2c-1.6,0.5-3.2-0.5-3.7-2C156.9,395.7,157.8,394.1,159.3,393.6z" style="fill:#FF9B19;"/>
	</g>
	<polygon points="541.4,246 547.4,205.6 594,200 	" style="fill:#2568EF;"/>
	<polygon points="471,173 504.8,173 495.8,116 	" style="fill:#2568EF;"/>
	<polygon points="415.5,229 427.4,199 385.8,173 	" style="fill:#2568EF;"/>
	<polygon points="535.5,334 543.4,296 589,341 	" style="fill:#2568EF;"/>
	<polygon points="474.6,331.4 494.9,350.1 465.3,379.8 	" style="fill:#2568EF;"/>
	<path d="M468.6,416.5c-22.3-26.5-99.4,48.3-86.1,75.8C387.7,469,488.7,440.5,468.6,416.5z M455.9,421.7
		c-1.3,4.9-21,9.6-23.3,4.6C429.7,420,459.3,408.7,455.9,421.7z" style="fill:#324A58;"/>
	<path d="M438.8,479.5c0,0,21.8-16,37.7-21c15.9-5,27.8-6,36.7-4c8.9,2,10.9,10-1,13c-11.9,3-28.8,4-41.6,8
		s-33.7,11-34.7,9S438.8,479.5,438.8,479.5z" style="fill:#324A58;"/>
	<path d="M500.3,490.5c11-3.7,17.8-5,19.8,2s0,11-9.9,12c-9.9,1-22.8,4-22.8-2S497.3,491.5,500.3,490.5z" style="fill:#324A58;"/>
	<path d="M82.8,324.5c1-10,10.9-17,13.9-2s2,16-2,17S81.8,334.5,82.8,324.5z" style="fill:#324A58;"/>
	<path d="M110.6,426.5c-16.5-11.3-27.8-66-30.7-72c0,0-7.4-28.5-20.8-25c-6.4,1.7-16.4,10.5-5.9,43
		c9.8,30.5,32.2,51.5,46.6,57C122.8,438.3,126,437,110.6,426.5z M67.7,351.1c-2.6,1.1-6.1-1.5-7.8-5.7c-1.7-4.2-0.9-8.5,1.7-9.5
		c2.6-1.1,6.1,1.5,7.8,5.7S70.3,350.1,67.7,351.1z" style="fill:#324A58;"/>
	<path d="M39.2,492.5c0,0,11.9,4,4,9s-33.2,19.7-37.7,13c-5.9-9,3-18,13.9-22S39.2,492.5,39.2,492.5z" style="fill:#324A58;"/>
	<path d="M402.1,544.5c-11.9-12-18.8-9-32.7-11c-13.9-2-4-14-9.9-17s-17.8-3-28.8,12s-64.5,16-93.2,11s-89.2,3-111.1,6
		s-35.7-6-40.7-11s-7.9-15-15.9-15s-13.9,3-17.8,15s-12.9,11-12.9,11s-9.9,0-8.9,10s10.9,8,33.7,6s58.5-1,91.2-1s36.7,7,68.4,5
		s29.7-4,68.4-3s83.3,3,98.2,3C405.1,565.5,414,556.5,402.1,544.5z M68.1,535.5c-3.6,2.5-7.9,2.6-9.6,0.1c-1.7-2.5-0.2-6.6,3.4-9.1
		c3.6-2.5,7.9-2.6,9.6-0.1C73.2,528.9,71.7,533,68.1,535.5z M398.2,552.5c-2.2,4.5-9.1,1.5-13.9,0c-2.8-0.9-8.9-4-7.9-9
		s8.9-4,12.9-2S400.1,548.5,398.2,552.5z" style="fill:#324A58;"/>
</g>
</svg>
