<?xml version="1.0" encoding="utf-8"?>
<!-- Generator: Adobe Illustrator 23.0.2, SVG Export Plug-In . SVG Version: 6.00 Build 0)  -->
<svg version="1.1" id="Layer_3" xmlns="http://www.w3.org/2000/svg" xmlns:xlink="http://www.w3.org/1999/xlink" x="0px" y="0px" viewBox="0 0 605.9 600" style="enable-background:new 0 0 605.9 600;" xml:space="preserve">

<g>
	<g>
		<g>
			<path d="M363.3,142.6c-0.1,0-0.2,0-0.3,0c-0.8-0.2-1.4-1-1.2-1.9l15.9-71l-24.2,38.2c-0.4,0.6-1.1,0.9-1.8,0.7
				c-0.7-0.2-1.1-0.8-1.1-1.5V70.7l-19.1,37.8c-0.3,0.6-1,1-1.7,0.8c-0.7-0.1-1.2-0.7-1.3-1.4l-2.3-37.7L306,138
				c-0.2,0.8-1.1,1.3-2,1.1c-0.8-0.2-1.3-1.1-1.1-2l22.8-76.3c0.2-0.7,0.9-1.2,1.7-1.1c0.8,0.1,1.3,0.7,1.4,1.5l2.4,40.7l19.4-38.5
				c0.3-0.7,1.1-1,1.8-0.8c0.7,0.2,1.2,0.8,1.2,1.5v37.6l26.1-41.3c0.4-0.6,1.2-0.9,1.9-0.6c0.7,0.3,1.1,1.1,0.9,1.8l-17.9,79.8
				C364.7,142.1,364,142.6,363.3,142.6z" style="fill:#2568EF;"/>
		</g>
	</g>
	<g>
		<g>
			<path d="M330.4,47.6c-0.3,0-0.6,0-0.9-0.1c-1.7-0.3-3.2-1.6-4.1-3.4c-0.8-1.7-1-3.8-0.7-5.8c0.8-4.5,4.2-7.6,7.7-7
				c3.5,0.6,5.6,4.7,4.8,9.2l0,0C336.5,44.7,333.6,47.6,330.4,47.6z M331.5,34.4c-1.6,0-3.3,1.9-3.7,4.4c-0.3,1.4-0.1,2.8,0.4,3.9
				c0.3,0.5,0.8,1.5,1.8,1.6c1.7,0.3,3.6-1.7,4.1-4.4l0,0c0.5-2.7-0.5-5.3-2.3-5.6C331.8,34.4,331.7,34.4,331.5,34.4z M335.7,40.3
				L335.7,40.3L335.7,40.3z" style="fill:#2568EF;"/>
		</g>
	</g>
	<g>
		<g>
			<path d="M358.4,45.8c-0.8,0-1.6-0.1-2.4-0.4c-4.2-1.6-5.9-7.2-3.9-12.4c2-5.3,7-8.3,11.2-6.7c2.1,0.8,3.6,2.6,4.3,5
				c0.7,2.3,0.5,4.9-0.4,7.4l0,0c-0.9,2.5-2.6,4.5-4.6,5.8C361.3,45.3,359.9,45.8,358.4,45.8z M361,29c-2.2,0-4.7,2.1-5.9,5.1
				c-1.4,3.6-0.4,7.4,2.1,8.4c1.1,0.4,2.5,0.2,3.8-0.6c1.4-0.9,2.6-2.4,3.3-4.3l0,0c0.7-1.8,0.8-3.8,0.4-5.4c-0.4-1.5-1.3-2.5-2.4-3
				C361.9,29,361.5,29,361,29z" style="fill:#2568EF;"/>
		</g>
	</g>
	<g>
		<g>
			<path d="M389,46.1c-1,0-1.9-0.2-2.8-0.5c-2.5-0.9-4.3-3-5.2-5.9c-0.8-2.7-0.6-5.9,0.5-8.8c1.1-2.9,3.1-5.4,5.5-6.9
				c2.6-1.6,5.3-1.9,7.8-1c5,1.9,7,8.5,4.7,14.7c-1.1,2.9-3.1,5.4-5.5,6.9C392.4,45.6,390.7,46.1,389,46.1z M392,25.6
				c-1.1,0-2.2,0.3-3.3,1c-1.8,1.1-3.3,3-4.2,5.3c-0.9,2.3-1,4.7-0.4,6.8c0.6,1.9,1.7,3.3,3.3,3.9c1.5,0.6,3.3,0.3,5-0.7
				c1.8-1.1,3.3-3,4.2-5.3c1.8-4.6,0.5-9.4-2.9-10.7C393.2,25.7,392.6,25.6,392,25.6z" style="fill:#2568EF;"/>
		</g>
	</g>
</g>
<g>
	<g>
		<path d="M356.2,235.7c-2.6,0-5.5,2-8.2,5.6c9-45.8,1.6-82.5-16.9-87.3c-20.3-5.3-48.5,34.8-62,86.9
			s-8,98.6,12.3,103.9c17.7,4.6,42.4-27.4,57.4-70.2c0.6,5,2.3,8.3,4.8,8.8c5.9,1.2,15.1-11,18.5-24.2
			C365.7,246,364.3,235.6,356.2,235.7z M277.3,233c3.3-10.8,7.2-20.6,7.2-20.7c0.3-0.8,1.2-1.2,2-0.9c0.8,0.3,1.2,1.2,0.9,2
			c0,0.1-3.9,9.8-7.1,20.5c-5.5,18.4-4.6,24.4-3.5,26.3c0.4,0.6,0.8,1,1.4,1.1c4.2,0.8,9.5-7.6,14.5-23c4.1-12.6,6.7-25.6,6.7-25.8
			c0.2-0.9,1-1.4,1.8-1.2c0.9,0.2,1.4,1,1.2,1.8c0,0.1-2.7,13.4-6.8,26.1c-5.5,17-11.1,25.3-17,25.3c-0.4,0-0.8,0-1.2-0.1
			c-1.5-0.3-2.8-1.2-3.6-2.7C271.7,257.4,272.7,248,277.3,233z M280,284.9c-5.7-2.5-8.6-5.7-8.6-9.4c0-3.9,3.8-6.7,11.4-8.3
			c3.8-0.8,7.5-1.1,9.3-1.2l4.6-14.4c0.3-0.8,1.2-1.3,2-1c0.8,0.3,1.3,1.1,1,2l-4.9,15.4c-0.2,0.6-0.8,1.1-1.4,1.1
			c0,0-5,0.2-9.9,1.2c-2.7,0.6-8.9,2.2-8.9,5.2c0,5,10.5,8.2,14.1,9c0.9,0.2,1.4,1,1.2,1.9c-0.2,0.7-0.8,1.3-1.5,1.3
			c-0.1,0-0.2,0-0.3,0C287.9,287.5,284,286.7,280,284.9z M308.4,296.8c-5.2,11.5-10.7,17.4-16.4,17.7c-0.1,0-0.2,0-0.4,0
			c-5.9,0-9.4-6.1-9.5-6.4c-0.4-0.8-0.2-1.7,0.6-2.1c0.8-0.4,1.7-0.2,2.1,0.6c0,0,2.8,5,7,4.8c3-0.1,7.8-3,13.6-15.8
			c0.4-0.8,1.3-1.1,2.1-0.8C308.4,295,308.7,296,308.4,296.8z M337.9,214.9c0,0.1-2.4,11.8-6.2,24.2c-5.2,16.9-10.5,27-15.7,29.9
			c-1.2,0.7-2.3,1-3.5,1c-0.7,0-1.5-0.1-2.2-0.4c-2-0.7-3.5-2.2-4.5-4.4c-5.8-12.9,8.6-49.7,9.2-51.2c0.3-0.8,1.2-1.2,2-0.9
			c0.8,0.3,1.2,1.2,0.9,2c0,0.1-3.7,9.5-6.7,20.2c-3.8,13.9-4.7,23.8-2.6,28.6c0.6,1.4,1.5,2.3,2.7,2.7c1,0.4,2,0.2,3.1-0.4
			c4.4-2.5,9.4-12.4,14.3-28.1c3.8-12.2,6.1-23.8,6.2-23.9c0.2-0.9,1-1.4,1.9-1.2C337.5,213.2,338,214,337.9,214.9z M355.7,261.2
			c-2.2,6.8-4.7,10.3-7.7,10.7c-0.2,0-0.4,0-0.5,0c-2.1,0-3.7-1.6-4.4-2.7c-0.5-0.7-0.3-1.7,0.5-2.2c0.7-0.5,1.7-0.3,2.2,0.5
			c0,0,0.9,1.3,1.9,1.2c0.6-0.1,2.7-0.9,5.1-8.5c0.3-0.8,1.1-1.3,2-1C355.5,259.5,355.9,260.4,355.7,261.2z" style="fill:#FF564F;"/>
	</g>
	<g>
		<path d="M405.6,407c19.3,49.7-12.6,112.9-72.2,136s-133,0.4-143.4-60c-10.1-58.8,17.4-97.6,77-120.7
			S386.4,357.3,405.6,407z" style="fill:#FFE7E6;"/>
	</g>
	<g>
		<path d="M297.4,436.7c-4.7,0-8.8-1.5-12.2-4.4c-8.8-7.5-9.9-22-9.9-22.6c-0.1-1.4,1-2.7,2.4-2.8
			c1.5-0.1,2.7,1,2.8,2.4c0,0.2,1,12.9,8.1,19c2.9,2.4,6.3,3.4,10.4,3.1c7.2-0.6,13-4.5,17.3-11.5c3.3-5.5,4.5-10.8,4.5-10.9
			c0.3-1.4,1.7-2.3,3.1-2.1c1.4,0.3,2.3,1.7,2.1,3.1c-0.1,0.3-1.3,6.2-5.1,12.4c-5.1,8.5-12.6,13.4-21.4,14.2
			C298.8,436.7,298.1,436.7,297.4,436.7z" style="fill:#FFFFFF;"/>
	</g>
	<g>
		<path d="M289.8,347.6c0,0,10.1-0.7,22.8-17.8l-1,84.3c0,0,1,14.4-9.8,16.8c-9.8,2.2-11.5-5.6-11.5-13
			S289.8,347.6,289.8,347.6z" style="fill:#FF564F;"/>
	</g>
	<g>
		<polygon points="322.9,379.2 323.7,360.7 331.9,365.3 		" style="fill:#2568EF;"/>
	</g>
	<g>
		<path d="M266.5,368.4l7,9.1c0,0,3.5-12.2,2.8-11.9C275.6,365.9,266.5,368.4,266.5,368.4z" style="fill:#2568EF;"/>
	</g>
	<g>
		<polygon points="284.4,454.5 289.6,468.8 316.9,453.1 		" style="fill:#2568EF;"/>
	</g>
	<g>
		<path d="M277.7,497.2l21,2.1c0,0-7.3,40.6-7.3,39.9S277.7,497.2,277.7,497.2z" style="fill:#2568EF;"/>
	</g>
	<g>
		<polygon points="229.1,483.2 241,502.8 220,518.2 		" style="fill:#2568EF;"/>
	</g>
	<g>
		<polygon points="344.6,481.8 366.3,498.2 354,509.1 		" style="fill:#2568EF;"/>
	</g>
	<g>
		<path d="M331.1,200.2c0,0-7.7-5.6,0-5.6c7.7,0,12.6,5.6,12.6,5.6s4.2,4.6-1.8,3.9C336,203.4,331.1,200.2,331.1,200.2z
			" style="fill:#324A58;"/>
	</g>
	<g>
		<path d="M297.1,194.6c1.3-0.1,8,0.7,3.1,4.2c-4.5,3.2-11.9,5.2-13.3,3.1C285.1,199.1,292.8,194.9,297.1,194.6z" style="fill:#324A58;"/>
	</g>
	<g>
		<g>
			<path d="M348.2,345.3c-0.5,0-0.9-0.2-1.3-0.5l-21.3-21.8c-0.6-0.6-0.7-1.5-0.2-2.2l18.6-26.3v-15.1
				c0-1,0.8-1.8,1.8-1.8s1.8,0.8,1.8,1.8v14.5l17.1,22.7c0.4,0.6,0.5,1.3,0.1,1.9l-15,26c-0.3,0.5-0.8,0.8-1.3,0.9
				C348.4,345.3,348.3,345.3,348.2,345.3z M329.2,321.5l18.7,19.1l13.3-23l-15.2-20L329.2,321.5z" style="fill:#2568EF;"/>
		</g>
	</g>
	<g>
		<g>
			<path d="M356.4,330.9c-0.2,0-0.4-0.1-0.6-0.2l-20.5-19.6c-0.4-0.3-0.4-0.9,0-1.2c0.3-0.3,0.9-0.4,1.2,0l20.5,19.6
				c0.4,0.3,0.4,0.9,0,1.2C356.9,330.8,356.6,330.9,356.4,330.9z" style="fill:#2568EF;"/>
		</g>
	</g>
	<g>
		<g>
			<path d="M337.4,332.4c-0.2,0-0.3,0-0.5-0.2c-0.4-0.3-0.5-0.8-0.2-1.2l17.4-25.4c0.3-0.4,0.8-0.5,1.2-0.2
				c0.4,0.3,0.5,0.8,0.2,1.2L338.2,332C338,332.2,337.7,332.4,337.4,332.4z" style="fill:#2568EF;"/>
		</g>
	</g>
	<g>
		<path d="M329.7,138.3c0,0,27.6-37.1,53.6,7.7c29.6,51.2,26.6,120.8,26.6,120.8s-3.8-7.4-8-4.2s-5.2,2.8-7.4,0.7
			c-2.1-2.1-3.1-5.6-9.1-1.8c-5.9,3.8-6.3,7.7-11.9,2.8s-4.9-3.9-8.4-1c-3.5,2.8-8,6.6-13-1.1c-4.9-7.7-14.3,2.1-14.3,2.1
			s11.9-45.1,9.1-83.6c0,0-1-1.4-6.6,2.1s-9.4,10.5-18.2,1.1s-13.5-1.1-16.5,1.8c-3.3,3.2-10.9,4.6-14.4,0.4
			c0,0-15.6,25.4-27.3,82.6c0,0-3.9,2.8-5.2-4.2s-7,1.8-7,1.8s-3.2,6-8.4,0.4s-8.8-0.4-8.8-0.4s-5.2,6.6-9.8,3.1
			c-4.5-3.5-8.4-3.9-17.5,1.8c0,0,14.7-66.5,55.3-115.5C292.4,119.3,321.3,120.4,329.7,138.3z" style="fill:#324A58;"/>
	</g>
</g>
<g>
	<g>
		<path d="M147.6,494.3c-0.3-43.6-27.6-77-56.9-76.8s-52.8,35.6-52.5,79.1c0.3,43.6,30.8,80.5,59.8,76.7
			C134.9,568.6,147.9,537.9,147.6,494.3z M110.4,519.7c-0.1,1.4-1.3,2.4-2.6,2.4c-0.1,0-0.2,0-0.3,0c-10.9-1.1-18.6-5.3-23-12.6
			c-9.1-15.2,0.2-37.8,0.6-38.7c0.6-1.3,2.1-2,3.4-1.4c1.3,0.6,2,2.1,1.4,3.4c-0.1,0.2-8.6,21.2-0.9,34.1c3.5,5.8,9.8,9.2,19,10.1
			C109.5,516.9,110.5,518.2,110.4,519.7z" style="fill:#FFE7E6;"/>
	</g>
	<g>
		<polygon points="73.5,530.2 80.5,546.1 52.6,552.1 		" style="fill:#2568EF;"/>
	</g>
	<g>
		<polygon points="129.7,522.8 138.9,507.5 152.3,539.4 		" style="fill:#2568EF;"/>
	</g>
	<g>
		<polygon points="35.7,461.6 59.4,463.3 58.4,483.4 		" style="fill:#2568EF;"/>
	</g>
	<g>
		<polygon points="81.5,443.4 92.7,410.5 99.5,440.1 		" style="fill:#2568EF;"/>
	</g>
	<g>
		<g>
			<path d="M157.3,288.2c-0.1-4.4-0.9-16-1.3-20.3l-8.7,0.9c-0.9,7.7-0.5,18.4,0.1,29.9
				C157.5,297,157.4,291.8,157.3,288.2z" style="fill:#FF564F;"/>
		</g>
		<g>
			<path d="M244.2,437.5c-12.3-3.3-23.5-3.7-31.7-3.2c-13.4,0.8-22.2,3.9-22.3,3.9c-0.8,0.3-1.7-0.1-2-0.9
				c-0.3-0.8,0.1-1.7,0.9-2c0.4-0.1,9.3-3.3,23.2-4.1c9.5-0.5,22.8,0,37.4,4.6c16.8-3.8,25.8-18.2,8.2-28.2
				c-17.7-6.2-35.1-5.1-47.1-2.9c-14.4,2.7-24.2,7.5-24.3,7.5c-0.2,0.1-0.5,0.2-0.7,0.2c-0.6,0-1.1-0.3-1.4-0.9
				c-0.4-0.8-0.1-1.7,0.7-2.1c0.4-0.2,10.3-5,25-7.8c12.2-2.3,29.8-3.4,48,2.7c4.1-2.3,10-7.5,8.5-17.3c-1-6.6-5.3-10.2-9.3-12.1
				c-23.4-3.5-43,0.1-55.3,3.7c-13.4,3.9-21.2,8.7-21.3,8.8c-0.3,0.2-0.5,0.2-0.8,0.2c-0.5,0-1-0.3-1.3-0.7
				c-0.5-0.7-0.2-1.7,0.5-2.2c0.3-0.2,8.3-5.1,22.1-9.1c11.5-3.4,29.1-6.7,50.2-4.6c2.1-3,5.2-9.6-2.5-15.1
				c-11.1-8.1-39.7-3.2-56,1.4c-11.4,3.2-18.9,7.9-19,8c-0.3,0.2-0.6,0.3-1,0.3c-0.5,0-0.9-0.2-1.2-0.6c-0.5-0.7-0.4-1.7,0.3-2.2
				c0.2-0.2,2.9-2.2,8.3-4.7c1.3-6.3,4.5-27,1.8-61.8c-3.1-39.5-18.6-44.6-29.6-39.1c-2.3,1.2-3.7,4.2-4.6,8.4l9.5-1
				c0.4,0,0.8,0.1,1.2,0.4c0.3,0.3,0.5,0.7,0.6,1.1c0.1,0.7,1.3,16.6,1.4,22.1c0.1,3.9,0.2,11.6-12.9,13.7c0.9,14.8,1.9,30.7,1,43
				C145.9,378,136,445.4,87.1,483.3c0,0-5.1,27.5,13.4,30.9c0,0,69.8-46.1,91-52.4c18.9-5.6,30.5-0.9,48.3-4.2
				C252.3,455.3,256.7,442.5,244.2,437.5z" style="fill:#FF564F;"/>
		</g>
	</g>
</g>
<g>
	<g>
		<path d="M530.1,425.3c-31.2-7.7-64.3,14.1-75.6,51.9c-11.3,37.9-2,70.5,33.1,85c29.7,12.3,67-13.9,78.3-51.7
			C577.2,472.6,564.7,433.9,530.1,425.3z M513.7,508c-6.5,6.8-15.5,8-20.9,8c-2.6,0-4.4-0.3-4.6-0.3c-1.4-0.2-2.4-1.6-2.2-3
			c0.2-1.4,1.6-2.4,3-2.2c0.1,0,13.2,2,20.9-6.2c6.1-6.5,7.5-17.6,4.1-33c-0.3-1.4,0.6-2.8,2-3.1c1.4-0.3,2.8,0.6,3.1,2
			C522.9,487.5,521.1,500.2,513.7,508z" style="fill:#FFE7E6;"/>
	</g>
	<g>
		<polygon points="516.7,441.6 531.9,448.8 539.7,417.5 		" style="fill:#2568EF;"/>
	</g>
	<g>
		<polygon points="540.1,488.5 543.5,506.7 577.6,493.7 		" style="fill:#2568EF;"/>
	</g>
	<g>
		<polygon points="487.9,538.6 504.6,542 484,568.3 		" style="fill:#2568EF;"/>
	</g>
	<g>
		<g>
			<path d="M455.9,286c-1.7,3.8-7.1,17.1-3,25c1.1,2,2.7,3.5,4.9,4.6c0.7-3.3,1.4-6.3,2.3-9.1c1.2-4,4-11.7,5-18.7
				L455.9,286z" style="fill:#FF564F;"/>
		</g>
		<g>
			<path d="M515.4,484.2c-35.7-46.6-56.7-100.7-59.1-130.9c-1.2-14.3-0.5-25.4,1-34.6c-3.2-1.3-5.6-3.4-7.1-6.3
				c-5.6-10.7,3.1-28.2,3.5-28.9c0.3-0.6,1-1,1.7-0.8l10.1,2c0.3-5.5-1.1-10.1-6-11.4c-12.5-3.3-20.7-0.3-34,34
				c-11.1,28.8-5.7,55.2-3.6,63c6.5,3.7,9.9,6.9,10.2,7.1c0.6,0.6,0.7,1.6,0.1,2.2c-0.3,0.3-0.7,0.5-1.1,0.5c-0.4,0-0.8-0.1-1.1-0.4
				c-0.1-0.1-6.7-6.2-19-11.2c-16-5.2-44.3-12.5-59-5.3c-9.3,4.6-6.9,11.9-5.4,15c10.6-1.4,24.3,0.1,41,4.6
				c20.1,5.4,37.3,13.2,37.5,13.3c0.8,0.4,1.1,1.3,0.8,2.1c-0.3,0.6-0.8,0.9-1.4,0.9c-0.2,0-0.4,0-0.7-0.1
				c-0.7-0.3-67.7-30.5-91.5-12.1c-0.1,0-0.1,0.1-0.2,0.1c-0.8,1.2-1.4,2.6-1.8,4.2c-2.3,9.2,3.3,15.8,7,18.9
				c20.9-4.1,40.3-2.1,53.6,0.6c16.3,3.2,26.8,8,27.3,8.2c0.8,0.4,1.1,1.3,0.8,2.1c-0.3,0.6-0.8,0.9-1.4,0.9c-0.2,0-0.4,0-0.7-0.1
				c-0.1,0-10.7-4.8-26.7-8c-13.2-2.6-32.6-4.6-53.3-0.3c-15.9,7.2-13.1,27.7,1.6,29.8c1.3,0.2,2.6,0.3,3.7,0.4
				c4.7-2.5,9.7-4.4,15-5.6c7.6-1.8,15.9-2.5,24.5-1.8c14.7,1.1,25.3,5.3,25.8,5.4c0.8,0.3,1.2,1.2,0.9,2c-0.3,0.8-1.2,1.2-2,0.9
				c-0.1,0-10.7-4.2-24.9-5.2c-8.7-0.6-20.1-0.1-31.4,4.3c-11.2,5.9-7.3,24.7,21,20.3c22.5-3.4,35.4,2.4,35.4,2.4l91.5,44.3
				C517.6,508.2,515.4,484.2,515.4,484.2z" style="fill:#FF564F;"/>
		</g>
	</g>
</g>
<g>
	<g>
		<path d="M416,289.8L416,289.8c1.6,2.6,0.2,5.8-3.9,8.3L393,310.7c-4.1,2.5-7.2,0.5-8.2-1.3c-1.1-1.8-1.4-5.6,2.5-8
			l19.9-11.3C411.3,287.7,414.4,287.2,416,289.8z" style="fill:#FF9B19;"/>
	</g>
	<g>
		<path d="M440.8,252.5L440.8,252.5c-3,0.7-5.7-2.2-6.9-7.6l-6.6-25.7c-1.2-5.4,1.6-7.9,3.7-8.4c2.1-0.4,5.8,0.8,7,6
			l5,26C444.2,248.3,443.7,251.9,440.8,252.5z" style="fill:#FF9B19;"/>
	</g>
	<g>
		<path d="M469.3,254.4L469.3,254.4c-2.7-1.3-3-5.4-0.4-10.7l11.6-24.9c2.6-5.3,6.4-6.5,8.3-5.5c1.9,1,4,4.3,1.5,9.4
			l-12.2,23.3C475.5,251.2,472,255.7,469.3,254.4z" style="fill:#FF9B19;"/>
	</g>
	<g>
		<path d="M485.5,276.6L485.5,276.6c-0.6-3,1.8-5.6,6.4-6.5l21.7-5.1c4.7-1,7.4,1.4,7.9,3.5c0.4,2.1-0.5,5.7-5.1,6.7
			l-21,3.6C490.7,279.8,486.1,279.5,485.5,276.6z" style="fill:#FF9B19;"/>
	</g>
	<g>
		<path d="M477.6,300.1L477.6,300.1c2.3-2,5.7-1.1,8.8,2.5l14.9,16.5c3.1,3.6,2.3,7.2,0.7,8.6c-1.6,1.4-5.3,2.3-8.3-1.2
			l-13.3-16.7C477.4,306.2,475.3,302,477.6,300.1z" style="fill:#FF9B19;"/>
	</g>
</g>
<g>
	<g>
		<path d="M148.9,226L148.9,226c-3.2,1-6.5-2.1-8.4-8.4l-10.1-29.6c-1.9-6.2,0.9-9.4,3.1-10c2.2-0.7,6.4,0.5,8.3,6.5
			l8.4,30.1C152.1,220.8,152,225,148.9,226z" style="fill:#FF9B19;"/>
	</g>
	<g>
		<path d="M116,283.9L116,283.9c0.6,3.3-2.5,6.1-8.4,7.2l-27.9,6c-5.8,1.1-8.5-2.1-8.8-4.4c-0.4-2.3,1-6.3,6.7-7.3
			l28.2-4.3C111.6,280,115.4,280.6,116,283.9z" style="fill:#FF9B19;"/>
	</g>
	<g>
		<path d="M122.5,323.5L122.5,323.5c2.2,2.5,1.5,6.1-2.2,9.4l-16.9,16.5c-3.7,3.3-7.3,1.7-8.8,0
			c-1.5-1.7-2.7-5.6,0.8-8.8l18.1-15.2C117.1,322,120.3,321.1,122.5,323.5z" style="fill:#FF9B19;"/>
	</g>
	<g>
		<path d="M194.4,308L194.4,308c0.9-3.2,4.9-4.4,10.8-2.9l28.1,6.5c5.8,1.5,6.8,5.5,6.2,7.8c-0.6,2.2-3.6,5.2-9.3,3.7
			l-27.7-8.2C196.8,313.4,193.6,311.2,194.4,308z" style="fill:#FF9B19;"/>
	</g>
	<g>
		<path d="M181.6,234.1L181.6,234.1c-2.9-1.6-2.9-6.1,0.3-11.8l14.5-27.7c3.2-5.7,7.4-5.8,9.4-4.7c2,1.2,4.1,5,1,10.5
			l-16,26.8C187.6,232.9,184.4,235.7,181.6,234.1z" style="fill:#FF9B19;"/>
	</g>
	<g>
		<path d="M121.3,247.2L121.3,247.2c-1.7,2.9-6.1,2.8-11.4-0.4l-26-14.6c-5.3-3.2-5.2-7.4-4-9.3c1.2-2,5-4,10.2-0.8
			l25.1,16.1C120.4,241.2,122.9,244.4,121.3,247.2z" style="fill:#FF9B19;"/>
	</g>
</g>
</svg>
