<svg xmlns="http://www.w3.org/2000/svg" xmlns:xlink="http://www.w3.org/1999/xlink" id="Layer_2" x="0" y="0" version="1.1" viewBox="0 0 617.9 600" xml:space="preserve" style="enable-background:new 0 0 617.9 600"><g><g><path d="M130.2,559.2h-58c-1,0-1.8-1.1-1.8-2.5c0-1.4,0.8-2.5,1.8-2.5h58c1,0,1.8,1.1,1.8,2.5 C132.1,558.1,131.2,559.2,130.2,559.2z" style="fill:#324a58"/></g><g><path d="M259.4,560.6h-94c-1,0-1.8-1.1-1.8-2.5c0-1.4,0.8-2.5,1.8-2.5h94c1,0,1.8,1.1,1.8,2.5 C261.2,559.5,260.4,560.6,259.4,560.6z" style="fill:#324a58"/></g><g><path d="M396,560.6h-65.3c-1.3,0-2.4-1.1-2.4-2.5c0-1.4,1.1-2.5,2.4-2.5H396c1.3,0,2.4,1.1,2.4,2.5 C398.4,559.5,397.3,560.6,396,560.6z" style="fill:#324a58"/></g><g><path d="M492.6,560.6H425c-1.4,0-2.5-1.1-2.5-2.5c0-1.4,1.1-2.5,2.5-2.5h67.5c1.4,0,2.5,1.1,2.5,2.5 C495,559.5,493.9,560.6,492.6,560.6z" style="fill:#324a58"/></g><g><path d="M293.4,556.1h-69.3c-1.4,0-2.4-1.1-2.4-2.4c0-1.4,1.1-2.5,2.4-2.5h69.3c1.4,0,2.5,1.1,2.5,2.5 C295.9,555,294.8,556.1,293.4,556.1z" style="fill:#324a58"/></g><g><path d="M576.9,555.4h-56c-1.4,0-2.4-1.1-2.4-2.5c0-1.4,1.1-2.5,2.4-2.5h56c1.4,0,2.5,1.1,2.5,2.5 C579.4,554.3,578.3,555.4,576.9,555.4z" style="fill:#324a58"/></g><path d="M499.2,347.8c0,0,32.9-69.6,18.2-166.9c-14.7-97.3-63.6-130.5-80.5-141.1c-11.2-7-16.8,3.9-12.2,9.1 c3.3,3.8,4.2,5.2,12.2,14.3s49.7,53.9,60.5,113.4c10.9,59.7,10.2,94.2-8,167.3c0,0-11.5-3.5-83.3,37.5s-83.7,39.2-83.7,39.2 l-76.3,79.8c0,0-10.1,22.4-19.6,33.6c-9.4,11.2-14.3,16.8-7.3,20c6.9,3.1,16.4,0.7,24.8-7c7.2-6.6,19.1-27.4,23.8-38.3 c7.6,3.2,23,8,51.3,10.3c-0.3-1.7-0.6-3.3-0.9-4.6c-1.4-6.1-2.6-9.2-2.7-9.2c-0.3-0.7,0-1.5,0.8-1.8c0.7-0.3,1.5,0,1.8,0.8 c0.2,0.4,3.8,9.3,5.4,26.5c0.7,5.1,0.9,10.4,0.7,15.7c-0.7,14.7,7.5,16.3,14.7,13.7c6.6-2.4,10.5-10.8,11.2-22.7 c-0.1-5.5-0.6-10.7-1.3-15.5c-0.1-0.5-0.2-0.9-0.3-1.4c0,0,0.1,0,0.1,0c-2.1-13-5.7-22.1-5.8-22.2c-0.3-0.7,0.1-1.5,0.8-1.8 c0.7-0.3,1.5,0.1,1.8,0.8c0.2,0.5,3.9,9.8,6,23.3c0.5,0,0.9,0,1.4,0c0,0,62.3,2.8,96.2-11.2c0,0-6,21-20.6,29.4 c-14.7,8.4-17.1,11.2-15.1,17.5c2.1,6.3,11.6,4.9,14.7,4.6c3.1-0.4,14.4-2.5,26.6-13s37.8-42,45.9-63.7c8-21.7,15-51.8,13.3-86.8 S499.2,347.8,499.2,347.8z" style="fill:#ff564f"/><path d="M505.9,484c0,0,9.1-12.2,13.3-66.9c0,0,23.1,40.6,27.3,46.6c4.2,5.9,9.8,16.8,11.2,30.4 c1.4,13.7,6,36.1,6,36.1s2.5,21-11.2,23.5c-13.6,2.4-13-10.6-13.6-15.8c-0.8-6.4-6.3-24.9-6.3-24.9s-2.8-12.2-11.6-18.9 C512.2,487.5,505.9,484,505.9,484z" style="fill:#ff564f"/><path d="M321.5,458.8c-13.3,32.5-49.8,62.3-83.2,50.1c-30.5-11.1-40.2-49.3-26.9-81.8c13.3-32.5,43.9-58.6,79.7-49.4 C326.1,386.6,334.8,426.3,321.5,458.8z" style="fill:#ffe1e1"/><path d="M216.1,388.8c0,0,3.5-21.4,12.6-2.8c9.1,18.6,19.6,62.9,21.7,77.4c3.5,23.8,2.8,32.2-22.4,53.2 c-15.9,13.3-47.9,38.9-53.6,42c-5.6,3.2-16.4,6-9.4-12.2S203.1,442.3,216.1,388.8z" style="fill:#ff564f"/><polygon points="269.6 394.4 286.1 390.9 287.8 362.9" style="fill:#2568ef"/><polygon points="293.4 425.2 296.2 449.7 336.5 438.1" style="fill:#2568ef"/><path d="M196.5,353.8c-33.9,21.5-48.9,71-52.8,86.1c-0.4,4.2,0.2,6.9,1.7,7.6c0.3,0.1,0.7,0.3,1.6-0.1 c2-0.8,6.5-4.5,14.4-20.6c4.6-9.3,8.1-18.3,8.1-18.4c0.3-0.8,1.2-1.2,2-0.9c0.8,0.3,1.2,1.2,0.9,2c-1.5,3.8-14.6,36.8-24.3,40.7 c-0.7,0.3-1.4,0.4-2.1,0.4c-0.7,0-1.3-0.1-1.9-0.4c-1.3-0.6-2.2-1.6-2.8-3.1c-22.4,46.1-72.6,55.2-78.8,55.9 c-6.3,0.7-9.8,6-4.2,13.3c5.6,7.4,21.4,22,42,21.7s39.6-11.2,54.3-22.8c5.9-4.7,14.5-11.7,24-20.8c12.2-34,27-77.6,35.5-109.8 c0,0,6-21.6,16-2.8c2.7,5,5.5,12,8.2,19.7c5.5-19.7,6.6-35.7,6.6-40.6C244.8,353.1,236.7,328.2,196.5,353.8z M200.6,427.3 c-0.1,0.1-5.1,9.5-11.3,18.2c-7.4,10.4-13.3,15.6-18,15.6c-0.9,0-1.8-0.2-2.6-0.6c-1.8-0.9-3.1-2.4-3.8-4.6 c-1.8-5.4,0.1-15,5.5-28.5c3.9-9.9,8.4-18.3,8.5-18.4c0.4-0.8,1.4-1.1,2.1-0.7c0.8,0.4,1.1,1.4,0.7,2.1c-4.9,9.2-16.8,35-13.7,44.4 c0.4,1.4,1.2,2.3,2.2,2.8c0.4,0.2,0.8,0.3,1.3,0.3c6.4,0,19-18.2,26.4-32.2c0.4-0.8,1.4-1.1,2.1-0.7 C200.8,425.6,201.1,426.5,200.6,427.3z" style="fill:#ff564f"/><polygon points="269.3 489.9 287.5 483.3 296.2 512" style="fill:#2568ef"/><path d="M197.5,394.4c-0.3-0.8-1.1-2.8,0.3-3.5c1.4-0.7,2.4,1.1,2.8,1.8c0.4,0.7,2.6,5.8,3.5,7.7 c0.5,1.1,2.1,4.2,0,4.9c-2.1,0.7-3.1,0.4-4.2-2.8S198.2,396.4,197.5,394.4z" style="fill:#324a58"/><path d="M178.4,386.6c0.6-0.3,2.3-1.1,1.6-2.4c-0.7-1.3-2.4-0.9-3.1-0.7c-0.6,0.2-5.1,1.7-6.7,2.6 c-4.5,2.4-2.1,5.9,2.1,4C174.9,388.9,176.9,387.4,178.4,386.6z" style="fill:#324a58"/><path d="M67.3,496.5c5.6,6.1,3.9,16.2-3.9,23.4c-7.8,7.2-18.7,8.1-24.3,2s-3.2-16.2,4.6-23.4 C51.4,491.3,61.6,490.4,67.3,496.5z" style="fill:#324a58"/><ellipse cx="170.7" cy="461.7" rx="14.5" ry="13.1" transform="matrix(0.229 -0.9734 0.9734 0.229 -317.8422 522.2036)" style="fill:#fff"/><path d="M148.8,449.2c-1.8,7.7-9.7,12.6-16.6,10.9c-6.9-1.6-11-9.2-9.2-16.8c1.8-7.7,8.9-12.6,15.7-11 C145.7,434,150.6,441.5,148.8,449.2z" style="fill:#fff"/><g><path d="M170.1,478.7c-1.1,0-2.2-0.1-3.3-0.4c-4.1-1-7.5-3.6-9.6-7.5c-2.1-3.8-2.7-8.3-1.6-12.6 c2.1-9.1,10.7-14.9,19-13c4.1,1,7.5,3.6,9.6,7.5c2.1,3.8,2.7,8.3,1.6,12.6C184,473.2,177.3,478.7,170.1,478.7z M171.3,449.7 c-5,0-9.6,3.9-11,9.6c-0.7,3.2-0.3,6.4,1.2,9.1c1.4,2.6,3.7,4.4,6.5,5.1c5.7,1.3,11.6-2.8,13.2-9.3l0,0c0.7-3.2,0.3-6.4-1.2-9.1 c-1.4-2.6-3.7-4.4-6.5-5.1C172.8,449.8,172,449.7,171.3,449.7z" style="fill:#324a58"/></g><g><path d="M134.9,462.9c-1.1,0-2.2-0.1-3.2-0.4c-4-0.9-7.4-3.6-9.4-7.4c-2-3.7-2.6-8.1-1.6-12.4c1-4.3,3.5-8,6.9-10.4 c3.6-2.5,7.7-3.3,11.7-2.4c8.5,2,13.9,11.1,11.8,19.8l0,0c-1,4.3-3.6,8-7.4,10.5C141,462,137.9,462.9,134.9,462.9z M136.1,434.5 c-2,0-3.9,0.6-5.7,1.9c-2.5,1.7-4.2,4.4-5,7.5c-0.7,3.1-0.3,6.3,1.1,9c1.4,2.6,3.6,4.3,6.3,4.9c2.7,0.6,5.7,0,8.3-1.7 c2.7-1.8,4.6-4.4,5.3-7.5c1.4-6.1-2.4-12.6-8.2-13.9C137.5,434.6,136.8,434.5,136.1,434.5z M148.8,449.2L148.8,449.2L148.8,449.2z" style="fill:#324a58"/></g><g><path d="M161.1,452.3c-0.5,0-1.1-0.3-1.4-0.8c-3.5-5.8-8.2-4.6-8.4-4.5c-0.8,0.2-1.7-0.3-1.9-1.1 c-0.2-0.8,0.2-1.7,1.1-1.9c2.5-0.7,8.1-0.4,11.9,6c0.4,0.7,0.2,1.7-0.5,2.2C161.7,452.2,161.4,452.3,161.1,452.3z" style="fill:#324a58"/></g><g><path d="M284.3,502.5c0.6,0.7-1.8,3.7-2.5,4.3c-16.5,14.6-34.6,24.1-52.4,27.3c-4.5,0.8-8.9,1.2-13.2,1.2 c-11.1,0-21.5-2.6-30.1-7.8c-8.5-5.1-14.9-12.4-18.5-21.2c-3.8-9.2-4.4-19.8-1.8-30.8c0.2-0.8,1.1-1.4,1.9-1.2 c0.8,0.2,1.4,1.1,1.2,1.9c-4.9,20.4,2.2,38.6,18.8,48.5c11.2,6.7,25.8,8.9,41.1,6.2c16.8-3,33.8-11.7,49.5-25.3" style="fill:#324a58"/></g><path d="M216.8,342.6c0,0,10.7-28.5,14.7-38.9c1.8-4.5,1.8-6.6,8.8-5.2s12.4,3.7,17.5,8.1c2.5,2.1-0.2,6.4-1,8 c-4.7,8.7-14.7,35.5-14.7,35.5s6.5-2.1,14.3-9.3c4.2-3.9,6.9-0.1,3.1,3.9c-7.3,7.7-21,15-34.6,10.5c-13.6-4.6-15.5-19.3-12.9-27 c0.7-2.1,3.2-1.8,2.8,0.7C214.1,332.5,214,339.1,216.8,342.6z" style="fill:#324a58"/><path d="M242.7,400.7l-1.4,5.6c0,0,10.8,37.1,14.3,60.2c0,0,29.8-25.9,13.7-47.9C260.2,406.1,242.7,400.7,242.7,400.7z" style="fill:#ff564f"/></g><g><path d="M290.8,248.4L290.8,248.4c-3.7-2.4-2.6-9.2,2.9-17.8l25.1-40.5c5.5-8.6,12.8-10.6,16.8-7.8 c4.4,3.1,4.1,9.5-1.2,17.9L307.1,239C301.5,247.6,295.2,251.2,290.8,248.4z" style="fill:#ff9b19"/><path d="M240.2,234.4l-0.1,0c-4.3,0.7-8.1-5-9.9-15l-9.3-46.7c-1.8-10.1,2.2-16.5,7-17.2c5.3-0.8,9.5,4.2,11.3,13.9 l6.5,47C247.5,226.5,245.3,233.5,240.2,234.4z" style="fill:#ff9b19"/><path d="M194.9,264.3L194.9,264.3c-2.6,3.6-9.3,2.3-17.7-3.6L137.7,234c-10.9-7.3-10-13.2-7.1-17.1 c3.3-4.3,9.7-3.7,17.8,2l37.7,28.9C194.5,253.6,197.9,260.1,194.9,264.3z" style="fill:#ff9b19"/><path d="M174,319.9l0,0.1c0.5,4.3-4.4,7.7-13.1,8.9l-40.1,6.2c-11.1,1.8-14-3.2-14.5-8c-0.6-5.3,3.8-9.1,12.1-10.2 l40.3-3.4C167.4,312.2,173.3,314.8,174,319.9z" style="fill:#ff9b19"/><path d="M323.2,291L323.2,291c0.1-3.8,5.8-6.2,15-6.2l43.2-0.5c9.3,0,14.3,4.4,14.1,8.6c-0.2,4.7-5.3,7.4-14.2,7.4 l-43-1.9C329,298.4,323.1,295.5,323.2,291z" style="fill:#ff9b19"/><path d="M309.1,346.3L309.1,346.3c1.5-3.2,6.6-3.4,13.4-0.3l31.8,13.9c6.8,3.1,8.8,8.5,7,12c-1.9,3.9-6.7,4.6-13.3,1.6 l-30.7-15.8C310.6,354.6,307.4,350.1,309.1,346.3z" style="fill:#ff9b19"/></g></svg>