<?xml version="1.0" encoding="utf-8"?>
<!-- Generator: Adobe Illustrator 23.0.2, SVG Export Plug-In . SVG Version: 6.00 Build 0)  -->
<svg version="1.1" id="Layer_1" xmlns="http://www.w3.org/2000/svg" xmlns:xlink="http://www.w3.org/1999/xlink" x="0px" y="0px" viewBox="0 0 449.9 600" style="enable-background:new 0 0 449.9 600;" xml:space="preserve">

<g id="Layer_4">
	<g>
		<path d="M335.1,481.3c-0.2-1.1-1.2-1.8-2.3-1.8c-15.2,1.4-27.5,9.6-33.4,14.3c2.4-8.5,5.4-14.8,8.2-19.2
			c5.4-8.6,10.6-12,10.7-12.1c0.8-0.5,1.2-1.5,0.9-2.5c-0.3-0.9-1.2-1.5-2.2-1.5c-11.7,0.9-23.7,7.7-34.7,19.7
			c-5,5.5-8.9,10.9-11,14.3c-2.4-7.2-5.3-13.6-8.6-19.3c-5.8-9.6-13.2-17.2-21.8-22.3c-14.8-8.8-28.2-7.6-28.8-7.5
			c-1.1,0.1-1.8,0.9-1.9,2c-0.1,1.1,0.6,2,1.6,2.2c8.7,2.1,15.9,7,21.4,14.8c4.5,6.3,8,14.3,10.2,24c3.9,16.7,2.9,32.4,2.9,32.6
			c-0.1,1.1,0.8,2.2,2,2.3c1.2,0.1,2.2-0.8,2.3-2c0.1-0.7,1.1-16.4-3-33.7c-2.4-10.2-6-18.8-10.9-25.5c-3.1-4.4-6.7-8-10.9-10.7
			c3.8,1,8.3,2.7,12.8,5.4c8,4.7,14.9,11.8,20.3,20.8c6.9,11.5,11.5,26.2,13.9,43.9c0.2,1.1,1.1,1.8,2.1,1.8c0.1,0,0.2,0,0.3,0
			c1.1-0.2,2-1.2,1.8-2.4c-1-7.4-2.4-14.4-4.1-20.8c1.2-2.1,16-27.4,37.1-33.8c-1.8,2-3.8,4.5-5.9,7.8c-9.6,15.3-12.2,34-12.7,47
			c-0.1,1.1,0.9,2.1,2.1,2.2h0.1c1.1,0,2.1-0.9,2.1-2.1c0.2-6.9,1-13.1,2.1-18.4c0.2-0.1,0.5-0.2,0.7-0.5
			c0.2-0.2,10.6-10.6,25.8-14.8c-4.7,5.4-9.9,15.4-10.5,33.7c0,1.1,0.9,2.1,2.1,2.2h0.1c1.1,0,2.1-0.9,2.1-2.1
			c0.2-8.9,1.9-21.2,8.2-29.5c3.7-4.8,7.3-6,7.3-6C334.6,483.4,335.2,482.3,335.1,481.3z" style="fill:#FF9B19;"/>
		
			<ellipse transform="matrix(0.1082 -0.9941 0.9941 0.1082 -214.8201 683.571)" cx="273.6" cy="461.5" rx="4.4" ry="4.4" style="fill:#2568EF;"/>
		
			<ellipse transform="matrix(0.1082 -0.9941 0.9941 0.1082 -190.1604 685.8269)" cx="287.2" cy="448.9" rx="6.7" ry="6.8" style="fill:#2568EF;"/>
		
			<ellipse transform="matrix(0.1082 -0.9941 0.9941 0.1082 -165.1961 700.4593)" cx="307.8" cy="442.3" rx="7.6" ry="7.6" style="fill:#2568EF;"/>
		
			<ellipse transform="matrix(0.1082 -0.9941 0.9941 0.1082 -145.2855 722.1521)" cx="329.9" cy="442.1" rx="6.7" ry="6.8" style="fill:#2568EF;"/>
	</g>
	<path d="M162.1,401.6c2.7-6.8,2.8-13.2,3-19.9c0.2-9,0.4-19.3,6.4-34.2c0.2-0.6,0.2-1.4-0.3-1.9
		c-0.5-0.5-1.1-0.8-1.8-0.6c-0.3,0.1-8.3,2.1-17.7,6.8c-12.5,6.4-21.3,14.8-25.6,24.3c-5.6,12.6-2.9,22.9-0.5,31.9
		c2,7.4,3.7,13.9,1.1,21c-0.1-0.1-0.1-0.2-0.2-0.2c-7.6-12.2-20.7-24.3-31.2-32.9c3.8-1,13.2-4.4,20.7-15.9c5.3-8.1,8.4-18,10.2-33
		c0.8-6.7,3.7-18.7,3.7-18.8c0.2-0.7-0.2-1.5-0.7-1.9c-0.6-0.5-1.4-0.5-2.1-0.1c-0.8,0.5-21.3,13.3-27.9,22.6
		c-6.9,9.5-9,17.8-8.3,31.8c0.3,5.4,0.4,9.9,0.5,12.2c-5.3-4.2-9.5-7.1-11.2-8.3c0.8-2,2.5-6.6,3-12.7c0.5-7.5-0.7-18.7-9.7-29.9
		c-7.2-8.8-17.8-14.5-30.8-16.5c-9.7-1.5-17.3-0.4-17.6-0.3c-0.6,0.1-1.1,0.5-1.4,1c-0.3,0.5-0.3,1.1,0,1.7
		c2.8,5.7,3.8,13.1,4.8,20.3c1.3,9.3,2.6,19,7.9,25.7c6.4,8.2,15.8,13,27.1,13.9c1.5,0.2,2.9,0.2,4.2,0.2c4.3,0,7.7-0.5,9.5-0.9
		c0.1,0.1,0.2,0.1,0.2,0.2c0.2,0.1,8,5.5,17.5,13.5c-0.5-0.2-1.1-0.5-1.7-0.8c-10.7-4.9-21.1-6.5-30.1-4.6c-9.5,2-14.3,5.5-19,8.9
		c-6,4.4-12.2,9-29.5,11.1c-0.7,0.1-1.3,0.5-1.5,1.2c-0.2,0.7-0.1,1.4,0.5,1.9c0.2,0.2,6,5.8,14.8,11c9.9,5.9,19.7,8.9,28.7,8.9
		c1.7,0,3.4-0.1,5-0.3c12.5-1.7,17.7-8.9,22.3-15.3c4.9-6.7,9.2-12.5,21.1-11.6c0.3,0,0.6,0,0.9-0.2c6.5,6.3,12.7,13.2,17,20
		c2.3,3.7,4.7,7.2,7,10.6c0.5,0.8,1.1,1.6,1.6,2.4c-2.2-0.8-7.2-2.8-13.2-5.4c-8.4-3.4-23.7-3.4-35.6,3.4
		c-11.2,6.6-29,30.7-29.8,31.7c-0.5,0.6-0.5,1.4-0.1,2c0.3,0.5,0.9,0.9,1.6,0.9c0.1,0,0.2,0,0.2,0c0.2,0,16.4-1.9,23.5-1.5
		c11.9,0.7,22.3-0.4,30.7-3.1c6.9-2.2,12.5-5.6,16.8-9.9c6-6.1,7.6-12.4,8-14.8c1.9,3,3.8,6,5.7,9.2c0,0.1,0,0.2,0,0.2
		c0.1,0.5,0.4,0.9,0.8,1.2c7.9,13.6,15.1,30.4,19.7,57.3c0.2,0.9,0.9,1.5,1.8,1.5c0.1,0,0.2,0,0.3,0c1-0.2,1.7-1.1,1.5-2.1
		c-4.5-26.3-11.5-43.2-19-56.8c1.8-0.4,4.3-1.1,7-2.4c5-2.4,11.7-7.6,15.4-18.3c1.1-3,3.4-9.6,3.4-9.6c0.2-0.6,0.1-1.2-0.2-1.7
		c-0.4-0.5-1-0.8-1.6-0.8c-0.5,0-10.8,0.7-20.6,7.8c-4.5,3.3-7.4,8.5-8.3,15c-0.1,0.5-0.1,0.9-0.2,1.4c-2.1-3.3-4.2-6.5-6.3-9.7
		c-1.5-2.3-3.1-4.7-4.7-7.1l0,0C129.7,432,154,422.2,162.1,401.6z M95.1,392.2L95.1,392.2L95.1,392.2L95.1,392.2z M112.9,378.1
		c-4.4,6.8-9.6,10.4-13.2,12.2c-1.3,0.7-2.4,1.1-3.4,1.5c0.1-0.1,0.1-0.2,0.1-0.2c5.3-24.6,24.3-51.9,28.5-57.7
		c-0.8,4-1.8,9-2.3,12.7C120.3,364.8,116.4,372.7,112.9,378.1z M102.2,351.1c4.1-5.7,14.2-13.1,20.8-17.6c-4.8,6.7-22.3,32.3-28,56
		c-0.1-2.4-0.2-5.4-0.4-8.9C93.8,367.4,95.7,360,102.2,351.1z M42.3,329c12.2,1.9,21.8,7,28.4,15.1c6.7,8.2,9.6,17.3,8.9,27.2
		c-0.3,4.7-1.5,8.6-2.3,10.6c-4.9-9.6-14.4-21.5-28.2-35.4c-8.6-8.6-16.5-15.5-19.6-18.1C32.6,328.3,37.1,328.3,42.3,329z M63.6,384
		c-10.3-0.9-18.5-5.1-24.4-12.5c-4.7-5.9-6-15.1-7.1-23.9c-0.8-6-1.6-12-3.5-17.4c7.3,6.4,37.1,33,47.2,53.3
		C73.5,383.8,69,384.4,63.6,384z M46.3,407.1c4.5-3.4,8.8-6.5,17.5-8.3c12.4-2.6,25.1,2.6,32.9,6.9c-10.8-0.6-18.7,3-30.1,8
		c-1.4,0.6-2.8,1.2-4.4,1.9c-16.1,7-35.3,4.1-42.5,2.7C34.6,415.7,40.8,411.1,46.3,407.1z M81.4,420.5c-4.7,6.3-9,12.4-19.9,13.8
		c-16.2,2.1-32-7.7-40-13.9c3.9,0.7,9.8,1.5,16.4,1.5c7.9,0,16.8-1.1,25-4.7c1.5-0.7,3-1.3,4.4-1.9c11.6-5.1,19.7-8.7,31-7.6
		C89.7,409.1,85.5,414.9,81.4,420.5z M85,445.2c6.3-3.7,13.8-5.2,20.6-5.2c4.5,0,8.6,0.7,11.7,2c4.1,1.7,7.9,3.2,10.5,4.3
		c-15.3,1-32.7,7.6-45,13.1c-10.3,4.7-18.7,9.3-22.6,11.5C66.1,463.4,77.4,449.7,85,445.2z M123.3,459.7
		c-8.9,8.9-24.2,12.9-44.5,11.8c-4.4-0.2-11.9,0.3-17.4,0.8c3.9-2.3,12.2-6.8,22.3-11.4c22.7-10.2,37.8-12.8,46.7-13
		c-0.2,0.7-0.4,1.5-0.8,2.4C128.5,452.7,126.7,456.2,123.3,459.7z M150.4,452c-2.1,1.1-4.1,1.6-5.6,2c2.5-4.7,7.3-10.4,13.9-16.8
		c2.4-2.4,4.8-4.5,6.7-6.1c-0.6,1.8-1.2,3.6-1.7,4.8C161.1,443.5,156.6,448.9,150.4,452z M143.5,448.2c0.8-5.5,3.1-9.7,6.8-12.4
		c5.1-3.7,10.5-5.5,14.2-6.3c-5.7,5-16.4,14.9-21.3,23.6C143.2,451.7,143.2,450.1,143.5,448.2z M161.4,381.7
		c-0.2,6.7-0.2,12.4-2.7,18.7c-5.4,13.8-19.2,22.5-26.5,26.4c8.6-9.1,9.4-14.6,11.4-28.8c0.4-2.5,0.8-5.4,1.2-8.6
		c2.9-19,17.9-34.6,21.4-38C161.8,364.2,161.5,373.4,161.4,381.7z M129.4,377.8c7-15.6,25.5-23.9,35-27.3
		c-4.3,4.3-18.7,19.7-21.6,38.6c-0.5,3.2-0.9,6-1.2,8.6c-1.8,13.3-2.6,18.7-10.2,27.1c0.7-6-0.8-11.5-2.4-17.4
		C126.7,398.4,124.3,389.2,129.4,377.8z" style="fill:#FF9B19;"/>
	<g>
		<path d="M115.9,497.6c-12.7-1.2-23,1.8-29.9,5.1c-9.6,4.5-15.1,10.2-15.1,10.2l-2.2-2.1c0.2-0.2,5.8-6.2,15.9-10.9
			c7-3.3,17.4-6.4,30.1-5.6c-4.2-8-15-12.5-26.4-10.4c-13.5,2.5-22.7,13.2-20.7,24c2,10.8,14.5,17.4,28,14.9
			c13.5-2.5,22.7-13.2,20.7-24C116.2,498.5,116.1,498,115.9,497.6z" style="fill:#FF564F;"/>
		<circle cx="80.2" cy="494.7" r="2.8" style="fill:#324A58;"/>
		<circle cx="93.1" cy="488.9" r="3.1" style="fill:#324A58;"/>
		<circle cx="98.7" cy="505.3" r="2.6" style="fill:#324A58;"/>
		<circle cx="90.3" cy="515.2" r="3.1" style="fill:#324A58;"/>
		<circle cx="108.5" cy="509.6" r="3.5" style="fill:#324A58;"/>
		<path d="M69.7,499.6c-1,0-2,0.2-3,0.3l-3.1-10.9c0.8-0.6,1.4-1.6,1.4-2.7c0-1.8-1.5-3.3-3.3-3.3
			c-1.8,0-3.3,1.5-3.3,3.3c0,1.8,1.5,3.3,3.3,3.3c0.1,0,0.1,0,0.2,0l3,10.8c-2.1,0.8-3.9,2-5.3,3.5l-7-4.3c0.1-0.2,0.1-0.5,0.1-0.8
			c0-1.8-1.5-3.2-3.2-3.2c-1.8,0-3.2,1.5-3.2,3.2s1.5,3.2,3.2,3.2c0.8,0,1.6-0.3,2.2-0.8l6.8,4.2c-1.3,2-2.1,4.3-2.1,6.8
			c0,7,6,12.5,13.4,12.5c7.3,0,13.3-5.7,13.2-12.6C83,505.2,77,499.6,69.7,499.6z" style="fill:#324A58;"/>
		<circle cx="61.9" cy="514" r="1.8" style="fill:#FFE1E1;"/>
		<circle cx="68" cy="518.6" r="1.8" style="fill:#FFE1E1;"/>
	</g>
	<g>
		<g>
			<path d="M101.3,192.2c-0.9,0-1.7-0.7-1.8-1.6l-8.4-60.9c-0.2-0.8,0.4-1.7,1.1-2c0.8-0.3,1.7,0,2.1,0.7l18.6,27.2
				l5.4-50.3c0.1-0.8,0.7-1.5,1.5-1.6c0.8-0.2,1.6,0.2,2,0.9l24.5,45.1l6.9-39.8c0.2-0.8,0.8-1.5,1.7-1.5s1.6,0.5,1.8,1.4l19.5,70
				c0.3,1-0.3,2-1.3,2.3c-1,0.3-2-0.3-2.3-1.3l-17.3-62.1l-6.4,36.9c-0.2,0.8-0.8,1.4-1.5,1.5c-0.8,0.2-1.5-0.2-1.9-0.9l-24.2-44.6
				l-5.3,49.5c-0.1,0.8-0.6,1.4-1.4,1.6c-0.8,0.2-1.5-0.1-2-0.8l-16.8-25.1l7.3,53.2c0.2,1-0.5,1.9-1.5,2.1
				C101.6,192.2,101.4,192.2,101.3,192.2z" style="fill:#2568EF;"/>
		</g>
		<g>
			<path d="M86,123.7c-4.7,0-9.2-3.8-10.5-9.3c-0.7-3-0.5-6,0.8-8.6c1.3-2.7,3.5-4.5,6.2-5.1c5.4-1.3,11,2.8,12.5,9.1
				c0.7,3,0.5,6-0.8,8.6c-1.3,2.7-3.5,4.5-6.2,5.1C87.3,123.6,86.6,123.7,86,123.7z M84.6,104c-0.4,0-0.8,0.1-1.1,0.2
				c-1.6,0.4-2.9,1.5-3.7,3.2c-0.9,1.8-1.1,4-0.5,6.1c1.1,4.4,4.7,7.2,8.1,6.3c1.6-0.4,2.9-1.5,3.7-3.2c0.9-1.8,1.1-4,0.5-6.1
				C90.5,106.7,87.6,104,84.6,104z" style="fill:#2568EF;"/>
		</g>
		<g>
			<path d="M115.9,100c-2.5,0-5-1-7.1-2.9c-2.3-2.1-3.8-5.1-4.2-8.5c-0.5-3.4,0.2-6.7,1.9-9.3c1.8-2.8,4.4-4.5,7.3-4.9
				c3-0.4,6,0.6,8.3,2.8c2.3,2.1,3.8,5.1,4.2,8.5c0.5,3.4-0.2,6.7-1.9,9.3c-1.8,2.8-4.4,4.5-7.3,4.9C116.8,100,116.3,100,115.9,100z
				 M115.1,78.1c-0.2,0-0.5,0-0.8,0.1c-1.9,0.2-3.5,1.4-4.7,3.2c-1.2,1.9-1.7,4.4-1.4,6.9c0.3,2.5,1.5,4.7,3.1,6.3
				c1.6,1.5,3.5,2.1,5.4,1.9c1.9-0.2,3.5-1.4,4.7-3.2c1.2-1.9,1.7-4.4,1.4-6.9s-1.5-4.7-3.1-6.3C118.4,78.8,116.7,78.1,115.1,78.1z" style="fill:#2568EF;"/>
		</g>
		<g>
			<path d="M153.9,103.3c-2.7,0-5.1-1.1-7.1-3.2s-3.1-4.9-3.2-7.9c-0.1-3,0.8-5.9,2.6-8.1c1.8-2.3,4.4-3.6,7.2-3.7
				c5.7-0.2,10.4,4.7,10.7,11.1l0,0c0.2,6.3-4.1,11.6-9.8,11.9C154.1,103.3,154,103.3,153.9,103.3z M153.7,84c-0.1,0-0.2,0-0.2,0
				c-1.7,0.1-3.3,0.9-4.5,2.4c-1.2,1.5-1.9,3.5-1.8,5.7s0.8,4.1,2.2,5.5c1.3,1.4,2.9,2.1,4.7,2c3.6-0.2,6.4-3.7,6.3-8l0,0
				C160.2,87.3,157.2,84,153.7,84z" style="fill:#2568EF;"/>
		</g>
	</g>
	<g>
		<path d="M290,196.2c-6.3,0.2-1.1-92.8-1.1-92.8c-0.1-3.2,2.8-5.9,6.1-6c3.4-0.1,6.3,2.4,6.3,5.7
			c0,0.2-0.1,0.8-0.1,0.8S297.1,196,290,196.2z" style="fill:#2568EF;"/>
		<path d="M261.4,194.7c-6.3,2.8-14.6-45.2-14.5-44.6c-1-3.1,0.8-6.4,4.2-7.3c3.3-1,6.8,0.8,7.8,3.8
			c0.2,0.5,0.2,1,0.2,1.5C259.2,148,266.5,192.4,261.4,194.7z" style="fill:#2568EF;"/>
	</g>
	<g>
		<path d="M305.1,233.7c3.1-7.4,95.1,37.7,95.1,37.7c3.3,1.3,4.9,5.1,3.7,8.6c-1.3,3.4-5,5.1-8.3,3.8
			c-0.2-0.1-0.5-0.2-0.7-0.3C394.9,283.4,303,238.6,305.1,233.7z" style="fill:#2568EF;"/>
		<path d="M304.1,263.2c4.1-4.8,57.2,49.6,57.2,49.6c2.7,2.4,3.1,6.5,0.8,9.3c-2.3,2.8-6.3,3.2-8.9,0.8
			c-0.3-0.2-0.5-0.5-0.8-0.8C352.4,322.2,300.7,267.2,304.1,263.2z" style="fill:#2568EF;"/>
		<path d="M291.4,292c3.4-2.9,25,38.5,25,38.5c2,3.1,1.2,7.2-1.8,9.3c-2.9,2.1-7,1.3-8.9-1.8c-0.3-0.5-0.6-1.1-0.8-1.7
			C305,336.3,288.4,294.6,291.4,292z" style="fill:#2568EF;"/>
	</g>
	<g>
		<path d="M392.7,520.4" style="fill:none;stroke:#FF00FF;stroke-width:3;stroke-miterlimit:10;"/>
		<path d="M226.9,499.7c-4.1-6.7-9.6-16.1-16.7-27.6c-9.2-15.1-18.4-30.1-22.3-36.6l-4.7-67.6c-0.2-3.4-3.2-6-6.7-5.8
			c-3.4,0.2-6,3.2-5.8,6.7l4.8,69.5L130,512.5c-1.1,1.8-0.5,4.4,1.3,5.5c1.8,1.1,4.4,0.5,5.5-1.3l39.6-64.6l4.6,65.8
			c0.2,3.3,3,5.8,6.3,5.8c0.2,0,0.3,0,0.5,0c3.4-0.2,6-3.2,5.8-6.7l-4.5-64.2c17,27.8,36.4,59.7,38.2,63.5c0.5,1.6,2,2.8,3.7,2.8
			c2.2,0,4-1.8,4-4C235,513.5,235,513.3,226.9,499.7z" style="fill:#324A58;"/>
		<path d="M259.4,238.9c29.1,57.7,13.8,124.1-37.3,149.9s-123.5-2.3-152.6-60S57.7,206,108.7,180.1
			S230.3,181.3,259.4,238.9z" style="fill:#FF564F;"/>
		<path d="M234.6,251.2c19.7,43.4,7.3,91.6-29.9,108.5s-88.6-6.6-108.4-50.1s-6-90.7,31.2-107.6
			S214.9,207.7,234.6,251.2z" style="fill:#2568EF;"/>
		<path d="M210.6,262.4c10,24.8,2.2,51.3-18.7,59.7c-20.9,8.4-48.7-6.1-58.7-30.9c-10-24.8-1.5-50.8,19.4-59.2
			C173.5,223.7,200.6,237.6,210.6,262.4z" style="fill:#FF564F;"/>
		<path d="M192.6,270.8c5.5,13.8,1.5,28.4-9.9,32.9c-11.3,4.6-26.5-3.6-32-17.4c-5.6-13.8-1.1-28.1,10.2-32.6
			C172.2,249.1,187.1,257,192.6,270.8z" style="fill:#2568EF;"/>
		<path d="M181.6,276.3c2.4,7.6,0.6,15.1-4.4,16.7s-11.6-3.8-14.1-11.5c-2.4-7.6-0.5-14.9,4.5-16.4
			C172.7,263.5,179.2,268.7,181.6,276.3z" style="fill:#FF564F;"/>
		<path d="M175.8,277.1c1.2,3.4,0.7,6.7-1.5,7.4c-2.1,0.8-5-1.5-6.3-4.9c-1.2-3.4-0.6-6.6,1.5-7.3
			C171.7,271.5,174.6,273.7,175.8,277.1z" style="fill:#2568EF;"/>
		<g>
			<g>
				<path d="M388.8,126.3l-10.9,46.5l48.4,22l13.8-7.7l-45.9-21.7c0.9-1.8,11.9-45.9,11.9-45.9L388.8,126.3z" style="fill:#FF9B19;"/>
				<polygon points="373.6,174.8 384.6,127.9 369.5,133.9 357.4,183.4 407.5,205.3 422.3,197 				" style="fill:#FF9B19;"/>
				<polygon points="365.3,135.6 350.8,141.4 337.5,193.6 387.5,216.5 403.5,207.5 353.1,185.6 				" style="fill:#FF9B19;"/>
				<polygon points="333.2,195.7 346.6,143.1 330.2,149.6 316.1,205.6 367.2,227.9 383.6,218.8 				" style="fill:#FF9B19;"/>
			</g>
			<path d="M259,238.1c0,0,1.7,3.4,3.1,6.7c0,0-81.5,39.1-85.4,39.1c-3.7,0-4.3-4.3-4.3-4.3L259,238.1z" style="fill:#324A58;"/>
			<path d="M172,275.7l227.3-119.9c0,0,4.3-1.2,6.7,2.1c3.1,4.3,0,7.6,0,7.6s-169.2,86.9-231.9,115.3
				C172.8,281.5,169.9,277.2,172,275.7z" style="fill:#FFE1E1;"/>
			<path d="M407.2,160.9L172.1,280.2c0.6,0.9,1.5,1.5,2.1,1.3c62.7-28.5,231.9-115.3,231.9-115.3S408,163.9,407.2,160.9
				z" style="fill:#FF564F;"/>
		</g>
	</g>
</g>
</svg>
