<svg xmlns="http://www.w3.org/2000/svg" xmlns:xlink="http://www.w3.org/1999/xlink" id="Layer_2" x="0" y="0" version="1.1" viewBox="0 0 600 600" xml:space="preserve" style="enable-background:new 0 0 600 600"><g><g><g><path d="M430,225c-1.5,0-6.8,0.8-7-0.7l-9.8-140l-20.4,49.9c-0.5,1.1-1.6,1.9-2.8,1.9c0,0-0.1,0-0.1,0 c-1.2,0-2.3-0.8-2.8-2l-19.4-55.7l-12.8,62.3c-0.3,1.3-1.3,2.2-2.6,2.4c-1.3,0.1-2.5-0.6-3.1-1.8l-20.6-46.6l8.9,125.8 c0.1,1.7-5.2,1.1-6.9,1.1c-1.6,0.1-3.1-15.3-3.1-17L322,79.1c-0.1-1.4,0.9-2.7,2.3-3c1.4-0.3,2.8,0.4,3.4,1.7l23.2,52.4 l13.1-63.8c0.3-1.3,1.4-2.3,2.7-2.4c1.4-0.1,2.6,0.7,3,2l20.4,58.5l22-53.7c0.5-1.3,1.8-2,3.2-1.8c1.4,0.2,2.4,1.3,2.6,2.7 l13.5,144.8c0.2,1.6,0.4,8.3-1.2,8.5C430.2,225,430.1,225,430,225z" style="fill:#2568ef"/></g><g><path d="M363,198c-1.5,0-2.8-1.1-3-2.6c-0.2-1.6,1-3.1,2.6-3.3l60-8c1.6-0.2,3.1,1,3.3,2.6c0.2,1.6-1,5.1-2.6,5.3 l-60,6C363.2,198,363.1,198,363,198z" style="fill:#2568ef"/></g><g><path d="M362,218c-1.5,0-2.8-1.1-3-2.6c-0.2-1.6,0.9-3.1,2.6-3.4l63-9c1.6-0.2,3.1,0.9,3.4,2.6 c0.2,1.6-0.9,5.1-2.6,5.4l-63,7C362.3,218,362.1,218,362,218z" style="fill:#2568ef"/></g><g><path d="M318.5,62c-8,0-14.5-7.2-14.5-16s6.5-16,14.5-16S333,37.2,333,46S326.5,62,318.5,62z M318.5,36 c-4.7,0-8.5,4.5-8.5,10s3.8,10,8.5,10s8.5-4.5,8.5-10S323.2,36,318.5,36z" style="fill:#2568ef"/></g><g><path d="M364.5,47c-8,0-14.5-7.2-14.5-16s6.5-16,14.5-16S379,22.2,379,31S372.5,47,364.5,47z M364.5,21 c-4.7,0-8.5,4.5-8.5,10s3.8,10,8.5,10s8.5-4.5,8.5-10S369.2,21,364.5,21z" style="fill:#2568ef"/></g><g><path d="M413.7,57c-0.3,0-0.7,0-1,0c-8.2-0.6-14.3-8.5-13.7-17.6c0.7-9.1,7.9-15.9,16.1-15.3 c8.2,0.6,14.3,8.5,13.7,17.6C428.2,50.3,421.5,57,413.7,57z M414.2,30c-4.7,0-8.7,4.3-9.1,9.8c-0.4,5.8,3.2,10.8,8.1,11.1 c4.9,0.4,9.3-4,9.7-9.8c0.4-5.8-3.2-10.8-8.1-11.1C414.5,30,414.3,30,414.2,30z" style="fill:#2568ef"/></g></g><g><path d="M561.5,288.4c-30.5-19.3-72.3-7.9-93.3,25.4c-21.1,33.3-15.5,80,15,99.3c30.5,19.3,74.3,7.9,95.4-25.4 C599.6,354.4,591.9,307.7,561.5,288.4z M528.1,346.4c-6.2,9.1-13.5,14.2-21.6,15.4c-1.2,0.2-2.4,0.2-3.5,0.2 c-9.9,0-17.2-5.9-17.5-6.1c-1.1-0.9-1.2-2.5-0.3-3.5c0.9-1.1,2.5-1.2,3.5-0.3c0.2,0.1,7.8,6.2,17.2,4.8c6.7-1,12.8-5.4,18.2-13.3 c12-17.5,1.9-37.2,1.8-37.4c-0.6-1.2-0.2-2.7,1.1-3.4c1.2-0.6,2.7-0.2,3.4,1.1C530.7,304.8,541.8,326.4,528.1,346.4z" style="fill:#ffe7e6"/><polygon points="449 392 473 371 485 392" style="fill:#2568ef"/><polygon points="535 436 524 378 548 397" style="fill:#2568ef"/><polygon points="564 369 570 352 599 367" style="fill:#2568ef"/><polygon points="550 300 569 316 574 276" style="fill:#2568ef"/><polygon points="515 290 528 290 515 269" style="fill:#2568ef"/><path d="M530,324c0,0-14-23-34-44c-13.2-13.8-26.2-24.1-35-68c-2.8-14.1-7-25.7-11.6-35.1l-9.4,5.8 c-0.3,0.2-0.7,0.3-1,0.3c-0.7,0-1.3-0.3-1.7-1c-0.6-0.9-0.3-2.2,0.7-2.8l9.7-5.9c-0.9-1.7-1.8-3.4-2.8-4.9l-9.8,6.3 c-0.3,0.2-0.7,0.3-1.1,0.3c-0.7,0-1.3-0.3-1.7-0.9c-0.6-0.9-0.3-2.2,0.6-2.8l9.8-6.3c-9.6-14.9-18.2-22.5-18.2-22.5L431,217 c-71,41-103-13-103-13l-2-36c-12,1-14,20-14,20c-0.1,0-0.2,0-0.3,0.1c-1.4,19.2,6,36,22,50.2c15.5,13.7,33.7,19.7,33.9,19.8 c1,0.3,1.6,1.5,1.3,2.5c-0.3,0.8-1.1,1.4-1.9,1.4c-0.2,0-0.4,0-0.6-0.1c-0.8-0.2-19.1-6.3-35.2-20.5 c-12.1-10.7-24.6-27.8-23.5-52.1c-8.2,3.8-10.2,13-10.6,18.8c4,21,14.1,38.4,30.1,51.9c16,13.6,32.2,18,32.4,18 c1.1,0.3,1.7,1.4,1.4,2.4c-0.2,0.9-1,1.5-1.9,1.5c-0.2,0-0.3,0-0.5-0.1c-0.7-0.2-17.3-4.7-34-18.8c-11.2-9.5-23.9-24.9-30-48.2 C283.4,225.3,294,250,294,250c-0.1,0.1-0.1,0.3-0.1,0.5c14.3,32,56.2,43.5,56.6,43.6c1.1,0.3,1.7,1.4,1.4,2.4 c-0.2,0.9-1,1.5-1.9,1.5c-0.2,0-0.3,0-0.5-0.1c-0.6-0.2-14.1-3.8-28.7-12.9c-12.5-7.8-22-17.2-27.9-27.9 c-0.5,21.3,22.8,54.5,66.7,60.3c30,4,43.5,4.5,80.5,4.5s56,33,56,33s12.4,5.5,23-6C531,336,530,324,530,324z" style="fill:#ff564f"/></g><circle cx="263" cy="189" r="9.5" style="fill:#ff9b19"/><circle cx="259.5" cy="222.5" r="4" style="fill:#ff9b19"/><circle cx="162" cy="220" r="5.5" style="fill:#ff9b19"/><circle cx="109.5" cy="204.5" r="8.5" style="fill:#ff9b19"/><circle cx="131.2" cy="124.8" r="6.8" style="fill:#ff9b19"/><circle cx="96.8" cy="122.8" r="4.8" style="fill:#ff9b19"/><circle cx="137.8" cy="256.8" r="4.8" style="fill:#ff9b19"/><circle cx="204" cy="88" r="4" style="fill:#ff9b19"/><circle cx="251.5" cy="115.5" r="5" style="fill:#ff9b19"/><g><path d="M157.3,305.4c-0.8,0.2-1.7,0.2-2.5,0c-2.3-0.6-3.5-2.9-2.7-5.1l18.3-50.1c0.8-2.2,2.8-4.8,5-4.2 c2.3,0.6,2,3.4,1.2,5.5l-16.4,51.1C159.8,304,158.6,305,157.3,305.4z" style="fill:#ff9b19"/></g><g><path d="M68.6,279.3c-1.5-2.6-1.5-6,0.8-7.9l58.9-47.4c2.2-1.9,7.3,1.4,4,5.2l-54.4,53.1 C77.2,283,71.5,284.5,68.6,279.3z" style="fill:#ff9b19"/></g><g><path d="M27.1,166.9c-3.3-0.3-5.8-3.1-5.6-6.4c0.2-3.4,3.1-5.9,6.4-5.7l90.7,7.2c3.3,0.2,6.1,0.8,5.9,4.2 c-0.2,3.4-2.9,3.7-6.2,3.5l-91.1-2.8C27.1,166.9,27.1,166.9,27.1,166.9z" style="fill:#ff9b19"/></g><g><path d="M110.1,93.9l-33-31c-2.1-2.1-2.1-5.6,0-7.8c2.1-2.1,5.6-2.1,7.8,0l31,33c2.1,2.1,4.1,5.5,2,7.8 C115.5,98.5,111.2,95,110.1,93.9z" style="fill:#ff9b19"/></g><g><path d="M204,64.7c-0.8,0.1-1.7,0.1-2.5-0.1c-2.9-0.8-2.6-4.3-1.8-7.2l8-34c0.9-2.9,3.9-4.6,6.8-3.7 c2.9,0.8,4.6,3.9,3.7,6.8l-10.4,32.4C207.3,60.9,206,64.3,204,64.7z" style="fill:#ff9b19"/></g><g><path d="M235.8,98.5c-2.8-1.2-2.7-4.1,1.8-9.9l24.8-27.2c2.1-2.2,5.6-2.2,7.8-0.1c2.2,2.1,2.2,5.6,0.1,7.8l-24.9,25.2 C244.4,95.4,239.4,100.1,235.8,98.5z" style="fill:#ff9b19"/></g><g><path d="M266,147.5c-5.5,1-8.8,0.3-9.4-2.3c-0.7-3,5.2-5.9,8.1-6.6l35-9c3-0.7,5.9,1.2,6.6,4.1c0.7,3-1.2,5.9-4.1,6.6 C302.2,140.4,266.4,147.5,266,147.5z" style="fill:#ff9b19"/></g><g><circle cx="507.5" cy="164.5" r="4.5" style="fill:#ff9b19"/><circle cx="522.5" cy="190.5" r="5.5" style="fill:#ff9b19"/><g><g><path d="M472.2,130.4l0.7-36c0.1-5,7.1-5.4,7-0.9l0.3,37C480.1,134.6,472.1,134.4,472.2,130.4z" style="fill:#ff9b19"/></g><g><path d="M490.4,114.8l-30-0.6c-4-0.1-5.9-6.1,1.1-7l28-0.5c4,0.1,6,1.9,5.9,4.1 C495.5,113.1,493.4,114.8,490.4,114.8z" style="fill:#ff9b19"/></g></g><g><g><path d="M503.7,233.9l0.6-28c0-1.4,1.2-2.5,2.6-2.4c1.4,0,2.5,1.2,2.4,2.6l0.4,28.4 C509.8,237.4,503.8,237.5,503.7,233.9z" style="fill:#ff9b19"/></g><g><path d="M516.5,223.3l-21.5-0.7c-1.4,0-2.5-1.1-2.5-2.5c0-1.4,1.1-2.5,2.5-2.5l22-0.3c1.4,0,2.5,1.1,2.5,2.5 C519.5,221.2,519.5,223.3,516.5,223.3z" style="fill:#ff9b19"/></g></g></g><g><circle cx="369.5" cy="355.5" r="8.5" style="fill:#ff9b19"/><circle cx="368.9" cy="394.6" r="5.3" style="fill:#ff9b19"/><circle cx="422" cy="385" r="4.5" style="fill:#ff9b19"/><circle cx="422.5" cy="481.5" r="4" style="fill:#ff9b19"/><circle cx="448" cy="520" r="8.5" style="fill:#ff9b19"/><g><g><path d="M465.1,472.7v-39.7c0-5.5,7.7-6.1,7.7-1.1l1.1,40.8C473.9,477.1,465.1,477.1,465.1,472.7z" style="fill:#ff9b19"/></g><g><path d="M485,455h-33.1c-4.4,0-6.6-6.6,1.1-7.7l30.9-1.1c4.4,0,6.6,2,6.6,4.4C490.5,453,488.3,455,485,455z" style="fill:#ff9b19"/></g></g><g><g><path d="M401.2,448.6l0.4-32.2c0-1.6,1.4-2.8,2.9-2.8c1.6,0,2.9,1.3,2.8,2.9l0.7,32.7 C408.2,452.5,401.3,452.7,401.2,448.6z" style="fill:#ff9b19"/></g><g><path d="M416.1,436.5l-24.7-1.2c-1.6,0-2.9-1.3-2.9-2.9c0-1.6,1.3-2.9,2.9-2.9h25.3c1.6,0,2.9,1.3,2.9,2.9 C419.6,434.1,419.6,436.5,416.1,436.5z" style="fill:#ff9b19"/></g></g></g><g><circle cx="100.2" cy="368.2" r="5.8" style="fill:#ff9b19"/><circle cx="157.5" cy="376.5" r="7.5" style="fill:#ff9b19"/><g><g><path d="M86.3,344.5c0,0-0.1,0-0.1,0c-1.6,0-2.9-1-2.9-2.4l-0.4-28c0-1.4,1.3-2.5,2.9-2.6c1.6,0,2.9,1,2.9,2.4 l0.4,28C89.1,343.3,87.9,344.4,86.3,344.5z" style="fill:#ff9b19"/></g><g><path d="M98.5,331.5H72c-1.4,0-2.5-1.3-2.5-3s1.1-3,2.5-3h27.5C104,325.5,104.5,331.5,98.5,331.5z" style="fill:#ff9b19"/></g></g></g><g><g><path d="M293,457.2c-3.3,2.4-7,4.2-10.9,5.2l20.8,64l13.4-5.6L293,457.2z" style="fill:#2568ef"/><path d="M270.5,387.3c0.2,0,0.5,0,0.7,0l-47.9-150.7l-11.4,3.6l47.5,149.4C262.8,388.2,266.6,387.3,270.5,387.3z" style="fill:#2568ef"/></g><path d="M226.6,201.1c1.7,6-6,15.4-17.1,18.6c-11.2,3.2-21.6-1.1-23.3-7.1c-1.7-6,6-13.4,17.1-16.6 C214.5,192.8,224.9,195.1,226.6,201.1z" style="fill:#ff9b19"/><path d="M190.5,105.7c-1.1,3.1-4.1,5.3-7.5,5.3c-4.4,0-8-3.6-8-8c0-1.9,0.6-3.6,1.7-4.9c-0.4,0-0.8-0.1-1.2-0.1 c-10.2,0-18.5,8.3-18.5,18.5c0,10.2,8.3,18.5,18.5,18.5s18.5-8.3,18.5-18.5C194,112.5,192.7,108.8,190.5,105.7z" style="fill:#ff564f"/><circle cx="154" cy="33" r="9" style="fill:#ff9b19"/><path d="M198,224c0,0,5,2,14-1s12-7,12-7l4,10.9c0,0.1,0.1,0.1,0.1,0.2c0.3,1.1,2.2,10.1-9,13.9c-12,4-16,0-18-4 S198,224,198,224z" style="fill:#ff9b19"/><path d="M217.1,139.3c-1.6-2.9-3.6-5.8-10.4-5.8c-9.2,0-11.2,11-9.5,14.6c-5.7-11.7-12.5-11.7-16.3-10.2 c-5,2-8.4,8.5-6.7,14.6c-3-1.3-7.1-3.6-10.8-3.4c-4.9,0.3-7.9,2.3-8.9,7.3c-2,10,15.2,28.7,34.1,40.1c0.5,0.3,1,0.4,1.5,0.4 c0.7,0,1.3-0.2,1.9-0.6c0,0,4.8-3.7,12.4-5.3c2.9-0.6,5.8-0.8,8.7-0.6c1.5,0.1,2.8-0.9,3.1-2.3 C217.1,184.3,224.5,152.5,217.1,139.3z M180.2,153.5c0.3-4.1,1.5-7.4,3-8c0.5-0.2,2.4-0.5,6.8,3.5c9.2,8.5,12.7,32.4,12.9,35.8 c0,0.1,0,0.3,0.1,0.4c-1.7,0.4-3.3,0.8-4.7,1.3C189.4,175.7,179.6,162.3,180.2,153.5z M190.1,190.4 c-17.8-11.3-27.5-27.8-25.8-32.4c0.3-0.8,0.7-1,1.1-1.2c2.2-0.8,6.8,1.1,9.3,2.7c0.1,0,0.1,0.1,0.2,0.1 c1.9,7.4,7.5,16.7,17.6,29.4C191.5,189.5,190.7,190,190.1,190.4z M210.9,184.4c-0.7,0-1.3,0-2,0.1c-0.1-1.3-0.9-7.8-2.8-15.4 c0-0.3,0-0.6-0.1-0.9c-2.2-7.5-4.5-21.1-1.3-25.5c0.6-0.8,1.2-1.1,2.3-1.2c1.5-0.1,2.7,0.4,3.6,1.6 C215.7,149.3,213.6,170.8,210.9,184.4z" style="fill:#ff9b19"/><ellipse cx="312.8" cy="533.5" rx="22.8" ry="20.5" transform="matrix(0.9592 -0.2828 0.2828 0.9592 -138.0945 110.2195)" style="fill:#324a58"/><path d="M168.5,94.5c0,0,5-40-12-34S168.5,94.5,168.5,94.5z" style="fill:#324a58"/></g><g><path d="M113.9,427.9c-36-11.7-75.9,11.7-89.1,52.3c-13.3,40.6,4.1,87.9,40,99.7s76-12.3,89.2-52.9 C167.2,486.4,149.8,439.6,113.9,427.9z M114,540c-9.3,0-29.5-3.9-35.4-27.4c-4.9-19.6-0.3-32.8,4.4-40.5 c5.2-8.4,11.5-12.1,11.8-12.3c1.2-0.7,2.7-0.3,3.4,0.9C100,464,77.5,475.2,86,509c2.7,10.6,8,19,17.7,23.1 c8,3.3,17.3,0.9,18.8,3.6C123.1,536.9,122,540,114,540z" style="fill:#ffe7e6"/><polygon points="110 436 129 441 129 411" style="fill:#2568ef"/><polygon points="61 462 77 439 57 411" style="fill:#2568ef"/><polygon points="42 487 37 514 1 497" style="fill:#2568ef"/><polygon points="59 541 69 569 40 585" style="fill:#2568ef"/><polygon points="112 564 134 549 137 585" style="fill:#2568ef"/><path d="M210.4,315.1c8.3-2.8,7.5-13.3,6.9-17.2l-11.7-0.6c-0.2,3.7-0.3,7.9-0.6,12.7c-0.1,1.8-0.3,3.8-0.5,6 C206.1,316.1,208.1,315.9,210.4,315.1z" style="fill:#ff564f"/><path d="M352.7,443.2c-3.3,0.5-11,2-15.2,6.2c-2.3,2.3-3,4.7-3.1,6.6c8.4-2.3,16.1-4.2,21-5.7L352.7,443.2z" style="fill:#ff564f"/><path d="M363,438c-2-3-7-6-20-6c-10.2,0-25.4,4.3-31.4,6.2c-3.6,3.1-7.8,6.3-12.5,9.5c-20.9,14-35.7,19.9-36.4,20.2 c-0.2,0.1-0.5,0.1-0.7,0.1c-0.8,0-1.5-0.5-1.9-1.3c-0.4-1,0.1-2.2,1.1-2.6c0.1-0.1,15.1-6.1,35.6-19.8 c13.1-8.7,21.9-18.3,26.5-24.1c1.6-3,3.2-6.4,4.6-10.3c5.6-14.7-1.5-21.5-6.3-24.3c-5,12-13.4,25.2-27.5,35.9 c-24.4,18.4-42.7,25.9-43.5,26.3c-0.2,0.1-0.5,0.1-0.8,0.1c-0.8,0-1.5-0.5-1.9-1.2c-0.4-1,0.1-2.2,1.1-2.6 c0.2-0.1,18.6-7.6,42.5-25.7c13.5-10.2,21.6-22.9,26.3-34.4c-0.1,0-0.1,0-0.1,0c5.9-25.9-5.6-31.5-12.1-32.7 c-0.4,8.9-4.2,20.2-16.4,34c-23.6,26.6-53.5,38.1-54.8,38.5c-0.2,0.1-0.5,0.1-0.7,0.1c-0.8,0-1.6-0.5-1.9-1.3 c-0.4-1,0.1-2.2,1.2-2.6c0.3-0.1,30.3-11.7,53.2-37.5c20.5-23.1,15.7-37.9,12.9-46.7c-0.1-0.3-0.2-0.6-0.3-1 c-11.6-24.3-51.1-32-51.1-32l9,30c24,5,15,24,1,36s-34,19-34,19s5-22,6-33s7-43,2-58s-13-17-20-16c-4.4,0.6-5.6,4.8-6.2,12.3 l13.3,0.7c0.9,0,1.6,0.7,1.8,1.5c1.5,6.5,1.5,19.7-9.3,23.4c-2.4,0.8-4.5,1.1-6.4,1.1c-0.4,0-0.9,0-1.3-0.1 c-1.3,9.3-3.6,20.6-6.5,31.8l12.8,2.3c1.1,0.2,1.8,1.2,1.6,2.3c-0.2,1-1,1.7-2,1.7c-0.1,0-0.2,0-0.4,0l-13.1-2.3 c-0.5,1.7-0.9,3.4-1.4,5.1l12.3,2.3c1.1,0.2,1.8,1.2,1.6,2.3c-0.2,1-1,1.6-2,1.6c-0.1,0-0.2,0-0.4,0l-12.7-2.4 c-2.2,7.1-4.5,13.8-6.9,19.4c-9,21-43,65-57,74s-41,17-41,17c-16,38,11,55,11,55c41-10,82-19,128-35c23-8,62-22,80-30 c6.8-3,14.7-5.6,22.2-7.8c-0.1-3,0.7-6.9,4.3-10.6c6.4-6.4,18.7-7.5,19.2-7.6c0.9-0.1,1.7,0.5,2,1.3l3.2,8.7 C366,446,365,441,363,438z" style="fill:#ff564f"/></g></g></svg>