<svg xmlns="http://www.w3.org/2000/svg" xmlns:xlink="http://www.w3.org/1999/xlink" id="Layer_1" x="0" y="0" version="1.1" viewBox="0 0 600 827.7" xml:space="preserve" style="enable-background:new 0 0 600 827.7"><g><g style="display:none"><g style="display:inline"><g><defs><rect id="SVGID_1_" width="1790.5" height="1790.5" x="-617.5" y="-382.3"/></defs><clipPath id="SVGID_2_"><use xlink:href="#SVGID_1_" style="overflow:visible"/></clipPath></g></g></g></g><g id="Layer_3"><g><g><path d="M191.3,84.5c-7.9-2.8-15.7-5.2-21.1-6.7c-0.5,1.1-1,1.6-1,1.6c-1.2,4.3,30.3,13.6,34.6,14 c2,0.1,2.3-1.1,3.3-2.8C203.2,89.1,197.9,86.9,191.3,84.5z" style="fill:#2568ef"/><path d="M241.8,76.8c-25.7-12.4-70.7-27.6-96.3-33.8c-14.1-3.4-16.9-0.5-14,3.9c3.9,5.8,23.3,3.9,36.1,20.2 c2.2,2.8,3,5.3,3.2,7.2c5.6,1.6,13.5,4.1,20.2,6.4c7.5,2.7,14,5.2,18.5,7c2.3-1.9,6.4-3.8,14.5-4.7c17.1-1.9,30.3,14.9,38.5,8.6 C265.9,88.8,260.3,85.7,241.8,76.8z" style="fill:#2568ef"/></g><path d="M55.4,797.1l131-0.6l131-0.5l65.5-0.3l32.7-0.1l32.7,0.1l32.7,0.2l32.7,0.3l32.7,0.4l16.4,0.2l8.2,0.1 l8.2,0.2c0.1,0,0.1,0.1,0.1,0.2c0,0.1-0.1,0.1-0.1,0.1l-8.2,0.2l-8.2,0.1l-16.4,0.2l-32.7,0.4l-32.7,0.3l-32.7,0.2l-32.7,0.1 l-32.7-0.1l-65.5-0.3l-131-0.5l-131-0.6c-0.1,0-0.1-0.1-0.1-0.1C55.2,797.2,55.3,797.1,55.4,797.1z" style="fill:#324a58"/><g><g><path d="M138.8,236.3L138.8,236.3c-3.1-0.2-6-2-8.5-5.5c-6.3-8.7-7.6-14.1-7.6-14.2c-0.1-0.4-0.4-0.6-0.8-0.6 c-0.4,0-0.7,0.4-0.7,0.7c0,0.1-0.5,8.3-4.7,11.4c-1.5,1.2-3.4,1.4-5.6,0.9c-9.9-2.4-16.5-19.7-16.6-19.9 c-0.1-0.3-0.5-0.5-0.8-0.5c-0.4,0-0.6,0.3-0.7,0.6c0,0.1-1.5,7.8-7.4,11.6c-2.8,1.8-6.2,2.4-10.1,1.9 c-0.2-12.6,0.4-21.4,0.5-25.4l67.3,14.6c0,0,1.4,9.6,1.4,22.9C143,235.7,141,236.4,138.8,236.3z" style="fill:#2568ef"/><path d="M156.4,248.1c-4.1-1.4-8.4-1.1-12.3,0.5c-0.1,1.7-0.3,3.5-0.5,5.2L76,237.7c-0.3-4.6-0.5-8.8-0.6-12.7 c4.1,0.6,7.8-0.1,10.9-2.1c4.4-2.8,6.5-6.8,7.4-9.6c0.8,1.8,2.1,3.7,3.9,6.5c4.1,6.5,8.4,11.2,12.9,12.3c2.6,0.6,5-0.5,6.9-2 c2.9-2.2,4.3-6.3,4.9-9.3c1.1,2.5,3.1,6.5,6.8,11.6c2.8,3.9,6.1,5.9,9.6,6.1l0,0c2.2,0.1,4.2-0.5,5.9-1.3c0,1.7-0.1,3.5-0.1,5.3 c5-2.2,10.6-2.6,15.7-0.9c11.8,4,16.9,18.2,12.3,31.7c-4.6,13.5-19.5,22.7-31.3,18.7c-2.3-0.8-4.4-2.1-6.1-3.6 c-4.7,13.8-7,16.7-7,16.7s-18.3,2.7-37.3-0.8c0,0-10.7-26.3-13.7-53.5c-0.1-0.7-0.1-1.4-0.2-2.1L142,264c-0.6,2.8-1.2,5.6-2,8.3 c-1.1,3.6-2,6.9-2.9,9.8c1.5,1.4,3.2,2.5,5.2,3.2c9.3,3.2,20.8-3.5,24.2-13.5C169.9,261.9,165.7,251.3,156.4,248.1z" style="fill:#2568ef"/></g><path d="M170.1,301c0,0-22.7,10-63.1,8.8c-40.4-1.2-65.1-8.7-65.1-8.7s9.7,19.6,26.7,22.3l71.9-0.1 C140.5,323.3,161.2,321.4,170.1,301z" style="fill:#2568ef"/><path d="M76.3,242.2l66.8,15.3c-0.2,1.4-0.4,2.7-0.6,4.1l-65.8-15.6C76.5,244.7,76.4,243.5,76.3,242.2z" style="fill:#2568ef"/></g><g><g><path d="M94.6,532.5L94.6,532.5c3.1-0.1,6-1.9,8.6-5.3c6.5-8.5,7.9-14,7.9-14c0.1-0.4,0.5-0.6,0.8-0.6 c0.4,0,0.7,0.4,0.7,0.7c0,0.1,0.4,8.3,4.5,11.5c1.5,1.2,3.3,1.5,5.6,1c9.9-2.2,16.9-19.4,17-19.6c0.1-0.3,0.5-0.5,0.8-0.5 s0.6,0.3,0.7,0.6c0,0.1,1.4,7.8,7.1,11.7c2.8,1.9,6.1,2.6,10,2.1c0.5-12.5,0-21.4,0-25.4l-67.6,13.2c0,0-1.6,9.6-1.9,22.9 C90.4,531.8,92.4,532.5,94.6,532.5z" style="fill:#2568ef"/><path d="M76.7,543.9c4.1-1.3,8.4-0.9,12.3,0.7c0.1,1.7,0.2,3.5,0.4,5.2l67.9-14.7c0.4-4.6,0.7-8.8,0.8-12.7 c-4.2,0.5-7.8-0.3-10.8-2.3c-4.3-2.9-6.3-6.9-7.2-9.7c-0.8,1.8-2.2,3.6-4,6.4c-4.2,6.5-8.7,11-13.2,12c-2.7,0.6-5-0.6-6.8-2.1 c-2.9-2.2-4.1-6.5-4.7-9.4c-1.1,2.5-3.2,6.5-7,11.5c-2.9,3.8-6.2,5.8-9.7,5.9l0,0c-2.2,0.1-4.2-0.6-5.9-1.4c0,1.7,0,3.5,0,5.3 c-5-2.3-10.5-2.8-15.7-1.2c-11.9,3.8-17.3,17.9-13,31.5s19,23.1,31,19.3c2.3-0.7,4.4-2,6.2-3.5c4.4,13.9,6.6,16.8,6.6,16.8 s18.3,3.1,37.3,0c0,0,11.3-26,14.8-53.2c0.1-0.7,0.2-1.4,0.2-2.1l-65.3,14c0.5,2.8,1.1,5.6,1.8,8.4c1,3.7,1.9,6.9,2.7,9.9 c-1.5,1.3-3.3,2.4-5.3,3.1c-9.4,3-20.8-3.9-23.9-14C63,557.4,67.4,546.9,76.7,543.9z" style="fill:#2568ef"/></g><path d="M62,596.5c0,0,22.5,10.5,62.9,10.1c40.4-0.4,65.2-7.4,65.2-7.4s-10.1,19.4-27.2,21.7l-71.9-1.5 C91.1,619.4,70.5,617.1,62,596.5z" style="fill:#2568ef"/><path d="M156.9,539.7l-67.1,13.8c0.2,1.4,0.4,2.7,0.6,4.1l66.2-14.3C156.7,542.1,156.8,540.9,156.9,539.7z" style="fill:#2568ef"/></g><g><path d="M65.1,507.9l117.3-26.4c0,0,4.7,10.1-53.2,22.2C71.3,515.7,64.7,514.2,65.1,507.9z" style="fill:#ff9b19"/><path d="M101.2,487c-0.8,5-2.3,10.1-2.3,10.1l28.4-5.8c0,0-1.9-3.1-2.9-6.6L101.2,487z" style="fill:#ff9b19"/><path d="M160.2,444.6c0.1-1.2,0.2-2.4,0.3-3.6c0.7,0.3,1.4,0.5,2.2,0.5c2.4,0,4.4-1.5,5.2-3.6l-122.1,7.7 c-0.2,3.9-0.1,6.9,0.3,10.5l113.2-5.2C159.8,449,160,446.9,160.2,444.6z" style="fill:#ff9b19"/><path d="M188.5,441.4c0.5,1.1,0.8,2.2,1.1,3.5l6-1.6c-0.4-2-1-3.7-1.9-5.3L188.5,441.4z" style="fill:#ff9b19"/><path d="M189.8,448.5c-0.1,1.4-0.4,2.7-0.8,4l5,2.2c1.1-2.5,1.8-5,1.9-7.6L189.8,448.5z" style="fill:#ff9b19"/><path d="M192.6,457.4l-4.6-2.7c-0.3,0.6-0.7,1.3-1.1,1.9l4,3.4C191.5,459.1,192.1,458.3,192.6,457.4z" style="fill:#ff9b19"/><path d="M185.6,458.2c-3.5,4.1-8.8,7-14.2,7.6c-4.7,0.6-11.5,1.1-16.5-1.3c1.6-2.6,2.9-5.3,3.9-9.7L46.9,460 c0.5,1.9,1.1,3.7,1.8,5.3c7.4,14.8,19,14.4,32.6,13.2c13.6-1.2,20.6-0.4,20.2,5.4c0,0.2,0,0.5-0.1,0.7l22.3-2.2 c-0.6-4.1,0.6-8.2,7.3-8.5c8.4-0.5,16.3-0.2,21.8-6.5c6,4,14.7,4.5,20.5,3.8c6.1-0.8,12-4.5,16.3-9.6L185.6,458.2z" style="fill:#ff9b19"/><g><path d="M50.9,434.8c4.1,0.1,8.7-3.5,13.3-10.5c0.2-0.4,0.7-0.5,1.1-0.4c0.4,0.1,0.7,0.5,0.7,0.9 c0,0.1,0.2,7,3.7,9.9c1.2,1.1,2.7,1.5,4.5,1.2c8.1-1.1,10.8-12.3,10.8-12.4c0.1-0.5,0.6-0.8,1.1-0.7c0.5,0.1,0.9,0.5,0.9,0.9 c0,0.1,0,7.8,3.7,11c1.2,1.1,2.7,1.5,4.6,1.3c8.5-1.1,10.8-14.6,10.8-14.7c0.1-0.5,0.6-0.9,1.1-0.8c0.5,0.1,0.9,0.5,0.9,1 c0,0.1-0.4,7.7,2.8,10.8c0.9,1,2.1,1.4,3.6,1.3c7.4-0.4,11.9-13.6,12-13.7c0.1-0.5,0.6-0.7,1.1-0.7c0.5,0.1,0.8,0.5,0.8,0.9 c0,0.1,0,7.8,3.3,10.6c0.9,0.8,2,1.1,3.4,0.9c7.1-1.1,11.6-14.4,11.6-14.5c0.1-0.4,0.5-0.6,0.9-0.7c0.4,0,0.8,0.2,0.9,0.6 c0,0.1,4.8,9.9,10.4,10.8c0.9,0.1,1.8,0,2.7-0.4c0.5-14.2-1.1-16.7-1.1-16.7l-109.9,6.2c0,0-2,7.1-3.3,16.4 C48.1,434.2,49.4,434.7,50.9,434.8z" style="fill:#ff9b19"/><path d="M165.5,431c-0.8-0.5-4.2-1.1-4.2-1.4c-0.9,0.3-1.9,0.4-2.9,0.2c-4.9-0.8-9-6.8-10.8-10 c-1.7,4.1-6,12.8-12.4,13.8c-1.9,0.3-3.5-0.2-4.9-1.3c-2.2-1.9-3.2-5.3-3.6-8c-2.1,4.4-6.2,11-12.2,11.3c-2,0.1-3.7-0.6-5.1-1.9 c-1.7-1.7-2.5-4.2-2.9-6.6c-0.2,0.7-0.5,1.4-0.9,2.1c-2.4,5.2-5.9,8.2-10.1,8.8c-2.4,0.3-4.5-0.3-6.1-1.8c-2.3-2-3.4-5.3-3.9-8 c-0.3,0.7-0.7,1.5-1.1,2.2c-2.5,4.4-5.9,7-9.9,7.5c-0.4,0.1-0.8,0.1-1.2,0.1c-1.9,0-3.5-0.6-4.8-1.8c-2.6-2.2-3.6-6.1-4.1-8.7 c-4.6,6.2-9.1,9.4-13.5,9.2c-1.6,0-3-0.5-4.2-1.2c-0.3,2.2-0.5,4.5-0.7,6.8l122.4-6.8c0-0.7-0.2-1.4-0.5-2.1 c7.8-1.4,15.7,0.3,19.5,6l5.3-2.9C187.4,429.3,175.9,428,165.5,431z" style="fill:#ff9b19"/></g></g><g><path d="M169.2,208.4L51.9,182c0,0-4.7,10.1,53.2,22.2C163,216.3,169.6,214.7,169.2,208.4z" style="fill:#ff9b19"/><path d="M133,187.5c0.8,5,2.3,10.1,2.3,10.1l-28.4-5.8c0,0,1.9-3.1,2.9-6.6L133,187.5z" style="fill:#ff9b19"/><path d="M74,145.1c-0.1-1.2-0.2-2.4-0.3-3.6c-0.7,0.3-1.4,0.5-2.2,0.5c-2.4,0-4.4-1.5-5.2-3.6l122.1,7.7 c0.2,3.9,0.1,6.9-0.3,10.5l-113.2-5.2C74.5,149.5,74.2,147.4,74,145.1z" style="fill:#ff9b19"/><path d="M45.8,141.9c-0.5,1.1-0.8,2.2-1.1,3.5l-6-1.6c0.4-2,1-3.7,1.9-5.3L45.8,141.9z" style="fill:#ff9b19"/><path d="M44.5,149c0.1,1.4,0.4,2.7,0.8,4l-5,2.2c-1.1-2.5-1.8-5-1.9-7.6L44.5,149z" style="fill:#ff9b19"/><path d="M41.7,157.9l4.6-2.7c0.3,0.6,0.7,1.3,1.1,1.9l-4,3.4C42.8,159.7,42.2,158.8,41.7,157.9z" style="fill:#ff9b19"/><path d="M48.7,158.7c3.5,4.1,8.8,7,14.2,7.6c4.7,0.6,11.5,1.1,16.5-1.3c-1.6-2.6-2.9-5.3-3.9-9.7l111.9,5.2 c-0.5,1.9-1.1,3.7-1.8,5.3c-7.4,14.8-19,14.4-32.6,13.2s-20.6-0.4-20.2,5.4c0,0.2,0,0.5,0.1,0.7l-22.3-2.2 c0.6-4.1-0.6-8.2-7.3-8.5c-8.4-0.5-16.3-0.2-21.8-6.5c-6,4-14.7,4.5-20.5,3.8c-6.1-0.8-12-4.5-16.3-9.6L48.7,158.7z" style="fill:#ff9b19"/><g><path d="M183.3,135.3c-4.1,0.1-8.7-3.5-13.3-10.5c-0.2-0.4-0.7-0.5-1.1-0.4c-0.4,0.1-0.7,0.5-0.7,0.9 c0,0.1-0.2,7-3.7,9.9c-1.2,1.1-2.7,1.5-4.5,1.2c-8.1-1.1-10.8-12.3-10.8-12.4c-0.1-0.5-0.6-0.8-1.1-0.7 c-0.5,0.1-0.9,0.5-0.9,0.9c0,0.1,0,7.8-3.7,11c-1.2,1.1-2.7,1.5-4.6,1.3c-8.5-1.1-10.8-14.6-10.8-14.7c-0.1-0.5-0.6-0.9-1.1-0.8 c-0.5,0.1-0.9,0.5-0.9,1c0,0.1,0.4,7.7-2.8,10.8c-0.9,1-2.1,1.4-3.6,1.3c-7.4-0.4-11.9-13.6-12-13.7c-0.1-0.5-0.6-0.7-1.1-0.7 c-0.5,0.1-0.8,0.5-0.8,0.9c0,0.1,0,7.8-3.3,10.6c-0.9,0.8-2,1.1-3.4,0.9c-7.1-1.1-11.6-14.4-11.6-14.5c-0.1-0.4-0.5-0.6-0.9-0.7 c-0.4,0-0.8,0.2-0.9,0.6c0,0.1-4.8,9.9-10.4,10.8c-0.9,0.1-1.8,0-2.7-0.4c-0.5-14.2,1.1-16.7,1.1-16.7l109.9,6.2 c0,0,2,7.1,3.3,16.4C186.2,134.7,184.9,135.3,183.3,135.3z" style="fill:#ff9b19"/><path d="M68.7,131.5c0.8-0.5,4.2-1.1,4.2-1.4c0.9,0.3,1.9,0.4,2.9,0.2c4.9-0.8,9-6.8,10.8-10 c1.7,4.1,6,12.8,12.4,13.8c1.9,0.3,3.5-0.2,4.9-1.3c2.2-1.9,3.2-5.3,3.6-8c2.1,4.4,6.2,11,12.2,11.3c2,0.1,3.7-0.6,5.1-1.9 c1.7-1.7,2.5-4.2,2.9-6.6c0.2,0.7,0.5,1.4,0.9,2.1c2.4,5.2,5.9,8.2,10.1,8.8c2.4,0.3,4.5-0.3,6.1-1.8c2.3-2,3.4-5.3,3.9-8 c0.3,0.7,0.7,1.5,1.1,2.2c2.5,4.4,5.9,7,9.9,7.5c0.4,0.1,0.8,0.1,1.2,0.1c1.9,0,3.5-0.6,4.8-1.8c2.6-2.2,3.6-6.1,4.1-8.7 c4.6,6.2,9.1,9.4,13.5,9.2c1.6,0,3-0.5,4.2-1.2c0.3,2.2,0.5,4.5,0.7,6.8l-122.4-6.8c0-0.7,0.2-1.4,0.5-2.1 c-7.8-1.4-15.7,0.3-19.5,6l-5.3-2.9C46.9,129.8,58.3,128.5,68.7,131.5z" style="fill:#ff9b19"/></g></g><g><g><path d="M122.6,628.3c15.9,0.3,37.3,6.6,44.7,10c0.8-1.1,1.6-2.2,2.3-3.2c-7.2-3.3-25.4-10.3-51.7-10.3 c-20.4,0-35.4,5.1-42.3,8.1c0.7,1.1,1.4,2.1,2.1,3.3C88.5,631.4,99.3,628,122.6,628.3z" style="fill:#ff564f"/><path d="M172.2,631.7c2.6-3.5,4.4-5.6,4.4-5.6s-23.3-15.9-55.5-15.5c-32.2,0.4-52.4,12.8-52.4,12.8s2.1,2.5,4.9,6.5 c5.5-3.2,19.2-8.8,46.7-8.8C145.2,620.9,164.5,628.2,172.2,631.7z" style="fill:#ff564f"/><path d="M173.3,641.1c-3.1,0-6,0.4-8.8,1.1c0.4-0.6,0.8-1.1,1.2-1.6c-15.9-6-28.4-9.5-53.2-9.1 c-18.1,0.3-28.6,4.6-33.2,7.1c3.1,5.2,6.2,11.2,8.4,17.4c5.8,16.7,9.7,32.3,9.7,32.3l45.4,4.7c0,0,1.3-8.3,4.5-18.2 c4.9,7.4,14.7,12.4,26,12.4c16.2,0,29.3-10.3,29.3-22.9C202.6,651.4,189.4,641.1,173.3,641.1z M169.6,681.2 c-9.5,0-17.6-4-21.2-9.9c1.7-4.8,3.8-9.7,6.5-14.2c1.5-2.6,3.2-5.2,4.8-7.7c3-1,6.4-1.6,9.9-1.6c12.9,0,23.3,7.5,23.3,16.7 C192.9,673.7,182.4,681.2,169.6,681.2z" style="fill:#ff564f"/></g><path d="M56.2,687l129.3,15.5c0,0-21.5,17.8-75,12.4C68.2,710.7,56.2,687,56.2,687z" style="fill:#ff564f"/></g><g><g><path d="M110.9,330.4c-15.9,0.3-37.3,6.6-44.7,10c-0.8-1.1-1.6-2.2-2.3-3.2c7.2-3.3,25.4-10.3,51.7-10.3 c20.4,0,35.4,5.1,42.3,8.1c-0.7,1.1-1.4,2.1-2.1,3.3C145,333.5,134.2,330,110.9,330.4z" style="fill:#ff564f"/><path d="M61.3,333.7c-2.6-3.5-4.4-5.6-4.4-5.6s23.3-15.9,55.5-15.5c32.3,0.4,52.4,12.8,52.4,12.8s-2.1,2.5-4.9,6.5 c-5.5-3.2-19.2-8.8-46.7-8.8C88.3,323,69,330.3,61.3,333.7z" style="fill:#ff564f"/><path d="M30.9,366.1c0,12.7,13.1,22.9,29.3,22.9c11.3,0,21.2-5,26-12.4c3.2,9.9,4.5,18.2,4.5,18.2l45.4-4.7 c0,0,3.9-15.5,9.7-32.3c2.1-6.1,5.3-12.2,8.4-17.4c-4.7-2.5-15.2-6.8-33.2-7.1c-24.8-0.4-37.3,3.1-53.2,9.1 c0.4,0.5,0.8,1.1,1.2,1.6c-2.8-0.7-5.7-1.1-8.8-1.1C44,343.2,30.9,353.5,30.9,366.1z M40.6,366.5c0-9.2,10.4-16.7,23.3-16.7 c3.5,0,6.9,0.6,9.9,1.6c1.7,2.6,3.3,5.2,4.8,7.7c2.7,4.5,4.8,9.5,6.5,14.2c-3.6,5.8-11.8,9.9-21.2,9.9 C51,383.2,40.6,375.8,40.6,366.5z" style="fill:#ff564f"/></g><path d="M177.4,389.1L48,404.6c0,0,21.5,17.8,75,12.4C165.3,412.8,177.4,389.1,177.4,389.1z" style="fill:#ff564f"/></g><g><path d="M378,618.4c0,0,17.5-8.6,22.5-4.3c5,4.3,22.2,28,33,61c10.9,33,24.1,73.4,25.6,97.9 c1.5,24.5-8.6-3.9-8.6-3.9s-5.8-28-26.4-73.4C403.6,650.3,378,618.4,378,618.4z" style="fill:#ff564f"/><path d="M416.6,601.5c0,0,12.4-13.2,19.4-9.3s26,26.8,30.7,36.5c0,0,40.8-25.6,85.4,3.1l-2.7,3.9 c0,0-37.3-14.8-77.3,11.6c-4.1,2.7-7,6.2-17.9-3.5C444,634.7,424.4,614.4,416.6,601.5z" style="fill:#ff564f"/><path d="M542.8,639.6l5.8-15.1c0,0,13.6,1.2,20.6,4.3v3.5h-12c0,0,14.4,8.6,15.9,28L542.8,639.6z" style="fill:#324a58"/><path d="M448.1,766.2l15.1,5.8c0,0,2.7,19,1.9,23.7h-3.9l-4.7-12c0,0-10.5,7-19,10.1c-8.6,3.1-25.2,2.7-25.2,2.7 L448.1,766.2z" style="fill:#324a58"/><path d="M473.7,503.6c0,0,10.9-6.2,14-12c0,0,9.3,20.2,11.3,22.5c1.9,2.3,6.2,7.4,10.9,8.9s19,6.2,28.7,18.3 c9.7,12,11.3,14.8,13.6,18.3c2.3,3.5,5.8,10.5,3.5,12c-2.3,1.5-4.3-0.4-6.6-3.5c-2.3-3.1-9.3-11.3-9.3-11.3s1.9,5.4,2.3,9.3 c0.4,3.9,3.7,19.2-0.8,23.3c-5.4,5-5.8-9.3-5.8-9.3s-1.2-12-4.3-15.5c0,0,1.2,9.3,1.2,18.7c0,8.2-0.5,15.9-3.9,18.7 c-1.9,1.5-5,0-5,0s-1.2,7-5.8,7c-3.1,0-3.9-5-3.9-13.2c0-8.2-0.4-14.4-2.7-22.2c-2.3-7.8-7.8-16.3-7.8-16.3s-3.5,8.9-5,15.9 c-1.3,5.7-0.8,12-1.2,14.8c-0.4,2.7,0,5.8-2.7,7c-2.7,1.2-7.8-0.4-8.9-16.7c-1.2-16.3,1.5-20.6,1.9-26.4c0.4-5.8,0.4-19-3.1-26 C480.7,518.8,473.7,503.6,473.7,503.6z" style="fill:#ff564f"/><g><path d="M521.5,610.5c-0.1,0-0.2,0-0.4-0.1c-0.4-0.2-0.5-0.7-0.4-1.1l0,0c0-0.1,3.1-6.2,3.4-18 c0.4-12-1.2-19.4-2.7-25.4c-1.5-6.1-4.6-14.2-4.6-14.3c-0.1-0.4,0-0.8,0.5-1c0.4-0.1,0.8,0,1,0.5c0,0.1,3.2,8.3,4.7,14.4 c1.5,6.1,3.1,13.7,2.7,25.8c-0.4,12.1-3.4,18.3-3.6,18.6C522.1,610.3,521.8,610.5,521.5,610.5z" style="fill:#fff"/></g><g><path d="M532.7,570.1c-0.4,0-0.7-0.3-0.8-0.7c-1.5-14.4-6.4-21.3-6.5-21.4c-0.2-0.4-0.2-0.8,0.2-1.1 c0.4-0.2,0.8-0.2,1.1,0.2c0.2,0.3,5.2,7.3,6.7,22.1C533.6,569.6,533.2,570,532.7,570.1C532.8,570.1,532.8,570.1,532.7,570.1z" style="fill:#fff"/></g><g><path d="M542.1,562.3c-0.4,0-0.7-0.2-0.7-0.6c-2.3-8.3-9.1-17.1-9.2-17.2c-0.3-0.4-0.2-0.8,0.1-1.1 c0.4-0.3,0.8-0.2,1.1,0.1c0.3,0.4,7.1,9.2,9.5,17.7c0.1,0.4-0.1,0.8-0.6,0.9C542.2,562.3,542.1,562.3,542.1,562.3z" style="fill:#fff"/></g><g><path d="M492,567c-0.1,0-0.1,0-0.2,0c-2.6-0.7-8.7-0.7-8.7-0.7c-0.4,0-0.8-0.4-0.8-0.8c0-0.4,0.4-0.8,0.8-0.8 c0.2,0,6.3,0,9.2,0.8c0.4,0.1,0.7,0.6,0.5,0.9C492.6,566.7,492.3,567,492,567z" style="fill:#fff"/></g><g><path d="M486.5,593.4c-0.3,0-0.6-0.2-0.7-0.6c-0.1-0.4,0.1-0.8,0.5-1l4.6-1.4c0.2-0.7,0.5-2.5,0.2-4.7 c-0.1-0.5-0.3-0.9-0.7-1.2c-1.5-0.9-4.9-0.1-6.1,0.2c-0.4,0.1-0.8-0.1-1-0.5c-0.1-0.4,0.1-0.8,0.5-1c0.5-0.2,5-1.6,7.4-0.1 c0.8,0.5,1.3,1.3,1.4,2.2c0.4,3.3-0.4,5.7-0.4,5.8c-0.1,0.2-0.3,0.4-0.5,0.5l-5,1.5C486.7,593.4,486.6,593.4,486.5,593.4z" style="fill:#fff"/></g><path d="M258.5,65.1c0,0-20.6,2.3-23.7,3.9c-3.1,1.6-4.3,5.4-1.9,7.4c2.3,1.9,6.6,3.5,14.8,2.7s15.9-2.7,17.9,7.8 c1.9,10.5,1.2,28.4,6.6,36.5c0,0-14.4-7.4-17.9-12c-3.5-4.7-9.7-13.6-12-20.2s-5.8-13.6-11.6-12.4c-5.8,1.2-5.4,10.9-3.5,16.7 c1.9,5.8,11.6,30.3,21.7,39.6s26,26,30.3,39.2c4.3,13.2,6.6,30.7,3.1,54c0,0,19-10.1,24.5-10.1c0,0,5-48.9,2.3-81.2 c-2.7-32.3-7-36.9-7-57.1s2.7-31.4-2.7-31.4c-5.5,0-6.2,7-7,12.8c-0.8,5.8-0.8,19-0.8,19s-4.3-17.5-15.9-19.4 c0,0,6.2,6.6,9.3,16.7c3.1,10.1,6.2,17.1,4.3,17.5c-1.9,0.4-3.1-8.6-7.8-19s-5-15.9-22.9-25.6s-24.9-9.7-28-8.9s-5.8,6.6,0,10.5 c5.8,3.9,23.3,11.6,23.3,11.6s7.4-1.9,12,0.4c4.7,2.3,9.7,8.2,12,17.5s5.6,17.6,6.2,19c0.8,1.9-1.5,2.7-2.3,0.8 c-1.1-2.7-4.3-12-5.4-17.1c-1.2-5-5-13.7-10.1-17.1C262.8,64.7,258.5,65.1,258.5,65.1z" style="fill:#ff564f"/><g><path d="M230.3,102.1c-1.8,0-3.2-0.9-3.3-0.9c-0.4-0.2-0.5-0.7-0.2-1.1c0.2-0.4,0.7-0.5,1.1-0.2 c0,0,1.9,1.2,3.6,0.5c1.3-0.5,2.3-1.8,3-4c1.8-5.6-0.3-9.1-1.1-10.1l-9.2,2.9c-0.4,0.1-0.8-0.1-1-0.5c-0.1-0.4,0.1-0.8,0.5-1 l9.7-3.1c0.3-0.1,0.6,0,0.8,0.2s4.2,4.3,1.8,12.1c-0.8,2.7-2.2,4.3-4,5C231.4,102,230.9,102.1,230.3,102.1z" style="fill:#fff"/></g><g><path d="M241.1,119.9c-0.2,0-0.5-0.1-0.6-0.3c-0.2-0.4-0.2-0.8,0.1-1.1l6.2-4.7c0.4-0.2,0.8-0.2,1.1,0.1 c0.2,0.4,0.2,0.8-0.1,1.1l-6.2,4.7C241.4,119.8,241.2,119.9,241.1,119.9z" style="fill:#fff"/></g><g><path d="M246.5,123.4c-0.2,0-0.4-0.1-0.6-0.2c-0.3-0.3-0.3-0.8,0-1.1c0.2-0.2,1.5-1.9,2.6-3.4 c0.2-0.4,0.7-0.4,1.1-0.1c0.4,0.2,0.4,0.7,0.1,1.1c-0.4,0.5-2.4,3.2-2.8,3.6C246.9,123.3,246.7,123.4,246.5,123.4z" style="fill:#fff"/></g><g><path d="M237.7,74.4c-0.1,0-0.2,0-0.2,0c-0.3,0-0.5-0.2-0.7-0.4c-1.6-3.3-1.3-7.3-1.2-7.4c0-0.4,0.4-0.7,0.8-0.7 c0.4,0,0.7,0.4,0.7,0.8c0,0-0.3,3.4,0.9,6.1c1.1,0,4-0.3,5.5-2.1c1.1-1.2,1.4-2.9,1-5.1c-0.1-0.4,0.2-0.8,0.6-0.9 c0.4-0.1,0.8,0.2,0.9,0.6c0.5,2.7,0,4.8-1.3,6.4C242.5,74.3,238.7,74.4,237.7,74.4z" style="fill:#fff"/></g><g><path d="M237.9,50c-2.5,0-6.1-2-6.2-2c-0.2-0.1-0.4-0.4-0.4-0.7v-7c0-0.4,0.4-0.8,0.8-0.8c0.4,0,0.8,0.4,0.8,0.8 v6.5c0.9,0.5,3.4,1.6,5,1.6c2.1,0,3-0.3,4-2c1.1-1.8,1.4-5.5,1.4-5.5c0-0.4,0.4-0.7,0.8-0.7c0.4,0,0.7,0.4,0.7,0.8 c0,0.2-0.4,4.1-1.6,6.1C241.9,49.6,240.4,50,237.9,50z" style="fill:#fff"/></g><g><path d="M461,284c-0.3,0-0.6-0.1-0.7-0.4c-0.4-0.4-0.3-1,0.1-1.4l47.5-40.9l-37.1,18.6c-0.4,0.2-0.9,0.1-1.2-0.2 s-0.3-0.8,0-1.2l26-33.9L461.9,249c-0.4,0.3-0.9,0.2-1.3-0.1c-0.4-0.3-0.4-0.8-0.1-1.3l20.8-30.3l-44,37.4 c-0.4,0.4-1,0.3-1.4-0.1c-0.4-0.4-1.1-1.8-0.7-2.1l50.3-41.3c0.4-0.3,0.9-0.3,1.3,0c0.4,0.3,0.4,0.9,0.1,1.3l-21.8,31.6l34.5-25 c0.4-0.3,0.9-0.2,1.3,0.1c0.4,0.4,0.4,0.9,0.1,1.3l-27.5,35.8l40.4-20.2c0.5-0.2,1-0.1,1.2,0.3c0.3,0.4,0.2,0.9-0.2,1.3 l-52.7,46.9C462.3,284.7,461.3,284,461,284z" style="fill:#2568ef"/></g><g><path d="M524,234.7c-3.1,0-5.7-2.6-5.7-5.7c0-3.1,2.6-5.7,5.7-5.7c3.1,0,5.7,2.6,5.7,5.7 C529.7,232.1,527.1,234.7,524,234.7z M524,225.2c-2.1,0-3.7,1.7-3.7,3.8s1.7,3.8,3.7,3.8s3.7-1.7,3.7-3.8S526,225.2,524,225.2z" style="fill:#2568ef"/></g><g><path d="M509.7,217.2c-2.8,0-5.1-2.3-5.1-5.2c0-2.8,2.3-5.2,5.1-5.2s5.1,2.3,5.1,5.2 C514.8,214.9,512.5,217.2,509.7,217.2z M509.7,208.9c-1.8,0-3.2,1.4-3.2,3.2s1.4,3.2,3.2,3.2c1.8,0,3.2-1.4,3.2-3.2 C512.9,210.3,511.4,208.9,509.7,208.9z" style="fill:#2568ef"/></g><g><path d="M493.1,207.8c-3,0-5.5-2.5-5.5-5.5c0-3.1,2.5-5.5,5.5-5.5c3.1,0,5.5,2.5,5.5,5.5 C498.5,205.4,496.1,207.8,493.1,207.8z M493.1,198.7c-2,0-3.5,1.6-3.5,3.6s1.6,3.6,3.5,3.6c2,0,3.5-1.6,3.5-3.6 S495,198.7,493.1,198.7z" style="fill:#2568ef"/></g><ellipse cx="399.8" cy="575.3" rx="79.2" ry="43.6" transform="matrix(0.8942 -0.4477 0.4477 0.8942 -215.2671 239.8714)" style="fill:#ffe7e6"/><ellipse cx="466.2" cy="476.9" rx="36.1" ry="28" transform="matrix(0.5238 -0.8518 0.8518 0.5238 -184.2071 624.1854)" style="fill:#ffe7e6"/><ellipse cx="298.4" cy="249.2" rx="38.6" ry="32.3" transform="matrix(0.7318 -0.6815 0.6815 0.7318 -89.8385 270.1906)" style="fill:#ffe7e6"/><path d="M341.6,589.9c0,0,34.2,12.4,64.5-6.6c30.3-19,33-53.2,33-53.2s-19-11.3-33.8-33.4 c-14.8-22.2-19-30.3-21.4-39.2l-51.3,22.9c0,0-4.3,26.8-1.9,58.3C333.1,570.1,341.6,589.9,341.6,589.9z" style="fill:#2568ef"/><path d="M391,451.2c0,0,17.7,0.2,35.3,7c20.2,7.8,23.5,17,25.2,20.2c1.9,3.5,10.5,3.5,15.5-9.3 c5-12.8-14-27.6-33.4-35.3c-21.4-8.6-45.1-6.6-45.1-6.6L391,451.2z" style="fill:#2568ef"/><path d="M286.5,262c0,0,2.7-6.6,11.6-7.8c8.9-1.2,11.6,3.9,11.6,3.9s6.2,45.4,13.6,73.8c7,26.9,31.1,74.2,31.1,74.2 l-28.7,18.3c0,0-20.6-38.1-29.5-81.2C287.3,300.1,286.5,262,286.5,262z" style="fill:#2568ef"/><polygon points="257.7 238 273.3 242.6 271.7 254.3" style="fill:#2568ef"/><polygon points="291.5 238 302.4 222.8 303.2 240.3" style="fill:#2568ef"/><polygon points="314.9 228.2 320.3 238.7 333.9 220.9" style="fill:#2568ef"/><polygon points="324.1 250 320.3 262.4 333.9 266.7" style="fill:#2568ef"/><path d="M276,269.1l5,7.8c0,0-13.2,4.3-13.2,3.5C267.8,279.5,276,269.1,276,269.1z" style="fill:#2568ef"/><ellipse cx="354.6" cy="441.4" rx="52.7" ry="42.3" transform="matrix(0.784 -0.6207 0.6207 0.784 -197.3855 315.4159)" style="fill:#ffe7e6"/><polygon points="377.4 404.2 387.1 411.2 392.1 393.3" style="fill:#2568ef"/><polygon points="383.2 427.5 393.3 440.4 382 448.9" style="fill:#2568ef"/><polygon points="352.5 468.3 357.2 455.1 368 475.3" style="fill:#2568ef"/><polygon points="322.2 463.6 330 473.7 312.5 478.4" style="fill:#2568ef"/><polygon points="308.2 424.8 330 423.6 325.7 439.5" style="fill:#2568ef"/><polygon points="471.8 448.5 481.1 455.5 485.3 438" style="fill:#2568ef"/><polygon points="482.3 480 487.3 470.3 502.8 480" style="fill:#2568ef"/><polygon points="456.2 497.4 468.7 495.5 462.5 513.8" style="fill:#2568ef"/><polygon points="430.8 489.6 443 488.6 441.4 478" style="fill:#2568ef"/><polygon points="437.2 523.9 443 526.6 443.8 516.9" style="fill:#2568ef"/><polygon points="451.2 538.2 458.9 546.8 461.3 525" style="fill:#2568ef"/><polygon points="453.9 575.1 452.7 565.4 465.5 564.6" style="fill:#2568ef"/><polygon points="421.3 599.2 420.9 586.4 438.4 584.1" style="fill:#2568ef"/><polygon points="386.3 618.6 383.6 598.8 396 600.4" style="fill:#2568ef"/><polygon points="342.4 626.4 362.6 617.5 352.5 608.5" style="fill:#2568ef"/><polygon points="321.2 589.5 337.4 586.8 332.7 597.7" style="fill:#2568ef"/><path d="M454,433.8c-3.4-12.8-0.4-36.5-0.4-36.8c0-0.4-0.1-0.8-0.4-1.1c-5.2-5.5-12.8-9-22.1-10.1 c-6.9-0.8-12.3-0.1-12.6,0c-0.2,0-0.3,0.1-0.5,0.2c-10.3-9.1-11.6-28.2-11.6-28.4c0-0.5-0.5-0.9-1-0.9c-0.5,0-0.9,0.5-0.9,1 c0,0.2,0.3,5.2,2,11.5c1.6,5.8,4.7,13.7,10.7,18.7l-5.3,33.3c-0.1,0.4,0,0.8,0.3,1.1c0.2,0.3,0.6,0.5,1,0.5 c18.8,0.7,38.4,12.5,38.6,12.6c0.2,0.1,0.5,0.2,0.7,0.2c0.3,0,0.6-0.1,0.8-0.3C454,434.9,454.2,434.3,454,433.8z M436.1,389.5 C436.1,389.5,436.1,389.5,436.1,389.5c-0.1,0.3-2.3,5.7-3.3,14.3c-7.7-2.2-13-1.8-14.9-1.6l2.2-13.8 C422.5,388.2,429.1,387.8,436.1,389.5z M417.6,403.8c0.8-0.1,6.3-0.9,15,1.5c0,0.4-0.1,0.8-0.1,1.2c-0.8,10-0.4,16.8-0.4,16.8 c0,0.1,0,0.1,0,0.2c-5.3-1.7-11.2-3.1-17.1-3.5L417.6,403.8z M433.4,423.9c0.2-0.1,0.4-0.4,0.3-0.7c0-0.1-0.4-6.7,0.4-16.6 c0-0.3,0-0.5,0.1-0.8c4.3,1.4,9.2,3.5,14.7,6.8c0.1,0.1,0.8,0.7,1,0.7c0.2,0,0,13.2,0.9,18.1C447.3,429.6,441,426.4,433.4,423.9z M449.9,410.4c0,0.4,0,0.7,0,1c-0.1-0.1-0.1-0.1-0.2-0.2c-5.7-3.5-10.9-5.7-15.3-7.1c0.9-8.5,3.2-14,3.2-14.1 c0-0.1,0.1-0.2,0.1-0.3c4.7,1.3,9.5,3.6,13.3,7.5C450.7,399.1,450.1,404.3,449.9,410.4z" style="fill:#2568ef"/><path d="M348.6,379.4l17.5-6.6c0,0-1.5,15.1-1.9,25.6c-0.2,6.6,0.4,18.7,0.8,22.5c0.4,3.9,0.4,8.2-6.6,10.1 c-7,1.9-9.7-3.5-10.1-12.4C347.9,411.2,348.2,384.8,348.6,379.4z" style="fill:#ff564f"/><path d="M409.6,267.5l-50.9,38.8c0,0-7-7-10.5-4.7s0,14.4,0,14.4s-55.2,47.8-46.2,61.8c8.9,14,39.6,1.9,55.1-3.9 c15.5-5.8,42.4-21,42.4-21s-1.9,4.7,0.8,7c2.4,2,7.4,2.7,19.4-5.8s15.5-33.4,15.5-33.4v-36.1L409.6,267.5z" style="fill:#ff564f"/><g><path d="M364.1,357.5c-6,0-10.2-7.2-10.3-7.2c-0.2-0.4-0.1-0.8,0.2-1.1c0.4-0.2,0.8-0.1,1.1,0.2 c0,0,1.5,2.2,3.8,3.9c3,2.1,5.9,2.5,8.8,0.9c5.5-2.9,7-6.2,7-6.2c0.2-0.4,0.6-0.6,1-0.4c0.4,0.2,0.6,0.6,0.4,1 c-0.1,0.1-0.9,4.6-6.9,7.7C367.7,357.2,365.4,357.5,364.1,357.5z" style="fill:#fff"/></g><g><path d="M351.4,323.4c-0.3,0-0.5-0.1-0.7-0.4c-0.2-0.4-5.4-9.2-6.3-15.8c-0.6-4,0-6.6,1.8-7.9 c1.6-1.2,4.1-1,7.1,0.5c2.8,1.4,5,3.5,6.9,5.3c1.8,1.8,3.4,3.3,5,3.6l0.3,0.1c3.5,0.8,13,2.9,30.5-13.1c0.3-0.3,0.8-0.3,1.1,0 c0.3,0.3,0.3,0.8,0,1.1c-18.1,16.6-28.1,14.3-31.9,13.5l-0.3-0.1c-2-0.5-3.7-2.1-5.7-4c-1.8-1.8-3.9-3.7-6.5-5 c-2.4-1.2-4.4-1.4-5.5-0.6c-1.2,0.9-1.6,3.1-1.2,6.4c0.9,6.3,6.1,15.2,6.1,15.3c0.2,0.4,0.1,0.8-0.3,1.1 C351.6,323.4,351.5,323.4,351.4,323.4z" style="fill:#fff"/></g><g><path d="M374,336.5c-1.4,0-2.4-0.4-3-1.2c-2.1-2.6,2-8,4.6-10.9c8.5-9.7,25.2-21,25.4-21.1c0.4-0.2,0.8-0.1,1.1,0.2 s0.1,0.8-0.2,1.1c-0.2,0.1-16.7,11.3-25.1,20.9c-4.2,4.8-5.3,7.9-4.5,8.9c0.3,0.4,2.5,2.1,14.1-3.9 c16.8-8.8,25.3-17.2,25.5-17.4c0.3-0.3,0.8-0.3,1.1,0c0.3,0.3,0.3,0.8,0,1.1c-0.1,0.1-8.1,9.5-25,18.4 C382,335.7,376.8,336.5,374,336.5z" style="fill:#fff"/></g><g><path d="M363.4,309.6c-0.2,0-0.4-0.1-0.5-0.2c-0.3-0.3-0.4-0.8,0-1.1c0.1-0.1,6.3-6.9,12.9-11.9 c6.6-5,17-12.4,17.1-12.4c0.4-0.2,0.8-0.2,1.1,0.2s0.2,0.8-0.2,1.1c-0.1,0.1-10.6,7.4-17.1,12.4c-6.5,4.9-12.6,11.6-12.7,11.7 C363.9,309.5,363.7,309.6,363.4,309.6z" style="fill:#fff"/></g><g><path d="M409.2,334.3c-0.2,0-0.5-0.1-0.6-0.3c-0.2-0.4-0.2-0.8,0.2-1.1c0.1-0.1,2.7-1.9,6.5-3.3c5-1.9,9.5-2,13-0.3 c0.4,0.2,0.6,0.6,0.4,1.1c-0.2,0.4-0.6,0.6-1.1,0.4c-7.6-3.6-17.8,3.4-17.9,3.4C409.5,334.3,409.4,334.3,409.2,334.3z" style="fill:#fff"/></g><g><path d="M410,342.5c-0.2,0-0.4-0.1-0.5-0.2c-0.3-0.3-0.3-0.8,0-1.1c0.1-0.1,7.5-7.7,19.5-3.3c0.4,0.1,0.6,0.6,0.5,1 c-0.1,0.4-0.6,0.6-1,0.5c-11-4.1-17.7,2.8-17.8,2.9C410.4,342.4,410.2,342.5,410,342.5z" style="fill:#fff"/></g><g><path d="M411.7,350.2c-2.3,0-4.2-0.8-4.3-0.8c-0.4-0.2-0.6-0.6-0.4-1c0.2-0.4,0.6-0.6,1-0.4c0.1,0,5,2.1,8.5-1 c3.5-3.2,2.1-8.5,2.1-8.6c-0.1-0.4,0.1-0.8,0.6-0.9c0.4-0.1,0.8,0.1,0.9,0.6c0.1,0.2,1.6,6.3-2.6,10.1 C415.7,349.7,413.5,350.2,411.7,350.2z" style="fill:#fff"/></g><path d="M417.8,296.2c2.3,0,3.5,2.3,3.9,7c0.2,1.9,0.4,7-1.5,7.4c-1.9,0.4-3.7-2.7-4.3-8.2 C415.4,298.6,416.6,296.2,417.8,296.2z" style="fill:#324a58"/><path d="M407.7,281.7c-1.1,1.9-3.3,1.8-7,0.1c-1.5-0.7-5.4-2.7-4.8-4.4s3.8-1.8,8.1,0 C407,278.9,408.3,280.8,407.7,281.7z" style="fill:#324a58"/><g><polyline points="103.6 797.2 94.2 784.1 234 771.7 217.2 796.6 103.6 797.2" style="fill:#2568ef"/><g><polygon points="133.6 777.8 151.8 776 148 745.7 127.4 748.2" style="fill:#2568ef"/><polygon points="171.5 742.8 151.6 745.3 155 775.7 170.8 774.2" style="fill:#2568ef"/><polygon points="174.3 773.9 185.1 772.8 190 740.6 175.3 742.4" style="fill:#2568ef"/><path d="M99.7,710.7l0.9,3.8c-4.7,1.6-9.7,3.8-14.1,6.7c-10.9,7-27.9,19.4-20.2,39.2c7.8,20,40.4,15.7,48.6,14.3 l1.1,4.7l14.1-1.3l-6.6-29.4l-14.4,1.7l3.2,13.3c-8.2,1.4-30.7,4.1-35.5-9.5c-4.8-13.7,18.6-24.8,26.6-28.1l4.8,20.1l82.7-10.9 l5.9-39L99.7,710.7z" style="fill:#2568ef"/></g></g><circle cx="406.1" cy="359.5" r="2.1" style="fill:#2568ef"/><path d="M357.6,251.2c0,0-4.3,5.8,0,11.6s5.4,9.3,3.5,14.8c-1.9,5.4,6.6,5,2.7,13.2c-3.9,8.2,2.2,10,2.2,10l38-29 c0,0,2.7-0.6,4.2,2.9c1.5,3.5-1.8,11.5,3.3,11.8c5,0.4,10.5,0,10.9,9.3c0.4,9.3,8.9,9.3,8.9,9.3s-5.8,11.6-6.2,21.7 c-0.4,10.1,0.7,20.6,0.7,20.6s-3.6,5.3-8,7.9c-4.3,2.6-7.3,4.2-7.3,4.2s2.1,9.3,12.2,6.2c10.1-3.1,8.6,0.4,14,4.3 c5.4,3.9,10.1,0.4,12-1.2c1.9-1.5,6.2-3.5,10.5-0.8c4.3,2.7,6.6,2.3,9.3-0.4c2.7-2.7,5.4-5.4,12-1.2c0,0-6-53.3-9.3-69.1 c-3.5-16.7-5.8-30.3-24.1-31.1c0,0,2.6-8.7-5.4-14.8c-7.8-5.8-18.4-1.9-26.4-0.4C405,253.1,378.6,261.7,357.6,251.2z" style="fill:#324a58"/></g></g></g></svg>