<?xml version="1.0" encoding="utf-8"?>
<!-- Generator: Adobe Illustrator 23.0.6, SVG Export Plug-In . SVG Version: 6.00 Build 0)  -->
<svg version="1.1" id="Layer_2_1_" xmlns="http://www.w3.org/2000/svg" xmlns:xlink="http://www.w3.org/1999/xlink" x="0px" y="0px" viewBox="0 0 600 600" style="enable-background:new 0 0 600 600;" xml:space="preserve">

<g id="Layer_3">
</g>
<g>
	<g>
		<path d="M294.7,556.4c0,0,16.1-32.9,3.3-65c-12.8-32.1,41.7-57,69.7-35.7c28,21.2,45.4,66.6,45.4,66.6
			S418.1,591.1,294.7,556.4z" style="fill:#2568EF;"/>
		<path d="M197.1,515.5c0,0,23.4,60.5,54.8,42.6s43-65.7,43-65.7l-18.3-16.1c0,0-13.9,57-35.8,58.8
			c-17,1.4-24.4-29.8-24.4-29.8L197.1,515.5z" style="fill:#2568EF;"/>
		<path d="M244.1,482.7c-5.4-23.6-32.1-37.6-59.6-31.2c-27.5,6.3-45.4,30.6-40,54.2c5.4,23.6,32.1,37.6,59.6,31.2
			C231.6,530.6,249.5,506.3,244.1,482.7z M197.4,489.8c-2.4,0.7-4.6,1-6.6,1c-13.1,0-18.8-12.5-18.9-12.6c-0.3-0.8,0-1.7,0.8-2
			s1.7,0,2,0.8c0.3,0.6,6.7,14.3,21.9,9.9c16.1-4.7,16-20.3,16-20.5c0-0.8,0.7-1.5,1.5-1.6c0.8,0,1.5,0.7,1.6,1.5
			C215.6,466.5,215.7,484.5,197.4,489.8z" style="fill:#FFE7E6;"/>
		<polygon points="137.9,511 156.9,495.1 161.6,509.3 		" style="fill:#2568EF;"/>
		<polygon points="187.5,516.8 202.3,525.7 189.8,544.6 		" style="fill:#2568EF;"/>
		<polygon points="226.2,490.2 230.3,504.7 250.1,495.6 		" style="fill:#2568EF;"/>
		<ellipse transform="matrix(0.9745 -0.2245 0.2245 0.9745 -90.5863 81.9314)" cx="315" cy="439.3" rx="70.8" ry="55" style="fill:#FFE7E6;"/>
		<polygon points="333.5,481.3 321,468.8 331.4,459.6 		" style="fill:#2568EF;"/>
		<polygon points="277,470.3 284.5,455.6 292.6,464.2 		" style="fill:#2568EF;"/>
		<polygon points="254.8,447.1 254.8,458.1 240.5,451.5 		" style="fill:#2568EF;"/>
		<polygon points="260.5,421.1 270.2,406.8 246.7,403.7 		" style="fill:#2568EF;"/>
		<polygon points="325,384.9 334.3,373 335.2,386.2 		" style="fill:#2568EF;"/>
	</g>
	<g>
		<g>
			<path d="M211.1,213.5c-3,9.3,9.2,22.3,30.2,34.6c0.8-4.1,1.2-8.2,1.7-12.4c-1.8-1.5-2.4-4.1-1.9-6.3
				c-0.2-0.4-0.3-0.9-0.4-1.3c-1.6,0.1-3.1-0.7-3.5-2.7c-1.2-6.4,1.8-14.2,8.5-16.2c1-0.3,1.9-0.2,2.6,0.2c2.2-0.1,4.2,0.8,5.8,2.3
				c0.4-1.4,1.2-3.5,1.6-4.9c0.6-2.1,1.2-3.8,1.7-5.4C232.9,199.3,214.1,204.1,211.1,213.5z" style="fill:#324A58;"/>
			<path d="M371.3,235c-2.7,5.1-2.5,18.9-4.4,24.3c-1.7,4.9-2.7,10-5.4,14.5c-0.5,0.9-1.2,1.5-1.9,2
				c0,2.5-1.3,5.1-3.9,5.9c-0.2,0.2-0.4,0.5-0.6,0.7c21.7,1,37.2-2.7,39.9-11.1C397.4,263.7,386.4,245.2,371.3,235z" style="fill:#324A58;"/>
		</g>
		<path d="M286.6,377.8c3.4-2.5,9.2-6.6,16.5-17.5c6.6-9.8,9.5-17.2,9.5-17.2s5,44.8,6.1,55c1.2,10.8,7.3,30.2-7.9,33.9
			c-13.3,3.3-15.8-7.9-18.3-23.1C290.8,398.6,286.6,377.8,286.6,377.8z" style="fill:#FF564F;"/>
		<g>
			<path d="M241.7,258c1.7-7.2,3.8-15.2,5.8-22.8c-2-0.3-5.7-3-4.4-7.6c1.2-4.2,5-4.9,7.3-4.2c0.1,0,0.3,0.1,0.4,0.2
				c0.3-0.9,0.5-1.8,0.7-2.6c0.2-1.5,0.3-4.2-0.8-5.8c-0.4-0.6-1.1-1-1.9-1.2c-3.1-0.5-5.7,5.7-6.8,9.2c-0.5,1.6-1,2-1.6,2
				c-0.1,0-0.2,0-0.4,0c-0.7-0.2-0.7-1.3-0.2-3.5c0.3-1.4,3-11.4,9.4-10.3c1.6,0.3,2.8,1.1,3.7,2.3c0.2,0.2,0.3,0.5,0.4,0.8
				c1-3.4,1.8-6.1,2.3-7.6c-0.8-1.8-2.2-3.3-5-3.4c-7.9-0.4-13.7,12.4-16.7,24.1c-3,11.7-4.7,26.9,1.7,30.1
				C238,258.8,240.1,258.6,241.7,258z" style="fill:#FF564F;"/>
			<path d="M245.7,228.4c-0.9,3.1,1.6,4.5,2.4,4.5c0.6-2.3,1.3-4.6,1.9-6.8C248.9,225.9,246.6,225.5,245.7,228.4z" style="fill:#FF564F;"/>
			<path d="M367.9,236.2c-9.2-12.7-24.5,6.1-24.5,6.1s-2.3,0.8-1.8-1.1c0.6-1.9,6.3-8.3,13.6-11.3
				c0,0-50.3-28.9-92.1-33.2c0,0-2.8,5.1-6.2,15.7c-2.6,7.8-8.3,28.9-8.3,28.9s-9.4,28.4-10.5,68.5c-1,36.5,2.3,69,22.1,73.3
				c6.2,1.3,25.2-3.1,38.4-23.1c12.7-19.3,32.3-51.9,40.1-85.5c0,0,2.3,13.9,14.8,12C366,284.5,377.1,249,367.9,236.2z M263.6,215.4
				c0.2-0.7,1-1.1,1.7-0.9c0.7,0.2,1.1,1,0.9,1.7c-5.4,17.6-10.5,42.3-5,44.6c1,0.4,2.2,0.4,3.4-0.2c7.6-3.3,17.9-25.2,23.7-41.2
				c0.3-0.7,1-1.1,1.8-0.8c0.7,0.3,1.1,1,0.8,1.8c-0.9,2.5-4.2,14.5-8.6,23.4c-5.7,11.5-10.9,18.4-15.6,20.4c-1,0.5-3.1,0.7-4.1,0.7
				c-0.9,0-1.7-0.2-2.5-0.5C250.4,260.3,261.3,222.9,263.6,215.4z M258.5,276c-0.2-1.3,0.2-2.5,1.1-3.3c3-2.9,11.8-1.8,15.2-1.2
				l8.7-17.9c0.3-0.7,1.2-1,1.8-0.6c0.7,0.3,1,1.2,0.6,1.8l-9.1,18.8c-0.3,0.6-0.9,0.9-1.5,0.8c-4.7-0.9-12.1-1.4-13.8,0.3
				c-0.2,0.2-0.3,0.4-0.3,0.9c0.6,3.9,9.3,10.2,14.7,13.2c0.7,0.4,0.9,1.2,0.5,1.9c-0.3,0.4-0.7,0.7-1.2,0.7c-0.2,0-0.5-0.1-0.7-0.2
				C273,290.3,259.5,282.5,258.5,276z M288.6,328.4L288.6,328.4c-0.8,0-1.4-0.6-1.4-1.3c-0.2-4.5-5.3-13.6-12.7-14.4
				c-7.5-0.8-11.2,5-11.2,5c-0.4,0.6-1.2,0.8-1.9,0.4c-0.6-0.4-0.8-1.2-0.4-1.9c0.2-0.3,4.6-8.3,13.9-7.3c9.4,1,15.2,10.8,15.2,16
				C289.9,327.9,289.4,328.4,288.6,328.4z M337.6,236.1c0,0.1-4.2,13.6-9,23.8c-6.5,13.5-11.5,20.2-19,19.4
				c-2.2-0.2-5.5-1.6-7.3-5.2c-5.5-11.2,4.7-44.9,5.1-46.4c0.5-2.2,2-2.2,2.7-1.9c0.7,0.2,1.4,0.7,0.9,2.7c-2.4,9.8-9.6,36.3-4.4,44
				c0.8,1.2,1.8,1.8,3.2,2c0.2,0,0.4,0,0.5,0c10.7,0,21.4-28.1,24.6-39.2c0.2-0.7,1-1.1,1.7-0.9
				C337.4,234.6,337.8,235.3,337.6,236.1z M365.7,259.1c-1.9,5.6-4.9,9.9-5,10.1c-0.3,0.4-0.7,0.6-1.1,0.6c-0.3,0-0.6-0.1-0.8-0.3
				c-0.6-0.4-0.8-1.3-0.3-1.9c0,0,2.9-4.1,4.7-9.3c1.5-4.6,1.7-7.8,0.7-9.9c-0.7-1.3-2-2.3-4-2.9c-3-0.9-6.4,1.2-9,3.7
				c2.3,0.4,4.6,1.8,5.9,3.8c1,1.6,2.8,5.9-2.6,11.6c-1.6,1.7-3.7,2.2-5.4,2.2c-2.3,0-4.2-0.8-4.3-0.9c-0.7-0.3-1-1.1-0.7-1.8
				c0.3-0.7,1.1-1,1.8-0.7c0.1,0,4.2,1.8,6.6-0.7c2.9-3.1,3.7-6,2.3-8.2c-1.4-2.1-4.4-3-6.1-2.4l0,0c-0.7,0.9-1.3,1.7-1.7,2.3
				c-0.4,0.6-1.3,0.8-1.9,0.4c-0.6-0.4-0.8-1.3-0.4-1.9c0.3-0.5,8.2-12.4,16.5-9.9c2.8,0.8,4.6,2.2,5.7,4.3
				C367.7,249.8,367.5,253.6,365.7,259.1z" style="fill:#FF564F;"/>
		</g>
		<g>
			<path d="M351.6,304.8c-0.6,0-1-0.4-1-0.9v-24.6c0-0.5,0.5-0.9,1-0.9c0.6,0,1,0.4,1,0.9v24.6
				C352.6,304.4,352.2,304.8,351.6,304.8z" style="fill:#2568EF;"/>
		</g>
		<g>
			<path d="M357.4,353.4c-0.4,0-0.7-0.1-1-0.4l-23.5-21.1c-0.5-0.5-0.7-1.3-0.3-1.9l17.4-28.5c0.3-0.4,0.7-0.7,1.2-0.7
				s1,0.2,1.3,0.5l20.8,24c0.4,0.5,0.5,1.2,0.2,1.8l-14.7,25.6c-0.2,0.4-0.6,0.7-1.1,0.7C357.5,353.4,357.5,353.4,357.4,353.4z
				 M335.8,330.5l21.2,19l13.2-23l-18.7-21.6L335.8,330.5z" style="fill:#2568EF;"/>
		</g>
		<g>
			<path d="M346,341.3l-1.4-0.6c0.2-0.5,9.3-14.7,16.9-26.5l1.3,0.8C356.2,325.2,346.4,340.5,346,341.3z" style="fill:#2568EF;"/>
		</g>
		<g>
			
				<rect x="353.2" y="312.5" transform="matrix(0.6888 -0.7249 0.7249 0.6888 -127.5324 358.5777)" width="1.5" height="30.7" style="fill:#2568EF;"/>
		</g>
		<circle cx="351" cy="279.3" r="3.3" style="fill:#2568EF;"/>
	</g>
	<g>
		<path d="M484.1,524.1c-11.2-21.4-40.5-28.2-65.5-15.2s-36.3,41-25.1,62.4c11.2,21.4,40.5,28.2,65.5,15.2
			C484.1,573.4,495.3,545.5,484.1,524.1z M435.5,553.5c-1.8,0.3-3.4,0.4-5,0.4c-7.2,0-12.1-2.6-15.2-5c-4-3.2-5.7-6.8-5.7-7
			c-0.3-0.8,0-1.7,0.8-2s1.7,0,2,0.8c0.2,0.5,5.8,12.4,22.6,9.8c12.9-2,18.2-12.6,17.6-21.6c0-0.8,0.6-1.6,1.4-1.6
			c0.9-0.1,1.6,0.6,1.6,1.4C456.3,539,450.3,551.2,435.5,553.5z" style="fill:#FFE7E6;"/>
		<path d="M452.3,533.7c0,0-15-16.9-18.4-43.4s-2.3-48.8,4.9-71.3c7.2-22.5,15.2-36.5,15.2-40.7s-6.4-7.2-12.7,0.8
			c-6.3,7.9-20.2,40.4-20.2,40.4s-3.5-2.6-9.4-14.5s-7.7-33.4-8.8-39.5c-1.1-6.2-9.5,2.9-9.5,2.9s3.2,31.2,5,40.3s4.7,18.2,4.7,18.2
			s-8.8-8.6-15.2-20.2c-6.4-11.6-11.9-26.1-11.9-26.1l-10.8,5.8c0,0,2,12.4,9.4,27.5c7.4,15.2,12.7,20.6,12.7,20.6
			s-11.1-6.9-18.5-13.5s-16.3-15.9-16.3-15.9l-8.5,5.4c0,0,9.3,11.4,17,19s19,18.1,19,18.1s-5.9,0.9-23.5-5.4
			c-17.5-6.2-24.5-7.4-24.5-7.4l0.4,6c0,0,17,9.7,26.2,14.3c9.1,4.7,27.1,18.2,34.9,31.2c7.8,13.1,21.1,41.7,25.4,60.7
			c0,0,6.9,8.2,21.2,2.6C450.1,545.7,452.3,533.7,452.3,533.7z" style="fill:#FF564F;"/>
		<polygon points="463.5,511.5 473.9,521.4 478.4,500.1 		" style="fill:#2568EF;"/>
		<polygon points="458.3,573.1 468.6,558.6 483.6,577.3 		" style="fill:#2568EF;"/>
		<polygon points="402.8,589.1 412.8,571.2 422.9,582.8 		" style="fill:#2568EF;"/>
		<polygon points="379.1,535.9 403.3,531.1 397.1,548 		" style="fill:#2568EF;"/>
		<polygon points="429,387.4 447.2,404.8 461,379.5 445.1,369.6 		" style="fill:#FF9B19;"/>
		<polygon points="391.8,387.4 408.1,383.3 405,353 387.4,354.1 		" style="fill:#324A58;"/>
		<path d="M363.8,395.9c0,0,12.1-11,17.4-11l-10.3-25.5l-16.7,5.2L363.8,395.9z" style="fill:#FF9B19;"/>
		<path d="M350.5,423.6c0,0,9.4-11.9,12.3-12.3c0,0-13.4-12.2-16-21.3l-14.6,7.1C332.1,397.1,345.3,420.2,350.5,423.6z" style="fill:#324A58;"/>
		<path d="M344.4,451.4l4.9-16.1l-24.4-7.9c0,0-5,7.1-6.7,8.8S344.4,451.4,344.4,451.4z" style="fill:#324A58;"/>
	</g>
	<g>
		<path d="M222.3,346.1c-3.6-1.4-12,2.1-20.4,10.4c-8.4,8.2-15.2,20.9-15.2,20.9c-6.1-8.3-13.2-34.7-16.7-43.3
			c-3.4-8.6-10-20.6-10-20.6s-12-14.9-5.2,4.8c6.8,19.7,10.2,45.1,10.2,45.1s-2.7-7-12.4-21.1S134,320.5,134,320.5l-7.5,3.8
			c0,0,9.1,12.4,15.7,24.7c6.6,12.4,8.8,24.2,8.8,24.2s-4.5-5.2-17.4-17s-21.3-16.1-21.3-16.1s-7.4,1.5-2.9,5.1
			c4.4,3.6,33.5,42.8,33.5,42.8s-2.6-1.1-11.8-5.9S102,365.2,102,365.2l-2.4,8.1c0,0,20.8,16.5,32.9,26.1s28.5,27.8,37.8,45.1
			c9.3,17.4,11,40.1,11,40.1s5.7,5.7,17,2c9.8-3.1,11.8-10.2,11.8-10.2c-4.1-5.9-11.9-34.2-13.7-48.5s2.5-35.1,9.7-52.6
			s15-22.6,15-22.6S225.9,347.6,222.3,346.1z M174.4,373.4c-6.3,12.5-21,21.5-21.6,21.9c-0.2,0.1-0.3,0.1-0.5,0.1
			c-0.3,0-0.7-0.2-0.9-0.5c-0.3-0.5-0.1-1.1,0.3-1.4c0.1-0.1,14.8-9.1,20.8-21c0.3-0.5,0.9-0.7,1.4-0.4
			C174.4,372.3,174.6,372.9,174.4,373.4z M185.1,382.2c-0.4,0.3-9.1,6.9-5.3,17.6c0.2,0.5-0.1,1.1-0.6,1.3c-0.1,0-0.2,0.1-0.3,0.1
			c-0.4,0-0.8-0.3-1-0.7c-4.3-12.1,5.9-19.8,6-19.9c0.5-0.3,1.1-0.2,1.4,0.2C185.7,381.3,185.6,381.9,185.1,382.2z" style="fill:#FF564F;"/>
		<path d="M202.2,350.1c0,0,12.8,11.3,12.9,12.6c0.2,1.3,17.3-16.1,17.3-16.1l-10.9-9.1L202.2,350.1z" style="fill:#FF9B19;"/>
		<path d="M150.7,321.2c0,0,14.2-1,16.8-3.5L154.6,295l-9.8,5.6L150.7,321.2z" style="fill:#FF9B19;"/>
		<path d="M126.6,330.9c0,0,13.1-5.5,14.4-9.7l-17.1-18c0,0-7.8,2.5-8.7,6.9C115.3,310.1,125.1,326.7,126.6,330.9z" style="fill:#324A58;"/>
		<polygon points="110.9,354.2 122,342.9 99.6,327 94,334.3 		" style="fill:#FF9B19;"/>
		<path d="M102.7,382c0.4-0.7,9.5-12.9,9.5-12.9l-23.3-14.9l-4.4,10L102.7,382z" style="fill:#324A58;"/>
	</g>
	<g>
		<g>
			<path d="M484.9,133.5c-0.4-0.6-0.7-1.2-1-1.8l-4.2,2.1c0.3,0.7,0.7,1.4,1.1,2.1c1,1.6,2.1,3.1,3.4,4.5l3.5-3.1
				C486.6,136.1,485.7,134.9,484.9,133.5z" style="fill:#324A58;"/>
			<path d="M487.6,82.2l0.2-0.9l-4.7-0.8L483,81c-4.7,17.3-9.9,36.6-4.2,50.9l4.2-2.2
				C478.3,116.9,483.2,98.6,487.6,82.2z" style="fill:#324A58;"/>
			<path d="M483.7,76.4l4.7,0.8c8.6-33,0.1-55-25.4-69.5c-12.4-7.1-27.5-7.6-43.7-1.6c-12,4.5-20.3,10.9-20.7,11.2
				l0.1,0.1c-9.6-2.5-19.7-4.7-23-5.1c-5.8-0.7-10.8,0.7-13.3,5s-15.1,25.2-15.1,25.2s13.2,1.1,28,4.3c15.9,3.5,37.4,15.2,37.4,15.2
				s7.9-23,9.4-27.9c2.1-6.7,1.4-8.7-5.8-11.4c-2.8-1.1-7.1-2.4-11.9-3.7c8.5-5.6,34-19.8,56.2-7.1C484.5,25.4,492,45.1,483.7,76.4z
				" style="fill:#324A58;"/>
			<path d="M489.1,138.7l-3.5,3.1c4.1,3.8,9.7,6.6,16.5,8.3l1.1-4.5C497.3,144.1,492.6,141.8,489.1,138.7z" style="fill:#324A58;"/>
		</g>
		<path d="M210.7,212.7c5.7-29.7,19.3-60.4,49.1-110.7c29.7-50.4,44.9-61.1,77.4-59.8s56.9,6.8,80.2,20.4
			c17,10,22.8,29,20.1,54.8c-2.6,25.3-12.2,74.6-18.6,95.3s-21.2,64.9-32,66.8c0,0,7.7-6.3,0-17.2c-13.1-18.8-28-31.7-68.2-44.4
			c-34.6-11-108.5-29.1-108.1,0.5C210.7,218.3,209.9,217.1,210.7,212.7z" style="fill:#FF9B19;"/>
		<path d="M347.5,116.5c-40.3-8.2-68.6-6.8-95.9-0.1c-2.7,4.7-4.2,7.2-6.5,11.6c20.6-5.2,59.3-8.4,101.1,1.7
			c38.3,9.3,65.3,31.8,81.1,47.6c1.2-5.3,2.3-10.8,3.4-16.2C416.9,147.1,391.2,125.4,347.5,116.5z" style="fill:#FFE7E6;"/>
		<g>
			<path d="M405.3,145.2l-5-2.8c0.1-0.2,7.7-24.2,11.2-50.7c3.7-28.2-20.6-41.1-20.9-41.2l6.7,2.4
				c0.3,0.1,22.2,9.9,18.2,40.3C412.1,119.8,405.4,144.9,405.3,145.2z" style="fill:#FFE7E6;"/>
		</g>
	</g>
	<g>
		<g>
			<path d="M188.7,163.5c-0.8,0-1.6-0.3-2.3-0.8L158,139c-1.5-1.3-1.7-3.5-0.4-5s3.5-1.7,5-0.4l28.4,23.7
				c1.5,1.3,1.7,3.5,0.4,5C190.7,163.1,189.7,163.5,188.7,163.5z" style="fill:#FF9B19;"/>
		</g>
		<g>
			<path d="M185.2,181.2c-0.3,0-0.6,0-0.8-0.1l-21.3-7.5c-1.3-0.5-2-1.9-1.6-3.2c0.5-1.3,1.9-2,3.2-1.6l21.3,7.5
				c1.3,0.5,2,1.9,1.6,3.2C187.2,180.5,186.2,181.2,185.2,181.2z" style="fill:#FF9B19;"/>
		</g>
		<g>
			<path d="M153.7,245.4c-1.3,0-2.5-0.9-2.9-2.2c-0.5-1.6,0.4-3.3,2-3.8l36.3-11c1.6-0.5,3.3,0.4,3.8,2s-0.4,3.3-2,3.8
				l-36.3,11C154.2,245.3,153.9,245.4,153.7,245.4z" style="fill:#FF9B19;"/>
		</g>
		<circle cx="205.2" cy="258" r="4.1" style="fill:#FF9B19;"/>
		<circle cx="186.5" cy="257.6" r="5.1" style="fill:#FF9B19;"/>
		<circle cx="170.5" cy="201.7" r="4" style="fill:#FF9B19;"/>
		<circle cx="210.4" cy="138.6" r="5.1" style="fill:#FF9B19;"/>
	</g>
	<g>
		<g>
			<path d="M447.2,232.3c-1.5,0-2.8-1.1-3-2.6c-0.2-1.7,0.9-3.2,2.6-3.4l34.3-4.6c1.7-0.2,3.2,0.9,3.4,2.6
				c0.2,1.7-0.9,3.2-2.6,3.4l-34.3,4.6C447.4,232.3,447.3,232.3,447.2,232.3z" style="fill:#FF9B19;"/>
		</g>
		<g>
			<path d="M478,265.2c-0.1,0-0.2,0-0.4,0l-23.7-3.3c-1.4-0.2-2.4-1.5-2.2-2.9c0.2-1.4,1.5-2.4,2.9-2.2l23.7,3.3
				c1.4,0.2,2.4,1.5,2.2,2.9C480.3,264.3,479.2,265.2,478,265.2z" style="fill:#FF9B19;"/>
		</g>
		<g>
			<path d="M446.2,326.4c-0.7,0-1.4-0.2-1.9-0.7l-32.9-26.9c-1.3-1.1-1.5-3-0.4-4.3s3-1.5,4.3-0.4l32.9,26.9
				c1.3,1.1,1.5,3,0.4,4.3C448,326,447.1,326.4,446.2,326.4z" style="fill:#FF9B19;"/>
		</g>
		<g>
			<path d="M408.1,319.7c-0.8,0-1.5-0.4-2-1l-10.4-13.9c-0.8-1.1-0.6-2.7,0.5-3.6c1.1-0.8,2.7-0.6,3.6,0.5l10.4,13.9
				c0.8,1.1,0.6,2.7-0.5,3.6C409.1,319.5,408.6,319.7,408.1,319.7z" style="fill:#FF9B19;"/>
		</g>
		<circle cx="457.6" cy="204.2" r="4.6" style="fill:#FF9B19;"/>
		<circle cx="474.9" cy="183" r="8" style="fill:#FF9B19;"/>
		<circle cx="452" cy="275.6" r="4.5" style="fill:#FF9B19;"/>
	</g>
</g>
</svg>
