<svg xmlns="http://www.w3.org/2000/svg" xmlns:xlink="http://www.w3.org/1999/xlink" id="Layer_2_1_" x="0" y="0" version="1.1" viewBox="0 0 600 600" xml:space="preserve" style="enable-background:new 0 0 600 600"><g><g><path d="M210.8,457.5c-13.1-49.6-56.9-81.1-97.8-70.2C72.1,398,49.5,447,62.6,496.6s63.6,76.3,104.5,65.5 C208,551.3,223.9,507.1,210.8,457.5z M177.9,496.7c-14.9,9.2-28.7,5.2-36.5,2.3c-12.9-4.8-22.6-14.1-26.7-25.7 c-9-25.2,1.2-38.9,1.6-39.5c0.9-1.1,2.5-1.3,3.6-0.5c1.1,0.9,1.3,2.5,0.5,3.6c-0.1,0.2-7.9,11.3,0,33.5 c3.6,10.1,12.2,18.3,23.7,22.6c12.2,4.5,21.3,4.8,31.2-0.8c1.2-0.7,2.8-0.3,3.5,1C179.6,494.4,179.1,495.9,177.9,496.7z" style="fill:#ffe7e6"/><path d="M274.3,320.7c0,0,7.4,3.7,13.2-0.4l6,33.7l-5.7,6.2c0,0,24.3,8.3,65,0.2c40.8-8.1,56.1-31.9,46.3-38.1 l0.3-10.8c0,0,24,7.9,26.3,27.5c2.3,19.4-7.6,34.6-36.6,49.4c-29.1,14.9-54.3,10.4-54.3,10.4s-5.3,2.2-0.4,4.7s35.9,2.3,60.2-11.8 c23.8-13.9,29.1-23.8,31.9-31.8c0,0,13,12.5,7.7,27c-6.1,16.5-19.8,26.4-35.1,34.8c-14,7.7-32.8,10.9-49.3,11.1 c-8.9,0.1-5.8,4.9-2.8,5.1c4,0.2,33.9,0,56.1-12.6c31-17.7,31.1-31.3,31.1-31.3s10.8,18.1,0.5,32.6 c-10.7,15.1-23.9,23.3-37.3,27.7c-20.8,6.8-39,5.1-44.2,4.7s-4.3,3.8-0.4,4.4s27.6,1.7,47.9-5.4c18.5-6.4,27.2-14.9,34.9-26 c0,0,4.9,21.1-17.9,35.9s-52.6,13.1-61.8,12.8c-9.2-0.3-64.3-8.6-95.2-8.1s-77,10.4-91.5,19.9s-32.3-0.7-42.6-12.7 s-15.5-37.7,1.8-41.9c21.9-5.3,82.3-36.1,105.6-68S274.3,320.7,274.3,320.7z" style="fill:#ff564f"/><polygon points="132.4 405.4 157.5 406.2 140.9 362.3" style="fill:#2568ef"/><polygon points="89.6 417.9 80.3 440.6 51.3 423.2" style="fill:#2568ef"/><polygon points="87.5 484.5 100.3 515.2 55.3 528.9" style="fill:#2568ef"/><path d="M132.6,541.7c0.9,0,27.7-7.1,27.7-7.1l-8.2,45L132.6,541.7z" style="fill:#2568ef"/><polygon points="191.2 519.3 191.9 497.2 219.5 525.4" style="fill:#2568ef"/></g><g><circle cx="204.5" cy="361.8" r="8" style="fill:#ff9b19"/><g><path d="M182.5,365.3c-0.1,0-0.1,0-0.2,0l-13.4-1.5c-1.1-0.1-1.9-1.1-1.8-2.3c0.1-1.1,1.2-1.9,2.3-1.8l13.4,1.5 c1.1,0.1,1.9,1.1,1.8,2.3C184.5,364.6,183.6,365.4,182.5,365.3z" style="fill:#ff9b19"/></g><g><path d="M190.6,349.4c-0.6,0-1.1-0.3-1.5-0.7l-8.7-10c-0.7-0.9-0.6-2.2,0.2-2.9c0.9-0.7,2.2-0.7,2.9,0.2l8.7,10 c0.7,0.9,0.6,2.2-0.2,2.9C191.6,349.2,191.1,349.4,190.6,349.4z" style="fill:#ff9b19"/></g><g><path d="M205.4,345c-0.1,0-0.1,0-0.2,0c-1.1-0.1-1.9-1.2-1.8-2.3l1.6-13.5c0.1-1.1,1.2-1.9,2.3-1.8s1.9,1.2,1.8,2.3 l-1.6,13.5C207.4,344.2,206.4,345,205.4,345z" style="fill:#ff9b19"/></g><g><path d="M220.2,351.2c-0.5,0-0.9-0.2-1.3-0.5c-0.9-0.7-1-2-0.2-2.9l10.5-12.2c0.7-0.9,2-1,2.9-0.2 c0.9,0.7,1,2,0.2,2.9l-10.5,12.2C221.4,351,220.8,351.2,220.2,351.2z" style="fill:#ff9b19"/></g></g><g><path d="M232.1,581.8c-1.6-1.6-4.7-4.7-0.6-9.6l54.4-47.5l-38.7-0.8c-1.7-0.1-3.2-1.2-3.7-2.8 c-0.6-1.6-0.1-3.4,1.2-4.5l35.6-30.8c1.7-1.5,4.3-1.3,5.8,0.4c1.5,1.7,1.3,4.3-0.4,5.8L258,516.1l39.9,1.7 c1.7,0.1,3.1,1.1,3.7,2.7c0.6,1.6,0.2,3.3-1,4.5c0,0-50.4,48.4-60.8,57.1C239,582.8,234.7,584.5,232.1,581.8z" style="fill:#ff9b19"/></g><g><path d="M404.1,519.7c-22.8-7.8-37.7-34.2-37.7-34.2c-10.6,1.4-30.1-2.3-30.1-2.3c4,35.7,28.5,56.4,42.1,66.5 c12.8,9.5,17.7,10.4,26.7,4.3C410.1,550.6,426.9,527.5,404.1,519.7z M407.8,545.1c-4.7,7.6-12.7,11.2-17.8,8 c-5.1-3.2-5.5-11.9-0.7-19.5c4.7-7.6,12.7-11.2,17.8-8C412.2,528.8,412.6,537.5,407.8,545.1z" style="fill:#ff9b19"/><g><path d="M438.5,546.9c-17-0.5-37-13.3-38.1-14c-1.5-1-2-3.1-1-4.6s3.1-2,4.6-1c9,5.8,34.7,18.9,45.4,10 c1.4-1.2,3.5-1,4.7,0.4s1,3.5-0.4,4.7C449.5,545.8,444.2,547,438.5,546.9z" style="fill:#2568ef"/></g><g><path d="M474.5,568.1c-0.7,0-1.4-0.2-1.9-0.7c-0.1-0.1-12.3-9.3-23.2-8.1c-12.4,1.3-19.8-2.3-21.1-2.9l-34-15.8 c-1.7-0.8-2.4-2.8-1.6-4.4c0.8-1.7,2.8-2.4,4.4-1.6l34.1,15.8c0.1,0,0.2,0.1,0.3,0.1c0,0,6.1,3.3,17.2,2.1 c13.6-1.5,27.4,9.1,28,9.5c1.5,1.1,1.7,3.2,0.6,4.7C476.5,567.7,475.5,568.1,474.5,568.1z" style="fill:#2568ef"/></g><g><path d="M456.6,572.3l-61.9-28.8c-1.7-0.8-3.7-0.1-4.4,1.6c-0.8,1.7-0.1,3.7,1.6,4.4l62.1,28.9L456.6,572.3z" style="fill:#2568ef"/><path d="M469.9,578.5l-10.5-4.9l-2.6,6.1l10.3,4.8c0.4,0.2,0.9,0.3,1.3,0.3c1.3,0,2.5-0.7,3.1-1.9 C472.3,581.2,471.6,579.3,469.9,578.5z" style="fill:#2568ef"/></g><g><path d="M434.1,523.3c-0.6,0-1.2-0.2-1.8-0.6c-1.7-1.1-2.2-3.3-1.1-5l8.1-12.8l-9.1-14.8c-0.7-1.1-0.7-2.4-0.1-3.5 l9.2-17.8c0.9-1.8,3.1-2.5,4.8-1.5c1.8,0.9,2.5,3.1,1.5,4.8l-8.2,16l9.3,15c0.7,1.2,0.7,2.7,0,3.8l-9.3,14.7 C436.5,522.7,435.3,523.3,434.1,523.3z" style="fill:#ff9b19"/></g><g><path d="M460.1,533.5c-0.8,0-1.6-0.3-2.1-0.9c-1.2-1.2-1.1-3.2,0.1-4.4l8.8-8.4l-3.9-13.3c-0.3-1.2,0.1-2.5,1-3.2 l23.1-19c1.3-1.1,3.3-0.9,4.3,0.4c1.1,1.3,0.9,3.3-0.4,4.3l-21.5,17.7l3.8,13.2c0.3,1.1,0,2.3-0.8,3.1l-10.1,9.7 C461.7,533.3,460.9,533.6,460.1,533.5z" style="fill:#ff9b19"/></g><g><path d="M476.9,548.8c-1.2,0-2.3-1-2.5-2.2c-0.2-1.4,0.8-2.7,2.2-2.9l16.7-2.3l3.3-11.5c0.2-0.8,0.9-1.5,1.7-1.7 l16.8-5.5c1.3-0.4,2.8,0.3,3.2,1.6s-0.3,2.8-1.6,3.2l-15.5,5.1l-3.4,11.8c-0.3,1-1.1,1.7-2.1,1.8l-18.4,2.5 C477.2,548.8,477,548.8,476.9,548.8z" style="fill:#ff9b19"/></g><g><path d="M510.9,572.9c-0.1,0-0.3,0-0.4,0l-19.9-3.7c-1.4-0.3-2.3-1.6-2.1-3c0.3-1.4,1.6-2.3,3-2.1l19.9,3.7 c1.4,0.3,2.3,1.6,2.1,3C513.2,572.1,512.1,573,510.9,572.9z" style="fill:#ff9b19"/></g><g><path d="M511,598.6c-0.3,0-0.6,0-1-0.1l-28.3-10c-1.1-0.4-1.6-1.5-1.3-2.6c0.4-1.1,1.5-1.6,2.6-1.3l28.3,10 c1.1,0.4,1.6,1.5,1.3,2.6C512.4,598,511.7,598.5,511,598.6z" style="fill:#ff9b19"/></g></g><g><g><path d="M190.5,71.2c-6.5,0.8-12.8,3-18.8,6.4c-31.7,18.3-43.2,67.2-43.7,69.3c-0.8,3.6,1.4,7.2,5,8 c0.4,0.1,0.9,0.2,1.3,0.2c3.1,0.1,6-2,6.7-5.2c0.1-0.5,10.7-45.4,37.4-60.7c4.1-2.4,8.4-3.9,12.9-4.6L190.5,71.2z M134.6,152.2 c-2.4-0.1-4.3-2.1-4.3-4.5c0.1-2.4,2.1-4.3,4.5-4.3c2.4,0.1,4.3,2.1,4.3,4.5C139.1,150.4,137,152.3,134.6,152.2z" style="fill:#2568ef"/><path d="M275.8,129.8c-0.4-1.7-11.5-40.7-61.5-56.2c-2.8-0.9-5.5-1.5-8.2-2l-1.6,13.3c1.9,0.4,3.9,0.8,5.8,1.5 c42.7,13.3,52.2,45.6,52.6,46.9c1,3.6,4.6,5.7,8.2,4.7C274.7,137,276.8,133.3,275.8,129.8z" style="fill:#2568ef"/><path d="M203.1,71.2c-3.2-0.4-6.4-0.4-9.5-0.2l0.8,13.3c2.3-0.2,4.7-0.1,7.1,0.2L203.1,71.2z" style="fill:#2568ef"/></g><g><path d="M501.1,104.6l12.7-7.9c-1.3-2.1-2.8-4.3-4.3-6.4l-12.2,7.9C498.7,100.3,499.9,102.5,501.1,104.6z" style="fill:#2568ef"/><path d="M507.6,87.7c-6.7-8.9-15.6-18.1-27-26c-23.7-16.3-45-12.1-58.6-5.8c-14.4,6.7-23.3,17.1-23.7,17.6 c-2.4,2.8-2,7,0.8,9.4s7,2,9.4-0.8c0.1-0.1,7.3-8.6,19.1-14.1c15.3-7.1,30.6-5.5,45.4,4.7c9.9,6.8,17.2,14.9,22.5,22.8 L507.6,87.7z" style="fill:#2568ef"/><path d="M525.7,123.1c-0.1-1.9-3.1-11.6-10.3-23.8l-12.9,8.1c5.1,10.2,7.1,18.4,8.2,20.1c1.6,2.5,4.4,4.9,7.3,5 c0.6,0,1.3-0.1,1.9-0.2C523.4,131.3,525.9,128.8,525.7,123.1z M517.8,128.6c-2.4-0.1-4.3-2.1-4.3-4.5s2.1-4.3,4.5-4.3 c2.4,0.1,4.3,2.1,4.3,4.5S520.3,128.7,517.8,128.6z" style="fill:#2568ef"/></g><path d="M394.6,289.3c0-1.2,3-21.9,3-21.9s10.4-1.4,11.2,2.6s6,11.7-0.5,17.6S394.6,289.3,394.6,289.3z" style="fill:#324a58"/><path d="M272.6,157.2c-0.4-1.7-9.4-42.9-54.3-56.3c-12-3.6-23.4-2.6-33.7,3c-23.5,12.7-33.3,44.7-33.7,46.1 c-1.1,3.5,1,7.2,4.5,8.3s7.8,0.6,9.3-4.4c0-0.1,3.1-13.6,11.9-25.2c10.9-14.4,23.3-19.3,37.9-14.9c37.1,11.1,44.8,44.9,45.1,46.3 c0.6,3.1,3.3,5.2,6.3,5.3c0.5,0,1,0,1.6-0.1C271,164.4,273.3,160.8,272.6,157.2z M157.8,155.6c-2.4-0.1-4.3-2.1-4.3-4.5 c0.1-2.4,2.1-4.3,4.5-4.3c2.4,0.1,4.3,2.1,4.3,4.5C162.3,153.8,160.3,155.7,157.8,155.6z" style="fill:#2568ef"/><path d="M417.3,252.8c-12.7-6.6-19,2.8-19,2.8l7.9-63.5l-11.9-49.2l-113.8,14.5l3.9,122.8l-12.8,4.8 c0.8,4.5,2,10.8,3.6,15.5c0.8,2.4,1.9,3.8,3.2,4.3c1.6,0.6,3.1-0.3,3.1-0.3c0.7-0.4,1.7-0.2,2.1,0.6c0.4,0.7,0.2,1.7-0.6,2.1 c-0.1,0-1.7,0.9-3.7,0.9c-0.7,0-1.3-0.1-2.1-0.4c-2.3-0.9-4-3-5-6.2c-1.6-4.7-2.8-10.8-3.6-15.3l-9.7,3.6c0,0,2,14,8.7,22.5 s15.8,8.6,23.7,2.2l7.1,43.3c0,0,43.2,4.2,65.1-5.7c21.9-9.9,31.3-19.2,31.3-19.2l2.4-32.5c0,0,9.6,8,16.1-1.7 S430,259.4,417.3,252.8z M338.5,274.1c-2.8,16.4-7.9,24.7-13.5,25.2c-0.3,0-0.5,0-0.8,0c-9.3-0.3-12.8-10.6-16.2-19.5 c-7.7-19.9-8.1-67.3-8.1-69.3c0-0.8,0.6-1.6,1.5-1.6c0.8,0,1.6,0.6,1.6,1.5c0,0.5,2.4,48.9,10,68.3c4.3,11.2,8.3,14.8,11.8,14.4 c1.8-0.2,6.2,0.3,9.6-19.6c6.2-36,1-65.9,1-66.2c-0.2-2.8,1.2-3.3,2.1-3.3c1.2,0,1.9,1.1,2.1,1.9 C339.6,206.3,344.8,237.6,338.5,274.1z M373.9,294.7c-1.5,5.5-7.5,16.9-17.8,20.8c-0.2,0.1-0.4,0.1-0.6,0.1c-0.6,0-1.2-0.4-1.4-1 c-0.3-0.8,0.1-1.7,0.9-2c8.1-3.1,12.5-11.3,14-14.7c1.7-3.9,1.9-6.8-0.1-7.5c-1.3-0.5-4,0-7,0.2c-6.4,0.5-9.3,0.7-10.4-0.9 c-1.4-2-1.3-18.2-1.1-27.7c0-0.9,0.7-1.5,1.6-1.5l0,0c0.8,0,1.5,0.7,1.5,1.6c-0.2,11-0.1,23.2,0.5,25.7c1.2,0.3,5,0,7.6-0.3 c6.5-0.6,10.3-0.8,11.7,0.9C374.2,289.5,374.7,291.7,373.9,294.7z M408.3,278.8c-2.1,11.4-7.2,11.2-11.4,10.5L399,270 C399,270,410.4,267.4,408.3,278.8z M414.9,280.4c-0.2,0.7-0.8,1.1-1.5,1.1c-0.1,0-0.3,0-0.4-0.1c-0.8-0.3-1.3-1.1-1-1.9 c2.2-6.8,2-11.7-0.5-14.5c-3.8-4.2-11.8-2.6-11.9-2.6c-0.8,0.2-1.6-0.4-1.8-1.2c-0.2-0.8,0.4-1.6,1.2-1.8c0.4-0.1,9.9-2,14.8,3.6 C417.1,266.6,417.5,272.5,414.9,280.4z" style="fill:#ff9b19"/><path d="M306,316.3l31.1-2.9l3.2,34c0,0-16.2,4.5-29.8,2.6L306,316.3z" style="fill:#324a58"/><path d="M392.9,240.6c-0.1,24.7-5.2,44.9-12.4,45.1c-7.1,0.2-13.6-19.6-14.4-44.2s3.3-42.8,10.3-44.1 C389.9,194.9,393,214.8,392.9,240.6z" style="fill:#324a58"/><path d="M488.5,272.3c0,0-11.6-69.8-31.9-112.7S420.7,71.3,379.1,72c-24.6,0.5-35.5,26.9-35.5,26.9 s-11.8-30.1-48.2-30.6c-14.5-0.2-29.7,6.9-43.5,16.6l15.4,22.4c-17.9,10.1-22.9,32.9-22.9,32.9c-9.7-9.8-19.7-15-30.5-20 c-21.5,23.9-47.5,75.7-59.3,106.1s-18.9,72.2-18.9,72.2s19-21.4,36.1,4.7s25.9-17.9,47.9-2.1c22,15.7,37.2-18.4,78.3-1.9 c0,0-18.3-87.5-5.5-133.4c0,0,14.9-11.7,33-1.3c21.8,12.5,31,6.9,45.9-2.5s22.2-3.6,22.2-3.6c5.6,25.8,4.7,97.3,4.7,97.3 s7.8-9.9,19-2.8S419,287,419,287s10-5.9,22.4-2.2s13.8-13.1,32.7-11.7C493.1,274.5,488.5,272.3,488.5,272.3z" style="fill:#324a58"/><path d="M298.2,193.5c-2.6-3.7,13.3-15.3,18.6-15.8c5.4-0.5,7,2.7,4.7,5.3c-2.3,2.5-12.4,8.4-17.1,10.7 C298.9,196.5,298.2,193.5,298.2,193.5z" style="fill:#324a58"/><path d="M389.8,186.1c1.9-3.6-13.5-12.2-18.3-12.1c-4.8,0.2-5.9,3.2-3.6,5.2s11.9,6.1,16.3,7.7 C389.5,188.9,389.8,186.1,389.8,186.1z" style="fill:#324a58"/><circle cx="240.3" cy="44.7" r="9.3" style="fill:#ff9b19"/><circle cx="271.9" cy="44" r="7" style="fill:#ff9b19"/><circle cx="291.2" cy="54.6" r="4.4" style="fill:#ff9b19"/><circle cx="381" cy="40.9" r="8.8" style="fill:#ff9b19"/><g><path d="M397.7,32.8c-1.2,0.3-2.5-0.1-3.3-1.1c-1-1.4-0.7-3.3,0.6-4.3l16-11.8c1.4-1,3.3-0.7,4.3,0.6 c1,1.4,0.7,3.3-0.6,4.3l-16,11.8C398.5,32.5,398.1,32.7,397.7,32.8z" style="fill:#ff9b19"/></g><g><path d="M379,26.1c-0.1,0-0.2,0-0.3,0.1c-1.7,0.3-3.2-0.9-3.5-2.6l-2-13.6c-0.3-1.7,0.9-3.3,2.6-3.5 c1.7-0.3,3.2,0.9,3.5,2.6l2,13.6C381.5,24.2,380.5,25.7,379,26.1z" style="fill:#ff9b19"/></g><g><path d="M365.1,39.1c-0.6,0.1-1.2,0.1-1.7-0.1L346,33.3c-1.6-0.5-2.5-2.3-2-3.9s2.3-2.5,3.9-2l17.4,5.7 c1.6,0.5,2.5,2.3,2,3.9C366.9,38.2,366.1,38.9,365.1,39.1z" style="fill:#ff9b19"/></g><g><path d="M351.8,71.8c-1.1,0.3-2.2,0-3-0.9c-1.2-1.2-1.1-3.2,0.1-4.4L363.3,53c1.2-1.2,3.2-1.1,4.4,0.1 c1.2,1.2,1.1,3.2-0.1,4.4l-14.4,13.6C352.7,71.4,352.3,71.7,351.8,71.8z" style="fill:#ff9b19"/></g><g><path d="M407.2,54.7c-0.7,0.2-1.4,0.1-2.1-0.2l-8.3-3.9c-1.5-0.7-2.2-2.6-1.5-4.1s2.6-2.2,4.1-1.5l8.3,3.9 c1.5,0.7,2.2,2.6,1.5,4.1C408.8,53.8,408.1,54.4,407.2,54.7z" style="fill:#ff9b19"/></g><g><path d="M472.5,139.6c-0.9,0-1.7-0.7-1.9-1.6c-0.3-1.1,0.4-2.2,1.5-2.5l27.8-6.5c1.1-0.3,2.2,0.4,2.5,1.5 s-0.4,2.2-1.5,2.5l-27.8,6.5C472.8,139.6,472.6,139.6,472.5,139.6z" style="fill:#ff9b19"/></g><g><path d="M499.8,148.1c-0.5,0-1.1-0.2-1.4-0.7c-0.8-0.8-0.7-2.1,0.1-2.9l8.1-7.5c0.8-0.8,2.1-0.7,2.9,0.1 s0.7,2.1-0.1,2.9l-8.1,7.5C500.9,148,500.4,148.2,499.8,148.1z" style="fill:#ff9b19"/></g><g><path d="M508.7,194.4c-0.1,0-0.2,0-0.3,0c-1.1-0.2-1.9-1.2-1.7-2.3l7.9-49.6c0.2-1.1,1.2-1.9,2.4-1.7 c1.1,0.2,1.9,1.2,1.7,2.3l-7.9,49.6C510.6,193.7,509.7,194.4,508.7,194.4z" style="fill:#ff9b19"/></g><g><path d="M530.2,172.2c-0.9,0-1.8-0.7-2-1.7l-4.8-26.1c-0.2-1.1,0.5-2.2,1.6-2.4s2.2,0.5,2.4,1.6l4.8,26.1 c0.2,1.1-0.5,2.2-1.6,2.4C530.5,172.2,530.3,172.2,530.2,172.2z" style="fill:#ff9b19"/></g><g><path d="M450.2,317.3c-0.2,0-0.4,0-0.6-0.1c-1.1-0.4-1.6-1.6-1.2-2.6L454,299c0.4-1.1,1.6-1.6,2.6-1.2 c1.1,0.4,1.6,1.6,1.2,2.6l-5.7,15.5C451.9,316.8,451.1,317.4,450.2,317.3z" style="fill:#ff9b19"/></g><g><path d="M460.9,325c-0.5,0-1.1-0.2-1.5-0.7c-0.8-0.8-0.7-2.1,0.2-2.9l15.8-14c0.8-0.8,2.1-0.7,2.9,0.2 c0.8,0.8,0.7,2.1-0.2,2.9l-15.8,14C461.9,324.8,461.4,325,460.9,325z" style="fill:#ff9b19"/></g><g><path d="M471.9,355.2c-0.6,0-1.2-0.3-1.6-0.8l-8.7-11.4c-0.7-0.9-0.5-2.2,0.4-2.9c0.9-0.7,2.2-0.5,2.9,0.4l8.7,11.4 c0.7,0.9,0.5,2.2-0.4,2.9C472.8,355.1,472.3,355.2,471.9,355.2z" style="fill:#ff9b19"/></g><g><path d="M457.9,371.3c-0.9,0-1.7-0.7-1.9-1.6l-4.9-22.2c-0.2-1.1,0.5-2.2,1.6-2.4c1.1-0.2,2.2,0.5,2.4,1.6l4.9,22.2 c0.2,1.1-0.5,2.2-1.6,2.4C458.3,371.2,458.1,371.3,457.9,371.3z" style="fill:#ff9b19"/></g><circle cx="377.3" cy="247.4" r="8.1" style="fill:#ffe7e6"/><path d="M315.3,328.6c-0.9-4.3,0.8-8.8,2.5-13.3l-3.5,0.3c-1.3,3.8-2.4,7.7-2.3,11.1c0.3,9.9,6,11.4,6.8,22.9 c0,0.3,0,0.6,0,0.9c1.3,0,2.5-0.1,3.7-0.2C322,342.3,316.8,335.7,315.3,328.6z" style="fill:#2568ef"/><path d="M325.1,327.7c-0.9-4.3,0.7-8.8,2.5-13.4l-3.4,0.3c-1.3,3.8-2.4,7.8-2.3,11.2c0.3,9.9,6,11.4,6.8,22.9 c0,0.3,0,0.6,0,0.9c1.3-0.2,2.5-0.4,3.8-0.6C331.8,342,326.6,334.8,325.1,327.7z" style="fill:#2568ef"/><circle cx="378.8" cy="245.4" r="8.1" style="fill:#2568ef"/><circle cx="380.6" cy="245.4" r="3" style="fill:#ff564f"/><path d="M457.1,328c-15.1,0.9-26-1.8-29.9-27.6c-1.5-10-5.3-17.1-11.2-21c-7.2-4.8-14.8-3.1-15.2-3 c-1.8,0.4-2.9,2.2-2.5,4s2.2,2.9,4,2.5c0.2,0,5.2-1.1,10,2.1c4.3,2.9,7,8.4,8.2,16.4c3.6,23.7,13.5,34.7,32,35.3 c1.5,0,3.1,0,4.8-0.1c1.8-0.1,3.1-2.7,3.2-4.5C460.7,329.1,458.9,327.9,457.1,328z M458.8,332.7c-0.3,1.6-1.6,2.7-2.9,2.4 c-1.3-0.2-2.1-1.7-1.7-3.3c0.3-1.6,1.6-2.7,2.9-2.4C458.3,329.7,459.1,331.2,458.8,332.7z" style="fill:#2568ef"/></g></g></svg>