<svg xmlns="http://www.w3.org/2000/svg" xmlns:xlink="http://www.w3.org/1999/xlink" id="Layer_2_1_" x="0" y="0" version="1.1" viewBox="0 0 600 600" xml:space="preserve" style="enable-background:new 0 0 600 600"><g><g><g><path d="M297.8,344.6l-1.1-38.8l1.8-0.6c0.3-0.1,32.7-11.8,29.1-30.3c-3-15.7-28.8-12.9-29-12.8l-2.8,0.3v-17.6h5 v11.9c2.9-0.1,7.6-0.1,12.5,0.9c10.9,2.1,17.6,7.8,19.2,16.3c3.9,20.3-23.3,32.6-30.7,35.5l1,35L297.8,344.6z" style="fill:#ff564f"/></g><g><path d="M272.1,121.5c-38.1,0-73.2-7.1-74.2-22.5c-1.1-18,45.9-30.7,90.6-33.5c44.7-2.8,92.8,3.9,93.9,21.8 c0.5,8.2-8.9,15.9-27.1,22.2c-16.8,5.8-39.3,9.8-63.4,11.3C285.2,121.3,278.6,121.5,272.1,121.5z M308.9,71.1 c-6.3,0-13,0.2-20.1,0.7c-23.6,1.5-45.5,5.4-61.9,11c-17.3,6-23.3,12.1-23,15.9c0.5,9,34.1,19.4,87.5,16 c23.6-1.5,45.5-5.4,61.9-11c17.3-6,23.3-12.1,23-15.9C375.8,80,350.5,71.1,308.9,71.1z" style="fill:#ff564f"/></g><g><path d="M286.9,246.7c-25,0-46.8-11.2-61.5-31.8c-36.5-50.9-22.3-107.4-22.2-108l3.9,1.1 c-0.1,0.5-13.8,55.2,21.5,104.4c14.8,20.6,36.8,31.2,62.2,30c26.9-1.3,53.3-16.3,65.6-37.4c24.1-41.1,20.2-89.3,18.6-109.9l4-0.3 c1.7,21,5.7,70.1-19.1,112.4c-13,22.2-40.7,38-68.9,39.4C289.6,246.7,288.2,246.7,286.9,246.7z" style="fill:#ff564f"/></g><g><path d="M275.2,148.2c-44,0-70.8-17.6-71.1-17.8l1.4-2.2c0.3,0.2,35.2,23,90.6,16.1c29.7-3.7,49.9-11.1,61.5-16.6 c12.5-6,18.1-11,18.2-11.1l1.7,1.9c-0.9,0.9-23.5,21.1-81.1,28.4C289,147.8,281.9,148.2,275.2,148.2z" style="fill:#ff564f"/></g><g><path d="M276.1,344.5l-0.5-31.7c-5-0.2-15.8-1.3-22.3-7.7c-3.3-3.3-5-7.5-5-12.5c0-10.7,5.8-20,16.6-26.8 c5.7-3.5,11.3-5.5,14.2-6.4v-13.6h5v17.6l-2,0.5c-0.3,0.1-28.9,7.1-28.9,28.6c0,3.6,1.1,6.4,3.5,8.8c6.8,6.8,21,6.3,21.1,6.3 l2.6-0.1l0.5,36.9L276.1,344.5z" style="fill:#ff564f"/></g><g><polygon points="253.1 291.2 252.7 288.7 329.3 274.6 329.8 277.2" style="fill:#ff564f"/></g><g><polygon points="298.7 301.9 263.5 271.2 265.1 269.2 297.9 297.7 315.2 261.3 317.5 262.5" style="fill:#ff564f"/></g><g><polygon points="270.7 305.3 252.7 292 254.1 289.9 270 301.6 292.5 264.1 323.3 292.1 321.7 294 293 268.1" style="fill:#ff564f"/></g><g><path d="M279.1,223.4c-6.3,0-12.1-0.3-17-0.9c-12.9-1.5-14.6-4.3-14.7-6.3c-0.1-2,1.2-5,13.8-8.1 c8.4-2.1,19.6-3.6,31.5-4.4c11.9-0.8,23.2-0.6,31.8,0.4c12.9,1.5,14.6,4.3,14.7,6.3l0,0c0.1,2-1.2,5-13.8,8.1 c-8.4,2.1-19.6,3.6-31.5,4.4C288.8,223.2,283.8,223.4,279.1,223.4z M307.5,206.4c-4.4,0-9.3,0.1-14.6,0.5 c-27.1,1.7-42.1,6.9-42.5,9.2c0.7,2.2,16.2,5.4,43.3,3.7c27-1.7,42-6.9,42.5-9.2C335.6,208.8,325.5,206.4,307.5,206.4z" style="fill:#ff9b19"/></g><path d="M293.5,222.1c-22.4,1.4-42.3-1.2-45.6-4.9c-1.1,3.1,8.7,20,45,17.7c32-2,46.5-15.1,46.5-23.6 C334.9,215.2,318,220.5,293.5,222.1z" style="fill:#ff9b19"/></g><g><path d="M287.7,341.9c-51.9-2-100.6-0.2-142.1,4.7l5.8,21.9c-11.8,1.7-24.2,2-24.2,2l-5.1-20.7 C56,360.1,12.9,378.9,12,401.9c-1.5,39.1,119.6,75.5,270.4,81.5s274.3-20.9,275.7-59.9S438.5,347.9,287.7,341.9z M276.9,363.8 c47.4,0.8,92.5,5,126.9,11.9c0.8,0.2,1.4,1,1.2,1.8c-0.1,0.7-0.8,1.3-1.5,1.3c-0.1,0-0.2,0-0.3,0c-34.2-6.8-79.1-11-126.3-11.8 c-0.8,0-1.5-0.7-1.5-1.6C275.4,364.4,276.1,363.8,276.9,363.8z M460.9,413.2C444,428.5,375.6,442,295,442c-5.4,0-10.8,0-16.2-0.1 c-49.4-0.8-95.7-5.3-130.5-12.6c-25.1-5.3-57.1-16.4-56.8-29.6c0.1-5.5,7.4-11.5,17.7-16c0.8-0.3,1.7,0,2,0.8s0,1.7-0.8,2 c-9,3.9-13.7,8.1-13.8,12.1c-0.1,8.4,19.5,17.5,52.4,24.4c34.6,7.3,80.8,11.7,130,12.6c86.9,1.5,162.6-8.9,180.1-24.8 c0.6-0.6,1.6-0.5,2.1,0.1C461.6,411.7,461.6,412.6,460.9,413.2z" style="fill:#2568ef"/><path d="M133.8,472.4c0,0,76.3,16.1,153.5,19s140.4-6.4,140.4-6.4l-14.9,25.8c0,0-39,16.9-129.3,11.7 c-102.4-5.8-133.9-19.8-133.9-19.8L133.8,472.4z" style="fill:#2568ef"/><polygon points="69.6 508.8 103.9 505.3 86.7 472.8" style="fill:#ff564f"/><path d="M509.5,368.5c-55.8-9.4-109.6,28.1-109.6,28.1s-15.8-11.5-51.8-12.5c-47.1-1.4-60.6,16-60.6,16 c-18.2,18,31.6,35.5,31.6,35.5c50.7-1.4,78.3-6.1,78.3-6.1c3.2-7.6,21.5-29.9,66.4-37.7c27.5-4.8,47.1,0,74.7,9.7 s44.4,22.2,49.1,9.8C592.3,398.9,565.3,377.9,509.5,368.5z M394.8,407.1c-1,4.9-6.8,13.5-29.1,16.3c-6.8,0.9-13.7,1.2-20.5,1.2 c-20.4,0-39.4-4.5-48.4-8.9c-3.5-1.7-5.3-4.9-5.6-7.5c-0.4-4.7,5.2-8.7,5.4-8.9c0.5-0.3,1.1-0.2,1.4,0.3s0.2,1.1-0.2,1.4 c-1.3,1-4.8,4.1-4.6,7c0.1,1.8,1.6,3.4,4.4,4.7c11.7,5.8,41,9.9,67.8,6.5c22.2-2.8,26.7-9.1,27.4-12.6c0.7-3.4-1.8-6.7-4.3-8.2 c-0.5-0.3-0.6-0.9-0.4-1.4c0.3-0.5,0.9-0.7,1.4-0.4C392.7,398.6,395.7,402.6,394.8,407.1z" style="fill:#ff564f"/><polygon points="213.5 422.6 227.2 394.3 241.3 416.7" style="fill:#ff9b19"/><polygon points="463.3 510.8 477.9 486.3 498.6 508.8" style="fill:#ff9b19"/><g><g><path d="M492.4,448.4c-0.2,0-0.3,0-0.5-0.1l-45-15.8c-0.6-0.2-1-0.8-1-1.5s0.4-1.3,1.1-1.5 c0.3-0.1,32.7-10.3,44.4-31.6c0.3-0.6,1-0.9,1.7-0.7l37.3,9.7c0.7,0.2,1.1,0.8,1.1,1.5s-0.4,1.3-1.1,1.5l-25.2,7.1l15.1,11.8 c0.5,0.4,0.7,1.1,0.5,1.8c-0.2,0.6-0.8,1.1-1.5,1l-29.3-0.9l3.9,15.8c0.1,0.6,0,1.1-0.4,1.5 C493.2,448.3,492.8,448.4,492.4,448.4z M452.1,431l38.2,13.4l-3.7-15c-0.1-0.5,0-1,0.3-1.4s0.7-0.6,1.2-0.6l26.6,0.8l-13.8-10.7 c-0.5-0.4-0.7-1-0.6-1.5c0.1-0.6,0.5-1.1,1.1-1.2l22.6-6.4l-30.6-8c-6.6,11.2-18.3,19.3-27.2,24.1 C460.5,427.6,455.5,429.7,452.1,431z" style="fill:#ff9b19"/></g><ellipse cx="499.6" cy="452.5" rx="3.2" ry="3.3" style="fill:#ff9b19"/><ellipse cx="528.2" cy="434.2" rx="3.9" ry="4" style="fill:#ff9b19"/><ellipse cx="539.3" cy="411.4" rx="3.2" ry="3.3" style="fill:#ff9b19"/></g></g><polygon points="435.7 250 448.6 220.4 457.2 250" style="fill:#ff9b19"/><g><path d="M409.8,325.5c-0.4,0-0.8-0.2-0.9-0.6c-0.2-0.5,0-1.1,0.5-1.4c0.2-0.1,15.9-7.1,25.5-24.3 c9.6-17.2,9.7-33.1,9.7-33.2c0-0.6,0.5-1,1-1c0.6,0,1,0.5,1,1c0,0.7-0.1,16.6-10,34.3c-9.9,17.8-25.8,24.8-26.4,25.1 C410.1,325.5,409.9,325.5,409.8,325.5z" style="fill:#324a58"/></g><g><path d="M374.8,318.5c-0.4-0.1-0.7-0.5-0.7-0.9c0-0.6,0.4-1.1,0.9-1.1c0.2,0,17.3-1.8,31.7-15.1 c14.5-13.4,19.5-28.4,19.6-28.6c0.2-0.5,0.8-0.8,1.3-0.7c0.5,0.2,0.8,0.8,0.6,1.3c-0.2,0.6-5.3,15.7-20.2,29.5 c-15,13.8-32.2,15.6-32.9,15.7C375.1,318.5,375,318.5,374.8,318.5z" style="fill:#324a58"/></g><g><path d="M372.3,88.3c0,0-2.9-11.3,2.5-21.3s15.8-11.8,17.2-4.5s-3.3,21.6-11.8,27.5C373.9,94.4,372.3,88.3,372.3,88.3 z" style="fill:#ffe7e6;stroke:#2568ef;stroke-width:2.3;stroke-miterlimit:10"/><g><path d="M395.8,104.1c-7.8,0-15.2-3.1-17.6-7.4c-1-1.7-1-3.5-0.1-5.1c0.3-0.4,6.2-10.1,19.9-10.9c0.5,0,1,0,1.4,0 c6.6,0,14.3,3.1,15.5,9.9c0.7,3.7-1,8.6-7.7,11.4C403.5,103.3,399.7,104.1,395.8,104.1z" style="fill:#ffe7e6"/><path d="M399.4,81.8c15.1,0,19.8,13.9,7.4,18.9c-3.7,1.5-7.5,2.1-11,2.1c-10.9,0-19.4-6.1-16.7-10.7 c0,0,5.7-9.6,19-10.3C398.5,81.8,398.9,81.8,399.4,81.8 M399.4,79.4L399.4,79.4c-0.5,0-1,0-1.5,0c-14.3,0.8-20.6,11-20.9,11.4 l0,0l0,0c-1.1,1.9-1.1,4.2,0.1,6.3c2.6,4.7,10.4,8,18.6,8c4.1,0,8.1-0.8,11.9-2.3c7.4-3,9.2-8.5,8.4-12.7c-0.6-3-2.5-5.8-5.4-7.7 C407.6,80.5,403.7,79.4,399.4,79.4L399.4,79.4z" style="fill:#2568ef"/></g><ellipse cx="373.9" cy="94.4" rx="10.4" ry="9.5" transform="matrix(0.9588 -0.284 0.284 0.9588 -11.4152 110.0768)" style="fill:#324a58"/></g><g><path d="M449.4,212.3c0,0,1.3-10.6-5-17.6c-9.8-10.9-20.7-3.4-13.1,9.3C438.8,216.7,445.4,215.1,449.4,212.3z" style="fill:#ffe7e6;stroke:#2568ef;stroke-width:2.4;stroke-miterlimit:10"/><path d="M420.6,218.8c-0.2-6.1,13.7-10.8,22.6-5.7s-0.2,10.8-8.8,11.5S420.7,224.2,420.6,218.8z" style="fill:#ffe7e6;stroke:#2568ef;stroke-width:2.4;stroke-miterlimit:10"/><ellipse cx="448.1" cy="219.6" rx="8.1" ry="8.3" style="fill:#324a58"/></g><g><ellipse cx="208.1" cy="347.5" rx="28" ry="28.8" style="fill:#ffe7e6"/><ellipse cx="209.4" cy="364.9" rx="6.2" ry="6.4" style="fill:#324a58"/><path d="M250,335.8c-3.2-31.9-24.9-50.6-55.6-50.6s-55.6,24.5-55.6,54.8c0,30,22.5,52.3,52.7,52.7l7.2,12.9 c0.3,0.5,0.8,0.8,1.3,0.8h0.1c0.6-0.1,1.1-0.5,1.3-1l3.7-11l6,8.8c0.4,0.5,1,0.8,1.7,0.6c0.6-0.2,1.1-0.7,1.1-1.4l0.8-14.3 C236,379.1,252.3,358.4,250,335.8z M199.8,401l-4.7-8.4c2.6-0.1,5.3-0.5,7.8-1L199.8,401z M211.3,397.6l-4.7-6.8 c1.7-0.5,3.4-1,5.1-1.6L211.3,397.6z M208.1,375.3c-15.5,0-28-12.7-28-28.4c0-15.7,12.5-28.4,28-28.4s28,12.7,28,28.4 C236.1,362.6,223.6,375.3,208.1,375.3z" style="fill:#324a58"/><path d="M191.8,215.4c-14.9-40.1-47.2-72.4-47.2-72.4c-12.4,30.6-0.6,74.3,2.9,85.9c6,3.5,12.7,8.2,18,14 c11.9,13,12.6,26.1,12.6,26.6c0,0.6-0.4,1.1-1,1.1l0,0c-0.5,0-1-0.4-1-1c0-0.1-0.7-12.9-12.1-25.3c-12.1-13.3-32.4-20.8-32.6-20.9 c-0.2-0.1-0.3-0.2-0.4-0.3c-9.6-3.9-18.4-7.2-27.5-16.3c-14.4-14.3-7.3-49.6-7.3-49.6c-1.9,0.2-3.7,0.3-5.6,0.2 c-1.3,2.9-2.6,7.1-3.5,12.7c-2.2,13.3-0.6,17.6-0.6,17.6c0.2,0.5,0,1.1-0.5,1.4c-0.1,0.1-0.3,0.1-0.4,0.1c-0.4,0-0.8-0.2-0.9-0.6 c-0.1-0.2-1.9-4.6,0.4-18.8c0.9-5.5,2.1-9.6,3.4-12.6c-2.1-0.3-4.1-0.7-6.1-1.2c-1.6,3.5-3.5,8.4-4.4,13.9c-2,11.8-1,18-1,18.1 c0.1,0.6-0.3,1.1-0.8,1.2c-0.1,0-0.1,0-0.2,0c-0.5,0-0.9-0.4-1-0.9c0-0.3-1.1-6.6,1-18.8c0.9-5.5,2.8-10.5,4.4-14.1 c-2-0.6-3.8-1.4-5.4-2.1c-1.5,3.4-3.4,8.2-5.1,13.6c-3.4,11.1-2.7,19.5-2.7,19.6c0,0.6-0.4,1.1-0.9,1.1h-0.1c-0.5,0-1-0.4-1-0.9 c0-0.4-0.7-8.9,2.8-20.4c1.7-5.5,3.6-10.3,5.2-13.8c-3.6-1.7-5.8-3.3-5.8-3.3c-13,16.3-16.7,39.4-17.5,45.7 C65,207.3,78,217.1,89.4,225.6c28.5,21.3,45.6,34.2,52.4,57.6c0.2,0.6-0.1,1.1-0.7,1.3c-0.1,0-0.2,0-0.3,0c-0.4,0-0.8-0.3-1-0.7 c-6.5-22.8-22.5-34.8-51.6-56.5c-15.8-11.9-35.1-26.3-58.4-46.7l-10.1-8.1c0,0-3.3,35.7,7.6,60.9c5.6,12.9,10.9,22.9,14.7,29.6 c9.1,14.1,18.4,22.9,34.2,36.9c24.6,22,46.2,19.6,46.4,19.6c0.6-0.1,1.1,0.3,1.1,0.9c0.1,0.6-0.3,1.1-0.9,1.2 c-0.2,0-1.1,0.1-2.7,0.1c-6.7,0-24.8-1.9-45.2-20.2c-11.5-10.3-19.7-17.9-27-26.9c-3.7,65.8,44.2,90.9,62.7,94.7 c1.9,0.4,3.8,0.7,5.7,0.9l1.8,17.7c0,0.3,0.2,0.6,0.3,0.8c0.2,0.6,0.5,1.1,1.1,1.5l22.2,14.4c0.4,0.3,0.9,0.4,1.3,0.4 c0.8,0,1.7-0.4,2.1-1.2c0.7-1.2,0.4-2.8-0.8-3.6l-22.2-14.4c-0.3-0.2-2-10.5-2.7-15.3c4.7,0.3,9.3,0.2,13,0l1,10.6 c0.1,0.7,1.6,2.1,2,2.3l17.4,11.2c0.4,0.3,0.9,0.4,1.3,0.4c0.8,0,1.7-0.4,2.1-1.2c0.7-1.2,0.4-2.8-0.8-3.6L138,379 c-0.4-0.3-1.7-5.6-2.4-8.7c3-0.2,4.8-0.5,4.8-0.5c-0.4-0.4-10.1-13.8-6.1-39.2c3.1-19.7,11.1-32.1,27.2-41.8c21.9-13.2,43-8,43-8 S209.4,262.6,191.8,215.4z" style="fill:#324a58"/></g></g></svg>