<svg xmlns="http://www.w3.org/2000/svg" xmlns:xlink="http://www.w3.org/1999/xlink" id="Layer_2_1_" x="0" y="0" version="1.1" viewBox="0 0 600 600" xml:space="preserve" style="enable-background:new 0 0 600 600"><g><g><g><path d="M397.7,84.9c-7.4,2.5-15.3,9.7-18.7,16l0,0c-4.8-14.1-19.2-23.6-34.2-18.5c-11.6,3.9-20.1,16.3-20.7,27.3 l0,0c-6.3-11.4-20.9-18.7-34.4-14.1c-11.9,4-21.8,17.3-22.1,28.5l0,0c-6.7-10.3-20.3-17-33.1-12.6s-21.5,18.7-20.6,30.9l0,0 c-7.1-8.6-20.1-13.9-31.9-9.9c-13.3,4.5-21.8,20-20.1,32.7l0,0c-7.3-7.6-20.8-11.2-31.9-7.5c-14.9,5.1-21.4,19.8-16.8,33.9l0,0 c-6.5-3.1-17.3-3.3-24.9-0.7c-10.4,3.5-16,9.9-18.1,22.2c-1.4,8.2,0,16.7,5.3,25.5c0.1,0.2,0.2,0.5,0.3,0.7 c3.5-3.5,7.9-6.3,13-8.1c16-5.4,32.9,1.6,37.7,15.7c0.1,0.3,0.2,0.7,0.3,1c3.5-7.1,10.1-13.1,18.8-16.1 c15.3-5.2,32.8,0.7,38.4,13.6c0.5-0.1-0.5,0.1,0,0c0.2-11.6,8.6-22.9,21.6-27.3c14.7-5,30,0.5,36.2,12.3 c-1-12.4,7.7-24.9,21.5-29.7c14.2-4.8,29,0.1,35.6,11.1l0,0c-2.6-13.3,7-27.5,21.9-32.5c13-4.4,26.5-1.1,33.7,8l0,0 c-2.7-13.3,7.8-27.6,22.7-32.7c10.3-3.5,20-1.8,27.6,3.6l0,0c0,0-1.6-4-2.6-6.8c-4.8-14.1,4.3-31,20.3-36.5 c5.1-1.7,10.4-2.2,15.3-1.6C428.2,84.8,409.6,80.8,397.7,84.9z" style="fill:#2568ef"/></g><g><path d="M221.3,37.2C211.9,24.8,204.7,18.3,202,16c-11.9,39.9,5.3,101.7,9.7,116.4c0.8-11.1,9.5-21.7,21.2-25.7 c11.5-3.9,23.5-0.4,30.6,7.7C248,76.1,232.1,51.3,221.3,37.2z" style="fill:#2568ef"/><path d="M199.6,16.9C168.4,40,159.2,76.5,157,103.4c-1.8,21.6,0.6,40.5,2.1,49.5c1.3-10.8,10-21.3,21.3-25.1 c10.9-3.7,22.3-0.8,29.6,6.4C206.3,121.8,188.1,58.5,199.6,16.9z" style="fill:#2568ef"/><path d="M155,103.3c2.1-26.4,11-61.9,40.2-85.6c-39.3,15.3-65.6,43.5-78.4,84c-8.6,27.4-8.8,54.1-7.7,70.7 c2.3-9,9.2-16.9,19-20.2c10.5-3.6,22.3-1.3,29.7,5.3C156.7,151.6,152.9,129.4,155,103.3z" style="fill:#2568ef"/><path d="M114.8,101c10.3-32.6,29.2-57.4,56.5-74C98.3,64.5,56,138,67.3,208.6c1.6-9.9,8.8-18.8,19.5-22.4 c7.1-2.4,15.3-2.6,21.7-0.1C106.8,174.9,103,138.6,114.8,101z" style="fill:#2568ef"/><path d="M247.3,24.5c-19.6-8.1-36.5-9.2-43-9.2c3.3,2.9,9.9,9.2,18.6,20.5c11,14.4,27.4,39.8,43.2,79.4 c1.5-10.5,10.9-20.6,22-24.4c11.7-4,24.3-0.5,31.6,8C300,54.1,269.7,33.7,247.3,24.5z" style="fill:#2568ef"/><path d="M227.7,7.1c15.2-1.9,30.6-1.2,45.9,2.3c20,4.5,39.5,13.5,57.9,26.6c29.7,21.3,48.1,47.6,48.6,57.7 c3.5-5.7,9.4-10.3,16.3-12.6c11.9-4.1,24.5-0.2,31.6,8.6C394,23.4,311.6-10.5,227.7,7.1z" style="fill:#2568ef"/><path d="M330.3,37.7c-18.2-13-37.4-21.8-57.1-26.3c-21.8-4.9-43.6-4.3-65.1,1.9c8.2,0.5,23.2,2.3,40.1,9.3 c23.2,9.5,54.8,30.9,74.6,78.3c1.5-10.2,9.6-19.5,20.4-23.2c13.2-4.5,27.2,0.6,33.6,11.5C372.6,78.3,356.7,56.6,330.3,37.7z" style="fill:#2568ef"/></g><g><path d="M353.8,401.9c-0.3,0-0.5-0.1-0.8-0.2l-275.8-161c-0.7-0.4-1-1.4-0.6-2.1c0.4-0.7,1.4-1,2.1-0.6l274,159.9 L435.3,113c0.2-0.8,1.1-1.3,1.9-1.1c0.8,0.2,1.3,1.1,1.1,1.9l-83.2,286.9c-0.1,0.5-0.5,0.8-0.9,1 C354.2,401.9,354,401.9,353.8,401.9z" style="fill:#324a58"/></g><g><path d="M353.8,401.9c-0.4,0-0.7-0.1-1-0.4L112.3,192.8c-0.7-0.6-0.7-1.6-0.2-2.2c0.6-0.7,1.6-0.7,2.2-0.2 l238.1,206.7l25-296.4c0.1-0.9,0.8-1.5,1.7-1.4c0.9,0.1,1.5,0.8,1.4,1.7l-25.2,299.5c-0.1,0.6-0.4,1.1-1,1.3 C354.2,401.9,354,401.9,353.8,401.9z" style="fill:#324a58"/></g><g><path d="M353.8,401.9c-0.5,0-0.9-0.2-1.2-0.6L160.8,166.2c-0.5-0.7-0.4-1.7,0.2-2.2c0.7-0.5,1.7-0.4,2.2,0.2 l188.4,231.1l-29.1-285.4c-0.1-0.9,0.5-1.6,1.4-1.7s1.6,0.5,1.7,1.4l29.6,290.6c0.1,0.7-0.3,1.3-1,1.6 C354.2,401.9,354,401.9,353.8,401.9z" style="fill:#324a58"/></g><g><path d="M353.8,401.9c-0.6,0-1.1-0.3-1.4-0.8L212.6,143.2c-0.4-0.8-0.1-1.7,0.6-2.1c0.8-0.4,1.7-0.1,2.1,0.6 l132.1,243.8l-81.3-260.8c-0.3-0.8,0.2-1.7,1-2s1.7,0.2,2,1l86.1,276.2c0.2,0.8-0.1,1.6-0.9,1.9 C354.2,401.9,354,401.9,353.8,401.9z" style="fill:#324a58"/></g></g><g><path d="M501.4,205.2c0,0,6.5-28.4,26.4-24.1c20,4.2,8,28.1,8,28.1s19-11.5,29.6,1.5c10,12.4-5.7,22.6-12.2,20.8 c0,0,9.7,15.2-11,24.6c-20.7,9.3-31-10.8-31-10.8s-0.4,8-10.3,9.7c-9.9,1.7-11-10.9-11-10.9s-23,14.6-41.2-4.1 c-16.6-17.1,2.3-44.2,23.9-45.7C496,192.8,501.4,205.2,501.4,205.2z" style="fill:#ff9b19"/><path d="M233.5,392.3c-5.3-8.5-17-10.5-30.1-5.9c1.2-11.8-4-23-14.1-27.7c-13.2-6.2-29.6,1.1-36.7,16.3 c-2.5,5.3-3.5,10.8-3.2,16c-2.7-1.9-5.9-3.4-9.5-4.2c-12-2.7-23.4,3-25.6,12.6c-1.9,8.6,4.1,17.4,13.9,21.2 c-0.6,2.6-0.6,5.3,0.1,7.9c2.9,11.1,17.4,16.8,32.3,12.9c7-1.9,12.8-5.5,16.8-10c7.7,8.7,28.1,8.4,43.3-1.1 C236.8,420,240.3,403,233.5,392.3z" style="fill:#ff9b19"/><path d="M290.7,568.4c0.9-2.5,1.1-5.2,0.4-7.8c-2-7.4-10.3-11.6-18.5-9.4c-3.4,0.9-6.2,2.8-8.2,5.2 c-0.5-3.5-2-7-4.6-9.9c-6.9-7.7-18.7-8.4-26.4-1.5c-5.6,5-7.4,12.5-5.5,19.2c-2.3-0.7-4.7-1.2-7.3-1.2 c-11.2-0.1-20.4,7.2-20.5,16.3s8.9,16.6,20.1,16.8c7.2,0.1,13.6-2.9,17.2-7.5c3.6,5.2,10.4,8.8,18.3,8.9 c8.3,0.1,15.6-3.8,19.2-9.5c3,2.1,7.1,3.4,11.7,3.5c9.2,0.1,16.7-5.1,16.8-11.5C303.5,574.4,298,569.7,290.7,568.4z" style="fill:#ff9b19"/></g><g><path d="M280.8,439.6l147-67.3c0.8-0.4,1.8,0,2.1,0.9l16.8,48.2c0.3,0.8-0.1,1.6-0.8,1.9l-138.5,64.2 c-0.7,0.3-1.6,0.1-2-0.7l-25.3-45.2C279.7,441,280,440,280.8,439.6z" style="fill:#ff564f"/><path d="M313.7,491l131.9-61.1l10.7,26.3c0,0-8.6,7.5-13.1,23.2c-4.7,16.4-1.1,27.7-1.1,27.7l-68.5,30.1 c0,0-5.1-11-19.5-16.9c-13.3-5.5-27.5-2.6-27.5-2.6L313.7,491z" style="fill:#ff564f"/><path d="M460.1,459.5c0,0-11.4,10.1-13.8,26.4s1,23.9,1,23.9l27-12.3c1.1-0.5,1.6-1.8,1.1-2.9L460.1,459.5z" style="fill:#ff564f"/><path d="M326.5,524.4c0,0,13.6-5.1,27,1.9c10.9,5.6,17.2,14.4,17.6,16.6l-25.6,12.2c-1.7,0.8-3.6,0.1-4.5-1.5 L326.5,524.4z" style="fill:#ff564f"/><g><path d="M466.1,567.2c-4.1,0.4-41.9,5.7-68.6-19c-15.9-14.7-22.8-38.5-22.8-66c0-7.5,0.5-14.3,1.2-20.6 c-3.7-9.2-5.6-16.6-6.2-19.6c-4.9-22,4.9-34.5,8-37.8c4.9-5.2,10.9-7.5,16.4-6.4c3.3,0.7,5.6,2.2,6.8,4.6 c2.2,4.3,1.2,8.9-2.1,16.6c-3.8,8.7-10.5,21.9-13.2,41.3c6.6,15.4,18.8,35.4,40.2,46.9c25.3,13.7,52.2,12.9,90.1-5.1 c8.8-4.2,11.5-0.5,12.6,2c2.2,5.1-0.1,7.5-2.6,8.5c-41.4,17.2-76.6,18.2-104.5,3.1c-17.4-9.4-27.3-25.5-35.3-39.2 c-1-1.9-4.6,0.8-4.6,4.5c-0.3,24.6,6.5,41.5,20.3,54.3c24.5,22.7,53.3,19,61.6,17.8c0,0,10.5-2.4,10.8,7.2 C474.3,565.9,469.9,566.9,466.1,567.2z M380,409.3c-4,5.6-6.3,17.1-3.3,30.8c0.1,0.6,2.4,1.2,2.7,2.3c3-11.8,8.2-17.6,11-24.1 c1.3-2.9,3.4-9.4,3.8-11.2C395.6,400.4,385.9,401.2,380,409.3z" style="fill:#2568ef"/></g><circle cx="381.8" cy="460.7" r="34.6" style="fill:#324a58"/><g><path d="M375.6,486.8c-0.1,0-0.3,0-0.4-0.1c-0.3-0.1-0.5-0.3-0.6-0.6l-10.6-25c-0.2-0.4-0.1-0.9,0.2-1.2 c0.3-0.3,0.8-0.4,1.2-0.2l12,5.7l-0.4-15.7c0-0.4,0.2-0.8,0.7-1c0.4-0.2,0.9-0.1,1.2,0.3l9.9,10.7l3.5-12.3 c0.1-0.4,0.5-0.7,0.9-0.8c0.4,0,0.8,0.2,1,0.6l11.2,24.5c0.2,0.5,0,1.1-0.5,1.4l-29,13.5C375.9,486.7,375.8,486.8,375.6,486.8z M367,462.9l9.1,21.4l27.1-12.6l-9.6-21l-3.3,11.3c-0.1,0.4-0.4,0.6-0.8,0.7s-0.8,0-1-0.3l-9.3-10l0.3,14.6 c0,0.4-0.2,0.7-0.5,0.9c-0.3,0.2-0.7,0.2-1,0.1L367,462.9z" style="fill:#ffe7e6"/></g><g><path d="M360.5,457.9c-2.6,0-4.8-2.1-4.8-4.8c0-2.6,2.1-4.8,4.8-4.8s4.8,2.1,4.8,4.8S363.2,457.9,360.5,457.9z M360.5,450.2c-1.6,0-3,1.3-3,3c0,1.6,1.3,3,3,3s3-1.3,3-3S362.2,450.2,360.5,450.2z" style="fill:#ffe7e6"/></g><g><path d="M375.1,445c-2.7,0-4.9-2.2-4.9-4.9c0-2.7,2.2-4.9,4.9-4.9c2.7,0,4.9,2.2,4.9,4.9 C379.9,442.9,377.8,445,375.1,445z M375.1,437.1c-1.7,0-3.1,1.4-3.1,3.1s1.4,3.1,3.1,3.1s3.1-1.4,3.1-3.1 S376.8,437.1,375.1,437.1z" style="fill:#ffe7e6"/></g><g><path d="M392.7,443.6c-0.9,0-1.8-0.3-2.6-0.8c-1-0.7-1.7-1.8-1.9-3c-0.2-1.2,0.1-2.4,0.8-3.4c0.7-1,1.8-1.7,3-1.9 c1.2-0.2,2.4,0.1,3.4,0.8c1,0.7,1.7,1.8,1.9,3c0.4,2.5-1.2,4.8-3.7,5.3C393.2,443.6,393,443.6,392.7,443.6z M392.7,436.2 c-0.2,0-0.3,0-0.5,0c-0.7,0.1-1.4,0.5-1.8,1.1s-0.6,1.3-0.5,2.1c0.1,0.7,0.5,1.4,1.1,1.8s1.3,0.6,2.1,0.5 c1.5-0.3,2.5-1.7,2.3-3.2c-0.1-0.7-0.5-1.4-1.1-1.8C393.9,436.4,393.3,436.2,392.7,436.2z" style="fill:#ffe7e6"/></g></g><g><ellipse cx="420.3" cy="323.7" rx="4.1" ry="4.4" transform="matrix(1.073467e-02 -0.9999 0.9999 1.073467e-02 92.1222 740.5286)" style="fill:#324a58"/><path d="M465.8,379.6l-17.7-18.8c2.6-6.2,1.6-13.8-3.3-19.4c-3-3.5-7-5.6-11.1-6.3c0.8-1.1,1.4-2.3,1.9-3.6 c0.4-0.2,0.8-0.3,0.9-0.4l8.7-3.9c0.4-0.2,0.6-0.6,0.6-1s-0.3-0.8-0.6-1l-6.4-2.6l5.3-4.4c0.3-0.3,0.5-0.7,0.3-1.1 c-0.1-0.4-0.5-0.7-0.9-0.7l-9.7-1.2c-3.1-4.6-8.2-7.6-13.9-7.9c-10.8-0.5-19.3,8.4-18.6,18.9c0.5,8.4,6.8,15.1,14.7,16.4 c-4.4,6.6-3.9,15.8,1.7,22.3c1,1.2,2.2,2.2,3.5,3.1c-0.1,0.7-0.2,1.6-0.2,2.5c-0.1,3.7,1.1,6.1,1.7,7.1c0.1,0.2,0.5,0.2,0.6-0.1 l2.8-7.1c1.6,0.5,2.2,0.9,3.9,1l-2.2,7.4c-0.5,1,0.3,1.3,1,1.2c1.8-0.4,5.3-2.1,7.2-6.3c0.6-1.3,1-2.3,1.2-3.1 c0.7-0.2,1.3-0.5,2-0.7l10.5,21.9c0.3,0.6,1.3,0.5,1.4-0.2c0.7-3,1.7-8.8,1.2-14c0,0,7.6,2.6,12.9,3.2 C465.8,380.9,466.2,380.1,465.8,379.6z M419.9,330.6c-4.3,0-7.7-3.3-7.6-7.3c0-4,3.5-7.2,7.8-7.2s7.7,3.3,7.6,7.3 C427.6,327.4,424.1,330.6,419.9,330.6z M442.1,326.3l-5.7,2.6c0.3-1.5,0.5-3.1,0.4-4.8L442.1,326.3z M440.8,318.2l-4.3,3.6l0,0 c-0.3-1.5-0.7-2.9-1.3-4.2L440.8,318.2z" style="fill:#324a58"/></g><path d="M127,248.1" style="fill:none;stroke:#324a58;stroke-width:3;stroke-linecap:round;stroke-linejoin:round;stroke-miterlimit:10"/></g></svg>