<?xml version="1.0" encoding="utf-8"?>
<!-- Generator: Adobe Illustrator 23.0.6, SVG Export Plug-In . SVG Version: 6.00 Build 0)  -->
<svg version="1.1" id="Layer_2_1_" xmlns="http://www.w3.org/2000/svg" xmlns:xlink="http://www.w3.org/1999/xlink" x="0px" y="0px" viewBox="0 0 600 600" style="enable-background:new 0 0 600 600;" xml:space="preserve">

<g id="Layer_3">
</g>
<g>
	<g>
		<g>
			<path d="M488.9,142.2c-0.4,0-0.7-0.2-1.1-0.4c-6.7-5.7-13.8-11.1-21.3-16c-0.7-0.5-1-1.4-0.6-2.2L476,101
				c-6.6-5.4-12.7-9.3-21-13.3l-9.9,23.4c-0.2,0.4-0.6,0.8-1,1c-0.5,0.2-1,0.1-1.4-0.1c-5.6-2.8-11.4-5.4-17.2-7.8
				c-0.9-0.4-1.3-1.4-1-2.3l8.9-22.8c-7.5-2.4-16.5-5.1-23.8-6.6l-7.3,21.7c-0.3,0.9-1.3,1.4-2.2,1.1c-5.8-1.7-11.8-3.3-17.8-4.6
				c-0.5-0.1-0.9-0.4-1.1-0.8s-0.3-0.9-0.2-1.4l6.1-19.5c-9.8-1-18.5-1.3-21.6-1.3l-5.9,17.6c-0.3,0.8-1,1.3-1.9,1.2
				c-12.5-1.6-20.3-1.6-20.4-1.6c-1,0-1.5-2,0-2.5c0.3-0.1,7.5-1,19.4,0.5l5.8-17.4c0.2-0.7,0.9-1.2,1.7-1.2
				c0.1,0,12.1,0.2,25.4,1.6c0.5,0.1,1,0.3,1.3,0.8c0.3,0.4,0.4,1,0.2,1.5L385,87.9c4.9,1.1,9.7,2.4,14.5,3.8l7.3-21.6
				c0.3-0.8,1.1-1.3,2-1.2c8.3,1.6,19,4.9,27.5,7.6c0.5,0.1,0.8,0.5,1,0.9s0.2,0.9,0.1,1.4l-8.9,23c4.8,2,9.6,4.2,14.2,6.5l9.8-23.4
				c0.2-0.4,0.5-0.8,1-1c0.4-0.2,0.9-0.2,1.4,0c9.8,4.5,16.8,9,24.4,15.4c0.6,0.5,0.8,1.3,0.5,2.1l-10.1,22.4
				c7.1,4.8,13,9.9,19.4,15.4c0.7,0.6,1.8,1.8,1.2,2.5C490,142,489.4,142.3,488.9,142.2z" style="fill:#2568EF;"/>
		</g>
		<path d="M355.3,124.2l17.8,4.7c0,0,3.4-11.6,4-14.7c0.7-3.9,4.9-13.8-5.1-15.3c-8.8-1.3-10.6,6.8-12,10.7
			C358.4,113.6,355.3,124.2,355.3,124.2z" style="fill:#2568EF;"/>
		<path d="M390.9,135.2L409,142c0,0,3.9-11.3,4.8-14.3c1.2-3.8,6.9-15.5-3.9-17.9c-8.7-1.9-11.6,7.4-13.6,11.1
			S390.9,135.2,390.9,135.2z" style="fill:#2568EF;"/>
		<path d="M431.3,150.1l16.5,9.2c0,0,7.2-14.2,8.5-17.2c2.6-5.8,1.1-13-5.6-14.8c-6.9-1.9-10.9,4.8-12.9,8.8
			C435.8,140,431.3,150.1,431.3,150.1z" style="fill:#2568EF;"/>
	</g>
	<g>
		<path d="M224.4,347.3c-10.6,4.3-20.9,6.6-30.6,7c-14.5,0.5-27.9-4.3-39.8-12.3c4.8,26.1,14.5,46,14.5,46l236-73.1
			l73.9,36.2l39.5,77.4c20.9-32.9,4-97.2-24.7-142.9s-53-92.6-130.1-144.2c-59.6-39.8-100.3-30.4-134-21.1S172,148.4,172,148.4
			s-57.7,34-104.3,136.9c-47,103.7-0.9,266.8,122.2,294s230.8-97.8,230.8-97.8c23.2,11,48.7,11.2,65.1-1.4
			c10.8-8.2,10-21.2,9.3-24.5c-6.6,9.5-21.7,12.9-27.2,13.1c-2.2,0.1-3.5-0.1-3.7-0.2c-0.8-0.1-1.4-0.9-1.2-1.7
			c0.1-0.8,0.9-1.2,1.7-1.2c11.5,0,24.2-4.5,30.6-13.9c6.3-11.8,1-20.7-1-24.6c-9.9,19.3-30.8,19.7-34.1,19.8c-0.2,0-0.4,0-0.4,0
			c-0.8,0-1.5-0.7-1.5-1.5s0.7-1.5,1.5-1.5c0.2,0,23.6,0.1,33.2-20.4c7.3-15.6-1.4-28.4-5.7-32.8c-1.5,9.9-5.6,15.7-12.9,22.3
			c-10,8.9-20.1,8.7-20.5,8.7c0,0,0,0-0.1,0c-0.8,0-1.5-0.6-1.6-1.4s0.6-1.5,1.4-1.6c0.2,0,9.7-0.8,18.8-9.1
			c6.7-6.1,10.3-10.1,11.9-21c4.3-28.8-21.8-38.9-21.8-38.9l-5.5,41.2c-23,19.7-38.4-2.6-38.4-2.6l4.7-36.6
			c-6.9,2.1-17.3,6.2-24.6,23.3c-7.2,17.1,3,43.5,3,43.5s-31.4,25.3-98,37.1c-66.6,11.8-113.9-23.7-132.1-46.9
			c-14.3-18.2-31.3-69.8-23.3-116.8c4.8-28.5,19.1-60.5,25.5-73.6c3.2-6.5,5.5-3.3,4.6-0.2c-4.7,15.9-13.8,30.8-20.3,52.9
			c18.5-3.9,27.8-22.8,27.9-23c0.4-0.7,1.3-1.1,2-0.7c0.7,0.4,1.1,1.3,0.7,2c-0.4,0.9-10.5,21.4-31.5,24.9
			c-2.3,8.6-4.2,18.2-5.2,29.4c-1.1,11.7-0.3,22.5,1.4,33.4c19.3,14.5,43.5,15.5,69.9,4.7c42.7-17.3,37.4-68.5,37.3-69
			c-0.1-0.8,0.5-1.6,1.3-1.7s1.6,0.5,1.7,1.3c0.1,0.6,1.5,14.1-2.5,30.1C255.6,323.6,243,339.8,224.4,347.3z M299.7,286
			c0.3-0.8,1.2-1.1,2-0.8c0.6,0.3,64,25.4,83.1-12.2c15.9-31.4,10.6-61.2-15.8-88.7c-0.6-0.6-0.6-1.5,0-2.1s1.5-0.6,2.1,0
			c7,7.3,12.5,14.8,16.7,22.5c3.5-6.9,3.3-13.9-0.5-20.9c-3-5.5-7.3-9-7.3-9.1c-0.6-0.5-0.8-1.5-0.2-2.1c0.5-0.6,1.5-0.8,2.1-0.2
			c0.2,0.2,18.7,15.3,8.2,34.5c-0.2,0.3-0.5,0.6-0.8,0.7c8.2,17,10.2,34.8,4.8,52.9c1.3,1,3.7,4,8.2,11.4c10,16.4,12,42.4,12,42.4
			l-3.6,0.4c0,0,0.9-5.9-4-23.1c-4.1-14.2-12-22.7-14.5-25.2c-1,2.7-2.2,5.3-3.6,8c-7.1,14-21.8,22.7-41,23.4
			c-3.6,0.1-7.4,0-11.4-0.3c-18.8-1.7-35.3-9.3-35.5-9.4C299.8,287.6,299.4,286.8,299.7,286z" style="fill:#FF9B19;"/>
		<path d="M516.6,414.9c-6.9-17.3-16.4-40.8-44.4-79.6c-17-23.6-48.6-31.5-87.8-29.4C374.6,220,301,111.2,301,111.2
			l-7.9-1.4c0,0,23,62.5,38.2,105c11.1,30.8,16,73.8,17.9,95.1c-15.5,2.7-31.7,6.5-48.3,11.1c-22.4,6.3-43.7,15.1-62.6,24.5
			c-2.6-17.4-6-54.4-18.8-106.8c-17.7-72.2-36.9-102.6-36.9-102.6l-5.1,3c4.2,10.4,16.4,57.5,22.2,100.7
			c5.7,42.2,4.3,121.1,4.3,124.5c-25.7,15.5-41.8,28.4-41.8,28.4c18.9,43.4,76.7,68.8,123.8,66.7c64.6-2.9,115.5-41.1,115.5-41.1
			s-9.4-24.8-2-43.5c8.5-21.5,23.6-22.3,23.6-22.3l-4.7,35.6c0,0,5.9,6.7,19.4,6.9c13.5,0.1,19.8-9.3,19.8-9.3l4.7-36.1
			c26.2,8.5,24.5,36,24.5,36c18.7,16.9,8.3,40.5,8.3,40.5c11.6,15.4,1.3,28.2,1.3,28.2c6.1,21.7-20.1,32.9-37.7,34.5
			c-20.2,1.9-38.2-7.3-38.2-7.3c-12.7,21.2-77.3,64.2-77.3,64.2s52.8-5.8,87.9-20.5s60.3-28.2,83.2-47.5
			C537.3,458.5,523.5,432.2,516.6,414.9z" style="fill:#2568EF;"/>
		<ellipse cx="219.7" cy="74.5" rx="2" ry="2" style="fill:#324A58;"/>
		<ellipse cx="250.8" cy="70.9" rx="2" ry="2" style="fill:#324A58;"/>
		<path d="M66.7,465.5c0,0,11,28.2,23.3,44.2c12.3,16.1,28.3,33,34.5,37.8c0,0-43.3,3.2-53.5-20.2
			C60.8,503.9,65.3,469.7,66.7,465.5z" style="fill:#2568EF;"/>
		<path d="M272.7,58.4c-4.5,0.5-7.4,8.6-7.4,8.6c-2.8-5.8-10.3-15.4-16.9-14.6c-6.6,0.8-11.1,17.2-11.1,17.2
			c-1.5-6.2-7.9-12.9-15.3-13.4c-7.4-0.5-13.3,12.9-13.3,12.9s-3.3,20.4-2.4,13c0.8-7.4-0.3-9.3-3.9-13.6c-3.6-4.3-9.6-3.7-12.7,1.2
			c-3.1,4.9-0.9,10.7,2.6,15.1c3.4,4.5,3.2,6.8,2.1,11.8c-1.1,5,1.8,8.2,6.3,7.6c4.5-0.5,3.5-7.8,3.5-7.8l68.9-5.1
			c0,0,3.3,5.4,6.6,2.9c3.4-2.5,1.4-5.7-0.1-11.7s1.2-6.1,1.5-13.4C281.2,61.7,277.2,57.9,272.7,58.4z M208.2,85.4
			c-0.1,0.4-0.4,0.6-0.7,0.6c-0.1,0-0.1,0-0.2,0c-3.1-0.6-4.6-2.6-5.6-4.8c-0.7,0.1-2.8,0.7-3.2,2.4c-0.3,1-0.3,2.7,2.3,3.5
			c0.4,0.1,0.6,0.5,0.5,0.9c-0.1,0.3-0.4,0.5-0.7,0.5c-0.1,0-0.2,0-0.2,0c-3.2-0.9-3.9-3.4-3.3-5.3c0.6-2.2,2.9-3.1,4.1-3.4
			c-0.1-0.3-0.2-0.5-0.3-0.8c-0.8-1.9-1.5-3.7-2.8-4.6c-0.8-0.5-1.5-0.7-2.1-0.4c-1.1,0.4-1.8,2.2-1.9,2.8c-0.1,0.4-0.5,0.6-0.9,0.5
			s-0.6-0.5-0.5-0.9c0-0.1,0.8-3,2.8-3.8c1.1-0.4,2.2-0.2,3.4,0.6c1.8,1.2,2.6,3.2,3.4,5.3c1.1,2.8,2.2,5.4,5.4,6
			C208,84.6,208.3,85,208.2,85.4z M224.7,76.6c-5.6,5-10.3,2.8-11.6,2.2c-1.2-0.5-2.8-2.5-0.4-5.3c0,0,1.7-2.7,6-3.1
			C223.7,70,229.8,72.1,224.7,76.6z M255.6,73.2c-6.8,3.6-10.6,2.2-11.7,1.4c-1.2-0.8-4.6-1.3-1.8-3.9c0,0,4.4-3,8.6-3.2
			C255.7,67.1,261.6,69.9,255.6,73.2z M276.9,70c-0.4,0-0.8-0.3-0.8-0.7c0-0.6-0.4-2.4-1.3-2.9c-0.4-0.2-1-0.2-1.7,0.2
			c-1.4,0.7-2.1,3.8-2.4,7.3c1.8-0.3,3.1,0,3.9,0.9c1.7,1.9,0.4,5.6,0.2,6.1c-0.1,0.3-0.4,0.5-0.7,0.5c-0.1,0-0.2,0-0.3,0
			c-0.4-0.1-0.6-0.6-0.4-1c0.3-0.8,1-3.5,0-4.5c-0.6-0.7-1.9-0.6-2.9-0.3c-0.1,2.2-0.1,4.4,0,6.3c0,0.4-0.3,0.8-0.7,0.8l0,0
			c-0.4,0-0.7-0.3-0.8-0.7c-0.1-1.5-0.8-14.4,3.4-16.5c1.2-0.6,2.3-0.6,3.1-0.1c1.8,1,2,3.8,2,4.1C277.6,69.6,277.3,70,276.9,70z" style="fill:#FF9B19;"/>
		<g>
			<path d="M384.2,334.4c-2.4-2.4-6.3-5.4-10.2-8.2c3.9-7.3,6.9-13.5,6.9-13.5c0.7-1.2,0.3-2.7-1-3.4
				c-1.2-0.7-2.7-0.3-3.4,1c0,0-3.6,5.5-7.8,12.3c-4.9-3.2-8.8-5.7-8.8-5.7c-1.6-1.2-3.2-1-4,0.1s-0.6,2.7,0.5,3.5l9.3,7.1
				c-3.6,6.2-7.1,12.6-8.4,16.8c-0.4,1.3-0.3,2.7,1,3.4c0.4,0.2,0.9,0.3,1.3,0.3c0.8,0,1.5-0.6,2.1-1.3c2.7-3.6,6.2-9.4,9.4-15.3
				l10.4,7.9c2,1.8,4,1,4.5,0.4C386.8,338.8,386.8,337,384.2,334.4z" style="fill:#FF564F;"/>
			<path d="M244.4,384.5c-2.7-2.3-6.9-5-11.3-7.7c4.6-8.9,8.2-16.6,8.2-16.6c0.7-1.4,0.3-3.1-1-3.9s-3-0.3-3.7,1.1
				c0,0-4.6,7.2-9.6,15.8c-6-3.4-11.1-6-11.1-6c-1.9-1.2-3.7-1-4.7,0.1s-0.7,2.7,0.5,3.5l12.2,7.8c-3.6,6.5-7,13.1-8.4,17.6
				c-0.5,1.5-0.3,3.1,1,3.9c0.5,0.3,1,0.4,1.5,0.4c0.9,0,1.7-0.6,2.3-1.4c2.9-3.9,6.4-10.1,9.8-16.4l11.1,7.1c2.4,1.8,4.7,1,5.3,0.4
				C247.5,389,247.5,387.2,244.4,384.5z" style="fill:#FF564F;"/>
		</g>
		<g>
			<path d="M384.5,255.5c-4.9,0.2-9-6.2-9.3-14.6c-0.3-8.4,3.3-15.1,8.2-15.3c4.9-0.2,9,6.2,9.3,14.6
				C393,248.7,389.4,255.4,384.5,255.5z M383.4,227.7c-3.7,0.1-6.6,6.2-6.3,13.2c0.3,7,3.6,12.8,7.3,12.7c3.7-0.1,6.6-6.2,6.3-13.2
				C390.4,233.3,387.1,227.5,383.4,227.7z" style="fill:#FF564F;"/>
		</g>
		
			<ellipse transform="matrix(0.9932 -0.1167 0.1167 0.9932 -25.3205 46.5769)" cx="385.1" cy="239.5" rx="3.1" ry="5.6" style="fill:#FF564F;"/>
		<g>
			<path d="M182.8,330.7c-0.8,0-1.5,0-2.3-0.1c-3.7-0.5-7.1-2.7-9.5-5.8c-4.6-6.2-3.8-14.6,1.8-18.7
				c2.5-1.9,5.6-2.6,8.8-2.2c3.7,0.5,7.1,2.7,9.5,5.8l0,0c4.6,6.2,3.8,14.6-1.7,18.7C187.4,329.8,185.2,330.6,182.8,330.7z
				 M179.4,305.7c-2,0.1-3.9,0.7-5.4,1.9c-4.6,3.5-5.2,10.6-1.3,15.9c2,2.7,5,4.6,8.1,5.1c2.7,0.4,4.3-0.2,6.3-1.7
				c4.6-3.5,5.2-10.6,1.3-15.9c-2-2.7-4-4.6-7.1-5.1C180.7,305.7,180,305.7,179.4,305.7z" style="fill:#FF564F;"/>
		</g>
		
			<ellipse transform="matrix(0.8073 -0.5901 0.5901 0.8073 -153.8169 167.0994)" cx="179" cy="319.1" rx="4.1" ry="5.1" style="fill:#FF564F;"/>
		<g>
			<path d="M161.4,423.7l-8.9,0.3c-0.7,0-1.3-0.5-1.3-1.2s0.5-1.3,1.2-1.3l8.9-0.3c0.7,0,1.3,0.5,1.3,1.2
				C162.6,423.1,162.1,423.7,161.4,423.7z" style="fill:#324A58;"/>
		</g>
		<g>
			<path d="M117.3,475.4c-0.7,0-1.3-0.5-1.3-1.2l-0.2-6.1c0-0.7,0.5-1.3,1.2-1.3s1.3,0.5,1.3,1.2l0.2,6.1
				C118.6,474.8,118,475.3,117.3,475.4z" style="fill:#324A58;"/>
		</g>
		<g>
			<path d="M150.9,486.4c-0.5,0-1-0.3-1.2-0.7l-2.7-6c-0.3-0.6,0-1.4,0.6-1.7c0.6-0.3,1.4,0,1.7,0.6l2.7,6
				c0.3,0.6,0,1.4-0.6,1.7C151.2,486.3,151,486.4,150.9,486.4z" style="fill:#324A58;"/>
		</g>
		<g>
			<path d="M179.6,455.1c-0.6,0-1.1-0.4-1.3-1c-0.2-0.7,0.3-1.3,0.9-1.5l8.8-2.1c0.7-0.2,1.3,0.3,1.5,0.9
				c0.2,0.7-0.3,1.3-0.9,1.5l-8.8,2.1C179.8,455.1,179.7,455.1,179.6,455.1z" style="fill:#324A58;"/>
		</g>
		<g>
			<path d="M194.8,462l-8.9,0.3c-0.7,0-1.3-0.5-1.3-1.2s0.5-1.3,1.2-1.3l8.9-0.3c0.7,0,1.3,0.5,1.3,1.2
				C196.1,461.4,195.5,462,194.8,462z" style="fill:#324A58;"/>
		</g>
		<g>
			<path d="M120.6,516.3c-0.3,0-0.5-0.1-0.7-0.2c-0.6-0.4-0.7-1.2-0.3-1.7l5.4-8.1c0.4-0.6,1.2-0.7,1.7-0.3
				c0.6,0.4,0.7,1.2,0.3,1.7l-5.4,8.1C121.4,516.1,121,516.3,120.6,516.3z" style="fill:#324A58;"/>
		</g>
		<g>
			<path d="M135.9,523.6c-0.7,0-1.3-0.5-1.3-1.2l-0.3-7.9c0-0.7,0.5-1.3,1.2-1.3s1.3,0.5,1.3,1.2l0.3,7.9
				C137.1,523,136.6,523.6,135.9,523.6z" style="fill:#324A58;"/>
		</g>
		<g>
			<path d="M168.1,547.2c-0.7,0-1.3-0.5-1.3-1.2l-0.4-11.1c0-0.7,0.5-1.3,1.2-1.3s1.3,0.5,1.3,1.2l0.4,11.1
				C169.3,546.6,168.8,547.2,168.1,547.2z" style="fill:#324A58;"/>
		</g>
		<g>
			<path d="M186.7,525.3c-0.6,0-1.1-0.4-1.3-1l-2.6-11.4c-0.2-0.7,0.3-1.3,0.9-1.5c0.7-0.2,1.3,0.3,1.5,0.9l2.6,11.4
				c0.2,0.7-0.3,1.3-0.9,1.5C186.8,525.3,186.8,525.3,186.7,525.3z" style="fill:#324A58;"/>
		</g>
		<g>
			<path d="M228.8,465.1l-8.9,0.3c-0.7,0-1.3-0.5-1.3-1.2s0.5-1.3,1.2-1.3l8.9-0.3c0.7,0,1.3,0.5,1.3,1.2
				C230,464.5,229.5,465.1,228.8,465.1z" style="fill:#324A58;"/>
		</g>
		<g>
			<path d="M502.9,328.4l-8.9,0.3c-0.7,0-1.3-0.5-1.3-1.2s0.5-1.3,1.2-1.3l8.9-0.3c0.7,0,1.3,0.5,1.3,1.2
				C504.2,327.8,503.6,328.4,502.9,328.4z" style="fill:#324A58;"/>
		</g>
		<g>
			<path d="M228.4,488.2l-7.6,0.3c-0.7,0-1.3-0.5-1.3-1.2s0.5-1.3,1.2-1.3l7.6-0.3c0.7,0,1.3,0.5,1.3,1.2
				C229.6,487.6,229.1,488.1,228.4,488.2z" style="fill:#324A58;"/>
		</g>
		<g>
			<path d="M231.6,542c-0.3,0-0.6-0.1-0.9-0.3l-5.2-4.5c-0.5-0.4-0.6-1.2-0.1-1.8c0.4-0.5,1.2-0.6,1.8-0.1l5.2,4.5
				c0.5,0.4,0.6,1.2,0.1,1.8C232.3,541.8,232,542,231.6,542z" style="fill:#324A58;"/>
		</g>
		<g>
			<path d="M212.6,555.3c-0.4,0-0.9-0.2-1.1-0.6l-4.2-6.7c-0.4-0.6-0.2-1.4,0.4-1.7c0.6-0.4,1.4-0.2,1.7,0.4l4.2,6.7
				c0.4,0.6,0.2,1.4-0.4,1.7C213,555.2,212.8,555.3,212.6,555.3z" style="fill:#324A58;"/>
		</g>
		<g>
			<path d="M234.8,570.3c-0.5,0-1-0.3-1.2-0.8l-2.4-7.1c-0.2-0.7,0.1-1.4,0.8-1.6c0.7-0.2,1.4,0.1,1.6,0.8l2.4,7.1
				c0.2,0.7-0.1,1.4-0.8,1.6C235.1,570.3,235,570.3,234.8,570.3z" style="fill:#324A58;"/>
		</g>
		<g>
			<path d="M254.7,559.1c-0.3,0-0.6-0.1-0.9-0.3l-5.5-5.2c-0.5-0.5-0.5-1.3-0.1-1.8c0.5-0.5,1.3-0.5,1.8-0.1l5.5,5.2
				c0.5,0.5,0.5,1.3,0.1,1.8C255.3,559,255,559.1,254.7,559.1z" style="fill:#324A58;"/>
		</g>
		<g>
			<path d="M506.3,348c-0.3,0-0.6-0.1-0.9-0.3l-5.5-5.2c-0.5-0.5-0.5-1.3-0.1-1.8c0.5-0.5,1.3-0.5,1.8-0.1l5.5,5.2
				c0.5,0.5,0.5,1.3,0.1,1.8C506.9,347.9,506.6,348,506.3,348z" style="fill:#324A58;"/>
		</g>
		<g>
			<path d="M188.2,302.3c-0.3,0-0.6-0.1-0.9-0.3c-0.5-0.5-0.6-1.2-0.1-1.8l5-5.7c0.5-0.5,1.2-0.6,1.8-0.1
				c0.5,0.5,0.6,1.2,0.1,1.8l-5,5.7C188.9,302.2,188.6,302.3,188.2,302.3z" style="fill:#324A58;"/>
		</g>
		<g>
			<path d="M199.2,306.8l-5.6,0.2c-0.7,0-1.3-0.5-1.3-1.2s0.5-1.3,1.2-1.3l5.6-0.2c0.7,0,1.3,0.5,1.3,1.2
				C200.5,306.2,199.9,306.8,199.2,306.8z" style="fill:#324A58;"/>
		</g>
		<g>
			<path d="M151.8,173.4c-0.2,0-0.3,0-0.5-0.1l-8.9-3.4c-0.6-0.2-1-1-0.7-1.6c0.2-0.6,1-1,1.6-0.7l8.9,3.4
				c0.6,0.2,1,1,0.7,1.6C152.8,173.1,152.3,173.4,151.8,173.4z" style="fill:#324A58;"/>
		</g>
		<g>
			<path d="M156.8,166c-0.3,0-0.6-0.1-0.9-0.3l-6.4-5.7c-0.5-0.5-0.6-1.3-0.1-1.8s1.3-0.6,1.8-0.1l6.4,5.7
				c0.5,0.5,0.6,1.3,0.1,1.8C157.5,165.9,157.1,166,156.8,166z" style="fill:#324A58;"/>
		</g>
		<g>
			<path d="M163,159.8c-0.5,0-0.9-0.2-1.2-0.7l-3.4-6.6c-0.3-0.6-0.1-1.4,0.5-1.7s1.4-0.1,1.7,0.5l3.4,6.6
				c0.3,0.6,0.1,1.4-0.5,1.7C163.4,159.8,163.2,159.8,163,159.8z" style="fill:#324A58;"/>
		</g>
		<g>
			<path d="M380.7,222.4c-0.7,0-1.3-0.5-1.3-1.2l-0.3-7.7c0-0.7,0.5-1.3,1.2-1.3s1.3,0.5,1.3,1.2l0.3,7.7
				C381.9,221.8,381.3,222.4,380.7,222.4z" style="fill:#324A58;"/>
		</g>
		<g>
			<path d="M386.3,223.5c-0.1,0-0.2,0-0.3,0c-0.7-0.1-1.1-0.8-1-1.4l0.9-5.1c0.1-0.7,0.8-1.1,1.4-1
				c0.7,0.1,1.1,0.8,1,1.4l-0.9,5.1C387.3,223,386.8,223.4,386.3,223.5z" style="fill:#324A58;"/>
		</g>
		<g>
			<path d="M327.1,127.8c-0.1,0-0.3,0-0.4,0c-0.7-0.2-1.1-0.9-0.9-1.5l1.7-6.3c0.2-0.7,0.9-1.1,1.5-0.9
				c0.7,0.2,1.1,0.9,0.9,1.5l-1.7,6.3C328.1,127.4,327.7,127.8,327.1,127.8z" style="fill:#324A58;"/>
		</g>
		<g>
			<path d="M333.9,130.6c-0.4,0-0.8-0.2-1.1-0.5c-0.4-0.6-0.3-1.3,0.3-1.7l7.2-5.3c0.6-0.4,1.3-0.3,1.7,0.3
				c0.4,0.6,0.3,1.3-0.3,1.7l-7.2,5.3C334.4,130.5,334.1,130.6,333.9,130.6z" style="fill:#324A58;"/>
		</g>
		<g>
			<path d="M342,135.6c-0.3,0-0.6-0.1-0.8-0.4c-0.3-0.5-0.3-1.3,0.1-1.7l4.1-4.5c0.4-0.4,1-0.4,1.3,0.2
				c0.3,0.5,0.3,1.3-0.1,1.7l-4.1,4.5C342.4,135.5,342.2,135.6,342,135.6z" style="fill:#324A58;"/>
		</g>
		<g>
			<path d="M290,176.4c-0.4,0-0.8-0.1-1-0.5c-0.4-0.5-1.1-1.8,0.2-2.8l6-3.8c0.5-0.4,1.3-0.3,1.8,0.2
				c0.4,0.5,0.3,1.3-0.2,1.8l-6,4.8C290.5,176.3,290.3,176.3,290,176.4z" style="fill:#324A58;"/>
		</g>
		<g>
			<path d="M267.6,177c-0.1,0-0.1,0-0.2,0c-0.7-0.1-1.2-0.6-1.1-1.3l1-6.2c0.1-0.6,0.7-1,1.4-1c0.7,0.1,1.2,0.6,1.1,1.3
				l-1,6.2C268.7,176.6,268.2,177,267.6,177z" style="fill:#324A58;"/>
		</g>
		<g>
			<path d="M235.7,188.2c-0.2,0-0.3,0-0.5-0.1l-4.5-1.8c-0.6-0.3-0.9-1-0.7-1.6c0.3-0.6,1-0.9,1.6-0.7l4.5,1.8
				c0.6,0.3,0.9,1,0.7,1.6C236.7,187.9,236.2,188.2,235.7,188.2z" style="fill:#324A58;"/>
		</g>
		<g>
			<path d="M253.9,192.7" style="fill:none;stroke:#324A58;stroke-width:2.5;stroke-linecap:round;stroke-linejoin:round;stroke-miterlimit:10;"/>
		</g>
		<g>
			<path d="M254.4,194c-0.7,0-1.3-0.4-1.3-1l-0.2-6.4c0-0.6,0.5-1.1,1.2-1.1s1.3,0.4,1.3,1l0.8,6.4
				C256.2,193.4,255.8,193.9,254.4,194z" style="fill:#324A58;"/>
		</g>
		<g>
			<path d="M268.1,191c-0.3,0-0.6-0.1-0.9-0.3c-1.2-0.8-1.1-1.6-0.7-2.1l5-4.8c0.5-0.5,1.2-0.6,1.8-0.1
				c0.5,0.5,0.6,1.2,0.1,1.8l-4.5,5.1C268.8,190.9,268.5,191,268.1,191z" style="fill:#324A58;"/>
		</g>
		<g>
			<path d="M282.7,186.8c0-0.7,0.5-1.3,1.2-1.3l7.9-0.5c0.7,0,1.3,0.5,1.3,1.2s-0.5,1.3-1.2,1.3
				C291.9,187.4,282.9,190.1,282.7,186.8z" style="fill:#324A58;"/>
		</g>
		<g>
			<path d="M310.1,193.7l-4.9,0.2c-0.7,0-1.3-0.5-1.3-1.2s0.5-1.3,1.2-1.3l4.9-0.2c0.7,0,1.3,0.5,1.3,1.2
				C311.3,193.1,310.8,193.7,310.1,193.7z" style="fill:#324A58;"/>
		</g>
		<g>
			<path d="M290,203.1c-0.2,0-0.3,0-0.5-0.1l-5.7-1.6c-0.6-0.2-1.3-0.8-0.5-2c0.4-0.6,1-1,1.6-0.7l5.5,2
				c0.6,0.2,1,1,0.7,1.6C291,202.8,290.5,203.1,290,203.1z" style="fill:#324A58;"/>
		</g>
		<g>
			<path d="M306,215.7c-0.2,0-0.5-0.1-0.7-0.2l-4.5-2.8c-0.6-0.4-0.8-1.1-0.4-1.7c0.4-0.6,1.1-1.9,3.2-0.7
				c0.9,0.6,3,3.1,3,3.1c0.6,0.4,0.8,1.1,0.4,1.7C306.8,215.5,306.4,215.7,306,215.7z" style="fill:#324A58;"/>
		</g>
		<g>
			<path d="M262.6,207.6c-0.7,0-1.3-0.5-1.3-1.2l-0.2-4.6c0-0.7,0.5-1.3,1.2-1.3s1.3,0.5,1.3,1.2l0.2,4.6
				C263.8,207,263.3,207.6,262.6,207.6z" style="fill:#324A58;"/>
		</g>
		<g>
			<path d="M249.8,202.9l-8.1-0.2c-0.7,0-1.3-0.5-1.3-1.2s0.5-1.3,1.2-1.3l7.9-0.3c0.7,0,1.3,0.5,1.3,1.2
				C250.8,201.8,250.5,202.9,249.8,202.9z" style="fill:#324A58;"/>
		</g>
		<g>
			<path d="M244.5,218c-0.4,0-0.9-0.2-1.1-0.6c-0.3-0.6-0.1-1.4,0.5-1.7l5.5-3.2c0.6-0.3,1.4-0.1,1.7,0.5
				s0.1,1.4-0.5,1.7l-5.5,3.2C244.9,218,244.7,218,244.5,218z" style="fill:#324A58;"/>
		</g>
		<g>
			<path d="M252.5,227.2c-0.2,0-0.5-0.1-0.7-0.2c-0.6-0.4-0.7-1.1-0.4-1.7l2.6-4c0.4-0.6,1.2-0.7,1.7-0.4
				c0.6,0.4,1.3,1.5,0.4,2.7l-2.6,3C253.2,227,252.9,227.2,252.5,227.2z" style="fill:#324A58;"/>
		</g>
		<g>
			<path d="M276.5,218.6c-0.4,0-0.7-0.1-1-0.4l-2.8-2.1c-1.3-1-0.5-2.3,0.1-2.8c0.5-0.5,1.3-0.4,1.8,0.1l2.8,3.1
				c0.5,0.5,0.4,1.3-0.1,1.8C277.1,218.5,276.8,218.6,276.5,218.6z" style="fill:#324A58;"/>
		</g>
		<g>
			<path d="M291.1,231.7c-0.6,0-1.2-0.4-1.3-1c-0.2-1.2-1.7-3-2.5-4c-0.5-0.5-0.5-1.3,0-1.8s1.3-0.5,1.8,0
				c0.3,0.3,2.8,3,3.2,5.3c0.1,0.7-0.4,1.3-1,1.4C291.2,231.7,291.1,231.7,291.1,231.7z" style="fill:#324A58;"/>
		</g>
		<g>
			<path d="M512.3,369.3c-0.6,0-1.2-0.4-1.3-1c-0.2-1.2-1.7-3-2.5-4c-0.5-0.5-0.5-1.3,0-1.8s1.3-0.5,1.8,0
				c0.3,0.3,2.8,3,3.2,5.3c0.1,0.7-0.4,1.3-1,1.4C512.4,369.3,512.3,369.3,512.3,369.3z" style="fill:#324A58;"/>
		</g>
		<g>
			<path d="M278.5,238.9c-0.4,0-0.8-0.2-1-0.5c-1.5-2-1.7-5.9-1.7-6.4c0-0.7,0.5-1.3,1.2-1.3l0,0c0.7,0,1.3,0.5,1.3,1.2
				c0.1,1.4,0.4,4,1.2,5c0.4,0.5,0.3,1.3-0.2,1.8C279,238.8,278.8,238.9,278.5,238.9z" style="fill:#324A58;"/>
		</g>
		<g>
			<path d="M241.3,246.2c-0.2,0-0.5-0.1-0.7-0.2c-0.6-0.4-0.8-1.1-0.4-1.7c0.3-0.5,3.3-5.1,6.2-6.5
				c0.6-0.3,1.4-0.1,1.7,0.6c0.3,0.6,0.1,1.4-0.6,1.7c-1.9,1-4.4,4.4-5.2,5.6C242.1,245.9,241.7,246.1,241.3,246.2z" style="fill:#324A58;"/>
		</g>
		<g>
			<path d="M102.1,318.9c-2.5,0.1-4.9,0-7.4-0.4c-13.5-1.9-24.8-8.9-31.9-21.5l1.4-3.7c6.6,11.7,18.3,20.4,30.9,22.2
				c10.6,1.5,21.3-1.4,30.1-8.1c10-7.5,16.7-19.3,18.5-32.3c3.5-25.6-12.6-49-36-52.3c-1.5-0.2-3.8-0.4-5.3-0.4l1.9-3
				c1.6,0,2.2,0.2,3.8,0.4c24.9,3.5,42.2,28.5,38.5,55.7c-1.9,13.8-9,27.3-19.6,35.3C119.7,316.5,111,318.6,102.1,318.9z" style="fill:#2568EF;"/>
		</g>
		<g>
			<path d="M115,308.6c-0.3,0-0.5,0-0.8-0.2l-46.2-24l1.4-3.1l44.7,23.6l12.1-32.2l-17.1,6.6c-0.4,0.2-0.9,0.1-1.3-0.1
				s-0.7-0.7-0.7-1.1l-2.2-20.7l-16.5,13.5c-0.4,0.3-1,0.4-1.5,0.2s-0.9-0.6-0.9-1.2l-2.5-16.4c0-0.1,0-0.2,0.1-0.3
				c0.5-0.8,2.2-4,2.2-4l2.7,17.6l16.6-13.6c0.4-0.4,1-0.4,1.5-0.2s0.9,0.7,0.9,1.2l2.3,21.6l18.4-7.1c0.6-0.2,1.2-0.1,1.6,0.3
				c0.4,0.4,0.6,1,0.3,1.6l-13.8,36.9c-0.2,0.4-0.5,0.7-0.9,0.9C115.3,308.6,115.2,308.6,115,308.6z" style="fill:#2568EF;"/>
		</g>
		<g>
			<path d="M111.4,250.1c-0.7,0-1.3,0-2-0.2c-4.1-1-6.5-5.5-5.4-10c0.6-2.3,2-4.3,3.9-5.4c1.7-1,3.7-1.3,5.5-0.9
				c4.1,1,6.5,5.5,5.4,10l0,0c-0.6,2.3-2,4.3-3.9,5.4C113.8,249.7,112.6,250.1,111.4,250.1z M111.6,236.4c-0.7,0-1.4,0.2-2.1,0.6
				c-1.2,0.7-2.2,2-2.5,3.6c-0.7,2.9,0.7,5.7,3.2,6.4c1.1,0.3,2.2,0.1,3.2-0.5c1.2-0.7,2.2-2,2.5-3.6c0.7-2.9-0.7-5.7-3.2-6.4
				C112.3,236.4,111.9,236.4,111.6,236.4z M117.4,243.2L117.4,243.2L117.4,243.2z" style="fill:#2568EF;"/>
		</g>
		<g>
			<path d="M133.5,267.6c-0.7,0-1.3,0-2-0.2c-4.1-1-6.5-5.5-5.4-10c0.6-2.3,2-4.3,3.9-5.4c1.7-1,3.7-1.3,5.5-0.9
				c4.1,1,6.5,5.5,5.4,10c-0.6,2.3-2,4.3-3.9,5.4C135.9,267.1,134.7,267.5,133.5,267.6z M133.6,253.9c-0.7,0-1.4,0.2-2.1,0.6
				c-1.2,0.7-2.2,2-2.5,3.6c-0.7,2.9,0.7,5.7,3.2,6.4c1.1,0.3,2.2,0.1,3.2-0.5c1.2-0.7,2.2-2,2.5-3.6l0,0c0.7-2.9-0.7-5.7-3.2-6.4
				C134.4,253.9,134,253.9,133.6,253.9z" style="fill:#2568EF;"/>
		</g>
		<path d="M291.9,113.2c0,0-8.5-8.7-16.8-23.6s-10-45.3-18.6-58s-29.4-15.1-44.4-3.4c-12.9,10.2-12.4,38.2-12.4,38.2
			s2.2,1.5,4.2,4.9c2.4,4,2.2,10.8,2.2,10.8s-2.1,10.7-2.2,14.4c-0.1,1.7,0.4,4.8-1.3,6.6c-2.1,2.3-5.5,0.8-5.5,0.8l-9.8,34.2
			c0,0,7.7-3.2,15.5-4.1c-0.1,0.6-0.3,1.1-0.4,1.7c-1,5.4,0.2,10.2,2.7,10.7s5.3-3.6,6.3-9c0.2-1,0.3-2,0.3-3
			c0.8,0.2,1.6,0.5,2.3,0.9c8,4.2,11.5,1.9,16.6-1.7c0.1,0.6,0.3,1.2,0.5,1.8c1.8,5.2,5.2,8.8,7.6,7.9c2.4-0.8,2.9-5.7,1.1-11
			c-0.4-1.2-0.9-2.3-1.5-3.3c3.3-1.2,7.2-1.2,15.3-0.5c0.3,0,0.6,0,0.9,0.1c0.2,0.9,0.4,1.9,0.8,2.8c1.8,5.2,5.2,8.8,7.6,7.9
			c2.4-0.8,2.9-5.7,1.1-11c-0.2-0.5-0.4-1.1-0.6-1.6c3.6-2.4,4.9-6.6,8.9-10.4c0.5-0.5,1-0.9,1.6-1.3c0.5,1.8,1.4,3.8,2.8,5.7
			c3.2,4.5,7.4,7,9.4,5.5c2.1-1.5,1.2-6.3-2-10.8c-0.9-1.3-1.9-2.5-3-3.4C285.9,112,291.9,113.2,291.9,113.2z M226.7,78.9
			c-4.1,5-11.2,4.8-14.7,2c-3.4-2.8-2.9-9.2,1.2-14.2c4.1-5,11.2-5.8,14.6-3C231.2,66.5,230.7,73.8,226.7,78.9z M258,80.5
			c-3.9,2-9.2,0-11.9-5.4s-0.6-12.6,3.4-14.7c3.9-2,9.4,0.7,12.1,6.1C264.2,71.9,261.9,78.5,258,80.5z" style="fill:#324A58;"/>
		<path d="M270.3,448.7c0,0,32.6,2.5,57.3-4c24.6-6.5,66.4-28.9,66.4-28.9s3.7,0.2,7.7,2.5l-8.7,6.1
			c-0.7,7.4-0.9,19.4,3.9,34c5.2,15.5,14.1,23.9,19.4,27.7l4.4-4.6c2.5,1.8,2.2,5.8,2.2,5.8s-35.3,35.3-57.2,50.3
			c-21.9,15-59.1,32.9-70,37.9c0,0-30.8-17.8-35-60.2S270.3,448.7,270.3,448.7z" style="fill:#324A58;"/>
		<g>
			<path d="M290.4,464.3c-0.3,0-0.6-0.1-0.8-0.4c-0.2-0.3-0.3-0.6-0.2-1l7.5-20.4c0.1-0.4,0.5-0.7,1-0.7
				c0.4,0,0.8,0.3,0.9,0.7l5.4,18.2c0.1,0.3,0,0.6-0.1,0.8c-0.2,0.2-0.4,0.4-0.7,0.5L290.4,464.3
				C290.5,464.3,290.5,464.3,290.4,464.3z M297.8,446.1l-5.8,16l10.1-1.7L297.8,446.1z" style="fill:#FFE7E6;"/>
		</g>
		<g>
			<path d="M338.8,456.9c-0.1,0-0.1,0-0.2,0l-12.5-2.1c-0.3-0.1-0.6-0.2-0.7-0.5s-0.2-0.6,0-0.9l7.2-15.8
				c0.2-0.4,0.5-0.6,1-0.6c0.4,0,0.8,0.3,0.9,0.7l5.3,17.9c0.1,0.3,0,0.7-0.2,0.9C339.3,456.8,339.1,456.9,338.8,456.9z
				 M327.7,453.1l9.6,1.6l-4.1-13.8L327.7,453.1z" style="fill:#FFE7E6;"/>
		</g>
		<g>
			<path d="M368.3,442.7c-0.2,0-0.3,0-0.4-0.1c-0.3-0.2-0.6-0.5-0.6-0.8l-1.3-17.2c0-0.4,0.2-0.8,0.5-0.9
				c0.3-0.2,0.8-0.2,1.1,0.1l12.4,8.8c0.3,0.2,0.4,0.5,0.4,0.8s-0.1,0.6-0.4,0.8l-11.1,8.4C368.7,442.6,368.5,442.7,368.3,442.7z
				 M368.1,426.5l1,13.3l8.5-6.5L368.1,426.5z" style="fill:#FFE7E6;"/>
		</g>
		<g>
			<path d="M368.6,485.2c-0.2,0-0.4,0-0.5-0.1c-0.4-0.2-0.6-0.6-0.5-1l1.9-17.2c0-0.3,0.2-0.5,0.4-0.7
				c0.2-0.2,0.5-0.2,0.8-0.2l14.8,3.6c0.4,0.1,0.7,0.4,0.7,0.8c0.1,0.4-0.1,0.8-0.3,1L369.2,485C369,485.1,368.8,485.2,368.6,485.2z
				 M371.3,468.2l-1.5,13.6l13.3-10.8L371.3,468.2z" style="fill:#FFE7E6;"/>
		</g>
		<g>
			<path d="M322.2,506.4c-0.1,0-0.2,0-0.3,0c-0.4-0.1-0.7-0.4-0.7-0.9l-2.4-22.9c0-0.4,0.1-0.7,0.4-0.9
				c0.3-0.2,0.7-0.2,1-0.1l14,6.4c0.3,0.1,0.5,0.4,0.6,0.6c0.1,0.3,0,0.6-0.1,0.8L323,506C322.8,506.3,322.5,506.4,322.2,506.4z
				 M321,484.1l1.9,18.5l9.4-13.4L321,484.1z" style="fill:#FFE7E6;"/>
		</g>
		<g>
			<path d="M286.8,524.8c-0.2,0-0.3,0-0.5-0.1l-13.2-7c-0.3-0.1-0.4-0.4-0.5-0.6c-0.1-0.3,0-0.6,0.1-0.8l8.3-12
				c0.2-0.3,0.6-0.5,1-0.4s0.7,0.4,0.8,0.7l5,19c0.1,0.4,0,0.8-0.3,1C287.2,524.8,287,524.8,286.8,524.8z M275,516.5l10.2,5.4
				l-3.8-14.7L275,516.5z" style="fill:#FFE7E6;"/>
		</g>
		<g>
			<path d="M318.4,560.9c-0.4,0-0.8-0.2-0.9-0.5l-10.6-20.9c-0.2-0.5-0.1-1.1,0.4-1.3l13.2-7.3c0.3-0.2,0.7-0.2,1,0
				s0.5,0.6,0.4,0.9l-2.6,28.1c0,0.4-0.4,0.8-0.8,0.9C318.5,560.9,318.4,560.9,318.4,560.9z M309.1,539.4l8.6,16.9l2.1-22.8
				L309.1,539.4z" style="fill:#FFE7E6;"/>
		</g>
		<g>
			<path d="M368.8,534.3c-0.1,0-0.2,0-0.3,0l-14.4-3.5c-0.3-0.1-0.5-0.2-0.6-0.5c-0.1-0.2-0.2-0.5-0.1-0.8l5-15.2
				c0.1-0.4,0.5-0.7,0.9-0.7c0.4-0.1,0.8,0.2,1,0.5l9.4,18.7c0.2,0.3,0.1,0.8-0.1,1.1C369.4,534.2,369.1,534.3,368.8,534.3z
				 M355.7,529.1l11.2,2.7l-7.3-14.6L355.7,529.1z" style="fill:#FFE7E6;"/>
		</g>
		<g>
			<path d="M404.4,510.8l-16.1,0.6c-0.5,0-0.9-0.3-1-0.8l-2.3-14.8c-0.1-0.4,0.1-0.8,0.5-1c0.3-0.2,0.8-0.2,1.1,0.1
				l18.4,14.2c0.3,0.3,0.5,0.7,0.3,1.1C405.2,510.6,404.9,510.8,404.4,510.8z M389.1,509.4l12.5-0.5l-14.2-11L389.1,509.4z" style="fill:#FFE7E6;"/>
		</g>
	</g>
	<g>
		<path d="M418.6,388.2c3.7,3.9,12.2,8.2,17.9,7.7c8.6-0.7,17.2-3.5,21.6-10.2c4.7-46.9,19.3-95.4,19.3-95.4l-39.8-38.8
			C433,285.6,424.7,340.7,418.6,388.2z" style="fill:#FF564F;"/>
		<path d="M441.4,211.2l2.8-27c0.3-2.7,2.8-4.7,5.5-4.4l30.3,3.6c3,0.4,5.1,3.1,4.8,6.1l-3,24L441.4,211.2z" style="fill:#FF564F;"/>
		<path d="M449.4,179.8c-2.7-0.3-5.2,1.6-5.5,4.4l-2.8,27l7.6,9.9c1.4-36.9,0.7-41.3,11.3-40L449.4,179.8z" style="fill:#FFE7E6;"/>
		<path d="M436.6,256.8c-4.6,34-11.9,84-18,131.4c1.8,1.9,4.6,3.8,7.7,5.3c6.9-47.3,10.5-89.6,16.8-128.1L436.6,256.8z" style="fill:#FFE7E6;"/>
		<g>
			<path d="M419.5,198.3c0,0,108.3,37.1,137.8-32.3c0,0,29.7,31,20,103.1S537,356.8,537,356.8s-11.5-33-44.7-52
				s-76.7-16.5-76.7-16.5S424.7,228.4,419.5,198.3z" style="fill:#324A58;"/>
			<path d="M537.1,357.8c-0.1,0-0.2,0-0.4-0.1c-0.3-0.1-0.5-0.3-0.6-0.6c-0.1-0.3-11.8-32.9-44.3-51.5
				c-32.6-18.7-75.8-16.4-76.2-16.4c-0.2,0-0.6-0.1-0.7-0.3c-0.2-0.2-0.3-0.5-0.2-0.7c0.1-0.6,9-60.1,4-89.7
				c-0.1-0.3,0.1-0.6,0.3-0.9c0.3-0.2,0.6-0.3,0.9-0.1c0.6,0.2,60,21.2,100.8,3.2c16.8-7.4,29-16.5,35.8-34.9
				c0.1-0.3,0.4-0.5,0.7-0.6s0.7,0,0.9,0.3c0.3,0.4,7.4,9.1,14.4,26.8c6.4,16.3,10.9,39.6,5.9,77c-9.6,71.7-39.5,87.7-40.8,88.4
				C537.4,357.7,537.2,357.8,537.1,357.8z M416.6,287.4c7.1-0.2,46-0.6,76.1,16.7c29.8,17.1,42.4,45.2,44.7,51.4
				c5.2-3.7,30.4-22.9,38.9-86.4c8.5-63.6-13.4-94.5-18.8-101.2c-7.1,18.1-19.4,27.1-36.2,34.5c-37.7,16.7-91.4,0.6-100.7-2.6
				C424.9,227.8,417.8,279.2,416.6,287.4z" style="fill:#324A58;"/>
		</g>
		<path d="M527.4,339.4c6.8,10.9,9.6,17.4,9.6,17.4s30.6-15.6,40.3-87.7s-20-103.1-20-103.1c-3,8.2-7,15.1-11.7,20.8
			c7.5,10.7,12.3,23.9,3.7,40.7c-14,27.3-7,44.5-8.8,77.3C539.9,315.8,533.7,330.9,527.4,339.4z" style="fill:#FFE7E6;"/>
		<g>
			<g>
				<defs>
					<path id="SVGID_2_" d="M527.6,338.4c6.8,10.9,9.6,18.4,9.6,18.4s30.6-15.6,40.3-87.7s-20-103.1-20-103.1
						c-3,8.2-7,15.1-11.7,20.8c7.5,10.7,12.3,23.9,3.7,40.7c-14,27.3-7,44.5-8.8,77.3C539.9,318.8,534,329.5,527.6,338.4z"/>
				</defs>
				<clipPath id="SVGID_3_">
					<use xlink:href="#SVGID_2_" style="overflow:visible;"/>
				</clipPath>
				<g style="clip-path:url(#SVGID_3_);">
					<path d="M584.8,232.9c-0.1,0-0.2-0.1-0.3-0.1l-45-30.1c-0.3-0.2-0.4-0.6-0.2-1c0.2-0.3,0.7-0.4,1-0.2l45,30.1
						c0.3,0.2,0.4,0.6,0.2,1C585.3,232.8,585,232.9,584.8,232.9z" style="fill:#324A58;"/>
				</g>
			</g>
			<g>
				<defs>
					<path id="SVGID_4_" d="M527.6,338.4c6.8,10.9,9.6,18.4,9.6,18.4s30.6-15.6,40.3-87.7s-20-103.1-20-103.1
						c-3,8.2-7,15.1-11.7,20.8c7.5,10.7,12.3,23.9,3.7,40.7c-14,27.3-7,44.5-8.8,77.3C539.9,318.8,534,329.5,527.6,338.4z"/>
				</defs>
				<clipPath id="SVGID_5_">
					<use xlink:href="#SVGID_4_" style="overflow:visible;"/>
				</clipPath>
				<g style="clip-path:url(#SVGID_5_);">
					<path d="M615.3,261.3c-0.1,0-0.3-0.1-0.4-0.2l-76-52.7c-0.4-0.3-0.5-0.8-0.2-1.2s0.8-0.5,1.2-0.2l76,52.7
						c0.4,0.3,0.5,0.8,0.2,1.2C616,261.2,615.6,261.3,615.3,261.3z" style="fill:#324A58;"/>
				</g>
			</g>
			<g>
				<defs>
					<path id="SVGID_6_" d="M527.6,338.4c6.8,10.9,9.6,18.4,9.6,18.4s30.6-15.6,40.3-87.7s-20-103.1-20-103.1
						c-3,8.2-7,15.1-11.7,20.8c7.5,10.7,12.3,23.9,3.7,40.7c-14,27.3-7,44.5-8.8,77.3C539.9,318.8,534,329.5,527.6,338.4z"/>
				</defs>
				<clipPath id="SVGID_7_">
					<use xlink:href="#SVGID_6_" style="overflow:visible;"/>
				</clipPath>
				<g style="clip-path:url(#SVGID_7_);">
					<path d="M586.1,278.1c-0.1,0-0.2-0.1-0.3-0.1l-48.2-34c-0.3-0.2-0.4-0.6-0.2-1c0.2-0.3,0.7-0.4,1-0.2l48.2,34
						c0.3,0.2,0.4,0.6,0.2,1C586.6,278.1,586.4,278.1,586.1,278.1z" style="fill:#324A58;"/>
				</g>
			</g>
			<g>
				<defs>
					<path id="SVGID_8_" d="M527.6,338.4c6.8,10.9,9.6,18.4,9.6,18.4s30.6-15.6,40.3-87.7s-20-103.1-20-103.1
						c-3,8.2-7,15.1-11.7,20.8c7.5,10.7,12.3,23.9,3.7,40.7c-14,27.3-7,44.5-8.8,77.3C539.9,318.8,534,329.5,527.6,338.4z"/>
				</defs>
				<clipPath id="SVGID_9_">
					<use xlink:href="#SVGID_8_" style="overflow:visible;"/>
				</clipPath>
				<g style="clip-path:url(#SVGID_9_);">
					<path d="M572.1,314.7c-0.1,0-0.2-0.1-0.3-0.1l-48.2-34c-0.3-0.2-0.4-0.6-0.2-1c0.2-0.3,0.7-0.4,1-0.2l48.2,34
						c0.3,0.2,0.4,0.6,0.2,1C572.6,314.6,572.3,314.7,572.1,314.7z" style="fill:#324A58;"/>
				</g>
			</g>
			<g>
				<defs>
					<path id="SVGID_10_" d="M527.6,338.4c6.8,10.9,9.6,18.4,9.6,18.4s30.6-15.6,40.3-87.7s-20-103.1-20-103.1
						c-3,8.2-7,15.1-11.7,20.8c7.5,10.7,12.3,23.9,3.7,40.7c-14,27.3-7,44.5-8.8,77.3C539.9,318.8,534,329.5,527.6,338.4z"/>
				</defs>
				<clipPath id="SVGID_11_">
					<use xlink:href="#SVGID_10_" style="overflow:visible;"/>
				</clipPath>
				<g style="clip-path:url(#SVGID_11_);">
					<path d="M567.8,339.7c-0.1,0-0.2-0.1-0.3-0.1l-48.2-34c-0.3-0.2-0.4-0.6-0.2-1c0.2-0.3,0.7-0.4,1-0.2l48.2,34
						c0.3,0.2,0.4,0.6,0.2,1C568.3,339.7,568.1,339.8,567.8,339.7z" style="fill:#324A58;"/>
				</g>
			</g>
			<g>
				<defs>
					<path id="SVGID_12_" d="M527.6,338.4c6.8,10.9,9.6,18.4,9.6,18.4s30.6-15.6,40.3-87.7s-20-103.1-20-103.1
						c-3,8.2-7,15.1-11.7,20.8c7.5,10.7,12.3,23.9,3.7,40.7c-14,27.3-7,44.5-8.8,77.3C539.9,318.8,534,329.5,527.6,338.4z"/>
				</defs>
				<clipPath id="SVGID_13_">
					<use xlink:href="#SVGID_12_" style="overflow:visible;"/>
				</clipPath>
				<g style="clip-path:url(#SVGID_13_);">
					<path d="M589.1,319.1c-0.1,0-0.3-0.1-0.4-0.1l-72.5-52.8c-0.4-0.3-0.5-0.8-0.2-1.2c0.2-0.4,0.7-0.5,1.1-0.3
						l72.5,52.8c0.4,0.3,0.5,0.8,0.2,1.2C589.6,319,589.3,319.2,589.1,319.1z" style="fill:#324A58;"/>
				</g>
			</g>
			<g>
				<path id="SVGID_1_" d="M527.6,338.4c6.8,10.9,9.6,18.4,9.6,18.4s30.6-15.6,40.3-87.7s-20-103.1-20-103.1
					c-3,8.2-7,15.1-11.7,20.8c7.5,10.7,12.3,23.9,3.7,40.7c-14,27.3-7,44.5-8.8,77.3C539.9,318.8,534,329.5,527.6,338.4z" style="fill:none;stroke:#324A58;stroke-width:1.5;stroke-linecap:round;stroke-linejoin:round;stroke-miterlimit:10;"/>
			</g>
		</g>
	</g>
	<g>
		<path d="M441.6,564l-55.3-5.2c-0.6,5.1-1.3,9.6-2,13.2c0,0,0,0,0,0.1l55.9,5.3C440.6,573.5,441.1,569,441.6,564z" style="fill:#FF564F;"/>
		<path d="M442.1,559.1c1.9-19.2,4.2-44.4,6.3-70.1c-9.1,0.1-19.4-3.2-27.7-7.5l-4.4,4.7l4.4,2.7L391,517.2l0,0
			c-1.7,13.6-3,26.2-4.2,36.7L442.1,559.1z" style="fill:#FF564F;"/>
	</g>
</g>
</svg>
