<?xml version="1.0" encoding="utf-8"?>
<!-- Generator: Adobe Illustrator 23.0.4, SVG Export Plug-In . SVG Version: 6.00 Build 0)  -->
<svg version="1.1" id="Layer_2" xmlns="http://www.w3.org/2000/svg" xmlns:xlink="http://www.w3.org/1999/xlink" x="0px" y="0px" viewBox="0 0 600 600" style="enable-background:new 0 0 600 600;" xml:space="preserve">

<g>
	<g>
		<polygon points="185.5,288.5 191.5,228.5 222.5,218.5 		" style="fill:#2568EF;"/>
		<path d="M150.5,269.5c0-1-6-33-6-33l24-8L150.5,269.5z" style="fill:#2568EF;"/>
	</g>
	<g>
		<polygon points="250.5,412.5 344.5,423.5 319.5,458.5 		" style="fill:#2568EF;"/>
		<polygon points="232.5,419.5 266.5,478.5 232.5,485.5 		" style="fill:#2568EF;"/>
	</g>
	<g>
		<path d="M541.4,234.4c-39.3-19-93.4,11.4-120.8,68c-27.4,56.6-17.7,117.9,21.6,136.9c39.3,19,97.4-9.4,124.8-66
			C594.3,316.7,580.7,253.4,541.4,234.4z M517.7,345c-5.8,12.4-18.8,21.3-34,25.9c-9.8,2.9-18.3,3.2-20.6,3.2c-0.3,0-0.6,0-0.6,0
			c-1.9-0.1-3.5-1.7-3.4-3.6c0.1-1.9,1.7-3.5,3.6-3.4c0.4,0,34.9,0.6,46.7-25c15-32.2-3.5-60.3-3.7-60.6c-1.1-1.6-0.7-3.8,0.9-4.9
			c1.6-1.1,3.8-0.7,4.9,0.9C512.3,278.8,534.4,309,517.7,345z" style="fill:#FFE7E6;"/>
		<polygon points="555,310 555,279 600,277 		" style="fill:#2568EF;"/>
		<polygon points="491.5,247.5 511.5,244.5 501.5,212.5 		" style="fill:#2568EF;"/>
		<polygon points="532,393.7 559,366 572,413 		" style="fill:#2568EF;"/>
		<polygon points="476.5,415.5 501.5,428.5 465.5,465.5 		" style="fill:#2568EF;"/>
		<polygon points="418.5,375.5 434.5,402.5 390.5,401.5 		" style="fill:#2568EF;"/>
		<g>
			<path d="M194.4,154.6c2.9-0.7,8-2.7,11-7.4c1.4-2.3,1.3-4.5,0.6-6.4c-3.4,1.5-6.5,3.1-9.5,4.7
				c-1.4,0.8-2.6,1.5-3.7,2.2L194.4,154.6z" style="fill:#FF564F;"/>
			<path d="M317,99.7c3,3.2,10,9.6,15.3,6.6c2.3-1.3,3.6-2.7,4-4.3c0.2-1,0.1-2-0.2-2.8c-3.4-3.3-6.8-6.1-9.9-8.1
				L317,99.7z" style="fill:#FF564F;"/>
			<path d="M172,187c3.8-0.1,11.3-0.9,15.7-5.3c2.8-2.8,3.5-5.5,1.7-9.4c-0.7-1.6-1.8-2.8-3.1-3.7
				c-5.2,1.5-10,3-14.4,4.4V187z" style="fill:#FF564F;"/>
			<path d="M501.5,294.5c-10.9-6.8-29-12-47-25s-54-46-69-89c-9.4-26.9-27.8-57.8-44.7-76.3c-0.9,2.6-3,4.8-6.1,6.5
				c-1.8,1-3.6,1.4-5.4,1.4c-9,0-17.4-10.5-17.8-11c-0.8-1-0.7-2.5,0.3-3.4l9.7-9c-2.6-1.1-4.9-1.5-7-1.1c-23.9,4-2,28,4,35
				c5.4,6.3,19.6,20.6,26.1,44.4c8.3,11.2,16.6,24.5,17,25.3c0.7,1.2,0.4,2.7-0.8,3.4c-0.4,0.3-0.9,0.4-1.3,0.4
				c-0.8,0-1.7-0.4-2.1-1.2c-0.1-0.2-8.9-14.5-17.4-25.7c-13-12.3-43.1-38.1-67.5-39.6c-24.4-1.5-45.4,2.8-61.9,9.4
				c1.3,3.2,1.5,7.1-1,11c-5.6,8.9-15,10.2-15.1,10.2c-1.2,0-4.2-0.8-4.4-1.9l-1.6-7c-4.8,4.4-3.9,11.1-3.5,13.9
				c47.1-14,46.8-14,73.6-14c18,0,38.7,11,61.4,31.5c16.7,15.1,28.4,30.3,28.6,30.5c0.8,1.1,0.6,2.7-0.5,3.5c-0.5,0.3-1,0.5-1.5,0.5
				c-0.8,0-1.5-0.3-2-1c-0.5-0.6-45.8-59.1-86.1-60c-19.5-0.5-45,5.1-66.5,11c0.8,0.9,1.5,2,2,3.2c2.7,5.8,1.5,10.8-2.7,15
				c-6.1,6.1-15.9,6.8-20,6.8c-1.1,0-1.8-0.1-1.9-0.1c-1.3-0.1-2.3-1.2-2.3-2.5v-13.4c-1.8,1.4-3.1,3-4.5,4.4
				c-4.5,4.5-6.5,24.5,10,21c13.8-2.9,48-15,69-13c19.5,1.9,24.3,10.6,40.8,27.7c25.3,7.7,48.9,21.2,50.4,22.1
				c1.2,0.7,1.6,2.2,0.9,3.4c-0.5,0.8-1.3,1.2-2.2,1.2c-0.4,0-0.9-0.1-1.2-0.3c-0.4-0.2-32.4-18.6-61.2-24.7
				c-12.9-0.4-29.6,2.6-37.5,18.5c-9,18-13.1,34.8-15.6,50.6c2.7,0.5,5.1,1.6,7.2,3.4c3.1,2.8,4.9,6.8,4.9,11
				c0,7.2-2.9,19.1-3.1,19.6c-0.3,1.1-1.3,1.9-2.4,1.9c-0.2,0-0.3,0-0.5,0l-10.1-1.9c0.4,13.3,8,10.4,10.5,10.4c3,0,13-5,17-18
				s8-51,22-57c12.3-5.3,37-2,54,21s6,50-3,59s-28,20-50,10s-29-17-37-8c-5.2,5.9-4.1,11.3-0.4,16.3l7.4-9.8
				c0.8-1.1,2.3-1.3,3.4-0.5c0.5,0.4,12.5,8.8,16.5,13.4c3.8,4.4,5.5,8.6,5.1,12.7c-0.3,2.7-1.4,5.3-3.4,7.9
				c12.2,7.4,26.9,13.2,38.5,8.4l-8.3-20.5c-0.5-1.3,0.1-2.7,1.4-3.3c1.3-0.5,2.7,0.1,3.3,1.4l8.2,20.1c2.4-1.3,5.1-2.9,8-4.6
				l-7.7-15.5c-0.6-1.2-0.1-2.7,1.1-3.4c1.2-0.6,2.7-0.1,3.4,1.1l7.6,15.1c24.7-15,63.1-39.1,97.8-33.7
				c43.4,6.7,47.4,12.7,58.4,15.7s30.4,0.6,40-12C518.5,330.5,517.5,304.5,501.5,294.5z" style="fill:#FF564F;"/>
			<path d="M252.5,370.1c0.3-2.7-1-5.7-3.9-9c-2.7-3.1-10-8.6-13.6-11.2l-6.6,8.8c1.3,1.3,2.6,2.5,4,3.8
				c3,2.6,9.4,8.1,17.3,13.3C251.4,373.9,252.3,372,252.5,370.1z" style="fill:#FF564F;"/>
			<path d="M223,301.5c0-2.8-1.2-5.4-3.2-7.2c-1.3-1.2-2.9-1.9-4.6-2.2c-1,7-1.8,13.8-2.7,20.4
				c-0.2,1.3-0.3,2.4-0.4,3.5l8.5,1.6C221.5,313.8,223,306.3,223,301.5z" style="fill:#FF564F;"/>
		</g>
	</g>
	<g>
		<g>
			<circle cx="75" cy="443" r="7" style="fill:#FF9B19;"/>
			<path d="M69.7,464.4c15.8,16.8,32.4,23.5,47.4,25.1L58.7,351.4l-14.2,5.4l9.7,20.5c0.3,0.7,0.4,1.4,0.2,2.1
				C54.2,379.9,39.3,432.1,69.7,464.4z M75,433c5.5,0,10,4.5,10,10s-4.5,10-10,10s-10-4.5-10-10S69.5,433,75,433z" style="fill:#FF9B19;"/>
			<path d="M165.5,310.8l-16.3,6.2l46.4,133.4c8.3-12.4,14.4-27.4,16.5-44.5c-2.7-29.6-18.3-55.7-42.6-71L165.5,310.8z
				 M191,385c5.5,0,10,4.5,10,10s-4.5,10-10,10s-10-4.5-10-10S185.5,385,191,385z" style="fill:#FF9B19;"/>
			<path d="M127.5,378c3.7,0,7.2,0.8,10.4,2.1l-1.6-29.6l-10.5,17.8c-0.2,0.4-0.6,0.7-1.1,0.7c-0.5,0.1-0.9-0.1-1.2-0.4
				l-12.7-12.7l-1.7,20.8c0,0.5-0.3,0.9-0.7,1.1c-0.4,0.3-0.9,0.3-1.3,0.2l-16.9-5.6l13.5,20.7C107.9,384.1,117,378,127.5,378z" style="fill:#FF9B19;"/>
			<circle cx="191" cy="395" r="7" style="fill:#FF9B19;"/>
			<path d="M164.8,486.2c-9.3,4.7-23.3,9.8-39.8,9.8c-2.5,0-5-0.1-7.6-0.4c-19.5-1.9-37-11-52.1-27.1
				c-13.6-14.5-20.8-34.8-20.8-58.8c0-15.2,2.8-27.3,3.8-31l-9.4-19.9L9.7,370l11.1,23.7c-1.8,5.7-3.1,11.6-3.8,17.6
				c-5.5,52.2,29.2,95.1,82.4,100.7c49.8,5.3,99.9-29.1,110.8-76.2C200.1,459.7,182.4,477.4,164.8,486.2z" style="fill:#FF9B19;"/>
			<polygon points="43.2,354 165,307.7 162.5,292.5 36.3,339.5 			" style="fill:#FF9B19;"/>
			<path d="M175,445l-26.2-28.5c-0.4-0.5-0.5-1.1-0.2-1.7c1.6-3.2,2.4-6.7,2.4-10.3c0-13-10.5-23.5-23.5-23.5
				S104,391.5,104,404.5c0,10.8,7.3,20.2,17.8,22.8c0.6,0.1,1,0.6,1.1,1.2l5.7,38.7L175,445z" style="fill:#FF9B19;"/>
			<path d="M162.2,480.8c11.1-5.6,22.3-15,31.4-27.4L146.4,318l-85,32.3l59,139.6C138.4,491,153.8,485,162.2,480.8z
				 M139,334.5c1.9,0,3.5,1.6,3.5,3.5s-1.6,3.5-3.5,3.5s-3.5-1.6-3.5-3.5S137.1,334.5,139,334.5z M107,341.5c1.9,0,3.5,1.6,3.5,3.5
				s-1.6,3.5-3.5,3.5s-3.5-1.6-3.5-3.5S105.1,341.5,107,341.5z M80,366.5c-1.9,0-3.5-1.6-3.5-3.5s1.6-3.5,3.5-3.5s3.5,1.6,3.5,3.5
				S81.9,366.5,80,366.5z M101,404.5c0-2.8,0.5-5.6,1.3-8.1c0,0,0,0,0,0l-17-26c-0.4-0.5-0.3-1.2,0.1-1.7c0.4-0.5,1.1-0.7,1.7-0.5
				l19.2,6.4l1.8-22.1c0-0.6,0.4-1.1,1-1.3c0.6-0.2,1.2-0.1,1.6,0.3l13.6,13.6l12-20.3c0.3-0.6,1-0.8,1.6-0.7
				c0.6,0.2,1.1,0.7,1.1,1.4l2,36c0,0.1,0,0.2,0,0.3c7.8,4.6,13,13.1,13,22.8c0,3.7-0.8,7.3-2.2,10.7l26.9,29.3
				c0.3,0.4,0.5,0.8,0.4,1.3c-0.1,0.5-0.4,0.9-0.8,1.1l-50,24c-0.2,0.1-0.4,0.1-0.6,0.1c-0.2,0-0.5-0.1-0.7-0.2
				c-0.4-0.2-0.7-0.6-0.8-1.1l-5.9-39.8C108.8,426.7,101,416.4,101,404.5z" style="fill:#FF9B19;"/>
			<polygon points="37.6,356.2 30.7,341.6 1.5,352.5 8.4,367.3 			" style="fill:#FF9B19;"/>
		</g>
		<path d="M54.5,233.5c34.9-9.9,59.4,40.1,69.2,64.8l15.8-5.8c0,0-28-95-90-80c-64.5,15.6-38,110-34,126l18.5-6.9
			C27.4,301.9,17.7,243.9,54.5,233.5z" style="fill:#FF9B19;"/>
		<path d="M162.5,442.5l-23.6-29c2.2-2.5,3.6-5.9,3.6-9.5c0-8-6.5-14.5-14.5-14.5s-14.5,6.5-14.5,14.5
			s6.5,14.5,14.5,14.5c0.1,0,0.1,0,0.2,0l6.3,38L162.5,442.5z" style="fill:#324A58;"/>
	</g>
	<g>
		<g>
			<path d="M281,355c-24.3,0-44-19.7-44-44s19.7-44,44-44s44,19.7,44,44S305.3,355,281,355z M281,281
				c-16.5,0-30,13.5-30,30s13.5,30,30,30s30-13.5,30-30S297.5,281,281,281z" style="fill:#324A58;"/>
		</g>
		<path d="M281,299.5c-6.8,0-12.4,5.5-12.5,12.3l-12.8,5.5c-3-3-7.1-4.9-11.7-4.9c-9.1,0-16.5,7.4-16.5,16.5
			c0,0.2,0,0.4,0,0.6l-83,35.9l16,38l41-17l-11-27l42.1-18.6c3,2.8,7,4.6,11.4,4.6c9.1,0,16.5-7.4,16.5-16.5c0-0.1,0-0.2,0-0.4
			l13.8-6.1c1.9,1.2,4.2,2,6.7,2c6.9,0,12.5-5.6,12.5-12.5S287.9,299.5,281,299.5z" style="fill:#324A58;"/>
	</g>
</g>
</svg>
