<?xml version="1.0" encoding="utf-8"?>
<!-- Generator: Adobe Illustrator 22.0.1, SVG Export Plug-In . SVG Version: 6.00 Build 0)  -->
<svg version="1.1" id="Layer_2" xmlns="http://www.w3.org/2000/svg" xmlns:xlink="http://www.w3.org/1999/xlink" x="0px" y="0px" viewBox="0 0 600 600" style="enable-background:new 0 0 600 600;" xml:space="preserve">

<g>
	<g>
		<polygon points="240.4,106.3 208.7,121.8 210.2,143.2 243.2,145.2 		" style="fill:#2568EF;"/>
		<path d="M204.9,103.6l30.2-37.9l-29.9,2.2c-2.2,13.3-4.8,29.5-5.8,35.9L204.9,103.6z" style="fill:#2568EF;"/>
		<polygon points="207.9,318.5 131.4,319.5 162.6,347.5 207.1,348.3 		" style="fill:#2568EF;"/>
		<path d="M210.5,147.5l-51-2l-2.4,64.5h29.8l1.6-33.5l14.3,1.1c0.3-0.1,0.5-0.2,0.8-0.1l42.9,2.2l0-0.2l11.5,0.7
			l0.5-18.8l-98.1-5c-0.6,0-1-0.5-0.9-1c0-0.6,0.5-1,1-0.9l98.1,5l0.3-9.6l-1.1,0c-0.2,0.1-0.5,0.1-0.8,0.1c0,0-0.1,0-0.1,0
			l-4.8-0.3l-8.6-0.2l0-0.3l-33-2L210.5,147.5z" style="fill:#2568EF;"/>
		<path d="M243.5,203.5C243.5,203.5,243.5,203.5,243.5,203.5c-0.5,0-0.9-0.3-1-0.8l-22.2,21.7l70.1-1.9l0.1-21
			L243.5,203.5z" style="fill:#2568EF;"/>
		<polygon points="161.5,369.5 152.8,370.8 152.9,377 161.5,375.7 		" style="fill:#2568EF;"/>
		<polygon points="399.7,150.3 398.5,104.5 371.5,99.5 372.1,151.8 		" style="fill:#2568EF;"/>
		<path d="M312.5,289.5c0,0.5-0.5,1-1,1c0,0,0,0-0.1,0c-0.6,0-1-0.5-0.9-1l1.2-24.7l-19.7,1.5l-0.5,49l31,34.4l1.3-85.9
			l-10.1,0.8L312.5,289.5z" style="fill:#2568EF;"/>
		<polygon points="217.2,220.5 247.3,191.1 246.8,183.7 213.8,182 		" style="fill:#2568EF;"/>
		<polygon points="372.2,162.8 400,161.3 399.8,153.3 372.1,154.8 		" style="fill:#2568EF;"/>
		<path d="M130.6,369.2l20.2-3.1l-0.3-17.6c0-0.6,0.4-1,1-1c0.5,0,1,0.4,1,1l0.3,17.3l8.7-1.3v-15.2l-32-28.8
			L130.6,369.2z" style="fill:#2568EF;"/>
		<polygon points="150.8,371.1 130.7,374.2 130.8,380.2 150.9,377.3 		" style="fill:#2568EF;"/>
		<polygon points="208.3,115.3 240,99.8 237.6,67.3 207.6,105 		" style="fill:#2568EF;"/>
		<polygon points="185.9,233 156.3,233 155.5,254.5 115.5,254.5 112.4,190.3 91.9,193.9 94.5,283.5 183.5,284.5 		" style="fill:#2568EF;"/>
		<polygon points="243.8,201.5 290.5,199.5 290.5,192.7 251.1,194.3 		" style="fill:#2568EF;"/>
		<path d="M111.3,166.6l-2.8-59.1l87.8-3.5c1-6.5,3.8-24,5.7-35.8L88.5,76.5l2.7,94.6L111.3,166.6z" style="fill:#2568EF;"/>
		<polygon points="327.5,198.5 343.6,197.6 343.3,190.7 327.5,191.4 		" style="fill:#2568EF;"/>
		<path d="M153,382l0.5,35.5c0,0.6-0.4,1-1,1c0,0,0,0,0,0c-0.5,0-1-0.4-1-1l-0.5-35.2l-20.1,2.9l1.6,71.3h29v-75.7
			L153,382z" style="fill:#2568EF;"/>
		<polygon points="372.2,165.8 372.5,189.5 348.3,190.5 349.6,220.2 401.5,217.5 400.1,164.3 		" style="fill:#2568EF;"/>
		<polygon points="111.6,171.7 91.4,176.2 91.7,187.9 112.2,184.2 		" style="fill:#2568EF;"/>
		<path d="M343.7,199.5l-16.1,0.9c0,0,0,0-0.1,0v20.8l17.1-0.9L343.7,199.5z" style="fill:#2568EF;"/>
		<polygon points="219.1,318.4 212.9,318.5 212.1,348.4 219.9,348.6 		" style="fill:#2568EF;"/>
		<polygon points="263.9,150 263,180.5 268.1,180.8 269.8,150.1 		" style="fill:#2568EF;"/>
		<polygon points="186.7,215 156.9,215 156.5,228 186.1,228 		" style="fill:#2568EF;"/>
		<path d="M323.5,151.5l-48.7-1.2l-1.7,30.9l21.4,1.3v10l-0.2,0l-2.1,56.4l-0.1,11.3l19.9-1.5l4.5-90.2
			c0-0.6,0.5-1,1-0.9c0.6,0,1,0.5,0.9,1l-4.5,90l9.9-0.8l0.1-3.5L323.5,151.5z" style="fill:#2568EF;"/>
		<polygon points="290.9,317.5 224.1,318.3 224.9,348.7 320.5,350.5 		" style="fill:#2568EF;"/>
	</g>
	<path d="M431.5,592.5l-7-94c0,0,9,21,15,47s4,47,4,47s8,0,19-5c0,0,5-27-2-54s-20-48-20-48l-90-15c0,0-1,17-13,39
		s-26,28-26,28l7,25c0,0,16-5,28-29s17-43,17-43l2,1l-31,94c0,0,23.7-15.2,52-5C411.5,589.5,416.5,591.5,431.5,592.5z" style="fill:#2568EF;"/>
	<g>
		<path d="M481.5,261c-0.1,0-0.3,0-0.4-0.1c-0.8-0.2-1.3-1.1-1-1.9l12.8-47.4l-17.2,22.7c-0.4,0.5-1.1,0.7-1.7,0.5
			c-0.6-0.2-1-0.9-1-1.5l2.5-30.9l-16.7,26.8c-0.3,0.6-1,0.8-1.6,0.7c-0.6-0.2-1.1-0.7-1.1-1.3l-1.5-21.2L439.9,251
			c-0.3,0.8-1.2,1.2-1.9,0.9c-0.8-0.3-1.2-1.2-0.9-1.9l17-50c0.2-0.7,0.9-1.1,1.6-1c0.7,0.1,1.2,0.7,1.3,1.4l1.7,23.4l17.6-28.1
			c0.4-0.6,1.1-0.8,1.7-0.6c0.7,0.2,1.1,0.9,1,1.5l-2.6,31.9l18.9-24.9c0.4-0.6,1.2-0.8,1.9-0.4c0.6,0.3,1,1.1,0.8,1.8l-13,55
			C484.8,260.6,482.2,261,481.5,261z" style="fill:#2568EF;"/>
	</g>
	<g>
		<path d="M500.5,199c-3.5,0-6.6-2.5-7.3-6c-0.4-2,0-4,1.1-5.6c1.1-1.7,2.8-2.8,4.8-3.2c4.1-0.8,8,1.8,8.8,5.9
			c0.4,2,0,4-1.1,5.6c-1.1,1.7-2.8,2.8-4.8,3.2c0,0,0,0,0,0C501.5,199,501,199,500.5,199z M501.7,197.4L501.7,197.4L501.7,197.4z
			 M500.5,187c-0.3,0-0.6,0-0.9,0.1c-1.2,0.2-2.2,0.9-2.9,1.9c-0.7,1-0.9,2.2-0.7,3.4c0.5,2.4,2.9,4,5.3,3.5l0,0
			c1.2-0.2,2.2-0.9,2.9-1.9c0.7-1,0.9-2.2,0.7-3.4C504.5,188.5,502.6,187,500.5,187z" style="fill:#2568EF;"/>
	</g>
	<g>
		<path d="M479.9,192.2c-3.1,0-5.8-2.2-6.4-5.3c-0.7-3.6,1.6-7,5.1-7.8c1.7-0.4,3.5,0,4.9,1c1.5,1,2.5,2.5,2.8,4.2
			c0.7,3.6-1.6,7-5.1,7.8v0C480.8,192.2,480.3,192.2,479.9,192.2z M480.9,190.6L480.9,190.6L480.9,190.6z M479.9,182
			c-0.2,0-0.5,0-0.7,0.1c-1.9,0.4-3.2,2.3-2.8,4.2c0.4,1.9,2.3,3.2,4.2,2.8v0c1.9-0.4,3.2-2.3,2.8-4.2c-0.2-0.9-0.7-1.7-1.5-2.3
			C481.3,182.2,480.6,182,479.9,182z" style="fill:#2568EF;"/>
	</g>
	<g>
		<path d="M457.2,196.1c-2.9,0-5.5-2.1-6.1-5c-0.7-3.4,1.5-6.7,4.9-7.4c1.6-0.3,3.3,0,4.7,0.9c1.4,0.9,2.3,2.3,2.7,4
			c0.3,1.6,0,3.3-0.9,4.7c-0.9,1.4-2.3,2.3-4,2.7c0,0,0,0,0,0C458.1,196.1,457.7,196.1,457.2,196.1z M458.2,194.5L458.2,194.5
			L458.2,194.5z M457.3,186.6c-0.2,0-0.4,0-0.7,0.1c-1.8,0.4-2.9,2.1-2.6,3.9c0.4,1.8,2.1,2.9,3.9,2.5l0,0c0.9-0.2,1.6-0.7,2.1-1.4
			s0.7-1.6,0.5-2.5c-0.2-0.9-0.7-1.6-1.4-2.1C458.5,186.8,457.9,186.6,457.3,186.6z" style="fill:#2568EF;"/>
	</g>
	<g>
		<path d="M503.5,432c-0.3,0-0.6-0.1-0.9-0.3c-0.7-0.5-17.7-12.6-16.6-25.4c0.1-0.6,0.5-1.2,1.1-1.3
			c0.2,0,18.5-5,24.1-14.3c0.3-0.5,0.8-0.8,1.4-0.7c0.6,0,1.1,0.4,1.3,0.9c0.1,0.1,5.8,13.3,16.9,15.1c0.6,0.1,1.1,0.6,1.2,1.2
			s-0.2,1.2-0.7,1.6c-0.2,0.1-16.9,10-26.6,22.6C504.4,431.8,503.9,432,503.5,432z M489,407.6c0.1,8.9,10.7,18,14.3,20.8
			c7.6-9.4,18.4-17,23.5-20.4c-7.7-2.8-12.4-9.9-14.5-13.7C505.9,402.2,492.8,406.5,489,407.6z" style="fill:#2568EF;"/>
	</g>
	<g>
		<path d="M485.3,407.6c-6.6,0-11.7-2.1-15.2-6.3c-8.9-10.7-3.8-31.2-3.6-32c0.1-0.5,0.7-0.9,1.2-0.7
			c0.5,0.1,0.9,0.7,0.7,1.2c-0.1,0.2-5.1,20.3,3.2,30.3c3.4,4.1,8.7,6,15.8,5.5c0.5,0,1,0.4,1.1,0.9c0,0.6-0.4,1-0.9,1.1
			C486.8,407.5,486.1,407.6,485.3,407.6z" style="fill:#2568EF;"/>
	</g>
	<g>
		<path d="M516.1,419.4c-10.2-5.1-15.3-16-15.5-16.5l1.8-0.8c0,0.1,5,10.7,14.5,15.5L516.1,419.4z" style="fill:#2568EF;"/>
	</g>
	<g>
		<path d="M492.6,419.5l-0.2-2c11.4-0.9,25.5-15.9,26.1-17.3c0,0-0.1,0.1-0.1,0.3h2
			C520.5,402.5,504.9,418.5,492.6,419.5z" style="fill:#2568EF;"/>
	</g>
	<g>
		<path d="M356.5,419c-0.4,0-0.7-0.1-1-0.4c-0.1-0.1-12.8-11.5-32.8-8.6c-0.6,0.1-1.2-0.2-1.5-0.8
			c-0.3-0.6-0.2-1.3,0.2-1.7c0.1-0.1,13.6-14.8,13.6-30c0-0.6,0.3-1.1,0.9-1.4c0.5-0.2,1.2-0.2,1.6,0.2c0.1,0.1,13.9,11.6,35,10.6
			c0.6,0,1.2,0.3,1.4,0.9c0.2,0.6,0.1,1.2-0.3,1.7c-0.1,0.1-13.7,13.8-15.6,28.1c-0.1,0.6-0.5,1-1,1.2
			C356.8,419,356.7,419,356.5,419z M329.3,406.5c13.1,0,22.3,5.4,26.2,8.2c2.3-10.6,9.7-20.2,13.6-24.7c-15.5-0.2-26.6-6.5-31.2-9.7
			c-1.1,11.2-8,21.4-11.8,26.2C327.1,406.5,328.2,406.5,329.3,406.5z" style="fill:#2568EF;"/>
	</g>
	<g>
		<path d="M372.7,389.8c-0.4,0-0.8-0.2-0.9-0.6c-0.2-0.5,0.1-1.1,0.6-1.3c0.3-0.1,25.9-10.2,24.4-37.2
			c0-0.6,0.4-1,0.9-1.1c0.5,0,1,0.4,1.1,0.9c1.6,28.4-25.4,39.1-25.7,39.2C373,389.8,372.9,389.8,372.7,389.8z" style="fill:#2568EF;"/>
	</g>
	<g>
		<path d="M340.5,409.5c-0.3,0-0.5-0.1-0.7-0.3c-0.4-0.4-0.4-1,0-1.4c8.7-8.7,11.7-21.4,11.7-21.5
			c0.1-0.5,0.7-0.9,1.2-0.7c0.5,0.1,0.9,0.7,0.7,1.2c-0.1,0.5-3.2,13.4-12.3,22.5C341,409.4,340.8,409.5,340.5,409.5z" style="fill:#2568EF;"/>
	</g>
	<g>
		<path d="M362.5,403.5c-0.2,0-0.3,0-0.4-0.1c-11.7-5.9-27.6-8.9-27.7-8.9c-0.5-0.1-0.9-0.6-0.8-1.2
			c0.1-0.5,0.6-0.9,1.2-0.8c0.2,0,16.3,3.1,28.3,9.1c0.5,0.2,0.7,0.8,0.4,1.3C363.2,403.3,362.9,403.5,362.5,403.5z" style="fill:#2568EF;"/>
	</g>
	
		<ellipse transform="matrix(9.780581e-02 -0.9952 0.9952 9.780581e-02 -104.899 829.8246)" cx="405.2" cy="472.8" rx="44.3" ry="59.2" style="fill:#FFE7E6;"/>
	
		<ellipse transform="matrix(0.9897 -0.1429 0.1429 0.9897 -76.2657 46.8006)" cx="287.6" cy="554.3" rx="35.5" ry="45.3" style="fill:#FFE7E6;"/>
	<polygon points="280.5,291.5 334.5,285.5 329.5,309.5 288.5,307.5 	" style="fill:#FF564F;"/>
	<path d="M408.5,421.5c0,0,6,6,17,1l-8,37c0,0-1,7-12,6s-6-13-6-13L408.5,421.5z" style="fill:#FF564F;"/>
	<g>
		<path d="M132.5,287.5c-0.6,0-1-0.4-1-1v-35c0-0.6,0.4-1,1-1s1,0.4,1,1v35C133.5,287.1,133.1,287.5,132.5,287.5z" style="fill:#FFFFFF;"/>
	</g>
	<path d="M440.5,373.8c0,0.1,0.1,0.1,0.1,0.2c1.2,2.5,5.4,9.3,9.4,10.1c1.2,0.2,2.4-0.1,3.5-1.1c1.1-1,1.7-2.2,1.7-3.7
		c0.2-5.5-6.3-12.5-7.4-13.6c-0.6,1.2-1.4,2.5-2.3,3.7c0.2,0,0.4,0,0.6,0.2c5.4,3.2,6.5,7.6,6.6,7.8c0.2,0.7-0.2,1.3-0.9,1.5
		c-0.1,0-0.2,0-0.3,0c-0.6,0-1.1-0.4-1.2-0.9c0-0.2-1-3.6-5.4-6.2c-0.3-0.2-0.5-0.5-0.6-0.9C443.2,371.8,442,372.9,440.5,373.8z" style="fill:#FF564F;"/>
	<path d="M466.5,344.5c0,0,23-37,12-52s-52-40-63-20s-12,54-12,54s-11-15-14-4s-2,39,13,27c0,0-9,43-1,60s26.5,8.8,33,3
		c6.5-5.8,13.3-14.7,18.8-26.5c-0.8,0.4-1.7,0.6-2.6,0.6c-0.4,0-0.8,0-1.2-0.1c-6-1.2-10.9-11-11.1-11.4c0,0,0-0.1,0-0.1
		c-2.5,1.1-5.4,1.8-8.9,1.8c-7.2,0-11.5-3.2-13.8-5.9c-2.5-2.9-3.4-5.9-3.4-6c-0.2-0.7,0.2-1.4,0.9-1.5c0.7-0.2,1.4,0.2,1.5,0.9
		c0.1,0.4,2.9,10.1,14.8,10.1c14.8,0,17.5-13.4,17.8-15c0.1-0.7,0.8-1.1,1.4-1c0.7,0.1,1.1,0.8,1,1.4c-0.2,1.1-0.5,2.3-1,3.6
		c0.2,0,0.4,0.1,0.6,0.3c0.3,0.3,6.4,6.5,8,12.7c1.1-3.1,2.2-6.4,3.1-9.8c0,0,10,18,21-7S466.5,344.5,466.5,344.5z M400.6,343.1
		c-0.3,0.6-1.8,3.4-3.9,3.4c-0.1,0-0.1,0-0.2,0c-2.1-0.1-2.9-2.7-3.2-3.5c-2-6.1-2.1-10.2-2.1-10.4c0-0.7,0.6-1.2,1.2-1.2
		s1.2,0.6,1.2,1.2c0,0,0,3.9,1.9,9.6c0.5,1.6,1,1.8,1,1.8c0.3,0,1.2-1,1.7-2c0.3-0.6,1.1-0.9,1.7-0.6
		C400.7,341.7,400.9,342.4,400.6,343.1z M415,332l4.1-19.1c0.3-1.3,1.7-2.2,3-1.9c1.3,0.3,2.2,1.7,1.9,3L419,334
		C419,336,414,337,415,332z M426.7,342.7c-0.1,0.4-0.3,0.7-0.6,0.9c-0.3,0.2-0.7,0.2-1.1,0.1c-1.5-0.6-6.4-1.8-8.4-0.4
		c-0.4,0.3-0.9,0.8-0.9,2.2c0,5.8,9.8,6.7,9.9,6.8c0.7,0.1,1.2,0.7,1.1,1.4c-0.1,0.6-0.6,1.1-1.2,1.1c0,0-0.1,0-0.1,0
		c-0.5,0-12.1-1.2-12.1-9.2c0-2.4,1.1-3.6,2-4.3c2.6-1.8,6.9-1,9.2-0.3l2.8-20.5c0.1-0.7,0.7-1.2,1.4-1.1c0.7,0.1,1.2,0.7,1.1,1.4
		L426.7,342.7z M451,320l-5.1,19.1c-0.3,1.1-1.3,1.9-2.4,1.9c-0.2,0-0.4,0-0.6-0.1c-1.3-0.3-2.2-1.7-1.9-3L445,318
		c1-3,2.7-3.3,4.1-2.9C450.4,315.4,452,317,451,320z M479.7,354.8c0,0.2-1.1,4.4-5.3,8.6c-1.2,1.2-2.3,1.7-3.5,1.7
		c-0.3,0-0.5,0-0.8-0.1c-2.5-0.6-3.6-3.8-3.8-4.1c-0.2-0.7,0.1-1.4,0.8-1.6c0.7-0.2,1.4,0.1,1.6,0.8c0.2,0.7,1,2.3,2,2.5
		c0.7,0.2,1.4-0.5,2-1c3.7-3.7,4.7-7.4,4.7-7.4c0.2-0.7,0.8-1.1,1.5-0.9C479.5,353.5,479.9,354.1,479.7,354.8z" style="fill:#FF564F;"/>
	<path d="M417,287c0,0,6-6,11,1s10,7,21,3s20,9,20,9l-9,61c0,0,7-8,13-5s9,9,15-2s12,1,12,1s10,9,14-3s13,3,13,3
		s-1-32-14-65c-7.6-19.2-24-58-53-32c0,0-13.2-33.9-52-7c-39,27-55,65-55,65s12-6,12,3s3,9,10,6s8,0,8,6s5,9,12,5s7,9,7,9L417,287z" style="fill:#324A58;"/>
	<g>
		<path d="M441.5,309.5c-0.4,0-0.9-0.1-1.2-0.4c-0.9-0.7-1-1.9-0.4-2.8c2.8-3.5,10.1-9.3,18.4-5.6c1,0.4,1.5,1.6,1,2.6
			c-0.3,0.7-1.3,1.1-2.3,0.7C449.5,300.7,445,309,441.5,309.5z" style="fill:#324A58;"/>
	</g>
	<g>
		<path d="M428.5,305.5c-0.5,0-2.1-1.2-2.5-1.5c-5-3-10.2-3-10.5-4.1c-0.2-1.1,0.5-2.1,1.6-2.4c5.8-1.2,12,3.8,12.7,4.4
			c0.8,0.7,1,2,0.3,2.8C429.6,305.3,429.1,305.5,428.5,305.5z" style="fill:#324A58;"/>
	</g>
	<polygon points="453.5,436.5 433.5,441.5 443.5,450.5 	" style="fill:#2568EF;"/>
	<polygon points="453.5,470.5 451.5,480.5 469.5,484.5 	" style="fill:#2568EF;"/>
	<polygon points="388.5,418.5 395.5,433.5 382.5,436.5 	" style="fill:#2568EF;"/>
	<polygon points="360.5,456.5 342.5,456.5 354.5,465.5 	" style="fill:#2568EF;"/>
	<path d="M364.6,492.2c2.4-0.3,16-15.1,16-15.1l8.1,10.9L364.6,492.2z" style="fill:#2568EF;"/>
	<polygon points="426,508.5 426,487 414.5,494.2 	" style="fill:#2568EF;"/>
	<polygon points="267,525 267,506.5 274.5,523.8 	" style="fill:#2568EF;"/>
	<polygon points="289.5,522.5 307.5,509.5 303.5,525.5 	" style="fill:#2568EF;"/>
	<polygon points="312.5,566 324.5,578 309.5,578 	" style="fill:#2568EF;"/>
	<polygon points="250.5,582.5 262.5,569.5 266.5,581.5 	" style="fill:#2568EF;"/>
	<polygon points="282,598.5 282,583.3 295.5,580 	" style="fill:#2568EF;"/>
	<path d="M353,30c0,0-3-30,30-30s36,33,36,33s22-26,45-11s5,35,5,35s39.9,2.3,25,32c-10,20-41,9-41,9s-7,19-26,16
		s-24-15-24-15s-2,17-21,18s-21-20-21-20s-19,14-35,16s-40-21-15-39c0,0-17-21-3-40S346,22,353,30z" style="fill:#FF9B19;"/>
	<path d="M335,123l14-12c0,0,4-4,7-1s-2,8-2,8l-12,14c0,0-3.1,4.1-7,1C330,129,332,126,335,123z" style="fill:#FF9B19;"/>
	<path d="M122.4,153.7l-5.5-12.9c0,0-2-3.8,0.9-5.3s5.3,3.3,5.3,3.3l7.4,11.9c0,0,2.3,3.2-0.9,5.3
		C125.6,158.8,123.9,156.6,122.4,153.7z" style="fill:#FF9B19;"/>
	<path d="M185.8,298.3l12.4,6.5c0,0,4,1.7,2.7,4.7c-1.3,3-6.2,0.8-6.2,0.8l-13.3-4.6c0,0-3.8-1-2.7-4.7
		C180.1,296.4,182.8,297,185.8,298.3z" style="fill:#FF9B19;"/>
	<path d="M177.7,518.5l-10.7-9.1c0,0-3.5-2.5-1.6-5.2s6.3,0.6,6.3,0.6l11.9,7.4c0,0,3.5,1.8,1.6,5.2
		C182.8,521.5,180.3,520.4,177.7,518.5z" style="fill:#FF9B19;"/>
	<path d="M147.4,527.7l-0.3-8.2c0,0-0.4-3.7,2.4-4.2c2.8-0.5,3.2,4.1,3.2,4.1l2.2,7.9c0,0,0.8,3.3-2.4,4.2
		C148.4,532.7,147.7,530.5,147.4,527.7z" style="fill:#FF9B19;"/>
	<path d="M94.2,467.3l17.8,5.7c0,0,5.6,1.3,4.2,5.5c-1.4,4.1-8.4,2.4-8.4,2.4l-18.7-3c0,0-5.3-0.5-4.2-5.5
		C86.2,466.2,89.9,466.3,94.2,467.3z" style="fill:#FF9B19;"/>
	<path d="M412.8,148.8l-3.8-21c0,0-1.7-6.3,3-7.8s6.7,6.4,6.7,6.4l6.9,20c0,0,2.3,5.4-3,7.8
		C415.8,157.2,414,153.6,412.8,148.8z" style="fill:#FF9B19;"/>
	<path d="M433,135l-8-10c0,0-3-3,0.1-5.7c2.1-1.9,5.2,1.3,5.2,1.3l9.2,8.2c0,0,2.7,2.1,0.8,4.9
		C437.7,137.2,435,137.1,433,135z" style="fill:#FF9B19;"/>
	<path d="M354.6,130.5l2.9-7.8c0,0,0.4-2.7,3.4-2.7s2.2,4.3,2.2,4.3s-0.4,6-1,8c-0.4,1.4-2.2,4.4-5,3.7
		C354,135.3,353.9,133.3,354.6,130.5z" style="fill:#FF9B19;"/>
	<path d="M73,123.3c0,0,15.2-15.3,18.3-18.2c4.8-4.3,8.2-0.6,5.6,3c-2.6,3.6-18.2,23.3-18.2,23.3s-2.8,4.6-6.3,1
		S69.2,127.7,73,123.3z" style="fill:#FF9B19;"/>
	<path d="M201.1,282.2c0,0,14.7,15.8,17.4,19.1c4,5,0.3,8.2-3.2,5.4C211.7,304,195,290,195,290s-7-6-4-10
		S198,279,201.1,282.2z" style="fill:#FF9B19;"/>
	<path d="M104.2,531.8c0,0,14.8-15.7,18-18.5c4.7-4.3,8.2-0.8,5.6,2.9s-15.5,21.2-15.5,21.2s-5.5,7.4-9.7,4.6
		C98.4,539.3,101.1,535.1,104.2,531.8z" style="fill:#FF9B19;"/>
	<path d="M87,502.4c0,0,20.4-6.9,24.5-8c6.2-1.6,7.6,3.1,3.6,5.2c-4,2-23.6,11.5-23.6,11.5s-8.3,3.9-10.8-0.5
		C78.4,506.3,82.8,503.9,87,502.4z" style="fill:#FF9B19;"/>
	<path d="M191.3,369.2c0,0,12.5-9.3,15.1-11c3.9-2.5,5.6,0.5,3.2,2.9c-2.3,2.3-13.9,13.3-13.9,13.3s-4.9,4.6-7.2,2
		C186.2,373.8,188.7,371.1,191.3,369.2z" style="fill:#FF9B19;"/>
	<path d="M124.5,114.5c0,0,24,25,26,28s2,5,0,7s-6,2-12-6s-19-25-19-25s-3-3,0-5S124.5,114.5,124.5,114.5z" style="fill:#FF9B19;"/>
	<path d="M178,460c0,0,13-18,18-23c3.5-3.5,5-5,9-3s6,5,3,9s-20,21-20,21s-6,6-10,3S178,460,178,460z" style="fill:#FF9B19;"/>
	<path d="M188,482c0,0-3,0-3,4c0,3,3,3,3,3s26,2,32-1s2-9,0-9s-3-1-12,0S188,482,188,482z" style="fill:#FF9B19;"/>
	<path d="M107,82l72-8c0,0,7.2,2.5,5,2c-13-3-15.1,6.1-12,13c5,11,12,11,12,11l-74,4c0,0-6-1-6-11S107,82,107,82z" style="fill:#FF9B19;"/>
	<path d="M179.6,84.5c0.5,2.2,1.4,4.3,2.9,5.9c1.4,1.6,3.5,2.8,5.6,3c0.5,0,1-0.1,1.3-0.3c0.3-0.2,0.6-0.6,0.6-1.1
		c0.1-0.9-0.1-2-0.5-3c-0.8-2-2.2-3.8-3.8-5.2c-1.6-1.4-3.5-2.7-5.4-3.6c-1-0.4-2-0.8-2.9-0.8c-1,0-1.6,0.2-2,0.9
		c-0.4,0.7-0.5,1.7-0.4,2.8c0.1,1,0.3,2.1,0.6,3.1c0.6,2,1.8,3.8,3.2,5.3c1.5,1.5,3.2,2.7,5.1,3.5c1.9,0.8,4,1.3,5.9,1.1
		c3.8-0.1,4.3-5.1,3.4-9c-0.9-4-3.4-7.8-7-9.9c-3.6-2.2-8.3-2.5-12.7-1.5c-0.1,0-0.2,0-0.2-0.1c0-0.1,0-0.1,0.1-0.2
		c2.1-0.9,4.4-1.4,6.8-1.5c2.4-0.1,4.8,0.4,7,1.4c2.2,1,4.1,2.7,5.6,4.6c1.5,1.9,2.6,4.2,3.3,6.5c0.6,2.4,0.9,4.9,0.1,7.5
		c-0.4,1.3-1,2.6-2.2,3.6c-0.6,0.5-1.3,0.9-1.9,1.1c-0.7,0.2-1.4,0.4-2,0.4c-2.7,0.2-5.1-0.5-7.3-1.6c-2.2-1.1-4.2-2.5-5.8-4.3
		c-1.6-1.8-2.9-4-3.5-6.3c-0.3-1.2-0.5-2.4-0.5-3.6c0-1.2,0-2.5,0.8-3.8c0.4-0.6,1-1.2,1.7-1.5c0.7-0.3,1.4-0.3,2.1-0.3
		c1.3,0.1,2.5,0.6,3.5,1.1c2.1,1.1,4,2.4,5.7,4.1c1.7,1.7,3,3.6,3.9,5.9c0.4,1.1,0.7,2.3,0.5,3.6c-0.1,0.6-0.5,1.3-1.1,1.7
		c-0.6,0.4-1.3,0.4-1.9,0.4c-2.4-0.3-4.5-1.7-6-3.5c-1.4-1.8-2.3-4-2.7-6.3c0-0.1,0-0.2,0.1-0.2C179.6,84.3,179.6,84.4,179.6,84.5
		L179.6,84.5z" style="fill:#FF9B19;"/>
	<path d="M206.5,321.5l-1,24c0,0-8,2-8-10S200.5,322.5,206.5,321.5z" style="fill:#FF9B19;"/>
	<path d="M288.9,324.4c-0.5-1.1-1.3-2.3-2.4-3.1c-0.6-0.4-1.4-0.7-2.1-0.8c-0.7-0.1-1.4-0.1-2,0
		c-2.5,0.3-4.5,1.5-6.3,2.7c-1.8,1.3-3.4,2.8-4.8,4.6c-1.3,1.8-2.4,3.8-2.8,6.1c-0.2,1.2-0.1,2.3,0.1,3.5c0.3,1.2,0.8,2.3,1.7,3.2
		c0.9,0.9,2.1,1.4,3.3,1.5c1.2,0.1,2.4-0.2,3.5-0.6c2.1-1,3.6-2.8,4.6-4.7c0.5-1,0.9-2,1.2-3c0.3-1,0.5-2.1,0.6-3.2
		c0-0.6,0.1-1.1-0.2-1.8c-0.1-0.3-0.5-0.6-0.9-0.7c-0.4-0.1-0.7,0-1,0.1c-1.1,0.4-1.9,1.1-2.7,1.7c-1.6,1.4-3,2.9-4.4,4.5
		c-0.1,0.1,0,0.2,0,0.2c0.1,0.1,0.2,0.1,0.2,0c1.4-1.5,3-2.9,4.6-4.2c0.8-0.6,1.7-1.2,2.6-1.5c0.2-0.1,0.4-0.1,0.6,0
		c0.1,0,0.2,0.1,0.3,0.3c0.1,0.3,0.1,0.8,0.1,1.3c-0.1,1-0.4,2-0.7,2.9c-0.3,1-0.7,1.9-1.2,2.7c-1,1.7-2.4,3.1-4.2,3.9
		c-1.7,0.7-3.7,0.5-4.8-0.7c-1.1-1.2-1.4-3.2-1-5c0.4-1.8,1.3-3.5,2.6-5c1.2-1.5,2.8-2.8,4.4-3.8c1.6-1,3.5-1.8,5.2-1.9
		c0.4,0,0.8,0,1.1,0c0.3,0.1,0.6,0.2,0.8,0.3c0.5,0.4,1,1.1,1.4,1.8c0.7,1.5,0.9,3.4,0.7,5.3c-0.2,1.9-0.7,3.8-1.6,5.5
		c-0.9,1.7-2,3.3-3.5,4.6c-1.4,1.3-3.2,2.3-5.1,2.9c-2.8,0.9-6.6,0.2-8.6-2c-1.3-1.4-2.3-2.9-2.5-6.5c-0.5-12,10-15,10-15l-50,1
		l1,24l43.8,0.5c0.1,0,4.6,0.1,6.8-0.4c4.3-1,8.1-4,10.2-7.9c1.1-1.9,2-4,2.3-6.3C290,329.1,289.9,326.7,288.9,324.4z" style="fill:#FF9B19;"/>
	<path d="M137,457h19v-25c0,0-1-5-9-5c-8.1,0-10,5-10,5V457z" style="fill:#FF9B19;"/>
	<path d="M160,495l-2-26l-22.9,0.5l-0.6,24c0,0,4-7.7,12-8c5.6-0.2,10.5,2.5,10.5,9.5c0,0.1,0,0.3,0,0.4
		c-0.1,0.6-0.2,1.3-0.3,1.9c-0.9,4-3,7.3-6.3,8.6c-1.6,0.7-3.5,0.9-5.3,0.8c-1.8-0.1-3.8-0.5-5.2-1.2c-0.2-0.1-0.3-0.2-0.5-0.3
		c-0.1-0.1-0.2-0.1-0.3-0.3l-0.4-0.4c-0.1-0.2-0.2-0.3-0.3-0.4c-0.4-0.6-0.6-1.3-0.7-2.1c-0.1-1.6,0.5-3.4,1.6-5.1
		c0.5-0.8,1.1-1.6,1.8-2.3c0.7-0.7,1.5-1.4,2.2-2c1.6-1.2,3.3-1.9,5-1.8c0.8,0.1,1.7,0.4,2.5,0.8c0.6,0.3,1.1,1,1.4,1.8
		c0.6,1.7,0.4,3.8-0.4,5.5c-0.8,1.7-2.3,3.1-4.1,3.7c-0.9,0.3-2,0.6-2.9,0.5c-0.9,0-1.9-0.3-2.5-0.9c-0.6-0.6-0.8-1.5-0.5-2.4
		c0.2-0.9,0.9-1.7,1.6-2.4c0.8-0.7,1.6-1.2,2.6-1.2c1,0,1.9,0.7,2.5,1.4l0,0c0.1,0.1,0.2,0.1,0.3,0c0.1-0.1,0.1-0.2,0.1-0.3
		c-0.6-0.9-1.6-1.7-2.9-1.9c-1.2-0.2-2.4,0.4-3.3,1.1c-0.9,0.7-1.7,1.6-2.1,2.8c-0.4,1.1-0.3,2.7,0.6,3.7c0.9,1,2.2,1.5,3.4,1.6
		c1.2,0.1,2.4-0.1,3.5-0.4c0.6-0.2,1.2-0.3,1.7-0.6c0.3-0.1,0.6-0.3,0.8-0.4l0.8-0.5c0.9-0.8,1.8-1.7,2.4-2.8
		c1.2-2.2,1.5-4.7,0.9-7.2c-0.2-0.6-0.4-1.2-0.8-1.8c-0.2-0.3-0.4-0.6-0.7-0.8c-0.3-0.2-0.6-0.5-0.8-0.7c-1-0.7-2.3-1.2-3.6-1.4
		c-1.3-0.2-2.7,0-3.9,0.4c-1.2,0.4-2.3,1-3.3,1.6c-1,0.7-1.9,1.4-2.8,2.2c-0.9,0.8-1.7,1.7-2.4,2.7c-1.4,2-2.5,4.3-2.6,7.1
		c0,1.4,0.3,2.9,1,4.1l0.6,0.9c0.2,0.3,0.4,0.6,0.7,0.8c0.2,0.3,0.6,0.6,0.8,0.8c0.3,0.2,0.6,0.5,0.9,0.6c2.4,1.4,4.8,1.9,7.3,2.1
		c1.2,0,2.5,0,3.8-0.2c1.2-0.2,2.5-0.6,3.7-1.2c1.2-0.6,2.2-1.3,3.2-2.2c0.9-0.9,1.8-1.9,2.4-3c1.3-2.2,1.9-4.6,2-6.9
		C159.9,496.7,160,494.9,160,495z" style="fill:#FF9B19;"/>
	<polygon points="142.5,113.5 139.5,66.5 165.5,59 161.5,112.4 	" style="fill:#FF564F;"/>
	<g>
		<path d="M199.7,559c-1.5-2.1-2.5-4.1-3.2-6c-9.9-0.1-21.1,2.1-30.5,4.9c-6.5,2.4-15,7-13.2,9.9
			c2.8,4.6,15.2-2.9,32.2-4.9C189.5,561.4,194.8,559.6,199.7,559z" style="fill:#FF564F;"/>
		<path d="M147.5,560.5c3.7-1.1,15.8-3.8,18.5-4.5c11.7-4.4,27-5,29.6-4.9c-0.8-2.8-1-5.3-1.1-7.5
			c-9.8-0.3-16.2,0.1-28.5,2.4c-4,1-13.6,3.3-17.5,5.5C141,555.6,141.4,562.3,147.5,560.5z" style="fill:#FF564F;"/>
		<path d="M287.5,541.5c-18,0-30-8-47-20s-35-18-35-18s-12-4-14,2s8.6,7.7,15,11c10.5,5.5,13,12,13,12
			c-9-0.8-18.6,2.4-21.8,3.6c-0.8,0.3-1.6,0.5-2.5,0.5c-30.6,0.6-45.7,5-48.7,8c-3,3-2.5,6.5,8,5c5.6-0.8,10.1-1.3,13.4-1.6
			c9.6-1.5,19-2.6,26.6-2.3c0.2-3.2,0.9-5.2,1-5.4c0.2-0.5,0.8-0.8,1.3-0.6c0.5,0.2,0.8,0.8,0.6,1.3c0,0-1.2,3.4-0.8,8.4
			c0.3,4.6,2.1,11.6,8.6,18.5c0.4,0.4,0.4,1-0.1,1.4c-0.2,0.2-0.4,0.3-0.7,0.3c-0.3,0-0.5-0.1-0.7-0.3c-1-1-3-3.2-3.8-4.2
			c-5.2-0.1-23,5-28,9c-3.9,3.1-2.6,7.5,10,3c14-5,57.5-6.5,67.5-9.5s16-2,35,0S298.5,541.5,287.5,541.5z M217.9,553.2
			c0,0.4-0.4,0.8-0.9,0.8c0,0-0.1,0-0.1,0c-0.5,0-0.8-0.5-0.8-0.9c0.8-8.7-7.4-16-7.4-16.1c-0.4-0.3-0.4-0.8-0.1-1.2
			c0.3-0.3,0.9-0.4,1.2-0.1C210.3,536,218.8,543.7,217.9,553.2z" style="fill:#FF564F;"/>
	</g>
	<polygon points="122.5,471.5 171.5,470.5 161.5,456.5 132.5,456.5 	" style="fill:#FF564F;"/>
</g>
</svg>
