<svg xmlns="http://www.w3.org/2000/svg" xmlns:xlink="http://www.w3.org/1999/xlink" id="Layer_2_1_" x="0" y="0" version="1.1" viewBox="0 0 600 600" xml:space="preserve" style="enable-background:new 0 0 600 600"><g><path d="M205.5,89.7c-3.8-27.3,0-29.3-1.7-39.6c-1.7-10.2-13.3-13-19.8-2c-6.5,10.9-11.3,29-8.9,49.1s13,48.1,13,48.1 l29.7-16.7C217.8,128.6,209.2,117,205.5,89.7z M199.5,88.7l-15.2,4.8c-0.2,0-0.3,0.1-0.5,0.1c-0.6,0-1.2-0.4-1.4-1 c-0.3-0.8-0.1-1.5,4.4-3.3c5.4-2.1,11.8-3.4,11.8-3.4c0.8-0.3,1.6,0.2,1.9,1C200.7,87.6,200.3,88.4,199.5,88.7z" style="fill:#ff564f"/><path d="M236.3,343.2c-14.9-55.4-70.7-88.5-124.7-74s-85.7,71.2-70.8,126.5c14.9,55.4,70.7,88.5,124.7,74 S251.2,398.6,236.3,343.2z M173.8,398.4c0,0-0.5,0.1-1.2,0.2c-6.1,0.8-34.7,3.9-50.9-22.3c-18.2-29.6,7.2-56.4,7.5-56.7 c1-1,2.5-1,3.5,0s1,2.5,0,3.5c0.8-0.8-20.2,24.5-5,49.3c16.2,26.4,43.8,21.3,45,21.1c1.3-0.2,2.7,0.6,2.9,2 C176,396.8,175.1,398.1,173.8,398.4z" style="fill:#ffe7e6"/><polygon points="108.3 287.5 137.7 279 121.6 239.8" style="fill:#2568ef"/><polygon points="71.6 334.3 79.4 302.8 38.7 298.1" style="fill:#2568ef"/><polygon points="31.2 418.6 70.6 372.1 87 402.5" style="fill:#2568ef"/><polygon points="103.5 480.7 106.9 432 134.4 444.7" style="fill:#2568ef"/><polygon points="175.2 444.7 190.5 425.7 203.7 454.3" style="fill:#2568ef"/><path d="M179.3,312.2c0,0-23.2,10.8-35.3,15.1c-12.1,4.3-24.6,14.5-19.3,37.2c5.3,22.7,27.7,27.4,44.9,19.9 c12.9-5.7,55.5-26.2,55.5-26.2L179.3,312.2z" style="fill:#ff564f"/><path d="M348.7,159.3c0,0,14-16,26.3-22.2c12.3-6.1,27.6-9.5,32.7-3.1c5.1,6.5-0.7,11.3-10.2,18.1s-23.9,21.5-29,31.4 s-10.9,24.9-10.9,24.9L348.7,159.3z" style="fill:#ff564f"/><path d="M263.9,128c-6-2.8-6.9-10.4-8.1-16.1c-0.2-1-0.1-1.8,0.2-2.6c-2.1,0.3-3.8,0.6-4.5,0.8c0,0-3.7,12.6,5.3,17.1 c7,3.5,10.6,1.8,10.6,1.8S265.1,128.6,263.9,128z" style="fill:#324a58"/><path d="M280.2,104.4c0,0,1.8,17.6,5.1,25c3.3,7.4,7.2,8.1,10.6,7.6l-6.3-34L280.2,104.4z" style="fill:#324a58"/><path d="M365.5,18.6c-2.5-4.2-10.3-5.8-21.3,0.6c-10.2,5.9-16.4,13.3-22.8,22C313.1,52.5,306,70.4,306,70.4 s7.8,12.4,7.8,28.7l18.5-1.6c0,0-1.1-20,10.5-39.4c8.4-14,13.8-20.8,18.3-25.3C365.6,28.4,368,22.8,365.5,18.6z M329.2,85.2 c-0.1,0.7-0.7,1.3-1.5,1.3c-0.1,0-0.1,0-0.2,0l-8.9-1.3c-0.8-0.1-1.4-0.9-1.3-1.7c0.1-0.8,0.9-1.4,1.7-1.3l8.9,1.3 C328.7,83.6,329.3,84.3,329.2,85.2z M339,59.7c-0.2,0.6-0.8,1-1.4,1c-0.2,0-0.3,0-0.5-0.1l-13.4-4.4c-0.8-0.3-1.2-1.1-1-1.9 c0.3-0.8,2.4-0.9,8.6,0.9c0.1,0,0.1,0,0.2,0.1c4.4,1.1,6.5,2.6,6.5,2.6C338.8,58.1,339.2,58.9,339,59.7z" style="fill:#ff564f"/><g><g><path d="M436.6,395.8c16.9-41.4-23-66.3-23-66.3s-26.1-12.4-42.9-69.7S363,96.2,363,96.2s-44.9,1.8-86.4,8.7 c0.2,0.3,0.4,0.7,0.5,1.1c0.2,0.7,0.8,6,0.3,7.5c-0.2,0.6-0.7,1.5-0.7,2.2c-0.1,0.9-0.4,1.6-0.9,2.2c-0.8,2.5-1.7,4.9-2.2,7.5 c-0.4,2.2-11.4,9.6-14.8-5.3c-0.9-3.9-1.7-7.6-1.7-11.5c-1.9,0.4-3.7,0.8-5.6,1.3c-46,11.2-92,35.3-92,35.3s-6.6,117.6-5.6,190.2 s47,82.8,75.2,102.8s1.5,55.7-13.5,75.7s-19.6,26.6-15.1,43.5c4.9,18.8,49.1,39.9,103.3,19.4c5.7-2.2,10.8-4.2,17.2-6.1 c-15.9-2.4-28.1-11.2-32.9-21.4c-3.8-8.1-3.9-22.1,1.9-34.5c3.8-8.1,13.5-18.9,33.6-24.2h0.2l123.9-17.7 C421.2,453.9,420,436.4,436.6,395.8z M218.4,210.2c-3.6,0-6.5-2.9-6.5-6.5s2.9-6.5,6.5-6.5s6.5,2.9,6.5,6.5 S221.9,210.2,218.4,210.2z M298.5,256.1c-3.8,1.7-5-3.7-6.5-6.2s-4.4-11.4-15.6-10.5c-11.3,1-17,15.3-18.1,18.5s-2.4,8.3-5.6,7.5 c-3.1-0.8-0.6-9.2-0.6-9.2c3.9-11.8,10.5-22.4,23.5-25c14.7-3,21.8,13.8,21.8,13.8S302.4,254.4,298.5,256.1z M298.7,137.3 c-3.6-1.3-4.4-4.9-5.3-8.2c-0.8-2.8-1.5-5.7-2-8.6c-0.1-0.6-0.1-1.1,0-1.6c-0.6-1.4-0.6-3.1,0.7-4.5c3-3.2,7.5-4.5,11.6-2.7 c0.7,0.3,1.3,0.7,1.9,1.1c2.1,0,4.2,1.3,4.2,4v3.9c0,0.4,0,0.8,0,1.2c0,0.4-0.1,0.7-0.2,1c0.2,0.4,0.2,0.9,0.2,1.4 C309.3,130,307.1,140.4,298.7,137.3z M315.7,189.6c-3.2,0-5.8-2.6-5.8-5.8s2.6-5.8,5.8-5.8s5.8,2.6,5.8,5.8 C321.4,187,318.9,189.6,315.7,189.6z" style="fill:#2568ef"/><path d="M553.9,461.2l-28.4,4.5l-186.2,26.6c3.1-0.1,6.2,0.2,9,1c13.9,3.8,28.4,17.5,27.2,38.5 c-0.6,11.1-5,21-12.1,28.3c46.1-9.7,96-15.4,124.2-18.1c41.4-4.1,81.8-5.3,81.8-5.3C595.1,487.6,553.9,461.2,553.9,461.2z" style="fill:#2568ef"/><path d="M319.9,498.8c3.6-2.5,7.8-4.4,12.1-5.4l-7.6,1.1c-14.7,3.9-26,11.5-30.9,22c-5.1,11.1-3.3,22.8,0.1,30.1 c5.1,10.8,21.3,21.7,36.4,21.7c4.6,0,15.1-3.1,23.4-6.3c11.4-4.4,17.4-17.5,18.2-30.3c1.1-18.8-11.8-31.1-24.2-34.5 c-7.8-2.1-17.9-0.1-25.2,4.9c-4.6,3.2-10.3,9.1-11.2,19.2c-0.7,7.3,1,12.9,5.1,16.9c4.2,4,10.6,5.9,17.7,5 c8.8-1,14.1-8.7,14.5-15.4c0.3-5.4-2.4-9.4-7.3-10.6c-3.3-0.8-5.9-0.5-7.8,1.1c-3.9,3.1-3.5,13.1-4.5,13h-0.8 c-0.7,0-1.3-0.5-1.4-1.2c-0.4-3-0.4-9.9,4.2-15c2.5-2.8,7.8-4,12.3-2.9c6.9,1.7,10.8,9.4,10.4,16.8c-0.5,8.3-8,18.8-19,20.1 c-8.3,1-16.9-2.3-21.9-7.2c-4.9-4.7-7-12.7-6.3-21.1C307.1,509.4,314.6,502.5,319.9,498.8z" style="fill:#2568ef"/></g><path d="M203.4,217.5c0,0-4.5,10.1-4.8,20.2c-0.3,10.1-9.3,13.8-12.4,7c-3.1-6.7,0.8-15.7,5.6-20.5 C196.6,219.5,203.4,217.5,203.4,217.5z" style="fill:#ff9b19"/><path d="M376.2,207.1c0,0,20.7-1.9,38.4,13.4c14.5,12.6,12.4,25,6.3,31.3c-4.4,4.5-17.1,7-27.1-8.7 C385.8,230.9,385.6,215.8,376.2,207.1z" style="fill:#ff9b19"/><path d="M388.4,256.1c0,0,11.2,7.7,14,12.8s0.8,14.6-7,8.3C387.6,270.8,388.4,256.1,388.4,256.1z" style="fill:#ff9b19"/></g><g><g><path d="M466.5,329c-1.4,0-2.5-1.1-2.5-2.5V88.3c0-1.4,1.1-2.5,2.5-2.5s2.5,1.1,2.5,2.5v238.2 C469,327.9,467.8,329,466.5,329z" style="fill:#ff9b19"/></g><g><path d="M431.6,335c-2.1,0-4-1.5-4.4-3.7c-0.4-2.4,1.2-4.8,3.6-5.2l97-17.5c2.5-0.4,4.8,1.2,5.2,3.6 s-1.2,4.8-3.6,5.2l-97,17.5C432.2,335,431.9,335,431.6,335z" style="fill:#ff9b19"/></g><g><path d="M448.5,354.8c-1.4,0-2.7-1-2.9-2.5c-0.3-1.6,0.8-3.2,2.4-3.5l82.1-14.8c1.6-0.3,3.2,0.8,3.5,2.4 s-0.8,3.2-2.4,3.5l-82.1,14.8C448.9,354.7,448.7,354.8,448.5,354.8z" style="fill:#ff9b19"/></g><g><path d="M561.8,380c-0.4,0-0.9-0.1-1.3-0.4L515.2,343c-0.9-0.7-1-2-0.3-2.8c0.7-0.9,2-1,2.8-0.3l45.3,36.6 c0.9,0.7,1,2,0.3,2.8C562.9,379.7,562.4,380,561.8,380z" style="fill:#ff9b19"/></g><g><path d="M563.8,438.9c-0.8,0-1.5-0.3-2.1-0.9l-86.9-87.2c-1.2-1.2-1.2-3.1,0-4.2c1.2-1.2,3.1-1.2,4.2,0l86.9,87.2 c1.2,1.2,1.2,3.1,0,4.2C565.3,438.6,564.5,438.9,563.8,438.9z" style="fill:#ff9b19"/></g><g><path d="M561.8,455.3c-0.5,0-1-0.2-1.4-0.6L459.6,352.2c-0.8-0.8-0.8-2.1,0-2.8c0.8-0.8,2.1-0.8,2.8,0l100.8,102.5 c0.8,0.8,0.8,2.1,0,2.8C562.8,455.1,562.3,455.3,561.8,455.3z" style="fill:#ff9b19"/></g><g><path d="M504.6,456.3c-0.5,0-1.1-0.2-1.5-0.7L447,393.8c-0.7-0.8-0.7-2.1,0.1-2.8c0.8-0.7,2.1-0.7,2.8,0.1l56.1,61.8 c0.7,0.8,0.7,2.1-0.1,2.8C505.6,456.1,505.1,456.3,504.6,456.3z" style="fill:#ff9b19"/></g></g><g><g><path d="M113.9,219.4c-1.1,0-2-0.8-2-1.7V72.4c0-1,0.9-1.7,2-1.7s2,0.8,2,1.7v145.3 C115.9,218.6,115,219.4,113.9,219.4z" style="fill:#ff9b19"/></g><g><path d="M99.8,239c-1.7,0-3-1.2-3-2.6v-164c0-1.4,1.3-2.6,3-2.6s3,1.2,3,2.6v164C102.8,237.8,101.4,239,99.8,239z" style="fill:#ff9b19"/></g><g><path d="M68.4,268.1c-2.5,0-4.5-2-4.5-4.5V47.3c0-2.5,2-4.5,4.5-4.5s4.5,2,4.5,4.5v216.3 C72.9,266.1,70.9,268.1,68.4,268.1z" style="fill:#ff9b19"/></g></g><g><path d="M115.5,496.8c-6.3-0.2-10.1,6.8-0.9,7.8s70,6.7,75.2,6.5c5.5-0.2,6.1-2.4,6.3-5.3c0.2-3.7-4.3-6-13.6-6.4 C173.3,499,125.1,497,115.5,496.8z" style="fill:#ff9b19"/><path d="M65.5,532.1c-9.5,0.7-11.2,7.3,0.6,7.9c14,0.7,107.1-3,114.9-3.9c8.2-1,8.4-3.2,8.1-6.1 c-0.6-5.9-8.1-5.3-22.1-4.5C152.9,526.3,80,531,65.5,532.1z" style="fill:#ff9b19"/></g><g><path d="M296.5,115.3c-0.3,1-0.8,3.4-0.6,7.1l0,0l0,0c0,0.1-0.2,12.3,5.8,12.7c1.4,0.1,2.5-0.2,3.3-1 c2.3-2,2.5-6.6,2.7-9.4c0-0.3,0-0.6,0.1-0.9c0.2-2.6-0.1-5.8-0.2-7.2C305.7,116.2,300.4,115,296.5,115.3z" style="fill:#ff564f"/><path d="M295.9,62.3c-9.3-6.3-19.3-1-19.3-1s2.9,5.5,4.1,18.6s0.7,15.4,0.7,15.4s4.1,3,4.6,6.6s0.7,32,7.8,36.4 s16.6,3.7,17.3-12.4C311.9,108.7,311.3,72.7,295.9,62.3z M309.7,123.9c0,0.3,0,0.5,0,0.9c-0.2,3.1-0.4,8.2-3.4,10.8 c-1.1,1-2.6,1.5-4.2,1.5c-0.2,0-0.4,0-0.6,0c-7.7-0.5-7.6-13.8-7.6-14.7c-0.2-5.5,0.9-8.3,0.9-8.4l0.2-0.6l0.6-0.1 c5.1-0.5,12.8,1.5,13.1,1.6l0.7,0.2l0.1,0.7C309.5,115.9,310,120.3,309.7,123.9z" style="fill:#ff564f"/></g><g><path d="M261.5,113.7L261.5,113.7L261.5,113.7c0,0.2-0.2,12.3,5.8,12.7c4.2,0.3,7-10.7,7.9-18.2 c-2.2-0.5-8.3-2-13.1-2.5C261.8,107.1,261.3,110,261.5,113.7z" style="fill:#ff564f"/><path d="M268.8,55.7c-3.6,2.1-8.8,5.8-12.5,11.1c-0.2,0.3-0.5,0.4-0.8,0.4c-0.2,0-0.4-0.1-0.6-0.2 c-0.5-0.3-0.6-0.9-0.2-1.4c3.7-5.2,8.6-9,12.3-11.2c-2.2-1.3-4.8-1.9-7.9-1.8c-19,1-33.9,22.9-40.1,65.9c0,0,22.1-7.7,30.9-8.9 c0,0-0.2-8.8,2.5-13.7c-0.4-3.4-1.1-8-2.5-9.8c-2.4-3.1-4.6-1.6-5.3-0.5s-2.9,1.1-1.9-0.5c0,0,3.2-6.6,8.1-2.2 c4.9,4.3,4.7,15.5,4.7,15.5c0.2,3.5,0.1,9.2-0.5,17.6c-0.6,7.6,1.6,16.9,12.5,15.4s11-14.8,11.3-33.7 C278.8,84.8,278.3,63.6,268.8,55.7z M277.3,107.6c-0.2,2.2-2.4,20.9-9.8,20.9c-0.1,0-0.2,0-0.3,0c-7.7-0.5-7.6-13.8-7.6-14.7 c-0.2-5.5,0.8-9.2,0.9-9.4l0.2-0.8l0.8,0.1c6.1,0.5,15.9,3,15.9,3L277.3,107.6z" style="fill:#ff564f"/></g></g></svg>