<svg xmlns="http://www.w3.org/2000/svg" xmlns:xlink="http://www.w3.org/1999/xlink" id="Layer_2_1_" x="0" y="0" version="1.1" viewBox="0 0 600 600" xml:space="preserve" style="enable-background:new 0 0 600 600"><g><g><g><path d="M233.4,153.1c-1.2,0-4.2-0.8-4.4-2l-15.4-85.5c-0.2-1.1,0.3-2.2,1.3-2.7s2.2-0.3,3,0.6l35.2,40.1l3.1-57 c0.1-1.1,0.9-2.1,2-2.3s2.2,0.3,2.7,1.4l22.4,46.6L296.1,44c0.3-1.1,1.3-1.9,2.5-1.9s2.1,0.8,2.4,2l22.4,94.5 c0.3,1.4-2.6,2.7-3.9,3s-3.7-0.6-4-1.9l-17.2-84.3L286.5,100c-0.3,1-1.1,1.8-2.2,1.9c-1,0.1-2-0.5-2.5-1.4l-21.1-44l-2.9,53.4 c-0.1,1-0.7,1.9-1.7,2.2c-1,0.3-2,0-2.7-0.7l-33.1-37.7l16.5,76.3c0.3,1.4-1.6,2.7-3,2.9C233.7,153,233.5,153.1,233.4,153.1z" style="fill:#2568ef"/></g><g><path d="M208.6,46.9c-7.5,0-13.6-6.1-13.6-13.6s6.1-13.6,13.6-13.6s13.6,6.1,13.6,13.6S216.1,46.9,208.6,46.9z M208.6,24.8c-4.7,0-8.6,3.8-8.6,8.6s3.8,8.6,8.6,8.6s8.6-3.8,8.6-8.6S213.4,24.8,208.6,24.8z" style="fill:#2568ef"/></g><g><path d="M252.1,34c-7.9,0-14.3-6.4-14.3-14.3s6.4-14.3,14.3-14.3c7.9,0,14.3,6.4,14.3,14.3S260,34,252.1,34z M252.1,10.4c-5.1,0-9.3,4.2-9.3,9.3s4.2,9.3,9.3,9.3s9.3-4.2,9.3-9.3S257.3,10.4,252.1,10.4z" style="fill:#2568ef"/></g><g><path d="M296.5,31.3c-8.2,0-14.9-6.7-14.9-14.9s6.7-14.9,14.9-14.9c8.2,0,14.9,6.7,14.9,14.9S304.7,31.3,296.5,31.3z M296.5,6.4c-5.5,0-9.9,4.5-9.9,9.9c0,5.5,4.5,9.9,9.9,9.9s9.9-4.5,9.9-9.9C306.4,10.8,302,6.4,296.5,6.4z" style="fill:#2568ef"/></g></g><g><path d="M262.4,523.5c0,0-27-4.6-45.8,8.4s-24.8,31.3-25.8,41.2c0,0,26.1,31.2,81.9,24.7c45-5.3,70.1-36.5,44.8-58.8 c-11.8-10.4-21-12.6-21-12.6l9.4-36.6c0,0-16.6-19.3-23.4-40L262.4,523.5z" style="fill:#ff564f"/><g><path d="M339.5,380.9c-6-3-11.9-2.3-17.4,2.1c-5.3,4.2-8.8,10.5-10.1,13.1c-1,2-1.8,3.9-2.6,5.8 c-2,4.6-3.8,4.4-6.6,3.2c1.2,3,3.3,17,2.6,27.6c-0.6,8.4,1.6,20,7.9,25.9c3.2,3,7.1,4.1,11.7,3.5c14.7-2.2,15.9-15.2,16.6-22.2 l0.1-0.6c0.7-6.6-3.7-27.5-3.8-27.8c-0.1-0.4,0-0.8,0.2-1.1c0.1-0.1,9.3-14,6.8-23.2C344,384.3,342.3,382.3,339.5,380.9z" style="fill:#ff564f"/><path d="M407.4,326.1l-6.5,2.4c1.1,8.4,2.2,22.2-1.3,28.1c-1.7,2.9-3.7,4.4-5.9,4.4h-0.1c-3.7,0-6.2-3.9-6.5-4.4 c-0.4-0.7-0.2-1.6,0.5-2.1c0.7-0.4,1.6-0.2,2.1,0.5c0.5,0.8,2.3,3,4,3l0,0c1.4,0,2.6-1.6,3.4-2.9c2.8-4.7,2-16.7,1-25.5l-16.3,6 c0,0-22.9-119.6-37.4-142s-102.9-10.8-107.6,15.5s8.9,129.5,8.9,129.5l-14.2,3.9c0.9,5.2,2.5,11.2,5.2,18.8 c1.6,4.5,4.8,6.1,7.4,6.7c3.9,0.9,8-1.1,8-1.1c0.6-0.6,1.5-0.6,2.1,0s0.6,1.5,0,2.1c-0.2,0.2-4.2,4.1-8.9,4.1 c-0.6,0-1.2-0.1-1.8-0.2c-3.7-0.8-6.5-4.1-8.6-9.6c-2.8-7.6-4.4-14.6-5.3-19.9l-7.8,2.3c0,0,2.9,19.2,9.4,33.2 c7.6,16.4,23.6,18.9,34-0.2c8.6,34.5,12.4,45.8,21,67.9c10.4,27,29.2,50.7,42.3,57.1c13,6.4,30.8,0,40.4-27.3 s15.5-86.9,12.6-106.8c0,0,7.4,9.1,17.7,3.2C409.3,366.7,407.4,326.1,407.4,326.1z M294.2,351.2c-0.2,0-0.4,0-0.6,0 c-7.9,0-13.7-8.8-16.7-21.9c-4.6-20-5.9-61.8-5.9-62.2c-0.1-0.8,0.6-2.5,1.4-2.6s1.5,0.6,1.6,1.4c0,0.4,3.3,42.9,7.9,62.7 c3,12.8,8.5,20,12.1,19.6c3.2-0.4,6.8-7.5,6.7-26.5c-0.3-39.6-4.4-56.4-4.4-56.6c-0.1-0.8-0.9-3.8,2.2-3.7 c3.2,0.1,6.8,21.4,7.2,61.3C305.7,341,304.1,348.9,294.2,351.2z M344.5,439.6l-0.1,0.5c-0.7,7.3-1.1,24.1-20.1,25.1 c-4.3,0.2-10-1.5-13.2-4.5c-7.1-6.6-9.5-19-8.8-28.3c1-13.1-2.9-27.4-2.9-27.5c-0.2-0.4-0.2-0.9,0-1.4c0.2-0.4,0.6-0.7,1.1-0.8 c2.5-0.4,4.2,2.6,6.2-2c0.8-1.9,1.7-3.9,2.7-6c1.7-3.4,5.4-9.7,10.9-14.1c6.5-5.1,13.6-6.9,20.6-3.4c3.5,1.8,6.8,6.5,7.8,10.2 c2.5,9.6-6.1,21.3-7.9,24.1C341.5,415.1,345.1,433.1,344.5,439.6z M337.1,358.9c-0.2,0.1-0.4,0.2-0.7,0.2c-0.5,0-1.1-0.3-1.3-0.8 c-0.4-0.7-0.1-1.6,0.7-2c10.1-5,20.4-13.6,19.2-17.8c-0.7-2.3-9.6-4.3-22.9-3.7c-0.8,0-2.4-0.5-2.5-1.3l-5.5-40.9 c-0.1-0.8,0.4-1.6,1.2-1.7c0.8-0.1,1.6,0.4,1.7,1.2l6.3,38.6c6.7-0.2,23.8,0.9,25.6,6.9C361.1,345.4,343.7,355.6,337.1,358.9z M358.8,328c-0.3,0.1-0.6,0-0.9,0.1c-6.8,2.2-14.1-12.2-18.3-24.1c-5.4-15.1-10.9-49-11.1-50.5c-0.2-0.8,0.4-1.6,1.2-1.8 c0.8-0.2,2.2,0.1,2.8,4.2c0,0.4,5.7,32.2,11,47c5.4,15,12.2,21.6,14.8,21c1.6-0.3,3.2-3.5,2.6-14.2c-1.6-26-6.4-38.6-10.5-51 c-1.2-3.5-2.4-5.8-3.5-9.4c-0.2-0.8,0.2-1.7,1-1.9c2-0.4,4.1,6.8,5.3,10.2C357.2,269.7,372,322.9,358.8,328z" style="fill:#ff564f"/></g><g><path d="M239.3,484.6c-0.7-0.1-1.2-0.5-1.6-1L218.4,449c-0.4-0.6-0.3-1.4,0.1-2.1L242,410c0.1-0.2,0.2-0.3,0.3-0.4 c-0.1-0.2-0.1-0.5-0.1-0.7l2.6-24.7c0.1-1.1,1.1-1.9,2.2-1.8c1.1,0.1,1.9,1.1,1.8,2.2l-2.6,24.1l21.3,39.5 c0.4,0.7,0.3,1.6-0.2,2.2l-26.4,33.5C240.6,484.4,240,484.6,239.3,484.6L239.3,484.6z M222.6,448l17.2,30.9l23.7-30.1l-19-35.2 L222.6,448z" style="fill:#2568ef"/></g><g><rect width="2" height="42.4" x="241.4" y="426.9" transform="matrix(0.9008 -0.4342 0.4342 0.9008 -170.5124 149.697)" style="fill:#2568ef"/></g><g><rect width="43.5" height="2" x="220.7" y="446" transform="matrix(0.5967 -0.8025 0.8025 0.5967 -260.8871 374.8268)" style="fill:#2568ef"/></g><path d="M279.8,539.5c-8.6-1.2-16.6,5.5-17.8,14.8c-1.2,9.3,4.7,17.8,13.3,19c8.6,1.2,16.6-5.5,17.8-14.8 C294.3,549.1,288.4,540.6,279.8,539.5z M289.3,557.9c-0.9,6.6-6.7,11.3-13,10.5s-10.7-6.9-9.8-13.5c0.9-6.6,6.7-11.3,13-10.5 S290.2,551.3,289.3,557.9z" style="fill:#ffe7e6"/><path d="M263.8,511.2c0,0-11.3,8.2-3.8,16.8c7.5,8.6,27.6,10.6,35.8,2.3c6-6.1,7.5-10.1,6.1-14.3 c-1.3-4.2,2.5-4.6,3.8-0.4c0.7,2.3,2.6,11.1-1.7,22.4c-5.9,15.3-18.9,18.7-26.1,18.3s-17-0.8-25.4-12.1s0.4-26.8,3.6-30.6 c3.3-3.8,6-5.7,7.9-5.1C266.3,509.3,263.8,511.2,263.8,511.2z" style="fill:#324a58"/><path d="M268,560.1c2.2,0.5,7,5,5.8,6.8c-0.9,1.5-27.5,31.3-27.5,31.3s-13.5-1.6-12.1-3.1 C234.9,594.3,264.4,559.2,268,560.1z" style="fill:#324a58"/><path d="M287.1,560c1.7-0.6,25.1,23.6,25.1,23.6s-4.8,4.3-9.8,5.8c0,0-21.7-21.9-20.9-23.5 C282.4,563.9,285.4,560.6,287.1,560z" style="fill:#324a58"/><path d="M247.8,218.5c0,0,10.9,6.3,22.2-9.5s20.1-9.1,24.8-6.9s13,6.9,26.1-2.3c11.1-7.8,18.1,1.6,18.1,1.6 s41.2,100.4,39,150.8c0,0,7.1,9.7,18.3-4.2c11.2-13.9,9.8,7.7,21.4,7.5s7.3-6.5,16.4-11.9s25.5,15.7,25.5,15.7 s-14.8-78.2-40.4-123.3s-56.1-84.2-86.4-98.7s-48.9-4.4-53.9,8.8c0,0-21.4-16.4-41.6-6.9s-44.8,26.5-69.4,86.1s-27.7,146-27.7,146 s2.2-7.9,12.6-3.5s14.2-2.3,22.4-8.5c8.2-6.3,12.3-3.1,18.3,1.6s18.8,7.9,31.8-6.3c13-14.2,36.9,4.7,36.9,4.7 S245.9,308.4,247.8,218.5z" style="fill:#324a58"/><path d="M264.8,233.6c1.8-2.1,6.8-7.9,10.3-9.1c3.5-1.2,8,1,6,4.5c-2.1,3.5-8.5,9.1-12.2,10.3 C265.2,240.5,261.6,237.3,264.8,233.6z" style="fill:#324a58"/><path d="M324.2,219.6c0.7-2.8,5.4-4.1,10.2-1.1s8.2,6.1,7.4,8.1c-1.4,3.2-5.9,1-8.8,0S323.3,223.4,324.2,219.6z" style="fill:#324a58"/></g><g><circle cx="340.4" cy="418.5" r="29.3" style="fill:#2568ef"/><path d="M265.7,383.5c0,0-10.3,16.8,4,27c10.5,7.5,53.8,18.5,53.8,18.5s-5.1-6.5-0.6-15.7c0,0-48.6-8.7-52.9-14.5 S265.7,391.7,265.7,383.5z" style="fill:#324a58"/><path d="M383.6,375.5c0,0,8.7,10.2,0.7,22.5c-6.5,10.2-8,13.7-14.7,20.4c0,0-0.4-6.9-3.2-13.1 C366.5,405.5,386.8,387.2,383.6,375.5z" style="fill:#324a58"/><path d="M352,408.4c-2.1-3.1-4.5-3.6-5.9-6s-0.3-6.7,4.4-5.2c4.7,1.5,10.2,7,11.1,12.1c1,5.2-0.3,6-2.7,6.8 C355.2,417.5,353.9,411.1,352,408.4z" style="fill:#ffe7e6"/><ellipse cx="358.9" cy="425.8" rx="5.2" ry="4.3" transform="matrix(0.2596 -0.9657 0.9657 0.2596 -145.441 661.8966)" style="fill:#ffe7e6"/></g><g><g><circle cx="200.6" cy="484.6" r="8.8" style="fill:#ff9b19"/></g><g><circle cx="156.1" cy="416.8" r="6.1" style="fill:#ff9b19"/></g><g><path d="M181.7,457.5c-4.7,0-9.1-1.8-12.4-5.1c-6.8-6.8-6.8-17.9,0-24.7c3.3-3.3,7.7-5.1,12.4-5.1s9.1,1.8,12.4,5.1 l0,0l0,0c6.8,6.8,6.8,17.9,0,24.7C190.8,455.7,186.4,457.5,181.7,457.5z M181.7,428.1c-3.2,0-6.2,1.2-8.4,3.5 c-2.3,2.3-3.5,5.3-3.5,8.4c0,3.2,1.2,6.2,3.5,8.4c2.3,2.3,5.3,3.5,8.4,3.5c3.2,0,6.2-1.2,8.4-3.5c2.3-2.3,3.5-5.3,3.5-8.4 c0-3.2-1.2-6.2-3.5-8.4l0,0C187.9,429.4,184.9,428.1,181.7,428.1z" style="fill:#ff9b19"/></g><g><path d="M198.6,403.5c-3.1,0-6.2-1.2-8.5-3.5c-4.7-4.7-4.7-12.3,0-17s12.3-4.7,17,0s4.7,12.3,0,17 C204.7,402.4,201.6,403.5,198.6,403.5z M198.6,383.2c-2.1,0-4.3,0.8-5.9,2.4c-3.2,3.2-3.2,8.5,0,11.8c3.2,3.2,8.5,3.2,11.8,0 c3.2-3.2,3.2-8.5,0-11.8C202.8,384,200.7,383.2,198.6,383.2z" style="fill:#ff9b19"/></g></g><g><circle cx="405.4" cy="450.2" r="7.6" style="fill:#ff9b19"/><circle cx="430" cy="454.9" r="5.7" style="fill:#ff9b19"/><circle cx="452.3" cy="460.8" r="4.9" style="fill:#ff9b19"/><path d="M406.9,434.4l-0.6-0.3c-3.4-0.5-4.5-3.8-4-7.3l3.2-35.2c0.6-3.5,2.5-7.9,9.7-7.5l0,0 c6.9,1.3,7.3,6.7,6.8,10.2l-7.9,34.7C413.3,433.4,410.3,434.9,406.9,434.4z" style="fill:#ff9b19"/><path d="M434.3,439.8l-0.5-0.3c-2.9-0.8-3.6-3.8-2.7-6.8l6.5-30.7c0.8-3,3-6.7,9.3-5.7l0,0c5.8,1.8,5.7,6.6,4.8,9.6 l-10.6,29.8C440,439.5,437.3,440.6,434.3,439.8z" style="fill:#ff9b19"/><path d="M457.9,448.9l-0.4-0.3c-2.2-0.9-2.4-3.3-1.4-5.5l8.1-23c1-2.2,3-4.9,7.7-3.4l0,0c4.3,2,3.7,5.7,2.8,7.9 l-11.2,21.9C462.3,449.3,460.1,449.8,457.9,448.9z" style="fill:#ff9b19"/></g></g></svg>