<?xml version="1.0" encoding="utf-8"?>
<!-- Generator: Adobe Illustrator 23.0.2, SVG Export Plug-In . SVG Version: 6.00 Build 0)  -->
<svg version="1.1" id="Layer_12" xmlns="http://www.w3.org/2000/svg" xmlns:xlink="http://www.w3.org/1999/xlink" x="0px" y="0px" viewBox="0 0 449.9 600" style="enable-background:new 0 0 449.9 600;" xml:space="preserve">

<g>
	<g>
		<path d="M299.3,160.3c-0.2,0-0.3,0-0.5-0.1c-1-0.2-1.7-1.4-1.5-2.4l24-94.2l-36.8,50.2c-0.6,0.7-1.5,1-2.3,0.7
			c-0.8-0.3-1.4-1.1-1.3-2l4-56.8l-27.8,53.6c-0.4,0.8-1.3,1.2-2.2,1c-0.9-0.2-1.5-0.9-1.6-1.8l-4-49.3l-24.8,75.5
			c-0.3,1-1.5,1.6-2.5,1.3c-1-0.3-1.6-1.5-1.3-2.5l27.9-85.1c0.3-0.9,1.2-1.5,2.1-1.4c1,0.1,1.7,0.9,1.8,1.9l4.2,52.3l29.1-56
			c0.4-0.8,1.4-1.3,2.3-1c0.9,0.2,1.5,1.1,1.5,2.1l-4.2,59.5l38.7-52.8c0.6-0.8,1.6-1,2.5-0.6c0.9,0.4,1.3,1.4,1,2.3l-26.5,104.1
			C301,159.7,300.2,160.3,299.3,160.3z" style="fill:#2568EF;"/>
	</g>
	<g>
		<path d="M250.7,36.9c-5.3,0-9.6-4.3-9.6-9.6s4.3-9.6,9.6-9.6c5.3,0,9.6,4.3,9.6,9.6C260.3,32.6,256,36.9,250.7,36.9z
			 M250.7,21.7c-3.1,0-5.6,2.5-5.6,5.6c0,3.1,2.5,5.6,5.6,5.6c3.1,0,5.6-2.5,5.6-5.6S253.8,21.7,250.7,21.7z" style="fill:#2568EF;"/>
	</g>
	<g>
		<path d="M293.1,37.7c-6.1,0-11-5-11-11c0-6.1,5-11,11-11c6.1,0,11,5,11,11C304.2,32.7,299.2,37.7,293.1,37.7z
			 M293.1,19.5c-3.9,0-7.1,3.1-7.1,7.1s3.1,7.1,7.1,7.1c4,0,7.1-3.1,7.1-7.1S297.1,19.5,293.1,19.5z" style="fill:#2568EF;"/>
	</g>
	<g>
		<path d="M335.2,45.6c-7.1,0-12.9-5.8-12.9-12.9s5.8-12.9,12.9-12.9s12.9,5.8,12.9,12.9S342.4,45.6,335.2,45.6z
			 M335.2,23.9c-4.9,0-8.9,4-8.9,8.9s4,8.9,8.9,8.9s8.9-4,8.9-8.9C344.2,27.8,340.1,23.9,335.2,23.9z" style="fill:#2568EF;"/>
	</g>
</g>
<g>
	<g>
		<path d="M302.6,540.9l15.6-9.5c-7.3-6.2-13.8-22.5-13.8-22.5l-11.3,0.4L302.6,540.9z" style="fill:#FF564F;"/>
		<polygon points="179.1,543.2 203.8,547.1 207,512.1 186.7,512.8 189.1,513.6 		" style="fill:#FF564F;"/>
		<polygon points="287.9,509.5 211.3,512 212.1,512.1 208.8,547.9 210.4,548.1 238,547.5 235,512.1 240,511.6 
			243.1,547.4 270.5,546.8 262.6,512.4 267.6,511.2 275.6,546.7 293.8,546.3 298.1,543.7 		" style="fill:#FF564F;"/>
		<path d="M183.9,512.9l-21.8,0.7c-3.6,16.7-9.4,25.4-9.4,25.4l21.3,3.3L183.9,512.9z" style="fill:#FF564F;"/>
	</g>
	<path d="M109.7,418.7c0,0-10.9-15.2,120.9-42.4c132-27.3,133.2-13.1,133.2-13.1s-15.5,20.6-128.9,45
		C123.8,432.1,109.7,418.7,109.7,418.7z" style="fill:#FF9B19;"/>
	<polygon points="153.4,208.4 132,269.4 217.3,299.1 313.4,281 270.6,163 200.2,160.5 	" style="fill:#FF564F;"/>
	<polygon points="178.4,198.2 149.6,219.4 145,232.5 201.7,208.4 207.9,181.5 191.5,170.6 185.7,201.4 	" style="fill:#086CCC;"/>
	<path d="M219.5,235.6l8.4,18.5l21.8-16.3l34.5,36.7l9.4,16.7l-17.4,26.5l17.4,26.5l8.4-12l-4.4-21.4l-3.3,1.8
		c0,0,19.6-22.5,19.3-22.9c-0.3-0.4,8.7-32.3,8.7-32.3l11.2,1.8l-1.1-13.5l-22.1-3.6l-30.8,1.8l-27.9-43.1L219.5,235.6z" style="fill:#0B6ACF;"/>
	<path d="M196.7,206.2" style="fill:none;stroke:#ED1E79;stroke-width:2;stroke-miterlimit:10;"/>
	<path d="M173.3,229.1c-0.8,1.1-1.8,4.7,5,2.2c0,0,12.9-5.8,16.9-8.3c1.1-0.7,3.2-2.5,1.8-5s-3.8-2.5-5-2.2
		C186.5,217.2,176.7,224.4,173.3,229.1z" style="fill:#34485D;"/>
	<circle cx="187.9" cy="239.9" r="7.6" style="fill:#34485D;"/>
	<circle cx="189.9" cy="237.6" r="2.3" style="fill:#FFE7E6;"/>
	<path d="M136.9,224.5l49-16.3l11.6-16.3l-4.7-18.6l9,18.6l-8.3,14.5l26.9,41.1l31.1-24l39.6,48.3l30.8-26.1l14.1,8.7
		c0,0-8.8-116.8-75.1-129.6C196.8,112.4,149.2,189.7,136.9,224.5z" style="fill:#FFE7E6;"/>
	<path d="M122.5,263.9l49.8-21.1l36.6,32.7l38.5-28.3l42.1,28.3l10.2,20L281.5,310l11.3,25l-5.8-24.7l20-14.8
		l-11.2-22.9l26.1-22.5l15.6,9c0,0,5.1,48.2,2.5,70.8c-2.5,22.5-7.7,47.5-7.7,47.5s-116.5,73.7-192,42.8c0,0-27.3-22.8-28.7-73
		C110.2,295.2,122.5,263.9,122.5,263.9z" style="fill:#FFE7E6;"/>
	<path d="M186.7,464.8c0,0,44.3,5.1,85.7-6.5c0,0-9.4,11.6-9,25.4c0,0-39.2,0.3-74,4.4
		C189.2,488,194.2,475.7,186.7,464.8z" style="fill:#2568EF;"/>
	<path d="M141.2,558.4c0,0-28.3,3.6-4.4,14.5s58.1,12.3,76.9,13.1s58.6,0.2,95.1-4.4c27.5-3.4,53.3-10.9,60.6-13.5
		c7.3-2.6,13.5-9,0-12.3c-15.4-3.7-51.4-3.8-51.4-3.8L141.2,558.4z" style="fill:#334A5A;"/>
	<path d="M143.6,533.2c0,0,31.9,13.8,93.3,10.9c61.3-2.9,86.4-18.6,86.4-18.6l10.9,22.8c0,0,2.2,2.6,0,4.4
		s-36.3,25-99.8,25s-98.7-17.4-98.7-17.4s-1.5-2.2,0-6.2C137.1,550.3,143.6,533.2,143.6,533.2z" style="fill:#2568EF;"/>
	<g>
		<path d="M340.9,408.8c-0.3,0.5-0.7,1-1,1.7c-2.4,3.9-6.2,9.8-15.3,9.8c-2.8,0-6.3-0.6-10.3-1.9
			c-14.3-4.9-22.1,2.6-27.7,8.1l-0.6,0.6c-1.6,1.5-7.7,6.9-15.9,9.6c-8.1,2.7-15.5,1.8-21.4-2.7c-15.7-11.9-22.8-4.7-26.7-0.7
			c-0.5,0.5-1,1-1.5,1.5c-3.1,3.3-7.3,7.8-12.7,10c-2.2,0.9-4.4,1.4-6.6,1.4c-4.6,0-9.1-2-13.5-6c-5.6-5.2-10.8-7.8-15.2-7.6
			c-3.5,0.2-5.2,1.9-5.2,1.9l-0.1,0.2c-0.4,0.4-10.2,9.8-20.7,9.4c-4.6-0.2-8.5-2-11.9-5.6c-4-4.4-9.2-6-15.4-4.9
			c-2.4,0.5-4.5,1.2-6,1.9l4.6,9.6c0,0,56.3,24,125.6,15.2c69.3-8.7,114.7-38.9,114.7-38.9l3.6-22.3
			C351.1,397.8,345.6,402,340.9,408.8z" style="fill:#2568EF;"/>
		<path d="M118,427.6c8.1-1.5,15.3,0.8,20.7,6.7c2.3,2.4,4.8,3.6,7.7,3.8c6.7,0.2,14.1-5.5,16.5-7.7
			c0.6-0.6,3.7-3.5,9.2-3.8c6-0.2,12.6,2.8,19.4,9.1c9.8,9.1,17.3,2.8,24.6-5.1c0.6-0.6,1-1.1,1.5-1.6c2.9-2.9,6.9-6.5,12.7-7.3
			c6.5-1,13.6,1.5,21.6,7.5c10.5,8,25-2,29.8-6.5l0.6-0.6c6-5.7,16-15.4,33.6-9.4c12.7,4.4,15.6-0.4,18.8-5.4
			c0.4-0.6,0.8-1.3,1.2-1.9c6.8-9.8,14.8-13.7,26.4-12.3l4.9-30c0,0,2.5-6.9-6.9-7.7c-9.4-0.7-24.1-0.9-24.1-0.9l-0.9,5.6l20.6,0.4
			c0,0,7.8,0.6,2.2,5.1c-6.1,4.9-44.7,23.2-127.8,39.9C147.3,422.3,115,420.1,115,420.1s-10.2-2.2,0-7.3s14.2-6.2,14.2-6.2l-2.9-4.4
			c0,0-7.6,3.3-15.6,7.3c-8,4-6.1,7.3-6.1,7.3l2.5,6.2l3.4,7C112.4,429.2,115,428.2,118,427.6z" style="fill:#2568EF;"/>
	</g>
	<g>
		<path d="M310.5,496.5l-3-6.3c0,0-12.7-3.2-64.2-1.8c-47.2,1.3-86.8,8.7-86.8,8.7l-2.7,6.9
			C178.9,502.4,249.2,498.3,310.5,496.5z" style="fill:#2568EF;"/>
		<path d="M151.7,509.1l-1.3,3.1c0,0,12.3,10.5,78.7,9.4c66.5-1.1,86.8-13.8,86.8-13.8l-3.1-6.5
			C249,503.3,174.6,507.8,151.7,509.1z" style="fill:#2568EF;"/>
	</g>
</g>
<g>
	<path d="M356.2,170.6c0,0-6.1,3.3-3.2,9.8c2.9,6.5,8.8,4.8,11.6,3.6c8.7-3.5,33.8-16.7,33.8-16.7s5.8-3.6,2.9-10.6
		c-2.9-6.9-12.3-2.9-12.3-2.9L356.2,170.6z" style="fill:#FC9C1C;"/>
	<path d="M368.1,235.4c0,0-6.9-0.3-7.6,6.7c-0.6,6.9,5.2,8.4,8.2,8.8c9.3,1.3,35.7,2.6,35.7,2.6s7.7,0.2,7.6-7.4
		c-0.1-9-9.2-8.5-9.2-8.5L368.1,235.4z" style="fill:#FC9C1C;"/>
	<path d="M367.2,324.5c0,0-5.5-1.5-2.5-9.4c3-8,10.9-4.8,10.9-4.8s14.1,3.6,12,13.1
		C384.3,337.4,367.2,324.5,367.2,324.5z" style="fill:#FC9C1C;"/>
</g>
<g>
	<path d="M166.8,126.4c0,0,4.2,5.5-1.1,10.3c-5.3,4.8-10,0.8-12.1-1.5c-6.5-6.9-31.1-32.8-31.1-32.8s-4.7-6.5,2.2-12.3
		c7.3-6.2,12.6-1.3,15.1,1.5C147.1,99.8,166.8,126.4,166.8,126.4z" style="fill:#FC9C1C;"/>
	<path d="M110.8,196.7c0,0,6.8,1.5,5.6,8.3c-1,6.9-7.2,6.9-10.2,6.5c-9.3-1-43.9-8.5-43.9-8.5s-9.8-1.5-6.3-12.3
		c2.7-8.6,11-6,11-6L110.8,196.7z" style="fill:#FC9C1C;"/>
	<path d="M79.4,295.4c0,0,6.5-2.5,9.3,3.9c2.8,6.4-2.3,9.6-5,11c-8.4,4.1-41.5,16.6-41.5,16.6s-9,4.1-12-6.9
		c-2.3-8.8,6-11,6-11L79.4,295.4z" style="fill:#FC9C1C;"/>
	<path d="M83.1,361.9c0,0,5.7-3.2,3.2-9.4c-3.1-7.9-11.6-3.3-11.6-3.3s-14.2,3.6-12,13.1
		C66,376.2,83.1,361.9,83.1,361.9z" style="fill:#FC9C1C;"/>
	<path d="M79.7,236.3c-2.8,0-6.9,0.3-6.9-9c0-7.7,6.6-8.4,9.8-8.4c7.1,0.2,18.7,0.2,28.3,2.2c7.3,1.5,6.5,14.1-1.5,14.5
		C103.3,235.9,88.4,236.3,79.7,236.3z" style="fill:#FC9C1C;"/>
</g>
</svg>
