<?xml version="1.0" encoding="utf-8"?>
<!-- Generator: Adobe Illustrator 23.0.6, SVG Export Plug-In . SVG Version: 6.00 Build 0)  -->
<svg version="1.1" id="Layer_2_1_" xmlns="http://www.w3.org/2000/svg" xmlns:xlink="http://www.w3.org/1999/xlink" x="0px" y="0px" viewBox="0 0 600 600" style="enable-background:new 0 0 600 600;" xml:space="preserve">

<g id="Layer_3">
</g>
<g>
	<g>
		<path d="M235.7,402.8c-4.4-1.1-7.2,8.6-7.2,8.6l-8.4-35.7l-50.4,8.5l1.8,34.9c-9-6.3-10.9,5.9-10.1,14.7
			c0.7,8.8,6.8,18.4,12,18.2c5.1-0.2,5.5-8,5.5-8s4.8,17.4,12.9,33.6c8.1,16.2,17.3,21,26.7,19.3s13.6-14.5,15.4-25.7
			c1.8-11.2,0-34.1,0-34.1c8.3,5.8,10-6.4,10-16.7C243.9,410.1,240.1,403.9,235.7,402.8z M170.9,445.5c-0.9,0.9-3.1-1.8-3.1-1.8
			l1.3,1.7c-2.4-2.8-5.5-7.1-5.3-15.1c0.1-7.7,1.7-10.1,1.9-10.4c0.5-0.5,1.2-0.6,1.8-0.1c0.5,0.5,0.6,1.2,0.1,1.8l0,0
			c0,0-1.6,2.2-1.8,8.9c-0.1,7,3,10.6,5.2,13.3C171,443.8,171.7,444.7,170.9,445.5z M177.2,427.4c-0.1,0-4.8,1.1-5,4.4
			c-0.2,3.2,3.3,4,3.5,4.1c0.7,0.2,1.1,0.8,0.9,1.5c-0.1,0.6-0.6,1-1.2,1c-0.1,0-0.2,0-0.3,0c-2-0.4-5.7-2.4-5.4-6.6
			c0.3-5.2,6.7-6.6,6.9-6.7c0.7-0.2,1.3,0.3,1.5,0.9C178.3,426.6,177.8,427.3,177.2,427.4z M204.1,423.2c0.5,0,0.7,0.3,0.7,1
			l2.3,14.4c1.8,0,5.9,0.3,7.4,2c0.6,0.7,1.2,1.8,0.9,3.6c-1.1,5.4-7.4,7.3-7.6,7.4c-0.1,0-0.3,0.1-0.4,0.1c-0.5,0-1-0.3-1.2-0.8
			c-0.2-0.7,0.1-1.4,0.8-1.6c0,0,4.2-1.5,5-5.5c0.2-0.8-0.1-1.2-0.3-1.4c-1-1.1-4-1.3-5.6-1.2c-0.7,0.1-1.3-0.4-1.3-1.1l-1.4-15.6
			C203.3,423.8,203.4,423.2,204.1,423.2z M193.5,442.5c-0.2,0-0.5,0.1-0.7,0.1c-0.9,0-2.1-0.3-3.3-1.4c-6.4-5.9-8.1-30.2-8-31.3
			c0.1-0.7,0.3-1.1,1-1.1c0.8-0.1,0.8,0.4,1,1.4c0.3,1.9,2.4,22.5,7.7,27.3c0.8,0.8,1.5,0.8,1.9,0.7c4.8-0.8,5.2-17.4,3.6-30.5
			c-0.1-0.7-0.1-1.4,0.6-1.5c0.7-0.1,1,0.3,1.1,1C199,412.8,202.4,441,193.5,442.5z M213.5,467.4c-1,0.2-2,0.3-2.9,0.3
			c-10.4,0-13.8-11.7-13.8-11.9c-0.2-0.7,0.2-1.3,0.9-1.5s1.3,0.2,1.5,0.9c0.1,0.5,3.4,11.8,13.8,9.8c7.8-1.5,7.6-13.3,7.6-13.5
			c0-0.7,0.5-1.3,1.2-1.3s1.3,0.5,1.3,1.2C223.1,452,223.3,465.4,213.5,467.4z M222.7,437.5c-0.7,1-1.7,1.5-2.8,1.7
			c-0.2,0-0.4,0-0.6,0c-1.4,0-2.8-0.5-4.1-1.6c-7.4-6.4-9-31.1-9.1-32.1c0-0.7,0.1-1.2,0.8-1.2s0.7,0.4,0.9,1.3
			c1,6.8,3.5,24.5,9,29.2c0.9,0.8,1.8,1.1,2.8,1c0.2,0,0.6-0.1,1-0.7c3.5-4.6,1.2-23.5-0.1-31c-0.1-0.7-0.2-1.7,0.5-1.8
			c0.7-0.1,1.2,0,1.4,1C223.1,406.1,227.4,431.2,222.7,437.5z M237.6,431.4c-0.3,0.1-0.7,0.1-1,0.1c-1.8,0-3.3-1.4-3.5-1.6
			c-0.5-0.5-0.5-1.3,0-1.8s1.3-0.5,1.8,0c0.4,0.4,1.4,1.1,2,0.9c0.4-0.1,2-0.8,2.6-4c0.7-3.8,0.1-9.9-2.5-14.5
			c-0.3-0.6,0.1-1.4,0.8-1.6c0.6-0.2,1.4,0.1,1.6,0.8c2,5.8,2.7,11.6,1.9,15.9C240.6,428.9,239.4,430.8,237.6,431.4z" style="fill:#FF564F;"/>
		<path d="M272.5,559.6c-1.6,4-4.3,9.8-5.3,12.8s-1,6.1-2.2,6.4c-1.2,0.4-0.7-3.2,0.5-7.6c1.2-4.3,3.3-8.3,3.3-8.3
			s-4.1-8.4-12.8-26.2s-44.3-18.3-56.8-6.3s-18.5,51.1-18.5,51.1c5.9-1.6,10.7-2.5,16.4-1.4c0.7-5.2,2.1-15.4,2.3-16.7
			c0.3-1.8,0.5-2,1.1-2.1c0.7-0.1,0.9,0.8,0.9,1.9c0,0.8-0.9,12.6-1.3,17.6c4.6,1.4,10,4.1,17,8.8c17.6,11.8,42.1,7.9,42.1,7.9
			s-9-36.1-9.2-36.9c-0.1-0.9-0.7-2.2,0.4-2.7c0.8-0.4,1.1,1,1.5,2.4c0.3,1.3,6,22.5,7.3,26.6c2.1,6.4,9.9,10.4,22.8,2
			s15.9-25.3,15.9-25.3S274.2,555.6,272.5,559.6z" style="fill:#2568EF;"/>
		
			<ellipse transform="matrix(0.9909 -0.1347 0.1347 0.9909 -69.4128 34.8717)" cx="223" cy="530.4" rx="37.1" ry="28.3" style="fill:#FFE7E6;"/>
		<polygon points="241.1,509.3 251.3,514.6 255.1,501.1 		" style="fill:#2568EF;"/>
		<polygon points="253.2,525.2 251,535.5 263.5,529.6 		" style="fill:#2568EF;"/>
		<polygon points="220.1,541.2 230.3,538.8 223.9,555.1 		" style="fill:#2568EF;"/>
		<polygon points="194,534.6 196.7,544.4 182.8,542.8 		" style="fill:#2568EF;"/>
		<polygon points="199,517 196.7,505.2 205.4,511.1 		" style="fill:#2568EF;"/>
		<path d="M210.8,499c0,0,3.9,1.7,8.1,0.7c4.2-1,6.3-3.3,6.3-3.3s2.9,20.4,3,21.9s1.9,6.1-5.3,7.4
			c-7.2,1.3-7.9-2.8-8.9-6.1C213.1,516.3,210.8,499,210.8,499z" style="fill:#FF564F;"/>
		<g>
			<path d="M158.5,515.2c-0.1,0-0.2,0-0.4-0.1c-0.3-0.1-0.5-0.4-0.6-0.7l-5.9-26.7c-0.1-0.3,0-0.7,0.3-0.9l17.4-16.2
				c0.2-0.2,0.6-0.3,0.9-0.2c0.3,0.1,0.6,0.3,0.7,0.6l11.5,26.6c0.2,0.4,0,0.9-0.3,1.2l-23,16.3
				C158.9,515.1,158.7,515.2,158.5,515.2z M153.7,487.9l5.5,24.6l21.2-14.9L169.7,473L153.7,487.9z" style="fill:#2568EF;"/>
		</g>
		<g>
			<path d="M170.5,472.3l0.5-1.9l-0.8,1c0.6-0.4,5.6-11.6,3.8-21.1l1-0.2C176.8,460.2,171.2,472,170.5,472.3z" style="fill:#2568EF;"/>
		</g>
		<g>
			<polygon points="169.5,505.8 160.9,479.9 161.9,479.6 170.5,505.5 			" style="fill:#2568EF;"/>
		</g>
		<g>
			<polygon points="156,500.9 155.3,500.2 174.4,482.2 175,482.9 			" style="fill:#2568EF;"/>
		</g>
		<g>
			<path d="M258,450.3c-2-7.4-5.8-12.6-9.6-14.5c-3.3-1.6-9.1,0.4-9.1,0.4l-0.4-0.9c0.1-0.1,6.4-2.2,10.1-0.4
				c4.2,2,7.9,7.4,10,15.1L258,450.3z" style="fill:#2568EF;"/>
		</g>
		<g>
			<path d="M251,488.8c-0.1,0-0.1,0-0.2,0c-0.3-0.1-0.6-0.3-0.8-0.6l-9.9-23.4c-0.2-0.4-0.1-0.9,0.3-1.2l17.5-13.9
				c0.2-0.2,0.6-0.3,0.9-0.2c0.3,0.1,0.6,0.3,0.7,0.6L267,470c0.1,0.3,0.1,0.7-0.2,1l-15,17.4C251.6,488.7,251.3,488.8,251,488.8z
				 M242.3,464.7l9,21.2l13.6-15.8l-6.8-18L242.3,464.7z" style="fill:#2568EF;"/>
		</g>
		<g>
			
				<rect x="254.3" y="456.6" transform="matrix(0.9122 -0.4097 0.4097 0.9122 -169.2986 145.4641)" width="1" height="22.4" style="fill:#2568EF;"/>
		</g>
		<g>
			<polygon points="246.8,476.3 246.1,475.6 261.8,460.6 262.5,461.3 			" style="fill:#2568EF;"/>
		</g>
		<polyline points="170.9,348.8 161.3,305.9 164.6,305.3 179.2,332.3 179.2,304.2 184.4,304.2 191.8,324.3 195.5,305.5 
			202.1,307.8 206.4,343.6 		" style="fill:none;stroke:#2568EF;stroke-width:3;stroke-linecap:round;stroke-linejoin:round;stroke-miterlimit:10;"/>
		<path d="M173.9,389c0,0,5.9-4.7,13.9,0s12.5-2.1,15.5-4.7s7.7-6.1,17.3-1.2l9,46c0,0,4.7-14.3,15.3-6.6
			c10.6,7.7,11.6-3.5,14.9-8.8s10.4-6.3,17.9,3.3c0,0-12.7-50.1-40.4-71.9s-44.6-3.2-47.2,2.1c0,0-10.9-9-24.1-3.5
			c-13.2,5.5-23.3,16.6-32.2,45.1c-7.8,24.7-7.7,55.9-7.7,55.9s9.8-16.1,19.3-7.7s12.5,3.7,18.8-4.4c6.2-8.1,16.5,2.9,16.5,2.9
			S172.5,408.6,173.9,389z" style="fill:#324A58;"/>
		<path d="M185.4,392.7c2.9-1.3,4.8,1.3,3.8,2.8c-0.9,1.5-8.6,5.9-10.7,6.5s-3.3-1-1.7-2.7
			C178.5,397.7,182.9,393.8,185.4,392.7z" style="fill:#324A58;"/>
		<path d="M211,388c-3.2,0.2-3.6,3.4-2.1,4.3s10.4,1.3,12.5,0.9s2.4-2.4,0.3-3.1C219.4,389.2,213.7,387.8,211,388z" style="fill:#324A58;"/>
		<circle cx="239.4" cy="435.3" r="1.1" style="fill:#2568EF;"/>
		<circle cx="174" cy="449.9" r="1.3" style="fill:#2568EF;"/>
	</g>
	<g>
		<path d="M91,344c-0.4,0-0.8-0.1-1.1-0.4c-0.9-0.6-1.1-1.9-0.5-2.8c0.2-0.4,25.3-35.8,77.8-39.9
			c41.9-3.3,66.4,23.4,73,31.7c6-9,29.1-38.2,74.6-38.3c0.1,0,0.1,0,0.2,0c42.5,0,67.2,32.6,73.9,42.7c5.6-9.6,25.5-38.2,60.7-36.1
			c41.6,2.4,69.7,37.8,70.8,39.3c0.7,0.9,0.5,2.1-0.3,2.8c-0.9,0.7-2.1,0.5-2.8-0.3c-0.3-0.4-28.2-35.4-67.9-37.7
			c-39.4-2.3-58.3,36.6-58.5,36.9c-0.3,0.7-1,1.1-1.7,1.1s-1.4-0.4-1.8-1c-0.2-0.4-24.7-43.6-72.3-43.6c-0.1,0-0.1,0-0.2,0
			c-51,0.1-72.5,38.4-72.8,38.8c-0.3,0.6-1,1-1.7,1s-1.4-0.3-1.7-0.9c-0.2-0.4-24.2-36-71.2-32.4c-50.5,4-74.6,37.9-74.8,38.2
			C92.3,343.7,91.6,344,91,344z" style="fill:#324A58;"/>
	</g>
	<g>
		<g>
			<path d="M384.4,178.8c-22.9-7.6-47.8-11.5-74.6-11.5c-41.2,0-78.6,9.1-111.1,27c-26.1,14.3-49.1,34.3-68.4,59.4
				c-32.8,42.6-43.4,84.6-43.9,86.4c-0.5,2,0.7,4,2.7,4.5c0.3,0.1,0.6,0.1,0.9,0.1c1.7,0,3.2-1.1,3.6-2.8
				c0.1-0.4,10.7-42.2,42.5-83.6c18.7-24.3,40.9-43.6,66-57.4c31.4-17.3,67.6-26.1,107.5-26.1c26.9,0,51.9,4,74.6,11.9v-7.9H384.4z" style="fill:#324A58;"/>
			<path d="M416,201c0.2-0.2,0.3-0.5,0.6-0.7c1.7-1.6,3.5-3.1,5.3-4.5c-0.8-0.5-1.7-1-2.5-1.5
				c-8.8-5-18.1-9.3-27.7-12.9v5.3c0,1-0.3,1.8-0.8,2.3c8.6,3.3,16.8,7.2,24.7,11.7C415.8,200.8,415.9,200.9,416,201z" style="fill:#324A58;"/>
			<path d="M523.8,340.3c-0.3-1.8-8.6-43.8-39.1-86.5c-15.7-22-34.5-40.1-55.9-53.9c-1.7,1.1-3.3,2.3-4.9,3.7
				c0.1,0.7,0,1.3-0.3,1.9c21,13.3,39.4,30.9,54.8,52.4c29.6,41.4,38,83.3,38,83.8c0.4,2,2.3,3.3,4.4,3
				C522.8,344.3,524.2,342.3,523.8,340.3z" style="fill:#324A58;"/>
		</g>
		<g>
			<path d="M307.9,451.8c-1.6,0-3-1.3-3-3V299.1c0-1.6,1.3-3,3-3c1.6,0,3,1.3,3,3v149.7
				C310.9,450.5,309.5,451.8,307.9,451.8z" style="fill:#324A58;"/>
		</g>
		<g>
			<path d="M307.9,173.6c-1.6,0-4-1.3-4-3l2-83.4c0-1.6,0.3-3,2-3c1.6,0,2,1.3,2,3l2,83.4
				C311.8,172.2,309.5,173.6,307.9,173.6z" style="fill:#324A58;"/>
		</g>
		<g>
			<path d="M318.8,453.9c-0.4,0-0.8-0.1-1.1-0.2c-8.9-3.6-17.9-0.5-18-0.4c-1.6,0.6-3.3-0.3-3.8-1.8
				c-0.6-1.6,0.3-3.3,1.8-3.8c0.5-0.2,11.8-5.7,22.3,0.5c1.4,0.8,2.3,2.4,1.7,3.9C321.1,453.2,320,453.9,318.8,453.9z" style="fill:#324A58;"/>
		</g>
	</g>
	<g>
		<ellipse cx="292.1" cy="548.8" rx="24.7" ry="23.5" style="fill:#FFE7E6;"/>
		<polygon points="281.4,532.8 288,528.9 282.1,519.5 		" style="fill:#2568EF;"/>
		<polygon points="271.7,551.6 279.8,547 279.8,561.4 		" style="fill:#2568EF;"/>
		<polygon points="300.9,572.3 295.3,562.9 304.8,562.9 		" style="fill:#2568EF;"/>
		<polygon points="307.5,553.3 310.3,544.3 318.5,552.6 		" style="fill:#2568EF;"/>
		<path d="M300.1,465c0,0,5.3-3.7,12.6-4.3s12.2,1.2,12.2,1.2c1.5,0.9-4.2-8.1-17-7.3c-12.8,0.9-18.5,4.8-17.2,8.3
			C292.1,466.5,300.1,465,300.1,465z" style="fill:#FF564F;"/>
		<path d="M329.4,473.7c0,0,1.5-4.1-1.8-7.5s-11.5-3.8-16.9-2.5s-14.5,3.9-20.3,10c-5.8,6-0.3,9.9,5.4,7.1
			c8.2-4,14.1-4.6,14.1-4.6S320.4,471.6,329.4,473.7z" style="fill:#FF564F;"/>
		<path d="M307.8,491.4c0,0,5.4-4.2,10.4-5.9c5-1.7,9.1-2,14-0.5c0,0,2.3-4.2,0.6-6.5s-7.5-6.1-20.8-1.1
			s-20.7,12.9-19.4,16.4c1.1,3,4.9,2.3,8.8,0.2C303.9,492.9,306.2,492,307.8,491.4z" style="fill:#FF564F;"/>
		<path d="M326.4,505.2c-1,1.5,2.6,2.2,4.3-3c0.8-2.3,0.7-6-1.8-6.3s-4.4,1.1-11.2,3.9c-6.8,2.8-12.2,5.5-14.1,3.3
			s8.2-15.5,23-16.6c14.8-1,13.9,11.8,12.8,14.5s-7.5,11.1-13,14.3s-13.7,11.5-20.1,22c-4.3,7-7.6,15.7-14.2,13.1s-7.4-7.6-2-15
			c6.7-9.1,12.9-23.1,13.7-28.7c0,0,5.3-0.1,11.7-2.4s12.1-5.5,12.1-5.5S329.8,499.9,326.4,505.2z" style="fill:#FF564F;"/>
		<path d="M311.5,446.7c0,0,7.5-12.3,12.8-9.1s-2.8,13.3-2.8,13.3L311.5,446.7z" style="fill:#FF564F;"/>
		<g>
			<path d="M333.8,552.3c-3.9,0-7.8-0.9-11.5-2.8c-7.9-4.2-13.6-12.5-16.4-24c-2-8.4-1.8-18.3-1.8-18.6l6.6-1.3
				c0,0.4-0.5,27.4,14.4,35.2c6.9,3.6,15.2,4.6,21.8-0.7c7.4-6,8.4-13.9,8.3-24.9c-0.1-5.4,2.9-6.9,4.7-7.1c1.8-0.2,5.8,0.9,5.8,7.6
				c0,13.7-3,25.2-13.5,32.3C346.8,551.7,339.7,552.3,333.8,552.3z" style="fill:#324A58;"/>
		</g>
	</g>
	<circle cx="280" cy="343" r="6" style="fill:#FF9B19;"/>
	<g>
		<g>
			<path d="M447.7,382.7c-9.9,0-17.9-8-17.9-17.9s8-17.9,17.9-17.9s17.9,8,17.9,17.9S457.6,382.7,447.7,382.7z
				 M447.7,350.8c-7.7,0-14,6.3-14,14s6.3,14,14,14s14-6.3,14-14C461.7,357,455.4,350.8,447.7,350.8z" style="fill:#FF9B19;"/>
		</g>
		<circle cx="398.3" cy="387.3" r="5.1" style="fill:#FF9B19;"/>
		<circle cx="376" cy="409.7" r="8.7" style="fill:#FF9B19;"/>
		<g>
			<path d="M347.8,391.6c-8.7,0-15.8-7.1-15.8-15.8c0-8.7,7.1-15.8,15.8-15.8s15.8,7.1,15.8,15.8
				C363.5,384.6,356.5,391.6,347.8,391.6z M347.8,364.1c-6.5,0-11.8,5.3-11.8,11.8s5.3,11.8,11.8,11.8s11.8-5.3,11.8-11.8
				C359.6,369.4,354.3,364.1,347.8,364.1z" style="fill:#FF9B19;"/>
		</g>
		<g>
			<path d="M405.8,470.5c-11.6,0-21.1-9.5-21.1-21.1s9.5-21.1,21.1-21.1s21.1,9.5,21.1,21.1S417.4,470.5,405.8,470.5z
				 M405.8,432.3c-9.4,0-17.1,7.7-17.1,17.1s7.7,17.1,17.1,17.1s17.1-7.7,17.1-17.1C422.9,439.9,415.2,432.3,405.8,432.3z" style="fill:#FF9B19;"/>
		</g>
		<circle cx="441.8" cy="464.6" r="5.7" style="fill:#FF9B19;"/>
		<circle cx="403.6" cy="495.9" r="9.4" style="fill:#FF9B19;"/>
	</g>
	<g>
		<path d="M439.7,139.4c-16.4-5-24.7-15.2-28.8-22.8c-4.5-8.3-5-15.3-5.1-15.6c0-0.5,0.4-1,0.9-1.1c0.6,0,1,0.4,1.1,0.9
			c0,0.3,2.7,26.9,32.7,36.1c0.5,0.2,1.3,0.8,0.8,1.8C441,139.7,439.8,139.5,439.7,139.4z" style="fill:#324A58;"/>
	</g>
	<g>
		<path d="M369.3,151.4c-15.6-16-10.4-43.8-9.2-49.3c0.1-0.5,0.7-0.9,1.2-0.8s0.9,0.7,0.8,1.2
			c-1.2,5.2-5.6,31.8,9.3,47.2c0.4,0.4,0.5,1.2,0.1,1.6C370.5,152.4,369.5,151.6,369.3,151.4z" style="fill:#324A58;"/>
	</g>
	<g>
		<path d="M210.9,168.1c-1,0.3-1.5-0.4-1.7-0.8c-0.1-0.5-0.3-1.7,1.3-1.9c0.2,0,18.4-4.5,34.4-32.7
			c16.1-28.4,13.8-53,13.8-53.3c-0.1-0.5,0.3-1,0.9-1.1s1,0.3,1.1,0.9c0,0.3,2.3,26.5-14,55.4c-16.4,29-34.7,33.3-35.5,33.5
			C211,168.1,211,168.1,210.9,168.1z" style="fill:#324A58;"/>
	</g>
	<g>
		<path d="M214.2,111.2c-0.2-0.5-0.2-1.5,0.8-1.8c0.1,0,10-2.5,17.7-12.4c7.7-9.8,8.2-18.1,8.2-18.2c0-0.5,0.5-1,1-0.9
			c0.5,0,1,0.5,0.9,1c0,0.4-0.5,9-8.6,19.3s-18,13.5-18.4,13.7C215.3,112.1,214.5,111.9,214.2,111.2z" style="fill:#324A58;"/>
	</g>
	<g>
		<path d="M478.6,227.8c-0.4,0-0.8-0.2-0.9-0.6c-0.2-0.5,0-1.1,0.5-1.3c24.6-11.4,35.5-1.1,36-0.6
			c0.7,0.7,0.7,1.4,0.4,1.9c-0.4,0.6-1.6,0.8-2.1,0.4l0,0c-0.1-0.1-11.3-9.4-33.5,0.2C478.8,227.8,478.7,227.8,478.6,227.8z" style="fill:#324A58;"/>
	</g>
	<g>
		<path d="M132.3,234.4c-0.3,0-0.7-0.2-0.9-0.5c-13.2-23-32-18-35.7-16.7c-0.5,0.2-1.3,0.3-1.8-0.3
			c-0.6-0.9-0.2-1.6,1.3-2.2c2.5-1,9.2-2,17.3,0.5c8.3,2.5,15.2,8.5,20.6,17.8c0.3,0.5,0.1,1.1-0.4,1.4
			C132.6,234.3,132.5,234.4,132.3,234.4z" style="fill:#324A58;"/>
	</g>
	<g>
		<path d="M119.9,259.3c-0.1,0-0.3,0-0.4-0.1c-13.8-6-26.8-0.2-27-0.1c-1.8,0.8-3-0.2-2.6-1.4c0.2-0.5,1.1-1.1,1.6-1.3
			c0.6-0.2,14.2-5.3,28.8,1c0.5,0.2,0.7,0.8,0.5,1.3C120.6,259.1,120.2,259.3,119.9,259.3z" style="fill:#324A58;"/>
	</g>
	<g>
		<path d="M103.4,144.4c6.5,8.4,26,35.2,28.3,56.8l19.5-64.2C134.2,137.2,114.2,141.7,103.4,144.4z" style="fill:#FF9B19;"/>
		<path d="M155.2,134.1c0.7,0,1.4,0.1,2,0.1c16.9,1.1,35.4,4.8,46.1,7.3c-3.3-7.6-15-32.3-35.1-50.1L155.2,134.1z" style="fill:#FF9B19;"/>
		<path d="M157.1,137.2c-0.9-0.1-1.8-0.1-2.8-0.1l-18.8,61.8c11.4-12.1,46.6-48.3,67-54.5
			C191.9,141.9,173.7,138.2,157.1,137.2z" style="fill:#FF9B19;"/>
		<path d="M152.1,134.1l13.7-44.8c-0.4-0.3-0.8-0.7-1.2-1l-63.3,53.6c0,0,0,0,0.1,0.1C112.1,139,133.7,134,152.1,134.1z
			" style="fill:#FF9B19;"/>
	</g>
	<g>
		<path d="M65.3,246.8c-1,0-1.9,0-2.9,0c-19.5-0.3-31.3-5.7-37.9-10.4l18.6,40.8c6-6.8,17.1-19.7,25.4-30.4
			C67.5,246.8,66.4,246.8,65.3,246.8z" style="fill:#FF564F;"/>
		<path d="M25.1,233c5.9,4.5,17.4,10.4,37.3,10.7c3,0,5.7,0,8.2-0.1c7.3-11,10.7-26.3,12-34.3
			C66.5,224.9,33.6,231.6,25.1,233z" style="fill:#FF564F;"/>
		<path d="M85,213.4c-1.6,8.1-4.7,20.3-10.7,30.2c10.3-0.6,16.6-2.3,20.4-3.9L85,213.4z" style="fill:#FF564F;"/>
		<path d="M72.3,246.6c-0.3,0.4-0.5,0.8-0.8,1.1c-7.7,10-18,22.1-24.4,29.5c4.8-2.1,14.3-6.5,25-13.3
			c12.5-7.9,20.2-17.7,22.6-21.1C90.1,244.6,83.1,246.2,72.3,246.6z" style="fill:#FF564F;"/>
	</g>
	<g>
		<path d="M267.1,30.4c7.8-0.3,14.9-0.1,20.1,0.3L272.7,4.1c-3.9,6.1-9.1,15.5-12.9,26.9
			C262.2,30.7,264.7,30.5,267.1,30.4z" style="fill:#2568EF;"/>
		<path d="M256.6,31.4c0-0.1,0-0.1,0.1-0.2c3.5-11,8.3-20.2,12.2-26.5c-21.4,11.6-37.1,27.6-43.6,34.7
			C233,36.5,244.2,33.1,256.6,31.4z" style="fill:#2568EF;"/>
		<path d="M267.3,33.4c-2.8,0.1-5.6,0.4-8.4,0.7c-2.9,9.8-4.4,20-5.2,28c4-4.4,19-20.5,32.2-28.5
			C280.9,33.3,274.4,33.1,267.3,33.4z" style="fill:#2568EF;"/>
		<path d="M222.7,43.5l28,18.5c0.7-7.8,2.2-17.8,4.9-27.4C242.1,36.6,230,40.6,222.7,43.5z" style="fill:#2568EF;"/>
	</g>
	<g>
		<path d="M466.6,74c-1.1,5-2.4,9.5-3.4,12.7l19.3-4.9c-3.2-3.4-8.4-8.3-15-12.6C467.2,70.8,466.9,72.4,466.6,74z" style="fill:#2568EF;"/>
		<path d="M467.7,67.1l0.1,0.1c6.4,4,11.5,8.6,14.9,12.1c-3.9-15.5-11.5-28.1-15-33.4C468.3,51.3,468.6,59,467.7,67.1z" style="fill:#2568EF;"/>
		<path d="M464.7,73.6c0.4-1.8,0.7-3.7,0.9-5.5c-5.8-3.4-12-6.1-17-7.8c2.2,3.3,9.9,15.4,12.9,25.1
			C462.6,82.2,463.7,78.2,464.7,73.6z" style="fill:#2568EF;"/>
		<path d="M465.5,43.6l-16.3,14.8c4.8,1.7,11,4.3,16.7,7.6C466.8,57,466.1,48.7,465.5,43.6z" style="fill:#2568EF;"/>
	</g>
	<g>
		<path d="M377.9,60.5c10.8-0.3,22.3,0.7,32.9,4.6c-14.1-22.3-46-28.6-56.4-30.1C360.5,38.8,370.6,46.5,377.9,60.5z" style="fill:#FF564F;"/>
		<path d="M379.3,63.5c0.7,1.4,1.3,2.9,1.9,4.5c6.8,17.6,8.8,36.7,9.4,47.7l20.7-47C401.4,64.5,390.2,63.2,379.3,63.5z" style="fill:#FF564F;"/>
		<path d="M378.4,69c-0.7-1.9-1.5-3.7-2.4-5.4c-18.3,0.9-35.2,5.8-43.7,8.6c34.1,13.5,50.2,34.8,55.3,42.9
			C387,104.1,384.9,85.9,378.4,69z" style="fill:#FF564F;"/>
		<path d="M357.5,62.7c5.1-0.9,10.9-1.7,17.1-2c-8.2-14.8-19.6-22-24.4-24.5l-18.9,33.2
			C336.9,67.5,346.4,64.7,357.5,62.7z" style="fill:#FF564F;"/>
	</g>
	<g>
		<path d="M541.2,247.3c10.5-0.6,22.4-0.1,35.2,2.1l-28-32.9C546.6,222.6,543.7,233.3,541.2,247.3z" style="fill:#FF9B19;"/>
		<path d="M497.4,256.1c5-2,19.9-7.2,40.8-8.7c2.9-15.9,6.2-27.9,8-33.7l-1.3-1.5c-11.8,7.2-50.3,41-48.6,42.7
			C496.6,255.3,497,255.7,497.4,256.1z" style="fill:#FF9B19;"/>
		<path d="M537.6,250.5c-18.6,1.4-32.3,5.8-37.9,8c14.9,15.3,27,31.4,33,39.9C533.2,280.5,535.2,264.1,537.6,250.5z" style="fill:#FF9B19;"/>
		<path d="M540.6,250.3c-2.6,14.7-4.8,32.6-5.1,52.2c0.8,1.1,1.2,1.8,1.2,1.8c7-17.8,35.3-46.3,40.7-51.6
			C564,250.1,551.5,249.6,540.6,250.3z" style="fill:#FF9B19;"/>
	</g>
	<g>
		<path d="M388,169.2c0.3,8,1.4,25.6,6.4,47.1c15.9-9.8,31.8-20.2,43.2-29.6C420.5,176.2,397.2,170.9,388,169.2z" style="fill:#2568EF;"/>
		<path d="M348.9,245.9c12.8,7.7,47.9,17.6,59.3,20.6c-3.6-8-10.6-24.8-15.8-45.6c-4,2.4-8.2,4.9-12.5,7.4
			C368.3,235.2,357.4,241.3,348.9,245.9z" style="fill:#2568EF;"/>
		<path d="M391.8,217.9c-5.3-22.7-6.5-41.4-6.7-49.3c-0.6-0.1-0.9-0.2-0.9-0.2l-36.5,74.8
			C359.2,236.9,375.4,227.8,391.8,217.9z" style="fill:#2568EF;"/>
		<path d="M395.2,219.3c5.6,23.1,13.6,41.3,16.8,48.1l27.3-78.1C428.8,197.8,414,207.8,395.2,219.3z" style="fill:#2568EF;"/>
	</g>
</g>
</svg>
