<?xml version="1.0" encoding="utf-8"?>
<!-- Generator: Adobe Illustrator 23.0.2, SVG Export Plug-In . SVG Version: 6.00 Build 0)  -->
<svg version="1.1" id="Layer_1" xmlns="http://www.w3.org/2000/svg" xmlns:xlink="http://www.w3.org/1999/xlink" x="0px" y="0px" viewBox="0 0 633.9 600" style="enable-background:new 0 0 633.9 600;" xml:space="preserve">

<path d="M333.7,190l2.8-106.7c0-0.9,0.9-1.5,1.7-1.2l25.3,8.4c0.8,0.3,1.3,1.1,1.2,1.9L346,223.2
	c-0.1,0.9-1.2,1.2-1.8,0.6l-74.3-71.2c-0.5-0.5-0.8-1.3-0.6-2l6.7-27.3c0.1-0.6,0.8-0.7,1.2-0.3L333.7,190z" style="fill:#FF9B19;"/>
<circle cx="275.7" cy="323.9" r="6.1" style="fill:#FF9B19;"/>
<circle cx="297.6" cy="327.2" r="3.5" style="fill:#FF9B19;"/>
<circle cx="311.6" cy="353.5" r="6.7" style="fill:#FF9B19;"/>
<circle cx="275.2" cy="207.2" r="7.3" style="fill:#FF9B19;"/>
<circle cx="456.3" cy="260.5" r="4.7" style="fill:#FF9B19;"/>
<circle cx="483.3" cy="252.1" r="6.8" style="fill:#FF9B19;"/>
<circle cx="474.4" cy="354.5" r="7.7" style="fill:#FF9B19;"/>
<g>
	<path d="M426.4,318.3c-2.6,0-3.6-1.7-3.7-3.3c0-1.5,1.6-3.3,3.6-3.4l34.6,1.1c2,0,3.7,1.2,3.7,2.7s-1.6,2.8-3.6,2.8
		L426.4,318.3C426.5,318.3,426.4,318.3,426.4,318.3z" style="fill:#FF9B19;"/>
</g>
<g>
	<path d="M443.6,337.9h-0.1c-2-0.1-3.6-1.8-3.5-3.8l2.4-43.8c0.1-2,1.1-3.6,3.1-3.5s3.6,1.8,3.5,3.8l-1.8,43.8
		C447.2,336.3,445.5,337.9,443.6,337.9z" style="fill:#FF9B19;"/>
</g>
<g>
	<path d="M311.3,296.9c-2,0-3.7-1.6-3.7-3.7l0.7-52.2c0-2,0.9-3.7,3-3.7s3.7,1.6,3.7,3.7l0.7,52.2
		C315.6,295.3,314.6,296.9,311.3,296.9z" style="fill:#FF9B19;"/>
</g>
<g>
	<path d="M290.4,264.7c0-2.1,1.5-3.1,3.6-3.1l34-1h0.1c2,0,3.6,1.6,3.7,3.6s-1.5,3.7-3.6,3.8l-33.2-0.4
		C294.9,267.5,290.4,267.9,290.4,264.7z" style="fill:#FF9B19;"/>
</g>
<g>
	<path d="M233.9,250.4c-0.1,0-0.1,0-0.2,0c-2-0.1-3.6-1.8-3.5-3.9l3.2-45.5c0.1-2,1.1-5,3.2-4.9c2,0.1,3.6,1.8,3.5,3.9
		l-1.1,46.9C238.6,250.4,235.9,250.4,233.9,250.4z" style="fill:#FF9B19;"/>
</g>
<g>
	<path d="M252.5,229l-36.4-0.7c-2,0-3.7-0.9-3.7-3s1.6-3,3.7-3l36.4-0.7c2,0,3.7,1.6,3.7,3.7S254.5,229,252.5,229z" style="fill:#FF9B19;"/>
</g>
<g>
	<path d="M87.3,417.5c0,0-19.2,5.2-28,9.1c-8.8,3.8-28,17.5-11.5,36s82.6,37.5,97.3,43c14.7,5.6,117.2,40.6,143.1,71
		l5.6,5.2c0,0,53.5-52.1,92.8-71.4s53.2-23.8,86.8-29.8l-100.1-59.5L87.3,417.5z" style="fill:#FFE7E6;"/>
	<g>
		<path d="M84.1,332.3c7.4,6.5,4.3,18.6,1.7,25.3c11.4-6.6,45-24.4,94.2-36.5c39.6-9.7,72-14.2,91-16.5
			c5.1-8.1,4.7-33.5-15.7-28.2c-28.5,7.3-165.9,42.7-180.9,49.4c-1.3,0.6-2.6,1.2-3.8,1.8C75.4,327.2,80,328.7,84.1,332.3z" style="fill:#2568EF;"/>
		<path d="M249.3,341.6c-16.6-14.2-18.6-24.4-18.9-27.3c-17.4,2.3-31.6,5.5-49.7,9.9c-60.6,14.8-96.4,39.8-96.8,40
			c-3.1,1.7-4.5-1.5-3-3.4c0.1-0.2,9.6-18.7,1.1-26.1c-3.5-3.1-7.4-4.4-11.5-3.9c-5.2,0.6-10.1,3.9-13.6,7.1
			c-6.5,7.7-10.2,19.4-7.8,38.3c3.8,29.9,89.2,86.5,98.3,92.8s146.3,113,146.3,113c56.7-75.2,182.7-125.6,182.7-125.6
			S285,372,249.3,341.6z" style="fill:#2568EF;"/>
	</g>
	<g>
		<g>
			<path d="M177.2,417c-0.4,0-0.8-0.1-1.1-0.3l-40.2-27.3c-0.7-0.5-1-1.4-0.8-2.2c0.3-0.8,1-1.4,1.9-1.3l39.3,1
				l-5.5-29.5c-0.1-0.8,0.2-1.5,0.8-2c0.6-0.4,1.5-0.4,2.1,0l26.4,17.1l6.3-25.4c0.2-0.8,0.9-1.4,1.7-1.4c0.8-0.1,1.6,0.3,1.9,1.1
				c6.5,13.2,13.7,21.1,18.6,25.4c5.3,4.7,9.1,6.2,9.1,6.3c0.8,0.3,1.2,1.1,1.2,1.9s-0.6,1.5-1.4,1.7c-32.4,9.2-58.8,34.3-59,34.5
				C178.2,416.8,177.7,417,177.2,417z M143.5,389.9l33.6,22.8c5.2-4.8,27.3-23.9,55.1-33.1c-5.2-3.4-14.6-11.1-23.2-26.7l-5.8,23.1
				c-0.2,0.6-0.6,1.1-1.2,1.3s-1.2,0.2-1.8-0.2L175.4,361l5.1,27.5c0.1,0.6-0.1,1.2-0.4,1.6c-0.4,0.4-0.9,0.7-1.5,0.7L143.5,389.9z" style="fill:#FF9B19;"/>
		</g>
		<circle cx="166.4" cy="344.4" r="5.2" style="fill:#FF9B19;"/>
		<circle cx="207.3" cy="332.8" r="4.6" style="fill:#FF9B19;"/>
		
			<ellipse transform="matrix(0.9951 -9.853770e-02 9.853770e-02 0.9951 -36.8454 14.1769)" cx="125.1" cy="380.1" rx="5.2" ry="5.2" style="fill:#FF9B19;"/>
	</g>
	<g>
		<path d="M392.3,476.5l-10.5-1.8c-13.1-2.2-34.8-1.4-35-1.4c-3.2,0.1-5.9-2.4-6-5.6s2.4-5.9,5.6-6
			c0.7,0,15.8,0.9,28.5,1.8c-3.5-8.1-10.1-21.4-14-29.9c-1.3-2.9,0-6.3,2.9-7.6c2.9-1.3,6.3,0,7.6,2.9c6.4,14.2,16.5,37.5,16.6,37.8
			L392.3,476.5z" style="fill:#FFFFFF;"/>
	</g>
	<g>
		<path d="M249,484c-0.7,0-1.5-0.3-2-0.9c-1.1-1.1-1-2.9,0.1-4c24.6-23,54.5-42.7,76.3-57c2.2-1.4,4.3-2.8,6.3-4.2
			c1.3-0.9,3-0.5,3.9,0.8s0.5,3-0.8,3.9c-2,1.3-4.1,2.7-6.3,4.2c-21.7,14.3-51.4,33.8-75.6,56.5C250.3,483.8,249.7,484,249,484z" style="fill:#FFFFFF;"/>
	</g>
	<g>
		<path d="M229,469c-0.8,0-1.5-0.3-2.1-0.9c-1.1-1.1-1-2.9,0.1-4c19.1-17.7,43.6-34.2,79.5-56.7c1.3-0.8,3-0.4,3.9,0.9
			c0.8,1.3,0.4,3-0.9,3.9c-35.6,22.3-59.9,38.6-78.7,56C230.4,468.7,229.7,469,229,469z" style="fill:#FFFFFF;"/>
	</g>
	<g>
		<path d="M210.1,454.6c-0.7,0-1.5-0.3-2-0.9c-1.1-1.1-1-2.9,0.1-4c0.3-0.3,32-30.7,78.7-54.7c1.4-0.7,3.1-0.2,3.8,1.2
			c0.7,1.4,0.2,3.1-1.2,3.8c-46,23.7-77.1,53.5-77.4,53.8C211.5,454.4,210.8,454.6,210.1,454.6z" style="fill:#FFFFFF;"/>
	</g>
</g>
<g>
	<path d="M329.5,380.4c0,0,93.4,1.4,101.1,1.4s37.4,1.4,42.7,1.4s7.4-3.1,3.2-3.8c-4.2-0.7-30.8-3.5-48-3.9
		s-90.6-0.4-99,1.8L329.5,380.4L329.5,380.4z" style="fill:#FFE7E6;"/>
	<path d="M386.8,333.8l-0.3-3.8c-0.7-4.6-6-3.9-6-3.9s-35.7,1-40.9,1.4s-5.2,5.6-5.2,5.6l-0.1,0.9L386.8,333.8z" style="fill:#324A58;"/>
	<g>
		<polygon points="391.2,370.4 387.4,337.5 333.7,338.3 329.3,371.6 		" style="fill:#324A58;"/>
		<polygon points="328.8,375.4 328.1,380.8 392.4,381.3 391.6,374 		" style="fill:#324A58;"/>
	</g>
	<path d="M344.5,324.8l31.1-1.1c0,0-5.9-5.6-6.3-11.9h-17.5C351.9,311.8,351.2,320.6,344.5,324.8z" style="fill:#324A58;"/>
	<path d="M351.9,308.3l17.9,0.4c0,0,9.1-4.9,4.2-8c-4.9-3.2-17.5-2.8-22-0.7C347.3,302,347,305.9,351.9,308.3z" style="fill:#324A58;"/>
	<g>
		<path d="M481.6,110.4c0.4-0.1,0.7-0.2,1.1-0.4c1.3-0.5,2.5-1.1,3.5-1.9s1.9-1.8,2.3-3c0.2-0.6,0.2-1.2,0.1-1.7
			s-0.4-1-0.9-1.4c-0.9-0.7-2.1-0.9-3.3-0.8c-1.2,0.1-2.4,0.6-3.6,1.1c-1.2,0.6-2.3,1.2-3.3,2s-1.9,1.7-2.7,2.7
			c1.1,0.4,2.2,0.9,3.3,1.4C479.3,109,480.4,109.7,481.6,110.4z" style="fill:#FF564F;"/>
		<path d="M471.8,114c-0.4,2.5-0.3,5.1,0.6,7.5c1.5,4,9.9,12.4,20.8,11.2c1-0.1,1.9-0.5,2.8-0.8c-0.3-0.5-0.7-1-1-1.5
			c-2-3-4.1-6-6.4-8.6s-4.9-5-7.8-6.9c-0.4-0.2-0.7-0.5-1.1-0.7l-1.1-0.7c-0.8-0.4-1.5-0.8-2.3-1.2c-1.2-0.6-2.4-1.1-3.6-1.5
			C472.3,111.8,472,112.9,471.8,114z" style="fill:#FF564F;"/>
		<path d="M403.3,159.6c4.8-5.7,9.9-11.1,15.6-16c1.4-1.2,2.9-2.4,4.3-3.6c1.5-1.2,3-2.3,4.5-3.3
			c3.1-2.2,6.4-4.1,9.8-5.8c3.4-1.6,7-3,10.8-4l1.4-0.3l0.7-0.2l0.7-0.1l1.4-0.3l1.4-0.2l0.7-0.1l0.7-0.1l1.4-0.1
			c1,0,1.9-0.1,2.9-0.1c4,0,8,0.5,11.9,1.5c-0.1-0.2-0.2-0.4-0.4-0.6c-0.7-1.3-1.2-2.7-1.6-4.1c-0.7-2.8-0.9-5.8-0.3-8.7
			c0.2-1.2,0.6-2.4,1.1-3.5c-6.3-1.8-13.2-2-19.9-1.3c-3.5,0.4-6.9,1.2-10.3,2.3c-3.4,1.1-6.7,2.5-10,4c-3.3,1.6-6.4,3.3-9.5,5.2
			c-0.7,0.4-1.4,0.9-2.2,1.3c-7.7,15.5-14.1,30.4-19.1,42.9C400.7,162.8,402,161.2,403.3,159.6z" style="fill:#FF564F;"/>
		<path d="M536,150.4c1.6-0.3,3.2-0.8,4.7-1.5c3.1-1.3,6-3.1,8.7-5.2c2.7-2.1,5.2-4.5,7.7-7l0.9-1
			c0.3-0.3,0.6-0.6,0.8-0.9c0.5-0.6,1.1-1.3,1.5-1.9c1-1.4,1.9-2.8,2.7-4.3c1.7-3,3.1-6.2,4.3-9.4c1.2-3.3,2.2-6.6,3-10
			c1.6-6.8,2.5-13.8,2.6-20.7c0.2-7-0.4-14-2-20.8c-1.5-6.8-4-13.4-7.4-19.4c-1.7-3-3.8-5.8-6-8.5c-2.3-2.6-4.7-5.1-7.4-7.3
			s-5.6-4.2-8.6-5.9c-3-1.7-6.2-3.2-9.5-4.5c-3.6-1.4-7.3-2.6-11-3.5c-5.6,1.1-11.7,3-18.2,5.9c-7.2,3.1-14,7.2-20.5,12.1
			c3.8-1.3,7.5-2.3,11.2-3c11.7-2.4,22.6-2.1,34.1,1c9.7,2.6,19.1,9.3,25.7,18.4c7.4,10.3,11.1,22.8,10.6,36.3
			c-0.6,16.5-6,27.7-10.5,34.1c-5.3,7.8-12.4,13.1-18.9,14.3c-1.8,0.3-3.5,0.5-5,0.5c-3.3,0-5.9-0.7-7.6-2.3c-2.5-2.4-6-11.7,5.6-15
			c6.5-1.9,9.6,0,11.2,3.2c0.3,0.7,0.4,1.6,0.2,2.5c0.4-0.4,0.8-0.9,1.1-1.4c1-1.4,1.8-2.9,2.4-4.5c0.5-1.6,0.8-3.3,0.7-5
			c-0.1-0.8-0.2-1.6-0.5-2.4c-0.2-0.8-0.6-1.6-0.9-2.3c-0.7-1.5-1.8-2.8-3.1-3.7c-1.3-0.9-2.8-1.5-4.5-1.8c-1.6-0.3-3.3-0.2-5,0
			c-0.8,0.1-1.7,0.3-2.5,0.5c-0.9,2.6-1.9,5.1-3.2,7.6c-2.6,5-6.1,9.6-10.5,13.4c-1.6,1.4-3.3,2.6-5,3.7c0.2,0.9,0.5,1.8,0.9,2.7
			c1.2,3.1,3.1,5.9,5.4,8.3c1.2,1.2,2.4,2.4,3.7,3.5s2.6,2.1,4.1,2.9c2.8,1.7,6,2.6,9.2,2.7C532.7,150.9,534.4,150.7,536,150.4z" style="fill:#FF564F;"/>
		<path d="M503.7,165.7c0.3-1.8,0.5-3.5,0.6-5.3s0-3.6-0.1-5.3c-0.2-1.8-0.4-3.5-0.8-5.3c-0.4-1.7-0.8-3.5-1.4-5.2
			s-1.2-3.3-1.9-5c-0.7-1.5-1.4-3-2.2-4.5c-1.3,0.4-2.7,0.8-4.1,1.1s-2.9,0.4-4.3,0.5c-0.2,0-0.3,0-0.5,0c0.6,0.6,1.3,1.3,1.9,2
			c0.3,0.4,0.6,0.7,0.9,1.1c0.3,0.4,0.6,0.8,0.9,1.2s0.5,0.8,0.8,1.2l0.8,1.2c1,1.6,1.9,3.3,2.7,5.1c1.6,3.5,2.5,7.3,2.9,11.1
			c0.3,3.8,0.1,7.6-0.4,11.3c-0.2,1.7-0.5,3.4-0.8,5c0.5-0.2,1.1-0.4,1.7-0.6c0.8-1.4,1.5-2.9,2-4.4
			C502.9,169.2,503.4,167.5,503.7,165.7z" style="fill:#FF564F;"/>
		<path d="M497.2,159.9c-0.5-3.5-1.6-6.9-3.1-10.1c-0.8-1.6-1.7-3.1-2.7-4.6l-0.8-1.1c-0.3-0.4-0.5-0.7-0.8-1.1
			c-0.3-0.4-0.5-0.7-0.8-1s-0.6-0.7-0.8-1c-1.2-1.3-2.5-2.4-3.8-3.5c-1.2-1-2.5-1.8-3.9-2.6c-0.9-0.4-1.7-0.8-2.5-1.4
			c-5.6-2.7-11.9-4.1-18.2-4c-3.5,0-7,0.5-10.5,1.3c-3.4,0.8-6.8,2.1-10.1,3.5c-6.5,3-12.5,7.1-18.2,11.6c-2.8,2.3-5.6,4.7-8.3,7.2
			c-2.7,2.5-5.3,5.1-7.9,7.7c-2.4,2.5-4.8,5.1-7.1,7.7c-2.9,7.2-5.2,13.4-7.2,18.2c2.6-2.8,5.4-5.4,8.4-7.9
			c5.4-4.5,11.3-8.4,17.5-11.6c1.5-0.9,3.1-1.6,4.7-2.3c0.8-0.4,1.6-0.7,2.4-1.1c0.8-0.3,1.6-0.7,2.4-1l2.5-0.9
			c0.4-0.2,0.8-0.3,1.2-0.5l1.2-0.4l2.5-0.8c0.8-0.3,1.7-0.5,2.5-0.8c3.4-1,6.8-1.8,10.3-2.4c1.7-0.3,3.5-0.6,5.3-0.7
			c1.8-0.2,3.5-0.3,5.3-0.4c3.6-0.1,7.1,0.1,10.7,0.7c3.5,0.6,7,1.6,10.3,3.1s6.3,3.6,8.9,6.1s4.7,5.5,6.3,8.7
			c0.4,0.8,0.8,1.7,1.1,2.6c0.7-0.1,1.7-0.4,2.8-0.7c0.2-1.9,0.4-3.8,0.6-5.7C497.7,167.1,497.7,163.5,497.2,159.9z" style="fill:#FF564F;"/>
		<path d="M509.1,112.9c1.2-1.5,2.6-2.8,4.1-3.9c0.4-0.3,0.8-0.6,1.2-0.8c0.4-0.3,0.8-0.5,1.2-0.7
			c0.8-0.5,1.7-0.9,2.5-1.2c1.5-0.7,3-1.2,4.5-1.7c0.8-2.5,1.6-5,1.8-7.6c0.5-6.4-1.3-11.7-2.4-14.2c-2.2-5-5.7-9.5-10.1-12.6
			s-9.7-4.9-15.1-5.4c-1.3-0.1-2.7-0.2-4.1-0.2s-2.7,0-4.1,0.2c-2.7,0.2-5.4,0.7-8.1,1.3c-2.7,0.6-5.3,1.3-8,2.2
			c-2.6,0.9-5.2,1.9-7.7,3s-5,2.3-7.4,3.7c-2.4,1.3-4.8,2.8-7.2,4.3c-2.3,1.5-4.6,3.1-6.9,4.7s-4.5,3.4-6.6,5.1
			c-0.1,0-0.1,0.1-0.2,0.1c-5.7,9.1-11,18.5-15.7,27.7c2.5-1.7,5.1-3.2,7.8-4.6c3.3-1.8,6.7-3.3,10.3-4.6c3.5-1.3,7.2-2.2,11-2.7
			l1.4-0.2c0.5-0.1,0.9-0.1,1.4-0.1l1.4-0.1l1.4-0.1c1.9-0.1,3.8,0,5.7,0c0.5,0,1,0.1,1.4,0.1c0.5,0,1,0.1,1.4,0.1
			c0.9,0.1,1.9,0.2,2.8,0.4c1.9,0.3,3.7,0.8,5.5,1.3c0.2-0.2,0.3-0.4,0.5-0.6c1.9-2.2,4.3-3.9,6.9-5c1.3-0.6,2.7-1,4.2-1.1
			c0.7,0,1.5,0,2.3,0.2c0.7,0.2,1.5,0.6,2.1,1.1c0.6,0.6,1,1.3,1.1,2.1c0.1,0.8,0,1.6-0.3,2.3c-0.6,1.4-1.6,2.5-2.8,3.2
			c-1.2,0.8-2.5,1.3-3.8,1.7c-0.3,0.1-0.6,0.2-0.9,0.2c0.4,0.3,0.8,0.5,1.2,0.8c3.2,2.2,6,4.9,8.5,7.8s4.6,6,6.5,9.2
			c0.5,0.7,0.9,1.5,1.4,2.3c1.6-0.7,3.1-1.4,4.6-2.3c-0.1-1.7,0-3.5,0.3-5.2C504.9,119.4,506.7,115.8,509.1,112.9z" style="fill:#FF564F;"/>
		<path d="M520,151.4c-1.6-1-3.2-2.1-4.6-3.4c-1.4-1.2-2.7-2.5-4-3.9c-2.5-2.8-4.7-6-6-9.6c-0.3-0.7-0.5-1.5-0.7-2.2
			c-1.1,0.6-2.3,1.1-3.5,1.6c0.7,1.5,1.4,2.9,2,4.4c2.8,7,4,14.7,3.2,22.2c-0.5,3.7-1.4,7.4-3,10.8c-0.6,1.2-1.2,2.4-1.9,3.5
			C508.6,171.9,517.9,165.3,520,151.4L520,151.4z" style="fill:#FF564F;"/>
		<path d="M494.5,192.6l0.2-1c0.2-3.5-0.3-7.5-1.5-12l-0.3-0.7l-0.2-0.6l-0.3-0.6l-0.6-1.1c-0.2-0.4-0.4-0.7-0.6-1.1
			c-1.7-2.9-3.8-5.5-6.3-7.6c-0.6-0.5-1.3-1.1-1.9-1.5l-1-0.7c-0.3-0.2-0.7-0.4-1.1-0.6c-0.4-0.2-0.7-0.4-1.1-0.6l-1.1-0.6
			c-0.7-0.4-1.5-0.7-2.2-1c-3-1.2-6.3-2.1-9.5-2.5c-3.3-0.4-6.6-0.6-10-0.4c-3.3,0.2-6.7,0.6-10,1.2c-3.3,0.6-6.6,1.4-9.8,2.4
			c-6.5,1.9-12.8,4.3-18.9,7.3c-3,1.5-6,3.2-8.9,4.9l-2.1,1.4c-0.7,0.5-1.4,1-2.1,1.4l-1.1,0.7l-1,0.7c-0.7,0.5-1.4,1-2,1.5
			c-2.7,2-5.3,4.2-7.8,6.5c-1.8,1.6-3.5,3.3-5.2,5c-1.4,3.3-2.8,7.1-4.3,11.4c1-1,2-2,3.1-3c2.5-2.4,5.1-4.7,7.8-6.9
			c2.7-2.2,5.5-4.3,8.3-6.3c2.9-2,5.8-3.9,8.9-5.5c1.5-0.9,3.1-1.6,4.6-2.5c0.8-0.4,1.6-0.7,2.4-1.1c0.8-0.4,1.6-0.7,2.4-1.1l2.4-1
			c0.8-0.3,1.6-0.6,2.5-0.9c1.6-0.6,3.3-1.1,5-1.6c0.4-0.1,0.8-0.2,1.3-0.4l1.3-0.3l1.3-0.3l0.6-0.2c0.2,0,0.4-0.1,0.6-0.1
			c1.7-0.3,3.4-0.7,5.2-0.9c1.7-0.2,3.5-0.4,5.3-0.5s3.5-0.2,5.3-0.1c1.8,0,3.5,0.2,5.3,0.4s3.5,0.6,5.2,1s3.4,1,5.1,1.6
			c1.7,0.7,3.3,1.4,4.8,2.3c1.5,0.9,3,1.9,4.4,3.1c1.4,1.1,2.6,2.4,3.8,3.8c0.6,0.7,1.1,1.4,1.6,2.2s0.9,1.6,1.3,2.4
			c0.4,0.8,0.7,1.7,0.9,2.5c0.3,0.9,0.4,1.8,0.5,2.7s0.1,1.8,0,2.7s-0.2,1.8-0.5,2.7s-0.7,1.7-1.1,2.5c-0.5,0.8-1,1.5-1.7,2.1
			c-0.9,0.9-5.1,4.6-12,4.8c-18.1,0.5-10.3-13.8-8.4-13.6c0,0-2.5,9.8,8.4,9.1c8.6-0.5,8.8-7.4,7-11.2s-6.1-4.7-10.5-4.5
			c-5.8,0.2-12.4,4-13.7,11.5c-1.9,11.4,11.9,13.4,17.2,13.7c7.8,0.4,24-3.9,25.1-21.3C494.6,192.3,494.5,192.5,494.5,192.6z" style="fill:#FF564F;"/>
		<path d="M578.7,46.5c0,0-13.9-34.4-53.7-28.7c0.9,0.2,1.7,0.4,2.6,0.7c1.7,0.5,3.5,1,5.2,1.6
			c6.8,2.4,13.3,5.8,19.1,10.2s10.7,10,14.5,16.2s6.6,13.1,8.2,20.2c1.7,7.1,2.4,14.4,2.3,21.7c0,3.6-0.3,7.3-0.7,10.9
			s-1.1,7.2-1.9,10.7c-0.8,3.5-1.8,7-3.1,10.5c-1.2,3.4-2.7,6.8-4.5,10c-0.5,0.8-0.9,1.6-1.4,2.4c-0.5,0.8-1,1.6-1.6,2.3
			c-0.6,0.8-1.2,1.5-1.8,2.2c-0.3,0.4-0.7,0.7-1,1l-0.9,1c-2.5,2.6-5.2,5.1-8.1,7.4c-2.9,2.2-6.1,4.2-9.6,5.7
			c-1.7,0.7-3.6,1.3-5.5,1.7s-3.8,0.6-5.8,0.5c0,0,0,0-0.1,0c10.8,2.9,27.9,2.4,43.2-20.1C601.4,94.5,578.7,46.5,578.7,46.5z" style="fill:#FF564F;"/>
		<path d="M447.2,184.2c35.8-8.8,35.2,16.8,34.3,17.5c0,0-0.2,0.6-0.7,1.4c0.5-0.6,1-1.3,1.3-2c0.4-0.7,0.7-1.5,0.9-2.3
			c0.2-0.8,0.3-1.6,0.3-2.4c0-0.8,0-1.6-0.2-2.4c-0.1-0.4-0.2-0.8-0.2-1.2c-0.1-0.4-0.2-0.8-0.4-1.2c-0.3-0.8-0.6-1.5-1-2.3
			c-0.4-0.7-0.8-1.4-1.3-2.1c-0.5-0.7-1-1.3-1.5-1.9c-2.2-2.5-4.8-4.5-7.8-6.1c-1.5-0.8-3-1.5-4.5-2c-1.6-0.6-3.2-1-4.8-1.4
			c-1.6-0.4-3.3-0.6-4.9-0.8c-1.7-0.2-3.3-0.3-5-0.3c-3.3,0-6.7,0.2-10,0.7c-1.7,0.2-3.3,0.6-5,0.9c-0.2,0-0.4,0.1-0.6,0.1l-0.6,0.2
			l-1.2,0.3l-1.2,0.3l-0.6,0.2c-0.2,0.1-0.4,0.1-0.6,0.2c-6.5,1.9-12.8,4.5-18.7,7.8c-3,1.6-5.9,3.4-8.8,5.2c-1.4,1-2.8,1.9-4.2,2.9
			c-1.4,1-2.8,2-4.1,3c-4.7,3.6-9.3,7.6-13.6,11.7c-10.1,30.5-20.8,76.7-20.8,76.7h7c0,0,0.4-12.2,6.6-24.2
			c6.3-11.9,19.6-19.9,29.8-15.4c10.2,4.6,19.1,24-1.4,29.8c-7.1,2-12.4-7.9-4-14.5c0,0-3.2,11.5,7.7,8.8c8.9-2.3,5.6-12,2.3-14.2
			c-5.1-3.3-10.3-3-15.2,3c-3.8,4.6-3.5,12.1-1.9,15.6c1.9,4.4,10.3,7.2,17.1,4.2c7.1-3.1,14.4-8.4,14.7-22.1
			c0.4-13.6-11.9-19.6-24.5-17.8S377.5,251,377.5,251S397.6,196.4,447.2,184.2z" style="fill:#FF564F;"/>
		<path d="M523.6,125.9c-1,0.9-1.8,2.1-1.9,3.6c-0.1,1.1,0.1,3.1,1.7,4.5c1.9,1.7,5.6,2.2,10.5,1.3
			c5.9-1.1,12.3-6,17.3-13.3c4.2-6.2,9.4-16.9,10-32.8c0.5-12.9-3-25-10.1-34.8c-6.3-8.7-15.1-15.1-24.3-17.5
			c-11.2-3-21.7-3.3-33-0.9c-5.8,1.2-11.8,3-17.9,5.6c-8.2,6.9-15.7,15-22.7,23.8c1.9-1.1,3.7-2.2,5.7-3.2c4.9-2.6,9.9-4.8,15.2-6.5
			c1.3-0.4,2.6-0.8,4-1.2c1.3-0.4,2.7-0.7,4.1-0.9c2.7-0.5,5.5-0.9,8.3-1.1c2.8-0.2,5.6-0.1,8.5,0.2c2.8,0.4,5.6,1,8.3,2.1
			c2.7,1,5.3,2.4,7.6,4.2c2.3,1.7,4.4,3.8,6.1,6.1c1.8,2.3,3.2,4.8,4.4,7.4s2.1,5.3,2.7,8.1c0.6,2.8,1,5.6,1.2,8.5
			c0.1,2.9-0.1,5.7-0.6,8.5c-0.3,2-0.7,3.9-1.3,5.9c0.5-0.1,0.9-0.1,1.4-0.2c1.9-0.2,3.8-0.2,5.7,0.2c0.9,0.2,1.9,0.5,2.8,0.8
			c0.9,0.4,1.7,0.9,2.5,1.5c1.5,1.2,2.7,2.8,3.5,4.6c0.4,0.9,0.7,1.8,0.9,2.7c0.2,0.9,0.4,1.9,0.5,2.8c0.1,1.9-0.3,3.8-1,5.5
			s-1.6,3.3-2.8,4.8c-1,1.3-4.3,4.7-8.9,5.9h-0.1c-0.5,0.1-1,0.1-1.5,0.1c-3,0.1-5.6-1-6.4-3.6c-0.1-0.5-0.2-1-0.3-1.5
			c0-0.1-0.1-0.2-0.1-0.4c0,0.1,0.1,0.2,0.1,0.3C523.6,126.5,523.6,126.2,523.6,125.9z" style="fill:#FF564F;"/>
		<path d="M519.6,111.7c0.7-1.3,1.3-2.6,1.8-4c-0.8,0.3-1.5,0.6-2.2,1c-0.8,0.4-1.5,0.8-2.2,1.2c-0.4,0.2-0.7,0.4-1,0.7
			c-0.3,0.2-0.7,0.5-1,0.7c-1.3,1-2.5,2.2-3.5,3.5c-2,2.6-3.5,5.7-3.9,8.9c-0.1,0.8-0.2,1.7-0.2,2.5c1-0.7,2-1.5,2.9-2.3
			C514.1,120.5,517.3,116.3,519.6,111.7z" style="fill:#FF564F;"/>
		<path d="M442.3,82.2c2.2-1.8,4.5-3.5,6.8-5.1s4.7-3.1,7.2-4.6c1.2-0.7,2.5-1.4,3.7-2.1c1.3-0.7,2.5-1.3,3.8-1.9
			c2.6-1.2,5.2-2.3,7.9-3.2c2.7-0.9,5.4-1.7,8.2-2.3c2.8-0.6,5.6-1.1,8.5-1.3s5.8-0.2,8.7,0.2c2.9,0.3,5.7,1,8.5,2.1
			c2.7,1,5.3,2.5,7.6,4.3c2.3,1.8,4.3,3.9,6,6.2c1.7,2.3,3,4.9,4,7.6c0.5,1.3,0.9,2.7,1.3,4.1c0.2,0.8,0.4,1.6,0.5,2.4
			c-0.1-2.4-0.5-4.8-1-7.2c-1.1-5.1-3.2-9.9-6.2-14c-1.5-2.1-3.3-3.9-5.3-5.5s-4.2-2.8-6.6-3.8c-4.7-1.9-10-2.6-15.3-2.5
			s-10.5,1.1-15.7,2.6c-5.1,1.5-10.2,3.4-15,5.7c-3.1,1.5-6.2,3.1-9.2,4.8c-3.9,5.1-7.6,10.4-11.1,15.8
			C440.4,83.7,441.3,83,442.3,82.2z" style="fill:#FF564F;"/>
	</g>
	<path d="M345.9,299.6c0,0,5.2-5.2,16.1-5.2s15.4,3.1,16.5,5.2c0,0,9.1-6.6,3.5-13.6s-21.7-6.3-27-4.9
		s-14.7,4.2-14.7,11.5C340.3,297.5,345.9,299.6,345.9,299.6z" style="fill:#324A58;"/>
</g>
</svg>
