<?xml version="1.0" encoding="utf-8"?>
<!-- Generator: Adobe Illustrator 23.0.2, SVG Export Plug-In . SVG Version: 6.00 Build 0)  -->
<svg version="1.1" id="Layer_1" xmlns="http://www.w3.org/2000/svg" xmlns:xlink="http://www.w3.org/1999/xlink" x="0px" y="0px" viewBox="0 0 449.9 600" style="enable-background:new 0 0 449.9 600;" xml:space="preserve">

<g>
	<circle cx="412.7" cy="461" r="5.7" style="fill:#FF9B19;"/>
	<circle cx="430.6" cy="468.7" r="3.6" style="fill:#FF9B19;"/>
</g>
<g>
	<circle cx="299.7" cy="481.4" r="6.7" style="fill:#FF9B19;"/>
	<circle cx="275.9" cy="463.5" r="5.3" style="fill:#FF9B19;"/>
	<circle cx="295.6" cy="445.4" r="4.3" style="fill:#FF9B19;"/>
</g>
<g>
	<circle cx="37.2" cy="396.1" r="7.6" style="fill:#FF9B19;"/>
	<circle cx="51.3" cy="442.8" r="4.6" style="fill:#FF9B19;"/>
	<circle cx="32.7" cy="478.4" r="6.1" style="fill:#FF9B19;"/>
</g>
<g>
	<g>
		<path d="M382.3,360.2L382.3,360.2c-1.4,0-2.5-1.1-2.5-2.5l0.2-214.6c0-1.4,1.1-2.5,2.5-2.5l0,0c1.4,0,2.5,1.1,2.5,2.5
			l-0.2,214.6C384.8,359,383.7,360.2,382.3,360.2z" style="fill:#FF9B19;"/>
	</g>
	<path d="M364.4,240.6c-1.4-51.3-2.5-71.5-4.9-93.9c-1.1-10.4-6.5-47.1-25.3-79.6c-8.7-15-19.1-26.9-30.9-35.3
		c-13.9-9.9-29.7-14.9-47-14.9c-16.8,0-32.7,4.9-47,14.6c-11.3,7.7-21.7,18.4-30.8,31.8c-15.4,22.5-21.8,44.7-22.2,45.7
		c-0.7,2.2,0.7,4.4,2.8,5.1c2.2,0.7,4.4-0.7,5.1-2.8c0.1-0.2,6.5-22,21.2-43.5c3.2-4.7,6.6-9,10.1-13.1l58.7,134.9l-40.5,0.1
		c-2.3,0-4.1,1.8-4.1,4.1c0,2.3,1.8,4.1,4.1,4.1l0,0l42-0.1l0.9,61.7c0,2.1,1.7,3.7,3.8,3.7c0,0,0,0,0.1,0c2.1,0,3.8-1.7,3.7-3.9
		l-0.9-61.7l91.5-0.2c0.5,11.7,0.9,25.6,1.4,43.3c1.3,48.3,0,130.4,0,131.2c0,2.3,1.8,4.1,4,4.2h0.1c2.2,0,4.1-1.8,4.1-4
		C364.4,371.3,365.8,289.2,364.4,240.6z M348.4,129.2l-82.6,58.4l58.9-120.4c0.8,1.3,1.6,2.6,2.5,4
		C338.8,91.5,345.1,113.5,348.4,129.2z M322.3,63.7l-59.1,120.9L261,26c0-0.2,0-0.4-0.1-0.7c13.8,0.8,26.4,5.3,37.6,13.2
		C307.3,44.7,315.3,53.2,322.3,63.7z M214,38.3c12.1-8.2,25.4-12.6,39.5-13.1c-0.1,0.2-0.1,0.6-0.1,0.8l2.2,157.6L198.3,51.9
		C203.3,46.5,208.5,42,214,38.3z M269.1,189.6l80-56.5c1.2,6.5,1.9,11.6,2.2,14.5c1.4,12.6,2.4,24.5,3.2,41.8L269.1,189.6z" style="fill:#FF9B19;"/>
	<g>
		<path d="M341.9,389.9c-0.7,0-1.3-0.6-1.3-1.3V211.9h-62.4v61.4c0,0.7-0.6,1.3-1.3,1.3s-1.3-0.6-1.3-1.3v-62.7
			c0-0.7,0.6-1.3,1.3-1.3h65c0.7,0,1.3,0.6,1.3,1.3v178C343.3,389.3,342.7,389.9,341.9,389.9z" style="fill:#FF9B19;"/>
	</g>
	<circle cx="192.5" cy="142.9" r="7.6" style="fill:#FF9B19;"/>
	<circle cx="314.9" cy="337.5" r="3.4" style="fill:#FF9B19;"/>
	<circle cx="311.9" cy="296.1" r="5.4" style="fill:#FF9B19;"/>
	<circle cx="249.5" cy="345.1" r="4.1" style="fill:#FF9B19;"/>
</g>
<g>
	<ellipse cx="217" cy="584.5" rx="161.1" ry="3.1" style="fill:#324A58;"/>
	<path d="M300.6,364.9c-6.6-9.9-16.1-9.9-18.7-9.9c-2.5,0-15.8,1.2-19.8,19.4c-4,0.2-7.1,3.6-7.1,7.7
		c0,2.5,1.1,4.6,3,6.1c-0.3,1-0.7,2.1-1.1,3.4c-3.8-0.5-7-0.2-6.9,2.6c0.1,1.3,2,2.5,4.9,3.2C239,445,195.5,584.3,195.5,584.3h8.2
		c0,0,31.5-102.5,36.5-119.2c3.4-11.8,13.6-47,19.4-66.8c3.7,0.5,6.8,0.6,7.5-2c0.7-2.3-2.2-3.3-5.7-3.9c0.2-0.9,0.5-1.7,0.7-2.5
		c0.2,0,0.5,0,0.7,0c4.3,0,7.7-3.4,7.7-7.7c0-2.7-1.4-5.1-3.5-6.5c1.9-5.4,7.6-17.7,20.3-12.1c16.1,7.2,8.5,25-2,17.7
		c-2.1-1.4-4.2,0.5-4.4,2.5c-0.5,3.8,2.7,5.7,4.8,6.4c3.6,1.3,7.1,1.3,10.8-0.3C300.9,387.9,308.6,377,300.6,364.9z" style="fill:#324A58;"/>
	<g>
		<path d="M61.5,584.3" style="fill:none;stroke:#FF00FF;stroke-width:6;stroke-linecap:round;stroke-linejoin:round;stroke-miterlimit:10;"/>
	</g>
	<path d="M209.9,486.8l-4.3,17.4c0,0,8.9,37.4,53.9,44.7c45,7.2,84.7-26.6,87.7-29.2c3-2.6,40.1-33.2,58.1-81.1
		c10.9-29,3.9-57.1,0.7-65.7c-2.1-5.4-8.2-4.3-9.2,2c-1,6.2-0.3,29.9-5.6,45c-5.3,15.1-19,47-45,70.3
		c-23.3,20.9-49.3,35.5-81.1,36.8C226,528.5,209.9,486.8,209.9,486.8z" style="fill:#FF564F;"/>
	<path d="M59.5,40.4c-1.1-1.6-5.3-7.6,0-9.9s30.2-8.9,30.2-8.9s6.6-2,6.9,3.3s11.5,54.2,11.5,54.2s6.9-2.6,9.2-15.1
		c1.3-7.2,5.9-4.9,4.9,1.6c-1.4,9.2-3.9,23.6-22.7,30.5c-25.2,9.3-45-3.6-45-3.6s-5.9-4.3,0-9.5c5.9-5.3,5.6,0.3,7.9,2.6
		c2.3,2.3,7.9,5.6,16.4,4.9C78.9,90.7,66.9,52.3,59.5,40.4z" style="fill:#324A58;"/>
	<path d="M66.7,112.4c3-4.5,13.1-16.1-5.3-21c0,0,2.3-12.5-3.3-11.8c-5.6,0.7-8.9,6.2-8.9,14.1c0,7.9,5.3,11.5,5.3,11.5
		s-25,28.6-21,54.5s42.7,43,42.7,43l25.6-32.8c0,0-28.6-9.9-35.8-24.3C58.8,131.1,62,119.4,66.7,112.4z" style="fill:#FF564F;"/>
	<path d="M210,226.3c0,0,6.2,43.4-0.5,69.6c0,0,45.9,14.9,70.1,49.1c0,0-15.4,17.7,0.4,24s12.7-22.6,8.3-33.7
		S251.2,255.2,210,226.3z" style="fill:#FF564F;"/>
	<path d="M211.9,364.9c0,0-40.7-7.9-61.7-60.1c-2.5-6.3-14.8-12.3-25.6-16.6c-10.5,38.9-19.3,77.2-19.3,77.2
		c-1.7,5.7-6.7,8.7-10.6,3.5c-3.4-4.5-6.2-8.3-11.2-16.5c-26.2,91.5,15.2,210.9,15.2,210.9c-6.9,26.3,20.4,21.3,20.4,21.3
		c22.7-8.9-1.6-25.9-1.6-25.9c-1.6-15.9,10.8-43.1,11.5-44.6c-7.7-2.3-13-6-14.9-7.6c-0.1-0.1-0.2-0.2-0.3-0.2
		c-0.7-0.7-0.6-1.7-0.1-2.3c0.1-0.1,1.1-1.1,2.4-0.1c4.3,3.4,27.1,19,56-2.4c0.7-0.6,1.7-0.4,2.3,0.3c0.6,0.7,0.4,1.7-0.3,2.3
		c-4.6,3.4-9,5.9-13.3,7.8c13.3,22.7,2.1,52.3,2.1,52.3c-15.4,6.2-25.6,22.7-0.2,23.2c25.4,0.5,19-21.2,19-21.2s25-62.1,32.2-120.2
		C220.8,387.9,211.9,364.9,211.9,364.9z" style="fill:#FF564F;"/>
	<path d="M128.8,227.3c0-24.1,8.4-45.3,21-57.6c-10.3-7-22-10.3-33.5-8.9c-30.8,4-48.6,41.4-43.1,83.6
		c5.5,42.1,34.9,73.1,65.6,69.1c12-1.6,22.3-8.1,30.3-18.1C146.4,291,128.8,262.2,128.8,227.3z" style="fill:#FFE1E1;"/>
	<path d="M143.6,195.2c10.1,2.2-5.9,33.7-17.5,73.2S103,358.7,103,358.7c-0.7,3.9-3.9,12.7-9.5,1.5
		c-5.7-11.2-36.1-49.7-32.7-79.2C64.3,251.5,127.6,191.6,143.6,195.2z" style="fill:#FF564F;"/>
	<polygon points="117.6,171.2 131.1,165.3 125.5,146.5 	" style="fill:#2568EF;"/>
	<polygon points="83.8,169.5 106.8,178.2 95.3,196.8 	" style="fill:#2568EF;"/>
	<polygon points="59.2,211.2 83.8,204 79.2,217.1 	" style="fill:#2568EF;"/>
	<path d="M61.8,242.4c1-0.3,12.8-6.6,12.8-6.6l2.3,10.5L61.8,242.4z" style="fill:#2568EF;"/>
	<polygon points="131.1,321.3 126.8,299.9 141.6,302.2 	" style="fill:#2568EF;"/>
	<path d="M207,286.4c-0.7,4.8-1.9,6.5-2.9,7.3c-0.7,0.5-1.4,0.7-2.1,0.7c-0.5,0-1-0.1-1.5-0.3
		c-14.5-6-18.5-37.9-18.6-39.2c-0.2-0.8,0.4-1.6,1.2-1.7s1.6,0.4,1.7,1.2c0,0.1,1.3,8.3,4.1,17c3.6,11.2,8,18.1,12.7,20
		c0.4,0.2,0.6,0.1,0.7,0c0.7-0.5,2.8-3.4,2.1-20c-0.4-9.1-1.5-17.8-1.5-17.9c-0.1-0.8,0.5-1.6,1.3-1.6s1.6,0.5,1.6,1.3
		c0,0.1,1.1,8.9,1.6,18.1c0,0.6,0.1,1.1,0.1,1.7c8.9-113-53.9-124-73.3-99.4c-7.6,9.7-11.9,19.8-13.8,29.7
		c11.2-8.5,20.9-13.5,26.3-12.5c10.4,2.1-3.6,32.2-15.4,71.1c6.2,12.1,12.4,19.7,12.4,19.7c20,66,62.7,81.1,71.3,80.8
		s9.2-9.2,10.5-11.8C226.5,348.1,210.6,297.6,207,286.4z M175,295.9c-0.7,0.7-1.6,1-2.5,1c-0.4,0-0.8-0.1-1.2-0.2
		c-6-1.6-12.2-9.6-17.1-23.5c-3.5-10.1-4.8-19.9-4.8-20c-0.2-0.8,0.3-1.6,1.1-1.7c0.8-0.2,1.6,0.3,1.7,1.1
		c2.1,10.5,9.6,38.4,19.8,41.2c0.5,0.2,0.7,0,1-0.2c0.6-0.5,1.6-2.2,2-7.6c0.2-3.5,0.2-8.1-0.2-13.7c-0.7-9.4-2.1-18.4-2.1-18.5
		c-0.2-0.8,0.4-1.6,1.2-1.7c0.8-0.2,1.6,0.4,1.7,1.2c0,0.1,2.1,9.2,2.8,18.7C179.9,292.1,176,295,175,295.9z" style="fill:#FF564F;"/>
	<path d="M157.7,225.8c0,0,5.1-2.5,5.8,1.1c0.7,3.7-2.7,5.5-2.7,5.5s-9.9,9.1-12.6,7
		C145.5,237.3,153.6,228.5,157.7,225.8z" style="fill:#324A58;"/>
	<path d="M195.5,234c0,0-4.4-2.6-2.7-6.3c1.6-3.7,7.4,1.5,7.4,1.5s8,6.7,6,8.9C204.3,240.3,195.5,234,195.5,234z" style="fill:#324A58;"/>
	
		<ellipse transform="matrix(0.9983 -5.896635e-02 5.896635e-02 0.9983 -17.3847 10.7121)" cx="172.8" cy="299.9" rx="12.5" ry="18.4" style="fill:#FFE1E1;"/>
	
		<ellipse transform="matrix(0.9983 -5.896635e-02 5.896635e-02 0.9983 -17.3059 12.7257)" cx="207" cy="299.6" rx="12.5" ry="18.4" style="fill:#FFE1E1;"/>
	<g>
		<path d="M173.4,320.3c-3.8,0-7.4-2-10.2-5.7c-2.8-3.6-4.5-8.5-4.8-13.9c-0.3-5.3,0.8-10.3,3.1-14.3
			c2.5-4.2,6.1-6.7,10.1-6.9c4-0.2,7.8,1.7,10.8,5.6c2.8,3.6,4.5,8.5,4.8,13.9l0,0c0.3,5.3-0.8,10.3-3.1,14.3
			c-2.5,4.2-6.1,6.7-10.1,6.9C173.8,320.2,173.5,320.3,173.4,320.3z M172.2,283.5c-0.2,0-0.2,0-0.4,0c-2.6,0.2-5.1,1.9-6.9,4.9
			c-2,3.3-2.9,7.6-2.6,12.1c0.5,8.9,5.7,16.1,11.5,15.8c2.6-0.2,5.1-1.9,6.9-4.9c2-3.3,2.9-7.6,2.6-12.1l0,0
			C182.7,290.6,177.7,283.5,172.2,283.5z" style="fill:#324A58;"/>
	</g>
	<g>
		<path d="M207.5,319.9c-3.8,0-7.4-2-10.2-5.7c-2.8-3.6-4.5-8.5-4.8-13.9c-0.3-5.3,0.8-10.3,3.1-14.3
			c2.5-4.2,6.1-6.7,10.1-6.9c4-0.2,7.8,1.7,10.8,5.6c2.8,3.6,4.5,8.5,4.8,13.9l0,0c0.3,5.3-0.8,10.3-3.1,14.3
			c-2.5,4.2-6.1,6.7-10.1,6.9C207.9,319.9,207.7,319.9,207.5,319.9z M206.4,283.2c-0.2,0-0.2,0-0.4,0c-2.6,0.2-5.1,1.9-6.9,4.9
			c-2,3.3-2.9,7.6-2.6,12.1c0.5,8.7,5.5,15.8,11.1,15.8c0.2,0,0.2,0,0.4,0c2.6-0.2,5.1-1.9,6.9-4.9c2-3.3,2.9-7.6,2.6-12.1l0,0
			c-0.2-4.5-1.7-8.7-4-11.7C211.4,284.6,208.9,283.2,206.4,283.2z" style="fill:#324A58;"/>
	</g>
	<g>
		<path d="M192.5,300.2c-0.5,0-0.9-0.2-1.1-0.7c-0.2-0.5-0.5-0.6-0.7-0.6c-0.9-0.2-2.4,0.6-3,1s-1.4,0.3-1.8-0.2
			c-0.4-0.6-0.3-1.4,0.2-1.8c0.2-0.2,2.7-2,5-1.5c1.1,0.2,1.9,0.9,2.5,1.9c0.3,0.7,0.2,1.4-0.5,1.8
			C192.9,300.2,192.8,300.2,192.5,300.2z" style="fill:#324A58;"/>
	</g>
	<g>
		<path d="M133.9,367.5c-7.8,0-16.3-4-25.4-12.1c-0.6-0.5-0.6-1.3-0.1-1.9c0.5-0.6,1.3-0.6,1.9-0.1
			c11.1,9.9,21.1,13.4,29.8,10.4c19.8-6.7,27.1-44.4,27.2-44.8c0.2-0.7,0.8-1.1,1.6-1.1c0.7,0.2,1.1,0.8,1.1,1.6
			c-0.1,0.4-1.9,9.9-6.3,20.5c-6,14.4-13.6,23.2-22.6,26.3C138.6,367.1,136.3,367.5,133.9,367.5z" style="fill:#324A58;"/>
	</g>
	<path d="M320.3,469.7c2.2-2.1,4.2-4.4,6.1-6.7c1.9-2.4,3.6-4.8,5.2-7.3c1.6-2.5,3.1-5.1,4.4-7.7l0.5-1l0.2-0.5l0.2-0.5
		l0.9-2c0.3-0.7,0.6-1.3,0.8-2.1l0.8-2.1l0.1-0.1c0.6-1.5,2.2-2.1,3.6-1.6c1.5,0.6,2.1,2.2,1.6,3.6c-0.1,0.2-0.1,0.2-0.2,0.4
		l-1.1,2.1c-0.4,0.7-0.7,1.3-1.2,2l-1.2,2l-0.3,0.5l-0.3,0.5l-0.7,1c-1.8,2.5-3.7,4.9-5.7,7.2c-2.1,2.3-4.2,4.5-6.4,6.6
		C325.1,466,322.7,468,320.3,469.7z" style="fill:#324A58;"/>
	<path d="M343.9,469.7c1.5-1.2,2.8-2.7,4-4.1c1.2-1.5,2.5-3,3.6-4.5c2.3-3.1,4.3-6.3,6.2-9.7l1.4-2.5
		c0.5-0.8,0.8-1.7,1.3-2.5c0.9-1.7,1.6-3.4,2.4-5.2c0.4-0.8,0.7-1.7,1.1-2.6l1.1-2.6c0.7-1.8,1.3-3.6,2-5.3v-0.1
		c0.5-1.5,2.1-2.2,3.6-1.6c1.5,0.5,2.2,2.1,1.6,3.6c0,0.1-0.1,0.2-0.2,0.3c-0.9,1.7-1.8,3.5-2.7,5.3l-1.4,2.5
		c-0.5,0.8-0.9,1.7-1.5,2.5c-1,1.6-2,3.4-3.1,5c-0.6,0.8-1.1,1.6-1.6,2.5L360,453c-2.3,3.1-4.8,6.2-7.5,9c-1.3,1.4-2.7,2.8-4.2,4.1
		C347,467.3,345.5,468.6,343.9,469.7z" style="fill:#324A58;"/>
	<path d="M335.7,552.5c1.9-0.4,3.8-1.1,5.7-1.8c1.8-0.7,3.6-1.5,5.4-2.4c3.5-1.7,6.9-3.7,10.2-5.8s6.4-4.5,9.4-7
		c1.5-1.2,3-2.5,4.4-3.9l2.1-2l0.6-0.5l0.5-0.5l1.1-1.1c1.4-1.4,2.7-2.8,4.1-4.2l2-2.2l1-1.1c0.3-0.3,0.7-0.7,1-1.1l1.9-2.2
		c0.7-0.7,1.2-1.6,1.8-2.3l0.9-1.1c0.3-0.4,0.6-0.7,0.9-1.1l1.7-2.3c4.7-6.2,8.9-12.8,12.7-19.6c0.7-1.3,2.5-1.8,3.8-1.1
		c1.3,0.7,1.8,2.5,1.1,3.8c0,0.1-0.1,0.1-0.1,0.2l0,0c-4.4,6.7-9.1,13.1-14.2,19.3l-2,2.3c-0.3,0.4-0.7,0.7-1,1.1l-1,1.1
		c-0.7,0.7-1.3,1.5-2,2.2l-2.1,2.1c-0.3,0.3-0.7,0.7-1.1,1.1l-1.1,1.1l-2.1,2.1c-1.5,1.4-2.9,2.7-4.4,4l-1.1,1l-0.6,0.5l-0.6,0.5
		l-2.3,1.9c-1.6,1.2-3.1,2.5-4.8,3.6c-3.2,2.4-6.5,4.5-9.9,6.6c-3.4,2-7,3.8-10.7,5.3c-1.8,0.7-3.7,1.5-5.6,2.1
		C339.6,551.6,337.7,552.1,335.7,552.5z" style="fill:#324A58;"/>
	<ellipse cx="221.4" cy="358.5" rx="9.5" ry="10.7" style="fill:#324A58;"/>
</g>
</svg>
