<?xml version="1.0" encoding="utf-8"?>
<!-- Generator: Adobe Illustrator 23.0.6, SVG Export Plug-In . SVG Version: 6.00 Build 0)  -->
<svg version="1.1" id="Layer_2_1_" xmlns="http://www.w3.org/2000/svg" xmlns:xlink="http://www.w3.org/1999/xlink" x="0px" y="0px" viewBox="0 0 600 600" style="enable-background:new 0 0 600 600;" xml:space="preserve">

<g id="Layer_3">
</g>
<g>
	<g>
		<path d="M549.7,420.7c-29.4-34.5-88.7-32.3-132.6,4.9c-43.8,37.3-55.5,98.5-26.1,133.1c29.4,34.5,88.7,31.3,132.6-5.9
			C567.4,515.5,579.1,455.2,549.7,420.7z M492.1,484c-4.8,14.9-27.3,29.3-45.5,29.3c-0.2,0-0.3,0-0.5,0c-17-0.2-31.6-9.7-32.3-10.1
			c-1.2-0.8-1.5-2.3-0.7-3.5s2.3-1.5,3.5-0.7c0.1,0.1,14.1,8.1,29.6,8.3c0.1,0,0.3,0,0.4,0c16.1,0,36.4-14.1,40.6-27
			c4.7-14.6,3.6-23.4,3-29.4c-0.2-1.4,0.8-2.6,2.2-2.8c1.4-0.1,2.6,0.8,2.8,2.2C495.9,456.6,497.2,468.3,492.1,484z" style="fill:#FFE7E6;"/>
		<polygon points="481.5,412.4 499.3,373.1 503.9,412.4 		" style="fill:#2568EF;"/>
		<polygon points="525.5,457.2 520.1,493.9 584.9,463.4 		" style="fill:#2568EF;"/>
		<polygon points="460.7,533.6 492.7,537.9 470.4,595.7 		" style="fill:#2568EF;"/>
		<polygon points="399.3,512.8 404.7,544.4 346,549.8 		" style="fill:#2568EF;"/>
		<path d="M445.2,382.5c-40.5-58.1-76.2-62.3-82.6-106.4c-5.6-39,9.1-72.9-7.6-75.2c-13.1-1.8-28.6,23.9-32,46.3
			c-4.2,27.9-0.2,48.9,12,80.5l-12.2-1.2l3.9,40.7l11.3,6.6c0,0-5,21.8-72.4,28.9s-82.4-5.8-81.9-9.9c0.4-4.2,13.2-10.8,13.2-10.8
			s0-33.5,6.2-42.7c0,0-36.7,5.2-74.3,22.9c-35.5,16.7-57,38.8-51.3,47.1c5.7,8.4,36.7-9.4,47.1-14.6c19.2-9.5,52.4-20.4,69.6-22.1
			l0.5,2c0,0-26.2,3.9-65.6,26.6s-63.9,44.3-52.4,56c6.8,6.9,45.7-21.8,66.5-30.5c20.8-8.8,50.6-21.9,54.4-21.9s10.1,0.6,10.1,0.6
			s-35.5,15.9-62,32.8c-26.4,16.9-47,35.2-37.7,44.6c9.2,9.4,47-19.6,78.5-32.5c31.5-12.8,72.9-24.8,72.9-24.8s-48.8,21.1-66.4,33.4
			c-17.5,12.3-43.3,32.9-33.8,38.8c9.6,5.8,39.5-14.8,59.4-22.2s57-23.4,93.7-26.5c36.7-3.2,72.3,2.9,89.1,19.4s26.3,34.7,26.3,34.7
			s17.3,9,35,0c26.7-13.6,26.7-30.3,26.7-30.3S466.6,413.2,445.2,382.5z M156.4,375c-0.1,0-0.2,0-0.4,0c-0.9,0-1.8-0.7-2-1.6
			c-0.9-4.6-6.3-9.6-8.3-11.1c-0.9-0.7-1.1-1.9-0.4-2.8c0.7-0.9,1.9-1.1,2.8-0.4c0.3,0.3,8.5,6.5,9.8,13.6
			C158.2,373.7,157.5,374.8,156.4,375z M174.2,406.9c-0.3,0.1-0.6,0.2-0.9,0.2c-0.8,0-1.5-0.4-1.8-1.1c-3.3-7.1-12.4-10.8-12.5-10.9
			c-1-0.4-1.5-1.6-1.1-2.6s1.6-1.5,2.6-1.1c0.4,0.2,10.6,4.4,14.6,12.9C175.6,405.2,175.2,406.4,174.2,406.9z M204.4,436
			c-0.3,0.2-0.8,0.4-1.1,0.4c-0.6,0-1.2-0.3-1.6-0.9c-7.7-11-15.2-11.3-15.6-11.3c-1.1,0-2-0.9-2-2s0.9-2,2-2c0.4,0,9.8,0.1,18.8,13
			C205.6,434.1,205.3,435.3,204.4,436z M234.9,461.8c-0.4,0.4-0.9,0.5-1.4,0.5s-1.1-0.2-1.5-0.6c-7.2-7.7-14.4-9.2-14.5-9.2
			c-1.1-0.2-1.8-1.3-1.6-2.3c0.2-1.1,1.2-1.8,2.3-1.6c0.3,0.1,8.6,1.7,16.7,10.4C235.8,459.8,235.7,461.1,234.9,461.8z M330.1,267.1
			c-1.1,0.1-2.1-0.6-2.2-1.7s0.6-2.1,1.7-2.2c0.5-0.1,11.9-1.5,22.6,2.1c1,0.4,1.6,1.5,1.3,2.5c-0.3,0.8-1.1,1.4-1.9,1.4
			c-0.2,0-0.4,0-0.6-0.1C341.1,265.7,330.2,267.1,330.1,267.1z M386.2,392.1c-0.4,0.6-1,1-1.7,1c-0.3,0-0.7-0.1-1-0.3
			c-0.4-0.2-10.7-6.2-20-15.5c-9.4-9.3-13.7-25.2-13.9-25.9c-0.3-1.1,0.3-2.2,1.4-2.4c1.1-0.3,2.2,0.3,2.5,1.4
			c0,0.2,4.3,15.6,12.9,24.1c9,8.9,19.1,14.8,19.2,14.8C386.4,389.9,386.7,391.1,386.2,392.1z" style="fill:#FF564F;"/>
	</g>
	<g>
		<g>
			<path d="M211.3,381.8L211.3,381.8L211.3,381.8z" style="fill:#FF9B19;"/>
			<path d="M313.2,366.3c-0.4-1.7-3.4-4.1-3.3-4l-45.5-31.9l5.7-74c0,0-4-3.2-5.7-3.1c-1.6,0.1-5.6,4.2-5.6,4.2l3.2,73
				c0,0-51.4,49-52.4,50.4c-1.1,1.6-1.5,3.1-1.2,4.6c0.9,4.2,7.2,6.4,19.1,6.7c0.6,0,1.2,0,1.9,0c9.9,0,22.4-1.2,35.5-3.6
				c19.2-3.5,41.8-10,47.2-17.7C313.1,369.3,313.5,367.8,313.2,366.3z M309.6,368.7c-4.7,6.1-27.3,12.7-45.6,16.1
				c-33,6-51.5,4.8-51.5,0c0-0.6,0.2-1.2,0.6-1.7c3.5-5,20.3-12.4,45.6-17c12.5-2.3,23.3-3.2,31.6-3.1
				C301.7,363,312.5,364.9,309.6,368.7z" style="fill:#FF9B19;"/>
		</g>
		<path d="M275.6,54.6l-0.7-0.2c-3.6-0.4-5-3.7-4.6-7.3l1.2-36.9c0.4-3.7,2.1-8.4,9.7-8.5l0,0c7.2,0.9,7,7.5,6.6,11.2
			l-5,35.8C282.2,53.2,279.2,55,275.6,54.6z" style="fill:#FF9B19;"/>
		<path d="M196.4,66.7l-0.7,0.2c-3.1,1.6-5.9-0.4-7.5-3.6l-17-29.4c-1.6-3.1-3.6-8.9,2.5-12.8l0,0
			c6.3-3,9.8,1.1,11.4,4.3L199,58.2C201,62.2,199.4,65.2,196.4,66.7z" style="fill:#FF9B19;"/>
		<path d="M160.2,120l-0.1,0.7c0.2,3.4-3,5.2-6.9,5.5l-38.7,4.6c-3.9,0.2-9.1-0.7-10.4-7.8l0,0c-0.2-7,5.5-8.6,9.4-8.8
			l39.4,1.1C157.7,115,160,116.6,160.2,120z" style="fill:#FF9B19;"/>
		<path d="M164.1,191.8l0.2,0.6c1.7,3-0.2,5.9-3.3,7.6l-29.7,19c-3.1,1.7-7.8,2.9-11.9-3.1l0,0
			c-3.2-6.2,0.8-9.9,3.9-11.6l32.3-15C159.4,187.4,162.4,188.8,164.1,191.8z" style="fill:#FF9B19;"/>
		<path d="M342.3,76.1l-0.2-0.6c-1.8-2.8-0.2-5.7,2.6-7.5l27.1-19.7c2.8-1.8,7.2-3.1,11.5,2.4l0,0
			c3.5,5.8-0.1,9.5-2.9,11.3l-29.8,16C347.1,80.1,344.1,78.9,342.3,76.1z" style="fill:#FF9B19;"/>
		<path d="M352.9,150.9l0.2-0.4c0.5-2.3,3.1-3.9,5.9-3.4l29.6,4c2.8,0.6,6.2,1.6,5.1,8.1l0,0c-1.1,4.6-5.5,4.7-8.3,4.1
			l-28.2-7.2C353.7,155.4,352.5,153.2,352.9,150.9z" style="fill:#FF9B19;"/>
		<path d="M201.8,252.8l0.3,0.4c1.8,1.6,2.9,3.9,0.3,7.3l-18.1,20.6c-1.7,1.9-5,4.9-10,0.6l0,0
			c-3.5-3.3-0.6-7.7,1.1-9.6l18.3-17.8C195.7,252,200,251.2,201.8,252.8z" style="fill:#FF9B19;"/>
		<g>
			<path d="M342,372.9c-2-6.8-8.6-4.6-12.1-7.6c-2.6-2.3-1.6-5.2-1.7-9.3c-0.2-10.2-1-20.5-3.8-30.3
				c-5.3-18.8-9.9-30.5-18.6-43.2c-9.5-13.8-22-26.6-37.9-35.3c24.9-24.1,43-42,47.1-82.4c1.1-10.7,1.9-21.4,2.9-32.1
				c0.7-7.5,1.4-15.1,2-22.6c0.3-3.4,0.4-6.9,0.9-10.2c0.6-3.7,2.9-5.8,3.6-9.2c4.3-22-91.5-6.8-104.7-3.6
				c-7,1.7-34.8,6.3-32.6,18.4c0.7,4.2,5.6,4.8,7.1,7.5c1.2,2.1,9.5,67.5,14.4,83c8.2,25.8,22.8,39.2,49.7,52.6
				C235.4,273,214.4,296.9,203,329c-3.8,10.8-6.7,22-8.5,33.4c-0.5,2.9-0.9,5.9-1.2,8.9c-0.2,1.7,0.3,6.5-0.6,7.9
				c-1.6,2.6-7.3,3.5-9.4,6.3c-20.5,25.9,61.9,21.6,71.7,20.6C267.1,404.8,350.2,395.2,342,372.9z M192.4,103.8
				c-1.3-10.3,52.4-16.3,58.9-17.2c15.6-2.1,31.6-3.5,47.3-2.7c2.7,0.1,17.6,0.1,18.3,5.2c0.6,5.1-15.9,9.9-18.8,10.8
				c-14,4.1-28,6.3-42.1,8C249.7,108.6,193.7,114.4,192.4,103.8z M256.8,240.4c-24.1-14.1-40.3-28.7-46.1-56.7
				c-4.7-22.9-7.5-46.5-9.7-69.7c19.3,3.7,40.5,2.3,59.7-0.2c17.8-2.3,37.8-6,54-14.4c-2.6,25.7-0.9,49.3-6.9,78.4
				c-5.8,27.7-22.1,39.5-27,45.1c-3.9,4.4-7.9,8.8-11.9,13c-1.7,1.8-3.8,3.9-5.4,5.8C261.7,243.8,261.1,243,256.8,240.4z
				 M335.3,375.2c-0.3,6.6-13.7,9.7-19.1,11.6c-11.5,4.1-23.6,6.7-35.6,8.7c-23.2,3.9-47.6,6.1-71.2,3.5c-3.1-0.3-19.3-1.4-20.3-5.6
				c-1.1-4.4,6.7-5.2,9.5-7.4c3.9-3.2,2.8-8.1,3.4-13.7c0.6-5,1.5-9.9,2.5-14.8c5.1-24.4,15.2-48.1,29.6-68.4
				c6.5-9.2,13-17.8,20.5-26.2c1.5-1.7,7.9-9.6,9.9-9.6c1.1,0,4.8,2.6,5.5,3.1c8,5.8,15.4,11.3,21.8,18.9
				c15.5,18.4,24.8,42.2,28.4,66c0.8,5.4,1.6,24.1,2.5,26.4C324.2,371.4,335.6,369.8,335.3,375.2z" style="fill:#2568EF;"/>
			<path d="M188.7,392.8L188.7,392.8L188.7,392.8z" style="fill:#2568EF;"/>
		</g>
		<path d="M307.6,179.6c1.5-8-13-8.9-22.8-9.1c-7.9-0.2-18.7,1-30.5,3.4c-10,2-32.8,8.5-39.5,15.9
			c-1.3,1.4-2,2.2-1.8,3.8c0.6,5,8.7,23.6,19.9,32.3c15.4,11.9,29.8,17.8,29.8,17.8s13.6-9.3,27.8-28
			C300.5,202.7,305.5,190.5,307.6,179.6z M218.1,192c3.1-4.8,17.7-10.3,37-14.2c12-2.4,27.3-3.3,34.1-3.3c8.7,0,13.2,1.6,13.6,3.5
			c0,0,0.2,0.8-0.5,1.8c-3.1,4.8-23.7,10.3-43,14.2c-27.6,5.5-40.9,3.3-41.6-0.1C217.6,193.6,217.5,193,218.1,192z" style="fill:#FF9B19;"/>
	</g>
</g>
</svg>
