<svg xmlns="http://www.w3.org/2000/svg" xmlns:xlink="http://www.w3.org/1999/xlink" id="Layer_2_1_" x="0" y="0" version="1.1" viewBox="0 0 600 600" xml:space="preserve" style="enable-background:new 0 0 600 600"><g><g><path d="M436.1,212.1c0.4-22.8-14.7-40.9-41.1-41.2s-12.3-16-12.3-43.8c0-30.2-47.5-36.3-75.1-9.3 c-24.4,23.8-45.6,20-62.5,3.5s-71.9,10.8-86.1,95.5c-14.2,84.7,66.1,95.8,66.1,95.8s127.6,17.9,170-13.1S435.7,234.9,436.1,212.1z" style="fill:#324a58"/><g><path d="M369.8,192c0,0-12.3,15-22.6,13c-5.5-1-6.8-4-6.8-6.6c-1.8,4.5-4.4,7.6-7.7,9.1c-1.6,0.8-3.3,1.1-4.8,1.1 c-4.1,0.2-7.5-1.6-7.7-1.7c-0.4-0.2-0.6-0.8-0.4-1.2s0.8-0.6,1.2-0.4c0.1,0,5.6,2.9,10.8,0.5c3.5-1.6,6-5.2,7.7-10.6 c-3.4,1.8-10.9,5.2-12.2,0.7c-1.8-5.8,3.6-6.8,2.1-15.7c0,0-13.9,5.4-18.5-2.7c-5.1-8.9-2.4-30.5,24.8-34.4c0,0-28.1-9-43.4,11.1 c-15.2,20.2-6.6,46.6,4.8,57.9c11.4,11.3,32,20.9,54.3,11.8C373,215.2,369.8,192,369.8,192z M296.5,178.8L296.5,178.8 c-0.6,0-1-0.5-1-1c0.3-5.4,4.2-7.2,5.5-7.4s1.6,0.2,1.8,0.7c0.2,0.5-0.1,1-0.6,1.2c-0.2,0.1-4.6,1.5-4.9,5.6 C297.4,178.5,297,178.8,296.5,178.8z M310,193.7c-0.8,0.5-2.7,0.8-4.4,0.2c-3.6-1.3-6.1-5.9-6.2-6.1c-0.2-0.5,0-1,0.4-1.2 c0.5-0.2,1,0,1.2,0.4c0,0,2.2,4.3,5.1,5.2c0.9,0.3,1.8,0.1,2.7-0.4c3.1-1.9,0.9-8.2,0.9-8.3c-0.2-0.5,0.1-1,0.5-1.2 c0.5-0.2,1,0.1,1.2,0.5C311.5,183.1,314.4,191,310,193.7z" style="fill:#ff9b19"/></g><path d="M246.6,181.8c-1,0-1.8-0.7-1.7-1.5l0.4-22.9c0-0.8,0.8-1.5,1.8-1.5s1.8,0.7,1.7,1.5l-0.4,22.9 C248.4,181.1,247.6,181.8,246.6,181.8z" style="fill:#ff9b19"/><path d="M245.2,170.5c-2.2,0-4-0.1-4.5-0.2c-0.8-0.2-1.3-1-1.1-1.8s1-1.3,1.8-1.1c0.8,0.1,7.2,0.2,12.9,0.2 c0.8,0,1.5,0.7,1.5,1.5s-0.7,1.5-1.5,1.5C252.1,170.6,248.3,170.6,245.2,170.5z" style="fill:#ff9b19"/><path d="M195.3,201.4L195.3,201.4c-0.8,0-1.5-0.4-1.5-0.9l0.7-22.3c0-0.5,0.7-0.8,1.5-0.8s1.5,0.4,1.5,0.9l-0.7,22.3 C196.8,201,196.2,201.4,195.3,201.4z" style="fill:#ff9b19"/><path d="M204.2,190.7l-16-0.3c-0.8,0-1.4-0.7-1.4-1.4c0-0.8,0.7-1.4,1.4-1.4l16,0.3c0.8,0,1.4,0.7,1.4,1.4 C205.6,190.1,205,190.7,204.2,190.7z" style="fill:#ff9b19"/><path d="M338.7,264.9c-1,0-1.7-0.5-1.7-1.2l0.4-23.2c0-0.6,0.8-1.1,1.8-1.1s1.7,0.5,1.7,1.2l-0.4,23.2 C340.5,264.4,339.7,264.9,338.7,264.9z" style="fill:#ff9b19"/><path d="M354.7,136.5c-0.7,0-1.2-0.6-1.2-1.2l0.3-19c0-0.7,0.6-1.2,1.2-1.2c0.7,0,1.2,0.6,1.2,1.2l-0.3,19 C355.9,136,355.3,136.5,354.7,136.5z" style="fill:#ff9b19"/><path d="M352.6,126.6c-2.3,0-3.7-0.1-4-0.2c-0.6-0.2-1-0.9-0.7-1.5c0.2-0.6,0.9-0.9,1.5-0.8c0.8,0.1,6.1,0.2,10.8,0.1 l0,0c0.7,0,1.2,0.5,1.2,1.2s-0.5,1.2-1.2,1.2C357,126.6,354.5,126.6,352.6,126.6z M349.3,124C349.3,124,349.4,124,349.3,124 C349.4,124,349.4,124,349.3,124z" style="fill:#ff9b19"/><path d="M411.7,220.6L411.7,220.6c-0.6,0-1.1-0.4-1-0.9c0.2-9.4,0.6-23.8,0.4-24.9c-0.1-0.4,0.2-0.9,0.7-1 c0.6-0.1,1.1,0.1,1.3,0.6c0.1,0.2,0.3,0.7-0.4,25.3C412.8,220.2,412.3,220.6,411.7,220.6z" style="fill:#ff9b19"/><path d="M404.9,207.9c-0.7,0-1.3-0.5-1.4-1.2c-0.1-0.8,0.4-1.5,1.2-1.6c0.4-0.1,10.5-1.7,14.7-0.8 c0.8,0.2,1.2,0.9,1.1,1.7c-0.2,0.8-0.9,1.2-1.7,1.1c-3-0.7-10.9,0.3-13.6,0.8C405,207.9,405,207.9,404.9,207.9z" style="fill:#ff9b19"/><circle cx="359.4" cy="174.7" r="3.2" style="fill:#ff9b19"/><path d="M382.8,237.9c-2.8,0-5-2.3-4.9-5.1c0-2.8,2.3-5,5.1-4.9c2.8,0,5,2.3,4.9,5.1 C387.8,235.7,385.5,237.9,382.8,237.9z M382.9,231c-1,0-1.9,0.8-1.9,1.8s0.8,1.9,1.8,1.9s1.9-0.8,1.9-1.8 C384.7,231.9,383.9,231,382.9,231z" style="fill:#ff9b19"/><circle cx="399.1" cy="239.3" r="3" style="fill:#ff9b19"/><circle cx="299.6" cy="234.2" r="2.5" style="fill:#ff9b19"/><path d="M256.1,224.9c-3-0.1-5.3-2.5-5.3-5.5c0.1-3,2.5-5.3,5.5-5.3c3,0.1,5.3,2.5,5.3,5.5 C261.5,222.6,259,224.9,256.1,224.9z M256.2,216.6c-1.6,0-3,1.3-3,2.9c0,1.6,1.3,3,2.9,3c1.6,0,3-1.3,3-2.9 C259.1,217.9,257.8,216.6,256.2,216.6z" style="fill:#ff9b19"/><path d="M205.5,251.3c-4-0.1-7.2-3.4-7.2-7.4c0.1-4,3.4-7.2,7.4-7.2c4,0.1,7.2,3.4,7.2,7.4 C212.9,248.2,209.5,251.4,205.5,251.3z M205.7,239.8c-2.3,0-4.3,1.8-4.3,4.2c0,2.3,1.8,4.3,4.2,4.3c2.3,0,4.3-1.8,4.3-4.2 C209.9,241.8,208,239.8,205.7,239.8z" style="fill:#ff9b19"/><circle cx="221" cy="145.3" r="3.6" style="fill:#ff9b19"/><circle cx="259.9" cy="181" r="2.8" style="fill:#ff9b19"/><circle cx="340.9" cy="120.5" r="2" style="fill:#ff9b19"/><circle cx="207.4" cy="206.7" r="3.2" style="fill:#ff9b19"/><path d="M346.4,252.1l-16.7-0.3c-0.6,0-1.1-0.8-1.1-1.8s0.5-1.8,1.2-1.8l16.7,0.3c0.6,0,1.1,0.8,1.1,1.8 S347,252.1,346.4,252.1z" style="fill:#ff9b19"/><circle cx="312.6" cy="270.4" r="4.6" style="fill:#ff9b19"/></g><g><path d="M143.8,255.6c0,0,42.8,0.1,86.1,21.5s95,25.8,95,25.8s-3.8,5.3,1.5,16.3s10.1,119.4-15.9,138.9 s-79.7,30.4-134.5,31.2S41.9,456.8,41.9,456.8s-7.1-55.7,34.3-124C112,273.8,143.8,255.6,143.8,255.6z" style="fill:#ffe7e6"/><path d="M44.8,436.6c0,0,7.6-9.9,23.8-7.4c16.2,2.4,17.7,16.1,17.7,16.1s-12.9,7.6-22.8,5.9S44.8,436.6,44.8,436.6z" style="fill:#2568ef"/><path d="M89.5,446.2c0,0,8.5-9,24.1-8.8s22.1,14.3,23.9,18.9c0,0-8.4,6.4-24.7,6.2C96.5,462.3,89.5,446.2,89.5,446.2z" style="fill:#2568ef"/><path d="M148.1,449.9c0,0,6.2-7,16.5-6.3c0,0,2.9,19,14.9,24.3C179.4,467.9,153.3,474.4,148.1,449.9z" style="fill:#2568ef"/><circle cx="87.2" cy="445.9" r="5.6" style="fill:#ff564f"/><circle cx="138.2" cy="456.1" r="5.6" style="fill:#ff564f"/></g><g><path d="M318.2,328.5c0,0-9.2-12-1.6-20.8c7.7-8.8,23.3-15.8,23.3-15.8s45.6,8.3,50.4,35s7.7,73.7-1.5,88.3l-1.7,2.1 c0,0-13.9-9.7-25-11.6c0,0,19.6-6.4,22.7-27.9c2.7-18.6-10.5-34.1-32.6-42.2C337,330,318.2,328.5,318.2,328.5z" style="fill:#ff564f"/><path d="M358.5,407.1c0,0,13.4,1.8,26.4,11.7l-22.1,40.3c0,0-14,8.2-53.2-0.9S247,434.1,247,434.1l18.9-4.7 c0,0,42.2,13,50.9,12l-1-2.2c0,0-12.7-0.3-45.4-10.6l24.7-5.3c0,0,12.5,3.1,19.6,2.8l0.7-1.7c0,0-9.2,0.1-15.8-1.8 C299.5,422.6,338.1,416.7,358.5,407.1z" style="fill:#ff564f"/><path d="M380.5,367.7c-1.4-16.6-21.6-29.2-46.1-34s-39.4-4.5-39.4-4.5c8.1-8.3-4.8-16.5-7.2-18.8 c-2.4-2.3-33.2-17.8-43.6-6.9c-13.7,14.4,10.8,28.8,10.8,28.8l-79.7,1.3l-3.1,55l30.4,53.2c0,0,48-12.8,81.6-19.8 c13.1-2.7,24.1-4.7,34.3-6.7c2.9-1.7,5.6-1.4,5.8-1.4c0.1,0,0.2,0,0.3,0.1c9.4-2.1,18.2-4.4,27.5-7.9 C373.3,398.3,381.9,384.3,380.5,367.7z M250.4,313.8c-0.3-2.1,0.2-3.7,1.4-4.8c2.1-1.9,5.6-1.1,6-1c0.7,0.2,1.2,0.9,1,1.6 s-0.9,1.2-1.6,1c-0.6-0.2-2.7-0.4-3.6,0.4c-0.5,0.4-0.7,1.3-0.5,2.4c0.5,3.7,5.5,9.3,12.5,12.2c-1.5-1.3-2.9-3-3.3-4.8 c-0.3-1.5,0.1-3,1.2-4.3c4.8-5.6,13.2-0.3,13.5,0c0.6,0.4,0.8,1.2,0.4,1.9c-0.4,0.6-1.2,0.8-1.9,0.4c-0.1,0-6.7-4.3-10-0.5 c-0.6,0.7-0.8,1.3-0.6,2c0.5,2.4,3.9,6.8,12.2,7.2c0.7,0,1.4,0.5,1.5,1.2s-0.5,1.4-1.2,1.5c-1.1,0.1-2.1,0.2-3.2,0.1 C261.3,330.1,251.2,320,250.4,313.8z M225.4,383c-0.7,0-1.3-0.7-1.3-1.4c0-0.7,0.7-1.3,1.4-1.3c13.1,0.8,27-3.3,31.7-5.4 c2.9-1.3,7.1-5.5,7.5-10c0.3-3.1-1.2-5.9-4.5-8.3c-10.2-7.5-37.1-0.5-37.4-0.4c-0.7,0.2-1.5-0.2-1.6-1c-0.2-0.7,0.2-1.5,1-1.6 c1.2-0.3,28.5-7.4,39.7,0.9c5.1,3.8,6.8,7.9,6.5,10.7c-0.6,5.7-4.1,9.5-10.1,12.2c-5.4,2.4-18,6-30.3,5.8 C227.2,383.1,226.3,383.1,225.4,383z M276.1,410.4c-2.7,8.3-9.2,10-15.1,11.3c-5.4,1.2-18.1,2.9-27.7,3.4h-0.1 c-0.7,0-1.3-0.6-1.3-1.3c0-0.7,0.5-1.4,1.3-1.4c9.4-0.5,21.9-2.1,27.2-3.3c5.6-1.2,12.1-3.1,13.1-10.4c0.2-1.5,0.1-2.7-0.7-3.9 c-2.2-3-8.2-5.2-16.4-5.9c-11.4-1-26,2.8-26.1,2.9c-0.7,0.2-1.5-0.2-1.6-0.9c-0.2-0.7,0.2-1.5,1-1.6c0.6-0.2,15.2-4,27.1-3 c9.2,0.8,15.7,3.3,18.4,7C276.2,405.1,276.8,408.2,276.1,410.4z M294.3,409.5c-0.3,0-0.5,0-0.8,0c-1.4,0-2.7-0.5-3.7-1.5 c-3.3-3.1-3.4-10-3.4-12.3c-3.6-3-16.1-3.6-20.8-3.6c-0.7,0-1.3-0.6-1.4-1.3c0-0.7,0.6-1.3,1.3-1.4c1.9,0,18.7,0,23.1,4.8 c0.2,0.3,0.4,0.6,0.4,1c-0.1,2.2,0.1,8.6,2.5,10.8c0.6,0.6,1.4,0.8,2.3,0.8c4.8-0.5,6.6-12.7,6.9-16.9c0-0.7,0.7-1.3,1.4-1.3 c0.7,0,1.3,0.7,1.3,1.4C303.5,391.9,302.2,408.7,294.3,409.5z M316.2,401.7c-0.2,0.1-0.5,0.2-0.7,0.2c-0.5,0-0.9-0.3-1.1-0.7 c-0.4-0.6-0.1-1.5,0.5-1.8c0.1-0.1,10.9-6.3,10.9-17.8c0-14.4-9.6-23-27.8-24.7c-0.7-0.1-1.3-0.7-1.2-1.5c0.1-0.7,0.7-1.3,1.5-1.2 c25,2.3,30.2,16.1,30.2,27.3C328.4,394.6,316.7,401.4,316.2,401.7z" style="fill:#ff564f"/><path d="M137.1,407.6c0,0-41-37.7-13.9-79.7s114-77.7,114-77.7s-1.3,13.6,9.2,14.7c10.5,1.1,19.2,3.2,18.3,19.7 s3.1,17.4,3.1,17.4s-15.2-5.8-23.2,2s-2,17.5,0.8,20.3c2.8,2.9,13.2,10,13.2,10s-49.4,1.1-65.4,7.3c0,0,5.1,9.4-6.6,23.5 c-11.7,14.2,8.7,28,11.9,30.3s12.2,12.9,4.5,26s7,18.3,7,18.3l33.6-8.4c0,0,27.2,13.8,34.3,16c0,0-0.3,9-16.3,16.2 c-15.2,6.9-12.6,29.2-12.6,29.2s-13.7-23-39.4-20.8c-17.2,1.5-38.8,11.8-62.3-6.9C123.8,446.5,123.1,432.5,137.1,407.6z" style="fill:#324a58"/><path d="M197.7,378.2c3.4,0.6,5.3-7.4,6.7-11.7c1.7-5.4,2.1-17.3-5.2-4.3C191.3,376.3,197.7,378.2,197.7,378.2z" style="fill:#324a58"/><path d="M210.4,416.5c4.3-2.5,7.9,3.9,9.6,6.6c1.7,2.7,6.8,17.5-4.9,4.2C209.3,420.8,207.9,418,210.4,416.5z" style="fill:#324a58"/></g><g><path d="M184.1,540c-1.8,0.3-3.2,0-4.3-1c-2.9-2.7,0.3-9.5,3.4-14.6l0.1-0.1c5.3-7.2,9.2-15.3,8.2-16.9 c-1.3-1.1-10.2,0.2-18.2,2.8c-1.3,0.4-2.8-0.2-3.2-1.3c-0.5-1.2,0.2-2.4,1.5-2.9c6.2-2,20.9-6,24.3-0.9c3.2,4.8-4.7,16.6-8.3,21.6 c-2,3.3-3.6,7.1-3.9,8.9c0.2-0.1,0.4-0.1,0.6-0.2c8.9-3.7,14.2-6.2,15.7-5.2c1.4,1,0.2,2.2-0.9,3c-0.3,0.2-3,2.3-12.6,6.2 C185.6,539.6,184.8,539.9,184.1,540z" style="fill:#324a58"/></g><g><path d="M198.4,521.8c-0.4,0.1-0.9,0.1-1.3-0.1c-3.6-1-11.4,0.6-15.1,1.5c-0.9,0.2-1.6,0.3-2.2,0.5 c-1.4,0.3-2.7-0.5-3-1.7s0.6-2.4,1.9-2.7c0.5-0.1,1.2-0.2,2-0.4c4.9-1,13-2.8,17.9-1.4c1.3,0.4,2,1.7,1.6,2.8 C200,521.1,199.3,521.6,198.4,521.8z" style="fill:#324a58"/></g><ellipse cx="213.7" cy="518.7" rx="3.2" ry="2.8" style="fill:#324a58"/><ellipse cx="264.9" cy="518.1" rx="3.2" ry="2.8" style="fill:#324a58"/><ellipse cx="315.7" cy="513.7" rx="3.2" ry="2.8" style="fill:#324a58"/><g><path d="M240.1,532.4c-1.2,0.2-2.4,0.1-3.5-0.6c-3-1.9-1.9-6.3,3.1-13.5c1.9-2.8,2.6-5,1.9-6.1 c-1.2-1.7-11-1.7-11-3.6c0-1.2,0.8-2.3,2.2-2.5c1-0.1,9.8-0.9,13.1,3.7c1.9,2.7,1.3,6.3-1.8,10.8c-2.5,3.6-3.4,5.7-3.8,6.9 c1.5,0.6,4.3-0.7,6.8-3.3c0.9-0.9,2.5-1.1,3.6-0.3s1.2,2.2,0.3,3.2C248.5,529.7,243.6,531.8,240.1,532.4z" style="fill:#324a58"/></g><g><path d="M249.6,518.6c-0.4,0.1-7.9,1.3-12.9,2.5c-3.5,0.9-4.6,0-4.9-1.1c-0.4-1.1,0.4-2,3.6-2.9 c3.3-0.9,8.6-1.9,12.7-1.7c1.4,0,4-0.2,3.9,1.9C252,518.1,250.4,518.5,249.6,518.6z" style="fill:#324a58"/></g><g><path d="M299.1,529.8c-1.9,0.4-4.1,0.4-6.7-0.1c-2.9-0.6-4.8-1.8-5.8-3.5c-1.8-3.5,0.9-7.9,3.8-12.5 c1-1.7,2.1-3.4,2.9-5c0.4-0.8,0.4-1.2,0.3-1.3c-0.9-1-6.1-1.2-11-0.3c-1.4,0.2-2.7-0.6-3-1.8c-0.3-1.2,0.6-2.4,2-2.6 c2.9-0.5,12.5-1.8,15.9,2c1,1.1,1.8,3,0.3,5.9c-0.9,1.8-2,3.6-3.1,5.3c-1.8,3-4.4,7.1-3.6,8.5c0.3,0.6,1.5,0.9,2.2,1 c7.2,1.4,9-2.7,9.1-2.9c0.5-1.2,1.9-1.7,3.3-1.3c1.3,0.4,2,1.7,1.5,2.9C306.4,526,303.8,528.9,299.1,529.8z" style="fill:#324a58"/></g><g><path d="M300.8,516.1c-8.9-1.3-18.1,2.7-18.2,2.7c-1.3,0.4-2.8-0.2-3.2-1.3c-0.5-1.2,0.2-2.4,1.5-2.9 c0.4-0.1,6.6-3.2,16.8-2.4c2.9,0.2,6,1.6,5.8,2.8C303.4,516,302.9,516.4,300.8,516.1z" style="fill:#324a58"/></g><g><path d="M329.5,294.6c0,0,47.2-42.4,113.8-38.8c66.7,3.6,86.9,25.7,116.2,48.2c0,0-46.9,79.8-11.2,109.3 s0.8,100.4-50.7,77.3c-31.9-14.3-60.8-16.7-108-0.6c-29.7,10.1-51.7,36-51.7,36s-6.2-35.9,37.2-96 C420.5,367.2,351.2,292.4,329.5,294.6z" style="fill:#ffe7e6"/><path d="M536.8,362.3c5.8-29.4,22.7-58.3,22.7-58.3c-13.6-10.4-25.3-20.8-40.5-29.3c-16.5,8.3-44.3,24.9-57.8,47.2 C461.2,322,507.9,327.6,536.8,362.3z" style="fill:#2568ef"/><g><path d="M534.9,379.4c-36.1-38.3-98.5-43.1-99.1-43.1c-0.7,0-1.3-0.4-1.7-1c-0.4-0.6-0.4-1.3,0-1.9 c19.6-37.4,46.7-57.3,65.7-67.3l5.1,1.9c-19,10.1-46.9,29.8-65.8,64.4c13.1,1,63.9,7,96.2,41.3L534.9,379.4z" style="fill:#ff564f"/></g></g><g><g><ellipse cx="439.4" cy="513.6" rx="52.4" ry="25.2" transform="matrix(0.9996 -2.724324e-02 2.724324e-02 0.9996 -13.8286 12.161)" style="fill:#ff9b19"/><path d="M439.9,542.8c-18,0.5-33.9-3.4-43.5-9.8c0.1,0.5,0.1,1.1,0.2,1.8c1.8,15.5,20.3,27.8,44.5,27.2 c24.1-0.7,43.4-13.9,43-29.5c0-1.1-0.1-1.8-0.1-2.6C474.9,537.1,458.6,542.3,439.9,542.8z" style="fill:#ff9b19"/><g><path d="M434.3,521.4c-17.5-0.3-26.2-5.9-27.4-17.3c0-0.1,0-0.3,0-0.4L412,414c0.1-1.2,1-2.2,2.2-2.3 c1.2-0.1,2.4,0.6,2.7,1.8l9.9,36.8l13.1-49.6c0.3-1.1,1.3-1.9,2.5-1.9c0,0,0,0,0.1,0c1.2,0.1,2.2,0.9,2.4,2.1l8.2,48.8l14.9-48 c0.4-1.2,1.5-1.9,2.7-1.7c1.2,0.2,2.1,1.2,2.2,2.4l2.7,102.6c0,0.4-0.1,0.8-0.2,1.1c-0.3,0.5-6.6,13.5-31.9,15.2 C440.1,521.4,437.1,521.5,434.3,521.4z M411.9,503.8c0.5,4.5,1.9,14.4,31.1,12.4c19.7-1.3,26.2-9.8,27.4-11.9l-2.3-86.8 l-13.5,43.6c-0.3,1.1-1.4,1.8-2.6,1.8c-1.2-0.1-2.1-0.9-2.3-2.1l-8-47.7l-12.5,47.4c-0.3,1.1-1.3,1.9-2.4,1.9c0,0,0,0-0.1,0 c-1.1,0-2.1-0.8-2.4-1.8l-8.3-30.9L411.9,503.8z" style="fill:#2568ef"/></g><g><path d="M411.1,404.7c-2.2,0-4.2-0.9-6-2.4c-2.1-1.8-3.5-4.4-4-7.3c-1-6.1,2.6-11.8,8-12.7c2.7-0.4,5.4,0.4,7.6,2.3 c2.1,1.8,3.5,4.4,4,7.3s-0.1,5.8-1.5,8.1c-1.5,2.5-3.8,4.1-6.5,4.5C412.2,404.7,411.7,404.7,411.1,404.7z M410.6,387.3 c-0.2,0-0.5,0-0.7,0c-2.7,0.4-4.4,3.5-3.9,6.9c0.3,1.7,1.1,3.2,2.3,4.2c1.1,0.9,2.3,1.3,3.6,1.1c1.2-0.2,2.3-1,3-2.2 c0.8-1.3,1.1-3,0.8-4.7c-0.3-1.7-1.1-3.2-2.3-4.2C412.7,387.7,411.7,387.3,410.6,387.3z" style="fill:#2568ef"/></g><g><path d="M441.7,389.9c-0.6,0-1.1-0.1-1.7-0.2c-6-1.2-9.9-7.7-8.6-14.6s7.3-11.6,13.3-10.4l0,0 c6,1.1,9.9,7.7,8.6,14.6C452.1,385.6,447.1,390,441.7,389.9z M443,369.5c-3-0.1-5.9,2.7-6.6,6.5c-0.8,4.2,1.3,8.1,4.6,8.8 c3.3,0.6,6.7-2.3,7.5-6.5s-1.3-8.1-4.6-8.8C443.6,369.6,443.3,369.6,443,369.5z" style="fill:#2568ef"/></g></g><g><path d="M474.2,395.1c-0.8,0-1.6-0.1-2.4-0.3c-2.9-0.8-5.2-2.8-6.5-5.6c-1.3-2.7-1.6-5.9-0.7-9 c1.8-6.5,7.9-10.5,13.7-8.9c2.9,0.8,5.2,2.8,6.5,5.6c1.3,2.7,1.6,5.9,0.7,9c-0.8,3.1-2.7,5.7-5.2,7.4 C478.4,394.5,476.3,395.2,474.2,395.1z M475.7,376c-2.7,0-5.4,2.2-6.3,5.6c-0.5,1.9-0.4,3.9,0.4,5.5c0.7,1.5,1.9,2.6,3.4,3 c1.4,0.4,3,0.1,4.4-0.8c1.5-1,2.6-2.6,3.1-4.5s0.4-3.9-0.4-5.5c-0.7-1.5-1.9-2.6-3.4-3C476.5,376,476.1,376,475.7,376z" style="fill:#2568ef"/></g></g></g></svg>