<?xml version="1.0" encoding="utf-8"?>
<!-- Generator: Adobe Illustrator 22.0.1, SVG Export Plug-In . SVG Version: 6.00 Build 0)  -->
<svg version="1.1" id="Layer_2_1_" xmlns="http://www.w3.org/2000/svg" xmlns:xlink="http://www.w3.org/1999/xlink" x="0px" y="0px" viewBox="0 0 600 600" style="enable-background:new 0 0 600 600;" xml:space="preserve">

<g id="Layer_3">
</g>
<g>
	<ellipse transform="matrix(0.866 -0.5 0.5 0.866 -207.911 310.1207)" cx="474.7" cy="543" rx="66.6" ry="51.8" style="fill:#FFE7E6;"/>
	<g>
		<path d="M352.3,459.8c0.1-4.9,0.7-10.5,2.3-16.3c-5.9-1.6-32-8.4-44.7-10.1c-14.4-1.9-49.3-7.8-51.8-4
			c-2.5,3.8-4.7,7.5,8.8,12.7c13.5,5.2,61.2,16.5,61.2,16.5S340.4,458.1,352.3,459.8z" style="fill:#FF564F;"/>
		<path d="M284.6,411.9c10.4,8.2,62.6,25.7,70.9,28.5c1.9-5.4,4.7-9.6,7.9-12.8c-8.3-4-51.3-24.7-68.6-28.7
			C275.7,394.5,273.3,403,284.6,411.9z" style="fill:#FF564F;"/>
		<path d="M485.5,520.8c-3.8-14.2-9.4-39.2-20.5-53.2c-15-18.9-59.7-42.1-59.7-42.1l-72.9-44.6l-15.1,8.8
			c0,0,38.5,30.2,49.1,35.1c6.7-5.4,13.5-7,14-7.1c0.8-0.2,1.6,0.3,1.8,1.1c0.2,0.8-0.3,1.6-1.1,1.8c-0.2,0-15.5,4.2-21,21.4
			c-5.6,17.6-3,34.2-2.9,34.3c0.2,0.8-0.2,1.6-1,1.9c-0.1,0-0.3,0.1-0.4,0.1c-0.7,0-1.2-0.4-1.4-1.1c-0.1-0.4-1.8-6.3-2-14.8
			c-2.8-0.4-16.5-2-24.4-0.7c-8.8,1.5-53.3,1.2-53.9,11.9s18.4,7.5,32.2,7.7c13.8,0.1,43.6,3.1,69.2,13.2
			c25.6,10.2,39,17.1,57.8,33.6s14.9,23.7,29,22.3C476.5,549,487.5,528.2,485.5,520.8z M428.7,466.8c-0.3,0.3-0.7,0.4-1,0.4
			c-0.4,0-0.8-0.2-1.1-0.5c-12.9-14-12-28-12-28.6c0.1-0.8,0.8-1.4,1.6-1.4c0.8,0.1,1.4,0.8,1.4,1.6c0,0.2-0.7,13.3,11.2,26.3
			C429.4,465.3,429.4,466.3,428.7,466.8z" style="fill:#FF564F;"/>
	</g>
	<polygon points="498,498 516.2,479.3 516.2,502.8 	" style="fill:#2568EF;"/>
	<polygon points="498,571.5 505.3,550.4 534.4,565 	" style="fill:#2568EF;"/>
	<polygon points="439,571.2 460.9,575.7 439.4,600.1 	" style="fill:#2568EF;"/>
	<polygon points="427.7,554.1 425.1,534.8 402.6,540.3 	" style="fill:#2568EF;"/>
	<path d="M240.8,217.7" style="fill:none;stroke:#FFFFFF;stroke-width:3;stroke-linecap:round;stroke-linejoin:round;stroke-miterlimit:10;"/>
	<path d="M243.3,231.9" style="fill:none;stroke:#FFFFFF;stroke-width:3;stroke-linecap:round;stroke-linejoin:round;stroke-miterlimit:10;"/>
	<path d="M279.1,176.7c-0.5-0.7-0.4-1.6,0.3-2.1c0.7-0.5,1.6-0.4,2.1,0.3c0.2,0.3,10.7,14.3,26,31.9
		c12.5-3.6,25.3-7,37-9.8c-1.8-2.2-3.7-4.4-5.6-6.6c-19.9-24-34.8-45.4-35-45.6c-0.5-0.7-0.3-1.6,0.4-2.1c0.7-0.5,1.6-0.3,2.1,0.4
		c0.3,0.5,18.3,26.2,41.4,53.1c16.1-3.9,29.6-6.8,36.2-8.1c-31.5-32.4-52.9-73.6-54.4-76.1c-0.4-0.7-0.2-1.6,0.5-2.1
		c0.7-0.4,1.6-0.2,2.1,0.5c0.1,0.2,11.7,21.6,30.2,46.7c8,10.8,40.8,54.6,52.2,41.5c7-8,2.4-27.4-1-38.6c-8.3-9-16.9-19.6-25.9-32
		c-19.2-26.3-32.9-50.8-33-51.1c-0.4-0.7-0.1-1.6,0.6-2c0.7-0.4,1.6-0.2,2,0.6c20.9,39,58.4,82,58.4,82
		c26.1,26.4,43.8,40.6,43.8,11.9s-34.7-79.7-45.6-96.5C393.3,41.3,343.5-9.4,272.4,10c-71,19.4-78.1,125.1-78.4,136.6
		c-0.3,11.5-6,10.7-10.1,9c-4.1-1.6-1.9-7.4-0.3-12.8c1.6-5.5,12.3-27-11.5-43.4c-23.8-16.4-50,13.4-50,13.4l-16.7-1.4l10.4,13.1
		l-15.6-1.4c0,0,8,7.2,10.9,9.3c30.7,22.7-20.5,42.9-25.7,84.7c-5.2,41.8,45.4,76.8,45.4,76.8c8.6-6.3,15.6-10.6,26.7-18.9l-3-9.4
		c-0.2-0.8,0.2-1.6,1-1.9c0.8-0.2,1.6,0.2,1.9,1l2.7,8.7c10.4-6.4,22.1-13.4,33.5-20.2c4.8-2.9,10-5.7,15.2-8.4l-2.4-11.5
		c-0.2-0.8,0.4-1.6,1.2-1.8c0.8-0.2,1.6,0.4,1.8,1.2l2.2,10.7c22.4-11.3,45.4-20,45.4-20s-17.5-25.1-12.8-28.7
		c4.6-3.6,9.6-0.3,16.9,6.6c7.3,6.8,16.2,15.3,16.2,15.3c8.2-3.1,17.4-6.1,27-8.9C289.4,190.4,279.2,176.8,279.1,176.7z
		 M159.1,134.3c-3.8,0-6.9-3.1-6.9-6.9c0-3.8,3.1-6.9,6.9-6.9s6.9,3.1,6.9,6.9C166,131.2,162.9,134.3,159.1,134.3z M173,123.2
		l-5.7-11.4c-0.4-0.7-0.1-1.6,0.7-2c0.7-0.4,1.6-0.1,2,0.7l6.7,10.4C177.7,123.1,174.4,125.9,173,123.2z" style="fill:#FF564F;"/>
	<circle cx="158.9" cy="127.5" r="2.9" style="fill:#324A58;"/>
	<path d="M167.6,91.5l12.9-16.7c0.6-0.7,1.6-0.9,2.4-0.3l12.8,10c0.7,0.5,0.8,1.4,0.4,2.2l-11,19.3
		c-0.5,0.9-1.8,1.1-2.6,0.4l-14.7-12.5C167.1,93.2,167,92.2,167.6,91.5z" style="fill:#2568EF;"/>
	<path d="M537.1,417.6c2.3-4.7-7.4-8.5-34.7-21.1c-27.2-12.6-36.1-17.1-38.4-13.6c-2.3,3.5,10.9,9.3,33,20.4
		S533.4,425.3,537.1,417.6z" style="fill:#FF9B19;"/>
	<path d="M454.4,397.8c3.6-3.8,11.8,2.7,23.7,9.5s21.1,10.9,18,15.5c-3.1,4.5-10.7-1.2-24.4-9.3
		C458.1,405.5,450.9,401.5,454.4,397.8z" style="fill:#FF9B19;"/>
	<path d="M224.4,494.4c4.8-4.2,13.4,10.8,38.9,47c25.6,36.2,31,41.9,25.6,46.5c-5.4,4.6-10.9-1.8-35.5-41.9
		S219.4,498.8,224.4,494.4z" style="fill:#FF9B19;"/>
	<path d="M275.1,526.2c4.8-3.9,11,4.8,11,4.8s7.6,9.1,4.8,12c-3.3,3.5-6.8,2.5-13.2-5.3
		C271.2,529.9,275.1,526.2,275.1,526.2z" style="fill:#FF9B19;"/>
	<path d="M184.3,105.6c-0.4-0.3-22.4-18.3-30-22.9c-7.6-4.6-8.8-0.9-5.2,2.5c3.5,3.3,28.8,21.3,32.7,23.3
		C185.7,110.4,187.7,108.4,184.3,105.6z" style="fill:#324A58;"/>
	<g>
		<path d="M279.5,333.2c69.7,3,128.4,15.1,168.7,34.3l-62.6-173.9c-21.3,22.5-66.1,71.9-117.4,139.2
			C272.1,332.9,275.8,333.1,279.5,333.2z" style="fill:#2568EF;"/>
		<path d="M262,332.7c0.1-0.1,0.2-0.3,0.3-0.4c53.6-70.6,100.5-121.9,121.3-143.9l-0.5-0.4c0,0-95.1,17.7-164.1,51.1
			c-68.4,33.1-144.8,99.1-144.8,99.1c0.5,1.2,1.1,2.4,1.7,3.8C106.6,339.1,194.8,331.6,262,332.7z" style="fill:#2568EF;"/>
		<path d="M279.3,338.2c-4.8-0.2-9.7-0.4-14.8-0.5c-56.2,74.9-77.9,146.6-84.4,172.5c6.8-5.3,66.5-51.5,119.9-85.8
			c51.5-33.1,133.1-49,147.7-51.6C408.1,353.4,349.3,341.2,279.3,338.2z" style="fill:#2568EF;"/>
		<path d="M78.5,346.7c20.9,41.2,82.6,136,97.6,159c7.5-28.5,29.4-96.6,82.2-168C193.2,336.9,110,343.8,78.5,346.7z" style="fill:#2568EF;"/>
	</g>
	<path d="M426.5,366.9c-0.2,14.6,3.2,36.4,15.6,54.8c12.4,18.4,30.8,59.1,30.8,59.1s-20.2,15.3-33.9-3.6
		c-13.8-18.9-27.6-49.5-29.4-76.2c-1.3-19.3-3.8-39,5.6-44.9C424.9,350.1,426.6,363.6,426.5,366.9z" style="fill:#FF564F;"/>
	<g>
		<path d="M169.8,290.5c-0.5,0-1-0.1-1.6-0.3c-5.6-1.8-10.2-13.9-10.6-15.2l2.8-1.7c1.4,4.5,5.6,13.1,8.8,14.1
			c0.7,0.2,1.3,0.1,2-0.4c4.8-3.5,4.6-14.2,4.1-18c-0.1-0.8,0.4-1.5,1.1-1.6c0.7-0.2,1.5,0.2,1.8,0.9c0.8,1.9,3.4,7.2,6.6,8.4
			c1,0.4,2,0.3,3-0.3c3.3-1.8,3.4-11.4,2.7-17.1c-0.1-0.8,0.5-1.6,1.3-1.7c0.8-0.1,1.6,0.5,1.7,1.3c0.2,1.7,1.9,16.8-4.2,20.1
			c-1.8,1-3.6,1.1-5.5,0.4c-2.1-0.8-3.9-2.6-5.3-4.5c-0.2,4.9-1.3,11.3-5.5,14.4C172,290.1,170.9,290.5,169.8,290.5z" style="fill:#FF564F;"/>
	</g>
	<g>
		<path d="M219.8,259.8c-1,0-2.1-0.3-3-0.9c-5.1-3.1-7.7-13.6-7.9-14.7l2.8-1.3c0.7,2.9,3.3,11.4,6.7,13.5
			c0.7,0.4,1.4,0.6,2.1,0.4c7.1-1.7,6-13.4,5.9-13.5c-0.1-0.8,0.4-1.5,1.2-1.6c0.8-0.1,1.5,0.3,1.7,1.1c0,0,1.3,4.5,4.4,6.1
			c1.3,0.7,2.8,0.8,4.5,0.2c4.3-1.4,2.8-12.3,2.6-16.4c-0.1-2.1,2.8-2.8,3-0.3c0.3,5.7,2,17.4-4.7,19.6c-2.5,0.8-4.7,0.7-6.8-0.4
			c-1.3-0.7-2.3-1.6-3.1-2.6c-0.6,4.3-2.5,9.5-8.1,10.9C220.7,259.8,220.3,259.8,219.8,259.8z" style="fill:#FF564F;"/>
	</g>
	
		<ellipse transform="matrix(0.9483 -0.3174 0.3174 0.9483 -88.9169 100.6606)" cx="264.5" cy="323.3" rx="52.7" ry="55.1" style="fill:#324A58;"/>
	<g>
		<path d="M256.1,368.7c-0.5,0-1-0.3-1.2-0.8l-15.6-44.1c-0.2-0.5,0-1.1,0.5-1.5c0.5-0.3,1.1-0.3,1.5,0.1l21.5,19.2
			l-11.2-38.4c-0.2-0.6,0.1-1.1,0.6-1.4s1.1-0.2,1.5,0.2l24.6,26.3l-2.8-28.1c-0.1-0.6,0.3-1.1,0.8-1.3c0.5-0.2,1.1-0.1,1.4,0.4
			l30.9,39.2c0.4,0.5,0.3,1.3-0.2,1.8c-0.5,0.4-1.3,0.3-1.8-0.2l-28.3-35.9l2.7,27.5c0.1,0.5-0.2,1-0.7,1.3
			c-0.5,0.2-1.1,0.1-1.4-0.3l-23.5-25.2l10.9,37.5c0.2,0.5-0.1,1.1-0.5,1.4c-0.5,0.3-1.1,0.2-1.5-0.1l-21.2-18.8l14,39.6
			c0.2,0.7-0.1,1.4-0.8,1.6C256.4,368.6,256.3,368.7,256.1,368.7z" style="fill:#FFFFFF;"/>
	</g>
	<g>
		<path d="M271.2,294.7c-2.4,0-4.8-1.3-6.1-3.5c-0.9-1.6-1.2-3.5-0.7-5.3s1.7-3.3,3.3-4.3c1.6-0.9,3.5-1.2,5.3-0.7
			c1.8,0.5,3.3,1.7,4.3,3.3c1.9,3.4,0.8,7.7-2.6,9.6C273.6,294.4,272.4,294.7,271.2,294.7z M271.2,283.1c-0.8,0-1.6,0.2-2.3,0.6
			c-1.1,0.6-1.8,1.6-2.1,2.8c-0.3,1.2-0.2,2.4,0.5,3.4c1.3,2.2,4,2.9,6.2,1.7c2.2-1.3,2.9-4,1.7-6.2c-0.6-1.1-1.6-1.8-2.8-2.1
			C272,283.1,271.6,283.1,271.2,283.1z" style="fill:#FFFFFF;"/>
	</g>
	<g>
		<path d="M246.4,298c-0.6,0-1.2-0.1-1.8-0.2c-1.8-0.5-3.3-1.7-4.3-3.3c-0.9-1.6-1.2-3.5-0.7-5.3s1.7-3.3,3.3-4.3
			c1.6-0.9,3.5-1.2,5.3-0.7c1.8,0.5,3.3,1.7,4.3,3.3l0,0c0.9,1.6,1.2,3.5,0.7,5.3c-0.5,1.8-1.7,3.3-3.3,4.3
			C248.8,297.6,247.6,298,246.4,298z M246.4,286.4c-0.8,0-1.6,0.2-2.3,0.6c-1.1,0.6-1.8,1.6-2.1,2.8c-0.3,1.2-0.2,2.4,0.5,3.4
			c1.3,2.2,4,2.9,6.2,1.7c1.1-0.6,1.8-1.6,2.1-2.8c0.3-1.2,0.2-2.4-0.5-3.4l0,0c-0.6-1.1-1.6-1.8-2.8-2.1
			C247.1,286.4,246.7,286.4,246.4,286.4z" style="fill:#FFFFFF;"/>
	</g>
	<g>
		<path d="M233.3,320.9c-0.6,0-1.2-0.1-1.8-0.2c-1.8-0.5-3.3-1.7-4.3-3.3c-1.9-3.4-0.8-7.7,2.6-9.6
			c1.6-0.9,3.5-1.2,5.3-0.7c1.8,0.5,3.3,1.7,4.3,3.3s1.2,3.5,0.7,5.3s-1.7,3.3-3.3,4.3C235.7,320.6,234.5,320.9,233.3,320.9z
			 M233.3,309.3c-0.8,0-1.6,0.2-2.3,0.6c-2.2,1.3-2.9,4-1.7,6.2c0.6,1.1,1.6,1.8,2.8,2.1c1.2,0.3,2.4,0.2,3.4-0.5
			c1.1-0.6,1.8-1.6,2.1-2.8c0.3-1.2,0.2-2.4-0.5-3.4l0,0c-0.6-1.1-1.6-1.8-2.8-2.1C234.1,309.4,233.7,309.3,233.3,309.3z" style="fill:#FFFFFF;"/>
	</g>
	<path d="M382,224.8c0,0,84.4,10.4,108,13.6c15.4,2,21.2,3.4,22.2-2.7c1-5.9-3-6.6-20.1-8.4c-17.1-1.7-34.7-2.9-54-4.4
		c-19.3-1.4-54.7-3.6-56.4-3.6C378,219.3,377.7,223.8,382,224.8z" style="fill:#FF9B19;"/>
	<path d="M210.5,441.8c5-4.7,8.8,6,34.3,37.6c21.9,27.1,29.2,33.1,24,37.6c-5.2,4.4-9.6-0.1-31.9-33.2
		C214.7,450.7,207,445,210.5,441.8z" style="fill:#FF9B19;"/>
</g>
</svg>
