<?xml version="1.0" encoding="utf-8"?>
<!-- Generator: Adobe Illustrator 23.0.6, SVG Export Plug-In . SVG Version: 6.00 Build 0)  -->
<svg version="1.1" id="Layer_2_1_" xmlns="http://www.w3.org/2000/svg" xmlns:xlink="http://www.w3.org/1999/xlink" x="0px" y="0px" viewBox="0 0 600 600" style="enable-background:new 0 0 600 600;" xml:space="preserve">

<g id="Layer_3">
</g>
<g>
	<g>
		<path d="M304.7,448.4c-21.3-0.3-38.7,7.6-38.9,17.5s17,18.3,38.4,18.6s38.7-7.6,38.9-17.5
			C343.2,457,326,448.7,304.7,448.4z M309,473.4c-2.5-1.6-3.6-5.5-6.1-7.1c-0.6-0.4-1.1-0.9-1.3-1.4c-0.9,0.3-2.1,0.1-2.9-0.4
			l-0.1-0.1c-1.2-0.6-5.7-1.2-5.7-2.7c0,0,9-5.1,8.3-5.1c-1.5,0,1.9,1.5,2.6,2.8c0.9-0.3,1.8-0.2,2.9,0.4c2.6,1.5,6,1,8.6,2.7
			C319.2,465.2,313,476,309,473.4z" style="fill:#324A58;"/>
		<g>
			<path d="M269.3,466.2c-0.8,0-1.5-0.5-1.9-1.2L248,417.8c-0.4-1,0.1-2.2,1.1-2.6s2.2,0.1,2.6,1.1l19.4,47.2
				c0.4,1-0.1,2.2-1.1,2.6C269.8,466.2,269.5,466.2,269.3,466.2z" style="fill:#324A58;"/>
		</g>
		<g>
			<path d="M275.6,456.8c-0.4,0-0.8-0.3-1-0.7l-7.2-24.8c-0.2-0.5,0.2-1.1,0.7-1.2c0.5-0.2,1.1,0.2,1.2,0.7l7.2,24.8
				c0.2,0.5-0.2,1.1-0.7,1.2C275.7,456.8,275.6,456.8,275.6,456.8z" style="fill:#324A58;"/>
		</g>
		<g>
			<path d="M265.1,526.3c-10.9,0.1-16.2-10.8-17.4-16.8c-0.3-1.6,0.7-3.2,2.3-3.6c1.6-0.3,3.2,0.7,3.6,2.3
				c0.1,0.6,2.9,12.7,12.3,12c1.8-0.1,3.6-1.3,5.4-3.6c6.7-8.1,13.2-28.2,11.6-42.1c-0.2-1.6-1-3.1,0.6-3.3c1.6-0.2,3.1,1,3.3,2.6
				c2.1,17.4-3.9,38.1-10.9,46.6c-2.9,3.5-6.1,5.5-9.6,5.7C265.9,526.3,265.5,526.3,265.1,526.3z" style="fill:#324A58;"/>
		</g>
		<g>
			<path d="M317.2,533.7c-1.4,0-2.9-0.2-4.4-0.7c-3.5-1.1-8.2-4.3-10.8-12.9c-4.5-14.8-1-39.3-0.9-40.3
				c0.2-1.6,0.7-2.8,2.3-2.7c1.6,0.2,1.8,1.7,1.7,3.3c0,0.2-1.5,24.3,2.6,37.9c1,3.4,3.1,7.7,6.9,9c3.3,1.1,6.9-0.3,8.9-1.9
				c4.9-3.7,7.3-6.6,7.4-6.6c1-1.3,2.9-1.5,4.2-0.4c1.3,1,1.5,2.9,0.5,4.2c-0.1,0.1-2.8,3.5-8.4,7.7
				C324.8,532.1,321.1,533.7,317.2,533.7z" style="fill:#324A58;"/>
		</g>
		<g>
			<path d="M355.6,512.7c-2.2,0-4.4-0.4-6.8-1.4c-14.5-5.9-18.7-34.3-18.9-35.6c-0.2-1.6,0.9-3.2,2.6-3.4
				c1.6-0.2,1.2,0.9,1.4,2.6c1,7.3,7.8,27,17.2,30.8c2.9,1.2,5.5,1.3,7.7,0.2c4.4-2,6.4-7.5,6.4-7.5c0.5-1.6,2.3-2.4,3.8-1.9
				c1.6,0.5,2.4,2.3,1.9,3.8c-0.1,0.3-2.8,7.9-9.6,11C359.5,512.2,357.6,512.7,355.6,512.7z" style="fill:#324A58;"/>
		</g>
		<g>
			<path d="M191.8,271c-0.9,0-1.7-0.6-2-1.5c-4.9-19.5-22.3-50.6-37.4-53c-3.6-0.6-6.5,0.1-9.1,2
				c-5.9,4.4-6.1,13.9-6.1,14c-0.1,1.1-1.3,2.3-3.2,1.7c-1.1-0.3-1.9-1.1-1.7-2.2c0.1-0.5,1.5-11.3,8.7-16.8
				c3.4-2.6,7.5-3.5,12.1-2.7c16.9,2.7,35.4,34.9,40.6,56c0.3,1.1-0.4,2.2-1.5,2.4C192.1,271,192,271,191.8,271z" style="fill:#324A58;"/>
		</g>
		<g>
			<path d="M211.1,239.6c-0.9,0-1.8-0.6-2-1.6c0-0.2-3.6-16.8-15.6-34.7c-11.8-17.5-25.7-18.5-25.9-18.5
				c-1.1-0.1-3.7-0.9-2.9-3.1c0.6-1.8,2-1.9,3.1-1.9c0.7,0,16.1,2.1,29,21.3c12.5,18.6,16.1,35.4,16.2,36.1c0.2,1.1-0.5,2.1-1.6,2.4
				C211.4,239.6,211.3,239.6,211.1,239.6z" style="fill:#324A58;"/>
		</g>
		<g>
			<path d="M153.6,215.7c-0.4,0-0.8-0.2-1.1-0.5c-0.6-0.6-0.5-1.6,0.1-2.1l26.9-24.8c0.6-0.6,1.6-0.5,2.1,0.1
				c0.6,0.6,0.5,1.6-0.1,2.1l-26.9,24.8C154.3,215.5,153.9,215.7,153.6,215.7z" style="fill:#324A58;"/>
		</g>
		<g>
			<path d="M206.5,247c-0.4,0-0.7-0.2-0.9-0.5c-0.1-0.2-10.6-20.8-18.3-33.3c-7.6-12.3-14.5-14.1-14.5-14.2
				c-0.5-0.1-0.9-0.7-0.7-1.2c0.1-0.5,0.7-0.9,1.2-0.7c0.3,0.1,7.7,2.1,15.7,15c7.8,12.6,18.3,33.3,18.4,33.5
				c0.2,0.5,0.1,1.1-0.4,1.3C206.8,246.9,206.7,247,206.5,247z" style="fill:#324A58;"/>
		</g>
		<g>
			<path d="M201.1,258.9c-0.4,0-0.8-0.2-0.9-0.6c-0.1-0.3-11.8-28.4-20.9-39.3c-9-10.6-15.8-11-15.9-11
				c-0.6,0-1-0.5-1-1c0-0.6,0.5-1,1-1c0.3,0,7.8,0.4,17.3,11.7c9.4,11.1,20.8,38.7,21.2,39.8c0.2,0.5,0,1.1-0.5,1.3
				C201.3,258.9,201.2,258.9,201.1,258.9z" style="fill:#324A58;"/>
		</g>
	</g>
	<g>
		<path d="M440.2,416.5c0,0,3.5-8.7,4.4-22.5c0.9-15.5-1.5-25.6-1.5-25.6s11.5,23.1,29.3,32c17.8,9,21.9,7.7,22,9.7
			s-6,7.7-25.5,8.6C449.4,419.5,440.2,416.5,440.2,416.5z" style="fill:#FF564F;"/>
		<path d="M296.7,459.6c0,0,3.3,2.1,8.4,4.6c4.4,2.2,10.4,5.1,10.4,5.1s-13,24.8-18.6,23.6c-5.6-1.2-1.2-9.4-1.2-9.4
			s-11.3,13.5-16,7.9c-4.3-5.1,10.5-15.3,10.5-15.3s-18,8.1-18.1,2.9C271.8,473.8,296.7,459.6,296.7,459.6z" style="fill:#FF564F;"/>
		<path d="M419.1,459.6L419.1,459.6c0,0-11.9-7.5-20.8-16.3c-8.9-8.7-13.1-20.8-11.1-22.3c1.8-1.3,3.2,2.9,3.9,4.7
			c0.7,1.7,5.1,9.9,12,15.9c5,4.4,11.1,8.9,15.7,11.7c7.4-9.9,24.9-38,21-79.8c-4.9-52.8-34.6-96.1-54.5-117.1v-0.2
			c-6.1-5.3-12.6-9.3-25.6-16.4c-18.1-9.9-40.1-13.8-40.3-13.9c-0.8-0.1-1.4-0.9-1.2-1.7c0.1-0.8,0.9-1.4,1.7-1.2
			c0.2,0,22.7,4,41.3,14.2c11.9,6.5,18.5,10.6,24.4,15.3l4.8-76.8c0,0-44.4,14.3-67.7,17.6s-55.8,3.5-59-14.4
			c-3.6-20,14.4-29.7,14.4-29.7l-16.5-1.4l9.1-18.7l-20.6,9.5c0,0-15.2-25-33.3-16.8c-18.2,8.1-18,27.4-18,27.4
			c-0.2,2.3-0.3,11.7,2.8,20.2c3.1,8.6,20.5,48.4,4.6,65.9s-29.2,59.3-37.5,82.4s-56.1,115.5-91.4,154
			c-40.2,43.7-56.2,49.7-62.4,55.3S4,543.8,17.4,546.4c11.5,2.2,42.7-9.9,76.5-40.1l0,0c25.8-24.3,39.8-56.2,40-56.5
			c0.3-0.8,1.2-1.1,2-0.8c0.8,0.3,1.1,1.2,0.8,2c-0.1,0.3-14.2,32.2-39.9,56.8c-4.9,5.8-10.6,12.1-16.3,17.3
			c-14.9,13.5-20.4,20.1-15.3,27.1c4.5,6.2,35.9,3.9,64.7-27.7c22-34,33-71,33.1-71.4c0.2-0.8,1.1-1.3,1.9-1c0.8,0.2,1.3,1.1,1,1.9
			c-0.1,0.4-11.8,40-35.4,75.2c-4.1,8.3-7.3,16.9-4.6,19.5c5.6,5.5,23.3-0.7,40.1-21.9s27.4-57.8,27.4-57.8s-6.6,42.8-6,55.3
			c0.6,12.4,10.1,13.3,15.8,4.8c5.7-8.6,19.4-47.8,20.7-76.9c0,0,6.8,30.5,12.3,35c5.6,4.5,15.6,7,11.9-18.6
			c-2.6-17.9-4.7-38.7-5.7-49.7l0,0c0,0-3.6-22.9-0.4-43.9c3.2-21,8-29.7,10.5-28.7c1.8,0.8,0.3,3.1-1,5.9s-4.9,14.5-6.1,23.7
			c-1.3,9.9-1.4,26.8,0.1,39.4c9.2,9.6,34.1,34,60.4,46.9c33.2,16.3,66.6,21.5,79.5,22.2s44.1-0.5,61.9-9.6
			C464.3,465.7,440.5,473.5,419.1,459.6z M202.5,148.8c-0.9-1.1-0.6-2.9,1.7-5.9c2.7-3.5,5.4-4.2,6.3-3.1c1.3,1.4,0.3,3.8-2.5,6.3
			C205.1,148.7,203.3,150,202.5,148.8z M216.4,171.9c-5.3,1.1-10.6-2.9-11.9-9c-1.3-6.1,1.9-12,7.2-13.1s10.6,2.9,11.9,9
			C224.9,165,221.7,170.8,216.4,171.9z M375.1,454.8c-0.5,0-1-0.2-1.2-0.6c-0.5-0.7-0.3-1.6,0.4-2.1l13.4-9.3
			c0.7-0.5,1.6-0.3,2.1,0.4c0.5,0.7,0.3,1.6-0.4,2.1l-13.4,9.3C375.6,454.7,375.4,454.8,375.1,454.8z M396.5,450.4l-10.7,11.5
			c-0.3,0.3-0.7,0.5-1.1,0.5s-0.7-0.1-1-0.4c-0.6-0.6-0.6-1.5-0.1-2.1l10.7-11.5c0.6-0.6,1.5-0.6,2.1-0.1
			C397,448.9,397.1,449.8,396.5,450.4z" style="fill:#FF564F;"/>
		<path d="M209.8,158.4c2.6-2.1,5.9-2.4,6.8-0.5c1.4,2.9,0.6,4.3-2.5,6.3s-5.1,2-6.3,0.1
			C207.1,162.8,206.9,160.8,209.8,158.4z" style="fill:#324A58;"/>
		<path d="M189.7,113l17.9-12.2c0.5-0.3,1.2-0.2,1.6,0.3l14,20.7l-20.7,13.9l-13.1-20.8
			C189,114.2,189.1,113.4,189.7,113z" style="fill:#2568EF;"/>
		<path d="M202.4,135.7c0,0,1.5-8.6,15.2-17s18.5-6,18.9-3.9C237.3,118.5,219.1,129.7,202.4,135.7z" style="fill:#324A58;"/>
		<g>
			<path d="M494.3,411.5c-0.4,0-0.7-0.1-1-0.4c-0.4-0.3-0.6-0.8-0.5-1.2c0.2-3.1-2.7-12.6-3.8-16.1
				c-0.6-1.8,1.1-2.4,2.2-0.2c0.6,1.1,4.4,9.2,4.4,14.6c0,0,10.7-3,16.2-3.4c0.8-0.1,2.4,0.1,2.6,0.9s-0.4,1.3-1.2,1.5l-18.7,4.3
				C494.6,411.5,494.5,411.5,494.3,411.5z" style="fill:#324A58;"/>
		</g>
		<g>
			<path d="M495.6,409.3c-0.4,0-0.7-0.1-1-0.4c-0.6-0.6-0.7-1.5-0.1-2.1c5.8-6.3,8.1-13.4,8.1-13.4
				c0.7-1.3,1.2-2.1,2.1-1.7c0.8,0.3,0.5,1,0.2,2.6c-0.1,0.4-2,7.7-8.2,14.5C496.4,409.1,496,409.3,495.6,409.3z" style="fill:#324A58;"/>
		</g>
		<g>
			<path d="M454,472.2c-0.4,0-0.8,0-1.1,0c-1.4-0.1-2.2-0.7-2.5-1.6c-0.1-0.5-0.2-1.4,0.9-2.3c1.3-1.1,2.3-8.3,3.2-15
				c0.2-1.6,0.1-3,1.3-3c1.3,0,1.2,2.1,1.2,3c0,2.3,0.1,11.1-2.3,15.8c4.3-0.2,9.8-1.6,12.9-3.2c2.8-1.4,4.5-3.4,5.3-3
				s0.6,2-0.7,3.5C468.5,470.5,458.9,472.2,454,472.2z" style="fill:#324A58;"/>
		</g>
		<g>
			<path d="M452.4,472.2c-0.5,0-1.1-0.3-1.4-0.8c-0.5-0.8-0.2-1.7,0.5-2.2c9.1-5.7,12.6-13.9,12.7-14
				c0.3-0.8,0.9-2.3,2.1-1.9s0.5,2.3,0,3.9c-0.1,0.4-3,8.4-13,14.7C452.9,472.1,452.7,472.2,452.4,472.2z" style="fill:#324A58;"/>
		</g>
		<g>
			<path d="M273.9,113c-3.9,0-7.2-3.1-7.2-7.1c0-3.9,3.1-7.2,7.1-7.2c3.9,0,7.2,3.1,7.2,7.1
				C281,109.7,277.8,112.9,273.9,113z M273.8,101.4c-2.5,0-4.4,2-4.4,4.5s2,4.4,4.5,4.4s4.4-2,4.4-4.5S276.3,101.4,273.8,101.4z" style="fill:#FF9B19;"/>
		</g>
		<g>
			<path d="M303.2,130.8c-3,0-5.5-2.4-5.6-5.5c0-3,2.4-5.5,5.5-5.6c3,0,5.5,2.4,5.6,5.5
				C308.7,128.3,306.3,130.8,303.2,130.8z M303.1,122.5c-1.6,0-2.8,1.3-2.8,2.8c0,1.6,1.3,2.8,2.8,2.8c1.6,0,2.8-1.3,2.8-2.8
				C306,123.7,304.7,122.5,303.1,122.5z" style="fill:#FF9B19;"/>
		</g>
		<g>
			<path d="M348.5,114.9c-4.9,0-9-3.9-9-8.9s3.9-9,8.9-9c4.9,0,9,3.9,9,8.9C357.5,110.8,353.5,114.9,348.5,114.9z
				 M348.4,99.7c-3.5,0-6.2,2.9-6.2,6.3s2.9,6.2,6.3,6.2c3.5,0,6.2-2.9,6.2-6.3C354.7,102.4,351.8,99.7,348.4,99.7z" style="fill:#FF9B19;"/>
		</g>
	</g>
	<g>
		<polygon points="405,118.6 427.9,118.4 420.4,294.6 386.8,289.8 		" style="fill:#FF9B19;"/>
		<polygon points="435.2,118.3 425.8,294.5 439.2,296.8 456.4,115.3 		" style="fill:#FF9B19;"/>
		<polygon points="463.1,123.4 445.6,296.7 461.4,298.1 486.7,125 		" style="fill:#FF9B19;"/>
		<polygon points="490.2,134.4 466.3,300.8 488.1,302.5 493.9,252.3 509.9,136.8 		" style="fill:#FF9B19;"/>
		<path d="M509.5,140.5c0,0-19.8,145.2-21.6,150.1s-2.9,7.6-13.6,6.2s-72.2-10.4-74.3-10.9c-2.1-0.6-8-0.2-6.7-15.1
			c1.6-17.6,12.7-145.2,12.7-145.2l-12.7,2.2l-1.6,20.2c-5.9,0.8-16.7,3.3-27.5,10.7c-13.6,9.3-21.6,23.8-17.1,48.1
			c4.5,23.9,28,34.7,37,38l-4.3,54.2c0,0-1.1,5.1,4.5,5.9s109.3,16.9,109.3,16.9s4.5,1.4,5.6-5.4s17.6-167.2,17.6-167.2L509.5,140.5
			z M365.5,190.8c1-16.4,17.2-20,24.6-20.8l-4.3,55.3C376.2,221.1,364.4,210.2,365.5,190.8z" style="fill:#2568EF;"/>
		<path d="M546.6,161.5c0-5.3-3.3-9.8-7.6-11.3c3.3-2,5.5-5.4,5.5-9.4c0-4.2-2.6-7.8-6.3-9.7c3.9-0.9,6.8-4.4,6.7-8.6
			c0-4.8-4-8.7-8.8-8.7c-1.2,0-2.3,0.3-3.3,0.7l-0.3-0.5c5.3-4.6,7.6-11.6,5.1-17.8c-3.2-8-13-11.6-22.1-8.2
			c2.7-2.3,4.4-5.8,4.3-9.7c-0.1-7-5.8-12.6-12.8-12.6c-5.4,0-9.9,3.4-11.7,8.1c-1.5-2.4-4-3.9-6.8-3.9c-3.1,0-5.7,1.9-7,4.6
			c-4.4-3.5-10.9-5-17.5-3.5c-6.5,1.4-11.7,5.4-14.2,10.4c-0.9-8.5-9.7-15.1-20.4-15c-10.3,0.1-18.7,6.4-20,14.4
			c-3.9-3.1-8.7-5-13.9-4.9c-12.5,0.1-22.6,10.9-22.4,24.2c0,5.2,1.7,10,4.4,14c-8.8,3.6-13.9,12.2-11.5,19.9
			c2.6,8.2,12.7,12.3,22.6,9.1c4.5-1.4,8.2-4.2,10.6-7.5c2.9,4.7,8.3,7.8,14.4,7.7c8.6-0.1,15.6-6.3,16.3-14.2c2.1,1.9,4.8,3,7.8,3
			c4.8,0,8.8-3,10.5-7.1c1.5,1.1,3.4,1.8,5.3,1.7c1.9,0,3.7-0.7,5.2-1.7c1.2,8.5,9.8,15.1,20.1,15c2.7,0,5.3-0.5,7.7-1.4
			c-0.3,1-0.5,2-0.5,3c0.1,6.8,7.3,12.3,16.2,12.2c0.3,0,0.6,0,0.9,0c-0.6,1.2-0.9,2.5-0.9,3.9c0,3.2,1.8,6,4.6,7.5
			c-0.3,0.9-0.4,1.8-0.4,2.7c0,4.5,3.5,8.2,7.9,8.5c-2,1.5-3.3,4-3.2,6.7c0,3.2,1.8,5.9,4.4,7.3c-1.5,1.6-2.4,3.7-2.4,6.1
			c0,4.8,3.9,8.6,8.7,8.6s8.6-3.9,8.6-8.7c0-2.3-1-4.4-2.5-6l0.4-0.5c0.7,0.1,1.5,0.2,2.2,0.2c6.1-0.1,10.9-4.6,10.9-10.1
			c0-2.7-1.2-5.2-3.2-6.9C543.1,172,546.6,167.2,546.6,161.5z" style="fill:#FFE7E6;"/>
		<circle cx="560" cy="149.8" r="6.8" style="fill:#FFE7E6;"/>
		<circle cx="576.7" cy="167" r="5.6" style="fill:#FFE7E6;"/>
		<path d="M586.8,212.1c0.7-5.3-3.2-10.4-9-12.2c0.2-0.5,0.3-1,0.4-1.6c0.6-4.8-3.9-9.3-10-10.1
			c-6.2-0.8-11.6,2.4-12.3,7.2c-0.5,3.7,2,7.2,5.9,9c-0.9,1.3-1.5,2.7-1.7,4.3c-0.8,6.2,4.5,11.9,11.9,12.9
			C579.4,222.5,586,218.3,586.8,212.1z" style="fill:#FFE7E6;"/>
	</g>
	<g>
		<path d="M429.4,527.7l0.5-0.2l0.4,0.4c0.3,0.3,2.1,1.9,4.8,4.4l35.1-14.9l-63.5-8.1l18.6,19.7
			C427.1,528.5,428.5,528,429.4,527.7z" style="fill:#2568EF;"/>
		<path d="M466.1,561.1l4.7-41.2l-33.5,14.6C445.2,541.7,457.8,552.5,466.1,561.1z" style="fill:#2568EF;"/>
		<path d="M422.8,529.7l-18.6-18.8l-27.6,38.3C386.1,544.9,410.4,534.6,422.8,529.7z" style="fill:#2568EF;"/>
		<path d="M429.5,530.8c-9.2,3-49.7,20.2-55.2,22.7l-1,1.4l92.3,12.5l0.3-1.8C455,554.4,432.8,533.8,429.5,530.8z
			 M400.6,544l9.9,1.2c0.5,0.1,0.9,0.6,0.9,1.1c-0.1,0.5-0.5,0.9-1,0.9h-0.1l-9.9-1.2c-0.5-0.1-0.9-0.6-0.9-1.1
			C399.6,544.3,400.1,543.9,400.6,544z M408.9,555.7c-0.1,0-0.1,0-0.2,0l-14.9-2.3c-0.5-0.1-0.9-0.6-0.8-1.1s0.6-0.9,1.1-0.8
			l14.9,2.3c0.5,0.1,0.9,0.6,0.8,1.1C409.8,555.4,409.4,555.7,408.9,555.7z M411.9,552c-0.1,0-0.1,0-0.2,0l-16.4-2.6
			c-0.5-0.1-0.9-0.6-0.8-1.1s0.6-0.9,1.1-0.8l16.4,2.6c0.5,0.1,0.9,0.6,0.8,1.1C412.8,551.7,412.4,552,411.9,552z" style="fill:#2568EF;"/>
	</g>
	<g>
		<path d="M540.9,489.4c4.8,7.6,14.2,21.3,17.8,28.6l30.7-37.3C576.9,482.5,547.5,488.3,540.9,489.4z" style="fill:#FF9B19;"/>
		<path d="M530.2,485c-1.7-2.8-6.2-11.9-10.5-18.9L493.5,493C503.5,490.6,520.3,487,530.2,485z" style="fill:#FF9B19;"/>
		<path d="M536.1,486.1c-6.3,0.9-37.6,8.2-47.4,10.5l-3.1,3.1l71.3,22.5l0.4-0.5C553.7,514.2,538.5,490,536.1,486.1z" style="fill:#FF9B19;"/>
		<path d="M536.5,484.1h0.6l0.3,0.5c0.1,0.2,0.7,1.1,1.6,2.5c5.3-0.9,37.2-6.1,49.7-7.9l-66.6-13.6
			c3,4.9,9.2,16.7,10.6,19.2C534.5,484.3,535.8,484.1,536.5,484.1z" style="fill:#FF9B19;"/>
	</g>
	<g>
		<path d="M51.6,427.4c-4.2,5.2-12.2,14.8-15.3,19.7L8.5,422.9C19.5,423.9,45.6,426.8,51.6,427.4z" style="fill:#FF9B19;"/>
		<path d="M62.2,424c1.4-1.9,5.2-7,9-11.8l23.6,16.6C85.8,427.3,71,425.2,62.2,424z" style="fill:#FF9B19;"/>
		<path d="M55.9,425.8c5.6,0.5,33.5,4,42.2,5.4l2.8,2l-63.1,15.9l-0.4-0.3C40.6,443.8,53.8,428.4,55.9,425.8z" style="fill:#FF9B19;"/>
		<path d="M55.5,423.4H55l-0.3,0.3c-0.1,0.1-0.6,0.7-1.4,1.7c-4.8-0.5-34.1-3.6-45.2-4.6l60.8-10
			c-2.6,3.3-8.8,11.3-10.1,13C57.3,423.6,56.1,423.5,55.5,423.4z" style="fill:#FF9B19;"/>
	</g>
	<g>
		<g>
			<path d="M141.9,149.3c-3.7,5.1-10.9,6.3-16.1,2.6c-5.1-3.7-6.3-10.9-2.6-16.1c3.7-5.1,10.9-6.3,16.1-2.6
				S145.6,144.1,141.9,149.3z M125.7,137.6c-2.7,3.8-1.9,9,1.9,11.8c3.8,2.7,9,1.9,11.8-1.9c2.7-3.8,1.9-9-1.9-11.8
				C133.7,133,128.5,133.9,125.7,137.6z" style="fill:#FF9B19;"/>
		</g>
		<g>
			<path d="M163.9,150.7c-2.4,3.3-7,4.1-10.3,1.7c-3.3-2.4-4.1-7-1.7-10.3s7-4.1,10.3-1.7S166.2,147.4,163.9,150.7z
				 M154.4,143.9c-1.4,1.9-0.9,4.6,1,6s4.6,0.9,6-1s0.9-4.6-1-6S155.8,141.9,154.4,143.9z" style="fill:#FF9B19;"/>
		</g>
		<g>
			<path d="M129.9,111.1c-1.8,2.5-5.2,3-7.6,1.2s-3-5.2-1.2-7.6c1.8-2.5,5.2-3,7.6-1.2
				C131.1,105.2,131.6,108.7,129.9,111.1z M123.5,106.5c-0.8,1.1-0.5,2.6,0.5,3.4c1.1,0.8,2.6,0.5,3.4-0.5c0.8-1.1,0.5-2.6-0.5-3.4
				C125.7,105.2,124.2,105.4,123.5,106.5z" style="fill:#FF9B19;"/>
		</g>
	</g>
	<g>
		<path d="M322.6,84.5c-7.8-5.9-18.6,2.4-22.6,7.3c-0.7,0.9-0.6,2.2,0.2,2.9c0.4,0.3,9.3,8,16.8,13.1
			c0.4,0.2,0.8,0.4,1.2,0.4c0.6,0,1.1-0.2,1.5-0.7c0.3-0.3,7.7-8.3,7-15.8C326.4,88.8,325,86.4,322.6,84.5z M317.8,103.3
			c-5.1-3.6-10.6-8.1-13.3-10.4c3.6-3.5,10.9-8.7,15.5-5.1c1.5,1.1,2.3,2.5,2.5,4.3C322.9,95.9,319.9,100.7,317.8,103.3z" style="fill:#FF9B19;"/>
		<path d="M343.5,71.9c-11.4-3.7-30.8-6.4-31.6-6.5c-0.9-0.1-1.8,0.4-2.2,1.2c-0.4,0.8-0.2,1.8,0.5,2.4
			c3.4,3,24.7,20.7,25.6,21.4c0.4,0.3,0.9,0.5,1.3,0.5c0.6,0,1.2-0.3,1.6-0.8c0.7-0.9,0.6-2.2-0.3-2.9c-0.1-0.1-2.8-2.3-6.5-5.4
			l3.2-7.9c2.5,0.6,4.9,1.3,7,1.9c1.1,0.4,2.3-0.2,2.6-1.3C345.2,73.4,344.6,72.3,343.5,71.9z M328.6,79c-3.4-2.8-7.1-5.9-10.1-8.4
			c3.6,0.6,8.1,1.4,12.5,2.4L328.6,79z" style="fill:#FF9B19;"/>
		<path d="M349.9,65.4L337,56.8c-0.1-0.1-0.2-0.1-0.4-0.2l-8.4-14.8c-0.6-1-1.8-1.3-2.8-0.8c-1,0.6-1.3,1.8-0.8,2.8
			l7.2,12.6l-14.9-0.7c-1.1,0-2.1,0.8-2.2,2c-0.1,1.1,0.8,2.1,2,2.2l18.6,0.9h0.1l0,0l12.1,8.1c0.4,0.2,0.8,0.4,1.2,0.4
			c0.7,0,1.3-0.3,1.7-0.9C351.1,67.3,350.9,66,349.9,65.4z" style="fill:#FF9B19;"/>
		<path d="M371.5,36.6c-7.6,0.1-13.7,6.3-13.6,13.8c0.1,7.6,6.3,13.7,13.8,13.6c7.6-0.1,13.7-6.3,13.6-13.8
			S379.1,36.5,371.5,36.6z M371.7,59.9c-5.3,0-9.6-4.2-9.6-9.5s4.2-9.6,9.5-9.6s9.6,4.2,9.6,9.5S377,59.8,371.7,59.9z" style="fill:#FF9B19;"/>
		<path d="M396.9,35.4l-6.6,1.7c-0.2-1.4-0.2-2.6-0.3-3.4c1.8-0.4,5.1-1.2,7.7-1.6c1.1-0.2,1.9-1.2,1.7-2.4
			c-0.2-1.1-1.2-1.9-2.4-1.7c-4,0.6-9.2,2-9.5,2c-0.7,0.2-1.2,0.6-1.4,1.3c-0.8,2.1,0.6,11.7,1.9,19.3c0.2,1,1.1,1.7,2.1,1.7
			c0.1,0,0.2,0,0.3,0c1.1-0.2,1.9-1.3,1.7-2.4c-0.5-2.8-1-5.9-1.3-8.6l7.1-1.8c1.1-0.3,1.8-1.4,1.5-2.5
			C399.1,35.8,398,35.1,396.9,35.4z" style="fill:#FF9B19;"/>
		<path d="M414.2,29.5c1.1-0.1,2-1.1,1.9-2.3c-0.1-1.1-1.1-2-2.3-1.9c-4,0.4-10.3,1.3-10.6,1.4
			c-0.7,0.1-1.3,0.5-1.6,1.2c-0.8,1.7,0.1,8.7,2.7,20.6c0.2,1,1.1,1.6,2,1.6c0.1,0,0.3,0,0.4,0c1.1-0.2,1.8-1.3,1.6-2.5
			c-0.7-3.1-1.3-6.5-1.8-9.5l7.3-1.3c1.1-0.2,1.9-1.3,1.7-2.4c-0.2-1.1-1.3-1.9-2.4-1.7l-7.3,1.3c-0.2-1.4-0.3-2.7-0.4-3.5
			C407.6,30.3,411.5,29.8,414.2,29.5z" style="fill:#FF9B19;"/>
	</g>
	<g>
		<path d="M524,173.7c0,0,20.4-0.7,20.8,19.7s-9.6,29.7-19.3,38.8s-40.6,27.4-59.5,30s-31.8-6.8-8.6-22.8
			s50.3-33.9,55.2-48.2C517.5,176.9,524,173.7,524,173.7z" style="fill:#FF564F;"/>
		<path d="M537.6,225.1c0,0,6.6,9.3,3.5,23.7c-3.1,14.4-16.6,29.6-34.2,37.8s-45.6,10.4-45.2-2.2s24.4-22.9,34.7-27.6
			C506.5,252,526.9,240.1,537.6,225.1z" style="fill:#FF564F;"/>
		<path d="M515.7,285.4c0,0,10.8-4.2,20.5-17.7c0,0,8.8,1.1,16.8,4.7s17.9,10.6,14.9,15.1S535,281.6,515.7,285.4z" style="fill:#FF564F;"/>
	</g>
</g>
</svg>
