
<svg version="1.1" id="Capa_1" xmlns="http://www.w3.org/2000/svg" xmlns:xlink="http://www.w3.org/1999/xlink" x="0px" y="0px"
	 viewBox="0 0 452.453 452.453" style="enable-background:new 0 0 452.453 452.453;" xml:space="preserve">
<g>
	<path d="M446.226,242.698c0-20.022-8.794-39.826-25.431-57.27c-14.528-15.233-35.109-28.746-59.779-39.318l71.57-91.523
		c3.114-3.982,4.231-9.088,3.064-14.007c-1.167-4.919-4.459-8.979-9.031-11.138c-7.207-3.405-15.823-1.182-20.481,5.289
		l-72.927,101.243c-4.011-1.235-8.083-2.401-12.197-3.483l61.405-107.76c2.504-4.393,2.867-9.606,0.998-14.304
		c-1.869-4.697-5.715-8.236-10.552-9.708c-7.631-2.324-15.827,1.131-19.498,8.207l-60.889,117.384
		c-21.377-3.71-43.637-5.613-66.252-5.613c-58.247,0-113.087,12.387-154.418,34.879c-42.291,23.016-65.582,53.956-65.582,87.121
		c0,0.001,0,0.003,0,0.004v0.001c0,56.072,22.915,108.775,64.524,148.401c41.542,39.562,96.758,61.349,155.476,61.349
		s113.934-21.788,155.476-61.349c41.609-39.625,64.524-92.329,64.524-148.401v-0.001C446.226,242.7,446.226,242.699,446.226,242.698
		z M436.226,242.698c0,1.72-0.079,3.441-0.229,5.16c-16.52-29.183-52.076-53.673-100.63-68.948l19.267-24.638
		C405.797,175.528,436.226,208.403,436.226,242.698z M414.253,40.576c1.841-2.557,5.244-3.438,8.099-2.091
		c1.808,0.854,3.108,2.459,3.57,4.404c0.461,1.945,0.02,3.963-1.212,5.538L306.713,199.319c-2.091-0.249-4.211-0.458-6.378-0.596
		l38.836-53.915c0.014-0.019,0.027-0.038,0.041-0.057L414.253,40.576z M327.031,144.553l-19.432,26.978
		c-2.598-0.57-5.235-1.115-7.899-1.634l16.182-28.398C319.632,142.45,323.356,143.469,327.031,144.553z M362.245,13.531
		c1.451-2.798,4.694-4.161,7.709-3.245c1.913,0.582,3.434,1.981,4.172,3.838c0.739,1.857,0.596,3.919-0.394,5.656l-94.85,166.452
		c-1.367,2.399-0.531,5.453,1.868,6.82c2.4,1.369,5.453,0.53,6.819-1.869l6.897-12.104c2.268,0.419,4.517,0.86,6.745,1.318
		c0,0-12.892,17.963-13.015,18.214c-37.039,1.718-58.747,21.851-59.744,22.794c-2.005,1.899-2.091,5.064-0.191,7.068
		c1.899,2.005,5.063,2.09,7.068,0.191c0.236-0.225,24.222-22.474,64.25-19.973c40.225,2.514,67.267,27.714,67.53,27.963
		c0.968,0.922,2.209,1.379,3.447,1.379c1.32,0,2.639-0.52,3.622-1.552c1.904-2,1.827-5.165-0.173-7.069
		c-1.028-0.979-22.272-20.855-56.073-28.212l10.837-13.857c53.539,16.135,91.99,44.508,103.643,76.502
		c-8.977,24.639-33.684,47.254-69.826,63.824c-38.014,17.428-86.441,27.026-136.362,27.026c-56.608,0-109.751-11.954-149.638-33.659
		c-29.398-15.998-48.813-35.785-56.56-57.15c10.613-29.23,43.278-55.241,89.482-71.875c1.804-0.649,3.628-1.284,5.472-1.905
		c0,0-3.861,8.428-2.23,12.813c1.63,4.386,5.358,7.463,9.973,8.232l2.318,0.387c11.654,1.942,23.554,2.927,35.367,2.927
		c26.233,0,51.968-4.729,76.487-14.056c6.711-2.552,10.972-8.597,11.12-15.775c0.088-4.265-1.3-8.183-3.818-11.259
		c7.73,0.353,15.397,0.939,22.958,1.745l-6.371,12.282c-1.271,2.451-0.315,5.469,2.136,6.741c0.736,0.382,1.523,0.563,2.299,0.563
		c1.808,0,3.553-0.983,4.442-2.699l9.671-18.643c0.001-0.002,0.002-0.004,0.003-0.006L362.245,13.531z M155.291,166.511
		c0.892,1.712,2.635,2.692,4.439,2.692c0.778,0,1.567-0.182,2.305-0.566l22.873-11.906l4.141,1.775l-42.355,24.885
		c-2.381,1.399-3.177,4.463-1.777,6.844c0.931,1.585,2.601,2.468,4.315,2.468c0.86,0,1.732-0.223,2.528-0.69l48.704-28.615
		l7.932,3.399l-34.507,17.951c-2.449,1.274-3.402,4.293-2.128,6.743c0.891,1.712,2.634,2.693,4.439,2.693
		c0.777,0,1.566-0.182,2.304-0.565c0,0,41.266-21.545,41.571-21.817l6.725,2.882l-18.404,9.58c-2.449,1.275-3.401,4.294-2.127,6.744
		c0.892,1.712,2.635,2.692,4.439,2.692c0.778,0,1.567-0.182,2.305-0.566l24.056-12.522c0.883,1.565,0.966,3.152,0.953,3.818
		c-0.023,1.148-0.432,5.02-4.677,6.635c-23.38,8.893-47.918,13.402-72.933,13.402c-11.265,0-22.61-0.939-33.723-2.791l-2.318-0.387
		c-1.497-0.249-2.068-1.378-2.244-1.852s-0.48-1.702,0.489-2.868l36.896-44.346c1.563-1.878,3.861-2.956,6.306-2.956
		c1.113,0,2.198,0.223,3.226,0.664l3.986,1.708l-15.612,8.127C154.968,161.042,154.016,164.062,155.291,166.511z M76.589,164.361
		c39.89-21.708,93.031-33.663,149.638-33.663c20.942,0,41.565,1.667,61.42,4.929l-15.556,29.99
		c-22.694-2.959-37.871-2.584-47.231-2.643l-51.876-22.233c-2.279-0.977-4.69-1.472-7.165-1.472c-5.424,0-10.524,2.391-13.993,6.56
		l-25.159,30.24c-29.183,8.173-55.103,20.045-75.027,34.398c-15.549,11.201-27.48,23.953-35.179,37.46
		c-0.152-1.737-0.233-3.48-0.233-5.229C16.226,213.365,37.664,185.544,76.589,164.361z M226.226,442.453
		c-99.404,0-182.895-66.037-204.54-154.411c11.111,15.55,28.014,29.75,50.122,41.781c41.329,22.49,96.169,34.875,154.418,34.875
		c91.644,0,172.02-31.207,204.584-76.829C409.233,376.33,325.695,442.453,226.226,442.453z"/>
	<path d="M110.726,292.703c34.486,0,61.5-14.495,61.5-33s-27.014-33-61.5-33c-38.75,0-52.5,17.777-52.5,33
		C58.226,274.926,71.976,292.703,110.726,292.703z M110.726,236.703c30.35,0,51.5,12.121,51.5,23
		c0,5.399-5.019,10.982-13.769,15.319c-9.995,4.953-23.395,7.681-37.731,7.681c-25.817,0-42.5-9.028-42.5-23
		C68.226,245.73,84.909,236.703,110.726,236.703z"/>
	<path d="M100.704,276.703c13.879,0,24.75-7.373,24.75-16.785c0-9.412-10.871-16.784-24.75-16.784s-24.75,7.373-24.75,16.784
		C75.954,269.33,86.825,276.703,100.704,276.703z M100.704,253.134c9.004,0,14.75,4.018,14.75,6.784s-5.746,6.785-14.75,6.785
		s-14.75-4.019-14.75-6.785S91.7,253.134,100.704,253.134z"/>
	<path d="M197.603,271.708c-0.906,6.795,3.645,12.105,13.527,15.783c7.071,2.631,16.484,4.43,25.588,6.169
		c10.423,1.991,27.867,5.324,29.473,9.299c0.133,0.329-0.141,1.238-1.05,2.526c-10.361,14.679-68.797,12.249-103.198,7.269
		c-2.739-0.399-5.27,1.499-5.665,4.231c-0.396,2.733,1.498,5.269,4.231,5.665c0.951,0.138,23.595,3.384,48.617,3.884
		c2.196,0.044,4.335,0.066,6.421,0.066c31.559,0,50.485-5.038,57.764-15.348c3.687-5.223,3.205-9.428,2.152-12.037
		c-3.646-9.031-19.042-11.972-36.869-15.378c-8.697-1.662-17.692-3.38-23.977-5.719c-4.642-1.728-7.297-3.63-7.103-5.089
		c0.194-1.454,1.263-2.917,3.177-4.348c14.332-10.715,64.763-12.239,91.766-8.039c2.738,0.424,5.285-1.444,5.709-4.172
		c0.425-2.729-1.443-5.285-4.172-5.709c-25.559-3.975-80.596-4.064-99.291,9.911C200.555,263.774,198.166,267.487,197.603,271.708z"
		/>
	<path d="M294.351,292.493c-4.955-7.297-16.742-12.929-28.974-17.044c17.831-2.324,31.908,0.431,32.177,0.485
		c2.7,0.558,5.345-1.186,5.902-3.889c0.557-2.705-1.185-5.349-3.889-5.906c-1.102-0.228-26.854-5.348-54.635,3.662
		c-7.814-1.772-13.867-2.766-15.6-3.038c-2.718-0.427-5.286,1.437-5.714,4.165c-0.428,2.728,1.437,5.287,4.165,5.714
		c4.595,0.721,9.997,1.768,15.637,3.08c0.336,0.118,3.791,0.91,5.177,1.265c16.134,4.135,32.816,10.255,37.48,17.123
		c1.197,1.763,1.129,2.97,0.937,3.824c-2.309,10.225-8.243,17.879-18.142,23.401c-12.47,6.955-31.144,10.322-55.587,10.034
		c-0.021,0-0.041,0-0.062,0c-2.733,0-4.965,2.199-4.999,4.939c-0.033,2.761,2.178,5.027,4.939,5.061
		c1.02,0.013,2.025,0.019,3.027,0.019c47.288-0.001,74.396-13.872,80.576-41.25C297.666,300.168,296.83,296.142,294.351,292.493z"/>
	<path d="M256.951,232.395c0.412-0.151,41.845-14.869,83.214,7.697c0.761,0.415,1.581,0.611,2.39,0.611
		c1.771,0,3.486-0.943,4.395-2.607c1.322-2.424,0.429-5.461-1.995-6.784c-45.472-24.802-89.604-8.986-91.459-8.301
		c-2.588,0.956-3.909,3.825-2.958,6.414C251.487,232.015,254.358,233.344,256.951,232.395z"/>
	<path d="M307.454,286.672c0.891,1.715,2.635,2.698,4.442,2.698c0.775,0,1.563-0.181,2.299-0.563
		c0.35-0.181,35.347-17.991,69.335-5.734c2.597,0.937,5.463-0.41,6.399-3.007c0.938-2.598-0.409-5.463-3.007-6.4
		c-38.063-13.724-75.747,5.443-77.333,6.266C307.138,281.203,306.182,284.221,307.454,286.672z"/>
	<path d="M337.348,298.701l27.333-0.667c2.761-0.067,4.943-2.36,4.876-5.121c-0.065-2.719-2.291-4.878-4.996-4.878
		c-0.041,0-0.082,0-0.124,0.001l-27.333,0.667c-2.761,0.067-4.943,2.36-4.876,5.121c0.065,2.719,2.291,4.878,4.996,4.878
		C337.265,298.703,337.306,298.702,337.348,298.701z"/>
	<path d="M193.621,301.666c2.759,0.334,5.235-1.618,5.568-4.358c0.335-2.741-1.616-5.234-4.357-5.569
		c-25.805-3.147-38.108,2.486-51.13,8.451c-8.531,3.908-17.353,7.949-31.23,10.069c-32.058,4.903-46.357-17.177-46.995-18.191
		c-1.451-2.342-4.525-3.07-6.87-1.625c-2.353,1.447-3.085,4.527-1.638,6.879c0.653,1.063,14.953,23.657,46.321,23.657
		c3.364,0,6.931-0.261,10.691-0.835c15.261-2.332,25.155-6.864,33.886-10.864C160.577,303.459,170.616,298.859,193.621,301.666z"/>
	<path d="M381.278,300.082c-7.321,6.973-29.513,6.557-45.717,6.253c-3.635-0.068-7.069-0.133-10.335-0.133
		c-23.106,0-33.696,25.539-34.136,26.626c-1.035,2.56,0.201,5.475,2.762,6.51c0.614,0.248,1.248,0.366,1.872,0.366
		c1.978,0,3.851-1.182,4.638-3.127c0.082-0.204,8.426-20.374,24.864-20.374c3.172,0,6.561,0.063,10.147,0.131
		c19.922,0.374,42.503,0.798,52.801-9.01c2-1.904,2.077-5.069,0.173-7.069C386.443,298.256,383.278,298.177,381.278,300.082z"/>
	<path d="M185.82,247.294h23.998c2.762,0,5-2.239,5-5s-2.238-5-5-5H185.82c-8.571,0-15.982-10.037-18.115-13.904
		c-1.325-2.417-4.355-3.308-6.778-1.985c-2.424,1.322-3.317,4.359-1.995,6.784C159.357,228.969,169.539,247.294,185.82,247.294z"/>

</g>
</svg>
