<svg id="Layer_1" data-name="Layer 1" xmlns="http://www.w3.org/2000/svg" viewBox="0 0 918.488 799.89"><title>1</title><g id="Illustrations_ballet" data-name="Illustrations/ballet"><path id="Accent" d="M712.872,652.063c5.2,17.6,1.9,38.1-10,52.6-7.7,9.3-26,17.7-36.2,8-4.6-4.4-6.5-19.2-8.5-26.2-1.8-6.4-4.8-18.2-3.5-23.6,1.9-7.8,17.5-6,24.8-6.7C690.672,655.063,701.772,653.563,712.872,652.063Zm147,9c2.4,5.4,6.3,9,8,14.9a79.084,79.084,0,0,1,2.2,11.8c.5,4.9.9,4.7-2.5,6.9-5.1,3.5-18.2,3.2-24.4,4.2-8.1,1.3-16.2,2.9-24.3,4.2,2-7.6.9-15.7,3-23.4a57.235,57.235,0,0,1,10.3-21c3.6-4.6,8.9-10.1,15.4-10.1C855.872,648.563,857.272,655.163,859.872,661.063Zm-514.9-161.9c1.2,16.2-1.1,33.4-10.3,47.3-3.9,5.9-9.6,9.1-14.2,14.1-5.3,5.9-8.2,13.1-16.7,15.6-5.4,1.6-11.8.5-17.5,1.2-9.4,1.2-12.2-.1-20.1-5-5.7-3.5-12.2-2.8-18.2-6.7-7.2-4.6-13.4-11.1-20.3-16.3C266.072,530.863,305.472,514.963,344.972,499.163Zm102.7,9.7c14.6,6.9,22.4,18.6,26.5,33.8-40.3,9.2-79.6,20.5-119.2,33.2,11.1-28.1,23.5-53.9,53.7-67,6-2.6,12.2-6.8,19.1-6.7C434.772,502.263,441.672,505.963,447.672,508.863Zm367.9,41.7c20.8,10.9,10.2,45.9,3,61.4-9.2-6.8-18.9-13.4-28-20-9.9-7.2-18.7-16.6-27.7-24.8,4.8-2.5,7.9-6.4,12.3-9.3,4.4-2.8,8.7-3,13.7-4.1C798.172,551.663,805.772,545.363,815.572,550.563Zm-162.2-78.8c1.7,2.1,3.6,4.1,5.2,6.3,3.8,5.3,7.1,10.7,11.5,15.6,7.8,8.7,19.2,20.2,31.9,21l.4,3.7c-3.8-.1-6-3.3-9.3-3.7-2.6-.3-6.2,1.7-9.3,1.4a257.368,257.368,0,0,0-29.2-1.1c-19.5.5-38.7,3.6-57.8,6.1,3.7-13.1,10.5-26.4,21.4-35.1,3.8-3,7.4-7.2,11.6-9.6,2.6-1.4,5.3-1.6,7.9-2.7,3-1.3,7-5.7,10.1-6.1C651.072,467.263,651.072,468.863,653.372,471.763Zm156.2,1.2c10.2,8.2,18.1,18.6,26.5,28.5,7.6,8.9,17.9,21.7,20.6,33.1-13.5,6.4-36.7.5-45.4-11.2C800.572,508.863,805.872,488.663,809.572,472.963Zm-234.1-46.8c-2,13.6-8.6,28.8-18.4,38.9-4.2,4.4-7.9,10.1-12.8,13.9-6.3,5-11.3,2.4-18.6,3.2-7.8.8-12.9,5.9-21.3,4.6-5.9-1-11.4-4.3-17-5.3-6.1-1.1-11.4-.4-17.5-3.5-7.5-3.7-13.5-11.1-19.3-16.7,3.1-2.4,9.3-2.6,13.2-3.9,5.2-1.7,10.4-3.5,15.6-5.1,10.8-3.4,21.5-6.9,32.3-10.3C532.372,435.563,554.072,429.463,575.472,426.163Z" fill="#34558b" fill-rule="evenodd"/><g id="ink"><path id="ink-layer" d="M898.272,89.963l-.7,4.5C904.172,95.663,904.372,91.663,898.272,89.963Zm-28.6-7.8c-3.5-1.2-9.3.6-6.5,4.8C867.072,92.963,868.872,85.163,869.672,82.163Zm-284,164.5c.5-.5-5.7-12.5-6.5-14.5-4,2.3-4.3,1.7-2.7,5.6C577.872,241.163,582.872,244.463,585.672,246.663Zm-368.1,3.3c-1.9-.2-5.8-1.3-7.4-.6-2.3.9-1.7,3.1-1.9,6.3C214.872,255.263,215.872,256.163,217.572,249.963Zm-8.7-6.5c3.3.6,6.5,1.2,9.8,1.8.7-3.7,2.5-9.9-4.3-7.7C213.672,237.763,209.772,242.163,208.872,243.463Zm384.5,7.6c-3.5,3.4,12.6,10.7,14.3,8.4C611.272,254.463,595.672,251.863,593.372,251.063Zm79.7-40.7c1.9-.2,3.9-.4,5.8-.6-.7-2.8-2.7-13.3-7-12.8C667.672,197.563,672.472,208.163,673.072,210.363Zm7.1,17.1c.1-2.4,1-7.6.1-9.9-.6-1.5-3.2-6.2-6.9-3.2-.8.6-1.2,10.1-.9,10.4C673.472,226.063,678.772,226.963,680.172,227.463Zm-20.1,30.3c-4-3.1-12.7-7.6-16.5-.7C638.072,266.763,656.572,260.263,660.072,257.763Zm-22.9.8a60.544,60.544,0,0,1-15.9.5c-6-.4-7.4-2.2-9.1,3.5,6.4,2.3,20,3.9,26.5,1.7Zm33.1-26.2c-1.8,3.8-5.8,8.7-6.9,12.6-.8,2.9-1.1,1.5-.4,3.7.2.8,3.5,4.2,4,5,3.9-3,8.7-6,10.7-10.6C680.872,235.763,676.772,235.163,670.272,232.363Zm-89.3-15.4c-13.4,4.2-29.8,8.2-43.9,7-.2,1.2,24,8.3,26.9,7.7,3-.5,3.2-4.6,6.7-6.8,3.9-2.4,7.1-1,11.4-1.4C581.672,221.363,581.372,219.163,580.972,216.963Zm43.9,56a83.8,83.8,0,0,1-34.1-9.3c-6.2-3.2-10.7-7.9-14.9-13.2-3.2-4.2-2.6-3.8-7.6-5.2-3.8-1-8.4-.6-12.2-1.1-12.9-1.6-25.7-5.5-38-9.6-13.8-4.6-25.6-11-40.7-10.6-26,.6-47,20.3-74.1,12-10.7-3.3-21.9-7.6-30.6-14.6-11.3-9.1-18.2-14.5-34.1-11.3-12.8,2.6-22.7,9.4-33.6,15.7-12.5,7.1-26.2,11.4-40.1,15.2a73.928,73.928,0,0,1-16.3,2.6c-3.4.2-19.6-2.3-21.6-.6-1.9,1.7-2.8,13.3-2.6,15.4.3,3.5-1.2,3.9,2.6,5.4,2.6,1,10.7,0,13.9.4,26.1,3,52.8,3.9,78.5,8.4,24.1,4.2,48.4,7.6,72.2,12.6,31,6.4,62.7,9.4,93.7,15.6,15,3,30.2,7.3,45,10.5,13.5,2.9,27.1,5.6,40.7,8.3-.5-1.9-3.3-8.7,1.2-8,2.9.4,7.7,10.3,9.2,12.5a125.313,125.313,0,0,0,23.8,26.1c9.5,8.2,19.1,16.3,28.7,24.4,7.9,6.6,24.8,16.4,24.4,27.9-4.8.9-14.3-7.6-17.9-9.9-7.3-4.7-14.3-9.8-21-15.1-6.4,9.3,8.7,20.2,10.5,29-3.9,0-10.4-10.7-12.8-13.5-6.3,5.8-13.3,11-17.8,18.3,50.6-2.2,58.9,60.6,95.4,81.9,8.1,4.7,18.2,6.7,27.5,4.6,9.6-2.2,18.9-5.2,27.4-10.6,18.9-12.2,32.8-35.5,40.2-55.6,4.1-11.1,8-21.8,9.8-33.5,2.1-12.9.1-26.1-1.5-38.9-3-22.9-15.2-46.1-32.4-62.5-7.7-7.4-16.2-13.8-23.3-21.8-2.5-2.8-8.1-13.5-11.2-14.2-5.7-1.2-8.7,6.8-12.6.2-3.9-6.4,3.5-8.9,8-11.9,4.9-3.2,9.6-6.6,14.3-10,9.4-6.7,18.7-13.2,27.7-20.4,43.9-34.7,82.8-73.3,122.1-112.7-7.4-1.7-17.8-6.8-25.3-5.4-7.5,1.3-14.2,6.6-22.1,7.5-7.7.9-15.2-.8-22.3-3.2-8.4-2.9-14.1-6.5-21.2.6-11.3,11.4-17.6,27.3-29.5,38.1-12,10.9-28.9,17.3-44.5,20.6-14.5,3.1-34.6,1.6-45.2,13-2.4,2.6-4.5,4.4-4.7,8.2-.2,6.8,1.3,1.9,3.5,6.2,3.6,6.9,5,15.5,5.8,23.1,1.6,15.4-.4,32.3-12.8,42.9C658.872,268.463,642.472,273.263,624.872,272.963Zm-.7-25c9,4.6,27.2-1.4,34.4-7,9.8-7.6,10.6-20.9,9-32-4.5,1.1-9.1,2.2-13.7,3.3-1.9.5-3.9.9-5.8,1.4a7.732,7.732,0,0,1-.8,4.5c-4.3,5.5-6.4,2.8-11-2-10-10.2-18.8-21.7-22.9-35.3-4.6,5.3-9.7,8.7-17,8-3.2-.3-15.5-4.1-12.3-9.7,1-1.8,11,.5,14.3.3,7-.4,10.3-.2,12.8-6.8,2.1-5.5,1.4-7.7-5.2-8.7-8.3-1.3-8.6,3.7-14.5,6-15.1,5.9-4.8-17.5-6.9-24.1,7.4-2.2,15.2-3.7,21.8-7.9-7.3.8-14.1,3.3-21.2,5,.6-8.6,17.7-10.5,24.2-13.2-6.9-.9-13.5,3.6-20.5,3.4-6.5-.3-15.6-3-21.9-5.1-6.4-2.1-11.5-8.1-17.7-2.9-4.1,3.4-9.5,12.7-10.9,17.6,4.1-.6,13.6-1.4,14.7,3.2,1.4,5.9-10.5,2.5-14.2,3.4-5.6,1.5-3.9,3.1-5.9,8.6-2,5.4-5.6,9.8-11.2,12,6.3,3.4,8,3.3,6.8,9.6-1.2,6.2-.4,13.1.2,20a42.687,42.687,0,0,1,11.8-2.4c.8,5-7,7.1-11.1,7.4,2.1,6.6,2.2,6.3,9.4,6.3,4.1,0,8.1-.2,12.2-.4,8.2-.4,16.2-1.9,24.3-3.2,3.1-.5,7.5-2.2,10.6-1.9,5.7.6,4.6,1.2,3.6,6-1.3,6.5.2,11.5,1.8,18.6-9.7-3.3-1.9,6.8,2.7,8.9C603.172,243.063,614.172,247.463,624.172,247.963Zm-529.2,394.8c6.8,3.4,13.3,6.6,19.6,11,6.2,4.4,12.8,11.7,20.7,13.1,9.4,1.7,11.7-3.2,14-10.4,2.6-8.1,5-11.8,12.4-16.2,13.2-7.9,28.6-13,42.9-18.7,5.5-2.2,5.9-1.8,4.3-7.3-1-3.4-2.2-6.7-3.5-9.9-2.4-6-5-12.4-9-17.7-22.8,15-50,32.3-78,35.9-11.4,1.5-22.6,4-33.8,5a40.071,40.071,0,0,0-14.9,4.3c-5.5,2.7-14.5,3.6-18.4,8C65.972,639.563,80.372,641.463,94.972,642.763Zm559,19.6c-4.6,1.9,1.6,12.7,2.9,17.2,2,6.8,3.9,13.5,5.8,20.3,4.2,14.3,8.2,28.6,12.2,43,26.4-14.3,54.7-22.6,84.1-29.4,29.2-6.8,59.1-11.7,89-16.4,16.3-2.6,33.5-6.1,48.6-12.7,9.4-4.1,7.6-8,7.4-17.1-.1-8.6-1.5-17.4-2.8-25.9-2.5-16.1-5.1-33.6-11.6-48.7-6.3-14.7-14.8-28.9-22.9-42.8-9.7-16.5-17.9-34.2-30.5-48.8-13.1-15.2-27.2-29-41.5-43.2-8.5,16.2-20.7,35.8-36.4,46-17.3,11.2-44.6,17-64.2,7.6-19.8-9.4-31.6-28.8-43.9-45.7-11.9-16.3-22.2-33.9-43.3-39.7-22.3-6.1-45.8,2.2-67.5,7.5-24.8,6-49.1,14.5-73.2,22.6-41.8,14.1-83.4,26.9-124.2,43.7-50.2,20.6-100.5,41.1-149,65.2,10.5,15,18.6,28.7,24.6,46a169.988,169.988,0,0,1,8.5,42.2c5.6-5.6,10-12.3,15.7-18,6.4-6.4,14-11.4,21.6-16.4a306.966,306.966,0,0,1,43-24.3c34.4-15.8,70.9-26.6,107.3-37.9,8.2-2.5,17.9-5.5,26.5-6.9,7.3-1.2,13.7-3.3,21.1-5,16.7-4,33.7-7.6,50.6-10.5,32.4-5.5,65.6-11.4,98.5-15.2,22.3-2.6,45.6-6.8,68.5-4.5,3.9.4,7.7,1.1,11.6,1,1.1,0,2.4-1.6,3.5-1.5,2.2.2,4.5,2.6,6.7,3.4,5,1.6,12.2.6,14.9,4.7,2.2,3.3,1.4,5.9-1.9,8.1,3.9,5,11.5,9.5,16.8,13.4,4.7,3.5,9.1,7.3,13.9,10.6,5.1,3.6,11.3,7,16.6,10.7,7,4.8,12.9,11,19.5,16.4,11.8,9.7,23.6,18.2,36,27.3a193.23,193.23,0,0,0,20.3,13.5c4,2.2,13,8.2,8.3,13.7-4.7,5.4-14.1-2.6-19.2-3.2-5.9-.7-13.8,3-19.7,3.9-15.6,2.3-31.2,4.3-46.7,6.8-17.8,2.8-35.4,6.6-53.2,9-9.2,1.2-18.4,2.4-27.7,3.2-4.8.4-11.5-.2-16,1.3-3.4-1-4.9,0-4.4,2.9A24,24,0,0,1,653.972,662.363Zm-492.5-406.7c9.7-.1,19.4.5,29.1.4,3.7,0,7,.7,8.5-1.9,1.9-3.2,1-11.4,1.3-15a192.639,192.639,0,0,1-33.1.2c-12.2-1.1-24-4.5-36.2-5.3,2.6,1,5.6,6.4,3.9,9s-4.4.3-7.1-.9c-10.3-4.5-18.9-11.3-30.5-8.3,10.7,5.5,20.8,14.3,32,17.6A118.335,118.335,0,0,0,161.472,255.663Zm722.2-179c4.7.9,14,5.6,18.2,3.2,5.2-2.9,4.1-14.7,4.3-19.3.6-14.1,1.7-33.5-9.4-44.9-2,13.5,2.3,27.7,2,41.4-.2,10.3-4.1,4.7-5.5-2.6-1.3-6.7-1.1-13.2-2.8-19.8-3.1,5.4-3.9,12.6-6.1,18.6-2.8,7.5-6.8,14.2-10.7,21.2C876.972,75.063,880.272,75.863,883.672,76.663Zm-676.1,185.2c-.1,3.9-.6,7.7,4.3,8,6.5.5,4.4-6.2,4-10.4C213.572,259.863,208.172,259.163,207.572,261.863Zm673.4-178.8c-4.1-.5-4.7-1.4-7.3,1.4-1.7,1.8-1.8,5.1-.4,6.3C879.472,95.763,880.472,85.863,880.972,83.063Zm3.8,9.2c3.2.6,6.3,2.3,8.1-.8,2.6-4.6-3.7-5-7.1-6.4C885.472,87.363,885.072,89.763,884.772,92.263Zm-200.6,436.7c-35.3-.8-70.1,4.7-104.7,10.8-30.7,5.4-61.1,9.9-91.1,16.6-60.4,13.6-120.9,28.9-177,55.1-13.6,6.4-27.2,12.7-39.8,20.5-6.7,4.2-13.6,8.3-20,13-3.5,2.6-7.2,5.1-10.4,8-3,2.6-4.7,6.2-7.4,8.7-1.3,1.2-6.8,5.6-8.4,6.1-3.5,1.1-2.1,1.2-5.7-1.3-7.4-5.1-8.9-11.8-11.1-19.9-1.6-5.7-.4-7.6-5.5-7.4-2.6.1-6.6,2.8-9,3.8-7.9,3.3-16.4,5.9-23.9,9.8-6.1,3.1-11,7.2-13.6,13.4-3.1,7.4-4.9,13.4-14.2,14.2-16.7,1.5-26.3-15.2-40.6-20.8-15.3-6-34.7-4.8-50.9-5a116.945,116.945,0,0,0-17.9,1.3c-7.9,1.1-17.3,5.4-25.5,2.7-9.5-3.1-9.3-16.6-3-22.4,6.5-6.1,16.3-6.9,24.6-9,16.9-4.1,32.3-13.4,49.6-16.3,17.2-2.9,35.4-3.5,52.2-8.7,8.5-2.7,16.8-4.7,24.9-8.4,10.1-4.6,21-7.7,31-12.2-3.4-6-4.4-11.6-4.6-18.4-.1-4.5-.9-4.5,2.3-6.4.6.3,1.2.6,1.9,1,2,1.4,3.4.8,4.2-1.9,13.9-8.4,26.7-17.4,41.5-24.7,24.8-12.2,51.1-22.1,75.8-33.8,47.1-22.2,99.6-34.9,149.1-51.2,30-9.8,60.7-17.9,91.4-25.1,5.4-1.3,10.8-2.3,16.2-3.2,9.3-1.4,7.1-1.5,11.8-8.6,6-9.2,15.5-18.9,25.2-24.6,6-3.5,8.5-3,8.3-10.6-.1-5.8-1.7-5.8-6.5-9.7a121.648,121.648,0,0,1-15-14.6c-5.2-6-7.5-12.7-11.9-18.8-5.3-7.4-21.6-6.1-30.7-7.4-14.3-2-28.8-3.5-42.9-6.6-28.4-6.3-57-8.5-85.8-12.9-28.9-4.4-57.9-8.5-86.8-12.5-10.4-1.4-20.9-2.7-31.2-4.5-14.5-2.5-29.7-2.7-44.4-5.1-7.6-1.2-16.8-5.5-24.4-5.1-8.2.4-.9.3-6.2,3.1a18.753,18.753,0,0,1-8,2.5,13.918,13.918,0,0,1-11.5-5c-4.5-5.6-2.3-9.8-11.4-10.5-6-.5-13,1.8-19,2.2-6,.3-12.1,1.2-18.1,1-11.9-.4-26.1-1.4-36.9-6.5-11.5-5.4-21.7-12.6-33.8-17.2-6.1-2.3-14.7-3.3-18.7-8.8-3.4-4.6-4.4-14.1.8-17.9,8-5.8,23.4,3,32.2.8,4.5-1.1.8-2.5,4.2-4.1,2.1-1,1.8-1.1,4.3-1.5,6.2-.9,16.3,3.5,22.6,4.5,12.4,2,24.7,5.1,37.1,7,7.1,1.1,14.3,1.4,21.3,2.5,6.2,1,11.2,3.4,15.7-1.5,1.9-2.1,1.3-4.2,4.3-5.3,2.7-1,10.5.4,13.1,1.4,2.9,1.1,3.5,2.7,5.8,3.9q.15,3.6,3,2.1a24.487,24.487,0,0,1,5.4.3c15.7.1,31.4-4.8,45.7-10.6,23.7-9.6,53.1-36.6,80.3-21.9,6.7,3.6,11.1,9.7,17.6,13.6a93.384,93.384,0,0,0,19.7,8.6c13,3.9,25.9,3.4,38.8-.6,15.7-5,28.4-10.1,45.3-9.6,15.7.5,28.2,11.4,43.6,11.8-3.8-6-4.4-13-4.8-19.8-.3-4.5,2.2-16.2-.5-19.8-3-4-26.3-5.6-13.3-17.4,4.3-3.8,12.1-2.5,16.5-6.7,4.4-4.3,4.5-11,6.9-16.3,2.7-6,7.1-11,11.6-15.9,1.9-2,3.2-3.3,4.3-5.8,1.3-2.9.4-5.3,2.5-8.3,6.8-10.1,18.8-6.6,29.2-5.3,6.3.8,13.9,0,20,1.8,4.9,1.4,11.3,5.6,15.3,8.6,8.8,6.8,10.9,19.3,11.5,29.5.4,6-.8,11.6-.9,17.6-.1,6.3-2.8,9.1-7.7,13.2a2.5,2.5,0,0,0-1.7-2.3c-2.1,2.6-1.6,3.6,1.6,3.1a7.131,7.131,0,0,0,1.7,4.2c2.7,3,4.9,6.2,7.5,9.2,5.7,6.6,12.3,12.3,16.6,19.8,4.6-5.3,10.4-6.2,15.8-9.9,5.3-3.6,1.3-4.6,3.3-9.8.8-2.1,2.9-2.4,3.6-4,.7-1.5-.2-2.5.3-4.1,2.1-8.3,1.2-13.4,7.9-19.9,8.8-8.7,19.7-11,31.9-12.6,12.1-1.6,20.7-2.2,31.5-7,3.7-1.7,7.3-2.4,10.8-4.3a75.106,75.106,0,0,0,13.4-8.7c9.7-8,15.7-19.1,23.6-28.8,6.3-7.7,13.8-17.5,25.2-15.5,12.9,2.3,24.2,10.1,38,5.9,5.1-1.6,4.5-.6,6.6-5.5.7-1.6,1.1-3.3,1.8-4.9,2.4-6,7.1-6.8,10-11.7,6.9-11.6,10.6-26.1,14.5-38.9,1.8-5.9,5.3-11.1,7.5-16.7.9-2.4.5-13,3.3-13.9,9-3,16.2,20.5,17.9,24.9,4.3,11.6,8,24.7,6.4,37.1-.7,5.1-1.2,11.1-2.6,16.1-1.2,4.6-1.5,4.3-.8,8.4.7,4.2,1.6,6.7,1,11.1-.2,1.2-.7,5.8-1.3,6.4-2.5,2.9-2.8.9-5.9,2-4.9,1.9-6.2,3.5-9.7,7.9-8.8,11.1-17.9,22.2-27.4,32.7-16.6,18.5-34.1,35-52.7,51.4-18.3,16.1-37.4,32.5-58.2,45.6-5,3.2-13.3,6-17.4,10.2-4.4,4.6,2.3,6.6,6.9,9.8,9.1,6.5,18.4,13.1,26.3,20.7,16.8,16.1,26.5,39.8,32.4,61.3,3.1,11.2,3.7,24.1,4.9,35.7a102.468,102.468,0,0,1-4.6,41.5c-1.6,4.9-3.5,9.7-5.1,14.7-.7,2.3-4.3,9.3-3.3,11.9,1.6,4.3,12.1,9.6,15.8,12.6,5,4.1,10.2,8.4,14.4,13.3a383.357,383.357,0,0,1,45.7,66.8c13.4,24.4,26,46.4,31.3,73.9,1.4,7.2,2.6,14.3,4.1,21.5,1.6,7.7.1,18.8,3.2,25.9,1.9,4.4,5.5,5.7,4.1,11.7-1.3,5.2-7.7,14.4-11.2,18.5-8,9.3-22.6,13-34.1,16.4-14,4.1-28.9,6-43.3,8.3-51.9,8.4-102.7,17.6-150.7,39.2,1.6,2.4,2.9,7.4-.4,9.1-4.4,2.2-6.5-4.2-8-7.1-4.4-8.2-5.7-18.9-8.3-27.9-6.4-22-11.2-44.2-16.4-66.4-17.7,3.7-35.5,5.7-53.1,9.1-8.1,1.6-16.3,1.7-24.5,2.7-8.8,1.1-9.3,3.8-8.6,12.2,1.5,18.4,8.9,36.1,13.1,54.1,2,8.7,5.6,17,7.5,25.6.6,2.8-.1,10.4,1.9,12.5-.1-.1,6.7,1.3,7.8,1.5-.6-10.9.7-21.6.2-32.4-.6-11.2-2.1-26,.4-36.8,2.3-9.9,11-20.3,20.6-24.5,8.4-3.6,25-9.5,34-4.1,1.6.9,5.4,3.9,4.5,6.2-1.2,3.1-14.6,5.4-17.3,6.4-10.6,3.7-21.9,10.3-27.9,19.7-5.4,8.5-3.2,21.7-3,31.5.1,5.6.8,10.7.1,16.2-1,7.8-1.4,10.7,1.8,17.4,3.8,7.9,1.4,19.5-9.8,16.7-6.7-1.7-7-5.4-11-9.4-1.5-1.5-3.3-.8-4.8-2.7-2-2.6-2-8.2-3-11.4-3.3-10.3-7.9-20.4-11.3-30.7-4.6-14-8.4-28.1-11.7-42.4-2.6-11.1-5.4-22.4,0-33.2,4.8-9.6,16.4-8.9,26.1-9.2,22.4-.8,45.5-5.7,68.4-6.8,1.6-.1,5.1.5,6.5-.2,2-.9,2.8-3.7,5.4-5.5,5-3.4,15-4.5,20.8-5.6,13.2-2.3,26.3-4.2,39.4-6.7,15.1-2.8,30-6.2,45.1-8.7,14.5-2.4,29.1-2.9,43.7-4.6-23.2-15-43.6-33.2-66-49.4a289.5,289.5,0,0,1-29.2-23.6,146.626,146.626,0,0,1-11.2-11.1c-1.9-2.1-3.5-6.1-5.9-7.5C691.472,528.763,688.072,529.263,684.172,528.963Z" fill-rule="evenodd"/><path id="ink-layer-2" data-name="ink-layer" d="M598.972,107.563c-7.7-.7-16.5-.7-23.9-2.4,6.5.6,17.9.2,23.9,2.4" fill-rule="evenodd"/><path id="ink-layer-3" data-name="ink-layer" d="M177.072,227.563c-3.3-.3-6.5-.6-9.8-.9a21.763,21.763,0,0,1,9.8.9" fill-rule="evenodd"/><path id="ink-layer-4" data-name="ink-layer" d="M378.172,298.563c2.2.2,4.4.4,6.5.6-2.1-.2-4.3-.4-6.5-.6" fill-rule="evenodd"/><path id="ink-layer-5" data-name="ink-layer" d="M600.572,749.763c.1-2.6.2-5.1.3-7.7-.1,2.6-.2,5.2-.3,7.7" fill-rule="evenodd"/><path id="ink-layer-6" data-name="ink-layer" d="M588.572,769.563c0,1.8-.1,3.7-.1,5.5,0-1.9.1-3.7.1-5.5" fill-rule="evenodd"/><path id="ink-layer-7" data-name="ink-layer" d="M325.172,290.563c1.5.2,2.9.4,4.3.6-1.5-.2-2.9-.4-4.3-.6" fill-rule="evenodd"/><path id="ink-layer-8" data-name="ink-layer" d="M570.672,104.763c-1.8-.2-3.6-.3-5.4-.5,1.8.2,3.6.4,5.4.5" fill-rule="evenodd"/><path id="ink-layer-9" data-name="ink-layer" d="M588.872,741.063c-.1,1.8-.1,3.7-.2,5.5.1-1.8.2-3.7.2-5.5" fill-rule="evenodd"/><path id="ink-layer-10" data-name="ink-layer" d="M316.372,289.863c1.5.1,2.9.3,4.4.4-1.5-.1-2.9-.2-4.4-.4" fill-rule="evenodd"/><path id="ink-layer-11" data-name="ink-layer" d="M339.172,292.963c1.5.1,2.9.3,4.4.4-1.5-.1-2.9-.2-4.4-.4" fill-rule="evenodd"/><path id="ink-layer-12" data-name="ink-layer" d="M513.472,319.263l3.3.3c-1.1-.2-2.2-.2-3.3-.3" fill-rule="evenodd"/><path id="ink-layer-13" data-name="ink-layer" d="M589.672,759.763c-.1,1.5-.3,2.9-.4,4.4.1-1.5.2-2.9.4-4.4" fill-rule="evenodd"/><path id="ink-layer-14" data-name="ink-layer" d="M683.872,529.363l3.3.3q-1.8-.15-3.3-.3" fill-rule="evenodd"/><path id="ink-layer-15" data-name="ink-layer" d="M132.772,219.163c-1.4-.3-2.9-.5-4.3-.8,1.5.3,2.9.6,4.3.8" fill-rule="evenodd"/><path id="ink-layer-16" data-name="ink-layer" d="M157.672,223.663l-4.3-1Z" fill-rule="evenodd"/><path id="ink-layer-17" data-name="ink-layer" d="M99.772,220.663c-1.4-.3-2.9-.6-4.3-.8,1.4.3,2.9.6,4.3.8" fill-rule="evenodd"/><path id="ink-layer-18" data-name="ink-layer" d="M668.472,529.163c.7.1,1.5.2,2.2.3a8.329,8.329,0,0,0-2.2-.3" fill-rule="evenodd"/><path id="ink-layer-19" data-name="ink-layer" d="M517.972,180.163c.7.1,1.4.2,2.2.3a8.918,8.918,0,0,1-2.2-.3" fill-rule="evenodd"/><path id="ink-layer-20" data-name="ink-layer" d="M763.072,627.063c-1.5.1-2.9.2-4.4.3,1.4-.1,2.9-.2,4.4-.3" fill-rule="evenodd"/><path id="ink-layer-21" data-name="ink-layer" d="M811.272,408.363l.3-3.3-.3,3.3" fill-rule="evenodd"/><path id="ink-layer-22" data-name="ink-layer" d="M551.572,323.663c.7.1,1.5.1,2.2.2a17.96,17.96,0,0,0-2.2-.2" fill-rule="evenodd"/><path id="ink-layer-23" data-name="ink-layer" d="M254.572,282.363c.7,0,1.5.1,2.2.1-.8,0-1.5-.1-2.2-.1" fill-rule="evenodd"/><path id="ink-layer-24" data-name="ink-layer" d="M140.772,253.263c3.4.3,6.5.4,9.7,1.4-3.1-.2-6.8.2-9.7-1.4" fill-rule="evenodd"/><path id="ink-layer-25" data-name="ink-layer" d="M175.772,254.863a15.264,15.264,0,0,1,8.7.6q-4.35-.15-8.7-.6" fill-rule="evenodd"/><path id="ink-layer-26" data-name="ink-layer" d="M623.972,248.463c2.5.2,5.1.4,7.6.6a10.5,10.5,0,0,1-7.6-.6" fill-rule="evenodd"/><path id="ink-layer-27" data-name="ink-layer" d="M880.872,82.663c-1.8-.2-3.6-.5-5.4-.7,1.8.3,3.6.5,5.4.7" fill-rule="evenodd"/><path id="ink-layer-28" data-name="ink-layer" d="M88.172,642.263c2.3-1.1,4.4-.3,6.5.6-2.2-.3-4.4-.4-6.5-.6" fill-rule="evenodd"/><path id="ink-layer-29" data-name="ink-layer" d="M224.372,254.963c0,1.8-.1,3.7-.1,5.5,0-1.8.1-3.7.1-5.5" fill-rule="evenodd"/><path id="ink-layer-30" data-name="ink-layer" d="M625.072,272.963c-1.5-.1-2.9-.2-4.4-.3,1.5.1,3,.2,4.4.3" fill-rule="evenodd"/><path id="ink-layer-31" data-name="ink-layer" d="M536.072,312.163c1.8.3,3.6.7,5.4,1-1.8-.3-3.6-.7-5.4-1" fill-rule="evenodd"/><path id="ink-layer-32" data-name="ink-layer" d="M163.972,239.163c-1.5-.1-2.9-.2-4.4-.2,1.5.1,3,.2,4.4.2" fill-rule="evenodd"/><path id="ink-layer-33" data-name="ink-layer" d="M524.172,309.863c1.8.3,3.6.7,5.4,1-1.8-.1-3.8.5-5.4-1" fill-rule="evenodd"/><path id="ink-layer-34" data-name="ink-layer" d="M181.372,240.763c-1.1-.1-2.2-.1-3.3-.2,1.1.1,2.2.1,3.3.2" fill-rule="evenodd"/><path id="ink-layer-35" data-name="ink-layer" d="M495.172,303.063c1.8.3,3.6.7,5.4,1-1.8-.3-3.6-.6-5.4-1" fill-rule="evenodd"/><path id="ink-layer-36" data-name="ink-layer" d="M884.472,92.463c1.8.3,3.6.7,5.4,1-1.9-.3-3.6-.6-5.4-1" fill-rule="evenodd"/><path id="ink-layer-37" data-name="ink-layer" d="M429.272,292.063c1.8.2,3.6.4,5.4.5-1.8-.1-3.6-.3-5.4-.5" fill-rule="evenodd"/><path id="ink-layer-38" data-name="ink-layer" d="M883.572,77.063c1.8.3,3.6.7,5.4,1-1.8-.3-3.6-.7-5.4-1" fill-rule="evenodd"/><path id="ink-layer-39" data-name="ink-layer" d="M224.472,262.863c1.8.1,3.6.2,5.5.4a5.185,5.185,0,0,1-5.5-.4" fill-rule="evenodd"/><path id="ink-layer-40" data-name="ink-layer" d="M584.572,152.663c.1-1.5.3-2.9.4-4.4-.1,1.5-.3,2.9-.4,4.4" fill-rule="evenodd"/><path id="ink-layer-41" data-name="ink-layer" d="M584.072,158.063c.1-1.5.3-2.9.4-4.4-.1,1.5-.2,3-.4,4.4" fill-rule="evenodd"/><path id="ink-layer-42" data-name="ink-layer" d="M589.972,423.463c-1.1-.1-2.2-.1-3.3-.2,1.1.1,2.2.2,3.3.2" fill-rule="evenodd"/><path id="ink-layer-43" data-name="ink-layer" d="M685.072,220.663c-.2,1.4-.3,2.9-.5,4.3.2-1.4.4-2.8.5-4.3" fill-rule="evenodd"/><path id="ink-layer-44" data-name="ink-layer" d="M708.572,497.863c1.8,0,3.7,0,5.5-.1-1.9,0-3.7,0-5.5.1" fill-rule="evenodd"/><path id="ink-layer-45" data-name="ink-layer" d="M586.072,205.263a3.778,3.778,0,0,1,4.4.4c-1.5-.2-3-.3-4.4-.4" fill-rule="evenodd"/><path id="ink-layer-46" data-name="ink-layer" d="M598.372,189.563c-.7-.1-1.4-.2-2.2-.3.8.1,1.5.2,2.2.3" fill-rule="evenodd"/><path id="ink-layer-47" data-name="ink-layer" d="M605.372,410.363c1.4.3,2.9.6,4.3.9-1.4-.3-2.9-.6-4.3-.9" fill-rule="evenodd"/><path id="ink-layer-48" data-name="ink-layer" d="M555.772,526.163c1.5,0,2.9-.1,4.4-.1-1.5,0-2.9,0-4.4.1" fill-rule="evenodd"/><path id="ink-layer-49" data-name="ink-layer" d="M524.472,532.163c1.5,0,2.9-.1,4.4-.1-1.4,0-2.9.1-4.4.1" fill-rule="evenodd"/><path id="ink-layer-50" data-name="ink-layer" d="M511.172,534.363c1.5-.1,2.9-.1,4.4-.2Z" fill-rule="evenodd"/><path id="ink-layer-51" data-name="ink-layer" d="M497.772,536.463l4.4-.2c-1.4.1-2.9.1-4.4.2" fill-rule="evenodd"/><path id="ink-layer-52" data-name="ink-layer" d="M779.372,640.863c-1.1-.1-2.2-.1-3.3-.2,1.2.1,2.2.1,3.3.2" fill-rule="evenodd"/><path id="ink-layer-53" data-name="ink-layer" d="M555.472,316.063c1.4.3,2.9.6,4.3.9-1.4-.3-2.8-.6-4.3-.9" fill-rule="evenodd"/><path id="ink-layer-54" data-name="ink-layer" d="M826.172,106.263c-.7,0-1.5-.1-2.2-.1.7,0,1.5.1,2.2.1" fill-rule="evenodd"/><path id="ink-layer-55" data-name="ink-layer" d="M175.972,240.363a16.352,16.352,0,0,0-2.2-.2,17.96,17.96,0,0,1,2.2.2" fill-rule="evenodd"/><path id="ink-layer-56" data-name="ink-layer" d="M483.372,299.863c1.4.3,2.9.6,4.3.9-1.4-.3-2.8-.6-4.3-.9" fill-rule="evenodd"/><path id="ink-layer-57" data-name="ink-layer" d="M319.072,272.363c1.4.3,2.9.5,4.3.8-1.4-.3-2.9-.5-4.3-.8" fill-rule="evenodd"/><path id="ink-layer-58" data-name="ink-layer" d="M192.072,256.263c1.5,0,2.9-.1,4.4-.1-1.4,0-2.9,0-4.4.1" fill-rule="evenodd"/><path id="ink-layer-59" data-name="ink-layer" d="M232.072,263.163c1.5-.6,3-.9,4.4.3-1.5-.1-2.9-.2-4.4-.3" fill-rule="evenodd"/><path id="ink-layer-60" data-name="ink-layer" d="M735.472,351.363c5.3.8,7.8,2,9.2,7.1.7,2.4-1.2,6.8-.6,8.3.9,2,2.1.9,3.6,2.8,5.4,6.9,8.3,20.5-2.3,25.3-4-4.8-2.6-10.5.1-15.5-5.7-1.3-8.7-1.5-10.5-7.3-.2-.7-.6-9.1-.8-9.3-1.2-1.2-6,0-7.6-.9-3.6-2-5.3-8.9-4.4-12.7,1.3-5.3,6.9-8,11.1-11-13.7.3-26.2,10.7-39.9,11.3-3.8.2-4.8,1.9-6.1-2.4-1.2-3.8.1-3.3,2.7-5.2,5.1-3.7,12.9-6.2,19-8.4,8.8-3.1,23.9-10.4,33.4-6.3,4.7,2,8.1,8.3,6.6,13.1-1.5,4.9-9.7,8.3-13.5,11.1" fill-rule="evenodd"/><path id="ink-layer-61" data-name="ink-layer" d="M740.972,280.763c3.9,6.1,5.6,12.5,1.4,19,6-.5,12.7-1.6,16.6,3.9,5.7,7.9-.2,10.4-6.8,10.9-5.3.4-15.8,3.8-20.5.2-7.6-5.9,0-17,2.9-22.6-4.9.2-17.1,1.6-15-7.5,1.6-6.7,16.6-5,21.4-3.9" fill-rule="evenodd"/><path id="ink-layer-62" data-name="ink-layer" d="M678.372,320.263l-4.7,5.6c2.4.5,5.7-1.5,7.8-2.4C680.372,322.363,679.372,321.263,678.372,320.263Zm-7.2-7.5c-5.6-.8-11.7,6.6-13-1.7-.8-4.8,3.7-11,9-11.7,9.2-1.3,22.2,19.7,24.5,26.9,2.1,6.7-.1,5.7-5,8.2-4.2,2.1-9.7,7.1-15.2,5.6-5-1.4-6.6-9.4-6.6-13.6C664.872,319.963,668.772,317.863,671.172,312.763Z" fill-rule="evenodd"/><path id="ink-layer-63" data-name="ink-layer" d="M699.772,312.663c.8,2.6,7,14.7,1.5,14.7-3,0-8.7-17.5-9.6-19.6-1.1-2.8-3.5-6.5-3.1-9.7.7-5.4.4-3.7,4.1-3.1,7.1,1.1,13,12,19.7,14.7-2.8-10.3-7-21.7-4.1-32.3,8,7.4,8.4,22.7,10.6,32.8.7,3.1,2.3,9.4-1.1,11.5-3.7,2.6-15.4-7.3-18-9" fill-rule="evenodd"/><path id="ink-layer-64" data-name="ink-layer" d="M648.572,335.063c2.7-5.6,5.5-12.1-4.3-10C645.772,328.363,647.172,331.663,648.572,335.063Zm-3.1-23.4c8.4-.7,13.2,10.4,14.1,16.8.7,5.1-4.6,23-11.8,17.6-2.7-2-4.2-7.5-5.9-10.3-2.4-3.8-5.8-7.4-7.6-11.5C630.372,315.663,637.272,311.663,645.472,311.663Z" fill-rule="evenodd"/><path id="ink-layer-65" data-name="ink-layer" d="M645.772,311.863c-1.8,0-3.7,0-5.5.1,1.9,0,3.7-.1,5.5-.1" fill-rule="evenodd"/><path id="ink-layer-66" data-name="ink-layer" d="M741.772,281.363c-1.4-.3-2.9-.7-4.3-1,1.4.3,2.8.7,4.3,1" fill-rule="evenodd"/><path id="ink-layer-67" data-name="ink-layer" d="M753.272,299.963c-1.5-.1-2.9-.3-4.4-.4a3.764,3.764,0,0,1,4.4.4" fill-rule="evenodd"/><path id="ink-layer-68" data-name="ink-layer" d="M551.872,157.463c7.1,5.1-8.6,24.2-14.8,8.7-1.7-4.3-1.2-9.7,3.4-8.6,2.1.5,2.3,3.6,5.2,3.7,2.8.2,4.2-2.3,6.2-3.8" fill-rule="evenodd"/><path id="ink-layer-69" data-name="ink-layer" d="M593.072,175.363c.1-3.8,7.4-11.4,11.6-6.4s-8.5,6.2-11.6,6.4" fill-rule="evenodd"/></g></g></svg>