<svg id="Layer_1" data-name="Layer 1" xmlns="http://www.w3.org/2000/svg" viewBox="0 0 954.016 590.203"><title>1</title><g id="Illustrations_reading-side" data-name="Illustrations/reading-side"><path id="Accent" d="M703.134,476.1c-4.5,5.2-11.2,9.1-16.3,13.9-5.4,5-11.2,9.4-16.6,14.4-23.6-28.9-56-46.6-84-70.5-13.3-11.4-23.1-26.8-30.2-42.6a137.38,137.38,0,0,1-8.5-25.1c-1-3.9-1.9-7.8-2.5-11.7-.8-4.8-1-5.2-4.2-8.9-1.4-1.6-4.1-6.3-6.8-5.8-2.3.4-6.5,7.4-7.9,9.1-6.9,8.3-13.7,16.8-21,24.7-11.2,12.2-21.4,24.1-31.8,37-21.2,26.4-44.2,51.2-67.3,76-1.7,1.8-5.7,7.2-8.2,8-3,.9-7.9-2.8-10.9-4.8-7.3-5-13-11.1-19.2-17.2-12.1-12-20.4-28.8-25.9-44.8-3.3-9.6-5.5-19.5-8.9-29.1-1.4-4-4.7-8.9-3-12.3.5-1,3.6-3.8,4.7-4,1.3-.2,3.5,1.5,3.9,1.4,4.3-1.2,1.9-5.7,4.5-8.1,1.4-1.4,8.8-1.2,11-1.9,8.1-2.8,15.3-8,22.9-11.2,31.9-13.2,64.1-26,91.6-47.5,7.1-5.6,11.9-9.8,20.4-13.4,8.6-3.6,17.2-6.9,26-10.1a237.319,237.319,0,0,1,23.5-7.4c8.6-2.2,20.9-4.9,29.6-2.1,17,5.5,22.5,19.5,29.2,34.2,9.1,20,20.2,38.8,32.2,57.2,23.2,35.3,51.2,67,73.7,102.6" fill="#34558b" fill-rule="evenodd"/><g id="ink"><path id="ink-layer" d="M192.034,163.6c-.9-.5-8.2,2.5-9.4,2.9-4.9,1.8-9.5,4.8-14.1,7.3,3.5,4.3,7.1,8.6,10.6,12.9,3.4-8.4,7.8-15.4,12.9-23.1Zm2.4,52.8c-1.2.1,8.9,24.5,10.1,27.2,4.3,10,8.8,19.8,13.2,29.7,4.2,9.6,9.6,18.5,15,27.5,4.6,7.7,9.4,19.6,16.4,25.3-4.4-19.5-3.8-42-16.5-58.4-13.1-16.9-26-33.5-38.2-51.3ZM703.134,477c-19.6-31-44.1-58.4-64.5-88.8-11.4-17-22.5-34.3-32.2-52.4-7-13.2-11.3-32-22.1-42.1-4.8-4.4-9.8-8.8-16.2-10.8-8.7-2.7-20.8,0-29.6,2.1-16.4,4-32.4,10.2-47.9,16.8-15.7,6.6-29.1,18.6-43.3,28.1-15.2,10.3-31.7,17.8-48.8,24.3-14.9,5.7-28.1,13.9-42.9,19.6-2.9,1.1-9,1-11.4,2.5-2.7,1.6-1.6,6.4-4.8,8.1-1.5.8-1.9-2.1-3.1-2-1.4.1-2.6,1.7-3.9,2.7-5.4,4.1-2.1,6.9,0,12.6,6.9,18.6,10.7,37.5,20.4,55.1a112.277,112.277,0,0,0,33,36.9c2.1,1.5,8.7,7.1,11.2,6.7,2.2-.3,6.6-6.1,8.1-7.7,6.8-7.1,13-14.8,19.8-21.9,10.5-11,20.6-22.3,30.8-33.4,11.8-12.9,22.3-27.6,32.9-41.4,4.9-6.4,11.2-11.5,16.6-17.4,7.3-7.9,14-16.5,21-24.7,2.1-2.5,5.6-8.9,8.9-8.8,2.3.1,6.3,5.4,7.5,7.1,4.4,6.3,4.4,17.6,6.6,25.4,5.4,19.1,15.1,37.8,28.5,52.5,13.3,14.7,30.3,25.1,46,36.9,17,12.8,33.1,25.8,46.6,42.3,5.4-5,11.2-9.3,16.6-14.4,5-4.8,11.7-8.7,16.2-13.9Zm-251.8,87.7c3.8,0,10.2,2.4,13.6,1-10.1-11.2-19.4-20.8-32.1-28.9-13.3-8.5-26.5-16.9-39.3-26-25.9-18.3-45-39.9-55.9-70.3-2.8-7.8-4.7-16-6.7-24.1-1.1-4.3-3.3-24.6-7-26.4-2.2-1-18.8,10.6-21.4,12.1a186.62,186.62,0,0,1-18.7,8.7,288.856,288.856,0,0,1-42.2,13.7c-17.4,4.4-29.2-2.9-39.9-16.5-12.2-15.5-22.3-32.9-33.5-49.2a148.165,148.165,0,0,1-13-22.9c-2.5-5.3-12.2-19.7-8.8-25.4,9.6,7.3,13,21.8,19.6,31.6,8.1,12.2,17.3,23.7,25.5,35.8,6.9,10.2,13.9,22.6,24.1,30,8.9,6.5,17.4,4.5,27,1.6,11.7-3.5,23.7-5.3,35.2-9.6,12.4-4.7,24.1-11.4,36.1-16.9,5.6-2.5,12.4-4,17.7-7.2,4.6-2.7,3.9-4.2,4.2-10,.4-6.8.8-13.6,1.1-20.4.2-4.6-2.3-10.8-.6-14.2-13.7,2.4-27.1,5.6-40.7,8.4-7.4,1.5-14.6,3.4-22.1,4.7-2.9.5-6.8.4-9.4,1.7-2-.6-3.1-.2-3.1,1.1a15.985,15.985,0,0,1-.5,2.1c-4.2,1.9-6.6-2.2-10.3-6.1a88.453,88.453,0,0,1-11.2-16c-7.4-12.7-15.9-24.7-22.7-37.8-7-13.4-12.6-27.7-18.5-41.5-5.4-12.7-8.9-26.5-14.8-38.9a70.019,70.019,0,0,0-10-14.8c-3.3-3.9-8.3-12.2-13.1-14-1.3-.5-4.7.3-6.1.2-2.9-.2-5.5-1.3-8.5-1-6.5.5-13.5,4.6-18.6,8.2,3.3,3,11.7,6.6,5.7,11.9-5.8,5.2-9-4.1-11.2-8.2-10.4,8.6-8.9,20.4-10.1,32.5-.6,6.3-2.3,12.6-3.4,18.8-.8,4.5-.2,9.1-.4,13.7-.6,11.6-1.7,22.8-1.7,34.2.1,12.3.9,24.1,1.9,36.3,1.7,20.5,5.4,41,8.7,61.3,1.8,11.4,4.3,22.5,6.7,33.8,2.8,12.8,7.8,24.8,10.7,37.6,2.9-3.7,5.1-3.7,9.8-3.2,3.6.4,6-.5,5.8,4.5-.1,3.3-3,5.7-6.2,6.3-4.1.7-5.6-1.3-7.7-4.5-.5,5.9,3.5,12.2,5.1,18,1.5,5.5,2.5,10.9,5,16.2,2.5,5.1,4.6,10.2,7,15.3,1.1,2.3,2.2,4.7,3.4,7.1a23.165,23.165,0,0,0,2.1,3.8c2,2.3,1.7,1.2,4.1,2.5,5.2,2.9,3.3,2.2,3.4,8.2.1,5.9,3.1,10.2,8,13.6,10.3,7,20.5,9,32.2,12.6,10.9,3.3,22.4,6.2,34,6.1,14.2-.1,28.1-1.9,42.3-2.1,15.6-.2,31.4-.1,47,.4,6.4.2,12.4.5,18.6,2.1,7.2,1.9,14.2,1.2,21.6.9,15.8-.6,32.2-1.8,47.8-2,11.2-.4,23.1-1.2,34.4-.5Zm410.5,6.1c2.8,1.5,9.1.9,12,.5,5-.7,5.5-2.7,8.7-7.1,5.4-7.7,9.9-15,13.1-23.9,6.1-17,8.6-34.3,11.3-52.1,3-19.7-2.5-40.2-4.4-59.8-.4-4.5-1.1-8.9-1.8-13.4-.4-2.7-.5-11.7-2.3-14-3.4-4.4-19.1-.9-25.2-.5-17.2,1.1-34.5,1.4-51.7,1.6-9.2.1-18.4.5-27.5.6-4.2,0-8.2-.2-12.4-.6-1.4-.1-2.8-.5-4.2-.5-4.8-.3-4.5-1-5.7,3.3-2.2,7.5-.5,17-1.1,24.8-.8,10.4-1.2,20.9-1,31.3.2,9.6-.2,19.2.2,28.9a52.16,52.16,0,0,0,1.6,11.1c1.2,4.3,2.5,14.4,5.5,17.4.3.3,2.9-.5,3.5.4,1,1.3.8,4.1,1.6,4.9,2.3,2.7,7,2.9,10.5,4.2a237.887,237.887,0,0,1,27,11.5c7.9,4,20.7,7.5,25.5,15.5,2.2,3.7,2.5,8.5,4.5,12.3,2.3,4.3-2.3,2.1,3.3,3.8,2.4.6,6.5-.2,9-.2Zm-836.7-48.7c-.7,9.9-6.3,19.4-8.3,29.2-.9,4.6-2.5,9.1-3.5,13.6-1,4.4-4.7,9.5-4.4,13.8,13.7-4.9,27.6-6.1,41.9-7.4,13.6-1.2,27.9-1.7,41.4-1.8,13.7,0,28.4-1.3,42.5-1.6,14.8-.2,29.8-.6,44.3-2.1-7.6-5.6-17.1-10.9-22.8-18.8-6.1-8.5-9.3-19.2-14.7-28.2-10.8-18.1-17.7-40.5-23.3-60.8-11.4-41-24.2-81.2-27.3-123.7-5.9,3-10.5,14.6-13.4,20.4-3.7,7.4-5.7,15.4-8.1,23.3-5,16.2-8.5,33-14.6,49-11.6,30.8-19.1,63.9-29.7,95.1Zm744.1-238.7c2.5,18.3,7.9,36.9,8.1,55.4,0,4.1-.6,8.6.2,12.6.9,4.3,3.9,8.1,5.6,12.2,2.7,6.5,9.6,19.8,2.9,25.2-.1-5.2-4.9-11.8-7.3-16.4-3.6-6.9-8.4-13.1-12.3-19.8a277.031,277.031,0,0,0-28-40.1c-10.3-12-22.2-22.7-33.1-34.2-3.3-3.4-29.6-36.6-30.7-36.1,8.2,31.5,22.1,58.9,41.1,85.3,9.3,12.9,20.5,21.4,31.9,32.4,9.4,9.1,27.3,18.9,24,33.8,14.8-1.4,29.4-3.7,44.3-3.7-2.5-18.9-4.3-37.4-8.7-56-5-21.1-8.3-42.8-12.5-64-4.3-21.7-11.6-42.7-16.1-64.4-4.3-20.7-8.1-41.4-11.2-62.4-2.6,11.6-1.7,24.4-2.6,36.2a312.053,312.053,0,0,0-.5,36.2c.4,22.9,2.8,45.2,4.9,67.8Zm64-107.9c.1-9.7,2-19.2,2.5-28.9.2-3,3.1-23.2.4-24.2-2.3,4.9-2.8,11.3-4.9,16.4-2.1,5.2-4.8,10.1-6.8,15.3-4.3,11.3-5.7,24.1-6.2,36.1-1,27.2-1.6,54.2.2,81.4.8,11.6,1.4,23.3,1.2,35-.2,12.8-2.2,24,.2,36.7a303.885,303.885,0,0,1,4.6,37.9c.6,9,.8,8.3,9.3,7.7,6.2-.5,12.4,0,18.6-.3-2.9-35-3.4-70-8-104.9-2.4-17.8-2.4-35.8-5.4-53.5-1.5-8.8-3.9-17.4-5.3-26.2-1.3-9.5-.5-19-.4-28.5Zm-626.1-22c16.5,1.4,34,6.4,50.9,3.1-2.8-1.1-10.1-2.7-6.8-7.1,3.3-4.5,9,1.2,12.3.6,2.1-.4,6.6-8.9,7.8-10.7,2.9-4,3.2-4.7,8.4-5.8,5-1,6.1.1,6.8-4.9.7-5.7-1.2-12.1-1.1-18,.4-12.6,4.5-23.6,8.3-35.4-16,3.5-31.7,7.6-48.1,9.9-7,1-17.9,3.2-24.3-1.6-1.7-1.2-1.4-2.9-2.7-4.4a22.114,22.114,0,0,0-9.7-5.6c-19.8-4.2-21.8,24.1-11.8,34.7,2.5,2.7,6,4,8.5,6.4,3.4,3.2,3.7,6.7,4.2,11.6a51.48,51.48,0,0,1-4.3,27.1Zm240.8,133.6c5.9,1.1,12,.9,17.8,1.8,2.1.3,8.3,1.5,10.2.3,2.8-1.9,3.8-8.7,5.1-11.9,2.3-5.6,5.6-10.5,7.8-16.2,9.1-23.3,17.5-46.6,28.5-69.1-4.2-1.1-7.4-1.1-11.7-1.7-4.4-.6-8.4-3.2-12.6-4.3-4-1.1-8.2-.8-12.2-2-2.2-.7-4.1-2.2-6.2-2.7-3.4-.8-7.4-1.3-9.5.9-2.1,2.3-2.8,8.7-4,11.6-3,8-6.6,15.6-9.1,23.8-2.3,7.3-4.5,14.6-6.5,22-2.1,7.8-6.3,14.3-8.9,21.8-1.9,5.7-3.8,11.5-4.1,17.6-.3,5.9-1.1,6.3,4.8,7.2,3.2.4,7.8,2.2,10.6.9Zm385.5,277.1a4.148,4.148,0,0,0,4.3-.3c-13.2-5.6-26.1-13.3-39.9-17.2-12.9-3.6-25.5-7.9-38-12.3-10.1-3.6-19.2-6.4-28.4-12.7a52.2,52.2,0,0,1-14.3-13.8c-4.3-6.3-5.2-15.2-9.8-20.8-6.2,6.8-13.5,12-20.9,17.4-2.5,1.9-8.7,6-9.5,8.9-1.1,3.7,1.8,7.2,3.3,10.9,3.7,9.5,5.6,19,7.6,28.9.8,4,2.6,9.9,5.8,11.6,3,1.5,11.5.4,15.2.1,19.2-1.5,38.1-2.9,57.5-1.6,21.9,1.5,45.3,2.5,67.1.9Zm38.4-176.1c3.5,0,6.9-.4,10.4-.4-2-9.4,2.7-21.5,4.4-30.9,1.9-10.5,3.3-21.3,4.5-31.9a569.432,569.432,0,0,0,3.8-66.6c0-21.7,4-41.5,9.5-62.4,5.9-22.4,15.7-42.5,23.7-64.1-8.8,4.7-13.7,15.6-18.3,23.9a116.769,116.769,0,0,0-12.2,34.1c-4.6,22.8-9.7,45.7-15,68.5-5.5,23.7-8.8,47.7-15.2,71.2-3.1,11.5-7.3,25.6-7.5,37.4-.1,4.9-1.6,15.2.6,19.4,2.2,4,6.8,2.2,11.3,1.8Zm-527.5-29.5c-.2,2.4-.4,4.8-.8,7.2,4.8,0,11-5.1,15.1-7.3,5.1-2.7,10.1-5.8,15.1-8.5,9.6-5.3,20.4-8.8,30.6-13.2,11.7-5,22.5-11.1,33.7-17.2,3.9-2.1,32-14.3,31.6-17.6-6.2-.2-12.3-.4-18.5-.6-5.3-.2-13.5,1-18.6-.6-2.8-.9-5.9-4.2-6.9-6.8s1.3-14.3-.1-15.1c-6.9,7.1-11.3,16.4-17.4,24-6.8,8.4-15.6,13.3-25.4,17.8-10.7,4.9-21.9,8.8-32.8,13-4.6,1.8-4.5,2.8-4.9,7.9-.6,5.6-.5,11.3-.7,17ZM902.234,572c11.6,1.2,23.6.5,35.3,1.5,4.3.4,10.2.9,5.9,6.6-2.7,3.6-11.4,2.5-15.3,2.7-10.5.7-21.7.3-32.3.2-2.2,0-4.7-.7-6.9-.5-2.6.2-5.7,2-8.1,2-1.5,0-2-1.5-3.2-1.7a75.184,75.184,0,0,0-8.2-.5c-41.8,0-83-.8-124.7-.9-19.9,0-40.2-.4-60.1-1.3-4.2-.2-28,.7-27.4-6.9.3-3.9,8.1-4.4,11-4.8,2.1-.3,4.3-.3,6.4-.4,5.6-.3,8.1,1,6.9-5.1-4.5-23.2-12.5-42.4-29.7-59.1-14-13.7-30.9-26-46.8-37.5-19.3-13.9-34.9-28.4-46.4-49.6-6.7-12.4-12.3-25-15.7-38.7-1.2-4.9-1.3-10.5-2.8-15.3-1.2-3.7-3.8-6.2-5.4-10-19.2,32-44.6,58.9-67.9,87.8a341.273,341.273,0,0,1-37.2,38.9c-3.9,3.6-7.6,7.3-11.3,11.1-3.1,3.2-8,6.1-10.6,9.6-2.5,3.4-1.9,3.3,1.9,6,5,3.6,10.6,6.6,15.7,10.1,8.2,5.6,17.1,10.3,24.4,17,7.9,7.3,14.8,15.7,21.7,23.9,4.6,5.5,10.6,12.5,11.8,19.4.4,2.3,1.8,7.9-.1,9.6-1.6,1.4-1.5.9-3.5,0-2.7-1.1-3.5-3.8-6.7-5-8.3-3.2-18.4-2.1-27.1-2.1s-17.4.9-26.1.9c-19.8-.1-39.2,1.5-59,2.4-21,.9-42.3-1.3-63.3-1-15.5.2-31.5-.9-47.4-.1-8.2.4-16.3-.6-24.3-.7-10.5-.2-21.2,1.3-31.8,1.5-17.4.3-34.5.3-51.9.8-37.6.9-74.9,1.8-112.5,2.4-5,.1-10.5-.1-15.5.5-5.3.6-2.5,1.7-6.1,3.6-10.1,5.3-7.8-14.3-7.5-18.2,1.3-20.7,6.6-41,12.9-60.6,6-18.6,10.9-38.1,15.9-57.2,5.6-20.8,12.8-40.8,19.4-61.5,6.7-21.1,12.2-43.1,24.4-61.8,2.8-4.3,5.7-8.9,10.1-11.6,5-3,5.2-1.3,5.2-6.8,0-5.2.3-12.1-.9-17.1-1.1-4.5-.9-1.8-3.4-5-2-2.6-4.2-4.4-5.6-7.6-9,9.1-29.5,4.3-38.1-2.2-10.6-8-18.7-21.5-21.6-34.4-2.4-10.3.5-30,12-35,5.6-2.4,26-4.3,26.9-12.1.4-4.1-6.8-9.8-8.4-13.3a79.476,79.476,0,0,1-6.9-22.2c-1.7-13.9,4.6-29.4,14.7-38.8,18.4-17.2,50.8-26,74.5-15.1-5-19.1-8-35.6-5.5-55.5,2.2-17.1,12.3-26.7,26.2-35.3,23.7-14.6,56-20.3,83.2-16.1,6.2,1,12.1,3,17.8,4.7,8.3,2.4,18.2,1.6,26.1,5.5,5.7,2.8,10,8.4,15,12.1,5.8,4.4,10.7,10.9,14.7,16.9,8.7,12.9,5.3,36.8-2,49.7a22.563,22.563,0,0,1-6,7c-2.7,2-6.8,2.6-8.1,5.1-3.5,6.5-.1,20.7.3,27.8.5,8.2-3.6,14.4-12.9,15-5.4.4-5.6-2.7-8.1,3.7-1.7,4.2-3.2,8.7-5.6,12.5-5,7.9-14.1,7.1-22.4,6.9-9.6-.2-19.1-1.8-28.7-2.7,2.5,8.1,9.5,14.4,13.8,21.7,5.9,9.8,9.4,17.9,10.4,29.3.7,8.8-.8,15.7-6.9,22.2-2.5,2.7-4.7,2.8-4.1,6,.4,1.9,3.7,5,4.8,6.6,3.1,4,6.7,7.7,9.4,12,10.4,16.5,13.5,41.7,13.5,60.9,0,.9.5,2.8.1,3.7-.3.7-2.5,2.8-2.5,3-.4,2.5,2,6.7,5.8,7.1,4,.4,11.2-2.9,14.9-4,5.9-1.7,11.9-3,17.8-4.8,9.5-2.9,19-5.2,28.7-7.5,4.4-1,8.8-1.9,13.2-2.8,5-1.1,7.3-3.2,9.9,1.9,2.2,4.4.8,5.2,6.2,3,5.3-2.2,10.5-4.9,15.7-7.4,9.2-4.3,20.1-8.2,28-14.6,13.2-10.7,18.1-27.8,30.7-39.1,3.5-3.2,5.6-3.2,7.8-7.6,2.4-4.7,3.6-10.7,4.9-15.8,2.2-8.8,3.8-17.7,5.7-26.5,2.5-11,7.8-21,11.7-31.4,1.5-4.1,2.3-9.3,4.8-13,.6-1,1.9-1.5,2.4-2.3,1.7-2.8,1.7-3.5,2.2-6.9,2.1-15.6,11.4-7.4,21.5-3.8,4.3,1.5,24.6,11.2,16.8,17.7,9.2,2.7,24,1.2,23.9,14.5-.1,6.8-4.1,14-6.3,20.4-1.9,5.6-3.8,11.3-5.8,16.9-4.3,12.3-9.5,24.3-13.7,36.7-1.9,5.6-3.5,11.4-6.2,16.7-2.4,4.7-8,9.9-9,15,24.6-10.5,47.4-25.7,75-24.7,12.1.4,23,5.5,29.7,16.1,8.4,13.3,13.9,28.2,22,41.6,29.7,48.8,65.1,93.2,97.8,140,2.5,3.6,5.7,7,6.6,11.4.6,2.9-.5,5.8.1,8.6,1.4,5.8,8.5,13,13.4,16.3,9.3,6.4,24.3,15.4,35.9,14.6-7.3-17.4-7.2-36.5-6.8-55.2.3-17.7,2.2-35.2,4.5-52.7a75.012,75.012,0,0,1,2.1-11.5c1.3-4.4,3.1-4-.8-7.9-6-6.1-13.2-11.1-19.2-17.3-13.1-13.3-26.6-23.8-36.9-39.7-9.8-15.1-20.2-30.7-27.4-47.3-7.5-17.1-10.5-35.3-14.2-53.4-1.5-7.3-7-15.5-5.9-23.2,1.4-9.7,5.9-2.6,7.7,2.6,5.6,15.9,18.6,30.1,29.5,42.9,11.7,13.8,26,25.4,38.2,38.8,13.3,14.6,22.4,31.4,34.2,47,0-19.4-6.6-39.1-9.3-58.2-2.4-16.9-3.1-33.8-4.6-50.7-3.4-38.5-.5-78,4.3-116.2,2.3-18.1,1-35.8,1.1-54,0-5.8-2.4-19.1.7-24.3,5.9-9.8,9.3,11.7,9.6,14.9,1.8,19.1-1.4,38,.2,57.1,1.7,19.9,5.4,39.2,8.5,58.8,3.4,21.3,8.9,42.1,14.2,62.9,5.5,21.9,10.2,44.3,16.4,66,1.7-6.8-.7-15.2-1.1-22.2-.7-10-1.9-19.9-2.1-29.9-.2-15.9-.3-32.1.6-47.9.9-15.6.6-32,5.4-47a158.66,158.66,0,0,1,8.9-20.8c4-8.3,5.4-16.3,7.7-25.1,1.9-7.6,4.7-14.9,6-22.6.8-4.8,3-18.9,8.5-8.2,3.2,6.2,1.8,15.4,1.9,22.1.1,8.6-1.2,16.9-1.4,25.4-.4,16.7-.7,33.4-1.9,50.1a182.351,182.351,0,0,0,3.2,50.5c3.6,18.9,4.7,37.8,6.6,57,1,9.9,2.6,19.7,3.4,29.6.4,5.2-1.7,20.3,2,24,.4-9.1,3-18.2,4.9-27,2.3-10.5,3.3-21.5,5-32.1,2.8-17.2,8.2-33.7,11.8-50.7,7.4-35.1,13.5-80.2,44.4-103.1,4-3,8.5-5.2,12.9-7.7,2.5-1.4,6.2-5,9-5.7,3.1-.7,4.4-.2,5.6,3.4,1.7,5-1.4,7.3-4.4,11-10.3,12.6-14.7,28.7-21.1,43.4-14.6,33.7-21.1,69.3-21.1,105.8a533.7,533.7,0,0,1-3.4,56.5c-2.2,20.4-5.1,42-11.3,61.7,6.2,1.4,13-.7,14.7,6.5.4,1.8-.3,3.9.1,6.2a58.206,58.206,0,0,0,2.2,6.7,93.185,93.185,0,0,1,2.6,13.8c2.5,18.1,6.7,35.4,7.2,53.8.4,17-2.9,34.2-6,50.9-3.1,16.8-12,31.1-18.9,46.3,2.1,0,5.1,0,8.1.1Z" fill-rule="evenodd"/><path id="ink-layer-2" data-name="ink-layer" d="M507.234,533.3c-3.3.9-19.3,2.7-19.3,7.7,0,3,16,2.9,18.8,3.3.2-3.6.4-7.3.5-11m35.3,34.6c9.2,1.8,21.7-.7,27.6-8.8,2.8-3.8,4.1-9.6,5-14.1.9-4.3,3.5-15.1,1.7-19.1-2.2-5-23.4.2-29.5.8a208.75,208.75,0,0,1-32.6.4c0,11.1-.6,21.9,6,31.5,4.6,6.9,13.4,8.5,21.8,9.3m-1.8,13.8c-10-3.7-20.5-1.3-27-12a40.288,40.288,0,0,1-4-8.7,19.088,19.088,0,0,1-1.1-4.1c.5-3-.6-3.8-3.3-2.5-5.3-1-11.1,2.6-16.7,1.5-13.5-2.6-11.1-22-2-28.7,1.8-1.3,3.6-1.7,5.6-2.4,4.5-1.4,7,.2,11.1-.2,3.4-.3,4.3-3.8,7.9-5.4,2.4-1,5.6-.9,8.1-1,13-.5,26-.5,39-1.4,6.1-.4,12.7.6,18.6-.5,2.8-.5,2.4-2.3,5-.7,2.7,1.7,1.6,7.9,1.4,10.4-.8,14.4-1.7,29.8-9.4,42.4-7,11.5-20.9,12.7-33.2,13.3" fill-rule="evenodd"/><path id="ink-layer-3" data-name="ink-layer" d="M12.334,585.6c3.2,0,6.4-.1,9.6-.1-3.2.1-6.4.1-9.6.1" fill-rule="evenodd"/><path id="ink-layer-4" data-name="ink-layer" d="M759.334,456.5c-.1,2-.2,4.1-.3,6.1,0-2,.1-4.1.3-6.1" fill-rule="evenodd"/><path id="ink-layer-5" data-name="ink-layer" d="M902.234,572c-2,0-4,0-5.9-.1a7.14,7.14,0,0,1,5.9.1" fill-rule="evenodd"/><path id="ink-layer-6" data-name="ink-layer" d="M726.534,581c1.4,0,2.8,0,4.2-.1-1.3,0-2.8,0-4.2.1" fill-rule="evenodd"/><path id="ink-layer-7" data-name="ink-layer" d="M905.334,303.8c0-1.5.1-3.1.1-4.6,0,1.6,0,3.1-.1,4.6" fill-rule="evenodd"/><path id="ink-layer-8" data-name="ink-layer" d="M772.534,109.4c-.1-1.6-.2-3.2-.4-4.8.2,1.7.3,3.3.4,4.8" fill-rule="evenodd"/><path id="ink-layer-9" data-name="ink-layer" d="M906.034,284.8c0-1.6,0-3.2.1-4.8,0,1.6-.1,3.2-.1,4.8" fill-rule="evenodd"/><path id="ink-layer-10" data-name="ink-layer" d="M459.334,579c1.3,0,2.5,0,3.8.1-1.2-.1-2.5-.1-3.8-.1" fill-rule="evenodd"/><path id="ink-layer-11" data-name="ink-layer" d="M784.734,581.6c1.2,0,2.5,0,3.7.1-1.3-.1-2.5-.1-3.7-.1" fill-rule="evenodd"/><path id="ink-layer-12" data-name="ink-layer" d="M918.034,469.9l-.3-4.2.3,4.2" fill-rule="evenodd"/><path id="ink-layer-13" data-name="ink-layer" d="M758.934,581.6c1,0,2,0,3-.1-1,.1-2,.1-3,.1" fill-rule="evenodd"/><path id="ink-layer-14" data-name="ink-layer" d="M221.234,581.1c1.1-.1,2.1-.1,3.2-.2-1.1,0-2.2.1-3.2.2" fill-rule="evenodd"/><path id="ink-layer-15" data-name="ink-layer" d="M515.434,176.4c-1.6-.1-3.2-.3-4.7-.4,1.5.1,3.2-.8,4.7.4" fill-rule="evenodd"/><path id="ink-layer-16" data-name="ink-layer" d="M918.234,572.6c-1.6-.2-3.1-.3-4.7-.5,1.5.1,3.1.3,4.7.5" fill-rule="evenodd"/><path id="ink-layer-17" data-name="ink-layer" d="M809.534,186c-.1,1.4-.2,2.7-.3,4.1.1-1.3.2-2.7.3-4.1" fill-rule="evenodd"/><path id="ink-layer-18" data-name="ink-layer" d="M906.434,242.9l.3-3.9c-.1,1.4-.2,2.6-.3,3.9" fill-rule="evenodd"/><path id="ink-layer-19" data-name="ink-layer" d="M808.934,207.2c-.1,1.4-.2,2.7-.3,4.1a28.279,28.279,0,0,1,.3-4.1" fill-rule="evenodd"/><path id="ink-layer-20" data-name="ink-layer" d="M905.834,295.2v-3.9a3.66,3.66,0,0,1,0,3.9" fill-rule="evenodd"/><path id="ink-layer-21" data-name="ink-layer" d="M759.334,484.3v4a3.455,3.455,0,0,1,0-4" fill-rule="evenodd"/><path id="ink-layer-22" data-name="ink-layer" d="M858.634,331.6c-.2-1.3-.3-2.7-.5-4,.2,1.3.3,2.7.5,4" fill-rule="evenodd"/><path id="ink-layer-23" data-name="ink-layer" d="M36.334,209c-1,1.4-2.4.4-3.7.6,1.3-.2,2.5-.4,3.7-.6" fill-rule="evenodd"/><path id="ink-layer-24" data-name="ink-layer" d="M755.634,214.6c.1,1.1.2,2.2.4,3.3-.2-1.1-.3-2.2-.4-3.3" fill-rule="evenodd"/><path id="ink-layer-25" data-name="ink-layer" d="M110.734,104.3c-1.3,0-2.6.1-3.9.1a3.294,3.294,0,0,1,3.9-.1" fill-rule="evenodd"/><path id="ink-layer-26" data-name="ink-layer" d="M808.834,226.4c-.1,1.2-.2,2.3-.3,3.5.2-1.2.2-2.3.3-3.5" fill-rule="evenodd"/><path id="ink-layer-27" data-name="ink-layer" d="M772.834,83.5c.1-1.1.2-2.1.3-3.2a16.551,16.551,0,0,1-.3,3.2" fill-rule="evenodd"/><path id="ink-layer-28" data-name="ink-layer" d="M762.534,80.2c-.1,1.2-.2,2.3-.3,3.5.1-1.2.2-2.4.3-3.5" fill-rule="evenodd"/><path id="ink-layer-29" data-name="ink-layer" d="M192.634,3.3c-1.3.2-2.7.3-4,.5,1.4-.2,2.7-.3,4-.5" fill-rule="evenodd"/><path id="ink-layer-30" data-name="ink-layer" d="M96.234,105.2c-1.4.1-2.7.3-4.1.4,1.4-.1,2.8-.2,4.1-.4" fill-rule="evenodd"/><path id="ink-layer-31" data-name="ink-layer" d="M847.034,108.6c.1-1.1.2-2.1.2-3.2-.1,1.1-.2,2.1-.2,3.2" fill-rule="evenodd"/><path id="ink-layer-32" data-name="ink-layer" d="M762.634,417.6c-.1,1.2-.2,2.4-.2,3.6,0-1.3.1-2.5.2-3.6" fill-rule="evenodd"/><path id="ink-layer-33" data-name="ink-layer" d="M843.134,186.8c0-1.1-.1-2.3-.1-3.4,0,1.1,0,2.2.1,3.4" fill-rule="evenodd"/><path id="ink-layer-34" data-name="ink-layer" d="M226.334.6h-3.6a3,3,0,0,1,3.6,0" fill-rule="evenodd"/><path id="ink-layer-35" data-name="ink-layer" d="M551.234,269.6c-1.3,0-2.7.1-4,.1a3.454,3.454,0,0,1,4-.1" fill-rule="evenodd"/><path id="ink-layer-36" data-name="ink-layer" d="M667.734,578.9a19.269,19.269,0,0,1,2.4.1,17.723,17.723,0,0,1-2.4-.1" fill-rule="evenodd"/><path id="ink-layer-37" data-name="ink-layer" d="M697.434,580.3c.8,0,1.6-.1,2.4-.1a19.269,19.269,0,0,1-2.4.1" fill-rule="evenodd"/><path id="ink-layer-38" data-name="ink-layer" d="M231.734,580.9a21.75,21.75,0,0,1,2.5.1,21.75,21.75,0,0,0-2.5-.1" fill-rule="evenodd"/><path id="ink-layer-39" data-name="ink-layer" d="M917.334,456.6c-.1-1.1-.2-2.3-.4-3.4.2,1.2.3,2.3.4,3.4" fill-rule="evenodd"/><path id="ink-layer-40" data-name="ink-layer" d="M809.834,266.2c.1,1.1.2,2.2.3,3.2-.1-1.1-.2-2.2-.3-3.2" fill-rule="evenodd"/><path id="ink-layer-41" data-name="ink-layer" d="M851.234,247.7c-.1-1.1-.3-2.3-.4-3.4.1,1.1.3,2.2.4,3.4" fill-rule="evenodd"/><path id="ink-layer-42" data-name="ink-layer" d="M238.434,581.6h2.5a20.833,20.833,0,0,0-2.5,0" fill-rule="evenodd"/><path id="ink-layer-43" data-name="ink-layer" d="M540.734,581.7c.8,0,1.6-.1,2.4-.1a19.269,19.269,0,0,0-2.4.1" fill-rule="evenodd"/><path id="ink-layer-44" data-name="ink-layer" d="M844.434,164.3c0-1.2-.1-2.3-.1-3.5.1,1.2.1,2.3.1,3.5" fill-rule="evenodd"/><path id="ink-layer-45" data-name="ink-layer" d="M862.134,582.2c.8.1,1.6.1,2.4.2-.8-.1-1.6-.1-2.4-.2" fill-rule="evenodd"/><path id="ink-layer-46" data-name="ink-layer" d="M869.334,582.2a19.269,19.269,0,0,1,2.4.1,17.723,17.723,0,0,0-2.4-.1" fill-rule="evenodd"/><path id="ink-layer-47" data-name="ink-layer" d="M906.634,252.2c-.1-1.1-.1-2.3-.2-3.4.1,1.2.2,2.3.2,3.4" fill-rule="evenodd"/><path id="ink-layer-48" data-name="ink-layer" d="M357.334,567.3c2.5-.1,5-.3,7.5-.4-2.5.1-5,.2-7.5.4" fill-rule="evenodd"/><path id="ink-layer-49" data-name="ink-layer" d="M207.134,153.5c2.2.2,4.3.4,6.5.6-2.2-.2-4.3-.4-6.5-.6" fill-rule="evenodd"/><path id="ink-layer-50" data-name="ink-layer" d="M817.234,247.4c.1,2.1.1,4.1.2,6.2,0-2-.1-4.1-.2-6.2" fill-rule="evenodd"/><path id="ink-layer-51" data-name="ink-layer" d="M861.834,570.8c2.3.1,4.5.3,6.8.4-2.3.1-4.6.8-6.8-.4" fill-rule="evenodd"/><path id="ink-layer-52" data-name="ink-layer" d="M848.534,326.9c0-2,0-3.9.1-5.9-.1,2-.1,3.9-.1,5.9" fill-rule="evenodd"/><path id="ink-layer-53" data-name="ink-layer" d="M842.734,388.7c2,0,4,.1,5.9.1-1.9,0-3.9-.1-5.9-.1" fill-rule="evenodd"/><path id="ink-layer-54" data-name="ink-layer" d="M344.434,354.1c-.1,1.5-.1,3-.1,4.5,0-1.5.1-3,.1-4.5" fill-rule="evenodd"/><path id="ink-layer-55" data-name="ink-layer" d="M875.734,290.6c-.1,1.5-.2,3-.2,4.5,0-1.5.1-3,.2-4.5" fill-rule="evenodd"/><path id="ink-layer-56" data-name="ink-layer" d="M833.434,564.2c1.4-.1,2.9-.2,4.3-.3-1,.8-2.1.9-4.3.3" fill-rule="evenodd"/><path id="ink-layer-57" data-name="ink-layer" d="M823.834,369.2l.3,4.8-.3-4.8" fill-rule="evenodd"/><path id="ink-layer-58" data-name="ink-layer" d="M825.534,389l5.4-.1a6.039,6.039,0,0,1-5.4.1" fill-rule="evenodd"/><path id="ink-layer-59" data-name="ink-layer" d="M411.634,564.8c1.8,0,3.5,0,5.3.1a5.282,5.282,0,0,1-5.3-.1" fill-rule="evenodd"/><path id="ink-layer-60" data-name="ink-layer" d="M81.634,569.9c1.8-.2,3.6-.3,5.3-.5-1.8.2-3.6.4-5.3.5" fill-rule="evenodd"/><path id="ink-layer-61" data-name="ink-layer" d="M817.934,260.7l.3,4.8a38.663,38.663,0,0,1-.3-4.8" fill-rule="evenodd"/><path id="ink-layer-62" data-name="ink-layer" d="M250.334,157.3a4.784,4.784,0,0,1,4.5-.1c-1.5,0-3,0-4.5.1" fill-rule="evenodd"/><path id="ink-layer-63" data-name="ink-layer" d="M768.834,279.3c.1,1.4.2,2.7.4,4.1-.1-1.4-.2-2.7-.4-4.1" fill-rule="evenodd"/><path id="ink-layer-64" data-name="ink-layer" d="M895.534,247.5a3.837,3.837,0,0,1,0-4v4" fill-rule="evenodd"/><path id="ink-layer-65" data-name="ink-layer" d="M871.834,388.1c1.5-.5,3.1-1.1,4.6,0h-4.6" fill-rule="evenodd"/><path id="ink-layer-66" data-name="ink-layer" d="M373.234,566.7c1.6-.1,3.1-.3,4.7-.4-1.6.1-3.1.2-4.7.4" fill-rule="evenodd"/><path id="ink-layer-67" data-name="ink-layer" d="M160.434,566.7c1.4-.6,2.8-1,4.2,0h-4.2" fill-rule="evenodd"/><path id="ink-layer-68" data-name="ink-layer" d="M451.334,564.7c1.5-.7,3-1,4.5,0h-4.5" fill-rule="evenodd"/><path id="ink-layer-69" data-name="ink-layer" d="M112.834,367.9c.1,1.4.2,2.7.3,4.1-.1-1.3-.2-2.7-.3-4.1" fill-rule="evenodd"/><path id="ink-layer-70" data-name="ink-layer" d="M465.834,288.9c1.5-.5,3-.8,4.5.1-1.5-.1-3-.1-4.5-.1" fill-rule="evenodd"/><path id="ink-layer-71" data-name="ink-layer" d="M817.834,329.7c.1,1.3.2,2.7.2,4,0-1.3-.1-2.6-.2-4" fill-rule="evenodd"/><path id="ink-layer-72" data-name="ink-layer" d="M111.834,208.6a31.063,31.063,0,0,1-.4,3.2,31.063,31.063,0,0,0,.4-3.2" fill-rule="evenodd"/><path id="ink-layer-73" data-name="ink-layer" d="M25.134,522.1c-.1,1.1-.2,2.1-.2,3.2,0-1.1.1-2.1.2-3.2" fill-rule="evenodd"/><path id="ink-layer-74" data-name="ink-layer" d="M849.234,336.8l-.3-3.3c.1,1.2.2,2.2.3,3.3" fill-rule="evenodd"/><path id="ink-layer-75" data-name="ink-layer" d="M740.234,562.6h4c-1.3.1-2.7,0-4,0" fill-rule="evenodd"/><path id="ink-layer-76" data-name="ink-layer" d="M343.934,363.4c.2.8.5,1.6.7,2.4-1.6.4-1.8-.4-.7-2.4" fill-rule="evenodd"/><path id="ink-layer-77" data-name="ink-layer" d="M443.934,287.1h4.1c-1.4.6-2.8,1-4.1,0" fill-rule="evenodd"/><path id="ink-layer-78" data-name="ink-layer" d="M113.534,374.4c0,1.2.1,2.4.1,3.6,0-1.2,0-2.4-.1-3.6" fill-rule="evenodd"/><path id="ink-layer-79" data-name="ink-layer" d="M772.134,387.1c0,1.1.1,2.2.1,3.3,0-1.1,0-2.2-.1-3.3" fill-rule="evenodd"/><path id="ink-layer-80" data-name="ink-layer" d="M100.134,569.3a3.3,3.3,0,0,1,3.9,0h-3.9" fill-rule="evenodd"/><path id="ink-layer-81" data-name="ink-layer" d="M133.934,193.2c.1,1.1.1,2.3.2,3.4,0-1.2-.1-2.3-.2-3.4" fill-rule="evenodd"/><path id="ink-layer-82" data-name="ink-layer" d="M93.434,569.4h4a3.041,3.041,0,0,1-4,0" fill-rule="evenodd"/><path id="ink-layer-83" data-name="ink-layer" d="M219.934,155.5c1.3.2,2.6.3,3.8.5-1.3-.2-2.6-.4-3.8-.5" fill-rule="evenodd"/><path id="ink-layer-84" data-name="ink-layer" d="M107.134,254.4c0,1.1,0,2.1.1,3.2-.1-1.1-.1-2.2-.1-3.2" fill-rule="evenodd"/><path id="ink-layer-85" data-name="ink-layer" d="M841.834,254.2c-.1-1.1-.1-2.2-.2-3.3.1,1.1.1,2.2.2,3.3" fill-rule="evenodd"/><path id="ink-layer-86" data-name="ink-layer" d="M543.734,568.2c1.6.1,3.2.3,4.7.4-1.5-.1-3.1-.3-4.7-.4" fill-rule="evenodd"/><path id="ink-layer-87" data-name="ink-layer" d="M538.534,527.3h-2.5a10.445,10.445,0,0,0,2.5,0" fill-rule="evenodd"/><path id="ink-layer-88" data-name="ink-layer" d="M538.534,567.5c1.3.1,2.6.3,4,.4-1.3-.1-2.6-.2-4-.4" fill-rule="evenodd"/><path id="ink-layer-89" data-name="ink-layer" d="M300.534,478.5c1.7,9.7-13.4,19.2-14.6,5.4-.4-5.1,2.9-8.6,6.7-11.7,5.4-4.4,8.4-.2,7.9,6.3" fill-rule="evenodd"/><path id="ink-layer-90" data-name="ink-layer" d="M133.934,359.8c3.6,1.5,30.8,10.3,16.6,14.8-3.7,1.2-9.4,1.4-12.6-.7-3.9-2.5-7.8-9.9-4-14.1" fill-rule="evenodd"/><path id="ink-layer-91" data-name="ink-layer" d="M140.634,228.2c9.2-1.1,17.7,14.1,6.4,13.6-8.3-.4-19.4-13.6-6.4-13.6" fill-rule="evenodd"/><path id="ink-layer-92" data-name="ink-layer" d="M173.734,265.3c7.7,6.7-6.6,21.8-12.3,16-2.9-3-.2-9.4,2.2-11.9s6.8-3,10.1-4.1" fill-rule="evenodd"/><path id="ink-layer-93" data-name="ink-layer" d="M196.634,439.7c-4.6.7-24.6,7.3-20.4-4.6,1.6-4.5,6-3.2,10.1-3,6.6.3,10.3,0,10.3,7.6" fill-rule="evenodd"/><path id="ink-layer-94" data-name="ink-layer" d="M183.434,470.3c6.8,3.6-3.1,24-8.8,19.7-7.8-6,2.9-17.9,8.8-19.7" fill-rule="evenodd"/><path id="ink-layer-95" data-name="ink-layer" d="M213.134,453.9c3.3-1.4,18.9,13.7,13,17.8-3,2.1-8.8-1.5-10.7-3.7-3.4-4.1-3.7-9.3-2.3-14.1" fill-rule="evenodd"/><path id="ink-layer-96" data-name="ink-layer" d="M123.034,331.1c3.4.6,9.2.7,9.5,5.5.2,4.2-5.1,5.5-8.7,5.9-3.8.3-8.9-.7-9-5.6-.1-5.2,8.1-4.9,8.2-5.8" fill-rule="evenodd"/><path id="ink-layer-97" data-name="ink-layer" d="M206.534,538.2c3.6,2.2,20.4,10.1,13.2,15.8-2.7,2.1-10.9-2.3-12.7-4.5-2.2-2.7-4.3-9-.5-11.3" fill-rule="evenodd"/><path id="ink-layer-98" data-name="ink-layer" d="M253.334,481c-.5-8.7,14.2-12.2,11.1.2-.9,3.5-1.7,8.8-6,9-5.1.2-5.3-5.8-5.1-9.2" fill-rule="evenodd"/><path id="ink-layer-99" data-name="ink-layer" d="M208.034,329.7c.1,6.6-12.5,12.4-12.6,2-.2-9.4,13-12.1,12.6-2" fill-rule="evenodd"/><path id="ink-layer-100" data-name="ink-layer" d="M199.634,295.3c3.1,1,7.3,1.5,7.5,5.5.3,4.2-3.6,6.1-7.1,5.8-2.9-.2-7.1-2.3-7.6-5.4-.8-4.6,3.7-4.9,7.2-5.9" fill-rule="evenodd"/><path id="ink-layer-101" data-name="ink-layer" d="M141.734,416.1c-.1-5.4,10.9-12,12.9-5.7.6,2-4.5,11.1-6.2,11.8-4.6,1.8-5.2-2.3-6.7-6.1" fill-rule="evenodd"/><path id="ink-layer-102" data-name="ink-layer" d="M231.134,506.8c-3.7,3.3-14.8,12.6-13.9.1.5-7.9,14.9-7.5,13.9-.1" fill-rule="evenodd"/><path id="ink-layer-103" data-name="ink-layer" d="M411.334,542.4c1.2-5.2,18.5,3.8,12.7,10.5-1.9,2.2-7,.2-9-1.1-3.7-2.7-3.8-5.1-3.7-9.4" fill-rule="evenodd"/><path id="ink-layer-104" data-name="ink-layer" d="M314.934,430.3c.7-2.3,1.4-6.5,3.7-7.9,4-2.7,7.5,1.4,7.5,5.7,0,7.9-9.1,10.4-11.2,2.2" fill-rule="evenodd"/><path id="ink-layer-105" data-name="ink-layer" d="M272.034,523.7c4.5,1,14.5,12,8.7,16.4-5.6,4.3-13-13.1-8.7-16.4" fill-rule="evenodd"/><path id="ink-layer-106" data-name="ink-layer" d="M276.334,441.1c5.8.5,13.7,9.8,4.7,11.3-7,1.1-15.2-9-4.7-11.3" fill-rule="evenodd"/><path id="ink-layer-107" data-name="ink-layer" d="M328.634,484.1c1.4-4.9,15.8.3,15,5.7-.4,2.9-6.3,3.5-9.4,2.8-4.5-1.1-5.7-4.1-5.6-8.5" fill-rule="evenodd"/><path id="ink-layer-108" data-name="ink-layer" d="M159.734,211.5c.1-6.3,12.2-8.9,13.1-2.5.8,5.7-13.3,11.8-13.1,2.5" fill-rule="evenodd"/><path id="ink-layer-109" data-name="ink-layer" d="M324.634,549.1c.9-3.2,1.3-7,5.2-7.4,4.5-.5,4.4,3,3.9,6.6-1.5,9.8-7,10.3-9.1.8" fill-rule="evenodd"/><path id="ink-layer-110" data-name="ink-layer" d="M133.134,286.6c-6.3,1.4-17.9-10.7-10.8-13.4,5-1.8,10.8,9.7,10.8,13.4" fill-rule="evenodd"/><path id="ink-layer-111" data-name="ink-layer" d="M213.734,381.1c-3.2,1.5-4,2.4-6.4-.1-2.2-2.2-2.1-8.2-.2-10.4,7.1-8.6,6.9,7.1,6.6,10.5" fill-rule="evenodd"/><path id="ink-layer-112" data-name="ink-layer" d="M240.034,363.7c3.4.4,13.3,9.9,8.1,13.6-6.3,4.6-9.9-9.8-8.1-13.6" fill-rule="evenodd"/><path id="ink-layer-113" data-name="ink-layer" d="M312.634,366.1c-2.4,9.4-8.5,3.1-8.2-4,.5-11.4,6.9-1.5,8.2,4" fill-rule="evenodd"/><path id="ink-layer-114" data-name="ink-layer" d="M349.634,517c4.1,1.7,9.7,17.5,3.8,18.3-6.6.9-4.4-15-3.8-18.3" fill-rule="evenodd"/><path id="ink-layer-115" data-name="ink-layer" d="M298.134,508.1c4.7-1.6,6.5,8.4,3.7,10.2-6.1,4.1-4.8-7.8-3.7-10.2" fill-rule="evenodd"/><path id="ink-layer-116" data-name="ink-layer" d="M253.334,481c-.1,1.3-.1,2.6-.2,4,.1-1.4.1-2.7.2-4" fill-rule="evenodd"/><path id="ink-layer-117" data-name="ink-layer" d="M411.334,542.4c0,1.4-.1,2.7-.1,4.1,0-1.4.1-2.8.1-4.1" fill-rule="evenodd"/><path id="ink-layer-118" data-name="ink-layer" d="M328.634,484.1c0,1.1-.1,2.3-.1,3.4,0-1.1.1-2.2.1-3.4" fill-rule="evenodd"/><path id="ink-layer-119" data-name="ink-layer" d="M850.834,464.3c9.8-.3,20.7-4,30.3-2.8,2.6.3,8.7,1,4.5,4.9-2,1.9-11.7.9-14.7,1.5-18,3.8-38.4,6.3-56.8,5.9-8.6-.1-17.3-.8-25.9-1.3s-9.5-4,.2-5.1c10.1-1.2,20.4-.7,30.5-.7,10.7.1,21.3-1.7,31.9-2.4" fill-rule="evenodd"/><path id="ink-layer-120" data-name="ink-layer" d="M872.334,440.7c-.9,2.7-1.8,8.8-5.4,9.2-5.1.6-5.9-8.1-5.7-11.3.2-3.8,1.6-10.2,6.4-8.9,4,1.2,4.4,8,4.7,11" fill-rule="evenodd"/><path id="ink-layer-121" data-name="ink-layer" d="M841.734,438.8c.7-2.9,1.1-9.3,5.2-9.6,4.5-.2,5.8,6.5,5.8,9.7,0,3.1-1.2,8.9-4.8,9.6-4.9,1-5.4-6.4-6.2-9.7" fill-rule="evenodd"/><path id="ink-layer-122" data-name="ink-layer" d="M790.734,443.9c-1.5,3.5-2.4,8.2-7,5.9-3.5-1.8-4-9.2-3.3-12.5.7-3.5,2.1-7.5,6.1-5.9,4.6,1.8,4.2,8.7,4.2,12.5" fill-rule="evenodd"/><path id="ink-layer-123" data-name="ink-layer" d="M829.334,440.7c-4.3,13.2-12.3,4.3-9.2-5.6,3.1-10.2,8.8-.2,9.2,5.6" fill-rule="evenodd"/><path id="ink-layer-124" data-name="ink-layer" d="M808.234,441.4c-1.2,2.3-2.5,7.3-5.7,6.8-4-.6-4.1-8.3-3.7-11.2.4-2.5,1.5-6.7,4.8-6.6,4.8.1,4.5,8,4.6,11" fill-rule="evenodd"/><path id="ink-layer-125" data-name="ink-layer" d="M894.734,443.9c-3.2,7.2-7.7,1-6.3-4.1,2.2-7.7,6.1-.9,6.3,4.1" fill-rule="evenodd"/><path id="ink-layer-126" data-name="ink-layer" d="M815.634,466.8h-10.6a22.349,22.349,0,0,1,10.6,0" fill-rule="evenodd"/><path id="ink-layer-127" data-name="ink-layer" d="M885.734,461.5c-3.1,0-6.1,0-9.2.1a15.208,15.208,0,0,1,9.2-.1" fill-rule="evenodd"/><path id="ink-layer-128" data-name="ink-layer" d="M850.834,464.3c-2.4.2-4.9.3-7.3.5,2.4-.1,4.8-.3,7.3-.5" fill-rule="evenodd"/><path id="ink-layer-129" data-name="ink-layer" d="M790.734,443.9c0-1.8,0-3.5-.1-5.3a5.834,5.834,0,0,1,.1,5.3" fill-rule="evenodd"/><path id="ink-layer-130" data-name="ink-layer" d="M797.834,466.9c-2,.2-4,.3-6,.5,2-.1,4-.3,6-.5" fill-rule="evenodd"/><path id="ink-layer-131" data-name="ink-layer" d="M824.934,466.8h-5.9a7.143,7.143,0,0,1,5.9,0" fill-rule="evenodd"/><path id="ink-layer-132" data-name="ink-layer" d="M808.234,441.4c0-1.8-.1-3.7-.1-5.5,0,1.8,0,3.7.1,5.5" fill-rule="evenodd"/><path id="ink-layer-133" data-name="ink-layer" d="M780.434,437.3v5.4a48.6,48.6,0,0,1,0-5.4" fill-rule="evenodd"/><path id="ink-layer-134" data-name="ink-layer" d="M862.034,463.7c-1.7.2-3.5.3-5.2.5,1.7-.2,3.5-.4,5.2-.5" fill-rule="evenodd"/><path id="ink-layer-135" data-name="ink-layer" d="M894.734,443.9c-.1-1.6-.1-3.1-.2-4.7.1,1.6.2,3.2.2,4.7" fill-rule="evenodd"/><path id="ink-layer-136" data-name="ink-layer" d="M820.434,473.9c1.2,0,2.4,0,3.6-.1-1.1.1-2.3.1-3.6.1" fill-rule="evenodd"/><path id="ink-layer-137" data-name="ink-layer" d="M872.334,440.7c-.1-1.1-.2-2.2-.3-3.4.1,1.2.2,2.3.3,3.4" fill-rule="evenodd"/><path id="ink-layer-138" data-name="ink-layer" d="M829.334,440.7c-.1-1.2-.2-2.3-.2-3.5,0,1.2.1,2.4.2,3.5" fill-rule="evenodd"/><path id="ink-layer-139" data-name="ink-layer" d="M202.734,102.2c-4.8-1.3-5.7-8-4.9-12.1.9-2,1.7-4,2.6-6-.3-.7-.7-1.5-1-2.2.4-4.1-.7-5.9,4-4.2,8.7,3.1,10.1,24.2-.7,24.5" fill-rule="evenodd"/><path id="ink-layer-140" data-name="ink-layer" d="M273.434,89.2c3.9-.3,11.1,4.3,7.2,8.7-2.4,2.7-10.4,1.4-13.7,2-4.3.8-8.8,1.8-6.5-4.7,1.8-5,8.4-6.1,13-6" fill-rule="evenodd"/><path id="ink-layer-141" data-name="ink-layer" d="M269.334,119.7c-4-3.2-2.2-17.8,3.9-15.2,6.2,2.7-.6,13.1-3.9,15.2" fill-rule="evenodd"/><path id="ink-layer-142" data-name="ink-layer" d="M197.834,90.1v4.6a4.255,4.255,0,0,1,0-4.6" fill-rule="evenodd"/><path id="ink-layer-143" data-name="ink-layer" d="M202.734,102.2a19.269,19.269,0,0,0,2.4-.1,19.269,19.269,0,0,1-2.4.1" fill-rule="evenodd"/><path id="ink-layer-144" data-name="ink-layer" d="M696.434,522.9c-.4,6.6-7.5,1.7-7-2.7,1-8.1,5.5-.1,7,2.7" fill-rule="evenodd"/></g></g></svg>