<svg id="Layer_1" data-name="Layer 1" xmlns="http://www.w3.org/2000/svg" viewBox="0 0 613.16 697.993"><title>1</title><g id="Character_ice-cream" data-name="Character/ice-cream"><path id="Combined-Shape" d="M347.664,101.82c4-.4,4.5,5,5.1,7.4,1.5-1,2.9,0,3.2-2.3,4.8,5.1,8.7,10.9,13,16.4,4.1,5.3,10.5,9.5,14.1,15,3,4.7-2,11.9-2.6,16.9-.7,5.7.8,12.1,4.6,16.4a12.513,12.513,0,0,0,6.7,4c2.7.5,5.2-1,7.5-.7,1.9.3,2,1.6,2.7,3.5a14.721,14.721,0,0,0,4.3,6.9c2.4,2.1,5.1,2.6,6.9,5.4,1.6,2.4,2.6,4.7,5.1,6.4,3.4,2.2,8.8,2.9,8.4,8.1.6-.5,1.2-.9,1.7-1.4a85.753,85.753,0,0,0,5.2,12.6,9.934,9.934,0,0,1,1.4,5c0,1.4-.8,2.5,0,3.8,1.3,2.2,4.9,1.9,6.5,3.6,1.7,1.8-.1,4.2,1.9,5.8-.8.2-3,2.1-2.2,3.2,1.2,1.6,1.3-.6,2.1-.3,1.9.6,1.5,3,3.1,3.7.3.1.3-1.3.3-1.7h0l1.2,2.3c9.9,19.1,21.4,37.3,30.7,56.6l1.1,2.3a824.1,824.1,0,0,0,61.3,108.2c5.4,8.1,11.4,16.1,16.4,24.5s11.3,15.8,16.9,23.8c5.7,8.2,11,16.8,16.8,25,4.6,6.5,10.3,13.5,10.2,21.9,0,3.7-.6,7.9-4.2,9.9-.1-1.5-2.4.2-3,.5-2.4,1.6-1.1,1.5-3.7.9-4.2-.9-7.8.3-11.7-2.1-8.3-5.1-16.4-10.3-24.9-15.2-18.2-10.5-36.2-21.2-53.1-33.8-29.5-21.9-61.6-41.5-88.8-66.5-27.1-24.9-55.6-49.6-87.8-67.8-2.2-1.2-8.3-3.1-7.8-6,.5-2.6,6.1-6.1,8-7.9,6.8-6.1,13.8-11.9,20.3-18.3,12.1-11.8,24-24.8,33.7-38.7,4.7-6.7,7.1-14.2,9.8-21.9,2.4-6.8,4.7-15.1.7-21.8a7.586,7.586,0,0,0-7.9-4.1c-2.9.2-2.8.8-3.9-2.3-1.2-3.3-2.3-7.2-5.6-9.1-3.5-2-5.8.1-8.6,2.1-3.2-4.6-7.2-12.7-13.6-13.1-6.8-.5-10.6,7.9-12.9,12.9-6.9,14.9-15.9,28.8-25.6,42-10.5,14.4-21.2,29-32.7,42.5-2.4,2.9-5.2,7-8.7,8.8s-6.5.1-9.5-1.9c-7-4.8-13.9-9.8-21.2-14.2-8.1-4.9-16.5-9.4-24.7-14-3.7-2-7.1-4.5-10.9-6.3-3.5-1.7-7.3-2.5-10.9-4,13.2-3.9,27.1,1.2,39.5,5.3,6.5,2.1,13.2,4.3,20.2,3.8,6-.5,11.4-3.7,16.1-7.2,8.6-6.3,9.2-15.8,6.4-25.4-3.2-11-8.1-21.7-11.8-32.6-1.7-5-2.8-10.2,1-14.5,3.4-3.8,7.9-4.3,12.6-2.8,11.4,3.7,21.5,7.1,33.6,6.7,9.5-.3,21.6-3,28.1-10.7,3.5-4.2,3.7-10.1,3.7-15.3a146.754,146.754,0,0,0-1.2-18.7c-1.6-11-5.6-22.1-.5-32.8C341.064,108.02,344.464,102.22,347.664,101.82Zm99.1,137.7Zm-394.3-51.8c3-4.1,11.1-13.7,17.4-11.6a7.219,7.219,0,0,1,2.6,2.3c.5.7,1,1.3,1.5,2a1.149,1.149,0,0,0,1.7.8c2.2,3,5.3,5.3,6.5,9s4.6,7.2,6.5,10.6c1.5,2.6,5,9.6,4.7,12.8v8.3c-.3,3.2-6.4,9-8.5,11.2-5.3,5.4-11,6.1-18.9,5.4-6.6-.6-15.2-2.8-19.7-8.1-4.3-5.1-4.2-12.9-3.6-19.1C43.564,202.72,47.364,194.82,52.464,187.72Zm20.4,1.4c-1.2-2.3-3.9-2.8-6.2-2.5s-5,.5-7.2,1.5c-2,1-3,2.6-5.4,2.1,1,1.7-.8,2.7-1,4.2a6.3,6.3,0,0,0,1.6,5.2c2.7,3.1,6.6,3,10.3,3.3,3.1.3,7,.8,8.8,3.7,1.2,1.9.1,3.3.7,5.1.4,1.4,2.1,2.2,2.9,3.4,2.5-3.7,2.4-11.6.9-15.5a30.449,30.449,0,0,0-3.2-5.9,17.717,17.717,0,0,1-1.4-1.6C73.164,191.22,73.264,189.92,72.864,189.12Z" fill="#34558b" fill-rule="evenodd"/><g id="Ink"><path id="ink-shape" d="M364.664,680.6c4.5-1.8,10.1-.9,14.9-.9,6,.1,11.9.6,17.9,1,11.4.9,22.8.5,34.2,1.6,5.7.5,11.3,1,17,1.5,5,.4,10.7,1.7,15.7.8,2-.4,7.6-2.3,6.6-5.3-.8-2.3-7-3.7-9-4.4-4.8-1.6-9.7-2.7-14.5-4-2.5-.7-4.9-1.5-7.5-1.2-2.2.2-4.5,1.9-6.8,1.7-3.3-.3-5-4.4-7.5-6.3-3.9-2.9-6.7-1.4-9.7,1.9-2.2,2.4-4.3,6-7.9,6.2-4.6.3-5.5-3.7-3.5-7,1.9-3.1,6.9-6.2,7.2-10,.2-2.4-3.7-8.9-5.9-9.8-3.7-1.5-9,2.5-12.4,3.8-5.9,2.2-11.9,4.1-17.9,6.1-4.1,1.4-10.2,1.5-10.9,6.3-1.2,5.8,0,11.9,0,18m-234.2-92.3c1.2-2.6,2.4-4.1.1-6.6-1.3-1.4-3.2-2-4.5-3.5-2-2.1-5-8-.8-9.4,4-1.4,7.4,4.2,10.7,5.4,4.1,1.6,6.7-1.1,7.3-5,.8-5.1-.1-10.3.5-15.4.6-5,2.3-9.2,3.7-14,.9-3.3,2-6.5-2.1-7.3-3.8-.7-8.2.9-12,1.1a179.5,179.5,0,0,0-18,1.5c-6.6,1-6.5,7.8-8.2,13.3-4,13.5-9.5,26.7-12,40.5-1.1,6,1.8,10.1,5.2,14.8,4.2,5.9,8.6,11.8,13.3,17.2,3.2,3.6,6.8,7,11.4,8.7,5.2,1.9,7.2-.2,6-5.4-1.6-6.8-4-13.4-3.7-20.5.1-2.6.9-5.4-1-7.5-1.3-1.5-3.5-2-5.2-2.9-2.8-1.5-7.1-6.4-1.7-7.4,3.5-.6,7.4,1.9,11,2.4M255.664,321c3.3,3.7,6.9,7.2,10,11.1,1.8,2.2,3.1,4.8,5,6.9,4.2,4.6,8.4-.5,12.2-3.5,14.7-11.6,28.6-24.3,42.6-36.7,6.7-5.9,13.8-11.4,20.4-17.5,6.7-6.1,12.2-13.3,18.5-19.8,3-3.1,6.6-6.2,8.4-10.3,1.6-3.4,1.9-7.1,3.7-10.5,3.1-5.8,8.8-12.6,7.5-19.7-3.9,4-10.3,18.5-17,11.7-4.8-4.9.1-12-.1-17.7-4.6,1.9-3.4,9.8-8.2,11.2-2.6.8-4.9-1.6-6.1-3.7-2.1-3.6-1.3-7.4-.4-11.2.7-2.6,4.8-11.2.7-12.3-3.6-.9-6.6,5.7-7.8,8-2.2,4.3-3.9,8.7-6.3,12.9-4.1,7.2-8.9,14.2-13.4,21.1-9.3,14.4-20,27.9-31,41.1-11.6,14.3-24.2,27.5-38.7,38.9m103.8,45.8c-.5,12.7-11.4,22.3-20.8,29.3-12,9-23.2,19.3-37.5,24.4-5.5,2-12.4,1.4-14.7,7.6-.9,2.4-.1,3.3.9,5.8a55.509,55.509,0,0,1,3,12c2.4,13.7.1,27.7-8.2,39.1-4.4,6.1-10,11.2-15.8,15.9s-11.2,10.2-17.6,14.1c-13.6,8.3-28.7,13-44.4,15.3-8.1,1.2-16.3,2.3-24.6,2.7-4.3.2-8.5.3-12.8.1-1.9-.1-9-1.7-10.4-.6-1.1.8-1.5,5.9-1.7,7.3-.5,3-.8,5.9-1.4,8.9-1.2,5.9-2.9,12.6-1.1,18.6.5,1.7,1,3.1,2.5,3.7,1,.4,2.8-.3,3.8-.4a38.621,38.621,0,0,1,6.8-.1c7.6.8,15.2,2.8,22.9,2.2,16.5-1.1,33-2.3,49.3-4.9,7.9-1.3,15.6-3.6,23.4-5.5,7.4-1.7,14.9-3.5,21.8-6.8a156.341,156.341,0,0,0,37.4-24.9c12-10.6,19.9-23.2,27.4-37.3,6.6-12.4,12.2-24.9,11.9-39.1-.2-9-1.5-20.2,3.7-28.1,2.4-3.6,7.2-7,11.7-5.1,8.1,3.5.4,10.4-2.6,14.2-4.5,5.4-3.9,13.7-4.3,20.4-.5,7.9-2.3,14.8-4,22.4-1.7,7.4,1.7,16.3,2.1,23.9.4,8.2.1,16.5,0,24.7-.2,16.4.6,32.7.5,49.1,0,8.5.2,17-.3,25.5-.5,7.7-2.1,15.1-3.5,22.7-1.4,7.5-3.3,16.4-2.9,24,18.6-7.1,36.7-15.5,55.6-21.8-5.9-5.1-6.2-12.4-6.6-19.7-.6-9.6-2.2-19-2.9-28.6a369.263,369.263,0,0,1,.6-57.6c1.7-20.2,4.8-40.4,5.4-60.8a151.56,151.56,0,0,0-2.1-29.3c-1.3-8.1-2.5-18.4-6.8-25.6-4.1-6.9-11.5-11.3-17.7-16-8.9-6.6-17.3-14.4-26-21.7m1.1-264.8a72.426,72.426,0,0,0,7.7,8.8c2.9,2.8,4.1,2.2,7.5.7,6.8-2.9,6.7-6.3,2.9-12.2-8.9-13.7-12.2-29.9-21.6-43.3-9.2-13.2-22.7-23.9-36.8-31.5-15.1-8.2-31.5-10.8-48.6-10.5a252.29,252.29,0,0,0-26.1,1.7c-8.4.9-15.9,3.7-24.1,5.8-4.1,1.1-8.3,1.9-12.3,3.4-3.5,1.3-6.7,3.2-10.2,4.4-7.7,2.6-15.5,5.5-22.5,9.7a170.872,170.872,0,0,0-19.2,13.6c-6.4,5.3-12,11.4-19,16-6.3,4.2-11.4,9.9-17.1,14.8a97.78,97.78,0,0,0-16,18c-4.4,6.4-6.1,14.6-8.7,21.8-3.1,8.4-6.2,17.3-7.3,26.1-2.2,16.5,2.7,35.8,8.9,51.1,6.1,15.1,16.1,27.7,27.9,38.8a86.459,86.459,0,0,0,19.1,13.9c6,3.1,13.9,8.6,20.5,4.8,2.7-1.6,4.8-3.4,7.9-4.1,3.4-.8,6.7-.5,9.4-2.9,2.3-2.1,3.4-4.6,6.4-5.9,3.6-1.5,7.8-1.8,11.7-1.8,8.6,0,17.3,2.2,25.5,4.6,7.6,2.2,13.9,5.5,21.9,3.5,6-1.5,15.5-5.5,16.8-12.3,1.1-6.1-3.3-14-5.5-19.5a158.494,158.494,0,0,1-7.8-22.9c-1.5-6.3-4-16.4.4-22.1,4.3-5.7,14.1-5.6,20.2-4.2,4,.9,7.7,2.8,11.7,3.8a104.712,104.712,0,0,0,12.5,1.9c14.5,1.6,35-2.1,34.3-20.5-.7-16.5-9.8-33-4.4-49.5,2.2-6.7,6.6-14.5,14-16.3,5.8-1.4,13.7.1,18.9,3.1,4.2,2.4,8.3,7.5,1.1,9.2m-290.3,73.5c-14.6,2.8-24.2,18.2-26.9,31.8-1.2,6.2-1.6,13.5.7,19.5,2.7,6.9,10.3,9.8,17.1,11.2,7.7,1.7,14.5,1,20.6-4.3a35.705,35.705,0,0,0,6.9-8.1c2-3.1,4.7-5.3,2.7-8.7a148.051,148.051,0,0,1-12.3-26.1c-1.4-4.2-2.7-8.2-3.7-12.5-.8-3.3-1.2-5.3-5.1-2.8m127.6,92.2a29.509,29.509,0,0,1-9.7,6.3c-4,1.6-5.2.8-5,5.5.2,5.1.3,9.2-2.1,13.9-1.1,2.2-5.1,5.2-4.3,7.7,1.1,3.6,12.3,7.2,15.5,8.5,7.8,3,16.9,3.1,24.2-1.2,8.5-4.9,9.3-13.9,6.1-22.5-.3-.9-1.6-2.5-1.3-3.5.6-1.8,2.9-1.6,4.2-.9,2.9,1.5,4.1,6.2,4.7,9.1,1.7,7.8-1.4,16.2-7.2,21.5a29.617,29.617,0,0,1-10.4,5.8,37.364,37.364,0,0,1-6.6,1.6c-1.8.2-4.1-.4-5.9.1-3.1.9-3.2,4.7-4,7.5a66.447,66.447,0,0,0-2.1,15.4c-.3,8.3.7,18.8,5.5,25.8,11.1,16.4,32.6,22,49.3,30.5a164.78,164.78,0,0,1,25.1,16.1,20.136,20.136,0,0,0,2.9,2.2c3.2,1.6.4,1,2.4,0,1.6-.8,2.9-2.5,4.5-3.4,3.7-2.1,7.9-3.2,11.7-5.2,8.8-4.6,16.6-10.2,24.5-16.3,8-6.2,16.2-11.8,23.5-18.9,3.1-3,6.6-5.4,9.7-8.3,3.2-2.9-.9-4.1-3.6-6.2-9.1-7.2-18.1-14.6-27.8-20.9-3.2-2.1-6.1-5-9.5-6.8-3.5-2-5.6-.2-8.4,2.3a86.386,86.386,0,0,1-9.3,7.7c-4.5,3.1-9.7,4.5-14.1,7.5,2.9,3,9.9,4,10.9,8.6s-5.9,8.2-9.1,10a63.28,63.28,0,0,1-18.3,6.4c-5.3,1.1-13.1-.6-17.3,3.4-1.2-2.5-2.3-3.9-.4-6.3,2-2.4,5.5-2.9,8.3-3.8,7.6-2.5,15-5.9,22.3-9.1-1-2.3-3.4-3.8-5.2-5.3a47.043,47.043,0,0,1-7-7.1c-4.1-5-7.8-10.3-11.7-15.5-1.7-2.2-3.2-4.5-6.3-3.2-2.7,1.1-5.4,3.9-8,5.4-5.9,3.3-11.1,6.5-17.6,8.6-2.6.9-13.4,3.3-10.5-3.3.8-2,3.7-2.8,5.4-3.6,3.2-1.6,6.4-3.2,9.6-5,6.4-3.7,12-8.5,18-12.8,6.6-4.7,13.3-9.4,19.5-14.6-6.2-4.1-13-7.1-19.4-10.8-6.4-3.8-12.9-7.2-19.6-10.5a113.745,113.745,0,0,1-15.5-9c-1.9-1.2-8.5-6.9-10.6-3.4m193.8-132.8a21.718,21.718,0,0,0-2.4.7c5.4,8.3-.6,18.5,1.1,27.4,5-3,5.6-14.4,13.2-12.3,8.2,2.3,4.1,12.3,6.6,18.1,3.9-3.4,8.4-.2,9.9,3.8,1.7,4.3-.7,8.3.1,12.6.8,4.4,3.3,1.5,4.7-1.1,1.8-3.3,3.3-7.8,2.6-11.7-.8-4.6-3.9-9-5.8-13.2s-3.7-8.5-6.5-12.2c-5.2-6.9-14.3-13.2-23.5-12.1m52.3,99.1c-3.5-8.8-8.7-16.9-12.1-25.7-1-2.6-1.5-6.7-4.1-8.3-1.7-1.1-4-.4-5.8-1a13.579,13.579,0,0,1-5.2-3.3c-2.4-2.5-3.2-6-6.1-8.2-3.7-2.8-6.6-3.9-8.4-8.7-1.4-3.7-1.4-4.3-5.6-3.5-4.6.9-8.3-.2-11.4-3.8-5.3-6-5.9-14.5-3.3-21.8,1.2-3.4,3.4-7.4,1.6-10.9-1.6-3.3-5.6-5.7-8.2-8.3-6.4-6.7-11.4-14.5-17.4-21.5a35.054,35.054,0,0,1-4-5.3c-.7-1.2-1.1-3.3-2.7-3.7-2.8-.6-6.7,4.2-8.1,6-10.3,12.9-2.9,30.5-1.7,45,.6,7.4,2.1,16.3-1.2,23.3-3.1,6.6-10.9,9.9-17.5,11.7-8.9,2.5-18.5,2.4-27.5.9a74.34,74.34,0,0,1-13.8-3.8c-4.6-1.7-9.4-4.7-14.1-1.6-6,4.1-4.2,12.2-2.9,18.2,2.2,9.7,6,18.8,9.3,28.1,2.8,7.8,5.1,17.7-.8,24.7a31.944,31.944,0,0,1-24.8,11c-18.9-.8-36.2-14.9-55.5-9.1,3.6,1.5,7.5,2.4,11,4.1,4.3,2.1,8.2,4.8,12.4,7.1,8,4.4,16,8.8,23.8,13.5,7,4.3,13.7,9,20.4,13.7,8.4,5.9,12.8-.6,18.2-7,11.7-14,22.9-28.7,33.6-43.5,9.3-12.9,17.9-26.3,24.6-40.6,2.4-5.1,6.4-13.9,13.5-12.8,6.2.9,9.9,8.4,13.1,13,2.2-1.6,4.2-3.8,7.2-2.9,2.5.7,4.3,3.3,5.4,5.5.8,1.5,1.3,6.6,2.6,7.4.9.5,4.4-.6,5.9-.3,5.3,1.2,7,8.1,7,12.8-.1,6.5-2.8,13.1-5,19.1-5,13.6-13.6,24.2-23.1,34.9a364.559,364.559,0,0,1-30.5,30.4c-2.7,2.4-5.3,4.8-7.9,7.2-2.1,2-5.5,4.1-7.2,6.5-3.1,4.4,5.2,6.4,8.3,8,13.3,6.9,25.5,16,37.2,25.2,12.1,9.5,24.2,19.1,35.8,29.2,11.3,9.9,22,20.4,34,29.6,12.3,9.5,25.1,18.2,37.7,27.2s24.9,18.5,37.5,27.5c12.3,8.8,25.5,16.4,38.5,24.2,6.8,4.1,13.6,8.1,20.4,12.2,5.5,3.3,11.5,8.3,18,8.8,5.9.4,11.5,2.5,15-3.9,2.7-4.9,1.6-11.5-.8-16.2-2.8-5.8-7.3-11-10.9-16.4-4.1-6.1-7.9-12.4-12-18.6-3.9-5.9-8.2-11.3-12.6-16.9s-7.8-12-11.7-18c-8.4-12.8-17-25.3-25-38.3-18.3-29.9-34.6-60.8-50.2-92.1-1.7-2.6-33.8-59.5-32.9-60m-25.7,183.9c9.8,33.9,4.2,68.4,2.1,102.9-1,17.4-1.2,35-1.6,52.5-.2,8.5-.2,17,.1,25.5.2,4.3.5,8.5.8,12.8.3,3.8-.7,7.9-.3,11.6.6,4.7,9.9,5.6,7,11.6-1.9,4-8.6,4.6-12.2,6.3,1.6,1.8,4.1,4.6,6.7,4.8,2.4.2,4.2-1.9,6.4-2.7,1.9-.7,4.5-1.4,5.7.8,1.3,2.3-1.4,4.9-2.4,6.7,3.5.7,6-1.4,9.2-1.2,3.4.2,3.5,3.5,5.7,5.4,2.5,2.2,6.9,2.7,10,3.6a51.228,51.228,0,0,1,10.6,4.3,29.984,29.984,0,0,1,13.1,16c2.3,6.7-1.3,12.4-6.5,16.5-2,1.5-4.8,3.3-7.4,2.5-3-.9-3.4-3.4-7-3.2-3.2.2-6.3,1.5-9.6,1.6-4.8.2-9.6-.6-14.4-.4-19.4.7-38.7.9-58.1-1-5-.5-9.9-.9-14.8-1-3.8-.1-4.2-3-4.8-6.6-1.6-8.7,1.9-17.2.2-25.6.1.6-2.6-.9-2.9-1.2-2-1.7-2.7-4.1-3.3-6.5-1.6-6.6-1.6-13.3-1.1-20,1.1-15.3,4-30.4,3.7-45.8-.1-7.7.1-15.5.1-23.2,0-7.1.6-14.1.7-21.2.1-15.5,1.8-30.8,2.2-46.2-3.2,3.1-4.9,7.5-7,11.4a123.492,123.492,0,0,1-8.4,14c-6.3,9.2-14.9,16.8-23.7,23.6-16.8,13-35.1,23.1-55.7,28.6a422.336,422.336,0,0,1-67.9,12.3,85.566,85.566,0,0,1-16,.3c-3.5-.3-9.2-3.2-12.5-1.7-3.8,1.6-4.5,5.5-9.5,4.4-1.9-.4-3.3-1.7-4.9-2.5-2.4-1.3-2.5-.4-4.8-.2-2.6.2-4.1-1.1-6.4,1-1.9,1.8-1.7,3,0,4.7,2.5,2.3,6.4,2.7,8.9,5.1,2.4,2.4,2,5.3-1.7,5.3s-7-2.6-10.7-3c.8,10.8,4,22.8.4,33.3-1.7,4.9-5.2,8.1-10.6,8-8.9-.1-16.7-8.3-22.1-14.7-3-3.5-5.4-7.5-8.2-11.1-2.9-3.7-6.1-7.4-7.8-11.9-1.8-4.8-1.3-9.5-.3-14.4,1.2-6,2.4-12.2,3.9-18.2,2.9-11.6,8.7-22.2,11.7-33.8,1.1-4.4,1.1-9.5,3.9-13.3,3-4,7.6-4.2,12.2-4,5.7.3,11.3.9,17,1.6,3.6.4,11.4,3,14.3.8,1-.8,1-2.7,2.2-3.4,1.1-.7,2.9-.2,4.2-.1,6.1.5,12.2,1,18.4,1.2,22.7.7,46.7-2.9,66.9-13.4,9.4-4.9,16.6-12.6,24.1-19.9,7.4-7.2,13.9-14.9,15.9-25.2a63.53,63.53,0,0,0-1.9-30c-3-8.9-13.4-14.4-21.1-18.8a239.083,239.083,0,0,0-33.2-15.6c-1.8-.7-4-1.6-6-1.2-2.4.4-4.1,2.6-6.3,3.5-2.6,1.1-5.9,1.1-8.7,1.8-2.7.6-5.3,1.5-8.1,1.9-8.7,1.3-20.8.3-28-5.3-11.7-9-4.6-21.8-.9-32.8-4-.1-7.3.8-11.1-.9a17.157,17.157,0,0,1-8.5-8.5c-3.1-6.8-1.3-14.7-.4-21.8a39.457,39.457,0,0,1,2.1-9.5c1-2.3,2.5-4.6,3.1-7.1.6-2.7-.2-2.9-2.5-4.2a21.421,21.421,0,0,1-8.2-7.9c-4.2-6.9-4.3-14.5-.9-21.8,1.4-2.9,4.7-7,4.3-10.4-.3-3-3.7-5.3-5.7-7.2a217.843,217.843,0,0,0-19.3-16.7,114.885,114.885,0,0,1-9.5-7.4c-2.1-2-4.2-6.5-7.1-7.5-2.9-1.1-4.8,2.1-6.8,3.9-3.1,2.7-6.1,5.8-9.5,8.1-6.1,4.2-13.7,3.4-20.6,2.1a53.418,53.418,0,0,1-20-7.9c-2.4-1.6-5.3-4.9-8.3-5.1-3.2-.3-6.7,2.9-9,4.8-6,5-7.8,12.8-11.3,19.5a39.144,39.144,0,0,0-4.5,23.7c1,7.6,3.9,13.3,8.2,19.5.9,1.3,3,3.7,1.5,5.1-1.9,1.7-5.7-1.7-7-2.8-12.6-11.1-19.7-27.7-15.6-44.4,2.2-9,6.5-17.2,11.4-24.9,2.1-3.3,4.2-6.6,7.9-8.2,4.2-1.9,8.9-1.7,13.4-2.1-3.1-15.1-4.1-31.6,5.4-44.8,7.3-10.1,22.2-19,34.1-10.8-.5-11.2-2.1-21.8.9-32.8a82.337,82.337,0,0,1,5.4-14.3c2.2-4.5,5.2-8.3,7-13,7-18.4,20.4-34.9,34.8-48.2,14.5-13.4,28.7-29.7,47-38.1,19.1-8.7,38.5-16.6,59.1-20.6,21.4-4.1,43.5-5,65.1-1.1,18.9,3.4,36.5,14.9,50.8,27.3,16.4,14.1,26.9,31.2,35.3,51a135.237,135.237,0,0,0,5.9,12.9c2.5,4.6,5.7,8.9,7.5,13.8,1.6,4.4,1.9,9.2-1,13.1-2,2.8-6.3,3.4-8,5.9-.9,1.3-.8,2.5,1.2,2.9,2.1.4,3-1.9,4.5-2.8,3.7-2.3,8.9-.3,12.6,1a41.839,41.839,0,0,1,21,16.3c5,7.3,8.4,15.7,11.7,23.9a97.762,97.762,0,0,1,5.3,15.8c.4,2.1,1,7.7-2.2,5.2-1.3-1-3.2,6.5-2.9,7.8,1.2,4.2,5.7,8.1,8.3,11.5,6.1,8,10.2,16.9,14.5,25.9,9.4,19.5,19.8,38.4,29.8,57.5,20.4,39,42.6,76.5,66,113.7,11.6,18.5,23.5,36.6,35.9,54.5,5.5,7.9,10.9,15.8,16.3,23.8,4.5,6.8,9,14.4,7.8,22.8-1.1,7.8-5.7,14-13.1,16.5-4,1.4-8.7,2.9-13,2.5-4.7-.5-8.8-3.6-12.7-5.9q-26.851-16.2-53.8-32.4c-20-12.1-38.4-26.4-57.5-39.8-9.7-6.8-19.8-13-29.9-19.1-2.2-1.6-12.5-11.5-14.7-10.2" fill-rule="evenodd"/><path id="ink-shape-2" data-name="ink-shape" d="M244.664,452.2c-4.9,7.2-10,14-16.9,19.5a164.331,164.331,0,0,1-23,14.9c-14.3,7.9-33.5,14.9-50.1,11.3-4.7-1-12.3-5.1-8.2-11,2.1-3,6.5-2.2,9.6-2,5,.3,9.5.6,14.3-1.1,8.9-3.1,17.8-6.1,26.5-9.7,8.4-3.6,15.8-8.4,23.5-13.2,7.2-4.5,12.8-9.9,19.1-15.3,1.7-1.5,4.7-4.1,6.4-1.2,1.2,1.8-.6,5.8-1.2,7.8" fill-rule="evenodd"/><path id="ink-shape-3" data-name="ink-shape" d="M442.564,105.9c-.5,3.1-2,9.3-6.4,8.5-5.6-1.1-2.8-12.1-2.9-15.8-.4-16.2-5.7-31.8-13.5-45.9-3.9-7-8.7-13.5-12.2-20.7-.7-1.4-2.8-4.9-1.3-6.4,1.8-1.8,5.3.9,6.6,2.2,5,5,8.9,12.6,12.7,18.5a129.378,129.378,0,0,1,12.9,25.1C442.264,82.2,444.464,94.6,442.564,105.9Z" fill-rule="evenodd"/><path id="ink-shape-4" data-name="ink-shape" d="M453.064,54c.5,2.8,3.1,10.5-1.5,11.2-5.2.8-6.8-12-8.2-15.4-.8-1.8-4.8-9.6-2.7-11.3,4.3-3.6,11.3,13.2,12.4,15.5" fill-rule="evenodd"/><path id="ink-shape-5" data-name="ink-shape" d="M209.264,433.8c-4.9,4.5-10.6,4.2-16.8,3.8-3.2-.2-10.4-2.1-5.4-6,2.6-2,23.4-3.4,22.2,2.2" fill-rule="evenodd"/><path id="ink-shape-6" data-name="ink-shape" d="M592.364,515.8c.3-.7,3.3-4,3.9-2.7s-3.2,2.7-3.9,2.7" fill-rule="evenodd"/><path id="ink-shape-7" data-name="ink-shape" d="M201.364,268.2c-.6,1.2-3.1.2-4,.3,1.1-2.4,2.5-1.9,4-.3" fill-rule="evenodd"/><path id="ink-shape-8" data-name="ink-shape" d="M391.364,135.8c-.3,1-.5,2-.8,3-.4-.7-.8-1.5-1.2-2.2.6-.3,1.3-.5,2-.8" fill-rule="evenodd"/><path id="ink-shape-9" data-name="ink-shape" d="M396.164,324.8c6.3.6,12.6,1,19,1.2,5.3.2,7.5-.8,8.2-6.4.8-6.6,1.1-13.2,1.9-19.8.4-3,3.3-9-.2-10.6-2.9-1.3-7.5.6-10.6.8-3.4.3-8.6-.8-11.6,1.2-3.2,2.2-2.5,9.8-3.1,13.3-1.1,6.8-2.3,13.5-3.6,20.3m-3-32c-5.7.4-11.5.8-17.2,1.4-2.5.3-7.7,1.5-9.8-.3-5-4.3,13.7-5.9,15.9-6.2,3.6-.6,9.7.2,12-3.2,2.3-3.3,1.7-9,2.3-12.9.9-5.9,1.9-11.7,2.5-17.6.2-2-.1-8.5,2-9.5,4.8-2.2,3.3,20.8,3.2,22.5a86.614,86.614,0,0,1-.7,8.9c-.2,1.7-1.1,3.9-.5,5.6,1.4,4.8,9.7,2,13.4,1.6,4.2-.4,10.7,1.2,12.1-4,1.7-6.5,1.5-13.9,2.1-20.6.2-1.9.6-15.7,4.1-14.6,3.8,1.2,2.3,12.8,2.3,15.7,0,3.4,0,6.7-.3,10.1-.2,3-1.1,6.7-.4,9.7,1.1,5.2,7.3,2.5,9.1,6.6,1.7,4-7.6.9-9.4,2.2-2.6,2-2,10.5-2.3,13.5-.8,6.5-2.4,13.3-2.9,19.8-.4,5.1,3.7,4.5,7.9,4.1,3.6-.3,7.6-1.2,11.2-.7,2.9.4,7,3.1,2.7,4.8-6.6,2.8-20.1-2.9-23.4,5.5-.6,1.6-3.5,20.1-7.2,11-1.5-3.8,2.2-9.8-1.8-12.7-1.4-1-3.4-.8-5.1-.9-4-.3-7.9-.4-11.9-.5s-7.5-.9-9,3.5c-1.2,3.4-1.1,7.1-2,10.6-.7,2.6-3.1,7.1-5.5,2.9-1.6-2.8-.4-7.6-.1-10.7.2-1.5,1.1-4.6-.1-5.9-1.2-1.4-4.5-.6-6.1-.5-4.5.4-12.9,2.5-16.3-1.6-2.9-3.4,3.1-3.5,5.5-3.7s4.9-.5,7.3-.7c2.7-.3,6.2.1,8.7-.7,4.2-1.4,3.9-7.1,4.2-10.9.6-7.2,2.3-14.4,3.5-21.6" fill-rule="evenodd"/><path id="ink-shape-10" data-name="ink-shape" d="M467.364,308.3a51.27,51.27,0,0,1-2.2,12.9c-1,3-3.1,3.9-3.8.1-.5-2.4,2.5-16.1,6-13" fill-rule="evenodd"/><path id="ink-shape-11" data-name="ink-shape" d="M200.764,280.7c-1.7-1.2-9.7-7.6-3.9-7.8,2.9-.1,9.3,4.7,9.5,7.4,0,.7-1.4,1-1.3,1.7.2,1.2,2,1.8,2.6,2.8,1.3,2.2.8,6.5-.9,8.6-3.9,4.7-8.2-3.3-5.2-4.9-.7.4-9.6-4.2-10-5.2-1.9-5.7,8.7-.4,9.2-2.6" fill-rule="evenodd"/><path id="ink-shape-12" data-name="ink-shape" d="M214.764,302.8c-2,.1-6.2-.1-7.7-1.5-2.8-2.7,2.7-3.1,4.3-4.3,2.3-1.8,2.7-7.5,6.3-4s.5,7.6-2.9,9.8" fill-rule="evenodd"/><path id="ink-shape-13" data-name="ink-shape" d="M185.364,287.9c3.7-.5,11.9,7.4,7.9,8-2.7.3-7.4-5.9-7.9-8" fill-rule="evenodd"/></g></g></svg>