<svg id="Layer_1" data-name="Layer 1" xmlns="http://www.w3.org/2000/svg" viewBox="0 0 742.511 719.024"><title>1</title><g id="Character_strolling" data-name="Character/strolling"><path id="Accent" d="M512.2,606.8q-53.25,11.55-106.4,23.3l-15,3.3q2.25-68.7,4.5-137.3.3-9.9.6-19.8c-8.2,7.2-16.8,14.1-24.7,21.7-10.1,9.7-19.7,19.7-30.1,29.1-17.8,16.2-36.5,31.9-57.2,44.4a185.537,185.537,0,0,1-74.3,25.3,129.16,129.16,0,0,1-27.8-.1c-8.3-.9-16.5-1.7-24.8-2.6-3.3-.3-6.7-.7-10-1-.8-.1-3.4.1-4.1-.4-1.2-1-1.8-5.4-2.2-6.9q-2.849-8.85-5.7-17.7c-5.1-16.1-10.2-32.1-15.1-48.3-4.2-13.8-8.6-27.7-11.7-41.8-.4-1.7-1.2-3.8-1-5.5.2-2.5-1-2,2.3-2,7.7-.1,15.9,1.8,23.7,2.3,8,.6,16,.9,24,1,42.3.4,91-4.2,125.3-31.6,11.5-9.2,23-19.8,31.9-31.6,12.6-16.7,19.4-38.8,21.1-59.4,1.9-23.1-2-46.9-7.7-69.3-1.1-4.5-.9-6.2.1-10.9.8-3.9,1.6-7.9,2.5-11.8.2-1.1.5-5.7,1.4-6.3,1.6-1.2,9.2.1,11,.1l22.9.3,44.3.6c7.7.1,15.3,1.3,23,2.1,16.3,1.7,32.7,3.4,49,5.1,3.3.3,6.5.7,9.8,1l-6.3,55.8c-1.6,13.9,3.9,27.6,6.8,41.2,6.6,30.5,12.9,61.5,15.4,92.7,2.3,29.4,2.3,59,3,88.5q.9,33,1.5,66.5" fill="#34558b" fill-rule="evenodd"/><g id="Ink"><path id="Fill-3" d="M284.2,45.6a6.823,6.823,0,0,1,1.5-4.3c2.2,1.9,5.7,11.5,9.4,5.3.7-1.2.8-5.8,3.3-4.4,1.2.7.9,3.9.8,5-.3,3.9-2.1,9.3-7.1,9.1-5.2-.2-8-6.4-7.9-10.7" fill-rule="evenodd"/><path id="Fill-5" d="M287.3,37.1c-8.5,1.6-5.1-6.1,1.1-6.7,2.3-.2,6.3-.1,5.7,3.3-.4,3-4.5,3-6.8,3.4" fill-rule="evenodd"/><path id="Fill-7" d="M263.8,62.3c-2.7.3-7.1-3.5-2.6-4,2-.2,6.3,3.6,2.6,4" fill-rule="evenodd"/><path id="Fill-9" d="M730.5,107c-2,1.6-8.2-3.5-10.2-4.4-7.8-3.5-16.8-5.4-25.2-6.9a357.239,357.239,0,0,0-50.5-5.2,217.283,217.283,0,0,0-30.2,1.1c-2.5.3-19.7,3.1-20.1-1.6-.7-8.3,44.6-7.9,48.9-7.8a254.127,254.127,0,0,1,56.4,6.5c5.2,1.3,36.9,13.7,30.9,18.3" fill-rule="evenodd"/><path id="Fill-11" d="M188.2,243.4c-10.3,3.1-22.1,2.6-31.8-2.3-1.7-.8-5.7-2.6-3.6-4.8,2.3-2.3,8.8,1.6,11.3,2.1,12.2,2.4,27.7-2.4,36.3-11.3a29.345,29.345,0,0,0,7.7-16,46.393,46.393,0,0,0,.7-10.5c-.2-3.7-1.7-7.6-.7-11.3,4.5,2.7,4.6,9.7,4.9,14.2.4,5.7.4,11.2-1.2,16.8-3.3,11.5-12.2,19.7-23.6,23.1" fill-rule="evenodd"/><path id="Fill-13" d="M3.7,549.2c.3.9.6,1.7,1,2.7,1.4-2.6,1.4-2.6-1-2.7m13,66.8c5.2,2.4,10.9-4,13.7-7.6,4.6-6,6.6-12.8,8.4-20,2-7.9,4.3-15.8,6.2-23.7.8-3.6,1.6-7.1,2.5-10.6.8-2.9,3.6-8.1,2.4-11.2-2-5.1-12.1-6.5-11.4-13.4.6-6.3,11.7.4,14.3,1.8,6,3.1,2.9-.8,0-3-2.2-1.7-12.5-9-7.1-12.8,3.5-2.4,11.1,4.9,14,6.3,3,1.4,4.2,1,6.6-1.5,1.8-1.8,4.4-4,5.7-6.1,3.4-5-1.1-14.9-1.8-20.7-.2-1.3.8-8.3-.1-9.2-1.2-1.1-6.2-.3-8.1-.6-6.7-1-13.2-1.8-19.9-2.6-4.4-.6-17.5-3.9-20.1.7-2.1,3.6-1.4,10.6-1.4,14.5,0,8.2,0,16.1-.8,24.3-1.7,17.9-3,35.7-4.6,53.6-.8,8.7-2.4,17.2-3.2,25.9-.5,5.4-1.3,13.2,4.7,15.9M117,484.1c4.9,12.2,8.9,24.8,13.2,37.3,2,5.8,3.8,11.6,5.7,17.3,1.9,5.5,5,10.5,6.5,16.1,3,10.6,5.5,21.2,9,31.7.5,1.5.2,4.8,1.1,5.9,1.1,1.3,6,1.1,7.8,1.3a129.88,129.88,0,0,0,21.6,1.3,249.237,249.237,0,0,0-22.1-23.9c-6.8-6.7-16-14.2-17.1-24.4-1.5-13.5,12.6-10.8,21.4-10,12.2,1.1,26,6.1,38.3,3.3-8.5-11.5-21.3-20-31.9-29.3-4.1-3.6-8.5-7.6-10.6-12.9a14.1,14.1,0,0,1-.9-8.6c.9-3.4,2.9-4.1,5.7-5.7-17,0-34.1-.6-50.3-6.4-.7,2.9,1.7,4.7,2.6,7m75.8,108.1c3,4,8.3,2.9,12.7,2.7a154.947,154.947,0,0,0,19.2-2.4,123.565,123.565,0,0,0,18.9-5.4c1.3-.5,5.3-1.6,5.7-3.2.4-1.4-2-4.3-2.6-5.3-1.7-3.4-2.6-9.5,1.3-11.9,3.2-2,7.9,0,11.1,1,4.8,1.4,10.4,4.2,15.3,2.1,6.2-2.8,12.3-6.7,18.1-10.2-10.5-9.5-20.8-19.2-31.5-28.5-9.9-8.5-21.7-18.2-27.9-29.8-2.3-4.4-3.8-10.6-1-15.2,2.5-4.1,7.7-4.2,12-3.9,12.9,1.1,25.6,4.3,38.2,6.7,4.3.8,31.7,7.2,31.8.2,0-1.5-2.8-4.9-3.6-6.1-1.6-2.7-3.3-5.4-5.1-8-4.1-6.1-8.7-11.9-13.1-17.7-2.3-2.9-5.1-9.1-9.5-8.4-2,.3-3.9,2.5-5.5,3.6a76.066,76.066,0,0,1-8.5,5.4c-11.8,6.8-24.8,10.2-37.9,13.5-3,.7-17.2,2.2-18.6,5.1-.7,1.5.9,4.9.9,6.5a11.917,11.917,0,0,1-1.8,6.9c-3.8,5.9-12.1,5.6-18.2,5.4-7.8-.2-15.7-.6-23.5.3,7.7,7.1,15.7,13.9,23.7,20.7,5.7,4.7,12,9.2,16.4,15.2,3.8,5.1,6.7,13.8,1.8,19.3-5.2,5.9-17,3.3-23.6,2.3-7.7-1.2-15.3-2.6-23-4.1a72.234,72.234,0,0,0-7.9-1.3c-3.2-.2-4.3-.3-2.1,2.6,5.4,7.3,13.6,12.5,19.4,19.7,2.7,3.4,5.9,6,8.7,9.2,3.8,4,6.6,8.7,9.7,13m106-39.9c3.7,3.8,7.9-1.6,10.9-4.1,4.5-3.7,8.9-7.5,13.5-11.1,8.7-6.9,17.7-13.2,25.9-20.7,2.6-2.4,6.8-5,7.6-8.6,1-4.6-1.4-8.7,1.1-13.4,4.6-8.8,14.3-1.6,20.5-6.7,3.2-2.6,5.5-6.4,8-9.6,3-3.8,6.9-7.6,8.6-12.2,1.8-4.8,2-7.1-1.3-11.2-3.6-4.4-8-8.4-10.9-13.3-2-3.4-3.6-8.4-.5-11.7,2.5-2.6,6.9-1.9,10.2-1.7a97.9,97.9,0,0,1,14.3,1.7c3.7.8,10.8,2.7,14.4.7,8.4-4.8-6.7-17.2-10.1-20.9-7.5-8.2-15.4-16.1-23.2-24.1-7.2-7.3-14.5-14.7-21.3-22.5-5-5.8-11-13.9-8.2-22.1,2.2-6.6,9.6-6.8,15.4-6.4,8.6.7,17.2,2.1,25.7,3.1,6.4.8,18.7,3.2,24.1-1.9,5.6-5.2-6.4-20.8-9.5-25.5a256.894,256.894,0,0,0-22-27.9c-3.8-4.3-7.7-8.5-11.6-12.8-3.4-3.7-6.5-8.3-10.3-11.5-4.2-3.5-10.6-3.1-15.7-3.6-5.5-.5-11.3-1.4-16.7-1.3-5,0-3.8,4.8-4,9-.1,1-1.4,9.9.1,10,.2-2,.3-3.9.5-5.9,4.3,1.8,7.4,5.5,10.7,8.6s7.8,6.2,9.2,10.7c3.9,12.7-11.8,8.2-18.3,6.9,1.5,14.4,5.2,28.4,7.2,42.7.9,6,.5,11.4-.2,17.4-.4,3.4-.3,6.8-.7,10.2-.3,2.7-1.6,5.8-1.1,8.5.9,5,7.2,10.2,10,14.4a64.339,64.339,0,0,1,8.7,18.1c3.1,11.7-2.2,20.2-14.4,21.3-5.5.5-11.7-.3-17.1-1.1-4.7-.7-10.7-4.2-15-1-1.8,1.3-3,3.6-4.5,5.2-2.2,2.3-4.8,4.3-7.2,6.4-2.3,1.9-8.7,5.3-8.1,8.3.5,2.2,4.3,5.4,5.6,7,1.7,2.1,3.4,4.3,5,6.5a202.857,202.857,0,0,1,11.8,17.3c4.4,7.2,10.5,20.1,3.1,27.6-4.3,4.3-11.4,3.6-16.8,2.7-7.4-1.2-14.8-2.7-22.1-4.5s-14.7-3.1-22.1-4.4c-6.3-1.2-13.7-3.4-20-1.1,18.5,21.5,41,38.4,60.8,58.5m107.7-99.4c2.4-2.8,4.8-5.9,6.9-8.9,1.9-2.8,1.8-4-1.5-4.8-2-.5-4.3,0-6.4-.3-2.2-.3-4.3-.9-6.4-1.4-2.4-.5-5-1.3-7.5-1.3-2.8,0-3-.2-1.6,2.2,1.9,3.4,5.6,6.4,8.2,9.2,1.7,1.8,5.6,8.4,8.3,5.3m-3,39c1.2,2.7,10.2.7,11.7-1.2,3.2-4.1-4.9-13.8-7.1-17.2-3.2,2.1-4.3,4.9-4.5,8.7-.2,2.5-1.2,7.3-.1,9.7m-3.4,136.4c5.4.5,12.4-2.6,17.3-4.3a189.428,189.428,0,0,1,20.9-5.6c14.1-3.2,28.7-3.6,42.9-6.6-9-11.7-19.9-21.8-29-33.4-3.3-4.2-8.2-10.2-6.7-16,1.5-5.7,7.3-4.4,11.7-3.1,5.8,1.7,11.4,4.2,17.1,6.3,2.7,1,14.7,6.8,16.9,3,1.5-2.5-7-11.9-8.3-13.6-4.6-6.1-9.7-11.8-14.8-17.5-9.5-10.7-20.2-21.6-27.6-33.8-5.5-9.2-7.3-23.8,7.5-23.2,6.1.2,12.4,2.1,18.3,3.4,5.5,1.2,13.7,3.7,19.3,2.3,5.9-1.5-.9-10.4-2.8-13.3-3.9-6.2-8.6-11.9-12.9-17.8-4.7-6.3-9.7-12.5-14-19.1-2.7-4.1-7.1-11.2-4.7-16.3,2.8-5.9,12.6-2.3,17.3-1.4,9,1.7,17.9,4.5,27.2,4.5-.1-4.7-4.9-8.8-7.6-12.1q-6.15-7.5-12.9-14.4c-3.2-3.2-6.6-8.5-10.3-11-3.8-2.6-6,5.5-7.5,8.5-10.9,21.9-22.8,43.5-37.4,63.1-3,4-7.3,7.2-4.8,12.2,2.6,5.3,6,9.9,7,15.8.7,4.4.3,10.5-3,13.8-3.3,3.2-8.1,2.5-12.1,3.8-4.3,1.3-3.1,5.1-3.1,9-.1,6.7-.1,13.3-.1,20,0,5.9.1,11.8.2,17.8.1,6.3,1.6,10.7,3.3,16.6a15.54,15.54,0,0,1,.2,9.3c-.8,2.7-2.2,3.2-3.9,5-3.2,3.7-2.2,10.6-2.5,15.2-.2,3.5-4.8,32.6-1.1,32.9m13.2,71.2c1.4,1.7,6.2,1.2,8.1,1.3,3.6.2,7.2.2,10.8.4,7.7.4,15.2,1.5,22.9,1.6,6.3.1,12.9.4,19,.9,3,.2,6.4-1.1,9.3-.5s4,1.4,7.1,1.2c7.7-.6,15.7.2,23.4.4,7.2.2,14.4-.4,21.6-.5,8.1-.1,16.2.2,24.3.3,8.7.1,17.5-.4,26,1.2-.8-3.6-.7-7.9-3.7-10.6-3-2.8-8-3.4-11.9-3.9-5.6-.7-11.2-.8-16.8-1.1-3.5-.1-6.9-1.3-10.4-1.7-5-.6-10.4-.2-15.4-.3-1.7,0-2.9-.7-4.5-.9-1.9-.3-3.7.2-5.7-.3-4.2-1-8.5-2.1-12.6-3.5-2.5-.8-2.4-1.6-4.4.4-1.3,1.2-2.1,3.5-3.2,5-1.8,2.4-5,5.2-7.7,2.4-2.9-3,.2-6.4-.4-9.6-.5-2.4-5.1-4.6-7.4-3.6-3.2,1.3-4.1,7.8-7.5,8.6-4.3.9-3.1-5.6-2.5-8,1.5-6.3,1-6.5-4.1-10.7-3.8-3.2-4.9-4.5-9.7-2.1a43.32,43.32,0,0,1-15.4,4,57.025,57.025,0,0,1-18.4-1.3c-2.9-.6-8.6-2.8-10.5.2-2.1,3.5.1,11.9.1,15.9.1,3,.2,6,0,9-.4,1.5-1.5,4.5-.4,5.8M491,609.4c4.5-.4,8.8-1.6,13.2-2.1,1.6-.2,5.1-.1,6.4-1.3,1.6-1.4.9-1.3.5-3.3a155.522,155.522,0,0,1-2-28.9c.2-7.4,1.6-18.8-2.8-25.2-5.2-7.5-13-13.1-18.3-20.7-2.8-4.1-6.8-15.1,2.2-14.8,3.6.1,7.4,2.4,10.9,3.2,4.9,1.2,5.2,0,4.8-4.5-1-10.4-.7-20.9-1.8-31.4-1.1-10.7-2.3-21.5-3.5-32.2-.6-5.2-.9-10.7-1.9-15.9-1-5-5.8-2.3-10.1-2.5-11.2-.5-22.1-7.4-33.4-6.3,9.4,17.7,25.5,31.1,34.6,48.9,3.2,6.2,6.1,15.8-1.7,20-8.7,4.6-21.9-1.2-30.8-2.7-3.1-.5-15.5-4.1-16.1.7-.3,2.6,4.7,8.7,6,10.6,2.9,4.3,6.2,8.3,9.3,12.4,6.2,8.2,13.6,15.3,20,23.4,5.6,7,12.5,13.9,17,21.6,4.2,7.3,5.1,20.4-6.9,19-12.2-1.5-22.9-11-35.3-11.3,6.4,8.4,13.6,16,20.7,23.8,3.4,3.8,6.7,7.6,10,11.5,2.3,2.6,5.1,8.3,9,8m16.7-76.1c-.3-3.5.6-5.4-2.6-7.4-2-1.2-6.9-3.2-9.1-2.3.8,1,10.5,12.6,11.6,11.6a4.084,4.084,0,0,0,.1-1.9M490.8,372.6c-.6-6.7-1.9-13.4-2.2-20.1-.2-4.6.5-10.6-2.6-14.4-3.7,7-6.2,14.6-10,21.6-1.6,3-3.4,5.9-5,8.8-1.1,2-4.4,6.4-4.2,8.8.4,4.1,8.6,10,11.3,13,5.7,6.3,11.2,12.7,17,18.8-.9-12.3-3.3-24.3-4.3-36.5m.1-109.2c-1.6-2.2-12.4-1.2-14.8-1.4-7.4-.7-15.4-1.2-22.6-3.2,11.4,14.1,21.6,29.3,28.2,46.1a158.05,158.05,0,0,0,5.7-21.2c.8-3.6,1.5-7.3,2-11,.5-1.7,2.5-7.9,1.5-9.3M456.3,366.2c3,1.5,12.3-21.2,12.7-23.7-4.4,1-21.8,1.8-22.8,7.3-.5,2.6,2.5,5.7,3.8,7.6,1.5,2.3,3.7,7.6,6.3,8.8m-27.7-23.1c-6.4,8.1-18.5,6.4-27.5,5.3-6.1-.8-12.1-1.8-18.2-2.7-6-.9-13.3-2.5-19.1-.1,9.4,13.2,21.6,24.2,33,35.6,5.9,5.9,11.5,11.9,17.2,18,5.5,6,10,13.5,15.8,19,5-9.1,9.7-18.4,14.5-27.6,2-3.9,4.6-7.3,6.7-11.2,2.3-4.2,2.6-6.1-.3-10-4.3-5.7-10.4-13.4-9.6-21,1-8.9,11.6-9.9,18.5-11.8,3.5-1,7.5-1.7,10.7-3.5,4-2.2,4.2-5.9,5.6-9.9,1.6-4.8,3.1-8,1.4-13.1a124.939,124.939,0,0,0-5.5-12.5A162.792,162.792,0,0,0,457,273.8c-3.6-5-7.8-14.9-14.3-16.3-4.6-.9-10.3-.6-15-.8-5.5-.3-10.9-.5-16.4-.7-11.3-.5-23.5-1.6-34.8-.1,13.3,14.4,26.7,28.4,38.5,44,7.8,10.4,24,30.2,13.6,43.2m50.8-108.6c-6.2-11.4-11.9-22.7-20.2-32.7-7.2-8.6-13.8-17.6-21.2-26.1-15.7-17.7-36.1-30.7-55.1-44.5-4.3-3.1-9.8-4.8-14.5-7.5a113.587,113.587,0,0,0-18.4-8.5,92.363,92.363,0,0,0-36.8-5.5c-13.5.9-23.7,5.7-32,16.2-8.2,10.3-9.5,21.7-9.7,34.7-.1,6.2-.2,12.4-.1,18.5s.9,10,4.6,14.6c3.1,3.9,9.5,5.8,14,7.6a124.206,124.206,0,0,1,17.2,8.4c2.4,1.4,8.2,6.7,11.2,6.2,4.4-.8,5.5-8.7,5.9-12.1a215.064,215.064,0,0,0,.7-39.3c-.4-6.7-3.5-16.7-1.8-23.5.7-2.8,2.4-3.8,4.5-1.3,2.6,3.1,3.2,10.3,3.8,14,2.3,13,2.2,26.1,2.2,39.3,0,5.2,3,8,4.9,12.6a94.118,94.118,0,0,1,5.7,18.5,52.533,52.533,0,0,1,1.1,11.2c0,2.1-1,5.3-.3,7.3,1.5,3.8,11.1,1.7,14.3,1.6,14.3-.3,28.5-1.1,42.8-1.3,28.9-.4,58,3.9,86.3,9.4-3-5.9-5.9-12-9.1-17.8m-12.4-61c2.3.4,9.9,4.5,11.2,1.9,1.1-2.3-4.4-10.3-5.3-12.5-1.9-5-2.4-10.6-3.5-15.8-.7-3.3-.8-9.8-2.6-12.7-2-3.3-6.6-1.6-9.9-1.5-5.6.2-11.3.2-16.9.1-5.7,0-11.4-.2-17.1-.2-5.8,0-11.6-1-17.4-1,.6,2.1,3.4,3.1,5.1,4.1a45.212,45.212,0,0,1,7.1,5.3c5.4,4.6,10.8,8.4,15.3,13.9a101.526,101.526,0,0,0,14.9,14.4c2.7,2.2,4.6,2,7.9,2,4,.1,7.4,1.3,11.2,2m14-11.2c1.4,4.3,1.5,5.6,6.1,5.3l17.7-1.2c13.5-1,27-3,40.5-3.7,11.5-.6,23.9-2,35.4-.8,5.3.6,11-.5,16.5-.3,6.6.3,13.2.2,19.5,2.3,5.2,1.7,9.6,2.6,13.4,7s6.3,9.9,8.9,15.1c4.9,10,8.7,23.1,17.2,30.7,2.2,1.9,5.8,5.2,9,4.8,5.2-.6,3.6-7.4,3.1-10.9-1.5-11.7-6.1-21.8-9.6-33-1-3.3-3.1-12.2,2.3-13.4,3.8-.9,9.8,7.5,12,9.8a167.822,167.822,0,0,0,15,14.2c4.5,3.6,8.9,7.6,15.1,6.8-2.9-8-6.2-15.7-11-22.7-4.1-6-11.1-11.5-13.7-18.4-2-5.2-.2-12.3,5.8-7.7,5.3,4,9.8,8.9,15.2,12.8a80.111,80.111,0,0,0,23.5,11.9c2.8.8,7.7,2.5,10.4.5,4-3-.1-9.2-2.3-12-20.9-25.8-55.6-35-87.3-37-8.3-.5-16.8.3-25.1.4a174.076,174.076,0,0,0-22.9,2.2c-16.1,2.4-32.3,4.3-48.4,6.7-4.3.6-9.4,1.9-13.7,1.7-1.8-.1-2.7-.5-4.4-.1-1.5.4-2.6,1.2-4.3,1.5a213.824,213.824,0,0,1-28.9,2.3,92.393,92.393,0,0,1-13.9-.6c-2.7-.4-5.5-1.5-6.3,1.7-.6,2.4,1.3,7,2,9.4,1.2,4.8,1.7,10.1,3.2,14.7M308.4,78.9c1.6.1,4.3.3,4.8-1.7,1-3.8-4.1-1.5-5.1-3.9-1.1-2.7,2.5-3.4,4.1-3.8,3.2-.9,2.4-.7,2.5-4.1a23.91,23.91,0,0,1,2.3-8.7c1.7-3.9,1.8-3.7-2.1-4.1-6.6-.8-8-6.6-10.5-11.9-1.5-3.3-3.2-6.5-4.1-10-.6-2.1-.5-5.5-2.6-6.7-2.8-1.6-9.4.1-12.3.4-4.9.7-10.2,1.4-14.9,3.1-4.1,1.4-5.6,4.7-9.3,5.3-2.4.4-16.6-.5-14.7,3.8,1.2,2.7,6.7,1.2,8.7,1.1,2.6-.1,5.7-.5,8.3,0s2.8,1.5,3.8,4c-2.4-.1-11.4-1.5-13.4.3-1.7,1.6-.5,3.3,1.3,3.9,3.4,1.1,8-1.1,11.6-.1,2.6.7,2.4.8,3.4,3.3a19.845,19.845,0,0,1,1.4,4.1c1.3,8.1-6.1,1.8-9.2,0-5.7-3.3-11.8-2.7-10.7,5.2a12.905,12.905,0,0,0,3.6,6.8c2.6,2.7,3.2,3.2,3.3,7.2.1,3.5-.3,7.2,1,10.5,1.3,3.7,4.2,6.8,6.5,9.9,2.7,3.8,5.5,7.5,8.1,11.3,1.1,1.6,2.7,5.8,4.9,6.3,2,.5,5.2-2.7,6.9-3.7,4.1-2.3,8.6-3.7,12.8-5.8-3.5-3.1-6.6-6.7-10.1-9.8-2.7-2.5-4.1-2.9-3.2-7.1,2.1-9.1,16.1-5.3,22.9-5.1M255.5,274.2c-11.1,10.8-27.6,17.5-42.7,20.2-15.7,2.8-33.7,4.9-49-.5a162.8,162.8,0,0,1-43.7-23.8c-1.6-1.2-20-19.1-21.5-17.7,5.4,8.2,11.2,16.1,16.9,24,2.8,3.9,12.6,17.3,7,22.2-3.7,3.2-10.1-2-13.2-4a43.174,43.174,0,0,0-24.6-7.7c4.1,7.6,10.5,14.4,13.8,22.4,1.6,3.8.8,3.5-2.8,2.5-4.5-1.3-9.6-2.8-14.3-3-2.2-.1-6.6.9-7,3.7-.4,2.7,5.4,7.9,7.1,9.8,5.9,7.2,12,14,19.3,19.8,14.1,11.1,30.8,18.3,47.8,23.6,17.4,5.4,35.9,7.1,53.7,2.7a99.376,99.376,0,0,0,24.8-9.5c3.6-2,7.3-2.9,10.8-5.2,3.6-2.4,7.2-4.8,10.8-7.1,7.5-4.8,12.1-9.5,17.4-16.7,2.1-2.9,5-5,7-7.8,2.2-3.1,4.5-6.3,6.5-9.6,9.5-15.1,18.8-31.4,24.3-48.4,2.9-8.8,4.8-17.8,7.2-26.7.8-3.1,3.9-9,3.2-12.1-.6-3-5.4-4.2-7.7-5.5-6.9-3.7-13.8-7-20.5-11-9.3-5.5-7.6,5.7-8.2,12.2-1.7,19.1-8.2,39.4-22.4,53.2m78.4,7.3c2,1.7,6.9,2.7,9.4,2-2.5-3.7-6.3-6.1-9.5-9-.3,2-1.9,5.4.1,7M322,412.2c4.5.3,9.2,1.7,13.7,1.7,4,0,9,.4,12.9-.5,10.7-2.4,4.4-12,.6-18.3-2.1-3.5-4.6-6.6-6.8-10-.5-.8-2-4.2-3.1-4.3-1.7-.2-2.2,2.6-3,4.3-2.2,4.6-4.2,9.3-6.7,13.7-2.6,4.5-6.1,8.5-7.6,13.4M206.6,480c-.9-5.1-15.9.1-19.3.7-1,.2-12.7,1.6-12.6,2.6,3.8.3,33,3.1,31.9-3.3M2.8,594.4c-2.3,1-2.2-6.3-2.3-7.3-.2-2-.5-5.5.5-7.2.7-1.3.9-.6,1.3-1,3.2-2.7-.7-3.9-1.4-6a6.455,6.455,0,0,1,.1-3.1c.9-1.6,1.2-.4,2.3-1.1.8-.4,2.3.7,1.8-1.4-.4-1.7-1.7-.7-2.3-1.2-2.5-2-2.2-4.6-1.8-7.8a56.9,56.9,0,0,1,1.6-9.2c.5-1.5,1.1-.8,1-2.6,0-.9-1.4-1.8-1.5-3-.1-1.4,1.3-3.7,1.3-5.2a33.259,33.259,0,0,0-.1-5.5c-.1-1.1-.4-1.6-.5-2.9a30.588,30.588,0,0,1,.3-4.2,72.277,72.277,0,0,1,1.3-11.5,6.632,6.632,0,0,0,.9-1.9,8.358,8.358,0,0,0-.8-2,46.391,46.391,0,0,1,0-5.3c0-3.3-.6-6.5-.8-9.8-.1-1-.4-2.6.2-3.5.5-.7,2.3-.5,2.5-1.2.6-1.9-1.1-.8-1.5-1.7a11.4,11.4,0,0,1-.2-2.6c-.1-2.1,2.9-16.3,5.5-14.4-1-.7,1-5.6,1.7-6.4,2.5-3.1,3.9.4,5.9,2.6,2.8,3,5.2,1.1,8.8.4,4.5-.8,9.4-.5,13.9-.4,4.7.1,9.4.4,14,.8,5,.4,9.8,1.9,14.9,1.9,7.5-.1,15,.1,22.5-.2,1.5-.1,5.1.1,5.7-1.8.2-.7-1.1-2.2-1.3-3a8.54,8.54,0,0,1,.2-5c2-4.5,6.2-.8,9.2.8a63.613,63.613,0,0,0,14,5.8c19.6,5.3,42.7,5,62.7,2.5,20.3-2.5,40.4-8.6,60.2-13.6,18.1-4.6,34.8-14.7,48.6-27.1,14.1-12.6,25.3-30.2,32.3-47.8,7.8-19.6,2.1-39.4,1.9-59.4-.1-10-2.3-19.8-2.9-29.7a77.052,77.052,0,0,1,3.1-28.2c.7-2.4,1.8-4.8,2.3-7.3.5-2.3-.4-4.1-.1-6.3.6-4.6,5.7-4.1,8-7.6,2-3.1-.1-7.9-.8-11.3-1.2-5.8-2.8-11.5-4.2-17.2a64.352,64.352,0,0,0-3.7,10.4c-.2.9-.2,2.6-.9,3.4-.5.6-1.6.5-2,1.1-1.2,1.9-1.1,3.7-1.3,6.1-.4,4.6-1.2,9.2-1.9,13.8-2.6,15.4-4.5,30.5-10.5,45-11.1,26.7-26.2,51.6-48.4,70.6-10.1,8.6-22.9,13.9-35.1,18.5-14.5,5.4-28.4,8.3-44,6.9-14.7-1.3-29.5-5.9-43-11.8-13.3-5.8-25.8-11-37.1-20.4-12.1-10.1-24.2-22.2-32.6-35.7-3-4.9-8.5-15-7.1-21.2,1.7-7.9,13.8-2.7,18.2-1.1-3.7-6-13.5-16.8-8.6-24.3,7.2-11,25.9.1,33.5,4.2-4-8-10-14.8-14.3-22.6-2.1-3.9-8-19.7.6-20.5,2.6-.3,5.4,2.7,7.2,4.2,3.6,2.9,7.1,5.8,10.7,8.8a137.889,137.889,0,0,0,24.9,16.5c17.9,9.3,35.1,14.2,55.4,12.3,17.3-1.7,36.3-6.9,49.8-18.3,8.1-6.8,14.5-14.4,18.6-24.2,4.6-10.9,7.5-22.8,10.7-34.1-5-1.3-8.4-.5-7.5-6.4,1.1-7.1.9-14.2.9-21.4.1-14.9.4-30,5-44.3a34.567,34.567,0,0,1,3-7.5c1.8-2.8,3.4-3.2,1.1-6.3-4.4-5.9-8.9-11-12.1-17.8A100.1,100.1,0,0,0,255,87.9c-3.4-5.4-7.9-9.4-12.2-14.1-5-5.4-8.9-10.5-11.5-17.4-1.2-3.2-2.8-6.5-3.5-9.9-.7-4.1,0-8.3.4-12.3,1.2-13.5,5.7-24.5,19-29.7C258,.2,270.4-1.6,281.8,1.7c13.7,4,20.2,16.1,26.8,27.7,1.8,3.3,3,6.8,4.6,10.1,1.7,3.4,3.5,3.4,6.6,4.8,6.3,2.7,5.7,10.7,3,15.9-3.4,6.6-2.8,14.3-5.7,21.2-3,7.1-7.8,9-15,10.6,2.7,2.2,5.3,5,8.8,6,4.3,1.1,9.4.1,13.8.1a89.271,89.271,0,0,1,27.1,4.3c8.5,2.9,16.2,7.5,24.1,11.6,3.6,1.9,7,4.6,11.1,5.1,4,.5,8.1-.5,12.1.1,8.9,1.1,18.6-.3,27.6-.5,9.7-.2,19.5-.1,29.2-.8a87.051,87.051,0,0,1,12.5-.4c3.8.3,6.1-.6,9.4,2,2.2,1.7,4,6,6.5,6.6,2.8.6,8.2-1.1,10.9-1.5,9.2-1.4,18.4-3.2,27.5-4.9,4.3-.8,8.3-2.2,12.6-3,4.4-.8,9.1-1,13.5-2,7.1-1.6,14.8-2.2,22.2-3.2,8.7-1.2,17.6-3.7,26.3-4,36.6-1.3,77.6-3.5,110.1,16.8,7.6,4.8,15.5,10.9,21.3,17.7,5.4,6.3,12,14.5,13.4,22.9,1.2,7.4.3,20.5-9.6,20.6-9.7.1-19.7-5.7-28.1-10,3.6,8.6,14.4,26.9,5,35.2-9.7,8.6-27.6-10-34-16,1.3,9.1,10.3,42.4-6.8,42.9-16.7.5-26.4-20.1-32.4-32.4-3.1-6.5-5.5-14.1-10.6-19.3-5.1-5.3-12.3-5.1-19.2-5.8-16.9-1.6-33.7-1.7-50.7-2.1-21.5-.5-42.6,3-64.2,1,.3,4.2-1.3,11.7-5.5,13.3-6.2,2.3-13.8-1-20.1-1,.4,2.5,4,5.2,5.6,7.1a90.032,90.032,0,0,1,7.3,10.9c4.3,7.4,8.9,14.8,11.9,22.9a127.631,127.631,0,0,1,3.9,12.4c.6,2.4.6,6,1.9,8.1,1.6,2.6,4.1,1.1,6.1,3.2,2.9,3-.1,4.6-1,7.2-1,2.8.3,7.7-.1,10.8-.6,4.7-1.2,9.4-2,14.1-1.4,8.5-4.4,16.4-6.5,24.8-1.9,7.9,3.3,16.3,5,23.9,2,8.9,3.1,17.8,5.2,26.7,2.2,9.3,3.2,19,4.6,28.4,1.5,9.3,3.5,18.4,5,27.6,2.7,17.6,4.4,35.6,6.6,53.3a263.631,263.631,0,0,1,2.1,28.1c.1,8.8,1.3,17.3,1.5,26.1.2,9.3.3,18.5.7,27.8.4,9.2-.7,18.3-1.2,27.4-.2,4.4-.3,8.7-.3,13.1.1,3.7,1.1,8,.1,11.6-1.8,7.1-11.8,11.4-18.1,13.5-7.7,2.5-15.8,4.3-23.7,6.2-3.8.9-7.7,1.7-11.6,2.3-1.5.2-3.3.1-4.7.8-2.1,1-1.7.5-1.8,2.9-.2,3.9,1,8.2,1.6,12.1.6,3.5-.2,9.4,1.2,12.5,1.6,3.6,12.5,6.6,15.2,4.1,1.9-1.7,2.4-5,4.7-6.4,3.2-2.1,4.7.8,4.7,4,0,2.4-1.8,5.2.4,7,1.9,1.5,5.8.7,7.6-.5,3-2.1,9.3-14.9,10.8-4,.4,2.6-.7,5.5,1.4,7.5,2,1.8,6.9,1.7,9.5,2.1a77.639,77.639,0,0,0,11.8.6c4.6-.1,9,1,13.5,1.2,7.1.3,14.2,1.3,21.4,1.4,7.4.1,15.4,2.1,21.1,7.1,6.5,5.8,5.2,12.9,3.9,20.6-.8,5.1,5.7,10.6-.9,15.1-2.6,1.8-7,1.4-10,1.4-5.2,0-10.3-.6-15.5-.3-37.7,2.1-75.6.5-113.3-.7-8.8-.3-18,.1-26.7-1-3.9-.5-7.8-1.2-11.7-1.6-3.3-.4-7.3.2-10.5-.9-7.9-2.7.6-10.8,1.2-15.5,1.2-9.1.7-18.6.8-27.8.1-9.7,0-19.4,0-29.1-4.2.3-16,3.4-19.3-.2-2.7-3,1.9-9.2,2.1-12.8.9-14.6.6-29.2,1.7-43.7,1.1-15,1-29.9,1.5-45,.5-16.1,1.6-32.1,1.6-48.2-11.7,12.4-22.9,26.1-36,37.1-5.6,4.7-11.7,8.8-17.5,13.3-6.6,5-12.7,10.5-19.2,15.6-12.2,9.4-26.6,14.8-39.5,23.2-13,8.4-26.9,15.3-41.8,19.5a157.214,157.214,0,0,1-50.6,5.2,197.26,197.26,0,0,1-24.2-2.9c-3.3-.6-6.6-1.4-10-2-4.7-.8-7-.1-11.4.8-5.8,1.1-7.2-7.3-9-11.4-3.2-7.5-4.5-15.7-7.4-23.4-4.9-13.4-9.4-26.7-13.8-40.4-1-3.1-1.6-8.5-5.3-8.9-2.5-.3-6.8,2.5-9.2,3.3a46.1,46.1,0,0,1-12.7,2c-3.7.1-4.2,1.5-6.5,4.1-2.1,2.4-6,3.8-5.3,7.4.4,2.1,2.7,3.7,3.1,6.1,1.5,8.5-7,1.2-10-.7-1.8,4,11.9,8.4,6.9,14.1-2.4,2.8-7.5-1.4-10-2.5-5.7-2.5-6.5,4.3-8.1,8.8-2.8,8.1-4.6,16.7-6.8,25-2,8-3.7,16.2-6.9,23.9-2.9,6.8-7.9,11.3-11.5,17.4-1.8,3-3.7,5.2-7.5,5.4a30.43,30.43,0,0,1-9.8-1.9c-2.3-.9-4.8-3.8-6.4-5.5-2.2-2.5-1.8-4.8-3.6-7.9.1,1.5.4,2.9.5,4.4-3.3-2.6,0-6.7-.6-10-.2-1-1.3-1.9-1.3-3,0-.4.9-1.5,1-2.1a12.649,12.649,0,0,0-.1-3.4c-.2-.4-1.4-2.4-1.4-2,0-.3-.5-.7-.2-1.6.7-2.1,2.8-2.3,2.7-4.1" fill-rule="evenodd"/></g></g></svg>