<svg id="Layer_1" data-name="Layer 1" xmlns="http://www.w3.org/2000/svg" viewBox="0 0 844.218 602.948"><title>1</title><g id="Character_loving" data-name="Character/loving"><path id="Accent" d="M358.909,253.506c-9.1,6.6-7.7,19.6-4.9,29,4,13.9,12.1,26.7,21.2,37.8,16.3,19.7,43.9,41.7,69.3,24.5,22.7-15.4,37-46.4,41.9-72.5,1.5-8.1,3.6-20.1-3.6-26.2-10.6-9-29.3-7.3-42.1-6.2-8.4.8-16.5,3.3-24.9,2.1-19.2-2.7-40.8-.2-56.9,11.5" fill="#34558b" fill-rule="evenodd"/><g id="Ink"><path id="ink-shape" d="M750.909,356.406c-18.4,23.4-49.8,27.1-77.6,26.9a253.426,253.426,0,0,1-49.9-4.8,214.524,214.524,0,0,1-26.1-7.2c-5.6-1.9-14-2.9-16.4-8.9-6.3-15.9-1.7-35.9.9-52.1,1.3-8.2,2.3-16.5,3.6-24.7.8-5.3,1.2-11.1,3.4-16,2.6-5.8,5.9-4.6,11.3-3,7.5,2.2,15.3,3.1,23,4.3,18.9,2.9,35.4,8.7,52.6,17,17,8.2,33.5,16.2,48.6,27.6a120.9,120.9,0,0,1,20.5,19.3c4.8,5.4,11.9,14.2,6.1,21.6m-80.5,103.8c-.1,2.5-29-5.1-32.8-5.9-24.9-5.6-50.4-12-73.9-22.1-22-9.4-41.4-20.2-58.7-37a249.694,249.694,0,0,1-22.3-24.8c-3.5-4.4-8.2-3.9-12.1-7.6-3.5-3.3-6.2-6-5.1-11,8.7,2.3,24.8,16.7,33.9,9.4,5.2-4.2-2-8.5-5.3-10.9a91.978,91.978,0,0,1-16.4-16,72.18,72.18,0,0,1,23.7,9.2c3.3,2,14.5,9.1,17.1,2.3,1.6-4.2-6-9.4-8.4-11.7-5.8-5.7-12.1-12.3-15.2-19.9,7.6-1.8,14.8,4.1,20.1,8.9,5.8,5.3,12.9,10.9,17.7,17.1,2.5,3.2,3,6.9,5,10.3,2.2,3.9,5.7,7.2,9.1,10,6.5,5.5,14,9.5,21.8,12.9a279.235,279.235,0,0,0,55.7,16.8,161.951,161.951,0,0,0,27.8,3c7.3.2,10.6,2.4,13.4,9.2,7.4,18.5,6,38.6,4.9,57.8m-217.3-139.1c-4.2,4-9.7,6.4-14.2,10.3a105.8,105.8,0,0,1-12.7,9.6c-4.6,2.9-8.1.9-12.3-1.8-4.9-3.1-10.5-4.3-15.6-7.1-17.5-9.5-38.8-32.8-35.6-54.2,1.4-9.1,6.1-18,14.6-22.1,7.7-3.7,19-5.8,27.2-2.7,4.7,1.8,8,5.6,11,9.5,3.5,4.5,4.8,3.8,8.4-.5,6.3-7.7,16.8-14.4,27.2-14.3a38.058,38.058,0,0,1,14.9,3.3c.6.3,1,1.2,1.6,1.5.8.4,2-.4,2.6-.1,1.4.9,2.7,3.5,3.5,4.9,3.1,5.5,8.8,16.2,3.1,20.8,0,0,.3,6.2.2,6.9a31.274,31.274,0,0,1-3.3,10.2c-5.1,10.3-12.4,18.2-20.6,25.8m8.4,86.3c-4,1.2-8.3-11.3-4.5-13.3,3.7-1.9,8.1,12.2,4.5,13.3m-63-15c-1.4,4.7-2,10.1-5.4,14-3.1-3.7-3.4-10.5-.4-14.3,1.8-2.2,7.3-4.9,5.8.3m128.4-83.2c0,.1,4.8,2.4,2.5,5-3.3,3.5-2.9-3.3-2.5-5m20-38.7c-.1,4.8-10.2,3.6-10.1-1.2,0-5.9,10.2-3.9,10.1,1.2m-12.1-40.1c1-4.4,18.7-10.5,18.2-2.8-.3,3.8-20.4,12.1-18.2,2.8m-181.2,149c-2,2.4-4.8,3.3-7.2,5.1-2.5,1.9-4.3,4.4-6.4,6.7-6,6.2-13.2,11.3-19.6,16.9-11.8,10.4-23.2,21.6-36.3,30.5-23.5,15.8-50.7,24.4-77.7,32-2.2.6-8.7,3.2-10.9,1.3-2.4-2-1.2-9.2-1.1-11.9.4-11.1,1.7-22.3,1.6-33.4-.1-4.5-1.4-11,1-15.2,2.6-4.6,10-6,14.6-7.8,13.9-5.3,27.3-14.3,39.6-22.6,15.1-10.2,30.4-20.6,45.9-30.1,15.2-9.3,32-15.6,49-20.9.8,1.7-7.3,7-8.2,7.7-4.4,3.6-9.3,7.3-12.6,12-2.3,3.3-4.7,10.9,1.7,11.1,3.1.1,7.7-2.9,10.6-3.9a88.929,88.929,0,0,1,14.4-3.5c-4.2,4.6-18.5,13-15.9,20.7,2.5,7.5,17.1-1.2,22.1-1.2-.9,2.7-2.9,4.5-4.6,6.5m-172.2,20.9c-9.3,3.3-18.9,5.1-28.5,7.3-9.2,2-17.7,3.5-27.1,2.4-13-1.6-27.4-7-29-21.8-2-17.5,10.4-33.5,21-46.1a295.407,295.407,0,0,1,43.1-41.3,324.147,324.147,0,0,1,50.3-32.4c13.5-7,28.7-11.2,43-16.5,2.7-1,10.2-4.5,12.8-1.6,2.1,2.3-.7,6.3-1.7,8.4-1.8,4.3-2.1,8.5-2.5,13.1-2.1,20.4-4.6,40.8-5.8,61.2-.3,5.7-.9,11.7-.6,17.4.2,3.2,1.8,7.2.7,10.3-2.1,5.9-11.8,9.9-16.9,12.5-9.2,4.7-18.8,8.3-28.1,12.8-10.1,5.2-20,10.6-30.7,14.3m129.4-132.4c2.6-.4,6.4-1,8.7.6,3,2.2,2.2,5.2-.6,6.7-2.2,1.2-7.3,1.6-9.4.5-3.6-2-3-7.3,1.3-7.8m14.2,47.2c-2.1,3.4-9.6,5.7-9-.7.6-5.6,12.8-5.7,9,.7m-2.8-97.2c3.3,1.3,9.4,2.4,10.4,6.7.9,4-2.9,3.7-5.6,2.6-2.3-.9-12.2-9.3-4.8-9.3m521.4,152c-1.9-7.6-.5-15.9-1.5-23.7a94.567,94.567,0,0,0-5.6-21.5c-5.9-15.7-12.8-29.8-22.4-43.5-18.2-25.9-39.2-48.7-64.7-67.6a321.9,321.9,0,0,0-82.4-44.5c-31.2-11.3-62.7-15.2-95.6-17.4-9.8-.6-19.7-1.4-29.5-2.7-7.2-.9-16.1-2-23.2.2-4.4,1.4-6.9,5.3-2.1,7.8,3.4,1.8,7.9,2,11.7,2.5-4.6,14.5-12,29.1-23.8,39.1-11.5,9.8-26.9,13.1-41.5,15.6-7.9,1.3-16.7,2.4-24.7,1.8-5.1-.4-9-2.7-11.1,2.5-1.4,3.6-2.1,7.6-4,2.1-2.2-6.5-3.3-6.4-10.2-8.3-14.1-3.8-30.2-7.2-42.4-15.3-12.7-8.4-17.2-22.1-24.3-34.8-1.8-3.1-7.1-9.5-4.3-13.1,2.5-3.3,10.5-3,14.2-3.3,3.9-.4,7.8-.4,11.7-.5,2.3-.1,6.8.8,5.9-2.5-1.4-5.1-16.1-4.4-19.7-4.5a138.684,138.684,0,0,0-20.4.8,629.168,629.168,0,0,0-99.8,19.7c-62.9,17.7-123.9,50.4-169.8,97.5-44.1,45.2-58,120.4-30.9,178.1,14.1,30,44.6,42.3,74.3,52.2,15.6,5.2,32.2,9.4,48.8,8.4,8-.5,15.5-2.6,23.3-4.2,3.4-.7,7.2-1.8,10.7-1.5,2.6.2,5.2,2.6,7.6,1.3,1.8-.9,2.5-3.5,4.7-4.6,2.6-1.3,5.7-1.8,8.5-2.5,7.7-1.9,15.2-4.9,22.8-7.4a235.043,235.043,0,0,0,22.7-9.3c3.8-1.7,12.5-8.6,15-3.6,1.1,2.3.6,6.7.9,9.2.5,4.2,1,8.4,1.7,12.7,1.4,9.3,3,18.5,4.7,27.7,3,16.6,6.9,32.5,13.4,48.2,5.2,12.5,9.7,26.6,19.3,36.6a16.558,16.558,0,0,0,15.9,4.9c6.8-1.6,10.2-7.8,14.4-12.8,9.1-11.1,24.2-19.5,38.2-22.6,17.1-3.7,33.7,1.7,50,6.4,17.2,4.9,34.8,9.6,51.7,15.5,15.8,5.5,32.8,13.6,49.9,12.9,14.9-.6,28.8-12.7,39.6-22s24.3-22.9,39.8-21.8c7.7.5,14.7,4.3,22.2,5.8,8.2,1.7,17,1.9,25.4,2.5,10.4.8,33.7-1.9,37.5-14.5.6-1.9.6-5.7-1.9-6.4-2.3-.7-3.4,2-5.5,1.8-4.3-.2-7.7-7.8-10.1-10.8-9.6-11.8-22.9-20.7-33.7-31.4-12.2-12.1-22.6-26.7-31.8-41.2,4.2-1.1,8.6.7,12.7,1.6,4.9,1,9.7,2.3,14.5,3.6,5.3,1.5,10.7,2.5,16.1,3.6,4,.8,9.4,1.1,13,3.1,3.2,1.8,4.9,3.7,8.9,4.2s8.1.1,12.1.1c10.9-.1,21.7-.3,32.5-1.4,38.2-4.1,78.8-20.2,101.8-52.3a99.451,99.451,0,0,0,14.5-28.7c2.2-8.1,6.5-19.4,4.3-27.8" fill-rule="evenodd"/><path id="ink-shape-2" data-name="ink-shape" d="M484.909.006c10.1.1,19.5,3.1,28.8,6.5,8.2,3,17,5.7,23.7,11.7,12,10.7,15.1,28.4,17.1,43.6,2.4,18.9-5.7,34.8-12.5,51.9-6.4,16-18.2,29-32.1,38.8-7.3,5.2-15.4,8.3-23.9,11-8.6,2.8-16.9,6.5-26.1,6.5-14,0-31.9-6.7-37.8-20.4-2.7-6.3-.1-7.4,5.4-4,7.9,4.9,15.4,10.3,24.6,12.5,17.8,4.3,39.2-2.3,54.8-11s26.1-21.7,33.1-38c7.1-16.4,9.8-32.6,7.1-50.2-2.3-15-6.9-28.7-20.4-36.8-29.1-17.6-68.4-16.1-94.3,6.7-3.6,3.1-7.1,6.2-10.7,9.2-2.3,1.9-5.1,4.2-4.7,7.5.3,2.8,6.3,13.6-.9,10.3-5.9-2.7-9-8-16.1-8.6-7.5-.7-16.5,5.1-18.8,12.4-2.2,7,1.7,16.5,7.7,20.5,3.7,2.5,7.8,2.1,12,2,2.1,0,7.9-.7,9.3,1.5,2.5,3.9-6.2,8-9,8.9-6.8,2.1-14.8-.4-18.8-6.4a43.967,43.967,0,0,1-7.2-20.7,30.834,30.834,0,0,1,5.2-20c4.4-6.2,13.4-13.1,21.5-10.9,3.5.9,6.3,4.6,9.8,5.2,2.2.4,1.3.7,3.1-.9,1.1-1,2.2-2.9,3.3-4.1,6.1-7,12.1-14.4,19.5-20C450.709,4.506,468.409-.194,484.909.006Zm-36.8,138.1c1.6-3.7,4.5,2.9,5.3,4,1.7,2.2,5.7,3.9,5.5,7.1-.3,5.3-7.5,4.3-9.9,1.6C446.209,147.606,446.509,141.806,448.109,138.106Zm51.3-25.1c3.9,6.1-.9,12.6-3.9,18-2.9,5.1-5.7,11-9.1,15.8-5.7,8-18.1-.7-18.5-8.9-.3-6.3,4.2-3.6,7.1-1.2,3,2.4,4.4,3,7.5.4,6.2-5.3,9-14.3,13.3-21C496.609,114.706,498.209,113.906,499.409,113.006Zm11.2,2c1,2.9-1.1,10.7,4.8,9.9,3.2-.4,3.9-5.1,5.6-7.1,5.7-6.8,4,6.1,2.5,9.3-3.3,7.1-12.5,12-17.1,3a16.606,16.606,0,0,1-.8-11.2C506.009,116.906,508.709,109.606,510.609,115.006Zm-52.3-13.9c-.5,3.4-3.7,10.3.2,12.7,3.5,2.2,9.5-2.5,12.2-4.5,2.8-2,9.1-7.9,9.3-.6.1,3.7-3.6,8.1-6.2,10.3-5.6,4.5-17.4,8.6-21.5.1-2.3-4.7-1-11.3.5-16C453.809,99.206,459.509,92.806,458.309,101.106Zm74-18.8c2.3,2.7,7.7,8.6,4.8,12.4-3.5,4.4-9.1-3.7-11.3-6-2-2-6.2-7.9-4.4-10.9C524.309,72.706,530.309,79.906,532.309,82.306Zm-36.1-11.5c7.5,4.9-2.4,8.4-6.6,8.8-5.2.5-11.8.9-16.5-1.7-6.7-3.6-4.5-9,2-10.3C481.709,66.306,490.409,67.006,496.209,70.806Zm-97.6-15.6c5.5,1.1,11.8,2.5,13.7,8.5,1.9,6.2-.8,8.3-6.5,6.9-5.2-1.3-13-2.6-16-7.7C386.309,56.806,393.509,54.206,398.609,55.206Z" fill-rule="evenodd"/><path id="ink-shape-3" data-name="ink-shape" d="M94.909,188.906c-1.9,6-11.2,10-15.9,13.6a534.6,534.6,0,0,0-47.1,40.5c-7.7,7.5-13.5,16.7-20.1,25-1.6,2-4.5,6.6-7.7,6.2-3.5-.5-4.2-6.5-4.1-9.1.4-9,8.6-17.6,14.4-23.8,6.6-6.9,13.6-13.7,20.8-20,7.9-7,16.5-12.9,25.2-18.8,8.6-5.7,16.8-12.4,25.7-17.6C90.209,182.406,97.109,181.506,94.909,188.906Zm571.6-56.8c6.8.2,13.5,2.5,19.9,4.5,14.2,4.6,27.6,10.9,40.9,17.5a393.067,393.067,0,0,1,66.3,41.7,134.5,134.5,0,0,0,13.4,8.8c3,1.8,7.3,3.9,8.4,7.5,2.9,9.1-11.9,0-14-1.3l-3-1.8c-43.8-27.1-87.5-53.5-137-69a3.505,3.505,0,0,1-2.1-5.5C661.109,131.806,664.009,132.006,666.509,132.106Zm-573.6,18.9c-.3,2.8-3.4,3.4-5.6,4.3-7.9,3.3-15.9,6.1-23.8,9.5-14.6,6.2-27.9,15.3-43.2,20-3.5,1.1-4-2.4-3.1-4.8,1-2.7,4.1-4.5,6.4-6.1,6.5-4.4,13.9-7.6,21.1-10.7,7.1-3.1,14.5-5.4,21.8-8,6.8-2.4,14.7-6.8,22-7.2h.3C91.309,148.006,93.209,147.806,92.909,151.006Zm586.1-41.9c-7-2-.4-6.4,3.8-6.1,4.6.3,9.1,2.5,13.4,3.8a236.115,236.115,0,0,1,38.3,14.6c1.9.9,10.1,5.3,4.6,7.3-3.8,1.4-12.6-4.5-15.8-5.8C709.109,116.906,693.809,113.306,679.009,109.106Z" fill-rule="evenodd"/><path id="ink-shape-4" data-name="ink-shape" d="M401.509,123.406c.9-2.6,11.6-30.5,7.4-31.3-4.5-.9-10.4,15.3-11.7,18.2-4.8,10.8-7.6,22.4-9.8,34-1.5,8.1-2.9,16.3-2.4,24.6.4,6.3,3,7.3,7.3,11.2a178.629,178.629,0,0,1,9.2-56.7" fill-rule="evenodd"/></g></g></svg>