<?xml version="1.0" encoding="iso-8859-1"?>
<!-- Generator: Adobe Illustrator 23.0.2, SVG Export Plug-In . SVG Version: 6.00 Build 0)  -->
<svg version="1.1" id="page_not_found" xmlns="http://www.w3.org/2000/svg" xmlns:xlink="http://www.w3.org/1999/xlink" x="0px"
	 y="0px" viewBox="0 0 1080 1080" style="enable-background:new 0 0 1080 1080;" xml:space="preserve">
<g>
	<path style="fill:#04294F;" d="M690,949.93c-40.12,7.87-68.33,36.25-63,63.4c5.33,27.15,42.17,42.79,82.29,34.92
		s68.32-36.25,63-63.4S730.13,942.06,690,949.93z M675.35,987.22c-2.993,0-5.42-2.427-5.42-5.42c0-2.993,2.427-5.42,5.42-5.42
		c2.993,0,5.42,2.427,5.42,5.42c0,0,0,0,0,0c0.005,2.988-2.412,5.414-5.4,5.42c-0.003,0-0.007,0-0.01,0H675.35z M702.27,1024.07
		c-5.429,0.005-9.834-4.391-9.84-9.82c-0.006-5.429,4.391-9.834,9.82-9.84c5.429-0.006,9.834,4.391,9.84,9.82
		c0,0.007,0,0.013,0,0.02c-0.005,5.417-4.393,9.809-9.81,9.82H702.27z"/>
	<path style="fill:#04294F;" d="M69.42,430.43c18.12,7.38,41.65-8.34,52.55-35.12c1.123-2.758,2.085-5.58,2.88-8.45
		c-22.07-7.108-42.114-19.405-58.45-35.86c-4.135,5.361-7.516,11.262-10.05,17.54C45.44,395.36,51.29,423.05,69.42,430.43z"/>
	<path style="fill:#04294F;" d="M985.55,548.44c-18.415-33.239-20.872-73.007-6.69-108.26c9.705-24.363,15.952-49.965,18.56-76.06
		C1015.4,184.58,861.16,33.42,682,55c-47.915,5.776-93.537,23.784-132.48,52.29c-28.805,20.92-67.201,23.003-98.1,5.32
		c-67.63-38.445-151.128-35.615-216,7.32c14.488,7.444,27.621,17.271,38.85,29.07c1.245,1.324,3.03,2.002,4.84,1.84l4.71-0.43
		c1.088-0.103,2.156,0.335,2.86,1.17c3.333,4,6.45,8.173,9.35,12.52c0.689,1.026,0.743,2.352,0.14,3.43l-1.57,2.89
		c-1,1.776-1,3.944,0,5.72c40.221,69.248,16.689,157.99-52.559,198.211c-5.742,3.335-11.706,6.272-17.851,8.789
		c-1.06,0.431-1.738,1.477-1.7,2.62l0.14,4.1c0.045,1.187-0.683,2.266-1.8,2.67c-9.267,3.33-18.835,5.751-28.57,7.23
		c-1.137,0.166-2.258-0.392-2.81-1.4l-2.1-3.86c-0.534-0.964-1.595-1.512-2.69-1.39c-10.92,1.163-21.936,1.089-32.84-0.22
		c-3.12,19.61-11.134,38.117-23.3,53.81c-58,74.69-86.63,173.39-68.39,278.68c25.06,144.69,139,258.57,283.68,283.59
		c95.06,16.43,184.74-5.31,256.22-52.42c38.846-25.636,85.533-36.647,131.74-31.07c14.012,1.697,28.139,2.242,42.24,1.63
		c131.51-5.65,237.59-111.58,243.4-243.08C1019.628,636.748,1008.593,589.786,985.55,548.44z M951.67,656.61
		c2.999-0.006,5.434,2.421,5.44,5.42s-2.421,5.434-5.42,5.44s-5.434-2.421-5.44-5.42c0-0.003,0-0.007,0-0.01
		C946.25,659.045,948.675,656.616,951.67,656.61z M870.81,788.52c5.429-0.005,9.834,4.391,9.84,9.82
		c0.006,5.429-4.391,9.834-9.82,9.84c-5.429,0.006-9.834-4.391-9.84-9.82c0-0.007,0-0.013,0-0.02
		C860.995,792.919,865.389,788.526,870.81,788.52z M850.92,828.77c2.993,0,5.42,2.427,5.42,5.42c0,2.993-2.427,5.42-5.42,5.42
		c-2.993,0-5.42-2.427-5.42-5.42c0,0,0,0,0,0c-0.005-2.988,2.412-5.414,5.4-5.42C850.907,828.77,850.913,828.77,850.92,828.77z
		 M826.53,197.13c5.429,0,9.83,4.401,9.83,9.83c0,5.429-4.401,9.83-9.83,9.83c-5.413,0-9.808-4.377-9.83-9.79
		c-0.022-5.429,4.361-9.848,9.79-9.87C826.503,197.13,826.517,197.13,826.53,197.13z M811.28,742.91c2.993,0,5.42,2.427,5.42,5.42
		c0,2.993-2.427,5.42-5.42,5.42c-2.993,0-5.42-2.427-5.42-5.42c0,0,0,0,0,0C805.86,745.337,808.287,742.91,811.28,742.91z
		 M765.28,115.29c2.999-0.006,5.434,2.421,5.44,5.42c0.005,2.999-2.421,5.434-5.42,5.44c-2.999,0.006-5.434-2.421-5.44-5.42
		c0-0.007,0-0.013,0-0.02C759.86,117.717,762.287,115.29,765.28,115.29c0.003,0,0.007,0,0.01,0L765.28,115.29z M588,823.34
		c2.999-0.006,5.434,2.421,5.44,5.42s-2.421,5.434-5.42,5.44s-5.434-2.421-5.44-5.42c0-0.003,0-0.007,0-0.01
		C582.58,825.775,585.005,823.346,588,823.34z M572.76,187.34c5.429,0,9.83,4.401,9.83,9.83c0,5.429-4.401,9.83-9.83,9.83
		s-9.83-4.401-9.83-9.83c0-0.003,0-0.007,0-0.01c-0.017-5.423,4.366-9.833,9.79-9.85c0.027,0,0.053,0,0.08,0L572.76,187.34z
		 M534.62,235.84c2.999-0.006,5.434,2.421,5.44,5.42c0.005,2.999-2.421,5.434-5.42,5.44s-5.434-2.421-5.44-5.42
		c0-0.007,0-0.013,0-0.02c-0.017-2.993,2.396-5.433,5.39-5.45c0.023,0,0.047,0,0.07,0L534.62,235.84z M367.75,115.29
		c2.999-0.006,5.434,2.421,5.44,5.42c0.005,2.999-2.421,5.434-5.42,5.44c-2.999,0.006-5.434-2.421-5.44-5.42c0-0.007,0-0.013,0-0.02
		C362.33,117.717,364.757,115.29,367.75,115.29L367.75,115.29z M345.69,303.73c5.429-0.006,9.834,4.391,9.84,9.82
		s-4.391,9.834-9.82,9.84c-5.429,0.005-9.834-4.391-9.84-9.82c0-0.003,0-0.007,0-0.01C335.87,308.135,340.265,303.736,345.69,303.73
		z M254.61,863.73c5.429-0.006,9.834,4.391,9.84,9.82s-4.391,9.834-9.82,9.84c-5.429,0.006-9.834-4.391-9.84-9.82
		c0-0.003,0-0.007,0-0.01c-0.017-5.429,4.371-9.843,9.8-9.86c0.007,0,0.013,0,0.02,0V863.73z M221.51,839.64
		c2.993,0,5.42,2.427,5.42,5.42c0,2.993-2.427,5.42-5.42,5.42c-2.993,0-5.42-2.427-5.42-5.42l0,0
		c-0.011-2.999,2.411-5.439,5.41-5.45c0.003,0,0.007,0,0.01,0L221.51,839.64z M170.79,581.54c2.993,0,5.42,2.427,5.42,5.42
		c0,2.993-2.427,5.42-5.42,5.42c-2.993,0-5.42-2.427-5.42-5.42l0,0C165.37,583.967,167.797,581.54,170.79,581.54z M114.14,735
		c2.999-0.005,5.434,2.421,5.44,5.42c0.006,2.999-2.421,5.435-5.42,5.44s-5.434-2.421-5.44-5.42c0-0.007,0-0.013,0-0.02
		C108.72,737.427,111.147,735,114.14,735z"/>
	<path style="fill:#04294F;" d="M149.47,343.45c-4.355-16.881-6.556-34.246-6.55-51.68v0.1c-0.015,17.461,2.185,34.853,6.55,51.76
		c2.557,9.92,3.844,20.125,3.83,30.37C153.335,363.695,152.048,353.428,149.47,343.45z"/>
	<path style="fill:#FF3A00;" d="M184.62,393c1.095-0.122,2.156,0.426,2.69,1.39l2.1,3.86c0.551,1.004,1.666,1.562,2.8,1.4
		c9.739-1.477,19.31-3.899,28.58-7.23c1.113-0.407,1.836-1.486,1.79-2.67l-0.14-4.1c-0.029-1.141,0.646-2.182,1.7-2.62
		c74.104-30.357,109.568-115.04,79.211-189.145c-2.518-6.146-5.455-12.112-8.791-17.855c-1-1.776-1-3.944,0-5.72l1.57-2.89
		c0.591-1.077,0.541-2.391-0.13-3.42c-2.907-4.329-6.031-8.507-9.36-12.52c-0.702-0.838-1.772-1.276-2.86-1.17l-4.71,0.43
		c-1.807,0.164-3.589-0.515-4.83-1.84c-11.23-11.798-24.363-21.625-38.85-29.07l-0.15-0.08c-57.668,38.219-92.322,102.816-92.27,172
		v0.08c-0.006,17.434,2.195,34.799,6.55,51.68c2.556,9.96,3.826,20.207,3.78,30.49c-0.025,6.284-0.543,12.557-1.55,18.76l0,0
		c10.904,1.309,21.92,1.383,32.84,0.22L184.62,393z"/>
	
		<ellipse transform="matrix(0.3827 -0.9239 0.9239 0.3827 107.2443 642.7325)" style="fill:#FFB400;" cx="534.581" cy="241.115" rx="5.42" ry="5.42"/>
	
		<ellipse transform="matrix(0.9733 -0.2297 0.2297 0.9733 -17.873 87.6824)" style="fill:#FFB400;" cx="367.669" cy="120.608" rx="5.42" ry="5.42"/>
	
		<ellipse transform="matrix(0.9733 -0.2297 0.2297 0.9733 -7.2473 179.0017)" style="fill:#FFB400;" cx="765.208" cy="120.629" rx="5.42" ry="5.42"/>
	<circle style="fill:#FFB400;" cx="850.84" cy="834.07" r="5.42"/>
	<circle style="fill:#FFB400;" cx="675.32" cy="981.839" r="5.42"/>
	<circle style="fill:#FFB400;" cx="951.612" cy="661.869" r="5.42"/>
	<circle style="fill:#FFB400;" cx="587.927" cy="828.681" r="5.42"/>
	
		<ellipse transform="matrix(0.7071 -0.7071 0.7071 0.7071 -532.5852 404.0395)" style="fill:#FFB400;" cx="221.426" cy="844.907" rx="5.42" ry="5.42"/>
	<circle style="fill:#FFB400;" cx="811.179" cy="748.251" r="5.42"/>
	
		<ellipse transform="matrix(0.7071 -0.7071 0.7071 0.7071 -490.0833 297.4937)" style="fill:#FFB400;" cx="114.065" cy="740.33" rx="5.42" ry="5.42"/>
	
		<ellipse transform="matrix(0.7071 -0.7071 0.7071 0.7071 -364.9579 292.5903)" style="fill:#FFB400;" cx="170.709" cy="586.838" rx="5.42" ry="5.42"/>
	<circle style="fill:#FFB400;" cx="572.71" cy="197.01" r="9.82"/>
	<circle style="fill:#FFB400;" cx="870.73" cy="798.22" r="9.82"/>
	<circle style="fill:#FFB400;" cx="702.28" cy="1014.25" r="9.82"/>
	<circle style="fill:#FFB400;" cx="826.44" cy="206.84" r="9.82"/>
	<circle style="fill:#FFB400;" cx="254.53" cy="873.41" r="9.82"/>
	<circle style="fill:#FFB400;" cx="345.61" cy="313.44" r="9.82"/>
	
		<ellipse transform="matrix(0.6444 -0.7647 0.7647 0.6444 -476.0609 991.6275)" style="fill:#04294F;" cx="828.159" cy="1007.67" rx="29.37" ry="29.37"/>
	<circle style="fill:#FF3A00;" cx="69.875" cy="257.037" r="22.35"/>
	<circle style="fill:#04294F;" cx="503.007" cy="79.368" r="19.76"/>
	<path style="fill:#04294F;" d="M219.17,387.39c-2.35,0.205-4.687,0.539-7,1c-2.3,0.43-4.58,1-6.85,1.52s-4.51,1.21-6.74,1.94
		c-2.237,0.693-4.434,1.511-6.58,2.45c-0.552,0.138-0.888,0.698-0.75,1.25s0.698,0.888,1.25,0.75c2.35-0.205,4.687-0.539,7-1
		c2.3-0.42,4.58-1,6.85-1.51s4.51-1.21,6.74-1.94c2.246-0.703,4.453-1.528,6.61-2.47c0.552-0.138,0.888-0.698,0.75-1.25
		s-0.698-0.888-1.25-0.75L219.17,387.39z"/>
	<path style="fill:#04294F;" d="M283.88,158.3c0.602,1.164,1.269,2.292,2,3.38c0.722,1.092,1.503,2.144,2.34,3.15
		c0.841,1.031,1.778,1.979,2.8,2.83c0.452,0.372,1.12,0.308,1.492-0.144c0.224-0.272,0.298-0.638,0.198-0.976
		c-0.386-1.272-0.891-2.504-1.51-3.68c-0.605-1.162-1.273-2.29-2-3.38c-0.722-1.092-1.503-2.144-2.34-3.15
		c-0.843-1.032-1.78-1.982-2.8-2.84c-0.28-0.228-0.656-0.299-1-0.19c-0.562,0.163-0.885,0.752-0.722,1.314
		c0.001,0.002,0.001,0.004,0.002,0.006C282.733,155.894,283.249,157.126,283.88,158.3z"/>
	
		<ellipse transform="matrix(0.0746 -0.9972 0.9972 0.0746 29.698 481.5893)" style="fill:#04294F;" cx="274.338" cy="224.793" rx="13.78" ry="7.39"/>
	
		<ellipse transform="matrix(0.9926 -0.1217 0.1217 0.9926 -30.754 23.8465)" style="fill:#04294F;" cx="179.846" cy="263.695" rx="7.18" ry="11.51"/>
	
		<ellipse transform="matrix(0.3122 -0.95 0.95 0.3122 -64.3791 461.3539)" style="fill:#04294F;" cx="286.42" cy="275.137" rx="7.64" ry="4.1"/>
	
		<ellipse transform="matrix(0.9627 -0.2706 0.2706 0.9627 -85.4144 64.4101)" style="fill:#04294F;" cx="190.879" cy="341.965" rx="7.64" ry="4.1"/>
	<path style="fill:#04294F;" d="M230.31,180.3c1.51-0.86,1.41-3.84-0.21-6.65s-4.15-4.38-5.65-3.51s-1.41,3.85,0.21,6.66
		S228.81,181.17,230.31,180.3z"/>
	<path style="fill:#04294F;" d="M266.4,206.88c0.844,0.586,1.762,1.057,2.73,1.4c0.966,0.355,1.975,0.584,3,0.68
		c1.048,0.129,2.111,0.055,3.13-0.22c0.266-0.075,0.492-0.251,0.63-0.49c0.303-0.519,0.129-1.186-0.39-1.49h-0.07
		c-1.564-0.879-3.204-1.615-4.9-2.2c-1.65-0.6-3.27-1.1-4.94-1.53h-0.19c-0.252-0.069-0.521-0.037-0.75,0.09
		c-0.52,0.275-0.721,0.918-0.45,1.44C264.745,205.493,265.497,206.287,266.4,206.88z"/>
	<path style="fill:#04294F;" d="M263.76,245.72h0.09c1.783-0.178,3.546-0.513,5.27-1c1.676-0.427,3.328-0.941,4.95-1.54l0.17-0.06
		c0.555-0.204,0.838-0.819,0.634-1.374c-0.091-0.248-0.271-0.453-0.504-0.576c-0.994-0.49-2.092-0.733-3.2-0.71
		c-1.03-0.008-2.056,0.123-3.05,0.39c-0.981,0.252-1.928,0.621-2.82,1.1c-0.935,0.49-1.77,1.151-2.46,1.95
		c-0.383,0.465-0.316,1.152,0.149,1.534c0.216,0.178,0.492,0.266,0.771,0.246L263.76,245.72z"/>
	
		<ellipse transform="matrix(0.7646 -0.6445 0.6445 0.7646 -171.6756 235.0244)" style="fill:#04294F;" cx="235.888" cy="352.52" rx="11.54" ry="6.19"/>
	<path style="fill:#04294F;" d="M242.42,339.88c0.356,0.782,0.817,1.512,1.37,2.17c0.573,0.707,1.284,1.288,2.09,1.71
		c0.209,0.096,0.443,0.127,0.67,0.09c0.605-0.096,1.018-0.665,0.921-1.271c0-0.003-0.001-0.006-0.001-0.009v-0.11
		c-0.278-1.467-0.746-2.893-1.39-4.24c-0.3-0.66-0.62-1.3-1-1.92c-0.346-0.626-0.73-1.23-1.15-1.81l-0.15-0.2
		c-0.12-0.172-0.292-0.301-0.49-0.37c-0.555-0.21-1.176,0.066-1.39,0.62c-0.315,0.909-0.394,1.882-0.23,2.83
		C241.795,338.239,242.047,339.085,242.42,339.88z"/>
	<path style="fill:#04294F;" d="M224.82,359.61c-0.589-0.638-1.262-1.193-2-1.65c-0.74-0.434-1.533-0.77-2.36-1
		c-0.871-0.261-1.788-0.336-2.69-0.22c-0.606,0.092-1.023,0.658-0.93,1.264c0.035,0.228,0.14,0.44,0.3,0.606l0.07,0.08
		c1.059,1.055,2.248,1.969,3.54,2.72c0.62,0.37,1.25,0.72,1.89,1c0.65,0.321,1.318,0.604,2,0.85l0.24,0.08
		c0.202,0.06,0.418,0.06,0.62,0c0.575-0.137,0.93-0.714,0.793-1.289c-0.001-0.004-0.002-0.007-0.003-0.011
		C226.01,361.12,225.505,360.285,224.82,359.61z"/>
	<path style="fill:#FF3A00;" d="M126,355.84c-2.54-10.58-8.4-18.83-17.12-22.38c-13.67-5.57-30.42,2-42.5,17.58
		c16.34,16.44,36.384,28.723,58.45,35.82c1.587-5.642,2.457-11.461,2.59-17.32C128.11,363.53,126,355.84,126,355.84z"/>
	<path style="fill:#04294F;" d="M111.71,361.81c-0.3,3.95,4.6,7.54,10.93,8c1.606,0.12,3.22,0.022,4.8-0.29
		c0.473-4.616-0.01-9.28-1.42-13.7c-0.758-0.162-1.527-0.273-2.3-0.33C117.38,355,112,357.86,111.71,361.81z"/>
</g>
<g>
	<path style="fill:#00AEE0;" d="M930.7,238.94c-0.346-0.575-1.089-0.766-1.67-0.43c-8.966,5.463-17.585,11.474-25.81,18
		c-4.573,3.573-9.047,7.24-13.42,11c1-4.05,1.94-8.2,2.74-12.51v-0.05c0.132-0.683-0.315-1.344-0.998-1.476
		c-0.291-0.056-0.593-0.008-0.852,0.136c-6.969,3.884-13.451,8.584-19.31,14c-5.801,5.272-11.153,11.019-16,17.18
		c-4.889,6.22-9.166,12.897-12.77,19.94c-1.821,3.611-3.407,7.335-4.75,11.15c-0.707,1.93-1.311,3.896-1.81,5.89
		c-0.5,2-1,4-1.29,6.09c-0.89,5.63,1.41,12.32,4.44,15.69c3.827,3.892,9.052,6.092,14.51,6.11c7.432-0.271,14.719-2.133,21.37-5.46
		c6.096-3.091,11.735-7.007,16.76-11.64c4.815-4.489,9.09-9.522,12.74-15c3.747-5.527,6.62-11.598,8.52-18
		c0.045-0.211,0.045-0.429,0-0.64c-0.159-0.712-0.864-1.16-1.576-1.001c-0.001,0-0.003,0.001-0.004,0.001h-0.06
		c-4.8,1.06-9.25,2.25-13.53,3.45c1.34-2.05,2.68-4.12,4-6.2c5.447-8.627,10.623-17.497,15.53-26.61
		c5.023-9.238,9.475-18.776,13.33-28.56C930.918,239.651,930.885,239.263,930.7,238.94z"/>
	<path style="fill:#00AEE0;" d="M936.53,256.23c-0.138-0.621-0.121-1.267,0.05-1.88c0.132-0.494,0.367-0.954,0.69-1.35
		c0.33-0.392,0.734-0.715,1.19-0.95c0.573-0.277,1.203-0.418,1.84-0.41c1.142,0.014,2.12,0.822,2.35,1.94
		c0.154,0.617,0.154,1.263,0,1.88c-0.139,0.493-0.377,0.952-0.7,1.35c-0.328,0.392-0.733,0.712-1.19,0.94
		c-0.571,0.285-1.202,0.429-1.84,0.42C937.762,258.179,936.76,257.365,936.53,256.23z"/>
	<path style="fill:#00AEE0;" d="M884.5,243.31c-0.144-0.618-0.144-1.262,0-1.88c0.141-0.492,0.379-0.951,0.7-1.35
		c0.32-0.415,0.726-0.756,1.19-1c0.57-0.277,1.196-0.417,1.83-0.41c1.143,0.017,2.122,0.822,2.36,1.94
		c0.155,0.617,0.155,1.263,0,1.88c-0.131,0.496-0.37,0.957-0.7,1.35c-0.32,0.415-0.726,0.756-1.19,1
		c-0.57,0.277-1.196,0.417-1.83,0.41C885.714,245.241,884.731,244.432,884.5,243.31z"/>
	<path style="fill:#00AEE0;" d="M931.84,216.09c-0.144-0.618-0.144-1.262,0-1.88c0.139-0.493,0.377-0.952,0.7-1.35
		c0.32-0.415,0.726-0.757,1.19-1c0.57-0.287,1.202-0.428,1.84-0.41c1.142,0.014,2.12,0.822,2.35,1.94
		c0.138,0.621,0.121,1.267-0.05,1.88c-0.132,0.494-0.367,0.954-0.69,1.35c-0.328,0.392-0.733,0.712-1.19,0.94
		c-0.571,0.285-1.202,0.429-1.84,0.42C933.04,217.949,932.09,217.172,931.84,216.09z"/>
	<path style="fill:#00AEE0;" d="M922.1,286.68c0.256-1.189,0.691-2.332,1.29-3.39c1.118-2.026,2.6-3.829,4.37-5.32
		c0.926-0.791,1.964-1.442,3.08-1.93c0.883-0.365,1.895,0.055,2.259,0.939c0,0,0,0.001,0.001,0.001c0.136,0.315,0.171,0.664,0.1,1
		c-0.255,1.192-0.69,2.339-1.29,3.4c-0.557,1.011-1.206,1.969-1.94,2.86c-0.736,0.893-1.553,1.716-2.44,2.46
		c-0.925,0.79-1.963,1.437-3.08,1.92c-0.87,0.368-1.873-0.039-2.241-0.909c-0.003-0.007-0.006-0.014-0.009-0.021
		C922.063,287.372,922.028,287.019,922.1,286.68z"/>
	<path style="fill:#00AEE0;" d="M900.75,240.81c0.499-1.483,1.17-2.903,2-4.23c1.585-2.584,3.516-4.94,5.74-7
		c1.14-1.066,2.406-1.99,3.77-2.75c0.795-0.435,1.791-0.143,2.226,0.652c0.001,0.003,0.003,0.005,0.004,0.008
		c0.211,0.389,0.254,0.848,0.12,1.27c-0.491,1.487-1.162,2.907-2,4.23c-0.786,1.295-1.665,2.532-2.63,3.7
		c-0.961,1.169-2.004,2.268-3.12,3.29c-1.139,1.066-2.401,1.993-3.76,2.76c-0.798,0.43-1.794,0.135-2.23-0.66
		C900.666,241.689,900.623,241.233,900.75,240.81z"/>
	<path style="fill:#04294F;" d="M871,278.93c0.107-0.984,0.384-1.942,0.82-2.83c0.406-0.817,0.902-1.585,1.48-2.29
		c0.587-0.709,1.259-1.344,2-1.89c0.783-0.61,1.671-1.071,2.62-1.36c0.974-0.289,1.998,0.267,2.287,1.241
		c0.001,0.003,0.002,0.006,0.003,0.009c0.068,0.223,0.091,0.458,0.07,0.69c-0.105,0.985-0.386,1.944-0.83,2.83
		c-0.402,0.819-0.899,1.587-1.48,2.29c-0.587,0.709-1.259,1.344-2,1.89c-0.785,0.606-1.673,1.066-2.62,1.36
		c-0.974,0.285-1.996-0.268-2.29-1.24C871,279.402,870.98,279.165,871,278.93z"/>
	<path style="fill:#04294F;" d="M886.39,323.06c0.102-0.986,0.384-1.945,0.83-2.83c0.797-1.65,1.976-3.087,3.44-4.19
		c0.782-0.606,1.666-1.066,2.61-1.36c0.98-0.283,2.005,0.28,2.29,1.26c0.068,0.22,0.091,0.451,0.07,0.68
		c-0.102,0.986-0.384,1.945-0.83,2.83c-0.394,0.821-0.888,1.59-1.47,2.29c-0.593,0.707-1.264,1.344-2,1.9
		c-0.786,0.603-1.673,1.06-2.62,1.35c-0.975,0.286-1.997-0.273-2.283-1.248c-0.065-0.221-0.087-0.452-0.067-0.682L886.39,323.06z"/>
	<path style="fill:#04294F;" d="M869.59,299.05c0.627-1.508,1.422-2.94,2.37-4.27c0.913-1.301,1.916-2.537,3-3.7
		c1.071-1.171,2.224-2.263,3.45-3.27c1.245-1.057,2.612-1.964,4.07-2.7c0.802-0.397,1.774-0.07,2.171,0.732
		c0.003,0.006,0.006,0.012,0.009,0.018c0.203,0.412,0.225,0.891,0.06,1.32c-0.621,1.511-1.417,2.944-2.37,4.27
		c-1.815,2.615-3.978,4.97-6.43,7c-1.247,1.055-2.613,1.961-4.07,2.7c-0.8,0.4-1.773,0.075-2.173-0.726
		c-0.002-0.005-0.005-0.009-0.007-0.014C869.449,299.989,869.42,299.494,869.59,299.05z"/>
	<path style="fill:#04294F;" d="M849.1,337.89c0,0-4.07-6.67-5.23-10.61c-0.129-0.438-0.105-0.908,0.07-1.33l2.21-5.22
		c0.159-0.365,0.201-0.77,0.12-1.16l-0.52-2.43c-0.104-0.483-0.018-0.988,0.24-1.41c0.89-1.49,3.21-5,6.08-6.54
		c0.239-0.121,0.502-0.189,0.77-0.2l5.51-0.38c0.236-0.01,0.467-0.068,0.68-0.17l4-1.81c0.369-0.17,0.782-0.219,1.18-0.14
		c7.08,1.413,12.937,6.364,15.51,13.11c0.136,0.375,0.157,0.783,0.06,1.17l-1.37,5.23c-0.195,0.71-0.763,1.255-1.48,1.42l0,0
		c-1.048,0.222-1.718,1.251-1.497,2.299c0.008,0.037,0.017,0.074,0.027,0.111l1.11,4.09c0.263,0.951-0.233,1.947-1.15,2.31
		c-2.53,1-7.57,2.82-11.33,2.75c-0.482-0.018-0.954,0.138-1.33,0.44l-3.46,2.83c-0.513,0.408-1.193,0.538-1.82,0.35
		C855.48,341.9,851,340.27,849.1,337.89z"/>
	<path style="fill:#00AEE0;" d="M850.87,330c-0.144-0.622-0.144-1.268,0-1.89c0.141-0.489,0.38-0.945,0.7-1.34
		c0.322-0.4,0.728-0.725,1.19-0.95c0.57-0.287,1.202-0.428,1.84-0.41c1.142,0.014,2.12,0.822,2.35,1.94
		c0.155,0.617,0.155,1.263,0,1.88c-0.134,0.493-0.369,0.953-0.69,1.35c-0.745,0.88-1.848,1.376-3,1.35
		C852.108,331.932,851.111,331.127,850.87,330z"/>
	<path style="fill:#00AEE0;" d="M868.18,323.38c-0.099-0.39-0.099-0.8,0-1.19c0.073-0.304,0.213-0.587,0.41-0.83
		c0.195-0.245,0.445-0.44,0.73-0.57c0.372-0.16,0.776-0.229,1.18-0.2c0.747,0.045,1.381,0.566,1.57,1.29
		c0.095,0.391,0.095,0.799,0,1.19c-0.073,0.304-0.213,0.587-0.41,0.83c-0.204,0.237-0.456,0.428-0.74,0.56
		c-0.365,0.17-0.768,0.242-1.17,0.21C869,324.631,868.363,324.108,868.18,323.38z"/>
	<path style="fill:#04294F;" d="M895,283.66c-0.149-0.618-0.149-1.262,0-1.88c0.139-0.493,0.377-0.952,0.7-1.35
		c0.325-0.397,0.731-0.721,1.19-0.95c0.57-0.287,1.202-0.428,1.84-0.41c1.142,0.014,2.12,0.822,2.35,1.94
		c0.149,0.618,0.149,1.262,0,1.88c-0.139,0.493-0.377,0.952-0.7,1.35c-0.328,0.392-0.733,0.712-1.19,0.94
		c-0.57,0.287-1.202,0.428-1.84,0.41C896.207,285.588,895.224,284.781,895,283.66z"/>
</g>
<g>
	<path style="fill:#FFB400;" d="M748,311.78c-25.66-13-38.6-11.3-46.7,2c-6.74-0.79-11.48-0.1-12.69,1.93
		c3.71,1.57,7.42,3.39,11.18,5.37c3.619,1.908,7.074,4.112,10.33,6.59l0.18,0.12l0,0l0.19,0.16c1.333,1.047,2.633,2.143,3.9,3.29
		c0.041,0.028,0.078,0.062,0.11,0.1l0.1,0.1c2.411,2.212,4.62,4.635,6.6,7.24l0.09,0.11c0.062,0.076,0.119,0.156,0.17,0.24
		c1.122,1.488,2.161,3.037,3.11,4.64c1.626,2.749,2.989,5.645,4.07,8.65l0.05,0.13l0.06,0.2c0.585,1.657,1.086,3.342,1.5,5.05v0.07
		c0.844,3.537,1.346,7.147,1.5,10.78v0.13c0.51,11.74-2.25,25.28-9.08,40.64l-0.05,0.12v0.09c-0.54,1.2-1.09,2.4-1.67,3.62
		s-1.29,2.64-2,4c-0.1,0.18-0.2,0.35-0.29,0.53c-0.56,1.1-1.14,2.19-1.74,3.27l-0.05,0.09l-0.71,1.25
		c-0.44,0.79-0.89,1.57-1.35,2.35c-0.29,0.5-0.59,1-0.89,1.47c-0.41,0.67-0.82,1.35-1.25,2c-0.31,0.49-0.61,1-0.93,1.45
		c-0.42,0.65-0.86,1.29-1.29,1.94l-0.91,1.31l-0.39,0.57l-0.12,0.14c-21.9,30.58-49.06,35.23-73.8,24.94c0,0-18.21-6.38-31.25-20.87
		c-2.977-0.48-5.985-0.744-9-0.79l0,0c-11.27-0.25-21.36,2.27-30.26,4.5c-14.28,3.56-28,7-49.55,0l0,0L503,436.62
		c-7.987-3.621-15.729-7.756-23.18-12.38c-18.61-11.48-43.36-14.68-61.18-1.31c-23.87,17.93-5.27,47.89,7.54,40.47
		s18.73-0.7,27.12,4.24c9.497,5.869,19.38,11.091,29.58,15.63c0,0,8.87,3.7,12.34,4.89c10.505,3.816,21.435,6.338,32.55,7.51
		c4,0.39,7.87,0.57,11.54,0.57c5.248,0,10.49-0.354,15.69-1.06c0,0,2.75-0.25,7.28-1.09v0.07c-2.72,5.57-9.38,16.2-16.93,25.55
		c-2.678,3.628-5.713,6.978-9.06,10c-5.67,5.4-11.19,8.83-15.39,7.89l-0.46-0.12c-35.454-9.432-72.406-11.863-108.79-7.16
		c-6.64,0.84-13.45,1.92-20.42,3.3l-13.23,2.9c-13.749,3.362-27.256,7.645-40.43,12.82c0,0-2.57,0.66-5.12,1.66
		c0.15-0.48,0.29-0.95,0.45-1.42c5.31-35-23.26-34.83-31-33.74c22.38-3.56,18.94,110.28-0.54,104.68
		c16.61,6.84,20.52-7.58,44.21-19.49c13.67-6.038,27.819-10.928,42.3-14.62l12.9-2.95l0,0l1.33-0.25l14.55-2.36
		c17.906-2.365,36.022-2.683,54-0.95c15.503,1.395,30.793,4.569,45.57,9.46c0,0,2.71,1,6.4,2c0.14,0.58,0.28,1.15,0.41,1.73
		c3.72,6.17,19.38,29.94,41.79,34.61c-17.309-2.455-34.905-2.016-52.07,1.3c-7.324,1.372-14.56,3.178-21.67,5.41
		c-1.3,0.4-2.78,0.91-4.39,1.5c-1.294-1.081-2.698-2.023-4.19-2.81c-0.468-0.233-1.004-0.289-1.51-0.16
		c-11.649,3.083-22.592,8.387-32.23,15.62c-0.566,0.422-0.903,1.084-0.91,1.79c-0.015,0.692,0.301,1.349,0.85,1.77
		c0.67,0.53,1.39,1.1,2.14,1.72c-1.19,0.75-2.37,1.52-3.52,2.3c-6.399,4.516-12.496,9.447-18.25,14.76c-5,4.79-5.58,5.05-9.91,9.77
		c-8.312,8.847-15.96,18.296-22.88,28.27c-1.651,2.461-3.121,5.037-4.4,7.71c-0.05-1-0.11-2.06-0.15-3.11
		c-3.89-34.41-32.79-24.5-40.53-21.28c20.64-7.74,46.1,101.88,26,101.46c17.81,2.34,31.1-14.05,42.12-30.19
		c10.932-16.24,24.034-30.909,38.94-43.6c0,0,5-4.35,10.14-8c47.87-35.05,93.43-33.08,96.66-32.37l-0.13-0.05
		c9.11,1.86,18.76,1.4,28.61-0.91c5.91-1.41,11.683-3.345,17.25-5.78c0,0,0.51-0.15,1-0.34c0,0,0.63,0.53,1.74,1.35
		c0.06,0.04,0.128,0.068,0.2,0.08c1.57,1.29,3.13,2.5,4.66,3.54c1.189,0.8,2.715,0.903,4,0.27c2.9-1.41,8.59-4.3,15-8.23
		c1.9-1.16,3.86-2.41,5.84-3.75c6.198-4.066,11.903-8.838,17-14.22c1.484-1.636,1.361-4.166-0.275-5.65
		c-0.11-0.1-0.225-0.193-0.345-0.28l-0.56-0.41c0,0-3.07-2-2.19-2.81c3-2.64,5.88-5.35,8.72-8.15c0.96-0.94,1.91-1.89,2.85-2.85
		c0.7-0.7,1.38-1.41,2.06-2.13c0,0,7.72-8.41,9-10l1.31-1.53c2.867-3.4,5.617-6.84,8.25-10.32c1.06-1.4,2.09-2.81,3.1-4.21
		c12.6-17.52,21.75-35.57,25.44-51.33l0,0c0.736-2.409,1.127-4.911,1.16-7.43l0.73,1.59l0,0c0.33,0.64,0.63,1.29,0.94,1.93
		l0.63,1.39c1.158,2.651,2.091,5.393,2.79,8.2c4.48,18,0.4,39.19-6.22,58l-4.72,12.13c-1.5,3.53-3.06,6.9-4.61,10.09l-1.52,3.08
		c-0.037,0.061-0.071,0.125-0.1,0.19c-0.1,0.19-0.19,0.39-0.29,0.57c-2.6,4.77-6.18,5.39-13.19,6.5c-2.2,0.34-4.73,0.73-7.67,1.31
		c-2.56,0.5-5.43,1.14-8.66,2c-17,4.62-9.19,20.35-0.14,16.83c4.09-1.59,18.57,0.35,5.67,13.94c-2.381,2.464-4.58,5.098-6.58,7.88
		c-0.843,1.187-1.621,2.419-2.33,3.69c-1.002,1.741-1.769,3.607-2.28,5.55c-2.12,8.59,3.85,14.3,17.6,17.42
		c27.36,6.22,33.65-8.17,48.86-28c8.832-13.463,16.407-27.71,22.63-42.56l4.89-12.48c8.32-23.06,12.12-44.63,11.36-64.49
		c-0.29-8-1.389-15.951-3.28-23.73c-0.62-2.51-1.33-5-2.13-7.43c-4.022-12.318-10.374-23.749-18.71-33.67
		c-0.2-0.26-0.42-0.52-0.65-0.77c-4.518-5.124-9.423-9.895-14.67-14.27c0.25,0.19,0.51,0.39,0.75,0.61l0,0l0.44-0.54
		c4.907-6.08,9.337-11.98,13.29-17.7c12.49-18.05,20.42-34.36,24.8-49c2.009-6.555,3.349-13.296,4-20.12
		c0.598-6.33,0.437-12.708-0.48-19C791.5,347.71,765,320.39,748,311.78z"/>
	<path style="fill:none;" d="M786.89,439.39c-1.16-5.94-4.61-11.45-10.48-16.64c-4.38,14.64-12.31,30.95-24.8,49
		c5.814,4.199,11.405,8.698,16.75,13.48C783.08,466.08,789.14,451,786.89,439.39z"/>
	<path style="fill:#FF3A00;" d="M786.89,439.39c2.25,11.65-3.81,26.69-18.53,45.84c4.655,4.138,8.932,8.683,12.78,13.58l0,0
		c19.7-25,27.28-45.05,23.81-62.92c-2.49-12.84-10.55-23.79-24.57-33.25l0,0c-0.651,6.824-1.991,13.565-4,20.12
		C782.28,427.94,785.73,433.45,786.89,439.39z"/>
	<path style="fill:#00AEE0;" d="M781.14,498.81c-3.848-4.897-8.125-9.442-12.78-13.58c-5.345-4.782-10.936-9.281-16.75-13.48
		c-3.96,5.72-8.39,11.62-13.29,17.7l-0.44,0.54l0,0c5.039,4.129,9.697,8.7,13.92,13.66c0.23,0.25,0.45,0.51,0.65,0.77
		c1.408-0.314,2.847-0.472,4.29-0.47c11.106-0.007,20.116,8.991,20.123,20.097c0.003,5.245-2.043,10.285-5.703,14.043
		c0.8,2.43,1.51,4.92,2.13,7.43c1.891,7.779,2.99,15.73,3.28,23.73C793.41,542,799,521.91,781.14,498.81z"/>
	<path style="fill:#04294F;" d="M776.86,524.08c-0.022-11.096-9.024-20.08-20.12-20.08c-1.443-0.002-2.882,0.156-4.29,0.47
		c8.336,9.921,14.688,21.352,18.71,33.67C774.827,534.38,776.874,529.332,776.86,524.08z"/>
	<path style="fill:#FF3A00;" d="M717.65,615.59c-0.58,1.68-1.2,3.35-1.83,5c-0.49,1.28-1,2.56-1.51,3.82s-0.92,2.23-1.38,3.32
		c6.357,0.844,12.625,2.256,18.73,4.22c8.73,2.76,19.27,7.2,28.66,14.29l0,0l1-2.55c1.367-3.333,2.643-6.643,3.83-9.93
		c-7.25-6.12-16.44-10.26-24.82-13C732.955,618.308,725.359,616.576,717.65,615.59z"/>
	<path style="fill:#FFFFFF;" d="M640.15,389.06c-1.525,2.121-1.042,5.077,1.079,6.602c0.151,0.109,0.308,0.208,0.471,0.298l4,2.24
		c0.509-1.11,1.15-2.154,1.91-3.11c0.799-1.054,1.727-2.004,2.76-2.83c0.476-0.368,1.161-0.281,1.529,0.196
		c0.004,0.005,0.007,0.01,0.011,0.014c0.183,0.228,0.262,0.521,0.22,0.81c-0.195,1.306-0.551,2.582-1.06,3.8
		c-0.433,1.118-1,2.179-1.69,3.16l8.47,4.69c0.525-1.149,1.198-2.224,2-3.2c0.802-1.051,1.729-2.002,2.76-2.83
		c0.484-0.37,1.176-0.281,1.55,0.2c0.174,0.232,0.252,0.522,0.22,0.81c-0.195,1.309-0.551,2.588-1.06,3.81
		c-0.451,1.149-1.039,2.241-1.75,3.25l9,5c0.529-1.137,1.201-2.203,2-3.17c0.796-1.053,1.72-2.004,2.75-2.83
		c0.484-0.37,1.176-0.281,1.55,0.2c0.174,0.232,0.252,0.522,0.22,0.81c-0.195,1.309-0.551,2.588-1.06,3.81
		c-0.445,1.139-1.025,2.22-1.73,3.22l8.47,4.7l0,0c0.52-1.173,1.192-2.273,2-3.27c0.799-1.054,1.727-2.004,2.76-2.83
		c0.481-0.369,1.169-0.279,1.54,0.2c0.182,0.232,0.262,0.528,0.22,0.82c-0.195,1.306-0.551,2.582-1.06,3.8
		c-0.446,1.178-1.048,2.292-1.79,3.31l7.51,4.16c2.122,1.175,4.789,0.558,6.18-1.43c4.13-5.91,8.12-12.67,15.23-12.08l1.3-2.7
		l0.76-1.6c0.24-0.53,0.45-1.08,0.67-1.62c3.802-8.422,6.342-17.358,7.54-26.52c0.27-2.226,0.407-4.467,0.41-6.71v-3.34l-0.31-3.3
		l-0.15-1.64c-0.09-0.54-0.21-1.08-0.31-1.61l-0.62-3.22l-0.94-3.12l-0.47-1.56l-0.63-1.49c-0.44-1-0.81-2-1.28-3l-1.56-2.84
		c-0.511-0.955-1.093-1.871-1.74-2.74L717,343c-0.15-0.22-0.3-0.45-0.46-0.67l-0.53-0.62l-2.1-2.51c-0.71-0.82-1.54-1.55-2.31-2.34
		l-1.16-1.16c-0.4-0.38-0.85-0.71-1.27-1.07l-0.9-0.76c-32.23-17.69-46.36-13-65.83,19.72c-7,11.82-1.66,18.57,0.88,21.38
		C645.49,377.4,645.42,381.63,640.15,389.06z"/>
	<path style="fill:#FFFFFF;" d="M724.55,343.64l0.28,0.5l1.74,3.23c0.53,1.1,1,2.25,1.44,3.38l0.65,1.56
		c-1.081-3.005-2.444-5.901-4.07-8.65L724.55,343.64z"/>
	<path style="fill:#FFFFFF;" d="M731.8,368.67c0,1.2,0,2.4,0,3.61c-0.008,2.444-0.162,4.885-0.46,7.31
		c-1.273,9.725-3.969,19.209-8,28.15c-0.22,0.52-0.42,1.05-0.65,1.57C729.55,394,732.31,380.41,731.8,368.67z"/>
	<path style="fill:#FFFFFF;" d="M731,361.32c0.11,0.6,0.24,1.2,0.33,1.8l0.17,1.83l0.32,3.59c-0.154-3.633-0.656-7.243-1.5-10.78
		L731,361.32z"/>
	<path style="fill:#FFFFFF;" d="M721.88,411.09l-1,2h0.06c0.58-1.22,1.13-2.42,1.67-3.62L721.88,411.09z"/>
	<path style="fill:#FFFFFF;" d="M729.24,354.2c0.34,1.16,0.71,2.32,1,3.49c-0.414-1.708-0.915-3.393-1.5-5.05L729.24,354.2z"/>
	<path style="fill:#00AEE0;" d="M701.85,609.58c2.91,2.06,5.79,4.19,8.57,6.44c1.84,1.46,3.65,3,5.4,4.56
		c0.63-1.64,1.25-3.31,1.83-5c6.62-18.79,10.7-40,6.22-58c-0.993-3.999-2.456-7.866-4.36-11.52c-0.128,0.072-0.266,0.123-0.41,0.15
		c-0.109,0.015-0.221,0.015-0.33,0c-2.6,17-12.41,37.34-26.55,57l0.68,0.42C696,605.54,698.92,607.52,701.85,609.58z"/>
	<path style="fill:#04294F;" d="M698.39,614.48c2.92,2,5.89,4,9,5.91c2.27,1.41,4.58,2.77,7,4c0.51-1.26,1-2.54,1.51-3.82
		c-1.75-1.59-3.56-3.1-5.4-4.56c-2.78-2.25-5.66-4.38-8.57-6.44s-5.9-4-9-5.91l-0.68-0.42c-1,1.4-2,2.81-3.1,4.21
		c0.22,0.19,0.46,0.38,0.7,0.57C692.6,610.28,695.47,612.41,698.39,614.48z"/>
	<path style="fill:#00AEE0;" d="M693.18,625.71c2.92,2.06,5.78,4.19,8.57,6.44c2.25,1.8,4.46,3.66,6.57,5.66
		c1.55-3.19,3.11-6.56,4.61-10.09c0.46-1.09,0.93-2.2,1.38-3.32c-2.39-1.24-4.7-2.6-7-4c-3.06-1.87-6-3.86-9-5.91
		s-5.79-4.2-8.57-6.45c-0.24-0.19-0.48-0.38-0.7-0.57c-2.633,3.48-5.383,6.92-8.25,10.32c1.13,0.66,2.25,1.33,3.35,2
		C687.28,621.66,690.25,623.65,693.18,625.71z"/>
	<path style="fill:#04294F;" d="M681.14,624.16c2.79,2.26,5.66,4.39,8.58,6.45s5.89,4,8.95,5.91c2.61,1.61,5.26,3.17,8,4.56
		c0.029-0.065,0.063-0.129,0.1-0.19l1.52-3.08c-2.11-2-4.32-3.86-6.57-5.66c-2.79-2.25-5.65-4.38-8.57-6.44s-5.9-4.05-9-5.91
		c-1.1-0.69-2.22-1.36-3.35-2l-1.31,1.53c-0.59,0.7-1.19,1.38-1.79,2.06C678.87,622.33,680,623.25,681.14,624.16z"/>
	<path style="fill:#00AEE0;" d="M689.72,630.61c-2.92-2.06-5.79-4.19-8.58-6.45c-1.14-0.91-2.27-1.83-3.37-2.79
		c-2.353,2.667-4.767,5.297-7.24,7.89l0,0c-0.68,0.72-1.36,1.43-2.06,2.13c2.16,1.16,4.26,2.4,6.33,3.67c3.06,1.87,6,3.86,9,5.91
		s5.79,4.2,8.58,6.45l0.9,0.73c7-1.11,10.59-1.73,13.19-6.5c0.1-0.18,0.19-0.38,0.29-0.57c-2.77-1.39-5.42-3-8-4.56
		C695.61,634.65,692.64,632.67,689.72,630.61z"/>
	<path style="fill:#04294F;" d="M683.74,641c-2.92-2.05-5.89-4-9-5.91c-2.07-1.27-4.17-2.51-6.33-3.67
		c-0.94,0.96-1.89,1.91-2.85,2.85c2,1.81,4,3.52,6.1,5.19c2.79,2.25,5.65,4.39,8.57,6.45c1.74,1.22,3.49,2.42,5.27,3.58
		c2.94-0.58,5.47-1,7.67-1.31l-0.9-0.73C689.53,645.17,686.66,643,683.74,641z"/>
	<path style="fill:#FFFFFF;" d="M655,446.57c21.82,5.58,31.28,3.46,36.75-7.57c1.164-2.345,0.206-5.189-2.139-6.353
		c-0.276-0.137-0.564-0.246-0.861-0.327l-6.89-1.87c-0.233,1.149-0.599,2.266-1.09,3.33c-0.524,1.215-1.195,2.36-2,3.41
		c-0.383,0.471-1.074,0.547-1.55,0.17c-0.224-0.185-0.368-0.451-0.4-0.74c-0.121-1.317-0.081-2.643,0.12-3.95
		c0.158-1.137,0.44-2.254,0.84-3.33l-9.32-2.52c-0.227,1.18-0.596,2.329-1.1,3.42c-0.526,1.21-1.198,2.352-2,3.4
		c-0.383,0.471-1.074,0.547-1.55,0.17c-0.224-0.185-0.368-0.451-0.4-0.74c-0.126-1.316-0.086-2.644,0.12-3.95
		c0.154-1.164,0.446-2.305,0.87-3.4l-9.97-2.72c-0.234,1.158-0.6,2.285-1.09,3.36c-0.53,1.208-1.201,2.35-2,3.4
		c-0.383,0.471-1.074,0.547-1.55,0.17c-0.227-0.184-0.374-0.45-0.41-0.74c-0.122-1.334-0.079-2.677,0.13-4
		c0.15-1.145,0.432-2.269,0.84-3.35l-9.35-2.43c-0.224,1.189-0.597,2.345-1.11,3.44c-0.522,1.212-1.194,2.355-2,3.4
		c-0.381,0.473-1.074,0.548-1.547,0.166c-0.227-0.182-0.372-0.447-0.403-0.736c-0.118-1.317-0.074-2.644,0.13-3.95
		c0.154-1.17,0.446-2.318,0.87-3.42l-1.11-0.3c-2.526-0.71-5.148,0.763-5.858,3.288c-0.066,0.233-0.113,0.471-0.142,0.712
		C628.67,432.5,632.88,440.92,655,446.57z"/>
	<path style="fill:#FF3A00;" d="M671.71,639.43c-2.08-1.67-4.12-3.38-6.1-5.19c-2.84,2.8-5.76,5.51-8.72,8.15l1.92,1.61l0,0
		c0.338,0.293,0.44,0.775,0.25,1.18l0.56,0.41c1.791,1.294,2.194,3.794,0.9,5.585c-0.087,0.12-0.18,0.235-0.28,0.345
		c-5.097,5.382-10.802,10.154-17,14.22l1.15,0.71c3.9,2.37,7.68,4.9,11.4,7.52s7.37,5.33,10.91,8.2c3.15,2.53,6.24,5.12,9.17,7.95
		c2-2.782,4.199-5.416,6.58-7.88c12.9-13.59-1.58-15.53-5.67-13.94c-9,3.52-16.83-12.21,0.14-16.83c3.23-0.89,6.1-1.53,8.66-2
		c-1.78-1.16-3.53-2.36-5.27-3.58C677.36,643.82,674.5,641.68,671.71,639.43z"/>
	<path style="fill:#FF3A00;" d="M670.52,629.26L670.52,629.26c2.48-2.58,4.893-5.21,7.24-7.89c0.6-0.68,1.2-1.36,1.79-2.06
		c-2.267-0.82-4.513-1.667-6.74-2.54c-36.154-14.178-69.179-35.303-97.21-62.18l0,0c0,0,28.32-39.86,53.67-85.14
		c19.56,12.25,46.14,23.46,74.31,29.53c15.813,3.54,32.002,5.115,48.2,4.69c-4.216-4.962-8.868-9.537-13.9-13.67
		c-0.24-0.22-0.5-0.42-0.75-0.61c-8.984-0.475-17.927-1.544-26.77-3.2c-26.416-4.93-51.837-14.185-75.24-27.39l0.15-0.35
		c-2.167-0.9-4.317-1.9-6.45-3c-2.11-1.11-4.17-2.24-6.18-3.41c-7.23-4.21-13.66-8.82-18.62-14.42c-2.22-0.35-4.41-0.57-6.55-0.7
		l0,0c1.79,7.39,9.08,16,20.15,24.5c0.65,0.5,1.32,1,2,1.5c-5.46,9.73-11,19.07-16.44,27.74l0,0c-19.74,31.7-37,54.41-37,54.41
		c-14-14.78-20.86-25.33-20.86-25.33c-2.805,3.522-5.831,6.862-9.06,10C536.26,529.74,579.63,596.28,670.52,629.26z"/>
	<path style="fill:#04294F;" d="M655.76,674c-3.72-2.62-7.5-5.15-11.4-7.52l-1.15-0.71c-2,1.34-3.94,2.59-5.84,3.75
		c1,0.85,2,1.68,3.07,2.51c3.55,2.87,7.2,5.59,10.91,8.21s7.51,5.15,11.4,7.53c3.49,2.16,7,4.23,10.76,6.07
		c0.709-1.271,1.487-2.503,2.33-3.69c-2.93-2.83-6-5.42-9.17-7.95C663.13,679.32,659.47,676.61,655.76,674z"/>
	<path style="fill:#00AEE0;" d="M662.75,687.76c-3.89-2.38-7.68-4.91-11.4-7.53s-7.35-5.34-10.91-8.23c-1-0.83-2.05-1.66-3.07-2.51
		c-6.43,3.93-12.12,6.82-15,8.23c-1.285,0.633-2.811,0.53-4-0.27c-1.58-1.08-3.2-2.33-4.83-3.67c0,0,0,0,0,0.05
		c-0.354,0.388-0.948,0.436-1.36,0.11c-0.47-0.36-0.93-0.74-1.4-1.12c-5.567,2.435-11.34,4.37-17.25,5.78l0.21,1
		c32.56,35.61,61.66,33.07,77.52,19.8c0.511-1.943,1.278-3.809,2.28-5.55C669.79,692,666.24,689.92,662.75,687.76z"/>
	<path style="fill:#04294F;" d="M622.64,452c2,1.17,4.07,2.3,6.18,3.41s4.28,2.14,6.45,3c24.74,10.29,51.9,5.64,73.8-24.94
		l0.12-0.14l0.39-0.57l0.91-1.31c0.43-0.65,0.87-1.29,1.29-1.94c0.32-0.48,0.62-1,0.93-1.45c0.43-0.66,0.84-1.34,1.25-2
		c0.3-0.49,0.6-1,0.89-1.47c0.46-0.78,0.91-1.56,1.35-2.35l0.71-1.25l0.05-0.09c0.6-1.08,1.18-2.17,1.74-3.27
		c0.09-0.18,0.19-0.35,0.29-0.53c0.68-1.35,1.35-2.67,2-4h-0.06l1-2l0.75-1.57v-0.09l0.05-0.12c0.23-0.52,0.43-1.05,0.65-1.57
		c4.031-8.941,6.727-18.425,8-28.15c0.298-2.425,0.452-4.866,0.46-7.31c0-1.21,0-2.41,0-3.61v-0.13l-0.32-3.59l-0.17-1.83
		c-0.09-0.6-0.22-1.2-0.33-1.8l-0.68-3.56v-0.07c-0.32-1.17-0.69-2.33-1-3.49l-0.47-1.56l-0.06-0.2l-0.05-0.13l-0.65-1.56
		c-0.48-1.13-0.91-2.28-1.44-3.38l-1.74-3.23l-0.28-0.5l0,0c-0.949-1.603-1.988-3.152-3.11-4.64c-0.051-0.084-0.108-0.164-0.17-0.24
		l-0.09-0.11c-1.98-2.605-4.189-5.028-6.6-7.24l-0.1-0.1c-0.032-0.038-0.069-0.072-0.11-0.1c-1.247-1.14-2.547-2.237-3.9-3.29
		l-0.19-0.16l0,0l-0.18-0.12c-3.256-2.478-6.711-4.682-10.33-6.59c-3.76-2-7.47-3.8-11.18-5.37c-1.13-0.48-2.26-0.93-3.38-1.36l0,0
		c-0.293,0.731-1.096,1.117-1.85,0.89l0,0c-6.8-2.07-13.83-3.42-20.66-2.6c-3.4,0.341-6.736,1.156-9.91,2.42
		c-3.179,1.298-6.198,2.955-9,4.94c-5.635,4.153-10.658,9.078-14.92,14.63c-4.401,5.622-8.401,11.546-11.97,17.73
		c-3.61,6.17-7,12.55-10,19c-3.073,6.422-5.664,13.063-7.75,19.87c-2.103,6.704-3.199,13.684-3.25,20.71
		c0.025,6.97,1.906,13.808,5.45,19.81l0,0c0.383,0.686,0.184,1.55-0.46,2c0.934,1.317,1.936,2.585,3,3.8
		C609,443.18,615.41,447.79,622.64,452z M642.47,353.62c19.47-32.7,33.6-37.41,65.83-19.72l0.9,0.76c0.42,0.36,0.87,0.69,1.27,1.07
		l1.16,1.16c0.77,0.79,1.6,1.52,2.31,2.34l2.1,2.51l0.53,0.62c0.16,0.22,0.31,0.45,0.46,0.67l0.92,1.34
		c0.647,0.869,1.229,1.785,1.74,2.74l1.56,2.84c0.47,1,0.84,2,1.28,3l0.63,1.49l0.47,1.56l0.94,3.12l0.62,3.22
		c0.1,0.53,0.22,1.07,0.31,1.61l0.15,1.64l0.31,3.3v3.34c-0.003,2.243-0.14,4.484-0.41,6.71c-1.203,9.156-3.747,18.085-7.55,26.5
		c-0.22,0.54-0.43,1.09-0.67,1.62l-0.76,1.6l-1.3,2.7c-7.11-0.59-11.1,6.17-15.23,12.08c-1.391,1.988-4.058,2.605-6.18,1.43
		l-7.51-4.16c0.742-1.018,1.344-2.132,1.79-3.31c0.509-1.218,0.865-2.494,1.06-3.8c0.042-0.292-0.038-0.588-0.22-0.82
		c-0.371-0.479-1.059-0.569-1.54-0.2c-1.033,0.826-1.961,1.776-2.76,2.83c-0.808,0.997-1.48,2.097-2,3.27l0,0l-8.47-4.7
		c0.705-1,1.285-2.081,1.73-3.22c0.505-1.206,0.861-2.468,1.06-3.76c0.032-0.288-0.046-0.578-0.22-0.81
		c-0.374-0.481-1.066-0.57-1.55-0.2c-1.03,0.826-1.954,1.777-2.75,2.83c-0.799,0.967-1.471,2.033-2,3.17l-9-5
		c0.711-1.009,1.299-2.101,1.75-3.25c0.509-1.222,0.865-2.501,1.06-3.81c0.032-0.288-0.046-0.578-0.22-0.81
		c-0.374-0.481-1.066-0.57-1.55-0.2c-1.031,0.828-1.958,1.779-2.76,2.83c-0.802,0.976-1.475,2.051-2,3.2l-8.47-4.69
		c0.69-0.981,1.257-2.042,1.69-3.16c0.509-1.218,0.865-2.494,1.06-3.8c0.042-0.289-0.037-0.582-0.22-0.81
		c-0.36-0.482-1.043-0.581-1.526-0.221c-0.005,0.004-0.01,0.007-0.014,0.011c-1.033,0.826-1.961,1.776-2.76,2.83
		c-0.76,0.956-1.401,2-1.91,3.11l-4-2.24c-2.286-1.265-3.113-4.143-1.848-6.429c0.09-0.163,0.19-0.32,0.298-0.471
		c5.27-7.43,5.34-11.66,3.2-14.06C640.81,372.19,635.44,365.44,642.47,353.62L642.47,353.62z M629.89,422
		c0.316-2.604,2.684-4.459,5.288-4.142c0.241,0.029,0.478,0.077,0.712,0.142l1.11,0.3c-0.424,1.102-0.716,2.25-0.87,3.42
		c-0.204,1.306-0.248,2.633-0.13,3.95c0.066,0.604,0.61,1.04,1.214,0.973c0.289-0.032,0.554-0.177,0.737-0.403
		c0.806-1.045,1.478-2.188,2-3.4c0.513-1.095,0.886-2.251,1.11-3.44l9.32,2.52c-0.408,1.081-0.69,2.205-0.84,3.35
		c-0.209,1.323-0.252,2.666-0.13,4c0.036,0.29,0.183,0.556,0.41,0.74c0.476,0.377,1.167,0.301,1.55-0.17
		c0.799-1.05,1.47-2.192,2-3.4c0.49-1.075,0.856-2.202,1.09-3.36l9.91,2.68c-0.424,1.095-0.716,2.236-0.87,3.4
		c-0.206,1.306-0.246,2.634-0.12,3.95c0.032,0.289,0.176,0.555,0.4,0.74c0.476,0.377,1.167,0.301,1.55-0.17
		c0.802-1.048,1.474-2.19,2-3.4c0.504-1.091,0.873-2.24,1.1-3.42l9.32,2.52c-0.4,1.076-0.682,2.193-0.84,3.33
		c-0.201,1.307-0.241,2.633-0.12,3.95c0.032,0.289,0.176,0.555,0.4,0.74c0.476,0.377,1.167,0.301,1.55-0.17
		c0.805-1.05,1.476-2.195,2-3.41c0.491-1.064,0.857-2.181,1.09-3.33l6.89,1.87c2.526,0.688,4.015,3.294,3.327,5.819
		c-0.081,0.297-0.19,0.585-0.327,0.861c-5.47,11-14.93,13.15-36.75,7.57C632.88,440.92,628.67,432.5,629.89,422z"/>
	<path style="fill:#FF3A00;" d="M515.22,441.33c-4.156-1.345-8.236-2.918-12.22-4.71c0,0-3.1,26.76-20.12,46.65
		c4.18,1.833,8.293,3.463,12.34,4.89c15.9-17,20-46.82,20-46.82V441.33z"/>
	<path style="fill:#FF3A00;" d="M429.07,670.9c-3.3,3.02-6.603,6.277-9.91,9.77c-4.96,5.24,26.87,14.22,39.06,39.26
		c3.38-2.847,6.76-5.513,10.14-8l-0.21-0.28C456.39,686,429.49,671.12,429.07,670.9z"/>
	<path style="fill:#FF3A00;" d="M391.15,533.6c-4.34,0.86-8.74,1.82-13.19,2.92c2.8,5.22,12.73,25.72,10,49.91
		c4.3-1.087,8.603-2.06,12.91-2.92l0,0C403.66,559.84,394.28,539.58,391.15,533.6z"/>
	<path style="fill:#00AEE0;" d="M351.2,692.26l-0.37,0.15c-7.27,3.09-19.24,11.53-14.46,39.08s23,59.88,40.79,62.23
		C397.3,794.14,371.84,684.52,351.2,692.26z"/>
	<path style="fill:#00AEE0;" d="M301.94,515.86c-7.81,1.13-21.56,6.22-24,34.08s6.85,63.76,23.46,70.6
		C320.88,626.14,324.32,512.3,301.94,515.86z"/>
	<path style="fill:#00AEE0;" d="M601.48,431.76L601.48,431.76c-3.56-6.008-5.452-12.857-5.48-19.84
		c0.04-7.017,1.122-13.99,3.21-20.69c2.099-6.808,4.703-13.449,7.79-19.87c3-6.47,6.37-12.85,10-19
		c3.554-6.169,7.537-12.08,11.92-17.69c4.247-5.564,9.256-10.502,14.88-14.67c2.802-1.985,5.821-3.642,9-4.94
		c3.174-1.264,6.51-2.079,9.91-2.42c6.83-0.82,13.86,0.53,20.66,2.6l0,0c0.754,0.227,1.557-0.159,1.85-0.89l0,0
		c0.287-0.773-0.095-1.634-0.86-1.94c-3.451-1.434-7.03-2.535-10.69-3.29c-3.728-0.792-7.542-1.104-11.35-0.93
		c-3.854,0.213-7.658,0.971-11.3,2.25c-3.616,1.301-7.058,3.041-10.25,5.18c-6.41,4.19-11.7,9.66-16.46,15.38
		c-4.626,5.793-8.817,11.919-12.54,18.33c-1.84,3.2-3.62,6.41-5.3,9.69l-2.47,4.9c-0.83,1.64-1.57,3.34-2.34,5
		c-3.093,6.739-5.631,13.719-7.59,20.87c-2.023,7.259-2.881,14.792-2.54,22.32c0.278,3.804,1.024,7.559,2.22,11.18
		c1.234,3.592,2.968,6.992,5.15,10.1c0.458,0.632,1.315,0.825,2,0.45l0.09-0.07C601.65,433.329,601.863,432.456,601.48,431.76z"/>
	<path style="fill:#04294F;" d="M460.29,446.29c-0.043-0.844-0.761-1.493-1.605-1.451c-0.005,0-0.01,0.001-0.015,0.001l0,0
		c-4.65,0.26-9.31,0.5-13.47-0.2c-1.814-0.214-3.539-0.904-5-2c-1.095-1.026-1.637-2.51-1.46-4c-0.082-1.555,0.521-3.068,1.65-4.14
		c1.412-1.139,3.118-1.857,4.92-2.07c4.07-0.66,8.67-0.13,13.2,0.63l0,0c0.839,0.138,1.631-0.431,1.769-1.271
		c0.112-0.685-0.248-1.36-0.879-1.649c-2.249-1.017-4.594-1.808-7-2.36c-2.523-0.583-5.115-0.802-7.7-0.65
		c-2.95,0.131-5.785,1.18-8.11,3c-1.27,1.049-2.265,2.391-2.9,3.91c-0.595,1.437-0.914,2.974-0.94,4.53
		c-0.051,1.568,0.207,3.132,0.76,4.6c0.618,1.567,1.635,2.946,2.95,4c1.207,0.947,2.581,1.659,4.05,2.1
		c1.3,0.401,2.642,0.653,4,0.75c4.995,0.253,9.992-0.47,14.71-2.13C459.907,447.673,460.352,447.008,460.29,446.29z"/>
	<path style="fill:#FFB400;" d="M425.79,552.65c6.88-1.16,20.39-2.78,33.54-0.52c0.692,0.116,1.396-0.112,1.89-0.61
		c0.535-0.517,0.775-1.268,0.64-2c-1.11-6.75-3.69-19-8.48-25c-0.327-0.406-0.788-0.683-1.3-0.78
		c-5.167-0.958-10.415-1.42-15.67-1.38c-6.766,0.001-13.515,0.694-20.14,2.07c-0.693,0.141-1.279,0.6-1.58,1.24
		c-0.321,0.628-0.321,1.372,0,2c3.839,7.314,6.7,15.101,8.51,23.16C423.423,552.041,424.575,552.85,425.79,552.65z M446.55,526.34
		c0.413-0.06,0.833,0.044,1.17,0.29c1.293,0.965,2.407,2.15,3.29,3.5c0.869,1.32,1.568,2.745,2.08,4.24
		c0.528,1.512,0.838,3.091,0.92,4.69c0.106,1.644-0.133,3.293-0.7,4.84c-0.295,0.85-1.224,1.301-2.074,1.006
		c-0.005-0.002-0.01-0.004-0.016-0.006c-0.393-0.146-0.712-0.441-0.89-0.82l-0.07-0.14c-0.65-1.35-1.05-2.6-1.53-3.85
		s-0.88-2.48-1.32-3.73s-0.84-2.53-1.23-3.85c-0.432-1.344-0.766-2.718-1-4.11v-0.19c-0.156-0.87,0.422-1.702,1.292-1.858
		C446.498,526.347,446.524,526.343,446.55,526.34L446.55,526.34z M435.84,526.09c0.414-0.058,0.835,0.05,1.17,0.3
		c1.298,0.959,2.413,2.145,3.29,3.5c0.873,1.314,1.572,2.736,2.08,4.23c0.527,1.515,0.837,3.098,0.92,4.7
		c0.106,1.644-0.133,3.293-0.7,4.84c-0.288,0.847-1.208,1.3-2.055,1.012c-0.012-0.004-0.023-0.008-0.035-0.012
		c-0.387-0.155-0.704-0.447-0.89-0.82l-0.07-0.15c-0.64-1.35-1.05-2.59-1.53-3.84s-0.87-2.48-1.31-3.74s-0.84-2.52-1.24-3.84
		c-0.431-1.344-0.765-2.718-1-4.11v-0.19c-0.152-0.882,0.439-1.72,1.32-1.872C435.807,526.095,435.823,526.092,435.84,526.09
		L435.84,526.09z M422.84,529.09c-0.125-0.88,0.488-1.695,1.368-1.82c0.001,0,0.001,0,0.002,0c0.413-0.056,0.831,0.047,1.17,0.29
		c1.296,0.966,2.41,2.154,3.29,3.51c0.869,1.317,1.568,2.738,2.08,4.23c0.529,1.515,0.839,3.097,0.92,4.7
		c0.106,1.644-0.133,3.293-0.7,4.84c-0.314,0.844-1.253,1.273-2.096,0.958c-0.398-0.148-0.722-0.445-0.904-0.828l-0.07-0.15
		c-0.64-1.35-1.05-2.6-1.53-3.85s-0.87-2.48-1.31-3.73s-0.85-2.53-1.24-3.84c-0.432-1.348-0.766-2.724-1-4.12L422.84,529.09z"/>
	<path style="fill:#04294F;" d="M425.41,556.68c0.335-0.002,0.67-0.033,1-0.09c6.64-1.12,19.64-2.67,32.2-0.52
		c1.968,0.347,3.982-0.291,5.39-1.71c1.432-1.43,2.087-3.463,1.76-5.46c-1-6.37-2.81-14.34-5.68-20.66
		c-0.946-2.194-2.159-4.262-3.61-6.16c-0.915-1.147-2.209-1.931-3.65-2.21c-12.395-2.221-25.105-1.986-37.41,0.69
		c-3.38,0.7-5.553,4.007-4.853,7.387c0.116,0.561,0.309,1.104,0.573,1.613l0,0c0.13,0.24,0.26,0.51,0.4,0.77
		c3.475,6.768,6.079,13.948,7.75,21.37C419.886,554.602,422.445,556.681,425.41,556.68z M414.72,527.68
		c-0.321-0.628-0.321-1.372,0-2c0.301-0.64,0.887-1.099,1.58-1.24c6.625-1.376,13.374-2.069,20.14-2.07
		c5.255-0.04,10.503,0.422,15.67,1.38c0.512,0.097,0.973,0.374,1.3,0.78c4.79,6,7.37,18.23,8.48,25c0.135,0.732-0.105,1.483-0.64,2
		c-0.494,0.498-1.198,0.726-1.89,0.61c-13.15-2.26-26.66-0.64-33.54,0.52c-1.198,0.183-2.327-0.611-2.56-1.8
		c-1.819-8.064-4.69-15.854-8.54-23.17V527.68z"/>
	<path style="fill:#04294F;" d="M425.05,537.28c0.44,1.25,0.85,2.49,1.31,3.73s0.89,2.5,1.53,3.85l0.07,0.15
		c0.386,0.813,1.358,1.16,2.172,0.774c0.383-0.182,0.68-0.506,0.828-0.904c0.567-1.547,0.806-3.196,0.7-4.84
		c-0.081-1.603-0.391-3.185-0.92-4.7c-0.512-1.492-1.211-2.913-2.08-4.23c-0.88-1.356-1.994-2.544-3.29-3.51
		c-0.339-0.243-0.757-0.346-1.17-0.29c-0.881,0.124-1.494,0.938-1.37,1.818c0,0.001,0,0.001,0,0.002v0.19
		c0.234,1.396,0.568,2.772,1,4.12C424.2,534.75,424.62,536,425.05,537.28z"/>
	<path style="fill:#04294F;" d="M434.5,528.11c0.235,1.392,0.569,2.766,1,4.11c0.4,1.32,0.81,2.59,1.24,3.84s0.85,2.5,1.31,3.74
		s0.89,2.49,1.53,3.84l0.07,0.15c0.186,0.373,0.503,0.665,0.89,0.82c0.84,0.307,1.771-0.125,2.078-0.965
		c0.004-0.012,0.008-0.023,0.012-0.035c0.567-1.547,0.806-3.196,0.7-4.84c-0.083-1.602-0.393-3.185-0.92-4.7
		c-0.508-1.494-1.207-2.916-2.08-4.23c-0.877-1.355-1.992-2.541-3.29-3.5c-0.335-0.25-0.756-0.358-1.17-0.3
		c-0.883,0.129-1.495,0.947-1.37,1.83V528.11z"/>
	<path style="fill:#04294F;" d="M445.18,528.16v0.19c0.234,1.392,0.568,2.766,1,4.11c0.39,1.32,0.8,2.59,1.23,3.85
		s0.86,2.49,1.32,3.73s0.88,2.5,1.53,3.85l0.07,0.14c0.178,0.379,0.497,0.674,0.89,0.82c0.847,0.304,1.781-0.137,2.084-0.984
		c0.002-0.005,0.004-0.01,0.006-0.016c0.567-1.547,0.806-3.196,0.7-4.84c-0.082-1.599-0.392-3.178-0.92-4.69
		c-0.512-1.495-1.211-2.92-2.08-4.24c-0.883-1.35-1.997-2.535-3.29-3.5c-0.719-0.523-1.726-0.363-2.249,0.357
		c-0.246,0.339-0.35,0.759-0.291,1.174L445.18,528.16z"/>
	<path style="fill:#04294F;" d="M754.63,554.93c7.32-2,11.41-10.32,9.13-18.52s-10-13.19-17.37-11.15s-11.41,10.32-9.14,18.51
		S747.3,557,754.63,554.93z"/>
	<path style="fill:#04294F;" d="M626.27,533.66c-4.667,0-8.45,3.783-8.45,8.45c0,4.667,3.783,8.45,8.45,8.45
		c4.667,0,8.45-3.783,8.45-8.45c0-0.003,0-0.007,0-0.01C634.715,537.437,630.933,533.66,626.27,533.66z M625,545.9
		c-2.391,0.005-4.334-1.929-4.34-4.32s1.929-4.334,4.32-4.34c2.391-0.005,4.334,1.929,4.34,4.32c0,0.007,0,0.013,0,0.02
		C629.32,543.966,627.386,545.9,625,545.9L625,545.9z"/>
	<circle style="fill:#FF3A00;" cx="647.66" cy="544.97" r="4.22"/>
	<path style="fill:#FF3A00;" d="M641.08,551.9c-2.336-0.006-4.234,1.884-4.24,4.22c-0.006,2.336,1.884,4.234,4.22,4.24
		c2.336,0.006,4.234-1.884,4.24-4.22c0-0.003,0-0.007,0-0.01C645.3,553.798,643.412,551.906,641.08,551.9z"/>
	<circle style="fill:#00AEE0;" cx="624.97" cy="541.58" r="4.32"/>
	<path style="fill:#04294F;" d="M640.35,512.73c0.703,0.709,1.501,1.318,2.37,1.81c0.872,0.499,1.812,0.87,2.79,1.1
		c1.038,0.271,2.123,0.315,3.18,0.13c0.24-0.042,0.468-0.134,0.67-0.27c0.82-0.542,1.045-1.647,0.502-2.467
		c-0.001-0.001-0.001-0.002-0.002-0.003l-0.06-0.1c-0.545-0.796-1.202-1.51-1.95-2.12c-0.68-0.565-1.409-1.067-2.18-1.5
		c-0.774-0.431-1.584-0.796-2.42-1.09c-0.91-0.325-1.864-0.51-2.83-0.55h-0.21c-0.236-0.001-0.47,0.043-0.69,0.13
		c-0.906,0.351-1.356,1.371-1.005,2.277c0.002,0.004,0.003,0.009,0.005,0.013C638.948,511.083,639.571,511.98,640.35,512.73z"/>
	<path style="fill:#04294F;" d="M635,521c1.42,1.427,3.205,2.437,5.16,2.92c1.04,0.261,2.122,0.305,3.18,0.13
		c0.237-0.051,0.464-0.143,0.67-0.27c0.822-0.547,1.046-1.657,0.5-2.48l-0.06-0.09c-0.563-0.801-1.236-1.518-2-2.13
		c-0.68-0.562-1.409-1.061-2.18-1.49c-0.77-0.439-1.581-0.804-2.42-1.09c-0.909-0.329-1.864-0.515-2.83-0.55h-0.21
		c-0.237-0.003-0.473,0.045-0.69,0.14c-0.906,0.351-1.356,1.371-1.005,2.277c0.002,0.004,0.003,0.009,0.005,0.013
		C633.567,519.369,634.206,520.26,635,521z"/>
	<path style="fill:#04294F;" d="M638.75,532.77c0.822-0.547,1.046-1.657,0.5-2.48l-0.06-0.09c-0.56-0.8-1.234-1.514-2-2.12
		c-0.677-0.568-1.407-1.071-2.18-1.5c-0.772-0.435-1.582-0.8-2.42-1.09c-0.91-0.325-1.864-0.51-2.83-0.55h-0.21
		c-0.237-0.006-0.472,0.038-0.69,0.13c-0.903,0.344-1.356,1.355-1.012,2.258c0.004,0.011,0.008,0.021,0.012,0.032
		c0.419,0.988,1.027,1.885,1.79,2.64c0.706,0.703,1.503,1.309,2.37,1.8c0.872,0.503,1.811,0.876,2.79,1.11
		c1.038,0.271,2.123,0.315,3.18,0.13C638.261,533.01,638.521,532.918,638.75,532.77z"/>
	<path style="fill:#04294F;" d="M677.71,521c0.29-0.79,0.58-1.57,0.86-2.35l0.13-0.37c0.3-0.87,0.6-1.73,0.87-2.58
		c0.336-1.02-0.193-2.124-1.2-2.5c-1.26-0.46-2.51-0.94-3.76-1.43l-0.51-0.2c-1.19-0.47-2.38-1-3.56-1.45l-0.61-0.26
		c-1.14-0.47-2.28-1-3.41-1.46l-0.76-0.34l-3.12-1.42c-9.076-4.118-17.776-9.02-26-14.65c-0.472-0.344-1.071-0.465-1.64-0.33
		c-0.564,0.127-1.045,0.492-1.32,1c-0.18,0.35-18.32,35.13-31.79,52c-0.675,0.842-0.56,2.068,0.26,2.77
		c0.84,0.72,21,17.78,45.13,25.88c0.205,0.075,0.422,0.112,0.64,0.11c0.649-0.002,1.257-0.319,1.63-0.85
		c0.82-1.17,18.85-27,28.08-51.35L677.71,521z M606.22,545.61c11.77-15.28,26-41.56,29.95-49.07
		c7.198,4.759,14.727,8.997,22.53,12.68c-2,4.59-7.44,16.8-10,20.35c-0.324,0.454-0.444,1.024-0.33,1.57
		c0.113,0.547,0.451,1.023,0.93,1.31c0.38,0.22,8.43,5,15.5,7.1c-5.367,10.123-11.268,19.954-17.68,29.45
		c-19.18-6.76-35.94-19.46-40.9-23.42L606.22,545.61z M666.65,528.7c-0.495,1.028-1.679,1.526-2.76,1.16
		c-1.48-0.53-2.921-1.165-4.31-1.9c-1.116-0.547-1.577-1.895-1.03-3.011c0.01-0.02,0.02-0.04,0.03-0.059c1.06-2,2.34-4.83,3.19-6.74
		c0.492-1.135,1.811-1.656,2.946-1.164c0.018,0.008,0.036,0.016,0.054,0.024c1.18,0.52,2.42,1,3.73,1.56
		c1.141,0.455,1.713,1.736,1.29,2.89c-0.89,2.37-1.97,4.83-3.14,7.21V528.7z"/>
	<path style="fill:#04294F;" d="M613.47,672.41L613.47,672.41c-3-2.83-5.91-5.73-8.69-8.78l-0.4-0.44
		c20.65-9.21,37.08-26.05,38.86-27.92l2.49,1.83l5.91,4.29c2,1.433,4,2.847,6,4.24c0.428,0.303,1.017,0.224,1.35-0.18
		c0.062-0.074,0.109-0.159,0.14-0.25c0.19-0.405,0.088-0.887-0.25-1.18l0,0l-1.92-1.61l-3.66-3.08l-5.61-4.64
		c-3.13-2.56-6.27-5.09-9.42-7.62c-0.566-0.586-1.167-1.137-1.8-1.65c-0.814-0.654-1.995-0.571-2.71,0.19
		c-3.668,3.778-7.551,7.34-11.63,10.67l-0.15,0.12c-0.79,0.65-1.61,1.32-2.47,2c-1.23,1-2.48,1.92-3.73,2.85
		c-6.573,4.958-13.693,9.145-21.22,12.48c-1.017,0.432-1.491,1.606-1.06,2.622c0.138,0.324,0.358,0.606,0.64,0.818
		c0,0,0.38,0.28,1,0.78c2.46,2.69,5,5.27,7.62,7.79s5.28,4.88,8.08,7.13c0.47,0.38,0.93,0.76,1.4,1.12
		c0.412,0.326,1.006,0.278,1.36-0.11c0,0,0,0,0-0.05c0.357-0.422,0.304-1.053-0.117-1.409
		C613.478,672.417,613.474,672.413,613.47,672.41z"/>
	<path style="fill:#04294F;" d="M724.15,643.51c-0.539,0.01-1.035,0.293-1.32,0.75c-0.454,0.743-0.222,1.714,0.52,2.17l0,0
		c1.823,1.076,3.706,2.048,5.64,2.91c1.9,0.85,3.8,1.65,5.69,2.43l5.64,2.26c1.86,0.75,3.69,1.49,5.52,2.3l0.12,0.06
		c0.793,0.351,1.72-0.006,2.072-0.799c0.218-0.493,0.169-1.063-0.132-1.511c-1.342-1.902-3.04-3.525-5-4.78
		c-1.861-1.233-3.845-2.268-5.92-3.09c-2.028-0.838-4.122-1.507-6.26-2C728.564,643.728,726.359,643.493,724.15,643.51z"/>
	<path style="fill:#04294F;" d="M736.12,658c-0.827-0.68-1.755-1.226-2.75-1.62c-0.959-0.393-1.969-0.648-3-0.76
		c-1.079-0.131-2.173-0.049-3.22,0.24c-0.246,0.071-0.474,0.194-0.67,0.36c-0.737,0.633-0.822,1.742-0.19,2.48l0.1,0.11
		c0.662,0.747,1.434,1.387,2.29,1.9c0.77,0.473,1.575,0.884,2.41,1.23c0.806,0.323,1.635,0.587,2.48,0.79
		c0.858,0.212,1.736,0.333,2.62,0.36h0.44c0.218,0.002,0.435-0.035,0.64-0.11c0.872-0.318,1.32-1.283,1.002-2.154
		c-0.001-0.002-0.001-0.004-0.002-0.006C737.811,659.709,737.07,658.737,736.12,658z"/>
	<path style="fill:#04294F;" d="M718.49,695.29c-2.16-1.27-4.37-2.39-6.6-3.43s-4.5-2-6.8-2.86s-4.58-1.72-7-2.47h-0.08
		c-1.483-0.464-3.069,0.314-3.61,1.77c-0.348,0.872-0.759,1.717-1.23,2.53c-0.47,0.88-1,1.76-1.55,2.63
		c-1.13,1.73-2.33,3.48-3.58,5.2s-2.54,3.45-3.84,5.16l-3.9,5.18l0,0c-0.498,0.69-0.342,1.652,0.348,2.15
		c0.553,0.399,1.302,0.387,1.842-0.03c1.75-1.4,3.37-2.88,5-4.42s3.15-3.12,4.62-4.79c1.516-1.673,2.938-3.429,4.26-5.26
		c0.846-1.171,1.625-2.389,2.33-3.65l4.34,1.52l6.75,2.41c2.25,0.79,4.48,1.63,6.68,2.48c2.177,0.814,4.31,1.742,6.39,2.78h0.06
		c0.763,0.376,1.686,0.062,2.062-0.701c0.292-0.591,0.174-1.303-0.292-1.769C722.807,698.002,720.726,696.514,718.49,695.29z"/>
	<path style="fill:#04294F;" d="M719.51,546.09c0.627-0.307,0.975-0.993,0.85-1.68c-0.452-2.23-1.227-4.383-2.3-6.39
		c-1.051-1.997-2.315-3.875-3.77-5.6c-1.464-1.752-3.144-3.311-5-4.64c-1.893-1.36-4.023-2.357-6.28-2.94
		c-0.844-0.201-1.69,0.32-1.891,1.164c-0.122,0.512,0.021,1.052,0.381,1.436l0.08,0.09c1.45,1.53,2.88,2.86,4.21,4.33
		s2.67,2.91,4,4.44l3.85,4.65c1.29,1.56,2.61,3.2,4,4.72l0.1,0.1c0.284,0.301,0.677,0.474,1.09,0.48c0.109,0.015,0.221,0.015,0.33,0
		C719.284,546.214,719.402,546.16,719.51,546.09z"/>
	
		<ellipse transform="matrix(0.5 -0.866 0.866 0.5 19.7602 757.1627)" style="fill:#04294F;" cx="665.602" cy="361.469" rx="9.42" ry="6.09"/>
	<path style="fill:#04294F;" d="M670.54,380.59c-1.88-0.2-2.48,1.73-2.74,4.17s-0.09,4.47,1.79,4.67s2.48-1.73,2.74-4.18
		S672.43,380.79,670.54,380.59z"/>
	<path style="fill:#04294F;" d="M683.12,392.37c2-1.43,3.38-2.91,2.28-4.44s-2.95-0.69-4.94,0.74s-3.38,2.91-2.28,4.45
		S681.13,393.81,683.12,392.37z"/>
	
		<ellipse transform="matrix(0.5 -0.866 0.866 0.5 22.5181 801.7829)" style="fill:#04294F;" cx="705.623" cy="381.39" rx="9.42" ry="6.09"/>
	<path style="fill:#00AEE0;" d="M746.74,543.33l0.07,5.95c0.005,0.337,0.282,0.606,0.619,0.601c0.139-0.002,0.274-0.052,0.381-0.141
		l4.33-3.51c0.163-0.14,0.39-0.179,0.59-0.1L758,548c0.317,0.114,0.666-0.051,0.78-0.368c0.048-0.133,0.048-0.279,0-0.412
		l-1.94-5.62c-0.063-0.181-0.037-0.381,0.07-0.54l3.27-4.82c0.217-0.258,0.183-0.643-0.075-0.859
		c-0.124-0.104-0.284-0.155-0.445-0.141l-5.59,0.11c-0.207,0.001-0.402-0.1-0.52-0.27l-3.31-4.75
		c-0.192-0.277-0.572-0.345-0.849-0.153c-0.118,0.082-0.204,0.204-0.241,0.343l-1.51,5.6c-0.056,0.198-0.205,0.355-0.4,0.42
		l-5.24,1.81c-0.32,0.106-0.493,0.451-0.387,0.771c0.04,0.12,0.116,0.224,0.217,0.299l4.71,3.43
		C746.672,542.974,746.744,543.149,746.74,543.33z"/>
	<path style="fill:#04294F;" d="M739.46,433.21c-3.355-1.484-7.205-1.351-10.45,0.36c-6.925,3.634-10.5,11.504-8.68,19.11
		c0.856,3.567,3.289,6.552,6.61,8.11c1.484,0.667,3.093,1.008,4.72,1c1.991-0.018,3.952-0.494,5.73-1.39
		c6.916-3.642,10.484-11.507,8.67-19.11C745.207,437.731,742.777,434.756,739.46,433.21z M739.54,449.87
		c-0.96,2.223-2.655,4.048-4.8,5.17c-2.752,1.618-6.294,0.7-7.912-2.052c-0.338-0.575-0.574-1.203-0.698-1.858
		c-1.057-4.823,1.196-9.765,5.53-12.13c0.95-0.49,2.001-0.754,3.07-0.77c0.776-0.004,1.543,0.16,2.25,0.48
		c1.672,0.827,2.879,2.368,3.28,4.19C740.824,445.237,740.569,447.697,739.54,449.87L739.54,449.87z"/>
	<path style="fill:#04294F;" d="M751.43,411.77c-3.35-1.53-7.57,0.56-9.43,4.64s-0.64,8.64,2.71,10.16s7.58-0.56,9.44-4.64
		S754.79,413.29,751.43,411.77z"/>
	
		<ellipse transform="matrix(0.5 -0.866 0.866 0.5 84.5902 776.9384)" style="fill:#FF3A00;" cx="715.144" cy="315.212" rx="8.04" ry="6.94"/>
	<path style="fill:#04294F;" d="M728.77,330.07L728.77,330.07c4.79,2.94,9.45,5.93,13.87,9.24c1.08,0.86,2.16,1.71,3.26,2.54
		s2.1,1.78,3.15,2.67c2.06,1.81,4.11,3.65,6,5.63c3.927,3.901,7.586,8.064,10.95,12.46c3.348,4.441,6.463,9.054,9.33,13.82l0,0
		c0.459,0.716,1.412,0.924,2.128,0.465c0.59-0.379,0.85-1.108,0.632-1.775c-1.935-5.489-4.527-10.724-7.72-15.59
		c-0.8-1.22-1.59-2.45-2.48-3.61s-1.72-2.35-2.65-3.48s-1.86-2.26-2.85-3.33s-2-2.17-3-3.19c-4.126-4.151-8.693-7.84-13.62-11
		c-4.904-3.137-10.156-5.694-15.65-7.62c-0.79-0.3-1.674,0.097-1.973,0.887c-0.268,0.705,0.018,1.5,0.673,1.873L728.77,330.07z"/>
	<path style="fill:#04294F;" d="M796.11,450.18l-0.06,0.19c-1.08,3.4-2.39,6.85-3.74,10.21c-0.7,1.67-1.39,3.35-2.14,5
		c-0.36,0.83-0.75,1.65-1.15,2.46s-0.75,1.65-1.17,2.45c-1.6,3.25-3.4,6.38-5.29,9.45c-1.936,3.06-4.039,6.011-6.3,8.84l0,0
		c-0.384,0.406-0.366,1.046,0.04,1.43s1.046,0.366,1.43-0.04l0,0c2.865-2.478,5.447-5.265,7.7-8.31c0.59-0.74,1.09-1.54,1.64-2.31
		s1.06-1.57,1.54-2.38l1.46-2.43l1.33-2.5c0.86-1.67,1.69-3.37,2.42-5.1s1.45-3.47,2.08-5.24l0.92-2.67c0.27-0.9,0.56-1.79,0.81-2.7
		c0.4-1.37,0.73-2.75,1-4.16c1.493,0.253,2.993,0.533,4.5,0.84c0.536,0.168,1.107-0.129,1.275-0.665
		c0.168-0.536-0.129-1.107-0.665-1.275c-1.95-0.822-3.955-1.507-6-2.05C797.03,449.069,796.322,449.486,796.11,450.18z"/>
	<path style="fill:#04294F;" d="M789.81,428.74c-0.867,0.588-1.663,1.276-2.37,2.05c-0.197,0.221-0.295,0.514-0.27,0.81
		c0.053,0.6,0.579,1.046,1.18,1c1.042-0.106,2.069-0.331,3.06-0.67c0.963-0.327,1.902-0.721,2.81-1.18
		c0.911-0.451,1.786-0.969,2.62-1.55c0.865-0.572,1.66-1.244,2.37-2c0.393-0.47,0.331-1.17-0.139-1.564
		c-0.218-0.182-0.497-0.274-0.781-0.256c-1.042,0.107-2.069,0.332-3.06,0.67c-1.922,0.661-3.745,1.579-5.42,2.73V428.74z"/>
	<path style="fill:#04294F;" d="M784.56,426.27c1.037-0.211,2.044-0.546,3-1c1.813-0.89,3.495-2.024,5-3.37
		c0.785-0.692,1.487-1.474,2.09-2.33c0.346-0.493,0.227-1.173-0.266-1.518c-0.251-0.176-0.565-0.239-0.864-0.172
		c-1.019,0.216-2.01,0.551-2.95,1c-1.828,0.894-3.527,2.031-5.05,3.38c-0.784,0.697-1.488,1.479-2.1,2.33
		c-0.158,0.249-0.216,0.55-0.16,0.84c0.117,0.585,0.687,0.964,1.272,0.846C784.541,426.274,784.551,426.272,784.56,426.27z"/>
	<path style="fill:#04294F;" d="M337.52,549.33c-1.732,0.428-3.427,0.993-5.07,1.69l-0.24,0.75c-0.55,1.84-1,3.69-1.51,5.51
		l-1.37,5.42c-0.46,1.78-0.92,3.53-1.42,5.35v0.13c-0.236,0.834,0.249,1.702,1.083,1.938c0.5,0.142,1.038,0.026,1.437-0.308
		c1.65-1.441,2.993-3.2,3.95-5.17c0.94-1.87,1.668-3.839,2.17-5.87c0.521-1.988,0.856-4.02,1-6.07c0.06-1.119,0.06-2.241,0-3.36
		L337.52,549.33z"/>
	<path style="fill:#04294F;" d="M523,592.71c-0.1-0.45-0.2-0.89-0.31-1.33C522.67,591.843,522.778,592.303,523,592.71z"/>
	<path style="fill:#04294F;" d="M516.28,589.41c1.25,0.86,6.4,2,6.4,2c-0.12-0.5-0.23-1-0.35-1.5l-1.34-5.4l-1.34-5.4
		c-0.49-1.81-0.88-3.63-1.54-5.52v-0.1c-0.168-0.487-0.564-0.861-1.06-1c-0.839-0.259-1.729,0.211-1.988,1.05
		c-0.004,0.013-0.008,0.026-0.012,0.04c-0.559,2.021-0.808,4.115-0.74,6.21c0.047,2.079,0.332,4.146,0.85,6.16
		C515.46,587.12,516,589.2,516.28,589.41z"/>
	<path style="fill:#04294F;" d="M462.92,672c1.187,1.606,3.063,2.555,5.06,2.56c1.243,0.001,2.456-0.376,3.48-1.08
		c5.55-3.8,16.7-10.66,29-14c1.93-0.511,3.487-1.934,4.17-3.81c0.707-1.882,0.473-3.989-0.63-5.67
		c-3.711-5.648-8.034-10.87-12.89-15.57c-2.029-1.925-4.31-3.567-6.78-4.88c-1.311-0.661-2.815-0.831-4.24-0.48
		c-12.184,3.179-23.627,8.717-33.68,16.3c-2.769,2.042-3.359,5.942-1.317,8.712c0.338,0.458,0.737,0.868,1.187,1.218l0,0l1.07,0.86
		C453.182,660.768,458.413,666.09,462.92,672z M447.85,650.37c0.007-0.706,0.344-1.368,0.91-1.79
		c9.639-7.241,20.586-12.552,32.24-15.64c0.506-0.129,1.042-0.073,1.51,0.16c6.87,3.46,14.32,13.47,18.16,19.13
		c0.409,0.607,0.502,1.373,0.25,2.06c-0.241,0.66-0.79,1.161-1.47,1.34c-12.88,3.46-24.47,10.59-30.24,14.53
		c-1.01,0.667-2.366,0.415-3.07-0.57c-5.022-6.56-10.882-12.433-17.43-17.47c-0.553-0.419-0.873-1.077-0.86-1.77V650.37z"/>
	<path style="fill:#04294F;" d="M456.65,650.05l0.1,0.16c0.791,1.17,1.663,2.282,2.61,3.33c0.91,1,1.82,2,2.73,3s1.82,1.9,2.76,2.84
		s1.85,1.9,3,2.85l0.13,0.11c0.701,0.565,1.727,0.455,2.292-0.246c0.256-0.317,0.383-0.718,0.358-1.124
		c-0.136-1.642-0.61-3.239-1.39-4.69c-0.749-1.419-1.695-2.726-2.81-3.88c-1.085-1.154-2.315-2.162-3.66-3
		c-1.364-0.862-2.871-1.475-4.45-1.81c-0.411-0.074-0.836,0.008-1.19,0.23c-0.748,0.481-0.964,1.477-0.483,2.225
		C456.648,650.047,456.649,650.048,456.65,650.05z"/>
	<path style="fill:#04294F;" d="M466.83,644.22c0.791,1.17,1.663,2.282,2.61,3.33c0.91,1,1.82,2,2.73,3s1.82,1.91,2.76,2.84
		s1.85,1.9,3,2.85l0.13,0.11c0.321,0.266,0.734,0.396,1.15,0.36c0.892-0.064,1.563-0.838,1.5-1.73
		c-0.136-1.642-0.61-3.239-1.39-4.69c-0.749-1.419-1.695-2.726-2.81-3.88c-1.088-1.151-2.318-2.159-3.66-3
		c-1.363-0.863-2.87-1.473-4.45-1.8c-0.872-0.175-1.72,0.391-1.895,1.262c-0.082,0.41-0.001,0.836,0.225,1.188L466.83,644.22z"/>
	<path style="fill:#04294F;" d="M476.66,640c0.785,1.172,1.654,2.285,2.6,3.33c0.91,1,1.82,2,2.74,3s1.81,1.9,2.76,2.84
		s1.84,1.89,3,2.85l0.13,0.1c0.689,0.571,1.71,0.476,2.281-0.213c0.266-0.321,0.398-0.731,0.369-1.147
		c-0.135-1.643-0.608-3.239-1.39-4.69c-0.746-1.419-1.688-2.725-2.8-3.88c-1.088-1.155-2.322-2.163-3.67-3
		c-1.364-0.862-2.871-1.475-4.45-1.81c-0.411-0.083-0.839-0.001-1.19,0.23c-0.748,0.481-0.964,1.477-0.483,2.225
		c0.001,0.002,0.002,0.003,0.003,0.005L476.66,640z"/>
	<path style="fill:#04294F;" d="M382.18,778.77c0.119-0.913-0.519-1.751-1.43-1.88c-1.453-0.169-2.921-0.152-4.37,0.05
		c-1.397,0.171-2.779,0.456-4.13,0.85c-1.368,0.387-2.705,0.875-4,1.46c-1.332,0.6-2.585,1.363-3.73,2.27
		c-0.322,0.272-0.532,0.653-0.59,1.07c-0.118,0.91,0.52,1.746,1.43,1.87c1.453,0.169,2.921,0.152,4.37-0.05
		c1.396-0.181,2.776-0.465,4.13-0.85c1.37-0.381,2.707-0.869,4-1.46c1.333-0.598,2.586-1.361,3.73-2.27
		C381.911,779.562,382.121,779.184,382.18,778.77z"/>
	<path style="fill:#04294F;" d="M342.17,708.69c1.45,0.169,2.915,0.152,4.36-0.05c1.4-0.176,2.784-0.46,4.14-0.85
		c1.369-0.384,2.706-0.872,4-1.46c1.333-0.599,2.586-1.361,3.73-2.27c0.329-0.263,0.544-0.642,0.6-1.06
		c0.129-0.902-0.497-1.738-1.4-1.867c-0.007-0.001-0.014-0.002-0.021-0.003c-1.45-0.19-2.92-0.19-4.37,0
		c-2.803,0.355-5.534,1.137-8.1,2.32c-1.337,0.59-2.591,1.353-3.73,2.27c-0.327,0.264-0.538,0.644-0.59,1.06
		C340.646,707.688,341.263,708.542,342.17,708.69z"/>
	<path style="fill:#04294F;" d="M354.3,720.49c2.16-0.61,4.28-1.33,6.38-2.15c2.127-0.826,4.181-1.83,6.14-3
		c0.746-0.464,0.974-1.444,0.51-2.19c-0.29-0.466-0.801-0.75-1.35-0.75c-2.277,0.058-4.544,0.305-6.78,0.74
		c-2.208,0.403-4.394,0.917-6.55,1.54c-2.15,0.62-4.28,1.33-6.37,2.15c-2.126,0.836-4.182,1.84-6.15,3
		c-0.746,0.453-0.983,1.425-0.529,2.171c0.29,0.477,0.811,0.766,1.369,0.759c2.276-0.055,4.544-0.299,6.78-0.73
		C350,721.62,352.15,721.1,354.3,720.49z"/>
	<path style="fill:#04294F;" d="M357.45,733.32c2.387-0.667,4.753-1.45,7.1-2.35c2.363-0.882,4.657-1.941,6.86-3.17
		c0.752-0.432,1.011-1.392,0.578-2.144c-0.29-0.505-0.836-0.808-1.418-0.786c-2.52,0.121-5.027,0.432-7.5,0.93
		c-2.45,0.48-4.88,1.07-7.27,1.75s-4.76,1.47-7.1,2.36c-2.362,0.886-4.655,1.945-6.86,3.17c-0.752,0.432-1.011,1.392-0.578,2.144
		c0.29,0.505,0.836,0.808,1.418,0.786c2.52-0.125,5.027-0.439,7.5-0.94C352.633,734.59,355.057,734.007,357.45,733.32z"/>
	<path style="fill:#04294F;" d="M361.08,746c2.39-0.68,4.76-1.46,7.09-2.36c2.351-0.878,4.633-1.927,6.83-3.14
		c0.751-0.444,1.001-1.413,0.557-2.164c-0.291-0.492-0.825-0.789-1.397-0.776c-2.52,0.125-5.027,0.439-7.5,0.94
		c-2.45,0.48-4.88,1.06-7.27,1.75s-4.76,1.47-7.1,2.36c-2.363,0.882-4.657,1.941-6.86,3.17c-0.751,0.433-1.01,1.392-0.577,2.144
		c0.289,0.501,0.829,0.803,1.407,0.786c2.523-0.134,5.032-0.448,7.51-0.94C356.26,747.29,358.68,746.7,361.08,746z"/>
	<path style="fill:#04294F;" d="M365.67,758.44c2.23-0.63,4.44-1.37,6.61-2.22c2.208-0.824,4.345-1.828,6.39-3
		c0.746-0.453,0.983-1.425,0.529-2.171c-0.29-0.477-0.811-0.766-1.369-0.759c-2.351,0.079-4.692,0.347-7,0.8
		c-2.3,0.433-4.563,0.97-6.79,1.61c-2.227,0.64-4.433,1.383-6.62,2.23c-2.204,0.826-4.338,1.829-6.38,3
		c-0.751,0.444-1.001,1.413-0.557,2.164c0.291,0.492,0.825,0.789,1.397,0.776c2.351-0.087,4.691-0.358,7-0.81
		C361.173,759.627,363.437,759.087,365.67,758.44z"/>
	<path style="fill:#04294F;" d="M369.78,771c1.837-0.52,3.644-1.144,5.41-1.87c1.808-0.73,3.543-1.631,5.18-2.69
		c0.735-0.49,0.934-1.484,0.443-2.219c-0.285-0.428-0.759-0.692-1.273-0.711c-1.95-0.039-3.899,0.112-5.82,0.45
		c-3.772,0.639-7.461,1.696-11,3.15c-1.813,0.726-3.551,1.627-5.19,2.69c-0.735,0.491-0.933,1.484-0.442,2.219
		c0.287,0.43,0.765,0.695,1.282,0.711c1.95,0.03,3.899-0.124,5.82-0.46C366.075,771.948,367.941,771.524,369.78,771z"/>
	<path style="fill:#04294F;" d="M398,717.81c-0.156-2.147-0.491-4.278-1-6.37c-0.2-0.85-0.44-1.68-0.71-2.5
		c-1.755,2.394-3.232,4.981-4.4,7.71c0,0.51,0.05,1,0.08,1.54l0.42,6c0.14,2,0.27,3.91,0.45,5.94v0.1
		c0.048,0.871,0.794,1.538,1.665,1.49c0.574-0.032,1.085-0.373,1.335-0.89c1.013-2.02,1.672-4.198,1.95-6.44
		C398.072,722.208,398.142,720.005,398,717.81z"/>
	<path style="fill:#04294F;" d="M569.12,474.53c-0.718-0.442-1.656-0.233-2.12,0.47v0.05c-2.68,4.28-5.32,8.53-7.93,12.92
		c-1.29,2.19-2.56,4.4-3.78,6.67l-0.27,0.52l-0.15,0.29c5.45-0.53,7.39-1.31,7.39-1.31c0.68-1,1.35-2.06,2-3.12
		c1.372-2.286,2.568-4.673,3.58-7.14c1.069-2.521,1.776-5.181,2.1-7.9C569.967,475.38,569.648,474.817,569.12,474.53z"/>
	<path style="fill:#04294F;" d="M308.29,607.5c0.828-0.393,1.182-1.383,0.789-2.211c-0.164-0.346-0.443-0.625-0.789-0.789
		c-1.349-0.562-2.764-0.952-4.21-1.16c-1.394-0.208-2.801-0.311-4.21-0.31c-1.41-0.003-2.817,0.104-4.21,0.32
		c-1.446,0.204-2.861,0.59-4.21,1.15c-0.387,0.173-0.697,0.483-0.87,0.87c-0.365,0.835,0.017,1.808,0.852,2.172
		c0.006,0.003,0.012,0.005,0.018,0.008c1.349,0.563,2.763,0.953,4.21,1.16c2.79,0.427,5.63,0.427,8.42,0
		C305.531,608.495,306.947,608.088,308.29,607.5z"/>
	<path style="fill:#04294F;" d="M289.94,528.27c1.349,0.563,2.763,0.953,4.21,1.16c1.394,0.206,2.801,0.313,4.21,0.32
		c1.41,0.003,2.817-0.104,4.21-0.32c1.448-0.202,2.863-0.592,4.21-1.16c0.828-0.393,1.182-1.383,0.789-2.211
		c-0.164-0.346-0.443-0.625-0.789-0.789c-1.349-0.563-2.763-0.953-4.21-1.16c-2.791-0.42-5.629-0.42-8.42,0
		c-1.446,0.204-2.861,0.59-4.21,1.15c-0.828,0.393-1.182,1.383-0.789,2.211c0.164,0.346,0.443,0.625,0.789,0.789L289.94,528.27z"/>
	<path style="fill:#04294F;" d="M284.92,541.48c2.205,0.567,4.452,0.952,6.72,1.15c2.24,0.22,4.48,0.32,6.72,0.32
		s4.48-0.1,6.72-0.31c2.268-0.201,4.516-0.589,6.72-1.16c0.538-0.152,0.958-0.572,1.11-1.11c0.229-0.842-0.267-1.71-1.109-1.94
		c0,0-0.001,0-0.001,0c-2.203-0.575-4.451-0.963-6.72-1.16c-2.24-0.22-4.48-0.32-6.72-0.32s-4.48,0.11-6.72,0.32
		c-2.268,0.201-4.516,0.589-6.72,1.16c-0.842,0.228-1.34,1.096-1.112,1.938C283.955,540.91,284.378,541.333,284.92,541.48
		L284.92,541.48z"/>
	<path style="fill:#04294F;" d="M282.92,554.68c2.458,0.572,4.955,0.959,7.47,1.16c2.493,0.207,4.983,0.313,7.47,0.32
		c2.49,0,5-0.1,7.47-0.32c2.516-0.196,5.013-0.583,7.47-1.16c0.828-0.256,1.292-1.135,1.036-1.964
		c-0.153-0.495-0.541-0.883-1.036-1.036c-2.458-0.572-4.955-0.959-7.47-1.16c-2.493-0.213-4.983-0.317-7.47-0.31
		c-2.49,0-5,0.1-7.47,0.32c-2.515,0.197-5.012,0.582-7.47,1.15c-0.828,0.256-1.292,1.135-1.036,1.964
		C282.037,554.139,282.425,554.527,282.92,554.68L282.92,554.68z"/>
	<path style="fill:#04294F;" d="M297.86,569.36c2.49,0,5-0.1,7.47-0.31c2.515-0.201,5.012-0.588,7.47-1.16
		c0.828-0.256,1.292-1.135,1.036-1.964c-0.153-0.495-0.541-0.883-1.036-1.036c-2.457-0.576-4.954-0.964-7.47-1.16
		c-2.49-0.22-5-0.32-7.47-0.32s-5,0.11-7.47,0.32c-2.515,0.201-5.012,0.588-7.47,1.16c-0.57,0.135-1.015,0.58-1.15,1.15
		c-0.207,0.842,0.307,1.693,1.149,1.9c0,0,0.001,0,0.001,0c2.458,0.568,4.955,0.953,7.47,1.15
		C292.88,569.26,295.37,569.36,297.86,569.36z"/>
	<path style="fill:#04294F;" d="M298.86,582.57c2.32,0,4.65-0.1,7-0.32c2.361-0.194,4.702-0.582,7-1.16
		c0.842-0.228,1.34-1.096,1.112-1.938c-0.147-0.542-0.57-0.965-1.112-1.112c-2.3-0.568-4.64-0.956-7-1.16
		c-2.32-0.21-4.65-0.31-7-0.31s-4.65,0.1-7,0.32c-2.36,0.196-4.701,0.581-7,1.15c-0.547,0.151-0.974,0.581-1.12,1.13
		c-0.226,0.832,0.266,1.688,1.097,1.914c0.008,0.002,0.015,0.004,0.023,0.006c2.299,0.573,4.639,0.96,7,1.16
		C294.21,582.47,296.54,582.57,298.86,582.57z"/>
	<path style="fill:#04294F;" d="M299.36,595.77c1.911,0.006,3.821-0.097,5.72-0.31c1.939-0.202,3.855-0.591,5.72-1.16
		c0.466-0.168,0.832-0.534,1-1c0.265-0.828-0.179-1.716-1-2c-1.864-0.574-3.78-0.963-5.72-1.16c-1.899-0.216-3.809-0.323-5.72-0.32
		c-1.911,0.007-3.82,0.114-5.72,0.32c-1.939,0.202-3.855,0.591-5.72,1.16c-0.828,0.307-1.251,1.228-0.943,2.057
		c0.162,0.437,0.507,0.781,0.943,0.943c1.864,0.571,3.78,0.956,5.72,1.15C295.539,595.666,297.449,595.773,299.36,595.77z"/>
</g>
<g>
	<circle style="fill:#00AEE0;" cx="491.34" cy="874.98" r="14.43"/>
	<circle style="fill:#04294F;" cx="486.96" cy="867.48" r="3"/>
	<circle style="fill:#04294F;" cx="492.41" cy="881.87" r="4.6"/>
</g>
<g>
	<path style="fill:#FFB400;" d="M429.24,956.1c-8.272-1.613-16.456-3.649-24.52-6.1c-4-1.24-8-2.573-12-4c-4-1.44-7.9-3-11.79-4.61
		c-7.869-3.271-15.492-7.104-22.81-11.47l-0.58-0.37c1.057,29.904,26.156,53.289,56.06,52.232c16.708-0.591,32.208-8.862,42-22.412
		h-1.05C446.046,958.886,437.588,957.793,429.24,956.1z"/>
	<path style="fill:#FFB400;" d="M386.79,926.91c3.71,1.42,7.44,2.8,11.22,4.07s7.56,2.52,11.38,3.68s7.65,2.27,11.5,3.31
		s7.71,2,11.58,2.89c7.67,1.81,15.431,3.212,23.25,4.2c2.37,0.29,4.74,0.5,7.07,0.64c9.972-28.224-4.825-59.188-33.049-69.16
		c-28.224-9.972-59.188,4.825-69.16,33.049c-0.531,1.502-0.995,3.028-1.392,4.571c1.94,1.12,3.93,2.21,6,3.25
		C372.22,920.951,379.429,924.122,386.79,926.91z"/>
	<path style="fill:#FF3A00;" d="M488.9,941.69c-0.488-1.473-1.2-2.863-2.11-4.12c-1.485-1.987-3.227-3.77-5.18-5.3
		c-1.751-1.38-3.592-2.643-5.51-3.78c-1.948-1.144-4.454-0.493-5.598,1.455c-0.966,1.644-0.668,3.736,0.718,5.045l0,0
		c1.403,1.262,2.738,2.597,4,4c1.109,1.206,2.057,2.55,2.82,4c0.17,0.365,0.301,0.747,0.39,1.14l-0.24,0.14
		c-0.19,0-0.22,0.12-0.49,0.21l-0.32,0.14l-0.43,0.13c-1.452,0.447-2.947,0.739-4.46,0.87c-1.788,0.174-3.584,0.241-5.38,0.2
		c-1.43,0-2.88-0.09-4.35-0.18c-2.33-0.14-4.7-0.35-7.07-0.64c-7.819-0.988-15.58-2.39-23.25-4.2c-3.87-0.9-7.74-1.83-11.58-2.89
		s-7.69-2.13-11.5-3.31s-7.58-2.32-11.36-3.6s-7.51-2.65-11.22-4.07c-7.374-2.787-14.597-5.958-21.64-9.5c-2-1-4-2.13-6-3.25
		c-1.36-0.8-2.69-1.6-4-2.45c-1.516-0.963-2.973-2.019-4.36-3.16c-1.194-0.952-2.28-2.032-3.24-3.22l-0.29-0.35l-0.19-0.3
		c-0.18-0.22-0.19-0.32-0.3-0.46c-0.016-0.035-0.04-0.066-0.07-0.09v-0.22c0.263-0.246,0.551-0.464,0.86-0.65
		c1.432-0.783,2.962-1.372,4.55-1.75c1.821-0.479,3.667-0.857,5.53-1.13h0.08c2.229-0.364,3.741-2.467,3.377-4.696
		c-0.309-1.893-1.892-3.316-3.807-3.424c-2.229-0.129-4.464-0.109-6.69,0.06c-2.481,0.19-4.925,0.708-7.27,1.54
		c-1.466,0.547-2.837,1.324-4.06,2.3c-1.614,1.296-2.816,3.033-3.46,5c-0.605,1.99-0.674,4.105-0.2,6.13
		c0.203,0.823,0.471,1.629,0.8,2.41c0.15,0.36,0.31,0.74,0.48,1.08l0.52,1c1.321,2.215,2.917,4.255,4.75,6.07
		c1.613,1.65,3.326,3.2,5.13,4.64c3.248,2.598,6.665,4.977,10.23,7.12l0.58,0.37c7.353,4.336,15.01,8.135,22.91,11.37
		c3.89,1.66,7.83,3.17,11.79,4.61s8,2.74,12,4c8.063,2.464,16.247,4.513,24.52,6.14c8.356,1.674,16.821,2.747,25.33,3.21h1.05
		c4.034,0.19,8.076,0.117,12.1-0.22c2.301-0.198,4.588-0.532,6.85-1c2.543-0.489,5.013-1.303,7.35-2.42l1-0.51l1-0.64
		c0.705-0.477,1.373-1.005,2-1.58c1.518-1.444,2.623-3.266,3.2-5.28C489.66,945.696,489.559,943.619,488.9,941.69z"/>
	<path style="fill:#04294F;" d="M350.39,899.64c0.318,0.287,0.698,0.496,1.11,0.61c0.324,0.1,0.666,0.124,1,0.07
		c0.332-0.046,0.65-0.166,0.93-0.35c0.355-0.234,0.652-0.545,0.87-0.91l0.05-0.09c0.387-0.623,0.278-1.432-0.26-1.93
		c-0.313-0.301-0.699-0.515-1.12-0.62c-0.353-0.07-0.717-0.07-1.07,0c-0.355,0.052-0.696,0.178-1,0.37
		c-0.37,0.222-0.676,0.535-0.89,0.91c-0.368,0.636-0.23,1.444,0.33,1.92L350.39,899.64z"/>
	<path style="fill:#04294F;" d="M346.94,897.69c0.081-0.11,0.139-0.236,0.17-0.37c0.177-0.645-0.203-1.31-0.847-1.487
		c-0.004-0.001-0.008-0.002-0.013-0.003c-0.676-0.17-1.384-0.17-2.06,0c-0.678,0.144-1.323,0.415-1.9,0.8
		c-0.624,0.4-1.156,0.929-1.56,1.55c-0.449,0.658-0.673,1.444-0.64,2.24c0.01,0.121,0.04,0.239,0.09,0.35
		c0.237,0.583,0.903,0.863,1.486,0.626c0.005-0.002,0.01-0.004,0.014-0.006l0.25-0.1c0.57-0.24,1-0.43,1.38-0.64
		c0.404-0.202,0.795-0.429,1.17-0.68c0.42-0.269,0.821-0.566,1.2-0.89c0.46-0.384,0.87-0.824,1.22-1.31L346.94,897.69z"/>
	<path style="fill:#04294F;" d="M341.57,906.65c-0.301-0.223-0.64-0.389-1-0.49l-0.23-0.08c-0.644-0.201-1.345,0.033-1.74,0.58
		c-0.26,0.372-0.4,0.816-0.4,1.27c-0.003,0.378,0.083,0.751,0.25,1.09c0.161,0.333,0.401,0.622,0.7,0.84
		c0.345,0.259,0.759,0.412,1.19,0.44c0.707,0.065,1.374-0.341,1.64-1v-0.1c0.142-0.356,0.21-0.737,0.2-1.12
		c-0.003-0.27-0.064-0.536-0.18-0.78C341.909,907.053,341.762,906.83,341.57,906.65z"/>
	<path style="fill:#04294F;" d="M357.27,918.47c-0.203-0.573-0.508-1.105-0.9-1.57c-0.349-0.412-0.749-0.778-1.19-1.09
		c-0.445-0.313-0.929-0.565-1.44-0.75c-0.571-0.217-1.179-0.323-1.79-0.31h-0.1c-0.116,0-0.231,0.02-0.34,0.06
		c-0.648,0.205-1.007,0.896-0.802,1.544c0.001,0.002,0.001,0.004,0.002,0.006c0.194,0.581,0.499,1.117,0.9,1.58
		c0.37,0.431,0.794,0.814,1.26,1.14c0.469,0.324,0.976,0.589,1.51,0.79c0.57,0.22,1.179,0.326,1.79,0.31
		c0.119,0.001,0.238-0.019,0.35-0.06c0.649-0.218,0.998-0.921,0.78-1.57L357.27,918.47z"/>
	<path style="fill:#04294F;" d="M368,925.62c-0.172-0.242-0.398-0.441-0.66-0.58c-0.266-0.125-0.556-0.19-0.85-0.19
		c-0.393,0.004-0.778,0.107-1.12,0.3l0,0c-0.651,0.349-1.015,1.068-0.91,1.8c0.043,0.391,0.188,0.763,0.42,1.08
		c0.177,0.243,0.41,0.438,0.68,0.57c0.27,0.135,0.568,0.207,0.87,0.21c0.389-0.01,0.769-0.113,1.11-0.3
		c0.647-0.358,1.005-1.078,0.9-1.81l0,0C368.384,926.31,368.233,925.939,368,925.62z"/>
	<path style="fill:#04294F;" d="M389.89,931c-0.175-0.236-0.401-0.431-0.66-0.57c-0.263-0.135-0.555-0.204-0.85-0.2
		c-0.392,0.014-0.776,0.12-1.12,0.31l0,0c-0.647,0.348-1.01,1.062-0.91,1.79c0.046,0.39,0.19,0.762,0.42,1.08
		c0.176,0.245,0.41,0.444,0.68,0.58c0.27,0.135,0.568,0.204,0.87,0.2c0.389-0.004,0.772-0.107,1.11-0.3
		c0.647-0.352,1.006-1.071,0.9-1.8l0,0C390.28,931.695,390.129,931.319,389.89,931z"/>
	<path style="fill:#04294F;" d="M381.85,934c-0.561-0.645-1.211-1.207-1.93-1.67c-0.677-0.45-1.393-0.839-2.14-1.16
		c-0.746-0.32-1.519-0.575-2.31-0.76c-0.834-0.206-1.692-0.293-2.55-0.26l0,0c-0.239,0.013-0.468,0.104-0.65,0.26
		c-0.478,0.393-0.546,1.099-0.153,1.577c0.001,0.001,0.002,0.002,0.003,0.003c0.543,0.656,1.176,1.232,1.88,1.71
		c0.688,0.452,1.414,0.844,2.17,1.17c0.76,0.322,1.546,0.58,2.35,0.77c0.833,0.21,1.692,0.298,2.55,0.26
		c0.239-0.013,0.468-0.104,0.65-0.26c0.477-0.401,0.54-1.112,0.14-1.59L381.85,934z"/>
	<path style="fill:#04294F;" d="M416.1,941.66c-0.848-0.638-1.768-1.175-2.74-1.6c-0.935-0.423-1.897-0.784-2.88-1.08
		c-0.982-0.311-1.984-0.552-3-0.72c-1.045-0.19-2.11-0.254-3.17-0.19l0,0c-0.294,0.019-0.566,0.161-0.75,0.39
		c-0.384,0.464-0.32,1.151,0.144,1.535c0.002,0.002,0.004,0.003,0.006,0.005c0.836,0.66,1.745,1.22,2.71,1.67
		c0.94,0.445,1.909,0.826,2.9,1.14c0.984,0.291,1.986,0.515,3,0.67c1.054,0.173,2.125,0.22,3.19,0.14
		c0.298-0.029,0.572-0.176,0.76-0.41c0.37-0.475,0.285-1.16-0.19-1.53c0,0,0,0,0,0L416.1,941.66z"/>
	<path style="fill:#04294F;" d="M421.91,949.09c-0.098-0.354-0.284-0.677-0.54-0.94c-0.376-0.391-0.939-0.542-1.46-0.39
		c-0.351,0.104-0.67,0.293-0.93,0.55l0,0c-0.544,0.511-0.746,1.289-0.52,2c0.098,0.354,0.284,0.677,0.54,0.94
		c0.188,0.19,0.422,0.328,0.68,0.4c0.259,0.065,0.531,0.065,0.79,0c0.354-0.103,0.677-0.292,0.94-0.55
		c0.542-0.512,0.741-1.291,0.51-2L421.91,949.09z"/>
	<path style="fill:#04294F;" d="M434.16,944.29c-0.189-0.369-0.463-0.688-0.8-0.93c-0.27-0.191-0.576-0.324-0.9-0.39
		c-0.329-0.072-0.671-0.072-1,0c-0.402,0.107-0.773,0.309-1.08,0.59l0,0c-0.569,0.502-0.725,1.325-0.38,2
		c0.186,0.374,0.461,0.697,0.8,0.94c0.271,0.194,0.582,0.324,0.91,0.38c0.329,0.076,0.671,0.076,1,0
		c0.403-0.099,0.775-0.298,1.08-0.58c0.572-0.5,0.725-1.328,0.37-2V944.29z"/>
	<path style="fill:#04294F;" d="M453.38,951.85c-0.693-0.455-1.447-0.808-2.24-1.05c-0.75-0.234-1.52-0.402-2.3-0.5
		c-0.776-0.097-1.559-0.124-2.34-0.08c-0.832,0.043-1.654,0.204-2.44,0.48h-0.05c-0.59,0.235-0.879,0.903-0.644,1.493
		c0.081,0.203,0.217,0.379,0.394,0.507c0.701,0.441,1.462,0.778,2.26,1c1.53,0.472,3.131,0.668,4.73,0.58
		c0.836-0.036,1.662-0.198,2.45-0.48c0.585-0.218,0.882-0.869,0.664-1.454c-0.083-0.223-0.235-0.414-0.434-0.546L453.38,951.85z"/>
	<path style="fill:#04294F;" d="M473.53,953.49L473.53,953.49c-0.452-0.268-0.951-0.448-1.47-0.53c-0.454-0.065-0.916-0.065-1.37,0
		c-0.457,0.054-0.905,0.172-1.33,0.35c-0.488,0.208-0.93,0.51-1.3,0.89l0,0l-0.11,0.13c-0.44,0.588-0.32,1.422,0.269,1.862
		c0.004,0.003,0.008,0.006,0.011,0.008c0.444,0.331,0.957,0.556,1.5,0.66c0.985,0.192,2.005,0.063,2.91-0.37
		c0.507-0.23,0.955-0.572,1.31-1c0.042-0.046,0.079-0.096,0.11-0.15c0.371-0.634,0.158-1.449-0.476-1.82
		C473.566,953.51,473.548,953.5,473.53,953.49z"/>
	<path style="fill:#04294F;" d="M464.91,949.2c-0.151-0.316-0.374-0.594-0.65-0.81c-0.179-0.146-0.399-0.234-0.63-0.25
		c-0.229-0.013-0.456,0.047-0.65,0.17c-0.294,0.187-0.543,0.436-0.73,0.73l-0.08,0.12c-0.584,0.899-0.354,2.099,0.52,2.72
		c0.217,0.153,0.474,0.24,0.74,0.25c0.264,0.011,0.526-0.047,0.76-0.17c0.315-0.166,0.576-0.419,0.75-0.73
		c0.347-0.581,0.366-1.301,0.05-1.9L464.91,949.2z"/>
	<path style="fill:#04294F;" d="M483.83,941.89c-0.591-0.082-1.136,0.331-1.218,0.922c-0.001,0.006-0.002,0.012-0.002,0.018v0.09
		c-0.065,0.752-0.22,1.494-0.46,2.21c-0.216,0.541-0.513,1.047-0.88,1.5c-0.459,0.536-0.961,1.034-1.5,1.49c-0.6,0.52-1.28,1-2,1.73
		l0,0c-0.197,0.19-0.315,0.447-0.33,0.72c-0.03,0.591,0.411,1.102,1,1.16c2.273,0.096,4.46-0.877,5.91-2.63
		c0.831-1.006,1.296-2.265,1.32-3.57c0.021-1.205-0.386-2.378-1.15-3.31C484.335,942.034,484.091,941.917,483.83,941.89z"/>
	<path style="fill:#04294F;" d="M480.46,938.37c0.158,0.17,0.364,0.288,0.59,0.34c0.33,0.071,0.67,0.071,1,0h0.13
		c0.668-0.14,1.219-0.611,1.46-1.25c0.121-0.319,0.159-0.663,0.11-1c-0.051-0.256-0.169-0.493-0.34-0.69
		c-0.177-0.196-0.406-0.338-0.66-0.41c-0.343-0.098-0.707-0.098-1.05,0c-0.663,0.167-1.195,0.661-1.41,1.31v0.12
		c-0.108,0.322-0.145,0.663-0.11,1C480.218,938.006,480.315,938.206,480.46,938.37z"/>
	<path style="fill:#04294F;" d="M476.54,931.89c-0.296-0.23-0.637-0.397-1-0.49c-0.423-0.107-0.867-0.107-1.29,0
		c-0.73,0.155-1.241,0.815-1.21,1.56V933c0.011,0.433,0.124,0.858,0.33,1.24c0.158,0.304,0.38,0.57,0.65,0.78
		c0.268,0.216,0.578,0.372,0.91,0.46c0.421,0.097,0.859,0.097,1.28,0h0.08c0.73-0.149,1.25-0.795,1.24-1.54
		c-0.005-0.434-0.118-0.861-0.33-1.24C477.033,932.391,476.809,932.116,476.54,931.89z"/>
	<path style="fill:#FF3A00;" d="M376.2,913.8c3.71,2.06,7.51,3.9,11.38,5.59s7.78,3.24,11.73,4.7s8,2.76,12,4
		c8.054,2.471,16.245,4.474,24.53,6c4.15,0.75,8.34,1.34,12.56,1.7c4.263,0.436,8.562,0.372,12.81-0.19
		c0.552-0.061,0.951-0.558,0.89-1.11c-0.061-0.552-0.558-0.951-1.11-0.89h-0.05c-4.086,0.151-8.177-0.11-12.21-0.78
		c-4.08-0.57-8.15-1.35-12.2-2.22c-8.09-1.75-16.12-3.91-24.06-6.33s-15.79-5.11-23.49-8.17c-3.85-1.54-7.66-3.16-11.37-5
		c-3.728-1.68-7.282-3.723-10.61-6.1l0,0c-0.431-0.356-1.069-0.296-1.425,0.135c-0.356,0.431-0.296,1.069,0.135,1.425
		C368.918,909.367,372.438,911.796,376.2,913.8z"/>
	<path style="fill:#FF3A00;" d="M382.74,905.3c3.36,1.93,6.8,3.67,10.31,5.25s7.07,3,10.65,4.37s7.24,2.53,10.9,3.68
		s7.36,2.11,11.09,3s7.48,1.7,11.28,2.31c3.8,0.659,7.632,1.123,11.48,1.39c3.93,0.338,7.887,0.187,11.78-0.45
		c0.813-0.229,1.288-1.074,1.059-1.887c-0.176-0.626-0.729-1.073-1.379-1.113h-0.07c-3.653,0-7.298-0.335-10.89-1
		c-3.66-0.58-7.31-1.35-10.95-2.17c-7.27-1.67-14.5-3.64-21.66-5.83s-14.25-4.58-21.22-7.25c-3.48-1.35-6.94-2.75-10.3-4.3
		c-3.353-1.459-6.573-3.209-9.62-5.23h-0.06c-0.709-0.46-1.656-0.259-2.116,0.45c-0.389,0.599-0.312,1.388,0.186,1.9
		C376.096,901.091,379.296,903.401,382.74,905.3z"/>
	<path style="fill:#FF3A00;" d="M396,891.92c2.51,1.43,5.1,2.72,7.72,3.89s5.3,2.24,8,3.26s5.42,1.88,8.15,2.74
		c5.493,1.674,11.084,3.01,16.74,4c2.83,0.49,5.69,0.86,8.58,1.07c2.931,0.261,5.882,0.167,8.79-0.28
		c0.552-0.058,0.953-0.553,0.895-1.105c-0.058-0.552-0.553-0.953-1.105-0.895h-0.05c-2.749,0.042-5.495-0.182-8.2-0.67
		c-2.75-0.43-5.49-1-8.22-1.6c-5.46-1.23-10.89-2.7-16.26-4.35s-10.69-3.44-15.92-5.46c-2.61-1-5.2-2.08-7.72-3.26
		c-2.52-1.105-4.93-2.444-7.2-4l0,0c-0.434-0.356-1.074-0.294-1.43,0.14c-0.356,0.434-0.294,1.074,0.14,1.43
		C391.071,888.792,393.45,890.5,396,891.92z"/>
	<path style="fill:#FF3A00;" d="M435.34,962.17L435.34,962.17c-2.749,0.044-5.496-0.184-8.2-0.68c-2.75-0.42-5.49-1-8.22-1.59
		c-5.46-1.24-10.88-2.69-16.26-4.35c-5.37-1.63-10.69-3.44-15.92-5.46c-2.61-1-5.2-2.08-7.72-3.26c-2.518-1.109-4.928-2.448-7.2-4
		l0,0c-0.408-0.291-0.967-0.235-1.31,0.13c-0.398,0.383-0.409,1.016-0.026,1.414c0.009,0.009,0.017,0.017,0.026,0.026
		c2.176,1.973,4.576,3.685,7.15,5.1c2.506,1.429,5.083,2.731,7.72,3.9c2.62,1.19,5.3,2.24,8,3.25s5.42,1.89,8.15,2.75
		c5.493,1.674,11.084,3.01,16.74,4c2.83,0.49,5.69,0.86,8.58,1.07c2.931,0.251,5.881,0.157,8.79-0.28
		c0.552-0.058,0.953-0.553,0.895-1.105c-0.058-0.552-0.553-0.953-1.105-0.895L435.34,962.17z"/>
	<path style="fill:#FF3A00;" d="M409.76,887.75c1.183,0.814,2.419,1.549,3.7,2.2c2.522,1.277,5.152,2.328,7.86,3.14
		c2.698,0.836,5.466,1.429,8.27,1.77c1.43,0.171,2.87,0.251,4.31,0.24c1.529,0.012,3.051-0.197,4.52-0.62
		c0.816-0.239,1.284-1.095,1.044-1.911c-0.168-0.574-0.653-0.998-1.244-1.089h-0.19c-1.13-0.2-2.39-0.48-3.64-0.82s-2.5-0.68-3.76-1
		c-2.52-0.71-5-1.48-7.56-2.24s-5-1.55-7.53-2.36c-1.24-0.41-2.5-0.8-3.71-1.24s-2.42-0.88-3.48-1.34l-0.18-0.08
		c-0.788-0.334-1.698,0.033-2.032,0.821c-0.222,0.522-0.14,1.124,0.212,1.569C407.345,885.928,408.493,886.924,409.76,887.75z"/>
	<path style="fill:#FF3A00;" d="M417.61,970.38h-0.16c-1.457-0.201-2.902-0.478-4.33-0.83c-1.48-0.34-3-0.75-4.46-1.14
		c-3-0.83-6-1.7-8.92-2.61s-5.93-1.84-8.86-2.82c-1.45-0.5-2.92-1-4.34-1.54c-1.388-0.496-2.747-1.071-4.07-1.72l-0.14-0.06
		c-0.764-0.375-1.686-0.059-2.061,0.705c-0.268,0.546-0.189,1.199,0.201,1.665c1.173,1.31,2.519,2.453,4,3.4
		c1.396,0.922,2.849,1.753,4.35,2.49c5.922,2.906,12.273,4.841,18.81,5.73c1.658,0.222,3.328,0.342,5,0.36
		c1.763,0.038,3.523-0.168,5.23-0.61c0.814-0.247,1.274-1.106,1.028-1.92c-0.175-0.577-0.67-0.999-1.268-1.08L417.61,970.38z"/>
</g>
</svg>
