<svg height="512pt" viewBox="0 0 512 512.00081" width="512pt" xmlns="http://www.w3.org/2000/svg"><path d="m21.210938 510.65625 116.675781-53.035156c1.488281-.679688 3.109375-1.757813 4.398437-3.050782 12.066406-12.0625 339.066406-339.066406 356.554688-356.554687 17.546875-17.546875 17.546875-46.09375 0-63.640625l-21.210938-21.214844c-17.546875-17.546875-46.097656-17.546875-63.644531 0-13.65625 13.65625-348.578125 348.578125-356.554687 356.554688-1.304688 1.304687-2.386719 2.945312-3.050782 4.402344l-53.035156 116.675781c-2.585938 5.691406-1.3710938 12.390625 3.050781 16.8125 4.398438 4.398437 11.09375 5.652343 16.816407 3.050781zm360.953124-423.246094 42.429688 42.429688-21.214844 21.210937-42.429687-42.425781zm-42.429687 42.429688 42.429687 42.425781-250.484374 250.484375-42.429688-42.425781zm95.464844-95.464844c5.847656-5.851562 15.363281-5.847656 21.214843 0l21.210938 21.214844c5.851562 5.847656 5.851562 15.363281 0 21.210937l-31.820312 31.824219-42.429688-42.429688zm-362.464844 371.859375 33.03125 33.03125-60.554687 27.523437zm0 0"/></svg>