<svg xmlns="http://www.w3.org/2000/svg" xmlns:xlink="http://www.w3.org/1999/xlink" id="Слой_4" x="0" y="0" version="1.1" viewBox="0 0 3514.7 3692.8" xml:space="preserve" style="enable-background:new 0 0 3514.7 3692.8"><path d="M1658.4,452.4c-33.9-1.1-68.4,0.3-100.5,11.2c-42.1,14.4-77.5,44.4-105.6,78.9	c-94.2,115.6-111.1,281.1-70.2,424.6s132.8,267.4,237.4,373.7c190.7,194,458.5,345.9,725.6,294.2c48.6-9.4,97.2-26.1,135.1-58	c42.6-35.9,68.5-88.7,80.3-143.1c39.3-181.9-67.5-360.3-172.1-514.3C2210,657.1,1992.8,463,1658.4,452.4z" style="fill:#e5e5e5"/><g><g><path d="M2151.8,2883.4l-0.1-1c-2.2-16.4,9.3-31.5,25.7-33.8s31.5,9.3,33.8,25.7l0.1,1c2.2,16.4-9.3,31.5-25.7,33.8 S2154.1,2899.8,2151.8,2883.4z" style="fill:#ffda54"/><path d="M2135.9,2765.4l-0.1-1c-2.2-16.4,9.3-31.5,25.7-33.8c16.4-2.2,31.5,9.3,33.8,25.7l0.1,1 c2.2,16.4-9.3,31.5-25.7,33.8C2153.2,2793.4,2138.1,2781.9,2135.9,2765.4z" style="fill:#ffda54"/><path d="M2119.9,2647.5l-0.1-1c-2.2-16.4,9.3-31.5,25.7-33.8c16.4-2.2,31.5,9.3,33.8,25.7l0.1,1 c2.2,16.4-9.3,31.5-25.7,33.8C2137.2,2675.4,2122.1,2663.9,2119.9,2647.5z" style="fill:#ffda54"/><path d="M2103.9,2529.6l-0.1-1c-2.2-16.4,9.3-31.5,25.7-33.8c16.4-2.2,31.5,9.3,33.8,25.7l0.1,1 c2.2,16.4-9.3,31.5-25.7,33.8C2121.2,2557.5,2106.1,2546,2103.9,2529.6z" style="fill:#ffda54"/><path d="M2087.9,2411.7l-0.1-1c-2.2-16.4,9.3-31.5,25.7-33.8s31.5,9.3,33.8,25.7l0.1,1c2.2,16.4-9.3,31.5-25.7,33.8 C2105.2,2439.6,2090.1,2428.1,2087.9,2411.7z" style="fill:#ffda54"/><path d="M2071.9,2293.8l-0.1-1c-2.2-16.4,9.3-31.5,25.7-33.8c16.4-2.2,31.5,9.3,33.8,25.7l0.1,1 c2.2,16.4-9.3,31.5-25.7,33.8S2074.1,2310.2,2071.9,2293.8z" style="fill:#ffda54"/><path d="M2055.9,2175.8l-0.1-1c-2.2-16.4,9.3-31.5,25.7-33.8s31.5,9.3,33.8,25.7l0.1,1c2.2,16.4-9.3,31.5-25.7,33.8 S2058.1,2192.3,2055.9,2175.8z" style="fill:#ffda54"/><path d="M2037.9,2898.8l-0.1-1c-2.2-16.4,9.3-31.5,25.7-33.8s31.5,9.3,33.8,25.7l0.1,1c2.2,16.4-9.3,31.5-25.7,33.8 C2055.2,2926.7,2040.1,2915.2,2037.9,2898.8z" style="fill:#ffda54"/><path d="M2021.9,2780.9l-0.1-1c-2.2-16.4,9.3-31.5,25.7-33.8c16.4-2.2,31.5,9.3,33.8,25.7l0.1,1 c2.2,16.4-9.3,31.5-25.7,33.8C2039.2,2808.8,2024.1,2797.3,2021.9,2780.9z" style="fill:#ffda54"/><path d="M2005.9,2663l-0.1-1c-2.2-16.4,9.3-31.5,25.7-33.8s31.5,9.3,33.8,25.7l0.1,1c2.2,16.4-9.3,31.5-25.7,33.8 C2023.2,2690.9,2008.1,2679.4,2005.9,2663z" style="fill:#ffda54"/><path d="M1989.9,2545.1l-0.1-1c-2.2-16.4,9.3-31.5,25.7-33.8c16.4-2.2,31.5,9.3,33.8,25.7l0.1,1 c2.2,16.4-9.3,31.5-25.7,33.8S1992.1,2561.5,1989.9,2545.1z" style="fill:#ffda54"/><path d="M1973.9,2427.1l-0.1-1c-2.2-16.4,9.3-31.5,25.7-33.8s31.5,9.3,33.8,25.7l0.1,1c2.2,16.4-9.3,31.5-25.7,33.8 C1991.3,2455.1,1976.1,2443.6,1973.9,2427.1z" style="fill:#ffda54"/><path d="M1957.9,2309.2l-0.1-1c-2.2-16.4,9.3-31.5,25.7-33.8s31.5,9.3,33.8,25.7l0.1,1c2.2,16.4-9.3,31.5-25.7,33.8 S1960.1,2325.6,1957.9,2309.2z" style="fill:#ffda54"/><path d="M1941.9,2191.3l-0.1-1c-2.2-16.4,9.3-31.5,25.7-33.8c16.4-2.2,31.5,9.3,33.8,25.7l0.1,1 c2.2,16.4-9.3,31.5-25.7,33.8C1959.3,2219.2,1944.2,2207.7,1941.9,2191.3z" style="fill:#ffda54"/><path d="M1923.9,2914.3l-0.1-1c-2.2-16.4,9.3-31.5,25.7-33.8c16.4-2.2,31.5,9.3,33.8,25.7l0.1,1 c2.2,16.4-9.3,31.5-25.7,33.8C1941.3,2942.2,1926.2,2930.7,1923.9,2914.3z" style="fill:#ffda54"/><path d="M1907.9,2796.3l-0.1-1c-2.2-16.4,9.3-31.5,25.7-33.8s31.5,9.3,33.8,25.7l0.1,1c2.2,16.4-9.3,31.5-25.7,33.8 C1925.3,2824.3,1910.2,2812.8,1907.9,2796.3z" style="fill:#ffda54"/><path d="M1891.9,2678.4l-0.1-1c-2.2-16.4,9.3-31.5,25.7-33.8c16.4-2.2,31.5,9.3,33.8,25.7l0.1,1 c2.2,16.4-9.3,31.5-25.7,33.8C1909.3,2706.4,1894.2,2694.8,1891.9,2678.4z" style="fill:#ffda54"/><path d="M1875.9,2560.5l-0.1-1c-2.2-16.4,9.3-31.5,25.7-33.8c16.4-2.2,31.5,9.3,33.8,25.7l0.1,1 c2.2,16.4-9.3,31.5-25.7,33.8C1893.3,2588.4,1878.2,2576.9,1875.9,2560.5z" style="fill:#ffda54"/><path d="M1860,2442.6l-0.1-1c-2.2-16.4,9.3-31.5,25.7-33.8c16.4-2.2,31.5,9.3,33.8,25.7l0.1,1 c2.2,16.4-9.3,31.5-25.7,33.8C1877.3,2470.5,1862.2,2459,1860,2442.6z" style="fill:#ffda54"/><path d="M1844,2324.7l-0.1-1c-2.2-16.4,9.3-31.5,25.7-33.8c16.4-2.2,31.5,9.3,33.8,25.7l0.1,1 c2.2,16.4-9.3,31.5-25.7,33.8C1861.3,2352.6,1846.2,2341.1,1844,2324.7z" style="fill:#ffda54"/><path d="M1828,2206.7l-0.1-1c-2.2-16.4,9.3-31.5,25.7-33.8s31.5,9.3,33.8,25.7l0.1,1c2.2,16.4-9.3,31.5-25.7,33.8 S1830.2,2223.2,1828,2206.7z" style="fill:#ffda54"/><path d="M2379.8,2852.4l-0.1-1c-2.2-16.4,9.3-31.5,25.7-33.8c16.4-2.2,31.5,9.3,33.8,25.7l0.1,1 c2.2,16.4-9.3,31.5-25.7,33.8S2382,2868.9,2379.8,2852.4z" style="fill:#ffda54"/><path d="M2363.8,2734.5l-0.1-1c-2.2-16.4,9.3-31.5,25.7-33.8c16.4-2.2,31.5,9.3,33.8,25.7l0.1,1 c2.2,16.4-9.3,31.5-25.7,33.8S2366,2750.9,2363.8,2734.5z" style="fill:#ffda54"/><path d="M2347.8,2616.6l-0.1-1c-2.2-16.4,9.3-31.5,25.7-33.8c16.4-2.2,31.5,9.3,33.8,25.7l0.1,1 c2.2,16.4-9.3,31.5-25.7,33.8C2365.1,2644.5,2350,2633,2347.8,2616.6z" style="fill:#ffda54"/><path d="M2331.8,2498.7l-0.1-1c-2.2-16.4,9.3-31.5,25.7-33.8c16.4-2.2,31.5,9.3,33.8,25.7l0.1,1 c2.2,16.4-9.3,31.5-25.7,33.8C2349.1,2526.6,2334,2515.1,2331.8,2498.7z" style="fill:#ffda54"/><path d="M2315.8,2380.8l-0.1-1c-2.2-16.4,9.3-31.5,25.7-33.8c16.4-2.2,31.5,9.3,33.8,25.7l0.1,1 c2.2,16.4-9.3,31.5-25.7,33.8S2318,2397.2,2315.8,2380.8z" style="fill:#ffda54"/><path d="M2299.8,2262.8l-0.1-1c-2.2-16.4,9.3-31.5,25.7-33.8s31.5,9.3,33.8,25.7l0.1,1c2.2,16.4-9.3,31.5-25.7,33.8 S2302,2279.3,2299.8,2262.8z" style="fill:#ffda54"/><path d="M2283.8,2144.9l-0.1-1c-2.2-16.4,9.3-31.5,25.7-33.8c16.4-2.2,31.5,9.3,33.8,25.7l0.1,1 c2.2,16.4-9.3,31.5-25.7,33.8C2301.1,2172.8,2286,2161.3,2283.8,2144.9z" style="fill:#ffda54"/><path d="M2265.8,2867.9l-0.1-1c-2.2-16.4,9.3-31.5,25.7-33.8c16.4-2.2,31.5,9.3,33.8,25.7l0.1,1 c2.2,16.4-9.3,31.5-25.7,33.8C2283.1,2895.8,2268,2884.3,2265.8,2867.9z" style="fill:#ffda54"/><path d="M2249.8,2750l-0.1-1c-2.2-16.4,9.3-31.5,25.7-33.8c16.4-2.2,31.5,9.3,33.8,25.7l0.1,1 c2.2,16.4-9.3,31.5-25.7,33.8S2252,2766.4,2249.8,2750z" style="fill:#ffda54"/><path d="M2233.8,2632.1l-0.1-1c-2.2-16.4,9.3-31.5,25.7-33.8c16.4-2.2,31.5,9.3,33.8,25.7l0.1,1 c2.2,16.4-9.3,31.5-25.7,33.8S2236,2648.5,2233.8,2632.1z" style="fill:#ffda54"/><path d="M2217.8,2514.1l-0.1-1c-2.2-16.4,9.3-31.5,25.7-33.8c16.4-2.2,31.5,9.3,33.8,25.7l0.1,1 c2.2,16.4-9.3,31.5-25.7,33.8C2235.2,2542.1,2220,2530.6,2217.8,2514.1z" style="fill:#ffda54"/><path d="M2201.8,2396.2l-0.1-1c-2.2-16.4,9.3-31.5,25.7-33.8c16.4-2.2,31.5,9.3,33.8,25.7l0.1,1 c2.2,16.4-9.3,31.5-25.7,33.8C2219.2,2424.1,2204.1,2412.6,2201.8,2396.2z" style="fill:#ffda54"/><path d="M2185.8,2278.3l-0.1-1c-2.2-16.4,9.3-31.5,25.7-33.8c16.4-2.2,31.5,9.3,33.8,25.7l0.1,1 c2.2,16.4-9.3,31.5-25.7,33.8S2188.1,2294.7,2185.8,2278.3z" style="fill:#ffda54"/><path d="M2169.8,2160.4l-0.1-1c-2.2-16.4,9.3-31.5,25.7-33.8s31.5,9.3,33.8,25.7l0.1,1c2.2,16.4-9.3,31.5-25.7,33.8 C2187.2,2188.3,2172.1,2176.8,2169.8,2160.4z" style="fill:#ffda54"/><path d="M2607.7,2821.5l-0.1-1c-2.2-16.4,9.3-31.5,25.7-33.8c16.4-2.2,31.5,9.3,33.8,25.7l0.1,1 c2.2,16.4-9.3,31.5-25.7,33.8C2625,2849.5,2609.9,2838,2607.7,2821.5z" style="fill:#ffda54"/><path d="M2591.7,2703.6l-0.1-1c-2.2-16.4,9.3-31.5,25.7-33.8c16.4-2.2,31.5,9.3,33.8,25.7l0.1,1 c2.2,16.4-9.3,31.5-25.7,33.8C2609,2731.5,2593.9,2720,2591.7,2703.6z" style="fill:#ffda54"/><path d="M2575.7,2585.7l-0.1-1c-2.2-16.4,9.3-31.5,25.7-33.8c16.4-2.2,31.5,9.3,33.8,25.7l0.1,1 c2.2,16.4-9.3,31.5-25.7,33.8C2593,2613.6,2577.9,2602.1,2575.7,2585.7z" style="fill:#ffda54"/><path d="M2559.7,2467.8l-0.1-1c-2.2-16.4,9.3-31.5,25.7-33.8s31.5,9.3,33.8,25.7l0.1,1c2.2,16.4-9.3,31.5-25.7,33.8 S2561.9,2484.2,2559.7,2467.8z" style="fill:#ffda54"/><path d="M2543.7,2349.9l-0.1-1c-2.2-16.4,9.3-31.5,25.7-33.8s31.5,9.3,33.8,25.7l0.1,1c2.2,16.4-9.3,31.5-25.7,33.8 C2561,2377.8,2545.9,2366.3,2543.7,2349.9z" style="fill:#ffda54"/><path d="M2527.7,2231.9l-0.1-1c-2.2-16.4,9.3-31.5,25.7-33.8c16.4-2.2,31.5,9.3,33.8,25.7l0.1,1 c2.2,16.4-9.3,31.5-25.7,33.8C2545,2259.9,2529.9,2248.3,2527.7,2231.9z" style="fill:#ffda54"/><path d="M2511.7,2114l-0.1-1c-2.2-16.4,9.3-31.5,25.7-33.8s31.5,9.3,33.8,25.7l0.1,1c2.2,16.4-9.3,31.5-25.7,33.8 S2513.9,2130.4,2511.7,2114z" style="fill:#ffda54"/><path d="M2493.7,2837l-0.1-1c-2.2-16.4,9.3-31.5,25.7-33.8s31.5,9.3,33.8,25.7l0.1,1c2.2,16.4-9.3,31.5-25.7,33.8 S2495.9,2853.4,2493.7,2837z" style="fill:#ffda54"/><path d="M2477.7,2719.1l-0.1-1c-2.2-16.4,9.3-31.5,25.7-33.8s31.5,9.3,33.8,25.7l0.1,1c2.2,16.4-9.3,31.5-25.7,33.8 C2495.1,2747,2479.9,2735.5,2477.7,2719.1z" style="fill:#ffda54"/><path d="M2461.7,2601.1l-0.1-1c-2.2-16.4,9.3-31.5,25.7-33.8c16.4-2.2,31.5,9.3,33.8,25.7l0.1,1 c2.2,16.4-9.3,31.5-25.7,33.8C2479.1,2629.1,2464,2617.6,2461.7,2601.1z" style="fill:#ffda54"/><path d="M2445.7,2483.2l-0.1-1c-2.2-16.4,9.3-31.5,25.7-33.8s31.5,9.3,33.8,25.7l0.1,1c2.2,16.4-9.3,31.5-25.7,33.8 C2463.1,2511.2,2448,2499.6,2445.7,2483.2z" style="fill:#ffda54"/><path d="M2429.7,2365.3l-0.1-1c-2.2-16.4,9.3-31.5,25.7-33.8s31.5,9.3,33.8,25.7l0.1,1c2.2,16.4-9.3,31.5-25.7,33.8 S2432,2381.7,2429.7,2365.3z" style="fill:#ffda54"/><path d="M2413.7,2247.4l-0.1-1c-2.2-16.4,9.3-31.5,25.7-33.8c16.4-2.2,31.5,9.3,33.8,25.7l0.1,1 c2.2,16.4-9.3,31.5-25.7,33.8C2431.1,2275.3,2416,2263.8,2413.7,2247.4z" style="fill:#ffda54"/><path d="M2397.8,2129.5l-0.1-1c-2.2-16.4,9.3-31.5,25.7-33.8c16.4-2.2,31.5,9.3,33.8,25.7l0.1,1 c2.2,16.4-9.3,31.5-25.7,33.8C2415.1,2157.4,2400,2145.9,2397.8,2129.5z" style="fill:#ffda54"/><path d="M2835.6,2790.6l-0.1-1c-2.2-16.4,9.3-31.5,25.7-33.8c16.4-2.2,31.5,9.3,33.8,25.7l0.1,1 c2.2,16.4-9.3,31.5-25.7,33.8C2852.9,2818.5,2837.8,2807,2835.6,2790.6z" style="fill:#ffda54"/><path d="M2819.6,2672.7l-0.1-1c-2.2-16.4,9.3-31.5,25.7-33.8c16.4-2.2,31.5,9.3,33.8,25.7l0.1,1 c2.2,16.4-9.3,31.5-25.7,33.8C2836.9,2700.6,2821.8,2689.1,2819.6,2672.7z" style="fill:#ffda54"/><path d="M2803.6,2554.8l-0.1-1c-2.2-16.4,9.3-31.5,25.7-33.8s31.5,9.3,33.8,25.7l0.1,1c2.2,16.4-9.3,31.5-25.7,33.8 C2820.9,2582.7,2805.8,2571.2,2803.6,2554.8z" style="fill:#ffda54"/><path d="M2787.6,2436.9l-0.1-1c-2.2-16.4,9.3-31.5,25.7-33.8c16.4-2.2,31.5,9.3,33.8,25.7l0.1,1 c2.2,16.4-9.3,31.5-25.7,33.8C2804.9,2464.8,2789.8,2453.3,2787.6,2436.9z" style="fill:#ffda54"/><path d="M2771.6,2318.9l-0.1-1c-2.2-16.4,9.3-31.5,25.7-33.8c16.4-2.2,31.5,9.3,33.8,25.7l0.1,1 c2.2,16.4-9.3,31.5-25.7,33.8C2789,2346.9,2773.8,2335.4,2771.6,2318.9z" style="fill:#ffda54"/><path d="M2755.6,2201l-0.1-1c-2.2-16.4,9.3-31.5,25.7-33.8c16.4-2.2,31.5,9.3,33.8,25.7l0.1,1 c2.2,16.4-9.3,31.5-25.7,33.8S2757.8,2217.4,2755.6,2201z" style="fill:#ffda54"/><path d="M2739.6,2083.1l-0.1-1c-2.2-16.4,9.3-31.5,25.7-33.8c16.4-2.2,31.5,9.3,33.8,25.7l0.1,1 c2.2,16.4-9.3,31.5-25.7,33.8C2757,2111,2741.8,2099.5,2739.6,2083.1z" style="fill:#ffda54"/><path d="M2721.6,2806.1l-0.1-1c-2.2-16.4,9.3-31.5,25.7-33.8s31.5,9.3,33.8,25.7l0.1,1c2.2,16.4-9.3,31.5-25.7,33.8 C2739,2834,2723.9,2822.5,2721.6,2806.1z" style="fill:#ffda54"/><path d="M2705.6,2688.2l-0.1-1c-2.2-16.4,9.3-31.5,25.7-33.8c16.4-2.2,31.5,9.3,33.8,25.7l0.1,1 c2.2,16.4-9.3,31.5-25.7,33.8C2723,2716.1,2707.9,2704.6,2705.6,2688.2z" style="fill:#ffda54"/><path d="M2689.6,2570.2l-0.1-1c-2.2-16.4,9.3-31.5,25.7-33.8s31.5,9.3,33.8,25.7l0.1,1c2.2,16.4-9.3,31.5-25.7,33.8 S2691.9,2586.7,2689.6,2570.2z" style="fill:#ffda54"/><path d="M2673.6,2452.3l-0.1-1c-2.2-16.4,9.3-31.5,25.7-33.8s31.5,9.3,33.8,25.7l0.1,1c2.2,16.4-9.3,31.5-25.7,33.8 S2675.9,2468.7,2673.6,2452.3z" style="fill:#ffda54"/><path d="M2657.7,2334.4l-0.1-1c-2.2-16.4,9.3-31.5,25.7-33.8c16.4-2.2,31.5,9.3,33.8,25.7l0.1,1 c2.2,16.4-9.3,31.5-25.7,33.8C2675,2362.3,2659.9,2350.8,2657.7,2334.4z" style="fill:#ffda54"/><path d="M2641.7,2216.5l-0.1-1c-2.2-16.4,9.3-31.5,25.7-33.8c16.4-2.2,31.5,9.3,33.8,25.7l0.1,1 c2.2,16.4-9.3,31.5-25.7,33.8C2659,2244.4,2643.9,2232.9,2641.7,2216.5z" style="fill:#ffda54"/><path d="M2625.7,2098.6l-0.1-1c-2.2-16.4,9.3-31.5,25.7-33.8s31.5,9.3,33.8,25.7l0.1,1c2.2,16.4-9.3,31.5-25.7,33.8 S2627.9,2115,2625.7,2098.6z" style="fill:#ffda54"/><path d="M1696,2945.2l-0.1-1c-2.2-16.4,9.3-31.5,25.7-33.8c16.4-2.2,31.5,9.3,33.8,25.7l0.1,1 c2.2,16.4-9.3,31.5-25.7,33.8C1713.4,2973.1,1698.2,2961.6,1696,2945.2z" style="fill:#ffda54"/><path d="M1680,2827.3l-0.1-1c-2.2-16.4,9.3-31.5,25.7-33.8s31.5,9.3,33.8,25.7l0.1,1c2.2,16.4-9.3,31.5-25.7,33.8 S1682.3,2843.7,1680,2827.3z" style="fill:#ffda54"/><path d="M1664,2709.3l-0.1-1c-2.2-16.4,9.3-31.5,25.7-33.8c16.4-2.2,31.5,9.3,33.8,25.7l0.1,1 c2.2,16.4-9.3,31.5-25.7,33.8S1666.3,2725.8,1664,2709.3z" style="fill:#ffda54"/><path d="M1648,2591.4l-0.1-1c-2.2-16.4,9.3-31.5,25.7-33.8c16.4-2.2,31.5,9.3,33.8,25.7l0.1,1 c2.2,16.4-9.3,31.5-25.7,33.8C1665.4,2619.3,1650.3,2607.8,1648,2591.4z" style="fill:#ffda54"/><path d="M1632,2473.5l-0.1-1c-2.2-16.4,9.3-31.5,25.7-33.8c16.4-2.2,31.5,9.3,33.8,25.7l0.1,1 c2.2,16.4-9.3,31.5-25.7,33.8S1634.3,2489.9,1632,2473.5z" style="fill:#ffda54"/><path d="M1616,2355.6l-0.1-1c-2.2-16.4,9.3-31.5,25.7-33.8c16.4-2.2,31.5,9.3,33.8,25.7l0.1,1 c2.2,16.4-9.3,31.5-25.7,33.8C1633.4,2383.5,1618.3,2372,1616,2355.6z" style="fill:#ffda54"/><path d="M1600.1,2237.7l-0.1-1c-2.2-16.4,9.3-31.5,25.7-33.8s31.5,9.3,33.8,25.7l0.1,1c2.2,16.4-9.3,31.5-25.7,33.8 C1617.4,2265.6,1602.3,2254.1,1600.1,2237.7z" style="fill:#ffda54"/><path d="M1923.9,2914.3l-0.1-1c-2.2-16.4,9.3-31.5,25.7-33.8c16.4-2.2,31.5,9.3,33.8,25.7l0.1,1 c2.2,16.4-9.3,31.5-25.7,33.8C1941.3,2942.2,1926.2,2930.7,1923.9,2914.3z" style="fill:#ffda54"/><path d="M1907.9,2796.3l-0.1-1c-2.2-16.4,9.3-31.5,25.7-33.8s31.5,9.3,33.8,25.7l0.1,1c2.2,16.4-9.3,31.5-25.7,33.8 C1925.3,2824.3,1910.2,2812.8,1907.9,2796.3z" style="fill:#ffda54"/><path d="M1891.9,2678.4l-0.1-1c-2.2-16.4,9.3-31.5,25.7-33.8c16.4-2.2,31.5,9.3,33.8,25.7l0.1,1 c2.2,16.4-9.3,31.5-25.7,33.8C1909.3,2706.4,1894.2,2694.8,1891.9,2678.4z" style="fill:#ffda54"/><path d="M1875.9,2560.5l-0.1-1c-2.2-16.4,9.3-31.5,25.7-33.8c16.4-2.2,31.5,9.3,33.8,25.7l0.1,1 c2.2,16.4-9.3,31.5-25.7,33.8C1893.3,2588.4,1878.2,2576.9,1875.9,2560.5z" style="fill:#ffda54"/><path d="M1860,2442.6l-0.1-1c-2.2-16.4,9.3-31.5,25.7-33.8c16.4-2.2,31.5,9.3,33.8,25.7l0.1,1 c2.2,16.4-9.3,31.5-25.7,33.8C1877.3,2470.5,1862.2,2459,1860,2442.6z" style="fill:#ffda54"/><path d="M1844,2324.7l-0.1-1c-2.2-16.4,9.3-31.5,25.7-33.8c16.4-2.2,31.5,9.3,33.8,25.7l0.1,1 c2.2,16.4-9.3,31.5-25.7,33.8C1861.3,2352.6,1846.2,2341.1,1844,2324.7z" style="fill:#ffda54"/><path d="M1828,2206.7l-0.1-1c-2.2-16.4,9.3-31.5,25.7-33.8s31.5,9.3,33.8,25.7l0.1,1c2.2,16.4-9.3,31.5-25.7,33.8 S1830.2,2223.2,1828,2206.7z" style="fill:#ffda54"/><path d="M1810,2929.7l-0.1-1c-2.2-16.4,9.3-31.5,25.7-33.8s31.5,9.3,33.8,25.7l0.1,1c2.2,16.4-9.3,31.5-25.7,33.8 C1827.3,2957.6,1812.2,2946.1,1810,2929.7z" style="fill:#ffda54"/><path d="M1794,2811.8l-0.1-1c-2.2-16.4,9.3-31.5,25.7-33.8c16.4-2.2,31.5,9.3,33.8,25.7l0.1,1 c2.2,16.4-9.3,31.5-25.7,33.8C1811.3,2839.7,1796.2,2828.2,1794,2811.8z" style="fill:#ffda54"/><path d="M1778,2693.9l-0.1-1c-2.2-16.4,9.3-31.5,25.7-33.8s31.5,9.3,33.8,25.7l0.1,1c2.2,16.4-9.3,31.5-25.7,33.8 C1795.3,2721.8,1780.2,2710.3,1778,2693.9z" style="fill:#ffda54"/><path d="M1762,2576l-0.1-1c-2.2-16.4,9.3-31.5,25.7-33.8c16.4-2.2,31.5,9.3,33.8,25.7l0.1,1 c2.2,16.4-9.3,31.5-25.7,33.8C1779.3,2603.9,1764.2,2592.4,1762,2576z" style="fill:#ffda54"/><path d="M1746,2458l-0.1-1c-2.2-16.4,9.3-31.5,25.7-33.8c16.4-2.2,31.5,9.3,33.8,25.7l0.1,1 c2.2,16.4-9.3,31.5-25.7,33.8C1763.3,2486,1748.2,2474.5,1746,2458z" style="fill:#ffda54"/><path d="M1730,2340.1l-0.1-1c-2.2-16.4,9.3-31.5,25.7-33.8s31.5,9.3,33.8,25.7l0.1,1c2.2,16.4-9.3,31.5-25.7,33.8 C1747.3,2368,1732.2,2356.5,1730,2340.1z" style="fill:#ffda54"/><path d="M1714,2222.2l-0.1-1c-2.2-16.4,9.3-31.5,25.7-33.8c16.4-2.2,31.5,9.3,33.8,25.7l0.1,1 c2.2,16.4-9.3,31.5-25.7,33.8S1716.2,2238.6,1714,2222.2z" style="fill:#ffda54"/><path d="M1582.1,2960.6l-0.1-1c-2.2-16.4,9.3-31.5,25.7-33.8c16.4-2.2,31.5,9.3,33.8,25.7l0.1,1 c2.2,16.4-9.3,31.5-25.7,33.8C1599.4,2988.6,1584.3,2977.1,1582.1,2960.6z" style="fill:#ffda54"/><path d="M1566.1,2842.7l-0.1-1c-2.2-16.4,9.3-31.5,25.7-33.8c16.4-2.2,31.5,9.3,33.8,25.7l0.1,1 c2.2,16.4-9.3,31.5-25.7,33.8C1583.4,2870.6,1568.3,2859.1,1566.1,2842.7z" style="fill:#ffda54"/><path d="M1550.1,2724.8l-0.1-1c-2.2-16.4,9.3-31.5,25.7-33.8c16.4-2.2,31.5,9.3,33.8,25.7l0.1,1 c2.2,16.4-9.3,31.5-25.7,33.8C1567.4,2752.7,1552.3,2741.2,1550.1,2724.8z" style="fill:#ffda54"/><path d="M1534.1,2606.9l-0.1-1c-2.2-16.4,9.3-31.5,25.7-33.8c16.4-2.2,31.5,9.3,33.8,25.7l0.1,1 c2.2,16.4-9.3,31.5-25.7,33.8S1536.3,2623.3,1534.1,2606.9z" style="fill:#ffda54"/><path d="M1518.1,2489l-0.1-1c-2.2-16.4,9.3-31.5,25.7-33.8c16.4-2.2,31.5,9.3,33.8,25.7l0.1,1 c2.2,16.4-9.3,31.5-25.7,33.8C1535.4,2516.9,1520.3,2505.4,1518.1,2489z" style="fill:#ffda54"/><path d="M1502.1,2371l-0.1-1c-2.2-16.4,9.3-31.5,25.7-33.8s31.5,9.3,33.8,25.7l0.1,1c2.2,16.4-9.3,31.5-25.7,33.8 C1519.4,2399,1504.3,2387.5,1502.1,2371z" style="fill:#ffda54"/><path d="M1486.1,2253.1l-0.1-1c-2.2-16.4,9.3-31.5,25.7-33.8c16.4-2.2,31.5,9.3,33.8,25.7l0.1,1 c2.2,16.4-9.3,31.5-25.7,33.8S1488.3,2269.5,1486.1,2253.1z" style="fill:#ffda54"/><path d="M1468.1,2976.1l-0.1-1c-2.2-16.4,9.3-31.5,25.7-33.8c16.4-2.2,31.5,9.3,33.8,25.7l0.1,1 c2.2,16.4-9.3,31.5-25.7,33.8S1470.3,2992.5,1468.1,2976.1z" style="fill:#ffda54"/><path d="M1452.1,2858.2l-0.1-1c-2.2-16.4,9.3-31.5,25.7-33.8s31.5,9.3,33.8,25.7l0.1,1c2.2,16.4-9.3,31.5-25.7,33.8 C1469.5,2886.1,1454.3,2874.6,1452.1,2858.2z" style="fill:#ffda54"/><path d="M1436.1,2740.3l-0.1-1c-2.2-16.4,9.3-31.5,25.7-33.8s31.5,9.3,33.8,25.7l0.1,1c2.2,16.4-9.3,31.5-25.7,33.8 S1438.3,2756.7,1436.1,2740.3z" style="fill:#ffda54"/><path d="M1420.1,2622.3l-0.1-1c-2.2-16.4,9.3-31.5,25.7-33.8c16.4-2.2,31.5,9.3,33.8,25.7l0.1,1 c2.2,16.4-9.3,31.5-25.7,33.8C1437.5,2650.3,1422.4,2638.8,1420.1,2622.3z" style="fill:#ffda54"/><path d="M1404.1,2504.4l-0.1-1c-2.2-16.4,9.3-31.5,25.7-33.8s31.5,9.3,33.8,25.7l0.1,1c2.2,16.4-9.3,31.5-25.7,33.8 C1421.5,2532.3,1406.4,2520.8,1404.1,2504.4z" style="fill:#ffda54"/><path d="M1388.1,2386.5l-0.1-1c-2.2-16.4,9.3-31.5,25.7-33.8c16.4-2.2,31.5,9.3,33.8,25.7l0.1,1 c2.2,16.4-9.3,31.5-25.7,33.8S1390.4,2402.9,1388.1,2386.5z" style="fill:#ffda54"/><path d="M1372.1,2268.6l-0.1-1c-2.2-16.4,9.3-31.5,25.7-33.8c16.4-2.2,31.5,9.3,33.8,25.7l0.1,1 c2.2,16.4-9.3,31.5-25.7,33.8C1389.5,2296.5,1374.4,2285,1372.1,2268.6z" style="fill:#ffda54"/></g></g><path d="M2296.2,2055.3c-1.2-7.2-4-14.6-8.1-20.7c-11.2-16.7-29.6-24.8-45.4-35.9c-9-6.3-19.4-10.4-29.2-15.4	c-13.6-6.9-27.1-13.8-40.9-20.4c-19.7-9.5-39.6-18.8-59.4-28.1c-9.2-4.3-18.4-8.6-27.5-13.1c-18.8-9.3-36.9-19.9-57-26.9	c-31.4-10.8-63.4-19.4-96-25c-32.3-5.5-64.9-8.9-97.3-13.2c-16.8-2.2-33.7-4.7-50.5-6.3c-12.8-1.2-12.8-0.7-10.4-13.4	c0-0.2,0-0.3,0.1-0.5c5.8-31.4,12-62.6,23-92.7c7.5-20.4,15.2-40.7,21.4-61.5c15.9-53.7,27-108.1,24.1-164.6c-1-18.7,2-37,11.2-53.4	c11.5-20.5,17.7-42.7,24.1-64.9c2-7,4.2-14.3,4.6-21.5c1-15.5,1.5-31.1,1.2-46.7c-0.4-18.8-2.5-37.5-8.4-55.4	c-6.1-18.8-13.5-37.2-20.6-55.7c-1.7-4.6-1.2-8.3,2.6-11.2c3.7-2.8,7.6-2.4,11.2,0.3c1.4,1.1,2.5,2.9,3.3,4.7	c13.1,28.8,23.8,58.3,28.1,89.9c3.3,23.9,5.2,48,1.5,71.8c-5.1,33-14.4,65-30.3,94.7c-7.3,13.7-10.1,28.3-9.9,43.6	c0,2.3,1.2,4.7,2.3,6.8c3.9,7.8,8.1,15.5,11.9,23.4c3.4,6.9,5.6,14.5,9.7,20.8c5.3,8.2,11.7,16.5,22.1,18.2c8.2,1.4,16.9,1.8,25,0.6	c14-2.1,27.8-5.4,41.6-8.9c17.5-4.4,35.4-7.8,52-14.4c18.5-7.3,35.9-17.4,53.5-26.8c5.5-2.9,10.3-7.2,15.2-11.1	c7.5-6.1,14.7-12.4,22.1-18.6c4.8-4,10.1-5.2,16.2-3.1c5.5,1.9,11.2,3.1,16.5,5.3c12,4.8,23.1,1.8,33.9-3.5	c5.7-2.8,6.6-6.5,2.5-11.5c-4-4.8-8.8-9-13.3-13.4c-7.4-7.2-15.9-13.5-22.1-21.6c-8-10.4-15.1-22.4-8.9-36.4	c5.3-12,11.8-23.5,18.2-34.9c5.4-9.6,11.7-18.7,17.2-28.2c2.5-4.3-0.5-9.2-5.6-9.1c-2.6,0-5.3,1.3-7.6,2.7	c-5.2,3.3-9.8,7.4-15.1,10.3c-17.2,9.5-31.8,20.8-36.2,41.7c-4,18.6-16.2,29.6-33.4,38.2c-20.2,10-40.6,12.6-62.2,10.3	c-16.4-1.7-32.7-4.1-49-6.2c-7-0.9-6.7-0.9-6-8.1c0.7-7.1,1.6-14.4,0.8-21.4c-1.1-9.7-3.1-19.4-5.9-28.8	c-3.7-12.6-8.5-24.8-17.3-35.1c-6.1-7.2-12.1-14.8-16.2-23.2c-8.5-17.1-12.4-35.6-12.5-54.9c-0.2-32.4-6.5-63.3-24.1-91.1	c-8.8-14-17.6-27.9-30.2-38.9c-11.7-10.3-23.8-20.2-39.4-24.5c-5.1-1.4-6.7-0.3-6.5,4.9c0.3,7.9,1.4,15.7,1.9,23.5	c0.4,6.1-2.8,10.6-7.7,11.4c-4.9,0.7-9.5-2.9-10.4-8.9c-2.2-13.3-3.8-26.8-1.3-40.3c4.2-23,15.8-42,36.1-53	c17-9.1,36-14.5,54.2-21.3c8.3-3.1,17.2-5,25.2-8.8c7.1-3.4,12.6-9.8,12.1-18.2c-0.5-8.5-2.4-17-4.6-25.2c-2.2-8-2.5-15.6-1.7-23.8	c0.7-7.1,0-14.7-1.4-21.7c-1.4-6.6-4.3-13-7-19.2c-2-4.6-0.6-7.3,3.7-9.2c5.4-2.5,10.9-4.9,16.1-7.7c10-5.3,11.4-11.9,4.7-21	c-8.9-12.1-17.6-24.5-26.7-36.5c-12.3-16.4-20-34.7-21-55.2c-0.7-14.1-2.7-27.9-7.6-41.1c-5.2-14.3-12.8-27.2-23.6-38.1	c-10.7-10.9-24.4-16.6-38.1-22.6c-22.1-9.7-45.3-12.1-68.5-8.3c-20.3,3.3-40.1,9.6-60.1,14.8c-13,3.3-25.2,8.8-36.1,16.6	c-8,5.7-15.5,12-22.9,18.3c-21.1,18-36.7,39.7-45.3,66.5c-5.3,16.5-7.5,33.3-8.5,50.6c-1.4,24.3,3.9,46.7,15.7,67.6	c10.9,19.4,25.9,35.7,40.7,52.1c12.3,13.8,20.5,29,17.1,48.6c-3.4,19.3-12.1,34.3-31.3,41.3c-48.1,17.7-70.7,26.5-107.4,61.4	c-33.5,31.8-71.9,58.5-113.4,78.7c-27.1,13.2-55.4,23.6-83.4,34.7l87.2,184.9c4.4-1.9,8.9-3.8,13.3-5.7c10.3-4.3,20.9-8.1,31.2-12.4	c24.8-10.3,48.9-22,69.2-40.3c2.8-2.5,6.3-4.5,9.7-6.2c4.8-2.4,9.7-0.8,12.2,3.7c2.4,4.3,0.9,9.3-3.6,12.3c-2.8,1.8-5.6,3.5-8.1,5.7	c-16.5,14.1-35,25.1-54.7,34c-7.5,3.4-14.9,6.9-22.5,10.3c-4.1,1.8-4.9,4.3-3.8,8.7c5.6,21.9,10.8,43.9,16,65.9	c7,29.5,14.1,59,21,88.5c5.5,23.7,12.4,47.2,15.9,71.2c3.5,23.3,2.1,46.9-7.1,69.3c-19,45.9-33.4,93.3-46.2,141.3	c-1.7,6.5-1.2,11.9,2.5,17.4c6.4,9.4,12.3,19.2,19.1,28.3c9.7,12.9,0,40.3-18.2,41.3c-5.5,0.3-11-0.5-17.3-0.8	c-0.1,1.6-0.2,3.5-0.3,5.4c-1.2,17,3.1,33.4,4.9,50.1c2,19.1,1.8,38.5,8.6,56.9c0.5,1.2,0.1,3.3-0.7,4.4	c-4.3,6.6-8.6,13.2-13.4,19.5c-6.7,8.8-14.2,16.9-20.5,26c-18,25.9-35.9,51.9-53.2,78.2c-20,30.3-37.4,62.1-52.4,95.3	c-15,33.2-30.7,66.1-45.3,99.5c-16,36.5-40.6,66.2-70.3,91.9c-12.1,10.5-25.8,19.2-38.8,28.8c-27.2,20.1-54.3,40.3-81.6,60.4	c-19.7,14.5-35.9,32.6-49.4,52.7c-12.9,19.3-24.6,39.4-34.5,60.7c-19.4,41.6-40.9,82.2-67,120.2c-9.9,14.4-21.5,27.1-34.1,39.1	c-13,12.4-29.5,18.7-44.2,28.1c-4,2.5-8.3,4.6-12.6,6.4c-12.6,5.2-24.3,11.8-34,21.4c-9.6,9.5-17,20.5-19.8,34	c-3.2,15.5-2.3,31,3.1,45.6c7.7,20.8,11.3,42.4,14.2,63.9c2.2,16,0.9,32.5,1.2,48.8c0.4,20.3,1.3,40.6,5.4,60.6	c5.7,28,15.4,54.3,32.8,77.2c3.2,4.2,7.2,8.2,11.6,11.2c11.8,8.2,25.3,8.5,38.9,7.4c2.2-0.2,4.7-1.6,6.5-3.1	c8.9-7.6,8.2-22-2.2-30.2c-8-6.3-11.7-13.6-10.6-23.5c0.1-1-0.1-2.1-0.2-3.1c-0.2-19.8-0.4-39.5-0.4-59.3c0-6.6,0.3-13.3,1.1-19.9	c3.1-26.8,8.8-52.8,21-77.2c8.9-17.9,17.8-35.8,30.4-51.5c14.5-18,29.4-35.7,44-53.7c20.1-24.8,39.8-49.9,60-74.5	c16.1-19.6,31.9-39.6,49.6-57.8c17.9-18.4,35.8-36.8,55.1-53.8c10-8.8,18.9-18.8,28.3-28.2c6.9-6.9,13.9-13.8,20.9-20.7	c14.6-14.6,28.3-30.4,44.1-43.6c37.8-31.8,76.9-62.1,115-93.6c14.6-12,28.4-25,41.8-38.4c21.1-21,34.9-47.3,49.6-72.8	c20.3-35.3,45.1-66.6,77.3-91.9c12.6-9.9,23.9-21.6,35.3-33c18.4-18.5,37.3-36.6,54.5-56.2c20.6-23.6,36.7-50.4,51.3-78.1	c9.2-17.5,17.3-35.6,25.6-53.5c1.6-3.4,3.3-4.3,6.9-3.3c9.6,2.6,19.3,5.6,29.1,6.9c30.2,4,60.4,8.3,90.7,10.7	c30.8,2.5,61.6,2.2,92.2-3c25.9-4.4,51.6-10,77.7-12.9c21-2.3,42.4-2.5,63.5-1.2c19.8,1.2,38.3-2.2,56.5-9	c10.5-3.9,20.8-8.5,31.3-12.4c5.5-2,10.3,0.5,12,5.3c1.7,4.8-0.3,9.4-5.3,11.6c-24.4,10.4-48.9,20.2-75.3,24.3	c-2,0.3-4.3,1.7-5.5,3.3c-14.2,18.4-29.8,35.8-41.4,56.2c-7.3,12.8-16.5,24.4-20,39.1c-7.9,34.1-16.1,68.2-23.6,102.4	c-6.2,28.6-12.8,57.1-24.6,84.1c-5.8,13.3-11.6,26.7-16.1,40.5c-7.4,22.8-16.4,44.8-28.3,65.5c-15.4,27-34.4,51.5-53.5,76	c-17.3,22.2-14.8,43.9,3.2,64.2c15.6,17.7,35.6,28.2,58.5,32.9c28.2,5.8,53.7,17.8,77.5,34c16.8,11.4,33.9,22.6,51.8,32	c26.6,13.9,55.1,15.6,83.8,7.6c12.5-3.5,24.9-6.7,38-7.5c16-1,22.8-14.1,14.9-28.2c-6.2-10.9-16.3-16.9-28.3-19.2	c-18.5-3.4-35-11.4-50.6-21.3c-11.5-7.3-22.1-16-32.6-24.8c-12-10-24.2-19.9-34.8-31.2c-10.7-11.4-19.1-24.9-20.6-41.1	c-1.6-17.2-0.1-34.4,4.6-51.1c5-17.7,10.7-35.2,17.2-52.3c4.2-11,9.6-21.9,15.9-31.8c15.4-24.2,31.3-48.2,47.8-71.7	c13.2-18.7,26.8-37.3,41.9-54.6c22.7-25.9,41.9-53.9,57.9-84.3c12.1-23,24.1-45.9,36.2-68.9c0.7-1.4,1.6-2.8,2.6-3.9	c10.5-11.8,20.7-23.8,31.7-35.1c7.8-8,14.4-16.6,19.1-26.8c4.4-9.5,8.7-19.2,13.8-28.3C2295.6,2082.7,2298.5,2069.3,2296.2,2055.3z M1718.4,1472.3c-0.9,0-1.8,0-2.6,0c0,0.2-0.1,0.5-0.1,0.7c-9.9-1.9-20.1-3.1-29.8-6c-22.4-6.8-45.1-13.3-65.3-25.6	c-7.4-4.5-14.7-9.5-21.5-15c-5.3-4.2-5.6-9.7-2-13.8c3.5-4,8.8-3.9,14,0.3c16,12.6,33.9,21.5,53.2,27.9	c15.5,5.1,30.8,10.6,47.1,12.4c2.4,0.3,4.9,0.5,7.3,0.7c6.7,0.6,10.8,4.1,10.7,9.3C1729.2,1468.6,1725,1472,1718.4,1472.3z M1746,940.9c-6.2,11.5-18.7,16-31.5,11.9c-12.6-4.1-21.9-12.1-29.5-22.6c-13.6-18.9-20-39.7-14.5-62.9c4-16.8,10.5-23,25.2-25	c10.4-1.4,20.9,2.5,29.4,9.3c4.4,3.5,8.4,7.9,11.5,12.6c2.9,4.5,1.1,9.4-2.9,11.9c-4.4,2.7-9.6,1.8-12.9-2.9	c-4.9-7.1-11.6-11-20-12.1c-6.3-0.8-9.1,1.1-11.2,7c-0.5,1.5-1.2,3-1.3,4.5c-0.3,3.8-0.4,7.7-0.7,13.4c0.4,19,9.8,35.1,26.8,46.6	c8.1,5.5,10.3,4.7,17-2.3c3.6-3.7,8.5-4.3,12.4-1.5C1747.5,931.6,1748.4,936.4,1746,940.9z" style="fill:#ffa1af"/><polygon points="727.1 1449.3 619.4 2125.4 1763.6 2301.8 1878.9 1641.8" style="fill:#0185d0"/><g><g><path d="M730.3,1512.7c-0.3-0.4-1.5-2.2-2.8-4.1l2.5,7.3C730.2,1514.9,730.3,1513.8,730.3,1512.7z"/><path d="M1691.7,1749c0-0.1,0.1-0.2,0.1-0.4c-0.1,0.1-0.1,0.1-0.2,0.2L1691.7,1749z"/><path d="M1484.8,1804.2C1484.8,1804.6,1484.8,1804.6,1484.8,1804.2L1484.8,1804.2z"/><path d="M1684.9,1753.8c-5.7,6.6-14.5,7-15.7,22.1c1.9,0.3,3.5,0.5,5,0.6c3.4,0.3,7.3-5,7.1-9.3c-0.1-1.9,0.6-4.1,0.9-6.2 c1.2,0.7,2.8,0.7,3.5,2.2c1.6,3.3,2.8,7.3,4.1,11c0.6-0.4,1.2-0.7,1.8-1.1c0-7.9,0.1-15.9,0.1-23.8 C1689.6,1755.7,1687,1755.9,1684.9,1753.8z"/><path d="M1691.8,1749.1c0,0-0.1-0.2-0.1-0.2c0,0.2,0,0.3,0,0.5C1691.7,1749.3,1691.7,1749.2,1691.8,1749.1z"/><path d="M1660.3,1766.3c-4.9,7.2-10.3,9.7-16,11.5c-1.5,0.5-2.9,3.6-4.3,5.5c0.5,1.1,1,2.1,1.5,3.2c2.3-2.4,4.5-4.8,7.3-7.7 c0.3,3.4,0.7,6.5,1.1,11.1c2.6-5.9,4.9-11,7.1-15.9c1.3,1.7,2.4,3.2,3.7,4.8c1.2-3.9,2.2-6.8,3.1-9.7c0.8,2.6,0.8,4.5,0.7,6.5 c-0.1,2-0.2,4.1-0.4,6.1c1.7-3.1,2.6-6.5,2.6-9.8C1666.8,1766.2,1662.9,1762.6,1660.3,1766.3z"/><path d="M738.1,1442.4C738.1,1442.4,738,1442.3,738.1,1442.4C737.9,1442.6,737.9,1442.7,738.1,1442.4z"/><path d="M1239.9,1936.4c2.1-3.5,4.7-8.3,7.7-12.4c0.3-0.5,2.3,3.1,3.8,5.1c-1.7,2-2.7,3.1-3.6,4.2c0.1,0.7,0.3,1.3,0.4,2 c3.8-2.8,7.5-5.9,11.3-8.1c2.3-1.3,4.8-1.3,7.8-2c0-0.1,0-1.8,0-3.6c2.5,0.3,5,0.7,7.8,1c-0.2-1.4-0.3-2.6-0.6-4.6 c9.9,0.3,20,4.9,29.2-12.6c0.1,3.9,0.1,5.9,0.2,8.4c2.6-3.7,4.3-9.4,7.8-3.4c1.6,2.8,5.8,0,6.2-5.8c2.2-0.5,4.2-1,7-1.7 c-0.1-0.4,0.2,1.5,0.7,4.3c8-15.5,17.2-17.7,27.2-17.3c1.4-2.7,3.6-6.8,6.6-12.5c-0.1,5-0.2,7.8-0.2,9c4.7-2.3,9.6-6.7,14.1-6.2 c5.2,0.5,7.3-7.3,11.5-9.2c-0.5,2.4-1.1,5.3-1.7,8.1c0.3,0.5,0.6,1.1,0.9,1.6c1.6-2.2,3.3-4.3,4.8-6.6c1.8-2.8,3.6-5.8,5.4-8.7 c1.1,2.7,2.1,5.4,3.6,9.2c2.1-2.7,4.4-5.6,7.1-9c0.4,3.1,0.7,5.6,1.2,9.1c1.9-5.9,3.6-11,5.2-16c0.5,0.1,1,0.2,1.6,0.2 c0.2,3.5,0.4,7,0.7,11.1c2.5-1.3,7.7,5.1,8-9.5c0.1-4.9,2.6-3,3.5,0.5c0.3,1,0.7,2,1.2,3.4c3.8-4.7,9.8-0.8,11.2-12.5 c1.4,2.5,2.8,5.1,3.8,6.9c7.3-6,13.8-13.4,21.2-7c0.5-4.1,0.9-7.2,1.2-10.2c2.1,10.5,7.4,4.7,12.1,5.3c0.1-3.6,0.2-6.9,0.3-10.5 c3.2-1.5,5.2-1,4,6.6c0.6-2.5,1.2-5.1,1.6-6.7c3.1,2.5,6.2,5.1,9.7,7.9c1.2-5.5,2.2-10.1,3.4-15.1c4.6,2.2,9.1,7.2,14.4-0.8 c0.8-1.2,2.7,0.2,3.5,0.3c2.2-4.3,4.1-8.3,6.1-12.3c0.4,0.6,0.8,1.1,1.1,1.7c-1.1,2.1-2.2,4.2-3.3,6.5c8.8,6.2,11,5.3,18.3-7.2 c0.7-1.1,2.1-2.6,2.4-2.2c6,6.3,12.7-2.2,18.9-2.9c8.1-1,16.5-9.9,24.7-15.6c0.6-0.4,0.9-2.8,1-3c2.6,0.8,5.1,3.1,7.1,1.9 c6.3-3.8,9.2,1.9,12.3,9.4c-1.3,1.6-2.6,3.1-3.8,4.6c0.4,0.7,0.8,1.4,1.1,2.1c1.4-2.6,2.8-5.3,4.6-8.6c0.5,0.1,1.9,0.2,3.2,0.4 c0.2-2.5,0.6-5.1,0.6-7.6c-0.1-5.1-0.3-10.2-0.5-14.5c3.6,2.9,6.6,5.3,9.3,7.5c1.1-5.1,1.9-8.8,2.9-13.4c1.6,2.9,2.5,4.5,3.6,6.4 c0.7-4.1,1.3-7.4,2.2-12.8c2.6,10.5,6.3,7,9.9,2.9c2.3-2.6,4.7-7.5,5.6-1.2c3.1-1.9,5.6-4.3,8.2-4.7c2.7-0.4,4.6-1.4,7.1-4.5 c2.2-2.7,5.9-1.2,10-1.7c6.2-12.9,9.2-15.5,12-11.3c5.8-2.1,10.5-3.9,15.9-5.9c-0.4,1.6-0.9,3.8-1.4,6.1c2.7-3.3,5.3-6.5,8.7-10.7 c0.2,0.2,1.7,1.6,4.4,4c-3.6,3.1-6.2,5.3-8.3,7.1c-0.9,7.2-1.7,14-2.5,20.7c0.4,0.1,0.8,0.3,1.2,0.4c1.9-4.5,3.8-9.1,5.7-13.6 c1.1,2.1,2.1,3.9,3.6,6.7c0.8-8.9,2.8-9.7,6.4-8.5c2.5,0.8,4.9,3,8.6-1.9c3.3-4.3,8.9-2.1,13.4-4c3.9-1.6,7.6-4.9,11.4-7.5 c0.6-0.4,1.4-2.2,1.7-1.9c4.4,4.3,7.7-4.2,11.5-5.8c0.5-0.2,1-0.1,1.5-0.4c2.4-1.3,5.7-1.4,7.1-4.3c2.9-6,5.1-4,7.9-2.6 c2.9,1.5,5.8,3.7,8.5-3.8c1.1-3.1,4.1-4.9,6.4-6.3c2.2-1.4,4.7-0.6,6.7-2.3c3.6-3.2,6.9-7.3,10.4-2c0.3,0.5,2-0.4,2.5-1.4 c3.5-6.5,6.8-13.2,10.8-21.1c-0.2,4.9-0.5,9.4-0.7,14.5c3.4-2.2,6.9-4.5,10.5-6.5c0.3-0.2,0.8,2.3,1.6,4.5 c4.9-12.5,11.6-12.3,18-12.1l29.1-20.4c0.3-6.4,0.6-12.7,0.8-19.1c-14.5-1.5-27-3.3-27-3.3c-0.7,5.8-1.1,9.6-2,16.7 c-1-6.1-1.6-10-2.2-13.8c-0.5,1.4-1,2.8-1.5,4.1c-2.2,1.1-4.5,2.2-6.7,3.4c-1.4,0.8-3.3,1-4.2,2.6c-4.4,8.2-5.8,3.6-6.9-3.9 c-1.7,1.6-3.4,3.2-5.5,5.2c-3.2-9.5-9-3.8-13.2-1.2c-5.3,3.2-11.5,0.8-15.9,10.3c-0.1,0.2-0.4,0.5-0.5,0.4 c-7.5-7-13.9,7.5-20.9,8.2c-1.7,0.2-3.3-0.5-5-0.6c-0.7,0-1.8,0-2,0.5c-5.4,18.5-12.5,0.2-18.5,6.9c-0.8,2.8-1.5,5.6-2.3,8.3 c-5.4-3.2-11.8,2.1-14.7,13.2c-0.5-4-0.8-6.8-1.2-10c-5.2,5.4-10.4,10.8-16,16.6c-0.3-3.1-0.5-5.2-0.7-7.5c-0.7,0.8-1.4,1.2-1.6,2 c-1.9,7.6-5.2,10-8.9,8c-4.3-2.3-7.7,0.4-11.4,5.2c-1,1.3-2.9,2.7-3.6,2c-3.4-3.9-6.1-1.2-9.1,3.5c-0.8,1.2-2.5,0.5-3.7,0.6 c-0.1-0.9-0.1-1.7-0.2-2.6c-2.3,3.3-4.5,7.4-7,9.5c-1,0.9-2.9-2.6-5.2-4.8c-4.9,4.4-10.9,14-18.6,8.9c0,1.5,0,2.8,0.1,4.1 c0.1,1.1,0.2,2.2,0.4,4.3c-2.7-3.5-4.9-6.4-7.1-9.3c-0.4,0.6-0.8,1.2-1.2,1.9c0.1,2.9,0.2,5.8,0.3,11.2c-1.7-2.7-2.4-3.9-3.2-5.1 c-0.8-1.2-2.3-3.4-2.5-3.1c-4.9,7.6-10.3,3.5-15.3,5.9c-3.7,1.7-7.2,6.6-11.2,2.7c-0.9-0.9-3.8,3.8-6.6,6.8 c-0.3-0.5-1.2-1.9-2.1-3.5c-1-1.8-2-3.7-3-5.6c-0.8,2.7-1.5,5.4-1.8,6.5c-5.9,2.7-11.4,5.4-16.9,7.7c-1,0.4-2-0.6-3-0.9 c-1.4-0.4-2.7-1.1-4.1-0.9c-2.2,0.3-4.5,1.2-7.4,2.1c-0.3,7.8-4.1,5.7-8.3,6.7c-6.6,1.5-13.3,5.7-19.9,8.7 c-1.3,0.6-2.8,2.2-3.9,1.7c-6.4-2.6-9.9,3.9-12.8,16.2c-0.7-5-1.1-7.7-1.5-10.4c-0.4,0-0.7,0.1-1.1,0.1c-0.1,1.7-0.2,3.4-0.3,4.7 c-7,3.3-13.9,6.6-21.2,10.1c-0.2,1.1-0.6,4-1.1,6.8c-0.4,0-0.7,0-1.1,0c-0.2-1.9-0.3-3.9-0.7-8.4c-0.4,2.1-0.7,3.4-0.8,4l0,0 c0,0.1,0,0.1,0,0.2c-0.1,0.3-0.1,0.3,0,0c0,0,0-0.1,0-0.2c-5.3,1.6-9.9,3-15.3,4.7c-0.4,1.9-1,5.5-1.7,9c-5.8-4.6-7.6-8.7-11.7,5 c-1.5-3.2-2.9-7.5-5.6-0.4c-0.4,1.2-2,1.5-3,1.8c-4.9,1.2-9.8,2-14.6,3.5c-1.1,0.3-2.6,2.3-3.3,4.1c-2.9,7-5.7,8.4-9.3,3.9 c-0.9-1.1-3.6-0.2-4.4,1.4c-3.6,7.5-7.7,7.7-12.3,7.6c-2.3,0-4.9,2.9-7.2,4.9c-3.9,3.3-7.6,7.1-12.2,11.4 c-0.5-1.1-1.6-3.6-2.9-6.5c-4.2,6.5-8.2,8.9-10.8-2.9c-5.2,18.1-14.3,15.5-23.4,18.6c0.8-5.6,1.7-11.7,2.6-18.1 c-0.7,0.3-2.4,0.8-3.2,1.1c-1.4,6.4-2.7,11.7-3.9,17c-0.4-0.2-0.7-0.3-1.1-0.5c-0.6-4.9-1.2-9.7-1.8-14.5 c-5.4,2.6,0.4,15.5-6.1,15.3c-0.6-3.7-1.3-7.2-1.9-10.7c-0.8,0.5-1.6,0.9-2.4,1.4c0.1,5.4,0.2,10.9,0.3,18.4 c-1.8-2.4-2.7-3.6-3.7-5c-1.1,2-2.2,4-3.2,6c-0.4-0.5-0.8-1-1.2-1.5c1.2-2.8,2.5-5.6,3.6-8.5c0.6-1.6,1.2-3.5,1.2-5.2 c0-0.9-1.4-2.5-1.8-2.2c-0.8,0.6-1.5,2.3-2.1,3.8c-1.4,3.9-2.7,7.8-4.5,12.9c-0.4-10.2-3.5-11.9-8.1-8.4 c-0.6,3.4-1.1,6.7-2.2,12.9c-1.7-6.1-2.7-9.5-3.6-12.8c-2.7,1.4-5.5,2.8-8.6,4.4c0.2,1.2,0.4,2.6,0.9,5.9c-2.5,0-5-0.8-7.4,0.1 c-2.2,0.9-6.2-1.9-6.4,7.4c-1.1-1.7-2.3-3.4-3.7-5.5c-0.6,2.4-1,4.3-1.7,7.4c-1.3-2.7-2.2-4.7-3.2-6.8c-4.3,9.8-7.1,10.7-10.1,3.4 c-9.8,13.4-15.3,16.7-16.9,13.5c-5.8,0.9-10.1,1.3-14.4,2.3c-1.3,0.3-2.5,2.1-3.8,3.2c-0.9,0.8-1.9,1.4-2.8,2.2 c-1.9,1.7-3.8,3.6-6.2,5.9c0-0.1-0.3-2.4-0.8-5.9c-3,10-6.2,8.3-10.2,5.4c-3.4-2.5-7.6-2.1-11-4.5c-2.4-1.7-4-6-5.9-9.3 c-0.5-0.9-1-3.2-1.4-3.1c-3.8,1.7-7.9,5-9.3-4.2c-4.5,2.9-4.2-8.9-8.7-7c-1.6,0.7-3.4-1.6-5-2.8c-2.6-1.9-5.1-4.1-7.6-6.1 c0.3-1.1,0.6-2.2,0.9-3.3c1.1-0.1,2.2-0.3,3.3-0.4c0-0.6,0.1-1.2,0.1-1.8c-3.4-0.1-6.8-0.2-10.6-0.4c0-2.5,0.1-5.3,0.2-9.3 c-1.3,1.9-2.4,3.4-3.2,4.6c-2.1-3.9-4-8-6.3-11.4c-0.7-1.1-2.5,0-3.4,2c-2.1-2.9-4.2-5.9-7.3-10.1c-0.6-6.3-0.6-6.3-15.8-15.8 c0.8-7.1-4.5-10.9-10.7-7.6c-4.7-7.5-9.5-15.1-14.5-23c-0.2,2-0.5,4-0.8,6.6c-5.5-6.2-8.7-17.7-17.7-12.3c1.4-4.5,2.1-6.8,2.9-9.1 c-0.2-0.5-0.5-1.1-0.7-1.6c-1.8,1.7-3.6,3.3-6.4,6c-2.2-2.9-4.9-6.5-7.6-10.1c-0.7-0.9-1.4-2.3-2.2-2.6 c-6.6-2.4-11.7-8.5-15.9-17.3c-0.5-1.1-1.5-2.1-2.4-2.1c-10.2,0.1-16.2-12-23.6-20.1c-1.5-1.6-4.2-0.2-5.6-2 c-2.6-3.4-4.6-8-7.3-12.9c-9.5,3.3-11.3,1.6-11.9-8.4c-6.3-5.4-11.4-9.8-16.5-14.3c-0.3-0.2-0.5-1-0.5-1.5 c-1.4-11.1-2.1-11.7-6.7-8.3c-5.3-6.1-10-11.4-14.6-16.9c-1.4-1.8-2.5-4.4-3.4-6.1c-2.7-1.4-5.4-2.3-7.9-4.1 c-2.3-1.7-4.4-4.3-7.2-4.8c-0.6-2.8-1.2-5.7-1.8-8.5c-0.4,0.3-0.8,0.6-1.3,0.9c0.3,2.2,0.5,4.5,0.8,6.7c-0.6,0.6-1.2,1.3-1.7,1.9 c-1-3.1-1.9-6.4-3.1-9.1c-1.3-2.8-2.7-5.5-4.5-7.3c-3.8-3.8-7.9-6.8-11.8-10.6c-3.4-3.3-6.5-7.3-9.9-10.7 c-0.1-0.1-1.3,2.9-1.2,2.6c-4.2-6.1-7.4-11.5-11.1-15.7c-3.8-4.3-9-5.8-12-11.3c-3.7-6.8-9-7.8-13-13c-1.5-2-3.8-2.5-5.9-3 c-3.4-0.9-4-3.7-1.7-8.2c-1.9-2.7-3.7-5.2-5.4-7.7c-2,7.2-5,5.7-6.7,1.3c-4.6-12-12.6-15.8-19-23.1c-0.8-1-2.4-0.4-3.6-0.3 c-5.2,0.5-6.1-2.2-3.5-10.9c-8.4,1-13.6-8.3-19.6-15c-4.6-5.2-8.3-12.4-13.1-17.1c-3.8-3.8-8.6-5-12.9-7.8c-3.4-2.3-6.7-5.3-10-8 c0.3-1.2,0.6-2.4,0.8-3.7c2.3,1,4.5,2.2,6.8,2.8c0,0-26.2-20.5-48.1-35.8c-0.5,0.7-1.2,1.4-2.1,1.9c-2.8,1.5,1.4,14.7-5.6,12.7 c-0.6,7.5-0.8,14.9-1.5,22.2l12.3,23.1c0.3-0.6,0.6-1.2,0.8-1.8c2.8,1.1,5.9,1.4,8.4,3.4c2.1,1.6,4.1,4.4,5.3,7.8 c3.1,9,10.1,6.3,13.9,12.8c0.5,0.9,2.7-1.7,3.8-1.2c1.4,0.7,2.4,2.8,3.5,4.4c0.5,0.7,0.7,2.1,1.3,2.5c4.7,3.5,9.4,6.8,14.7,10.7 c0,1.3,0.1,4.1,0.2,6.9c0.4,0.3,0.7,0.6,1,0.9c4.1,3.1,8.9,4.8,12.1,9.7c5.4,8.4,12.6,10.1,18.8,15.2c4.7,3.9,8.9,9.6,13.4,14.3 c3.5,3.8,6.9,8.1,10.8,10.6c2.1,1.4,4,0.4,4.7,6.1c0.5,4.1,4.9,9.8,6.1,8.7c5.7-5.5,6.1,5.2,9.5,6.3c2,0.7,3.6,3.2,5.4,4.9 c1.3,1.2,2.6,2.5,3.9,3.7c-1.5,1.6-3,3.4-4.5,4.7c-0.6,0.5-1.4,0-2.1,0c-1.1,5.8-2.1,11.3-3.1,16.6c1.5,1.6,3,2.5,4,4.4 c2,3.8,3.5,3.2,5.6-1.4c1.5-3.2,3.9-5,5.9-7.5c0.3,0.8,0.5,1.5,0.8,2.3c-1.4,1.8-3,3.2-4,5.4c-3.3,6.6-2.2,10.6,2,13.3 c5.4,3.5,10.5,8.5,15.7,12.8c0.3,0.3,0.7,1.2,0.8,1c5.1-4.1,7.9,5.4,12.6,4c1.6-0.5,3.2,2.1,4.9,2.6c1.7,0.4,3.5-0.1,6.1-0.3 c-1.6,3.2-2.5,5.1-3.5,7.3c0.5,0.5,0.9,1.5,1.3,1.3c1.1-0.7,2.2-1.8,3.3-2.7c0.1-1.1,0.2-2.3,0.3-3.4c6.9,6.8,13.7,13.5,20.9,20.6 c0.3-1.3,0.9-3.7,1.6-7c1.1,1.4,2.3,2.2,2.9,3.7c1.7,4.3,2.3,10.8,7,8.7c0.5-0.2,1.4,4.9,2.2,8.2c3.2-3,7.7-10.2,8,2.9 c9.2-3.4,14.6,5.5,20.5,13.1c1.4,1.8,3.1,3.2,4.7,4.6c1.6,1.5,3.3,2.9,5,4.3c0.7,0.6,1.4,1.5,2.2,1.4c5.6-0.6,5.6-0.7,6.6,9 c10.5-7.5,15,3.6,19.1,16.2c1.4-2.7,2.8-5.4,5-9.7c0.9,16.4,0.4,17.6-5.1,15.9c1.5,5.4,13.2,10.2,16.2,6.3 c2.7,7.4,5.4,14.8,8.1,22.3c0.3-0.8,0.6-1.6,0.9-2.5c1.9,1.5,3.7,3.9,5.7,4.2c5,0.8,7.6,13,14.2,6.5c1-1,2.5-0.2,2.8,1.6 c2.1,4.1,4.1,8.1,6.3,12.4c2-4,3-5.9,4.8-9.6c2,16.1,7.2,22.3,17.6,15.1c-1.5,3.9-2.1,5.5-2.7,7c8.2,5.6,14.5,25.1,26.5,4.7 c1.5,1.6,3.2,3.4,4.8,5.3c-0.2,0.6-0.3,1.1-0.5,1.7c-1.2-0.5-2.4-1-3.6-1.6c-1.9,4.4-3.8,8.8-5.7,13.2c3.3-1.5,6.8-11.6,7.7,1.8 c0.1,0.9,3.9,0.5,6,0c2.6-0.6,4.1-0.2,3.5,5.5c-0.1,0.6,3.2,1.6,4.9,2.3c1.5,0.6,3.3,0.5,4.4,1.9c1,1.2,1.1,4.1,1.7,6.2 c1.1-2.1,2.2-4.1,3.8-7.1c0.2,11.6,3.6,14.7,9.6,16.7c3.8,1.3,10.6-2.4,12.4,8.7c0.2,1.2,3.8,0.8,5.7-0.1c4.1-2,5.1,1.8,5.9,7.3 c0.3,2.2,1.9,3.5,4,6.9c0.5-5.8,0.7-8.5,0.9-10.9c3.8,4.8,7.5,9.5,11,13.9l24,21.1L1239.9,1936.4z"/><path d="M1484.9,1804.1L1484.9,1804.1c0,0.1,0,0.1,0,0.2C1484.9,1804.2,1484.9,1804.1,1484.9,1804.1z"/></g><path d="M837.2,2002.6C837.2,2002.6,837.2,2002.6,837.2,2002.6C837.1,2002.4,837.1,2002.5,837.2,2002.6z"/><path d="M668,2056.4l-5.1,10.3c2.2-2.9,4.1-4.8,5.4-7.6C668.5,2058.6,668.4,2057.6,668,2056.4z"/><path d="M1569.1,2072.3c0.7,3.9,0.7,9.3,2.3,11.4c1.1,1.5,4.2-1.4,6.4-2.4c-2.4-3.4-4.9-6.8-7.3-10.1 C1570,2071.5,1569.6,2071.9,1569.1,2072.3z"/><path d="M1541.7,2053.2c0.5-4,0.8-7.1,1.3-11.3c-3.4,3.4-5.9,5.9-9,9c2.7,4.3,4.7,8.2,7.1,11.1c0.8,1,2.6-0.2,4-0.5 c-0.4-2.1-0.7-4.4-1.3-6.2C1543.3,2054.2,1542.3,2053.8,1541.7,2053.2z"/><path d="M1548.2,2051.2c3.3,1.8-5.2,20.4,6,11c-1.3-4.5-2.6-9-3.9-13.5C1549.5,2049.5,1548.8,2050.4,1548.2,2051.2z"/><path d="M1605.6,2097.1c-1.6-1.5-3.9-1-5.9-1.4c0.5,3.1,0.5,8.1,1.7,9c2.8,2,6.2,2,10.4,3C1608.9,2102.7,1607.5,2099,1605.6,2097.1 z"/><path d="M1577.9,2081.5L1577.9,2081.5c2,6.3,4.6,9.8,9.2,5.9c-2.6-4.4-5-8.6-8.2-14.1C1578.6,2075.8,1578.3,2078.6,1577.9,2081.5z"/><path d="M1577.8,2081.3c0,0.1,0.1,0.1,0.1,0.2C1577.9,2081.4,1577.9,2081.3,1577.8,2081.3 C1577.8,2081.3,1577.8,2081.3,1577.8,2081.3z"/><path d="M1114.9,1860c-1.1,0.7-1.9,3.2-3.5,5.9c-4.9-5.8-10.5-6.6-17.2,2.6c-2.2,3-6.7,0.3-10.4,0.3c-0.4,3.4-0.7,5.8-1,8.1 c-0.3,0.1-0.7,0.2-1,0.3c-0.2-2.7-0.4-5.5-0.6-7.5c-7.3,5-14.2,10.1-21.2,14.3c-2.1,1.2-4.9-2.1-6.7-0.4c-4.9,4.8-8.9,1-13.2,1.8 c-6,1-12.1,7.1-18.5,11.2c0-0.9-0.1-2.1-0.1-2.5c-6.2,3.5-12.3,6.8-18.3,10.3c-5.3,3-10.6,6.1-15.8,9.4c-2.3,1.4-4.5,4.3-6.7,5.1 c-5,2-10.6,1.1-15,5.2c-3.7,3.3-6.4,8-10.4,4.4c-0.7-0.6-2.8,3-4.2,4.7c-4.5,5.6-8.9,11.2-14.4,9.4c-0.7-0.2-1.7,1-2.6,1.7 c-2,1.7-4,3.2-5.9,5.3c-1.1,1.3-2,3.6-3.7,6.8c-1.5-0.3-4.3-1-7.8-1.8c-0.1,3.2-0.2,6.2-0.4,11.2c2.2-3.4,3.3-5.2,4.8-7.6 c0.2,4.4,0.4,8.1,0.5,12.4c-2.6,1.2-5.3-4.8-8.2,1.8c-0.4,0.9-5.1,2.3-5-4.8c0-1.4-1.4-3-2.3-3.6c-0.6-0.3-1.9,0.9-2.4,2 c-4.8,11.3-9.7,14.6-16.5,11c-0.5-0.3-0.9-0.5-1.5-0.9c-0.5,3.4-1,6.6-1.8,11.6c-2.1-2-3.6-4.6-5.4-4.8c-1.8-0.2-3.9,2-6.3,3.4 c-0.2,3.9,0.4,9.9-4.7,4.8c-4.7-4.7-10.1,2.7-15.2,5.8c-4.5,2.8-9.1,4.9-13.7,6.8c-0.6,0.3-1.4-1.1-1.5-1.5 c-2.9,1.9-4.8,3.5-6.6,4.2c-5.1,1.9-10.6,1.3-13,14.2c-1.1-4.1-1.4-8.1-2.3-8.2c-3.8-0.6-7.8-0.1-11.7,0c0.2,1.9,0.3,3.8,0.5,5.7 c-2.6,1.2-5.4,2.4-8.2,3.7c0.1-0.6,0.1-1.3,0.2-1.9c-2.3,0.1-4.8-0.9-6.9,0.5c-3.7,2.5-7.1,6.7-10.5,0c-0.6,2.4-0.9,4.3-1.6,5.5 c-0.9,1.7-2,2.9-3.1,4.4c-2.1-10.3-6.2,0.4-9.3-0.2c-3.3-0.6-7.2,2.5-10.9,4.1c-0.7,0.3-1.4,1.3-1.8,2.2c-3.4,6.4-4.9,4.5-5-2.1 c-3.6,3.5-7.1,6.8-10.1,9.6c-1.3-1.6-2.6-4.6-3.8-4.3c-3.9,0.9-8.3,1.7-8.6,11.5c-12.6-6.4-23.5,8-35,12.4c-3.1-2.4-9.5,0-12.6,5.2 c-1.6,2.7-4.1,4.4-6.2,5.2c-2.7,1-5.4,0.7-8.4,1c0.2-3.4,0.4-7,0.5-8.8l-19.8,17.4c0.2,1.9-1,5.3-1.9,7.5c-2.6,6.4-6.1,12.2-7.9,19 c-0.6,2.3-1,4.8-1.3,7.4l28.5-18.2c3.6-6.6,7.7-7.1,11.8-4.3c1.1-2.4,2.1-4.7,3.4-7.7c0.9,3.4,1.6,5.6,1.9,6.8 c2.1-2.1,4.1-5.5,5.2-4.9c7,3.7,11.3-8.7,17-9.9c3.1-0.4,6.1-0.9,9.4-1.3c0.8,5.6,2.3,5.4,5.7,0.1c2.1-3.2,5.6-3.3,8.4-4.8 c0.1,0.9,0.2,1.7,0.4,2.6c1.6-1.8,3.2-3.7,5.1-5.9c0.9,3.5,1.6,6.4,2.4,9.9c1.1-3.9,1.9-7,2.3-8.4c3.6-2.5,6.6-4.5,10.1-7 c0.4,0.5,1.4,2.1,1.9,2.9c-1.1,3.6-2,6.4-2.9,9.2c0.5,0.5,0.9,0.9,1.4,1.4c1.2-2.1,2.3-4.2,3.5-6.5c0.5,2,1,3.9,1.5,5.7 c0.5-0.4,0.9-0.8,1.4-1.2c-1.1-5.2-2.3-10.4-3.8-17.7c7.9,2.4,14.7,4.5,21.5,6.7c0.2-0.8,0.8-3.8,1.7-7.9c5.4,8,7.5,0.7,9.2-7.9 c5.1,10.8,11.6,1.4,17.1,0.6c5.3-0.7,10.8-6.6,16.3-9.6c2.4-1.3,4.9-0.9,7.3-1.6c1.6-0.4,3.1-1.2,4.6-2.3c1.2-0.9,2.5-4,3.3-3.7 c5,1.6,9.1-3.4,13.5-7c2.1-1.7,4.9,0.3,7.5,0.6c2.4-0.8,5.4-3.8,8.4-5.4c10.5-5.4,21-10.1,31.4-15.4c6.3-3.2,12.6-7.1,19-10.1 c1.4-0.7,2.9,0.7,5.8,1.6c1.7-6.4,3.6-13.9,5.4-21c0.7,3.8,1.6,8.6,2.6,14.3c2.9-3.7,5-6.4,7-9c1.5,2.5,2.6,4.6,3.7,6.5 c3.6-5.1,6.5-11.1,10-13.9c4.9-3.9,10.2-5.4,15.3-7.9c6.7-3.2,13.4-6.1,20-9.9c1.6-0.9,3-4.9,4-7.9c0.8-2.3,1-5.3,1.4-8 c1.3,0.9,2.6,1.7,3.9,2.6c1.3,0.9,2.6,1.9,4.2,3c-0.3-3.6-0.5-6.4-0.7-10.2c2-1.1,3.8-2.1,5.7-3.1c0,2.8-0.3,5.7,0,8.3 c0.2,2.5,1,4.8,2.2,10.4c3.7-4.3,6.5-7.5,9.2-10.7c1.6,2.6,3.7-1.5,5.5-7.9c0.8,3,1.5,5.2,2.3,8.2c3.5-17.7,3.5-17.7,12.9-16.5 c-1.2,2.1-2.1,3.6-3.1,5.3c2.5,1.9,4.7,3.6,7.6,5.8c0-3.7-0.3-6.8,0.1-9.7c0.5-3.7,1.4-10,2.5-10.6c5.8-3.1,12.8-8.7,17.3-5.7 c4.5,3.1,4.5-3.2,6.5-4.7c0.1,0.8,0.3,1.5,0.4,2.3c2.1-1.2,4.2-2.3,7.1-3.9c0.3,2.7,0.9,6,1.1,9.5c0.1,2.4-0.2,4.9-0.3,7.4 c1.1-2.5,2.3-4.9,3.1-7.6c2-6.4,3.8-12.9,5.4-18.2c2.5,2.3,4,5.1,5.3,4.6c3.2-1.3,6.2-4.4,9.3-6.3c2.5-1.5,5.1-2.6,7.7-3.1 c2.1-0.4,4.9,2.2,6.1,0.4c7.8-11.7,16-3.5,23.8-7.7c1.7-0.9,3.4-1.8,5.1-2.7c1-0.6,2.3-1.9,3.1-1.5c2.6,1.4,5,3.4,7.6,5.2 c0.2-1,0.4-1.9,0.6-2.7l-25.2-23.4C1117.6,1858.3,1116.3,1859.2,1114.9,1860z"/><path d="M1778.4,2267.5c0.1-0.8-14.7-25.9-25.1-23.8c-1.9,0.4-3.8-6.3-5.4-10c-1.5-3.3-7.8-6.5-10-5.1c-1.7,1.1-3.5,1.4-5.3,2.1 c0-3-0.1-5.9-0.1-8.7c-3.8-2.7-7.7-5.5-11.6-8.4c-0.5,2.4-1.3,6.8-2.2,11.2c-1.6-10.1-1.9-20.8-9.3-23.2c-0.2,2.7-0.5,5.3-0.9,9.7 c-2.2-3.9-3.6-6.4-5.2-9.3c0.6-3.1,1.3-6.8,1.9-9.9c-4,0.2-7.9,1.8-10.9-0.1c-2-1.3-2.7-7.5-4-11.5c-0.3-1-0.6-2.5-1.2-2.9 c-5.1-3.3-10.2-6.3-15.2-9.7c-1.1-0.7-1.8-2.7-2.8-3.9c-4.3-4.9-8.3-10.6-13-14.1c-3-2.2-3.4-0.6-2.6-5c-3.1-2.2-5.9-4.1-8.7-6.2 c-1-0.7-2.1-3.1-2.6-2.6c-5.1,4.8-7.4-2.3-10.4-5.3c-4.6-4.5-8.7-10.5-13.3-15c-1.8-1.8-4.4-1.5-6.8-2.3c-0.7-6.5,2.7-10,4.9-7.7 c3.8,4,10.2,0.8,11.8,11.5c0.3,2.3,3.3,2.9,5.4,4.2c2.3,1.8,4.5,4,6.9,5.3c1.7,0.9,3.7,0.6,5.2,0.8c1.3,3.9,2.6,7.9,3.5,10.5 c3.8-3.8,6.3-6.2,9-8.9c-6.2-8.6-12-16.5-17.8-24.6c-4.2,4.5-8.9,2.1-12.1-6.5c-0.8,1.5-1.6,2.9-1.4,2.6c-2.3-3.8-4.1-8.1-6.6-10.5 c-0.9-0.8-3.4,3.1-5.2,4.6c-1.6,1.3-3.3,2.2-6.3,4.3c1.8-6.6,2.7-10,3.1-11.2c-4.4-6.1-8.4-11.6-12.4-17.2 c-0.1,3.2-0.2,6.3-0.2,9.5c-4.4,1.3-6.8,13.2-5.2,24.8c-2-3.7-4.3-7-5.7-11.3c-0.5-1.6,0.6-6.4,1.7-8.6c2.8-5.3,6-9.8,9.1-14.7 c-2.6-1.5-6.8,3.5-7.8-4.9c-0.2-1.4-3.2-1.4-5-1.3c-6.2,0.3-6.3,0.3-5.5-11.4c-1.1,1.1-2,1.8-2.8,2.7c-1,1.1-1.9,2.5-2.8,3.6 c-6.8-12-16-15.5-25.6-20c0.1-0.8,0.5-3.1,1.1-7.7c-5.7,10.7-8.7,8.1-9.9,0.4c-3.5,0.2-6.3-0.1-9.1,0.6c-1.7,0.4-1.8,0.6-2.1-10.3 c-6.2,3.3-6.8,3.1-14.3-5.7c-0.2,4.5-0.4,8.3-0.7,12.2c-0.4,0.2-0.9,0.3-1.3,0.5c-0.2-4.4-0.3-8.7-0.4-12.5 c-5.3-3.3-10.4-6.4-15.9-9.8c0,1.5-0.1,3.7-0.1,6.5c-0.5-0.4-1-0.6-1.3-1c-2.9-3.8-5.8-7.7-8.7-11.3c-1-1.2-2.5-1.4-3.5-2.6 c-2.8-3.5-5.5-4.7-8.1,2.1c-1.4-4.9-2.7-9.4-4.2-14.6c-2,3.4-2.9,5-4.2,7.2c-0.9-3.2-1.7-5.8-2.5-8.4c-2.3,1.7-3.6,0.6-4.5-3.1 c-0.4-1.8-8.1-3.8-9.3-2.4c-0.4,0.6-0.9,1-0.9-1.3c-2.2-0.9-4.3-1.9-6.6-2.8c0-0.5,0.3-3.4,0.7-9.1c-1.9,4-2.5,5.3-2.9,6.2 c-1.6-2.4-3.2-4.8-5-7.6c-1.5,4.2-2.6,7.4-3.5,10.2c-0.7-5.1-1.3-9.8-2.2-16.6c-5.7,14.5-7.8,4.5-10.3,0.6c-1.8-2.8-2.4-7-6.2-3.7 c-1.3,1.2-3.9-3.3-5.9-5.2c0.2-1,0.5-2,0.7-3c-3.1,0.8-6.3,1.5-9.6,2.3c0-3.9,0-7.8,0-11.3c-3.3-4.1-6.4-8-10-12.4 c-0.4,2.3-0.8,4.8-1,6.5c-2-3.4-4.1-7-6.3-10.7c-1,3.3-1.9,5.9-3,9.6c-0.7-4.9-1.2-8.5-1.9-13.1c-1.6,3.6-2.5,5.5-3.4,7.4 c-0.7-1.6-1.4-3.4-2.2-4.9c-2.4-4.4-4.9-8.7-7.4-13.1c-2.3,1.8-5.2,9.3-6.4-0.7c-0.2-1.5-2.2-2.3-3.5-2.8 c-5.5-2.2-7.4-14.6-14.2-13c-0.3,0.1-0.5-3.5-0.7-5.1c-3.4,1.8-6.9,3.7-10.9,5.8c0.6-2.1,1-3.7,1.1-5.1l-32.2,10.6 c1,0.9,2.1,1.7,3.2,2.4c4.5,3,9.4,4.4,15.2,7c0.3-0.5,1.4-3,2.6-5.5c2.7,5.1,4.9,9.1,7.1,13.2c0.2,0.4,0.8,0.3,1,0.7 c4.7,8.2,14.3,2.8,17,16.5c0.1,0.3,0.6,0.2,0.9,0.3c0.6-3,1.2-5.9,1.7-8.8c0.7-0.3,1.3-0.5,2-0.8c0.9,4.1,1.8,8.2,2.7,12.7 c0.9-1.1,2.3-3,4.5-5.9c-0.4,4.6-0.7,7.7-1,10.9c4.6,0.1,10.3-2.7,12.9,1c3.5,5.2,7.8,8.5,11.1,13.8c3.1,5,5.6,8.4,9.2,3.1 c4.6,6.4,8.8,12.3,13.1,18.3c6.7-9.7,4.1,6.2,7.2,7.4c0.6-2.6,1.3-5.3,1.8-7.7c11,0.9-0.4,15.8,3.3,21.6c0.8-1,1.6-2,2.4-2.9 c-0.3-0.9-0.9-1.7-0.9-2.6c0-2.1,0-4.5,0.6-6.3c0.4-1.2,2.2-2.5,2.7-2c0.8,1,1.5,3.2,1.5,5c0,2.4-0.9,5.1-1,7.6 c-0.1,2,0.3,4.4,1.1,5.5c0.4,0.6,2.3-0.4,3-1.6c6.9-12.1,4.7,7.5,8.5,5.9c0,0,0.1,1.1,0.1,1.8c-1.3,1-2.7,1.9-4,2.9 c0,0.7,0.1,1.3,0.1,2c3.3-0.7,6.7-1.4,10.3-2.2c-0.4,3.1-0.8,6.3-1.3,11.1c2.6-3,4.6-5.3,7.1-8.1c-0.5,13.4,6.2,13.2,10,18.1 c4.6,5.9,10.1,10.1,15.6,15.5c6.7-7.3,6.7-7.3,8.5,3c2.9-0.7,5.7-1.3,8.4-1.9c0.8,1.5,1.8,3.8,3,5.6c1.7,2.6,3.5,5.1,5.4,7.2 c1,1.1,2.3,1.5,3.5,1.7c2.4,0.4,5-0.1,7.2,0.9c1.8,0.9,3.3,3.5,5,5.4c0.3,1.4,0.3,5.1,1.2,5.7c6.4,4,12.9,7.4,21.2,12 c-0.3,0,1.1,0.2,2.4,0.2c0.1,0,0.4-1.6,0.6-2.9c-1.2-0.5-2.3-1-4.8-2.2c2.7-2.3,4-3.4,5.6-4.9c0.1,4.7,0.1,7.8,0.2,11 c0.4-0.6,0.8-1.1,1.2-1.7c1.2,1.8,2.3,3.6,3.5,5.4c1.1,1.6,2.1,4.5,3.3,4.5c6.5,0.2,11.4,5.8,16.7,10.5c2.8,2.5,6.3,3,10.7,4.9 c3,3.1,6.9,10.2,11.6,11.1c9.1,1.7,15.2,12.6,23.5,16.4c3.4,1.5,5.8,7.1,9.1,9.3c4.9,3.2,8.4,8.1,9.5,17.6c1.3-3.2,2.5-6,3.3-7.8 c2.1,5.4,3.9,10.2,5.5,14.3c1.6-0.1,4.5-1.4,4.8-0.2c2,9.3,8.4,7.9,11.5,13.9c2.6,5.1,5.1,5.1,8.5,2c0.2-0.2,0.6,0.3,1,0.5 c-0.6,1.9-1.2,3.8-1.7,5.3c5.8,5.4,11.3,10.5,16.8,15.6c0.1-0.7,0.3-1.4,0.4-2.1c2.4,6.6,4.8,13.3,7.5,20.8c1-4.1,1.6-6.3,1.8-7.4 c6.3,8.1,12.3,15.7,17.7,22.7c0-0.6,0.2-2.7,0.4-6.3c3.5,9.1,7.7,12.1,12.8,12.5c1.9,0.1,4.5,1.9,5,4.3c1.6,8.7,4.6,11.4,9.7,7.4 c0.3,2.2,0.2,4.6,0.8,5.3c4.1,4.4,8.4,8.3,12.6,12.7c4.2,4.4,10.3,4.7,12.2,14.1c0.1,0.7,0.2,1.6,0.3,2.5l5.1,2.9 c0.2-0.4,0.4-0.8,0.6-1.2c1.9-3.7,3.7-2.8,5.4,0.7C1770.9,2302.4,1777.7,2274.7,1778.4,2267.5z M1541.1,2062 c-2.4-2.9-4.4-6.8-7.1-11.1c3.1-3.1,5.6-5.6,9-9c-0.5,4.2-0.9,7.3-1.3,11.3c0.5,0.5,1.6,0.9,2,2.1c0.7,1.8,0.9,4.1,1.3,6.2 C1543.7,2061.8,1541.9,2063,1541.1,2062z M1548.2,2051.2c0.7-0.8,1.4-1.7,2.1-2.5c1.3,4.5,2.6,8.9,3.9,13.5 C1543,2071.6,1551.4,2053,1548.2,2051.2z M1577.9,2081.5c0-0.1-0.1-0.1-0.1-0.2c-2.2,1-5.3,3.9-6.4,2.4c-1.6-2.1-1.6-7.4-2.3-11.4 c0.5-0.4,0.9-0.8,1.4-1.2c2.4,3.4,4.9,6.8,7.3,10.1c0,0,0,0,0.1,0C1577.9,2081.3,1577.9,2081.4,1577.9,2081.5L1577.9,2081.5 c0.3-2.8,0.7-5.7,1-8.2c3.2,5.4,5.6,9.6,8.2,14.1C1582.6,2091.2,1579.9,2087.8,1577.9,2081.5z M1601.4,2104.8 c-1.2-0.9-1.2-5.9-1.7-9c2,0.4,4.3-0.2,5.9,1.4c2,1.9,3.3,5.5,6.2,10.7C1607.5,2106.7,1604.2,2106.8,1601.4,2104.8z"/></g><path d="M2176.4,1437.1c-2.7,4-5.3,8.3-7,12.9c-1.3,3.3-1.9,7.2-1.5,10.7c0.7,7.1,6,9.7,12,5.9c3.4-2.2,6.2-5.5,8.9-8.6	c1.9-2,3.2-4.6,4.9-6.8c9.8-12.9,20.1-25.6,29.3-38.9c3.6-5.1,5-11.7,7.4-17.6c-1-9.3-8.1-13.7-15.7-9.1c-2.9,1.8-5.7,4.3-7.6,7	C2196.8,1407.4,2186.5,1422.2,2176.4,1437.1z" style="fill:#ffa1af"/><path d="M2148.1,1430.3c2,3.7,2.9,7.5,5.3,9.1c3.6,2.3,7.4-0.1,10.3-2.9c0.9-0.8,1.7-1.8,2.4-2.8	c12.2-16.4,24.5-32.7,36.3-49.4c4.1-5.8,7.6-12.2,6.7-20c-1-8.4-7.2-11.8-14.1-7c-4.3,2.9-8,6.7-11.6,10.6	c-10.8,11.9-18.3,26-25.8,40C2154.1,1415,2151.4,1422.6,2148.1,1430.3z" style="fill:#ffa1af"/><path d="M2195.3,1473.5c-3.2,6-1.5,12.7,2.9,15.2c5.2,3,9.4-0.1,13.3-3.2c0.1-0.1,0.3-0.2,0.4-0.3	c11.3-9.1,20.7-19.9,28.1-32.4c5.4-9.2,11.6-18.2,11.4-29.6c-0.3-2.1-0.5-4.2-0.9-6.2c-1.5-7.7-8.3-10.2-14.5-5.2	c-1.3,1.1-2.4,2.6-3.3,4c-7.1,10.4-14.3,20.8-21.2,31.4C2205.9,1455.8,2200.2,1464.4,2195.3,1473.5z" style="fill:#ffa1af"/><path d="M1264.7,1248.6c-67.9,32-111.5,86.1-154.1,146.2c-8.7,12.3-17.3,24.4-18.9,40.4c-1.5,14.7-1.7,28.8,4.5,42.7	c7.5,16.6,14.1,33.6,21,50.4c3.2,7.8,5.7,15.9,9.6,23.3c12.4,23.4,25.5,46.4,38.1,69.7c11.9,21.9,22.9,44.2,35.4,65.7	c18.6,32.2,37.7,64,57.2,95.7c9.2,14.9,15.1,30.2,13,48.1c-0.5,4.1,0.3,8.4,0.4,12.6c1.5,53.5-1.3,106.8-8.8,159.8	c-1.4,9.7-1,19.6-1.6,29.4c-0.2,4.3,2,7.9,5.4,8.6c2.4,0.4,6.1-2.4,7.9-4.7c2.7-3.4,4.6-7.5,6.1-11.6c8.8-23.3,12.1-47.8,15.9-72.2	c1-6.3,1.7-7.2,7.4-4.4c1.6,0.8,3.3,3.1,3.5,5c0.5,3.6,0,7.3,0,11c-0.2,27.3-0.6,54.6-0.4,81.9c0.1,5.8,1.9,11.8,4.2,17.2	c2.3,5.5,7.5,5.6,10.3,0.2c2.4-4.5,4.9-9.6,5.2-14.6c1.9-28.7,3.2-57.3,4.7-86c0.2-3.5-0.6-7.2,5.1-7c7.9,0.2,8.7,0.8,9.1,7.3	c1.7,26.7,3.3,53.5,5.6,80.2c0.7,8.3,3.2,16.5,5.4,24.6c1.7,6.5,6.2,7.9,12,4.2c4.9-3,5.6-8.3,5.6-12.9c0.2-24.5-0.1-49-0.6-73.5	c-0.2-9.4-1.4-18.9-2.3-28.3c-0.4-4.7,2.9-5.4,6.3-6c3.9-0.6,3.6,2.3,4,4.7c1.6,8.8,2.8,17.6,4.8,26.3c4.6,20.2,9.4,40.3,14.4,60.3	c1.1,4.4,3.1,8.6,5.3,12.5c3.1,5.5,8.8,5.5,12.1,0.2c1.3-2,2.4-4.5,2.4-6.8c0.1-5.9-0.3-11.8-0.7-17.7c-1.1-15.7-1.6-31.6-3.8-47.1	c-3.5-25.1-8.2-50.1-12.4-75.1c-0.2-1.4-0.3-2.8-0.5-5.4c2.1,1.7,3.1,2.3,3.9,3.1c7.8,8.3,15.4,16.5,26.5,20.8	c6.8,2.6,11,1.8,13.7-5c1.7-4.2-0.4-7.2-2.6-10.1c-12.9-16.8-22.8-35.1-29.6-55.3c-4.4-13-13.2-23.3-26.3-29.3	c-7.6-3.5-14.6-8.4-21.8-12.6c-4.3-2.5-6.8-6.2-8.5-10.9c-13.1-36.1-26.3-72.1-39.5-108.1c-7.6-20.7-14.6-41.7-23-62.1	c-13-31.6-26.7-62.8-37.1-95.5c-8.8-27.5-9.9-54.9-5.3-83c0.6-3.5,2.3-5.1,5.8-5.6c12.8-1.7,25.7-3.5,38.5-5.5	c27-4.3,53.9-9.3,79.1-20.6c7.2-3.3,14.5-6.5,21.8-9.6l-87.2-184.9C1295,1235.2,1279.7,1241.5,1264.7,1248.6z" style="fill:#ffa1af"/><g><path d="M1861.7,1513.7c-0.2-15.3,2.6-29.9,9.9-43.6c15.9-29.7,25.3-61.7,30.3-94.7c3.6-23.8,1.7-47.9-1.5-71.8 c-4.3-31.6-15.1-61.1-28.1-89.9c-0.8-1.7-1.8-3.6-3.3-4.7c-3.5-2.7-7.5-3.1-11.2-0.3c-3.8,3-4.4,6.7-2.6,11.2 c7,18.5,14.5,36.9,20.6,55.7c5.8,17.9,7.9,36.7,8.4,55.4c0.4,15.5-0.2,31.2-1.2,46.7c-0.5,7.2-2.6,14.5-4.6,21.5 c-6.4,22.2-12.6,44.4-24.1,64.9c-9.2,16.4-12.1,34.7-11.2,53.4c0.1,1.2,0.1,2.4,0.2,3.6c10.1,6.2,20.3,12.3,30.6,18.2 c-3.2-6.3-6.5-12.5-9.7-18.9C1862.9,1518.3,1861.7,1516,1861.7,1513.7z" style="fill:#fff"/><path d="M1743.6,928.8c-3.8-2.8-8.7-2.2-12.4,1.5c-6.8,6.9-9,7.7-17,2.3c-17-11.5-26.4-27.5-26.8-46.6 c0.3-5.7,0.4-9.6,0.7-13.4c0.1-1.5,0.8-3.1,1.3-4.5c2.1-5.9,4.9-7.7,11.2-7c8.4,1,15.1,5,20,12.1c3.3,4.7,8.5,5.6,12.9,2.9 c4-2.5,5.8-7.4,2.9-11.9c-3-4.7-7.1-9.1-11.5-12.6c-8.5-6.7-18.9-10.7-29.4-9.3c-14.7,2-21.2,8.2-25.2,25 c-5.5,23.2,0.9,44,14.5,62.9c7.5,10.5,16.9,18.6,29.5,22.6c12.8,4.1,25.3-0.4,31.5-11.9C1748.4,936.4,1747.5,931.6,1743.6,928.8z" style="fill:#fff"/></g><path d="M1794.9,1149.3c1,6,5.5,9.6,10.4,8.9c4.9-0.7,8.2-5.2,7.7-11.4c-0.5-7.9-1.6-15.7-1.9-23.5	c-0.1-2.2,0.1-3.6,0.8-4.5l0,0l-18.9-6.3C1791.4,1124.9,1792.9,1137.1,1794.9,1149.3z" style="fill:#fff"/><path d="M2142,1419.5c-6.2,13.9,0.9,25.9,8.9,36.4c6.2,8.1,14.7,14.4,22.1,21.6c4.5,4.4,9.3,8.6,13.3,13.4	c1.1,1.3,1.8,2.5,2.2,3.6h0l7.6-7.7c-2.6-3.2-3.2-8.4-0.7-13.3c4.8-9.1,10.6-17.7,16.2-26.4c6.9-10.6,14.1-20.9,21.2-31.4	c1-1.4,2-2.9,3.3-4c0.1-0.1,0.2-0.2,0.3-0.2l-8.4-9.8c-1.3,3.8-2.7,7.5-4.9,10.6c-9.3,13.3-19.5,26-29.3,38.9	c-1.7,2.2-3,4.7-4.9,6.8c-2.8,3-5.5,6.4-8.9,8.6c-6,3.8-11.3,1.2-12-5.9c-0.4-3.5,0.2-7.4,1.5-10.7c1.8-4.5,4.3-8.8,7-12.9	c10.1-14.9,20.3-29.7,30.8-44.4c1.9-2.7,4.5-5.1,7.2-6.8l-7.5-8.8c-1.2,2.5-2.7,4.9-4.4,7.2c-11.8,16.7-24.2,33-36.3,49.4	c-0.7,1-1.5,1.9-2.4,2.8c-3,2.8-6.7,5.2-10.3,2.9c-2.4-1.5-3.3-5.4-5.3-9.1c3.3-7.7,6-15.3,9.7-22.3c7.4-14.1,14.9-28.2,25.8-40	c1.1-1.2,2.3-2.4,3.5-3.6l-9.9-7.5c-5.4,9.4-11.6,18.3-17,27.8C2153.7,1396.1,2147.3,1407.6,2142,1419.5z" style="fill:#fff"/></svg>