<?xml version="1.0" encoding="utf-8"?>
<!-- Generator: Adobe Illustrator 21.0.0, SVG Export Plug-In . SVG Version: 6.00 Build 0)  -->
<svg version="1.1" id="Layer_1" xmlns="http://www.w3.org/2000/svg" xmlns:xlink="http://www.w3.org/1999/xlink" x="0px" y="0px" viewBox="0 0 2000 2000" style="enable-background:new 0 0 2000 2000;" xml:space="preserve">

<g id="Layer_3">
	<g id="Layer_6">
		<path d="M247.5,489.6c123.4-155.2,556.9-388,772-268c179.8,100.3,48,228,104,304s328-28,420,72s-188,336-128,428
			s380,172,404,388s-448,324-748,324c-297.3,0-690-135-860-460C25.7,922.3,123.5,645.6,247.5,489.6z" style="fill:#FECE2F;"/>
	</g>
</g>
<g id="Layer_1_1_">
	<g>
		<path d="M672.3,143.3c-4.5-13.1-13.4-22.6-26.5-28.2c-18.6-8-35.2-8.4-50.6-1.2c-48.6,22.7-77.3,120-113.8,243
			c-22.1,74.6-47.1,159.1-81,242.7C362,694.3,274.9,911.1,254.5,962c-18.1-3-23.8,1.1-25.3,5.1c-1.3,3.3-0.6,9,10.1,17.1
			c7.4,5.6,17.8,11.2,29.5,15.7c13,5,26.7,8.3,36.8,8.3c7.4,0,12.9-1.8,14.5-6.1c3.1-8-9.3-17.1-17.6-22.1
			c20.1-45,87.5-194.7,163.4-355.2c26.4-55.8,58-114,88.5-170.3c36-66.4,70-129.1,93-182.9C673.5,210.3,681.4,169.6,672.3,143.3z" style="fill:#1A1A1A;"/>
		<g>
			<path d="M619,149.5c3.1-0.9,5.6-3.1,6.9-6.1l0.4-1c4.8-9.7,2.4-17-4.5-19.5c-5.6-2-15,1.6-19.2,13.3l0,0
				c-3.2,8.4,4.6,16.8,13.2,14.3L619,149.5z" style="fill:#FFFFFF;"/>
		</g>
		<path d="M545.8,265.4l24.4-24.4c6.3-6.3,4.6-16.8-3.3-20.8l0,0c-6.1-3.1-8.8-10.4-6.1-16.7l17-39.4
			c5.8-11.9,3.2-20.8-4.9-24.3c-22.1,26.6-40.4,73-59,130.9C524.5,275.9,537.4,273.8,545.8,265.4z" style="fill:#FFFFFF;"/>
		<g>
			<path d="M293.6,995.4L293.6,995.4c-32.1-0.2-46.5-20.2-47.1-21.1c-1-1.4-0.6-3.2,0.7-4.2c1.4-0.9,3.2-0.6,4.2,0.7
				c0.5,0.8,13.4,18.4,42.2,18.5c1.7,0,3,1.4,3,3C296.6,994,295.3,995.4,293.6,995.4z" style="fill:#FFFFFF;"/>
		</g>
		<g>
			<path d="M412.1,720.9c-0.7,0-1.4-0.2-2-0.7c-21.9-19.2-42.5-17.3-42.7-17.3c-1.7,0.2-3.1-1-3.3-2.7
				c-0.2-1.6,1-3.1,2.7-3.3c0.9-0.1,23.5-2.2,47.3,18.7c1.2,1.1,1.4,3,0.3,4.2C413.8,720.5,413,720.9,412.1,720.9z" style="fill:#FFFFFF;"/>
		</g>
	</g>
	<g id="Layer_4">
		<g>
			<g>
				<path d="M594.7,1512.8c-28.7,0-61-2.5-96.3-9.3c-1.6-0.3-2.7-1.9-2.4-3.5c0.3-1.6,1.9-2.7,3.5-2.4
					c80,15.4,144.8,8.7,185.1,0.3c43.7-9,68.7-21.9,69-22c1.5-0.8,3.3-0.2,4,1.3c0.8,1.5,0.2,3.3-1.3,4c-1,0.5-25.9,13.3-70.3,22.5
					C663,1508.5,632,1512.8,594.7,1512.8z" style="fill:#1A1A1A;"/>
			</g>
			<g>
				<path d="M549,513.6c-0.5,0-1-0.1-1.5-0.4c-1.4-0.8-2-2.6-1.2-4.1C623.4,370.9,653,304,653.3,303.4
					c0.7-1.5,2.4-2.2,4-1.5c1.5,0.7,2.2,2.4,1.5,4c-0.3,0.7-29.9,67.7-107.1,206.3C551.1,513,550.1,513.6,549,513.6z" style="fill:#1A1A1A;"/>
			</g>
			<path d="M742.5,158.5c-9.4,0-17,7.6-17,17s7.6,17,17,17s17-7.6,17-17S751.9,158.5,742.5,158.5z" style="fill:#1A1A1A;"/>
			<g>
				<path d="M712,135.1c-8.8,0-16.4-6.6-17.4-15.6c-1.9-17.2-9.6-29.4-23.5-37.3c-10.5-6-20.6-7.1-20.7-7.2
					c-9.6-0.9-16.7-9.4-15.8-19s9.4-16.7,19-15.8c1.8,0.2,17.8,1.9,34.8,11.6c16.5,9.4,37.1,28.2,41,63.9c1,9.6-5.9,18.2-15.5,19.3
					C713.3,135,712.6,135.1,712,135.1z" style="fill:#1A1A1A;"/>
			</g>
			<g>
				<circle cx="321.5" cy="1435.1" r="18.6" style="fill:#1A1A1A;"/>
			</g>
			<g>
				<circle cx="319.4" cy="1548.2" r="9.7" style="fill:#1A1A1A;"/>
			</g>
			<g>
				<circle cx="387" cy="1490" r="13.3" style="fill:#1A1A1A;"/>
			</g>
			<g>
				<path d="M328.1,1529.2c-3.1,0-6.2-1.1-8.8-3.2l-28.1-23.7c-5.7-4.8-6.4-13.4-1.6-19.1s13.4-6.4,19.1-1.6l28.1,23.7
					c5.7,4.8,6.4,13.4,1.6,19.1C335.8,1527.6,331.9,1529.2,328.1,1529.2z" style="fill:#1A1A1A;"/>
			</g>
		</g>
	</g>
	<g>
		<path d="M969,547.1c0,0-19.5,82-99,103.5c0,0-66.7,27.2-145.3-34.7c0,0-59.2,37.7-101.2,93.2s-54.5,82-54.5,82
			s46.5-23.3,145.5,37.8l71.2-51l28.8-22.8c0,0,35,31.5,70,79.5s65.7,95.3,63.8,148.7c0,0-16.3,12.8-45.3-19.2
			c0,0-116.5,36.5-168,32.5c0,0,31.5,107,55,136.5l31,42.5l103.5-17c0,0,95-23,209-74s187.5-106,187.5-106s1-85-26.5-181
			s-64-153-87.5-179.5S1125,539.6,969,547.1z" style="fill:#FFFFFF;"/>
	</g>
	<g>
		<g>
			<g>
				<path d="M839.3,1105c-1.1,0-2.2-0.6-2.7-1.7c-24.4-52-38.4-109.4-38.5-110c-0.4-1.6,0.6-3.2,2.2-3.6
					c1.6-0.4,3.2,0.6,3.6,2.2c0.1,0.6,14,57.4,38.1,108.9c0.7,1.5,0.1,3.3-1.4,4C840.2,1104.9,839.7,1105,839.3,1105z" style="fill:#FECE2F;"/>
			</g>
			<g>
				<path d="M919.1,1107.8c-1.1,0-2.2-0.6-2.7-1.7c-25.6-55.2-52-129.8-52.2-130.5c-0.6-1.6,0.3-3.3,1.8-3.8
					c1.6-0.5,3.3,0.3,3.8,1.8c0.3,0.7,26.6,75,52,130c0.7,1.5,0,3.3-1.5,4C920,1107.8,919.6,1107.8,919.1,1107.8z" style="fill:#FECE2F;"/>
			</g>
			<g>
				<path d="M968.2,1053.5c-1.2,0-2.3-0.7-2.8-1.8c-18.8-44.6-31.2-89.8-31.3-90.3c-0.4-1.6,0.5-3.2,2.1-3.7
					c1.6-0.4,3.2,0.5,3.7,2.1c0.1,0.4,12.4,45.3,31.1,89.5c0.6,1.5-0.1,3.3-1.6,3.9C969,1053.4,968.6,1053.5,968.2,1053.5z" style="fill:#FECE2F;"/>
			</g>
			<g>
				<path d="M1056.1,1082c-1.1,0-2.1-0.6-2.6-1.6c-28-51.5-48.1-123.6-48.3-124.3c-0.4-1.6,0.5-3.2,2.1-3.7
					c1.6-0.4,3.2,0.5,3.7,2.1c0.2,0.7,20.2,72.1,47.8,123c0.8,1.5,0.3,3.3-1.2,4.1C1057,1081.9,1056.6,1082,1056.1,1082z" style="fill:#FECE2F;"/>
			</g>
			<g>
				<path d="M1117.4,1053.8c-1.1,0-2.2-0.6-2.7-1.7c-26.1-54.1-50.4-131.9-50.6-132.7c-0.5-1.6,0.4-3.3,2-3.8
					s3.3,0.4,3.8,2c0.2,0.8,24.4,78.2,50.3,131.9c0.7,1.5,0.1,3.3-1.4,4C1118.3,1053.7,1117.9,1053.8,1117.4,1053.8z" style="fill:#FECE2F;"/>
			</g>
			<g>
				<path d="M1172,993.1c-1.2,0-2.3-0.7-2.8-1.9c-22.4-55.9-42.8-115-43.1-115.6c-0.5-1.6,0.3-3.3,1.9-3.8
					s3.3,0.3,3.8,1.9c0.2,0.6,20.6,59.6,42.9,115.4c0.6,1.5-0.1,3.3-1.7,3.9C1172.7,993,1172.4,993.1,1172,993.1z" style="fill:#FECE2F;"/>
			</g>
			<g>
				<path d="M1247.5,979.6c-1.2,0-2.3-0.7-2.8-1.9c-14.3-35.6-49.9-121.6-71.6-151.5c-1-1.3-0.7-3.2,0.7-4.2
					c1.3-1,3.2-0.7,4.2,0.7c21.3,29.4,54.4,108.4,72.3,152.8c0.6,1.5-0.1,3.3-1.7,3.9C1248.3,979.5,1247.9,979.6,1247.5,979.6z" style="fill:#FECE2F;"/>
			</g>
			<g>
				<path d="M1284.2,942.5c-1.2,0-2.3-0.7-2.7-1.8c-18.9-43-47-103.2-73.7-145.2c-0.9-1.4-0.5-3.3,0.9-4.1
					c1.4-0.9,3.3-0.5,4.1,0.9c26.9,42.3,55.2,102.7,74.1,146c0.7,1.5,0,3.3-1.5,4C1285.1,942.4,1284.6,942.5,1284.2,942.5z" style="fill:#FECE2F;"/>
			</g>
			<g>
				<path d="M1309.1,869.5c-0.1-0.4-11.8-35.9-56.3-106l5.1-3.2c45,70.8,56.5,105.9,57,107.4L1309.1,869.5z" style="fill:#FECE2F;"/>
			</g>
			<g>
				<path d="M627.7,789.9l-5.3-2.8c0.2-0.3,15.7-30,38.3-63.9c30.4-45.6,58.4-76.7,83.3-92.3l3.2,5.1
					C689.5,672.2,628.3,788.8,627.7,789.9z" style="fill:#FECE2F;"/>
			</g>
			<g>
				<path d="M667.6,805.1l-5.2-3c0.2-0.3,17.1-29.1,40-62.3c30.9-44.7,57.4-75.7,78.8-92.1l3.6,4.8
					C734.9,690.6,668.3,803.9,667.6,805.1z" style="fill:#FECE2F;"/>
			</g>
			<g>
				<path d="M706.7,821.9l-5.3-2.8c0.2-0.3,17.5-33.7,42-70.2c33.1-49.3,62.8-80.6,88.4-93.1l2.6,5.4
					C775.4,690,707.3,820.6,706.7,821.9z" style="fill:#FECE2F;"/>
			</g>
			<g>
				<path d="M812.9,752.9l-3.8-4.7c1.1-0.9,108.6-87.7,293-168.8l2.4,5.5C920.9,665.7,814,752,812.9,752.9z" style="fill:#FECE2F;"/>
			</g>
			<g>
				<path d="M846,785.6c-0.8,0-1.7-0.4-2.3-1c-1.1-1.3-0.9-3.1,0.3-4.2c0.6-0.5,62.1-53.1,173.6-111.7
					c1.5-0.8,3.3-0.2,4.1,1.3s0.2,3.3-1.3,4.1c-110.8,58.3-171.8,110.4-172.4,111C847.4,785.3,846.7,785.6,846,785.6z" style="fill:#FECE2F;"/>
			</g>
			<g>
				<path d="M876,818.6c-0.9,0-1.7-0.4-2.3-1.1c-1-1.3-0.8-3.2,0.5-4.2c1.2-1,125.4-100.5,251.9-157
					c1.5-0.7,3.3,0,4,1.5s0,3.3-1.5,4C1002.8,717.9,879.3,817,878.1,818C877.3,818.3,876.7,818.6,876,818.6z" style="fill:#FECE2F;"/>
			</g>
			<g>
				<path d="M1185.5,1027.1c-1.2,0-2.3-0.7-2.8-1.9l-7.5-19.5c-0.6-1.5,0.2-3.3,1.7-3.9c1.6-0.6,3.3,0.2,3.9,1.7
					l7.5,19.5c0.6,1.5-0.2,3.3-1.7,3.9C1186.2,1027,1185.9,1027.1,1185.5,1027.1z" style="fill:#FECE2F;"/>
			</g>
			<g>
				<path d="M986.5,1096.6c-1.2,0-2.3-0.7-2.8-1.8l-10.5-24.5c-0.7-1.5,0.1-3.3,1.6-3.9c1.5-0.7,3.3,0.1,3.9,1.6
					l10.5,24.5c0.7,1.5-0.1,3.3-1.6,3.9C987.3,1096.5,986.9,1096.6,986.5,1096.6z" style="fill:#FECE2F;"/>
			</g>
			<g>
				<path d="M1035,665.6c-1.1,0-2.1-0.6-2.6-1.6c-0.8-1.5-0.2-3.3,1.2-4.1l33.3-18c1.5-0.8,3.3-0.2,4.1,1.2
					c0.8,1.5,0.2,3.3-1.2,4.1l-33.3,18C1036,665.4,1035.5,665.6,1035,665.6z" style="fill:#FECE2F;"/>
			</g>
			<g>
				<path d="M1065.7,712.9c-1,0-2-0.5-2.6-1.5c-0.9-1.4-0.4-3.3,1-4.1c3.4-2,36.1-19.3,37.5-20.1
					c1.5-0.8,3.3-0.2,4.1,1.2c0.8,1.5,0.2,3.3-1.2,4.1c-11.7,6.2-34.6,18.4-37.2,19.9C1066.7,712.8,1066.2,712.9,1065.7,712.9z" style="fill:#FECE2F;"/>
			</g>
		</g>
		<g>
			<path d="M902,856.6c-1.1,0-2.1-0.6-2.6-1.6c-0.8-1.5-0.3-3.3,1.2-4.1c1.9-1.1,193.7-107,311.2-175.5
				c1.4-0.8,3.3-0.4,4.1,1.1c0.8,1.4,0.4,3.3-1.1,4.1c-117.6,68.5-309.4,174.5-311.3,175.5C903,856.4,902.5,856.6,902,856.6z" style="fill:#FECE2F;"/>
		</g>
		<g>
			<path d="M924.2,892.3l-2.3-5.5c1.9-0.8,190.2-80.7,307.3-175.9l3.8,4.7C1115.1,811.3,926.1,891.5,924.2,892.3z" style="fill:#FECE2F;"/>
		</g>
		<g>
			<path d="M943.3,932.3l-2.6-5.4c1.7-0.8,171.4-81.8,261.6-149.9l3.6,4.8C1115.2,850.2,945,931.5,943.3,932.3z" style="fill:#FECE2F;"/>
		</g>
		<g>
			<path d="M950.8,963.5l-1.5-5.8c0.8-0.2,81.3-22,224.5-135.6l3.7,4.7c-75.3,59.8-132.9,93.8-167.8,111.7
				C971.5,958,951.6,963.2,950.8,963.5z" style="fill:#FECE2F;"/>
		</g>
	</g>
	<g>
		<path d="M969,547.1c0,0,96-16.5,179.3,26.2c0,0-108.7-30-182.7-8.7L969,547.1z" style="fill:#FECE2F;"/>
	</g>
	<g>
		<path d="M593,784.6c0,0,72-124.2,137-160l-8.5-7.5c0,0-52.5,35-90,83s-62.5,91-62.5,91L593,784.6z" style="fill:#FECE2F;"/>
	</g>
	<g>
		<path d="M748.8,599.8c0,0,52.8,52.2,117.2,25.8s69-64.5,70.5-72.5c2.5,0.5,32.5-6,32.5-6s-19.5,89.5-109.5,107.5
			s-135.8-43.7-135.3-41.2S748.8,599.8,748.8,599.8z" style="fill:#FFFFFF;"/>
	</g>
	<g>
		<path d="M715,1051.6c-0.5,0-1-0.1-1.4-0.4l-89-49c-1.5-0.8-2-2.6-1.2-4.1s2.6-2,4.1-1.2l89,49c1.5,0.8,2,2.6,1.2,4.1
			C717.1,1051,716.1,1051.6,715,1051.6z" style="fill:#FECE2F;"/>
	</g>
	<g>
		<path d="M406.5,879.1c0,0-20,22.5-21.5,65c0,0,81.5,37.5,203.5,51.5s248-13,248-13S914,962.7,944,943.9
			c0,0-25.5-66.8-58.5-111.3s-71-73.5-71-77.5s-88.7,90.1-184,118.5C531.5,904.1,406.5,879.1,406.5,879.1z" style="fill:#FFFFFF;"/>
	</g>
	<g>
		<path d="M581.1,887.5c32.9-2.3,84.6,50.2,96.8,24.2c9-19-12.2-24.7-41-42.2L581.1,887.5z" style="fill:#FECE2F;"/>
	</g>
	<g>
		<path d="M821,1175.6c0,0,71,148,31,233s-122,185-409,148c0,0-9,37.7,3.1,71.2c0,0,267.9,75.8,392.9,56.8
			s208-81,258-149s81-162,74-285c0,0,91,50,165,204s95,346,95,346s52,17,88-9c0,0,38-164,6-331s-128-422-204-482
			c0,0-37.1,24.9-84.7,52c-58.7,33.4-134.9,71.8-194.3,93C910,1170.6,821,1175.6,821,1175.6z" style="fill:#FECE2F;"/>
	</g>
	<g>
		<g>
			<path d="M1453.5,1804.8c1.8-116.2-19.5-178.2-19.5-178.2l-34.9-7.2c0,0,33,126,31.5,184.5L1453.5,1804.8z" style="fill:#FFFFFF;"/>
		</g>
		<g>
			<path d="M1476.5,1805.1c8.5-86-9.8-179.2-9.8-179.2l36.7-5.7c0,0,4.3,149-3,178.3L1476.5,1805.1z" style="fill:#FFFFFF;"/>
		</g>
	</g>
	<g>
		<path d="M441,1573.2c0,0,142.7,38,287.3-4l2-34.7c0,0-72,32.7-156,30s-135.3-6.7-135.3-6.7L441,1573.2z" style="fill:#FFFFFF;"/>
	</g>
	<g>
		<path d="M440.3,1597.9c0,0,84.7,40,298,20l18.7,37.3c0,0-110,15.3-208.7-2l-114-28L440.3,1597.9z" style="fill:#FFFFFF;"/>
	</g>
	<g>
		<path d="M892.5,378.1l26,26c0,0,30.5-19,43.5-31s22.5-31.5,14-31S925,356.1,892.5,378.1z" style="fill:#FFFFFF;"/>
	</g>
	<g>
		<path d="M798.3,431.2l94.2-53.2c0,0-38-24.5-72.2-3.5C790.7,392.8,798.3,431.2,798.3,431.2z" style="fill:#FFFFFF;"/>
	</g>
	<g>
		<path d="M808.8,401.1c19.2,0,34.8-11.3,34.8-25.2c0-3.2-0.8-6.2-2.3-9c-6.9,1.1-14,3.5-20.9,7.7
			c-11,6.8-16.9,16.4-19.9,25.8C803.1,400.8,805.9,401.1,808.8,401.1z" style="fill:#FECE2F;"/>
	</g>
	<g>
		<path d="M410.6,799.5c0,0,15.1-51,12.2-49.8s-13.3-9.7-37.1,35.9l-30,67.6L374,871l46.8,8.8l24.7-21.3L410.6,799.5z" style="fill:#FECE2F;"/>
	</g>
	<g>
		<path d="M837,1513.6c-0.9,0-1.7-0.4-2.3-1.1c-1.1-1.3-0.9-3.2,0.4-4.2c19.4-16.4,35.9-35.8,48.8-57.6
			c0.8-1.4,2.7-1.9,4.1-1c1.4,0.8,1.9,2.7,1,4.1c-13.3,22.3-30.2,42.2-50.1,59.1C838.4,1513.3,837.7,1513.6,837,1513.6z" style="fill:#1A1A1A;"/>
	</g>
	<g>
		
			<ellipse transform="matrix(0.9919 -0.1272 0.1272 0.9919 -46.6668 117.4288)" cx="896.1" cy="424.1" rx="19" ry="8.4" style="fill:#FFFFFF;"/>
		<path d="M918,421.2c-0.8-5.6-9-10.3-23.3-8.5c-14.4,1.8-21.1,8.5-20.4,14.1c0.3,2,1.7,5.7,8.4,7.7
			c2.7,0.8,5.8,1.2,9.2,1.2c1.9,0,3.8-0.1,5.7-0.3c5.5-0.7,10.5-2.4,14.2-4.6C917.8,427.1,918.3,423.2,918,421.2z M884.5,428.8
			c-2.8-0.8-4.1-2-4.2-2.7c-0.2-1.9,5.2-5.9,14.6-7.3c-0.8,2.8-1.3,6.6,0,10.8C891,429.9,887.3,429.6,884.5,428.8z" style="fill:#1A1A1A;"/>
	</g>
	<g>
		<path d="M885.5,464l26.1,15.5c0,0-10.3,9.5-20.8,3.2C880.1,476.5,885.5,464,885.5,464z" style="fill:#FFFFFF;"/>
		<path d="M898.4,487.9c-2.9,0-6-0.7-9.2-2.6c-10.1-6-8.7-17.3-6.5-22.5c0.3-0.8,1-1.4,1.8-1.7c0.8-0.3,1.7-0.2,2.5,0.3
			l26.1,15.5c0.8,0.5,1.4,1.3,1.5,2.3s-0.3,1.9-1,2.5C913.2,482,906.7,487.9,898.4,487.9z M887.3,468.6c-0.5,3.4-0.3,8.5,4.9,11.6
			s10.5,1.4,13.8-0.4L887.3,468.6z" style="fill:#1A1A1A;"/>
	</g>
	<g>
		<path d="M704,820.6" style="fill:none;"/>
	</g>
	<g>
		<path d="M1460.5,1355.1c-8.3,0-15.7-5.9-17.2-14.4c-0.1-0.5-5.5-28.7-24.6-53.9c-5.8-7.7-4.3-18.7,3.4-24.5
			c7.7-5.8,18.7-4.3,24.5,3.4c24.5,32.3,30.9,67.4,31.2,68.9c1.7,9.5-4.7,18.6-14.2,20.3C1462.5,1355,1461.5,1355.1,1460.5,1355.1z" style="fill:#FFFFFF;"/>
	</g>
	<g>
		<path d="M1474.9,1410.9c-8.7,0-16.3-6.5-17.4-15.4l-0.9-7.3c-1.1-9.6,5.7-18.3,15.3-19.4c9.6-1.1,18.3,5.7,19.4,15.3
			l0.9,7.3c1.1,9.6-5.7,18.3-15.3,19.4C1476.3,1410.9,1475.6,1410.9,1474.9,1410.9z" style="fill:#FFFFFF;"/>
	</g>
	<g>
		<path d="M833.6,1850.3H517.1c-1.7,0-3,1.3-3,3s1.3,3,3,3h316.5c1.7,0,3-1.3,3-3S835.3,1850.3,833.6,1850.3z" style="fill:#1A1A1A;"/>
		<circle cx="932.7" cy="1852.6" r="11.2" style="fill:#1A1A1A;"/>
		<path d="M1000.1,1851h-28.5c-1.7,0-3,1.3-3,3s1.3,3,3,3h28.5c1.7,0,3-1.3,3-3S1001.8,1851,1000.1,1851z" style="fill:#1A1A1A;"/>
	</g>
	<g>
		<path d="M1125,1422.1c-0.9,0-1.7-0.1-2.6-0.2c-9.6-1.4-16.1-10.3-14.7-19.9l6-40c1.4-9.6,10.3-16.1,19.9-14.7
			s16.1,10.3,14.7,19.9l-6,40C1141,1415.8,1133.5,1422.1,1125,1422.1z" style="fill:#FFFFFF;"/>
	</g>
	<g>
		<path d="M820.8,448.6L820.8,448.6c-2.4-0.7-3-3.9-0.9-5.3c1.6-1.1,4.1-2,7.6-2.4c1.7-0.1,3.1,1.1,3.3,2.7
			c0.1,1.6-1.1,3.1-2.7,3.3c-2.7,0.2-4.2,0.8-5,1.3C822.4,448.7,821.6,448.8,820.8,448.6z" style="fill:#1A1A1A;"/>
	</g>
	<path d="M327.4,924.7c6.6,2.2,13,4.1,18.9,5.5c2.1,1.2,36.6,19.5,92.8,37.3c6.9,2.2,14.4,4.4,22.3,6.7
		c0.1,0.2,0.2,0.4,0.3,0.5c0.8,1.1,47.6,77.4,133,136c38,24.7,96.7,20,122-16c17.1-24.3,26.3-57.7,26.3-57.7
		c5.7,18.7,30.2,75.9,41.7,96c12,21.5,30.5,40.6,33.9,44.3c2.1,4.1,21.4,42.4,33.3,91.5c7.4,30.3,10.4,58.8,9.2,84.6
		c-1.6,32.1-9.8,60.1-24.6,83.4c-22.1,34.9-49.3,62.1-82.9,82.2l-16.7,9.1c-46,22.8-102.9,33.8-173.6,33.8c-36.2,0-76-2.9-119.8-8.5
		l-51.4-17.3c-1.4-0.5-2.9,0.1-3.6,1.3c-0.4,0.7-9.4,16.8-8.4,64.1c0.5,20.8,4.1,53.1,9.6,84.3c2.5,14.5,5.2,27.2,7.7,36.6
		c3.9,14.6,6.3,17.6,8.3,18.7c0.6,0.3,1.2,0.5,1.9,0.5s1.5-0.2,2.2-0.6c1.7-1.1,5.2-3.3,24.3-58.2c0.4-1,0.7-2,1-3
		c-1.9,13.3-1.2,22.8,2.1,28.3c1.8,3.1,4.5,5.1,7.9,5.8c1,0.2,2,0.3,2.9,0.3c3.9,0,6.5-1.8,8-3.3c2.1-2.4,3.3-5.9,3.9-10.2
		c4.3,10.9,9.6,19.6,16,22.4c1.3,0.6,2.9,1,4.8,1c2.5,0,5.5-0.8,8.6-3.3c4.6-3.5,7.3-8.4,7.8-14.5c1.9-22.2-25.4-56.7-38.8-72.1
		c138.8,38.6,238,56.2,320.2,56.2c13.6,0,26.8-0.5,39.5-1.5c103.6-7.7,186.6-47.9,261.2-126.4c35-36.8,60.9-81.4,77-132.4
		c12.8-40.7,19.5-85.7,19.8-133.6c0.1-13.9-0.4-27.2-1.2-39.8c13.1,9.5,25.7,19.9,38,31.1c7,6.9,15,15.2,24.2,25.1
		c7.6,8.1,14.9,16.1,21.4,23.4c17.6,21.4,34.1,45,49.4,70.6c31.1,52.2,57.4,113,78.1,180.7c33.6,109.8,41.4,202.6,42.1,212.2
		c-1.1,2.5-5.1,12.3-9,22.6c-8.4,22.1-8.4,26.6-7.9,28.5H1024c-1.7,0-3,1.3-3,3s1.3,3,3,3h448.6c5.9,0.1,12.2,0.1,18.8,0.1
		c6.1,0,12.4,0,18.8-0.1h8.8c0.3,0,0.6-0.1,0.8-0.1c14.3-0.2,29-0.7,43.2-1.5c62-3,72.5-8.9,74.7-13.6c0.6-1.2,1.1-3.4-0.2-6.1
		c-1.4-3-5.7-12.1-62.8-30.3c-9.6-3-19.1-5.9-27.5-8.2c6.4-0.1,13.8-0.3,21.3-0.7c43.4-2.3,48.1-10,49.7-12.5c1.2-1.9,2.1-4.9,0-8.8
		c-5.5-10.2-22.5-10.3-51.8-0.5c-1.1,0.4-2.2,0.8-3.3,1.1c12.1-9,23.3-19.9,25.4-30.3c1.1-5.5-0.3-10.5-4.1-14.8
		c-3.5-4-8-5.8-12.9-5.2c-10,1.3-22.4,12.9-36.7,34.5c-3.4,5.2-6.6,10.3-9.3,14.9c4.2-22.5,10.7-64.5,13.4-118.5
		c0.7-13.6,1.1-28.4,1.1-44.3c0.1-0.3,0.2-0.6,0.2-1l-0.2-5.5c-0.3-72.2-8.5-165.3-38.2-262c-25.5-82.6-67.4-200.3-122.7-292.1
		c-29.6-49.1-50.3-69.8-55.2-74.3c0.3-13.3,0.6-112-39.6-219.8l-0.6-1.7c-18.4-49.3-43.7-116.8-101.5-162.8
		c-31.6-25.1-70.1-41.4-114.6-48.2c-51.5-7.9-112.8-3.6-182.2,12.9c-0.2,0-0.3,0.1-0.5,0.2l0.6-47.6c22.5-3,45-11.2,53.7-30.9
		c3.6-8.3,4.9-17.3,4-26.7c0.9-1.3,5.7-3.4,8.6-4.7c6.6-2.9,13.4-5.9,11.5-11.2c-1.3-3.3-6.7-6.2-18.9-11.8
		c-5.2-2.4-13.2-6.1-14.3-7.6c-2.4-4.3-5-8.3-7.6-12c5-3,16.7-10.3,28.3-19.1c21.1-16.1,31.8-29.9,31.8-40.8c0-2.4-1-4.3-3-5.4
		c-3.2-1.8-11.4-6.3-84.9,32.9c-2.8-1.2-12.8-5-25.6-7.3c-20-3.5-37.4-1.2-50.3,6.5c-13.1,7.8-21.3,20.7-23.7,37.2
		c-1.4,9.6-0.5,17.7,0,21c-3.3,3.3-13.7,13.8-23.9,25.2c-22.9,25.8-25,33.9-24.5,37.8c0.2,1.9,1.2,3.5,2.8,4.4
		c1.7,1.1,3.6,1.5,5.6,1.5c3.2,0,6.7-1.1,10.2-2.8c1.5,1.6,5.4,5,11.5,5.7c0.7,0.1,1.5,0.1,2.2,0.1c1.5,0,3.1-0.2,4.6-0.5
		c0,0,0,0,0.1,0c0.4,0.3,7.3,4.3,16.2,4.3c2.1,0,4.4-0.2,6.6-0.8l-12.3,70.7c-4.2,1.3-21.6,6.9-46.8,21.2c-0.2,0.1-0.3,0.2-0.4,0.3
		c-8.8,5-18.5,11.1-29,18.4c-40.7,28.4-100.2,82-152.3,175.2c-0.2,0.3-0.4,0.7-0.5,1c-1.3,2.8-2.6,7.6-1.8,11.9
		c1.8,9,11.4,17.1,28.5,24.1c0.3,0.1,0.7,0.2,1.1,0.2c0.8,0,1.5-0.3,2.1-0.8L580.6,882c-2.4,0.3-4.8,0.6-7.2,0.8
		c-35.4,3.1-67.2,3-94.7,1.3l0,0c-21.1-12-60.3-75-65.9-84.1l13.1-48.2c0.4-1.4-0.3-2.9-1.6-3.5c-6.1-2.8-12.3-0.6-18.1,4
		c-9.4,6.8-17.7,23-26.5,41.4c-12.9,27.1-27.9,59.7-27.9,59.7s-25.1-18-45.5-20.1c-2.3,0.1-4.3,0.6-5.9,1.8c-4.2,2.9-5.5,7.6-6.5,11
		c-0.4,1.1-0.8,2.5-1.1,3c-8.8,5.9-12.9,11.6-12.4,17.5c0.2,1.6,0.3,2.9,0.4,3.9c0.3,2.6,0.3,2.9,0.1,3.1c-0.5,0.8-1,1.5-1.5,2.2
		c-3.8,5.7-6.4,9.5-4.9,16.6c0.3,2.4,2,5.1,4.9,7.8C299.2,916.6,327.4,924.7,327.4,924.7z M281.8,894.2c-0.9-1.1-1.2-1.9-1.3-2.3
		c-0.1-0.1-0.1-0.3-0.1-0.4c-1-4.8,0.4-6.8,4-12.2c0.5-0.7,1-1.5,1.5-2.3c1.3-2.1,1.1-3.7,0.8-7c-0.1-1-0.3-2.3-0.4-3.8
		c-0.2-2.4,1.4-6.4,9.9-12.1c2-1.3,2.6-3.6,3.4-6.3c0.8-2.6,1.7-5.7,3.8-7.5C295.7,859.6,288.4,877.8,281.8,894.2z M945.3,354.5
		c25.8-11.4,30.6-9.7,31.3-9.3c0,0,0,0,0,0.1c0,17.5-39.9,44.6-57.7,55.1c-8.5-10.8-16.9-18.4-21.4-22.1
		C916.6,368.1,932.6,360.1,945.3,354.5z M800.7,426.3c-0.4-3.8-0.6-9.8,0.4-16.4c2.2-14.8,9.2-25.9,20.8-32.8
		c8.9-5.4,19.3-7.2,29.3-7.2c14.7,0,28.6,4,36.1,6.6l-7.4,4.3C845.4,399.7,811.9,419.6,800.7,426.3z M793.1,582.6l-1,5.7
		c-0.3,1.7,0.8,3.2,2.4,3.5c0.2,0,0.3,0,0.5,0c1.4,0,2.7-1,3-2.4l15-86.4c1-0.6,1.9-1.2,2.8-1.9c0.3-0.2,0.5-0.3,0.8-0.5
		s0.5-0.4,0.7-0.7c12.9-11.6,17.2-36.3,17.4-37.5c0.2-1-0.1-1.9-0.8-2.6s-1.7-1-2.6-0.9c-3.3,0.5-12.9,0.8-17.4-3.2
		c-1.7-1.5-2.6-3.6-2.5-6.4c0.1-3.7,1.3-6.4,3.6-8.2c5.1-4,15-2.9,18.7-2.1c0.3,0.1,0.6,0.1,0.9,0.1c1.1,0,2.1-0.6,2.6-1.5l9.2-18
		c3.9-0.2,13.7-1.2,24.1-4.5c16.2-5.2,26.9-13.8,31.1-25.1c7,6.8,16.1,17.1,23.4,30.1c1.6,2.7,6.4,5.1,17.1,10.1
		c5,2.3,13,6.1,15.3,8.1c-1.4,1.2-5.4,2.9-7.9,4c-6.5,2.9-12.7,5.6-12.2,10.5c0.9,8.4-0.3,16.5-3.5,23.9
		c-5.4,12.4-18,20.9-37.5,25.4c-17,3.9-35.7,3.9-48.4,3.1c-0.5,0-1,0.1-1.5,0.3l0,0c-0.1,0.1-0.3,0.1-0.4,0.2
		c-0.1,0-0.1,0.1-0.2,0.1c-0.1,0-0.1,0.1-0.2,0.2c-0.1,0.1-0.2,0.2-0.3,0.3l0,0c-0.2,0.2-0.3,0.4-0.4,0.7c-0.6,1.4-0.1,3,1.2,3.8
		c0.2,0.1,28.3,17.4,32.5,42.3c0.1,0.4,0.2,0.8,0.5,1.1l-0.3,21.7c0,1.6,1.3,3,3,3c1.6,0,2.9-1.3,3-3l0.2-12.8
		c0.6,0.3,1.3,0.4,1.9,0.2c16.2-3.9,31.7-7,46.6-9.4c-1.6,4.9-5.4,15.1-13.1,26.4c-9.9,14.7-28.6,34.4-61.3,45.5
		c-26.1,8.8-52.2,6.8-77.5-5.9c-13.7-6.9-23.4-15.2-27.8-19.4C772.6,590.1,786.7,584.7,793.1,582.6z M748.2,603.6
		c3.9,3.9,14.5,13.5,30.4,21.5c12.1,6.1,28.9,11.9,48.7,11.9c10.5,0,21.7-1.6,33.7-5.6c34.3-11.6,54-32.5,64.5-48
		c10-14.8,13.7-27.3,14.5-30.6c8.7-1.3,17.2-2.5,25.5-3.4c-0.4,1.9-1.1,4.6-2.1,8c-6,19.4-26.7,66.9-89.4,89.4
		c-42.2,15.1-79.9,5.4-104.1-5.4c-21.1-9.4-35.9-21.3-41.1-25.7C735.6,611.1,742.1,607.1,748.2,603.6z M404.6,762.1
		c4.9-5.4,10.1-9.3,14.7-8.9l-12.6,46.6c-0.2,0.8-0.1,1.6,0.3,2.3c1.1,1.9,18.2,29.8,36.6,54c-1.1,0.8-13.5,10-24.6,21.2
		c-18.7-3.2-32.7-6.7-41.1-9.1l14-43.8c0.5-1.3-0.1-2.7-1.2-3.4c-4.3-2.8-10.1-3.5-15.1-2.3c6-13,12.2-26.6,18.7-40.6
		C396.9,772.3,400.4,766.9,404.6,762.1z M349,924.9c-0.4-0.2-0.9-0.3-1.4-0.4c-5.7-1.3-11.8-3.1-17.9-5.2
		c11.6-25.7,25.9-57,41.9-92.1c0.1-0.1,0.2-0.2,0.3-0.2c3.4-3.2,9.3-3.5,13.4-1.9L372,866.6c-1.3-0.4-2.2-0.7-2.8-0.9
		c-1.6-0.5-3.3,0.3-3.8,1.9c-0.5,1.6,0.3,3.3,1.9,3.8c3.1,1,15,4.8,34.3,8.8c-6.1,7.6-18.3,26.8-20.1,59.8
		C360.8,931.3,349.2,925,349,924.9z M674.4,996.9c-97.4,1.4-180.7-18.3-233.4-35c-21.2-6.7-39.3-13.5-53.6-19.4
		c0.9-21.9,6.6-37.4,11.3-46.7c4-7.8,7.9-12.5,9.6-14.3c25.9,5,62.9,9.9,108.4,9.9c17.9,0,37-0.7,57.1-2.6
		c55.4-4.9,117.9-40.1,160.5-68.7c42.3-28.4,74.1-56.2,79.2-60.7c16.9,12.7,41,36.8,73.7,81.6c6.4,8.7,12.2,17.3,17.5,25.8
		c-3.3,1.1-9.1,3.5-20.1,8.5c-12.2,5.5-27,12.4-37.3,17.2c-10.6,5-17,15.7-16.3,27.4c0.6,9.3-4.7,18-13.2,21.8l-34.5,15.4
		c-11.9,5.3-18.7,18-16.4,30.9l0.5,2.8C740.1,994.1,709.1,996.4,674.4,996.9z M788,1121.3c-0.5-0.4-1.1-0.5-1.7-0.5
		c-28.8-52.3-44.8-110.6-47.6-121.2c63.5-5.3,110.7-16.5,141.5-26c4.1-1.3,8-2.5,11.7-3.8c3.3-1,6.5-2,9.6-3.1
		c3.7,4.1,22.1,22.9,37.7,22.9c3.8,0,7.5-1.1,10.6-3.9c4.7-1.9,31.9-12.8,67.6-32.4c4,7.6,18,29.3,47.6,29.3c24,0,30-13.9,34.6-25.2
		c2.6-5.8,4.7-10.8,8.9-13.5c3.2-2.1,7.8-4.2,13.1-6.6c16.6-7.4,39.4-17.7,44.2-40.3c1.2-5.6,2.2-10.8,3-15.3
		c3.3-17.8,5-27.5,16.7-34.8c9.4-5.8,18.1-17,23.9-30.7c4.9-11.5,10-30.2,6.5-54.2c-0.2-1.3-1.3-2.4-2.7-2.5c-0.3,0-0.6,0-0.8,0.1
		c-1,0.1-1.9,0.8-2.4,1.7c-15.4,32.9-38.7,64.9-69.4,95.1c-24.6,24.2-53.9,47.3-87.2,68.6c-46.7,29.9-88.3,47.9-101.8,53.5
		c0.7-10.5-1.3-22.4-4.6-34.1c0.2-0.7,0-1.5-0.4-2.2c0-0.1-0.1-0.1-0.1-0.1c-0.2-0.6-0.5-1.5-1-2.7c-3-9.7-6.7-19.1-10.3-27.2
		c-1.7-3.9-3.6-7.8-5.5-11.8c-4.4-9.6-9.1-18.9-13.7-25.7c-7.5-13-15.7-25.7-24.2-37.3c-34.6-47.4-64.2-78.1-87.8-91.3
		c-7.1-4-12.6-5.7-16.9-6.4c74.6-60.3,135.5-95,173.9-113.7c43-20.8,67.9-26.6,68.1-26.7c1.7-0.4,2.7-2,2.3-3.6
		c-0.4-1.7-2-2.7-3.6-2.3c-1,0.2-25.6,5.9-69.1,27c-40,19.4-104.1,56.1-182.6,120.6c-0.2,0.2-0.4,0.4-0.5,0.6
		c-1.4,1.2-3.8,3.9-4.6,8.5c-1.2,7.7,2.4,17,10.9,27.8c-13.5,10.7-31,23.9-50.9,37.3c-4.8,3.2-9.9,6.5-15.1,9.9c0,0-0.1,0-0.1-0.1
		c-52.8-27-93.8-41.1-121.9-41.9c-7.9-0.3-13.7,0.6-17.9,1.9c50.2-86.5,106.3-136.9,145.1-164.1c0.9-0.6,1.7-1.2,2.6-1.8
		c4.2,3.7,19.9,17,43.6,27.6c15.9,7.1,37.4,13.8,62.2,13.8c14.6,0,30.2-2.3,46.5-8.1c65.3-23.4,86.8-73,93.1-93.2
		c1.5-4.9,2.3-8.6,2.7-10.4c90.8-8.6,153.1,10.3,197.4,41.7c-26.6,19.5-93.8,13.3-87.1,40.1c7.6,30.2,47.9-4.2,116,6.8
		c8.3,1.1,19.3,7.3,25.8,8.5c26.3,37.1,41.7,78.3,54.3,111.8l0.6,1.7c39.8,106.3,39.6,203.5,39.3,217.4c-13.4,8.1-121.3,72-210,87.7
		c-17.7,3.1-33.4,12.9-48.7,22.4c-17.2,10.7-35,21.7-55.6,23.5c-14.8,1.3-27.1,0.5-39.1-0.2c-22.6-1.4-43.9-2.7-76.7,9.9
		C824.2,1144.6,788.4,1121.6,788,1121.3z M861.3,1283.5c-1-5.3-2.2-10.7-3.5-16.1c-10.2-42.3-25.9-76.6-31.7-88.6c0.5,0,1,0,1.5,0
		c14.8,0,54.9-2.9,136.9-27.1c1.8,11.1,7,56.9-18.5,91.3C928.4,1266.6,899.9,1280.2,861.3,1283.5z M451.4,1706.9
		c-0.7,0.9-2.1,1.9-5.3,1.3c-1.7-0.4-2.9-1.3-3.9-3c-5.5-9.5,0.1-35.8,4.8-52.3c0.8,2.7,1.5,5.5,2.2,8.4c0.9,4.7,1.9,9.6,3.1,14.6
		C454.7,1689.8,455.3,1702.4,451.4,1706.9z M470,1658.7c14.7,20.3,22,36.6,21.1,47.2c-0.4,4.4-2.1,7.8-5.4,10.2
		c-3.7,2.7-6.1,2.2-7.6,1.5c-4-1.8-12-9.7-19.9-43c-0.8-4.7-1.8-9.3-2.9-13.5c-2.2-11.3-3.6-21.1-4.2-25.7
		C455.7,1640.5,462.9,1649,470,1658.7z M451.2,1626.1c-11.5-24-7.2-56.7-5.6-66.2c43,5.5,82.1,8.2,117.8,8.2
		c64.7,0,118-9.1,162.2-27.9c0,8.2,0.7,27.6,5.1,51.1c5.1,27.1,16.5,64.7,41.4,93.2C689.9,1683.6,590.4,1665.3,451.2,1626.1z
		 M821.9,1682.7c-47.4-48.9-55.1-151.6-55.8-164.2c18.1-11.9,34.3-26.1,48.8-42.5c1.5,12,5.4,39.2,12.7,70.9
		c15.6,68.4,35.5,106.9,50,127.6C859.7,1678.4,841.2,1681.1,821.9,1682.7z M1312.9,1404c-7.4-12.5-15.2-24.4-23.2-35.9
		c0.6-0.4,1.1-1,1.3-1.7l5-17.6c2.8-9.6,0.8-20.1-5.1-28.1l-15-20.2c-6.8-9.1-11-20-12.2-31.3l-2.3-22.8
		c-2.2-21.3-14.4-40.7-32.6-52l-72.2-44.6c-1-0.6-2.2-0.6-3.2,0.1c-0.3,0.2-0.5,0.4-0.7,0.7c-0.7,0.7-0.9,1.8-0.6,2.8
		c0,0,0.1,0.3,0.2,0.6l15.7,96c-0.1,0.7,0.1,1.5,0.5,2.1c1,14,1.7,28.9,1.6,44.6c-0.3,47.3-6.9,91.6-19.6,131.8
		c-15.8,50.1-41.3,93.9-75.6,130c-27.9,29.4-56.6,53-86.9,71.6c-0.9-0.5-1.8-1-2.7-1.4l-72-28c-9-3.5-19.1,1-22.7,10
		c-3.5,9,1,19.1,10,22.7l46.7,18.1c-20.2,9.1-41.2,16.2-63.3,21.4c-47.3-65.1-62.4-191.5-63.7-203.2c7.6-9.2,14.8-19,21.5-29.6
		c0.6-1,1.2-2,1.8-2.9c29.5-14.7,97,11.5,97.6-17c0.7-31-46.5,0.8-77.5-36.1c1.9-9.7,3.1-19.8,3.6-30.4c0.9-20-0.7-41.6-4.8-64.4
		c22.1-2,41-7.2,56.7-15.7c1.4,11.1,5.9,55.8-7.3,108.6c-0.4,1.6,0.6,3.2,2.2,3.6c0.2,0.1,0.5,0.1,0.7,0.1c1.3,0,2.5-0.9,3-2.3
		c14.9-59.4,7.8-109,7.2-113.3c10.3-6.4,19-14.4,26-23.9c27.8-37.4,21.4-85.8,19.5-96.5c2.9-0.9,5.9-1.8,8.9-2.7
		c28-8,58.4-18.1,90-30.6c140.8-53.3,236.6-123.1,251.5-134.4c5.9,5.8,25.8,26.8,53.1,72.1c55.1,91.2,96.8,208.4,122.1,290.7
		c15.4,49.9,25,98.8,30.7,144.4c-15.9,5.9-89.2,30.6-164.4,14.1C1347.6,1467.8,1331.1,1434.4,1312.9,1404z M1365.1,1510.5
		c17.3,3.5,34.5,4.9,50.9,4.9c52.8,0,97.3-14.5,111.5-19.7c2.8,24.1,4.6,47.1,5.6,68.8c-45.4,25.9-133,14.2-144.3,12.5
		C1381.5,1554.1,1373.6,1531.8,1365.1,1510.5z M1516.4,1790.2c-0.4,0.2-0.8,0.3-1.3,0.5c-9.8,3.7-44.4,15.9-70.3,11.2
		c-3.8-0.8-7.6-1.9-11.1-3.5c-1-12-7.5-83.8-31.2-173.8c6.2,1,22,3.3,43.7,3.3c23.8,0,54.7-2.7,87.8-12.8
		c-0.1,14.5-0.5,28.2-1.1,40.7C1529.4,1730,1518.5,1781.1,1516.4,1790.2z M1526.3,1791.2C1526.2,1791.2,1526.2,1791.3,1526.3,1791.2
		c-1.1-0.2-2-0.4-2.7-0.6c9.7-18.6,32.9-57.1,48.7-59.2c2.9-0.4,5.4,0.6,7.6,3.2c2.5,2.9,3.4,6.1,2.7,9.7
		c-3.3,16.7-38.6,37.9-54.2,45.9C1527,1790.8,1526.3,1791.2,1526.3,1791.2z M1568.3,1780.3c24.7-8.3,41-9.1,44.7-2.3
		c0.8,1.5,0.6,2.2,0.2,2.8c-1.4,2.3-8.6,7.8-44.9,9.7c-10,0.5-19.9,0.6-27.4,0.6C1548.2,1787.9,1558.2,1783.8,1568.3,1780.3z" style="fill:#1A1A1A;"/>
	<path d="M356,860.8c-1,1.4-2.8,1.7-4.2,0.7c-18.9-13.4-42.6-25.4-48-21.5c-2.4,1.7-3.4,5-4.2,7.8
		c-0.8,2.7-1.4,5-3.4,6.3c-8.5,5.7-10.1,9.7-9.9,12.1c0.1,1.5,0.3,2.8,0.4,3.8c0.3,3.3,0.5,4.9-0.8,7c-0.5,0.8-1,1.6-1.5,2.3
		c-3.6,5.4-5,7.4-4,12.2c0,0.1,0,0.3,0.1,0.4c0.1,1.8,4.8,7.6,21.7,16.1c13.8,6.9,30.7,13.1,45.4,16.5c0.5,0,0.9,0.1,1.4,0.4
		c0.2,0.1,11.8,6.4,32.5,15.1c1.8-33,14-52.2,20.1-59.8c-19.3-4-31.2-7.8-34.3-8.8c-1.6-0.5-2.4-2.2-1.9-3.8s2.2-2.4,3.8-1.9
		c0.1,0,2.7,0.9,2.8,0.9l9-28l4.3-13.5c-4.1-1.6-10-1.3-13.4,1.9c-0.2,0.2-0.5,0.4-0.8,0.5c-4.3,7.7-12.4,26.5-14.7,31.7
		C356.6,859.7,356.4,860.3,356,860.8z" style="fill:#FECE2F;"/>
	<g>
		<path d="M576.6,882.6c9.6-46.1,26.2-90.8,26.3-91.3c0.6-1.6,2.3-2.3,3.9-1.8c1.6,0.6,2.3,2.3,1.8,3.9
			c-0.2,0.5-16,42.9-25.4,88.5L576.6,882.6z" style="fill:#FECE2F;"/>
	</g>
	<g>
		<path d="M369.6,780.2c1.4-0.5,2.7-1.2,3.6-2.4c0.9-1.3,1.8-3.4,0.6-6.7c-2-6-23.3-23.2-35.1-21.2
			c-7.1,1.2-10.4,9.5-11.4,12.3c-2.4,1.1-4.3,2.8-5.3,5.1c-1.3,2.8-2.4,5.8-1.3,8.7c0.1,0.2,0.1,0.3,0.2,0.5c-0.8,0-1.6,0.1-2.3,0.3
			c-3.2,0.8-5.7,2.7-7.3,5.5c-2,3.6-1.7,6.8-0.1,9.7c-4.7,6-7.1,10.9-4.4,15.5c2.8,4.8,21.8,13.6,32.4,13.6c1.3,0,2.5-0.1,3.5-0.4
			c3.3-1,5.1-3.7,4.8-7.1c-0.1-0.7-0.3-1.4-0.5-2c1.1,0.1,2.1,0.2,3.1,0.2c3.1,0,5.8-0.7,7.6-2.3c1.1-1,1.6-2.5,1.5-4.2
			c-0.2-3.4-3.3-8.2-8-13c3.3,1.2,6.4,2.1,9.1,2.8c3.2,0.8,5.8,1.2,7.9,1.2c3.2,0,5.1-0.9,6.1-2.8
			C376.1,790.2,374.2,785.4,369.6,780.2z M339.8,755.8c8.3-1.4,27,13.4,28.4,17.1c0,0.1,0,0.2,0.1,0.2c0.3,0.7,0.2,1,0.2,1
			c-0.4,0.4-2.2,0.8-4,0.7c-0.1,0-0.3,0-0.4,0c-2.3-2-5-3.9-8-5.8c-7.8-5-15.6-7.8-21.7-8C335.6,758.7,337.5,756.2,339.8,755.8z
			 M341.7,814.1c0.1,0.6,0,0.7-0.4,0.8c-6,2.2-27-7.3-29.1-10.4c0,0,0-0.1-0.1-0.1c-0.4-0.6-1.2-2,3.2-7.8c3.5,3.1,8.2,5.7,12,7.8
			c0.6,0.3,1.2,0.7,1.8,1c1.6,0.9,3.5,1.8,5.5,2.6C338.2,810.2,341.5,813,341.7,814.1z M353.3,805.4c-2.2,1-9,0.2-16-2.6
			c-0.4-0.2-0.8-0.4-1.1-0.6c-0.3-0.2-0.6-0.2-0.9-0.3c-1.1-0.5-2.2-1.1-3.3-1.7c-0.6-0.3-1.2-0.7-1.9-1c-8.9-4.9-16-9.3-13.5-14
			c0.8-1.4,1.8-2.2,3.4-2.6c0.6-0.1,1.3-0.2,2-0.2c4.6,0,10.8,2.9,15.5,6.1C348,795.8,352.8,803.1,353.3,805.4z M341.2,781.8
			l-2.5-1.1c-6.8-3-11.7-5.2-12.3-6.8c-0.2-0.6,0.1-2,1.1-4.1c0.6-1.2,1.6-2,3.1-2.5c0.9-0.3,1.9-0.4,3-0.4c5,0,12.2,2.6,19.3,7.1
			c11.1,7.1,15.6,13.7,16.1,16.2C366,790.6,356,788.4,341.2,781.8z" style="fill:#1A1A1A;"/>
		<path d="M341.2,815c0.4-0.2,0.5-0.2,0.4-0.8c-0.1-1.2-3.5-4-7.2-6c-2-0.8-3.9-1.7-5.5-2.6c-0.6-0.3-1.2-0.7-1.8-1
			c-3.8-2.1-8.4-4.7-12-7.8c-4.4,5.8-3.6,7.2-3.2,7.8c0,0,0,0.1,0.1,0.1C314.3,807.7,335.2,817.2,341.2,815z" style="fill:#FECE2F;"/>
		<path d="M335.3,801.9c0.3,0,0.6,0.1,0.9,0.3c0.3,0.1,0.7,0.3,1.1,0.6c7,2.8,13.8,3.6,16,2.6
			c-0.5-2.3-5.3-9.6-15.7-16.9c-4.6-3.2-10.9-6.1-15.5-6.1c-0.7,0-1.4,0.1-2,0.2c-1.6,0.4-2.6,1.2-3.4,2.6c-2.5,4.7,4.6,9.1,13.5,14
			c0.6,0.4,1.3,0.7,1.9,1C333,800.9,334.2,801.4,335.3,801.9z" style="fill:#FECE2F;"/>
		<path d="M369,790.2c-0.5-2.4-5-9.1-16.1-16.2c-7.1-4.5-14.3-7.1-19.3-7.1c-1.1,0-2.1,0.1-3,0.4
			c-1.5,0.4-2.5,1.2-3.1,2.5c-1,2.1-1.3,3.4-1.1,4.1c0.6,1.6,5.5,3.8,12.3,6.8l2.5,1.1C356,788.4,366,790.6,369,790.2z" style="fill:#FECE2F;"/>
		<g>
			<path d="M368.4,774.1c0,0,0-0.3-0.2-1c0-0.1-0.1-0.2-0.1-0.2c-1.4-3.8-20.1-18.5-28.4-17.1c-2.3,0.4-4.2,2.9-5.4,5.3
				c6.2,0.2,13.9,3,21.7,8c3,1.9,5.6,3.8,8,5.8c0.1,0,0.3,0,0.4,0C366.2,774.9,368.1,774.5,368.4,774.1z" style="fill:#FECE2F;"/>
		</g>
	</g>
</g>
<g id="Layer_2">
	<g id="Layer_5">
		<g>
			<g>
				<polygon points="1475,384.6 1725,278.6 1745,452.6 1529,512.6 				" style="fill:#FECE2F;"/>
			</g>
			<g>
				<path d="M1584,378.6c32.6,0,59-24.2,59-54c0-3.7-0.4-7.3-1.2-10.7L1537.7,358C1548.5,370.5,1565.2,378.6,1584,378.6
					z" style="fill:#FFFFFF;"/>
			</g>
			<g>
				<g>
					<path d="M1631.6,266.4c-1.2,0-2.4-0.8-2.8-2c-0.6-1.6,0.2-3.3,1.8-3.8l171-61.5c1.6-0.6,3.3,0.2,3.8,1.8
						c0.6,1.6-0.2,3.3-1.8,3.8l-171,61.5C1632.3,266.3,1631.9,266.4,1631.6,266.4z" style="fill:#1A1A1A;"/>
				</g>
			</g>
			<g>
				<g>
					<path d="M1775.6,257.4c-1.3,0-2.4-0.8-2.9-2.1c-0.5-1.6,0.3-3.3,1.9-3.8l64.4-21c1.6-0.5,3.3,0.3,3.8,1.9
						c0.5,1.6-0.3,3.3-1.9,3.8l-64.4,21C1776.2,257.4,1775.9,257.4,1775.6,257.4z" style="fill:#1A1A1A;"/>
				</g>
			</g>
			<g>
				<g>
					<path d="M1789.1,432.9c-1.3,0-2.6-0.9-2.9-2.3c-0.4-1.6,0.6-3.2,2.2-3.6l103.4-25.5c1.6-0.4,3.2,0.6,3.6,2.2
						s-0.6,3.2-2.2,3.6l-103.4,25.5C1789.6,432.9,1789.3,432.9,1789.1,432.9z" style="fill:#1A1A1A;"/>
				</g>
			</g>
			<g>
				<g>
					<path d="M1697.6,506.4c-1.3,0-2.6-0.9-2.9-2.3c-0.4-1.6,0.6-3.2,2.2-3.6l176.9-43.5c1.6-0.4,3.2,0.6,3.6,2.2
						s-0.6,3.2-2.2,3.6l-176.9,43.5C1698.1,506.4,1697.8,506.4,1697.6,506.4z" style="fill:#1A1A1A;"/>
				</g>
			</g>
			<path d="M1748,452.3l-20-173.7c0.1-0.9-0.3-1.8-1-2.4c-1.1-1-2.8-1-3.9,0l-248.5,105.4c-1.2,0.2-2.2,1-2.5,2.3
				c0,0.1,0,0.2-0.1,0.3l0,0c-0.1,0.4-0.1,0.7,0,1.1c0,0.1,0,0.2,0.1,0.2c0,0.1,0,0.2,0.1,0.2c0,0.1,0,0.1,0,0.2l54,128
				c0.2,0.4,0.5,0.8,0.8,1.1s0.7,0.5,1.1,0.6c0.3,0.1,0.6,0.1,0.9,0.1s0.5,0,0.8-0.1l216-60C1747.2,455.1,1748.2,453.8,1748,452.3z
				 M1498.3,432.2c-2.8-10.2-8.5-43,39.1-28.1l-3.8-1.2l25.9,6.7l-30.9,94.5L1498.3,432.2z M1605,415.1l-120.5-31.3l230-97.5
				L1605,415.1z M1565.4,411.2l39.8,10.3c0.3,0.1,0.5,0.1,0.8,0.1c0.9,0,1.7-0.4,2.3-1.2l33.3-39.1l96.6,70.1l-204.5,56.8
				L1565.4,411.2z M1645.5,376.7l10.3-12.1c-1.1,1.4-1.7,2.2-1.7,2.2s37.7-45.6,54.3-31.6c16.7,14,28.7,75.3,28.7,75.3
				s-0.2-1.8-0.4-4.8l4.6,40.4L1645.5,376.7z" style="fill:#1A1A1A;"/>
			<g>
				<circle cx="1660.1" cy="438.9" r="19.5" style="fill:#FFFFFF;"/>
			</g>
		</g>
	</g>
</g>
</svg>
