<svg xmlns="http://www.w3.org/2000/svg" xmlns:xlink="http://www.w3.org/1999/xlink" id="Layer_6" x="0" y="0" version="1.1" viewBox="0 0 800 800" xml:space="preserve" style="enable-background:new 0 0 800 800"><g><g><rect width="634" height="322" x="92.8" y="77.6" style="fill:none;stroke:#1a1a1a;stroke-width:2.4463;stroke-linecap:round;stroke-linejoin:round;stroke-miterlimit:10"/><path d="M87,399.7h5.8V77.6H87c-6.4,0-11.6,5.2-11.6,11.6v298.9C75.4,394.5,80.6,399.7,87,399.7z" style="fill:#1a1a1a;stroke:#1a1a1a;stroke-width:2.4463;stroke-linecap:round;stroke-linejoin:round;stroke-miterlimit:10"/><g><g><path d="M415.4,134.4c0-0.7,0.1-1.5,0.4-2.2s0.8-1.3,1.3-1.8c1-1,2.2-1.6,3.4-2c1.2-0.4,2.4-0.7,3.6-0.9 c1.1-0.2,2.3-0.3,3.5-0.4c2.3-0.2,4.8-0.1,7.2,0.5c2.4,0.5,4.9,1.6,6.9,3.4c2,1.7,3.5,4.2,4.1,6.9s0.4,5.5-0.7,8.1 c-1,2.6-3,4.8-5.1,6.3s-4.3,2.5-6.2,3.5c-1,0.5-1.9,1-2.7,1.5c-0.8,0.5-1.6,1.1-2.2,1.6c-1.3,1.2-2.4,2.6-3.1,4.3 c-0.8,1.6-1.2,3.5-1.3,5.3c0,0.5,0,0.9,0.1,1.4v0.2v0.1c0,0.1,0,0.1,0,0.1c0,0.1,0.1,0.2,0.1,0.3c0.2,0.4,0.5,0.7,0.9,0.8 c0.1,0,0.2,0,0.3,0c0.1,0,0.1,0,0.2,0h0.4c0.6,0,1.1,0,1.7,0l3.4-0.1c2.2,0,4.5,0.1,6.7,0.3s4.5,0.6,6.7,1s4.4,0.9,6.6,1.7 c0.7,0.2,1,0.9,0.8,1.6c-0.1,0.4-0.5,0.7-0.9,0.8c-2.3,0.5-4.5,0.8-6.8,1s-4.5,0.3-6.7,0.3s-4.5-0.1-6.7-0.4l-3.3-0.4 c-0.6-0.1-1.1-0.1-1.7-0.2h-0.4l-0.7-0.1c-0.4-0.1-0.9-0.2-1.3-0.3c-1.7-0.6-3.2-1.8-4.1-3.5c-0.2-0.4-0.4-0.8-0.5-1.3 c-0.1-0.2-0.1-0.4-0.2-0.7l-0.1-0.3v-0.2c-0.1-0.7-0.1-1.3-0.2-2c-0.1-2.6,0.3-5.3,1.3-7.7c1-2.5,2.5-4.8,4.6-6.6 s4.4-2.9,6.5-3.8c2.1-0.9,4-1.8,5.6-2.8c0.8-0.5,1.5-1.1,2.1-1.7c0.6-0.6,1-1.3,1.4-2.1c1.5-3,0.9-7.1-1.7-9.6 c-1.2-1.3-2.9-2.2-4.8-2.7c-1.9-0.6-4-0.8-6.1-0.8c-1.1,0-2.1,0-3.2,0.1s-2,0.2-3,0.5s-1.8,0.7-2.5,1.2 c-0.3,0.3-0.6,0.5-0.8,0.8c-0.2,0.3-0.3,0.6-0.3,1v0.1c-0.1,0.7-0.6,1.2-1.3,1.1C415.9,135.5,415.4,135,415.4,134.4z" style="fill:#1a1a1a"/></g><g><path d="M498.1,134.4c0-0.7,0.1-1.5,0.4-2.2s0.8-1.3,1.3-1.8c1-1,2.2-1.6,3.4-2c1.2-0.4,2.4-0.7,3.6-0.9 c1.1-0.2,2.3-0.3,3.5-0.4c2.4-0.2,4.8-0.1,7.2,0.5c2.4,0.5,4.9,1.6,6.9,3.4c2,1.7,3.5,4.3,4.1,6.9c0.6,2.7,0.4,5.5-0.7,8.1 c-1.1,2.6-3,4.8-5.2,6.3c-2.1,1.5-4.3,2.5-6.2,3.5c-1,0.5-1.9,1-2.7,1.5s-1.6,1.1-2.2,1.7c-1.3,1.2-2.3,2.7-3.1,4.3 c-0.7,1.7-1.2,3.5-1.2,5.3c0,0.5,0,0.9,0.1,1.4l0.1,0.7c0,0.1,0,0.1,0,0.2c0,0.2,0.3,0.4,0.5,0.4h0.1c0,0,0,0,0.2,0h0.8h1.7h3.4 c2.2,0,4.5,0.1,6.7,0.4c2.2,0.3,4.5,0.6,6.7,1s4.4,0.9,6.7,1.6c0.7,0.2,1,0.9,0.8,1.6c-0.1,0.4-0.5,0.7-0.9,0.8 c-2.3,0.5-4.5,0.8-6.8,1s-4.5,0.3-6.8,0.3c-2.2,0-4.5-0.1-6.7-0.3l-3.4-0.3l-1.7-0.2l-0.8-0.1l-0.6-0.1c-0.2,0-0.5-0.1-0.7-0.1 c-1.9-0.5-3.6-1.8-4.5-3.7c-0.2-0.5-0.4-1-0.5-1.5l-0.2-1c-0.1-0.7-0.2-1.3-0.2-2c-0.1-2.7,0.4-5.3,1.4-7.8s2.5-4.8,4.6-6.6 s4.4-2.9,6.5-3.9c2.1-1,4.1-1.8,5.6-2.8c1.6-1,2.8-2.2,3.5-3.8c1.5-3.1,0.9-7.2-1.7-9.7c-1.2-1.3-2.9-2.2-4.9-2.8 c-1.9-0.6-4-0.8-6.1-0.8c-1.1,0-2.1,0-3.2,0.1s-2,0.2-3,0.5s-1.8,0.7-2.5,1.2c-0.3,0.3-0.6,0.5-0.8,0.9c-0.2,0.3-0.2,0.6-0.3,1 v0.1c-0.1,0.7-0.6,1.2-1.3,1.1C498.6,135.5,498.2,135,498.1,134.4z" style="fill:#1a1a1a"/></g><g><g><path d="M470.8,147.7c1.4-0.5,2.8-0.7,4.2-0.9c1.4-0.2,2.8-0.3,4.2-0.3c1.4,0,2.8,0.1,4.2,0.3 c1.4,0.2,2.8,0.4,4.2,0.9c0.7,0.2,1,1,0.8,1.7c-0.1,0.4-0.4,0.7-0.8,0.8c-1.4,0.5-2.8,0.8-4.2,0.9c-1.4,0.2-2.8,0.3-4.2,0.3 c-1.4,0-2.8-0.1-4.2-0.3c-1.4-0.2-2.8-0.4-4.2-0.9c-0.7-0.2-1-1-0.8-1.7C470.1,148.2,470.4,147.9,470.8,147.7z" style="fill:#1a1a1a"/></g><g><path d="M477.9,157.3c-0.5-1.4-0.7-2.8-0.9-4.2c-0.2-1.4-0.3-2.8-0.3-4.2s0.1-2.8,0.3-4.2c0.2-1.4,0.4-2.8,0.9-4.2 c0.2-0.7,1-1,1.7-0.8c0.4,0.1,0.7,0.4,0.8,0.8c0.5,1.4,0.8,2.8,0.9,4.2c0.2,1.4,0.3,2.8,0.3,4.2s-0.1,2.8-0.3,4.2 c-0.2,1.4-0.4,2.8-0.9,4.2c-0.2,0.7-1,1-1.7,0.8C478.3,158,478,157.7,477.9,157.3z" style="fill:#1a1a1a"/></g></g><g><path d="M545.4,142.9c2.1-0.5,4.1-0.7,6.2-0.9c2.1-0.2,4.1-0.3,6.2-0.3c2.1,0,4.1,0.1,6.2,0.3 c2.1,0.2,4.1,0.4,6.2,0.9c0.7,0.2,1.1,0.8,0.9,1.5c-0.1,0.5-0.5,0.8-0.9,0.9c-2.1,0.5-4.1,0.8-6.2,0.9c-2.1,0.2-4.1,0.3-6.2,0.3 c-2.1,0-4.1-0.1-6.2-0.3c-2.1-0.2-4.1-0.4-6.2-0.9c-0.7-0.2-1.1-0.8-0.9-1.5C544.6,143.4,545,143,545.4,142.9z" style="fill:#1a1a1a"/></g><g><path d="M546.2,152.2c2.1-0.4,4.1-0.5,6.2-0.6c2.1-0.1,4.1,0,6.1,0.1s4.1,0.3,6.1,0.6s4.1,0.7,6.1,1.3 c0.7,0.2,1,0.9,0.8,1.6c-0.1,0.5-0.5,0.8-1,0.9c-2.1,0.4-4.1,0.5-6.2,0.6c-2.1,0.1-4.1,0-6.1-0.1s-4.1-0.3-6.1-0.6 s-4.1-0.7-6.1-1.3c-0.7-0.2-1-0.9-0.8-1.6C545.3,152.7,545.7,152.3,546.2,152.2z" style="fill:#1a1a1a"/></g></g></g><g><path d="M463.4,411.6h-80c-6.3,0-11.3-5.1-11.3-11.3l0,0h102.7l0,0C474.8,406.6,469.7,411.6,463.4,411.6z" style="fill:#1a1a1a"/><rect width="634" height="322" x="92.8" y="77.6" style="fill:#fece2f"/><path d="M92.8,77.6v80c1.5,0.1,3,0.1,4.5,0.1c49.1,0,90.1-34.2,100.6-80.1L92.8,77.6L92.8,77.6z" style="fill:#fff"/><path d="M726.8,77.6H414.4c-16.5,28.7-26,62-26,97.5c0,108,87.5,195.5,195.5,195.5c56.4,0,107.2-23.9,142.8-62 L726.8,77.6L726.8,77.6z" style="fill:#fff"/><path d="M726.8,76.4h-634H87c-7.1,0-12.8,5.7-12.8,12.8v298.9c0,7.1,5.7,12.8,12.8,12.8h5.8c0.1,0,0.2,0,0.4-0.1 h633.6c0.7,0,1.2-0.5,1.2-1.2v-322C728,77,727.4,76.4,726.8,76.4z M725.5,398.4H94V78.9h631.6L725.5,398.4L725.5,398.4z" style="fill:#1a1a1a"/><g><path d="M451.5,174.3c-2.2-0.7-4.4-1.2-6.6-1.7c-2.2-0.4-4.4-0.7-6.7-1c-2.2-0.3-4.5-0.3-6.7-0.3l-3.4,0.1 c-0.6,0-1.1,0-1.7,0H426c-0.1,0-0.1,0-0.2,0s-0.2,0-0.3,0c-0.4-0.1-0.8-0.4-0.9-0.8c0-0.1-0.1-0.2-0.1-0.3v-0.1v-0.1v-0.2 c0-0.5-0.1-0.9-0.1-1.4c0.1-1.8,0.5-3.7,1.3-5.3c0.8-1.7,1.9-3.1,3.1-4.3c0.6-0.6,1.4-1.1,2.2-1.6c0.8-0.5,1.8-1,2.7-1.5 c1.9-1,4.1-2,6.2-3.5s4.1-3.7,5.1-6.3c1.1-2.6,1.3-5.5,0.7-8.1c-0.6-2.7-2.1-5.2-4.1-6.9c-2-1.8-4.5-2.9-6.9-3.4 c-2.4-0.5-4.9-0.6-7.2-0.5c-1.2,0.1-2.3,0.2-3.5,0.4c-1.2,0.2-2.4,0.4-3.6,0.9c-1.2,0.4-2.3,1-3.4,2c-0.5,0.5-1,1.1-1.3,1.8 s-0.4,1.5-0.4,2.2c0,0.6,0.5,1.1,1.1,1.1c0.7,0.1,1.3-0.4,1.3-1.1v-0.1c0-0.4,0.1-0.7,0.3-1c0.2-0.3,0.4-0.6,0.8-0.8 c0.7-0.5,1.5-0.9,2.5-1.2s1.9-0.4,3-0.5s2.2-0.1,3.2-0.1c2.1,0,4.2,0.2,6.1,0.8s3.6,1.4,4.8,2.7c2.6,2.5,3.2,6.6,1.7,9.6 c-0.4,0.8-0.8,1.5-1.4,2.1s-1.3,1.2-2.1,1.7c-1.6,1-3.5,1.9-5.6,2.8c-2.1,1-4.4,2-6.5,3.8s-3.6,4.1-4.6,6.6s-1.4,5.1-1.3,7.7 c0,0.7,0.1,1.3,0.2,2v0.2l0.1,0.3c0,0.2,0.1,0.5,0.2,0.7c0.1,0.4,0.3,0.9,0.5,1.3c0.9,1.6,2.3,2.9,4.1,3.5 c0.4,0.1,0.9,0.3,1.3,0.3l0.7,0.1h0.4c0.6,0,1.1,0.1,1.7,0.2l3.3,0.4c2.2,0.2,4.5,0.4,6.7,0.4s4.5-0.1,6.7-0.3 c2.3-0.2,4.5-0.5,6.8-1c0.4-0.1,0.8-0.4,0.9-0.8C452.5,175.3,452.2,174.6,451.5,174.3z" style="fill:#1a1a1a"/><path d="M534.3,174.3c-2.2-0.7-4.4-1.2-6.7-1.6c-2.2-0.4-4.5-0.8-6.7-1s-4.5-0.4-6.7-0.4h-3.4h-1.7h-0.8 c-0.2,0-0.2,0-0.2,0H508c-0.3,0-0.5-0.2-0.5-0.4c0-0.1,0-0.1,0-0.2l-0.1-0.7c0-0.4-0.1-0.9-0.1-1.4c0-1.8,0.4-3.7,1.2-5.3 c0.7-1.7,1.8-3.1,3.1-4.3c0.6-0.6,1.4-1.1,2.2-1.7c0.8-0.5,1.7-1,2.7-1.5c1.9-1,4.1-2,6.2-3.5c2.1-1.5,4.1-3.7,5.2-6.3 c1.1-2.6,1.3-5.5,0.7-8.1c-0.6-2.7-2.1-5.2-4.1-6.9c-2-1.8-4.5-2.9-6.9-3.4c-2.4-0.5-4.9-0.6-7.2-0.5c-1.2,0.1-2.3,0.2-3.5,0.4 c-1.2,0.2-2.4,0.4-3.6,0.9c-1.2,0.4-2.3,1-3.4,2c-0.5,0.5-1,1.1-1.3,1.8s-0.4,1.5-0.4,2.2c0,0.6,0.5,1.1,1.1,1.2 c0.7,0.1,1.3-0.4,1.3-1.1v-0.1c0-0.4,0.1-0.7,0.3-1c0.2-0.3,0.4-0.6,0.8-0.9c0.7-0.5,1.6-0.9,2.5-1.2c1-0.3,1.9-0.4,3-0.5 s2.2-0.1,3.2-0.1c2.1,0,4.2,0.2,6.1,0.8c1.9,0.6,3.6,1.5,4.9,2.8c2.6,2.5,3.2,6.6,1.7,9.7c-0.8,1.5-1.9,2.8-3.5,3.8 s-3.6,1.8-5.6,2.8c-2.1,1-4.4,2-6.5,3.9c-2.1,1.8-3.6,4.1-4.6,6.6s-1.5,5.1-1.4,7.8c0,0.7,0.1,1.3,0.2,2l0.2,1 c0.1,0.4,0.2,1,0.5,1.5c0.9,1.9,2.6,3.3,4.5,3.7c0.2,0.1,0.5,0.1,0.7,0.1l0.6,0.1l0.8,0.1l1.7,0.2l3.4,0.3 c2.2,0.2,4.5,0.3,6.7,0.3s4.5-0.1,6.8-0.3s4.5-0.5,6.8-1c0.4-0.1,0.8-0.4,0.9-0.8C535.3,175.3,534.9,174.5,534.3,174.3z" style="fill:#1a1a1a"/><path d="M487.4,147.7c-1.4-0.5-2.8-0.8-4.2-0.9c-0.6-0.1-1.2-0.1-1.8-0.2c0-0.6-0.1-1.2-0.2-1.8 c-0.2-1.4-0.4-2.8-0.9-4.2c-0.1-0.3-0.4-0.6-0.8-0.8c-0.7-0.2-1.4,0.1-1.7,0.8c-0.5,1.4-0.8,2.8-0.9,4.2 c-0.1,0.6-0.1,1.2-0.2,1.8c-0.6,0-1.2,0.1-1.8,0.2c-1.4,0.2-2.8,0.4-4.2,0.9c-0.4,0.1-0.7,0.4-0.8,0.8c-0.2,0.7,0.1,1.4,0.8,1.7 c1.4,0.5,2.8,0.7,4.2,0.9c0.6,0.1,1.2,0.1,1.8,0.2c0,0.6,0.1,1.2,0.2,1.8c0.2,1.4,0.4,2.8,0.9,4.2c0.1,0.4,0.4,0.7,0.8,0.8 c0.7,0.2,1.4-0.1,1.7-0.8c0.5-1.4,0.7-2.8,0.9-4.2c0.1-0.6,0.1-1.2,0.2-1.8c0.6,0,1.2-0.1,1.8-0.2c1.4-0.2,2.8-0.4,4.2-0.9 c0.3-0.1,0.6-0.4,0.8-0.8C488.5,148.7,488.1,148,487.4,147.7z" style="fill:#1a1a1a"/><path d="M551.6,146.3c2.1,0.2,4.1,0.3,6.2,0.3c2.1,0,4.1-0.1,6.2-0.3c2.1-0.2,4.1-0.4,6.2-0.9 c0.4-0.1,0.8-0.5,0.9-0.9c0.2-0.7-0.2-1.4-0.9-1.5c-2.1-0.5-4.1-0.8-6.2-0.9c-2.1-0.2-4.1-0.3-6.2-0.3c-2.1,0-4.1,0.1-6.2,0.3 c-2.1,0.2-4.1,0.4-6.2,0.9c-0.4,0.1-0.8,0.5-0.9,0.9c-0.2,0.7,0.3,1.4,0.9,1.5C547.5,145.9,549.5,146.1,551.6,146.3z" style="fill:#1a1a1a"/><path d="M570.7,153.6c-2-0.6-4-1-6.1-1.3c-2-0.3-4.1-0.5-6.1-0.6s-4.1-0.1-6.1-0.1c-2.1,0.1-4.1,0.2-6.2,0.6 c-0.4,0.1-0.8,0.4-1,0.9c-0.2,0.7,0.2,1.4,0.8,1.6c2,0.6,4,1,6.1,1.3c2,0.3,4.1,0.5,6.1,0.6s4.1,0.1,6.1,0.1 c2.1-0.1,4.1-0.2,6.2-0.6c0.4-0.1,0.8-0.4,1-0.9C571.7,154.5,571.3,153.8,570.7,153.6z" style="fill:#1a1a1a"/></g></g></g><g><line x1="723.9" x2="753.4" y1="654.6" y2="654.6" style="fill:none;stroke:#1a1a1a;stroke-width:2.4463;stroke-linecap:round;stroke-linejoin:round;stroke-miterlimit:10"/><line x1="517.4" x2="543.4" y1="654.6" y2="654.6" style="fill:none;stroke:#1a1a1a;stroke-width:2.4463;stroke-linecap:round;stroke-linejoin:round;stroke-miterlimit:10"/><line x1="473.4" x2="496.4" y1="654.6" y2="654.6" style="fill:none;stroke:#1a1a1a;stroke-width:2.4463;stroke-linecap:round;stroke-linejoin:round;stroke-miterlimit:10"/><line x1="308.4" x2="462.4" y1="654.6" y2="654.6" style="fill:none;stroke:#1a1a1a;stroke-width:2.4463;stroke-linecap:round;stroke-linejoin:round;stroke-miterlimit:10"/><line x1="56.5" x2="113.5" y1="654.6" y2="654.6" style="fill:none;stroke:#1a1a1a;stroke-width:2.4463;stroke-linecap:round;stroke-linejoin:round;stroke-miterlimit:10"/></g><ellipse cx="210.9" cy="726.2" rx="193.5" ry="27" style="fill:#fece2f"/><ellipse cx="648.9" cy="726.2" rx="101.9" ry="43.1" style="fill:#fece2f"/><g><g><g><path d="M647.8,357.3c0,0,28.4,6.4,43.5,30.5s9.1,68.8-14.4,94l-7.9-30c0,0-20.9,7.8-48.5,10.2s-50.8-3-50.8-3 l-0.2,33.9c0,0-14.6-13-25.8-40.1c0,0-10.9-21.8-2.5-45.6c0,0,10.8-30.6,39.6-41.4c0,0,13,15,36,11.1S647.8,357.3,647.8,357.3z" style="fill:#fece2f"/></g><g><path d="M585.9,370c-3.2-2.3-4.9-4.3-4.9-4.3c-28.9,10.8-39.6,41.4-39.6,41.4c-8.4,23.9,2.5,45.6,2.5,45.6 c5.8,14.2,12.6,24.5,17.8,31.1c0.4,0.1,0.6,0.2,0.6,0.2c6.2-11.2-21.5-29-13.2-71.8C553.5,388.9,577.6,374.4,585.9,370z" style="fill:#fff"/></g><g><path d="M633.1,354.5l14.8,2.8c0,0-7.1,23.8-32.8,25.6S581,365.8,581,365.8l10.2-5.4l20.9-4.4L633.1,354.5z" style="fill:#fff"/></g><g><path d="M570.6,436.3c0,0,12.2,5.6,34.9,3.8C637.6,437.5,661,423,661,423l4.9,16.4c0,0-25.5,15.9-52.8,15.2 c-19.9-0.5-31.9-5.6-43-3.4L570.6,436.3z" style="fill:#1a1a1a"/></g><g><path d="M586.7,415.4c0.9,2.2,2.7,4,4.8,5.1c2.1,1.2,4.5,1.9,6.9,2.4c4.8,0.9,9.9,1.2,14.8,0.7 c2.5-0.3,4.9-0.7,7.2-1.5c2.4-0.7,4.5-1.8,6.8-2.9s5.1-2,7.9-1.3c1.4,0.3,2.7,1.1,3.7,2.3c0.9,1.2,1.4,2.8,1.1,4.4 c-0.3,1.6-1.4,2.8-2.5,3.6c-1.2,0.9-2.6,1.3-3.9,1.5c-1.3,0.2-2.6,0.3-3.9,0.3c-1.3,0.1-2.5,0.1-3.8,0.1 c-5.1,0.1-10.1-0.1-15.1-0.3c-10-0.3-20.1-0.5-29.8,2c-0.3,0.1-0.5-0.1-0.6-0.4s0.1-0.5,0.3-0.6c4.9-1.4,9.9-2.2,15-2.6 c5.1-0.3,10.1-0.3,15.2-0.2c5,0.1,10.1,0.2,15.1,0.1c1.3,0,2.5-0.1,3.7-0.1c1.3-0.1,2.5-0.1,3.6-0.3c1.1-0.2,2.2-0.6,3.1-1.2 c0.9-0.6,1.5-1.5,1.7-2.4s-0.1-1.9-0.7-2.7c-0.6-0.8-1.6-1.4-2.6-1.6c-1-0.3-2.2-0.2-3.3,0s-2.2,0.6-3.4,1.1l-3.4,1.6 c-1.2,0.5-2.4,1-3.6,1.4c-2.5,0.8-5,1.2-7.6,1.5c-2.6,0.2-5.1,0.2-7.7,0.1c-2.5-0.2-5.1-0.5-7.6-1c-2.5-0.6-5-1.4-7.2-2.8 s-4.2-3.4-5.1-5.9c-0.1-0.3,0-0.6,0.3-0.7C586.3,415,586.6,415.1,586.7,415.4z" style="fill:#fff"/></g><g><path d="M613.1,394.3c3,0.8,6.1,1,9.2,0.8c3.1-0.2,6.1-0.9,9-2c2.9-1,5.7-2.5,8.3-4.2s5-3.7,7.4-5.8 c0.2-0.2,0.5-0.2,0.7,0s0.2,0.5,0,0.7c-2.1,2.4-4.5,4.6-7.1,6.5s-5.5,3.5-8.6,4.6s-6.3,1.8-9.6,1.9s-6.6-0.4-9.6-1.6 c-0.3-0.1-0.4-0.4-0.3-0.7C612.6,394.4,612.9,394.2,613.1,394.3z" style="fill:#fff"/></g><path d="M690.8,384.5c-11.8-17.2-30.4-27.6-55.3-30.9c-0.8-0.1-1.6-0.2-1.8-0.3c-0.6-0.2-1.3,0.1-1.5,0.7 s0.1,1.3,0.7,1.6c0.3,0.1,0.8,0.2,2.2,0.4c3.8,0.5,7.5,1.2,11,2c-1.3,4.4-7.7,21.5-30.2,23.8c-10.6,1.1-19.6-1.4-26.8-7.4 c-4.1-3.4-6.4-7.1-7.3-8.7c5.6-2.7,9.4-3.8,9.5-3.8c0.7-0.2,1-0.9,0.9-1.5c-0.2-0.7-0.9-1-1.5-0.9c-0.3,0.1-27.9,7.9-44,33.9 c-12.4,19.9-18.7,53.6,21.7,100.5c0.2,0.3,0.6,0.4,0.9,0.4c0.3,0,0.6-0.1,0.8-0.3c0.5-0.4,0.6-1.2,0.1-1.7 c-9.9-11.5-17.4-22.7-22.4-33.5c10.1-8.3,22.2-7.8,22.2-7.8l0.7-19c-13.9-3.9-25.8,4.4-29.5,7.3c-0.9-4.6-1.4-9.1-1.4-13.5 c3.5-5.8,13.9-21.2,29.1-20.7c24.4,0.9,39.4,14.2,58,9.4c28.3-7.4,40.4-35.5,67.5-18c2.5,6.4,3.9,13.6,4.2,21.2 c-3.4-2.1-15.2-7.5-39-0.1l4.4,17.8c0,0,20.2-6.6,33.7-1.2c-0.2,1-0.3,2-0.5,3.1c-3.2,17.4-11.1,34-20.7,43.4 c-0.5,0.5-0.5,1.2,0,1.7c0.2,0.2,0.6,0.4,0.9,0.4c0.3,0,0.6-0.1,0.9-0.4c9.9-9.8,18.1-26.9,21.4-44.7 C703.4,417.1,700.3,398.2,690.8,384.5z M662.1,385c-16.1,7.3-21.4,17.2-41.1,17.8c-10,0.3-28-6.5-45-7.6 c-17.6-1.1-25.5,2.5-32.1,9.7c1.3-3.4,3-6.8,5-10c6.8-11,15.8-18.6,23.7-23.7c2.4,4.4,16.4,26.6,49.4,20.5 c25.6-4.8,30.7-25.9,31.6-31.4c13.1,4.3,23.7,11.4,31.7,21C681.8,380.4,673.9,379.7,662.1,385z" style="fill:#1a1a1a"/></g><g><g><path d="M671.4,461c0,0,5.5,15.3,7.2,29.5s6.3,57,6.3,57l5.3,37.7c0,0,13.8,71,19.2,83.5c-1,0.3-19.8,18.5-46.2,12.2 l-9.5-16.3c0,0-30.7,3.8-41-3.2l-3.3-5.2L595.9,624c0,0-13.2-41.2-16-56.3c-2.8-15.2-13-70.2-10.5-99.8l54.3,0.2L671.4,461z" style="fill:#fece2f"/></g><g><path d="M621.4,498.4c0,0,0.9,20.9,5.5,47.5c7.8,45,16.9,29.3,19,57.5c2.2,30.8,12.6,55.4,26.1,78.5l-8.8-1.1 c0,0-15.2-20.5-30.2-77.5S615.8,498,615.8,498L621.4,498.4z" style="fill:#fff"/></g><g><path d="M569.8,459c0,0,43.7,11.3,98.3-7.3l3.3,9.3c0,0-26.7,11-56.5,11.8s-45.5-5-45.5-5L569.8,459z" style="fill:#fff"/></g><g><path d="M579.9,567.6c2.8,15.2,16,56.3,16,56.3l13.5,32.2l3.3,5.2c1.9,1.3,4.6,2.2,7.6,2.9 c-1.2-2-18.4-32.3-30.9-91.2c-13-61-11.3-101.7-11.3-101.7l-8.7-3.5l0.1,25C571.4,521.7,577.8,556.1,579.9,567.6z" style="fill:#fff"/></g><g><path d="M651.6,467.7c0,0-3.7,28.9,29.3,42.9l-1-7.5c0,0-11.5-1.8-19.2-14.1s-7.3-21.5-7.3-21.5L651.6,467.7z" style="fill:#fff"/></g><g><path d="M680.4,517.8c-0.1-0.5-0.1-0.7-0.1-0.7L680.4,517.8z" style="fill:#1a1a1a"/><path d="M710.6,669.7c0-0.1,0.1-0.1,0.1-0.2c0-0.1,0-0.1,0-0.2c0-0.1,0-0.2,0-0.3l0,0 c-19.6-62.1-26.4-136.3-28.6-160.7c-1.8-19.3-5.9-34.7-8.9-45.9l-0.5-1.7c-4.9-18.4-15.9-58.2-16-58.6c-0.2-0.7-0.9-1-1.5-0.9 c-0.7,0.2-1,0.9-0.9,1.5c0.1,0.3,7.9,28.8,13.3,48.7c-51.6,16.4-91.7,7.7-96.8,6.5c0.5-29.9,3.8-48.5,3.8-48.7 c0.1-0.7-0.3-1.3-1-1.4s-1.3,0.3-1.4,1c0,0.3-4.1,23.3-3.9,59.3c0,0,0,0,0,0.1c-0.1,0.2,0,0.5,0,0.7c0,5.6,0.2,11.5,0.4,17.7 c1.8,42.8,10.5,107.8,41.6,174.4c0,0.1,0.1,0.1,0.1,0.2c0.5,0.7,4.7,5.8,25.8,5.8c4.8,0,10.5-0.3,17.3-0.9c2.8,6,5.4,11,7.9,15.3 c0.1,0.1,0.1,0.2,0.2,0.3c0,0,0,0,0.1,0c0.1,0.1,0.2,0.1,0.3,0.2c0,0,0,0,0.1,0c0.4,0.1,4.8,1.6,11.7,1.6 c8.9,0,21.9-2.4,36.4-13.1l0,0c0.1-0.1,0.1-0.1,0.2-0.2c0-0.1,0.1-0.1,0.1-0.2C710.5,669.8,710.5,669.7,710.6,669.7z M678.9,502.4c-23.2-8.9-24.1-30.7-24-34.8c5.1-1.4,10.4-3,15.7-5l0.1,0.4C673.4,472.9,676.9,486.1,678.9,502.4z M668.2,453.7 c0.6,2.3,1.2,4.5,1.8,6.5c-17.5,6.5-34.1,9.5-48.6,10.6l-0.7-7.8C634.3,462,650.5,459.3,668.2,453.7z M598,463.6 c2.1,0.1,4.3,0.1,6.6,0.1c0.1,0,0.3,0,0.4,0l0.4,7.7c-18.4-0.2-31.3-3.1-34.8-3.9c0-2.4,0-4.8,0-7.1 C573.9,461.1,583.6,463.1,598,463.6z M576.5,485.4c-0.6,7.8-2.2,13.1-4.5,15.4c-0.4-5-0.7-9.9-0.8-14.4 c-0.2-5.7-0.4-11.2-0.4-16.4c1.3,0.3,3.3,0.8,6,1.2C576.8,472.5,577.1,478.8,576.5,485.4z M663.3,679.6 c-19.9-35.3-31.6-82.6-37.9-116.1c-6.2-33-8.6-59.5-9-64.5c3.6-0.1,7.8-0.4,12.7-1.1c0.7-0.1,1.1-0.7,1.1-1.4 c-0.1-0.7-0.7-1.1-1.4-1.1c-16.1,2.1-25.7,0.6-25.8,0.6c-0.7-0.1-1.3,0.4-1.4,1s0.4,1.3,1,1.4c0.2,0,3.5,0.5,9.5,0.5 c0.6,0,1.2,0,1.8,0c0.3,3.2,1.5,17.1,4.3,36.6c0,6.4-0.9,13.2-3.4,19c-3,6.8-10.1,7.5-4.1,14s17.2,22.2,14.1,28.1 c-2.2,4.2-10-4.1-12.2,0.1c-2.4,4.5,8.5,8.5,16.5,19.8c9.5,13.4,17.9,43.2,19,47.3c-28.8,2.1-35-3.7-35.6-4.3 c-26.9-57.8-36.9-114.3-40.3-156c7.9-4.5,7.3-26.8,7-32c6.7,1.1,16.3,2.2,28,2.2c13,0,28.5-1.4,45.3-5.6 c0.2,5.8,2.4,28.3,26.8,36.9c0.1,1.1,0.2,2.2,0.3,3.3c0.3,2.8,0.6,6.3,1,10.4l-0.1-1.1c0.1,0.4,0.1,1,0.2,1.8 c0.1,1,0.2,2,0.3,3.1c0.7,8.4,1.1,24.3-4.7,33c-9.4,14-7.4,22.1,0.2,29.8c10.3,10.3,18.7,36.6,22.4,49.9 c2.7,11.3,5.7,22.6,9.2,33.6C685.4,685.1,666.3,680.5,663.3,679.6z" style="fill:#1a1a1a"/></g></g><g><g><path d="M628.8,345.3l-8.9-28c0,0,12.2-1.4,9.1-15.8c0,0-2.9-6.4-11.6-4.5c0,0-3-14.6-8.8-15.9l-32.5,11.5 l-11.9,13.5c0,0-0.1,13.1,4.2,15.8l6,1.6c0,0-3.6,12.6,1.1,17.2s9.6,5.9,16.4,4l0.2,7.5c0,0,8,4.6,19.8,2.8 S628.8,345.3,628.8,345.3z" style="fill:#fece2f"/></g><g><path d="M582.4,340.5c-3-2-5.4-5.1-5.9-8.7c-0.4-2.4,0.1-4.9,0.7-7.4c0.4-1.5,0.8-3.1,0.2-4.5 c-0.5-1.4-1.8-2.3-2.8-3.4c-3.6-3.6-2.9-7.4-3.2-11.9c-0.1-1.9-0.7-3.5-1.6-4.6l-5.4,6.1c0,0-0.1,13.1,4.2,15.8l6,1.6 c0,0-3.6,12.6,1.1,17.2c4.5,4.4,9.1,5.7,15.3,4.3c0.6-0.4,1.1-0.8,1.7-1.3C589,343.5,585.4,342.5,582.4,340.5z" style="fill:#fff"/></g><g><path d="M580.6,334.3c-0.2,0-0.4,0-0.5-0.1c-0.9-0.5-4-2.1-4.5-3.9c-0.6-2.2,2.3-3.6,4.4-4.6 c0.2-0.1,0.4-0.2,0.5-0.3c0.1-0.5-0.2-1.7-0.5-2.7c-0.2-0.6,0.1-1.3,0.7-1.6c0.6-0.2,1.3,0.1,1.6,0.7c0.5,1.3,1.4,4.5-0.4,5.5 c-0.2,0.1-0.5,0.3-0.8,0.4c-0.7,0.3-2.7,1.3-3.1,1.9c0.3,0.5,1.8,1.5,3.2,2.2c0.6,0.3,0.9,1,0.6,1.6 C581.5,334,581.1,334.3,580.6,334.3z" style="fill:#1a1a1a"/></g><g><path d="M586.5,316.4c0.7-0.4,1.6-0.8,2.4-1.2c0.8-0.4,1.6-0.8,2.4-1.3c0.8-0.4,1.6-0.9,2.4-1.3 c0.8-0.5,1.6-1,2.5-1.4h0.1c0.6-0.3,1.4-0.1,1.7,0.6c0.2,0.4,0.2,0.9-0.1,1.3c-1.2,1.8-2.9,3.2-4.8,4.2c-1,0.5-2,0.9-3,1.2 c-1.1,0.3-2.1,0.5-3.3,0.4c-0.7,0-1.2-0.6-1.1-1.3c0-0.4,0.3-0.8,0.7-1L586.5,316.4z" style="fill:#1a1a1a"/></g><g><path d="M566,321.2c0.7-0.2,1.5-0.3,2.3-0.5s1.5-0.3,2.3-0.5s1.5-0.3,2.3-0.5s1.5-0.4,2.4-0.5h0.1 c0.7-0.1,1.3,0.3,1.5,1c0.1,0.4-0.1,0.8-0.4,1.1c-1.4,1.3-3.2,2.2-5,2.6c-0.9,0.2-1.9,0.3-2.8,0.3c-1,0-1.9-0.1-2.9-0.5 c-0.6-0.2-1-1-0.7-1.6c0.1-0.4,0.5-0.7,0.8-0.8L566,321.2z" style="fill:#1a1a1a"/></g><g><path d="M590.3,323.4c-0.4,0-0.7,0-1.1-0.1c-0.7-0.1-1.1-0.7-1.1-1.4c0.1-0.7,0.7-1.1,1.4-1.1c0.2,0,4.8,0.5,6.4-3.3 c0.3-0.6,1-0.9,1.6-0.7c0.6,0.3,0.9,1,0.7,1.6C596.7,322.4,592.8,323.4,590.3,323.4z" style="fill:#1a1a1a"/></g><g><path d="M569.9,328.1c-0.8,0-1.3-0.1-1.4-0.1c-0.7-0.1-1.2-0.7-1.1-1.4c0.1-0.7,0.7-1.1,1.4-1.1 c0.1,0,4.3,0.5,6.9-1.6c0.5-0.4,1.3-0.3,1.7,0.2s0.3,1.3-0.2,1.7C574.9,327.8,571.7,328.1,569.9,328.1z" style="fill:#1a1a1a"/></g><g><path d="M590.2,339.4c-0.1,0-0.2,0-0.3,0c-0.7-0.2-1-0.8-0.9-1.5c0.5-1.9,2.9-5.5,8-5.7c0.6,0,1.2,0.5,1.2,1.2 s-0.5,1.2-1.2,1.2c-4.7,0.1-5.7,3.8-5.7,3.8C591.2,339,590.7,339.4,590.2,339.4z" style="fill:#1a1a1a"/></g><g><path d="M621.5,318.2c6.8-1.8,9.8-7.4,9.7-12.3c-0.1-5.3-3.4-9.5-8.1-10.1c-1.8-0.3-3.4-0.1-4.8,0.3 c-1.4-9.6-8.2-16.2-8.5-16.5c-0.5-0.5-1.3-0.5-1.7,0s-0.5,1.3,0,1.7c0.1,0.1,6.8,6.8,7.9,15.9c-2.7,1.9-4.2,4.9-4.6,7 c-0.1,0.7,0.3,1.3,0.9,1.5c0.7,0.1,1.3-0.3,1.5-0.9c0.1-0.3,1.8-7.6,9-6.6c4,0.6,5.9,4.4,6,7.8c0.1,3.9-2.3,9-9.1,10.2 c-0.3,0.1-0.6,0.3-0.8,0.6c-0.2,0.3-0.2,0.7-0.1,1l9,27.9c0.2,0.5,0.6,0.8,1.2,0.8c0.1,0,0.2,0,0.4-0.1c0.6-0.2,1-0.9,0.8-1.5 L621.5,318.2z" style="fill:#1a1a1a"/><path d="M609.9,333.9c-2.3-1.5-4.4,0-5.2,1.1c-3.5,3.8-8.1,7.1-12.9,8.6l0,0c-4.5,1.4-9.1,1.3-13.2-1.4 c-6.3-4.1-4.7-11.3-3.7-15.6c0.2-1,0.4-1.8,0.4-2.4c0.2-2.8-2-3.1-3.5-3.4c-1.1-0.2-2.3-0.4-3.6-1.1c-2.1-1.1-2.8-9.7-2.7-15.1 c0-0.7-0.5-1.2-1.2-1.3c-0.7,0-1.2,0.5-1.3,1.2c-0.1,2.5-0.1,15,4,17.3c1.7,0.9,3.3,1.2,4.4,1.4c0.5,0.1,1.3,0.2,1.4,0.4 c0,0,0.1,0.1,0,0.5c0,0.4-0.2,1.2-0.4,2c-1,4.3-2.9,13.1,4.8,18.2c2.8,1.9,5.9,2.7,9,2.7c1.5,0,3.1-0.2,4.6-0.6l-0.2,5.6 c0,0.7,0.5,1.2,1.2,1.3l0,0c0.2,0,0.4-0.1,0.6-0.2l2.2,0.9c0.1,0.1,0.3,0.1,0.5,0.1c0.3,0,0.5-0.1,0.8-0.3 c0.3-0.3,0.5-0.7,0.4-1.2c-0.7-4.2,7.5-7.9,11-9.4c2.5-1.1,4.1-3.1,4.3-5.4C611.8,336.1,611.2,334.7,609.9,333.9z" style="fill:#1a1a1a"/></g><path d="M624.6,302.7c-3-2.7-6.9-0.8-7.1-0.7c-0.6,0.3-0.8,1-0.5,1.6s1,0.8,1.6,0.5c0,0,0.8-0.4,1.9-0.5l-2,3.6 c-0.3,0.6-0.1,1.3,0.5,1.7c0.2,0.1,0.4,0.2,0.6,0.2c0.4,0,0.8-0.2,1.1-0.6l2.3-4.1l0.1,0.1c1.7,1.5,0.7,3.8,0.7,3.9 c-0.3,0.6,0,1.3,0.6,1.6c0.2,0.1,0.3,0.1,0.5,0.1c0.5,0,0.9-0.3,1.1-0.7C626,309.3,627.6,305.5,624.6,302.7z" style="fill:#1a1a1a"/><g><circle cx="601.8" cy="296" r="1.6" style="fill:#1a1a1a"/></g><g><ellipse cx="606.5" cy="291.6" rx="1.1" ry="1.1" transform="matrix(0.9846 -0.1746 0.1746 0.9846 -41.5972 110.3747)" style="fill:#1a1a1a"/></g><g><ellipse cx="606.4" cy="298.1" rx="1.1" ry="1.1" transform="matrix(0.9846 -0.1746 0.1746 0.9846 -42.7336 110.4572)" style="fill:#1a1a1a"/></g><g><ellipse cx="604.7" cy="302.4" rx=".7" ry=".7" transform="matrix(0.9846 -0.1746 0.1746 0.9846 -43.51 110.2266)" style="fill:#1a1a1a"/></g><g><ellipse cx="608.5" cy="302.7" rx="1.1" ry="1.1" transform="matrix(0.9846 -0.1746 0.1746 0.9846 -43.5042 110.8949)" style="fill:#1a1a1a"/></g><g><ellipse cx="611" cy="297.5" rx="1.4" ry="1.4" transform="matrix(0.9846 -0.1746 0.1746 0.9846 -42.558 111.2514)" style="fill:#1a1a1a"/></g><g><ellipse cx="609.7" cy="293.7" rx="1" ry="1" transform="matrix(0.9846 -0.1746 0.1746 0.9846 -41.9144 110.966)" style="fill:#1a1a1a"/></g><g><ellipse cx="610.9" cy="289.4" rx="1.4" ry="1.4" transform="matrix(0.9846 -0.1746 0.1746 0.9846 -41.1453 111.1093)" style="fill:#1a1a1a"/></g><g><ellipse cx="613.5" cy="293.7" rx=".9" ry=".9" transform="matrix(0.9846 -0.1746 0.1746 0.9846 -41.8562 111.6297)" style="fill:#1a1a1a"/></g><path d="M614.8,276c-0.1-0.2-14.4-18-37.4-8l1.3-3.3c0.2-0.6-0.1-1.3-0.7-1.6c-0.6-0.2-1.3,0.1-1.6,0.7l-2.2,5.7l0,0 l-4.5-2.8c-0.6-0.4-1.3-0.2-1.7,0.4s-0.2,1.3,0.4,1.7l3.5,2.2c-1.7,1.2-3.9,3-6.1,5.6c-4.2,5.1-9.2,14.2-8.7,29c0,0.6,0.4,1,1,1.2 c0.1,0,1.3,0.3,3.5,0.3c3.2,0,8.6-0.6,15.6-3.2c0.5-0.2,0.8-0.6,0.8-1.1l0.1-8l4.1,5.6c0.3,0.5,1,0.6,1.5,0.4 c0.8-0.4,20.9-9.7,31.2-23.2C615.2,277.1,615.2,276.4,614.8,276z" style="fill:#1a1a1a"/><g><g><path d="M600.2,279.1c-0.3,0-0.7-0.1-0.9-0.4c-4.8-5.2-11-5.1-11.1-5.1c-0.6,0-1.2-0.5-1.3-1.2 c0-0.7,0.5-1.2,1.2-1.3c0.3,0,7.4-0.1,12.9,5.9c0.5,0.5,0.4,1.3-0.1,1.7C600.8,279,600.5,279.1,600.2,279.1z" style="fill:#fff"/></g><g><path d="M598.2,286.5c-0.5,0-1-0.3-1.2-0.9c-1.3-4-6.1-5.4-6.2-5.4c-0.7-0.2-1-0.9-0.9-1.5c0.2-0.7,0.8-1,1.5-0.9 c0.2,0.1,6.2,1.7,7.8,7c0.2,0.6-0.1,1.3-0.8,1.5C598.4,286.5,598.3,286.5,598.2,286.5z" style="fill:#fff"/></g></g></g><g><g><path d="M644.1,665.1l6.4,31.1c0,0-8.9,5.1-15,3.4s-8.6-8.5-8.6-8.5s-3.5-4-5.9-3.5c0,0-9.8-26.7-9-26.5 S619.3,666.8,644.1,665.1z" style="fill:#fece2f"/></g><g><path d="M653.8,706.9c0,0,3.4,3.9,0.6,6.2s-12.2,7.9-31.5,10.8s-31.5,2-35.5,1.5s-8.4-2-6.5-8.4 c0,0,0.5,3.2,10.1,3.2s35.9-3.4,35.9-3.4l21.4-6.9L653.8,706.9z" style="fill:#fff"/></g><path d="M656.4,710.4c-1.5-8.1-4.2-13.4-4.8-14.4l-6-30.2c-0.1-0.7-0.8-1.1-1.4-1c-0.3,0.1-0.5,0.2-0.7,0.4 c-1.5,0.1-6.3,0.4-13.3,0c-7.2-0.4-14.9-3.2-17-3.7l-0.7-1.6c-0.2-0.6-0.9-1-1.5-0.8s-1,0.9-0.8,1.5l9.1,26.9 c-0.8,0.7-1.5,1.8-2.1,3.5c-3.2,10.5-11.2,12.1-21.5,14.1c-1.1,0.2-2.2,0.4-3.3,0.7c-5.5,1.2-9.8,4.1-12.2,8.3l-0.1,0.1 c-1.7,3-2.2,7.4,0.3,10c1.7,1.7,5.9,3.3,15.7,3.3c5.7,0,13.4-0.5,23.6-1.9c7.8-1.1,31-5.5,35.7-12 C656.3,712.6,656.6,711.5,656.4,710.4z M615.6,668.7c1.5,0.9,5.3,2.3,14.6,1.3c10.3-1.1,14.2,4.4,16.1,11.4l2.9,14.5 c-0.7,0.5-2.8,1.5-8.6,2.7c-5.5,1.1-10-1.5-12.2-7.1c-1.1-3-3.7-5.1-6.2-5.1c-0.2,0-0.3,0-0.5,0L615.6,668.7z M653.6,712.2 c-3.6,5-24,9.7-34,11c-20.1,2.7-34,2.5-37.2-0.7c-1-1-1.2-2.5-0.9-4.1c0.1,0.1,0.2,0.3,0.3,0.4c1.6,1.8,4.3,2.8,8,2.8 c0.4,0,1.1,0,2,0c9.1,0,41.6-0.9,61.8-13c0.2,0.7,0.3,1.4,0.4,2.1C654,711,654.1,711.5,653.6,712.2z" style="fill:#1a1a1a"/></g><g><g><path d="M697.7,676.3l5.8,19.9c0,0-6.5,11.5-10.1,9.9s-8.9-11-16.6-5.5l-4.6-18.6 C672.1,681.9,684.9,682.3,697.7,676.3z" style="fill:#fece2f"/></g><g><path d="M706.3,708.1c0,0,1.5,5.1,1,6.4c-0.5,1.3-12.4,21.2-12.9,21.4s-10,12.2-16.7,15.8s-12.1,4.2-12.8,4.2 s-8.9,0.1-9.4-6.1c0,0,3.9,3.8,12.6,0.7c8.7-3.2,11.2-6.6,11.2-6.6l10.5-9.6c0,0,11.7-17.3,11.8-17.8 C701.7,716.1,706.3,708.1,706.3,708.1z" style="fill:#fff"/></g><path d="M704.4,695.8l-5.3-19.2c-0.2-0.7-0.9-1-1.5-0.9c-0.5,0.1-0.8,0.5-0.9,1c-2.9,1.2-12.3,4.8-23.9,5.2 c-0.3-0.3-0.8-0.5-1.3-0.3c-0.6,0.2-1,0.9-0.7,1.6c0,0.1,3.9,11,4,18.2v0.1c-0.5,0.7-0.9,1.5-1.1,2.4c-2.1,7.6-9.7,17.9-13.3,22.9 c-0.8,1-1.3,1.8-1.7,2.3c-7,10.5-5.4,17.1-4.8,18.7c-0.3,2.6,0.4,4.9,1.8,6.6c1.6,1.9,4.2,3,7.3,3.1c0.2,0,0.3,0,0.5,0 c22.6,0,42.5-36.4,44.5-41.6C710.1,710.6,705.1,697.5,704.4,695.8z M684.8,687c12.8-4.3,15.1,1.8,15.1,1.8v-0.2l2,7.4 c-4.1,7.1-6.8,8.8-8.3,8.9c-1.8,0.1-3.1-1.6-4.3-3.2c-0.3-0.3-0.5-0.7-0.8-1c-0.2-0.2-0.3-0.4-0.5-0.6c-2.1-2.1-5.1-3-8-2.2 c-1,0.3-2,0.7-2.8,1.3c-0.4-3.7-1.3-7.9-2.3-11.1C676.5,688.4,679.6,688.7,684.8,687z M705.8,714.9c-1,2.4-6.3,12.6-14.1,22.1 c-6.8,8.2-17.1,17.9-28.1,17.9c-0.2,0-0.3,0-0.5,0c-2.4-0.1-4.3-0.8-5.5-2.2c-0.3-0.4-0.6-0.8-0.8-1.2c1.2,0.8,2.9,1.3,5.2,1.3 c1,0,2.1-0.1,3.4-0.4c16.7-2.9,34.4-28.7,40.5-42.3C706.2,712.2,706.2,713.9,705.8,714.9z" style="fill:#1a1a1a"/></g><g><g><path d="M628.8,345.3l4.2,9.2l-12.4,16.8l-8.6-15.2C612.1,356,625.1,353.8,628.8,345.3z" style="fill:#fff"/></g><g><path d="M612.1,356l-5.8,16.8c0,0-15.2-12-15.1-12.4s1.1-8.1,1.1-8.1S606.3,357,612.1,356z" style="fill:#fff"/></g><path d="M634.5,354l-4.5-9.4c-0.2-0.4-0.6-0.7-1.1-0.7s-0.9,0.3-1.1,0.8c0,0.1-3.3,8.1-16.1,9.4 c-12.6,0.8-18.9-3.6-19-3.6c-0.4-0.3-0.8-0.3-1.2-0.1c-0.4,0.2-0.7,0.6-0.7,1l-0.8,9.4c0,0.4,0.1,0.8,0.4,1l15.3,12.6 c0.2,0.2,0.5,0.3,0.8,0.3c0.1,0,0.2,0,0.4-0.1c0.4-0.1,0.7-0.4,0.8-0.8L612,359c1.3,2.5,3.5,6.5,7.5,13.3c0.2,0.4,0.6,0.6,1,0.6 c0,0,0,0,0.1,0c0.4,0,0.7-0.2,1-0.5l12.8-17.1C634.6,354.9,634.7,354.5,634.5,354z M605.8,371.4l-13.4-11l0.6-6.8 c2.7,1.3,8.3,3.4,17.1,3.2L605.8,371.4z M620.6,369.5c-3.1-5.3-6.1-10.7-7.2-13.1c9-1.4,13.5-5.9,15.4-8.6l3.2,6.6L620.6,369.5z" style="fill:#1a1a1a"/></g></g><g><g><path d="M267.9,203.9c0,0-30.4-7.1-72.9,4.2s-56.7,27.7-69.8,41.2c-13.2,13.5-15,27.8-12.7,37s15.3,29,45,38 c0,0,0.2-22.8,14.8-30.3l-8.3-9.8c0,0,36.3,1.2,59.2-8.2c0,0-8.2,9.8-8.7,13.4l-5.5,14.8l16.5,7.5l9,13.3l-1,3.7 c0,0,29.8,5.5,30.3,5.7s29.8,2.8,30.3,2.8s17.2-0.3,17.2-0.3s9.7-15-1.5-35.5c0,0,3-0.8,6-5c0,0,18.5,15.8,42,20.7s35,1.8,41.5,0 s24.8-15.5,24.8-15.5l33.8-27.8c0,0-12.8-5.8-13.8-23.3c0,0-25.3,15.3-43,12c-17.7-3.3-44-27-56.8-32c-9.3-3.6-39.3-19-39.3-19 L267.9,203.9z" style="fill:#fece2f"/></g><g><path d="M339.2,156.9c0,0.5,0.2,6.9,0.2,6.9s-4.4,5.5-4,10.5s0.2,7,1.1,8.2s3.9,5.2,2.4,6.5s-10.1-2.8-10.5-2.4 s-5.6,11.1-12.8,11.6s-7.9,0.1-7.9,0.1l-2.2,9.6c0,0-13.9,8.2-19.8,6.1s-12.2-8.9-12-17.4l15.8-27.1c0,0-7.8-12.4,2.1-16.5 c7.2-3,10.4,8.8,10.4,8.8s11.6-6.1,12-6.1S339.2,156.9,339.2,156.9z" style="fill:#fece2f"/></g><g><path d="M338.9,189c1.5-1.2-1.5-5.2-2.4-6.5s-0.8-3.2-1.1-8.2s4-10.5,4-10.5s-0.2-6.4-0.2-6.9c0,0-1.9-0.1-4.7-0.2 c-0.2,0.5-0.4,1.1-0.5,1.9c-0.9,4.9-0.3,10-1.8,14.9c-1,3.1-3.4,10.4,3.9,14.7c1.6,1-6.6-1.8-11.2-2.4c-1.2-0.2-2,0.7-2.5,0.8 c0.3,2-0.8,4-2.2,5.6c-2.8,3.1-6.9,5-11,5.1c-0.8,0-1.8,0.1-2.1,0.8c-0.2,0.5,0,1,0.4,1.5l0.3-1.2c0,0,0.8,0.4,7.9-0.1 s12.4-11.2,12.8-11.6S337.4,190.3,338.9,189z" style="fill:#fff"/></g><g><path d="M275,203.5c1.7-2.8,12.7-20.8,16.3-26c3.9-5.6-1.6-8.3-1.6-8.3l-0.3,0.2c0.1,0.1,0.1,0.2,0.1,0.2l-15.8,27.1 C273.7,199.2,274.2,201.4,275,203.5z" style="fill:#fff"/></g><g><path d="M273.3,197.3l-5.4,6.6l-1.4,24.4l19.4-14.1c0,0-7.8-3.8-9.6-7.4S273.3,197.3,273.3,197.3z" style="fill:#fff"/></g><g><path d="M287.4,214.8c0,0,9.9,0.1,17.4-7.4l0.2,4l-5.6,22.1L287.4,214.8z" style="fill:#fff"/></g><g><path d="M267.6,203.8c-2.9-0.6-32.4-6.4-72.7,4.3c-42.5,11.3-56.7,27.7-69.8,41.2c-2.9,3-5.3,6-7.1,9l-0.4,3.3 c0,0,6-9.5,14-13.2c7.4-3.4,10.2-1.5,18-3.3s20-20.6,28.3-21.7c6.8-0.8,4.5,6.2,11.7,7.9c7.3,1.5,12.2-12.9,35.4-21 c21.6-7.3,40.8-4.7,42.7-4.4C267.5,205.3,267.5,204.5,267.6,203.8z" style="fill:#fff"/></g><g><path d="M443.4,250.5l16.3-9.2c0,0,2.2,15.2,11.3,20.7l-13.2,11.7C457.9,273.6,446.6,271.3,443.4,250.5z" style="fill:#fff"/></g><g><path d="M460.3,240.5l21.5-11.3l15-7L510,218c0,0-0.8,7.2-15,13c0,0,14.2-6,14.7-4s1.7,3.7-1,6.3c0,0,1.3,6-2.8,8.3 c0,0,0.7,4.2-1.5,5.2c0,0,0.6,3.4-1.8,4.3c-2.4,0.9-5.1,0.8-5.1,0.8s-1,1.9-4.8,2.9s-19.1,4.9-21.5,7.9 C471,262.8,459.9,254.1,460.3,240.5z" style="fill:#fece2f"/></g><g><path d="M172.3,294l14.3,11.5c0,0-11.1,9.2-10.9,26l-18.2-7.2c0,0-0.6-9.8,4.6-18.9S172.3,294,172.3,294z" style="fill:#fff"/></g><g><path d="M311.3,336.8c0,0,9.2,46.1,7.4,105.1s-14,104.3-14,104.3s-102,0-196-46.5c0,0,13.2-53,35.4-93.8 s53-72.5,53-72.5l12.3-10.3c0,0,29,9.2,56.8,11.7S311.3,336.8,311.3,336.8z" style="fill:#fece2f"/></g><g><path d="M108.7,499.6c7.2,3.6,14.4,6.8,21.7,9.9c20.4-115.6,81.4-165.3,81.4-165.3c-12.3,1.8-17.7-4-19.1-5.5 c-10.6,12.1-33.4,39-48.6,67C121.9,446.6,108.7,499.6,108.7,499.6z" style="fill:#fff"/></g><g><path d="M304.7,546.1L285.1,633c0,0-13.7,47-5,65.3l-1,17.7l-16-2.3l-18-10.7c0,0,3.1-22.6-0.2-56.1s-13-85-2.5-106 C242.4,540.9,285.2,546.9,304.7,546.1z" style="fill:#fece2f"/></g><g><path d="M215.2,535.9c0,0,0.5,10-5.2,28.5s-32.8,69.8-32.8,69.8s-20.2,36.2-24,46.8s-8,23.8-8.8,24s-24.5,12.8-28.8,9 s-4-17-4-17s8-13.5,15.8-39s17.3-69.8,17.3-69.8l12.2-68.2C156.9,519.9,186.4,530.6,215.2,535.9z" style="fill:#fece2f"/></g><g><path d="M401.1,262.3c-10.2-1.9-23.3-10.7-35.1-18.7l-1.2,0.3c0,0,9.8,8.6,11,15.9c1.2,7.4,0.9,14.2,9.5,15.7 c5.3,0.9,11.8-5.5,21.2-9.2c7.9-3.1,12.3-4.2,12.3-4.2l-1-1C412.2,262.6,406.3,263.3,401.1,262.3z" style="fill:#fff"/></g><g><path d="M145.4,311.8c-2.7-4.8-4.8-10-8.1-14.4c-1.3-1.8-3-3.5-5.2-4c-2.8-0.5-5.5,1.2-8.3,1.1 c-2.5-0.1-4.7-1.7-6.2-3.7s-2.3-4.4-3.1-6.8c-0.7-2-1.4-4-2-6c-0.1-0.5-0.3-1.8-0.9-1.9c-0.3,3.8,0,7.2,0.7,10.1 c1.3,5.1,6,13.7,15.1,21.7c1,0.9,2.1,1.7,3.1,2.6c2.8,2.2,5.8,4.3,9.3,6.2c0.1,0,0.2,0.1,0.2,0.1c1.4,0.7,2.7,1.4,4.1,2.2 c3.5,1.7,7.3,3.3,11.5,4.6c0.3,0,0.6,0.1,0.9,0.1C151.6,321.4,148.1,316.7,145.4,311.8z" style="fill:#fff"/></g><g><path d="M233.8,277.8c4.8,4.4,11.4,6.1,17.9,6.9c6.3,0.8,12.7,0.9,18.9-0.3c2.7-0.5,5.4-1.3,8.1-1 c2.5,0.3,4.8,1.6,7.1,2.6c4.8,2.1,10,3.3,15.2,3.4c5,0.1,10.6-1.1,13.7-5c3.5-4.5,2.8-10.9,1.8-16.6c4.9,8.1,4.9,18.9-0.1,27 c-0.9,1.4-2,2.8-3.4,3.8c-1.6,1-3.6,1.4-5.5,1.6c-4.8,0.5-9.7,0-14.3-1.5c-4.4-1.5-8.5-3.8-13-5.2c-8.1-2.6-16.8-2-25.3-1.9 c-8.5,0.1-17.4-0.6-24.6-5.2c-2.6-1.7-4.9-3.9-5.9-6.8c-1.1-3.2-0.5-6.8,0.5-10c0.6-1.9,1.8-7,4.1-7.2 C229,268.3,228.9,273.3,233.8,277.8z" style="fill:#fff"/></g><g><path d="M310.2,300.4c-0.2-0.2-7,0.9-7.4,1.3c0,0,4.3,7.8,5.4,19.7c0.4,4.5-0.9,11.5-3.1,15.4c1.1,0,2.2,0.1,3.2,0.1 c1.8,0,3-0.1,3-0.1s9.7-15-1.5-35.5c0,0,0.4-0.1,0.9-0.4C310.5,300.7,310.4,300.6,310.2,300.4z" style="fill:#fff"/></g><g><path d="M305.1,336.8c0.2,1.2,8.7,43.4,5.7,102.2c-2.8,56.3-15.7,102.7-17.2,106.8c7.1,0.4,11.1,0.4,11.1,0.4 s12.2-45.3,14-104.3s-7.4-105.1-7.4-105.1S309.1,336.8,305.1,336.8z" style="fill:#fff"/></g><g><circle cx="237.3" cy="389.1" r="10.8" style="fill:#fff"/></g><g><circle cx="215.2" cy="492.9" r="9.6" style="fill:#fff"/></g><g><circle cx="235.8" cy="482.9" r="7.1" style="fill:#fff"/></g><g><circle cx="253.6" cy="476.5" r="5.6" style="fill:#fff"/></g><g><circle cx="268.9" cy="471.1" r="3.6" style="fill:#fff"/></g><g><circle cx="281.8" cy="467.1" r="3.2" style="fill:#fff"/></g><g><circle cx="228.1" cy="410.1" r="7.7" style="fill:#fff"/></g><g><circle cx="214.1" cy="422.3" r="5.5" style="fill:#fff"/></g><g><circle cx="198" cy="424.2" r="4.1" style="fill:#fff"/></g><g><circle cx="182.6" cy="424.2" r="3.3" style="fill:#fff"/></g><g><ellipse cx="169.6" cy="425" rx="2.5" ry="2.5" transform="matrix(0.9866 -0.1633 0.1633 0.9866 -67.1259 33.4002)" style="fill:#fff"/></g><g><ellipse cx="159.7" cy="427.1" rx="2.1" ry="2.1" transform="matrix(0.9866 -0.1633 0.1633 0.9866 -67.6015 31.812)" style="fill:#fff"/></g><g><path d="M156.2,524.1l-11.5,64c0,0-9.5,44.2-17.3,69.8s-15.8,39-15.8,39s0,1.9,0.2,4.5l2.6-0.1 c34-39.7,50-172.7,50-172.7L156.2,524.1z" style="fill:#fff"/></g><g><path d="M347.9,233.6l-0.2-1.7c-1.2-0.6-2.4-1.2-3.4-1.6c-9.3-3.6-39.3-19-39.3-19l-2,7 C306.6,219.5,324.4,223.6,347.9,233.6z" style="fill:#fff"/></g><g><path d="M245.2,591.7c-0.8-3.1-3.3-12.3-7.4-16c0.7,23,5.1,50.5,7.2,71.2c0.8,8.6,1.2,16.4,1.4,23.3 c0.8-0.1,1.5-0.3,2.1-0.7c2.9-1.7,3.2-5.7,3.2-9.1C251.3,637.5,250.9,614.1,245.2,591.7z" style="fill:#fff"/></g><path d="M313.7,111.4c-0.6-3.5-2.6-6.2-5.9-8.2c-7.6-4.5-18.7-3.9-25.1,6.1c-5.4,8.3-4.9,20.9,8.3,30.2 c0.2,0.1,0.5,0.2,0.7,0.2s0.4,0,0.6-0.1l13.3-6.9c0.1-0.1,0.3-0.2,0.4-0.3C306.3,131.8,315.3,120.7,313.7,111.4z" style="fill:#1a1a1a"/><g><path d="M288,138.1c-0.4,0-0.9-0.1-1.2-0.4c-0.9-0.7-1-1.9-0.3-2.8c9.8-12.3,21.9-12.3,22.4-12.3c1.1,0,2,0.9,2,2 c0,1.1-0.9,1.9-2,2c-0.4,0-10.7,0-19.2,10.7C289.2,137.8,288.6,138.1,288,138.1z" style="fill:#fff"/></g><g><g><g><path d="M340.3,173.9c-1.4-0.3-2.8-0.5-4-0.6c-0.6,0.9-1.1,1.8-1.7,2.6c-0.1,0.2-0.2,0.3-0.4,0.4 c1.2,0.7,2.9,1.4,5,1.9c3.9,0.9,7.3,0.7,7.6-0.5C347.2,176.5,344.2,174.8,340.3,173.9z" style="fill:#fff"/></g><path d="M340.6,172.7c-1.5-0.3-2.9-0.6-4.2-0.6c-0.4,0-0.8,0.2-1.1,0.6c-0.3,0.4-0.5,0.8-0.8,1.3s-0.6,0.9-0.9,1.4 c-0.1,0.1-0.1,0.2-0.2,0.2c-0.3,0.3-0.4,0.6-0.4,1s0.3,0.7,0.6,0.9c1.3,0.8,3.2,1.6,5.3,2.1c1.6,0.4,3.2,0.6,4.6,0.6 c0.3,0,0.6,0,0.9,0c2.6-0.2,3.3-1.2,3.5-2C348.7,175.5,344.4,173.6,340.6,172.7z M336.1,176c0.2-0.3,0.3-0.5,0.5-0.8 c0.1-0.2,0.3-0.4,0.4-0.6c1,0.1,2,0.2,3.1,0.5c0.1,0,0.2,0,0.3,0.1c-0.2,0.4-0.4,0.9-0.5,1.3c-0.1,0.2-0.1,0.4-0.1,0.7 c-0.1,0-0.1,0-0.2,0C338.3,176.8,337.1,176.4,336.1,176z" style="fill:#1a1a1a"/></g></g><path d="M306.4,205.3c-0.5-0.3-1.1-0.1-1.5,0.3c-7.8,9.1-17.6,7.4-18.4,7.2c-0.3-0.1-7.1-2.1-10.1-8.2 c-2.4-5.1-1.9-7.6-1.8-7.7c0.2-0.6-0.1-1.2-0.6-1.4c-0.5-0.3-1.2-0.1-1.5,0.3l-5.6,6.9c-0.2,0.2-0.2,0.4-0.3,0.7l-1.9,25.4 c0,0.5,0.2,0.9,0.6,1.2c0.2,0.1,0.4,0.2,0.6,0.2c0.3,0,0.5-0.1,0.7-0.2l19.2-14.2l12.5,19c0.2,0.3,0.6,0.6,1,0.6c0.1,0,0.1,0,0.2,0 c0.5-0.1,0.9-0.5,1-0.9l6.4-27.7C307.2,206.1,306.9,205.5,306.4,205.3z M267.5,226.4l1.7-22.4l3.2-4c0.3,1.5,0.8,3.4,2,5.7 c2.4,4.9,6.8,7.5,9.4,8.7L267.5,226.4z M299,231l-10.2-15.6c3.4,0.1,9.4-0.6,15-5.3L299,231z" style="fill:#1a1a1a"/><g><path d="M316.4,193.3c-0.6,0-1.1-0.4-1.2-1c-0.2-1.2-0.6-2-1.4-2.6c-1.4-1-3.3-0.7-3.3-0.7c-0.7,0.1-1.3-0.3-1.4-1 s0.3-1.3,1-1.4c0.1,0,2.9-0.5,5.1,1.1c1.3,0.9,2.1,2.3,2.4,4.2c0.1,0.7-0.4,1.3-1,1.4C316.5,193.3,316.4,193.3,316.4,193.3z" style="fill:#1a1a1a"/></g><g><g><ellipse cx="324.3" cy="173.2" rx="2.3" ry="7.2" transform="matrix(0.2304 -0.9731 0.9731 0.2304 81.0343 448.8015)" style="fill:#fff"/></g><path d="M325,169.8c-2-0.5-4-0.7-5.5-0.6c-2.6,0.2-3.3,1.2-3.5,2c-0.6,2.5,3.6,4.5,7.4,5.4c1.6,0.4,3.2,0.6,4.6,0.6 c0.3,0,0.6,0,0.9,0c2.6-0.2,3.3-1.2,3.5-2C333,172.6,328.8,170.7,325,169.8z M318.5,171.8c0.8-0.3,2.9-0.4,5.9,0.3 c0.1,0,0.2,0,0.3,0.1c-0.2,0.4-0.4,0.9-0.5,1.3c-0.1,0.2-0.1,0.4-0.1,0.7c-0.1,0-0.1,0-0.2,0C320.9,173.5,319.1,172.4,318.5,171.8 z" style="fill:#1a1a1a"/></g><g><path d="M333.6,166c-0.9-3.3-2.9-5.7-5.6-6.6c-5.4-1.8-11.8,2.8-14.4,10.4c-1.2,3.6-1.4,7.3-0.5,10.4 c0.9,3.3,2.9,5.7,5.6,6.6c0.8,0.3,1.6,0.4,2.5,0.4c2,0,4-0.7,6-2.2c2.6-2,4.7-5,6-8.6C334.3,172.8,334.5,169.1,333.6,166z M330.7,175.6c-1.1,3.1-2.9,5.8-5.1,7.4c-2.1,1.6-4.3,2.1-6.2,1.4c-1.9-0.6-3.3-2.4-4-4.9c-0.7-2.7-0.6-5.9,0.5-9 c1.9-5.4,5.9-9.1,9.6-9.1c0.6,0,1.2,0.1,1.7,0.3c1.9,0.6,3.3,2.4,4,4.9C332,169.3,331.8,172.5,330.7,175.6z" style="fill:#1a1a1a"/><path d="M354.8,166.1c-0.9-3.3-2.9-5.7-5.6-6.6s-5.7-0.3-8.5,1.8c-2.6,2-4.7,5-6,8.6c-1.2,3.6-1.4,7.3-0.5,10.4 c0.9,3.3,2.9,5.7,5.6,6.6c0.8,0.3,1.6,0.4,2.4,0.4c4.8,0,9.8-4.3,12-10.8C355.5,172.9,355.7,169.2,354.8,166.1z M351.9,175.7 c-2.1,6.3-7.2,10.2-11.3,8.8c-1.9-0.6-3.3-2.4-4-4.9c-0.7-2.7-0.6-5.9,0.5-9s2.9-5.8,5.1-7.4c1.5-1.1,3.1-1.7,4.5-1.7 c0.6,0,1.1,0.1,1.7,0.3c1.9,0.6,3.3,2.4,4,4.9C353.2,169.4,353,172.6,351.9,175.7z" style="fill:#1a1a1a"/></g><path d="M511.2,229.5c-0.2-2.4-2-4.3-3-5.2c2.1-2.1,3.2-4,3.1-5.5c-0.1-1.1-0.7-2-1.8-2.4c-0.2-0.1-0.5-0.1-0.7,0 c-0.7,0.2-16.6,4.8-22.6,8.4c-2,1.2-4.8,2.6-8,4.2c-5.5,2.8-12.3,6.3-18.7,10.3c-0.6,0.4-0.8,1.1-0.4,1.7c0.4,0.6,1.1,0.8,1.7,0.4 c6.3-3.9,13-7.4,18.5-10.1c3.3-1.6,6.1-3,8.1-4.2c5.1-3,18.4-7.1,21.4-8c0,0.1,0,0.3-0.1,0.5c-0.6,2-4.9,6.9-16.1,11.4 c-0.6,0.2-0.9,0.9-0.7,1.5c0.1,0.5,3.5,10.8-7.7,14.8c-0.6,0.3-0.9,1-0.7,1.6c0.2,0.5,0.7,0.8,1.2,0.8c0.2,0,0.3,0,0.3-0.3 c2.8-1,4.8-2.3,6.3-3.8c0,0.5,0.1,1,0.2,1.5c0.1,0.4,0.3,0.8,0.6,1.1c-0.1,0.1-0.2,0.2-0.2,0.3c-0.4,0.6-0.6,1.4-0.4,2.1 c0.1,0.7,0.6,1.6,2.2,2.2c0.3,0.1,0.6,0.2,1,0.2c-0.5,0.2-1.1,0.4-2.1,0.6c-4,0.8-14.8,3-22.8,8.6c-0.6,0.4-0.7,1.1-0.3,1.7 c0.2,0.3,0.6,0.5,1,0.5c0.2,0,0.5-0.1,0.7-0.2c7.6-5.4,18-7.4,21.9-8.2c2.7-0.5,4.3-1.4,5-2.5c0.1-0.1,0.1-0.1,0.1-0.2 c2.4-0.1,4.7-0.7,5.9-1.5c1.1-0.9,1.3-1.9,1.4-2.6c0.1-0.8-0.1-1.5-0.4-2c1.1-0.7,1.9-1.7,2.2-2.7c0.3-1,0.2-1.9,0-2.6 c1.7-1,2.7-2.3,3-3.9c0.4-1.8-0.1-3.3-0.6-4.2C510.8,232.4,511.3,231,511.2,229.5z M502.6,249.8c-1.1,0.9-5,1.5-7.5,0.9 c-0.9-0.2-1.2-0.5-1.2-0.6c0-0.2,0-0.2,0-0.2c0.1-0.2,0.6-0.3,0.9-0.4c0.5,0.1,1,0.1,1.5,0.1c2.2,0,4.6-0.5,6.6-1.3 c0.1,0.2,0.2,0.5,0.2,0.7C503.1,249.1,503.1,249.4,502.6,249.8z M504.9,244c-0.1,0.5-0.5,1-1.1,1.3c-2.5,1.3-7.5,2.3-9.4,1.5 c-0.3-0.1-0.5-0.3-0.5-0.4c-0.3-0.8-0.2-1.4,0-1.9c0.8,0.4,1.7,0.5,2.7,0.5c2.5,0,5.6-0.9,8.3-2C505,243.3,505,243.7,504.9,244z M507.9,237.4c-0.3,1-1.1,1.9-2.4,2.6c-4.1,2.1-8.8,3.1-10.8,2.3c-0.5-0.3-0.6-0.6-0.7-0.8c0,0,0,0,0,0c0.3-0.7,0.5-1.4,0.6-2.1 c1.9-0.1,8.7-0.6,13.2-3.9C508,236,508.1,236.7,507.9,237.4z M507.3,232.8C507.3,232.8,507.3,232.8,507.3,232.8 c-3.7,3.4-10.2,4.1-12.4,4.2c0.1-1.8-0.2-3.3-0.4-4.3c5.1-2.1,9.1-4.5,11.9-6.8c0.6,0.5,2.2,2,2.3,3.8 C508.8,230.8,508.3,231.8,507.3,232.8z" style="fill:#1a1a1a"/><g><path d="M493.6,231.2l104.8-57.8c0.4-0.2,0.8-0.1,1,0.3c0.2,0.4,0.1,0.8-0.3,1l-102.9,61.2c-1.3,0.8-2.9,0.3-3.7-0.9 S492.4,232,493.6,231.2L493.6,231.2z" style="fill:#1a1a1a"/></g><g><path d="M352.9,152.5c-0.1-0.6-3.5-15.3-20.6-22.8c-14.3-6.3-30.6-4.3-40.5,4.9c-6.4,6-9.9,13.1-10.1,20.5 c-0.2,7.1,2.7,13,5.4,16.2l-14.6,24.6c-0.4,0.6-0.2,1.4,0.4,1.7c0.2,0.1,0.4,0.2,0.6,0.2c0.5,0,0.9-0.2,1.2-0.6l16.2-27.3 c0.3-0.4,0.2-1-0.1-1.4c-0.1,0-1.2-1.3-2-3.3c-0.4-1.4-0.7-3.1-0.6-4.8c0.1-0.4,0.1-0.8,0.3-1.2c0.2-0.8,0.5-1.4,0.7-2.1 c0.3-0.5,0.8-1,1.4-1.4c2.6-1.9,5.3-0.9,6.5,0c0.5,0.4,3.2,2.6,2.9,6.7c-0.1,2.1,0.8,3.9,2.3,4.8c1.2,0.7,2.7,0.5,3.9-0.4l0.1-0.1 c1.6-1.3,2.7-3.1,3.8-4.8c1.3-2.2,2.5-4.1,4.4-4.3c0.7-0.1,2.6,0.3,4.7,0.7c4.7,0.9,11.8,2.2,18.9,1.5c0,1.1-0.1,2.4-0.3,3.9 c0,0.7,0.4,1.3,1.1,1.4h0.1c0.6,0,1.1-0.5,1.2-1.1c0.2-1.9,0.3-3.4,0.3-4.6c4.3-0.8,8.4-2.4,11.9-5.5 C352.9,153.4,353,152.9,352.9,152.5z" style="fill:#1a1a1a"/><path d="M337.8,182.9c-2.1-1.7-4.2-3.3-3.1-7c0.2-0.6-0.2-1.3-0.8-1.5c-0.7-0.2-1.3,0.2-1.5,0.8 c-1.6,5.3,1.6,7.8,3.9,9.6c1.9,1.5,2.4,2.1,2.1,3c-0.1,0.2-0.2,0.3-0.5,0.4c-2.1,0.8-8.2-1.9-11.8-4.1c-0.6-0.3-1.3-0.1-1.7,0.4 c-0.3,0.6-0.1,1.3,0.4,1.7c0.3,0.2,1,0.6,1.8,1c-0.6,1.6-3,7.2-9,9.5c-4.5,1.8-13.4,0.5-18.8-6.3c-0.4-0.6-0.7-0.9-0.8-1 c-0.3-0.3-1.5-1.7-3.1-1.6c-0.7,0-1.7,0.4-2.6,1.8c-0.7,1.2-0.8,2.7-0.2,4.3c0.9,2.6,3.3,4.8,6.4,5.8c2.2,0.7,4.1,2.5,5.2,4.7 c0.5,1,0.7,2,0.6,2.8l-0.2,0.8c-0.1,0.6,0.2,1.3,0.9,1.4c0.1,0,0.2,0,0.3,0c0.5,0,1-0.3,1.1-0.8c0.1-0.3,0.2-0.7,0.3-1.1l0.1-0.5 l0.1-0.1l2.2-7.5c1.5,0.3,3,0.5,4.3,0.5c1.9,0,3.7-0.3,5.1-0.8c6.6-2.6,9.5-8.5,10.3-10.7c2.5,1.2,5.7,2.4,8.2,2.4 c0.6,0,1.2-0.1,1.7-0.3c0.9-0.3,1.6-1,1.9-1.9C341.6,185.9,339.6,184.3,337.8,182.9z" style="fill:#1a1a1a"/></g><path d="M312.7,337.2c0,0,0-0.1,0-0.1c0-0.7-0.6-1.2-1.3-1.2c-38.2,2-78.2-8.8-78.6-8.9c-0.5-0.1-1.1,0.2-1.4,0.7 c-7.7-3.1-13.4-7.8-21.8-8.2c-0.7,0-1.4,0-2.1,0.3c-0.9,0.5-1.3,1.6-1.7,2.5c-1.2,2.6-5.7,6.8-9.2,10.5c-0.3,0-0.7,0.1-0.9,0.3 c-0.7,0.6-64.2,62.1-87.8,165.8c0,0.1-0.1,0.1-0.1,0.2c-0.2,0.4-0.2,1,0.1,1.3c0,0,0,0,0,0c0,0,0,0,0,0c0.1,0.2,0.4,0.4,0.6,0.4 c4.9,2.7,82.6,44.2,196,46.6c0,0,0,0,0,0c0.1,0,0.2,0,0.3,0c0.6,0,1.2-0.4,1.2-1C331.5,430.3,314,343.4,312.7,337.2z M301.7,338.7 c2.9,0,5.9-0.1,8.7-0.2c0.3,1.5,1,5,1.8,10.1c-0.5,0.1-1.1,0.2-1.6,0.4c-1.4,0.4-2.8,1-4.1,1.7c-2.6,1.4-4.8,3.1-6.9,5.2 c-4.1,4.2-6.9,9.4-8.8,14.7c-0.5,1.3-0.9,2.7-1.3,4c-0.4,1.3-0.7,2.3-1.1,3.4c-0.8,2-1.9,3.7-3.1,4.6c-1,0.8-2.7,1.2-3.6,1 c-0.8-0.2-1.3-0.6-1.8-2.2c-0.2-0.8-0.3-1.8-0.4-2.9c-0.1-1.1,0-2.2,0-3.6l0.2-7.9c0.1-2.6,0.1-5.3,0.1-7.9c0-2.6,0-5.5-0.3-8.4 c-0.4-2.9-1.1-6-2.8-8.8c-1.1-1.9-2.6-3.6-4.1-4.9C281.7,337.9,291.6,338.7,301.7,338.7z M149.9,398.9c0.9,1.5,1.9,3,3.4,4.3 c1.7,1.6,3.8,2.9,6.1,3.6s4.6,1,6.9,0.9c2.3-0.1,4.5-0.4,6.6-1c2.1-0.5,4.2-1.3,6.1-2.1c1.9-0.8,3.8-1.7,5.7-2.7 c7.4-4,13.8-9,20.1-13.7c3.2-2.4,6.3-4.6,9.4-6.6c3.1-2.1,6.4-3.9,9.7-5.4s6.6-2.6,9.9-3.2c1.7-0.3,3.3-0.5,5-0.5 c1.7-0.1,3.2,0.1,4.7,0.4s2.8,0.7,3.9,1.3c1.1,0.6,2,1.4,2.9,2.3c1.7,1.9,2.8,4.7,3.3,7.6c0.8,5.8-1.2,12.7-4.2,19.4 c-3,6.6-6.9,12.9-11.9,18.1c-2.5,2.6-5.4,4.9-8.5,6.8c-3,1.8-6.4,3.1-10.1,4c-7.3,1.7-15.2,1.7-23.1,1.2c-3.9-0.2-7.9-0.6-11.8-0.9 c-4-0.4-8-0.7-12-0.9c-2-0.1-4.1-0.1-6.2,0c-2.1,0.1-4.3,0.4-6.4,1c-2.2,0.6-4.5,1.7-6.3,2.9c-1.9,1.3-3.8,3.1-5,5.6 c-1.3,2.5-1.5,5.5-1,8s1.4,4.7,2.3,6.5c0.9,1.9,1.7,3.5,2.3,5c0.5,1.5,0.8,2.8,0.6,3.9c-0.1,1.1-0.6,2.2-1.5,3.2 c-0.9,1-2.1,1.9-3.4,2.5c-2.8,1.3-6.4,1.7-10.3,1.9c-4,0.2-8,0.5-12,1.1c-2.7,0.4-5.5,0.9-8.2,1.5 C125.9,445.2,137.9,419.7,149.9,398.9z M164.3,508.9c-0.6,3.1-0.8,6.3-0.5,9.5c0.1,0.9,0.2,1.8,0.4,2.7c-7.3-2.4-13.9-4.8-19.9-7.1 c1.9-0.5,3.8-1.3,5.5-2.2c3.1-1.6,5.9-3.8,8.2-6.2c4.7-5,7.8-10.8,10.1-16.6c0.6-1.4,1.1-3,1.5-4.3c0.4-1.3,0.7-2.4,1.1-3.4 c0.2-0.5,0.3-0.9,0.5-1.3c0.1-0.2,0.2-0.4,0.3-0.6c0-0.1,0.1-0.2,0.1-0.3c0-0.1,0.1-0.1,0.1-0.2c0.2-0.5,0.7-1.1,1.3-1.5 c0.5-0.4,1-0.6,1.4-0.7c0.4-0.1,1.1,0.2,1.5,1c0.5,0.8,0.7,2,0.7,3.2s-0.2,2.6-0.5,3.9c-0.7,2.6-1.9,5.1-3.5,7.6 c-1.6,2.4-3.4,4.8-5,7.5C166,502.7,164.8,505.8,164.3,508.9z M303.9,545.1c-53.8-1.3-99.4-11.3-132.9-21.8c0-1.6,0-3.3,0.1-4.9 c0.2-2.7,0.5-5.3,1.1-7.8c0.6-2.6,1.2-5.1,1.9-7.7c0.8-2.6,1.7-5.4,2.8-8.1l1.7-4.2c0.6-1.4,1.2-2.8,1.7-4.3s1-2.9,1.3-4.6 c0.2-0.8,0.3-1.7,0.3-2.6c0-0.9,0-1.9-0.2-2.8c-0.3-2-1.5-4.3-3.6-5.8c-2.1-1.5-4.8-1.9-7-1.7c-2.3,0.3-4.5,1.1-6.4,2.5l-0.7,0.6 c-0.2,0.2-0.4,0.4-0.6,0.5c-0.4,0.4-0.8,0.8-1.1,1.2c-0.7,0.8-1.3,1.6-1.8,2.4c-1,1.6-1.7,3.2-2.3,4.7c-0.6,1.5-1,2.7-1.5,4 c-1.9,5.1-4,9.8-7,13.7c-1.5,1.9-3.1,3.6-5,5.1c-1.9,1.4-4.1,2.6-6.5,3.6c-2,0.8-4.1,1.4-6.2,2c-11.7-4.9-19.1-8.7-21.6-10 c1.4-6.1,3-12.1,4.6-18c3.5-0.6,7.1-1,10.7-1.3c3.3-0.1,7.1-0.2,11.1-0.3c4-0.1,8.5-0.2,13-2.1c2.3-1,4.4-2.4,6.2-4.3 c1.8-1.9,3.2-4.5,3.6-7.4c0.4-2.9-0.2-5.6-1.1-7.7c-0.8-2.2-1.9-4-2.8-5.7s-1.6-3.2-1.9-4.6c-0.3-1.4-0.3-2.5,0.1-3.6 c0.4-1.1,1.3-2.3,2.6-3.4c1.3-1.1,2.6-1.9,4.2-2.5c1.6-0.6,3.4-1,5.2-1.3s3.7-0.4,5.7-0.5c7.7-0.3,15.6,0.7,23.6,1.4 s16,1.3,24.4,0.4c4.2-0.5,8.4-1.4,12.5-3.3c3.9-1.7,7.7-4,11.1-6.7s6.5-5.7,9.2-9s5.1-6.9,7.2-10.7c1-1.9,2-3.8,2.8-5.8 c0.9-2,1.6-4.1,2.2-6.3c1.2-4.4,1.8-9.2,1-14.2c-0.8-4.9-2.7-9.8-6.3-13.8c-0.9-1-1.9-1.9-3-2.8c-1.1-0.8-2.3-1.6-3.5-2.2 c-2.4-1.2-4.9-2-7.3-2.4c-9.7-1.5-18.8,1.1-26.5,5c-3.9,2-7.5,4.2-10.8,6.7c-3.4,2.5-6.5,5.1-9.6,7.7c-3,2.6-6,5.2-9,7.6 c-3,2.5-6,4.8-9.1,6.9c-1.6,1-3.2,2-4.8,2.9c-1.6,0.9-3.3,1.6-4.9,2.2c-3.3,1.2-6.8,1.9-10,1.2c-1.6-0.3-3-0.9-4.4-1.9 c-1.3-0.9-2.5-2.2-3.5-3.7c-0.2-0.3-0.4-0.6-0.6-0.8c16.5-27.8,32.6-46.6,40.3-55c2,1.9,8.9,7.2,21.9,5.9 c7.9-0.8,19.1-2.9,26.8-14.1c5.3,1.2,12.5,2.6,21,3.9c1.6,1.2,3.3,2.5,4.6,3.9c1.7,1.7,3.1,3.5,3.9,5.4c0.8,1.9,1.2,4.1,1.2,6.4 c0.1,2.3-0.1,4.8-0.3,7.4c-0.2,2.6-0.4,5.3-0.6,7.9l-0.5,7.9c-0.1,2.7-0.4,5.7,0.5,9.2c0.5,1.7,1.3,3.7,2.8,5.3 c0.8,0.8,1.6,1.5,2.6,2.1c1,0.6,2.1,1,3.1,1.2c2.1,0.5,4.2,0.3,6.1-0.2c1.9-0.6,3.6-1.5,5.1-2.7c2.9-2.4,4.4-5.6,5.4-8.5 c0.5-1.4,0.8-3,1.1-4.2c0.3-1.3,0.6-2.5,0.9-3.7c1.2-4.7,3-9.3,5.8-13.1c1.4-1.9,3-3.8,4.8-5.3c1.2-1,2.5-1.9,4-2.5 c0.7,4.6,1.4,10.2,2.1,16.7c-6.3,5-11.3,11.6-14.5,19.1c-1.8,4.1-3,8.5-3.7,13s-0.6,9.2-0.1,13.6c0.5,4.4,1.1,8.5,1.4,12.5 c0.1,2,0.2,3.8,0,5.6c-0.1,1.8-0.5,3.6-1,5.2c-0.5,1.6-1.2,3.1-2.1,4.3c-0.9,1.2-1.9,2.2-3.1,3c-1.3,0.8-2.8,1.5-4.6,2.1 c-1.8,0.6-3.8,1.2-5.7,1.8c-15.6,4.5-32.4,6.4-49.3,10.2l-3.2,0.7l-3.2,0.8c-2.1,0.5-4.2,1.2-6.3,1.9c-4.2,1.4-8.4,2.9-12.6,5.1 s-8.3,5-11.6,8.8c-3.3,3.8-5.8,8.5-6.6,13.7c-0.4,2.6-0.4,5.3,0.2,7.9c0.6,2.6,1.7,5.1,3.2,7.2c2.9,4.2,7.2,7.3,12.1,8.5 c0.6,0.2,1.2,0.3,1.8,0.4c0.6,0.1,1.3,0.1,1.9,0.2c1.2,0.1,2.5,0,3.6-0.2c2.4-0.3,4.6-0.9,6.7-1.6c2.1-0.7,4.1-1.4,6.1-2.2l6-2.3 c7.9-3.1,15.8-6.4,23.6-9.8c3.9-1.7,7.7-3.4,11.5-4.5c3.8-1.1,7.6-1.5,11.1-0.9c0.8,0.1,1.6,0.4,2.1,0.7c0.6,0.3,0.9,0.6,1.1,0.9 s0.2,0.5,0.2,0.9c0,0.4-0.1,0.9-0.3,1.5c-0.2,0.6-0.6,1.2-1,1.7c-0.4,0.5-1,1-1.6,1.6c-1.4,1.1-3.1,2.2-5,3.6 c-0.5,0.4-1,0.8-1.4,1.2c-0.5,0.4-1,0.9-1.4,1.5c-0.9,1-1.7,2.2-2.4,3.5c-0.6,1.3-1.1,2.9-1.2,4.6c-0.1,1.7,0.3,3.6,1.2,5.1 c0.9,1.6,2.2,2.8,3.6,3.6c1.4,0.8,2.8,1.2,4.2,1.5c2.7,0.5,5.1,0.3,7.5,0c4.4-0.7,8.6-1.7,12.8-3c4.2-1.3,8.3-2.8,12.2-4.6 c0.8-0.4,1.7-0.8,2.5-1.2C307.9,525.4,306.1,535.1,303.9,545.1z M305,511.9c-3.9,1.3-7.8,2.5-11.8,3.5c-2,0.5-4,0.9-6,1.2 c-2,0.4-4.1,0.7-6,0.9c-1.8,0.2-3.6,0.2-5.1-0.2c-0.7-0.2-1.3-0.4-1.8-0.7c-0.4-0.3-0.6-0.5-0.8-0.8c-0.2-0.3-0.2-0.6-0.2-1 s0.2-1,0.5-1.5c0.3-0.6,0.7-1.2,1.2-1.7c0.3-0.3,0.5-0.5,0.8-0.8s0.7-0.5,1-0.8c1.5-1.1,3.3-2.2,5.2-3.8c0.9-0.8,1.9-1.7,2.8-2.9 c0.9-1.1,1.6-2.4,2.1-3.9c0.5-1.4,0.8-3,0.6-4.8c-0.1-1.7-0.9-3.6-2.1-4.9c-1.2-1.4-2.7-2.3-4-2.8c-1.4-0.5-2.7-0.8-4-0.9 c-5-0.5-9.7,0.7-13.9,2.3c-4.2,1.6-8,3.7-11.7,5.7c-7.4,3.9-15.2,7.3-23.1,10.1c-2,0.7-4,1.4-6,2c-2,0.6-4,1.3-6,1.8 s-3.9,0.8-5.7,0.9c-0.9,0-1.8,0-2.7-0.1c-0.4-0.1-0.8-0.2-1.3-0.3c-0.4-0.1-0.8-0.2-1.2-0.4c-3.2-1.2-6-3.8-7.5-6.7 c-1.6-3-1.7-6.2-0.8-9.3c0.9-3.1,2.9-6,5.4-8.3s5.6-4.1,9.1-5.6c1.7-0.7,3.5-1.4,5.4-2.1c1.9-0.6,3.8-1.2,5.7-1.8 c3.9-1.1,7.8-2.2,11.8-3.1c16-3.8,33.1-6.1,49.8-11.6c2.1-0.8,4.1-1.4,6.3-2.3c2.2-0.9,4.5-2,6.7-3.6c2.2-1.6,4.3-3.8,5.7-6.1 c1.5-2.3,2.4-4.8,3-7.3c0.6-2.5,0.9-4.9,0.9-7.3c0.1-2.4-0.1-4.8-0.4-7c-0.6-4.5-1.7-8.6-2.4-12.6c-0.8-4-1.1-7.8-0.9-11.7 c0.2-3.9,0.9-7.9,2.1-11.7c2-6.3,5.2-12.2,9.5-17.4c0.7,7.1,1.3,15.1,1.7,24c1.2,27,0.8,66.6-6.4,113.3 C308.7,510.6,306.9,511.2,305,511.9z" style="fill:#1a1a1a"/><path d="M215.7,535.4c-0.4,0-0.7,0.2-0.9,0.4c-22.3-4.1-45-11.5-54-14.5c-1.1-0.4-2.2-0.8-3.1-1.1c0-0.6-0.4-1-1-1.1 c-0.7-0.1-1.3,0.3-1.4,1c-0.2,1.5-22.1,141.8-44.9,176.9c-0.7,0.4-1.4,0.9-2.1,1.5c-1.3,1.3-4.9,4.7-9.6,7c-8.4,4.1-18.7,8-27,11.1 c-6.7,2.6-11.6,4.4-13.2,5.5c-1.8,1.2-2.5,3.3-2,5.3c0.6,2.3,2.7,4,5.2,4.2c1.4,0.2,12,0.2,25.7,0.2c19.3,0,44.7-0.1,58.8-0.3 c2,0,3.9-0.9,5.1-2.4c1.3-1.6,1.8-3.6,1.4-5.5c-0.5-2.6-2.3-8.2-2.4-8.4c0,0-1-3.1-2-6.3c-1-3.1-1.5-4.9-2-5.9 c5.9-21.4,19.2-45.6,34.5-73.7c4.6-8.5,9.4-17.2,14.3-26.5c21.6-40.6,21.8-65.2,21.8-66.2C216.9,535.9,216.4,535.4,215.7,535.4z M193,601.7c-3.2,6.1-6.4,12-9.5,17.7c-4,5.2-8.2,10.1-13,15c-3.1,3.2-9.9,8.6-13.6,20.3c-3.3,10.4-1.2,14-6.8,30.1 c-2.4,6-4.5,11.7-6,17.3c-12.3,5.4-26.7,10.6-28.8,9.6c-0.5-0.6-0.4-0.9,1.2-2.8c1.3-1.4,2.8-3.2,3.1-5.6c0.2-2.4-0.7-4-1.6-4.9 c-1.1-1.2-2.6-1.8-4.3-2c9.3-15.8,19.4-49.1,30-99.4c6.3-30.2,11.1-58.2,13.1-70.3c2.9,2.6,13.4,10.7,37.7,13.2 c14.9,1.5,15.1,18.3,11.7,32.7C203,581,198.8,590.8,193,601.7z" style="fill:#1a1a1a"/><path d="M331.6,722c-1.6-1.1-6.5-3-13.2-5.5c-8.3-3.1-18.6-7-27-11.1c-5.8-2.8-9.8-7.2-10.3-7.7 c-0.7-1.2-3.5-7.1-2.6-21.6c1-17,27.4-128.3,27.7-129.4c0.2-0.7-0.2-1.3-0.9-1.5c-0.7-0.2-1.3,0.2-1.5,0.9v0.1 c-18.1,0.5-54.5-4.4-60.5-5.2c-0.1-0.3-0.3-0.6-0.7-0.8c-0.6-0.3-1.3,0-1.6,0.6s-6.8,14.8-3.5,51c0.8,9.6,2,19.4,3.3,29.8 c3.5,27.9,7,56.9,3.3,80.9c-0.4,0.9-1,2.7-2.3,6.4c-1,3.1-2,6.3-2,6.3c0,0.3-1.9,5.8-2.4,8.5c-0.4,2,0.1,4,1.4,5.5s3.1,2.4,5.1,2.4 c14.2,0.1,39.6,0.2,58.9,0.2c13.7,0,24.3,0,25.6-0.3c2.6-0.3,4.6-1.9,5.2-4.2C334.1,725.2,333.4,723.2,331.6,722z M239.9,591.5 c-0.4-4.7-0.7-8.9-0.8-12.9c0.6-7,1.1-18.1,13.1-24.5c12.2-6.7,30.2-3.5,44.4,2.1c1.6,0.7,3.1,1.2,4.4,1.7 c-6.9,29.4-24.2,104.1-25,118.1c-0.6,10.8,0.7,17,1.8,20.3c-1.5-0.1-3,0.1-4.3,1c-2.1,1.3-3.2,3.5-2.9,6c0.3,2.4,1.8,4.2,3.1,5.6 c1.6,1.9,1.7,2.2,1.2,2.8c-2.2,1-16.1-4-28.4-9.4c0-0.1,0-0.2,0-0.4c1.1-3.2,6.5-20.1,4.8-36.5c-0.9-8.4-2.5-11.9-4-19.5 c-1.6-7.9-3-16.5-3.8-21.6c-0.1-1.1-0.3-2.1-0.4-3.2C242,610.8,240.8,601.1,239.9,591.5z" style="fill:#1a1a1a"/><path d="M472.4,262.3c0-0.1-0.1-0.1-0.1-0.2c0,0,0-0.1-0.1-0.1c0,0-0.1,0-0.1-0.1c0,0,0-0.1-0.1-0.1 c-9.6-7.7-10.5-21.1-10.6-21.3c0,0,0,0,0-0.1c0-0.1,0-0.2-0.1-0.2c0-0.1,0-0.2-0.1-0.2c0,0,0,0,0-0.1l-0.1-0.1 c-0.1-0.1-0.1-0.1-0.2-0.2c-0.1-0.1-0.1-0.1-0.2-0.1c-0.1,0-0.1-0.1-0.2-0.1c-0.1,0-0.2,0-0.3,0c-0.1,0-0.1,0-0.2,0c0,0,0,0-0.1,0 c-0.1,0-0.2,0-0.2,0.1c-0.1,0-0.2,0-0.2,0.1c0,0,0,0-0.1,0l-1.1,0.7c-3.6,2.3-8.9,5.7-15.1,9.1c-0.1,0-0.3,0.1-0.4,0.2 c-11.4,6.2-25.5,12.4-37.2,12c-13-0.6-21.9-6.9-33.2-14.9c-4.9-3.5-10.5-7.4-16.9-11.3c-20-11.8-49.9-24.1-51-24.1 c-0.7,0-1.2,0.5-1.2,1.2c0,0.6,0.4,1.1,1,1.2c1.6,0.5,29.6,11.6,50.1,23.8c6.4,3.8,11.9,7.7,16.8,11.2 c11.6,8.3,20.8,14.8,34.5,15.4c0.5,0,0.9,0,1.4,0c11.4,0,24.6-5.6,35.6-11.5c0.2,1.8,0.7,4.7,1.8,7.8c2.3,6.5,6.1,11.2,11.2,14 c-10.2,8.5-23.9,19.9-35.4,29.1c-4.7,3.7-9.3,6.8-13.9,9.2c-0.2,0-0.4,0-0.6,0.1c-6.5,2.9-15.3,4.5-20.4,1.8 c-2.2-1.2-2.8-2.6-3.7-4.6c-0.9-2-1.9-4.4-4.8-7c-2.9-2.6-7.9-2.9-12.7-3.2c-4.5-0.3-9.2-0.5-10.6-2.9c-1-1.8-0.5-2.8,0.5-4.6 s2.3-4.1,1.3-7.7c-1.3-4.7-7.9-5.4-14.9-6.1c-3.7-0.4-7.6-0.8-10.4-1.8c-8.1-2.9-12.3-10.5-13.1-12.1c-0.1-0.2-0.1-0.3-0.2-0.3 c-0.1-0.1-0.2-0.3-0.3-0.4c-0.1-0.2-0.2-0.5-0.4-0.7c-1.6-3.3-2.9-6.9-3.7-10.5c-0.8-3.6-1.1-7.4-0.9-11v-0.1 c0-0.7-0.5-1.2-1.2-1.3c-0.7,0-1.2,0.5-1.3,1.2c-0.1,2.1,0,4,0.2,5.9c0.2,1.9,0.5,3.9,1,5.8c0.9,3.8,2.1,7.5,3.8,11l0.3,0.7 c0,0.2,0,0.3,0.1,0.5c0,0,0.1,0.2,0.2,0.4c0.4,0.8,1.4,3.1,2.4,5.8c0.3,1,0.6,2,0.8,3.1c0.7,3.6,0.9,7.3,0.4,10.9 c-0.5,3.6-1.8,7-4,9.6c-1.1,1.3-2.5,2.3-4,3c-0.8,0.3-1.5,0.6-2.4,0.7l-0.6,0.1H307l-1.3,0.1c-3.6,0.3-7.1-0.2-10.6-1.2 s-6.9-2.5-10.6-3.9c-3.2-1.2-6.6-2.3-10.1-3c12.9-9.5,10.8-23.5,8.3-39.6l-0.2-1.3c-2.6-17.1,4.6-34.3,4.7-34.5 c0.3-0.6,0-1.3-0.6-1.6c-0.6-0.3-1.3,0-1.6,0.6c-0.3,0.7-7.6,18-4.9,35.8l0.2,1.3c2.6,16.8,4.6,30-9.4,38.6l-0.7-0.1l-3-0.2 c-2-0.1-4.1-0.1-5.9,0c-3.7,0.1-7.5,0.1-11.2-0.1s-7.4-0.6-11-1.4c-3.5-0.8-7-2-9.8-4.1c-1.4-1.1-2.5-2.3-3.3-3.8 c-0.7-1.5-1.1-3.2-1.1-4.9c0-3.5,1.2-7.1,2.8-10.4c1.6-3.4,3.5-6.6,5.7-9.6c0,0,0,0,0-0.1c0.4-0.6,0.2-1.3-0.3-1.7 c-0.6-0.4-1.3-0.2-1.7,0.3c-2.2,3.3-4.1,6.6-5.8,10.1c-0.8,1.8-1.6,3.5-2.2,5.4c-0.5,1.6-0.9,3.2-1.1,4.9c-6.8,3-14.1,5-21.3,6.2 l-4.5,0.5c-7,0.3-19-1.4-33.7-14.2l-0.5-0.4c-3.5-3-6.7-4.5-9.2-4.2c-1.3,0.1-2.3,0.8-3,1.8c-3,4.2,4.8,12.8,6.4,14.5 c0,0,0,0,0.1,0.1l2.3,2.1c2.3,2.2,5,5.1,7.7,8.1c1.2,1.3,2.5,2.7,3.7,4c-3.3,2.2-13.3,10.6-13.9,30.4 c-20.4-8.7-44.6-23.3-44.3-44.1c0.3-22.8,31.7-56.2,78.2-69.5c22.8-6.5,42.6-7.7,55.1-7.5c13.6,0.2,21.9,2,22,2 c0.7,0.1,1.3-0.3,1.5-0.9c0.1-0.7-0.3-1.3-0.9-1.5c-0.3-0.1-8.6-1.9-22.4-2.1c-12.7-0.2-32.8,0.9-55.9,7.6 c-43.1,12.3-79.7,45.2-80,71.8c-0.3,29.7,45.4,47.2,65,53.4c0.1,0,0.2,0.1,0.4,0.1c0.2,0,0.3,0,0.4-0.1c0,0,0.1,0,0.1-0.1 c0.1,0,0.2-0.1,0.2-0.2l0.1-0.1c0.1-0.1,0.1-0.1,0.2-0.2l0.1-0.1c0,0,0,0,0-0.1c0-0.1,0-0.1,0-0.2c0-0.1,0-0.1,0-0.2 c0-14.6,8.4-22.7,10.2-24.3c3,1.9,4.8,2.8,5,2.8c0.2,0.1,0.3,0.1,0.5,0.1c0.5,0,0.9-0.3,1.1-0.7c0.3-0.6,0-1.3-0.6-1.6 c-0.1,0-7.7-3.5-17.3-13.3c-2.2-2.3-4.5-4.8-6.7-7.2c-0.7-0.7-1.3-1.4-2-2.1c1.8,0.1,4.5,0.2,7.8,0.2c6.9,0,16.6-0.4,26.8-2.2 c0.3,0,0.6-0.1,0.9-0.1c0.1,0,0.2-0.1,0.3-0.1c5.8-1.1,11.8-2.6,17.4-4.8c-6,8.5-10,17.1-12.1,25.6c-0.2,0.7,0.2,1.3,0.9,1.5 c0.1,0,0.2,0,0.3,0c0.5,0,1-0.4,1.1-0.9c0.4-1.8,1-3.5,1.6-5.3c0,0,0,0,0,0c2.5-3.9,6.6-6.7,11.5-7.9c5.3-1.3,8.1-1.1,10.6-0.4 c0.5,0.1,0.9,0.2,1.1,0.3c0.2,0.1,0.7,0.2,1.1,0.1c0.8,0.3,1.6,0.5,2.4,0.7c7.7,2.1,15.5,2.5,23.2,2.3c2-0.1,3.7-0.1,5.5-0.1 l1.1,0.1c-0.6,1.7-1,4.1-0.5,7c0.1,0.7,0.3,1.4,0.4,2.3c1.4,7.2,3.8,19.4-5.9,29.1c-0.5,0.5-0.5,1.3,0,1.7c0.2,0.2,0.6,0.4,0.9,0.4 s0.6-0.1,0.9-0.4c10.7-10.7,8-24.1,6.6-31.3c-0.2-0.8-0.3-1.6-0.4-2.2c-0.5-2.8,0.1-5,0.6-6.4l1.8,0.3c3.6,0.6,7.1,1.7,10.6,3 s7.1,2.7,11,3.7c3.8,1,8,1.5,12,1l1.5-0.2l0.7-0.1l0.8-0.2c0,0,0,0,0.1,0c1.8,3.1,9.9,18.4,1.4,34.9c-0.3,0.6-0.1,1.3,0.5,1.6 c0.2,0.1,0.4,0.1,0.6,0.1c0.4,0,0.8-0.3,1.1-0.7c8.5-16.8,1.1-32.4-1.3-36.7c0.2-0.1,0.4-0.2,0.6-0.3c1.5-0.8,2.9-1.8,4-3 c4,3.2,18.4,13.6,39.5,19.5c8.8,2.5,16.8,3.7,24.3,3.7c15.3,0,28.4-5.2,42.1-16.2c21.2-16.9,49.9-41.4,50.2-41.6l0.1-0.1 c0.2,0.3,0.2,0.2,0.2,0.2c0-0.1,0.1-0.1,0.1-0.2c0-0.1,0-0.1,0.1-0.2c0-0.1,0-0.2,0-0.2c0-0.1,0-0.2,0-0.2 C472.5,262.4,472.5,262.4,472.4,262.3z M173.5,296.5c4.3,4.3,8.1,7.4,11.1,9.6c-2.7,2.4-10,10.3-10.5,24.1c-4.2-1.4-9.4-3.2-15-5.5 c0,0,0,0,0-0.1c0.2-20,10.8-28,13.1-29.5C172.6,295.6,173.1,296,173.5,296.5z M457.8,272.4c-10.5-4.8-12.4-17.9-12.7-21.3 c5.7-3.2,10.7-6.3,14.2-8.6c0.6,4.1,2.8,13.5,10.1,20.1C467.5,264.2,463.3,267.8,457.8,272.4z" style="fill:#1a1a1a"/><g><g><path d="M186.4,307.2l2.1,1.3l2.6,1.5c0,0,16.1-5.9,17.9-5.8s15,6.2,16.5,7.5s9.8,13.1,8.9,14.8s-2.8,1-2.8,1 s2,3.1,1.2,4.4s-5.2,0.8-5.2,0.8s1.1,4.9,0.2,5.5s-7.4-3.8-9.4-7.4c0,0-9.2-3.9-7.9-2.8s6.9,6.1,6.9,6.1s2.5,6.6,1.2,7 s-6.5-6.1-6.5-6.1l-7.9-2.8c0,0-15.6,4.8-28-1C176.3,331.1,175.2,317.7,186.4,307.2z" style="fill:#fece2f"/></g><path d="M227.4,312.2c-3-3.9-15.7-8.8-17.7-9c-3.9-0.4-16.6,4.3-18,4.9c-0.6,0.2-1,0.9-0.7,1.6c0.2,0.6,0.9,1,1.6,0.7 c5.4-2,14.4-5,16.9-4.7c1.5,0.2,13.5,4.8,16,8.1c5.3,6.8,7.8,11.2,8,12.4c-0.8,0.8-1.6,0.4-1.8,0.3c-0.1,0-0.1,0-0.2-0.1 c-2.8-4.2-6.7-9.2-7.7-10c-2.1-1.8-12.2-6.7-13.4-7.2c-0.6-0.3-1.3,0-1.6,0.6s0,1.3,0.6,1.6c3,1.5,11.2,5.5,12.8,6.9 c1.8,1.6,8.5,10.9,9.7,13.4c-0.3,0.2-0.8,0.4-1.3,0.4c-1.2,0-2.7-0.8-4.2-2.4c0,0-0.1,0-0.1-0.1c-2.3-3-4.8-5.6-5.3-6 c-1.2-0.8-13-7.6-13.5-7.9c-0.6-0.3-1.3-0.1-1.7,0.5c-0.3,0.6-0.1,1.3,0.5,1.7c3.4,1.9,12.4,7.1,13.4,7.8c0.4,0.3,2.7,2.7,4.8,5.5 c2.9,3.8,3.3,5.6,3.2,6c-1.4,0.5-5.4-3.3-8.2-7.1c-0.1-0.2-0.3-0.3-0.5-0.4c-8.3-3.8-10.7-4.9-11.3-5.2c-0.7-0.4-1.1-0.6-1.2-0.7 c-0.6-0.3-1.3-0.1-1.7,0.5c-0.3,0.6-0.1,1.3,0.5,1.7c0.1,0,7.3,4.1,9.7,6.7c2.7,2.8,4,6.2,3.7,7.1c-1.1-0.3-3.9-3-4.9-3.9 c-0.5-0.5-0.9-0.9-1.2-1.1c-2.2-1.8-7.4-3.9-7.6-4c-0.3-0.1-0.6-0.1-0.9,0c-15.8,5.5-28.2,0.1-28.3,0c-0.6-0.3-1.3,0-1.6,0.6 s0,1.3,0.6,1.6c0.5,0.2,13.2,5.7,29.7,0.2c1.7,0.7,5.1,2.3,6.5,3.5c0.2,0.2,0.6,0.6,1,1c2.6,2.5,4.9,4.6,6.8,4.6l0,0 c0.6,0,1.1-0.2,1.5-0.6c2.1-2.2-0.4-6.9-3-9.9c0.1,0,0.2,0.1,0.3,0.1c1.7,2.3,6.2,7.8,9.8,7.8c0.5,0,0.9-0.1,1.3-0.3 c0.8-0.4,1.2-1.1,1.3-2c0.1-0.8-0.3-1.8-0.8-3c0.5,0.1,0.9,0.1,1.2,0.1c0,0,0,0,0.1,0c1.4,0,2.6-0.6,3.5-1.6 c0.2-0.3,0.4-0.6,0.3-1c0-0.5-0.5-1.5-1.3-2.8c0.8-0.1,1.6-0.6,2.4-1.4C236,326.9,237.5,325.2,227.4,312.2z" style="fill:#1a1a1a"/></g></g></svg>