<?xml version="1.0" encoding="utf-8"?>
<!-- Generator: Adobe Illustrator 21.0.0, SVG Export Plug-In . SVG Version: 6.00 Build 0)  -->
<svg version="1.1" baseProfile="tiny" id="Layer_2" xmlns="http://www.w3.org/2000/svg" xmlns:xlink="http://www.w3.org/1999/xlink"
	 x="0px" y="0px" viewBox="0 0 2000 2000" xml:space="preserve">
<g>
	<path fill="#FECE2F" d="M636.3,1872.7C78.2,1780.2-71.5,1155.1,276.6,774.2c317.1-346.9,157.8-603.9,672.2-653.8
		c626.4-60.8,966.3,286.2,1019.2,798.8C2047.3,1687,1336.3,1988.8,636.3,1872.7z"/>
</g>
<g>
	<g>
		
			<ellipse transform="matrix(0.1911 -0.9816 0.9816 0.1911 311.3211 1082.5964)" fill="#FFFFFF" cx="812.5" cy="352.4" rx="127.7" ry="127.7"/>
	</g>
	<g>
		
			<ellipse transform="matrix(0.1911 -0.9816 0.9816 0.1911 -70.9721 1025.7001)" fill="#FFFFFF" cx="586.9" cy="555.9" rx="65.7" ry="65.7"/>
	</g>
</g>
<path fill="#1A1A1A" d="M1717.4,323.8l-11.6,0.6l11.7-1.4C1717.5,323.3,1717.4,323.5,1717.4,323.8z"/>
<g>
	<path fill="#FFFFFF" d="M1806.5,1120.6l-89-800.9l39-4.6L1736.9,209l-20.1-13.7c0,0-950.3,91.8-944.3,93.8
		c3.5,1.2,235,5.3,409.3,7.8l9.7-15.3l13.5,15c101.9,1.4,181.5,2.5,181.5,2.5l8-24l42,78l234.2-28.5l102.2,931.5l11.1,102.4
		c17.4-10.5,32-19.9,44.2-28.4L1806.5,1120.6z"/>
	<g>
		<path fill="#1A1A1A" d="M1833.4,1331.3l-47.3-433.8c0-0.3,0.1-0.5,0-0.8l-62.7-573.5c0-0.3-0.1-0.7-0.3-1l35.7-4.2
			c0.8-0.1,1.6-0.5,2.1-1.2c0.5-0.7,0.7-1.5,0.5-2.3l-19.5-106.1c0,0,0,0,0-0.1c0-0.2-0.1-0.3-0.1-0.5c0,0,0,0,0,0
			c-0.1-0.2-0.2-0.3-0.2-0.5c0,0-0.1-0.1-0.1-0.1c-0.1-0.1-0.2-0.2-0.2-0.3c0,0-0.1-0.1-0.1-0.1c-0.1-0.1-0.2-0.2-0.3-0.3
			c0,0-0.1-0.1-0.1-0.1l-20.1-13.7c-0.6-0.4-1.3-0.6-2-0.5c-0.2,0-3.1,0.3-8.3,0.8c-0.1-0.7-0.2-1.5-0.3-2.2
			c-0.6-4.6-1.2-9.3-1.5-12.3c0-0.3-0.1-0.5-0.2-0.7c-0.1-0.4-3.5-8.8-17.5-9.9c-26.3-2.1-35,9-35.3,9.5c-0.5,0.6-0.7,1.4-0.6,2.1
			c0.4,3.5,1.1,8.6,1.7,13.6c0.2,1.7,0.4,3.4,0.7,5.1c-85.7,8.3-248.9,24.1-410.7,40c-137.1,13.4-246.3,24.2-324.6,32.1
			c-46.5,4.7-82.5,8.4-107,11c-13.2,1.4-23.3,2.5-30,3.3c-3.5,0.4-6.2,0.7-8,1c-3,0.4-5,0.7-5.3,3.1c-0.1,0.6,0.1,1.2,0.3,1.7
			c0,0,0,0,0,0c0.1,0.1,0.1,0.3,0.2,0.4c0,0,0.1,0.1,0.1,0.1c0.1,0.1,0.1,0.2,0.2,0.3c0.1,0,0.1,0.1,0.2,0.1
			c0.1,0.1,0.2,0.1,0.2,0.2c0.1,0,0.1,0.1,0.2,0.1c0.1,0,0.2,0.1,0.3,0.1c0.1,0,0.2,0.1,0.2,0.1c0,0,0,0,0.1,0c0,0,0.1,0,0.2,0
			c0.2,0.1,0.5,0.1,0.8,0.1c0.1,0,0.1,0,0.2,0c20.5,1.8,308.6,6.4,409.1,7.8c0,0,0,0,0,0c1,0,2-0.5,2.5-1.4l7.5-12l10.8,12.1
			c0.6,0.6,1.4,1,2.2,1c100.7,1.4,180.7,2.5,181.5,2.5c0,0,0,0,0,0c1.3,0,2.4-0.8,2.8-2.1l5.8-17.4l38.7,71.9c0.5,1,1.5,1.6,2.6,1.6
			c0.1,0,0.2,0,0.4,0l231.4-27.5l51.3,468.3c0,0.3,0.1,0.5,0.2,0.7l50.3,458.8l11.5,106c0.1,1,0.8,1.9,1.7,2.4
			c0.4,0.2,0.8,0.3,1.3,0.3c0.6,0,1.2-0.2,1.7-0.5l13.4-8.9c0.9-0.6,1.4-1.7,1.3-2.8l-91.4-997.8l8.7-6.8l58.6,536.1
			c0,0.2-0.1,0.5,0,0.8l48.7,446.7c0.2,1.5,1.5,2.7,3,2.7c0.1,0,0.2,0,0.3,0C1832.4,1334.4,1833.6,1333,1833.4,1331.3z
			 M1440.1,349.9l-41-76.2c-0.5-1-1.5-1.6-2.6-1.6c-0.1,0-0.2,0-0.3,0c-1.2,0.1-2.2,0.9-2.6,2l-7.3,21.9c-13.5-0.2-87.2-1.2-178-2.4
			l-12.6-14c-0.6-0.7-1.5-1.1-2.5-1c-0.9,0.1-1.8,0.6-2.3,1.4l-8.8,13.9c-127.3-1.8-277.6-4.4-355.1-6.2l909.4-75.5l18.5,100.3
			L1440.1,349.9z"/>
		<g>
			<path fill="#FFFFFF" d="M1704.3,201.5l-1.8-19.6c0,0-2.1,4.8-16.1,5.2l1.7,17.9C1688.1,205,1699.1,206.6,1704.3,201.5z"/>
		</g>
	</g>
</g>
<g>
	<path fill="#FFFFFF" d="M489.7,764.7c0,0-59.2,68.2-58.6,95.6c0.7,27.3,26,120.7,75.3,182.7s52.3,62.7,76,66.7l18.5,180.1
		c0,0-38.9-17.7-79.8-56.8c-35.4-33.9-74.5-77.5-98-121.3c-52.7-98-59.3-159.7-68.7-211c-9.3-51.3-17.3-115.7-17.3-115.7
		s31.3-27.3,33.3-26.7c2,0.7,37.3,8.7,37.3,8.7l10.5,6.3l5,25.3l15.5-9.8c0,0,26.2-29.4,35.2-28.4S489.7,764.7,489.7,764.7z"/>
	<g>
		<path fill="#FFFFFF" d="M551.4,1094.8c0,0,22,20.4,55,15.9c3,0.5,33.5,13.5,49,56.5s25,111.5,25,111.5s19.8,49.2-81.5,6.5
			c-43.9-18.5-47.5-50.5-47.5-50.5L551.4,1094.8z"/>
	</g>
	<g>
		<path fill="#FECE2F" d="M1101.4,506.6c0,0,39-31.7,103.7-33c64.7-1.3,84,10,86,14s2,61.3-28,136.7l61.3,156.3
			c0,0-91.3,45-163.3,38.3c0,0-6.7-24.7,20-80.7c26.7-56,57.3-130.7,11.3-171.3C1146.4,526.3,1101.4,506.6,1101.4,506.6z"/>
	</g>
	<g>
		<path fill="#FFFFFF" d="M1101.4,506.6c0,0,37.7,15,48.3,23c0,0,10.2-35.6,50.7-38c43-2.5,89-3.5,91,23c0-2.5,6-26.5-10.5-33
			s-68-13-108-5S1101.4,506.6,1101.4,506.6z"/>
	</g>
	<g>
		<path fill="#FECE2F" d="M611.8,1111c0,0,23.7-6.7,43.2-23.7c19.5-17,123.5-150.3,123.5-150.3s62-74.7,108.7-96.7
			c46.7-22,188-60.7,188-60.7s12,46,104.7,40s144.7-39,144.7-39s83.3,14.3,133.3,55s113.3,180,113.3,180l34.7-44.7
			c0,0-25.3,8.7-12.7,119.3c5.9,51.6,38.7,159.3,38.7,159.3s29.3,109.3-36,214.7l-207.3,95.3L1111.1,1669l-145.3,48.7
			c0,0-124.8-70.9-210.3-220.9c0,0-46.3-90.4-65-180.4C671.8,1226.3,665.8,1143,611.8,1111z"/>
	</g>
	<g>
		<g>
			<path fill="#FFFFFF" d="M1597.3,981.8l8.4-10.9C1605.8,971,1601.5,972.4,1597.3,981.8z"/>
		</g>
	</g>
	<g>
		<g>
			<path fill="#FFFFFF" d="M1457.8,835.6c-8.5-6.2-18.1-11.9-28.2-17.1l1.2-1.2c0,0-56.1-29.1-98.4-34.6c-3.1-0.8-5.4-1.4-6.7-1.7
				l-61.3-147c0,0,58.4,151.1-2.3,172.8c25.3-5.6,115.4-10.7,159.7,19.6c12.6,8.6,24,18.5,32.7,29.3c68,85,100,202,100,202l16.7-42
				C1571.1,1015.6,1508.4,872.6,1457.8,835.6z M1326.1,782l-0.4-1c0.9,0.3,2.3,0.7,4.1,1.3C1328.5,782.2,1327.3,782.1,1326.1,782z"
				/>
		</g>
		<g>
			<path fill="#FFFFFF" d="M1262.1,806.8c-5.3,1.2-8.3,2-8.3,2C1256.8,808.4,1259.5,807.7,1262.1,806.8z"/>
		</g>
	</g>
	<g>
		<path fill="#FFFFFF" d="M633.9,1129.3c0,0,51.1-3.1,82.5-58.5c85-150.1,99-104.1,169-199.1c37.2-50.5,90-26,191-75.4l-12-11.6
			c0,0-169.5,23.6-232.5,95.6s-150,190.5-177,207c-27,16.5-43.2,23.7-43.2,23.7L633.9,1129.3z"/>
	</g>
	<g>
		<path fill="#FFFFFF" d="M1769.3,807.1c0.6,0.9,1.1,2.2,1.6,3.9c0,0,0,0,0.1,0c0.5-0.4,1.1-0.6,1.8-0.6c0.1,0,0.3,0,0.7-0.1
			l-1.9-17.5l-12.1,4.7C1764.8,801.1,1768.2,805.3,1769.3,807.1z"/>
		<path fill="#FFFFFF" d="M1773.3,832.3c0.8-0.2,1.7-0.4,2.6-0.7l-1.6-15.1c-0.7,0.2-1.3,0.3-1.9,0.4
			C1773.2,821.5,1773.6,827.1,1773.3,832.3z"/>
		<path fill="#FFFFFF" d="M1770.9,842.5c-2.1,4.2-5.1,5.3-7.2,5.5c-0.2,0-0.5,0-0.7,0c-0.5,0-1.1-0.1-1.6-0.2
			c-0.7,0.6-1.5,1.2-2.3,1.9c-2.6,2-6.1,4.8-6.4,7c-0.2,1.2,0.2,1.5,0.4,1.7c0.6,0.6,3.1,2.4,13.1,1.2c3.3-0.4,7.9-1.2,12.6-2.6
			l-2.1-19.5c-2.2,0.6-3.9,0.9-4.2,1C1771.9,840,1771.5,841.3,1770.9,842.5z"/>
		<path fill="#FFFFFF" d="M1781.2,880.5l-1.6-14.9c-8.9,6.9-18.3,16.3-17.9,21.2C1764.2,886.9,1771.7,885.2,1781.2,880.5z"/>
		<path fill="#FFFFFF" d="M1733.1,869.7c-0.2,0.2-0.3,0.5-0.5,0.7l3.5,32.3c2.3-9.6,4-16.4,4.7-19.5
			C1737,878.3,1734.4,872.7,1733.1,869.7z"/>
		<path fill="#FFFFFF" d="M1734.9,828.1l-6.8,1.1l3.4,30.9c2.8-6.1,4.3-12.5,4.6-19.2C1736.3,835.2,1735.5,830.6,1734.9,828.1z"/>
		<path fill="#FFFFFF" d="M1738.6,796.6c-3.2,0.1-8.2,1.2-13.6,3.8l2.5,22.8l18.5-2.9l0,0l0,0c0.1,0,0.1,0,0.2,0c0.1,0,0.2,0,0.4,0
			c0.1,0,0.2,0,0.3,0c0.1,0,0.2,0,0.3,0c0.1,0,0.2,0.1,0.3,0.1c0.1,0,0.2,0.1,0.3,0.1c0.1,0,0.1,0.1,0.2,0.1
			c0.1,0.1,0.2,0.1,0.3,0.2c0.1,0,0.1,0.1,0.2,0.1c0.1,0.1,0.2,0.1,0.3,0.2c0.1,0.1,0.1,0.1,0.2,0.2c0.1,0.1,0.1,0.2,0.2,0.3
			c0.1,0.1,0.1,0.2,0.2,0.3c0,0.1,0.1,0.1,0.1,0.2c4.7,12.2,11,20,13.9,19.8c0.4,0,1.4-0.1,2.4-2.2c3.6-7.3,1.3-25.3-1.3-29.6
			C1762.5,807.4,1752.3,796.1,1738.6,796.6z"/>
	</g>
	<path fill="#FFFFFF" d="M1599.9,977.9l80.3-104.7c0,0,22-59.7,31.6-68c9.6-8.3,24.6-19,42.9-8.1s20.9,44.4,12.3,46.5
		c0,0-6.8,8-20.6-20.3l-8.8,2.7c0,0,3.1,13.7-0.6,23.3c-3.7,9.7-4.7,18.3-4.7,18.3l12,17.5l-40.8,162.3l-37,148.4
		c0,0-18.8,40.4-37.9,46.5l-28.6-102.8l-7.7-79.6C1592.3,1059.9,1585.6,1046.3,1599.9,977.9z"/>
	<g>
		<path fill="#FFFFFF" d="M1766.8,791.3c-2.1,1.2-4.6,1.4-6.9,2.3c-2.2,0.9-4.3,3.2-3.7,5.5c0.9,3.4,6.4,3.7,7.3,7
			c0-0.4,0.6-0.6,0.9-0.4c0.3,0.2,0.5,0.6,0.7,0.9c2.1,4.6,4.1,9.3,4.7,14.3c0.3,2.6,0.2,5.2,0.1,7.8c-0.1,2.8-0.2,5.6-1.1,8.3
			c-0.9,2.7-2.6,5.2-5.1,6.4c-1.8,0.9-3.8,1-5.4,2.2c-1.8,1.3-2.6,3.4-4.2,4.9c-1.2,1.2-2.8,1.9-4.1,3c-1.3,1.1-2.3,2.9-1.7,4.4
			c0.6,1.5,2.2,2.2,3.8,2.6c7.6,2.2,15.7,2.7,23.6,1.5c-0.3,2.1-2.1,3.5-3.6,5c-3.2,3-11.4,17.4-13,21.5c4.8,1.5,16.7-2.2,21.2-4.7
			c8.3-4.5,12.6-6.1,16.6-10.9c3.6-4.3,3.7-10.6,2.2-16c-0.6-2.1-1.3-4.2-1.3-6.3c0-1.6,0.5-3.2,0.8-4.8c0.9-5-0.2-10.4-3.1-14.5
			c-0.9-1.3-2-2.6-2.5-4.1c-1.1-3.3,0.8-6.9,0.5-10.3c-0.3-3.9-3.3-7-6.1-9.8c-0.7-0.7-1.4-1.4-1.8-2.4c-0.3-0.8-0.2-1.6-0.2-2.4
			c0.1-3.2,0.3-6.3,0.4-9.5c0-1,0.1-2.1-0.4-3c-0.4-0.8-1.2-1.4-2-2c-1.9-1.4-3.9-2.6-6-3.7c-1.4-0.7-4.1-2.7-5.8-2
			c-1.6,0.7-1,3.1-1.5,4.5C1769.6,788.7,1768.4,790.3,1766.8,791.3z"/>
	</g>
	<g>
		<path fill="#FFFFFF" d="M1766.8,791.3c-2.1,1.2-4.6,1.4-6.9,2.3c-2.2,0.9-4.3,3.2-3.7,5.5c0.9,3.4,6.4,3.7,7.3,7
			c0-0.4,0.6-0.6,0.9-0.4c0.3,0.2,0.5,0.6,0.7,0.9c2.1,4.6,4.1,9.3,4.7,14.3c0.3,2.6,0.2,5.2,0.1,7.8c-0.1,2.8-0.2,5.6-1.1,8.3
			c-0.9,2.7-2.6,5.2-5.1,6.4c-1.8,0.9-3.8,1-5.4,2.2c-1.8,1.3-2.6,3.4-4.2,4.9c-1.2,1.2-2.8,1.9-4.1,3c-1.3,1.1-2.3,2.9-1.7,4.4
			c0.6,1.5,2.2,2.2,3.8,2.6c7.6,2.2,15.7,2.7,23.6,1.5c-0.3,2.1-2.1,3.5-3.6,5c-3.2,3-11.4,17.4-13,21.5c4.8,1.5,16.7-2.2,21.2-4.7
			c8.3-4.5,12.6-6.1,16.6-10.9c3.6-4.3,3.7-10.6,2.2-16c-0.6-2.1-1.3-4.2-1.3-6.3c0-1.6,0.5-3.2,0.8-4.8c0.9-5-0.2-10.4-3.1-14.5
			c-0.9-1.3-2-2.6-2.5-4.1c-1.1-3.3,0.8-6.9,0.5-10.3c-0.3-3.9-3.3-7-6.1-9.8c-0.7-0.7-1.4-1.4-1.8-2.4c-0.3-0.8-0.2-1.6-0.2-2.4
			c0.1-3.2,0.3-6.3,0.4-9.5c0-1,0.1-2.1-0.4-3c-0.4-0.8-1.2-1.4-2-2c-1.9-1.4-3.9-2.6-6-3.7c-1.4-0.7-4.1-2.7-5.8-2
			c-1.6,0.7-1,3.1-1.5,4.5C1769.6,788.7,1768.4,790.3,1766.8,791.3z"/>
	</g>
	<g>
		<path fill="#FECE2F" d="M1726.6,952.3c-16.1-1.2-38,29.4-50.2,70.9c-12.8,43.7-9.9,83,6.4,87.7c1.4,0.4,2.9,0.5,4.4,0.4
			c14.8-60.8,32-130.3,32-130.3L1726.6,952.3z"/>
	</g>
	<path fill="#FFFFFF" d="M1361.4,971.6c0,0-29,112,41,236L1361.4,971.6z"/>
	<path fill="#FFFFFF" d="M1038.4,1083.6c0,0,118.1,167.8,284.1,253.8L1038.4,1083.6z"/>
	<path fill="#FFFFFF" d="M1141.4,913.8c0,0,143,11.9,274.5-42L1141.4,913.8z"/>
	<path fill="#1A1A1A" d="M823.4,1031.1c0,0,24.8,26.7,17,111.5c-12.5,135.5,9.2,246.2,9.2,246.2s-6.2-50.7,3.3-160.2
		C862.2,1121.5,854.9,1082.1,823.4,1031.1z"/>
	<path fill="#1A1A1A" d="M938.5,1200.9c1.6,11.5,3.8,22.8,6.2,34.1c5.1,22.6,11.8,44.9,20,66.6c16.5,43.5,39.2,84.9,67.6,122
		c28.4,37.1,62.7,69.8,101.3,96c2.4,1.7,4.9,3.2,7.3,4.8c2.4,1.6,4.9,3.2,7.4,4.7l7.4,4.6c2.5,1.5,5,2.9,7.6,4.3
		c5,2.9,10.2,5.6,15.3,8.3c2.6,1.4,5.2,2.6,7.8,3.9l3.9,1.9c1.3,0.6,2.6,1.3,3.9,1.9c5.3,2.3,10.5,4.8,15.9,7l8,3.3l8.1,3
		c5.4,2.1,10.9,3.8,16.4,5.7c2.7,0.9,5.5,1.7,8.3,2.5c2.8,0.8,5.5,1.6,8.3,2.4c-10.4-5-20.8-9.8-30.9-15.1l-7.6-4l-7.5-4.1
		c-5-2.7-9.9-5.6-14.9-8.4c-2.5-1.4-4.9-2.9-7.3-4.4c-2.4-1.5-4.9-2.9-7.3-4.5c-4.8-3.1-9.6-6.1-14.3-9.3
		c-9.5-6.3-18.6-13-27.6-19.8c-35.9-27.5-67.9-59.7-95.3-95.5c-27.4-35.8-50.3-75-68.8-116.4c-9.3-20.7-17.4-41.9-24.6-63.6
		c-7.1-21.7-13.3-43.7-17.8-66.3c0.1,5.8,0.5,11.5,1,17.3C937,1189.4,937.7,1195.1,938.5,1200.9z"/>
	<path fill="#FFFFFF" d="M1180.3,1288.2c0,0,59.9,98.6,157.5,157.5L1180.3,1288.2z"/>
	<g>
		<path fill="#1A1A1A" d="M1195,1677.9c-1.2,0-2.3-0.7-2.8-1.9c-0.6-1.5,0.2-3.3,1.7-3.9c2.2-0.9,226-86.9,321-138.6
			c1.5-0.8,3.3-0.3,4.1,1.2c0.8,1.5,0.3,3.3-1.2,4.1c-95.3,51.9-319.5,138-321.7,138.9C1195.7,1677.8,1195.4,1677.9,1195,1677.9z"/>
	</g>
	<path fill="#1A1A1A" d="M1898.9,1262.9c-5.2-12.6-30.1-15.4-75.9-8.5c-1.6,0.2-2.8,1.8-2.5,3.4c0.1,0.5,7.6,72.1,7.9,72.4
		l-25.9,16.9c-5.6,1.1-19.2-81.1-24.5-80c0.1-0.4,0.1-0.7,0-1.1c-0.4-1.6-2-2.6-3.6-2.3c-17.9,3.9-35.6,8.3-56.8,14
		c-0.5-22.6-2.2-48.3-5.1-78.4c-6.5-66.9-12.9-118.6-13-119.1c0,0,0-0.1,0-0.1c18.8-77,40.7-167.9,46.4-191.6c0.8,0.7,1.7,1.4,2.6,2
		c16.5,11,35,7.5,35,7.5l-0.8-11.6c9.7-4.6,19-11.1,21-17.3c2.6-8-0.5-14.4-4.1-17.7c0.4-0.6,0.8-1.1,1.2-1.7
		c5.7-9.9-4-22.8-6.5-25.8c0.2-0.7,0.4-1.4,0.5-2.1c1.9-8.7-4.1-17.5-6.1-20.1c0.1-0.4,0.2-0.8,0.2-1.2c1.9-12.6-9.6-20.4-15.9-22.7
		c-1.6-0.6-3.3,0.2-3.9,1.8c-0.4,1-0.2,2,0.4,2.8l-1.5,5.3l-15.1,5.9c-4.3-1.9-9.2-3.2-14.6-3c-8.3,0.4-25.1,5.3-35.1,21.4
		c-11.4,18.5-25.7,57.3-27.4,62.1l-74.6,97.3c-0.6,0.2-1.1,0.5-1.5,1.1c-0.8,1.1-1.7,2.5-2.6,4.3l-25.2,32.9
		c-4-9.3-13.8-31.3-27.2-57c-16.3-31.3-41.3-74.7-68.1-103.2c-26.9-28.7-66.8-46.7-95.4-56.8c-26.4-9.3-48.5-13.7-54.6-14.8
		l-60.4-150c0.2-0.2,0.3-0.5,0.4-0.7c0.1-0.3,11.6-32.7,20-66.2c0.1-0.4,0.2-0.8,0.3-1.2c0.1-0.5,0.3-1,0.4-1.5c0-0.1,0-0.2,0-0.3
		c4.5-18.4,7.3-33.7,8.2-45.6c1.3-16.9-1.2-26.8-7.7-30.5c-15.8-8.9-53.4-12.6-80.8-11.6c-56.2,2.1-89.5,19.6-107.5,33.9
		c-0.2,0.1-16.1,12.3-33.1,29.8c-23,23.6-36.8,45.1-41,63.9c-5.9,25.8,4.3,77,10.9,105.2c8.1,34.6,18.1,66.8,23.6,79.2
		c-22.2,4-132.2,25.4-196.7,68.4c-44.1,29.4-97.9,98-141.1,153.1c-28.5,36.3-53.1,67.7-69.2,81.1c-36.6,30.5-79.3,27.8-99.5,7.7
		c0,0,0,0-0.1,0c0,0,0-0.1-0.1-0.1c-0.7-0.6-66.8-60.3-97.5-146.6c-28.9-81.1-25.9-86.7-13.5-110.3c13-24.8,49.2-68.6,49.6-69.1
		c1-1.2,0.9-2.9-0.2-4c-0.4-0.4-9.7-9.4-25.4-1.9c-7.4,3.5-18.1,13.6-27.6,22.5c-5.3,5-11.7,11-14.9,13.1c-0.4-2-0.6-5.4-0.8-8.3
		c-0.2-3.5-0.5-7.4-1-11.5c-0.2-1.6-1.7-2.8-3.4-2.6c-1.6,0.2-2.8,1.7-2.6,3.4c0.5,3.9,0.8,7.7,1,11.1c0.5,7.7,0.9,11.5,2.8,13.5
		c3.7,3.7,9.3-1.6,22.9-14.4c8.7-8.2,19.5-18.3,26.1-21.5c7.9-3.8,13.5-2.2,16.3-0.8c-8,9.8-36.5,45.4-48.2,67.6
		c-13.7,26-15.6,34.3,13.2,115.1c27.3,76.6,82,132.6,95.9,146c0,0.1,0,0.2,0,0.3l2,137.9c0,0.6,0.2,1.1,0.5,1.5
		c-0.3,0.9,0.7,15,1.7,21.7c-4.8-3.5-9.8-7.5-15-11.8c-56.7-47.2-93.9-106.7-115.2-148.4c-25-49-68.2-152.9-76.7-298.8
		c-0.1-1.7-1.5-2.9-3.2-2.8c-1.7,0.1-2.9,1.5-2.8,3.2c8.6,147,52.1,251.8,77.3,301.2c39,76.5,85.1,124,116.9,150.4
		c30.4,25.2,53.4,36.4,59.2,39c1.8,8.3,6.6,25.4,19.2,58.4c18.8,49.4,54.6,125.6,119,207.6c27.7,35.3,59.6,68.2,94.7,97.7
		c-41.9,24.8-73.9,46.5-95,64.3c-23.6,20-33,34.6-28.7,44.9c3.4,8.1,14.9,12.2,34.9,12.2c7.7,0,16.6-0.6,26.8-1.8
		c33.8-3.9,80.1-14.1,137.8-30.3c68.4-19.2,148.4-45.5,234.5-77.1l10.6-3.6c1.6-0.5,3.2-1.1,4.8-1.7c0.5-0.2,0.9-0.5,1.3-0.9
		c57.9-21.5,118.4-45.3,179.8-70.8c5.1-2.1,10.3-4.3,15.4-6.4c0.1,0,0.1,0,0.2,0c0.3,0,0.7-0.1,1-0.2c10.8-3.9,20.9-8.3,30.3-13.1
		c56.2-23.9,110.4-48.2,161.4-72.1c0,0,0.1,0,0.1,0c0.5,0,0.9-0.1,1.4-0.3l10.9-5.5c72.3-34.2,137.7-67.7,192.7-98.7
		c52.2-29.4,92.1-55.1,118.8-76.2C1891.7,1290.8,1903.5,1274.1,1898.9,1262.9z M1797.9,867.4c-1.1,3.5-7.7,8.7-16.6,13.1
		c-9.5,4.7-17.1,6.5-19.6,6.3c-0.6-5.9,13.1-18.2,23.1-25c0.3-0.2,0.6-0.5,0.8-0.8c3.4-1.4,6.8-3.1,9.7-5.2
		C1796.8,857.1,1800,861,1797.9,867.4z M1790.9,829.5c2.8,3.9,7.6,11.9,4.6,17.3c-4.6,8-21.2,11.9-29.4,12.8
		c-9.9,1.1-12.5-0.6-13.1-1.2c-0.2-0.2-0.5-0.5-0.4-1.7c0.3-2.3,3.9-5,6.4-7c0.8-0.6,1.6-1.3,2.3-1.9c0.5,0.1,1.1,0.2,1.6,0.2
		c0.2,0,0.5,0,0.7,0c2.1-0.2,5.1-1.3,7.2-5.5c0.6-1.1,1-2.5,1.4-3.9C1773.4,838.4,1784.7,836.3,1790.9,829.5z M1785.9,808.5
		c1.8,3.1,3.9,7.8,2.9,12.1c0,0.1,0,0.2,0,0.2c-1,6.5-10.2,10.1-15.5,11.4c0.4-5.1-0.1-10.7-0.9-15.5
		C1776.6,816.2,1782.4,813.9,1785.9,808.5z M1772.4,792.4c1.5-0.6,2.1-1.9,1.8-3.8c-0.1-0.6-0.2-2.1-0.5-3.7
		c3.9,2.2,10.4,7.1,9.2,14.9c-0.2,1.6-0.7,3-1.3,4.2c-4.3,6.3-8.6,6.4-8.9,6.4c-0.7,0-1.3,0.2-1.8,0.6c0,0,0,0-0.1,0
		c-0.5-1.6-1.1-2.9-1.6-3.9c-1.1-1.8-4.5-5.9-9.7-9.6L1772.4,792.4z M1207.3,476.4c3.4-0.1,6.7-0.2,10-0.2c31.3,0,57.6,5.4,67.6,11
		c3.7,2.1,10.6,13.1-3.6,70.3c-0.3,1.2-0.7,2.4-1.1,3.6c-2.3,6.7-5.7,10.6-10,11.5c-12,2.6-30.4-17.1-36.5-24.9c0,0-0.1-0.1-0.1-0.1
		c-0.1-0.1-0.1-0.1-0.2-0.2c-0.1-0.1-0.1-0.1-0.2-0.2c-0.1-0.1-0.1-0.1-0.2-0.2c-0.1-0.1-0.2-0.1-0.3-0.1c-0.1,0-0.1-0.1-0.2-0.1
		c-0.1,0-0.2-0.1-0.3-0.1c-0.1,0-0.2-0.1-0.2-0.1c-0.1,0-0.2,0-0.4,0c-0.1,0-0.2,0-0.3,0c-0.1,0-0.3,0-0.4,0c-0.1,0-0.1,0-0.2,0
		c-0.1,0-0.2,0.1-0.4,0.1c0,0,0,0-0.1,0c-0.1,0-0.1,0.1-0.2,0.1c-0.1,0-0.2,0.1-0.2,0.1c0,0,0,0-0.1,0.1c-0.1,0-0.1,0.1-0.2,0.2
		c-0.1,0.1-0.2,0.1-0.2,0.2c-0.1,0.1-0.1,0.1-0.2,0.2c-0.1,0.1-0.1,0.2-0.2,0.2c0,0.1-0.1,0.1-0.1,0.2c-0.1,0.1-0.1,0.2-0.2,0.3
		c0,0.1-0.1,0.1-0.1,0.2c0,0.1-0.1,0.2-0.1,0.3c0,0.1,0,0.2-0.1,0.2c0,0.1,0,0.2,0,0.3c0,0.1,0,0.2,0,0.2c0,0.1,0,0.2,0,0.4
		c0,0.1,0,0.1,0,0.2c0,0.1,0.1,0.3,0.1,0.4c0,0,0,0.1,0,0.1l92.1,228.8c-3.2,2.1-10.6,6.5-23.1,11.6c-16,6.6-43.9,15.9-85.7,22.5
		c-17.2,2.7-33.2,3.5-47.9,3c-0.3-33,11.3-60.4,24.7-92.1c7.3-17.2,14.8-34.9,21.2-55.4c9.4-29.9,10.6-51.9,4-71.2
		c-7.2-20.9-23.9-37.6-40.8-52.6c-30-26.5-54.1-36.5-65-40C1126.3,492.4,1157.4,478.2,1207.3,476.4z M593.5,1281.9
		c-2.7-3.6-23.8-33.6-25.4-82.7c-0.3-8.4,0.5-19.3,2.3-30.9c2.3-14.7,4.8-31.4,2.5-47.5c-0.7-4.6-2-8.3-3.5-11.4
		c7.6,2.8,16.1,4.3,25.2,4.3c3.4,0,6.8-0.2,10.3-0.7c0.4,0.3,0.8,0.4,1.3,0.5c0.3,0,34.4,5,53.5,71.8c2.9,10.1,5.7,25.3,9.2,44.5
		c2.5,13.6,8.2,46.4,11.6,63C680.4,1293,647,1302.2,593.5,1281.9z M959.2,1716.6l1.6-0.6c0,0,0.1,0.1,0.1,0.1
		C960.4,1716.3,959.8,1716.5,959.2,1716.6z M967.4,1714.1c-0.2-0.8-0.6-1.6-1.4-2c-97.5-57.3-172.5-141.4-222.9-249.8
		c-42-90.3-57.9-176.4-68.4-233.4c-3.6-19.3-6.4-34.6-9.4-45c-14.1-49.5-36.2-66.9-48.8-73c13.5-3.5,27.3-10.4,40.3-21.3
		c16.6-13.8,41.3-45.4,70-82c2.7-3.4,5.4-6.9,8.2-10.4c0.6,0.2,1.2,0.2,1.8,0c0.2-0.1,17.3-5.6,39,1.3c17.5,5.6,33.1,17.9,46.1,36.1
		c1.9,3.1,3.7,6.2,5.4,9.3c6.5,14.3,15,44.4,10,98.6c-12.4,134.4,9,245.9,9.2,247c0.1,0.4,0.2,0.7,0.4,1c0.8,7.1,1.7,14.2,2.9,21.3
		c6.3,39.2,15.2,75.5,26.7,108.9c-0.2,0.6-0.3,1.3-0.1,1.9c7.7,24.7,18.4,47.8,30.1,68.5c23.7,45.2,53.6,83.3,89.4,114
		C986.3,1708.1,976.8,1711.1,967.4,1714.1z M1504.2,1402.1c-1.6,6.4-9.2,34.7-29.5,67.3c-17.5,28.2-47.8,64.4-96.7,90.2
		c-5.1,2.3-9.9,4.4-14.2,6.3c-11.8,5-23.6,9.9-35.5,14.9c-65.4,27.2-129.8,52.4-191.1,75c-40.2,12.4-78,14.1-112.5,4.8
		c-29.9-8.1-57.5-24.3-81.9-48.3c-30-29.5-48-63.6-55.8-80.7c-13.6-36.6-23.9-76.9-31-120.9c-2.1-13.2-3.6-26.3-4.5-39.3
		c-1.1-23.1-1.7-70,4.6-142.6c0.7-8,1.3-15.6,1.8-22.9c4-49.8,5.5-93.5-8-130.3c-5.8-15.8-12.3-28.8-19.2-39.3
		c-2.6-4.8-4.6-7-4.9-7.3c-0.1-0.2-0.3-0.3-0.5-0.4c-16.1-21.6-33.5-31.5-47.4-35.9c-16.1-5.1-29.8-4-37.1-2.7
		c31.2-39.5,66.3-82.9,98.6-112.4c0.3-0.1,0.5-0.2,0.7-0.3c0.2-0.1,19.7-12.1,46.5-13.8c35.6-2.3,66.6,13.7,92,47.6
		c0.6,0.8,1.5,1.2,2.4,1.2c0.6,0,1.3-0.2,1.8-0.6c1.3-1,1.6-2.9,0.6-4.2c-33.3-44.5-71.4-51.7-97.5-49.9
		c-11.8,0.8-22.1,3.4-30.2,6.2c3.7-2.9,7.4-5.6,11-8c65.9-44,180.5-65.1,196.5-67.9c6,7.9,22.3,18.6,47.1,26.1
		c14.8,4.5,36,8.8,62.5,8.8c12.3,0,25.7-0.9,40.2-3.2c74.3-11.8,106.1-31.5,112.2-35.8c11.4,2.1,100.1,19.8,147.1,69.9
		c23.7,25.2,46.1,62.5,62.1,92.3c-5.6,1.1-23.3,5.7-39.9,22.8c-11.5,11.8-20,27.1-25.4,45.5c-6.7,22.8-8.6,50.5-5.6,82.3
		c5,53.5,16.3,92.2,26.3,126.3c10.5,35.9,19.5,66.8,20.2,107.5C1510.3,1354.7,1507.9,1379.2,1504.2,1402.1z M1531.4,1465.2
		c-4.1,1.9-7.9,1.9-10.1,0.1c-3.5-2.8-9.2-13.7-8.6-55.1c0.2-17,1.5-33.4,2.2-41.6c0.2-1.9,0.4-3.8,0.5-5.6c0.1-0.6-0.1-1.3-0.4-1.8
		c0.7-10.2,1-20.6,0.9-30.9c-0.7-41.5-10.3-74.3-20.4-109.1c-9.9-33.8-21.1-72.2-26.1-125.2c-5.2-55.2,4.9-97.6,29.1-122.8
		c14.5-15.1,31.4-20.7,38.4-21.6c0.2,0,0.3-0.1,0.5-0.1c0.7,1.3,1.4,2.7,2.1,4c15.4,29.6,26,54.3,28.5,60.1
		c-2.6,5.3-12.9,27.2-22.1,58.3c-9.8,33-20.3,83.5-14.8,136.7c0.1,0.6,0.1,1.1,0.2,1.7c3.2,37.9,11,79.1,17.2,112.2
		c1.3,6.9,2.5,13.5,3.7,19.8c4.6,25.3,6.1,49.5,6.5,67.6C1556.2,1434.2,1547.4,1457.9,1531.4,1465.2z M1636.1,1332.7
		c-3.3,39-14.7,74.1-24.1,97.4c-0.5,0.6-0.9,1.3-1.3,2c-6.4,11.1-14.4,16.6-22.7,15.4c-7.1-1-13.5-7-15.4-14.4
		c-1.7-6.4-1.4-13.6-0.9-17.5c2.1-9.5,4.3-21.4,6.1-35.2c4.6-36.3,6.7-93.9-9.4-161.8c-23.6-99.4-17.3-139.2-15.7-146.7
		c9.6-31.5,19.8-52.3,21-54.6l17.9-23.4c-4.1,20-5.7,55.2,1.9,117.5c3.6,29.6,12.4,60.5,20.8,90.3
		C1626.8,1245.6,1639.6,1291,1636.1,1332.7z M1630.7,1239c-3.3-13-7-26.1-10.7-39c-8.4-29.6-17.1-60.3-20.7-89.4
		c-10.5-86.4-3-118.8,2.7-130.5l78.7-102.6c0,0,0,0,0,0l0,0c0,0,0,0,0,0c0.1-0.1,0.2-0.3,0.3-0.4c0-0.1,0.1-0.1,0.1-0.2
		c0-0.1,0.1-0.1,0.1-0.2c0.2-0.4,15.5-42.7,27.1-61.4c8.7-14,23.6-18.3,30.2-18.6c13.8-0.6,23.9,10.7,25.7,13.6
		c2.7,4.3,4.9,22.3,1.3,29.6c-1,2.1-2,2.2-2.4,2.2c-3,0.3-9.2-7.6-13.9-19.8c0-0.1-0.1-0.1-0.1-0.2c-0.1-0.1-0.1-0.2-0.2-0.3
		c-0.1-0.1-0.1-0.2-0.2-0.3c-0.1-0.1-0.1-0.1-0.2-0.2c-0.1-0.1-0.2-0.2-0.3-0.2c-0.1,0-0.1-0.1-0.2-0.1c-0.1-0.1-0.2-0.1-0.3-0.2
		c-0.1,0-0.1-0.1-0.2-0.1c-0.1,0-0.2-0.1-0.3-0.1c-0.1,0-0.2-0.1-0.3-0.1c-0.1,0-0.2,0-0.3,0c-0.1,0-0.2,0-0.3,0c-0.1,0-0.2,0-0.4,0
		c-0.1,0-0.1,0-0.2,0l0,0l0,0l-19.3,3c-1.6,0.3-2.8,1.8-2.5,3.4c0.2,1.5,1.5,2.5,3,2.5c0.2,0,0.3,0,0.5,0l7.3-1.1
		c0.6,2.5,1.4,7.1,1.2,12.8c-0.5,11.8-4.9,22.8-13.3,32.7c-1.1,1.3-0.9,3.2,0.4,4.2c0.6,0.5,1.2,0.7,1.9,0.7c0.9,0,1.7-0.4,2.3-1.1
		c2.2-2.6,4.1-5.2,5.7-7.8c1.3,3,3.9,8.5,7.8,13.6c-5.9,24.6-66.5,276.1-75.4,308.2C1657.7,1220.1,1635.9,1235.6,1630.7,1239z"/>
	<path fill="#FFFFFF" d="M1089.5,628.5l-33.5,26.1c0.6,2.3,1.6,4.4,2.8,6.3c2.9-3.2,7.1-5.2,11.8-5.2c8.2,0,15,6.2,15.8,14.2
		c8.6-3.3,14.7-11.7,14.7-21.5C1101.1,639.9,1096.4,632.5,1089.5,628.5z"/>
	<path fill="#FFFFFF" d="M1135.7,616.4c-0.7,2.2-1.1,4.5-1.1,6.9c0,4.6,1.3,8.9,3.7,12.4c2.9-3.2,7.1-5.2,11.8-5.2
		c8.2,0,15,6.2,15.8,14.2c8.6-3.3,14.7-11.7,14.7-21.5c0-0.3,0-0.6,0-0.9L1135.7,616.4z"/>
	<g>
		<g>
			<g>
				<path fill="#FFFFFF" d="M1120.6,677.5c4.1,2.8,7.7,14,7.4,17.6c-0.2,2.2-9.1,7-10.3,0.1S1117.7,675.5,1120.6,677.5z"/>
			</g>
		</g>
		<g>
			<g>
				<path fill="#FFFFFF" d="M1131.4,673.9c-2,4.6,1.8,16.7,3.7,19.4c1.1,1.6,11,0.3,8.3-6.1C1140.8,680.9,1132.8,670.8,1131.4,673.9
					z"/>
			</g>
		</g>
	</g>
	<g>
		<path fill="#FFFFFF" d="M930.1,1723.5c-0.5,0-0.9-0.1-1.4-0.3c-10-5.2-26.1-14.3-46.3-27.8c-17.7-11.8-35.2-24.8-52-38.6
			c-1.3-1.1-1.5-2.9-0.4-4.2c1-1.3,2.9-1.5,4.2-0.4c16.7,13.7,34,26.5,51.5,38.2c20,13.4,36,22.3,45.8,27.5c1.5,0.8,2,2.6,1.3,4.1
			C932.3,1722.9,931.2,1723.5,930.1,1723.5z"/>
	</g>
	<g>
		<path fill="#FFFFFF" d="M1693.1,1412c-0.5,0-1-0.1-1.4-0.4c-1.5-0.8-2-2.6-1.2-4.1c8.9-16.1,14.8-36.2,18.1-61.6
			c2.3-17.2,3.3-36.4,3.1-58.6c0-1.7,1.3-3,3-3c1.6,0,3,1.3,3,3c0.2,22.6-0.8,42-3.1,59.5c-3.4,26.1-9.6,46.9-18.8,63.7
			C1695.1,1411.4,1694.1,1412,1693.1,1412z"/>
	</g>
</g>
<g>
	<g>
		<polygon fill="#FFFFFF" points="548.9,1633.2 200.4,1633.2 200.4,1372.6 219.4,1361.1 200.4,1348.6 200.4,1066.1 220.4,1060 
			200.4,1052.1 200.4,838.8 548.9,838.8 548.9,1026.3 539.8,1037.3 548.9,1045 548.9,1480.6 524.4,1488.6 548.9,1496.1 		"/>
	</g>
	<g>
		<path fill="#FECE2F" d="M589.1,1611.6c-7.7,0-14,6.3-14,14v7.6H174.9v-7.6c0-7.7-6.3-14-14-14l0,0c-7.7,0-14,6.3-14,14v76
			c0,7.7,6.3,14,14,14l0,0c7.7,0,14-6.3,14-14v-8.4h400.2v8.4c0,7.7,6.3,14,14,14s14-6.3,14-14v-76
			C603.1,1617.9,596.8,1611.6,589.1,1611.6z"/>
		<g>
			<path fill="#FECE2F" d="M589.1,755c-7.7,0-14,6.3-14,14v76c0,7.7,6.3,14,14,14s14-6.3,14-14v-76C603.1,761.3,596.8,755,589.1,755
				z"/>
			<path fill="#FECE2F" d="M176.5,769c0-7.7-6.3-14-14-14s-14,6.3-14,14v76c0,7.7,6.3,14,14,14s14-6.3,14-14v-7.7h397.3v-58.5H176.5
				V769z"/>
		</g>
	</g>
	<path fill="#1A1A1A" d="M606.1,1649.6v-24.7c0-9.4-7.6-17-17-17s-17,7.6-17,17v5.3h-20.2v-134.1c0-1.3-0.9-2.5-2.2-2.9l-17.9-5
		l17.8-4.7c1.3-0.3,2.2-1.5,2.2-2.9V1045c0-0.9-0.4-1.8-1.2-2.4l-8.3-6.5l8.5-7.6c0.6-0.6,1-1.4,1-2.2v-186l20.2,0l0,0v4.7
		c0,9.4,7.6,17,17,17s17-7.6,17-17v-22.7c12-0.2,55.3-1.8,55.3-14.3c0-12.5-43.3-14.1-55.3-14.3V769c0-9.4-7.6-17-17-17
		s-17,7.6-17,17v5.3h-61.8c-8.7-0.4-15.1-0.1-16.1,0h-75.3h-11.5h-154c-1-0.1-7.5-0.4-16.1,0h-59.3V769c0-9.4-7.6-17-17-17
		s-17,7.6-17,17v24.7c-12,0.2-55.3,1.8-55.3,14.3c0,12.5,43.3,14.1,55.3,14.3V845c0,9.4,7.6,17,17,17s17-7.6,17-17v-4.7l20,0v211.8
		c0,1.3,0.9,2.5,2.2,2.9l15.3,4.4l-15.2,3.8c-1.3,0.3-2.3,1.5-2.3,2.9v282.5c0,1,0.5,2,1.4,2.5l14.6,9.5l-14.6,9.5
		c-0.9,0.6-1.4,1.5-1.4,2.5v257.6h-20v-5.3c0-9.4-7.6-17-17-17s-17,7.6-17,17v24.7c-12,0.2-55.3,1.8-55.3,14.3s43.3,14.1,55.3,14.3
		v22.7c0,9.4,7.6,17,17,17s17-7.6,17-17v-4.5l79.2,0c0.3,0,0.7-0.1,1-0.2h231.5c0.3,0.1,0.6,0.2,1,0.2l81.6,0l0,0v4.5
		c0,9.4,7.6,17,17,17s17-7.6,17-17v-22.7c12-0.2,55.3-1.8,55.3-14.3S618.1,1649.8,606.1,1649.6z M578.1,769c0-6.1,4.9-11,11-11
		s11,4.9,11,11v76c0,6.1-4.9,11-11,11s-11-4.9-11-11V769z M171.9,845c0,6.1-4.9,11-11,11s-11-4.9-11-11v-76c0-6.1,4.9-11,11-11
		s11,4.9,11,11V845z M171.9,1700.9c0,6.1-4.9,11-11,11s-11-4.9-11-11v-76c0-6.1,4.9-11,11-11s11,4.9,11,11V1700.9z M188.9,804.7
		c0.1-4.8,1.9-8.8,5.6-12.2c8.3-7.7,23.9-10.7,36.9-11.8l21.9-0.4h154.1h11.5h75.3l22,0.4c13,1.1,28.5,4.1,36.8,11.7
		c3.7,3.4,5.5,7.4,5.6,12.2c0.4,22.9-47.3,29.1-67.1,29.6H256C236.2,833.8,188.6,827.6,188.9,804.7z M203.9,1374.3l17.1-11.1
		c0.9-0.6,1.4-1.5,1.4-2.5s-0.5-2-1.4-2.5l-17.1-11.1v-278.5l23.7-5.9c1.3-0.3,2.2-1.5,2.3-2.9c0-1.4-0.9-2.6-2.2-2.9l-23.8-6.9
		V868.7l342-14V1025l-10.2,9.1c-0.7,0.6-1,1.5-1,2.3c0,0.9,0.5,1.7,1.2,2.3l10,7.8v431.9l-26.3,6.9c-1.3,0.3-2.2,1.5-2.2,2.9
		c0,1.4,0.9,2.5,2.2,2.9l26.3,7.4v122.1l-342-15.2V1374.3z M495.3,1690.2h-243c-21.5-1.1-63.7-7.8-63.4-29.4
		c0.1-4.8,1.9-8.8,5.6-12.2c8.3-7.7,23.9-10.7,36.9-11.8l21.9-0.4c0.3,0,0.6-0.1,0.8-0.1h239.2c0.3,0.1,0.5,0.1,0.8,0.1l22,0.4
		c13,1.1,28.5,4.1,36.8,11.7c3.7,3.4,5.5,7.4,5.6,12.2C559,1682.4,516.8,1689.1,495.3,1690.2z M600.1,1700.9c0,6.1-4.9,11-11,11
		s-11-4.9-11-11v-76c0-6.1,4.9-11,11-11s11,4.9,11,11V1700.9z"/>
	<g>
		<path fill="#1A1A1A" d="M508.9,1510.3h-90c-1.7,0-3-1.3-3-3s1.3-3,3-3h90c1.7,0,3,1.3,3,3S510.6,1510.3,508.9,1510.3z"/>
	</g>
	<g>
		<path fill="#1A1A1A" d="M272.4,1188.6h-42.5c-1.7,0-3-1.3-3-3s1.3-3,3-3h42.5c1.7,0,3,1.3,3,3S274.1,1188.6,272.4,1188.6z"/>
	</g>
	<g>
		<path fill="#1A1A1A" d="M524.4,964.3h-42.5c-1.7,0-3-1.3-3-3s1.3-3,3-3h42.5c1.7,0,3,1.3,3,3S526.1,964.3,524.4,964.3z"/>
	</g>
</g>
<g>
	<g>
		<path fill="#FFFFFF" d="M417.8,774.5h-16.5c0,0-28,32.2-32,29.3c-4-2.8,3.3-28.8,3.3-28.8s-39.2,25.5-41.7,20.5s7-20.7,7-20.7
			s-24.2,12.5-26.2,6.8s7.5-15.8,7.5-15.8s-14.5,1.2-12.5-5.2s42-25.5,47.3-25.5s13.2,7.3,13.2,7.3s7.8-3.2,14.3-1
			c6.5,2.2,7.2,5.7,7.2,5.7s11.3-4.7,18.7,1.3C414.8,754.5,419.1,769.8,417.8,774.5z"/>
	</g>
	<path fill="#1A1A1A" d="M422.1,776.6c-1.2-9.2-3.3-16.3-6.6-21.5c-4.6-7.3-10.9-11.6-17.9-12.1c-2.7-0.2-5.4,0.2-7.9,1.1
		c-2.8-4.2-8.5-8.9-16.5-6.7c-1.7,0.4-3.5,1.2-5.3,2.3c-2.9-3.8-9.4-10.8-18-8.5c0,0,0,0,0,0c-0.1,0-0.1,0-0.2,0
		c-0.6,0.2-1.3,0.5-2.1,0.9c-3.6,1.6-12.6,5.8-21.4,10.4c-21.6,11.5-24.1,16.5-23.5,20.2c0.8,5,6.3,6.2,10.9,6.3
		c-2.2,3.2-3.9,6-5,8.3c-0.8,1.8-1.6,3.9-0.7,5.7c0.7,1.6,2,2.7,3.7,3.2c0.7,0.2,1.5,0.3,2.3,0.3c4.6,0,11-2.8,16.6-5.7
		c-2.7,5.3-4.6,11-3.6,14.8c0.5,2,1.7,3.5,3.5,4.3c0.7,0.3,1.5,0.5,2.6,0.5c3.4,0,9.5-2.1,22.5-10.4c3.8-2.4,7.5-4.9,10.5-7
		c-3.8,12.3-3.8,19.9,0,23.2c0.8,0.7,2.1,1.4,3.9,1.4c0.3,0,0.7,0,1.1-0.1c10.3-1.6,28.8-29.8,32.4-35.5c0.9-1.4,0.5-3.3-0.9-4.1
		c-1.4-0.9-3.3-0.5-4.1,0.9c-0.1,0.1-5.7,9-12.3,17.5c-12.3,15.8-16,15.3-16,15.3c-0.9-0.8-2.1-6.4,3.7-22.4
		c4.1-11.3,9.8-22.3,12.5-25.5c2.6-3.1,6.8-4.9,11-4.6c5,0.4,9.6,3.6,13.2,9.3c2.8,4.5,4.7,10.8,5.8,19.1c0.2,1.6,1.7,2.8,3.4,2.6
		C421.1,779.7,422.3,778.2,422.1,776.6z M308.6,761.9c0.9-2.7,10.2-8.8,23.1-15.5c-1.6,1.8-3.1,3.4-4.3,4.9
		c-3.1,3.6-6.4,7.6-9.4,11.6C312.8,763.5,309,762.6,308.6,761.9z M313.7,780.6c1.2-3.1,6.8-11.7,16-22.8
		c9.6-11.5,16.8-18.2,20.2-20.2c0.5-0.2,1-0.4,1.4-0.6c4.9-1.3,9.2,3.2,11.4,6c-10,7.3-20.7,19.5-24.5,24.9
		c-0.4,0.6-0.9,1.4-1.5,2.2C327.2,776.3,316.9,781,313.7,780.6z M381.6,749.7c-3,3.6-8.1,13.6-12,23.4c-14.7,10.9-32.8,22-36.7,21.3
		c-0.1,0-0.1-0.1-0.2-0.4c-0.9-3.2,3.5-12.8,10.5-22.6c5.8-8.3,22.6-25.8,31.5-28.2c5-1.3,8.1,1.6,9.7,3.8
		C383.4,747.8,382.5,748.7,381.6,749.7z"/>
</g>
</svg>
