<svg xmlns="http://www.w3.org/2000/svg" xmlns:xlink="http://www.w3.org/1999/xlink" id="Layer_4" x="0" y="0" baseProfile="tiny" version="1.1" viewBox="0 0 2000 2000" xml:space="preserve"><path fill="#FECE2F" d="M615.5,1606.3c-490.1-19-550.4-639.3-289.8-1024.6c220.6-326.2,351.6-464.5,592.7-474.6	c407.2-16.9,727.7,464.4,814.9,876.8C1860.4,1584.4,1677.8,1647.5,615.5,1606.3z"/><path fill="#FECE2F" d="M1227.1,526.6l-14.3-62c0,0-17.3-2.3-18.7-16c-1.3-13.7,12.7-21.3,12.7-21.3l26.7-36l38-11.7l14-12.7	c0,0,14.7,7,23.7,28c2,0,7.7,0.3,9.3,0.3c1.7,0,9-0.7,9.3,3c0.3,3.7-9.3,17.7-9.3,17.7s3.3,31.3-9,49	c-12.3,17.7-16.3,18.7-16.3,18.7l7,15.3c0,0-11.3,22.7-27.7,27.7C1256.1,531.6,1227.1,526.6,1227.1,526.6z"/><g><g><path fill="#FECE2F" d="M1319.9,1641.6l-12.2,52.7c0,0,8,17,26,15s31-18,46.2-16.7l16.5-46.3L1319.9,1641.6z"/></g></g><path fill="#1A1A1A" d="M1544.5,936.2c-0.6-0.6-1.4-0.9-2.3-0.9l-57,3.8c-0.1,0-0.2,0-0.2,0l-50.3,7.6l-13-53.2	c-0.3-1.3-1.5-2.2-2.8-2.3c-1.3,0-2.6,0.8-3,2.1l-19.1,60.6c-10.6,1.8-64.9,11.1-108.5,22.8c-48.5,12.9-94.9,38.3-95.3,38.6	c-1,0.6-1.6,1.6-1.5,2.8l2,36.8l-4.6,56.9l-32.6,126.4l-37.3,150l-60,242.7c-0.3,1.4,0.3,2.8,1.5,3.4c2.2,1.1,54.6,27.7,104.2,27.7	c0.6,0,1.2,0,1.8,0c1.2,0,2.3-0.8,2.8-1.9l81.3-208l74-195.9l21.9-55l-15.7,89.4l-56,325.3c-0.2,1.1,0.2,2.2,1.1,2.8	c1.1,0.9,28.2,22.5,62.4,32.5c34.1,10,51.6,9.5,52.3,9.5c1.3,0,2.4-0.9,2.8-2.1l7.3-24.6l73.3-220c0-0.1,0.1-0.2,0.1-0.3	c0.2-1,23.5-104.7,34-158.7c10.6-54.1,29.8-200.7,30-202.2c0-0.1,0-0.1,0-0.2l7.3-114C1545.5,937.6,1545.2,936.8,1544.5,936.2z"/><path fill="#FECE2F" d="M1179.1,1536c0.6-5.2-2.7-16.2-10.1-33.6c-2.5-5.9-5.7-9.5-9.5-11c-2.8-1.1-5.8-0.8-8.9,0.7	c-9.6,4.7-6.5,15.6-4.6,22.2c0.2,0.6,0.3,1.2,0.5,1.7c1.5,5.4,0.2,9.2-1.1,13.2c-1,2.9-1.9,5.9-1.9,9.5c0,5.9,5.6,20,7.3,24.2	c1.2,2.9,7.4,17.8,10.6,20.4c1.7,1.4,3.8,2.1,6,2.1c0.6,0,1.1-0.1,1.7-0.2c3-0.5,5.8-2.5,7.5-5.3c2.4-4,0.5-10.9-2-18.9	c-0.5-1.6-0.9-2.9-1.2-3.9c-1.4-5.5,0.6-9.3,2.7-13.3C1177.4,1541.5,1178.8,1539,1179.1,1536z"/><g><polygon fill="#1A1A1A" points="1796.2 278 1809.2 267.1 1821.5 334.9 1808.1 346.2"/><path fill="#1A1A1A" d="M1808.1,349.2c-0.3,0-0.7-0.1-1-0.2c-1-0.4-1.8-1.2-1.9-2.3l-12-68.3c-0.2-1.1,0.2-2.1,1-2.8l13-10.9 c0.8-0.7,1.9-0.9,2.9-0.5c1,0.4,1.7,1.2,1.9,2.3l12.3,67.8c0.2,1.1-0.2,2.1-1,2.8l-13.3,11.3C1809.5,349,1808.8,349.2,1808.1,349.2 z M1799.4,279.2l10.8,61.4l8-6.8l-11-61L1799.4,279.2z"/></g><path fill="#1A1A1A" d="M1903.4,220.8c-0.9-1.4-2.7-1.8-4.2-1l-4.8,3c-3.5-3.7-6.9-5.7-8.3-4.6c-1.3,1-0.4,4.5,2.1,8.5l-9.2,5.7	c-4.9-5.1-9.6-7.8-11.6-6.2c-1.8,1.4-0.6,6.2,2.7,11.8l-11.7,7.3c-1.1-0.7-2.2-1.3-3.4-1.8c-7.1-2.9-15.1-2-21.4,2.4l-26.3,18.7	c-0.9,0.7-1.4,1.8-1.2,3l8,44.4c0.2,1,0.9,1.9,1.9,2.3c0.3,0.1,0.7,0.2,1.1,0.2c0.7,0,1.3-0.2,1.9-0.6l41.2-32.4	c6.4-5,9.5-13.1,8.2-21.2c-0.1-0.9-0.4-1.8-0.6-2.6l10.2-9.7c4.6,4.6,9,6.9,10.8,5.5c1.9-1.5,0.4-6.7-3.3-12.7l7.9-7.5	c3.2,3.2,6.3,4.9,7.6,3.9c1.3-1.1,0.3-4.7-2.3-8.9l4.1-3.9C1903.9,223.6,1904.1,222.1,1903.4,220.8z"/><g><g><path fill="#FECE2F" d="M1166.4,1659l-14.3,38.3c0,0-9,15-21.3,11.3s-36.3-19.3-47.2-16l15.2-45.3l39.2,10L1166.4,1659z"/></g></g><g><path fill="#FFF" d="M1564.4,943l-22-116l-14.7-54c0,0,5.3,9.3,26,4.7s105.3-78,105.3-78l26.7-27.3c0,0-20.7,8-37.7-24 s-12.7-50-12.7-50l-75.7,49.3l-11.7-22.3l-78.5-104.7c0,0-36.1-23.6-74.1-23s-58.3,7-58.3,7l-37-5.7c0,0-14.7,22.7-27.7,27.7 s-45.3,0-45.3,0s-17.7,13.7-26.3,48.3l-36.7,28.3l-41.3,48c0,0-36.8,53.8-42.3,101.3s-6,87.5,9.5,126.5s38.5,66.5,96.5,69.5l-13,81 l25.5-15.5c0,0,51.5-27,110.5-40s89.7-17.5,89.7-17.5l19.7-62.3l13.7,55.8C1432.4,950.1,1537.9,930.8,1564.4,943z"/></g><path fill="#1A1A1A" d="M1563,645.3l-14.7-24.4c-19-30.9-36.4-56.7-51.7-76.9c-19.9-26.1-48.4-43-80.3-47.6	c-40.4-5.8-74.9,4.4-81.6,6.6c-2.6-1.1-5.5-2.2-8.5-2.9c-15.5-3.9-28.5-2.5-29-2.4c0,0,0,0,0,0c-0.1,0-0.2,0-0.4,0.1	c-0.1,0-0.2,0-0.2,0.1c-0.1,0-0.1,0.1-0.2,0.1c-0.1,0.1-0.2,0.1-0.4,0.2c0,0,0,0,0,0c-0.1,0-0.1,0.1-0.1,0.1c-0.1,0-0.1,0.1-0.2,0.1	c0,0,0,0,0,0c0,0-0.1,0-0.1,0.1c-0.1,0.1-0.1,0.1-0.2,0.2c0,0,0,0-0.1,0.1c0,0-0.1,0.1-0.1,0.1c0,0,0,0.1-0.1,0.1	c-0.1,0.1-0.1,0.2-0.2,0.2c0,0,0,0,0,0c0,0-0.1,0.1-0.1,0.1c0,0,0,0.1,0,0.1c0,0.1-0.1,0.2-0.1,0.2c0,0,0,0.1,0,0.1c0,0,0,0.1,0,0.1	c0,0,0,0,0,0c0,0,0,0,0,0c-0.1,0.4-1.4,4.1-4.8,8.8c-4.7,6.5-11.1,11.7-18.9,15.3c-18.9,8.7-43.1,0-43.4-0.1c0,0-0.1,0-0.1,0	c-0.1,0-0.2-0.1-0.3-0.1c-0.1,0-0.2,0-0.3,0c-0.1,0-0.2,0-0.3,0c-0.1,0-0.2,0-0.3,0c-0.1,0-0.2,0-0.3,0c-0.1,0-0.2,0-0.3,0.1	c-0.1,0-0.2,0.1-0.3,0.1c-0.1,0-0.2,0.1-0.3,0.1c-0.1,0-0.2,0.1-0.3,0.1c-0.1,0.1-0.2,0.1-0.2,0.2c0,0-0.1,0-0.1,0.1	c-1,0.9-25.5,22.3-29.5,69.5c-0.1,1,0.3,2,1.2,2.6c0.8,0.6,1.9,0.8,2.8,0.5l24.1-8.5l-2.5,28.9c-0.1,1.5,0.8,2.8,2.3,3.2	c0.5,0.1,46.9,11.4,76.3,30.5c0.5,0.3,1.1,0.5,1.6,0.5c1,0,1.9-0.5,2.5-1.4c0.9-1.4,0.5-3.2-0.9-4.1c-26.6-17.3-65.4-28-75.6-30.7	l2.7-31c0.1-1-0.3-2-1.1-2.6c-0.8-0.6-1.9-0.8-2.8-0.5l-24,8.4c3.6-30.1,16.2-48.5,22.8-56.4c1.6,4.5,4.9,9.5,10.1,14.9	c3,3.1,8.3,7.8,15.1,13.7c12.7,11.1,30.3,26.6,44.3,42.2l12.5,15.4c4.2,6,7.4,11.7,9.1,17c0.4,1.3,1.6,2.1,2.9,2.1	c0.3,0,0.6,0,0.9-0.1c1-0.3,1.8-1.2,2-2.2c0.1,0,0.1,0,0.2,0c0.8,0,1.5-0.3,2-0.8l16.9-15.6c0.5,0.5,1.2,0.8,2,0.8	c0.2,0,0.4,0,0.6-0.1c1.6-0.3,2.7-1.9,2.4-3.5c-4.9-26.2-13.8-51.5-22.3-71.9c-0.1-0.3-0.2-0.5-0.3-0.8c-8.2-19.3-16-34.2-19.8-41.1	c4.9-0.1,13.1,0.2,22.2,2.5c9.6,2.4,17.5,7.7,21.3,10.6l-15.3,17.4c-0.8,0.9-1,2.1-0.5,3.1c0.4,1.1,1.4,1.8,2.6,1.9l25.3,1.8	l12,54.5c0.3,1.4,1.5,2.4,2.9,2.4c0.2,0,0.4,0,0.6-0.1c1.6-0.4,2.6-2,2.3-3.6l-12.5-56.7c-0.3-1.3-1.4-2.2-2.7-2.3l-21.5-1.6	l13.4-15.2c1.1-1.2,1-3.1-0.3-4.2c-0.3-0.2-3.9-3.5-9.7-6.9c12.7-3.3,41.2-9.1,72.9-4.6c30.3,4.3,57.4,20.4,76.3,45.3	c15.2,20,32.5,45.7,51.4,76.3l14.7,24.4c0.6,0.9,1.6,1.5,2.6,1.5c0.5,0,1.1-0.1,1.5-0.4C1563.4,648.6,1563.9,646.8,1563,645.3z M1269.1,571.5c-5.7-5.2-11.1-9.9-15.8-14.1c-6.7-5.9-11.9-10.5-14.7-13.4c-5.9-6.2-8.1-10.6-8.9-13.3c4.6,1.3,12.6,3,21.5,3	c5.8,0,11.9-0.7,17.9-2.8V571.5z M1275.1,577.1v-22.1l9,6l6.7,31.4C1285.7,587.1,1280.4,582,1275.1,577.1z M1328.2,577.1l-26.3-26	l-1-9.5l16.4,6.7C1321.1,557.1,1324.8,566.8,1328.2,577.1z M1314,540.4l-34.8-14.2c10.1-6.1,15.7-13.8,18.5-19	C1301.2,513.6,1307.3,525.3,1314,540.4z"/><g><path fill="#FECE2F" d="M1393,757.3c0,0,7.4,15.2,6.7,27.5s-0.7,34.5-0.7,34.5l27.7-9.2l22-10.7l16.7-7.3l8,1 c0,0,3.8-12.1-2.2-16.8c0,0,5.4-5.6,3.1-11.5s-9.5-10.2-9.5-10.2s4.2-6.1,2.3-9.6s-7.9-6.1-7.9-6.1l-25.2-0.6l20.1-14.8 c0,0,14.6-0.6,15.2-6.8s-8.6-8.4-13.8-9.1s-13.1-0.2-22.4,5.6s-17.2,13.6-21,18S1393,757.3,1393,757.3z"/></g><path fill="#FECE2F" d="M1229.7,824.1c-0.1-0.2-9.8-17-9.8-38c0-21.3,4.2-38,4.3-38.1l1-3.7l-3.8,0c-0.1,0-0.1,0-0.2,0	c-6.7,0-19.9,3.2-23.2,15.6l-0.5,1.9c-3.1,12-6.6,25.7-14.2,30.3c-2.1,1.3-5.2,2.8-8.8,4.5c-12.1,5.8-28.6,13.7-31,24.9	c-1.6,7.4,0.9,15.2,6.4,20.6c4.3,4.2,10.1,6.4,16.5,6.4c2.4,0,4.8-0.3,7.3-0.9c18-4.5,53.1-18.5,54.6-19.1l3.2-1.3L1229.7,824.1z"/><g><path fill="#FECE2F" d="M1153.4,614.1c0,0-12.8,13.2-12.5,43.5c0.2,30,12.5,64.5,2.5,79s-34.9,6.7-46,16.5c-17,15-21,42-21,42 s2.5-48.5,15.5-87s46.5-77,46.5-77L1153.4,614.1z"/></g><g><path fill="#FFF" d="M1365.8,767.6l28.7-12.7c0,0,7.5,16.8,6.5,42.8s-10,47.4-10,47.4l-25.2,12c0,0,6.2-34.9,6.2-54.9 S1365.8,767.6,1365.8,767.6z"/></g><path fill="#1A1A1A" d="M1801.4,393l12.7-12.1l-18.2-100c1.6,0.1,3.1-1.1,3.2-2.7c0.2-1.6-1-3.1-2.7-3.3l-31-3.2	c-10.5-1.1-20.9,1.8-29.4,8l-179.6,132c-8.9,6.5-14.8,16.1-16.7,26.9l-5.5,31.5l-262.7,196.3c-26.4,19.7-45,48.2-52.4,80.2	c-3.3,14.1-4.3,28.6-3.1,43c1,12.6,3.8,25,8.2,36.9c0.4,1.2,1.6,2,2.8,2c0.3,0,0.7-0.1,1-0.2c1.6-0.6,2.3-2.3,1.8-3.9	c0-0.1-0.1-0.2-0.1-0.3l164.6-69.4l29.3-34.7l23-12.3l1.7-6l153.3-122l10.8-0.6c0,0,106.9-82.4,115.9-90.1c6.4-5.4,8.4-13.6,9-17.8	c1.1,0.7,2.5,0.7,3.5-0.2l64-50.7c0.9-0.7,1.3-1.8,1.1-2.9L1801.4,393z"/><path fill="#FFF" d="M1397.8,579.7l0.9,46.3c0.1,6.7,5.7,12.1,12.4,11.9c6.7-0.1,12.1-5.7,11.9-12.4l-1.3-63.7L1397.8,579.7z"/><path fill="#FFF" d="M1476.2,521.2l0.9,46.2c0.1,6.7,5.7,12.1,12.4,11.9s12.1-5.7,11.9-12.4l-1.3-63.7L1476.2,521.2z"/><path fill="#FFF" d="M1437,550.4l0.9,46.3c0.1,6.7,5.7,12.1,12.4,11.9c6.7-0.1,12.1-5.7,11.9-12.4l-1.3-63.7L1437,550.4z"/><g><path fill="#FFF" d="M1256.2,799.2c-1.5,0-2.8-1.2-3-2.7c-1.5-15.8,3.6-31.7,14.1-43.6c8.7-9.9,13.3-22.6,12.9-35.9l-1.4-40.9 c-0.1-1.7,1.2-3,2.9-3.1c1.7-0.1,3,1.2,3.1,2.9l1.4,40.9c0.5,14.7-4.6,29-14.4,40c-9.4,10.7-14,24.9-12.7,39c0.2,1.6-1,3.1-2.7,3.3 C1256.4,799.2,1256.3,799.2,1256.2,799.2z"/></g><g><path fill="#FFF" d="M1582.4,484.9c-1.7,0-3.5-0.3-5.1-1c-4.5-1.8-7.8-5.7-8.7-10.5l-2.6-14.1c-0.3-1.6,0.8-3.2,2.4-3.5 c1.6-0.3,3.2,0.8,3.5,2.4l2.6,14.1c0.5,2.7,2.4,5,5,6c2.6,1,5.5,0.6,7.7-1l149.9-112c6.5-4.9,15.5-4.7,21.8,0.5 c3.8,3.1,9.4,3.2,13.6,0.2c1.4-1,3.2-0.6,4.2,0.7c1,1.4,0.6,3.2-0.7,4.2c-6.4,4.5-15,4.3-20.8-0.5c-4.2-3.4-10.1-3.6-14.4-0.3 l-149.9,112C1588.3,483.9,1585.4,484.9,1582.4,484.9z"/></g><g><g><path fill="#FFF" d="M1296.1,1739.6l-5,16.3h192c0,0-1-8.2-2.8-16.3H1296.1z"/></g></g><g><path fill="#FFF" d="M1635.4,598.3l22.7-14.7c0,0,0.7,22.3,9,37.7c8.3,15.3,24.3,20.7,24.3,20.7s-15,14-16.7,14.3 c-1.7,0.3-14.3,9-14.3,9s-13.7-12.3-18.3-32C1637.4,613.6,1635.4,598.3,1635.4,598.3z"/></g><g><g><polygon fill="#FFF" points="983.1 1739.6 980.4 1756 1164.4 1756 1160.1 1739.6"/></g></g><g><g><path fill="#1A1A1A" d="M1389.8,1662c-9.6,0-55.8-2.2-113.5-42.4c-1-0.7-1.4-1.8-1.2-3l77.6-451.3c0.3-1.6,1.8-2.7,3.5-2.4 c1.6,0.3,2.7,1.8,2.4,3.5l-77.3,449.4c54.2,37.2,98.6,40,108.1,40.2c76.1-194.2,112.6-378,129.8-498.3 c18.7-130.6,19.3-216.2,19.3-217.1c0-1.7,1.3-3,3-3c0,0,0,0,0,0c1.7,0,3,1.4,3,3c0,0.9-0.6,86.9-19.3,217.9 c-17.3,120.9-54,306.1-130.9,501.5c-0.4,1.1-1.5,1.8-2.7,1.9C1391.3,1662,1390.7,1662,1389.8,1662z"/></g></g><g><path fill="#FECE2F" d="M1393.3,1661.3c0.1,0,0.1-0.1,0.2-0.1C1393.4,1661.2,1393.3,1661.2,1393.3,1661.3z"/><path fill="#FECE2F" d="M1356.6,1509c3.1,10.2,9.4,26.2,15.4,41.7c5.6,14.3,11.3,29.1,14.6,39.4c0.7,2.2,1.4,4.3,2.1,6.4 c6,17.8,10.1,30,2.1,55l-1.6,4.5c0,0,0.1,0,0.1,0c33.3-84.9,58.9-167.7,78.8-244.2c-0.2,0.3-0.4,0.6-0.5,1l-0.9,2.9 c-1.8,5.1-7.1,15.8-19.7,17.5c-5.9,0.8-10.4-1.4-14.8-3.5c-4.1-2-8.4-4-13.2-3c-4.4,0.9-7.8,3.2-10.1,6.8 c-4.3,6.7-4.6,17.7-0.9,33.8c0.5,2.1,1.2,4.5,2,7.4c2.6,8.8,6.4,22.1,3.1,27.6c-0.7,1.3-1.8,2-3.4,2.4c-3,0.7-7.8-4.9-12.3-10.3 c-4.7-5.5-9.9-11.8-16.4-15.8c-5.6-3.4-12.1-3.1-17.4,1.1C1357.1,1484.6,1352.5,1495.7,1356.6,1509z"/><path fill="#FECE2F" d="M1392.3,1661.8c-0.1,0-0.1,0-0.2,0.1C1392.2,1661.8,1392.3,1661.8,1392.3,1661.8z"/><path fill="#FECE2F" d="M1391.9,1661.9c-0.1,0-0.1,0-0.2,0C1391.8,1661.9,1391.8,1661.9,1391.9,1661.9z"/><path fill="#FECE2F" d="M1394,1660.4c0,0,0-0.1,0.1-0.1C1394,1660.4,1394,1660.4,1394,1660.4z"/><path fill="#FECE2F" d="M1393.6,1660.9c0,0,0.1-0.1,0.1-0.1C1393.7,1660.8,1393.7,1660.9,1393.6,1660.9z"/><path fill="#FECE2F" d="M1393.1,1661.4c-0.1,0-0.1,0.1-0.2,0.1C1393,1661.5,1393.1,1661.5,1393.1,1661.4z"/><path fill="#FECE2F" d="M1392.7,1661.6c-0.1,0-0.1,0.1-0.2,0.1C1392.6,1661.7,1392.7,1661.7,1392.7,1661.6z"/></g><g><path fill="#FECE2F" d="M1495.6,1288.7c-1.9,11-3.1,18.7-3.2,18.8c0,0.2,0,0.4,0,0.6c11.9-56.6,20.5-107.6,26.7-150.4 c4.2-29.2,7.5-56.2,10-80.4c-0.3,1.7-3.4,18.7-8.8,35.3c-6.8,21.1-14.4,33-21,32.4c-7.8-0.6-14.8-7.5-21.5-14.1 c-8.3-8.2-17-16.6-26.2-10c-3.5,2.5-5.6,6-6.3,10.4c-1.6,10.3,4.9,25.3,19.9,45.8C1476.3,1192,1500.4,1238.2,1495.6,1288.7z"/><path fill="#FECE2F" d="M1535,1078.2l0-0.2c0,0,0,0,0,0C1535.1,1078,1535.1,1078.1,1535,1078.2z"/></g><g><g><path fill="#1A1A1A" d="M1159.9,1662.8c-40.3,0-97.3-27.2-99.8-28.5c-1.3-0.6-1.9-2-1.6-3.4c1.1-4.3,106.2-433.7,123-490.1 c16.6-55.8,10-121.5,9.9-122.2c-0.2-1.6,1-3.1,2.7-3.3c1.6-0.2,3.1,1,3.3,2.7c0.1,0.7,6.9,67.6-10.1,124.5 c-16.1,54.1-113.8,452.7-122.4,487.5c11.4,5.2,64.6,28.7,99.4,26.7c10.2-26.6,131.2-341.2,184.4-481.2c7-18.4,12.6-33.3,16.7-44.1 c4.4-11.7,7.2-19.1,8.2-22.1c0.5-1.6,2.3-2.4,3.8-1.8s2.4,2.3,1.8,3.8c-1,3-3.8,10.5-8.2,22.2c-4.1,10.8-9.7,25.6-16.7,44.1 c-55.3,145.5-183.8,479.7-185.1,483c-0.4,1.1-1.4,1.8-2.5,1.9C1164.5,1662.7,1162.3,1662.8,1159.9,1662.8z"/></g></g><g><path fill="#FECE2F" d="M1192.6,1064.7l-3.1,38.3C1191.4,1089.5,1192.3,1076.4,1192.6,1064.7z"/><path fill="#FECE2F" d="M1192.7,1041.7c-0.3-12.6-1.1-21.1-1.2-22.7L1192.7,1041.7z"/><path fill="#FECE2F" d="M1194.1,1015.3c1.6-0.2,3.1,1,3.3,2.7c0.1,0.7,6.9,67.6-10.1,124.5c-16.1,54.1-113.8,452.7-122.4,487.5 c3.3,1.5,10.2,4.6,19.1,8.1c18.5-67.6,102.5-374.8,132.1-485c6.3-23.4,17.5-45.1,32.5-62.9c4.4-5.2,8.8-9.8,13.3-13.7 c15.8-13.9,16.5-25.2,11.8-31c-4.4-5.4-14.3-6.9-24.9,0.8c-5.1,3.7-9.2,5.2-11.6,4.2c-2.4-1-3.5-4.5-4.1-7.3 c-0.1-3.7-3-34.3-4.5-41.2l-0.8-3.6l-3.4,1.5c-18.7,8.4-31.4,15.3-31.5,15.4l-1.7,0.9l0.1,2.1 C1191.4,1016.8,1192.6,1015.5,1194.1,1015.3z"/><path fill="#FECE2F" d="M1179.2,1149.1c0.9-3.3,1.7-6.1,2.4-8.4c2-6.7,3.7-13.6,5.1-20.5L1179.2,1149.1z"/><path fill="#FECE2F" d="M1072,1639.7c2.2,0.9,4.6,2,7.3,3l3.1,1.3l0,0C1078.5,1642.4,1075,1641,1072,1639.7z"/><path fill="#FECE2F" d="M1058.5,1632.3l-0.2,0.9l1,0.5C1058.9,1633.3,1058.6,1632.8,1058.5,1632.3z"/></g><g><path fill="#FECE2F" d="M1207.3,1374.8c7.2,18.3,19.4,48.9,21.1,69.1c2.3,26.5-4.2,55.1-4.3,55.4l0.5,0.2 c22.5-58.7,48.3-125.9,72-187.9c-9,19.3-25.7,46.8-36.6,46.8c-0.1,0-0.2,0-0.2,0c-8-0.3-13.3-6.8-18.9-13.6 c-5.2-6.4-10.6-13-18.6-13.7c-6.8-0.6-12.8,1.8-16.8,6.9c-4.7,5.9-6.2,14.8-3.6,22.7C1202.9,1363.7,1204.9,1368.6,1207.3,1374.8z"/></g><g><path fill="#FECE2F" d="M1352.4,1189.5c-0.4,0-0.7-0.1-1.1-0.2c-1.5-0.6-2.3-2.3-1.7-3.9c5.2-13.7,25.1-76.2,34.6-106.3 c3-9.5,4.5-14,4.7-14.7c0.3-0.9,7.9-22.9,39-33.8c1.6-0.5,3.3,0.3,3.8,1.8c0.5,1.6-0.3,3.3-1.8,3.8c-28.3,9.9-35.2,29.8-35.3,30 c-0.2,0.7-2.1,6.5-4.7,14.6c-9.6,30.1-29.5,92.7-34.8,106.6C1354.7,1188.8,1353.6,1189.5,1352.4,1189.5z"/></g><path fill="#1A1A1A" d="M1197.4,1018.2c0-1.1-0.7-2.1-1.7-2.6c-1-0.5-2.1-0.4-3,0.2l-22,15.3c-0.8,0.5-1.2,1.4-1.3,2.4	c0,0.7-0.3,16.3,25.9,20.7c0.2,0,0.3,0,0.5,0c0.7,0,1.4-0.3,2-0.8c0.7-0.6,1-1.5,1-2.4L1197.4,1018.2z"/><path fill="#1A1A1A" d="M1567.9,942.7c-0.1-0.6-9-60.7-26.9-134.4c-17.8-73.8-41.2-139.6-41.4-140.3c-0.6-1.6-2.3-2.4-3.8-1.8	c-1.6,0.6-2.4,2.3-1.8,3.8c0.2,0.7,23.5,66.2,41.2,139.6c14.8,61.2,23.4,113,26,128.9c-31-9.1-110.1,4.6-126.5,7.6l-31.4-139.2	c-0.4-1.6-2-2.6-3.6-2.3c-1.6,0.4-2.6,2-2.3,3.6l18.4,81.7c-0.3,0.3-0.6,0.7-0.7,1.2l-17.8,63.1c-10.1,1.2-56.6,7.4-125,27.9	c-58.9,17.9-84.6,33.8-95.4,42.6l13-74.6c0.3-1.6-0.8-3.2-2.4-3.5c-1.6-0.3-3.2,0.8-3.5,2.4l-14.6,84c-0.2,1.4,0.6,2.8,1.9,3.3	c0.3,0.1,0.7,0.2,1,0.2c1,0,2-0.5,2.6-1.5c0.1-0.2,13.1-21.1,99.1-47.3c76.6-23,125.4-27.8,125.9-27.9c1.2-0.1,2.3-1,2.6-2.2	l15.9-56.2l11,48.7c0.3,1.4,1.5,2.3,2.9,2.3c0.2,0,0.4,0,0.6-0.1c1-0.2,103.8-19.7,130.6-6.7c1,0.5,2.2,0.4,3.1-0.3	C1567.6,944.9,1568.1,943.8,1567.9,942.7z"/><path fill="#1A1A1A" d="M1396.1,753.2c-0.8-1.4-2.5-1.9-3.9-1.3l-27.6,13l-138.6,58c-1.5,0.6-2.2,2.4-1.6,3.9s2.4,2.2,3.9,1.6	l135.5-56.7c11.6,43.7-4.9,100.3-7.3,108.1c-6.7,4.9-55.3,39.7-101,54.5c-69.4,22.4-106.1,10.4-124.6-3.7	c-35.1-26.6-65.5-91-45.5-191.7c9.8-49.5,40.5-90.8,64.4-116.6c26.1-28.1,50.1-44.7,50.3-44.8c1.4-0.9,1.7-2.8,0.8-4.2	c-0.9-1.4-2.8-1.7-4.2-0.8c-0.2,0.2-24.8,17-51.3,45.6c-24.5,26.4-55.9,68.7-66,119.6c-20.5,103.4,11.2,169.9,47.8,197.6	c11.9,9,30.7,17.3,59.6,17.3c18.9,0,42.1-3.5,70.5-12.7c49.9-16.1,103-55.5,103.5-55.9c0.5-0.4,0.9-0.9,1.1-1.5	c0.2-0.5,3.1-9.5,6-23.1l24.3-11.6c0.4-0.2,0.7-0.4,1-0.7c0.9-1,8.8-11.1,9.7-45.9C1403.8,767.8,1396.4,753.8,1396.1,753.2z M1396.9,801.1c-0.8,28.9-6.6,39.6-8,41.7l-19.6,9.3c0.5-2.8,1-5.7,1.5-8.7c3.1-20.1,5.3-49-1.5-74.1l22.5-10.6	C1393.8,763.9,1397.6,777.3,1396.9,801.1z"/><g><path fill="#1A1A1A" d="M1291.2,454.1c-16.9,0-21.1-16-21.2-16.2c-0.4-1.6,0.6-3.2,2.2-3.6c1.6-0.4,3.2,0.6,3.6,2.2 c0,0.1,1.1,4,4.2,7.2c4.1,4.2,10,5.4,17.4,3.6c1.6-0.4,3.2,0.6,3.6,2.2c0.4,1.6-0.6,3.2-2.2,3.6 C1296.1,453.8,1293.5,454.1,1291.2,454.1z"/></g><path fill="#1A1A1A" d="M1330.7,397.3c-0.4-1.4-1.6-3.4-4.6-4.5c-2.2-0.8-5-0.2-8.3,0.5c-1.5,0.3-3.9,0.8-5,0.8	c-5.8-11.9-13.8-21.8-21.9-27.4c-15.2-10.5-39.1-22.5-70.9-5c-14.1,7.8-20.4,19.3-22.6,31.1c-0.1,0.5-0.2,0.9-0.2,0.9	c0,0.2,0,0.3,0,0.5c-2,12.9,0.6,25.7,3.1,33.9c-5.4,4-12.3,12.6-9,23.9c3.1,10.6,12.4,14.4,18.5,15.2l13.8,60.2	c0.3,1.4,1.6,2.3,2.9,2.3c0.2,0,0.4,0,0.7-0.1c1.6-0.4,2.6-2,2.3-3.6l-14.3-62.3c-0.3-1.4-1.5-2.3-2.9-2.3c-0.1,0-12-0.1-15.1-11	c-3.3-11.5,7.8-18.1,8.3-18.4c0,0,0,0,0.1,0c0,0,0,0,0.1,0c0,0,3.9-2.4,7.6-1.3c2.5,0.8,4.5,3,6,6.6c4.3,10.2,7.5,11.8,9.7,11.8	c0.2,0,0.3,0,0.5,0c0.9-0.1,3.2-0.7,3.9-4.1c0.3-1.6-0.2-3.5-1.5-8.2c-2.8-9.9-8.1-28.2,0.8-37.6c4.9-5.2,13.3-6.9,22.2-8.7	c12.4-2.5,26.4-5.4,32.9-18.8c0.1,0,0.1,0.1,0.2,0.1c7.3,5,14.8,14.6,20.2,25.7c1.9,3.9,6.9,2.8,11.3,1.9c1.6-0.3,4.3-0.9,5.1-0.7	c0.5,0.2,0.8,0.4,0.8,0.5c0.6,1.9-4.2,8-6,10.3c-2.9,3.7-4.4,5.6-3.8,7.8c3.1,12,2.3,21.9-2.8,35.2c-5,13-13,23-24,29.8	c-8.1,5.1-14.9,6.4-15.1,6.4c-0.1,0-0.3,0.1-0.4,0.1c0,0-0.1,0-0.1,0c-0.2,0.1-0.4,0.2-0.6,0.3c0,0-0.1,0.1-0.1,0.1	c-0.1,0.1-0.3,0.2-0.4,0.4c0,0.1-0.1,0.1-0.1,0.2c-0.1,0.2-0.3,0.4-0.4,0.6c0,0,0,0,0,0c0,0,0,0,0,0c-0.1,0.2-0.1,0.4-0.2,0.7	c0,0.1,0,0.1,0,0.2c0,0.2,0,0.4,0,0.5c0,0.1,0,0.1,0,0.2c0,0,0,0.1,0,0.1c0,0.2,0.1,0.4,0.2,0.6c0,0,0,0.1,0.1,0.1	c0.1,0.2,0.2,0.4,0.3,0.6c0,0,0,0,0,0.1c0,0,0,0.1,0.1,0.1c0,0,0,0,0,0c0.7,0.8,5.7,6.5,13.7,5.3c5.6-0.8,8.8,0,9.3,2.5	c0,0.1,0.1,0.2,0.1,0.3c0,0.1,0,0.1,0.1,0.2c0,0.1,0.1,0.2,0.1,0.3c0,0.1,0.1,0.1,0.1,0.2c0,0.1,0.1,0.1,0.2,0.2	c0,0.1,0.1,0.1,0.1,0.2c0.1,0.1,0.1,0.1,0.2,0.2c0.1,0.1,0.1,0.1,0.2,0.2c0.1,0.1,0.2,0.1,0.2,0.2c0.1,0,0.1,0.1,0.2,0.1	c0.1,0,0.2,0.1,0.3,0.1c0.1,0,0.1,0.1,0.2,0.1c0.1,0,0.2,0.1,0.3,0.1c0.1,0,0.1,0,0.2,0c0.2,0,0.3,0,0.5,0c0.2,0,0.4,0,0.6-0.1	c0,0,0,0,0,0s0,0,0,0c0.1,0,0.1,0,0.2-0.1c0.1,0,0.2-0.1,0.3-0.1c0.1,0,0.1-0.1,0.2-0.1c0.1-0.1,0.2-0.1,0.3-0.2	c0.1,0,0.1-0.1,0.2-0.2c0.1-0.1,0.2-0.1,0.2-0.2c0.1-0.1,0.1-0.1,0.2-0.2c0.1-0.1,0.1-0.2,0.2-0.2c0-0.1,0.1-0.1,0.1-0.2	c0.1-0.1,0.1-0.2,0.1-0.3c0-0.1,0.1-0.2,0.1-0.2c0-0.1,0.1-0.2,0.1-0.3c0-0.1,0-0.2,0-0.3c0-0.1,0-0.2,0-0.3c0-0.1,0-0.2,0-0.3	c0-0.1,0-0.2,0-0.3c-2.2-12.8-2.8-15.9-3.2-17c7.6-6,15.4-15.1,20.7-28.8c5.4-14.1,6.4-25.2,3.2-38c0.5-0.8,1.7-2.3,2.5-3.4	C1327.6,407.9,1332.1,402.1,1330.7,397.3z"/><g><path fill="#1A1A1A" d="M1445.9,707.3c-0.9,0-1.8-0.4-2.4-1.1c-1-1.3-0.8-3.2,0.5-4.2l161.4-127.5c1.3-1,3.2-0.8,4.2,0.5 c1,1.3,0.8,3.2-0.5,4.2l-161.4,127.5C1447.2,707.1,1446.6,707.3,1445.9,707.3z"/></g><g><path fill="#FFF" d="M1601.9,522.6c-0.9,0-1.8-0.4-2.4-1.1c-1-1.3-0.8-3.2,0.5-4.2l117.6-93.5c1.3-1,3.2-0.8,4.2,0.5 c1,1.3,0.8,3.2-0.5,4.2L1603.8,522C1603.2,522.4,1602.6,522.6,1601.9,522.6z"/></g><g><path fill="#FFF" d="M1612.2,585.1c-1.1,0-2.1-0.6-2.7-1.6c-0.8-1.5-0.2-3.3,1.3-4c4.5-2.3,7.9-10.8,4.1-27.4 c-4.2-18.5-15-30.3-15.1-30.4c-1.1-1.2-1.1-3.1,0.1-4.2c1.2-1.1,3.1-1.1,4.2,0.1c0.5,0.5,12,13,16.6,33.1c5.6,24.5-3.1,32-7.1,34.1 C1613.1,585,1612.7,585.1,1612.2,585.1z"/></g><g><path fill="#FFF" d="M1614.7,583.3c-0.9,0-1.8-0.4-2.3-1.1c-1-1.3-0.8-3.2,0.5-4.2l112.6-89.6c2-1.6,3.7-3.3,5-5.1 c2.8-3.8,5.6-9.2,2.1-24.7c-4.2-18.5-15-30.3-15.1-30.4c-1.1-1.2-1.1-3.1,0.1-4.2c1.2-1.1,3.1-1.1,4.2,0.1c0.5,0.5,12,13,16.6,33.1 c3.9,17.1,0.8,24.3-3.1,29.6c-1.6,2.2-3.7,4.3-6.1,6.2l-112.6,89.6C1616,583.1,1615.3,583.3,1614.7,583.3z"/></g><g><path fill="#FFF" d="M1506.9,646.4c-1.3,0-2.5-0.8-2.9-2.1c-7.6-24.4,0.8-51.4,20.8-67.3l75.2-59.7c1.3-1,3.2-0.8,4.2,0.5 c1,1.3,0.8,3.2-0.5,4.2l-75.2,59.7c-18.1,14.3-25.7,38.8-18.8,60.8c0.5,1.6-0.4,3.3-2,3.8C1507.5,646.3,1507.2,646.4,1506.9,646.4z"/></g><g><path fill="#FFF" d="M1614.9,403.7l-42.2,30c-3.3,2.4-8,1.6-10.3-1.7l0,0c-2.4-3.3-1.6-8,1.7-10.3l42.2-30 c3.3-2.4,8-1.6,10.3,1.7l0,0C1619,396.7,1618.3,401.4,1614.9,403.7z"/></g><g><path fill="#FFF" d="M1683.4,353.2l-42.2,30c-3.3,2.4-8,1.6-10.3-1.7l0,0c-2.4-3.3-1.6-8,1.7-10.3l42.2-30 c3.3-2.4,8-1.6,10.3,1.7l0,0C1687.5,346.2,1686.8,350.9,1683.4,353.2z"/></g><g><path fill="#FFF" d="M1751.9,302.7l-42.2,30c-3.3,2.4-8,1.6-10.3-1.7l0,0c-2.4-3.3-1.6-8,1.7-10.3l42.2-30 c3.3-2.4,8-1.6,10.3,1.7l0,0C1756,295.7,1755.3,300.4,1751.9,302.7z"/></g><g><path fill="#FFF" d="M1636.1,565.9c-1.1,0-2.1-0.6-2.7-1.6c-0.8-1.5-0.2-3.3,1.3-4c4.5-2.3,7.9-10.8,4.1-27.4 c-4.2-18.5-15-30.3-15.1-30.4c-1.1-1.2-1.1-3.1,0.1-4.2s3.1-1.1,4.2,0.1c0.5,0.5,12,13,16.6,33.1c5.6,24.5-3.1,32-7.1,34.1 C1637,565.7,1636.5,565.9,1636.1,565.9z"/></g><g><path fill="#FFF" d="M1662.2,545.7c-1.1,0-2.1-0.6-2.7-1.6c-0.8-1.5-0.2-3.3,1.3-4c4.5-2.3,7.9-10.8,4.1-27.4 c-4.2-18.5-15-30.3-15.1-30.4c-1.1-1.2-1.1-3.1,0.1-4.2c1.2-1.1,3.1-1.1,4.2,0.1c0.5,0.5,12,13,16.6,33.1c5.6,24.5-3.1,32-7.1,34.1 C1663.2,545.6,1662.7,545.7,1662.2,545.7z"/></g><g><path fill="#FFF" d="M1688.4,525.3c-1.1,0-2.1-0.6-2.7-1.6c-0.8-1.5-0.2-3.3,1.3-4c7.4-3.9,6.1-19.6,4.1-28.3 c-4.2-18.5-15-30.3-15.1-30.4c-1.1-1.2-1.1-3.1,0.2-4.2c1.2-1.1,3.1-1.1,4.2,0.1c0.5,0.5,12,13,16.6,33.1 c3.1,13.5,2.8,29.7-7.1,34.9C1689.3,525.2,1688.8,525.3,1688.4,525.3z"/></g><g><path fill="#FFF" d="M1714.5,503.9c-1.1,0-2.1-0.6-2.7-1.6c-0.8-1.5-0.2-3.3,1.3-4c4.3-2.3,8-11,4.1-28 c-3.4-15-11-25.5-14.2-29.2c-1.1-1.3-0.9-3.2,0.4-4.2c1.3-1.1,3.2-0.9,4.2,0.4c3.4,4.1,11.7,15.4,15.4,31.7c5.8,25.6-4,33-7.2,34.7 C1715.4,503.8,1714.9,503.9,1714.5,503.9z"/></g><g><path fill="#FECE2F" d="M1658.1,583.6l4.4-21.4c0,0-10.7-28.5-13.8-33c-2.8-4.4,3.6-9.4,7.2-7.8c3.7,1.7,12.5,23.8,16.2,24.1 c3.7,0.3,7.3-0.3,7.3-0.3l-17.3-35.3c0,0-6-10-0.7-10.7c5.3-0.7,13.7,10.3,13.7,10.3l-6-11.3c0,0-3.3-9.7,0-9.7 c3.3,0,25.7,22.3,25.7,22.3l-6-11.2c0,0-13.5-7.7-8.6-13.9c1.8-2.3,28.7,13.5,29.6,15.8s13.9,39.7,13.9,39.7s-7,34.2-7.8,34.5 s-9,25.8-9,25.8l-28.8,35c0,0-12.5-12.2-15.8-23S1658.1,583.6,1658.1,583.6z"/></g><g><ellipse cx="1310.3" cy="879" fill="#1A1A1A" rx="9.4" ry="10.7"/></g><g><ellipse cx="1339.3" cy="861.3" fill="#1A1A1A" rx="9.4" ry="10.7"/></g><g><ellipse cx="1355.8" cy="708.8" fill="#FFF" rx="9.4" ry="10.7"/><path fill="#FFF" d="M1355.8,720c-5.5,0-9.9-5-9.9-11.2c0-6.2,4.5-11.2,9.9-11.2s9.9,5,9.9,11.2 C1365.7,715,1361.3,720,1355.8,720z M1355.8,698.6c-4.9,0-8.9,4.6-8.9,10.2s4,10.2,8.9,10.2s8.9-4.6,8.9-10.2 S1360.7,698.6,1355.8,698.6z"/></g><g><ellipse cx="1382.5" cy="688.5" fill="#FFF" rx="9.4" ry="10.7"/><path fill="#FFF" d="M1382.5,699.6c-5.5,0-9.9-5-9.9-11.2c0-6.2,4.5-11.2,9.9-11.2c5.5,0,9.9,5,9.9,11.2 C1392.4,694.6,1388,699.6,1382.5,699.6z M1382.5,678.3c-4.9,0-8.9,4.6-8.9,10.2s4,10.2,8.9,10.2c4.9,0,8.9-4.6,8.9-10.2 S1387.4,678.3,1382.5,678.3z"/></g><path fill="#1A1A1A" d="M1486.1,1755.5l-2.7-16.3c0,0,0,0,0,0c-0.2-1.7-3.3-19.2-22.8-23.9c-3.8-0.9-8.7-1.9-14.4-3.1	c-7.3-1.5-15.9-3.2-24.6-5.4c2.5,0.2,4.9,0.4,7.4,0.4c13.7,0,26.3-3.8,28.4-12.1c0.5-2,1.2-8.7-9.9-12.8c-5.6-2.1-14.3-2.5-25.9-1.2	c12.4-5.7,23.3-12.7,26-20.3c1.4-3.8,0.8-7.6-1.7-11.1c-2.6-3.6-6.3-5.5-10.6-5.6c-0.1,0-0.2,0-0.3,0c-14.3,0-34.7,19.8-47.3,33.8	l6.6-17.7c0.6-1.6-0.2-3.3-1.8-3.9c-1.6-0.6-3.3,0.2-3.9,1.8l-11.6,31.5c-4-0.1-12.3,1.1-24.5,9c-9.8,6.4-22.1,8.5-31.2,5.2	c-3.8-1.3-8.7-4.2-10.6-10.3c0-0.1-0.1-0.1-0.1-0.2c6.9-28.4,12.2-50.5,12.3-50.9c0.4-1.6-0.6-3.2-2.2-3.6c-1.6-0.4-3.2,0.6-3.6,2.2	c-0.1,0.5-12.3,51.5-24,97.9l-4.8,16.3c-0.3,0.9-0.1,1.9,0.5,2.6c0.6,0.8,1.5,1.2,2.4,1.2h192c0.9,0,1.7-0.4,2.3-1.1	C1486,1757.2,1486.2,1756.4,1486.1,1755.5z M1445.4,1687.8c4.3,1.6,6.6,3.8,6.2,5.8c-0.4,1.6-2.7,4-8,5.7	c-4.2,1.4-11.5,2.7-22.8,1.4c-12.4-1.4-24-4.9-31.4-7.6c5-1.3,11.8-2.8,19.1-4.2C1426.1,1685.7,1438.9,1685.3,1445.4,1687.8z M1434.9,1649.9c0.1,0,0.1,0,0.2,0c2.5,0,4.4,1,5.9,3.1c1.3,1.8,1.6,3.6,1,5.5c-1.3,3.6-7.4,11.2-33.5,21.3c-7.8,3-15.4,5.5-21,7.2	C1400.1,1672.5,1422.2,1649.9,1434.9,1649.9z M1295.1,1753l3.1-10.3h179.7l1.7,10.3H1295.1z"/><path fill="#1A1A1A" d="M1167.5,1656.7c-1.5-0.6-3.3,0.1-3.9,1.7l-14,35.4c0,0,0,0.1,0,0.1c0,0,0,0.1,0,0.1c-0.3,1-0.8,2-1.3,2.9	c-5.5,5.7-15.5,12.2-28.5,5.3c-3.8-2-7.8-3.9-11.5-5.6c-7.9-4.7-13.9-6.5-18.1-7.1c-0.6-0.2-1.1-0.4-1.5-0.5l12.8-41	c0.5-1.6-0.4-3.3-2-3.8c-1.6-0.5-3.3,0.4-3.8,2l-12.5,40c-3.7-4.5-10.1-11.7-17.3-18.9c-15.9-15.8-28.7-23.7-37.8-23.6	c-4.4,0.1-8,2-10.6,5.6c-2.5,3.4-3.1,7.3-1.7,11.1c2.7,7.6,13.7,14.6,26,20.3c-11.7-1.3-20.4-0.9-25.9,1.2	c-11,4.2-10.4,10.9-9.9,12.8c2,8.4,14.7,12.1,28.4,12.1c1.7,0,3.3-0.1,5-0.2c-5.3,1.3-10.9,2.7-16.4,4c-2,0.4-4,0.8-5.8,1.2	c-5.7,1.2-10.5,2.1-14.4,3.1c-16,2.9-20.9,16.1-22.3,21.7c0,0.1,0,0.1,0,0.2c-0.3,1-0.4,1.8-0.4,2c0,0,0,0,0,0l-2.7,16.3	c-0.1,0.9,0.1,1.8,0.7,2.4c0.6,0.7,1.4,1.1,2.3,1.1h184c0.9,0,1.8-0.4,2.4-1.2c0.6-0.8,0.7-1.7,0.5-2.6l-4.8-16.1	c0-0.2,0-0.3-0.1-0.5c0.2-0.5,0.2-1.1,0.1-1.6l-0.1-0.6l-1.9-10.1c-0.4-2.3-0.7-4.6-1.1-6.9c-1.2-7.6-2.5-15.5-3.8-24l13.7-34.7	C1169.8,1659.1,1169.1,1657.3,1167.5,1656.7z M1021.6,1658.6c-0.7-1.9-0.4-3.7,1-5.5c1.5-2.1,3.4-3.1,5.9-3.1c0.1,0,0.1,0,0.2,0	c12.7,0,34.9,22.5,47.5,37.1c-5.6-1.7-13.2-4.2-21-7.2C1029,1669.8,1022.9,1662.2,1021.6,1658.6z M1012,1693.6	c-0.5-2,1.9-4.2,6.2-5.8c2.8-1.1,6.8-1.6,11.8-1.6c6.6,0,15.1,0.9,25.1,2.7c7.3,1.3,14.1,2.9,19.1,4.2c-7.4,2.6-19,6.1-31.4,7.6	C1022.8,1703,1012.9,1697.2,1012,1693.6z M984,1753l1.7-10.3h171.7l3.1,10.3H984z"/><path fill="#1A1A1A" d="M1318.9,385.9l-4-6c-1.3-2-3.2-3.3-5.5-3.8c-2.3-0.5-4.6,0-6.6,1.2l-2.8,1.8c0,0,0,0,0,0	c0,0-20,12.1-40.1,23.8c0,0-0.1,0.1-0.1,0.1c0,0,0,0-0.1,0l-39.5,26.9c-1.4,0.9-1.7,2.8-0.8,4.2c0.6,0.9,1.5,1.3,2.5,1.3	c0.6,0,1.2-0.2,1.7-0.5l35.6-24.3c0.8,3,2.3,6.8,5.3,9.2c2,1.6,4.4,2.4,7,2.4c0.6,0,1.2,0,1.8-0.1c14.2-2,24.6-12.8,26-21.7	c0.8-4.8-1.7-8.7-4-11.1l5.4-3.5l7.1,11.7c0.6,0.9,1.5,1.4,2.6,1.4c0.2,0,0.5,0,0.7-0.1l3-0.8c2.5-0.6,4.6-2.5,5.5-4.9	C1320.6,390.8,1320.3,388,1318.9,385.9z"/><path fill="#1A1A1A" d="M1726.7,542.8c0.3-7.4-10.9-36-16.5-44.1c-2.5-3.6-23.5-16.6-30.4-16.4c-2.3,0.1-3.3,1.3-3.8,2.1	c-0.5,0.8-0.8,1.6-1,2.4c-1.8-1-3.2-1.2-4.2-1.3c-2-0.1-3.9,0.7-5.2,2.2c-1.7,2-1.9,4.7-1.5,7.3c-1.7-0.9-3.1-1-4.2-0.9	c-1.5,0.2-4.3,1.1-5.6,5.5c-2.4,8.1,13.5,32.7,21.2,43.8c-2.2,0.4-3.1-1-3.5-1.7c-0.7-1.2-1.5-2.5-2.3-3.9	c-6.5-10.9-13.2-22.2-20.5-18.2c-1.1,0.6-2.6,1.9-3.3,4.3c-2.7,9.5,9.6,32.1,13.4,38.7l-3.9,18.9l-110,72.4	c-1.4,0.9-1.8,2.8-0.9,4.2c0.6,0.9,1.5,1.4,2.5,1.4c0.6,0,1.1-0.2,1.6-0.5l84-55.2c1.4,11.4,6.1,39.6,20.8,57c2.4,2.9,4.8,5.2,7,7.2	c0.2,0.1,0.7,0.7,1.6,1.4c6.4,5.1,12,6.9,16.4,7.3l-7.1,6.7c-4.7,3.8-11.8,8.8-22.2,15.3c-7.6,4.7-15.1,6.4-20.6,4.6	c-3.7-1.2-6.4-3.8-8.1-7.9c-0.9-2.1-1-5.8-1.2-9.7c-0.3-9.1-0.9-22.9-15.2-22.9c-0.1,0-0.2,0-0.4,0c-14,0.2-19,22.4-24.8,48.1	c-2.5,11-5.1,22.4-8.5,32.6c-5.3,16.2-12.2,24.2-17,28.1c-4.9,3.9-8.7,4.5-9,4.6c0,0-0.1,0-0.1,0c-5.7,0.1-10-1.6-13.3-5.1	c-1.1-1.2-3-1.3-4.2-0.1c-1.2,1.1-1.3,3-0.1,4.2c4.4,4.6,10.2,7,17.4,7c0.1,0,0.3,0,0.4,0c0.1,0,0.2,0,0.2,0c0,0,0,0,0,0	c0,0,0.1,0,0.1,0c0,0,0.1,0,0.1,0c39.3-1,110.5-72.4,135.3-98.6c2.9-2.7,4.3-4.4,4.8-5.1c2-2.1,3.3-3.6,3.8-4.1	c5.4-4.4,12.8-15.7,5.9-29.1l4.3-3.2c4.2-1.8,7.5-4.5,9.6-6.9c0.1-0.1,0.1-0.1,0.2-0.2c9.2-12.5,4.2-31.2,2.6-36.2	C1716.2,588.5,1726.4,549.2,1726.7,542.8z M1638.3,600.2l16.8-11c0.6,9.6,3.5,29.6,16.4,44.8c2,2.3,4,4.2,6.1,5.8c0,0,0,0,0,0	c3.2,2.3,6.4,3.6,9.4,4.1l-24.3,18.3c-1.5-1.4-3.1-3.1-4.7-5C1643,639.2,1639,607.8,1638.3,600.2z M1705.6,597l-27,35.7	c-0.9-0.8-1.7-1.7-2.6-2.7c-14.1-16.6-15.1-40.4-15.2-45.3c0.1-0.1,0.1-0.3,0.1-0.5l4.4-21.4c0.1-0.7,0-1.5-0.3-2.1	c-6.1-10.4-15.1-29.1-13.4-35c0.2-0.6,0.3-0.7,0.4-0.7c0.2-0.1,1.6,0.2,4.3,3.5c2.7,3.3,5.6,8.2,8.2,12.5c0.8,1.4,1.6,2.7,2.4,3.9	c3.1,5.1,8.6,6,14.7,2.5c0.7-0.4,1.3-1.1,1.4-2c0.2-0.8,0-1.7-0.5-2.4c-11.8-16.9-23.7-37.7-22.5-41.8c0.2-0.7,0.4-1.1,0.5-1.2	c0.6,0.1,4.9,1.3,16,17.6c6.4,9.5,11.9,19.2,11.9,19.3c0.8,1.4,2.6,2,4.1,1.2c1.4-0.8,2-2.6,1.2-4.1c-0.1-0.1-5.6-10.1-12.2-19.9	c-3.3-4.9-6.1-8.6-8.6-11.5c0-0.5-0.1-1-0.3-1.5c-2.1-3.9-3.3-8.7-2.3-9.8c0.1-0.1,0.1-0.1,0.1-0.1c1.7-0.6,10.1,5.9,20,20.4	l9.4,18.1c0,0,0,0,0,0l0,0c0,0,0,0,0,0c0.1,0.2,0.3,0.4,0.4,0.6c0,0.1,0.1,0.1,0.1,0.2c0.1,0.1,0.3,0.3,0.5,0.4c0,0,0.1,0.1,0.1,0.1	c0.2,0.1,0.4,0.2,0.6,0.3c0.1,0,0.1,0,0.2,0c0.2,0,0.4,0.1,0.5,0.1c0,0,0.1,0,0.1,0c0,0,0.1,0,0.1,0c0.1,0,0.3,0,0.4-0.1	c0.1,0,0.1,0,0.2,0c0,0,0,0,0,0c0.2-0.1,0.4-0.1,0.6-0.2c0,0,0,0,0,0c0,0,0.1-0.1,0.1-0.1c0.1-0.1,0.3-0.1,0.4-0.2	c0.1-0.1,0.1-0.1,0.2-0.2c0.1-0.1,0.2-0.2,0.2-0.2c0.1-0.1,0.1-0.2,0.2-0.2c0.1-0.1,0.1-0.2,0.2-0.2c0-0.1,0.1-0.2,0.1-0.2	c0-0.1,0.1-0.2,0.1-0.3c0-0.1,0-0.2,0.1-0.2c0-0.1,0.1-0.2,0.1-0.3c0-0.1,0-0.2,0-0.3c0-0.1,0-0.2,0-0.3c0-0.1,0-0.3-0.1-0.4	c0-0.1,0-0.1,0-0.2l0,0c0,0,0,0,0,0l-3.5-12.8c-1.5-5.5-5.8-9.4-10-13.1c-1.3-1.2-2.7-2.4-3.9-3.7c-0.6-0.6-1.2-1.2-1.8-1.8	c-4.4-4.3-5.9-6.1-5.3-8.1c5,0.9,22.2,10.8,24.4,13.7c5.6,8,15.7,35.4,15.5,40.4C1720.4,548.3,1709.7,589.6,1705.6,597z"/><path fill="#1A1A1A" d="M1567.9,942.9c-0.1-1.5-1.3-2.7-2.8-2.8l-23-1.7c-0.8-0.1-1.6,0.2-2.2,0.8c-0.6,0.5-1,1.3-1,2.1l-1,29.8	c0,0.9,0.4,1.9,1.1,2.4c0.5,0.4,1.2,0.7,1.9,0.7c0.3,0,0.5,0,0.8-0.1C1569.3,966.8,1567.9,943.2,1567.9,942.9z"/><g><g><path fill="#FFF" d="M784.6,1722.1l-41.8,47.7c0,0-35.7,37.7-64.8,43.3c-29.2,5.7-57.8-7.3-57.8-7.3s2,10.3,3.3,11.7 c1.3,1.3,25.3,14,48.3,12s47.3-18,69.7-36.7s47.7-54.5,47.7-54.5L784.6,1722.1z"/></g><g><path fill="#FFF" d="M448.4,912.8c0,0,59.3,2,97.3,15.3c38,13.3,77.3,34.7,77.3,34.7l-1.3-117.3l21.3-132 c0,0,57.3-22,92.7-68.7s64.7-100.7,36.7-146.7s-119.3-88.7-174-94c0,0-19.3,31.3-20.7,70.7l86.7,50c0,0-43.3,44-70,48.7 c-26.7,4.7-77.3-6.7-77.3-6.7l-6.7-12.7l-36,6.7l-25.3-24l-30,16c0,0-27.3,4-40,7.3c-12.7,3.3-48.7,18-66.7,46 s-25.3,43.3-25.3,43.3l-42-86.7l-9.3-17.3l-24,23.3l-20.7,7.3l-15.3,6l7.3,23.3c0,0-16,2-14,3.3s30,106,30,106s38,88,50,103.3 c12,15.3,43.3,39.3,43.3,39.3l-7.3,66.7c0,0,22.7-12,66-12.7c43.3-0.7,66.7,2,66.7,2l16.7-52.7L448.4,912.8z"/></g><path fill="#FECE2F" d="M339.1,750.5c-4.9-11.3-10-21-10.1-21.1l-3.3-6.3l-18.6,56.4l-13.7,57.3l-12,91.6l27.1-8.1l-0.2-2.5 c0-0.4-4-41,7.4-88.3c3-12.4,10.1-17.6,17-22.6c7.3-5.3,14.8-10.7,15.7-23.7C349,776.9,345.9,765.9,339.1,750.5z"/><path fill="#FECE2F" d="M442.3,728.2l-5.9-0.9l-0.5,2.5c-0.5,2-1.6,5.2-3.9,9.7c-3.6,7.2-11,19.1-25.7,35 c-24.6,26.6-32.8,38.8-32.2,48.3c0.2,4,2,7.3,5.4,10.3c5.7,4.9,12.3,5.2,17.6,5.4c6.4,0.3,8.6,0.7,9.4,4.4 c2.6,11.8-16.7,22.8-33.8,32.5l-0.8,0.4c-32.9,18.7-24,36-23.6,36.8l1,1.8l2.1-0.3c0.3,0,29.4-4.3,64.6,0.3l2.5,0.3l18.2-55.2 l-3.4-42l-0.6-43.1l9-43.4C442.2,729.4,442.3,728.4,442.3,728.2z"/><g><path fill="#FECE2F" d="M556.8,418.8l11.7,30.3c0,0,13.3,4.3,13.3,9.3s-11.7,9-11.7,9s3.7,35.3-14.7,54.7 c-18.3,19.3-37,11.3-37,11.3l-9.7,23l-34.3,4.3l-25.3-24l14.7-31.3l13.7-36.7c0,0-11.3-4.3-11.3-18s8.3-15.3,14.3-13.7 c6,1.7,8.7,12.7,8.7,12.7s6.7,9,11,5.3c4.3-3.7,10.7-35.7,15-39.7c4.3-4,10.7-1,14.7,0S551.1,422.1,556.8,418.8z"/></g><g><path fill="#FECE2F" d="M598.4,404.1c0,0-19.7,24.7-18,59l-19.7-3.3l-24-69L598.4,404.1z"/></g><g><path fill="#FECE2F" d="M740.5,1610.8c0,0-20.4,7-41.4,11s-34,1.7-34,1.7l40.8,78.2c0,0,12.3-5.5,21.2-2.5 c8.8,3,23.3,8.7,28.3,6.3c5-2.3,9.5-23.3,9.5-23.3L740.5,1610.8z"/></g><g><path fill="#FECE2F" d="M506.3,1633.8c0,0-19.6,7-37.2,10c-17.7,3-33.3-5-33.3-5l15.2,40.3c0,0,12.2,13.7,28.2,17 c16,3.3,39.5-11.8,39.5-11.8L506.3,1633.8z"/></g><g><path fill="#FFF" d="M530.2,1739.1l-190.8,6.5c0,0-1.2,11.8,4.2,14.5s29.5,1.8,29.5,1.8l114.5-3.8c0,0,40.2,0,42.8-4.8 S530.2,1739.1,530.2,1739.1z"/></g><g><path fill="#FECE2F" d="M195.7,468.5l21.5,22l10,28l9.5,28.5c0,0-13,14.5-21.5,19.5s-24.1,9.6-24.1,9.6l-23.7-37.9l26.5-26.8 l-4.7-37.7C189.2,473.8,187.4,467.8,195.7,468.5z"/></g><g><path fill="#1A1A1A" d="M191.6,580.7c-1,0-2-0.5-2.6-1.4l-24.2-39.4c-0.9-1.4-0.4-3.3,1-4.1c1.4-0.9,3.3-0.4,4.1,1l24.2,39.4 c0.9,1.4,0.4,3.3-1,4.1C192.7,580.5,192.2,580.7,191.6,580.7z"/></g><path fill="#1A1A1A" d="M246.2,561.8c0-0.1,0.1-0.2,0.1-0.3c0-0.1,0-0.2,0.1-0.3c0-0.1,0-0.2,0.1-0.3c0-0.1,0-0.2,0-0.3 c0-0.1,0-0.2,0-0.3c0-0.1,0-0.2,0-0.3c0-0.1,0-0.2-0.1-0.3c0-0.1-0.1-0.2-0.1-0.3c0-0.1-0.1-0.2-0.1-0.3c0,0,0-0.1,0-0.1l-8-14.8 c-0.5-1-1.5-1.6-2.6-1.6c-1.1,0-2.1,0.6-2.6,1.5c-0.1,0.1-8.4,14.5-29.2,25c-4,2-7.6,3.6-10.9,4.8l-4.6-6.3 c-0.8-1.1-2.1-1.5-3.4-1.1c-0.1,0-3.3,1.1-6.3,3.3c-4.4,3.3-6.3,7.5-5.4,11.9c0,0.1,0.1,0.2,0.1,0.3c0,0.1,0,0.1,0,0.2l3,7.9 c-11.4,6.4-11.2,15.5-9.4,19.7c0,0,0,0,0,0c0,0,0,0.1,0.1,0.1c0.1,0.1,0.1,0.2,0.2,0.3c0,0,0.1,0.1,0.1,0.1 c0.1,0.1,0.2,0.2,0.2,0.3c0,0,0.1,0.1,0.1,0.1c0.1,0.1,0.3,0.2,0.4,0.3c0,0,0,0,0,0c0.1,0.1,0.3,0.2,0.4,0.2c0,0,0.1,0,0.2,0.1 c0.1,0,0.2,0.1,0.4,0.1c0.1,0,0.1,0,0.2,0c0.2,0,0.3,0.1,0.5,0.1c0,0,0,0,0,0c0,0,0.1,0,0.1,0c0.7,0,16.5-0.9,38.4-14.1 c25.5-15.4,37.5-34.7,38-35.5c0,0,0-0.1,0-0.1C246.1,562,246.1,561.9,246.2,561.8z M204.9,592.6c-6.8,4.1-13,6.9-18.3,8.9 l-6.6-17.6c4.9-0.8,14-3.1,26.2-9.2c15.6-7.8,24.6-17.6,28.9-23.1l4.8,8.9C236.7,565.1,225.2,580.3,204.9,592.6z"/><g><circle cx="457.3" cy="797" r="9.2" fill="#1A1A1A"/></g><g><circle cx="195.1" cy="626.5" r="7.6" fill="#1A1A1A"/></g><g><circle cx="202.5" cy="650.1" r="7.6" fill="#1A1A1A"/></g><g><circle cx="460.7" cy="840.1" r="9.2" fill="#1A1A1A"/></g><path fill="#1A1A1A" d="M791.8,1586.2l-10.1-22.1c-28.3-63.5-107.4-242-132.3-304.9l-14.6-43.7c-2.2-8.1-4.2-16.4-6.1-24.9 c-2.5-13.3-6.2-33-9.1-51.2c-3.4-24.6-5.3-48.3-5.8-68.8c0.1-4.8,0.2-9.3,0.3-13.2c0.5-11.6,0.5-23.6,0.1-35.6 c-0.1-28-1.8-52.6-2.6-62.9l-0.2-4c0-0.4-0.1-0.7-0.3-1.1c0,0,0-0.1,0-0.1c-0.1-1.5-1.4-2.6-2.8-2.7c-5.4-4.2-21.4-14.7-57-25.9 c-39.6-12.4-89.5-15-100.6-15.4L437.3,860c-0.3-1.3-1.5-2.2-2.8-2.2c-1.3,0-2.5,0.8-2.9,2.1l-15.9,50.3 c-81.6-8-129.6,10.3-131.6,11.1c-1,0.4-1.6,1.2-1.8,2.2c-0.3,0.4-0.4,0.9-0.5,1.4c0,0.4-0.6,9.7-1,26.1l-1.9,36.4 c-2,69.5,16.5,189.3,16.7,190.5c0,0.1,0,0.1,0,0.2l1.4,6.7c3.6,23,8,46.7,13.2,71c4.6,21.3,9.9,43,15.5,64.6l3.9,18.4 c0,0.1,0,0.2,0.1,0.3l8.9,28.5c12.8,44.7,26.6,88,39.6,126.4l7.5,23.8c0,0.1,0,0.1,0.1,0.2l7.2,18.7c21.4,60.5,37.7,101.1,38.1,102 c0,0.1,0.1,0.1,0.1,0.2c0.8,1.7,5.1,7.7,23.5,7.7c8.7,0,20.5-1.3,36.5-5.1c0.2-0.1,0.5-0.1,0.7-0.2c0.3,0,0.7-0.1,1-0.1 c28.8-4,66.5-30.9,68.6-32.5c0,0,0,0,0.1,0c0,0,0,0,0,0c0,0,0,0,0,0c0.1-0.1,0.2-0.2,0.3-0.3c0,0,0.1-0.1,0.1-0.1 c0.1-0.1,0.1-0.1,0.2-0.2c0-0.1,0.1-0.1,0.1-0.2c0-0.1,0.1-0.1,0.1-0.2c0-0.1,0.1-0.1,0.1-0.2c0-0.1,0.1-0.1,0.1-0.2 c0-0.1,0-0.1,0.1-0.2c0-0.1,0-0.2,0.1-0.2c0-0.1,0-0.1,0-0.2c0-0.1,0-0.2,0-0.2c0-0.1,0-0.1,0-0.2c0-0.1,0-0.2,0-0.2 c0-0.1,0-0.2,0-0.2c0-0.1,0-0.1,0-0.2l-23.3-91.9L517,1414c-13-68.5-20-123.2-23.5-154.8c1.1,2.9,2.3,5.9,3.5,9.1 c11.8,35.5,25,71.3,39.3,106.9c60,149.2,124.3,247.6,124.9,248.5c0.3,0.4,0.7,0.8,1.1,1c0.1,0.2,0.2,0.3,0.2,0.3 c0.5,0.8,1.4,1.3,2.4,1.4c0.5,0,5.5,0.2,13.1-0.1c1.8,0,3.9-0.1,6.1-0.3c12.7-0.8,29.7-3,45.3-8.4c1.1-0.4,2.3-0.8,3.4-1.2 c34.3-10.1,56.9-25.1,57.9-25.8c0.9-0.6,1.4-1.7,1.3-2.8C792.1,1587.3,792.1,1586.7,791.8,1586.2z"/><g><path fill="#FECE2F" d="M284.9,922.1c1.7,0.1,2.9,1.6,2.8,3.2c-0.1,1.5-10.1,151.7,28.3,329.2c37.8,174.7,117,373,120.4,381.6 c0.5,0.6,4.8,4.9,21,4.3c-13.9-39.4-25.7-72.1-36.1-100.9c-36.8-102-55.3-153.1-79.6-265.5c0.9-24.9,24.6,17.7,41.3,6.8 c17.3-11.3-14.2-54.5-38.7-87.7c-6-8.1-15.1-22.5-19.5-31.3c-9.1-18.1-11.6-38.9-13.8-59.1c-10.8-99-4.2-178.1-2.8-183.6l2.1-5.1 l-5.5,1.2c-16.8,3.6-20.8,6.1-21.4,6.5l-1.2,0.8l0,1C282.8,922.6,283.8,922.1,284.9,922.1z"/><path fill="#FECE2F" d="M326.9,1325.4l2.6,13.3l0,0.1l9,28.6C334.5,1353.6,330.6,1339.5,326.9,1325.4z"/><path fill="#FECE2F" d="M378.1,1493.9l7.5,23.8l7.2,18.7C388.1,1523.1,383.2,1508.9,378.1,1493.9z"/><path fill="#FECE2F" d="M438.5,1644.2c2.5,1.7,4.1,2.5,7.3,2.5c1.2,0,2.7-0.1,4.5-0.3C445.1,1646.1,441.3,1645.2,438.5,1644.2z"/></g><g><path fill="#FECE2F" d="M609.8,1018.8c-28.2-0.5-48.7-16.2-61-46.7c-9.5-23.6-10.3-47.6-10.3-47.9c0-1.7-1.4-2.9-3.1-2.9 c-1.7,0-3,1.4-2.9,3.1c0,1,0.8,25.2,10.7,49.8c13.1,32.6,36.2,50.1,66.7,50.6L609.8,1018.8z"/></g><path fill="#FECE2F" d="M386.9,717.3c-2.8-2.3-6.6-3-10.6-2c-3.7,0.9-7.2,3.2-9.9,6.5c-5.9,7.2-6.2,16.4-0.7,21 c1.9,1.6,4.4,2.5,7.2,2.5c1.1,0,2.3-0.1,3.4-0.4c3.7-0.9,7.2-3.2,9.9-6.5C392.1,731.3,392.4,721.9,386.9,717.3z"/><path fill="#1A1A1A" d="M791.1,1732.7l-1.9-10.3c-0.4-1.9-1-3.7-1.9-5.5l-19.6-36l-24.4-71.1c-0.5-1.6-2.2-2.4-3.8-1.9 c-1.6,0.5-2.4,2.2-1.9,3.8l24.3,70.8c-0.3,10.5-2.6,17.1-6.8,19.6c-3.8,2.3-9.8,1.3-17.8-2.7c-11.6-5.9-24.5-3.1-29.9-1.5l-41-77.2 c-0.8-1.5-2.6-2-4.1-1.2c-1.5,0.8-2,2.6-1.2,4.1l41,77.3c-11.9,9.4-71.2,57.3-82.3,77.4c-7.9,14.3-4.5,24.4-3.7,26.4l1.9,7.9 c1.1,4.4,3.8,8.2,7.7,10.6c6.1,3.8,19.2,10.1,38.1,10.1c26.2,0,51-12.7,85.7-43.8c21.3-19.1,33.7-36.2,39.3-44.7 C791,1741.1,791.9,1736.8,791.1,1732.7z M783.7,1741.4c-5.4,8.2-17.5,24.8-38.2,43.5c-33.4,30-57.1,42.2-81.7,42.2 c-17.5,0-29.4-5.8-35-9.2c-2.5-1.6-4.3-4-5-6.9l-0.3-1.2c7,3.5,19.7,8.1,38.3,8.1c4,0,8.2-0.2,12.7-0.7 c41-4.5,96.2-72.5,109.6-89.6l1.1,6.1C785.7,1736.4,785.1,1739.1,783.7,1741.4z"/><g><path fill="#FECE2F" d="M646.7,1740.3c-3.3,0-6.3-0.4-8.8-1.4c-4.1-1.6-6.8-4.5-8.1-8.6c-1.3-3.9-0.7-7.6,1.7-10.6 c7.5-9.5,33-12.5,78.1-9.2c1.2,0.1,2.3,0.2,2.7,0.2c1.3-0.1,2.5,0.7,3,2c0.5,1.4-0.1,2.9-1.3,3.7 C711.9,1717.3,670.7,1740.3,646.7,1740.3z M678.6,1715.2c-30.6,0-39.7,4.8-42.4,8.2c-1.1,1.4-1.4,3-0.7,5.1 c0.7,2.3,2.2,3.9,4.6,4.8c12.5,4.9,43.1-8.1,61.5-17.3C692.8,1715.4,685.2,1715.2,678.6,1715.2z M711.8,1710.7 C711.8,1710.7,711.8,1710.7,711.8,1710.7C711.8,1710.7,711.8,1710.7,711.8,1710.7z M711.8,1710.7L711.8,1710.7z"/></g><g><path fill="#FECE2F" d="M696.9,1766c-1.6,0-3.2-0.3-4.8-0.8c-6-2.1-8.1-6-8.7-8.9c-3.4-15.3,23.9-41.9,27-44.8 c0.8-0.8,2.1-1.1,3.2-0.6c1.1,0.4,1.8,1.5,1.9,2.6c0.2,4.1,1.6,40.4-11.2,50.1C702,1765.2,699.5,1766,696.9,1766z M709.5,1720.8 c-10.2,10.8-22,26.4-20.3,34.2c0.3,1.3,1.1,3.2,4.8,4.5c2.6,0.9,4.7,0.7,6.6-0.7c4.1-3.1,7.1-12,8.3-25 C709.3,1728.9,709.5,1724.4,709.5,1720.8z"/></g><path fill="#1A1A1A" d="M534.4,1738.3c0,0,0-0.1,0-0.1c0-0.2,0-0.3-0.1-0.5c0,0,0,0,0,0l-11.4-48.6l-13.6-55.9 c-0.4-1.6-2-2.6-3.6-2.2c-1.6,0.4-2.6,2-2.2,3.6l11.8,48.4c-15.7,9.2-29.7,12.4-41.6,9.3c-13-3.4-19.3-13.2-20-14.4l-17.1-41.5 c-0.6-1.5-2.4-2.3-3.9-1.6c-1.5,0.6-2.3,2.4-1.6,3.9l12.5,30.3c-9.7-12.8-31-38.4-47-40.2c-4.3-0.5-8,0.7-11.1,3.5 c-3.7,3.4-3.9,7-3.4,9.5c1.3,6.5,9.8,13.3,20.2,19.4c-10.3-1.6-18.1-1.1-23.3,1.6c-3.8,2-6.3,5.2-7.1,9.4c-1.1,5.2,1,8.4,2.9,10.3 c4.2,4,12.5,5.4,22.1,5.4c0.3,0,0.6,0,0.9,0c-21.5,5.5-43.3,12.1-51.7,18.4c-18,13.5-11.1,36-9.7,39.9v5.7c0,3.8,1.5,7.3,4.2,9.9 c2.6,2.5,5.9,3.8,9.5,3.8c0.2,0,0.3,0,0.5,0l175-6.3c4.9-0.2,8.8-4.2,8.8-9.1L534.4,1738.3C534.4,1738.3,534.4,1738.3,534.4,1738.3 z M387.9,1640.5c-0.2-1-0.2-2.3,1.6-3.9c1.5-1.3,3.2-2,5.2-2c0.4,0,0.8,0,1.2,0.1c12.2,1.4,30.8,22.2,41.7,36.3 c-1.4-0.5-3-1.1-4.6-1.7C412.6,1660.9,389.6,1648.8,387.9,1640.5z M378.9,1678.1c-0.8-0.8-1.7-2.1-1.2-4.7c0.5-2.4,1.8-4.1,4-5.3 c2.5-1.3,5.9-1.9,9.9-1.9c11.2,0,26.7,4.4,38.9,8.7c1.9,0.8,3.6,1.5,5.2,2.1C414.3,1681.4,385.9,1684.7,378.9,1678.1z M525.4,1753.3l-175,6.3c-2.1,0.1-4.1-0.7-5.6-2.2s-2.4-3.4-2.4-5.5v-3.4l185.9-7.1v8.8C528.4,1751.9,527.1,1753.3,525.4,1753.3z"/><path fill="#1A1A1A" d="M576.6,443.6l-0.4-4.4c-0.3-3.3-1.5-5.9-3.6-7.3c-1.3-0.9-3.4-1.7-6.4-0.8l-3.2,0.9c0,0-0.1,0-0.1,0 l-1.7,0.6c0,0,0,0,0,0l-12.6,4.3l-29.8,9.4c0,0-0.1,0-0.1,0l-25.5,8c-1.6,0.5-2.5,2.2-2,3.8c0.5,1.6,2.2,2.5,3.8,2l23.2-7.3l1,1.7 c2.9,5.2,8.4,8.3,14.2,8.3c1.4,0,2.7-0.2,4.1-0.5l10.8-2.8c3.3-0.9,6-3.2,7.3-6.3c1.3-3.2,1.1-6.7-0.5-9.7l-1.2-2.1l6.8-2.3l6.2,12 c0.5,1,1.6,1.6,2.7,1.6c0.3,0,0.6-0.1,1-0.2l1.6-0.5C577.2,451.1,576.8,445.7,576.6,443.6z"/><g><path fill="#1A1A1A" d="M537.3,429c0,0-2.7,6.1-9,8.6"/><path fill="#1A1A1A" d="M528.3,441.5c-1.6,0-3.1-1-3.7-2.6c-0.8-2.1,0.2-4.4,2.3-5.2c4.7-1.8,6.8-6.4,6.8-6.4c0.9-2,3.2-3,5.3-2.1 c2,0.9,3,3.2,2.1,5.3c-0.1,0.3-3.4,7.7-11.3,10.7C529.2,441.5,528.7,441.5,528.3,441.5z"/></g><path fill="#1A1A1A" d="M556.1,498.5c-0.3-3.3-1.9-6.1-4.4-7.7s-5.7-1.9-8.8-0.7c-2.8,1-5.3,3.1-7.1,5.9c-1.8,2.8-2.6,6-2.3,9 c0.3,3.3,1.9,6.1,4.4,7.7c1.5,0.9,3.2,1.4,5,1.4c1.3,0,2.6-0.2,3.8-0.7c2.8-1,5.3-3.1,7.1-5.9h0 C555.5,504.7,556.3,501.5,556.1,498.5z"/><path fill="#1A1A1A" d="M784.7,523.5c-4.5-20.6-12.6-36-26.3-49.7c-15-15-37.7-29-71.4-44.1c-27.2-12.1-54.3-20.7-77-26.6 c-0.1,0-0.2-0.1-0.3-0.1l-8.1-2c-0.2,0-0.3-0.1-0.5-0.1c-17.7-4.3-32.1-6.8-40.6-8.2c-4.3-14-11.1-27.3-11.2-27.5 c-4.1-7.9-25.9-47-55.2-40.4c-10,2.2-17.4,0-24.5-2.1c-9.2-2.7-18.7-5.5-31.1,2.8c-10,6.7-12.3,17.6-14.3,27.3 c-1.6,7.5-2.9,13.9-7.3,17.3c-4.5,3.5-18.4,14.3-14.1,37.2c5.9,30.4,28,67.9,57.8,98.3l-13.7,29.1c-2.4,1.2-9.1,4.5-18.3,10 c0,0,0,0,0,0c-0.1,0.1-13.4,5.5-42.4,11.3c-13.2,2.7-33.1,9-52.8,24c-12.7,9.7-23.5,21.6-32.5,35.6c0,0,0,0.1-0.1,0.1 c-5.8,7.8-9.5,15.7-11.8,22c-0.6,1.5-1.3,2.9-1.9,4.4l-41-83.1c-0.7-1.5-2.5-2.1-4-1.4c-1.5,0.7-2.1,2.5-1.4,4l44.9,91.2 c0,0,0,0,0,0l15.6,31.7l21.9,44.4c0,0.1,0.1,0.1,0.1,0.2c-4.6,12.8-9.9,28.5-15.1,46.7c-9.5-3.5-18.9,2.6-27,9.3 c-0.4,0.3-0.8,0.6-1.2,1c-5.1,4.4-8.9,6.8-14.1,1.5c-3.3-3.3-8.8-16.7-14.1-29.7c-7.5-18.3-15.2-37.2-22.3-43.7 c-10.2-9.3-22.8-6.5-28.7-4.5c-2.4-7.3-4.7-14.8-7.1-22.7c-12.8-42.6-21.3-79-21.3-79.3c-0.4-1.6-2-2.6-3.6-2.2 c-1.6,0.4-2.6,2-2.2,3.6c1.4,6,34.1,146.5,70.9,200.8c3.1,4.5,6.1,8.6,9,12.4c9,13.5,20.1,22.6,29.1,28.4c5.9,4.1,10.7,6.4,14,7.6 c-3.5,20.7-6.2,42.9-7.9,66.2c-0.1,0.9,0.3,1.7,0.9,2.3c0,0,0.1,0.1,0.1,0.1c0.2,0.2,0.3,0.3,0.5,0.4c0,0,0,0,0,0 c0.4,0.2,0.8,0.3,1.2,0.4c0.1,0,0.1,0,0.2,0c0.2,0,0.5,0,0.7-0.1c0,0,0.1,0,0.1,0c0.2-0.1,0.4-0.1,0.6-0.2c0,0,0.1,0,0.1,0 c0.3-0.2,33.2-18.5,132-11.3c1.4,0.1,2.7-0.8,3.1-2.2l12.4-44c5.4,28,12.2,43.5,12.7,44.5c0.1,0.1,0.1,0.3,0.2,0.4c0,0,0,0,0,0.1 c0.1,0.1,0.2,0.2,0.3,0.3c0,0,0.1,0.1,0.1,0.1c0.1,0.1,0.2,0.2,0.3,0.3c0,0,0.1,0,0.1,0.1c0.1,0.1,0.3,0.2,0.5,0.2c0,0,0.1,0,0.1,0 c0.1,0.1,0.3,0.1,0.4,0.1c0,0,0.1,0,0.1,0c0.2,0,0.4,0.1,0.5,0.1c0,0,0,0,0,0c1.2,0,65.2,0.5,114.6,19.8 c19.4,7.6,32.7,14.4,41.5,19.7l1.9,27.5c0.1,0.8,0.5,1.6,1.1,2.2c0.5,0.4,1.2,0.6,1.9,0.6c0.2,0,0.3,0,0.5,0 c5.6-1,16.1-6.4,16.1-20c0-0.1,0-0.3,0-0.4c-0.1-2.6-0.9-20.9-1.2-44.3c0.1-3.4,1.1-39.8,2.4-80c4.6-49.4,16.1-114.6,18.1-125.3 c8.9-4.2,56.8-27.9,89.3-65.4C774.5,605.4,792.5,559.1,784.7,523.5z M652.2,520.9l6.3,3.7c0.1,0,0.2,0.1,0.4,0.3 c-8.5,9.6-39.6,42.4-73,45.7c-24.5,1-59.9-5.1-62.8-5.6c-1.3-0.3-2.4-0.5-3.1-0.7l-7-10.8c0.2-0.4,0.3-0.8,0.5-1.2l7.2-16.1 c2,0.3,4.1,0.5,6.1,0.5c6.3,0,12.5-1.4,18.3-4.3c16.5-8.2,28.2-27,29.1-47c0.2-3.6,0.1-7.4-0.2-11.2l7.3,4.4c0,0,0,0,0,0 L652.2,520.9z M517.1,625.5l24.2,29.8c-11,4.3-42.8,17.3-61.6,29.8c-14.1,9.4-25.1,18.7-32.8,27.9c3.8-11.2,7.9-21,11.9-29.6 c1.9-4.1,5-10,8.9-17.4c13.4-25.4,35.3-66.9,43.3-104.4l35.4,54.8l-27.4,4.3c-1.1,0.2-2,0.9-2.3,1.9S516.4,624.7,517.1,625.5z M444.1,615.9c-0.9-10.1-1.7-19.6-2.3-27.3l9.7-7.4l5.1,10L444.1,615.9z M483.5,585.7l8.4,16c-5.6,13.8-12,27.2-18,39.2l-1.1-46.4 L483.5,585.7z M478.2,562.8l27.5-5.4c-2.3,12-6.2,24.6-10.8,36.9l-7.7-14.6c0,0,0,0,0,0L478.2,562.8z M563,418.2 c1.6-5,0.9-11.9-0.8-19.1c7.6,1.3,18.8,3.3,32.3,6.4c-4.1,6-13.7,22.1-16.2,44.9c-1.1-0.4-2.2-0.7-3.2-1c-1.3-0.3-3-0.8-3.4-1.3 c-3.2-4.3-4.4-6.5-6-10.9c-2.1-6-4.2-10.8-5.7-14.2C561.4,421.8,562.4,420.2,563,418.2z M466.9,506.4c0,0,0-0.1,0-0.1 c0,0,0-0.1,0-0.1l13-34.2c0.5-1.2,0.1-2.7-1-3.5c-0.1-0.1-12.7-9.8-10.4-21.5c0.9-4.6,3-7.5,5.9-8.4c2.7-0.8,5.4,0.2,6.1,1 c4,4,5,7.8,5.9,11.3c0.9,3.7,1.9,7.4,6.3,9.3c2.5,1.1,5,1,7.3-0.1c4.5-2.2,7.8-8.6,10.4-19.4l0.5-2.2c2-8.8,5.4-23.4,10.7-22.8 c2.4,0.3,5.9,2.2,9.6,4.2c6.9,3.8,15.3,8.3,23.4,6c1.5,3.3,3.4,7.9,5.4,13.4c1.7,5,3.3,7.8,6.8,12.5c1.6,2.2,4.3,2.9,6.7,3.5 c3.8,1,4.7,1.5,4.8,3.7c0,2-1.6,3-5.4,4.5c-2.5,1-6,2.3-5.6,5.8c0.7,5.5,0.9,10.8,0.7,15.8c-0.8,17.8-11.1,34.6-25.7,41.9 c-12.8,6.3-27.4,4.5-41.2-5.2c0,0-0.1,0-0.1-0.1c-0.1-0.1-0.2-0.1-0.3-0.2c-0.1,0-0.2-0.1-0.2-0.1c-0.1,0-0.2-0.1-0.3-0.1 c-0.1,0-0.2-0.1-0.3-0.1c-0.1,0-0.2,0-0.3,0c-0.1,0-0.2,0-0.3,0c-0.1,0-0.2,0-0.3,0c-0.1,0-0.2,0-0.3,0c-0.1,0-0.2,0.1-0.3,0.1 c-0.1,0-0.2,0-0.2,0.1c-0.1,0-0.2,0.1-0.3,0.1c-0.1,0-0.2,0.1-0.2,0.1c-0.1,0.1-0.1,0.1-0.2,0.2c-0.1,0.1-0.2,0.1-0.2,0.2 c0,0,0,0,0,0c-0.1,0.1-0.1,0.1-0.2,0.2c-0.1,0.1-0.1,0.1-0.2,0.2c0,0,0,0,0,0c-0.1,0.1-0.1,0.2-0.2,0.4c0,0.1-0.1,0.1-0.1,0.2 c-0.1,0.1-0.1,0.3-0.1,0.5c0,0.1,0,0.2-0.1,0.3c0,0.1,0,0.3,0,0.4c0,0.1,0,0.2,0,0.2c0,0.1,0,0.2,0,0.3c0,0.1,0,0.2,0.1,0.2 c0,0.1,0,0.2,0.1,0.3c0,0.1,0.1,0.2,0.1,0.2c0,0.1,0.1,0.2,0.1,0.3c0.1,0.1,0.1,0.2,0.2,0.3c0,0.1,0.1,0.1,0.1,0.2 c3.6,4.1,12.6,16.5,10.5,24.1l-0.3,0.8l-32.7,6.4l-21.9-20.9L466.9,506.4z M449.5,541.6l19.6,18.7l-27.7,21 c-0.2-3.1-0.3-5.8-0.4-7.8C440.4,557.4,446.3,546.3,449.5,541.6z M440.8,544.8c-3.1,6.6-6.3,16.4-5.9,28.9 c0.7,22.3,10.1,114.6,11.1,124.2c-1.5,3.7-2.9,7.7-4.3,11.8c-2.5-11.3-9.1-18.9-17.8-28.9c-2.4-2.7-4.8-5.5-7.4-8.7 c-13.9-16.8-34-33.6-41-39.2l26.9-30.6c0.7-0.8,0.9-2,0.6-3c-0.4-1-1.3-1.8-2.3-1.9l-26.3-4.3C400.3,568.5,427,552.3,440.8,544.8z M416.2,910.3c-79.3-5.5-115.9,5.1-128.1,10c2.7-34.6,7.9-66.6,14-95l10.2-41.6c15.3-55,31.5-88.7,31.8-89.2c0.7-1.5,0.1-3.3-1.4-4 c-1.5-0.7-3.3-0.1-4,1.4c-0.2,0.3-5.3,11-12.5,30l-18.1-36.7c17.5-22.3,16.9-44.4,16.4-62.2c-0.1-2.8-0.1-5.5-0.1-8.1 c0-17,11.8-28.9,13.3-30.3c0.1-0.1,0.2-0.2,0.2-0.2c0.1-0.1,0.1-0.2,0.2-0.3c18.1-13.4,36.3-19.4,49.3-22 c8.9-1.8,16.3-3.5,22.3-5.1c-13.4,9.2-28.9,21.2-43.9,36c-0.8,0.8-1.1,2-0.8,3c0.3,1.1,1.3,1.9,2.4,2l26.9,4.4l-25.4,28.9 c-0.5,0.6-0.8,1.4-0.7,2.3s0.5,1.6,1.1,2.1c0.3,0.2,26.2,20.5,42.5,40.3c2.7,3.2,5.1,6.1,7.5,8.8c12.4,14.2,19.2,22,17,42.5 c-0.8,2.8-1.5,5.8-2.2,8.8c-0.1,0.3-0.2,0.6-0.2,1c-4.6,20.7-7.5,45.2-6.6,74.6c0.5,16.9,2,31.8,3.9,44.7L416.2,910.3z M771,583.6 c-8.4,20.6-22.3,42.5-40.2,63.3c-34.2,39.7-86.3,63.5-88.5,64.5c-2.7,1-44.6,17.3-51.4,39.7c-4,13.2,2.6,22.1,8.5,30 c4.4,5.9,8.1,10.9,6.9,16.8c-1.1,5.1-13.9,14.4-25.3,22.6c-18.4,13.4-35.9,26-32.4,37c3.5,11.3,16.6,10.5,29.4,9.7 c8.9-0.5,18.1-1.1,23.4,2.4c15.9,10.5,18,39,18.3,48.6c0,1,0,2,0,3c0,0.2,0,0.3,0,0.3h0c0,0,0,0,0,0c0,0,0,0.1,0,0.1 c0.2,15.4,0.6,28.7,0.9,36.6c-2.5-1.9-6-4.1-10.8-6.8c-9.2-5.7-23.1-12.9-43.7-20.9c-45.7-17.8-103.4-19.9-114.8-20.1 c-3.2-7.9-16-43-17.7-99c-0.9-28.1,1.8-51.7,6.1-71.7c0-0.1,0.1-0.2,0.1-0.3c0-0.3,0.1-0.5,0.2-0.8c0.1-0.6,0.3-1.2,0.4-1.8 c3.8-14.6,18.2-30.3,42.9-46.7c22-14.6,63.8-30.5,64.2-30.7c0.9-0.3,1.6-1.1,1.8-2c0.3-0.9,0-1.9-0.6-2.7l-23.5-28.9l26.8-4.2 c1-0.2,1.9-0.8,2.3-1.7c0.4-0.9,0.3-2-0.2-2.9l-22.3-34.6c19.7,7.1,68.6,24.2,87.6,27.4c7.7,1.3,14,2,19.1,2c6.5,0,11-1.1,13.7-3.4 c2.1-1.7,3.2-4,3.4-6.8c0.2-4.2-3.3-7.3-7-10.5c-4.9-4.4-10-8.9-8.7-16c0.5-2.4,1.9-5.1,3.4-7.9c3.1-5.6,7.1-13.2,1.7-19.9 c9.5-8.2,16.3-15.7,19.3-19.3c10.1,6.1,30.9,18.3,41.4,21.8c2.3,0.8,4.5,1.1,6.6,1.1c4.9,0,9.1-2.1,11.3-5.9 c3.1-5.3,1.4-12.2-4.4-17.5c-6.4-5.9-16.4-11.8-29-19.3c-8.5-5-18.1-10.8-28.7-17.7c-17.6-11.5-20.2-16.1-25.9-26.3 c-1.3-2.3-2.7-4.8-4.5-7.7c-5.6-9.4-12.7-15.6-18.4-20.7c-4.1-3.6-7.6-6.8-9-9.8c-2-4.1,2.5-11.9,6.4-16.8 c22.1,5.8,48.2,14.1,74.5,25.8c53.7,24,84.6,45.3,94.3,89.6C782.6,541.9,779.9,561.7,771,583.6z"/><g><g><path fill="#1A1A1A" d="M200.8,496.8L185,455c-0.3-0.7-0.9-1.2-1.6-1.4c-0.7-0.2-1.5,0-2,0.6c-0.1,0.1-3,2.8-5.8,7.1 c-0.4,0.2-1.4,0.6-2.1,0.8c-2.2,0.8-4,1.4-4.7,2.8c-1.1,2.1,0.4,4,1.4,5.2c0.3,0.3,0.7,0.8,0.8,1.1c-2.6,9.3,0.2,17.8,8.3,24.4 c0.5,0.8,2,3.6,0.7,4.6c-1.8,1.4-7.7,1.7-11.2,1.6c-0.8-0.1-1.6,0.4-2,1.1c-0.4,0.7-0.4,1.6,0,2.3c0.6,1,1.2,2.9,1,3.6 c0,0,0,0.1-0.3,0.2c-1.7,0.6-9-0.8-12.5-1.4c-5.6-1.1-6.9-1.3-7.9,0.2c-0.4,0.6-0.5,1.3-0.2,2c0,0.1-0.1,0.4-0.3,0.7 c-1.3,2.8-1,6.1,0.7,8.7l12.6,18.8c1.5,2.3,3.9,3.7,6.6,3.9c0.3,0,0.6,0,0.8,0c2.4,0,4.7-1,6.4-2.7l24.7-25.3 c0.3-0.3,0.5-0.8,0.6-1.2l2-14.7C201,497.5,200.9,497.1,200.8,496.8z"/><polygon fill="#1A1A1A" points="173.6 539.1 173.6 539.1 173.6 539.1"/></g><g><path fill="#FECE2F" d="M163.4,443.6c0,0,0.6,0.2,1.5,0.5c2.8,1,7.9,4.2,11,7.4c7.2,7.5,4,12.5,4,12.5l-8.7,0.2l-3.2,3.8 l-10.8-3.5c0,0-3.8-14.5,0.2-18.2S163.4,443.6,163.4,443.6z"/></g><g><path fill="#FECE2F" d="M155.4,465.7c0,0,9,1.2,20.8,7.7s17.5,15,16.2,17.5s-11.8,2.4-11.8,2.4s5.5,3.1,1.3,6.4s-16,3.1-16,3.1 s4.2,4.5,2.5,6.5c-4.6,5.7-19.5-0.3-19.5-0.3l-7.5,2.8c0,0-5.4-15.8-0.3-17.4c0,0-0.4-10.8,7.8-14.3 C148.9,479.9,143.9,469.8,155.4,465.7z"/></g><path fill="#1A1A1A" d="M174.7,469c-0.4-0.2-0.9-0.4-1.4-0.6c-4.9-2.3-10.1-4.5-14.6-5.2c-0.9-3.2-2.3-11.2,0.9-15 c1-1.1,2-1.7,3.2-1.8c2.5-0.2,6.1,1.8,10.2,5.4c4.4,4,5.9,7.1,5.8,8.7c0,0.4-0.2,0.7-0.5,0.9c-1.1,0.7-6.9-1.5-12-5.1 c-1.4-1-3.2-0.6-4.2,0.7c-1,1.4-0.6,3.2,0.7,4.2c11.8,8.4,17.3,6.1,18.7,5.2c1.9-1.2,3.1-3.2,3.3-5.5c0.2-2.8-0.9-7.4-7.7-13.6 c-5.4-4.9-10.3-7.3-14.6-7c-2.8,0.2-5.4,1.5-7.4,3.9c-0.6,0.7-5.5,7.1-2.4,19.2c-0.9,0.3-1.7,0.7-2.4,1.3c-4.9,4-4.6,10.2-3.9,14 c-2.4,0.8-4,2.2-4.9,3.4c-2.9,3.9-2.4,9-2.1,10.8c0,0,0,0-0.1,0c0,0-0.1,0.1-0.1,0.1c-2.4,2.3-3.5,5.3-3.4,8.5 c0.4,8.3,9.4,15.9,10.5,16.8c0.6,0.5,1.2,0.7,1.9,0.7c0.9,0,1.7-0.4,2.3-1.1c0.7-0.8,0.8-1.9,0.5-2.8c5.8,1.4,16.6,2.9,20.1-4.6 c0.4-0.9,0.8-2.3,0.5-4c0.3,0,0.5,0.1,0.8,0.1c0.7,0.1,1.4,0.1,2.1,0.1c4.8,0,8.3-2,10.1-5.8c0.5-1,0.8-2.5,0.3-4.3 c2.5-0.1,4.8-0.7,6.5-1.8c2.1-1.3,3.4-3.3,3.7-5.7C196.3,481.7,183.6,473.1,174.7,469z M165.7,508c-1.8,3.9-11.9,1.9-16.2,0.4 c-1.3-0.4-2.7,0.1-3.5,1.1c-2.1-2.5-4.1-5.6-4.2-8.3c-0.1-1.4,0.4-2.6,1.5-3.8c2.5-1.1,15.3,2.5,20.8,7.8 C165.2,506.5,165.9,507.5,165.7,508z M167.4,499.2c-0.6-0.3-1.2-0.3-1.7-0.2c-4.7-3.4-13.9-7.3-20.5-7.5c-0.2-1.5-0.2-4,1-5.6 c0.8-1.1,2.1-1.6,4-1.7c6.4-0.3,20.7,5.8,26.7,11.4c1.8,1.7,2.1,2.6,2.1,2.8C176.8,503.1,167.5,499.2,167.4,499.2z M188.1,489.8 c-1.3,0.8-4.2,1.3-8.5,0.2c-6.9-5.6-19.2-11-27.2-11.7c-0.6-2.4-1-6.5,1.7-8.8c1.8-1.5,7.4,0,16.8,4.4c0.5,0.2,1,0.5,1.4,0.7 c10.9,5,17.2,11.8,16.9,13.7C189.1,488.9,188.7,489.4,188.1,489.8z"/><path fill="#1A1A1A" d="M203.8,429.9c0,0-0.1-0.1-0.1-0.1l-8.3-11c-3.6-4.8-9.6-7.2-15.5-6.3c-0.7,0.1-1.3,0.2-1.9,0.4l-7-7.7 c3.4-3.3,5.3-6.6,4.2-7.9c-1.1-1.4-5-0.4-9.4,2.2l-5.4-5.9c2.4-2.3,3.7-4.6,3-5.5c-0.8-1-3.5-0.3-6.6,1.6l-2.8-3.1 c-0.7-0.8-1.9-1-2.8-0.4c-1.1,0.6-1.4,2-0.8,3.1l2.1,3.6c-2.8,2.5-4.3,5-3.5,6.1c0.7,1,3.3,0.3,6.3-1.4l4.1,6.9 c-3.8,3.5-5.9,7-4.8,8.5c1,1.4,4.6,0.5,8.7-1.8l5.2,8.8c-0.5,0.8-1,1.6-1.3,2.5c-2.3,5.2-1.7,11.1,1.5,15.8l20.4,31.5 c0.3,0.4,0.7,0.7,1.1,0.9l13.9,4.9l5.2,10.4c0.4,0.7,1.1,1.2,2,1.2h0c0.8,0,1.6-0.5,2-1.2C220.6,471.3,224,461,203.8,429.9z"/><g><path fill="#FECE2F" d="M198.4,469.9l19.3,22.3l15.9,44.9c0,0-34.1-6.8-34-6.5c0.1,0.2-5.8-18.4-0.9-33.1 c0.9-1.2-7.8-10.7-9.1-19.9c-0.2-1.3-0.3-2.6-0.4-3.8C188.8,468.7,195.1,466.1,198.4,469.9z"/></g><g><path fill="#1A1A1A" d="M234.3,548.5c-1.2,0-2.4-0.8-2.8-2.1c-7.1-23.5-15.6-49.9-17.2-52.5c-0.5-0.8-3.5-4.7-19-22.9 c-0.7-0.8-1.5-0.5-1.8-0.4c-0.3,0.1-1,0.6-0.9,1.7c0.9,7,3,16.8,8,23.5c0.6,0.8,0.8,1.8,0.5,2.7c-0.1,0.2-5.1,18.7,0.8,31.2 c0.7,1.5,0.1,3.3-1.3,4c-1.4,0.7-3.2,0.1-3.9-1.4c-5.9-12.5-2.7-29-1.5-34c-4.2-6.1-7-14.6-8.3-25.2c-0.4-3.4,1.3-6.5,4.3-7.9 c3-1.4,6.4-0.7,8.6,1.9c11.6,13.6,18.2,21.5,19.5,23.5c2.7,4.1,15.4,45.7,17.9,54c0.5,1.6-0.4,3.3-1.9,3.8 C234.9,548.4,234.6,548.5,234.3,548.5z"/></g></g><g><path fill="#FFF" d="M199.2,444.3c-1,0-1.9-0.5-2.5-1.3l-9-13.2c-0.9-1.4-0.6-3.2,0.8-4.2c1.4-0.9,3.2-0.6,4.2,0.8l9,13.2 c0.9,1.4,0.6,3.2-0.8,4.2C200.3,444.1,199.8,444.3,199.2,444.3z"/></g><g><path fill="#FECE2F" d="M489.8,1248.1c-1.3,0-2.5-0.8-2.9-2.1c-18.5-60.5-34.2-131.6-42.7-178c-11.6-63-34.6-80.9-34.8-81.1 c-1.3-1-1.6-2.9-0.6-4.2c1-1.3,2.8-1.6,4.2-0.6c1,0.7,25.1,19.1,37.2,84.8c8.5,46.2,24.1,117.1,42.6,177.3c0.5,1.6-0.4,3.3-2,3.7 C490.3,1248.1,490.1,1248.1,489.8,1248.1z"/></g><g><path fill="#FECE2F" d="M623.5,1164.6L623.5,1164.6l-0.2-0.9C623.4,1164,623.5,1164.3,623.5,1164.6z"/><path fill="#FECE2F" d="M578.5,1098.9c25.1,18.2,33.6,39,39.1,66.8c-7.7-43.5-11-87-9.8-117.7c0-0.1,0-0.1,0-0.2 c-0.7,3.6-3.3,13-8.3,16c-1.7,1-3.6,1.2-5.8,0.5c-3.8-1.2-8.3-3.5-13.1-5.9c-13-6.4-26.4-13-33.1-4.8c-1.8,2.2-2.5,4.9-2.1,8 C547.1,1075.2,571.2,1093.6,578.5,1098.9z"/></g><g><path fill="#FECE2F" d="M597.9,1302.2c15.1,13.9,32.1,29.7,35.6,45.1c0.8,3.6,0.7,7.7,0.7,12.1c-0.2,13.3-0.5,29.8,22.3,45.9 c27.1,19.2,50.4,44.2,63.9,68.7c3.2,5.9,7,14,11.4,23.3c12.6,26.8,29.6,63.1,52.8,90.1c0.3-0.2,0.5-0.3,0.8-0.5 c-12-26.8-121.2-271.8-144.7-333.8c-1.4-3.6-2.7-7.3-3.9-11c1.7,7.8,2.8,21.7-1.4,26.3c-0.7,0.8-2,1.8-4.9,1.4 c-6.4-0.9-15.2-7.5-23.6-13.9c-12.8-9.8-26.1-19.8-37.2-15.1c-5.7,2.4-7.6,6.3-8.1,9.2c-1.8,9,6.3,22.3,24.7,40.8 C589.6,1294.5,593.6,1298.2,597.9,1302.2z"/></g><path fill="#FECE2F" d="M544.9,1116.7c-10.9-9.4-26-18.1-35-16.2c-2.9,0.6-5,2.3-6.2,4.8h0c-4.1,8.8,1.6,20.1,16.9,33.5 c8.3,7.3,22.7,13.3,32,13.3c3,0,5.5-0.6,7-2.1c1.2-1.1,2.6-3.1,2.5-6.6C562,1136,555.4,1125.8,544.9,1116.7z"/><g><path fill="#FECE2F" d="M541.9,1373c36.1,89.9,73.8,161.2,98.1,203.7c-3.3-6.5-24.9-49.2-28.6-68.2c-1.3-6.8-0.3-12.4,2.8-15.2 c2.4-2.1,5.8-2.6,9.7-1.4c1.8,0.6,3.8,1.3,5.7,2.1c6.4,2.5,13,5,17.8,1.9c2.9-1.8,4.4-5.2,4.8-10.3c1.2-17.8-20.1-40.3-65.1-68.7 c-31.1-19.7-46.8-49.8-51.4-59.9l-1.5-3.4C536.7,1360.1,539.3,1366.5,541.9,1373z"/><path fill="#FECE2F" d="M528.6,1355.7L528.6,1355.7c0,0.1,0.1,0.4,0.3,0.7C528.8,1356.2,528.7,1355.9,528.6,1355.7z"/><path fill="#FECE2F" d="M634.6,1579.5l0.4,0.9c0,0,0,0,0,0l0,0C635,1580,634.8,1579.8,634.6,1579.5z"/><path fill="#FECE2F" d="M573.7,1461.4l0.3,0.8l0.3,0.6C574.2,1462.4,574,1461.9,573.7,1461.4z"/></g></g><g><path fill="#FFF" d="M1796.3,384.8c-1.4,0-2.7-1-2.9-2.5l-16.9-90.9c-0.3-1.6,0.8-3.2,2.4-3.5c1.6-0.3,3.2,0.8,3.5,2.4 l16.9,90.9c0.3,1.6-0.8,3.2-2.4,3.5C1796.7,384.8,1796.5,384.8,1796.3,384.8z"/></g><g><path fill="none" stroke="#FECE2F" stroke-linecap="round" stroke-linejoin="round" stroke-miterlimit="10" stroke-width="6" d="M1779.4,290.9"/></g><g><path fill="#FFF" d="M1806.1,338.3c-1.4,0-2.7-1-2.9-2.5l-7.7-41.5c-0.3-1.6,0.8-3.2,2.4-3.5c1.6-0.3,3.2,0.8,3.5,2.4l7.7,41.5 c0.3,1.6-0.8,3.2-2.4,3.5C1806.5,338.2,1806.3,338.3,1806.1,338.3z"/></g><g><path fill="#FFF" d="M1816.4,302.8c-1.5,0-2.7-1.1-3-2.5l-3-19.5c-0.3-1.6,0.9-3.2,2.5-3.4c1.6-0.2,3.2,0.9,3.4,2.5l3,19.5 c0.3,1.6-0.9,3.2-2.5,3.4C1816.7,302.8,1816.6,302.8,1816.4,302.8z"/></g><g><g><path fill="#1A1A1A" d="M1527.1,1760.3h-288.7c-1.7,0-3-1.3-3-3s1.3-3,3-3h288.7c1.7,0,3,1.3,3,3S1528.8,1760.3,1527.1,1760.3z"/></g></g><g><g><path fill="#1A1A1A" d="M1637.8,1760.3h-82.7c-1.7,0-3-1.3-3-3s1.3-3,3-3h82.7c1.7,0,3,1.3,3,3S1639.4,1760.3,1637.8,1760.3z"/></g></g><g><g><path fill="#1A1A1A" d="M1184.4,1760.3H831.1c-1.7,0-3-1.3-3-3s1.3-3,3-3h353.3c1.7,0,3,1.3,3,3S1186.1,1760.3,1184.4,1760.3z"/></g></g><line x1="525.5" x2="600.4" y1="1756.3" y2="1756.3" fill="none" stroke="#1A1A1A" stroke-linecap="round" stroke-linejoin="round" stroke-miterlimit="10" stroke-width="6"/><line x1="287.4" x2="339.4" y1="1756.3" y2="1756.3" fill="none" stroke="#1A1A1A" stroke-linecap="round" stroke-linejoin="round" stroke-miterlimit="10" stroke-width="6"/><g><g><path fill="#1A1A1A" d="M1203.9,452.8c-1.4,0-2.7-1-3-2.5c-0.7-4.2,0-7.8,2.1-10.6c3.1-4.1,8-4.8,8.5-4.9c1.6-0.2,3.1,1,3.3,2.6 c0.2,1.6-1,3.1-2.6,3.3c-0.1,0-2.9,0.4-4.5,2.6c-1,1.4-1.4,3.4-0.9,6c0.3,1.6-0.8,3.2-2.5,3.5 C1204.3,452.8,1204.1,452.8,1203.9,452.8z"/></g></g><g><path fill="#1A1A1A" d="M1473.9,797C1474,797,1474,797,1473.9,797c3.3-3.7,5-8.2,4.6-12.5c-0.3-3.4-1.8-6.6-4.5-9.2 c2.1-2.2,3.7-5.9,3.3-9.8c-0.3-3.3-2.2-7.7-8.6-11.1c1.6-2.3,2.1-5.6,1.3-9c-1.1-4.6-4.8-9.5-12-9.7c-1.6,0-10.9,0-18,0.1l13.3-9.5 c7.1-0.4,11.3-0.8,12.3-1.2c1.3-0.5,2.1-1.7,2.8-4c0.1-0.3,2.2-7.3,0-10.6c-2.5-3.6-16.9-6.8-23.7-5.3c-6.8,1.6-22.1,13-28.3,17.8 c-5.6,4.4-23.7,29.9-25.7,32.8c-0.8,1.2-0.6,2.8,0.6,3.7c0.5,0.3,1,0.5,1.5,0.5c0.8,0,1.6-0.4,2.2-1.1c5.4-7.7,20.3-28.3,24.6-31.6 c9.6-7.4,21.5-15.8,26.2-16.8c5.5-1.3,16.1,1.6,18.2,3.1c0.4,1.3-0.3,5.1-0.9,6.8c-1.9,0.3-6.8,0.6-10.9,0.8c-0.5,0-1,0.2-1.4,0.5 l-20.8,14.8c-0.1,0-0.1,0.1-0.1,0.1c-0.1,0.1-0.2,0.1-0.2,0.2c-0.1,0.1-0.1,0.1-0.2,0.2c-0.1,0.1-0.1,0.1-0.2,0.2 c0,0.1-0.1,0.2-0.1,0.2c0,0.1-0.1,0.1-0.1,0.2c0,0.1-0.1,0.2-0.1,0.3c0,0.1,0,0.2-0.1,0.2c0,0.1,0,0.2,0,0.3c0,0.1,0,0.1,0,0.2 c0,0,0,0,0,0c0,0.1,0,0.2,0,0.4c0,0.1,0,0.1,0,0.2c0,0.1,0,0.1,0.1,0.2c0,0.1,0.1,0.2,0.1,0.3c0,0,0,0.1,0.1,0.1 c0.1,0.1,0.1,0.2,0.2,0.4c0,0,0,0,0,0c0,0,0.1,0.1,0.1,0.1c0.1,0.1,0.1,0.2,0.2,0.3c0.1,0.1,0.1,0.1,0.2,0.1 c0.1,0.1,0.1,0.1,0.2,0.2c0.1,0,0.1,0.1,0.2,0.1c0.1,0,0.2,0.1,0.2,0.1c0.1,0,0.2,0.1,0.2,0.1c0.1,0,0.2,0.1,0.3,0.1 c0.1,0,0.2,0,0.3,0c0.1,0,0.1,0,0.2,0c0,0,0,0,0,0c0.2,0,23.7-0.2,26.2-0.2c5.1,0.1,6.6,4,7,5.6c0.6,2.5,0,5-1.4,5.7 c-0.1,0.1-0.2,0.1-0.3,0.2c-5.9-1-16.1-0.6-18.4-0.5c-1.5,0.1-2.6,1.3-2.5,2.8c0.1,1.5,1.3,2.6,2.8,2.5c6.4-0.3,16.5-0.2,19.1,0.8 c3.4,1.4,7.6,3.9,8,7.9c0.3,2.9-1.4,5.5-2.5,6.2c0,0-0.1,0.1-0.1,0.1c-4.7-1.9-11.4-2.3-17.6-2.4c-0.7,0-1.4,0-1.6,0 c-1.5-0.2-2.8,0.9-2.9,2.3c-0.2,1.4,0.9,2.8,2.3,2.9c0.4,0,1,0.1,2.2,0.1c3.5,0,14.1,0.2,17.7,3.1c2.3,1.9,3.6,4.1,3.8,6.6 c0.1,1.8-0.3,3.8-1.3,5.7c-1.3-1.2-2.9-2.2-4.8-2.7c-5.5-1.5-13.2,0.6-17.8,4.8c-1.9,1.8-5.4,4.2-10.1,7.2 c-6.3,4-13.2,7.3-20.5,9.8l-20.7,7.1c-1.4,0.5-2.1,2-1.6,3.4c0.4,1.1,1.4,1.8,2.5,1.8c0.3,0,0.6,0,0.9-0.1l20.7-7.1 c7.7-2.6,14.9-6.1,21.6-10.3c5-3.1,8.6-5.8,10.8-7.8c3.3-3,9.1-4.6,12.9-3.6c1.8,0.5,3,1.5,3.5,3.1c0,0,0,0.1,0.1,0.1 c0,0.1,0.1,0.2,0.1,0.3c0,0.1,0.1,0.1,0.1,0.2c0,0.1,0.1,0.1,0.1,0.2c0.1,0.1,0.1,0.1,0.2,0.2c0,0,0.1,0.1,0.1,0.1c0,0,0,0,0.1,0 c0.1,0,0.1,0.1,0.2,0.1c0.1,0.1,0.2,0.1,0.2,0.2c0.1,0,0.1,0.1,0.2,0.1c0.1,0,0.2,0.1,0.3,0.1c0.1,0,0.1,0,0.2,0.1 c0.1,0,0.2,0,0.3,0.1c0.1,0,0.1,0,0.2,0c0,0,0.1,0,0.1,0c0,0,0.1,0,0.1,0c0.1,0,0.2,0,0.3,0c0.1,0,0.2,0,0.3-0.1c0,0,0.1,0,0.1,0 c0,0,0.1,0,0.1-0.1c0.1,0,0.2-0.1,0.2-0.1c0.1,0,0.2-0.1,0.3-0.1c0.1,0,0.1-0.1,0.2-0.1c0.1-0.1,0.2-0.1,0.3-0.2 C1473.8,797.2,1473.8,797.1,1473.9,797C1473.9,797.1,1473.9,797,1473.9,797z"/><path fill="#1A1A1A" d="M1477.3,677.5c-0.2-0.9-0.8-1.7-1.6-2c-0.8-0.4-1.8-0.2-2.6,0.3l-10.6,7.4c-1,0.7-1.4,1.9-1,3 c0.1,0.4,11,36.1-13.5,48c-1.1,0.5-1.7,1.7-1.4,2.9s1.2,2.1,2.5,2.1l13.3,0.8c0.1,0,0.1,0,0.2,0c0.7,0,1.3-0.2,1.8-0.7 c0.4-0.3,9.3-8.5,12.7-20.9C1481.5,702.1,1477.5,678.5,1477.3,677.5z"/><path fill="#1A1A1A" d="M1474.8,795C1474.8,795,1474.8,795,1474.8,795c-0.1-0.2-0.2-0.4-0.4-0.6c-0.2-0.5-0.5-1-0.9-1.3 c-1.3-0.9-7.8-5.5-12.7-5.2c-4.6,0.2-15.5,8.4-19,11.1l-16.3,8.7c-1.1,0.6-1.7,1.9-1.3,3.1l2.3,7.8c0.1,0.4,0.2,0.8,0.4,1.1 c0,0,0,0.1,0,0.1c0,0,0,0,0,0c0,0,0.1,0.1,0.1,0.1c0,0.1,0.1,0.1,0.1,0.2c1,1.6,3,2.4,5.9,2.4c1.5,0,3.3-0.2,5.3-0.7 c4.8-1.1,10.8-3.4,16.8-6.5C1457.5,814.3,1478.9,802.9,1474.8,795z M1452.6,810.8c-9.9,5.2-17.6,6.9-20.3,6.6 c0.1-0.3,0.2-0.7,0.3-1.1c2-2.6,7.6-7.4,16.6-12.1c8-4.2,14.5-6.1,18.2-6.5c0.8,0,1.7,0.1,2.4,0.1 C1468.5,800.1,1462.7,805.5,1452.6,810.8z"/></g></svg>