<?xml version="1.0" encoding="utf-8"?>
<!-- Generator: Adobe Illustrator 22.0.0, SVG Export Plug-In . SVG Version: 6.00 Build 0)  -->
<svg version="1.1" id="Layer_6" xmlns="http://www.w3.org/2000/svg" xmlns:xlink="http://www.w3.org/1999/xlink" x="0px" y="0px" viewBox="0 0 800 800" style="enable-background:new 0 0 800 800;" xml:space="preserve">

<g>
	<g>
		<path d="M282.7,493.7c0,0,36.2,29.8,36.1,29.8c-0.1,0,13.3,12.1,17.3,19c4,6.9,7.3,11.5,7.8,19.2
			c0.5,7.7,0.2,11.4-1.8,12.2s-24.2,5.8-24.4,2.9c-0.2-3,5.5-4.9,5.5-4.9s-3.1,0-2.4-1.6c0.7-1.6,2.4-2.1,2.4-2.1l0.7-6.8l-1.9-9.6
			l-18.8-10.5l-8.4-4.5l-5.1-2.8l-4.5-25.9L282.7,493.7z" style="fill:#FECE2F;"/>
	</g>
	<path d="M343.7,553.6c0-0.1,0-0.2-0.1-0.3c-0.2-0.4-5.4-10.5-9.8-16.5c-1.1-1.5-2.9-3.5-5.2-5.7c0-0.1,0.1-0.1,0.1-0.2
		c0.2-0.4,0.3-0.9,0.5-1.4c0.1-0.5,0.2-1,0.1-1.7c0-0.3-0.2-0.7-0.5-1.2c-0.3-0.4-0.7-0.7-1.2-0.9c-0.4-0.1-0.9-0.2-1.2-0.1
		c-0.4,0-0.7,0.1-0.9,0.1c-0.7,0.2-1.2,0.4-1.7,0.7c-0.4-0.4-0.8-0.7-1.2-1.1c0,0,0,0,0-0.1c0.2-0.4,0.4-0.9,0.5-1.4
		c0.1-0.5,0.3-1.1,0.1-1.8c0-0.4-0.2-0.9-0.5-1.3s-0.9-0.8-1.4-0.9c-0.5-0.1-0.9-0.1-1.3,0c-0.3,0-0.7,0.1-1,0.2
		c-0.6,0.2-1.2,0.5-1.7,0.7c-0.4-0.3-0.7-0.6-1.1-0.9c0.1-0.3,0.3-0.7,0.4-1.1c0.1-0.5,0.3-1.1,0.2-1.9c0-0.4-0.2-0.9-0.6-1.4
		c-0.1-0.1-0.2-0.2-0.3-0.3s-0.3-0.2-0.4-0.3c-0.3-0.1-0.6-0.2-0.8-0.3c-0.5-0.1-0.9,0-1.3,0l-0.3,0l-0.2,0.1
		c-0.1,0-0.3,0.1-0.4,0.1c-0.5,0.2-0.9,0.4-1.3,0.6c-12.6-10.8-25.7-21-26.6-21.8c-0.5-0.4-1.2-0.3-1.6,0.2s-0.3,1.2,0.2,1.6
		c0.2,0.2,13.3,10.5,26,21.3c-0.7,0.5-1.3,1-1.9,1.5c-1.5,1.3-2.9,2.7-4.2,4.1c-1.3,1.5-2.5,3-3.6,4.6c-1.1,1.6-2.2,3.2-3.2,4.9
		c-0.6,1.1-1.2,2.2-1.7,3.4l-4.7-2.7c-0.5-0.3-1.2-0.1-1.5,0.4c-0.3,0.5-0.1,1.2,0.4,1.5l4.9,2.8c-0.3,1-0.6,1.9-0.7,3.1
		c0,0.6-0.1,1.3,0.2,2.2c0.1,0.3,0.2,0.5,0.4,0.7c0.1,0.1,0.2,0.3,0.3,0.4s0.3,0.2,0.4,0.3c0.3,0.2,0.6,0.3,0.9,0.3
		c0.3,0,0.6,0,0.7,0c0.9-0.1,1.4-0.4,1.9-0.7c0.5-0.3,0.9-0.6,1.3-0.9c0.6-0.5,1.1-1,1.6-1.5l0,0c0,0.1,0,0.1-0.1,0.2
		c-0.3,1-0.6,1.9-0.7,3.1c0,0.3,0,0.6,0,1c0,0.3,0.1,0.8,0.3,1.2s0.6,1,1.2,1.3c0.3,0.1,0.6,0.2,0.8,0.3c0.3,0,0.5,0,0.7,0
		c0.9-0.1,1.4-0.3,1.9-0.6c0.5-0.3,0.9-0.6,1.3-0.9c0.6-0.5,1.2-1,1.7-1.5l0.2,0.1c0,0.1-0.1,0.2-0.1,0.3c-0.3,0.9-0.5,1.8-0.5,3
		c0,0.3,0,0.6,0.1,0.9c0.1,0.3,0.1,0.7,0.4,1.2c0.2,0.4,0.6,0.9,1.1,1.1c0.5,0.3,1,0.3,1.4,0.3c0.8,0,1.3-0.3,1.8-0.5
		c0.5-0.2,0.9-0.5,1.3-0.8c0.6-0.4,1.2-1,1.7-1.5l5.5,3.1l1.7,8.9c-0.1,0.8-0.1,1.8-0.2,2.9l0,0c0,0-0.1,0-0.3,0.1
		c-2.5,0.6-3.3,1-3.6,1.6c-0.1,0.3-0.2,0.7,0,1c0.1,0.3,0.3,0.7,1.8,1.2c-0.8,0.4-1.5,0.9-1.7,1.5c-0.2,0.6-0.2,1.1,0.1,1.6
		c0.3,0.4,0.7,0.9,2,1.1c-3.7,1.5-4.6,2.5-4.5,3.5c0,0.4,0.2,1.2,1.3,1.6c1,0.4,3,0.6,5.5,0.6c7.1,0,18.1-1.8,21.2-4.6
		C347.2,571,344.6,557.7,343.7,553.6z M326.7,528.5c0,0,0,0.1,0.1,0.1C326.7,528.6,326.7,528.6,326.7,528.5
		C326.6,528.4,326.7,528.4,326.7,528.5z M326.5,528.9c0.1-0.1,0.2-0.1,0.3-0.1c0,0.1,0,0.3,0,0.5c0,0,0,0,0,0.1
		c-0.1-0.1-0.3-0.3-0.4-0.4C326.4,528.9,326.5,528.9,326.5,528.9z M309.3,543.5l-3.8-2.2c0.5-0.9,1-1.9,1.6-2.8
		c0.9-1.5,1.9-2.9,2.9-4.3c2.1-2.8,4.3-5.6,6.7-8c0.6-0.6,1.1-1.1,1.7-1.6c1.2,1,2.3,2.1,3.4,3.1c-0.4,0.3-0.9,0.6-1.3,1
		c-1.4,1.1-2.7,2.4-3.8,3.7c-1.2,1.3-2.3,2.7-3.3,4.1c-1,1.4-2,2.9-2.8,4.5C310.1,541.8,309.6,542.6,309.3,543.5z M320.5,522.6
		c0,0,0,0.1,0.1,0.1C320.6,522.7,320.5,522.6,320.5,522.6C320.5,522.5,320.5,522.5,320.5,522.6z M320.4,523.1
		c0.1-0.1,0.2-0.1,0.3-0.1c0,0.1,0,0.3,0,0.4c0,0.1,0,0.1,0,0.2c-0.1-0.1-0.3-0.3-0.4-0.4C320.3,523.2,320.3,523.1,320.4,523.1z
		 M314.1,517.3c0,0,0,0.1,0.1,0.2c0,0,0,0,0-0.1C314,517.3,314.1,517.3,314.1,517.3z M314.2,517.8L314.2,517.8
		C314.2,517.8,314.2,517.9,314.2,517.8C314.2,517.9,314.2,517.9,314.2,517.8L314.2,517.8z M300.2,534c1-1.5,2-3,3.1-4.5
		c2.2-2.9,4.5-5.8,6.9-8.4c0.6-0.6,1.3-1.3,1.9-1.8c0.1-0.1,0.1-0.1,0.2-0.2c1.1,0.9,2.2,1.9,3.2,2.8c-0.5,0.4-1,0.7-1.5,1.2
		c-1.5,1.2-2.8,2.6-4.1,4c-1.2,1.4-2.4,2.9-3.5,4.4s-2.1,3.1-3,4.7c-0.5,1-1,1.9-1.5,3l-3.6-2.1C298.9,536.2,299.5,535.1,300.2,534z
		 M296,541.1C295.9,541.1,296,541.1,296,541.1c0.1,0,0.1,0,0.2,0C296.1,541.1,296,541.1,296,541.1z M297.8,540.5
		c-0.4,0.2-0.7,0.4-1.1,0.5l0,0v0c0.1-0.5,0.3-1.1,0.6-1.7l1.3,0.7C298.4,540.2,298.1,540.3,297.8,540.5z M303.3,545.2
		C303.2,545.2,303.3,545.2,303.3,545.2c0.1,0,0.1,0,0.2,0C303.3,545.2,303.3,545.2,303.3,545.2z M305,544.7c-0.4,0.2-0.7,0.3-1,0.4
		c0,0,0,0-0.1,0c0,0,0-0.1,0-0.1c0.1-0.5,0.3-1.1,0.6-1.8l1.5,0.8C305.6,544.4,305.3,544.5,305,544.7z M310.8,549.3c0,0,0,0,0.1,0h0
		C310.9,549.3,310.8,549.3,310.8,549.3z M312.5,548.8c-0.3,0.1-0.7,0.3-1,0.4c-0.1,0-0.1,0-0.2,0c0,0,0-0.1,0-0.1
		c0.1-0.4,0.3-1,0.5-1.6l1.6,0.9C313,548.5,312.7,548.7,312.5,548.8z M322.7,570.7c-0.7,0-1.2-0.1-1.6-0.2c0.4-0.2,1-0.4,1.4-0.5
		C322.6,570.3,322.7,570.5,322.7,570.7z M322.4,566.9L322.4,566.9C322.4,566.9,322.4,566.9,322.4,566.9
		C322.4,566.9,322.4,566.9,322.4,566.9z M342.6,572.2c-1.6,1.5-6.7,2.9-12.9,3.6c-5.2,0.6-9.1,0.5-10.8,0.1c0.7-0.4,2.3-1.2,5.7-2.4
		c0.6,0.3,1.3,0.5,2.1,0.5c0.3,0,0.7,0,1-0.1c0.9-0.2,2.1-0.7,2.9-2.2c3.8-1.1,7.1-1.9,7.1-1.9c0.3-0.1,0.6-0.3,0.8-0.7
		c0.1-0.3,0.1-0.7-0.1-1l-5.7-8.9l0,0c0,0,0-0.1-0.1-0.1s0,0-0.1-0.1c0,0,0,0-0.1-0.1c0,0-0.1,0-0.1-0.1c0,0-0.1,0-0.1,0
		s-0.1,0-0.1,0s-0.1,0-0.1,0s-0.1,0-0.1,0c0,0,0,0-0.1,0h0c0,0-0.1,0-0.1,0c0,0-0.1,0-0.1,0s-0.1,0-0.1,0c0,0-0.1,0-0.1,0
		c0,0-0.1,0-0.1,0c0,0-0.1,0-0.1,0s0,0,0,0c0,0,0,0-0.1,0c0,0,0,0-0.1,0.1c0,0-0.1,0-0.1,0.1c0,0,0,0-0.1,0.1c0,0,0,0.1-0.1,0.1
		c0,0,0,0.1,0,0.1c0,0,0,0.1,0,0.1c0,0,0,0.1,0,0.1c0,0,0,0.1,0,0.1c0,0,0,0,0,0.1c-0.1,1.8-0.4,4.1-0.7,6.2l0,0
		c-0.3,1.8-0.6,3.5-0.9,4.2c-0.1,0.1-0.1,0.2-0.1,0.3c-0.4,0.7-0.9,1.2-1.6,1.3c-0.7,0.1-1.4-0.1-1.8-0.4c-0.7-0.6-0.9-5.2-0.4-9.8
		c0-0.1,0-0.2,0-0.3l-1.8-9.6v0c0,0,0-0.1,0-0.1c0,0,0-0.1,0-0.1s0-0.1,0-0.1c0,0,0-0.1-0.1-0.1s0,0-0.1-0.1c0,0,0-0.1-0.1-0.1
		c0,0,0,0-0.1-0.1c0,0-0.1,0-0.1-0.1c0,0,0,0,0,0l-9.9-5.6c0.4-0.8,0.9-1.6,1.4-2.5c0.9-1.4,1.8-2.7,2.7-4c1.9-2.6,4-5.2,6.3-7.4
		c0.5-0.4,1-0.9,1.5-1.3c3.4,3.2,6,6,7.5,8c4,5.5,8.9,14.9,9.5,16.1C343.6,564,343.7,571.2,342.6,572.2z M333.2,564.4l-1,0.3
		c0.1-0.5,0.1-1,0.2-1.5L333.2,564.4z M331.9,567.1l2.7-0.7l1.1,1.7c-1,0.3-2.5,0.6-4.1,1.1C331.6,568.6,331.7,567.8,331.9,567.1z" style="fill:#1A1A1A;"/>
</g>
<g>
	<path d="M467.4,122.3l-2.5-6.6c-2.4-6.3-9.6-9.6-15.9-7.2l0,0c-6.3,2.4-9.6,9.6-7.2,15.9l2.5,6.6L467.4,122.3z" style="fill:#FFFFFF;"/>
</g>
<g>
	<path d="M459.8,120.3c-2.4-6.3-9.6-9.6-15.9-7.2c-0.4,0.1-0.8,0.3-1.2,0.5c-1.9,3.1-2.4,7.1-1,10.7l2.5,6.6l17.1-6.5
		L459.8,120.3z" style="fill:#FECE2F;"/>
</g>
<g>
	<path d="M160.5,294c102.1-108.3,101.3-162,204.9-178.4c108.9-17.2,329,138.7,356.2,297.5
		C750.5,581.4,558.6,656.9,396.5,655C79.7,651.4,48.5,412.9,160.5,294z" style="fill:#FECE2F;"/>
</g>
<g>
	<path d="M520.5,676.5v-72.2h1.8c1.8,0,3.2-1.4,3.2-3.2c0-1.8-1.4-3.2-3.2-3.2h-1.8v-72c0-6.8-5-12.4-11.5-13.3
		c-0.7-2.1-2.7-3.7-5.1-3.7h-48.6c-2.3,0-4.3,1.5-5.1,3.5c-7.1,0.3-12.8,6.2-12.8,13.4v72h-1.8c-1.8,0-3.2,1.4-3.2,3.2
		s1.4,3.2,3.2,3.2h1.8v72.2c-10.2,0.9-18.3,9.6-18.3,20.1c0,11.1,9,20.2,20.2,20.2s20.2-9,20.2-20.2c0-10.5-8.1-19.1-18.3-20.1
		v-72.2h75.6v72.2c-10.2,0.9-18.3,9.6-18.3,20.1c0,11.1,9,20.2,20.2,20.2c11.1,0,20.2-9,20.2-20.2
		C538.8,686.1,530.8,677.5,520.5,676.5z M457.2,696.6c0,9.9-8,17.9-17.9,17.9s-17.9-8-17.9-17.9c0-9.3,7.1-16.9,16.1-17.8v10.1
		c-3.5,0.9-6,4-6,7.7c0,4.4,3.5,7.9,7.9,7.9c4.4,0,7.9-3.5,7.9-7.9c0-3.7-2.6-6.9-6-7.7v-10.1C450.2,679.7,457.2,687.4,457.2,696.6z
		 M441.2,598v-72c0-5.2,4-9.4,9.1-9.7c0.8,2.1,2.8,3.5,5,3.5h48.6c2.2,0,4.2-1.4,5-3.4c4.5,0.9,7.9,4.8,7.9,9.6v72H441.2z
		 M518.6,714.5c-9.9,0-17.9-8-17.9-17.9c0-9.3,7.1-16.9,16.1-17.8v10.1c-3.5,0.9-6,4-6,7.7c0,4.4,3.5,7.9,7.9,7.9s7.9-3.5,7.9-7.9
		c0-3.7-2.6-6.9-6-7.7v-10.1c9,0.9,16.1,8.6,16.1,17.8C536.6,706.5,528.5,714.5,518.6,714.5z" style="fill:#1A1A1A;"/>
	<path d="M520.5,678.8v10.1c3.5,0.9,6,4,6,7.7c0,4.4-3.5,7.9-7.9,7.9s-7.9-3.5-7.9-7.9c0-3.7,2.6-6.9,6-7.7v-10.1
		c-9,0.9-16.1,8.6-16.1,17.8c0,9.9,8,17.9,17.9,17.9c9.9,0,17.9-8,17.9-17.9C536.6,687.4,529.5,679.7,520.5,678.8z" style="fill:#FECE2F;"/>
	<path d="M441.2,678.8v10.1c3.5,0.9,6,4,6,7.7c0,4.4-3.5,7.9-7.9,7.9c-4.4,0-7.9-3.5-7.9-7.9c0-3.7,2.6-6.9,6-7.7v-10.1
		c-9,0.9-16.1,8.6-16.1,17.8c0,9.9,8,17.9,17.9,17.9s17.9-8,17.9-17.9C457.2,687.4,450.2,679.7,441.2,678.8z" style="fill:#FECE2F;"/>
</g>
<g>
	<path d="M688.5,478.8l-2.1,37l-5.2,42l-2.4,25.7l-1.6,34.4l-0.3,34.8l1.5,32.1h-32.5l-9.4-38.2l-12.3-35.4l-13.8-34.6
		l-10.7-30.8c0,0-9.6-28.3-8.3-42.3c0,0,20.2,1.6,50.3-4.6S688.5,478.8,688.5,478.8z" style="fill:#EF3A24;"/>
</g>
<g>
	<path d="M688.5,478.8l-2.1,37l-5.2,42l-2.4,25.7l-1.6,34.4l-0.3,34.8l1.5,32.1h-32.5l-9.4-38.2l-12.3-35.4l-13.8-34.6
		l-10.7-30.8c0,0-9.6-28.3-8.3-42.3c0,0,20.2,1.6,50.3-4.6S688.5,478.8,688.5,478.8z" style="fill:#FECE2F;"/>
</g>
<g>
	<path d="M591.4,503.4l-15.1-0.9c0,0-0.5,13.2,2.5,29.3c3,16.1,8.7,38.4,8.7,38.4l9.9,26.6l13.1,41.7L621,674l2.9,10.6
		h22l-9.4-38.2l-12.3-35.4l-15.4-39.2l-10-29.2l-6-23.2L591.4,503.4z" style="fill:#FECE2F;"/>
</g>
<g>
	<path d="M584.4,533.5c-1.8,0-3.5,0.4-5.1,1.1c1.5,7.7,3.5,16.4,5.1,23.3c6.7,0,12.1-5.5,12.1-12.2
		C596.6,538.9,591.1,533.5,584.4,533.5z" style="fill:#FFFFFF;"/>
</g>
<g>
	<path d="M602.1,587.5c-2.7,0-5.2,0.9-7.2,2.4l2.6,7l4.7,15c6.7,0,12.1-5.5,12.1-12.2
		C614.2,592.9,608.8,587.5,602.1,587.5z" style="fill:#FFFFFF;"/>
</g>
<g>
	<path d="M633.1,655.7c2,0,3.8-0.5,5.5-1.3l-1.9-7.9l-5.2-15c-5.9,0.8-10.5,5.9-10.5,12.1
		C620.9,650.2,626.3,655.7,633.1,655.7z" style="fill:#FFFFFF;"/>
</g>
<g>
	<path d="M634,684.6c0.7-1.6,1.1-3.3,1.1-5.1c0-6.7-5.5-12.2-12.2-12.2c-1.3,0-2.6,0.2-3.7,0.6l1.8,6.1l2.9,10.6
		L634,684.6L634,684.6z" style="fill:#FFFFFF;"/>
</g>
<g>
	<g>
		<g>
			<circle cx="658.9" cy="571.9" r="13.3" style="fill:#FFFFFF;"/>
		</g>
		<g>
			<circle cx="641.3" cy="530.1" r="13.3" style="fill:#FFFFFF;"/>
		</g>
		<g>
			<path d="M686.4,515.7l0.1-1.4c-0.1,0-0.1,0-0.2,0c-7.4,0-13.3,5.9-13.3,13.3c0,6.3,4.4,11.6,10.3,13L686.4,515.7z" style="fill:#FFFFFF;"/>
		</g>
		<g>
			<path d="M591.4,503.4c-0.4,4.9,0.4,11.5,1.8,18c1.9,1,4.1,1.6,6.3,1.6c7.4,0,13.3-5.9,13.3-13.3
				c0-2.4-0.7-4.7-1.8-6.6C598.7,504,591.4,503.4,591.4,503.4z" style="fill:#FFFFFF;"/>
		</g>
		<g>
			<path d="M617.8,558.6c-4.8,0-9,2.6-11.3,6.4l4,11.5l3.2,8c1.3,0.4,2.7,0.7,4.2,0.7c7.4,0,13.3-5.9,13.3-13.3
				C631.1,564.5,625.2,558.6,617.8,558.6z" style="fill:#FFFFFF;"/>
		</g>
		<g>
			<path d="M647.8,611.8c0-7.4-5.9-13.3-13.3-13.3c-5.4,0-10.1,3.2-12.1,7.9l1.9,4.7l4.4,12.6c1.8,0.9,3.8,1.4,5.9,1.4
				C641.9,625.1,647.8,619.2,647.8,611.8z" style="fill:#FFFFFF;"/>
		</g>
		<g>
			<path d="M662.1,677.5c0-7.4-5.9-13.3-13.3-13.3c-2.7,0-5.2,0.8-7.3,2.2l4.5,18.2h14
				C661.3,682.6,662.1,680.2,662.1,677.5z" style="fill:#FFFFFF;"/>
		</g>
		<g>
			<path d="M670.5,621c-8.7,0-15.8,7.1-15.8,15.8s7.1,15.8,15.8,15.8c2.3,0,4.5-0.5,6.5-1.4l0.2-28.8
				C675.1,621.5,672.9,621,670.5,621z" style="fill:#FFFFFF;"/>
		</g>
		<g>
			<path d="M680.8,507.4c2.2,0,4.3-0.4,6.2-1.2l1.5-27.4c0,0-8.2,6.8-23.5,13C665.1,500.4,672.1,507.4,680.8,507.4z" style="fill:#FFFFFF;"/>
		</g>
	</g>
</g>
<g>
	<path d="M596.8,349.8c0,0,39.2,13.4,66,43.7s25.7,85.3,25.7,85.3S671,495,634,500.2c-37,5.2-57.7,2.2-57.7,2.2l-2-13
		c0,0,16.4-3.6,35-24s18.4-34.3,18.4-34.3s-35.9-28.9-64.8-27.9C563,403.3,573.4,367.5,596.8,349.8z" style="fill:#FFFFFF;"/>
</g>
<g>
	<path d="M591.4,355.3c0,0,48.7,13.1,73.5,52.1c18.9,29.6,15.9,76.5,15.9,76.5l7.6-5.1c0,0,2.4-43.8-19.8-77.3
		s-71.9-51.7-71.9-51.7L591.4,355.3z" style="fill:#FECE2F;"/>
</g>
<g>
	<path d="M563,403.3c0,0,16.5-0.2,34.7,9.1c18.2,9.3,30.1,18.8,30.1,18.8s-8,23.3-21.8,38.8
		c-13.8,15.5-43.8,23.9-43.8,23.9s-51.8,14.1-75,16.6c0,0-0.6,11.5-6.7,10.3c0,0-3.1,1.3-4.9,0.6c0,0-4.7,0.9-5.8,0
		c0,0-3.1,3.7-7-1.8l3.8,0l0.6-10.8h-8.8c0,0-1-1.5,2.9-5c3.8-3.5,13.8-7.2,13.8-7.2l26.7-12.7l27.7-13.8l17-14.9l3.2-6
		c0,0,5.1-9.3,7.1-19.1C558.7,420.4,563,403.3,563,403.3z" style="fill:#FECE2F;"/>
</g>
<g>
	<path d="M568.1,403.7c0,0-4.5,34.4-14.1,50.9c-4.3,7.3-13.1,15.2-25.9,22.7c-12.8,7.5-51.1,28.6-57.6,21.4l31.3-14.5
		l31-16.9c0,0,16.5-11.9,19.7-22.5c3.2-10.5,8.5-34.3,8.5-34.3l2-7.1L568.1,403.7z" style="fill:#FFFFFF;"/>
</g>
<g>
	<g>
		<path d="M655.2,718.5h-66.7c-0.6,0-1.1-0.5-1.1-1.1s0.5-1.1,1.1-1.1h66.7c0.6,0,1.1,0.5,1.1,1.1
			S655.8,718.5,655.2,718.5z" style="fill:#1A1A1A;"/>
	</g>
</g>
<path d="M670.7,697.8c-1.2-4.2-1.2-13.1-1.2-13.1h-24c0,0,0.1,0.3,0.3,0.7c-7.1-0.4-14.3-0.5-21.4-0.3
	c0.1,2.2,0.3,4.4,0.4,6.5c0.1,1.2,0.1,2.4,0,3.6c-0.2,1.7-0.9,3.4-2.1,4.7c-1,1-2.2,1.7-3.6,2c-0.8,0.2-1.1,0.2-0.7,1
	c0.4,0.8,0.9,1.6,1.4,2.4c0.3,0.5,0.6,1,1.1,1.3c0.7,0.4,1.6,0.4,2.4,0.3c4.9-0.4,9.7-1.3,14.6-2c0.4-0.1,0.9-0.1,1.3-0.2l-1.9,12.7
	h35.5c0,0,1.9-1.9,2.1-4.7C675.1,710,671.9,702,670.7,697.8z" style="fill:#FECE2F;"/>
<g>
	<path d="M112.9,559.3c0,0-10.6,26.3,4,54.4c14.6,28.1,44.5,36.3,59.1,38.5s50.7,0.3,78.5-30.8s28.2-74.5,28.2-74.5
		s-0.9-47.3-3.6-63.2c-2.7-15.9-15.4-54.2-30.7-71c-15.3-16.8-29.6-28.1-49.8-23L134,521.3L112.9,559.3z" style="fill:#FECE2F;"/>
</g>
<g>
	<path d="M202.9,388c0,0,43.8-2.3,62,74.3l4.4-14.2c0,0-11.5-35.9-37.7-51.7C214.3,386,202.9,388,202.9,388z" style="fill:#FFFFFF;"/>
</g>
<g>
	<path d="M254.5,621.3c27.8-31.1,28.2-74.5,28.2-74.5s-0.9-47.3-3.6-63.2c-0.7-4.1-2.1-9.6-3.9-15.8l-8.8-0.1
		c0,0,15.3,48.4-12.4,122.9c-18.8,50.5-78,61.5-78,61.5C190.5,654.4,226.7,652.5,254.5,621.3z" style="fill:#FFFFFF;"/>
</g>
<g>
	<path d="M199.1,390.1c-8.5,0-12.7,1.8-20.6,10.2c-8,8.5-18.4,41.2-18.4,41.2s-19.3,39.1-32.7,54.5
		c-14.6,16.8-45.1,47.1-45.1,47.1l27.3,13.2c0,0,21.8,16.5,43.5,29.6c21.8,13.1,37.7,14.3,37.7,14.3s19-14.6,31.9-32.5
		c12.8-17.9,18-32.6,20.9-40.1c0,0,4.8-53.1,2.1-76.4c-2.7-23.3-14.1-52.7-33-58.5C212.6,392.7,202.6,390.1,199.1,390.1z" style="fill:#FFFFFF;"/>
</g>
<g>
	<path d="M148.1,496.1c0.2,2.2,0.5,4.4-0.4,6.4c-0.9,1.9-3.7,3.2-5.3,1.8c-0.4-0.4-0.9-0.8-1.2-1.3
		c-4-6.1-11.4-0.9-13.9,7.3c-1.3,4.6-1,9.4-3.8,13.2c-2.4,3.1-6.6,4.2-10.5,4.5c-12.6,1-17.1,3.8-20.6,5.5
		c3.9-2.9,11.3-10.7,14.5-14.3c11.7-13.3,21.8-23.2,31.8-37.8c2.5-3.6,9.4-16.4,12.3-19.4C147.3,471.2,147.2,486.1,148.1,496.1z" style="fill:#FECE2F;"/>
</g>
<g>
	<ellipse cx="191.2" cy="716.1" rx="84.7" ry="6.3" style="fill:#1A1A1A;"/>
</g>
<path d="M228.3,403.1c-8.8-9.9-18.2-12.9-23.1-13.8c-1.3-0.3-8.4-1.3-16.9,2.6c-8.7,4-15.2,11.3-19.5,21.9
	c-2.9,7.2-4.9,13-6.8,18.7c-4.3,12.9-8.1,24-20.9,43.2c-21.5,32.7-57.6,64.4-59.2,65.9c-0.4,0.3-2.2,1.6-2.8,4.1
	c-0.6,2.7,0.2,5.8,2.5,9.2c3.6,5.3,9.3,10.8,17,16.4c5.7,4.1,10.3,6.6,10.5,6.7c0.2,0.1,0.3,0.1,0.5,0.1c0.4,0,0.8-0.2,1-0.6
	c0.3-0.6,0.1-1.2-0.4-1.5c0,0-0.4-0.2-1-0.6c0.1-2.2,1.6-8.2,1.8-9c0.4-1.6,1.6-4.1,1.8-6c8.5,6.7,21.2,15.6,34.7,23.6
	c13.3,7.8,31.6,17.2,43.3,17.3l0,0c0.2,0,0.5-0.1,0.7-0.2c0.1-0.1,10.3-7.7,21.9-20.5c10.7-11.8,24.8-30.5,31.2-52.7
	c0.2-0.6-0.2-1.2-0.8-1.4c-0.6-0.2-1.2,0.2-1.4,0.8c-6.3,21.8-20.2,40.2-30.7,51.8c-10.3,11.4-19.6,18.6-21.3,20
	c-19.9-0.6-64-29.6-81.3-44.5c-11.5-10-19.7-12.5-23.8-13.1c8.1-7.3,38.6-35.6,57.7-64.6c13.1-19.4,16.8-30.6,21.2-43.7
	c1.9-5.6,3.8-11.5,6.7-18.6c4.1-10,10.3-17,18.4-20.7c6.1-2.8,12.2-3.1,15.6-2.4c4.6,0.9,13.5,3.7,21.8,13.1
	c10.6,12,16.9,30.7,18.7,55.6c0,0.6,0.6,1.1,1.2,1c0.6,0,1.1-0.6,1-1.2C245.8,434.6,239.3,415.5,228.3,403.1z" style="fill:#1A1A1A;"/>
<path d="M205.7,531.8L205.7,531.8c-3.1-2.2-6.3-4.4-9.6-6.4c-1.6-1-3.2-2-4.9-3l-4.9-2.9c-3.3-1.9-6.6-3.8-9.9-5.6
	c-3.3-1.8-6.5-3.5-9.7-5.2c-8.7,12-17.5,24.1-26.1,36.3l0,0c-0.3,0.5-0.2,1.2,0.3,1.5l39.1,24.6c0.5,0.3,1.2,0.2,1.5-0.3l24.3-37.4
	C206.3,532.8,206.2,532.2,205.7,531.8z M180.4,568.7l-37.1-23.4c5.3-7.5,10.6-15,15.8-22.6l32.8,20.7c0.2,0.1,0.4,0.2,0.6,0.2
	c0.4,0,0.7-0.2,0.9-0.5c0.3-0.5,0.2-1.2-0.3-1.5l-32.7-20.7c2.3-3.3,4.6-6.6,6.9-10c3.2,2.2,6.2,4.3,9.3,6.3c3.1,2,6.1,4,9.1,5.9
	l4.6,2.8c1.5,0.9,3.1,1.8,4.6,2.7c2.8,1.6,5.6,3.1,8.5,4.6L180.4,568.7z" style="fill:#1A1A1A;"/>
<g>
	<path d="M214.3,388.7c0,0,30.2,0,56.3,55.1l-3.2,2c0,0-3.1-9.2-13.6-25.5C243.3,404,227,389.8,214.3,388.7z" style="fill:#1A1A1A;"/>
</g>
<path d="M283.1,485.2c-0.1-0.4-0.5-0.8-0.9-0.9c-0.4-0.1-0.9,0.2-1.1,0.6l-2.9,5.5c-0.1,0.2-0.1,0.5-0.1,0.7
	c0,0.2,3.9,22.8,4,44.6c0.1,21.7-7.5,46.5-7.6,46.8c-0.1,0.4,0,0.9,0.4,1.2c4.6,3.4,14.7,5.5,15.2,5.6c0.1,0,0.1,0,0.2,0
	c0.2,0,0.5-0.1,0.7-0.2c0.3-0.2,0.4-0.5,0.4-0.8C296.1,540.2,283.2,485.7,283.1,485.2z" style="fill:#1A1A1A;"/>
<g>
	<g>
		<path d="M231.8,286.6c-5.2-1.1-22.5-2.1-31.9,20.5s-7.3,45.5,8.1,56c15.4,10.4,31.8,4.1,39-13.3l7.8-37.9
			C254.8,311.9,255.4,291.7,231.8,286.6z" style="fill:#FECE2F;"/>
	</g>
	<g>
		<path d="M231.8,286.6c-5.2-1.1-22.5-2.1-31.9,20.5s-7.3,45.5,8.1,56c2.1,1.4,4.2,2.5,6.3,3.3c0,0-8.5-6.5-11.6-18.9
			c-3.1-12.4,0.3-40.7,14.6-51.3c18.7-13.8,34.9,4.9,34.9,4.9v0C249.4,295.4,243.6,289.1,231.8,286.6z" style="fill:#FFFFFF;"/>
	</g>
	<g>
		<path d="M242.3,313.5c-1.6,1.2-2.8,2.8-3.9,4.5c-3,4.9-4.8,10.5-5.1,16.2c-0.2,3.6,0.2,7.4,2.1,10.5
			c1.9,3.1,5.6,5.2,9.1,4.4c1.8-0.4,3.4-1.5,4.8-2.7c3.4-2.8,6.3-6.5,7.7-10.8c0.5-1.7,0.8-3.4,1.1-5.2c0.4-2.2,0.7-4.4,0.6-6.7
			c-0.3-3.7-2.1-8.2-5.1-10.6C250.5,310.8,245.3,311.3,242.3,313.5z" style="fill:#FFFFFF;"/>
	</g>
	<g>
		
			<ellipse transform="matrix(0.2676 -0.9635 0.9635 0.2676 -137.5182 479.9525)" cx="247" cy="330.4" rx="11.8" ry="7.5" style="fill:#1A1A1A;"/>
	</g>
	<g>
		<circle cx="242.8" cy="326.8" r="4.4" style="fill:#FFFFFF;"/>
	</g>
	<path d="M255.8,313.2c0.1-0.2,0.1-0.4,0.1-0.6c-0.6-9-4.3-20.7-18.4-25.6c0.8-16.8-6.7-27.5-8.8-30.2
		c0.5-0.7,0.8-1.5,0.9-2.4c0.4-2.9-1.7-5.6-4.6-6s-5.6,1.7-6,4.6c-0.2,1.4,0.2,2.8,1.1,4c0.9,1.1,2.1,1.9,3.5,2c0.2,0,0.4,0,0.7,0
		c1,0,1.9-0.3,2.7-0.8c2,2.7,8.7,12.7,8.2,28c-3.5-0.9-8.7-1.4-14.1-0.3c-7.4,1.5-13.4,5.5-17.6,11.6c-3.5,5-6.3,12.1-8.1,19.4
		c-0.2,0.3-0.3,0.6-0.2,0.9c-0.5,2.3-0.9,4.6-1.2,6.9c-1,8.7-0.9,21.1,6,31.2c4.8,7.1,11.2,11.4,18.4,12.7c1.5,0.3,2.9,0.4,4.3,0.4
		c6.5,0,12.2-2.4,15.5-4.8c6.2-4.6,9.9-12.7,11.2-15.9v0c4.1-2.8,7.7-8,9.4-14.4C261.2,325.7,259.8,317.5,255.8,313.2z M253.6,311.4
		c-0.7-0.4-1.5-0.7-2.2-1c-3.6-1-7.5,0.2-11.1,3.4c-3.4,3.1-6.1,7.7-7.5,12.9c-0.3,1.2-0.6,2.4-0.8,3.6c-4.6,0-8.7-0.4-12.3-1.2
		c4.9-30.1,17.6-38.6,19-39.4C247.5,293.6,252.5,300.8,253.6,311.4z M205.5,298.9c8.8-12.9,23.9-11.9,29.8-10.3c0,0.3,0,0.5-0.1,0.8
		c-4.5,3.8-13.7,14.3-17.8,39.2c-11.9-3.2-18.3-9.7-19.6-11.3C199.5,310.1,202.4,303.5,205.5,298.9z M201.9,354.9
		c-6.5-9.6-7.1-22.8-4.8-34.6c2.8,2.8,9.2,8.1,19.9,10.8c0,0.1,0,0.1,0,0.2c-3.1,21.8,2.3,32,5.1,35.6c-1.1,0-2.2-0.1-3.2-0.3
		C212.1,365.5,206.4,361.5,201.9,354.9z M236.9,362.6c-2.6,1.9-6.8,3.8-11.6,4.3c0,0-0.1-0.1-0.1-0.1c-0.1-0.1-9.7-8.2-5.8-35.1l0,0
		c3.5,0.7,7.5,1.2,11.9,1.2c0.1,0,0.3,0,0.4,0c-0.6,8.6,2.7,15.9,8.5,17.6c0.8,0.2,1.6,0.3,2.4,0.3c1.2,0,2.4-0.2,3.6-0.7
		C244.7,353.6,241.5,359.2,236.9,362.6z M256.6,333.4c-2.7,9.7-9.7,16.3-15.6,14.7c-5-1.4-7.7-8.2-6.7-16.2v0
		c0.2-1.4,0.4-2.9,0.9-4.3c1.3-4.8,3.8-9,6.8-11.8c2.3-2.1,4.7-3.2,7-3.2c0.6,0,1.2,0.1,1.8,0.3
		C256.6,314.4,259.2,323.7,256.6,333.4z" style="fill:#1A1A1A;"/>
</g>
<g>
	<g>
		<polygon points="403.2,478.5 403.2,282.6 347.9,315.3 347.9,460 		" style="fill:#FFFFFF;"/>
		<path d="M410.2,271.6c0-0.4-0.2-0.8-0.6-1s-0.8-0.2-1.2,0l-65.3,38.9c-0.3,0.2-0.6,0.6-0.6,1v156.3
			c0,0.5,0.3,0.9,0.8,1.1l65.3,22.8c0.1,0,0.3,0.1,0.4,0.1c0.2,0,0.5-0.1,0.7-0.2c0.3-0.2,0.5-0.6,0.5-0.9V372.8
			c0-0.6-0.5-1.2-1.2-1.2c-0.6,0-1.2,0.5-1.2,1.2v115.2l-63-22V311.1l63-37.5v51.7c0,0.6,0.5,1.2,1.2,1.2s1.2-0.5,1.2-1.2V271.6
			L410.2,271.6z" style="fill:#FFFFFF;"/>
		<path d="M409.1,345.2c-0.6,0-1.1,0.5-1.1,1.1v13.1c0,0.6,0.5,1.1,1.1,1.1c0.6,0,1.1-0.5,1.1-1.1v-13.1
			C410.2,345.7,409.7,345.2,409.1,345.2z" style="fill:#FFFFFF;"/>
	</g>
	<path d="M390.3,304.9c-0.7-0.3-1.6,0.1-1.9,0.8l-14.6,36.5l-4.3-7.3c-0.9-1.6-3-2.1-4.6-1.2s-2.1,3-1.2,4.6l7.7,13.2
		l0.1,0.1c0.4,0.7,1,1.2,1.9,1.5c1.8,0.5,3.6-0.4,4.1-2.2l13.6-44.3C391.3,305.9,391,305.1,390.3,304.9z" style="fill:#1A1A1A;"/>
	<path d="M390.3,353.4c-0.7-0.3-1.6,0.1-1.9,0.8l-14.6,36.5l-4.3-7.3c-0.9-1.6-3-2.1-4.6-1.2s-2.1,3-1.2,4.6l7.7,13.2
		l0.1,0.1c0.4,0.7,1,1.2,1.9,1.5c1.8,0.5,3.6-0.4,4.1-2.2l13.6-44.3C391.3,354.5,391,353.7,390.3,353.4z" style="fill:#1A1A1A;"/>
	<path d="M390.3,405c-0.7-0.3-1.6,0.1-1.9,0.8l-14.6,36.5l-4.3-7.3c-0.9-1.6-3-2.1-4.6-1.2s-2.1,3-1.2,4.6l7.7,13.2
		l0.1,0.1c0.4,0.7,1,1.2,1.9,1.5c1.8,0.5,3.6-0.4,4.1-2.2l13.6-44.3C391.3,406,391,405.3,390.3,405z" style="fill:#1A1A1A;"/>
</g>
<g>
	<g>
		<path d="M223.5,411.5c-10.3-16.5-26.6-14.9-34.5-11.2c-4.7,2.2-23.6,13.9-14.9,48.3c8,31.4,21.2,63.1,34.8,73.6
			l29.3-56.4C237.4,442.8,231.9,424.9,223.5,411.5z" style="fill:#FECE2F;"/>
	</g>
	<g>
		<path d="M176.6,458c0,0-2.7-28.6,2.7-39.9c6.1-12.9,20.6-17.7,35.5-8.4c9.2,5.8,17.2,23.7,23.1,50.4
			c0,0-2.9-34.3-14.4-48.6c-11.5-14.3-25.8-16.9-38-9.1c-12.2,7.8-15.1,21.9-12.8,38.6C174.8,457.7,176.6,458,176.6,458z" style="fill:#FFFFFF;"/>
	</g>
	<path d="M224.5,410.9c-4.7-7.5-11.2-12.2-18.9-13.7c-5.6-1-11.9-0.3-16.9,2.1l0,0c0,0,0,0,0,0
		c-4.2,2-24.6,13.7-15.5,49.6c4.2,16.5,9.5,32,15.3,44.8c6.5,14.2,13.3,24.3,19.9,29.3c0.2,0.1,0.4,0.2,0.7,0.2
		c0.3,0,0.7-0.1,0.9-0.4c0.4-0.5,0.3-1.2-0.2-1.6c-6.2-4.8-12.9-14.6-19.2-28.5c-3.1-6.7-6-14.1-8.6-22.1c6.2-8.5,13.5-14,20.4-17.6
		c3.9,12.1,8,23.2,12.2,33.1c0.2,0.4,0.6,0.7,1,0.7c0.1,0,0.3,0,0.4-0.1c0.6-0.2,0.8-0.9,0.6-1.5c-4.2-9.9-8.3-21.1-12.2-33.2
		c4.4-2.1,8.7-3.4,12.4-4.1c9-1.9,16.3-1.4,18.6-1.2c1,6,1.6,12.3,1.9,18.9c0,0.6,0.5,1.1,1.1,1.1h0c0.6,0,1.1-0.5,1.1-1.2
		C238.6,444,233.6,425.6,224.5,410.9z M180.9,468.1c-2.1-6.3-4-13-5.7-19.8c-8-31.3,7.4-43.2,13.1-46.3c0.4,1.9,1.3,5.7,2.5,10.9
		c-5,2.3-8.5,7.3-8.5,13.2c0,6.1,3.8,11.3,9.1,13.4l0,0h0c1.6,0.6,3.4,1,5.3,1c0.5,0,1,0,1.5-0.1c1.1,3.6,2.1,7.1,3.2,10.5
		C194.6,454.5,187.3,459.9,180.9,468.1z M209,426.1c0,6.8-5.5,12.2-12.2,12.2c-1.2,0-2.3-0.1-3.3-0.4l9.7-22.2
		C206.7,417.8,209,421.7,209,426.1z M191.4,437c-4-2-6.8-6.2-6.8-10.9c0-6.8,5.5-12.2,12.2-12.2c1.5,0,3,0.3,4.4,0.8L191.4,437z
		 M216.2,445.8c-3.8,0.8-8.1,2.1-12.7,4.2c-1-3.2-2.1-6.6-3.1-10c6.2-1.6,10.8-7.3,10.8-14c0-5.7-3.3-10.6-8.1-13c0,0,0,0-0.1,0l0,0
		c-1.9-0.9-4-1.5-6.3-1.5c-1.3,0-2.6,0.2-3.8,0.5c-1.3-5.5-2.2-9.5-2.6-11.1c4.4-1.9,9.9-2.5,14.8-1.6c7.1,1.3,13,5.6,17.4,12.7
		c5.8,9.3,9.9,20.1,12.2,32.4C231.8,444.3,224.8,443.9,216.2,445.8z" style="fill:#1A1A1A;"/>
</g>
<path d="M281.4,560.1c2.2-16.5,2.5-34.5,0.9-52.5c0-0.1,0-0.1,0-0.2c-0.5-5.8-1.2-11.6-2.1-17.3
	c-4.1-26.3-12.2-50.1-22-65.3c-10.2-15.8-21.7-27.3-33.1-33.2c-13-6.8-25.6-6.5-37.6,0.8c-0.5,0.3-0.7,1-0.4,1.5
	c0.3,0.5,1,0.7,1.5,0.4c11.2-6.8,23.1-7.1,35.4-0.7c10.5,5.5,21.1,15.9,30.8,30.1c-2.7-0.5-7.2-1.2-13.7-1.2
	c-0.8-1.3-1.6-2.6-2.5-3.9c-0.3-0.5-1-0.7-1.6-0.3c-0.5,0.3-0.7,1-0.3,1.6c15.3,23.1,31.3,63.1,21,122.8c-0.2,1-0.4,2.1-0.6,3.1
	c-7.5-2.7-14.5-4.4-18.7-5.2c-0.6-0.1-1.2,0.3-1.3,0.9c-0.1,0.6,0.3,1.2,0.9,1.3c4.1,0.8,11.2,2.5,18.7,5.2
	c-3.8,19.6-9.6,36.8-17.4,51.4c-10.5-5.5-21.7-10-33.5-13.4c-0.6-0.2-1.2,0.2-1.4,0.7c-0.2,0.6,0.2,1.2,0.7,1.4
	c11.6,3.4,22.7,7.8,33,13.2c-0.3,0.6-0.6,1.1-0.9,1.7c-7.5,13.3-16.7,24.2-27.3,32.4c-15,11.7-28.7,14.8-32.9,15.5
	c2.6-30.9,7.3-51.3,7.3-51.5c0.1-0.6-0.2-1.2-0.8-1.3c-0.6-0.1-1.2,0.2-1.3,0.8c0,0.2-4.7,20.7-7.4,51.7
	c-11.3-4.5-20.4-11.1-27-19.6c-5.5-7.1-9.3-15.5-11.3-25c-2.2-10.4-1.7-19.9-1.1-25.5c1.9-0.1,3.8-0.2,5.9-0.2
	c0.6,0,1.1-0.5,1.1-1.2c0-0.6-0.5-1.1-1.1-1.1h0c-1.9,0-3.8,0.1-5.5,0.2c0.3-1.8,0.5-2.8,0.5-2.9c0.1-0.6-0.3-1.2-0.9-1.3
	c-0.6-0.1-1.2,0.3-1.3,0.9c0,0.1-0.3,1.4-0.6,3.5c-11.6,0.7-20,2.2-23,2.8c0.2-12.5,3.3-21.5,3.4-21.6c0.2-0.6-0.1-1.2-0.7-1.4
	c-0.6-0.2-1.2,0.1-1.4,0.7c-0.3,0.9-7.7,21.6-0.3,45c4.3,13.7,13.7,26.2,26.6,35.2c10.8,7.5,23.6,12.4,37.4,14.3c0,0,0,0,0,0l0,0
	l0,0h0c0,0,0.1,0,0.1,0c0,0,0,0,0.1,0c0,0,0,0,0.1,0h0c0,0,0,0,0.1,0l0,0l0,0c0,0,0,0,0.1,0c0,0,0,0,0.1,0c3.3,0.4,6.7,0.7,10.1,0.8
	c0.6,0,1.2,0,1.8,0c18.7,0,38.5-7.2,54.6-19.9c18.8-14.9,31.4-36.1,36.5-61.1c0.8-4,1.5-8,2.1-12.1
	C281.4,560.6,281.5,560.4,281.4,560.1z M260,542.9c9.6-55.4-3.4-94.2-17.5-118.3c8,0.2,12.8,1.3,14.1,1.7
	c9.6,14.9,17.4,38.3,21.5,64.1c0.8,4.9,1.4,9.8,1.9,14.7c-1.7-1.2-4.6-2.7-8.9-4c-0.6-0.2-1.2,0.1-1.4,0.7c-0.2,0.6,0.1,1.2,0.7,1.4
	c6.1,1.9,9,4.1,9.8,4.9c1.5,17.1,1.3,34.1-0.7,49.9c-5.7-5-13-8.7-20.1-11.5C259.5,545.3,259.7,544.2,260,542.9z M139.4,637.1
	c-12.5-8.7-21.6-20.8-25.7-34c-2.2-6.9-3-13.6-3.1-19.6c2.5-0.5,10.8-2,22.8-2.8c-0.6,5.7-1,15.2,1.2,25.7c2.1,9.9,6,18.6,11.6,26
	c5.3,6.9,12.2,12.5,20.5,16.9C156.8,646.8,147.5,642.7,139.4,637.1z M241.3,632.4c-15.6,12.4-34.9,19.4-53.2,19.4
	c-0.6,0-1.2,0-1.8,0c-0.9,0-1.8-0.1-2.7-0.1c6.6-1.9,16.7-5.9,27.7-14.4c10.9-8.4,20.2-19.6,27.9-33.1c0.3-0.6,0.7-1.2,1-1.8
	c6.5,3.5,12.7,7.4,18.6,11.7C253.1,622,246.8,628,241.3,632.4z M260.3,612.3c-6-4.3-12.3-8.3-18.9-11.9c7.8-14.7,13.6-32,17.5-51.7
	c7.3,2.8,14.7,6.8,20.2,11.9c-0.6,4-1.2,8-2,11.9C273.7,589.1,267.3,602.2,260.3,612.3z" style="fill:#1A1A1A;"/>
<g>
	<g>
		<path d="M357.6,409.9c-1.6-0.4-3.2-0.9-4.9-1.3l0.5-1.2c8.3-7.1,13.8-17.4,12.4-18.6c-1.5-1.3-11.4,10.6-23.3,17
			c-3.8,2-19.4,8.2-33.6,15.7c-14.2,7.5-40.1,23-57.9,35.5c-15.6,11-35.3,25.6-42.4,40.7c-3.2,6.8-3.4,14.7-1.3,20.7
			c2.1,6,10.2,16.5,28.9,12.1c20.9-4.9,43.1-41.2,53.2-55.6c10.1-14.4,23.9-28,36.4-38.6c9.9-8.5,17-10.3,19.4-10.7
			c0,0.5-0.1,1-0.3,1.5c-0.3,1.1-1,2-1.6,2.9c-0.4,0.7-0.7,1.5-1,2.2c-0.1,0.5-0.3,1,0,1.5c0.2,0.4,0.7,0.6,1.2,0.5s0.9-0.3,1.3-0.5
			c2.5-1.5,4.6-3.4,6.3-5.7c0.3,0.9,0.5,1.7,0.7,2.6c0.1,0.4,0.3,0.9,0.7,1.2c0.5,0.4,1.3,0.3,1.9-0.2c0.5-0.4,0.8-1.1,1.1-1.7
			c0.3-0.7,0.6-1.4,0.9-2.1c0.1-0.1,0.1-0.3,0.3-0.4c0.1-0.1,0.4,0,0.6,0c1,0.2,2-0.2,2.7-0.9c0.7-0.7,1.1-1.6,1.5-2.6
			c0.7-1.7,1.2-3.5,1.6-5.3c0.4-2,0.7-4.3-0.5-6C361.4,411,359.4,410.4,357.6,409.9z" style="fill:#FECE2F;"/>
	</g>
	<g>
		<path d="M208.9,522.2c0,0-3.9-16.5,11.5-32.3s33.6-29.8,65.8-49.8c32.3-19.9,52.7-23.9,53.8-33.2
			c0,0-13.6,7.2-14.7,7.1c-1.2,0-27.1,12.8-42.4,22.3c-15.3,9.5-46.5,31.4-46.5,31.4s-21.4,15.8-25.6,26
			C206.4,504,204,508.1,208.9,522.2z" style="fill:#FFFFFF;"/>
	</g>
	<g>
		<g>
			<circle cx="226.1" cy="507.6" r="10.7" style="fill:#FECE2F;"/>
		</g>
		<path d="M354.4,407.8c3.2-2.8,6.3-6.4,8.8-10.1c2.3-3.5,3.7-6.6,3.7-8.2c0-0.8-0.3-1.3-0.6-1.5
			c-1.4-1.2-3.3,0.4-7.9,4.4c-4.3,3.8-10.2,8.9-16.7,12.4c-1.3,0.7-4.1,1.9-7.6,3.4c-3.4,1.5-7.7,3.4-12.4,5.5
			c0-0.1-0.1-0.2-0.2-0.3c-0.3-0.3-0.7-0.6-1.1-0.9c-0.4-0.3-0.9-0.6-1.5-0.7c-0.3-0.1-0.7-0.1-1.2,0c-0.4,0.1-0.9,0.4-1.2,0.7
			c-0.3,0.3-0.5,0.7-0.6,1c-0.1,0.3-0.2,0.6-0.3,0.9c-0.1,0.8-0.1,1.5,0,2.2c-0.5,0.2-0.9,0.4-1.4,0.7c0-0.1-0.1-0.2-0.2-0.3
			c-0.3-0.3-0.7-0.7-1.1-1c-0.4-0.3-0.9-0.6-1.6-0.8c-0.4-0.1-0.8-0.1-1.3,0c-0.5,0.1-1,0.5-1.3,0.9c-0.3,0.4-0.4,0.8-0.6,1.1
			c-0.1,0.3-0.1,0.7-0.2,0.9c-0.1,0.9,0,1.6,0.1,2.3c-0.4,0.2-0.7,0.4-1.1,0.6c-0.3-0.4-0.7-0.7-1.1-1c-0.4-0.3-0.9-0.6-1.6-0.9
			c-0.4-0.1-0.9-0.1-1.4,0c-0.6,0.1-1.1,0.6-1.3,1c-0.3,0.4-0.4,0.8-0.5,1.2c0,0.2-0.1,0.3-0.1,0.5s0,0.3,0,0.5c0,0.7,0,1.4,0.1,2.1
			c-14.9,8.3-35.7,21-50.6,31.5c-6.1,4.3-12.1,8.7-17.7,13.2c-0.1,0-0.1,0.1-0.2,0.1c-11,8.9-20.3,18.2-24.9,27.8
			c-3.1,6.6-3.7,14.9-1.3,21.6c0.7,2,2.9,7,8.7,10.5c3.7,2.3,8,3.4,12.9,3.4c2.7,0,5.6-0.4,8.7-1.1c18.8-4.4,38.1-32.9,49.6-49.9
			c1.6-2.4,3-4.4,4.2-6.2c7.2-10.3,16.1-19.8,24.2-27.6c0.6,0.5,1.3,1,2.2,1.5c0.3,0.1,0.6,0.3,0.9,0.4s0.7,0.2,1.2,0.2
			c0.5,0,1.2-0.2,1.7-0.6c0.3-0.2,0.4-0.4,0.6-0.7c0.1-0.2,0.3-0.4,0.3-0.7c0.3-0.8,0.2-1.4,0.1-2c-0.1-0.6-0.2-1.1-0.3-1.6
			c-0.2-0.7-0.5-1.4-0.7-2.1l0,0c0.1,0.1,0.1,0.1,0.3,0.2c0.7,0.6,1.5,1.2,2.6,1.7c0.1,0.1,0.3,0.1,0.4,0.2l0.2,0.1l0.3,0.1
			c0.1,0,0.4,0.1,0.6,0.1c0.1,0,0.2,0,0.3,0h0.1h0.2c0.1,0,0.3,0,0.4,0c0.1,0,0.3-0.1,0.4-0.1c0.3-0.1,0.5-0.3,0.7-0.4
			c0.4-0.4,0.7-0.9,0.8-1.2c0.3-0.8,0.2-1.4,0.2-1.9s-0.1-1-0.3-1.5c-0.3-0.9-0.6-1.8-1-2.6c0,0,0,0,0.1,0c0.2,0.2,0.5,0.4,0.7,0.6
			c0.7,0.6,1.5,1.1,2.6,1.5c0.3,0.1,0.6,0.2,0.9,0.3s0.7,0.1,1.2,0c0.4-0.1,1-0.3,1.3-0.6c0.4-0.3,0.6-0.7,0.7-1.1
			c0.3-0.7,0.3-1.3,0.2-1.8c0-0.5-0.1-1-0.2-1.5c-0.2-0.9-0.5-1.6-0.8-2.4c4.4-2.8,8-4.3,10.4-4.9c-3.4,5.9-2.3,6.8-1.8,7.2
			c0.6,0.5,1.2,0.8,1.9,0.8c0.1,0,0.2,0,0.3,0c1.8-0.2,3.8-2.1,6.5-5.9c0,2.3,0.5,3.2,0.8,3.5c0.4,0.5,0.9,0.7,1.5,0.7
			c1,0,1.7-0.9,2.2-1.5c0.5-0.7,1.1-1.7,1.6-2.9c0.2,0.1,0.4,0.3,0.6,0.3c0.2,0.1,0.4,0.1,0.6,0.1c0.4,0,1-0.1,1.5-0.6
			c1.9-1.5,5.6-10.5,4.1-15.3C362.9,410.6,358.1,408.8,354.4,407.8z M319.4,414.7c0.1,0,0.2,0.1,0.3,0.1c-0.3,0.1-0.5,0.3-0.8,0.4
			c0-0.1,0-0.2,0-0.3v-0.3c0,0,0,0,0,0C319,414.6,319.2,414.6,319.4,414.7z M318.6,414.6c0,0,0.1,0,0.1,0
			C318.7,414.6,318.6,414.6,318.6,414.6C318.5,414.6,318.6,414.6,318.6,414.6z M311.7,418.3c0.1,0.1,0.3,0.1,0.4,0.2
			c-0.3,0.1-0.6,0.3-0.9,0.4c0-0.2,0-0.3-0.1-0.5c0-0.1,0-0.2,0-0.3C311.4,418.1,311.5,418.2,311.7,418.3z M310.8,418.1
			c0,0,0.1,0,0.2,0C311,418.1,310.9,418.1,310.8,418.1C310.8,418.1,310.8,418.1,310.8,418.1z M304.4,422.3c0.1,0,0.1,0.1,0.2,0.1
			c-0.2,0.1-0.4,0.2-0.5,0.3c0-0.1,0-0.1,0-0.2s0-0.1,0-0.2c0,0,0-0.1,0-0.1C304.2,422.2,304.3,422.2,304.4,422.3z M303.6,422.1
			c0,0,0.1,0,0.2,0C303.7,422.1,303.7,422.1,303.6,422.1C303.5,422.1,303.5,422.1,303.6,422.1z M301.2,426.8
			c0.1,0.6,0.3,1.1,0.5,1.6c0.6,1.8,1.3,3.6,2.2,5.3c0.4,0.9,0.9,1.8,1.4,2.7c-1.9,1-4.9,2.7-8.8,5.1c-2.5-4.5-3.6-8.2-3.9-9.7
			C295.6,430,298.5,428.3,301.2,426.8z M290.6,433c0.5,1.9,1.6,5.5,4,9.7c-5,3.2-11.3,7.5-18.4,13c-1.9,1.5-3.9,3.1-6,4.9
			c-3.3-5.3-5.1-9.6-5.7-11.3C273,443.5,282.1,437.9,290.6,433z M251.5,457.9c3.4-2.4,7.2-4.9,11-7.5c0.8,2.1,2.7,6.5,5.9,11.6
			c-7.9,6.7-17,15.1-26.5,25.4c-4.8-7.8-6.9-14.6-7.5-16.8C239.8,466.2,245.6,462,251.5,457.9z M208.2,518
			c-2.1-6.1-1.6-13.7,1.3-19.9c4.2-8.9,12.7-17.6,23-26c0.7,2.5,2.5,7.6,5.8,13.6c0.6,1.1,1.3,2.2,2.1,3.4c-2.5,2.8-5,5.6-7.6,8.7
			c-0.1-0.1-0.3-0.2-0.4-0.3c-4-2.4-8.8-2.2-12.5,0.1h0l0,0c-1.5,0.9-2.7,2.2-3.7,3.8c-1.6,2.7-2.2,5.9-1.4,8.9
			c0.6,2.4,1.8,4.4,3.5,6c-1.9,2.7-3.8,5.4-5.7,8.2C209.6,521.7,208.4,518.7,208.2,518z M222,498.9c1.3-0.6,2.7-0.9,4.1-0.9
			c1.7,0,3.4,0.4,5,1.4l0,0c2.2,1.3,3.7,3.4,4.3,5.9c0.6,2.5,0.2,5.1-1.2,7.2c-0.4,0.7-0.9,1.3-1.5,1.9L222,498.9z M231,515.8
			c-0.8,0.5-1.7,0.9-2.7,1.1c-2.5,0.6-5.1,0.2-7.2-1.2c-2.2-1.3-3.7-3.4-4.3-5.9c-0.6-2.5-0.2-5.1,1.2-7.2c0.6-1,1.3-1.8,2.2-2.5
			L231,515.8z M235.8,529.4c-10.8,2.5-17.5,0-21.7-3.3c1.9-2.9,3.9-5.7,5.9-8.4c1.9,1.2,4,1.7,6.1,1.7c0.9,0,1.9-0.1,2.8-0.3
			c3.1-0.7,5.7-2.6,7.3-5.3c1.6-2.7,2.2-5.9,1.4-8.9c-0.5-2.2-1.6-4.1-3.2-5.6c2.4-2.8,4.8-5.6,7.1-8.2c4.4,6.5,11,13.8,20.5,19
			C253.8,519.5,244.7,527.3,235.8,529.4z M284.1,480.4c-5.4,8-12.6,18.6-20.6,27.9c-9.3-5.1-15.9-12.2-20.5-19
			c9.5-10.3,18.6-18.8,26.5-25.5c3.5,5.2,8.4,10.9,15,15.8C284.5,479.9,284.3,480.1,284.1,480.4z M288.4,474.2
			c-0.7,1.1-1.6,2.3-2.5,3.6c-6.3-4.7-11.1-10.4-14.5-15.5c2.1-1.8,4.2-3.4,6.1-4.9c7-5.5,13.2-9.7,18.2-12.8
			c2.1,3.2,4.9,6.8,8.8,10.1C298.9,460.7,293.2,467.3,288.4,474.2z M306.1,453c-3.7-3.2-6.4-6.6-8.4-9.7c4-2.5,7-4.1,8.8-5.1
			c0.1,0.1,0.1,0.2,0.2,0.3c1,1.6,2.1,3.1,3.3,4.6c0.9,1.1,1.8,2.1,2.8,3.1C310.5,448.5,308.3,450.7,306.1,453z M318.3,446.8
			C318.3,446.8,318.3,446.8,318.3,446.8c0-0.1,0-0.1,0.1-0.1C318.3,446.7,318.3,446.8,318.3,446.8z M318.4,446.1
			C318.4,446.1,318.4,446.1,318.4,446.1C318.4,446.2,318.4,446.1,318.4,446.1c-0.4-0.2-0.8-0.5-1.2-0.9c0.4-0.3,0.7-0.7,1-1
			c0,0.2,0.1,0.5,0.1,0.7C318.4,445.4,318.5,445.8,318.4,446.1z M315.7,443.6c-0.8-0.9-1.6-1.9-2.3-2.9c-1-1.4-2-2.9-2.9-4.4
			c-1.9-3-3.5-6.1-5-9.3c-0.3-0.7-0.6-1.4-0.8-2.1c1.3-0.7,2.6-1.4,3.8-2c0.1,0.4,0.2,0.9,0.4,1.3c0.6,1.8,1.3,3.5,2.1,5.1
			c0.8,1.6,1.7,3.2,2.7,4.8c1,1.5,2,3,3.2,4.4c0.6,0.8,1.3,1.5,2,2.3C317.8,441.7,316.8,442.6,315.7,443.6z M324.8,441.7
			c0,0,0-0.1,0.1-0.1C324.9,441.6,324.9,441.7,324.8,441.7z M325,441c0,0,0,0.1,0,0.1c0,0-0.1,0-0.1-0.1c-0.5-0.3-1-0.8-1.6-1.3
			c0.5-0.4,1-0.9,1.5-1.3c0.1,0.5,0.1,1,0.2,1.5C325,440.3,325.1,440.7,325,441z M324.9,435.4c-1,0.9-2.1,1.8-3.1,2.7
			c-0.6-0.7-1.2-1.4-1.7-2.2c-1-1.3-1.9-2.8-2.8-4.2c-1.8-2.9-3.4-5.9-4.7-8.9c-0.2-0.6-0.4-1.1-0.7-1.7c1.4-0.7,2.8-1.4,4.1-2.1
			c0.1,0.4,0.2,0.7,0.3,1.1c0.5,1.7,1.2,3.3,1.9,4.9c0.7,1.5,1.6,3.1,2.5,4.5c0.9,1.5,1.9,2.8,3,4.2c0.4,0.5,0.9,1,1.4,1.6
			C325.1,435.2,325,435.3,324.9,435.4z M331.4,436.2c0,0,0,0,0-0.1l0,0C331.5,436.1,331.5,436.2,331.4,436.2z M331.6,435.6
			c0,0.1,0,0.2,0,0.3c0,0-0.1,0-0.1-0.1c-0.4-0.3-1-0.7-1.5-1.2c-0.1-0.1-0.1-0.1-0.2-0.2c0.6-0.4,1.2-0.9,1.8-1.3
			c0.1,0.5,0.1,1,0.1,1.5C331.7,434.9,331.7,435.3,331.6,435.6z M358.3,426.9C358.3,426.9,358.2,426.9,358.3,426.9
			c-0.1,0-0.3-0.2-0.3-0.4c1.8-4.3,3.2-9.7,2.5-11.9c-0.3-1-1.2-1.8-2.5-2.5c-3.6-1.8-10.9-2.3-11.5-2.1s-0.9,0.8-0.7,1.4
			c0.2,0.5,0.7,0.8,1.2,0.7c2.2,0,10.7,1,11.4,3.1c0.3,1-0.1,4.1-1.7,8.6c-1.3,3.7-2.7,6.2-3.4,7c-0.2-0.8-0.1-2.8,0.2-4.7
			c0-0.3,0-0.5-0.1-0.7c1.3-2,2.1-3.8,1.6-5.5c-0.4-1.6-1.9-3.5-6.6-3.7c-2.5-0.1-4.8,0.4-4.9,0.4c-0.6,0.1-1,0.7-0.9,1.3
			c0.1,0.6,0.7,1,1.3,0.9c2.1-0.4,8.1-1.1,8.8,1.6c0.3,1.3-1.2,3.5-2.8,5.8c-0.3,0.4-0.5,0.8-0.8,1.2c-3,4.4-4.4,5.2-5.1,5.2
			c-0.1,0-0.2,0-0.3-0.1c0.1-1,1.6-3.8,3.3-6.6c0,0,0-0.1,0.1-0.1c0.4-0.6,0.8-1.2,1.2-1.8c0.3-0.5,0.2-1.2-0.3-1.6
			c-0.5-0.3-1.2-0.2-1.6,0.3c-0.3,0.5-0.7,1-1,1.5c-1.9,0.3-8.2,1.5-17.2,8.4c-0.4-0.5-0.9-1.1-1.3-1.6c-0.9-1.2-1.8-2.5-2.7-3.9
			c-1.6-2.7-3.2-5.5-4.3-8.3c-0.2-0.5-0.4-1-0.6-1.5c5.9-2.8,11.5-5.2,15.6-7.1c3.7-1.6,6.4-2.8,7.8-3.5c6.8-3.6,12.8-8.8,17.2-12.7
			c1.7-1.5,3.5-3.1,4.6-3.8c-0.8,2.8-5.2,10.3-12.1,16.3c-0.2,0.1-0.3,0.4-0.4,0.6c-0.6-0.1-1-0.2-1.3-0.3c-0.6-0.1-1.2,0.3-1.3,0.9
			c-0.1,0.6,0.3,1.2,0.9,1.3c7.2,1.4,10.9,3.8,11.3,5C362.9,417.9,359.5,425.9,358.3,426.9z" style="fill:#1A1A1A;"/>
	</g>
</g>
<g>
	<g>
		<path d="M589,443.3l-4-3.1l3.1-3.9c0.8-1,1.2-2.3,1-3.5c-0.1-1.3-0.8-2.4-1.8-3.2c-1-0.8-2.3-1.2-3.5-1
			c-1.3,0.1-2.4,0.8-3.2,1.8l-3.1,4l-4-3.1c-1-0.8-2.3-1.1-3.5-1c-1.3,0.1-2.4,0.8-3.2,1.8c-0.8,1-1.1,2.3-1,3.5
			c0.1,1.3,0.8,2.4,1.8,3.2l4,3.1l-3.1,3.9c-0.8,1-1.2,2.3-1,3.5c0.1,1.3,0.8,2.4,1.8,3.2c0.9,0.7,1.9,1,2.9,1
			c1.4,0,2.8-0.6,3.8-1.9l3.1-4l4,3.1c0.9,0.7,1.9,1,2.9,1c0.2,0,0.4,0,0.6,0c1.3-0.1,2.4-0.8,3.2-1.8
			C591.4,448,591.1,444.9,589,443.3z M568.9,437.2c-0.6-0.4-0.9-1-1-1.7c-0.1-0.7,0.1-1.4,0.5-1.9c0.4-0.6,1-0.9,1.7-1
			c0.1,0,0.2,0,0.3,0c0.6,0,1.1,0.2,1.6,0.5l4,3.1l-3.2,4.1L568.9,437.2z M588,448.7c-0.4,0.6-1,0.9-1.7,1c-0.7,0.1-1.4-0.1-1.9-0.5
			l-4-3.1l3.2-4.1l4,3.1C588.7,446,588.9,447.6,588,448.7z" style="fill:#1A1A1A;"/>
		<g>
			<path d="M568.9,437.2l4,3.1l3.2-4.1l-4-3.1c-0.4-0.3-1-0.5-1.6-0.5c-0.1,0-0.2,0-0.3,0c-0.7,0.1-1.3,0.4-1.7,1
				c-0.4,0.6-0.6,1.2-0.5,1.9C568,436.2,568.3,436.7,568.9,437.2z" style="fill:#FFFFFF;"/>
			<path d="M587.6,445.1l-4-3.1l-3.2,4.1l4,3.1c0.6,0.4,1.2,0.6,1.9,0.5c0.7-0.1,1.3-0.4,1.7-1
				C588.9,447.6,588.7,446,587.6,445.1z" style="fill:#FFFFFF;"/>
		</g>
		<path d="M586.8,433.1c-0.1-0.7-0.4-1.3-1-1.7c-0.4-0.4-1-0.6-1.6-0.6c-0.1,0-0.2,0-0.3,0c-0.7,0.1-1.3,0.4-1.7,1
			l-12.1,15.5c-0.4,0.5-0.6,1.2-0.5,1.9c0.1,0.7,0.4,1.3,1,1.7c1.1,0.9,2.8,0.7,3.6-0.4l12.1-15.5
			C586.8,434.5,587,433.8,586.8,433.1z" style="fill:#FFFFFF;"/>
	</g>
	<g>
		<path d="M577.7,436.9c-0.6,0-1.1-0.5-1.1-1.1c-0.4-18,15.2-33.7,30.3-48.9c15-15.1,29.3-29.4,28.4-45.3
			c-0.7-14.4-22.8-27.3-45.3-26.3c-2.7,0.1-5.3,0.1-7.9,0.1c-30.8,0-53.5-7.7-67.6-22.9c-9.1-9.9-12.7-21.1-14.1-28.7
			c-1.5-8.3-0.8-14.2-0.8-14.4c0.1-0.6,0.6-1,1.2-1c0.6,0.1,1,0.6,1,1.2c0,0.2-2.5,23.3,14.3,41.4c13.7,14.7,35.8,22.1,66,22.1
			c2.5,0,5.2,0,7.8-0.1c11.4-0.4,23.2,2.4,32.4,7.9c9.3,5.5,14.8,13,15.2,20.5c0.9,16.9-14.3,32.2-29.1,47
			c-14.8,14.9-30.1,30.2-29.7,47.3C578.9,436.4,578.4,436.9,577.7,436.9C577.8,436.9,577.7,436.9,577.7,436.9z" style="fill:#191919;"/>
	</g>
</g>
<g>
	<g>
		<path d="M474.2,718.5h-68.5c-0.6,0-1.1-0.5-1.1-1.1s0.5-1.1,1.1-1.1h68.5c0.6,0,1.1,0.5,1.1,1.1
			S474.8,718.5,474.2,718.5z" style="fill:#1A1A1A;"/>
	</g>
	<g>
		<path d="M390,718.5h-19c-0.6,0-1.1-0.5-1.1-1.1s0.5-1.1,1.1-1.1h19c0.6,0,1.1,0.5,1.1,1.1S390.6,718.5,390,718.5z" style="fill:#1A1A1A;"/>
	</g>
	<g>
		<path d="M357.5,718.5h-6.2c-0.6,0-1.1-0.5-1.1-1.1s0.5-1.1,1.1-1.1h6.2c0.6,0,1.1,0.5,1.1,1.1
			S358.2,718.5,357.5,718.5z" style="fill:#1A1A1A;"/>
	</g>
	<g>
		<path d="M613.6,718.5H508.9c-0.6,0-1.1-0.5-1.1-1.1s0.5-1.1,1.1-1.1h104.7c0.6,0,1.1,0.5,1.1,1.1
			S614.2,718.5,613.6,718.5z" style="fill:#1A1A1A;"/>
	</g>
</g>
<g>
	<g>
		<path d="M529.7,446.9c0.3-0.3,0.6-0.7,0.9-0.9c0.1-0.1,0.2-0.3,0.3-0.4c1.8-2.6,3.1-5.5,4.4-8.4
			c-0.2,0.5,0.5-1.3,0.7-1.7c0.3-0.8,0.6-1.7,0.9-2.5c0.5-1.5,0.9-2.9,1.3-4.4c0.2-0.9,0.4-1.7,0.5-2.6c0-0.1,0-0.3,0.1-0.4
			c0-0.3,0.1-0.6,0.1-0.9c0.1-1.6,0.2-3.2,0.3-4.7c0.1-3.4,0.2-6.9,0.1-10.3c-0.1-2.6-0.2-5.2-0.4-7.8c0-0.3,0-0.5-0.1-0.8
			c-0.1-0.6-0.2-1.2-0.3-1.7c0-0.1-0.1-0.5-0.3-0.8c-0.1-0.2-0.2-0.4-0.3-0.5c-0.4-0.6-0.7-1.3-0.9-2c-4.2,0.9-8,1.2-11,1.2
			c-11-0.3-25.3-3.4-37.2-14.5c-11.9-11.1-21.9-33.7-21.9-33.7l-6-23l-3.3-18.6l-1.7-13.1c-3.4-1.3-5.3,5.5-5.3,5.5L449,311
			c0,0-7.3-2.6-12-1c-4.7,1.5-1,7.9-1,7.9c-5.8,3.3-1.6,7.3-1.6,7.3c-1.9,4.2,1.6,6.9,1.6,6.9c-0.6,2.6,1.4,4.1,1.4,4.1l5.1,0.5
			c2.4,37.7,11.5,52.8,20.6,68.6c9.2,15.8,30.5,32.1,48.8,38.5c5.7,2,11.5,3.3,16.9,4.2C529.1,447.6,529.4,447.2,529.7,446.9z" style="fill:#FECE2F;"/>
	</g>
	<g>
		<path d="M443.7,348.1c0,0,7.4-2.2,9,9.9c4.2,31,20.4,51.7,34.5,63c30.6,24.6,50.5,19.3,50.5,19.3l-11.4,7.4
			c0,0-19-2.1-36.8-15.5s-28.5-28.5-33-37.6s-9.6-20.3-11.6-36.4C442.8,342.1,443.7,348.1,443.7,348.1z" style="fill:#FFFFFF;"/>
	</g>
	<g>
		<path d="M536.9,396c0,0,20.9-4.1,34.8-16c0,0-6.8,17.1-9.5,27.5c-2.8,10.4-7.1,28.6-7.1,28.6l-11.9,2.7l-7.3-3.2
			c0,0,4.3-14.8,3.2-25.9C538.1,398.5,536.9,396,536.9,396z" style="fill:#FFFFFF;"/>
	</g>
	<path d="M574,378.3c-0.4-0.5-1.1-0.6-1.6-0.2c-11.8,9.1-23.4,14.7-34.6,17.1c0,0-0.1,0-0.1,0c0,0-0.1,0-0.1,0
		c-7.3,1.4-14.4,1.5-21.4,0c-24.6-5-38.2-26.2-41.7-32.6c-13.6-24.2-17.5-68.3-17.6-68.8v0c0,0,0-0.1,0-0.1c0,0,0-0.1,0-0.1
		c0,0,0-0.1,0-0.1s0-0.1,0-0.1s0-0.1,0-0.1c0,0,0-0.1-0.1-0.1c0,0,0,0-0.1-0.1c0,0,0,0-0.1-0.1c0,0-0.1,0-0.1-0.1c0,0-0.1,0-0.1,0
		c0,0-0.1,0-0.1,0c0,0-0.1,0-0.1,0h0c-0.2,0-1.8-0.3-3.4,0.8s-2.8,3.2-3.2,6.3c-0.7,4.6-1.2,8.1-1.3,9.9c-2.4-0.9-7.3-2.4-10.6-1
		c-1.4,0.6-2.4,1.6-3,3c-0.7,1.9-0.5,3.7,0.5,5.3c-1.2,0.6-2.7,1.7-3,4c-0.1,1.3,0.4,2.4,1.6,3.4c-0.6,0.8-1.2,2.1-1.2,3.5
		c0,1.1,0.5,2.2,1.4,3c0.3,0.3,0.7,0.6,1.2,0.8c-0.3,0.8-0.6,1.9-0.2,3.1c0.2,0.7,0.8,1.7,2.4,2.2c1,0.4,2.4,0.6,3.7,0.6
		c0.2,0,0.4,0,0.7,0c0.3,5.2,2,28.6,8.5,45.2c4.4,11.5,29.7,67.7,96.3,67.7c0.7,0,1.5,0,2.3,0h0c0,0,0,0,0,0c0.4,0,0.8,0,1.2,0
		c0.6,0,1.1-0.5,1.1-1.2c0-0.3-0.1-0.6-0.3-0.7c1.2-1.6,3.1-4.4,4-6.5c1.3-3.2,4.1-15.5,4.2-16c0.1-0.6-0.2-1.2-0.7-1.3
		c-0.6-0.2-1.2,0.1-1.4,0.6c0,0.1-4.6,11.1-11.6,10.7c-1.3-0.1-2.3-0.6-3.2-1.6c-1.9-2.2-2.3-6.1-2.3-8.7c0.1-1.5,0.1-2.6,0.1-2.9
		c0.3-2.1,0.5-4.2,0.6-6.4c0.4-8.9-0.6-16.5-1-19.2c11.3-2.5,22.9-8.2,34.6-17.3C574.3,379.5,574.4,378.8,574,378.3z M436.4,318.9
		c0.9,0.7,1.9,1.4,3.2,2c1.6,0.7,3.4,1.1,5,1.1c0.3,0,0.5,0,0.7,0c0.1,0.1,0.2,0.2,0.4,0.3c0.8,0.3,1.2,0.8,0.7,2.4
		c-0.2,0.6-0.5,1.6-4.8,0.7c-2.5-0.5-4.6-1.2-5.9-1.9c0,0,0,0-0.1,0c-1-0.6-1.6-1.3-1.5-2C434.3,319.6,435.9,319.1,436.4,318.9z
		 M435.4,325.7c1.5,0.7,3.4,1.3,5.7,1.8c1,0.2,2.1,0.4,3.1,0.4c0.1,0,0.2,0,0.3,0c0.1,0,0.2,0,0.3,0.1c0.6,0,0.7,0.6,0.8,1
		c0.1,0.8-0.3,1.5-0.4,1.5c-1.8,0.6-8.1,0.6-9.9-1.1c-0.4-0.4-0.7-0.9-0.7-1.4C434.5,327.2,435,326.3,435.4,325.7z M437.7,335
		c-0.8-0.3-0.9-0.7-1-0.8c-0.1-0.5,0-1.1,0.2-1.6c1.5,0.4,3.1,0.5,4.6,0.5c0.4,0,0.7,0,1.1,0c0.1,0.2,0.3,0.4,0.5,0.5
		c0,0,0.7,0.4,0.7,1c0,0.1-0.1,0.3-0.3,0.4C442.3,335.6,439.5,335.6,437.7,335z M526,446.4c-50.2-9.8-70.2-54.4-74-64.4
		c-6.5-16.7-8.1-40.4-8.3-44.8c0.3-0.1,0.7-0.3,0.9-0.4c1-0.6,1.3-1.4,1.4-2c0.1-0.9-0.1-1.6-0.5-2.1c0.1,0,0.3-0.1,0.4-0.1
		c1.5-0.5,2.2-2.4,2-3.9c-0.1-0.6-0.3-1.2-0.6-1.6c0.6-0.4,1-1,1.2-1.8c0.3-1,0.6-2.7-0.4-4c0.7-0.4,1.2-0.9,1.5-1.5
		c0.9-1.7,0.1-4.2-1-5.7c-1.4-1.8-2.8-2.1-3.6-2.1c-1.3,0-2.4,0.5-2.9,1.4l-1.9-0.6c-0.6-0.2-1.2,0.1-1.4,0.7
		c-0.1,0.6,0.1,1.2,0.7,1.4l2.1,0.6c0.1,1.1,0.5,1.8,0.6,1.9c0.3,0.5,1,0.6,1.6,0.3c0.5-0.3,0.6-1,0.3-1.6c0,0-0.4-0.7-0.1-1.6
		c0.1-0.3,0.6-0.4,1.1-0.4c0.6,0,1.3,0.4,1.9,1.3c0.7,0.9,1.2,2.5,0.8,3.3c-0.4,0.8-3.5,1.6-7.1,0c-2.1-0.9-5.3-2.9-4-6.2
		c0.3-0.9,0.9-1.4,1.8-1.8c2.9-1.2,8.4,0.7,10.3,1.6c0.3,0.1,0.7,0.1,1,0c0.3-0.2,0.5-0.5,0.6-0.9c0,0,0.4-4.3,1.5-11.2
		c0.4-2.4,1.2-4,2.2-4.7c0.3-0.3,0.7-0.4,1-0.4c0.7,6.9,5.2,46.1,17.8,68.6c3,5.4,8.4,13.3,16.8,20.4c1.7,1.5,3.4,2.8,5.2,4
		c2.1,1.8,3.2,3.4,3.3,4.8c0.1,1.6-1.2,3.1-2.4,4.4c-1.1,1.2-2.2,2.4-2.1,3.8c0,0.7,0.4,1.5,1.1,2.1c0.5,0.4,1.3,0.9,2.8,0.9
		c1.9,0,5-0.6,10.1-2.6c4.1-1.6,8-3.4,9.2-4c3.4,0.6,6.8,1,10.3,1c3.4,0,6.8-0.3,10.3-0.9C537.9,403.7,541.7,433.3,526,446.4z" style="fill:#1A1A1A;"/>
</g>
<g>
	<g>
		<g>
			
				<ellipse transform="matrix(0.9326 -0.3608 0.3608 0.9326 -39.4176 149.5216)" cx="380.7" cy="180.3" rx="32.8" ry="5.9" style="fill:#FFFFFF;"/>
		</g>
		<g>
			<polyline points="376.5,181 378.7,187.5 387.7,184.7 385.6,178.1 			" style="fill:#FFFFFF;"/>
			<ellipse transform="matrix(0.953 -0.3029 0.3029 0.953 -38.3472 124.816)" cx="383.2" cy="186" rx="4.7" ry="1.3" style="fill:#FFFFFF;"/>
			<path d="M385.6,178.1c-0.2-0.7-2.4-0.6-4.9,0.2s-4.3,2-4.1,2.7" style="fill:#FFFFFF;"/>
		</g>
	</g>
	<g>
		
			<ellipse transform="matrix(0.8671 -0.4982 0.4982 0.8671 30.4806 277.0464)" cx="534.4" cy="81.4" rx="49.4" ry="16.3" style="fill:#FECE2F;"/>
	</g>
	<g>
		<g>
			<path d="M554.6,81.5c-4,4.4-8.7,8.2-13.7,11.5c-5,3.2-10.3,6-16.1,8.1c-1.4,0.5-2.9,1-4.3,1.4
				c-1.5,0.4-2.9,0.7-4.5,1c-1.5,0.2-3.1,0.4-4.7,0.4c-0.8,0-1.6-0.1-2.4-0.2c-0.8-0.1-1.6-0.3-2.5-0.6c-0.8-0.3-1.6-0.8-2.3-1.5
				c-0.7-0.7-1.2-1.6-1.5-2.5c-0.2-0.9-0.2-1.8-0.1-2.7c0.1-0.8,0.4-1.6,0.7-2.3c0.6-1.5,1.5-2.7,2.5-3.9c0.5-0.6,1-1.2,1.5-1.7
				c0.5-0.5,1-1,1.6-1.5c-0.2,0.3-0.4,0.6-0.6,0.9c-0.2,0.3-0.4,0.6-0.6,0.9c-0.4,0.6-0.7,1.3-1.1,1.9c-0.7,1.3-1.3,2.6-1.6,3.9
				c-0.2,0.7-0.3,1.3-0.3,1.9c0,0.6,0.1,1.2,0.3,1.7c0.2,0.5,0.5,0.9,0.9,1.2c0.4,0.3,0.9,0.5,1.5,0.7c1.2,0.3,2.5,0.4,3.8,0.3
				c1.3-0.1,2.7-0.3,4.1-0.6c1.4-0.3,2.8-0.6,4.1-1c1.4-0.4,2.7-0.9,4.1-1.3c5.4-1.9,10.7-4.4,15.8-7.1
				C544.7,87.8,549.7,84.8,554.6,81.5z" style="fill:#FFFFFF;"/>
		</g>
		<g>
			<path d="M520.2,77.7c3.3-3.5,7.2-6.6,11.3-9.2s8.5-4.9,13.1-6.5c2.3-0.8,4.7-1.5,7.2-2c1.2-0.2,2.5-0.4,3.8-0.5
				c1.3-0.1,2.6-0.1,3.9,0.1c1.3,0.2,2.7,0.6,3.9,1.5c0.6,0.4,1.2,1,1.5,1.7c0.4,0.7,0.6,1.4,0.6,2.2c0,1.5-0.4,2.7-1,3.8
				c-0.6,1.1-1.3,2.1-2.1,3c0.2-0.6,0.5-1.1,0.7-1.7c0.2-0.6,0.4-1.1,0.5-1.7c0.3-1.1,0.4-2.3,0.1-3.2c-0.2-1-0.8-1.6-1.6-2
				l-0.3-0.1l-0.3-0.1c-0.2-0.1-0.5-0.1-0.7-0.2c-0.5-0.1-1-0.1-1.6-0.1c-2.2,0-4.4,0.3-6.6,0.9c-1.1,0.3-2.2,0.6-3.3,0.9
				c-1.1,0.3-2.2,0.7-3.3,1.1c-4.4,1.6-8.7,3.5-13,5.6C528.6,73.1,524.4,75.4,520.2,77.7z" style="fill:#FFFFFF;"/>
		</g>
		<g>
			<path d="M564.2,47.9c2.7-0.7,5.5-1.2,8.3-1.3c1.4,0,2.8,0.1,4.3,0.3c1.4,0.2,2.8,0.7,4.2,1.3
				c1.3,0.7,2.6,1.6,3.6,2.9c1,1.3,1.6,2.8,1.8,4.3c0.2,1.5,0.1,3.1-0.1,4.6c-0.3,1.5-0.7,2.9-1.3,4.2c-0.6,1.3-1.2,2.6-2,3.8
				s-1.5,2.4-2.4,3.5c-0.9,1.1-1.7,2.2-2.7,3.3c-0.4,0.5-0.9,1-1.4,1.6c-0.5,0.5-1,1-1.5,1.5c-4,4-8.4,7.4-13.2,10.3
				c4.1-3.8,8.1-7.6,11.7-11.7c1.8-2.1,3.5-4.2,5-6.4c1.5-2.2,2.9-4.5,4-6.9c0.5-1.2,0.9-2.5,1.2-3.7c0.3-1.2,0.4-2.5,0.2-3.7
				c-0.1-1.2-0.5-2.3-1.2-3.3c-0.7-1-1.6-1.8-2.7-2.5c-1.1-0.6-2.3-1.1-3.6-1.5c-1.3-0.3-2.6-0.5-4-0.7
				C569.7,47.7,567,47.8,564.2,47.9z" style="fill:#FECE2F;"/>
		</g>
		<g>
			<path d="M488.5,103.6l-0.3-0.5l-0.1-0.2l-0.1-0.3l-0.2-0.5l-0.1-0.6c-0.1-0.4-0.1-0.7-0.2-1.2c0-0.4,0-0.8,0-1.2
				c0.1-1.5,0.5-3.1,1-4.5c0.6-1.4,1.3-2.8,2.1-4.1l0.6-1l0.6-0.9c0.4-0.6,0.9-1.2,1.3-1.9c1.8-2.4,3.8-4.7,6-6.8
				c2.1-2.1,4.4-4.1,6.7-6c4.7-3.8,9.6-7.2,14.9-10.2c5.2-3,10.6-5.6,16.2-7.6c-5.2,3-10.2,6-15.2,9.3c-4.9,3.3-9.7,6.7-14.3,10.5
				c-4.6,3.7-8.9,7.7-12.8,12.1c-1.9,2.2-3.7,4.6-5,7.1c-0.7,1.3-1.2,2.6-1.5,4C487.8,100.7,487.8,102.2,488.5,103.6z" style="fill:#FECE2F;"/>
		</g>
	</g>
	<g>
		
			<ellipse transform="matrix(0.9046 -0.4262 0.4262 0.9046 6.6878 243.2322)" cx="546.8" cy="106.7" rx="32.8" ry="5.9" style="fill:#FECE2F;"/>
	</g>
	<g>
		<g>
			<path d="M568.7,90.6c0.4-0.2,0.8-0.3,1.2-0.5c0.4-0.1,0.8-0.3,1.2-0.4c0.8-0.3,1.6-0.5,2.4-0.7
				c0.8-0.2,1.7-0.3,2.6-0.4c0.9,0,1.8,0,2.8,0.2c0.5,0.1,1,0.4,1.5,0.7c0.5,0.4,0.9,0.9,1.1,1.5c0.2,0.6,0.2,1.2,0.1,1.8
				c-0.1,0.6-0.2,1-0.4,1.5c-0.7,1.8-1.9,3.1-3,4.4c-0.6,0.6-1.2,1.2-1.8,1.8c-0.6,0.6-1.3,1.2-1.9,1.7c-1.3,1.1-2.7,2.1-4.1,3
				c-2.8,1.9-5.7,3.5-8.8,4.8c2.5-2.2,5.1-4.3,7.6-6.4c2.5-2.1,4.9-4.3,7.1-6.6c0.5-0.6,1-1.2,1.5-1.8c0.4-0.6,0.9-1.2,1.2-1.9
				c0.3-0.6,0.4-1.2,0.3-1.6c0-0.2-0.1-0.3-0.3-0.5c-0.2-0.1-0.4-0.3-0.7-0.4c-0.6-0.3-1.4-0.4-2.1-0.4c-0.8-0.1-1.6-0.1-2.4,0
				C572,90.2,570.3,90.4,568.7,90.6z" style="fill:#FECE2F;"/>
		</g>
	</g>
	<g>
		<g>
			<path d="M349.4,187.9c-1.2,1.2-2.4,2.4-3.4,3.6c-0.5,0.6-1,1.2-1.5,1.9c-0.4,0.6-0.8,1.3-1,1.9
				c-0.1,0.3-0.1,0.6-0.1,0.8c0,0.2,0.1,0.4,0.2,0.5c0.2,0.3,0.8,0.6,1.5,0.7c0.7,0.1,1.4,0.3,2.2,0.3c0.8,0,1.6,0,2.4,0
				c3.2-0.1,6.4-0.7,9.6-1.2c3.2-0.6,6.5-1.2,9.8-1.8c-3,1.6-6.1,2.8-9.3,3.8c-1.6,0.5-3.2,0.9-4.9,1.2c-0.8,0.1-1.7,0.3-2.5,0.4
				c-0.9,0.1-1.7,0.2-2.6,0.2c-1.7,0.1-3.5,0-5.3-0.5c-0.4-0.1-0.9-0.3-1.4-0.6c-0.4-0.3-0.9-0.7-1.3-1.2s-0.5-1.2-0.5-1.8
				c0-0.6,0.2-1.1,0.4-1.6c0.4-0.9,1-1.6,1.6-2.3c0.6-0.6,1.3-1.2,1.9-1.7c0.7-0.5,1.4-1,2.1-1.4c0.4-0.2,0.7-0.4,1.1-0.6
				C348.6,188.3,349,188,349.4,187.9z" style="fill:#FFFFFF;"/>
		</g>
		<g>
			<path d="M410.9,164.7c-0.3-0.4-0.7-0.7-1.1-0.8c-0.4-0.1-0.9-0.2-1.4-0.2c-0.9,0-1.9,0-2.8,0.2
				c-1.9,0.3-3.7,0.7-5.6,1.1c-3.7,0.9-7.4,2-11,3.2c-3.6,1.2-7.3,2.4-10.9,3.6s-7.2,2.5-11,3.7c3.2-2.2,6.7-4,10.2-5.6
				c3.5-1.6,7.2-3,10.9-4.2c3.7-1.2,7.5-2.1,11.4-2.7c1.9-0.3,3.9-0.4,5.9-0.4c1,0,2,0.1,3,0.4c0.5,0.1,1,0.3,1.4,0.6
				C410.4,163.8,410.8,164.2,410.9,164.7z" style="fill:#FFFFFF;"/>
		</g>
	</g>
	<g>
		<polyline points="550.2,104 553.5,110.1 545.1,114.7 541.9,108.6 		" style="fill:#FFFFFF;"/>
		
			<ellipse transform="matrix(0.8768 -0.4809 0.4809 0.8768 13.6317 277.9908)" cx="549.3" cy="112.4" rx="4.7" ry="1.3" style="fill:#FFFFFF;"/>
		<path d="M541.9,108.6c-0.3-0.6,1.2-2.2,3.5-3.4c2.3-1.3,4.4-1.8,4.8-1.1" style="fill:#FFFFFF;"/>
	</g>
	<g>
		<polyline points="541.3,76.6 547.3,87 533.1,95.5 527,85.1 		" style="fill:#FFFFFF;"/>
		<ellipse transform="matrix(0.8596 -0.5109 0.5109 0.8596 29.204 288.731)" cx="540.1" cy="91.2" rx="8.2" ry="2.3" style="fill:#FFFFFF;"/>
		<path d="M527,85.1c-0.6-1.1,2-3.8,5.9-6.2c3.9-2.3,7.6-3.3,8.2-2.2" style="fill:#FFFFFF;"/>
	</g>
	<g>
		
			<ellipse transform="matrix(0.9569 -0.2905 0.2905 0.9569 -28.2769 113.7191)" cx="368.9" cy="152.1" rx="49.4" ry="16.3" style="fill:#FFFFFF;"/>
	</g>
	<g>
		<path d="M356.3,167c5.8-1.3,11.4-2.9,16.9-4.9c5.5-1.9,10.9-4.2,16-6.9c2.5-1.4,5-2.9,7.3-4.6
			c1.2-0.9,2.2-1.8,3.2-2.8c1-1,1.8-2.1,2.4-3.2c0.3-0.6,0.4-1.2,0.5-1.8c0-0.6-0.1-1.1-0.4-1.6c-0.3-0.5-0.7-1-1.2-1.4
			c-0.5-0.4-1.1-0.7-1.8-1c-1.3-0.6-2.7-1-4.1-1.3c-1.4-0.3-2.9-0.5-4.3-0.7c1.5-0.1,2.9-0.1,4.4,0c0.7,0,1.5,0.1,2.2,0.3
			c0.4,0.1,0.7,0.1,1.1,0.2c0.4,0.1,0.7,0.2,1.1,0.3c0.7,0.3,1.5,0.6,2.1,1c0.7,0.4,1.3,1,1.8,1.8c0.5,0.7,0.8,1.6,0.8,2.5
			s-0.2,1.8-0.5,2.5c-0.3,0.8-0.7,1.5-1.1,2.2c-0.4,0.7-0.9,1.3-1.5,1.9c-1,1.2-2.2,2.2-3.4,3.1c-1.2,0.9-2.4,1.8-3.7,2.7
			c-1.3,0.8-2.6,1.6-3.9,2.3c-2.7,1.4-5.4,2.7-8.1,3.8c-2.8,1.1-5.6,2.1-8.5,2.8C368.1,165.7,362.2,166.8,356.3,167z" style="fill:#FECE2F;"/>
	</g>
	<g>
		<path d="M376.5,138.8c-4.6,1.4-9.1,2.9-13.6,4.6c-4.4,1.7-8.8,3.6-13,5.9c-1,0.6-2.1,1.1-3.1,1.8
			c-1,0.6-2,1.2-2.9,1.9c-1.9,1.3-3.7,2.8-5.2,4.5c-0.3,0.4-0.7,0.9-0.9,1.3c-0.1,0.2-0.3,0.5-0.3,0.7l-0.1,0.4l-0.1,0.4
			c-0.3,1-0.1,1.9,0.6,2.8c0.6,0.9,1.6,1.5,2.7,2c0.5,0.3,1.1,0.5,1.6,0.7c0.6,0.2,1.1,0.4,1.7,0.6c-1.2,0-2.4-0.2-3.6-0.6
			c-0.6-0.1-1.2-0.4-1.8-0.7c-0.6-0.3-1.1-0.7-1.6-1.2c-0.5-0.5-0.9-1.1-1.1-1.8c-0.2-0.7-0.3-1.4-0.2-2.1c0.2-1.4,0.8-2.6,1.5-3.7
			c0.7-1.1,1.6-2,2.5-2.9c0.9-0.9,1.9-1.7,2.8-2.4c2-1.5,4.1-2.8,6.2-4c4.3-2.3,8.9-4.1,13.5-5.5
			C366.9,140.1,371.7,139.1,376.5,138.8z" style="fill:#FECE2F;"/>
	</g>
	<g>
		<path d="M324.9,151.7c-0.9,1-1.9,2.1-2.8,3.1c-0.9,1-1.7,2.1-2.5,3.2c-0.7,1.1-1.5,2.2-2.1,3.4
			c-0.6,1.2-1,2.4-1.2,3.5c-0.2,1.2-0.2,2.4,0.1,3.4c0.3,1.1,0.8,2.1,1.6,2.9c0.8,0.8,1.7,1.6,2.8,2.2s2.2,1.1,3.4,1.5
			c2.4,0.8,5,1.3,7.7,1.7c2.7,0.3,5.3,0.5,8.1,0.6c5.5,0.1,10.9-0.1,16.5-0.5c-5.3,1.8-10.8,2.9-16.4,3.4c-2.8,0.2-5.7,0.2-8.5,0
			c-1.4-0.1-2.8-0.3-4.3-0.6c-1.4-0.3-2.8-0.6-4.3-1.1c-1.4-0.5-2.8-1.1-4.1-1.9c-1.3-0.8-2.6-1.8-3.6-3c-1-1.3-1.8-2.8-2.1-4.4
			c-0.3-1.6-0.1-3.3,0.3-4.8c0.4-1.5,1.1-2.8,1.9-4.1c0.8-1.2,1.8-2.3,2.8-3.4c1-1,2.1-2,3.2-2.8c0.6-0.4,1.1-0.8,1.7-1.2
			C323.8,152.4,324.3,152.1,324.9,151.7z" style="fill:#FFFFFF;"/>
	</g>
	<g>
		<path d="M417,132.5l-0.3-0.5l-0.1-0.2l-0.1-0.2l-0.3-0.4l-0.4-0.4c-0.2-0.3-0.5-0.5-0.8-0.7c-0.3-0.2-0.6-0.4-0.9-0.6
			c-1.3-0.7-2.6-1.1-4-1.5c-2.8-0.6-5.7-0.8-8.6-0.8c-5.8,0-11.6,0.6-17.4,1.5c-5.8,0.9-11.5,2.1-17.3,3.5c-5.7,1.4-11.4,3-17.2,4.7
			c5.2-3.1,10.7-5.5,16.4-7.4c5.7-1.9,11.5-3.4,17.5-4.4c6-0.9,12.1-1.3,18.1-0.8c3,0.3,6.1,0.9,9,2c1.4,0.6,2.8,1.3,4,2.3
			c0.3,0.3,0.6,0.5,0.9,0.8c0.3,0.3,0.5,0.6,0.7,0.9c0.1,0.1,0.2,0.3,0.3,0.5l0.2,0.5l0.1,0.3l0.1,0.3L417,132.5z" style="fill:#FFFFFF;"/>
	</g>
	<g>
		<polyline points="360.7,153.9 364.2,165.4 380.1,160.8 376.6,149.3 		" style="fill:#FFFFFF;"/>
		<ellipse transform="matrix(0.961 -0.2764 0.2764 0.961 -30.5545 109.2081)" cx="372.1" cy="163" rx="8.2" ry="2.3" style="fill:#FFFFFF;"/>
		<g>
			<path d="M376.6,149.3c-0.3-1.2-4.2-1.2-8.5,0.1c-4.4,1.3-7.7,3.2-7.3,4.5" style="fill:#FFFFFF;"/>
			<path d="M554.5,109.6l-3.2-6.1c-0.1-0.2-0.2-0.3-0.4-0.4c-1.4-1.2-4.9,0.5-6,1.1c-1.2,0.6-4.9,2.9-4,4.8
				c0,0,0,0.1,0,0.1l0.4,0.7L491.7,132l-1.9-5.2L530.3,93l1.8,3c0.1,0.1,0.2,0.2,0.3,0.3c0.4,0.4,1.1,0.6,1.8,0.6
				c2.8,0,7.1-2.5,7.7-2.8c0.7-0.4,6.8-4.1,6.6-6.9c0-0.3,0-0.5-0.1-0.7l-6-10.4c-0.1-0.2-0.3-0.4-0.5-0.4c-0.7-0.6-2-0.6-3.7-0.2
				c-1.6,0.4-3.7,1.3-5.6,2.5c-2,1.2-3.7,2.5-4.9,3.7c-1.5,1.5-1.9,2.8-1.5,3.8c0,0.1,0,0.1,0.1,0.2l2.2,3.8l-41.8,28.2l-0.7-1.9
				c-0.5-1.4-1.6-2.5-2.9-3.2c-1.4-0.6-2.9-0.7-4.3-0.1l-12,4.4l-0.6-1.6c-2.6-6.9-10.4-10.5-17.4-7.8s-10.5,10.4-7.8,17.4l0.6,1.4
				l-11.3,4.2c-1.4,0.5-2.5,1.6-3.2,2.9c-0.6,1.4-0.7,2.9-0.1,4.3l1.6,4.3L379,153.3l-1.3-4.2c0-0.1,0-0.1-0.1-0.2v0l0,0
				c-0.4-1-1.7-1.5-3.8-1.5c-1.7,0-3.9,0.4-6.1,1c-0.9,0.3-7.9,2.4-8.1,5.2c-0.1,0.2-0.1,0.4,0,0.7l3.4,11.5
				c0.1,0.3,0.3,0.5,0.4,0.6c0.6,0.6,1.7,1,3.3,1c0,0,0.1,0,0.1,0c1.7,0,3.9-0.4,6.1-1c2.2-0.6,4.2-1.5,5.7-2.4c1.6-1,2.4-2,2.4-2.9
				c0-0.1,0-0.3,0-0.4l-1-3.3l51.3-6.3l2.3,6.2l-46.9,21.3l-0.2-0.6c0,0,0-0.1,0-0.1c-0.8-2-5-0.8-6.3-0.4c-1.2,0.4-4.8,1.7-4.9,3.5
				c0,0.2,0,0.4,0,0.6l2.2,6.6c0.1,0.3,0.2,0.4,0.4,0.6c0.5,0.4,1.2,0.6,2.1,0.6c1.5,0,3.1-0.5,3.8-0.7c1.3-0.4,2.5-0.9,3.4-1.5
				c1-0.7,1.6-1.4,1.6-2.1c0,0,0-0.1,0-0.1v0c0-0.1,0-0.2,0-0.3l-1-3.1l48.1-18.4l1.9,5c0.9,2.3,3,3.7,5.3,3.7
				c0.6,0,1.3-0.1,1.9-0.3l48.5-18c2.9-1.1,4.4-4.3,3.3-7.2l-2.8-7.5c0-0.1-0.1-0.3-0.1-0.4l48.7-25.5l1.5,2.8
				c0,0.1,0.1,0.2,0.2,0.3c0.3,0.4,0.8,0.6,1.5,0.6c0.3,0,0.7,0,1.2-0.1c1-0.2,2.2-0.7,3.4-1.4c1.2-0.7,2.3-1.4,3-2.1
				c0.8-0.7,1.2-1.5,1.2-2.1C554.6,110,554.6,109.8,554.5,109.6z M546,87.7c-0.4,0.8-2.2,2.6-5.4,4.5c-3.2,1.9-5.6,2.5-6.5,2.5l0,0
				c0.4-0.8,2.2-2.6,5.4-4.5C542.7,88.3,545.1,87.7,546,87.7C546,87.7,546,87.7,546,87.7z M528,84.5L528,84.5L528,84.5
				C528,84.5,528,84.6,528,84.5L528,84.5z M528.1,84.7c0.1-0.6,1.9-2.7,5.5-4.8c3.7-2.2,6.3-2.7,6.9-2.5c0,0-0.1,0-0.1-0.1l0.1,0
				l4.8,8.3c-2.7,0.4-6.2,2.4-6.8,2.8c-0.6,0.3-3.9,2.4-5.6,4.5L528.1,84.7z M375.6,149.6L375.6,149.6L375.6,149.6
				C375.6,149.6,375.6,149.6,375.6,149.6L375.6,149.6z M361.8,153.6L361.8,153.6c0.1,0.1,0.1,0.1,0.1,0.2c0.2-0.5,2.4-2.1,6.5-3.3
				c4-1.2,6.6-1,7.2-0.7l2.7,9c-2.7-0.3-6.5,0.8-7.1,1c-2.2,0.6-4.2,1.5-5.7,2.4c-0.4,0.2-0.7,0.4-1,0.7L361.8,153.6z M372.5,164.1
				c-3.6,1-6.1,1-7,0.8c0.6-0.7,2.7-2,6.3-3c3.6-1,6.1-1,7-0.8C378.2,161.8,376,163.1,372.5,164.1z M383.3,186.2
				c-0.9,0.3-1.7,0.4-2.3,0.5c0.6-0.3,1.3-0.6,2.2-0.9c0.9-0.3,1.7-0.4,2.3-0.5C384.9,185.6,384.1,185.9,383.3,186.2z M382.5,183.7
				c-0.7,0.2-2.2,0.7-3.4,1.5l-1.4-4.3c0.3-0.3,1.5-1.1,3.3-1.6c1.8-0.6,3.1-0.7,3.6-0.6l0.2,0.5l-1.1,0.5c-0.6,0.3-0.9,1-0.7,1.7
				l0,0c0.1,0.3,0.4,0.6,0.7,0.8c0.2,0.1,0.4,0.1,0.6,0.1s0.3,0,0.5-0.1l0.9-0.3l0.4,1.1C385,183,383.7,183.3,382.5,183.7z
				 M443.4,125.4l-0.6-1.5c-2.2-5.8,0.7-12.3,6.5-14.4c1.3-0.5,2.7-0.7,4-0.7c4.5,0,8.8,2.8,10.5,7.2l0.6,1.6L443.4,125.4z
				 M549.4,112.5c-0.8,0.4-1.6,0.8-2.2,1c0.5-0.4,1.2-0.9,2-1.3c0.8-0.4,1.6-0.8,2.2-1C550.9,111.6,550.2,112.1,549.4,112.5z
				 M551.5,108.8c-1,0.2-2.2,0.7-3.4,1.4c-1.2,0.6-2.2,1.4-2.9,2.1l-0.5-1l0.9-0.5c0.3-0.2,0.6-0.4,0.7-0.8s0.1-0.7-0.1-1l0,0
				c-0.3-0.6-1.1-0.9-1.7-0.6l-1.1,0.5l-0.3-0.5c0.3-0.4,1.3-1.3,2.9-2.2c1.7-0.9,3-1.3,3.5-1.3L551.5,108.8
				C551.5,108.8,551.5,108.8,551.5,108.8z" style="fill:#1A1A1A;"/>
			<path d="M491.8,138.5l-3.8-10.2l-11.7,9.7c0,0-0.8,0.6-1.9,0.6c-1,0-2.4-0.4-3.7-2.2c-0.1-0.1-0.1-0.2-0.2-0.3
				c-1-1.3-1.3-3-1-4.6c0.3-1.7,1.3-3.2,2.7-4.1l12.5-8.4l-0.9-2.4c-0.3-0.9-0.9-1.5-1.8-1.9c-0.4-0.2-0.9-0.3-1.4-0.3
				c-0.4,0-0.8,0.1-1.2,0.2l-48.5,18c-0.9,0.3-1.5,0.9-1.9,1.8c-0.4,0.8-0.4,1.8-0.1,2.6l1.7,4.6l14.6-3.3c1.7-0.4,3.4-0.1,4.9,0.9
				s2.4,2.3,2.7,4c0,0.1,0,0.2,0.1,0.4c0.7,4.6-2.6,5.2-2.7,5.2l-16.2,2l3.1,8.3c0.3,0.9,0.9,1.5,1.8,1.9s1.8,0.4,2.6,0.1l48.5-18
				C491.5,142.2,492.4,140.3,491.8,138.5z" style="fill:#FFFFFF;"/>
		</g>
	</g>
</g>
<g>
	<g>
		<polygon points="522.5,230.5 500.8,249.5 471.9,247.3 455.4,197.7 478.4,182.2 506.1,180.9 		" style="fill:#FFFFFF;"/>
	</g>
	<g>
		<g>
			<polygon points="460.3,211.3 471.9,247.3 500.8,249.5 522.5,230.5 516.2,211.3 			" style="fill:#E6E6E6;"/>
		</g>
		<g>
			<path d="M468.7,235.2l2.8,8.4c2.2-0.8,3.4-3.2,2.7-5.5S470.9,234.5,468.7,235.2z" style="fill:#FFFFFF;"/>
		</g>
		<g>
			<circle cx="480.8" cy="230.6" r="4.9" style="fill:#FFFFFF;"/>
		</g>
		<g>
			<circle cx="471.5" cy="218.1" r="4.9" style="fill:#FFFFFF;"/>
		</g>
		<g>
			<circle cx="487.4" cy="241.1" r="3" style="fill:#FFFFFF;"/>
		</g>
		<g>
			<circle cx="484.4" cy="213.1" r="3" style="fill:#FFFFFF;"/>
		</g>
		<g>
			<circle cx="493.3" cy="215.2" r="2.2" style="fill:#FFFFFF;"/>
		</g>
		<g>
			<circle cx="506.2" cy="210.9" r="2.2" style="fill:#FFFFFF;"/>
		</g>
		<g>
			<circle cx="495.5" cy="226.8" r="4" style="fill:#FFFFFF;"/>
		</g>
		<g>
			<circle cx="504.2" cy="235.5" r="2.8" style="fill:#FFFFFF;"/>
		</g>
		<g>
			<circle cx="510" cy="222.9" r="3.8" style="fill:#FFFFFF;"/>
		</g>
		<g>
			<circle cx="501.7" cy="220" r="1.9" style="fill:#FFFFFF;"/>
		</g>
	</g>
	<path d="M523.6,230.1l-16.4-49.6c-0.1-0.5-0.6-0.8-1.1-0.8l-22.7,1.1c0-1.8-0.9-3.4-2.3-4.4l13.2-29.4
		c0.3-0.6,0-1.2-0.6-1.5s-1.2,0-1.5,0.6L479,175.5c-0.4-0.1-0.8-0.1-1.2-0.1c-1.9,0-3.5,0.9-4.5,2.3l-30.2-13.5
		c-0.6-0.3-1.2,0-1.5,0.6c-0.3,0.6,0,1.2,0.6,1.5l30.2,13.5c-0.1,0.4-0.1,0.8-0.1,1.2c0,1.2,0.4,2.4,1.1,3.3l-18.6,12.5
		c-0.4,0.3-0.6,0.8-0.4,1.3l16.4,49.6c0.1,0.4,0.5,0.7,1,0.7l28.9,2.2c0,0,0.1,0,0.1,0c0.3,0,0.5-0.1,0.7-0.3l21.8-19
		C523.6,231,523.7,230.6,523.6,230.1z M500.4,248.3l-27.7-2.1l-15.9-48.1l18.4-12.4c0.8,0.4,1.7,0.7,2.7,0.7c2.3,0,4.2-1.4,5.1-3.3
		l22.4-1l15.9,48.1L500.4,248.3z" style="fill:#191919;"/>
</g>
<g>
	<g>
		<path d="M582.3,342.9l14.5,7c0,0-14.9,14.8-19.9,23l-18-13.5c0,0-13.4,11.5-22.8,7.7s-13.6-12.9-14-24.1l-1.4-12.1
			c0,0,0.1-15.6,11.5-20.4c11.3-4.9,39.6,13.9,39.6,13.9l8.5,12.3L582.3,342.9z" style="fill:#FECE2F;"/>
	</g>
	<g>
		<path d="M540.4,368.6c-2.1,0-4.1-0.3-6.1-1c-5.5-1.9-9.5-7-11.7-14.7c-1.6-5.7-1.7-10.8-1.7-11c0-0.6,0.5-1.1,1.1-1.1
			s1.1,0.5,1.1,1.1c0,0.2,0.4,19.6,11.9,23.6c9.9,3.5,22.6-4.1,29.4-13c0.4-0.5,1.1-0.6,1.6-0.2c0.5,0.4,0.6,1.1,0.2,1.6
			c-3.6,4.7-8.7,9-13.9,11.6C548.2,367.5,544.2,368.6,540.4,368.6z" style="fill:#1A1A1A;"/>
	</g>
	<g>
		<path d="M520.7,331.9C520.6,331.9,520.6,331.9,520.7,331.9c-0.7,0-1.2-0.6-1.1-1.2c0.8-13.2,9.7-19.9,10-20.1
			c0.5-0.4,1.2-0.3,1.6,0.2c0.4,0.5,0.3,1.2-0.2,1.6l0,0c-0.1,0.1-8.4,6.3-9.1,18.4C521.7,331.4,521.2,331.9,520.7,331.9z" style="fill:#1A1A1A;"/>
	</g>
	<g>
		<path d="M522,276.6c5.7-8.7,20.5-13.1,36.8-3.2c0,0,18.6-16.4,35.2-1.1c16.6,15.3,4.3,33.2,4.3,33.2
			s12.7,2.1,4.4,20.7c-8.3,18.7-28.1,20.2-29.6,17.5s4.6-10.2-2.5-13.2c-7.1-3-11.5,11.9-14.3,8.7c-2.9-3.2,2-9.3-6-13.1
			C542.4,322.5,505.4,301.9,522,276.6z" style="fill:#1A1A1A;"/>
	</g>
	<g>
		<g>
			<g>
				
					<ellipse transform="matrix(0.2304 -0.9731 0.9731 0.2304 77.1475 749.0063)" cx="512.1" cy="325.7" rx="2.7" ry="8.7" style="fill:#FFFFFF;"/>
			</g>
			<path d="M513,322c-3.5-0.8-9.7-1.5-10.4,1.5c-0.7,2.9,5.1,5.2,8.6,6c1.9,0.4,3.8,0.7,5.4,0.7c0.4,0,0.7,0,1,0
				c2.9-0.2,3.7-1.3,3.9-2.1C522.3,325,516.5,322.8,513,322z M511.7,327.3c-0.1,0-0.3-0.1-0.4-0.1c0.3-0.6,0.6-1.2,0.7-1.9
				c0.1-0.4,0.1-0.7,0.2-1.2c0.1,0,0.1,0,0.2,0c4.4,1,6.6,2.7,6.9,3.3C518.9,327.9,516.2,328.3,511.7,327.3z" style="fill:#1A1A1A;"/>
		</g>
		<g>
			<path d="M510.2,341.6c-0.7,0-1.4-0.1-2.1-0.2c-6.3-1.4-10-9-8.2-16.8c0.9-3.8,2.8-7.1,5.5-9.3c2.8-2.3,6-3.1,9.1-2.5
				c3.1,0.7,5.7,2.9,7.2,6.1c1.5,3.1,1.9,6.9,1,10.7C521.2,336.6,515.8,341.6,510.2,341.6z M512.4,314.8c-1.9,0-3.8,0.7-5.6,2.2
				c-2.3,1.9-4,4.7-4.7,8c-1.5,6.7,1.4,13,6.5,14.1c5.1,1.2,10.5-3.4,11.9-10c0.7-3.3,0.4-6.6-0.9-9.3c-1.2-2.6-3.2-4.3-5.7-4.9
				C513.5,314.9,513,314.8,512.4,314.8z" style="fill:#1A1A1A;"/>
		</g>
	</g>
	<g>
		<path d="M536.2,354.2c-0.3,0-0.6,0-0.9,0c-0.6,0-1.1-0.6-1-1.2c0-0.6,0.6-1.1,1.2-1c1.8,0.1,3.3-0.3,4.4-1.2
			c1.9-1.6,2.1-4.5,2.1-4.5c0-0.6,0.6-1.1,1.2-1c0.6,0,1.1,0.6,1,1.2c0,0.1-0.3,3.7-2.9,6C540,353.6,538.3,354.2,536.2,354.2z" style="fill:#1A1A1A;"/>
	</g>
	<path d="M570.3,334.5L570.3,334.5c-0.1-0.1-0.1-0.1-0.1-0.1c-1.8-1.8-4.3-1.5-4.4-1.5c-0.6,0.1-1,0.6-1,1.2
		s0.6,1,1.2,1c0,0,0.9-0.1,1.7,0.3l-3.4,4c-0.4,0.5-0.3,1.2,0.1,1.6c0.2,0.2,0.5,0.3,0.7,0.3c0.3,0,0.6-0.1,0.9-0.4l3.2-3.8
		c0.4,0.9,0.5,2.1,0.3,3.6c-0.1,0.6,0.4,1.2,1,1.2c0,0,0.1,0,0.1,0c0.6,0,1-0.4,1.1-1C572.1,338.1,571.6,335.9,570.3,334.5z" style="fill:#1A1A1A;"/>
	<g>
		<g>
			
				<ellipse transform="matrix(0.2304 -0.9731 0.9731 0.2304 88.1851 771.7954)" cx="532" cy="330.1" rx="2.7" ry="8.7" style="fill:#FFFFFF;"/>
		</g>
		<path d="M539,328.7c-1.6-0.9-3.7-1.8-6.1-2.3s-4.7-0.8-6.5-0.7c-2.9,0.2-3.7,1.3-3.9,2.1c-0.2,0.9,0.1,2.2,2.5,3.7
			c1.6,0.9,3.7,1.8,6.1,2.3c1.9,0.4,3.8,0.7,5.5,0.7c0.4,0,0.7,0,1,0c2.9-0.2,3.7-1.3,3.9-2.1C541.8,331.5,541.5,330.2,539,328.7z
			 M531.7,331.7c-0.1,0-0.3-0.1-0.4-0.1c0.3-0.6,0.6-1.2,0.7-1.9c0.1-0.4,0.1-0.7,0.2-1.2c0.1,0,0.1,0,0.2,0c4.4,1,6.6,2.7,6.9,3.3
			C538.8,332.3,536.1,332.8,531.7,331.7z" style="fill:#1A1A1A;"/>
	</g>
	<g>
		<path d="M520.3,331.6c0,0-11,3.4-9.2,7c1.9,3.6,10.9,4.6,10.9,4.6L520.3,331.6z" style="fill:#FECE2F;"/>
	</g>
	<g>
		<path d="M522,344.3c0,0-0.1,0-0.1,0c-0.1,0-2.4-0.3-4.9-1c-3.6-1-5.9-2.5-6.8-4.2c-0.4-0.8-0.4-1.6-0.1-2.5
			c1.4-3.4,9-6.1,10.6-6.6c0.6-0.2,1.2,0.1,1.4,0.7s-0.1,1.2-0.7,1.4c-5.9,2-8.8,4.3-9.2,5.3c-0.1,0.3-0.1,0.4,0,0.6
			c1.2,2.2,6.8,3.7,10,4c0.6,0.1,1,0.6,1,1.2C523.1,343.9,522.6,344.3,522,344.3z" style="fill:#1A1A1A;"/>
	</g>
	<g>
		<path d="M530.2,347.9c-0.7,0-1.4-0.1-2.1-0.2c-3.1-0.7-5.7-2.9-7.2-6.1c-1.5-3.1-1.9-6.9-1-10.7
			c1.8-7.9,8.3-13.1,14.6-11.7c6.3,1.4,10,9,8.2,16.8l0,0C541.2,342.9,535.8,347.9,530.2,347.9z M532.4,321.1
			c-4.6,0-9,4.2-10.3,10.2c-0.7,3.3-0.4,6.6,0.9,9.3c1.2,2.6,3.2,4.3,5.7,4.9c5.1,1.2,10.5-3.4,11.9-10c1.5-6.7-1.4-13-6.5-14.1
			C533.5,321.2,532.9,321.1,532.4,321.1z M541.6,335.7L541.6,335.7L541.6,335.7z" style="fill:#1A1A1A;"/>
	</g>
	<g>
		<path d="M597.4,348.8l-12.2-7c-0.5-0.3-1.2-0.1-1.5,0.4c-0.3,0.5-0.1,1.2,0.4,1.5l12.2,7c0.2,0.1,0.4,0.1,0.6,0.1
			c0.4,0,0.8-0.2,1-0.6C598.1,349.8,597.9,349.2,597.4,348.8z" style="fill:#1A1A1A;"/>
		<path d="M577.5,371.9l-8.5-6.3c-2.4-1.8-1.4-6,0.2-8.2c1-1.3,1.2-2.8,0.7-4c-0.5-1.1-1.6-1.8-2.8-1.9
			c-1.3-0.1-2.7,0.5-3.5,1.8c-2.4,3.5-4.7,5.2-4.7,5.2c-0.2,0.1-0.4,0.4-0.4,0.6c0,0.2-0.1,0.4,0,0.6c-0.1,0.4,0,0.9,0.4,1.2
			l2.9,2.2c1.4,1.1,3.3,2.5,5.9,4.4l8.4,6.3c0.2,0.1,0.4,0.2,0.7,0.2c0.3,0,0.7-0.1,0.9-0.4C578.1,372.9,578,372.2,577.5,371.9z" style="fill:#1A1A1A;"/>
	</g>
	<g>
		<g>
			<path d="M532.8,304.3c-0.3,0-0.7-0.1-0.9-0.4c-9.4-12-5.2-21.3-5-21.7c0.3-0.6,0.9-0.8,1.5-0.5s0.8,0.9,0.6,1.5
				c-0.1,0.4-3.7,8.5,4.7,19.4c0.4,0.5,0.3,1.2-0.2,1.6C533.2,304.2,533,304.3,532.8,304.3z" style="fill:#FFFFFF;"/>
		</g>
		<g>
			<path d="M540,304.3c-0.3,0-0.6-0.1-0.8-0.3c-6.4-6.6-5.1-14-5-14.3c0.1-0.6,0.7-1,1.3-0.9c0.6,0.1,1,0.7,0.9,1.3
				c0,0.3-1.1,6.5,4.5,12.3c0.4,0.4,0.4,1.2,0,1.6C540.6,304.2,540.3,304.3,540,304.3z" style="fill:#FFFFFF;"/>
		</g>
	</g>
</g>
<g>
	<path d="M467.9,519.8V508c0-0.6-0.5-1.1-1.1-1.1s-1.1,0.5-1.1,1.1v11.8c0,0.6,0.5,1.1,1.1,1.1S467.9,520.4,467.9,519.8
		z" style="fill:#1A1A1A;"/>
	<path d="M688.5,453.3c-1.8-13.7-6.6-33.9-18.9-52.5s-31.3-31.8-45.2-39.6c-15-8.4-27.2-12.5-27.3-12.5
		c-0.4-0.1-0.8,0-1.1,0.2c-16.1,14-27,31.1-34.1,53.9c0,0.1-0.1,0.2-0.1,0.3c-2,6.6-3.7,13.6-5.2,21.2c-3.9,20.6-8,28.1-22.3,40.2
		c-14.4,12.2-67.6,34.7-68.2,34.9c-0.5,0.2-8.1,3.4-8.7,9.1c-0.1,0.6,0.4,1.2,1,1.2c0,0,0.1,0,0.1,0c0.6,0,1-0.4,1.1-1
		c0.5-4.5,7.3-7.3,7.4-7.3l0,0l0,0c2.2-0.9,54.1-22.8,68.7-35.3c14.6-12.4,19.1-20.5,23-41.5c1.3-7.2,3-14,4.9-20.3
		c4.9,0.1,31.3,2,62.6,27.1c-6.5,16.6-16.5,35.6-30.4,45.5c-30.8,22-108.2,32.3-109,32.4c0,0,0,0-0.1,0s-0.1,0-0.1,0
		c0,0-0.1,0-0.1,0c0,0-0.1,0-0.1,0c0,0-0.1,0-0.1,0c0,0-0.1,0-0.1,0.1c0,0,0,0-0.1,0.1s0,0-0.1,0.1c0,0,0,0-0.1,0.1
		c0,0,0,0.1-0.1,0.1c0,0,0,0.1,0,0.1c0,0,0,0.1,0,0.1c0,0,0,0.1,0,0.1c0,0,0,0,0,0.1c-0.4,3.7-1.9,9.3-3.7,9.7c-0.5,0.1-1,0-1.3-0.2
		c1.6-2.3,2-5.3,2.1-5.5c0.1-0.6-0.4-1.2-1-1.3c-0.6-0.1-1.2,0.4-1.3,1c-0.1,1.1-0.9,4.3-2.8,5.6c-0.3,0.2-0.6,0.4-1,0.4
		c0.8-1.7,1.3-4.1,1.6-7.6c0-0.6-0.4-1.2-1-1.2c-0.6,0-1.2,0.4-1.2,1c-0.3,4.3-1.1,7-2.2,8c-0.6,0.5-1.9,0.6-3,0.4
		c2.1-3.8,1.9-9.3,1.9-9.6c0-0.6-0.5-1.1-1.2-1.1c-0.6,0-1.1,0.5-1.1,1.2c0.1,1.8-0.3,7.2-2.4,9.5c-0.5,0.6-1,0.8-1.6,0.8
		c-1.2-0.1-2.5-1.6-2.9-2.1c-0.3-0.5-1-0.6-1.6-0.3c-0.5,0.3-0.6,1-0.3,1.6c0.2,0.3,2.1,2.9,4.6,3.1c0.1,0,0.2,0,0.3,0
		c0.7,0,1.6-0.2,2.6-1c0.6,0.1,1.6,0.3,2.6,0.3c1,0,2.2-0.2,3-0.7c0.3,0,0.6,0.1,0.9,0.1c1.2,0,2.2-0.3,3.2-1l0,0
		c0.6,0.5,1.5,0.9,2.5,0.9c0.3,0,0.7,0,1-0.1c3.4-1,4.7-8,5.2-10.8c4-0.6,21.7-3.1,42.2-7.8c16.9-3.8,31.3-8.1,43-12.7l0.9,11.4
		c0,0.9,2.6,44.2,16.7,81.3c12.9,34,28.8,89,31.9,101c1.8,7.6,1.2,12,0.4,13.1c-2.2,3-6.5,2.8-6.5,2.8h0h0c-0.3,0-6.5,0.3-12.8,2.4
		c-8.7,2.8-13.2,7.8-13.2,14.2c0,0.6,0.5,1.1,1.1,1.1H610h3.3h9.4h21.7h28.3l0,0l0,0h4c0.6,0,1.1-0.5,1.1-1.1s-0.5-1.1-1.1-1.1h-1.2
		c1.2-3-0.4-8.2-2.3-13.7c-0.1-0.3-0.2-0.7-0.3-1c-0.4-1.3-0.8-2.7-1.1-4l-1-11.8h7.7c0.3,0,0.6-0.1,0.8-0.4
		c0.2-0.2,0.3-0.5,0.3-0.9c-1.1-13.1-1.7-30.6-1.6-49.6l0-3.3c0-2.4,0.1-4.7,0.1-7.1c0.1-3.1,0.2-9,0.4-15.7
		c0.8-21.7,2.5-43.3,5.1-60.7c5.8-38.4,6-68.1,6-69.4C689.7,478,690.5,467.7,688.5,453.3z M593,583.1c-12.7-33.5-15.9-72-16.5-79.4
		c4.7,0.4,9.3,0.6,13.7,0.7c0.2,27.8,21.8,80.3,33.6,108.7c0.7,1.7,1.4,3.3,2,4.8c9.9,24.1,16.9,58.5,18.3,65.7h-19.4
		C621.3,670,605.7,616.5,593,583.1z M638.3,700.8L638.3,700.8L638.3,700.8c-0.3,0-6.5,0.3-12.8,2.4c-1.4,0.5-2.8,1-4,1.6
		c-0.5-0.8-1.1-1.5-1.7-2.1c1.7-0.4,3.7-1.4,5.2-3.3c1.4-1.8,1.3-5.7,1-9c2.9-0.2,13.3-0.6,17.8,3.5c1.3,1.2,1.9,2.7,2,4.5
		C643.4,700.9,638.4,700.8,638.3,700.8z M670.8,702.3c0.1,0.3,0.2,0.6,0.3,1c1.2,3.5,3.5,9.9,2.2,12.3c-0.2,0.3-0.4,0.6-0.8,0.7h-27
		c0-1.3,0-3.4-0.4-5.7c-0.6-3.4-1.9-6-3.7-7.8c2.1-0.4,4.6-1.3,6.2-3.4c0,0,0,0,0,0c0,0,0,0,0,0c1.3-1.9,1.1-5.5,0.4-8.8
		c0.7,0.1,1.4,0.2,2.2,0.3c6.6,0.7,17.6,2,19.1,7.3C669.9,699.5,670.4,700.9,670.8,702.3z M681.4,547.9c-0.1,1-0.3,2.1-0.4,3.2
		c-2.3,7.3-7,17.4-10.2,16.9c-1.8-0.2-3.7-1-5.6-1.9c-3.7-1.5-7.8-3.3-10.7,0c-4,4.5-0.4,10.1,5.5,19.4c1.6,2.5,3.4,5.4,5.4,8.6
		c8.7,14.5,10.4,44.9,10.4,45.2c0,0,0,0.1,0,0.1c0,16.7,0.5,32.1,1.5,44h-30.7c-1.2-6.1-8.4-41.7-18.6-66.5c-0.6-1.5-1.3-3.1-2-4.8
		c-11.6-28.2-33.2-80.4-33.4-107.8c1.2,0,2.5,0,3.7,0c29.5,0,51.3-5.4,65.2-10.4c13.9-5,22.4-10.5,25.9-13
		C687.2,488.8,686.4,515.1,681.4,547.9z M687.4,478.2c-1.8,1.4-10.6,7.9-26.7,13.7c-30.1,10.9-62.2,11.2-84.3,9.5l-0.9-11.2
		c8.9-3.6,16.2-7.4,21.8-11.4c0.9-0.6,1.8-1.3,2.7-2.1c9.6-0.7,16.6-5.1,21.5-13.2c4.1-6.8,5.9-15,7.3-21.6c0.2-1,0.4-2,0.6-2.9
		c1.6-7.2,5.2-9.8,9-12.5c2.6-1.9,5.3-3.8,7.2-7.3c5.1-8.9,5-18.3-0.3-22.2c-2.2-1.6-4.1-2.1-5.8-1.5c-2.6,1-3.4,4.3-3.4,4.5
		l-0.3,1.1c-0.8,3.5-3.6,14.9-8.6,28.1c-18-14.3-34.3-21-44.9-24c-8.8-2.5-15.1-3.1-17.8-3.1c6.9-21.5,17.3-37.7,32.5-51.1
		c2.6,0.9,13.5,4.9,26.4,12.2c24.6,13.8,37.7,28.7,44.3,38.8c12,18.3,16.7,38.1,18.5,51.5C688,466.4,687.6,476,687.4,478.2z" style="fill:#1A1A1A;"/>
</g>
</svg>
