<svg xmlns="http://www.w3.org/2000/svg" xmlns:xlink="http://www.w3.org/1999/xlink" id="e1e0a266-f7d8-4b3a-aa2f-ba627b883d8a" x="0" y="0" version="1.1" viewBox="0 0 800 562.4" xml:space="preserve" style="enable-background:new 0 0 800 562.4"><title>Jeep_taxi</title><g id="b1ee8569-fa1c-4b94-a2fa-8e0282c7894b"><g id="ba52fb7c-c23e-4ba7-8972-c0575e210acd"><path d="M571,542.8c109.4-35.1,193-132.5,221.8-242.4c6.4-24.2,12.7-52.2-1-75.3c-9.7-16.5-33.5-14.7-49.3-8.4 c-12.3,4.9-23.2,12.9-34.2,20.3c-17.4,11.7-52.2,32.6-67,6.1c-4.3-7.6-5.1-16.7-4.6-25.4c1.4-24,13.3-47,31.4-62.6 c17.2-14.8,39.5-22.7,55.6-39c16.5-16.6,22.9-41.8,16.9-64.5c-5.6-20.5-20.2-37.3-39.7-45.7c-29.3-12.3-62.8-3-92.6,7.7 c-70,25.2-137.1,57.9-200,97.6c-10.2,6.4-19.7,13.4-30.9,17.9c-19.4,7.8-37.3,6.2-56.7-0.1c-29.8-9.6-55.8-29-87.4-33.3 c-44-6-87-4.8-127.4,16C3.5,164.3-31.6,342.4,31.5,437.9c6.6,10.1,14.4,19.3,23.3,27.5c16.9,15.6,44.4,25.9,65.1,35.2 c45.6,20.4,93.9,34.5,142.9,43.7C362.2,563,473.5,574,571,542.8z" style="fill:#fece2f"/></g><g><ellipse cx="348.3" cy="92.3" rx="44.3" ry="25" style="fill:#fece2f"/></g><g><ellipse cx="272" cy="44.7" rx="25.8" ry="19.2" style="fill:#fece2f"/></g><g><ellipse cx="547.4" cy="88.6" rx="18" ry="16.4" transform="matrix(0.907 -0.4212 0.4212 0.907 13.5895 238.7791)" style="fill:#fff"/></g><g><ellipse cx="636.8" cy="51.1" rx="37" ry="20.8" transform="matrix(0.907 -0.4212 0.4212 0.907 37.7222 272.9285)" style="fill:#fff"/></g><g><path d="M285,441.4H132.5c-0.7,0-1.2-0.5-1.2-1.2s0.5-1.2,1.2-1.2H285c0.7,0,1.2,0.5,1.2,1.2S285.6,441.4,285,441.4z" style="fill:#1a1a1a"/></g><g><path d="M344.1,441.4h-15c-0.7,0-1.2-0.5-1.2-1.2s0.5-1.2,1.2-1.2h15c0.7,0,1.2,0.5,1.2,1.2S344.8,441.4,344.1,441.4z" style="fill:#1a1a1a"/></g><g><path d="M680.4,441.4H358c-0.7,0-1.2-0.5-1.2-1.2c0-0.7,0.5-1.2,1.2-1.2H679l-0.5-2.9c-0.1-0.7,0.3-1.3,1-1.4 c0.7-0.1,1.3,0.3,1.4,1l0.7,4.3c0.1,0.4,0,0.7-0.3,1C681.1,441.3,680.8,441.4,680.4,441.4z" style="fill:#1a1a1a"/></g><g><circle cx="312.1" cy="440.2" r="4.4" style="fill:#1a1a1a"/></g></g><g id="a6baedd7-c703-45b4-b062-f21aca7d249f"><g><path d="M566.7,252.6c4.6-11.2,13.8-32.6,20-42.9c2-3.5,4.4-6.8,7-9.8c2.9-3.2,6.3-6,9.4-9c8.8-8.6,16.2-20.5,17.3-31 c-4.6,3-7.3,6.5-10.7,10.8c0.4-1.9-1.2-2.7-2.8-3.7c-0.7-0.4-1.8,0.5-2.1-0.3c-1.5-3.5-4.4-2.2-6.2-1.9 c-0.1-6.3,2.3-14.4,1.2-20.1c-2.1,1.9-3.8,4.2-5,6.8c-1.8,4.4-1.4,9.8-4.8,13.1c-2.7,2.7-7.6,3.3-9.9,6.3c-2.9,3.9-1,9.5-1.6,14.3 c-0.5,4-2.6,7.5-4.8,10.9c-5.1,8-10.6,15.8-17,22.7c-1.9,2.1,4.7,17.7,5,18.4C562.9,240.1,565.6,248.4,566.7,252.6z" style="fill:#fff"/></g><g><path d="M555.9,220c-0.3,0-0.5-0.1-0.7-0.3c-0.4-0.4-0.4-1.1,0-1.5c0.2-0.2,22-22.4,22.4-31.4 c0.1-3.2,0.2-5.7,0.2-7.8c0.1-4.1,0.1-6.2,0.8-7.6c1.1-2.2,9.5-7.8,12.4-7.3c1.8,0.3,10.7,4.4,11.1,6c0.1,0.6,0,1.2-0.5,1.6 c-1.3,1.5-5.2,1.7-6.9,1.5c-1-0.1-1.7-0.4-2.2-0.5c-0.7-0.3-0.7-0.2-1-0.1c-0.9,0.7-3.4,3.2-4.2,4.2c-0.4,0.4-1.1,0.4-1.5,0 s-0.4-1.1,0-1.5c0.3-0.4,3.4-3.5,4.5-4.4c1.1-0.9,2.1-0.5,2.9-0.2c0.5,0.2,1,0.3,1.8,0.4c1.7,0.2,4-0.2,4.8-0.6 c-1.7-1.2-7.3-4.1-9.1-4.4c-1.8-0.3-9.5,4.6-10.2,6.2c-0.5,1-0.5,3-0.6,6.7c0,2-0.1,4.6-0.2,7.8c-0.4,9.8-22.1,31.9-23,32.8 C556.5,219.9,556.2,220,555.9,220z M600.2,170.8L600.2,170.8L600.2,170.8z" style="fill:#1a1a1a"/></g><g><path d="M597.4,168.7c-0.1,0-0.3,0-0.4-0.1c-0.5-0.2-0.8-0.8-0.6-1.3c0.9-2.8,4.5-19.4,3-21.6c-1.7,0.9-5.4,10.4-8,19 c-0.2,0.6-0.7,0.9-1.3,0.7c-0.6-0.2-0.9-0.7-0.7-1.3c0.9-3.1,5.7-18.6,9.2-20.3c0.7-0.3,1.2-0.2,1.6-0.1 c4.5,1.8-1.7,24.1-1.8,24.3C598.3,168.5,597.9,168.7,597.4,168.7z" style="fill:#1a1a1a"/></g><g><path d="M593.8,182.9c-0.4,0-0.7-0.1-1-0.3c-0.8-0.7-1.5-2.2,2-10.7c0.2-0.5,0.8-0.8,1.4-0.6c0.5,0.2,0.8,0.8,0.6,1.4 c-2,4.8-2.4,6.9-2.5,7.8c1-0.9,3.2-3.4,7-9.2c0.3-0.5,1-0.6,1.4-0.3c0.5,0.3,0.6,1,0.3,1.4c-6.6,10.1-8.3,10.4-9,10.5 C594,182.9,593.9,182.9,593.8,182.9z M594.3,181.1L594.3,181.1L594.3,181.1z" style="fill:#1a1a1a"/></g><g><path d="M597.6,169c-0.1,0-0.3,0-0.4-0.1c-0.5-0.2-0.8-0.9-0.5-1.4c0.5-1.1,0.9-2,1.2-2.5c0.3-0.7,0.9-1.2,1.6-1.6 c1.2-0.6,2.7-0.6,3.9-0.1c1.6,0.6,2.4,2.1,2.2,4.2c-0.1,0.6-0.6,1-1.2,0.9c-0.6-0.1-1-0.6-0.9-1.2c0.2-1.6-0.5-1.9-0.8-2 c-0.8-0.3-1.6-0.3-2.3,0c-0.2,0.1-0.5,0.3-0.6,0.6c-0.3,0.5-0.7,1.4-1.1,2.5C598.4,168.8,598,169,597.6,169z" style="fill:#1a1a1a"/></g><g><path d="M598.8,185.7c-0.4,0-0.7-0.1-1-0.3c-2.1-1.8,2.2-11.7,5-17.4c0.3-0.7,0.9-1.2,1.6-1.6c0,0,0,0,0,0 c1.2-0.6,2.6-0.6,3.9-0.1c1.9,0.7,2.7,2.6,2,5.1c-0.1,0.4-0.3,0.8-0.5,1.1c-3.6,5.9-8.4,12.9-10.7,13.3 C599,185.6,598.9,185.7,598.8,185.7z M599.3,183.9L599.3,183.9L599.3,183.9z M605.3,168.1c-0.3,0.1-0.5,0.4-0.6,0.6 c-2.6,5.5-5.3,12.2-5.5,14.5c1.6-1.3,5.1-6.1,8.8-12c0.1-0.2,0.2-0.4,0.2-0.6c0.4-1.4,0.1-2.3-0.7-2.6 C606.8,167.8,606,167.8,605.3,168.1z" style="fill:#1a1a1a"/></g><g><path d="M566.9,253.9c-0.1,0-0.3,0-0.4-0.1c-0.5-0.2-0.8-0.8-0.6-1.3c0.8-1.9,18.7-47.9,31.8-57.8 c12.2-9.4,22.7-30.4,22.2-33.8c-1.9,0.6-7.8,8.1-12.5,15.2c-0.3,0.5-1,0.6-1.4,0.3c-0.5-0.3-0.6-1-0.3-1.4c0,0,2.9-4.3,6-8.4 c6-7.8,8-8.2,9.3-7.5c0.4,0.2,0.9,0.7,0.9,1.7c0.4,5.2-11.1,26.6-23,35.6c-12.6,9.6-30.9,56.4-31.1,56.9 C567.7,253.7,567.3,253.9,566.9,253.9z" style="fill:#1a1a1a"/></g></g><g id="a1638b83-8187-4a0d-bac2-5bed14c9672d"><g><rect width="108.1" height="2.4" x="169.8" y="373.6" style="fill:#1a1a1a"/></g><g><polygon points="169.8 374.8 277.8 374.8 264.2 335.9 258.9 328.4 244.3 326 194.7 326.4 185.7 329.9 181.9 339.3" style="fill:#1a1a1a"/></g><g><rect width="125" height="2.4" x="417.8" y="387" style="fill:#1a1a1a"/></g><g><polygon points="417.8 388.2 542.7 388.2 527 338.6 520.8 329.1 504 326 446.6 326.6 436.1 330.9 431.8 343" style="fill:#1a1a1a"/></g><g id="ad135602-5402-41e4-9e49-fce435c9fd7c"><g><path d="M462.7,401.9l3.5,1.3l-2.1,6.3l-3.5-1.3c-1.2,2.9-2.6,5.6-4.4,8.2l2.9,2.5l-3.9,5.2l-2.9-2.6 c-2,2.3-4.3,4.3-6.7,6.1l1.9,3.5l-5.3,3.4l-1.9-3.6c-2.6,1.4-5.3,2.5-8.1,3.3l0.5,3.3l0.1,0.8l-5.6,1.2h0l-0.4,0.1l-0.1-0.8 l-0.6-3.4c-1.6,0.2-3.2,0.3-4.8,0.3c-1.3,0-2.6,0-3.9-0.2l-0.7,4.3l-6-1l0.7-4.4c-2.8-0.7-5.5-1.7-8-3l-2.1,3.9l-5.3-3.2l2.1-4 c-2.4-1.7-4.5-3.6-6.5-5.8l-3.3,3.1l-3.9-4.9l3.3-3.1c-1.7-2.5-3.1-5.1-4.2-7.8l-4.1,1.7l-2.1-6.1l4.1-1.7 c-0.7-2.7-1.1-5.4-1.4-8.1c0-0.3-0.1-0.6-0.1-0.8l-4.4,0.1v-6.6l4.4-0.1c0.1-1.5,0.3-3,0.5-4.5c0.3-1.5,0.6-3,1-4.5l-4.2-1.5 l2.1-6.3l4.1,1.5c0.1-0.3,0.2-0.5,0.3-0.8c1.1-2.5,2.4-4.9,3.9-7.2l-3.4-2.9l3.9-5.2l3.3,2.9c2-2.2,4.1-4.3,6.5-6.1l-2.2-4 l5.3-3.4l2.1,3.9c1.8-1,3.8-1.9,5.7-2.7c0.7-0.3,1.5-0.5,2.3-0.8l-0.7-4.5l6-1.3l0.7,4.4c2.8-0.4,5.7-0.5,8.6-0.3l0.7-4.4l6,1 l-0.7,4.3c1.3,0.3,2.5,0.7,3.7,1.1c1.5,0.5,3,1.1,4.4,1.8l1.6-3.1l0.4-0.7l5.3,3.2l-0.4,0.8l-1.6,3c2.4,1.7,4.6,3.6,6.7,5.8 l3-2.8l3.9,5l-3,2.7c1.7,2.5,3.2,5.2,4.4,8l3.6-1.5l2.1,6.1l-3.5,1.5c0.8,3,1.3,6.1,1.5,9.2l3.8-0.1l0,6.6l-3.7,0.1 C464,395.7,463.5,398.8,462.7,401.9L462.7,401.9z" style="fill:#1a1a1a"/></g><g><path d="M416.7,441.3c-0.1,0-0.1,0-0.2,0l-6-1c-0.3-0.1-0.6-0.2-0.8-0.5c-0.2-0.3-0.3-0.6-0.2-0.9l0.5-3.3 c-2.1-0.6-4.2-1.4-6.1-2.3l-1.5,2.9c-0.2,0.3-0.4,0.5-0.8,0.6c-0.3,0.1-0.7,0-1-0.1l-5.3-3.2c-0.6-0.3-0.8-1-0.5-1.6l1.6-3 c-1.8-1.3-3.4-2.8-5-4.4l-2.4,2.2c-0.2,0.2-0.6,0.4-0.9,0.3c-0.3,0-0.7-0.2-0.9-0.5l-3.9-4.9c-0.4-0.5-0.3-1.2,0.1-1.7l2.6-2.4 c-1.2-1.9-2.3-4-3.3-6l-3,1.2c-0.3,0.1-0.7,0.1-1,0c-0.3-0.1-0.5-0.4-0.7-0.7l-2.1-6.1c-0.2-0.6,0.1-1.3,0.7-1.5l3.1-1.3 c-0.5-2.3-0.9-4.6-1.1-7l-3.3,0.1c-0.3,0-0.6-0.1-0.9-0.3c-0.2-0.2-0.4-0.5-0.4-0.9v-6.6c0-0.7,0.5-1.2,1.2-1.2l3.3-0.1 c0.1-1.2,0.3-2.4,0.5-3.6c0.2-1.2,0.4-2.4,0.7-3.5l-3.1-1.1c-0.6-0.2-1-0.9-0.7-1.5l2.1-6.3c0.1-0.3,0.3-0.6,0.6-0.7 c0.3-0.1,0.6-0.2,1,0l3.1,1.1c0.9-2.1,2-4.2,3.3-6.2l-2.6-2.2c-0.5-0.4-0.6-1.2-0.2-1.7l3.9-5.2c0.2-0.3,0.5-0.4,0.9-0.5 c0.3,0,0.7,0.1,0.9,0.3l2.4,2.1c1.6-1.7,3.2-3.3,5-4.7l-1.7-3.1c-0.3-0.6-0.1-1.3,0.4-1.6l5.3-3.4c0.3-0.2,0.6-0.2,1-0.2 c0.3,0.1,0.6,0.3,0.8,0.6l1.6,2.9c1.6-0.8,3.2-1.5,4.8-2.1c0.4-0.2,0.9-0.3,1.3-0.5l-0.6-3.4c-0.1-0.6,0.3-1.3,1-1.4l6-1.3 c0.3-0.1,0.7,0,0.9,0.2c0.3,0.2,0.5,0.5,0.5,0.8l0.5,3.2c2.2-0.2,4.4-0.3,6.5-0.2l0.5-3.3c0.1-0.3,0.2-0.6,0.5-0.8 c0.3-0.2,0.6-0.3,0.9-0.2l6,1c0.3,0.1,0.6,0.2,0.8,0.5c0.2,0.3,0.3,0.6,0.2,0.9l-0.5,3.2c0.9,0.2,1.8,0.5,2.7,0.8 c1.2,0.4,2.3,0.9,3.5,1.4l1.4-2.7c0.2-0.3,0.4-0.5,0.7-0.6c0.3-0.1,0.7,0,1,0.1l5.3,3.2c0.6,0.3,0.8,1,0.5,1.6l-1.5,2.8 c1.8,1.3,3.5,2.8,5.1,4.4l2.1-1.9c0.2-0.2,0.6-0.4,0.9-0.3c0.3,0,0.7,0.2,0.9,0.5l3.9,5c0.4,0.5,0.3,1.2-0.1,1.7l-2.2,2 c1.3,2,2.4,4,3.4,6.2l2.5-1c0.3-0.1,0.7-0.1,1,0c0.3,0.1,0.5,0.4,0.7,0.7l2.1,6.1c0.2,0.6-0.1,1.3-0.7,1.5l-2.6,1.1 c0.6,2.4,1,4.8,1.2,7.2l2.6-0.1c0.3,0,0.6,0.1,0.9,0.3c0.2,0.2,0.4,0.5,0.4,0.9l0,6.6c0,0.7-0.5,1.2-1.2,1.2l-2.6,0.1 c-0.2,2.5-0.6,4.9-1.2,7.3l2.5,0.9c0.6,0.2,1,0.9,0.7,1.5l-2.1,6.3c-0.1,0.3-0.3,0.6-0.6,0.7c-0.3,0.1-0.6,0.2-0.9,0l-2.4-0.9 c-1,2.2-2.1,4.4-3.4,6.4l2.1,1.8c0.5,0.4,0.6,1.2,0.2,1.7l-3.9,5.2c-0.2,0.3-0.5,0.4-0.9,0.5c-0.3,0-0.7-0.1-0.9-0.3l-2-1.8 c-1.6,1.7-3.4,3.3-5.2,4.8l1.4,2.6c0.3,0.6,0.1,1.3-0.4,1.6l-5.3,3.4c-0.3,0.2-0.6,0.2-1,0.2c-0.3-0.1-0.6-0.3-0.8-0.6l-1.4-2.5 c-2,1-4.1,1.9-6.3,2.5l0.5,3.1c0.1,0.6-0.3,1.3-0.9,1.4l-5.6,1.2c0,0,0,0-0.1,0l-0.4,0.1c-0.3,0.1-0.7,0-0.9-0.2 c-0.3-0.2-0.5-0.5-0.5-0.8l-0.5-3c-1.2,0.1-2.5,0.2-3.7,0.2c-0.9,0-1.9,0-2.8-0.1l-0.5,3.2c-0.1,0.3-0.2,0.6-0.5,0.8 C417.2,441.2,416.9,441.3,416.7,441.3z M412,438.1l3.6,0.6l0.5-3.1c0.1-0.6,0.7-1.1,1.3-1c1.2,0.1,2.5,0.2,3.7,0.2 c1.5,0,3.1-0.1,4.6-0.3c0.7-0.1,1.3,0.4,1.4,1l0.5,2.9l3.6-0.8l-0.5-3c-0.1-0.6,0.3-1.2,0.9-1.4c2.7-0.8,5.4-1.9,7.9-3.2 c0.6-0.3,1.3-0.1,1.7,0.5l1.3,2.4l3.3-2.1l-1.4-2.5c-0.3-0.5-0.1-1.2,0.3-1.6c2.4-1.8,4.5-3.8,6.5-6c0.4-0.5,1.2-0.6,1.7-0.1 l1.9,1.7l2.5-3.2l-2-1.8c-0.5-0.4-0.6-1.1-0.2-1.6c1.7-2.5,3.1-5.2,4.3-8c0.2-0.6,0.9-0.9,1.5-0.7l2.4,0.9l1.3-3.9l-2.4-0.9 c-0.6-0.2-1-0.8-0.8-1.5c0.8-3,1.3-6,1.5-9c0-0.6,0.6-1.1,1.2-1.1l2.6-0.1l0-4.1l-2.5,0.1c-0.6,0-1.2-0.5-1.2-1.1 c-0.2-3-0.7-6-1.5-8.9c-0.2-0.6,0.1-1.2,0.7-1.4l2.5-1l-1.3-3.8l-2.4,1c-0.6,0.3-1.3,0-1.6-0.7c-1.1-2.7-2.6-5.3-4.3-7.7 c-0.3-0.5-0.3-1.2,0.2-1.6l2.1-2l-2.4-3l-2,1.9c-0.5,0.5-1.3,0.4-1.7-0.1c-1.9-2.1-4.1-4-6.5-5.6c-0.5-0.4-0.7-1-0.4-1.6l1.4-2.7 l-3.2-1.9l-1.4,2.6c-0.3,0.6-1,0.8-1.6,0.5c-1.4-0.7-2.8-1.3-4.3-1.8c-1.2-0.4-2.4-0.8-3.6-1c-0.6-0.1-1-0.8-0.9-1.4l0.5-3.1 l-3.6-0.6l-0.5,3.2c-0.1,0.6-0.7,1.1-1.3,1c-2.8-0.2-5.6-0.1-8.3,0.3c-0.7,0.1-1.3-0.4-1.4-1l-0.5-3.1l-3.6,0.8l0.5,3.3 c0.1,0.6-0.3,1.2-0.8,1.4c-0.7,0.2-1.5,0.5-2.2,0.7c-1.9,0.7-3.8,1.6-5.6,2.6c-0.3,0.2-0.6,0.2-0.9,0.1c-0.3-0.1-0.6-0.3-0.7-0.6 l-1.5-2.8l-3.3,2.1l1.6,3c0.3,0.5,0.1,1.2-0.3,1.6c-2.3,1.7-4.4,3.7-6.3,5.9c-0.2,0.2-0.5,0.4-0.8,0.4c-0.3,0-0.6-0.1-0.9-0.3 l-2.4-2.1l-2.5,3.2l2.5,2.2c0.5,0.4,0.6,1.1,0.2,1.6c-1.5,2.2-2.7,4.6-3.8,7.1c-0.1,0.3-0.2,0.5-0.3,0.8 c-0.2,0.6-0.9,0.9-1.6,0.7l-3-1.1l-1.3,3.9l3,1.1c0.6,0.2,0.9,0.8,0.8,1.5c-0.4,1.4-0.7,2.9-0.9,4.4c-0.2,1.5-0.4,3-0.5,4.4 c0,0.6-0.6,1.1-1.2,1.1l-3.2,0.1v4.1l3.2-0.1c0,0,0,0,0,0c0.6,0,1.2,0.5,1.2,1.2c0,0.3,0,0.5,0.1,0.8c0.2,2.7,0.7,5.3,1.3,7.9 c0.2,0.6-0.2,1.2-0.7,1.4l-3.1,1.3l1.3,3.8l2.9-1.2c0.3-0.1,0.6-0.1,0.9,0c0.3,0.1,0.5,0.4,0.7,0.7c1.1,2.7,2.5,5.2,4.1,7.6 c0.3,0.5,0.3,1.2-0.2,1.6l-2.5,2.3l2.4,3l2.3-2.2c0.2-0.2,0.6-0.3,0.9-0.3c0.3,0,0.6,0.2,0.9,0.4c1.9,2.1,4,4,6.3,5.6 c0.5,0.4,0.7,1,0.4,1.6l-1.6,2.9l3.2,1.9l1.5-2.8c0.3-0.6,1-0.8,1.6-0.5c2.5,1.3,5.1,2.2,7.8,2.9c0.6,0.2,1,0.8,0.9,1.4 L412,438.1z" style="fill:#1a1a1a"/></g><g><path d="M685,397.7l3.5,1.3l-2.1,6.3l-3.5-1.3c-1.2,2.9-2.6,5.6-4.4,8.2l2.9,2.5l-3.9,5.2l-2.9-2.6 c-2,2.3-4.3,4.3-6.7,6.1l1.9,3.5l-5.3,3.4l-1.9-3.6c-2.6,1.4-5.3,2.5-8.1,3.3l0.5,3.3l0.1,0.8l-5.6,1.2h0l-0.4,0.1l-0.1-0.8 l-0.6-3.4c-1.6,0.2-3.2,0.3-4.8,0.3c-1.3,0-2.6,0-3.9-0.2l-0.7,4.3l-6-1l0.7-4.4c-2.8-0.7-5.5-1.7-8-3l-2.1,3.9l-5.3-3.2l2.1-4 c-2.4-1.7-4.5-3.6-6.5-5.8l-3.3,3.1l-3.9-4.9l3.3-3.1c-1.7-2.5-3.1-5.1-4.2-7.8l-4.1,1.7l-2.1-6.1l4.1-1.7 c-0.7-2.7-1.2-5.4-1.4-8.1c0-0.3-0.1-0.6-0.1-0.8l-4.4,0.1v-6.6l4.4-0.1c0.1-1.5,0.3-3,0.5-4.5c0.2-1.5,0.6-3,0.9-4.5l-4.2-1.5 l2.1-6.3l4.1,1.5c0.1-0.3,0.2-0.5,0.3-0.8c1.1-2.5,2.4-4.9,3.9-7.2l-3.4-2.9l3.9-5.2l3.3,2.9c2-2.2,4.1-4.3,6.5-6.1l-2.2-4 l5.3-3.4l2.1,3.9c1.8-1,3.8-1.9,5.7-2.7c0.7-0.3,1.5-0.5,2.3-0.8l-0.7-4.5l6-1.3l0.7,4.4c2.8-0.4,5.7-0.5,8.6-0.3l0.7-4.4l6,1 l-0.7,4.3c1.3,0.3,2.5,0.7,3.7,1.1c1.5,0.5,3,1.1,4.4,1.8l1.6-3.1l0.4-0.7l5.3,3.2l-0.4,0.8l-1.6,3c2.4,1.7,4.7,3.6,6.7,5.8 l3-2.8l4,4.9l-2.9,2.7c1.7,2.5,3.2,5.2,4.4,8l3.6-1.5l2.1,6.1l-3.5,1.5c0.8,3,1.3,6.1,1.5,9.2l3.8-0.1l0,6.6l-3.7,0.1 C686.3,391.5,685.8,394.6,685,397.7L685,397.7z" style="fill:#1a1a1a"/></g><g><path d="M639,437.1c-0.1,0-0.1,0-0.2,0l-6-1c-0.3-0.1-0.6-0.2-0.8-0.5c-0.2-0.3-0.3-0.6-0.2-0.9l0.5-3.3 c-2.1-0.6-4.2-1.3-6.1-2.3l-1.5,2.9c-0.2,0.3-0.4,0.5-0.8,0.6c-0.3,0.1-0.7,0-1-0.1l-5.3-3.2c-0.6-0.3-0.8-1-0.5-1.6l1.6-3 c-1.8-1.3-3.4-2.8-5-4.4l-2.4,2.2c-0.2,0.2-0.6,0.3-0.9,0.3c-0.3,0-0.7-0.2-0.9-0.5l-3.9-4.9c-0.4-0.5-0.3-1.2,0.1-1.7l2.6-2.4 c-1.2-1.9-2.3-4-3.3-6l-3,1.2c-0.3,0.1-0.7,0.1-1,0c-0.3-0.1-0.5-0.4-0.7-0.7l-2.1-6.1c-0.2-0.6,0.1-1.3,0.7-1.5l3.1-1.3 c-0.5-2.3-0.9-4.6-1.1-7l-3.3,0.1c-0.3,0-0.6-0.1-0.9-0.3c-0.2-0.2-0.4-0.5-0.4-0.9v-6.6c0-0.7,0.5-1.2,1.2-1.2l3.3-0.1 c0.1-1.2,0.3-2.4,0.5-3.6c0.2-1.2,0.4-2.4,0.7-3.5l-3.1-1.1c-0.6-0.2-1-0.9-0.7-1.5l2.1-6.3c0.1-0.3,0.3-0.6,0.6-0.7 c0.3-0.1,0.6-0.2,0.9,0l3.1,1.1c0.9-2.1,2-4.2,3.3-6.2l-2.6-2.2c-0.5-0.4-0.6-1.2-0.2-1.7l3.9-5.2c0.2-0.3,0.5-0.4,0.9-0.5 c0.3,0,0.7,0.1,0.9,0.3l2.4,2.1c1.6-1.7,3.2-3.3,5-4.7l-1.7-3.1c-0.3-0.6-0.1-1.3,0.4-1.6l5.3-3.4c0.3-0.2,0.6-0.2,1-0.2 c0.3,0.1,0.6,0.3,0.8,0.6l1.6,2.9c1.6-0.8,3.2-1.5,4.8-2.1c0.4-0.2,0.9-0.3,1.3-0.5l-0.6-3.4c-0.1-0.6,0.3-1.3,1-1.4l6-1.3 c0.3-0.1,0.7,0,0.9,0.2c0.3,0.2,0.5,0.5,0.5,0.8l0.5,3.2c2.2-0.2,4.4-0.3,6.5-0.2l0.5-3.3c0.1-0.3,0.2-0.6,0.5-0.8 c0.3-0.2,0.6-0.3,0.9-0.2l6,1c0.7,0.1,1.1,0.7,1,1.4l-0.5,3.2c0.9,0.2,1.8,0.5,2.7,0.8c1.2,0.4,2.3,0.9,3.5,1.4l1.4-2.7 c0.2-0.3,0.4-0.5,0.7-0.6c0.3-0.1,0.7,0,1,0.1l5.3,3.2c0.6,0.3,0.8,1,0.5,1.6l-1.5,2.8c1.8,1.3,3.5,2.8,5.1,4.4l2.1-1.9 c0.2-0.2,0.6-0.3,0.9-0.3c0.3,0,0.7,0.2,0.9,0.5l4,4.9c0.4,0.5,0.3,1.2-0.1,1.7l-2.2,2c1.3,2,2.4,4,3.4,6.2l2.5-1 c0.3-0.1,0.7-0.1,1,0c0.3,0.1,0.5,0.4,0.7,0.7l2.1,6.1c0.2,0.6-0.1,1.3-0.7,1.5l-2.6,1.1c0.6,2.4,1,4.8,1.2,7.2l2.6-0.1 c0.3,0,0.6,0.1,0.9,0.3c0.2,0.2,0.4,0.5,0.4,0.9l0,6.6c0,0.7-0.5,1.2-1.2,1.2l-2.6,0.1c-0.2,2.5-0.6,4.9-1.2,7.3l2.5,0.9 c0.6,0.2,1,0.9,0.7,1.5l-2.1,6.3c-0.1,0.3-0.3,0.6-0.6,0.7c-0.3,0.1-0.6,0.2-1,0l-2.4-0.9c-1,2.2-2.1,4.4-3.4,6.4l2.1,1.8 c0.5,0.4,0.6,1.2,0.2,1.7l-3.9,5.2c-0.2,0.3-0.5,0.4-0.9,0.5c-0.3,0-0.7-0.1-0.9-0.3l-2-1.8c-1.6,1.7-3.4,3.3-5.2,4.8l1.4,2.6 c0.3,0.6,0.1,1.3-0.4,1.6l-5.3,3.4c-0.3,0.2-0.6,0.2-1,0.2c-0.3-0.1-0.6-0.3-0.8-0.6l-1.4-2.5c-2,1-4.1,1.9-6.3,2.6l0.5,3.1 c0.1,0.6-0.3,1.3-0.9,1.4l-5.6,1.2c0,0,0,0-0.1,0l-0.4,0.1c-0.3,0.1-0.7,0-1-0.2c-0.3-0.2-0.5-0.5-0.5-0.8l-0.5-3 c-1.2,0.1-2.5,0.2-3.7,0.2c-0.9,0-1.9,0-2.8-0.1l-0.5,3.2c-0.1,0.3-0.2,0.6-0.5,0.8C639.5,437,639.3,437.1,639,437.1z M634.4,433.9l3.6,0.6l0.5-3.1c0.1-0.6,0.7-1.1,1.3-1c1.2,0.1,2.5,0.2,3.7,0.2c1.5,0,3.1-0.1,4.6-0.3c0.7-0.1,1.3,0.4,1.4,1 l0.5,2.9l3.6-0.8l-0.5-3c-0.1-0.6,0.3-1.2,0.9-1.4c2.7-0.8,5.4-1.9,7.9-3.2c0.6-0.3,1.3-0.1,1.7,0.5l1.3,2.4l3.3-2.1l-1.4-2.5 c-0.3-0.5-0.1-1.2,0.3-1.6c2.4-1.8,4.5-3.8,6.5-6c0.4-0.5,1.2-0.6,1.7-0.1l1.9,1.7l2.5-3.2l-2-1.8c-0.5-0.4-0.6-1.1-0.2-1.6 c1.7-2.5,3.1-5.2,4.2-8c0.2-0.6,0.9-0.9,1.6-0.7l2.4,0.9l1.3-3.9l-2.3-0.8c-0.3-0.1-0.6-0.3-0.7-0.5c-0.2-0.3-0.2-0.7-0.1-1 c0.8-2.9,1.3-5.9,1.5-9c0-0.6,0.6-1.1,1.2-1.1l2.6-0.1l0-4.1l-2.5,0.1c-0.6,0-1.2-0.5-1.3-1.1c-0.2-3-0.7-6-1.5-8.9 c-0.2-0.6,0.1-1.2,0.7-1.4l2.5-1l-1.3-3.8l-2.4,1c-0.6,0.3-1.3,0-1.6-0.7c-1.2-2.7-2.6-5.3-4.3-7.7c-0.3-0.5-0.3-1.2,0.2-1.6 l2.1-2l-2.4-3l-2,1.9c-0.5,0.5-1.3,0.4-1.7-0.1c-1.9-2.1-4.1-4-6.5-5.6c-0.5-0.4-0.7-1-0.4-1.6l1.4-2.7l-3.2-1.9l-1.4,2.6 c-0.3,0.6-1,0.8-1.6,0.5c-1.4-0.7-2.8-1.3-4.3-1.8c-1.2-0.4-2.4-0.8-3.6-1c-0.6-0.1-1-0.8-0.9-1.4l0.5-3.1l-3.6-0.6l-0.5,3.2 c-0.1,0.6-0.7,1.1-1.3,1c-2.8-0.2-5.6-0.1-8.3,0.3c-0.7,0.1-1.3-0.4-1.4-1l-0.5-3.1l-3.6,0.8l0.5,3.3c0.1,0.6-0.3,1.2-0.8,1.4 c-0.7,0.2-1.5,0.5-2.2,0.7c-1.9,0.7-3.8,1.6-5.6,2.6c-0.3,0.2-0.6,0.2-0.9,0.1c-0.3-0.1-0.6-0.3-0.7-0.6l-1.5-2.8l-3.3,2.1l1.6,3 c0.3,0.5,0.1,1.2-0.3,1.6c-2.3,1.7-4.4,3.7-6.3,5.9c-0.2,0.2-0.5,0.4-0.8,0.4c-0.3,0-0.6-0.1-0.9-0.3l-2.4-2.1l-2.4,3.2l2.5,2.2 c0.5,0.4,0.6,1.1,0.2,1.6c-1.5,2.2-2.7,4.6-3.8,7.1c-0.1,0.3-0.2,0.5-0.3,0.8c-0.2,0.6-0.9,0.9-1.6,0.7l-3-1.1l-1.3,3.9l3,1.1 c0.6,0.2,0.9,0.8,0.8,1.5c-0.4,1.4-0.7,2.9-0.9,4.4c-0.2,1.5-0.4,3-0.5,4.4c0,0.6-0.6,1.1-1.2,1.1l-3.2,0.1v4.1l3.2-0.1 c0.6,0,1.2,0.5,1.3,1.2c0,0.3,0,0.5,0.1,0.8c0.2,2.7,0.7,5.3,1.3,7.9c0.2,0.6-0.2,1.2-0.7,1.4l-3.1,1.3l1.3,3.8l2.9-1.2 c0.3-0.1,0.6-0.1,0.9,0c0.3,0.1,0.5,0.4,0.7,0.7c1.1,2.7,2.5,5.2,4.1,7.6c0.3,0.5,0.3,1.2-0.2,1.6l-2.5,2.3l2.4,3l2.3-2.2 c0.2-0.2,0.6-0.3,0.9-0.3c0.3,0,0.6,0.2,0.9,0.4c1.9,2.1,4,4,6.3,5.6c0.5,0.4,0.7,1,0.4,1.6l-1.6,2.9l3.2,1.9l1.5-2.8 c0.3-0.6,1-0.8,1.6-0.5c2.5,1.3,5.1,2.2,7.8,2.9c0.6,0.2,1,0.8,0.9,1.4L634.4,433.9z" style="fill:#1a1a1a"/></g><g><path d="M664,441.2c-0.1,0-0.1,0-0.2,0l-25-4.1c-0.7-0.1-1.1-0.7-1-1.4l0.7-4.3c0.1-0.6,0.7-1.1,1.3-1 c1.2,0.1,2.5,0.2,3.7,0.2c1.6,0,3.1-0.1,4.6-0.3c0.6-0.1,1.3,0.4,1.4,1l0.5,2.9l3.6-0.8l-0.5-3c-0.1-0.6,0.3-1.2,0.9-1.4 c2.7-0.8,5.4-1.9,7.9-3.2c0.6-0.3,1.3-0.1,1.7,0.5l1.3,2.4l3.3-2.1l-1.4-2.5c-0.3-0.5-0.1-1.2,0.3-1.6c2.4-1.8,4.5-3.8,6.5-6 c0.4-0.5,1.2-0.6,1.7-0.1l1.9,1.7l2.5-3.2l-2-1.8c-0.5-0.4-0.6-1.1-0.2-1.6c1.7-2.5,3.1-5.2,4.3-8c0.2-0.6,0.9-0.9,1.5-0.7 l2.4,0.9l1.3-3.9l-2.4-0.9c-0.6-0.2-0.9-0.9-0.8-1.5c0.8-3,1.3-6,1.5-9c0-0.6,0.6-1.1,1.2-1.1l2.6-0.1l0-4.1l-2.5,0.1 c0,0,0,0,0,0c-0.6,0-1.2-0.5-1.2-1.1c-0.2-3-0.7-6-1.5-8.9c-0.2-0.6,0.1-1.2,0.7-1.4l2.5-1l-1.3-3.8l-2.4,1 c-0.6,0.3-1.3,0-1.6-0.7c-1.1-2.7-2.6-5.3-4.3-7.7c-0.3-0.5-0.3-1.2,0.2-1.6l2.1-2l-2.4-3l-2,1.9c-0.5,0.5-1.3,0.4-1.7-0.1 c-1.9-2.1-4.1-4-6.5-5.6c-0.5-0.4-0.7-1-0.4-1.6l1.4-2.7l-3.2-1.9l-1.4,2.6c-0.3,0.6-1,0.8-1.6,0.5c-1.4-0.7-2.8-1.3-4.3-1.8 c-1.2-0.4-2.4-0.8-3.6-1c-0.6-0.1-1-0.8-0.9-1.4l0.7-4.3c0.1-0.3,0.2-0.6,0.5-0.8c0.3-0.2,0.6-0.3,0.9-0.2l25,4.1 c0.7,0.1,1.1,0.7,1,1.4l-0.1,0.6l8.5,1.4c0.2,0,0.3,0.1,0.4,0.2l5.3,3.2c0.6,0.3,0.8,1,0.5,1.6l-1.5,2.8c0.4,0.3,0.9,0.7,1.4,1 l6.9,1.1c0.3,0,0.6,0.2,0.8,0.4l4,4.9c0.4,0.5,0.3,1.2-0.1,1.7l-2.2,2c0.9,1.4,1.8,2.9,2.6,4.4l4,0.7c0.4,0.1,0.8,0.4,1,0.8 l2.1,6.1c0.2,0.6-0.1,1.3-0.7,1.5l-2.6,1.1c0.5,2.2,0.9,4.4,1.1,6.7l2.9,0.5c0.6,0.1,1,0.6,1,1.2l0,6.6c0,0.7-0.5,1.2-1.2,1.2 l-2.6,0.1c-0.2,2.5-0.6,4.9-1.2,7.3l2.5,0.9c0.6,0.2,1,0.9,0.7,1.5l-2.1,6.3c-0.2,0.6-0.8,0.9-1.4,0.8l-2.9-0.5 c-0.9,2.1-2,4.1-3.2,6l2.1,1.8c0.5,0.4,0.6,1.2,0.2,1.7l-3.9,5.2c-0.3,0.4-0.7,0.5-1.2,0.5l-4-0.7c-1.2,1.2-2.5,2.3-3.8,3.4 l1.4,2.6c0.3,0.6,0.1,1.3-0.4,1.6l-5.3,3.4c-0.3,0.2-0.6,0.2-0.9,0.2l-6.9-1.1c-0.5,0.2-1.1,0.4-1.6,0.6l0.5,3.1 c0.1,0.6-0.3,1.3-0.9,1.4l-6,1.3c-0.3,0.1-0.7,0-1-0.2c0,0-0.1,0-0.1-0.1l-7.9-1.3l-0.1,0.8C665.1,440.7,664.6,441.2,664,441.2z M650.6,436.5l12.4,2l0.1-0.8c0.1-0.7,0.7-1.1,1.4-1l9.7,1.6c0.1,0,0.1,0,0.2,0l4.3-0.9l-0.5-3c-0.1-0.6,0.3-1.2,0.9-1.4 c0.9-0.3,1.9-0.6,2.8-0.9c0.2-0.1,0.4-0.1,0.6-0.1l6.7,1.1l4-2.6l-1.4-2.5c-0.3-0.5-0.1-1.2,0.3-1.6c1.7-1.3,3.3-2.7,4.9-4.2 c0.3-0.3,0.7-0.4,1.1-0.3l3.9,0.6l2.8-3.7l-2-1.8c-0.5-0.4-0.6-1.1-0.2-1.6c1.5-2.3,2.9-4.8,4-7.3c0.2-0.5,0.8-0.8,1.3-0.7 l2.8,0.5l1.4-4.1l-2.4-0.9c-0.4-0.1-0.6-0.4-0.8-0.8c-0.1-0.2-0.1-0.5,0-0.7c0.8-2.9,1.3-5.9,1.5-9c0-0.6,0.6-1.1,1.2-1.1 l2.6-0.1l0-4.4l-2.8-0.5c-0.6-0.1-1-0.5-1-1.1c-0.2-2.8-0.7-5.5-1.4-8.2c-0.2-0.6,0.1-1.2,0.7-1.4l2.5-1l-1.5-4.4l-3.9-0.6 c-0.4-0.1-0.7-0.3-0.9-0.7c-0.9-1.9-2-3.8-3.3-5.5c-0.3-0.5-0.3-1.2,0.2-1.6l2.1-2l-2.9-3.7l-6.8-1.1c-0.2,0-0.4-0.1-0.6-0.3 c-0.8-0.7-1.6-1.2-2.3-1.8c-0.5-0.4-0.7-1-0.4-1.6l1.4-2.7l-4.1-2.4l-9.5-1.6c-0.7-0.1-1.1-0.7-1-1.4l0.1-0.6l-12.4-2l4.2,2.5 c0.6,0.3,0.8,1,0.5,1.6l-1.5,2.8c1.8,1.3,3.5,2.8,5.1,4.4l2.1-1.9c0.2-0.2,0.6-0.3,0.9-0.3c0.3,0,0.7,0.2,0.9,0.5l4,4.9 c0.4,0.5,0.3,1.2-0.1,1.7l-2.2,2c1.3,2,2.4,4,3.4,6.2l2.5-1c0.3-0.1,0.7-0.1,1,0c0.3,0.1,0.5,0.4,0.7,0.7l2.1,6.1 c0.2,0.6-0.1,1.3-0.7,1.5l-2.6,1.1c0.6,2.4,1,4.8,1.2,7.2l2.6-0.1c0.3,0,0.6,0.1,0.9,0.3c0.2,0.2,0.4,0.5,0.4,0.9l0,6.6 c0,0.7-0.5,1.2-1.2,1.2l-2.6,0.1c-0.2,2.5-0.6,4.9-1.2,7.3l2.5,0.9c0.6,0.2,1,0.9,0.7,1.5l-2.1,6.3c-0.1,0.3-0.3,0.6-0.6,0.7 c-0.3,0.1-0.6,0.2-1,0l-2.4-0.9c-1,2.2-2.1,4.4-3.4,6.4l2.1,1.8c0.5,0.4,0.6,1.2,0.2,1.7l-3.9,5.2c-0.2,0.3-0.5,0.4-0.9,0.5 c-0.3,0-0.7-0.1-0.9-0.3l-2-1.8c-1.6,1.7-3.4,3.3-5.2,4.8l1.4,2.6c0.3,0.6,0.1,1.3-0.4,1.6l-5.3,3.4c-0.3,0.2-0.6,0.2-1,0.2 c-0.3-0.1-0.6-0.3-0.8-0.6l-1.4-2.5c-2,1-4.1,1.9-6.3,2.6l0.5,3.1c0.1,0.6-0.3,1.3-0.9,1.4L650.6,436.5z M640.4,434.8l7.5,1.2 c0-0.1-0.1-0.2-0.1-0.3l-0.5-3c-1.2,0.1-2.5,0.2-3.7,0.2c-0.9,0-1.9,0-2.8-0.1L640.4,434.8z M655.8,340.9 c0.9,0.2,1.8,0.5,2.7,0.8c1.2,0.4,2.3,0.9,3.5,1.4l1.4-2.7c0-0.1,0.1-0.2,0.2-0.3l-7.5-1.2L655.8,340.9z" style="fill:#1a1a1a"/></g><g><path d="M710,401.7l3.5,1.3l-2.1,6.3l-3.8-0.6c-1.1,2.6-2.5,5.2-4.1,7.5l2.9,2.5l-3.9,5.2l-4.6-0.8 c-1.6,1.6-3.2,3-5,4.3l1.9,3.5l-5.3,3.4l-7.2-1.2c-0.9,0.4-1.9,0.7-2.9,0.9l0.7,4.2l-6,1.3l0-0.2l-9.7-1.6l-0.3,2l-25-4.1 l0.7-4.3c1.3,0.1,2.6,0.2,3.9,0.2c1.6,0,3.2-0.1,4.8-0.3l0.6,3.4l0.1,0.8l0.4-0.1h0l5.6-1.2l-0.1-0.8l-0.5-3.3 c2.8-0.8,5.6-1.9,8.1-3.3l1.9,3.6l5.3-3.4l-1.9-3.5c2.4-1.8,4.7-3.9,6.7-6.1l2.9,2.6l3.9-5.2l-2.9-2.5c1.7-2.6,3.2-5.3,4.4-8.2 l3.5,1.3l2.1-6.3l-3.5-1.3c0.8-3,1.3-6.1,1.5-9.3l3.7-0.1l0-6.6l-3.8,0.1c-0.2-3.1-0.7-6.2-1.5-9.2l3.5-1.5l-2.1-6.1l-3.6,1.5 c-1.2-2.8-2.7-5.5-4.4-8l2.9-2.7l-4-4.9l-3,2.8c-2-2.1-4.2-4.1-6.7-5.8l1.6-3l0.4-0.8l-5.3-3.2l-0.4,0.7l-1.6,3.1 c-1.4-0.7-2.9-1.3-4.4-1.8c-1.2-0.4-2.5-0.8-3.7-1.1l0.7-4.3l25,4.1l-0.3,1.9l9.7,1.6l5.3,3.2l-2,3.7c0.8,0.6,1.6,1.2,2.4,1.8 l7.2,1.2l4,4.9l-2.9,2.7c1.3,1.8,2.4,3.7,3.4,5.7l4.6,0.8l2.1,6.1l-3.5,1.5c0.7,2.8,1.2,5.6,1.5,8.4l3.8,0.6l0,6.6l-3.7,0.1 C711.3,395.6,710.8,398.7,710,401.7L710,401.7z" style="fill:#1a1a1a"/></g><g><path d="M260.1,397.7l3.5,1.3l-2.1,6.3L258,404c-1.2,2.9-2.7,5.6-4.4,8.2l2.9,2.5l-4,5.1l-2.9-2.6 c-2,2.3-4.3,4.3-6.7,6.1l1.9,3.5l-5.3,3.4l-1.9-3.6c-2.6,1.4-5.3,2.5-8.1,3.3l0.5,3.3l0.1,0.8l-5.6,1.2h0l-0.4,0.1l-0.1-0.8 l-0.6-3.4c-1.6,0.2-3.2,0.3-4.8,0.3c-1.3,0-2.6,0-3.9-0.2l-0.7,4.3l-6-1l0.7-4.4c-2.8-0.7-5.5-1.7-8-3l-2.1,3.9l-5.3-3.2l2.1-4 c-2.4-1.7-4.5-3.6-6.5-5.8l-3.3,3.1l-3.9-5l3.3-3.1c-1.7-2.5-3.1-5.1-4.2-7.8l-4.1,1.7l-2.1-6.1l4.1-1.7 c-0.7-2.7-1.1-5.4-1.4-8.1c0-0.3-0.1-0.6-0.1-0.8l-4.4,0.1l0-6.6l4.4-0.1c0.1-1.5,0.3-3,0.5-4.5c0.3-1.5,0.6-3,1-4.5l-4.2-1.5 l2.1-6.2l4.1,1.5c0.1-0.3,0.2-0.5,0.3-0.8c1.1-2.5,2.4-4.9,3.9-7.2l-3.3-2.9l3.9-5.1l3.3,2.9c2-2.2,4.1-4.3,6.5-6.1l-2.2-4 l5.3-3.4l2.1,3.9c1.8-1,3.8-1.9,5.7-2.6c0.7-0.3,1.5-0.5,2.3-0.8l-0.7-4.5l6-1.3l0.7,4.4c2.8-0.4,5.7-0.5,8.6-0.3l0.7-4.4l6,1 l-0.7,4.3c1.3,0.3,2.5,0.7,3.7,1.1c1.5,0.5,3,1.1,4.4,1.8l1.6-3.1l0.4-0.7l5.3,3.2l-0.4,0.8l-1.6,3c2.4,1.7,4.6,3.6,6.7,5.8 l3-2.8l3.9,5l-3,2.7c1.7,2.5,3.2,5.2,4.4,8l3.6-1.5l2.1,6.1l-3.5,1.5c0.8,3,1.3,6.1,1.5,9.2l3.8-0.1l0,6.6l-3.7,0.1 C261.4,391.6,260.9,394.7,260.1,397.7L260.1,397.7z" style="fill:#fece2f"/></g><g><path d="M214,437c-0.1,0-0.1,0-0.2,0l-6-1c-0.3-0.1-0.6-0.2-0.8-0.5c-0.2-0.3-0.3-0.6-0.2-0.9l0.5-3.3 c-2.1-0.6-4.1-1.4-6.1-2.3l-1.5,2.9c-0.2,0.3-0.4,0.5-0.8,0.6c-0.3,0.1-0.7,0-1-0.1l-5.3-3.2c-0.6-0.3-0.8-1-0.5-1.6l1.6-3 c-1.8-1.3-3.4-2.8-5-4.4l-2.4,2.2c-0.3,0.2-0.6,0.4-0.9,0.3c-0.3,0-0.7-0.2-0.9-0.5l-3.9-5c-0.4-0.5-0.3-1.2,0.1-1.7l2.6-2.4 c-1.2-1.9-2.3-4-3.3-6.1l-3,1.2c-0.3,0.1-0.7,0.1-1,0c-0.3-0.1-0.5-0.4-0.7-0.7l-2.1-6.1c-0.2-0.6,0.1-1.3,0.7-1.5l3.1-1.3 c-0.5-2.3-0.9-4.6-1.1-7l-3.3,0.1c-0.3,0-0.6-0.1-0.9-0.3c-0.2-0.2-0.4-0.5-0.4-0.9l0-6.6c0-0.7,0.5-1.2,1.2-1.2l3.3-0.1 c0.1-1.2,0.3-2.4,0.5-3.5c0.2-1.2,0.4-2.4,0.7-3.5l-3.1-1.1c-0.6-0.2-1-0.9-0.7-1.5l2.1-6.2c0.1-0.3,0.3-0.6,0.6-0.7 c0.3-0.1,0.6-0.2,1,0l3.1,1.1c0.9-2.1,2-4.2,3.3-6.2l-2.6-2.2c-0.5-0.4-0.6-1.2-0.2-1.7l3.9-5.1c0.2-0.3,0.5-0.4,0.9-0.5 c0.3,0,0.7,0.1,0.9,0.3l2.4,2.1c1.6-1.7,3.2-3.2,5-4.7l-1.7-3.1c-0.3-0.6-0.1-1.3,0.4-1.6l5.3-3.4c0.3-0.2,0.6-0.2,1-0.2 c0.3,0.1,0.6,0.3,0.8,0.6l1.6,2.9c1.6-0.8,3.2-1.5,4.8-2.1c0.4-0.2,0.9-0.3,1.3-0.5l-0.6-3.4c-0.1-0.6,0.3-1.3,1-1.4l6-1.3 c0.3-0.1,0.7,0,0.9,0.2c0.3,0.2,0.5,0.5,0.5,0.8l0.5,3.2c2.2-0.2,4.4-0.3,6.5-0.2l0.5-3.3c0.1-0.7,0.7-1.1,1.4-1l6,1 c0.3,0.1,0.6,0.2,0.8,0.5c0.2,0.3,0.3,0.6,0.2,0.9l-0.5,3.2c0.9,0.2,1.8,0.5,2.7,0.8c1.2,0.4,2.3,0.9,3.5,1.4l1.4-2.7 c0.2-0.3,0.4-0.5,0.8-0.6c0.3-0.1,0.7,0,1,0.1l5.3,3.2c0.6,0.3,0.8,1,0.5,1.6l-1.5,2.8c1.8,1.3,3.5,2.8,5.1,4.4l2.1-1.9 c0.2-0.2,0.6-0.4,0.9-0.3c0.3,0,0.7,0.2,0.9,0.5l3.9,5c0.4,0.5,0.3,1.2-0.1,1.7l-2.2,2c1.3,2,2.4,4,3.4,6.2l2.5-1 c0.3-0.1,0.7-0.1,1,0c0.3,0.1,0.5,0.4,0.7,0.7l2.1,6.1c0.2,0.6-0.1,1.3-0.7,1.5l-2.6,1.1c0.6,2.4,1,4.8,1.2,7.2l2.6-0.1 c0.3,0,0.6,0.1,0.9,0.3c0.2,0.2,0.4,0.5,0.4,0.9l0,6.6c0,0.7-0.5,1.2-1.2,1.2l-2.6,0.1c-0.2,2.5-0.6,4.9-1.2,7.3l2.5,0.9 c0.6,0.2,0.9,0.9,0.7,1.5l-2.1,6.3c-0.1,0.3-0.3,0.6-0.6,0.7c-0.3,0.1-0.6,0.2-1,0l-2.4-0.9c-1,2.2-2.1,4.4-3.4,6.4l2.1,1.8 c0.5,0.4,0.6,1.2,0.2,1.7l-4,5.1c-0.2,0.3-0.5,0.4-0.9,0.5c-0.3,0-0.7-0.1-0.9-0.3l-2-1.8c-1.6,1.7-3.4,3.3-5.2,4.8l1.4,2.6 c0.3,0.6,0.1,1.3-0.4,1.6l-5.3,3.4c-0.3,0.2-0.6,0.2-1,0.2c-0.3-0.1-0.6-0.3-0.8-0.6l-1.4-2.5c-2,1-4.1,1.9-6.3,2.5l0.5,3.1 c0.1,0.6-0.3,1.3-1,1.4l-5.6,1.2c0,0,0,0-0.1,0l-0.4,0.1c-0.3,0.1-0.7,0-0.9-0.2c-0.3-0.2-0.5-0.5-0.5-0.8l-0.5-3 c-1.4,0.1-2.7,0.2-4.1,0.2c-0.8,0-1.7,0-2.5-0.1l-0.5,3.2c-0.1,0.3-0.2,0.6-0.5,0.8C214.5,437,214.3,437,214,437z M209.4,433.8 l3.6,0.6l0.5-3.1c0.1-0.6,0.7-1.1,1.3-1c1.2,0.1,2.5,0.2,3.7,0.2c1.5,0,3.1-0.1,4.6-0.3c0.6-0.1,1.3,0.4,1.4,1l0.5,2.9l3.6-0.8 l-0.5-3c-0.1-0.6,0.3-1.2,0.9-1.4c2.7-0.8,5.4-1.9,7.9-3.2c0.6-0.3,1.3-0.1,1.7,0.5l1.3,2.4l3.3-2.1l-1.4-2.5 c-0.3-0.5-0.1-1.2,0.3-1.6c2.4-1.8,4.5-3.8,6.5-6c0.4-0.5,1.2-0.6,1.7-0.1l1.9,1.7l2.5-3.2l-2-1.8c-0.5-0.4-0.5-1.1-0.2-1.6 c1.7-2.5,3.1-5.2,4.3-8c0.3-0.6,0.9-0.9,1.6-0.7l2.4,0.9l1.3-3.9l-2.4-0.9c0,0-0.1,0-0.1,0l0,0c-0.5-0.2-0.8-0.9-0.7-1.4 c0.8-2.9,1.3-6,1.5-9c0-0.6,0.6-1.1,1.2-1.1l2.6-0.1l0-4.1l-2.5,0.1c-0.7,0-1.2-0.5-1.3-1.1c-0.2-3-0.7-6-1.5-8.9 c-0.2-0.6,0.1-1.2,0.7-1.4l2.5-1l-1.3-3.8l-2.4,1c-0.6,0.3-1.3,0-1.6-0.7c-1.1-2.7-2.6-5.3-4.2-7.7c-0.3-0.5-0.3-1.2,0.2-1.6 l2.1-2l-2.4-3l-2,1.9c-0.5,0.5-1.3,0.4-1.7-0.1c-1.9-2.1-4.1-4-6.5-5.6c-0.5-0.4-0.7-1-0.4-1.6l1.4-2.7l-3.2-1.9l-1.4,2.6 c-0.3,0.6-1,0.8-1.6,0.5c-1.4-0.7-2.8-1.3-4.3-1.8c-1.2-0.4-2.4-0.8-3.6-1c-0.6-0.1-1-0.8-0.9-1.4l0.5-3.1l-3.6-0.6l-0.5,3.2 c-0.1,0.6-0.7,1.1-1.3,1c-2.8-0.2-5.6-0.1-8.3,0.3c-0.7,0.1-1.3-0.4-1.4-1l-0.5-3.1l-3.6,0.8l0.5,3.3c0.1,0.6-0.3,1.2-0.8,1.4 c-0.7,0.2-1.5,0.5-2.2,0.7c-1.9,0.7-3.8,1.6-5.6,2.6c-0.3,0.2-0.6,0.2-0.9,0.1c-0.3-0.1-0.6-0.3-0.7-0.6l-1.5-2.8l-3.3,2.1l1.6,3 c0.3,0.5,0.1,1.2-0.3,1.6c-2.3,1.7-4.4,3.7-6.3,5.9c-0.2,0.2-0.5,0.4-0.8,0.4c-0.3,0-0.6-0.1-0.9-0.3l-2.4-2.1l-2.5,3.2l2.5,2.2 c0.5,0.4,0.5,1.1,0.2,1.6c-1.5,2.2-2.7,4.6-3.8,7c-0.1,0.3-0.2,0.5-0.3,0.8c-0.2,0.6-0.9,0.9-1.6,0.7l-3-1.1l-1.3,3.9l3,1.1 c0.6,0.2,0.9,0.8,0.8,1.5c-0.4,1.4-0.7,2.9-0.9,4.4c-0.2,1.5-0.4,3-0.5,4.4c0,0.6-0.6,1.1-1.2,1.1l-3.2,0.1l0,4.1l3.2-0.1 c0.7,0,1.2,0.5,1.3,1.2c0,0.3,0,0.5,0.1,0.8c0.2,2.7,0.7,5.3,1.3,7.9c0.2,0.6-0.2,1.2-0.7,1.4l-3.1,1.3l1.3,3.8l2.9-1.2 c0.3-0.1,0.6-0.1,0.9,0c0.3,0.1,0.5,0.4,0.7,0.7c1.1,2.7,2.5,5.2,4.1,7.6c0.3,0.5,0.3,1.2-0.2,1.6l-2.5,2.3l2.4,3l2.3-2.2 c0.2-0.2,0.6-0.3,0.9-0.3c0.3,0,0.6,0.2,0.9,0.4c1.9,2.1,4,4,6.3,5.6c0.5,0.4,0.7,1,0.4,1.6l-1.6,2.9l3.2,1.9l1.5-2.8 c0.3-0.6,1-0.8,1.6-0.5c2.5,1.3,5.1,2.2,7.8,2.9c0.6,0.2,1,0.8,0.9,1.4L209.4,433.8z" style="fill:#1a1a1a"/></g><g><path d="M239,441.2c-0.1,0-0.1,0-0.2,0l-25-4.1c-0.3-0.1-0.6-0.2-0.8-0.5c-0.2-0.3-0.3-0.6-0.2-0.9l0.7-4.3 c0.1-0.6,0.7-1.1,1.3-1c1.2,0.1,2.5,0.2,3.7,0.2c1.5,0,3.1-0.1,4.6-0.3c0.6-0.1,1.3,0.4,1.4,1l0.5,2.9l3.6-0.8l-0.5-3 c-0.1-0.6,0.3-1.2,0.9-1.4c2.7-0.8,5.4-1.9,7.9-3.2c0.6-0.3,1.3-0.1,1.7,0.5l1.3,2.4l3.3-2.1l-1.4-2.5c-0.3-0.5-0.1-1.2,0.3-1.6 c2.4-1.8,4.6-3.8,6.5-6c0.4-0.5,1.2-0.6,1.7-0.1l1.9,1.7l2.5-3.2l-2-1.8c-0.5-0.4-0.6-1.1-0.2-1.6c1.7-2.5,3.1-5.2,4.3-8 c0.3-0.6,0.9-0.9,1.6-0.7l2.4,0.9l1.3-3.9l-2.4-0.9c-0.6-0.2-0.9-0.9-0.8-1.5c0.8-2.9,1.3-6,1.5-9c0-0.6,0.6-1.1,1.2-1.1l2.6-0.1 l0-4.1l-2.5,0.1c-0.7,0-1.2-0.5-1.3-1.1c-0.2-3-0.7-6-1.5-8.9c-0.2-0.6,0.1-1.2,0.7-1.4l2.5-1l-1.3-3.8l-2.4,1 c-0.6,0.3-1.3,0-1.6-0.7c-1.1-2.7-2.6-5.3-4.2-7.7c-0.3-0.5-0.3-1.2,0.2-1.6l2.1-2l-2.4-3l-2,1.9c-0.5,0.5-1.3,0.4-1.7-0.1 c-1.9-2.1-4.1-4-6.5-5.6c-0.5-0.4-0.7-1-0.4-1.6l1.4-2.7l-3.2-1.9l-1.4,2.6c-0.3,0.6-1,0.8-1.6,0.5c-1.4-0.7-2.8-1.3-4.3-1.8 c-1.2-0.4-2.4-0.8-3.6-1c-0.6-0.1-1-0.8-0.9-1.4l0.7-4.3c0.1-0.7,0.7-1.1,1.4-1l25,4.1c0.3,0.1,0.6,0.2,0.8,0.5 c0.2,0.3,0.3,0.6,0.2,0.9l-0.1,0.6l8.5,1.4c0.2,0,0.3,0.1,0.4,0.2l5.3,3.2c0.6,0.3,0.8,1,0.5,1.6l-1.5,2.8c0.4,0.3,0.9,0.7,1.3,1 l6.9,1.1c0.3,0,0.6,0.2,0.8,0.4l3.9,5c0.4,0.5,0.3,1.2-0.1,1.7l-2.2,2c0.9,1.4,1.8,2.9,2.6,4.4l4,0.7c0.4,0.1,0.8,0.4,1,0.8 l2.1,6.1c0.2,0.6-0.1,1.3-0.7,1.5l-2.6,1.1c0.5,2.2,0.9,4.4,1.1,6.7l2.9,0.5c0.6,0.1,1,0.6,1,1.2l0,6.6c0,0.7-0.5,1.2-1.2,1.2 l-2.6,0.1c-0.2,2.5-0.6,4.9-1.2,7.3l2.5,0.9c0.6,0.2,0.9,0.9,0.7,1.5l-2.1,6.3c-0.2,0.6-0.8,0.9-1.4,0.8l-2.9-0.5 c-0.9,2.1-2,4-3.2,6l2.1,1.8c0.5,0.4,0.6,1.2,0.2,1.7l-4,5.1c-0.3,0.4-0.7,0.5-1.2,0.5l-4-0.7c-1.2,1.2-2.5,2.3-3.8,3.4l1.4,2.6 c0.3,0.6,0.1,1.3-0.4,1.6l-5.3,3.4c-0.3,0.2-0.6,0.2-0.9,0.2l-6.9-1.1c-0.5,0.2-1.1,0.4-1.6,0.5l0.5,3.1c0.1,0.6-0.3,1.3-1,1.4 l-6,1.3c-0.3,0.1-0.7,0-1-0.2c0,0-0.1,0-0.1-0.1l-7.9-1.3l-0.1,0.8c-0.1,0.3-0.2,0.6-0.5,0.8C239.5,441.1,239.3,441.2,239,441.2z M225.6,436.5l12.4,2l0.1-0.8c0.1-0.3,0.2-0.6,0.5-0.8c0.3-0.2,0.6-0.3,0.9-0.2l9.7,1.6c0.1,0,0.1,0,0.2,0l4.3-0.9l-0.5-3 c-0.1-0.6,0.3-1.2,0.9-1.4c0.9-0.3,1.9-0.6,2.8-0.9c0.2-0.1,0.4-0.1,0.6-0.1l6.7,1.1l4-2.6l-1.4-2.5c-0.3-0.5-0.1-1.2,0.3-1.6 c1.7-1.3,3.4-2.7,4.9-4.2c0.3-0.3,0.7-0.4,1.1-0.3l3.9,0.6l2.8-3.7l-2-1.8c-0.5-0.4-0.5-1.1-0.2-1.6c1.5-2.3,2.9-4.8,4-7.3 c0.2-0.5,0.8-0.8,1.3-0.7l2.8,0.5l1.4-4.1l-2.3-0.8c-0.2-0.1-0.4-0.2-0.5-0.3c-0.3-0.3-0.4-0.8-0.3-1.3c0.8-2.9,1.3-5.9,1.5-8.9 c0-0.6,0.6-1.1,1.2-1.1l2.6-0.1l0-4.4l-2.8-0.5c-0.6-0.1-1-0.6-1-1.1c-0.2-2.8-0.7-5.5-1.4-8.2c-0.2-0.6,0.1-1.2,0.7-1.4l2.5-1 l-1.5-4.4l-3.9-0.6c-0.4-0.1-0.7-0.3-0.9-0.7c-0.9-1.9-2-3.8-3.2-5.6c-0.3-0.5-0.3-1.2,0.2-1.6l2.1-2l-2.9-3.7l-6.8-1.1 c-0.2,0-0.4-0.1-0.6-0.3c-0.8-0.7-1.6-1.2-2.3-1.8c-0.5-0.4-0.7-1-0.4-1.6l1.4-2.7l-4.1-2.4l-9.5-1.6c-0.3-0.1-0.6-0.2-0.8-0.5 s-0.3-0.6-0.2-0.9l0.1-0.6l-12.4-2l4.2,2.5c0.6,0.3,0.8,1,0.5,1.6l-1.5,2.8c1.8,1.3,3.5,2.8,5.1,4.4l2.1-1.9 c0.2-0.2,0.6-0.4,0.9-0.3c0.3,0,0.7,0.2,0.9,0.5l3.9,5c0.4,0.5,0.3,1.2-0.1,1.7l-2.2,2c1.3,2,2.4,4,3.4,6.2l2.5-1 c0.3-0.1,0.7-0.1,1,0c0.3,0.1,0.5,0.4,0.7,0.7l2.1,6.1c0.2,0.6-0.1,1.3-0.7,1.5l-2.6,1.1c0.6,2.4,1,4.8,1.2,7.2l2.6-0.1 c0.3,0,0.6,0.1,0.9,0.3c0.2,0.2,0.4,0.5,0.4,0.9l0,6.6c0,0.7-0.5,1.2-1.2,1.2l-2.6,0.1c-0.2,2.5-0.6,4.9-1.2,7.3l2.5,0.9 c0.6,0.2,0.9,0.9,0.7,1.5l-2.1,6.3c-0.1,0.3-0.3,0.6-0.6,0.7c-0.3,0.1-0.6,0.2-1,0l-2.4-0.9c-1,2.2-2.1,4.4-3.4,6.4l2.1,1.8 c0.5,0.4,0.6,1.2,0.2,1.7l-4,5.1c-0.2,0.3-0.5,0.4-0.9,0.5c-0.3,0-0.7-0.1-0.9-0.3l-2-1.8c-1.6,1.7-3.4,3.3-5.2,4.8l1.4,2.6 c0.3,0.6,0.1,1.3-0.4,1.6l-5.3,3.4c-0.3,0.2-0.6,0.2-1,0.2c-0.3-0.1-0.6-0.3-0.8-0.6l-1.4-2.5c-2,1-4.1,1.9-6.3,2.5l0.5,3.1 c0.1,0.6-0.3,1.3-1,1.4L225.6,436.5z M215.4,434.8l7.5,1.2c0-0.1-0.1-0.2-0.1-0.3l-0.5-3c-1.4,0.1-2.7,0.2-4.1,0.2 c-0.8,0-1.7,0-2.5-0.1L215.4,434.8z M231,340.9c0.9,0.2,1.8,0.5,2.7,0.8c1.2,0.4,2.3,0.9,3.5,1.4l1.4-2.7c0-0.1,0.1-0.2,0.2-0.2 l-7.5-1.2L231,340.9z" style="fill:#1a1a1a"/></g><g><path d="M285.1,401.8l3.5,1.3l-2.1,6.3l-3.8-0.6c-1.1,2.6-2.5,5.2-4.1,7.5l2.9,2.5l-4,5.1l-4.6-0.8 c-1.6,1.6-3.2,3-5,4.3l1.9,3.5l-5.3,3.4l-7.2-1.2c-0.9,0.4-1.9,0.7-2.9,0.9l0.7,4.2l-6,1.3l0-0.2l-9.7-1.6l-0.3,2l-24.9-0.4 l0.7-8c1.3,0.1,2.6,0.2,3.9,0.2c1.6,0,3.2-0.1,4.8-0.3l0.6,3.4l0.1,0.8l0.4-0.1h0l5.6-1.2l-0.1-0.8l-0.5-3.3 c2.8-0.8,5.6-1.9,8.1-3.3l1.9,3.6l5.3-3.4l-1.9-3.5c2.4-1.8,4.7-3.9,6.7-6.1l2.9,2.6l4-5.1l-2.9-2.5c1.7-2.6,3.2-5.3,4.4-8.2 l3.5,1.3l2.1-6.3l-3.5-1.3c0.8-3,1.3-6.1,1.5-9.3l3.7-0.1l0-6.6l-3.8,0.1c-0.2-3.1-0.7-6.2-1.5-9.2l3.5-1.5l-2.1-6.1l-3.6,1.5 c-1.2-2.8-2.6-5.5-4.4-8l3-2.7l-3.9-5l-3,2.8c-2-2.2-4.2-4.1-6.7-5.8l1.6-3l0.4-0.8l-5.3-3.2l-0.4,0.7l-1.6,3.1 c-1.4-0.7-2.9-1.3-4.4-1.8c-1.2-0.4-2.5-0.8-3.7-1.1l0.7-4.3l25,4.1l-0.3,1.9l9.7,1.6l5.3,3.2l-2,3.7c0.8,0.6,1.6,1.2,2.4,1.8 l7.2,1.2l3.9,5l-3,2.7c1.3,1.8,2.4,3.7,3.3,5.7l4.6,0.8l2.1,6.1l-3.5,1.5c0.7,2.8,1.2,5.6,1.5,8.4l3.8,0.6l0,6.6l-3.7,0.1 C286.4,395.7,285.9,398.8,285.1,401.8L285.1,401.8z" style="fill:#1a1a1a"/></g><g><path d="M193.5,424c-0.1,0-0.1,0-0.2,0l-7.9-1.3c-0.7-0.1-1.1-0.7-1-1.4c0.1-0.7,0.7-1.1,1.4-1l7.9,1.3 c0.7,0.1,1.1,0.7,1,1.4C194.6,423.6,194.1,424,193.5,424z" style="fill:#1a1a1a"/></g><g><path d="M208.3,434.2c-0.1,0-0.1,0-0.2,0l-9.7-1.6c-0.7-0.1-1.1-0.7-1-1.4c0.1-0.7,0.7-1.1,1.4-1l9.7,1.6 c0.7,0.1,1.1,0.7,1,1.4C209.4,433.8,208.9,434.2,208.3,434.2z" style="fill:#1a1a1a"/></g><g><path d="M249.1,440.8c-0.1,0-0.1,0-0.2,0l-0.1,0c-0.7-0.1-1.1-0.7-1-1.4c0.1-0.7,0.7-1.1,1.4-1 c0.7,0.1,1.1,0.7,1,1.4C250.1,440.3,249.6,440.8,249.1,440.8z" style="fill:#1a1a1a"/></g><g><path d="M186.8,421.2l5.1,0.8l-2.5-3.1L186.8,421.2z" style="fill:#1a1a1a"/></g><g><polygon points="199.1 431.2 208 432.2 207.6 430.8 200.7 428.2" style="fill:#1a1a1a"/></g><g><ellipse cx="217.7" cy="386" rx="31.1" ry="25.9" transform="matrix(0.163 -0.9866 0.9866 0.163 -198.5419 537.8772)" style="fill:#1a1a1a"/></g><g><path d="M201.1,403.3c-0.5,0-0.9-0.3-1.1-0.8c-5.2-13.2-2.6-28,6.8-38.6c0.4-0.5,1.2-0.5,1.7-0.1 c0.5,0.4,0.5,1.2,0.1,1.7c-8.8,9.9-11.3,23.7-6.4,36.1c0.2,0.6-0.1,1.3-0.7,1.6C201.4,403.3,201.2,403.3,201.1,403.3z" style="fill:#fece2f"/></g><g><ellipse cx="217.5" cy="387.3" rx="10.6" ry="8" transform="matrix(0.163 -0.9866 0.9866 0.163 -200.0797 538.7996)" style="fill:#fece2f"/></g><g><path d="M213.3,393.5c-0.5,0-1-0.4-1.2-0.9c-1-4.1-0.3-8.4,2-11.9c0.4-0.6,1.1-0.7,1.7-0.3c0.6,0.4,0.7,1.1,0.3,1.7 c-1.9,2.9-2.6,6.5-1.7,9.9c0.2,0.7-0.2,1.3-0.9,1.5C213.5,393.5,213.4,393.5,213.3,393.5z" style="fill:#1a1a1a"/></g><g><path d="M508.7,398l3.5,1.3l-2.2,6.2l-3.5-1.3c-1.2,2.9-2.7,5.6-4.5,8.2l2.9,2.6l-4,5.1l-2.9-2.6 c-2,2.2-4.3,4.3-6.8,6.1l1.9,3.6l-5.4,3.4l-1.9-3.6c-2.6,1.4-5.3,2.5-8.2,3.2l0.5,3.3l0.1,0.9l-5.6,1.1h0l-0.4,0.1l-0.1-0.8 l-0.5-3.5c-1.6,0.2-3.2,0.3-4.8,0.3c-1.3,0-2.6-0.1-3.9-0.2l-0.8,4.3l-6-1.1l0.8-4.4c-2.8-0.7-5.5-1.8-8-3.1l-2.1,3.9l-5.3-3.2 l2.2-4c-2.3-1.7-4.5-3.7-6.4-5.9l-3.3,3l-3.9-5l3.4-3c-1.6-2.5-3-5.1-4.1-7.9l-4.1,1.7l-2-6.2l4.1-1.7c-0.7-2.7-1.1-5.4-1.3-8.1 c0-0.3,0-0.6-0.1-0.8l-4.4,0.1l0.1-6.6l4.4-0.1c0.1-1.5,0.3-3,0.6-4.5c0.3-1.5,0.6-3,1-4.5l-4.1-1.6l2.2-6.2l4.1,1.6 c0.1-0.3,0.2-0.5,0.3-0.8c1.1-2.5,2.4-4.9,4-7.2l-3.3-3l4-5.1l3.3,3c2-2.2,4.2-4.2,6.6-6l-2.1-4l5.4-3.4l2.1,4 c1.9-1,3.8-1.9,5.8-2.6c0.8-0.3,1.5-0.5,2.3-0.7l-0.7-4.5l6.1-1.2l0.7,4.4c2.8-0.4,5.7-0.4,8.6-0.2l0.8-4.4l6,1.1l-0.8,4.3 c1.3,0.3,2.5,0.7,3.7,1.1c1.5,0.5,3,1.1,4.4,1.9l1.7-3.1l0.4-0.7l5.3,3.2l-0.4,0.8l-1.6,2.9c2.4,1.7,4.6,3.7,6.6,5.8l3-2.7l3.9,5 l-3,2.7c1.7,2.5,3.1,5.2,4.3,8l3.6-1.5l2,6.2L509,373c0.8,3,1.2,6.1,1.4,9.2l3.8,0l-0.1,6.6l-3.8,0.1 C510.1,391.9,509.5,395,508.7,398L508.7,398z" style="fill:#fece2f"/></g><g><path d="M462.2,436.9c-0.1,0-0.1,0-0.2,0l-6-1.1c-0.7-0.1-1.1-0.8-1-1.4l0.6-3.3c-2.1-0.6-4.1-1.4-6.1-2.3l-1.6,2.9 c-0.2,0.3-0.4,0.5-0.8,0.6c-0.3,0.1-0.7,0-1-0.1l-5.3-3.2c-0.6-0.3-0.7-1.1-0.4-1.6l1.7-3c-1.8-1.4-3.4-2.9-4.9-4.5l-2.4,2.2 c-0.3,0.2-0.6,0.3-0.9,0.3c-0.3,0-0.7-0.2-0.9-0.5l-3.9-5c-0.4-0.5-0.3-1.2,0.1-1.7l2.6-2.3c-1.2-1.9-2.3-4-3.2-6.1l-3,1.2 c-0.3,0.1-0.7,0.1-1,0c-0.3-0.1-0.5-0.4-0.6-0.7l-2-6.2c-0.2-0.6,0.1-1.3,0.7-1.5l3.2-1.3c-0.5-2.3-0.9-4.6-1-7l-3.3,0 c-0.3,0-0.6-0.1-0.9-0.4c-0.2-0.2-0.4-0.6-0.4-0.9l0.1-6.6c0-0.7,0.5-1.2,1.2-1.2l3.3,0c0.1-1.2,0.3-2.4,0.5-3.5 c0.2-1.2,0.5-2.4,0.7-3.5l-3.1-1.2c-0.6-0.2-0.9-0.9-0.7-1.5l2.2-6.2c0.1-0.3,0.3-0.6,0.6-0.7c0.3-0.1,0.6-0.2,0.9,0l3,1.2 c1-2.1,2.1-4.2,3.4-6.2l-2.5-2.3c-0.5-0.4-0.5-1.2-0.1-1.7l4-5.1c0.2-0.3,0.5-0.4,0.9-0.5c0.3,0,0.7,0.1,0.9,0.3l2.4,2.2 c1.6-1.7,3.3-3.2,5.1-4.6l-1.6-3.1c-0.3-0.6-0.1-1.3,0.4-1.6l5.4-3.4c0.3-0.2,0.6-0.2,1-0.1c0.3,0.1,0.6,0.3,0.8,0.6l1.5,2.9 c1.6-0.8,3.2-1.5,4.8-2.1c0.4-0.2,0.9-0.3,1.3-0.4l-0.5-3.4c-0.1-0.6,0.3-1.3,1-1.4l6.1-1.2c0.3-0.1,0.7,0,0.9,0.2 c0.3,0.2,0.5,0.5,0.5,0.8l0.5,3.2c2.2-0.2,4.4-0.3,6.5-0.1l0.6-3.3c0.1-0.7,0.8-1.1,1.4-1l6,1.1c0.7,0.1,1.1,0.8,1,1.4l-0.6,3.2 c0.9,0.3,1.8,0.5,2.7,0.9c1.2,0.4,2.3,0.9,3.5,1.4l1.5-2.7c0.2-0.3,0.4-0.5,0.8-0.6c0.3-0.1,0.7,0,1,0.1l5.3,3.2 c0.6,0.3,0.7,1.1,0.4,1.6l-1.5,2.8c1.8,1.4,3.5,2.9,5.1,4.5l2.1-1.9c0.3-0.2,0.6-0.3,0.9-0.3c0.3,0,0.6,0.2,0.9,0.5l3.9,5 c0.4,0.5,0.3,1.2-0.1,1.7l-2.2,2c1.3,2,2.4,4.1,3.3,6.2l2.5-1c0.3-0.1,0.7-0.1,1,0c0.3,0.1,0.5,0.4,0.6,0.7l2,6.2 c0.2,0.6-0.1,1.3-0.7,1.5l-2.6,1c0.6,2.4,0.9,4.8,1.1,7.2l2.6,0c0.3,0,0.6,0.1,0.9,0.4c0.2,0.2,0.4,0.6,0.4,0.9l-0.1,6.6 c0,0.7-0.5,1.2-1.2,1.2l-2.6,0c-0.2,2.5-0.7,4.9-1.3,7.3l2.5,0.9c0.6,0.2,0.9,0.9,0.7,1.5l-2.2,6.2c-0.1,0.3-0.3,0.6-0.6,0.7 c-0.3,0.1-0.6,0.2-1,0l-2.4-0.9c-1,2.2-2.2,4.4-3.5,6.4l2.1,1.9c0.5,0.4,0.5,1.2,0.1,1.7l-4,5.1c-0.2,0.3-0.5,0.4-0.9,0.5 c-0.3,0-0.7-0.1-0.9-0.3l-2-1.8c-1.6,1.7-3.4,3.3-5.3,4.7l1.4,2.6c0.3,0.6,0.1,1.3-0.4,1.6l-5.4,3.4c-0.3,0.2-0.6,0.2-1,0.1 c-0.3-0.1-0.6-0.3-0.8-0.6l-1.3-2.5c-2,1-4.1,1.8-6.3,2.5l0.5,3.1c0.1,0.6-0.3,1.3-1,1.4l-5.6,1.1c0,0,0,0-0.1,0l-0.4,0.1 c-0.3,0.1-0.7,0-1-0.2c-0.3-0.2-0.5-0.5-0.5-0.8l-0.5-3.1c-1.2,0.1-2.5,0.2-3.7,0.1c-0.9,0-1.9,0-2.8-0.1l-0.6,3.2 c-0.1,0.3-0.2,0.6-0.5,0.8C462.7,436.8,462.5,436.9,462.2,436.9z M457.6,433.6l3.6,0.6l0.5-3.1c0.1-0.6,0.7-1.1,1.3-1 c1.2,0.1,2.5,0.2,3.7,0.2c1.5,0,3.1-0.1,4.6-0.2c0.6-0.1,1.3,0.4,1.4,1l0.5,2.9l3.7-0.7l-0.5-3c-0.1-0.6,0.3-1.2,0.9-1.4 c2.7-0.8,5.4-1.8,7.9-3.1c0.6-0.3,1.3-0.1,1.6,0.5l1.3,2.4l3.3-2.1l-1.3-2.6c-0.3-0.5-0.1-1.2,0.4-1.6c2.4-1.7,4.6-3.7,6.6-5.9 c0.5-0.5,1.2-0.5,1.7-0.1l1.9,1.7l2.5-3.2l-2-1.8c-0.5-0.4-0.5-1.1-0.2-1.6c1.7-2.5,3.2-5.2,4.3-7.9c0.3-0.6,0.9-0.9,1.6-0.7 l2.3,0.9l1.4-3.9l-2.3-0.9c-0.1,0-0.2-0.1-0.3-0.1c-0.5-0.3-0.7-0.8-0.6-1.4c0.8-2.9,1.4-6,1.6-9c0-0.6,0.6-1.1,1.2-1.1l2.6,0 l0.1-4.1l-2.5,0c0,0,0,0,0,0c-0.6,0-1.2-0.5-1.2-1.2c-0.2-3-0.6-6-1.4-8.9c-0.2-0.6,0.2-1.2,0.7-1.4l2.5-1l-1.3-3.8l-2.4,1 c-0.6,0.2-1.3,0-1.6-0.7c-1.1-2.7-2.5-5.3-4.2-7.8c-0.3-0.5-0.3-1.2,0.2-1.6l2.1-1.9l-2.4-3.1l-2,1.8c-0.5,0.5-1.3,0.4-1.7-0.1 c-1.9-2.1-4.1-4-6.4-5.7c-0.5-0.4-0.7-1-0.4-1.6l1.5-2.7l-3.2-1.9l-1.4,2.6c-0.3,0.6-1,0.8-1.6,0.5c-1.4-0.7-2.8-1.3-4.2-1.8 c-1.2-0.4-2.4-0.8-3.6-1.1c-0.6-0.2-1-0.8-0.9-1.4l0.5-3.1l-3.6-0.6l-0.6,3.2c-0.1,0.6-0.7,1.1-1.3,1c-2.8-0.3-5.6-0.2-8.3,0.2 c-0.7,0.1-1.3-0.4-1.4-1l-0.5-3.1l-3.7,0.7l0.5,3.3c0.1,0.6-0.3,1.2-0.9,1.4c-0.7,0.2-1.5,0.5-2.2,0.7c-1.9,0.7-3.8,1.5-5.6,2.5 c-0.3,0.2-0.6,0.2-0.9,0.1c-0.3-0.1-0.6-0.3-0.7-0.6l-1.5-2.8l-3.3,2.1l1.6,3c0.3,0.5,0.1,1.2-0.4,1.6c-2.3,1.7-4.5,3.7-6.4,5.8 c-0.2,0.2-0.5,0.4-0.8,0.4c-0.3,0-0.6-0.1-0.9-0.3l-2.3-2.1l-2.5,3.2l2.5,2.2c0.5,0.4,0.5,1.1,0.2,1.6c-1.5,2.2-2.8,4.6-3.9,7 c-0.1,0.3-0.2,0.5-0.3,0.8c-0.3,0.6-0.9,0.9-1.6,0.7l-3-1.1l-1.4,3.9l3,1.1c0.6,0.2,0.9,0.9,0.7,1.5c-0.4,1.4-0.7,2.9-1,4.4 c-0.3,1.5-0.5,3-0.6,4.4c-0.1,0.6-0.6,1.1-1.2,1.1l-3.2,0l0,4.1l3.2,0c0,0,0,0,0,0c0.7,0,1.2,0.5,1.2,1.2c0,0.3,0,0.5,0.1,0.8 c0.2,2.7,0.6,5.3,1.2,7.9c0.1,0.6-0.2,1.2-0.7,1.4l-3.1,1.2l1.3,3.8l2.9-1.2c0.3-0.1,0.6-0.1,0.9,0c0.3,0.1,0.5,0.4,0.7,0.7 c1.1,2.7,2.4,5.3,4,7.7c0.3,0.5,0.2,1.2-0.2,1.6l-2.5,2.3l2.4,3.1l2.3-2.1c0.2-0.2,0.6-0.3,0.9-0.3c0.3,0,0.6,0.2,0.8,0.4 c1.9,2.1,4,4,6.2,5.7c0.5,0.4,0.6,1,0.3,1.6l-1.6,2.9l3.2,1.9l1.5-2.8c0.3-0.6,1.1-0.8,1.6-0.5c2.5,1.3,5.1,2.3,7.7,3 c0.6,0.2,1,0.8,0.9,1.4L457.6,433.6z" style="fill:#1a1a1a"/></g><g><path d="M487.2,441.2c-0.1,0-0.1,0-0.2,0l-24.9-4.4c-0.7-0.1-1.1-0.8-1-1.4l0.8-4.3c0.1-0.6,0.7-1.1,1.3-1 c1.2,0.1,2.5,0.2,3.7,0.2c1.5,0,3.1-0.1,4.6-0.2c0.6-0.1,1.3,0.4,1.4,1l0.5,2.9l3.7-0.7l-0.5-3c-0.1-0.6,0.3-1.2,0.9-1.4 c2.7-0.8,5.4-1.8,7.9-3.1c0.6-0.3,1.3-0.1,1.6,0.5l1.3,2.4l3.3-2.1l-1.4-2.6c-0.3-0.5-0.1-1.2,0.4-1.6c2.4-1.7,4.6-3.7,6.6-5.9 c0.5-0.5,1.2-0.5,1.7-0.1l1.9,1.7l2.5-3.2l-2-1.8c-0.5-0.4-0.5-1.1-0.2-1.6c1.7-2.5,3.2-5.2,4.3-7.9c0.3-0.6,0.9-0.9,1.6-0.7 l2.3,0.9l1.4-3.9l-2.4-0.9c-0.6-0.2-0.9-0.9-0.7-1.5c0.8-2.9,1.4-6,1.6-9c0-0.6,0.6-1.1,1.2-1.1l2.6,0l0.1-4.1l-2.5,0 c0,0,0,0,0,0c-0.6,0-1.2-0.5-1.2-1.2c-0.2-3-0.6-6-1.4-8.9c-0.2-0.6,0.2-1.2,0.7-1.4l2.5-1l-1.3-3.8l-2.4,1 c-0.6,0.2-1.3,0-1.6-0.7c-1.1-2.7-2.5-5.3-4.2-7.8c-0.3-0.5-0.3-1.2,0.2-1.6l2.1-1.9l-2.4-3.1l-2,1.8c-0.5,0.5-1.3,0.4-1.7-0.1 c-1.9-2.1-4.1-4-6.4-5.7c-0.5-0.4-0.7-1-0.4-1.6l1.5-2.7l-3.2-1.9l-1.4,2.6c-0.3,0.6-1,0.8-1.6,0.5c-1.4-0.7-2.8-1.3-4.2-1.8 c-1.2-0.4-2.4-0.8-3.6-1.1c-0.6-0.2-1-0.8-0.9-1.4l0.8-4.3c0.1-0.7,0.8-1.1,1.4-1l24.9,4.4c0.7,0.1,1.1,0.8,1,1.4l-0.1,0.6 l8.5,1.5c0.2,0,0.3,0.1,0.4,0.2l5.3,3.2c0.6,0.3,0.8,1.1,0.4,1.6l-1.5,2.8c0.4,0.3,0.9,0.7,1.3,1l6.9,1.2 c0.3,0.1,0.6,0.2,0.8,0.5l3.9,5c0.4,0.5,0.3,1.2-0.1,1.7l-2.2,2c0.9,1.4,1.8,2.9,2.5,4.4l4,0.7c0.4,0.1,0.8,0.4,1,0.8l2,6.2 c0.2,0.6-0.1,1.3-0.7,1.5l-2.6,1c0.5,2.2,0.9,4.4,1.1,6.7l2.9,0.5c0.6,0.1,1,0.6,1,1.2l-0.1,6.6c0,0.7-0.5,1.2-1.2,1.2l-2.6,0 c-0.2,2.5-0.7,4.9-1.3,7.3l2.5,0.9c0.6,0.2,0.9,0.9,0.7,1.5l-2.2,6.2c-0.2,0.6-0.8,0.9-1.4,0.8l-2.9-0.5c-1,2-2.1,4-3.3,5.9 l2.1,1.9c0.5,0.4,0.5,1.2,0.1,1.7l-4,5.1c-0.3,0.4-0.7,0.5-1.2,0.4l-4-0.7c-1.2,1.2-2.5,2.3-3.9,3.3l1.4,2.6 c0.3,0.6,0.1,1.3-0.4,1.6l-5.4,3.4c-0.3,0.2-0.6,0.2-0.9,0.2l-6.9-1.2c-0.5,0.2-1.1,0.4-1.6,0.5l0.5,3.1c0.1,0.6-0.3,1.3-1,1.4 l-6.1,1.2c-0.3,0.1-0.7,0-0.9-0.2c0,0-0.1,0-0.1-0.1l-7.9-1.4l-0.1,0.8C488.3,440.8,487.8,441.2,487.2,441.2z M473.8,436.4 l12.4,2.2l0.1-0.8c0.1-0.7,0.8-1.1,1.4-1l9.6,1.7c0.1,0,0.1,0,0.2,0l4.3-0.9l-0.5-3c-0.1-0.6,0.3-1.2,0.9-1.4 c0.9-0.2,1.8-0.5,2.8-0.9c0.2-0.1,0.4-0.1,0.6-0.1l6.7,1.2l4-2.5l-1.3-2.6c-0.3-0.5-0.1-1.2,0.4-1.6c1.7-1.3,3.4-2.7,4.9-4.2 c0.3-0.3,0.7-0.4,1.1-0.3l3.9,0.7l2.8-3.6l-2-1.8c-0.5-0.4-0.5-1.1-0.2-1.6c1.6-2.3,2.9-4.8,4.1-7.3c0.2-0.5,0.8-0.8,1.3-0.7 l2.8,0.5l1.4-4.1l-2.4-0.9c-0.3-0.1-0.6-0.4-0.7-0.7c-0.1-0.3-0.1-0.5,0-0.8c0.8-2.9,1.3-5.9,1.6-9c0-0.6,0.6-1.1,1.2-1.1l2.6,0 l0.1-4.4l-2.8-0.5c-0.6-0.1-1-0.6-1-1.1c-0.2-2.8-0.6-5.5-1.3-8.2c-0.2-0.6,0.2-1.2,0.7-1.4l2.5-1l-1.4-4.4l-3.9-0.7 c-0.4-0.1-0.7-0.3-0.9-0.7c-0.9-1.9-2-3.8-3.2-5.6c-0.3-0.5-0.3-1.2,0.2-1.6l2.1-1.9l-2.9-3.7l-6.7-1.2c-0.2,0-0.4-0.1-0.6-0.3 c-0.8-0.7-1.6-1.3-2.3-1.8c-0.5-0.4-0.7-1-0.4-1.6l1.5-2.7l-4.1-2.5l-9.5-1.7c-0.7-0.1-1.1-0.8-1-1.4l0.1-0.6l-12.4-2.2l4.1,2.5 c0.6,0.3,0.7,1.1,0.4,1.6l-1.5,2.8c1.8,1.4,3.5,2.9,5.1,4.5l2.1-1.9c0.3-0.2,0.6-0.3,0.9-0.3c0.3,0,0.6,0.2,0.9,0.5l3.9,5 c0.4,0.5,0.3,1.2-0.1,1.7l-2.2,2c1.3,2,2.4,4.1,3.3,6.2l2.5-1c0.3-0.1,0.7-0.1,1,0c0.3,0.1,0.5,0.4,0.6,0.7l2,6.2 c0.2,0.6-0.1,1.3-0.7,1.5l-2.6,1c0.6,2.4,0.9,4.8,1.1,7.2l2.6,0c0,0,0,0,0,0c0.3,0,0.6,0.1,0.9,0.4c0.2,0.2,0.4,0.6,0.4,0.9 l-0.1,6.6c0,0.7-0.5,1.2-1.2,1.2l-2.6,0c-0.2,2.5-0.7,4.9-1.3,7.3l2.5,0.9c0.6,0.2,0.9,0.9,0.7,1.5l-2.2,6.2 c-0.1,0.3-0.3,0.6-0.6,0.7c-0.3,0.1-0.6,0.2-1,0l-2.4-0.9c-1,2.2-2.2,4.4-3.5,6.4l2.1,1.9c0.5,0.4,0.5,1.2,0.1,1.7l-4,5.1 c-0.2,0.3-0.5,0.4-0.9,0.5c-0.3,0-0.7-0.1-0.9-0.3l-2-1.8c-1.6,1.7-3.4,3.3-5.3,4.7l1.4,2.6c0.3,0.6,0.1,1.3-0.4,1.6l-5.4,3.4 c-0.3,0.2-0.6,0.2-1,0.1c-0.3-0.1-0.6-0.3-0.8-0.6l-1.3-2.5c-2,1-4.1,1.8-6.3,2.5l0.5,3.1c0.1,0.6-0.3,1.3-1,1.4L473.8,436.4z M463.7,434.6l7.5,1.3c0-0.1-0.1-0.2-0.1-0.3l-0.5-3.1c-1.2,0.1-2.5,0.2-3.7,0.1c-0.9,0-1.9,0-2.8-0.1L463.7,434.6z M480.1,340.9 c0.9,0.3,1.8,0.5,2.7,0.9c1.2,0.4,2.3,0.9,3.5,1.4l1.5-2.7c0-0.1,0.1-0.2,0.2-0.2l-7.5-1.3L480.1,340.9z" style="fill:#1a1a1a"/></g><g><path d="M533.6,402.4l3.5,1.3l-2.2,6.2l-3.8-0.7c-1.2,2.6-2.6,5.1-4.2,7.5l2.9,2.6l-4,5.1l-4.6-0.8 c-1.6,1.6-3.3,3-5,4.3l1.9,3.6l-5.4,3.4l-7.2-1.3c-0.9,0.3-1.9,0.6-2.9,0.9l0.6,4.2l-6.1,1.2l0-0.2l-9.6-1.7l-0.4,2l-24.9-4.4 l0.8-4.3c1.3,0.1,2.6,0.2,3.9,0.2c1.6,0,3.2-0.1,4.8-0.3l0.5,3.5l0.1,0.8l0.4-0.1h0l5.6-1.1l-0.1-0.9l-0.5-3.3 c2.8-0.8,5.6-1.9,8.2-3.2l1.9,3.6l5.4-3.4l-1.9-3.6c2.5-1.8,4.7-3.8,6.8-6.1l2.9,2.6l4-5.1l-2.9-2.6c1.8-2.6,3.2-5.3,4.5-8.2 l3.5,1.3l2.2-6.2l-3.5-1.3c0.8-3,1.4-6.1,1.6-9.3l3.8-0.1l0.1-6.6l-3.8,0c-0.2-3.1-0.6-6.2-1.4-9.2l3.6-1.4l-2-6.2l-3.6,1.5 c-1.2-2.8-2.6-5.5-4.3-8l3-2.7l-3.9-5l-3,2.7c-2-2.2-4.2-4.1-6.6-5.8l1.6-2.9l0.4-0.8l-5.3-3.2l-0.4,0.7l-1.7,3.1 c-1.4-0.7-2.9-1.3-4.4-1.9c-1.2-0.4-2.5-0.8-3.7-1.1l0.8-4.3l24.9,4.4l-0.3,1.9l9.7,1.7l5.3,3.2l-2,3.7c0.8,0.6,1.6,1.2,2.4,1.8 l7.2,1.3l3.9,5l-3,2.7c1.2,1.8,2.3,3.8,3.3,5.7l4.6,0.8l2,6.2l-3.6,1.4c0.7,2.8,1.2,5.6,1.4,8.5l3.8,0.7l-0.1,6.6l-3.8,0.1 C535,396.3,534.5,399.4,533.6,402.4L533.6,402.4z" style="fill:#1a1a1a"/></g><g><path d="M430.3,408.9c-0.1,0-0.1,0-0.2,0l-5.1-0.9c-0.7-0.1-1.1-0.8-1-1.4c0.1-0.7,0.8-1.1,1.4-1l5.1,0.9 c0.7,0.1,1.1,0.8,1,1.4C431.4,408.4,430.9,408.9,430.3,408.9z" style="fill:#1a1a1a"/></g><g><path d="M441.9,423.6c-0.1,0-0.1,0-0.2,0l-7.9-1.4c-0.7-0.1-1.1-0.8-1-1.4c0.1-0.7,0.8-1.1,1.4-1l7.9,1.4 c0.7,0.1,1.1,0.8,1,1.4C443,423.2,442.4,423.6,441.9,423.6z" style="fill:#1a1a1a"/></g><g><path d="M456.5,434c-0.1,0-0.1,0-0.2,0l-9.7-1.7c-0.7-0.1-1.1-0.8-1-1.4c0.1-0.7,0.8-1.1,1.4-1l9.7,1.7 c0.7,0.1,1.1,0.8,1,1.4C457.6,433.5,457.1,434,456.5,434z" style="fill:#1a1a1a"/></g><g><path d="M497.2,440.9c-0.1,0-0.1,0-0.2,0l-0.1,0c-0.7-0.1-1.1-0.8-1-1.4c0.1-0.7,0.8-1.1,1.4-1 c0.7,0.1,1.1,0.8,1,1.4C498.3,440.5,497.8,440.9,497.2,440.9z" style="fill:#1a1a1a"/></g><g><path d="M435.1,420.7l5.1,0.9l-2.5-3.1L435.1,420.7z" style="fill:#1a1a1a"/></g><g><polygon points="447.4 430.8 456.3 431.9 455.9 430.5 449 427.9" style="fill:#1a1a1a"/></g><g><ellipse cx="467.9" cy="386.1" rx="31.1" ry="25.9" transform="matrix(0.1732 -0.9849 0.9849 0.1732 6.6166 779.9984)" style="fill:#1a1a1a"/></g><g><path d="M451,403.2c-0.5,0-1-0.3-1.1-0.8c-5.1-13.3-2.3-28,7.2-38.5c0.5-0.5,1.2-0.5,1.7-0.1 c0.5,0.5,0.5,1.2,0.1,1.7c-8.9,9.8-11.5,23.6-6.7,36c0.2,0.6-0.1,1.3-0.7,1.6C451.3,403.2,451.2,403.2,451,403.2z" style="fill:#fece2f"/></g><g><ellipse cx="467.6" cy="387.4" rx="10.6" ry="8" transform="matrix(0.1732 -0.9849 0.9849 0.1732 5.0732 780.8917)" style="fill:#fece2f"/></g><g><path d="M463.4,393.5c-0.6,0-1.1-0.4-1.2-0.9c-1-4.1-0.2-8.4,2.2-11.9c0.4-0.6,1.1-0.7,1.7-0.3 c0.6,0.4,0.7,1.1,0.3,1.7c-2,2.9-2.6,6.5-1.8,9.9c0.2,0.7-0.2,1.3-0.9,1.5C463.6,393.5,463.5,393.5,463.4,393.5z" style="fill:#1a1a1a"/></g><g><path d="M473.1,339.5c-0.1,0-0.1,0-0.2,0l-9.7-1.7c-0.7-0.1-1.1-0.8-1-1.4c0.1-0.7,0.8-1.1,1.4-1l9.7,1.7 c0.7,0.1,1.1,0.8,1,1.4C474.2,339.1,473.7,339.5,473.1,339.5z" style="fill:#1a1a1a"/></g><g><path d="M455.9,344.3c-0.1,0-0.1,0-0.2,0l-7.9-1.4c-0.7-0.1-1.1-0.8-1-1.4c0.1-0.7,0.8-1.1,1.4-1l7.9,1.4 c0.7,0.1,1.1,0.8,1,1.4C457,343.8,456.4,344.3,455.9,344.3z" style="fill:#1a1a1a"/></g><g><path d="M440,354.2c-0.1,0-0.1,0-0.2,0l-5.2-0.9c-0.7-0.1-1.1-0.8-1-1.4c0.1-0.7,0.8-1.1,1.4-1l5.2,0.9 c0.7,0.1,1.1,0.8,1,1.4C441.1,353.8,440.6,354.2,440,354.2z" style="fill:#1a1a1a"/></g><g><path d="M430.2,368.6c-0.1,0-0.1,0-0.2,0l-4.5-0.8c-0.7-0.1-1.1-0.8-1-1.4c0.1-0.7,0.8-1.1,1.4-1l4.5,0.8 c0.7,0.1,1.1,0.8,1,1.4C431.3,368.2,430.8,368.6,430.2,368.6z" style="fill:#1a1a1a"/></g><g><path d="M426.1,392c-0.1,0-0.1,0-0.2,0l-4.5-0.8c-0.7-0.1-1.1-0.8-1-1.4c0.1-0.7,0.8-1.1,1.4-1l4.5,0.8 c0.7,0.1,1.1,0.8,1,1.4C427.2,391.6,426.7,392,426.1,392z" style="fill:#1a1a1a"/></g><g><path d="M519.5,355.4c-0.1,0-0.1,0-0.2,0l-0.7-0.1c-0.7-0.1-1.1-0.8-1-1.4c0.1-0.7,0.8-1.1,1.4-1l0.7,0.1 c0.7,0.1,1.1,0.8,1,1.4C520.6,355,520,355.4,519.5,355.4z" style="fill:#1a1a1a"/></g><g><path d="M449,341.8c0,0,1,2.4,1,2.6c1,0,2-0.1,3-0.2c0,0-0.7-1.3-1.2-1.4S449,341.8,449,341.8z" style="fill:#1a1a1a"/></g><g><polygon points="464.3 337.3 472.4 339 471.8 340 464.6 340.4" style="fill:#1a1a1a"/></g></g><g><path d="M158.7,374.8h11.1l2-3.9l11.8-36.9l4-5.2l5.1-2.3h48.7l15.6,1.1l4.9,3.7l4.5,10.3l14.7,46.7h135.3l18.1-54.4 c0,0,3.7-4.8,4-5c0.3-0.2,5.6-2.4,5.6-2.4h5.6c0,0,41.2,1,41.7,1.2s5.8,3.5,5.8,3.5l1.7,6l1,5h30.2c0,0-2.5,2.5-3.1,3 c-1.1,1.3-2.2,2.7-3.1,4.1c-0.2,0.4-0.7,4.4-0.7,4.4s2.3,4.8,2.2,5.8c-0.1,0.9,2.6,3.5,2.6,3.5l1.1,2.3l-11,1.3l-5,5.1l-0.5,6.5 c0.1,1.4,0.3,2.7,0.6,4.1c0.2,0.4,4.1,4.3,4.1,4.3l7,1.8l6.7-0.5l182.8,0.4l5-2l4.2-5.2l0.8-2.9l-1.2-6.4l-6.1-5.7l-0.3-1.8l5-3.7 l2.5-4.3l-0.2-4.8l-3.9-6.3l-2.7-3h26.5c0,0,0.7-16.6,0.5-17.3c-0.2-0.7-3.2-6.9-3.2-6.9l-9.3-3.1h-26.1l-0.2-18.3l-3.1-6.3 l-3.3-4.2l-4.5-2.3l-12-2.4l-10.8-1.5l-99.9-13.7l-22.5-69.6L547,194l-5.1-1.2l-3.8-0.8l-291.8,0.8h-4.9l-6.3,4l-5.2,7.1 l-1.8,16.9l-9.1,45.3c0,0-4.5,2.7-4.9,3.4c-0.5,0.7-1.7,10-1.7,10L202,314.6l-17.9,0.4l-5.1,2.3c0,0-2.5,2.6-2.6,2.8 s-2.6,6.4-2.6,6.4L158.7,374.8z" style="fill:#fece2f"/></g><g><polygon points="395 204.4 394.7 200.7 398.6 199.5 537.1 199.5 543 202.6 546 208.4 561.8 257.3 558.4 259.7 419.8 259.5 412.1 255.2 408.8 246.5" style="fill:#fff"/></g><g><path d="M538,318.1c-0.7,0-1.2-0.5-1.2-1.2v-18.5c0-9.6,7.8-17.5,17.5-17.5c0,0,0,0,0,0c0.7,0,1.2,0.5,1.2,1.2 c0,0.7-0.5,1.2-1.2,1.2c-8.3,0-15,6.7-15,15v18.5C539.2,317.5,538.7,318.1,538,318.1z" style="fill:#fff"/></g><g><path d="M424.9,321.1c-0.7,0-1.2-0.5-1.2-1.2v-38.3c0-6.7,4-12.8,10.1-15.6c0.6-0.3,1.3,0,1.6,0.6 c0.3,0.6,0,1.3-0.6,1.6c-5.3,2.3-8.7,7.6-8.7,13.3v38.3C426.1,320.6,425.6,321.1,424.9,321.1z" style="fill:#fff"/></g><g><polygon points="213.3 271 279.7 271 279.7 314 282.9 314 282.9 267.3 217.5 267.3" style="fill:#fff"/></g><g><polygon points="385.2 271 432.2 271 436 267.3 385.9 267.3" style="fill:#fff"/></g><g><polygon points="509 320.1 542.3 320.1 541.4 316.4 507.9 316.4" style="fill:#fff"/></g><g><polygon points="706.7 320.1 740 320.1 739.1 316.4 705.6 316.4" style="fill:#fff"/></g><g><polygon points="281.5 387.6 416.7 387.6 418.6 384 280.7 384" style="fill:#fff"/></g><g><polygon points="432.6 270.9 546.4 286 550.6 282.9 433.9 267.3" style="fill:#fff"/></g><g><line x1="357.7" x2="356.9" y1="267.3" y2="271" style="fill:none"/></g><g><polygon points="284.2 271 382 271 382 344.5 385.2 339.4 385.2 267.3 284.2 267.3" style="fill:#fff"/></g><g><path d="M558.9,293.6c0.6,0.1,11.5,3.4,11.5,16.9s-10.9,15-10.9,15s-12.7-2-12.1-18.1 C547.9,294.8,558.9,293.6,558.9,293.6z" style="fill:#fff"/></g><g><path d="M681.8,293.6c0.6,0.1,11.5,3.4,11.5,16.9s-10.9,15-10.9,15s-12.7-2-12.1-18.1 C670.8,294.8,681.8,293.6,681.8,293.6z" style="fill:#fff"/></g><g><polygon points="289.1 199.5 375.6 199.5 378.2 202.5 394.7 256.7 391.4 259.5 289.1 259.5 288.5 256.6" style="fill:#fff"/></g><g><polygon points="239.1 219.4 229.5 256.7 232.3 259.5 278.5 259.5 278.5 199.5 247.1 200.3 241.5 204.7 239.3 209.6" style="fill:#fff"/></g><g id="aa3bbeb9-3ee8-4b72-9c28-3824bb2d224a"><g><path d="M405.9,267.7c-0.5,0-1-0.3-1.2-0.8l-22.2-67.7c-0.2-0.6-0.3-1.2-0.3-1.8c0-3.3,2.7-5.9,5.9-5.9 c0.7,0,1.2,0.5,1.2,1.2c0,0.7-0.5,1.2-1.2,1.2c-0.9,0-1.8,0.4-2.5,1c-0.7,0.7-1,1.5-1,2.5c0,0.4,0.1,0.7,0.2,1.1l22.2,67.7 c0.2,0.6-0.1,1.3-0.8,1.5C406.1,267.6,406,267.7,405.9,267.7z" style="fill:#fff"/></g><g><path d="M724,376.7c0,0.9-0.1,1.9-0.3,2.8c-1.3-5.1-5.9-8.7-11.2-8.8H534.6c-5.3,0-9.9,3.6-11.2,8.8 c-0.2-0.9-0.3-1.9-0.3-2.8c0-6.4,5.2-11.5,11.6-11.6h177.9C718.8,365.1,724,370.3,724,376.7z" style="fill:#fff"/></g><g><polygon points="522.6 278.4 654.3 278.4 677.2 282.2 555 282.7" style="fill:#fff"/></g><g><path d="M724,353.6c0,6.4-5.6,11.5-12.5,11.5c-1.6,0-3.3-0.3-4.8-0.9c-5.9-1.9-9-8.3-7.1-14.1c1.1-3.4,3.7-6,7.1-7.1 c1.5-0.6,3.2-0.9,4.8-0.9C718.4,342.1,724,347.3,724,353.6z" style="fill:#fff"/></g><g><path d="M557.5,353.6c0,6.4-5.6,11.5-12.5,11.5c-1.6,0-3.3-0.3-4.8-0.9c-5.9-1.9-9-8.3-7.1-14.1 c1.1-3.4,3.7-6,7.1-7.1c1.5-0.6,3.2-0.9,4.8-0.9C551.9,342.1,557.5,347.3,557.5,353.6z" style="fill:#fff"/></g><g><path d="M711.5,366.3c-1.8,0-3.5-0.3-5.2-1c-3.1-1-5.6-3.2-7.1-6.2c-1.5-3-1.7-6.3-0.7-9.5c1.2-3.7,4.2-6.6,7.9-7.9 c1.6-0.6,3.4-0.9,5.2-0.9c0,0,0,0,0,0c7.5,0,13.7,5.7,13.7,12.7C725.2,360.6,719.1,366.3,711.5,366.3 C711.5,366.3,711.5,366.3,711.5,366.3z M711.5,343.3c-1.5,0-3,0.3-4.3,0.8c-3,1-5.4,3.4-6.4,6.3c-0.8,2.5-0.6,5.2,0.6,7.6 c1.2,2.4,3.2,4.2,5.8,5c1.4,0.5,2.9,0.8,4.4,0.8c0,0,0,0,0,0c6.2,0,11.2-4.6,11.2-10.3C722.8,348,717.7,343.3,711.5,343.3 C711.5,343.3,711.5,343.3,711.5,343.3z" style="fill:#1a1a1a"/></g><g><path d="M711.5,366.3C711.5,366.3,711.5,366.3,711.5,366.3h-9.6c-7.5,0-13.7-5.7-13.7-12.7s6.1-12.7,13.7-12.7h9.6 c0,0,0,0,0,0l0,2.4c-1.5,0-2.9,0.3-4.3,0.8c-2.6,0.9-4.6,2.6-5.8,5c-1.2,2.4-1.4,5.1-0.6,7.6c1,3,3.4,5.3,6.3,6.3l0.1,0 c1.4,0.5,2.8,0.8,4.3,0.8h0L711.5,366.3C711.5,366.3,711.5,366.3,711.5,366.3z M701.9,343.3c-6.2,0-11.2,4.6-11.2,10.3 s5,10.3,11.2,10.3h1.4c-2.2-1.5-4-3.8-4.8-6.4c-1-3.1-0.8-6.5,0.7-9.5c1-1.9,2.4-3.5,4.1-4.7H701.9z" style="fill:#1a1a1a"/></g><g><path d="M545,366.3c-1.8,0-3.5-0.3-5.2-1c-3.1-1-5.6-3.2-7.1-6.2c-1.5-3-1.7-6.3-0.7-9.5c1.2-3.7,4.2-6.7,7.9-7.9 c1.6-0.6,3.4-0.9,5.2-0.9c0,0,0,0,0,0c7.5,0,13.7,5.7,13.7,12.7C558.7,360.6,552.6,366.3,545,366.3 C545,366.3,545,366.3,545,366.3z M545,343.3c-1.5,0-3,0.3-4.3,0.8c-3,1-5.4,3.4-6.4,6.3c-0.8,2.5-0.6,5.2,0.6,7.6s3.2,4.2,5.8,5 c1.4,0.5,2.9,0.8,4.4,0.8c0,0,0,0,0,0c6.2,0,11.2-4.6,11.2-10.3C556.3,348,551.2,343.3,545,343.3C545,343.3,545,343.3,545,343.3z" style="fill:#1a1a1a"/></g><g><path d="M545,366.3C545,366.3,545,366.3,545,366.3h-9.6c-7.5,0-13.7-5.7-13.7-12.7s6.1-12.7,13.7-12.7h9.6 c0,0,0,0,0,0l0,2.4c-1.5,0-2.9,0.3-4.3,0.8c-5.3,1.7-8.1,7.4-6.4,12.6c1,3,3.4,5.3,6.3,6.3l0.1,0c1.4,0.5,2.8,0.8,4.3,0.8h0 L545,366.3C545,366.3,545,366.3,545,366.3z M535.5,343.3c-6.2,0-11.2,4.6-11.2,10.3s5,10.3,11.2,10.3h1.4c-2.2-1.5-4-3.8-4.8-6.4 c-1-3.1-0.8-6.5,0.7-9.5c1-1.9,2.4-3.5,4.1-4.7H535.5z" style="fill:#1a1a1a"/></g><g><path d="M684.7,327c-1.1,0-2.1-0.1-3.1-0.4c-7.2-1.7-12.5-8.9-12.5-17.2c0-8.3,5.2-15.5,12.5-17.2 c1-0.2,2.1-0.4,3.2-0.4c8.6,0,15.6,7.9,15.6,17.5C700.3,319.2,693.3,327,684.7,327z M684.7,294.4c-0.9,0-1.8,0.1-2.6,0.3 c-6.1,1.4-10.6,7.6-10.6,14.8c0,7.2,4.4,13.4,10.6,14.8c0.8,0.2,1.7,0.3,2.6,0.3c7.3,0,13.2-6.8,13.2-15.1 C697.8,301.2,691.9,294.4,684.7,294.4z" style="fill:#1a1a1a"/></g><g><path d="M681.8,326.7c-7,0-12.7-7.7-12.7-17.2c0-9.5,5.7-17.2,12.7-17.2c7,0,12.7,7.7,12.7,17.2 C694.5,319,688.8,326.7,681.8,326.7z M681.8,294.8c-5.7,0-10.3,6.6-10.3,14.7c0,8.1,4.6,14.7,10.3,14.7c5.7,0,10.3-6.6,10.3-14.7 C692.1,301.4,687.5,294.8,681.8,294.8z" style="fill:#1a1a1a"/></g><g><path d="M561.8,327c-1.1,0-2.1-0.1-3.1-0.4c-7.2-1.7-12.5-8.9-12.5-17.2c0-8.3,5.2-15.5,12.5-17.2 c1-0.2,2.1-0.4,3.2-0.4c8.6,0,15.6,7.9,15.6,17.5C577.4,319.2,570.4,327,561.8,327z M561.8,294.4c-0.9,0-1.7,0.1-2.6,0.3 c-6.1,1.4-10.6,7.6-10.6,14.8c0,7.2,4.4,13.4,10.6,14.8c0.8,0.2,1.7,0.3,2.6,0.3c7.3,0,13.2-6.8,13.2-15.1 C574.9,301.2,569,294.4,561.8,294.4z" style="fill:#1a1a1a"/></g><g><path d="M558.9,326.7c-7,0-12.7-7.7-12.7-17.2c0-9.5,5.7-17.2,12.7-17.2c7,0,12.7,7.7,12.7,17.2 C571.6,319,565.9,326.7,558.9,326.7z M558.9,294.8c-5.7,0-10.3,6.6-10.3,14.7c0,8.1,4.6,14.7,10.3,14.7c5.7,0,10.3-6.6,10.3-14.7 C569.2,301.4,564.6,294.8,558.9,294.8z" style="fill:#1a1a1a"/></g><g><path d="M590,360.6h-0.5c-3.2,0-5.8-2.6-5.8-5.8v-60c0-3.2,2.6-5.8,5.8-5.8h0.5c3.2,0,5.8,2.6,5.8,5.8v60 C595.8,358,593.2,360.6,590,360.6z M589.5,291.6c-1.8,0-3.3,1.5-3.3,3.3v60c0,1.8,1.5,3.3,3.3,3.3h0.5c1.8,0,3.3-1.5,3.3-3.3v-60 c0-1.8-1.5-3.3-3.3-3.3H589.5z" style="fill:#1a1a1a"/></g><g><path d="M607.3,360.6h-0.5c-3.2,0-5.8-2.6-5.8-5.8v-60c0-3.2,2.6-5.8,5.8-5.8h0.5c3.2,0,5.8,2.6,5.8,5.8v60 C613,358,610.5,360.6,607.3,360.6z M606.8,291.6c-1.8,0-3.3,1.5-3.3,3.3v60c0,1.8,1.5,3.3,3.3,3.3h0.5c1.8,0,3.3-1.5,3.3-3.3v-60 c0-1.8-1.5-3.3-3.3-3.3H606.8z" style="fill:#1a1a1a"/></g><g><path d="M624.5,360.6H624c-3.2,0-5.8-2.6-5.8-5.8v-60c0-3.2,2.6-5.8,5.8-5.8h0.5c3.2,0,5.8,2.6,5.8,5.8v60 C630.3,358,627.7,360.6,624.5,360.6z M624,291.6c-1.8,0-3.3,1.5-3.3,3.3v60c0,1.8,1.5,3.3,3.3,3.3h0.5c1.8,0,3.3-1.5,3.3-3.3v-60 c0-1.8-1.5-3.3-3.3-3.3H624z" style="fill:#1a1a1a"/></g><g><path d="M641.8,360.6h-0.5c-3.2,0-5.8-2.6-5.8-5.8v-60c0-3.2,2.6-5.8,5.8-5.8h0.5c3.2,0,5.8,2.6,5.8,5.8v60 C647.5,358,645,360.6,641.8,360.6z M641.3,291.6c-1.8,0-3.3,1.5-3.3,3.3v60c0,1.8,1.5,3.3,3.3,3.3h0.5c1.8,0,3.3-1.5,3.3-3.3v-60 c0-1.8-1.5-3.3-3.3-3.3H641.3z" style="fill:#1a1a1a"/></g><g><path d="M659.1,360.6h-0.5c-3.2,0-5.8-2.6-5.8-5.8v-60c0-3.2,2.6-5.8,5.8-5.8h0.5c3.2,0,5.8,2.6,5.8,5.8v60 C664.8,358,662.2,360.6,659.1,360.6z M658.5,291.6c-1.8,0-3.3,1.5-3.3,3.3v60c0,1.8,1.5,3.3,3.3,3.3h0.5c1.8,0,3.3-1.5,3.3-3.3 v-60c0-1.8-1.5-3.3-3.3-3.3H658.5z" style="fill:#1a1a1a"/></g><g><path d="M705.6,343.3c-0.7,0-1.2-0.5-1.2-1.2v-43c0-8.3-6.7-15-15-15H556.9c-8.3,0-15,6.7-15,15v19.4 c0,0.7-0.5,1.2-1.2,1.2c-0.7,0-1.2-0.5-1.2-1.2v-19.4c0-9.6,7.8-17.5,17.5-17.5h132.5c9.6,0,17.5,7.8,17.5,17.5v43 C706.8,342.8,706.3,343.3,705.6,343.3z" style="fill:#1a1a1a"/></g><g><path d="M743.6,343.3h-32.1v-2.4h31.8v-12.7c0-6.3-5.1-11.4-11.4-11.4h-26.4v-2.4H732c7.6,0,13.8,6.2,13.8,13.8v13 C745.8,342.4,744.8,343.3,743.6,343.3z" style="fill:#1a1a1a"/></g><g><path d="M512,343.3h-1.2l0.1-16.4c0-5.6-4.5-10.1-10.1-10.1h0v-2.4h31.7c0,0,0,0,0,0c3.7,0,7.2,1.4,9.8,4 c2.6,2.6,4.1,6.1,4.1,9.8l0,0v13c0,1.2-1,2.2-2.2,2.2H512z M513.2,340.9h30.6V328c-0.1-3-1.2-5.7-3.3-7.8c-2.1-2.1-5-3.3-8-3.3 c0,0,0,0,0,0h-24.3c3.1,2.3,5.1,6,5.1,10.1L513.2,340.9z" style="fill:#1a1a1a"/></g><g><path d="M416.5,389.5H282c-1,0-1.8-0.6-2.1-1.5l-16.2-51.2c-1.8-5.6-6.9-9.3-12.7-9.3H195c-4.9,0-9.1,3.1-10.6,7.7 l-12.6,39.3c-0.3,0.9-1.1,1.5-2.1,1.5h-10.2c-1.2,0-2.2-1-2.2-2.2c0-0.2,0-0.5,0.1-0.7l16.1-50.2c1.8-5.6,7-9.4,12.9-9.4h95.3 c7.4,0,14,4.8,16.3,11.9l12.4,38.6h97.4l12-37.6c2.3-7.2,8.9-12,16.4-12h64.4v2.4h-64.4c-6.5,0-12.1,4.1-14.1,10.3l-12,37.8 c-0.3,0.9-1.1,1.5-2.1,1.5h-97.8c-1,0-1.8-0.6-2.1-1.5l-12.4-38.7c-1.9-6.1-7.5-10.2-13.9-10.2h-95.3c-4.9,0-9.1,3.1-10.6,7.7 l-16,49.9h9.6l12.5-39.1c1.8-5.6,7-9.4,12.9-9.4h55.9c6.9,0,13,4.4,15.1,11l16.2,51h134.1l16.9-52.9c1.6-5,6.2-8.3,11.4-8.3H488 c6.7,0,12.2,5.5,12.2,12.2v2.9H512v2.4h-12c-1.2,0-2.2-1-2.2-2.2V338c0-5.4-4.4-9.7-9.7-9.7h-43.5c-4.2,0-7.8,2.7-9.1,6.6 L418.6,388C418.3,388.9,417.5,389.5,416.5,389.5z" style="fill:#1a1a1a"/></g><g><rect width="3.4" height="2.4" x="497.3" y="314.3" style="fill:#1a1a1a"/></g><g><rect width="164.9" height="2.4" x="545" y="363.9" style="fill:#1a1a1a"/></g><g><path d="M291.3,388.6l-20.9-65.4c-1.4-4.4-5.4-7.3-10-7.3H236v-2.4h24.4c5.6,0,10.6,3.6,12.3,9l20.9,65.4 L291.3,388.6z" style="fill:#1a1a1a"/></g><g><path d="M689.4,284.1c-0.1,0-0.1,0-0.2,0l-117.2-16.3H454.2l80,10.8c0.7,0.1,1.1,0.7,1,1.4c-0.1,0.7-0.7,1.1-1.4,1 l-98-13.2c-0.6-0.1-1.1-0.7-1.1-1.3c0-0.6,0.6-1.1,1.2-1.1h136c0.1,0,0.1,0,0.2,0l117.3,16.3c0.7,0.1,1.1,0.7,1,1.4 C690.5,283.7,690,284.1,689.4,284.1z" style="fill:#1a1a1a"/></g><g><path d="M556.9,284.1c-0.1,0-0.1,0-0.2,0l-22.8-3.1c-0.7-0.1-1.1-0.7-1-1.4c0.1-0.7,0.7-1.1,1.4-1l22.8,3.1 c0.7,0.1,1.1,0.7,1,1.4C558,283.7,557.5,284.1,556.9,284.1z" style="fill:#1a1a1a"/></g><g><path d="M202.9,316c-0.1,0-0.2,0-0.3,0c-0.7-0.2-1.1-0.8-0.9-1.5l9.6-40.6c1.1-3.7,3.3-8.5,8.8-8.5h216 c0.7,0,1.2,0.5,1.2,1.2c0,0.7-0.5,1.2-1.2,1.2H220c-3,0-5,2-6.4,6.7L204,315C203.9,315.6,203.4,316,202.9,316z" style="fill:#1a1a1a"/></g><g><path d="M371.7,350.6h-67.2c-0.7,0-1.2-0.5-1.2-1.2s0.5-1.2,1.2-1.2h67.2c7.2,0,13-5.8,13-13v-68.5 c0-0.7,0.5-1.2,1.2-1.2c0.7,0,1.2,0.5,1.2,1.2v68.5C387.2,343.6,380.2,350.5,371.7,350.6z" style="fill:#1a1a1a"/></g><g><path d="M283.8,316.1c-0.7,0-1.2-0.5-1.2-1.2v-48c0-0.7,0.5-1.2,1.2-1.2c0.7,0,1.2,0.5,1.2,1.2v48 C285,315.5,284.5,316.1,283.8,316.1z" style="fill:#1a1a1a"/></g><g><path d="M301.5,286.5h18.6c0.5,0,0.9,0.4,0.9,0.9v10.8c0,0.5-0.4,0.9-0.9,0.9h-18.6c-0.5,0-0.9-0.4-0.9-0.9v-10.8 C300.6,286.9,301,286.5,301.5,286.5z" style="fill:#1a1a1a"/></g><g><path d="M572,267.8c-0.5,0-1-0.3-1.2-0.8L548.7,198c-0.8-2.4-3-4-5.5-4H390.6c-1.9,0-3.5,1.6-3.5,3.5 c0,0.4,0.1,0.7,0.2,1.1l22.2,67.7c0.2,0.6-0.1,1.3-0.8,1.5c-0.6,0.2-1.3-0.1-1.5-0.8L385,199.3c-0.2-0.6-0.3-1.2-0.3-1.8 c0-3.3,2.7-5.9,5.9-5.9h152.5c3.6,0,6.7,2.3,7.8,5.7l22.2,68.9c0.2,0.6-0.1,1.3-0.8,1.5C572.3,267.8,572.2,267.8,572,267.8z" style="fill:#1a1a1a"/></g><g><path d="M559.1,260.7C559.1,260.7,559.1,260.7,559.1,260.7l-138.5,0c-5.1,0-9.6-3.2-11.1-8.1l-16.2-49.4 c-0.1-0.4-0.2-0.8-0.2-1.2c0-1,0.4-2,1.1-2.7c0.7-0.7,1.7-1.1,2.7-1.1h138.7c5.1,0,9.6,3.2,11.1,8.1l16.1,49.3 c0.1,0.4,0.2,0.8,0.2,1.2C563,259,561.2,260.7,559.1,260.7z M396.9,200.7c-0.4,0-0.7,0.1-0.9,0.4c-0.2,0.2-0.4,0.6-0.4,0.9 c0,0.1,0,0.3,0.1,0.4l16.2,49.4c1.3,3.8,4.8,6.4,8.8,6.4l138.5,0l0,0c0,0,0,0,0,0c0.8,0,1.4-0.6,1.4-1.4c0-0.1,0-0.3-0.1-0.4 l-16.1-49.3c-1.2-3.8-4.8-6.4-8.8-6.4H396.9z" style="fill:#1a1a1a"/></g><g><path d="M229.5,267.8H219c-0.4,0-0.7-0.2-0.9-0.4c-0.2-0.3-0.3-0.6-0.3-1l9.6-56.1c1.9-11.4,9.4-18.8,19-18.8h144.3 c0.7,0,1.2,0.5,1.2,1.2c0,0.7-0.5,1.2-1.2,1.2H246.3c-10.1,0-15.2,9-16.5,16.7l-9.3,54.6h9.1c0.7,0,1.2,0.5,1.2,1.2 C230.8,267.3,230.2,267.8,229.5,267.8z" style="fill:#1a1a1a"/></g><g><path d="M427.4,319.5c-0.7,0-1.2-0.5-1.2-1.2v-35.9c0-9.4,7.6-17,17-17h8.1c0.7,0,1.2,0.5,1.2,1.2 c0,0.7-0.5,1.2-1.2,1.2h-8.1c-8,0-14.6,6.5-14.6,14.6v35.9C428.6,318.9,428.1,319.5,427.4,319.5z" style="fill:#1a1a1a"/></g><g><path d="M391.8,260.7H289.1c-0.7,0-1.2-0.5-1.2-1.2s0.5-1.2,1.2-1.2h102.7c0.5,0,0.9-0.2,1.2-0.5 c0.3-0.3,0.5-0.8,0.5-1.2c0-0.2,0-0.3-0.1-0.5l-16.6-53.8c-0.3-0.9-1.2-1.5-2.1-1.5l-85.6,0c-0.7,0-1.2-0.5-1.2-1.2 c0-0.7,0.5-1.2,1.2-1.2l85.6,0c2,0,3.8,1.3,4.5,3.2l16.6,53.8c0.1,0.4,0.2,0.8,0.2,1.2c0,1.1-0.4,2.2-1.2,2.9 C393.9,260.3,392.9,260.7,391.8,260.7z" style="fill:#1a1a1a"/></g><g><path d="M278.5,260.7h-45.1c-2.8,0-5.1-2.3-5.1-5.1c0-0.1,0-0.2,0-0.3l9.6-43.8c2.1-8.6,6.9-13.3,13.5-13.3l27,0h0 c0.7,0,1.2,0.5,1.2,1.2c0,0.7-0.5,1.2-1.2,1.2l-27,0c-7.3,0-10.1,7.2-11.2,11.4l-9.6,43.6c0.1,1.4,1.2,2.5,2.6,2.5h45.1 c0.7,0,1.2,0.5,1.2,1.2S279.2,260.7,278.5,260.7z" style="fill:#1a1a1a"/></g><g><path d="M278.5,260.7c-0.7,0-1.2-0.5-1.2-1.2v-60c0-0.7,0.5-1.2,1.2-1.2s1.2,0.5,1.2,1.2v60 C279.7,260.2,279.2,260.7,278.5,260.7z" style="fill:#1a1a1a"/></g><g><path d="M289.1,260.7c-0.7,0-1.2-0.5-1.2-1.2v-60c0-0.7,0.5-1.2,1.2-1.2c0.7,0,1.2,0.5,1.2,1.2v60 C290.3,260.2,289.7,260.7,289.1,260.7z" style="fill:#1a1a1a"/></g><g><path d="M712.4,389.5H534.6c-7.1-0.1-12.7-5.8-12.7-12.9c0.1-6.9,5.7-12.6,12.7-12.7h177.9c7,0,12.8,5.8,12.8,12.8 c0,0,0,0,0,0C725.2,383.7,719.4,389.5,712.4,389.5z M534.6,366.3c-5.6,0-10.2,4.6-10.2,10.2c-0.1,5.7,4.5,10.4,10.2,10.4h177.8 c5.7,0,10.3-4.6,10.3-10.3c0-5.7-4.7-10.3-10.3-10.3H534.6z" style="fill:#1a1a1a"/></g><g><path d="M534.6,389.5h-11c-3.4,0-6.6-1.4-9-3.8c-2.4-2.4-3.7-5.7-3.7-9.1c0.1-6.9,5.7-12.6,12.7-12.7h11 c0.7,0,1.2,0.5,1.2,1.2c0,0.7-0.5,1.2-1.2,1.2c-2.8,0-5.3,1.1-7.3,3.1c-1.9,2-3,4.6-3,7.3c0,5.6,4.6,10.2,10.2,10.2 c0.7,0,1.2,0.6,1.2,1.2C535.8,388.9,535.2,389.5,534.6,389.5z M523.5,366.3c-5.6,0-10.2,4.6-10.2,10.2c0,2.8,1,5.4,3,7.3 c1.9,2,4.5,3.1,7.3,3.1h3.6c-3.2-2.3-5.3-6-5.3-10.2c0-3.4,1.3-6.6,3.7-9.1c0.5-0.5,1-1,1.6-1.4H523.5z" style="fill:#1a1a1a"/></g><g><path d="M315.9,366.4h-19.8c-0.7,0-1.2-0.5-1.2-1.2s0.5-1.2,1.2-1.2h19.8c0.7,0,1.2,0.5,1.2,1.2 S316.6,366.4,315.9,366.4z" style="fill:#1a1a1a"/></g></g><g><path d="M595.1,375.4h57.4c2,0,3.6,1.6,3.6,3.6v18.4c0,2-1.6,3.6-3.6,3.6h-57.4c-2,0-3.6-1.6-3.6-3.6v-18.4 C591.5,377.1,593.1,375.4,595.1,375.4z" style="fill:#fece2f"/></g><g><path d="M656.1,379.8v18.4c0,0.7-0.2,1.5-0.7,2.1v-15.6c0-2-1.6-3.6-3.6-3.6h-57.4c-1.2,0-2.3,0.6-3,1.5v-2.8 c0-2,1.6-3.6,3.6-3.6h57.4C654.4,376.2,656.1,377.8,656.1,379.8z" style="fill:#fff"/></g><g><path d="M652.4,402.3h-57.4c-2.7,0-4.8-2.2-4.8-4.8v-18.4c0-2.7,2.2-4.8,4.8-4.8h57.4c2.7,0,4.8,2.2,4.8,4.8v18.4 C657.3,400.1,655.1,402.3,652.4,402.3z M595.1,376.7c-1.3,0-2.4,1.1-2.4,2.4v18.4c0,1.3,1.1,2.4,2.4,2.4h57.4 c1.3,0,2.4-1.1,2.4-2.4v-18.4c0-1.3-1.1-2.4-2.4-2.4H595.1z" style="fill:#1a1a1a"/></g><g><polygon points="487.4 259.7 528.2 199.5 540.6 199.5 527.7 259.6" style="fill:#1a1a1a"/></g><g><polygon points="520 198.8 519.7 200.2 479.7 259.6 463.2 259.7 504 199.5" style="fill:#1a1a1a"/></g><g><path d="M458.7,253.1c-0.2,0-0.5-0.1-0.7-0.2c-0.6-0.4-0.7-1.1-0.3-1.7l6.9-10.1c0.4-0.6,1.1-0.7,1.7-0.3 c0.6,0.4,0.7,1.1,0.3,1.7l-6.9,10.1C459.5,252.9,459.1,253.1,458.7,253.1z" style="fill:#1a1a1a"/></g><g><path d="M473.8,230.9c-0.2,0-0.5-0.1-0.7-0.2c-0.6-0.4-0.7-1.1-0.3-1.7l17.8-26.3c0.4-0.6,1.1-0.7,1.7-0.3 c0.6,0.4,0.7,1.1,0.3,1.7l-17.8,26.3C474.5,230.7,474.1,230.9,473.8,230.9z" style="fill:#1a1a1a"/></g><g><path d="M536.1,252.6c-0.1,0-0.2,0-0.3,0c-0.7-0.1-1.1-0.8-0.9-1.5l6.9-32c0.1-0.7,0.8-1.1,1.5-0.9 c0.7,0.1,1.1,0.8,0.9,1.5l-6.9,32C537.2,252.2,536.7,252.6,536.1,252.6z" style="fill:#1a1a1a"/></g><g><polygon points="364.7 199.5 335.3 259.7 314.3 259.7 357.7 199.5" style="fill:#1a1a1a"/></g><g><polygon points="276.8 199.7 241.2 259.6 252 259.7 279.2 199.7" style="fill:#1a1a1a"/></g><g><path d="M255.1,224.5c-0.2,0-0.4-0.1-0.6-0.2c-0.6-0.3-0.8-1.1-0.4-1.7l14-23.6c0.3-0.6,1.1-0.8,1.7-0.4 c0.6,0.3,0.8,1.1,0.4,1.7l-14,23.6C255.9,224.3,255.5,224.5,255.1,224.5z" style="fill:#1a1a1a"/></g><g><path d="M327.5,231.2c-0.2,0-0.5-0.1-0.7-0.2c-0.5-0.4-0.7-1.2-0.3-1.7l22-30.5c0.4-0.5,1.2-0.7,1.7-0.3 c0.5,0.4,0.7,1.2,0.3,1.7l-22,30.5C328.2,231,327.9,231.2,327.5,231.2z" style="fill:#1a1a1a"/></g><g><path d="M327.3,217.7c-0.2,0-0.5-0.1-0.7-0.2c-0.5-0.4-0.7-1.2-0.3-1.7l12.3-17c0.4-0.5,1.2-0.7,1.7-0.3 c0.5,0.4,0.7,1.2,0.3,1.7l-12.3,17C328,217.5,327.7,217.7,327.3,217.7z" style="fill:#1a1a1a"/></g><g><path d="M256.2,209.2c-0.2,0-0.4-0.1-0.6-0.2c-0.6-0.3-0.8-1.1-0.4-1.7l4.9-8.3c0.3-0.6,1.1-0.8,1.7-0.4 c0.6,0.3,0.8,1.1,0.4,1.7l-4.9,8.3C257,209,256.6,209.2,256.2,209.2z" style="fill:#1a1a1a"/></g></g><g id="ac4d8ab2-3885-4738-815c-1eae43488e26"><g><path d="M233.9,418.5c0,12-9.7,21.7-21.7,21.7H106.7c-20.2,0-36.7-16.4-36.7-36.7s16.4-36.7,36.7-36.7h0.1 c15.9-18.7,44-21,62.7-5.1c3.6,3,6.6,6.6,9.1,10.6c17.5-3,34.4,7.8,38.9,25.1C227.1,399.9,233.9,408.5,233.9,418.5z" style="fill:#fff"/></g><g><path d="M190.4,418.5c0,12,9.7,21.7,21.7,21.7" style="fill:#fff"/></g><g><path d="M217.4,397.4c-1.7-0.4-3.5-0.7-5.3-0.7" style="fill:#fff"/></g><g><path d="M190.4,418.5c0,12,9.7,21.7,21.7,21.7" style="fill:#fff"/></g><g><path d="M217.4,397.4c-1.7-0.4-3.5-0.7-5.3-0.7" style="fill:#fff"/></g><g><path d="M150.2,406c0-16.6,11.9-30.8,28.3-33.7" style="fill:#fff"/></g><g><path d="M150.2,406c0-16.6,11.9-30.8,28.3-33.7" style="fill:#fff"/></g><g><path d="M96.1,395.7c0-10.6,3.7-20.8,10.6-28.8" style="fill:#fff"/></g><g><path d="M212.2,441.4C212.1,441.4,212.1,441.4,212.2,441.4c-12.6,0-22.9-10.3-22.9-22.9c0-0.7,0.5-1.2,1.2-1.2 s1.2,0.5,1.2,1.2c0,11.3,9.2,20.5,20.5,20.5c0,0,0,0,0,0c5.5,0,10.6-2.1,14.5-6c3.9-3.9,6-9,6-14.5c0-11.3-9.2-20.5-20.5-20.5 c-0.7,0-1.2-0.5-1.2-1.2c0-0.7,0.5-1.2,1.2-1.2l0,0c12.6,0,22.9,10.3,22.9,22.9c0,6.1-2.4,11.9-6.7,16.2 C224,439,218.3,441.4,212.2,441.4z" style="fill:#1a1a1a"/></g><g><path d="M212.2,441.4h-27.8c-0.7,0-1.2-0.5-1.2-1.2s0.5-1.2,1.2-1.2h17.5c-7.5-3.8-12.6-11.5-12.6-20.5 c0-0.7,0.5-1.2,1.2-1.2h0c0.7,0,1.2,0.5,1.2,1.2c0,11.3,9.2,20.5,20.5,20.5c0.7,0,1.2,0.5,1.2,1.2 C213.4,440.9,212.8,441.4,212.2,441.4z" style="fill:#1a1a1a"/></g><g><path d="M150.2,407.3L150.2,407.3c-0.7,0-1.2-0.5-1.2-1.2c0-19.5,15.9-35.4,35.4-35.4c0,0,0,0,0,0 c16.1,0,30.2,10.9,34.2,26.5c0.1,0.4,0,0.9-0.3,1.2c-0.3,0.3-0.7,0.4-1.2,0.3c-1.6-0.4-3.3-0.6-5-0.6c0,0,0,0,0,0h0 c-0.7,0-1.2-0.5-1.2-1.2c0-0.7,0.5-1.2,1.2-1.2c0,0,0,0,0,0c1.2,0,2.4,0.1,3.5,0.3c-4.4-13.5-17-22.7-31.3-22.7c0,0,0,0,0,0 c-18.2,0-32.9,14.8-32.9,32.9C151.4,406.7,150.9,407.3,150.2,407.3z" style="fill:#1a1a1a"/></g><g><path d="M150.2,407.3L150.2,407.3c-0.7,0-1.2-0.5-1.2-1.2c0-16.6,11.5-30.9,27.5-34.5c-8-11.8-21.6-19.1-35.9-19.1 c0,0,0,0,0,0c-11.6,0-22.4,4.5-30.6,12.7c-8.2,8.2-12.7,19-12.7,30.6c0,0.7-0.5,1.2-1.2,1.2c-0.7,0-1.2-0.5-1.2-1.2 c0-12.2,4.8-23.7,13.4-32.3c8.6-8.6,20.1-13.4,32.3-13.4c0,0,0,0,0,0c15.8,0,30.7,8.3,38.9,21.8c0.2,0.3,0.2,0.8,0.1,1.1 c-0.2,0.4-0.5,0.6-0.9,0.7c-15.8,2.8-27.3,16.4-27.3,32.5C151.4,406.7,150.9,407.3,150.2,407.3z" style="fill:#1a1a1a"/></g><g><path d="M184.4,441.4h-43.7c-0.7,0-1.2-0.5-1.2-1.2s0.5-1.2,1.2-1.2h43.7c0.7,0,1.2,0.5,1.2,1.2 S185.1,441.4,184.4,441.4z" style="fill:#1a1a1a"/></g><g><path d="M106.5,441.4c-10,0-19.5-3.9-26.6-11c-7.2-7.1-11.2-16.6-11.2-26.7c-0.1-20.9,16.8-38,37.7-38.1h0.4 c0.7,0,1.2,0.6,1.2,1.2c0,0.7-0.5,1.2-1.2,1.2h-0.4c-19.5,0.1-35.4,16.1-35.3,35.6c0,9.5,3.8,18.3,10.5,25 c6.7,6.6,15.5,10.3,24.9,10.3c0.1,0,0.1,0,0.2,0h34c0.7,0,1.2,0.5,1.2,1.2s-0.5,1.2-1.2,1.2h-34 C106.6,441.4,106.6,441.4,106.5,441.4z" style="fill:#1a1a1a"/></g><g><ellipse cx="52.5" cy="371.1" rx="13" ry="12.5" style="fill:#fff"/></g><g><ellipse cx="86.9" cy="351.2" rx="9.2" ry="8.2" style="fill:#fff"/></g><g><ellipse cx="49.4" cy="333.2" rx="14.6" ry="10.6" transform="matrix(0.9892 -0.1465 0.1465 0.9892 -48.2997 10.8421)" style="fill:#fff"/></g><g><path d="M52.5,384.8c-7.8,0-14.2-6.1-14.2-13.7c0-7.5,6.4-13.7,14.2-13.7s14.2,6.1,14.2,13.7 C66.7,378.6,60.3,384.8,52.5,384.8z M52.5,359.9c-6.5,0-11.7,5-11.7,11.2c0,6.2,5.3,11.2,11.7,11.2s11.7-5,11.7-11.2 C64.2,364.9,58.9,359.9,52.5,359.9z" style="fill:#1a1a1a"/></g><g><path d="M86.9,360.6c-5.8,0-10.4-4.2-10.4-9.4c0-5.2,4.7-9.4,10.4-9.4c5.8,0,10.4,4.2,10.4,9.4 C97.4,356.4,92.7,360.6,86.9,360.6z M86.9,344.3c-4.4,0-8,3.1-8,6.9c0,3.8,3.6,6.9,8,6.9c4.4,0,8-3.1,8-6.9 C94.9,347.4,91.3,344.3,86.9,344.3z" style="fill:#1a1a1a"/></g><g><path d="M48.1,345.2c-3,0-5.9-0.7-8.3-1.9c-3.4-1.8-5.5-4.5-6-7.7c-0.5-3.2,0.8-6.4,3.5-9.1c2.6-2.6,6.3-4.3,10.4-4.9 c4.1-0.6,8.2,0,11.4,1.7c3.4,1.8,5.5,4.5,6,7.7c0.5,3.2-0.8,6.4-3.5,9.1c-2.6,2.6-6.3,4.3-10.4,4.9 C50.1,345.1,49.1,345.2,48.1,345.2z M50.8,323.7c-0.9,0-1.8,0.1-2.8,0.2l0,0c-3.6,0.5-6.8,2-9.1,4.3c-2.1,2.1-3.1,4.6-2.8,7 c0.4,2.4,2,4.5,4.7,5.9c2.8,1.5,6.3,2,9.9,1.4c3.6-0.5,6.8-2,9.1-4.3c2.1-2.1,3.1-4.6,2.8-7c-0.4-2.4-2-4.5-4.7-5.9 C55.9,324.3,53.4,323.7,50.8,323.7z M47.9,322.7L47.9,322.7L47.9,322.7z" style="fill:#1a1a1a"/></g></g><g id="ad2556f0-d8f7-44c4-9e62-143cd1c2599f"><g><path d="M354.1,185.6H208.8c-0.7,0-1.2-0.5-1.2-1.2s0.5-1.2,1.2-1.2h145.3c0.7,0,1.2,0.5,1.2,1.2 S354.8,185.6,354.1,185.6z" style="fill:#1a1a1a"/></g><g><path d="M286.9,174.5h-91.4c-0.7,0-1.2-0.5-1.2-1.2s0.5-1.2,1.2-1.2h91.4c0.7,0,1.2,0.5,1.2,1.2 S287.6,174.5,286.9,174.5z" style="fill:#1a1a1a"/></g><g><path d="M436,181.7h-48.6c-0.7,0-1.2-0.5-1.2-1.2c0-0.7,0.5-1.2,1.2-1.2H436c0.7,0,1.2,0.5,1.2,1.2 C437.2,181.1,436.7,181.7,436,181.7z" style="fill:#1a1a1a"/></g><g><path d="M222.3,200.8h-43.1c-0.7,0-1.2-0.5-1.2-1.2s0.5-1.2,1.2-1.2h43.1c0.7,0,1.2,0.5,1.2,1.2 S223,200.8,222.3,200.8z" style="fill:#1a1a1a"/></g></g></svg>