<?xml version="1.0" encoding="utf-8"?>
<!-- Generator: Adobe Illustrator 21.0.0, SVG Export Plug-In . SVG Version: 6.00 Build 0)  -->
<svg version="1.1" baseProfile="tiny" id="Layer_6" xmlns="http://www.w3.org/2000/svg" xmlns:xlink="http://www.w3.org/1999/xlink"
	 x="0px" y="0px" viewBox="0 0 2000 2000" xml:space="preserve">
<path fill="#FECE2F" d="M1112.5,74.3c-76.5,8.6-173.8,40.9-212.8,160.1c-57.3,175.2-173.3,193.4-302.4,172.5
	c-27.5-4.4-56-5-84.9-1.1l0,0c-159.4,21.4-384.1,216.5-384.1,454.5c0,231,46.6,357.5,117,474c87,144,246.3,327,397,305.4
	c93.8-13.5,157-72.3,209.3-143.8c109.2-149.4,173-183.6,357.2-200.6c4-0.4,8.1-0.8,12.1-1.4h0c159.4-21.4,296.8-185.5,299.5-346.3
	c2.9-173.7,45.3-387.4-5.9-555.4C1461.4,218,1272.1,56.4,1112.5,74.3z"/>
<path fill="#FECE2F" d="M1247.5,1691.4c-70.3,62.2-209.9,55.5-272.1-14.8s-26.3-178,44.1-240.2c70.3-62.2,185.9-88.5,248.1-18.2
	C1329.8,1488.6,1317.8,1629.2,1247.5,1691.4z"/>
<path fill="#FECE2F" d="M897.9,1742c-23.1,33.4-82.4,45-115.8,22c-33.4-23.1-29.5-72-6.4-105.4c23.1-33.4,68.9-56.4,102.3-33.3
	C911.5,1648.3,921,1708.6,897.9,1742z"/>
<g>
	<g>
		<g>
			<g>
				<polygon fill="#FECE2F" points="446.8,272.3 579.6,318 541,430.3 390.3,377.6 416.2,303.3 437.1,297.6 				"/>
			</g>
		</g>
		<g>
			<g>
				<polygon fill="#FFFFFF" points="446.8,305.3 423.1,312.3 403.1,382.6 390.3,377.6 416.2,303.3 437.1,297.6 446.8,272.3 
					460.8,276.9 				"/>
			</g>
		</g>
		<g>
			<g>
				<polygon fill="#FFFFFF" points="441.9,285.6 575.4,330.8 579.6,318 446.8,272.3 				"/>
			</g>
		</g>
		<g>
			<g>
				<polygon fill="#FECE2F" points="414.1,260.9 408.1,281.3 415.3,305.2 437.1,297.6 446.8,272.3 				"/>
			</g>
		</g>
		<g>
			<g>
				<polygon fill="#FFFFFF" points="441.9,285.6 424.8,277.6 408.1,281.3 414.1,260.9 448.8,272.9 				"/>
			</g>
		</g>
		<g>
			<g>
				<path fill="#1A1A1A" d="M318.4,269.4c-0.3,0-0.7-0.1-1-0.2c-1.6-0.5-2.4-2.2-1.9-3.8l19.4-56.5c0.5-1.6,2.2-2.4,3.8-1.9
					c1.6,0.5,2.4,2.2,1.9,3.8l-19.4,56.5C320.8,268.6,319.7,269.4,318.4,269.4z"/>
			</g>
		</g>
		<g>
			<g>
				<path fill="#1A1A1A" d="M554,460.2c-0.3,0-0.7-0.1-1-0.2c-1.6-0.5-2.4-2.2-1.9-3.8l9.7-28.2c0.5-1.6,2.2-2.4,3.8-1.9
					c1.6,0.5,2.4,2.2,1.9,3.8l-9.7,28.2C556.5,459.4,555.3,460.2,554,460.2z"/>
			</g>
		</g>
		<g>
			<g>
				<path fill="#1A1A1A" d="M292.4,294c-0.3,0-0.7-0.1-1-0.2c-1.6-0.5-2.4-2.2-1.9-3.8l16-46.7c0.5-1.6,2.2-2.4,3.8-1.9
					c1.6,0.5,2.4,2.2,1.9,3.8l-16,46.7C294.8,293.2,293.7,294,292.4,294z"/>
			</g>
		</g>
		<g>
			<path fill="#1A1A1A" d="M582.3,316.7c-0.3-0.7-1-1.3-1.7-1.5l-132.4-45.6c-0.1-0.1-0.2-0.1-0.4-0.2c-0.2-0.1-0.4-0.1-0.6-0.2
				l-31.4-10.8c-0.3-0.2-0.5-0.3-0.8-0.4c-0.3-0.1-0.5-0.1-0.8-0.1L358,238.6c-0.8-0.3-1.6-0.2-2.3,0.1c-0.7,0.3-1.3,1-1.5,1.7
				l-38.6,112.3c-0.3,0.8-0.2,1.6,0.1,2.3c0.3,0.7,1,1.3,1.7,1.5L540,433.1c0.3,0.1,0.6,0.2,1,0.2c0.5,0,0.9-0.1,1.3-0.3
				c0.7-0.3,1.3-1,1.5-1.7L582.5,319C582.7,318.3,582.7,317.4,582.3,316.7z M417.2,301.3c-2.5-8-5.5-17.9-6-20.1
				c0.4-1.8,2.6-9.1,4.9-16.3l26.8,9.2l-8,21.1L417.2,301.3z M539.1,426.5l-145.2-50l23.7-69l20.5-7.1c0.8-0.3,1.5-0.9,1.8-1.8
				l8.6-22.6l127.3,43.8L539.1,426.5z"/>
		</g>
		<g>
			<g>
				<path fill="#FFFFFF" d="M337.1,340.9c-1.2,0-2.3-0.7-2.8-1.9c-0.6-1.5,0.2-3.3,1.7-3.9l52.3-20.3c1.5-0.6,3.3,0.2,3.9,1.7
					c0.6,1.5-0.2,3.3-1.7,3.9l-52.3,20.3C337.8,340.9,337.5,340.9,337.1,340.9z"/>
			</g>
		</g>
		<g>
			<g>
				<path fill="#FFFFFF" d="M350.1,350.9c-1.2,0-2.3-0.7-2.8-1.9c-0.6-1.5,0.1-3.3,1.6-3.9l20.3-8.3c1.5-0.6,3.3,0.1,3.9,1.6
					c0.6,1.5-0.1,3.3-1.6,3.9l-20.3,8.3C350.9,350.9,350.5,350.9,350.1,350.9z"/>
			</g>
		</g>
		<g>
			<path fill="#1A1A1A" d="M451.6,312.6c-14.6,0-26.5,11.9-26.5,26.5s11.9,26.5,26.5,26.5s26.5-11.9,26.5-26.5
				S466.2,312.6,451.6,312.6z"/>
		</g>
		<g>
			<path fill="#FECE2F" d="M451.6,359.6c11.3,0,20.5-9.2,20.5-20.5c0-11.2-9.1-20.4-20.3-20.5c1.7,3.3,2.7,7,2.7,11
				c0,11.2-7.9,20.6-18.4,22.9C439.9,356.8,445.4,359.6,451.6,359.6z"/>
		</g>
		<g>
			<path fill="#1A1A1A" d="M518.9,335.3c-14.6,0-26.5,11.9-26.5,26.5c0,14.6,11.9,26.5,26.5,26.5s26.5-11.9,26.5-26.5
				C545.4,347.1,533.5,335.3,518.9,335.3z"/>
		</g>
		<g>
			<path fill="#FECE2F" d="M518.9,382.3c11.3,0,20.5-9.2,20.5-20.5c0-11.2-9.1-20.4-20.3-20.5c1.7,3.3,2.7,7,2.7,11
				c0,11.2-7.9,20.6-18.4,22.9C507.2,379.5,512.7,382.3,518.9,382.3z"/>
		</g>
		<g>
			<g>
				<polygon fill="#FECE2F" points="222.4,558.2 352.9,506.3 396.9,616.6 248.3,674.9 219.4,601.7 198.9,590.2 190.2,570.9 				"/>
			</g>
		</g>
		<g>
			<g>
				<polygon fill="#FFFFFF" points="192.4,571.5 198.2,588.2 216.9,572.2 239.7,566.5 242.9,550 				"/>
			</g>
		</g>
		<g>
			<g>
				<path fill="#FFFFFF" d="M260.9,670.5L235.4,607l9-17l13-32.5c0,0,102.5-30,102.5-31.5s-7-19.7-7-19.7l-110,43.7l-10.5,35.5
					l-13,16.2l29,75.8L260.9,670.5z"/>
			</g>
		</g>
		<g>
			<g>
				
					<path fill="none" stroke="#1A1A1A" stroke-width="6" stroke-linecap="round" stroke-linejoin="round" stroke-miterlimit="10" d="
					M222.4,558.2"/>
			</g>
		</g>
		<g>
			<g>
				<path fill="#1A1A1A" d="M281,598c-0.5,0-0.9-0.1-1.4-0.3c-1.5-0.8-2-2.6-1.3-4l8.4-16c0.8-1.5,2.6-2,4-1.3c1.5,0.8,2,2.6,1.3,4
					l-8.4,16C283.2,597.4,282.1,598,281,598z"/>
			</g>
		</g>
		<g>
			<g>
				<path fill="#1A1A1A" d="M297.4,597.1c-0.5,0-0.9-0.1-1.4-0.3c-1.5-0.8-2.1-2.6-1.3-4l10-19.6c0.8-1.5,2.6-2.1,4-1.3
					c1.5,0.8,2.1,2.6,1.3,4l-10,19.6C299.6,596.5,298.5,597.1,297.4,597.1z"/>
			</g>
		</g>
		<path fill="#1A1A1A" d="M399.6,615.4l-43.9-110.3c-0.3-0.7-0.9-1.3-1.6-1.6c-0.7-0.3-1.6-0.3-2.3,0l-218.7,87.1
			c-0.7,0.3-1.3,0.9-1.6,1.6c-0.3,0.7-0.3,1.6,0,2.3l43.9,110.3c0.5,1.2,1.6,1.9,2.8,1.9c0.4,0,0.7-0.1,1.1-0.2L398,619.3
			c0.7-0.3,1.3-0.9,1.6-1.6C399.9,617,399.9,616.2,399.6,615.4z M194.6,572.5l45.4-18.1l-10.3,29.7l-10.6,15.5
			c-7.2-4.4-16-10-17.9-11.4C200.4,586.5,197.4,579.5,194.6,572.5z M250.3,671.7l-26.9-67.6l11.6-16.9c0.2-0.2,0.3-0.5,0.4-0.7
			l12.1-35l103.9-41.3L393,614.9L250.3,671.7z"/>
		<g>
			<g>
				<path fill="#FFFFFF" d="M492.4,1005.1l12.7,12.5l75.3-74.7l11.3,25.3l65.3,60c0,0,9.3-6.7,7.3-6c-2,0.7-82.7-95.4-82.7-95.4
					L492.4,1005.1z"/>
			</g>
		</g>
		<path fill="#1A1A1A" d="M712.4,1107.8l-5.4-18.2l4.9-16.2c0.3-1,0.1-2.1-0.6-2.8L584,924.9c-0.5-0.6-1.3-1-2.1-1
			c-0.8-0.1-1.6,0.2-2.2,0.7l-89.4,78.2c-1.2,1.1-1.4,3-0.3,4.2l155,177.2c0.6,0.7,1.4,1,2.3,1c0.7,0,1.4-0.2,2-0.7l22.1-19.1
			c0.3-0.2,0.5-0.5,0.7-0.9l17-32.8l22.5-20.8C712.4,1110.1,712.8,1108.9,712.4,1107.8z M581.5,931.1l79.7,91.1
			c-12.6,11.2-13.2,12.2-13.5,12.6c-0.3,0.5-0.9,1.5-5.8,24.2l-55.6,48.7l-89.5-102.4L581.5,931.1z"/>
		<path fill="#FECE2F" d="M641.8,1059c4.9-22.7,5.5-23.7,5.8-24.2c0.3-0.5,0.9-1.5,13.5-12.6l-79.7-91.1l-84.8,74.2l89.5,102.4
			L641.8,1059z"/>
		<g>
			<g>
				<path fill="#1A1A1A" d="M609.5,1020.6c-0.1,0-0.3,0-0.5,0l-55.5-8.4c-1.6-0.2-2.8-1.8-2.5-3.4c0.2-1.6,1.8-2.8,3.4-2.5l55.5,8.4
					c1.6,0.2,2.8,1.8,2.5,3.4C612.2,1019.5,610.9,1020.6,609.5,1020.6z"/>
			</g>
		</g>
		<g>
			<g>
				<path fill="#1A1A1A" d="M582,1030.2c-0.1,0-0.3,0-0.4,0l-21.8-2.9c-1.6-0.2-2.8-1.7-2.6-3.4c0.2-1.6,1.7-2.8,3.4-2.6l21.8,2.9
					c1.6,0.2,2.8,1.7,2.6,3.4C584.8,1029.1,583.5,1030.2,582,1030.2z"/>
			</g>
		</g>
		<g>
			<g>
				<polygon fill="#FECE2F" points="218.1,927.7 177.7,1004.3 259.4,1129 300.7,1052.3 				"/>
			</g>
		</g>
		<g>
			<g>
				<polygon fill="#FFFFFF" points="221.2,927.8 302.1,927.7 384.7,1052.3 300.7,1052.3 				"/>
			</g>
		</g>
		<path fill="#1A1A1A" d="M387.4,1053.7c0.1-0.2,0.2-0.4,0.2-0.6c0-0.1,0-0.1,0-0.2c0-0.2,0-0.4,0-0.6c0-0.1,0-0.1,0-0.2
			c0-0.2-0.1-0.5-0.1-0.7c0,0,0-0.1-0.1-0.1c-0.1-0.2-0.2-0.4-0.3-0.5c0,0,0-0.1,0-0.1L304.6,926c-0.6-0.8-1.5-1.3-2.5-1.3h-84
			c-0.1,0-0.2,0-0.2,0c0,0-0.1,0-0.1,0c-0.2,0-0.3,0.1-0.5,0.1c0,0-0.1,0-0.1,0c-0.1,0-0.2,0.1-0.4,0.2c0,0-0.1,0-0.1,0.1
			c-0.1,0.1-0.3,0.2-0.4,0.3c0,0-0.1,0-0.1,0.1c-0.1,0.1-0.2,0.2-0.3,0.3c0,0-0.1,0.1-0.1,0.1c-0.1,0.1-0.2,0.3-0.3,0.4c0,0,0,0,0,0
			c0,0,0,0,0,0l-40.3,76.7c0,0,0,0.1,0,0.1c0,0.1-0.1,0.2-0.1,0.3c0,0.1-0.1,0.2-0.1,0.3c0,0.1,0,0.2-0.1,0.3c0,0.1,0,0.2,0,0.3
			c0,0.1,0,0.2,0,0.3c0,0.1,0,0.2,0,0.3c0,0.1,0,0.2,0.1,0.3c0,0.1,0,0.2,0.1,0.3c0,0.1,0.1,0.2,0.1,0.3c0,0.1,0.1,0.2,0.1,0.3
			c0,0,0,0.1,0.1,0.1l81.7,124.7c0,0,0.1,0.1,0.1,0.1c0.1,0.1,0.2,0.3,0.3,0.4c0,0,0.1,0.1,0.1,0.1c0.2,0.1,0.3,0.3,0.5,0.4
			c0,0,0,0,0,0c0,0,0,0,0,0c0,0,0.1,0,0.1,0c0.2,0.1,0.4,0.2,0.6,0.2c0.2,0.1,0.5,0.1,0.7,0.1c0,0,0,0,0,0h83.3
			c1.1,0,2.1-0.6,2.6-1.6L387.4,1053.7C387.4,1053.8,387.4,1053.8,387.4,1053.7C387.4,1053.8,387.4,1053.8,387.4,1053.7
			C387.4,1053.7,387.4,1053.7,387.4,1053.7z M181.2,1004.2l37.2-70.6l78.9,118.9l-38.1,70.7L181.2,1004.2z M300.4,930.7l78.7,118.7
			h-76.8l-78.7-118.7H300.4z"/>
		<path fill="#1A1A1A" d="M236.1,980.4c-7.7-4.4-19.3,1.8-26.3,14.1c-3.2,5.6-5,11.7-5,17.1c0,6,2.2,10.5,6.1,12.8
			c1.7,1,3.5,1.4,5.5,1.4c2.7,0,5.6-0.9,8.6-2.6c4.6-2.7,9-7.3,12.2-12.9C244.3,998,243.8,984.8,236.1,980.4z"/>
		<path fill="#FECE2F" d="M233.1,985.6c-0.7-0.4-1.6-0.6-2.5-0.6c-4.4,0-11,4.4-15.6,12.5c-2.7,4.7-4.2,9.7-4.2,14.1
			c0,3.7,1.1,6.5,3.1,7.6c1.9,1.1,4.6,0.7,7.5-0.8c-1.5-5.3-0.2-12.9,4-20.1c2.7-4.6,6-8.3,9.5-10.8
			C234.4,986.7,233.8,986,233.1,985.6z"/>
		<path fill="#1A1A1A" d="M266.3,1029.2c-7.7-4.4-19.3,1.8-26.3,14.1c-3.2,5.6-5,11.7-5,17.1c0,6,2.2,10.5,6.1,12.8
			c1.7,1,3.5,1.4,5.5,1.4c2.7,0,5.6-0.9,8.6-2.6c4.6-2.7,9-7.3,12.2-12.9C274.5,1046.7,274,1033.6,266.3,1029.2z"/>
		<path fill="#FECE2F" d="M263.3,1034.4c-0.7-0.4-1.6-0.6-2.5-0.6c-4.4,0-11,4.4-15.6,12.5c-2.7,4.7-4.2,9.7-4.2,14.1
			c0,3.7,1.1,6.5,3.1,7.6c1.9,1.1,4.6,0.7,7.5-0.8c-1.5-5.3-0.2-12.9,4-20.1c2.7-4.6,6-8.3,9.5-10.8
			C264.6,1035.4,264,1034.8,263.3,1034.4z"/>
		<g>
			<g>
				<path fill="#FFFFFF" d="M302.7,1110.8c-1,0-2.1-0.5-2.6-1.5c-0.8-1.4-0.3-3.3,1.1-4.1l48.5-27.5c1.4-0.8,3.3-0.3,4.1,1.1
					c0.8,1.4,0.3,3.3-1.1,4.1l-48.5,27.5C303.7,1110.7,303.2,1110.8,302.7,1110.8z"/>
			</g>
		</g>
		<g>
			<g>
				<path fill="#FFFFFF" d="M323.7,1117.3c-1,0-2-0.5-2.6-1.5c-0.8-1.4-0.3-3.3,1.1-4.1l17.8-10.2c1.4-0.8,3.3-0.3,4.1,1.1
					c0.8,1.4,0.3,3.3-1.1,4.1l-17.8,10.2C324.7,1117.2,324.2,1117.3,323.7,1117.3z"/>
			</g>
		</g>
		<g>
			<g>
				<path fill="#FECE2F" d="M304.7,978.7c-0.3,0-0.6,0-0.9-0.1l-39-12c-1.6-0.5-2.5-2.2-2-3.7s2.2-2.5,3.7-2l39,12
					c1.6,0.5,2.5,2.2,2,3.7C307.2,977.8,306,978.7,304.7,978.7z"/>
			</g>
		</g>
		<g>
			<g>
				<path fill="#FECE2F" d="M294.6,961c-0.3,0-0.6,0-0.9-0.1l-14.2-4.3c-1.6-0.5-2.5-2.2-2-3.7c0.5-1.6,2.2-2.5,3.7-2l14.2,4.3
					c1.6,0.5,2.5,2.2,2,3.7C297.1,960.1,295.9,961,294.6,961z"/>
			</g>
		</g>
		<g>
			<g>
				<polygon fill="#FECE2F" points="525.5,694 643.3,617.4 708,716.9 573.9,803.4 531.2,737.3 539.5,717.2 				"/>
			</g>
		</g>
		<g>
			<g>
				<polygon fill="#FFFFFF" points="585.1,796.9 543.8,738.6 552.4,711.3 546.4,695.6 647.4,625.3 643.3,617.4 525.4,695.6 
					539.5,717.2 532.1,739.1 573.9,803.4 				"/>
			</g>
		</g>
		<g>
			<g>
				<polygon fill="#FECE2F" points="496.4,712.8 508.8,730.1 532.1,739.1 539.5,717.2 525.5,694 				"/>
			</g>
		</g>
		<g>
			<g>
				<path fill="#FFFFFF" d="M496.4,712.8l6.3,8.8l11.7-11.3c0,0,19.3-3.7,18-4.7c-1.3-1-7-11.6-7-11.6L496.4,712.8z"/>
			</g>
		</g>
		<path fill="#1A1A1A" d="M710.6,715.3l-64.8-99.5c-0.9-1.4-2.8-1.8-4.2-0.9l-117.4,76.4c-0.1,0.1-0.2,0.1-0.4,0.2
			c-0.2,0.1-0.4,0.3-0.5,0.4L495.6,710c-0.3,0.1-0.6,0.2-0.9,0.4c-0.2,0.2-0.4,0.3-0.6,0.5l-49.8,32.4c-0.7,0.4-1.1,1.1-1.3,1.9
			c-0.2,0.8,0,1.6,0.4,2.3l64.8,99.5c0.6,0.9,1.5,1.4,2.5,1.4c0.6,0,1.1-0.2,1.6-0.5l197.3-128.4
			C711.1,718.6,711.5,716.7,710.6,715.3z M530.2,735.3c-7.9-2.9-17.5-6.6-19.6-7.6c-1.2-1.4-5.6-7.6-9.9-13.9l23.8-15.5l11.7,19.3
			L530.2,735.3z M575.1,799.9l-39.8-61.1l7-20.5c0.3-0.8,0.2-1.8-0.3-2.5L529.6,695l112.8-73.4l61.5,94.5L575.1,799.9z"/>
		<g>
			<g>
				<path fill="#FFFFFF" d="M509.8,823.9c-0.3,0-0.6,0-0.9-0.1c-1.6-0.5-2.5-2.1-2-3.7l16.1-53.8c0.5-1.6,2.1-2.5,3.7-2
					c1.6,0.5,2.5,2.1,2,3.7l-16.1,53.8C512.3,823.1,511.1,823.9,509.8,823.9z"/>
			</g>
		</g>
		<g>
			<g>
				<path fill="#FFFFFF" d="M525.7,819.8c-0.3,0-0.5,0-0.8-0.1c-1.6-0.4-2.5-2.1-2.1-3.7l5.9-21.2c0.4-1.6,2.1-2.5,3.7-2.1
					c1.6,0.4,2.5,2.1,2.1,3.7l-5.9,21.2C528.2,818.9,527,819.8,525.7,819.8z"/>
			</g>
		</g>
		<g>
			<g>
				<path fill="#1A1A1A" d="M640.4,718.7c-5.9,0-11.5-1.9-16.2-5.6c-5.6-4.4-9.1-10.6-10-17.6s1-14,5.4-19.5
					c4.4-5.6,10.6-9.1,17.6-10c7-0.9,14,1,19.5,5.4c11.5,9,13.6,25.7,4.6,37.2c-4.4,5.6-10.6,9.1-17.6,10
					C642.6,718.6,641.5,718.7,640.4,718.7z"/>
			</g>
		</g>
		<path fill="#FECE2F" d="M642.9,712.5c5.4-0.7,10.3-3.4,13.6-7.7c7-8.9,5.4-21.8-3.6-28.8c-3.6-2.8-8-4.3-12.6-4.3
			c-0.8,0-1.7,0.1-2.6,0.2c-5.4,0.7-10.2,3.4-13.5,7.6c3.6,0.6,7.2,2.2,10.3,4.6c8.9,6.9,11.4,18.9,6.7,28.6
			C641.9,712.6,642.4,712.6,642.9,712.5z"/>
		<path fill="#1A1A1A" d="M607.4,728.1c-0.9-7-4.4-13.3-10-17.6s-12.5-6.3-19.5-5.4c-7,0.9-13.3,4.4-17.6,10
			c-9,11.5-6.9,28.2,4.6,37.2c4.7,3.7,10.4,5.6,16.2,5.6c1.1,0,2.2-0.1,3.3-0.2c7-0.9,13.3-4.4,17.6-10
			C606.4,742.1,608.3,735.1,607.4,728.1z"/>
		<path fill="#FECE2F" d="M583.7,751.7c5.4-0.7,10.3-3.4,13.6-7.7c3.4-4.3,4.9-9.7,4.2-15.1c-0.7-5.4-3.4-10.3-7.7-13.6
			c-3.7-2.9-8.2-4.3-12.6-4.3c-6,0-12,2.7-16.1,7.7c3.6,0.6,7.2,2.2,10.3,4.6c8.9,6.9,11.4,18.9,6.7,28.6
			C582.7,751.8,583.2,751.7,583.7,751.7z"/>
		<g>
			<g>
				<path fill="#FFFFFF" d="M182,682.5c-0.5,0-1-0.1-1.4-0.4c-1.5-0.8-2-2.6-1.2-4.1l26.4-49.5c0.8-1.5,2.6-2,4.1-1.2
					c1.5,0.8,2,2.6,1.2,4.1l-26.4,49.5C184.2,681.9,183.1,682.5,182,682.5z"/>
			</g>
		</g>
		<g>
			<g>
				<path fill="#FFFFFF" d="M198.4,681.6c-0.5,0-0.9-0.1-1.4-0.3c-1.5-0.8-2.1-2.6-1.3-4l10-19.6c0.8-1.5,2.6-2.1,4-1.3
					c1.5,0.8,2.1,2.6,1.3,4l-10,19.6C200.6,681,199.5,681.6,198.4,681.6z"/>
			</g>
		</g>
	</g>
	<g>
		<path fill="#1A1A1A" d="M433.8,600.3c-1.2,0-2.3-0.7-2.8-1.9l-22.7-55.2c-0.6-1.5,0.1-3.3,1.6-3.9c1.5-0.6,3.3,0.1,3.9,1.6
			l22.7,55.2c0.6,1.5-0.1,3.3-1.6,3.9C434.6,600.2,434.2,600.3,433.8,600.3z"/>
	</g>
	<g>
		<path fill="#1A1A1A" d="M430.5,635.9c-1.2,0-2.3-0.7-2.8-1.9l-18.8-45.6c-0.6-1.5,0.1-3.3,1.6-3.9c1.5-0.6,3.3,0.1,3.9,1.6
			l18.8,45.6c0.6,1.5-0.1,3.3-1.6,3.9C431.3,635.8,430.9,635.9,430.5,635.9z"/>
	</g>
	<g>
		<path fill="#1A1A1A" d="M120.4,623.6c-1.2,0-2.3-0.7-2.8-1.9l-22.7-55.2c-0.6-1.5,0.1-3.3,1.6-3.9c1.5-0.6,3.3,0.1,3.9,1.6
			l22.7,55.2c0.6,1.5-0.1,3.3-1.6,3.9C121.2,623.6,120.8,623.6,120.4,623.6z"/>
	</g>
	<g>
		<path fill="#1A1A1A" d="M445.4,789.5c-1,0-1.9-0.5-2.5-1.4l-32.7-50c-0.9-1.4-0.5-3.2,0.9-4.2c1.4-0.9,3.2-0.5,4.2,0.9l32.7,50
			c0.9,1.4,0.5,3.2-0.9,4.2C446.5,789.4,446,789.5,445.4,789.5z"/>
	</g>
	<g>
		<path fill="#1A1A1A" d="M739.4,727.5c-1,0-1.9-0.5-2.5-1.4l-32.7-50c-0.9-1.4-0.5-3.2,0.9-4.2c1.4-0.9,3.2-0.5,4.2,0.9l32.7,50
			c0.9,1.4,0.5,3.2-0.9,4.2C740.5,727.4,740,727.5,739.4,727.5z"/>
	</g>
	<g>
		<path fill="#1A1A1A" d="M533.3,944.2c-0.8,0-1.7-0.4-2.3-1.1c-1.1-1.3-0.9-3.2,0.3-4.2l45.5-38.8c1.3-1.1,3.2-0.9,4.2,0.3
			c1.1,1.3,0.9,3.2-0.3,4.2l-45.5,38.8C534.7,944,534,944.2,533.3,944.2z"/>
	</g>
	<g>
		<path fill="#1A1A1A" d="M384.4,1103.1c-0.5,0-1-0.1-1.4-0.4c-1.5-0.8-2-2.6-1.2-4.1l28.7-52.4c0.8-1.5,2.6-2,4.1-1.2
			c1.5,0.8,2,2.6,1.2,4.1l-28.7,52.4C386.5,1102.5,385.5,1103.1,384.4,1103.1z"/>
	</g>
	<g>
		<path fill="#1A1A1A" d="M181.7,950.4c-0.5,0-1-0.1-1.4-0.4c-1.5-0.8-2-2.6-1.2-4.1l28.7-52.4c0.8-1.5,2.6-2,4.1-1.2
			c1.5,0.8,2,2.6,1.2,4.1l-28.7,52.4C183.8,949.8,182.8,950.4,181.7,950.4z"/>
	</g>
	<g>
		<path fill="#1A1A1A" d="M157.1,960.4c-0.5,0-1-0.1-1.4-0.4c-1.5-0.8-2-2.6-1.2-4.1l14.3-26.2c0.8-1.5,2.6-2,4.1-1.2
			c1.5,0.8,2,2.6,1.2,4.1l-14.3,26.2C159.2,959.8,158.1,960.4,157.1,960.4z"/>
	</g>
	<g>
		<path fill="#1A1A1A" d="M107.8,636.5c-1.2,0-2.3-0.7-2.8-1.9l-9.4-22.8c-0.6-1.5,0.1-3.3,1.6-3.9c1.5-0.6,3.3,0.1,3.9,1.6
			l9.4,22.8c0.6,1.5-0.1,3.3-1.6,3.9C108.5,636.4,108.2,636.5,107.8,636.5z"/>
	</g>
</g>
<g>
	<g>
		<path fill="#1A1A1A" d="M1796.4,1860.1h-198.1c-1.7,0-3-1.3-3-3s1.3-3,3-3h198.1c1.7,0,3,1.3,3,3S1798.1,1860.1,1796.4,1860.1z"/>
	</g>
	<g>
		<path fill="#1A1A1A" d="M1562.4,1860.1h-63.1c-1.7,0-3-1.3-3-3s1.3-3,3-3h63.1c1.7,0,3,1.3,3,3S1564.1,1860.1,1562.4,1860.1z"/>
	</g>
	<g>
		<path fill="#FECE2F" d="M1293.8,383.1l-14.7,8.3c0,0,2,15.2,14.2,15.8C1305.4,408,1293.8,383.1,1293.8,383.1z"/>
	</g>
	<g>
		<path fill="#FECE2F" d="M1300.4,364.3c0,0-19.3,36.7-7.7,63c11.7,26.3,23.3,33.3,48.7,28.3l4.7-30.3l25.7-42.3l-31.3-13
			L1300.4,364.3z"/>
	</g>
	<g>
		<path fill="#1A1A1A" d="M808.4,457.6l-38.3-72l-30.7-60l0.3,12.7l20.3,54.3l27.6,67C787.7,459.6,798.1,462.3,808.4,457.6z"/>
	</g>
	<g>
		<path fill="#FECE2F" d="M884.7,538.6l-35-61l-18.2-26.8l-29.1-30c0,0-6.9,12.3,0.4,26s5.8,10.8,5.8,10.8s-10.8,3.5-14,3.2
			s-6.8-1.2-6.8-1.2l-7.8-17.9c0,0-9,7.9-6,17.1s5.5,12.5,5.5,12.5s-3.2,11.4,5.7,16.6c0,0-4.2,11.9,5.3,18.2
			c0,0,3.5,12.5,13.2,13.8s9.2,7.2,9.2,7.2l30.5,74.5c0,0,3-26.8,18-43.5S884.7,538.6,884.7,538.6z"/>
	</g>
	<g>
		<path fill="#FFFFFF" d="M1776.7,1720.6l6.2,14c0,0-8.5-10.2-17.8-4.8s-15.5,12.8-16.5,23.5s-7.6,43.2-7.6,43.2l-7.2,39.5
			l-6.4,15.6l-32.4,0.7l-10.2-4.5c0,0-4.8-6.3-0.8-12.5c0,0,13.5,5.8,23,4.8s14.8-4.5,14.8-4.5l6.2-25.8l5.2-34.8l5-29.2l12.5-19.2
			l13.8-7.8L1776.7,1720.6z"/>
	</g>
	<g>
		<path fill="#FECE2F" d="M1731.8,1636.3l27,56c0,0-16-3.3-25.7,4.3c-9.7,7.7-10.7,21.3-8.7,29.3s0,21.3-2.7,24
			c-2.7,2.7-9.3,4.7-9.3,4.7s2.3-9.7-3.7-16.7s-47.3-54.8-47.3-54.8s21.3-2.2,44-20.2C1728.1,1645,1731.8,1636.3,1731.8,1636.3z"/>
	</g>
	<g>
		<path fill="#FFFFFF" d="M1327.1,1829.3c-3.9,2.1-7.8,4.3-12,5.6c-5.5,1.8-11.4,2-17.2,2c-16.9,0-33.6-2.4-50.3-5.1
			c-22.1-3.6-44.1-7.8-65.9-12.7c-0.3-0.4,0.7-0.2,0.5,0.2c-0.3,0.4-0.8,0.3-1.3,0.2c-1.6,0-2.7,1.9-2.3,3.5
			c0.3,1.6,1.6,2.8,2.8,3.8c12.7,10.6,29.8,14,46.1,17c23.6,4.4,47.3,8.8,71.3,9.3c7.8,0.2,15.7-0.1,23.2-2.1
			c6.8-1.8,13.6-5.5,16.6-11.9c1.7-3.7,2.3-9.5,0-13.2C1336.3,1822.1,1330.1,1827.6,1327.1,1829.3z"/>
	</g>
	<g>
		<path fill="#FECE2F" d="M1229.9,1655.1l13.5,65l16,56.5c0,0,1.5,32,20,31.5s22.5-10,22.5-10s11.5-17.5,27-12
			c0,0-10.1-44.4-10.8-51.6c-0.3-3.2-3.2-41.4-3.2-41.4s-10,3-43.5-10.5S1229.9,1655.1,1229.9,1655.1z"/>
	</g>
	<g>
		<path fill="#FECE2F" d="M885,539.8c0,0,30.1,51.5,61.1,79.5s53.7,42.7,111,36c57.3-6.7,125-79,125-79s47.8-53.7,89.1-65.7
			c41.3-12,77.6-10,77.6-10s18.7,67,37,99.7c18.3,32.7,107.3,138,107.3,138l50.7,54.7l100,53.3c0,0-13.3,46-28,81.3
			c-14.7,35.3-37.5,72.7-56.7,89.3l19.8,70.7c0,0,13,43,15,66.5s-5.5,53.5-5.5,53.5s16,29.5,28,82s0,87,0,87l49.5,109l65.8,150.7
			c0,0-9.8,20.8-43.8,37.8s-71.5,7-71.5,7s-53-10.5-69-2s-39.5,29.5-57.5,26s-85-20-85-20s-21,2-45,7s-76.5-1.5-108-20.5
			s-28-47.5-28-47.5l-36.5-231c0,0-18.5-162-21-210s-4-171-4-171l9.3-104.5l-15.3,4.5c0,0-45,25.5-123,23.5s-132-31-132-31
			s-47.5-53.5-57.5-171s-1.5-138.5,10-163.5S885,539.8,885,539.8z"/>
	</g>
	<g>
		<path fill="#FFFFFF" d="M1293,1252.7c-6.6-10.4-80.5-93.1-108.2-147.7c-28.5-56.4-19.9-128.7-19.9-128.7s-12,109.5,7.5,291
			s57.5,387.9,57.5,387.9l41.5,27.5c0,0-24-53.9-61.5-343.4c-4-31.1-7.2-60.7-9.8-88.7l0.1-0.1c0,0-3.4-39.4,35.5-11.6
			c4.6,3.3,11.7,9.1,17.8,14.6c3.5,3.1,6.4,6.2,9.3,9.2c5.8,6.1,10.8,11.4,17.4,13.7c1.2,0.4,2.4,0.6,3.7,0.6
			c3.9,0,7.9-1.8,10.4-4.9c1.9-2.3,2.8-5.3,2.7-8.5C1296.7,1260.2,1295.4,1256.5,1293,1252.7z"/>
	</g>
	<g>
		<path fill="#FFFFFF" d="M1353.1,499c0,0-19.3-4-49.3,2s-68.7,23.3-89.3,44.7s-90,80.7-90,80.7s-71.3,44-116.7,28.7
			c-45.3-15.3-81.3-48.7-94-72c-12.7-23.3-54.7-88.7-54.7-88.7l-20.7-34L802.6,422c0,0-9,4.5,4.8,29.5c0,0,16.3,18.2,28.3,40.8
			c12,22.7,46.7,106,102,151.3c12.5,10.3,26.2,17.9,40.2,23.3c0,0,0,0,0,0s18.2,8.4,17.2,18.4c-0.6,6.3-6.9,11.1-18,21
			c-18.3,16.3-15.3,34,1.7,32.7c31-2.4,73.8-35.3,95.7-53.9c8.8-7.4,56-50.2,97.3-70.8c46.7-23.3,63.3-63.3,100-83.3
			c36.7-20,91.3-14.7,91.3-14.7L1353.1,499z"/>
	</g>
	<g>
		<path fill="#1A1A1A" d="M787.1,461.3c-1.2,0-2.3-0.7-2.8-1.9l-58.4-146.2c-0.5-1.3-0.4-2.8,0.3-4c0.7-1.2,1.9-2.1,3.3-2.3
			c2-0.3,3.9,0.7,4.8,2.5l76.7,146.9c0.8,1.5,0.2,3.3-1.3,4c-1.5,0.8-3.3,0.2-4-1.3l-64.5-123.6l48.6,121.7c0.6,1.5-0.1,3.3-1.7,3.9
			C787.8,461.2,787.5,461.3,787.1,461.3z"/>
	</g>
	<g>
		<path fill="#1A1A1A" d="M794.6,464c-3.3,0-7.1-0.3-11.6-1.2c-1.6-0.3-2.7-1.9-2.4-3.5c0.3-1.6,1.9-2.7,3.5-2.4
			c16.6,3,22.4-1.5,22.5-1.6c1.2-1.1,3.1-1,4.2,0.3c1.1,1.2,1,3.2-0.3,4.3C809.8,460.4,805.4,464,794.6,464z"/>
	</g>
	<g>
		<path fill="#1A1A1A" d="M802.7,449.9c-1.1,0-2.2-0.6-2.7-1.7c-8.4-17.7-0.4-28.7-0.1-29.1c1-1.3,2.9-1.6,4.2-0.6
			c1.3,1,1.6,2.9,0.6,4.2c-0.3,0.4-6.1,8.7,0.7,22.9c0.7,1.5,0.1,3.3-1.4,4C803.6,449.8,803.1,449.9,802.7,449.9z"/>
	</g>
	<path fill="#1A1A1A" d="M1939.4,614.4c-8.1-35.2-22.3-64.8-39.9-83.6c-54.8-58.3-141.5-55.9-204.8-54.1
		c-21.2,0.6-39.5,1.1-53.2-0.7l-1.2-0.2c-54.9-7.3-137.9-18.3-170.3-104.6c-13.2-35-33.6-59-60.8-71.3c-29-13.1-57.4-8.7-68.4-4.5
		c-20.4,7.7-48.8,32.6-43.2,69.3c0.1,0.9,0.7,1.7,1.5,2.2c0.3,0.2,6.6,4,9.2,15.4c1.3,5.5,1.2,10.1,1.2,13.9c0,5.6-0.1,10.3,4.6,13
		c2.1,1.2,4.5,1.2,6.7,0.1s6.1-4.4,7.2-13.7c0.5-4,2.4-7.3,5.3-9.2c2.2-1.5,4.8-1.9,7.2-1.3c1.7,0.5,3.1,1.7,4.1,3.5
		c2,3.6,2.2,9,0.6,14.5c-1.2,4-3.5,7-5.2,8.8c-3.3,3.4-5.2,8.1-5.3,13c-0.4,28.8,6.1,133.4,105.9,270.3
		c58.9,80.8,124.7,134.7,195.7,160.4c30.6,11.1,62,16.6,93.5,16.6c4.9,0,9.7-0.1,14.6-0.4c36.9-2,74.1-11.7,110.7-28.8
		c57.9-26.5,79.3-79.1,87.1-118.7C1948.7,689.8,1947.8,650.8,1939.4,614.4z"/>
	<path fill="#FFFFFF" d="M1805.3,797.1c-30.3-5.1-65.5-6.5-67,11.5s40.8,23,48.9,26.9c13.5,6.5,4.2,18.7-1.6,24.6
		c22.3-4.8,44.6-12.3,66.9-22.8c22.2-10.2,38.8-24.4,51.3-40.2c3.8-5.5,8-11.8,11.5-17c0.5-0.9,1.1-1.8,1.6-2.8
		C1906.4,789,1877.3,809.3,1805.3,797.1z"/>
	<path fill="#FFFFFF" d="M1496.4,439.6c-6.8,2.2-57.8,8.8-64,22.7c-4,8.9,7.3,16.3,23,14c15.7-2.3,21-3,25,3.3
		c4,6.3,15,10.7,30.3,6.3c15.3-4.3,42.3-21.7,70.7-14.3c0,0-0.2-0.1-0.6-0.2c-27.9-7.2-56.4-19.1-79.7-41.2
		C1503,432.7,1504.5,437,1496.4,439.6z"/>
	<g>
		<path fill="#FFFFFF" d="M1539.9,1405.1l-100.5-95.1c-8-7.6-8.4-20.3-0.8-28.3l0.3-0.4c7.6-8,20.3-8.4,28.3-0.8l100.5,95.1
			c8,7.6,8.4,20.3,0.8,28.3l-0.3,0.4C1560.7,1412.3,1547.9,1412.7,1539.9,1405.1z"/>
	</g>
	<g>
		<path fill="#FFFFFF" d="M1541.9,1483.6c4.2-6.7,15-10,33,1.5s20,16,29,14.5s17-6.3,35.5,5.5c26.3,16.8,38,29.5,30,38
			s-15.3,0.8-31.5,7.5c-11,4.5-16,12-30.5,4.5s-58-41.1-62.5-47.5C1537.9,1497.6,1538.7,1488.8,1541.9,1483.6z"/>
	</g>
	<g>
		
			<ellipse transform="matrix(0.9921 -0.1256 0.1256 0.9921 -184.6009 219.7791)" fill="#FFFFFF" cx="1651.2" cy="1574.3" rx="16.7" ry="14"/>
	</g>
	<g>
		<path fill="#1A1A1A" d="M1285.4,1032.2c4.1,21,8.3,42,12.9,62.9c4.5,20.9,9.3,41.8,14.3,62.6c5,20.8,10.1,41.5,15.6,62.2l4.1,15.5
			l4.2,15.5c2.9,10.3,5.7,20.6,8.8,30.8c3,10.3,6,20.5,9.1,30.7c3.2,10.2,6.3,20.4,9.7,30.5c3.2,10.2,6.6,20.3,10,30.4
			c1.7,5.1,3.5,10.1,5.3,15.1l2.6,7.6l2.7,7.5l5.5,15l5.7,15c1.8,5,3.8,10,5.8,14.9l2.9,7.4l1.5,3.7l1.5,3.7l6.1,14.8
			c2,5,4.2,9.8,6.3,14.7l3.1,7.4c1,2.5,2.2,4.9,3.3,7.3l6.5,14.7l0,0.1c0.7,1.5,0,3.3-1.5,4c-1.4,0.6-3.1,0.1-3.8-1.3
			c-5.2-9.4-10.6-18.8-15.4-28.4l-3.7-7.2c-1.2-2.4-2.5-4.8-3.6-7.2l-7-14.6l-1.7-3.7l-1.7-3.7l-3.3-7.4c-2.2-4.9-4.5-9.8-6.6-14.8
			l-6.3-14.9l-6-15c-8-20-15.3-40.3-22.3-60.7c-3.5-10.2-6.7-20.5-10-30.7c-3.1-10.3-6.4-20.6-9.3-30.9
			c-12-41.4-22.3-83.2-30.9-125.4c-4.4-21.1-8.2-42.2-11.7-63.5c-1.7-10.6-3.3-21.3-4.8-31.9c-1.5-10.7-2.8-21.3-3.8-32.1
			c-0.2-1.7,1.1-3.1,2.7-3.3C1283.7,1029.6,1285.1,1030.7,1285.4,1032.2L1285.4,1032.2z"/>
	</g>
	<path fill="#1A1A1A" d="M1349.4,498l-9-40.5c0,0,0,0,0,0c0,0,0,0,0-0.1c-0.1-0.2-0.1-0.4-0.2-0.6c0,0-0.1-0.1-0.1-0.1
		c-0.1-0.2-0.2-0.3-0.3-0.5c0-0.1-0.1-0.1-0.1-0.1c-0.1-0.1-0.3-0.3-0.5-0.4c0,0-0.1-0.1-0.1-0.1c-0.2-0.1-0.4-0.2-0.6-0.3
		c0,0,0,0-0.1,0c0,0-0.1,0-0.1,0c-0.2,0-0.4-0.1-0.5-0.1c-0.1,0-0.1,0-0.2,0c-0.2,0-0.4,0-0.6,0.1c0,0-0.1,0-0.1,0c0,0,0,0,0,0
		c-0.1,0-5.8,1.4-13.3-0.3c-10.3-2.4-18.6-9.2-24.8-20.2c-7.8-13.9-6.2-31.8-3.5-44.4c3-13.9,8-24.6,8.1-24.7c0.7-1.5,0.1-3.3-1.4-4
		c-1.5-0.7-3.3-0.1-4,1.4c-0.2,0.3-3.1,6.7-5.9,16.1c-0.3,0.2-0.6,0.4-0.8,0.7c0,0-3.4,4.5-10.1,7c-3.4,1.3-5.1,5.5-4.2,10.5
		c0.9,4.9,4.4,9.8,10.1,11c-0.2,11.3,1.9,21.3,6.4,29.3c7.8,14,18,20,26.7,22.5l6.5,38.5c0.2,1.4,1.4,2.5,2.9,2.5l17,0.5
		c0,0,0.1,0,0.1,0c0.9,0,1.7-0.4,2.3-1.1C1349.3,499.8,1349.6,498.9,1349.4,498z M1287.2,402.2c-2.7-1-3.8-3.5-4.2-4.7
		c-0.9-2.6-0.3-4.7,0-5c2.4-0.9,4.4-2,6.1-3.1C1288.2,393.8,1287.6,398.1,1287.2,402.2z"/>
	<g>
		<path fill="#FFFFFF" d="M1237.1,683.6c19.2-4.5,26.3,6.4,26.3,24.5c0,21.5-1.7,55.5-24.3,72.2c-22.7,16.7-109.2,42.3-130,31.3
			c-17.4-9.2-12-27.3,3.3-35.3c15.3-8,66-12,82-32S1203.1,691.6,1237.1,683.6z"/>
	</g>
	<g>
		<path fill="#FFFFFF" d="M1860.7,562.6c-0.7,0-1.3-0.2-1.9-0.7c-37.8-31-80.2-39.8-109.1-41.7c-31.5-2.1-54.2,3.3-54.5,3.4
			c-1.6,0.4-3.2-0.6-3.6-2.2c-0.4-1.6,0.6-3.2,2.2-3.6c1-0.2,23.7-5.6,56.1-3.5c29.9,1.9,73.7,11,112.8,43.1
			c1.3,1.1,1.5,2.9,0.4,4.2C1862.4,562.2,1861.5,562.6,1860.7,562.6z"/>
	</g>
	<g>
		<path fill="#FFFFFF" d="M1703,556.2c-51.5,0-78.9-19.2-80.3-20.2c-1.3-1-1.7-2.8-0.7-4.2c1-1.3,2.8-1.7,4.2-0.7
			c0.5,0.4,39.2,27.1,109.8,16.5c1.6-0.2,3.2,0.9,3.4,2.5c0.2,1.6-0.9,3.2-2.5,3.4C1724.6,555.5,1713.3,556.2,1703,556.2z"/>
	</g>
	<path fill="#1A1A1A" d="M1788.4,1738.5C1788.4,1738.5,1788.4,1738.5,1788.4,1738.5C1788.4,1738.5,1788.3,1738.4,1788.4,1738.5
		c-0.9-3.7-3.3-9-6.3-14.8c-0.1-0.3-0.2-0.6-0.3-0.9c0-0.1-0.3-0.4-0.7-1c-7.8-14.6-19-31.6-20.3-33.7l-26.3-53.1
		c-1.4-3.1-68.6-154.1-107.3-241.6c-2.2-5.1-4.8-10.7-7.5-16.9c1.4-4,5.4-18,4.9-42.1c-0.1-6.4-0.6-13.9-1.7-22.4
		c0-0.5-0.1-0.9-0.1-1.4c0-0.2-0.1-0.4-0.2-0.7c-3.4-25.5-11.8-59.9-30.9-102.5c14.4-38.5-0.4-87.5-16.1-139.3
		c-4.9-16.3-10-33-14.1-49.4c22-20.8,42.6-54.4,61.1-99.9c13.8-34,21.3-62.3,21.4-62.5c0.4-1.6-0.5-3.2-2.1-3.7
		c-1.6-0.4-3.2,0.5-3.7,2.1c-0.3,1.1-28.6,107.7-78.3,157.1c-1.3-5.7-2.5-11.3-3.5-16.9c-2.4-13.5-4.4-27-6-40.2c0-0.1,0-0.3,0-0.4
		c0-0.8-4.2-83,6.5-111.8c2.8-7.5,6.7-12.3,11.6-14.3c6.2-2.4,12.1,0.5,12.2,0.6c1.4,0.7,3.1,0.2,4-1.2c0.8-1.4,0.4-3.1-0.9-4
		l-40.2-26.5c0,0-0.1,0-0.1-0.1c-0.2-0.1-0.3-0.2-0.5-0.2c-0.1,0-0.1,0-0.2-0.1c-0.2-0.1-0.4-0.1-0.7-0.1c0,0,0,0,0,0c0,0,0,0,0,0
		c-0.2,0-0.4,0-0.6,0c-0.1,0-0.2,0-0.3,0.1c-0.1,0-0.3,0.1-0.4,0.1c-0.1,0-0.1,0-0.2,0.1c0,0-0.1,0-0.1,0.1
		c-0.2,0.1-0.3,0.2-0.5,0.3c-0.1,0.1-0.1,0.1-0.2,0.2c-0.1,0.1-0.2,0.2-0.3,0.4c0,0.1-0.1,0.1-0.1,0.2c-0.1,0.1-0.2,0.3-0.2,0.4
		c0,0.1-0.1,0.1-0.1,0.2c-0.1,0.2-0.1,0.5-0.1,0.7c0,0,0,0,0,0c0,0,0,0,0,0c0,0,0,0,0,0.1c-0.2,3.4-5.7,99.8,11.6,196.5
		c4.3,24.1,12,49.3,19.4,73.8c11.3,37.2,22.1,72.9,21.7,103.7l-0.4,2.4c-0.4,1.1-1.2,2.2-2.7,2.7c-2.6,0.9-6-0.4-8.3-3.1
		c-2.4-2.7-5.3-8.4-8-14.2l-5.1-12c-36.2-90.3-58.4-168.7-58.7-169.7c-0.4-1.6-2.1-2.5-3.7-2.1c-1.6,0.4-2.5,2.1-2.1,3.7
		c0.3,0.9,21.9,77.6,57.4,166.7c0,0.2,0.1,0.4,0.2,0.6c0.2,0.4,1.7,4.4,3.9,9.6c6.8,16.6,14,33.6,21.6,50.6
		c12,26.7,26.2,64.4,31.1,103c0,0.4,0.1,1,0.1,1.7c0.1,4.6-0.7,14.9-8.7,16.1c-5.8,0.9-11.3-5.4-15-11.5
		c-36.4-79.6-81.4-176.4-82-177.8c-0.7-1.5-2.5-2.2-4-1.5c-1.5,0.7-2.2,2.5-1.5,4c0.6,1.3,42,90.3,77.4,167.7c0,0.4,0.1,0.8,0.2,1.1
		c0.1,0.3,1,2.7,2.6,5.8l26.7,58c3.4,7.5,6.4,14.3,9.1,20.4c36.8,83.3,99.5,224,106.7,240.2c-5.3,7.7-35.4,46.9-88.8,44.6
		c-10-0.4-21-1.9-31.6-3.3c-12-1.6-24.2-3.3-35.6-3.5c-0.5-0.2-1-0.4-1.5-0.4c-0.2,0-0.5,0-0.7,0c-17.8,0-26.8-27.4-37.3-59
		c-2.1-6.3-4.2-12.8-6.5-19.3c-12.6-35.6-57.1-151.9-57.5-153.1c-0.4-1-1.2-1.7-2.3-1.9c-1-0.2-2.1,0.2-2.8,1
		c-2.7,3.2-0.5,12.2,25.9,87.2c4.6,13,9.3,26.4,13.5,38.7c1.9,5.6,3.7,10.9,5.5,15.9c15.8,45.8,24.5,71,25.6,85.1
		c0.8,9.9-2.2,14.7-3.7,16.3c-0.3,0.3-0.7,0.6-1,0.9c-20.6,18-30.7,21.3-75.2,9.4c-13.6-3.6-24.5-6.6-34-8.5
		c-0.5-0.2-1.5-0.5-2.9-0.9c-6.2-2.5-21.7-12-31.3-45.5c-13.6-47.2-29.5-115.8-43.6-176.4c-7.3-31.4-14.2-61-19.4-81.9
		c-2.8-11.2-5-19.3-6.7-24.9c-2.5-8-3.9-11.5-7.3-10.9c-1,0.2-1.8,0.7-2.4,1.6c-3.3,4.9,2.2,31.6,22.6,121
		c5.2,22.9,10.6,46.6,15.2,67.9c5.3,24.4,11.3,47.3,16.5,67.5c10.6,40.5,18.5,70.2,13.5,80.8c-0.7,1.4-1.4,2.5-3.7,3.3
		c0,0-0.1,0-0.1,0c-28,9.3-86.3,0-117.7-18.8c-13.3-8-21.2-17.1-22.7-26.5c0,0,0,0,0,0c0,0,0,0,0,0
		c-28.5-154.8-62.9-379.7-65.1-571.7c-0.3-25.3,0-47.4,0.7-66.5c6.3,1,12,1.6,17.3,1.6c12.4,0,22.3-2.9,30-8.6
		c14-10.5,17.5-28.5,19-44.8c2.5-26.5,4.9-39.3,35.5-65.5c35.4-30.3,44.2-55,48-73.2c2.1-10.2,0-23.9-12.8-28.6
		c-9.5-3.5-20,0.4-24.8,9.3c-4,7.4-8.9,15.6-8.9,15.7c-0.2,0.3-0.3,0.6-0.4,0.8c-1.9,3.7-13.3,24.3-36.3,47.2
		c-23.3,23.3-63.7,53.8-123.4,66.6c-59.8,12.8-112.6,5.9-146.4-2.1c-33.5-7.9-55.5-18.6-59.1-20.4c-11.2-13.9-24.6-36.3-36.1-71.6
		c1.7,0.7,3.5,1.3,5.2,2c14.2,5.3,28.5,10.2,42.9,14.6c14.4,4.4,29,8.3,43.8,11.5c14.8,3.2,29.7,5.6,44.8,6.9
		c3.8,0.3,7.5,0.5,11.3,0.7c3.8,0.2,7.6,0.2,11.4,0.2c1.9,0,3.8,0,5.7-0.1l5.6-0.2c3.7-0.2,7.4-0.4,11.1-0.6
		c14.8-0.9,29.5-2.4,44.1-4.4c14.6-2,29.1-4.5,43.5-7.6c7.2-1.5,14.4-3.2,21.5-5c3.6-0.9,7.1-1.8,10.7-2.9c3.6-1,7.1-2,10.7-3.2
		c0.1,0,0.1,0,0.2-0.1c1.5-0.6,2.3-2.4,1.7-3.9c-0.6-1.5-2.4-2.3-3.9-1.7l0,0c-1.6,0.6-3.3,1.3-5,1.8c-1.7,0.6-3.4,1.1-5.2,1.7
		c-3.5,1-7,2-10.5,2.9c-7,1.8-14.1,3.4-21.3,4.7c-14.3,2.6-28.7,4.4-43.2,5.4c-7.2,0.5-14.5,0.7-21.7,0.9c-7.2,0-14.5,0-21.7-0.3
		c-3.6-0.2-7.2-0.3-10.8-0.6c-3.6-0.2-7.2-0.5-10.7-0.9c-7-0.7-14-1.8-21-3.3c-3.5-0.7-6.9-1.5-10.4-2.4c-3.4-0.9-6.9-1.8-10.3-2.9
		c-3.4-1-6.8-2.1-10.2-3.2c-3.4-1.2-6.7-2.3-10-3.6c-13.3-5-26.3-10.8-39.1-17.3c-6.3-3.3-12.6-6.6-18.8-10.2
		c-6.2-3.6-12.3-7.2-18.3-11.1c-6-3.9-11.9-7.8-17.7-11.9c-2.9-2.1-5.7-4.1-8.5-6.3l-4.1-3.2l-2-1.6l-1-0.8l-0.5-0.4
		c-0.1-0.1-0.3-0.3-0.4-0.3c-0.8-1.3-1.7-2.6-2.7-3.7c-1.4-7.6-2.6-15.6-3.8-24c-2.5-18.2-4.5-40.3-5.5-62.7
		c6.1,7.3,12.5,14.4,19,21.3c7.2,7.6,14.7,14.9,22.4,22l2.9,2.7l2.9,2.6c2,1.7,3.9,3.5,5.9,5.2c4,3.4,7.9,6.7,12,10
		c4,3.3,8.2,6.4,12.3,9.6c2.1,1.6,4.2,3.1,6.3,4.6c2.1,1.5,4.2,3.1,6.3,4.5c17,11.9,34.7,22.7,52.9,32.3c1.3,0.7,3,0.3,3.9-1
		c0.9-1.4,0.5-3.2-0.9-4.2l0,0c-17-11.2-33.2-23.5-48.5-36.6c-1.9-1.6-3.8-3.3-5.7-5c-1.9-1.7-3.8-3.3-5.6-5.1
		c-3.7-3.4-7.4-6.9-11-10.4c-3.6-3.5-7.1-7.1-10.6-10.7c-1.7-1.8-3.4-3.7-5.2-5.5l-2.6-2.8l-2.5-2.8c-6.7-7.5-13.1-15.2-19.3-23.1
		c-6.2-7.9-12-15.9-17.6-24.2c-5.6-8.2-10.8-16.7-15.7-25.2c-0.7-1.2-1.4-2.4-2-3.7c0.5-13.1,1.6-25.4,3.4-35.8
		c7.2-42,28.3-55.1,38.3-59c31.4,51.1,67.9,100.4,118,113.4c9.5,2.5,19.2,3.7,29,3.7c26.1,0,53.5-8.8,82.8-26.5
		c33.8-20.4,63.1-48.4,86.7-70.9c10.6-10.1,19.7-18.8,27.2-24.8c3.6-2.9,7.3-5.6,11.1-8c0.2,0,0.4,0,0.7,0l0.1,0
		c0.4,0,1.1-0.1,1.6-0.1c0.6,0,1.2,0,1.8,0c1.2,0,2.4,0.1,3.5,0.1c2.4,0.2,4.7,0.5,7.1,0.9c4.7,0.9,9.2,2.2,13.6,4.1
		c8.7,3.7,16.5,9.3,23,16.3c6.4,6.9,11.5,15.1,15.5,23.8c2,4.4,3.7,8.9,5.1,13.5c1.5,4.7,2.8,9.4,4.2,14.2
		c5.3,19.1,10,38.6,15.2,57.9c5.2,19.4,10.7,38.8,17.5,58c3.4,9.6,7.1,19.1,11.4,28.5c4.3,9.4,9,18.6,14.7,27.6
		c5.7,8.9,12.4,17.5,20.8,25c4.2,3.7,8.9,7.1,14,9.9c5.1,2.8,10.7,5,16.6,6.3c1.5,0.3,3,0.6,4.4,0.8c1.4,0.2,2.8,0.4,4.3,0.5
		c2.9,0.3,5.8,0.4,8.7,0.4c5.9-0.1,11.8-0.9,17.5-2.5c11.4-3.1,21.8-9.1,30.4-16.5c8.7-7.4,15.8-16,21.8-25.1c0,0,0,0,0,0
		c-0.2-0.1-0.3-0.3-0.5-0.4c-2.1-1.2-15.5-12.7-17.5-16.7c-0.8,1.4-1.6,2.8-2.4,4.1c-4.7,7.8-10.2,14.9-16.6,20.7
		c-6.3,5.9-13.6,10.3-21.3,12.7c-3.9,1.2-7.9,2-12.1,2.2c-2.1,0.1-4.2,0.1-6.3,0c-1.1,0-2.1-0.2-3.2-0.3c-1-0.1-2-0.3-3-0.4
		c-7.9-1.4-15.4-5.3-22.2-10.8c-6.8-5.5-12.9-12.6-18.3-20.3c-5.4-7.7-10.2-16.1-14.5-24.7c-4.4-8.7-8.3-17.6-11.9-26.7
		c-7.3-18.2-13.5-37.1-19.5-56.1c-5.9-19-11.4-38.2-17.6-57.4c-1.6-4.8-3.1-9.6-4.9-14.4c-1.8-4.9-3.8-9.7-6.1-14.3
		c-4.7-9.3-10.6-18.1-18.1-25.5c-7.5-7.4-16.5-13.4-26.3-17.1c-4.9-1.9-10-3.2-15.2-3.9c-1.9-0.3-3.7-0.4-5.6-0.6
		c1.9-1,3.7-2,5.6-2.9c0.4,0,0.8,0.1,1.2,0.1c1.5,0.2,3.1,0.5,4.6,0.8c3.1,0.6,6.1,1.5,9.1,2.6c5.9,2.1,11.6,5,16.8,8.4
		c10.5,6.9,19.3,16.2,26.2,26.7c0.9,1.3,1.7,2.6,2.5,4l1.2,2l1.2,2.1c1.6,2.7,2.9,5.5,4.3,8.4c2.6,5.8,4.9,11.8,7.1,17.9
		c4.3,12.2,8.2,24.8,12.4,37.4c4.2,12.6,8.7,25.3,14.3,37.8c2.8,6.2,5.9,12.5,9.4,18.5c3.6,6.1,7.6,12,12.4,17.6
		c4.8,5.6,10.4,10.8,16.9,15.1c3.2,2.2,6.7,4,10.4,5.6c1.8,0.8,3.7,1.5,5.6,2.1c1.9,0.6,3.8,1.2,5.8,1.6c1.9,0.5,3.9,0.8,5.9,1.1
		c2,0.2,3.9,0.5,5.9,0.5c3.9,0.2,7.8,0.1,11.7-0.3c7.6-0.8,15-2.5,22-4.7l0.1,0c0.2-0.1,0.5-0.2,0.7-0.3c1.5-0.6,2.8-1.5,4-2.5
		c-1-1-14.5-15.8-16.2-19.9c-4.5,1.6-9,2.8-13.5,3.6c-2.7,0.4-5.4,0.7-8.1,0.7c-1.3,0.1-2.7-0.1-4-0.1c-1.3-0.1-2.6-0.2-3.9-0.5
		c-1.3-0.2-2.6-0.5-3.8-0.8c-1.2-0.4-2.5-0.7-3.7-1.2c-2.5-0.9-4.9-2-7.2-3.3c-4.7-2.7-9.1-6.3-13.2-10.4
		c-8.1-8.4-14.8-19.1-20.7-30.3c-5.9-11.3-11-23.2-15.8-35.4c-4.9-12.1-9.6-24.5-14.8-36.9c-2.6-6.2-5.4-12.3-8.6-18.4
		c-1.6-3-3.4-6.1-5.2-8.9l-1.4-2.2l-1.5-2.1c-1-1.4-2-2.8-3-4.2c-8.3-11-18.6-20.7-30.7-27.6c-6-3.4-12.4-6.2-19-8.1
		c-2.1-0.6-4.1-1.1-6.2-1.5c40.6-16.6,79.7-14.4,80.2-14.3c1.7,0.1,3.1-1.1,3.2-2.8c0.1-1.7-1.1-3.1-2.8-3.2
		c-2.8-0.2-70.3-4.1-122.1,37.7c-7.7,6.2-16.9,15-27.6,25.2c-23.4,22.3-52.4,50.1-85.6,70.1c-38.9,23.5-73.9,30.7-107.2,22.1
		c-58.2-15.1-98.2-83-133.5-142.8c-3.9-6.6-8-13.5-11.9-20.1c-7.3-12.1-15-23.9-22.8-35.3c-0.1-0.1-0.2-0.2-0.3-0.3l-31.2-33.4
		c-1.1-1.2-3-1.3-4.2-0.1c-1.2,1.1-1.3,3-0.1,4.2l31.1,33.2c7.7,11.2,15.2,22.9,22.4,34.8c3.9,6.5,8,13.4,11.9,20
		c5.2,8.9,10.6,18,16.1,27c-10.4,4.4-29.7,17-38.7,52.2c-2.6-7.8-8.6-27.2-7.9-37.6c0,0,0-0.1,0-0.1c0.1-2.4,0.4-5.2,0.7-8
		c1.1-10.4,2.3-22.2-6.4-26.3c-5.9-2.7-18.3-2.1-19.7-2c0,0-0.1,0-0.1,0c-0.1,0-0.2,0-0.3,0c-0.1,0-5.6,0.9-12-2.6
		c-3.5-2.3-3.7-7.5-3.7-7.5c0-1-0.5-1.9-1.3-2.4c-8.3-5.5-4.7-13.4-4.3-14.3c0.4-0.8,0.4-1.6,0.1-2.4c-0.3-0.8-0.9-1.4-1.7-1.7
		c-0.1,0-7.7-3-5-14.7c0.2-1,0-2-0.7-2.7c-0.4-0.5-10.7-12.3,1.5-23.9c1.2-1.1,1.3-3,0.1-4.2c-1.1-1.2-3-1.3-4.2-0.1
		c-13.8,13.1-5.8,26.8-2.8,31c-1.8,10,2.4,16,6.3,18.8c-1.4,5-1.3,12.8,6.2,18.5c0.4,2.6,1.7,7.9,6.4,10.9c0.1,0,0.1,0.1,0.2,0.1
		c5.6,3.1,10.7,3.6,13.6,3.5c2.3,5.6,9.1,22.2,15.9,38.8c4.2,10.2,8.4,20.4,11.6,28c1.6,3.8,2.9,7,3.9,9.2c0.5,1.1,0.9,2,1.1,2.6
		c0.1,0.1,0.1,0.3,0.2,0.4c-6.7,39.3-3.5,103.1,2.4,145.8c12.3,89.7,37.4,136.2,56.3,159.4c0.3,0.3,0.6,0.6,0.9,0.8
		c0.9,0.5,23.5,12.3,60.8,21.1c20.6,4.9,48.2,9.4,80.1,9.4c21.4,0,44.7-2,69.1-7.2c21.6-4.6,40.8-11.5,57.6-19.6
		c-5.8,23.1-8.1,86.6-8.2,89.5c0,0.5,0.1,0.9,0.2,1.3c-0.7,19.6-1,42.4-0.7,68.5c2.2,192.5,36.7,417.9,65.2,573.1c0,0,0,0,0,0
		c0,0,0,0,0,0c0,0,0,0,0,0c0,0,0,0,0,0c0.2,1.1,0.5,2.2,0.8,3.2c-0.1,0.4-0.2,0.9-0.1,1.4c8.5,50.7,18.5,87.7,25.8,110.5
		c-6.3-8.7-13.9-16.4-21.2-17.6c-4.2-0.6-8,0.8-11.2,4.2c-3.1,3.3-4.2,7.2-3.2,11.2c1.5,6.2,8.2,12.2,16.1,17.2
		c-5.8-0.5-10.4,0.3-13.5,2.3c-3.2,2-5,5.3-5.1,9.5c0,0.5,0,1,0,1.5l-1.4,0.1c-21.5,1.8-30.9,9.9-34.9,16.5
		c-3.6,5.7-3.9,11.7-2.7,15.2c1.5,9.1,8.2,16.6,17.1,19.2c23.7,6.7,71.9,18.3,102.3,18.8c1,0,1.9,0,2.8,0c26.8,0,42.3-7.1,45.9-14.3
		c2.7-5.5,2.7-12.3,0-20.4c0-0.1-0.1-0.2-0.1-0.3c0-0.1,0-0.2-0.1-0.2c0-1.8-0.7-4.6-2.3-10.5c-2.2-8.4-5.9-22.6-11.1-47.2
		c-7.6-36.1-9.4-60.2-9.9-68.1c20.7,2.7,40.6,2.2,54.3-2.4c15.6-5.2,28.1-5.2,45.8-1.6c0.5,0.1,0.8,0.2,0.9,0.2
		c9.3,1.9,20.1,4.8,33.6,8.4c17.5,4.7,30.1,7.4,40.7,7.4c14.8,0,25.5-5.3,40-18c0.1-0.1,0.2-0.1,0.3-0.2
		c16.5-14.1,45.5-10.2,73.5-6.4c10.8,1.5,21.9,3,32.2,3.4c7.2,0.3,13.9-0.1,20.3-1l43,49.8c2,2.4,3.6,5,4.8,7.9
		c-8.1-6.3-14.7-9-20-8.3c-3.4,0.5-6.2,2.4-8.2,5.6c-2.4,3.9-2.9,8-1.4,11.7c1.9,4.8,7,8.7,13.2,11.8c-4.2,0.1-7.5,1-9.9,2.7
		c-2.9,2.1-4.5,5.2-4.6,9.2c-0.2,5,2.1,7.8,4,9.2c2.3,1.7,5.7,2.6,10,2.6c4.8,0,10.8-1.1,18-3.2c-0.5,12.7-1.2,25.4-1.7,33.5
		c-3.6-0.2-9.6-0.2-14,1.8c-6.4,2.9-9.8,9.4-11.1,12.5c-3.2,4.1-3.8,9.5-1.6,14.3c2.3,4.9,7.1,8,12.5,8h52.7
		c9.7,0,18.8-4.6,24.5-12.3c4-5.4,11.2-17,14.8-34.2C1792,1772.5,1792.8,1756.9,1788.4,1738.5z M1220.8,1755.1
		c-0.3-1.3-0.5-3.3,1.8-5.7c1.5-1.6,3.1-2.4,4.8-2.4c0.3,0,0.6,0,1,0.1c5.4,0.8,12.8,8.1,20.8,20.4c3,4.6,5.6,9.1,7.5,12.7
		c-3.8-1.6-8.6-3.8-13.6-6.3C1230.1,1766.9,1222.1,1760.3,1220.8,1755.1z M1220.8,1781.1c1.7-1,4.1-1.5,7-1.5c5.6,0,13,1.7,19.8,3.8
		l-29.1,3c0-0.2,0-0.4,0-0.7C1218.5,1782.8,1219.8,1781.7,1220.8,1781.1z M1336.8,1828.1c1,4.8,0.8,8.8-0.7,11.9
		c-1.8,3.8-14.9,11.4-43.2,10.9c-29.8-0.5-77.4-11.9-100.8-18.6c-4.5-1.3-8.3-4.3-10.6-8.2c2.4,0.8,5.5,1.6,9.6,2.6
		c8.7,2.1,20.9,4.6,34.2,6.9c23.5,4.1,53.3,8.1,67.6,8.1c0.2,0,0.3,0,0.5,0C1315.4,1841.5,1330.1,1833.6,1336.8,1828.1z
		 M1322,1765.1c1.3,6.3,2.5,11.8,3.6,16.8c-4.5-0.5-11.9,1.1-22.4,10.6c-1.8,1.6-3.2,3.2-4.5,4.8c-3.7,4.4-6.6,7.8-15.9,8.5
		c-11.4,0.9-16.8-21.5-16.9-21.8c0,0,0-0.1,0-0.1c0-0.1-0.1-0.2-0.1-0.3c0,0,0-0.1,0-0.1c0,0,0,0,0,0c0,0,0,0,0,0
		c-0.6-1.5-18.1-42.9-32.7-122.6c4.2,4.6,9.7,9,16.6,13.2c16.5,9.9,39.6,17.2,62.3,20.8C1312.3,1701.6,1313.9,1726.3,1322,1765.1z
		 M1707.1,1731.4l-40.7-47.1c19.2-4.2,34-13.1,44.1-21c10.3-8.1,17.2-16.3,20.8-21.1l23.3,47.1c-6.7-1-14.8,0.3-21.2,3.7
		c-8.7,4.7-13.6,12.7-13.6,22.6c-0.1,7,1,11,1.8,14.1c0.9,3.5,1.6,6.1,0.6,11.9c-1,5.8-4.4,8.3-6.9,9.3
		C1714.7,1743.8,1711.9,1737,1707.1,1731.4z M1683.3,1750c-0.8-2-0.5-4,0.9-6.3c1-1.7,2.3-2.6,3.9-2.8c2.6-0.4,8.9,0.7,21.2,11.9
		c0,0.6,0,1.2,0,1.8c-0.1,3-0.2,6.3-0.3,9.9C1694.8,1760.4,1685.4,1755.2,1683.3,1750z M1684,1780.4c-0.7-0.5-1.7-1.6-1.6-4.2
		c0.1-2.8,1.2-3.9,2.1-4.5c3.7-2.6,12.5-2.1,24.3,1.4c-0.1,1.7-0.1,3.4-0.2,5.1C1691.3,1783.8,1685.6,1781.6,1684,1780.4z
		 M1773.6,1725.3c-6-1-12.3,1.7-18.5,8.2c-9,9.3-12.5,30.9-17,62.7c-2.4,17.4-4.6,29-7,37.6c-3.7,13.1-6.9,14.7-7.8,14.8h-30.8
		c-3.1,0-5.8-1.7-7.1-4.5c-1-2.1-1-4.4-0.1-6.4c4,1.7,12.1,4.6,21.4,4.6c4.6,0,9.4-0.7,14.2-2.6c5.9-2.4,8.1-15.5,11.9-40.5
		c0.4-2.8,0.9-5.7,1.3-8.5c0.5-3.1,0.9-6.6,1.4-10.3c2.7-22.1,6.4-52.3,28.4-58c7.4-1.9,11.1,1.3,12.2,2.7c0.2,0.3,0.3,0.6,0.5,0.9
		C1775.6,1725.8,1774.7,1725.5,1773.6,1725.3z"/>
	<g>
		<path fill="#FFFFFF" d="M1821.7,771.9c0.7,10.6,13.6,16.6,30.3,15.2c18.3-1.4,27-2,28.7-12.5c1.6-9.5-9.7-22.2-29.6-21.5
			C1830,753.9,1821,761.2,1821.7,771.9L1821.7,771.9z"/>
	</g>
	<g>
		<path fill="#FFFFFF" d="M1226.5,1797.4c-9.2,0-12.5-4.1-13.6-7.7c-0.5-1.6,0.4-3.3,2-3.7c1.6-0.5,3.3,0.5,3.7,2
			c0.6,2,3,4.1,11.2,3.2c12.5-1.4,29.1-8.8,29.3-8.9c1.5-0.7,3.3,0,4,1.5c0.7,1.5,0,3.3-1.5,4c-0.7,0.3-17.7,7.9-31.1,9.4
			C1229.1,1797.3,1227.7,1797.4,1226.5,1797.4z"/>
	</g>
</g>
</svg>
