<svg xmlns="http://www.w3.org/2000/svg" xmlns:xlink="http://www.w3.org/1999/xlink" id="Layer_1" x="0" y="0" baseProfile="tiny" version="1.1" viewBox="0 0 2000 2000" xml:space="preserve"><g id="Layer_8"><g><g><path fill="#FECE2F" d="M580.4,1873.6c-558.1-92.5-708-716.1-360-1096c317-346,156.8-611.3,672-652c456-36,909.8,555,992,1060 C1996.6,1875.2,1280.4,1989.6,580.4,1873.6z"/></g></g></g><g><g><g><g><path fill="#FFF" d="M1729.1,1176.9c4.3-8.8,6.2-19,8.6-28.5c2.7-10.6,5.6-21.1,7.3-32c3-19.7,1.8-39.6-3.5-58.7 c-29.1,33.6-58.7,88.2-37.5,159.8C1709.6,1202.7,1722.2,1190.9,1729.1,1176.9z"/></g></g></g><path fill="#1A1A1A" d="M1793.9,1600.5c-1.5-18.5-22.3-34.6-61.9-47.9c-37.3-12.5-89.9-22.2-156.5-28.9 c-136.6-13.7-316.8-13.1-507.3,1.6c-190.5,14.7-368.6,41.9-501.5,76.4c-64.8,16.8-115.3,34.5-150.2,52.6 c-37.1,19.2-55.3,38.4-53.8,56.9s22.3,34.6,61.9,47.9c37.3,12.5,89.9,22.2,156.5,28.9c65.7,6.6,141.3,9.9,223.4,9.9 c88.7,0,184.9-3.9,283.9-11.5c190.5-14.7,368.6-41.9,501.5-76.4c64.8-16.8,115.3-34.5,150.2-52.6 C1777.2,1638.2,1795.4,1619,1793.9,1600.5z"/><path fill="#FFF" d="M566.3,1043.6c38.6,98.7,47.2,189,47.2,189l41.8,22l65.7-19.3c0,0,2.8,66.4,7.3,165.4 c4.4,96.6-21.2,376.2-22.5,389.5c113.8,4.1,245.2,0.8,382.1-9.8c157.3-12.2,306.1-32.8,427.9-59.1c4-157.8-13.4-238.8-30.4-347.7 c-17-109-63-219-63-219l32,7c0,0,53-84,63-182s-31-180-31-180c-131-47-322.2-56.2-322.2-56.2c24.9,84.9,24.2,143.2-23.8,198.2 s-176,78-280,31s-157.2-178-157.2-178c-77.6,10.4-249.3,100-249.3,100S530,950.8,566.3,1043.6z"/><g><g><g><path fill="#FECE2F" d="M554.5,1017.4c-1.6,0-3-1.3-3-3s1.3-3,3-3c14.2-0.1,28-8.1,35.2-20.3s7.5-28.1,0.8-40.6 c-0.6-1.2-1.3-2.4-2.1-3.6c-2.7-4.5-5.5-9.2-5.5-14.8c0-9.6,8.6-16.9,16.8-18.8c8.2-2,16.6-0.1,24.4,2.2 c19.5,5.8,38.1,14.4,55.1,25.6l0.8,0.5c4.6,3,9.3,6.1,14.3,6.3c8.7,0.4,15.7-8.5,17.2-17c3-16.3-6.6-33.4-29.3-52.1 c-23.4-19.4-49-36.2-76.1-50.1c-1.5-0.8-2.1-2.6-1.3-4c0.8-1.5,2.6-2.1,4-1.3c27.5,14,53.4,31.1,77.2,50.8 c24.5,20.2,34.7,39.1,31.4,57.8c-2,11.2-11.3,22.4-23.3,21.9c-6.6-0.3-12.3-4-17.3-7.3l-0.8-0.5c-16.5-10.9-34.5-19.3-53.5-24.9 c-7-2.1-14.5-3.8-21.3-2.2c-5.9,1.4-12.2,6.4-12.2,13c0,4,2.3,7.8,4.6,11.8c0.7,1.2,1.5,2.5,2.2,3.8c7.7,14.3,7.3,32.5-0.9,46.5 C586.6,1008.1,570.8,1017.2,554.5,1017.4L554.5,1017.4z"/></g></g></g><g><g><g><path fill="#FECE2F" d="M885.4,1374c-21.3,0-42.6-3.9-62.3-12.1c-1.5-0.6-2.3-2.4-1.6-3.9c0.6-1.5,2.4-2.3,3.9-1.6 c54.5,22.4,121.2,11.8,165.9-26.5c10.1-8.6,26.6-26.1,22.9-45.5c-2.1-11.4-11.7-22.1-25-27.8c-12.1-5.2-25.3-6.3-40-7.2h-0.6 c-9.8-0.6-19.9-1.2-29.2-5.1c-12.2-5.2-21.5-16-26.1-30.4c-4.3-13.4-3.9-28.4,0.9-41.2c8.3-22,27.5-40.8,56.9-55.7 c1.5-0.7,3.3-0.2,4,1.3c0.8,1.5,0.2,3.3-1.3,4c-28,14.2-46.2,31.9-54,52.5c-8.4,22.2-1.5,54,21.9,64c8.3,3.6,17.9,4.1,27.2,4.7 h0.6c14.7,0.9,29,2.1,42,7.7c15.3,6.6,26,18.6,28.5,32.2c4.2,22.5-13.8,41.7-24.9,51.2C965,1360.3,925.1,1374,885.4,1374z"/></g></g></g><g><g><g><path fill="#FECE2F" d="M1030.3,1741.4c-11.4,0-21.6-2.7-30.6-8.1c-1.4-0.9-1.9-2.7-1-4.1s2.7-1.9,4.1-1 c29.1,17.4,67.3-0.4,93.6-15.4c6.1-3.5,13.7-7.8,18.2-14.2c3.8-5.5,5.4-13.9,1-19.3c-4.8-6-14.4-6-23.8-5.5 c-16.7,0.9-33.5,0.5-50.2-0.9c-10.7-0.9-21.9-2.5-32-7.3c-13.8-6.6-23.8-18.6-29-34.9c-6.7-20.9-4.2-46.1,6.6-65.6 c18.7-33.9,55-54.9,84.2-71.8l117.8-68.1c1.4-0.8,3.3-0.3,4.1,1.1c0.8,1.4,0.3,3.3-1.1,4.1l-117.8,68.1 c-28.5,16.5-64.1,37-81.9,69.5c-10,18.1-12.3,41.5-6.1,60.9c3.3,10.2,10.4,23.9,25.9,31.3c9.2,4.4,19.8,5.8,29.9,6.7 c16.3,1.4,32.9,1.8,49.3,0.9c8.6-0.4,21.6-1.1,28.7,7.7c6.3,7.8,4.4,19.2-0.8,26.5c-5.3,7.5-13.5,12.2-20.2,16 c-19.2,10.9-34.8,17.6-49.3,21C1043.1,1740.6,1036.5,1741.4,1030.3,1741.4z"/></g></g></g><g><g><g><path fill="#FECE2F" d="M703.9,1483.9c0,0,4,3.8,20,2c-1,1.5-17.3,11.3-10.2,18.4c7.2,7.1,34.9-2.7,34.9-2.7l101.2-37.5 l-38.5,30.2c0,0-19.2,17.8,10,14.8s80.2-35.5,80.2-35.5s32.8-20.2,35.5-48.5s-14.2-57-76.2-86.5s-165.5-55.5-219.5-90.5 l-27.8-15.5c0,0-8.6-82.3-35.9-161s-75-148-123.8-177c0,0-94.2,47-152.2,103.7s-116.7,134.7-110,228 c6.7,93.3,64,135.3,116.7,154.7c52.7,19.3,134,34.7,134,34.7l180,24.7l128.5,9.8C750.9,1450.1,703.4,1469.5,703.9,1483.9z"/></g></g></g><g><g><g><path fill="#FFF" d="M290.5,1373.5c22.8-115.4-48.5-190-90.1-222.8c-7.1,23.9-10.5,49.1-8.6,75.5 C197.7,1309.1,243.5,1351.5,290.5,1373.5z"/></g></g></g><g><g><g><path fill="#1A1A1A" d="M844.2,424.7c-8.1,0-13.7-0.7-14.2-0.8c-1.6-0.2-2.8-1.7-2.6-3.4c0.2-1.6,1.7-2.8,3.4-2.6 c0.3,0,29.5,3.8,52.4-6.4c1.5-0.7,3.3,0,4,1.5s0,3.3-1.5,4C871.4,423.4,855.4,424.7,844.2,424.7z"/></g></g></g><path fill="#1A1A1A" d="M756.8,487.2l-25-35.8c4.4-5.3,9.9-7.4,10.4-7.6c1.6-0.5,2.4-2.2,1.8-3.8c-0.5-1.6-2.2-2.4-3.8-1.8 c-0.3,0.1-28.7,10.7-17.2,43.8c0.4,1.2,1.6,2,2.8,2c0.3,0,0.6-0.1,1.1-0.2c1.5-0.5,2.3-2.2,1.8-3.8c-3.5-10.1-2.7-17.6-0.3-23 l23.5,33.7c0.6,0.9,1.6,1.3,2.5,1.3c0.6,0,1.2-0.2,1.7-0.6C757.4,490.4,757.7,488.6,756.8,487.2z"/><g><g><g><path fill="#1A1A1A" d="M1540.9,1188.1c-0.2,0-0.5,0-0.8-0.1l-118.5-30.5c-1.6-0.4-2.6-2-2.2-3.7s2-2.6,3.7-2.2l118.5,30.5 c1.6,0.4,2.6,2,2.2,3.7C1543.5,1187.2,1542.3,1188.1,1540.9,1188.1z"/></g></g></g><g><g><g><path fill="none" d="M405.9,919.3"/></g></g></g><g><g><g><ellipse cx="996.4" cy="929.6" fill="#FFF" rx="26" ry="34" transform="matrix(0.9591 -0.2831 0.2831 0.9591 -222.3986 320.112)"/></g></g><g><g><path fill="#1A1A1A" d="M1000.3,966.1c-5.6,0-11.2-2-16.4-5.8c-7.1-5.2-12.5-13.1-15.2-22.5c-2.8-9.3-2.6-19,0.6-27.1 c3.2-8.4,9.2-14.3,16.8-16.6c7.6-2.2,15.8-0.5,23.1,4.8c7.1,5.2,12.5,13.1,15.2,22.5c2.8,9.3,2.6,19-0.6,27.1 c-3.2,8.4-9.2,14.3-16.8,16.6C1004.7,965.8,1002.5,966.1,1000.3,966.1z M992.6,899.2c-1.7,0-3.3,0.2-4.9,0.7 c-5.7,1.7-10.3,6.3-12.9,13c-2.7,6.9-2.8,15.2-0.4,23.3c2.4,8.1,7,14.9,13,19.3c5.8,4.2,12.1,5.6,17.8,3.9 c5.7-1.7,10.3-6.3,12.9-13c2.7-6.9,2.8-15.2,0.4-23.3c-2.4-8.1-7-14.9-13-19.3C1001.3,900.8,996.9,899.2,992.6,899.2z"/></g></g></g><path fill="#1A1A1A" d="M1739.6,1017.4c-7-25.4-19.7-55.1-42.4-85.2c-0.1-0.3-0.2-0.5-0.3-0.8c-0.3-0.3-0.6-0.5-0.9-0.8 c-29.1-38-74.4-76.6-144.5-107.6c-20.2-9-41.1-17-62.1-24.1c-0.2-0.4-0.4-0.7-0.5-0.8c-0.8-1.4-2.7-1.9-4.1-1 c-0.1,0-0.2,0.1-0.2,0.2c-99.5-33.1-204.2-47.6-280.8-54c-38.2-3.1-72.6-4.6-100.8-5.1c-0.6-0.9-1.6-1.5-2.7-1.4 c-1,0.1-1.8,0.6-2.3,1.3c-38.2-0.6-63.9,0.4-70.3,0.6l-24.5-57.2l-1.6-3.9c21.3-6.4,46.7-22.6,59.6-62.2 c16-49.1-11.6-112.9-38-158.3c1.1-1.6,2.1-3.3,3.1-5c4.3-7.9,4.1-15.9-0.6-20.9c-4.5-4.7-12-5.7-20.8-3.2 c-7.1-10.6-13-18.4-16-22.4c5.2-2.5,9-5.4,11.7-8.3c7.6-7.9,8.7-16.7,8.1-20.6c-0.4-2.5-1.9-8.8-8.5-13.5 c-5.3-3.8-12.2-5.5-20.7-5.2c2.4-2.8,4.6-6.5,5.2-10.8c0.9-6.2-1.6-12.3-7.3-18.2c-10.4-10.7-40.2-20.4-72.6-23.6 c-12.8-1.3-25.6-1.5-38-0.8c-3.8-5.1-19.1-24.4-47.1-42c-29.2-18.5-78.3-38.4-145.9-28c-18.6,2.9-35.8,8.1-51.4,15.7 c-13-34.3-54.7-63.3-100.3-69.3c-23-3-45.8-0.1-66,8.5c-23.1,9.8-42.7,26.6-58.2,49.9c-14.6,21.9-22.5,47.3-22.7,73.2 c-0.3,25.3,6.7,49.6,20.1,70.1c13.3,20.3,32.4,35.9,55.4,45.1c16.4,6.5,34.4,9.8,53.7,9.8c9.8,0,19.8-0.8,30.3-2.5 c4.6,33.4,16.8,63.4,36.6,89.2c19.5,25.5,42,41.2,57.6,50c57.2,29.8,110.3,32.4,127.1,32.4c2.9,0,4.7-0.1,5.3-0.1 c7.7,8.9,15,16.3,21.4,22.1c19.2,17.6,34.1,25.5,37.5,27.2l28.9,101.8c-12.6,1.5-57.1,7.7-121.4,25 C657.4,801.6,548.1,838.2,427,905c-74.9,41.3-134,89.9-175.5,144.4c-37.2,48.8-58.8,101.2-62.5,151.4c-2.4,31.8,2.4,61.7,14.1,88.9 c11.7,27.1,29.7,50.1,53.6,68.3c27.2,20.8,77.7,39,150,54.1c57.6,12,129.1,22.2,212.7,30.2c36.4,3.5,72,6.3,104.9,8.4 c-0.1,3.1-0.1,6.2-0.1,9.4c-10.3,5.8-17.5,11-21.3,15.4c-3.4,3.9-4.4,7.2-2.8,9.9c1,1.7,3.6,3.8,10.7,3.8c1.8,0,3.9-0.1,6.3-0.5 c-4.2,3.5-7.1,7-7.7,10.3c-0.6,2.8,0.3,5.4,2.5,7.4c1.7,1.6,4.6,3,10.5,3c0.2,0,0.4,0,0.6,0c-2,63.7-12.5,211.2-20,280.9 c-0.1,1.6,1.1,3.1,2.7,3.3c0.1,0,0.2,0,0.3,0c1.5,0,2.8-1.1,2.9-2.7c7.7-71.4,18-217.5,20.1-282c12.3-1.5,33-7.2,69-21.1 c13.3-5.1,26.4-10.5,37.6-15.3c-30.9,21-32.2,24.3-32.9,25.9c-1.3,3.3-1.5,8,2,11.1c2.3,2.1,5.7,3.1,10.3,3.1 c14,0,38.7-9.4,74.8-28.4c43.6-22.8,51.4-49.3,50.3-67.5c-2.1-32.9-35.7-65.5-87.6-84.9c-17.2-6.7-34.8-12.9-53.5-19.4 c-22.9-8-46.8-16.4-71.8-26.4c-1.5-28.9-2.6-45.2-2.9-49.7c0.6-0.2,1.3-0.4,1.9-0.6c12-3.9,24.4-7.8,37.7-11.9 c0.8-0.3,1.4-0.9,1.8-1.6s0.4-1.6,0.1-2.4c-5-12.7-15.5-23.3-28.1-28.4c-5.7-2.3-11.7-3.5-17.5-4.7c-5.1-1.1-9.9-2-14.6-3.7 c-11.6-4.2-21.8-12.6-31.7-20.8c-12.7-10.6-25.9-21.5-42.8-23.7c-10.2-1.3-20.2,0.8-29.8,3.1c0,0,0-0.1,0-0.1 c-23.4-99.3-61.6-161.7-89.6-196.7c-23.7-29.7-44-44.9-52.2-50.4c93.7-48.7,178.6-79.3,241.4-97.9c7.6,17.8,35,76.7,86.7,126.6 c29.5,28.5,62.3,49.7,97.3,62.8c29,10.8,59.7,16.3,91.8,16.3c15.2,0,30.6-1.3,46.3-3.6c69.4-10.8,117.3-38.8,142.1-83.1 c22.1-39.3,21.4-84.3,17-115.2c-3.7-25.4-10.2-45.2-13.3-53.6c11.1,0.7,22.7,1.5,34.7,2.5c76.8,6.3,182.2,21,281.9,54.5 c4.7,8.7,19.3,38.4,26.9,83c5.4,31.2,6.4,63.5,2.9,95.9c-4.4,40.6-15.7,81.5-33.7,121.6c-2,4.5-4.1,8.9-6.3,13.4 c-49.5-20.3-88.7-67.8-96.5-77.7c-12.4-27.9-25.7-56.1-39.9-84.7c-0.7-1.4-2.5-2-4-1.3c-1.4,0.7-2,2.5-1.3,4 c13.7,27.5,26.5,54.6,38.5,81.5c-0.1,0.5,0,1.1,0.2,1.6l19.2,43.3c28.9,69.1,52.4,136.9,71.2,204.7 c40.7,147.1,57.7,292.6,50.5,432.4c-0.1,1.7,1.1,3.1,2.8,3.2c0.1,0,0.1,0,0.2,0c1.6,0,2.9-1.2,2.9-3c4.5-86.5-0.3-175.2-14.2-265.1 c0.7,0,1.4-0.3,1.8-0.6c1.3-1.3,127-131.4,198.3-232.4c19.2-27.3,32.8-59.9,39.3-94.3C1751.1,1092,1749.5,1053.4,1739.6,1017.4z M740.2,1451.8c-3,1.4-6.4,3.1-9.9,5c0-1.9,0.1-3.8,0.1-5.7C733.6,1451.4,736.9,1451.6,740.2,1451.8z M721.7,1481.8 c-7,1.4-14.6,1.7-16.4,0.6c0.1-0.4,0.6-1.4,2-3c3.4-3.9,10.3-8.7,19.9-14.2c1,0,1.9-0.6,2.4-1.3c11.4-6.2,22.4-11,22.5-11.1 c0.1,0,0.2-0.1,0.3-0.2c11.5,0.7,22.5,1.3,33,1.9c-8,3.2-19.1,7.7-30.2,12.8c-9.8,4.5-21.3,10.1-30.4,16 C724.2,1482.1,723,1481.6,721.7,1481.8z M795.8,1482.3c-66.1,25.7-77.9,21.7-79.9,19.8c-0.8-0.8-0.8-1.3-0.7-1.8 c1.6-8.2,32.9-23.2,42.5-27.6c20.7-9.5,41.4-17.1,41.6-17.2c0.3-0.1,0.5-0.2,0.7-0.4c21.5,1.1,40.2,1.8,55,2.4 C841.8,1463.4,819.1,1473.2,795.8,1482.3z M720.9,1283.6c-19.2-7.8-38.9-16.7-59.3-27.1c3.6-1,7.5-2.4,11.1-3.8 c2.7-1,5.3-2,7.4-2.6c13.5-3.9,25.7-7.8,38.2-11.8C718.8,1244.1,719.7,1259,720.9,1283.6z M506.9,948.7 c27.6,34.5,65.3,96.2,88.4,194.3c0,0,0,0.1,0,0.1c-3,0.7-6,1.4-8.9,1.9c-15.3,2.8-31.3,2.1-46.3-2.1c-2.1-0.6-4.1-1.1-6.2-1.7 c-8.6-2.4-17.6-4.8-26.1-7.8c-35-12.4-59.4-3-60.4-2.6c-0.1,0-0.2,0.1-0.2,0.1c-0.8,0.3-1.4,0.9-1.7,1.8c-0.6,1.5,0.2,3.3,1.8,3.8 c1.4,0.5,2.9,1.1,4.7,1.8c1.8,0.7,4,1.7,6.5,2.7c21.7,9.4,61.1,29.9,106,62.7c24.8,18.1,48.8,33.2,72,46.2c0.3,0.2,0.7,0.4,1,0.6 c3.3,2.1,7.2,4.5,11.1,5.9c25.3,13.4,49.7,24.4,73.1,33.9c0.5,0.8,1.4,1.3,2.4,1.3c0,0,0.1,0,0.2,0c0.1,0,0.3,0,0.4,0 c25.1,10.1,49.1,18.5,72.1,26.5c18.6,6.5,36.2,12.6,53.4,19.3c49.7,18.6,81.8,49.2,83.7,79.7c1.5,23.5-14.8,44.9-47,61.8 c-63.1,33-75.9,28.3-78.4,26.1c-1.6-1.4-0.7-3.9-0.5-4.3c2.2-4,31.9-24.6,60-42.5c0.2-0.1,0.4-0.2,0.5-0.2 c14.9,0.5,23.5,0.7,23.8,0.7c1.7,0,3-1.3,3-3c0.1-1.7-1.2-3.1-2.9-3.1c-1.3,0-130.5-2.6-272.5-16.2 c-130.8-12.5-299.3-37-359.7-83.1c-23-17.6-40.4-39.7-51.7-65.9c-11.3-26.3-15.9-55.2-13.6-86.1c2.7-37.2,15.6-75.6,37.5-112.9 c79.6-30.3,159.8-13.6,156.2-53.7c-2.8-29.5-56.7-14.7-108.2-10.5c38.7-42.3,88.8-80.5,149.5-113.9c7.8-4.3,15.6-8.5,23.3-12.5 C457.6,900.4,480.1,915.2,506.9,948.7z M853.5,763.3c1.7-0.2,2.9-1.6,2.7-3.3c-0.1-0.4-0.2-0.8-0.4-1.2L782.5,500 c-0.4-1.3-1.6-2.2-3-2.2c-1.3,0-2.5,1-2.8,2.3c-1.9,8.5-6.4,18.8-17,19.5c-15.2,1-35.7-17.2-43.8-39.1c-8.6-23-3.6-40.4,5.1-47.5 c6.6-5.4,15.3-5.2,24.4,0.6c17.5,11.1,25,39.6,26.4,45.5c-0.1,0.3-0.1,0.6,0,0.9c0.3,2.8,1.9,6.2,5.3,6.8c4,0.7,9.7-1.8,21.9-25.8 c13.5-26.5,19.6-63.7,21.3-75.7c12.8,4.9,58.1,20.8,114.2,26.3c22.4,2.2,37.9,0.1,48.7-3.6c2.4,3.1,8.3,10.9,15.9,22.1 c-0.7,0.3-1.4,0.6-2.1,1c-16.9,8.2-41.1-3.9-41.3-4c-1.4-0.8-3.2-0.2-4,1.3c-0.8,1.4-0.2,3.2,1.3,4c1.1,0.5,27.1,13.5,46.7,4 c11.4-5.5,18.7-4.2,21.7-1c2.9,3.1,2.8,8.4-0.3,13.9c-2.7,4.9-6.2,9.3-9.6,13.5c-6.9,8.6-14.1,17.6-14.1,30.3c0,1.7,1.3,3,3,3 c1.7,0,3-1.4,2.9-3c0-10.7,6.2-18.4,12.8-26.6c1.1-1.3,2.1-2.6,3.2-4c17.9,31.2,28.6,57.4,34.5,79.3c-29.8-11.5-64.8-10.6-89.6-7.6 c-28.3,3.4-49.8,10.1-50,10.2c-1.6,0.5-2.5,2.2-2,3.8c0.4,1.3,1.6,2.1,2.9,2.1c0.3,0,0.6,0,0.9-0.1c0.2-0.1,21.2-6.7,49-10 c25.3-3,61.3-3.9,90.6,8.8c6.7,29.2,4.5,50.2-0.1,64.6c-10.8,33.3-31.8,53.5-62.2,60.1c-22.9,4.9-43,0-43.2-0.1 c-1.6-0.4-3.2,0.6-3.6,2.2c-0.2,0.9,0,1.7,0.4,2.3c0.2,0.3,0.4,0.6,0.7,0.9l69.7,53c0.4,0.3,0.8,0.5,1.2,0.5l17.6,41 c0.5,1.1,1.6,1.8,2.8,1.8c0.4,0,0.8-0.1,1.1-0.2c1.5-0.6,2.3-2.4,1.6-3.9l-11.4-26.6c8.9-0.3,33-1.1,67.5-0.6 c0.2,9.9-0.3,36.4-10,64.4c-7.2,20.6-17.7,37.9-31.5,51.4c-17.2,16.8-39.5,27.9-66.3,32.8c-25.8,4.7-52.4,1.4-79-9.9 c-21.4-9.1-42.9-23.3-63.8-42.3c-31.2-28.3-52-58.9-57-66.6C829.9,765.6,853.2,763.3,853.5,763.3z M1159.8,912.7 c-23.9,42.7-70.2,69.6-137.8,80.1c-48,7.4-93.4,3.2-135.1-12.4c-34.3-12.9-66.4-33.6-95.3-61.5c-50.4-48.6-77.3-105.7-85.1-124 c7.9-2.3,15.5-4.4,22.7-6.4c20.4-5.5,38.7-9.8,54.7-13.3c0.5,0.8,22.9,36.7,59.1,69.6c21.4,19.5,43.5,34.1,65.5,43.5 c19.5,8.3,39.1,12.5,58.4,12.5c8.1,0,16.1-0.8,24.1-1.9c28-5.2,51.3-16.8,69.4-34.5c14.4-14.2,25.5-32.3,32.9-53.8 c10-29,10.6-55.9,10.4-66.4c17.3,0.3,37,1,58.5,2.2C1167.2,759.6,1197.5,845.5,1159.8,912.7z M1468.1,1287.4 c-11.9-42.8-25.6-85.5-41.3-128.6l109.8,28.3l-62.9,121.2C1471.9,1301.3,1470,1294.4,1468.1,1287.4z M1738.2,1128.1 c-6.3,33.6-19.6,65.4-38.3,91.9c-67,94.9-182.3,215.6-196.3,230.1c-7.3-45.7-16.9-91.8-28.9-138c0.1,0.1,0.2,0.1,0.3,0.2 c0.5,0.2,0.9,0.3,1.4,0.3c1.1,0,2.2-0.6,2.6-1.6l71.4-137.6l33.9-64.4c0.3-0.5,0.4-1.1,0.4-1.6l4.3-8.4c0.7-1.4,0.2-3.2-1.3-4 c-1.4-0.7-3.2-0.2-4,1.3l-5.1,9.8c-22.6,16.9-47.4,23.7-73.8,19.9c-8.2-1.2-16.3-3.3-24.1-6.1c2.1-4.4,4.2-8.8,6.1-13.2 c18.3-40.8,29.8-82.4,34.2-123.6c3.5-33,2.5-65.8-3-97.6c-6.7-38.6-18.2-65.9-24.6-78.9c18.9,6.6,37.5,13.9,55.7,21.9 c55,24.4,94.5,53.4,122.7,83.1c-40.9-13.6-77.3-27.7-84.5-3.8c-11.2,37.3,65.2,38.2,135.4,79.6c4.8,11.1,8.5,21.7,11.2,31.6 C1743.6,1054,1745.1,1091.8,1738.2,1128.1z"/><g><g><g><path fill="#FFF" d="M1456.9,1160.6c-0.5,0-1.1-0.1-1.6-0.4c-1.4-0.9-1.9-2.7-1-4.1c6.3-10.2,9.6-16.5,14.9-26.7 c1.8-3.4,3.4-6.5,4.9-9.5c0.7-1.5,2.6-2.1,4-1.3c1.5,0.7,2.1,2.5,1.3,4c-1.5,3-3.1,6.1-4.9,9.6c-5.4,10.4-8.8,16.7-15.1,27.1 C1458.9,1160.1,1457.9,1160.6,1456.9,1160.6z"/></g></g></g><g><g><g><path fill="#FFF" d="M612.4,1228c-1.5,0-2.8-1.1-3-2.7c-1.9-16.7-10.2-64.3-13.3-77.3c-0.4-1.6,0.6-3.2,2.2-3.6 c1.6-0.4,3.2,0.6,3.6,2.2c3.2,13.5,11.4,60.8,13.4,78c0.2,1.6-1,3.1-2.6,3.3C612.7,1228,612.5,1228,612.4,1228z"/></g></g></g><g><g><g><path fill="#FECE2F" d="M1284.7,1116c-7.6,0-15.2-0.5-22.8-1.4c-8-1-19.2-3.4-24.2-12.3c-4.8-8.6-1.5-17.6,1.7-26.3 c1.9-5.3,4-10.9,3.9-16c0-13.1-13.8-23.1-26.6-24.2c-14-1.2-27.6,4.7-40.4,10.9c-21,10.2-41.6,21.7-61.4,34.1 c-13.5,8.5-30.7,17.1-44.1,7.7c-14.1-9.9-11-31.6-0.9-47.1c23.3-35.6,64.9-53.1,102-66.8c2.1-0.8,4.3-1.6,6.5-2.4 c36-13.2,73.2-26.8,98.6-54.7c1.1-1.2,3-1.3,4.2-0.2s1.3,3,0.2,4.2c-26.4,29-64.3,42.8-101,56.3c-2.2,0.8-4.3,1.6-6.4,2.4 c-36.3,13.3-76.8,30.4-99.1,64.5c-7.3,11.2-12.4,30.6-0.6,38.9c10.5,7.4,25.5-0.3,37.4-7.8c19.9-12.6,40.8-24.2,62-34.5 c12.9-6.3,28-12.9,43.5-11.5c15.4,1.4,32.1,13.3,32.1,30.2c0,6.2-2.2,12.3-4.3,18.1c-3,8.1-5.5,15.2-2.1,21.4 c3.7,6.6,13,8.5,19.7,9.3c22.6,2.8,46.2,1.2,68.2-4.6c1.6-0.4,3.2,0.5,3.7,2.1c0.4,1.6-0.5,3.2-2.1,3.7 C1317,1113.9,1300.8,1116,1284.7,1116z"/></g></g></g><g><g><g><path fill="#FECE2F" d="M1402.9,1385.4c-2.5,0-5.1-0.2-7.8-0.6c-15.1-2.3-29.9-10.4-46.5-25.4c-1.2-1.1-1.3-3-0.2-4.2 c1.1-1.2,3-1.3,4.2-0.2c15.7,14.2,29.4,21.8,43.3,23.9c19.8,3,35.4-7.2,40.7-18.8c2.5-5.5,2.7-11.3,0.4-15.3 c-2-3.6-5.9-6.4-12.3-8.8c-10-3.7-20.9-5.4-31.5-7c-10-1.5-20.4-3.1-30.3-6.5c-10.8-3.7-21-10.7-27.7-19.1 c-7.8-9.7-10.6-20.8-8-31c1.6-6.3,5.2-11.8,8.4-16.4c9.8-14.4,21.2-27.7,33.7-39.8c1.2-1.1,3.1-1.1,4.2,0.1s1.1,3.1-0.1,4.2 c-12.3,11.8-23.3,24.8-32.9,38.8c-2.9,4.2-6.1,9.2-7.5,14.6c-4.7,18.3,12.8,36.5,31.8,43c9.4,3.2,19.5,4.7,29.2,6.2 c10.9,1.7,22.1,3.4,32.7,7.3c4.9,1.9,11.9,5.1,15.5,11.5c3.2,5.7,3.1,13.5-0.2,20.7C1436.7,1374.6,1421.9,1385.4,1402.9,1385.4z"/></g></g></g><g><g><g><path fill="#FECE2F" d="M1418.4,924.8c-0.4,0-0.7,0-1.1,0c-19-0.4-37-8.2-53-15.2c-1.5-0.7-2.2-2.4-1.5-3.9s2.4-2.2,4-1.5 c15.4,6.7,32.9,14.4,50.7,14.7c15.8,0.3,35-6.7,42.1-22.9c8.6-19.5-5.9-43.3-24.2-52.3c-20.6-10.2-45.6-7.8-65.1-4.6 c-4.3,0.7-8.7,1.5-13,2.3c-18.1,3.3-36.8,6.7-55.4,4.7s-32-10.8-36-23.3c-4-12.6,2.7-27.7,15.6-35.1c13-7.5,28.1-6.4,38.6-4.2 c1.6,0.3,2.7,1.9,2.3,3.6c-0.3,1.6-1.9,2.7-3.6,2.3c-9.4-2-23-3-34.3,3.5c-9,5.2-16.3,17.2-12.9,28.1 c3.8,12.1,18.5,17.8,31,19.2c17.8,2,36-1.4,53.7-4.6c4.3-0.8,8.7-1.6,13.1-2.3c20.4-3.4,46.6-5.8,68.7,5.2 c21.1,10.5,37,37.2,27,60.1C1457,916.7,1436,924.8,1418.4,924.8z"/></g></g></g><g><g><g><path fill="#FECE2F" d="M447.4,230.6c-0.9,0-1.8-0.4-2.4-1.2c-1-1.3-0.7-3.2,0.6-4.2c42.8-31.6,89.9-14.1,91.9-13.4 c1.5,0.6,2.3,2.3,1.7,3.9c-0.6,1.5-2.3,2.3-3.9,1.7l0,0c-0.5-0.2-46-17-86.1,12.6C448.7,230.4,448.1,230.6,447.4,230.6z"/></g></g></g><g><g><g><path fill="#1A1A1A" d="M1666.4,854.6c-0.7,0-1.4-0.3-2-0.8c-73.9-66.8-163.8-103.9-226.2-123.2c-67.7-21-118.5-26.3-119-26.3 c-1.6-0.2-2.9-1.6-2.7-3.3c0.2-1.6,1.7-2.8,3.3-2.7c0.5,0.1,51.8,5.4,120,26.5c63,19.5,153.8,57,228.6,124.5 c1.2,1.1,1.3,3,0.2,4.2C1668.1,854.3,1667.2,854.6,1666.4,854.6z"/></g></g></g><g><g><g><path fill="#1A1A1A" d="M263.3,941.8c-0.7,0-1.5-0.3-2.1-0.8c-1.2-1.1-1.3-3-0.1-4.2c81.7-87.1,177.4-120.9,178.3-121.2 c1.6-0.5,3.3,0.3,3.8,1.9c0.5,1.6-0.3,3.3-1.9,3.8c-0.9,0.3-95.2,33.6-175.9,119.6C264.9,941.5,264.1,941.8,263.3,941.8z"/></g></g></g><g><g><g><path fill="#FECE2F" d="M761.4,606.6c-0.4,0-0.8-0.1-1.2-0.2c-1.5-0.6-37.1-16.6-61.3-83.1c-25.5-70-4.4-135.5,57.7-179.6 c57.2-40.6,106.8-39.1,108.9-39.1c1.7,0.1,2.9,1.5,2.9,3.1c-0.1,1.7-1.4,2.9-3.1,2.9l0,0c-0.5,0-49.7-1.4-105.1,37.9 c-28.5,20.2-48.7,45.9-58.6,74.3c-10.6,30.5-9.6,63.6,3,98.4c12.1,33.4,27.3,53.2,37.9,64c11.4,11.7,20.1,15.5,20.2,15.6 c1.5,0.7,2.2,2.4,1.6,3.9C763.7,606,762.6,606.6,761.4,606.6z"/></g></g></g><g><g><g><path fill="#FECE2F" d="M537.4,434.6c-1.5,0-2.8-1.1-3-2.6c-5-41.9,2.2-83.3,20.2-116.5c15.6-28.8,38.3-50.6,67.4-64.9 c1.5-0.7,3.3-0.1,4,1.4s0.1,3.3-1.4,4c-28,13.7-49.8,34.7-64.8,62.4c-17.4,32.1-24.3,72.2-19.5,112.9c0.2,1.6-1,3.1-2.6,3.3 C537.7,434.6,537.5,434.6,537.4,434.6z"/></g></g></g></g><g id="Layer_6"><g><g><path fill="#FFF" d="M1267.1,1592.3c0,0-34-13.3-51.3-12s-14,6.7-3.7,17s69.3,39,69.3,39l4.4-6.7L1267.1,1592.3z"/></g><g><path fill="#FFF" d="M1525.4,1739.6c-20.9-54.3-24.9-85.7-107-141.3l0.7-0.7c0,0-75.5-50.7-94.1-55v0l0,0c0,0-5.5,4.2-5.6,13 c-0.3,7.5,3.3,18.2,17.7,31.7c0.4,0.4,0.9,0.9,1.3,1.3c32.5,31.5,49,42,49,42l65,131.5l-87.7,23.9c0,0,15.7,45.1,25.2,53.6 l-10.5,109.5c0,0,39,28,92.5,30s72.8-29.5,72.8-29.5S1552.4,1809.6,1525.4,1739.6z"/><g><path fill="#FECE2F" d="M1456.4,1777.6l-72.7-151c0,0-44.4-33.3-59-55.9c-2.2-3.5-8.4-22.8-1-26c5.5-2.4,24.8,10.9,24.8,10.9 l-16.1-32.5c0,0-11.5-36-37-41.5s-45.5,4.5-54.5,21.5s-5,24,5,45.5s115,237,115,237l17.5,37c0,0,13,26.1,44,25.3 c31-0.8,43-22.8,44.5-28.3S1471.4,1788.6,1456.4,1777.6z"/></g><g><path fill="#FFF" d="M1347.6,1763.8c0,0,10.1-26.5,10.8-43.1c0.7-16.7,0.5-26.7-3.7-25.7s-26.3,14.7-27.3,52 s12.7,42.7,20.7,44s12.2-0.9,12.2-0.9L1347.6,1763.8z"/></g><g><path fill="#FFF" d="M1331.8,1721c0,0,9-44.3,6.7-59s-8.7-14.3-14.7-12s-24,27-24.7,55.3s12,29.3,17.3,30.3 C1321.8,1736.6,1331.8,1721,1331.8,1721z"/></g><g><path fill="#FFF" d="M1300.7,1692.3c0,0,11.4-43.7,12.1-55.7s1.3-35.3-6.7-35s-24.7,31.3-29.7,48S1268.9,1684,1300.7,1692.3z"/></g><path fill="#1A1A1A" d="M1505.4,1682c-13.5-23.4-43.2-60-107.4-101.9c-18.1-11.8-35-21.4-47.9-28.3c0,0,0,0,0,0l-8.9-18.6 c12.8-15.4,19.5-33.6,19.5-52.9c0-13-3-25.5-9.1-37.2c0-0.1-0.1-0.3-0.2-0.4l-66-124.9c-0.1-0.2-0.3-0.4-0.4-0.6 c-19-40.4-53.2-62.6-96.5-62.6c-55.8,0-101.3,40.3-101.3,89.7c0,11.4,2.4,22.5,7.1,33c0,0.5,0.1,0.9,0.3,1.3l71.3,136.2 c0,0.1,0.1,0.1,0.1,0.2c14.6,30.8,48.2,52.2,85.8,54.7l8,16.2c-4.7-1.5-11.9-3.6-19.6-5.5c-18.4-4.5-30.2-5.2-36-2.3 c-2.7,1.3-3.8,3.3-4.3,4.7c-0.1,0-0.1,0.1-0.1,0.2c-1.3,5.6,1.4,15.4,39.3,36.1c16.1,8.8,32.7,16.3,38.7,19 c-4.5,11.1-7.7,22.4-7.4,30.3c0.3,9,5.7,16.6,15.5,21.8c4.3,2.3,8.5,3.6,11.3,4.3c-4,19.8-1.4,29,10.7,41.2 c2.7,2.7,5.9,4.1,9.3,4.1c1.6,0,3.2-0.3,4.7-1c1.1-0.4,2.2-1,3.2-1.7c-1.8,9.8-2.2,20.9,0,33.1c1.8,9.9,6.1,16.9,12.8,20.9 c4.6,2.8,9.7,3.6,14,3.6c4.9,0,8.8-1,10.1-1.4l12.3,25c0.2,0.4,0.5,0.7,0.8,1c2.3,7.2,6.7,13.6,12.4,18.8l-8.9,101.3 c-0.2,1.6,1,3.1,2.7,3.2c0.1,0,0.2,0,0.3,0c1.5,0,2.8-1.1,2.9-2.7l8.5-97.5c8.2,5.4,18.3,8.6,29.3,8.6 c27.2,0,49.2-19.7,49.2-43.7c0-7.4-2.1-14.3-5.7-20.4c0.1-0.5,0-1.1-0.3-1.7l-74.2-149.6c4.9,3.4,8.2,5.5,8.8,5.8 c1.3,0.9,3.2,0.5,4.1-0.9c0.9-1.3,0.5-3.2-0.9-4.1c-0.2-0.2-20.3-13.1-40.3-29.6c-26-21.4-40.2-39.1-40.9-51.1 c-0.3-3.7,0.9-6.8,3.4-9.5c15.9,7.6,131.5,64.8,174.5,138.9c44.1,75.9,42.9,164,41.9,234.8c-0.2,10.4-0.3,20.2-0.3,29.7 c0,1.7,1.3,3,3,3c1.6,0,3-1.3,3.1-3.1c0-9.5,0.2-19.3,0.3-29.6C1549.1,1848.4,1550.3,1759.3,1505.4,1682z M1242.1,1614 c-11.6-6.3-20.6-12-26.8-17c-9.2-7.3-9.8-11-9.6-12.4c0.1-0.3,0.4-0.7,1.2-1.1c8.2-4.1,38.9,3.8,56.3,9.8c0.1,0,0.2,0,0.3,0.1 l17.9,36.4c-0.4,0.9-0.9,1.9-1.3,2.8C1274,1629.9,1257.8,1622.6,1242.1,1614z M1276.3,1668.1c-0.6-18.7,20-57.6,27.6-62.3 c0.9-0.5,1.6-0.7,2-0.7s0.7,0.2,0.7,0.2c3.9,2.8,6.1,22-1.6,54.2c-3.1,12.6-5.2,21.7-6.4,27.1c-0.1,0.8-0.3,1.4-0.4,2 C1291.8,1686.8,1276.8,1681.3,1276.3,1668.1z M1319.7,1733.3c-2.7,1.1-5.4,0.4-7.6-1.8c-10.3-10.4-13-17.4-8.5-38.5 c0.3-1,3.5-12.1,8.5-22.6c6.3-13.5,12.8-20.3,18-19.4c9.4,1.6,5.6,25.2,2.8,42.4c-1.2,7.2-2.3,14.1-2.6,19.4 C1329.7,1724.4,1324.5,1731.4,1319.7,1733.3z M1341,1785.9c-5.1-3-8.5-8.7-9.9-16.8c-5.1-28.5,5-52.7,15.2-64.7 c4.5-5.4,7.5-6.5,7.9-6.5c2,1.1,3.6,13.9-1.7,39.8c-4.5,21.7-8.4,29.1-8.4,29.2c-0.8,1.5-0.3,3.3,1.2,4.1s3.3,0.3,4.1-1.2 c0-0.1,0.2-0.4,0.5-1l9.4,19C1356.2,1788.6,1347.8,1790,1341,1785.9z M1422.4,1844.9c-11.3,0-21.7-3.8-29.4-10.1 c-0.2-0.3-0.5-0.5-0.9-0.7c-8-6.8-12.9-16.3-12.9-26.8c0-20.8,19.4-37.7,43.2-37.7c23.9,0,43.2,16.9,43.2,37.7 S1446.2,1844.9,1422.4,1844.9z M1323.2,1540.2c-5,4.2-7.3,9.5-6.9,15.8c1.4,22.9,40.5,54.6,64.8,72.3l71.8,144.8 c-8.4-5.9-19-9.5-30.6-9.5c-25.4,0-46.4,17.2-48.9,39.2l-20.6-41.9c1.6-4.8,3.5-11.9,5.6-21.9c2.2-10.5,6.6-35.8,1.1-44 c-1.4-2-3-2.7-4.2-2.9c-3.8-0.7-8.1,2.7-11,5.6c-2.3,2.3-4.9,5.5-7.4,9.4c0.5-3.9,1.2-8.3,1.9-12.9c3.6-21.8,7.6-46.6-7.6-49.3 c-7.7-1.4-14.4,5.3-19.8,13.9c5.7-24.8,7.5-52-1.2-58.3c-1.5-1.2-4.8-2.6-9.4,0.2c-4.1,2.6-10.3,11.4-15.9,22.2l-27.9-56.6 c0-0.3-0.1-0.7-0.3-1l-16.6-33.7l0,0c0,0,0,0,0,0c-0.3-0.9-1.8-5.8-1.9-12.1c0.7-20.3,19.8-36.6,43.2-36.6 c10.3,0,20.2,3.3,27.8,8.9c4.3,3.6,8.2,8.2,11.8,13.8c0.3,0.6,0.6,1.1,0.8,1.7c0.2,0.5,0.5,0.8,0.8,1.1l18.6,38.7 c-9.1-4.7-14.7-7.3-14.8-7.4C1325.3,1539.3,1324.1,1539.5,1323.2,1540.2z"/></g></g></g><g id="Layer_6_1_"><g><g><path fill="#FFF" d="M398.3,1629.6l4.4,6.7c0,0,59-28.7,69.3-39s13.6-15.7-3.7-17s-51.3,12-51.3,12L398.3,1629.6z"/></g><g><path fill="#FFF" d="M158.7,1739.6c20.9-54.3,24.9-85.7,107-141.3l-0.7-0.7c0,0,75.5-50.7,94.1-55l0,0h0c0,0,5.5,4.2,5.6,13 c0.3,7.5-3.3,18.2-17.7,31.7c-0.4,0.4-0.9,0.9-1.3,1.3c-32.5,31.5-49,42-49,42l-65,131.5l87.7,23.9c0,0-15.7,45.1-25.2,53.6 l10.5,109.5c0,0-39,28-92.5,30s-72.8-29.5-72.8-29.5S131.7,1809.6,158.7,1739.6z"/><g><path fill="#FECE2F" d="M217.2,1819.6c1.5,5.5,13.5,27.5,44.5,28.3c31,0.8,44-25.3,44-25.3l17.5-37c0,0,105-215.5,115-237 s14-28.5,5-45.5s-29-27-54.5-21.5s-37,41.5-37,41.5l-16.1,32.5c0,0,19.4-13.3,24.8-10.9c7.4,3.2,1.2,22.5-1,26 c-14.7,22.7-59,55.9-59,55.9l-72.7,151C212.7,1788.6,215.7,1814.1,217.2,1819.6z"/></g><g><path fill="#FFF" d="M323.8,1790.1c0,0,4.2,2.2,12.2,0.9s21.7-6.7,20.7-44s-23.1-51-27.3-52s-4.4,9-3.7,25.7 c0.7,16.6,10.8,43.1,10.8,43.1L323.8,1790.1z"/></g><g><path fill="#FFF" d="M367.7,1735.6c5.3-1,18-2,17.3-30.3s-18.7-53-24.7-55.3s-12.4-2.7-14.7,12s6.7,59,6.7,59 S362.3,1736.6,367.7,1735.6z"/></g><g><path fill="#FFF" d="M407.7,1649.6c-5-16.7-21.7-47.7-29.7-48s-7.4,23-6.7,35s12.1,55.7,12.1,55.7 C415.2,1684,412.7,1666.3,407.7,1649.6z"/></g><path fill="#1A1A1A" d="M136,1919.9c0.1,10.3,0.3,20.1,0.3,29.6c0.1,1.8,1.5,3.1,3.1,3.1c1.7,0,3-1.3,3-3 c0-9.5-0.1-19.3-0.3-29.7c-1-70.8-2.2-158.9,41.9-234.8c43-74.1,158.6-131.3,174.5-138.9c2.5,2.7,3.7,5.8,3.4,9.5 c-0.7,12-14.9,29.7-40.9,51.1c-20,16.5-40.1,29.4-40.3,29.6c-1.4,0.9-1.8,2.8-0.9,4.1c0.9,1.4,2.8,1.8,4.1,0.9 c0.6-0.4,3.9-2.5,8.8-5.8l-74.2,149.6c-0.3,0.5-0.3,1.1-0.3,1.7c-3.7,6.1-5.7,13.1-5.7,20.4c0,24,22,43.7,49.2,43.7 c11,0,21.1-3.2,29.3-8.6l8.5,97.5c0.1,1.6,1.4,2.7,2.9,2.7c0.1,0,0.2,0,0.3,0c1.7-0.1,2.9-1.6,2.7-3.2l-8.9-101.3 c5.8-5.2,10.1-11.6,12.4-18.8c0.3-0.3,0.6-0.6,0.8-1l12.3-25c1.3,0.4,5.2,1.4,10.1,1.4c4.3,0,9.4-0.8,14-3.6 c6.7-4,11-11,12.8-20.9c2.2-12.2,1.8-23.3,0-33.1c1,0.7,2.1,1.3,3.2,1.7c1.5,0.7,3.1,1,4.7,1c3.4,0,6.6-1.4,9.3-4.1 c12.1-12.1,14.7-21.3,10.7-41.2c2.7-0.7,7-2.1,11.3-4.3c9.8-5.2,15.2-12.8,15.5-21.8c0.3-7.9-2.9-19.2-7.4-30.3 c6-2.7,22.6-10.1,38.7-19c37.9-20.7,40.6-30.5,39.3-36.1c0-0.1,0-0.2-0.1-0.2c-0.5-1.4-1.6-3.4-4.3-4.7c-5.8-2.9-17.6-2.2-36,2.3 c-7.7,1.9-15,4.1-19.6,5.5l8-16.2c37.7-2.5,71.2-23.8,85.8-54.7c0-0.1,0.1-0.1,0.1-0.2l71.3-136.2c0.2-0.4,0.3-0.8,0.3-1.3 c4.7-10.5,7.1-21.6,7.1-33c0-49.4-45.5-89.7-101.3-89.7c-43.3,0-77.5,22.2-96.5,62.6c-0.1,0.2-0.3,0.4-0.4,0.6l-66,124.9 c-0.1,0.1-0.2,0.3-0.2,0.4c-6.1,11.7-9.1,24.2-9.1,37.2c0,19.3,6.8,37.5,19.5,52.9l-8.9,18.6c0,0,0,0,0,0 c-12.8,6.9-29.8,16.5-47.9,28.3c-64.2,41.9-93.9,78.5-107.4,101.9C133.8,1759.3,135,1848.4,136,1919.9z M404,1632.6 c-0.4-0.9-0.8-1.9-1.3-2.8l17.9-36.4c0.1,0,0.2,0,0.3-0.1c17.4-6,48.1-13.9,56.3-9.8c0.8,0.4,1.1,0.8,1.2,1.1 c0.2,1.4-0.4,5.1-9.6,12.4c-6.2,5-15.2,10.7-26.8,17C426.3,1622.6,410.1,1629.9,404,1632.6z M385.9,1688.6 c-0.1-0.6-0.3-1.2-0.4-2c-1.2-5.4-3.3-14.5-6.4-27.1c-7.7-32.2-5.5-51.4-1.6-54.2c0,0,0.3-0.2,0.7-0.2s1.1,0.2,2,0.7 c7.6,4.7,28.2,43.6,27.6,62.3C407.3,1681.3,392.3,1686.8,385.9,1688.6z M353.8,1712.8c-0.3-5.3-1.4-12.2-2.6-19.4 c-2.8-17.2-6.6-40.8,2.8-42.4c5.2-0.9,11.7,5.9,18,19.4c5,10.5,8.2,21.6,8.5,22.6c4.5,21.1,1.8,28.1-8.5,38.5 c-2.2,2.2-4.9,2.9-7.6,1.8C359.6,1731.4,354.4,1724.4,353.8,1712.8z M324.8,1787.8l9.4-19c0.3,0.6,0.5,1,0.5,1 c0.8,1.5,2.6,2,4.1,1.2s2-2.6,1.2-4.1c0-0.1-3.9-7.5-8.4-29.2c-5.3-25.9-3.7-38.7-1.7-39.8c0.4,0,3.4,1.1,7.9,6.5 c10.2,12,20.3,36.2,15.2,64.7c-1.4,8.1-4.8,13.8-9.9,16.8C336.3,1790,327.9,1788.6,324.8,1787.8z M218.5,1807.2 c0-20.8,19.3-37.7,43.2-37.7c23.8,0,43.2,16.9,43.2,37.7c0,10.5-4.9,20-12.9,26.8c-0.3,0.2-0.6,0.4-0.9,0.7 c-7.7,6.3-18.1,10.1-29.4,10.1C237.9,1844.9,218.5,1828,218.5,1807.2z M357.7,1539.8c-0.1,0.1-5.7,2.7-14.8,7.4l18.6-38.7 c0.3-0.3,0.6-0.7,0.8-1.1c0.2-0.6,0.5-1.1,0.8-1.7c3.5-5.6,7.5-10.1,11.8-13.8c7.7-5.6,17.5-8.9,27.8-8.9 c23.4,0,42.5,16.3,43.2,36.6c-0.1,6.3-1.5,11.1-1.9,12.1c0,0,0,0,0,0l0,0l-16.6,33.7c-0.2,0.3-0.2,0.7-0.3,1l-27.9,56.6 c-5.7-10.8-11.8-19.6-15.9-22.2c-4.6-2.8-7.9-1.4-9.4-0.2c-8.7,6.3-6.9,33.5-1.2,58.3c-5.4-8.7-12.1-15.3-19.8-13.9 c-15.2,2.7-11.2,27.5-7.6,49.3c0.7,4.6,1.4,9,1.9,12.9c-2.5-3.9-5.1-7.1-7.4-9.4c-2.9-2.9-7.2-6.3-11-5.6 c-1.2,0.2-2.8,0.9-4.2,2.9c-5.5,8.2-1.1,33.5,1.1,44c2.1,10,4,17.1,5.6,21.9l-20.6,41.9c-2.5-22-23.5-39.2-48.9-39.2 c-11.5,0-22.2,3.6-30.6,9.5l71.8-144.8c24.4-17.7,63.4-49.4,64.8-72.3c0.4-6.3-1.9-11.6-6.9-15.8 C360,1539.5,358.8,1539.3,357.7,1539.8z"/></g></g></g><g id="Layer_4"><g><g><g><polyline fill="#FECE2F" points="781.5 1657.8 735.8 1681.4 787.4 1678.5"/><polygon fill="#FECE2F" points="787.4 1678.5 781.5 1657.8 1136.6 1557.8 1142.5 1578.5"/><path fill="#1A1A1A" d="M1145.4,1577.8l-5.9-20.7c-0.5-1.6-2.1-2.5-3.7-2.1l-354.7,99.8c-0.3,0-0.7,0.1-1,0.3l-45.7,23.6 c-1.2,0.7-1.9,2.1-1.5,3.5c0.4,1.3,1.6,2.2,2.9,2.2c0.1,0,0.1,0,0.1,0.1l51.6-3c0.1,0,0.3,0,0.4-0.1c0.1,0,0.2,0,0.3,0 l355.1-99.9c0.8-0.2,1.4-0.7,1.8-1.4C1145.5,1579.4,1145.6,1578.6,1145.4,1577.8z M1095.5,1588.6l-4.3-14.9l29.8-8.4l4.3,14.9 L1095.5,1588.6z M1085.4,1575.3l4.3,14.9l-300.3,84.5l-4.2-14.9L1085.4,1575.3z M779.6,1662.1l3.9,13.6l-33.9,1.9L779.6,1662.1z M1131.1,1578.5l-4.3-14.9l7.7-2.2l4.2,14.9L1131.1,1578.5z"/></g><g><path fill="#FFF" d="M1057.6,1956.5c0,0-24-144-24.7-177.3s22-72.7,36-92.7s26-36.3,24-52.3s-16.7-51.7-16.7-51.7 s-23.2-4-17,48.3l-27.7,37.7c0,0-10.2-27.8-7.7-42.3c2.5-14.5,8-92.5,8-114.5s-5.3-71.7-17.7-67.8 c-12.3,3.8-16.8,70.3-16.8,70.3l-10,81c0,0-4.2-38.7-21.8-37.3c-17.7,1.3-35.8,39-42,56.7c0,0-3.2-34.3-10.7-37.3 s-20.5,0.5-37,40.5c0,0-7.8-26.5-17.7-24.5c-9.8,2-32.7,50-32.7,50l23.8-6.5c0,0,0.5,62,14.5,99.5s35,46.3,35,46.3l-24.7,164 c0,0,17.2,29.2,92.2,33.2S1057.6,1956.5,1057.6,1956.5z"/></g><g><path fill="#1A1A1A" d="M898.5,1779.3c-1-0.1-10.9-2-26.3-31.7c-17.5-33.7-21-117.9-21-118.7c-0.1-1.6-1.5-2.9-3.2-2.9 c-1.6,0.1-3,1.5-2.9,3.2c0.2,3.5,3.6,86.4,21.7,121.3c13.3,25.5,23.3,32.6,28.6,34.4L871.2,1946c-0.2,1.7,0.9,3.2,2.6,3.5 c0.2,0,0.3,0,0.5,0c1.5,0,2.8-1.1,2.8-2.6l24.7-164c0.1-1.1,0-2.1-0.8-2.8C900.3,1779.4,899.4,1779.1,898.5,1779.3z"/><path fill="#1A1A1A" d="M1079,1581.1c-0.6-1.2-1.8-1.9-3.1-1.7c-24.6,3.1-22.1,27-20.4,42.8c0.3,3,0.6,5.9,0.7,8.4 c-0.6,3.9-12,18.7-23.4,31.8c-2.4-7.5-6.5-22.5-5.8-36.2c0.2-2.7,0.6-8.1,1.3-15.6c6.5-74.5,10.9-152.6-5.6-167.4 c-2.6-2.3-5.7-3.2-9-2.5c-14.1,2.9-16.5,32.3-19.6,69.5c-0.5,5.7-1,11.5-1.5,17.3c-2.2,23.7-4.7,42.4-6.5,55 c-3.6-17.5-10.3-26.8-20.1-27.7c-10.8-0.9-21.7,8.9-32.5,29.2c-4.2,7.8-7.5,15.7-9.7,21.3c-0.5-2.8-0.9-5.8-1.2-8.7 c-1.1-8.7-2-16.8-7.6-20.8c-3.1-2.2-7.1-2.7-12.1-1.6c-12.6,2.7-22.2,22.6-26.9,34.3c-3.1-9.4-7.8-19.9-18.2-18.4 c-7.2,1-15.1,10-24.1,27.4c-6.4,12.3-10.8,24.1-11,24.6c-0.6,1.5,0.2,3.3,1.8,3.9c0.4,0.1,0.7,0.2,1.1,0.2c1.2,0,2.4-0.8,2.8-2 c0-0.2,4.5-12,10.7-24c10.8-20.8,17.2-23.8,19.5-24.1c6.3-0.8,9.4,7.3,12.8,18c2.1,6.4,3.8,11.9,7.1,14.2c2,1.4,4.3,1.9,6.7,1.4 c6.5-1.3,11.7-9.4,12.3-10.3c0.9-1.4,0.4-3.3-1-4.2s-3.3-0.4-4.2,1c-1.4,2.2-5.2,6.9-8.3,7.5c-0.8,0.2-1.4,0-2-0.4 c-1-0.6-2-2.8-2.9-5.3c0.7-2.2,3.5-10,7.6-18c5.9-11.6,12.2-18.7,17.6-19.9c3.2-0.7,5.6-0.5,7.2,0.6c3.3,2.3,4.1,9.2,5,16.5 c1,9.1,2.2,19.4,9,25.5c2.7,2.5,5.4,3.7,8.1,3.7c0.7,0,1.5-0.1,2.1-0.2c4.4-1.2,8.1-5.7,11-13.7c0.6-1.6-0.2-3.3-1.8-3.9 c-1.6-0.6-3.3,0.2-3.9,1.8c-2,5.7-4.5,9.2-6.7,9.8c-1.2,0.3-2.8-0.4-4.6-2c-1.1-1-2-2.1-2.8-3.5c1.1-3.2,5.5-15.7,12.1-27.9 c5.2-9.8,15.3-25.9,25.6-25.9c0.2,0,0.5,0,0.8,0c16.1,1.4,17.9,44.9,17.2,60.1c-0.1,1.7,1.2,3.1,2.9,3.2h0.1 c1.6,0,3-1.3,3.2-2.9c0.1-0.5,0.4-8.1-0.2-18.1c0.2-0.3,0.3-0.6,0.4-1c0-0.2,5.4-27.6,9.7-74.1c0.5-5.8,1-11.6,1.5-17.3 c2.4-29.1,5.1-62.1,14.7-64c1.4-0.3,2.6,0.1,3.7,1.1c4.7,4.2,10.2,19.8,9.3,70c-0.6,33.8-3.8,70.4-5.7,92.3 c-0.7,7.5-1.2,13-1.3,15.8c-1,20.4,7.5,42.7,7.9,43.6c0.4,1,1.3,1.7,2.3,1.9s2.1-0.2,2.8-1c6.5-7.2,27.7-31.4,28.4-39.4 c0-0.1,0-0.3,0-0.4c-0.1-2.8-0.5-5.9-0.8-9.1c-1.9-18.3-2.2-32.6,13-35.8c4.2,9,20.1,45.4,13.5,65.7c-2.4,7.4-9.3,16.9-17.4,28 c-17.8,24.4-42.1,57.8-40.7,99.7c2,59.5,24.5,176.6,24.7,177.8c0.3,1.5,1.6,2.5,3,2.5c0.2,0,0.4,0,0.5,0 c1.6-0.3,2.7-1.9,2.4-3.6c-0.2-1.2-22.6-117.8-24.6-176.9c-1.3-39.8,22.3-72.2,39.6-95.9c8.4-11.5,15.6-21.4,18.3-29.7 C1102.1,1627.9,1079.9,1583,1079,1581.1z"/></g></g><g><path fill="#1A1A1A" d="M1018.4,1856c-0.4,0-0.9-0.1-1.3-0.3l-11-5.2c-1.5-0.7-2.1-2.5-1.4-4c0.7-1.5,2.5-2.1,4-1.4l11,5.2 c1.5,0.7,2.1,2.5,1.4,4C1020.6,1855.3,1019.5,1856,1018.4,1856z"/></g><g><path fill="#1A1A1A" d="M1023.1,1879.3c-0.4,0-0.7-0.1-1.1-0.2l-18.7-7.3c-1.5-0.6-2.3-2.3-1.7-3.9c0.6-1.5,2.3-2.3,3.9-1.7 l18.7,7.3c1.5,0.6,2.3,2.3,1.7,3.9C1025.4,1878.6,1024.3,1879.3,1023.1,1879.3z"/></g><g><path fill="#1A1A1A" d="M1023.1,1907.3c-0.3,0-0.5,0-0.8-0.1l-20.2-5.6c-1.6-0.4-2.5-2.1-2.1-3.7s2.1-2.5,3.7-2.1l20.2,5.6 c1.6,0.4,2.5,2.1,2.1,3.7C1025.6,1906.4,1024.4,1907.3,1023.1,1907.3z"/></g></g></g><g id="Layer_3"><g><g><g><path fill="#FFF" d="M1497.4,1491.6c0,0-82-10.5-82,7s50,27.5,63.5,29.5s50,5,50,5L1497.4,1491.6z"/></g><g><rect width="190" height="310" x="1523.5" y="1336.2" fill="#FECE2F" transform="matrix(0.7852 -0.6193 0.6193 0.7852 -575.775 1322.6776)"/></g><g><polygon fill="#FFF" points="1507.4 1381.6 1545.4 1351.6 1731.4 1595.6 1699.4 1624.6"/></g><path fill="#FFF" d="M1969.1,1795l-77.3-94c0,0-38-46-62-100.7s-37.3-88.7-54-119.3c-16.7-30.7-53.3-104-67.3-96 s12,82.7,12,82.7l68.6,86.5l-149.2,117.7l-19.7-25c9.8-0.8,18.2-2.9,19.2-7.8c1.8-9.2-19.8-17.6-42.1-21.2l-15.6-19.8 c6.2-0.1,12.4-0.3,18.6-0.7c4.8-0.3,10.4-1.3,12.4-5.6c1.3-2.9,0.5-6.4-1.4-9c-1.9-2.5-4.6-4.3-7.4-5.9c-5.7-3.3-11.6-5.9-17.8-8 c-8.1-2.7-16.6-4.4-25-6.1c-5.3-1.1-12.6-4.3-18.1-3.6c-1.8,0.2-3.3,0.7-4.5,1.5c-12.3,0.9-28.4,3.8-26.9,12.4 c2.3,13.8,9.7,25.2,55,37.8c-4.7,2-45.3,12.7-15.3,38.7c0,0,10,10.3,34.3,15.5c0,0-9.7,24.5,21,37.5s64,5,64,5s32,12,48.7,27.3 s172.7,198.7,172.7,198.7s56.7,10.7,75.3-19.3C1985.8,1884.3,1969.1,1795,1969.1,1795z"/><g><path fill="#1A1A1A" d="M1891.8,1936.7c-0.9,0-1.7-0.4-2.3-1.1c-1.5-1.8-154.1-180.1-172.5-198.5 c-17.8-17.8-53.4-25.1-53.8-25.2c-1.7-0.3-2.7-1.9-2.4-3.6s1.9-2.7,3.6-2.4c1.5,0.3,37.8,7.7,56.9,26.8 c18.5,18.5,166.5,191.5,172.8,198.8c1.1,1.3,1,3.2-0.3,4.3C1893.2,1936.5,1892.5,1936.7,1891.8,1936.7z"/></g></g><g><path fill="#1A1A1A" d="M1734.9,1688.7c-0.9,0-1.8-0.4-2.4-1.2c-1-1.3-0.7-3.2,0.6-4.2c40.7-30.5,54.8-82.8,54.9-83.4 c0.4-1.6,2.1-2.6,3.7-2.1c1.6,0.4,2.6,2.1,2.1,3.7c-0.6,2.2-14.7,54.9-57.1,86.6C1736.1,1688.5,1735.5,1688.7,1734.9,1688.7z"/></g><g><rect width="109.2" height="137.1" x="1528.8" y="1382.5" fill="#1A1A1A" transform="matrix(0.7852 -0.6193 0.6193 0.7852 -558.4624 1292.2964)"/></g><g><g><path fill="#FECE2F" d="M1564.2,1455c-14.7,0-26.7-12-26.7-26.7s12-26.7,26.7-26.7s26.7,12,26.7,26.7 C1591,1443,1579,1455,1564.2,1455z M1564.2,1407.5c-11.4,0-20.7,9.3-20.7,20.7s9.3,20.7,20.7,20.7c11.4,0,20.7-9.3,20.7-20.7 S1575.6,1407.5,1564.2,1407.5z"/></g><g><path fill="#FECE2F" d="M1564.2,1437.9c-5.3,0-9.7-4.3-9.7-9.7s4.3-9.7,9.7-9.7s9.7,4.3,9.7,9.7S1569.5,1437.9,1564.2,1437.9z M1564.2,1424.6c-2,0-3.7,1.6-3.7,3.7s1.6,3.7,3.7,3.7s3.7-1.6,3.7-3.7S1566.2,1424.6,1564.2,1424.6z"/></g><g><path fill="#FECE2F" d="M1604.1,1486.7c-5.3,0-9.7-4.3-9.7-9.7s4.3-9.7,9.7-9.7s9.7,4.3,9.7,9.7S1609.5,1486.7,1604.1,1486.7z M1604.1,1473.3c-2,0-3.7,1.6-3.7,3.7s1.6,3.7,3.7,3.7s3.7-1.6,3.7-3.7S1606.2,1473.3,1604.1,1473.3z"/></g><g><path fill="#FECE2F" d="M1604.2,1503.7c-14.7,0-26.7-12-26.7-26.7s12-26.7,26.7-26.7s26.7,12,26.7,26.7 C1631,1491.7,1619,1503.7,1604.2,1503.7z M1604.2,1456.2c-11.4,0-20.7,9.3-20.7,20.7s9.3,20.7,20.7,20.7 c11.4,0,20.7-9.3,20.7-20.7S1615.6,1456.2,1604.2,1456.2z"/></g></g><path fill="#1A1A1A" d="M1971.4,1793c-0.7-0.8-74.9-84.4-109-138.9c-20.7-33-32.8-62.8-44.6-91.7c-7.9-19.2-15.3-37.3-24.7-55.1 c-3.3-6.2-7-13.3-10.9-20.9c-28.6-55.2-53.5-101.2-68.8-105c-2.5-0.6-4.9-0.3-6.8,1.1c-2.8,1.9-11.4,7.9-1,48.6 c1.7,6.8,3.7,13.4,5.5,19.2l-111.6-141.5c-1-1.3-3-1.5-4.3-0.5L1446,1426c-0.6,0.5-1,1.2-1.1,2s0.1,1.7,0.6,2.3l45.2,57.4 c-18.4-2.3-64.1-6.6-75.6,5.6c-2.5,2.8-3.5,6.2-2.7,10c2.4,11.4,22.4,20.1,61.1,26.6c27.6,4.6,54.9,6.3,55.2,6.3 c0.1,0,0.1,0,0.2,0c0,0,0.1,0,0.1,0l16.7,21.2c-18.7-1.3-27.7,3-31.3,5.5c-3.6,2.5-5.7,5.9-6.1,9.7c-0.4,1.5-1.2,6.9,3.1,13.7 c7.8,12.4,27.1,20.4,48,25.6c-4.1,0.7-7.7,1.9-10.6,3.6c-9.4,5.5-10.9,12.2-10.6,16.8c0.9,12.1,15.8,24.3,30,30.2 c4.1,1.7,8.6,3,13.5,4.1c-1.6,7.3-3.8,28.7,23.5,38.9c11.8,4.4,26.1,6.8,40.6,6.8c0.5,0,0.9,0,1.1,0.1c14.3-0.1,26-2.7,32.1-6.9 c4.2-2.9,5.1-6.1,5.1-8.3s-0.8-5.6-4.6-9.1c-9.2-8.6-29.5-12.4-55.7-10.5c-1.7,0.1-2.9,1.6-2.8,3.3c0.1,1.7,1.6,2.9,3.3,2.8 c35.8-2.7,48.2,6.1,51.1,8.8c1.8,1.6,2.7,3.2,2.7,4.6s-1.3,2.5-2.4,3.3c-10.6,7.4-44.2,8.5-68.4-0.6 c-23.5-8.9-20.9-26.8-19.6-32.1c6.9,1.1,14.6,1.6,22.9,1.6c0.1,0,0.2,0,0.3,0c11.7,0,20.5-1,22.2-1.1l4.3,5.5 c0.6,0.8,1.5,1.2,2.4,1.2c0.7,0,1.3-0.2,1.9-0.7l149.2-117.7c0.6-0.5,1-1.2,1.1-2s-0.1-1.7-0.6-2.3l-68.8-87.2 c-10.8-29-21.5-71.2-12.5-77.5c0.3-0.2,0.8-0.4,1.8-0.2c13.9,3.4,45.8,65,64.8,101.8c3.9,7.6,7.6,14.8,10.9,21 c9.3,17.5,16.6,35.5,24.4,54.6c11.9,29.1,24.2,59.2,45.1,92.6c34.4,54.9,108.9,138.9,109.6,139.7c0.6,0.7,1.5,1,2.3,1 c0.7,0,1.4-0.2,2-0.7C1972.4,1796.2,1972.5,1794.3,1971.4,1793z M1719.6,1518.6l15.7-11.9l20.7,24.8l-15.6,12.8L1719.6,1518.6z M1715.8,1513.8l-19.1-23.7l23.5-18.4l19.2,24.3L1715.8,1513.8z M1474.4,1523.8c-16.1-2.6-53.7-10.1-56.1-21.8 c-0.4-1.8,0-3.2,1.2-4.5c2.7-2.8,11.8-7.4,42.5-6.1c16.1,0.7,31,2.8,34.2,3.2l27.6,35C1514.7,1528.9,1494.6,1527.1,1474.4,1523.8z M1517,1583.5c-3.6-5.4-2.6-9.2-2.6-9.3c0-0.2,0.1-0.5,0.1-0.7c0.2-2.1,1.4-3.9,3.6-5.5c7.1-5,25.5-7.4,56.1,0.7 c9.6,2.5,32.5,9.6,35.8,19.4c0.7,2,0.3,3.9-1,5.7c-2.8,3.6-25.6,2.8-45.1-0.2c-1.7-0.2-3.2,0.9-3.5,2.6c-0.2,1.7,0.9,3.2,2.6,3.5 c0.3,0.1,8.3,1.3,17.8,2.1l7.5,9.6C1564.1,1607.8,1527.9,1599.9,1517,1583.5z M1570.7,1657c-12.4-5.1-25.5-15.8-26.2-25 c-0.3-4.2,2.3-8,7.6-11.1c16.5-9.7,66.5,1.6,81.2,13.1c2.8,2.2,3.5,3.7,3.3,4.4c-2.3,7.4-30.4,7.3-48.7,4.8 c-1.6-0.3-3.2,0.9-3.4,2.6c-0.3,1.6,0.9,3.2,2.6,3.4c4.5,0.6,19.1,2.3,32.1,1.3l9.5,12C1618.6,1663.5,1590.5,1665.2,1570.7,1657z M1640.4,1667.5l-14.1-17.8c8-1.4,14.5-4.2,16.1-9.7c0.7-2.5,0.4-6.5-5.4-11c-7.6-5.9-22.7-11.6-38.7-14.9l-9.3-11.8 c18.4,0.8,23-2.3,24.9-4.7c2.6-3.4,3.3-7.5,1.9-11.5c-3.2-9.3-16.7-17.2-40.1-23.4c-8.1-2.1-15.2-3.6-21.4-4.4l-102.1-129.4 l144.3-113.9l119.9,151.9l-25.9,20.3c-0.7,0.5-1.1,1.3-1.2,2.1c-0.1,0.8,0.2,1.7,0.7,2.3l67.4,83.6L1640.4,1667.5z M1762.2,1571.5 l-18-22.3l22.5-18.4l18.1,22.9L1762.2,1571.5z"/></g></g></svg>