<svg xmlns="http://www.w3.org/2000/svg" width="50" height="50" viewBox="0 0 48 48"><path fill="#78909C" d="M5,29v10c0,2.209,1.791,4,4,4h28c2.209,0,4-1.791,4-4V29H5z"/><path fill="#455A64" d="M41,29c0,2.209-1.791,4-4,4H9c-2.209,0-4-1.791-4-4l3-12c0.219-2.094,1.791-4,4-4h22c2.209,0,3.688,1.75,4,4L41,29z"/><path fill="#64DD17" d="M34 36A2 2 0 1 0 34 40A2 2 0 1 0 34 36Z"/><path fill="#BBDEFB" d="M24.525 5A5.525 5.384 0 1 0 24.525 15.768A5.525 5.384 0 1 0 24.525 5Z"/><path fill="#BBDEFB" d="M25.75 15.133A4.55 4.433 0 1 0 25.75 23.999A4.55 4.433 0 1 0 25.75 15.133Z"/><path fill="#BBDEFB" d="M19.55 11A4.55 4.434 0 1 0 19.55 19.868 4.55 4.434 0 1 0 19.55 11zM38.1 11.333A3.9 3.801 0 1 0 38.1 18.935000000000002 3.9 3.801 0 1 0 38.1 11.333z"/><path fill="#BBDEFB" d="M32.9 14.399A3.9 3.801 0 1 0 32.9 22.000999999999998A3.9 3.801 0 1 0 32.9 14.399Z"/><path fill="#BBDEFB" d="M33.225 8A4.225 4.116 0 1 0 33.225 16.232A4.225 4.116 0 1 0 33.225 8Z"/><path fill="#BBDEFB" d="M28.45 10.132000000000001A4.55 4.434 0 1 0 28.45 19A4.55 4.434 0 1 0 28.45 10.132000000000001Z"/></svg>