<svg xmlns="http://www.w3.org/2000/svg" width="500" height="500" viewBox="0 0 48 48"><path fill="#0277bd" d="M34,8v1l-1,2h-3c-1.105,0-2,0.895-2,2v18.75C28,36.5,29.449,37,30.5,37H34l-1,7H14 c0,0,5.875-3,7.875-8.25s2.045-8.91,2.875-18.875C25.375,9.375,29.172,8,29.172,8H34z"/><path fill="#4eacdf" d="M19,13v17c0,0.11,0,0.23-0.01,0.36c-0.01,1.61-0.13,2.78-0.29,3.62l-0.01,0.01V34 c-0.24,1.24-0.57,1.77-0.77,1.99c-0.1,0.09-0.16,0.12-0.17,0.13l4,0.005l0.125-0.375c2-5.25,2.045-8.91,2.875-18.875 C25.375,9.375,29.172,8,29.172,8H34V4H14.5C14.224,4,14,4.224,14,4.5V10h3c1.105,0,2,0.895,2,2V13z"/><path fill="#0288d1" d="M21.447,30.386c1.803-5.677,2.36-11.363,2.803-15.198C25.314,5.986,34,4,34,4v5 c-2.5,0-4.875-0.281-6.438,1.542c-2.25,2.625-1.923,8.764-2.344,13.896C24.75,30.154,25.5,40,14,44v-7c0,0,2.162,0.183,3.75-0.875 C19.625,34.875,20.91,32.074,21.447,30.386z"/><path fill="#4eacdf" d="M32,44c0,0,0-7,2-7v7H32z"/><path fill="#2770aa" d="M21,13c0,20.917-2.41,22.39-3.08,22.99c0.2-0.22,0.53-0.75,0.77-1.99v-0.01l0.01-0.01 c0.16-0.84,0.28-2.01,0.29-3.62C19,30.23,19,30.11,19,30V13c0-1.1-0.9-2-2-2h-2c-0.55,0-1-0.45-1-1s0.45-1,1-1h2 C19.21,9,21,10.79,21,13z"/></svg>