<svg xmlns="http://www.w3.org/2000/svg" width="50" height="50" viewBox="0 0 48 48"><path fill="#455a64" d="M42,35H6V7c0-0.555,0.449-1,1-1h34c0.555,0,1,0.445,1,1V35z"/><path fill="#bbdefb" d="M8,8h32v20H8V8z"/><path fill="#b0bec5" d="M0,40h48v2H0V40z"/><path fill="#cfd8dc" d="M42,30H6L0,40h48L42,30z"/><path fill="#546e7a" d="M8,32h32l3,6H5L8,32z"/><path fill="#90a4ae" d="M16.545 38L16 40 32 40 31.455 38z"/><path fill="#1976d2" d="M28,18c0-1.75,1-2,1-2h5c-0.772-1.764-2.951-3-5-3s-3.806,1.236-4.578,3H16c-1.105,0-2,0.895-2,2 c0,1.105,0.895,2,2,2h8.422c0.772,1.764,2.529,3,4.578,3s4.228-1.236,5-3h-5C29,20,28,19.75,28,18z"/></svg>