<svg xmlns="http://www.w3.org/2000/svg" width="500" height="500" viewBox="0 0 48 48"><path fill="#90caf9" d="M38,6H10c-2.206,0-4,1.793-4,4v28c0,2.206,1.792,4,3.998,4h28c2.206,0,4-1.794,4-4L42,10 C42,7.793,40.206,6,38,6"/><path fill="#3f51b5" d="M11 29H19V37H11zM29 29H37V37H29zM11 11H19V19H11zM29 11H37V19H29z"/><path fill="#2196f3" d="M19 14H23V16H19zM25 14H27V16H25zM32 19H34V23H32zM32 25H34V27H32zM14 25H16V29H14zM14 21H16V23H14zM21 32H23V34H21zM25 32H29V34H25z"/><path fill="#bbdefb" d="M38,6H10c-2.206,0-4,1.793-4,4v28c0,2.206,1.792,4,3.998,4h28c2.206,0,4-1.794,4-4L42,10 C42,7.793,40.206,6,38,6"/><path fill="#3f51b5" d="M11 29H19V37H11zM29 29H37V37H29zM11 11H19V19H11zM29 11H37V19H29z"/><path fill="#2196f3" d="M19 14H23V16H19zM25 14H27V16H25zM32 19H34V23H32zM32 25H34V27H32zM14 25H16V29H14zM14 21H16V23H14zM21 32H23V34H21zM25 32H29V34H25z"/></svg>