<svg xmlns="http://www.w3.org/2000/svg" viewBox="0 0 48 48" width="300px" height="300px"><path fill="#00BCD4" d="M37 18H43V42H37zM29 26H35V42H29zM21 22H27V42H21zM13 32H19V42H13zM5 28H11V42H5z"/><g><path fill="#3F51B5" d="M8 13A3 3 0 1 0 8 19 3 3 0 1 0 8 13zM16 15A3 3 0 1 0 16 21 3 3 0 1 0 16 15zM24 8A3 3 0 1 0 24 14 3 3 0 1 0 24 8zM32 10A3 3 0 1 0 32 16 3 3 0 1 0 32 10zM40 6A3 3 0 1 0 40 12 3 3 0 1 0 40 6z"/><path fill="#3F51B5" d="M39.1 7.2L31.8 10.9 23.5 8.8 15.5 15.8 8.5 14.1 7.5 17.9 16.5 20.2 24.5 13.2 32.2 15.1 40.9 10.8z"/></g></svg>