<svg xmlns="http://www.w3.org/2000/svg" width="50" height="50" viewBox="0 0 48 48"><path fill="#2196F3" d="M24.001,8L24.001,8C32.822,8,40,15.178,40,24c0,8.822-7.178,16-16,16c-8.822,0-16-7.177-16-15.999C8,15.179,15.178,8.001,24.001,8 M24,4C12.954,4.001,4,12.956,4,24.001C4,35.045,12.954,44,24,44s20-8.955,20-20C44,12.956,35.046,4,24,4L24,4z"/><path fill="#2196F3" d="M16 16L28.729 17.413 17.414 28.727z"/><path fill="#2196F3" d="M18.907 24.097H33.906V28.097H18.907z" transform="rotate(-134.999 26.407 26.097)"/></svg>