<svg xmlns="http://www.w3.org/2000/svg" width="50" height="50" viewBox="0 0 48 48"><path fill="#4eacdf" d="M20.8,4H8v40h11.733C30.926,44,40,35.046,40,24v-1.053C40,12.483,31.404,4,20.8,4z M20.419,33 C17.861,33,17,31.626,17,31V13.009c6.588,0.124,13,1.604,13,9.991C30,32.279,22.667,33,20.419,33z"/><path fill="#1e88e5" d="M23,33h-3c-1.178,0-3-0.837-3-2V10H8c0,0,1,2,1,9c0,8.421,0,11.737,0,17c0,3.158,3,4,6.5,4 C20,40,23,36,23,33z"/><path fill="#1976d2" d="M11.2,44C22.982,44,37,39.842,37,23C37,8.263,25.004,4,14.4,4H9.454C14.713,4.126,32,5.847,32,22 c0,15.789-14.367,18-16.5,18S10,38.782,10,35.624c0-5.263,4-8.453,4-16.874S8,10,8,10v34H11.2z"/><path fill="#1565c0" d="M9.454,4H8v6c1.867,0,6.125,0.75,8,2c0,0,0.503,0.506,1.005,1.009C23.591,13.133,30,14.615,30,23 c0,8.596-6.287,9.845-9,9.983C21,32.986,21,33,21,33c0,2-2.657,6.065-5.5,7c2.133,0,18.1-1.263,18.1-18.105 C33.6,5.742,14.713,4.126,9.454,4z"/><path fill="#0d47a1" d="M18,14.045c7.781,0.37,11,3.045,11,8.955c0,8.123-6,9-8.58,9c-1.856,0-2.383-0.823-2.42-1V14.045 M16,12v19c0,1.105,1.205,3,4.42,3C24.438,34,31,32,31,23C31,13,22.429,12,16,12L16,12z"/></svg>