<svg xmlns="http://www.w3.org/2000/svg" viewBox="0 0 48 48" width="100px" height="100px"><path fill="#64B5F6" d="M42,37c0,2.762-2.238,5-5,5H11c-2.761,0-5-2.238-5-5V11c0-2.762,2.239-5,5-5h26c2.762,0,5,2.238,5,5V37z"/><path fill="#E3F2FD" d="M37 18H11c-.552 0-1-.448-1-1v-6c0-.552.448-1 1-1h26c.552 0 1 .448 1 1v6C38 17.552 37.552 18 37 18M37 28H11c-.552 0-1-.448-1-1v-6c0-.552.448-1 1-1h26c.552 0 1 .448 1 1v6C38 27.552 37.552 28 37 28M37 38H11c-.552 0-1-.448-1-1v-6c0-.552.448-1 1-1h26c.552 0 1 .448 1 1v6C38 37.552 37.552 38 37 38"/></svg>