<svg xmlns="http://www.w3.org/2000/svg" width="50" height="50" viewBox="0 0 48 48"><path fill="#90caf9" d="M36 5L32 9 28 5 24 9 20 5 16 9 12 5 8 9 4 5 4 36.5 36 36.5z"/><path fill="#1976d2" d="M10 14H22V16H10zM25 14H30V16H25zM10 18H16V20H10zM19 18H30V20H19zM10 22H14V24H10zM17 22H23V24H17zM26 22H30V24H26z"/><path fill="#bbdefb" d="M38.522,30h-29L9.478,43c0,0,27.579-0.004,29,0c3.038,0.009,5.51-2.894,5.522-6.483 S41.559,30.009,38.522,30z"/><path fill="#1976d2" d="M10 26H20V28H10zM22 26H30V28H22z"/><path fill="#42a5f5" d="M9.522,30C6.484,29.991,4.012,32.894,4,36.483C3.988,40.073,6.441,42.991,9.478,43 s5.51-2.894,5.522-6.483S12.559,30.009,9.522,30z"/><path fill="#1976d2" d="M9.509,33C8.33,33,7.008,34.492,7,36.493c-0.004,1.042,0.351,2.035,0.973,2.725 c0.264,0.291,0.81,0.78,1.514,0.782c0.002,0,0.003,0,0.004,0c1.178,0,2.501-1.492,2.509-3.493c0.007-2.003-1.307-3.504-2.487-3.507 C9.511,33,9.51,33,9.509,33z"/></svg>