<svg xmlns="http://www.w3.org/2000/svg" width="500" height="500" viewBox="0 0 48 48"><path fill="#1976d2" d="M31.547,24.775L20.25,24.75L20.258,27H23c2.209,0,4,1.791,4,4c0,2.209-1.791,4-4,4h-5l-9,9h8.75 c0.224,0,0.432-0.007,0.651-0.009C21.541,43.879,36,42.509,36,33C36,27.348,32.01,25.025,31.547,24.775z"/><path fill="#1565c0" d="M39,32.25c0-5-4.894-7.789-6.105-8.274c-0.429,0.297-0.884,0.556-1.348,0.798 C32.01,25.025,36,27.348,36,33c0,9.509-14.459,10.879-17.599,10.991C38.009,43.796,39,35.375,39,32.25z"/><path fill="#1e88e5" d="M20,4H9v40l9-9v-8h2c0,0,6.574,0.374,11.547-2.225c0,0,0,0,0,0c0.199-0.104,0.395-0.211,0.588-0.324 c0.259-0.149,0.514-0.304,0.759-0.474c1.534-1.062,2.796-2.497,3.5-4.417C36.775,18.521,37,17.347,37,16C37,4,26.125,4,20,4z M24,21 h-4c-1.105,0-2-0.895-2-2v-4c0-1.105,0.895-2,2-2h4c2.209,0,4,1.791,4,4C28,19.209,26.209,21,24,21z"/><path fill="#1565c0" d="M26.633,14.01C27.465,14.743,28,15.804,28,17c0,2.209-1.791,4-4,4h-4c-1.105,0-2-0.895-2-2v-4 c0,0,0.006-4.814,2.372-7.356c-2.52,0.735-4.698,2.29-6.247,5.106C10,20.25,9,44,9,44l9-6.975V27h2c8,0,15-4,15-10.45 c0-0.171-0.018-0.338-0.028-0.508c-0.032-0.015-0.063-0.023-0.097-0.042C32.362,14.515,27.46,14.075,26.633,14.01z"/><path fill="#2559aa" d="M24.5 7.1c-1.442 0-2.83.165-4.128.544C18.006 10.186 18 15 18 15c0-1.105.895-2 2-2h4c1.013 0 1.928.389 2.633 1.01.827.065 5.729.505 8.242 1.99.034.02.064.027.097.042C34.677 11.061 30.109 7.1 24.5 7.1zM23 35c-2.209 0-5 0-5 0v2c0 0 .686 0 4 0s5-2.686 5-6C27 33.209 25.209 35 23 35z"/></svg>