<svg xmlns="http://www.w3.org/2000/svg" width="50" height="50" viewBox="0 0 48 48"><path fill="#b0bec5" d="M13 24h-2c0-10.2 6.9-16 19-16v2C19 10 13 15 13 24zM30 40c-12.1 0-19-5.8-19-16h2c0 9 6 14 17 14V40z"/><path fill="#b0bec5" d="M12.6,24.8l-1.2-1.6C18.6,18.1,29.5,18,30,18v2C29.9,20,19.2,20.1,12.6,24.8z"/><path fill="#b0bec5" d="M30 30c-.5 0-11.4-.1-18.6-5.2l1.2-1.6C19.2 27.9 29.9 28 30 28V30zM30 4.9V13l4.1-4.1L30 4.9zM30 15v8.1l4.1-4.1L30 15zM30 25v8.1l4.1-4.1L30 25zM30 35v8.1l4.1-4.1L30 35z"/><path fill="#00bcd4" d="M42 9c0 2.2-1.8 4-4 4s-4-1.8-4-4 1.8-4 4-4S42 6.8 42 9zM42 19c0 2.2-1.8 4-4 4s-4-1.8-4-4 1.8-4 4-4S42 16.8 42 19zM42 29c0 2.2-1.8 4-4 4s-4-1.8-4-4 1.8-4 4-4S42 26.8 42 29zM42 39c0 2.2-1.8 4-4 4s-4-1.8-4-4 1.8-4 4-4S42 36.8 42 39z"/><path fill="#0097a7" d="M18,24c0,3.3-2.7,6-6,6s-6-2.7-6-6s2.7-6,6-6S18,20.7,18,24z"/></svg>