<svg xmlns="http://www.w3.org/2000/svg" viewBox="0 0 48 48" width="500px" height="500px"><path fill="#eceff1" d="M24,43.5C13.248,43.5,4.5,34.752,4.5,24C4.5,13.248,13.248,4.5,24,4.5S43.5,13.248,43.5,24C43.5,34.752,34.752,43.5,24,43.5z"/><path fill="#cfd8dc" d="M24,5c10.477,0,19,8.523,19,19s-8.523,19-19,19S5,34.477,5,24S13.523,5,24,5 M24,4C12.954,4,4,12.954,4,24s8.954,20,20,20s20-8.954,20-20S35.046,4,24,4L24,4z"/><path fill="#1976d2" d="M24,39.5c-8.547,0-15.5-6.953-15.5-15.5S15.453,8.5,24,8.5S39.5,15.453,39.5,24S32.547,39.5,24,39.5z"/><path fill="#1565c0" d="M24,9c8.271,0,15,6.729,15,15s-6.729,15-15,15S9,32.271,9,24S15.729,9,24,9 M24,8C15.163,8,8,15.163,8,24s7.163,16,16,16s16-7.163,16-16S32.837,8,24,8L24,8z"/><path fill="#cfd8dc" d="M24 12A12 12 0 1 0 24 36A12 12 0 1 0 24 12Z"/><path fill="#b0bec5" d="M24 18A6 6 0 1 0 24 30A6 6 0 1 0 24 18Z"/><g><path fill="#607d8b" d="M21.591 32.591L21.591 23.484 23.255 21.82 21.591 20.155 21.591 15.409 26.409 15.409 26.409 24.516 24.745 26.181 26.409 27.845 26.409 32.591z"/><path fill="#455a64" d="M25.909,15.909v8.4l-1.164,1.164l-0.707,0.707l0.707,0.707l1.164,1.164v4.039h-3.818v-8.4l1.164-1.164l0.707-0.707l-0.707-0.707l-1.164-1.164v-4.039H25.909 M26.909,14.909h-5.818v5.453l1.457,1.457l-1.457,1.457v9.814h5.818v-5.453l-1.457-1.457l1.457-1.457V14.909L26.909,14.909z"/></g></svg>