<svg xmlns="http://www.w3.org/2000/svg" width="300" height="300" viewBox="0 0 48 48"><path fill="#3f51b5" d="M43,24c0,10.492-8.508,19-19,19S5,34.492,5,24S13.508,5,24,5S43,13.508,43,24z"/><path fill="#fff" d="M16.375,31.934l1.414-12.73L29.105,30.52L16.375,31.934z"/><path fill="#fff" d="M19.91,25.57L30.52,14.965l2.828,2.828L22.738,28.398L19.91,25.57z"/><path fill="#3f51b5" d="M44,24c0,11.049-8.951,20-20,20C12.956,44,4,35.049,4,24C4,12.956,12.956,4,24,4C35.049,4,44,12.956,44,24z"/><path fill="#fff" d="M16.375,31.934l1.414-12.73L29.105,30.52L16.375,31.934z"/><path fill="#fff" d="M19.91,25.57L30.52,14.965l2.828,2.828L22.738,28.398L19.91,25.57z"/></svg>