<svg xmlns="http://www.w3.org/2000/svg" width="100" height="100" viewBox="0 0 48 48"><path fill="#eceff1" d="M24 6A18 18 0 1 0 24 42A18 18 0 1 0 24 6Z"/><path fill="#607d8b" d="M24,44C12.972,44,4,35.028,4,24S12.972,4,24,4s20,8.972,20,20S35.028,44,24,44z M24,8 C15.178,8,8,15.178,8,24s7.178,16,16,16s16-7.178,16-16S32.822,8,24,8z"/><path fill="#4caf50" d="M24 12A12 12 0 1 0 24 36A12 12 0 1 0 24 12Z"/><path fill="#eceff1" d="M23.125 30.829L16.711 24.414 19.539 21.586 23.125 25.171 33.648 14.648 36.477 17.477z"/></svg>