<svg xmlns="http://www.w3.org/2000/svg" viewBox="0 0 48 48" width="300px" height="300px"><path fill="#CFD8DC" d="M22,42V6h4v36H22z M40,42V6h-4v36H40z M12,42V6H8v36H12z"/><path fill="#FF6D00" d="M36,42V18h4v24H36z M12,42V14H8v28H12z M26,42V31h-4v11H26z"/><path fill="#BF360C" d="M34,20v-3c0-0.5,0.5-1,1-1h6c0.5,0,1,0.5,1,1v3c0,0.5-0.5,1-1,1h-6C34.5,21,34,20.5,34,20z M7,17h6c0.6,0,1-0.5,1-1v-3c0-0.6-0.4-1-1-1H7c-0.6,0-1,0.4-1,1v3C6,16.5,6.4,17,7,17z M21,34h6c0.5,0,1-0.5,1-1v-3c0-0.5-0.5-1-1-1h-6c-0.5,0-1,0.5-1,1v3C20,33.5,20.5,34,21,34z"/></svg>