<svg xmlns="http://www.w3.org/2000/svg" viewBox="0 0 48 48" width="500px" height="500px"><path fill="#00BCD4" d="M12,41c0,0,3.7-31,13-31s13,31,13,31"/><path fill="#CFD8DC" d="M8 40L8 6 6 6 6 42 42 42 42 40z"/><path fill="#607D8B" d="M40,23c0.6,0,1,0.4,1,1s-0.4,1-1,1c-0.6,0-1-0.4-1-1S39.4,23,40,23 M37,23c-0.6,0-1,0.4-1,1s0.4,1,1,1c0.6,0,1-0.4,1-1S37.6,23,37,23 M34,23c-0.6,0-1,0.4-1,1s0.4,1,1,1c0.6,0,1-0.4,1-1S34.6,23,34,23 M22,23c-0.6,0-1,0.4-1,1s0.4,1,1,1c0.6,0,1-0.4,1-1S22.6,23,22,23 M19,23c-0.6,0-1,0.4-1,1s0.4,1,1,1c0.6,0,1-0.4,1-1S19.6,23,19,23 M16,23c-0.6,0-1,0.4-1,1s0.4,1,1,1c0.6,0,1-0.4,1-1S16.6,23,16,23 M13,23c-0.6,0-1,0.4-1,1s0.4,1,1,1c0.6,0,1-0.4,1-1S13.6,23,13,23 M10,23c-0.6,0-1,0.4-1,1s0.4,1,1,1c0.6,0,1-0.4,1-1S10.6,23,10,23 M31,23c-0.6,0-1,0.4-1,1s0.4,1,1,1c0.6,0,1-0.4,1-1S31.6,23,31,23 M28,23c-0.6,0-1,0.4-1,1s0.4,1,1,1c0.6,0,1-0.4,1-1S28.6,23,28,23 M25,23c-0.6,0-1,0.4-1,1s0.4,1,1,1c0.6,0,1-0.4,1-1S25.6,23,25,23"/></svg>