<svg xmlns="http://www.w3.org/2000/svg" viewBox="0 0 48 48" width="500px" height="500px"><path fill="#3F51B5" d="M42,29H20.8c-0.5,0-1-0.2-1.4-0.6l-3.7-3.7c-0.4-0.4-0.4-1,0-1.4l3.7-3.7c0.4-0.4,0.9-0.6,1.4-0.6H42c0.6,0,1,0.4,1,1v8C43,28.6,42.6,29,42,29z"/><path fill="#CFD8DC" d="M9 6H11V42H9z"/><path fill="#90A4AE" d="M10 7A3 3 0 1 0 10 13 3 3 0 1 0 10 7zM10 21A3 3 0 1 0 10 27 3 3 0 1 0 10 21zM10 35A3 3 0 1 0 10 41 3 3 0 1 0 10 35z"/><path fill="#448AFF" d="M34,43H20.8c-0.5,0-1-0.2-1.4-0.6l-3.7-3.7c-0.4-0.4-0.4-1,0-1.4l3.7-3.7c0.4-0.4,0.9-0.6,1.4-0.6H34c0.6,0,1,0.4,1,1v8C35,42.6,34.6,43,34,43z"/><path fill="#00BCD4" d="M35,15H20.8c-0.5,0-1-0.2-1.4-0.6l-3.7-3.7c-0.4-0.4-0.4-1,0-1.4l3.7-3.7C19.8,5.2,20.3,5,20.8,5H35c0.6,0,1,0.4,1,1v8C36,14.6,35.6,15,35,15z"/></svg>