<svg xmlns="http://www.w3.org/2000/svg" viewBox="0 0 48 48" width="100px" height="100px"><path fill="#7CB342" d="M5,23.594c0-2.207,1.792-3.998,4-3.998c2.21,0,4,1.791,4,3.998c0,2.211-1.79,4.002-4,4.002C6.792,27.596,5,25.805,5,23.594z"/><path fill="#9CCC65" d="M24.596 36A3 3 0 1 0 24.596 42A3 3 0 1 0 24.596 36Z"/><path fill="#AED581" d="M32.502,34.518c0-1.659,1.344-3.002,3-3.002s3,1.343,3,3.002c0,1.654-1.344,2.998-3,2.998S32.502,36.172,32.502,34.518z"/><path fill="#CFD8DC" d="M37 23.594c0-1.654 1.344-2.998 3.002-2.998 1.655 0 2.998 1.344 2.998 2.998 0 1.66-1.343 3.002-2.998 3.002C38.344 26.596 37 25.254 37 23.594zM23.107 8c0-1.102.896-2 2-2 1.105 0 2 .898 2 2 0 1.105-.895 2-2 2C24.003 10 23.107 9.105 23.107 8zM12.191 12.678c0-.828.67-1.502 1.5-1.502.824 0 1.5.674 1.5 1.502s-.676 1.498-1.5 1.498C12.861 14.176 12.191 13.506 12.191 12.678zM35.502 10.177A2.5 2.5 0 1 0 35.502 15.177 2.5 2.5 0 1 0 35.502 10.177z"/><path fill="#8BC34A" d="M10.191,34.518c0-1.934,1.565-3.502,3.5-3.502c1.932,0,3.5,1.568,3.5,3.502c0,1.93-1.568,3.498-3.5,3.498C11.757,38.016,10.191,36.447,10.191,34.518z"/></svg>