<svg xmlns="http://www.w3.org/2000/svg" viewBox="0 0 48 48" width="500px" height="500px"><path fill="#1e88e5" d="M43,42H19c-1.657,0-3-1.343-3-3V21c0-1.657,1.343-3,3-3h24c1.657,0,3,1.343,3,3v18	C46,40.657,44.657,42,43,42z"/><path fill="#bbdefb" d="M43,40H19c-0.552,0-1-0.448-1-1V21c0-0.552,0.448-1,1-1h24c0.552,0,1,0.448,1,1v18	C44,39.552,43.552,40,43,40z"/><path fill="#3f51b5" d="M29,25l7,7l-3.233,0.527l1.594,3.622l-1.304,0.58l-1.594-3.622L29,35V25z"/><rect width="5" height="2" x="20" y="6" fill="#3f51b5"/><rect width="5" height="2" x="11" y="6" fill="#3f51b5"/><rect width="5" height="2" x="11" y="28" fill="#3f51b5"/><rect width="2" height="5" x="3" y="15" fill="#3f51b5"/><rect width="2" height="3" x="31" y="15" fill="#3f51b5"/><polygon fill="#3f51b5" points="5,6 7,6 7,8 5,8 5,11 3,11 3,8 3,6"/><polygon fill="#3f51b5" points="3,28 3,25 5,25 5,28 7,28 7,30 5,30 3,30"/><polygon fill="#3f51b5" points="33,8 33,11 31,11 31,8 29,8 29,6 31,6 33,6"/></svg>