<svg xmlns="http://www.w3.org/2000/svg" viewBox="0 0 48 48" width="50px" height="50px"><path fill="#455a64" d="M25 4.007c0 0 4.598 7.339 4.008 10.019 0 0 7.653 2.523 8.606 6.974C37.614 21 41.441 14.317 25 4.007L25 4.007zM22.586 14c.816 1.723.916 4.096 1.414 6l-5-2.529C19.453 14.615 17 10 17 10L22.586 14zM13.549 18c.544 1.36 1.133 3.504 1.451 5l-4-2c-.438-3-3-6-3-6L13.549 18z"/><path fill="#455a64" d="M23,11c0,0,19.531,14.313,20.801,19.481c0.952,3.898-1.813,7.525-1.813,7.525S41.335,34.89,34,35 c-5.463,0.082-14.633,2.024-30,8c3.672-4.125,5.544-9.334,5-15c-0.227-2.312-1.003-5.005-2-7l9,5c0,0-0.045,0.864,0,1 c0,4,0.058,6.518-0.758,9.646c1.768-3.717,2.584-7.888,2.176-12.239C17.191,21.777,16.043,19.312,15,17l10,6.093 c0.045,0.317,0.045,0.589,0.091,0.907c0,4-0.374,7.523-1.372,10.923C25.85,30.934,27.453,25.805,27,21 C26.683,17.509,24.632,13.856,23,11L23,11z"/></svg>