<svg xmlns="http://www.w3.org/2000/svg" viewBox="0 0 48 48" width="100px" height="100px"><path fill="#0f0" d="M35,6H13c-3.866,0-7,3.134-7,7v22c0,3.866,3.134,7,7,7h22c3.866,0,7-3.134,7-7V13	C42,9.134,38.866,6,35,6z M29,28.49c0,1.939-1.572,3.51-3.51,3.51H14.51C12.572,32,11,30.428,11,28.49v-8.98	c0-1.939,1.572-3.51,3.51-3.51h10.98c1.939,0,3.51,1.572,3.51,3.51V28.49z M37,29.91c0,1.123-1.328,1.718-2.166,0.97l-3.5-3.123	C31.122,27.567,31,27.296,31,27.011v-6.021c0-0.285,0.122-0.556,0.334-0.746l3.5-3.123C35.672,16.372,37,16.967,37,18.09V29.91z"/></svg>