<svg xmlns="http://www.w3.org/2000/svg" viewBox="0 0 48 48" width="300px" height="300px"><path fill="#d1c4e9" d="M38 7H10C8.9 7 8 7.9 8 9v6c0 1.1.9 2 2 2h28c1.1 0 2-.9 2-2V9C40 7.9 39.1 7 38 7zM38 19H10c-1.1 0-2 .9-2 2v6c0 1.1.9 2 2 2h28c1.1 0 2-.9 2-2v-6C40 19.9 39.1 19 38 19zM40 33v6c0 1.1-.9 2-2 2H10c-1.1 0-2-.9-2-2v-6c0-1.1.9-2 2-2h28C39.1 31 40 31.9 40 33z"/><path fill="#ede7f6" d="M38,31h-3v5h-5v2.7l1.84,2.3H38c1.1,0,2-0.9,2-2v-6C40,31.9,39.1,31,38,31z"/><path fill="#455a64" d="M48,38H32l8,10L48,38z"/><path fill="#455a64" d="M37 31H43V43H37z"/></svg>