<svg xmlns="http://www.w3.org/2000/svg" viewBox="0 0 48 48" width="100px" height="100px"><path fill="#cfd8dc" d="M48,24c0,6.1-5,11-11.1,11H11.1C5,35,0,30.1,0,24c0-6.1,5-11,11.1-11h25.8C43,13,48,17.9,48,24z"/><path fill="#b0bec5" d="M19,26c0,3.9-3.1,7-7,7s-7-3.1-7-7s3.1-7,7-7S19,22.1,19,26z"/><path fill="#fff" d="M19,24c0,3.9-3.1,7-7,7s-7-3.1-7-7s3.1-7,7-7S19,20.1,19,24z"/><path fill="#eceff1" d="M7.1,19.1c2.7-2.7,7.2-2.7,9.9,0l-9.9,9.9C4.3,26.2,4.3,21.8,7.1,19.1z"/><path fill="#455a64" d="M30,29c-0.6,0-1-0.4-1-1v-6h-2v6c0,0.6-0.4,1-1,1s-1-0.4-1-1v-7c0-0.6,0.4-1,1-1h4c0.6,0,1,0.4,1,1 v7C31,28.6,30.6,29,30,29z"/><path fill="#455a64" d="M25 24h6v2h-6V24zM34 29c-.6 0-1-.4-1-1v-7c0-.6.4-1 1-1h4c.6 0 1 .4 1 1v4c0 .6-.4 1-1 1h-3v2C35 28.6 34.6 29 34 29zM35 24h2v-2h-2V24z"/><path fill="#455a64" d="M38,29c-0.3,0-0.6-0.2-0.8-0.4l-2-3c-0.3-0.5-0.2-1.1,0.3-1.4c0.5-0.3,1.1-0.2,1.4,0.3l2,3 c0.3,0.5,0.2,1.1-0.3,1.4C38.4,28.9,38.2,29,38,29z"/></svg>