<svg xmlns="http://www.w3.org/2000/svg" viewBox="0 0 48 48" width="500px" height="500px"><path fill="#3498db" d="M42 42L6 42 6 6 37 6 42 11z"/><path fill="#fff" d="M39,39c0,0.553-0.447,1-1,1H10c-0.553,0-1-0.447-1-1V25c0-0.553,0.447-1,1-1h28c0.553,0,1,0.447,1,1 V39z"/><path fill="#cfd8dc" d="M13 31H35V33H13zM13 27H35V29H13zM13 35H35V37H13z"/><path fill="#2980b9" d="M9,6v10c0,1.104,0.896,2,2,2h15c1.104,0,2-0.896,2-2V6H9z"/><path fill="#b0bec5" d="M15,6v10c0,1.104,0.896,2,2,2h15c1.104,0,2-0.896,2-2V6H15z"/><path fill="#263238" d="M26 8H30V16H26z"/><path fill="#43a047" d="M48,38c0,5.523-4.478,10-10,10c-5.523,0-10-4.477-10-10s4.477-10,10-10C43.522,28,48,32.477,48,38"/><path fill="#dcedc8" d="M42.492 33.35L36.802 39.051 34.074 36.33 31.951 38.457 36.806 43.301 44.619 35.473z"/></svg>