<svg xmlns="http://www.w3.org/2000/svg" viewBox="0 0 48 48" width="500px" height="500px"><path fill="#90caf9" d="M29 44L13 44 13 12 15 12 15 42 29 42z"/><path fill="#90caf9" d="M14 31H29V33H14zM14 20H29V22H14z"/><path fill="#8beaf2" d="M25 17h8v8h-8V17zM25 28h8v8h-8V28zM33 39l-8 8v-8H33zM9 3h10v10H9V3z"/><path fill="#e57373" d="M45.7,29.1l-2.8-2.8c-0.4-0.4-1.1-0.4-1.6,0L40,27.7l4.4,4.4l1.3-1.3C46.1,30.3,46.1,29.6,45.7,29.1"/><path fill="#ff9800" d="M25.5,42.2l12.3-12.3l4.4,4.4L29.8,46.5L25.5,42.2z"/><path fill="#b0bec5" d="M37.8,29.8l2.2-2.2l4.4,4.4l-2.2,2.2L37.8,29.8z"/><path fill="#ffc107" d="M25.5,42.2L24,48l5.8-1.5L25.5,42.2z"/><path fill="#37474f" d="M24.7,45L24,48l3-0.7L24.7,45z"/></svg>