<svg xmlns="http://www.w3.org/2000/svg" width="300" height="300" viewBox="0 0 48 48"><path fill="#2196F3" d="M16 15c0 1.104-.896 2-2 2H8c-1.104 0-2-.896-2-2v-4c0-1.104.896-2 2-2h6c1.104 0 2 .896 2 2V15zM29 15c0 1.104-.896 2-2 2h-6c-1.104 0-2-.896-2-2v-4c0-1.104.896-2 2-2h6c1.104 0 2 .896 2 2V15zM42 15c0 1.104-.896 2-2 2h-6c-1.104 0-2-.896-2-2v-4c0-1.104.896-2 2-2h6c1.104 0 2 .896 2 2V15zM16 26c0 1.104-.896 2-2 2H8c-1.104 0-2-.896-2-2v-4c0-1.104.896-2 2-2h6c1.104 0 2 .896 2 2V26zM29 26c0 1.104-.896 2-2 2h-6c-1.104 0-2-.896-2-2v-4c0-1.104.896-2 2-2h6c1.104 0 2 .896 2 2V26zM42 26c0 1.104-.896 2-2 2h-6c-1.104 0-2-.896-2-2v-4c0-1.104.896-2 2-2h6c1.104 0 2 .896 2 2V26zM16 37c0 1.104-.896 2-2 2H8c-1.104 0-2-.896-2-2v-4c0-1.104.896-2 2-2h6c1.104 0 2 .896 2 2V37zM29 37c0 1.104-.896 2-2 2h-6c-1.104 0-2-.896-2-2v-4c0-1.104.896-2 2-2h6c1.104 0 2 .896 2 2V37zM42 37c0 1.104-.896 2-2 2h-6c-1.104 0-2-.896-2-2v-4c0-1.104.896-2 2-2h6c1.104 0 2 .896 2 2V37z"/></svg>