<svg xmlns="http://www.w3.org/2000/svg" viewBox="0 0 48 48" width="500px" height="500px"><path fill="#CFD8DC" d="M9 39L9 6 7 6 7 41 42 41 42 39z"/><path fill="#00BCD4" d="M39 8A3 3 0 1 0 39 14 3 3 0 1 0 39 8zM31 10A3 3 0 1 0 31 16 3 3 0 1 0 31 10zM37 16A3 3 0 1 0 37 22 3 3 0 1 0 37 16zM34 23A3 3 0 1 0 34 29 3 3 0 1 0 34 23zM28 17A3 3 0 1 0 28 23 3 3 0 1 0 28 17zM26 25A3 3 0 1 0 26 31 3 3 0 1 0 26 25zM20 20A3 3 0 1 0 20 26 3 3 0 1 0 20 20zM21 30A3 3 0 1 0 21 36 3 3 0 1 0 21 30zM14 27A3 3 0 1 0 14 33 3 3 0 1 0 14 27z"/></svg>