<svg xmlns="http://www.w3.org/2000/svg" viewBox="0 0 48 48" width="300px" height="300px"><path fill="#c5cae9" d="M42,14H29v-4c0-2.209,1.791-4,4-4h5c2.209,0,4,1.791,4,4V14z"/><path fill="#bbdefb" d="M6,17v25h32c2.209,0,4-1.791,4-4V17H6z"/><path fill="#f44336" d="M48,38c0,5.523-4.477,10-10,10s-10-4.477-10-10s4.477-10,10-10S48,32.477,48,38"/><path fill="#fff" d="M43.305,41.184l-2.121,2.121l-8.488-8.488l2.121-2.121L43.305,41.184z"/><path fill="#fff" d="M34.816,43.305l-2.121-2.121l8.488-8.488l2.121,2.125L34.816,43.305z"/><path fill="#7986cb" d="M31,14H17v-4c0-2.209,1.791-4,4-4h6c2.209,0,4,1.791,4,4V14z"/><path fill="#3f51b5" d="M19,14v-4c0-2.209-1.791-4-4-4h-5c-2.209,0-4,1.791-4,4v8h36v-4H19z"/></svg>