<svg xmlns="http://www.w3.org/2000/svg" viewBox="0 0 48 48" width="300px" height="300px"><path fill="#2196f3" d="M7 6v10h10L7 6zM33.59 36.786l2.392 3.188c-1.427 1.077-3.006 1.953-4.692 2.623l-1.454-3.712C31.188 38.355 32.446 37.645 33.59 36.786zM38.89 29.826l3.72 1.456c-.691 1.756-1.628 3.388-2.763 4.864l-3.16-2.424C37.593 32.541 38.338 31.234 38.89 29.826zM24 40c.646 0 1.279-.049 1.904-.124l.476 3.967C25.599 43.934 24.81 44 24 44c-.424 0-.843-.037-1.258-.066l.25-3.985C23.327 39.97 23.66 40 24 40z"/><path fill="#2196f3" d="M40 24c0-8.837-7.163-16-16-16-5.386 0-10.14 2.67-13.04 6.75l-3.259-2.3C11.327 7.347 17.273 4 24 4c11.028 0 20 8.972 20 20 0 .559-.037 1.114-.082 1.657l-3.985-.328C39.969 24.89 40 24.449 40 24zM19.166 39.253l-1.206 3.81c-1.016-.321-1.994-.724-2.932-1.192l1.801-3.582C17.578 38.665 18.355 38.996 19.166 39.253zM9.781 31.315l-3.557 1.817c-.493-.954-.913-1.957-1.246-2.993l3.798-1.226C9.045 29.747 9.385 30.547 9.781 31.315zM4.07 22.688l3.983.258C8.03 23.296 8 23.644 8 24c0 .454.031.901.068 1.346l-3.99.344C4.033 25.131 4 24.567 4 24 4 23.556 4.037 23.124 4.07 22.688zM13.588 36.133L10.99 39.16c-.81-.691-1.563-1.447-2.249-2.257l3.055-2.569C12.344 34.981 12.945 35.581 13.588 36.133z"/></svg>