<svg xmlns="http://www.w3.org/2000/svg" width="500" height="500" viewBox="0 0 48 48"><path fill="#9C27B0" d="M18.5 16A13.5 13.5 0 1 0 18.5 43A13.5 13.5 0 1 0 18.5 16Z"/><path fill="#E1BEE7" d="M29.5,5c-6.661,0-12.197,4.854-13.291,11.208C16.956,16.081,17.718,16,18.5,16c0.615,0,1.216,0.056,1.81,0.135C21.365,12.04,25.079,9,29.5,9c5.238,0,9.5,4.262,9.5,9.5c0,4.421-3.039,8.135-7.135,9.19C31.944,28.283,32,28.885,32,29.5c0,0.782-0.081,1.545-0.209,2.29C38.146,30.697,43,25.162,43,18.5C43,11.056,36.944,5,29.5,5z"/><path fill="#E1BEE7" d="M26 13L35 22 35 13zM24 33L15 24 15 33z"/><path fill="#E1BEE7" d="M23.914 12.894H27.914V31.279000000000003H23.914z" transform="rotate(-134.999 25.914 22.086)"/></svg>