<svg xmlns="http://www.w3.org/2000/svg" viewBox="0 0 48 48" width="50px" height="50px"><path fill="#90a4ae" d="M23,15h19v2H23V15z M23,22h19v-2H23V22z M20,27h22v-2H20V27z M20,32h22v-2H20V32z"/><path fill="#ffa726" d="M26,20.5c0,0.828-0.672,1.5-1.5,1.5c-0.828,0-1.5-0.672-1.5-1.5c0-0.828,0.672-1.5,1.5-1.5C25.328,19,26,19.672,26,20.5 M13,20.5c0-0.828-0.672-1.5-1.5-1.5c-0.828,0-1.5,0.672-1.5,1.5c0,0.828,0.672,1.5,1.5,1.5C12.328,22,13,21.328,13,20.5"/><path fill="#ff9800" d="M22,29c0,0,0,4-4,4s-4-4-4-4"/><path fill="#4fc3f7" d="M21.75,29L21.75,29L18,29.77L14.25,29c0,0-8.25,1.527-8.25,10h24C30,30.559,21.75,29,21.75,29"/><path fill="#ff9800" d="M18,33c-4,0-4-4-4-4v-4h8v4C22,29,22,33,18,33z"/><path fill="#ffb74d" d="M25,16.68c0-5.879-14-3.828-14,0v4.391c0,3.824,3.133,6.93,7,6.93c3.866,0,7-3.105,7-6.93V16.68z"/><path fill="#01579b" d="M18,35c3.059,0,5.578-2.291,5.948-5.25c-0.884-0.398-1.603-0.607-1.954-0.693C21.963,31.238,20.189,33,18,33c-2.19,0-3.964-1.762-3.994-3.945c-0.352,0.086-1.071,0.293-1.955,0.688C12.418,32.705,14.938,35,18,35z"/><path fill="#424242" d="M18,9c-4.86,0-8,4.313-8,8.172V19l2,2v-4l9.2-3l2.8,3v4l2-2v-0.809c0-3.219-0.83-6.803-4.8-7.592L20.4,9H18z"/><path fill="#784719" d="M20,20c0-0.551,0.448-1,1-1c0.552,0,1,0.449,1,1c0,0.551-0.448,1-1,1C20.448,21,20,20.551,20,20 M14,20c0,0.551,0.448,1,1,1c0.552,0,1-0.449,1-1c0-0.551-0.448-1-1-1C14.448,19,14,19.449,14,20"/></svg>