<svg xmlns="http://www.w3.org/2000/svg" viewBox="0 0 48 48" width="50px" height="50px"><polygon fill="#2196f3" points="42,21 34,17 45,13"/><path fill="#2196f3" d="M24,4v0.021c-3.081,0.001-6.201,0.71-9.109,2.202l2,3.464c2.274-1.13,4.705-1.66,7.109-1.654V8	c6.31,0,11.764,3.68,14.364,9h4.318C39.844,9.416,32.575,4,24,4z"/><polygon fill="#2196f3" points="12.402,9.912 12.938,18.84 3.974,11.313"/><path fill="#2196f3" d="M6.679,34l0.019-0.011c1.542,2.668,3.715,5.015,6.461,6.788l2-3.464	c-2.116-1.404-3.79-3.245-4.987-5.329L10.144,32c-3.155-5.465-2.695-12.027,0.612-16.94l-2.159-3.74	C3.448,17.571,2.392,26.574,6.679,34z"/><polygon fill="#2196f3" points="17.598,41.088 25.062,36.16 23.026,47.687"/><path fill="#2196f3" d="M41.321,34l-0.019-0.011c1.54-2.669,2.486-5.725,2.648-8.989h-4	c-0.158,2.534-0.915,4.904-2.122,6.983L37.856,32c-3.155,5.465-9.068,8.348-14.976,7.94l-2.159,3.74	C28.708,45.013,37.033,41.426,41.321,34z"/></svg>