<svg xmlns="http://www.w3.org/2000/svg" viewBox="0 0 48 48" width="500px" height="500px"><path fill="#616161" d="M34.6 28.1H38.6V45.1H34.6z" transform="rotate(-45.001 36.604 36.566)"/><path fill="#616161" d="M20 4A16 16 0 1 0 20 36A16 16 0 1 0 20 4Z"/><path fill="#36474f" d="M36.2 32.1H40.2V44.400000000000006H36.2z" transform="rotate(-45.001 38.217 38.256)"/><path fill="#5fb3f9" d="M20 7A13 13 0 1 0 20 33A13 13 0 1 0 20 7Z"/><path fill="#f5f5f5" d="M19 11.5H21V28.5H19z" transform="rotate(-45.001 20 20)"/><path fill="#f5f5f5" d="M11.5 19H28.5V21H11.5z" transform="rotate(-45.001 20 20)"/></svg>