<svg xmlns="http://www.w3.org/2000/svg" viewBox="0 0 48 48" width="500px" height="500px"><path fill="#fbc02d" d="M23.9,44C12.9,44,4,35,4,24S12.9,4,23.9,4c8.2,0,15.7,5.2,18.6,12.9l-3.7,1.4 C36.5,12.2,30.5,8,23.9,8C15.1,8,8,15.2,8,24s7.1,16,15.9,16c6.5,0,12.3-3.9,14.8-10l3.7,1.5C39.3,39.1,32.1,44,23.9,44z"/><path fill="#fbc02d" d="M45,11l-3,10l-9-3.7L45,11z"/><path fill="#43a047" d="M48,38c0,5.523-4.478,10-10,10c-5.523,0-10-4.477-10-10s4.477-10,10-10C43.522,28,48,32.477,48,38"/><path fill="#dcedc8" d="M42.492 33.35L36.802 39.051 34.074 36.33 31.951 38.457 36.806 43.301 44.619 35.473z"/></svg>