<svg xmlns="http://www.w3.org/2000/svg" width="100" height="100" viewBox="0 0 48 48"><path fill="#7CB342" d="M13.5 10.002c1.93 0 3.5 1.57 3.5 3.5s-1.57 3.5-3.5 3.5-3.5-1.57-3.5-3.5S11.57 10.002 13.5 10.002M13.5 6.002c-4.143 0-7.5 3.357-7.5 7.5 0 4.142 3.357 7.5 7.5 7.5s7.5-3.358 7.5-7.5C21 9.359 17.643 6.002 13.5 6.002L13.5 6.002zM13.5 27A7.5 7.5 0 1 0 13.5 42 7.5 7.5 0 1 0 13.5 27z"/><path fill="#BBDEFB" d="M34.5 6A7.5 7.5 0 1 0 34.5 21A7.5 7.5 0 1 0 34.5 6Z"/><path fill="#2196F3" d="M34.5 27A7.5 7.5 0 1 0 34.5 42 7.5 7.5 0 1 0 34.5 27zM29.957 7.543c-.533.406-1.008.881-1.414 1.414l10.5 10.5c.533-.406 1.008-.881 1.414-1.414L29.957 7.543zM35.51 20.924c.771-.104 1.504-.324 2.184-.645l-9.973-9.973c-.32.679-.541 1.412-.645 2.184L35.51 20.924zM27.104 14.689c.51 3.186 3.021 5.698 6.207 6.207L27.104 14.689zM33.49 6.076C32.719 6.18 31.984 6.4 31.307 6.721l9.973 9.973c.32-.68.541-1.412.646-2.184L33.49 6.076zM41.896 12.311c-.51-3.188-3.021-5.698-6.207-6.207L41.896 12.311z"/><g><path fill="#E3F2FD" d="M30.258 33A1.5 1.5 0 1 0 30.258 36 1.5 1.5 0 1 0 30.258 33zM34.5 37.242A1.5 1.5 0 1 0 34.5 40.242 1.5 1.5 0 1 0 34.5 37.242zM34.5 28.757A1.5 1.5 0 1 0 34.5 31.757 1.5 1.5 0 1 0 34.5 28.757zM38.742 33A1.5 1.5 0 1 0 38.742 36 1.5 1.5 0 1 0 38.742 33z"/></g></svg>