<svg xmlns="http://www.w3.org/2000/svg" viewBox="0 0 48 48" width="300px" height="300px"><path fill="#2196f3" d="M7 37h9v-9L7 37zM38 6h-9v9L38 6zM25.3 8.3C24.2 8 23 8 21.8 8l-.2-4c1.5-.1 3 0 4.5.3L25.3 8.3zM16.4 9.5l-1.8-3.6c1.3-.7 2.8-1.2 4.2-1.5l.8 3.9C18.5 8.5 17.4 8.9 16.4 9.5z"/><path fill="#2196f3" d="M12.3 35.7C7.7 32.4 5 27.1 5 21.5c0-5.2 2.3-10 6.2-13.4l2.6 3.1C10.8 13.7 9 17.5 9 21.5c0 4.3 2.1 8.4 5.6 11L12.3 35.7zM22.5 39c-1.2 0-2.4-.1-3.5-.4l.8-3.9c.9.2 1.9.3 2.8.3.2 0 .5 0 .7 0l.2 4C23.1 39 22.8 39 22.5 39zM26.2 38.6l-.8-3.9c1.1-.2 2.2-.6 3.3-1.2l1.8 3.6C29.1 37.8 27.7 38.3 26.2 38.6zM33.8 34.9l-2.6-3.1c3-2.6 4.8-6.3 4.8-10.3 0-4.3-2.1-8.4-5.6-10.9l2.3-3.2c4.6 3.3 7.3 8.6 7.3 14.2C40 26.6 37.7 31.5 33.8 34.9z"/><path fill="#2196f3" d="M35 28.9H39V43H35z" transform="rotate(-45.001 37 36.005)"/></svg>