<svg xmlns="http://www.w3.org/2000/svg" viewBox="0 0 48 48" width="50px" height="50px"><path fill="#7CB342" d="M38.723,10.853c1.561,1.561,1.56,4.094-0.002,5.655c-1.563,1.563-4.095,1.563-5.655,0.002c-1.563-1.564-1.564-4.096-0.001-5.658C34.625,9.289,37.159,9.289,38.723,10.853z"/><path fill="#9CCC65" d="M13.972 10.814A3 3 0 1 0 13.972 16.814A3 3 0 1 0 13.972 10.814Z"/><path fill="#AED581" d="M9.43 21.696A3 3 0 1 0 9.43 27.696A3 3 0 1 0 9.43 21.696Z"/><path fill="#CFD8DC" d="M16.095 33.479c1.17 1.17 1.17 3.07-.003 4.243-1.17 1.17-3.07 1.17-4.24 0-1.174-1.174-1.173-3.072-.002-4.243C13.021 32.307 14.921 32.306 16.095 33.479zM36.944 34.683c.779.778.781 2.048 0 2.829s-2.049.778-2.828 0c-.781-.782-.781-2.047 0-2.829C34.897 33.902 36.163 33.9 36.944 34.683zM41.355 23.656c.586.586.589 1.535.002 2.123-.583.582-1.537.584-2.123-.002s-.581-1.537.002-2.119C39.823 23.07 40.771 23.07 41.355 23.656zM24.874 37.64A2.5 2.5 0 1 0 24.874 42.64 2.5 2.5 0 1 0 24.874 37.64z"/><path fill="#8BC34A" d="M27.327,6.799c1.368,1.369,1.369,3.583,0.001,4.951c-1.365,1.365-3.583,1.367-4.951-0.002c-1.364-1.363-1.364-3.582,0.002-4.947C23.746,5.432,25.963,5.435,27.327,6.799z"/></svg>