<svg xmlns="http://www.w3.org/2000/svg" width="300" height="300" viewBox="0 0 48 48"><path fill="#fff8e1" d="M6,31l24,8c0,0,5-5.7,5-12s-1-8-1-8l-24-5c0,0-5,4.6-5,10S6,31,6,31z"/><path fill="#ead8a9" d="M16.6 30.2L6.5 16.7 8.1 15.5 17.4 27.8 35.7 21.1 36.3 22.9z"/><path fill="#ead8a9" d="M4.3 25.5H13.7V27.5H4.3z" transform="rotate(-32 9 26.5)"/><path fill="#ead8a9" d="M27.5 25.1H29.5V39H27.5z" transform="rotate(-30.254 28.502 32.003)"/><path fill="#ead8a9" d="M8,20c0,4,1,5,1,5s-1.7-0.3-2.9-2.2C6.3,24.7,6.8,27.7,8,30c-0.6-0.2-1.3-0.7-2-1.3 c0.3,1.3,0.8,2.4,1,2.8l5.1,1.6l-1.6-2.6l-0.7-1.4c-0.3-0.6-0.6-1.3-0.8-2.1l2.1-2l2-1c-0.1-0.2-3-1.5-3-4c0-0.6,1.2-0.7,1.6-1.1 l-0.9-4.8C9.6,15.4,8,17.5,8,20z"/><path fill="#1565c0" d="M34,27c-0.1,3.6-3.4,14.7-11,17c4.5,0,7.8-2.4,9-3c-1,1.6-4,4-4,4s12.5-3.2,15.1-13.4 c0.8-2.9,0.9-6.9,0.9-8.6C44,20.4,34,25.2,34,27z"/><path fill="#1e88e5" d="M34,27c0,0-1,4.4,0,6c1.2-0.5,2.3-1.6,3-3c0,1.3-0.4,3.4-2,5c2-0.1,3.8-1.4,5-3 c-0.7,1.5-2.1,4.6-4,6c1.4,0,5.9-1.8,7-6s1-6,1-6v-3H34V27z"/><path fill="#42a5f5" d="M38,20c0,0-1,6.1-1,11c1.5-0.6,3-3.3,3-4c0.2,1,0.5,3.2,1,4c1.7-1.8,2.9-3.5,3-8c0.1-4.6-2.8-9-3-9 S38,20,38,20z"/><path fill="#1976d2" d="M4,25c0,0.2-0.3,11.2,10,15c-2-3.2-2-6-2-6s1.5,2,5,3c-1.4-1.5-2-3-2-3l-8-2.5c0,0-1.6-3.1-1.5-6.5 H4z"/><path fill="#0d47a1" d="M14,40c-2-3.2-2-6-2-6s1.5,2,5,3c-1.4-1.5-2-3-2-3l-8-2.5C7,31.5,8.6,35.4,14,40z"/><path fill="#1e88e5" d="M8,30c-1.9-3.7-2-9-2-9s0.1-3.8,0-4c0,0-0.1-0.2-0.2-0.3C4.7,19.2,4,22,4,25C4,27.3,6.6,29.5,8,30z"/><path fill="#1e88e5" d="M5,18.7C5.3,24.5,9,25,9,25s-1-1-1-5s4-7,4-7l12-8c0,0-5.2,0-9,2.2C10.3,9.5,6.7,13.7,5,18.7z"/><path fill="#64b5f6" d="M12,22c0,0,0.4-2.7,2-3s4.7-3,6-3c0,0,2.5,0.9,4,1s5,0,5,0l-6-7l1-5c0,0-8-0.3-12,5 c-1.6,1.8-2,3.6-1.9,5c0.1,1.8,0.9,3,0.9,3S10.6,21.1,12,22z"/><path fill="#546e7a" d="M12,22c0,0,0.4-2.7,2-3c0-1.6-1-2-1-2c-0.3,1.3-2,1-2,1S10.6,21.1,12,22z"/><path fill="#1e88e5" d="M30.3,18.4C30.1,18.1,30,18,30,18s-3-4.5-8-6c0,0,3.8,2.3,4.8,4.6c-1,0.3-1.3,0.4-2.8,0.4L30.3,18.4 z"/><path fill="#64b5f6" d="M41,14c-4-5.1-8.8-9-17-9c-3.8,0-5,1-5,1s-2,4.5,3,6s8,6,8,6s2,2.2,2,5s-2,6-2,6s4.2-0.1,5-5 c0-0.3,0.1-0.5,0.1-0.8c0.5,1.3,0.4,3.7-0.1,4.8c1.4-1,3-2.5,3-7c0.9,1.8,1.1,3.9,1,5c1.5-1.2,2-2.5,2-7c0.4,0.6,0.8,1.8,1,3 C42.3,21.9,43.6,17.1,41,14z"/><path fill="#64b5f6" d="M12,13c0.1-0.3-2.3-6.9,7-10c0,0-3.3,2.8-4,5c0.7-1.6,2.1-2.8,5-4c-1.1,1.6-1,3-1,3"/><path fill="#1e88e5" d="M14,17c0,0-1-0.9-1-2s0.7-1.7,1-2s2.4-1.6,6-3c-1.4,2-1.9,4.9-3,6C15.7,17.3,14,17,14,17z"/><path fill="#ffd600" d="M16.2,15.7c-0.5,0.7-1.2,1.2-1.7,0.9c-0.5-0.2-0.6-1-0.1-1.7c0.5-0.7,1.2-1.1,1.7-0.9 C16.6,14.2,16.6,15,16.2,15.7z"/><path fill="#263238" d="M16,15.5c0,0.3-0.2,0.5-0.5,0.5S15,15.8,15,15.5s0.2-0.5,0.5-0.5S16,15.2,16,15.5z"/></svg>