<svg xmlns="http://www.w3.org/2000/svg" viewBox="0 0 48 48" width="50px" height="50px"><path fill="#ffb74d" d="M43,13H5c0-2.7,2.3-5,5-5h28C40.7,8,43,10.3,43,13z"/><path fill="#aa290b" d="M19,30h10v7H19V30z"/><path fill="#fb8c00" d="M6,40h11c1.1,0,2.2-0.6,2.6-1.7l2.2-5.9C22.1,31.6,23,31,24,31s1.9,0.6,2.2,1.4l2.2,5.9 c0.4,1,1.5,1.7,2.6,1.7h11c2.2,0,4-1.8,4-4V16c0-2.2-1.8-4-4-4H6c-2.2,0-4,1.8-4,4v20C2,38.2,3.8,40,6,40z"/><path fill="#bf360c" d="M40 26c0 2.8-2.2 5-5 5s-5-2.2-5-5 2.2-5 5-5S40 23.2 40 26zM18 26c0 2.8-2.2 5-5 5s-5-2.2-5-5 2.2-5 5-5S18 23.2 18 26z"/><path fill="#ff8a65" d="M14.4 25.6c-.3 0-.5-.1-.7-.3-.4-.4-1-.4-1.4 0-.4.4-1 .4-1.4 0s-.4-1 0-1.4c1.2-1.2 3.1-1.2 4.2 0 .4.4.4 1 0 1.4C14.9 25.5 14.7 25.6 14.4 25.6zM36.4 25.6c-.3 0-.5-.1-.7-.3-.4-.4-1-.4-1.4 0s-1 .4-1.4 0-.4-1 0-1.4c1.2-1.2 3.1-1.2 4.2 0 .4.4.4 1 0 1.4C36.9 25.5 36.7 25.6 36.4 25.6z"/></svg>