<svg xmlns="http://www.w3.org/2000/svg" viewBox="0 0 48 48" width="300px" height="300px"><path fill="#ffc400" d="M11,35h26c6,0,11-4.898,11-11c0-6-4.898-11-11-11H11C5,13,0,17.898,0,24S4.898,35,11,35z"/><path fill="#c5cae9" d="M36,24c0,6.629-5.371,12-12,12s-12-5.371-12-12s5.371-12,12-12S36,17.371,36,24z"/><path fill="#9fa8da" d="M24,34c5.5,0,10-4.5,10-10c0-1.199-0.199-2.301-0.602-3.301L24,24l-4.5,8.898 C20.898,33.602,22.398,34,24,34z M24,14c-5.5,0-10,4.5-10,10c0,1.199,0.199,2.301,0.602,3.301L24,24l4.5-8.898 C27.102,14.398,25.602,14,24,14z"/></svg>