<svg xmlns="http://www.w3.org/2000/svg" viewBox="0 0 48 48" width="300px" height="300px"><path fill="#3F51B5" d="M22 28H26V40H22z"/><path fill="#3F51B5" d="M31 36L17 36 24 43z"/><path fill="#90CAF9" d="M40,24v3L8,27.002V24H4v3c0,2.206,1.794,4,4,4h32c2.206,0,4-1.794,4-4v-3H40z"/><path fill="#E57373" d="M32.682,9.103l-2.785-2.785c-0.424-0.424-1.112-0.424-1.535,0l-1.313,1.312l4.322,4.322l1.311-1.313C33.105,10.215,33.105,9.528,32.682,9.103"/><path fill="#FF9800" d="M18.075 12.611H28.589V18.724H18.075z" transform="rotate(-45.001 23.331 15.668)"/><path fill="#B0BEC5" d="M26.602 7.813H29.658V13.926H26.602z" transform="rotate(134.983 28.13 10.871)"/><path fill="#FFC107" d="M17.455 17.224L16 23 21.775 21.546z"/><path fill="#37474F" d="M16.734 20.08L16 23 18.92 22.265z"/></svg>