<svg xmlns="http://www.w3.org/2000/svg" width="50" height="50" viewBox="0 0 48 48"><path fill="#90a4ae" d="M23,15h19v2H23V15z M23,22h19v-2H23V22z M20,27h22v-2H20V27z M20,32h22v-2H20V32z"/><path fill="#edbd28" d="M26,20.5c0,0.828-0.672,1.5-1.5,1.5S23,21.328,23,20.5s0.672-1.5,1.5-1.5S26,19.672,26,20.5 M13,20.5 c0-0.828-0.672-1.5-1.5-1.5S10,19.672,10,20.5s0.672,1.5,1.5,1.5S13,21.328,13,20.5"/><path fill="#edb405" d="M22,29c0,0,0,4-4,4s-4-4-4-4"/><path fill="#4fc3f7" d="M21.75,29L18,29.77L14.25,29c0,0-8.25,1.527-8.25,10h24C30,30.559,21.75,29,21.75,29"/><path fill="#edb405" d="M18,33c-4,0-4-4-4-4v-4h8v4C22,29,22,33,18,33z"/><path fill="#ffca28" d="M25,16.68c0-5.879-14-3.828-14,0v4.391c0,3.824,3.133,6.93,7,6.93s7-3.105,7-6.93V16.68z"/><path fill="#01579b" d="M18,35c3.059,0,5.578-2.289,5.949-5.25c-0.887-0.398-1.605-0.605-1.957-0.691 C21.965,31.238,20.188,33,18,33c-2.191,0-3.965-1.762-3.992-3.945c-0.355,0.086-1.074,0.293-1.957,0.688 C12.418,32.703,14.938,35,18,35z"/><path fill="#424242" d="M18,9c-4.859,0-8,4.313-8,8.172V19l2,2v-4l9.199-3L24,17v4l2-2v-0.809 c0-3.219-0.828-6.805-4.801-7.594L20.398,9H18z"/><path fill="#784719" d="M20,20c0-0.551,0.449-1,1-1s1,0.449,1,1s-0.449,1-1,1S20,20.551,20,20 M14,20c0,0.551,0.449,1,1,1 s1-0.449,1-1s-0.449-1-1-1S14,19.449,14,20"/></svg>