<svg xmlns="http://www.w3.org/2000/svg" viewBox="0 0 48 48" width="500px" height="500px"><path fill="#90a4ae" d="M31,40c3,0-17,0-14,0s3-5,3-5h8C28,35,28,40,31,40z"/><path fill="#455a64" d="M42,7H6C4.9,7,4,7.9,4,9v22h40V9C44,7.9,43.1,7,42,7z"/><path fill="#90caf9" d="M6,9h36v20H6V9z"/><path fill="#b0bec5" d="M4,31h40v2c0,1.1-0.9,2-2,2H6c-1.1,0-2-0.9-2-2V31z M32,40H16v2h16V40z"/><path fill="#e3f2fd" d="M33.9,25.9C30.7,22.8,27.1,21,24,21c-3.1,0-6.7,1.8-9.9,4.9l-5.7-5.7C13.1,15.7,18.8,13,24,13 s10.9,2.7,15.5,7.3L33.9,25.9z"/><path fill="#37474f" d="M25 33c0 .6-.4 1-1 1s-1-.4-1-1 .4-1 1-1S25 32.4 25 33zM24 27C24 27 23.9 27 24 27l-8.2-12.5c-.3-.5-.9-.6-1.4-.3-.5.3-.6.9-.3 1.4l8.1 12.6C22.1 28.4 22 28.7 22 29h4C26 27.9 25.1 27 24 27z"/></svg>