<svg xmlns="http://www.w3.org/2000/svg" viewBox="0 0 48 48" width="100px" height="100px"><path fill="#00ACC1" d="M23,6C12.5,6,4,14.5,4,25s8.5,19,19,19s19-8.5,19-19S33.5,6,23,6z M23,35c-5.5,0-10-4.5-10-10c0-5.5,4.5-10,10-10s10,4.5,10,10C33,30.5,28.5,35,23,35z"/><path fill="#4DD0E1" d="M23,4v9c6.6,0,12,5.4,12,12c0,1.8-0.4,3.5-1.1,5.1l8.1,3.8c1.3-2.7,2-5.7,2-8.9C44,13.4,34.6,4,23,4z"/><path fill="#0097A7" d="M40.2,33l-6.3-3c0.7-1.5,1.1-3.3,1.1-5.1c0-6.6-5.4-12-12-12V6c-0.7,0-1.3,0-2,0.1V13v2h2c5.5,0,10,4.5,10,10c0,0.4,0,0.7-0.1,1.1c0,0,0,0.1,0,0.1c0,0.3-0.1,0.6-0.2,0.9c0,0,0,0,0,0.1c-0.2,0.8-0.4,1.5-0.8,2.2L31.2,31l1.8,0.8l6.2,2.9C39.6,34.2,39.9,33.6,40.2,33z"/></svg>