<svg xmlns="http://www.w3.org/2000/svg" width="300" height="300" viewBox="0 0 48 48"><path fill="#CFD8DC" d="M3 16H45V30H3z"/><path fill="#37474F" d="M38.521 17H27.48C25.948 18.537 25 20.657 25 23s.948 4.463 2.48 6h11.041C40.053 27.463 41 25.343 41 23S40.053 18.537 38.521 17zM33 25c-1.104 0-2-.896-2-2s.896-2 2-2 2 .896 2 2S34.104 25 33 25zM21.521 17H9.481C7.948 18.537 7 20.657 7 23s.948 4.463 2.481 6h12.041C23.053 27.463 24 25.343 24 23S23.053 18.537 21.521 17zM15 25c-1.104 0-2-.896-2-2s.896-2 2-2 2 .896 2 2S16.104 25 15 25z"/><path fill="#546E7A" d="M2,11v25h44V11H2z M44,29H4V17h40V29z"/><path fill="#546E7A" d="M16 16H32V30H16z"/><path fill="#FAFAFA" d="M18 17H30V29H18z"/><path fill="#FF1744" d="M18 25H30V29H18z"/></svg>