<svg xmlns="http://www.w3.org/2000/svg" width="100" height="100" viewBox="0 0 48 48"><path fill="#78909C" d="M6,30v10c0,1.104,0.896,2,2,2h32c1.104,0,2-0.896,2-2V30H6z"/><path fill="#455A64" d="M39,8c0-1.104-0.896-2-2-2H11C9.896,6,9,6.896,9,8L6,30c0,1.104,0.896,2,2,2h32c1.104,0,2-0.896,2-2L39,8z"/><path fill="#263238" d="M9 32H31V39H9z"/><path fill="#FDD835" d="M11 35H13V39H11zM15 35H17V39H15zM19 35H21V39H19zM23 35H25V39H23zM27 35H29V39H27z"/><path fill="#64DD17" d="M37 35A2 2 0 1 0 37 39A2 2 0 1 0 37 35Z"/></svg>