<svg xmlns="http://www.w3.org/2000/svg" viewBox="0 0 48 48" width="100px" height="100px"><path fill="#3F51B5" d="M22 26H26V38H22z"/><path fill="#3F51B5" d="M31 34L17 34 24 41z"/><path fill="#90A4AE" d="M24,6c-6.331,0-11.281,5.433-11.488,5.664L11.313,13l1.199,1.336C12.719,14.567,17.669,20,24,20s11.28-5.433,11.488-5.664L36.688,13l-1.199-1.336C35.28,11.433,30.331,6,24,6L24,6z"/><path fill="#90CAF9" d="M40,22v3L8,25.002V22H4v3c0,2.206,1.794,4,4,4h32c2.206,0,4-1.794,4-4v-3H40z"/><path fill="#FFF" d="M24,8c-5.512,0-10,5-10,5s4.488,5,10,5s10-5,10-5S29.512,8,24,8z"/><path fill="#009688" d="M24,8c-1.271,0-2.483,0.219-3.603,0.546C19.536,9.443,19,10.656,19,12c0,2.765,2.24,5,5,5s5-2.235,5-5c0-1.344-0.536-2.557-1.396-3.454C26.483,8.219,25.271,8,24,8z"/><path fill="#263238" d="M24 10A2 2 0 1 0 24 14A2 2 0 1 0 24 10Z"/><path fill="#FFF" d="M24,10c0-0.552,0.448-1,1-1s1,0.448,1,1s-0.448,1-1,1S24,10.552,24,10"/></svg>