<svg xmlns="http://www.w3.org/2000/svg" viewBox="0 0 48 48" width="300px" height="300px"><path fill="#616161" d="M34.586 28.101H38.586V45.072H34.586z" transform="rotate(-45.001 36.586 36.587)"/><path fill="#616161" d="M36,20c0,8.837-7.163,16-16,16S4,28.837,4,20S11.163,4,20,4S36,11.163,36,20"/><path fill="#37474f" d="M36.238 32.092H40.238V44.385999999999996H36.238z" transform="rotate(-45.001 38.238 38.24)"/><path fill="#64b5f6" d="M7,20c0-7.18,5.82-13,13-13s13,5.82,13,13s-5.82,13-13,13S7,27.18,7,20"/><path fill="#e3f2fd" d="M13 18A2 2 0 1 0 13 22 2 2 0 1 0 13 18zM20 18A2 2 0 1 0 20 22 2 2 0 1 0 20 18zM27 18A2 2 0 1 0 27 22 2 2 0 1 0 27 18z"/></svg>