<svg xmlns="http://www.w3.org/2000/svg" width="100" height="100" viewBox="0 0 48 48"><path fill="#90caf9" d="M30.286,38H10V10h28v20.286c1.533,0.153,2.917,0.804,4,1.781V6H6v36h26.066C31.089,40.917,30.439,39.533,30.286,38z"/><path fill="#90caf9" d="M24,41.5c-1.104,0-2-0.896-2-2V9c0-1.104,0.896-2,2-2s2,0.896,2,2v30.5C26,40.604,25.104,41.5,24,41.5z"/><path fill="#90caf9" d="M39 21H9c-1.104 0-2-.896-2-2s.896-2 2-2h30c1.104 0 2 .896 2 2S40.104 21 39 21zM39 31H9c-1.104 0-2-.896-2-2s.896-2 2-2h30c1.104 0 2 .896 2 2S40.104 31 39 31z"/><path fill="#607d8b" d="M45.461,38.1c0.1-0.4,0.1-0.8,0.1-1.1s0-0.8-0.1-1.1l2.3-1.7c0.2-0.2,0.3-0.5,0.2-0.7l-2.3-3.9c-0.1-0.2-0.4-0.3-0.7-0.2l-2.6,1.2c-0.6-0.5-1.3-0.9-2-1.2l-0.3-2.9c0-0.3-0.3-0.5-0.5-0.5h-4.6c-0.2,0-0.5,0.2-0.5,0.5l-0.3,2.9c-0.7,0.2-1.4,0.6-2,1.1l-2.6-1.2c-0.3-0.1-0.6,0-0.7,0.2l-2.3,4c-0.1,0.2,0,0.5,0.2,0.7l2.3,1.7c-0.1,0.4-0.1,0.8-0.1,1.1s0,0.8,0.1,1.1l-2.3,1.7c-0.2,0.2-0.3,0.5-0.2,0.7l2.3,3.9c0.1,0.2,0.4,0.3,0.7,0.2l2.6-1.2c0.6,0.5,1.3,0.9,2,1.2l0.3,2.9c0,0.3,0.3,0.5,0.5,0.5h4.5c0.3,0,0.5-0.2,0.5-0.5l0.3-2.9c0.7-0.3,1.4-0.7,2-1.2l2.6,1.2c0.3,0.1,0.6,0,0.7-0.2l2.3-3.9c0.1-0.2,0.1-0.6-0.2-0.7L45.461,38.1z M37.261,42.2c-2.9,0-5.2-2.3-5.2-5.2s2.3-5.2,5.2-5.2s5.2,2.3,5.2,5.2S40.161,42.2,37.261,42.2"/><path fill="#455a64" d="M37.261,31c-3.3,0-6,2.7-6,6s2.7,6,6,6s6-2.7,6-6S40.561,31,37.261,31 M37.261,40c-1.7,0-3-1.3-3-3s1.3-3,3-3s3,1.3,3,3S38.961,40,37.261,40"/></svg>