<svg xmlns="http://www.w3.org/2000/svg" width="100" height="100" viewBox="0 0 48 48"><path fill="#90caf9" d="M19 21H7c-1.104 0-2-.896-2-2s.896-2 2-2h12c1.104 0 2 .896 2 2S20.104 21 19 21zM19 31H7c-1.104 0-2-.896-2-2s.896-2 2-2h12c1.104 0 2 .896 2 2S20.104 31 19 31zM41 21H29c-1.104 0-2-.896-2-2s.896-2 2-2h12c1.104 0 2 .896 2 2S42.104 21 41 21zM41 31H29c-1.104 0-2-.896-2-2s.896-2 2-2h12c1.104 0 2 .896 2 2S42.104 31 41 31z"/><path fill="#ab47bc" d="M4 42V6h18v36H4zM8 38h10V10H8V38zM26 42V6h18v36H26zM30 38h10V10H30V38z"/></svg>