<svg xmlns="http://www.w3.org/2000/svg" width="500" height="500" viewBox="0 0 48 48"><path fill="#00BCD4" d="M7 31H17V41H7zM35.3 19.3l-5.6-5.6c-.4-.4-.4-1 0-1.4l5.6-5.6c.4-.4 1-.4 1.4 0l5.6 5.6c.4.4.4 1 0 1.4l-5.6 5.6C36.3 19.7 35.7 19.7 35.3 19.3z"/><path fill="#3F51B5" d="M12 7A6 6 0 1 0 12 19A6 6 0 1 0 12 7Z"/><path fill="#448AFF" d="M36 30A6 6 0 1 0 36 42A6 6 0 1 0 36 30Z"/><path fill="#90A4AE" d="M11 24H13V29H11z"/><path fill="#90A4AE" d="M12 21L9 25 15 25z"/><g><path fill="#90A4AE" d="M20 12H25V14H20z"/><path fill="#90A4AE" d="M28 13L24 10 24 16z"/></g><g><path fill="#90A4AE" d="M35 21H37V26H35z"/><path fill="#90A4AE" d="M36 29L39 25 33 25z"/></g></svg>