<svg xmlns="http://www.w3.org/2000/svg" width="300" height="300" viewBox="0 0 48 48"><path fill="#90a4ae" d="M20,15h22v2H20V15z M20,22h22v-2H20V22z M20,27h22v-2H20V27z M20,32h22v-2H20V32z"/><path fill="#4e342e" d="M11.941,16.25h12v13.5h-12V16.25z"/><path fill="#4fc3f7" d="M21.75,29L18,29.77L14.25,29c0,0-8.25,1.527-8.25,10h24C30,30.559,21.75,29,21.75,29"/><path fill="#edb405" d="M17.941,32.75c-1.441,0-3.5-3.75-3.5-3.75v-5h7v5C21.441,29,19.379,32.75,17.941,32.75"/><path fill="#ffca28" d="M24.941,21c0,3.727-3.273,7-7,7c-3.73,0-7-3.273-7-7v-6c0-3.727,14-5.727,14,0V21z M17.941,34 c2.898,0,3.5-5,3.5-5s-1.867,3-3.5,3c-1.637,0-3.5-3-3.5-3S15.039,34,17.941,34"/><path fill="#01579b" d="M17.941,36c3.563,0,5.074-3.953,5.445-6.488C22.43,29.137,21.75,29,21.75,29l-0.32,0.066 C21.352,29.641,20.648,34,17.941,34c-2.773,0-3.441-4.551-3.496-4.961L14.25,29c0,0-0.73,0.141-1.75,0.551 C12.883,32.086,14.395,36,17.941,36z"/><path fill="#784719" d="M19.941,20c0-0.551,0.445-1,1-1c0.551,0,1,0.449,1,1s-0.449,1-1,1C20.387,21,19.941,20.551,19.941,20 M13.941,20c0,0.551,0.445,1,1,1c0.551,0,1-0.449,1-1s-0.449-1-1-1C14.387,19,13.941,19.449,13.941,20"/><path fill="#795548" d="M17.941,9c-4.559,0-11,2.09-11,17l5,3.75V19l9-5l3,4v12l5-5c0-3.02-0.258-14.5-8-14.5l-1-1.5H17.941z"/></svg>