<svg xmlns="http://www.w3.org/2000/svg" width="300" height="300" viewBox="-281 373 48 48"><path fill="#FF3D00" d="M-270,408h26c6,0,11-4.9,11-11l0,0c0-6-4.9-11-11-11h-26c-6,0-11,4.9-11,11l0,0C-281,403.1-276.1,408-270,408z"/><path fill="#C5CAE9" d="M-269 385A12 12 0 1 0 -269 409A12 12 0 1 0 -269 385Z"/><path fill="#DD2C00" d="M-257,397c0,4.9-3,9.2-7.2,11h6.8c2.7-2.9,4.4-6.7,4.4-11s-1.7-8.1-4.4-11h-6.8C-260,387.8-257,392.1-257,397z"/><path fill="#9FA8DA" d="M-269,387c-5.5,0-10,4.5-10,10c0,1.2,0.2,2.3,0.6,3.3l9.4-3.3l4.5-8.9C-265.9,387.4-267.4,387-269,387z M-269,407c5.5,0,10-4.5,10-10c0-1.2-0.2-2.3-0.6-3.3l-9.4,3.3l-4.5,8.9C-272.1,406.6-270.6,407-269,407z"/></svg>