<svg xmlns="http://www.w3.org/2000/svg" viewBox="0 0 48 48" width="500px" height="500px"><path fill="#CFD8DC" d="M26.429 12.207H41.157V16.207H26.429z" transform="rotate(134.999 33.793 14.207)"/><path fill="#CFD8DC" d="M35 23L25 23 25 13z"/><path fill="#CFD8DC" d="M6.843 31.793H21.570999999999998V35.793H6.843z" transform="rotate(-45.001 14.207 33.793)"/><path fill="#CFD8DC" d="M13 25L23 25 23 35z"/><g><path fill="#2196F3" d="M39 2.0009999999999994A7 7 0 1 0 39 16.000999999999998 7 7 0 1 0 39 2.0009999999999994zM9 31.999000000000002A7 7 0 1 0 9 45.999 7 7 0 1 0 9 31.999000000000002z"/></g></svg>