<svg xmlns="http://www.w3.org/2000/svg" width="100" height="100" viewBox="0 0 48 48"><path fill="#90caf9" d="M6,42V6h36v36H6z M10,38h28V10H10V38z"/><path fill="#90caf9" d="M24,41.5c-1.104,0-2-0.896-2-2V19h4v20.5C26,40.604,25.104,41.5,24,41.5z"/><path fill="#90caf9" d="M39 21H9c-1.104 0-2-.896-2-2s.896-2 2-2h30c1.104 0 2 .896 2 2S40.104 21 39 21zM39 31H9c-1.104 0-2-.896-2-2s.896-2 2-2h30c1.104 0 2 .896 2 2S40.104 31 39 31z"/><g><path fill="#ab47bc" d="M38,10v7H10v-7H38 M42,6H6v15h36V6L42,6z"/></g><path fill="#ab47bc" d="M22 8H26V20H22z"/></svg>