<svg xmlns="http://www.w3.org/2000/svg" viewBox="0 0 48 48" width="300px" height="300px"><path fill="#CFD8DC" d="M9 39L9 6 7 6 7 41 42 41 42 39z"/><path fill="#00BCD4" d="M14 9A2 2 0 1 0 14 13 2 2 0 1 0 14 9zM32 9A2 2 0 1 0 32 13 2 2 0 1 0 32 9zM39 9A2 2 0 1 0 39 13 2 2 0 1 0 39 9zM23 7A4 4 0 1 0 23 15 4 4 0 1 0 23 7zM14 31A2 2 0 1 0 14 35 2 2 0 1 0 14 31zM30 31A2 2 0 1 0 30 35 2 2 0 1 0 30 31zM22 30A3 3 0 1 0 22 36 3 3 0 1 0 22 30zM38 29A4 4 0 1 0 38 37 4 4 0 1 0 38 29zM14 20A2 2 0 1 0 14 24 2 2 0 1 0 14 20zM39 20A2 2 0 1 0 39 24 2 2 0 1 0 39 20zM32 19A3 3 0 1 0 32 25 3 3 0 1 0 32 19z"/></svg>