<svg xmlns="http://www.w3.org/2000/svg" viewBox="0 0 48 48" width="500px" height="500px"><path fill="#455a64" d="M42,19H6V9c0-1.657,1.343-3,3-3h30c1.657,0,3,1.343,3,3V19z"/><path fill="#bbdefb" d="M6,16h36v23c0,1.657-1.343,3-3,3H9c-1.657,0-3-1.343-3-3V16z"/><path fill="#8bc34a" d="M11 9A2 2 0 1 0 11 13A2 2 0 1 0 11 9Z"/><path fill="#ffeb3b" d="M17 9A2 2 0 1 0 17 13A2 2 0 1 0 17 9Z"/><path fill="#fafafa" d="M39,12c0,0.553-0.447,1-1,1H23c-0.553,0-1-0.447-1-1v-2c0-0.553,0.447-1,1-1h15c0.553,0,1,0.447,1,1 V12z"/><path fill="#64b5f6" d="M17 20h22v2H17V20zM34.5 24H17v2h11.353C30.082 24.747 32.201 24 34.5 24zM35 24h-.5c.169 0 .333.017.5.025V24zM24.312 32H17v2h7.025C24.058 33.314 24.154 32.646 24.312 32zM24.119 36H17v2h7.61C24.383 37.359 24.218 36.691 24.119 36z"/><path fill="#616161" d="M47.995,46.218l-6.669-6.669C42.373,38.136,43,36.393,43,34.5c0-4.694-3.806-8.5-8.5-8.5 S26,29.806,26,34.5s3.806,8.5,8.5,8.5c1.893,0,3.636-0.627,5.049-1.674l6.669,6.669L47.995,46.218z"/><path fill="#bbdefb" d="M41,34.5c0,3.6-2.9,6.5-6.5,6.5S28,38.1,28,34.5s2.9-6.5,6.5-6.5S41,30.9,41,34.5"/><path fill="#e3f2fd" d="M37,33.5c-0.4,0-0.8-0.1-1.1-0.4c-0.8-0.8-2-0.8-2.8,0c-0.6,0.6-1.6,0.6-2.1,0 c-0.6-0.6-0.6-1.6,0-2.1c1.9-2,5.1-2,7,0c0.6,0.6,0.6,1.5,0,2.1C37.7,33.4,37.4,33.5,37,33.5z"/><path fill="#37474f" d="M43.797 42.149H46.309999999999995V47.957H43.797z" transform="rotate(-45.001 45.053 45.054)"/><path fill="#455a64" d="M11.5,22c-0.275,0-0.5-0.225-0.5-0.5s0.225-0.5,0.5-0.5h2.449c-0.232-1.14-1.242-2-2.449-2 C10.121,19,9,20.121,9,21.5s1.121,2.5,2.5,2.5c0.275,0,0.5,0.225,0.5,0.5S11.775,25,11.5,25H9.051c0.232,1.14,1.242,2,2.449,2 c1.379,0,2.5-1.121,2.5-2.5S12.879,22,11.5,22z"/><path fill="#455a64" d="M11 18H12V20H11zM11 26H12V28H11zM11.5 34c-.275 0-.5-.225-.5-.5s.225-.5.5-.5h2.449c-.232-1.14-1.242-2-2.449-2C10.121 31 9 32.121 9 33.5s1.121 2.5 2.5 2.5c.275 0 .5.225.5.5S11.775 37 11.5 37H9.051c.232 1.14 1.242 2 2.449 2 1.379 0 2.5-1.121 2.5-2.5S12.879 34 11.5 34z"/><path fill="#455a64" d="M11 30H12V32H11zM11 38H12V40H11z"/></svg>