<svg xmlns="http://www.w3.org/2000/svg" viewBox="0 0 48 48" width="300px" height="300px"><path fill="#78909C" d="M6,28v10c0,2.209,1.791,4,4,4h28c2.209,0,4-1.791,4-4V28H6z"/><path fill="#455A64" d="M42,28c0,2.209-1.791,4-4,4H10c-2.209,0-4-1.791-4-4l3-18c0.25-2.125,1.791-4,4-4h22c2.209,0,3.656,1.781,4,4L42,28z"/><path fill="#64DD17" d="M35 35A2 2 0 1 0 35 39A2 2 0 1 0 35 35Z"/><path fill="#64B5F6" d="M26.345,21.345c0.386-0.813,0.386-1.755-0.001-2.567c-0.143-0.302-0.326-0.589-0.576-0.838l-0.707-0.707c-0.249-0.249-0.536-0.434-0.837-0.577l-0.577,0.577c-0.39,0.39-0.39,1.024,0,1.414l0.707,0.707c0.39,0.39,0.39,1.024,0,1.414l-0.577,0.577l-3.666,3.666c-0.39,0.39-1.024,0.39-1.414,0l-0.707-0.707c-0.39-0.391-0.39-1.024,0-1.415l3.666-3.666c-0.386-0.813-0.386-1.754,0-2.567c-0.301,0.144-0.588,0.328-0.837,0.577l-4.243,4.242c-1.169,1.17-1.169,3.073,0,4.243l0.708,0.707c1.169,1.17,3.073,1.17,4.243,0l4.242-4.243C26.018,21.933,26.201,21.646,26.345,21.345z"/><path fill="#E3F2FD" d="M31.425,12.282l-0.707-0.707c-1.17-1.17-3.073-1.17-4.243,0l-4.242,4.243c-0.25,0.249-0.434,0.535-0.577,0.837c-0.386,0.813-0.385,1.755,0,2.567c0.143,0.302,0.327,0.589,0.577,0.838l0.707,0.707c0.249,0.249,0.536,0.434,0.837,0.577l0.577-0.577c0.39-0.39,0.39-1.024,0-1.414l-0.707-0.707c-0.39-0.39-0.39-1.024,0-1.414l0.577-0.577l3.666-3.666c0.391-0.39,1.025-0.39,1.414,0l0.707,0.707c0.391,0.391,0.391,1.024,0,1.415l-3.666,3.666c0.387,0.813,0.387,1.754,0.001,2.567c0.302-0.144,0.588-0.328,0.837-0.577l4.243-4.242C32.594,15.355,32.594,13.452,31.425,12.282z"/></svg>