<svg xmlns="http://www.w3.org/2000/svg" viewBox="0 0 48 48" width="300px" height="300px"><path fill="#64B5F6" d="M16 14c0 1.104-.896 2-2 2H8c-1.104 0-2-.896-2-2V8c0-1.104.896-2 2-2h6c1.104 0 2 .896 2 2V14zM29 14c0 1.104-.896 2-2 2h-6c-1.104 0-2-.896-2-2V8c0-1.104.896-2 2-2h6c1.104 0 2 .896 2 2V14zM42 14c0 1.104-.896 2-2 2h-6c-1.104 0-2-.896-2-2V8c0-1.104.896-2 2-2h6c1.104 0 2 .896 2 2V14zM16 27c0 1.104-.896 2-2 2H8c-1.104 0-2-.896-2-2v-6c0-1.104.896-2 2-2h6c1.104 0 2 .896 2 2V27zM29 27c0 1.104-.896 2-2 2h-6c-1.104 0-2-.896-2-2v-6c0-1.104.896-2 2-2h6c1.104 0 2 .896 2 2V27zM42 27c0 1.104-.896 2-2 2h-6c-1.104 0-2-.896-2-2v-6c0-1.104.896-2 2-2h6c1.104 0 2 .896 2 2V27zM16 40c0 1.104-.896 2-2 2H8c-1.104 0-2-.896-2-2v-6c0-1.104.896-2 2-2h6c1.104 0 2 .896 2 2V40zM29 40c0 1.104-.896 2-2 2h-6c-1.104 0-2-.896-2-2v-6c0-1.104.896-2 2-2h6c1.104 0 2 .896 2 2V40zM42 40c0 1.104-.896 2-2 2h-6c-1.104 0-2-.896-2-2v-6c0-1.104.896-2 2-2h6c1.104 0 2 .896 2 2V40z"/></svg>