<svg xmlns="http://www.w3.org/2000/svg" viewBox="0 0 48 48" width="100px" height="100px"><path fill="#7CB342" d="M4 18H16V30H4zM32 32H44V44H32z"/><path fill="#2196F3" d="M18 32H30V44H18zM32 4H44V16H32z"/><path fill="#FFC107" d="M4 4H16V16H4zM18 18H30V30H18z"/><path fill="#1565C0" d="M4 32H16V44H4zM18 4H30V16H18zM32 18H44V30H32z"/><path fill="#FFC107" d="M7 35H13V41H7z"/><path fill="#FFC107" d="M7 35H13V40.999H7z" transform="rotate(-45.001 9.998 37.998)"/><path fill="#FFC107" d="M35 21H41V27H35z"/><path fill="#FFC107" d="M35 21H40.999V26.999H35z" transform="rotate(-45.001 38 24)"/><path fill="#FFC107" d="M21 7H27V13H21z"/><path fill="#FFC107" d="M21 7H27V12.998999999999999H21z" transform="rotate(-45.001 23.998 10)"/><g><path fill="#FFF" d="M8.536 20.998c0-.829.655-1.498 1.464-1.498s1.464.669 1.464 1.498C11.464 21.83 10 24 10 24S8.536 21.83 8.536 20.998M11.464 27c0 .831-.655 1.5-1.464 1.5S8.536 27.831 8.536 27 10 24 10 24 11.464 26.169 11.464 27"/><path fill="#FFF" d="M6.732 23.798c-.7-.415-.939-1.329-.536-2.049.403-.719 1.299-.964 2-.547C8.897 21.616 10 24 10 24S7.433 24.211 6.732 23.798M13.267 24.2c.701.415.94 1.331.537 2.049-.404.72-1.299.964-2 .549C11.103 26.385 10 24 10 24S12.567 23.786 13.267 24.2"/><path fill="#FFF" d="M13.267 23.798c.701-.415.94-1.329.537-2.049-.404-.719-1.299-.964-2-.547C11.103 21.616 10 24 10 24S12.567 24.211 13.267 23.798M6.732 24.2c-.7.415-.939 1.331-.536 2.049.403.72 1.299.964 2 .549C8.897 26.385 10 24 10 24S7.433 23.786 6.732 24.2M36.481 34.943c0-.829.655-1.498 1.464-1.498s1.464.669 1.464 1.498c0 .832-1.464 3.002-1.464 3.002S36.481 35.775 36.481 34.943M39.409 40.945c0 .831-.655 1.5-1.464 1.5s-1.464-.669-1.464-1.5 1.464-3 1.464-3S39.409 40.114 39.409 40.945"/><path fill="#FFF" d="M34.678 37.743c-.701-.415-.939-1.329-.536-2.049.403-.719 1.3-.964 2.001-.547.699.414 1.803 2.798 1.803 2.798S35.378 38.156 34.678 37.743M41.213 38.146c.701.415.939 1.331.536 2.049-.403.72-1.3.964-2.001.549-.7-.413-1.803-2.798-1.803-2.798S40.513 37.731 41.213 38.146"/><path fill="#FFF" d="M41.268 37.798c.701-.415.939-1.329.536-2.049-.403-.719-1.3-.964-2.001-.547C39.103 35.616 38 38 38 38S40.567 38.211 41.268 37.798M34.678 38.146c-.701.415-.939 1.331-.536 2.049.403.72 1.3.964 2.001.549.699-.413 1.803-2.798 1.803-2.798S35.378 37.731 34.678 38.146"/></g><g><path fill="#FFC107" d="M11.5 24.055c0 .828-.671 1.499-1.5 1.499s-1.5-.671-1.5-1.499c0-.83.671-1.501 1.5-1.501S11.5 23.225 11.5 24.055M39.5 38.055c0 .828-.671 1.499-1.5 1.499s-1.5-.671-1.5-1.499c0-.83.671-1.501 1.5-1.501S39.5 37.225 39.5 38.055"/></g><g><path fill="#FFF8E1" d="M8 38c0 1.104.896 2 2 2 1.105 0 2-.896 2-2s-.895-2-2-2C8.896 36 8 36.896 8 38M36 24c0 1.104.896 2 2 2 1.105 0 2-.896 2-2s-.895-2-2-2C36.896 22 36 22.896 36 24M22 10c0 1.104.896 2 2 2 1.105 0 2-.896 2-2s-.895-2-2-2C22.896 8 22 8.896 22 10"/></g><g><path fill="#E3F2FD" d="M26 36A2 2 0 1 0 26 40A2 2 0 1 0 26 36Z"/><path fill="#E3F2FD" d="M23 37A2 2 0 1 0 23 41 2 2 0 1 0 23 37zM25 42c-.829 0 1.672-3 2.5-3s1.5.671 1.5 1.5S28.328 42 27.5 42 26 42 25 42z"/><path fill="#E3F2FD" d="M19,40.5c0-0.829,0.672-1.5,1.5-1.5c2.5,0,3.329,3,2.5,3c-1,0-1.672,0-2.5,0S19,41.329,19,40.5z"/><path fill="#E3F2FD" d="M27 42L21 42 21 40 27 39zM40 8A2 2 0 1 0 40 12 2 2 0 1 0 40 8z"/><path fill="#E3F2FD" d="M37 9A2 2 0 1 0 37 13 2 2 0 1 0 37 9zM39 14c-.829 0 1.672-3 2.5-3s1.5.671 1.5 1.5S42.328 14 41.5 14 40 14 39 14z"/><path fill="#E3F2FD" d="M33,12.5c0-0.829,0.672-1.5,1.5-1.5c2.5,0,3.329,3,2.5,3c-1,0-1.672,0-2.5,0S33,13.329,33,12.5z"/><path fill="#E3F2FD" d="M41 14L35 14 35 12 41 11z"/></g><g><path fill="#FFF59D" d="M20.001 34.5c0 .829.671 1.5 1.499 1.5.829 0 1.5-.671 1.5-1.5S22.329 33 21.5 33C20.672 33 20.001 33.671 20.001 34.5M34.001 6.5c0 .829.671 1.5 1.499 1.5C36.329 8 37 7.329 37 6.5S36.329 5 35.5 5C34.672 5 34.001 5.671 34.001 6.5"/></g><g><path fill="#FFF9C4" d="M11.001 7.5c0 .829.671 1.5 1.499 1.5C13.329 9 14 8.329 14 7.5S13.329 6 12.5 6C11.672 6 11.001 6.671 11.001 7.5M25.001 21.5c0 .829.671 1.5 1.499 1.5.829 0 1.5-.671 1.5-1.5S27.329 20 26.5 20C25.672 20 25.001 20.671 25.001 21.5"/></g><g><path fill="#D85700" d="M8.636 8.547L5 14 12.273 14zM22.636 22.547L19 28 26.272 28z"/></g><g><path fill="#EF7E03" d="M12.273 10.365L9.545 14 15 14zM26.272 24.365L23.545 28 29 28z"/></g></svg>