<svg xmlns="http://www.w3.org/2000/svg" width="500" height="500" viewBox="0 0 48 48"><path fill="#7CB342" d="M13.681 8.106A4 4 0 1 0 13.681 16.106A4 4 0 1 0 13.681 8.106Z"/><path fill="#9CCC65" d="M11.693,31.906c1.171-1.171,3.071-1.171,4.243,0.001c1.171,1.171,1.171,3.071,0,4.241c-1.172,1.174-3.071,1.172-4.242,0.002C10.522,34.979,10.521,33.079,11.693,31.906z"/><path fill="#AED581" d="M24.696 35.57A3 3 0 1 0 24.696 41.57A3 3 0 1 0 24.696 35.57Z"/><path fill="#CFD8DC" d="M33.479 31.905c1.17-1.17 3.07-1.17 4.243.003 1.17 1.17 1.17 3.07 0 4.24-1.174 1.174-3.072 1.172-4.243.002C32.307 34.979 32.306 33.079 33.479 31.905zM34.683 11.055c.778-.778 2.048-.781 2.829 0 .781.782.778 2.05 0 2.829-.782.781-2.047.781-2.829 0C33.902 13.103 33.9 11.837 34.683 11.055zM23.656 6.645c.585-.586 1.535-.589 2.123-.002.582.583.584 1.537-.002 2.123s-1.537.581-2.12-.002C23.071 8.177 23.071 7.229 23.656 6.645zM40.14 20.626A2.5 2.5 0 1 0 40.14 25.626 2.5 2.5 0 1 0 40.14 20.626z"/><path fill="#8BC34A" d="M6.799,20.673c1.368-1.368,3.583-1.369,4.951-0.001c1.366,1.365,1.367,3.583-0.001,4.951c-1.364,1.364-3.583,1.364-4.948-0.002C5.433,24.254,5.435,22.037,6.799,20.673z"/></svg>