<svg xmlns="http://www.w3.org/2000/svg" viewBox="0 0 48 48" width="300px" height="300px"><linearGradient id="ZkLrGaWnTYnnaiivw59I6a" x1="24" x2="24" y1="6.708" y2="14.977" gradientUnits="userSpaceOnUse"><stop offset="0" stop-color="#eba600"/><stop offset="1" stop-color="#c28200"/></linearGradient><path fill="url(#ZkLrGaWnTYnnaiivw59I6a)" d="M24.414,10.414l-2.536-2.536C21.316,7.316,20.553,7,19.757,7L5,7C3.895,7,3,7.895,3,9l0,30	c0,1.105,0.895,2,2,2l38,0c1.105,0,2-0.895,2-2V13c0-1.105-0.895-2-2-2l-17.172,0C25.298,11,24.789,10.789,24.414,10.414z"/><linearGradient id="ZkLrGaWnTYnnaiivw59I6b" x1="24" x2="24" y1="10.854" y2="40.983" gradientUnits="userSpaceOnUse"><stop offset="0" stop-color="#ffd869"/><stop offset="1" stop-color="#fec52b"/></linearGradient><path fill="url(#ZkLrGaWnTYnnaiivw59I6b)" d="M21.586,14.414l3.268-3.268C24.947,11.053,25.074,11,25.207,11H43c1.105,0,2,0.895,2,2v26	c0,1.105-0.895,2-2,2H5c-1.105,0-2-0.895-2-2V15.5C3,15.224,3.224,15,3.5,15h16.672C20.702,15,21.211,14.789,21.586,14.414z"/><path fill="#199be2" d="M28.584,31.816l-1.768,1.768l4.343,4.343c0.098,0.098,0.256,0.098,0.354,0l1.414-1.414	c0.098-0.098,0.098-0.256,0-0.354L28.584,31.816z"/><radialGradient id="ZkLrGaWnTYnnaiivw59I6c" cx="19.411" cy="24.452" r="11.268" gradientUnits="userSpaceOnUse"><stop offset=".693" stop-color="#006185"/><stop offset=".921" stop-color="#35c1f1"/></radialGradient><polygon fill="url(#ZkLrGaWnTYnnaiivw59I6c)" points="25.8,29.033 24.033,30.8 26.816,33.584 28.584,31.816"/><linearGradient id="ZkLrGaWnTYnnaiivw59I6d" x1="16.302" x2="26.815" y1="21.302" y2="31.815" gradientUnits="userSpaceOnUse"><stop offset="0" stop-color="#80dafa"/><stop offset="1" stop-color="#0a85d9"/></linearGradient><circle cx="21.5" cy="26.5" r="7.5" fill="url(#ZkLrGaWnTYnnaiivw59I6d)"/></svg>