<svg xmlns="http://www.w3.org/2000/svg" viewBox="0 0 48 48" width="300px" height="300px"><linearGradient id="0K5dOklhmKuJ9Dk7fTzLLa" x1="24" x2="24" y1="6.708" y2="14.977" gradientUnits="userSpaceOnUse"><stop offset="0" stop-color="#eba600"/><stop offset="1" stop-color="#c28200"/></linearGradient><path fill="url(#0K5dOklhmKuJ9Dk7fTzLLa)" d="M24.414,10.414l-2.536-2.536C21.316,7.316,20.553,7,19.757,7L5,7C3.895,7,3,7.895,3,9l0,30	c0,1.105,0.895,2,2,2l38,0c1.105,0,2-0.895,2-2V13c0-1.105-0.895-2-2-2l-17.172,0C25.298,11,24.789,10.789,24.414,10.414z"/><linearGradient id="0K5dOklhmKuJ9Dk7fTzLLb" x1="24" x2="24" y1="10.854" y2="40.983" gradientUnits="userSpaceOnUse"><stop offset="0" stop-color="#ffd869"/><stop offset="1" stop-color="#fec52b"/></linearGradient><path fill="url(#0K5dOklhmKuJ9Dk7fTzLLb)" d="M21.586,14.414l3.268-3.268C24.947,11.053,25.074,11,25.207,11H43c1.105,0,2,0.895,2,2v26	c0,1.105-0.895,2-2,2H5c-1.105,0-2-0.895-2-2V15.5C3,15.224,3.224,15,3.5,15h16.672C20.702,15,21.211,14.789,21.586,14.414z"/><linearGradient id="0K5dOklhmKuJ9Dk7fTzLLc" x1="20.481" x2="26.162" y1="20.771" y2="36.337" gradientUnits="userSpaceOnUse"><stop offset="0" stop-color="#2aa4f4"/><stop offset="1" stop-color="#007ad9"/></linearGradient><path fill="url(#0K5dOklhmKuJ9Dk7fTzLLc)" d="M30.325,24.016C29.204,21.645,26.797,20,24,20c-3.528,0-6.439,2.613-6.922,6.008	C17.052,26.007,17.027,26,17,26c-2.761,0-5,2.239-5,5s2.239,5,5,5c1.859,0,11.156,0,13,0c3.314,0,6-2.686,6-6	C36,26.796,33.487,24.186,30.325,24.016z"/></svg>