<svg xmlns="http://www.w3.org/2000/svg" viewBox="0 0 48 48" width="100px" height="100px"><linearGradient id="SFtevvN~VKWi10hmL22mea" x1="35.964" x2="39.941" y1="5.964" y2="9.941" gradientUnits="userSpaceOnUse"><stop offset="0" stop-color="#4d4d4d"/><stop offset="1" stop-color="#4a4a4a"/></linearGradient><path fill="url(#SFtevvN~VKWi10hmL22mea)" d="M38.5,11.5l-4.018-4.018l2.646-2.646c0.195-0.195,0.512-0.195,0.707,0l3.311,3.311	c0.195,0.195,0.195,0.512,0,0.707L38.5,11.5z"/><linearGradient id="SFtevvN~VKWi10hmL22meb" x1="24" x2="24" y1="2.408" y2="41.724" gradientUnits="userSpaceOnUse"><stop offset="0" stop-color="#889097"/><stop offset="1" stop-color="#64717c"/></linearGradient><path fill="url(#SFtevvN~VKWi10hmL22meb)" d="M24,3C13.507,3,5,11.507,5,22v17c0,1.105,0.895,2,2,2h34c1.105,0,2-0.895,2-2V22 C43,11.507,34.493,3,24,3z"/><radialGradient id="SFtevvN~VKWi10hmL22mec" cx="24" cy="22" r="17" gradientUnits="userSpaceOnUse"><stop offset="0"/><stop offset="1" stop-opacity="0"/></radialGradient><circle cx="24" cy="22" r="17" fill="url(#SFtevvN~VKWi10hmL22mec)"/><radialGradient id="SFtevvN~VKWi10hmL22med" cx="23.903" cy="7.348" r="33.426" gradientUnits="userSpaceOnUse"><stop offset="0" stop-color="#fafafb"/><stop offset="1" stop-color="#c8cdd1"/></radialGradient><circle cx="24" cy="22" r="15" fill="url(#SFtevvN~VKWi10hmL22med)"/><path fill="#d83b01" d="M24,34.75c-0.414,0-0.75-0.336-0.75-0.75V22c0-0.414,0.336-0.75,0.75-0.75s0.75,0.336,0.75,0.75v12	C24.75,34.414,24.414,34.75,24,34.75z"/><path fill="#45494d" d="M24,22.75c-0.192,0-0.384-0.073-0.53-0.22c-0.293-0.293-0.293-0.768,0-1.061l8.485-8.485	c0.293-0.293,0.768-0.293,1.061,0s0.293,0.768,0,1.061L24.53,22.53C24.384,22.677,24.192,22.75,24,22.75z"/><path fill="#45494d" d="M23.999,23.25c-0.181,0-0.365-0.04-0.54-0.124l-7.787-3.735c-0.623-0.298-0.885-1.045-0.586-1.667	c0.298-0.623,1.043-0.887,1.667-0.586l7.787,3.735c0.623,0.298,0.885,1.045,0.586,1.667C24.912,22.989,24.465,23.25,23.999,23.25z"/><circle cx="24" cy="22" r="2" fill="#1e2021"/></svg>