<svg xmlns="http://www.w3.org/2000/svg" viewBox="0 0 48 48" width="500px" height="500px"><rect width="2" height="7" x="23" y="9" fill="#99260f"/><rect width="2" height="7" x="29" y="9" fill="#99260f"/><rect width="2" height="7" x="35" y="9" fill="#99260f"/><rect width="2" height="7" x="41" y="9" fill="#99260f"/><rect width="2" height="7" x="5" y="9" fill="#99260f"/><rect width="2" height="7" x="11" y="9" fill="#99260f"/><rect width="2" height="7" x="17" y="9" fill="#99260f"/><path fill="#b63016" d="M45,16H3v4h0c3.314,0,6,2.686,6,6v9h6v-6c0-4.971,4.029-9,9-9h0c4.971,0,9,4.029,9,9v6h6v-9	c0-3.314,2.686-6,6-6h0V16z"/><linearGradient id="JAn355WSHZBE8FyOtOfDwa" x1="24" x2="24" y1="31.951" y2="41.994" gradientUnits="userSpaceOnUse"><stop offset="0" stop-color="#2aa4f4"/><stop offset="1" stop-color="#007ad9"/></linearGradient><path fill="url(#JAn355WSHZBE8FyOtOfDwa)" d="M42,33c-1.657,0-3-1-3-1s-1.343,1-3,1s-3-1-3-1s-1.343,1-3,1s-3-1-3-1s-1.343,1-3,1s-3-1-3-1	s-1.343,1-3,1s-3-1-3-1s-1.343,1-3,1s-3-1-3-1s-1.343,1-3,1s-3-1-3-1v8c0,1.105,0.895,2,2,2h22h9h7c1.105,0,2-0.895,2-2v-8	C45,32,43.657,33,42,33z"/><rect width="42" height="2" x="3" y="7" fill="#d35230"/></svg>