<svg fill="#000000" xmlns="http://www.w3.org/2000/svg" viewBox="0 0 100 100" width="100px" height="100px"><path d="M 50 14 C 47.933 14 46.134953 15.236797 45.376953 17.091797 C 34.147953 18.016797 24.923203 26.724031 23.533203 38.082031 L 20.105469 66.066406 C 17.220469 66.499406 15 68.995 15 72 C 15 75.309 17.691 78 21 78 L 41.058594 78 C 41.557594 82.493 45.375 86 50 86 C 54.625 86 58.442406 82.493 58.941406 78 L 62.025391 78 C 62.292604 86.31439 69.121831 93 77.5 93 C 86.047 93 93 86.047 93 77.5 C 93 69.601237 87.056979 63.077064 79.410156 62.130859 L 76.464844 38.082031 C 75.075844 26.724031 65.850094 18.016797 54.621094 17.091797 C 53.864094 15.236797 52.067 14 50 14 z M 50 15 C 51.484 15 52.785562 15.803062 53.476562 17.039062 C 53.198563 17.029062 52.925531 17 52.644531 17 L 47.355469 17 C 47.075469 17 46.800484 17.029062 46.521484 17.039062 C 47.213484 15.803062 48.516 15 50 15 z M 47.355469 19 L 52.644531 19 C 63.743531 19 73.132422 27.309172 74.482422 38.326172 L 77.380859 62.005859 C 72.93475 62.039904 68.93914 63.961681 66.130859 67 L 35.5 67 C 35.224 67 35 67.224 35 67.5 C 35 67.776 35.224 68 35.5 68 L 65.279297 68 C 63.521652 70.255728 62.365855 73 62.076172 76 L 21 76 C 18.794 76 17 74.206 17 72 C 17 69.794 18.794 68 21 68 C 21.505 68 21.931188 67.623094 21.992188 67.121094 L 25.519531 38.326172 C 26.869531 27.309172 36.255469 19 47.355469 19 z M 77.5 64 C 84.944 64 91 70.056 91 77.5 C 91 84.944 84.944 91 77.5 91 C 70.056 91 64 84.944 64 77.5 C 64 70.056 70.056 64 77.5 64 z M 24.5 67 C 24.224 67 24 67.224 24 67.5 C 24 67.776 24.224 68 24.5 68 L 26.5 68 C 26.776 68 27 67.776 27 67.5 C 27 67.224 26.776 67 26.5 67 L 24.5 67 z M 28.5 67 C 28.224 67 28 67.224 28 67.5 C 28 67.776 28.224 68 28.5 68 L 32.5 68 C 32.776 68 33 67.776 33 67.5 C 33 67.224 32.776 67 32.5 67 L 28.5 67 z M 77.5 69 C 77.224 69 77 69.224 77 69.5 L 77 77 L 69.59375 77 C 69.31775 77 69.09375 77.224 69.09375 77.5 C 69.09375 77.776 69.31775 78 69.59375 78 L 77 78 L 77 85.5 C 77 85.776 77.224 86 77.5 86 C 77.776 86 78 85.776 78 85.5 L 78 78 L 85.5 78 C 85.776 78 86 77.776 86 77.5 C 86 77.224 85.776 77 85.5 77 L 78 77 L 78 69.5 C 78 69.224 77.776 69 77.5 69 z M 42.070312 78 L 57.931641 78 C 57.436641 81.94 54.072 85 50 85 C 45.928 85 42.564313 81.94 42.070312 78 z"/></svg>