<svg xmlns="http://www.w3.org/2000/svg" width="50" height="50" fill="#000" viewBox="0 0 24 24"><path d="M 9 3 C 7.9 3 7 3.9 7 5 L 7 9 L 7 15.191406 C 6.6711584 15.071478 6.3258514 15 6 15 C 4.3 15 3 16.3 3 18 C 3 19.7 4.3 21 6 21 C 7.7 21 9 19.7 9 18 L 9 9 L 18 9 L 18 12.099609 C 18.7 11.999609 19.3 11.999609 20 12.099609 L 20 9 L 20 7 L 20 3 L 9 3 z M 19 14.025391 C 18.675 14.025391 18.35 14.049609 18 14.099609 C 17.1 14.299609 16.299609 14.700391 15.599609 15.400391 C 14.699609 16.200391 14.199609 17.3 14.099609 18.5 L 14.099609 19.099609 C 14.099609 21.899609 16.299609 24.099609 19.099609 24.099609 C 21.899609 24.099609 24.099609 21.899609 24.099609 19.099609 C 23.999609 16.599609 22.3 14.599609 20 14.099609 C 19.65 14.049609 19.325 14.025391 19 14.025391 z M 18 16 L 20 16 L 20 18 L 22 18 L 22 20 L 20 20 L 20 22 L 18 22 L 18 20 L 16 20 L 16 18 L 18 18 L 18 16 z"/></svg>