<svg xmlns="http://www.w3.org/2000/svg" width="50" height="50" viewBox="0 0 64 64"><linearGradient id="5eVrp3dyTe8eacVkGT78Ja" x1="32" x2="32" y1="25" y2="54.939" gradientUnits="userSpaceOnUse"><stop offset="0" stop-color="#6bc5fd"/><stop offset="1" stop-color="#e4a9fd"/></linearGradient><path fill="url(#5eVrp3dyTe8eacVkGT78Ja)" d="M57,37H42c-2.209,0-4,1.791-4,4v2c0,0.552-0.448,1-1,1H20c-0.552,0-1-0.448-1-1V25h-4v18	c0,0.552-0.448,1-1,1H7v4h18c0.552,0,1,0.448,1,1v7h4v-7c0-0.552,0.448-1,1-1h7c2.209,0,4-1.791,4-4v-2c0-0.552,0.448-1,1-1h5	c0.552,0,1,0.448,1,1v14h2V42c0-0.552,0.448-1,1-1h5V37z"/><linearGradient id="5eVrp3dyTe8eacVkGT78Jb" x1="32" x2="32" y1="15.809" y2="19.512" gradientUnits="userSpaceOnUse"><stop offset="0" stop-color="#6bc5fd"/><stop offset="1" stop-color="#e4a9fd"/></linearGradient><circle cx="32" cy="18" r="2" fill="url(#5eVrp3dyTe8eacVkGT78Jb)"/><g><linearGradient id="5eVrp3dyTe8eacVkGT78Jc" x1="32" x2="32" y1="6.745" y2="60.867" gradientUnits="userSpaceOnUse"><stop offset="0" stop-color="#1a6dff"/><stop offset="1" stop-color="#c822ff"/></linearGradient><path fill="url(#5eVrp3dyTe8eacVkGT78Jc)" d="M31,26h2v-2.09c2.507-0.423,4.486-2.403,4.91-4.91H40v-2h-2.09 c-0.423-2.507-2.403-4.486-4.91-4.91V10h-2v2.09c-2.507,0.423-4.486,2.403-4.91,4.91H24v2h2.09c0.423,2.507,2.403,4.486,4.91,4.91 V26z M28,18c0-2.206,1.794-4,4-4s4,1.794,4,4s-1.794,4-4,4S28,20.206,28,18z"/><linearGradient id="5eVrp3dyTe8eacVkGT78Jd" x1="32" x2="32" y1="6.745" y2="60.867" gradientUnits="userSpaceOnUse"><stop offset="0" stop-color="#1a6dff"/><stop offset="1" stop-color="#c822ff"/></linearGradient><path fill="url(#5eVrp3dyTe8eacVkGT78Jd)" d="M55,23H42.935C43.594,21.482,44,19.825,44,18c0-6.617-5.383-12-12-12s-12,5.383-12,12 c0,1.825,0.406,3.482,1.065,5H9c-1.654,0-3,1.346-3,3v29c0,1.654,1.346,3,3,3h46c1.654,0,3-1.346,3-3V26C58,24.346,56.654,23,55,23 z M32,8c5.514,0,10,4.486,10,10c0,4.986-3.79,8.776-6.835,11.821c-1.276,1.276-2.406,2.405-3.165,3.497 c-0.759-1.092-1.889-2.221-3.165-3.497C25.79,26.776,22,22.986,22,18C22,12.486,26.486,8,32,8z M56,55c0,0.552-0.448,1-1,1H9 c-0.552,0-1-0.448-1-1V26c0-0.552,0.448-1,1-1h13.12c1.483,2.41,3.508,4.443,5.301,6.235C29.262,33.076,31,34.814,31,36v2h2v-2 c0-1.186,1.738-2.924,3.579-4.765c1.807-1.807,3.852-3.859,5.338-6.295c0.095,0.03,0.191,0.06,0.296,0.06H55c0.552,0,1,0.448,1,1 V55z"/></g></svg>