<svg xmlns="http://www.w3.org/2000/svg" width="100" height="100" fill="#000" viewBox="0 0 24 24"><path d="M 5 3 C 3.895 3 3 3.895 3 5 L 3 19 C 3 20.105 3.895 21 5 21 L 10.587891 21 C 10.211891 20.073 10 19.062 10 18 C 10 16.107 10.660766 14.37 11.759766 13 L 11.779297 12.955078 C 11.338297 12.852078 11 12.472 11 12 C 11 11.448 11.448 11 12 11 L 14.130859 11 C 15.277859 10.364 16.596 10 18 10 C 19.062 10 20.073 10.211891 21 10.587891 L 21 5 C 21 3.895 20.105 3 19 3 L 5 3 z M 7.5 7 L 8.5 7 C 8.776 7 9 7.224 9 7.5 L 9 8.5 C 9 8.776 8.776 9 8.5 9 L 7.5 9 C 7.224 9 7 8.776 7 8.5 L 7 7.5 C 7 7.224 7.224 7 7.5 7 z M 12 7 L 16 7 C 16.552 7 17 7.448 17 8 C 17 8.552 16.552 9 16 9 L 12 9 C 11.448 9 11 8.552 11 8 C 11 7.448 11.448 7 12 7 z M 7.5 11 L 8.5 11 C 8.776 11 9 11.224 9 11.5 L 9 12.5 C 9 12.776 8.776 13 8.5 13 L 7.5 13 C 7.224 13 7 12.776 7 12.5 L 7 11.5 C 7 11.224 7.224 11 7.5 11 z M 18 12 C 14.7 12 12 14.7 12 18 C 12 21.3 14.7 24 18 24 C 21.3 24 24 21.3 24 18 C 24 14.7 21.3 12 18 12 z M 18 14 C 18.552 14 19 14.448 19 15 L 19 17 L 21 17 C 21.552 17 22 17.448 22 18 C 22 18.552 21.552 19 21 19 L 19 19 L 19 21 C 19 21.552 18.552 22 18 22 C 17.448 22 17 21.552 17 21 L 17 19 L 15 19 C 14.448 19 14 18.552 14 18 C 14 17.448 14.448 17 15 17 L 17 17 L 17 15 C 17 14.448 17.448 14 18 14 z M 7.5 15 L 8.5 15 C 8.776 15 9 15.224 9 15.5 L 9 16.5 C 9 16.776 8.776 17 8.5 17 L 7.5 17 C 7.224 17 7 16.776 7 16.5 L 7 15.5 C 7 15.224 7.224 15 7.5 15 z"/></svg>