<svg xmlns="http://www.w3.org/2000/svg" width="300" height="300" fill="#000" viewBox="0 0 24 24"><path d="M 6 4 C 3.239 4 1 6.239 1 9 C 1 11.761 3.239 14 6 14 L 10 14 L 10 12 L 6 12 C 4.343 12 3 10.657 3 9 C 3 7.343 4.343 6 6 6 L 10 6 L 10 4 L 6 4 z M 14 4 L 14 6 L 18 6 C 19.657 6 21 7.343 21 9 C 21 10.657 19.657 12 18 12 L 14 12 L 14 14 L 18 14 C 20.761 14 23 11.761 23 9 C 23 6.239 20.761 4 18 4 L 14 4 z M 7 8 L 7 10 L 17 10 L 17 8 L 7 8 z M 19 16 L 19 19 L 16 19 L 16 21 L 19 21 L 19 24 L 21 24 L 21 21 L 24 21 L 24 19 L 21 19 L 21 16 L 19 16 z"/></svg>