<svg xmlns="http://www.w3.org/2000/svg" width="500" height="500" fill="#000" viewBox="0 0 24 24"><path d="M 9 3 C 7.9 3 7 3.9 7 5 L 7 15.199219 C 6.2 14.899219 5.3996094 15.000391 4.5996094 15.400391 C 3.0996094 16.100391 2.5007812 17.900391 3.3007812 19.400391 C 3.9007813 20.600391 5.2 21.2 6.5 21 C 8 20.7 9 19.400391 9 17.900391 L 9 10 C 9 9.4 9.4 9 10 9 L 17 9 C 17.6 9 18 9.4 18 10 L 18 12.099609 C 18.7 11.999609 19.3 11.999609 20 12.099609 L 20 5 C 20 3.9 19.1 3 18 3 L 9 3 z M 19 14.025391 C 18.675 14.025391 18.35 14.049609 18 14.099609 C 17.1 14.299609 16.299609 14.700391 15.599609 15.400391 C 14.699609 16.200391 14.199609 17.3 14.099609 18.5 L 14.099609 19.099609 C 14.099609 21.899609 16.299609 24.099609 19.099609 24.099609 C 21.899609 24.099609 24.099609 21.899609 24.099609 19.099609 C 23.999609 16.599609 22.3 14.599609 20 14.099609 C 19.65 14.049609 19.325 14.025391 19 14.025391 z M 19 16 C 19.6 16 20 16.4 20 17 L 20 18 L 21 18 C 21.6 18 22 18.4 22 19 C 22 19.6 21.6 20 21 20 L 20 20 L 20 21 C 20 21.6 19.6 22 19 22 C 18.4 22 18 21.6 18 21 L 18 20 L 17 20 C 16.4 20 16 19.6 16 19 C 16 18.4 16.4 18 17 18 L 18 18 L 18 17 C 18 16.4 18.4 16 19 16 z"/></svg>