<svg fill="#000000" xmlns="http://www.w3.org/2000/svg" viewBox="0 0 32 32" width="500px" height="500px"><path d="M 10 2 L 10 4 L 8 4 L 8 6 L 10 6 L 10 8 L 12 8 L 12 6 L 14 6 L 14 4 L 12 4 L 12 2 L 10 2 z M 18 8 L 18 9 L 18 10 L 12 10 L 11 10 L 10 10 L 10 28 L 18 28 L 18 30 L 24 30 L 24 24 L 18 24 L 18 25 L 18 26 L 12 26 L 12 20 L 18 20 L 18 22 L 24 22 L 24 16 L 18 16 L 18 17 L 18 18 L 12 18 L 12 12 L 18 12 L 18 14 L 24 14 L 24 8 L 18 8 z M 20 10 L 22 10 L 22 12 L 20 12 L 20 10 z M 20 18 L 22 18 L 22 20 L 20 20 L 20 18 z M 20 26 L 22 26 L 22 28 L 20 28 L 20 26 z"/></svg>