<svg xmlns="http://www.w3.org/2000/svg" width="300" height="300" fill="#000" viewBox="0 0 30 30"><path d="M 4 4 C 2.895 4 2 4.895 2 6 L 2 7 L 2 10 L 2 26 L 14.523438 26 C 14.297438 25.362 14.135594 24.695 14.058594 24 L 4 24 L 4 10 L 26 10 L 26 14.523438 C 26.711 14.775438 27.384 15.104578 28 15.517578 L 28 7 L 28 6 C 28 4.895 27.105 4 26 4 L 4 4 z M 8 13 A 1 1 0 0 0 7 14 A 1 1 0 0 0 8 15 A 1 1 0 0 0 9 14 A 1 1 0 0 0 8 13 z M 12 13 C 11.448 13 11 13.448 11 14 C 11 14.552 11.448 15 12 15 L 18.888672 15 C 19.836672 14.512 20.881281 14.185547 21.988281 14.060547 C 21.989281 14.039547 22 14.021 22 14 C 22 13.448 21.552 13 21 13 L 12 13 z M 23 16 C 19.134 16 16 19.134 16 23 C 16 26.866 19.134 30 23 30 C 26.866 30 30 26.866 30 23 C 30 19.134 26.866 16 23 16 z M 8 17 A 1 1 0 0 0 7 18 A 1 1 0 0 0 8 19 A 1 1 0 0 0 9 18 A 1 1 0 0 0 8 17 z M 12 17 C 11.448 17 11 17.448 11 18 C 11 18.552 11.448 19 12 19 L 14.947266 19 C 15.310266 18.271 15.767641 17.6 16.306641 17 L 12 17 z M 23 19 C 23.552 19 24 19.447 24 20 L 24 22 L 26 22 C 26.552 22 27 22.447 27 23 C 27 23.553 26.552 24 26 24 L 24 24 L 24 26 C 24 26.553 23.552 27 23 27 C 22.448 27 22 26.553 22 26 L 22 24 L 20 24 C 19.448 24 19 23.553 19 23 C 19 22.447 19.448 22 20 22 L 22 22 L 22 20 C 22 19.447 22.448 19 23 19 z"/></svg>