<svg xmlns="http://www.w3.org/2000/svg" width="300" height="300" viewBox="0 0 40 40"><path fill="#fff" d="M2.5,35.5v-33h35V35c0,0.276-0.224,0.5-0.5,0.5H2.5z"/><path fill="#788b9c" d="M37,3v32H3V3H37 M38,2H2v34h35c0.552,0,1-0.448,1-1V2L38,2z"/><path fill="#788b9c" d="M2 2H38V8H2z"/><path fill="none" stroke="#8bb7f0" stroke-miterlimit="10" d="M13 15.5L31 15.5M9 15.5L10 15.5M13 19.5L31 19.5M9 19.5L10 19.5M13 23.5L31 23.5M9 23.5L10 23.5M13 27.5L31 27.5M9 27.5L10 27.5"/><path fill="#c2e8ff" d="M22.514 24H31v-1h-7.535C23.13 23.316 22.808 23.645 22.514 24zM20.425 28H31v-1H20.761C20.634 27.326 20.521 27.659 20.425 28z"/><path fill="#c8d1db" d="M21.21,36H38V23.292c-0.402-0.402-0.656-0.905-1-1.081V35H20.761 C20.895,35.342,21.044,35.676,21.21,36z"/><path fill="#bae0bd" d="M31 22.5A8.5 8.5 0 1 0 31 39.5A8.5 8.5 0 1 0 31 22.5Z"/><path fill="#5e9c76" d="M31,23c4.411,0,8,3.589,8,8s-3.589,8-8,8s-8-3.589-8-8S26.589,23,31,23 M31,22 c-4.971,0-9,4.029-9,9s4.029,9,9,9s9-4.029,9-9S35.971,22,31,22L31,22z"/><path fill="none" stroke="#fff" stroke-miterlimit="10" stroke-width="2" d="M31 36L31 26M26 31L36 31"/></svg>