<svg xmlns="http://www.w3.org/2000/svg" width="300" height="300" viewBox="0 0 64 64"><linearGradient id="IaOS5P~ty0SwUTWdP_SDRa" x1="32" x2="32" y1="7.833" y2="56.669" gradientUnits="userSpaceOnUse" spreadMethod="reflect"><stop offset="0" stop-color="#1a6dff"/><stop offset="1" stop-color="#c822ff"/></linearGradient><path fill="url(#IaOS5P~ty0SwUTWdP_SDRa)" d="M51,56H13c-2.757,0-5-2.243-5-5V13c0-2.757,2.243-5,5-5h38c2.757,0,5,2.243,5,5v38 C56,53.757,53.757,56,51,56z M13,10c-1.654,0-3,1.346-3,3v38c0,1.654,1.346,3,3,3h38c1.654,0,3-1.346,3-3V13c0-1.654-1.346-3-3-3H13 z"/><linearGradient id="IaOS5P~ty0SwUTWdP_SDRb" x1="32" x2="32" y1="7.833" y2="56.669" gradientUnits="userSpaceOnUse" spreadMethod="reflect"><stop offset="0" stop-color="#1a6dff"/><stop offset="1" stop-color="#c822ff"/></linearGradient><path fill="url(#IaOS5P~ty0SwUTWdP_SDRb)" d="M50,52H14c-1.103,0-2-0.897-2-2V14c0-1.103,0.897-2,2-2h36c1.103,0,2,0.897,2,2v36 C52,51.103,51.103,52,50,52z M14,14v36h36V14H14z"/><linearGradient id="IaOS5P~ty0SwUTWdP_SDRc" x1="32" x2="32" y1="21.5" y2="42.746" gradientUnits="userSpaceOnUse" spreadMethod="reflect"><stop offset="0" stop-color="#6dc7ff"/><stop offset="1" stop-color="#e6abff"/></linearGradient><path fill="url(#IaOS5P~ty0SwUTWdP_SDRc)" d="M41,30h-7v-7c0-0.552-0.448-1-1-1h-2c-0.552,0-1,0.447-1,1v7h-7c-0.552,0-1,0.447-1,1v2 c0,0.552,0.448,1,1,1h7v7c0,0.552,0.448,1,1,1h2c0.552,0,1-0.448,1-1v-7h7c0.552,0,1-0.448,1-1v-2C42,30.447,41.552,30,41,30z"/></svg>