<svg xmlns="http://www.w3.org/2000/svg" width="100" height="100" fill="#000" viewBox="0 0 24 24"><path d="M 5 3 C 3.895 3 3 3.895 3 5 L 3 7 L 3 19 C 3 20.105 3.895 21 5 21 L 13 21 C 13.552 21 14 20.552 14 20 C 14 19.448 13.552 19 13 19 L 5 19 L 5 7 L 19 7 L 18.998047 13 C 18.998047 13.552 19.446047 14 19.998047 14 C 20.550047 14 20.998047 13.552 20.998047 13 L 20.998047 7 L 21 7 L 21 5 C 21 3.895 20.105 3 19 3 L 5 3 z M 7.5 10 C 7.224 10 7 10.224 7 10.5 L 7 11.5 C 7 11.776 7.224 12 7.5 12 L 8.5 12 C 8.776 12 9 11.776 9 11.5 L 9 10.5 C 9 10.224 8.776 10 8.5 10 L 7.5 10 z M 12 10 C 11.448 10 11 10.448 11 11 C 11 11.552 11.448 12 12 12 L 16 12 C 16.552 12 17 11.552 17 11 C 17 10.448 16.552 10 16 10 L 12 10 z M 7.5 14 C 7.224 14 7 14.224 7 14.5 L 7 15.5 C 7 15.776 7.224 16 7.5 16 L 8.5 16 C 8.776 16 9 15.776 9 15.5 L 9 14.5 C 9 14.224 8.776 14 8.5 14 L 7.5 14 z M 12 14 C 11.448 14 11 14.448 11 15 C 11 15.552 11.448 16 12 16 L 16 16 C 16.552 16 17 15.552 17 15 C 17 14.448 16.552 14 16 14 L 12 14 z M 19.984375 15.986328 A 1.0001 1.0001 0 0 0 19 17 L 19 19 L 17 19 A 1.0001 1.0001 0 1 0 17 21 L 19 21 L 19 23 A 1.0001 1.0001 0 1 0 21 23 L 21 21 L 23 21 A 1.0001 1.0001 0 1 0 23 19 L 21 19 L 21 17 A 1.0001 1.0001 0 0 0 19.984375 15.986328 z"/></svg>