<svg xmlns="http://www.w3.org/2000/svg" width="300" height="300" fill="#000" viewBox="0 0 64 64"><path d="M 26.236328 4 C 25.092328 4 24.064734 4.6352031 23.552734 5.6582031 L 22.207031 8.3476562 C 16.094031 9.6656563 11.276703 14.721625 10.470703 21.140625 L 8.3007812 38.529297 C 8.1307813 39.909297 7.629375 41.250156 6.859375 42.410156 L 2.2402344 49.339844 C 1.6302344 50.259844 1.5698438 51.439922 2.0898438 52.419922 C 2.6098437 53.389922 3.6302344 54 4.7402344 54 L 21.080078 54 C 21.568078 57.387 24.481 60 28 60 C 31.519 60 34.431922 57.387 34.919922 54 L 37 54 C 38.96 58.69 43.6 62 49 62 C 56.17 62 62 56.17 62 49 C 62 41.83 56.17 36 49 36 C 48.46 36 47.930391 36.029609 47.400391 36.099609 L 45.529297 21.140625 C 44.723297 14.721625 39.905969 9.6656562 33.792969 8.3476562 L 32.447266 5.6582031 C 31.936266 4.6352031 30.906672 4 29.763672 4 L 26.236328 4 z M 26.236328 6 L 29.763672 6 C 30.144672 6 30.487203 6.2117344 30.658203 6.5527344 L 31.400391 8.0351562 C 31.147391 8.0231562 30.896625 8 30.640625 8 L 25.359375 8 C 25.103375 8 24.852609 8.0231562 24.599609 8.0351562 L 25.341797 6.5527344 C 25.512797 6.2117344 25.855328 6 26.236328 6 z M 25.359375 10 L 30.640625 10 C 37.180625 10 42.729062 14.900625 43.539062 21.390625 L 45.429688 36.509766 C 39.989688 38.059766 36 43.07 36 49 C 36 50.03 36.119609 51.04 36.349609 52 L 4.7402344 52 C 4.2002344 52 3.939375 51.630703 3.859375 51.470703 C 3.769375 51.310703 3.6101563 50.899219 3.9101562 50.449219 L 8.2011719 44 L 34.167969 44 C 34.720969 44 35.167969 43.552 35.167969 43 C 35.167969 42.448 34.720969 42 34.167969 42 L 9.3476562 42 C 9.8176563 40.979 10.150063 39.895297 10.289062 38.779297 L 12.460938 21.390625 C 13.270937 14.900625 18.819375 10 25.359375 10 z M 29.876953 13 C 29.323953 13 28.876953 13.448 28.876953 14 C 28.876953 14.552 29.323953 15 29.876953 15 C 31.676953 15 33.432359 15.631344 34.818359 16.777344 C 35.005359 16.931344 35.231078 17.007812 35.455078 17.007812 C 35.743078 17.007812 36.029562 16.883531 36.226562 16.644531 C 36.579563 16.219531 36.51875 15.588328 36.09375 15.236328 C 34.34875 13.793328 32.140953 13 29.876953 13 z M 37.837891 18.154297 C 37.707906 18.157359 37.575969 18.186891 37.449219 18.244141 C 36.946219 18.471141 36.720266 19.063406 36.947266 19.566406 C 37.305266 20.362406 37.524563 21.208938 37.601562 22.085938 C 37.645563 22.606938 38.083656 23 38.597656 23 C 38.625656 23 38.654594 22.999094 38.683594 22.996094 C 39.233594 22.949094 39.64175 22.464062 39.59375 21.914062 C 39.49875 20.812062 39.222484 19.746141 38.771484 18.744141 C 38.600484 18.366891 38.227844 18.145109 37.837891 18.154297 z M 49 38 C 55.07 38 60 42.93 60 49 C 60 55.07 55.07 60 49 60 C 44.73 60 41.019219 57.56 39.199219 54 C 38.879219 53.37 38.609922 52.7 38.419922 52 C 38.139922 51.05 38 50.04 38 49 C 38 44.09 41.229688 39.919766 45.679688 38.509766 C 46.309688 38.309766 46.970625 38.169844 47.640625 38.089844 C 48.090625 38.029844 48.54 38 49 38 z M 49 42 C 48.447 42 48 42.448 48 43 L 48 48 L 43 48 C 42.447 48 42 48.448 42 49 C 42 49.552 42.447 50 43 50 L 48 50 L 48 55 C 48 55.552 48.447 56 49 56 C 49.553 56 50 55.552 50 55 L 50 50 L 55 50 C 55.553 50 56 49.552 56 49 C 56 48.448 55.553 48 55 48 L 50 48 L 50 43 C 50 42.448 49.553 42 49 42 z M 8 46 C 7.447 46 7 46.448 7 47 L 7 49 C 7 49.552 7.447 50 8 50 C 8.553 50 9 49.552 9 49 L 9 47 C 9 46.448 8.553 46 8 46 z M 13 46 C 12.447 46 12 46.448 12 47 L 12 49 C 12 49.552 12.447 50 13 50 C 13.553 50 14 49.552 14 49 L 14 47 C 14 46.448 13.553 46 13 46 z M 18 46 C 17.447 46 17 46.448 17 47 L 17 49 C 17 49.552 17.447 50 18 50 C 18.553 50 19 49.552 19 49 L 19 47 C 19 46.448 18.553 46 18 46 z M 23 46 C 22.447 46 22 46.448 22 47 L 22 49 C 22 49.552 22.447 50 23 50 C 23.553 50 24 49.552 24 49 L 24 47 C 24 46.448 23.553 46 23 46 z M 28 46 C 27.447 46 27 46.448 27 47 L 27 49 C 27 49.552 27.447 50 28 50 C 28.553 50 29 49.552 29 49 L 29 47 C 29 46.448 28.553 46 28 46 z M 33 46 C 32.447 46 32 46.448 32 47 L 32 49 C 32 49.552 32.447 50 33 50 C 33.553 50 34 49.552 34 49 L 34 47 C 34 46.448 33.553 46 33 46 z M 23.101562 54 L 32.898438 54 C 32.433437 56.279 30.414 58 28 58 C 25.586 58 23.566562 56.279 23.101562 54 z"/></svg>