<svg fill="#000000" xmlns="http://www.w3.org/2000/svg" viewBox="0 0 26 26" width="300px" height="300px"><path d="M 3 0 C 1.34375 0 0 1.34375 0 3 L 0 20 C 0 21.65625 1.34375 23 3 23 L 12.78125 23 C 12.519531 22.371094 12.339844 21.699219 12.25 21 L 3 21 C 2.449219 21 2 20.550781 2 20 L 2 3 C 2 2.449219 2.449219 2 3 2 L 21 2 C 21.550781 2 22 2.449219 22 3 L 22 12.46875 C 22.710938 12.65625 23.382813 12.945313 24 13.3125 L 24 3 C 24 1.34375 22.65625 0 21 0 Z M 5 5 C 4.449219 5 4 5.449219 4 6 L 4 7 C 4 7.550781 4.449219 8 5 8 L 6 8 C 6.550781 8 7 7.550781 7 7 L 7 6 C 7 5.449219 6.550781 5 6 5 Z M 10 5.0625 C 9.449219 5.0625 9 5.511719 9 6.0625 L 9 7.0625 C 9 7.613281 9.449219 8.0625 10 8.0625 L 19 8.0625 C 19.550781 8.0625 20 7.613281 20 7.0625 L 20 6.0625 C 20 5.511719 19.550781 5.0625 19 5.0625 Z M 5 10.0625 C 4.449219 10.0625 4 10.511719 4 11.0625 L 4 12.0625 C 4 12.613281 4.449219 13.0625 5 13.0625 L 6 13.0625 C 6.550781 13.0625 7 12.613281 7 12.0625 L 7 11.0625 C 7 10.511719 6.550781 10.0625 6 10.0625 Z M 10 10.0625 C 9.449219 10.0625 9 10.511719 9 11.0625 L 9 12.0625 C 9 12.613281 9.449219 13.0625 10 13.0625 L 16.4375 13.0625 C 17.5 12.511719 18.6875 12.191406 19.96875 12.1875 C 19.972656 12.144531 20 12.109375 20 12.0625 L 20 11.0625 C 20 10.511719 19.550781 10.0625 19 10.0625 Z M 20 14.1875 C 16.789063 14.1875 14.1875 16.789063 14.1875 20 C 14.1875 23.210938 16.789063 25.8125 20 25.8125 C 23.210938 25.8125 25.8125 23.210938 25.8125 20 C 25.8125 16.789063 23.210938 14.1875 20 14.1875 Z M 5 15.0625 C 4.449219 15.0625 4 15.511719 4 16.0625 L 4 17.0625 C 4 17.613281 4.449219 18.0625 5 18.0625 L 6 18.0625 C 6.550781 18.0625 7 17.613281 7 17.0625 L 7 16.0625 C 7 15.511719 6.550781 15.0625 6 15.0625 Z M 10 15.0625 C 9.449219 15.0625 9 15.511719 9 16.0625 L 9 17.0625 C 9 17.613281 9.449219 18.0625 10 18.0625 L 12.4375 18.0625 C 12.722656 16.949219 13.230469 15.925781 13.9375 15.0625 Z M 19 17 L 21 17 L 21 19 L 23 19 L 23 21 L 21 21 L 21 23 L 19 23 L 19 21 L 17 21 L 17 19 L 19 19 Z"/></svg>