<svg xmlns="http://www.w3.org/2000/svg" width="50" height="50" fill="#000" viewBox="0 0 100 100"><path d="M 50 12 C 37.861562 12 28 21.861562 28 34 C 28 39.899153 30.652289 46.220694 34.048828 52 L 27.4375 52 C 26.198569 52 25.079743 52.770941 24.638672 53.929688 L 13.199219 83.929688 C 12.461226 85.861751 13.927568 88 15.996094 88 L 84.003906 88 C 86.071911 88 87.537309 85.861782 86.800781 83.929688 L 75.361328 53.929688 C 74.919127 52.771898 73.801431 52 72.5625 52 L 65.951172 52 C 69.347711 46.220694 72 39.899153 72 34 C 72 21.861562 62.138438 12 50 12 z M 50 14 C 61.057562 14 70 22.942438 70 34 C 70 41.5625 64.888214 50.734822 59.689453 57.914062 C 55.05663 64.311771 50.953695 68.556336 50 69.53125 C 49.046305 68.556336 44.94337 64.311771 40.310547 57.914062 C 35.111786 50.734822 30 41.5625 30 34 C 30 22.942438 38.942438 14 50 14 z M 50 18 C 41.169751 18 34 25.169751 34 34 C 34 42.830249 41.169751 50 50 50 C 58.657054 50 65.699148 43.1065 65.974609 34.515625 A 0.50024408 0.50024408 0 0 0 64.974609 34.484375 C 64.71607 42.5475 58.126946 49 50 49 C 41.710249 49 35 42.289751 35 34 C 35 25.710249 41.710249 19 50 19 C 52.248555 19 54.371965 19.508167 56.289062 20.396484 A 0.50005 0.50005 0 1 0 56.710938 19.490234 C 54.670036 18.544551 52.399445 18 50 18 z M 58.492188 20.542969 A 0.50005 0.50005 0 0 0 58.224609 21.462891 C 59.604831 22.37111 60.820796 23.503831 61.833984 24.806641 A 0.50005 0.50005 0 1 0 62.623047 24.193359 C 61.544235 22.806169 60.249169 21.598687 58.775391 20.628906 A 0.50005 0.50005 0 0 0 58.492188 20.542969 z M 50 22 C 43.378501 22 38 27.378506 38 34 C 38 40.621494 43.378501 46 50 46 C 56.621499 46 62 40.621494 62 34 C 62 27.378506 56.621499 22 50 22 z M 50 23 C 56.081059 23 61 27.918945 61 34 C 61 40.081055 56.081059 45 50 45 C 43.918941 45 39 40.081055 39 34 C 39 27.918945 43.918941 23 50 23 z M 64.029297 26.994141 A 0.50005 0.50005 0 0 0 63.603516 27.710938 C 63.749773 28.025582 63.884402 28.348289 64.009766 28.677734 A 0.50005 0.50005 0 1 0 64.943359 28.322266 C 64.810723 27.973711 64.667509 27.628419 64.509766 27.289062 A 0.50005 0.50005 0 0 0 64.029297 26.994141 z M 27.4375 54 L 35.257812 54 C 36.370525 55.767037 37.527434 57.481244 38.689453 59.085938 C 43.990693 66.406696 49.292969 71.707031 49.292969 71.707031 A 1.0001 1.0001 0 0 0 50.707031 71.707031 C 50.707031 71.707031 56.009307 66.406696 61.310547 59.085938 C 62.472566 57.481244 63.629475 55.767037 64.742188 54 L 72.5625 54 C 72.977569 54 73.342388 54.250367 73.492188 54.642578 L 84.933594 84.642578 L 84.931641 84.642578 C 85.19316 85.328484 84.731901 86 84.003906 86 L 15.996094 86 C 15.26662 86 14.806352 85.328514 15.068359 84.642578 L 26.507812 54.642578 C 26.656743 54.251324 27.022431 54 27.4375 54 z M 29.164062 57 A 0.50005 0.50005 0 0 0 28.697266 57.322266 L 19.164062 82.322266 A 0.50005 0.50005 0 0 0 19.630859 83 L 62.5 83 A 0.50005 0.50005 0 1 0 62.5 82 L 20.355469 82 L 29.507812 58 L 33.5 58 A 0.50005 0.50005 0 1 0 33.5 57 L 29.164062 57 z M 66.5 57 A 0.50005 0.50005 0 1 0 66.5 58 L 70.492188 58 L 77.996094 77.677734 A 0.50005 0.50005 0 1 0 78.929688 77.322266 L 71.302734 57.322266 A 0.50005 0.50005 0 0 0 70.835938 57 L 66.5 57 z M 64.5 82 A 0.50005 0.50005 0 1 0 64.5 83 L 69.5 83 A 0.50005 0.50005 0 1 0 69.5 82 L 64.5 82 z M 71.5 82 A 0.50005 0.50005 0 1 0 71.5 83 L 72.5 83 A 0.50005 0.50005 0 1 0 72.5 82 L 71.5 82 z"/></svg>