<svg xmlns="http://www.w3.org/2000/svg" width="500" height="500" fill="#000" viewBox="0 0 24 24"><path d="M 4 3 C 3.562 3 3 3.328 3 4 C 3 8.539 4.8407969 12.873203 7.9667969 16.033203 C 11.126797 19.159203 15.461 21 20 21 C 20.672 21 21 20.438 21 20 L 21 16.490234 C 21 15.945234 20.568437 15.501281 20.023438 15.488281 C 19.393438 15.473281 18.600609 15.435656 18.099609 15.347656 C 17.557609 15.251656 16.904312 15.066828 16.445312 14.923828 C 16.085313 14.811828 15.694734 14.909781 15.427734 15.175781 L 13.210938 17.380859 C 11.678937 16.573859 10.451109 15.632891 9.4121094 14.587891 C 8.3671094 13.548891 7.4261406 12.321063 6.6191406 10.789062 L 8.8242188 8.5722656 C 9.0902187 8.3052656 9.1881719 7.9127344 9.0761719 7.5527344 C 8.9341719 7.0947344 8.7473437 6.4423906 8.6523438 5.9003906 C 8.5633437 5.3993906 8.5277188 4.6065625 8.5117188 3.9765625 C 8.4987188 3.4315625 8.0547656 3 7.5097656 3 L 4 3 z M 16 3 L 16 6 L 13 6 L 13 8 L 16 8 L 16 11 L 18 11 L 18 8 L 21 8 L 21 6 L 18 6 L 18 3 L 16 3 z"/></svg>