<svg xmlns="http://www.w3.org/2000/svg" width="100" height="100" viewBox="0 0 100 100"><path fill="#fefdef" d="M72.039,74.087H21.561c-2.567,0-4.667-2.1-4.667-4.667V39.608c0-2.567,2.1-4.667,4.667-4.667h50.479c2.567,0,4.667,2.1,4.667,4.667V69.42C76.706,71.987,74.606,74.087,72.039,74.087z"/><path fill="none" d="M38.412 52.324L17.925 37.8M74.731 37.8L53.538 52.263M17.544 70.375l27.064-18.998c.64-.449 1.526-.464 2.183-.037l29.33 19.035"/><path fill="#fefdef" d="M67.269,40.675V29.818c-5.478-4.852-8.608-7.624-14.086-12.477H40.093h-6.334h-1.971h-0.882c-3.341,0-6.075,2.421-6.075,5.381v17.11"/><path fill="#ceccbe" d="M51.578 42.771L51.578 34.453 61.252 34.453 61.252 44.312 53.694 44.312M67.165 30.39h-8.109c-3.5 0-6.364-2.5-6.364-5.555v-7.077h2.287l12.396 12.174L67.165 30.39z"/><path fill="#a1d3a2" d="M69.71 52.980999999999995A13.295 13.295 0 1 0 69.71 79.571A13.295 13.295 0 1 0 69.71 52.980999999999995Z"/><path fill="#1f212b" d="M30.437 43.953h17c.276 0 .5-.224.5-.5s-.224-.5-.5-.5h-17c-.276 0-.5.224-.5.5S30.161 43.953 30.437 43.953zM30.437 38.953h17c.276 0 .5-.224.5-.5s-.224-.5-.5-.5h-17c-.276 0-.5.224-.5.5S30.161 38.953 30.437 38.953zM51.437 42.953c.276 0 .5-.224.5-.5v-7.5h9v9h-7.5c-.276 0-.5.224-.5.5s.224.5.5.5h8c.276 0 .5-.224.5-.5v-10c0-.276-.224-.5-.5-.5h-10c-.276 0-.5.224-.5.5v8C50.937 42.729 51.161 42.953 51.437 42.953zM30.437 34.953h17c.276 0 .5-.224.5-.5s-.224-.5-.5-.5h-17c-.276 0-.5.224-.5.5S30.161 34.953 30.437 34.953z"/><path fill="#1f212b" d="M77.937,54.731V40.62c0-3.125-2.542-5.667-5.667-5.667h-4.333v-5.023c0-0.133-0.053-0.26-0.146-0.354L55.314,17.099c-0.094-0.094-0.221-0.146-0.354-0.146H31.45c-3.591,0-6.513,2.638-6.513,5.881v12.119h-3.333c-3.125,0-5.667,2.542-5.667,5.667v29.666c0,3.125,2.542,5.667,5.667,5.667h36.905c2.66,3.056,6.568,5,10.928,5c7.995,0,14.5-6.505,14.5-14.5C83.937,61.634,81.565,57.369,77.937,54.731z M21.604,36.953h3.333v2.5c0,0.276,0.224,0.5,0.5,0.5s0.5-0.224,0.5-0.5V22.834c0-2.691,2.473-4.881,5.513-4.881h20.487v6.945c0,3.339,3.079,6.055,6.864,6.055h8.282c0.276,0,0.292-0.224,0.292-0.5s-0.661-0.5-0.938-0.5h-7.636c-3.233,0-5.864-2.268-5.864-5.055v-6.945h1.816l12.184,12.184v0.316v10c0,0.276,0.224,0.5,0.5,0.5s0.5-0.224,0.5-0.5v-3.5h4.333c0.888,0,1.691,0.33,2.326,0.856c-0.033,0.013-0.067,0.02-0.098,0.041L53.305,52.313c-0.228,0.156-0.286,0.467-0.131,0.695c0.097,0.142,0.254,0.218,0.413,0.218c0.098,0,0.195-0.028,0.282-0.087l21.193-14.464c0.077-0.053,0.127-0.126,0.164-0.206c0.442,0.606,0.71,1.345,0.71,2.15v12.89c-1.958-0.988-4.162-1.557-6.5-1.557c-4.912,0-9.254,2.461-11.878,6.209l-10.445-6.779c-0.83-0.537-1.933-0.52-2.743,0.048L17.937,69.986V40.62c0-0.547,0.128-1.061,0.344-1.528l19.893,14.103c0.088,0.062,0.188,0.092,0.289,0.092c0.156,0,0.311-0.073,0.408-0.211c0.159-0.226,0.106-0.537-0.119-0.697L18.826,38.253C19.5,37.464,20.488,36.953,21.604,36.953z M21.604,73.953c-1.73,0-3.175-1.207-3.559-2.821l26.9-18.883c0.47-0.329,1.138-0.342,1.624-0.027l10.451,6.783c-1.313,2.18-2.083,4.723-2.083,7.448c0,2.747,0.782,5.308,2.114,7.5H21.604z M69.437,78.953c-6.893,0-12.5-5.607-12.5-12.5s5.607-12.5,12.5-12.5s12.5,5.607,12.5,12.5S76.33,78.953,69.437,78.953z"/><path fill="#1f212b" d="M76.437,65.953h-6.5v-5.5c0-0.276-0.224-0.5-0.5-0.5s-0.5,0.224-0.5,0.5v5.5h-5.5c-0.276,0-0.5,0.224-0.5,0.5s0.224,0.5,0.5,0.5h5.5v6.5c0,0.276,0.224,0.5,0.5,0.5s0.5-0.224,0.5-0.5v-6.5h6.5c0.276,0,0.5-0.224,0.5-0.5S76.713,65.953,76.437,65.953z"/></svg>