<svg xmlns="http://www.w3.org/2000/svg" width="300" height="300" fill="#000" viewBox="0 0 24 24"><path d="M 3 3 L 3 21 L 10.587891 21 C 10.211891 20.073 10 19.062 10 18 C 10 16.107 10.660766 14.37 11.759766 13 L 11 13 L 11 11 L 14.130859 11 C 15.277859 10.364 16.596 10 18 10 C 19.062 10 20.073 10.211891 21 10.587891 L 21 3 L 3 3 z M 7 7 L 9 7 L 9 9 L 7 9 L 7 7 z M 11 7 L 17 7 L 17 9 L 11 9 L 11 7 z M 7 11 L 9 11 L 9 13 L 7 13 L 7 11 z M 18.425781 12.015625 C 13.703115 11.685337 9.995375 16.905766 13.203125 21.783203 C 13.467125 22.184203 13.815797 22.533875 14.216797 22.796875 C 20.219797 26.743875 26.744875 20.217844 22.796875 14.214844 C 22.532875 13.813844 22.186156 13.467125 21.785156 13.203125 C 20.659594 12.463062 19.515627 12.091845 18.425781 12.015625 z M 7 15 L 9 15 L 9 17 L 7 17 L 7 15 z M 17 15 L 19 15 L 19 17 L 21 17 L 21 19 L 19 19 L 19 21 L 17 21 L 17 19 L 15 19 L 15 17 L 17 17 L 17 15 z"/></svg>