<svg xmlns="http://www.w3.org/2000/svg" width="500" height="500" viewBox="0 0 100 100"><path fill="#ee3e54" d="M13 27A2 2 0 1 0 13 31A2 2 0 1 0 13 27Z"/><path fill="#f1bc19" d="M77 12A1 1 0 1 0 77 14A1 1 0 1 0 77 12Z"/><path fill="#fce0a2" d="M50 13A37 37 0 1 0 50 87A37 37 0 1 0 50 13Z"/><path fill="#f1bc19" d="M83 11A4 4 0 1 0 83 19A4 4 0 1 0 83 11Z"/><path fill="#ee3e54" d="M87 22A2 2 0 1 0 87 26A2 2 0 1 0 87 22Z"/><path fill="#fbcd59" d="M81 74A2 2 0 1 0 81 78 2 2 0 1 0 81 74zM15 59A4 4 0 1 0 15 67 4 4 0 1 0 15 59z"/><path fill="#ee3e54" d="M25 85A2 2 0 1 0 25 89A2 2 0 1 0 25 85Z"/><path fill="#fff" d="M18.5 51A2.5 2.5 0 1 0 18.5 56A2.5 2.5 0 1 0 18.5 51Z"/><path fill="#f1bc19" d="M21 66A1 1 0 1 0 21 68A1 1 0 1 0 21 66Z"/><path fill="#fff" d="M80 33A1 1 0 1 0 80 35A1 1 0 1 0 80 33Z"/><g><path fill="#a1d3a2" d="M35,72.3c-4.025,0-7.3-3.274-7.3-7.3V35c0-4.025,3.274-7.3,7.3-7.3h30c4.025,0,7.3,3.274,7.3,7.3 v30c0,4.025-3.274,7.3-7.3,7.3H35z"/><path fill="#472b29" d="M65,28.4c3.639,0,6.6,2.961,6.6,6.6v30c0,3.639-2.961,6.6-6.6,6.6H35c-3.639,0-6.6-2.961-6.6-6.6 V35c0-3.639,2.961-6.6,6.6-6.6H65 M65,27H35c-4.4,0-8,3.6-8,8v30c0,4.4,3.6,8,8,8h30c4.4,0,8-3.6,8-8V35C73,30.6,69.4,27,65,27 L65,27z"/></g><g><path fill="#472b29" d="M68.5,47.375c-0.276,0-0.5-0.224-0.5-0.5V43c0-0.276,0.224-0.5,0.5-0.5S69,42.724,69,43v3.875 C69,47.151,68.776,47.375,68.5,47.375z"/></g><g><path fill="#472b29" d="M68.5,40.5c-0.276,0-0.5-0.224-0.5-0.5v-2c0-0.276,0.224-0.5,0.5-0.5S69,37.724,69,38v2 C69,40.276,68.776,40.5,68.5,40.5z"/></g><g><path fill="#472b29" d="M64,69H36c-2.757,0-5-2.243-5-5V36c0-2.757,2.243-5,5-5h25.375c0.276,0,0.5,0.224,0.5,0.5 s-0.224,0.5-0.5,0.5H36c-2.206,0-4,1.794-4,4v28c0,2.206,1.794,4,4,4h28c2.206,0,4-1.794,4-4V49.625c0-0.276,0.224-0.5,0.5-0.5 s0.5,0.224,0.5,0.5V64C69,66.757,66.757,69,64,69z"/></g><g><path fill="#fdfcee" d="M59.722,48.5H51.5v-8.917c0.236-0.959-0.541-1.736-1.5-1.736c-0.959,0-1.736,0.777-1.5,1.736V48.5 h-8.222c-0.959-0.236-1.736,0.541-1.736,1.5s0.777,1.736,1.736,1.5H48.5v8.917c-0.236,0.959,0.541,1.736,1.5,1.736 c0.959,0,1.736-0.777,1.5-1.736V51.5h8.222c0.959,0.236,1.736-0.541,1.736-1.5S60.681,48.264,59.722,48.5z"/><path fill="#472b29" d="M50,62.652c-0.656,0-1.275-0.29-1.656-0.776c-0.339-0.433-0.46-0.969-0.344-1.516V52h-7.666 c-0.546,0.12-1.083-0.005-1.517-0.344c-0.486-0.381-0.776-1-0.776-1.656s0.29-1.275,0.776-1.656 c0.434-0.339,0.97-0.462,1.517-0.344H48v-8.36c-0.117-0.547,0.004-1.083,0.344-1.516c0.381-0.486,1-0.776,1.656-0.776 s1.275,0.29,1.656,0.776c0.339,0.433,0.46,0.969,0.344,1.516V48h7.666c0.549-0.117,1.083,0.005,1.517,0.344 c0.486,0.381,0.776,1,0.776,1.656s-0.29,1.275-0.776,1.656c-0.433,0.339-0.968,0.464-1.517,0.344H52v8.36 c0.117,0.547-0.004,1.083-0.344,1.516C51.275,62.362,50.656,62.652,50,62.652z M40.217,51H49l-0.015,9.537 c-0.083,0.337,0.033,0.579,0.146,0.723c0.386,0.492,1.353,0.492,1.738,0c0.112-0.144,0.229-0.386,0.146-0.723L51,60.417V51 l8.842,0.015c0.339,0.084,0.581-0.032,0.724-0.146c0.246-0.193,0.393-0.518,0.393-0.869s-0.147-0.676-0.393-0.869 c-0.144-0.112-0.386-0.228-0.724-0.146L59.722,49H51l0.015-9.537c0.083-0.337-0.033-0.579-0.146-0.723 c-0.386-0.492-1.353-0.492-1.738,0c-0.112,0.144-0.229,0.386-0.146,0.723L49,39.583V49l-8.842-0.015 c-0.337-0.081-0.58,0.033-0.724,0.146c-0.246,0.193-0.393,0.518-0.393,0.869s0.147,0.676,0.393,0.869 c0.144,0.112,0.384,0.228,0.724,0.146L40.217,51z"/></g></svg>