<svg xmlns="http://www.w3.org/2000/svg" width="100" height="100" fill="#000" viewBox="0 0 50 50"><path d="M 2.8125 0 C 1.277344 0 0 1.277344 0 2.8125 L 0 7.8125 C -0.0078125 7.875 -0.0078125 7.9375 0 8 L 0 40 C 0 40.550781 0.449219 41 1 41 L 27 41 C 27.359375 41.003906 27.695313 40.816406 27.878906 40.503906 C 28.058594 40.191406 28.058594 39.808594 27.878906 39.496094 C 27.695313 39.183594 27.359375 38.996094 27 39 L 2 39 L 2 9 L 42 9 L 42 27 C 41.996094 27.359375 42.183594 27.695313 42.496094 27.878906 C 42.808594 28.058594 43.191406 28.058594 43.503906 27.878906 C 43.816406 27.695313 44.003906 27.359375 44 27 L 44 8 C 44.007813 7.9375 44.007813 7.875 44 7.8125 L 44 2.8125 C 44 1.277344 42.722656 0 41.1875 0 Z M 2.8125 2 L 41.1875 2 C 41.652344 2 42 2.347656 42 2.8125 L 42 7 L 2 7 L 2 2.8125 C 2 2.347656 2.347656 2 2.8125 2 Z M 7 15 L 7 17 L 11 17 L 11 15 Z M 14 15 L 14 17 L 37 17 L 37 15 Z M 7 20 L 7 22 L 11 22 L 11 20 Z M 14 20 L 14 22 L 37 22 L 37 20 Z M 7 25 L 7 27 L 11 27 L 11 25 Z M 14 25 L 14 27 L 37 27 L 37 25 Z M 7 30 L 7 32 L 11 32 L 11 30 Z M 14 30 L 14 32 L 30 32 L 30 30 Z M 40 30 C 34.488281 30 30 34.488281 30 40 C 30 45.511719 34.488281 50 40 50 C 45.511719 50 50 45.511719 50 40 C 50 34.488281 45.511719 30 40 30 Z M 40 32 C 44.429688 32 48 35.570313 48 40 C 48 44.429688 44.429688 48 40 48 C 35.570313 48 32 44.429688 32 40 C 32 35.570313 35.570313 32 40 32 Z M 39 35 L 39 39 L 35 39 L 35 41 L 39 41 L 39 45 L 41 45 L 41 41 L 45 41 L 45 39 L 41 39 L 41 35 Z"/></svg>