<svg xmlns="http://www.w3.org/2000/svg" viewBox="0 0 30 30" width="500px" height="500px"><path fill="#fff" d="M1.5 11.5H28.5V18.5H1.5z"/><path fill="#788b9c" d="M28,12v6H2v-6H28 M29,11H1v8h28V11L29,11z"/><g><path fill="#bae0bd" d="M23 16.5A6.5 6.5 0 1 0 23 29.5A6.5 6.5 0 1 0 23 16.5Z"/><path fill="#5e9c76" d="M23,17c3.3,0,6,2.7,6,6s-2.7,6-6,6s-6-2.7-6-6S19.7,17,23,17 M23,16c-3.9,0-7,3.1-7,7s3.1,7,7,7 s7-3.1,7-7S26.9,16,23,16L23,16z"/><path fill="#fff" d="M22 19H24V27H22z"/><path fill="#fff" d="M19 22H27V24H19z"/></g></svg>