<svg xmlns="http://www.w3.org/2000/svg" width="100" height="100" viewBox="0 0 80 80"><path fill="#b0c1d4" d="M63.5 69.5A4 4 0 1 0 63.5 77.5A4 4 0 1 0 63.5 69.5Z"/><path fill="#66798f" d="M63.5,70c1.9,0,3.5,1.6,3.5,3.5S65.4,77,63.5,77S60,75.4,60,73.5S61.6,70,63.5,70 M63.5,69 C61,69,59,71,59,73.5s2,4.5,4.5,4.5s4.5-2,4.5-4.5S66,69,63.5,69L63.5,69z"/><path fill="#66798f" d="M63.5 72A1.5 1.5 0 1 0 63.5 75A1.5 1.5 0 1 0 63.5 72Z"/><path fill="#b0c1d4" d="M37.5 69.5A4 4 0 1 0 37.5 77.5A4 4 0 1 0 37.5 69.5Z"/><path fill="#66798f" d="M37.5,70c1.9,0,3.5,1.6,3.5,3.5S39.4,77,37.5,77S34,75.4,34,73.5S35.6,70,37.5,70 M37.5,69 C35,69,33,71,33,73.5s2,4.5,4.5,4.5s4.5-2,4.5-4.5S40,69,37.5,69L37.5,69z"/><path fill="#66798f" d="M37.5 72A1.5 1.5 0 1 0 37.5 75A1.5 1.5 0 1 0 37.5 72Z"/><path fill="#bae0bd" d="M26.1,51.5l-6.3-36.4l57.6,7.9l-7.1,26c-0.4,1.5-1.8,2.6-3.4,2.6H26.1z"/><path fill="#5e9c76" d="M20.4,15.7l56.3,7.7l-6.9,25.4c-0.4,1.3-1.5,2.2-2.9,2.2H26.6L20.4,15.7 M19.2,14.5L25.7,52h41.2 c1.8,0,3.4-1.2,3.9-2.9L78,22.5L19.2,14.5L19.2,14.5z"/><path fill="#66798f" d="M70,70H36.2c-4.7,0-8.7-3.3-9.5-8l-9-51.7C17.1,6.7,13.9,4,10.2,4H6V2h4.2c4.7,0,8.7,3.3,9.5,8 l9,51.7c0.6,3.7,3.8,6.3,7.5,6.3H70V70z"/><g><path fill="#bae0bd" d="M6 2.5A3.5 3.5 0 1 0 6 9.5A3.5 3.5 0 1 0 6 2.5Z"/><path fill="#5e9c76" d="M6,3c1.7,0,3,1.3,3,3S7.7,9,6,9S3,7.7,3,6S4.3,3,6,3 M6,2C3.8,2,2,3.8,2,6s1.8,4,4,4s4-1.8,4-4 S8.2,2,6,2L6,2z"/></g><path fill="#fff" d="M45 25H49V45H45z"/><path fill="#fff" d="M37 33H57V37H37z"/></svg>