<svg fill="#000000" xmlns="http://www.w3.org/2000/svg" viewBox="0 0 50 50" width="50px" height="50px"><path d="M 11 2 C 10.846625 2 10.693734 2.0349687 10.552734 2.1054688 L 9 2.8828125 L 7.4472656 2.1054688 C 7.1372656 1.9514688 6.7706094 1.9664375 6.4746094 2.1484375 C 6.1806094 2.3314375 6 2.653 6 3 L 6 47 C 6 47.553 6.448 48 7 48 L 31.074219 48 C 30.523219 47.386 30.033187 46.718 29.617188 46 L 8 46 L 8 4.6171875 L 8.5527344 4.8945312 C 8.8337344 5.0355313 9.1652656 5.0355313 9.4472656 4.8945312 L 11 4.1171875 L 12.552734 4.8945312 C 12.833734 5.0355313 13.165266 5.0355313 13.447266 4.8945312 L 15 4.1171875 L 16.552734 4.8945312 C 16.833734 5.0355313 17.165266 5.0355313 17.447266 4.8945312 L 19 4.1171875 L 20.552734 4.8945312 C 20.833734 5.0355313 21.165266 5.0355313 21.447266 4.8945312 L 23 4.1171875 L 24.552734 4.8945312 C 24.833734 5.0355313 25.165266 5.0355313 25.447266 4.8945312 L 27 4.1171875 L 28.552734 4.8945312 C 28.833734 5.0355313 29.165266 5.0355313 29.447266 4.8945312 L 31 4.1171875 L 32.552734 4.8945312 C 32.833734 5.0355313 33.165266 5.0355313 33.447266 4.8945312 L 35 4.1171875 L 36.552734 4.8945312 C 36.833734 5.0355313 37.165266 5.0355313 37.447266 4.8945312 L 39 4.1171875 L 40.552734 4.8945312 C 40.833734 5.0355313 41.165266 5.0355313 41.447266 4.8945312 L 42 4.6171875 L 42 28.179688 C 42.689 28.295687 43.356 28.469266 44 28.697266 L 44 3 C 44 2.653 43.819391 2.3314375 43.525391 2.1484375 C 43.229391 1.9654375 42.861734 1.9514688 42.552734 2.1054688 L 41 2.8828125 L 39.447266 2.1054688 C 39.166266 1.9644687 38.834734 1.9644687 38.552734 2.1054688 L 37 2.8828125 L 35.447266 2.1054688 C 35.166266 1.9644687 34.834734 1.9644687 34.552734 2.1054688 L 33 2.8828125 L 31.447266 2.1054688 C 31.166266 1.9644687 30.834734 1.9644687 30.552734 2.1054688 L 29 2.8828125 L 27.447266 2.1054688 C 27.166266 1.9644687 26.834734 1.9644687 26.552734 2.1054688 L 25 2.8828125 L 23.447266 2.1054688 C 23.166266 1.9644687 22.834734 1.9644687 22.552734 2.1054688 L 21 2.8828125 L 19.447266 2.1054688 C 19.166266 1.9644687 18.834734 1.9644687 18.552734 2.1054688 L 17 2.8828125 L 15.447266 2.1054688 C 15.166266 1.9644687 14.834734 1.9644687 14.552734 2.1054688 L 13 2.8828125 L 11.447266 2.1054688 C 11.306766 2.0349687 11.153375 2 11 2 z M 13 11 A 1.0001 1.0001 0 1 0 13 13 L 28 13 A 1.0001 1.0001 0 1 0 28 11 L 13 11 z M 34 11 A 1.0001 1.0001 0 1 0 34 13 L 37 13 A 1.0001 1.0001 0 1 0 37 11 L 34 11 z M 13 17 A 1.0001 1.0001 0 1 0 13 19 L 24 19 A 1.0001 1.0001 0 1 0 24 17 L 13 17 z M 34 17 A 1.0001 1.0001 0 1 0 34 19 L 37 19 A 1.0001 1.0001 0 1 0 37 17 L 34 17 z M 13 23 A 1.0001 1.0001 0 1 0 13 25 L 28 25 A 1.0001 1.0001 0 1 0 28 23 L 13 23 z M 34 23 A 1.0001 1.0001 0 1 0 34 25 L 37 25 A 1.0001 1.0001 0 1 0 37 23 L 34 23 z M 13 29 A 1.0001 1.0001 0 1 0 13 31 L 24 31 A 1.0001 1.0001 0 1 0 24 29 L 13 29 z M 40 30.011719 C 37.43675 30.011719 34.874187 30.985188 32.929688 32.929688 C 29.040688 36.818687 29.040688 43.181312 32.929688 47.070312 C 36.818687 50.959313 43.181312 50.959312 47.070312 47.070312 C 50.959312 43.181313 50.959313 36.818688 47.070312 32.929688 C 45.125813 30.985187 42.56325 30.011719 40 30.011719 z M 40 32.009766 C 42.050625 32.009766 44.10075 32.78825 45.65625 34.34375 C 48.76725 37.45475 48.76725 42.54525 45.65625 45.65625 C 42.54425 48.76725 37.45475 48.76725 34.34375 45.65625 C 31.23275 42.54425 31.23275 37.45475 34.34375 34.34375 C 35.89975 32.78825 37.949375 32.009766 40 32.009766 z M 40 34.060547 C 39.434 34.060547 39.009766 34.484781 39.009766 35.050781 L 39.009766 39.009766 L 35.050781 39.009766 C 34.484781 39.009766 34.060547 39.434 34.060547 40 C 34.060547 40.566 34.484781 40.990234 35.050781 40.990234 L 39.009766 40.990234 L 39.009766 44.949219 C 39.009766 45.515219 39.434 45.939453 40 45.939453 C 40.283 45.939453 40.566031 45.79725 40.707031 45.65625 C 40.849031 45.51525 40.990234 45.232219 40.990234 44.949219 L 40.990234 40.990234 L 44.949219 40.990234 C 45.232219 40.990234 45.51525 40.848031 45.65625 40.707031 C 45.79825 40.566031 45.939453 40.283 45.939453 40 C 45.939453 39.434 45.515219 39.009766 44.949219 39.009766 L 40.990234 39.009766 L 40.990234 35.050781 C 40.990234 34.485781 40.566 34.060547 40 34.060547 z M 13 35 A 1 1 0 0 0 13 37 A 1 1 0 0 0 13 35 z M 16 35 A 1 1 0 0 0 16 37 A 1 1 0 0 0 16 35 z M 19 35 A 1 1 0 0 0 19 37 A 1 1 0 0 0 19 35 z M 22 35 A 1 1 0 0 0 22 37 A 1 1 0 0 0 22 35 z M 25 35 A 1 1 0 0 0 25 37 A 1 1 0 0 0 25 35 z M 28 35 A 1 1 0 0 0 28 37 A 1 1 0 0 0 28 35 z"/></svg>