<svg xmlns="http://www.w3.org/2000/svg" width="50" height="50" viewBox="0 0 16 16"><path fill="#bae0bd" d="M5,10.5L3.6,2.6l11.8,1.6l-0.7,5.1c-0.1,0.7-0.7,1.3-1.5,1.3H5z"/><path fill="#5e9c76" d="M4.2,3.2l10.6,1.4l-0.6,4.6c-0.1,0.5-0.5,0.9-1,0.9H5.4L4.2,3.2 M3,2l1.6,9h8.7c1,0,1.8-0.7,2-1.7 L16,3.7L3,2L3,2z"/><path fill="#66798f" d="M13.5,14H6.9c-1.1,0-2-0.8-2.2-1.8L3,2C2.9,1.4,2.4,1,1.8,1H1V0h0.8c1.1,0,2,0.8,2.2,1.8L5.8,12 c0.1,0.6,0.6,1,1.2,1h6.6V14z"/><path fill="#bae0bd" d="M1 0.5A0.5 0.5 0 1 0 1 1.5A0.5 0.5 0 1 0 1 0.5Z"/><path fill="#5e9c76" d="M1,0C0.4,0,0,0.4,0,1s0.4,1,1,1s1-0.4,1-1S1.6,0,1,0L1,0z"/><path fill="#b0c1d4" d="M13.5 13.5A1 1 0 1 0 13.5 15.5A1 1 0 1 0 13.5 13.5Z"/><path fill="#66798f" d="M13.5,14c0.3,0,0.5,0.2,0.5,0.5S13.8,15,13.5,15S13,14.8,13,14.5S13.2,14,13.5,14 M13.5,13 c-0.8,0-1.5,0.7-1.5,1.5s0.7,1.5,1.5,1.5s1.5-0.7,1.5-1.5S14.3,13,13.5,13L13.5,13z"/><g><path fill="#b0c1d4" d="M6.5 13.5A1 1 0 1 0 6.5 15.5A1 1 0 1 0 6.5 13.5Z"/><path fill="#66798f" d="M6.5,14C6.8,14,7,14.2,7,14.5S6.8,15,6.5,15S6,14.8,6,14.5S6.2,14,6.5,14 M6.5,13 C5.7,13,5,13.7,5,14.5S5.7,16,6.5,16S8,15.3,8,14.5S7.3,13,6.5,13L6.5,13z"/></g><path fill="#5e9c76" d="M9 4.5H10V9.5H9z"/><path fill="#5e9c76" d="M7 6.5H12V7.5H7z"/></svg>