<svg xmlns="http://www.w3.org/2000/svg" width="50" height="50" fill="#000" viewBox="0 0 24 24"><path d="M 6 3 C 4.895 3 4 3.895 4 5 L 4 15 L 3 15 C 2.448 15 2 15.448 2 16 L 2 18 C 2 19.657 3.343 21 5 21 L 11.476562 21 C 11.873563 21 12.186234 20.645859 12.115234 20.255859 C 12.040234 19.848859 12 19.429 12 19 C 12 17.957 12.229672 16.968078 12.638672 16.080078 C 12.872672 15.574078 12.479875 15 11.921875 15 L 6 15 L 6 5 L 19 5 L 19 11.078125 C 19 11.568125 19.358703 11.991781 19.845703 12.050781 C 19.852703 12.051781 19.858234 12.053688 19.865234 12.054688 C 20.465234 12.130688 21 11.685078 21 11.080078 L 21 5 C 21 3.895 20.105 3 19 3 L 6 3 z M 8.5 7 C 8.224 7 8 7.224 8 7.5 L 8 8.5 C 8 8.776 8.224 9 8.5 9 L 9.5 9 C 9.776 9 10 8.776 10 8.5 L 10 7.5 C 10 7.224 9.776 7 9.5 7 L 8.5 7 z M 12.5 7 C 12.224 7 12 7.224 12 7.5 L 12 8.5 C 12 8.776 12.224 9 12.5 9 L 16.5 9 C 16.776 9 17 8.776 17 8.5 L 17 7.5 C 17 7.224 16.776 7 16.5 7 L 12.5 7 z M 8.5 11 C 8.224 11 8 11.224 8 11.5 L 8 12.5 C 8 12.776 8.224 13 8.5 13 L 9.5 13 C 9.776 13 10 12.776 10 12.5 L 10 11.5 C 10 11.224 9.776 11 9.5 11 L 8.5 11 z M 12.5 11 C 12.224 11 12 11.224 12 11.5 L 12 12.5 C 12 12.776 12.224 13 12.5 13 L 16.5 13 C 16.776 13 17 12.776 17 12.5 L 17 11.5 C 17 11.224 16.776 11 16.5 11 L 12.5 11 z M 19 14.017578 C 17.723375 14.017953 16.446703 14.506922 15.470703 15.482422 C 14.494703 16.458422 14.003906 17.731766 14.003906 19.009766 C 14.003906 20.287766 14.494703 21.562109 15.470703 22.537109 C 17.422703 24.489109 20.577297 24.489109 22.529297 22.537109 C 24.481297 20.585109 24.481297 17.430516 22.529297 15.478516 C 21.553797 14.504516 20.276625 14.017203 19 14.017578 z M 19.001953 16 C 19.554953 16 20.003906 16.447953 20.003906 17.001953 L 20.003906 18 L 21.001953 18 C 21.554953 18 22.003906 18.447953 22.003906 19.001953 C 22.003906 19.554953 21.555953 20.003906 21.001953 20.003906 L 20.003906 20.003906 L 20.003906 21.001953 C 20.003906 21.554953 19.555953 22.003906 19.001953 22.003906 C 18.448953 22.003906 17.998047 21.555953 17.998047 21.001953 L 17.998047 20.003906 L 17.001953 20.003906 C 16.448953 20.003906 15.998047 19.555953 15.998047 19.001953 C 15.999047 18.447953 16.447953 18 17.001953 18 L 18 18 L 18 17.001953 C 18 16.447953 18.447953 16 19.001953 16 z"/></svg>