<svg xmlns="http://www.w3.org/2000/svg" width="100" height="100" fill="#000" viewBox="0 0 32 32"><path d="M 6 3 L 6 29 L 17.771484 29 C 19.240982 30.824972 21.488603 32 24 32 C 28.4 32 32 28.4 32 24 C 32 20.291044 29.438915 17.160607 26 16.265625 L 26 9.5859375 L 19.414062 3 L 6 3 z M 8 5 L 18 5 L 18 11 L 24 11 L 24 16 C 23.2213 16 22.468925 16.118135 21.755859 16.328125 C 21.029487 13.831369 18.727655 12 16 12 C 12.691 12 10 14.691 10 18 C 10 21.309 12.691 24 16 24 C 16 25.06037 16.212827 26.071744 16.591797 27 L 8 27 L 8 5 z M 20 6.4140625 L 22.585938 9 L 20 9 L 20 6.4140625 z M 16 14 L 16 18 L 18.734375 18 C 17.554347 19.037565 16.683474 20.412237 16.271484 21.972656 C 16.1804 21.979671 16.093001 22 16 22 C 13.794 22 12 20.206 12 18 C 12 15.794 13.794 14 16 14 z M 24 18 C 27.3 18 30 20.7 30 24 C 30 27.3 27.3 30 24 30 C 20.7 30 18 27.3 18 24 C 18 20.7 20.7 18 24 18 z M 23 20 L 23 23 L 20 23 L 20 25 L 23 25 L 23 28 L 25 28 L 25 25 L 28 25 L 28 23 L 25 23 L 25 20 L 23 20 z"/></svg>