<svg xmlns="http://www.w3.org/2000/svg" width="100" height="100" fill="#000" viewBox="0 0 30 30"><path d="M 15 2 C 10.582 2 7 5.582 7 10 C 7 16 14 18 14 22 C 14 22.552 14.448 23 15 23 C 15.552 23 16 22.552 16 22 C 16 18 23 16 23 10 C 23 5.582 19.418 2 15 2 z M 15 8 C 16.105 8 17 8.895 17 10 C 17 11.105 16.105 12 15 12 C 13.895 12 13 11.105 13 10 C 13 8.895 13.895 8 15 8 z M 6 17 C 5.583 17 5.2095 17.259438 5.0625 17.648438 L 2.0625 25.648438 C 1.9475 25.956437 1.9917344 26.298359 2.1777344 26.568359 C 2.3657344 26.838359 2.672 27 3 27 L 27 27 C 27.328 27 27.635266 26.838359 27.822266 26.568359 C 28.009266 26.299359 28.0525 25.956437 27.9375 25.648438 L 24.9375 17.648438 C 24.7905 17.259438 24.417 17 24 17 L 22.023438 17 C 21.475437 17.612 20.909953 18.171266 20.376953 18.697266 C 20.271953 18.799266 20.171312 18.9 20.070312 19 L 23.306641 19 L 25.556641 25 L 4.4433594 25 L 6.6933594 19 L 9.9296875 19 C 9.8286875 18.9 9.729 18.799266 9.625 18.697266 C 9.091 18.171266 8.5245625 17.612 7.9765625 17 L 6 17 z"/></svg>