<svg xmlns="http://www.w3.org/2000/svg" width="50" height="50" fill="#000" viewBox="0 0 50 50"><path d="M 7 2 L 7 48 L 31.074219 48 C 30.523219 47.386 30.033187 46.718 29.617188 46 L 9 46 L 9 4 L 29 4 L 29 16 L 41 16 L 41 28.050781 C 41.686 28.107781 42.352 28.225578 43 28.392578 L 43 14.585938 L 30.414062 2 L 7 2 z M 31 5.4140625 L 39.585938 14 L 31 14 L 31 5.4140625 z M 27 18 C 26.448 18 26 18.448 26 19 L 26 28 C 26 28.552 26.448 29 27 29 L 35.210938 29 C 35.753937 28.763 36.320344 28.574922 36.902344 28.419922 C 36.961344 28.290922 37 28.151 37 28 C 37 22.486 32.514 18 27 18 z M 28 20.0625 C 31.613 20.5155 34.4845 23.387 34.9375 27 L 28 27 L 28 20.0625 z M 23 22 C 17.486 22 13 26.486 13 32 C 13 37.514 17.486 42 23 42 C 24.836 42 26.55125 41.494906 28.03125 40.628906 C 28.02025 40.419906 28 40.212 28 40 C 28 39.35 28.065062 38.717703 28.164062 38.095703 C 26.769063 39.279703 24.969 40 23 40 C 18.589 40 15 36.411 15 32 C 15 27.928 18.059 24.5565 22 24.0625 L 22 32 C 22 32.552 22.448 33 23 33 L 30.267578 33 C 30.792578 32.272 31.394406 31.607672 32.066406 31.013672 C 32.042406 31.012672 32.023 31 32 31 L 24 31 L 24 23 C 24 22.448 23.552 22 23 22 z M 40 30 C 34.5 30 30 34.5 30 40 C 30 45.5 34.5 50 40 50 C 45.5 50 50 45.5 50 40 C 50 34.5 45.5 30 40 30 z M 40 32 C 44.4 32 48 35.6 48 40 C 48 44.4 44.4 48 40 48 C 35.6 48 32 44.4 32 40 C 32 35.6 35.6 32 40 32 z M 40 34.099609 C 39.4 34.099609 39 34.499609 39 35.099609 L 39 39 L 35.099609 39 C 34.499609 39 34.099609 39.4 34.099609 40 C 34.099609 40.6 34.499609 41 35.099609 41 L 39 41 L 39 44.900391 C 39 45.500391 39.4 45.900391 40 45.900391 C 40.6 45.900391 41 45.500391 41 44.900391 L 41 41 L 44.900391 41 C 45.500391 41 45.900391 40.6 45.900391 40 C 45.900391 39.4 45.500391 39 44.900391 39 L 41 39 L 41 35.099609 C 41 34.499609 40.6 34.099609 40 34.099609 z"/></svg>