<svg xmlns="http://www.w3.org/2000/svg" width="500" height="500" fill="#000" viewBox="0 0 64 64"><path d="M 44.140625 3.453125 C 41.323125 3.453125 38.504375 4.5249219 36.359375 6.6699219 L 30.710938 12.320312 C 27.160937 15.870312 26.550859 21.270937 28.880859 25.460938 L 25.460938 28.880859 C 21.270937 26.550859 15.870313 27.160938 12.320312 30.710938 L 6.6699219 36.359375 C 4.5899219 38.439375 3.4394531 41.200625 3.4394531 44.140625 C 3.4394531 47.080625 4.5899219 49.839922 6.6699219 51.919922 L 8.0800781 53.330078 C 10.220078 55.480078 13.039375 56.550781 15.859375 56.550781 C 18.669375 56.550781 21.490625 55.480078 23.640625 53.330078 L 29.289062 47.679688 C 32.839062 44.129688 33.449141 38.729062 31.119141 34.539062 L 34.539062 31.119141 C 36.199063 32.049141 38.050391 32.509766 39.900391 32.509766 C 42.720391 32.509766 45.529687 31.439063 47.679688 29.289062 L 53.330078 23.640625 C 55.410078 21.560625 56.560547 18.799375 56.560547 15.859375 C 56.560547 12.919375 55.410078 10.160078 53.330078 8.0800781 L 51.919922 6.6699219 C 49.774922 4.5249219 46.958125 3.453125 44.140625 3.453125 z M 44.144531 5.4472656 C 46.449531 5.4472656 48.754766 6.3250781 50.509766 8.0800781 L 51.919922 9.4902344 C 53.619922 11.190234 54.560547 13.449375 54.560547 15.859375 C 54.560547 18.259375 53.619922 20.520703 51.919922 22.220703 L 46.259766 27.880859 C 44.559766 29.580859 42.300391 30.509766 39.900391 30.509766 C 38.540391 30.509766 37.219297 30.210859 36.029297 29.630859 L 39.199219 26.460938 C 39.429219 26.490938 39.660391 26.509766 39.900391 26.509766 C 41.240391 26.509766 42.489688 25.990781 43.429688 25.050781 L 49.089844 19.390625 C 50.039844 18.450625 50.560547 17.189375 50.560547 15.859375 C 50.560547 14.519375 50.039844 13.270313 49.089844 12.320312 L 47.679688 10.910156 C 45.729687 8.9601563 42.549375 8.9601563 40.609375 10.910156 L 34.949219 16.560547 C 34.009219 17.510547 33.490234 18.759609 33.490234 20.099609 C 33.490234 20.339609 33.509063 20.570781 33.539062 20.800781 L 30.369141 23.970703 C 29.789141 22.780703 29.490234 21.459609 29.490234 20.099609 C 29.490234 17.699609 30.419141 15.440234 32.119141 13.740234 L 37.779297 8.0800781 C 39.534297 6.3250781 41.839531 5.4472656 44.144531 5.4472656 z M 24.746094 9.2734375 C 24.617703 9.2554844 24.483813 9.261625 24.351562 9.296875 C 23.817563 9.439875 23.500531 9.9874844 23.644531 10.521484 L 24.164062 12.455078 C 24.284063 12.902078 24.686906 13.195312 25.128906 13.195312 C 25.214906 13.195312 25.302672 13.184156 25.388672 13.160156 C 25.922672 13.017156 26.239703 12.469547 26.095703 11.935547 L 25.576172 10.003906 C 25.468172 9.6034062 25.131266 9.3272969 24.746094 9.2734375 z M 19.664062 11.269531 C 19.535328 11.285625 19.406109 11.327234 19.287109 11.396484 C 18.808109 11.672484 18.644875 12.283719 18.921875 12.761719 L 19.921875 14.494141 C 20.107875 14.815141 20.443063 14.994141 20.789062 14.994141 C 20.959063 14.994141 21.130109 14.950375 21.287109 14.859375 C 21.766109 14.583375 21.931297 13.972141 21.654297 13.494141 L 20.654297 11.761719 C 20.446547 11.402469 20.050266 11.22125 19.664062 11.269531 z M 44.140625 11.443359 C 44.908125 11.443359 45.674766 11.735312 46.259766 12.320312 L 47.679688 13.740234 C 48.239688 14.300234 48.560547 15.059375 48.560547 15.859375 C 48.560547 16.659375 48.239688 17.410469 47.679688 17.980469 L 42.019531 23.640625 C 41.799531 23.860625 41.539766 24.039687 41.259766 24.179688 C 41.599766 23.589688 41.779297 22.920703 41.779297 22.220703 C 41.779297 21.150703 41.359375 20.150625 40.609375 19.390625 C 39.849375 18.640625 38.849297 18.220703 37.779297 18.220703 C 37.079297 18.220703 36.410312 18.400234 35.820312 18.740234 C 35.950313 18.460234 36.139375 18.210469 36.359375 17.980469 L 42.019531 12.320312 C 42.604531 11.735312 43.373125 11.443359 44.140625 11.443359 z M 15.646484 14.441406 C 15.390734 14.441406 15.134953 14.538875 14.939453 14.734375 C 14.548453 15.125375 14.548453 15.757437 14.939453 16.148438 L 16.353516 17.5625 C 16.548516 17.7575 16.804547 17.855469 17.060547 17.855469 C 17.316547 17.855469 17.572578 17.7575 17.767578 17.5625 C 18.158578 17.1715 18.158578 16.539438 17.767578 16.148438 L 16.353516 14.734375 C 16.158016 14.538875 15.902234 14.441406 15.646484 14.441406 z M 12.591797 18.589844 C 12.204937 18.541703 11.808562 18.722781 11.601562 19.082031 C 11.324562 19.560031 11.48975 20.172219 11.96875 20.449219 L 13.699219 21.449219 C 13.856219 21.540219 14.029219 21.582031 14.199219 21.582031 C 14.545219 21.582031 14.881406 21.403031 15.066406 21.082031 C 15.342406 20.603031 15.177219 19.992797 14.699219 19.716797 L 12.96875 18.716797 C 12.849 18.647797 12.72075 18.605891 12.591797 18.589844 z M 37.779297 20.220703 C 38.309297 20.220703 38.809453 20.430547 39.189453 20.810547 C 39.569453 21.190547 39.779297 21.690703 39.779297 22.220703 C 39.779297 22.760703 39.569453 23.260625 39.189453 23.640625 L 38.609375 24.220703 L 37.150391 25.679688 L 34.279297 28.550781 L 32.869141 29.960938 L 29.970703 32.859375 L 28.550781 34.279297 L 25.679688 37.150391 L 24.220703 38.609375 L 23.640625 39.189453 C 23.260625 39.569453 22.740703 39.759766 22.220703 39.759766 C 21.700703 39.759766 21.180547 39.569453 20.810547 39.189453 C 20.430547 38.809453 20.220703 38.309297 20.220703 37.779297 C 20.220703 37.239297 20.430547 36.739375 20.810547 36.359375 L 21.390625 35.779297 L 22.849609 34.320312 L 25.720703 31.449219 L 27.140625 30.029297 L 30.029297 27.140625 L 31.449219 25.720703 L 34.320312 22.849609 L 35.779297 21.390625 L 36.359375 20.810547 C 36.739375 20.430547 37.239297 20.220703 37.779297 20.220703 z M 10.333984 23.416016 C 9.9482969 23.469875 9.6111563 23.745984 9.5039062 24.146484 C 9.3609063 24.680484 9.6779375 25.228094 10.210938 25.371094 L 12.142578 25.890625 C 12.229578 25.913625 12.316344 25.925781 12.402344 25.925781 C 12.843344 25.925781 13.248188 25.630594 13.367188 25.183594 C 13.510188 24.650594 13.193156 24.100031 12.660156 23.957031 L 10.728516 23.439453 C 10.595766 23.404203 10.462547 23.398062 10.333984 23.416016 z M 20.099609 29.490234 C 21.459609 29.490234 22.780703 29.789141 23.970703 30.369141 L 20.800781 33.539062 C 20.570781 33.509062 20.339609 33.490234 20.099609 33.490234 C 18.759609 33.490234 17.510312 34.009219 16.570312 34.949219 L 10.910156 40.609375 C 9.9601563 41.549375 9.4394531 42.810625 9.4394531 44.140625 C 9.4394531 45.480625 9.9601562 46.729688 10.910156 47.679688 L 12.320312 49.089844 C 13.300313 50.069844 14.579375 50.550781 15.859375 50.550781 C 17.139375 50.550781 18.420625 50.069844 19.390625 49.089844 L 25.050781 43.439453 C 25.990781 42.489453 26.509766 41.240391 26.509766 39.900391 C 26.509766 39.660391 26.490938 39.429219 26.460938 39.199219 L 29.630859 36.029297 C 30.210859 37.219297 30.509766 38.540391 30.509766 39.900391 C 30.509766 42.300391 29.580859 44.559766 27.880859 46.259766 L 22.220703 51.919922 C 18.710703 55.429922 13.000234 55.429922 9.4902344 51.919922 L 8.0800781 50.509766 C 6.3800781 48.809766 5.4394531 46.550625 5.4394531 44.140625 C 5.4394531 41.740625 6.3800781 39.479297 8.0800781 37.779297 L 13.740234 32.119141 C 15.440234 30.419141 17.699609 29.490234 20.099609 29.490234 z M 18.740234 35.820312 C 18.400234 36.410313 18.220703 37.079297 18.220703 37.779297 C 18.220703 38.849297 18.640625 39.849375 19.390625 40.609375 C 20.150625 41.359375 21.150703 41.779297 22.220703 41.779297 C 22.920703 41.779297 23.589688 41.599766 24.179688 41.259766 C 24.049688 41.539766 23.860625 41.789531 23.640625 42.019531 L 17.980469 47.679688 C 16.810469 48.849688 14.910234 48.849688 13.740234 47.679688 L 12.320312 46.259766 C 11.760312 45.699766 11.439453 44.940625 11.439453 44.140625 C 11.439453 43.340625 11.760313 42.589531 12.320312 42.019531 L 17.980469 36.359375 C 18.200469 36.139375 18.460234 35.960312 18.740234 35.820312 z M 49 36 C 41.832 36 36 41.832 36 49 C 36 56.168 41.832 62 49 62 C 56.168 62 62 56.168 62 49 C 62 41.832 56.168 36 49 36 z M 49 38 C 55.065 38 60 42.935 60 49 C 60 55.065 55.065 60 49 60 C 42.935 60 38 55.065 38 49 C 38 42.935 42.935 38 49 38 z M 49 42 C 48.447 42 48 42.448 48 43 L 48 48 L 43 48 C 42.447 48 42 48.448 42 49 C 42 49.552 42.447 50 43 50 L 48 50 L 48 55 C 48 55.552 48.447 56 49 56 C 49.553 56 50 55.552 50 55 L 50 50 L 55 50 C 55.553 50 56 49.552 56 49 C 56 48.448 55.553 48 55 48 L 50 48 L 50 43 C 50 42.448 49.553 42 49 42 z"/></svg>