<svg xmlns="http://www.w3.org/2000/svg" width="100" height="100" fill="#000" viewBox="0 0 24 24"><path d="M 6 2 C 4.9 2 4 2.9 4 4 L 4 20 C 4 21.1 4.9 22 6 22 L 13 22 L 13 21 L 13 19 L 13 18 C 13 17.448 13.448 17 14 17 L 15 17 L 16 17 L 16 16 L 16 15 C 16 14.448 16.448 14 17 14 L 18 14 L 20 14 L 20 8 L 14 2 L 6 2 z M 13 3.5 L 18.5 9 L 13 9 L 13 3.5 z M 11 11 C 12.641 11.031 14 12.343 14 14 L 11 14 L 11 11 z M 9 13 L 9 16 L 12 16 C 11.969 17.641 10.657 19 9 19 C 7.343 19 6 17.657 6 16 C 6 14.343 7.343 13 9 13 z M 18 16 L 18 19 L 15 19 L 15 21 L 18 21 L 18 24 L 20 24 L 20 21 L 23 21 L 23 19 L 20 19 L 20 16 L 18 16 z"/></svg>