<svg xmlns="http://www.w3.org/2000/svg" width="300" height="300" fill="#000" viewBox="0 0 30 30"><path d="M 23 3 A 1 1 0 0 0 22.875 3.0097656 L 22.873047 3.0078125 L 22.800781 3.0195312 L 9.8574219 5.0097656 L 9.8554688 5.0117188 A 1 1 0 0 0 9 6 A 1 1 0 0 0 9 6.0292969 L 9 19.210938 C 9 20.399938 8.8639062 21 6.5039062 21 C 3.8979062 21 3 22.520813 3 24.007812 C 3 25.216812 3.706 27.007812 6.5 27.007812 C 9.629 27.007812 11 25.090578 11 23.392578 L 11 10.439453 L 22 8.6464844 L 22 14.058594 C 22.329 14.021594 22.662 14 23 14 C 23.338 14 23.671 14.021594 24 14.058594 L 24 4 A 1 1 0 0 0 23 3 z M 23 16 C 19.134 16 16 19.134 16 23 C 16 26.866 19.134 30 23 30 C 26.866 30 30 26.866 30 23 C 30 19.134 26.866 16 23 16 z M 23 19 C 23.552 19 24 19.447 24 20 L 24 22 L 26 22 C 26.552 22 27 22.447 27 23 C 27 23.553 26.552 24 26 24 L 24 24 L 24 26 C 24 26.553 23.552 27 23 27 C 22.448 27 22 26.553 22 26 L 22 24 L 20 24 C 19.448 24 19 23.553 19 23 C 19 22.447 19.448 22 20 22 L 22 22 L 22 20 C 22 19.447 22.448 19 23 19 z"/></svg>