<svg xmlns="http://www.w3.org/2000/svg" width="100" height="100" viewBox="0 0 16 16"><path fill="#fff" d="M0.5,14.5v-13h15v10c0,1.7-1.3,3-3,3H0.5z"/><path fill="#788b9c" d="M15,2v9.5c0,1.4-1.1,2.5-2.5,2.5H1V2H15 M16,1H0v14h12.5c1.9,0,3.5-1.6,3.5-3.5V1L16,1z"/><path fill="#788b9c" d="M0 1H16V3H0z"/><path fill="#8bb7f0" d="M5 5H13V6H5zM3 5H4V6H3zM5 7H11.5V8H5zM3 7H4V8H3zM5 9H13V10H5zM3 9H4V10H3zM5 11H13V12H5zM3 11H4V12H3z"/><path fill="#c8d1db" d="M16,11.5V6.8c-0.3-0.3-0.6-0.6-1-0.8v8H5.5c0.1,0.4,0.3,0.7,0.5,1h8.3C15.3,14.2,16,12.9,16,11.5z"/><path fill="#5e9c76" d="M11.5 7A4.5 4.5 0 1 0 11.5 16A4.5 4.5 0 1 0 11.5 7Z"/><path fill="#fff" d="M11 9H12V14H11z"/><path fill="#fff" d="M9 11H14V12H9z"/></svg>