<svg xmlns="http://www.w3.org/2000/svg" viewBox="0 0 40 40" width="300px" height="300px"><path fill="#fff" d="M6.5 37.5L6.5 2.5 24.793 2.5 33.5 11.207 33.5 37.5z"/><path fill="#788b9c" d="M24.586,3L33,11.414V37H7V3H24.586 M25,2H6v36h28V11L25,2L25,2z"/><path fill="#c5d4de" d="M23.189,38H34V20.941c-0.327-0.097-0.66-0.179-1-0.245V37H22.39 C22.635,37.351,22.904,37.682,23.189,38z"/><path fill="#fff" d="M24.5 11.5L24.5 2.5 24.793 2.5 33.5 11.207 33.5 11.5z"/><path fill="#788b9c" d="M25 3.414L32.586 11H25V3.414M25 2h-1v10h10v-1L25 2 25 2zM15 16H28V17H15zM15 19H24V20H15zM15 22H28V23H15zM15 28H28V29H15zM15 25H24V26H15z"/><path fill="#bcc9d6" d="M28 23v-1h-2.388c-.495.297-.966.628-1.404 1H28zM28 29v-1h-7.059c-.097.327-.179.66-.245 1H28zM24 26v-1h-1.61c-.225.322-.437.653-.625 1H24z"/><path fill="#bae0bd" d="M31 22.5A8.5 8.5 0 1 0 31 39.5A8.5 8.5 0 1 0 31 22.5Z"/><path fill="#5e9c76" d="M31,23c4.411,0,8,3.589,8,8s-3.589,8-8,8s-8-3.589-8-8S26.589,23,31,23 M31,22 c-4.971,0-9,4.029-9,9s4.029,9,9,9s9-4.029,9-9S35.971,22,31,22L31,22z"/><path fill="none" stroke="#fff" stroke-miterlimit="10" stroke-width="2" d="M31 36L31 26M26 31L36 31"/><g><path fill="#c74343" d="M12.5 15.75A0.75 0.75 0 1 0 12.5 17.25A0.75 0.75 0 1 0 12.5 15.75Z"/></g><g><path fill="#c74343" d="M12.5 18.75A0.75 0.75 0 1 0 12.5 20.25A0.75 0.75 0 1 0 12.5 18.75Z"/></g><g><path fill="#c74343" d="M12.5 21.75A0.75 0.75 0 1 0 12.5 23.25A0.75 0.75 0 1 0 12.5 21.75Z"/></g><g><path fill="#c74343" d="M12.5 24.75A0.75 0.75 0 1 0 12.5 26.25A0.75 0.75 0 1 0 12.5 24.75Z"/></g><g><path fill="#c74343" d="M12.5 27.75A0.75 0.75 0 1 0 12.5 29.25A0.75 0.75 0 1 0 12.5 27.75Z"/></g></svg>