<svg xmlns="http://www.w3.org/2000/svg" width="300" height="300" viewBox="0 0 30 30"><path fill="#8bb7f0" d="M19.6,15.5c-1.4,0-2.6-0.5-3.6-1.5c-1-1-1.5-2.2-1.5-3.6S15,7.8,16,6.8L19.8,3c1-1,2.2-1.5,3.6-1.5 S26.1,2,27,3c1,1,1.5,2.2,1.5,3.6S28,9.2,27,10.2L23.2,14C22.2,15,20.9,15.5,19.6,15.5z M23.4,3.5c-0.8,0-1.6,0.3-2.2,0.9l-3.9,3.9 c-0.6,0.6-0.9,1.3-0.9,2.2s0.3,1.6,0.9,2.2c0.6,0.6,1.3,0.9,2.2,0.9s1.6-0.3,2.2-0.9l3.9-3.9c0.6-0.6,0.9-1.3,0.9-2.2 c0-0.8-0.3-1.6-0.9-2.2C25,3.8,24.3,3.5,23.4,3.5z"/><path fill="#4e7ab5" d="M23.4,2c1.2,0,2.4,0.5,3.2,1.3c0.9,0.9,1.3,2,1.3,3.2s-0.5,2.4-1.3,3.2l-3.9,3.9 c-0.9,0.9-2,1.3-3.2,1.3s-2.4-0.5-3.2-1.3c-0.9-0.9-1.3-2-1.3-3.2s0.5-2.4,1.3-3.2l3.9-3.9C21.1,2.5,22.2,2,23.4,2 M19.6,14 c1,0,1.9-0.4,2.5-1L26,9.1c0.7-0.7,1-1.6,1-2.5S26.6,4.7,26,4c-0.7-0.7-1.6-1-2.5-1s-1.9,0.4-2.5,1L17,7.9c-0.7,0.7-1,1.6-1,2.5 s0.4,1.9,1,2.5C17.7,13.6,18.6,14,19.6,14 M23.4,1c-1.4,0-2.9,0.5-3.9,1.6l-3.9,3.9c-2.2,2.2-2.2,5.7,0,7.9 c1.1,1.1,2.5,1.6,3.9,1.6c1.4,0,2.9-0.5,3.9-1.6l3.9-3.9c2.2-2.2,2.2-5.7,0-7.9C26.3,1.5,24.9,1,23.4,1L23.4,1z M19.6,13 c-0.7,0-1.3-0.3-1.8-0.7c-0.5-0.5-0.7-1.1-0.7-1.8s0.3-1.3,0.7-1.8l3.9-3.9C22.1,4.3,22.7,4,23.4,4c0.7,0,1.3,0.3,1.8,0.7 S26,5.9,26,6.6s-0.3,1.3-0.7,1.8l-3.9,3.9C20.9,12.7,20.3,13,19.6,13L19.6,13z"/><path fill="#8bb7f0" d="M6.6,28.5C5.2,28.5,3.9,28,3,27c-1-1-1.5-2.2-1.5-3.6S2,20.8,3,19.8L6.8,16c1-1,2.2-1.5,3.6-1.5 S13.1,15,14,16s1.5,2.2,1.5,3.6S15,22.2,14,23.2L10.2,27C9.2,28,7.9,28.5,6.6,28.5z M10.4,16.5c-0.8,0-1.6,0.3-2.2,0.9l-3.9,3.9 c-0.6,0.6-0.9,1.3-0.9,2.2s0.3,1.6,0.9,2.2s1.3,0.9,2.2,0.9s1.6-0.3,2.2-0.9l3.9-3.9c0.6-0.6,0.9-1.3,0.9-2.2 c0-0.8-0.3-1.6-0.9-2.2C12,16.8,11.3,16.5,10.4,16.5z"/><path fill="#4e7ab5" d="M10.4,15c1.2,0,2.4,0.5,3.2,1.3c0.9,0.9,1.3,2,1.3,3.2s-0.5,2.4-1.3,3.2l-3.9,3.9 c-0.9,0.9-2,1.3-3.2,1.3s-2.4-0.5-3.2-1.3c-0.9-0.9-1.3-2-1.3-3.2s0.5-2.4,1.3-3.2l3.9-3.9C8.1,15.5,9.2,15,10.4,15 M6.6,27 c1,0,1.9-0.4,2.5-1l3.9-3.9c0.7-0.7,1-1.6,1-2.5s-0.4-1.9-1-2.5c-0.7-0.7-1.6-1-2.5-1s-1.9,0.4-2.5,1L4,20.9c-0.7,0.7-1,1.6-1,2.5 s0.4,1.9,1,2.5S5.6,27,6.6,27 M10.4,14c-1.4,0-2.9,0.5-3.9,1.6l-3.9,3.9c-2.2,2.2-2.2,5.7,0,7.9C3.7,28.5,5.1,29,6.6,29 s2.9-0.5,3.9-1.6l3.9-3.9c2.2-2.2,2.2-5.7,0-7.9C13.3,14.5,11.9,14,10.4,14L10.4,14z M6.6,26c-0.7,0-1.3-0.3-1.8-0.7S4,24.1,4,23.4 s0.3-1.3,0.7-1.8l3.9-3.9c0.5-0.5,1.1-0.7,1.8-0.7c0.7,0,1.3,0.3,1.8,0.7c0.5,0.5,0.7,1.1,0.7,1.8s-0.3,1.3-0.7,1.8l-3.9,3.9 C7.9,25.7,7.3,26,6.6,26L6.6,26z"/><path fill="#8bb7f0" d="M11,20c-0.3,0-0.5-0.1-0.7-0.3S10,19.3,10,19s0.1-0.5,0.3-0.7l8-8c0.2-0.2,0.4-0.3,0.7-0.3 s0.5,0.1,0.7,0.3S20,10.7,20,11s-0.1,0.5-0.3,0.7l-8,8C11.5,19.9,11.3,20,11,20z"/><path fill="#4e7ab5" d="M19,10.5c0.1,0,0.2,0,0.4,0.1c0.1,0.1,0.1,0.3,0.1,0.4s0,0.2-0.1,0.4l-8,8c-0.1,0.1-0.3,0.1-0.4,0.1 s-0.2,0-0.4-0.1c-0.1-0.1-0.1-0.3-0.1-0.4s0-0.2,0.1-0.4l8-8C18.8,10.5,18.9,10.5,19,10.5 M19,9.5c-0.4,0-0.8,0.1-1.1,0.4l-8,8 c-0.6,0.6-0.6,1.5,0,2.1c0.3,0.3,0.7,0.4,1.1,0.4s0.8-0.1,1.1-0.4l8-8c0.6-0.6,0.6-1.5,0-2.1C19.8,9.6,19.4,9.5,19,9.5L19,9.5z"/><g><path fill="#bae0bd" d="M23 16.5A6.5 6.5 0 1 0 23 29.5A6.5 6.5 0 1 0 23 16.5Z"/><path fill="#5e9c76" d="M23,17c3.3,0,6,2.7,6,6s-2.7,6-6,6s-6-2.7-6-6S19.7,17,23,17 M23,16c-3.9,0-7,3.1-7,7s3.1,7,7,7 s7-3.1,7-7S26.9,16,23,16L23,16z"/></g><path fill="#fff" d="M22 19H24V27H22z"/><path fill="#fff" d="M19 22H27V24H19z"/></svg>