<svg xmlns="http://www.w3.org/2000/svg" width="50" height="50" fill="#000" viewBox="0 0 80 80"><path d="M 15 10 C 12.25 10 10 12.25 10 15 L 10 64 L 48 64 C 48 72.824219 55.175781 80 64 80 C 72.824219 80 80 72.824219 80 64 C 80 57.296875 75.855469 51.554688 70 49.175781 L 70 15 C 70 12.25 67.75 10 65 10 Z M 15 12 L 65 12 C 66.667969 12 68 13.332031 68 15 L 68 18 C 67.449219 18 67 18.449219 67 19 C 67 19.550781 67.449219 20 68 20 L 68 48.527344 C 66.71875 48.195313 65.382813 48 64 48 C 55.855469 48 49.128906 54.117188 48.140625 62 L 12 62 L 12 20 C 12.550781 20 13 19.550781 13 19 C 13 18.449219 12.550781 18 12 18 L 12 15 C 12 13.332031 13.332031 12 15 12 Z M 16 18 C 15.449219 18 15 18.449219 15 19 C 15 19.550781 15.449219 20 16 20 C 16.550781 20 17 19.550781 17 19 C 17 18.449219 16.550781 18 16 18 Z M 20 18 C 19.449219 18 19 18.449219 19 19 C 19 19.550781 19.449219 20 20 20 C 20.550781 20 21 19.550781 21 19 C 21 18.449219 20.550781 18 20 18 Z M 24 18 C 23.449219 18 23 18.449219 23 19 C 23 19.550781 23.449219 20 24 20 C 24.550781 20 25 19.550781 25 19 C 25 18.449219 24.550781 18 24 18 Z M 28 18 C 27.449219 18 27 18.449219 27 19 C 27 19.550781 27.449219 20 28 20 C 28.550781 20 29 19.550781 29 19 C 29 18.449219 28.550781 18 28 18 Z M 32 18 C 31.449219 18 31 18.449219 31 19 C 31 19.550781 31.449219 20 32 20 C 32.550781 20 33 19.550781 33 19 C 33 18.449219 32.550781 18 32 18 Z M 36 18 C 35.449219 18 35 18.449219 35 19 C 35 19.550781 35.449219 20 36 20 C 36.550781 20 37 19.550781 37 19 C 37 18.449219 36.550781 18 36 18 Z M 40 18 C 39.449219 18 39 18.449219 39 19 C 39 19.550781 39.449219 20 40 20 C 40.550781 20 41 19.550781 41 19 C 41 18.449219 40.550781 18 40 18 Z M 44 18 C 43.449219 18 43 18.449219 43 19 C 43 19.550781 43.449219 20 44 20 C 44.550781 20 45 19.550781 45 19 C 45 18.449219 44.550781 18 44 18 Z M 48 18 C 47.449219 18 47 18.449219 47 19 C 47 19.550781 47.449219 20 48 20 C 48.550781 20 49 19.550781 49 19 C 49 18.449219 48.550781 18 48 18 Z M 52 18 C 51.449219 18 51 18.449219 51 19 C 51 19.550781 51.449219 20 52 20 C 52.550781 20 53 19.550781 53 19 C 53 18.449219 52.550781 18 52 18 Z M 56 18 C 55.449219 18 55 18.449219 55 19 C 55 19.550781 55.449219 20 56 20 C 56.550781 20 57 19.550781 57 19 C 57 18.449219 56.550781 18 56 18 Z M 60 18 C 59.449219 18 59 18.449219 59 19 C 59 19.550781 59.449219 20 60 20 C 60.550781 20 61 19.550781 61 19 C 61 18.449219 60.550781 18 60 18 Z M 64 18 C 63.449219 18 63 18.449219 63 19 C 63 19.550781 63.449219 20 64 20 C 64.550781 20 65 19.550781 65 19 C 65 18.449219 64.550781 18 64 18 Z M 23 29 C 21.894531 29 21 29.894531 21 31 C 21 32.105469 21.894531 33 23 33 C 24.105469 33 25 32.105469 25 31 C 25 29.894531 24.105469 29 23 29 Z M 28 30 L 28 32 L 57 32 L 57 30 Z M 23 37 C 21.894531 37 21 37.894531 21 39 C 21 40.105469 21.894531 41 23 41 C 24.105469 41 25 40.105469 25 39 C 25 37.894531 24.105469 37 23 37 Z M 28 38 L 28 40 L 57 40 L 57 38 Z M 23 45 C 21.894531 45 21 45.894531 21 47 C 21 48.105469 21.894531 49 23 49 C 24.105469 49 25 48.105469 25 47 C 25 45.894531 24.105469 45 23 45 Z M 28 46 L 28 48 L 57 48 L 57 46 Z M 64 50 C 71.742188 50 78 56.257813 78 64 C 78 71.742188 71.742188 78 64 78 C 56.257813 78 50 71.742188 50 64 C 50 56.257813 56.257813 50 64 50 Z M 63 57 L 63 63 L 57 63 L 57 65 L 63 65 L 63 71 L 65 71 L 65 65 L 71 65 L 71 63 L 65 63 L 65 57 Z"/></svg>