<svg xmlns="http://www.w3.org/2000/svg" width="300" height="300" fill="#000" viewBox="0 0 64 64"><path d="M 21.65625 2 C 20.320313 2 19.066406 2.519531 18.121094 3.464844 L 9.464844 12.121094 C 8.519531 13.066406 8 14.320313 8 15.65625 L 8 55 C 8 56.652344 9.347656 58 11 58 L 38.0625 58 C 40.375 61.601563 44.410156 64 49 64 C 56.167969 64 62 58.167969 62 51 C 62 45.601563 58.691406 40.96875 54 39.003906 L 54 5 C 54 3.347656 52.652344 2 51 2 Z M 22 4 L 51 4 C 51.550781 4 52 4.449219 52 5 L 52 38.363281 C 51.035156 38.132813 50.035156 38 49 38 C 41.832031 38 36 43.832031 36 51 C 36 52.769531 36.359375 54.460938 37.003906 56 L 11 56 C 10.449219 56 10 55.550781 10 55 L 10 16 L 19 16 C 20.652344 16 22 14.652344 22 13 Z M 20 4.5 L 20 13 C 20 13.550781 19.550781 14 19 14 L 10.5 14 C 10.605469 13.835938 10.734375 13.679688 10.878906 13.535156 L 19.535156 4.878906 C 19.679688 4.738281 19.835938 4.613281 20 4.5 Z M 21 19 C 20.746094 19 20.488281 19.097656 20.292969 19.292969 L 19 20.585938 L 18.707031 20.292969 C 18.316406 19.902344 17.683594 19.902344 17.292969 20.292969 C 16.902344 20.683594 16.902344 21.316406 17.292969 21.707031 L 18.292969 22.707031 C 18.488281 22.902344 18.742188 23 19 23 C 19.257813 23 19.511719 22.902344 19.707031 22.707031 L 21.707031 20.707031 C 22.097656 20.316406 22.097656 19.683594 21.707031 19.292969 C 21.511719 19.097656 21.253906 19 21 19 Z M 26 20 C 25.445313 20 25 20.449219 25 21 C 25 21.550781 25.445313 22 26 22 L 40 22 C 40.554688 22 41 21.550781 41 21 C 41 20.449219 40.554688 20 40 20 Z M 21 25 C 20.746094 25 20.488281 25.097656 20.292969 25.292969 L 19 26.585938 L 18.707031 26.292969 C 18.316406 25.902344 17.683594 25.902344 17.292969 26.292969 C 16.902344 26.683594 16.902344 27.316406 17.292969 27.707031 L 18.292969 28.707031 C 18.488281 28.902344 18.742188 29 19 29 C 19.257813 29 19.511719 28.902344 19.707031 28.707031 L 21.707031 26.707031 C 22.097656 26.316406 22.097656 25.683594 21.707031 25.292969 C 21.511719 25.097656 21.253906 25 21 25 Z M 26 26 C 25.445313 26 25 26.449219 25 27 C 25 27.550781 25.445313 28 26 28 L 38 28 C 38.554688 28 39 27.550781 39 27 C 39 26.449219 38.554688 26 38 26 Z M 21 31 C 20.746094 31 20.488281 31.097656 20.292969 31.292969 L 19 32.585938 L 18.707031 32.292969 C 18.316406 31.902344 17.683594 31.902344 17.292969 32.292969 C 16.902344 32.683594 16.902344 33.316406 17.292969 33.707031 L 18.292969 34.707031 C 18.488281 34.902344 18.742188 35 19 35 C 19.257813 35 19.511719 34.902344 19.707031 34.707031 L 21.707031 32.707031 C 22.097656 32.316406 22.097656 31.683594 21.707031 31.292969 C 21.511719 31.097656 21.253906 31 21 31 Z M 26 32 C 25.445313 32 25 32.449219 25 33 C 25 33.550781 25.445313 34 26 34 L 39 34 C 39.554688 34 40 33.550781 40 33 C 40 32.449219 39.554688 32 39 32 Z M 21 37 C 20.746094 37 20.488281 37.097656 20.292969 37.292969 L 19 38.585938 L 18.707031 38.292969 C 18.316406 37.902344 17.683594 37.902344 17.292969 38.292969 C 16.902344 38.683594 16.902344 39.316406 17.292969 39.707031 L 18.292969 40.707031 C 18.488281 40.902344 18.742188 41 19 41 C 19.257813 41 19.511719 40.902344 19.707031 40.707031 L 21.707031 38.707031 C 22.097656 38.316406 22.097656 37.683594 21.707031 37.292969 C 21.511719 37.097656 21.253906 37 21 37 Z M 26 38 C 25.445313 38 25 38.449219 25 39 C 25 39.550781 25.445313 40 26 40 L 34 40 C 34.554688 40 35 39.550781 35 39 C 35 38.449219 34.554688 38 34 38 Z M 49 40 C 55.066406 40 60 44.933594 60 51 C 60 57.066406 55.066406 62 49 62 C 42.933594 62 38 57.066406 38 51 C 38 44.933594 42.933594 40 49 40 Z M 49 44 C 48.449219 44 48 44.449219 48 45 L 48 50 L 43 50 C 42.449219 50 42 50.449219 42 51 C 42 51.550781 42.449219 52 43 52 L 48 52 L 48 57 C 48 57.550781 48.449219 58 49 58 C 49.550781 58 50 57.550781 50 57 L 50 52 L 55 52 C 55.550781 52 56 51.550781 56 51 C 56 50.449219 55.550781 50 55 50 L 50 50 L 50 45 C 50 44.449219 49.550781 44 49 44 Z M 13 50 C 12.449219 50 12 50.449219 12 51 L 12 53 C 12 53.550781 12.449219 54 13 54 C 13.550781 54 14 53.550781 14 53 L 14 51 C 14 50.449219 13.550781 50 13 50 Z M 18 50 C 17.449219 50 17 50.449219 17 51 L 17 53 C 17 53.550781 17.449219 54 18 54 C 18.550781 54 19 53.550781 19 53 L 19 51 C 19 50.449219 18.550781 50 18 50 Z M 23 50 C 22.449219 50 22 50.449219 22 51 L 22 53 C 22 53.550781 22.449219 54 23 54 C 23.550781 54 24 53.550781 24 53 L 24 51 C 24 50.449219 23.550781 50 23 50 Z M 28 50 C 27.449219 50 27 50.449219 27 51 L 27 53 C 27 53.550781 27.449219 54 28 54 C 28.550781 54 29 53.550781 29 53 L 29 51 C 29 50.449219 28.550781 50 28 50 Z M 33 50 C 32.449219 50 32 50.449219 32 51 L 32 53 C 32 53.550781 32.449219 54 33 54 C 33.550781 54 34 53.550781 34 53 L 34 51 C 34 50.449219 33.550781 50 33 50 Z"/></svg>