<?xml version="1.0"?><svg fill="#000000" xmlns="http://www.w3.org/2000/svg" viewBox="0 0 24 24" width="50px" height="50px">    <path d="M 4 3 L 4 15 L 2 15 L 2 18 C 2 19.654 3.346 21 5 21 L 12.294922 21 C 12.105922 20.366 12 19.695 12 19 C 12 17.512 12.467766 16.134 13.259766 15 L 6 15 L 6 5 L 19 5 L 19 12 C 19.695 12 20.366 12.105922 21 12.294922 L 21 3 L 4 3 z M 8 7 L 8 9 L 10 9 L 10 7 L 8 7 z M 12 7 L 12 9 L 17 9 L 17 7 L 12 7 z M 8 11 L 8 13 L 10 13 L 10 11 L 8 11 z M 12 11 L 12 13 L 15.408203 13 C 15.903203 12.703 16.435 12.462922 17 12.294922 L 17 11 L 12 11 z M 19 14.017578 C 17.723375 14.017953 16.446703 14.506922 15.470703 15.482422 C 14.494703 16.458422 14.003906 17.731766 14.003906 19.009766 C 14.003906 20.287766 14.494703 21.562109 15.470703 22.537109 C 17.422703 24.489109 20.577297 24.489109 22.529297 22.537109 C 24.481297 20.585109 24.481297 17.430516 22.529297 15.478516 C 21.553797 14.504516 20.276625 14.017203 19 14.017578 z M 18 16 L 20.003906 16 L 20.003906 18 L 22.003906 18 L 22.003906 20.003906 L 20.003906 20.003906 L 20.003906 22.003906 L 18 22.003906 L 18 20.003906 L 16 20.003906 L 16 18 L 18 18 L 18 16 z"/></svg>