<svg xmlns="http://www.w3.org/2000/svg" width="300" height="300" viewBox="0 0 100 100"><path fill="#60be92" d="M35.809,53h-8.372c-0.827,0-1.568,0.511-1.863,1.286l-11.44,30C13.634,85.595,14.598,87,15.997,87	h68.007c1.398,0,2.362-1.405,1.863-2.714l-11.44-30C74.131,53.511,73.39,53,72.563,53h-8.372"/><path fill="#1f212b" d="M62.5,83H19.631c-0.164,0-0.318-0.081-0.412-0.216c-0.093-0.135-0.113-0.308-0.055-0.462l9.533-25	C28.771,57.128,28.957,57,29.164,57H33.5c0.276,0,0.5,0.224,0.5,0.5S33.776,58,33.5,58h-3.991l-9.152,24H62.5	c0.276,0,0.5,0.224,0.5,0.5S62.776,83,62.5,83z"/><path fill="#1f212b" d="M78.463,78c-0.201,0-0.392-0.123-0.467-0.322L70.491,58H66.5c-0.276,0-0.5-0.224-0.5-0.5	s0.224-0.5,0.5-0.5h4.336c0.207,0,0.394,0.128,0.467,0.322l7.627,20c0.099,0.258-0.03,0.547-0.289,0.646	C78.582,77.99,78.522,78,78.463,78z"/><path fill="#1f212b" d="M69.5,83h-5c-0.276,0-0.5-0.224-0.5-0.5s0.224-0.5,0.5-0.5h5c0.276,0,0.5,0.224,0.5,0.5	S69.776,83,69.5,83z"/><path fill="#1f212b" d="M72.5,83h-1c-0.276,0-0.5-0.224-0.5-0.5s0.224-0.5,0.5-0.5h1c0.276,0,0.5,0.224,0.5,0.5	S72.776,83,72.5,83z"/><path fill="#1f212b" d="M84.004,88H15.996c-0.984,0-1.905-0.485-2.465-1.296c-0.561-0.814-0.685-1.851-0.332-2.775l11.439-30	C25.08,52.775,26.204,52,27.437,52h8.372v2h-8.372c-0.415,0-0.78,0.252-0.929,0.643l-11.439,30c-0.12,0.313-0.079,0.651,0.11,0.927	C15.367,85.843,15.665,86,15.996,86h68.008c0.331,0,0.629-0.157,0.817-0.431c0.189-0.276,0.23-0.614,0.11-0.927l-11.439-30	C73.344,54.252,72.979,54,72.563,54h-8.372v-2h8.372c1.232,0,2.356,0.775,2.798,1.929l11.439,30c0.353,0.923,0.229,1.96-0.332,2.774	C85.909,87.515,84.988,88,84.004,88z"/><path fill="#f15b6c" d="M71,34c0,16-21,37-21,37S29,50,29,34c0-11.598,9.402-21,21-21S71,22.402,71,34z"/><circle cx="50" cy="34" r="11.5" fill="#fefdef"/><path fill="#1f212b" d="M50,72c-0.266,0-0.52-0.105-0.707-0.293C48.424,70.838,28,50.228,28,34c0-12.131,9.869-22,22-22	s22,9.869,22,22c0,16.228-20.424,36.838-21.293,37.707C50.52,71.895,50.266,72,50,72z M50,14c-11.028,0-20,8.972-20,20	c0,13.767,16.366,31.741,20,35.562C53.632,65.741,70,47.76,70,34C70,22.972,61.028,14,50,14z"/><path fill="#1f212b" d="M50,46c-6.617,0-12-5.383-12-12s5.383-12,12-12s12,5.383,12,12S56.617,46,50,46z M50,23	c-6.065,0-11,4.935-11,11s4.935,11,11,11s11-4.935,11-11S56.065,23,50,23z"/><path fill="#1f212b" d="M50,50c-8.822,0-16-7.178-16-16s7.178-16,16-16c2.32,0,4.578,0.501,6.71,1.489	c0.251,0.116,0.359,0.413,0.244,0.664c-0.116,0.25-0.416,0.36-0.664,0.243C54.29,19.47,52.174,19,50,19c-8.271,0-15,6.729-15,15	s6.729,15,15,15c8.138,0,14.715-6.376,14.975-14.516c0.009-0.275,0.219-0.518,0.516-0.483c0.276,0.009,0.493,0.239,0.484,0.516	C65.697,43.199,58.681,50,50,50z"/><path fill="#1f212b" d="M62.229,25c-0.148,0-0.296-0.066-0.395-0.193c-1.025-1.318-2.239-2.443-3.609-3.343	c-0.23-0.152-0.295-0.462-0.144-0.692c0.151-0.232,0.461-0.295,0.692-0.144c1.462,0.96,2.757,2.16,3.85,3.564	c0.17,0.218,0.131,0.532-0.088,0.702C62.445,24.966,62.337,25,62.229,25z"/><path fill="#1f212b" d="M64.478,29c-0.201,0-0.391-0.122-0.467-0.321c-0.126-0.329-0.26-0.651-0.407-0.968	c-0.116-0.25-0.008-0.548,0.242-0.665c0.251-0.112,0.549-0.008,0.664,0.243c0.157,0.338,0.301,0.682,0.435,1.032	c0.099,0.258-0.03,0.547-0.288,0.646C64.598,28.989,64.537,29,64.478,29z"/></svg>