<svg xmlns="http://www.w3.org/2000/svg" width="300" height="300" viewBox="0 0 100 100"><path fill="#60be92" d="M50 15A35 35 0 1 0 50 85A35 35 0 1 0 50 15Z"/><path fill="#fefdef" d="M64,47.5H52.5V35c0-1.381-1.119-2.5-2.5-2.5s-2.5,1.119-2.5,2.5v12.5H36c-1.381,0-2.5,1.119-2.5,2.5 s1.119,2.5,2.5,2.5h11.5V65c0,1.381,1.119,2.5,2.5,2.5s2.5-1.119,2.5-2.5V52.5H64c1.381,0,2.5-1.119,2.5-2.5S65.381,47.5,64,47.5z"/><path fill="none" stroke="#1f212b" stroke-miterlimit="10" stroke-width="2" d="M50 15A35 35 0 1 0 50 85A35 35 0 1 0 50 15Z"/><path fill="none" stroke="#1f212b" stroke-linecap="round" stroke-linejoin="round" stroke-miterlimit="10" d="M65.5 23.727c-.652-.385-1.319-.747-2-1.084M68.5 25.749c-.328-.251-.662-.495-1-.732M60.5 21.356c-3.274-1.2-6.81-1.856-10.5-1.856-16.845 0-30.5 13.655-30.5 30.5S33.155 80.5 50 80.5 80.5 66.845 80.5 50c0-8.952-3.857-17.004-10-22.583"/><path fill="none" stroke="#1f212b" stroke-miterlimit="10" d="M64,47.5H52.5V35c0-1.381-1.119-2.5-2.5-2.5s-2.5,1.119-2.5,2.5 v12.5H36c-1.381,0-2.5,1.119-2.5,2.5s1.119,2.5,2.5,2.5h11.5V65c0,1.381,1.119,2.5,2.5,2.5s2.5-1.119,2.5-2.5V52.5H64 c1.381,0,2.5-1.119,2.5-2.5S65.381,47.5,64,47.5z"/></svg>