<svg xmlns="http://www.w3.org/2000/svg" width="500" height="500" fill="#000" viewBox="0 0 24 24"><path d="M 5 3 C 3.897 3 3 3.897 3 5 L 3 19 C 3 20.103 3.897 21 5 21 L 10.587891 21 C 10.211891 20.073 10 19.062 10 18 C 10 16.107 10.660766 14.37 11.759766 13 L 11 13 L 11 11 L 14.130859 11 C 15.277859 10.364 16.596 10 18 10 C 19.062 10 20.073 10.211891 21 10.587891 L 21 5 C 21 3.897 20.103 3 19 3 L 5 3 z M 7 7 L 9 7 L 9 9 L 7 9 L 7 7 z M 11 7 L 17 7 L 17 9 L 11 9 L 11 7 z M 7 11 L 9 11 L 9 13 L 7 13 L 7 11 z M 18 12 C 14.7 12 12 14.7 12 18 C 12 21.3 14.7 24 18 24 C 21.3 24 24 21.3 24 18 C 24 14.7 21.3 12 18 12 z M 7 15 L 9 15 L 9 17 L 7 17 L 7 15 z M 17 15 L 19 15 L 19 17 L 21 17 L 21 19 L 19 19 L 19 21 L 17 21 L 17 19 L 15 19 L 15 17 L 17 17 L 17 15 z"/></svg>