<svg xmlns="http://www.w3.org/2000/svg" width="100" height="100" fill="#000" viewBox="0 0 64 64"><path d="M 7 6 C 5.346 6 4 7.346 4 9 L 4 55 C 4 56.654 5.346 58 7 58 L 55 58 C 56.654 58 58 56.654 58 55 L 58 9 C 58 7.346 56.654 6 55 6 L 7 6 z M 7 8 L 55 8 C 55.551 8 56 8.449 56 9 L 56 55 C 56 55.551 55.551 56 55 56 L 7 56 C 6.449 56 6 55.551 6 55 L 6 9 C 6 8.449 6.449 8 7 8 z M 12 12 C 10.897 12 10 12.897 10 14 L 10 50 C 10 51.103 10.897 52 12 52 L 17 52 C 17.552 52 18 51.552 18 51 C 18 50.448 17.552 50 17 50 L 12 50 L 12 14 L 50 14 L 50 50 L 45 50 C 44.448 50 44 50.448 44 51 C 44 51.552 44.448 52 45 52 L 50 52 C 51.103 52 52 51.103 52 50 L 52 14 C 52 12.897 51.103 12 50 12 L 12 12 z M 29 18 C 28.448 18 28 18.448 28 19 L 28 28 L 19 28 C 18.448 28 18 28.448 18 29 L 18 33 C 18 33.552 18.448 34 19 34 L 28 34 L 28 43 C 28 43.552 28.448 44 29 44 L 33 44 C 33.552 44 34 43.552 34 43 L 34 34 L 43 34 C 43.552 34 44 33.552 44 33 L 44 29 C 44 28.448 43.552 28 43 28 L 34 28 L 34 19 C 34 18.448 33.552 18 33 18 L 29 18 z M 30 20 L 32 20 L 32 29 C 32 29.552 32.448 30 33 30 L 42 30 L 42 32 L 33 32 C 32.448 32 32 32.448 32 33 L 32 42 L 30 42 L 30 33 C 30 32.448 29.552 32 29 32 L 20 32 L 20 30 L 29 30 C 29.552 30 30 29.552 30 29 L 30 20 z M 21 49 C 20.448 49 20 49.448 20 50 L 20 52 C 20 52.552 20.448 53 21 53 C 21.552 53 22 52.552 22 52 L 22 50 C 22 49.448 21.552 49 21 49 z M 26 49 C 25.448 49 25 49.448 25 50 L 25 52 C 25 52.552 25.448 53 26 53 C 26.552 53 27 52.552 27 52 L 27 50 C 27 49.448 26.552 49 26 49 z M 31 49 C 30.448 49 30 49.448 30 50 L 30 52 C 30 52.552 30.448 53 31 53 C 31.552 53 32 52.552 32 52 L 32 50 C 32 49.448 31.552 49 31 49 z M 36 49 C 35.448 49 35 49.448 35 50 L 35 52 C 35 52.552 35.448 53 36 53 C 36.552 53 37 52.552 37 52 L 37 50 C 37 49.448 36.552 49 36 49 z M 41 49 C 40.448 49 40 49.448 40 50 L 40 52 C 40 52.552 40.448 53 41 53 C 41.552 53 42 52.552 42 52 L 42 50 C 42 49.448 41.552 49 41 49 z"/></svg>