<svg xmlns="http://www.w3.org/2000/svg" width="500" height="500" fill="#000" viewBox="0 0 50 50"><path d="M 2.8125 0 C 1.269531 0 0 1.269531 0 2.8125 L 0 7 L 44 7 L 44 2.8125 C 44 1.269531 42.730469 0 41.1875 0 Z M 0 9 L 0 40 C 0 40.554688 0.449219 41 1 41 L 30.0625 41 C 30.566406 46.046875 34.824219 50 40 50 C 45.515625 50 50 45.515625 50 40 C 50 35.90625 47.527344 32.390625 44 30.84375 L 44 9 Z M 7 15 L 11 15 L 11 17 L 7 17 Z M 14 15 L 37 15 L 37 17 L 14 17 Z M 7 20 L 11 20 L 11 22 L 7 22 Z M 14 20 L 37 20 L 37 22 L 14 22 Z M 7 25 L 11 25 L 11 27 L 7 27 Z M 14 25 L 37 25 L 37 27 L 14 27 Z M 7 30 L 11 30 L 11 32 L 7 32 Z M 14 30 L 30 30 L 30 32 L 14 32 Z M 40 32 C 44.410156 32 48 35.589844 48 40 C 48 44.410156 44.410156 48 40 48 C 35.589844 48 32 44.410156 32 40 C 32 35.589844 35.589844 32 40 32 Z M 39 35 L 39 39 L 35 39 L 35 41 L 39 41 L 39 45 L 41 45 L 41 41 L 45 41 L 45 39 L 41 39 L 41 35 Z"/></svg>