<svg xmlns="http://www.w3.org/2000/svg" width="300" height="300" viewBox="0 0 24 24"><path d="M5.237,4h14.762l-3.603,7.486C16.219,11.803,15.884,12,15.521,12H7.348L5.237,4z" opacity=".3"/><path d="M19 17H6.942c-.755 0-1.45-.41-1.816-1.07-.366-.66-.345-1.468.056-2.107l1.196-1.915L3.085 4.003l-2.071.01-.01-2 3.411-.016 4.207 10.095-1.745 2.791L6.942 15H19V17zM17 18A2 2 0 1 0 17 22 2 2 0 1 0 17 18zM7 18A2 2 0 1 0 7 22 2 2 0 1 0 7 18z"/><path d="M11 1H13V9H11z"/><path d="M8 4H16V6H8z"/><path d="M15.521,13H7.348v-2h8.174l4.113-7.405l1.748,0.972l-4.113,7.405C16.916,12.606,16.246,13,15.521,13z"/></svg>