<svg xmlns="http://www.w3.org/2000/svg" width="500" height="500" fill="#000" viewBox="0 0 24 24"><path d="M 7 3 L 7 9 L 7 15.203125 C 5.9059995 14.819168 4.6278471 15.097746 3.8007812 16 C 2.7007812 17.2 2.8 19.099219 4 20.199219 C 5.2 21.299219 7.0992188 21.2 8.1992188 20 C 8.5992188 19.6 8.8003906 19.1 8.9003906 18.5 C 8.9338942 18.332482 8.9320587 18.166108 8.9375 18 L 9 18 L 9 9 L 18 9 L 18 12.099609 C 18.7 11.999609 19.3 11.999609 20 12.099609 L 20 9 L 20 7 L 20 3 L 7 3 z M 19 14.025391 C 18.675 14.025391 18.35 14.049609 18 14.099609 C 17.1 14.299609 16.299609 14.700391 15.599609 15.400391 C 14.699609 16.200391 14.199609 17.3 14.099609 18.5 L 14.099609 19.099609 C 14.099609 21.899609 16.299609 24.099609 19.099609 24.099609 C 21.899609 24.099609 24.099609 21.899609 24.099609 19.099609 C 23.999609 16.599609 22.3 14.599609 20 14.099609 C 19.65 14.049609 19.325 14.025391 19 14.025391 z M 18 16 L 20 16 L 20 18 L 22 18 L 22 20 L 20 20 L 20 22 L 18 22 L 18 20 L 16 20 L 16 18 L 18 18 L 18 16 z"/></svg>