<svg xmlns="http://www.w3.org/2000/svg" width="300" height="300" viewBox="0 0 40 40"><path fill="#fff" d="M2.5,36.5v-33h35V36c0,0.276-0.224,0.5-0.5,0.5H2.5z"/><path fill="#4788c7" d="M37,4v32H3V4H37 M38,3H2v34h35c0.552,0,1-0.448,1-1V3L38,3z"/><path fill="#98ccfd" d="M3 4H37V9H3z"/><path fill="#fff" d="M38,21h-1v15H20v1h17c0.552,0,1-0.448,1-1V21z"/><path fill="none" stroke="#4788c7" stroke-linecap="round" stroke-miterlimit="10" d="M13.5 16.5L30.5 16.5M9.5 16.5L9.5 16.5M9.5 20.5L9.5 20.5M13.5 24.5L21.5 24.5M9.5 24.5L9.5 24.5M13.5 28.5L19.5 28.5M9.5 28.5L9.5 28.5"/><path fill="#4788c7" d="M37.5 22L37.5 22c-.275 0-.5-.225-.5-.5v-2c0-.275.225-.5.5-.5l0 0c.275 0 .5.225.5.5v2C38 21.775 37.775 22 37.5 22zM18.5 36h2c.275 0 .5.225.5.5l0 0c0 .275-.225.5-.5.5h-2c-.275 0-.5-.225-.5-.5l0 0C18 36.225 18.225 36 18.5 36z"/><path fill="#98ccfd" d="M31 22.5A8.5 8.5 0 1 0 31 39.5A8.5 8.5 0 1 0 31 22.5Z"/><path fill="#4788c7" d="M31,23c4.411,0,8,3.589,8,8s-3.589,8-8,8s-8-3.589-8-8S26.589,23,31,23 M31,22 c-4.971,0-9,4.029-9,9s4.029,9,9,9s9-4.029,9-9S35.971,22,31,22L31,22z"/><path fill="none" stroke="#fff" stroke-miterlimit="10" stroke-width="2" d="M31 36L31 26M26 31L36 31"/><path fill="none" stroke="#4788c7" stroke-linecap="round" stroke-miterlimit="10" d="M13.5 20.5L25.5 20.5"/></svg>