<svg xmlns="http://www.w3.org/2000/svg" width="100" height="100" viewBox="0 0 128 128"><path fill="#fff" d="M104 4L94 14 84 4 74 14 64 4 54 14 44 4 34 14 24 4 24 123 34 113 44 123 54 113 64 123 74 113 84 123 94 113 104 123z"/><path fill="#9eb9d3" d="M39,45c-5.5,0-10.6,1.5-15,4v52c4.4,2.6,9.5,4,15,4c16.6,0,30-13.4,30-30S55.6,45,39,45z"/><path fill="#444b54" d="M24 29.7c-1.7 0-3-1.3-3-3V4c0-1.7 1.3-3 3-3s3 1.3 3 3v22.7C27 28.4 25.7 29.7 24 29.7zM104 126c-.8 0-1.5-.3-2.1-.9l-7.9-7.9-7.9 7.9c-1.2 1.2-3.1 1.2-4.2 0l-7.9-7.9-7.9 7.9c-1.2 1.2-3.1 1.2-4.2 0l-7.9-7.9-7.9 7.9c-1.2 1.2-3.1 1.2-4.2 0l-7.9-7.9-7.9 7.9c-.9.9-2.1 1.1-3.3.7-1.1-.5-1.9-1.6-1.9-2.8V93.3c0-1.7 1.3-3 3-3s3 1.3 3 3v22.5l4.9-4.9c1.2-1.2 3.1-1.2 4.2 0l7.9 7.9 7.9-7.9c1.2-1.2 3.1-1.2 4.2 0l7.9 7.9 7.9-7.9c1.2-1.2 3.1-1.2 4.2 0l7.9 7.9 7.9-7.9c1.2-1.2 3.1-1.2 4.2 0l4.9 4.9V11.2l-4.9 4.9c-1.2 1.2-3.1 1.2-4.2 0L84 8.2l-7.9 7.9c-1.2 1.2-3.1 1.2-4.2 0L64 8.2l-7.9 7.9c-1.2 1.2-3.1 1.2-4.2 0l-10-10c-1.2-1.2-1.2-3.1 0-4.2 1.2-1.2 3.1-1.2 4.2 0L54 9.8l7.9-7.9c1.2-1.2 3.1-1.2 4.2 0L74 9.8l7.9-7.9c1.2-1.2 3.1-1.2 4.2 0L94 9.8l7.9-7.9c.9-.9 2.1-1.1 3.3-.7 1.1.5 1.9 1.6 1.9 2.8v119c0 1.2-.7 2.3-1.9 2.8C104.8 125.9 104.4 126 104 126z"/><path fill="#fff" d="M34 35A30 30 0 1 0 34 95A30 30 0 1 0 34 35Z"/><path fill="#444b54" d="M34,98C15.8,98,1,83.2,1,65s14.8-33,33-33s33,14.8,33,33S52.2,98,34,98z M34,38C19.1,38,7,50.1,7,65s12.1,27,27,27s27-12.1,27-27S48.9,38,34,38z"/><path fill="#9eb9d3" d="M94 38H64c-1.7 0-3-1.3-3-3s1.3-3 3-3h30c1.7 0 3 1.3 3 3S95.7 38 94 38zM94 53H74c-1.7 0-3-1.3-3-3s1.3-3 3-3h20c1.7 0 3 1.3 3 3S95.7 53 94 53zM94 68H77c-1.7 0-3-1.3-3-3s1.3-3 3-3h17c1.7 0 3 1.3 3 3S95.7 68 94 68zM94 83H68c-1.7 0-3-1.3-3-3s1.3-3 3-3h26c1.7 0 3 1.3 3 3S95.7 83 94 83zM84 98H58c-1.7 0-3-1.3-3-3s1.3-3 3-3h26c1.7 0 3 1.3 3 3S85.7 98 84 98zM94 98c-.8 0-1.6-.3-2.1-.9-.1-.1-.3-.3-.4-.5-.1-.2-.2-.3-.3-.5-.1-.2-.1-.4-.2-.6 0-.2-.1-.4-.1-.6 0-.8.3-1.6.9-2.1.1-.1.3-.3.5-.4.2-.1.3-.2.5-.3.2-.1.4-.1.6-.2 1-.2 2 .1 2.7.8.6.6.9 1.3.9 2.1 0 .2 0 .4-.1.6 0 .2-.1.4-.2.6-.1.2-.2.4-.3.5-.1.2-.2.3-.4.5-.1.1-.3.3-.5.4-.2.1-.3.2-.5.3-.2.1-.4.1-.6.2C94.4 98 94.2 98 94 98z"/><path fill="#f17786" d="M44,68H24c-1.7,0-3-1.3-3-3s1.3-3,3-3h20c1.7,0,3,1.3,3,3S45.7,68,44,68z"/><g><path fill="#f17786" d="M34,78c-1.7,0-3-1.3-3-3V55c0-1.7,1.3-3,3-3s3,1.3,3,3v20C37,76.7,35.7,78,34,78z"/></g></svg>