<?xml version="1.0"?><svg fill="#000000" xmlns="http://www.w3.org/2000/svg" viewBox="0 0 24 24" width="300px" height="300px">    <path d="M 6 2 C 4.9 2 4 2.9 4 4 L 4 20 C 4 21.1 4.9 22 6 22 L 13 22 L 13 20 C 13 18.343 14.343 17 16 17 C 16 15.343 17.343 14 19 14 L 20 14 L 20 8.828125 C 20 8.298125 19.789062 7.7890625 19.414062 7.4140625 L 14.585938 2.5859375 C 14.210937 2.2109375 13.701875 2 13.171875 2 L 6 2 z M 13 3.5 L 18.5 9 L 13 9 L 13 3.5 z M 11 11 C 12.641 11.031 14 12.343 14 14 L 11 14 L 11 11 z M 9 13 L 9 16 L 12 16 C 11.969 17.641 10.657 19 9 19 C 7.343 19 6 17.657 6 16 C 6 14.343 7.343 13 9 13 z M 19 16 C 18.448 16 18 16.448 18 17 L 18 19 L 16 19 C 15.448 19 15 19.448 15 20 C 15 20.552 15.448 21 16 21 L 18 21 L 18 23 C 18 23.552 18.448 24 19 24 C 19.552 24 20 23.552 20 23 L 20 21 L 22 21 C 22.552 21 23 20.552 23 20 C 23 19.448 22.552 19 22 19 L 20 19 L 20 17 C 20 16.448 19.552 16 19 16 z"/></svg>