<svg xmlns="http://www.w3.org/2000/svg" width="50" height="50" fill="#000" viewBox="0 0 32 32"><path d="M 26 1.7890625 L 8 5.1699219 L 8 18.539062 A 4 4 0 1 0 10 22 L 10 10.830078 L 24 8.2109375 L 24 14 A 10.048 10.048 0 0 1 26 14.199219 L 26 1.7890625 z M 24 4.2109375 L 24 6.1699219 L 10 8.7890625 L 10 6.8300781 L 24 4.2109375 z M 24 16 C 20.478631 16 17.757692 18.166809 16.609375 20.939453 C 15.461058 23.712097 15.854023 27.166523 18.34375 29.65625 C 20.833477 32.145977 24.287903 32.538942 27.060547 31.390625 C 29.833191 30.242308 32 27.521369 32 24 C 32 19.593567 28.406433 16 24 16 z M 24 18 C 27.325553 18 30 20.674447 30 24 C 30 26.715399 28.396597 28.673348 26.296875 29.542969 C 24.197153 30.412589 21.677612 30.161987 19.757812 28.242188 C 17.838013 26.322388 17.587411 23.802847 18.457031 21.703125 C 19.326652 19.603403 21.284601 18 24 18 z M 23 20 L 23 23 L 20 23 L 20 25 L 23 25 L 23 28 L 25 28 L 25 25 L 28 25 L 28 23 L 25 23 L 25 20 L 23 20 z M 5.9160156 20.001953 A 2 2 0 0 1 8 22 A 2.006 2.006 0 0 1 6 24 A 2 2 0 0 1 5.9160156 20.001953 z"/></svg>