<svg xmlns="http://www.w3.org/2000/svg" width="300" height="300" fill="#000" viewBox="0 0 26 26"><path d="M 1 3.1875 C 0.398438 3.1875 0 3.585938 0 4.1875 L 0 16.1875 C 0 16.789063 0.398438 17.1875 1 17.1875 L 4.40625 17.1875 C 4.605469 16.488281 4.792969 15.789063 5.09375 15.1875 L 2 15.1875 L 2 5.1875 L 24 5.1875 L 24 15.1875 L 20.8125 15.1875 C 21.113281 15.789063 21.398438 16.488281 21.5 17.1875 L 25 17.1875 C 25.601563 17.1875 26 16.789063 26 16.1875 L 26 4.1875 C 26 3.585938 25.601563 3.1875 25 3.1875 Z M 13 12.40625 C 9.199219 12.40625 6.1875 15.488281 6.1875 19.1875 C 6.1875 22.886719 9.199219 26 13 26 C 16.800781 26 19.8125 22.886719 19.8125 19.1875 C 19.8125 15.488281 16.800781 12.40625 13 12.40625 Z M 12 15.1875 L 14 15.1875 L 14 18.1875 L 17 18.1875 L 17 20.1875 L 14 20.1875 L 14 23.1875 L 12 23.1875 L 12 20.1875 L 9 20.1875 L 9 18.1875 L 12 18.1875 Z"/></svg>