<svg xmlns="http://www.w3.org/2000/svg" width="50" height="50" viewBox="0 0 64 64"><path fill="#f9e3ae" d="M14,10.265v28.121c0.009,0.545-0.431,0.995-0.984,1.004c-0.066,0.001-0.132-0.004-0.196-0.016	c-0.6-0.111-1.209-0.171-1.82-0.178c-5,0-9,3.319-9,7.408s4,7.408,9,7.408c4.77,0,8.66-3.052,9-6.914V22.316	c-0.006-0.489,0.351-0.909,0.84-0.988l24-3.744c0.545-0.087,1.059,0.278,1.147,0.817c0.009,0.056,0.014,0.114,0.013,0.171V32.46	c0.009,0.545-0.431,0.995-0.984,1.004c-0.066,0.001-0.132-0.004-0.196-0.016c-0.6-0.111-1.209-0.171-1.82-0.178	c-5,0-9,3.319-9,7.408s4,7.408,9,7.408c4.77,0,8.66-3.052,9-6.914V4.961c0.013-1.091-0.871-1.986-1.976-1.999	c-0.112-0.001-0.224,0.007-0.334,0.024l-34,5.304C14.708,8.442,13.988,9.283,14,10.265z"/><path fill="#f6d397" d="M12,49.074c-4.42,0-8.09-2.627-8.85-6.085C2.408,44.053,2.008,45.312,2,46.604	c0,4.089,4,7.408,9,7.408c4.77,0,8.66-3.052,9-6.914v-1.975C18.189,47.7,15.174,49.189,12,49.074z M44,43.147	c-4.42,0-8.09-2.627-8.85-6.085c-0.742,1.064-1.142,2.323-1.15,3.615c0,4.089,4,7.408,9,7.408c4.77,0,8.66-3.052,9-6.914v-1.975	C50.189,41.774,47.174,43.263,44,43.147z"/><path fill="#faefde" d="M52,4.961c0.013-1.091-0.871-1.986-1.976-1.999c-0.112-0.001-0.224,0.007-0.334,0.024l-34,5.304	c-0.982,0.152-1.702,0.994-1.69,1.975v3.25l38-5.926V4.961z"/><path fill="#8d6c9f" d="M52.95,2.709c-0.668-0.563-1.553-0.808-2.42-0.672l-34,5.304c-1.471,0.23-2.548,1.492-2.53,2.963	v28.072c-0.66-0.113-1.33-0.169-2-0.168c-5.51,0-10,3.763-10,8.396S6.49,55,12,55c5.24,0,9.64-3.437,10-7.902V22.316l24-3.744V32.45	c-0.66-0.113-1.33-0.169-2-0.168c-5.51,0-10,3.763-10,8.396s4.49,8.396,10,8.396c5.24,0,9.64-3.437,10-7.902V4.961	C54,4.095,53.616,3.272,52.95,2.709z M52,41.093c-0.27,3.368-3.8,6.005-8,6.005c-4.41,0-8-2.884-8-6.42c0-3.536,3.59-6.42,8-6.42	c0.553-0.001,1.105,0.045,1.65,0.138c0.585,0.103,1.186-0.056,1.64-0.435c0.448-0.373,0.708-0.922,0.71-1.501V18.572	c0.013-1.091-0.871-1.986-1.976-1.999c-0.112-0.001-0.224,0.007-0.334,0.024l-24,3.744c-0.982,0.152-1.702,0.994-1.69,1.975v24.694	c-0.27,3.378-3.8,6.015-8,6.015c-4.41,0-8-2.884-8-6.42c0-3.536,3.59-6.42,8-6.42c0.553-0.001,1.105,0.045,1.65,0.138	c0.585,0.103,1.186-0.056,1.64-0.435c0.448-0.373,0.708-0.922,0.71-1.501V10.265c-0.006-0.493,0.357-0.914,0.85-0.988l34-5.304	c0.545-0.087,1.059,0.278,1.147,0.817c0.009,0.056,0.014,0.114,0.013,0.171L52,41.093z"/><path fill="#8d6c9f" d="M28,9.317c-0.552,0-1,0.442-1,0.988v1.975c0,0.546,0.448,0.988,1,0.988s1-0.442,1-0.988v-1.975	C29,9.759,28.552,9.317,28,9.317z M23,10.058c-0.552,0-1,0.442-1,0.988v1.975c0,0.546,0.448,0.988,1,0.988s1-0.442,1-0.988v-1.975	C24,10.5,23.552,10.058,23,10.058z M18,10.798c-0.552,0-1,0.442-1,0.988v1.975c0,0.546,0.448,0.988,1,0.988s1-0.442,1-0.988v-1.975	C19,11.241,18.552,10.798,18,10.798z M33,8.329c-0.552,0-1,0.442-1,0.988v1.975c0,0.546,0.448,0.988,1,0.988s1-0.442,1-0.988V9.317	C34,8.771,33.552,8.329,33,8.329z M38,7.588c-0.552,0-1,0.442-1,0.988v1.975c0,0.546,0.448,0.988,1,0.988s1-0.442,1-0.988V8.576	C39,8.03,38.552,7.588,38,7.588z M43,6.847c-0.552,0-1,0.442-1,0.988v1.975c0,0.546,0.448,0.988,1,0.988s1-0.442,1-0.988V7.835	C44,7.29,43.552,6.847,43,6.847z M48,6.107c-0.552,0-1,0.442-1,0.988V9.07c0,0.546,0.448,0.988,1,0.988s1-0.442,1-0.988V7.094	C49,6.549,48.552,6.107,48,6.107z"/><path fill="#72caaf" d="M49,37c-6.627,0-12,5.373-12,12s5.373,12,12,12s12-5.373,12-12S55.627,37,49,37z"/><path fill="#8d6c9f" d="M49,36c-7.168,0-13,5.832-13,13s5.832,13,13,13s13-5.832,13-13S56.168,36,49,36z M49,60	c-6.065,0-11-4.935-11-11s4.935-11,11-11s11,4.935,11,11S55.065,60,49,60z"/><path fill="#faefde" d="M55,48h-5v-5c0-0.552-0.447-1-1-1s-1,0.448-1,1v5h-5c-0.553,0-1,0.448-1,1s0.447,1,1,1h5v5	c0,0.552,0.447,1,1,1s1-0.448,1-1v-5h5c0.553,0,1-0.448,1-1S55.553,48,55,48z"/></svg>