<svg fill="#000000" xmlns="http://www.w3.org/2000/svg" viewBox="0 0 32 32" width="300px" height="300px"><path d="M 16 4 C 12.698375 4 10 6.6983746 10 10 C 10 10.992073 10.372526 12.007453 10.865234 13.128906 C 11.134592 13.74199 11.450368 14.372458 11.783203 15 L 6.2363281 15 L 2.6914062 28 L 29.308594 28 L 25.763672 15 L 20.216797 15 C 20.549632 14.372458 20.865408 13.74199 21.134766 13.128906 C 21.627474 12.007453 22 10.992073 22 10 C 22 6.6983746 19.301625 4 16 4 z M 16 6 C 18.220375 6 20 7.7796254 20 10 C 20 10.388427 19.747526 11.311828 19.302734 12.324219 C 18.857943 13.336609 18.248139 14.475809 17.634766 15.533203 C 16.81857 16.940243 16.45617 17.440987 16 18.126953 C 15.54383 17.440987 15.18143 16.940243 14.365234 15.533203 C 13.751861 14.475809 13.142057 13.336609 12.697266 12.324219 C 12.252474 11.311828 12 10.388427 12 10 C 12 7.7796254 13.779625 6 16 6 z M 16 8.5 A 1.5 1.5 0 0 0 14.5 10 A 1.5 1.5 0 0 0 16 11.5 A 1.5 1.5 0 0 0 17.5 10 A 1.5 1.5 0 0 0 16 8.5 z M 7.7636719 17 L 12.912109 17 C 14.083771 18.974921 15.177734 20.568359 15.177734 20.568359 L 16 21.759766 L 16.822266 20.568359 C 16.822266 20.568359 17.916229 18.974921 19.087891 17 L 24.236328 17 L 26.691406 26 L 5.3085938 26 L 7.7636719 17 z"/></svg>