<svg xmlns="http://www.w3.org/2000/svg" width="50" height="50" viewBox="0 0 64 64"><linearGradient id="MS7VP~cXfFs2qb12E5Zfpa" x1="19" x2="19" y1="22.813" y2="29.053" gradientUnits="userSpaceOnUse" spreadMethod="reflect"><stop offset="0" stop-color="#6dc7ff"/><stop offset="1" stop-color="#e6abff"/></linearGradient><path fill="url(#MS7VP~cXfFs2qb12E5Zfpa)" d="M26,28c0,0.552-0.448,1-1,1H13c-0.552,0-1-0.448-1-1v-4c0-0.552,0.448-1,1-1h12 c0.552,0,1,0.448,1,1V28z"/><linearGradient id="MS7VP~cXfFs2qb12E5Zfpb" x1="32" x2="32" y1="8.667" y2="56.263" gradientUnits="userSpaceOnUse" spreadMethod="reflect"><stop offset="0" stop-color="#1a6dff"/><stop offset="1" stop-color="#c822ff"/></linearGradient><path fill="url(#MS7VP~cXfFs2qb12E5Zfpb)" d="M48,33.051V12c0-1.654-1.346-3-3-3H9c-1.654,0-3,1.346-3,3v30c0,1.302,0.839,2.401,2,2.815V46 c0,1.654,1.346,3,3,3h26.214c1.824,3.556,5.521,6,9.786,6c6.065,0,11-4.935,11-11C58,38.272,53.598,33.558,48,33.051z M40.695,35H28 v2h10.521c-1.374,1.662-2.265,3.733-2.471,6H9c-0.552,0-1-0.448-1-1V19h38v14.051C44.038,33.229,42.225,33.925,40.695,35z M9,11h36 c0.552,0,1,0.448,1,1v5H8v-5C8,11.448,8.448,11,9,11z M11,47c-0.552,0-1-0.448-1-1v-1h26.051c0.062,0.688,0.192,1.354,0.376,2H11z M47,53c-4.963,0-9-4.037-9-9s4.037-9,9-9s9,4.037,9,9S51.963,53,47,53z"/><linearGradient id="MS7VP~cXfFs2qb12E5Zfpc" x1="47" x2="47" y1="8.667" y2="56.263" gradientUnits="userSpaceOnUse" spreadMethod="reflect"><stop offset="0" stop-color="#1a6dff"/><stop offset="1" stop-color="#c822ff"/></linearGradient><path fill="url(#MS7VP~cXfFs2qb12E5Zfpc)" d="M48 39L46 39 46 43 42 43 42 45 46 45 46 49 48 49 48 45 52 45 52 43 48 43z"/><linearGradient id="MS7VP~cXfFs2qb12E5Zfpd" x1="17" x2="17" y1="8.667" y2="56.263" gradientUnits="userSpaceOnUse" spreadMethod="reflect"><stop offset="0" stop-color="#1a6dff"/><stop offset="1" stop-color="#c822ff"/></linearGradient><path fill="url(#MS7VP~cXfFs2qb12E5Zfpd)" d="M12 13H22V15H12z"/><linearGradient id="MS7VP~cXfFs2qb12E5Zfpe" x1="35" x2="35" y1="8.667" y2="56.263" gradientUnits="userSpaceOnUse" spreadMethod="reflect"><stop offset="0" stop-color="#1a6dff"/><stop offset="1" stop-color="#c822ff"/></linearGradient><path fill="url(#MS7VP~cXfFs2qb12E5Zfpe)" d="M28 23H42V25H28z"/><linearGradient id="MS7VP~cXfFs2qb12E5Zfpf" x1="15" x2="15" y1="8.667" y2="56.263" gradientUnits="userSpaceOnUse" spreadMethod="reflect"><stop offset="0" stop-color="#1a6dff"/><stop offset="1" stop-color="#c822ff"/></linearGradient><path fill="url(#MS7VP~cXfFs2qb12E5Zfpf)" d="M12 31H18V33H12z"/><linearGradient id="MS7VP~cXfFs2qb12E5Zfpg" x1="15" x2="15" y1="8.667" y2="56.263" gradientUnits="userSpaceOnUse" spreadMethod="reflect"><stop offset="0" stop-color="#1a6dff"/><stop offset="1" stop-color="#c822ff"/></linearGradient><path fill="url(#MS7VP~cXfFs2qb12E5Zfpg)" d="M12 35H18V37H12z"/><linearGradient id="MS7VP~cXfFs2qb12E5Zfph" x1="23" x2="23" y1="8.667" y2="56.263" gradientUnits="userSpaceOnUse" spreadMethod="reflect"><stop offset="0" stop-color="#1a6dff"/><stop offset="1" stop-color="#c822ff"/></linearGradient><path fill="url(#MS7VP~cXfFs2qb12E5Zfph)" d="M20 31H26V33H20z"/><linearGradient id="MS7VP~cXfFs2qb12E5Zfpi" x1="23" x2="23" y1="8.667" y2="56.263" gradientUnits="userSpaceOnUse" spreadMethod="reflect"><stop offset="0" stop-color="#1a6dff"/><stop offset="1" stop-color="#c822ff"/></linearGradient><path fill="url(#MS7VP~cXfFs2qb12E5Zfpi)" d="M20 35H26V37H20z"/><linearGradient id="MS7VP~cXfFs2qb12E5Zfpj" x1="35" x2="35" y1="8.667" y2="56.263" gradientUnits="userSpaceOnUse" spreadMethod="reflect"><stop offset="0" stop-color="#1a6dff"/><stop offset="1" stop-color="#c822ff"/></linearGradient><path fill="url(#MS7VP~cXfFs2qb12E5Zfpj)" d="M28 27H42V29H28z"/><linearGradient id="MS7VP~cXfFs2qb12E5Zfpk" x1="35" x2="35" y1="8.667" y2="56.263" gradientUnits="userSpaceOnUse" spreadMethod="reflect"><stop offset="0" stop-color="#1a6dff"/><stop offset="1" stop-color="#c822ff"/></linearGradient><path fill="url(#MS7VP~cXfFs2qb12E5Zfpk)" d="M28 31H42V33H28z"/></svg>