<svg xmlns="http://www.w3.org/2000/svg" width="500" height="500" fill="#000" viewBox="0 0 64 64"><path d="M 32 2 C 23.178 2 16 9.178 16 18 C 16 24.944 20.018297 30.701531 23.904297 36.269531 C 24.309185 36.849512 24.71001 37.425885 25.105469 38 L 13 38 C 12.58 38 12.204547 38.263203 12.060547 38.658203 L 4.0605469 60.658203 C 3.9495469 60.965203 3.9936406 61.307219 4.1816406 61.574219 C 4.3686406 61.841219 4.674 62 5 62 L 59 62 C 59.326 62 59.631359 61.841219 59.818359 61.574219 C 60.005359 61.306219 60.050453 60.965203 59.939453 60.658203 L 51.939453 38.658203 C 51.795453 38.263203 51.42 38 51 38 L 38.486328 38 C 39.172356 36.932258 39.872374 35.867536 40.576172 34.8125 C 44.393172 29.0885 48 23.683 48 18 C 48 9.178 40.822 2 32 2 z M 32 4 C 39.72 4 46 10.28 46 18 C 46 23.078 42.557109 28.239125 38.912109 33.703125 C 36.191109 37.784125 33.405563 41.959688 31.976562 46.304688 C 31.045569 43.639092 29.557587 41.103112 27.925781 38.626953 C 27.890021 38.538556 27.831634 38.464375 27.773438 38.390625 C 27.044425 37.29267 26.297279 36.202978 25.544922 35.125 C 21.834922 29.811 18 24.315 18 18 C 18 10.28 24.28 4 32 4 z M 32 11 C 28.14 11 25 14.14 25 18 C 25 21.86 28.14 25 32 25 C 35.86 25 39 21.86 39 18 C 39 17.448 38.552 17 38 17 C 37.448 17 37 17.448 37 18 C 37 20.757 34.757 23 32 23 C 29.243 23 27 20.757 27 18 C 27 15.243 29.243 13 32 13 C 32.552 13 33 12.552 33 12 C 33 11.448 32.552 11 32 11 z M 35.283203 11.892578 C 34.8985 11.834734 34.496797 12.006875 34.279297 12.359375 C 33.991297 12.829375 34.138375 13.445375 34.609375 13.734375 C 35.277375 14.144375 35.848766 14.711906 36.259766 15.378906 C 36.448766 15.685906 36.776328 15.853516 37.111328 15.853516 C 37.290328 15.853516 37.471766 15.805125 37.634766 15.703125 C 38.104766 15.413125 38.250937 14.798125 37.960938 14.328125 C 37.385938 13.396125 36.587297 12.601297 35.654297 12.029297 C 35.537047 11.957297 35.411437 11.911859 35.283203 11.892578 z M 32 16 A 2 2 0 0 0 30 18 A 2 2 0 0 0 32 20 A 2 2 0 0 0 34 18 A 2 2 0 0 0 32 16 z M 13.699219 40 L 26.451172 40 C 29.007199 43.905903 31 47.771967 31 52 C 31 52.552 31.448 53 32 53 C 32.552 53 33 52.552 33 52 C 33 47.958468 34.866249 43.944535 37.244141 40 L 50.300781 40 L 57.572266 60 L 6.4277344 60 L 13.699219 40 z M 12 54 C 11.448 54 11 54.448 11 55 L 11 57 C 11 57.552 11.448 58 12 58 C 12.552 58 13 57.552 13 57 L 13 55 C 13 54.448 12.552 54 12 54 z M 17 54 C 16.448 54 16 54.448 16 55 L 16 57 C 16 57.552 16.448 58 17 58 C 17.552 58 18 57.552 18 57 L 18 55 C 18 54.448 17.552 54 17 54 z M 22 54 C 21.448 54 21 54.448 21 55 L 21 57 C 21 57.552 21.448 58 22 58 C 22.552 58 23 57.552 23 57 L 23 55 C 23 54.448 22.552 54 22 54 z M 27 54 C 26.448 54 26 54.448 26 55 L 26 57 C 26 57.552 26.448 58 27 58 C 27.552 58 28 57.552 28 57 L 28 55 C 28 54.448 27.552 54 27 54 z M 32 54 C 31.448 54 31 54.448 31 55 L 31 57 C 31 57.552 31.448 58 32 58 C 32.552 58 33 57.552 33 57 L 33 55 C 33 54.448 32.552 54 32 54 z M 37 54 C 36.448 54 36 54.448 36 55 L 36 57 C 36 57.552 36.448 58 37 58 C 37.552 58 38 57.552 38 57 L 38 55 C 38 54.448 37.552 54 37 54 z M 42 54 C 41.448 54 41 54.448 41 55 L 41 57 C 41 57.552 41.448 58 42 58 C 42.552 58 43 57.552 43 57 L 43 55 C 43 54.448 42.552 54 42 54 z M 47 54 C 46.448 54 46 54.448 46 55 L 46 57 C 46 57.552 46.448 58 47 58 C 47.552 58 48 57.552 48 57 L 48 55 C 48 54.448 47.552 54 47 54 z M 52 54 C 51.448 54 51 54.448 51 55 L 51 57 C 51 57.552 51.448 58 52 58 C 52.552 58 53 57.552 53 57 L 53 55 C 53 54.448 52.552 54 52 54 z"/></svg>