<svg xmlns="http://www.w3.org/2000/svg" width="300" height="300" viewBox="0 0 24 24"><path d="M8 7H10V9H8zM12 7H17V9H12zM8 11H10V13H8z"/><path d="M12,19H5c-0.551,0-1-0.449-1-1v-1h8.294c0.215-0.723,0.544-1.396,0.966-2H6V5h13v7c0.695,0,1.366,0.105,2,0.294V3H4v12H2v3 c0,1.654,1.346,3,3,3h7.294C12.105,20.366,12,19.695,12,19z"/><path d="M12 13h3.408c.495-.297 1.027-.538 1.592-.706V11h-5V13zM15.471 15.482c-.976.976-1.468 2.25-1.468 3.528 0 1.278.492 2.553 1.468 3.528 1.952 1.952 5.106 1.951 7.058-.001s1.952-5.106 0-7.058C20.578 13.531 17.423 13.531 15.471 15.482zM20.003 16v2h2v2.003h-2v2H18v-2h-2V18h2v-2H20.003z"/><path d="M12,19c0-3.866,3.134-7,7-7c0.34,0,0.673,0.033,1,0.08V4H5v12H3v2c0,1.105,0.895,2,2,2h7.08 C12.033,19.673,12,19.34,12,19z" opacity=".3"/></svg>