<svg xmlns="http://www.w3.org/2000/svg" width="300" height="300" viewBox="0 0 100 100"><path fill="#78a0cf" d="M13 27A2 2 0 1 0 13 31A2 2 0 1 0 13 27Z"/><path fill="#f1bc19" d="M77 12A1 1 0 1 0 77 14A1 1 0 1 0 77 12Z"/><path fill="#cee1f4" d="M50 13A37 37 0 1 0 50 87A37 37 0 1 0 50 13Z"/><path fill="#f1bc19" d="M83 11A4 4 0 1 0 83 19A4 4 0 1 0 83 11Z"/><path fill="#78a0cf" d="M87 22A2 2 0 1 0 87 26A2 2 0 1 0 87 22Z"/><path fill="#fbcd59" d="M81 74A2 2 0 1 0 81 78 2 2 0 1 0 81 74zM15 59A4 4 0 1 0 15 67 4 4 0 1 0 15 59z"/><path fill="#78a0cf" d="M25 85A2 2 0 1 0 25 89A2 2 0 1 0 25 85Z"/><path fill="#fff" d="M18.5 51A2.5 2.5 0 1 0 18.5 56A2.5 2.5 0 1 0 18.5 51Z"/><path fill="#f1bc19" d="M21 66A1 1 0 1 0 21 68A1 1 0 1 0 21 66Z"/><path fill="#fff" d="M80 33A1 1 0 1 0 80 35A1 1 0 1 0 80 33Z"/><g><path fill="#add4a1" d="M29.082,72.3c-0.783,0-1.64-0.425-2.085-1.032c-0.29-0.396-0.368-0.814-0.232-1.242l6.106-18.621 C33.37,49.6,34.147,48.7,35.19,48.7h29.663c0.711,0,1.616,0.305,2.313,2.683l6.115,18.648c0.116,0.532-0.143,1.017-0.384,1.318 c-0.462,0.577-1.222,0.95-1.936,0.95H29.082z"/><path fill="#472b29" d="M64.853,49.4c0.274,0,1.002,0,1.654,2.223l6.082,18.548c0.039,0.245-0.041,0.494-0.239,0.741 c-0.329,0.412-0.887,0.688-1.389,0.688h-41.88c-0.556,0-1.209-0.321-1.52-0.746c-0.201-0.275-0.175-0.474-0.134-0.604 l6.108-18.627l0.01-0.032l0.009-0.032c0.395-1.433,0.945-2.159,1.635-2.159H64.853 M64.853,48H35.191 c-1.648,0-2.518,1.495-2.984,3.187l-6.108,18.627C25.546,71.551,27.434,73,29.082,73h41.88c1.648,0,3.366-1.495,2.984-3.187 l-6.108-18.627C67.329,49.449,66.502,48,64.853,48L64.853,48z"/></g><g><path fill="#add4a1" d="M46.5,69h21c1.339,0,1.875-0.607,1.437-2.004l-4.944-15.219"/><path fill="#472b29" d="M67.5,69.5h-21c-0.276,0-0.5-0.224-0.5-0.5s0.224-0.5,0.5-0.5h21c0.356,0,0.816-0.049,0.989-0.284 c0.139-0.188,0.128-0.568-0.029-1.07l-4.942-15.215c-0.085-0.263,0.059-0.545,0.321-0.63c0.263-0.086,0.545,0.059,0.63,0.321 l4.944,15.22c0.268,0.854,0.229,1.495-0.118,1.966C68.958,69.268,68.354,69.5,67.5,69.5z"/></g><g><path fill="#472b29" d="M43.875,69.5H40.75c-0.276,0-0.5-0.224-0.5-0.5s0.224-0.5,0.5-0.5h3.125c0.276,0,0.5,0.224,0.5,0.5 S44.151,69.5,43.875,69.5z"/></g><g><path fill="#472b29" d="M38.375,69.5h-4.871c-0.276,0-0.5-0.224-0.5-0.5s0.224-0.5,0.5-0.5h4.871c0.276,0,0.5,0.224,0.5,0.5 S38.651,69.5,38.375,69.5z"/></g><g><path fill="#ea4989" d="M50.5,61.379c-1.047,0-1.182-0.877-1.291-1.581l-0.038-0.241 c-1.076-6.654-4.182-10.631-6.923-14.139c-2.548-3.262-4.749-6.079-4.749-10.199c0-7.013,5.832-12.719,13-12.719 c7.168,0,13,5.706,13,12.719c0,4.12-2.201,6.938-4.749,10.199c-2.74,3.508-5.847,7.484-6.923,14.138l-0.038,0.242 C51.682,60.502,51.547,61.379,50.5,61.379z"/><path fill="#472b29" d="M50.5,23C57.404,23,63,28.47,63,35.219c0,8.324-9.58,11.36-11.665,24.257 c-0.137,0.831-0.146,1.403-0.835,1.403s-0.698-0.573-0.835-1.403C47.58,46.579,38,43.543,38,35.219C38,28.47,43.596,23,50.5,23 M50.5,22C43.056,22,37,27.93,37,35.219c0,4.292,2.358,7.311,4.855,10.507c2.703,3.46,5.768,7.383,6.823,13.909l0.038,0.239 c0.108,0.701,0.309,2.005,1.785,2.005s1.677-1.304,1.785-2.005l0.037-0.236c1.056-6.529,4.12-10.452,6.823-13.912 C61.642,42.53,64,39.511,64,35.219C64,27.93,57.944,22,50.5,22L50.5,22z"/></g><g><path fill="#fffef4" d="M50.424 29.92A5 5 0 1 0 50.424 39.92A5 5 0 1 0 50.424 29.92Z"/><path fill="#472b29" d="M50.424,30.42c2.486,0,4.5,2.014,4.5,4.5s-2.014,4.5-4.5,4.5s-4.5-2.014-4.5-4.5 S47.938,30.42,50.424,30.42 M50.424,29.42c-3.033,0-5.5,2.467-5.5,5.5s2.467,5.5,5.5,5.5s5.5-2.467,5.5-5.5 S53.457,29.42,50.424,29.42L50.424,29.42z"/></g><g><path fill="#472b29" d="M52.057,49.12c-0.079,0-0.158-0.019-0.232-0.058c-0.244-0.128-0.339-0.43-0.21-0.675 c1.551-2.957,4.485-6.774,5.739-8.403c0.279-0.364,0.471-0.611,0.534-0.706c0.915-1.355,1.399-2.939,1.399-4.582 c0-0.276,0.224-0.5,0.5-0.5s0.5,0.224,0.5,0.5c0,1.843-0.543,3.621-1.571,5.143c-0.067,0.101-0.271,0.366-0.57,0.755 c-1.237,1.609-4.135,5.378-5.646,8.259C52.41,49.022,52.236,49.12,52.057,49.12z"/></g><g><path fill="#472b29" d="M59.472,32.869c-0.22,0-0.421-0.146-0.481-0.366c-0.191-0.688-0.473-1.351-0.837-1.969 c-0.391-0.66-0.871-1.263-1.428-1.79c-0.2-0.19-0.209-0.507-0.02-0.707c0.19-0.199,0.506-0.21,0.707-0.02 c0.624,0.592,1.163,1.268,1.602,2.008c0.409,0.694,0.725,1.438,0.938,2.21c0.074,0.267-0.082,0.542-0.348,0.615 C59.561,32.863,59.516,32.869,59.472,32.869z"/></g><g><path fill="#472b29" d="M55.087,27.471c-0.078,0-0.156-0.018-0.23-0.056C53.702,26.816,52.4,26.5,51.091,26.5 c-0.276,0-0.5-0.224-0.5-0.5s0.224-0.5,0.5-0.5c1.469,0,2.931,0.355,4.227,1.026c0.245,0.128,0.341,0.43,0.214,0.675 C55.441,27.372,55.268,27.471,55.087,27.471z"/></g></svg>