<svg xmlns="http://www.w3.org/2000/svg" width="300" height="300" fill="#000" viewBox="0 0 16 16"><path d="M 2.4921875 4 C 1.6696561 4 0.9921875 4.6774686 0.9921875 5.5 L 0.9921875 9.5 C 0.9921875 10.322531 1.6696561 11 2.4921875 11 L 7.0429688 11 C 7.0241798 11.166462 6.9921875 11.32864 6.9921875 11.5 C 6.9921875 13.979359 9.0128278 16 11.492188 16 C 13.971547 16 15.992187 13.979359 15.992188 11.5 C 15.992188 9.94479 15.196779 8.5704696 13.992188 7.7617188 L 13.992188 5.5 C 13.992188 4.6774686 13.314718 4 12.492188 4 L 2.4921875 4 z M 2.4921875 5 L 12.492188 5 C 12.773656 5 12.992188 5.2185314 12.992188 5.5 L 12.992188 7.2753906 C 12.520769 7.1071101 12.020333 7 11.492188 7 C 9.5409732 6.9999998 7.8892846 8.2583625 7.2675781 10 L 2.4921875 10 C 2.2107189 10 1.9921875 9.7814686 1.9921875 9.5 L 1.9921875 5.5 C 1.9921875 5.2185314 2.2107189 5 2.4921875 5 z M 11.492188 8 C 13.431105 8 14.992187 9.5610811 14.992188 11.5 C 14.992188 13.438919 13.431106 15 11.492188 15 C 9.5532679 15 7.9921875 13.438919 7.9921875 11.5 C 7.9921875 9.5610809 9.5532679 7.9999998 11.492188 8 z M 10.992188 9 L 10.992188 11 L 8.9921875 11 L 8.9921875 12 L 10.992188 12 L 10.992188 14 L 11.992188 14 L 11.992188 12 L 13.992188 12 L 13.992188 11 L 11.992188 11 L 11.992188 9 L 10.992188 9 z"/></svg>