<svg xmlns="http://www.w3.org/2000/svg" width="50" height="50" viewBox="0 0 64 64"><path fill="#f9e3ae" d="M55,57H7c-1.105,0-2-0.895-2-2V9c0-1.105,0.895-2,2-2h48c1.105,0,2,0.895,2,2v46 C57,56.105,56.105,57,55,57z"/><path fill="#f6d397" d="M54,57H8c-1.657,0-3-1.343-3-3V36c0-2.209,1.791-4,4-4h44c2.209,0,4,1.791,4,4v18 C57,55.657,55.657,57,54,57z"/><path fill="#85cbf8" d="M48,51H14c-1.105,0-2-0.895-2-2V15c0-1.105,0.895-2,2-2h34c1.105,0,2,0.895,2,2v34 C50,50.105,49.105,51,48,51z"/><path fill="#faefde" d="M43 29L33 29 33 19 29 19 29 29 19 29 19 33 29 33 29 43 33 43 33 33 43 33z"/><g><path fill="#8d6c9f" d="M50,12H12c-1.103,0-2,0.897-2,2v36c0,1.103,0.897,2,2,2h5c0.552,0,1-0.448,1-1s-0.448-1-1-1h-5V14 h38v36h-5c-0.552,0-1,0.448-1,1s0.448,1,1,1h5c1.103,0,2-0.897,2-2V14C52,12.897,51.103,12,50,12z"/><path fill="#8d6c9f" d="M55,6H7C5.346,6,4,7.346,4,9v46c0,1.654,1.346,3,3,3h48c1.654,0,3-1.346,3-3V9 C58,7.346,56.654,6,55,6z M56,55c0,0.551-0.449,1-1,1H7c-0.551,0-1-0.449-1-1V9c0-0.551,0.449-1,1-1h48c0.551,0,1,0.449,1,1V55z"/><path fill="#8d6c9f" d="M26 49c-.552 0-1 .448-1 1v2c0 .552.448 1 1 1s1-.448 1-1v-2C27 49.448 26.552 49 26 49zM31 49c-.552 0-1 .448-1 1v2c0 .552.448 1 1 1s1-.448 1-1v-2C32 49.448 31.552 49 31 49zM36 49c-.552 0-1 .448-1 1v2c0 .552.448 1 1 1s1-.448 1-1v-2C37 49.448 36.552 49 36 49zM41 49c-.552 0-1 .448-1 1v2c0 .552.448 1 1 1s1-.448 1-1v-2C42 49.448 41.552 49 41 49zM21 49c-.552 0-1 .448-1 1v2c0 .552.448 1 1 1s1-.448 1-1v-2C22 49.448 21.552 49 21 49zM44 29c0-.552-.448-1-1-1h-9v-9c0-.552-.448-1-1-1h-4c-.552 0-1 .448-1 1v9h-9c-.552 0-1 .448-1 1v4c0 .552.448 1 1 1h9v9c0 .552.448 1 1 1h4c.552 0 1-.448 1-1v-9h9c.552 0 1-.448 1-1V29zM42 32h-9c-.552 0-1 .448-1 1v9h-2v-9c0-.552-.448-1-1-1h-9v-2h9c.552 0 1-.448 1-1v-9h2v9c0 .552.448 1 1 1h9V32z"/></g></svg>