<svg xmlns="http://www.w3.org/2000/svg" width="300" height="300" viewBox="0 0 80 80"><path fill="#fff" d="M12.5 75.5L12.5 4.5 49.8 4.5 67.5 22.2 67.5 75.5z"/><path fill="#788b9c" d="M49.6,5L67,22.4V75H13V5H49.6 M50,4H12v72h56V22L50,4L50,4z"/><path fill="#c5d4de" d="M47.7,76H68V42.9c-0.3-0.1-0.7-0.2-1-0.3V75H46.8C47.1,75.3,47.4,75.7,47.7,76z"/><path fill="#788b9c" d="M29 32H56V33H29zM29 38H48V39H29zM29 44H56V45H29zM29 50H48V51H29zM29 56H56V57H29z"/><path fill="#bae0bd" d="M62,79.5c-9.6,0-17.5-7.9-17.5-17.5S52.4,44.5,62,44.5S79.5,52.4,79.5,62S71.6,79.5,62,79.5z"/><path fill="#5e9c76" d="M62,45c9.4,0,17,7.6,17,17s-7.6,17-17,17s-17-7.6-17-17S52.6,45,62,45 M62,44c-9.9,0-18,8.1-18,18 s8.1,18,18,18s18-8.1,18-18S71.9,44,62,44L62,44z"/><path fill="#fff" d="M60 52H64V72H60z"/><path fill="#fff" d="M52 60H72V64H52zM49.5 22.5L49.5 4.5 49.8 4.5 67.5 22.2 67.5 22.5z"/><path fill="#788b9c" d="M50,5.4L66.6,22H50V5.4 M50,4h-1v19h19v-1L50,4L50,4z"/><path fill="#c74343" d="M24.5 31A1.5 1.5 0 1 0 24.5 34 1.5 1.5 0 1 0 24.5 31zM24.5 37A1.5 1.5 0 1 0 24.5 40 1.5 1.5 0 1 0 24.5 37z"/><g><path fill="#c74343" d="M24.5 43A1.5 1.5 0 1 0 24.5 46A1.5 1.5 0 1 0 24.5 43Z"/></g><g><path fill="#c74343" d="M24.5 49A1.5 1.5 0 1 0 24.5 52A1.5 1.5 0 1 0 24.5 49Z"/></g><g><path fill="#c74343" d="M24.5 55A1.5 1.5 0 1 0 24.5 58A1.5 1.5 0 1 0 24.5 55Z"/></g></svg>