<svg xmlns="http://www.w3.org/2000/svg" width="300" height="300" viewBox="0 0 24 24"><path d="M19.2,15h-2.388c-0.485,0.731-0.971,1.408-1.419,2h2.454l1.2,3H4.953l1.2-3h2.454c-0.448-0.592-0.934-1.269-1.419-2H4.8L2,22h20L19.2,15z"/><path d="M12,1C8.686,1,6,3.686,6,7c0,4.286,6,11,6,11s6-6.714,6-11C18,3.686,15.314,1,12,1z M11.999,14.859C10.078,12.364,8,9.016,8,7c0-2.206,1.794-4,4-4s4,1.794,4,4C16,9.01,13.92,12.36,11.999,14.859z"/><path d="M12 5A2 2 0 1 0 12 9A2 2 0 1 0 12 5Z"/><path d="M17,7c0,2.761-5,9-5,9S7,9.761,7,7s2.239-5,5-5S17,4.239,17,7z" opacity=".3"/></svg>