<svg xmlns="http://www.w3.org/2000/svg" width="300" height="300" fill="#000" viewBox="0 0 50 50"><path d="M 25 3 C 24.065529 3 22.342634 3.1922485 20.857422 4.4609375 C 20.398681 4.8083214 19.373867 5.711436 17.886719 7 L 11 7 C 10.447 7 10 7.448 10 8 L 10 13.962891 C 6.382 17.160891 3.3339844 19.878906 3.3339844 19.878906 C 3.1219844 20.067906 3 20.34 3 20.625 L 3 46 C 3 46.552 3.447 47 4 47 L 30.267578 47 C 29.817578 46.375 29.426563 45.707 29.101562 45 L 5 45 L 5 43.429688 C 7.161 41.726687 20.902797 30.90225 22.091797 30.03125 C 23.430797 29.04925 24.749 29 25 29 C 25.604 29 26.781 29.130859 27.875 30.005859 C 28.183 30.252859 29.285875 31.119688 30.796875 32.304688 C 31.228875 31.788688 31.705797 31.313953 32.216797 30.876953 C 30.615797 29.620953 29.439 28.695312 29.125 28.445312 C 27.555 27.188312 25.866 27 25 27 C 24.494 27 22.704203 27.102969 20.908203 28.417969 C 20.648498 28.608851 18.777523 30.079949 17.630859 30.974609 L 12 26.542969 L 12 9 L 17.988281 9 A 1.0001 1.0001 0 0 0 18.462891 9 L 31.513672 9 A 1.0001 1.0001 0 0 0 31.859375 9 L 38 9 L 38 28.181641 C 38.439 28.108641 38.886844 28.058203 39.339844 28.033203 L 45 23.578125 L 45 29.101562 C 45.707 29.426562 46.375 29.817578 47 30.267578 L 47 20.625 C 47 20.34 46.878016 20.067906 46.666016 19.878906 C 46.666016 19.878906 43.618 17.160891 40 13.962891 L 40 8 C 40 7.448 39.553 7 39 7 L 32.052734 7 C 30.621699 5.7124523 29.597448 4.8047971 29.140625 4.4589844 C 27.65593 3.1920488 25.933993 3 25 3 z M 25 5 C 25.639946 5 26.886525 5.1588743 27.849609 5.984375 A 1.0001 1.0001 0 0 0 27.900391 6.0253906 C 27.959185 6.0694411 28.697665 6.7277272 29.013672 7 L 20.960938 7 C 21.279382 6.7285566 22.041101 6.0692269 22.099609 6.0253906 A 1.0001 1.0001 0 0 0 22.150391 5.984375 C 23.113477 5.1588747 24.360054 5 25 5 z M 16 14 A 1.0001 1.0001 0 1 0 16 16 L 34 16 A 1.0001 1.0001 0 1 0 34 14 L 16 14 z M 10 16.632812 L 10 24.966797 L 5.0234375 21.050781 C 5.7770686 20.379012 7.6860541 18.683018 10 16.632812 z M 40 16.632812 C 42.305 18.674813 44.216563 20.375734 44.976562 21.052734 L 40 24.96875 L 40 16.632812 z M 16 19 A 1.0001 1.0001 0 1 0 16 21 L 27 21 A 1.0001 1.0001 0 1 0 27 19 L 16 19 z M 5 23.578125 L 16.005859 32.242188 C 12.210792 35.214245 7.6088137 38.828724 5 40.882812 L 5 23.578125 z M 40.011719 30.023438 C 37.448469 30.023438 34.885906 30.996906 32.941406 32.941406 C 29.052406 36.830406 29.052406 43.193031 32.941406 47.082031 C 36.830406 50.971031 43.193031 50.971031 47.082031 47.082031 C 50.971031 43.193031 50.971031 36.830406 47.082031 32.941406 C 45.137531 30.996906 42.574969 30.023438 40.011719 30.023438 z M 40.011719 32.021484 C 42.062344 32.021484 44.114422 32.799969 45.669922 34.355469 C 48.780922 37.467469 48.780922 42.558922 45.669922 45.669922 C 42.557922 48.780922 37.466469 48.780922 34.355469 45.669922 C 31.244469 42.557922 31.243469 37.466469 34.355469 34.355469 C 35.911469 32.799969 37.961094 32.021484 40.011719 32.021484 z M 40.011719 34.072266 C 39.445719 34.072266 39.021484 34.4965 39.021484 35.0625 L 39.021484 39.021484 L 35.0625 39.021484 C 34.4965 39.021484 34.072266 39.445719 34.072266 40.011719 C 34.072266 40.577719 34.4965 41.001953 35.0625 41.001953 L 39.021484 41.001953 L 39.021484 44.962891 C 39.021484 45.528891 39.445719 45.951172 40.011719 45.951172 C 40.294719 45.951172 40.57775 45.810922 40.71875 45.669922 C 40.86075 45.528922 41.001953 45.245891 41.001953 44.962891 L 41.001953 41.001953 L 44.962891 41.001953 C 45.245891 41.001953 45.528922 40.85975 45.669922 40.71875 C 45.811922 40.57775 45.951172 40.294719 45.951172 40.011719 C 45.951172 39.445719 45.528891 39.021484 44.962891 39.021484 L 41.001953 39.021484 L 41.001953 35.0625 C 41.001953 34.4975 40.577719 34.072266 40.011719 34.072266 z"/></svg>