<svg xmlns="http://www.w3.org/2000/svg" width="300" height="300" fill="#000" viewBox="0 0 80 80"><path d="M 22 6 C 13.17552 6 6 13.17552 6 22 C 6 30.82448 13.17552 38 22 38 C 22.678567 38 23.343447 37.943673 24 37.861328 L 24 53.853516 C 22.749525 53.356219 21.427637 53 20 53 C 13.936593 53 9 57.936593 9 64 C 9 70.063407 13.936593 75 20 75 C 26.063407 75 31 70.063407 31 64 L 31 35.220703 C 32.621682 34.113577 34.02283 32.713908 35.142578 31.101562 L 64 28.537109 L 64 49.853516 C 62.749657 49.356021 61.427252 49 60 49 C 53.936593 49 49 53.936593 49 60 C 49 66.063407 53.936593 71 60 71 C 66.063407 71 71 66.063407 71 60 L 71 10.90625 L 35.855469 14.03125 C 33.088899 9.2388485 27.921685 6 22 6 z M 22 8 C 29.74352 8 36 14.25648 36 22 C 36 29.74352 29.74352 36 22 36 C 14.25648 36 8 29.74352 8 22 C 8 14.25648 14.25648 8 22 8 z M 69 13.09375 L 69 60 C 69 64.982593 64.982593 69 60 69 C 55.017407 69 51 64.982593 51 60 C 51 55.017407 55.017407 51 60 51 C 61.642713 51 63.170212 51.445385 64.498047 52.214844 L 66 53.083984 L 66 26.351562 L 36.373047 28.986328 C 37.404748 26.87211 38 24.507184 38 22 C 38 19.860526 37.569493 17.821937 36.804688 15.955078 L 69 13.09375 z M 21 15 L 21 21 L 15 21 L 15 23 L 21 23 L 21 29 L 23 29 L 23 23 L 29 23 L 29 21 L 23 21 L 23 15 L 21 15 z M 65 18 A 1 1 0 0 0 65 20 A 1 1 0 0 0 65 18 z M 65 22 A 1 1 0 0 0 65 24 A 1 1 0 0 0 65 22 z M 29 36.365234 L 29 64 C 29 68.982593 24.982593 73 20 73 C 15.017407 73 11 68.982593 11 64 C 11 59.017407 15.017407 55 20 55 C 21.642713 55 23.171952 55.444211 24.5 56.212891 L 26 57.082031 L 26 37.472656 C 27.045768 37.202111 28.048208 36.830853 29 36.365234 z M 54 59 C 53.448 59 53 59.448 53 60 C 53 60.552 53.448 61 54 61 C 54.552 61 55 60.552 55 60 C 55 59.448 54.552 59 54 59 z M 66 59 C 65.448 59 65 59.448 65 60 C 65 60.552 65.448 61 66 61 C 66.552 61 67 60.552 67 60 C 67 59.448 66.552 59 66 59 z M 14 63 C 13.448 63 13 63.448 13 64 C 13 64.552 13.448 65 14 65 C 14.552 65 15 64.552 15 64 C 15 63.448 14.552 63 14 63 z M 26 63 C 25.448 63 25 63.448 25 64 C 25 64.552 25.448 65 26 65 C 26.552 65 27 64.552 27 64 C 27 63.448 26.552 63 26 63 z M 64.242188 63.242188 C 63.986187 63.242188 63.730156 63.340156 63.535156 63.535156 C 63.144156 63.926156 63.144156 64.559219 63.535156 64.949219 C 63.926156 65.340219 64.559219 65.340219 64.949219 64.949219 C 65.340219 64.558219 65.340219 63.925156 64.949219 63.535156 C 64.754219 63.340156 64.498188 63.242188 64.242188 63.242188 z M 55.755859 63.244141 C 55.500109 63.244141 55.244328 63.340156 55.048828 63.535156 C 54.657828 63.926156 54.657828 64.559219 55.048828 64.949219 C 55.439828 65.340219 56.072891 65.340219 56.462891 64.949219 C 56.853891 64.558219 56.853891 63.925156 56.462891 63.535156 C 56.267391 63.340156 56.011609 63.244141 55.755859 63.244141 z M 60 65 C 59.448 65 59 65.448 59 66 C 59 66.552 59.448 67 60 67 C 60.552 67 61 66.552 61 66 C 61 65.448 60.552 65 60 65 z M 15.757812 67.242188 C 15.501812 67.242188 15.245781 67.339656 15.050781 67.535156 C 14.659781 67.926156 14.659781 68.559219 15.050781 68.949219 C 15.441781 69.340219 16.074844 69.340219 16.464844 68.949219 C 16.855844 68.558219 16.855844 67.925156 16.464844 67.535156 C 16.269844 67.339656 16.013813 67.242188 15.757812 67.242188 z M 24.242188 67.242188 C 23.986312 67.242188 23.730156 67.340156 23.535156 67.535156 C 23.144156 67.926156 23.144156 68.559219 23.535156 68.949219 C 23.926156 69.340219 24.559219 69.340219 24.949219 68.949219 C 25.339219 68.558219 25.340219 67.925156 24.949219 67.535156 C 24.753719 67.340156 24.498063 67.242188 24.242188 67.242188 z M 20 69 C 19.448 69 19 69.448 19 70 C 19 70.552 19.448 71 20 71 C 20.552 71 21 70.552 21 70 C 21 69.448 20.552 69 20 69 z"/></svg>