<svg xmlns="http://www.w3.org/2000/svg" width="50" height="50" viewBox="0 0 64 64"><radialGradient id="idM1BnkJLlZQYHAATSy2sa" cx="32" cy="32" r="33.002" gradientUnits="userSpaceOnUse" spreadMethod="reflect"><stop offset="0" stop-color="#f4e09d"/><stop offset=".226" stop-color="#f8e8b5"/><stop offset=".513" stop-color="#fcf0cd"/><stop offset=".778" stop-color="#fef4dc"/><stop offset="1" stop-color="#fff6e1"/></radialGradient><path fill="url(#idM1BnkJLlZQYHAATSy2sa)" d="M55.454,45.668c0.5,0.898,1.504,1.337,2.532,1.332c1.75-0.008,3.153,1.483,3.002,3.262 C60.855,51.838,59.434,53,57.852,53L48,53v1H26h-8H7c-1.71,0-3.086-1.431-2.996-3.161C4.089,49.216,5.545,48,7.17,48L8,48 c1.215,0,2.176-1.083,1.973-2.336C9.813,44.681,8.889,44,7.893,44L3,44c-1.71,0-3.086-1.431-2.996-3.161 C0.089,39.216,1.545,38,3.17,38l6.33,0c1.381,0,2.5-1.119,2.5-2.5v0c0-1.381-1.119-2.5-2.5-2.5h0C8.119,33,7,31.881,7,30.5v0 C7,29.119,8.119,28,9.5,28H18v-7h-7.5c-1.995,0-3.601-1.67-3.495-3.688C7.104,15.419,8.803,14,10.698,14L18,14v-4h24h6h8.5 c1.995,0,3.601,1.67,3.495,3.688C59.896,15.581,58.197,17,56.302,17L53.5,17c-1.995,0-3.601,1.67-3.495,3.688 C50.104,22.581,51.803,24,53.698,24L56,24c1.777,0,3.194,1.546,2.978,3.366c-0.179,1.509-1.546,2.572-3.064,2.635 c-1.197,0.05-2.122,1.153-1.874,2.406C54.228,33.355,55.123,34,56.089,34H60.5c1.995,0,3.601,1.67,3.495,3.688 C63.896,39.581,62.197,41,60.302,41L58,41C55.808,41,54.166,43.35,55.454,45.668z M2.5,33L2.5,33C3.881,33,5,31.881,5,30.5v0 C5,29.119,3.881,28,2.5,28h0C1.119,28,0,29.119,0,30.5v0C0,31.881,1.119,33,2.5,33z"/><linearGradient id="idM1BnkJLlZQYHAATSy2sb" x1="33" x2="33" y1="58" y2="6" gradientUnits="userSpaceOnUse" spreadMethod="reflect"><stop offset="0" stop-color="#41bfec"/><stop offset=".235" stop-color="#4cc5ef"/><stop offset=".651" stop-color="#6bd4f6"/><stop offset="1" stop-color="#89e4fd"/></linearGradient><path fill="url(#idM1BnkJLlZQYHAATSy2sb)" d="M50,58H16c-1.657,0-3-1.343-3-3V9c0-1.657,1.343-3,3-3h20.757 c0.796,0,1.559,0.316,2.121,0.879l13.243,13.243C52.684,20.684,53,21.447,53,22.243V55C53,56.657,51.657,58,50,58z"/><linearGradient id="idM1BnkJLlZQYHAATSy2sc" x1="38.879" x2="46.454" y1="20.121" y2="12.546" gradientUnits="userSpaceOnUse" spreadMethod="reflect"><stop offset="0" stop-color="#c7effd"/><stop offset=".369" stop-color="#b8ecfd"/><stop offset="1" stop-color="#95e5fd"/></linearGradient><path fill="url(#idM1BnkJLlZQYHAATSy2sc)" d="M52.121,20.122L38.878,6.879c-0.255-0.255-0.556-0.452-0.878-0.6V18c0,1.657,1.343,3,3,3 h11.721C52.574,20.678,52.377,20.377,52.121,20.122z"/><linearGradient id="idM1BnkJLlZQYHAATSy2sd" x1="45.5" x2="45.5" y1="24.083" y2="18.083" gradientUnits="userSpaceOnUse" spreadMethod="reflect"><stop offset="0" stop-color="#42c6ee"/><stop offset=".534" stop-color="#3bc3ed"/><stop offset="1" stop-color="#31bfeb"/></linearGradient><path fill="url(#idM1BnkJLlZQYHAATSy2sd)" d="M41,21c-1.657,0-3-1.343-3-3v3c0,1.657,1.343,3,3,3h12v-1.757 c0-0.434-0.102-0.855-0.279-1.243H41z"/><g><path fill="#fff" d="M37 48h-7c-1.105 0-2-.895-2-2v0c0-1.105.895-2 2-2h7c1.105 0 2 .895 2 2v0C39 47.105 38.105 48 37 48zM44 40H30c-1.105 0-2-.895-2-2v0c0-1.105.895-2 2-2h14c1.105 0 2 .895 2 2v0C46 39.105 45.105 40 44 40zM44 32H30c-1.105 0-2-.895-2-2v0c0-1.105.895-2 2-2h14c1.105 0 2 .895 2 2v0C46 31.105 45.105 32 44 32z"/><g><path fill="#fff" d="M23 48h-1c-1.105 0-2-.895-2-2v0c0-1.105.895-2 2-2h1c1.105 0 2 .895 2 2v0C25 47.105 24.105 48 23 48zM23 40h-1c-1.105 0-2-.895-2-2v0c0-1.105.895-2 2-2h1c1.105 0 2 .895 2 2v0C25 39.105 24.105 40 23 40zM23 32h-1c-1.105 0-2-.895-2-2v0c0-1.105.895-2 2-2h1c1.105 0 2 .895 2 2v0C25 31.105 24.105 32 23 32z"/></g></g><g><linearGradient id="idM1BnkJLlZQYHAATSy2se" x1="52" x2="52" y1="64" y2="27.834" gradientUnits="userSpaceOnUse" spreadMethod="reflect"><stop offset="0" stop-color="#31995f"/><stop offset=".093" stop-color="#329e62"/><stop offset=".666" stop-color="#39ba71"/><stop offset="1" stop-color="#3bc477"/></linearGradient><path fill="url(#idM1BnkJLlZQYHAATSy2se)" d="M52 40A12 12 0 1 0 52 64A12 12 0 1 0 52 40Z"/><path fill="#fff" d="M57,54H47c-1.1,0-2-0.9-2-2v0c0-1.1,0.9-2,2-2h10c1.1,0,2,0.9,2,2v0C59,53.1,58.1,54,57,54z"/><path fill="#fff" d="M54,47v10c0,1.1-0.9,2-2,2h0c-1.1,0-2-0.9-2-2V47c0-1.1,0.9-2,2-2h0C53.1,45,54,45.9,54,47z"/></g></svg>