<svg xmlns="http://www.w3.org/2000/svg" width="500" height="500" viewBox="0 0 64 64"><path fill="#f9e3ae" d="M52.63 8.79l-1.42-1.42c-3.9-3.9-10.23-3.9-14.14 0l-5.66 5.66c-3.9 3.9-3.9 10.24 0 14.14l1.42 1.42c3.9 3.9 10.24 3.9 14.14 0l5.66-5.66C56.53 19.02 56.53 12.69 52.63 8.79zM48.39 18L42 24.39c-.25.25-.54.45-.86.61.38-.67-1.14-.21-1.14-1 0-1.21 1.25-3.55.41-4.41C39.55 18.75 37.21 19 36 19c-.79 0-.33-.52-1-.14.15-.32.36-.6.61-.86L42 11.61c1.32-1.32 3.46-1.32 4.78 0l1.61 1.61c.63.63.99 1.49.99 2.39S49.02 17.36 48.39 18zM28.59 32.83l-1.42-1.42c-3.9-3.9-10.24-3.9-14.14 0l-5.66 5.66c-3.9 3.91-3.9 10.24 0 14.14l1.42 1.42c3.9 3.9 10.23 3.9 14.14 0l5.66-5.66C32.49 43.07 32.49 36.73 28.59 32.83zM24.96 41.98l-6.94 6.94c-1.44 1.44-3.77 1.44-5.2 0l-1.74-1.74C10.39 46.5 10 45.56 10 44.58c0-.98.39-1.9 1.08-2.6l6.94-6.94c.27-.27.59-.49.93-.66C18.53 35.1 19 35.14 19 36c0 1.31-.17 3.32.75 4.25C20.68 41.17 21.69 41 23 41c.86 0 1.9.47 2.62.05C25.46 41.39 25.23 41.7 24.96 41.98z"/><path fill="#f9e3ae" d="M51.21 7.37c-3.9-3.9-10.23-3.9-14.14 0l-5.66 5.66c-3.9 3.9-3.9 10.24 0 14.14l.71.71 8.29-8.29C39.55 18.75 37.21 19 36 19c-.79 0-.33-.52-1-.14.15-.32.36-.6.61-.86L42 11.61c1.32-1.32 3.46-1.32 4.78 0l.81.81 4.33-4.34L51.21 7.37zM27.17 31.41c-3.9-3.9-10.24-3.9-14.14 0l-5.66 5.66c-3.9 3.91-3.9 10.24 0 14.14l.71.71 3.87-3.87-.87-.87C10.39 46.5 10 45.56 10 44.58c0-.98.39-1.9 1.08-2.6l6.94-6.94c.27-.27.59-.49.93-.66C18.53 35.1 19 35.14 19 36c0 1.31-.17 3.32.75 4.25l8.13-8.13L27.17 31.41z"/><path fill="#f6d397" d="M52.63 22.93l-5.66 5.66c-3.9 3.9-10.24 3.9-14.14 0l-.71-.71 8.29-8.29C41.25 20.45 40 22.79 40 24c0 .79 1.52.33 1.14 1 .32-.16.61-.36.86-.61L48.39 18c.63-.64.99-1.49.99-2.39s-.36-1.76-.99-2.39l-.8-.8 4.33-4.34.71.71C56.53 12.69 56.53 19.02 52.63 22.93zM28.59 46.97l-5.66 5.66c-3.91 3.9-10.24 3.9-14.14 0l-.71-.71 3.87-3.87.87.87c1.43 1.44 3.76 1.44 5.2 0l6.94-6.94c.27-.28.5-.59.66-.93C24.9 41.47 23.86 41 23 41c-1.31 0-2.32.17-3.25-.75l8.13-8.13.71.71C32.49 36.73 32.49 43.07 28.59 46.97z"/><path fill="#f9e3ae" d="M20.101,39.899L20.101,39.899c-1.172-1.172-1.172-3.071,0-4.243l15.556-15.556 c1.172-1.172,3.071-1.172,4.243,0l0,0c1.172,1.172,1.172,3.071,0,4.243L24.343,39.899C23.172,41.071,21.272,41.071,20.101,39.899z"/><path fill="#f6d397" d="M32.12,32.12l-7.78,7.78c-1.17,1.17-3.07,1.17-4.24,0c-1.17-1.17-1.17-3.07,0-4.24l7.78-7.78 L32.12,32.12z"/><path fill="#72caaf" d="M49 37A12 12 0 1 0 49 61A12 12 0 1 0 49 37Z"/><path fill="#8d6c9f" d="M39.9 32.51c2.82 0 5.63-1.07 7.78-3.22l5.65-5.65c2.08-2.08 3.23-4.84 3.23-7.78s-1.15-5.7-3.23-7.78l-1.41-1.41c-4.29-4.29-11.27-4.29-15.56 0l-5.65 5.65c-3.55 3.55-4.16 8.95-1.83 13.14l-3.42 3.42c-4.19-2.33-9.59-1.72-13.14 1.83l-5.65 5.65c-2.08 2.08-3.23 4.84-3.23 7.78 0 2.94 1.15 5.7 3.23 7.78l1.41 1.41c2.14 2.15 4.96 3.22 7.78 3.22 2.81 0 5.63-1.07 7.78-3.22l5.65-5.65c3.55-3.55 4.16-8.95 1.83-13.14l3.42-3.42C36.2 32.05 38.05 32.51 39.9 32.51zM32.12 13.74l5.66-5.66c3.51-3.51 9.22-3.51 12.73 0l1.41 1.41c1.7 1.7 2.64 3.96 2.64 6.37 0 2.4-.94 4.66-2.64 6.36l-5.66 5.66c-1.7 1.7-3.96 2.63-6.36 2.63-1.36 0-2.68-.3-3.87-.88l3.17-3.17c.23.03.46.05.7.05 1.34 0 2.59-.52 3.53-1.46l5.66-5.66c.95-.94 1.47-2.2 1.47-3.53 0-1.34-.52-2.59-1.47-3.54l-1.41-1.41c-1.95-1.95-5.13-1.95-7.07 0l-5.66 5.65c-.94.95-1.46 2.2-1.46 3.54 0 .24.02.47.05.7l-3.17 3.17c-.58-1.19-.88-2.51-.88-3.87C29.49 17.7 30.42 15.44 32.12 13.74zM40.61 19.39c-.76-.75-1.76-1.17-2.83-1.17-.7 0-1.37.18-1.96.52.13-.28.32-.53.54-.76l5.66-5.66c1.17-1.17 3.07-1.17 4.24 0l1.42 1.42c.56.56.88 1.32.88 2.12s-.32 1.55-.88 2.12l-5.66 5.66c-.22.22-.48.4-.76.54.34-.59.52-1.26.52-1.96C41.78 21.15 41.36 20.15 40.61 19.39zM27.88 46.26l-5.66 5.66c-3.51 3.51-9.22 3.51-12.73 0l-1.41-1.41c-1.7-1.7-2.64-3.96-2.64-6.37 0-2.4.94-4.66 2.64-6.36l5.66-5.66c1.7-1.7 3.96-2.63 6.36-2.63 1.36 0 2.68.3 3.87.88l-3.17 3.17c-.23-.03-.46-.05-.7-.05-1.34 0-2.59.52-3.53 1.46l-5.66 5.66c-.95.94-1.47 2.2-1.47 3.53 0 1.34.52 2.59 1.47 3.54l1.41 1.41c.98.98 2.26 1.46 3.54 1.46 1.28 0 2.56-.48 3.53-1.46l5.66-5.65c.94-.95 1.46-2.2 1.46-3.54 0-.24-.02-.47-.05-.7l3.17-3.17c.58 1.19.88 2.51.88 3.87C30.51 42.3 29.58 44.56 27.88 46.26zM19.39 40.61c.76.75 1.76 1.17 2.83 1.17.7 0 1.37-.18 1.96-.52-.13.28-.32.53-.54.76l-5.66 5.66c-1.17 1.17-3.07 1.17-4.24 0l-1.42-1.42c-.56-.56-.88-1.32-.88-2.12 0-.8.32-1.55.88-2.12l5.66-5.66c.22-.22.48-.4.76-.54-.34.59-.52 1.26-.52 1.96C18.22 38.85 18.64 39.85 19.39 40.61zM32.87 29.96l-2.9 2.9v0l-1.42 1.42v0l-2.87 2.87v0l-1.46 1.46v0l-.58.58c-.38.38-.9.57-1.42.57-.52 0-1.04-.19-1.41-.57-.38-.38-.59-.88-.59-1.41 0-.54.21-1.04.59-1.42l.58-.58 1.46-1.46 2.87-2.87 1.42-1.42 2.89-2.89v0l1.42-1.42 2.87-2.87 1.46-1.46v0l.58-.58c.38-.38.88-.59 1.42-.59.53 0 1.03.21 1.41.59s.59.88.59 1.41c0 .54-.21 1.04-.59 1.42l-.58.58h0l-1.46 1.46-2.87 2.87L32.87 29.96 32.87 29.96zM16.354 17.562c.195.195.451.293.707.293s.512-.098.707-.293c.391-.391.391-1.023 0-1.414l-1.414-1.414c-.391-.391-1.023-.391-1.414 0s-.391 1.023 0 1.414L16.354 17.562zM11.968 20.449l1.732 1c.157.091.329.134.499.134.346 0 .682-.179.867-.5.276-.479.112-1.09-.366-1.366l-1.732-1c-.479-.276-1.09-.113-1.366.366C11.325 19.561 11.489 20.172 11.968 20.449zM24.164 12.455c.12.447.523.741.965.741.086 0 .174-.011.26-.035.534-.143.851-.691.707-1.225l-.519-1.932c-.144-.534-.696-.848-1.225-.707-.534.143-.851.691-.707 1.225L24.164 12.455zM10.211 25.372l1.932.518c.087.023.174.035.26.035.441 0 .846-.295.965-.742.143-.533-.174-1.082-.707-1.225l-1.932-.518c-.531-.141-1.082.173-1.225.707C9.361 24.681 9.678 25.229 10.211 25.372zM19.922 14.494c.186.321.521.5.867.5.17 0 .342-.043.499-.134.479-.276.643-.888.366-1.366l-1-1.732c-.277-.479-.89-.643-1.366-.366-.479.276-.643.888-.366 1.366L19.922 14.494zM49 36c-7.168 0-13 5.832-13 13s5.832 13 13 13 13-5.832 13-13S56.168 36 49 36zM49 60c-6.065 0-11-4.935-11-11s4.935-11 11-11 11 4.935 11 11S55.065 60 49 60z"/><path fill="#faefde" d="M55,48h-5v-5c0-0.552-0.447-1-1-1s-1,0.448-1,1v5h-5c-0.553,0-1,0.448-1,1s0.447,1,1,1h5v5 c0,0.552,0.447,1,1,1s1-0.448,1-1v-5h5c0.553,0,1-0.448,1-1S55.553,48,55,48z"/></svg>