<svg xmlns="http://www.w3.org/2000/svg" width="500" height="500" fill="#000" viewBox="0 0 30 30"><path d="M 15 2 C 13.343 2 12 3.343 12 5 L 12 17 C 12 18.499 13.102063 19.730125 14.539062 19.953125 C 15.196063 18.130125 16.416 16.577578 18 15.517578 L 18 5 C 18 3.343 16.657 2 15 2 z M 9 12 C 8.447 12 8 12.447 8 13 L 8 17 C 8 20.519 10.614 23.431922 14 23.919922 L 14 26 L 11 26 C 10.447 26 10 26.447 10 27 C 10 27.553 10.447 28 11 28 L 15.517578 28 C 14.559578 26.57 14 24.851 14 23 C 14 22.629 14.028266 22.26525 14.072266 21.90625 C 11.758266 21.46925 10 19.439 10 17 L 10 13 C 10 12.447 9.553 12 9 12 z M 21 12 C 20.447 12 20 12.447 20 13 L 20 14.523438 C 20.638 14.297438 21.305 14.135594 22 14.058594 L 22 13 C 22 12.447 21.553 12 21 12 z M 23 16 C 19.134 16 16 19.134 16 23 C 16 26.866 19.134 30 23 30 C 26.866 30 30 26.866 30 23 C 30 19.134 26.866 16 23 16 z M 23 19 C 23.552 19 24 19.447 24 20 L 24 22 L 26 22 C 26.552 22 27 22.447 27 23 C 27 23.553 26.552 24 26 24 L 24 24 L 24 26 C 24 26.553 23.552 27 23 27 C 22.448 27 22 26.553 22 26 L 22 24 L 20 24 C 19.448 24 19 23.553 19 23 C 19 22.447 19.448 22 20 22 L 22 22 L 22 20 C 22 19.447 22.448 19 23 19 z"/></svg>