<svg xmlns="http://www.w3.org/2000/svg" width="50" height="50" fill="#000" viewBox="0 0 80 80"><path d="M 15 9 L 15 71 L 46.347656 71 C 46.089656 70.35 45.8735 69.682 45.6875 69 L 17 69 L 17 11 L 49 11 L 49 25 L 63 25 L 63 45.050781 C 63.333 45.033781 63.662 45 64 45 C 64.338 45 64.667 45.033781 65 45.050781 L 65 23.585938 L 50.414062 9 L 15 9 z M 51 12.414062 L 61.585938 23 L 51 23 L 51 12.414062 z M 22 13 A 1 1 0 0 0 21 14 A 1 1 0 0 0 22 15 A 1 1 0 0 0 23 14 A 1 1 0 0 0 22 13 z M 22 17 A 1 1 0 0 0 21 18 A 1 1 0 0 0 22 19 A 1 1 0 0 0 23 18 A 1 1 0 0 0 22 17 z M 22 21 A 1 1 0 0 0 21 22 A 1 1 0 0 0 22 23 A 1 1 0 0 0 23 22 A 1 1 0 0 0 22 21 z M 22 25 A 1 1 0 0 0 21 26 A 1 1 0 0 0 22 27 A 1 1 0 0 0 23 26 A 1 1 0 0 0 22 25 z M 22 29 A 1 1 0 0 0 21 30 A 1 1 0 0 0 22 31 A 1 1 0 0 0 23 30 A 1 1 0 0 0 22 29 z M 41 29 C 33.28 29 27 35.28 27 43 C 27 50.72 33.28 57 41 57 C 43.13 57 45.142172 56.508297 46.951172 55.654297 C 48.552172 52.391297 51.054578 49.660297 54.142578 47.779297 C 54.687578 46.285297 55 44.681 55 43 C 55 35.28 48.72 29 41 29 z M 40 31.050781 L 40 43.414062 L 48.740234 52.154297 C 46.648234 53.925297 43.949 55 41 55 C 34.383 55 29 49.617 29 43 C 29 36.72 33.85 31.561781 40 31.050781 z M 42 31.050781 C 47.819796 31.534345 52.46801 36.180815 52.951172 42 L 42 42 L 42 38 A 1 1 0 0 0 43 37 A 1 1 0 0 0 42 36 L 42 31.050781 z M 22 33 A 1 1 0 0 0 21 34 A 1 1 0 0 0 22 35 A 1 1 0 0 0 23 34 A 1 1 0 0 0 22 33 z M 45 33 A 1 1 0 0 0 44 34 A 1 1 0 0 0 45 35 A 1 1 0 0 0 46 34 A 1 1 0 0 0 45 33 z M 48 36 A 1 1 0 0 0 47 37 A 1 1 0 0 0 48 38 A 1 1 0 0 0 49 37 A 1 1 0 0 0 48 36 z M 22 37 A 1 1 0 0 0 21 38 A 1 1 0 0 0 22 39 A 1 1 0 0 0 23 38 A 1 1 0 0 0 22 37 z M 45 39 A 1 1 0 0 0 44 40 A 1 1 0 0 0 45 41 A 1 1 0 0 0 46 40 A 1 1 0 0 0 45 39 z M 51 39 A 1 1 0 0 0 50 40 A 1 1 0 0 0 51 41 A 1 1 0 0 0 52 40 A 1 1 0 0 0 51 39 z M 22 41 A 1 1 0 0 0 21 42 A 1 1 0 0 0 22 43 A 1 1 0 0 0 23 42 A 1 1 0 0 0 22 41 z M 43.414062 44 L 52.955078 44 C 52.742007 46.557404 51.722894 48.887323 50.154297 50.740234 L 43.414062 44 z M 22 45 A 1 1 0 0 0 21 46 A 1 1 0 0 0 22 47 A 1 1 0 0 0 23 46 A 1 1 0 0 0 22 45 z M 64 48 C 55.178 48 48 55.178 48 64 C 48 72.822 55.178 80 64 80 C 72.822 80 80 72.822 80 64 C 80 55.178 72.822 48 64 48 z M 22 49 A 1 1 0 0 0 21 50 A 1 1 0 0 0 22 51 A 1 1 0 0 0 23 50 A 1 1 0 0 0 22 49 z M 64 50 C 71.72 50 78 56.28 78 64 C 78 71.72 71.72 78 64 78 C 56.28 78 50 71.72 50 64 C 50 56.28 56.28 50 64 50 z M 22 53 A 1 1 0 0 0 21 54 A 1 1 0 0 0 22 55 A 1 1 0 0 0 23 54 A 1 1 0 0 0 22 53 z M 22 57 A 1 1 0 0 0 21 58 A 1 1 0 0 0 22 59 A 1 1 0 0 0 23 58 A 1 1 0 0 0 22 57 z M 63 57 L 63 63 L 57 63 L 57 65 L 63 65 L 63 71 L 65 71 L 65 65 L 71 65 L 71 63 L 65 63 L 65 57 L 63 57 z M 22 61 A 1 1 0 0 0 21 62 A 1 1 0 0 0 22 63 A 1 1 0 0 0 23 62 A 1 1 0 0 0 22 61 z M 22 65 A 1 1 0 0 0 21 66 A 1 1 0 0 0 22 67 A 1 1 0 0 0 23 66 A 1 1 0 0 0 22 65 z"/></svg>