<svg xmlns="http://www.w3.org/2000/svg" width="300" height="300" viewBox="0 0 30 30"><path fill="#bae0bd" d="M9.6,19.5L7.2,5.6l21.2,2.8l-2.5,9.9c-0.2,0.7-0.8,1.1-1.5,1.1L9.6,19.5L9.6,19.5z"/><path fill="#5e9c76" d="M7.8,6.2l19.9,2.7l-2.4,9.4c-0.1,0.4-0.5,0.8-1,0.8H10.1L7.8,6.2 M6.6,5l2.6,15h15.2 c0.9,0,1.7-0.6,1.9-1.5L29,8L6.6,5L6.6,5z"/><path fill="#66798f" d="M26,25H13c-1.7,0-3.2-1.2-3.4-2.9l-3.1-18C6.2,2.9,5.2,2,4,2H2.5V1H4c1.7,0,3.2,1.2,3.4,2.9l3.1,18 c0.2,1.2,1.2,2.1,2.5,2.1h13V25z"/><path fill="#bae0bd" d="M2.5 1.5A1 1 0 1 0 2.5 3.5A1 1 0 1 0 2.5 1.5Z"/><path fill="#5e9c76" d="M2.5,2C2.8,2,3,2.2,3,2.5S2.8,3,2.5,3S2,2.8,2,2.5S2.2,2,2.5,2 M2.5,1C1.7,1,1,1.7,1,2.5 S1.7,4,2.5,4S4,3.3,4,2.5S3.3,1,2.5,1L2.5,1z"/><path fill="#b0c1d4" d="M15 25.5A1.5 1.5 0 1 0 15 28.5A1.5 1.5 0 1 0 15 25.5Z"/><path fill="#66798f" d="M15,26c0.6,0,1,0.4,1,1s-0.4,1-1,1s-1-0.4-1-1S14.4,26,15,26 M15,25c-1.1,0-2,0.9-2,2s0.9,2,2,2 s2-0.9,2-2S16.1,25,15,25L15,25z"/><g><path fill="#b0c1d4" d="M23 25.5A1.5 1.5 0 1 0 23 28.5A1.5 1.5 0 1 0 23 25.5Z"/><path fill="#66798f" d="M23,26c0.6,0,1,0.4,1,1s-0.4,1-1,1s-1-0.4-1-1S22.4,26,23,26 M23,25c-1.1,0-2,0.9-2,2s0.9,2,2,2 s2-0.9,2-2S24.1,25,23,25L23,25z"/></g><path fill="#fff" d="M17 9H19V17H17z"/><path fill="#fff" d="M14 12H22V14H14z"/></svg>