<svg xmlns="http://www.w3.org/2000/svg" width="50" height="50" fill="#000" viewBox="0 0 50 50"><path d="M 25 0 C 18.898438 0 14 4.789063 14 10.6875 L 14 11 L 21.5 11 C 22.101563 11 22.5 11.398438 22.5 12 C 22.5 12.601563 22.101563 13 21.5 13 L 14 13 L 14 15 L 21.5 15 C 22.101563 15 22.5 15.398438 22.5 16 C 22.5 16.601563 22.101563 17 21.5 17 L 14 17 L 14 19 L 21.5 19 C 22.101563 19 22.5 19.398438 22.5 20 C 22.5 20.601563 22.101563 21 21.5 21 L 14 21 L 14 23.3125 C 14 29.113281 18.695313 33.800781 24.59375 34 C 26.09375 28.898438 30.601563 24.988281 36 24.1875 L 36 21 L 28.5 21 C 27.898438 21 27.5 20.601563 27.5 20 C 27.5 19.398438 27.898438 19 28.5 19 L 36 19 L 36 17 L 28.5 17 C 27.898438 17 27.5 16.601563 27.5 16 C 27.5 15.398438 27.898438 15 28.5 15 L 36 15 L 36 13 L 28.5 13 C 27.898438 13 27.5 12.601563 27.5 12 C 27.5 11.398438 27.898438 11 28.5 11 L 36 11 L 36 10.6875 C 36 4.789063 31.101563 0 25 0 Z M 10 17 C 9.398438 17 9 17.398438 9 18 L 9 23 C 9 30.800781 14.601563 37.289063 22 38.6875 L 22 45 L 15.5 45 C 13.601563 45 12 46.601563 12 48.5 L 12 50 L 30.8125 50 C 29.914063 49.398438 28.988281 48.800781 28.1875 48 L 27.3125 47 C 26.8125 46.398438 26.304688 45.699219 25.90625 45 L 24 45 L 24 38.90625 L 24.09375 38.90625 C 24.09375 38.605469 24 38.300781 24 38 C 24 37.601563 23.992188 37.304688 24.09375 36.90625 C 16.792969 36.40625 11 30.398438 11 23 L 11 18 C 11 17.398438 10.601563 17 10 17 Z M 40 17 C 39.398438 17 39 17.398438 39 18 L 39 23 C 39 23.398438 39.007813 23.695313 38.90625 24.09375 C 39.605469 24.09375 40.304688 24.207031 40.90625 24.40625 C 40.90625 24.007813 41 23.492188 41 23.09375 L 41 18.09375 C 41 17.394531 40.601563 17 40 17 Z M 38 26.09375 C 31.398438 26.09375 26 31.492188 26 38.09375 C 26 41.292969 27.304688 44.304688 29.40625 46.40625 C 29.40625 46.40625 29.398438 46.5 29.5 46.5 L 29.8125 46.8125 C 32.011719 48.914063 34.894531 50.1875 38.09375 50.1875 C 44.695313 50.1875 50.09375 44.789063 50.09375 38.1875 C 49.992188 34.789063 48.6875 31.914063 46.6875 29.8125 C 46.636719 29.761719 46.625 29.71875 46.625 29.71875 C 46.480469 29.554688 46.398438 29.40625 46.3125 29.40625 C 44.113281 27.304688 41.300781 26.09375 38 26.09375 Z M 38 28 C 40.699219 28 43.105469 29.113281 44.90625 30.8125 L 45.1875 31.09375 L 45.1875 31.1875 C 46.886719 32.988281 48 35.398438 48 38 C 48 43.5 43.5 48 38 48 C 35.300781 48 32.894531 46.886719 31.09375 45.1875 C 30.992188 45.1875 31.007813 45.09375 30.90625 45.09375 L 30.8125 45 C 30.8125 45 30.789063 44.90625 30.6875 44.90625 C 29.085938 43.105469 28 40.699219 28 38 C 28 32.5 32.5 28 38 28 Z M 37 32 L 37 37 L 32 37 L 32 39 L 37 39 L 37 44 L 39 44 L 39 39 L 44 39 L 44 37 L 39 37 L 39 32 Z"/></svg>