<svg xmlns="http://www.w3.org/2000/svg" width="300" height="300" viewBox="0 0 30 30"><path fill="#fff" d="M2.5 3.5H27.5V25.5H2.5z"/><path fill="#788b9c" d="M27,4v21H3V4H27 M28,3H2v23h26V3L28,3z"/><path fill="#788b9c" d="M2 3H28V7H2z"/><path fill="#c8d1db" d="M14.5,26H28V15.5c-0.3-0.2-0.7-0.4-1-0.6V25H14.2C14.3,25.3,14.4,25.7,14.5,26z"/><path fill="#8bb7f0" d="M10 11H23V12H10zM7 11H8V12H7zM10 14H23V15H10zM7 14H8V15H7zM10 17H23V18H10zM7 17H8V18H7zM10 20H23V21H10zM7 20H8V21H7z"/><path fill="#c2e8ff" d="M14.2 21H21v-1h-6.5C14.4 20.3 14.3 20.7 14.2 21zM15.5 18H21v-1h-4.7C16 17.3 15.8 17.6 15.5 18z"/><path fill="#bae0bd" d="M23 16.5A6.5 6.5 0 1 0 23 29.5A6.5 6.5 0 1 0 23 16.5Z"/><path fill="#5e9c76" d="M23,17c3.3,0,6,2.7,6,6s-2.7,6-6,6s-6-2.7-6-6S19.7,17,23,17 M23,16c-3.9,0-7,3.1-7,7s3.1,7,7,7 s7-3.1,7-7S26.9,16,23,16L23,16z"/><path fill="#fff" d="M22 19H24V27H22z"/><path fill="#fff" d="M19 22H27V24H19z"/></svg>