<svg fill="#000000" xmlns="http://www.w3.org/2000/svg" viewBox="0 0 16 16" width="300px" height="300px"><path d="M 11.378906 1 C 10.683594 1 10.027344 1.273438 9.539063 1.765625 L 7.730469 3.570313 C 7.082031 4.21875 6.851563 5.128906 7.039063 5.972656 L 8.039063 4.972656 C 8.109375 4.71875 8.238281 4.476563 8.4375 4.277344 L 10.246094 2.46875 C 10.550781 2.167969 10.953125 2 11.378906 2 C 11.808594 2 12.210938 2.167969 12.53125 2.488281 C 12.835938 2.792969 13.003906 3.195313 13.003906 3.625 C 13.003906 4.050781 12.835938 4.453125 12.53125 4.757813 L 11.28125 6.011719 C 11.351563 6.007813 11.425781 6 11.5 6 C 11.875 6 12.242188 6.039063 12.59375 6.109375 L 13.238281 5.464844 C 14.253906 4.449219 14.257813 2.796875 13.222656 1.765625 C 12.730469 1.273438 12.078125 1 11.378906 1 Z M 9.492188 4.996094 C 9.363281 5 9.242188 5.054688 9.148438 5.148438 L 5.148438 9.148438 C 5.019531 9.273438 4.96875 9.457031 5.011719 9.632813 C 5.058594 9.808594 5.195313 9.945313 5.371094 9.992188 C 5.546875 10.035156 5.730469 9.984375 5.859375 9.851563 L 9.859375 5.851563 C 10.003906 5.710938 10.046875 5.492188 9.96875 5.300781 C 9.886719 5.113281 9.699219 4.992188 9.492188 4.996094 Z M 5.414063 6.964844 C 4.71875 6.964844 4.066406 7.234375 3.574219 7.726563 L 1.765625 9.535156 C 0.75 10.550781 0.75 12.203125 1.785156 13.234375 C 2.292969 13.746094 2.960938 14 3.625 14 C 4.292969 14 4.960938 13.746094 5.46875 13.238281 L 6.109375 12.59375 C 6.039063 12.242188 6 11.875 6 11.5 C 6 11.425781 6.007813 11.355469 6.011719 11.28125 L 4.761719 12.53125 C 4.136719 13.15625 3.113281 13.15625 2.472656 12.511719 C 2.167969 12.207031 2.003906 11.804688 2.003906 11.375 C 2.003906 10.949219 2.167969 10.542969 2.472656 10.238281 L 4.28125 8.433594 C 4.476563 8.238281 4.71875 8.105469 4.976563 8.03125 L 5.980469 7.03125 C 5.796875 6.988281 5.609375 6.964844 5.414063 6.964844 Z M 11.5 7 C 9.019531 7 7 9.019531 7 11.5 C 7 13.980469 9.019531 16 11.5 16 C 13.980469 16 16 13.980469 16 11.5 C 16 9.019531 13.980469 7 11.5 7 Z M 11.5 8 C 13.4375 8 15 9.5625 15 11.5 C 15 13.4375 13.4375 15 11.5 15 C 9.5625 15 8 13.4375 8 11.5 C 8 9.5625 9.5625 8 11.5 8 Z M 11 9 L 11 11 L 9 11 L 9 12 L 11 12 L 11 14 L 12 14 L 12 12 L 14 12 L 14 11 L 12 11 L 12 9 Z"/></svg>