<svg xmlns="http://www.w3.org/2000/svg" width="300" height="300" viewBox="0 0 24 24"><path d="M19,14c-2.8,0-5,2.2-5,5s2.2,5,5,5s5-2.2,5-5S21.8,14,19,14z M22,20h-2v2h-2v-2h-2v-2h2v-2h2v2h2V20z"/><path d="M20,7v5.1c-0.7-0.1-1.3-0.1-2,0V7H20z"/><path d="M8,15.8C7.5,15.3,6.7,15,6,15c-1.7,0-3,1.3-3,3s1.3,3,3,3s3-1.3,3-3C9,17.1,8.6,16.3,8,15.8z M6,19c-0.6,0-1-0.4-1-1 s0.4-1,1-1s1,0.4,1,1S6.6,19,6,19z"/><path fill="none" stroke="#000" stroke-miterlimit="10" stroke-width="2" d="M8,18V7"/><path d="M9,3C7.9,3,7,3.9,7,5c0,0,0,0,0,0v4h13V3H9z M9,7V5h9v2H9z"/><rect width="9" height="2" x="9" y="5" opacity=".3"/><circle cx="6" cy="18" r="1" opacity=".3"/></svg>