<svg xmlns="http://www.w3.org/2000/svg" width="50" height="50" fill="#000" viewBox="0 0 32 32"><path d="M 2 10 L 2 22 L 16.28125 22 C 16.113281 22.644531 16 23.304688 16 24 C 16 28.40625 19.59375 32 24 32 C 28.40625 32 32 28.40625 32 24 C 32 21.964844 31.226563 20.101563 29.96875 18.6875 L 30 18.6875 L 30 10 Z M 4 12 L 28 12 L 28 17.09375 C 26.820313 16.40625 25.457031 16 24 16 C 21.050781 16 18.480469 17.613281 17.09375 20 L 4 20 Z M 24 18 C 27.324219 18 30 20.675781 30 24 C 30 27.324219 27.324219 30 24 30 C 20.675781 30 18 27.324219 18 24 C 18 20.675781 20.675781 18 24 18 Z M 23 20 L 23 23 L 20 23 L 20 25 L 23 25 L 23 28 L 25 28 L 25 25 L 28 25 L 28 23 L 25 23 L 25 20 Z"/></svg>