<svg xmlns="http://www.w3.org/2000/svg" width="100" height="100" fill="#000" viewBox="0 0 50 50"><path d="M 3 9 C 1.355469 9 0 10.355469 0 12 L 0 38 C 0 39.644531 1.355469 41 3 41 L 13 41 L 13 39 L 3 39 C 2.445313 39 2 38.554688 2 38 L 2 12 C 2 11.445313 2.445313 11 3 11 L 47 11 C 47.554688 11 48 11.445313 48 12 L 48 38 C 48 38.554688 47.554688 39 47 39 L 37 39 L 37 41 L 47 41 C 48.644531 41 50 39.644531 50 38 L 50 12 C 50 10.355469 48.644531 9 47 9 Z M 25 30 C 19.488281 30 15 34.488281 15 40 C 15 45.511719 19.488281 50 25 50 C 30.511719 50 35 45.511719 35 40 C 35 34.488281 30.511719 30 25 30 Z M 25 32 C 29.429688 32 33 35.570313 33 40 C 33 44.429688 29.429688 48 25 48 C 20.570313 48 17 44.429688 17 40 C 17 35.570313 20.570313 32 25 32 Z M 24 35 L 24 39 L 20 39 L 20 41 L 24 41 L 24 45 L 26 45 L 26 41 L 30 41 L 30 39 L 26 39 L 26 35 Z"/></svg>