<svg xmlns="http://www.w3.org/2000/svg" width="500" height="500" viewBox="0 0 100 100"><path fill="#fff" d="M19.8 55.4A.9.9 0 1 0 19.8 57.199999999999996.9.9 0 1 0 19.8 55.4zM78.8 30.7A.7.7 0 1 0 78.8 32.1.7.7 0 1 0 78.8 30.7z"/><path fill="#f1bc19" d="M76.2 11.5A.9.9 0 1 0 76.2 13.3.9.9 0 1 0 76.2 11.5zM20.3 63.1A.9.9 0 1 0 20.3 64.9.9.9 0 1 0 20.3 63.1z"/><path fill="#e6edb7" d="M49.1 12.200000000000003A37.4 37.4 0 1 0 49.1 87A37.4 37.4 0 1 0 49.1 12.200000000000003Z"/><path fill="#f1bc19" d="M81.6 10.6A4 4 0 1 0 81.6 18.6A4 4 0 1 0 81.6 10.6Z"/><path fill="#88ae45" d="M85.6 21.700000000000003A1.9 1.9 0 1 0 85.6 25.5A1.9 1.9 0 1 0 85.6 21.700000000000003Z"/><path fill="#fbcd59" d="M76.7 74.19999999999999A1.9 1.9 0 1 0 76.7 78 1.9 1.9 0 1 0 76.7 74.19999999999999zM13.5 59.1A4 4 0 1 0 13.5 67.1 4 4 0 1 0 13.5 59.1z"/><path fill="#88ae45" d="M23.7 85.3A1.9 1.9 0 1 0 23.7 89.10000000000001A1.9 1.9 0 1 0 23.7 85.3Z"/><path fill="#fff" d="M75.3 28.099999999999998A1.8 1.8 0 1 0 75.3 31.7 1.8 1.8 0 1 0 75.3 28.099999999999998zM17.2 48.5A2.5 2.5 0 1 0 17.2 53.5 2.5 2.5 0 1 0 17.2 48.5z"/><path fill="#e5ac80" d="M67.6,70.8c-0.4-2.1-1.3-3.4-3.3-4l-0.3-0.1l-0.6-0.2c-1.3-0.5-8.7-3.3-8.7-3.3 c-0.6-0.2-1-0.6-1.2-1.1c-0.2-1-0.3-1.9-0.2-2.9c-1.6,0.6-3.3,1-5,1.4c-1.9,0.2-6-2.3-6-2.3s-0.1,3-0.2,3.7 c-0.2,0.6-0.7,1-1.3,1.1l-7.1,2.6c-0.8,0.2-1.5,0.5-2.2,0.9c-1.5,1-2.6,2.4-3.2,4.2c0,0-0.5,3.3-0.5,3.4c0,0.5-0.1,1-0.1,1.5 c7.8,5.3,14,6.7,24.7,6.3c4.9-0.2,12.1-2.6,15.9-4.5C67.9,73.3,67.6,70.8,67.6,70.8z"/><path fill="#6f913d" d="M64,66.7l-0.3-0.1l-0.6-0.2c-0.8-0.3-3.9-1.5-6.2-2.3h-0.1c-2.5,1.3-6.1,3.2-9.4,3.2 S40.8,65.4,38,64l-0.3,0.1l-4.4,1.6c-0.8,0.2-1.5,0.5-2.2,0.9c-1.5,1-2.6,2.4-3.2,4.2c0,0-0.5,3.3-0.5,3.4c0,0.5-0.1,5.4-0.1,6 c7.8,5.3,14,6.7,24.7,6.3c4.9-0.2,12.1-2.6,15.9-4.5c-0.2-4.2-0.6-11.2-0.6-11.2C67,68.6,66.1,67.3,64,66.7z"/><path fill="#88ae45" fill-rule="evenodd" d="M28.8 68.9c-1.2 3.1-1.5 5.9-1.5 11.5l6.8 3.9C34.1 76.3 35.4 70.3 28.8 68.9zM55.5 63.6c-.1 0-.1 0-.2-.1-4.3 4.5-11.5 4.7-16 .4-.1-.1-.1-.1-.2-.2-.5.3-1 .5-1.5.6 4.1 4.4 12.7 7.6 19-.4C56.3 63.8 55.9 63.7 55.5 63.6zM67.4 70.7c.5 3.8.7 7.6.8 11.4l-6.8 3C61.3 77.1 60.8 72.1 67.4 70.7z" clip-rule="evenodd"/><path fill="#edbc94" d="M59.9,44.5h-0.4c-1,0-1.2,0.3-1.2-0.3c0.1-1-0.1-5.3-0.1-5.5c0-4.4-4.7-8-10.5-8.2h-0.2 c-5.8,0.2-10.5,3.8-10.5,8.2c0,0.2-0.2,4.5-0.1,5.5c0,0.6-0.2,0.2-1.2,0.3h-0.4c-1,0-1.8,0.6-2.1,1.5c0.1,0.1,0.6,3.7,1.4,5.1 c0.4,0.8,1.1,0.9,1.8,1.4c0.3,0.2,0.5,0.6,0.6,1c0.5,1.6,1.4,2.9,2.7,4c0.6,0.6,4.5,4.7,7.9,4.5s7.3-3.9,7.9-4.5 c1.2-1.1,2.2-2.4,2.7-4c0.1-0.4,0.3-0.8,0.6-1c0.7-0.5,1.4-0.6,1.8-1.4c0.8-1.4,1.3-5,1.4-5.1C61.7,45.1,60.8,44.5,59.9,44.5z"/><path fill="#512c2b" d="M47.7 52.4c.7 0 1.3-.3 1.8-.8 0 0 0-.1 0-.2 0 0 0 0 0 0l0 0c0 0-.1 0-.2 0 0 0 0 0 0 0-.4.4-1 .7-1.6.6-.6 0-1.2-.2-1.6-.6 0 0-.1 0-.1 0 0 0 0 0-.1 0 0 0 0 .1 0 .2 0 0 0 0 0 0C46.4 52.1 47 52.4 47.7 52.4zM45.5 42.2l.4-.8c-1.9-.4-3.8-.4-5.7.2l.5.8C42.4 41.8 44 41.8 45.5 42.2zM54.7 42.2l.4-.8c-1.9-.4-3.8-.4-5.7.2l.5.8C51.5 41.8 53.2 41.8 54.7 42.2zM42.9 43.3c-.4 0-.8.3-1 .7 0 0 .1 0 .1-.1.4 0 .7.3.7.7 0 .4-.3.7-.7.7-.1 0-.2 0-.3-.1.1.6.6 1.1 1.2 1.1.9-.2 1.4-1.1 1.2-2C43.9 43.9 43.5 43.4 42.9 43.3L42.9 43.3zM52.5 43.3c-.4 0-.7.2-.9.5.1 0 .2 0 .2 0 .4 0 .7.3.7.7 0 .4-.3.7-.7.7-.2 0-.4-.1-.5-.3-.2.7.3 1.4 1 1.5.7.2 1.4-.3 1.5-1 0-.2 0-.4 0-.6C53.8 44.2 53.3 43.4 52.5 43.3z"/><path fill="#472b29" d="M48.8,87.2c-8.9,0-14.6-1.8-21.4-6.4c-0.1-0.1-0.2-0.2-0.2-0.4c0-0.1,0-0.4,0-0.9 c0-2.2,0.1-6.8,0.6-8.6c0.4-1.9,1.6-3.5,3.4-4.3c0.7-0.4,1.5-0.7,2.3-0.9l7.1-2.6c0.5-0.1,0.9-0.4,1-0.9c0-0.3,0.1-1.2,0.1-2 c-0.7-0.5-1.5-1.1-2.1-1.6c-1.3-1.2-2.3-2.7-2.8-4.3c0-0.4-0.2-0.7-0.4-0.9c-0.2-0.2-0.4-0.3-0.6-0.4c-0.5-0.3-0.9-0.5-1.3-1.2 c-0.8-1.7-1.3-3.5-1.4-5.4c0,0,0-0.1,0-0.1c0.3-1.1,1.3-1.9,2.5-1.9h0.4c0.3,0,0.6,0,0.8,0c-0.1-1,0-3.8,0.1-5c0-0.3,0-0.5,0-0.5 c0-4.7,4.8-8.6,10.9-8.8h0.2c6.1,0.2,10.9,4.1,10.9,8.8c0,0,0,0.2,0,0.5c0,1.2,0.1,4,0.1,5c0.2,0,0.4-0.1,0.8-0.1h0.4 c1.2,0,2.2,0.8,2.5,1.9c0,0,0,0.1,0,0.1c-0.2,1.9-0.7,3.7-1.5,5.4c-0.4,0.7-0.8,0.9-1.3,1.2c-0.2,0.1-0.4,0.2-0.6,0.4 c-0.2,0.2-0.4,0.5-0.4,0.8c-0.5,1.8-1.5,3.2-2.8,4.4c-0.7,0.6-1.5,1.2-2.3,1.8c0,0.7,0.1,1.3,0.3,2c0.2,0.4,0.5,0.7,1,0.8 c0.3,0.1,7.5,2.8,8.7,3.3l0.9,0.4c2,0.6,3.1,1.9,3.6,4.3c0,0,0,0,0,0.1c0,0,0.3,7,0.5,11.2c0,0.2-0.1,0.3-0.2,0.4 c-4,2-11.3,4.4-16.1,4.6C51,87.1,49.9,87.2,48.8,87.2z M27.9,80.2c7.4,5,13.6,6.5,24.3,6.1c4.5-0.2,11.5-2.4,15.5-4.4 c-0.2-4-0.5-10.4-0.5-10.9c-0.4-2.1-1.3-3.1-3.1-3.7l-1-0.4c-1.2-0.5-8.6-3.2-8.7-3.3c-0.6-0.2-1.2-0.7-1.5-1.3 c-0.3-0.8-0.3-1.6-0.3-2.5c0-0.1,0.1-0.2,0.2-0.3c0.8-0.6,1.6-1.2,2.4-1.8c1.2-1.1,2.1-2.4,2.6-3.9c0-0.4,0.3-0.9,0.7-1.2 c0.2-0.2,0.5-0.3,0.7-0.5c0.4-0.2,0.7-0.4,1-0.9c0.7-1.6,1.2-3.3,1.4-5c-0.2-0.7-0.9-1.2-1.7-1.2h-0.4c-0.3,0-0.5,0-0.7,0.1 c-0.3,0-0.5,0.1-0.7-0.1c-0.2-0.2-0.2-0.5-0.2-0.6c0.1-0.8,0-3.9-0.1-5.1c0-0.3,0-0.5,0-0.5c0-4.3-4.4-7.8-10.1-8h-0.2 c-5.6,0.2-10.1,3.7-10.1,8c0,0,0,0.2,0,0.5c0,1.2-0.1,4.2-0.1,5.1c0,0.3,0,0.5-0.2,0.6c-0.2,0.2-0.4,0.1-0.7,0.1 c-0.2,0-0.4-0.1-0.7,0l-0.4,0c-0.8,0-1.4,0.5-1.7,1.2c0.2,1.7,0.6,3.4,1.3,5c0.2,0.4,0.6,0.6,1,0.8c0.2,0.1,0.5,0.3,0.7,0.5 c0.4,0.3,0.7,0.8,0.7,1.3c0.5,1.5,1.3,2.8,2.5,3.9c0.7,0.6,1.5,1.2,2.2,1.7c0.1,0.1,0.2,0.2,0.2,0.3c0,1-0.1,2.1-0.2,2.5 c-0.3,0.8-0.9,1.3-1.6,1.5l-7.1,2.6c-0.8,0.2-1.5,0.5-2.1,0.9c-1.5,0.8-2.6,2.2-3,3.8c-0.5,1.7-0.5,6.4-0.6,8.4 C27.9,79.8,27.9,80,27.9,80.2z"/><path fill="#d3a47d" d="M59.9 49.2l-.6-.1.2-1.8-1 .4-.2-.6 1.5-.6c.1 0 .2 0 .3 0s.1.2.1.3L59.9 49.2zM35.7 48.9l-.3-2.3c0-.1 0-.2.1-.3.1-.1.2-.1.3 0l1.5.7-.2.5-1-.4.2 1.8L35.7 48.9z"/><path fill="#472b29" d="M37 53.3C37 53.3 37 53.3 37 53.3c-.1 0-.2-.1-.2-.2l.2-8.6c0-.1.1-.2.2-.2.1 0 .2.1.2.2l-.2 8.6C37.2 53.2 37.1 53.3 37 53.3zM58.4 53.3c-.1 0-.2-.1-.2-.2l-.2-8.6c0-.1.1-.2.2-.2 0 0 0 0 0 0 .1 0 .2.1.2.2l.2 8.6C58.6 53.2 58.5 53.3 58.4 53.3 58.4 53.3 58.4 53.3 58.4 53.3zM54.2 58.7c-1.8 1.2-5.2 1.9-5.8.8-.5-.8-1.2-.8-1.6 0-.7 1.2-4.3 0-6.2-1.4-.5 0 0 .2-.4.5 2.4 2.1 7.2 4.9 7.4 4.8l0 0c2.4-1.2 4.7-2.7 6.9-4.4C54 58.8 54.8 58.7 54.2 58.7z"/><path fill="#ee3e54" d="M46.3 43.4c-2-1.7-9.5-.5-9.5-.5.1.4.3.8.4 1.2.5 0 .6.9.6 1.3.3 1.6 1.8 2.7 4.9 2.7s3.8-1.7 4-2.7C46.8 44.6 46.7 44 46.3 43.4zM46 45.4c-.2 1.4-1.4 2.2-3.3 2.3h-.6c-3.1 0-3.6-1.9-3.7-3.2 0-.7.7-1.3 1.7-1.4.6 0 1.2 0 2 0 2.3 0 3.3.4 3.6.7C45.9 44.3 46.1 44.8 46 45.4zM48.5 45.3c.1 1 .9 2.6 4 2.7s4.6-1.1 4.9-2.7c0-.3.1-1.2.6-1.3.1-.4.2-.8.4-1.2 0 0-7.5-1.2-9.5.5C48.6 44 48.4 44.6 48.5 45.3zM49.7 43.8c.3-.3 1.3-.7 3.6-.7.7 0 1.4 0 2 0 1 .1 1.7.7 1.7 1.4-.1 1.2-.6 3.2-3.7 3.2h-.6c-2-.1-3.2-.9-3.3-2.3C49.2 44.8 49.4 44.3 49.7 43.8z"/><path fill="#ee3e54" d="M49,44.8c-0.4-0.2-0.9-0.3-1.4-0.3c-0.4,0-0.9,0.1-1.3,0.3c-0.1-0.3-0.3-0.5-0.4-0.8h3.5 C49.2,44.3,49.1,44.5,49,44.8z"/><path fill="#512c2b" d="M37.8 38c.5-1.8 1.2-3.4 2.3-4.9-.4-.4-1-.5-1.5-.4-1.4 2-2.1 4.3-2.1 6.7.1 1.1.3 2.1.7 3.1C37.5 41 37.4 39.5 37.8 38zM57.3 38c-.5-1.8-1.2-3.4-2.3-4.9.4-.4 1-.5 1.5-.4 1.4 2 2.1 4.3 2.1 6.7-.1 1.1-.3 2.1-.7 3.1C57.6 41 57.8 39.5 57.3 38z"/><path fill="#512c2b" d="M48.8,34.3c2,0.6,4.2,0.7,6.2,0.1c2-0.8,3.6-2.5,4.1-4.6c-1.8,0.9-3.8-0.5-5.6-1.4 c-4.6-2.1-10-1-13.5,2.6c-1.8,1.9-2.7,3.5,0.3,3.1C43.1,33.5,46,33.6,48.8,34.3z"/><path fill="#6d1b18" d="M44.2,54.7c0,0.2-0.1,0.3-0.1,0.5c0,1.4,1.5,2.5,3.4,2.5s3.4-1.1,3.4-2.5c0-0.2,0-0.3-0.1-0.5 H44.2z"/><path fill="#ee3e54" d="M49.4,57.3c-1.1-0.8-2.6-0.8-3.6,0C47,57.8,48.3,57.8,49.4,57.3z"/><path fill="#fdfcef" d="M45.2,54.7L45.2,54.7v0.4c0,0.4,0.5,0.7,1.1,0.7h2.6c0.6,0,1.1-0.3,1.1-0.7v-0.4l0,0H45.2z"/><path fill="#472b29" d="M47.6,57.9c-2,0-3.6-1.2-3.6-2.7c0-0.2,0-0.4,0.1-0.5c0-0.1,0.1-0.1,0.2-0.1H51 c0.1,0,0.2,0.1,0.2,0.1c0,0.2,0.1,0.3,0.1,0.5C51.3,56.7,49.6,57.9,47.6,57.9z M44.4,54.9c0,0.1,0,0.2,0,0.3 c0,1.3,1.4,2.3,3.2,2.3c1.8,0,3.2-1,3.2-2.3c0-0.1,0-0.2,0-0.3H44.4z"/><g><path fill="#fdfcee" d="M69.6 58.1A14.4 14.4 0 1 0 69.6 86.9A14.4 14.4 0 1 0 69.6 58.1Z"/><path fill="#472b29" d="M69.6,87.3c-8.2,0-14.8-6.6-14.8-14.8c0-8.2,6.6-14.8,14.8-14.8c8.2,0,14.8,6.6,14.8,14.8 C84.4,80.7,77.8,87.3,69.6,87.3z M69.6,58.5c-7.8,0-14.1,6.3-14.1,14.1s6.3,14.1,14.1,14.1s14.1-6.3,14.1-14.1 S77.3,58.5,69.6,58.5z"/></g><g><path fill="#93bc39" d="M69.6 60.6A11.9 11.9 0 1 0 69.6 84.4A11.9 11.9 0 1 0 69.6 60.6Z"/><path fill="#472b29" d="M69.6,84.7c-6.7,0-12.2-5.5-12.2-12.2c0-6.7,5.5-12.2,12.2-12.2c6.7,0,12.2,5.5,12.2,12.2 C81.8,79.2,76.3,84.7,69.6,84.7z M69.6,60.8c-6.4,0-11.7,5.2-11.7,11.7s5.2,11.7,11.7,11.7S81.3,79,81.3,72.5S76,60.8,69.6,60.8z"/></g><path fill="#c0d078" d="M69.6,62.4c5.1,0,9.7,3.2,11.4,7.9 C79.9,64,73.8,59.9,67.5,61c-4.7,0.9-8.5,4.6-9.3,9.3C59.9,65.6,64.5,62.4,69.6,62.4z" opacity=".79"/><path fill="#fdfcee" d="M69.6,78.8c-0.6,0-1.2-0.5-1.2-1.2v-3.9h-3.9c-0.7,0-1.2-0.5-1.2-1.2s0.5-1.2,1.2-1.2l0,0h3.9v-3.9 c0.1-0.6,0.6-1.1,1.3-1.1c0.6,0.1,1,0.5,1.1,1.1v3.9h3.9c0.7,0,1.2,0.5,1.2,1.2s-0.5,1.2-1.2,1.2h-3.9v3.9 C70.8,78.3,70.3,78.8,69.6,78.8C69.6,78.8,69.6,78.8,69.6,78.8z"/><path fill="#472b29" d="M69.6,66.5c0.5,0,0.9,0.4,0.9,0.9v4.2h4.2c0.5,0,0.9,0.4,0.9,0.9s-0.4,0.9-0.9,0.9h-4.2v4.2 c-0.1,0.5-0.5,0.9-1,0.8c-0.4,0-0.8-0.4-0.8-0.8v-4.2h-4.2c-0.5,0-0.9-0.4-0.9-0.9s0.4-0.9,0.9-0.9h4.2v-4.2 C68.7,66.9,69.1,66.5,69.6,66.5 M69.6,66c-0.8,0-1.4,0.6-1.4,1.4v3.7h-3.7c-0.8,0-1.4,0.6-1.4,1.4s0.6,1.4,1.4,1.4h3.7v3.7 c0.1,0.8,0.8,1.4,1.5,1.3c0.7-0.1,1.2-0.6,1.3-1.3V74h3.7c0.8,0,1.4-0.6,1.4-1.4s-0.6-1.4-1.4-1.4H71v-3.7 C71,66.6,70.4,66,69.6,66L69.6,66z"/></svg>