<svg xmlns="http://www.w3.org/2000/svg" width="300" height="300" viewBox="0 0 64 64"><path fill="#72caaf" d="M26.75 39L13 39 5 61 59 61 51 39 36.875 39"/><path fill="#5dbc9d" d="M32 56L7 56 5 61 59 61 57 56 32 56"/><path fill="#f283a5" d="M47,18c0-8.284-6.716-15-15-15S17,9.716,17,18c0,13,15,22,15,34C32,40,47,29,47,18z"/><path fill="#8d6c9f" d="M59,62H5c-0.326,0-0.632-0.159-0.819-0.426c-0.188-0.267-0.232-0.609-0.121-0.916l8-22 C12.204,38.263,12.58,38,13,38h14c0.552,0,1,0.448,1,1s-0.448,1-1,1H13.7L6.428,60h51.145L50.3,40H37c-0.552,0-1-0.448-1-1 s0.448-1,1-1h14c0.42,0,0.796,0.263,0.94,0.658l8,22c0.111,0.307,0.066,0.648-0.121,0.916C59.632,61.841,59.326,62,59,62z"/><path fill="#8d6c9f" d="M32,53c-0.552,0-1-0.448-1-1c0-5.565-3.446-10.503-7.095-15.73C20.019,30.702,16,24.944,16,18 c0-8.822,7.178-16,16-16s16,7.178,16,16c0,5.683-3.606,11.089-7.423,16.813C36.852,40.397,33,46.172,33,52 C33,52.552,32.552,53,32,53z M32,4c-7.72,0-14,6.28-14,14c0,6.315,3.835,11.811,7.545,17.125c2.5,3.582,5.058,7.246,6.432,11.18 c1.429-4.345,4.215-8.521,6.936-12.602C42.558,28.239,46,23.078,46,18C46,10.28,39.72,4,32,4z"/><path fill="#f9dd8f" d="M32 12A6 6 0 1 0 32 24A6 6 0 1 0 32 12Z"/><path fill="#8d6c9f" d="M32 16A2 2 0 1 0 32 20 2 2 0 1 0 32 16zM37.111 15.854c-.335 0-.663-.168-.852-.475-.411-.667-.981-1.235-1.649-1.645-.471-.289-.618-.905-.33-1.375.29-.47.906-.618 1.375-.33.933.572 1.73 1.367 2.305 2.299.29.47.144 1.086-.326 1.376C37.471 15.806 37.29 15.854 37.111 15.854z"/><path fill="#8d6c9f" d="M32 25c-3.86 0-7-3.14-7-7s3.14-7 7-7c.552 0 1 .448 1 1s-.448 1-1 1c-2.757 0-5 2.243-5 5s2.243 5 5 5 5-2.243 5-5c0-.552.448-1 1-1s1 .448 1 1C39 21.86 35.86 25 32 25zM12 58c-.552 0-1-.448-1-1v-2c0-.552.448-1 1-1s1 .448 1 1v2C13 57.552 12.552 58 12 58zM17 58c-.552 0-1-.448-1-1v-2c0-.552.448-1 1-1s1 .448 1 1v2C18 57.552 17.552 58 17 58zM22 58c-.552 0-1-.448-1-1v-2c0-.552.448-1 1-1s1 .448 1 1v2C23 57.552 22.552 58 22 58zM27 58c-.552 0-1-.448-1-1v-2c0-.552.448-1 1-1s1 .448 1 1v2C28 57.552 27.552 58 27 58zM32 58c-.552 0-1-.448-1-1v-2c0-.552.448-1 1-1s1 .448 1 1v2C33 57.552 32.552 58 32 58zM37 58c-.552 0-1-.448-1-1v-2c0-.552.448-1 1-1s1 .448 1 1v2C38 57.552 37.552 58 37 58zM42 58c-.552 0-1-.448-1-1v-2c0-.552.448-1 1-1s1 .448 1 1v2C43 57.552 42.552 58 42 58zM47 58c-.552 0-1-.448-1-1v-2c0-.552.448-1 1-1s1 .448 1 1v2C48 57.552 47.552 58 47 58zM52 58c-.552 0-1-.448-1-1v-2c0-.552.448-1 1-1s1 .448 1 1v2C53 57.552 52.552 58 52 58z"/></svg>