<svg xmlns="http://www.w3.org/2000/svg" width="50" height="50" fill="#000" viewBox="0 0 32 32"><path d="M 13 4 C 11.897 4 11 4.897 11 6 L 11 18 C 11 19.103 11.897 20 13 20 L 17.087891 20 C 16.72672 20.619861 16.450303 21.290386 16.265625 22 L 13 22 C 10.794 22 9 20.206 9 18 L 9 14 L 7 14 L 7 18 C 7 21.309 9.691 24 13 24 L 15 24 L 15 26 L 11 26 L 11 28 L 17.087891 28 C 18.477015 30.384094 21.05638 32 24 32 C 28.4 32 32 28.4 32 24 C 32 19.939374 28.931363 16.567445 25 16.070312 L 25 14 L 23 14 L 23 16.070312 C 22.301956 16.158582 21.631165 16.334117 21 16.591797 L 21 6 C 21 4.897 20.103 4 19 4 L 13 4 z M 13 6 L 19 6 L 19 17.771484 C 18.908863 17.84487 18.822195 17.922783 18.734375 18 L 13 18 L 13 6 z M 24 18 C 27.3 18 30 20.7 30 24 C 30 27.3 27.3 30 24 30 C 20.7 30 18 27.3 18 24 C 18 20.7 20.7 18 24 18 z M 23 20 L 23 23 L 20 23 L 20 25 L 23 25 L 23 28 L 25 28 L 25 25 L 28 25 L 28 23 L 25 23 L 25 20 L 23 20 z"/></svg>