<svg xmlns="http://www.w3.org/2000/svg" width="100" height="100" viewBox="0 0 24 24"><path d="M18 13A5 5 0 1 0 18 23A5 5 0 1 0 18 13Z" opacity=".3"/><path d="M21,19h-2v2h-2v-2h-2v-2h2v-2h2v2h2V19z"/><path d="M18,24c-3.3,0-6-2.7-6-6s2.7-6,6-6s6,2.7,6,6S21.3,24,18,24z M18,14c-2.2,0-4,1.8-4,4s1.8,4,4,4s4-1.8,4-4S20.2,14,18,14z"/><path d="M15,10.6V10c0-2.8-2.2-5-5-5s-5,2.2-5,5v8h5C10,14.6,12.1,11.8,15,10.6z" opacity=".3"/><path d="M10,18c0-0.3,0-0.7,0.1-1H5.8L6,16.8V16v-6c0-2.2,1.8-4,4-4s4,1.8,4,4v1.1c0.6-0.4,1.3-0.6,2-0.8V10c0-2.8-1.9-5.1-4.5-5.8 V3.5C11.5,2.7,10.8,2,10,2S8.5,2.7,8.5,3.5v0.7C5.9,4.9,4,7.2,4,10v6l-2,2v1h6.3C8.1,19.3,8,19.6,8,20c0,1.1,0.9,2,2,2 c0.3,0,0.7-0.1,0.9-0.2C10.3,20.6,10,19.4,10,18z"/></svg>