<svg xmlns="http://www.w3.org/2000/svg" width="100" height="100" viewBox="0 0 80 80"><path fill="#bae0bd" d="M4.5 4.5H75.5V75.5H4.5z"/><path fill="#5e9c76" d="M75,5v70H5V5H75 M76,4H4v72h72V4L76,4z"/><g><path fill="#fff" d="M37.5 62.5L37.5 42.5 17.5 42.5 17.5 37.5 37.5 37.5 37.5 17.5 42.5 17.5 42.5 37.5 62.5 37.5 62.5 42.5 42.5 42.5 42.5 62.5z"/><path fill="#5e9c76" d="M42,18v20h20v4H42v20h-4V42H18v-4h20V18H42 M43,17h-1h-4h-1v1v19H18h-1v1v4v1h1h19v19v1h1h4h1v-1 V43h19h1v-1v-4v-1h-1H43V18V17L43,17z"/></g></svg>