<svg xmlns="http://www.w3.org/2000/svg" width="50" height="50" fill="#000" viewBox="0 0 50 50"><path d="M 19 0 C 14.042969 0 10 4.042969 10 9 C 10 13.621094 13.511719 17.441406 18 17.941406 L 18 45 L 31 45 L 31 48 L 39 48 L 39 40 L 31 40 L 31 43 L 20 43 L 20 34 L 31 34 L 31 37 L 39 37 L 39 29 L 31 29 L 31 32 L 20 32 L 20 23 L 31 23 L 31 26 L 39 26 L 39 18 L 31 18 L 31 21 L 20 21 L 20 17.941406 C 24.488281 17.441406 28 13.621094 28 9 C 28 4.042969 23.957031 0 19 0 Z M 19 2 C 22.878906 2 26 5.121094 26 9 C 26 12.878906 22.878906 16 19 16 C 15.121094 16 12 12.878906 12 9 C 12 5.121094 15.121094 2 19 2 Z M 18 5 L 18 8 L 15 8 L 15 10 L 18 10 L 18 13 L 20 13 L 20 10 L 23 10 L 23 8 L 20 8 L 20 5 Z M 33 20 L 37 20 L 37 24 L 33 24 Z M 33 31 L 37 31 L 37 35 L 33 35 Z M 33 42 L 37 42 L 37 46 L 33 46 Z"/></svg>