<svg xmlns="http://www.w3.org/2000/svg" width="100" height="100" viewBox="0 0 48 48"><path fill="#90caf9" d="M40 45L8 45 8 3 30 3 40 13z"/><path fill="#e1f5fe" d="M38.5 14L29 14 29 4.5z"/><path fill="#1976d2" d="M18 23H34V25H18zM18 19H34V21H18zM14 19H16V21H14zM14 23H16V25H14zM14 35H16V37H14zM14 27H16V29H14zM14 31H16V33H14z"/><path fill="#43a047" d="M48,38c0,5.523-4.478,10-10,10c-5.523,0-10-4.477-10-10s4.477-10,10-10C43.522,28,48,32.477,48,38"/><g><path fill="#1976d2" d="M33.219 27H18v2h12.089C31.018 28.182 32.069 27.502 33.219 27zM26.395 35H18v2h8.051C26.108 36.315 26.227 35.648 26.395 35zM28.273 31H18v2h9.105C27.431 32.293 27.822 31.625 28.273 31z"/></g><path fill="#fff" d="M36 32H40V44H36z"/><path fill="#fff" d="M32 36H44V40H32z"/></svg>