<svg xmlns="http://www.w3.org/2000/svg" width="300" height="300" viewBox="0 0 30 30"><path fill="#fff" d="M5.5 27.5L5.5 2.5 18.8 2.5 24.5 8.2 24.5 27.5z"/><path fill="#788b9c" d="M18.6,3L24,8.4V27H6V3H18.6 M19,2H5v26h20V8L19,2L19,2z"/><path fill="#c5d4de" d="M15.5,28H25V14.2c-0.3-0.1-0.7-0.1-1-0.2V27h-9.1C15.1,27.3,15.3,27.7,15.5,28z"/><path fill="#fff" d="M18.5 8.5L18.5 2.5 18.8 2.5 24.5 8.2 24.5 8.5z"/><path fill="#788b9c" d="M19 3.4L23.6 8H19V3.4M19 2h-1v7h7V8L19 2 19 2zM12 12H21V13H12z"/><path fill="#bcc9d6" d="M12 21H21V22H12zM12 18H21V19H12z"/><path fill="#788b9c" d="M12 15H19V16H12z"/><path fill="#bae0bd" d="M23 16.5A6.5 6.5 0 1 0 23 29.5A6.5 6.5 0 1 0 23 16.5Z"/><path fill="#5e9c76" d="M23,17c3.3,0,6,2.7,6,6s-2.7,6-6,6s-6-2.7-6-6S19.7,17,23,17 M23,16c-3.9,0-7,3.1-7,7s3.1,7,7,7 s7-3.1,7-7S26.9,16,23,16L23,16z"/><path fill="#fff" d="M22 19H24V27H22z"/><path fill="#fff" d="M19 22H27V24H19z"/><g><path fill="#788b9c" d="M14.7 21H12v1h2.6C14.6 21.7 14.7 21.3 14.7 21zM16.1 18H12v1h3.5C15.7 18.6 15.9 18.3 16.1 18z"/></g><g><path fill="#c74343" d="M9.5 11.7A0.8 0.8 0 1 0 9.5 13.3A0.8 0.8 0 1 0 9.5 11.7Z"/></g><g><path fill="#c74343" d="M9.5 14.7A0.8 0.8 0 1 0 9.5 16.3A0.8 0.8 0 1 0 9.5 14.7Z"/></g><g><path fill="#c74343" d="M9.5 17.7A0.8 0.8 0 1 0 9.5 19.3A0.8 0.8 0 1 0 9.5 17.7Z"/></g><g><path fill="#c74343" d="M9.5 20.7A0.8 0.8 0 1 0 9.5 22.3A0.8 0.8 0 1 0 9.5 20.7Z"/></g></svg>