<svg xmlns="http://www.w3.org/2000/svg" width="50" height="50" viewBox="0 0 48 48"><path fill="#D1C4E9" d="M38 7H10C8.9 7 8 7.9 8 9v6c0 1.1.9 2 2 2h28c1.1 0 2-.9 2-2V9C40 7.9 39.1 7 38 7zM38 19H10c-1.1 0-2 .9-2 2v6c0 1.1.9 2 2 2h28c1.1 0 2-.9 2-2v-6C40 19.9 39.1 19 38 19zM38 31H10c-1.1 0-2 .9-2 2v6c0 1.1.9 2 2 2h28c1.1 0 2-.9 2-2v-6C40 31.9 39.1 31 38 31z"/><path fill="#43A047" d="M38 28A10 10 0 1 0 38 48A10 10 0 1 0 38 28Z"/><path fill="#DCEDC8" d="M42.5 33.3L36.8 39 34.1 36.3 32 38.5 36.8 43.3 44.6 35.5z"/></svg>