<svg xmlns="http://www.w3.org/2000/svg" viewBox="0 0 48 48" width="300px" height="300px"><path fill="#90caf9" d="M43,30V18c0-2.206-1.794-4-4-4H9c-2.206,0-4,1.794-4,4v12c0,2.206,1.794,4,4,4h30C41.206,34,43,32.206,43,30z M9,18h30v12L9,30.002V18z"/><path fill="#e57373" d="M43.678,3.142l-2.82-2.82c-0.43-0.43-1.126-0.43-1.555,0l-1.327,1.327l4.375,4.376l1.327-1.327C44.107,4.268,44.107,3.571,43.678,3.142z"/><path fill="#ff9800" d="M23.11 9.088H40.525999999999996V15.276H23.11z" transform="rotate(-45.001 31.818 12.183)"/><path fill="#b0bec5" d="M37.522 1.837H40.616V8.025H37.522z" transform="scale(-1) rotate(-44.996 -11.905 94.324)"/><path fill="#ffc107" d="M23.472 16.152L22 22 27.848 20.528z"/><path fill="#37474f" d="M22.744 19.044L22 22 24.956 21.256z"/></svg>