<svg xmlns="http://www.w3.org/2000/svg" viewBox="0 0 48 48" width="300px" height="300px"><path fill="#90caf9" d="M31 44L15 44 15 14 17 14 17 42 31 42z"/><path fill="#90caf9" d="M16 31H31V33H16zM16 20H31V22H16z"/><path fill="#8beaf2" d="M29 17h8v8h-8V17zM29 28h8v8h-8V28zM29 39h8v8h-8V39z"/><path fill="#f44336" d="M24,9c0,4.4-3.6,8-8,8s-8-3.6-8-8s3.6-8,8-8S24,4.6,24,9z"/><path fill="#fff" d="M11.8,6.2l1.4-1.4l7.1,7.1l-1.4,1.4L11.8,6.2z"/><path fill="#fff" d="M11.8,11.8l7.1-7.1l1.4,1.4l-7.1,7.1L11.8,11.8z"/></svg>