<svg xmlns="http://www.w3.org/2000/svg" viewBox="0 0 48 48" width="300px" height="300px"><path fill="#90CAF9" d="M34 22H42V26H34zM34 36H42V40H34zM34 8H42V12H34zM22 22H30V26H22zM22 36H30V40H22zM22 8H30V12H22z"/><path fill="#FFC107" d="M6 4H18V16H6z"/><path fill="#7CB342" d="M6 18H18V30H6z"/><path fill="#FFF9C4" d="M13.001,7.5c0,0.829,0.671,1.5,1.499,1.5C15.329,9,16,8.329,16,7.5S15.329,6,14.5,6C13.672,6,13.001,6.671,13.001,7.5"/><path fill="#D85700" d="M10.637 8.547L7 14 14.273 14z"/><path fill="#EF7E03" d="M14.273 10.365L11.545 14 17 14z"/><g><path fill="#FFF" d="M10.536 20.998c0-.829.655-1.498 1.464-1.498s1.464.669 1.464 1.498C13.464 21.83 12 24 12 24S10.536 21.83 10.536 20.998M13.464 27c0 .831-.655 1.5-1.464 1.5s-1.464-.669-1.464-1.5S12 24 12 24 13.464 26.169 13.464 27"/><path fill="#FFF" d="M8.732 23.798c-.701-.415-.939-1.329-.536-2.049.403-.719 1.3-.964 2.001-.547C10.896 21.616 12 24 12 24S9.433 24.211 8.732 23.798M15.268 24.2c.701.415.939 1.331.536 2.049-.403.72-1.3.964-2.001.549C13.103 26.385 12 24 12 24S14.567 23.786 15.268 24.2"/><path fill="#FFF" d="M15.268 23.798c.701-.415.939-1.329.536-2.049-.403-.719-1.3-.964-2.001-.547C13.103 21.616 12 24 12 24S14.567 24.211 15.268 23.798M8.732 24.2c-.701.415-.939 1.331-.536 2.049.403.72 1.3.964 2.001.549C10.896 26.385 12 24 12 24S9.433 23.786 8.732 24.2"/></g><path fill="#FFC107" d="M13.5,24.055c0,0.828-0.671,1.499-1.5,1.499s-1.5-0.671-1.5-1.499c0-0.83,0.671-1.501,1.5-1.501S13.5,23.225,13.5,24.055"/><path fill="#1565C0" d="M6 32H18V44H6z"/><g><path fill="#FFC107" d="M9 35H15V41H9z"/><path fill="#FFC107" d="M9 35H14.998999999999999V40.999H9z" transform="rotate(-45.001 12 38)"/></g><path fill="#FFF8E1" d="M10,38c0,1.104,0.896,2,2,2c1.105,0,2-0.896,2-2s-0.895-2-2-2C10.896,36,10,36.896,10,38"/></svg>