<svg xmlns="http://www.w3.org/2000/svg" viewBox="0 0 48 48" width="300px" height="300px"><path fill="#BBDEFB" d="M43,40c0,0.553-0.447,1-1,1H6c-0.553,0-1-0.447-1-1V8c0-0.553,0.447-1,1-1h36c0.553,0,1,0.447,1,1V40z"/><path fill="#64B5F6" d="M16,29H9v7h7V29L16,29z"/><path fill="#1976D2" d="M9 15H17V17H9zM9 22H17V24H9zM19 31H39V33H19z"/><g><path fill="#FFF" d="M39 17c0 .552-.447 1-1 1H22c-.552 0-1-.448-1-1v-2c0-.552.448-1 1-1h16c.553 0 1 .448 1 1V17zM39 24c0 .552-.447 1-1 1H22c-.552 0-1-.448-1-1v-2c0-.552.448-1 1-1h16c.553 0 1 .448 1 1V24z"/><path fill="#FAFAFA" d="M11 31H14V34H11z"/></g></svg>