<svg xmlns="http://www.w3.org/2000/svg" width="300" height="300" viewBox="0 0 48 48"><path fill="#ffcc80" d="M22.959,18H38v24H22.959c-3.247,0-5.878-2.686-5.878-5.996V24C17.081,20.684,19.712,18,22.959,18z"/><path fill="#ffcc80" d="M34 21c0 1.656 1.343 3 3 3h3c1.657 0 3-1.344 3-3l0 0c0-1.656-1.343-3-3-3h-3C35.343 18 34 19.344 34 21L34 21zM31 27c0 1.656 1.343 3 3 3h6c1.657 0 3-1.344 3-3l0 0c0-1.656-1.343-3-3-3h-6C32.343 24 31 25.344 31 27L31 27zM30 33c0 1.656 1.343 3 3 3h6c1.657 0 3-1.344 3-3l0 0c0-1.656-1.343-3-3-3h-6C31.343 30 30 31.344 30 33L30 33zM29 39c0 1.656 1.343 3 3 3h6c1.657 0 3-1.344 3-3l0 0c0-1.656-1.343-3-3-3h-6C30.343 36 29 37.344 29 39L29 39zM24.526 13.566c.926-1.031 1.582-2.277 1.916-3.631l.724-2.955C27.306 6.402 27.815 6 28.397 6h.675c1.781 0 2.968 2 2.968 3.293v1.393c0 2.828-.453 5.609-1.813 8.072l-2.626 4.762-8.193-4.266L24.526 13.566z"/><g><path fill="#f2a25a" d="M41 24h-4c-.552 0-1 .447-1 1 0 .553.448 1 1 1L41 24zM40 30h-4c-.552 0-1 .447-1 1s.448 1 1 1L40 30zM39 36h-4c-.552 0-1 .447-1 1s.448 1 1 1L39 36z"/></g><path fill="#ba68c8" d="M18 41L8 41 5 19 18 19z"/><path fill="#f3e5f5" d="M13 34A2 2 0 1 0 13 38A2 2 0 1 0 13 34Z"/></svg>