<svg xmlns="http://www.w3.org/2000/svg" viewBox="0 0 48 48" width="500px" height="500px"><path fill="#D1C4E9" d="M38 7H10C8.9 7 8 7.9 8 9v6c0 1.1.9 2 2 2h28c1.1 0 2-.9 2-2V9C40 7.9 39.1 7 38 7zM38 19H10c-1.1 0-2 .9-2 2v6c0 1.1.9 2 2 2h28c1.1 0 2-.9 2-2v-6C40 19.9 39.1 19 38 19zM38 31H10c-1.1 0-2 .9-2 2v6c0 1.1.9 2 2 2h28c1.1 0 2-.9 2-2v-6C40 31.9 39.1 31 38 31z"/><path fill="#F44336" d="M38 28A10 10 0 1 0 38 48A10 10 0 1 0 38 28Z"/><g><path fill="#FFF" d="M36.5 32H39.5V44H36.5z" transform="rotate(134.999 38 38)"/><path fill="#FFF" d="M36.5 32H39.5V44H36.5z" transform="rotate(-134.999 38 38)"/></g></svg>