<svg xmlns="http://www.w3.org/2000/svg" viewBox="0 0 48 48" width="50px" height="50px"><path fill="#90caf9" d="M31 44L15 44 15 12 17 12 17 42 31 42z"/><path fill="#90caf9" d="M16 31H31V33H16zM16 18H31V20H16z"/><path fill="#8beaf2" d="M29 15h8v8h-8V15zM29 28h8v8h-8V28zM29 39h8v8h-8V39zM11 3h10v10H11V3z"/><path fill="#f44336" d="M41,18c0,4.4-3.6,8-8,8s-8-3.6-8-8s3.6-8,8-8S41,13.6,41,18z"/><path fill="#fff" d="M28.8,15.2l1.4-1.4l7.1,7.1l-1.4,1.4L28.8,15.2z"/><path fill="#fff" d="M28.8,20.8l7.1-7.1l1.4,1.4l-7.1,7.1L28.8,20.8z"/></svg>