<svg xmlns="http://www.w3.org/2000/svg" width="500" height="500" viewBox="0 0 48 48"><path fill="#1565c0" d="M24,4C12.954,4,4,12.954,4,24s8.954,20,20,20s20-8.954,20-20S35.046,4,24,4z"/><path fill="#e3f2fd" d="M24,8c8.822,0,16,7.178,16,16v2c0,3.308-2.692,6-6,6c-1.84,0-3.468-0.85-4.57-2.16 C28.002,31.17,26.1,32,24,32c-4.412,0-8-3.588-8-8s3.588-8,8-8s8,3.588,8,8v2c0,1.102,0.898,2,2,2s2-0.898,2-2v-2 c0-6.618-5.382-12-12-12s-12,5.382-12,12s5.382,12,12,12h4v4h-4c-8.822,0-16-7.178-16-16S15.178,8,24,8z M24,20 c-2.209,0-4,1.791-4,4s1.791,4,4,4s4-1.791,4-4S26.209,20,24,20z"/></svg>