<svg xmlns="http://www.w3.org/2000/svg" width="100" height="100" viewBox="0 0 48 48"><path fill="#90caf9" d="M30,5H18c-2.206,0-4,1.794-4,4v30c0,2.206,1.794,4,4,4h12c2.206,0,4-1.794,4-4V9C34,6.794,32.206,5,30,5z M18,39V9h12l0.002,30H18z"/><path fill="#e57373" d="M47.678,10.142l-2.82-2.82c-0.43-0.43-1.126-0.43-1.555,0l-1.327,1.327l4.375,4.376l1.327-1.327C48.107,11.268,48.107,10.571,47.678,10.142z"/><path fill="#ff9800" d="M27.11 16.088H44.525999999999996V22.276H27.11z" transform="rotate(-45.001 35.818 19.183)"/><path fill="#b0bec5" d="M41.522 8.837H44.616V15.024999999999999H41.522z" transform="scale(-1) rotate(-44.996 -28.805 103.981)"/><path fill="#ffc107" d="M27.472 23.152L26 29 31.848 27.528z"/><path fill="#37474f" d="M26.744 26.044L26 29 28.956 28.256z"/></svg>