<svg xmlns="http://www.w3.org/2000/svg" width="300" height="300" viewBox="0 0 48 48"><path fill="#FFB74D" d="M29,43v-4.6l2.6,0.5c2.9,0.6,5.6-1.5,5.8-4.4L38,28l2.9-1.2c1-0.4,1.4-1.6,0.8-2.6L38,18c-0.6-7.6-4.9-15-16-15C10.6,3,5,11.4,5,20c0,3.7,1.3,6.9,3.3,9.6c1.8,2.5,2.7,5.5,2.7,8.5l0,4.8H29z"/><path fill="#FF9800" d="M29 43L29 38.4 22 37 22 43z"/><path fill="#784719" d="M33.5 20A1.5 1.5 0 1 0 33.5 23A1.5 1.5 0 1 0 33.5 20Z"/><path fill="#FF5722" d="M21.4,3C12.3,3,5,10.3,5,19.4c0,11.1,6,11.4,6,18.6l2.6-0.9c2.1-0.7,3.9-2.3,4.7-4.4l2.8-6.8L27,23v-6c0,0,7-3.8,7-10.3C31,4.2,25.7,3,21.4,3z"/><path fill="#546E7A" d="M21 2.1c-.6 0-1 .4-1 1v13.9c0 .6.4 1 1 1s1-.4 1-1V3.1C22 2.5 21.6 2.1 21 2.1zM36.9 31.9c-7.9 0-10.3-4.9-10.4-5.1-.2-.5-.8-.7-1.3-.5-.5.2-.7.8-.5 1.3.1.3 3 6.3 12.2 6.3.6 0 1-.4 1-1S37.4 31.9 36.9 31.9z"/><path fill="#37474F" d="M37 31A2 2 0 1 0 37 35 2 2 0 1 0 37 31zM21 16A7 7 0 1 0 21 30 7 7 0 1 0 21 16z"/><path fill="#546E7A" d="M21 19A4 4 0 1 0 21 27A4 4 0 1 0 21 19Z"/></svg>