<svg xmlns="http://www.w3.org/2000/svg" width="100" height="100" viewBox="0 0 48 48"><path fill="#90caf9" d="M6,42V6h36v36H6z M10,38h28V10H10V38z"/><path fill="#90caf9" d="M24,41.5c-1.104,0-2-0.896-2-2V9c0-1.104,0.896-2,2-2s2,0.896,2,2v30.5C26,40.604,25.104,41.5,24,41.5z"/><path fill="#90caf9" d="M39 21H9c-1.104 0-2-.896-2-2s.896-2 2-2h30c1.104 0 2 .896 2 2S40.104 21 39 21zM39 31H9c-1.104 0-2-.896-2-2s.896-2 2-2h30c1.104 0 2 .896 2 2S40.104 31 39 31z"/><g><path fill="#ff3d00" d="M48,38c0,5.5-4.5,10-10,10s-10-4.5-10-10s4.5-10,10-10S48,32.5,48,38"/><path fill="#fff" d="M43.3,34.8l-2.1-2.1L38,35.9l-3.2-3.2l-2.1,2.1l3.2,3.2l-3.2,3.2l2.1,2.1l3.2-3.2l3.2,3.2l2.1-2.1L40.1,38L43.3,34.8z"/></g></svg>