<svg xmlns="http://www.w3.org/2000/svg" viewBox="0 0 48 48" width="100px" height="100px"><path fill="#00acc1" d="M42,39.176C42,40.735,40.735,42,39.176,42H28.824C27.265,42,26,40.735,26,39.176V28.824	C26,27.265,27.265,26,28.824,26h10.353C40.735,26,42,27.265,42,28.824V39.176z"/><path fill="#00acc1" d="M39.176,6H28.824C27.265,6,26,7.265,26,8.824v10.353C26,20.735,27.265,22,28.824,22h10.353	C40.735,22,42,20.735,42,19.176V8.824C42,7.265,40.735,6,39.176,6z"/><path fill="#00acc1" d="M22,19.125c0,1.553-1.344,2.813-3,2.813H9c-1.656,0-3-1.26-3-2.813V8.813C6,7.26,7.344,6,9,6h10	c1.656,0,3,1.26,3,2.813V19.125z"/><path fill="#00acc1" d="M22,39.176C22,40.735,20.735,42,19.176,42H8.824C7.265,42,6,40.735,6,39.176V28.824	C6,27.265,7.265,26,8.824,26h10.353C20.735,26,22,27.265,22,28.824V39.176z"/></svg>