<svg xmlns="http://www.w3.org/2000/svg" viewBox="0 0 48 48" width="50px" height="50px"><path fill="#CFD8DC" d="M8 40L8 6 6 6 6 42 42 42 42 40z"/><path fill="#607D8B" d="M40,37c-0.6,0-1-0.4-1-1s0.4-1,1-1c0.6,0,1,0.4,1,1S40.6,37,40,37 M37,37c0.6,0,1-0.4,1-1s-0.4-1-1-1c-0.6,0-1,0.4-1,1S36.4,37,37,37 M34,37c0.6,0,1-0.4,1-1s-0.4-1-1-1c-0.6,0-1,0.4-1,1S33.4,37,34,37 M22,37c0.6,0,1-0.4,1-1s-0.4-1-1-1c-0.6,0-1,0.4-1,1S21.4,37,22,37 M19,37c0.6,0,1-0.4,1-1s-0.4-1-1-1c-0.6,0-1,0.4-1,1S18.4,37,19,37 M16,37c0.6,0,1-0.4,1-1s-0.4-1-1-1c-0.6,0-1,0.4-1,1S15.4,37,16,37 M13,37c0.6,0,1-0.4,1-1s-0.4-1-1-1c-0.6,0-1,0.4-1,1S12.4,37,13,37 M10,37c0.6,0,1-0.4,1-1s-0.4-1-1-1c-0.6,0-1,0.4-1,1S9.4,37,10,37 M31,37c0.6,0,1-0.4,1-1s-0.4-1-1-1c-0.6,0-1,0.4-1,1S30.4,37,31,37 M28,37c0.6,0,1-0.4,1-1s-0.4-1-1-1c-0.6,0-1,0.4-1,1S27.4,37,28,37 M25,37c0.6,0,1-0.4,1-1s-0.4-1-1-1c-0.6,0-1,0.4-1,1S24.4,37,25,37"/><path fill="#00BCD4" d="M12,6c1,6.9,5.1,29,13,29c7.9,0,12-22.1,13-29H12z"/></svg>