<svg xmlns="http://www.w3.org/2000/svg" viewBox="0 0 48 48" width="500px" height="500px"><path fill="#fafafa" d="M2,24.08C2,24.08,10.096,14,24,14s22,10.08,22,10.08S35.44,38,24,38S2,24.08,2,24.08z"/><path fill="#009688" d="M24 13A11 11 0 1 0 24 35A11 11 0 1 0 24 13Z"/><path fill="#ffa726" d="M2 24.08C2 24.08 10.096 41 24 41s22-16.92 22-16.92S35.44 36.04 24 36.04 2 24.08 2 24.08zM2 24.08c0 0 8.096-8.08 22-8.08s22 8.08 22 8.08S39.312 9 24 9 2 24.08 2 24.08z"/><path fill="#263238" d="M24 19A5 5 0 1 0 24 29A5 5 0 1 0 24 19Z"/><path fill="#fff" d="M28 18A2 2 0 1 0 28 22A2 2 0 1 0 28 18Z"/><path fill="#37474f" d="M21.977 -3.788H25.977V51.742000000000004H21.977z" transform="rotate(-45.001 23.976 23.977)"/></svg>