<svg xmlns="http://www.w3.org/2000/svg" viewBox="0 0 48 48" width="500px" height="500px"><path fill="#64B5F6" d="M38,33c0,2.762-2.238,5-5,5H10c-2.761,0-5-2.238-5-5V10c0-2.762,2.239-5,5-5h23c2.762,0,5,2.238,5,5V33z"/><path fill="#E3F2FD" d="M33 16H10c-.552 0-1-.448-1-1v-5c0-.552.448-1 1-1h23c.552 0 1 .448 1 1v5C34 15.552 33.552 16 33 16M33 25H10c-.552 0-1-.448-1-1v-5c0-.552.448-1 1-1h23c.552 0 1 .448 1 1v5C34 24.552 33.552 25 33 25M33 34H10c-.552 0-1-.448-1-1v-5c0-.552.448-1 1-1h23c.552 0 1 .448 1 1v5C34 33.552 33.552 34 33 34"/><path fill="#9C27B0" d="M43,33c0,5.523-4.477,10-10,10s-10-4.477-10-10s4.477-10,10-10S43,27.477,43,33"/><g><path fill="#F3E5F5" d="M29 27H31V39H29zM35 27H37V39H35z"/><path fill="#F3E5F5" d="M27 35H39V37H27zM27 30H39V32H27z"/></g></svg>