<svg xmlns="http://www.w3.org/2000/svg" viewBox="0 0 48 48" width="100px" height="100px"><path fill="#00BCD4" d="M12,41c0,0,3.7-31,13-31s13,31,13,31"/><path fill="#CFD8DC" d="M8 40L8 6 6 6 6 42 42 42 42 40z"/><path fill="#607D8B" d="M40,8c0.6,0,1,0.4,1,1s-0.4,1-1,1c-0.6,0-1-0.4-1-1S39.4,8,40,8 M37,8c-0.6,0-1,0.4-1,1s0.4,1,1,1c0.6,0,1-0.4,1-1S37.6,8,37,8 M34,8c-0.6,0-1,0.4-1,1s0.4,1,1,1c0.6,0,1-0.4,1-1S34.6,8,34,8 M22,8c-0.6,0-1,0.4-1,1s0.4,1,1,1c0.6,0,1-0.4,1-1S22.6,8,22,8 M19,8c-0.6,0-1,0.4-1,1s0.4,1,1,1c0.6,0,1-0.4,1-1S19.6,8,19,8 M16,8c-0.6,0-1,0.4-1,1s0.4,1,1,1c0.6,0,1-0.4,1-1S16.6,8,16,8 M13,8c-0.6,0-1,0.4-1,1s0.4,1,1,1c0.6,0,1-0.4,1-1S13.6,8,13,8 M10,8C9.4,8,9,8.4,9,9s0.4,1,1,1c0.6,0,1-0.4,1-1S10.6,8,10,8 M31,8c-0.6,0-1,0.4-1,1s0.4,1,1,1c0.6,0,1-0.4,1-1S31.6,8,31,8 M28,8c-0.6,0-1,0.4-1,1s0.4,1,1,1c0.6,0,1-0.4,1-1S28.6,8,28,8 M25,8c-0.6,0-1,0.4-1,1s0.4,1,1,1c0.6,0,1-0.4,1-1S25.6,8,25,8"/></svg>