<svg xmlns="http://www.w3.org/2000/svg" width="100" height="100" viewBox="0 0 48 48"><path fill="#78909C" d="M6,28v10c0,2.209,1.791,4,4,4h28c2.209,0,4-1.791,4-4V28H6z"/><path fill="#455A64" d="M42,28c0,2.209-1.791,4-4,4H10c-2.209,0-4-1.791-4-4l3-18c0.313-2.25,1.791-4,4-4h22c2.209,0,3.625,1.563,4,4L42,28z"/><path fill="#64DD17" d="M35 35A2 2 0 1 0 35 39A2 2 0 1 0 35 35Z"/><path fill="#FFD54F" d="M24 12A1 1 0 1 0 24 14 1 1 0 1 0 24 12zM33 15A1 1 0 1 0 33 17 1 1 0 1 0 33 15zM15 15A1 1 0 1 0 15 17 1 1 0 1 0 15 15z"/><path fill="#FFD54F" d="M32.308 25L33 16 28 21 24 13.542 20 21 15 16 15.692 25z"/></svg>