<svg xmlns="http://www.w3.org/2000/svg" width="300" height="300" viewBox="0 0 48 48"><path fill="#FFC107" d="M22.975 23L6 23 6 6 23 6z"/><path fill="#7CB342" d="M6 25H23V42H6z"/><path fill="#2196F3" d="M41.975 23L25 23 25 6 42 6z"/><path fill="#1565C0" d="M25 25H42V42H25z"/><path fill="#FFF9C4" d="M17,11c0,1.105,0.895,2,1.998,2C20.105,13,21,12.105,21,11s-0.895-2-2.002-2C17.895,9,17,9.895,17,11"/><path fill="#D85700" d="M13 12L7 20 19 20z"/><path fill="#EF7E03" d="M18 15L13.875 20 22 20z"/><path fill="#FFF" d="M12.487,29.518c0-1.105,0.899-1.998,2.013-1.998s2.014,0.893,2.014,1.998c0,1.107-2.014,4.002-2.014,4.002S12.487,30.625,12.487,29.518"/><path fill="#FFF" d="M16.514,37.519c0,1.108-0.9,2.001-2.014,2.001s-2.013-0.893-2.013-2.001c0-1.105,2.013-3.999,2.013-3.999S16.514,36.413,16.514,37.519"/><path fill="#FFF" d="M10.008 33.252c-.963-.555-1.293-1.776-.738-2.734.555-.957 1.787-1.285 2.751-.729.963.553 2.479 3.731 2.479 3.731S10.971 33.803 10.008 33.252M18.993 33.786c.963.553 1.293 1.777.737 2.731-.556.958-1.787 1.287-2.751.734C16.016 36.698 14.5 33.52 14.5 33.52S18.029 33.234 18.993 33.786"/><path fill="#FFF" d="M18.993 33.252c.963-.555 1.293-1.776.737-2.734-.556-.957-1.787-1.285-2.751-.729C16.016 30.341 14.5 33.52 14.5 33.52S18.029 33.803 18.993 33.252M10.008 33.786c-.963.553-1.293 1.777-.738 2.731.555.958 1.787 1.287 2.751.734.963-.554 2.479-3.732 2.479-3.732S10.971 33.234 10.008 33.786"/><path fill="#FFC107" d="M16.5,33.597c0,1.103-0.895,1.996-2,1.996s-2-0.894-2-1.996c0-1.109,0.895-2.004,2-2.004S16.5,32.487,16.5,33.597"/><g><path fill="#FFC107" d="M29 29H38V38H29z"/><path fill="#FFC107" d="M29 29.001H38V38H29z" transform="rotate(45.004 33.498 33.499)"/></g><path fill="#FFF8E1" d="M31,33.5c0,1.381,1.121,2.5,2.5,2.5c1.381,0,2.5-1.119,2.5-2.5S34.881,31,33.5,31C32.121,31,31,32.119,31,33.5"/><path fill="#FFF59D" d="M27,10c0,1.106,0.895,2,1.999,2C30.105,12,31,11.106,31,10c0-1.105-0.895-2-2.001-2C27.895,8,27,8.895,27,10"/><g><path fill="#E3F2FD" d="M36 12A3 3 0 1 0 36 18A3 3 0 1 0 36 12Z"/><path fill="#E3F2FD" d="M32 13.5A2.5 2.5 0 1 0 32 18.5 2.5 2.5 0 1 0 32 13.5zM34.4 20c-1.161 0 2.34-4.154 3.5-4.154 1.159 0 2.1.93 2.1 2.078C40 19.071 39.06 20 37.9 20 36.74 20 35.801 20 34.4 20z"/><path fill="#E3F2FD" d="M26.965,17.924c0-1.148,0.94-2.078,2.101-2.078c3.499,0,4.66,4.154,3.499,4.154c-1.4,0-2.34,0-3.499,0C27.905,20,26.965,19.071,26.965,17.924z"/><path fill="#E3F2FD" d="M37.399 20L29 20 29 17.23 37.399 15.846z"/></g></svg>