<svg xmlns="http://www.w3.org/2000/svg" viewBox="0 0 48 48" width="300px" height="300px"><path fill="#7CB342" d="M23.594,43c-2.207,0-3.998-1.791-3.998-4c0-2.21,1.791-4,3.998-4c2.211,0,4.002,1.79,4.002,4C27.596,41.209,25.805,43,23.594,43z"/><path fill="#9CCC65" d="M39 20.404A3 3 0 1 0 39 26.404A3 3 0 1 0 39 20.404Z"/><path fill="#AED581" d="M34.518,15.498c-1.659,0-3.002-1.344-3.002-3s1.343-3,3.002-3c1.654,0,2.998,1.344,2.998,3S36.172,15.498,34.518,15.498z"/><path fill="#CFD8DC" d="M23.594 11c-1.654 0-2.998-1.344-2.998-3.002C20.596 6.343 21.939 5 23.594 5c1.66 0 3.002 1.343 3.002 2.998C26.596 9.656 25.254 11 23.594 11zM8 24.893c-1.102 0-2-.896-2-2 0-1.105.898-2 2-2 1.105 0 2 .895 2 2C10 23.997 9.105 24.893 8 24.893zM12.678 35.809c-.828 0-1.502-.67-1.502-1.5 0-.824.674-1.5 1.502-1.5s1.498.676 1.498 1.5C14.176 35.139 13.506 35.809 12.678 35.809zM12.677 9.998A2.5 2.5 0 1 0 12.677 14.998 2.5 2.5 0 1 0 12.677 9.998z"/><path fill="#8BC34A" d="M34.518,37.809c-1.935,0-3.502-1.565-3.502-3.5c0-1.932,1.567-3.5,3.502-3.5c1.93,0,3.498,1.568,3.498,3.5C38.016,36.243,36.447,37.809,34.518,37.809z"/></svg>