<svg xmlns="http://www.w3.org/2000/svg" width="50" height="50" viewBox="0 0 48 48"><path fill="#fb8c00" d="M10.804,37.196l-7.071-1.414l7.071-7.071c2.343-2.343,6.142-2.343,8.485,0l0,0L10.804,37.196z"/><path fill="#fb8c00" d="M10.804,37.196l1.414,7.071l7.071-7.071c2.343-2.343,2.343-6.142,0-8.485l0,0L10.804,37.196z"/><polygon fill="#ffb300" points="14.079 42.406 12.614 35.386 14.305 33.695 15.77 40.715"/><path fill="#ffb300" d="M16.15,31.85l1.691-1.691l1.464,7.019c-0.006,0.006-0.01,0.012-0.016,0.018l-1.675,1.675L16.15,31.85	z"/><polygon fill="#ffb300" points="12.635 35.364 5.615 33.9 7.306 32.209 14.326 33.674"/><path fill="#ffb300" d="M16.171,31.829L9.15,30.364l1.654-1.654c0.013-0.013,0.027-0.024,0.04-0.037l7.017,1.464	L16.171,31.829z"/><path fill="#6d4c41" d="M9.267,39.733c-0.256,0-0.512-0.098-0.707-0.293c-0.391-0.391-0.391-1.023,0-1.414l24.717-24.718 c0.391-0.391,1.023-0.391,1.414,0s0.391,1.023,0,1.414L9.974,39.44C9.778,39.636,9.522,39.733,9.267,39.733z"/><path fill="#e53935" d="M30.527,6.64c1.818-1.818,5.11-2.503,7.552-2.757c0.049-0.005,4.878-0.497,5.707,0.332 c0.829,0.829,0.337,5.658,0.332,5.707c-0.254,2.441-0.94,5.734-2.757,7.552c-0.812,0.812-1.891,1.26-3.04,1.26 s-2.228-0.447-3.041-1.26c-0.961-0.96-1.365-2.265-1.231-3.521c-1.255,0.14-2.561-0.27-3.521-1.231 c-0.813-0.812-1.26-1.892-1.26-3.041S29.714,7.452,30.527,6.64z M42.268,5.251L42.268,5.251L42.268,5.251z"/></svg>