<svg xmlns="http://www.w3.org/2000/svg" viewBox="0 0 48 48" width="100px" height="100px"><path fill="#616161" d="M38,5H10C7.8,5,6,6.8,6,9v29c0,2.2,1.8,4,4,4h28c2.2,0,4-1.8,4-4V9C42,6.8,40.2,5,38,5z"/><path fill="#E0E0E0" d="M25.8,14h-3.6c-0.7,0-1.2-0.6-1.2-1.3v-2.5C21,9.6,21.5,9,22.2,9h3.6c0.7,0,1.2,0.6,1.2,1.3v2.5C27,13.4,26.5,14,25.8,14 M34.8,14c0.7,0,1.2-0.6,1.2-1.3v-2.5C36,9.6,35.5,9,34.8,9h-3.6C30.5,9,30,9.6,30,10.3v2.5c0,0.7,0.5,1.3,1.2,1.3H34.8 M16.8,14c0.7,0,1.2-0.6,1.2-1.3v-2.5C18,9.6,17.5,9,16.8,9h-3.6C12.5,9,12,9.6,12,10.3v2.5c0,0.7,0.5,1.3,1.2,1.3H16.8 M25.8,22c0.7,0,1.2-0.6,1.2-1.3v-2.5c0-0.7-0.5-1.3-1.2-1.3h-3.6c-0.7,0-1.2,0.6-1.2,1.3v2.5c0,0.7,0.5,1.3,1.2,1.3H25.8 M34.8,22c0.7,0,1.2-0.6,1.2-1.3v-2.5c0-0.7-0.5-1.3-1.2-1.3h-3.6c-0.7,0-1.2,0.6-1.2,1.3v2.5c0,0.7,0.5,1.3,1.2,1.3H34.8 M16.8,22c0.7,0,1.2-0.6,1.2-1.3v-2.5c0-0.7-0.5-1.3-1.2-1.3h-3.6c-0.7,0-1.2,0.6-1.2,1.3v2.5c0,0.7,0.5,1.3,1.2,1.3H16.8 M25.8,30c0.7,0,1.2-0.6,1.2-1.3v-2.5c0-0.7-0.5-1.3-1.2-1.3h-3.6c-0.7,0-1.2,0.6-1.2,1.3v2.5c0,0.7,0.5,1.3,1.2,1.3H25.8 M34.8,30c0.7,0,1.2-0.6,1.2-1.3v-2.5c0-0.7-0.5-1.3-1.2-1.3h-3.6c-0.7,0-1.2,0.6-1.2,1.3v2.5c0,0.7,0.5,1.3,1.2,1.3H34.8 M16.8,30c0.7,0,1.2-0.6,1.2-1.3v-2.5c0-0.7-0.5-1.3-1.2-1.3h-3.6c-0.7,0-1.2,0.6-1.2,1.3v2.5c0,0.7,0.5,1.3,1.2,1.3H16.8 M25.8,38c0.7,0,1.2-0.6,1.2-1.3v-2.5c0-0.7-0.5-1.3-1.2-1.3h-3.6c-0.7,0-1.2,0.6-1.2,1.3v2.5c0,0.7,0.5,1.3,1.2,1.3H25.8"/><path fill="#FF5252" d="M34.8,38h-3.6c-0.7,0-1.2-0.6-1.2-1.3v-2.5c0-0.7,0.5-1.3,1.2-1.3h3.6c0.7,0,1.2,0.6,1.2,1.3v2.5C36,37.4,35.5,38,34.8,38"/><path fill="#BDBDBD" d="M16.8,38h-3.6c-0.7,0-1.2-0.6-1.2-1.3v-2.5c0-0.7,0.5-1.3,1.2-1.3h3.6c0.7,0,1.2,0.6,1.2,1.3v2.5C18,37.4,17.5,38,16.8,38"/></svg>