<svg xmlns="http://www.w3.org/2000/svg" viewBox="0 0 48 48" width="50px" height="50px"><path fill="#90caf9" d="M6,42V6h36v36H6z M10,38h28V10H10V38z"/><path fill="#90caf9" d="M24,41.5c-1.104,0-2-0.896-2-2V9c0-1.104,0.896-2,2-2s2,0.896,2,2v30.5C26,40.604,25.104,41.5,24,41.5z"/><path fill="#90caf9" d="M39 21H9c-1.104 0-2-.896-2-2s.896-2 2-2h30c1.104 0 2 .896 2 2S40.104 21 39 21zM39 31H9c-1.104 0-2-.896-2-2s.896-2 2-2h30c1.104 0 2 .896 2 2S40.104 31 39 31z"/><g><path fill="#43a047" d="M48,38c0,5.5-4.5,10-10,10s-10-4.5-10-10s4.5-10,10-10S48,32.5,48,38"/><path fill="#fff" d="M44,36h-4v-4h-4v4h-4v4h4v4h4v-4h4V36z"/></g></svg>