<svg xmlns="http://www.w3.org/2000/svg" viewBox="0 0 48 48" width="300px" height="300px"><path fill="#2E7D32" d="M6 39H42V43H6z"/><path fill="#7CB342" d="M34.928,21.229C34.973,20.825,35,20.416,35,20c0-0.418-0.028-0.828-0.073-1.234l3.749-2.617c0.326-0.233,0.421-0.652,0.216-0.99l-3.146-5.316c-0.193-0.338-0.618-0.465-0.979-0.314l-4.055,1.771c-0.721-0.559-1.51-1.033-2.357-1.4l-0.437-4.222C27.874,5.293,27.544,5,27.146,5h-6.293c-0.397,0-0.729,0.293-0.772,0.677L19.642,9.9c-0.853,0.369-1.645,0.848-2.37,1.41l-4.04-1.783c-0.359-0.15-0.784-0.023-0.979,0.314l-3.146,5.316c-0.204,0.338-0.11,0.757,0.217,0.99l3.754,2.586C13.031,19.15,13,19.571,13,20c0,0.418,0.028,0.827,0.073,1.232l-3.749,2.619c-0.327,0.234-0.421,0.652-0.217,0.99l3.146,5.316c0.195,0.338,0.62,0.466,0.979,0.314l4.059-1.769c0.718,0.554,1.501,1.026,2.344,1.392l0.446,4.229C20.124,34.709,20.456,35,20.854,35h6.293c0.397,0,0.728-0.291,0.771-0.676l0.427-4.219c0.859-0.369,1.655-0.852,2.385-1.416l4.037,1.783c0.361,0.151,0.786,0.023,0.979-0.314l3.146-5.316c0.205-0.338,0.11-0.756-0.216-0.99L34.928,21.229z M29,20c0,2.762-2.238,5-5,5c-2.761,0-5-2.238-5-5s2.239-5,5-5C26.762,15,29,17.238,29,20z"/></svg>