<svg xmlns="http://www.w3.org/2000/svg" viewBox="0 0 48 48" width="100px" height="100px"><path fill="#bbdefb" d="M6,10c0-2.2,1.8-4,4-4h28c2.2,0,4,1.8,4,4v28c0,2.2-1.8,4-4,4H10c-2.2,0-4-1.8-4-4V10z"/><path fill="#e3f2fd" d="M18 10H20V36H18zM26 10H28V36H26zM34 10H36V36H34z"/><path fill="#e3f2fd" d="M24 16H26V42H24z" transform="rotate(-90 25 29)"/><path fill="#e3f2fd" d="M24 8H26V34H24z" transform="rotate(-90 25 21)"/><path fill="#e3f2fd" d="M24 0H26V26H24z" transform="rotate(-90 25 13)"/><path fill="#1e88e5" d="M11.895,37.447l-1.789-0.895l8-16c0.144-0.288,0.417-0.488,0.734-0.54 c0.323-0.049,0.642,0.053,0.867,0.28l7.019,7.019l7.38-14.759l1.789,0.895l-8,16c-0.144,0.288-0.417,0.488-0.734,0.54 c-0.322,0.05-0.641-0.053-0.867-0.28l-7.019-7.019L11.895,37.447z"/><path fill="#0d47a1" d="M19 19A2 2 0 1 0 19 23 2 2 0 1 0 19 19zM27 27A2 2 0 1 0 27 31 2 2 0 1 0 27 27zM35 11A2 2 0 1 0 35 15 2 2 0 1 0 35 11z"/><path fill="#1565c0" d="M38 38L10 38 10 10 12 10 12 36 38 36z"/></svg>