<svg xmlns="http://www.w3.org/2000/svg" width="50" height="50" viewBox="0 0 48 48"><path fill="#3F51B5" d="M8 35A3 3 0 1 0 8 41 3 3 0 1 0 8 35zM16 37A3 3 0 1 0 16 43 3 3 0 1 0 16 37zM24 30A3 3 0 1 0 24 36 3 3 0 1 0 24 30zM32 32A3 3 0 1 0 32 38 3 3 0 1 0 32 32zM40 28A3 3 0 1 0 40 34 3 3 0 1 0 40 28z"/><path fill="#3F51B5" d="M39.1 29.2L31.8 32.9 23.5 30.8 15.5 37.8 8.5 36.1 7.5 39.9 16.5 42.2 24.5 35.2 32.2 37.1 40.9 32.8z"/><g><path fill="#00BCD4" d="M8 17A3 3 0 1 0 8 23 3 3 0 1 0 8 17zM16 19A3 3 0 1 0 16 25 3 3 0 1 0 16 19zM24 12A3 3 0 1 0 24 18 3 3 0 1 0 24 12zM32 17A3 3 0 1 0 32 23 3 3 0 1 0 32 17zM40 5A3 3 0 1 0 40 11 3 3 0 1 0 40 5z"/><path fill="#00BCD4" d="M38.3,6.9c-2.1,3.2-5.3,8-6.9,10.4c-1.2-0.7-3.1-2-6.4-4l-1.3-0.8l-8.3,7.3l-7-1.7l-1,3.9l9,2.3l7.7-6.7c2.6,1.6,5.8,3.6,6.5,4.1l0.5,0.5l0.9-0.1c1.1-0.1,1.1-0.1,9.5-12.9L38.3,6.9z"/></g></svg>