<svg xmlns="http://www.w3.org/2000/svg" viewBox="0 0 48 48" width="300px" height="300px"><path fill="#7CB342" d="M39,39H9c-2.209,0-4-1.791-4-4V13c0-2.209,1.791-4,4-4h30c2.209,0,4,1.791,4,4v22C43,37.209,41.209,39,39,39"/><path fill="#FFF" d="M20.706 17.333C20.706 15.491 22.179 14 24 14c1.82 0 3.294 1.491 3.294 3.333C27.294 19.177 24 24 24 24S20.706 19.177 20.706 17.333M27.294 30.668C27.294 32.509 25.82 34 24 34c-1.821 0-3.294-1.491-3.294-3.332C20.706 28.823 24 24 24 24S27.294 28.823 27.294 30.668"/><path fill="#FFF" d="M16.646 23.554c-1.575-.922-2.113-2.965-1.205-4.554.91-1.597 2.925-2.145 4.5-1.224C21.519 18.701 24 24 24 24S18.224 24.475 16.646 23.554M31.354 24.446c1.575.921 2.113 2.962 1.205 4.554-.909 1.597-2.924 2.141-4.5 1.224C26.48 29.299 24 24 24 24S29.776 23.525 31.354 24.446"/><path fill="#FFF" d="M31.354 23.554c1.575-.922 2.113-2.965 1.205-4.554-.909-1.597-2.924-2.145-4.5-1.224C26.48 18.701 24 24 24 24S29.776 24.475 31.354 23.554M16.646 24.446c-1.575.921-2.113 2.962-1.205 4.554.91 1.597 2.925 2.141 4.5 1.224C21.519 29.299 24 24 24 24S18.224 23.525 16.646 24.446"/><path fill="#FFC107" d="M27,24c0,1.658-1.342,3-3,3s-3-1.342-3-3s1.342-3,3-3S27,22.342,27,24"/></svg>