<svg xmlns="http://www.w3.org/2000/svg" width="50" height="50" viewBox="0 0 48 48"><path fill="#64B5F6" d="M14 12c0 1.104-.896 2-2 2H7c-1.104 0-2-.896-2-2V7c0-1.104.896-2 2-2h5c1.104 0 2 .896 2 2V12zM26 12c0 1.104-.896 2-2 2h-5c-1.104 0-2-.896-2-2V7c0-1.104.896-2 2-2h5c1.104 0 2 .896 2 2V12zM38 12c0 1.104-.896 2-2 2h-5c-1.104 0-2-.896-2-2V7c0-1.104.896-2 2-2h5c1.104 0 2 .896 2 2V12zM14 24c0 1.104-.896 2-2 2H7c-1.104 0-2-.896-2-2v-5c0-1.104.896-2 2-2h5c1.104 0 2 .896 2 2V24zM26 24c0 1.104-.896 2-2 2h-5c-1.104 0-2-.896-2-2v-5c0-1.104.896-2 2-2h5c1.104 0 2 .896 2 2V24zM38 24c0 1.104-.896 2-2 2h-5c-1.104 0-2-.896-2-2v-5c0-1.104.896-2 2-2h5c1.104 0 2 .896 2 2V24zM14 36c0 1.104-.896 2-2 2H7c-1.104 0-2-.896-2-2v-5c0-1.104.896-2 2-2h5c1.104 0 2 .896 2 2V36zM26 36c0 1.104-.896 2-2 2h-5c-1.104 0-2-.896-2-2v-5c0-1.104.896-2 2-2h5c1.104 0 2 .896 2 2V36zM38 36c0 1.104-.896 2-2 2h-5c-1.104 0-2-.896-2-2v-5c0-1.104.896-2 2-2h5c1.104 0 2 .896 2 2V36z"/><path fill="#9C27B0" d="M43,33c0,5.523-4.477,10-10,10s-10-4.477-10-10s4.477-10,10-10S43,27.477,43,33"/><g><path fill="#F3E5F5" d="M29 27H31V39H29zM35 27H37V39H35z"/><path fill="#F3E5F5" d="M27 35H39V37H27zM27 29H39V31H27z"/></g></svg>