<svg xmlns="http://www.w3.org/2000/svg" width="500" height="500" fill="#000" viewBox="0 0 24 24"><path d="M 6.2949219 1.5019531 L 1.6992188 5.3671875 L 2.9882812 6.8964844 L 7.5839844 3.03125 L 6.2949219 1.5019531 z M 17.705078 1.5019531 L 16.417969 3.03125 L 21.013672 6.8964844 L 22.300781 5.3671875 L 17.705078 1.5019531 z M 12 4 C 7.029 4 3 8.029 3 13 C 3 17.971 7.029 22 12 22 C 16.971 22 21 17.971 21 13 C 21 8.029 16.971 4 12 4 z M 11 9 L 13 9 L 13 12 L 16 12 L 16 14 L 13 14 L 13 17 L 11 17 L 11 14 L 8 14 L 8 12 L 11 12 L 11 9 z"/></svg>