<svg xmlns="http://www.w3.org/2000/svg" width="500" height="500" fill="#000" viewBox="0 0 26 26"><path d="M 6.5 3.03125 C 4.972656 2.902344 3.21875 3.53125 1.875 4.875 C -0.273438 7.023438 -0.59375 10.15625 1.125 11.875 C 2.277344 13.027344 4.050781 13.25 5.75 12.625 C 5.273438 13.648438 5 14.796875 5 16 C 5 20.417969 8.582031 24 13 24 C 17.417969 24 21 20.417969 21 16 C 21 14.796875 20.726563 13.648438 20.25 12.625 C 21.949219 13.25 23.722656 13.027344 24.875 11.875 C 26.59375 10.15625 26.273438 7.023438 24.125 4.875 C 21.976563 2.726563 18.84375 2.375 17.125 4.09375 C 15.972656 5.246094 15.75 7.050781 16.375 8.75 C 15.351563 8.273438 14.203125 8 13 8 C 11.796875 8 10.648438 8.273438 9.625 8.75 C 10.25 7.050781 10.027344 5.277344 8.875 4.125 C 8.230469 3.480469 7.414063 3.109375 6.5 3.03125 Z"/></svg>