<svg xmlns="http://www.w3.org/2000/svg" width="50" height="50" viewBox="0 0 48 48"><path fill="#ffca28" d="M44,24c0,11-9,20-20,20S4,35,4,24S13,4,24,4S44,13,44,24z"/><path fill="#6d4c41" d="M21,23c0,2.2-1.8,4-4,4s-4-1.8-4-4s1.8-4,4-4S21,20.8,21,23z"/><path fill="#fff" d="M20,24.5c0,0.8-0.7,1.5-1.5,1.5S17,25.3,17,24.5s0.7-1.5,1.5-1.5S20,23.7,20,24.5z"/><path fill="#6d4c41" d="M35,23c0,2.2-1.8,4-4,4s-4-1.8-4-4s1.8-4,4-4S35,20.8,35,23z"/><path fill="#fff" d="M31,21.5c0,0.8-0.7,1.5-1.5,1.5S28,22.3,28,21.5s0.7-1.5,1.5-1.5S31,20.7,31,21.5z"/><path fill="#b76c09" d="M24,37c-2.8,0-5-2.2-5-5h2c0,1.7,1.3,3,3,3s3-1.3,3-3h2C29,34.8,26.8,37,24,37z"/><path fill="#ff3d00" d="M21,38c0,1.7,1.3,3,3,3s3-1.3,3-3v-6c0,0-0.1,3-3,3c-2.9,0-3-3-3-3V38z"/><path fill="#dd2c00" d="M24,37c1.1,0,2.2-0.4,3-1v-4c0,0,0,0.1,0,0.3c0,0.3-0.1,0.7-0.3,1C26.4,34.1,25.6,35,24,35 c-1.3,0-2-0.6-2.4-1.3c-0.3-0.4-0.5-1-0.5-1.5c0-0.1,0-0.2,0-0.2v4C21.8,36.6,22.9,37,24,37z"/></svg>