<svg xmlns="http://www.w3.org/2000/svg" width="500" height="500" viewBox="0 0 80 80"><path fill="#839cb2" d="M40,73.5c-14.061,0-25.5-11.439-25.5-25.5c0-3.585,0.748-7.077,2.223-10.38l0.426-0.952 l-1.009,0.264c-1.527,0.401-3.037,0.604-4.485,0.604c-3.271,0-6.019-1.034-7.942-2.99c-5.174-5.26-3.915-15.099,2.806-21.932 C10.34,8.729,15.192,6.5,19.831,6.5c3.29,0,6.139,1.128,8.237,3.262c3.221,3.274,4.064,8.428,2.255,13.786l-0.339,1.003l0.99-0.375 C33.905,23.063,36.942,22.5,40,22.5c3.052,0,6.083,0.562,9.011,1.67l0.988,0.374l-0.338-1.001 c-1.804-5.351-0.955-10.502,2.271-13.781C54.03,7.628,56.879,6.5,60.169,6.5c4.639,0,9.491,2.229,13.313,6.114 c6.721,6.833,7.979,16.672,2.806,21.932c-1.919,1.951-4.865,3.026-8.295,3.026l0,0c-1.342,0-2.71-0.163-4.067-0.483l-0.976-0.23 l0.402,0.917C64.777,41.026,65.5,44.465,65.5,48C65.5,62.061,54.061,73.5,40,73.5z"/><path fill="#66798f" d="M60.169,7c4.505,0,9.228,2.174,12.957,5.965c6.531,6.64,7.79,16.164,2.806,21.23 c-1.825,1.855-4.644,2.877-7.939,2.877c-1.303,0-2.633-0.158-3.953-0.469l-1.95-0.46l0.805,1.835C64.292,41.164,65,44.536,65,48 c0,13.785-11.215,25-25,25S15,61.785,15,48c0-3.515,0.733-6.939,2.18-10.176l0.851-1.904l-2.017,0.529 c-1.486,0.39-2.953,0.587-4.358,0.587c-2.186,0-5.277-0.493-7.586-2.84c-4.984-5.067-3.725-14.59,2.806-21.23 C10.604,9.174,15.326,7,19.831,7c3.153,0,5.879,1.076,7.881,3.112c3.086,3.137,3.885,8.1,2.137,13.275l-0.677,2.005l1.979-0.75 C34.026,23.553,37.003,23,40,23c2.991,0,5.963,0.551,8.834,1.637l1.977,0.748l-0.675-2.003c-1.743-5.168-0.938-10.129,2.153-13.27 C54.29,8.076,57.016,7,60.169,7 M60.169,6c-3.284,0-6.33,1.109-8.594,3.411c-3.492,3.55-4.175,8.989-2.387,14.291 C46.327,22.62,43.239,22,40,22c-3.245,0-6.339,0.621-9.203,1.708c1.791-5.304,1.121-10.746-2.372-14.297 C26.161,7.11,23.115,6,19.831,6c-4.586,0-9.636,2.163-13.67,6.264c-6.922,7.037-8.232,17.117-2.806,22.633 c2.15,2.186,5.125,3.139,8.299,3.139c1.514,0,3.074-0.217,4.612-0.62C14.821,40.652,14,44.227,14,48c0,14.359,11.641,26,26,26 s26-11.641,26-26c0-3.71-0.789-7.231-2.189-10.424c1.372,0.324,2.789,0.496,4.182,0.496c3.303,0,6.479-0.967,8.652-3.176 c5.426-5.516,4.116-15.596-2.806-22.633C69.805,8.163,64.754,6,60.169,6L60.169,6z"/><path fill="#fff9de" d="M56,53c-0.521,0-1.015,0.107-1.471,0.287C56.641,48.817,58,42.885,58,40c0-4.971-4.029-9-9-9	s-9,4.029-9,9c0-4.971-4.029-9-9-9s-9,4.029-9,9c0,2.885,1.359,8.817,3.471,13.287C25.015,53.107,24.521,53,24,53	c-2.209,0-4,1.791-4,4c-0.064,6.148,6.206,16,20,16s19.771-9.777,20-16C60,54.791,58.209,53,56,53z"/><path fill="#bdccd4" d="M40,62.5c-3.032,0-5.5-1.57-5.5-3.5s2.468-3.5,5.5-3.5s5.5,1.57,5.5,3.5S43.032,62.5,40,62.5z"/><path fill="#36404d" d="M40,56c2.71,0,5,1.374,5,3s-2.29,3-5,3s-5-1.374-5-3S37.29,56,40,56 M40,55c-3.314,0-6,1.791-6,4 s2.686,4,6,4s6-1.791,6-4S43.314,55,40,55L40,55z"/><path fill="#4b6477" d="M40,62.5c-3.032,0-5.5-1.57-5.5-3.5s2.468-3.5,5.5-3.5s5.5,1.57,5.5,3.5S43.032,62.5,40,62.5z"/><path fill="#36404d" d="M40,56c2.71,0,5,1.374,5,3s-2.29,3-5,3s-5-1.374-5-3S37.29,56,40,56 M40,55c-3.314,0-6,1.791-6,4 s2.686,4,6,4s6-1.791,6-4S43.314,55,40,55L40,55z"/><g><path fill="#bdccd4" d="M40 57A2 1 0 1 0 40 59A2 1 0 1 0 40 57Z"/></g><g><path fill="#4b6477" d="M45,52.5c-1.183,0-2.5-2.259-2.5-5.5s1.317-5.5,2.5-5.5s2.5,2.259,2.5,5.5S46.183,52.5,45,52.5z"/><path fill="#36404d" d="M45,42c0.815,0,2,1.948,2,5s-1.185,5-2,5s-2-1.948-2-5S44.185,42,45,42 M45,41c-1.657,0-3,2.686-3,6 s1.343,6,3,6s3-2.686,3-6S46.657,41,45,41L45,41z"/></g><g><path fill="#4b6477" d="M35,52.5c-1.183,0-2.5-2.259-2.5-5.5s1.317-5.5,2.5-5.5s2.5,2.259,2.5,5.5S36.183,52.5,35,52.5z"/><path fill="#36404d" d="M35,42c0.815,0,2,1.948,2,5s-1.185,5-2,5s-2-1.948-2-5S34.185,42,35,42 M35,41c-1.657,0-3,2.686-3,6 s1.343,6,3,6s3-2.686,3-6S36.657,41,35,41L35,41z"/></g></svg>