<svg xmlns="http://www.w3.org/2000/svg" width="500" height="500" fill="#000" viewBox="0 0 24 24"><path d="M 6.2597656 1.9140625 C 6.0048906 1.8919375 5.7407969 1.9665313 5.5292969 2.1445312 L 2.4648438 4.7226562 C 2.0428437 5.0776563 1.98775 5.7098125 2.34375 6.1328125 C 2.69875 6.5548125 3.3309062 6.6099062 3.7539062 6.2539062 L 6.8183594 3.6757812 C 7.2403594 3.3207813 7.2954531 2.6895781 6.9394531 2.2675781 C 6.7614531 2.0560781 6.5146406 1.9361875 6.2597656 1.9140625 z M 17.742188 1.9140625 C 17.487313 1.9360625 17.2405 2.054125 17.0625 2.265625 C 16.7065 2.688625 16.760594 3.3207813 17.183594 3.6757812 L 20.248047 6.2539062 C 20.671047 6.6089063 21.302203 6.5538594 21.658203 6.1308594 C 22.013203 5.7078594 21.958156 5.0786562 21.535156 4.7226562 L 18.470703 2.1445312 C 18.259203 1.9670312 17.997062 1.8920625 17.742188 1.9140625 z M 12 4 C 7.029 4 3 8.029 3 13 C 3 17.971 7.029 22 12 22 C 16.971 22 21 17.971 21 13 C 21 8.029 16.971 4 12 4 z M 12 9 C 12.552 9 13 9.448 13 10 L 13 12 L 15 12 C 15.552 12 16 12.448 16 13 C 16 13.552 15.552 14 15 14 L 13 14 L 13 16 C 13 16.552 12.552 17 12 17 C 11.448 17 11 16.552 11 16 L 11 14 L 9 14 C 8.448 14 8 13.552 8 13 C 8 12.448 8.448 12 9 12 L 11 12 L 11 10 C 11 9.448 11.448 9 12 9 z"/></svg>