<svg xmlns="http://www.w3.org/2000/svg" width="300" height="300" fill="#000" viewBox="0 0 24 24"><path d="M21.179,4.821c-1.997-1.997-4.815-2.416-6.294-0.937c-0.614,0.614-0.883,1.462-0.866,2.383C13.373,6.099,12.699,6,12,6 s-1.373,0.099-2.019,0.267c0.017-0.92-0.252-1.769-0.866-2.383c-1.479-1.479-4.297-1.06-6.294,0.937s-2.416,4.815-0.937,6.294 c0.614,0.614,1.462,0.883,2.383,0.866C4.099,12.627,4,13.301,4,14c0,4.418,3.582,8,8,8s8-3.582,8-8c0-0.699-0.099-1.373-0.267-2.019 c0.92,0.017,1.769-0.252,2.383-0.866C23.595,9.636,23.175,6.818,21.179,4.821z"/></svg>