<svg xmlns="http://www.w3.org/2000/svg" width="100" height="100" viewBox="0 0 16 16"><path fill="#4e7ab5" d="M7.5,12.9c-0.3,0-0.5-0.2-0.5-0.5V1.5C7,1.2,7.2,1,7.5,1S8,1.2,8,1.5v10.9C8,12.7,7.8,12.9,7.5,12.9z"/><path fill="#4e7ab5" d="M.5 11c-.2 0-.4-.1-.5-.3-.1-.2 0-.5.2-.7l3.8-1.9V4.5C4.1 4.2 4.3 4 4.6 4h5.9C10.8 4 11 4.2 11 4.5V8h3.5C14.8 8 15 8.2 15 8.5S14.8 9 14.5 9h-4C10.2 9 10 8.8 10 8.5V5H5.1v3.5c0 .2-.1.4-.3.4l-4.1 2C.6 11 .6 11 .5 11zM10.5 16c-.3 0-.5-.2-.5-.5V13H5v2.5C5 15.8 4.8 16 4.5 16S4 15.8 4 15.5v-3C4 12.2 4.2 12 4.5 12h6c.3 0 .5.2.5.5v3C11 15.8 10.8 16 10.5 16z"/></svg>