<svg xmlns="http://www.w3.org/2000/svg" width="300" height="300" fill="#000" viewBox="0 0 32 32"><path d="M 6 3 L 6 4 L 6 27.652344 L 9.3417969 29 L 12.492188 27.912109 C 13.381982 27.654336 14 26.829159 14 25.904297 L 14 20.945312 C 15.530547 23.375346 16.808885 25.516566 17.492188 26.777344 C 17.759286 27.269961 18.15567 27.654989 18.574219 27.855469 C 18.992768 28.055948 19.368796 28.088404 19.636719 28.119141 C 22.062045 28.397808 26.673828 28.748047 26.673828 28.748047 L 28.935547 28.919922 L 27.537109 27.132812 C 27.537109 27.132812 25.859322 24.988877 24.185547 22.679688 C 23.34866 21.525092 22.512525 20.328588 21.900391 19.359375 C 21.594324 18.874769 21.343599 18.443529 21.183594 18.125 C 21.125724 18.009797 21.101738 17.922653 21.074219 17.837891 C 21.10474 17.785464 21.122387 17.740837 21.207031 17.648438 C 21.457224 17.375324 21.859845 16.981782 22.277344 16.466797 C 23.112342 15.436826 24 13.855781 24 11.625 C 24 7.6726437 21.84561 4.7610901 18.292969 3.6699219 C 16.207155 3.0295996 13.628767 3 11 3 L 6 3 z M 8 5 L 11 5 C 13.601233 5 16.072845 5.0784 17.707031 5.5800781 C 20.59439 6.4669099 22 8.3273563 22 11.625 C 22 13.350219 21.387658 14.386752 20.722656 15.207031 C 20.390155 15.617171 20.042776 15.955957 19.730469 16.296875 C 19.418161 16.637793 19 16.96684 19 17.75 C 19 18.330966 19.187349 18.607104 19.396484 19.023438 C 19.60562 19.439771 19.882239 19.908434 20.208984 20.425781 C 20.862475 21.460475 21.71384 22.678033 22.564453 23.851562 C 23.582155 25.255615 23.945671 25.702995 24.597656 26.552734 C 23.063894 26.429347 21.445276 26.312629 19.863281 26.130859 C 19.608204 26.101599 19.484904 26.072551 19.439453 26.050781 C 19.394002 26.029013 19.361901 26.030602 19.25 25.824219 C 18.420105 24.292961 17.1038 21.978786 15.029297 18.775391 C 14.782656 18.394011 14.233748 18 13.595703 18 C 12.720646 18 12 18.726667 12 19.625 L 12 25.904297 C 12 25.949437 11.977747 25.978004 11.935547 25.990234 L 11.912109 25.998047 L 9.3964844 26.865234 L 8 26.302734 L 8 5 z M 14.001953 8 C 12.773848 8 12 9.1261836 12 10.25 L 12 12.75 C 12 13.873816 12.773625 15 14.001953 15 L 15.003906 15 C 16.650593 15 18.006885 13.643153 18.003906 11.996094 L 18.003906 10.996094 C 18.000927 9.3531271 16.647251 8 15.003906 8 L 14.001953 8 z M 14.001953 10 L 15.003906 10 C 15.566562 10 16.002885 10.435013 16.003906 10.998047 L 16.003906 11.998047 C 16.004906 12.562987 15.569219 13 15.003906 13 L 14.001953 13 C 14.126282 13 14 13.006184 14 12.75 L 14 10.25 C 14 9.9938164 14.124059 10 14.001953 10 z"/></svg>