<svg xmlns="http://www.w3.org/2000/svg" width="100" height="100" viewBox="0 0 48 48"><path fill="#fbe9e7" d="M37.1,21.3L26,26c0,0,2.7,4.3,7.1,2.2C36.2,26.7,37.1,21.3,37.1,21.3z"/><path d="M33.2,24.7c0,1.1-0.9,2-2,2s-2-0.9-2-2s0.9-2,2-2C32.3,22.7,33.2,23.6,33.2,24.7z"/><path fill="#f44336" d="M37.1,21.3L26,26c0,0,0.2-5.3,3.2-6.3S37.1,21.3,37.1,21.3z"/><path fill="#fbe9e7" d="M11,21.5l11.1,4.7c0,0-2.7,4.3-7.1,2.2C11.8,26.9,11,21.5,11,21.5z"/><path d="M18.9,24.9c0,1.1-0.9,2-2,2s-2-0.9-2-2s0.9-2,2-2S18.9,23.8,18.9,24.9z"/><path fill="#f44336" d="M11,21.5l11.1,4.7c0,0-0.2-5.3-3.2-6.3S11,21.5,11,21.5z"/><path fill="#d32f2f" d="M24 27.1L9.6 20.9 10.4 19.1 24 24.9 37.6 19.1 38.4 20.9z"/><path fill="#fff" d="M24 35l3 5 2-5 3 3 2-5L24 35zM24 35l-3 5-2-5-3 3-2-5L24 35z"/><path fill="#d32f2f" d="M23.9,36c-6.6,0-11.2-2.8-11.5-3l1.1-1.7c0.4,0.2,9.7,5.9,21,0l0.9,1.8C31.3,35.3,27.3,36,23.9,36z"/><path fill="#f44336" d="M44,25c0,11-9,20-20,20S4,36,4,25S13,5,24,5S44,14,44,25z"/><path fill="#fff" d="M37.1,21.5L26,26.2c0,0,2.7,4.3,7.1,2.2C36.2,26.9,37.1,21.5,37.1,21.5z"/><path d="M33.2,24.9c0,1.1-0.9,2-2,2s-2-0.9-2-2s0.9-2,2-2C32.3,22.9,33.2,23.8,33.2,24.9z"/><path fill="#f44336" d="M37.1,21.3L26,26c0,0,0.2-5.3,3.2-6.3S37.1,21.3,37.1,21.3z"/><path fill="#fff" d="M11,21.5l11.1,4.7c0,0-2.7,4.3-7.1,2.2C11.8,26.9,11,21.5,11,21.5z"/><path d="M18.9,24.9c0,1.1-0.9,2-2,2s-2-0.9-2-2s0.9-2,2-2S18.9,23.8,18.9,24.9z"/><path fill="#f44336" d="M11,21.5l11.1,4.7c0,0-0.2-5.3-3.2-6.3S11,21.5,11,21.5z"/><path fill="#b71c1c" d="M34 8c0 0 4.7.1 6.7-6 .7 1.4 2.8 9.2-.3 13.1C37.4 19 30.5 9 34 8zM14 8C14 8 9.3 8 7.3 2c-.7 1.4-2.8 9.2.3 13.1C10.6 19 17.5 9 14 8z"/><path fill="#d32f2f" d="M24 27.1L9.6 20.9 10.4 19.1 24 24.9 37.6 19.1 38.4 20.9z"/><path fill="#fff" d="M22 35l-2 5-2-5H22zM30 35l-2 5-2-5H30z"/><path fill="#d32f2f" d="M18 33H30V35H18z"/></svg>