<svg xmlns="http://www.w3.org/2000/svg" viewBox="0 0 48 48" width="300px" height="300px"><path fill="#CFD8DC" d="M40,16H12c-2.209,0-4,1.791-4,4v17c0,2.209,1.791,4,4,4h28c2.209,0,4-1.791,4-4V20C44,17.791,42.209,16,40,16z"/><path fill="#2196F3" d="M25 19L16 27 16 11z"/><path fill="#2196F3" d="M17,16.001c0,0-5,0.001-6,0s-1-0.997-1-0.997V7H4v9.001C4,19.31,6.691,22,10,22h7V16.001z"/><path fill="#78909C" d="M42.912,17.273L26,29.53l-5.365-3.974l-1.528,1.357L26,32l17.873-12.953C43.707,18.371,43.373,17.765,42.912,17.273z"/></svg>