<svg fill="#000000" xmlns="http://www.w3.org/2000/svg" viewBox="0 0 16 16" width="50px" height="50px"><path d="M 4.5 2 C 3.6774686 2 3 2.6774686 3 3.5 L 3 8 L 4 8 L 4 3.5 C 4 3.2185314 4.2185314 3 4.5 3 L 9 3 L 9 6 L 12 6 L 12 8 L 13 8 L 13 5.2929688 L 9.7070312 2 L 4.5 2 z M 10 3.7070312 L 11.292969 5 L 10 5 L 10 3.7070312 z M 3 9 L 3 14 L 4 14 L 4 12 L 5 12 L 5 11 L 4 11 L 4 10 L 6 10 L 6 9 L 3 9 z M 7 9 L 7 14 L 8.5 14 C 9.3225314 14 10 13.322531 10 12.5 C 10 12.11163 9.8300094 11.767646 9.5839844 11.5 C 9.8300094 11.232354 10 10.88837 10 10.5 C 10 9.6774686 9.3225314 9 8.5 9 L 7 9 z M 11 9 L 12 11.5 L 11 14 L 12 14 L 12.5 12.75 L 13 14 L 14 14 L 13 11.5 L 14 9 L 13 9 L 12.5 10.25 L 12 9 L 11 9 z M 8 10 L 8.5 10 C 8.7814686 10 9 10.218531 9 10.5 C 9 10.781469 8.7814686 11 8.5 11 L 8 11 L 8 10 z M 8 12 L 8.5 12 C 8.7814686 12 9 12.218531 9 12.5 C 9 12.781469 8.7814686 13 8.5 13 L 8 13 L 8 12 z"/></svg>