<svg xmlns="http://www.w3.org/2000/svg" width="300" height="300" fill="#000" viewBox="0 0 32 32"><path d="M 16 3 C 14.894531 3 14 3.894531 14 5 C 14 5.714844 14.382813 6.375 15 6.730469 L 15 8.273438 C 14.699219 8.445313 14.449219 8.699219 14.273438 9 L 11.730469 9 C 11.371094 8.382813 10.714844 8 10 8 C 8.894531 8 8 8.894531 8 10 C 8 10.714844 8.382813 11.375 9 11.730469 L 9 14.269531 C 8.382813 14.625 8 15.285156 8 16 C 8 16.175781 8.023438 16.347656 8.070313 16.515625 L 6.515625 18.066406 C 6.347656 18.023438 6.175781 18 6 18 C 4.894531 18 4 18.894531 4 20 C 4 21.105469 4.894531 22 6 22 C 7.105469 22 8 21.105469 8 20 C 8 19.824219 7.976563 19.652344 7.929688 19.484375 L 9.484375 17.933594 C 9.652344 17.976563 9.824219 18 10 18 C 11.105469 18 12 17.105469 12 16 C 12 15.285156 11.617188 14.628906 11 14.269531 L 11 11.730469 C 11.304688 11.554688 11.554688 11.300781 11.730469 11 L 14.269531 11 C 14.445313 11.304688 14.699219 11.554688 15 11.730469 L 15 15.269531 C 14.382813 15.628906 14 16.285156 14 17 C 14 17.714844 14.382813 18.375 15 18.730469 L 15 22.269531 C 14.699219 22.445313 14.445313 22.695313 14.269531 23 L 12.730469 23 C 12.375 22.382813 11.714844 22 11 22 C 9.894531 22 9 22.894531 9 24 C 9 24.714844 9.382813 25.375 10 25.730469 L 10 29 L 12 29 L 12 25.730469 C 12.300781 25.554688 12.550781 25.300781 12.726563 25 L 14.269531 25 C 14.625 25.617188 15.285156 26 16 26 C 16.714844 26 17.371094 25.617188 17.730469 25 L 19.269531 25 C 19.445313 25.300781 19.695313 25.554688 20 25.730469 L 20 29 L 22 29 L 22 25.730469 C 22.617188 25.375 23 24.714844 23 24 C 23 22.894531 22.105469 22 21 22 C 20.285156 22 19.628906 22.382813 19.269531 23 L 17.730469 23 C 17.554688 22.699219 17.304688 22.445313 17 22.269531 L 17 18.730469 C 17.617188 18.371094 18 17.714844 18 17 C 18 16.285156 17.617188 15.625 17 15.269531 L 17 11.730469 C 17.300781 11.554688 17.550781 11.300781 17.726563 11 L 20.269531 11 C 20.445313 11.300781 20.695313 11.554688 21 11.730469 L 21 14.269531 C 20.382813 14.625 20 15.285156 20 16 C 20 17.105469 20.894531 18 22 18 C 22.714844 18 23.371094 17.617188 23.730469 17 L 25.269531 17 C 25.625 17.617188 26.285156 18 27 18 C 28.105469 18 29 17.105469 29 16 C 29 14.894531 28.105469 14 27 14 C 26.285156 14 25.628906 14.382813 25.269531 15 L 23.730469 15 C 23.554688 14.699219 23.304688 14.445313 23 14.269531 L 23 11.730469 C 23.617188 11.375 24 10.714844 24 10 C 24 8.894531 23.105469 8 22 8 C 21.285156 8 20.628906 8.382813 20.269531 9 L 17.730469 9 C 17.554688 8.695313 17.300781 8.445313 17 8.269531 L 17 6.726563 C 17.617188 6.371094 18 5.714844 18 5 C 18 3.894531 17.105469 3 16 3 Z"/></svg>