<svg xmlns="http://www.w3.org/2000/svg" width="500" height="500" viewBox="0 0 48 48"><path fill="#ffca28" d="M43.9,26C42.888,36.07,34.325,44,24,44C13.688,44,5.133,36.09,4.104,26.037 C4.035,25.367,13,15.14,24,15.14S43.966,25.342,43.9,26z"/><path fill="#424242" d="M42.963,17.706L41,2l-4.706,6.275C32.894,5.608,28.63,4,24,4s-8.894,1.608-12.294,4.275L7,2 L5.037,17.706C4.374,19.689,4,21.801,4,24c0,0.675,0.036,1.342,0.102,2L19,28l5,2l5-2l14.898-2C43.964,25.342,44,24.675,44,24 C44,21.801,43.626,19.689,42.963,17.706z"/><path fill="#fafafa" d="M37,18l-11,4c0,0,2.7,4.5,7.1,2.4C36.2,22.9,37,18,37,18z"/><path fill="#fafafa" d="M11,18l11,4c0,0-2.7,4.5-7.1,2.4C11.8,22.9,11,18,11,18z"/><path fill="none" stroke="#b76c09" stroke-miterlimit="10" stroke-width="2" d="M18,36.999C19.671,35.744,21.749,35,24,35 c2.252,0,4.329,0.744,6.001,2"/></svg>