<svg xmlns="http://www.w3.org/2000/svg" width="300" height="300" viewBox="0 0 48 48"><path fill="#ce93d8" d="M10.828 39c3.52 3.095 8.114 5 13.172 5s9.653-1.905 13.172-5H10.828zM37.172 9C33.653 5.905 29.058 4 24 4s-9.653 1.905-13.172 5H37.172z"/><path fill="#8e24aa" d="M41.852,33C43.221,30.293,44,27.241,44,24c0-3.241-0.779-6.293-2.148-9H6.148C4.779,17.707,4,20.759,4,24c0,3.241,0.779,6.293,2.148,9H41.852z"/><path fill="#ba68c8" d="M6.157 33c1.157 2.289 2.738 4.321 4.645 6h26.396c1.907-1.679 3.488-3.711 4.645-6H6.157zM6.157 15h35.686c-1.157-2.289-2.738-4.321-4.645-6H10.802C8.895 10.679 7.314 12.711 6.157 15z"/><path fill="#fff" d="M11.637 29.332V18.668h2.82c.613 0 1.176.102 1.68.305.508.203.938.496 1.297.879s.637.852.836 1.414c.195.559.297 1.195.297 1.914v1.656c0 .719-.098 1.352-.293 1.91s-.477 1.027-.836 1.41c-.363.383-.797.676-1.305.875s-1.074.301-1.699.301H11.637zM13.789 20.465v7.082h.645c.383 0 .699-.051.953-.152.254-.098.457-.258.609-.48.148-.219.258-.5.32-.84.063-.344.094-.754.094-1.238v-1.672c0-.484-.031-.902-.094-1.242-.063-.344-.172-.621-.32-.836-.152-.215-.355-.371-.605-.473s-.563-.148-.934-.148H13.789zM27.941 29.332h-2.152l-3.148-6.992v6.992h-2.156V18.668h2.156l3.156 7.004v-7.004h2.145V29.332zM34.551 26.535c0-.188-.02-.352-.055-.5-.031-.145-.105-.281-.215-.414-.109-.129-.266-.254-.469-.375-.203-.125-.473-.254-.809-.391-.398-.148-.781-.324-1.145-.52-.367-.195-.684-.426-.961-.691s-.496-.574-.66-.922c-.164-.352-.246-.758-.246-1.223 0-.441.086-.852.25-1.219.168-.367.398-.684.699-.941s.656-.457 1.07-.602.867-.219 1.367-.219c.512 0 .973.082 1.387.246s.762.391 1.055.684c.289.289.516.637.668 1.039.156.402.234.848.234 1.328h-2.145c0-.223-.023-.43-.07-.617s-.117-.352-.219-.484c-.102-.133-.23-.238-.387-.313-.156-.078-.344-.113-.563-.113-.203 0-.383.031-.531.094s-.273.148-.371.262c-.098.109-.168.238-.219.391-.047.152-.074.313-.074.484 0 .176.039.332.113.477.078.141.184.273.324.395s.309.238.504.344c.199.109.418.215.656.316.496.18.934.379 1.305.602.371.219.68.469.93.746s.434.59.555.941c.125.348.184.742.184 1.184 0 .469-.074.887-.23 1.25-.152.367-.371.676-.656.926-.289.254-.633.445-1.039.582-.402.133-.859.199-1.367.199-.461 0-.91-.07-1.355-.207-.441-.141-.836-.355-1.18-.641-.348-.289-.629-.652-.84-1.094-.211-.438-.32-.961-.32-1.566h2.164c0 .324.031.598.094.82s.16.406.289.547c.129.137.289.238.48.301.188.059.41.09.668.09.203 0 .379-.031.52-.09.145-.063.262-.148.355-.25.09-.105.152-.23.191-.379S34.551 26.703 34.551 26.535z"/></svg>