<svg xmlns="http://www.w3.org/2000/svg" width="500" height="500" fill="#000" viewBox="0 0 80 80"><path d="M 10.988281 9.992188 C 10.699219 9.992188 10.425781 10.117188 10.234375 10.335938 C 10.046875 10.550781 9.960938 10.84375 10 11.128906 L 10 52 C 10 52.265625 10.105469 52.519531 10.292969 52.707031 L 27.292969 69.707031 C 27.480469 69.894531 27.734375 70 28 70 L 69 70 C 69.550781 70 70 69.550781 70 69 L 70 28 C 70 27.734375 69.894531 27.480469 69.707031 27.292969 L 52.707031 10.292969 C 52.519531 10.105469 52.265625 10 52 10 L 11.117188 10 C 11.074219 9.992188 11.03125 9.992188 10.988281 9.992188 Z M 13.414063 12 L 51.585938 12 L 66.585938 27 L 28.414063 27 Z M 12 13.414063 L 27 28.414063 L 27 66.585938 L 12 51.585938 Z M 29 29 L 31 29 C 31 29.550781 31.449219 30 32 30 C 32.550781 30 33 29.550781 33 29 L 37 29 C 37 29.550781 37.449219 30 38 30 C 38.550781 30 39 29.550781 39 29 L 43 29 C 43 29.550781 43.449219 30 44 30 C 44.550781 30 45 29.550781 45 29 L 49 29 C 49 29.550781 49.449219 30 50 30 C 50.550781 30 51 29.550781 51 29 L 55 29 C 55 29.550781 55.449219 30 56 30 C 56.550781 30 57 29.550781 57 29 L 61 29 C 61 29.550781 61.449219 30 62 30 C 62.550781 30 63 29.550781 63 29 L 67 29 C 67 29.550781 67.449219 30 68 30 L 68 34 C 67.449219 34 67 34.449219 67 35 C 67 35.550781 67.449219 36 68 36 L 68 40 C 67.449219 40 67 40.449219 67 41 C 67 41.550781 67.449219 42 68 42 L 68 46 C 67.449219 46 67 46.449219 67 47 C 67 47.550781 67.449219 48 68 48 L 68 52 C 67.449219 52 67 52.449219 67 53 C 67 53.550781 67.449219 54 68 54 L 68 58 C 67.449219 58 67 58.449219 67 59 C 67 59.550781 67.449219 60 68 60 L 68 64 C 67.449219 64 67 64.449219 67 65 C 67 65.550781 67.449219 66 68 66 L 68 68 L 66 68 C 66 67.449219 65.550781 67 65 67 C 64.449219 67 64 67.449219 64 68 L 60 68 C 60 67.449219 59.550781 67 59 67 C 58.449219 67 58 67.449219 58 68 L 54 68 C 54 67.449219 53.550781 67 53 67 C 52.449219 67 52 67.449219 52 68 L 48 68 C 48 67.449219 47.550781 67 47 67 C 46.449219 67 46 67.449219 46 68 L 42 68 C 42 67.449219 41.550781 67 41 67 C 40.449219 67 40 67.449219 40 68 L 36 68 C 36 67.449219 35.550781 67 35 67 C 34.449219 67 34 67.449219 34 68 L 30 68 C 30 67.449219 29.550781 67 29 67 L 29 63 C 29.550781 63 30 62.550781 30 62 C 30 61.449219 29.550781 61 29 61 L 29 57 C 29.550781 57 30 56.550781 30 56 C 30 55.449219 29.550781 55 29 55 L 29 51 C 29.550781 51 30 50.550781 30 50 C 30 49.449219 29.550781 49 29 49 L 29 45 C 29.550781 45 30 44.550781 30 44 C 30 43.449219 29.550781 43 29 43 L 29 39 C 29.550781 39 30 38.550781 30 38 C 30 37.449219 29.550781 37 29 37 L 29 33 C 29.550781 33 30 32.550781 30 32 C 30 31.449219 29.550781 31 29 31 Z M 35 31 C 34.449219 31 34 31.449219 34 32 C 34 32.550781 34.449219 33 35 33 C 35.550781 33 36 32.550781 36 32 C 36 31.449219 35.550781 31 35 31 Z M 41 31 C 40.449219 31 40 31.449219 40 32 C 40 32.550781 40.449219 33 41 33 C 41.550781 33 42 32.550781 42 32 C 42 31.449219 41.550781 31 41 31 Z M 47 31 C 46.449219 31 46 31.449219 46 32 C 46 32.550781 46.449219 33 47 33 C 47.550781 33 48 32.550781 48 32 C 48 31.449219 47.550781 31 47 31 Z M 53 31 C 52.449219 31 52 31.449219 52 32 C 52 32.550781 52.449219 33 53 33 C 53.550781 33 54 32.550781 54 32 C 54 31.449219 53.550781 31 53 31 Z M 59 31 C 58.449219 31 58 31.449219 58 32 C 58 32.550781 58.449219 33 59 33 C 59.550781 33 60 32.550781 60 32 C 60 31.449219 59.550781 31 59 31 Z M 65 31 C 64.449219 31 64 31.449219 64 32 C 64 32.550781 64.449219 33 65 33 C 65.550781 33 66 32.550781 66 32 C 66 31.449219 65.550781 31 65 31 Z M 32 34 C 31.449219 34 31 34.449219 31 35 C 31 35.550781 31.449219 36 32 36 C 32.550781 36 33 35.550781 33 35 C 33 34.449219 32.550781 34 32 34 Z M 38 34 C 37.449219 34 37 34.449219 37 35 C 37 35.550781 37.449219 36 38 36 C 38.550781 36 39 35.550781 39 35 C 39 34.449219 38.550781 34 38 34 Z M 44 34 C 43.449219 34 43 34.449219 43 35 C 43 35.550781 43.449219 36 44 36 C 44.550781 36 45 35.550781 45 35 C 45 34.449219 44.550781 34 44 34 Z M 50 34 C 49.449219 34 49 34.449219 49 35 C 49 35.550781 49.449219 36 50 36 C 50.550781 36 51 35.550781 51 35 C 51 34.449219 50.550781 34 50 34 Z M 56 34 C 55.449219 34 55 34.449219 55 35 C 55 35.550781 55.449219 36 56 36 C 56.550781 36 57 35.550781 57 35 C 57 34.449219 56.550781 34 56 34 Z M 62 34 C 61.449219 34 61 34.449219 61 35 C 61 35.550781 61.449219 36 62 36 C 62.550781 36 63 35.550781 63 35 C 63 34.449219 62.550781 34 62 34 Z M 35 37 C 34.449219 37 34 37.449219 34 38 C 34 38.550781 34.449219 39 35 39 C 35.550781 39 36 38.550781 36 38 C 36 37.449219 35.550781 37 35 37 Z M 41 37 C 40.449219 37 40 37.449219 40 38 C 40 38.550781 40.449219 39 41 39 C 41.550781 39 42 38.550781 42 38 C 42 37.449219 41.550781 37 41 37 Z M 47 37 C 46.449219 37 46 37.449219 46 38 C 46 38.550781 46.449219 39 47 39 C 47.550781 39 48 38.550781 48 38 C 48 37.449219 47.550781 37 47 37 Z M 53 37 C 52.449219 37 52 37.449219 52 38 C 52 38.550781 52.449219 39 53 39 C 53.550781 39 54 38.550781 54 38 C 54 37.449219 53.550781 37 53 37 Z M 59 37 C 58.449219 37 58 37.449219 58 38 C 58 38.550781 58.449219 39 59 39 C 59.550781 39 60 38.550781 60 38 C 60 37.449219 59.550781 37 59 37 Z M 65 37 C 64.449219 37 64 37.449219 64 38 C 64 38.550781 64.449219 39 65 39 C 65.550781 39 66 38.550781 66 38 C 66 37.449219 65.550781 37 65 37 Z M 32 40 C 31.449219 40 31 40.449219 31 41 C 31 41.550781 31.449219 42 32 42 C 32.550781 42 33 41.550781 33 41 C 33 40.449219 32.550781 40 32 40 Z M 38 40 C 37.449219 40 37 40.449219 37 41 C 37 41.550781 37.449219 42 38 42 C 38.550781 42 39 41.550781 39 41 C 39 40.449219 38.550781 40 38 40 Z M 44 40 C 43.449219 40 43 40.449219 43 41 C 43 41.550781 43.449219 42 44 42 C 44.550781 42 45 41.550781 45 41 C 45 40.449219 44.550781 40 44 40 Z M 50 40 C 49.449219 40 49 40.449219 49 41 C 49 41.550781 49.449219 42 50 42 C 50.550781 42 51 41.550781 51 41 C 51 40.449219 50.550781 40 50 40 Z M 56 40 C 55.449219 40 55 40.449219 55 41 C 55 41.550781 55.449219 42 56 42 C 56.550781 42 57 41.550781 57 41 C 57 40.449219 56.550781 40 56 40 Z M 62 40 C 61.449219 40 61 40.449219 61 41 C 61 41.550781 61.449219 42 62 42 C 62.550781 42 63 41.550781 63 41 C 63 40.449219 62.550781 40 62 40 Z M 35 43 C 34.449219 43 34 43.449219 34 44 C 34 44.550781 34.449219 45 35 45 C 35.550781 45 36 44.550781 36 44 C 36 43.449219 35.550781 43 35 43 Z M 41 43 C 40.449219 43 40 43.449219 40 44 C 40 44.550781 40.449219 45 41 45 C 41.550781 45 42 44.550781 42 44 C 42 43.449219 41.550781 43 41 43 Z M 47 43 C 46.449219 43 46 43.449219 46 44 C 46 44.550781 46.449219 45 47 45 C 47.550781 45 48 44.550781 48 44 C 48 43.449219 47.550781 43 47 43 Z M 53 43 C 52.449219 43 52 43.449219 52 44 C 52 44.550781 52.449219 45 53 45 C 53.550781 45 54 44.550781 54 44 C 54 43.449219 53.550781 43 53 43 Z M 59 43 C 58.449219 43 58 43.449219 58 44 C 58 44.550781 58.449219 45 59 45 C 59.550781 45 60 44.550781 60 44 C 60 43.449219 59.550781 43 59 43 Z M 65 43 C 64.449219 43 64 43.449219 64 44 C 64 44.550781 64.449219 45 65 45 C 65.550781 45 66 44.550781 66 44 C 66 43.449219 65.550781 43 65 43 Z M 32 46 C 31.449219 46 31 46.449219 31 47 C 31 47.550781 31.449219 48 32 48 C 32.550781 48 33 47.550781 33 47 C 33 46.449219 32.550781 46 32 46 Z M 38 46 C 37.449219 46 37 46.449219 37 47 C 37 47.550781 37.449219 48 38 48 C 38.550781 48 39 47.550781 39 47 C 39 46.449219 38.550781 46 38 46 Z M 44 46 C 43.449219 46 43 46.449219 43 47 C 43 47.550781 43.449219 48 44 48 C 44.550781 48 45 47.550781 45 47 C 45 46.449219 44.550781 46 44 46 Z M 50 46 C 49.449219 46 49 46.449219 49 47 C 49 47.550781 49.449219 48 50 48 C 50.550781 48 51 47.550781 51 47 C 51 46.449219 50.550781 46 50 46 Z M 56 46 C 55.449219 46 55 46.449219 55 47 C 55 47.550781 55.449219 48 56 48 C 56.550781 48 57 47.550781 57 47 C 57 46.449219 56.550781 46 56 46 Z M 62 46 C 61.449219 46 61 46.449219 61 47 C 61 47.550781 61.449219 48 62 48 C 62.550781 48 63 47.550781 63 47 C 63 46.449219 62.550781 46 62 46 Z M 35 49 C 34.449219 49 34 49.449219 34 50 C 34 50.550781 34.449219 51 35 51 C 35.550781 51 36 50.550781 36 50 C 36 49.449219 35.550781 49 35 49 Z M 41 49 C 40.449219 49 40 49.449219 40 50 C 40 50.550781 40.449219 51 41 51 C 41.550781 51 42 50.550781 42 50 C 42 49.449219 41.550781 49 41 49 Z M 47 49 C 46.449219 49 46 49.449219 46 50 C 46 50.550781 46.449219 51 47 51 C 47.550781 51 48 50.550781 48 50 C 48 49.449219 47.550781 49 47 49 Z M 53 49 C 52.449219 49 52 49.449219 52 50 C 52 50.550781 52.449219 51 53 51 C 53.550781 51 54 50.550781 54 50 C 54 49.449219 53.550781 49 53 49 Z M 59 49 C 58.449219 49 58 49.449219 58 50 C 58 50.550781 58.449219 51 59 51 C 59.550781 51 60 50.550781 60 50 C 60 49.449219 59.550781 49 59 49 Z M 65 49 C 64.449219 49 64 49.449219 64 50 C 64 50.550781 64.449219 51 65 51 C 65.550781 51 66 50.550781 66 50 C 66 49.449219 65.550781 49 65 49 Z M 32 52 C 31.449219 52 31 52.449219 31 53 C 31 53.550781 31.449219 54 32 54 C 32.550781 54 33 53.550781 33 53 C 33 52.449219 32.550781 52 32 52 Z M 38 52 C 37.449219 52 37 52.449219 37 53 C 37 53.550781 37.449219 54 38 54 C 38.550781 54 39 53.550781 39 53 C 39 52.449219 38.550781 52 38 52 Z M 44 52 C 43.449219 52 43 52.449219 43 53 C 43 53.550781 43.449219 54 44 54 C 44.550781 54 45 53.550781 45 53 C 45 52.449219 44.550781 52 44 52 Z M 50 52 C 49.449219 52 49 52.449219 49 53 C 49 53.550781 49.449219 54 50 54 C 50.550781 54 51 53.550781 51 53 C 51 52.449219 50.550781 52 50 52 Z M 56 52 C 55.449219 52 55 52.449219 55 53 C 55 53.550781 55.449219 54 56 54 C 56.550781 54 57 53.550781 57 53 C 57 52.449219 56.550781 52 56 52 Z M 62 52 C 61.449219 52 61 52.449219 61 53 C 61 53.550781 61.449219 54 62 54 C 62.550781 54 63 53.550781 63 53 C 63 52.449219 62.550781 52 62 52 Z M 35 55 C 34.449219 55 34 55.449219 34 56 C 34 56.550781 34.449219 57 35 57 C 35.550781 57 36 56.550781 36 56 C 36 55.449219 35.550781 55 35 55 Z M 41 55 C 40.449219 55 40 55.449219 40 56 C 40 56.550781 40.449219 57 41 57 C 41.550781 57 42 56.550781 42 56 C 42 55.449219 41.550781 55 41 55 Z M 47 55 C 46.449219 55 46 55.449219 46 56 C 46 56.550781 46.449219 57 47 57 C 47.550781 57 48 56.550781 48 56 C 48 55.449219 47.550781 55 47 55 Z M 53 55 C 52.449219 55 52 55.449219 52 56 C 52 56.550781 52.449219 57 53 57 C 53.550781 57 54 56.550781 54 56 C 54 55.449219 53.550781 55 53 55 Z M 59 55 C 58.449219 55 58 55.449219 58 56 C 58 56.550781 58.449219 57 59 57 C 59.550781 57 60 56.550781 60 56 C 60 55.449219 59.550781 55 59 55 Z M 65 55 C 64.449219 55 64 55.449219 64 56 C 64 56.550781 64.449219 57 65 57 C 65.550781 57 66 56.550781 66 56 C 66 55.449219 65.550781 55 65 55 Z M 32 58 C 31.449219 58 31 58.449219 31 59 C 31 59.550781 31.449219 60 32 60 C 32.550781 60 33 59.550781 33 59 C 33 58.449219 32.550781 58 32 58 Z M 38 58 C 37.449219 58 37 58.449219 37 59 C 37 59.550781 37.449219 60 38 60 C 38.550781 60 39 59.550781 39 59 C 39 58.449219 38.550781 58 38 58 Z M 44 58 C 43.449219 58 43 58.449219 43 59 C 43 59.550781 43.449219 60 44 60 C 44.550781 60 45 59.550781 45 59 C 45 58.449219 44.550781 58 44 58 Z M 50 58 C 49.449219 58 49 58.449219 49 59 C 49 59.550781 49.449219 60 50 60 C 50.550781 60 51 59.550781 51 59 C 51 58.449219 50.550781 58 50 58 Z M 56 58 C 55.449219 58 55 58.449219 55 59 C 55 59.550781 55.449219 60 56 60 C 56.550781 60 57 59.550781 57 59 C 57 58.449219 56.550781 58 56 58 Z M 62 58 C 61.449219 58 61 58.449219 61 59 C 61 59.550781 61.449219 60 62 60 C 62.550781 60 63 59.550781 63 59 C 63 58.449219 62.550781 58 62 58 Z M 35 61 C 34.449219 61 34 61.449219 34 62 C 34 62.550781 34.449219 63 35 63 C 35.550781 63 36 62.550781 36 62 C 36 61.449219 35.550781 61 35 61 Z M 41 61 C 40.449219 61 40 61.449219 40 62 C 40 62.550781 40.449219 63 41 63 C 41.550781 63 42 62.550781 42 62 C 42 61.449219 41.550781 61 41 61 Z M 47 61 C 46.449219 61 46 61.449219 46 62 C 46 62.550781 46.449219 63 47 63 C 47.550781 63 48 62.550781 48 62 C 48 61.449219 47.550781 61 47 61 Z M 53 61 C 52.449219 61 52 61.449219 52 62 C 52 62.550781 52.449219 63 53 63 C 53.550781 63 54 62.550781 54 62 C 54 61.449219 53.550781 61 53 61 Z M 59 61 C 58.449219 61 58 61.449219 58 62 C 58 62.550781 58.449219 63 59 63 C 59.550781 63 60 62.550781 60 62 C 60 61.449219 59.550781 61 59 61 Z M 65 61 C 64.449219 61 64 61.449219 64 62 C 64 62.550781 64.449219 63 65 63 C 65.550781 63 66 62.550781 66 62 C 66 61.449219 65.550781 61 65 61 Z M 32 64 C 31.449219 64 31 64.449219 31 65 C 31 65.550781 31.449219 66 32 66 C 32.550781 66 33 65.550781 33 65 C 33 64.449219 32.550781 64 32 64 Z M 38 64 C 37.449219 64 37 64.449219 37 65 C 37 65.550781 37.449219 66 38 66 C 38.550781 66 39 65.550781 39 65 C 39 64.449219 38.550781 64 38 64 Z M 44 64 C 43.449219 64 43 64.449219 43 65 C 43 65.550781 43.449219 66 44 66 C 44.550781 66 45 65.550781 45 65 C 45 64.449219 44.550781 64 44 64 Z M 50 64 C 49.449219 64 49 64.449219 49 65 C 49 65.550781 49.449219 66 50 66 C 50.550781 66 51 65.550781 51 65 C 51 64.449219 50.550781 64 50 64 Z M 56 64 C 55.449219 64 55 64.449219 55 65 C 55 65.550781 55.449219 66 56 66 C 56.550781 66 57 65.550781 57 65 C 57 64.449219 56.550781 64 56 64 Z M 62 64 C 61.449219 64 61 64.449219 61 65 C 61 65.550781 61.449219 66 62 66 C 62.550781 66 63 65.550781 63 65 C 63 64.449219 62.550781 64 62 64 Z"/></svg>