<svg xmlns="http://www.w3.org/2000/svg" width="500" height="500" viewBox="0 0 24 24"><path d="M20.5,5.5c-1.7-1.7-4.2-2-5.6-0.6C14.2,5.5,14,6.4,14,7.3 C13.4,7.1,12.7,7,12,7s-1.4,0.1-2,0.3c0-0.9-0.2-1.8-0.8-2.4C7.8,3.5,5.2,3.8,3.5,5.5s-2,4.2-0.6,5.6C3.5,11.8,4.4,12,5.3,12 C5.1,12.6,5,13.3,5,14c0,3.9,3.1,7,7,7s7-3.1,7-7c0-0.7-0.1-1.4-0.3-2c0.9,0,1.8-0.2,2.4-0.8C22.5,9.8,22.2,7.2,20.5,5.5z" opacity=".3"/><path d="M12,22c-4.4,0-8-3.6-8-8c0-0.4,0-0.8,0.1-1.1c-0.7-0.2-1.4-0.5-1.9-1C1.3,11,0.9,9.7,1,8.3c0.1-1.3,0.8-2.5,1.8-3.5 c2.1-2.1,5.3-2.4,7-0.6c0.5,0.5,0.9,1.2,1,1.9c0.7-0.1,1.5-0.1,2.3,0c0.2-0.7,0.5-1.4,1-1.9C15,3.3,16.3,2.9,17.7,3 c1.3,0.1,2.5,0.8,3.5,1.8l0,0c2.1,2.1,2.4,5.3,0.6,7c-0.5,0.5-1.2,0.9-1.9,1C20,13.2,20,13.6,20,14C20,18.4,16.4,22,12,22z M6.7,10.9l-0.4,1.4C6.1,12.8,6,13.4,6,14c0,3.3,2.7,6,6,6s6-2.7,6-6c0-0.6-0.1-1.2-0.3-1.7l-0.4-1.4l1.4,0.1c0.5,0,1.2-0.1,1.7-0.6 c1-1,0.7-2.9-0.6-4.2c-0.7-0.7-1.5-1.1-2.3-1.2c-0.7-0.1-1.4,0.1-1.9,0.6C15.1,6.1,15,6.8,15,7.2l0.1,1.4l-1.4-0.4 c-1.1-0.3-2.3-0.3-3.5,0L8.9,8.7L9,7.2c0-0.5-0.1-1.2-0.6-1.7C8,5.1,7.3,4.9,6.6,5C5.7,5.1,4.9,5.5,4.2,6.2C3.5,6.9,3.1,7.7,3,8.6 C2.9,9.3,3.1,10,3.6,10.4C4.1,10.9,4.8,11,5.2,11L6.7,10.9z"/></svg>