<svg xmlns="http://www.w3.org/2000/svg" width="300" height="300" viewBox="0 0 48 48"><path fill="#CFD8DC" d="M40,15H8c-2.209,0-4,1.791-4,4v1v18c0,2.209,1.791,4,4,4h32c2.209,0,4-1.791,4-4V20v-1C44,16.791,42.209,15,40,15z"/><path fill="#2196F3" d="M21 6H27V14H21z"/><path fill="#2196F3" d="M24 22L16 13 32 13z"/><path fill="#B0BEC5" d="M44,19c0-0.465-0.095-0.904-0.24-1.32L24,32L4.241,17.68C4.095,18.096,4,18.535,4,19v0.975l18.826,13.645L24,34.47l1.174-0.851L44,19.975V19z"/><path fill="#F44336" d="M44,19v1v18c0,2.209-1.791,4-4,4h-1V17h1v-2C42.209,15,44,16.791,44,19z M8,17v-2c-2.209,0-4,1.791-4,4v1v18c0,2.209,1.791,4,4,4h1V17H8z"/><path fill="#F44336" d="M4.241,17.68L24,32l19.76-14.32C43.212,16.123,41.744,15,40,15h-0.157L24,27L8.157,15H8C6.256,15,4.788,16.123,4.241,17.68z"/><g><path fill="#D32F2F" d="M44 19.975V19c0-.465-.095-.904-.24-1.32L39 21.129v2.47L44 19.975zM9 23.599v-2.47L4.241 17.68C4.095 18.096 4 18.535 4 19v.975L9 23.599z"/></g></svg>