<svg xmlns="http://www.w3.org/2000/svg" width="300" height="300" fill="#000" viewBox="0 0 64 64"><path d="M 38.769531 2.1074219 C 38.382766 2.1555156 38.042938 2.4259688 37.929688 2.8242188 L 37.380859 4.7480469 C 37.229859 5.2790469 37.538359 5.833375 38.068359 5.984375 C 38.159359 6.010375 38.25275 6.0234375 38.34375 6.0234375 C 38.77775 6.0234375 39.179688 5.736875 39.304688 5.296875 L 39.853516 3.3730469 C 40.004516 2.8420469 39.694063 2.2877187 39.164062 2.1367188 C 39.031562 2.0994687 38.898453 2.0913906 38.769531 2.1074219 z M 44.423828 4.2773438 C 44.036266 4.2393281 43.643313 4.433125 43.445312 4.796875 L 42.490234 6.5527344 C 42.226234 7.0377344 42.407578 7.6442031 42.892578 7.9082031 C 43.044578 7.9912031 43.208141 8.03125 43.369141 8.03125 C 43.724141 8.03125 44.067047 7.8418125 44.248047 7.5078125 L 45.203125 5.7519531 C 45.467125 5.2669531 45.287734 4.6585313 44.802734 4.3945312 C 44.681734 4.3285313 44.553016 4.2900156 44.423828 4.2773438 z M 10.996094 5 C 10.728094 5.001 10.473156 5.1087812 10.285156 5.3007812 C 10.102156 5.4867812 10.003906 5.7370469 10.003906 5.9980469 L 10 5.9980469 L 10 6.0195312 C 10 6.2595313 10.001359 7.6525469 10.068359 9.6855469 L 11 59.019531 C 11.008 59.421531 11.254906 59.779687 11.628906 59.929688 L 16.628906 61.929688 C 16.679906 61.949688 16.736063 61.948937 16.789062 61.960938 C 16.833063 61.970937 16.871969 61.992094 16.917969 61.996094 C 16.945969 61.998094 16.973 62 17 62 L 17.001953 62 C 17.002953 62 17.003859 61.998047 17.005859 61.998047 C 17.102859 61.998047 17.200922 61.984078 17.294922 61.955078 C 17.478922 61.898078 21.812703 60.556828 23.845703 59.048828 C 24.567703 58.514828 25 57.630547 25 56.685547 L 25 51 C 25 47.915 25 45 26 45 C 27.497 45 29.763375 46.887578 31.234375 48.642578 C 31.728375 49.232578 32.400734 50.133734 33.177734 51.177734 C 34.946734 53.549734 37.146875 56.502766 39.171875 58.384766 C 41.957875 60.973766 44.290188 60.989953 45.992188 61.001953 C 48.744188 61.019953 57.001953 61.001953 57.001953 61.001953 C 57.390953 61.000953 57.74325 60.773875 57.90625 60.421875 C 58.06925 60.069875 58.016625 59.653469 57.765625 59.355469 C 53.490625 54.281469 45.084094 44.124953 43.871094 42.001953 C 42.597094 39.771953 42.703516 37.843688 44.228516 35.554688 C 44.469516 35.193688 44.851922 34.760766 45.294922 34.259766 C 47.548922 31.711766 51.322422 27.446516 49.607422 18.353516 C 47.604422 7.7295156 35.786234 6.2694844 30.740234 5.6464844 L 29.970703 5.5507812 C 25.418703 4.9567813 11.588094 4.997 10.996094 5 z M 12.017578 6.9980469 C 15.356578 7.0000469 25.986938 7.0472031 29.710938 7.5332031 L 30.494141 7.6328125 C 35.497141 8.2508125 45.907625 9.5356094 47.640625 18.724609 C 49.173625 26.854609 45.938875 30.514547 43.796875 32.935547 C 43.305875 33.491547 42.880453 33.971313 42.564453 34.445312 C 40.638453 37.334313 40.497812 40.129188 42.132812 42.992188 C 43.210813 44.879188 48.967062 51.915531 52.789062 56.519531 C 49.585062 54.229531 46.920891 52.213406 44.587891 50.316406 C 44.158891 49.967406 43.528641 50.034891 43.181641 50.462891 C 42.832641 50.890891 42.897172 51.520141 43.326172 51.869141 C 45.978172 54.025141 49.051938 56.331859 52.835938 59.005859 C 50.363937 59.008859 47.440812 59.009 46.007812 59 C 44.480812 58.99 42.750203 58.979922 40.533203 56.919922 C 38.641203 55.160922 36.50125 52.288469 34.78125 49.980469 C 33.98525 48.912469 33.297625 47.989469 32.765625 47.355469 C 32.155625 46.629469 28.962 43 26 43 C 23 43 23 46.53 23 51 L 23 56.685547 C 23 57.000547 22.870297 57.283359 22.654297 57.443359 C 21.549297 58.262359 19.502094 59.072406 18.121094 59.566406 L 19.919922 38.005859 C 20.282922 38.003859 20.732625 37.995516 21.265625 37.978516 C 24.451625 38.064516 29.228969 38.644031 31.292969 40.707031 C 32.351969 41.766031 33.341688 42.757031 34.304688 43.707031 C 34.698687 44.095031 35.33075 44.089312 35.71875 43.695312 C 36.10675 43.302312 36.102984 42.66925 35.708984 42.28125 C 34.747984 41.33525 33.762031 40.349922 32.707031 39.294922 C 31.743031 38.330922 30.410125 37.644297 28.953125 37.154297 C 32.071125 36.552297 35.293609 35.530781 37.599609 33.800781 C 41.999609 30.499781 42 27.119 42 22 C 42 17.729 38.955187 14.207297 34.242188 13.029297 C 30.525188 12.100297 26.541 12 25 12 C 21.912 12 20 14.595 20 17 L 20 24 C 20 28.054 23.287094 29.750391 25.496094 29.900391 C 25.562094 29.907391 31.935734 30.299484 35.177734 27.271484 C 36.387734 26.140484 37 24.704 37 23 L 37 20 C 37 18.404 36.755813 17.059031 36.257812 15.957031 C 38.591813 17.285031 40 19.481 40 22 C 40 26.994 40.000391 29.499219 36.400391 32.199219 C 32.336391 35.246219 24.673109 35.861516 21.037109 35.978516 C 20.333109 35.965516 19.768344 35.973375 19.402344 35.984375 C 18.801344 35.323375 17.156391 33.275359 14.900391 28.568359 C 12.792391 24.167359 12.216594 14.279688 12.058594 9.1796875 L 12.017578 6.9980469 z M 49.082031 7.8359375 C 48.825906 7.8313125 48.567141 7.9242344 48.369141 8.1152344 L 46.929688 9.5019531 C 46.531687 9.8849531 46.519344 10.518016 46.902344 10.916016 C 47.099344 11.119016 47.361047 11.222656 47.623047 11.222656 C 47.873047 11.222656 48.123406 11.128406 48.316406 10.941406 L 49.757812 9.5546875 C 50.155813 9.1716875 50.166203 8.538625 49.783203 8.140625 C 49.591703 7.942125 49.338156 7.8405625 49.082031 7.8359375 z M 52.373047 12.800781 C 52.242922 12.801875 52.110172 12.827813 51.982422 12.882812 L 50.148438 13.677734 C 49.641437 13.896734 49.407953 14.485188 49.626953 14.992188 C 49.790953 15.369187 50.159875 15.595703 50.546875 15.595703 C 50.678875 15.595703 50.811406 15.569672 50.941406 15.513672 L 52.777344 14.71875 C 53.284344 14.49975 53.517828 13.909344 53.298828 13.402344 C 53.134578 13.022844 52.763422 12.7975 52.373047 12.800781 z M 25 14 C 26.208 14 28.989625 14.064172 31.890625 14.576172 C 34.068625 15.325172 35 16.952 35 20 L 35 23 C 35 24.144 34.6115 25.063547 33.8125 25.810547 C 31.6535 27.827547 27.065813 27.998297 25.632812 27.904297 C 25.595813 27.901297 22 27.616 22 24 L 22 17 C 22 15.525 23.122 14 25 14 z M 53.714844 18.535156 L 51.728516 18.78125 C 51.180516 18.84925 50.791375 19.348484 50.859375 19.896484 C 50.921375 20.402484 51.353563 20.773438 51.851562 20.773438 C 51.892563 20.773437 51.932609 20.770625 51.974609 20.765625 L 53.960938 20.519531 C 54.508938 20.451531 54.896125 19.952297 54.828125 19.404297 C 54.761125 18.856297 54.262844 18.462156 53.714844 18.535156 z M 52.011719 24.167969 C 51.458719 24.102969 50.964438 24.492016 50.898438 25.041016 C 50.832438 25.590016 51.223484 26.088297 51.771484 26.154297 L 53.757812 26.394531 C 53.798812 26.399531 53.838906 26.400391 53.878906 26.400391 C 54.377906 26.400391 54.808141 26.029484 54.869141 25.521484 C 54.935141 24.972484 54.544094 24.474203 53.996094 24.408203 L 52.011719 24.167969 z M 12.408203 27.679688 C 12.619203 28.317688 12.848609 28.909641 13.099609 29.431641 C 15.454609 34.346641 17.223797 36.565047 17.966797 37.373047 L 16.115234 59.568359 L 12.986328 58.318359 L 12.408203 27.679688 z M 50.498047 29.275391 C 50.107531 29.262687 49.731844 29.480469 49.558594 29.855469 C 49.326594 30.356469 49.545875 30.952594 50.046875 31.183594 L 51.861328 32.021484 C 51.998328 32.084484 52.14125 32.113281 52.28125 32.113281 C 52.65925 32.113281 53.020453 31.898203 53.189453 31.533203 C 53.421453 31.032203 53.202172 30.438031 52.701172 30.207031 L 50.886719 29.367188 C 50.760219 29.308937 50.628219 29.279625 50.498047 29.275391 z M 47.443359 33.75 C 47.188234 33.770375 46.941219 33.888609 46.761719 34.099609 C 46.403719 34.520609 46.455 35.151766 46.875 35.509766 L 48.398438 36.806641 C 48.586438 36.966641 48.817875 37.044922 49.046875 37.044922 C 49.328875 37.044922 49.609594 36.923406 49.808594 36.691406 C 50.166594 36.270406 50.115313 35.63925 49.695312 35.28125 L 48.171875 33.986328 C 47.961875 33.807828 47.698484 33.729625 47.443359 33.75 z M 37.982422 44.894531 C 37.726797 44.902406 37.474156 45.007984 37.285156 45.208984 C 36.906156 45.610984 36.926125 46.244047 37.328125 46.623047 C 38.346125 47.578047 39.331797 48.471516 40.341797 49.353516 C 40.530797 49.519516 40.766 49.601563 41 49.601562 C 41.278 49.601562 41.556906 49.485766 41.753906 49.259766 C 42.116906 48.843766 42.074203 48.210656 41.658203 47.847656 C 40.666203 46.980656 39.697266 46.103062 38.697266 45.164062 C 38.495766 44.975562 38.238047 44.886656 37.982422 44.894531 z"/></svg>