<svg xmlns="http://www.w3.org/2000/svg" width="50" height="50" viewBox="0 0 48 48"><path fill="#01579b" d="M33.09,25.01c-0.1-0.23-0.17-0.38-0.18-0.42v-0.01c-0.64-1.45-1.25-2.81-1.84-4.06 c-0.08-0.18-0.17-0.36-0.25-0.54c-0.1-0.22-0.2-0.43-0.3-0.64c-2.42-5.18-4.25-8.49-5.44-9.88C24.81,9.14,24.43,9,24,9 s-0.81,0.14-1.08,0.46c-1.19,1.39-3.02,4.7-5.44,9.88c-0.1,0.21-0.2,0.42-0.3,0.64c-0.08,0.18-0.17,0.36-0.25,0.54 c-0.59,1.25-1.2,2.61-1.84,4.06v0.01c-0.01,0.04-0.08,0.19-0.18,0.42c-0.545,1.231-2.114,4.811-2.824,6.408l1.255-0.497 c1.551-0.637,3.128-1.232,4.69-1.787l0.032-0.014c0.13-0.32,0.757-1.92,0.877-2.23c0.3-0.75,0.59-1.47,0.87-2.16 c0.03-0.06,0.05-0.13,0.08-0.19c0.3-0.74,0.59-1.45,0.87-2.12c0.06-0.15,0.13-0.29,0.19-0.44c0.1-0.23,0.19-0.45,0.28-0.67 c0.15-0.35,0.29-0.68,0.42-1c0.17-0.39,0.33-0.76,0.49-1.12c0.27-0.61,0.51-1.16,0.72-1.64c0.08-0.19,0.17-0.37,0.24-0.54 c0.25-0.55,0.45-0.99,0.61-1.33c0.143-0.32,0.24-0.529,0.29-0.635c0.05,0.107,0.147,0.316,0.29,0.635c0.16,0.34,0.36,0.78,0.61,1.33 c0.07,0.17,0.16,0.35,0.24,0.54c0.21,0.48,0.45,1.03,0.72,1.64c0.16,0.36,0.32,0.73,0.49,1.12c0.13,0.32,0.27,0.65,0.42,1 c0.09,0.22,0.18,0.44,0.28,0.67c0.06,0.15,0.13,0.29,0.19,0.44c0.28,0.67,0.57,1.38,0.87,2.12c0.03,0.06,0.05,0.13,0.08,0.19 c0.28,0.69,0.57,1.41,0.87,2.16c0.12,0.31,0.747,1.91,0.877,2.23l0.032,0.014c1.562,0.555,3.139,1.15,4.69,1.787l1.255,0.497 C35.204,29.821,33.635,26.241,33.09,25.01z"/><path fill="#0277bd" d="M16.81,34.62C16.08,38.28,16,42,16,42l-3,2H8l2.97-9.38H16.81z"/><path fill="#4eacdf" d="M16.03,34.62C15.01,37.55,13.92,40.87,13,44H8l2.97-9.38H16.03z"/><path fill="#0277bd" d="M40,44h-5l-3-2c0,0-0.12-5.88-1.5-10.13c-0.01-0.04-0.03-0.08-0.04-0.12h5.66L40,44z"/><path fill="#2770aa" d="M30.52,19.34c0.1,0.21,0.2,0.42,0.3,0.64c0.08,0.18,0.17,0.36,0.25,0.54 c0.59,1.25,1.2,2.61,1.84,4.06v0.01c0.01,0.04,0.08,0.19,0.18,0.42c0.07,0.16,0.15,0.35,0.25,0.57c0.03,0.06,0.06,0.14,0.09,0.21 c0.09,0.19,0.18,0.4,0.28,0.62c0.05,0.12,0.1,0.24,0.16,0.37c0.36,0.81,0.76,1.73,1.14,2.59c0.12,0.28,0.24,0.56,0.36,0.82 c0.07,0.17,0.14,0.33,0.21,0.48c0.125,0.285,0.235,0.531,0.334,0.751l-1.255-0.5c-1.561-0.641-3.149-1.24-4.72-1.798 c-0.404-1.023-0.817-2.073-0.879-2.233c-0.3-0.75-0.59-1.47-0.87-2.16c-0.03-0.06-0.05-0.13-0.08-0.19 c-0.3-0.74-0.59-1.45-0.87-2.12c-0.06-0.15-0.13-0.29-0.19-0.44c-0.1-0.23-0.19-0.45-0.28-0.67c-0.15-0.35-0.29-0.68-0.42-1 c-0.17-0.39-0.33-0.76-0.49-1.12c-0.27-0.61-0.51-1.16-0.72-1.64c-0.08-0.19-0.17-0.37-0.24-0.54c-0.25-0.55-0.45-0.99-0.61-1.33 L30.52,19.34z"/><path fill="#4eacdf" d="M40,44h-5c-1.26-4.3-2.67-8.46-4.06-12.22c0,0,0-0.01-0.01-0.03h5.19L40,44z"/><path fill="#0277bd" d="M33.33,25.471l-0.34-0.77l-0.817,0.204C28.133,25.911,20.452,28,13.341,30.92l-1.248,0.495 l-0.163,0.402c-0.669,1.579-1.296,3.082-1.871,4.469L11.25,36c0,0,6.25-1.75,23.875-4l0.966-0.132 C35.216,29.803,34.28,27.626,33.33,25.471z"/><path fill="#2770aa" d="M17.48,19.34c-0.1,0.21-0.2,0.42-0.3,0.64c-0.08,0.18-0.17,0.36-0.25,0.54 c-0.59,1.25-1.2,2.61-1.84,4.06v0.01c-0.01,0.04-0.08,0.19-0.18,0.42c-0.07,0.16-0.15,0.35-0.25,0.57 c-0.03,0.06-0.06,0.14-0.09,0.21c-0.09,0.19-0.18,0.4-0.28,0.62c-0.05,0.12-0.1,0.24-0.16,0.37c-0.36,0.81-0.76,1.73-1.14,2.59 c-0.12,0.28-0.24,0.56-0.36,0.82c-0.07,0.17-0.14,0.33-0.21,0.48c-0.125,0.285-0.235,0.531-0.334,0.751l1.255-0.5 c1.561-0.641,3.149-1.24,4.72-1.798c0.404-1.023,0.817-2.073,0.879-2.233c0.3-0.75,0.59-1.47,0.87-2.16 c0.03-0.06,0.05-0.13,0.08-0.19c0.3-0.74,0.59-1.45,0.87-2.12c0.06-0.15,0.13-0.29,0.19-0.44c0.1-0.23,0.19-0.45,0.28-0.67 c0.15-0.35,0.29-0.68,0.42-1c0.17-0.39,0.33-0.76,0.49-1.12c0.27-0.61,0.51-1.16,0.72-1.64c0.08-0.19,0.17-0.37,0.24-0.54 c0.25-0.55,0.45-0.99,0.61-1.33L17.48,19.34z"/><path fill="#3a95cc" d="M14.91,25.01c-0.07,0.16-0.15,0.35-0.25,0.57c-0.03,0.06-0.06,0.14-0.09,0.21 c-0.09,0.19-0.18,0.4-0.28,0.62c-0.05,0.12-0.11,0.24-0.16,0.37c-0.36,0.81-0.76,1.73-1.14,2.59c-0.12,0.28-0.24,0.56-0.36,0.82 c-0.07,0.17-0.14,0.33-0.21,0.48c-0.085,0.195-0.217,0.5-0.325,0.746l1.245-0.495c1.561-0.641,3.149-1.24,4.72-1.798 c0.404-1.023,0.817-2.073,0.879-2.233c0.3-0.75,0.59-1.47,0.87-2.16c0.03-0.06,0.05-0.13,0.08-0.19c0.3-0.74,0.59-1.45,0.87-2.12 c0.06-0.15,0.13-0.29,0.19-0.44c0.1-0.23,0.19-0.45,0.28-0.67L14.91,25.01z"/><path fill="#0288d1" d="M40,44l2-1c0,0-1.01-5.32-3.17-12.91C36.7,22.61,33.47,12.94,29,4H19 c-4.47,8.94-7.7,18.61-9.83,26.09C7.01,37.68,6,43,6,43l2,1c0,0,2.113-5.326,4.851-11.792c7.417-3.14,15.765-5.386,19.564-6.333 C36.346,34.785,40,44,40,44z M14.081,29.328c3.435-7.977,7.451-16.708,9.559-19.178C23.733,10.041,23.871,10,24,10 s0.267,0.041,0.36,0.149c1.291,1.512,3.296,5.37,5.445,9.965L14.081,29.328z"/><path fill="#1ca5e8" d="M26,4c0,0,7.43,11,12.8,26c0.01,0.03,0.02,0.06,0.03,0.09C36.7,22.61,33.47,12.94,29,4H26z"/><path fill="#0277bd" d="M22,4c0,0-7.43,11-12.8,26c-0.01,0.03-0.02,0.06-0.03,0.09C11.3,22.61,14.53,12.94,19,4H22z"/></svg>