<svg xmlns="http://www.w3.org/2000/svg" width="100" height="100" viewBox="0 0 48 48"><path fill="#1976d2" d="M30,16v24c0,0-19,0-22,0s-3-3-3-3V16H30z"/><path fill="#90caf9" d="M11,3v34c0,0,0,3-3,3h28c2.2,0,4-1.8,4-4V3H11z"/><path fill="#fff" d="M42,34c0,4.4-3.6,8-8,8s-8-3.6-8-8s3.6-8,8-8S42,29.6,42,34z"/><path fill="#f44336" d="M34,44c-5.5,0-10-4.5-10-10s4.5-10,10-10s10,4.5,10,10S39.5,44,34,44z M34,28c-3.3,0-6,2.7-6,6 s2.7,6,6,6s6-2.7,6-6S37.3,28,34,28z"/><path fill="#f44336" d="M24.8 32H43.2V36H24.8z" transform="rotate(-45.001 34 34)"/><path fill="#1976d2" d="M27 14h8v2h-8V14zM27 18h8v2h-8V18zM27 22v2h.4c1.9-1.3 4.2-2 6.6-2H27zM22.7 30H17v2h5.2C22.3 31.3 22.5 30.6 22.7 30zM17 22h8v2h-8V22zM25 26.1L25 26.1 17 26v2h6.6C24 27.3 24.5 26.7 25 26.1zM22 34h-5v2h5.2C22.1 35.3 22 34.7 22 34zM17 7h18v4H17V7zM17 18h8v2h-8V18zM17 14h8v2h-8V14z"/></svg>