<svg xmlns="http://www.w3.org/2000/svg" width="100" height="100" viewBox="0 0 64 64"><path fill="#6e91ce" d="M32.15,13.61l-0.1-0.02C29.53,13.15,26.93,13,25,13c-2.43,0-4,2-4,4v7c0,3.5,2.89,4.79,4.56,4.9C27,29,36,29,36,23v-3C36,17,35.15,14.61,32.15,13.61z M27.06,28C24.23,28,25,28,24,28c0,0-0.05-5.53,0.08-7.7c0.12-2.17,1.98-2.22,1.98-2.22s1.21-0.18,3.03,0c1.82,0.19,2.53,0.66,3.07,1.32C32.7,20.06,33,21.48,33,23.22C33,27.09,29.58,28,27.06,28z"/><path fill="#7bbeeb" d="M43,42.5c-1.58-2.76-1.18-5.13,0.4-7.5c1.58-2.37,7.2-6,5.22-16.46c-1.97-10.46-14.24-11.41-18.78-12C25.3,5.95,11,6,11,6l1,53l5,2c0,0,4.33-1.33,6.25-2.75c0.49-0.37,0.75-0.96,0.75-1.57V51c0-4.14,0-7,2-7s4.54,2.26,6,4c1.64,1.95,5.98,6.84,7.85,9.65C41.73,60.46,46,60,46,60h11C57,60,44.58,45.26,43,42.5z M36,23c0,6-9,6-10.44,5.9C23.89,28.79,21,27.5,21,24v-7c0-2,1.57-4,4-4c1.93,0,4.53,0.15,7.05,0.59l0.1,0.02c3,1,3.85,3.39,3.85,6.39V23z"/><path fill="#ace3ff" d="M56,60H46c0,0-3.674-0.048-6.15-2.35C37,55,33.64,49.95,32,48c-1.46-1.74-4-4-6-4s-2,2.86-2,7v5.68c0,0.61-0.26,1.2-0.75,1.57C21.33,59.67,17,61,17,61l2-24c0,0,9.46-0.54,13,3C39,47,43,51,56,60z"/><path fill="#6e91ce" d="M11,6c0,0-0.025,16.686,3,23s5,8,5,8l-2,24l-5-2L11,6z"/><path fill="#8d6c9f" d="M38.344 6.023c-.091 0-.184-.013-.275-.039-.53-.151-.839-.705-.688-1.236l.548-1.923c.151-.531.706-.837 1.236-.688.53.151.839.705.688 1.236l-.548 1.923C39.18 5.736 38.778 6.023 38.344 6.023zM43.369 8.031c-.161 0-.325-.039-.477-.122-.485-.264-.665-.871-.401-1.356l.955-1.757c.264-.485.872-.665 1.356-.401.485.264.665.871.401 1.356l-.955 1.757C44.067 7.842 43.724 8.031 43.369 8.031zM47.624 11.222c-.262 0-.524-.103-.721-.306-.383-.398-.371-1.031.027-1.414l1.44-1.387c.396-.382 1.031-.371 1.414.026.383.398.371 1.031-.027 1.414l-1.44 1.387C48.124 11.129 47.874 11.222 47.624 11.222zM50.546 15.596c-.387 0-.755-.226-.919-.603-.219-.507.014-1.096.521-1.315l1.835-.795c.511-.22 1.096.014 1.315.52.219.507-.014 1.096-.521 1.315l-1.835.795C50.812 15.569 50.678 15.596 50.546 15.596zM51.851 20.774c-.498 0-.929-.371-.991-.877-.068-.548.321-1.047.869-1.115l1.985-.246c.548-.073 1.048.321 1.115.869.068.548-.321 1.047-.869 1.115l-1.985.246C51.933 20.771 51.892 20.774 51.851 20.774zM53.878 26.401c-.04 0-.08-.002-.121-.007l-1.985-.24c-.548-.066-.939-.564-.873-1.113s.56-.938 1.113-.873l1.985.24c.548.066.939.564.873 1.113C54.809 26.029 54.377 26.401 53.878 26.401zM52.281 32.114c-.14 0-.282-.029-.419-.092l-1.815-.839c-.501-.231-.72-.826-.488-1.327.231-.5.822-.721 1.328-.488l1.815.839c.501.231.72.826.488 1.327C53.021 31.899 52.659 32.114 52.281 32.114zM49.046 37.044c-.229 0-.46-.078-.648-.238l-1.523-1.296c-.42-.358-.471-.989-.113-1.41.359-.422.99-.471 1.41-.114l1.523 1.296c.42.358.471.989.113 1.41C49.609 36.924 49.328 37.044 49.046 37.044zM38.698 45.165c-.403-.377-1.035-.358-1.413.044-.379.402-.358 1.035.044 1.414 1.018.955 2.003 1.849 3.013 2.731.189.166.424.247.658.247.278 0 .556-.116.753-.342.363-.416.321-1.048-.095-1.411C40.666 46.981 39.698 46.104 38.698 45.165z"/><path fill="#8d6c9f" d="M57.765,59.355c-4.275-5.074-12.681-15.231-13.894-17.354c-1.274-2.23-1.167-4.158,0.358-6.447c0.241-0.361,0.623-0.793,1.066-1.294c2.254-2.548,6.027-6.814,4.312-15.907C47.604,7.729,35.786,6.27,30.74,5.647L29.97,5.55C25.418,4.956,11.588,4.997,10.996,5c-0.268,0.001-0.523,0.109-0.711,0.301c-0.183,0.186-0.281,0.437-0.281,0.698H10c0,0.004,0,0.015,0,0.02v0V6.02c0,0.24,0.002,1.633,0.069,3.666L11,59.019c0.008,0.402,0.255,0.76,0.629,0.91l5,2c0.051,0.02,0.107,0.019,0.16,0.031c0.044,0.01,0.082,0.033,0.128,0.037C16.945,61.999,16.973,62,17,62c0,0,0,0,0,0s0,0,0,0c0,0,0.001,0,0.001,0c0.001,0,0.002-0.001,0.004-0.001c0.097,0,0.195-0.014,0.289-0.043c0.184-0.057,4.519-1.399,6.552-2.907C24.568,58.515,25,57.63,25,56.685V51c0-3.085,0-6,1-6c1.497,0,3.763,1.888,5.234,3.643c0.494,0.59,1.166,1.491,1.943,2.535c1.769,2.372,3.969,5.325,5.994,7.207c2.786,2.589,5.119,2.604,6.821,2.616c2.752,0.018,11.009,0,11.009,0c0.389-0.001,0.742-0.227,0.905-0.579S58.016,59.653,57.765,59.355z M12.409,27.68c0.211,0.638,0.439,1.23,0.69,1.752c2.355,4.915,4.124,7.134,4.867,7.942l-1.85,22.195l-3.129-1.251L12.409,27.68z M46.007,59c-1.527-0.01-3.257-0.021-5.474-2.081c-1.892-1.759-4.032-4.63-5.752-6.938c-0.796-1.068-1.483-1.991-2.015-2.625C32.156,46.63,28.962,43,26,43c-3,0-3,3.53-3,8v5.685c0,0.315-0.129,0.598-0.345,0.758c-1.105,0.819-3.152,1.63-4.533,2.124l1.797-21.561c0.363-0.002,0.813-0.01,1.346-0.027c3.186,0.086,7.964,0.666,10.028,2.729c1.059,1.059,2.049,2.049,3.012,2.999c0.394,0.388,1.026,0.383,1.414-0.011c0.388-0.393,0.384-1.026-0.01-1.414c-0.961-0.946-1.947-1.933-3.002-2.988c-0.964-0.964-2.296-1.65-3.753-2.14c3.118-0.602,6.34-1.623,8.646-3.353C42,30.5,42,27.119,42,22c0-4.271-3.045-7.792-7.758-8.97C30.525,12.101,26.541,12,25,12c-3.088,0-5,2.595-5,5v7c0,4.054,3.287,5.75,5.496,5.9c0.066,0.007,6.439,0.4,9.681-2.628C36.387,26.141,37,24.704,37,23v-3c0-1.596-0.245-2.94-0.743-4.042C38.591,17.286,40,19.481,40,22c0,4.994,0,7.5-3.6,10.2c-4.064,3.047-11.727,3.661-15.363,3.778c-0.704-0.013-1.268-0.005-1.634,0.006c-0.601-0.661-2.246-2.709-4.502-7.416c-2.108-4.401-2.684-14.289-2.842-19.389l-0.041-2.18c3.339,0.002,13.968,0.048,17.692,0.534l0.784,0.099c5.003,0.618,15.414,1.903,17.147,11.092c1.533,8.13-1.703,11.79-3.845,14.211c-0.491,0.556-0.916,1.036-1.232,1.51c-1.926,2.889-2.066,5.685-0.431,8.548c1.078,1.887,6.834,8.923,10.656,13.527c-3.204-2.29-5.869-4.306-8.202-6.203c-0.429-0.349-1.059-0.283-1.406,0.145c-0.349,0.428-0.284,1.058,0.145,1.407c2.652,2.156,5.726,4.463,9.51,7.137C50.364,59.009,47.44,59.009,46.007,59z M35,20v3c0,1.144-0.389,2.063-1.188,2.81c-2.159,2.017-6.746,2.189-8.179,2.095C25.596,27.902,22,27.616,22,24v-7c0-1.475,1.122-3,3-3c1.208,0,3.99,0.064,6.891,0.576C34.069,15.325,35,16.952,35,20z"/></svg>