<svg xmlns="http://www.w3.org/2000/svg" width="50" height="50" viewBox="0 0 40 40"><path fill="none" stroke="#4788c7" stroke-miterlimit="10" d="M12.554 32.5L26.125 32.5M19.5 4.5L19.5 31.5"/><path fill="#dff0fe" d="M19.5 2.5A2 2 0 1 0 19.5 6.5A2 2 0 1 0 19.5 2.5Z"/><path fill="#4788c7" d="M19.5,3C20.327,3,21,3.673,21,4.5S20.327,6,19.5,6S18,5.327,18,4.5S18.673,3,19.5,3 M19.5,2 C18.119,2,17,3.119,17,4.5S18.119,7,19.5,7S22,5.881,22,4.5S20.881,2,19.5,2L19.5,2z"/><path fill="none" stroke="#4788c7" stroke-miterlimit="10" d="M27.5 11.5L11.214 11.5"/><path fill="none" stroke="#4788c7" stroke-linecap="square" stroke-linejoin="round" stroke-miterlimit="10" d="M11.5 11.5L11.5 20.5"/><path fill="none" stroke="#4788c7" stroke-miterlimit="10" d="M11.179 20.679L3.036 26.107M27.5 11.5L27.5 20.375M27.5 20.5L36.5 20.5"/><path fill="none" stroke="#4788c7" stroke-linecap="round" stroke-miterlimit="10" d="M12.5 31.893L12.5 37.5M26.5 31.893L26.5 37.5"/><path fill="#dff0fe" d="M19.5 9.5A2 2 0 1 0 19.5 13.5A2 2 0 1 0 19.5 9.5Z"/><path fill="#4788c7" d="M19.5,10c0.827,0,1.5,0.673,1.5,1.5S20.327,13,19.5,13S18,12.327,18,11.5S18.673,10,19.5,10 M19.5,9 c-1.381,0-2.5,1.119-2.5,2.5s1.119,2.5,2.5,2.5s2.5-1.119,2.5-2.5S20.881,9,19.5,9L19.5,9z"/><path fill="#dff0fe" d="M19.5 16.5A2 2 0 1 0 19.5 20.5A2 2 0 1 0 19.5 16.5Z"/><path fill="#4788c7" d="M19.5,17c0.827,0,1.5,0.673,1.5,1.5S20.327,20,19.5,20S18,19.327,18,18.5S18.673,17,19.5,17 M19.5,16c-1.381,0-2.5,1.119-2.5,2.5s1.119,2.5,2.5,2.5s2.5-1.119,2.5-2.5S20.881,16,19.5,16L19.5,16z"/><path fill="#dff0fe" d="M19.5 23.5A2 2 0 1 0 19.5 27.5A2 2 0 1 0 19.5 23.5Z"/><path fill="#4788c7" d="M19.5,24c0.827,0,1.5,0.673,1.5,1.5S20.327,27,19.5,27S18,26.327,18,25.5S18.673,24,19.5,24 M19.5,23c-1.381,0-2.5,1.119-2.5,2.5s1.119,2.5,2.5,2.5s2.5-1.119,2.5-2.5S20.881,23,19.5,23L19.5,23z"/><path fill="#dff0fe" d="M19.5 30.5A2 2 0 1 0 19.5 34.5A2 2 0 1 0 19.5 30.5Z"/><path fill="#4788c7" d="M19.5,31c0.827,0,1.5,0.673,1.5,1.5c0,0.827-0.673,1.5-1.5,1.5S18,33.327,18,32.5 C18,31.673,18.673,31,19.5,31 M19.5,30c-1.381,0-2.5,1.119-2.5,2.5s1.119,2.5,2.5,2.5s2.5-1.119,2.5-2.5S20.881,30,19.5,30L19.5,30 z"/><path fill="#dff0fe" d="M12.5 30.5A2 2 0 1 0 12.5 34.5A2 2 0 1 0 12.5 30.5Z"/><path fill="#4788c7" d="M12.5,31c0.827,0,1.5,0.673,1.5,1.5c0,0.827-0.673,1.5-1.5,1.5S11,33.327,11,32.5 C11,31.673,11.673,31,12.5,31 M12.5,30c-1.381,0-2.5,1.119-2.5,2.5s1.119,2.5,2.5,2.5s2.5-1.119,2.5-2.5S13.881,30,12.5,30L12.5,30 z"/><path fill="#dff0fe" d="M26.375 30.5A2 2 0 1 0 26.375 34.5A2 2 0 1 0 26.375 30.5Z"/><path fill="#4788c7" d="M26.375,31c0.827,0,1.5,0.673,1.5,1.5c0,0.827-0.673,1.5-1.5,1.5s-1.5-0.673-1.5-1.5 C24.875,31.673,25.548,31,26.375,31 M26.375,30c-1.381,0-2.5,1.119-2.5,2.5s1.119,2.5,2.5,2.5s2.5-1.119,2.5-2.5 S27.756,30,26.375,30L26.375,30z"/><g><path fill="#dff0fe" d="M27.5 9.5A2 2 0 1 0 27.5 13.5A2 2 0 1 0 27.5 9.5Z"/><path fill="#4788c7" d="M27.5,10c0.827,0,1.5,0.673,1.5,1.5S28.327,13,27.5,13S26,12.327,26,11.5S26.673,10,27.5,10 M27.5,9 c-1.381,0-2.5,1.119-2.5,2.5s1.119,2.5,2.5,2.5s2.5-1.119,2.5-2.5S28.881,9,27.5,9L27.5,9z"/></g><g><path fill="#dff0fe" d="M11.5 9.5A2 2 0 1 0 11.5 13.5A2 2 0 1 0 11.5 9.5Z"/><path fill="#4788c7" d="M11.5,10c0.827,0,1.5,0.673,1.5,1.5S12.327,13,11.5,13S10,12.327,10,11.5S10.673,10,11.5,10 M11.5,9 C10.119,9,9,10.119,9,11.5s1.119,2.5,2.5,2.5s2.5-1.119,2.5-2.5S12.881,9,11.5,9L11.5,9z"/></g><g><path fill="#dff0fe" d="M11.5 18.5A2 2 0 1 0 11.5 22.5A2 2 0 1 0 11.5 18.5Z"/><path fill="#4788c7" d="M11.5,19c0.827,0,1.5,0.673,1.5,1.5S12.327,22,11.5,22S10,21.327,10,20.5S10.673,19,11.5,19 M11.5,18C10.119,18,9,19.119,9,20.5s1.119,2.5,2.5,2.5s2.5-1.119,2.5-2.5S12.881,18,11.5,18L11.5,18z"/></g><g><path fill="#dff0fe" d="M3.5 23.5A2 2 0 1 0 3.5 27.5A2 2 0 1 0 3.5 23.5Z"/><path fill="#4788c7" d="M3.5,24C4.327,24,5,24.673,5,25.5S4.327,27,3.5,27S2,26.327,2,25.5S2.673,24,3.5,24 M3.5,23 C2.119,23,1,24.119,1,25.5S2.119,28,3.5,28S6,26.881,6,25.5S4.881,23,3.5,23L3.5,23z"/></g><g><path fill="#dff0fe" d="M27.5 18.5A2 2 0 1 0 27.5 22.5A2 2 0 1 0 27.5 18.5Z"/><path fill="#4788c7" d="M27.5,19c0.827,0,1.5,0.673,1.5,1.5S28.327,22,27.5,22S26,21.327,26,20.5S26.673,19,27.5,19 M27.5,18c-1.381,0-2.5,1.119-2.5,2.5s1.119,2.5,2.5,2.5s2.5-1.119,2.5-2.5S28.881,18,27.5,18L27.5,18z"/></g><g><path fill="#dff0fe" d="M36.5 18.5A2 2 0 1 0 36.5 22.5A2 2 0 1 0 36.5 18.5Z"/><path fill="#4788c7" d="M36.5,19c0.827,0,1.5,0.673,1.5,1.5S37.327,22,36.5,22S35,21.327,35,20.5S35.673,19,36.5,19 M36.5,18c-1.381,0-2.5,1.119-2.5,2.5s1.119,2.5,2.5,2.5s2.5-1.119,2.5-2.5S37.881,18,36.5,18L36.5,18z"/></g></svg>