<svg xmlns="http://www.w3.org/2000/svg" width="100" height="100" fill="#000" viewBox="0 0 50 50"><path d="M 24 2 C 22.34375 2 21 3.34375 21 5 C 21 6.273438 21.808594 7.410156 23.011719 7.828125 C 23.011719 7.832031 23.011719 7.832031 23.011719 7.832031 C 23.003906 7.886719 23 7.945313 23 8 L 23 11 C 23 11.058594 23.003906 11.113281 23.015625 11.171875 C 22.011719 11.519531 21.269531 12.371094 21.0625 13.410156 L 17.78125 13.878906 C 17.324219 12.742188 16.222656 12 15 12 C 13.34375 12 12 13.34375 12 15 C 12 15.835938 12.351563 16.636719 12.96875 17.203125 L 12.117188 24.003906 C 12.078125 24 12.039063 24 12 24 C 10.34375 24 9 25.34375 9 27 C 9 27.738281 9.273438 28.449219 9.765625 29 L 6.023438 34.183594 C 5.695313 34.0625 5.347656 34 5 34 C 3.34375 34 2 35.34375 2 37 C 2 38.65625 3.34375 40 5 40 C 6.65625 40 8 38.65625 8 37 C 8 36.457031 7.847656 35.921875 7.570313 35.457031 L 11.539063 29.964844 C 11.691406 29.988281 11.84375 30 12 30 C 13.65625 30 15 28.65625 15 27 C 15 26.164063 14.648438 25.363281 14.03125 24.796875 L 14.882813 17.996094 C 14.921875 18 14.960938 18 15 18 C 16.3125 18 17.476563 17.140625 17.863281 15.886719 L 21.34375 15.390625 C 21.695313 16.0625 22.292969 16.578125 23.011719 16.828125 C 23.011719 16.832031 23.011719 16.832031 23.011719 16.832031 C 23.003906 16.886719 23 16.945313 23 17 L 23 20.175781 C 21.804688 20.597656 21 21.730469 21 23 C 21 24.273438 21.808594 25.410156 23.011719 25.828125 C 23.011719 25.832031 23.011719 25.832031 23.011719 25.832031 C 23.003906 25.886719 23 25.945313 23 26 L 23 29.175781 C 21.804688 29.597656 21 30.730469 21 32 C 21 33.273438 21.808594 34.410156 23.011719 34.828125 C 23.011719 34.832031 23.011719 34.832031 23.011719 34.832031 C 23.003906 34.886719 23 34.945313 23 35 L 23 38.175781 C 22.148438 38.476563 21.476563 39.148438 21.171875 40 L 18.824219 40 C 18.402344 38.804688 17.269531 38 16 38 C 14.34375 38 13 39.34375 13 41 C 13 42.269531 13.800781 43.402344 15 43.828125 L 15 47 C 14.996094 47.359375 15.183594 47.695313 15.496094 47.878906 C 15.808594 48.058594 16.191406 48.058594 16.503906 47.878906 C 16.816406 47.695313 17.003906 47.359375 17 47 L 17 43.824219 C 17.851563 43.523438 18.523438 42.851563 18.828125 42 L 21.175781 42 C 21.597656 43.195313 22.730469 44 24 44 C 25.269531 44 26.402344 43.199219 26.828125 42 L 29.175781 42 C 29.476563 42.851563 30.148438 43.523438 31 43.828125 L 31 47 C 30.996094 47.359375 31.183594 47.695313 31.496094 47.878906 C 31.808594 48.058594 32.191406 48.058594 32.503906 47.878906 C 32.816406 47.695313 33.003906 47.359375 33 47 L 33 43.824219 C 34.195313 43.402344 35 42.269531 35 41 C 35 39.34375 33.65625 38 32 38 C 30.730469 38 29.597656 38.800781 29.171875 40 L 26.824219 40 C 26.523438 39.148438 25.851563 38.476563 25 38.171875 L 25 35 C 25 34.941406 24.996094 34.886719 24.984375 34.828125 C 26.191406 34.410156 27 33.277344 27 32 C 27 30.730469 26.199219 29.597656 25 29.171875 L 25 26 C 25 25.941406 24.996094 25.886719 24.984375 25.828125 C 26.191406 25.410156 27 24.277344 27 23 C 27 21.730469 26.199219 20.597656 25 20.171875 L 25 17 C 25 16.941406 24.996094 16.886719 24.984375 16.828125 C 25.988281 16.480469 26.730469 15.628906 26.9375 14.589844 L 30.21875 14.121094 C 30.675781 15.257813 31.777344 16 33 16 C 33.039063 16 33.078125 15.996094 33.117188 15.996094 L 33.894531 22.214844 C 32.753906 22.667969 32 23.769531 32 25 C 32 26.65625 33.34375 28 35 28 C 36.367188 28 37.558594 27.074219 37.902344 25.753906 L 42.859375 24.101563 C 43.425781 24.675781 44.195313 25 45 25 C 46.65625 25 48 23.65625 48 22 C 48 20.34375 46.65625 19 45 19 C 43.34375 19 42 20.34375 42 22 C 42 22.089844 42.003906 22.183594 42.015625 22.273438 L 37.703125 23.710938 C 37.347656 22.960938 36.695313 22.390625 35.902344 22.140625 L 35.03125 15.203125 C 35.648438 14.632813 36 13.835938 36 13 C 36 11.34375 34.65625 10 33 10 C 31.6875 10 30.523438 10.859375 30.136719 12.113281 L 26.65625 12.609375 C 26.304688 11.9375 25.707031 11.421875 24.988281 11.171875 C 24.996094 11.113281 25 11.058594 25 11 L 25 8 C 25 7.941406 24.996094 7.886719 24.984375 7.828125 C 26.191406 7.410156 27 6.277344 27 5 C 27 3.34375 25.65625 2 24 2 Z"/></svg>