<svg xmlns="http://www.w3.org/2000/svg" width="300" height="300" fill="#000" viewBox="0 0 50 50"><path d="M 38.316406 2.007813 C 37.964844 1.996094 37.617188 2.003906 37.265625 2.03125 C 36.332031 2.097656 35.40625 2.296875 34.519531 2.625 L 34.515625 2.625 L 34.507813 2.628906 C 34.394531 2.671875 34.355469 2.691406 34.390625 2.679688 L 32.953125 3.230469 L 46.761719 17.035156 L 47.316406 15.609375 C 47.324219 15.585938 47.371094 15.492188 47.433594 15.324219 C 48.667969 11.808594 47.875 7.734375 45.066406 4.929688 C 43.199219 3.0625 40.769531 2.085938 38.316406 2.007813 Z M 11.574219 2.007813 C 9.15625 2.113281 6.769531 3.089844 4.929688 4.929688 C 2.082031 7.777344 1.308594 11.925781 2.625 15.480469 L 2.625 15.488281 C 2.671875 15.605469 2.691406 15.640625 2.675781 15.605469 L 3.226563 17.042969 L 17.035156 3.234375 L 15.605469 2.679688 C 15.582031 2.671875 15.492188 2.625 15.324219 2.566406 C 14.441406 2.257813 13.53125 2.074219 12.609375 2.019531 C 12.265625 2 11.917969 1.996094 11.574219 2.007813 Z M 11.660156 4.007813 C 11.9375 3.996094 12.214844 3.996094 12.488281 4.015625 C 12.753906 4.03125 13.007813 4.128906 13.269531 4.171875 L 4.171875 13.269531 C 3.773438 10.824219 4.449219 8.238281 6.34375 6.34375 C 7.824219 4.863281 9.730469 4.085938 11.660156 4.007813 Z M 38.25 4.007813 C 40.207031 4.066406 42.152344 4.84375 43.65625 6.34375 C 45.546875 8.238281 46.222656 10.824219 45.828125 13.273438 L 36.722656 4.171875 C 36.953125 4.132813 37.175781 4.039063 37.40625 4.023438 C 37.6875 4.003906 37.96875 3.996094 38.25 4.007813 Z M 25 6 C 13.414063 6 4 15.414063 4 27 C 4 32.6875 6.277344 37.84375 9.957031 41.628906 L 5.292969 46.292969 C 5.03125 46.542969 4.925781 46.917969 5.019531 47.265625 C 5.109375 47.617188 5.382813 47.890625 5.734375 47.980469 C 6.082031 48.074219 6.457031 47.96875 6.707031 47.707031 L 11.421875 42.996094 C 15.085938 46.109375 19.820313 48 25 48 C 30.179688 48 34.914063 46.109375 38.578125 42.996094 L 43.292969 47.707031 C 43.542969 47.96875 43.917969 48.074219 44.265625 47.980469 C 44.617188 47.890625 44.890625 47.617188 44.980469 47.265625 C 45.074219 46.917969 44.96875 46.542969 44.707031 46.292969 L 40.042969 41.628906 C 43.722656 37.84375 46 32.6875 46 27 C 46 15.414063 36.585938 6 25 6 Z M 25 8 C 35.503906 8 44 16.496094 44 27 C 44 37.503906 35.503906 46 25 46 C 14.496094 46 6 37.503906 6 27 C 6 16.496094 14.496094 8 25 8 Z M 24.984375 15.984375 C 24.433594 15.996094 23.992188 16.449219 24 17 L 24 26 L 15 26 C 14.640625 25.996094 14.304688 26.183594 14.121094 26.496094 C 13.941406 26.808594 13.941406 27.191406 14.121094 27.503906 C 14.304688 27.816406 14.640625 28.003906 15 28 L 24 28 L 24 37 C 23.996094 37.359375 24.183594 37.695313 24.496094 37.878906 C 24.808594 38.058594 25.191406 38.058594 25.503906 37.878906 C 25.816406 37.695313 26.003906 37.359375 26 37 L 26 28 L 35 28 C 35.359375 28.003906 35.695313 27.816406 35.878906 27.503906 C 36.058594 27.191406 36.058594 26.808594 35.878906 26.496094 C 35.695313 26.183594 35.359375 25.996094 35 26 L 26 26 L 26 17 C 26.003906 16.730469 25.898438 16.46875 25.707031 16.277344 C 25.515625 16.085938 25.253906 15.980469 24.984375 15.984375 Z"/></svg>