<svg fill="#000000" xmlns="http://www.w3.org/2000/svg" viewBox="0 0 80 80" width="300px" height="300px"><path d="M 15 9 L 15 71 L 65 71 L 65 23.585938 L 50.414062 9 L 50 9 L 15 9 z M 17 11 L 49 11 L 49 25 L 63 25 L 63 69 L 17 69 L 17 11 z M 51 12.414062 L 61.585938 23 L 51 23 L 51 12.414062 z M 22 13 A 1 1 0 0 0 21 14 A 1 1 0 0 0 22 15 A 1 1 0 0 0 23 14 A 1 1 0 0 0 22 13 z M 22 17 A 1 1 0 0 0 21 18 A 1 1 0 0 0 22 19 A 1 1 0 0 0 23 18 A 1 1 0 0 0 22 17 z M 22 21 A 1 1 0 0 0 21 22 A 1 1 0 0 0 22 23 A 1 1 0 0 0 23 22 A 1 1 0 0 0 22 21 z M 22 25 A 1 1 0 0 0 21 26 A 1 1 0 0 0 22 27 A 1 1 0 0 0 23 26 A 1 1 0 0 0 22 25 z M 22 29 A 1 1 0 0 0 21 30 A 1 1 0 0 0 22 31 A 1 1 0 0 0 23 30 A 1 1 0 0 0 22 29 z M 22 33 A 1 1 0 0 0 21 34 A 1 1 0 0 0 22 35 A 1 1 0 0 0 23 34 A 1 1 0 0 0 22 33 z M 22 37 A 1 1 0 0 0 21 38 A 1 1 0 0 0 22 39 A 1 1 0 0 0 23 38 A 1 1 0 0 0 22 37 z M 44.033203 40.962891 L 46.652344 45.427734 L 44.019531 49.962891 L 46.1875 49.962891 L 47.876953 47.044922 L 47.986328 47.044922 L 49.65625 49.962891 L 51.947266 49.962891 L 49.253906 45.447266 L 51.978516 40.962891 L 49.722656 40.962891 L 48.105469 44 L 48 44 L 46.40625 40.962891 L 44.033203 40.962891 z M 22 41 A 1 1 0 0 0 21 42 A 1 1 0 0 0 22 43 A 1 1 0 0 0 23 42 A 1 1 0 0 0 22 41 z M 28 41 L 28 50 L 30 50 L 30 47 L 33.572266 47 L 33.572266 45 L 30 45 L 30 43 L 34 43 L 34 41 L 28 41 z M 36 41 L 36 50 L 40.228516 50 C 42.155516 50 43.365234 48.988156 43.365234 47.410156 C 43.365234 46.263156 42.491641 45.307422 41.306641 45.232422 C 42.254641 45.095422 43 44.205141 43 43.244141 C 43 41.847141 41.951969 41 40.167969 41 L 36 41 z M 38 42.552734 L 39.697266 42.552734 C 40.513266 42.552734 40.988281 42.959953 40.988281 43.626953 C 40.988281 44.293953 40.477938 44.691406 39.585938 44.691406 L 38 44.691406 L 38 42.552734 z M 22 45 A 1 1 0 0 0 21 46 A 1 1 0 0 0 22 47 A 1 1 0 0 0 23 46 A 1 1 0 0 0 22 45 z M 38 46.039062 L 39.609375 46.039062 C 40.607375 46.039062 41.169922 46.457609 41.169922 47.224609 C 41.169922 48.015609 40.627719 48.447266 39.636719 48.447266 L 38 48.447266 L 38 46.039062 z M 22 49 A 1 1 0 0 0 21 50 A 1 1 0 0 0 22 51 A 1 1 0 0 0 23 50 A 1 1 0 0 0 22 49 z M 22 53 A 1 1 0 0 0 21 54 A 1 1 0 0 0 22 55 A 1 1 0 0 0 23 54 A 1 1 0 0 0 22 53 z M 22 57 A 1 1 0 0 0 21 58 A 1 1 0 0 0 22 59 A 1 1 0 0 0 23 58 A 1 1 0 0 0 22 57 z M 22 61 A 1 1 0 0 0 21 62 A 1 1 0 0 0 22 63 A 1 1 0 0 0 23 62 A 1 1 0 0 0 22 61 z M 22 65 A 1 1 0 0 0 21 66 A 1 1 0 0 0 22 67 A 1 1 0 0 0 23 66 A 1 1 0 0 0 22 65 z"/></svg>