<svg xmlns="http://www.w3.org/2000/svg" viewBox="0 0 48 48" width="300px" height="300px"><path fill="#B0BEC5" d="M37.502,8.881C34.141,8.332,29.057,8,23.999,8c-5.06,0-10.138,0.332-13.498,0.881c-4.894,0.797-6.72,0.945-6.48,5.34c0.775,13.997,3.665,21.219,3.665,21.219c0.218,1.265,1.72,3.376,6.956,4.024C17.835,39.841,21.11,40,24.006,40c2.902,0,6.16-0.159,9.354-0.536c5.236-0.648,6.738-2.76,6.961-4.024c0,0,2.885-7.222,3.659-21.219C44.22,9.826,42.395,9.678,37.502,8.881z"/><path fill="#455A64" d="M33.691,14.517c0,0-1.266-0.517-9.691-0.517c-8.426,0-9.691,0.517-9.691,0.517C11.448,15.083,10,15.875,10,19.792c0,0,0.185,3.884,0.597,7.233c0.413,3.35,1.057,6.475,1.057,6.475c0.615,2.458,0.804,3.667,3.217,4.042c0,0,3.511,0.458,9.129,0.458c5.617,0,9.129-0.458,9.129-0.458c2.414-0.375,2.603-1.584,3.217-4.042c0,0,0.645-3.125,1.058-6.475S38,19.792,38,19.792C38,15.875,36.552,15.083,33.691,14.517z"/><path fill="#263238" d="M24,18c5.313,0,11.586,0,13.999,1.745c-0.013-3.874-1.46-4.665-4.308-5.229c0,0-1.266-0.517-9.691-0.517c-8.426,0-9.691,0.517-9.691,0.517c-2.848,0.563-4.295,1.354-4.308,5.229C12.414,18,18.688,18,24,18z"/><path fill="#00E5FF" d="M16.5 32A1.5 1.5 0 1 0 16.5 35 1.5 1.5 0 1 0 16.5 32zM21.5 32A1.5 1.5 0 1 0 21.5 35 1.5 1.5 0 1 0 21.5 32zM26.5 32A1.5 1.5 0 1 0 26.5 35 1.5 1.5 0 1 0 26.5 32zM31.5 32A1.5 1.5 0 1 0 31.5 35 1.5 1.5 0 1 0 31.5 32z"/></svg>