<svg xmlns="http://www.w3.org/2000/svg" width="100" height="100" fill="#000" viewBox="0 0 30 30"><path d="M 7.5214844 4 C 5.9641658 3.9925029 4.2913906 4.6662031 2.9785156 5.9785156 C 0.64551562 8.3125156 0.33039063 11.780609 2.2753906 13.724609 C 3.3044916 14.75371 4.7599297 15.132321 6.2480469 14.931641 C 6.0914202 15.596694 6 16.287092 6 17 C 6 21.971 10.029 26 15 26 C 19.971 26 24 21.971 24 17 C 24 16.287092 23.90858 15.596694 23.751953 14.931641 C 25.24007 15.132321 26.695508 14.75371 27.724609 13.724609 C 29.669609 11.779609 29.354484 8.3115156 27.021484 5.9785156 C 24.687484 3.6455156 21.219391 3.3303906 19.275391 5.2753906 C 18.414437 6.1363447 17.998034 7.2961879 18.001953 8.5234375 C 17.061759 8.1903488 16.054421 8 15 8 C 13.945579 8 12.938241 8.1903488 11.998047 8.5234375 C 12.001966 7.2961879 11.585563 6.1363447 10.724609 5.2753906 C 9.8736719 4.4244531 8.7327322 4.0058311 7.5214844 4 z"/></svg>