<svg xmlns="http://www.w3.org/2000/svg" width="100" height="100" fill="#000" viewBox="0 0 64 64"><path d="M 16.285156 5.015625 C 12.453125 5.074219 8.304688 6.816406 5.015625 10.105469 C -0.835938 15.953125 -1.789063 24.519531 2.890625 29.199219 C 4.4375 30.746094 6.445313 31.71875 8.746094 32.042969 C 8.683594 32.28125 8.640625 32.527344 8.585938 32.765625 C 8.554688 32.902344 8.515625 33.03125 8.488281 33.164063 C 8.484375 33.175781 8.492188 33.191406 8.488281 33.203125 C 8.167969 34.773438 8 36.378906 8 38 C 8 41.164063 8.621094 44.183594 9.738281 46.953125 C 9.75 46.992188 9.761719 47.027344 9.78125 47.0625 C 13.367188 55.816406 21.972656 62 32 62 C 45.234375 62 56 51.234375 56 38 C 56 35.980469 55.75 33.980469 55.253906 32.046875 C 57.554688 31.71875 59.558594 30.746094 61.109375 29.199219 C 63.410156 26.898438 64.433594 23.621094 63.996094 19.972656 C 63.570313 16.414063 61.792969 12.910156 58.988281 10.105469 C 53.136719 4.257813 44.570313 3.304688 39.890625 7.984375 C 38.207031 9.671875 37.195313 11.957031 36.96875 14.519531 C 36.472656 14.414063 35.96875 14.332031 35.464844 14.257813 C 35.390625 14.246094 35.320313 14.230469 35.246094 14.21875 C 35.226563 14.214844 35.207031 14.222656 35.1875 14.21875 C 32.476563 13.859375 29.703125 13.953125 27.03125 14.519531 C 26.808594 11.957031 25.792969 9.671875 24.109375 7.984375 C 22.058594 5.9375 19.269531 4.96875 16.285156 5.015625 Z M 16.496094 7 C 18.953125 7 21.121094 7.832031 22.691406 9.402344 C 24.289063 11 25.109375 13.199219 25.074219 15.761719 C 25.066406 16.074219 25.210938 16.371094 25.457031 16.5625 C 25.703125 16.757813 26.027344 16.820313 26.328125 16.742188 C 29.296875 15.953125 32.421875 15.808594 35.453125 16.285156 C 35.820313 16.34375 36.183594 16.40625 36.542969 16.484375 C 36.785156 16.535156 37.023438 16.589844 37.265625 16.648438 C 38.984375 17.070313 40.648438 17.6875 42.226563 18.515625 C 42.375 18.597656 42.535156 18.632813 42.691406 18.632813 C 43.050781 18.632813 43.398438 18.441406 43.578125 18.097656 C 43.835938 17.609375 43.648438 17.003906 43.15625 16.75 C 41.804688 16.035156 40.394531 15.472656 38.941406 15.035156 C 39.058594 12.78125 39.863281 10.84375 41.308594 9.398438 C 45.207031 5.5 52.503906 6.453125 57.574219 11.519531 C 60.058594 14.007813 61.636719 17.09375 62.011719 20.210938 C 62.375 23.238281 61.550781 25.925781 59.691406 27.785156 C 58.234375 29.246094 56.238281 30.066406 53.925781 30.160156 C 53.613281 30.171875 53.328125 30.328125 53.148438 30.582031 C 52.96875 30.835938 52.917969 31.15625 53.011719 31.453125 C 53.667969 33.566406 54 35.769531 54 38 C 54 40.109375 53.695313 42.144531 53.140625 44.078125 C 51.640625 41.820313 49.4375 40.269531 46.957031 39.789063 C 47.238281 38.441406 47.378906 37.035156 47.378906 35.59375 C 47.378906 27.96875 43.542969 22 38.644531 22 C 36.027344 22 33.644531 23.71875 32.015625 26.695313 C 30.382813 23.71875 28.003906 22 25.386719 22 C 20.488281 22 16.652344 27.96875 16.652344 35.59375 C 16.652344 37.03125 16.792969 38.4375 17.070313 39.785156 C 14.5625 40.265625 12.359375 41.816406 10.863281 44.09375 C 10.304688 42.15625 10 40.113281 10 38 C 10 36.410156 10.175781 34.835938 10.511719 33.296875 C 10.566406 33.050781 10.628906 32.804688 10.691406 32.5625 C 10.761719 32.28125 10.835938 31.996094 10.921875 31.71875 C 11.351563 30.265625 11.925781 28.863281 12.648438 27.527344 C 12.914063 27.042969 12.730469 26.433594 12.246094 26.171875 C 11.757813 25.90625 11.15625 26.085938 10.890625 26.574219 C 10.277344 27.707031 9.765625 28.886719 9.34375 30.097656 C 7.339844 29.878906 5.609375 29.089844 4.304688 27.785156 C 2.449219 25.929688 1.625 23.238281 1.988281 20.214844 C 2.363281 17.097656 3.9375 14.007813 6.425781 11.519531 C 8.914063 9.035156 12 7.457031 15.117188 7.085938 C 15.585938 7.027344 16.042969 7 16.496094 7 Z M 45.984375 18.839844 C 45.730469 18.871094 45.484375 19 45.316406 19.21875 C 44.976563 19.65625 45.054688 20.28125 45.492188 20.621094 C 46.296875 21.246094 47.066406 21.9375 47.777344 22.667969 C 47.972656 22.871094 48.234375 22.96875 48.496094 22.96875 C 48.746094 22.96875 48.996094 22.875 49.191406 22.6875 C 49.585938 22.300781 49.597656 21.667969 49.214844 21.273438 C 48.4375 20.476563 47.597656 19.726563 46.71875 19.042969 C 46.503906 18.875 46.234375 18.808594 45.984375 18.839844 Z M 25.386719 24 C 27.65625 24 29.835938 26.09375 31.074219 29.464844 C 31.21875 29.859375 31.59375 30.121094 32.015625 30.121094 C 32.433594 30.121094 32.808594 29.859375 32.953125 29.464844 C 34.191406 26.09375 36.375 24 38.644531 24 C 42.292969 24 45.378906 29.308594 45.378906 35.59375 C 45.378906 37.257813 45.171875 38.871094 44.761719 40.378906 C 44.683594 40.671875 44.738281 40.980469 44.914063 41.226563 C 45.089844 41.472656 45.371094 41.621094 45.671875 41.640625 C 48.464844 41.796875 50.980469 43.691406 52.253906 46.582031 C 48.90625 54.460938 41.085938 60 32 60 C 22.929688 60 15.128906 54.484375 11.765625 46.628906 C 13.035156 43.707031 15.523438 41.800781 18.359375 41.640625 C 18.660156 41.625 18.9375 41.472656 19.113281 41.226563 C 19.289063 40.980469 19.347656 40.671875 19.265625 40.378906 C 18.859375 38.871094 18.652344 37.257813 18.652344 35.59375 C 18.652344 29.308594 21.734375 24 25.386719 24 Z M 22.375 50.394531 C 21.984375 50.347656 21.589844 50.527344 21.386719 50.886719 L 20.386719 52.621094 C 20.109375 53.097656 20.273438 53.707031 20.75 53.984375 C 20.90625 54.074219 21.078125 54.121094 21.25 54.121094 C 21.59375 54.121094 21.929688 53.941406 22.113281 53.621094 L 23.113281 51.886719 C 23.390625 51.410156 23.230469 50.796875 22.75 50.519531 C 22.628906 50.453125 22.503906 50.410156 22.375 50.394531 Z M 41.625 50.394531 C 41.496094 50.410156 41.371094 50.453125 41.25 50.519531 C 40.769531 50.796875 40.609375 51.410156 40.886719 51.890625 L 41.886719 53.621094 C 42.070313 53.941406 42.40625 54.121094 42.75 54.121094 C 42.921875 54.121094 43.09375 54.078125 43.25 53.984375 C 43.730469 53.710938 43.890625 53.097656 43.613281 52.621094 L 42.613281 50.890625 C 42.410156 50.53125 42.011719 50.347656 41.625 50.394531 Z M 26.8125 52.34375 C 26.429688 52.398438 26.09375 52.675781 25.984375 53.078125 L 25.46875 55.011719 C 25.324219 55.542969 25.644531 56.089844 26.175781 56.234375 C 26.261719 56.257813 26.351563 56.269531 26.4375 56.269531 C 26.878906 56.269531 27.28125 55.972656 27.402344 55.527344 L 27.917969 53.59375 C 28.0625 53.0625 27.746094 52.511719 27.214844 52.371094 C 27.078125 52.332031 26.941406 52.324219 26.8125 52.34375 Z M 37.1875 52.34375 C 37.058594 52.324219 36.921875 52.332031 36.785156 52.371094 C 36.253906 52.511719 35.9375 53.0625 36.078125 53.59375 L 36.597656 55.527344 C 36.71875 55.972656 37.121094 56.269531 37.5625 56.269531 C 37.648438 56.269531 37.734375 56.257813 37.824219 56.234375 C 38.355469 56.089844 38.671875 55.542969 38.53125 55.011719 L 38.015625 53.078125 C 37.90625 52.675781 37.570313 52.398438 37.1875 52.34375 Z M 32 53 C 31.449219 53 31 53.449219 31 54 L 31 56 C 31 56.550781 31.449219 57 32 57 C 32.550781 57 33 56.550781 33 56 L 33 54 C 33 53.449219 32.550781 53 32 53 Z"/></svg>