<svg xmlns="http://www.w3.org/2000/svg" width="100" height="100" viewBox="0 0 24 24"><path d="M18,22H6c-1.1,0-2-0.9-2-2v-3h2v3h12V7.8L14.2,4H6v6H4V4c0-1.1,0.9-2,2-2h9l5,5v13C20,21.1,19.1,22,18,22z"/><path d="M18.5 8L14 8 14 3.5z"/><path d="M13.6,3H6C5.4,3,5,3.4,5,4v6h12v7H5v3c0,0.6,0.4,1,1,1h12c0.6,0,1-0.4,1-1 V8.4L13.6,3z" opacity=".3"/><path d="M9.5 14H9v1h.5c.3 0 .5-.2.5-.5S9.8 14 9.5 14zM9.5 12H9v1h.5c.3 0 .5-.2.5-.5S9.8 12 9.5 12z"/><path d="M4,9c-1.1,0-2,0.9-2,2v5c0,1.1,0.9,2,2,2h15V9H4z M7,12H5v1h1.6v1H5v2H4v-5h3V12z M11,14.5c0,0.8-0.7,1.5-1.5,1.5H8v-5h1.5 c0.8,0,1.5,0.7,1.5,1.5c0,0.4-0.1,0.7-0.4,1C10.9,13.8,11,14.1,11,14.5z M14.7,16L14,14.3L13.3,16H12l1.3-2.5L12,11h1.2l0.7,1.7 l0.7-1.7H16l-1.3,2.5L16,16H14.7z"/></svg>