<svg xmlns="http://www.w3.org/2000/svg" width="100" height="100" viewBox="0 0 48 48"><path fill="#1976D2" d="M17.46 27c-1.099 1.225-2.688 2-4.46 2h-3c-3.308 0-6-2.691-6-6s2.692-6 6-6h3c1.772 0 3.361.775 4.46 2h4.7c-1.547-3.527-5.068-6-9.16-6h-3C4.486 13 0 17.486 0 23s4.486 10 10 10h3c4.092 0 7.613-2.473 9.16-6H17.46zM38 13h-3c-4.092 0-7.612 2.473-9.158 6h4.699c1.1-1.225 2.688-2 4.459-2h3c3.31 0 6 2.691 6 6s-2.69 6-6 6h-3c-1.771 0-3.359-.775-4.459-2h-4.699c1.546 3.527 5.066 6 9.158 6h3c5.515 0 10-4.486 10-10S43.515 13 38 13"/><g><path fill="#00BCD4" d="M19.474 4L16 5.985 22.056 14.088 23.38 13.331zM28.527 4L32 5.985 25.945 14.088 24.621 13.331zM28.527 44L32 42.016 25.945 33.912 24.621 34.669zM19.474 44L16 42.016 22.056 33.912 23.38 34.669z"/></g></svg>