<svg xmlns="http://www.w3.org/2000/svg" width="500" height="500" viewBox="0 0 128 128"><path fill="#fff" d="M44 109L14 89 14 24 79 24 109 44"/><path fill="#cadbea" d="M44 44H109V109H44z"/><path fill="#3f4a54" d="M29,102c-0.6,0-1.1-0.2-1.7-0.5l-15-10C11.5,90.9,11,90,11,89V24c0-1.7,1.3-3,3-3h65c0.6,0,1.2,0.2,1.7,0.5l30,20c1.4,0.9,1.8,2.8,0.8,4.2c-0.9,1.4-2.8,1.8-4.2,0.8L78.1,27H17v60.4l13.7,9.1c1.4,0.9,1.8,2.8,0.8,4.2C30.9,101.5,30,102,29,102z"/><path fill="#3f4a54" d="M29 37c-.6 0-1.1-.2-1.7-.5l-15-10c-1.4-.9-1.8-2.8-.8-4.2.9-1.4 2.8-1.8 4.2-.8l15 10c1.4.9 1.8 2.8.8 4.2C30.9 36.5 30 37 29 37zM109 112H44c-1.7 0-3-1.3-3-3V44c0-1.7 1.3-3 3-3h65c1.7 0 3 1.3 3 3v65C112 110.7 110.7 112 109 112zM47 106h59V47H47V106zM34 92H14c-1.7 0-3-1.3-3-3s1.3-3 3-3h20c1.7 0 3 1.3 3 3S35.7 92 34 92zM79 37c-1.7 0-3-1.3-3-3V24c0-1.7 1.3-3 3-3s3 1.3 3 3v10C82 35.7 80.7 37 79 37z"/></svg>