<svg xmlns="http://www.w3.org/2000/svg" width="50" height="50" viewBox="0 0 128 128"><path fill="#fff" d="M64 14A50 50 0 1 0 64 114A50 50 0 1 0 64 14Z"/><path fill="#1fd4af" d="M102 82A20 20 0 1 0 102 122A20 20 0 1 0 102 82Z"/><path fill="#fff" d="M109,99h-4v-4c0-1.7-1.3-3-3-3s-3,1.3-3,3v4h-4c-1.7,0-3,1.3-3,3s1.3,3,3,3h4v4c0,1.7,1.3,3,3,3s3-1.3,3-3v-4h4c1.7,0,3-1.3,3-3S110.7,99,109,99z"/><g><path fill="#444b54" d="M64,117c-29.2,0-53-23.8-53-53s23.8-53,53-53s53,23.8,53,53c0,1.6-0.1,3.3-0.2,4.9c-0.2,1.6-1.6,2.9-3.3,2.7c-1.6-0.2-2.9-1.6-2.7-3.3c0.1-1.4,0.2-2.9,0.2-4.3c0-25.9-21.1-47-47-47S17,38.1,17,64s21.1,47,47,47c1.5,0,3-0.1,4.5-0.2c1.6-0.2,3.1,1.1,3.3,2.7s-1.1,3.1-2.7,3.3C67.4,116.9,65.7,117,64,117z"/></g><g><path fill="#444b54" d="M89,61H73.5c-1-3.1-3.4-5.6-6.5-6.5V29c0-1.7-1.3-3-3-3s-3,1.3-3,3v25.5c-4.1,1.3-7,5.1-7,9.5c0,5.5,4.5,10,10,10c4.5,0,8.3-2.9,9.5-7H89c1.7,0,3-1.3,3-3S90.7,61,89,61z M64,68c-2.2,0-4-1.8-4-4s1.8-4,4-4s4,1.8,4,4S66.2,68,64,68z"/></g></svg>