<svg xmlns="http://www.w3.org/2000/svg" width="500" height="500" viewBox="0 0 48 48"><path fill="#bbdefb" d="M29.5,5C24.806,5,21,8.806,21,13.5s3.806,8.5,8.5,8.5s8.5-3.806,8.5-8.5S34.194,5,29.5,5z"/><path fill="#bbdefb" d="M37,14.893c-3.866,0-7,3.134-7,7s3.134,7,7,7s7-3.134,7-7S40.866,14.893,37,14.893z M11,15	c-3.866,0-7,3.134-7,7s3.134,7,7,7s7-3.134,7-7S14.866,15,11,15z"/><path fill="#bbdefb" d="M17.5,8c-3.59,0-6.5,2.91-6.5,6.5s2.91,6.5,6.5,6.5s6.5-2.91,6.5-6.5S21.09,8,17.5,8z"/><path fill="#bbdefb" d="M25,12.893c-3.866,0-7,3.134-7,7s3.134,7,7,7s7-3.134,7-7S28.866,12.893,25,12.893z"/><path fill="#bbdefb" d="M7,25c0,2.209,1.791,4,4,4h25c2.209,0,4-1.791,4-4v-1c0-2.209-1.791-4-4-4H11c-2.209,0-4,1.791-4,4	V25z"/><path fill="#616161" d="M21,31h20v-4.648C41,25.053,40.005,24,38.778,24H23.222C21.995,24,21,25.053,21,26.352V31z"/><path fill="#424242" d="M23,37h16c1.105,0,2-0.895,2-2v-4H21v4C21,36.105,21.895,37,23,37z"/><rect width="12" height="2.944" x="25" y="21.056" fill="#64b5f6"/><path fill="#242424" d="M38,35H24c-0.552,0-1-0.448-1-1l0,0c0-0.552,0.448-1,1-1h14c0.552,0,1,0.448,1,1l0,0 C39,34.552,38.552,35,38,35z"/><rect width="12" height="4.611" x="25" y="34.389" fill="#64b5f6"/><path fill="#1e88e5" d="M25,33h12v2H25V33z"/></svg>