<svg xmlns="http://www.w3.org/2000/svg" viewBox="0 0 48 48" width="100px" height="100px"><path fill="#FFA726" d="M20,12c0,3.314-2.687,6-6,6s-6-2.686-6-6c0-3.314,2.686-6,6-6S20,8.686,20,12 M40,12c0-3.314-2.687-6-6-6s-6,2.686-6,6c0,3.314,2.687,6,6,6S40,15.314,40,12"/><path fill="#607D8B" d="M24,28H4v-3c0,0,2.767-5,10-5c7.232,0,10,5,10,5V28z M44,25c0,0-2.768-5-10-5c-7.233,0-10,5-10,5v3h20V25z"/><path fill="#2196F3" d="M37,42v-4h-8v-4h8v-4l7,6L37,42z M11,30l-7,6l7,6v-4h8v-4h-8V30z M25,38h2v-4h-2V38z M21,38h2v-4h-2V38z"/></svg>