<svg xmlns="http://www.w3.org/2000/svg" width="300" height="300" viewBox="0 0 48 48"><path fill="#ffca28" d="M44,24c0,11-9,20-20,20S4,35,4,24S13,4,24,4S44,13,44,24z"/><path fill="#b76c09" d="M21.8 16.8L20.2 18c0 0-1.3-1.6-3.2-1.6S13.8 18 13.8 18l-1.6-1.2c.1-.1 1.8-2.4 4.8-2.4S21.7 16.7 21.8 16.8zM35.8 16.8L34.2 18c0 0-1.3-1.6-3.2-1.6-1.9 0-3.2 1.6-3.2 1.6l-1.6-1.2c.1-.1 1.8-2.4 4.8-2.4S35.7 16.7 35.8 16.8zM32.6 23.4l1.2 1.6c0 0-1.6 1.3-1.6 3.2 0 1.9 1.6 3.2 1.6 3.2L32.6 33c-.1-.1-2.4-1.8-2.4-4.8S32.5 23.5 32.6 23.4zM15.4 33l-1.2-1.6c0 0 1.6-1.3 1.6-3.2 0-1.9-1.6-3.2-1.6-3.2l1.2-1.6c.1.1 2.4 1.8 2.4 4.8S15.5 32.9 15.4 33z"/><path fill="none" stroke="#b76c09" stroke-miterlimit="10" stroke-width="2" d="M17,28c4.8,1.6,9.5,1.6,14,0"/><path fill="#ff8080" d="M10 25A3 3 0 1 0 10 31 3 3 0 1 0 10 25zM38 25A3 3 0 1 0 38 31 3 3 0 1 0 38 25z"/></svg>