<svg xmlns="http://www.w3.org/2000/svg" width="50" height="50" viewBox="0 0 48 48"><path fill="#CFD8DC" d="M36,6H8c-2.209,0-4,1.791-4,4v17c0,2.209,1.791,4,4,4h28c2.209,0,4-1.791,4-4V10C40,7.791,38.209,6,36,6z"/><path fill="#9C27B0" d="M44 29L35 21 35 37z"/><path fill="#9C27B0" d="M36,31.999c0,0-5-0.001-6,0s-1,0.997-1,0.997V41h-6v-9.001C23,28.69,25.691,26,29,26h7V31.999z"/><path fill="#78909C" d="M5.088,7.273C4.627,7.765,4.293,8.371,4.127,9.047L22,22L39.873,9.047c-0.166-0.676-0.5-1.282-0.961-1.773L22,19.53L5.088,7.273z"/></svg>