<svg xmlns="http://www.w3.org/2000/svg" viewBox="0 0 30 30" width="100px" height="100px"><path fill="#4e7ab5" d="M9.5 23H19.5V24H9.5z"/><path fill="#4e7ab5" d="M14 4H15V24.8H14z"/><path fill="#8bb7f0" d="M14.5 2.5A1 1 0 1 0 14.5 4.5A1 1 0 1 0 14.5 2.5Z"/><path fill="#4e7ab5" d="M14.5 3C14.8 3 15 3.2 15 3.5S14.8 4 14.5 4 14 3.8 14 3.5 14.2 3 14.5 3M14.5 2C13.7 2 13 2.7 13 3.5S13.7 5 14.5 5 16 4.3 16 3.5 15.3 2 14.5 2L14.5 2zM8.5 8H20.5V9H8.5z"/><path fill="#4e7ab5" d="M8 8H9V16H8z"/><path fill="#4e7ab5" d="M1.9 17H9.1V18H1.9z" transform="rotate(-33.688 5.5 17.5)"/><path fill="#4e7ab5" d="M17.7 12.2H23.299999999999997V13.2H17.7z" transform="matrix(.0039 -1 1 .0039 7.75 33.144)"/><path fill="#4e7ab5" d="M20.5 15H27.5V16H20.5zM9 23.5H10V28H9zM19 23.5H20V28H19z"/><path fill="#8bb7f0" d="M14.5 7.5A1 1 0 1 0 14.5 9.5A1 1 0 1 0 14.5 7.5Z"/><path fill="#4e7ab5" d="M14.5,8C14.8,8,15,8.2,15,8.5S14.8,9,14.5,9S14,8.8,14,8.5S14.2,8,14.5,8 M14.5,7 C13.7,7,13,7.7,13,8.5s0.7,1.5,1.5,1.5S16,9.3,16,8.5S15.3,7,14.5,7L14.5,7z"/><path fill="#8bb7f0" d="M14.5 12.5A1 1 0 1 0 14.5 14.5A1 1 0 1 0 14.5 12.5Z"/><path fill="#4e7ab5" d="M14.5,13c0.3,0,0.5,0.2,0.5,0.5S14.8,14,14.5,14S14,13.8,14,13.5S14.2,13,14.5,13 M14.5,12 c-0.8,0-1.5,0.7-1.5,1.5s0.7,1.5,1.5,1.5s1.5-0.7,1.5-1.5S15.3,12,14.5,12L14.5,12z"/><path fill="#8bb7f0" d="M14.5 17.5A1 1 0 1 0 14.5 19.5A1 1 0 1 0 14.5 17.5Z"/><path fill="#4e7ab5" d="M14.5,18c0.3,0,0.5,0.2,0.5,0.5S14.8,19,14.5,19S14,18.8,14,18.5S14.2,18,14.5,18 M14.5,17 c-0.8,0-1.5,0.7-1.5,1.5s0.7,1.5,1.5,1.5s1.5-0.7,1.5-1.5S15.3,17,14.5,17L14.5,17z"/><path fill="#8bb7f0" d="M14.5 22.5A1 1 0 1 0 14.5 24.5A1 1 0 1 0 14.5 22.5Z"/><path fill="#4e7ab5" d="M14.5,23c0.3,0,0.5,0.2,0.5,0.5S14.8,24,14.5,24S14,23.8,14,23.5S14.2,23,14.5,23 M14.5,22 c-0.8,0-1.5,0.7-1.5,1.5s0.7,1.5,1.5,1.5s1.5-0.7,1.5-1.5S15.3,22,14.5,22L14.5,22z"/><path fill="#8bb7f0" d="M9.5 22.5A1 1 0 1 0 9.5 24.5A1 1 0 1 0 9.5 22.5Z"/><path fill="#4e7ab5" d="M9.5,23c0.3,0,0.5,0.2,0.5,0.5S9.8,24,9.5,24S9,23.8,9,23.5S9.2,23,9.5,23 M9.5,22 C8.7,22,8,22.7,8,23.5S8.7,25,9.5,25s1.5-0.7,1.5-1.5S10.3,22,9.5,22L9.5,22z"/><path fill="#8bb7f0" d="M19.5 22.5A1 1 0 1 0 19.5 24.5A1 1 0 1 0 19.5 22.5Z"/><path fill="#4e7ab5" d="M19.5,23c0.3,0,0.5,0.2,0.5,0.5S19.8,24,19.5,24S19,23.8,19,23.5S19.2,23,19.5,23 M19.5,22 c-0.8,0-1.5,0.7-1.5,1.5s0.7,1.5,1.5,1.5s1.5-0.7,1.5-1.5S20.3,22,19.5,22L19.5,22z"/><g><path fill="#8bb7f0" d="M20.5 7.5A1 1 0 1 0 20.5 9.5A1 1 0 1 0 20.5 7.5Z"/><path fill="#4e7ab5" d="M20.5,8C20.8,8,21,8.2,21,8.5S20.8,9,20.5,9S20,8.8,20,8.5S20.2,8,20.5,8 M20.5,7 C19.7,7,19,7.7,19,8.5s0.7,1.5,1.5,1.5S22,9.3,22,8.5S21.3,7,20.5,7L20.5,7z"/></g><g><path fill="#8bb7f0" d="M8.5 7.5A1 1 0 1 0 8.5 9.5A1 1 0 1 0 8.5 7.5Z"/><path fill="#4e7ab5" d="M8.5,8C8.8,8,9,8.2,9,8.5S8.8,9,8.5,9S8,8.8,8,8.5S8.2,8,8.5,8 M8.5,7C7.7,7,7,7.7,7,8.5 S7.7,10,8.5,10S10,9.3,10,8.5S9.3,7,8.5,7L8.5,7z"/></g><g><path fill="#8bb7f0" d="M8.5 14.5A1 1 0 1 0 8.5 16.5A1 1 0 1 0 8.5 14.5Z"/><path fill="#4e7ab5" d="M8.5,15C8.8,15,9,15.2,9,15.5S8.8,16,8.5,16S8,15.8,8,15.5S8.2,15,8.5,15 M8.5,14 C7.7,14,7,14.7,7,15.5C7,16.3,7.7,17,8.5,17s1.5-0.7,1.5-1.5S9.3,14,8.5,14L8.5,14z"/></g><g><path fill="#8bb7f0" d="M2.5 18.5A1 1 0 1 0 2.5 20.5A1 1 0 1 0 2.5 18.5Z"/><path fill="#4e7ab5" d="M2.5,19C2.8,19,3,19.2,3,19.5S2.8,20,2.5,20S2,19.8,2,19.5S2.2,19,2.5,19 M2.5,18 C1.7,18,1,18.7,1,19.5S1.7,21,2.5,21S4,20.3,4,19.5S3.3,18,2.5,18L2.5,18z"/></g><g><path fill="#8bb7f0" d="M20.5 14.5A1 1 0 1 0 20.5 16.5A1 1 0 1 0 20.5 14.5Z"/><path fill="#4e7ab5" d="M20.5,15c0.3,0,0.5,0.2,0.5,0.5S20.8,16,20.5,16S20,15.8,20,15.5S20.2,15,20.5,15 M20.5,14 c-0.8,0-1.5,0.7-1.5,1.5c0,0.8,0.7,1.5,1.5,1.5s1.5-0.7,1.5-1.5S21.3,14,20.5,14L20.5,14z"/></g><g><path fill="#8bb7f0" d="M27.5 14.5A1 1 0 1 0 27.5 16.5A1 1 0 1 0 27.5 14.5Z"/><path fill="#4e7ab5" d="M27.5,15c0.3,0,0.5,0.2,0.5,0.5S27.8,16,27.5,16S27,15.8,27,15.5S27.2,15,27.5,15 M27.5,14 c-0.8,0-1.5,0.7-1.5,1.5c0,0.8,0.7,1.5,1.5,1.5s1.5-0.7,1.5-1.5S28.3,14,27.5,14L27.5,14z"/></g></svg>