<svg xmlns="http://www.w3.org/2000/svg" width="50" height="50" fill="#000" viewBox="0 0 50 50"><path d="M 24 2 C 22.355469 2 21 3.355469 21 5 C 21 6.300781 21.851563 7.40625 23.015625 7.820313 C 23.003906 7.878906 23 7.9375 23 8 L 23 11 C 23 11.0625 23.003906 11.121094 23.015625 11.183594 C 22.03125 11.53125 21.269531 12.371094 21.058594 13.410156 L 17.777344 13.878906 C 17.328125 12.78125 16.25 12 15 12 C 13.355469 12 12 13.355469 12 15 C 12 15.863281 12.378906 16.636719 12.96875 17.1875 L 12.113281 24.011719 C 12.078125 24.011719 12.039063 24 12 24 C 10.355469 24 9 25.355469 9 27 C 9 27.761719 9.300781 28.453125 9.773438 28.984375 L 6.015625 34.191406 C 5.695313 34.074219 5.355469 34 5 34 C 3.355469 34 2 35.355469 2 37 C 2 38.644531 3.355469 40 5 40 C 6.644531 40 8 38.644531 8 37 C 8 36.4375 7.832031 35.917969 7.5625 35.46875 L 11.546875 29.953125 C 11.695313 29.976563 11.84375 30 12 30 C 13.644531 30 15 28.644531 15 27 C 15 26.136719 14.621094 25.363281 14.03125 24.8125 L 14.886719 17.988281 C 14.921875 17.988281 14.960938 18 15 18 C 16.332031 18 17.464844 17.101563 17.847656 15.890625 L 21.359375 15.386719 C 21.714844 16.050781 22.300781 16.566406 23.015625 16.816406 C 23.003906 16.878906 23 16.9375 23 17 L 23 20.1875 C 21.84375 20.605469 21 21.707031 21 23 C 21 24.300781 21.851563 25.40625 23.015625 25.816406 C 23.003906 25.878906 23 25.9375 23 26 L 23 29.1875 C 21.84375 29.605469 21 30.707031 21 32 C 21 33.300781 21.851563 34.40625 23.015625 34.816406 C 23.003906 34.878906 23 34.9375 23 35 L 23 38.1875 C 22.15625 38.492188 21.492188 39.15625 21.1875 40 L 18.8125 40 C 18.394531 38.84375 17.292969 38 16 38 C 14.355469 38 13 39.355469 13 41 C 13 42.292969 13.84375 43.394531 15 43.8125 L 15 47 C 14.996094 47.359375 15.183594 47.695313 15.496094 47.878906 C 15.808594 48.058594 16.191406 48.058594 16.503906 47.878906 C 16.816406 47.695313 17.003906 47.359375 17 47 L 17 43.8125 C 17.84375 43.507813 18.507813 42.84375 18.8125 42 L 21.1875 42 C 21.605469 43.15625 22.707031 44 24 44 C 25.292969 44 26.394531 43.15625 26.8125 42 L 29.1875 42 C 29.492188 42.84375 30.15625 43.507813 31 43.8125 L 31 47 C 30.996094 47.359375 31.183594 47.695313 31.496094 47.878906 C 31.808594 48.058594 32.191406 48.058594 32.503906 47.878906 C 32.816406 47.695313 33.003906 47.359375 33 47 L 33 43.8125 C 34.15625 43.394531 35 42.292969 35 41 C 35 39.355469 33.644531 38 32 38 C 30.707031 38 29.605469 38.84375 29.1875 40 L 26.8125 40 C 26.507813 39.15625 25.84375 38.492188 25 38.1875 L 25 35 C 25 34.9375 24.996094 34.878906 24.984375 34.816406 C 26.148438 34.40625 27 33.300781 27 32 C 27 30.707031 26.15625 29.605469 25 29.1875 L 25 26 C 25 25.9375 24.996094 25.878906 24.984375 25.816406 C 26.148438 25.40625 27 24.300781 27 23 C 27 21.707031 26.15625 20.605469 25 20.1875 L 25 17 C 25 16.9375 24.996094 16.878906 24.984375 16.816406 C 25.96875 16.46875 26.730469 15.628906 26.941406 14.589844 L 30.222656 14.121094 C 30.671875 15.21875 31.75 16 33 16 C 33.039063 16 33.078125 15.988281 33.113281 15.988281 L 33.894531 22.21875 C 32.789063 22.664063 32 23.746094 32 25 C 32 26.644531 33.355469 28 35 28 C 36.382813 28 37.550781 27.039063 37.890625 25.757813 L 42.867188 24.097656 C 43.414063 24.652344 44.167969 25 45 25 C 46.644531 25 48 23.644531 48 22 C 48 20.355469 46.644531 19 45 19 C 43.355469 19 42 20.355469 42 22 C 42 22.09375 42.019531 22.179688 42.027344 22.269531 L 37.691406 23.714844 C 37.335938 22.976563 36.691406 22.410156 35.902344 22.15625 L 35.03125 15.1875 C 35.621094 14.636719 36 13.863281 36 13 C 36 11.355469 34.644531 10 33 10 C 31.667969 10 30.535156 10.898438 30.152344 12.109375 L 26.640625 12.613281 C 26.285156 11.949219 25.699219 11.433594 24.984375 11.183594 C 24.996094 11.121094 25 11.0625 25 11 L 25 8 C 25 7.9375 24.996094 7.878906 24.984375 7.820313 C 26.148438 7.40625 27 6.300781 27 5 C 27 3.355469 25.644531 2 24 2 Z M 24 4 C 24.5625 4 25 4.4375 25 5 C 25 5.5625 24.5625 6 24 6 C 23.4375 6 23 5.5625 23 5 C 23 4.4375 23.4375 4 24 4 Z M 33 12 C 33.5625 12 34 12.4375 34 13 C 34 13.5625 33.5625 14 33 14 C 32.457031 14 32.042969 13.59375 32.011719 13.0625 C 32.015625 13.019531 32.015625 12.976563 32.015625 12.933594 C 32.046875 12.402344 32.460938 12 33 12 Z M 24 13 C 24.496094 13 24.878906 13.347656 24.964844 13.8125 C 24.96875 13.878906 24.984375 13.9375 25 14 C 25 14.5625 24.5625 15 24 15 C 23.4375 15 23 14.5625 23 14 C 23 13.4375 23.4375 13 24 13 Z M 15 14 C 15.5625 14 16 14.4375 16 15 C 16 15.5625 15.5625 16 15 16 C 14.4375 16 14 15.5625 14 15 C 14 14.4375 14.4375 14 15 14 Z M 45 21 C 45.5625 21 46 21.4375 46 22 C 46 22.5625 45.5625 23 45 23 C 44.4375 23 44 22.5625 44 22 C 44 21.4375 44.4375 21 45 21 Z M 23.941406 22.011719 C 23.980469 22.015625 24.019531 22.015625 24.058594 22.011719 C 24.59375 22.042969 25 22.457031 25 23 C 25 23.5625 24.5625 24 24 24 C 23.4375 24 23 23.5625 23 23 C 23 22.457031 23.410156 22.042969 23.941406 22.011719 Z M 34.949219 24.011719 C 34.984375 24.011719 35.019531 24.011719 35.054688 24.011719 C 35.589844 24.039063 36 24.457031 36 25 C 36 25.5625 35.5625 26 35 26 C 34.4375 26 34 25.5625 34 25 C 34 24.453125 34.410156 24.035156 34.949219 24.011719 Z M 12 26 C 12.5625 26 13 26.4375 13 27 C 13 27.5625 12.5625 28 12 28 C 11.4375 28 11 27.5625 11 27 C 11 26.4375 11.4375 26 12 26 Z M 23.941406 31.011719 C 23.980469 31.015625 24.019531 31.015625 24.058594 31.011719 C 24.59375 31.042969 25 31.457031 25 32 C 25 32.5625 24.5625 33 24 33 C 23.4375 33 23 32.5625 23 32 C 23 31.457031 23.410156 31.042969 23.941406 31.011719 Z M 5 36 C 5.5625 36 6 36.4375 6 37 C 6 37.5625 5.5625 38 5 38 C 4.4375 38 4 37.5625 4 37 C 4 36.4375 4.4375 36 5 36 Z M 16 40 C 16.542969 40 16.957031 40.410156 16.988281 40.941406 C 16.984375 40.980469 16.984375 41.019531 16.988281 41.058594 C 16.957031 41.570313 16.570313 41.960938 16.058594 41.988281 C 16.03125 41.988281 16.007813 41.984375 15.984375 41.984375 C 15.96875 41.988281 15.957031 41.988281 15.941406 41.988281 C 15.40625 41.957031 15 41.542969 15 41 C 15 40.4375 15.4375 40 16 40 Z M 32 40 C 32.5625 40 33 40.4375 33 41 C 33 41.542969 32.589844 41.957031 32.058594 41.988281 C 32.03125 41.988281 32.007813 41.984375 31.984375 41.984375 C 31.96875 41.988281 31.957031 41.988281 31.941406 41.988281 C 31.429688 41.957031 31.039063 41.570313 31.011719 41.058594 C 31.015625 41.019531 31.015625 40.980469 31.011719 40.941406 C 31.042969 40.40625 31.457031 40 32 40 Z M 23.941406 40.011719 C 23.980469 40.015625 24.019531 40.015625 24.058594 40.011719 C 24.570313 40.042969 24.960938 40.429688 24.988281 40.941406 C 24.984375 40.980469 24.984375 41.019531 24.988281 41.058594 C 24.957031 41.59375 24.542969 42 24 42 C 23.457031 42 23.042969 41.589844 23.011719 41.058594 C 23.015625 41.019531 23.015625 40.980469 23.011719 40.941406 C 23.042969 40.429688 23.429688 40.039063 23.941406 40.011719 Z"/></svg>