<svg xmlns="http://www.w3.org/2000/svg" width="100" height="100" viewBox="0 0 64 64"><linearGradient id="UEig0yuYLBSKp~X7tdYWLa" x1="32" x2="32" y1="29" y2="39" gradientUnits="userSpaceOnUse" spreadMethod="reflect"><stop offset="0" stop-color="#6dc7ff"/><stop offset="1" stop-color="#e6abff"/></linearGradient><path fill="url(#UEig0yuYLBSKp~X7tdYWLa)" d="M34.405,33.578C34.461,33.394,34.5,33.202,34.5,33v-2c0-1.105-0.895-2-2-2H30 c-0.552,0-1,0.448-1,1v3v2v3c0,0.552,0.448,1,1,1h3c1.105,0,2-0.895,2-2v-2C35,34.443,34.772,33.941,34.405,33.578z M31,31h1 c0.276,0,0.5,0.224,0.5,0.5v1c0,0.276-0.224,0.5-0.5,0.5h-1V31z M33,36.5c0,0.276-0.224,0.5-0.5,0.5H31v-2h1.5 c0.276,0,0.5,0.224,0.5,0.5V36.5z"/><linearGradient id="UEig0yuYLBSKp~X7tdYWLb" x1="24" x2="24" y1="29" y2="39" gradientUnits="userSpaceOnUse" spreadMethod="reflect"><stop offset="0" stop-color="#6dc7ff"/><stop offset="1" stop-color="#e6abff"/></linearGradient><path fill="url(#UEig0yuYLBSKp~X7tdYWLb)" d="M27,30.5v-1c0-0.276-0.224-0.5-0.5-0.5H22c-0.552,0-1,0.448-1,1v8.5 c0,0.276,0.224,0.5,0.5,0.5h1c0.276,0,0.5-0.224,0.5-0.5V35h2.5c0.276,0,0.5-0.224,0.5-0.5v-1c0-0.276-0.224-0.5-0.5-0.5H23v-2h3.5 C26.776,31,27,30.776,27,30.5z"/><linearGradient id="UEig0yuYLBSKp~X7tdYWLc" x1="40" x2="40" y1="29" y2="39" gradientUnits="userSpaceOnUse" spreadMethod="reflect"><stop offset="0" stop-color="#6dc7ff"/><stop offset="1" stop-color="#e6abff"/></linearGradient><path fill="url(#UEig0yuYLBSKp~X7tdYWLc)" d="M41,34l1.958-4.351C43.095,29.345,42.872,29,42.538,29h-0.803 c-0.295,0-0.563,0.173-0.684,0.442L40,31.778l-1.051-2.336C38.828,29.173,38.56,29,38.265,29h-0.803 c-0.334,0-0.557,0.345-0.42,0.649L39,34l-1.958,4.351C36.905,38.655,37.128,39,37.462,39h0.803c0.295,0,0.563-0.173,0.684-0.442 L40,36.222l1.051,2.336C41.172,38.827,41.44,39,41.735,39h0.803c0.334,0,0.557-0.345,0.42-0.649L41,34z"/><linearGradient id="UEig0yuYLBSKp~X7tdYWLd" x1="32" x2="32" y1="-275" y2="-330.012" gradientTransform="matrix(1 0 0 -1 0 -270)" gradientUnits="userSpaceOnUse" spreadMethod="reflect"><stop offset="0" stop-color="#1a6dff"/><stop offset="1" stop-color="#c822ff"/></linearGradient><path fill="url(#UEig0yuYLBSKp~X7tdYWLd)" d="M51.121,15.707l-8.828-8.828C41.727,6.313,40.973,6,40.171,6H15c-1.654,0-3,1.346-3,3v40v2v4 c0,1.654,1.346,3,3,3h34c1.654,0,3-1.346,3-3v-4v-2V17.828C52,17.027,51.688,16.273,51.121,15.707z M48.586,16H43 c-0.551,0-1-0.448-1-1V9.414L48.586,16z M49,56H15c-0.551,0-1-0.448-1-1v-1.185C14.314,53.928,14.648,54,15,54h34 c0.352,0,0.686-0.072,1-0.184V55C50,55.552,49.551,56,49,56z M50,51c0,0.552-0.449,1-1,1H15c-0.551,0-1-0.448-1-1v-2V9 c0-0.552,0.449-1,1-1h25v7c0,1.654,1.346,3,3,3h7v31V51z"/></svg>