<svg xmlns="http://www.w3.org/2000/svg" width="500" height="500" fill="#000" viewBox="0 0 32 32"><path d="M 16 4 C 9.3845336 4 4 9.3845336 4 16 C 4 22.615466 9.3845336 28 16 28 C 16.356627 28 16.709577 27.981644 17.058594 27.951172 C 18.440658 30.36234 21.036126 32 24 32 C 28.4 32 32 28.4 32 24 C 32 21.036126 30.36234 18.440658 27.951172 17.058594 C 27.981643 16.709577 28 16.356627 28 16 C 28 9.3845336 22.615466 4 16 4 z M 16 6 C 21.534534 6 26 10.465466 26 16 C 26 16.088362 25.990524 16.173952 25.988281 16.261719 C 25.351149 16.096964 24.686757 16 24 16 C 19.6 16 16 19.6 16 24 C 16 24.686757 16.096964 25.351149 16.261719 25.988281 C 16.173952 25.990524 16.088362 26 16 26 C 10.465466 26 6 21.534534 6 16 C 6 10.465466 10.465466 6 16 6 z M 15 8 L 15 15 L 10 15 L 10 17 L 17 17 L 17 8 L 15 8 z M 24 18 C 27.3 18 30 20.7 30 24 C 30 27.3 27.3 30 24 30 C 20.7 30 18 27.3 18 24 C 18 20.7 20.7 18 24 18 z M 23 20 L 23 23 L 20 23 L 20 25 L 23 25 L 23 28 L 25 28 L 25 25 L 28 25 L 28 23 L 25 23 L 25 20 L 23 20 z"/></svg>