<svg xmlns="http://www.w3.org/2000/svg" width="50" height="50" fill="#000" viewBox="0 0 50 50"><path d="M 25 46.101563 C 16.179688 46.101563 9 38.921875 9 30.101563 C 9 28.320313 9.277344 26.613281 9.828125 25.003906 C 6.980469 25.386719 4.234375 24.546875 2.394531 22.707031 C 0.578125 20.894531 -0.242188 18.328125 0.0820313 15.488281 C 0.394531 12.734375 1.746094 10.039063 3.894531 7.894531 C 6.371094 5.414063 9.570313 3.996094 12.667969 3.996094 C 15.003906 3.996094 17.054688 4.785156 18.597656 6.28125 C 20.675781 8.363281 21.457031 11.40625 20.804688 14.546875 C 23.546875 13.824219 26.609375 13.835938 29.125 14.566406 C 28.554688 11.417969 29.332031 8.355469 31.292969 6.394531 C 32.828125 4.859375 34.972656 4.015625 37.332031 4.015625 C 40.445313 4.015625 43.640625 5.429688 46.105469 7.894531 C 50.625 12.414063 51.289063 18.914063 47.617188 22.695313 C 46.066406 24.25 43.917969 25.097656 41.554688 25.097656 C 41.097656 25.097656 40.632813 25.066406 40.167969 25.003906 C 40.722656 26.613281 41 28.320313 41 30.101563 C 41 38.921875 33.820313 46.101563 25 46.101563 Z"/></svg>