<svg xmlns="http://www.w3.org/2000/svg" width="50" height="50" viewBox="8 -8 48 48"><path fill="#673AB7" d="M46-2H16c-1.7,0-3,1.3-3,3v33l8.6-8H46c1.7,0,3-1.3,3-3V1C49-0.7,47.7-2,46-2z"/><path fill="#F44336" d="M41 14A10 10 0 1 0 41 34A10 10 0 1 0 41 14Z"/><path fill="#512DA8" d="M31,24c0-5.5,4.5-10,10-10c3.3,0,6.2,1.6,8,4v-2.9c-2.1-1.9-4.9-3.1-8-3.1c-6.6,0-12,5.4-12,12c0,0.7,0.1,1.3,0.2,2h2C31.1,25.4,31,24.7,31,24z"/><path fill="#FFF" d="M39.5 18H42.5V30H39.5z" transform="rotate(-45.001 41 24)"/><path fill="#FFF" d="M39.5 18H42.5V30H39.5z" transform="rotate(45.001 41 24)"/></svg>