<svg fill="#000000" xmlns="http://www.w3.org/2000/svg" viewBox="0 0 32 32" width="100px" height="100px"><path d="M 6 3 L 6 10 L 8 10 L 8 5 L 24 5 L 24 10 L 26 10 L 26 3 L 6 3 z M 7 12 L 7 20 L 9 20 L 9 17 L 11 17 L 11 15 L 9 15 L 9 14 L 12 14 L 12 12 L 7 12 z M 13 12 L 13 17 L 13 20 L 15.5 20 C 16.869063 20 18 18.869063 18 17.5 C 18 16.937261 17.802571 16.420272 17.482422 16 C 17.802571 15.579728 18 15.062739 18 14.5 C 18 13.130937 16.869063 12 15.5 12 L 13 12 z M 19 12 L 21 16 L 19 20 L 21 20 L 22 18 L 23 20 L 25 20 L 23 16 L 25 12 L 23 12 L 22 14 L 21 12 L 19 12 z M 15 14 L 15.5 14 C 15.786937 14 16 14.213063 16 14.5 C 16 14.786937 15.786937 15 15.5 15 L 15 15 L 15 14 z M 15 17 L 15.5 17 C 15.786937 17 16 17.213063 16 17.5 C 16 17.786937 15.786937 18 15.5 18 L 15 18 L 15 17 z M 6 22 L 6 29 L 26 29 L 26 22 L 24 22 L 24 27 L 8 27 L 8 22 L 6 22 z"/></svg>