<svg xmlns="http://www.w3.org/2000/svg" width="100" height="100" viewBox="0 0 48 48"><path fill="#bbdefb" d="M38,19c-0.4,0-0.7,0-1,0.1c0-0.2,0-0.4,0-0.6c0-3.6-2.9-6.5-6.5-6.5c-1.7,0-3.2,0.7-4.4,1.7	C24.7,10.9,21.8,9,18.5,9c-4.7,0-8.5,3.8-8.5,8.5c0,0.5,0.1,1.1,0.1,1.6C6.7,19.5,4,22.4,4,26c0,3.9,3.1,7,7,7c0.4,0,0.7,0,1.1-0.1	c0.4,3.4,3.4,6.1,6.9,6.1c3.1,0,5.8-2,6.7-4.9c1.1,1.1,2.6,1.9,4.3,1.9c3.1,0,5.6-2.3,6-5.4c0.6,0.2,1.3,0.4,2,0.4c3.3,0,6-2.7,6-6	S41.3,19,38,19z"/><path fill="#3f51b5" d="M28.275,21.144C28.737,21.994,29,22.967,29,24c0,3.309-2.691,6-6,6c-0.73,0-1.426-0.137-2.073-0.377 l-1.374,1.585C20.599,31.71,21.765,32,23,32c4.411,0,8-3.589,8-8c0-1.642-0.499-3.17-1.351-4.441L28.275,21.144z"/><path fill="#3f51b5" d="M17.458,26.295C17.164,25.587,17,24.813,17,24c0-3.309,2.691-6,6-6c0.667,0,1.306,0.114,1.906,0.315 l1.459-1.563C25.34,16.275,24.203,16,23,16c-4.411,0-8,3.589-8,8c0,1.399,0.363,2.714,0.997,3.86L17.458,26.295z"/><polygon fill="#3f51b5" points="14 28 17.995 29.071 19 25"/><polygon fill="#3f51b5" points="32 20 28 19 27 23"/></svg>