<svg xmlns="http://www.w3.org/2000/svg" width="500" height="500" fill="#000" viewBox="0 0 100 100"><path d="M 28.730469 10 C 23.370469 10 19 14.360469 19 19.730469 L 19 81.269531 C 19 86.629531 23.370469 91 28.730469 91 L 69.144531 91 C 71.892823 93.477401 75.517159 95 79.5 95 C 88.047 95 95 88.047 95 79.5 C 95 71.80618 89.359285 65.422195 82 64.220703 L 82 31.5 L 82 31.25 C 82 30.98 81.900937 30.729063 81.710938 30.539062 L 61.460938 10.289062 C 61.270938 10.099063 61.02 10 60.75 10 L 28.730469 10 z M 28.730469 12 L 60 12 L 60 22.480469 C 60 27.730469 64.269766 32 69.509766 32 L 80 32 L 80 64.025391 C 79.832454 64.020006 79.668831 64 79.5 64 C 78.294569 64 77.126984 64.152492 76 64.414062 L 76 59.5 C 76 59.22 75.77 59 75.5 59 C 75.22 59 75 59.22 75 59.5 L 75 64.669922 C 73.316241 65.181949 71.761513 65.983321 70.373047 67 L 63.5 67 C 63.22 67 63 67.22 63 67.5 C 63 67.77 63.22 68 63.5 68 L 69.144531 68 C 67.33306 69.63292 65.911593 71.681654 65.027344 74 L 56.5 74 C 56.22 74 56 74.22 56 74.5 C 56 74.77 56.22 75 56.5 75 L 64.669922 75 C 64.236459 76.425409 64 77.934758 64 79.5 C 64 81.065242 64.236459 82.574591 64.669922 84 L 32.660156 84 C 28.990156 84 26 81.000547 26 77.310547 L 26 24.650391 C 26 22.510391 27.039297 20.480703 28.779297 19.220703 C 29.919297 18.390703 31.260156 17.960937 32.660156 17.960938 C 32.930156 17.960938 33.160156 17.730937 33.160156 17.460938 C 33.160156 17.180937 32.930156 16.960938 32.660156 16.960938 C 31.050156 16.960938 29.499453 17.460156 28.189453 18.410156 C 26.189453 19.860156 25 22.190391 25 24.650391 L 25 77.310547 C 25 81.550547 28.430156 85 32.660156 85 L 65.027344 85 C 65.58051 86.450304 66.340512 87.795181 67.279297 89 L 28.730469 89 C 24.470469 89 21 85.529531 21 81.269531 L 21 19.730469 C 21 15.470469 24.470469 12 28.730469 12 z M 61 12.660156 L 79.339844 31 L 69.509766 31 C 64.819766 31 61 27.180469 61 22.480469 L 61 12.660156 z M 30.5 39 C 30.22 39 30 39.22 30 39.5 C 30 39.77 30.22 40 30.5 40 L 51.5 40 C 51.78 40 52 39.77 52 39.5 C 52 39.22 51.78 39 51.5 39 L 30.5 39 z M 54.5 39 C 54.22 39 54 39.22 54 39.5 L 54 53.5 C 54 53.77 54.22 54 54.5 54 C 54.77 54 55 53.77 55 53.5 L 55 40 L 70 40 L 70 55 L 58.5 55 C 58.22 55 58 55.22 58 55.5 C 58 55.77 58.22 56 58.5 56 L 70.5 56 C 70.78 56 71 55.77 71 55.5 L 71 39.5 C 71 39.22 70.77 39 70.5 39 L 54.5 39 z M 30.5 46 C 30.22 46 30 46.22 30 46.5 C 30 46.77 30.22 47 30.5 47 L 51.5 47 C 51.78 47 52 46.77 52 46.5 C 52 46.22 51.78 46 51.5 46 L 30.5 46 z M 75.5 46 C 75.22 46 75 46.22 75 46.5 L 75 49.5 C 75 49.77 75.22 50 75.5 50 C 75.78 50 76 49.77 76 49.5 L 76 46.5 C 76 46.22 75.77 46 75.5 46 z M 75.5 51 C 75.22 51 75 51.22 75 51.5 L 75 57.5 C 75 57.77 75.22 58 75.5 58 C 75.78 58 76 57.77 76 57.5 L 76 51.5 C 76 51.22 75.77 51 75.5 51 z M 30.5 53 C 30.22 53 30 53.22 30 53.5 C 30 53.77 30.22 54 30.5 54 L 51.5 54 C 51.78 54 52 53.77 52 53.5 C 52 53.22 51.78 53 51.5 53 L 30.5 53 z M 30.5 60 C 30.22 60 30 60.22 30 60.5 C 30 60.77 30.22 61 30.5 61 L 43.5 61 C 43.78 61 44 60.77 44 60.5 C 44 60.22 43.78 60 43.5 60 L 30.5 60 z M 46.5 60 C 46.22 60 46 60.22 46 60.5 C 46 60.77 46.22 61 46.5 61 L 70.5 61 C 70.78 61 71 60.77 71 60.5 C 71 60.22 70.77 60 70.5 60 L 46.5 60 z M 79.5 66 C 86.944 66 93 72.056 93 79.5 C 93 86.944 86.944 93 79.5 93 C 72.056 93 66 86.944 66 79.5 C 66 72.056 72.056 66 79.5 66 z M 30.5 67 C 30.22 67 30 67.22 30 67.5 C 30 67.77 30.22 68 30.5 68 L 47.5 68 C 47.78 68 48 67.77 48 67.5 C 48 67.22 47.78 67 47.5 67 L 30.5 67 z M 50.5 67 C 50.22 67 50 67.22 50 67.5 C 50 67.77 50.22 68 50.5 68 L 61.5 68 C 61.78 68 62 67.77 62 67.5 C 62 67.22 61.78 67 61.5 67 L 50.5 67 z M 79.5 71 C 79.224 71 79 71.224 79 71.5 L 79 79 L 71.59375 79 C 71.31775 79 71.09375 79.224 71.09375 79.5 C 71.09375 79.776 71.31775 80 71.59375 80 L 79 80 L 79 87.5 C 79 87.776 79.224 88 79.5 88 C 79.776 88 80 87.776 80 87.5 L 80 80 L 87.5 80 C 87.776 80 88 79.776 88 79.5 C 88 79.224 87.776 79 87.5 79 L 80 79 L 80 71.5 C 80 71.224 79.776 71 79.5 71 z M 30.5 74 C 30.22 74 30 74.22 30 74.5 C 30 74.77 30.22 75 30.5 75 L 54.5 75 C 54.78 75 55 74.77 55 74.5 C 55 74.22 54.78 74 54.5 74 L 30.5 74 z"/></svg>