<svg xmlns="http://www.w3.org/2000/svg" width="300" height="300" viewBox="0 0 48 48"><path fill="#edbd28" d="M20,12c0,3.313-2.688,6-6,6c-3.313,0-6-2.688-6-6s2.687-6,6-6C17.312,6,20,8.688,20,12 M40,12 c0-3.313-2.688-6-6-6c-3.313,0-6,2.688-6,6s2.687,6,6,6C37.312,18,40,15.313,40,12"/><path fill="#607d8b" d="M24,28H4v-3c0,0,2.766-5,10-5c7.23,0,10,5,10,5V28z M44,25c0,0-2.77-5-10-5c-7.234,0-10,5-10,5v3h20 V25z"/><path fill="#2196f3" d="M37,42v-4h-8v-4h8v-4l7,6L37,42z M11,30l-7,6l7,6v-4h8v-4h-8V30z M25,38h2v-4h-2V38z M21,38h2v-4h-2 V38z"/></svg>