<svg xmlns="http://www.w3.org/2000/svg" width="300" height="300" viewBox="0 0 48 48"><path fill="#bbdefb" d="M39,6H9C7.3,6,6,7.3,6,9v33l8.6-8H39c1.7,0,3-1.3,3-3V9C42,7.3,40.7,6,39,6z"/><path fill="#37474f" d="M29,18h-2v-2c0-0.5-0.2-3-3-3c-2.8,0-3,2.5-3,3v2h-2v-2c0-1.7,1-5,5-5s5,3.3,5,5V18z"/><path fill="#fb8c00" d="M30.2,29H17.8c-1,0-1.8-0.8-1.8-1.8v-8.4c0-1,0.8-1.8,1.8-1.8h12.4c1,0,1.8,0.8,1.8,1.8v8.4 C32,28.2,31.2,29,30.2,29"/><path fill="#c76e00" d="M26,23c0,1.1-0.9,2-2,2s-2-0.9-2-2s0.9-2,2-2S26,21.9,26,23"/></svg>