<svg xmlns="http://www.w3.org/2000/svg" width="500" height="500" viewBox="0 0 64 64"><linearGradient id="BqisDksTz7TcXfb8JDCfba" x1="28.848" x2="28.848" y1="16.021" y2="29.143" gradientUnits="userSpaceOnUse"><stop offset="0" stop-color="#6dc7ff"/><stop offset="1" stop-color="#e6abff"/></linearGradient><path fill="url(#BqisDksTz7TcXfb8JDCfba)" d="M29.625,14.188h-4.75c-1.968,0-4.335,1.119-4.875,3.813c0,0-2,9.172,5.487,9.172 c-1.032-0.258-1.799-1.184-1.799-2.297v-4.75c0-1.312,1.063-2.375,2.375-2.375h2.375c1.968,0,3.563,1.595,3.563,3.563V22.5 c0,2.182-1.48,4.001-3.484,4.558l-5.121,5.699l7.713-1.144l5.875-4.873c0.599-1.186,0.955-2.582,0.955-4.239 C37.937,17.909,34.216,14.188,29.625,14.188z"/><linearGradient id="BqisDksTz7TcXfb8JDCfbb" x1="16.5" x2="16.5" y1="29.128" y2="51.006" gradientUnits="userSpaceOnUse"><stop offset="0" stop-color="#6dc7ff"/><stop offset="1" stop-color="#e6abff"/></linearGradient><polygon fill="url(#BqisDksTz7TcXfb8JDCfbb)" points="13 23 13 53 18 56 20 33"/><linearGradient id="BqisDksTz7TcXfb8JDCfbc" x1="31.995" x2="31.995" y1="8.021" y2="54.337" gradientUnits="userSpaceOnUse"><stop offset="0" stop-color="#1a6dff"/><stop offset="1" stop-color="#c822ff"/></linearGradient><path fill="url(#BqisDksTz7TcXfb8JDCfbc)" d="M51.979,55.854c0.032-0.227-0.012-0.466-0.158-0.676c-4.522-6.5-11.696-17.694-11.696-20.062	c0-1.157,0.624-1.978,1.486-3.112c1.377-1.811,3.264-4.291,3.264-9.505c0-7.052-3.584-11.718-10.654-13.871	C30.236,7.417,25.091,7.25,20.125,7.25H13c-0.552,0-1,0.447-1,1v22.414v22.711c0,0.379,0.214,0.725,0.553,0.895	c1.521,0.76,3.042,1.521,4.563,2.281c0.083,0.042,0.166,0.084,0.25,0.118c0.214,0.087,0.473,0.103,0.695,0.031l6.411-2.093	c0.896-0.298,1.497-1.132,1.497-2.073L26,40.344c0-0.191,0.186-0.193,0.187-0.193c0.161,0,0.224,0.039,0.48,0.295	c3.37,3.369,5.874,7.501,7.703,10.517c0.69,1.139,1.286,2.121,1.792,2.833c0.729,1.027,1.895,1.7,3.283,1.896	c3.247,0.455,11.147,1.032,11.481,1.057C51.475,56.787,51.909,56.348,51.979,55.854z M33.638,10.543	c6.215,1.892,9.237,5.804,9.237,11.957c0,4.539-1.517,6.534-2.855,8.295c-0.974,1.28-1.895,2.491-1.895,4.322	c0,2.473,4.509,9.853,8.09,15.325c-1.47-1.375-3.133-3.047-4.855-5.002l-1.677-1.909c-3.689-4.207-6.875-7.84-8.316-8.801	c-0.806-0.537-1.769-0.955-2.785-1.289c3.645-0.86,7.474-2.634,9.296-6.258c0.702-1.396,1.059-2.972,1.059-4.683	c0-5.135-4.178-9.313-9.312-9.313h-4.75c-2.454,0-5.215,1.427-5.852,4.6c-0.046,0.21-1.096,5.19,1.329,8.201	c1.14,1.415,2.817,2.143,4.98,2.177c0.064,0.014,0.13,0.02,0.195,0.03c-0.336,0.428-0.807,0.958-1.482,1.588	c-0.772,0.72-2.707,1.719-3.823,2.253c-1.331-1.09-6.03-6.13-6.213-22.788h6.116C24.937,9.25,29.904,9.406,33.638,10.543z M27.92,28.21c0.013-0.002,0.026-0.007,0.039-0.008C30.795,27.851,33,25.43,33,22.5v-1.188c0-2.516-2.047-4.563-4.563-4.563h-2.375	c-1.861,0-3.375,1.514-3.375,3.375v4.75c0,0.202,0.025,0.398,0.06,0.591c-0.311-0.203-0.597-0.435-0.835-0.729	c-1.826-2.261-0.944-6.483-0.932-6.541c0.477-2.375,2.672-3.009,3.895-3.009h4.75c4.032,0,7.312,3.28,7.312,7.313	c0,1.418-0.277,2.658-0.848,3.789c-0.001,0.002-0.001,0.005-0.002,0.007c-2.107,4.177-7.818,5.434-11.788,5.789	c0.429-0.28,0.816-0.565,1.108-0.838C26.867,29.887,27.577,28.853,27.92,28.21z M25.753,26.212	c-0.609-0.141-1.065-0.686-1.065-1.337v-4.75c0-0.758,0.617-1.375,1.375-1.375h2.375c1.413,0,2.563,1.149,2.563,2.563V22.5	c0,0.018-0.005,0.034-0.009,0.07c-0.033,1.776-1.322,3.261-3,3.605c-0.24,0.048-0.487,0.075-0.74,0.075c0,0-1.187,0-1.188,0	C25.964,26.25,25.851,26.24,25.753,26.212z M16.906,54.21L14,52.757V30.664v-5.819c1.681,5.637,3.979,7.987,5.068,8.832	L16.906,54.21z M39.724,53.71c-0.837-0.118-1.523-0.499-1.931-1.074c-0.464-0.652-1.042-1.605-1.712-2.71	c-1.882-3.104-4.458-7.354-7.999-10.895c-0.308-0.308-0.881-0.881-1.895-0.881c-1.206,0-2.187,0.984-2.187,2.19l-0.031,12.19	c0,0.081-0.051,0.152-0.123,0.177l-4.94,1.612l2.116-20.101c0.04,0.001,0.087,0.001,0.129,0.001	c2.034,0.099,6.604,0.505,9.106,2.174c1.221,0.814,4.781,4.874,7.922,8.455l1.68,1.913c3.07,3.484,5.938,6.088,7.91,7.733	C45.134,54.282,41.587,53.972,39.724,53.71z"/></svg>