<svg xmlns="http://www.w3.org/2000/svg" width="300" height="300" viewBox="0 0 48 48"><path fill="#bbdefb" d="M29.5,5C24.806,5,21,8.806,21,13.5s3.806,8.5,8.5,8.5s8.5-3.806,8.5-8.5S34.194,5,29.5,5z"/><path fill="#bbdefb" d="M37,14.893c-3.866,0-7,3.134-7,7s3.134,7,7,7s7-3.134,7-7S40.866,14.893,37,14.893z M11,15	c-3.866,0-7,3.134-7,7s3.134,7,7,7s7-3.134,7-7S14.866,15,11,15z"/><path fill="#bbdefb" d="M17.5,8c-3.59,0-6.5,2.91-6.5,6.5s2.91,6.5,6.5,6.5s6.5-2.91,6.5-6.5S21.09,8,17.5,8z"/><path fill="#bbdefb" d="M25,12.893c-3.866,0-7,3.134-7,7s3.134,7,7,7s7-3.134,7-7S28.866,12.893,25,12.893z"/><path fill="#bbdefb" d="M7,25c0,2.209,1.791,4,4,4h25c2.209,0,4-1.791,4-4v-1c0-2.209-1.791-4-4-4H11c-2.209,0-4,1.791-4,4	V25z"/><path fill="#1976d2" d="M27.504,29.284c-1.896-1.778-4.876-1.715-6.642,0.138l-1.602,1.681	c-1.767,1.854-1.662,4.808,0.234,6.586c1.896,1.777,4.876,1.715,6.642-0.138l1.602-1.681C29.505,34.016,29.4,31.062,27.504,29.284z M26.309,34.35l-1.788,1.86c-0.986,1.026-2.648,1.06-3.706,0.076c-1.058-0.984-1.117-2.618-0.131-3.643l1.788-1.86	c0.986-1.026,2.648-1.06,3.706-0.076C27.236,31.69,27.295,33.324,26.309,34.35z"/><path fill="#1976d2" d="M37.495,19.294c-1.896-1.778-4.876-1.715-6.642,0.138l-1.602,1.681	c-1.767,1.854-1.662,4.808,0.234,6.586c1.896,1.777,4.876,1.715,6.642-0.138l1.602-1.681C39.495,24.025,39.39,21.071,37.495,19.294z M36.3,24.359l-1.788,1.86c-0.986,1.026-2.648,1.06-3.706,0.076c-1.058-0.984-1.117-2.618-0.131-3.643l1.788-1.86	c0.986-1.026,2.648-1.06,3.706-0.076C37.227,21.7,37.286,23.334,36.3,24.359z"/><path fill="#42a5f5" d="M24.997,32.991c-0.256,0-0.512-0.098-0.707-0.293c-0.391-0.391-0.391-1.023,0-1.414l7-7 c0.391-0.391,1.023-0.391,1.414,0s0.391,1.023,0,1.414l-7,7C25.509,32.893,25.253,32.991,24.997,32.991z"/></svg>