<svg xmlns="http://www.w3.org/2000/svg" width="500" height="500" viewBox="0 0 48 48"><path fill="#4FC3F7" d="M28,32L28,32c0,0-1,4-5,4s-5-4-5-4S7,33.986,7,45h32C39,34.025,28,32,28,32"/><path fill="#FF9800" d="M23,38c-5,0-5-6-5-6v-6h10v6C28,32,28,38,23,38z"/><path fill="#FFA726" d="M34 20c0 1.105-.895 2-2 2s-2-.895-2-2 .895-2 2-2S34 18.895 34 20M16 20c0 1.105-.895 2-2 2s-2-.895-2-2 .895-2 2-2S16 18.895 16 20"/><path fill="#FFB74D" d="M32,14c0-7.635-18-4.971-18,0v7c0,4.971,4.029,9,9,9c4.971,0,9-4.029,9-9V14z"/><path fill="#424242" d="M23,5c-6.075,0-10,4.925-10,11v2.284L15,20v-5l12-4l4,4v5l2-1.741V16c0-4.025-1.038-8.015-6-9l-1-2H23z"/><path fill="#FFF" d="M18 20c0 1.104.896 2 2 2s2-.896 2-2-.896-2-2-2S18 18.896 18 20M24 20c0 1.104.896 2 2 2s2-.896 2-2-.896-2-2-2S24 18.896 24 20"/><path fill="#784719" d="M25 21c0 .552.448 1 1 1s1-.448 1-1-.448-1-1-1S25 20.448 25 21M19 19c0 .552.448 1 1 1s1-.448 1-1-.448-1-1-1S19 18.448 19 19"/><path fill="#01579B" d="M23,38c5,0,6.745-3.93,6.951-5.428C28.794,32.148,28,32,28,32s-1,4-5,4s-5-4-5-4s-0.794,0.146-1.952,0.566C16.252,34.061,18,38,23,38z"/><g><path fill="#FFC107" d="M36.422 11.961L35.673 10.444 34 10.201 35.211 9.022 34.925 7.357 36.422 8.143 37.918 7.357 37.632 9.022 38.843 10.201 37.17 10.444zM6.421 19.961L5.673 18.444 4 18.201 5.21 17.022 4.925 15.357 6.421 16.143 7.918 15.357 7.632 17.022 8.843 18.201 7.169 18.444zM39.342 21.357L38.212 19.067 35.685 18.697 37.514 16.918 37.082 14.402 39.342 15.592 41.604 14.402 41.171 16.918 43 18.697 40.473 19.067zM17.044 12L14.331 10.431 11.5 11.776 12.155 8.711 10 6.435 13.117 6.109 14.617 3.357 15.889 6.222 18.97 6.797 16.639 8.893z"/></g></svg>