<svg xmlns="http://www.w3.org/2000/svg" width="100" height="100" fill="#000" viewBox="0 0 24 24"><path d="M 4 2 L 4 9 L 2 9 L 2 18 L 4 18 L 4 22 L 20 22 L 20 7 L 15 2 L 4 2 z M 6 4 L 14 4 L 14 8 L 18 8 L 18 9 L 6 9 L 6 4 z M 4 11 L 7 11 L 7 12 L 5 12 L 5 13 L 6.5996094 13 L 6.5996094 14 L 5 14 L 5 16 L 4 16 L 4 11 z M 8 11 L 9.5 11 C 10.328 11 11 11.672 11 12.5 C 11 12.886 10.850328 13.234 10.611328 13.5 C 10.850328 13.766 11 14.114 11 14.5 C 11 15.328 10.328 16 9.5 16 L 8 16 L 8 11 z M 12.025391 11 L 13.273438 11 L 13.998047 12.716797 L 14.724609 11 L 15.970703 11 L 14.703125 13.478516 L 16 16 L 14.738281 16 L 13.998047 14.251953 L 13.261719 16 L 12 16 L 13.294922 13.478516 L 12.025391 11 z M 9 12 L 9 13 L 9.5 13 C 9.776 13 10 12.776 10 12.5 C 10 12.224 9.776 12 9.5 12 L 9 12 z M 9 14 L 9 15 L 9.5 15 C 9.776 15 10 14.776 10 14.5 C 10 14.224 9.776 14 9.5 14 L 9 14 z M 6 18 L 18 18 L 18 20 L 6 20 L 6 18 z"/></svg>