<svg xmlns="http://www.w3.org/2000/svg" width="50" height="50" fill="#000" viewBox="0 0 32 32"><path d="M 8.84375 4.9375 C 8.640625 4.945313 8.421875 4.972656 8.21875 5 C 6.582031 5.222656 4.9375 6.0625 3.59375 7.40625 C 2.242188 8.757813 1.421875 10.421875 1.21875 12.0625 C 1.015625 13.703125 1.4375 15.34375 2.59375 16.5 C 3.800781 17.707031 5.453125 17.859375 7.125 17.65625 C 7.042969 18.113281 7 18.5625 7 19 C 7 23.945313 11.054688 28 16 28 C 20.945313 28 25 23.945313 25 19 C 25 18.539063 24.84375 18.105469 24.78125 17.65625 C 26.550781 17.960938 28.328125 17.765625 29.59375 16.5 C 30.75 15.34375 31.171875 13.703125 30.96875 12.0625 C 30.765625 10.421875 29.945313 8.757813 28.59375 7.40625 C 27.242188 6.054688 25.578125 5.234375 23.9375 5.03125 C 22.296875 4.828125 20.65625 5.25 19.5 6.40625 C 18.453125 7.453125 18.167969 8.886719 18.25 10.375 C 17.539063 10.179688 16.871094 9.90625 16.09375 9.90625 C 15.375 9.90625 14.65625 10.191406 13.9375 10.375 C 14.019531 8.886719 13.765625 7.453125 12.71875 6.40625 C 11.675781 5.363281 10.277344 4.890625 8.84375 4.9375 Z M 9.28125 6.9375 C 10.066406 6.988281 10.75 7.28125 11.28125 7.8125 C 12.082031 8.613281 12.355469 9.890625 11.9375 11.3125 L 11.28125 13.53125 L 13.34375 12.5 C 14.175781 12.082031 15.113281 11.90625 16.09375 11.90625 C 17.011719 11.90625 18.011719 12.160156 18.9375 12.53125 L 20.84375 13.28125 L 20.25 11.3125 C 19.832031 9.890625 20.105469 8.613281 20.90625 7.8125 C 21.550781 7.167969 22.527344 6.886719 23.6875 7.03125 C 24.847656 7.175781 26.140625 7.765625 27.1875 8.8125 C 28.234375 9.859375 28.824219 11.152344 28.96875 12.3125 C 29.113281 13.472656 28.832031 14.449219 28.1875 15.09375 C 27.230469 16.050781 25.601563 16.269531 24 15.59375 L 21.84375 14.6875 L 22.65625 16.84375 C 22.90625 17.507813 23 18.175781 23 19 C 23 22.855469 19.855469 26 16 26 C 12.144531 26 9 22.855469 9 19 C 9 18.175781 9.066406 17.628906 9.4375 17.03125 L 10.96875 14.625 L 8.28125 15.5625 C 6.503906 16.183594 4.957031 16.050781 4 15.09375 C 3.355469 14.449219 3.074219 13.472656 3.21875 12.3125 C 3.363281 11.152344 3.953125 9.859375 5 8.8125 C 6.058594 7.753906 7.328125 7.121094 8.46875 6.96875 C 8.753906 6.929688 9.019531 6.921875 9.28125 6.9375 Z"/></svg>