<svg xmlns="http://www.w3.org/2000/svg" width="500" height="500" viewBox="0 0 64 64"><path fill="#7e8189" d="M60.4,28.49A9.46,9.46,0,0,1,54,31.16,23,23,0,1,1,9,38a22.75,22.75,0,0,1,1-6.84A9.49,9.49,0,0,1,3.6,28.49C-.7,24.19.25,16.28,5.72,10.81S19.1,4.39,23.4,8.69a9.59,9.59,0,0,1,2.67,7.08,23.18,23.18,0,0,1,11.85,0A9.66,9.66,0,0,1,40.6,8.69c4.3-4.3,12.21-3.35,17.68,2.12S64.7,24.19,60.4,28.49Z"/><path fill="#8b8e98" d="M58.28 10.81a16.45 16.45 0 0 0-8-4.5 3 3 0 0 0-3.47 4.06h0a2.91 2.91 0 0 0 2.07 1.77A10.47 10.47 0 0 1 54 15.06a10.7 10.7 0 0 1 2.81 4.73A3 3 0 0 0 58 21.5h0a3 3 0 0 0 4.62-3.24A16.59 16.59 0 0 0 58.28 10.81zM5.48 10.81a16.45 16.45 0 0 1 8-4.5 3 3 0 0 1 3.47 4.06h0a2.91 2.91 0 0 1-2.07 1.77 10.47 10.47 0 0 0-5.12 2.91 10.7 10.7 0 0 0-2.81 4.73A3 3 0 0 1 5.73 21.5h0A3 3 0 0 1 1.1 18.26 16.59 16.59 0 0 1 5.48 10.81zM32 15A23 23 0 1 0 32 61 23 23 0 1 0 32 15z"/><path fill="#8b8e98" d="M32 15A23 23 0 1 0 32 61A23 23 0 1 0 32 15Z"/><path fill="#faefde" d="M10.67,46.62c-.83-3.53,4.22-5.79,7.63-6a19.32,19.32,0,0,1-.65-5c0-7,3.46-12.59,7.73-12.59,2.82,0,5.28,2.46,6.63,6.12C33.36,25.46,35.83,23,38.64,23c4.28,0,7.73,5.64,7.73,12.59a19.32,19.32,0,0,1-.65,5c3.28.19,8.73,4.19,6.84,7.09C44.46,60.17,40.3,61,32,61S12.36,53.85,10.67,46.62Z"/><path fill="#efd8be" d="M47.55,50.32a2.85,2.85,0,0,1,.24,3.95C42.47,60.49,38.51,61,32,61c-5,0-11.18-2.63-15.62-6.31a2.84,2.84,0,0,1-.07-4.26l.13-.12a2.87,2.87,0,0,1,3.92.06,16.95,16.95,0,0,0,23.27,0,2.87,2.87,0,0,1,3.92-.06Z"/><path fill="#8d6c9f" d="M64,20a17,17,0,0,0-5-9.87C53.14,4.26,44.57,3.31,39.89,8A10.4,10.4,0,0,0,37,14.52c-.5-.11-1-.19-1.5-.26l-.22,0h-.06a24.14,24.14,0,0,0-8.16.3A10.39,10.39,0,0,0,24.11,8C19.43,3.31,10.86,4.26,5,10.11S-1.79,24.52,2.89,29.2A10.15,10.15,0,0,0,8.75,32c-.06.24-.11.48-.16.72s-.07.26-.1.4,0,0,0,0A24.11,24.11,0,0,0,8,38a23.86,23.86,0,0,0,1.74,9l0,.11A24,24,0,0,0,55.25,32a10.16,10.16,0,0,0,5.85-2.84A10.88,10.88,0,0,0,64,20ZM32,60A22,22,0,0,1,11.77,46.63a7.82,7.82,0,0,1,6.59-5,1,1,0,0,0,.91-1.26,18.3,18.3,0,0,1-.62-4.79c0-6.28,3.08-11.59,6.73-11.59,2.27,0,4.45,2.09,5.69,5.46a1,1,0,0,0,1.88,0C34.19,26.09,36.37,24,38.64,24c3.65,0,6.73,5.31,6.73,11.59a18.3,18.3,0,0,1-.62,4.79,1,1,0,0,0,.91,1.26,7.87,7.87,0,0,1,6.59,4.94A22,22,0,0,1,32,60ZM53.92,30.16a1,1,0,0,0-.91,1.3,22,22,0,0,1,.13,12.62A9.73,9.73,0,0,0,47,39.79a20.67,20.67,0,0,0,.42-4.2C47.38,28,43.54,22,38.64,22c-2.62,0-5,1.72-6.63,4.69-1.63-3-4-4.69-6.63-4.69-4.9,0-8.73,6-8.73,13.59a20.69,20.69,0,0,0,.42,4.2,9.65,9.65,0,0,0-6.21,4.3,21.88,21.88,0,0,1-.35-10.79c.05-.25.12-.49.18-.74s.15-.57.23-.85a21.84,21.84,0,0,1,1.73-4.19,1,1,0,0,0-1.76-1A23.84,23.84,0,0,0,9.34,30.1a8.27,8.27,0,0,1-5-2.31A8.93,8.93,0,0,1,2,20.21a15,15,0,0,1,4.44-8.69,15,15,0,0,1,8.69-4.44A11.56,11.56,0,0,1,16.5,7a8.57,8.57,0,0,1,6.2,2.4,8.55,8.55,0,0,1,2.38,6.36,1,1,0,0,0,1.26,1,22.15,22.15,0,0,1,9.12-.46c.36.06.73.12,1.09.2l.72.17a21.8,21.8,0,0,1,5,1.87,1,1,0,0,0,.93-1.77A23.82,23.82,0,0,0,38.94,15,8.38,8.38,0,0,1,41.31,9.4c3.9-3.9,11.2-2.95,16.27,2.12A15,15,0,0,1,62,20.21a8.93,8.93,0,0,1-2.32,7.58A8.45,8.45,0,0,1,53.92,30.16Z"/><path fill="#8d6c9f" d="M46.72 19a1 1 0 1 0-1.23 1.58 22.23 22.23 0 0 1 2.28 2 1 1 0 0 0 1.43-1.39A24.25 24.25 0 0 0 46.72 19zM32 53a1 1 0 0 0-1 1v2a1 1 0 0 0 2 0V54A1 1 0 0 0 32 53zM38 53.08a1 1 0 0 0-1.93.52l.52 1.93A1 1 0 0 0 38.53 55zM22.75 50.52a1 1 0 0 0-1.37.37l-1 1.73a1 1 0 0 0 1.73 1l1-1.73A1 1 0 0 0 22.75 50.52zM42.62 50.89a1 1 0 0 0-1.73 1l1 1.73a1 1 0 0 0 1.73-1zM27.21 52.37a1 1 0 0 0-1.22.71L25.47 55a1 1 0 1 0 1.93.52l.52-1.93A1 1 0 0 0 27.21 52.37z"/></svg>