<svg xmlns="http://www.w3.org/2000/svg" viewBox="0 0 48 48" width="50px" height="50px"><linearGradient id="Xiikxm3XAqAPIVlrxK0dxa" x1="18.02" x2="27.655" y1="5.777" y2="42.597" gradientUnits="userSpaceOnUse"><stop offset="0" stop-color="#fede00"/><stop offset="1" stop-color="#ffd000"/></linearGradient><path fill="url(#Xiikxm3XAqAPIVlrxK0dxa)" d="M39,16v25c0,1.105-0.895,2-2,2H11c-1.105,0-2-0.895-2-2V7c0-1.105,0.895-2,2-2h17L39,16z"/><path fill="#e97c01" d="M28,5v9c0,1.105,0.895,2,2,2h9L28,5z"/><linearGradient id="Xiikxm3XAqAPIVlrxK0dxb" x1="19.513" x2="19.513" y1="23.931" y2="32.027" gradientUnits="userSpaceOnUse"><stop offset="0" stop-color="#4b4b4b"/><stop offset="1" stop-color="#3b3b3b"/></linearGradient><path fill="url(#Xiikxm3XAqAPIVlrxK0dxb)" d="M17,31.05l2.997-5.583v-0.036h-2.721V24h4.736v1.134L19.12,30.53v0.038h2.905V32H17V31.05z"/><linearGradient id="Xiikxm3XAqAPIVlrxK0dxc" x1="25" x2="25" y1="23.931" y2="32.027" gradientUnits="userSpaceOnUse"><stop offset="0" stop-color="#4b4b4b"/><stop offset="1" stop-color="#3b3b3b"/></linearGradient><path fill="url(#Xiikxm3XAqAPIVlrxK0dxc)" d="M25.847,24v8h-1.693v-8H25.847z"/><linearGradient id="Xiikxm3XAqAPIVlrxK0dxd" x1="30.505" x2="30.505" y1="23.847" y2="32.028" gradientUnits="userSpaceOnUse"><stop offset="0" stop-color="#4b4b4b"/><stop offset="1" stop-color="#3b3b3b"/></linearGradient><path fill="url(#Xiikxm3XAqAPIVlrxK0dxd)" d="M28,24.032c0.49-0.096,1.157-0.161,1.947-0.161c1.007,0,1.771,0.165,2.309,0.634	c0.495,0.419,0.754,1.089,0.754,1.811c0,0.852-0.265,1.495-0.71,1.946c-0.548,0.55-1.404,0.8-2.201,0.8	c-0.151,0-0.293-0.005-0.418-0.017V32H28V24.032z M29.681,27.695c0.105,0.021,0.222,0.027,0.376,0.027	c0.847,0,1.275-0.536,1.275-1.298c0-0.709-0.359-1.22-1.144-1.22c-0.22,0-0.399,0.025-0.508,0.06V27.695z"/></svg>