<svg xmlns="http://www.w3.org/2000/svg" viewBox="0 0 48 48" width="50px" height="50px"><rect width="4" height="10" x="32" y="11" fill="#595959"/><path fill="#595959" d="M27,14h-2c-0.552,0-1,0.448-1,1v6h4v-6C28,14.448,27.552,14,27,14z"/><linearGradient id="n_GyXqSt6aQg8FhEvmxada" x1="15.674" x2="29.653" y1="22.623" y2="44.02" gradientUnits="userSpaceOnUse"><stop offset="0" stop-color="#3079d6"/><stop offset="1" stop-color="#297cd2"/></linearGradient><path fill="url(#n_GyXqSt6aQg8FhEvmxada)" d="M44.867,35.504l-2.569-4.496C41.941,30.385,41.279,30,40.561,30H3.722H3v5	c0,1.105,0.895,2,2,2h38.999C44.766,37,45.248,36.171,44.867,35.504z"/><linearGradient id="n_GyXqSt6aQg8FhEvmxadb" x1="11" x2="11" y1="6.915" y2="11.1" gradientUnits="userSpaceOnUse"><stop offset="0" stop-color="#f44f5a"/><stop offset=".443" stop-color="#ee3d4a"/><stop offset="1" stop-color="#e52030"/></linearGradient><path fill="url(#n_GyXqSt6aQg8FhEvmxadb)" d="M20,11H2V9c0-1.105,0.895-2,2-2h14c1.105,0,2,0.895,2,2V11z"/><polygon fill="#21a366" points="15,11 15,19 7,19 7,11 3,11 3,30 19,30 19,11"/><path fill="#666" d="M35,13h-2c-1.105,0-2-0.895-2-2v0c0-1.105,0.895-2,2-2h2c1.105,0,2,0.895,2,2v0	C37,12.105,36.105,13,35,13z"/><linearGradient id="n_GyXqSt6aQg8FhEvmxadc" x1="30.5" x2="30.5" y1="18.882" y2="29.864" gradientUnits="userSpaceOnUse"><stop offset="0" stop-color="#eba84b"/><stop offset=".252" stop-color="#e9a144"/><stop offset=".624" stop-color="#e28d31"/><stop offset="1" stop-color="#d97218"/></linearGradient><path fill="url(#n_GyXqSt6aQg8FhEvmxadc)" d="M19,19v10.997c2.001,0.001,2.002,0.002,2.003,0.003H40c1.105,0,2-0.895,2-2v-7	c0-1.105-0.895-2-2-2H19z"/><path fill="#586169" d="M21,34c0,3.865-3.135,7-7,7s-7-3.135-7-7s3.135-7,7-7S21,30.135,21,34"/><path fill="#999" d="M16,34c0,1.105-0.895,2-2,2s-2-0.895-2-2s0.895-2,2-2S16,32.895,16,34"/><path fill="#586169" d="M41,34c0,3.865-3.133,7-7,7s-7-3.135-7-7s3.133-7,7-7S41,30.135,41,34"/><path fill="#999" d="M36,34c0,1.105-0.895,2-2,2s-2-0.895-2-2s0.895-2,2-2S36,32.895,36,34"/></svg>