<svg xmlns="http://www.w3.org/2000/svg" viewBox="0 0 48 48" width="500px" height="500px"><line x1="24" x2="24" y1="46" y2="2" fill="none" stroke="#ffb300" stroke-linecap="round" stroke-linejoin="round" stroke-miterlimit="10" stroke-width="2"/><line x1="2" x2="46" y1="24" y2="24" fill="none" stroke="#ffb300" stroke-linecap="round" stroke-linejoin="round" stroke-miterlimit="10" stroke-width="2"/><line x1="30.798" x2="17.202" y1="44.923" y2="3.077" fill="none" stroke="#ffb300" stroke-linecap="round" stroke-linejoin="round" stroke-miterlimit="10" stroke-width="2"/><line x1="3.077" x2="44.923" y1="30.798" y2="17.202" fill="none" stroke="#ffb300" stroke-linecap="round" stroke-linejoin="round" stroke-miterlimit="10" stroke-width="2"/><line x1="36.931" x2="11.069" y1="41.798" y2="6.202" fill="none" stroke="#ffb300" stroke-linecap="round" stroke-linejoin="round" stroke-miterlimit="10" stroke-width="2"/><line x1="6.202" x2="41.798" y1="36.931" y2="11.069" fill="none" stroke="#ffb300" stroke-linecap="round" stroke-linejoin="round" stroke-miterlimit="10" stroke-width="2"/><line x1="41.798" x2="6.202" y1="36.931" y2="11.069" fill="none" stroke="#ffb300" stroke-linecap="round" stroke-linejoin="round" stroke-miterlimit="10" stroke-width="2"/><line x1="11.069" x2="36.931" y1="41.798" y2="6.202" fill="none" stroke="#ffb300" stroke-linecap="round" stroke-linejoin="round" stroke-miterlimit="10" stroke-width="2"/><line x1="44.923" x2="3.077" y1="30.798" y2="17.202" fill="none" stroke="#ffb300" stroke-linecap="round" stroke-linejoin="round" stroke-miterlimit="10" stroke-width="2"/><line x1="17.202" x2="30.798" y1="44.923" y2="3.077" fill="none" stroke="#ffb300" stroke-linecap="round" stroke-linejoin="round" stroke-miterlimit="10" stroke-width="2"/><line x1="27.153" x2="20.847" y1="43.905" y2="4.095" fill="none" stroke="#ffb300" stroke-linecap="round" stroke-linejoin="round" stroke-miterlimit="10" stroke-width="2"/><line x1="4.095" x2="43.905" y1="27.153" y2="20.847" fill="none" stroke="#ffb300" stroke-linecap="round" stroke-linejoin="round" stroke-miterlimit="10" stroke-width="2"/><line x1="33.149" x2="14.851" y1="41.956" y2="6.044" fill="none" stroke="#ffb300" stroke-linecap="round" stroke-linejoin="round" stroke-miterlimit="10" stroke-width="2"/><line x1="6.044" x2="41.956" y1="33.149" y2="14.851" fill="none" stroke="#ffb300" stroke-linecap="round" stroke-linejoin="round" stroke-miterlimit="10" stroke-width="2"/><line x1="38.25" x2="9.75" y1="38.25" y2="9.75" fill="none" stroke="#ffb300" stroke-linecap="round" stroke-linejoin="round" stroke-miterlimit="10" stroke-width="2"/><line x1="9.75" x2="38.25" y1="38.25" y2="9.75" fill="none" stroke="#ffb300" stroke-linecap="round" stroke-linejoin="round" stroke-miterlimit="10" stroke-width="2"/><line x1="41.956" x2="6.044" y1="33.149" y2="14.851" fill="none" stroke="#ffb300" stroke-linecap="round" stroke-linejoin="round" stroke-miterlimit="10" stroke-width="2"/><line x1="14.851" x2="33.149" y1="41.956" y2="6.044" fill="none" stroke="#ffb300" stroke-linecap="round" stroke-linejoin="round" stroke-miterlimit="10" stroke-width="2"/><line x1="43.905" x2="4.095" y1="27.153" y2="20.847" fill="none" stroke="#ffb300" stroke-linecap="round" stroke-linejoin="round" stroke-miterlimit="10" stroke-width="2"/><line x1="20.847" x2="27.153" y1="43.905" y2="4.095" fill="none" stroke="#ffb300" stroke-linecap="round" stroke-linejoin="round" stroke-miterlimit="10" stroke-width="2"/><linearGradient id="B8fogiIPjIQnlUXLQ41l_a" x1="5.285" x2="38.113" y1="5.285" y2="38.113" gradientUnits="userSpaceOnUse"><stop offset="0" stop-color="#fed100"/><stop offset="1" stop-color="#e36001"/></linearGradient><path fill="url(#B8fogiIPjIQnlUXLQ41l_a)" d="M24,4C12.954,4,4,12.954,4,24s8.954,20,20,20s20-8.954,20-20S35.046,4,24,4z"/></svg>