<svg xmlns="http://www.w3.org/2000/svg" viewBox="0 0 48 48" width="500px" height="500px"><path fill="#673AB7" d="M40,11H22l-4-4H8c-2.209,0-4,1.791-4,4v7h40v-3C44,12.791,42.209,11,40,11"/><path fill="#673AB7" d="M40,11H8c-2.209,0-4,1.791-4,4v22c0,2.209,1.791,4,4,4h5v-1.277c-0.595-0.347-1-0.984-1-1.723c0-1.105,0.895-2,2-2s2,0.895,2,2c0,0.738-0.405,1.376-1,1.723V41h18v-1.277c-0.596-0.347-1-0.984-1-1.723c0-1.105,0.895-2,2-2s2,0.895,2,2c0,0.738-0.405,1.376-1,1.723V41h5c2.209,0,4-1.791,4-4V15C44,12.791,42.209,11,40,11"/><g><path fill="#D1C4E9" d="M19 21c0 2.209-1.791 4-4 4s-4-1.791-4-4 1.791-4 4-4S19 18.791 19 21M22 30c0 0-1.937-3-7-3s-7 3-7 3v2h14V30zM25 18H40V20H25zM25 23H40V25H25zM25 28H33V30H25z"/></g></svg>