<svg xmlns="http://www.w3.org/2000/svg" viewBox="0 0 48 48" width="300px" height="300px"><circle cx="13.5" cy="34.5" r="3.5" fill="#d1c4e9"/><circle cx="34.5" cy="34.5" r="3.5" fill="#d1c4e9"/><path fill="#d1c4e9" d="M30,41H18c-1.105,0-2-0.895-2-2v-8h16v8C32,40.105,31.105,41,30,41z"/><rect width="2" height="2" x="19" y="39" fill="#ede7f6"/><rect width="2" height="2" x="23" y="39" fill="#ede7f6"/><rect width="2" height="2" x="27" y="39" fill="#ede7f6"/><ellipse cx="24" cy="22" fill="#d1c4e9" rx="19" ry="15.833"/><path fill="#504582" d="M24,29c-1,0.199-2.5,2.699-2.5,4c0,0.602,0.602,1,1,1c0.801,0,1.301-0.801,1.5-1.301 C24.199,33.301,24.602,34,25.5,34c0.602,0,1-0.398,1-1C26.5,31.699,25,29.199,24,29z"/><polyline fill="none" stroke="#504582" stroke-linecap="round" stroke-linejoin="round" stroke-miterlimit="10" stroke-width="4" points="13,25 16,22 19,25"/><polyline fill="none" stroke="#504582" stroke-linecap="round" stroke-linejoin="round" stroke-miterlimit="10" stroke-width="4" points="29,25 32,22 35,25"/></svg>