<svg xmlns="http://www.w3.org/2000/svg" viewBox="0 0 48 48" width="100px" height="100px"><path fill="#455A64" d="M24 14A14 14 0 1 0 24 42A14 14 0 1 0 24 14Z"/><path fill="#455A64" d="M42.7 9.3c3.7 3.7 4.4 9 1.5 11.9s-8.2 2.2-11.9-1.5-4.4-9-1.5-11.9S39 5.6 42.7 9.3zM5.3 9.3c-3.7 3.7-4.4 9-1.5 11.9s8.2 2.2 11.9-1.5 4.4-9 1.5-11.9S9 5.6 5.3 9.3z"/><path fill="#FFE0B2" d="M35.2,30.6c-1.1-1.1-2-0.9-3.1-0.3c1.2-2.6,2-6,2-7.6c0-2.8-2.3-5-5-5c-2.8,0-5,2.3-5,5l0,0c0-2.8-2.3-5-5-5c-2.8,0-5,2.3-5,5c0,1.6,0.8,5,2,7.6c-1.2-0.6-2.1-0.7-3.1,0.3c-2.5,2.5,4.2,10.4,11.2,10.4S37.8,33.1,35.2,30.6z"/><path fill="#263238" d="M24.3 32.4A2.8 2 0 1 0 24.3 36.4 2.8 2 0 1 0 24.3 32.4zM27 25A1 3 0 1 0 27 31 1 3 0 1 0 27 25zM21 25A1 3 0 1 0 21 31 1 3 0 1 0 21 25z"/><path fill="#607D8B" d="M24 33.300000000000004A1.2 0.9 0 1 0 24 35.1A1.2 0.9 0 1 0 24 33.300000000000004Z"/></svg>