<svg xmlns="http://www.w3.org/2000/svg" viewBox="0 0 30 30" width="100px" height="100px"><path fill="#839cb2" d="M15,27.5c-5.238,0-9.5-4.262-9.5-9.5c0-1.391,0.304-2.745,0.904-4.024l0.46-0.982l-1.046,0.288 c-0.515,0.142-1.027,0.213-1.522,0.213c-1.156,0-2.153-0.386-2.883-1.116c-0.877-0.876-1.259-2.146-1.076-3.574 C0.525,7.334,1.284,5.87,2.473,4.68C3.858,3.295,5.611,2.5,7.281,2.5c1.158,0,2.158,0.388,2.891,1.121 c1.156,1.156,1.436,2.985,0.747,4.893l-0.372,1.033l1.023-0.397C12.68,8.718,13.834,8.5,15,8.5c1.078,0,2.156,0.19,3.202,0.566 l0.982,0.353l-0.341-0.987c-0.649-1.876-0.359-3.675,0.776-4.811C20.354,2.888,21.354,2.5,22.512,2.5 c1.67,0,3.423,0.795,4.809,2.18c2.414,2.415,2.89,5.869,1.06,7.699c-0.731,0.731-1.729,1.118-2.887,1.118l0,0 c-0.423,0-0.859-0.053-1.299-0.157l-0.998-0.236l0.429,0.932C24.205,15.298,24.5,16.632,24.5,18C24.5,23.238,20.238,27.5,15,27.5z"/><path fill="#66798f" d="M22.512,3c1.538,0,3.162,0.741,4.454,2.034c2.22,2.22,2.695,5.357,1.06,6.992 c-0.635,0.635-1.511,0.971-2.533,0.971c-0.384,0-0.782-0.048-1.184-0.143l-1.996-0.471l0.858,1.863C23.721,15.441,24,16.704,24,18 c0,4.963-4.037,9-9,9s-9-4.037-9-9c0-1.317,0.288-2.6,0.857-3.812l0.921-1.964l-2.091,0.575c-0.472,0.13-0.94,0.196-1.391,0.196 c-1.021,0-1.895-0.335-2.529-0.969c-1.636-1.636-1.16-4.772,1.06-6.992C4.119,3.741,5.742,3,7.281,3 c1.023,0,1.901,0.337,2.538,0.974c1.015,1.015,1.251,2.649,0.63,4.369l-0.745,2.065l2.047-0.794C12.803,9.207,13.896,9,15,9 c1.021,0,2.041,0.18,3.034,0.536l1.965,0.705l-0.683-1.973c-0.585-1.692-0.34-3.297,0.658-4.294C20.611,3.337,21.489,3,22.512,3 M22.512,2c-1.24,0-2.39,0.412-3.245,1.267c-1.323,1.323-1.579,3.352-0.896,5.328C17.317,8.217,16.185,8,15,8 c-1.275,0-2.489,0.248-3.61,0.683c0.722-2.003,0.478-4.073-0.864-5.416C9.671,2.412,8.521,2,7.281,2 C5.549,2,3.642,2.803,2.119,4.327c-2.614,2.614-3.108,6.358-1.06,8.407c0.853,0.853,2,1.262,3.236,1.262 c0.54,0,1.098-0.078,1.656-0.231C5.347,15.051,5,16.483,5,18c0,5.523,4.477,10,10,10s10-4.477,10-10 c0-1.491-0.335-2.901-0.921-4.173c0.477,0.113,0.951,0.17,1.413,0.17c1.238,0,2.387-0.41,3.24-1.264 c2.049-2.049,1.554-5.793-1.06-8.407C26.15,2.803,24.243,2,22.512,2L22.512,2z"/><path fill="#fff9de" d="M22.999,20.49c0-0.004,0.001-0.008,0.001-0.012c0-0.002-0.003-0.004-0.003-0.005	C22.983,19.658,22.319,19,21.5,19c-0.366,0-0.698,0.136-0.958,0.355c0.612-1.382,1.175-2.994,1.375-4.11	c0.007-0.034,0.012-0.068,0.018-0.102C21.973,14.911,22,14.695,22,14.519c0-0.003-0.001-0.006-0.001-0.009	c0-0.003,0.001-0.007,0.001-0.01c0-1.933-1.567-3.5-3.5-3.5S15,12.567,15,14.5c0-1.933-1.567-3.5-3.5-3.5S8,12.567,8,14.5	c0,0.004,0.001,0.007,0.001,0.01C8.001,14.514,8,14.516,8,14.519c0,0.995,0.548,3.005,1.264,4.697C9.04,19.082,8.78,19,8.5,19	C7.672,19,7,19.672,7,20.5v0v0C6.976,22.784,9.792,27,15,27s7.903-4.089,7.99-6.4c0.002-0.034,0.01-0.066,0.01-0.1	C23,20.497,22.999,20.494,22.999,20.49z"/><path fill="#bdccd4" d="M15,22.5c-0.813,0-1.5-0.458-1.5-1s0.687-1,1.5-1s1.5,0.458,1.5,1S15.813,22.5,15,22.5z"/><path fill="#36404d" d="M15,21c0.62,0,1,0.324,1,0.5S15.62,22,15,22s-1-0.324-1-0.5S14.38,21,15,21 M15,20 c-1.105,0-2,0.672-2,1.5s0.895,1.5,2,1.5s2-0.672,2-1.5S16.105,20,15,20L15,20z"/><g><path fill="#4b6477" d="M17,18.5c-0.124,0-0.5-0.532-0.5-1.5s0.376-1.5,0.5-1.5s0.5,0.532,0.5,1.5S17.124,18.5,17,18.5z"/><path fill="#36404d" d="M17,15c-0.552,0-1,0.895-1,2s0.448,2,1,2s1-0.895,1-2S17.552,15,17,15L17,15z"/></g><g><path fill="#4b6477" d="M13,18.5c-0.124,0-0.5-0.532-0.5-1.5s0.376-1.5,0.5-1.5s0.5,0.532,0.5,1.5S13.124,18.5,13,18.5z"/><path fill="#36404d" d="M13,15c-0.552,0-1,0.895-1,2s0.448,2,1,2s1-0.895,1-2S13.552,15,13,15L13,15z"/></g></svg>