<svg xmlns="http://www.w3.org/2000/svg" viewBox="0 0 48 48" width="500px" height="500px"><path fill="#5994ef" d="M28.89,5.53C27.48,5.18,26.01,5,24.5,5s-2.98,0.18-4.39,0.53C20.04,5.84,20,6.17,20,6.5	c0,0.16,0.01,0.32,0.02,0.48c0.1,0.92,0.47,1.76,1.04,2.43C22.16,9.14,23.31,9,24.5,9c1.18,0,2.33,0.14,3.43,0.41	c0.29-0.33,0.53-0.72,0.71-1.13C28.87,7.74,29,7.13,29,6.5C29,6.17,28.96,5.84,28.89,5.53z M40.49,27.15	c-0.07-0.06-0.14-0.12-0.21-0.18c-0.02-0.02-0.04-0.03-0.06-0.05c-0.09-0.07-0.18-0.14-0.28-0.2c-0.08-0.05-0.17-0.11-0.27-0.16	c-0.12-0.06-0.24-0.13-0.37-0.18c-0.06-0.03-0.12-0.06-0.19-0.08c-0.07-0.03-0.13-0.05-0.2-0.07c-0.1-0.04-0.19-0.06-0.29-0.08	c-0.1-0.03-0.2-0.05-0.31-0.07c-0.11-0.02-0.21-0.04-0.32-0.05C37.83,26.01,37.66,26,37.5,26c-0.14,0-0.28,0.01-0.42,0.02	c-0.85,2.02-2.25,3.79-4.03,5.14c0.03,0.18,0.06,0.35,0.11,0.52c0.04,0.17,0.1,0.34,0.16,0.5c0.05,0.13,0.11,0.26,0.18,0.38	c0.04,0.08,0.08,0.16,0.13,0.23c0.05,0.09,0.1,0.18,0.17,0.27c0,0.01,0.01,0.03,0.02,0.04c0.09,0.13,0.19,0.25,0.29,0.37l0.03,0.03	c0.11,0.12,0.22,0.23,0.34,0.34c0.01,0,0.01,0,0.02,0.01c0.06,0.05,0.12,0.11,0.19,0.16c0.07,0.06,0.14,0.11,0.21,0.16	c0.14,0.1,0.28,0.19,0.44,0.27c2.43-1.81,4.34-4.21,5.47-6.97C40.72,27.35,40.61,27.24,40.49,27.15z M30.99,6.18	C31,6.28,31,6.39,31,6.5c0,0.88-0.18,1.77-0.53,2.58c-0.15,0.34-0.33,0.66-0.54,0.97C34.68,12,38,16.4,38,21.5	c0,0.86-0.1,1.7-0.28,2.51c1.43,0.04,2.74,0.55,3.78,1.38c0.33-1.25,0.5-2.55,0.5-3.89C42,14.56,37.44,8.61,30.99,6.18z M31.25,32.32C29.26,33.39,26.96,34,24.5,34s-4.77-0.61-6.76-1.68c-0.07,0.26-0.16,0.51-0.27,0.76c-0.44,1.02-1.14,1.9-1.99,2.56	c2.64,1.5,5.73,2.36,9.02,2.36s6.37-0.86,9.01-2.36C32.44,34.82,31.64,33.66,31.25,32.32z M11.92,26.03v-0.01h-0.05	C11.75,26,11.62,26,11.5,26c-0.28,0-0.56,0.03-0.83,0.08c-0.02,0-0.05,0.01-0.07,0.01c-0.07,0.01-0.13,0.03-0.2,0.05	c-0.03,0-0.06,0.01-0.09,0.02c-0.05,0.01-0.09,0.02-0.14,0.04c-0.02,0.01-0.04,0.01-0.05,0.02c-0.04,0.01-0.07,0.02-0.1,0.03	c-0.03,0.01-0.06,0.02-0.09,0.04c-0.05,0.02-0.1,0.04-0.15,0.05c-0.25,0.1-0.48,0.22-0.7,0.37c-0.1,0.06-0.19,0.13-0.28,0.2	C8.67,27,8.54,27.1,8.43,27.22c-0.09,0.08-0.17,0.16-0.24,0.25c1.13,2.76,3.04,5.16,5.47,6.97h0.01c0.02-0.01,0.04-0.02,0.05-0.03	c0.14-0.07,0.27-0.16,0.39-0.25c0.15-0.1,0.29-0.21,0.42-0.34c0.07-0.06,0.14-0.13,0.2-0.2c0.04-0.03,0.07-0.06,0.09-0.09	c0.09-0.1,0.18-0.2,0.25-0.3c0.04-0.04,0.07-0.08,0.1-0.13c0.02-0.03,0.05-0.06,0.07-0.1c0.13-0.19,0.24-0.39,0.34-0.6	c0.02-0.04,0.04-0.08,0.06-0.12c0.02-0.04,0.04-0.09,0.05-0.14c0.07-0.18,0.13-0.36,0.18-0.55c0-0.01,0-0.02,0.01-0.03	c0-0.02,0-0.04,0.01-0.05c0-0.02,0-0.04,0.01-0.05c0.01-0.06,0.02-0.12,0.03-0.18c0.01-0.04,0.02-0.08,0.02-0.12	C14.17,29.81,12.77,28.05,11.92,26.03z M19.05,10.06c-0.55-0.84-0.91-1.82-1.02-2.87V7.15L18.02,7.1C18.01,6.9,18,6.7,18,6.5	c0-0.11,0-0.22,0.02-0.32C11.57,8.61,7,14.56,7,21.5c0,1.34,0.17,2.64,0.5,3.89c1.07-0.86,2.39-1.34,3.78-1.38	C11.1,23.2,11,22.36,11,21.5C11,16.4,14.31,12.01,19.05,10.06z"/><path fill="#9ccc65" d="M34,18.51V21H15v-2.49c0,0,2.42-5.15,8.68-5.57c0.01,0,0.01,0,0.02,0h0.01	c0.25-0.02,0.52-0.03,0.79-0.03c0.28,0,0.56,0.01,0.83,0.03c0,0,0.01,0,0.02,0c0.81,0.05,1.55,0.19,2.23,0.39	C32.17,14.62,34,18.51,34,18.51z"/><path fill="#e9a437" d="M29,6.5c0,0.63-0.13,1.24-0.36,1.78c-0.18,0.41-0.42,0.8-0.71,1.13c-0.6,0.71-1.41,1.23-2.34,1.45 C25.24,10.95,24.88,11,24.5,11c-1.38,0-2.61-0.62-3.44-1.59c-0.57-0.67-0.94-1.51-1.04-2.43C20.01,6.82,20,6.66,20,6.5 c0-0.33,0.04-0.66,0.11-0.97c0.19-0.9,0.66-1.71,1.32-2.31C22.23,2.46,23.31,2,24.5,2c2.15,0,3.95,1.51,4.39,3.53 C28.96,5.84,29,6.17,29,6.5z"/><path fill="#e9a437" d="M24.5,12.91c-0.27,0-0.54,0.01-0.79,0.03C23.97,12.98,24.23,13,24.5,13c0.28,0,0.55-0.02,0.83-0.06 C25.06,12.92,24.78,12.91,24.5,12.91z"/><path fill="#e9a437" d="M42,30.5c0,0.63-0.13,1.24-0.36,1.78c-0.56,1.28-1.68,2.25-3.05,2.58C38.24,34.95,37.88,35,37.5,35 c-0.11,0-0.22,0-0.33-0.02c-0.08,0-0.15-0.01-0.23-0.02c-0.02,0-0.04,0-0.06-0.01c-0.11-0.01-0.22-0.03-0.33-0.05 c-0.01-0.01-0.02-0.01-0.03-0.01c-0.09-0.02-0.18-0.04-0.26-0.07c-0.15-0.04-0.29-0.09-0.42-0.14c-0.17-0.07-0.34-0.15-0.5-0.24 c-0.16-0.08-0.3-0.17-0.44-0.27c-0.07-0.05-0.14-0.1-0.21-0.16c-0.07-0.05-0.13-0.11-0.19-0.16c-0.01-0.01-0.01-0.01-0.02-0.01 c-0.12-0.11-0.23-0.22-0.34-0.34l-0.03-0.03c-0.1-0.12-0.2-0.24-0.29-0.37c-0.01-0.01-0.02-0.03-0.02-0.04 c-0.07-0.09-0.12-0.18-0.17-0.27c-0.05-0.07-0.09-0.15-0.13-0.23c-0.07-0.12-0.13-0.25-0.18-0.38c-0.06-0.16-0.12-0.33-0.16-0.5 c-0.05-0.17-0.08-0.34-0.11-0.52c-0.02-0.06-0.02-0.12-0.03-0.18C33.01,30.82,33,30.66,33,30.5c0-1.3,0.55-2.47,1.43-3.28 c0.1-0.1,0.2-0.19,0.31-0.27c0.11-0.09,0.22-0.17,0.34-0.24c0.09-0.06,0.18-0.11,0.27-0.16c0.05-0.02,0.09-0.05,0.14-0.07 c0.13-0.07,0.26-0.13,0.4-0.18c0.11-0.05,0.22-0.08,0.33-0.11c0.08-0.03,0.17-0.05,0.26-0.07c0.02,0,0.03-0.01,0.05-0.01 c0.06-0.02,0.13-0.03,0.19-0.04c0.09-0.02,0.18-0.03,0.27-0.04c0.03,0,0.06-0.01,0.09-0.01C37.22,26.01,37.36,26,37.5,26 c0.16,0,0.33,0.01,0.49,0.03c0.11,0.01,0.21,0.03,0.32,0.05c0.11,0.02,0.21,0.04,0.31,0.07c0.1,0.02,0.19,0.04,0.29,0.08 c0.07,0.02,0.13,0.04,0.2,0.07c0.07,0.02,0.13,0.05,0.19,0.08c0.13,0.05,0.25,0.12,0.37,0.18c0.1,0.05,0.19,0.11,0.27,0.16 c0.1,0.06,0.19,0.13,0.28,0.2c0.02,0.02,0.04,0.03,0.06,0.05c0.07,0.06,0.14,0.12,0.21,0.18c0.12,0.09,0.23,0.2,0.32,0.32 c0.08,0.09,0.17,0.18,0.25,0.28c0.01,0.02,0.03,0.04,0.05,0.07c0.01,0.01,0.01,0.02,0.02,0.03c0.06,0.08,0.12,0.16,0.17,0.25 c0.06,0.09,0.11,0.17,0.16,0.26c0.07,0.13,0.14,0.26,0.19,0.39l0.01,0.01c0.03,0.08,0.06,0.16,0.09,0.25 c0.02,0.07,0.04,0.13,0.06,0.2c0.04,0.12,0.07,0.25,0.1,0.37v0.01c0.02,0.1,0.04,0.2,0.05,0.3v0.05c0.01,0.06,0.02,0.11,0.02,0.17 C41.99,30.24,42,30.37,42,30.5z"/><path fill="#e9a437" d="M16,30.5c0,0.14-0.01,0.27-0.02,0.4c-0.01,0.09-0.02,0.17-0.03,0.26c0,0.04-0.01,0.08-0.02,0.12 c-0.01,0.06-0.02,0.12-0.03,0.18c-0.01,0.01-0.01,0.03-0.01,0.05c0,0,0,0.01-0.01,0.01v0.04c-0.01,0.01-0.01,0.02-0.01,0.03 c-0.05,0.19-0.11,0.37-0.18,0.55c-0.01,0.05-0.03,0.1-0.05,0.14c-0.02,0.04-0.04,0.08-0.06,0.12c-0.1,0.21-0.21,0.41-0.34,0.6 c-0.02,0.04-0.05,0.07-0.07,0.1c-0.03,0.05-0.06,0.09-0.1,0.13c-0.07,0.1-0.16,0.2-0.25,0.3c-0.02,0.03-0.05,0.06-0.09,0.09 c-0.06,0.07-0.13,0.14-0.2,0.2c-0.13,0.13-0.27,0.24-0.42,0.34c-0.12,0.09-0.25,0.18-0.39,0.25c-0.01,0.01-0.03,0.02-0.05,0.03 h-0.01l-0.01,0.01c-0.03,0.02-0.07,0.04-0.11,0.06c-0.06,0.03-0.12,0.06-0.18,0.08c-0.09,0.05-0.18,0.08-0.27,0.12 c-0.01,0-0.02,0.01-0.02,0.01c-0.08,0.03-0.16,0.05-0.24,0.07c-0.08,0.03-0.16,0.05-0.24,0.07c-0.02,0.01-0.03,0.01-0.05,0.02 c-0.02,0-0.03,0.01-0.05,0.01c-0.14,0.03-0.27,0.06-0.41,0.07c-0.02,0.01-0.03,0.01-0.04,0h-0.01c-0.02,0.01-0.04,0.01-0.05,0.01 C11.82,34.99,11.66,35,11.5,35c-0.17,0-0.34-0.01-0.5-0.03c-0.12-0.01-0.23-0.03-0.34-0.05c-0.03,0-0.06-0.01-0.09-0.02 c-0.04,0-0.08-0.01-0.12-0.03c-0.08-0.01-0.15-0.03-0.23-0.06c-0.04-0.01-0.08-0.02-0.12-0.03c-0.01,0-0.01-0.01-0.02-0.01 c-0.04-0.01-0.09-0.03-0.13-0.05c-0.01,0-0.03,0-0.04-0.01c-0.02-0.01-0.04-0.01-0.05-0.02c-0.03-0.01-0.06-0.02-0.08-0.04 c-0.01,0.01-0.01,0.01-0.01,0c-0.2-0.08-0.38-0.17-0.56-0.28c-0.03-0.01-0.06-0.03-0.08-0.05c-0.1-0.06-0.2-0.12-0.29-0.19 c-0.05-0.04-0.1-0.08-0.15-0.12C8.68,34,8.66,33.99,8.65,33.98c-0.06-0.05-0.12-0.09-0.17-0.14l-0.09-0.09 c-0.03-0.02-0.05-0.04-0.07-0.07L8.2,33.56c-0.04-0.04-0.07-0.08-0.1-0.12c-0.01-0.01-0.02-0.02-0.03-0.03 c-0.02-0.02-0.04-0.04-0.06-0.07C7.92,33.23,7.84,33.12,7.76,33c-0.03-0.04-0.06-0.09-0.09-0.14c-0.03-0.04-0.05-0.09-0.08-0.14 c-0.06-0.1-0.11-0.21-0.16-0.31c-0.05-0.1-0.09-0.2-0.13-0.29c0-0.02-0.01-0.04-0.02-0.05c-0.02-0.05-0.03-0.1-0.05-0.15 c-0.01-0.03-0.02-0.06-0.03-0.1H7.19c0-0.01,0-0.02,0-0.02c-0.03-0.09-0.05-0.19-0.08-0.29c-0.02-0.11-0.04-0.22-0.06-0.33 c-0.01-0.07-0.02-0.13-0.03-0.2v-0.09C7.01,30.76,7,30.63,7,30.5c0-0.31,0.03-0.61,0.09-0.91c0.03-0.14,0.06-0.28,0.11-0.41 c0.02-0.07,0.04-0.14,0.07-0.21c0.01-0.05,0.03-0.09,0.05-0.13c0.01-0.04,0.03-0.08,0.05-0.12c0.01-0.04,0.03-0.08,0.05-0.11 c0-0.01,0-0.01,0.01-0.02c0-0.02,0.01-0.04,0.02-0.05c0.01-0.02,0.01-0.04,0.03-0.05c0.03-0.06,0.06-0.12,0.09-0.17 c0.03-0.05,0.05-0.09,0.08-0.13c0-0.03,0.02-0.05,0.04-0.07c0.01-0.03,0.03-0.06,0.05-0.08c0.03-0.05,0.06-0.1,0.1-0.15v-0.01 c0.05-0.07,0.1-0.14,0.16-0.2c0-0.01,0.01-0.02,0.03-0.03c0-0.01,0.01-0.01,0.01-0.01c0.02-0.04,0.04-0.06,0.08-0.09 c0.01-0.03,0.03-0.06,0.07-0.08c0.07-0.09,0.15-0.17,0.24-0.25C8.54,27.1,8.67,27,8.8,26.91c0.09-0.07,0.18-0.14,0.28-0.2 c0.22-0.15,0.45-0.27,0.7-0.37c0.05-0.01,0.1-0.03,0.15-0.05c0.03-0.02,0.06-0.03,0.09-0.04c0.03-0.01,0.06-0.02,0.1-0.03 c0.01-0.01,0.03-0.01,0.05-0.02c0.05-0.02,0.09-0.03,0.14-0.04c0.03-0.01,0.06-0.02,0.09-0.02c0.07-0.02,0.13-0.04,0.2-0.05 c0.02,0,0.05-0.01,0.07-0.01C10.94,26.03,11.22,26,11.5,26c0.12,0,0.25,0,0.37,0.02h0.05c0.03,0,0.06,0.01,0.08,0.01 c0.07,0.01,0.15,0.02,0.22,0.03c0.05,0.01,0.11,0.02,0.16,0.03c0.02,0,0.03,0,0.05,0.01c0.03,0,0.05,0.01,0.08,0.02 c0.06,0.01,0.13,0.03,0.19,0.05c0.11,0.02,0.21,0.06,0.32,0.1c0.1,0.03,0.2,0.07,0.3,0.12c0.11,0.04,0.21,0.09,0.32,0.15 c0.13,0.07,0.25,0.15,0.37,0.23c0.05,0.03,0.09,0.06,0.13,0.09c0.07,0.04,0.13,0.09,0.2,0.15c0.01,0.01,0.01,0.01,0.02,0.02 c0.03,0.02,0.07,0.05,0.1,0.09c0.04,0.02,0.07,0.06,0.11,0.1c0.07,0.06,0.14,0.13,0.2,0.2c0.07,0.07,0.14,0.14,0.2,0.22 c0.04,0.05,0.09,0.11,0.13,0.17c0.04,0.04,0.07,0.09,0.1,0.14c0.01,0.01,0.02,0.03,0.04,0.05c0.02,0.03,0.05,0.08,0.07,0.12 c0.04,0.05,0.07,0.1,0.1,0.16c0.01,0.01,0.02,0.03,0.03,0.05c0.01,0.03,0.03,0.05,0.04,0.08c0.03,0.04,0.05,0.09,0.07,0.14 c0.06,0.11,0.11,0.22,0.15,0.34c0.02,0.04,0.03,0.08,0.04,0.12c0.02,0.04,0.04,0.09,0.05,0.14c0.02,0.04,0.03,0.09,0.04,0.14 c0.03,0.11,0.06,0.22,0.08,0.33c0,0.02,0.01,0.04,0.01,0.06l0.01,0.01v0.01c0,0.02,0,0.03,0.01,0.05c0,0.04,0.01,0.09,0.01,0.13 c0.01,0.03,0.02,0.07,0.02,0.1c0,0.01,0,0.02,0,0.02c0,0.01,0,0.02,0,0.02c0.01,0.01,0.01,0.02,0.01,0.02v0.04 C15.99,30.22,16,30.36,16,30.5z"/><path fill="#e9a437" d="M15.91,29.62c0,0.02,0.01,0.04,0.01,0.06l0.01,0.01C15.92,29.67,15.92,29.64,15.91,29.62z M15.97,30.02c0.01,0.02,0.01,0.04,0.01,0.06v-0.04C15.98,30.04,15.98,30.03,15.97,30.02z M8.43,33.78 c-0.01-0.01-0.03-0.02-0.04-0.03l0.09,0.09C8.46,33.82,8.45,33.8,8.43,33.78z M12.59,34.86c-0.02,0.01-0.03,0.01-0.05,0.02 c0.03-0.01,0.06-0.01,0.09-0.02H12.59z M15.88,31.52v0.04c0-0.02,0-0.04,0.01-0.05C15.89,31.51,15.89,31.52,15.88,31.52z"/><path fill="#7e8e99" d="M2,42.505c0,0,2.63-5.595,9.5-5.595c6.869,0,9.5,5.595,9.5,5.595V45H2V42.505z"/><path fill="#e9a437" d="M16,30.5c0,0.14-0.01,0.27-0.02,0.4c-0.01,0.09-0.02,0.17-0.03,0.26c0,0.04-0.01,0.08-0.02,0.12	c-0.01,0.06-0.02,0.12-0.03,0.18c-0.01,0.01-0.01,0.03-0.01,0.05c-0.01,0.01-0.01,0.03-0.01,0.05c-0.01,0.01-0.01,0.02-0.01,0.03	c-0.05,0.19-0.11,0.37-0.18,0.55c-0.03,0.08-0.07,0.17-0.11,0.26c-0.1,0.21-0.21,0.41-0.34,0.6c-0.02,0.04-0.05,0.07-0.07,0.1	c-0.03,0.05-0.06,0.09-0.1,0.13c-0.07,0.1-0.16,0.2-0.25,0.3c-0.02,0.03-0.05,0.06-0.09,0.09c-0.06,0.07-0.13,0.14-0.2,0.2	c-0.13,0.13-0.27,0.24-0.42,0.34c-0.12,0.09-0.25,0.18-0.39,0.25c-0.01,0.01-0.03,0.02-0.05,0.03h-0.01l-0.01,0.01	c-0.03,0.02-0.07,0.04-0.11,0.06c-0.06,0.03-0.12,0.06-0.18,0.08c-0.09,0.05-0.18,0.08-0.27,0.12c-0.01,0-0.02,0.01-0.02,0.01	c-0.08,0.03-0.16,0.05-0.24,0.07c-0.07,0.03-0.13,0.05-0.2,0.07c-0.03,0.01-0.06,0.01-0.09,0.02c-0.02,0-0.03,0.01-0.05,0.01	c-0.14,0.03-0.27,0.06-0.41,0.07c-0.02,0.01-0.03,0.01-0.04,0h-0.01c-0.02,0.01-0.04,0.01-0.05,0.01C11.82,34.99,11.66,35,11.5,35	c-0.17,0-0.34-0.01-0.5-0.03c-0.12-0.01-0.23-0.03-0.34-0.05c-0.03,0-0.06-0.01-0.09-0.02c-0.04,0-0.08-0.01-0.12-0.03	c-0.08-0.01-0.15-0.03-0.23-0.06c-0.04-0.01-0.08-0.02-0.12-0.03c-0.01,0-0.01-0.01-0.02-0.01c-0.04-0.01-0.09-0.03-0.13-0.05	c-0.01,0-0.03,0-0.04-0.01c-0.02-0.01-0.04-0.01-0.05-0.02c-0.03-0.01-0.06-0.02-0.08-0.04c-0.01,0.01-0.01,0.01-0.01,0	c-0.2-0.08-0.38-0.17-0.56-0.28c-0.03-0.01-0.06-0.03-0.08-0.05c-0.1-0.06-0.2-0.12-0.29-0.19c-0.05-0.04-0.1-0.08-0.15-0.12	C8.68,34,8.66,33.99,8.65,33.98c-0.08-0.06-0.15-0.13-0.22-0.2c-0.12-0.11-0.23-0.22-0.33-0.34c-0.01-0.01-0.02-0.02-0.03-0.03	c-0.02-0.02-0.04-0.04-0.06-0.07C7.92,33.23,7.84,33.12,7.76,33c-0.03-0.04-0.06-0.09-0.09-0.14c-0.03-0.04-0.05-0.09-0.08-0.14	c-0.06-0.1-0.11-0.21-0.16-0.31c-0.05-0.1-0.09-0.2-0.13-0.29c0-0.02-0.01-0.04-0.02-0.05c-0.02-0.05-0.03-0.1-0.05-0.15	c-0.01-0.03-0.02-0.06-0.03-0.1c0,0,0-0.01-0.01-0.02c-0.03-0.09-0.05-0.19-0.08-0.29c-0.02-0.11-0.04-0.22-0.06-0.33	c-0.01-0.08-0.02-0.17-0.03-0.25v-0.04C7.01,30.76,7,30.63,7,30.5c0-0.31,0.03-0.61,0.09-0.91c0.03-0.14,0.06-0.28,0.11-0.41	c0.02-0.07,0.04-0.14,0.07-0.21c0.01-0.05,0.03-0.09,0.05-0.13c0.01-0.04,0.03-0.08,0.05-0.12c0.01-0.04,0.03-0.08,0.05-0.11	c0-0.01,0-0.01,0.01-0.02c0-0.02,0.01-0.04,0.02-0.05c0.01-0.02,0.01-0.04,0.03-0.05c0.03-0.06,0.06-0.12,0.09-0.17	c0.03-0.05,0.05-0.09,0.08-0.13c0-0.03,0.02-0.05,0.04-0.07c0.01-0.03,0.03-0.06,0.05-0.08c0.03-0.05,0.06-0.1,0.1-0.15v-0.01	c0.05-0.07,0.1-0.14,0.16-0.2c0-0.01,0.01-0.02,0.03-0.03v-0.01h0.01c0.02-0.04,0.04-0.06,0.08-0.09c0.01-0.03,0.03-0.06,0.07-0.08	c0.07-0.09,0.15-0.17,0.24-0.25C8.54,27.1,8.67,27,8.8,26.91c0.09-0.07,0.18-0.14,0.28-0.2c0.22-0.15,0.45-0.27,0.7-0.37	c0.05-0.01,0.1-0.03,0.15-0.05c0.03-0.02,0.06-0.03,0.09-0.04c0.03-0.01,0.06-0.02,0.1-0.03c0.01-0.01,0.03-0.01,0.05-0.02	c0.05-0.02,0.09-0.03,0.14-0.04c0.03-0.01,0.06-0.02,0.09-0.02c0.07-0.02,0.13-0.04,0.2-0.05c0.02,0,0.05-0.01,0.07-0.01	C10.94,26.03,11.22,26,11.5,26c0.12,0,0.25,0,0.37,0.02c0.01,0,0.03,0,0.05,0.01c0.03-0.01,0.05,0,0.08,0	c0.07,0.01,0.15,0.02,0.22,0.03c0.05,0.01,0.11,0.02,0.16,0.03c0.02,0,0.03,0,0.05,0.01c0.03,0,0.05,0.01,0.08,0.02	c0.06,0.01,0.13,0.03,0.19,0.05c0.11,0.02,0.21,0.06,0.32,0.1c0.1,0.03,0.2,0.07,0.3,0.12c0.11,0.04,0.21,0.09,0.32,0.15	c0.13,0.07,0.25,0.15,0.37,0.23c0.05,0.03,0.09,0.06,0.13,0.09c0.07,0.04,0.13,0.09,0.2,0.15c0,0,0.01,0.01,0.02,0.01v0.01	c0.03,0.02,0.07,0.05,0.1,0.09c0.04,0.02,0.07,0.06,0.11,0.1c0.07,0.06,0.14,0.13,0.2,0.2c0.07,0.07,0.14,0.14,0.2,0.22	c0.04,0.05,0.09,0.11,0.13,0.17c0.04,0.04,0.07,0.09,0.1,0.14c0.01,0.01,0.02,0.03,0.04,0.05c0.02,0.03,0.05,0.08,0.07,0.12	c0.04,0.05,0.07,0.1,0.1,0.16c0.01,0.01,0.02,0.03,0.03,0.05c0.01,0.03,0.03,0.05,0.04,0.08c0.03,0.04,0.05,0.09,0.07,0.14	c0.06,0.11,0.11,0.22,0.15,0.34c0.02,0.04,0.03,0.08,0.04,0.12c0.02,0.04,0.04,0.09,0.05,0.14c0.02,0.04,0.03,0.09,0.04,0.14	c0.03,0.11,0.06,0.22,0.08,0.33c0.01,0.02,0.01,0.05,0.02,0.07v0.01c0,0.02,0,0.03,0.01,0.05c0,0.04,0.01,0.09,0.01,0.13	c0.01,0.03,0.02,0.07,0.02,0.1c0,0.01,0,0.02,0,0.02c0,0.01,0,0.02,0,0.02c0.01,0.01,0.01,0.02,0.01,0.02v0.04	C15.99,30.22,16,30.36,16,30.5z"/><path fill="#7e8e99" d="M47,42.51V45H28v-2.49c0,0,0.45-0.96,1.46-2.08c1.44-1.59,4.01-3.52,8.04-3.52	c1.1,0,2.08,0.14,2.97,0.38c0.15,0.04,0.29,0.08,0.43,0.13c1.59,0.5,2.83,1.31,3.77,2.15c0.38,0.34,0.72,0.68,0.99,1.01	C46.59,41.64,47,42.51,47,42.51z"/></svg>