<svg fill="#000000" xmlns="http://www.w3.org/2000/svg" viewBox="0 0 30 30" width="50px" height="50px"><path d="M 14 1 A 1.0001 1.0001 0 1 0 14 3 L 16 3 A 1.0001 1.0001 0 1 0 16 1 L 14 1 z M 6.4960938 4.0917969 A 1.0001 1.0001 0 0 0 5.8085938 4.3945312 L 4.3945312 5.8085938 A 1.0001 1.0001 0 1 0 5.8085938 7.2226562 L 7.2226562 5.8085938 A 1.0001 1.0001 0 0 0 6.4960938 4.0917969 z M 23.474609 4.0917969 A 1.0001 1.0001 0 0 0 22.777344 5.8085938 L 24.191406 7.2226562 A 1.0001 1.0001 0 1 0 25.605469 5.8085938 L 24.191406 4.3945312 A 1.0001 1.0001 0 0 0 23.474609 4.0917969 z M 15 5 C 9.477 5 5 9.477 5 15 C 5 20.523 9.477 25 15 25 C 20.523 25 25 20.523 25 15 C 25 9.477 20.523 5 15 5 z M 15 6 C 15.552 6 16 6.336 16 6.75 C 16 7.164 15.552 7.5 15 7.5 C 14.448 7.5 14 7.164 14 6.75 C 14 6.336 14.448 6 15 6 z M 9.2910156 8.2910156 C 9.5148906 8.2588906 9.7270469 8.3124844 9.8730469 8.4589844 C 10.166047 8.7519844 10.086312 9.3053125 9.6953125 9.6953125 C 9.3043125 10.086313 8.7509844 10.166047 8.4589844 9.8730469 C 8.1659844 9.5810469 8.2457187 9.0277188 8.6367188 8.6367188 C 8.8322187 8.4417187 9.0671406 8.3231406 9.2910156 8.2910156 z M 20.708984 8.2910156 C 20.932859 8.3230156 21.168281 8.4412187 21.363281 8.6367188 C 21.754281 9.0277188 21.834016 9.5810469 21.541016 9.8730469 C 21.248016 10.166047 20.694688 10.086312 20.304688 9.6953125 C 19.913688 9.3053125 19.833953 8.7519844 20.126953 8.4589844 C 20.273453 8.3124844 20.485109 8.2590156 20.708984 8.2910156 z M 15 9 C 15.552 9 16 9.448 16 10 C 16 10.552 15.552 11 15 11 C 14.448 11 14 10.552 14 10 C 14 9.448 14.448 9 15 9 z M 11.464844 10.464844 C 11.720844 10.464719 11.976875 10.562313 12.171875 10.757812 C 12.561875 11.148813 12.561875 11.780875 12.171875 12.171875 C 11.780875 12.562875 11.147813 12.562875 10.757812 12.171875 C 10.367813 11.780875 10.366813 11.147813 10.757812 10.757812 C 10.952813 10.562812 11.208844 10.464969 11.464844 10.464844 z M 18.535156 10.464844 C 18.791031 10.464844 19.046688 10.562812 19.242188 10.757812 C 19.633188 11.148813 19.633188 11.781875 19.242188 12.171875 C 18.851187 12.562875 18.218125 12.562875 17.828125 12.171875 C 17.438125 11.781875 17.437125 11.147813 17.828125 10.757812 C 18.023125 10.562812 18.279281 10.464844 18.535156 10.464844 z M 1.984375 12.986328 A 1.0001 1.0001 0 0 0 1 14 L 1 16 A 1.0001 1.0001 0 1 0 3 16 L 3 14 A 1.0001 1.0001 0 0 0 1.984375 12.986328 z M 27.984375 12.986328 A 1.0001 1.0001 0 0 0 27 14 L 27 16 A 1.0001 1.0001 0 1 0 29 16 L 29 14 A 1.0001 1.0001 0 0 0 27.984375 12.986328 z M 6.75 14 C 7.164 14 7.5 14.448 7.5 15 C 7.5 15.552 7.164 16 6.75 16 C 6.336 16 6 15.552 6 15 C 6 14.448 6.336 14 6.75 14 z M 10 14 C 10.552 14 11 14.448 11 15 C 11 15.552 10.552 16 10 16 C 9.448 16 9 15.552 9 15 C 9 14.448 9.448 14 10 14 z M 15 14 C 15.552 14 16 14.448 16 15 C 16 15.552 15.552 16 15 16 C 14.448 16 14 15.552 14 15 C 14 14.448 14.448 14 15 14 z M 20 14 C 20.552 14 21 14.448 21 15 C 21 15.552 20.552 16 20 16 C 19.448 16 19 15.552 19 15 C 19 14.448 19.448 14 20 14 z M 23.25 14 C 23.664 14 24 14.448 24 15 C 24 15.552 23.664 16 23.25 16 C 22.836 16 22.5 15.552 22.5 15 C 22.5 14.448 22.836 14 23.25 14 z M 11.464844 17.535156 C 11.720719 17.535156 11.976375 17.633125 12.171875 17.828125 C 12.562875 18.219125 12.562875 18.852187 12.171875 19.242188 C 11.780875 19.633188 11.147813 19.633188 10.757812 19.242188 C 10.367812 18.852187 10.366813 18.218125 10.757812 17.828125 C 10.952813 17.633125 11.208969 17.535156 11.464844 17.535156 z M 18.535156 17.535156 C 18.791156 17.535031 19.047187 17.632625 19.242188 17.828125 C 19.632188 18.218125 19.632188 18.851188 19.242188 19.242188 C 18.851187 19.633188 18.218125 19.633188 17.828125 19.242188 C 17.437125 18.851187 17.437125 18.218125 17.828125 17.828125 C 18.023125 17.633125 18.279156 17.535281 18.535156 17.535156 z M 15 19 C 15.552 19 16 19.448 16 20 C 16 20.552 15.552 21 15 21 C 14.448 21 14 20.552 14 20 C 14 19.448 14.448 19 15 19 z M 9.0410156 19.958984 C 9.2648906 19.990984 9.5003125 20.109188 9.6953125 20.304688 C 10.086313 20.695688 10.166047 21.249016 9.8730469 21.541016 C 9.5800469 21.834016 9.0267188 21.754281 8.6367188 21.363281 C 8.2467188 20.972281 8.1659844 20.418953 8.4589844 20.126953 C 8.6054844 19.980453 8.8171406 19.926984 9.0410156 19.958984 z M 20.958984 19.958984 C 21.182859 19.926984 21.394516 19.980453 21.541016 20.126953 C 21.834016 20.419953 21.754281 20.973281 21.363281 21.363281 C 20.972281 21.754281 20.418953 21.834016 20.126953 21.541016 C 19.833953 21.248016 19.913688 20.694688 20.304688 20.304688 C 20.499688 20.109188 20.735109 19.990984 20.958984 19.958984 z M 5.0898438 22.474609 A 1.0001 1.0001 0 0 0 4.3945312 24.191406 L 5.8085938 25.605469 A 1.0001 1.0001 0 1 0 7.2226562 24.191406 L 5.8085938 22.777344 A 1.0001 1.0001 0 0 0 5.0898438 22.474609 z M 24.878906 22.474609 A 1.0001 1.0001 0 0 0 24.191406 22.777344 L 22.777344 24.191406 A 1.0001 1.0001 0 1 0 24.191406 25.605469 L 25.605469 24.191406 A 1.0001 1.0001 0 0 0 24.878906 22.474609 z M 15 22.5 C 15.552 22.5 16 22.836 16 23.25 C 16 23.664 15.552 24 15 24 C 14.448 24 14 23.664 14 23.25 C 14 22.836 14.448 22.5 15 22.5 z M 14 27 A 1.0001 1.0001 0 1 0 14 29 L 16 29 A 1.0001 1.0001 0 1 0 16 27 L 14 27 z"/></svg>