<svg xmlns="http://www.w3.org/2000/svg" viewBox="0 0 40 40" width="300px" height="300px"><path fill="#b6dcfe" d="M20,36.5c-6.893,0-12.5-5.607-12.5-12.5c0-1.758,0.366-3.47,1.089-5.088l0.426-0.952l-1.009,0.265 c-0.743,0.195-1.476,0.293-2.179,0.293c-1.093,0-2.638-0.247-3.793-1.42c-2.492-2.533-1.862-7.295,1.403-10.615 C5.302,4.587,7.663,3.5,9.916,3.5c1.576,0,2.938,0.538,3.94,1.556c1.543,1.569,1.942,4.05,1.068,6.637l-0.339,1.003l0.989-0.375 C17.013,11.776,18.502,11.5,20,11.5c1.496,0,2.982,0.275,4.417,0.819l0.988,0.374l-0.338-1.001 c-0.87-2.584-0.469-5.064,1.076-6.635c1.002-1.018,2.364-1.556,3.94-1.556c2.253,0,4.614,1.087,6.479,2.982 c3.266,3.32,3.896,8.082,1.403,10.615c-0.912,0.928-2.322,1.438-3.97,1.438c-0.651,0-1.316-0.079-1.976-0.235l-0.976-0.23 l0.402,0.917C32.146,20.582,32.5,22.268,32.5,24C32.5,30.893,26.893,36.5,20,36.5z"/><path fill="#4788c7" d="M30.084,4c2.119,0,4.351,1.033,6.122,2.833c3.076,3.127,3.705,7.574,1.403,9.914 c-0.818,0.831-2.101,1.289-3.613,1.289c-0.613,0-1.239-0.074-1.861-0.221l-1.95-0.46l0.805,1.835C31.66,20.719,32,22.337,32,24 c0,6.617-5.383,12-12,12S8,30.617,8,24c0-1.687,0.352-3.33,1.046-4.884l0.851-1.904L7.88,17.741 c-0.702,0.184-1.392,0.277-2.052,0.277c-0.998,0-2.404-0.22-3.437-1.271c-2.302-2.34-1.672-6.787,1.403-9.914 C5.565,5.032,7.796,4,9.915,4c1.44,0,2.679,0.487,3.584,1.407c1.408,1.431,1.764,3.722,0.951,6.127l-0.677,2.005l1.979-0.75 C17.133,12.265,18.562,12,20,12c1.435,0,2.861,0.265,4.24,0.786l1.977,0.748l-0.675-2.003C24.732,9.13,25.09,6.84,26.5,5.407 C27.406,4.486,28.645,4,30.084,4 M30.084,3c-1.642,0-3.165,0.555-4.297,1.705C24.042,6.48,23.7,9.2,24.594,11.851 C23.164,11.31,21.62,11,20,11c-1.623,0-3.169,0.311-4.602,0.854c0.896-2.652,0.561-5.373-1.186-7.148 C13.081,3.555,11.557,3,9.916,3C7.622,3,5.098,4.081,3.081,6.132c-3.461,3.519-4.116,8.559-1.403,11.316 c1.075,1.093,2.562,1.57,4.15,1.57c0.757,0,1.537-0.108,2.306-0.31C7.411,20.326,7,22.114,7,24c0,7.18,5.82,13,13,13 s13-5.82,13-13c0-1.855-0.395-3.615-1.095-5.212c0.686,0.162,1.394,0.248,2.091,0.248c1.651,0,3.24-0.483,4.326-1.588 c2.713-2.758,2.058-7.798-1.403-11.316C34.902,4.082,32.377,3,30.084,3L30.084,3z"/><path fill="#fff" d="M28,26c-0.26,0-0.507,0.053-0.735,0.144C28.32,23.908,29,20.943,29,19.5c0-2.485-2.015-4.5-4.5-4.5 S20,17.015,20,19.5c0-2.485-2.015-4.5-4.5-4.5S11,17.015,11,19.5c0,1.443,0.68,4.408,1.735,6.644C12.507,26.053,12.26,26,12,26 c-1.105,0-2,0.895-2,2c-0.032,3.074,3.103,8,10,8s9.885-4.888,10-8C30,26.895,29.105,26,28,26z"/><path fill="#4788c7" d="M20 27A3 2 0 1 0 20 31A3 2 0 1 0 20 27Z"/><path fill="#dff0fe" d="M20 28A1 0.5 0 1 0 20 29A1 0.5 0 1 0 20 28Z"/><path fill="#4788c7" d="M22.5 20A1.5 3 0 1 0 22.5 26A1.5 3 0 1 0 22.5 20Z"/><g><path fill="#4788c7" d="M17.5 20A1.5 3 0 1 0 17.5 26A1.5 3 0 1 0 17.5 20Z"/></g></svg>