<svg fill="#000000" xmlns="http://www.w3.org/2000/svg" viewBox="0 0 32 32" width="50px" height="50px"><path d="M 16 5 C 13.414 5 11.000063 6.0897187 9.2890625 8.0117188 C 7.0080625 7.8167187 5.1148594 9.5927813 5.0058594 11.800781 C 3.1598594 12.862781 2 14.834 2 17 C 2 20.309 4.691 23 8 23 L 16.070312 23 C 16.028764 23.32857 16 23.660626 16 24 C 16 28.4 19.6 32 24 32 C 28.4 32 32 28.4 32 24 C 32 21.876658 31.156994 19.943871 29.794922 18.507812 C 29.922727 18.025394 30 17.522348 30 17 C 30 13.854 27.567375 11.266531 24.484375 11.019531 C 23.232375 7.4375313 19.85 5 16 5 z M 16 7 C 19.2 7 21.986391 9.1674844 22.775391 12.271484 L 22.976562 13.070312 L 23.798828 13.023438 C 23.864828 13.019438 23.929047 13.012 23.998047 13 C 26.204047 13 27.998047 14.794 27.998047 17 C 27.998047 17.028089 27.99098 17.054149 27.990234 17.082031 C 26.812916 16.398288 25.452329 16 24 16 C 20.66037 16 17.78536 18.076462 16.591797 21 L 8 21 C 5.794 21 4 19.206 4 17 C 4 15.396 4.9555938 13.950359 6.4335938 13.318359 L 7.1269531 13.023438 L 7.0195312 12.175781 C 7.0115313 12.118781 7 12.06 7 12 C 7 10.897 7.897 10 9 10 C 9.137 10 9.2847969 10.0195 9.4667969 10.0625 L 10.089844 10.208984 L 10.482422 9.7050781 C 11.822422 7.9850781 13.834 7 16 7 z M 24 18 C 27.3 18 30 20.7 30 24 C 30 27.3 27.3 30 24 30 C 20.7 30 18 27.3 18 24 C 18 20.7 20.7 18 24 18 z M 23 20 L 23 23 L 20 23 L 20 25 L 23 25 L 23 28 L 25 28 L 25 25 L 28 25 L 28 23 L 25 23 L 25 20 L 23 20 z"/></svg>