<svg xmlns="http://www.w3.org/2000/svg" width="100" height="100" viewBox="0 0 64 64"><radialGradient id="pxyIGzhJb8~KFrfHlzoz~a" cx="31" cy="32" r="31.504" gradientUnits="userSpaceOnUse" spreadMethod="reflect"><stop offset="0" stop-color="#afeeff"/><stop offset=".193" stop-color="#bbf1ff"/><stop offset=".703" stop-color="#d7f8ff"/><stop offset="1" stop-color="#e1faff"/></radialGradient><path fill="url(#pxyIGzhJb8~KFrfHlzoz~a)" d="M58.103,47.01C57.294,46.989,42,47.008,42,47.008V25h16.5c1.933,0,3.5-1.567,3.5-3.5 S60.433,18,58.5,18h-1.393c-0.996,0-1.92-0.681-2.08-1.664C54.824,15.083,55.785,14,57,14h0c1.657,0,3-1.343,3-3v0 c0-1.657-1.343-3-3-3L44.5,8C43.672,8,43,7.328,43,6.5S43.672,5,44.5,5h3.857c1.308,0,2.5-0.941,2.63-2.242 C51.137,1.261,49.966,0,48.5,0L15.643,0c-1.308,0-2.5,0.941-2.63,2.242C12.863,3.739,14.034,5,15.5,5h1.393 c0.996,0,1.92,0.681,2.08,1.664C19.176,7.917,18.215,9,17,9H4c-1.657,0-3,1.343-3,3c0,1.657,1.343,3,3,3h1c1.657,0,3,1.343,3,3 s-1.343,3-3,3H4.189c-2.086,0-3.958,1.514-4.168,3.59C-0.22,26.972,1.665,29,4,29h18v18.008H5.189c-2.086,0-3.958,1.514-4.168,3.59 C0.78,52.98,2.665,55,5,55h9.581C15.368,55.043,16,55.703,16,56.5c0,0.825-0.675,1.5-1.5,1.5H12c-1.65,0-3,1.35-3,3 c0,1.65,1.35,3,3,3h40c1.375,0,2.5-1.125,2.5-2.5S53.375,59,52,59h-7c-1.1,0-2-0.9-2-2c0-1.072,0.857-1.948,1.919-1.992h12.892 c1.899,0,3.857-1.507,4.142-3.385C62.322,49.19,60.457,47.07,58.103,47.01z"/><linearGradient id="pxyIGzhJb8~KFrfHlzoz~b" x1="32" x2="32" y1="50.484" y2="11.754" gradientUnits="userSpaceOnUse" spreadMethod="reflect"><stop offset="0" stop-color="#ff8b67"/><stop offset=".847" stop-color="#ffa76a"/><stop offset="1" stop-color="#ffad6b"/></linearGradient><path fill="url(#pxyIGzhJb8~KFrfHlzoz~b)" d="M45.195,11h-26.39c-2.323,0-4.437,1.341-5.427,3.442L4.346,33.6L22,42h18l19.654-8.4 l-9.031-19.158C49.632,12.341,47.518,11,45.195,11z"/><linearGradient id="pxyIGzhJb8~KFrfHlzoz~c" x1="31.382" x2="31.382" y1="29.93" y2="-13.078" gradientUnits="userSpaceOnUse" spreadMethod="reflect"><stop offset="0" stop-color="#ff8b67"/><stop offset=".847" stop-color="#ffa76a"/><stop offset="1" stop-color="#ffad6b"/></linearGradient><path fill="url(#pxyIGzhJb8~KFrfHlzoz~c)" d="M45.195,16c0.385,0,0.74,0.225,0.905,0.574l8.327,17.522L38.976,43H23.129L8.338,36.771 L17.9,16.574C18.065,16.225,18.42,16,18.805,16H45.195"/><linearGradient id="pxyIGzhJb8~KFrfHlzoz~d" x1="42.213" x2="42.213" y1="41" y2="16" gradientUnits="userSpaceOnUse" spreadMethod="reflect"><stop offset=".104" stop-color="#ff8663"/><stop offset=".989" stop-color="#fe8d6b"/></linearGradient><path fill="url(#pxyIGzhJb8~KFrfHlzoz~d)" d="M39,18.5c0,1.381,1.119,2.5,2.5,2.5s2.5,1.119,2.5,2.5c0,1.381-1.119,2.5-2.5,2.5h-5 c-1.381,0-2.5,1.119-2.5,2.5c0,1.381,1.119,2.5,2.5,2.5s2.5,1.119,2.5,2.5c0,1.381-1.119,2.5-2.5,2.5h-4c-1.381,0-2.5,1.119-2.5,2.5 c0,1.381,1.119,2.5,2.5,2.5h9.947l11.98-6.904L46.1,16.574C45.935,16.225,45.58,16,45.195,16H41.5C40.119,16,39,17.119,39,18.5z"/><linearGradient id="pxyIGzhJb8~KFrfHlzoz~e" x1="32" x2="32" y1="58.503" y2="30.713" gradientUnits="userSpaceOnUse" spreadMethod="reflect"><stop offset="0" stop-color="#ffc050"/><stop offset="1" stop-color="#ffbd85"/></linearGradient><path fill="url(#pxyIGzhJb8~KFrfHlzoz~e)" d="M57,32l-11.528,0c-0.949,0-1.831,0.457-2.402,1.214C40.425,36.724,36.233,39,31.5,39 s-8.925-2.276-11.57-5.786C19.36,32.457,18.477,32,17.528,32L7,32c-1.657,0-3,1.343-3,3v12c0,3.314,2.686,6,6,6h44 c3.314,0,6-2.686,6-6V35C60,33.343,58.657,32,57,32z"/><linearGradient id="pxyIGzhJb8~KFrfHlzoz~f" x1="52" x2="52" y1="40" y2="64" gradientUnits="userSpaceOnUse" spreadMethod="reflect"><stop offset="0" stop-color="#42d778"/><stop offset=".428" stop-color="#3dca76"/><stop offset="1" stop-color="#34b171"/></linearGradient><path fill="url(#pxyIGzhJb8~KFrfHlzoz~f)" d="M52 40A12 12 0 1 0 52 64A12 12 0 1 0 52 40Z"/><path fill="#fff" d="M57,54H47c-1.1,0-2-0.9-2-2v0c0-1.1,0.9-2,2-2h10c1.1,0,2,0.9,2,2v0C59,53.1,58.1,54,57,54z"/><path fill="#fff" d="M54,47v10c0,1.1-0.9,2-2,2h0c-1.1,0-2-0.9-2-2V47c0-1.1,0.9-2,2-2h0C53.1,45,54,45.9,54,47z"/></svg>