<svg xmlns="http://www.w3.org/2000/svg" width="300" height="300" fill="#000" viewBox="0 0 50 50"><path d="M 28.992188 9 C 23.926188 9 19.629328 11.6725 17.486328 16.0625 C 16.386328 15.3705 15.061625 15 13.640625 15 C 10.003625 15 7.2249531 17.766719 7.0019531 21.511719 C 2.5409531 23.020719 -5.9211895e-16 26.561078 0 31.330078 C 0 36.661078 4.3379219 41 9.6699219 41 L 28.050781 41 C 28.023781 40.669 28 40.338 28 40 C 28 39.662 28.023781 39.331 28.050781 39 L 9.6699219 39 C 5.4409219 39 2 35.559078 2 31.330078 C 2 25.774078 5.925625 23.860844 8.265625 23.214844 L 9.0273438 23.005859 L 8.9863281 22 C 8.9863281 19.149 10.987625 17 13.640625 17 C 15.048625 17 16.306594 17.483328 17.183594 18.361328 L 18.287109 19.466797 L 18.830078 18.001953 C 20.428078 13.683953 24.322187 11 28.992188 11 C 35.164187 11 40 15.832 40 22 C 40 22.415 39.970297 22.853859 39.904297 23.380859 L 39.822266 24.501953 L 40.953125 24.501953 C 44.292125 24.501953 47.352344 27.472328 47.902344 30.986328 C 48.662344 31.653328 49.345969 32.408094 49.917969 33.246094 C 49.966969 32.870094 50 32.488609 50 32.099609 C 50 27.370609 46.384375 23.179125 41.984375 22.578125 C 41.994375 22.380125 42 22.188 42 22 C 42 14.71 36.286187 9 28.992188 9 z M 40 30.011719 C 37.43675 30.011719 34.874187 30.985188 32.929688 32.929688 C 29.040688 36.818687 29.040688 43.181312 32.929688 47.070312 C 36.818687 50.959313 43.181312 50.959312 47.070312 47.070312 C 50.959312 43.181313 50.959313 36.818688 47.070312 32.929688 C 45.125813 30.985187 42.56325 30.011719 40 30.011719 z M 40 32.009766 C 42.050625 32.009766 44.10075 32.78825 45.65625 34.34375 C 48.76725 37.45475 48.76725 42.54525 45.65625 45.65625 C 42.54425 48.76725 37.45475 48.76725 34.34375 45.65625 C 31.23275 42.54425 31.23275 37.45475 34.34375 34.34375 C 35.89975 32.78825 37.949375 32.009766 40 32.009766 z M 40 34.060547 C 39.434 34.060547 39.009766 34.484781 39.009766 35.050781 L 39.009766 39.009766 L 35.050781 39.009766 C 34.484781 39.009766 34.060547 39.434 34.060547 40 C 34.060547 40.566 34.484781 40.990234 35.050781 40.990234 L 39.009766 40.990234 L 39.009766 44.949219 C 39.009766 45.515219 39.434 45.939453 40 45.939453 C 40.283 45.939453 40.566031 45.79725 40.707031 45.65625 C 40.849031 45.51525 40.990234 45.232219 40.990234 44.949219 L 40.990234 40.990234 L 44.949219 40.990234 C 45.232219 40.990234 45.51525 40.848031 45.65625 40.707031 C 45.79825 40.566031 45.939453 40.283 45.939453 40 C 45.939453 39.434 45.515219 39.009766 44.949219 39.009766 L 40.990234 39.009766 L 40.990234 35.050781 C 40.990234 34.485781 40.566 34.060547 40 34.060547 z"/></svg>