<svg xmlns="http://www.w3.org/2000/svg" width="50" height="50" fill="#000" viewBox="0 0 80 80"><path d="M 33.847656 12 L 13.980469 68 L 25.886719 68 L 30.527344 54 L 47.875 54 C 48.308594 53.304688 48.769531 52.632813 49.285156 52 L 29.078125 52 L 24.4375 66 L 16.8125 66 L 35.261719 14 L 44.703125 14 L 56.308594 46.640625 C 56.914063 46.371094 57.535156 46.128906 58.171875 45.921875 L 46.113281 12 Z M 38.734375 22.292969 L 30.671875 47 L 48.800781 47 L 40.824219 22.292969 Z M 39.773438 25.550781 L 46.054688 45 L 33.425781 45 Z M 64 48 C 55.175781 48 48 55.175781 48 64 C 48 72.824219 55.175781 80 64 80 C 72.824219 80 80 72.824219 80 64 C 80 55.175781 72.824219 48 64 48 Z M 64 50 C 71.742188 50 78 56.257813 78 64 C 78 71.742188 71.742188 78 64 78 C 56.257813 78 50 71.742188 50 64 C 50 56.257813 56.257813 50 64 50 Z M 33 57 C 32.449219 57 32 57.449219 32 58 C 32 58.550781 32.449219 59 33 59 C 33.550781 59 34 58.550781 34 58 C 34 57.449219 33.550781 57 33 57 Z M 37 57 C 36.449219 57 36 57.449219 36 58 C 36 58.550781 36.449219 59 37 59 C 37.550781 59 38 58.550781 38 58 C 38 57.449219 37.550781 57 37 57 Z M 41 57 C 40.449219 57 40 57.449219 40 58 C 40 58.550781 40.449219 59 41 59 C 41.550781 59 42 58.550781 42 58 C 42 57.449219 41.550781 57 41 57 Z M 45 57 C 44.449219 57 44 57.449219 44 58 C 44 58.550781 44.449219 59 45 59 C 45.550781 59 46 58.550781 46 58 C 46 57.449219 45.550781 57 45 57 Z M 63 57 L 63 63 L 57 63 L 57 65 L 63 65 L 63 71 L 65 71 L 65 65 L 71 65 L 71 63 L 65 63 L 65 57 Z"/></svg>