<svg fill="#000000" xmlns="http://www.w3.org/2000/svg" viewBox="0 0 32 32" width="300px" height="300px"><path d="M 24 0 C 20.66037 0 17.78536 2.076462 16.591797 5 L 3 5 L 3 23 L 8 23 L 8 28.080078 L 14.351562 23 L 29 23 L 29 14.228516 C 30.824972 12.759018 32 10.511397 32 8 C 32 3.6 28.4 0 24 0 z M 24 2 C 27.3 2 30 4.7 30 8 C 30 11.3 27.3 14 24 14 C 20.7 14 18 11.3 18 8 C 18 4.7 20.7 2 24 2 z M 23 4 L 23 7 L 20 7 L 20 9 L 23 9 L 23 12 L 25 12 L 25 9 L 28 9 L 28 7 L 25 7 L 25 4 L 23 4 z M 5 7 L 16.070312 7 C 16.028764 7.3285705 16 7.6606262 16 8 C 16 12.4 19.6 16 24 16 C 25.06037 16 26.071744 15.787173 27 15.408203 L 27 21 L 13.648438 21 L 10 23.917969 L 10 21 L 5 21 L 5 7 z"/></svg>