<svg xmlns="http://www.w3.org/2000/svg" width="50" height="50" viewBox="0 0 512 512"><path fill="#3CB881" d="M7.9,256C7.9,119,119,7.9,256,7.9C393,7.9,504.1,119,504.1,256c0,137-111.1,248.1-248.1,248.1C119,504.1,7.9,393,7.9,256z"/><path fill="#CBBD7D" d="M388,123.2c5.8,5.8,6.4,14.6,1.3,19.7l-47.6,47.6c-5.1,5.1-13.9,4.5-19.7-1.3l0,0c-5.8-5.8-6.4-14.6-1.3-19.7l47.6-47.6C373.4,116.8,382.2,117.4,388,123.2L388,123.2z"/><path fill="#C0B8AA" d="M365.5,141.7c-7.6-7.6-98.4-11.3-114.1,4.4L97.7,299.7c-15.6,15.7-14.7,32.6,1,48.2l61.4,61.4c15.7,15.7,31.6,15.6,47.2,0L361,255.7C376.6,240,373.1,149.3,365.5,141.7z M313,198.2c-6.1-6.1-6.1-16,0-22c6.1-6.1,16-6.1,22,0c6.1,6.1,6.1,16,0,22C328.9,204.3,319,204.3,313,198.2z"/><path fill="#E2DDD0" d="M361.6,141.3c-6.1-6.1-95.4-10.7-110.7,4.6L100,296.8c-15.3,15.3-15.3,30.8,0,46.1l59.9,59.9c15.3,15.3,30.8,15.3,46.1,0L357,251.9C372.3,236.6,367.7,147.4,361.6,141.3z M310.1,195.8c-5.9-5.9-5.9-15.6,0-21.5c5.9-5.9,15.6-5.9,21.5,0c5.9,5.9,5.9,15.6,0,21.5C325.7,201.8,316.1,201.8,310.1,195.8z"/><path fill="none" d="M331.7,195.8c5.9-5.9,5.9-15.6,0-21.5c-1.7-1.7-3.7-2.9-5.9-3.6c-6,5.6-12.6,11.8-19.5,18.4c0.7,2.4,1.9,4.8,3.8,6.7C316.1,201.8,325.7,201.8,331.7,195.8z"/><path fill="#EAE8E4" d="M325.8,170.7c2.1,0.7,4.2,1.9,5.9,3.6c5.9,5.9,5.9,15.6,0,21.5c-5.9,5.9-15.6,5.9-21.5,0c-1.9-1.9-3.2-4.3-3.8-6.7c-69.9,66.6-181,179.1-181,179.1l34.7,34.6c15.3,15.3,30.8,15.3,46.1,0L357,251.9c15.3-15.3,10.7-104.6,4.6-110.7C360.2,139.8,346.3,151.7,325.8,170.7z"/><g><path fill="#C0B8AA" d="M231.9,229.4c3.4,3.4,3.4,9,0,12.5L148.8,325c-3.4,3.4-9,3.4-12.5,0l0,0c-3.4-3.4-3.4-9,0-12.5l83.1-83.1C222.9,226,228.5,226,231.9,229.4L231.9,229.4z"/></g><g><path fill="#C0B8AA" d="M254.1,251.6c3.4,3.4,3.4,9,0,12.5L171,347.2c-3.4,3.4-9,3.4-12.5,0l0,0c-3.4-3.4-3.4-9,0-12.5l83.1-83.1C245,248.2,250.6,248.2,254.1,251.6L254.1,251.6z"/></g><g><path fill="#C0B8AA" d="M276.2,273.8c3.4,3.4,3.4,9,0,12.5l-83.1,83.1c-3.4,3.4-9,3.4-12.5,0l0,0c-3.4-3.4-3.4-9,0-12.5l83.1-83.1C267.2,270.3,272.8,270.3,276.2,273.8L276.2,273.8z"/></g><g><path fill="#0EA24A" d="M355 327.8A59.7 59.7 0 1 0 355 447.2A59.7 59.7 0 1 0 355 327.8Z"/><path fill="#FFF" d="M395.2,387.3c0,5.2-4.2,9.4-9.4,9.4h-61.3c-5.2,0-9.4-4.2-9.4-9.4l0,0c0-5.2,4.2-9.4,9.4-9.4h61.3C391,377.9,395.2,382.1,395.2,387.3L395.2,387.3z"/><path fill="#FFF" d="M355.1,427.4c-5.2,0-9.4-4.2-9.4-9.4v-61.3c0-5.2,4.2-9.4,9.4-9.4l0,0c5.2,0,9.4,4.2,9.4,9.4v61.3C364.5,423.2,360.3,427.4,355.1,427.4L355.1,427.4z"/></g><g><path fill="#F3F0ED" d="M321.1,163.7c-11.8,0-21.4,9.6-21.4,21.4c0,11.8,9.6,21.4,21.4,21.4c11.8,0,21.4-9.6,21.4-21.4C342.5,173.3,332.9,163.7,321.1,163.7z M321.1,200.3c-8.4,0-15.2-6.8-15.2-15.2s6.8-15.2,15.2-15.2s15.2,6.8,15.2,15.2S329.5,200.3,321.1,200.3z"/></g><g><path fill="#DFD48A" d="M390.1,125.4c5.1,5.1,5.1,13.3,0,18.4l-47.8,47.8c-5.1,5.1-13.3,5.1-18.4,0l0,0c-5.1-5.1-5.1-13.4,0-18.4l47.8-47.8C376.8,120.3,385.1,120.3,390.1,125.4L390.1,125.4z"/></g></svg>