<svg xmlns="http://www.w3.org/2000/svg" viewBox="0 0 64 64" width="100px" height="100px"><path fill="#c2cde7" d="M63,44.44V50H23a2,2,0,0,1-2-2V44.44A10,10,0,0,1,25.57,36l10.22-6.61H48.21L58.43,36A10,10,0,0,1,63,44.44Z"/><path fill="#faefde" d="M40.24,32.11a14.48,14.48,0,0,1-4.7-7.33c-.76,0-1.62-1-2-2.51s-.13-3.05.67-3.27a1,1,0,0,1,.8.19,9.84,9.84,0,0,1,.14-1.25,30.5,30.5,0,0,1-.16-5c.28-2.8,2-4.47,4.47-4.47h0A9.82,9.82,0,0,1,44.67,7h.75c5.78,0,9.17,3.51,10.19,8.2,0,0-2.68-1.12-2,.76a9.81,9.81,0,0,1,.72,3.26,1,1,0,0,1,.8-.19c.8.21,1.1,1.68.67,3.27s-1.26,2.51-2,2.51a16.84,16.84,0,0,1-4.35,7C47.57,33.63,44.62,35.38,40.24,32.11Z"/><path fill="#cda1a7" d="M36.63,16.22a5.17,5.17,0,0,0,4.53-3.46c2.08.69,2.77,2.77,12.46,2.08,1-.07,1.1.27,1.38,0s-.5-1.39,0-1.34c-1.31-4-4.52-6.28-9-6.28h-.73a8.84,8.84,0,0,0-4.67,1.32.73.73,0,0,1-.44.15c-2.07,0-3.44,1.39-3.68,3.73a15.52,15.52,0,0,0,.09,3.77Z"/><path fill="#f9e3ae" d="M39.11,38.84a19.24,19.24,0,0,0,5.76-2.78,2.77,2.77,0,0,0,.84-2.7s-1.92-6.08-2.41-8.19l-1.9-8.5A14.64,14.64,0,0,0,27.7,5.32a4.7,4.7,0,0,0-2.81-.94h0a14.65,14.65,0,0,0-14.3,11.46L8.46,25.46c-.48,2.17-2.21,7.9-2.21,7.9a2.53,2.53,0,0,0,.84,2.71,21.81,21.81,0,0,0,6.2,2.69"/><path fill="#ed7899" d="M45,41.53,32,34H20L7,41.53A12,12,0,0,0,1,51.92V57a2,2,0,0,0,2,2H49a2,2,0,0,0,2-2V51.92A12,12,0,0,0,45,41.53Z"/><path fill="#f98cb3" d="M36.21,41.86,25.94,47,15.66,41.86a3,3,0,0,1-.78-4.8l.06-.06L26,35l10.94,2,.06.06A3,3,0,0,1,36.21,41.86Z"/><path fill="#e0678f" d="M55,54H5a4,4,0,0,0-4,4H1a1,1,0,0,0,1,1H58a1,1,0,0,0,1-1h0A4,4,0,0,0,55,54Z"/><path fill="#faefde" d="M37.3,20A17.59,17.59,0,0,1,37.84,23a1.22,1.22,0,0,1,1-.23c1,.26,1.34,2.06.82,4-.48,1.79-1.54,3.08-2.47,3.08C35.52,35.46,31.13,41,26,41s-9.55-5.54-11.2-11.1c-.93,0-2-1.29-2.47-3.08-.52-2-.16-3.75.82-4a1.22,1.22,0,0,1,1,.23,11.9,11.9,0,0,1,.54-3s3.24.14,4.29-2.44S21,15.34,21,15.34s4.47,3.06,11.85,2.58C32.85,17.91,36.86,18,37.3,20Z"/><path fill="#72caaf" d="M51 39A12 12 0 1 0 51 63A12 12 0 1 0 51 39Z"/><path fill="#72caaf" d="M51 39A12 12 0 1 0 51 63A12 12 0 1 0 51 39Z"/><path fill="#8d6c9f" d="M64,44.44a11,11,0,0,0-5-9.23l-7.07-4.57a17,17,0,0,0,2.67-5,4.52,4.52,0,0,0,2.19-3.08,5.74,5.74,0,0,0,.14-2.61A2.25,2.25,0,0,0,55.4,18l-.17,0a10.75,10.75,0,0,0-.55-2.08,3.49,3.49,0,0,1,.55.17,1,1,0,0,0,1-.15,1,1,0,0,0,.34-1A10.84,10.84,0,0,0,45.42,6h-.75a11.19,11.19,0,0,0-5.53,1.5,5.59,5.59,0,0,0-2,.47A15.69,15.69,0,0,0,28,4.33a5.73,5.73,0,0,0-3.15-.95A15.56,15.56,0,0,0,9.62,15.62L7.48,25.24C7,27.35,5.31,33,5.28,33.09a3.55,3.55,0,0,0,1.23,3.8,18.46,18.46,0,0,0,3.43,1.78l-3.45,2A13,13,0,0,0,0,51.92V57a3,3,0,0,0,3,3H41.63A13,13,0,0,0,64,51c0-.26,0-.51,0-.77A.85.85,0,0,0,64,50ZM7.65,35.25a1.56,1.56,0,0,1-.45-1.6c.07-.24,1.75-5.79,2.23-8L11.57,16A13.57,13.57,0,0,1,24.89,5.38a3.65,3.65,0,0,1,2.21.74,1.06,1.06,0,0,0,.56.2,13.6,13.6,0,0,1,7.82,2.86A13.27,13.27,0,0,1,37,10.5a13.59,13.59,0,0,1,3.46,6.39l1.9,8.5c.48,2.13,2.35,8,2.43,8.27a1.84,1.84,0,0,1-.52,1.63A14.77,14.77,0,0,1,40,37.46l-4-2.34a20.55,20.55,0,0,0,2-4.37,5.2,5.2,0,0,0,2.66-3.67c.68-2.56,0-4.82-1.53-5.23a1.7,1.7,0,0,0-.35-.06,12.65,12.65,0,0,0-.48-2.11,1,1,0,1,0-1.91.61,10.56,10.56,0,0,1,.5,2.8,1,1,0,0,0,.55.84,1,1,0,0,0,1,0,1.77,1.77,0,0,1,.17-.1c.21.16.54,1.2.11,2.79s-1.24,2.33-1.5,2.33a1,1,0,0,0-1,.72,19.4,19.4,0,0,1-2,4.5,14.69,14.69,0,0,1-1.13,1.66C31.18,38.25,28.69,40,26,40s-5.19-1.73-7.09-4.19a14.69,14.69,0,0,1-1.13-1.66,19.26,19.26,0,0,1-2-4.53,1,1,0,0,0-1-.72c-.24,0-1.07-.71-1.51-2.33a3.61,3.61,0,0,1,.08-2.79.77.77,0,0,1,.21.1,1,1,0,0,0,1,0,1,1,0,0,0,.54-.84,11.43,11.43,0,0,1,.5-2.79,1,1,0,0,0-1.91-.6,13.47,13.47,0,0,0-.47,2.09,1.7,1.7,0,0,0-.35.06A2.51,2.51,0,0,0,11.17,24a6.9,6.9,0,0,0,.16,3.1A5.2,5.2,0,0,0,14,30.75a20.3,20.3,0,0,0,2,4.39l-3.85,2.23A19.39,19.39,0,0,1,7.65,35.25ZM3,58a1,1,0,0,1-1-1V51.92A11,11,0,0,1,7.49,42.4l4.93-2.85,1.82-1.06,2.91-1.69c2.29,3,5.38,5.2,8.82,5.2s6.54-2.19,8.84-5.22l3.3,1.91h0l1.68,1,2.66,1.54A13,13,0,0,0,38.15,49,13.27,13.27,0,0,0,38,51a12.91,12.91,0,0,0,2.05,7Zm48,4a10.92,10.92,0,0,1-6.32-2,11.14,11.14,0,0,1-2.17-2A11,11,0,1,1,51,62Zm0-24a12.91,12.91,0,0,0-6.79,1.92l-2-1.18a14,14,0,0,0,3.32-1.91,3.74,3.74,0,0,0,1.15-3.77c0-.06-1.91-6.07-2.38-8.11l-1.9-8.51a15.53,15.53,0,0,0-3.59-6.92,3.66,3.66,0,0,1,.68-.06,1,1,0,0,0,.6-.2A8.82,8.82,0,0,1,44.67,8h.75c4.27,0,7.39,2.12,8.77,5.87a1.8,1.8,0,0,0-1.23.45,1.72,1.72,0,0,0-.28,2,8.67,8.67,0,0,1,.66,3,1,1,0,0,0,.55.85,1,1,0,0,0,1,0,3.34,3.34,0,0,1,0,2,2.87,2.87,0,0,1-1.05,1.77,1,1,0,0,0-1,.71,14.88,14.88,0,0,1-2.61,5A11,11,0,0,1,48.84,31l-.05,0a1,1,0,1,0,1.31,1.51,6.34,6.34,0,0,0,.46-.44l7.33,4.74A9,9,0,0,1,62,44.06,13,13,0,0,0,51,38Z"/><path fill="#8d6c9f" d="M33.55 42.11L26 45.88l-7.55-3.78a1 1 0 0 0-.89 1.79l8 4a1 1 0 0 0 .89 0l8-4a1 1 0 1 0-.89-1.79zM36 52a1 1 0 0 0-1 1v2a1 1 0 0 0 2 0V53A1 1 0 0 0 36 52zM31 52a1 1 0 0 0-1 1v2a1 1 0 0 0 2 0V53A1 1 0 0 0 31 52zM26 52a1 1 0 0 0-1 1v2a1 1 0 0 0 2 0V53A1 1 0 0 0 26 52zM21 52a1 1 0 0 0-1 1v2a1 1 0 0 0 2 0V53A1 1 0 0 0 21 52zM16 52a1 1 0 0 0-1 1v2a1 1 0 0 0 2 0V53A1 1 0 0 0 16 52zM11 52a1 1 0 0 0-1 1v2a1 1 0 0 0 2 0V53A1 1 0 0 0 11 52zM6 52a1 1 0 0 0-1 1v2a1 1 0 0 0 2 0V53A1 1 0 0 0 6 52z"/><path fill="#faefde" d="M57,50H52V45a1,1,0,0,0-2,0v5H45a1,1,0,0,0,0,2h5v5a1,1,0,0,0,2,0V52h5a1,1,0,0,0,0-2Z"/><path fill="#8d6c9f" d="M18,18.94a1,1,0,0,0,1.38-.29l1.43-2.17,1.37.67a19.42,19.42,0,0,0,8.46,2H33a1,1,0,0,0,0-2H30.65a17.41,17.41,0,0,1-7.58-1.75l-1.43-.7a1.92,1.92,0,0,0-2.44.67l-1.47,2.23A1,1,0,0,0,18,18.94Z"/></svg>