<svg xmlns="http://www.w3.org/2000/svg" width="100" height="100" fill="#000" viewBox="0 0 24 24"><path d="M 6 2 C 4.895 2 4 2.895 4 4 L 4 7 L 20 7 L 20 4 C 20 2.895 19.105 2 18 2 L 6 2 z M 4 9 L 4 15 L 13.259766 15 C 14.524766 13.188 16.622 12 19 12 C 19.34 12 19.673 12.033078 20 12.080078 L 20 9 L 4 9 z M 19 14 C 16.239 14 14 16.239 14 19 C 14 21.761 16.239 24 19 24 C 21.761 24 24 21.761 24 19 C 24 16.239 21.761 14 19 14 z M 18 16 L 20 16 L 20 18 L 22 18 L 22 20 L 20 20 L 20 22 L 18 22 L 18 20 L 16 20 L 16 18 L 18 18 L 18 16 z M 4 17 L 4 20 C 4 21.105 4.895 22 6 22 L 12.683594 22 C 12.250594 21.09 12 20.075 12 19 C 12 18.305 12.105922 17.634 12.294922 17 L 4 17 z"/></svg>