<svg xmlns="http://www.w3.org/2000/svg" width="500" height="500" fill="#000" viewBox="0 0 24 24"><path d="M 3.984375 2.9863281 A 1.0001 1.0001 0 0 0 3 4 L 3 20 A 1.0001 1.0001 0 1 0 5 20 L 5 4 A 1.0001 1.0001 0 0 0 3.984375 2.9863281 z M 19.984375 2.9863281 A 1.0001 1.0001 0 0 0 19 4 L 19 20 A 1.0001 1.0001 0 1 0 21 20 L 21 4 A 1.0001 1.0001 0 0 0 19.984375 2.9863281 z M 8.3046875 9.0078125 C 8.1926563 9.0271562 8.0832344 9.0808281 7.9902344 9.1738281 L 5.6660156 11.498047 C 5.3890156 11.775047 5.3890156 12.224953 5.6660156 12.501953 L 7.9902344 14.826172 C 8.3622344 15.198172 9 14.93325 9 14.40625 L 9 13 L 15 13 L 15 14.40625 C 15 14.93325 15.637766 15.198172 16.009766 14.826172 L 18.333984 12.501953 C 18.610984 12.224953 18.610984 11.775047 18.333984 11.498047 L 16.009766 9.1738281 C 15.637766 8.8018281 15 9.0657969 15 9.5917969 L 15 11 L 9 11 L 9 9.5917969 C 9 9.1972969 8.6407812 8.9497813 8.3046875 9.0078125 z"/></svg>