<svg xmlns="http://www.w3.org/2000/svg" width="50" height="50" fill="#000" viewBox="0 0 16 16"><path d="M 7.0390625 2 L 3 13.740234 L 3 14 L 4 14 L 4 13.908203 L 5 11 L 7.0507812 11 C 7.0319923 11.166462 7 11.32864 7 11.5 C 7 13.979359 9.0206409 16 11.5 16 C 13.979359 16 16 13.979359 16 11.5 C 16 9.0206409 13.979359 7 11.5 7 C 11.232954 7 10.975154 7.0331939 10.720703 7.078125 L 8.9824219 2 L 8 2 L 7.0390625 2 z M 7.7519531 3 L 8 3 L 8.2675781 3 L 9.7558594 7.3515625 C 8.5973952 7.8409334 7.7002891 8.8096969 7.2753906 10 L 5.34375 10 L 7.7519531 3 z M 11.5 8 C 13.438919 8 15 9.5610811 15 11.5 C 15 13.438919 13.438919 15 11.5 15 C 9.5610811 15 8 13.438919 8 11.5 C 8 9.5610811 9.5610811 8 11.5 8 z M 11 9 L 11 11 L 9 11 L 9 12 L 11 12 L 11 14 L 12 14 L 12 12 L 14 12 L 14 11 L 12 11 L 12 9 L 11 9 z"/></svg>