<svg xmlns="http://www.w3.org/2000/svg" width="50" height="50" fill="#000" viewBox="0 0 80 80"><path d="M 37 4 C 35.35503 4 34 5.3550302 34 7 L 34 9.5527344 C 27.640643 10.725526 21.918278 13.720966 17.394531 17.980469 L 15.785156 16.371094 L 22.414062 9.7441406 L 21.707031 9.0371094 C 19.685926 7.0160038 17.029797 6.0058594 14.373047 6.0058594 C 11.716296 6.0058594 9.058215 7.0160038 7.0371094 9.0371094 C 2.9948982 13.079321 2.9948982 19.66482 7.0371094 23.707031 L 7.7441406 24.414062 L 14.371094 17.785156 L 15.980469 19.394531 C 10.417497 25.302609 7 33.252504 7 42 C 7 52.273593 11.705666 61.455577 19.076172 67.509766 L 13.292969 73.292969 A 1.0001 1.0001 0 1 0 14.707031 74.707031 L 20.675781 68.738281 C 26.109545 72.673908 32.783878 75 40 75 C 47.216122 75 53.890455 72.673908 59.324219 68.738281 L 65.292969 74.707031 A 1.0001 1.0001 0 1 0 66.707031 73.292969 L 60.923828 67.509766 C 68.294334 61.455577 73 52.273593 73 42 C 73 33.252504 69.582503 25.302609 64.019531 19.394531 L 65.628906 17.785156 L 72.255859 24.414062 L 72.962891 23.707031 C 77.005102 19.66482 77.005102 13.079321 72.962891 9.0371094 C 70.941785 7.0160038 68.283704 6.0058594 65.626953 6.0058594 C 62.970203 6.0058594 60.314074 7.0160038 58.292969 9.0371094 L 57.585938 9.7441406 L 64.214844 16.371094 L 62.605469 17.980469 C 58.081983 13.721211 52.360867 10.727704 46 9.5566406 L 46 7 C 46 5.3550302 44.64497 4 43 4 L 37 4 z M 37 6 L 43 6 C 43.56503 6 44 6.4349698 44 7 L 44 9.25 C 42.688021 9.0911029 41.354563 9 40 9 C 38.645002 9 37.312098 9.0907262 36 9.25 L 36 7 C 36 6.4349698 36.43497 6 37 6 z M 14.373047 7.9941406 C 16.185803 7.9941406 17.935322 8.7115554 19.443359 9.8867188 L 7.8867188 21.443359 C 5.3237626 18.154426 5.4244848 13.477859 8.4511719 10.451172 C 10.090066 8.8122773 12.232297 7.9941406 14.373047 7.9941406 z M 65.626953 7.9941406 C 67.767703 7.9941406 69.909934 8.8122773 71.548828 10.451172 C 74.575515 13.477859 74.676237 18.154426 72.113281 21.443359 L 60.556641 9.8867188 C 62.064678 8.7115552 63.814197 7.9941406 65.626953 7.9941406 z M 40 11 C 57.132672 11 71 24.867328 71 42 C 71 59.132672 57.132672 73 40 73 C 22.867328 73 9 59.132672 9 42 C 9 24.867328 22.867328 11 40 11 z M 40 13 A 2 2 0 0 0 38 15 A 2 2 0 0 0 40 17 A 2 2 0 0 0 42 15 A 2 2 0 0 0 40 13 z M 33.019531 14.919922 A 1 1 0 0 0 32.949219 14.921875 A 1 1 0 0 0 32.751953 14.955078 A 1 1 0 0 0 32.044922 16.179688 A 1 1 0 0 0 33.269531 16.886719 A 1 1 0 0 0 33.976562 15.662109 A 1 1 0 0 0 33.019531 14.919922 z M 46.978516 14.921875 A 1 1 0 0 0 46.021484 15.664062 A 1 1 0 0 0 46.728516 16.888672 A 1 1 0 0 0 47.953125 16.181641 A 1 1 0 0 0 47.246094 14.955078 A 1 1 0 0 0 46.978516 14.921875 z M 26.474609 17.617188 A 1 1 0 0 0 25.998047 17.751953 A 1 1 0 0 0 25.632812 19.117188 A 1 1 0 0 0 26.998047 19.482422 A 1 1 0 0 0 27.365234 18.117188 A 1 1 0 0 0 26.474609 17.617188 z M 53.451172 17.621094 A 1 1 0 0 0 52.630859 18.119141 A 1 1 0 0 0 52.998047 19.486328 A 1 1 0 0 0 54.363281 19.119141 A 1 1 0 0 0 53.998047 17.753906 A 1 1 0 0 0 53.451172 17.621094 z M 40 19 A 1 1 0 0 0 39 20 A 1 1 0 0 0 40 21 A 1 1 0 0 0 41 20 A 1 1 0 0 0 40 19 z M 20.921875 21.908203 A 1 1 0 0 0 20.199219 22.201172 A 1 1 0 0 0 20.201172 23.615234 A 1 1 0 0 0 21.615234 23.615234 A 1 1 0 0 0 21.615234 22.201172 A 1 1 0 0 0 20.921875 21.908203 z M 59.105469 21.908203 A 1 1 0 0 0 58.382812 22.201172 A 1 1 0 0 0 58.382812 23.615234 A 1 1 0 0 0 59.796875 23.615234 A 1 1 0 0 0 59.796875 22.201172 A 1 1 0 0 0 59.105469 21.908203 z M 63.355469 27.5 A 1 1 0 0 0 62.878906 27.632812 A 1 1 0 0 0 62.513672 28.998047 A 1 1 0 0 0 63.878906 29.365234 A 1 1 0 0 0 64.246094 27.998047 A 1 1 0 0 0 63.355469 27.5 z M 16.568359 27.501953 A 1 1 0 0 0 15.75 28.001953 A 1 1 0 0 0 16.115234 29.367188 A 1 1 0 0 0 17.482422 29.001953 A 1 1 0 0 0 17.115234 27.634766 A 1 1 0 0 0 16.568359 27.501953 z M 39 31 L 39 41 L 29 41 L 29 43 L 39 43 L 39 53 L 41 53 L 41 43 L 51 43 L 51 41 L 41 41 L 41 31 L 39 31 z M 66.085938 34.011719 A 1 1 0 0 0 66.015625 34.013672 A 1 1 0 0 0 65.818359 34.046875 A 1 1 0 0 0 65.111328 35.271484 A 1 1 0 0 0 66.335938 35.978516 A 1 1 0 0 0 67.042969 34.753906 A 1 1 0 0 0 66.085938 34.011719 z M 13.910156 34.013672 A 1 1 0 0 0 12.953125 34.755859 A 1 1 0 0 0 13.660156 35.980469 A 1 1 0 0 0 14.884766 35.273438 A 1 1 0 0 0 14.177734 34.046875 A 1 1 0 0 0 13.910156 34.013672 z M 13 40 A 2 2 0 0 0 11 42 A 2 2 0 0 0 13 44 A 2 2 0 0 0 15 42 A 2 2 0 0 0 13 40 z M 67 40 A 2 2 0 0 0 65 42 A 2 2 0 0 0 67 44 A 2 2 0 0 0 69 42 A 2 2 0 0 0 67 40 z M 18 41 A 1 1 0 0 0 17 42 A 1 1 0 0 0 18 43 A 1 1 0 0 0 19 42 A 1 1 0 0 0 18 41 z M 62 41 A 1 1 0 0 0 61 42 A 1 1 0 0 0 62 43 A 1 1 0 0 0 63 42 A 1 1 0 0 0 62 41 z M 13.927734 47.986328 A 1 1 0 0 0 13.857422 47.988281 A 1 1 0 0 0 13.660156 48.021484 A 1 1 0 0 0 12.953125 49.246094 A 1 1 0 0 0 14.177734 49.953125 A 1 1 0 0 0 14.884766 48.728516 A 1 1 0 0 0 13.927734 47.986328 z M 66.068359 47.992188 A 1 1 0 0 0 65.113281 48.734375 A 1 1 0 0 0 65.820312 49.958984 A 1 1 0 0 0 67.044922 49.251953 A 1 1 0 0 0 66.337891 48.027344 A 1 1 0 0 0 66.068359 47.992188 z M 16.591797 54.498047 A 1 1 0 0 0 16.117188 54.632812 A 1 1 0 0 0 15.75 55.998047 A 1 1 0 0 0 17.117188 56.363281 A 1 1 0 0 0 17.482422 54.998047 A 1 1 0 0 0 16.591797 54.498047 z M 63.332031 54.503906 A 1 1 0 0 0 62.513672 55.001953 A 1 1 0 0 0 62.878906 56.367188 A 1 1 0 0 0 64.246094 56.001953 A 1 1 0 0 0 63.878906 54.636719 A 1 1 0 0 0 63.332031 54.503906 z M 20.921875 60.091797 A 1 1 0 0 0 20.201172 60.384766 A 1 1 0 0 0 20.201172 61.798828 A 1 1 0 0 0 21.615234 61.798828 A 1 1 0 0 0 21.615234 60.384766 A 1 1 0 0 0 20.921875 60.091797 z M 59.105469 60.091797 A 1 1 0 0 0 58.382812 60.384766 A 1 1 0 0 0 58.382812 61.798828 A 1 1 0 0 0 59.796875 61.798828 A 1 1 0 0 0 59.796875 60.384766 A 1 1 0 0 0 59.105469 60.091797 z M 40 63 A 1 1 0 0 0 39 64 A 1 1 0 0 0 40 65 A 1 1 0 0 0 41 64 A 1 1 0 0 0 40 63 z M 53.474609 64.380859 A 1 1 0 0 0 52.998047 64.513672 A 1 1 0 0 0 52.630859 65.880859 A 1 1 0 0 0 53.998047 66.246094 A 1 1 0 0 0 54.363281 64.880859 A 1 1 0 0 0 53.474609 64.380859 z M 26.449219 64.384766 A 1 1 0 0 0 25.630859 64.882812 A 1 1 0 0 0 25.996094 66.25 A 1 1 0 0 0 27.363281 65.882812 A 1 1 0 0 0 26.996094 64.517578 A 1 1 0 0 0 26.449219 64.384766 z M 40 67 A 2 2 0 0 0 38 69 A 2 2 0 0 0 40 71 A 2 2 0 0 0 42 69 A 2 2 0 0 0 40 67 z M 33 67.080078 A 1 1 0 0 0 32.042969 67.822266 A 1 1 0 0 0 32.75 69.046875 A 1 1 0 0 0 33.974609 68.339844 A 1 1 0 0 0 33.267578 67.115234 A 1 1 0 0 0 33 67.080078 z M 47.023438 67.080078 A 1 1 0 0 0 46.726562 67.113281 A 1 1 0 0 0 46.019531 68.337891 A 1 1 0 0 0 47.244141 69.044922 A 1 1 0 0 0 47.951172 67.820312 A 1 1 0 0 0 47.023438 67.080078 z"/></svg>