<svg xmlns="http://www.w3.org/2000/svg" width="50" height="50" fill="#000" viewBox="0 0 24 24"><path d="M 12.171875 3 L 2.5859375 12.585938 C 1.8049375 13.366938 1.8049375 14.633063 2.5859375 15.414062 L 8.5859375 21.414062 C 9.3669375 22.195062 10.633063 22.195062 11.414062 21.414062 L 21 11.828125 L 21 3 L 12.171875 3 z M 17.5 5 C 18.328 5 19 5.672 19 6.5 C 19 7.328 18.328 8 17.5 8 C 16.672 8 16 7.328 16 6.5 C 16 5.672 16.672 5 17.5 5 z M 19 16 L 19 19 L 16 19 L 16 21 L 19 21 L 19 24 L 21 24 L 21 21 L 24 21 L 24 19 L 21 19 L 21 16 L 19 16 z"/></svg>