<svg xmlns="http://www.w3.org/2000/svg" width="100" height="100" viewBox="0 0 100 100"><path fill="#fff" d="M20.317 55.102999999999994A.886.886 0 1 0 20.317 56.875.886.886 0 1 0 20.317 55.102999999999994zM79.368 30.433999999999997A.684.684 0 1 0 79.368 31.802.684.684 0 1 0 79.368 30.433999999999997z"/><path fill="#f1bc19" d="M76.738 11.199000000000002A.886.886 0 1 0 76.738 12.971.886.886 0 1 0 76.738 11.199000000000002zM20.813 62.776999999999994A.886.886 0 1 0 20.813 64.54899999999999.886.886 0 1 0 20.813 62.776999999999994z"/><path fill="#c0e5e4" d="M49.633 11.869999999999997A37.445 37.445 0 1 0 49.633 86.75999999999999A37.445 37.445 0 1 0 49.633 11.869999999999997Z"/><path fill="#f1bc19" d="M82.179 10.233A4.007 4.007 0 1 0 82.179 18.247A4.007 4.007 0 1 0 82.179 10.233Z"/><path fill="#77cbd2" d="M86.186 21.426A1.884 1.884 0 1 0 86.186 25.194A1.884 1.884 0 1 0 86.186 21.426Z"/><path fill="#fbcd59" d="M77.201 73.841A1.884 1.884 0 1 0 77.201 77.609 1.884 1.884 0 1 0 77.201 73.841zM14.04 58.77A4.007 4.007 0 1 0 14.04 66.784 4.007 4.007 0 1 0 14.04 58.77z"/><path fill="#77cbd2" d="M24.278 85.028A1.884 1.884 0 1 0 24.278 88.796A1.884 1.884 0 1 0 24.278 85.028Z"/><path fill="#fff" d="M75.853 27.809A1.796 1.796 0 1 0 75.853 31.401 1.796 1.796 0 1 0 75.853 27.809zM17.781 48.127A2.541 2.541 0 1 0 17.781 53.208999999999996 2.541 2.541 0 1 0 17.781 48.127z"/><path fill="#fabf82" d="M68.121,70.526c-0.405-2.146-1.28-3.403-3.342-4.026c-0.09-0.027-0.21-0.071-0.345-0.123 c-0.156-0.068-0.354-0.148-0.586-0.238c-1.249-0.528-8.673-3.267-8.673-3.267c-0.612-0.155-1.01-0.591-1.24-1.082 c-0.38-0.811-0.233-2.914-0.233-2.914s-3.104,1.062-5.041,1.424c-1.9,0.185-5.983-2.272-5.983-2.272s-0.096,3.037-0.225,3.712 c-0.102,0.53-0.672,0.978-1.284,1.133l-7.124,2.583c-0.788,0.206-1.544,0.5-2.209,0.911c-1.793,1.107-2.701,2.769-3.163,4.16 c0,0-0.469,3.316-0.45,3.435c-0.044,0.464-0.09,0.975-0.137,1.512c7.764,5.257,14,6.73,24.699,6.262 c4.861-0.213,12.099-2.613,15.891-4.527C68.475,72.984,68.121,70.526,68.121,70.526z"/><path fill="#88cdd7" d="M64.779,66.541c-0.09-0.027-0.21-0.071-0.345-0.123c-0.156-0.068-0.354-0.148-0.586-0.238 c-0.773-0.327-3.905-1.498-6.184-2.345l-0.107-0.028c-2.516,1.29-6.096,3.226-9.384,3.226c-3.288,0-6.585-1.75-9.384-3.226 l-0.314,0.083l-4.431,1.607c-0.788,0.206-1.544,0.5-2.209,0.911c-1.793,1.107-2.701,2.769-3.163,4.16c0,0-0.469,3.316-0.45,3.435 c-0.044,0.464-0.09,5.444-0.137,5.981c7.764,5.257,14,6.73,24.699,6.262c4.861-0.213,12.099-2.613,15.891-4.527 c-0.201-4.224-0.554-11.151-0.554-11.151C67.716,68.421,66.841,67.164,64.779,66.541z"/><path fill="#be7841" d="M37.536,46.355c-0.158-0.347-3.837-8.559-1.042-14.143c1.158-2.313,3.257-3.827,6.241-4.502 c1.718-1.185,3.779-1.836,5.816-1.836c1.709,0,3.368,0.442,4.932,1.314c0.831,0.463,1.504,0.854,2.066,1.182 c1.781,1.036,2.381,1.385,3.44,1.385c0.117,0,0.24-0.004,0.371-0.012l0.13-0.008c0.15-0.01,0.299-0.02,0.438-0.02 c0.927,0,1.186,0.492,1.24,0.905c0.139,1.044-0.228,1.944-0.551,2.739c-0.291,0.716-0.543,1.333-0.372,1.893 c1.838,6.036-1.012,10.943-1.134,11.149l-0.94,1.587l0.011-1.845c0-0.05,0.015-4.724-1.095-7.715 c-1.42,0.793-3.144,1.21-5.026,1.21c-3.247,0-6.837-1.185-10.402-3.43c-3.167,2.487-3.168,9.858-3.168,9.935l0.012,2.332 L37.536,46.355z"/><path fill="#472b29" d="M48.551,26.375c1.512,0,3.109,0.37,4.69,1.251c3.534,1.971,4.191,2.63,5.751,2.63 c0.126,0,0.259-0.004,0.399-0.013c0.184-0.011,0.369-0.026,0.539-0.026c0.384,0,0.692,0.079,0.744,0.47 c0.245,1.842-1.346,3.266-0.906,4.711c1.795,5.895-1.085,10.75-1.085,10.75s0.035-5.381-1.354-8.449 c-1.433,0.946-3.231,1.44-5.267,1.44c-3.077,0-6.698-1.13-10.42-3.534c-3.694,2.458-3.65,10.543-3.65,10.543 s-6.996-15.36,4.949-17.971C44.458,27.108,46.421,26.375,48.551,26.375 M48.551,25.375c-2.106,0-4.235,0.663-6.02,1.87 c-3.087,0.72-5.268,2.315-6.484,4.744c-2.901,5.796,0.872,14.219,1.034,14.575l1.93,4.238l-0.02-4.657 c-0.009-1.965,0.479-7.201,2.716-9.315c3.542,2.169,7.109,3.311,10.354,3.311c1.74,0,3.355-0.343,4.739-0.999 c0.894,2.891,0.881,6.956,0.881,7.002l-0.022,3.688l1.882-3.172c0.127-0.214,3.083-5.306,1.181-11.551 c-0.118-0.389,0.102-0.931,0.357-1.558c0.33-0.81,0.74-1.818,0.583-2.994c-0.042-0.314-0.29-1.339-1.735-1.339 c-0.15,0-0.31,0.01-0.471,0.02l-0.127,0.008c-0.12,0.007-0.233,0.011-0.34,0.011c-0.891,0-1.358-0.252-3.192-1.318 c-0.564-0.328-1.239-0.72-2.072-1.185C52.088,25.839,50.347,25.375,48.551,25.375L48.551,25.375z"/><path fill="#00a5a5" d="M34.903 84.213c-.166 0-.3-.134-.3-.3v-3.949c0-.166.134-.3.3-.3s.3.134.3.3v3.949C35.203 84.079 35.069 84.213 34.903 84.213zM61.231 84.908c-.166 0-.3-.134-.3-.3v-4.645c0-.166.134-.3.3-.3s.3.134.3.3v4.645C61.531 84.774 61.397 84.908 61.231 84.908z"/><path fill="#fddbbc" d="M60.418,44c-0.117-0.008-0.236-0.009-0.36-0.009c-0.965-0.047-0.883,0.317-0.839-0.28 c0.078-1.06-0.427-5.34-0.427-5.557c0-4.456-4.653-8.091-10.466-8.292v-0.013c-0.039,0.001-0.077,0.006-0.117,0.007 c-0.039-0.001-0.077-0.006-0.117-0.007v0.013c-5.814,0.202-10.466,3.836-10.466,8.292c0,0.217-0.148,4.517-0.07,5.578 c0.044,0.597-0.231,0.212-1.196,0.259c-0.124,0-0.243,0.001-0.36,0.009c-1.058,0.071-1.914,0.744-2.097,1.578 c0.13,0.079,0.611,3.731,1.391,5.17c0.436,0.803,1.116,0.915,1.815,1.434c0.387,0.287,0.462,0.612,0.568,1.041 c0.392,1.59,1.481,2.942,2.674,4.096c0.589,0.57,4.499,4.738,7.858,4.527c3.375-0.127,7.269-3.957,7.858-4.527 c1.193-1.154,2.282-2.506,2.674-4.096c0.106-0.43,0.18-0.754,0.568-1.041c0.699-0.519,1.379-0.63,1.815-1.434 c0.78-1.439,1.262-5.091,1.391-5.17C62.332,44.744,61.476,44.07,60.418,44z"/><path fill="#512c2b" d="M48.269 51.059c.683 0 1.345-.298 1.771-.797.043-.05.037-.126-.013-.169l0 0c-.05-.043-.125-.038-.169.012-.347.397-.927.625-1.589.625-.663 0-1.242-.228-1.589-.625-.024-.027-.057-.041-.091-.041-.028 0-.056.01-.078.029-.05.043-.056.119-.013.169C46.924 50.761 47.586 51.059 48.269 51.059zM46.091 41.833l.433-.832c-1.832-.429-3.941-.361-5.682.179l.546.811C42.819 41.519 44.579 41.459 46.091 41.833zM55.262 41.833l.433-.832c-1.832-.429-3.941-.361-5.682.179l.546.811C51.991 41.519 53.751 41.459 55.262 41.833zM43.454 43.007c-.44 0-.826.291-1.049.731.056-.017.113-.029.174-.029.361 0 .653.327.653.729 0 .403-.293.729-.653.729-.118 0-.227-.038-.323-.099.154.661.632 1.142 1.199 1.142.691 0 1.252-.717 1.252-1.602C44.706 43.725 44.145 43.007 43.454 43.007zM53.031 43.007c-.376 0-.712.213-.941.548.072-.03.149-.049.23-.049.361 0 .653.327.653.729 0 .403-.293.729-.653.729-.224 0-.421-.126-.539-.318.016.867.569 1.563 1.25 1.563.691 0 1.252-.717 1.252-1.602C54.282 43.725 53.722 43.007 53.031 43.007zM53.562 52.915c.051-.042.059-.117.018-.168l0 0c-.041-.051-.117-.06-.169-.018-1.128.899-3.002 1.415-5.141 1.415s-4.013-.516-5.142-1.416c-.022-.018-.048-.026-.075-.026-.035 0-.07.015-.094.045-.041.051-.034.127.017.169 1.274 1.041 3.253 1.663 5.293 1.663C50.309 54.578 52.287 53.957 53.562 52.915zM49.666 58.185c.062 0 .114-.072.114-.157 0-.085-.052-.157-.114-.157h-2.571c-.062 0-.114.072-.114.157 0 .085.052.157.114.157H49.666z"/><path fill="#472b29" d="M49.324,86.962c-8.907,0-14.656-1.781-21.52-6.428c-0.15-0.102-0.233-0.276-0.218-0.457 c0.009-0.107,0.014-0.471,0.021-0.999c0.032-2.184,0.1-6.727,0.581-8.505c0.654-2.417,1.612-3.362,3.383-4.455 c0.664-0.409,1.452-0.734,2.345-0.968l7.08-2.569c0.504-0.131,0.906-0.457,0.964-0.757c0.048-0.251,0.103-0.986,0.152-2.039 c-1.03-0.729-1.87-1.385-2.112-1.622c-1.561-1.526-2.454-2.918-2.81-4.381c-0.11-0.447-0.157-0.603-0.383-0.772 c-0.207-0.154-0.413-0.27-0.61-0.381c-0.482-0.272-0.981-0.554-1.345-1.231c-0.839-1.563-1.451-4.521-1.451-5.465 c0-0.035,0.004-0.071,0.012-0.105c0.234-1.086,1.284-1.903,2.552-1.989c0.128-0.009,0.258-0.01,0.394-0.01 c0.269-0.013,0.502,0.007,0.685,0.03c-0.036-1.205,0.035-3.761,0.067-4.915c0.008-0.287,0.014-0.477,0.014-0.518 c0-4.739,4.752-8.624,10.839-8.882c0.041-0.012,0.084-0.018,0.128-0.018c0.013,0,0.099,0.004,0.111,0.005l0.122-0.005 c0.046,0,0.09,0.006,0.131,0.018c6.086,0.259,10.836,4.144,10.836,8.882c0.003,0.067,0.035,0.354,0.08,0.76 c0.196,1.801,0.401,3.787,0.346,4.562l-0.006,0.063c0.073,0.004,0.154,0.008,0.235,0.012l0.135,0.007 c0.113-0.002,0.241,0.001,0.369,0.009c1.268,0.086,2.317,0.903,2.552,1.989c0.008,0.034,0.012,0.07,0.012,0.105 c0,1.09-0.65,3.972-1.451,5.465c-0.363,0.678-0.862,0.959-1.345,1.231c-0.197,0.111-0.403,0.227-0.61,0.382 c-0.226,0.169-0.272,0.324-0.377,0.748c-0.361,1.486-1.255,2.878-2.815,4.404c-0.258,0.251-1.16,0.986-2.242,1.768 c-0.003,0.869,0.073,1.526,0.213,1.825c0.142,0.3,0.414,0.685,0.911,0.811c0.354,0.127,7.499,2.764,8.745,3.292 c0.225,0.086,0.428,0.169,0.589,0.238c0.103,0.039,0.212,0.079,0.293,0.104c2.121,0.64,3.225,1.959,3.688,4.411 c0.004,0.022,0.007,0.045,0.008,0.067c0,0,0.354,6.928,0.555,11.152c0.01,0.196-0.098,0.381-0.273,0.47 c-4.044,2.041-11.347,4.373-16.096,4.581C51.591,86.935,50.433,86.962,49.324,86.962z M28.595,79.86 c7.41,4.965,13.553,6.489,24.168,6.021c4.505-0.197,11.396-2.371,15.398-4.33c-0.195-4.064-0.512-10.272-0.538-10.788 c-0.396-2.065-1.236-3.078-2.988-3.606c-0.1-0.03-0.23-0.078-0.379-0.135c-0.172-0.073-0.363-0.15-0.589-0.237 c-1.238-0.525-8.591-3.238-8.665-3.266c-0.634-0.157-1.19-0.639-1.52-1.338c-0.227-0.482-0.329-1.33-0.306-2.52 c0.003-0.158,0.081-0.306,0.21-0.397c1.211-0.862,2.129-1.62,2.331-1.817c1.42-1.389,2.227-2.629,2.537-3.901 c0.116-0.477,0.23-0.942,0.754-1.335c0.244-0.184,0.486-0.321,0.718-0.453c0.424-0.238,0.729-0.411,0.956-0.833 c0.754-1.405,1.309-4.022,1.331-4.937c-0.163-0.618-0.839-1.1-1.629-1.152c-0.106-0.007-0.215-0.008-0.327-0.008l-0.158-0.007 c-0.549-0.026-0.823-0.04-1.037-0.283c-0.196-0.225-0.174-0.484-0.152-0.735l0.01-0.128c0.055-0.749-0.213-3.202-0.342-4.38 c-0.053-0.478-0.086-0.809-0.086-0.869c0-4.226-4.386-7.69-9.984-7.887c-0.025-0.001-0.05-0.004-0.074-0.009 c-0.028,0.001-0.046,0.003-0.051,0.002V30.53c-0.023,0.005-0.048,0.008-0.073,0.009c-5.599,0.196-9.984,3.661-9.984,7.887 c0,0.043-0.006,0.243-0.014,0.545c-0.032,1.154-0.118,4.219-0.057,5.06c0.011,0.158,0.034,0.487-0.21,0.712 c-0.237,0.217-0.529,0.17-0.762,0.133c-0.177-0.028-0.395-0.06-0.699-0.048c-0.137,0.001-0.245,0.002-0.352,0.009 c-0.79,0.053-1.466,0.534-1.629,1.152c0.024,0.907,0.617,3.605,1.331,4.937c0.227,0.422,0.532,0.595,0.956,0.833 c0.231,0.132,0.474,0.27,0.718,0.452c0.523,0.394,0.638,0.859,0.748,1.311c0.316,1.298,1.123,2.538,2.544,3.928 c0.197,0.192,1.075,0.883,2.211,1.676c0.141,0.099,0.221,0.261,0.213,0.433c-0.057,1.298-0.118,2.124-0.181,2.455 c-0.154,0.802-0.94,1.343-1.652,1.523l-7.076,2.568c-0.841,0.223-1.538,0.509-2.117,0.866c-1.605,0.99-2.369,1.746-2.943,3.865 c-0.448,1.657-0.517,6.282-0.546,8.258C28.604,79.41,28.6,79.672,28.595,79.86z"/><path fill="#895d3d" d="M60.479 48.881l-.596-.066.2-1.779-1.011.438-.238-.551 1.486-.644c.099-.042.213-.029.298.034.086.063.132.169.119.274L60.479 48.881zM36.263 48.538l-.259-2.294c-.013-.105.033-.211.119-.274.086-.064.198-.078.298-.034l1.486.644-.238.551-1.011-.438.2 1.779L36.263 48.538z"/><path fill="#472b29" d="M37.602 52.98c-.001 0-.003 0-.004 0-.11-.002-.198-.094-.196-.204l.164-8.647c.002-.109.092-.196.2-.196.001 0 .003 0 .004 0 .11.002.198.094.196.204l-.164 8.647C37.8 52.894 37.71 52.98 37.602 52.98zM58.981 52.98c-.108 0-.198-.087-.2-.196l-.165-8.647c-.002-.11.086-.202.196-.204.001 0 .003 0 .004 0 .108 0 .198.087.2.196l.165 8.647c.002.11-.086.202-.196.204C58.984 52.98 58.982 52.98 58.981 52.98zM48.32 62.095c-2.122 0-5.698-2.611-5.855-2.728-.111-.082-.135-.238-.053-.35.082-.11.239-.135.35-.053.039.028 3.869 2.842 5.76 2.619 1.915-.218 4.981-2.379 5.013-2.4.112-.08.269-.052.349.06.08.112.053.269-.06.349-.13.092-3.203 2.257-5.245 2.488C48.495 62.09 48.409 62.095 48.32 62.095z"/><path fill="#be7841" d="M60.673,30.75c-0.075-0.565-0.683-0.48-1.283-0.444c-1.872,0.111-2.329-0.486-6.15-2.617 c-3.808-2.124-7.704-1.277-10.301,0.551c-11.945,2.611-4.949,17.971-4.949,17.971s-0.044-8.085,3.65-10.543 c6.186,3.996,12.088,4.47,15.687,2.094c1.389,3.067,1.354,8.449,1.354,8.449s2.88-4.855,1.085-10.75 C59.327,34.016,60.918,32.591,60.673,30.75L60.673,30.75z"/><path fill="#472b29" d="M59.125,46.17l-0.5-0.004c0-0.052,0.018-5.063-1.241-8.082c-3.924,2.353-9.948,1.537-15.848-2.16 c-3.47,2.459-3.47,10.164-3.47,10.243l-0.5,0.002c-0.002-0.335-0.002-8.249,3.828-10.753c0.081-0.054,0.187-0.056,0.271-0.002 c5.902,3.744,11.915,4.549,15.696,2.095c0.061-0.039,0.138-0.051,0.205-0.03c0.07,0.021,0.127,0.069,0.158,0.136 C59.145,40.696,59.126,45.947,59.125,46.17z"/><g><path fill="#fdfcee" d="M69.603 58.422A14.432 14.432 0 1 0 69.603 87.286A14.432 14.432 0 1 0 69.603 58.422Z"/><path fill="#472b29" d="M69.604,87.661c-8.164,0-14.807-6.643-14.807-14.807s6.643-14.807,14.807-14.807 S84.41,64.69,84.41,72.854S77.768,87.661,69.604,87.661z M69.604,58.798c-7.751,0-14.057,6.306-14.057,14.057 s6.306,14.057,14.057,14.057S83.66,80.605,83.66,72.854S77.354,58.798,69.604,58.798z"/><path fill="#93bc39" d="M69.603 60.919A11.935 11.935 0 1 0 69.603 84.789A11.935 11.935 0 1 0 69.603 60.919Z"/><path fill="#472b29" d="M69.604,85.039c-6.719,0-12.185-5.466-12.185-12.185S62.885,60.67,69.604,60.67 s12.185,5.466,12.185,12.185S76.322,85.039,69.604,85.039z M69.604,61.17c-6.443,0-11.685,5.241-11.685,11.685 s5.241,11.685,11.685,11.685s11.685-5.241,11.685-11.685S76.047,61.17,69.604,61.17z"/><g opacity=".79"><path fill="#c0d078" d="M69.625,62.752c5.28,0,9.763,3.313,11.459,7.941c-0.945-5.4-5.709-9.512-11.459-9.512 s-10.513,4.112-11.459,9.512C59.863,66.065,64.345,62.752,69.625,62.752z"/></g><g><path fill="#fdfcee" d="M69.604,79.147c-0.648,0-1.177-0.528-1.177-1.177v-3.939h-3.939c-0.648,0-1.177-0.528-1.177-1.177 s0.528-1.176,1.177-1.176h3.939v-3.94c0-0.648,0.528-1.177,1.177-1.177s1.177,0.528,1.177,1.177v3.94h3.939 c0.648,0,1.177,0.527,1.177,1.176s-0.528,1.177-1.177,1.177H70.78v3.939C70.78,78.618,70.252,79.147,69.604,79.147z"/><path fill="#472b29" d="M69.603,66.811c0.511,0,0.926,0.416,0.926,0.926v4.19h4.19c0.511,0,0.926,0.416,0.926,0.926 s-0.416,0.926-0.926,0.926h-4.19v4.19c0,0.511-0.416,0.926-0.926,0.926s-0.926-0.416-0.926-0.926v-4.19h-4.19 c-0.511,0-0.926-0.416-0.926-0.926s0.416-0.926,0.926-0.926h4.19v-4.19C68.677,67.227,69.093,66.811,69.603,66.811 M69.603,66.311c-0.786,0-1.426,0.64-1.426,1.426v3.69h-3.69c-0.786,0-1.426,0.64-1.426,1.426c0,0.786,0.64,1.426,1.426,1.426 h3.69v3.69c0,0.787,0.64,1.426,1.426,1.426s1.426-0.64,1.426-1.426v-3.69h3.69c0.786,0,1.426-0.64,1.426-1.426 c0-0.787-0.64-1.426-1.426-1.426h-3.69v-3.69C71.03,66.951,70.39,66.311,69.603,66.311L69.603,66.311z"/></g></g></svg>