<svg xmlns="http://www.w3.org/2000/svg" viewBox="0 0 80 80" width="500px" height="500px"><path fill="#f5ce85" d="M35,77.5c-1.3,0-2.6-0.5-3.5-1.4L3.9,48.4c-1.9-1.9-1.9-5.1,0-7L40.7,4.7C42.1,3.3,44,2.5,46,2.5h24 c4.1,0,7.5,3.4,7.5,7.5v24c0,2-0.8,3.9-2.2,5.3L38.5,76.1C37.6,77,36.4,77.5,35,77.5z M66,10.5c-1.9,0-3.5,1.6-3.5,3.5 s1.6,3.5,3.5,3.5s3.5-1.6,3.5-3.5S67.9,10.5,66,10.5z"/><path fill="#967a44" d="M70,3c3.9,0,7,3.1,7,7v24c0,1.9-0.7,3.6-2.1,5L38.2,75.7C37.3,76.5,36.2,77,35,77s-2.3-0.5-3.1-1.3 L4.3,48.1c-1.7-1.7-1.7-4.5,0-6.3L41.1,5c1.3-1.3,3.1-2,4.9-2H70 M66,18c2.2,0,4-1.8,4-4s-1.8-4-4-4s-4,1.8-4,4S63.8,18,66,18 M70,2H46c-2.1,0-4.2,0.8-5.7,2.3L3.6,41.1c-2.1,2.1-2.1,5.6,0,7.7l27.6,27.6c1.1,1.1,2.4,1.6,3.8,1.6s2.8-0.5,3.8-1.6l36.8-36.7 c1.5-1.5,2.3-3.5,2.3-5.7V10C78,5.6,74.4,2,70,2L70,2z M66,17c-1.7,0-3-1.3-3-3s1.3-3,3-3s3,1.3,3,3S67.7,17,66,17L66,17z"/><path fill="#bae0bd" d="M62,79.5c-9.6,0-17.5-7.9-17.5-17.5S52.4,44.5,62,44.5S79.5,52.4,79.5,62S71.6,79.5,62,79.5z"/><path fill="#5e9c76" d="M62,45c9.4,0,17,7.6,17,17s-7.6,17-17,17s-17-7.6-17-17S52.6,45,62,45 M62,44c-9.9,0-18,8.1-18,18 s8.1,18,18,18s18-8.1,18-18S71.9,44,62,44L62,44z"/><path fill="#fff" d="M60 52H64V72H60z"/><path fill="#fff" d="M52 60H72V64H52z"/></svg>