<?xml version="1.0"?><svg fill="#000000" xmlns="http://www.w3.org/2000/svg" viewBox="0 0 24 24" width="100px" height="100px">    <path d="M 12 1 C 10.696 1 9.5965937 1.837 9.1835938 3 L 5 3 C 3.895 3 3 3.895 3 5 L 3 19 C 3 20.105 3.895 21 5 21 L 12.294922 21 C 12.197922 20.676 12.123219 20.342 12.074219 20 L 12.080078 20 C 12.033078 19.673 12 19.34 12 19 C 12 15.134 15.134 12 19 12 C 19.34 12 19.673 12.033078 20 12.080078 L 20 12.074219 C 20.342 12.124219 20.676 12.198922 21 12.294922 L 21 5 C 21 3.895 20.105 3 19 3 L 14.816406 3 C 14.403406 1.837 13.304 1 12 1 z M 12 3 C 12.552 3 13 3.448 13 4 C 13 4.552 12.552 5 12 5 C 11.448 5 11 4.552 11 4 C 11 3.448 11.448 3 12 3 z M 19 14 C 16.239 14 14 16.239 14 19 C 14 21.761 16.239 24 19 24 C 21.761 24 24 21.761 24 19 C 24 16.239 21.761 14 19 14 z M 18 16 L 20 16 L 20 18 L 22 18 L 22 20 L 20 20 L 20 22 L 18 22 L 18 20 L 16 20 L 16 18 L 18 18 L 18 16 z"/></svg>