<svg xmlns="http://www.w3.org/2000/svg" width="500" height="500" viewBox="0 0 64 64"><path fill="#c2cde7" d="M1.43,57.32V50a11.37,11.37,0,0,1,5.66-9.81l9.71-5.62c2.51,3.06,5.76,5.21,9.37,5.21S32,36.65,34.53,33.6L46,40V58.35H2.46A1,1,0,0,1,1.43,57.32Z"/><path fill="#d6dff2" d="M36.28,39.86,26,45,15.72,39.86a3,3,0,0,1-.78-4.8L15,35H37l.06.06A3,3,0,0,1,36.28,39.86Z"/><path fill="#acb7d0" d="M39,54H5a4,4,0,0,0-4,4H1a1,1,0,0,0,1,1H42Z"/><path fill="#faefde" d="M13.07,26.13h0c-.31,0-1.31-.82-1.83-2.77s-.05-3.27.19-3.33c0,0,1.9-.33,1.92-.71a12.86,12.86,0,0,1,.18-1.63,6.09,6.09,0,0,0-.08-1.73,22.42,22.42,0,0,1-.13-5.44c.34-3.38,2.32-5.39,5.31-5.39a1.06,1.06,0,0,0,.63-.21A12.77,12.77,0,0,1,26,3h1.06c6.42,0,11,3.28,12.95,9.07-.73-.08-.49.43-1,.93s-1.78.7-1.3,2a12.8,12.8,0,0,1,1,4.31c0,.38,1.9-.29,1.92-.29.26.09.72,2.37.19,4.33s-1.52,2.77-1.83,2.77a1.09,1.09,0,0,0-1,.76c-1.78,6-6.44,12.05-11.92,12.05S15.86,32.87,14.08,26.88A1.06,1.06,0,0,0,13.07,26.13Z"/><path fill="#cda1a7" d="M13.45,16A7.47,7.47,0,0,0,20,11c3,1,4,4,18,3,1.39-.1,1.6.39,2,0s-.72-2,0-1.93C38.11,6.28,33.47,3,27.06,3H26a12.77,12.77,0,0,0-6.75,1.9,1.06,1.06,0,0,1-.63.21c-3,0-5,2-5.31,5.39a22.42,22.42,0,0,0,.13,5.44Z"/><path fill="#72caaf" d="M51 39A12 12 0 1 0 51 63A12 12 0 1 0 51 39Z"/><path fill="#faefde" d="M57,50H52V45a1,1,0,0,0-2,0v5H45a1,1,0,0,0,0,2h5v5a1,1,0,0,0,2,0V52h5a1,1,0,0,0,0-2Z"/><path fill="#8d6c9f" d="M31 52a1 1 0 0 0-1 1v2a1 1 0 0 0 2 0V53A1 1 0 0 0 31 52zM36 52a1 1 0 0 0-1 1v2a1 1 0 0 0 2 0V53A1 1 0 0 0 36 52zM26 52a1 1 0 0 0-1 1v2a1 1 0 0 0 2 0V53A1 1 0 0 0 26 52zM21 52a1 1 0 0 0-1 1v2a1 1 0 0 0 2 0V53A1 1 0 0 0 21 52zM16 52a1 1 0 0 0-1 1v2a1 1 0 0 0 2 0V53A1 1 0 0 0 16 52zM11 52a1 1 0 0 0-1 1v2a1 1 0 0 0 2 0V53A1 1 0 0 0 11 52zM6 52a1 1 0 0 0-1 1v2a1 1 0 0 0 2 0V53A1 1 0 0 0 6 52zM21.92 12.88A21.12 21.12 0 0 0 31.11 15h2.55a1 1 0 0 0 0-2H31.11a19.11 19.11 0 0 1-8.32-1.92l-1.56-.76a2 2 0 0 0-2.55.7l-1.6 2.43a1 1 0 0 0 1.67 1.1l1.6-2.43zM33.55 40.11L26 43.88l-7.55-3.78a1 1 0 0 0-.89 1.79l8 4a1 1 0 0 0 .89 0l8-4a1 1 0 1 0-.89-1.79z"/><path fill="#8d6c9f" d="M51,38a12.93,12.93,0,0,0-5,1c-.17-.11-.32-.23-.49-.33l-9.22-5.34A23.1,23.1,0,0,0,39,27.73c1.23-.46,2.35-2,2.88-4,.74-2.75,0-5.16-1.6-5.61h0a2,2,0,0,0-.43-.06,15.3,15.3,0,0,0-.92-3.44l0-.11a5.29,5.29,0,0,1,1.38.36,1,1,0,0,0,1.36-1.14C40,6.41,34.56,2,27,2H26a14.59,14.59,0,0,0-7.31,2C15,4.14,12.42,6.76,12,10.9a23,23,0,0,0,.13,5.6,7,7,0,0,1,.09,1q0,.28-.09.56a2,2,0,0,0-.44.06c-1.65.44-2.34,2.85-1.6,5.61.54,2,1.66,3.5,2.88,4a23.1,23.1,0,0,0,2.72,5.6L6.49,38.67A13,13,0,0,0,0,49.92V57a3,3,0,0,0,3,3H41.64A13,13,0,1,0,51,38ZM13.77,25.88h0c-.29,0-1.24-.78-1.73-2.62s-.05-3.09.18-3.15h0a.61.61,0,0,1,.27.12A1,1,0,0,0,14,19.43a12.18,12.18,0,0,1,.17-1.54,5.77,5.77,0,0,0-.08-1.64A21.21,21.21,0,0,1,14,11.1C14.31,7.91,16.19,6,19,6a1,1,0,0,0,.6-.2A12.08,12.08,0,0,1,26,4h1c6.07,0,10.45,3.1,12.25,8.58a2.31,2.31,0,0,0-1.9.48,2,2,0,0,0-.29,2.3,12.1,12.1,0,0,1,.9,4.07,1,1,0,0,0,1.54.79.65.65,0,0,1,.27-.12c.24.08.68,1.3.18,3.15s-1.44,2.62-1.73,2.62a.94.94,0,0,0-1,.72C35.59,32.26,31.18,38,26,38s-9.59-5.74-11.28-11.4A1,1,0,0,0,13.77,25.88ZM3,58a1,1,0,0,1-1-1V49.92A11,11,0,0,1,7.49,40.4l9.42-5.45C19.34,37.91,22.5,40,26,40s6.66-2.09,9.09-5.06L44,40.08A12.95,12.95,0,0,0,40.06,58Zm48,4A11,11,0,1,1,62,51,11,11,0,0,1,51,62Z"/></svg>