<svg xmlns="http://www.w3.org/2000/svg" width="300" height="300" viewBox="0 0 128 128"><path fill="#fff" d="M97,109H22c-2.8,0-5-2.2-5-5V24c0-2.8,2.2-5,5-5h80c2.8,0,5,2.2,5,5v75C107,104.5,102.5,109,97,109z"/><path fill="#444b54" d="M80,112H22c-4.4,0-8-3.6-8-8V24c0-4.4,3.6-8,8-8h19c1.7,0,3,1.3,3,3s-1.3,3-3,3H22c-1.1,0-2,0.9-2,2v80c0,1.1,0.9,2,2,2h58c1.7,0,3,1.3,3,3S81.7,112,80,112z"/><path fill="#444b54" d="M102,16H54c-1.7,0-3,1.3-3,3c0,0,0,0,0,0v19c0,1.7,1.3,3,3,3h16c1.7,0,3-1.3,3-3V22h29c1.1,0,2,0.9,2,2v38c0,1.7,1.3,3,3,3s3-1.3,3-3V24C110,19.6,106.4,16,102,16z"/><path fill="#1fd4af" d="M107 72A20 20 0 1 0 107 112A20 20 0 1 0 107 72Z"/><path fill="#fff" d="M114,95h-14c-1.7,0-3-1.3-3-3s1.3-3,3-3h14c1.7,0,3,1.3,3,3S115.7,95,114,95z"/><path fill="#fff" d="M107,102c-1.7,0-3-1.3-3-3V85c0-1.7,1.3-3,3-3s3,1.3,3,3v14C110,100.7,108.7,102,107,102z"/></svg>