<svg xmlns="http://www.w3.org/2000/svg" width="500" height="500" viewBox="0 0 64 64"><linearGradient id="SVGID_1_" x1="40.909" x2="40.909" y1="614.167" y2="601.819" gradientTransform="matrix(1 0 0 -1 0 654)" gradientUnits="userSpaceOnUse"><stop offset="0" stop-color="#6dc7ff"/><stop offset="1" stop-color="#e6abff"/></linearGradient><path fill="url(#SVGID_1_)" d="M38,41v10c0,0.6,0.4,1,1,1h2.2c0.5,0,0.9-0.4,1-0.8l1.7-10c0.1-0.6-0.4-1.2-1-1.2H39	C38.4,40,38,40.4,38,41z"/><linearGradient id="SVGID_2_" x1="23.091" x2="23.091" y1="614.167" y2="601.819" gradientTransform="matrix(1 0 0 -1 0 654)" gradientUnits="userSpaceOnUse"><stop offset="0" stop-color="#6dc7ff"/><stop offset="1" stop-color="#e6abff"/></linearGradient><path fill="url(#SVGID_2_)" d="M26,41v10c0,0.6-0.4,1-1,1h-2.2c-0.5,0-0.9-0.4-1-0.8l-1.7-10c-0.1-0.6,0.4-1.2,1-1.2H25	C25.6,40,26,40.4,26,41z"/><linearGradient id="SVGID_3_" x1="32" x2="32" y1="614.167" y2="601.819" gradientTransform="matrix(1 0 0 -1 0 654)" gradientUnits="userSpaceOnUse"><stop offset="0" stop-color="#6dc7ff"/><stop offset="1" stop-color="#e6abff"/></linearGradient><path fill="url(#SVGID_3_)" d="M33,52h-2c-0.6,0-1-0.4-1-1V41c0-0.6,0.4-1,1-1h2c0.6,0,1,0.4,1,1v10C34,51.6,33.6,52,33,52z"/><linearGradient id="SVGID_4_" x1="14" x2="14" y1="6.872" y2="57.325" gradientUnits="userSpaceOnUse"><stop offset="0" stop-color="#1a6dff"/><stop offset="1" stop-color="#c822ff"/></linearGradient><rect width="2" height="4" x="13" y="30" fill="url(#SVGID_4_)"/><linearGradient id="SVGID_5_" x1="20" x2="20" y1="6.872" y2="57.325" gradientUnits="userSpaceOnUse"><stop offset="0" stop-color="#1a6dff"/><stop offset="1" stop-color="#c822ff"/></linearGradient><rect width="2" height="4" x="19" y="30" fill="url(#SVGID_5_)"/><linearGradient id="SVGID_6_" x1="26" x2="26" y1="6.872" y2="57.325" gradientUnits="userSpaceOnUse"><stop offset="0" stop-color="#1a6dff"/><stop offset="1" stop-color="#c822ff"/></linearGradient><rect width="2" height="4" x="25" y="30" fill="url(#SVGID_6_)"/><linearGradient id="SVGID_7_" x1="32" x2="32" y1="6.872" y2="57.325" gradientUnits="userSpaceOnUse"><stop offset="0" stop-color="#1a6dff"/><stop offset="1" stop-color="#c822ff"/></linearGradient><rect width="2" height="4" x="31" y="30" fill="url(#SVGID_7_)"/><linearGradient id="SVGID_8_" x1="38" x2="38" y1="6.872" y2="57.325" gradientUnits="userSpaceOnUse"><stop offset="0" stop-color="#1a6dff"/><stop offset="1" stop-color="#c822ff"/></linearGradient><rect width="2" height="4" x="37" y="30" fill="url(#SVGID_8_)"/><linearGradient id="SVGID_9_" x1="44" x2="44" y1="6.872" y2="57.325" gradientUnits="userSpaceOnUse"><stop offset="0" stop-color="#1a6dff"/><stop offset="1" stop-color="#c822ff"/></linearGradient><rect width="2" height="4" x="43" y="30" fill="url(#SVGID_9_)"/><linearGradient id="SVGID_10_" x1="50" x2="50" y1="6.872" y2="57.325" gradientUnits="userSpaceOnUse"><stop offset="0" stop-color="#1a6dff"/><stop offset="1" stop-color="#c822ff"/></linearGradient><rect width="2" height="4" x="49" y="30" fill="url(#SVGID_10_)"/><linearGradient id="SVGID_11_" x1="32" x2="32" y1="6.872" y2="57.325" gradientUnits="userSpaceOnUse"><stop offset="0" stop-color="#1a6dff"/><stop offset="1" stop-color="#c822ff"/></linearGradient><path fill="url(#SVGID_11_)" d="M55,27H9c-1.7,0-3,1.3-3,3v4c0,1.7,1.3,3,3,3c1,0,1.1,0.3,1.1,0.8l3,14.4c0.6,3.4,3.5,5.8,6.9,5.8h23.9 c3.4,0,6.4-2.4,7-5.8l2.9-14.4C53.9,37.3,54,37,55,37c1.7,0,3-1.3,3-3v-4C58,28.3,56.7,27,55,27z M51.9,37.5l-3,14.4 c-0.4,2.4-2.5,4.1-4.9,4.1h-4.3l-0.4-0.9c-0.3-0.7-1-1.1-1.8-1.1H26.6c-0.8,0-1.4,0.4-1.8,1.1L24.4,56h-4.3c-2.4,0-4.6-1.7-5-4.1 l-2.9-14.4c0-0.2-0.1-0.3-0.1-0.5h40C52,37.2,51.9,37.3,51.9,37.5z M56,34c0,0.6-0.4,1-1,1H9c-0.6,0-1-0.4-1-1v-4c0-0.6,0.4-1,1-1 h46c0.6,0,1,0.4,1,1V34z"/><linearGradient id="SVGID_12_" x1="32" x2="32" y1="6.872" y2="57.325" gradientUnits="userSpaceOnUse"><stop offset="0" stop-color="#1a6dff"/><stop offset="1" stop-color="#c822ff"/></linearGradient><path fill="url(#SVGID_12_)" d="M29.9,24.4c0.6,0.6,1.3,0.8,2.1,0.8s1.5-0.3,2.1-0.8l7.3-7c0.6-0.6,0.8-1.4,0.5-2.2S40.8,14,40,14h-2V8 c0-1.1-0.9-2-2-2h-8c-1.1,0-2,0.9-2,2v6h-2c-0.8,0-1.6,0.5-1.9,1.3s-0.1,1.6,0.5,2.2L29.9,24.4z M28,16V8h8v8h4l-7.3,7 c-0.4,0.4-1,0.4-1.4,0L24,16H28z"/></svg>