<svg xmlns="http://www.w3.org/2000/svg" width="50" height="50" viewBox="0 0 40 40"><path fill="#8bb7f0" d="M1.512,36.5c0.268-5.559,4.982-10,10.738-10h7.5c5.756,0,10.47,4.441,10.738,10H1.512z"/><path fill="#4e7ab5" d="M19.75,27c5.306,0,9.683,3.954,10.199,9H2.051c0.516-5.046,4.893-9,10.199-9H19.75 M19.75,26h-7.5 C6.037,26,1,30.925,1,37h30C31,30.925,25.963,26,19.75,26L19.75,26z"/><path fill="#deb974" d="M16,29.5c-3.076,0-4.296-2.625-4.5-3.122v-5.469h9v5.469C20.296,26.875,19.076,29.5,16,29.5z"/><path fill="#967a44" d="M20,21.41v4.865C19.737,26.865,18.607,29,16,29c-2.611,0-3.741-2.141-4-2.725V21.41H20 M21,20.41 H11v6.062c0,0,1.267,3.529,5,3.529s5-3.529,5-3.529V20.41L21,20.41z"/><path fill="#f5ce85" d="M16,25.5c-0.604,0-1.171-0.218-1.641-0.631l-0.09-0.079l-0.117-0.029 C10.824,23.916,8.5,20.931,8.5,17.5V8.201c0-1.826,1.486-3.312,3.312-3.312h8.375c1.827,0,3.313,1.486,3.313,3.312V17.5 c0,3.431-2.324,6.416-5.652,7.261l-0.117,0.029l-0.09,0.079C17.171,25.282,16.604,25.5,16,25.5z"/><path fill="#967a44" d="M20.187,5.389C21.738,5.389,23,6.651,23,8.202V17.5c0,3.201-2.169,5.987-5.275,6.776l-0.233,0.059 l-0.181,0.159C17.048,24.725,16.608,25,16,25s-1.048-0.275-1.311-0.506l-0.181-0.159l-0.233-0.059C11.169,23.487,9,20.701,9,17.5 V8.202c0-1.551,1.262-2.813,2.813-2.813H20.187 M20.187,4.389h-8.375C9.707,4.389,8,6.096,8,8.202V17.5 c0,3.737,2.566,6.866,6.029,7.745C14.557,25.709,15.242,26,16,26s1.443-0.291,1.971-0.755C21.434,24.366,24,21.237,24,17.5V8.202 C24,6.096,22.293,4.389,20.187,4.389L20.187,4.389z"/><path fill="#a6714e" d="M24,25.5c-1.767,0-3.411-0.911-4.27-1.484c1.045-0.658,2.77-2.223,2.77-5.373v-4.724 c0-2.41-2.086-4.223-2.175-4.299l-0.43-0.368l-0.312,0.473c-0.021,0.032-2.135,3.156-6.651,3.78 C10.574,13.83,9.5,15.614,9.5,17.134v1.509c0,3.193,1.708,4.734,2.757,5.381C11.398,24.597,9.764,25.5,8,25.5 c-1.786,0-3.378-0.935-4.16-1.484c0.882-0.695,2.445-2.24,2.445-4.444c0-0.928-0.176-1.909-0.362-2.948 C5.715,15.463,5.5,14.263,5.5,13c0-8.488,5.387-11.5,10-11.5c3.802,0,5.031,2.676,5.043,2.702L20.674,4.5H21 c3.495,0,5.5,2.733,5.5,7.5c0,1.342-0.268,2.836-0.528,4.281C25.729,17.634,25.5,18.912,25.5,20c0,1.845,1.459,2.852,2.642,3.281 C27.434,24.092,25.928,25.5,24,25.5z"/><path fill="#7a4f34" d="M15.5,2c3.427,0,4.543,2.315,4.586,2.405L20.349,5H21c3.224,0,5,2.486,5,7 c0,1.298-0.264,2.769-0.52,4.193C25.233,17.569,25,18.868,25,20c0,1.764,1.141,2.855,2.289,3.45C26.545,24.165,25.38,25,24,25 c-1.274,0-2.497-0.524-3.357-1.01C21.732,23.107,23,21.472,23,18.643v-4.724c0-2.638-2.254-4.596-2.35-4.678l-0.864-0.739 l-0.623,0.951c-0.019,0.03-1.985,2.961-6.3,3.557C10.209,13.376,9,15.404,9,17.133v1.509c0,2.86,1.252,4.486,2.339,5.359 C10.485,24.484,9.273,25,8,25c-1.313,0-2.525-0.556-3.331-1.041c0.942-0.88,2.117-2.379,2.117-4.388 c0-0.972-0.18-1.975-0.37-3.036C6.211,15.396,6,14.218,6,13C6,4.881,11.118,2,15.5,2 M15.5,1C10.212,1,5,4.694,5,13 c0,2.454,0.786,4.682,0.786,6.571C5.786,22.327,3,24,3,24s2.254,2,5,2c2.794,0,5.211-2.056,5.211-2.056S10,22.918,10,18.643 c0-0.613,0-0.56,0-1.509c0-1.354,0.942-2.849,3-3.134c4.816-0.665,7-4,7-4s2,1.711,2,3.919c0,1.044,0,3.009,0,4.724 c0,4.194-3.214,5.302-3.214,5.302S21.225,26,24,26c3.005,0,5-3,5-3s-3-0.535-3-3c0-2.19,1-5.352,1-8c0-5.761-2.766-8-6-8 C21,4,19.672,1,15.5,1L15.5,1z"/><g><path fill="#bae0bd" d="M31,39.5c-4.687,0-8.5-3.813-8.5-8.5s3.813-8.5,8.5-8.5s8.5,3.813,8.5,8.5S35.687,39.5,31,39.5z"/><path fill="#5e9c76" d="M31,23c4.411,0,8,3.589,8,8c0,4.411-3.589,8-8,8s-8-3.589-8-8C23,26.589,26.589,23,31,23 M31,22 c-4.971,0-9,4.029-9,9c0,4.971,4.029,9,9,9s9-4.029,9-9C40,26.029,35.971,22,31,22L31,22z"/></g><path fill="none" stroke="#fff" stroke-miterlimit="10" stroke-width="2" d="M31 36L31 26M26 31L36 31"/></svg>