<svg xmlns="http://www.w3.org/2000/svg" width="50" height="50" fill="#000" viewBox="0 0 30 30"><path d="M 7.0703125 2.0019531 C 5.7858125 2.0408281 4.51425 2.54875 3.53125 3.53125 C 1.56625 5.49725 1.4991094 8.6174531 3.2871094 10.689453 L 10.689453 3.2871094 C 9.6534531 2.3931094 8.3548125 1.9630781 7.0703125 2.0019531 z M 22.917969 2.015625 C 21.633594 1.97675 20.336281 2.4072812 19.300781 3.3007812 L 26.701172 10.701172 C 28.489172 8.6301719 28.421078 5.5099219 26.455078 3.5449219 C 25.472078 2.5619219 24.202344 2.0545 22.917969 2.015625 z M 15 5 C 8.925 5 4 9.925 4 16 C 4 18.932141 5.1552124 21.588665 7.0253906 23.560547 L 5.2929688 25.292969 A 1.0001 1.0001 0 1 0 6.7070312 26.707031 L 8.53125 24.882812 C 10.348073 26.208304 12.578931 27 15 27 C 17.421069 27 19.651927 26.208304 21.46875 24.882812 L 23.292969 26.707031 A 1.0001 1.0001 0 1 0 24.707031 25.292969 L 22.974609 23.560547 C 24.844788 21.588665 26 18.932141 26 16 C 26 9.925 21.075 5 15 5 z M 15 11 C 15.552 11 16 11.447 16 12 L 16 15 L 19 15 C 19.552 15 20 15.447 20 16 C 20 16.553 19.552 17 19 17 L 16 17 L 16 20 C 16 20.553 15.552 21 15 21 C 14.448 21 14 20.553 14 20 L 14 17 L 11 17 C 10.448 17 10 16.553 10 16 C 10 15.447 10.448 15 11 15 L 14 15 L 14 12 C 14 11.447 14.448 11 15 11 z"/></svg>