<svg xmlns="http://www.w3.org/2000/svg" width="100" height="100" fill="#000" viewBox="0 0 50 50"><path d="M 9 6 A 1.0001 1.0001 0 0 0 8.1054688 6.5527344 L 1.1054688 20.552734 A 1.0001165 1.0001165 0 0 0 2.8945312 21.447266 L 8 11.234375 L 8 43 A 1.0001 1.0001 0 0 0 9 44 L 30.845703 44 C 32.397025 47.52231 35.921143 50 40 50 C 45.5 50 50 45.5 50 40 C 50 35.184743 46.549764 31.134665 42 30.201172 L 42 11.234375 L 47.105469 21.447266 A 1.0001163 1.0001163 0 1 0 48.894531 20.552734 L 41.894531 6.5527344 A 1.0001 1.0001 0 0 0 41 6 L 9 6 z M 10 8 L 40 8 L 40 30 C 34.5 30 30 34.5 30 40 C 30 40.684743 30.068426 41.353011 30.201172 42 L 10 42 L 10 8 z M 20 13 A 1.0001 1.0001 0 1 0 20 15 L 30 15 A 1.0001 1.0001 0 1 0 30 13 L 20 13 z M 40 32 C 44.4 32 48 35.6 48 40 C 48 44.4 44.4 48 40 48 C 35.6 48 32 44.4 32 40 C 32 35.6 35.6 32 40 32 z M 40 34.099609 C 39.4 34.099609 39 34.499609 39 35.099609 L 39 39 L 35.099609 39 C 34.499609 39 34.099609 39.4 34.099609 40 C 34.099609 40.6 34.499609 41 35.099609 41 L 39 41 L 39 44.900391 C 39 45.500391 39.4 45.900391 40 45.900391 C 40.6 45.900391 41 45.500391 41 44.900391 L 41 41 L 44.900391 41 C 45.500391 41 45.900391 40.6 45.900391 40 C 45.900391 39.4 45.500391 39 44.900391 39 L 41 39 L 41 35.099609 C 41 34.499609 40.6 34.099609 40 34.099609 z"/></svg>