<?xml version="1.0"?><svg fill="#000000" xmlns="http://www.w3.org/2000/svg" viewBox="0 0 24 24" width="300px" height="300px">    <path d="M 20 0 C 19.448 0 19 0.448 19 1 L 19 3 L 17 3 C 16.448 3 16 3.448 16 4 C 16 4.552 16.448 5 17 5 L 19 5 L 19 7 C 19 7.552 19.448 8 20 8 C 20.552 8 21 7.552 21 7 L 21 5 L 23 5 C 23.552 5 24 4.552 24 4 C 24 3.448 23.552 3 23 3 L 21 3 L 21 1 C 21 0.448 20.552 0 20 0 z M 5.75 3 C 5.271 3 4.8605313 3.3385938 4.7695312 3.8085938 L 3.0175781 12.8125 C 3.0115781 12.8755 3.006 12.937 3 13 L 3 19 C 3 20.105 3.895 21 5 21 L 19 21 C 20.105 21 21 20.105 21 19 L 21 13.001953 C 20.994 12.937953 20.987469 12.873594 20.980469 12.808594 L 20.591797 10.808594 C 20.500797 10.339594 20.090328 10 19.611328 10 C 18.982328 10 18.509906 10.573406 18.628906 11.191406 L 18.980469 13 L 16 13 C 15.57 13 15.187781 13.274594 15.050781 13.683594 L 14.455078 15.472656 C 14.350078 15.786656 14.054656 16 13.722656 16 L 10.277344 16 C 9.9453437 16 9.6499219 15.787656 9.5449219 15.472656 L 8.9472656 13.683594 C 8.8112656 13.275594 8.43 13 8 13 L 5.0195312 13 L 6.5742188 5 L 13 5 C 13.552 5 14 4.552 14 4 C 14 3.448 13.552 3 13 3 L 5.75 3 z"/></svg>