<svg xmlns="http://www.w3.org/2000/svg" viewBox="0 0 24 24" width="500px" height="500px"><path d="M12 17c0-.2 0-1.6 0-1.8 0-1.3-2.3-2.2-5-2.2s-5 .9-5 2.2c0 .2 0 1.6 0 1.8H12zM7 5A2 2 0 1 0 7 9 2 2 0 1 0 7 5zM17 5A2 2 0 1 0 17 9 2 2 0 1 0 17 5z" opacity=".3"/><path d="M7 10c-1.7 0-3-1.3-3-3s1.3-3 3-3 3 1.3 3 3S8.7 10 7 10zM7 6C6.4 6 6 6.4 6 7s.4 1 1 1 1-.4 1-1S7.6 6 7 6zM13 18H1v-2.8C1 13.3 3.5 12 7 12s6 1.3 6 3.2V18zM3 16h8v-.8c0-.4-1.4-1.2-4-1.2s-4 .9-4 1.2V16zM17 10c-1.7 0-3-1.3-3-3s1.3-3 3-3 3 1.3 3 3S18.7 10 17 10zM17 6c-.6 0-1 .4-1 1s.4 1 1 1 1-.4 1-1S17.6 6 17 6zM19 16H21V24H19z"/><path d="M16 19H24V21H16zM13 16v-.8c0-.4 1.4-1.2 4-1.2h5.6c-.2-.3-.6-.7-1.1-1-1.1-.6-2.7-1-4.5-1-3.5 0-6 1.3-6 3.2V18h6v-1.3V16H13z"/><path d="M17,16c0-1.1,0.9-2,2-2h3.6c-0.8-1.2-2.9-2-5.6-2c-3.5,0-6,1.3-6,3.2V18h6 V16z" opacity=".3"/></svg>