<svg xmlns="http://www.w3.org/2000/svg" width="50" height="50" fill="#000" viewBox="0 0 24 24"><path d="M 10 2 L 9 3 L 4 3 L 4 5 L 20 5 L 20 3 L 15 3 L 14 2 L 10 2 z M 5 7 L 5 22 L 12.683594 22 C 12.250594 21.09 12 20.075 12 19 C 12 17.094 12.764 15.367469 14 14.105469 L 14 9 L 16 9 L 16 12.683594 C 16.91 12.250594 17.925 12 19 12 L 19 7 L 5 7 z M 8 9 L 10 9 L 10 20 L 8 20 L 8 9 z M 19 14 C 16.239 14 14 16.239 14 19 C 14 21.761 16.239 24 19 24 C 21.761 24 24 21.761 24 19 C 24 16.239 21.761 14 19 14 z M 18 16 L 20 16 L 20 18 L 22 18 L 22 20 L 20 20 L 20 22 L 18 22 L 18 20 L 16 20 L 16 18 L 18 18 L 18 16 z"/></svg>