<svg xmlns="http://www.w3.org/2000/svg" width="100" height="100" viewBox="0 0 48 48"><path fill="#FFC107" d="M24.992,5L6.171,23.821c-1.562,1.562-1.562,4.095,0,5.656l12.343,12.344c1.563,1.562,4.096,1.562,5.657,0L42.992,23V9c0-2.209-1.791-4-4-4H24.992z M36.992,13c-1.104,0-2-0.896-2-2c0-1.105,0.896-2,2-2s2,0.895,2,2C38.992,12.104,38.096,13,36.992,13"/><path fill="#43A047" d="M43,33c0,5.523-4.478,10-10,10c-5.523,0-10-4.477-10-10s4.477-10,10-10C38.522,23,43,27.477,43,33"/><path fill="#FFF" d="M31 27H35V39H31z"/><path fill="#FFF" d="M27 31H39V35H27z"/></svg>