<svg xmlns="http://www.w3.org/2000/svg" width="50" height="50" fill="#000" viewBox="0 0 80 80"><path d="M 67.005859 12.986328 A 1.0001 1.0001 0 0 0 66.835938 13 L 13.164062 13 A 1.0001 1.0001 0 0 0 12.962891 12.988281 A 1.0001 1.0001 0 0 0 12.068359 13.634766 L 3.0683594 36.634766 A 1.0006748 1.0006748 0 0 0 4.9316406 37.365234 L 12 19.300781 L 12 67 A 1.0001 1.0001 0 0 0 13 68 L 48.527344 68 C 50.310779 74.889119 56.561394 80 64 80 C 72.822 80 80 72.822 80 64 C 80 56.561394 74.889119 50.310779 68 48.527344 L 68 19.300781 L 75.068359 37.365234 A 1.0006752 1.0006752 0 1 0 76.931641 36.634766 L 67.931641 13.634766 A 1.0001 1.0001 0 0 0 67.921875 13.611328 A 1.0001 1.0001 0 0 0 67.919922 13.609375 A 1.0001 1.0001 0 0 0 67.005859 12.986328 z M 14 15 L 66 15 L 66 48.138672 C 65.343107 48.056179 64.678886 48 64 48 C 55.178 48 48 55.178 48 64 C 48 64.678886 48.056179 65.343107 48.138672 66 L 14 66 L 14 15 z M 32 21 C 30.35503 21 29 22.35503 29 24 L 29 25 L 29.416016 25 C 29.85942 26.106694 30.743378 27 32 27 L 48 27 C 49.256622 27 50.14058 26.106694 50.583984 25 L 51 25 L 51 24 C 51 22.35503 49.64497 21 48 21 L 32 21 z M 32 23 L 48 23 C 48.56503 23 49 23.43497 49 24 C 49 24.56503 48.56503 25 48 25 L 32 25 C 31.43497 25 31 24.56503 31 24 C 31 23.43497 31.43497 23 32 23 z M 64 50 C 71.72 50 78 56.28 78 64 C 78 71.72 71.72 78 64 78 C 56.28 78 50 71.72 50 64 C 50 56.28 56.28 50 64 50 z M 63 57 L 63 63 L 57 63 L 57 65 L 63 65 L 63 71 L 65 71 L 65 65 L 71 65 L 71 63 L 65 63 L 65 57 L 63 57 z M 18 61 A 1 1 0 0 0 17 62 A 1 1 0 0 0 18 63 A 1 1 0 0 0 19 62 A 1 1 0 0 0 18 61 z M 22 61 A 1 1 0 0 0 21 62 A 1 1 0 0 0 22 63 A 1 1 0 0 0 23 62 A 1 1 0 0 0 22 61 z M 26 61 A 1 1 0 0 0 25 62 A 1 1 0 0 0 26 63 A 1 1 0 0 0 27 62 A 1 1 0 0 0 26 61 z M 30 61 A 1 1 0 0 0 29 62 A 1 1 0 0 0 30 63 A 1 1 0 0 0 31 62 A 1 1 0 0 0 30 61 z M 34 61 A 1 1 0 0 0 33 62 A 1 1 0 0 0 34 63 A 1 1 0 0 0 35 62 A 1 1 0 0 0 34 61 z M 38 61 A 1 1 0 0 0 37 62 A 1 1 0 0 0 38 63 A 1 1 0 0 0 39 62 A 1 1 0 0 0 38 61 z M 42 61 A 1 1 0 0 0 41 62 A 1 1 0 0 0 42 63 A 1 1 0 0 0 43 62 A 1 1 0 0 0 42 61 z"/></svg>