<svg xmlns="http://www.w3.org/2000/svg" width="300" height="300" fill="#000" viewBox="0 0 24 24"><path d="M 19 0 L 19 3 L 16 3 L 16 5 L 19 5 L 19 8 L 21 8 L 21 5 L 24 5 L 24 3 L 21 3 L 21 0 L 19 0 z M 5.75 3 C 5.271 3 4.8595312 3.3395469 4.7695312 3.8105469 L 3.0195312 12.810547 C 3.0065312 12.872547 3 12.936 3 13 L 3 19 C 3 20.103 3.897 21 5 21 L 19 21 C 20.103 21 21 20.103 21 19 L 21 13 C 21 12.936 20.993469 12.872547 20.980469 12.810547 L 20.435547 10 L 18.398438 10 L 18.980469 13 L 15 13 A 1.0001 1.0001 0 0 0 14.105469 13.552734 L 13.382812 15 L 10.617188 15 L 9.8945312 13.552734 A 1.0001 1.0001 0 0 0 9 13 L 5.0195312 13 L 6.5742188 5 L 14 5 L 14 3 L 5.75 3 z M 5 15 L 8.3828125 15 L 9.1054688 16.447266 A 1.0001 1.0001 0 0 0 10 17 L 14 17 A 1.0001 1.0001 0 0 0 14.894531 16.447266 L 15.617188 15 L 19 15 L 19 19 L 5 19 L 5 15 z"/></svg>