<svg xmlns="http://www.w3.org/2000/svg" viewBox="0 0 24 24" width="50px" height="50px"><path d="M12.465,17.452L12,17.207l-0.465,0.245L6.53,20.083l0.956-5.573l0.089-0.518l-0.376-0.367L3.149,9.678l5.596-0.813l0.52-0.076l0.233-0.471L12,3.247l2.502,5.071l0.233,0.471l0.52,0.076l5.596,0.813l-4.049,3.947l-0.376,0.367l0.089,0.518l0.956,5.573L12.465,17.452z" opacity=".3"/><path d="M12,4.377l2.054,4.162l0.349,0.707l0.78,0.113l4.593,0.667l-3.324,3.24l-0.565,0.55l0.133,0.777l0.785,4.574l-4.108-2.16L12,16.642l-0.698,0.367l-4.108,2.16l0.785-4.574l0.133-0.777l-0.565-0.55l-3.324-3.24L8.817,9.36l0.78-0.113l0.349-0.707L12,4.377 M12,0.988L8.601,7.875L1,8.98l5.5,5.361l-1.298,7.57L12,18.337l6.798,3.574l-1.298-7.57L23,8.98l-7.601-1.104L12,0.988L12,0.988z"/><path d="M13 9L11 9 11 11 9 11 9 13 11 13 11 15 13 15 13 13 15 13 15 11 13 11 13 9z"/></svg>