<svg xmlns="http://www.w3.org/2000/svg" width="100" height="100" fill="#000" viewBox="0 0 30 30"><path d="M 20.5 3 C 18.374 3 18 4.5 18 4.5 C 17.257 4.5 16.663172 4.7781875 16.201172 5.2421875 C 16.713172 6.3441875 17 7.614 17 9 C 17 9.696 16.862031 10.371156 16.707031 10.910156 C 16.914031 11.399156 17.015688 11.987063 16.929688 12.664062 C 16.825688 13.479062 16.579625 14.107469 16.265625 14.605469 C 16.456625 15.156469 16.80725 15.720969 17.15625 16.167969 C 18.73025 14.819969 20.77 14 23 14 C 23.631 14 24.246797 14.067406 24.841797 14.191406 C 24.850797 14.144406 24.866094 14.093875 24.871094 14.046875 C 25.225094 14.019875 25.781312 13.695109 25.945312 12.412109 C 26.033313 11.724109 25.684656 11.336844 25.472656 11.214844 C 25.472656 11.214844 26 10.104 26 9 C 26 5.721 23.988 3 20.5 3 z M 9.5 3.0019531 C 7.374 3.0019531 7 4.5019531 7 4.5019531 C 4.953 4.5019531 4 6.5739531 4 9.0019531 C 4 10.212953 4.5273438 11.214844 4.5273438 11.214844 C 4.3153438 11.336844 3.9666875 11.723109 4.0546875 12.412109 C 4.2186875 13.695109 4.7749062 14.021828 5.1289062 14.048828 C 5.2639062 15.245828 6.55 16.777 7 17 L 7 19 C 6 22 0 20 0 27 L 14.949219 27 C 14.346219 25.793 14 24.438 14 23 C 14 22.259 14.100531 21.542516 14.269531 20.853516 C 13.229531 20.445516 12.334 20.002 12 19 L 12 17 C 12.45 16.777 13.736094 15.244875 13.871094 14.046875 C 14.225094 14.019875 14.781312 13.695109 14.945312 12.412109 C 15.033312 11.724109 14.684656 11.336844 14.472656 11.214844 C 14.472656 11.214844 15 10.104 15 9 C 15 5.721 12.988 3.0009531 9.5 3.0019531 z M 23 16 C 19.134 16 16 19.134 16 23 C 16 26.866 19.134 30 23 30 C 26.866 30 30 26.866 30 23 C 30 19.134 26.866 16 23 16 z M 23 19 C 23.552 19 24 19.447 24 20 L 24 22 L 26 22 C 26.552 22 27 22.447 27 23 C 27 23.553 26.552 24 26 24 L 24 24 L 24 26 C 24 26.553 23.552 27 23 27 C 22.448 27 22 26.553 22 26 L 22 24 L 20 24 C 19.448 24 19 23.553 19 23 C 19 22.447 19.448 22 20 22 L 22 22 L 22 20 C 22 19.447 22.448 19 23 19 z"/></svg>