<svg xmlns="http://www.w3.org/2000/svg" width="50" height="50" fill="#000" viewBox="0 0 24 24"><path d="M 9 0 C 5.6875 0 3 2.6875 3 6 C 3 9.3125 5.6875 12 9 12 C 12.3125 12 15 9.3125 15 6 C 15 2.6875 12.3125 0 9 0 Z M 5 8 L 13 8 C 12.261719 9.476563 10.761719 10.5 9 10.5 C 7.238281 10.5 5.738281 9.476563 5 8 Z M 5.53125 13.03125 C 3.300781 13.617188 1.550781 15.011719 0.75 18 L 17.25 18 C 16.449219 15.011719 14.703125 13.617188 12.46875 13.03125 C 11.4375 13.585938 10.253906 13.90625 9 13.90625 C 7.746094 13.90625 6.566406 13.585938 5.53125 13.03125 Z M 18.875 15 L 18.875 18.9375 L 15 18.9375 L 15 20.125 L 18.875 20.125 L 18.875 24 L 20.09375 24 L 20.09375 20.125 L 24 20.125 L 24 18.9375 L 20.09375 18.9375 L 20.09375 15 Z"/></svg>