<svg fill="#000000" xmlns="http://www.w3.org/2000/svg" viewBox="0 0 24 24" width="50px" height="50px"><path d="M 13 3 C 12.47 3 11.960937 3.2109375 11.585938 3.5859375 L 2.5859375 12.585938 C 1.8049375 13.366938 1.8049375 14.633063 2.5859375 15.414062 L 8.5859375 21.414062 C 9.3669375 22.195062 10.633063 22.195062 11.414062 21.414062 L 20.414062 12.414062 C 20.789062 12.039062 21 11.53 21 11 L 21 5 C 21 3.895 20.105 3 19 3 L 13 3 z M 17.5 5 C 18.328 5 19 5.672 19 6.5 C 19 7.328 18.328 8 17.5 8 C 16.672 8 16 7.328 16 6.5 C 16 5.672 16.672 5 17.5 5 z M 19.984375 15.986328 A 1.0001 1.0001 0 0 0 19 17 L 19 19 L 17 19 A 1.0001 1.0001 0 1 0 17 21 L 19 21 L 19 23 A 1.0001 1.0001 0 1 0 21 23 L 21 21 L 23 21 A 1.0001 1.0001 0 1 0 23 19 L 21 19 L 21 17 A 1.0001 1.0001 0 0 0 19.984375 15.986328 z"/></svg>