<svg xmlns="http://www.w3.org/2000/svg" width="100" height="100" viewBox="0 0 80 80"><path fill="#8bb7f0" d="M2.5,71.5c0.3-11.6,10-21,22-21h15c12,0,21.7,9.4,22,21H2.5z"/><path fill="#4e7ab5" d="M39.5,51C51,51,60.4,59.9,61,71H3c0.5-11.1,10-20,21.5-20H39.5 M39.5,50h-15C12.1,50,2,59.8,2,72 l0,0h60l0,0C62,59.8,51.9,50,39.5,50L39.5,50z"/><path fill="#deb974" d="M32,57.5c-6.6,0-9.2-5.9-9.5-6.7V39.3h19v11.5C41.2,51.6,38.7,57.5,32,57.5z"/><path fill="#967a44" d="M41,39.8v10.9c-0.4,1-2.8,6.2-9,6.2c-6.2,0-8.6-5.3-9-6.2V39.8H41 M42,38.8H22v12.1 c0,0,2.5,7.1,10,7.1s10-7.1,10-7.1V38.8L42,38.8z"/><path fill="#deb974" d="M44.9,35.8c-2.6,0-4.6-2.1-4.6-4.6c0-2.6,2.1-4.6,4.6-4.6c3.3,0,4.6,0.8,4.6,2.9 C49.5,31.9,47.4,35.8,44.9,35.8z M19.1,35.8c-2.6,0-4.6-3.8-4.6-6.4c0-2.1,1.3-2.9,4.6-2.9c2.6,0,4.6,2.1,4.6,4.6 S21.7,35.8,19.1,35.8z"/><path fill="#967a44" d="M44.9,27c3.5,0,4.1,0.9,4.1,2.4c0,2.5-2,5.9-4.1,5.9c-2.3,0-4.1-1.9-4.1-4.1S42.6,27,44.9,27 M19.1,27c2.3,0,4.1,1.9,4.1,4.1s-1.9,4.1-4.1,4.1c-2.1,0-4.1-3.4-4.1-5.9C15,27.9,15.7,27,19.1,27 M44.9,26 c-2.8,0-5.1,2.3-5.1,5.1s2.3,5.1,5.1,5.1s5.1-4,5.1-6.9S47.7,26,44.9,26L44.9,26z M19.1,26c-2.8,0-5.1,0.6-5.1,3.4 s2.3,6.9,5.1,6.9s5.1-2.3,5.1-5.1S22,26,19.1,26L19.1,26z"/><path fill="#f5ce85" d="M32,49.5c-1.3,0-2.5-0.5-3.5-1.4L28.4,48l-0.1,0c-5.8-1.6-9.8-7-9.8-13V18.7c0-3.4,2.8-6.2,6.2-6.2 h14.7c3.4,0,6.2,2.8,6.2,6.2V35c0,6-4,11.3-9.8,13l-0.1,0l-0.1,0.1C34.5,49,33.3,49.5,32,49.5z"/><path fill="#967a44" d="M39.3,13.1c3.1,0,5.7,2.5,5.7,5.7V35c0,5.8-3.9,10.9-9.4,12.5l-0.2,0.1l-0.2,0.2 c-0.8,0.8-2,1.3-3.1,1.3s-2.3-0.4-3.1-1.3l-0.2-0.2l-0.2-0.1C22.9,45.9,19,40.8,19,35V18.7c0-3.1,2.5-5.7,5.7-5.7L39.3,13.1 M39.3,12.1H24.7c-3.7,0-6.7,3-6.7,6.7V35c0,6.4,4.3,11.8,10.2,13.5c1,1,2.3,1.5,3.8,1.5s2.8-0.6,3.8-1.5C41.7,46.8,46,41.4,46,35 V18.7C46,15,43,12.1,39.3,12.1L39.3,12.1z"/><g><path fill="#a6714e" d="M45.5,31.5V24c0-6.7-5.3-8.5-5.3-8.5l-0.3-0.1l-0.2,0.2c-0.1,0.1-5.8,5.8-12.6,5.8 c-0.5,0-1.1,0-1.6,0c-0.5,0-1,0-1.5,0c-2.8,0-5.4,0.6-5.4,4.6v5.5h-0.2c-0.7-1.2-3.8-6.8-3.8-12.3c0-9.8,7.2-16.7,17.5-16.7 c6.5,0,9.5,5.7,9.6,5.7l0.1,0.2l0.3,0c5.2,0.7,7.6,4.4,7.6,11.5c0,5.1-3.1,10.4-3.8,11.5H45.5z"/><path fill="#7a4f34" d="M32,3c6.2,0,9,5.2,9.1,5.5l0.2,0.5L41.9,9C44.9,9.4,49,11,49,20c0,3.9-1.9,7.9-3,10v-6 c0-3.6-1.5-5.9-2.8-7.1c-1.4-1.3-2.8-1.8-2.9-1.8l-0.6-0.2l-0.4,0.4C39.2,15.4,33.6,21,27,21c-0.5,0-1.1,0-1.6,0 c-0.5,0-1.1,0-1.6,0c-1.8,0-5.9,0-5.9,5.1v3.9c-1.1-2.2-3-6.5-3-10.8C15,9.6,22,3,32,3 M32,2C21.3,2,14,9.3,14,19.2 c0,6.5,4,12.8,4,12.8h1c0,0,0-4.2,0-6c0-3.6,2.2-4.1,4.9-4.1c1,0,2.1,0.1,3.1,0.1c7.1,0,13-6,13-6s5,1.6,5,8c0,2,0,8,0,8h1 c0,0,4-6.1,4-12c0-8.3-3.4-11.3-8-12C42,8,38.9,2,32,2L32,2z"/></g><g><path fill="#bae0bd" d="M62,79.5c-9.6,0-17.5-7.9-17.5-17.5S52.4,44.5,62,44.5S79.5,52.4,79.5,62S71.6,79.5,62,79.5z"/><path fill="#5e9c76" d="M62,45c9.4,0,17,7.6,17,17s-7.6,17-17,17s-17-7.6-17-17S52.6,45,62,45 M62,44c-9.9,0-18,8.1-18,18 s8.1,18,18,18s18-8.1,18-18S71.9,44,62,44L62,44z"/></g><path fill="#fff" d="M60 52H64V72H60z"/><path fill="#fff" d="M52 60H72V64H52z"/></svg>