<svg xmlns="http://www.w3.org/2000/svg" width="300" height="300" viewBox="0 0 512 512"><path fill="#00D9EA" d="M7.9,256C7.9,119,119,7.9,256,7.9C393,7.9,504.1,119,504.1,256c0,137-111.1,248.1-248.1,248.1C119,504.1,7.9,393,7.9,256z"/><path fill="#FFF" fill-rule="evenodd" d="M327.7 200.4c9.3 0 18.9-8.8 18.9-18.2 0-9.3-9.1-18.8-18.4-18.8-9.3 0-18.6 9.7-18.6 19.1C309.5 191.8 318.3 200.4 327.7 200.4zM364.5 226.5c0-9.2.6-8.3 0-14-2.3-7-7-9.3-11.7-9.3-10 0-13.3 0-21 0-9.4 0-13.9 0-23.3 0-4.7 0-7.7-.3-11.2 2.8-4.7 5.3-4.3 5.8-4.3 20.8 0 7.4 0 20.3 0 28.5 0 7.4-1.2 18.9 6.2 18.9 7 0 6.9-5 6.9-12.5 0-10.5 0-13.3 0-19.5 0-6.8-.4-8 1-8 1.4 0 1.4.1 1.4 7.3 0 6.7-.1 101-.1 106.4 0 4.7 2.5 9.7 9.5 9.7 7 0 9.9-4.1 9.9-8.8 0-8.4 0-45.1 0-49.1 0-4.7.2-6.9 1.3-6.9 1.2 0 1 2.3 1 6.9 0 4.2 0 40.4 0 49.1 0 2.9 3.1 9.2 10.1 9.2 4.7 0 9-6 9-9.1 0-18.7.1-101.8.1-107.7 0-3.2-.3-7.2.9-7.2 1.2 0 1.2 1.1 1.2 5.7 0 5.3 0 10.6 0 18 0 12.3 1.9 15.5 6.6 15.5 7 0 6.4-12 6.4-18.7C364.5 245.4 364.5 235.8 364.5 226.5zM250.1 200.4c9.3 0 18.9-8.8 18.9-18.2 0-9.3-9.1-18.8-18.4-18.8-9.3 0-18.6 9.7-18.6 19.1C232 191.8 240.8 200.4 250.1 200.4zM286.9 226.5c0-9.2.6-8.3 0-14-2.3-7-7-9.3-11.7-9.3-10 0-13.3 0-21 0-9.4 0-13.9 0-23.3 0-4.7 0-7.7-.3-11.2 2.8-4.7 5.3-4.3 5.8-4.3 20.8 0 7.4 0 20.3 0 28.5 0 7.4-1.2 18.9 6.1 18.9 7 0 7-5 7-12.5 0-10.5 0-13.3 0-19.5 0-6.8-.4-8 1-8 1.4 0 1.4.1 1.4 7.3 0 6.7-.1 101-.1 106.4 0 4.7 2.5 9.7 9.5 9.7 7 0 9.9-4.1 9.9-8.8 0-8.4 0-45.1 0-49.1 0-4.7.2-6.9 1.3-6.9 1.2 0 1 2.3 1 6.9 0 4.2 0 40.4 0 49.1 0 2.9 3.1 9.2 10.1 9.2 4.7 0 9-6 9-9.1 0-18.7.1-101.8.1-107.7 0-3.2-.3-7.2.9-7.2 1.2 0 1.2 1.1 1.2 5.7 0 5.3 0 10.6 0 18 0 12.3 1.9 15.5 6.6 15.5 7 0 6.4-12 6.4-18.7C286.9 245.4 286.9 235.8 286.9 226.5zM172.6 200.4c9.3 0 18.9-8.8 18.9-18.2 0-9.3-9.1-18.8-18.4-18.8-9.3 0-18.6 9.7-18.6 19.1C154.4 191.8 163.2 200.4 172.6 200.4zM209.4 226.5c0-9.2.6-8.3 0-14-2.3-7-7-9.3-11.7-9.3-10 0-13.3 0-21 0-9.4 0-13.9 0-23.3 0-4.7 0-7.7-.3-11.2 2.8-4.7 5.3-4.3 5.8-4.3 20.8 0 7.4 0 20.3 0 28.5 0 7.4-1.3 18.9 6.1 18.9 7 0 7-5 7-12.5 0-10.5 0-13.3 0-19.5 0-6.8-.4-8 1-8 1.4 0 1.4.1 1.4 7.3 0 6.7-.1 101-.1 106.4 0 4.7 2.5 9.7 9.5 9.7 7 0 10-4.1 10-8.8 0-8.4 0-45.1 0-49.1 0-4.7.2-6.9 1.3-6.9 1.2 0 1 2.3 1 6.9 0 4.2 0 40.4 0 49.1 0 2.9 3.1 9.2 10.1 9.2 4.7 0 9-6 9-9.1 0-18.7.1-101.8.1-107.7 0-3.2-.3-7.2.9-7.2 1.2 0 1.2 1.1 1.2 5.7 0 5.3 0 10.6 0 18 0 12.3 1.9 15.5 6.6 15.5 7 0 6.4-12 6.4-18.7C209.4 245.4 209.4 235.8 209.4 226.5z" clip-rule="evenodd"/><path fill="#FFF" d="M410.8,177.6c2.6,0,4.8,0.9,6.6,2.6c1.8,1.7,2.7,3.9,2.7,6.5c0,2.5-0.9,4.7-2.7,6.4c-1.8,1.8-4,2.7-6.6,2.7H403v7.8c0,2.6-0.9,4.8-2.7,6.6c-1.8,1.8-3.9,2.7-6.5,2.7c-2.6,0-4.8-0.9-6.5-2.7c-1.7-1.8-2.6-4-2.6-6.6v-7.8h-7.9c-2.6,0-4.7-0.9-6.4-2.7c-1.7-1.8-2.6-3.9-2.6-6.4c0-2.6,0.9-4.8,2.6-6.5c1.7-1.7,3.8-2.6,6.4-2.6h7.9v-7.9c0-2.6,0.9-4.8,2.6-6.5c1.7-1.7,3.9-2.6,6.5-2.6c2.5,0,4.7,0.9,6.5,2.6c1.8,1.7,2.7,3.9,2.7,6.5v7.9H410.8z"/></svg>