<svg xmlns="http://www.w3.org/2000/svg" width="300" height="300" fill="#000" viewBox="0 0 50 50"><path d="M 21.28125 2 C 17.707031 2.066406 15.070313 3.175781 13.46875 5.3125 C 11.574219 7.835938 11.214844 11.742188 12.4375 16.625 C 12.003906 17.171875 11.714844 18.007813 11.84375 19.09375 C 12.097656 21.257813 12.921875 22.136719 13.625 22.5 C 13.964844 24.238281 14.90625 26.210938 15.8125 27.09375 C 15.984375 28.515625 15.921875 29.214844 15.6875 30.4375 C 15.121094 31.84375 13.132813 32.644531 10.84375 33.5625 C 7.058594 35.078125 2.351563 36.957031 2 42.9375 L 1.9375 44 L 27.625 44 C 29.703125 47.582031 33.570313 50 38 50 C 44.617188 50 50 44.617188 50 38 C 50 31.574219 44.914063 26.328125 38.5625 26.03125 C 38.460938 25.308594 38.460938 24.589844 38.5625 23.9375 C 39.386719 23.144531 40.144531 21.429688 40.4375 19.96875 C 41.066406 19.621094 41.777344 18.804688 42 16.9375 C 42.109375 16.003906 41.832031 15.277344 41.46875 14.78125 C 42.105469 12.46875 42.675781 8.273438 41.03125 5.6875 C 40.324219 4.574219 39.257813 3.863281 37.9375 3.59375 C 37.109375 2.570313 35.558594 2 33.5 2 C 31.847656 2.03125 30.433594 2.332031 29.25 2.875 C 30.148438 3.4375 30.933594 4.183594 31.53125 5.125 C 33.855469 8.777344 32.988281 14.09375 32.46875 16.34375 C 32.886719 17.234375 33.03125 18.277344 32.90625 19.34375 C 32.636719 21.648438 31.777344 22.964844 30.90625 23.71875 C 30.519531 25.160156 29.804688 26.835938 28.875 28 C 28.839844 28.566406 28.882813 29.191406 29 29.78125 C 29.027344 29.820313 29.09375 29.875 29.15625 29.9375 C 28.707031 30.429688 28.300781 30.9375 27.9375 31.5 C 27.542969 31.160156 27.246094 30.828125 27.09375 30.4375 C 26.839844 29.332031 26.804688 28.136719 26.96875 27.125 C 27.910156 26.246094 28.828125 24.199219 29.15625 22.5 C 29.859375 22.136719 30.683594 21.253906 30.9375 19.09375 C 31.066406 18.019531 30.738281 17.203125 30.3125 16.65625 C 31.046875 14.023438 31.734375 9.160156 29.84375 6.1875 C 29.027344 4.902344 27.839844 4.105469 26.3125 3.8125 C 25.390625 2.636719 23.636719 2 21.28125 2 Z M 38 28 C 43.535156 28 48 32.464844 48 38 C 48 43.535156 43.535156 48 38 48 C 32.464844 48 28 43.535156 28 38 C 28 32.464844 32.464844 28 38 28 Z M 37 32 L 37 37 L 32 37 L 32 39 L 37 39 L 37 44 L 39 44 L 39 39 L 44 39 L 44 37 L 39 37 L 39 32 Z"/></svg>