<svg xmlns="http://www.w3.org/2000/svg" width="50" height="50" fill="#000" viewBox="0 0 24 24"><path d="M 7 4 C 5.3549904 4 4 5.3549904 4 7 C 4 8.6450096 5.3549904 10 7 10 C 8.6450096 10 10 8.6450096 10 7 C 10 5.3549904 8.6450096 4 7 4 z M 17 4 C 15.35499 4 14 5.3549904 14 7 C 14 8.6450096 15.35499 10 17 10 C 18.64501 10 20 8.6450096 20 7 C 20 5.3549904 18.64501 4 17 4 z M 7 6 C 7.5641294 6 8 6.4358706 8 7 C 8 7.5641294 7.5641294 8 7 8 C 6.4358706 8 6 7.5641294 6 7 C 6 6.4358706 6.4358706 6 7 6 z M 17 6 C 17.564129 6 18 6.4358706 18 7 C 18 7.5641294 17.564129 8 17 8 C 16.435871 8 16 7.5641294 16 7 C 16 6.4358706 16.435871 6 17 6 z M 7 12 C 5.5235516 12 4.1652139 12.232561 3.0800781 12.699219 C 2.5375102 12.932548 2.0571732 13.224793 1.671875 13.630859 C 1.2865768 14.036925 1 14.600679 1 15.216797 L 1 18 L 11 18 L 13 18 L 17 18 L 17 16.667969 L 17 16 L 13 16 L 13 15.216797 C 13 14.863797 14.401 14 17 14 L 22.613281 14 C 22.389281 13.661 22.046906 13.309187 21.503906 12.992188 C 20.423906 12.362187 18.782 12 17 12 C 14.818952 12 13.048767 12.507945 12.009766 13.339844 C 11.689226 13.079605 11.322295 12.872257 10.919922 12.699219 C 9.834786 12.232561 8.4764484 12 7 12 z M 7 14 C 8.2545516 14 9.3967922 14.222267 10.128906 14.537109 C 10.494963 14.694531 10.75147 14.875566 10.876953 15.007812 C 11.002436 15.14006 11 15.178915 11 15.216797 L 11 16 L 3 16 L 3 15.216797 C 3 15.178917 2.99756 15.140058 3.1230469 15.007812 C 3.2485299 14.875566 3.5050366 14.694531 3.8710938 14.537109 C 4.603208 14.222267 5.7454484 14 7 14 z M 19 16 L 19 19 L 16 19 L 16 21 L 19 21 L 19 24 L 21 24 L 21 21 L 24 21 L 24 19 L 21 19 L 21 16 L 19 16 z"/></svg>