<svg xmlns="http://www.w3.org/2000/svg" width="50" height="50" viewBox="0 0 100 100"><path fill="#ead6c7" d="M68,73c-4.325-1.622-7.188-2.659-8.907-3.27c-0.286-0.102-0.54-0.191-0.764-0.27	C57.528,69.178,57,68.424,57,67.575v-3.034c4.442-2.889,8-7.543,8-9.542c0-1,0-4,0-4c2,0,2.381-1.898,3-4c0.57-1.935,1-4,1-5	c0-1.875-3.257-2.5-3.257-2.5h-0.121c-0.031-1.75-0.325-9.907-2.871-15c0,0-6.25-2-12.75-2s-12.75,2-12.75,2	c-2.553,5.107-2.932,13.284-2.989,15.014C33.508,39.611,31,40.277,31,42c0,1,0.43,3.065,1,5c0.619,2.102,1,4,3,4c0,0,0,3,0,4	c0,1.999,3.558,6.653,8,9.542v3.034c0,0.849-0.528,1.602-1.329,1.884c-0.224,0.079-0.478,0.169-0.764,0.27	C39.188,70.34,36.325,71.378,32,73c-8,3-8,11-8,11h52C76,84,76,76,68,73z"/><path fill="#78cdd4" d="M68,73c-4.325-1.622-7.188-2.659-8.907-3.27c-0.249-0.089-0.464-0.164-0.666-0.236	C57.178,70.057,54.429,71,50,71c-4.406,0-7.166-0.944-8.423-1.507c-0.203,0.072-0.419,0.148-0.67,0.237	C39.188,70.341,36.325,71.378,32,73c-8,3-8,11-8,11h52C76,84,76,76,68,73z"/><path fill="#b07454" d="M50.5,15.5c-9,0-12.5,4.749-13,5.999c-3.959,1.682-7,6-7,11c0,8,4,11,4,11c0-9,5-14,5-17	c1.803,2.856,6.733,5,12,5c5.125,0,7.625-0.625,10-2c3,4,4,14,4,14s3-3,3-9c0-4.738-1.403-5.298-3-8c1.5-1,2-2.75,2-4	C63,22.5,60.5,15.5,50.5,15.5z"/><path fill="#1f212b" d="M34.5,44c-0.106,0-0.212-0.034-0.3-0.1c-0.172-0.129-4.2-3.244-4.2-11.4	c0-4.929,2.854-9.476,7.123-11.381C37.987,19.334,41.903,15,50.5,15c6.153,0,9.525,2.563,12.235,4.623	C64.482,20.951,65.862,22,67.5,22c0.276,0,0.5,0.224,0.5,0.5c0,1.301-0.491,3.011-1.836,4.128c0.278,0.441,0.548,0.825,0.811,1.198	C68.106,29.434,69,30.703,69,34.5c0,6.137-3.018,9.225-3.146,9.354c-0.136,0.136-0.341,0.181-0.521,0.117	c-0.182-0.064-0.31-0.229-0.33-0.421c-0.01-0.096-0.962-9.336-3.651-13.394C58.838,31.512,56.183,32,51.5,32	c-4.794,0-9.381-1.716-11.693-4.277c-0.265,0.927-0.778,1.973-1.377,3.193C36.982,33.868,35,37.91,35,43.5	c0,0.189-0.107,0.362-0.276,0.447C34.653,43.982,34.576,44,34.5,44z M50.5,16c-9.82,0-12.513,5.629-12.536,5.686	c-0.05,0.124-0.146,0.223-0.269,0.274C33.691,23.661,31,27.896,31,32.5c0,5.438,1.917,8.499,3.028,9.816	c0.251-5.208,2.116-9.011,3.503-11.841C38.352,28.804,39,27.482,39,26.5c0-0.223,0.147-0.418,0.361-0.48	c0.217-0.057,0.443,0.024,0.562,0.214C41.667,28.995,46.536,31,51.5,31c5.362,0,7.635-0.709,9.75-1.933	c0.221-0.127,0.5-0.068,0.65,0.133c2.447,3.263,3.58,10.204,3.952,13.029C66.697,40.957,68,38.369,68,34.5	c0-3.479-0.773-4.578-1.843-6.098c-0.331-0.471-0.707-1.004-1.087-1.647c-0.135-0.229-0.068-0.523,0.153-0.671	c1.14-0.76,1.641-2.031,1.752-3.112c-1.736-0.188-3.188-1.293-4.846-2.553C59.54,18.45,56.316,16,50.5,16z"/><path fill="#1f212b" d="M50,55c-1.977,0-2.863-1.151-2.9-1.2c-0.166-0.221-0.121-0.534,0.1-0.7	c0.22-0.164,0.531-0.12,0.697,0.097C47.93,53.237,48.555,54,50,54c1.454,0,2.078-0.771,2.104-0.805	c0.169-0.215,0.482-0.257,0.699-0.09s0.262,0.476,0.097,0.694C52.863,53.849,51.977,55,50,55z"/><path fill="#1f212b" d="M50,67c-2.106,0-4.527-0.85-7-2.458l0.545-0.838C45.855,65.206,48.087,66,50,66	s4.145-0.794,6.455-2.296L57,64.542C54.527,66.15,52.106,67,50,67z"/><path fill="#1f212b" d="M76,85H24c-0.552,0-1-0.447-1-1c0-0.087,0.099-8.73,8.649-11.937	c4.463-1.674,7.318-2.706,8.927-3.276l0.755-0.268c0.329-0.115,0.571-0.389,0.641-0.718C41.991,67.711,42,67.642,42,67.579v-2.506	C37.758,62.16,34,57.464,34,55v-3.131c-1.781-0.508-2.329-2.404-2.82-4.106l-0.139-0.479C30.561,45.656,30,43.296,30,42	c0-0.968,0.657-1.765,1.953-2.367l0.844,1.813c-0.706,0.329-0.798,0.564-0.798,0.567c0.001,0.838,0.405,2.821,0.96,4.704	l0.143,0.491C33.726,49.371,34.051,50,35,50c0.552,0,1,0.447,1,1v4c0,1.491,3.24,5.898,7.545,8.701	c0.284,0.185,0.455,0.5,0.455,0.838v3.04c0,0.205-0.023,0.407-0.071,0.638c-0.214,1.009-0.954,1.847-1.929,2.188l-0.754,0.268	c-1.602,0.568-4.445,1.596-8.895,3.265c-5.639,2.114-6.953,6.963-7.259,9.063h49.823c-0.29-2.102-1.576-6.93-7.267-9.063	c-4.45-1.669-7.292-2.696-8.894-3.265L57.991,70.4c-0.966-0.337-1.686-1.146-1.917-2.159C56.024,68.005,56,67.786,56,67.579v-3.04	c0-0.338,0.171-0.653,0.455-0.838C60.76,60.898,64,56.491,64,55v-4c0-0.553,0.448-1,1-1c0.949,0,1.274-0.629,1.898-2.792	l0.143-0.491C67.597,44.834,68,42.851,68,42l0,0c-0.003,0-0.116-0.256-0.903-0.603l0.806-1.83C69.294,40.18,70,40.998,70,42	c0,1.296-0.561,3.656-1.041,5.283l-0.139,0.479c-0.491,1.702-1.039,3.599-2.82,4.106V55c0,2.464-3.758,7.16-8,10.073v2.506	c0,0.066,0.01,0.146,0.028,0.231c0.074,0.325,0.312,0.594,0.632,0.705l0.766,0.271c1.608,0.57,4.462,1.603,8.926,3.276	C76.901,75.27,77,83.913,77,84C77,84.553,76.552,85,76,85z"/><path fill="#1f212b" d="M50,60c-4.696,0-7.724-2.23-7.85-2.325c-0.166-0.124-0.199-0.358-0.075-0.524	c0.124-0.165,0.358-0.2,0.525-0.076C42.629,57.096,45.565,59,50,59s7.371-1.903,7.4-1.925c0.167-0.124,0.401-0.089,0.525,0.076	c0.124,0.166,0.09,0.4-0.075,0.524C57.724,57.77,54.696,60,50,60z"/><path fill="#1f212b" d="M43,40c-0.799,0-1.482,0.589-1.803,1.435C41.378,41.178,41.662,41,42,41c0.552,0,1,0.448,1,1	c0,0.552-0.448,1-1,1c-0.502,0-0.899-0.376-0.971-0.857C41.015,42.26,41,42.377,41,42.5c0,1.381,0.895,2.5,2,2.5s2-1.119,2-2.5	C45,41.119,44.105,40,43,40z"/><path fill="#1f212b" d="M57,40c-0.799,0-1.482,0.589-1.803,1.435C55.378,41.178,55.662,41,56,41c0.552,0,1,0.448,1,1	c0,0.552-0.448,1-1,1c-0.502,0-0.899-0.376-0.971-0.857C55.015,42.26,55,42.377,55,42.5c0,1.381,0.895,2.5,2,2.5s2-1.119,2-2.5	C59,41.119,58.105,40,57,40z"/><path fill="#1f212b" d="M60.314,37.751L61,36.441c-1.277-0.298-2.64-0.443-4-0.441c-1.73,0.003-3.456,0.247-5,0.723	L52.865,38c1.268-0.417,2.7-0.622,4.135-0.625C58.128,37.372,59.259,37.491,60.314,37.751z"/><path fill="#1f212b" d="M43,37.375c1.435,0.003,2.867,0.208,4.135,0.625L48,36.723c-1.544-0.476-3.27-0.719-5-0.723	c-1.36-0.003-2.723,0.143-4,0.441l0.686,1.31C40.741,37.491,41.872,37.372,43,37.375z"/><path fill="#1f212b" d="M76,85H24c-0.552,0-1-0.447-1-1c0-0.087,0.099-8.73,8.649-11.937	c4.408-1.653,7.285-2.693,8.923-3.275l0.766-0.271C41.734,68.378,42,68,42,67.576v-3.034c0-0.553,0.448-1,1-1s1,0.447,1,1v3.034	c0,1.271-0.803,2.407-1.998,2.827l-0.761,0.27c-1.63,0.579-4.497,1.615-8.891,3.264c-5.639,2.114-6.953,6.963-7.259,9.063h49.823	c-0.29-2.102-1.576-6.93-7.267-9.063c-4.394-1.648-7.26-2.685-8.891-3.264l-0.762-0.27C56.803,69.983,56,68.848,56,67.576v-3.034	c0-0.553,0.448-1,1-1s1,0.447,1,1v3.034c0,0.424,0.266,0.802,0.661,0.94l0.768,0.271c1.638,0.582,4.515,1.622,8.923,3.275	C76.901,75.27,77,83.913,77,84C77,84.553,76.552,85,76,85z"/><path fill="#1f212b" d="M50,72c-6.576,0-9.65-1.999-9.777-2.084c-0.229-0.153-0.291-0.462-0.139-0.691	c0.151-0.23,0.461-0.293,0.692-0.142C40.805,69.103,43.76,71,50,71c0.517,0,1.003-0.017,1.475-0.04	c0.274-0.024,0.511,0.197,0.525,0.474c0.014,0.275-0.198,0.511-0.474,0.524C51.038,71.983,50.534,72,50,72z"/><path fill="#1f212b" d="M53.5,71.787c-0.248,0-0.463-0.185-0.496-0.438c-0.035-0.273,0.159-0.523,0.433-0.559	c0.664-0.084,1.304-0.194,1.957-0.335c0.271-0.058,0.536,0.113,0.595,0.383s-0.113,0.536-0.383,0.594	c-0.682,0.148-1.35,0.263-2.043,0.351C53.542,71.786,53.521,71.787,53.5,71.787z"/><circle cx="76.5" cy="80.5" r="14.5" fill="#60be92"/><path fill="#1f212b" d="M84.5,81H68.593c-0.276,0-0.5-0.224-0.5-0.5c0-0.276,0.224-0.5,0.5-0.5H84.5	c0.276,0,0.5,0.224,0.5,0.5C85,80.776,84.776,81,84.5,81z"/><path fill="#1f212b" d="M76.5,89c-0.276,0-0.5-0.224-0.5-0.5v-16c0-0.276,0.224-0.5,0.5-0.5s0.5,0.224,0.5,0.5v16	C77,88.776,76.776,89,76.5,89z"/><path fill="#1f212b" d="M76.5,96C67.953,96,61,89.047,61,80.5S67.953,65,76.5,65S92,71.953,92,80.5S85.047,96,76.5,96z M76.5,67C69.056,67,63,73.056,63,80.5S69.056,94,76.5,94S90,87.944,90,80.5S83.944,67,76.5,67z"/></svg>