<svg xmlns="http://www.w3.org/2000/svg" viewBox="0 0 100 100" width="300px" height="300px"><path fill="#f15b6c" d="M86.855,39.957c-0.261-0.783-0.934-1.359-1.749-1.478L62.192,35.13L51.947,14.217C51.589,13.478,50.828,13,50.002,13c-0.837,0-1.586,0.478-1.956,1.217L37.802,35.13l-22.902,3.359c-0.815,0.12-1.499,0.685-1.749,1.467c-0.261,0.793-0.043,1.652,0.543,2.228l16.579,16.283l-4.223,22.989c-0.141,0.815,0.196,1.641,0.869,2.13C27.288,83.859,27.744,84,28.189,84c0.348,0,0.695-0.087,1.021-0.25L50,73.077L70.768,83.75c0.326,0.163,0.674,0.25,1.021,0.25c0.445,0,0.891-0.141,1.271-0.413c0.674-0.489,1.01-1.315,0.869-2.13l-4.197-22.989l16.579-16.283C86.898,41.609,87.105,40.75,86.855,39.957z"/><path fill="#fefdef" d="M65,50c0,0.54-0.21,1.04-0.59,1.42C64.03,51.8,63.53,52,63,52l-11.01-0.01L52,63c0,1.07-0.93,2-2,2c-0.53,0-1.03-0.21-1.41-0.59C48.21,64.03,48,63.53,48,63V52H37c-0.54,0-1.04-0.2-1.42-0.58C35.21,51.04,35,50.54,35,50c0-1.07,0.93-2,2-2h11V37c0-1.07,0.93-2,2-2c0.54,0,1.04,0.21,1.42,0.58C51.8,35.96,52,36.46,52,37v11h11c0.53,0,1.03,0.21,1.41,0.59C64.79,48.97,65,49.47,65,50z"/><path fill="#1f212b" d="M81.96 42.06c-.024 0-.048-.002-.073-.005l-4.424-.646c-.273-.04-.462-.294-.422-.567s.292-.458.567-.423l4.424.646c.273.04.462.294.422.567C82.418 41.881 82.205 42.06 81.96 42.06zM73.415 40.811c-.024 0-.048-.002-.073-.005l-13.554-1.98c-.273-.04-.462-.294-.422-.567.04-.273.293-.458.567-.423l13.554 1.98c.273.04.462.294.422.567C73.873 40.632 73.659 40.811 73.415 40.811zM58.915 36.897c-.185 0-.363-.103-.45-.28l-4.376-8.938c-.121-.248-.019-.547.229-.669.249-.12.547-.02.669.229l4.376 8.938c.121.248.019.547-.229.669C59.063 36.881 58.988 36.897 58.915 36.897zM53.547 25.936c-.185 0-.363-.103-.45-.28l-1.475-3.014c-.121-.248-.019-.548.229-.669.249-.121.547-.02.669.229l1.475 3.014c.121.248.019.548-.229.669C53.696 25.919 53.621 25.936 53.547 25.936zM51.122 20.981c-.185 0-.363-.103-.45-.28l-.476-.972c-.121-.248-.019-.548.229-.669.249-.12.547-.019.669.229l.476.972c.121.248.019.548-.229.669C51.271 20.965 51.196 20.981 51.122 20.981zM40.529 38.015c-.074 0-.149-.017-.22-.051-.248-.122-.35-.421-.229-.669L46 25.216c.122-.249.422-.349.669-.229.248.122.35.421.229.669l-5.919 12.079C40.892 37.912 40.714 38.015 40.529 38.015zM36.479 39.364c-.244 0-.458-.179-.494-.428-.04-.273.149-.527.422-.567l1.991-.291c.276-.03.527.149.567.423.04.273-.149.527-.422.567l-1.991.291C36.527 39.362 36.503 39.364 36.479 39.364zM20.476 41.706c-.244 0-.458-.179-.494-.428-.04-.273.149-.527.422-.567l13.027-1.906c.275-.035.527.149.567.423.04.273-.149.527-.422.567l-13.027 1.906C20.524 41.704 20.5 41.706 20.476 41.706zM21.025 44.974c-.126 0-.253-.048-.351-.144l-2.965-2.914c-.197-.193-.2-.51-.006-.707.192-.198.509-.2.707-.006l2.965 2.914c.197.193.2.51.006.707C21.284 44.924 21.155 44.974 21.025 44.974zM23.47 47.375c-.126 0-.253-.048-.35-.144l-.883-.867c-.197-.193-.2-.51-.007-.707s.51-.2.707-.006l.883.867c.197.193.2.51.007.707C23.729 47.325 23.599 47.375 23.47 47.375zM30.52 76.985c-.03 0-.06-.003-.091-.008-.271-.051-.451-.311-.401-.583L33.51 57.44l-8.563-8.413c-.197-.193-.2-.51-.006-.707.193-.197.509-.2.707-.006l8.752 8.599c.118.116.171.283.141.447l-3.531 19.216C30.966 76.816 30.756 76.985 30.52 76.985zM31.458 79.161c-.182 0-.356-.099-.445-.271-.126-.246-.029-.547.216-.673l11.022-5.66c.246-.128.547-.03.673.216.126.246.029.547-.216.673l-11.022 5.66C31.613 79.144 31.535 79.161 31.458 79.161zM45.413 71.996c-.182 0-.356-.099-.445-.271-.126-.245-.029-.547.216-.673l2.069-1.063c.247-.13.546-.03.673.216.126.245.029.547-.216.673l-2.069 1.063C45.568 71.979 45.49 71.996 45.413 71.996zM70 79.92c-.078 0-.156-.019-.229-.056l-15.575-8.006c-.246-.126-.342-.428-.216-.673.126-.246.427-.344.673-.216l14.673 7.542-1.628-8.928c-.05-.271.13-.532.402-.582.273-.043.532.131.582.402l1.811 9.926c.034.188-.041.378-.194.491C70.21 79.887 70.105 79.92 70 79.92zM67.638 66.974c-.237 0-.447-.169-.491-.41l-.543-2.976c-.05-.271.13-.532.402-.582.275-.043.532.131.582.402l.543 2.976c.05.271-.13.532-.402.582C67.698 66.971 67.668 66.974 67.638 66.974zM66.729 61.986c-.237 0-.447-.169-.491-.41l-.16-.879c-.05-.271.13-.532.402-.582.272-.041.532.131.582.402l.16.879c.05.271-.13.532-.402.582C66.789 61.983 66.758 61.986 66.729 61.986z"/><g><path fill="#1f212b" d="M71.79,85c-0.502,0-0.997-0.12-1.469-0.355L50,74.201L29.667,84.64c-1.12,0.559-2.408,0.438-3.341-0.247c-0.985-0.715-1.47-1.907-1.263-3.107l4.129-22.476l-16.2-15.911c-0.868-0.853-1.172-2.1-0.793-3.255c0.36-1.125,1.364-1.97,2.555-2.144l22.38-3.282l10.014-20.439C47.698,12.679,48.79,12,50.002,12c1.203,0,2.319,0.699,2.844,1.781l10.012,20.437l22.392,3.271c1.191,0.174,2.169,0.998,2.553,2.15c0.002,0.006,0.003,0.011,0.005,0.016c0.365,1.159,0.06,2.401-0.796,3.242L70.812,58.81l4.102,22.467c0.209,1.21-0.276,2.401-1.266,3.12C73.092,84.793,72.452,85,71.79,85z M50,72.077c0.157,0,0.313,0.037,0.457,0.11L71.225,82.86c0.415,0.207,0.884,0.178,1.254-0.087c0.361-0.263,0.542-0.703,0.465-1.146l-4.196-22.979c-0.06-0.326,0.046-0.661,0.283-0.894l16.579-16.283c0.315-0.309,0.426-0.771,0.292-1.206c-0.146-0.428-0.506-0.732-0.942-0.797L62.048,36.12c-0.327-0.048-0.608-0.253-0.753-0.55L51.049,14.657C50.854,14.257,50.444,14,50.002,14c-0.45,0-0.856,0.255-1.061,0.664L38.7,35.57c-0.145,0.297-0.427,0.502-0.753,0.55l-22.902,3.358c-0.441,0.064-0.811,0.371-0.942,0.782c-0.143,0.434-0.03,0.895,0.292,1.21l16.579,16.283c0.237,0.233,0.343,0.568,0.283,0.895l-4.224,22.988c-0.075,0.433,0.106,0.874,0.474,1.142c0.346,0.253,0.822,0.296,1.257,0.077l20.781-10.668C49.687,72.114,49.843,72.077,50,72.077z"/></g><g><path fill="#1f212b" d="M64.41,48.59C64.03,48.21,63.53,48,63,48H52V37c0-0.54-0.2-1.04-0.58-1.42C51.04,35.21,50.54,35,50,35c-1.07,0-2,0.93-2,2v11H37c-1.07,0-2,0.93-2,2c0,0.54,0.21,1.04,0.58,1.42C35.96,51.8,36.46,52,37,52h11v11c0,0.53,0.21,1.03,0.59,1.41S49.47,65,50,65c1.07,0,2-0.93,2-2V52h11c0.53,0,1.03-0.2,1.41-0.58S65,50.54,65,50C65,49.47,64.79,48.97,64.41,48.59z M63,51H51.471c-0.13,0-0.241,0.05-0.331,0.14C51.05,51.23,51,51.356,51,51.486V63c0,0.53-0.46,1-1,1c-0.55,0-1-0.45-1-1l-0.01-11.51c0-0.27-0.239-0.49-0.519-0.49H37c-0.55,0-1-0.45-1-1s0.45-1,1-1l11.49-0.01c0.28,0,0.5-0.22,0.5-0.5L49,37c0-0.55,0.45-1,1-1s1,0.45,1,1v11.514c0,0.28,0.22,0.476,0.49,0.476L63,49c0.55,0,1,0.45,1,1C64,50.54,63.53,51,63,51z"/></g></svg>