<svg xmlns="http://www.w3.org/2000/svg" width="500" height="500" viewBox="0 0 30 30"><path fill="#8bb7f0" d="M15,28C7.832,28,2,22.168,2,15S7.832,2,15,2s13,5.832,13,13S22.168,28,15,28z"/><path fill="#4e7ab5" d="M15,28.5C7.556,28.5,1.5,22.444,1.5,15S7.556,1.5,15,1.5S28.5,7.556,28.5,15S22.444,28.5,15,28.5z M15,2.5C8.107,2.5,2.5,8.107,2.5,15S8.107,27.5,15,27.5S27.5,21.893,27.5,15S21.893,2.5,15,2.5z"/><path fill="#fff" d="M15,25C9.516,25,5,20.484,5,15S9.516,5,15,5s10,4.516,10,10S20.484,25,15,25z"/><path fill="#ffc49c" d="M15,15V5.094c-2.509,0-5.085,0.991-7,2.906L15,15z"/><path fill="#4e7ab5" d="M15,25.5C9.21,25.5,4.5,20.79,4.5,15S9.21,4.5,15,4.5S25.5,9.21,25.5,15S20.79,25.5,15,25.5z M15,5.5c-5.238,0-9.5,4.262-9.5,9.5s4.262,9.5,9.5,9.5s9.5-4.262,9.5-9.5S20.238,5.5,15,5.5z"/><path fill="#8bb7f0" d="M9.5 9.5L15 15"/><path fill="#66798f" d="M15,15.5c-0.128,0-0.256-0.049-0.354-0.146l-5.5-5.5c-0.195-0.195-0.195-0.512,0-0.707 s0.512-0.195,0.707,0l5.5,5.5c0.195,0.195,0.195,0.512,0,0.707C15.256,15.451,15.128,15.5,15,15.5z"/><path fill="#8bb7f0" d="M10.872 18.953L15 14.824"/><path fill="#66798f" d="M10.872,19.453c-0.128,0-0.256-0.049-0.354-0.146c-0.195-0.195-0.195-0.512,0-0.707l4.128-4.129 c0.195-0.195,0.512-0.195,0.707,0s0.195,0.512,0,0.707l-4.128,4.129C11.128,19.404,11,19.453,10.872,19.453z"/><g><path fill="#66798f" d="M15 14A1 1 0 1 0 15 16A1 1 0 1 0 15 14Z"/></g><g><path fill="#bae0bd" d="M23 16.5A6.5 6.5 0 1 0 23 29.5A6.5 6.5 0 1 0 23 16.5Z"/><path fill="#5e9c76" d="M23,17c3.308,0,6,2.692,6,6s-2.692,6-6,6s-6-2.692-6-6S19.692,17,23,17 M23,16 c-3.866,0-7,3.134-7,7s3.134,7,7,7s7-3.134,7-7S26.866,16,23,16L23,16z"/><path fill="#fff" d="M22 19H24V27H22z"/><g><path fill="#fff" d="M19 22H27V24H19z"/></g></g></svg>