<svg xmlns="http://www.w3.org/2000/svg" width="100" height="100" fill="#000" viewBox="0 0 32 32"><path d="M 4 4 L 4 28 L 17 28 L 17 27.855469 C 18.367249 30.320181 20.996209 32 24 32 C 28.4 32 32 28.4 32 24 C 32 21.05638 30.384094 18.477015 28 17.087891 L 28 8 L 15.617188 8 L 13.617188 4 L 4 4 z M 6 6 L 12.382812 6 L 14.382812 10 L 26 10 L 26 16.265625 C 25.35927 16.098874 24.691044 16 24 16 C 19.6 16 16 19.6 16 24 C 16 24.691044 16.098874 25.35927 16.265625 26 L 6 26 L 6 6 z M 24 18 C 27.3 18 30 20.7 30 24 C 30 27.3 27.3 30 24 30 C 20.7 30 18 27.3 18 24 C 18 20.7 20.7 18 24 18 z M 23 20 L 23 23 L 20 23 L 20 25 L 23 25 L 23 28 L 25 28 L 25 25 L 28 25 L 28 23 L 25 23 L 25 20 L 23 20 z"/></svg>