<svg fill="#000000" xmlns="http://www.w3.org/2000/svg" viewBox="0 0 30 30" width="100px" height="100px"><path d="M 4.984375 3.9863281 A 1.0001 1.0001 0 0 0 4 5 L 4 25 A 1.0001 1.0001 0 1 0 6 25 L 6 15 L 6 5 A 1.0001 1.0001 0 0 0 4.984375 3.9863281 z M 6 15 C 6 15.25575 6.0974687 15.511531 6.2929688 15.707031 L 9.2929688 18.707031 C 9.5789687 18.993031 10.007812 19.078828 10.382812 18.923828 C 10.756813 18.769828 11 18.404 11 18 L 11 16 L 19 16 L 19 18 C 19 18.404 19.243188 18.769828 19.617188 18.923828 C 19.741187 18.975828 19.871 19 20 19 C 20.26 19 20.516031 18.898031 20.707031 18.707031 L 23.707031 15.707031 C 23.902531 15.511531 24 15.25575 24 15 C 24 14.74425 23.902531 14.488469 23.707031 14.292969 L 20.707031 11.292969 C 20.421031 11.006969 19.992188 10.921172 19.617188 11.076172 C 19.243187 11.230172 19 11.596 19 12 L 19 14 L 11 14 L 11 12 C 11 11.596 10.756812 11.230172 10.382812 11.076172 C 10.258813 11.024172 10.129 11 10 11 C 9.74 11 9.4839688 11.101969 9.2929688 11.292969 L 6.2929688 14.292969 C 6.0974688 14.488469 6 14.74425 6 15 z M 24 15 L 24 25 A 1.0001 1.0001 0 1 0 26 25 L 26 5 A 1.0001 1.0001 0 0 0 24.984375 3.9863281 A 1.0001 1.0001 0 0 0 24 5 L 24 15 z"/></svg>