<svg xmlns="http://www.w3.org/2000/svg" width="500" height="500" fill="#000" viewBox="0 0 128 128"><path d="M 22 16 C 17.6 16 14 19.6 14 24 L 14 104 C 14 108.4 17.6 112 22 112 L 80 112 C 81.7 112 83 110.7 83 109 C 83 107.3 81.7 106 80 106 L 22 106 C 20.9 106 20 105.1 20 104 L 20 24 C 20 22.9 20.9 22 22 22 L 41 22 C 42.7 22 44 20.7 44 19 C 44 17.3 42.7 16 41 16 L 22 16 z M 54 16 C 52.3 16 51 17.3 51 19 L 51 38 C 51 39.7 52.3 41 54 41 L 70 41 C 71.7 41 73 39.7 73 38 L 73 22 L 102 22 C 103.1 22 104 22.9 104 24 L 104 62 C 104 63.7 105.3 65 107 65 C 108.7 65 110 63.7 110 62 L 110 24 C 110 19.6 106.4 16 102 16 L 54 16 z M 107 72 C 96 72 87 81 87 92 C 87 103 96 112 107 112 C 118 112 127 103 127 92 C 127 81 118 72 107 72 z M 107 82 C 108.7 82 110 83.3 110 85 L 110 89 L 114 89 C 115.7 89 117 90.3 117 92 C 117 93.7 115.7 95 114 95 L 110 95 L 110 99 C 110 100.7 108.7 102 107 102 C 105.3 102 104 100.7 104 99 L 104 95 L 100 95 C 98.3 95 97 93.7 97 92 C 97 90.3 98.3 89 100 89 L 104 89 L 104 85 C 104 83.3 105.3 82 107 82 z"/></svg>