<svg xmlns="http://www.w3.org/2000/svg" width="50" height="50" fill="#000" viewBox="0 0 24 24"><path d="M 12 4 C 9.709 4 7.5608125 5.1379062 6.2578125 7.0039062 C 2.7848125 7.1319063 5.9211895e-16 9.997 0 13.5 C 0 17.084 2.916 20 6.5 20 L 12.080078 20 C 12.033078 19.673 12 19.34 12 19 C 12 18.66 12.033078 18.327 12.080078 18 C 12.566078 14.609 15.475 12 19 12 C 19.948 12 20.844969 12.202922 21.667969 12.544922 C 21.764969 12.584922 21.863031 12.619109 21.957031 12.662109 C 22.233031 12.792109 22.501859 12.937609 22.755859 13.099609 C 23.190859 13.374609 23.593078 13.693641 23.955078 14.056641 C 23.731078 11.300641 21.493078 9.1059062 18.705078 9.0039062 C 17.839078 6.0559062 15.149 4 12 4 z M 19 14 C 16.239 14 14 16.239 14 19 C 14 21.761 16.239 24 19 24 C 21.761 24 24 21.761 24 19 C 24 16.239 21.761 14 19 14 z M 18 16 L 20 16 L 20 18 L 22 18 L 22 20 L 20 20 L 20 22 L 18 22 L 18 20 L 16 20 L 16 18 L 18 18 L 18 16 z"/></svg>