<svg fill="#000000" xmlns="http://www.w3.org/2000/svg" viewBox="0 0 32 32" width="100px" height="100px"><path d="M 8 2 L 8 3 L 8 8 L 10 8 L 10 28 L 18 28 L 18 30 L 24 30 L 24 24 L 18 24 L 18 25 L 18 26 L 12 26 L 12 20 L 18 20 L 18 22 L 24 22 L 24 16 L 18 16 L 18 17 L 18 18 L 12 18 L 12 12 L 16 12 L 16 10 L 12 10 L 12 8 L 14 8 L 14 2 L 8 2 z M 10 4 L 12 4 L 12 6 L 10 6 L 10 4 z M 20 8 L 20 10 L 18 10 L 18 12 L 20 12 L 20 14 L 22 14 L 22 12 L 24 12 L 24 10 L 22 10 L 22 8 L 20 8 z M 20 18 L 22 18 L 22 20 L 20 20 L 20 18 z M 20 26 L 22 26 L 22 28 L 20 28 L 20 26 z"/></svg>