<svg xmlns="http://www.w3.org/2000/svg" width="50" height="50" fill="#000" viewBox="0 0 32 32"><path d="M 4 5 L 4 6 L 4 11 L 5 11 L 5 27 L 16.591797 27 C 17.78536 29.923538 20.66037 32 24 32 C 28.4 32 32 28.4 32 24 C 32 20.66037 29.923538 17.78536 27 16.591797 L 27 11 L 28 11 L 28 5 L 4 5 z M 6 7 L 26 7 L 26 9 L 6 9 L 6 7 z M 7 11 L 25 11 L 25 16.070312 C 24.67143 16.028764 24.339374 16 24 16 C 19.6 16 16 19.6 16 24 C 16 24.339374 16.028764 24.67143 16.070312 25 L 7 25 L 7 11 z M 13 13 A 1.0001 1.0001 0 1 0 13 15 L 19 15 A 1.0001 1.0001 0 1 0 19 13 L 13 13 z M 24 18 C 27.3 18 30 20.7 30 24 C 30 27.3 27.3 30 24 30 C 20.7 30 18 27.3 18 24 C 18 20.7 20.7 18 24 18 z M 23 20 L 23 23 L 20 23 L 20 25 L 23 25 L 23 28 L 25 28 L 25 25 L 28 25 L 28 23 L 25 23 L 25 20 L 23 20 z"/></svg>