<svg xmlns="http://www.w3.org/2000/svg" width="100" height="100" viewBox="0 0 48 48"><path fill="#bf360c" d="M16 15H32V33H16z"/><path fill="#bf360c" d="M16 15H32V33H16z"/><path fill="#4e342e" d="M16 15H32V33H16z"/><path fill="#ff9800" d="M24,37c-2.193,0-5-6-5-6v-6h10v6C29,31,26.192,37,24,37"/><path fill="#ffb74d" d="M33,14c0-7.635-18-4.971-18,0v7c0,4.971,4.028,9,9,9c4.971,0,9-4.029,9-9V14z"/><path fill="#795548" d="M24,4C17.925,4,9,7.404,9,27.286L16,32V19l12-7l4,5v15l7-6c0-4.025-0.674-20-11-20l-1-2H24z"/><path fill="#ffb74d" d="M24,38c-4.42,0-5-7-5-7s2.507,4,5,4s5-4,5-4S28.42,38,24,38"/><path fill="#784719" d="M27 21c0 .551.448 1 1 1s1-.449 1-1-.448-1-1-1S27 20.449 27 21M19 21c0 .551.448 1 1 1s1-.449 1-1-.448-1-1-1S19 20.449 19 21"/><path fill="#ff9800" d="M24,37c-2.193,0-5-6-5-6v-6h10v6C29,31,26.192,37,24,37"/><path fill="#ffb74d" d="M33,14c0-7.635-18-4.971-18,0v7c0,4.971,4.028,9,9,9c4.971,0,9-4.029,9-9V14z"/><path fill="#795548" d="M24,4C17.925,4,9,7.404,9,27.286L16,32V19l12-7l4,5v15l7-6c0-4.025-0.674-20-11-20l-1-2H24z"/><path fill="#ffb74d" d="M24,38c-4.42,0-5-7-5-7s2.507,4,5,4s5-4,5-4S28.42,38,24,38"/><path fill="#784719" d="M27 21c0 .551.448 1 1 1s1-.449 1-1-.448-1-1-1S27 20.449 27 21M19 21c0 .551.448 1 1 1s1-.449 1-1-.448-1-1-1S19 20.449 19 21"/><path fill="#4fc3f7" d="M29,31L29,31c0,0-1,4-5,4s-5-4-5-4S8,32.986,8,44h32C40,33.025,29,31,29,31"/><path fill="#ff9800" d="M24,37c-2.193,0-5-6-5-6v-6h10v6C29,31,26.192,37,24,37"/><path fill="#ffb74d" d="M33,14c0-7.635-18-4.971-18,0v7c0,4.971,4.028,9,9,9c4.971,0,9-4.029,9-9V14z"/><path fill="#795548" d="M24,4C17.925,4,9,7.404,9,27.286L16,32V19l12-7l4,5v15l7-6c0-4.025-0.674-20-11-20l-1-2H24z"/><path fill="#ffb74d" d="M24,38c-4.42,0-5-7-5-7s2.507,4,5,4s5-4,5-4S28.42,38,24,38"/><path fill="#01579b" d="M24,40c4.746,0,6.571-5.115,6.949-8.428C29.793,31.148,29,31,29,31s-0.58,7-5,7c-4.42,0-5-7-5-7s-0.794,0.145-1.95,0.566C17.427,34.878,19.251,40,24,40z"/><path fill="#784719" d="M27,21c0-0.551,0.448-1,1-1s1,0.449,1,1s-0.448,1-1,1S27,21.551,27,21 M19,21c0,0.551,0.448,1,1,1s1-0.449,1-1s-0.448-1-1-1S19,20.449,19,21"/><path fill="#43a047" d="M46,38c0,5.523-4.478,10-10,10c-5.523,0-10-4.477-10-10c0-5.523,4.477-10,10-10C41.522,28,46,32.477,46,38"/><path fill="#fff" d="M34 32H38V44H34z"/><path fill="#fff" d="M30 36H42V40H30z"/></svg>