<svg xmlns="http://www.w3.org/2000/svg" width="300" height="300" viewBox="0 0 40 40"><path fill="#8bb7f0" d="M20,38c-9.924,0-18-8.076-18-18S10.076,2,20,2s18,8.076,18,18S29.924,38,20,38z"/><path fill="#4e7ab5" d="M20,38.5C9.799,38.5,1.5,30.201,1.5,20S9.799,1.5,20,1.5S38.5,9.799,38.5,20S30.201,38.5,20,38.5z M20,2.5C10.351,2.5,2.5,10.351,2.5,20S10.351,37.5,20,37.5S37.5,29.649,37.5,20S29.649,2.5,20,2.5z"/><path fill="#fff" d="M20,35c-8.226,0-15-6.774-15-15S11.774,5,20,5s15,6.774,15,15S28.226,35,20,35z"/><path fill="#ffc49c" d="M20,20V4.855c-3.837,0-7.775,1.515-10.703,4.443L20,20z"/><path fill="#4e7ab5" d="M20,35.5c-8.547,0-15.5-6.953-15.5-15.5S11.453,4.5,20,4.5S35.5,11.453,35.5,20S28.547,35.5,20,35.5 z M20,5.5C12.005,5.5,5.5,12.005,5.5,20S12.005,34.5,20,34.5S34.5,27.995,34.5,20S27.995,5.5,20,5.5z"/><line x1="11" x2="20" y1="11" y2="20" fill="#8bb7f0"/><path fill="#66798f" d="M20,20.5c-0.128,0-0.256-0.049-0.354-0.146l-9-9c-0.195-0.195-0.195-0.512,0-0.707 s0.512-0.195,0.707,0l9,9c0.195,0.195,0.195,0.512,0,0.707C20.256,20.451,20.128,20.5,20,20.5z"/><line x1="14.284" x2="20" y1="25.473" y2="19.757" fill="#8bb7f0"/><path fill="#66798f" d="M14.284,25.973c-0.128,0-0.256-0.049-0.354-0.146c-0.195-0.195-0.195-0.512,0-0.707l5.716-5.716 c0.195-0.195,0.512-0.195,0.707,0s0.195,0.512,0,0.707l-5.716,5.716C14.54,25.924,14.412,25.973,14.284,25.973z"/><circle cx="20" cy="8" r="1" fill="#c5d4de"/><circle cx="20" cy="32" r="1" fill="#c5d4de"/><circle cx="8" cy="20" r="1" fill="#c5d4de"/><circle cx="32" cy="20" r="1" fill="#c5d4de"/><circle cx="20" cy="20" r="2" fill="#66798f"/><g><circle cx="31" cy="31" r="8.5" fill="#bae0bd"/><path fill="#5e9c76" d="M31,23c4.411,0,8,3.589,8,8s-3.589,8-8,8s-8-3.589-8-8S26.589,23,31,23 M31,22 c-4.971,0-9,4.029-9,9s4.029,9,9,9s9-4.029,9-9S35.971,22,31,22L31,22z"/></g><g><rect width="2" height="10" x="30" y="26" fill="#fff"/></g><g><rect width="10" height="2" x="26" y="30" fill="#fff"/></g></svg>