<svg fill="#000000" xmlns="http://www.w3.org/2000/svg" viewBox="0 0 50 50" width="100px" height="100px"><path d="M 25.001953 1 A 1.0001 1.0001 0 0 0 24.066406 1.640625 L 17.898438 17.638672 L 0.94335938 18.601562 A 1.0001 1.0001 0 0 0 0.3671875 20.375 L 13.564453 31.162109 L 9.0351562 47.736328 A 1.0001 1.0001 0 0 0 10.542969 48.839844 L 25 39.490234 L 39.457031 48.839844 A 1.0001 1.0001 0 0 0 40.964844 47.736328 L 36.435547 31.162109 L 49.632812 20.375 A 1.0001 1.0001 0 0 0 49.056641 18.601562 L 32.101562 17.638672 L 25.933594 1.640625 A 1.0001 1.0001 0 0 0 25.001953 1 z M 25 4.78125 L 30.466797 18.958984 A 1.0001 1.0001 0 0 0 31.34375 19.597656 L 46.378906 20.451172 L 34.667969 30.025391 A 1.0001 1.0001 0 0 0 34.335938 31.064453 L 38.345703 45.738281 L 25.542969 37.460938 A 1.0001 1.0001 0 0 0 24.457031 37.460938 L 11.654297 45.738281 L 15.664062 31.064453 A 1.0001 1.0001 0 0 0 15.332031 30.025391 L 3.6210938 20.451172 L 18.65625 19.597656 A 1.0001 1.0001 0 0 0 19.533203 18.958984 L 25 4.78125 z M 24 20 L 24 26 L 18 26 L 18 28 L 24 28 L 24 34 L 26 34 L 26 28 L 32 28 L 32 26 L 26 26 L 26 20 L 24 20 z"/></svg>