<svg xmlns="http://www.w3.org/2000/svg" width="300" height="300" fill="#000" viewBox="0 0 24 24"><path d="M 7 4 C 5.317 4 4 5.318 4 7 C 4 8.682 5.317 10 7 10 C 8.683 10 10 8.682 10 7 C 10 5.318 8.683 4 7 4 z M 17 4 C 15.317 4 14 5.318 14 7 C 14 8.682 15.317 10 17 10 C 18.683 10 20 8.682 20 7 C 20 5.318 18.683 4 17 4 z M 7 12 C 3.468 12 1 13.322797 1 15.216797 L 1 18 L 9 18 L 9 15.216797 C 9 14.141797 9.3899375 13.193297 10.085938 12.404297 C 9.2049375 12.145297 8.161 12 7 12 z M 17 12 C 13.468 12 11 13.322797 11 15.216797 L 11 18 L 17 18 L 17 16.667969 L 17 16 C 17 14.895 17.895 14 19 14 L 22.613281 14 C 22.389281 13.661 22.046906 13.309187 21.503906 12.992188 C 20.423906 12.362187 18.782 12 17 12 z M 19 16 L 19 19 L 16 19 L 16 21 L 19 21 L 19 24 L 21 24 L 21 21 L 24 21 L 24 19 L 21 19 L 21 16 L 19 16 z"/></svg>