<svg xmlns="http://www.w3.org/2000/svg" width="100" height="100" fill="#000" viewBox="0 0 100 100"><path d="M 50.001953 12 C 48.789953 12 47.698437 12.679297 47.148438 13.779297 L 37.134766 34.21875 L 14.753906 37.5 C 13.562906 37.674 12.559219 38.519531 12.199219 39.644531 C 11.820219 40.799531 12.124187 42.045437 12.992188 42.898438 L 29.191406 58.810547 L 25.0625 81.285156 C 24.8555 82.485156 25.341172 83.677578 26.326172 84.392578 C 27.259172 85.077578 28.547969 85.199625 29.667969 84.640625 L 50 74.201172 L 70.320312 84.644531 C 70.792312 84.879531 71.287063 85 71.789062 85 C 72.451062 85 73.092438 84.792484 73.648438 84.396484 C 74.638437 83.677484 75.123063 82.487344 74.914062 81.277344 L 70.8125 58.810547 L 87.011719 42.896484 C 87.867719 42.055484 88.173594 40.813297 87.808594 39.654297 C 87.806594 39.649297 87.804734 39.644672 87.802734 39.638672 C 87.418734 38.486672 86.441 37.662281 85.25 37.488281 L 62.857422 34.21875 L 52.845703 13.78125 C 52.320703 12.69925 51.204953 12 50.001953 12 z M 50.001953 14 C 50.443953 14 50.853828 14.25625 51.048828 14.65625 L 61.294922 35.570312 C 61.439922 35.867312 61.721828 36.071141 62.048828 36.119141 L 84.960938 39.46875 C 85.396938 39.53375 85.756344 39.837625 85.902344 40.265625 C 86.036344 40.700625 85.924375 41.161703 85.609375 41.470703 L 69.03125 57.753906 C 68.79425 57.986906 68.688047 58.322437 68.748047 58.648438 L 72.943359 81.626953 C 73.020359 82.069953 72.839516 82.510437 72.478516 82.773438 C 72.108516 83.038438 71.639609 83.066375 71.224609 82.859375 L 50.457031 72.1875 C 50.313031 72.1145 50.157 72.076172 50 72.076172 C 49.843 72.076172 49.686922 72.1145 49.544922 72.1875 L 28.763672 82.855469 C 28.328672 83.074469 27.853813 83.030344 27.507812 82.777344 C 27.139812 82.509344 26.958203 82.069719 27.033203 81.636719 L 31.257812 58.648438 C 31.317812 58.321437 31.211609 57.986906 30.974609 57.753906 L 14.394531 41.470703 C 14.072531 41.155703 13.960516 40.693766 14.103516 40.259766 C 14.234516 39.848766 14.603922 39.542516 15.044922 39.478516 L 37.947266 36.119141 C 38.273266 36.071141 38.554219 35.867312 38.699219 35.570312 L 48.941406 14.664062 C 49.146406 14.255063 49.551953 14 50.001953 14 z M 50.617188 19.009766 C 50.552328 19.013297 50.488031 19.030547 50.425781 19.060547 C 50.177781 19.181547 50.074312 19.480516 50.195312 19.728516 L 50.671875 20.701172 C 50.758875 20.878172 50.936094 20.980469 51.121094 20.980469 C 51.195094 20.980469 51.271797 20.964688 51.341797 20.929688 C 51.589797 20.808688 51.691313 20.509719 51.570312 20.261719 L 51.09375 19.289062 C 51.00225 19.103063 50.811766 18.999172 50.617188 19.009766 z M 52.042969 21.921875 C 51.978109 21.925531 51.913812 21.942406 51.851562 21.972656 C 51.603563 22.093656 51.500094 22.394578 51.621094 22.642578 L 53.097656 25.65625 C 53.184656 25.83325 53.361875 25.935547 53.546875 25.935547 C 53.620875 25.935547 53.695625 25.918766 53.765625 25.884766 C 54.013625 25.763766 54.115141 25.464797 53.994141 25.216797 L 52.519531 22.201172 C 52.428031 22.014422 52.237547 21.910906 52.042969 21.921875 z M 46.476562 24.9375 C 46.282266 24.926672 46.0915 25.030047 46 25.216797 L 40.080078 37.294922 C 39.959078 37.542922 40.060594 37.842844 40.308594 37.964844 C 40.379594 37.998844 40.455297 38.015625 40.529297 38.015625 C 40.714297 38.015625 40.891516 37.911375 40.978516 37.734375 L 46.898438 25.65625 C 47.019438 25.40825 46.917922 25.108328 46.669922 24.986328 C 46.608172 24.956328 46.541328 24.941109 46.476562 24.9375 z M 54.509766 26.960938 C 54.444906 26.964547 54.380609 26.979766 54.318359 27.009766 C 54.070359 27.131766 53.968844 27.431687 54.089844 27.679688 L 58.464844 36.617188 C 58.551844 36.794187 58.729062 36.896484 58.914062 36.896484 C 58.987063 36.896484 59.063766 36.880703 59.134766 36.845703 C 59.382766 36.723703 59.484281 36.425734 59.363281 36.177734 L 54.986328 27.238281 C 54.894828 27.051531 54.704344 26.950109 54.509766 26.960938 z M 50 35 C 48.93 35 48 35.93 48 37 L 48 48 L 37 48 C 35.93 48 35 48.93 35 50 C 35 50.54 35.210078 51.039922 35.580078 51.419922 C 35.960078 51.799922 36.46 52 37 52 L 48 52 L 48 63 C 48 63.53 48.209844 64.030156 48.589844 64.410156 C 48.969844 64.790156 49.47 65 50 65 C 51.07 65 52 64.07 52 63 L 52 52 L 63 52 C 63.53 52 64.030156 51.799922 64.410156 51.419922 C 64.790156 51.039922 65 50.54 65 50 C 65 49.47 64.790156 48.969844 64.410156 48.589844 C 64.030156 48.209844 63.53 48 63 48 L 52 48 L 52 37 C 52 36.46 51.799922 35.960078 51.419922 35.580078 C 51.039922 35.210078 50.54 35 50 35 z M 50 36 C 50.55 36 51 36.45 51 37 L 51 48.513672 C 51 48.793672 51.220234 48.990234 51.490234 48.990234 L 63 49 C 63.55 49 64 49.45 64 50 C 64 50.54 63.53 51 63 51 L 51.470703 51 C 51.340703 51 51.230625 51.050625 51.140625 51.140625 C 51.050625 51.230625 51 51.356328 51 51.486328 L 51 63 C 51 63.53 50.54 64 50 64 C 49.45 64 49 63.55 49 63 L 48.990234 51.490234 C 48.990234 51.220234 48.750703 51 48.470703 51 L 37 51 C 36.45 51 36 50.55 36 50 C 36 49.45 36.45 49 37 49 L 48.490234 48.990234 C 48.770234 48.990234 48.990234 48.770234 48.990234 48.490234 L 49 37 C 49 36.45 49.45 36 50 36 z M 59.933594 37.835938 C 59.659594 37.800938 59.405234 37.986766 59.365234 38.259766 C 59.325234 38.532766 59.514109 38.786172 59.787109 38.826172 L 73.341797 40.806641 C 73.366797 40.809641 73.390062 40.810547 73.414062 40.810547 C 73.658063 40.810547 73.872203 40.631813 73.908203 40.382812 C 73.948203 40.109812 73.759328 39.856406 73.486328 39.816406 L 59.933594 37.835938 z M 38.398438 38.078125 L 36.40625 38.369141 C 36.13325 38.409141 35.944375 38.662547 35.984375 38.935547 C 36.020375 39.184547 36.234516 39.363281 36.478516 39.363281 C 36.502516 39.363281 36.527734 39.362375 36.552734 39.359375 L 38.542969 39.068359 C 38.815969 39.028359 39.004844 38.774953 38.964844 38.501953 C 38.924844 38.227953 38.674438 38.048125 38.398438 38.078125 z M 33.431641 38.804688 L 20.404297 40.710938 C 20.131297 40.750937 19.942422 41.004344 19.982422 41.277344 C 20.018422 41.526344 20.232563 41.705078 20.476562 41.705078 C 20.500563 41.705078 20.523828 41.704172 20.548828 41.701172 L 33.576172 39.794922 C 33.849172 39.754922 34.038047 39.501516 33.998047 39.228516 C 33.958047 38.954516 33.706641 38.769688 33.431641 38.804688 z M 77.607422 40.419922 C 77.332422 40.384922 77.081016 40.568797 77.041016 40.841797 C 77.001016 41.114797 77.189891 41.368203 77.462891 41.408203 L 81.886719 42.054688 C 81.911719 42.057688 81.936937 42.060547 81.960938 42.060547 C 82.205937 42.060547 82.417125 41.881813 82.453125 41.632812 C 82.493125 41.359813 82.30425 41.104453 82.03125 41.064453 L 77.607422 40.419922 z M 18.054688 41.058594 C 17.926687 41.059594 17.799125 41.109984 17.703125 41.208984 C 17.509125 41.405984 17.511984 41.723016 17.708984 41.916016 L 20.673828 44.830078 C 20.771828 44.926078 20.899391 44.974609 21.025391 44.974609 C 21.155391 44.974609 21.283859 44.924219 21.380859 44.824219 C 21.574859 44.627219 21.572 44.310187 21.375 44.117188 L 18.410156 41.203125 C 18.311156 41.106125 18.182688 41.057594 18.054688 41.058594 z M 22.582031 45.507812 C 22.454031 45.508938 22.326969 45.55775 22.230469 45.65625 C 22.037469 45.85325 22.039328 46.170281 22.236328 46.363281 L 23.119141 47.230469 C 23.216141 47.326469 23.344703 47.375 23.470703 47.375 C 23.599703 47.375 23.728172 47.324609 23.826172 47.224609 C 24.019172 47.027609 24.017312 46.710578 23.820312 46.517578 L 22.9375 45.650391 C 22.839 45.553391 22.710031 45.506687 22.582031 45.507812 z M 25.292969 48.169922 C 25.165094 48.171047 25.037906 48.221812 24.941406 48.320312 C 24.747406 48.517313 24.750266 48.834344 24.947266 49.027344 L 33.509766 57.439453 L 30.027344 76.394531 C 29.977344 76.666531 30.158687 76.925562 30.429688 76.976562 C 30.460688 76.981562 30.489531 76.984375 30.519531 76.984375 C 30.755531 76.984375 30.965766 76.816172 31.009766 76.576172 L 34.541016 57.359375 C 34.571016 57.195375 34.518391 57.028109 34.400391 56.912109 L 25.648438 48.314453 C 25.549437 48.217453 25.420844 48.168797 25.292969 48.169922 z M 66.480469 60.115234 C 66.208469 60.165234 66.028125 60.426266 66.078125 60.697266 L 66.238281 61.576172 C 66.282281 61.817172 66.491516 61.986328 66.728516 61.986328 C 66.757516 61.986328 66.789313 61.983516 66.820312 61.978516 C 67.092313 61.928516 67.272656 61.667484 67.222656 61.396484 L 67.0625 60.517578 C 67.0125 60.246578 66.752469 60.074234 66.480469 60.115234 z M 67.005859 63.005859 C 66.733859 63.055859 66.553516 63.316891 66.603516 63.587891 L 67.146484 66.564453 C 67.190484 66.805453 67.401672 66.974609 67.638672 66.974609 C 67.668672 66.974609 67.697516 66.971797 67.728516 66.966797 C 68.000516 66.916797 68.180859 66.655766 68.130859 66.384766 L 67.587891 63.408203 C 67.537891 63.137203 67.280859 62.962859 67.005859 63.005859 z M 68.099609 69.001953 C 67.827609 69.051953 67.647266 69.311031 67.697266 69.582031 L 69.326172 78.511719 L 54.652344 70.96875 C 54.406344 70.84075 54.106469 70.939547 53.980469 71.185547 C 53.854469 71.430547 53.949312 71.731422 54.195312 71.857422 L 69.771484 79.863281 C 69.844484 79.900281 69.922 79.919922 70 79.919922 C 70.105 79.919922 70.209828 79.887312 70.298828 79.820312 C 70.451828 79.707313 70.526188 79.516125 70.492188 79.328125 L 68.681641 69.402344 C 68.631641 69.131344 68.372609 68.958953 68.099609 69.001953 z M 47.445312 69.933594 C 47.380562 69.938656 47.315656 69.955781 47.253906 69.988281 L 45.183594 71.052734 C 44.938594 71.178734 44.84275 71.479609 44.96875 71.724609 C 45.05775 71.896609 45.230109 71.996094 45.412109 71.996094 C 45.489109 71.996094 45.567625 71.979406 45.640625 71.941406 L 47.710938 70.878906 C 47.955938 70.752906 48.051781 70.450078 47.925781 70.205078 C 47.830531 70.020578 47.639563 69.918406 47.445312 69.933594 z M 42.441406 72.501953 C 42.376625 72.506922 42.313453 72.524641 42.251953 72.556641 L 31.228516 78.216797 C 30.983516 78.342797 30.887672 78.644625 31.013672 78.890625 C 31.102672 79.062625 31.275031 79.160156 31.457031 79.160156 C 31.534031 79.160156 31.612547 79.143469 31.685547 79.105469 L 42.707031 73.445312 C 42.952031 73.319312 43.049828 73.019437 42.923828 72.773438 C 42.829328 72.588937 42.63575 72.487047 42.441406 72.501953 z"/></svg>