<svg xmlns="http://www.w3.org/2000/svg" width="50" height="50" fill="#000" viewBox="0 0 50 50"><path d="M 40 0 C 34.5 0 30 4.5 30 10 C 30 15.5 34.5 20 40 20 C 45.5 20 50 15.5 50 10 C 50 4.5 45.5 0 40 0 z M 40 2 C 44.4 2 48 5.6 48 10 C 48 14.4 44.4 18 40 18 C 35.6 18 32 14.4 32 10 C 32 5.6 35.6 2 40 2 z M 40 4.0996094 C 39.4 4.0996094 39 4.4996094 39 5.0996094 L 39 9 L 35.099609 9 C 34.499609 9 34.099609 9.4 34.099609 10 C 34.099609 10.6 34.499609 11 35.099609 11 L 39 11 L 39 14.900391 C 39 15.500391 39.4 15.900391 40 15.900391 C 40.6 15.900391 41 15.500391 41 14.900391 L 41 11 L 44.900391 11 C 45.500391 11 45.900391 10.6 45.900391 10 C 45.900391 9.4 45.500391 9 44.900391 9 L 41 9 L 41 5.0996094 C 41 4.4996094 40.6 4.0996094 40 4.0996094 z M 9 8 C 8.569 8 8.1877344 8.2745937 8.0527344 8.6835938 L 2.0683594 26.638672 L 2.0527344 26.683594 C 2.0523077 26.684871 2.0531556 26.686222 2.0527344 26.6875 A 1.0001 1.0001 0 0 0 2 27 L 2 42 A 1.0001 1.0001 0 0 0 3 43 L 47 43 A 1.0001 1.0001 0 0 0 48 42 L 48 27 A 1.0001 1.0001 0 0 0 47.947266 26.683594 L 47.943359 26.673828 L 45.873047 20.457031 C 45.292047 20.784031 44.678969 21.059109 44.042969 21.287109 L 45.613281 26 L 32 26 A 1.0001 1.0001 0 0 0 31 27 C 31 30.325562 28.325562 33 25 33 C 21.674438 33 19 30.325562 19 27 A 1.0001 1.0001 0 0 0 18 26 L 4.3886719 26 L 9.7207031 10 L 28 10 C 28 9.317 28.069688 8.652 28.179688 8 L 9 8 z M 4 28 L 17.203125 28 C 17.718014 31.915394 20.947865 35 25 35 C 29.052135 35 32.281986 31.915394 32.796875 28 L 46 28 L 46 41 L 4 41 L 4 28 z"/></svg>