<svg xmlns="http://www.w3.org/2000/svg" width="300" height="300" viewBox="0 0 16 16"><path fill="#ffeea3" d="M8 12.5L3.8 13.8 3.7 9.4 1.2 5.8 5.4 4.4 8 0.8 10.6 4.4 14.8 5.8 12.3 9.4 12.2 13.8z"/><path fill="#ba9b48" d="M8,1.7l2.1,2.9l0.2,0.3l0.3,0.1L14,6L11.9,9l-0.2,0.3l0,0.3l0,3.6L8.3,12L8,12L7.7,12l-3.4,1.1 l0-3.6l0-0.3L4.1,9L2,6l3.4-1.1l0.3-0.1l0.2-0.3L8,1.7 M8,0L5.1,4L0.4,5.5l2.9,4l0.1,4.9L8,13l4.7,1.5l0.1-4.9l2.9-4L10.9,4L8,0 L8,0z"/><path fill="#5e9c76" d="M5.5 7H10.5V9H5.5z"/><path fill="#5e9c76" d="M7 5.5H9V10.5H7z"/></svg>