<svg xmlns="http://www.w3.org/2000/svg" width="50" height="50" fill="#000" viewBox="0 0 80 80"><path d="M 38.726563 9 C 33.886719 9 29.535156 11.648438 26.378906 14.222656 C 23.222656 16.800781 21.210938 19.386719 21.210938 19.386719 L 20.308594 20.542969 L 21.71875 20.957031 C 21.71875 20.957031 22.265625 21.109375 22.921875 21.78125 C 23.574219 22.449219 24.273438 23.589844 24.273438 25.75 C 24.273438 28.550781 24.703125 30.8125 24.917969 31.769531 C 24.359375 32.277344 24 32.996094 24 33.800781 C 24 34.449219 24.195313 35.003906 24.355469 35.546875 C 24.433594 35.820313 24.511719 36.074219 24.5625 36.265625 C 24.613281 36.457031 24.625 36.644531 24.625 36.5 C 24.625 37.859375 25.765625 38.921875 27.109375 38.96875 C 27.292969 42.84375 29.160156 46.265625 32 48.519531 L 32 52.25 C 30.558594 52.6875 27.097656 53.804688 23.574219 55.46875 C 21.273438 56.554688 18.960938 57.863281 17.160156 59.414063 C 15.359375 60.964844 14 62.820313 14 65 L 14 71 L 49.636719 71 C 52.238281 76.320313 57.6875 80 64 80 C 72.824219 80 80 72.824219 80 64 C 80 55.175781 72.824219 48 64 48 C 59.15625 48 54.820313 50.171875 51.882813 53.582031 C 50.039063 52.894531 48.683594 52.460938 48 52.261719 L 48 48.523438 C 50.839844 46.269531 52.707031 42.847656 52.890625 38.96875 C 54.234375 38.921875 55.375 37.859375 55.375 36.5 C 55.375 36.644531 55.386719 36.457031 55.4375 36.265625 C 55.488281 36.074219 55.566406 35.820313 55.644531 35.546875 C 55.804688 35.003906 56 34.449219 56 33.800781 C 56 32.980469 55.628906 32.257813 55.058594 31.746094 C 55.242188 30.691406 56 26.175781 56 23 C 56 19.40625 54.65625 16.832031 52.84375 15.234375 C 51.214844 13.804688 49.300781 13.230469 47.605469 13.109375 C 47.332031 12.675781 46.847656 11.996094 45.84375 11.210938 C 44.402344 10.089844 42.089844 9 38.726563 9 Z M 38.726563 11 C 41.664063 11 43.488281 11.910156 44.609375 12.789063 C 45.734375 13.667969 46.105469 14.441406 46.105469 14.441406 L 46.378906 15 L 47 15 C 48.332031 15 50.125 15.507813 51.519531 16.738281 C 52.917969 17.96875 54 19.890625 54 23 C 54 25.789063 53.335938 29.859375 53.140625 31 C 53.136719 31 53.132813 31 53.125 31 C 53.039063 31 53.054688 31.019531 53 31.027344 L 53 28 C 53 24.578125 51.601563 22.277344 50.195313 20.914063 C 48.789063 19.550781 47.316406 19.050781 47.316406 19.050781 L 46.746094 18.859375 L 46.308594 19.277344 C 46.308594 19.277344 45.679688 19.894531 44.160156 20.589844 C 42.640625 21.285156 40.289063 22 37 22 C 35.199219 22 32.828125 22.636719 30.769531 24.074219 C 28.71875 25.507813 27.011719 27.851563 27.003906 31.03125 C 26.949219 31.023438 26.960938 31 26.875 31 C 26.851563 31 26.828125 31.007813 26.804688 31.007813 C 26.601563 30.042969 26.273438 28.160156 26.273438 25.75 C 26.273438 23.132813 25.335938 21.394531 24.355469 20.386719 C 23.9375 19.957031 23.84375 20.03125 23.480469 19.816406 C 24.171875 19.003906 25.457031 17.5625 27.644531 15.777344 C 30.617188 13.351563 34.632813 11 38.726563 11 Z M 47 21.15625 C 47.242188 21.25 47.875 21.449219 48.804688 22.347656 C 49.898438 23.410156 51 25.105469 51 28 L 51 34.304688 L 52.503906 33.421875 C 52.761719 33.273438 53 33.140625 53.167969 33.054688 C 53.1875 33.042969 53.195313 33.042969 53.214844 33.03125 C 53.671875 33.078125 54 33.398438 54 33.796875 L 54 33.800781 C 54 33.875 53.878906 34.460938 53.726563 34.984375 C 53.648438 35.242188 53.570313 35.503906 53.503906 35.742188 C 53.441406 35.980469 53.375 36.148438 53.375 36.5 C 53.375 36.765625 53.15625 37 52.8125 37 L 51 37 L 51 38.367188 C 51 43.789063 47.089844 48.269531 41.941406 49.1875 L 41.65625 49.234375 L 41.441406 49.433594 C 41.050781 49.789063 40.558594 50 40 50 C 39.441406 50 38.949219 49.789063 38.558594 49.433594 L 38.34375 49.234375 L 38.058594 49.1875 C 32.910156 48.269531 29 43.789063 29 38.367188 L 29 37 L 27.1875 37 C 26.84375 37 26.625 36.765625 26.625 36.5 C 26.625 36.148438 26.558594 35.980469 26.492188 35.742188 C 26.425781 35.503906 26.347656 35.242188 26.269531 34.984375 C 26.117188 34.460938 26 33.875 26 33.800781 C 26 33.398438 26.328125 33.078125 26.785156 33.03125 C 26.804688 33.042969 26.8125 33.042969 26.832031 33.054688 C 27 33.140625 27.238281 33.273438 27.496094 33.421875 L 29 34.304688 L 29 31.050781 C 29 28.558594 30.242188 26.882813 31.914063 25.714844 C 33.585938 24.546875 35.710938 24 37 24 C 40.582031 24 43.230469 23.214844 44.992188 22.410156 C 46.300781 21.8125 46.644531 21.445313 47 21.15625 Z M 34.5 33 C 33.671875 33 33 33.671875 33 34.5 C 33 35.328125 33.671875 36 34.5 36 C 35.328125 36 36 35.328125 36 34.5 C 36 33.671875 35.328125 33 34.5 33 Z M 45.5 33 C 44.671875 33 44 33.671875 44 34.5 C 44 35.328125 44.671875 36 45.5 36 C 46.328125 36 47 35.328125 47 34.5 C 47 33.671875 46.328125 33 45.5 33 Z M 34 49.824219 C 35.066406 50.382813 36.21875 50.8125 37.441406 51.058594 C 38.148438 51.621094 39.023438 52 40 52 C 40.972656 52 41.84375 51.621094 42.546875 51.0625 C 43.773438 50.820313 44.929688 50.390625 46 49.828125 L 46 55.6875 C 45.878906 55.929688 44.296875 59 40 59 C 35.703125 59 34.121094 55.929688 34 55.6875 Z M 64 50 C 71.742188 50 78 56.257813 78 64 C 78 71.742188 71.742188 78 64 78 C 56.257813 78 50 71.742188 50 64 C 50 56.257813 56.257813 50 64 50 Z M 48 54.347656 C 48.667969 54.558594 49.585938 54.871094 50.625 55.246094 C 48.96875 57.765625 48 60.769531 48 64 C 48 64.339844 48.03125 64.667969 48.050781 65 C 48.035156 65 48.015625 65 48 65 C 47.449219 65 47 65.449219 47 66 C 47 66.550781 47.449219 67 48 67 C 48.097656 67 48.191406 66.984375 48.285156 66.957031 C 48.417969 67.65625 48.589844 68.335938 48.8125 69 L 16 69 L 16 65 C 16 63.679688 16.890625 62.285156 18.464844 60.929688 C 20.039063 59.574219 22.226563 58.320313 24.425781 57.28125 C 27.453125 55.851563 30.394531 54.859375 32 54.355469 L 32 56.234375 L 32.105469 56.449219 C 32.105469 56.449219 34.464844 61 40 61 C 45.535156 61 47.894531 56.449219 47.894531 56.449219 L 48 56.234375 Z M 63 57 L 63 63 L 57 63 L 57 65 L 63 65 L 63 71 L 65 71 L 65 65 L 71 65 L 71 63 L 65 63 L 65 57 Z M 20 65 C 19.449219 65 19 65.449219 19 66 C 19 66.550781 19.449219 67 20 67 C 20.550781 67 21 66.550781 21 66 C 21 65.449219 20.550781 65 20 65 Z M 24 65 C 23.449219 65 23 65.449219 23 66 C 23 66.550781 23.449219 67 24 67 C 24.550781 67 25 66.550781 25 66 C 25 65.449219 24.550781 65 24 65 Z M 28 65 C 27.449219 65 27 65.449219 27 66 C 27 66.550781 27.449219 67 28 67 C 28.550781 67 29 66.550781 29 66 C 29 65.449219 28.550781 65 28 65 Z M 32 65 C 31.449219 65 31 65.449219 31 66 C 31 66.550781 31.449219 67 32 67 C 32.550781 67 33 66.550781 33 66 C 33 65.449219 32.550781 65 32 65 Z M 36 65 C 35.449219 65 35 65.449219 35 66 C 35 66.550781 35.449219 67 36 67 C 36.550781 67 37 66.550781 37 66 C 37 65.449219 36.550781 65 36 65 Z M 40 65 C 39.449219 65 39 65.449219 39 66 C 39 66.550781 39.449219 67 40 67 C 40.550781 67 41 66.550781 41 66 C 41 65.449219 40.550781 65 40 65 Z M 44 65 C 43.449219 65 43 65.449219 43 66 C 43 66.550781 43.449219 67 44 67 C 44.550781 67 45 66.550781 45 66 C 45 65.449219 44.550781 65 44 65 Z"/></svg>