<svg xmlns="http://www.w3.org/2000/svg" width="500" height="500" viewBox="0 0 40 40"><path fill="#ffeea3" d="M20 32.004L8.3 38.112 10.493 25.097 1.068 15.857 14.124 13.922 20 2.102 25.876 13.922 38.932 15.857 29.507 25.097 31.7 38.112z"/><path fill="#ba9b48" d="M20,3.225l5.311,10.685l0.232,0.468l0.516,0.077l11.803,1.749l-8.521,8.353l-0.373,0.365 l0.087,0.515l1.984,11.766l-10.577-5.522L20,31.44l-0.463,0.242L8.96,37.204l1.984-11.766l0.087-0.515l-0.373-0.365l-8.521-8.353 l11.803-1.749l0.516-0.077l0.232-0.468L20,3.225 M20,0.979l-6.207,12.486L0,15.51l9.957,9.761l-2.318,13.75L20,32.568l12.361,6.453 l-2.318-13.75L40,15.51l-13.793-2.044L20,0.979L20,0.979z"/><path fill="none" stroke="#5e9c76" stroke-miterlimit="10" stroke-width="2" d="M14 22L26 22M20 16L20 28"/></svg>