<svg xmlns="http://www.w3.org/2000/svg" width="300" height="300" fill="#000" viewBox="0 0 30 30"><path d="M 14.984375 0.98632812 A 1.0001 1.0001 0 0 0 14 2 L 14 6 L 11 6 L 14.193359 9.5898438 A 1 1 0 0 0 15 10 A 1 1 0 0 0 15.806641 9.5898438 A 1 1 0 0 0 15.808594 9.5878906 L 19 6 L 16 6 L 16 2 A 1.0001 1.0001 0 0 0 14.984375 0.98632812 z M 5.0234375 0.99609375 A 1.0001 1.0001 0 0 0 4.6835938 2.9492188 L 7.6835938 3.9492188 A 1.0005644 1.0005644 0 1 0 8.3164062 2.0507812 L 5.3164062 1.0507812 A 1.0001 1.0001 0 0 0 5.0234375 0.99609375 z M 25.046875 0.99609375 A 1.0001 1.0001 0 0 0 24.683594 1.0507812 L 21.683594 2.0507812 A 1.0005644 1.0005644 0 1 0 22.316406 3.9492188 L 25.316406 2.9492188 A 1.0001 1.0001 0 0 0 25.046875 0.99609375 z M 3 6 A 1.0001 1.0001 0 1 0 3 8 L 6 8 A 1.0001 1.0001 0 1 0 6 6 L 3 6 z M 24 6 A 1.0001 1.0001 0 1 0 24 8 L 27 8 A 1.0001 1.0001 0 1 0 27 6 L 24 6 z M 3 12 C 2.448 12 2 12.448 2 13 L 2 15 C 2 15.552 2.448 16 3 16 L 3.3339844 16 L 4.7207031 24.328125 C 4.8817031 25.292125 5.7163594 26 6.6933594 26 L 23.304688 26 C 24.282688 26 25.116344 25.292125 25.277344 24.328125 L 26.666016 16 L 27 16 C 27.552 16 28 15.552 28 15 L 28 13 C 28 12.448 27.552 12 27 12 L 3 12 z M 10 16 C 10.552 16 11 16.448 11 17 L 11 22 C 11 22.552 10.552 23 10 23 C 9.448 23 9 22.552 9 22 L 9 17 C 9 16.448 9.448 16 10 16 z M 15 16 C 15.552 16 16 16.448 16 17 L 16 22 C 16 22.552 15.552 23 15 23 C 14.448 23 14 22.552 14 22 L 14 17 C 14 16.448 14.448 16 15 16 z M 20 16 C 20.552 16 21 16.448 21 17 L 21 22 C 21 22.552 20.552 23 20 23 C 19.448 23 19 22.552 19 22 L 19 17 C 19 16.448 19.448 16 20 16 z"/></svg>