<svg xmlns="http://www.w3.org/2000/svg" viewBox="0 0 100 100" width="100px" height="100px"><path fill="#c7ede6" d="M88.544,56.005c0.3-0.616,0.566-1.264,0.796-1.943c2.633-7.77-1.349-17.078-9.733-19.325C78.7,23.354,70.7,15.545,61.666,14.212C51.325,12.687,41.851,19.257,38.7,29.698c-3.799-1.346-7.501-1.182-10.99,0.857c-1.583,0.732-3.031,1.812-4.33,3.233c-1.907,2.086-3.147,4.719-3.652,7.495c-0.748,0.118-1.483,0.236-2.176,0.484c-4.04,1.449-6.589,4.431-7.288,8.923c-0.435,2.797,0.443,5.587,0.933,6.714c1.935,4.455,6.422,6.98,10.981,6.312c0.227-0.033,0.557,0.069,0.752,0.233c0.241,7.12,3.698,13.417,8.884,17.014c8.321,5.772,19.027,3.994,25.781-3.921c2.894,2.96,6.338,4.398,10.384,3.876c4.023-0.519,7.147-2.739,9.426-6.349c1.053,0.283,2.051,0.691,3.083,0.804c4.042,0.442,7.324-1.165,9.732-4.8c0.922-1.391,1.794-3.194,1.794-6.354C92.014,60.962,90.721,57.995,88.544,56.005z"/><path fill="#fdfcef" d="M69.808,49.175c0,0,11.691,0,11.762,0c2.7,0,4.888-2.189,4.888-4.889c0-2.355-1.666-4.321-3.884-4.784c0.026-0.206,0.043-0.415,0.043-0.628c0-2.796-2.267-5.063-5.063-5.063c-1.651,0-3.113,0.794-4.037,2.017c-0.236-3.113-3.017-5.514-6.27-5.116c-2.379,0.291-4.346,2.13-4.784,4.486c-0.14,0.756-0.126,1.489,0.014,2.177c-0.638-0.687-1.546-1.119-2.557-1.119c-1.85,0-3.361,1.441-3.48,3.261c-0.84-0.186-1.754-0.174-2.717,0.188c-1.84,0.691-3.15,2.423-3.227,4.387c-0.109,2.789,2.12,5.085,4.885,5.085c0.21,0,0.948,0,1.118,0h10.151"/><path fill="#472b29" d="M81.57,49.675H69.808c-0.276,0-0.5-0.224-0.5-0.5s0.224-0.5,0.5-0.5H81.57c2.42,0,4.389-1.969,4.389-4.389c0-2.067-1.466-3.873-3.486-4.295c-0.255-0.053-0.426-0.293-0.394-0.552c0.023-0.186,0.04-0.373,0.04-0.565c0-2.516-2.047-4.563-4.563-4.563c-1.439,0-2.765,0.663-3.638,1.818c-0.125,0.167-0.338,0.24-0.54,0.178c-0.199-0.059-0.342-0.234-0.357-0.441c-0.104-1.377-0.779-2.671-1.85-3.549c-1.083-0.887-2.452-1.281-3.86-1.109c-2.166,0.265-3.956,1.943-4.353,4.081c-0.124,0.667-0.12,1.335,0.013,1.986c0.044,0.22-0.062,0.442-0.262,0.544c-0.199,0.102-0.442,0.06-0.595-0.104c-0.574-0.619-1.352-0.959-2.19-0.959c-1.569,0-2.878,1.227-2.981,2.793c-0.01,0.146-0.082,0.28-0.199,0.367c-0.117,0.087-0.268,0.119-0.408,0.088c-0.841-0.187-1.638-0.132-2.433,0.167c-1.669,0.626-2.835,2.209-2.903,3.938c-0.047,1.207,0.387,2.35,1.222,3.218c0.835,0.868,1.958,1.347,3.163,1.347h11.269c0.276,0,0.5,0.224,0.5,0.5s-0.224,0.5-0.5,0.5H55.382c-1.479,0-2.858-0.587-3.884-1.654c-1.025-1.066-1.558-2.469-1.5-3.95c0.083-2.126,1.51-4.069,3.55-4.836c0.801-0.3,1.628-0.401,2.468-0.298c0.377-1.823,1.998-3.182,3.905-3.182c0.685,0,1.354,0.179,1.944,0.51c0-0.385,0.035-0.772,0.106-1.159c0.477-2.562,2.621-4.573,5.215-4.891c1.679-0.207,3.32,0.266,4.615,1.328c1.004,0.823,1.716,1.951,2.038,3.193c1.012-0.916,2.319-1.425,3.714-1.425c3.067,0,5.563,2.496,5.563,5.563c0,0.083-0.002,0.166-0.007,0.249c2.254,0.673,3.848,2.777,3.848,5.164C86.958,47.257,84.541,49.675,81.57,49.675z"/><path fill="#fdfcef" d="M69.975,38.406c-1.808-0.119-3.365,1.13-3.476,2.789c-0.014,0.206-0.005,0.409,0.025,0.606c-0.349-0.394-0.865-0.661-1.458-0.7c-1.085-0.071-2.022,0.645-2.158,1.62c-0.197-0.054-0.403-0.09-0.616-0.104c-1.582-0.104-2.944,0.989-3.042,2.441"/><path fill="#472b29" d="M59.25,45.307c-0.006,0-0.012,0-0.017,0c-0.138-0.009-0.242-0.128-0.233-0.266c0.106-1.587,1.587-2.793,3.308-2.674c0.136,0.009,0.272,0.027,0.409,0.053c0.273-0.968,1.259-1.637,2.366-1.568c0.425,0.028,0.824,0.161,1.164,0.382c0-0.019,0.002-0.037,0.003-0.055c0.121-1.794,1.793-3.136,3.742-3.022c0.138,0.009,0.242,0.128,0.233,0.266c-0.009,0.137-0.117,0.24-0.266,0.233c-1.663-0.11-3.108,1.038-3.21,2.557c-0.012,0.184-0.004,0.37,0.023,0.552c0.017,0.109-0.041,0.217-0.141,0.264c-0.1,0.046-0.219,0.022-0.293-0.061c-0.317-0.358-0.787-0.583-1.288-0.616c-0.934-0.066-1.775,0.554-1.894,1.405c-0.01,0.071-0.05,0.134-0.11,0.174s-0.133,0.052-0.204,0.033c-0.188-0.051-0.379-0.084-0.567-0.096c-1.43-0.093-2.688,0.896-2.776,2.208C59.491,45.206,59.381,45.307,59.25,45.307z"/><path fill="#fdfcef" d="M83.549,40.075c-1.699-0.801-3.664-0.234-4.389,1.267c-0.09,0.186-0.157,0.379-0.201,0.574"/><path fill="#472b29" d="M78.959,42.165c-0.018,0-0.037-0.002-0.056-0.006c-0.135-0.031-0.219-0.165-0.188-0.299c0.049-0.216,0.123-0.427,0.22-0.626c0.783-1.622,2.901-2.244,4.72-1.384c0.125,0.059,0.179,0.208,0.12,0.333c-0.059,0.126-0.209,0.178-0.333,0.12c-1.575-0.743-3.393-0.226-4.057,1.149c-0.08,0.166-0.142,0.34-0.183,0.52C79.177,42.086,79.074,42.165,78.959,42.165z"/><path fill="#fff" d="M18.208 48.041H8.178c-.276 0-.5-.224-.5-.5s.224-.5.5-.5h10.03c.276 0 .5.224.5.5S18.485 48.041 18.208 48.041zM21.09 48.041h-1.446c-.276 0-.5-.224-.5-.5s.224-.5.5-.5h1.446c.276 0 .5.224.5.5S21.366 48.041 21.09 48.041zM25.145 48.041h-2.546c-.276 0-.5-.224-.5-.5s.224-.5.5-.5h2.546c.276 0 .5.224.5.5S25.421 48.041 25.145 48.041zM25.145 49.906h-9.617c-.276 0-.5-.224-.5-.5s.224-.5.5-.5h9.617c.276 0 .5.224.5.5S25.421 49.906 25.145 49.906zM13.796 49.906h-.58c-.276 0-.5-.224-.5-.5s.224-.5.5-.5h.58c.276 0 .5.224.5.5S14.073 49.906 13.796 49.906zM11.42 49.906H9.963c-.276 0-.5-.224-.5-.5s.224-.5.5-.5h1.457c.276 0 .5.224.5.5S11.696 49.906 11.42 49.906zM20.556 46.176h-5.028c-.276 0-.5-.224-.5-.5s.224-.5.5-.5h5.028c.276 0 .5.224.5.5S20.832 46.176 20.556 46.176zM20.556 44.312h-1.257c-.276 0-.5-.224-.5-.5s.224-.5.5-.5h1.257c.276 0 .5.224.5.5S20.832 44.312 20.556 44.312zM17.287 51.771h-1.759c-.276 0-.5-.224-.5-.5s.224-.5.5-.5h1.759c.276 0 .5.224.5.5S17.563 51.771 17.287 51.771zM71.387 21.764H61.356c-.276 0-.5-.224-.5-.5s.224-.5.5-.5h10.031c.276 0 .5.224.5.5S71.663 21.764 71.387 21.764zM74.268 21.764h-1.446c-.276 0-.5-.224-.5-.5s.224-.5.5-.5h1.446c.276 0 .5.224.5.5S74.544 21.764 74.268 21.764zM78.322 21.764h-2.546c-.276 0-.5-.224-.5-.5s.224-.5.5-.5h2.546c.276 0 .5.224.5.5S78.599 21.764 78.322 21.764z"/><g><path fill="#fff" d="M76.296 18.035H66.68c-.276 0-.5-.224-.5-.5s.224-.5.5-.5h9.616c.276 0 .5.224.5.5S76.573 18.035 76.296 18.035zM64.949 18.035h-.58c-.276 0-.5-.224-.5-.5s.224-.5.5-.5h.58c.276 0 .5.224.5.5S65.225 18.035 64.949 18.035zM62.572 18.035h-1.456c-.276 0-.5-.224-.5-.5s.224-.5.5-.5h1.456c.276 0 .5.224.5.5S62.848 18.035 62.572 18.035z"/></g><path fill="#fff" d="M73.733 19.899h-5.027c-.276 0-.5-.224-.5-.5s.224-.5.5-.5h5.027c.276 0 .5.224.5.5S74.01 19.899 73.733 19.899zM73.733 18.035h-1.257c-.276 0-.5-.224-.5-.5s.224-.5.5-.5h1.257c.276 0 .5.224.5.5S74.01 18.035 73.733 18.035zM67.25 19.899h-1.758c-.276 0-.5-.224-.5-.5s.224-.5.5-.5h1.758c.276 0 .5.224.5.5S67.527 19.899 67.25 19.899z"/><g><path fill="#8a8ac0" d="M66.995,38.736L66.995,38.736H39.349h-3.005v2.897l3.005,2.897l0,21.033c0,4.044,3.182,6.194,7.071,6.194h13.383c3.955,0,7.191-2.15,7.191-6.194V44.481L70,41.632v-2.897H66.995z"/><path fill="#472b29" d="M59.804,72.457H46.42c-4.648,0-7.771-2.771-7.771-6.895l0-20.736l-2.791-2.69c-0.137-0.132-0.214-0.314-0.214-0.504v-2.896c0-0.387,0.313-0.7,0.7-0.7H70c0.387,0,0.7,0.313,0.7,0.7v2.896c0,0.192-0.079,0.376-0.219,0.508l-2.786,2.641v20.781C67.695,69.686,64.524,72.457,59.804,72.457z M37.044,41.335l2.791,2.69c0.137,0.132,0.214,0.314,0.214,0.504l0,21.033c0,4.055,3.432,5.494,6.371,5.494h13.384c2.994,0,6.491-1.439,6.491-5.494V44.48c0-0.192,0.079-0.376,0.219-0.508l2.786-2.641v-1.896H37.044V41.335z"/><path fill="#6869ad" d="M42.655,56.405l0-11.345c0-0.797,0.676-1.448,1.502-1.448h0c0.826,0,1.502,0.652,1.502,1.448v10.862v8.835c0,0.797-0.676,1.448-1.502,1.448h0c-0.826,0-1.502-0.652-1.502-1.448l0-1.979"/><path fill="#472b29" d="M44.157,66.58c-1.035,0-1.877-0.818-1.877-1.823v-1.979c0-0.207,0.168-0.375,0.375-0.375s0.375,0.168,0.375,0.375v1.979c0,0.592,0.506,1.073,1.127,1.073s1.127-0.481,1.127-1.073V45.06c0-0.591-0.506-1.073-1.127-1.073s-1.127,0.481-1.127,1.073v11.345c0,0.207-0.168,0.375-0.375,0.375s-0.375-0.168-0.375-0.375V45.06c0-1.005,0.842-1.823,1.877-1.823s1.877,0.818,1.877,1.823v19.697C46.035,65.762,45.192,66.58,44.157,66.58z"/><path fill="#472b29" d="M42.655,59.676c-0.207,0-0.375-0.168-0.375-0.375v-1.738c0-0.207,0.168-0.375,0.375-0.375s0.375,0.168,0.375,0.375v1.738C43.03,59.508,42.862,59.676,42.655,59.676z"/><path fill="#6869ad" d="M50.242,66.253h-0.149c-0.786,0-1.428-0.643-1.428-1.428V45.088c0-0.786,0.643-1.428,1.428-1.428h0.149c0.786,0,1.428,0.643,1.428,1.428v19.737C51.67,65.61,51.027,66.253,50.242,66.253z"/><path fill="#472b29" d="M50.242,66.628h-0.149c-0.994,0-1.803-0.809-1.803-1.803V45.088c0-0.994,0.809-1.803,1.803-1.803h0.149c0.994,0,1.803,0.809,1.803,1.803v19.737C52.045,65.819,51.236,66.628,50.242,66.628z M50.093,44.035c-0.581,0-1.053,0.473-1.053,1.053v19.737c0,0.581,0.473,1.053,1.053,1.053h0.149c0.581,0,1.053-0.473,1.053-1.053V45.088c0-0.581-0.473-1.053-1.053-1.053H50.093z"/><path fill="#6869ad" d="M56.251,66.253h-0.149c-0.786,0-1.428-0.643-1.428-1.428V45.088c0-0.786,0.643-1.428,1.428-1.428h0.149c0.786,0,1.428,0.643,1.428,1.428v19.737C57.68,65.61,57.037,66.253,56.251,66.253z"/><path fill="#472b29" d="M56.251,66.628h-0.148c-0.994,0-1.803-0.809-1.803-1.803V45.088c0-0.994,0.809-1.803,1.803-1.803h0.148c0.994,0,1.803,0.809,1.803,1.803v19.737C58.055,65.819,57.246,66.628,56.251,66.628z M56.103,44.035c-0.581,0-1.053,0.473-1.053,1.053v19.737c0,0.581,0.473,1.053,1.053,1.053h0.148c0.581,0,1.053-0.473,1.053-1.053V45.088c0-0.581-0.473-1.053-1.053-1.053H56.103z"/><path fill="#6869ad" d="M62.261,66.253h-0.149c-0.786,0-1.428-0.643-1.428-1.428V45.088c0-0.786,0.643-1.428,1.428-1.428h0.149c0.786,0,1.428,0.643,1.428,1.428v19.737C63.69,65.61,63.047,66.253,62.261,66.253z"/><path fill="#472b29" d="M62.261,66.628h-0.148c-0.994,0-1.803-0.809-1.803-1.803V45.088c0-0.994,0.809-1.803,1.803-1.803h0.148c0.994,0,1.803,0.809,1.803,1.803v19.737C64.064,65.819,63.255,66.628,62.261,66.628z M62.113,44.035c-0.581,0-1.053,0.473-1.053,1.053v19.737c0,0.581,0.473,1.053,1.053,1.053h0.148c0.581,0,1.053-0.473,1.053-1.053V45.088c0-0.581-0.473-1.053-1.053-1.053H62.113z"/><g><path fill="#a2a2cc" d="M70,38.736v-0.138c0-4.063-1.727-6.235-6.775-6.235H43.119c-5.048,0-6.775,2.172-6.775,6.235v0.138H70z"/><path fill="#472b29" d="M70,39.436H36.344c-0.387,0-0.7-0.313-0.7-0.7v-0.138c0-4.731,2.375-6.935,7.475-6.935h20.106c5.1,0,7.475,2.204,7.475,6.935v0.138C70.7,39.123,70.387,39.436,70,39.436z M37.056,38.036h32.232c-0.16-3.567-1.903-4.972-6.063-4.972H43.119C38.959,33.063,37.216,34.468,37.056,38.036z"/></g><path fill="#472b29" d="M69.7 41.013H36.645c-.138 0-.25-.112-.25-.25s.112-.25.25-.25H69.7c.138 0 .25.112.25.25S69.838 41.013 69.7 41.013zM66.094 69.524H40.852c-.207 0-.375-.168-.375-.375s.168-.375.375-.375h25.242c.207 0 .375.168.375.375S66.301 69.524 66.094 69.524zM59.182 33.063h-12.02c-.387 0-.7-.313-.7-.7V30.83c0-1.776 1.432-3.222 3.192-3.222h7.036c1.76 0 3.192 1.446 3.192 3.222v1.533C59.882 32.75 59.569 33.063 59.182 33.063zM47.862 31.663h10.62V30.83c0-1.005-.804-1.822-1.792-1.822h-7.036c-.988 0-1.792.817-1.792 1.822V31.663zM59.25 36.958h-1.875c-.138 0-.25-.112-.25-.25s.112-.25.25-.25h1.875c.138 0 .25.112.25.25S59.388 36.958 59.25 36.958zM55.42 36.958H36.645c-.138 0-.25-.112-.25-.25s.112-.25.25-.25H55.42c.138 0 .25.112.25.25S55.559 36.958 55.42 36.958zM66.995 55.608c-.387 0-.7-.313-.7-.7v-8.11c0-.387.313-.7.7-.7 1.711 0 3.104 1.354 3.104 3.017v3.476C70.099 54.254 68.707 55.608 66.995 55.608zM67.695 47.641v6.425c.591-.254 1.003-.819 1.003-1.475v-3.476C68.699 48.46 68.287 47.895 67.695 47.641zM39.349 55.608c-1.711 0-3.104-1.354-3.104-3.018v-3.476c0-1.664 1.393-3.017 3.104-3.017.387 0 .7.313.7.7v8.11C40.049 55.295 39.736 55.608 39.349 55.608zM38.649 47.641c-.591.254-1.003.819-1.003 1.474v3.476c0 .655.412 1.221 1.003 1.475V47.641zM61.188 36.958h-.55c-.138 0-.25-.112-.25-.25s.112-.25.25-.25h.55c.138 0 .25.112.25.25S61.326 36.958 61.188 36.958z"/></g><g><path fill="#fdfcef" d="M43.038,73.321c1.883,0,3.517,0,3.54,0c2.11,0,3.821-1.674,3.821-3.739c0-1.802-1.302-3.305-3.035-3.66c0.02-0.158,0.034-0.317,0.034-0.48c0-2.139-1.772-3.873-3.957-3.873c-1.29,0-2.433,0.607-3.155,1.543c-0.185-2.381-2.358-4.218-4.9-3.913c-1.859,0.223-3.397,1.629-3.739,3.431c-0.11,0.578-0.098,1.139,0.011,1.665c-0.498-0.525-1.208-0.856-1.998-0.856c-1.446,0-2.627,1.102-2.72,2.494c-0.657-0.142-1.371-0.133-2.123,0.143c-1.438,0.528-2.462,1.853-2.522,3.356c-0.085,2.133,1.657,3.889,3.818,3.889c0.164,0,0.741,0,0.874,0h7.934 M36.56,73.321h0.36"/><path fill="#472b29" d="M46.578,73.821h-3.541c-0.276,0-0.5-0.224-0.5-0.5s0.224-0.5,0.5-0.5h3.541c1.831,0,3.32-1.453,3.32-3.239c0-1.524-1.108-2.857-2.635-3.17c-0.256-0.052-0.429-0.293-0.396-0.553c0.018-0.137,0.029-0.276,0.029-0.417c0-1.86-1.551-3.373-3.457-3.373c-1.092,0-2.098,0.492-2.759,1.349c-0.127,0.164-0.34,0.232-0.539,0.173c-0.198-0.059-0.339-0.234-0.355-0.44c-0.079-1.019-0.565-1.944-1.37-2.604c-0.828-0.68-1.885-0.981-2.973-0.852c-1.646,0.197-3.006,1.442-3.307,3.028c-0.094,0.494-0.091,0.988,0.01,1.471c0.045,0.219-0.06,0.441-0.258,0.544s-0.44,0.064-0.595-0.099c-0.429-0.452-1.01-0.701-1.636-0.701c-1.169,0-2.145,0.891-2.221,2.028c-0.01,0.145-0.082,0.279-0.198,0.366c-0.116,0.087-0.264,0.119-0.407,0.089c-0.638-0.139-1.242-0.098-1.845,0.124c-1.262,0.464-2.144,1.632-2.195,2.906c-0.035,0.875,0.283,1.708,0.895,2.345c0.635,0.661,1.496,1.024,2.423,1.024h8.808c0.276,0,0.5,0.224,0.5,0.5s-0.224,0.5-0.5,0.5h-8.808c-1.185,0-2.331-0.485-3.145-1.332c-0.802-0.835-1.218-1.928-1.172-3.077c0.066-1.674,1.211-3.203,2.849-3.805c0.61-0.225,1.241-0.307,1.88-0.245c0.344-1.396,1.629-2.424,3.135-2.424c0.493,0,0.977,0.113,1.414,0.323c0.009-0.242,0.037-0.484,0.083-0.726c0.381-2.009,2.097-3.586,4.17-3.834c1.361-0.16,2.685,0.218,3.726,1.072c0.748,0.613,1.278,1.409,1.546,2.302c0.791-0.648,1.786-1.007,2.842-1.007c2.458,0,4.457,1.962,4.457,4.373c0,0.034,0,0.068-0.001,0.102c1.764,0.555,3.003,2.188,3.003,4.038C50.898,71.919,48.96,73.821,46.578,73.821z M36.92,73.821h-0.359c-0.276,0-0.5-0.224-0.5-0.5s0.224-0.5,0.5-0.5h0.359c0.276,0,0.5,0.224,0.5,0.5S37.196,73.821,36.92,73.821z"/><path fill="#472b29" d="M44.87,68.018c-0.018,0-0.037-0.002-0.055-0.006c-0.135-0.03-0.219-0.165-0.188-0.299c0.038-0.166,0.095-0.327,0.169-0.479c0.604-1.224,2.274-1.674,3.722-1.007c0.125,0.058,0.18,0.207,0.122,0.332c-0.059,0.125-0.206,0.18-0.332,0.122c-1.202-0.556-2.577-0.208-3.063,0.774c-0.058,0.116-0.101,0.24-0.13,0.368C45.087,67.939,44.984,68.018,44.87,68.018z"/><g><path fill="#472b29" d="M39.711,73.821h-1.107c-0.276,0-0.5-0.224-0.5-0.5s0.224-0.5,0.5-0.5h1.107c0.276,0,0.5,0.224,0.5,0.5S39.988,73.821,39.711,73.821z"/></g></g><g><path fill="#fdfcee" d="M68.901 51.271A10.429 10.429 0 1 0 68.901 72.129A10.429 10.429 0 1 0 68.901 51.271Z"/><path fill="#472b29" d="M68.901,72.63c-6.027,0-10.93-4.903-10.93-10.93c0-6.026,4.903-10.929,10.93-10.929c6.026,0,10.929,4.903,10.929,10.929C79.831,67.727,74.928,72.63,68.901,72.63z M68.901,51.771c-5.475,0-9.93,4.454-9.93,9.929s4.455,9.93,9.93,9.93s9.929-4.455,9.929-9.93S74.376,51.771,68.901,51.771z"/><path fill="#93bc39" d="M68.901 53.227000000000004A8.473 8.473 0 1 0 68.901 70.173A8.473 8.473 0 1 0 68.901 53.227000000000004Z"/><path fill="#472b29" d="M68.901,70.499c-4.852,0-8.799-3.947-8.799-8.799c0-4.851,3.947-8.798,8.799-8.798c4.851,0,8.798,3.947,8.798,8.798C77.7,66.552,73.752,70.499,68.901,70.499z M68.901,53.552c-4.493,0-8.148,3.655-8.148,8.148c0,4.493,3.655,8.148,8.148,8.148c4.493,0,8.148-3.655,8.148-8.148C77.049,57.208,73.394,53.552,68.901,53.552z"/><g><path fill="#fdfcee" d="M72.534,61.398h-3.33v-3.33c0-0.166-0.136-0.303-0.303-0.303s-0.303,0.136-0.303,0.303v3.33h-3.33c-0.166,0-0.303,0.136-0.303,0.303c0,0.166,0.136,0.303,0.303,0.303h3.33v3.33c0,0.166,0.136,0.303,0.303,0.303s0.303-0.136,0.303-0.303v-3.33h3.33c0.166,0,0.303-0.136,0.303-0.303C72.836,61.534,72.7,61.398,72.534,61.398z"/><path fill="#472b29" d="M68.901,57.765c0.166,0,0.303,0.136,0.303,0.303v3.33h3.33c0.166,0,0.303,0.136,0.303,0.303s-0.136,0.303-0.303,0.303h-3.33v3.33c0,0.166-0.136,0.303-0.303,0.303s-0.303-0.136-0.303-0.303v-3.33h-3.33c-0.166,0-0.303-0.136-0.303-0.303s0.136-0.303,0.303-0.303h3.33v-3.33C68.598,57.901,68.735,57.765,68.901,57.765 M68.901,57.265c-0.443,0-0.803,0.36-0.803,0.803v2.83h-2.83c-0.443,0-0.803,0.36-0.803,0.803s0.36,0.803,0.803,0.803h2.83v2.83c0,0.443,0.36,0.803,0.803,0.803s0.803-0.36,0.803-0.803v-2.83h2.83c0.443,0,0.803-0.36,0.803-0.803s-0.36-0.803-0.803-0.803h-2.83v-2.83C69.704,57.625,69.344,57.265,68.901,57.265L68.901,57.265z"/></g></g></svg>