<svg xmlns="http://www.w3.org/2000/svg" width="500" height="500" fill="#000" viewBox="0 0 30 30"><path d="M27.951,10.997c-0.105-0.322-0.365-0.569-0.692-0.657l-7.303-1.956l-4.117-6.341c-0.369-0.568-1.309-0.568-1.678,0 l-4.117,6.341L2.741,10.34c-0.327,0.087-0.587,0.334-0.692,0.657c-0.104,0.322-0.039,0.675,0.174,0.938l4.759,5.875l-0.396,7.55 c-0.018,0.338,0.137,0.662,0.411,0.861c0.274,0.2,0.63,0.245,0.946,0.125L15,23.636l7.058,2.71c0.116,0.044,0.237,0.066,0.358,0.066 c0.208,0,0.415-0.065,0.588-0.191c0.274-0.199,0.429-0.523,0.411-0.861l-0.396-7.55l4.759-5.875 C27.99,11.672,28.056,11.319,27.951,10.997z M19,16h-3v3c0,0.553-0.447,1-1,1s-1-0.447-1-1v-3h-3c-0.553,0-1-0.447-1-1s0.447-1,1-1 h3v-3c0-0.553,0.447-1,1-1s1,0.447,1,1v3h3c0.553,0,1,0.447,1,1S19.553,16,19,16z"/></svg>