<svg fill="#000000" xmlns="http://www.w3.org/2000/svg" viewBox="0 0 16 16" width="100px" height="100px"><path d="M 8 2 C 6.347656 2 5 3.347656 5 5 C 5 6.652344 6.347656 8 8 8 C 8.3125 8 8.605469 7.9375 8.890625 7.851563 C 8.796875 7.914063 8.71875 7.988281 8.632813 8.0625 C 8.421875 8.035156 8.214844 8 8 8 C 5.246094 8 3 10.246094 3 13 L 4 13 C 4 10.871094 5.652344 9.15625 7.75 9.023438 C 7.277344 9.738281 7 10.585938 7 11.5 C 7 13.980469 9.019531 16 11.5 16 C 13.980469 16 16 13.980469 16 11.5 C 16 9.019531 13.980469 7 11.5 7 C 10.929688 7 10.390625 7.117188 9.886719 7.3125 C 10.558594 6.757813 11 5.933594 11 5 C 11 3.347656 9.652344 2 8 2 Z M 8 3 C 9.109375 3 10 3.890625 10 5 C 10 6.109375 9.109375 7 8 7 C 6.890625 7 6 6.109375 6 5 C 6 3.890625 6.890625 3 8 3 Z M 11.5 8 C 13.4375 8 15 9.5625 15 11.5 C 15 13.4375 13.4375 15 11.5 15 C 9.5625 15 8 13.4375 8 11.5 C 8 9.5625 9.5625 8 11.5 8 Z M 11 9 L 11 11 L 9 11 L 9 12 L 11 12 L 11 14 L 12 14 L 12 12 L 14 12 L 14 11 L 12 11 L 12 9 Z"/></svg>