<svg xmlns="http://www.w3.org/2000/svg" width="300" height="300" fill="#000" viewBox="0 0 16 16"><path d="M 7.5 0.0585938 L 7.0625 0.835938 L 5.0625 4.394531 L 0.0859375 5.328125 L 3.554688 8.957031 L 2.921875 13.878906 L 7.5 11.769531 L 12.078125 13.878906 L 11.441406 8.957031 L 14.917969 5.328125 L 9.9375 4.394531 Z M 7.5 2.097656 L 9.289063 5.289063 L 12.921875 5.96875 L 10.390625 8.609375 L 10.855469 12.214844 L 7.5 10.667969 L 4.144531 12.214844 L 4.609375 8.609375 L 2.078125 5.96875 L 5.710938 5.289063 Z M 7 5 L 7 7 L 5 7 L 5 8 L 7 8 L 7 10 L 8 10 L 8 8 L 10 8 L 10 7 L 8 7 L 8 5 Z"/></svg>