<svg xmlns="http://www.w3.org/2000/svg" width="100" height="100" viewBox="0 0 128 128"><path fill="#fff" d="M116.8,59l-16.2-38.8C99,16.4,95.4,14,91.3,14H34.8c-4.1,0-7.8,2.5-9.3,6.4L10.5,59L5,74v19v31h118V93V74L116.8,59z"/><path fill="#444b54" d="M123 127H5c-1.7 0-3-1.3-3-3V74c0-1.7 1.3-3 3-3h20.9c5.4 0 10.4 2.1 14.2 5.9 2.7 2.7 6.2 4.1 10 4.1h25.9c3.8 0 7.3-1.5 10-4.1 3.8-3.8 8.8-5.9 14.2-5.9H123c1.7 0 3 1.3 3 3v50C126 125.7 124.7 127 123 127zM8 121h112V77h-19.9c-3.8 0-7.3 1.5-10 4.1-3.8 3.8-8.8 5.9-14.2 5.9H50.1c-5.4 0-10.4-2.1-14.2-5.9-2.7-2.7-6.2-4.1-10-4.1H8V121zM10.5 62c-.4 0-.7-.1-1.1-.2-1.5-.6-2.3-2.3-1.7-3.9l15-38.6c2-5 6.7-8.3 12.1-8.3H76c1.7 0 3 1.3 3 3s-1.3 3-3 3H34.8c-2.9 0-5.5 1.8-6.5 4.5l-15 38.6C12.8 61.3 11.7 62 10.5 62z"/><path fill="#fff" d="M112.9,34h-14c-1.7,0-3-1.3-3-3s1.3-3,3-3h14c1.7,0,3,1.3,3,3S114.6,34,112.9,34z"/><path fill="#ff5576" d="M106 11A20 20 0 1 0 106 51A20 20 0 1 0 106 11Z" transform="rotate(-45.001 106 31.001)"/><path fill="#fff" d="M112.9,34h-14c-1.7,0-3-1.3-3-3s1.3-3,3-3h14c1.7,0,3,1.3,3,3S114.6,34,112.9,34z"/><g><path fill="#fff" d="M105.9,41c-1.7,0-3-1.3-3-3V24c0-1.7,1.3-3,3-3s3,1.3,3,3v14C108.9,39.7,107.6,41,105.9,41z"/></g></svg>