<svg xmlns="http://www.w3.org/2000/svg" width="300" height="300" fill="#000" viewBox="0 0 50 50"><path d="M 21 2 C 19.354545 2 18 3.3545455 18 5 L 18 7 L 10 7 L 8 7 A 1.0001 1.0001 0 1 0 8 9 L 9 9 L 9 45 C 9 46.654 10.346 48 12 48 L 31.074219 48 C 30.523219 47.386 30.033187 46.718 29.617188 46 L 12 46 C 11.448 46 11 45.551 11 45 L 11 9 L 18.832031 9 A 1.0001 1.0001 0 0 0 19.158203 9 L 30.832031 9 A 1.0001 1.0001 0 0 0 31.158203 9 L 39 9 L 39 28.050781 C 39.331 28.023781 39.662 28 40 28 C 40.338 28 40.669 28.023781 41 28.050781 L 41 9 L 42 9 A 1.0001 1.0001 0 1 0 42 7 L 40 7 L 32 7 L 32 5 C 32 3.3545455 30.645455 2 29 2 L 21 2 z M 21 4 L 29 4 C 29.554545 4 30 4.4454545 30 5 L 30 7 L 20 7 L 20 5 C 20 4.4454545 20.445455 4 21 4 z M 18.984375 13.986328 A 1.0001 1.0001 0 0 0 18 15 L 18 40 A 1.0001 1.0001 0 1 0 20 40 L 20 15 A 1.0001 1.0001 0 0 0 18.984375 13.986328 z M 24.984375 13.986328 A 1.0001 1.0001 0 0 0 24 15 L 24 40 A 1.0001 1.0001 0 1 0 26 40 L 26 15 A 1.0001 1.0001 0 0 0 24.984375 13.986328 z M 31 14 C 30.447 14 30 14.448 30 15 L 30 33.371094 C 30.565 32.520094 31.242 31.753219 32 31.074219 L 32 15 C 32 14.448 31.553 14 31 14 z M 40 30.011719 C 37.43675 30.011719 34.874187 30.985188 32.929688 32.929688 C 29.040688 36.818687 29.040688 43.181312 32.929688 47.070312 C 36.818687 50.959313 43.181312 50.959312 47.070312 47.070312 C 50.959312 43.181313 50.959313 36.818688 47.070312 32.929688 C 45.125813 30.985187 42.56325 30.011719 40 30.011719 z M 40 32.009766 C 42.050625 32.009766 44.10075 32.78825 45.65625 34.34375 C 48.76725 37.45475 48.76725 42.54525 45.65625 45.65625 C 42.54425 48.76725 37.45475 48.76725 34.34375 45.65625 C 31.23275 42.54425 31.23275 37.45475 34.34375 34.34375 C 35.89975 32.78825 37.949375 32.009766 40 32.009766 z M 40 34.060547 C 39.434 34.060547 39.009766 34.484781 39.009766 35.050781 L 39.009766 39.009766 L 35.050781 39.009766 C 34.484781 39.009766 34.060547 39.434 34.060547 40 C 34.060547 40.566 34.484781 40.990234 35.050781 40.990234 L 39.009766 40.990234 L 39.009766 44.949219 C 39.009766 45.515219 39.434 45.939453 40 45.939453 C 40.283 45.939453 40.566031 45.79725 40.707031 45.65625 C 40.849031 45.51525 40.990234 45.232219 40.990234 44.949219 L 40.990234 40.990234 L 44.949219 40.990234 C 45.232219 40.990234 45.51525 40.848031 45.65625 40.707031 C 45.79825 40.566031 45.939453 40.283 45.939453 40 C 45.939453 39.434 45.515219 39.009766 44.949219 39.009766 L 40.990234 39.009766 L 40.990234 35.050781 C 40.990234 34.485781 40.566 34.060547 40 34.060547 z"/></svg>