<svg xmlns="http://www.w3.org/2000/svg" width="50" height="50" fill="#000" viewBox="0 0 100 100"><path d="M 52.408203 20.857422 C 33.833203 20.857422 18.722656 32.090484 18.722656 45.896484 C 18.715656 53.445484 23.171656 60.466234 30.972656 65.240234 C 30.873656 68.626234 29.906953 72.605312 28.501953 75.320312 C 28.098953 76.101313 28.155344 77.036766 28.652344 77.759766 C 29.101344 78.414766 29.840047 78.798828 30.623047 78.798828 C 30.711047 78.798828 30.799672 78.793203 30.888672 78.783203 C 38.330672 77.968203 45.126609 74.303547 48.724609 70.935547 L 52.408203 70.935547 C 54.978203 70.935547 57.476813 70.709734 59.882812 70.302734 C 61.840812 75.346734 66.733937 78.935547 72.460938 78.935547 C 79.904938 78.935547 85.960938 72.879547 85.960938 65.435547 C 85.960938 62.112547 84.746047 59.071797 82.748047 56.716797 C 84.877047 53.439797 86.09375 49.774484 86.09375 45.896484 C 86.09375 32.089484 70.983203 20.857422 52.408203 20.857422 z M 52.410156 22.855469 C 69.882156 22.855469 84.095703 33.192484 84.095703 45.896484 C 84.095703 49.237484 83.087359 52.403484 81.318359 55.271484 C 78.945359 53.200484 75.852891 51.935547 72.462891 51.935547 C 65.018891 51.935547 58.962891 57.991547 58.962891 65.435547 C 58.961891 66.447547 59.080969 67.430906 59.292969 68.378906 C 57.073969 68.737906 54.773203 68.9375 52.408203 68.9375 L 48.322266 68.9375 C 48.060266 68.9375 47.809047 69.039656 47.623047 69.222656 C 44.357047 72.424656 37.850875 76.008922 30.671875 76.794922 C 30.474875 76.816922 30.352734 76.701906 30.302734 76.628906 C 30.254734 76.558906 30.187297 76.413328 30.279297 76.236328 C 31.920297 73.063328 32.980469 68.527734 32.980469 64.677734 C 32.980469 64.323734 32.792281 63.995406 32.488281 63.816406 C 25.005281 59.409406 20.718609 52.877484 20.724609 45.896484 C 20.724609 33.192484 34.938156 22.855469 52.410156 22.855469 z M 35.460938 35.9375 C 35.184937 35.9375 34.960938 36.1615 34.960938 36.4375 C 34.960938 36.7135 35.183937 36.9375 35.460938 36.9375 L 54.460938 36.9375 C 54.736938 36.9375 54.960937 36.7135 54.960938 36.4375 C 54.960938 36.1615 54.736938 35.9375 54.460938 35.9375 L 35.460938 35.9375 z M 58.460938 35.9375 C 58.184937 35.9375 57.960938 36.1615 57.960938 36.4375 C 57.960938 36.7135 58.183938 36.9375 58.460938 36.9375 L 67.460938 36.9375 C 67.736937 36.9375 67.960938 36.7135 67.960938 36.4375 C 67.960938 36.1615 67.736938 35.9375 67.460938 35.9375 L 58.460938 35.9375 z M 30.460938 41.9375 C 30.184938 41.9375 29.960938 42.1615 29.960938 42.4375 C 29.960938 42.7135 30.183938 42.9375 30.460938 42.9375 L 42.460938 42.9375 C 42.736938 42.9375 42.960938 42.7135 42.960938 42.4375 C 42.960938 42.1615 42.736937 41.9375 42.460938 41.9375 L 30.460938 41.9375 z M 46.460938 41.9375 C 46.183937 41.9375 45.960938 42.1615 45.960938 42.4375 C 45.960938 42.7135 46.184937 42.9375 46.460938 42.9375 L 71.460938 42.9375 C 71.736937 42.9375 71.960938 42.7135 71.960938 42.4375 C 71.960938 42.1615 71.736938 41.9375 71.460938 41.9375 L 46.460938 41.9375 z M 30.460938 47.9375 C 30.184938 47.9375 29.960938 48.1615 29.960938 48.4375 C 29.960938 48.7135 30.184938 48.9375 30.460938 48.9375 L 61.460938 48.9375 C 61.736938 48.9375 61.960937 48.7135 61.960938 48.4375 C 61.960938 48.1615 61.736938 47.9375 61.460938 47.9375 L 30.460938 47.9375 z M 72.460938 53.9375 C 78.801937 53.9375 83.960938 59.0965 83.960938 65.4375 C 83.960938 71.7785 78.801938 76.9375 72.460938 76.9375 C 66.119938 76.9375 60.960938 71.7785 60.960938 65.4375 C 60.960938 59.0965 66.119937 53.9375 72.460938 53.9375 z M 35.460938 54.9375 C 35.184937 54.9375 34.960938 55.1615 34.960938 55.4375 C 34.960938 55.7135 35.184938 55.9375 35.460938 55.9375 L 53.460938 55.9375 C 53.736938 55.9375 53.960937 55.7135 53.960938 55.4375 C 53.960938 55.1615 53.736938 54.9375 53.460938 54.9375 L 35.460938 54.9375 z M 72.460938 58.9375 C 72.184938 58.9375 71.960938 59.1615 71.960938 59.4375 L 71.960938 64.9375 L 66.460938 64.9375 C 66.184938 64.9375 65.960938 65.1615 65.960938 65.4375 C 65.960938 65.7135 66.184937 65.9375 66.460938 65.9375 L 71.960938 65.9375 L 71.960938 71.4375 C 71.960938 71.7135 72.184937 71.9375 72.460938 71.9375 C 72.736937 71.9375 72.960938 71.7135 72.960938 71.4375 L 72.960938 65.9375 L 78.460938 65.9375 C 78.736937 65.9375 78.960938 65.7135 78.960938 65.4375 C 78.960938 65.1615 78.736938 64.9375 78.460938 64.9375 L 72.960938 64.9375 L 72.960938 59.4375 C 72.960938 59.1615 72.736938 58.9375 72.460938 58.9375 z"/></svg>