<svg xmlns="http://www.w3.org/2000/svg" width="100" height="100" fill="#000" viewBox="0 0 32 32"><path d="M 20 3 C 17.250484 3 15 5.2504839 15 8 L 15 9.171875 L 13.414062 7.5859375 L 12 9 L 16 13 L 20 9 L 18.585938 7.5859375 L 17 9.171875 L 17 8 C 17 6.3315161 18.331516 5 20 5 L 24 5 L 24 3 L 20 3 z M 5.7070312 7.2929688 L 4.2929688 8.7070312 L 9.5859375 14 L 3 14 L 3 15 L 3 20 L 4.2792969 20 L 7.2792969 29 L 24.720703 29 L 27.720703 20 L 29 20 L 29 14 L 22.414062 14 L 27.707031 8.7070312 L 26.292969 7.2929688 L 19.585938 14 L 12.414062 14 L 5.7070312 7.2929688 z M 5 16 L 27 16 L 27 18 L 26.279297 18 L 23.279297 27 L 8.7207031 27 L 5.7207031 18 L 5 18 L 5 16 z M 11 19 L 11 25 L 13 25 L 13 19 L 11 19 z M 15 19 L 15 25 L 17 25 L 17 19 L 15 19 z M 19 19 L 19 25 L 21 25 L 21 19 L 19 19 z"/></svg>