<svg xmlns="http://www.w3.org/2000/svg" width="300" height="300" fill="#000" viewBox="0 0 32 32"><path d="M 16 2.5 L 15.125 4.09375 L 11.40625 10.875 L 3.8125 12.3125 L 2.03125 12.65625 L 3.28125 14 L 8.5625 19.625 L 7.59375 27.28125 L 7.375 29.09375 L 9 28.3125 L 16 25.0625 L 23 28.3125 L 24.625 29.09375 L 24.40625 27.28125 L 23.4375 19.625 L 28.71875 14 L 29.96875 12.65625 L 28.1875 12.3125 L 20.59375 10.875 L 16.875 4.09375 Z M 16 6.65625 L 19.0625 12.25 L 19.3125 12.65625 L 19.75 12.75 L 26.03125 13.9375 L 21.65625 18.59375 L 21.34375 18.9375 L 21.40625 19.40625 L 22.21875 25.75 L 16.4375 23.03125 L 16 22.8125 L 15.5625 23.03125 L 9.78125 25.75 L 10.59375 19.40625 L 10.65625 18.9375 L 10.34375 18.59375 L 5.96875 13.9375 L 12.25 12.75 L 12.6875 12.65625 L 12.9375 12.25 Z M 15 13 L 15 16 L 12 16 L 12 18 L 15 18 L 15 21 L 17 21 L 17 18 L 20 18 L 20 16 L 17 16 L 17 13 Z"/></svg>