<svg xmlns="http://www.w3.org/2000/svg" width="500" height="500" viewBox="0 0 24 24"><path d="M20,11.414l-9.293,9.293C10.518,20.896,10.267,21,10,21s-0.518-0.104-0.707-0.293l-6-6C3.104,14.518,3,14.267,3,14c0-0.267,0.104-0.518,0.293-0.707L12.586,4H20V11.414z" opacity=".3"/><path d="M19 16H21V24H19z"/><path d="M16 19H24V21H16zM10 22c-.533 0-1.035-.208-1.413-.585l-6.001-6.001C2.208 15.038 2 14.535 2 14s.208-1.038.587-1.415L12.172 3H21v8.828l-9.586 9.586C11.038 21.792 10.535 22 10 22zM13 5l-9 9 6 6 9-9V5H13z"/><path d="M16 7A1 1 0 1 0 16 9A1 1 0 1 0 16 7Z"/></svg>