<svg fill="#000000" xmlns="http://www.w3.org/2000/svg" viewBox="0 0 50 50" width="500px" height="500px"><path d="M 25 2 C 12.318 2 2 12.317 2 25 C 2 37.683 12.318 48 25 48 C 26.9 48 28.744719 47.764125 30.511719 47.328125 C 30.077719 46.767125 29.691328 46.170109 29.361328 45.537109 C 27.953328 45.836109 26.496 46 25 46 C 13.42 46 4 36.579 4 25 C 4 20.090713 5.7056943 15.579888 8.5390625 12 L 25 12 L 25 10 L 10.332031 10 C 11.074985 9.2733183 11.877168 8.6110328 12.720703 8 L 25 8 L 25 6 L 16.113281 6 C 18.816533 4.7302247 21.820956 4 25 4 C 36.58 4 46 13.421 46 25 C 46 26.496 45.836109 27.953328 45.537109 29.361328 C 46.170109 29.691328 46.767125 30.078719 47.328125 30.511719 C 47.764125 28.744719 48 26.9 48 25 C 48 12.317 37.682 2 25 2 z M 9.9003906 14 L 12.488281 15.917969 L 11.912109 16.708984 L 23.013672 24.791016 A 2 2 0 0 0 25 27 A 2 2 0 0 0 26.957031 25.402344 L 36.416016 22.248047 L 35.783203 20.351562 L 26.326172 23.503906 A 2 2 0 0 0 25 23 L 25 22 L 22.578125 22 L 19.830078 20 L 25 20 L 25 18 L 17.082031 18 L 14.335938 16 L 25 16 L 25 14 L 9.9003906 14 z M 40 30 C 34.5 30 30 34.5 30 40 C 30 45.5 34.5 50 40 50 C 45.5 50 50 45.5 50 40 C 50 34.5 45.5 30 40 30 z M 40 32 C 44.4 32 48 35.6 48 40 C 48 44.4 44.4 48 40 48 C 35.6 48 32 44.4 32 40 C 32 35.6 35.6 32 40 32 z M 40 34.099609 C 39.4 34.099609 39 34.5 39 35 L 39 39 L 35.099609 39 C 34.499609 39 34.099609 39.4 34.099609 40 C 34.099609 40.6 34.499609 41 35.099609 41 L 39 41 L 39 44.900391 C 39 45.500391 39.4 45.900391 40 45.900391 C 40.6 45.900391 41 45.500391 41 44.900391 L 41 41 L 44.900391 41 C 45.500391 41 45.900391 40.6 45.900391 40 C 45.900391 39.4 45.5 39 45 39 L 41 39 L 41 35.099609 C 41 34.499609 40.6 34.099609 40 34.099609 z"/></svg>