<svg xmlns="http://www.w3.org/2000/svg" viewBox="0 0 100 100" width="100px" height="100px"><path fill="#c8ede6" d="M87.234,55.551c0.3-0.616,0.566-1.264,0.796-1.943c2.633-7.77-1.349-17.078-9.733-19.325 C77.391,22.9,69.391,15.09,60.356,13.758c-10.341-1.525-19.814,5.044-22.966,15.485c-3.799-1.346-7.501-1.182-10.99,0.857 c-1.583,0.732-3.031,1.812-4.33,3.233c-1.907,2.086-3.147,4.719-3.652,7.495c-0.748,0.118-1.483,0.236-2.176,0.484 c-4.04,1.449-6.589,4.431-7.288,8.923c-0.435,2.797,0.443,5.587,0.933,6.714c1.935,4.455,6.422,6.98,10.981,6.312 c0.227-0.033,0.557,0.069,0.752,0.233c0.241,7.12,3.698,13.417,8.884,17.014c8.321,5.772,19.027,3.994,25.781-3.921 c2.894,2.96,6.338,4.398,10.384,3.876c4.023-0.519,7.147-2.739,9.426-6.349c1.053,0.283,2.051,0.691,3.083,0.804 c4.042,0.442,7.297-1.184,9.732-4.8c0.083-0.124,0.203-0.219,0.306-0.328c0.348-0.798,0.696-1.596,1.044-2.394 c0.155-1.211,0.429-2.423,0.443-3.632C90.742,60.508,89.411,57.54,87.234,55.551z"/><path fill="#fdfcef" d="M69.507,37.423c0,0-11.691,0-11.762,0c-2.7,0-4.888-2.189-4.888-4.889 c0-2.355,1.666-4.321,3.884-4.784c-0.026-0.206-0.043-0.415-0.043-0.628c0-2.796,2.267-5.063,5.063-5.063 c1.651,0,3.113,0.794,4.037,2.017c0.236-3.113,3.017-5.514,6.27-5.116c2.379,0.291,4.346,2.13,4.784,4.486 c0.14,0.756,0.126,1.489-0.014,2.177c0.638-0.687,1.546-1.119,2.557-1.119c1.85,0,3.361,1.441,3.48,3.261 c0.84-0.186,1.754-0.174,2.717,0.188c1.84,0.691,3.15,2.423,3.227,4.387c0.109,2.789-2.12,5.085-4.885,5.085 c-0.21,0-0.948,0-1.118,0H72.665"/><path fill="#472b29" d="M57.745,37.923h11.762c0.276,0,0.5-0.224,0.5-0.5s-0.224-0.5-0.5-0.5H57.745 c-2.42,0-4.389-1.969-4.389-4.389c0-2.066,1.466-3.873,3.486-4.295c0.255-0.053,0.426-0.293,0.394-0.552 c-0.023-0.186-0.039-0.374-0.039-0.565c0-2.517,2.047-4.563,4.562-4.563c1.438,0,2.765,0.663,3.638,1.818 c0.125,0.166,0.338,0.237,0.54,0.178c0.199-0.059,0.342-0.234,0.357-0.441c0.104-1.377,0.779-2.671,1.85-3.549 c1.083-0.888,2.456-1.282,3.86-1.109c2.166,0.266,3.956,1.943,4.353,4.081c0.124,0.667,0.12,1.335-0.013,1.986 c-0.044,0.22,0.062,0.442,0.262,0.544c0.2,0.104,0.443,0.06,0.595-0.104c0.575-0.618,1.353-0.959,2.19-0.959 c1.569,0,2.878,1.228,2.981,2.794c0.01,0.146,0.082,0.279,0.199,0.366c0.117,0.089,0.268,0.12,0.408,0.089 c0.841-0.185,1.637-0.132,2.433,0.167c1.669,0.627,2.835,2.209,2.903,3.938c0.047,1.207-0.387,2.35-1.221,3.218 c-0.835,0.869-1.959,1.348-3.164,1.348H72.661c-0.276,0-0.5,0.224-0.5,0.5s0.224,0.5,0.5,0.5h11.271 c1.479,0,2.858-0.588,3.884-1.654c1.025-1.066,1.558-2.469,1.5-3.95c-0.083-2.126-1.51-4.069-3.55-4.835 c-0.8-0.301-1.626-0.398-2.468-0.299c-0.377-1.822-1.998-3.182-3.905-3.182c-0.684,0-1.354,0.18-1.944,0.51 c0-0.386-0.035-0.772-0.106-1.159c-0.477-2.562-2.621-4.573-5.215-4.891c-1.679-0.205-3.32,0.266-4.616,1.328 c-1.003,0.823-1.716,1.951-2.038,3.193c-1.012-0.916-2.319-1.426-3.714-1.426c-3.067,0-5.562,2.496-5.562,5.563 c0,0.083,0.002,0.166,0.007,0.248c-2.254,0.673-3.848,2.776-3.848,5.164C52.356,35.507,54.773,37.923,57.745,37.923z"/><path fill="#fdfcef" d="M72.34,26.655c1.808-0.119,3.365,1.13,3.476,2.789c0.014,0.206,0.005,0.409-0.025,0.606 c0.349-0.394,0.865-0.661,1.458-0.7c1.085-0.071,2.022,0.645,2.158,1.62c0.197-0.054,0.403-0.09,0.616-0.104 c1.582-0.104,2.944,0.989,3.042,2.441"/><path fill="#472b29" d="M83.064,33.556c0.006,0,0.012,0,0.017-0.001c0.138-0.009,0.242-0.128,0.233-0.266 c-0.107-1.587-1.588-2.789-3.308-2.674c-0.137,0.009-0.273,0.026-0.409,0.053c-0.274-0.968-1.256-1.645-2.366-1.567 c-0.425,0.027-0.823,0.159-1.164,0.382c0-0.019-0.002-0.037-0.003-0.056c-0.12-1.795-1.787-3.16-3.742-3.021 c-0.138,0.009-0.242,0.128-0.233,0.266c0.009,0.138,0.124,0.255,0.266,0.232c1.651-0.105,3.108,1.037,3.21,2.557 c0.012,0.184,0.004,0.37-0.023,0.553c-0.017,0.109,0.041,0.217,0.141,0.264s0.219,0.022,0.293-0.061 c0.323-0.365,0.78-0.584,1.287-0.617c0.951-0.034,1.775,0.556,1.894,1.404c0.01,0.071,0.05,0.135,0.11,0.175 c0.06,0.039,0.133,0.051,0.204,0.032c0.187-0.051,0.377-0.083,0.567-0.097c1.44-0.092,2.687,0.896,2.775,2.209 C82.824,33.455,82.934,33.556,83.064,33.556z"/><path fill="#fdfcef" d="M55.765,28.323c1.699-0.801,3.664-0.234,4.389,1.267c0.09,0.186,0.157,0.379,0.201,0.574"/><path fill="#472b29" d="M60.355,30.414c0.018,0,0.037-0.002,0.056-0.006c0.134-0.031,0.219-0.165,0.188-0.3 c-0.049-0.217-0.123-0.428-0.219-0.627c-0.783-1.621-2.902-2.239-4.721-1.385c-0.125,0.06-0.179,0.208-0.12,0.333 c0.059,0.126,0.209,0.176,0.333,0.12c1.574-0.744,3.394-0.227,4.058,1.149c0.08,0.165,0.141,0.34,0.182,0.521 C60.138,30.336,60.241,30.414,60.355,30.414z"/><path fill="#fabf82" d="M72.53,63.68c-0.491-0.343-6.792-2.526-6.792-2.526c-0.401-0.106-0.623-0.431-0.695-0.792 c-0.202-1.025-0.178-3.489-0.173-3.929c0.001-0.035-0.031-0.061-0.071-0.061h-0.238h-5.842h-0.238 c-0.04,0-0.071,0.027-0.071,0.061c0.004,0.436,0.025,2.85-0.173,3.929c-0.067,0.363-0.294,0.686-0.695,0.792l-5.15,1.77 c-0.515,0.141-1.011,0.343-1.446,0.624c-2.273,1.469-2.339,3.875-2.433,4.322c-0.008,0.038,0.026,0.073,0.07,0.073H61.64h13.057 c0.045,0,0.078-0.035,0.07-0.073C74.677,67.436,74.643,65.157,72.53,63.68z"/><path fill="#472b29" d="M64.8,56.372c0.04,0,0.071,0.026,0.071,0.061c-0.005,0.44-0.029,2.904,0.173,3.929 c0.072,0.362,0.294,0.686,0.695,0.792c0,0,6.301,2.182,6.792,2.526c2.113,1.477,2.147,3.757,2.238,4.191 c0.008,0.038-0.026,0.073-0.07,0.073H61.641H48.584c-0.045,0-0.078-0.035-0.07-0.073c0.094-0.448,0.16-2.853,2.433-4.322 c0.435-0.281,0.931-0.483,1.446-0.624l5.15-1.77c0.401-0.106,0.628-0.429,0.695-0.792c0.198-1.079,0.177-3.493,0.173-3.929 c-0.001-0.035,0.031-0.061,0.07-0.061h0.238h5.842L64.8,56.372 M64.8,55.648h-0.238H58.72h-0.238 c-0.215,0-0.425,0.086-0.575,0.236c-0.149,0.15-0.231,0.347-0.228,0.557c0.015,1.329-0.021,3.024-0.161,3.791 c-0.034,0.188-0.133,0.214-0.165,0.223l-0.026,0.007l-0.025,0.009l-5.129,1.763c-0.617,0.171-1.164,0.41-1.628,0.709 c-2.298,1.485-2.619,3.838-2.725,4.61c-0.01,0.074-0.017,0.132-0.025,0.17c-0.048,0.231,0.01,0.468,0.161,0.651 c0.153,0.186,0.381,0.292,0.625,0.292H61.64h13.057c0.245,0,0.472-0.106,0.625-0.292c0.151-0.183,0.209-0.42,0.161-0.651 c-0.008-0.04-0.015-0.099-0.025-0.174c-0.105-0.814-0.384-2.975-2.508-4.46c-0.5-0.349-4.583-1.79-6.972-2.618l-0.026-0.009 l-0.026-0.007c-0.031-0.009-0.127-0.034-0.166-0.232c-0.143-0.724-0.176-2.428-0.159-3.782c0.002-0.21-0.078-0.408-0.228-0.557 C65.225,55.734,65.015,55.648,64.8,55.648L64.8,55.648z"/><path fill="#fddbbc" d="M71.626,48.715c0.112-0.38,0.206-0.753,0.34-1.124c0.174-0.485,0.051-0.796-0.493-1.096 c-0.025-0.014-0.045-0.03-0.067-0.046c-0.087-0.014-0.171-0.025-0.241-0.033c-0.489-0.057-1.358-0.082-1.611-0.586 c-0.286-0.571-0.144-1.177-0.07-1.78c0.081-0.663-0.171-1.302-0.173-1.964c-0.045-0.065-0.078-0.142-0.087-0.234 c-0.1-0.976-0.388-1.909-0.772-2.812c-1.352-1.772-3.878-2.967-6.768-2.967c-4.31,0-7.818,2.657-7.818,5.922 c0,0.155,0.01,0.307,0.026,0.459c-0.042,0.59-0.099,1.116-0.072,1.763c0.024,0.572-0.06,0.996-0.004,1.751 c0.031,0.425-0.165,0.151-0.852,0.185c-0.088,0-0.173,0.001-0.256,0.007c-0.754,0.05-1.364,0.53-1.494,1.124 c0.092,0.056,0.166,0.146,0.2,0.279c0.275,1.103,0.237,2.378,0.792,3.403c0.31,0.572,0.795,0.652,1.293,1.021 c0.276,0.205,0.329,0.436,0.404,0.742c0.28,1.132,1.055,2.095,1.906,2.917c0.431,0.416,0.893,0.79,1.359,1.169 c0.387,0.314,0.793,0.677,1.273,0.864c0.16,0.062,0.26,0.174,0.308,0.3c0.318,0.169,0.767,0.406,0.767,0.402 c1.535,0.61,3.008,0.662,4.562-0.03c0,0.006,0,0.012,0,0.017c0.008-0.005,0.756-0.362,1.062-0.53 c0.024-0.033,0.052-0.065,0.089-0.096c0.471-0.394,0.992-0.722,1.477-1.098c0.398-0.31,0.725-0.652,1.033-1.024 c-0.071-0.161,0.086-0.022,0.233-0.191c0.689-0.791,1.336-2.037,1.448-3.051c0.006-0.052,0.044-0.09,0.072-0.127 c-0.089-0.281,0.132-0.435,0.539-0.446c0.368-0.009,0.586-0.421,0.868-0.619C71.109,50.387,71.393,49.502,71.626,48.715z"/><path fill="#8e7469" d="M69.762,48.049c0.009-0.129,0.011-0.258-0.004-0.386l0.975,0.187l-0.354,1.75l-0.393-0.071 l0.279-1.383L69.762,48.049z" opacity=".8"/><path fill="#472b29" d="M71.079,46.176c-0.335-0.084-0.691-0.092-1.068-0.138c0-0.04-0.096,0.043-0.096,0.003 c-0.238-0.023-0.364-0.301-0.368-0.591c-0.007-0.585-0.081-1.227-0.028-1.841c0.015-0.554-0.085-0.907-0.193-1.299 c0.017-0.161,0.027-0.323,0.027-0.487c0-3.356-3.507-6.087-7.818-6.087s-7.818,2.731-7.818,6.087c0,0.159,0.01,0.316,0.026,0.472 c-0.042,0.607-0.099,1.148-0.072,1.811c0.024,0.588-0.06,1.024-0.004,1.799c0.031,0.437-0.165,0.156-0.852,0.19 c-0.088,0-0.173,0.001-0.256,0.007c-0.935,0.064-1.65,0.806-1.501,1.609c0.172,0.93,0.378,1.856,0.611,2.775 c0.231,0.909,0.685,1.653,1.788,1.759c0.142,1.182,0.395,1.783,1.15,2.715c1.024,1.266,2.239,2.346,3.707,3.133 c0.152,0.082,1.054,0.575,1.054,0.569c1.535,0.627,3.008,0.68,4.562-0.03c0,0.006,0,0.012,0,0.018 c0.01-0.006,0.978-0.482,1.161-0.603c0.737-0.489,1.488-0.978,2.136-1.563c1.285-1.159,2.498-2.388,2.624-4.241 c1.09-0.097,1.541-0.831,1.774-1.718c0.228-0.87,0.393-1.755,0.577-2.634C72.379,47.044,71.965,46.397,71.079,46.176z M53.455,51.606c-0.546,0.014-0.908-0.199-1.099-0.802c-0.262-0.827-0.653-2.553-0.658-2.568 c-0.413-1.258,0.367-1.817,1.757-1.553v0.731c-0.007,0-0.014,0.607,0.001,0.61L53.455,51.606L53.455,51.606z M69.248,52.469 c-0.003,0.326-0.058,0.695-0.223,0.972c-1.524,2.549-3.668,4.403-6.741,5.139c-1.066,0.255-2.065-0.111-2.992-0.551 c-1.943-0.92-3.497-2.271-4.685-3.991c-0.389-0.564-0.597-1.169-0.567-1.861c0.04-0.915,0.01-1.832,0.01-2.749 c0-0.113,0.009-0.226-0.001-0.337c-0.228-2.516,0.301-7.176,0.301-7.268c0-3.029,3.225-5.494,7.189-5.494s7.318,2.464,7.318,5.494 c0,0.062,0.025,0.135,0.023,0.197c0.272,0.257,0.071,2.705,0.353,3.94c0.031,0.14,0.026,0.288,0.026,0.432 C69.259,48.418,69.268,50.444,69.248,52.469z M71.691,47.678c-0.202,1.055-0.448,2.105-0.748,3.139 c-0.169,0.584-0.488,0.76-1.092,0.816v-3.601c0.001-0.001,0.003-0.001,0.004-0.001c-0.001-0.012-0.003-0.022-0.003-0.034v-0.76 c-0.004-0.002-0.009-0.004-0.013-0.007v-0.607c0.325,0,0.627-0.02,0.927,0.004C71.37,46.676,71.799,47.11,71.691,47.678z"/><path fill="#8e7469" d="M53.597,48.363c-0.01-0.135-0.011-0.271,0.004-0.406l-1.024,0.196l0.371,1.839l0.414-0.075 l-0.294-1.454L53.597,48.363z" opacity=".8"/><path fill="#472b29" d="M61.605 51.591c.518 0 1.02-.224 1.344-.598.032-.038.028-.094-.01-.127l0 0c-.038-.032-.095-.028-.128.009-.264.297-.703.468-1.205.468-.503 0-.942-.171-1.206-.468-.018-.02-.043-.03-.069-.03-.021 0-.042.007-.059.022-.038.033-.042.089-.01.127C60.585 51.367 61.087 51.591 61.605 51.591zM59.952 44.674l.329-.624c-1.39-.322-2.99-.271-4.31.135l.414.608C57.47 44.438 58.805 44.394 59.952 44.674zM66.911 44.674l.329-.624c-1.39-.322-2.99-.271-4.31.135l.414.608C64.429 44.438 65.764 44.394 66.911 44.674zM57.952 45.554c-.334 0-.627.219-.796.548.042-.013.086-.022.132-.022.274 0 .496.245.496.547 0 .302-.222.547-.496.547-.089 0-.173-.028-.245-.075.117.496.48.857.909.857.524 0 .95-.538.95-1.201C58.901 46.092 58.477 45.554 57.952 45.554zM65.217 45.554c-.285 0-.54.159-.714.411.054-.022.113-.037.174-.037.274 0 .496.245.496.547 0 .302-.222.547-.496.547-.17 0-.319-.095-.409-.238.012.65.432 1.172.948 1.172.524 0 .95-.538.95-1.201C66.167 46.092 65.742 45.554 65.217 45.554zM65.62 52.982c.039-.031.045-.088.013-.126l0 0c-.031-.038-.089-.045-.128-.014-.856.674-2.278 1.061-3.9 1.061-1.623 0-3.044-.387-3.901-1.061-.017-.013-.037-.02-.057-.02-.026 0-.053.012-.071.033-.031.038-.026.095.013.127.967.781 2.468 1.247 4.015 1.247C63.152 54.229 64.654 53.763 65.62 52.982z"/><path fill="#ee3e54" d="M72.618,63.611c-0.493-0.349-1.061-0.605-1.663-0.772l-0.633-0.169 c0.004-0.001,0.009-0.002,0.012-0.004l-3.301-1.073c-1.675,0.451-3.471,0.698-5.344,0.698s-3.67-0.248-5.344-0.698l-3.301,1.073 c0.004,0.001,0.009,0.002,0.013,0.004l-0.649,0.173c-0.518,0.143-1.015,0.348-1.451,0.634c-2.282,1.493-2.347,3.937-2.442,4.391 c-0.008,0.039,0.026,0.074,0.07,0.074h13.105h13.105c0.045,0,0.078-0.035,0.07-0.074C74.772,67.428,74.739,65.113,72.618,63.611z"/><path fill="#472b29" d="M61.626 62.474c-1.764 0-3.83-.284-5.669-.778-.097-.026-.155-.126-.129-.222.026-.096.126-.152.225-.127 1.809.486 3.841.765 5.573.765.68 0 1.367-.034 2.043-.101.105-.011.19.064.2.163.01.099-.063.188-.164.198C63.018 62.439 62.319 62.474 61.626 62.474zM65.016 62.198c-.088 0-.165-.063-.18-.152-.016-.098.051-.192.151-.208.138-.022.276-.046.412-.072.125-.023.25-.048.376-.074.097-.015.195.043.216.141.02.098-.044.193-.143.213-.126.025-.253.05-.381.075-.14.026-.28.051-.421.075C65.036 62.197 65.025 62.198 65.016 62.198zM48.584 68.052c-.021 0-.042-.006-.06-.017-.051-.033-.065-.101-.031-.15l3.533-5.342c.033-.05.102-.065.152-.032s.065.101.031.15l-3.533 5.342C48.655 68.034 48.62 68.052 48.584 68.052zM49.672 68.232c-.021 0-.042-.006-.06-.017-.051-.033-.065-.101-.031-.15l3.945-5.965c.033-.051.102-.065.152-.032s.065.101.031.15l-3.945 5.965C49.743 68.214 49.708 68.232 49.672 68.232zM51.018 68.052c-.021 0-.042-.006-.06-.017-.051-.033-.065-.101-.031-.15l3.945-5.965c.033-.05.102-.064.152-.032.051.033.065.101.031.15l-3.945 5.965C51.089 68.034 51.054 68.052 51.018 68.052zM52.118 68.232c-.021 0-.042-.006-.06-.017-.051-.033-.065-.101-.031-.15l3.945-5.965c.034-.051.102-.065.152-.032s.065.101.031.15l-3.945 5.965C52.188 68.214 52.153 68.232 52.118 68.232zM53.256 68.364c-.021 0-.042-.006-.06-.017-.051-.033-.065-.101-.031-.15l2.803-4.238c.033-.05.102-.064.152-.032.051.033.065.101.031.15l-2.803 4.238C53.326 68.346 53.292 68.364 53.256 68.364zM54.436 68.497c-.021 0-.042-.006-.06-.017-.051-.033-.065-.101-.031-.15l1.401-2.119c.033-.05.101-.064.152-.032.051.033.065.101.031.15l-1.401 2.119C54.507 68.479 54.472 68.497 54.436 68.497z"/><g><path fill="#512c2b" d="M62.463,56.388c0.045,0,0.084-0.052,0.084-0.114s-0.038-0.114-0.084-0.114h-1.882 c-0.045,0-0.084,0.052-0.084,0.114s0.038,0.114,0.084,0.114H62.463z"/></g><g><path fill="#512c2b" d="M52.357,38.285c0.27-0.717,1.215-0.772,1.215-0.772s-0.807-1.016-0.538-1.48 c0.269-0.464,3.158-3.755,10.178-3.026c7.02,0.729,7.891,5.236,7.891,5.236l-1.428,8.234c0,0-2.801-8.168-14.118-6.625 c0,0,0.493,1.038-1.898,5.164L52.357,38.285L52.357,38.285z"/></g><g><path fill="#be7841" d="M29.909,47.567c-0.116-0.252-2.821-6.204-0.78-10.296c0.86-1.723,2.426-2.851,4.655-3.354 c1.275-0.86,2.802-1.333,4.311-1.333c1.273,0,2.51,0.324,3.674,0.965c0.608,0.335,1.101,0.617,1.512,0.853 c1.318,0.756,1.716,0.983,2.458,0.983c0.083,0,0.171-0.003,0.263-0.008c0.208-0.014,0.319-0.02,0.424-0.02 c0.815,0,1.002,0.483,1.041,0.772c0.107,0.792-0.169,1.461-0.413,2.051c-0.203,0.491-0.378,0.915-0.269,1.27 c1.365,4.418-0.753,8.014-0.844,8.164l-0.939,1.562l0.011-1.822c0-0.035,0.011-3.239-0.739-5.373 c-1.032,0.536-2.267,0.817-3.608,0.817c-2.377,0-5.001-0.845-7.607-2.447c-2.198,1.807-2.196,6.949-2.195,7.003l0.013,2.305 L29.909,47.567z"/><path fill="#472b29" d="M38.096,33.084c1.107,0,2.276,0.267,3.433,0.903c2.588,1.423,3.068,1.898,4.211,1.898 c0.093,0,0.19-0.003,0.292-0.009c0.135-0.008,0.27-0.019,0.395-0.019c0.281,0,0.507,0.057,0.545,0.339 c0.179,1.33-0.986,2.358-0.663,3.401c1.314,4.255-0.794,7.759-0.794,7.759s0.026-3.884-0.991-6.098 c-1.049,0.683-2.365,1.04-3.856,1.04c-2.253,0-4.904-0.815-7.63-2.551c-2.705,1.774-2.673,7.61-2.673,7.61 s-5.122-11.087,3.623-12.972C35.099,33.614,36.536,33.084,38.096,33.084 M38.096,32.084l0,1L38.096,32.084 c-1.577,0-3.171,0.484-4.512,1.367c-2.334,0.547-3.983,1.757-4.901,3.597c-2.148,4.304,0.653,10.468,0.773,10.729l1.926,4.168 l-0.018-4.592c-0.005-1.341,0.316-4.85,1.76-6.378c2.578,1.523,5.173,2.325,7.543,2.325c1.197,0,2.318-0.213,3.301-0.623 c0.554,2.009,0.546,4.645,0.546,4.675l-0.021,3.642l1.878-3.12c0.096-0.159,2.323-3.94,0.893-8.57 c-0.056-0.182,0.101-0.563,0.253-0.93c0.254-0.617,0.571-1.384,0.446-2.31c-0.027-0.201-0.228-1.206-1.536-1.206 c-0.115,0-0.237,0.007-0.36,0.015l-0.092,0.005c-0.083,0.005-0.161,0.008-0.235,0.008c-0.588,0-0.888-0.16-2.207-0.917 c-0.414-0.237-0.91-0.521-1.521-0.858C40.771,32.43,39.454,32.085,38.096,32.084L38.096,32.084z"/><path fill="#fabf82" d="M48.832,63.609c-0.491-0.342-6.792-2.52-6.792-2.52c-0.401-0.106-0.623-0.429-0.695-0.79 c-0.202-1.022-0.178-3.48-0.173-3.919c0.001-0.035-0.031-0.061-0.071-0.061h-0.238h-5.842h-0.238c-0.04,0-0.071,0.027-0.071,0.061 c0.004,0.435,0.025,2.843-0.173,3.919c-0.067,0.362-0.294,0.684-0.695,0.79l-5.15,1.766c-0.515,0.141-1.011,0.342-1.446,0.623 c-2.273,1.466-2.339,3.865-2.433,4.312c-0.008,0.038,0.026,0.073,0.07,0.073h13.057h13.057c0.045,0,0.078-0.035,0.07-0.073 C50.978,67.356,50.945,65.082,48.832,63.609z"/><path fill="#472b29" d="M41.102,56.318c0.04,0,0.071,0.026,0.071,0.061c-0.005,0.439-0.029,2.897,0.173,3.919 c0.072,0.362,0.294,0.684,0.695,0.79c0,0,6.301,2.177,6.792,2.52c2.113,1.474,2.147,3.748,2.238,4.181 c0.008,0.038-0.026,0.073-0.07,0.073H37.943H24.886c-0.045,0-0.078-0.035-0.07-0.073c0.094-0.447,0.16-2.846,2.433-4.312 c0.435-0.281,0.931-0.481,1.446-0.623l5.15-1.766c0.401-0.106,0.628-0.428,0.695-0.79c0.198-1.076,0.177-3.485,0.173-3.919 c-0.001-0.035,0.031-0.061,0.07-0.061h0.238h5.842L41.102,56.318 M41.102,55.596h-0.238h-5.842h-0.238 c-0.215,0-0.425,0.086-0.575,0.235c-0.149,0.149-0.231,0.346-0.228,0.556c0.015,1.326-0.021,3.017-0.161,3.782 c-0.034,0.188-0.133,0.214-0.165,0.222l-0.026,0.006l-0.025,0.009l-5.129,1.759c-0.617,0.17-1.164,0.409-1.628,0.707 c-2.298,1.482-2.619,3.828-2.725,4.599c-0.01,0.074-0.017,0.131-0.025,0.17c-0.048,0.23,0.01,0.467,0.161,0.65 c0.153,0.186,0.381,0.292,0.625,0.292h13.057h13.057c0.245,0,0.472-0.106,0.625-0.292c0.151-0.183,0.209-0.419,0.161-0.65 c-0.008-0.04-0.015-0.099-0.025-0.174c-0.105-0.812-0.384-2.968-2.508-4.449c-0.5-0.349-4.583-1.786-6.972-2.611l-0.026-0.009 l-0.026-0.007c-0.031-0.009-0.127-0.034-0.166-0.232c-0.143-0.722-0.176-2.422-0.159-3.773c0.002-0.209-0.078-0.407-0.228-0.556 C41.526,55.682,41.317,55.596,41.102,55.596L41.102,55.596z"/><path fill="#fddbbc" d="M47.928,48.679c0.112-0.379,0.206-0.751,0.34-1.121c0.174-0.484,0.051-0.794-0.493-1.094 c-0.025-0.014-0.045-0.03-0.067-0.045c-0.087-0.014-0.171-0.025-0.241-0.033c-0.489-0.057-1.358-0.082-1.611-0.585 c-0.286-0.569-0.144-1.174-0.07-1.776c0.081-0.662-0.171-1.299-0.173-1.959c-0.045-0.065-0.078-0.141-0.087-0.233 c-0.1-0.974-0.388-1.905-0.772-2.805c-1.352-1.768-3.878-2.96-6.768-2.96c-4.31,0-7.818,2.65-7.818,5.908 c0,0.154,0.01,0.307,0.026,0.458c-0.042,0.589-0.099,1.114-0.072,1.758c0.024,0.57-0.06,0.994-0.004,1.747 c0.031,0.424-0.165,0.151-0.852,0.184c-0.088,0-0.173,0.001-0.256,0.006c-0.754,0.05-1.364,0.528-1.494,1.121 c0.092,0.056,0.166,0.146,0.2,0.279c0.275,1.1,0.237,2.373,0.792,3.395c0.31,0.571,0.795,0.65,1.293,1.018 c0.276,0.204,0.329,0.435,0.404,0.74c0.28,1.13,1.055,2.09,1.906,2.91c0.431,0.415,0.893,0.788,1.359,1.166 c0.387,0.313,0.793,0.676,1.273,0.862c0.16,0.062,0.26,0.174,0.308,0.3c0.318,0.168,0.767,0.405,0.767,0.401 c1.535,0.608,3.008,0.66,4.562-0.03c0,0.006,0,0.012,0,0.017c0.008-0.005,0.756-0.362,1.062-0.528 c0.024-0.032,0.052-0.065,0.089-0.095c0.471-0.393,0.992-0.72,1.477-1.096c0.398-0.309,0.725-0.65,1.033-1.021 c-0.071-0.161,0.086-0.022,0.233-0.191c0.689-0.789,1.336-2.032,1.448-3.044c0.006-0.052,0.044-0.09,0.072-0.127 c-0.089-0.281,0.132-0.434,0.539-0.445c0.368-0.009,0.586-0.42,0.868-0.618C47.41,50.348,47.695,49.464,47.928,48.679z"/><path fill="#8e7469" d="M46.064,48.015c0.009-0.128,0.011-0.258-0.004-0.385l0.975,0.186l-0.354,1.745l-0.393-0.071 l0.279-1.379L46.064,48.015z" opacity=".8"/><path fill="#472b29" d="M47.381,46.147c-0.335-0.084-0.691-0.092-1.068-0.138c0-0.04-0.096,0.043-0.096,0.003 c-0.238-0.023-0.364-0.3-0.368-0.59c-0.007-0.584-0.081-1.224-0.028-1.836c0.015-0.552-0.085-0.905-0.193-1.296 c0.017-0.16,0.027-0.322,0.027-0.486c0-3.348-3.507-6.072-7.818-6.072s-7.818,2.724-7.818,6.072c0,0.159,0.01,0.315,0.026,0.471 c-0.042,0.606-0.099,1.145-0.072,1.807c0.024,0.586-0.06,1.021-0.004,1.795c0.031,0.436-0.165,0.155-0.852,0.189 c-0.088,0-0.173,0.001-0.256,0.006c-0.935,0.064-1.65,0.804-1.501,1.605c0.172,0.928,0.378,1.851,0.611,2.768 c0.231,0.907,0.685,1.649,1.788,1.755c0.142,1.179,0.395,1.779,1.15,2.708c1.024,1.263,2.239,2.34,3.707,3.125 c0.152,0.082,1.054,0.574,1.054,0.567c1.535,0.626,3.008,0.678,4.562-0.03c0,0.006,0,0.012,0,0.018 c0.01-0.006,0.978-0.481,1.161-0.602c0.737-0.488,1.488-0.976,2.136-1.559c1.285-1.156,2.498-2.382,2.624-4.231 c1.09-0.097,1.541-0.829,1.774-1.714c0.228-0.868,0.393-1.75,0.577-2.628C48.681,47.012,48.266,46.367,47.381,46.147z M29.757,51.563c-0.546,0.014-0.908-0.198-1.099-0.8c-0.262-0.825-0.653-2.546-0.658-2.562c-0.413-1.255,0.367-1.812,1.757-1.549 v0.729c-0.007,0-0.014,0.606,0.001,0.608L29.757,51.563L29.757,51.563z M45.55,52.425c-0.003,0.326-0.058,0.693-0.223,0.969 c-1.524,2.543-3.668,4.392-6.741,5.126c-1.066,0.255-2.065-0.111-2.992-0.549c-1.943-0.918-3.497-2.266-4.685-3.981 c-0.389-0.562-0.597-1.166-0.567-1.856c0.04-0.912,0.01-1.828,0.01-2.742c0-0.113,0.009-0.225-0.001-0.336 c-0.228-2.51,0.301-7.159,0.301-7.25c0-3.022,3.225-5.481,7.189-5.481s7.318,2.458,7.318,5.481c0,0.062,0.025,0.135,0.023,0.196 c0.272,0.256,0.071,2.699,0.353,3.931c0.031,0.139,0.026,0.287,0.026,0.431C45.561,48.383,45.57,50.404,45.55,52.425z M47.993,47.645c-0.202,1.052-0.448,2.1-0.748,3.131c-0.169,0.582-0.488,0.758-1.092,0.814v-3.592 c0.001-0.001,0.003-0.001,0.004-0.001c-0.001-0.012-0.003-0.022-0.003-0.034v-0.759c-0.004-0.002-0.009-0.004-0.013-0.006v-0.606 c0.325,0,0.627-0.019,0.927,0.004C47.672,46.645,48.101,47.078,47.993,47.645z"/><path fill="#8e7469" d="M29.898,48.328c-0.01-0.135-0.011-0.271,0.004-0.405l-1.024,0.196l0.371,1.835l0.414-0.074 l-0.294-1.45L29.898,48.328z" opacity=".8"/><path fill="#472b29" d="M37.906 51.548c.518 0 1.02-.223 1.344-.596.032-.038.028-.094-.01-.126l0 0c-.038-.032-.095-.028-.128.009-.264.297-.703.467-1.205.467-.503 0-.942-.17-1.206-.467-.018-.02-.043-.03-.069-.03-.021 0-.042.007-.059.022-.038.032-.042.089-.01.126C36.887 51.325 37.389 51.548 37.906 51.548zM36.254 44.649l.329-.622c-1.39-.321-2.99-.27-4.31.134l.414.606C33.772 44.413 35.107 44.369 36.254 44.649zM43.213 44.649l.329-.622c-1.39-.321-2.99-.27-4.31.134l.414.606C40.731 44.413 42.065 44.369 43.213 44.649zM34.254 45.526c-.334 0-.627.218-.796.546.042-.013.086-.022.132-.022.274 0 .496.244.496.546 0 .302-.222.546-.496.546-.089 0-.173-.028-.245-.074.117.494.48.855.909.855.524 0 .95-.536.95-1.198C35.203 46.063 34.779 45.526 34.254 45.526zM41.519 45.526c-.285 0-.54.159-.714.41.054-.022.113-.037.174-.037.274 0 .496.244.496.546 0 .301-.222.546-.496.546-.17 0-.319-.095-.409-.237.012.648.432 1.169.948 1.169.524 0 .95-.536.95-1.198S42.044 45.526 41.519 45.526zM41.922 52.936c.039-.031.045-.088.013-.126l0 0c-.031-.038-.089-.045-.128-.014-.856.673-2.278 1.059-3.9 1.059s-3.044-.386-3.901-1.059c-.017-.013-.037-.019-.057-.019-.026 0-.053.012-.071.033-.031.038-.026.095.013.126.966.779 2.468 1.244 4.015 1.244C39.454 54.18 40.955 53.715 41.922 52.936z"/><path fill="#68c8d0" d="M48.919,63.54c-0.493-0.348-1.061-0.603-1.663-0.77l-0.633-0.168 c0.004-0.001,0.009-0.002,0.012-0.004l-3.301-1.07c-1.675,0.45-3.471,0.697-5.344,0.697c-1.873,0-3.67-0.248-5.344-0.697 l-3.301,1.07c0.004,0.001,0.009,0.002,0.013,0.004l-0.649,0.173c-0.518,0.143-1.015,0.347-1.451,0.632 c-2.282,1.49-2.347,3.927-2.442,4.381c-0.008,0.039,0.026,0.074,0.07,0.074h13.105h13.105c0.045,0,0.078-0.035,0.07-0.074 C51.074,67.348,51.041,65.038,48.919,63.54z"/><path fill="#472b29" d="M37.928 62.405c-1.764 0-3.83-.283-5.669-.776-.097-.026-.155-.126-.129-.222.026-.096.126-.152.225-.127 1.809.485 3.841.764 5.573.764.68 0 1.367-.034 2.043-.1.105-.011.19.064.2.162.01.099-.063.188-.164.197C39.32 62.371 38.62 62.405 37.928 62.405zM41.318 62.13c-.088 0-.165-.063-.18-.152-.016-.098.051-.191.151-.207.138-.022.276-.046.412-.072.125-.023.25-.048.376-.074.097-.015.195.043.216.141.02.097-.044.193-.143.213-.126.025-.253.05-.381.074-.14.026-.28.051-.421.074C41.338 62.129 41.327 62.13 41.318 62.13zM24.886 67.971c-.021 0-.042-.006-.06-.017-.051-.033-.065-.1-.031-.15l3.533-5.329c.033-.05.102-.065.152-.032s.065.1.031.15l-3.533 5.329C24.957 67.952 24.922 67.971 24.886 67.971zM25.974 68.15c-.021 0-.042-.006-.06-.017-.051-.033-.065-.1-.031-.15l3.945-5.95c.033-.051.102-.065.152-.032s.065.1.031.15l-3.945 5.95C26.045 68.131 26.01 68.15 25.974 68.15zM27.32 67.971c-.021 0-.042-.006-.06-.017-.051-.033-.065-.1-.031-.15l3.945-5.95c.033-.05.102-.064.152-.032.051.033.065.1.031.15l-3.945 5.95C27.391 67.952 27.355 67.971 27.32 67.971zM28.419 68.15c-.021 0-.042-.006-.06-.017-.051-.033-.065-.1-.031-.15l3.945-5.95c.034-.051.102-.065.152-.032s.065.1.031.15l-3.945 5.95C28.49 68.131 28.455 68.15 28.419 68.15zM29.558 68.281c-.021 0-.042-.006-.06-.017-.051-.033-.065-.1-.031-.15l2.803-4.228c.033-.05.102-.064.152-.032.051.033.065.1.031.15l-2.803 4.228C29.628 68.264 29.594 68.281 29.558 68.281zM30.738 68.414c-.021 0-.042-.006-.06-.017-.051-.033-.065-.1-.031-.15l1.401-2.114c.033-.05.101-.064.152-.032.051.033.065.1.031.15l-1.401 2.114C30.809 68.396 30.773 68.414 30.738 68.414z"/><g><path fill="#512c2b" d="M38.765,56.334c0.045,0,0.084-0.052,0.084-0.113s-0.038-0.113-0.084-0.113h-1.882 c-0.045,0-0.084,0.052-0.084,0.113s0.038,0.113,0.084,0.113H38.765z"/></g><g><path fill="#be7841" d="M46.971,36.242c-0.055-0.407-0.5-0.346-0.939-0.321c-1.37,0.08-1.705-0.351-4.503-1.889 c-2.788-1.533-5.641-0.922-7.542,0.398c-8.746,1.885-3.623,12.972-3.623,12.972s-0.032-5.836,2.673-7.61 c4.529,2.884,8.851,3.227,11.486,1.511c1.017,2.214,0.991,6.098,0.991,6.098s2.109-3.504,0.794-7.759 C45.985,38.6,47.15,37.572,46.971,36.242L46.971,36.242z"/></g><g><path fill="#472b29" d="M45.904,47.373l-0.5-0.004c0-0.036,0.012-3.563-0.874-5.734c-2.887,1.659-7.274,1.066-11.569-1.575 c-2.479,1.78-2.477,7.254-2.477,7.311l-0.5,0.002c-0.001-0.243-0.001-5.994,2.835-7.82c0.082-0.052,0.186-0.052,0.268-0.002 c4.299,2.688,8.676,3.27,11.422,1.512c0.06-0.037,0.135-0.049,0.205-0.029c0.069,0.021,0.126,0.069,0.157,0.135 C45.918,43.406,45.905,47.212,45.904,47.373z"/></g></g><g><path fill="#fdfcef" d="M31.178,77.287c1.883,0,3.517,0,3.54,0c2.11,0,3.821-1.674,3.821-3.739 c0-1.802-1.302-3.305-3.035-3.66c0.02-0.158,0.034-0.317,0.034-0.48c0-2.139-1.772-3.873-3.957-3.873 c-1.29,0-2.433,0.607-3.155,1.543c-0.185-2.381-2.358-4.218-4.9-3.913c-1.859,0.223-3.397,1.629-3.739,3.431 c-0.11,0.578-0.098,1.139,0.011,1.665c-0.498-0.525-1.208-0.856-1.998-0.856c-1.446,0-2.627,1.102-2.72,2.494 c-0.657-0.142-1.371-0.133-2.123,0.143c-1.438,0.528-2.462,1.853-2.522,3.356c-0.085,2.133,1.657,3.889,3.818,3.889 c0.164,0,0.741,0,0.874,0h7.934 M24.701,77.287h0.36"/><path fill="#472b29" d="M34.718,77.788h-3.54c-0.276,0-0.5-0.224-0.5-0.5s0.224-0.5,0.5-0.5h3.54 c1.831,0,3.321-1.453,3.321-3.239c0-1.524-1.108-2.858-2.636-3.17c-0.256-0.053-0.429-0.294-0.396-0.554 c0.018-0.137,0.03-0.275,0.03-0.417c0-1.86-1.551-3.373-3.457-3.373c-1.092,0-2.098,0.491-2.76,1.349 c-0.126,0.164-0.341,0.231-0.539,0.174c-0.198-0.06-0.339-0.234-0.355-0.44c-0.079-1.02-0.565-1.944-1.369-2.604 c-0.829-0.68-1.885-0.979-2.973-0.853c-1.646,0.197-3.006,1.442-3.307,3.027c-0.094,0.495-0.091,0.99,0.009,1.472 c0.045,0.219-0.06,0.441-0.258,0.545c-0.197,0.102-0.44,0.063-0.594-0.1c-0.428-0.451-1.009-0.7-1.635-0.7 c-1.169,0-2.145,0.891-2.221,2.027c-0.01,0.146-0.082,0.278-0.198,0.366c-0.116,0.087-0.264,0.12-0.406,0.089 c-0.639-0.138-1.243-0.098-1.846,0.125c-1.262,0.463-2.144,1.631-2.195,2.905c-0.035,0.876,0.283,1.709,0.895,2.346 c0.635,0.66,1.496,1.024,2.423,1.024h8.807c0.276,0,0.5,0.224,0.5,0.5s-0.224,0.5-0.5,0.5h-8.807 c-1.185,0-2.331-0.485-3.144-1.331c-0.803-0.836-1.219-1.929-1.173-3.078c0.067-1.675,1.212-3.204,2.849-3.806 c0.61-0.225,1.24-0.304,1.88-0.244c0.344-1.396,1.629-2.424,3.135-2.424c0.493,0,0.977,0.113,1.414,0.323 c0.009-0.242,0.037-0.484,0.083-0.727c0.381-2.009,2.096-3.585,4.17-3.833c1.365-0.167,2.685,0.218,3.726,1.071 c0.748,0.613,1.278,1.409,1.546,2.302c0.791-0.648,1.786-1.007,2.842-1.007c2.458,0,4.457,1.962,4.457,4.373 c0,0.034,0,0.068-0.001,0.103c1.764,0.555,3.003,2.188,3.003,4.038C39.039,75.886,37.101,77.788,34.718,77.788z M25.061,77.788 h-0.36c-0.276,0-0.5-0.224-0.5-0.5s0.224-0.5,0.5-0.5h0.36c0.276,0,0.5,0.224,0.5,0.5S25.337,77.788,25.061,77.788z"/><g><path fill="#472b29" d="M33.011,71.984c-0.018,0-0.036-0.002-0.055-0.006c-0.135-0.03-0.22-0.164-0.189-0.299 c0.037-0.164,0.094-0.325,0.17-0.479c0.604-1.224,2.272-1.677,3.722-1.007c0.125,0.058,0.18,0.206,0.122,0.331 c-0.058,0.126-0.207,0.179-0.332,0.122c-1.201-0.556-2.577-0.208-3.063,0.774c-0.058,0.118-0.102,0.242-0.13,0.367 C33.229,71.905,33.126,71.984,33.011,71.984z"/></g><g><path fill="#472b29" d="M27.852,77.788h-1.107c-0.276,0-0.5-0.224-0.5-0.5s0.224-0.5,0.5-0.5h1.107 c0.276,0,0.5,0.224,0.5,0.5S28.129,77.788,27.852,77.788z"/></g></g><g><path fill="#fff" d="M16.405 52H6.5C6.224 52 6 51.776 6 51.5S6.224 51 6.5 51h9.905c.276 0 .5.224.5.5S16.682 52 16.405 52zM19.5 52h-1c-.276 0-.5-.224-.5-.5s.224-.5.5-.5h1c.276 0 .5.224.5.5S19.777 52 19.5 52zM24.491 54H15.5c-.276 0-.5-.224-.5-.5s.224-.5.5-.5h8.991c.276 0 .5.224.5.5S24.767 54 24.491 54zM13.5 54h-1c-.276 0-.5-.224-.5-.5s.224-.5.5-.5h1c.276 0 .5.224.5.5S13.777 54 13.5 54zM10.5 54h-2C8.224 54 8 53.776 8 53.5S8.224 53 8.5 53h2c.276 0 .5.224.5.5S10.777 54 10.5 54zM16.5 56h-2c-.276 0-.5-.224-.5-.5s.224-.5.5-.5h2c.276 0 .5.224.5.5S16.776 56 16.5 56zM19.5 47c-.177 0-.823 0-1 0-.276 0-.5.224-.5.5 0 .276.224.5.5.5.177 0 .823 0 1 0 .276 0 .5-.224.5-.5C20 47.224 19.776 47 19.5 47zM19.5 49c-.177 0-4.823 0-5 0-.276 0-.5.224-.5.5 0 .276.224.5.5.5.177 0 4.823 0 5 0 .276 0 .5-.224.5-.5C20 49.224 19.776 49 19.5 49zM24.5 51c-.177 0-2.823 0-3 0-.276 0-.5.224-.5.5 0 .276.224.5.5.5.177 0 2.823 0 3 0 .276 0 .5-.224.5-.5C25 51.224 24.776 51 24.5 51z"/></g><g><path fill="#fff" d="M45.5 21h-10c-.276 0-.5-.224-.5-.5s.224-.5.5-.5h10c.276 0 .5.224.5.5S45.776 21 45.5 21zM49.5 21h-2c-.276 0-.5-.224-.5-.5s.224-.5.5-.5h2c.276 0 .5.224.5.5S49.776 21 49.5 21zM54.5 23h-10c-.276 0-.5-.224-.5-.5s.224-.5.5-.5h10c.276 0 .5.224.5.5S54.777 23 54.5 23zM42.5 23h-1c-.276 0-.5-.224-.5-.5s.224-.5.5-.5h1c.276 0 .5.224.5.5S42.776 23 42.5 23zM39.375 23H37.5c-.276 0-.5-.224-.5-.5s.224-.5.5-.5h1.875c.276 0 .5.224.5.5S39.651 23 39.375 23zM48.5 19h-5c-.276 0-.5-.224-.5-.5s.224-.5.5-.5h5c.276 0 .5.224.5.5S48.777 19 48.5 19zM45.5 25h-2c-.276 0-.5-.224-.5-.5s.224-.5.5-.5h2c.276 0 .5.224.5.5S45.776 25 45.5 25z"/></g><g><path fill="#fdfcee" d="M76.305 60.492999999999995A10.429 10.429 0 1 0 76.305 81.351A10.429 10.429 0 1 0 76.305 60.492999999999995Z"/><path fill="#472b29" d="M76.305,81.852c-6.027,0-10.93-4.903-10.93-10.93s4.903-10.93,10.93-10.93 s10.93,4.903,10.93,10.93S82.332,81.852,76.305,81.852z M76.305,60.992c-5.475,0-9.93,4.454-9.93,9.93s4.455,9.93,9.93,9.93 s9.93-4.454,9.93-9.93S81.78,60.992,76.305,60.992z"/><path fill="#93bc39" d="M76.305 62.449A8.473 8.473 0 1 0 76.305 79.395A8.473 8.473 0 1 0 76.305 62.449Z"/><path fill="#472b29" d="M76.305,79.721c-4.852,0-8.799-3.947-8.799-8.799s3.947-8.799,8.799-8.799 s8.799,3.947,8.799,8.799S81.157,79.721,76.305,79.721z M76.305,62.773c-4.493,0-8.148,3.655-8.148,8.148 s3.655,8.148,8.148,8.148s8.148-3.655,8.148-8.148S80.798,62.773,76.305,62.773z"/><g><path fill="#fdfcee" d="M79.938,70.619h-3.33v-3.33c0-0.166-0.136-0.303-0.303-0.303s-0.303,0.136-0.303,0.303v3.33h-3.33 c-0.166,0-0.303,0.136-0.303,0.303s0.136,0.303,0.303,0.303h3.33v3.33c0,0.166,0.136,0.303,0.303,0.303s0.303-0.136,0.303-0.303 v-3.33h3.33c0.166,0,0.303-0.136,0.303-0.303S80.104,70.619,79.938,70.619z"/><path fill="#472b29" d="M76.305,66.987c0.166,0,0.303,0.136,0.303,0.303v3.33h3.33c0.166,0,0.303,0.136,0.303,0.303 s-0.136,0.303-0.303,0.303h-3.33v3.33c0,0.167-0.136,0.303-0.303,0.303s-0.303-0.136-0.303-0.303v-3.33h-3.33 c-0.166,0-0.303-0.136-0.303-0.303s0.136-0.303,0.303-0.303h3.33v-3.33C76.002,67.123,76.139,66.987,76.305,66.987 M76.305,66.337c-0.525,0-0.953,0.427-0.953,0.953v2.68h-2.68c-0.525,0-0.953,0.427-0.953,0.953s0.427,0.953,0.953,0.953h2.68 v2.68c0,0.525,0.427,0.953,0.953,0.953s0.953-0.427,0.953-0.953v-2.68h2.68c0.525,0,0.953-0.427,0.953-0.953 s-0.427-0.953-0.953-0.953h-2.68v-2.68C77.258,66.764,76.83,66.337,76.305,66.337L76.305,66.337z"/></g></g></svg>