<svg xmlns="http://www.w3.org/2000/svg" width="100" height="100" fill="#000" viewBox="0 0 50 50"><path d="M 6 6.0039062 C 5.199 6.0039062 4.4449063 6.3168125 3.8789062 6.8828125 C 3.3119062 7.4498125 3 8.2019063 3 9.0039062 L 3.0058594 42 C 3.0058594 43.103 3.9028594 44 5.0058594 44 L 28.697266 44 C 28.469266 43.356 28.295687 42.689 28.179688 42 L 5.0058594 42 L 5 9.0039062 C 5 8.7369063 5.1039687 8.485875 5.2929688 8.296875 C 5.4809687 8.108875 5.732 8.0039062 6 8.0039062 L 6.0019531 8.0039062 L 16.994141 8.0078125 C 17.545141 8.0078125 17.994141 8.4568125 17.994141 9.0078125 L 17.994141 15.003906 L 44.994141 15 L 44.994141 29.099609 C 45.701141 29.423609 46.369141 29.813672 46.994141 30.263672 L 46.994141 15 C 46.994141 13.897 46.097141 13 44.994141 13 L 19.994141 13.003906 L 19.994141 9.0078125 C 19.994141 7.3548125 18.648141 6.0078125 16.994141 6.0078125 L 6.0019531 6.0039062 L 6 6.0039062 z M 21.994141 6.0039062 A 1 1 0 0 0 20.994141 7.0039062 A 1 1 0 0 0 21.994141 8.0039062 A 1 1 0 0 0 22.994141 7.0039062 A 1 1 0 0 0 21.994141 6.0039062 z M 25.994141 6.0039062 A 1 1 0 0 0 24.994141 7.0039062 A 1 1 0 0 0 25.994141 8.0039062 A 1 1 0 0 0 26.994141 7.0039062 A 1 1 0 0 0 25.994141 6.0039062 z M 29.994141 6.0039062 A 1 1 0 0 0 28.994141 7.0039062 A 1 1 0 0 0 29.994141 8.0039062 A 1 1 0 0 0 30.994141 7.0039062 A 1 1 0 0 0 29.994141 6.0039062 z M 33.994141 6.0039062 A 1 1 0 0 0 32.994141 7.0039062 A 1 1 0 0 0 33.994141 8.0039062 A 1 1 0 0 0 34.994141 7.0039062 A 1 1 0 0 0 33.994141 6.0039062 z M 37.994141 6.0039062 A 1 1 0 0 0 36.994141 7.0039062 A 1 1 0 0 0 37.994141 8.0039062 A 1 1 0 0 0 38.994141 7.0039062 A 1 1 0 0 0 37.994141 6.0039062 z M 41.994141 6.0039062 A 1 1 0 0 0 40.994141 7.0039062 A 1 1 0 0 0 41.994141 8.0039062 A 1 1 0 0 0 42.994141 7.0039062 A 1 1 0 0 0 41.994141 6.0039062 z M 45.994141 6.0039062 A 1 1 0 0 0 44.994141 7.0039062 A 1 1 0 0 0 45.994141 8.0039062 A 1 1 0 0 0 46.994141 7.0039062 A 1 1 0 0 0 45.994141 6.0039062 z M 45.994141 10.003906 A 1 1 0 0 0 44.994141 11.003906 A 1 1 0 0 0 45.994141 12.003906 A 1 1 0 0 0 46.994141 11.003906 A 1 1 0 0 0 45.994141 10.003906 z M 40 30 C 34.5 30 30 34.5 30 40 C 30 45.5 34.5 50 40 50 C 45.5 50 50 45.5 50 40 C 50 34.5 45.5 30 40 30 z M 40 32 C 44.4 32 48 35.6 48 40 C 48 44.4 44.4 48 40 48 C 35.6 48 32 44.4 32 40 C 32 35.6 35.6 32 40 32 z M 40 34.099609 C 39.4 34.099609 39 34.499609 39 35.099609 L 39 39 L 35.099609 39 C 34.499609 39 34.099609 39.4 34.099609 40 C 34.099609 40.6 34.499609 41 35.099609 41 L 39 41 L 39 44.900391 C 39 45.500391 39.4 45.900391 40 45.900391 C 40.6 45.900391 41 45.500391 41 44.900391 L 41 41 L 44.900391 41 C 45.500391 41 45.900391 40.6 45.900391 40 C 45.900391 39.4 45.500391 39 44.900391 39 L 41 39 L 41 35.099609 C 41 34.499609 40.6 34.099609 40 34.099609 z"/></svg>