<svg xmlns="http://www.w3.org/2000/svg" width="50" height="50" viewBox="0 0 128 128"><path fill="#fff" d="M103,69H25c-3.3,0-6,2.7-6,6s2.7,6,6,6h3.3l4.5,34.3c0.7,5,4.9,8.7,9.9,8.7h42.5c5,0,9.3-3.7,9.9-8.7L99.7,81h3.3c3.3,0,6-2.7,6-6S106.3,69,103,69z"/><path fill="#444b54" d="M103 66H25c-5 0-9 4-9 9s4 9 9 9h.7l4.2 31.7c.8 6.4 6.4 11.3 12.9 11.3h42.5c6.5 0 12-4.9 12.9-11.3l4.2-31.7h.7c5 0 9-4 9-9S108 66 103 66zM92.2 114.9c-.5 3.5-3.4 6.1-6.9 6.1H42.8c-3.5 0-6.5-2.6-6.9-6.1L31.7 84h64.5L92.2 114.9zM103 78H25c-1.7 0-3-1.3-3-3s1.3-3 3-3h78c1.7 0 3 1.3 3 3S104.7 78 103 78zM85.3 6.3c-.7-1.5-2.5-2.1-4-1.4-13.2 6.5-21.1 19.7-21.2 33.9l-4-4c-1.2-1.2-3.1-1.2-4.2 0-1.2 1.2-1.2 3.1 0 4.2l10 10c.6.6 1.3.9 2.1.9.5 0 1-.1 1.5-.4.2-.1.5-.3.6-.5 0 0 0 0 0 0l10-10c1.2-1.2 1.2-3.1 0-4.2-1.2-1.2-3.1-1.2-4.2 0l-5.8 5.8C65.5 28 72.3 16.1 83.9 10.3 85.4 9.6 86 7.8 85.3 6.3zM98.1 1A3 3 0 1 0 98.1 7 3 3 0 1 0 98.1 1z"/></svg>