<svg xmlns="http://www.w3.org/2000/svg" width="50" height="50" viewBox="0 0 40 40"><path fill="#f5ce85" d="M17.519,38.475c-0.591,0-1.147-0.23-1.566-0.648L2.148,24.022c-0.863-0.863-0.863-2.269,0-3.132 L20.54,2.524C21.2,1.864,22.079,1.5,23.013,1.5H35c1.93,0,3.5,1.57,3.5,3.5v12.008c0,0.937-0.365,1.816-1.028,2.478l-18.387,18.34 C18.666,38.245,18.11,38.475,17.519,38.475z M33.143,4.857c-1.103,0-2,0.897-2,2s0.897,2,2,2s2-0.897,2-2 S34.246,4.857,33.143,4.857z"/><path fill="#967a44" d="M35,2c1.654,0,3,1.346,3,3v12.008c0,0.803-0.313,1.557-0.881,2.124L18.731,37.473 c-0.324,0.324-0.754,0.502-1.212,0.502c-0.458,0-0.888-0.178-1.212-0.502L2.502,23.669c-0.668-0.668-0.668-1.756,0-2.424 L20.893,2.877C21.459,2.312,22.212,2,23.013,2H35 M33.143,9.357c1.379,0,2.5-1.122,2.5-2.5s-1.121-2.5-2.5-2.5 c-1.378,0-2.5,1.122-2.5,2.5S31.764,9.357,33.143,9.357 M35,1H23.013c-1.06,0-2.077,0.421-2.827,1.17L1.795,20.537 c-1.06,1.06-1.06,2.779,0,3.839L15.599,38.18c0.53,0.53,1.225,0.795,1.919,0.795c0.695,0,1.389-0.265,1.919-0.795l18.387-18.34 C38.577,19.09,39,18.071,39,17.008V5C39,2.791,37.209,1,35,1L35,1z M33.143,8.357c-0.828,0-1.5-0.672-1.5-1.5 c0-0.828,0.672-1.5,1.5-1.5c0.828,0,1.5,0.672,1.5,1.5C34.643,7.686,33.971,8.357,33.143,8.357L33.143,8.357z"/><path fill="#bae0bd" d="M31 22.5A8.5 8.5 0 1 0 31 39.5A8.5 8.5 0 1 0 31 22.5Z"/><path fill="#5e9c76" d="M31,23c4.411,0,8,3.589,8,8s-3.589,8-8,8s-8-3.589-8-8S26.589,23,31,23 M31,22 c-4.971,0-9,4.029-9,9s4.029,9,9,9s9-4.029,9-9S35.971,22,31,22L31,22z"/><path fill="none" stroke="#fff" stroke-miterlimit="10" stroke-width="2" d="M31 36L31 26M26 31L36 31"/></svg>