<svg xmlns="http://www.w3.org/2000/svg" width="500" height="500" fill="#000" viewBox="0 0 24 24"><path d="M 12 0.98828125 L 8.6015625 7.875 L 1 8.9804688 L 6.5 14.341797 L 5.2011719 21.910156 L 12 18.337891 L 18.798828 21.910156 L 17.5 14.341797 L 23 8.9804688 L 15.398438 7.8769531 L 12 0.98828125 z M 12 4.3769531 L 14.054688 8.5390625 L 14.402344 9.2460938 L 15.183594 9.359375 L 19.775391 10.025391 L 16.451172 13.265625 L 15.886719 13.816406 L 16.019531 14.59375 L 16.804688 19.167969 L 12.697266 17.007812 L 12 16.642578 L 11.302734 17.009766 L 7.1933594 19.169922 L 7.9785156 14.595703 L 8.1113281 13.818359 L 7.546875 13.267578 L 4.2226562 10.027344 L 8.8164062 9.359375 L 9.5976562 9.2460938 L 9.9453125 8.5390625 L 12 4.3769531 z M 11 9 L 11 11 L 9 11 L 9 13 L 11 13 L 11 15 L 13 15 L 13 13 L 15 13 L 15 11 L 13 11 L 13 9 L 11 9 z"/></svg>