<svg xmlns="http://www.w3.org/2000/svg" width="300" height="300" fill="#000" viewBox="0 0 50 50"><path d="M 19.279297 4 C 18.865297 4 18.494703 4.254625 18.345703 4.640625 L 4.0664062 41.640625 C 3.9474063 41.948625 3.9897813 42.294406 4.1757812 42.566406 C 4.3627813 42.838406 4.67 43 5 43 L 9.9824219 43 C 10.402422 43 10.777875 42.73775 10.921875 42.34375 L 14.691406 32 L 28.962891 32 L 29.876953 34.550781 C 30.269953 33.824781 30.743344 33.149344 31.277344 32.527344 L 30.609375 30.662109 C 30.466375 30.265109 30.089969 30 29.667969 30 L 13.992188 30 C 13.572188 30 13.196734 30.26225 13.052734 30.65625 L 9.28125 41 L 6.4570312 41 L 19.964844 6 L 23.986328 6 L 33.486328 30.533203 C 34.039328 30.151203 34.631047 29.822016 35.248047 29.541016 L 25.603516 4.6386719 C 25.453516 4.2536719 25.084875 4 24.671875 4 L 19.279297 4 z M 21.847656 8.4570312 C 21.427656 8.4570312 21.052203 8.7202344 20.908203 9.1152344 L 14.511719 26.658203 C 14.399719 26.965203 14.445813 27.306219 14.632812 27.574219 C 14.819812 27.842219 15.125172 28 15.451172 28 L 28.234375 28 C 28.559375 28 28.866734 27.841219 29.052734 27.574219 C 29.240734 27.308219 29.284781 26.968109 29.175781 26.662109 L 22.890625 9.1191406 C 22.748625 8.7221406 22.371219 8.4570312 21.949219 8.4570312 L 21.847656 8.4570312 z M 21.890625 12.255859 L 26.8125 26 L 16.880859 26 L 21.890625 12.255859 z M 40 30 C 34.488997 30 30 34.488997 30 40 C 30 45.511003 34.488997 50 40 50 C 45.511003 50 50 45.511003 50 40 C 50 34.488997 45.511003 30 40 30 z M 40 32 C 44.430123 32 48 35.569877 48 40 C 48 44.430123 44.430123 48 40 48 C 35.569877 48 32 44.430123 32 40 C 32 35.569877 35.569877 32 40 32 z M 40 34.099609 C 39.85 34.099609 39.711719 34.125 39.589844 34.171875 C 39.467969 34.21875 39.362891 34.2875 39.275391 34.375 C 39.187891 34.4625 39.119141 34.569531 39.072266 34.691406 C 39.025391 34.813281 39 34.949609 39 35.099609 L 39 39 L 35.099609 39 C 34.949609 39 34.813281 39.025391 34.691406 39.072266 C 34.569531 39.119141 34.4625 39.187891 34.375 39.275391 C 34.2875 39.362891 34.21875 39.467969 34.171875 39.589844 C 34.125 39.711719 34.099609 39.85 34.099609 40 C 34.099609 40.15 34.125 40.288281 34.171875 40.410156 C 34.265625 40.653906 34.447656 40.833984 34.691406 40.927734 C 34.813281 40.974609 34.949609 41 35.099609 41 L 39 41 L 39 44.900391 C 39 45.500391 39.4 45.900391 40 45.900391 C 40.6 45.900391 41 45.500391 41 44.900391 L 41 41 L 44.900391 41 C 45.500391 41 45.900391 40.6 45.900391 40 C 45.900391 39.4 45.500391 39 44.900391 39 L 41 39 L 41 35.099609 C 41 34.499609 40.6 34.099609 40 34.099609 z"/></svg>