<svg fill="#000000" xmlns="http://www.w3.org/2000/svg" viewBox="0 0 64 64" width="500px" height="500px"><path d="M 24.824219 0 C 16.800781 0 9.976563 5.46875 8.234375 13.277344 L 5.78125 23.269531 C 5.277344 25.527344 4.375 27.65625 3.101563 29.589844 L 1.4375 32.109375 C 0.945313 32.859375 0.8125 33.777344 1.074219 34.636719 C 1.339844 35.496094 1.96875 36.1875 2.804688 36.535156 C 4.171875 37.101563 7.082031 38.085938 9.617188 38.859375 L 6.492188 40.671875 C 2.492188 42.980469 0 47.300781 0 51.921875 L 0 57 C 0 58.648438 1.351563 60 3 60 L 41.628906 60 C 43.992188 62.460938 47.320313 64 51 64 C 58.171875 64 64 58.171875 64 51 C 64 43.828125 58.171875 38 51 38 C 48.519531 38 46.191406 38.699219 44.210938 39.921875 L 42.617188 38.996094 C 45.210938 38.136719 48.175781 36.945313 49.199219 36.527344 C 50.027344 36.1875 50.660156 35.5 50.925781 34.644531 C 51.195313 33.785156 51.0625 32.859375 50.570313 32.105469 L 48.710938 29.261719 C 47.476563 27.375 46.597656 25.304688 46.089844 23.082031 L 43.824219 14.203125 C 42.136719 6.847656 35.75 1.472656 28.230469 1.042969 C 27.207031 0.359375 26.035156 0 24.824219 0 Z M 24.824219 2 C 25.707031 2 26.5625 2.285156 27.296875 2.828125 C 27.457031 2.949219 27.652344 3.019531 27.851563 3.023438 C 34.601563 3.292969 40.367188 8.074219 41.878906 14.671875 L 44.144531 23.554688 C 44.703125 25.980469 45.671875 28.269531 47.035156 30.355469 L 48.894531 33.199219 C 49.0625 33.453125 49.105469 33.761719 49.015625 34.046875 C 48.960938 34.214844 48.820313 34.523438 48.4375 34.675781 C 47.191406 35.1875 42.972656 36.882813 40.257813 37.628906 L 36.289063 35.328125 C 37.449219 33.589844 38.378906 31.667969 39.011719 29.730469 C 40.238281 29.269531 41.359375 27.769531 41.902344 25.78125 C 42.210938 24.597656 42.28125 23.410156 42.078125 22.429688 C 41.828125 21.21875 41.199219 20.410156 40.289063 20.171875 C 40.167969 20.140625 40.019531 20.109375 39.859375 20.109375 C 39.75 19.300781 39.570313 18.519531 39.328125 17.75 C 39.160156 17.21875 38.589844 16.929688 38.070313 17.097656 C 37.539063 17.269531 37.25 17.828125 37.421875 18.347656 C 37.738281 19.347656 37.921875 20.378906 37.96875 21.429688 C 37.992188 21.789063 38.191406 22.109375 38.511719 22.28125 C 38.828125 22.4375 39.210938 22.417969 39.511719 22.21875 C 39.691406 22.109375 39.78125 22.097656 39.78125 22.097656 C 39.808594 22.109375 40 22.277344 40.121094 22.828125 C 40.25 23.5 40.199219 24.390625 39.96875 25.261719 C 39.71875 26.179688 39.359375 26.839844 39.019531 27.261719 C 38.691406 27.679688 38.378906 27.878906 38.230469 27.878906 C 37.789063 27.878906 37.398438 28.167969 37.269531 28.597656 C 36.679688 30.578125 35.761719 32.578125 34.570313 34.328125 C 34.199219 34.886719 33.800781 35.429688 33.359375 35.9375 C 31.339844 38.351563 28.78125 40 26 40 C 23.21875 40 20.660156 38.347656 18.640625 35.9375 C 18.199219 35.429688 17.800781 34.890625 17.429688 34.328125 C 16.238281 32.578125 15.320313 30.578125 14.730469 28.597656 C 14.601563 28.167969 14.210938 27.878906 13.769531 27.878906 C 13.46875 27.878906 12.53125 27.101563 12.03125 25.261719 C 11.800781 24.390625 11.75 23.5 11.878906 22.828125 C 12 22.269531 12.191406 22.109375 12.210938 22.097656 C 12.222656 22.097656 12.300781 22.109375 12.488281 22.21875 C 12.789063 22.421875 13.171875 22.4375 13.488281 22.28125 C 13.808594 22.109375 14.007813 21.789063 14.03125 21.429688 C 14.078125 20.390625 14.261719 19.359375 14.578125 18.371094 C 14.738281 17.839844 14.449219 17.28125 13.921875 17.109375 C 13.398438 16.9375 12.839844 17.238281 12.671875 17.769531 C 12.429688 18.53125 12.25 19.308594 12.140625 20.109375 C 11.980469 20.109375 11.832031 20.140625 11.710938 20.171875 C 10.800781 20.410156 10.171875 21.21875 9.921875 22.429688 C 9.71875 23.410156 9.789063 24.597656 10.097656 25.78125 C 10.640625 27.769531 11.761719 29.269531 12.988281 29.730469 C 13.621094 31.671875 14.550781 33.589844 15.710938 35.328125 L 12.003906 37.476563 C 9.28125 36.714844 5.234375 35.378906 3.570313 34.6875 C 3.289063 34.574219 3.074219 34.339844 2.984375 34.050781 C 2.933594 33.882813 2.882813 33.550781 3.109375 33.207031 L 4.769531 30.6875 C 6.175781 28.550781 7.171875 26.203125 7.726563 23.722656 L 10.183594 13.730469 C 11.726563 6.824219 17.746094 2 24.824219 2 Z M 20.527344 12.125 C 19.8125 12.0625 19.09375 12.390625 18.683594 13.015625 L 17.078125 15.449219 C 16.773438 15.910156 16.902344 16.53125 17.363281 16.835938 C 17.53125 16.949219 17.722656 17 17.910156 17 C 18.238281 17 18.554688 16.84375 18.75 16.550781 L 20.355469 14.117188 L 21.917969 14.878906 C 24.765625 16.265625 27.941406 17 31.109375 17 L 33.667969 17 C 34.222656 17 34.667969 16.550781 34.667969 16 C 34.667969 15.449219 34.222656 15 33.667969 15 L 31.109375 15 C 28.246094 15 25.367188 14.335938 22.792969 13.078125 L 21.230469 12.316406 C 21.003906 12.207031 20.765625 12.144531 20.527344 12.125 Z M 16.910156 36.9375 C 19.332031 39.910156 22.5 42 26 42 C 29.5 42 32.667969 39.910156 35.089844 36.9375 L 42.449219 41.210938 C 39.71875 43.601563 38 47.101563 38 51 C 38 53.570313 38.75 55.980469 40.050781 58 L 3 58 C 2.449219 58 2 57.550781 2 57 L 2 51.921875 C 2 48.011719 4.101563 44.359375 7.492188 42.402344 Z M 51 40 C 57.070313 40 62 44.929688 62 51 C 62 57.070313 57.070313 62 51 62 C 48.640625 62 46.46875 61.261719 44.679688 60 C 43.871094 59.429688 43.140625 58.761719 42.511719 58 C 40.941406 56.089844 40 53.660156 40 51 C 40 47.449219 41.691406 44.289063 44.300781 42.28125 C 44.890625 41.820313 45.527344 41.429688 46.199219 41.097656 C 47.648438 40.390625 49.28125 40 51 40 Z M 18.0625 42 C 17.675781 41.976563 17.289063 42.183594 17.105469 42.550781 C 16.859375 43.046875 17.058594 43.648438 17.550781 43.894531 L 25.550781 47.894531 C 25.695313 47.964844 25.847656 48 26 48 C 26.152344 48 26.308594 47.964844 26.449219 47.894531 L 34.449219 43.894531 C 34.941406 43.648438 35.140625 43.046875 34.894531 42.550781 C 34.648438 42.058594 34.046875 41.859375 33.550781 42.105469 L 26 45.882813 L 18.449219 42.105469 C 18.324219 42.042969 18.195313 42.011719 18.0625 42 Z M 51 44 C 50.445313 44 50 44.449219 50 45 L 50 50 L 45 50 C 44.445313 50 44 50.449219 44 51 C 44 51.550781 44.445313 52 45 52 L 50 52 L 50 57 C 50 57.550781 50.445313 58 51 58 C 51.554688 58 52 57.550781 52 57 L 52 52 L 57 52 C 57.554688 52 58 51.550781 58 51 C 58 50.449219 57.554688 50 57 50 L 52 50 L 52 45 C 52 44.449219 51.554688 44 51 44 Z M 6 52 C 5.445313 52 5 52.449219 5 53 L 5 55 C 5 55.550781 5.445313 56 6 56 C 6.554688 56 7 55.550781 7 55 L 7 53 C 7 52.449219 6.554688 52 6 52 Z M 11 52 C 10.445313 52 10 52.449219 10 53 L 10 55 C 10 55.550781 10.445313 56 11 56 C 11.554688 56 12 55.550781 12 55 L 12 53 C 12 52.449219 11.554688 52 11 52 Z M 16 52 C 15.445313 52 15 52.449219 15 53 L 15 55 C 15 55.550781 15.445313 56 16 56 C 16.554688 56 17 55.550781 17 55 L 17 53 C 17 52.449219 16.554688 52 16 52 Z M 21 52 C 20.445313 52 20 52.449219 20 53 L 20 55 C 20 55.550781 20.445313 56 21 56 C 21.554688 56 22 55.550781 22 55 L 22 53 C 22 52.449219 21.554688 52 21 52 Z M 26 52 C 25.445313 52 25 52.449219 25 53 L 25 55 C 25 55.550781 25.445313 56 26 56 C 26.554688 56 27 55.550781 27 55 L 27 53 C 27 52.449219 26.554688 52 26 52 Z M 31 52 C 30.445313 52 30 52.449219 30 53 L 30 55 C 30 55.550781 30.445313 56 31 56 C 31.554688 56 32 55.550781 32 55 L 32 53 C 32 52.449219 31.554688 52 31 52 Z M 36 52 C 35.445313 52 35 52.449219 35 53 L 35 55 C 35 55.550781 35.445313 56 36 56 C 36.554688 56 37 55.550781 37 55 L 37 53 C 37 52.449219 36.554688 52 36 52 Z"/></svg>