<svg xmlns="http://www.w3.org/2000/svg" viewBox="0 0 80 80" width="100px" height="100px"><path fill="#8bb7f0" d="M2.5,53.5c0.3-8.3,7.1-15,15.5-15h12c8.4,0,15.2,6.7,15.5,15H2.5z"/><path fill="#4e7ab5" d="M30,39c7.9,0,14.5,6.2,15,14H3c0.5-7.8,7-14,15-14H30 M30,38H18C9.2,38,2,45.2,2,54h44 C46,45.2,38.8,38,30,38L30,38z"/><path fill="#deb974" d="M24,44c-5.9,0-7.3-3.5-7.5-3.9v-7.5h15V40C31.3,40.6,29.9,44,24,44z"/><path fill="#967a44" d="M31,33v7c-0.2,0.6-1.7,3.5-7,3.5c-5.3,0-6.8-2.9-7-3.5v-7H31 M32,32H16v8.1c0,0,1.3,4.4,8,4.4 s8-4.4,8-4.4V32L32,32z"/><path fill="#deb974" d="M34,27.5c-1.9,0-3.5-1.6-3.5-3.5s1.6-3.5,3.5-3.5c2.5,0,3.5,0.6,3.5,2.2 C37.5,24.8,35.8,27.5,34,27.5z M14,27.5c-1.8,0-3.5-2.7-3.5-4.8c0-1.6,1-2.2,3.5-2.2c1.9,0,3.5,1.6,3.5,3.5S15.9,27.5,14,27.5z"/><path fill="#967a44" d="M34,21c2.8,0,3,0.8,3,1.7c0,1.8-1.5,4.3-3,4.3c-1.7,0-3-1.3-3-3S32.3,21,34,21 M14,21 c1.7,0,3,1.3,3,3s-1.3,3-3,3c-1.5,0-3-2.5-3-4.3C11,21.8,11.2,21,14,21 M34,20c-2.2,0-4,1.8-4,4s1.8,4,4,4s4-3.1,4-5.3 S36.2,20,34,20L34,20z M14,20c-2.2,0-4,0.5-4,2.7s1.8,5.3,4,5.3s4-1.8,4-4S16.2,20,14,20L14,20z"/><path fill="#f5ce85" d="M24,37.5c-0.9,0-1.9-0.4-2.5-1.2l-0.1-0.1l-0.2,0c-5.2-1.3-8.8-5.9-8.8-11.2V14.5 c0-2.9,2.3-5.2,5.2-5.2h12.6c2.9,0,5.2,2.3,5.2,5.2V25c0,5.3-3.6,9.9-8.8,11.2l-0.2,0l-0.1,0.1C25.9,37.1,24.9,37.5,24,37.5z"/><path fill="#967a44" d="M30.3,9.8c2.6,0,4.7,2.1,4.7,4.7V25c0,5.1-3.4,9.5-8.4,10.7l-0.3,0.1L26.1,36c-0.5,0.6-1.3,1-2.1,1 s-1.6-0.4-2.1-1l-0.2-0.3l-0.3-0.1C16.4,34.5,13,30.1,13,25V14.5c0-2.6,2.1-4.7,4.7-4.7H30.3 M30.3,8.8H17.7 c-3.2,0-5.7,2.6-5.7,5.7V25c0,5.6,3.9,10.4,9.1,11.6c0.7,0.8,1.7,1.4,2.9,1.4s2.2-0.5,2.9-1.4c5.2-1.3,9.1-6,9.1-11.6V14.5 C36,11.3,33.4,8.8,30.3,8.8L30.3,8.8z"/><path fill="#a6714e" d="M35.5,25.5V22c0-5.2-5.2-7.9-5.4-8l-0.3-0.1L29.6,14c0,0-4.1,2.9-10.7,2.9c-2.9,0-6.4,1.6-6.4,6.1 v2.4h-0.1C12,24,10.5,18.3,10.5,14c0-5.7,4.4-11.5,12.8-11.5c5.8,0,7.4,3.5,7.4,3.7l0.1,0.3l0.3,0c3.1,0,6.3,2.6,6.3,7.6 c0,3.9-1.5,9.8-1.9,11.4H35.5z"/><path fill="#7a4f34" d="M23.3,3c5.5,0,6.9,3.2,7,3.4L30.6,7h0.7c2.9,0,5.8,2.5,5.8,7.1c0,2.3-0.5,5.2-1,7.6 c-0.2-5.3-5.4-8.1-5.6-8.2l-0.5-0.3l-0.5,0.4c0,0-4,2.8-10.4,2.8c-3.2,0-6.3,1.7-6.8,5.6C11.5,19.7,11,16.6,11,14 C11,8.5,15.2,3,23.3,3 M23.3,2C14.9,2,10,7.7,10,14c0,5.1,2,12,2,12h1c0,0,0-1.5,0-2.9c0-3.9,2.8-5.6,5.9-5.6c6.8,0,11-3,11-3 S35,17.1,35,22c0,1.5,0,4,0,4h1c0,0,2-7.2,2-11.9C38,8.8,34.6,6,31.2,6C31.2,6,29.6,2,23.3,2L23.3,2z"/><path fill="#c2e8ff" d="M18.5,65.5c0.3-8.3,7.1-15,15.5-15h12c8.4,0,15.2,6.7,15.5,15H18.5z"/><path fill="#7496c4" d="M46,51c7.9,0,14.5,6.2,15,14H19c0.5-7.8,7-14,15-14H46 M46,50H34c-8.8,0-16,7.2-16,16l0,0h44l0,0 C62,57.2,54.8,50,46,50L46,50z"/><path fill="#ffdea3" d="M40,56c-5.9,0-7.3-3.5-7.5-3.9v-7.5h15V52C47.3,52.6,45.9,56,40,56z"/><path fill="#967a44" d="M47,45v7c-0.2,0.6-1.7,3.5-7,3.5c-5.3,0-6.8-2.9-7-3.5v-7H47 M48,44H32v8.1c0,0,1.3,4.4,8,4.4 s8-4.4,8-4.4V44L48,44z"/><g><path fill="#ffdea3" d="M50,39.5c-1.9,0-3.5-1.6-3.5-3.5s1.6-3.5,3.5-3.5c2.5,0,3.5,0.6,3.5,2.2 C53.5,36.8,51.8,39.5,50,39.5z M30,39.5c-1.8,0-3.5-2.7-3.5-4.8c0-1.6,1-2.2,3.5-2.2c1.9,0,3.5,1.6,3.5,3.5S31.9,39.5,30,39.5z"/><path fill="#967a44" d="M50,33c2.8,0,3,0.8,3,1.7c0,1.8-1.5,4.3-3,4.3c-1.7,0-3-1.3-3-3S48.3,33,50,33 M30,33 c1.7,0,3,1.3,3,3s-1.3,3-3,3c-1.5,0-3-2.5-3-4.3C27,33.8,27.2,33,30,33 M50,32c-2.2,0-4,1.8-4,4s1.8,4,4,4s4-3.1,4-5.3 S52.2,32,50,32L50,32z M30,32c-2.2,0-4,0.5-4,2.7s1.8,5.3,4,5.3s4-1.8,4-4S32.2,32,30,32L30,32z"/></g><g><path fill="#ffdea3" d="M40,49.5c-0.9,0-1.8-0.4-2.5-1.2l-0.1-0.1l-0.2,0c-5.2-1.3-8.8-5.9-8.8-11.2V26.5 c0-2.9,2.3-5.2,5.2-5.2h12.6c2.9,0,5.2,2.3,5.2,5.2V37c0,5.3-3.6,9.9-8.8,11.2l-0.2,0l-0.1,0.1C41.8,49.1,40.9,49.5,40,49.5z"/><path fill="#967a44" d="M46.3,21.8c2.6,0,4.7,2.1,4.7,4.7V37c0,5.1-3.4,9.5-8.4,10.7l-0.3,0.1L42.1,48 c-0.5,0.6-1.3,1-2.1,1s-1.6-0.4-2.1-1l-0.2-0.3l-0.3-0.1C32.4,46.5,29,42.1,29,37V26.5c0-2.6,2.1-4.7,4.7-4.7H46.3 M46.3,20.8 H33.7c-3.2,0-5.7,2.6-5.7,5.7V37c0,5.6,3.9,10.4,9.1,11.6c0.7,0.8,1.7,1.4,2.9,1.4s2.2-0.5,2.9-1.4c5.2-1.3,9.1-6,9.1-11.6V26.5 C52,23.3,49.4,20.8,46.3,20.8L46.3,20.8z"/></g><g><path fill="#f5ce85" d="M51.5,37.5V34c0-5.2-5.2-7.9-5.4-8l-0.3-0.1L45.6,26c0,0-4.1,2.9-10.7,2.9c-2.9,0-6.4,1.6-6.4,6.1 v2.4h-0.1C28,36,26.5,30.3,26.5,26c0-5.7,4.4-11.5,12.8-11.5c5.8,0,7.4,3.5,7.4,3.7l0.1,0.3l0.3,0c3.1,0,6.3,2.6,6.3,7.6 c0,3.9-1.5,9.8-1.9,11.4L51.5,37.5L51.5,37.5z"/><path fill="#967a44" d="M39.3,15c5.5,0,6.9,3.2,7,3.4l0.3,0.6h0.7c2.9,0,5.8,2.5,5.8,7.1c0,2.3-0.5,5.2-1,7.6 c-0.2-5.3-5.4-8.1-5.6-8.2l-0.5-0.3l-0.5,0.4c0,0-4,2.8-10.4,2.8c-3.2,0-6.3,1.7-6.8,5.6C27.5,31.7,27,28.6,27,26 C27,20.5,31.2,15,39.3,15 M39.3,14C30.9,14,26,19.7,26,26c0,5.1,2,12,2,12h1c0,0,0-1.5,0-2.9c0-3.9,2.8-5.6,5.9-5.6 c6.8,0,11-3,11-3S51,29.1,51,34c0,1.5,0,4,0,4h1c0,0,2-7.2,2-11.9c0-5.3-3.4-8.1-6.8-8.1C47.2,18,45.6,14,39.3,14L39.3,14z"/></g><g><path fill="#bae0bd" d="M62,79.5c-9.6,0-17.5-7.9-17.5-17.5S52.4,44.5,62,44.5S79.5,52.4,79.5,62S71.6,79.5,62,79.5z"/><path fill="#5e9c76" d="M62,45c9.4,0,17,7.6,17,17s-7.6,17-17,17s-17-7.6-17-17S52.6,45,62,45 M62,44c-9.9,0-18,8.1-18,18 s8.1,18,18,18s18-8.1,18-18S71.9,44,62,44L62,44z"/></g><path fill="#fff" d="M60 52H64V72H60z"/><path fill="#fff" d="M52 60H72V64H52z"/></svg>