<svg xmlns="http://www.w3.org/2000/svg" width="50" height="50" fill="#000" viewBox="0 0 50 50"><path d="M 25 0 C 19.3545 0 14.239922 1.0161444 10.447266 2.7226562 C 8.5509372 3.5759123 6.978214 4.601147 5.8417969 5.8105469 C 4.7053797 7.0199467 4 8.4567299 4 10 L 4 39 C 4 44.607 13.224 49 25 49 C 29.498 49 33.618 48.355953 37 47.251953 L 37 45.146484 C 33.838 46.270484 29.752 47 25 47 C 13.635 47 6 42.863 6 39 L 6 34.304688 C 9.323 37.697688 16.484 40 25 40 C 26.025 40 27.028766 39.965391 28.009766 39.900391 C 28.034766 39.069391 28.360484 38.343172 28.896484 37.826172 C 27.653484 37.937172 26.356 38 25 38 C 13.635 38 6 33.863 6 30 L 6 24.337891 C 7.1234422 25.480958 8.6314885 26.460332 10.447266 27.277344 C 14.239922 28.983856 19.3545 30 25 30 C 30.6455 30 35.760078 28.983856 39.552734 27.277344 C 41.368511 26.460332 42.876558 25.480958 44 24.337891 L 44 37 L 46 37 L 46 10 C 46 8.4567299 45.29462 7.0199467 44.158203 5.8105469 C 43.021786 4.601147 41.449062 3.5759123 39.552734 2.7226562 C 35.760078 1.0161444 30.6455 2.9605947e-16 25 0 z M 25 2 C 30.4025 2 35.287078 2.9966369 38.732422 4.546875 C 40.455094 5.3219941 41.811886 6.2353686 42.699219 7.1796875 C 43.586552 8.1240064 44 9.0567701 44 10 C 44 10.94323 43.586552 11.875994 42.699219 12.820312 C 41.811886 13.764632 40.455094 14.678006 38.732422 15.453125 C 35.287078 17.003363 30.4025 18 25 18 C 19.5975 18 14.712922 17.003363 11.267578 15.453125 C 9.5449063 14.678006 8.1881142 13.764632 7.3007812 12.820312 C 6.4134484 11.875995 6 10.94323 6 10 C 6 9.0567701 6.4134485 8.1240064 7.3007812 7.1796875 C 8.1881142 6.2353686 9.5449063 5.3219941 11.267578 4.546875 C 14.712922 2.9966369 19.5975 2 25 2 z M 6 14.337891 C 7.1234422 15.480958 8.6314885 16.460332 10.447266 17.277344 C 14.239922 18.983856 19.3545 20 25 20 C 30.6455 20 35.760078 18.983856 39.552734 17.277344 C 41.368511 16.460332 42.876558 15.480958 44 14.337891 L 44 20 C 44 20.94323 43.586552 21.875994 42.699219 22.820312 C 41.811886 23.764632 40.455094 24.678006 38.732422 25.453125 C 35.287078 27.003363 30.4025 28 25 28 C 19.5975 28 14.712922 27.003363 11.267578 25.453125 C 9.5449063 24.678006 8.1881142 23.764632 7.3007812 22.820312 C 6.4134484 21.875994 6 20.94323 6 20 L 6 14.337891 z M 40 30 C 39.4 30 39 30.4 39 31 L 39 39 L 31 39 C 30.4 39 30 39.4 30 40 C 30 40.6 30.4 41 31 41 L 39 41 L 39 49 C 39 49.6 39.4 50 40 50 C 40.6 50 41 49.6 41 49 L 41 41 L 49 41 C 49.6 41 50 40.6 50 40 C 50 39.4 49.6 39 49 39 L 41 39 L 41 31 C 41 30.4 40.6 30 40 30 z"/></svg>