<svg xmlns="http://www.w3.org/2000/svg" width="300" height="300" viewBox="0 0 80 80"><path fill="#8bb7f0" d="M2.5,73.5c0.3-11.6,10-21,22-21h15c12,0,21.7,9.4,22,21H2.5z"/><path fill="#4e7ab5" d="M39.5,53C51,53,60.4,61.9,61,73H3c0.5-11.1,10-20,21.5-20H39.5 M39.5,52h-15C12.1,52,2,61.8,2,74 h60C62,61.8,51.9,52,39.5,52L39.5,52z"/><path fill="#deb974" d="M32,58.5c-6,0-8.2-5.2-8.5-5.9V42.2h17v10.3C40.2,53.3,38,58.5,32,58.5z"/><path fill="#967a44" d="M40,42.7v9.7c-0.4,0.9-2.6,5.5-8,5.5c-5.4,0-7.6-4.6-8-5.5v-9.7H40 M41,41.7H23v10.9 c0,0,2.3,6.4,9,6.4s9-6.4,9-6.4V41.7L41,41.7z"/><path fill="#f5ce85" d="M32,50.5c-1.3,0-2.6-0.5-3.6-1.4L28.3,49l-0.1,0c-6.9-1.8-11.6-7.9-11.6-15V15.4 c0-3.9,3.2-7.1,7.1-7.1h16.8c3.9,0,7.1,3.2,7.1,7.1V34c0,7.1-4.8,13.2-11.6,15l-0.1,0l-0.1,0.1C34.6,50,33.3,50.5,32,50.5z"/><path fill="#967a44" d="M40.4,8.8c3.7,0,6.6,3,6.6,6.6V34c0,6.8-4.6,12.8-11.3,14.5l-0.2,0.1l-0.2,0.2 C34.4,49.5,33.2,50,32,50c-1.2,0-2.4-0.5-3.3-1.3l-0.2-0.2l-0.2-0.1C21.6,46.8,17,40.8,17,34V15.4c0-3.7,3-6.6,6.6-6.6H40.4 M40.4,7.8H23.6c-4.2,0-7.6,3.4-7.6,7.6V34c0,7.5,5.1,13.7,12,15.5c1.1,0.9,2.5,1.5,4,1.5c1.5,0,2.9-0.6,4-1.5 c6.9-1.8,12-8,12-15.5V15.4C48,11.2,44.6,7.8,40.4,7.8L40.4,7.8z"/><path fill="#a6714e" d="M48,51.5c-4.2,0-8-2.4-9.5-3.5c1.8-0.9,6-3.9,6-10.7v-9.4c0-4.6-4-8.1-4.2-8.2l-0.4-0.4l-0.3,0.5 c0,0.1-4.4,6.5-13.6,7.8c-4.4,0.6-6.4,3.8-6.4,6.8v3c0,6.9,4.1,9.8,6,10.7c-1.5,1.1-5.3,3.5-9.5,3.5c-4.2,0-7.8-2.5-9.2-3.5 c1.5-1.1,5.2-4.2,5.2-8.9c0-1.8-0.3-3.8-0.7-5.8c-0.4-2.3-0.9-4.8-0.9-7.3c0-7.5,2.2-13.7,6.4-17.9c3.6-3.6,8.6-5.6,14.1-5.6 c7.9,0,10.5,5.6,10.5,5.7l0.1,0.3H42c7.3,0,11.5,5.6,11.5,15.5c0,2.7-0.5,5.7-1.1,8.7c-0.5,2.7-0.9,5.2-0.9,7.3 c0,4.2,4,5.8,5.7,6.3C56,47.8,52.6,51.5,48,51.5z"/><path fill="#7a4f34" d="M31,3c7.5,0,10,5.2,10.1,5.4L41.3,9H42c7,0,11,5.5,11,15c0,2.7-0.5,5.7-1.1,8.6 C51.5,35.3,51,37.8,51,40c0,3.7,2.9,5.7,5.3,6.6C54.9,48.2,51.9,51,48,51c-3.5,0-6.8-1.8-8.5-3c2.1-1.3,5.5-4.4,5.5-10.7v-9.4 c0-4.8-4.2-8.4-4.3-8.6l-0.9-0.7l-0.6,0.9c0,0.1-4.3,6.3-13.3,7.6c-3.3,0.5-6.9,2.9-6.9,7.3v3c0,6.4,3.4,9.5,5.5,10.8 c-1.7,1.1-5,3-8.5,3c-3.6,0-6.8-1.9-8.3-3c1.8-1.4,4.9-4.5,4.9-8.9c0-1.9-0.4-3.8-0.7-5.9C11.4,30.9,11,28.5,11,26 C11,9,21.8,3,31,3 M31,2C20.4,2,10,9.4,10,26c0,4.9,1.6,9.4,1.6,13.1C11.6,44.7,6,48,6,48s4.5,4,10,4c5.6,0,10.4-4.1,10.4-4.1 S20,45.8,20,37.3c0-1.2,0-1.1,0-3c0-2.7,1.9-5.7,6-6.3c9.6-1.3,14-8,14-8s4,3.4,4,7.8c0,2.1,0,6,0,9.4c0,8.4-6.4,10.6-6.4,10.6 S42.5,52,48,52c6,0,10-6,10-6s-6-1.1-6-6c0-4.4,2-10.7,2-16c0-11.5-5.5-16-12-16C42,8,39.3,2,31,2L31,2z"/><g><path fill="#bae0bd" d="M62,79.5c-9.6,0-17.5-7.9-17.5-17.5S52.4,44.5,62,44.5S79.5,52.4,79.5,62S71.6,79.5,62,79.5z"/><path fill="#5e9c76" d="M62,45c9.4,0,17,7.6,17,17s-7.6,17-17,17s-17-7.6-17-17S52.6,45,62,45 M62,44c-9.9,0-18,8.1-18,18 s8.1,18,18,18s18-8.1,18-18S71.9,44,62,44L62,44z"/></g><path fill="#fff" d="M60 52H64V72H60z"/><path fill="#fff" d="M52 60H72V64H52z"/></svg>