<svg xmlns="http://www.w3.org/2000/svg" viewBox="0 0 30 30" width="300px" height="300px"><path fill="#f5ce85" d="M13.2,28.5c-0.4,0-0.8-0.2-1.1-0.4L1.9,17.9c-0.6-0.6-0.6-1.5,0-2.1L15.8,1.9 c0.3-0.3,0.7-0.4,1.1-0.4H26c1.4,0,2.5,1.1,2.5,2.5v9.2c0,0.4-0.2,0.8-0.4,1.1L14.2,28C13.9,28.3,13.6,28.5,13.2,28.5z M24,4.5 c-0.8,0-1.5,0.7-1.5,1.5s0.7,1.5,1.5,1.5s1.5-0.7,1.5-1.5S24.8,4.5,24,4.5z"/><path fill="#967a44" d="M26,2c1.1,0,2,0.9,2,2v9.2c0,0.3-0.1,0.5-0.3,0.7L13.9,27.7c-0.2,0.2-0.4,0.3-0.7,0.3 s-0.5-0.1-0.7-0.3L2.3,17.5C2.1,17.3,2,17.1,2,16.8s0.1-0.5,0.3-0.7L16.1,2.3C16.3,2.1,16.6,2,16.8,2H26 M24,8c1.1,0,2-0.9,2-2 s-0.9-2-2-2s-2,0.9-2,2S22.9,8,24,8 M26,1h-9.2c-0.5,0-1,0.2-1.4,0.6L1.6,15.4c-0.8,0.8-0.8,2,0,2.8l10.2,10.2 c0.4,0.4,0.9,0.6,1.4,0.6s1-0.2,1.4-0.6l13.8-13.8c0.4-0.4,0.6-0.9,0.6-1.4V4C29,2.3,27.7,1,26,1L26,1z M24,7c-0.6,0-1-0.4-1-1 s0.4-1,1-1s1,0.4,1,1S24.6,7,24,7L24,7z"/><path fill="#bae0bd" d="M23 16.5A6.5 6.5 0 1 0 23 29.5A6.5 6.5 0 1 0 23 16.5Z"/><path fill="#5e9c76" d="M23,17c3.3,0,6,2.7,6,6s-2.7,6-6,6s-6-2.7-6-6S19.7,17,23,17 M23,16c-3.9,0-7,3.1-7,7s3.1,7,7,7 s7-3.1,7-7S26.9,16,23,16L23,16z"/><path fill="#fff" d="M22 19H24V27H22z"/><path fill="#fff" d="M19 22H27V24H19z"/></svg>