<svg xmlns="http://www.w3.org/2000/svg" width="500" height="500" fill="#000" viewBox="0 0 50 50"><path d="M 40 0 C 34.5 0 30 4.5 30 10 C 30 15.5 34.5 20 40 20 C 45.5 20 50 15.5 50 10 C 50 4.5 45.5 0 40 0 z M 40 4.0996094 C 40.6 4.0996094 41 4.4996094 41 5.0996094 L 41 9 L 44.900391 9 C 45.500391 9 45.900391 9.4 45.900391 10 C 45.900391 10.6 45.500391 11 44.900391 11 L 41 11 L 41 14.900391 C 41 15.500391 40.6 15.900391 40 15.900391 C 39.4 15.900391 39 15.500391 39 14.900391 L 39 11 L 35.099609 11 C 34.499609 11 34.099609 10.6 34.099609 10 C 34.099609 9.4 34.499609 9 35.099609 9 L 39 9 L 39 5.0996094 C 39 4.4996094 39.4 4.0996094 40 4.0996094 z M 9 8 C 8.569 8 8.1877344 8.2745937 8.0527344 8.6835938 L 2.078125 26.611328 L 2.0527344 26.683594 C 2.037138 26.730294 2.0436307 26.777158 2.0351562 26.824219 C 2.0242246 26.883464 2 26.9376 2 27 L 2 42 C 2 42.552 2.447 43 3 43 L 47 43 C 47.553 43 48 42.552 48 42 L 48 27 C 48 26.938267 47.975548 26.884823 47.964844 26.826172 C 47.956358 26.778233 47.963153 26.731165 47.947266 26.683594 L 45.873047 20.457031 C 45.292047 20.784031 44.678969 21.059109 44.042969 21.287109 L 45.613281 26 L 32 26 C 31.447 26 31 26.448 31 27 C 31 30.309 28.309 33 25 33 C 21.691 33 19 30.309 19 27 C 19 26.448 18.553 26 18 26 L 4.3886719 26 L 9.7207031 10 L 28 10 C 28 9.317 28.069688 8.652 28.179688 8 L 9 8 z"/></svg>