<svg xmlns="http://www.w3.org/2000/svg" width="500" height="500" viewBox="0 0 48 48"><path fill="#d19d05" d="M38 13.5c0 .828-.672 1.5-1.5 1.5S35 14.328 35 13.5s.672-1.5 1.5-1.5S38 12.672 38 13.5M27 13.5c0 .828-.672 1.5-1.5 1.5S24 14.328 24 13.5s.672-1.5 1.5-1.5S27 12.672 27 13.5"/><path fill="#3f51b5" d="M42.023,30.02C42.023,22.422,34,21,34,21l-2.977,0.711L28,21c0,0-7.961,1.395-7.977,9H20v6h22v-5.98 H42.023z"/><path fill="#d19d05" d="M31,24c-3,0-3-3-3-3v-4h6v4C34,21,34,24,31,24z"/><path fill="#1a237e" d="M31,26c3.316,0,4.719-2.441,4.957-4.395C34.832,21.152,34,21,34,21s0,3-3,3s-3-3-3-3 s-0.836,0.148-1.957,0.602C26.281,23.559,27.684,26,31,26z"/><path fill="#ebb81d" d="M37,9.152c0-5.039-12-3.281-12,0v5.203c0,3.281,2.684,5.941,6,5.941c3.312,0,6-2.66,6-5.941V9.152z"/><path fill="#424242" d="M31,3c-4.254,0-7,3.773-7,7.148V12l2,2v-3l8-3l2,2v4l2-2v-0.957c0-2.816-0.727-5.953-4.199-6.645 L33.098,3H31z"/><path fill="#edbd28" d="M22 19.5c0 .828-.672 1.5-1.5 1.5S19 20.328 19 19.5s.672-1.5 1.5-1.5S22 18.672 22 19.5M11 19.5c0 .828-.672 1.5-1.5 1.5S8 20.328 8 19.5 8.672 18 9.5 18 11 18.672 11 19.5"/><path fill="#4fc3f7" d="M26.023,36.02C26.023,28.422,18,27,18,27l-2.977,0.711L12,27c0,0-7.961,1.395-7.977,9H4v2h22v-1.98 H26.023z"/><path fill="#edb405" d="M15,30c-3,0-3-3-3-3v-4h6v4C18,27,18,30,15,30z"/><path fill="#01579b" d="M15,32c3.316,0,4.719-2.441,4.957-4.395C18.832,27.152,18,27,18,27s0,3-3,3s-3-3-3-3 s-0.836,0.148-1.957,0.602C10.281,29.559,11.684,32,15,32z"/><path fill="#ffca28" d="M21,15.152c0-5.039-12-3.281-12,0v5.203c0,3.281,2.684,5.941,6,5.941c3.312,0,6-2.66,6-5.941V15.152z"/><path fill="#ffca28" d="M21,15.152c0-5.039-12-3.281-12,0v5.203c0,3.281,2.684,5.941,6,5.941c3.312,0,6-2.66,6-5.941V15.152z"/><path fill="#6d4c41" d="M15,9c-4.254,0-7,3.773-7,7.148V18l2,2v-3l8-3l2,2v4l2-2v-0.957c0-2.816-0.727-5.953-4.199-6.645 L17,9H15z"/><path fill="#784719" d="M11.5 19.25c0-.414.336-.75.75-.75.414 0 .75.336.75.75S12.664 20 12.25 20C11.836 20 11.5 19.664 11.5 19.25M17 19.25c0 .414.336.75.75.75s.75-.336.75-.75-.336-.75-.75-.75S17 18.836 17 19.25M27.5 13.25c0-.414.336-.75.75-.75S29 12.836 29 13.25c0 .414-.336.75-.75.75S27.5 13.664 27.5 13.25M33 13.25c0 .414.336.75.75.75s.75-.336.75-.75c0-.414-.336-.75-.75-.75S33 12.836 33 13.25"/><path fill="#43a047" d="M44,35c0,5.523-4.477,10-10,10s-10-4.477-10-10s4.477-10,10-10S44,29.477,44,35"/><path fill="#fff" d="M32,29h4v12h-4V29z"/><path fill="#fff" d="M28,33h12v4H28V33z"/></svg>