<svg xmlns="http://www.w3.org/2000/svg" width="50" height="50" viewBox="0 0 64 64"><linearGradient id="uon8kSPCGNRoD4gJU8GC1a" x1="32" x2="32" y1="8.167" y2="53.98" gradientUnits="userSpaceOnUse" spreadMethod="reflect"><stop offset="0" stop-color="#1a6dff"/><stop offset="1" stop-color="#c822ff"/></linearGradient><path fill="url(#uon8kSPCGNRoD4gJU8GC1a)" d="M52.558,39.427c-0.812-3.323-2.727-6.24-5.448-8.325C47.677,29.849,48,28.463,48,27v-4 c0-5.514-4.486-10-10-10c-1.636,0-3.218,0.415-4.648,1.169C30.976,11.036,27.226,9,23,9c-7.168,0-13,5.832-13,13v1.556 C8.81,24.25,8,25.526,8,27c0,2.206,1.794,4,4,4h0.427c0.053,0.187,0.111,0.37,0.173,0.552C8.449,34.765,6,39.718,6,45v3h36.069 c0.495,3.94,3.859,7,7.931,7c4.411,0,8-3.589,8-8C58,43.484,55.717,40.497,52.558,39.427z M38,15c4.411,0,8,3.589,8,8v4 c0,4.411-3.589,8-8,8c-0.805,0-1.595-0.125-2.354-0.359c-0.759-0.845-1.611-1.614-2.541-2.302c0.186-0.432,0.338-0.88,0.469-1.338 H34c2.206,0,4-1.794,4-4c0-1.474-0.81-2.75-2-3.444V22c0-2.227-0.564-4.323-1.555-6.157C35.545,15.295,36.754,15,38,15z M14,28 v-3.172c3.149-0.526,5.948-2.276,7.796-4.893c2.553,2.87,6.174,4.763,10.204,5.032V28c0,4.963-4.037,9-9,9S14,32.963,14,28z M34,28 v-3c1.103,0,2,0.897,2,2s-0.897,2-2,2h-0.051C33.979,28.67,34,28.337,34,28z M34,22v1h-1c-6.633,0-12.204-5.059-12.911-11.597 C21.018,11.148,21.991,11,23,11C29.065,11,34,15.935,34,22z M12,22c0-4.329,2.52-8.07,6.163-9.865 c0.321,2.235,1.136,4.303,2.329,6.104C18.676,21.185,15.502,23,12,23V22z M12,29c-1.103,0-2-0.897-2-2s0.897-2,2-2v3 c0,0.337,0.021,0.67,0.051,1H12z M34,46v-2h-2v2H14v-2h-2v2H8v-1c0-4.498,2.018-8.722,5.452-11.56C15.349,36.756,18.914,39,23,39 c3.807,0,7.166-1.945,9.142-4.892C35.825,36.943,38,41.324,38,46H34z M37.401,36.975C37.6,36.987,37.799,37,38,37 c3.331,0,6.279-1.644,8.097-4.156c2.013,1.604,3.502,3.742,4.282,6.175C50.253,39.013,50.128,39,50,39c-4.072,0-7.436,3.06-7.931,7 H40C40,42.758,39.073,39.642,37.401,36.975z M50,53c-3.309,0-6-2.691-6-6s2.691-6,6-6s6,2.691,6,6S53.309,53,50,53z"/><linearGradient id="uon8kSPCGNRoD4gJU8GC1b" x1="50" x2="50" y1="8.167" y2="53.98" gradientUnits="userSpaceOnUse" spreadMethod="reflect"><stop offset="0" stop-color="#1a6dff"/><stop offset="1" stop-color="#c822ff"/></linearGradient><path fill="url(#uon8kSPCGNRoD4gJU8GC1b)" d="M51 44L49 44 49 46 47 46 47 48 49 48 49 50 51 50 51 48 53 48 53 46 51 46z"/><linearGradient id="uon8kSPCGNRoD4gJU8GC1c" x1="27" x2="27" y1="24.938" y2="29.133" gradientUnits="userSpaceOnUse" spreadMethod="reflect"><stop offset="0" stop-color="#6dc7ff"/><stop offset="1" stop-color="#e6abff"/></linearGradient><path fill="url(#uon8kSPCGNRoD4gJU8GC1c)" d="M27 25A2 2 0 1 0 27 29A2 2 0 1 0 27 25Z"/><linearGradient id="uon8kSPCGNRoD4gJU8GC1d" x1="19" x2="19" y1="24.938" y2="29.133" gradientUnits="userSpaceOnUse" spreadMethod="reflect"><stop offset="0" stop-color="#6dc7ff"/><stop offset="1" stop-color="#e6abff"/></linearGradient><path fill="url(#uon8kSPCGNRoD4gJU8GC1d)" d="M19 25A2 2 0 1 0 19 29A2 2 0 1 0 19 25Z"/></svg>