<svg xmlns="http://www.w3.org/2000/svg" width="50" height="50" viewBox="0 0 64 64"><path fill="#f9e3ae" d="M56.37,11.74a3,3,0,0,0-2.65-2.65L34.61,7a3,3,0,0,0-2.45.86l-28,28a3,3,0,0,0,0,4.24L25.4,61.26a3,3,0,0,0,4.24,0l28-28a3,3,0,0,0,.86-2.45ZM49,20a3,3,0,1,1,3-3A3,3,0,0,1,49,20Z"/><path fill="#faefde" d="M56.37,11.74a3,3,0,0,0-2.65-2.65L34.61,7a3,3,0,0,0-2.45.86L30.68,9.31l25.53,2.83Z"/><path fill="#f6d397" d="M24.53,60.38,13.43,49.29l12,12a3,3,0,0,0,4.24,0l28-28a3,3,0,0,0,.86-2.45l-.44-4Z"/><path fill="#72caaf" d="M51 39A12 12 0 1 0 51 63A12 12 0 1 0 51 39Z"/><path fill="#8d6c9f" d="M7.76 35.13L6.35 36.55A1 1 0 1 0 7.76 38l1.41-1.41a1 1 0 0 0-1.41-1.41zM11.3 38.67L9.88 40.08A1 1 0 1 0 11.3 41.5l1.41-1.41a1 1 0 0 0-1.41-1.41zM14.83 42.2l-1.41 1.41A1 1 0 1 0 14.83 45l1.41-1.41a1 1 0 1 0-1.41-1.41zM18.37 45.74L17 47.15a1 1 0 1 0 1.41 1.41l1.41-1.41a1 1 0 0 0-1.41-1.41zM21.9 49.27l-1.42 1.41A1 1 0 1 0 21.9 52.1l1.42-1.41a1 1 0 0 0-1.41-1.41zM25.44 52.81L24 54.22a1 1 0 1 0 1.41 1.41l1.41-1.41a1 1 0 0 0-1.41-1.41zM29 56.34l-1.41 1.41A1 1 0 1 0 29 59.17l1.41-1.41A1 1 0 0 0 29 56.34z"/><path fill="#8d6c9f" d="M54,38.35,58.33,34a4,4,0,0,0,1.15-3.27L57.89,16.37,63.07,16a1,1,0,1,0-.14-2l-5.26.38-.3-2.75a4,4,0,0,0-3.54-3.54l-2.55-.28L52,3.15a1,1,0,1,0-2-.3l-.73,4.74L34.72,6a4,4,0,0,0-3.27,1.15l-28,28a4,4,0,0,0,0,5.66L24.7,62a4,4,0,0,0,5.66,0l8-8A13,13,0,1,0,54,38.35Zm-25,22.2a2,2,0,0,1-2.83,0L4.9,39.34a2,2,0,0,1,0-2.83l28-28A2,2,0,0,1,34.5,8l19.1,2.11a2,2,0,0,1,1.77,1.77l.3,2.68-3,.21a4,4,0,0,0-.77-1.11A4,4,0,1,0,53,16.71l2.85-.2,1.6,14.44a2,2,0,0,1-.57,1.63L51.47,38,51,38A13,13,0,0,0,38,51c0,.16,0,.31,0,.47ZM50.48,17.87a2,2,0,1,1,0-2.83A2,2,0,0,1,50.48,17.87ZM51,62A11,11,0,1,1,62,51,11,11,0,0,1,51,62Z"/><path fill="#faefde" d="M57,50H52V45a1,1,0,0,0-2,0v5H45a1,1,0,0,0,0,2h5v5a1,1,0,0,0,2,0V52h5a1,1,0,0,0,0-2Z"/></svg>