<svg xmlns="http://www.w3.org/2000/svg" width="100" height="100" fill="#000" viewBox="0 0 24 24"><path d="M 12 4 C 9.709 4 7.5608125 5.1379062 6.2578125 7.0039062 C 2.7848125 7.1319063 5.9211895e-16 9.997 0 13.5 C 0 17.084 2.916 20 6.5 20 L 12.080078 20 C 12.033078 19.673 12 19.34 12 19 C 12 18.66 12.033078 18.327 12.080078 18 L 6.5 18 C 4.019 18 2 15.981 2 13.5 C 2 11.019 4.019 9 6.5 9 L 7.359375 9.046875 L 7.6679688 8.5136719 C 8.5599687 6.9626719 10.22 6 12 6 C 14.472 6 16.544641 7.7728437 16.931641 10.214844 L 17.082031 11.175781 L 18.181641 11.03125 C 18.286641 11.01725 18.391 11 18.5 11 C 19.631 11 20.627578 11.547812 21.267578 12.382812 C 22.290578 12.733812 23.208078 13.307641 23.955078 14.056641 C 23.731078 11.300641 21.493078 9.1059062 18.705078 9.0039062 C 17.839078 6.0559063 15.149 4 12 4 z M 19 14 C 16.239 14 14 16.239 14 19 C 14 21.761 16.239 24 19 24 C 21.761 24 24 21.761 24 19 C 24 16.239 21.761 14 19 14 z M 18 16 L 20 16 L 20 18 L 22 18 L 22 20 L 20 20 L 20 22 L 18 22 L 18 20 L 16 20 L 16 18 L 18 18 L 18 16 z"/></svg>