<svg xmlns="http://www.w3.org/2000/svg" width="50" height="50" viewBox="0 0 30 30"><path fill="#8bb7f0" d="M1.5,26.5c0.3-3.9,3.5-7,7.5-7h6c4,0,7.2,3.1,7.5,7H1.5z"/><path fill="#4e7ab5" d="M15,20c3.5,0,6.4,2.6,6.9,6H2.1c0.5-3.4,3.4-6,6.9-6H15 M15,19H9c-4.4,0-8,3.6-8,8h22 C23,22.6,19.4,19,15,19L15,19z"/><path fill="#deb974" d="M12,21.5c-2.3,0-3.1-1.3-3.2-1.6v-3.8h6.4v3.8C15.1,20.2,14.3,21.5,12,21.5z"/><path fill="#967a44" d="M14.7,16.6v3.2C14.5,20.1,13.8,21,12,21c-1.8,0-2.5-0.9-2.7-1.2v-3.2L14.7,16.6 M15.7,15.6H8.3V20 c0,0,0.7,2,3.7,2s3.7-2,3.7-2V15.6L15.7,15.6z"/><path fill="#deb974" d="M17,13.5c-0.8,0-1.5-0.6-1.5-1.4s0.7-1.4,1.5-1.4c1.5,0,1.5,0.4,1.5,0.7 C18.5,12.4,17.7,13.5,17,13.5z M7,13.5c-0.7,0-1.5-1.1-1.5-2c0-0.3,0-0.7,1.5-0.7c0.8,0,1.5,0.6,1.5,1.4S7.8,13.5,7,13.5z"/><path fill="#967a44" d="M17,11.3c0.8,0,1,0.1,1,0.1l0,0c0,0,0,0,0,0.1c0,0.6-0.6,1.5-1,1.5c-0.6,0-1-0.4-1-0.9 S16.4,11.3,17,11.3 M7,11.3c0.6,0,1,0.4,1,0.9S7.6,13,7,13c-0.4,0-1-0.9-1-1.5c0-0.1,0-0.1,0-0.1C6,11.4,6.3,11.3,7,11.3 M17,10.3 c-1.1,0-2,0.8-2,1.9s0.9,1.9,2,1.9s2-1.5,2-2.5C19,10.5,18.1,10.3,17,10.3L17,10.3z M7,10.3c-1.1,0-2,0.2-2,1.2S5.9,14,7,14 s2-0.8,2-1.9S8.1,10.3,7,10.3L7,10.3z"/><path fill="#f5ce85" d="M12,18.5c-0.4,0-0.7-0.2-1-0.5l-0.1-0.1l-0.2,0c-2.4-0.5-4.2-2.7-4.2-5.2V6.6c0-1.2,1-2.3,2.3-2.3 h6.5c1.2,0,2.3,1,2.3,2.3v6.2c0,2.5-1.8,4.7-4.2,5.2l-0.2,0L13,18C12.7,18.3,12.4,18.5,12,18.5z"/><path fill="#967a44" d="M15.2,4.8c1,0,1.8,0.8,1.8,1.8v6.2c0,2.3-1.6,4.2-3.8,4.7l-0.3,0.1l-0.2,0.2 C12.5,17.8,12.3,18,12,18s-0.5-0.2-0.6-0.3l-0.2-0.2l-0.3-0.1C8.6,17,7,15,7,12.7V6.6c0-1,0.8-1.8,1.8-1.8L15.2,4.8 M15.2,3.8H8.8 C7.2,3.8,6,5,6,6.6v6.2c0,2.8,2,5.1,4.6,5.7C11,18.8,11.5,19,12,19s1-0.2,1.4-0.6c2.6-0.5,4.6-2.9,4.6-5.7V6.6 C18,5,16.8,3.8,15.2,3.8L15.2,3.8z"/><g><path fill="#a6714e" d="M17.5,12.5v-1.8c0-2.7-2.1-4.6-2.2-4.6L15,5.8l-0.3,0.3c0,0-1.5,1.4-4.8,1.4c-2.1,0-3.4,1.3-3.4,3.4 v1.6H6.4c-0.2-1-0.9-3.7-0.9-4.9c0-3.7,2.6-6.1,6.5-6.1c1.7,0,2.9,1.5,2.9,1.5l0.1,0.2h0.2c1.1,0,3.2,0.9,3.2,4.1 c0,1.8-0.6,4.3-0.9,5.2H17.5z"/><path fill="#7a4f34" d="M12,2c1.4,0,2.5,1.3,2.5,1.3l0.3,0.4h0.5c0.9,0,2.7,0.8,2.7,3.6c0,0.6-0.1,1.3-0.2,2 c-0.5-2.1-2.1-3.5-2.2-3.6L15,5.1l-0.7,0.6C14.3,5.8,12.9,7,9.9,7C8.1,7,6.7,7.9,6.2,9.4C6.1,8.7,6,8,6,7.6C6,4.2,8.4,2,12,2 M12,1C7.7,1,5,3.7,5,7.6C5,9.1,6,13,6,13h1c0,0,0-1.4,0-2.1C7,8.9,8.3,8,9.9,8C13.4,8,15,6.5,15,6.5s2,1.8,2,4.3 c0,0.8,0,2.3,0,2.3h1c0,0,1-3.3,1-5.7c0-3.3-2.1-4.6-3.7-4.6C15.3,2.7,14,1,12,1L12,1z"/></g><g><path fill="#bae0bd" d="M23 16.5A6.5 6.5 0 1 0 23 29.5A6.5 6.5 0 1 0 23 16.5Z"/><path fill="#5e9c76" d="M23,17c3.3,0,6,2.7,6,6s-2.7,6-6,6s-6-2.7-6-6S19.7,17,23,17 M23,16c-3.9,0-7,3.1-7,7s3.1,7,7,7 s7-3.1,7-7S26.9,16,23,16L23,16z"/></g><path fill="#fff" d="M22 19H24V27H22z"/><path fill="#fff" d="M19 22H27V24H19z"/></svg>