<?xml version="1.0"?><svg fill="#000000" xmlns="http://www.w3.org/2000/svg" viewBox="0 0 24 24" width="300px" height="300px">    <path d="M 19 0 L 19 3 L 16 3 L 16 5 L 19 5 L 19 8 L 21 8 L 21 5 L 24 5 L 24 3 L 21 3 L 21 0 L 19 0 z M 5.75 3 C 5.271 3 4.8595312 3.3395469 4.7695312 3.8105469 L 3.0195312 12.810547 C 3.0065312 12.872547 3 12.936 3 13 L 3 19 C 3 20.103 3.897 21 5 21 L 19 21 C 20.103 21 21 20.103 21 19 L 21 13 C 21 12.936 20.993469 12.872547 20.980469 12.810547 L 20.435547 10 L 18.398438 10 L 18.980469 13 L 16 13 C 15.57 13 15.187781 13.274594 15.050781 13.683594 L 14.455078 15.472656 C 14.350078 15.786656 14.054656 16 13.722656 16 L 10.277344 16 C 9.9453437 16 9.6499219 15.787656 9.5449219 15.472656 L 8.9472656 13.683594 C 8.8112656 13.275594 8.43 13 8 13 L 5.0195312 13 L 6.5742188 5 L 14 5 L 14 3 L 5.75 3 z"/></svg>