<svg xmlns="http://www.w3.org/2000/svg" width="300" height="300" fill="#000" viewBox="0 0 24 24"><path d="M 6 2 C 4.895 2 4 2.895 4 4 L 4 20 C 4 21.105 4.895 22 6 22 L 12.683594 22 C 12.387594 21.378 12.181078 20.707 12.080078 20 L 6 20 L 6 16 L 12.683594 16 C 13.039594 15.251 13.519469 14.574 14.105469 14 L 6 14 L 6 10 L 18 10 L 18 12.080078 C 18.327 12.033078 18.66 12 19 12 C 19.34 12 19.673 12.033078 20 12.080078 L 20 4 C 20 2.895 19.105 2 18 2 L 6 2 z M 6 4 L 18 4 L 18 8 L 6 8 L 6 4 z M 19 14 C 16.239 14 14 16.239 14 19 C 14 21.761 16.239 24 19 24 C 21.761 24 24 21.761 24 19 C 24 16.239 21.761 14 19 14 z M 18 16 L 20 16 L 20 18 L 22 18 L 22 20 L 20 20 L 20 22 L 18 22 L 18 20 L 16 20 L 16 18 L 18 18 L 18 16 z"/></svg>