<svg xmlns="http://www.w3.org/2000/svg" width="300" height="300" fill="#000" viewBox="0 0 16 16"><path d="M 4.5 0 A 0.50005 0.50005 0 0 0 4 0.5 L 4 2.5 A 0.50005 0.50005 0 0 0 4.5 3 L 6.5 3 A 0.50005 0.50005 0 0 0 7 2.5 L 7 0.5 A 0.50005 0.50005 0 0 0 6.5 0 L 4.5 0 z M 5 1 L 6 1 L 6 2 L 5 2 L 5 1 z M 5 4 L 5 9.4199219 A 0.50005 0.50005 0 0 0 5 9.5820312 L 5 13.5 A 0.50005 0.50005 0 0 0 5.5 14 L 8 14 L 8 14.5 C 8 14.776 8.224 15 8.5 15 L 10.5 15 C 10.776 15 11 14.776 11 14.5 L 11 12.5 C 11 12.224 10.776 12 10.5 12 L 8.5 12 C 8.224 12 8 12.224 8 12.5 L 8 13 L 6 13 L 6 10 L 8 10 L 8 10.5 A 0.50005 0.50005 0 0 0 8.5 11 L 10.5 11 A 0.50005 0.50005 0 0 0 11 10.5 L 11 8.5 A 0.50005 0.50005 0 0 0 10.5 8 L 8.5 8 A 0.50005 0.50005 0 0 0 8 8.5 L 8 9 L 6 9 L 6 6 L 7 6 L 7 5 L 6 5 L 6 4 L 5 4 z M 9 4 L 9 5 L 8 5 L 8 6 L 9 6 L 9 7 L 10 7 L 10 6 L 11 6 L 11 5 L 10 5 L 10 4 L 9 4 z M 9 9 L 10 9 L 10 10 L 9 10 L 9 9.5800781 A 0.50005 0.50005 0 0 0 9 9.4179688 L 9 9 z"/></svg>