<?xml version="1.0"?><svg fill="#000000" xmlns="http://www.w3.org/2000/svg" viewBox="0 0 30 30" width="500px" height="500px">    <path d="M 7 2 C 6.448 2 6 2.448 6 3 L 6 7 C 6 7.552 6.448 8 7 8 L 8 8 L 8 9.8320312 A 1.0001 1.0001 0 0 0 8 10.158203 L 8 17.832031 A 1.0001 1.0001 0 0 0 8 18.158203 L 8 26 A 1.0001 1.0001 0 0 0 9 27 L 16 27 L 16 28 C 16 28.552 16.448 29 17 29 L 21 29 C 21.552 29 22 28.552 22 28 L 22 24 C 22 23.448 21.552 23 21 23 L 17 23 C 16.448 23 16 23.448 16 24 L 16 25 L 10 25 L 10 19 L 16 19 L 16 20 C 16 20.552 16.448 21 17 21 L 21 21 C 21.552 21 22 20.552 22 20 L 22 16 C 22 15.448 21.552 15 21 15 L 17 15 C 16.448 15 16 15.448 16 16 L 16 17 L 10 17 L 10 11 L 15 11 A 1.0001 1.0001 0 0 0 15.138672 10.990234 C 15.581208 12.717644 17.134692 14 19 14 C 21.209 14 23 12.209 23 10 C 23 7.791 21.209 6 19 6 C 17.135348 6 15.581844 7.2813273 15.138672 9.0078125 A 1.0001 1.0001 0 0 0 15 9 L 10 9 L 10 8 L 11 8 C 11.552 8 12 7.552 12 7 L 12 3 C 12 2.448 11.552 2 11 2 L 7 2 z M 19 7 C 19.552 7 20 7.448 20 8 L 20 9 L 21 9 C 21.552 9 22 9.448 22 10 C 22 10.552 21.552 11 21 11 L 20 11 L 20 12 C 20 12.552 19.552 13 19 13 C 18.448 13 18 12.552 18 12 L 18 11 L 17 11 C 16.467467 11 16.04179 10.579731 16.011719 10.054688 A 1.0001 1.0001 0 0 0 16.011719 9.9433594 C 16.042766 9.4192436 16.468133 9 17 9 L 18 9 L 18 8 C 18 7.448 18.448 7 19 7 z"/></svg>