<svg xmlns="http://www.w3.org/2000/svg" width="500" height="500" fill="#000" viewBox="0 0 24 24"><path d="M 7 4 C 5.317 4 4 5.318 4 7 C 4 8.682 5.317 10 7 10 C 8.683 10 10 8.682 10 7 C 10 5.318 8.683 4 7 4 z M 17 4 C 15.317 4 14 5.318 14 7 C 14 8.682 15.317 10 17 10 C 18.683 10 20 8.682 20 7 C 20 5.318 18.683 4 17 4 z M 6.9140625 12 C 3.3820625 12 0.9140625 13.322797 0.9140625 15.216797 L 0.9140625 17 C 0.9140625 17.552 1.3620625 18 1.9140625 18 L 7.9140625 18 C 8.4660625 18 8.9140625 17.552 8.9140625 17 L 8.9140625 15.216797 C 8.9140625 14.141797 9.304 13.193297 10 12.404297 C 9.119 12.145297 8.0750625 12 6.9140625 12 z M 17 12 C 13.468 12 11 13.322797 11 15.216797 L 11 17 C 11 17.552 11.448 18 12 18 L 16 18 C 16.552 18 17 17.552 17 17 L 17 16 C 17 14.9 17.9 14 19 14 L 22.613281 14 C 22.389281 13.661 22.046906 13.309187 21.503906 12.992188 C 20.423906 12.362187 18.782 12 17 12 z M 19.984375 15.986328 A 1.0001 1.0001 0 0 0 19 17 L 19 19 L 17 19 A 1.0001 1.0001 0 1 0 17 21 L 19 21 L 19 23 A 1.0001 1.0001 0 1 0 21 23 L 21 21 L 23 21 A 1.0001 1.0001 0 1 0 23 19 L 21 19 L 21 17 A 1.0001 1.0001 0 0 0 19.984375 15.986328 z"/></svg>