<svg xmlns="http://www.w3.org/2000/svg" width="50" height="50" viewBox="0 0 48 48"><path fill="#3e2723" d="M25.977,8.5h10V22h-10V8.5z"/><path fill="#d19d05" d="M27.977,16.43v4.285c0,0,0.512,4.285,3,4.285c2.484,0,3-4.285,3-4.285V16.43H27.977z"/><path fill="#ebb81d" d="M36.977,9.152c0-5.039-12-3.281-12,0v5.203c0,3.281,2.684,5.941,6,5.941c3.313,0,6-2.66,6-5.941 V9.152z"/><path fill="#784719" d="M27.477,13.25c0-0.414,0.336-0.75,0.75-0.75c0.414,0,0.75,0.336,0.75,0.75 c0,0.414-0.336,0.75-0.75,0.75C27.812,14,27.477,13.664,27.477,13.25 M32.977,13.25c0,0.414,0.336,0.75,0.75,0.75 c0.414,0,0.75-0.336,0.75-0.75c0-0.414-0.336-0.75-0.75-0.75C33.312,12.5,32.977,12.836,32.977,13.25"/><path fill="#4e342e" d="M30.977,3c-4.141,0-10,1.445-10,15l5,4V12l8-4l2,3.09V22l5-4c0-2.746-0.234-13.637-7.273-13.637 L32.977,3H30.977z"/><path fill="#3f51b5" d="M33.977,21l-0.047,0.012C33.762,21.973,33.07,25,30.977,25s-2.785-3.027-2.953-3.988L27.977,21 c0,0-7.961,1.395-7.977,9h-0.023v6h22v-5.98H42C42,22.422,33.977,21,33.977,21z"/><path fill="#3f51b5" d="M33.977,21l-0.047,0.012C33.762,21.973,33.07,25,30.977,25s-2.785-3.027-2.953-3.988L27.977,21 c0,0-7.961,1.395-7.977,9h-0.023v6h22v-5.98H42C42,22.422,33.977,21,33.977,21z"/><path fill="#1a237e" d="M30.977,27c3.07,0,4.461-3.164,4.887-5.426C34.773,21.141,33.977,21,33.977,21l-0.047,0.012 C33.762,21.973,33.07,25,30.977,25s-2.785-3.027-2.953-3.988L27.977,21c0,0-0.797,0.141-1.887,0.57 C26.512,23.832,27.906,27,30.977,27z"/><path fill="#edbd28" d="M22 19.5c0 .828-.672 1.5-1.5 1.5S19 20.328 19 19.5s.672-1.5 1.5-1.5S22 18.672 22 19.5M11 19.5c0 .828-.672 1.5-1.5 1.5S8 20.328 8 19.5 8.672 18 9.5 18 11 18.672 11 19.5"/><path fill="#4fc3f7" d="M26.023,36.02C26.023,28.422,18,27,18,27l-2.977,0.711L12,27c0,0-7.961,1.395-7.977,9H4v2h22v-1.98 H26.023z"/><path fill="#edb405" d="M15,30c-3,0-3-3-3-3v-4h6v4C18,27,18,30,15,30z"/><path fill="#01579b" d="M15,32c3.316,0,4.719-2.441,4.957-4.395C18.832,27.152,18,27,18,27s0,3-3,3s-3-3-3-3 s-0.836,0.148-1.957,0.602C10.281,29.559,11.684,32,15,32z"/><path fill="#ffca28" d="M21,15.152c0-5.039-12-3.281-12,0v5.203c0,3.281,2.684,5.941,6,5.941c3.312,0,6-2.66,6-5.941V15.152z"/><path fill="#ffca28" d="M21,15.152c0-5.039-12-3.281-12,0v5.203c0,3.281,2.684,5.941,6,5.941c3.312,0,6-2.66,6-5.941V15.152z"/><path fill="#795548" d="M15,9c-4.254,0-7,3.773-7,7.148V18l2,2v-3l8-3l2,2v4l2-2v-0.957c0-2.816-0.727-5.953-4.199-6.645 L17,9H15z"/><path fill="#784719" d="M11.5 19.25c0 .414.336.75.75.75.414 0 .75-.336.75-.75s-.336-.75-.75-.75C11.836 18.5 11.5 18.836 11.5 19.25M17 19.25c0 .414.336.75.75.75s.75-.336.75-.75-.336-.75-.75-.75S17 18.836 17 19.25"/><path fill="#43a047" d="M44,35c0,5.523-4.477,10-10,10s-10-4.477-10-10s4.477-10,10-10S44,29.477,44,35"/><path fill="#fff" d="M32,29h4v12h-4V29z"/><path fill="#fff" d="M28,33h12v4H28V33z"/></svg>