<svg xmlns="http://www.w3.org/2000/svg" width="50" height="50" viewBox="0 0 16 16"><path fill="#8bb7f0" d="M0.5,10.5c0.4-2.8,3.8-3,4.5-3c0.4,0,4.1,0.1,4.5,3H0.5z"/><path fill="#4e7ab5" d="M5,8c0.6,0,3.2,0.1,3.8,2H1.2C1.8,8.1,4.4,8,5,8 M5,7c-1.5,0-5,0.6-5,4h10C10,7.6,6.5,7,5,7L5,7z"/><path fill="#f5ce85" d="M5,7.5c-0.8,0-1.6-0.7-1.9-1.8L3,5.4L2.8,5.3C2.6,5.3,2.5,5.2,2.5,5V3.7c0-0.6,0.8-0.9,2.5-0.9 c0.3,0,0.7-0.1,1-0.1c0.3,0,0.6-0.1,0.9-0.1c0.4,0,0.6,0,0.6,0.7V5c0,0.2-0.1,0.3-0.3,0.3L7,5.4L6.9,5.7C6.6,6.8,5.8,7.5,5,7.5z"/><path fill="#967a44" d="M6.9,3.1C6.9,3.1,7,3.1,6.9,3.1C7,3.2,7,3.3,7,3.4v1.5L6.6,5L6.4,5.5C6.2,6.4,5.6,7,5,7 S3.8,6.4,3.6,5.5L3.4,5L3,4.9l0-1.2c0,0,0.3-0.3,2-0.3c0.4,0,0.7-0.1,1.1-0.1C6.4,3.2,6.7,3.1,6.9,3.1 M6.9,2.1 C6.3,2.1,5.6,2.3,5,2.3c-1.3,0-3,0.2-3,1.4c0,0,0,1,0,1.3c0,0.4,0.3,0.7,0.6,0.8C3,7.1,3.9,8,5,8s2-0.9,2.4-2.2C7.7,5.7,8,5.4,8,5 c0-0.3,0-1.6,0-1.6C8,2.4,7.5,2.1,6.9,2.1L6.9,2.1z"/><path fill="#a6714e" d="M7.2,6.5c-0.2,0-0.4,0-0.6-0.1C6.8,6,7.1,5.4,7.1,4.6c0-0.8-0.8-1.6-0.9-1.7L5.9,2.6L5.6,2.9 c0,0-0.4,0.3-1.2,0.4C3.5,3.4,2.9,3.9,2.9,4.6c0,0.7,0.3,1.3,0.5,1.7C3.2,6.4,2.9,6.5,2.6,6.5c-0.4,0-0.8,0-1.1,0 C1.6,6,1.7,5.3,1.7,4.3c0-2.6,1.9-3.8,3.3-3.8c0.5,0,0.8,0.4,0.8,0.4L6,1.1l0.3,0c1.2,0,1.8,1.5,1.8,2.9c0,1.1,0.1,1.8,0.2,2.3 C8,6.4,7.6,6.5,7.2,6.5z"/><path fill="#7a4f34" d="M5,1c0.3,0,0.4,0.2,0.4,0.2l0.3,0.4h0.5c0.7,0,1.3,1.1,1.3,2.4c0,0.1,0,0.2,0,0.2 c-0.1-0.9-0.9-1.6-1-1.8L5.9,2L5.3,2.5c0,0-0.3,0.3-0.9,0.3C3,2.9,2.4,3.8,2.4,4.6c0,0.5,0.1,1,0.3,1.4c0,0,0,0-0.1,0 C2.4,6,2.2,6,2.1,6c0.1-0.4,0.1-1,0.1-1.7C2.2,2,3.8,1,5,1 M7.6,4.7c0,0.5,0.1,0.9,0.1,1.2C7.6,6,7.5,6,7.3,6 C7.5,5.6,7.6,5.2,7.6,4.7 M5,0C3.4,0,1.2,1.4,1.2,4.3c0,2.1-0.3,2.6-0.3,2.6S1.5,7,2.6,7c1,0,1.5-0.5,1.5-0.5S3.4,5.7,3.4,4.6 c0-0.4,0.4-0.8,1-0.8c0.9-0.1,1.4-0.5,1.4-0.5s0.7,0.6,0.7,1.3c0,1.3-0.9,2.1-0.9,2.1S6.3,7,7.2,7c0.9,0,1.7-0.4,1.7-0.4 S8.6,5.9,8.6,4.1c0-1.8-0.9-3.4-2.3-3.4C6.2,0.6,5.8,0,5,0L5,0z"/><path fill="#c2e8ff" d="M3.5,13.5c0.4-2.8,3.8-3,4.5-3c0.4,0,4.1,0.1,4.5,3H3.5z"/><path fill="#7496c4" d="M8,11c0.6,0,3.2,0.1,3.8,2H4.2C4.8,11.1,7.4,11,8,11 M8,10c-1.5,0-5,0.6-5,4h10 C13,10.6,9.5,10,8,10L8,10z"/><path fill="#ffdea3" d="M8,10.5c-0.8,0-1.6-0.7-1.9-1.8L6,8.4L5.8,8.3C5.6,8.3,5.5,8.2,5.5,8V6.7c0-0.9,1.4-2.3,2.5-2.3 c0.4,0,2.5,0.1,2.5,2V8c0,0.2-0.1,0.3-0.3,0.3L10,8.4L9.9,8.7C9.6,9.8,8.8,10.5,8,10.5z"/><path fill="#967a44" d="M8,4.9c0.6,0,2,0.1,2,1.5v1.5L9.6,8L9.4,8.5C9.2,9.4,8.6,10,8,10S6.8,9.4,6.6,8.5L6.4,8L6,7.9V6.7 C6,6.1,7.2,4.9,8,4.9 M8,3.9c-1.3,0-3,1.6-3,2.8c0,0,0,1,0,1.3c0,0.4,0.3,0.7,0.6,0.8C6,10.1,6.9,11,8,11s2-0.9,2.4-2.2 C10.7,8.7,11,8.4,11,8c0-0.3,0-1.6,0-1.6C11,4.5,9.3,3.9,8,3.9L8,3.9z"/><g><path fill="#f5ce85" d="M5.5,6.9c0-2.8,1.3-3.3,2.7-3.4l0.4,0.4h0.2c0.8,0,1.6,0.7,1.6,2.2V7V6.8L9.2,5.5H9 C7.4,5.5,5.5,5.8,5.5,6.9L5.5,6.9z"/><path fill="#967a44" d="M8,4l0.1,0.1l0.3,0.3h0.4c0.5,0,0.9,0.3,1.1,1.1L9.7,5.3L9.4,5H9C7.7,5,6.8,5.2,6.2,5.4 C6.4,4.4,7.1,4.1,8,4 M8.4,3C6.5,3,5,3.8,5,6.9v0.4l1,0.4c0,0,0-0.5,0-0.7c0-0.7,1.5-1,3-1l1,1v0.7l1-0.4c0-0.4,0-0.9,0-1.2 c0-1.8-1.1-2.7-2.1-2.7L8.4,3L8.4,3z"/></g><g><path fill="#5e9c76" d="M11.5 7A4.5 4.5 0 1 0 11.5 16A4.5 4.5 0 1 0 11.5 7Z"/></g><path fill="#fff" d="M11 8.9H12V14H11z"/><path fill="#fff" d="M8.9 11H14V12H8.9z"/></svg>