<svg xmlns="http://www.w3.org/2000/svg" width="50" height="50" fill="#000" viewBox="0 0 32 32"><path d="M 9.7460938 3.4921875 C 7.0460937 4.8481875 4.8481875 7.0460938 3.4921875 9.7460938 L 5.2792969 10.640625 C 6.4412969 8.326625 8.3246719 6.4412969 10.638672 5.2792969 L 9.7460938 3.4921875 z M 22.253906 3.4921875 L 21.359375 5.2792969 C 23.673375 6.4412969 25.558703 8.3246719 26.720703 10.638672 L 28.507812 9.7460938 C 27.151812 7.0460937 24.953906 4.8481875 22.253906 3.4921875 z M 16 5 C 9.9365932 5 5 9.9365932 5 16 C 5 18.943727 6.1986779 21.593725 8.0898438 23.570312 L 5.9667969 26.935547 L 7.6582031 28.001953 L 9.6972656 24.767578 C 11.505407 26.072078 13.606131 27 16 27 C 18.393287 27 20.49288 26.071501 22.300781 24.767578 L 24.306641 27.996094 L 26.005859 26.941406 L 23.910156 23.570312 C 25.801322 21.593725 27 18.943727 27 16 C 27 9.9365932 22.063407 5 16 5 z M 16 7 C 20.982593 7 25 11.017407 25 16 C 25 20.982593 20.982593 25 16 25 C 11.017407 25 7 20.982593 7 16 C 7 11.017407 11.017407 7 16 7 z M 15 12 L 15 15 L 12 15 L 12 17 L 15 17 L 15 20 L 17 20 L 17 17 L 20 17 L 20 15 L 17 15 L 17 12 L 15 12 z"/></svg>