<svg xmlns="http://www.w3.org/2000/svg" width="300" height="300" fill="#000" viewBox="0 0 64 64"><path d="M 26 2 C 23.796875 2 20.648438 2.6875 18.691406 4.007813 C 14.96875 4.144531 12.421875 6.757813 12.003906 10.902344 C 11.75 13.460938 11.984375 15.292969 12.136719 16.503906 C 12.191406 16.925781 12.25 17.402344 12.230469 17.542969 C 12.199219 17.730469 12.167969 17.917969 12.140625 18.105469 C 11.976563 18.113281 11.832031 18.136719 11.703125 18.171875 C 10.054688 18.613281 9.363281 21.023438 10.101563 23.777344 C 10.636719 25.773438 11.757813 27.273438 12.984375 27.734375 C 13.617188 29.671875 14.546875 31.597656 15.703125 33.332031 L 6.484375 38.671875 C 2.484375 40.984375 0 45.296875 0 49.917969 L 0 57 C 0 58.652344 1.347656 60 3 60 L 41.640625 60 C 44.007813 62.460938 47.324219 64 51 64 C 58.167969 64 64 58.167969 64 51 C 64 45.3125 60.320313 40.476563 55.222656 38.71875 L 46.53125 33.09375 C 47.820313 31.558594 48.894531 29.648438 49.578125 27.609375 C 50.527344 27.195313 51.363281 26.0625 51.769531 24.527344 C 52.015625 23.609375 52.066406 22.683594 51.90625 21.917969 C 51.707031 20.925781 51.152344 20.238281 50.394531 20.035156 C 50.34375 20.019531 50.289063 20.007813 50.230469 20 C 50.128906 19.34375 49.957031 18.703125 49.683594 17.917969 C 49.863281 17.964844 50.058594 18.027344 50.226563 18.09375 C 50.566406 18.238281 50.964844 18.179688 51.25 17.9375 C 51.539063 17.699219 51.667969 17.320313 51.589844 16.957031 C 50.359375 11.328125 46.179688 7.96875 40.414063 7.96875 L 39.671875 7.96875 C 39.519531 7.96875 39.351563 7.980469 39.191406 7.992188 C 36.550781 4.164063 32.289063 2 27 2 Z M 26 4 L 27 4 C 33.070313 4 37.453125 7.101563 39.25 12.582031 C 38.558594 12.503906 37.84375 12.589844 37.355469 13.0625 C 36.972656 13.425781 36.613281 14.125 37.066406 15.359375 C 37.683594 17.035156 37.902344 18.027344 37.96875 19.433594 C 37.984375 19.792969 38.195313 20.113281 38.511719 20.277344 C 38.828125 20.4375 39.210938 20.417969 39.511719 20.222656 C 39.675781 20.117188 39.761719 20.105469 39.78125 20.105469 C 40.023438 20.1875 40.460938 21.40625 39.964844 23.261719 C 39.472656 25.101563 38.527344 25.878906 38.234375 25.878906 C 37.789063 25.867188 37.402344 26.171875 37.277344 26.59375 C 35.589844 32.261719 31.179688 38 26 38 C 20.820313 38 16.410156 32.261719 14.722656 26.59375 C 14.597656 26.171875 14.210938 25.878906 13.765625 25.878906 C 13.472656 25.878906 12.527344 25.101563 12.035156 23.261719 C 11.535156 21.390625 11.984375 20.167969 12.214844 20.105469 C 12.21875 20.105469 12.304688 20.105469 12.484375 20.222656 C 12.789063 20.417969 13.171875 20.4375 13.488281 20.277344 C 13.808594 20.113281 14.011719 19.792969 14.03125 19.433594 C 14.054688 18.910156 14.109375 18.390625 14.199219 17.890625 C 14.273438 17.460938 14.214844 16.980469 14.121094 16.25 C 13.976563 15.128906 13.761719 13.433594 13.996094 11.101563 C 14.3125 7.910156 16.183594 6 19.015625 6 C 19.234375 6 19.441406 5.929688 19.617188 5.800781 C 20.988281 4.773438 23.730469 4 26 4 Z M 40.347656 9.96875 L 40.417969 9.96875 C 44.691406 9.96875 47.8125 12.085938 49.1875 15.84375 C 48.738281 15.851563 48.296875 15.964844 47.964844 16.285156 C 47.621094 16.609375 47.296875 17.222656 47.6875 18.269531 C 48.136719 19.496094 48.296875 20.214844 48.34375 21.234375 C 48.359375 21.59375 48.566406 21.914063 48.886719 22.078125 C 49.199219 22.234375 49.570313 22.21875 49.867188 22.035156 C 49.992188 22.316406 50.101563 23.035156 49.839844 24.011719 C 49.53125 25.15625 48.957031 25.730469 48.796875 25.777344 L 48.792969 25.777344 C 48.351563 25.777344 47.960938 26.066406 47.835938 26.492188 C 47 29.304688 45.335938 31.886719 43.390625 33.394531 C 42.953125 33.734375 42.871094 34.363281 43.210938 34.796875 C 43.40625 35.054688 43.703125 35.1875 44 35.1875 C 44.214844 35.1875 44.429688 35.121094 44.613281 34.980469 C 44.78125 34.847656 44.945313 34.699219 45.109375 34.558594 L 50.472656 38.027344 C 48.894531 38.089844 47.390625 38.421875 46.003906 39 C 45.835938 38.894531 45.6875 38.769531 45.515625 38.671875 L 36.296875 33.332031 C 37.453125 31.597656 38.378906 29.671875 39.015625 27.734375 C 40.238281 27.273438 41.363281 25.777344 41.894531 23.777344 C 42.632813 21.023438 41.945313 18.613281 40.296875 18.171875 C 40.171875 18.140625 40.023438 18.113281 39.859375 18.105469 C 39.722656 17.035156 39.449219 16.035156 38.941406 14.667969 C 38.929688 14.628906 38.917969 14.59375 38.90625 14.5625 C 39.257813 14.589844 39.824219 14.734375 40.285156 14.921875 C 40.632813 15.066406 41.027344 15.007813 41.3125 14.765625 C 41.597656 14.527344 41.726563 14.148438 41.644531 13.785156 C 41.34375 12.40625 40.90625 11.128906 40.347656 9.96875 Z M 20.527344 10.125 C 19.8125 10.0625 19.09375 10.386719 18.683594 11.015625 L 17.078125 13.449219 C 16.773438 13.910156 16.902344 14.53125 17.363281 14.835938 C 17.535156 14.949219 17.722656 15 17.910156 15 C 18.238281 15 18.554688 14.84375 18.75 14.550781 L 20.351563 12.117188 L 21.914063 12.878906 C 24.761719 14.265625 27.945313 15 31.113281 15 L 33.667969 15 C 34.21875 15 34.667969 14.550781 34.667969 14 C 34.667969 13.449219 34.21875 13 33.667969 13 L 31.113281 13 C 28.246094 13 25.367188 12.335938 22.792969 11.078125 L 21.230469 10.316406 C 21.003906 10.207031 20.765625 10.144531 20.527344 10.125 Z M 16.90625 34.941406 C 19.339844 37.910156 22.503906 40 26 40 C 29.496094 40 32.660156 37.914063 35.09375 34.945313 L 43.96875 40.082031 C 40.382813 42.402344 38 46.425781 38 51 C 38 53.578125 38.761719 55.976563 40.0625 58 L 3 58 C 2.449219 58 2 57.550781 2 57 L 2 49.917969 C 2 46.007813 4.101563 42.359375 7.488281 40.398438 Z M 51 40 C 57.066406 40 62 44.933594 62 51 C 62 57.066406 57.066406 62 51 62 C 44.933594 62 40 57.066406 40 51 C 40 44.933594 44.933594 40 51 40 Z M 18.0625 40 C 17.671875 39.976563 17.289063 40.183594 17.105469 40.550781 C 16.859375 41.046875 17.058594 41.648438 17.550781 41.894531 L 25.550781 45.894531 C 25.695313 45.964844 25.847656 46 26 46 C 26.152344 46 26.308594 45.964844 26.449219 45.894531 L 34.449219 41.894531 C 34.941406 41.648438 35.140625 41.046875 34.894531 40.550781 C 34.648438 40.058594 34.046875 39.859375 33.550781 40.105469 L 26 43.882813 L 18.449219 40.105469 C 18.324219 40.042969 18.191406 40.011719 18.0625 40 Z M 51 44 C 50.449219 44 50 44.449219 50 45 L 50 50 L 45 50 C 44.449219 50 44 50.449219 44 51 C 44 51.550781 44.449219 52 45 52 L 50 52 L 50 57 C 50 57.550781 50.449219 58 51 58 C 51.550781 58 52 57.550781 52 57 L 52 52 L 57 52 C 57.550781 52 58 51.550781 58 51 C 58 50.449219 57.550781 50 57 50 L 52 50 L 52 45 C 52 44.449219 51.550781 44 51 44 Z M 6 52 C 5.449219 52 5 52.449219 5 53 L 5 55 C 5 55.550781 5.449219 56 6 56 C 6.550781 56 7 55.550781 7 55 L 7 53 C 7 52.449219 6.550781 52 6 52 Z M 11 52 C 10.449219 52 10 52.449219 10 53 L 10 55 C 10 55.550781 10.449219 56 11 56 C 11.550781 56 12 55.550781 12 55 L 12 53 C 12 52.449219 11.550781 52 11 52 Z M 16 52 C 15.449219 52 15 52.449219 15 53 L 15 55 C 15 55.550781 15.449219 56 16 56 C 16.550781 56 17 55.550781 17 55 L 17 53 C 17 52.449219 16.550781 52 16 52 Z M 21 52 C 20.449219 52 20 52.449219 20 53 L 20 55 C 20 55.550781 20.449219 56 21 56 C 21.550781 56 22 55.550781 22 55 L 22 53 C 22 52.449219 21.550781 52 21 52 Z M 26 52 C 25.449219 52 25 52.449219 25 53 L 25 55 C 25 55.550781 25.449219 56 26 56 C 26.550781 56 27 55.550781 27 55 L 27 53 C 27 52.449219 26.550781 52 26 52 Z M 31 52 C 30.449219 52 30 52.449219 30 53 L 30 55 C 30 55.550781 30.449219 56 31 56 C 31.550781 56 32 55.550781 32 55 L 32 53 C 32 52.449219 31.550781 52 31 52 Z M 36 52 C 35.449219 52 35 52.449219 35 53 L 35 55 C 35 55.550781 35.449219 56 36 56 C 36.550781 56 37 55.550781 37 55 L 37 53 C 37 52.449219 36.550781 52 36 52 Z"/></svg>