<?xml version="1.0"?><svg fill="#000000" xmlns="http://www.w3.org/2000/svg" viewBox="0 0 128 128" width="100px" height="100px">    <path d="M 98.099609 1 A 3 3 0 0 0 95.099609 4 A 3 3 0 0 0 98.099609 7 A 3 3 0 0 0 101.09961 4 A 3 3 0 0 0 98.099609 1 z M 82.458984 4.6132812 C 82.068359 4.6320312 81.675781 4.7253906 81.300781 4.9003906 C 68.100781 11.400391 60.199609 24.600781 60.099609 38.800781 L 56.099609 34.800781 C 54.899609 33.600781 53.000391 33.600781 51.900391 34.800781 C 50.700391 36.000781 50.700391 37.9 51.900391 39 L 61.900391 49 C 62.500391 49.6 63.2 49.900391 64 49.900391 C 64.5 49.900391 65 49.8 65.5 49.5 C 65.7 49.4 65.999609 49.2 66.099609 49 L 76.099609 39 C 77.299609 37.8 77.299609 35.900781 76.099609 34.800781 C 74.899609 33.600781 73.000391 33.600781 71.900391 34.800781 L 66.099609 40.599609 C 65.499609 27.999609 72.300391 16.100781 83.900391 10.300781 C 85.400391 9.6007813 86.000781 7.8007812 85.300781 6.3007812 C 84.775781 5.1757812 83.630859 4.5570313 82.458984 4.6132812 z M 25 66 C 20 66 16 70 16 75 C 16 80 20 84 25 84 L 25.699219 84 L 29.900391 115.69922 C 30.700391 122.09922 36.300781 127 42.800781 127 L 85.300781 127 C 91.700781 127 97.299609 122.09922 98.099609 115.69922 L 102.30078 84 L 103 84 C 108 84 112 80 112 75 C 112 70 108 66 103 66 L 25 66 z M 25 72 L 103 72 C 104.7 72 106 73.3 106 75 C 106 76.7 104.7 78 103 78 L 25 78 C 23.3 78 22 76.7 22 75 C 22 73.3 23.3 72 25 72 z M 31.699219 84 L 96.199219 84 L 92.099609 114.90039 C 91.599609 118.40039 88.699219 121 85.199219 121 L 42.800781 121 C 39.300781 121 36.300781 118.40039 35.800781 114.90039 L 31.699219 84 z"/></svg>