<svg xmlns="http://www.w3.org/2000/svg" width="300" height="300" fill="#000" viewBox="0 0 24 24"><path d="M 12 1 C 10.696 1 9.5965937 1.837 9.1835938 3 L 5 3 C 3.895 3 3 3.895 3 5 L 3 19 C 3 20.105 3.895 21 5 21 L 12.294922 21 C 12.105922 20.366 12 19.695 12 19 L 5 19 L 5 5 L 7 5 L 7 6 C 7 6.552 7.448 7 8 7 L 16 7 C 16.552 7 17 6.552 17 6 L 17 5 L 19 5 L 19 12 C 19.695 12 20.366 12.105922 21 12.294922 L 21 5 C 21 3.895 20.105 3 19 3 L 14.816406 3 C 14.403406 1.837 13.304 1 12 1 z M 12 3 C 12.552 3 13 3.448 13 4 C 13 4.414 12.747547 4.77 12.388672 4.921875 L 12 5 L 11.611328 4.921875 C 11.252453 4.77 11 4.414 11 4 C 11 3.448 11.448 3 12 3 z M 19 14 C 16.239 14 14 16.239 14 19 C 14 21.761 16.239 24 19 24 C 21.761 24 24 21.761 24 19 C 24 16.239 21.761 14 19 14 z M 18 16 L 20 16 L 20 18 L 22 18 L 22 20 L 20 20 L 20 22 L 18 22 L 18 20 L 16 20 L 16 18 L 18 18 L 18 16 z"/></svg>