<svg xmlns="http://www.w3.org/2000/svg" width="50" height="50" fill="#000" viewBox="0 0 26 26"><path d="M 25.898438 10 C 25.800781 9.601563 25.398438 9.300781 25.101563 9.300781 L 17.398438 8.199219 L 14 1.199219 C 13.601563 0.5 12.5 0.5 12.101563 1.199219 L 8.699219 8.199219 L 0.898438 9.300781 C 0.5 9.300781 0.199219 9.601563 0.101563 10 C 0 10.398438 0.101563 10.800781 0.398438 11.101563 L 6 16.5 L 4.699219 24.199219 C 4.601563 24.601563 4.800781 25 5.101563 25.199219 C 5.398438 25.398438 5.898438 25.5 6.199219 25.300781 L 13.101563 21.699219 L 20 25.300781 C 20.199219 25.398438 20.300781 25.398438 20.5 25.398438 C 20.699219 25.398438 20.898438 25.300781 21.101563 25.199219 C 21.398438 25 21.601563 24.601563 21.5 24.199219 L 20.199219 16.5 L 25.800781 11.101563 C 26 10.800781 26.101563 10.300781 25.898438 10 Z M 17 15 L 14 15 L 14 18 L 12 18 L 12 15 L 9 15 L 9 13 L 12 13 L 12 10 L 14 10 L 14 13 L 17 13 Z"/></svg>