<svg xmlns="http://www.w3.org/2000/svg" width="50" height="50" fill="#000" viewBox="0 0 24 24"><path d="M 10 2 L 9 3 L 5 3 C 4.448 3 4 3.448 4 4 C 4 4.552 4.448 5 5 5 L 19 5 C 19.552 5 20 4.552 20 4 C 20 3.448 19.552 3 19 3 L 15 3 L 14 2 L 10 2 z M 5 7 L 5 20 C 5 21.1 5.9 22 7 22 L 12.683594 22 C 12.250594 21.09 12 20.075 12 19 C 12 17.094 12.764 15.367469 14 14.105469 L 14 10 C 14 9.448 14.448 9 15 9 C 15.552 9 16 9.448 16 10 L 16 12.683594 C 16.91 12.250594 17.925 12 19 12 L 19 7 L 5 7 z M 9 9 C 9.552 9 10 9.448 10 10 L 10 19 C 10 19.552 9.552 20 9 20 C 8.448 20 8 19.552 8 19 L 8 10 C 8 9.448 8.448 9 9 9 z M 19 14 C 16.239 14 14 16.239 14 19 C 14 21.761 16.239 24 19 24 C 21.761 24 24 21.761 24 19 C 24 16.239 21.761 14 19 14 z M 19 16 C 19.552 16 20 16.448 20 17 L 20 18 L 21 18 C 21.552 18 22 18.448 22 19 C 22 19.552 21.552 20 21 20 L 20 20 L 20 21 C 20 21.552 19.552 22 19 22 C 18.448 22 18 21.552 18 21 L 18 20 L 17 20 C 16.448 20 16 19.552 16 19 C 16 18.448 16.448 18 17 18 L 18 18 L 18 17 C 18 16.448 18.448 16 19 16 z"/></svg>