<svg xmlns="http://www.w3.org/2000/svg" width="300" height="300" viewBox="0 0 64 64"><radialGradient id="1vvVRg6kvDkA1VOcknSnZa" cx="32.5" cy="32" r="31.751" gradientUnits="userSpaceOnUse" spreadMethod="reflect"><stop offset="0" stop-color="#afeeff"/><stop offset=".193" stop-color="#bbf1ff"/><stop offset=".703" stop-color="#d7f8ff"/><stop offset="1" stop-color="#e1faff"/></radialGradient><path fill="url(#1vvVRg6kvDkA1VOcknSnZa)" d="M61.501,18.008H56c-1.1,0-2-0.9-2-2c0-1.1,0.9-2,2-2h2c1.85,0,3.32-1.69,2.94-3.6 c-0.28-1.43-1.62-2.4-3.07-2.4L45.5,8C44.67,8,44,7.33,44,6.5C44,5.67,44.67,5,45.5,5h5.91c1.14,0,2.2-0.72,2.5-1.82 C54.36,1.52,53.1,0,51.5,0H7.59c-1.14,0-2.2,0.72-2.5,1.82C4.64,3.48,5.9,5,7.5,5h3c0.69,0,1.32,0.28,1.77,0.73 C12.72,6.18,13,6.81,13,7.5c0,1.38-1.12,2.5-2.5,2.5H4c-1.65,0-3,1.35-3,3c0,1.65,1.35,3,3,3h21c0.35,0,0.69-0.07,1-0.19V23H13v9 h4.5c1.38,0,2.5,1.12,2.5,2.5c0,0.69-0.28,1.32-0.73,1.77C18.82,36.72,18.19,37,17.5,37h-8C8.12,37,7,38.12,7,39.5S8.12,42,9.5,42h4 c1.209,0,2.218,0.859,2.45,2H5.5C3.025,44,1,46.025,1,48.5C1,50.975,3.025,53,5.5,53h19c1.38,0,2.5,1.12,2.5,2.5S25.88,58,24.5,58 H19c-1.66,0-3,1.34-3,3c0,1.66,1.34,3,3,3h33c1.66,0,4.108-1.34,4.108-3c0-1.66-1.34-3-3-3H53.5c-1.38,0-2.5-1.12-2.5-2.5 s1.12-2.5,2.5-2.5h4c2.475,0,4.5-2.025,4.5-4.5c0-2.475-2.025-4.5-4.5-4.5H47.437c0.314-1.587-0.896-3-2.437-3c-0.83,0,1-0.67,1-1.5 c0-0.83,0.67-1.5,1.5-1.5c0,0,0.5-11.9,0.5-13c0-1.1,0.9-2,2-2l11.411,0.008c1.14,0,2.2-0.72,2.5-1.82 C64.351,19.527,63.091,18.008,61.501,18.008z"/><linearGradient id="1vvVRg6kvDkA1VOcknSnZb" x1="34" x2="34" y1="59.728" y2="9.363" gradientUnits="userSpaceOnUse" spreadMethod="reflect"><stop offset="0" stop-color="#ffc050"/><stop offset=".004" stop-color="#ffc050"/><stop offset=".641" stop-color="#ffbe75"/><stop offset="1" stop-color="#ffbd85"/><stop offset="1" stop-color="#ffbd85"/></linearGradient><path fill="url(#1vvVRg6kvDkA1VOcknSnZb)" d="M60.544,28.629L46.733,15.631C45.62,14.583,44.149,14,42.621,14H9c-1.657,0-3,1.343-3,3v30 c0,1.657,1.343,3,3,3h33.62c1.528,0,2.999-0.583,4.112-1.631l13.811-12.998C61.473,34.496,62,33.276,62,32 S61.473,29.504,60.544,28.629z M52,35c-1.657,0-3-1.343-3-3s1.343-3,3-3s3,1.343,3,3S53.657,35,52,35z"/><linearGradient id="1vvVRg6kvDkA1VOcknSnZc" x1="15" x2="15" y1="29" y2="14" gradientUnits="userSpaceOnUse" spreadMethod="reflect"><stop offset="0" stop-color="#ffc975"/><stop offset="1" stop-color="#ffc78e"/></linearGradient><path fill="url(#1vvVRg6kvDkA1VOcknSnZc)" d="M14.5,29H6V17c0-1.657,1.343-3,3-3h9.5c1.381,0,2.5,1.119,2.5,2.5v0 c0,1.381-1.119,2.5-2.5,2.5h-5c-1.381,0-2.5,1.119-2.5,2.5v0c0,1.381,1.119,2.5,2.5,2.5h1c1.381,0,2.5,1.119,2.5,2.5v0 C17,27.881,15.881,29,14.5,29z M22,25c-1.105,0-2,0.895-2,2s0.895,2,2,2s2-0.895,2-2S23.105,25,22,25z"/><linearGradient id="1vvVRg6kvDkA1VOcknSnZd" x1="43.442" x2="43.442" y1="50" y2="33" gradientUnits="userSpaceOnUse" spreadMethod="reflect"><stop offset="0" stop-color="#ffb261"/><stop offset="1" stop-color="#ffb66d"/></linearGradient><path fill="url(#1vvVRg6kvDkA1VOcknSnZd)" d="M46.733,48.369C45.62,49.417,44.149,50,42.62,50H28c-1.657,0-3-1.343-3-3s1.343-3,3-3h10.5 c1.381,0,2.5-1.119,2.5-2.5c0-1.381-1.119-2.5-2.5-2.5H38c-1.657,0-3-1.343-3-3s1.343-3,3-3h11.184c0.413,1.163,1.512,2,2.816,2 s2.403-0.837,2.816-2h7.069c-0.199,0.899-0.659,1.729-1.341,2.371L46.733,48.369z M30,33c-1.657,0-3,1.343-3,3s1.343,3,3,3 s3-1.343,3-3S31.657,33,30,33z"/><linearGradient id="1vvVRg6kvDkA1VOcknSnZe" x1="52" x2="52" y1="40" y2="64" gradientUnits="userSpaceOnUse" spreadMethod="reflect"><stop offset="0" stop-color="#42d778"/><stop offset=".428" stop-color="#3dca76"/><stop offset="1" stop-color="#34b171"/></linearGradient><path fill="url(#1vvVRg6kvDkA1VOcknSnZe)" d="M52 40A12 12 0 1 0 52 64A12 12 0 1 0 52 40Z"/><path fill="#fff" d="M57,54H47c-1.1,0-2-0.9-2-2v0c0-1.1,0.9-2,2-2h10c1.1,0,2,0.9,2,2v0C59,53.1,58.1,54,57,54z"/><path fill="#fff" d="M54,47v10c0,1.1-0.9,2-2,2h0c-1.1,0-2-0.9-2-2V47c0-1.1,0.9-2,2-2h0C53.1,45,54,45.9,54,47z"/></svg>