<svg xmlns="http://www.w3.org/2000/svg" width="500" height="500" fill="#000" viewBox="0 0 80 80"><path d="M 21 11 L 21 12 L 21 21 L 25 21 A 1 1 0 0 0 26 22 A 1 1 0 0 0 27 21 L 31 21 L 31 11 L 21 11 z M 23 13 L 29 13 L 29 19 L 23 19 L 23 13 z M 54 22 C 47.936712 22 43 26.936712 43 33 C 43 39.063288 47.936712 44 54 44 C 60.063288 44 65 39.063288 65 33 C 65 26.936712 60.063288 22 54 22 z M 43 33 A 1 1 0 0 0 42 32 A 1 1 0 0 0 41 33 A 1 1 0 0 0 42 34 A 1 1 0 0 0 43 33 z M 26 24 A 1 1 0 0 0 25 25 A 1 1 0 0 0 26 26 A 1 1 0 0 0 27 25 A 1 1 0 0 0 26 24 z M 54 24 C 58.982407 24 63 28.017593 63 33 C 63 37.982407 58.982407 42 54 42 C 49.017593 42 45 37.982407 45 33 C 45 28.017593 49.017593 24 54 24 z M 26 28 A 1 1 0 0 0 25 29 A 1 1 0 0 0 26 30 A 1 1 0 0 0 27 29 A 1 1 0 0 0 26 28 z M 53 28 L 53 32 L 49 32 L 49 34 L 53 34 L 53 38 L 55 38 L 55 34 L 59 34 L 59 32 L 55 32 L 55 28 L 53 28 z M 26 32 A 1 1 0 0 0 25 33 A 1 1 0 0 0 26 34 A 1 1 0 0 0 27 33 A 1 1 0 0 0 26 32 z M 30 32 A 1 1 0 0 0 29 33 A 1 1 0 0 0 30 34 A 1 1 0 0 0 31 33 A 1 1 0 0 0 30 32 z M 34 32 A 1 1 0 0 0 33 33 A 1 1 0 0 0 34 34 A 1 1 0 0 0 35 33 A 1 1 0 0 0 34 32 z M 38 32 A 1 1 0 0 0 37 33 A 1 1 0 0 0 38 34 A 1 1 0 0 0 39 33 A 1 1 0 0 0 38 32 z M 26 36 A 1 1 0 0 0 25 37 A 1 1 0 0 0 26 38 A 1 1 0 0 0 27 37 A 1 1 0 0 0 26 36 z M 26 40 A 1 1 0 0 0 25 41 A 1 1 0 0 0 26 42 A 1 1 0 0 0 27 41 A 1 1 0 0 0 26 40 z M 26 44 A 1 1 0 0 0 25 45 A 1 1 0 0 0 26 46 A 1 1 0 0 0 27 45 A 1 1 0 0 0 26 44 z M 26 48 A 1 1 0 0 0 25 49 A 1 1 0 0 0 26 50 A 1 1 0 0 0 27 49 A 1 1 0 0 0 26 48 z M 49 48 L 49 49 L 49 58 L 59 58 L 59 48 L 49 48 z M 51 50 L 57 50 L 57 56 L 51 56 L 51 50 z M 26 52 A 1 1 0 0 0 25 53 A 1 1 0 0 0 26 54 A 1 1 0 0 0 27 53 A 1 1 0 0 0 26 52 z M 30 52 A 1 1 0 0 0 29 53 A 1 1 0 0 0 30 54 A 1 1 0 0 0 31 53 A 1 1 0 0 0 30 52 z M 34 52 A 1 1 0 0 0 33 53 A 1 1 0 0 0 34 54 A 1 1 0 0 0 35 53 A 1 1 0 0 0 34 52 z M 38 52 A 1 1 0 0 0 37 53 A 1 1 0 0 0 38 54 A 1 1 0 0 0 39 53 A 1 1 0 0 0 38 52 z M 42 52 A 1 1 0 0 0 41 53 A 1 1 0 0 0 42 54 A 1 1 0 0 0 43 53 A 1 1 0 0 0 42 52 z M 46 52 A 1 1 0 0 0 45 53 A 1 1 0 0 0 46 54 A 1 1 0 0 0 47 53 A 1 1 0 0 0 46 52 z M 26 56 A 1 1 0 0 0 25 57 A 1 1 0 0 0 26 58 A 1 1 0 0 0 27 57 A 1 1 0 0 0 26 56 z M 26 60 A 1 1 0 0 0 25 61 A 1 1 0 0 0 26 62 A 1 1 0 0 0 27 61 A 1 1 0 0 0 26 60 z M 49 60 L 49 61 L 49 70 L 59 70 L 59 60 L 49 60 z M 51 62 L 57 62 L 57 68 L 51 68 L 51 62 z M 26 64 A 1 1 0 0 0 25 65 A 1 1 0 0 0 26 66 A 1 1 0 0 0 27 65 A 1 1 0 0 0 26 64 z M 30 64 A 1 1 0 0 0 29 65 A 1 1 0 0 0 30 66 A 1 1 0 0 0 31 65 A 1 1 0 0 0 30 64 z M 34 64 A 1 1 0 0 0 33 65 A 1 1 0 0 0 34 66 A 1 1 0 0 0 35 65 A 1 1 0 0 0 34 64 z M 38 64 A 1 1 0 0 0 37 65 A 1 1 0 0 0 38 66 A 1 1 0 0 0 39 65 A 1 1 0 0 0 38 64 z M 42 64 A 1 1 0 0 0 41 65 A 1 1 0 0 0 42 66 A 1 1 0 0 0 43 65 A 1 1 0 0 0 42 64 z M 46 64 A 1 1 0 0 0 45 65 A 1 1 0 0 0 46 66 A 1 1 0 0 0 47 65 A 1 1 0 0 0 46 64 z"/></svg>