<svg fill="#000000" xmlns="http://www.w3.org/2000/svg" viewBox="0 0 64 64" width="100px" height="100px"><path d="M 26 2 C 23.796875 2 20.648438 2.6875 18.691406 4.007813 C 14.96875 4.144531 12.421875 6.757813 12.003906 10.902344 C 11.75 13.460938 11.984375 15.292969 12.136719 16.503906 C 12.191406 16.925781 12.25 17.402344 12.230469 17.542969 C 12.199219 17.730469 12.167969 17.917969 12.140625 18.105469 C 11.976563 18.113281 11.828125 18.136719 11.703125 18.171875 C 10.054688 18.613281 9.363281 21.023438 10.101563 23.777344 C 10.636719 25.773438 11.757813 27.273438 12.984375 27.734375 C 13.617188 29.671875 14.546875 31.597656 15.703125 33.332031 L 6.484375 38.671875 C 2.484375 40.984375 0 45.296875 0 49.917969 L 0 57 C 0 58.652344 1.347656 60 3 60 L 41.640625 60 C 44.007813 62.460938 47.324219 64 51 64 C 58.167969 64 64 58.167969 64 51 C 64 43.832031 58.167969 38 51 38 C 49.230469 38 47.542969 38.359375 46.003906 39 C 45.835938 38.894531 45.6875 38.769531 45.515625 38.671875 L 36.296875 33.332031 C 37.453125 31.597656 38.382813 29.671875 39.015625 27.734375 C 40.242188 27.273438 41.363281 25.777344 41.898438 23.777344 C 42.636719 21.023438 41.945313 18.613281 40.296875 18.171875 C 40.171875 18.140625 40.027344 18.113281 39.863281 18.105469 C 39.722656 17.035156 39.449219 16.035156 38.945313 14.667969 C 38.929688 14.628906 38.917969 14.59375 38.90625 14.5625 C 39.261719 14.589844 39.824219 14.734375 40.285156 14.921875 C 40.632813 15.066406 41.027344 15.007813 41.3125 14.765625 C 41.597656 14.527344 41.726563 14.148438 41.648438 13.785156 C 40.035156 6.40625 34.558594 2 27 2 Z M 26 4 L 27 4 C 33.070313 4 37.453125 7.101563 39.25 12.582031 C 38.5625 12.507813 37.84375 12.589844 37.355469 13.0625 C 36.972656 13.425781 36.613281 14.125 37.066406 15.359375 C 37.683594 17.035156 37.902344 18.027344 37.96875 19.433594 C 37.984375 19.792969 38.195313 20.113281 38.511719 20.277344 C 38.828125 20.4375 39.210938 20.417969 39.511719 20.222656 C 39.675781 20.117188 39.761719 20.105469 39.78125 20.105469 C 40.023438 20.1875 40.460938 21.40625 39.964844 23.261719 C 39.472656 25.101563 38.527344 25.878906 38.234375 25.878906 C 37.789063 25.832031 37.402344 26.171875 37.277344 26.59375 C 35.589844 32.261719 31.175781 38 26 38 C 20.824219 38 16.410156 32.261719 14.722656 26.59375 C 14.597656 26.171875 14.210938 25.878906 13.765625 25.878906 C 13.472656 25.878906 12.527344 25.101563 12.035156 23.261719 C 11.535156 21.390625 11.984375 20.167969 12.214844 20.105469 C 12.21875 20.105469 12.304688 20.105469 12.484375 20.222656 C 12.785156 20.417969 13.171875 20.4375 13.488281 20.277344 C 13.808594 20.113281 14.011719 19.792969 14.03125 19.433594 C 14.054688 18.914063 14.109375 18.394531 14.199219 17.890625 C 14.273438 17.460938 14.214844 16.980469 14.121094 16.25 C 13.976563 15.128906 13.761719 13.433594 13.996094 11.101563 C 14.3125 7.910156 16.183594 6 19.015625 6 C 19.234375 6 19.441406 5.929688 19.617188 5.800781 C 20.988281 4.773438 23.730469 4 26 4 Z M 20.527344 10.125 C 19.8125 10.0625 19.09375 10.386719 18.683594 11.015625 L 17.078125 13.449219 C 16.773438 13.910156 16.902344 14.53125 17.363281 14.835938 C 17.535156 14.949219 17.722656 15 17.910156 15 C 18.238281 15 18.554688 14.84375 18.75 14.550781 L 20.351563 12.117188 L 21.914063 12.878906 C 24.761719 14.265625 27.941406 15 31.109375 15 L 33.667969 15 C 34.21875 15 34.667969 14.550781 34.667969 14 C 34.667969 13.449219 34.21875 13 33.667969 13 L 31.109375 13 C 28.246094 13 25.367188 12.335938 22.792969 11.078125 L 21.230469 10.316406 C 21.003906 10.207031 20.765625 10.144531 20.527344 10.125 Z M 16.90625 34.941406 C 19.339844 37.910156 22.503906 40 26 40 C 29.496094 40 32.65625 37.914063 35.089844 34.945313 L 43.96875 40.082031 C 40.382813 42.402344 38 46.425781 38 51 C 38 53.578125 38.761719 55.976563 40.0625 58 L 3 58 C 2.449219 58 2 57.550781 2 57 L 2 49.917969 C 2 46.007813 4.101563 42.359375 7.488281 40.398438 Z M 33.9375 40 C 33.808594 40.007813 33.675781 40.042969 33.550781 40.105469 L 26 43.882813 L 18.449219 40.105469 C 17.953125 39.859375 17.351563 40.058594 17.105469 40.550781 C 16.859375 41.046875 17.058594 41.648438 17.550781 41.894531 L 25.550781 45.894531 C 25.695313 45.964844 25.847656 46 26 46 C 26.152344 46 26.308594 45.964844 26.449219 45.894531 L 34.449219 41.894531 C 34.941406 41.648438 35.140625 41.046875 34.894531 40.550781 C 34.710938 40.183594 34.328125 39.976563 33.9375 40 Z M 51 40 C 57.066406 40 62 44.933594 62 51 C 62 57.066406 57.066406 62 51 62 C 44.933594 62 40 57.066406 40 51 C 40 44.933594 44.933594 40 51 40 Z M 51 44 C 50.449219 44 50 44.449219 50 45 L 50 50 L 45 50 C 44.449219 50 44 50.449219 44 51 C 44 51.550781 44.449219 52 45 52 L 50 52 L 50 57 C 50 57.550781 50.449219 58 51 58 C 51.550781 58 52 57.550781 52 57 L 52 52 L 57 52 C 57.550781 52 58 51.550781 58 51 C 58 50.449219 57.550781 50 57 50 L 52 50 L 52 45 C 52 44.449219 51.550781 44 51 44 Z M 6 52 C 5.449219 52 5 52.449219 5 53 L 5 55 C 5 55.550781 5.449219 56 6 56 C 6.550781 56 7 55.550781 7 55 L 7 53 C 7 52.449219 6.550781 52 6 52 Z M 11 52 C 10.449219 52 10 52.449219 10 53 L 10 55 C 10 55.550781 10.449219 56 11 56 C 11.550781 56 12 55.550781 12 55 L 12 53 C 12 52.449219 11.550781 52 11 52 Z M 16 52 C 15.449219 52 15 52.449219 15 53 L 15 55 C 15 55.550781 15.449219 56 16 56 C 16.550781 56 17 55.550781 17 55 L 17 53 C 17 52.449219 16.550781 52 16 52 Z M 21 52 C 20.449219 52 20 52.449219 20 53 L 20 55 C 20 55.550781 20.449219 56 21 56 C 21.550781 56 22 55.550781 22 55 L 22 53 C 22 52.449219 21.550781 52 21 52 Z M 26 52 C 25.449219 52 25 52.449219 25 53 L 25 55 C 25 55.550781 25.449219 56 26 56 C 26.550781 56 27 55.550781 27 55 L 27 53 C 27 52.449219 26.550781 52 26 52 Z M 31 52 C 30.449219 52 30 52.449219 30 53 L 30 55 C 30 55.550781 30.449219 56 31 56 C 31.550781 56 32 55.550781 32 55 L 32 53 C 32 52.449219 31.550781 52 31 52 Z M 36 52 C 35.449219 52 35 52.449219 35 53 L 35 55 C 35 55.550781 35.449219 56 36 56 C 36.550781 56 37 55.550781 37 55 L 37 53 C 37 52.449219 36.550781 52 36 52 Z"/></svg>