<svg xmlns="http://www.w3.org/2000/svg" width="50" height="50" fill="#000" viewBox="0 0 30 30"><path d="M 17 3 C 16.488 3 15.975938 3.1949375 15.585938 3.5859375 L 3.5859375 15.585938 C 2.8049375 16.366937 2.8049375 17.633063 3.5859375 18.414062 L 11.585938 26.414062 C 12.366938 27.195062 13.633063 27.195062 14.414062 26.414062 L 14.605469 26.222656 C 14.220469 25.220656 14 24.138 14 23 C 14 18.029 18.029 14 23 14 C 24.138 14 25.222609 14.220469 26.224609 14.605469 L 26.414062 14.414062 C 26.804063 14.024062 27 13.512 27 13 L 27 7 C 27 4.791 25.209 3 23 3 L 17 3 z M 23 5 C 24.105 5 25 5.895 25 7 C 25 8.105 24.105 9 23 9 C 21.895 9 21 8.105 21 7 C 21 5.895 21.895 5 23 5 z M 23 16 C 19.134 16 16 19.134 16 23 C 16 26.866 19.134 30 23 30 C 26.866 30 30 26.866 30 23 C 30 19.134 26.866 16 23 16 z M 23 19 C 23.552 19 24 19.447 24 20 L 24 22 L 26 22 C 26.552 22 27 22.447 27 23 C 27 23.553 26.552 24 26 24 L 24 24 L 24 26 C 24 26.553 23.552 27 23 27 C 22.448 27 22 26.553 22 26 L 22 24 L 20 24 C 19.448 24 19 23.553 19 23 C 19 22.447 19.448 22 20 22 L 22 22 L 22 20 C 22 19.447 22.448 19 23 19 z"/></svg>