<svg xmlns="http://www.w3.org/2000/svg" width="50" height="50" viewBox="0 0 16 16"><path fill="#fff" d="M7.5,14C3.916,14,1,11.084,1,7.5S3.916,1,7.5,1S14,3.916,14,7.5S11.084,14,7.5,14z"/><path fill="#ffc49c" d="M8,7.952V1.375c-1.792,0-3.632,0.658-5,1.929L8,7.952z"/><path fill="#4e7ab5" d="M7.5,14.5c-3.859,0-7-3.141-7-7s3.141-7,7-7s7,3.141,7,7S11.359,14.5,7.5,14.5z M7.5,1.5 c-3.309,0-6,2.691-6,6s2.691,6,6,6s6-2.691,6-6S10.809,1.5,7.5,1.5z"/><path fill="#8bb7f0" d="M4.663 4.5L7.625 7.462"/><path fill="#66798f" d="M7.625,7.962c-0.128,0-0.256-0.049-0.354-0.146L4.31,4.854c-0.195-0.195-0.195-0.512,0-0.707 s0.512-0.195,0.707,0l2.962,2.962c0.195,0.195,0.195,0.512,0,0.707C7.881,7.913,7.753,7.962,7.625,7.962z"/><path fill="#8bb7f0" d="M5.402 9.59L7.625 7.367"/><path fill="#66798f" d="M5.402,10.09c-0.128,0-0.256-0.049-0.354-0.146c-0.195-0.195-0.195-0.512,0-0.707l2.223-2.223 c0.195-0.195,0.512-0.195,0.707,0s0.195,0.512,0,0.707L5.756,9.943C5.658,10.041,5.53,10.09,5.402,10.09z"/><path fill="#66798f" d="M7.5 7A0.5 0.5 0 1 0 7.5 8A0.5 0.5 0 1 0 7.5 7Z"/><path fill="#5e9c76" d="M11.5 7A4.5 4.5 0 1 0 11.5 16A4.5 4.5 0 1 0 11.5 7Z"/><g><path fill="#fff" d="M11 9H12V14H11z"/></g><g><path fill="#fff" d="M9 11H14V12H9z"/></g></svg>