<svg xmlns="http://www.w3.org/2000/svg" width="50" height="50" fill="#000" viewBox="0 0 24 24"><path d="M 10.5 1 C 8.015625 1 6 3.015625 6 5.5 C 6 7.984375 8.015625 10 10.5 10 C 12.984375 10 15 7.984375 15 5.5 C 15 3.015625 12.984375 1 10.5 1 Z M 3.5 3 C 2.078125 3 0.9375 4.140625 0.9375 5.5625 C 0.9375 6.984375 2.078125 8.15625 3.5 8.15625 C 4.21875 8.15625 4.875 7.851563 5.34375 7.375 C 5.25 7.121094 5.179688 6.832031 5.125 6.5625 C 4.785156 7.109375 4.191406 7.5 3.5 7.5 C 2.742188 7.5 2.097656 7.070313 1.78125 6.4375 L 5.09375 6.4375 C 5.042969 6.132813 5 5.816406 5 5.5 C 5 4.882813 5.09375 4.304688 5.28125 3.75 C 4.816406 3.296875 4.199219 3 3.5 3 Z M 17.5 3 C 16.800781 3 16.183594 3.296875 15.71875 3.75 C 15.90625 4.304688 16 4.882813 16 5.5 C 16 5.816406 15.957031 6.132813 15.90625 6.4375 L 19.21875 6.4375 C 18.902344 7.070313 18.257813 7.5 17.5 7.5 C 16.808594 7.5 16.214844 7.109375 15.875 6.5625 C 15.820313 6.832031 15.75 7.121094 15.65625 7.375 C 16.125 7.851563 16.78125 8.15625 17.5 8.15625 C 18.921875 8.15625 20.0625 6.984375 20.0625 5.5625 C 20.0625 4.140625 18.921875 3 17.5 3 Z M 7.5 7 L 13.5 7 C 12.945313 8.105469 11.820313 8.875 10.5 8.875 C 9.179688 8.875 8.054688 8.105469 7.5 7 Z M 1.9375 8.75 C 0.929688 9.015625 0.195313 9.972656 0.03125 11 L 5.5625 11 C 5.984375 10.71875 6.429688 10.492188 6.9375 10.3125 C 6.519531 9.441406 5.871094 8.964844 5.0625 8.75 C 4.597656 9 4.0625 9.15625 3.5 9.15625 C 2.9375 9.15625 2.402344 9 1.9375 8.75 Z M 15.9375 8.75 C 15.128906 8.964844 14.480469 9.441406 14.0625 10.3125 C 14.574219 10.492188 15.015625 10.71875 15.4375 11 L 20.96875 11 C 20.832031 10.109375 20.070313 9.015625 19.0625 8.75 C 18.597656 9 18.0625 9.15625 17.5 9.15625 C 16.9375 9.15625 16.402344 9 15.9375 8.75 Z M 7.78125 11.09375 C 6.023438 11.554688 4.632813 12.644531 4 15 L 17 15 C 16.367188 12.644531 14.980469 11.554688 13.21875 11.09375 C 12.40625 11.53125 11.488281 11.78125 10.5 11.78125 C 9.511719 11.78125 8.59375 11.53125 7.78125 11.09375 Z M 18.875 15 L 18.875 18.9375 L 15 18.9375 L 15 20.125 L 18.875 20.125 L 18.875 24 L 20.09375 24 L 20.09375 20.125 L 24 20.125 L 24 18.9375 L 20.09375 18.9375 L 20.09375 15 Z"/></svg>