<svg xmlns="http://www.w3.org/2000/svg" width="50" height="50" viewBox="0 0 64 64"><linearGradient id="~3vJ3NAY92_9WQpza7wNfa" x1="32" x2="32" y1="5" y2="58.349" gradientUnits="userSpaceOnUse" spreadMethod="reflect"><stop offset="0" stop-color="#1a6dff"/><stop offset="1" stop-color="#c822ff"/></linearGradient><path fill="url(#~3vJ3NAY92_9WQpza7wNfa)" d="M45.148,40.008c-1.623-2.621-3.828-4.798-6.468-6.361c1.193-1.334,2.119-2.907,2.684-4.647 H42.5c2.757,0,5-2.243,5-5s-2.243-5-5-5H42c0-7.168-5.832-13-13-13s-13,5.832-13,13h-0.5c-2.757,0-5,2.243-5,5s2.243,5,5,5h1.136 c0.564,1.74,1.491,3.314,2.684,4.647C13.538,37.062,10,43.206,10,50v1h26.232c0.913,4.002,4.494,7,8.768,7c4.963,0,9-4.038,9-9 C54,44.088,50.042,40.088,45.148,40.008z M29,38c3.093,0,5.934-1.09,8.168-2.9c0.617,0.338,1.211,0.71,1.777,1.118 C36.202,38.661,32.722,40,29,40c-3.703,0-7.194-1.349-9.94-3.789c0.562-0.403,1.152-0.775,1.769-1.113 C23.064,36.909,25.906,38,29,38z M42.5,21c1.654,0,3,1.346,3,3s-1.346,3-3,3H42v-2h1c0.553,0,1-0.448,1-1s-0.447-1-1-1h-1v-2H42.5z M24.954,8.781c0.651-0.259,1.332-0.458,2.037-0.588c-0.103,4.808-3.989,8.695-8.798,8.798c0.131-0.705,0.33-1.385,0.588-2.037 C22.017,14.592,24.592,12.017,24.954,8.781z M39,15c0.077,0,0.153-0.014,0.23-0.016c0.25,0.634,0.444,1.295,0.573,1.98 C39.536,16.985,39.268,17,39,17c-5.175,0-9.445-3.952-9.949-8.997c0.706,0.003,1.396,0.075,2.066,0.206 C31.744,11.767,35.035,15,39,15z M38.164,12.928c-2.227-0.345-4.061-2.023-4.804-4.022C35.323,9.757,36.991,11.163,38.164,12.928z M22.495,10.15c-0.493,1.025-1.319,1.851-2.344,2.344C20.81,11.6,21.6,10.81,22.495,10.15z M16,27h-0.5c-1.654,0-3-1.346-3-3 s1.346-3,3-3H16v2h-1c-0.553,0-1,0.448-1,1s0.447,1,1,1h1V27z M18,19c4.595,0,8.537-2.835,10.18-6.846 C30.113,16.195,34.229,19,39,19c0.333,0,0.666-0.018,0.998-0.045C39.998,18.97,40,18.985,40,19v6c0,6.065-4.935,11-11,11 s-11-4.935-11-11V19z M12.028,49c0.257-4.476,2.24-8.568,5.461-11.516C20.637,40.391,24.691,42,29,42 c4.327,0,8.362-1.604,11.506-4.511c0.9,0.828,1.708,1.753,2.416,2.763C38.959,41.194,36,44.754,36,49H12.028z M45,56 c-3.859,0-7-3.14-7-7s3.141-7,7-7s7,3.14,7,7S48.859,56,45,56z"/><linearGradient id="~3vJ3NAY92_9WQpza7wNfb" x1="45" x2="45" y1="5" y2="58.349" gradientUnits="userSpaceOnUse" spreadMethod="reflect"><stop offset="0" stop-color="#1a6dff"/><stop offset="1" stop-color="#c822ff"/></linearGradient><path fill="url(#~3vJ3NAY92_9WQpza7wNfb)" d="M46 45L44 45 44 48 41 48 41 50 44 50 44 53 46 53 46 50 49 50 49 48 46 48z"/><linearGradient id="~3vJ3NAY92_9WQpza7wNfc" x1="33.5" x2="33.5" y1="21.083" y2="26.659" gradientUnits="userSpaceOnUse" spreadMethod="reflect"><stop offset="0" stop-color="#6dc7ff"/><stop offset="1" stop-color="#e6abff"/></linearGradient><path fill="url(#~3vJ3NAY92_9WQpza7wNfc)" d="M33.5 21.5A2.5 2.5 0 1 0 33.5 26.5A2.5 2.5 0 1 0 33.5 21.5Z"/><linearGradient id="~3vJ3NAY92_9WQpza7wNfd" x1="24.5" x2="24.5" y1="21.083" y2="26.659" gradientUnits="userSpaceOnUse" spreadMethod="reflect"><stop offset="0" stop-color="#6dc7ff"/><stop offset="1" stop-color="#e6abff"/></linearGradient><path fill="url(#~3vJ3NAY92_9WQpza7wNfd)" d="M24.5 21.5A2.5 2.5 0 1 0 24.5 26.5A2.5 2.5 0 1 0 24.5 21.5Z"/><linearGradient id="~3vJ3NAY92_9WQpza7wNfe" x1="29" x2="29" y1="28.833" y2="33.583" gradientUnits="userSpaceOnUse" spreadMethod="reflect"><stop offset="0" stop-color="#6dc7ff"/><stop offset="1" stop-color="#e6abff"/></linearGradient><path fill="url(#~3vJ3NAY92_9WQpza7wNfe)" d="M25,29c0,2.209,1.791,4,4,4s4-1.791,4-4H25z"/></svg>