<svg xmlns="http://www.w3.org/2000/svg" width="500" height="500" fill="#000" viewBox="0 0 100 100"><path d="M 50.5 15 C 45.912056 15 42.682222 16.215287 40.539062 17.611328 C 38.51321 18.930957 37.529228 20.311 37.152344 21.134766 C 33.076158 22.948406 30 27.363882 30 32.498047 C 30 35.716796 30.640295 38.154914 31.419922 39.939453 C 30.496403 40.49881 30 41.184326 30 42 C 30 43.297 30.561016 45.657203 31.041016 47.283203 L 31.179688 47.761719 C 31.670687 49.464719 32.219 51.362141 34 51.869141 L 34 55 C 34 57.463 37.758 62.161219 42 65.074219 L 42 67.580078 C 42 67.643078 41.991656 67.711734 41.972656 67.802734 C 41.902656 68.131734 41.659172 68.403531 41.326172 68.519531 L 40.576172 68.787109 C 38.978172 69.353109 36.132438 70.3805 31.648438 72.0625 C 23.098437 75.2695 23 83.913 23 84 C 23 84.552 23.448 85 24 85 L 61.669922 85 C 63.603384 91.358032 69.518242 96 76.5 96 C 85.047 96 92 89.047 92 80.5 C 92 71.953 85.047 65 76.5 65 C 71.690353 65 67.38423 67.201811 64.539062 70.650391 C 62.36349 69.84881 60.456001 69.15214 59.427734 68.787109 L 58.658203 68.515625 C 58.338203 68.404625 58.100344 68.134547 58.027344 67.810547 C 58.009344 67.725547 58 67.646078 58 67.580078 L 58 65.074219 C 62.242 62.160219 66 57.463 66 55 L 66 51.869141 C 67.781 51.361141 68.329313 49.463719 68.820312 47.761719 L 68.958984 47.283203 C 69.438984 45.656203 70 43.296 70 42 C 70 41.071888 69.367415 40.309076 68.171875 39.714844 C 68.643287 38.322189 69 36.587238 69 34.498047 C 69 32.079694 68.630589 30.648268 68.042969 29.505859 C 67.504249 28.458519 66.810446 27.644825 66.105469 26.515625 C 67.438234 25.37596 68 23.750886 68 22.498047 A 0.50005 0.50005 0 0 0 67.5 21.998047 C 66.50464 21.998268 65.604933 21.615099 64.621094 20.984375 C 63.637254 20.353651 62.590352 19.481672 61.353516 18.59375 C 58.879843 16.817907 55.616667 15 50.5 15 z M 50.5 16 C 55.383333 16 58.370157 17.682343 60.771484 19.40625 C 61.972148 20.268203 63.018996 21.144677 64.082031 21.826172 C 64.971414 22.396341 65.907758 22.763281 66.917969 22.890625 C 66.828399 23.967457 66.403854 25.294566 65.222656 26.082031 A 0.50005 0.50005 0 0 0 65.070312 26.753906 C 65.893748 28.147094 66.641167 28.967253 67.154297 29.964844 C 67.667427 30.962435 68 32.1784 68 34.498047 C 68 37.414714 67.27292 39.585019 66.552734 41.025391 C 66.164493 41.801872 66.061218 41.820927 65.794922 42.167969 C 65.700232 41.354707 65.600556 40.226026 65.115234 37.896484 C 64.484352 34.86825 63.504391 31.337885 61.900391 29.199219 A 0.50005 0.50005 0 0 0 61.25 29.066406 C 58.949812 30.398094 56.58435 30.998047 51.5 30.998047 C 46.368688 30.998047 41.565544 28.836037 39.921875 26.232422 A 0.50005 0.50005 0 0 0 39 26.498047 C 39 27.720269 37.809093 29.761792 36.544922 32.542969 C 35.404873 35.051075 34.371762 38.324355 34.15625 42.289062 C 33.813073 41.960021 33.561877 41.849495 32.933594 40.75 C 31.974303 39.07124 31 36.414714 31 32.498047 C 31 27.70078 33.934953 23.556592 37.695312 21.958984 A 0.50005 0.50005 0 0 0 37.964844 21.685547 C 38.146525 21.231344 39.104096 19.740178 41.085938 18.449219 C 43.067777 17.15826 46.087944 16 50.5 16 z M 39.730469 27.457031 C 41.9787 30.159284 46.536055 31.998047 51.5 31.998047 C 56.354585 31.998047 58.924611 31.367332 61.255859 30.121094 C 62.560544 32.031113 63.542368 35.258052 64.134766 38.101562 C 64.753883 41.073329 65.001953 43.548828 65.001953 43.548828 A 0.50005 0.50005 0 0 0 65.853516 43.853516 C 65.853516 43.853516 66.636705 43.053851 67.402344 41.552734 C 67.891364 41.813865 67.996646 42 68 42 C 68 42.851 67.597016 44.834797 67.041016 46.716797 L 66.898438 47.207031 C 66.274438 49.371031 65.949 50 65 50 C 64.448 50 64 50.448 64 51 L 64 55 C 64 56.491 60.760078 60.898172 56.455078 63.701172 C 56.451961 63.703191 56.450355 63.706934 56.447266 63.708984 C 54.11493 65.223579 51.871454 66 50 66 C 48.128546 66 45.88507 65.223579 43.552734 63.708984 C 43.549645 63.706923 43.548039 63.703202 43.544922 63.701172 C 39.239922 60.898172 36 56.49 36 55 L 36 51 C 36 50.448 35.552 50 35 50 C 34.051 50 33.725562 49.370031 33.101562 47.207031 L 32.958984 46.716797 C 32.402984 44.834797 32.000047 42.851672 31.998047 42.013672 C 31.998776 42.012213 32.055273 41.885092 32.355469 41.689453 C 33.298346 43.1733 34.199219 43.898438 34.199219 43.898438 A 0.50005 0.50005 0 0 0 35 43.498047 C 35 39.090639 36.219249 35.673901 37.455078 32.955078 C 38.484935 30.689392 39.398855 29.002547 39.730469 27.457031 z M 43 36 C 41.64 35.997 40.277 36.143406 39 36.441406 L 39.685547 37.751953 C 40.740547 37.491953 41.872 37.372 43 37.375 C 44.435 37.378 45.866766 37.583 47.134766 38 L 48 36.722656 C 46.456 36.246656 44.73 36.004 43 36 z M 57 36 C 55.27 36.003 53.544 36.246656 52 36.722656 L 52.865234 38 C 54.133234 37.583 55.565 37.378 57 37.375 C 58.128 37.372 59.259453 37.491953 60.314453 37.751953 L 61 36.441406 C 59.723 36.143406 58.36 35.998 57 36 z M 43 40 C 42.201 40 41.518266 40.589547 41.197266 41.435547 C 41.378266 41.178547 41.662 41 42 41 C 42.552 41 43 41.448 43 42 C 43 42.552 42.552 43 42 43 C 41.498 43 41.101297 42.623578 41.029297 42.142578 C 41.015297 42.259578 41 42.377 41 42.5 C 41 43.881 41.895 45 43 45 C 44.105 45 45 43.881 45 42.5 C 45 41.119 44.105 40 43 40 z M 57 40 C 56.201 40 55.518266 40.589547 55.197266 41.435547 C 55.378266 41.178547 55.662 41 56 41 C 56.552 41 57 41.448 57 42 C 57 42.552 56.552 43 56 43 C 55.498 43 55.101297 42.623578 55.029297 42.142578 C 55.015297 42.259578 55 42.377 55 42.5 C 55 43.881 55.895 45 57 45 C 58.105 45 59 43.881 59 42.5 C 59 41.119 58.105 40 57 40 z M 47.464844 52.994141 A 0.50005 0.50005 0 0 0 47.099609 53.800781 C 47.099609 53.800781 47.357551 54.133793 47.832031 54.425781 C 48.306511 54.717769 49.029762 55 50 55 C 50.970238 55 51.693489 54.717769 52.167969 54.425781 C 52.642449 54.133793 52.900391 53.800781 52.900391 53.800781 A 0.50078155 0.50078155 0 0 0 52.099609 53.199219 C 52.099609 53.199219 51.982551 53.366207 51.644531 53.574219 C 51.306511 53.782231 50.779762 54 50 54 C 49.220238 54 48.693489 53.782231 48.355469 53.574219 C 48.017449 53.366207 47.900391 53.199219 47.900391 53.199219 A 0.50005 0.50005 0 0 0 47.515625 52.994141 A 0.50005 0.50005 0 0 0 47.464844 52.994141 z M 42.322266 57.003906 C 42.227391 57.017781 42.136219 57.067891 42.074219 57.150391 C 41.950219 57.316391 41.984391 57.551781 42.150391 57.675781 C 42.276391 57.770781 45.304 60 50 60 C 54.696 60 57.723609 57.770781 57.849609 57.675781 C 58.014609 57.551781 58.049781 57.316391 57.925781 57.150391 C 57.801781 56.985391 57.567391 56.950219 57.400391 57.074219 C 57.371391 57.096219 54.435 59 50 59 C 45.565 59 42.628609 57.095219 42.599609 57.074219 C 42.516109 57.012219 42.417141 56.990031 42.322266 57.003906 z M 44 65.150391 C 46.100614 66.351353 48.146708 67 50 67 C 51.853292 67 53.899386 66.351353 56 65.150391 L 56 67.580078 C 56 67.786078 56.023219 68.004188 56.074219 68.242188 C 56.305219 69.256187 57.026281 70.063437 57.988281 70.398438 L 58.755859 70.671875 C 59.705689 71.008911 61.421641 71.634907 63.345703 72.341797 C 61.868438 74.714932 61 77.504647 61 80.5 C 61 81.35318 61.087468 82.183917 61.220703 83 L 25.091797 83 C 25.397797 80.9 26.712563 76.050547 32.351562 73.935547 C 36.821562 72.258547 39.653094 71.236875 41.246094 70.671875 L 41.541016 70.566406 C 41.860287 70.69832 42.226345 70.837743 42.660156 70.976562 C 44.270577 71.491897 46.698718 72 50 72 C 50.535794 72 51.040029 71.983254 51.525391 71.958984 A 0.50064429 0.50064429 0 1 0 51.474609 70.958984 C 50.999969 70.98272 50.514206 71 50 71 C 46.801282 71 44.479423 70.508103 42.964844 70.023438 C 42.8986 70.00224 42.856006 69.983939 42.792969 69.962891 C 43.359862 69.536341 43.777701 68.925451 43.927734 68.21875 C 43.976734 67.98875 44 67.785078 44 67.580078 L 44 65.150391 z M 76.5 67 C 83.944 67 90 73.056 90 80.5 C 90 87.944 83.944 94 76.5 94 C 69.056 94 63 87.944 63 80.5 C 63 73.056 69.056 67 76.5 67 z M 55.478516 70.443359 A 0.50005 0.50005 0 0 0 55.394531 70.457031 C 54.80709 70.58431 54.160721 70.700001 53.4375 70.791016 A 0.50005 0.50005 0 1 0 53.5625 71.783203 C 54.317279 71.688213 54.99291 71.566315 55.605469 71.433594 A 0.50005 0.50005 0 0 0 55.478516 70.443359 z M 76.5 72 C 76.224 72 76 72.224 76 72.5 L 76 80 L 68.59375 80 C 68.31775 80 68.09375 80.224 68.09375 80.5 C 68.09375 80.776 68.31775 81 68.59375 81 L 76 81 L 76 88.5 C 76 88.776 76.224 89 76.5 89 C 76.776 89 77 88.776 77 88.5 L 77 81 L 84.5 81 C 84.776 81 85 80.776 85 80.5 C 85 80.224 84.776 80 84.5 80 L 77 80 L 77 72.5 C 77 72.224 76.776 72 76.5 72 z"/></svg>