<svg xmlns="http://www.w3.org/2000/svg" width="500" height="500" fill="#000" viewBox="0 0 100 100"><path d="M 44 12 C 42.35503 12 41 13.35503 41 15 L 41 41 L 15 41 C 13.35503 41 12 42.35503 12 44 L 12 56 C 12 57.64497 13.35503 59 15 59 L 41 59 L 41 85 C 41 86.64497 42.35503 88 44 88 L 56 88 C 57.64497 88 59 86.64497 59 85 L 59 59 L 85 59 C 86.64497 59 88 57.64497 88 56 L 88 44 C 88 42.35503 86.64497 41 85 41 L 59 41 L 59 15 C 59 13.35503 57.64497 12 56 12 L 44 12 z M 44 14 L 56 14 C 56.56503 14 57 14.43497 57 15 L 57 43 L 85 43 C 85.56503 43 86 43.43497 86 44 L 86 56 C 86 56.56503 85.56503 57 85 57 L 57 57 L 57 85 C 57 85.56503 56.56503 86 56 86 L 44 86 C 43.43497 86 43 85.56503 43 85 L 43 57 L 15 57 C 14.43497 57 14 56.56503 14 56 L 14 44 C 14 43.43497 14.43497 43 15 43 L 43 43 L 43 15 C 43 14.43497 43.43497 14 44 14 z M 53.492188 16.992188 A 0.50005 0.50005 0 0 0 53 17.5 L 53 46.5 A 0.50005 0.50005 0 0 0 53.5 47 L 64.5 47 A 0.50005 0.50005 0 1 0 64.5 46 L 54 46 L 54 17.5 A 0.50005 0.50005 0 0 0 53.492188 16.992188 z M 67.5 46 A 0.50005 0.50005 0 1 0 67.5 47 L 77.5 47 A 0.50005 0.50005 0 1 0 77.5 46 L 67.5 46 z M 80.5 46 A 0.50005 0.50005 0 1 0 80.5 47 L 82.5 47 A 0.50005 0.50005 0 1 0 82.5 46 L 80.5 46 z"/></svg>