<svg xmlns="http://www.w3.org/2000/svg" width="500" height="500" fill="#000" viewBox="0 0 32 32"><path d="M 16 4 C 11.730469 4 8.167969 7.003906 7.25 11 L 6 11 L 6 25 C 6 26.644531 7.355469 28 9 28 L 23 28 C 24.644531 28 26 26.644531 26 25 L 26 11 L 24.75 11 C 23.832031 7.003906 20.269531 4 16 4 Z M 16 6 C 19.183594 6 21.863281 8.097656 22.71875 11 L 9.28125 11 C 10.136719 8.097656 12.816406 6 16 6 Z M 8 13 L 24 13 L 24 25 C 24 25.566406 23.566406 26 23 26 L 9 26 C 8.433594 26 8 25.566406 8 25 Z M 12 16 L 12 18 L 20 18 L 20 16 Z M 12 20 L 12 22 L 20 22 L 20 20 Z"/></svg>