<svg xmlns="http://www.w3.org/2000/svg" width="50" height="50" fill="#000" viewBox="0 0 26 26"><path d="M 0.8125 0 C 0.78125 0.0078125 0.75 0.0195313 0.71875 0.03125 C 0.6875 0.0390625 0.65625 0.0507813 0.625 0.0625 C 0.59375 0.0703125 0.5625 0.0820313 0.53125 0.09375 C 0.519531 0.105469 0.511719 0.113281 0.5 0.125 C 0.480469 0.132813 0.457031 0.144531 0.4375 0.15625 C 0.425781 0.167969 0.417969 0.175781 0.40625 0.1875 C 0.386719 0.195313 0.363281 0.207031 0.34375 0.21875 C 0.34375 0.230469 0.34375 0.238281 0.34375 0.25 C 0.324219 0.257813 0.300781 0.269531 0.28125 0.28125 C 0.269531 0.292969 0.261719 0.300781 0.25 0.3125 C 0.238281 0.324219 0.230469 0.332031 0.21875 0.34375 C 0.207031 0.363281 0.195313 0.386719 0.1875 0.40625 C 0.175781 0.417969 0.167969 0.425781 0.15625 0.4375 C 0.15625 0.449219 0.15625 0.457031 0.15625 0.46875 C 0.132813 0.488281 0.113281 0.507813 0.09375 0.53125 C 0.09375 0.542969 0.09375 0.550781 0.09375 0.5625 C 0.0820313 0.574219 0.0742188 0.582031 0.0625 0.59375 C 0.0625 0.613281 0.0625 0.636719 0.0625 0.65625 C 0.0507813 0.667969 0.0429688 0.675781 0.03125 0.6875 C 0.03125 0.707031 0.03125 0.730469 0.03125 0.75 C 0.0195313 0.761719 0.0117188 0.769531 0 0.78125 C 0 0.800781 0 0.824219 0 0.84375 C -0.0195313 0.957031 -0.0195313 1.074219 0 1.1875 L 0 18 C 0 18.242188 0.0898438 18.476563 0.25 18.65625 L 6.1875 25.5625 C 6.238281 25.644531 6.300781 25.71875 6.375 25.78125 C 6.386719 25.78125 6.394531 25.78125 6.40625 25.78125 C 6.445313 25.828125 6.484375 25.867188 6.53125 25.90625 C 6.542969 25.90625 6.550781 25.90625 6.5625 25.90625 C 6.582031 25.917969 6.605469 25.929688 6.625 25.9375 C 6.636719 25.9375 6.644531 25.9375 6.65625 25.9375 C 6.675781 25.949219 6.699219 25.960938 6.71875 25.96875 C 6.730469 25.96875 6.738281 25.96875 6.75 25.96875 C 6.8125 25.984375 6.875 25.996094 6.9375 26 C 6.957031 26 6.980469 26 7 26 C 7.019531 26 7.042969 26 7.0625 26 L 25 26 C 25.550781 26 26 25.550781 26 25 L 26 7.0625 C 26 7.042969 26 7.019531 26 7 C 26 6.988281 26 6.980469 26 6.96875 C 26 6.949219 26 6.925781 26 6.90625 C 26 6.894531 26 6.886719 26 6.875 C 25.992188 6.855469 25.980469 6.832031 25.96875 6.8125 C 25.96875 6.800781 25.96875 6.792969 25.96875 6.78125 C 25.960938 6.75 25.949219 6.71875 25.9375 6.6875 C 25.9375 6.675781 25.9375 6.667969 25.9375 6.65625 C 25.925781 6.644531 25.917969 6.636719 25.90625 6.625 C 25.90625 6.613281 25.90625 6.605469 25.90625 6.59375 C 25.886719 6.550781 25.867188 6.507813 25.84375 6.46875 C 25.835938 6.449219 25.824219 6.425781 25.8125 6.40625 C 25.792969 6.382813 25.773438 6.363281 25.75 6.34375 C 25.730469 6.320313 25.710938 6.300781 25.6875 6.28125 C 25.675781 6.269531 25.667969 6.261719 25.65625 6.25 L 25.59375 6.1875 C 25.554688 6.152344 25.511719 6.121094 25.46875 6.09375 L 18.65625 0.25 C 18.476563 0.0898438 18.242188 0 18 0 L 1 0 C 0.96875 0 0.9375 0 0.90625 0 C 0.875 0 0.84375 0 0.8125 0 Z M 3.4375 2 L 17.625 2 L 22.3125 6 L 7.4375 6 Z M 2 3.4375 L 6 7.4375 L 6 22.3125 L 2 17.625 Z M 8 8 L 24 8 L 24 24 L 8 24 Z"/></svg>