<svg xmlns="http://www.w3.org/2000/svg" width="50" height="50" fill="#000" viewBox="0 0 24 24"><path d="M 12 2 C 11.652344 2 11.308594 2.019531 10.96875 2.054688 C 10.9375 2.054688 10.90625 2.0625 10.878906 2.066406 L 10.875 2.066406 C 10.867188 2.070313 10.851563 2.070313 10.84375 2.070313 C 10.542969 2.105469 10.246094 2.152344 9.957031 2.210938 C 9.941406 2.214844 9.929688 2.21875 9.914063 2.21875 C 9.734375 2.257813 9.566406 2.3125 9.390625 2.359375 C 9.28125 2.390625 9.167969 2.414063 9.0625 2.445313 C 8.847656 2.511719 8.640625 2.59375 8.429688 2.671875 C 8.359375 2.699219 8.28125 2.726563 8.207031 2.757813 C 8.15625 2.777344 8.105469 2.789063 8.054688 2.8125 C 7.996094 2.839844 7.941406 2.875 7.882813 2.90625 C 7.730469 2.972656 7.578125 3.035156 7.429688 3.109375 L 10.25 3.109375 C 12.320313 3.109375 14 4.851563 14 7 C 14 8.074219 13.574219 9.039063 12.894531 9.738281 C 12.894531 9.738281 12.941406 9.871094 13.003906 9.980469 C 13.074219 10.105469 13.167969 10.207031 13.183594 10.234375 C 13.183594 10.234375 13.238281 10.164063 13.359375 10.046875 C 13.484375 9.949219 14.527344 9.019531 15.285156 9 L 19 9 L 19 13 C 18.636719 13 18 13 18 13 C 18 13 17.988281 12.628906 17.984375 12.609375 C 17.796875 11.832031 17.445313 11 16 11 C 15 11 14.464844 11.472656 14.464844 12 C 14.464844 12.4375 14.652344 12.878906 15.222656 13.246094 C 16.121094 13.824219 17 14.199219 17.742188 14.644531 C 19.164063 15.503906 19.800781 16.035156 19.964844 16.9375 C 20.023438 17.28125 20 17.992188 20 17.992188 C 21.253906 16.320313 22 14.25 22 12 C 22 6.476563 17.523438 2 12 2 Z M 6 4 L 5.871094 4.113281 C 5.800781 4.164063 5.730469 4.21875 5.664063 4.273438 C 3.488281 5.992188 2 8.796875 2 11.777344 C 2 13.519531 2.371094 15.332031 3.351563 17.046875 C 4.070313 18.289063 5.019531 19.324219 6.1875 20.160156 C 7.351563 20.992188 8.636719 21.546875 10.035156 21.828125 C 10.625 21.949219 11.453125 22 12.222656 22 C 11.292969 21.390625 10.441406 20.402344 10.441406 18.890625 C 10.441406 17.308594 11.527344 16.214844 12.453125 16.046875 C 12.453125 16.046875 12.746094 16 13 16 C 13.550781 16 14 16.449219 14 17 C 14 17.550781 13.550781 18 13 18 C 12.851563 18 12.714844 17.964844 12.589844 17.90625 L 12.371094 17.761719 L 12.222656 18 C 12.222656 18 12 18.492188 12 19 C 12 19.789063 12.386719 20.402344 13.078125 20.738281 C 13.335938 20.863281 13.644531 20.957031 14 20.984375 C 14.269531 21.007813 15.082031 21 15.203125 21 C 16.363281 21 17.320313 20.152344 17.484375 19.050781 C 17.503906 18.960938 17.507813 18.875 17.515625 18.785156 C 17.515625 18.761719 17.519531 18.738281 17.519531 18.714844 L 17.519531 18.707031 C 17.519531 18.585938 17.507813 18.464844 17.484375 18.34375 C 17.382813 17.738281 17.046875 17.222656 16.570313 16.875 C 16.480469 16.8125 15.625 16.25 15.625 16.25 C 14.640625 15.703125 13.808594 15.15625 12.925781 14.449219 C 12.054688 13.75 11.078125 12.890625 10.558594 12.113281 C 10.039063 11.339844 10 10 10 10 L 10 9.949219 C 11.140625 9.71875 12 8.710938 12 7.5 C 12 6.117188 10.882813 5 9.5 5 L 8 5 L 8 13.25 C 8 14 9 14 9 14 L 9 15 L 5.125 15 L 5.125 14 C 5.125 14 5.988281 14 6 13.25 Z"/></svg>