<svg fill="#000000" xmlns="http://www.w3.org/2000/svg" viewBox="0 0 50 50" width="300px" height="300px"><path d="M 25 0 C 15.296875 0 7.292969 6.871094 7.03125 15.5625 C 7.011719 15.707031 7 15.847656 7 16 C 7 16.023438 7 16.042969 7 16.0625 C 7 16.074219 7 16.082031 7 16.09375 C 7 16.113281 7 16.136719 7 16.15625 C 7 16.175781 7 16.199219 7 16.21875 L 7 41 C 7 43.785156 9.308594 46.03125 12.5625 47.5625 C 15.816406 49.09375 20.179688 50 25 50 C 29.820313 50 34.183594 49.09375 37.4375 47.5625 C 40.691406 46.03125 43 43.785156 43 41 L 43 16.21875 C 43 16.199219 43 16.175781 43 16.15625 C 43 16.144531 43 16.136719 43 16.125 C 43 16.113281 43 16.105469 43 16.09375 C 43 16.0625 43 16.03125 43 16 C 43 15.847656 42.988281 15.707031 42.96875 15.5625 C 42.707031 6.871094 34.703125 0 25 0 Z M 25 2 C 32.410156 2 38.542969 6.367188 40.40625 12.25 C 39.546875 11.703125 38.511719 11.226563 37.34375 10.8125 C 34.117188 9.671875 29.789063 9 25 9 C 20.210938 9 15.882813 9.671875 12.65625 10.8125 C 11.488281 11.226563 10.453125 11.703125 9.59375 12.25 C 11.457031 6.367188 17.589844 2 25 2 Z M 25 11 C 29.597656 11 33.761719 11.65625 36.6875 12.6875 C 38.152344 13.203125 39.308594 13.835938 40.03125 14.4375 C 40.753906 15.039063 41 15.554688 41 16 C 41 16.03125 41 16.0625 41 16.09375 C 40.96875 16.519531 40.707031 17 40.03125 17.5625 C 39.308594 18.164063 38.152344 18.796875 36.6875 19.3125 C 33.761719 20.34375 29.597656 21 25 21 C 20.402344 21 16.238281 20.34375 13.3125 19.3125 C 11.847656 18.796875 10.691406 18.164063 9.96875 17.5625 C 9.277344 16.984375 9.019531 16.496094 9 16.0625 C 9 16.042969 9 16.019531 9 16 C 9 15.554688 9.246094 15.039063 9.96875 14.4375 C 10.691406 13.835938 11.847656 13.203125 13.3125 12.6875 C 16.238281 11.65625 20.402344 11 25 11 Z M 9 19.3125 C 9.964844 20.042969 11.195313 20.671875 12.65625 21.1875 C 15.882813 22.328125 20.210938 23 25 23 C 29.789063 23 34.117188 22.328125 37.34375 21.1875 C 38.804688 20.671875 40.035156 20.042969 41 19.3125 L 41 41 C 41 42.632813 39.492188 44.386719 36.59375 45.75 C 33.695313 47.113281 29.566406 48 25 48 C 20.433594 48 16.304688 47.113281 13.40625 45.75 C 10.507813 44.386719 9 42.632813 9 41 Z M 14.0625 27.1875 C 13.988281 27.191406 13.914063 27.199219 13.84375 27.21875 C 13.351563 27.296875 12.992188 27.722656 13 28.21875 L 13 37.5625 C 12.996094 37.921875 13.1875 38.257813 13.5 38.4375 C 13.5 38.4375 17.972656 41 25 41 C 32.027344 41 36.5 38.4375 36.5 38.4375 C 36.8125 38.257813 37.003906 37.921875 37 37.5625 L 37 28.21875 C 37.011719 27.886719 36.855469 27.570313 36.585938 27.378906 C 36.316406 27.183594 35.96875 27.136719 35.65625 27.25 C 35.65625 27.25 30.660156 29 25 29 C 19.339844 29 14.34375 27.25 14.34375 27.25 C 14.253906 27.214844 14.160156 27.195313 14.0625 27.1875 Z M 15 29.5 C 16.523438 29.96875 20.125 31 25 31 C 29.875 31 33.476563 29.96875 35 29.5 L 35 36.90625 C 34.371094 37.246094 30.96875 39 25 39 C 19.03125 39 15.628906 37.246094 15 36.90625 Z"/></svg>