<svg xmlns="http://www.w3.org/2000/svg" width="50" height="50" fill="#000" viewBox="0 0 32 32"><path d="M16,3C8.832,3,3,8.832,3,16s5.832,13,13,13s13-5.832,13-13S23.168,3,16,3z M5,16c0-3.408,1.559-6.459,4-8.479V17	c0,0.552-0.448,1-1,1v1h4v-1c-0.552,0-1-0.448-1-1V7.002l2.058,0.004C14.688,7.038,16,8.363,16,10c0,2-1.64,2.715-3,3	c0,2.5,2.75,4.625,6,6.625c2.113,1.301,3,1.968,3,3.625S20.657,26,19,26c-2.186,0-3-1.533-3-2.5c0-0.553,0.103-0.896,0.235-1.117	c0.158,0.072,0.33,0.117,0.515,0.117c0.69,0,1.25-0.56,1.25-1.25S17.44,20,16.75,20C15.985,20,14,20.629,14,23.5	c0,1.302,0.663,2.619,1.835,3.492C9.846,26.902,5,22.01,5,16z M24.488,22.99C24.352,18.624,18,18.261,18,15.875	c0-0.027,0-0.099,0-0.125c0-0.966,0.784-1.75,1.75-1.75H21c2,0,2,2,2,2h1v-4c0,0-2,0-4,0c-2.75,0-3.625,2.375-3.625,2.375	C15.875,13.75,16,13.5,16,13.5s0.375-0.25,1-0.923c0.689-0.742,1-1.799,1-2.89c0-2.22-1.548-4.07-3.621-4.554	C14.91,5.054,15.448,5,16,5c6.065,0,11,4.935,11,11C27,18.652,26.056,21.088,24.488,22.99z"/></svg>