<svg xmlns="http://www.w3.org/2000/svg" width="300" height="300" viewBox="0 0 48 48"><path fill="#4caf50" d="M44,24c0,11.044-8.956,20-20,20S4,35.044,4,24S12.956,4,24,4S44,12.956,44,24z"/><path fill="#c8e6c9" d="M29,24l6,5V19L29,24z"/><path fill="#c8e6c9" d="M31.586 25.414C31.945 25.777 32.445 26 33 26h8v-4h-8c-1.105 0-2 .895-2 2C31 24.551 31.223 25.051 31.586 25.414zM19 24l-6-5v10L19 24z"/><path fill="#c8e6c9" d="M16.414 22.586C16.055 22.223 15.555 22 15 22H7v4h8c1.105 0 2-.895 2-2C17 23.445 16.777 22.945 16.414 22.586zM24 41l5-6H19L24 41z"/><path fill="#c8e6c9" d="M25.414,38.414C25.777,38.055,26,37.555,26,37v-8h-4v8c0,1.105,0.895,2,2,2C24.551,39,25.051,38.777,25.414,38.414z"/><g><path fill="#c8e6c9" d="M24,7l-5,6h10L24,7z"/><path fill="#c8e6c9" d="M22.586,9.586C22.223,9.945,22,10.445,22,10.996V19h4v-8.004C26,9.895,25.105,9,24,9C23.445,9,22.945,9.223,22.586,9.586z"/></g></svg>