<svg fill="#000000" xmlns="http://www.w3.org/2000/svg" viewBox="0 0 50 50" width="50px" height="50px"><path d="M 25 2 C 12.309295 2 2 12.309295 2 25 C 2 37.690705 12.309295 48 25 48 C 37.690705 48 48 37.690705 48 25 C 48 12.309295 37.690705 2 25 2 z M 25 4 C 36.609824 4 46 13.390176 46 25 C 46 36.609824 36.609824 46 25 46 C 13.390176 46 4 36.609824 4 25 C 4 13.390176 13.390176 4 25 4 z M 25 11.820312 L 14.367188 18.484375 L 25 25.148438 L 25.53125 24.816406 L 35.632812 18.484375 L 25 11.820312 z M 25 14.179688 L 31.867188 18.484375 L 25 22.789062 L 18.132812 18.484375 L 25 14.179688 z M 14 20.664062 L 14 32.554688 L 24 38.804688 L 24 27.123047 L 23.542969 26.826172 L 14 20.664062 z M 36 20.664062 L 26 27.123047 L 26 27.667969 L 26 38.804688 L 36 32.554688 L 36 20.664062 z M 16 24.335938 L 22 28.212891 L 22 35.195312 L 16 31.445312 L 16 24.335938 z M 34 24.335938 L 34 31.445312 L 28 35.195312 L 28 28.212891 L 34 24.335938 z"/></svg>