<svg xmlns="http://www.w3.org/2000/svg" viewBox="0 0 24 24" width="100px" height="100px"><path d="M18,22H6c-1.1,0-2-0.9-2-2v-3h2v3h12V7.8L14.2,4H6v6H4V4c0-1.1,0.9-2,2-2h9l5,5v13C20,21.1,19.1,22,18,22z"/><path d="M18.5 8L14 8 14 3.5z"/><path d="M13.6,3H6C5.4,3,5,3.4,5,4v6h12v7H5v3c0,0.6,0.4,1,1,1h12c0.6,0,1-0.4,1-1 V8.4L13.6,3z" opacity=".3"/><path d="M6 11.8c-.9 0-1 1.1-1 1.3v.8c0 .2.2 1.3 1 1.2.8 0 1-1 1-1.2v-.8C7 12.9 6.9 11.8 6 11.8zM10.5 14H10v1h.5c.3 0 .5-.2.5-.5S10.8 14 10.5 14zM10.5 12H10v1h.5c.3 0 .5-.2.5-.5S10.8 12 10.5 12z"/><path d="M19,9H4c-1.1,0-2,0.9-2,2v5c0,1.1,0.9,2,2,2h15V9z M8,13.9C8,14.3,7.9,16,6,16c-2,0-2-1.7-2-2.1v-0.8C4,12.8,4.2,11,6,11 c1.9,0,2,1.8,2,2.1V13.9z M12,14.5c0,0.8-0.7,1.5-1.5,1.5H9v-5h1.5c0.8,0,1.5,0.7,1.5,1.5c0,0.4-0.1,0.7-0.4,1 C11.9,13.8,12,14.1,12,14.5z M16,14.5c0,0.8-0.7,1.5-1.5,1.5S13,15.3,13,14.5h1c0,0.3,0.2,0.5,0.5,0.5s0.5-0.2,0.5-0.5V11h1V14.5z"/></svg>