<svg xmlns="http://www.w3.org/2000/svg" width="500" height="500" fill="#000" viewBox="0 0 30 30"><path d="M 4.9902344 3.9902344 A 1.0001 1.0001 0 0 0 4 5.1289062 L 4 21 A 1.0001 1.0001 0 0 0 4.2929688 21.707031 L 8.2050781 25.619141 A 1.0001 1.0001 0 0 0 9.1582031 26 L 25 26 A 1.0001 1.0001 0 0 0 26 25 L 26 9.1679688 A 1.0001 1.0001 0 0 0 25.617188 8.203125 L 21.707031 4.2929688 A 1.0001 1.0001 0 0 0 21 4 L 5.1171875 4 A 1.0001 1.0001 0 0 0 4.9902344 3.9902344 z M 7.4140625 6 L 20.585938 6 L 22.585938 8 L 9.4140625 8 L 7.4140625 6 z M 6 7.4140625 L 8 9.4140625 L 8 22.585938 L 6 20.585938 L 6 7.4140625 z M 10 10 L 24 10 L 24 24 L 10 24 L 10 10 z"/></svg>