<svg xmlns="http://www.w3.org/2000/svg" width="300" height="300" viewBox="0 0 48 48"><path fill="#BBDEFB" d="M0 9H48V39H0z"/><path fill="#1976D2" d="M30,28h12v2H30V28z M38,32h-8v2h8V32z"/><path fill="#64B5F6" d="M25,36c0,0.552-0.448,1-1,1s-1-0.448-1-1s0.448-1,1-1S25,35.448,25,36z M24,32c-0.552,0-1,0.448-1,1s0.448,1,1,1s1-0.448,1-1S24.552,32,24,32z M24,29c-0.552,0-1,0.448-1,1s0.448,1,1,1s1-0.448,1-1S24.552,29,24,29z M24,26c-0.552,0-1,0.448-1,1s0.448,1,1,1s1-0.448,1-1S24.552,26,24,26z M24,23c-0.552,0-1,0.448-1,1s0.448,1,1,1s1-0.448,1-1S24.552,23,24,23z M24,20c-0.552,0-1,0.448-1,1s0.448,1,1,1s1-0.448,1-1S24.552,20,24,20z M24,17c-0.552,0-1,0.448-1,1s0.448,1,1,1s1-0.448,1-1S24.552,17,24,17z M24,14c-0.552,0-1,0.448-1,1s0.448,1,1,1s1-0.448,1-1S24.552,14,24,14z M24,11c-0.552,0-1,0.448-1,1s0.448,1,1,1s1-0.448,1-1S24.552,11,24,11z M24,10c0.552,0,1-0.448,1-1h-2C23,9.552,23.448,10,24,10z M24,38c-0.552,0-1,0.448-1,1h2C25,38.448,24.552,38,24,38z"/><path fill="#673AB7" d="M36,26c-3.309,0-6-2.691-6-6s2.691-6,6-6s6,2.691,6,6S39.309,26,36,26z M36,16c-2.206,0-4,1.794-4,4s1.794,4,4,4s4-1.794,4-4S38.206,16,36,16z M38,20c0-1.103-0.897-2-2-2s-2,0.897-2,2s0.897,2,2,2S38,21.103,38,20z"/><path fill="#263238" d="M7,34H5v-9h2V34z M11,25H8v9h3V25z M13,25h-1v9h1V25z M18,25h-4v9h4V25z"/></svg>