<svg xmlns="http://www.w3.org/2000/svg" width="100" height="100" viewBox="0 0 48 48"><path fill="#37474f" d="M23,2C14,2,8.125,5.875,6.5,13.125V14H23V2z"/><path fill="#263238" d="M17,40c-2,5-7,8-7,8c0.625-2.75,1-5,1-5c-1.626,2-4,3-4,3c2-4,2-12.875,2-12.875V31h8V40z"/><path fill="#263238" d="M32,43.125L36,48l1-6c1.499,2,4,3,4,3s-2-4.875-2-13.875L32,31V43.125z"/><path fill="#ffbca7" d="M7,25c-0.5,0-1,0.5-1,1.988c0,1.512,0.745,4.703,1.211,5.831c0.539,1.306,0.848,2.12,1.453,2.651 S11.25,36,11.25,36L11,25H7z"/><path fill="#ffad93" d="M9.125,33C9.125,33,8,33,8,31c0-3.5-1-4-1-4s3-0.375,3,4C10,33,9.125,33,9.125,33z"/><path fill="#ffdbd0" d="M24,15.125c-12.732,0-14,9-14,9s0,4,0,7s0.154,6,2.154,9C12.697,40.94,19.542,48,24,48 s11.303-7.06,11.846-7.875c2-3,2.154-6,2.154-9s0-7,0-7S36.732,15.125,24,15.125z"/><rect width="6" height="2" x="21" y="41" fill="#ffbca7"/><path fill="#ffbca7" d="M22,37h4c0,0-1,2-2,2S22,37,22,37z"/><g><polygon fill="#263238" points="37 24 29 26 26 26 31 24"/><polygon fill="#263238" points="12 24 19 26 22 26 18 24"/><path fill="#f5e9e8" d="M30,27c0,0,1.956,0,2.125,0c2.44,0,3.434,1.641,3.875,2.003c-0.229,1.347-1.356,2.344-1.8,2.701 c-0.467,0.102-1.52,0.289-2.7,0.29V32H29l-1-1L30,27z"/><circle cx="31.5" cy="29.5" r="2.5" fill="#3e2723"/><path fill="#212121" d="M28,31l1-4c0,0,0.875-0.625,2-0.625c3,0,5,0.625,5,0.625v2.003C35.559,28.641,34.39,28,31.949,28 c-0.801,0-1.485,0.083-2.087,0.206L28,31z"/><g><path fill="#f5e9e8" d="M18,27c0,0-1.956,0-2.125,0c-2.44,0-3.434,1.641-3.875,2.003c0.229,1.347,1.356,2.344,1.8,2.701 c0.467,0.102,1.52,0.289,2.7,0.29V32H19l1-1L18,27z"/><circle cx="16.5" cy="29.5" r="2.5" fill="#3e2723"/><path fill="#212121" d="M20,31l-1-4c0,0-1-0.625-2-0.625c-3,0-5,0.625-5,0.625v2.003C12.441,28.641,13.61,28,16.051,28 c0.801,0,1.485,0.083,2.087,0.206L20,31z"/></g><g><polygon fill="#d50000" points="25.5 30 22.374 30 22 28 26 28"/><path fill="#d50000" d="M31.516,34c-1.181,0-2.5-0.163-3.68-0.689c-2.565-1.144-2.963-3.537-2.815-4.642 c0.013-0.095,0.052-0.184,0.114-0.256C25.218,28.314,27.23,26,31.95,26c4.793,0,5.95,2.182,5.997,2.275 C37.981,28.345,38,28.422,38,28.5c0,3.057-2.754,4.927-2.872,5.005c-0.045,0.03-0.094,0.052-0.146,0.066 C34.88,33.6,33.368,34,31.516,34z M26,28.954c-0.023,0.557,0.066,2.473,2.242,3.444c2.483,1.108,5.828,0.368,6.395,0.23 c0.378-0.277,2.279-1.781,2.36-3.984C36.733,28.291,35.519,27,31.95,27C28.289,27,26.44,28.532,26,28.954z"/><path fill="#d50000" d="M16.484,34c-1.852,0-3.364-0.4-3.466-0.428c-0.052-0.014-0.102-0.037-0.146-0.066 C12.754,33.427,10,31.557,10,28.5c0-0.078,0.019-0.155,0.054-0.225C10.101,28.182,11.257,26,16.05,26 c4.719,0,6.732,2.314,6.815,2.413c0.062,0.073,0.101,0.162,0.114,0.256c0.148,1.105-0.25,3.497-2.815,4.642 C18.985,33.837,17.666,34,16.484,34z M13.362,32.628c0.567,0.138,3.919,0.875,6.396-0.23c2.174-0.97,2.265-2.884,2.242-3.444 C21.563,28.534,19.714,27,16.05,27c-3.569,0-4.783,1.292-5.048,1.645C11.083,30.846,12.984,32.35,13.362,32.628z"/><rect width="2" height="2" x="9" y="28" fill="#d50000"/></g></g><g><path fill="#880e4f" d="M23,12C9,12,6.5,13.125,6.5,13.125S6,15.25,6,19c0,4,1,6,1,6h31V12C38,12,24.739,12,23,12z"/><path fill="#b2b2bc" d="M13.25,14c0,0-1.25,1.851-1.25,4.5s1.25,4.5,1.25,4.5H35v-9H13.25z"/><path fill="#6c6c76" d="M28.229,15.021c-0.195-0.195-0.512-0.195-0.707,0l-0.806,0.806C26.245,15.487,25.374,15,24.25,15 C22.428,15,21,16.373,21,18.125c0,0.057,0.011,0.107,0.014,0.163l-0.85,2.018c-0.065,0.154-0.048,0.331,0.044,0.47 c0.093,0.14,0.25,0.224,0.417,0.224H24v-0.011c0.822-0.053,2-0.64,2-2.114C26,17.789,25.369,17,24.5,17 c-1.035,0-1.431,0.853-1.495,1.304c-0.039,0.273,0.151,0.527,0.424,0.566s0.527-0.15,0.566-0.424C24.001,18.4,24.071,18,24.5,18 c0.328,0,0.5,0.44,0.5,0.875C25,19.969,23.886,20,23.875,20C22.718,20,22,19.282,22,18.125C22,17.081,22.842,16,24.25,16 c1.263,0,2.139,0.847,2.146,0.854c0.195,0.195,0.512,0.195,0.707,0l1.125-1.125C28.424,15.533,28.424,15.217,28.229,15.021z"/><circle cx="14.5" cy="15.5" r=".5" fill="#6c6c76"/><circle cx="13.5" cy="18.5" r=".5" fill="#6c6c76"/><circle cx="14.5" cy="21.5" r=".5" fill="#6c6c76"/></g><g><polygon fill="#455a64" points="7 25 8.5 26 9 28 10 29.125 10 25"/><path fill="#37474f" d="M23,2l-5,6c0.108,0.676,0.363,2.138,0.499,2.654l0.417,1.381l0,0l0,0l0.014,0.048 C20.275,15.726,24.667,23.661,36,29c0,0.153,1.375,3.25,2,9c0,0,4-6,4-16.875C42,6.125,32.665,2,23,2z"/><path fill="#263238" d="M18.685,12.041l0.23-0.005c0,0-0.697-1.91-0.915-4.035c0,0-1.177,2.112-1.193,4.087 C17.4,12.069,18.025,12.053,18.685,12.041z"/></g></svg>