<svg xmlns="http://www.w3.org/2000/svg" width="500" height="500" viewBox="0 0 40 40"><path fill="#fff" d="M10.207 37.5L2.5 29.793 2.5 2.5 29.793 2.5 37.5 10.207 37.5 37.5z"/><path fill="#788b9c" d="M29.586,3L37,10.414V37H10.414L3,29.586V3H29.586 M30,2H2v28l8,8h28V10L30,2L30,2z"/><path fill="#fff" d="M10.5 10.5H37.5V37.5H10.5z"/><path fill="#788b9c" d="M37,11v26H11V11H37 M38,10H10v28h28V10L38,10z"/><g><path fill="#fff" d="M10.207 37.5L2.5 29.793 2.5 3.113 10.5 10.225 10.5 37.5z"/><path fill="#788b9c" d="M3,4.227l7,6.222v26.136l-7-7V4.227 M2,2v28l8,8h1V10L2,2L2,2z"/></g></svg>