<svg xmlns="http://www.w3.org/2000/svg" width="50" height="50" fill="#000" viewBox="0 0 24 24"><path d="M 3.9902344 2.9902344 A 1.0001 1.0001 0 0 0 3 4.1289062 L 3 16 A 1.0001 1.0001 0 0 0 3.2929688 16.707031 L 7.2050781 20.619141 A 1.0001 1.0001 0 0 0 8.1582031 21 L 20 21 A 1.0001 1.0001 0 0 0 21 20 L 21 8.1679688 A 1.0001 1.0001 0 0 0 20.623047 7.2070312 A 1.0001 1.0001 0 0 0 20.617188 7.203125 L 16.707031 3.2929688 A 1.0001 1.0001 0 0 0 16 3 L 4.1171875 3 A 1.0001 1.0001 0 0 0 3.9902344 2.9902344 z M 6.4140625 5 L 15.585938 5 L 17.585938 7 L 8.4140625 7 L 6.4140625 5 z M 5 6.4140625 L 7 8.4140625 L 7 17.585938 L 5 15.585938 L 5 6.4140625 z M 9 9 L 19 9 L 19 19 L 9 19 L 9 9 z"/></svg>