<svg xmlns="http://www.w3.org/2000/svg" viewBox="0 0 128 128" width="100px" height="100px"><path fill="#FFF" d="M39 89L19 109 89 109 109 89z"/><path fill="#D5DFEA" d="M39 19H109V89H39z"/><path fill="#454B54" d="M89 112H19c-1.7 0-3-1.3-3-3V39c0-1.7 1.3-3 3-3s3 1.3 3 3v67h67c1.7 0 3 1.3 3 3S90.7 112 89 112zM89 97c-1.7 0-3-1.3-3-3V42H34c-1.7 0-3-1.3-3-3s1.3-3 3-3h55c1.7 0 3 1.3 3 3v55C92 95.7 90.7 97 89 97z"/><path fill="#454B54" d="M89,112c-0.8,0-1.5-0.3-2.1-0.9c-1.2-1.2-1.2-3.1,0-4.2L106,87.8V22H39c-1.7,0-3-1.3-3-3s1.3-3,3-3h70c1.7,0,3,1.3,3,3v70c0,0.8-0.3,1.6-0.9,2.1l-20,20C90.5,111.7,89.8,112,89,112z"/><path fill="#454B54" d="M89 42c-.8 0-1.5-.3-2.1-.9-1.2-1.2-1.2-3.1 0-4.2l10-10c1.2-1.2 3.1-1.2 4.2 0 1.2 1.2 1.2 3.1 0 4.2l-10 10C90.5 41.7 89.8 42 89 42zM19 42c-.8 0-1.5-.3-2.1-.9-1.2-1.2-1.2-3.1 0-4.2l20-20c1.2-1.2 3.1-1.2 4.2 0 1.2 1.2 1.2 3.1 0 4.2l-20 20C20.5 41.7 19.8 42 19 42z"/></svg>