<svg xmlns="http://www.w3.org/2000/svg" width="100" height="100" fill="#000" viewBox="0 0 80 80"><path d="M 11 10 C 10.449219 10 10 10.449219 10 11 L 10 52 C 10 52.265625 10.105469 52.519531 10.292969 52.707031 L 27.292969 69.707031 C 27.480469 69.894531 27.734375 70 28 70 L 69 70 C 69.550781 70 70 69.550781 70 69 L 70 28 C 70 27.734375 69.894531 27.480469 69.707031 27.292969 L 52.707031 10.292969 C 52.519531 10.105469 52.265625 10 52 10 Z M 12 12 L 51.585938 12 L 68 28.414063 L 68 68 L 28.414063 68 L 12 51.585938 Z M 14 13 C 13.449219 13 13 13.449219 13 14 C 13 14.550781 13.449219 15 14 15 C 14.550781 15 15 14.550781 15 14 C 15 13.449219 14.550781 13 14 13 Z M 17 16 C 16.449219 16 16 16.449219 16 17 C 16 17.550781 16.449219 18 17 18 C 17.550781 18 18 17.550781 18 17 C 18 16.449219 17.550781 16 17 16 Z M 20 19 C 19.449219 19 19 19.449219 19 20 C 19 20.550781 19.449219 21 20 21 C 20.550781 21 21 20.550781 21 20 C 21 19.449219 20.550781 19 20 19 Z M 23 22 C 22.449219 22 22 22.449219 22 23 C 22 23.550781 22.449219 24 23 24 C 23.550781 24 24 23.550781 24 23 C 24 22.449219 23.550781 22 23 22 Z M 26 25 C 25.449219 25 25 25.449219 25 26 C 25 26.550781 25.449219 27 26 27 C 26.550781 27 27 26.550781 27 26 C 27 25.449219 26.550781 25 26 25 Z M 29 28 C 28.449219 28 28 28.449219 28 29 C 28 29.550781 28.449219 30 29 30 C 29.550781 30 30 29.550781 30 29 C 30 28.449219 29.550781 28 29 28 Z M 33 28 C 32.449219 28 32 28.449219 32 29 C 32 29.550781 32.449219 30 33 30 C 33.550781 30 34 29.550781 34 29 C 34 28.449219 33.550781 28 33 28 Z M 37 28 C 36.449219 28 36 28.449219 36 29 C 36 29.550781 36.449219 30 37 30 C 37.550781 30 38 29.550781 38 29 C 38 28.449219 37.550781 28 37 28 Z M 41 28 C 40.449219 28 40 28.449219 40 29 C 40 29.550781 40.449219 30 41 30 C 41.550781 30 42 29.550781 42 29 C 42 28.449219 41.550781 28 41 28 Z M 45 28 C 44.449219 28 44 28.449219 44 29 C 44 29.550781 44.449219 30 45 30 C 45.550781 30 46 29.550781 46 29 C 46 28.449219 45.550781 28 45 28 Z M 49 28 C 48.449219 28 48 28.449219 48 29 C 48 29.550781 48.449219 30 49 30 C 49.550781 30 50 29.550781 50 29 C 50 28.449219 49.550781 28 49 28 Z M 53 28 C 52.449219 28 52 28.449219 52 29 C 52 29.550781 52.449219 30 53 30 C 53.550781 30 54 29.550781 54 29 C 54 28.449219 53.550781 28 53 28 Z M 57 28 C 56.449219 28 56 28.449219 56 29 C 56 29.550781 56.449219 30 57 30 C 57.550781 30 58 29.550781 58 29 C 58 28.449219 57.550781 28 57 28 Z M 61 28 C 60.449219 28 60 28.449219 60 29 C 60 29.550781 60.449219 30 61 30 C 61.550781 30 62 29.550781 62 29 C 62 28.449219 61.550781 28 61 28 Z M 65 28 C 64.449219 28 64 28.449219 64 29 C 64 29.550781 64.449219 30 65 30 C 65.550781 30 66 29.550781 66 29 C 66 28.449219 65.550781 28 65 28 Z M 29 32 C 28.449219 32 28 32.449219 28 33 C 28 33.550781 28.449219 34 29 34 C 29.550781 34 30 33.550781 30 33 C 30 32.449219 29.550781 32 29 32 Z M 29 36 C 28.449219 36 28 36.449219 28 37 C 28 37.550781 28.449219 38 29 38 C 29.550781 38 30 37.550781 30 37 C 30 36.449219 29.550781 36 29 36 Z M 29 40 C 28.449219 40 28 40.449219 28 41 C 28 41.550781 28.449219 42 29 42 C 29.550781 42 30 41.550781 30 41 C 30 40.449219 29.550781 40 29 40 Z M 29 44 C 28.449219 44 28 44.449219 28 45 C 28 45.550781 28.449219 46 29 46 C 29.550781 46 30 45.550781 30 45 C 30 44.449219 29.550781 44 29 44 Z M 29 48 C 28.449219 48 28 48.449219 28 49 C 28 49.550781 28.449219 50 29 50 C 29.550781 50 30 49.550781 30 49 C 30 48.449219 29.550781 48 29 48 Z M 29 52 C 28.449219 52 28 52.449219 28 53 C 28 53.550781 28.449219 54 29 54 C 29.550781 54 30 53.550781 30 53 C 30 52.449219 29.550781 52 29 52 Z M 29 56 C 28.449219 56 28 56.449219 28 57 C 28 57.550781 28.449219 58 29 58 C 29.550781 58 30 57.550781 30 57 C 30 56.449219 29.550781 56 29 56 Z M 29 60 C 28.449219 60 28 60.449219 28 61 C 28 61.550781 28.449219 62 29 62 C 29.550781 62 30 61.550781 30 61 C 30 60.449219 29.550781 60 29 60 Z M 29 64 C 28.449219 64 28 64.449219 28 65 C 28 65.550781 28.449219 66 29 66 C 29.550781 66 30 65.550781 30 65 C 30 64.449219 29.550781 64 29 64 Z"/></svg>