<svg xmlns="http://www.w3.org/2000/svg" width="300" height="300" viewBox="0 0 40 40"><path fill="#dcd5f2" d="M11,38.5c-3.033,0-5.5-2.468-5.5-5.5V14.5h29V33c0,3.032-2.467,5.5-5.5,5.5H11z"/><path fill="#8b75a1" d="M34,15v18c0,2.757-2.243,5-5,5H11c-2.757,0-5-2.243-5-5V15H34 M35,14H5v19c0,3.314,2.686,6,6,6h18 c3.314,0,6-2.686,6-6V14L35,14z"/><path fill="#f0edf7" d="M6,15h10v23h-5c-2.761,0-5-2.239-5-5V15z"/><path fill="none" stroke="#8b75a1" stroke-miterlimit="10" d="M5.5,14.619V11.5c0-5.523,4.477-10,10-10h9c5.523,0,10,4.477,10,10	v3.119"/><path fill="#dcd5f2" d="M6,15.5c-0.827,0-1.5-0.673-1.5-1.5s0.673-1.5,1.5-1.5h28c0.827,0,1.5,0.673,1.5,1.5 s-0.673,1.5-1.5,1.5H6z"/><path fill="#8b75a1" d="M34,13c0.551,0,1,0.449,1,1s-0.449,1-1,1H6c-0.551,0-1-0.449-1-1s0.449-1,1-1H34 M34,12H6 c-1.105,0-2,0.895-2,2s0.895,2,2,2h28c1.105,0,2-0.895,2-2S35.105,12,34,12L34,12z"/><g><path fill="#fff" d="M10.5 20.5H29.5V31.5H10.5z"/><path fill="#8b75a1" d="M29,21v10H11V21H29 M30,20H10v12h20V20L30,20z"/></g></svg>