<svg xmlns="http://www.w3.org/2000/svg" width="100" height="100" viewBox="0 0 48 48"><path fill="#BBDEFB" d="M18.5 9A8.5 8.5 0 1 0 18.5 26A8.5 8.5 0 1 0 18.5 9Z"/><path fill="#BBDEFB" d="M19 25A7 7 0 1 0 19 39A7 7 0 1 0 19 25Z"/><path fill="#BBDEFB" d="M11 19A7 7 0 1 0 11 33 7 7 0 1 0 11 19zM38 19A6 6 0 1 0 38 31 6 6 0 1 0 38 19z"/><path fill="#BBDEFB" d="M30 24A6 6 0 1 0 30 36A6 6 0 1 0 30 24Z"/><path fill="#BBDEFB" d="M30.5 12A6.5 6.5 0 1 0 30.5 25A6.5 6.5 0 1 0 30.5 12Z"/><path fill="#BBDEFB" d="M23 17A7 7 0 1 0 23 31A7 7 0 1 0 23 17Z"/><g><path fill="#3F51B5" d="M23 18A4 4 0 1 0 23 26A4 4 0 1 0 23 18Z"/><path fill="#3F51B5" d="M25,29c0,1.104-0.896,2-2,2l0,0c-1.104,0-2-0.896-2-2v-6c0-1.104,0.896-2,2-2l0,0c1.104,0,2,0.896,2,2V29z"/></g></svg>