<svg xmlns="http://www.w3.org/2000/svg" viewBox="0 0 40 40" width="300px" height="300px"><path fill="#589cdb" d="M6.358 6.358H33.641999999999996V33.641999999999996H6.358z" transform="rotate(-45.001 20 20)"/><path fill="#4e7ab5" d="M20,1.414L38.586,20L20,38.586L1.414,20L20,1.414 M20,0L0,20l20,20l20-20L20,0L20,0z"/><path fill="#4585bf" d="M19.74 39.033L23.858 22.531 39.209 19.916 39.293 20 20 39.293z"/><path fill="#4e7ab5" d="M37.948,20.638L20.489,38.097l3.772-15.127L37.948,20.638 M39.379,19.379L24,22l-0.539,0.091 l-0.115,0.415l-4.16,16.68L20,40l0.467-0.467L40,20L39.379,19.379L39.379,19.379z"/><path fill="none" stroke="#737373" stroke-miterlimit="10" d="M20 1.333L24 22.667M20 38.667L24 22.667M1.333 20L24 22.667"/><g><path fill="#97c9ff" d="M0.707 20L0.93 19.778 24.021 22.496 24.205 22.528 24.164 22.725 20.016 39.277 20 39.293z"/><path fill="#4e7ab5" d="M1.798,20.384l21.793,2.565l-3.853,15.375L1.798,20.384 M0.747,19.253L0,20l20,20l0.467-0.467 l4.187-16.707l0.147-0.704L24.08,22L0.747,19.253L0.747,19.253z"/></g><g><path fill="#c2e8ff" d="M0.814 20.107L0.707 20 20 0.707 20.07 0.777 24.138 22.512z"/><path fill="#4e7ab5" d="M19.731,1.683l3.792,20.263L1.716,19.698L19.731,1.683 M20,0l-0.787,0.787L0.747,19.253L0,20 l0.587,0.587L24,23l0.544,0.264l0.11-0.717l-4.12-22.013L20,0L20,0z"/></g><g><path fill="#4e7ab5" d="M12.621,16.032c0.073-0.25,0.164-0.488,0.273-0.714c0.11-0.226,0.234-0.428,0.374-0.611 c0.139-0.18,0.295-0.336,0.466-0.469c0.169-0.131,0.353-0.228,0.547-0.291c-0.185-0.259-0.303-0.568-0.353-0.927 c-0.05-0.358-0.017-0.737,0.099-1.135c0.093-0.318,0.221-0.603,0.386-0.855c0.165-0.252,0.352-0.46,0.561-0.625 c0.21-0.165,0.433-0.281,0.671-0.347c0.238-0.068,0.478-0.075,0.72-0.024c0.245,0.052,0.453,0.156,0.627,0.312 c0.173,0.156,0.306,0.348,0.4,0.576c0.093,0.228,0.143,0.485,0.15,0.771c0.005,0.286-0.036,0.584-0.127,0.896 c-0.115,0.396-0.293,0.743-0.531,1.039c-0.239,0.298-0.509,0.526-0.808,0.686c0.135,0.13,0.242,0.284,0.323,0.464 c0.079,0.18,0.133,0.377,0.16,0.59c0.026,0.213,0.027,0.441,0.002,0.682c-0.026,0.241-0.075,0.487-0.148,0.74 c-0.109,0.377-0.256,0.713-0.439,1.007c-0.183,0.295-0.389,0.537-0.62,0.728c-0.231,0.19-0.481,0.325-0.748,0.405 c-0.27,0.079-0.544,0.092-0.825,0.038c-0.277-0.054-0.515-0.167-0.711-0.337c-0.196-0.17-0.346-0.384-0.449-0.641 c-0.104-0.258-0.157-0.553-0.16-0.887C12.456,16.769,12.51,16.412,12.621,16.032z M13.556,16.091 c-0.072,0.246-0.111,0.473-0.121,0.68c-0.01,0.207,0.009,0.388,0.057,0.541c0.047,0.156,0.122,0.28,0.225,0.377 c0.102,0.097,0.228,0.161,0.378,0.191c0.146,0.029,0.29,0.017,0.434-0.034c0.143-0.05,0.279-0.136,0.408-0.257 c0.128-0.122,0.246-0.274,0.353-0.46c0.106-0.184,0.194-0.398,0.264-0.639c0.064-0.221,0.102-0.433,0.111-0.638 c0.009-0.204-0.009-0.387-0.054-0.549c-0.045-0.162-0.116-0.298-0.215-0.406c-0.097-0.11-0.221-0.18-0.373-0.21 c-0.143-0.029-0.286-0.017-0.432,0.037c-0.145,0.053-0.283,0.143-0.414,0.267c-0.13,0.126-0.249,0.282-0.357,0.468 C13.712,15.648,13.624,15.857,13.556,16.091z M14.89,12.217c-0.053,0.181-0.08,0.353-0.083,0.517 c-0.003,0.163,0.015,0.31,0.053,0.439c0.039,0.13,0.096,0.237,0.173,0.321c0.078,0.084,0.173,0.138,0.283,0.16 c0.111,0.023,0.223,0.01,0.339-0.037c0.115-0.046,0.225-0.12,0.331-0.218c0.105-0.1,0.201-0.222,0.288-0.369 c0.087-0.145,0.156-0.307,0.207-0.483c0.052-0.18,0.081-0.353,0.086-0.518c0.004-0.165-0.013-0.31-0.05-0.439 c-0.04-0.126-0.098-0.232-0.175-0.318c-0.08-0.083-0.175-0.139-0.288-0.163c-0.119-0.025-0.237-0.014-0.354,0.032 c-0.117,0.045-0.227,0.12-0.33,0.222c-0.104,0.102-0.197,0.226-0.281,0.372C15.007,11.885,14.94,12.044,14.89,12.217z"/></g></svg>