<svg xmlns="http://www.w3.org/2000/svg" width="50" height="50" fill="#000" viewBox="0 0 24 24"><path d="M 12.027344 2 C 11.699344 2 11.392078 2.1616406 11.205078 2.4316406 L 6.6679688 9 L 2.0019531 9 C 1.6889531 9 1.3950781 9.1455313 1.2050781 9.3945312 C 1.0170781 9.6425312 0.95315625 9.964625 1.0351562 10.265625 L 3.5957031 19.533203 C 3.8357031 20.400203 4.6244375 21 5.5234375 21 L 12 21 L 12 19 C 12 17.343 13.343 16 15 16 L 16 16 L 16 15 C 16 13.343 17.343 12 19 12 L 22.484375 12 L 22.964844 10.265625 C 23.046844 9.964625 22.982922 9.6425313 22.794922 9.3945312 C 22.604922 9.1455313 22.311047 9 21.998047 9 L 17.339844 9 L 12.853516 2.4355469 C 12.667516 2.1635469 12.36025 2.001 12.03125 2 L 12.027344 2 z M 12.023438 4.765625 L 14.916016 9 L 9.0976562 9 L 12.023438 4.765625 z M 19 14 C 18.448 14 18 14.448 18 15 L 18 18 L 15 18 C 14.448 18 14 18.448 14 19 C 14 19.552 14.448 20 15 20 L 18 20 L 18 23 C 18 23.552 18.448 24 19 24 C 19.552 24 20 23.552 20 23 L 20 20 L 23 20 C 23.552 20 24 19.552 24 19 C 24 18.448 23.552 18 23 18 L 20 18 L 20 15 C 20 14.448 19.552 14 19 14 z"/></svg>