<svg xmlns="http://www.w3.org/2000/svg" width="50" height="50" viewBox="0 0 64 64"><radialGradient id="JmlfR0egthOapM3rD7xMYa" cx="34.417" cy="36.083" r="28.77" gradientTransform="matrix(1 0 0 -1 0 66)" gradientUnits="userSpaceOnUse"><stop offset="0" stop-color="#f4e9c3"/><stop offset=".219" stop-color="#f8eecd"/><stop offset=".644" stop-color="#fdf4dc"/><stop offset="1" stop-color="#fff6e1"/></radialGradient><path fill="url(#JmlfR0egthOapM3rD7xMYa)" d="M10.5,64L10.5,64c1.933,0,3.5-1.567,3.5-3.5l0,0c0-1.933-1.567-3.5-3.5-3.5l0,0	C8.567,57,7,58.567,7,60.5l0,0C7,62.433,8.567,64,10.5,64z"/><radialGradient id="JmlfR0egthOapM3rD7xMYb" cx="32" cy="32" r="32" gradientUnits="userSpaceOnUse"><stop offset="0" stop-color="#f4e9c3"/><stop offset=".219" stop-color="#f8eecd"/><stop offset=".644" stop-color="#fdf4dc"/><stop offset="1" stop-color="#fff6e1"/></radialGradient><path fill="url(#JmlfR0egthOapM3rD7xMYb)" d="M62.83,46.17C62.1,45.45,61.1,45,60,45h-3.5c-1.38,0-2.5-1.12-2.5-2.5	c0-0.69,0.28-1.32,0.73-1.77C55.18,40.28,55.81,40,56.5,40H57c2.21,0,4-1.79,4-4c0-1.1-0.45-2.1-1.17-2.83C59.1,32.45,58.1,32,57,32	h-4.5c-1.93,0-3.5-1.57-3.5-3.5c0-0.96,0.39-1.84,1.03-2.47C50.66,25.39,51.54,25,52.5,25h5c2.49,0,4.5-2.01,4.5-4.5	S59.99,16,57.5,16H49c-2.21,0-4-1.79-4-4c0-1.1,0.45-2.1,1.17-2.83C46.9,8.45,47.9,8,49,8h2c2.21,0,4-1.79,4-4	c0-1.1-0.45-2.1-1.17-2.83C53.1,0.45,52.1,0,51,0H17c-2.21,0-4,1.79-4,4c0,1.1,0.45,2.1,1.17,2.83C14.9,7.55,15.9,8,17,8h2	c1.66,0,3,1.34,3,3c0,0.83-0.34,1.58-0.88,2.12C20.58,13.66,19.83,14,19,14H5.5C3.57,14,2,15.57,2,17.5c0,0.96,0.39,1.84,1.03,2.47	C3.66,20.61,4.54,21,5.5,21H7c1.66,0,3,1.34,3,3c0,0.83-0.34,1.58-0.88,2.12C8.58,26.66,7.83,27,7,27H5H4.5	c-1.24,0-2.37,0.5-3.18,1.32C0.5,29.13,0,30.26,0,31.5c0,0.1,0,0.19,0.01,0.29C0.16,34.15,2.11,36,4.5,36H12c2.21,0,4,1.79,4,4	c0,1.1-0.45,2.1-1.17,2.83C14.1,43.55,13.1,44,12,44H4c-2.21,0-4,1.79-4,4c0,1.1,0.45,2.1,1.17,2.83C1.9,51.55,2.9,52,4,52h17.5	c1.38,0,2.5,1.12,2.5,2.5c0,0.69-0.28,1.32-0.73,1.77C22.82,56.72,22.19,57,21.5,57c-0.96,0-1.84,0.39-2.47,1.03	C18.39,58.66,18,59.54,18,60.5s0.39,1.84,1.03,2.47C19.66,63.61,20.54,64,21.5,64h34c1.93,0,3.5-1.57,3.5-3.5	c0-0.96-0.39-1.84-1.03-2.47C57.34,57.39,56.46,57,55.5,57H55c-1.1,0-2-0.9-2-2c0-0.55,0.22-1.05,0.59-1.41	C53.95,53.22,54.45,53,55,53h5c2.21,0,4-1.79,4-4C64,47.9,63.55,46.9,62.83,46.17z"/><linearGradient id="JmlfR0egthOapM3rD7xMYc" x1="32" x2="32" y1="8.575" y2="58.497" gradientUnits="userSpaceOnUse"><stop offset="0" stop-color="#42d778"/><stop offset=".428" stop-color="#3dca76"/><stop offset="1" stop-color="#34b171"/></linearGradient><path fill="url(#JmlfR0egthOapM3rD7xMYc)" d="M52,28H36V12c0-2.209-1.791-4-4-4s-4,1.791-4,4v16H12c-2.209,0-4,1.791-4,4	c0,2.209,1.791,4,4,4h16v16c0,2.209,1.791,4,4,4s4-1.791,4-4V36h16c2.209,0,4-1.791,4-4C56,29.791,54.209,28,52,28z"/></svg>