<svg xmlns="http://www.w3.org/2000/svg" width="500" height="500" viewBox="0 0 16 16"><path fill="#f5ce85" d="M4.6,13.4c0.3-0.5,0.2-1.2-0.3-1.7c-0.3-0.3-0.6-0.4-1-0.4c-0.2,0-0.4,0-0.6,0.1L1.2,10L10,1.2 l1.4,1.4c-0.3,0.5-0.2,1.2,0.3,1.7c0.3,0.3,0.6,0.4,1,0.4c0.2,0,0.4,0,0.6-0.1L14.8,6L6,14.8L4.6,13.4z"/><path fill="#967a44" d="M10,1.9l0.8,0.8c-0.2,0.6,0,1.4,0.5,1.9c0.4,0.4,0.9,0.6,1.4,0.6c0.2,0,0.3,0,0.5-0.1L14.1,6L6,14.1 l-0.8-0.8c0.2-0.6,0-1.4-0.5-1.9c-0.4-0.4-0.9-0.6-1.4-0.6c-0.2,0-0.3,0-0.5,0.1L1.9,10L10,1.9 M10,0.5L0.5,10l2,2 c0.2-0.2,0.4-0.3,0.7-0.3s0.5,0.1,0.7,0.3c0.4,0.4,0.4,1,0,1.4l2,2L15.5,6l-2-2c-0.2,0.2-0.4,0.3-0.7,0.3s-0.5-0.1-0.7-0.3 c-0.4-0.4-0.4-1,0-1.4L10,0.5L10,0.5z"/><path fill="#5e9c76" d="M11.5 7A4.5 4.5 0 1 0 11.5 16A4.5 4.5 0 1 0 11.5 7Z"/><path fill="#fff" d="M11 9H12V14H11z"/><path fill="#fff" d="M9 11H14V12H9z"/></svg>