<svg xmlns="http://www.w3.org/2000/svg" width="50" height="50" viewBox="0 0 48 48"><path fill="#7b1fa2" d="M24,29c-2.2,0-4-1.8-4-4s1.8-4,4-4s4,1.8,4,4S26.2,29,24,29z"/><path fill="#9c27b0" d="M31.8 34.4l-2.9-2.8 1-1.2c1.3-1.5 2-3.4 2-5.4 0-2-.7-3.9-2-5.4l-1.3-1.5 3-2.7 1.3 1.5c2 2.2 3.1 5.1 3.1 8.1 0 3-1.1 5.8-3 8.1L31.8 34.4zM16.5 34.6l-1.3-1.5C13.1 30.9 12 28 12 25c0-3 1.1-5.8 3-8l1.3-1.5 3 2.6L18 19.6c-1.3 1.5-2 3.4-2 5.4 0 2 .7 4 2.1 5.5l1.3 1.5L16.5 34.6z"/><path fill="#ce93d8" d="M37.6 40.1l-2.9-2.8 1-1.1C38.5 33.1 40 29.1 40 25s-1.5-8.1-4.3-11.2l-1.3-1.5 3-2.7 1.3 1.5C42.1 15 44 19.9 44 25s-1.9 10-5.3 13.9L37.6 40.1zM10.6 40.3l-1.3-1.5C5.9 35 4 30.1 4 25c0-5.1 1.9-10 5.3-13.8l1.3-1.5 3 2.7-1.3 1.5C9.5 16.9 8 20.9 8 25c0 4.2 1.5 8.1 4.3 11.2l1.3 1.5L10.6 40.3z"/><path fill="#37474f" d="M22 -2.9H26V50.800000000000004H22z" transform="rotate(-45.001 24 24)"/></svg>