<svg xmlns="http://www.w3.org/2000/svg" width="300" height="300" viewBox="0 0 80 80"><path fill="#589cdb" d="M12.2 12.2H67.8V67.8H12.2z" transform="rotate(-45.001 40 40)"/><path fill="#4e7ab5" d="M40,1.4L78.6,40L40,78.6L1.4,40L40,1.4 M40,0L0,40l40,40l40-40L40,0L40,0z"/><path fill="#4585bf" d="M38.9 78.2L47.2 45.1 47.3 44.6 48.1 44.5 79.2 39.9 79.3 40 40 79.3z"/><path fill="#4e7ab5" d="M78,40.6L40.2,78.4L40,78.6l-0.5-0.5l8.2-32.8l0.1-0.2l0.4-0.1L78,40.6 M79.4,39.4L48,44l-1.1,0.2 L46.7,45l-8.3,33.4L40,80l0.9-0.9L80,40L79.4,39.4L79.4,39.4z"/><path fill="#737373" d="M43.5 2.3H44.5V45.699999999999996H43.5z" transform="rotate(-10.62 43.998 24)"/><path fill="#737373" d="M27.5 60.8H60.5V61.8H27.5z" transform="rotate(-75.978 44 61.333)"/><path fill="#737373" d="M24.8 19.8H25.8V65.4H24.8z" transform="rotate(-83.293 25.331 42.664)"/><path fill="#97c9ff" d="M0.7 40L1.7 39 47.9 44.5 48.5 44.5 48.5 44.9 40.1 79.2 40 79.3z"/><path fill="#4e7ab5" d="M1.9,39.6l46,5.4l0.1,0h0l-8.2,33.4L1.4,40L1.9,39.6 M1.5,38.5L0,40l40,40l0.6-0.6L49,45v-1h-1 L1.5,38.5L1.5,38.5z"/><g><path fill="#c2e8ff" d="M48 44.5L0.8 40.1 0.7 40 40 0.7 40 0.7 48.5 44.1 48.5 44.5z"/><path fill="#4e7ab5" d="M39.7,1.7L48,44L1.7,39.7L39.7,1.7 M40,0L0,40l0.6,0.6L48,45h1v-1L40.5,0.5L40,0L40,0z"/></g><path fill="#4e7ab5" d="M24.5,31.7c0.2-0.5,0.3-1,0.6-1.5c0.2-0.5,0.5-0.9,0.8-1.3c0.3-0.4,0.6-0.7,1-1 c0.4-0.3,0.7-0.5,1.2-0.6c-0.4-0.5-0.6-1.2-0.7-2c-0.1-0.8,0-1.6,0.2-2.4c0.2-0.7,0.5-1.3,0.8-1.8c0.3-0.5,0.7-1,1.2-1.3 c0.4-0.3,0.9-0.6,1.4-0.7c0.5-0.1,1-0.2,1.5,0c0.5,0.1,1,0.3,1.3,0.7c0.4,0.3,0.6,0.7,0.8,1.2c0.2,0.5,0.3,1,0.3,1.6 c0,0.6-0.1,1.2-0.3,1.9c-0.2,0.8-0.6,1.6-1.1,2.2c-0.5,0.6-1.1,1.1-1.7,1.4c0.3,0.3,0.5,0.6,0.7,1c0.2,0.4,0.3,0.8,0.3,1.2 c0.1,0.5,0.1,0.9,0,1.4c-0.1,0.5-0.2,1-0.3,1.6c-0.2,0.8-0.5,1.5-0.9,2.1c-0.4,0.6-0.8,1.1-1.3,1.5c-0.5,0.4-1,0.7-1.6,0.9 c-0.6,0.2-1.1,0.2-1.7,0.1c-0.6-0.1-1.1-0.4-1.5-0.7c-0.4-0.4-0.7-0.8-0.9-1.4c-0.2-0.5-0.3-1.2-0.3-1.9 C24.1,33.3,24.2,32.5,24.5,31.7z M26.5,31.9c-0.2,0.5-0.2,1-0.3,1.4c0,0.4,0,0.8,0.1,1.1c0.1,0.3,0.3,0.6,0.5,0.8 c0.2,0.2,0.5,0.3,0.8,0.4c0.3,0.1,0.6,0,0.9-0.1c0.3-0.1,0.6-0.3,0.9-0.5c0.3-0.3,0.5-0.6,0.7-1c0.2-0.4,0.4-0.8,0.6-1.3 c0.1-0.5,0.2-0.9,0.2-1.3c0-0.4,0-0.8-0.1-1.2c-0.1-0.3-0.2-0.6-0.5-0.9c-0.2-0.2-0.5-0.4-0.8-0.4c-0.3-0.1-0.6,0-0.9,0.1 c-0.3,0.1-0.6,0.3-0.9,0.6c-0.3,0.3-0.5,0.6-0.8,1C26.8,30.9,26.6,31.4,26.5,31.9z M29.3,23.7c-0.1,0.4-0.2,0.7-0.2,1.1 c0,0.3,0,0.7,0.1,0.9c0.1,0.3,0.2,0.5,0.4,0.7c0.2,0.2,0.4,0.3,0.6,0.3c0.2,0,0.5,0,0.7-0.1c0.2-0.1,0.5-0.3,0.7-0.5 c0.2-0.2,0.4-0.5,0.6-0.8c0.2-0.3,0.3-0.6,0.4-1c0.1-0.4,0.2-0.7,0.2-1.1c0-0.3,0-0.7-0.1-0.9c-0.1-0.3-0.2-0.5-0.4-0.7 c-0.2-0.2-0.4-0.3-0.6-0.3c-0.3-0.1-0.5,0-0.7,0.1c-0.2,0.1-0.5,0.3-0.7,0.5c-0.2,0.2-0.4,0.5-0.6,0.8C29.5,23,29.4,23.3,29.3,23.7z"/></svg>