<svg xmlns="http://www.w3.org/2000/svg" width="300" height="300" viewBox="0 0 48 48"><path fill="#90a4ae" d="M35,39v1H13v-1c0,0,0-2,2-2h4v-4h10v4h4C35,37,35,39,35,39z"/><path fill="#b0bec5" d="M6,8h36v26H6V8z"/><path fill="#303f9f" d="M8,10h32v21H8V10z"/><polygon fill="#7986cb" points="21 10 27 31 40 31 40 10"/><circle cx="38" cy="38" r="10" fill="#e0e0e0"/><polygon fill="#388e3c" points="42.293 40.707 37.586 36 42.293 31.293 43.707 32.707 40.414 36 43.707 39.293"/><polygon fill="#388e3c" points="33.707 44.707 32.293 43.293 35.586 40 32.293 36.707 33.707 35.293 38.414 40"/></svg>