<svg xmlns="http://www.w3.org/2000/svg" width="100" height="100" fill="#000" viewBox="0 0 50 50"><path d="M 25.96875 0.5625 L 31.75 33.46875 L 49.28125 23.875 Z M 23.96875 0.625 L 0.71875 23.84375 L 29.71875 33.53125 Z M 19.59375 12.6875 C 20.09375 12.6875 20.59375 12.804688 21.09375 12.90625 C 21.59375 13.105469 22.101563 13.300781 22.5 13.5 C 22.898438 13.800781 23.199219 14.101563 23.5 14.5 C 23.699219 14.898438 23.898438 15.3125 24 15.8125 C 23.898438 16.210938 23.886719 16.710938 23.6875 17.3125 C 23.488281 17.914063 23.210938 18.40625 22.8125 18.90625 C 22.3125 19.304688 21.789063 19.585938 21.1875 19.6875 C 21.488281 19.988281 21.707031 20.199219 21.90625 20.5 C 22.105469 20.800781 22.210938 21.101563 22.3125 21.5 C 22.414063 21.800781 22.5 22.195313 22.5 22.59375 C 22.5 22.992188 22.511719 23.414063 22.3125 23.8125 C 22.113281 24.511719 21.800781 25 21.5 25.5 C 21.101563 26 20.6875 26.300781 20.1875 26.5 C 19.6875 26.699219 19.195313 26.90625 18.59375 26.90625 C 17.992188 26.90625 17.414063 26.792969 16.8125 26.59375 C 16.210938 26.394531 15.6875 26.085938 15.1875 25.6875 C 14.6875 25.289063 14.394531 24.90625 14.09375 24.40625 C 13.792969 23.90625 13.6875 23.414063 13.6875 22.8125 C 13.6875 22.210938 13.800781 21.601563 14 21 C 14.101563 20.597656 14.300781 20.300781 14.5 20 C 14.699219 19.699219 14.886719 19.386719 15.1875 19.1875 C 15.488281 18.988281 15.792969 18.789063 16.09375 18.6875 C 16.394531 18.585938 16.792969 18.507813 17.09375 18.40625 C 16.695313 18.007813 16.414063 17.40625 16.3125 16.90625 C 16.210938 16.304688 16.207031 15.695313 16.40625 15.09375 C 16.605469 14.59375 16.789063 14.113281 17.1875 13.8125 C 17.488281 13.414063 17.914063 13.199219 18.3125 13 C 18.710938 12.800781 19.09375 12.6875 19.59375 12.6875 Z M 19.875 14.3125 C 19.648438 14.335938 19.460938 14.398438 19.3125 14.5 C 18.914063 14.699219 18.605469 15.085938 18.40625 15.6875 C 18.304688 15.988281 18.3125 16.199219 18.3125 16.5 C 18.3125 16.800781 18.304688 16.988281 18.40625 17.1875 C 18.507813 17.386719 18.613281 17.613281 18.8125 17.8125 C 19.011719 18.011719 19.199219 18.085938 19.5 18.1875 C 19.800781 18.289063 20.011719 18.3125 20.3125 18.3125 C 20.511719 18.3125 20.800781 18.195313 21 18.09375 C 21.199219 17.992188 21.398438 17.792969 21.5 17.59375 C 21.5 17.292969 21.585938 16.988281 21.6875 16.6875 C 21.789063 16.386719 21.8125 16.207031 21.8125 15.90625 C 21.8125 15.605469 21.695313 15.386719 21.59375 15.1875 C 21.492188 14.988281 21.386719 14.789063 21.1875 14.6875 C 20.988281 14.488281 20.792969 14.40625 20.59375 14.40625 C 20.34375 14.304688 20.101563 14.289063 19.875 14.3125 Z M 17.90625 19.6875 C 17.605469 19.6875 17.394531 19.800781 17.09375 20 C 16.894531 20.101563 16.699219 20.292969 16.5 20.59375 C 16.300781 20.792969 16.199219 21.101563 16 21.5 C 15.898438 21.898438 15.8125 22.199219 15.8125 22.5 C 15.8125 22.800781 15.898438 23.105469 16 23.40625 C 16.101563 23.707031 16.300781 23.894531 16.5 24.09375 C 16.699219 24.292969 17.011719 24.398438 17.3125 24.5 C 18.011719 24.699219 18.5 24.707031 19 24.40625 C 19.601563 24.105469 19.886719 23.613281 20.1875 22.8125 C 20.289063 22.414063 20.3125 22.113281 20.3125 21.8125 C 20.3125 21.511719 20.195313 21.207031 20.09375 20.90625 C 19.992188 20.605469 19.792969 20.386719 19.59375 20.1875 C 19.394531 19.988281 19.113281 19.914063 18.8125 19.8125 C 18.511719 19.710938 18.207031 19.6875 17.90625 19.6875 Z M 0.46875 25.875 L 23.84375 49.25 L 29.65625 35.59375 Z M 49.21875 26.21875 L 31.78125 35.71875 L 25.90625 49.5 Z"/></svg>