<svg xmlns="http://www.w3.org/2000/svg" width="50" height="50" viewBox="0 0 16 16"><path fill="#8b75a1" d="M15,5.5h-1v-2C14,2.1,12.9,1,11.5,1h-7C3.1,1,2,2.1,2,3.5v2H1v-2C1,1.6,2.6,0,4.5,0h7 C13.4,0,15,1.6,15,3.5V5.5z"/><path fill="#dcd5f2" d="M4,15.5c-1.4,0-2.5-1.1-2.5-2.5V6.5h13V13c0,1.4-1.1,2.5-2.5,2.5H4z"/><path fill="#8b75a1" d="M14,7v6c0,1.1-0.9,2-2,2H4c-1.1,0-2-0.9-2-2V7H14 M15,6H1v7c0,1.7,1.3,3,3,3h8c1.7,0,3-1.3,3-3V6 L15,6z"/><path fill="#fff" d="M4.5 9.5H11.5V12.5H4.5z"/><path fill="#8b75a1" d="M11,10v2H5v-2H11 M12,9H4v4h8V9L12,9z"/><g><path fill="#dcd5f2" d="M0.5 4.5H15.5V6.5H0.5z"/><path fill="#8b75a1" d="M15,5v1H1V5H15 M16,4H0v3h16V4L16,4z"/></g></svg>