<svg xmlns="http://www.w3.org/2000/svg" width="100" height="100" viewBox="0 0 80 80"><path fill="#fff" d="M20.207 75.5L4.5 59.793 4.5 4.5 59.793 4.5 75.5 20.207 75.5 75.5z"/><path fill="#788b9c" d="M59.586,5L75,20.414V75H20.414L5,59.586V5H59.586 M60,4H4v56l16,16h56V20L60,4L60,4z"/><path fill="#fff" d="M20.5 20.5H75.5V75.5H20.5z"/><path fill="#788b9c" d="M75,21v54H21V21H75 M76,20H20v56h56V20L76,20z"/><g><path fill="#fff" d="M20.208 75.5L4.5 59.793 4.5 5.157 20.5 20.216 20.5 75.5z"/><path fill="#788b9c" d="M5,6.314l15,14.118v54.153L5,59.586V6.314 M4,4v56l16.001,16H21V20L4,4L4,4z"/></g></svg>