<svg xmlns="http://www.w3.org/2000/svg" width="50" height="50" viewBox="0 0 48 48"><path fill="#cc9721" d="M35,45c0,0-6-2-11-2s-11,2-11,2l-1-12h24L35,45z"/><path fill="#ffa726" d="M14 29c0 2.208-1.791 4-4 4s-4-1.792-4-4c0-2.209 1.791-4 4-4S14 26.791 14 29M42 29c0 2.208-1.791 4-4 4s-4-1.792-4-4c0-2.209 1.791-4 4-4S42 26.791 42 29"/><path fill="#ffb74d" d="M38,19c0-12.725-28-8.285-28,0v9c0,8.286,6.269,15,14,15s14-6.714,14-15V19z"/><path fill="#784719" d="M32,27c0,1.106-0.896,2-2,2c-1.106,0-2-0.894-2-2c0-1.105,0.894-2,2-2C31.104,25,32,25.895,32,27 M20,27c0-1.105-0.896-2-2-2c-1.106,0-2,0.895-2,2c0,1.106,0.894,2,2,2C19.104,29,20,28.106,20,27"/><path fill="#ffe082" d="M3,37C3,12,15.495,8,24,8s21,4.063,21,29l-10,8V25l-16.75-9L13,23v22C13,45,3,37,3,37z"/><path fill="#fb8c00" d="M19,36h10c0,0-2,3-5,3S19,36,19,36z"/><path fill="#ffc107" d="M30 10L18 10 17 4 21 5 24 2 27 5 31 4z"/><path fill="#ff9800" d="M18 10H30V12H18zM24 0A1 1 0 1 0 24 2 1 1 0 1 0 24 0zM31 2A1 1 0 1 0 31 4 1 1 0 1 0 31 2zM17 2A1 1 0 1 0 17 4 1 1 0 1 0 17 2z"/></svg>