<svg xmlns="http://www.w3.org/2000/svg" width="50" height="50" viewBox="0 0 24 24"><path d="M15,19H8c-1.7,0-3-1.3-3-3V8c0-1.7,1.3-3,3-3h7c1.7,0,3,1.3,3,3v8C18,17.7,16.7,19,15,19z M8,7C7.4,7,7,7.4,7,8v8 c0,0.6,0.4,1,1,1h7c0.6,0,1-0.4,1-1V8c0-0.6-0.4-1-1-1H8z"/><path d="M18 12L18 12c-.6 0-1-.4-1-1V9c0-.6.4-1 1-1l0 0c.6 0 1 .4 1 1v2C19 11.6 18.6 12 18 12zM8.3 6.4L6.5 5.6 8.3 1 14.7 1 16.5 5.6 14.7 6.4 13.3 3 9.7 3zM14.7 23L8.3 23 6.5 18.4 8.3 17.6 9.7 21 13.3 21 14.7 17.6 16.5 18.4zM9.5 9A1.5 1.5 0 1 0 9.5 12 1.5 1.5 0 1 0 9.5 9zM13 9A1 1 0 1 0 13 11 1 1 0 1 0 13 9zM10 13A1 1 0 1 0 10 15 1 1 0 1 0 10 13zM13.5 12A1.5 1.5 0 1 0 13.5 15 1.5 1.5 0 1 0 13.5 12z"/><path d="M15.6 6L14 2 9 2 7.4 6M7.4 18L9 22 14 22 15.6 18" opacity=".3"/></svg>