<svg fill="#000000" xmlns="http://www.w3.org/2000/svg" viewBox="0 0 32 32" width="50px" height="50px"><path d="M 16 2.59375 L 15.28125 3.28125 L 3.28125 15.28125 L 2.59375 16 L 3.28125 16.71875 L 15.28125 28.71875 L 16 29.40625 L 16.71875 28.71875 L 28.71875 16.71875 L 29.40625 16 L 28.71875 15.28125 L 16.71875 3.28125 Z M 15.34375 6.09375 L 17.71875 19.53125 L 5.875 15.5625 Z M 17.5625 7 L 26.34375 15.78125 L 19.75 19.4375 Z M 13.125 10 C 12.636719 9.964844 12.183594 10.066406 11.78125 10.4375 C 11.332031 10.855469 11.152344 11.464844 11.25 12.0625 C 11.300781 12.308594 11.460938 12.613281 11.65625 12.8125 C 11.507813 12.863281 11.304688 12.917969 11.15625 12.96875 C 10.753906 13.105469 10.4375 13.433594 10.25 13.8125 C 9.300781 15.726563 11.3125 17.566406 13.1875 16.8125 C 14.242188 16.386719 14.609375 14.765625 14 13.84375 C 13.902344 13.695313 13.804688 13.585938 13.65625 13.4375 C 13.953125 13.386719 14.222656 13.261719 14.46875 13.0625 C 14.671875 12.898438 14.808594 12.597656 14.90625 12.28125 C 15.210938 11.289063 14.664063 10.300781 13.625 10.09375 C 13.457031 10.058594 13.289063 10.011719 13.125 10 Z M 13.15625 10.78125 C 13.460938 10.789063 13.738281 10.945313 13.875 11.21875 C 13.984375 11.4375 14.015625 11.710938 13.96875 11.96875 C 13.90625 12.3125 13.6875 12.621094 13.34375 12.71875 C 12.929688 12.832031 12.460938 12.640625 12.3125 12.21875 C 12.101563 11.613281 12.433594 10.765625 13.15625 10.78125 Z M 12.125 13.59375 C 12.589844 13.554688 13.097656 13.792969 13.25 14.25 C 13.34375 14.523438 13.332031 14.847656 13.25 15.125 C 13.085938 15.691406 12.605469 16.128906 11.96875 16 C 11.28125 15.863281 11.042969 15.253906 11.15625 14.625 C 11.222656 14.269531 11.371094 13.917969 11.6875 13.71875 C 11.820313 13.636719 11.96875 13.605469 12.125 13.59375 Z M 7.71875 18.28125 L 17.65625 21.59375 L 15.6875 26.25 Z M 22.1875 20.375 L 18.96875 23.59375 L 19.78125 21.71875 Z"/></svg>