<svg xmlns="http://www.w3.org/2000/svg" width="50" height="50" fill="#000" viewBox="0 0 80 80"><path d="M 40 7 C 36.996094 7 34.71875 7.246094 33.167969 7.5 C 31.472656 7.777344 30.015625 8.894531 29.34375 10.488281 C 28.289063 13.007813 26.027344 17.472656 23.597656 19.292969 C 23.546875 19.332031 23.496094 19.378906 23.453125 19.425781 C 23.453125 19.429688 23.453125 19.429688 23.453125 19.433594 C 21.371094 20.878906 20 23.28125 20 26 L 20 54 C 20 56.710938 21.363281 59.113281 23.4375 60.5625 C 23.488281 60.613281 23.542969 60.664063 23.597656 60.707031 C 26.027344 62.527344 28.289063 66.992188 29.34375 69.511719 C 30.015625 71.105469 31.472656 72.222656 33.167969 72.5 C 34.71875 72.753906 36.996094 73 40 73 C 43.003906 73 45.28125 72.753906 46.832031 72.5 C 48.527344 72.222656 49.984375 71.105469 50.65625 69.511719 C 51.710938 66.992188 53.972656 62.527344 56.402344 60.707031 C 56.453125 60.667969 56.503906 60.621094 56.546875 60.574219 C 56.546875 60.570313 56.546875 60.570313 56.546875 60.566406 C 58.628906 59.121094 60 56.71875 60 54 L 60 51 C 60.550781 51 61 50.550781 61 50 L 61 43 C 61 42.449219 60.550781 42 60 42 L 60 37 C 61.105469 37 62 36.105469 62 35 L 62 30 C 62 28.894531 61.105469 28 60 28 L 60 26 C 60 23.28125 58.628906 20.871094 56.542969 19.425781 C 56.5 19.378906 56.453125 19.332031 56.402344 19.292969 C 53.972656 17.472656 51.710938 13.007813 50.65625 10.488281 C 49.984375 8.894531 48.527344 7.777344 46.832031 7.5 C 45.28125 7.246094 43.003906 7 40 7 Z M 40 9 C 42.894531 9 45.0625 9.238281 46.511719 9.476563 C 47.546875 9.644531 48.410156 10.308594 48.8125 11.265625 C 49.558594 13.046875 50.792969 15.734375 52.480469 18.023438 C 52.320313 18.015625 52.160156 18 52 18 L 28 18 C 27.839844 18 27.679688 18.015625 27.519531 18.023438 C 29.207031 15.734375 30.441406 13.046875 31.1875 11.265625 C 31.589844 10.308594 32.453125 9.644531 33.488281 9.476563 C 34.9375 9.238281 37.105469 9 40 9 Z M 28 20 L 52 20 C 55.324219 20 58 22.675781 58 26 L 58 54 C 58 57.324219 55.324219 60 52 60 L 28 60 C 24.675781 60 22 57.324219 22 54 L 22 26 C 22 22.675781 24.675781 20 28 20 Z M 28 23 C 27.449219 23 27 23.449219 27 24 C 27 24.550781 27.449219 25 28 25 C 28.550781 25 29 24.550781 29 24 C 29 23.449219 28.550781 23 28 23 Z M 32 23 C 31.449219 23 31 23.449219 31 24 C 31 24.550781 31.449219 25 32 25 C 32.550781 25 33 24.550781 33 24 C 33 23.449219 32.550781 23 32 23 Z M 36 23 C 35.449219 23 35 23.449219 35 24 C 35 24.550781 35.449219 25 36 25 C 36.550781 25 37 24.550781 37 24 C 37 23.449219 36.550781 23 36 23 Z M 40 23 C 39.449219 23 39 23.449219 39 24 C 39 24.550781 39.449219 25 40 25 C 40.550781 25 41 24.550781 41 24 C 41 23.449219 40.550781 23 40 23 Z M 44 23 C 43.449219 23 43 23.449219 43 24 C 43 24.550781 43.449219 25 44 25 C 44.550781 25 45 24.550781 45 24 C 45 23.449219 44.550781 23 44 23 Z M 48 23 C 47.449219 23 47 23.449219 47 24 C 47 24.550781 47.449219 25 48 25 C 48.550781 25 49 24.550781 49 24 C 49 23.449219 48.550781 23 48 23 Z M 52 23 C 51.449219 23 51 23.449219 51 24 C 51 24.550781 51.449219 25 52 25 C 52.550781 25 53 24.550781 53 24 C 53 23.449219 52.550781 23 52 23 Z M 35 28 C 33.355469 28 32 29.355469 32 31 C 32 32.644531 33.355469 34 35 34 C 36.644531 34 38 32.644531 38 31 C 38 29.355469 36.644531 28 35 28 Z M 45 28 C 43.355469 28 42 29.355469 42 31 C 42 32.644531 43.355469 34 45 34 C 46.644531 34 48 32.644531 48 31 C 48 29.355469 46.644531 28 45 28 Z M 28 30 C 26.894531 30 26 30.894531 26 32 C 26 33.105469 26.894531 34 28 34 C 29.105469 34 30 33.105469 30 32 C 30 30.894531 29.105469 30 28 30 Z M 35 30 C 35.5625 30 36 30.4375 36 31 C 36 31.5625 35.5625 32 35 32 C 34.4375 32 34 31.5625 34 31 C 34 30.4375 34.4375 30 35 30 Z M 45 30 C 45.5625 30 46 30.4375 46 31 C 46 31.5625 45.5625 32 45 32 C 44.4375 32 44 31.5625 44 31 C 44 30.4375 44.4375 30 45 30 Z M 40 35 C 37.25 35 35 37.25 35 40 C 35 42.75 37.25 45 40 45 C 42.75 45 45 42.75 45 40 C 45 37.25 42.75 35 40 35 Z M 51 35 C 48.800781 35 47 36.800781 47 39 C 47 41.199219 48.800781 43 51 43 C 53.199219 43 55 41.199219 55 39 C 55 36.800781 53.199219 35 51 35 Z M 30 36 C 27.800781 36 26 37.800781 26 40 C 26 42.199219 27.800781 44 30 44 C 32.199219 44 34 42.199219 34 40 C 34 37.800781 32.199219 36 30 36 Z M 40 37 C 41.667969 37 43 38.332031 43 40 C 43 41.667969 41.667969 43 40 43 C 38.332031 43 37 41.667969 37 40 C 37 38.332031 38.332031 37 40 37 Z M 51 37 C 52.117188 37 53 37.882813 53 39 C 53 40.117188 52.117188 41 51 41 C 49.882813 41 49 40.117188 49 39 C 49 37.882813 49.882813 37 51 37 Z M 30 38 C 31.117188 38 32 38.882813 32 40 C 32 41.117188 31.117188 42 30 42 C 28.882813 42 28 41.117188 28 40 C 28 38.882813 28.882813 38 30 38 Z M 44.5 45.5 C 42.578125 45.5 41 47.078125 41 49 C 41 50.921875 42.578125 52.5 44.5 52.5 C 46.421875 52.5 48 50.921875 48 49 C 48 47.078125 46.421875 45.5 44.5 45.5 Z M 35 46 C 33.355469 46 32 47.355469 32 49 C 32 50.644531 33.355469 52 35 52 C 36.644531 52 38 50.644531 38 49 C 38 47.355469 36.644531 46 35 46 Z M 52 46 C 50.894531 46 50 46.894531 50 48 C 50 49.105469 50.894531 50 52 50 C 53.105469 50 54 49.105469 54 48 C 54 46.894531 53.105469 46 52 46 Z M 44.5 47.5 C 45.339844 47.5 46 48.160156 46 49 C 46 49.839844 45.339844 50.5 44.5 50.5 C 43.660156 50.5 43 49.839844 43 49 C 43 48.160156 43.660156 47.5 44.5 47.5 Z M 35 48 C 35.5625 48 36 48.4375 36 49 C 36 49.5625 35.5625 50 35 50 C 34.4375 50 34 49.5625 34 49 C 34 48.4375 34.4375 48 35 48 Z M 28 55 C 27.449219 55 27 55.449219 27 56 C 27 56.550781 27.449219 57 28 57 C 28.550781 57 29 56.550781 29 56 C 29 55.449219 28.550781 55 28 55 Z M 32 55 C 31.449219 55 31 55.449219 31 56 C 31 56.550781 31.449219 57 32 57 C 32.550781 57 33 56.550781 33 56 C 33 55.449219 32.550781 55 32 55 Z M 36 55 C 35.449219 55 35 55.449219 35 56 C 35 56.550781 35.449219 57 36 57 C 36.550781 57 37 56.550781 37 56 C 37 55.449219 36.550781 55 36 55 Z M 40 55 C 39.449219 55 39 55.449219 39 56 C 39 56.550781 39.449219 57 40 57 C 40.550781 57 41 56.550781 41 56 C 41 55.449219 40.550781 55 40 55 Z M 44 55 C 43.449219 55 43 55.449219 43 56 C 43 56.550781 43.449219 57 44 57 C 44.550781 57 45 56.550781 45 56 C 45 55.449219 44.550781 55 44 55 Z M 48 55 C 47.449219 55 47 55.449219 47 56 C 47 56.550781 47.449219 57 48 57 C 48.550781 57 49 56.550781 49 56 C 49 55.449219 48.550781 55 48 55 Z M 52 55 C 51.449219 55 51 55.449219 51 56 C 51 56.550781 51.449219 57 52 57 C 52.550781 57 53 56.550781 53 56 C 53 55.449219 52.550781 55 52 55 Z M 27.519531 61.976563 C 27.679688 61.984375 27.839844 62 28 62 L 52 62 C 52.160156 62 52.320313 61.984375 52.480469 61.976563 C 50.792969 64.265625 49.558594 66.953125 48.8125 68.734375 C 48.410156 69.691406 47.546875 70.355469 46.511719 70.527344 C 45.0625 70.761719 42.894531 71 40 71 C 37.105469 71 34.9375 70.761719 33.488281 70.527344 C 32.453125 70.355469 31.589844 69.691406 31.1875 68.734375 C 30.441406 66.953125 29.207031 64.265625 27.519531 61.976563 Z"/></svg>