<svg xmlns="http://www.w3.org/2000/svg" width="100" height="100" viewBox="0 0 100 100"><path fill="#60be92" d="M85,42H58V15c0-1.105-0.895-2-2-2H44c-1.105,0-2,0.895-2,2v27H15c-1.105,0-2,0.895-2,2v12	c0,1.105,0.895,2,2,2h27v27c0,1.105,0.895,2,2,2h12c1.105,0,2-0.895,2-2V58h27c1.105,0,2-0.895,2-2V44C87,42.895,86.105,42,85,42z"/><path fill="#1f212b" d="M77.5,47h-10c-0.276,0-0.5-0.224-0.5-0.5s0.224-0.5,0.5-0.5h10c0.276,0,0.5,0.224,0.5,0.5	S77.776,47,77.5,47z"/><path fill="#1f212b" d="M82.5,47h-2c-0.276,0-0.5-0.224-0.5-0.5s0.224-0.5,0.5-0.5h2c0.276,0,0.5,0.224,0.5,0.5	S82.776,47,82.5,47z"/><path fill="#1f212b" d="M56,88H44c-1.654,0-3-1.346-3-3V59H15c-1.654,0-3-1.346-3-3V44c0-1.654,1.346-3,3-3h26V15	c0-1.654,1.346-3,3-3h12c1.654,0,3,1.346,3,3v26h26c1.654,0,3,1.346,3,3v12c0,1.654-1.346,3-3,3H59v26C59,86.654,57.654,88,56,88z M15,43c-0.551,0-1,0.449-1,1v12c0,0.551,0.449,1,1,1h28v28c0,0.551,0.449,1,1,1h12c0.551,0,1-0.449,1-1V57h28c0.551,0,1-0.449,1-1	V44c0-0.551-0.449-1-1-1H57V15c0-0.551-0.449-1-1-1H44c-0.551,0-1,0.449-1,1v28H15z"/><path fill="#1f212b" d="M64.5,47h-11c-0.276,0-0.5-0.224-0.5-0.5v-29c0-0.276,0.224-0.5,0.5-0.5s0.5,0.224,0.5,0.5V46h10.5	c0.276,0,0.5,0.224,0.5,0.5S64.776,47,64.5,47z"/></svg>