<svg xmlns="http://www.w3.org/2000/svg" viewBox="0 0 64 64" width="300px" height="300px"><linearGradient id="POP27M3A1TSD8_E6ChnF6a" x1="40.455" x2="40.455" y1="54.21" y2="54.66" gradientUnits="userSpaceOnUse" spreadMethod="reflect"><stop offset="0" stop-color="#6dc7ff"/><stop offset="1" stop-color="#e6abff"/></linearGradient><path fill="url(#POP27M3A1TSD8_E6ChnF6a)" d="M39.87,54.66c0.4-0.11,0.79-0.26,1.17-0.45C40.65,54.38,40.26,54.53,39.87,54.66z M39.87,54.66c0.4-0.11,0.79-0.26,1.17-0.45C40.65,54.38,40.26,54.53,39.87,54.66z M39.87,54.66c0.4-0.11,0.79-0.26,1.17-0.45 C40.65,54.38,40.26,54.53,39.87,54.66z M39.87,54.66c0.4-0.11,0.79-0.26,1.17-0.45C40.65,54.38,40.26,54.53,39.87,54.66z"/><linearGradient id="POP27M3A1TSD8_E6ChnF6b" x1="40.455" x2="40.455" y1="54.21" y2="54.66" gradientUnits="userSpaceOnUse" spreadMethod="reflect"><stop offset="0" stop-color="#1a6dff"/><stop offset="1" stop-color="#c822ff"/></linearGradient><path fill="url(#POP27M3A1TSD8_E6ChnF6b)" d="M39.87,54.66c0.4-0.11,0.79-0.26,1.17-0.45C40.65,54.38,40.26,54.53,39.87,54.66z"/><linearGradient id="POP27M3A1TSD8_E6ChnF6c" x1="25.487" x2="25.487" y1="11.52" y2="58" gradientUnits="userSpaceOnUse" spreadMethod="reflect"><stop offset="0" stop-color="#1a6dff"/><stop offset="1" stop-color="#c822ff"/></linearGradient><path fill="url(#POP27M3A1TSD8_E6ChnF6c)" d="M43.74,45.41c-0.97-1.17-2.16-2.17-3.49-2.91c-2.48-1.37-4.32-2.73-6.55-4.51 c-2.2-1.76-4.3-3.6-5.99-5.88c-1.21-1.65-2.26-3.54-2.66-5.58c-0.1-0.45-0.09-0.45,0.38-0.53c1.53-0.22,2.9-0.82,3.86-2.02 C30.56,22.41,31,21.05,31,19c0-2.47-1.92-5.23-4.3-6.42c-0.76-0.39-1.37-0.56-2.18-0.56c-0.47,0-0.94,0.07-1.42,0.2 c-0.61,0.17-1.1,0.29-1.1,0.9V37c0,1.46,2,3,2,3H14c0,0,2-1.5,2-3V11.52c-0.7,0.54-1.37,1.12-2,1.74C9.07,17.99,6,24.64,6,32 c0,13.24,9.95,24.2,22.76,25.79C29.82,57.93,30.9,58,32,58c-0.74-0.49-1.52-1.21-2.23-2.1C28.24,54,27,51.35,27,48.75 C27,44,30.22,42,32.75,42c0.98,0.03,2.25,0.31,2.25,1.68c0,2.31-2.4,3.32-3.12,3.32C31.25,47,31,48.09,31,49.38 c0,1.98,1.11,3.8,2.87,4.61c1.21,0.56,2.56,1.01,3.74,1.01c0.08,0,0.17,0,0.26-0.01c0.64-0.04,1.29-0.13,1.93-0.31 c0.02,0,0.05-0.01,0.07-0.02c0.39-0.13,0.78-0.28,1.17-0.45h0.01c1.04-0.5,1.96-1.26,2.78-2.45C45.27,49.66,45.47,47.51,43.74,45.41 z M24,14.07c0.18-0.03,0.35-0.05,0.52-0.05c0.47,0,0.76,0.08,1.26,0.34C27.57,15.25,29,17.33,29,19c0,1.63-0.31,2.54-1.26,3.72 c-0.57,0.7-1.41,1.13-2.6,1.3c-0.3,0.05-0.73,0.12-1.14,0.38V14.07z M8,32c0-6.07,2.26-11.62,6-15.85V37 c-0.05,0.27-0.65,0.98-1.21,1.4l-3.12,2.38C8.59,38.06,8,35.1,8,32z M27.53,42.16C26.37,43.29,25,45.34,25,48.75 c0,2.39,0.83,4.76,2.04,6.73c-7.51-1.58-13.73-6.69-16.85-13.49L14,42h13.7C27.64,42.05,27.58,42.11,27.53,42.16z M32.81,40h-0.06 c-1.38,0-2.76,0.41-3.95,1.16l-3.58-2.75c-0.56-0.43-1.16-1.15-1.22-1.45v-7.2c0.51,1.15,1.21,2.32,2.1,3.54 c1.87,2.52,4.16,4.49,6.35,6.25c0.19,0.16,0.39,0.31,0.58,0.46C32.96,40.01,32.89,40,32.81,40z M42.17,50.63 c-1.03,1.51-2.41,2.24-4.42,2.36C37.7,53,37.65,53,37.61,53c-0.51,0-1.43-0.15-2.91-0.83c-1.04-0.48-1.7-1.57-1.7-2.79 c0-0.23,0.01-0.42,0.02-0.58c1.79-0.55,3.98-2.29,3.98-5.12c0-0.29-0.03-0.57-0.09-0.85c0.75,0.49,1.53,0.96,2.38,1.42 c1.14,0.64,2.12,1.49,2.91,2.44C42.96,47.6,43.48,48.72,42.17,50.63z"/><linearGradient id="POP27M3A1TSD8_E6ChnF6d" x1="38.085" x2="38.085" y1="6" y2="49.73" gradientUnits="userSpaceOnUse" spreadMethod="reflect"><stop offset="0" stop-color="#1a6dff"/><stop offset="1" stop-color="#c822ff"/></linearGradient><path fill="url(#POP27M3A1TSD8_E6ChnF6d)" d="M32,6c-3.54,0-6.91,0.71-9.98,2c-1.35,0.55-2.63,1.22-3.85,2h7.02C30.15,10,36,11.98,36,18 c0,3.24-0.75,6.83-4.08,8.78c0.4,0.96,0.68,1.78,1.08,2.6c0.74-1.57,2.38-3.38,6-3.38h9v8c-0.14,0-0.16-0.02-0.19-0.15 C47.33,31.91,44.52,29,40.88,29C39,29,38,30.3,38,31.62c0,1.55,0.46,1.9,1.77,3c1.81,1.51,5.9,4.22,6.77,4.73 c1.97,1.16,3.7,2.8,4.26,5.05c0.12,0.46,0.17,1.49,0.19,2.26C51,46.95,51,47.2,51,47.38v2.35c0.72-0.76,1.39-1.57,2-2.42 c3.14-4.3,5-9.59,5-15.31C58,17.66,46.34,6,32,6z M52.77,44.01c-0.01-0.04-0.02-0.07-0.03-0.11c-0.62-2.47-2.41-4.64-5.19-6.27 c-0.83-0.49-4.82-3.15-6.5-4.55l-0.07-0.06C40,32.21,40,32.21,40,31.62c0-0.23,0.11-0.62,0.88-0.62c2.75,0,4.74,2.33,4.98,3.33 S46.94,36,48,36h2l-0.03-12H39c-0.8,0-1.53,0.07-2.19,0.21C37.6,22.49,38,20.41,38,18c0-5.16-3.63-8.77-9.5-9.74 C29.64,8.09,30.81,8,32,8c13.23,0,24,10.77,24,24C56,36.38,54.83,40.48,52.77,44.01z"/><linearGradient id="POP27M3A1TSD8_E6ChnF6e" x1="28.515" x2="28.515" y1="8" y2="55.766" gradientUnits="userSpaceOnUse" spreadMethod="reflect"><stop offset="0" stop-color="#6dc7ff"/><stop offset="1" stop-color="#e6abff"/></linearGradient><path fill="url(#POP27M3A1TSD8_E6ChnF6e)" d="M33.03,40.01c-0.07,0-0.14-0.01-0.22-0.01h-0.06c-1.38,0-2.76,0.41-3.95,1.16l-3.58-2.75 c-0.56-0.43-1.16-1.15-1.22-1.45v-7.2c0.51,1.15,1.21,2.32,2.1,3.54c1.87,2.52,4.16,4.49,6.35,6.25 C32.64,39.71,32.84,39.86,33.03,40.01z"/><linearGradient id="POP27M3A1TSD8_E6ChnF6f" x1="18.945" x2="18.945" y1="8" y2="55.766" gradientUnits="userSpaceOnUse" spreadMethod="reflect"><stop offset="0" stop-color="#6dc7ff"/><stop offset="1" stop-color="#e6abff"/></linearGradient><path fill="url(#POP27M3A1TSD8_E6ChnF6f)" d="M27.53,42.16C26.37,43.29,25,45.34,25,48.75c0,2.39,0.83,4.76,2.04,6.73 c-7.51-1.58-13.73-6.69-16.85-13.49L14,42h13.7C27.64,42.05,27.58,42.11,27.53,42.16z"/><linearGradient id="POP27M3A1TSD8_E6ChnF6g" x1="11" x2="11" y1="8" y2="55.766" gradientUnits="userSpaceOnUse" spreadMethod="reflect"><stop offset="0" stop-color="#6dc7ff"/><stop offset="1" stop-color="#e6abff"/></linearGradient><path fill="url(#POP27M3A1TSD8_E6ChnF6g)" d="M14,16.15V37c-0.05,0.27-0.65,0.98-1.21,1.4l-3.12,2.38C8.59,38.06,8,35.1,8,32 C8,25.93,10.26,20.38,14,16.15z"/><linearGradient id="POP27M3A1TSD8_E6ChnF6h" x1="42.25" x2="42.25" y1="8" y2="55.766" gradientUnits="userSpaceOnUse" spreadMethod="reflect"><stop offset="0" stop-color="#6dc7ff"/><stop offset="1" stop-color="#e6abff"/></linearGradient><path fill="url(#POP27M3A1TSD8_E6ChnF6h)" d="M56,32c0,4.38-1.17,8.48-3.23,12.01c-0.01-0.04-0.02-0.07-0.03-0.11 c-0.62-2.47-2.41-4.64-5.19-6.27c-0.83-0.49-4.82-3.15-6.5-4.55l-0.07-0.06C40,32.21,40,32.21,40,31.62c0-0.23,0.11-0.62,0.88-0.62 c2.75,0,4.74,2.33,4.98,3.33S46.94,36,48,36h2l-0.03-12H39c-0.8,0-1.53,0.07-2.19,0.21C37.6,22.49,38,20.41,38,18 c0-5.16-3.63-8.77-9.5-9.74C29.64,8.09,30.81,8,32,8C45.23,8,56,18.77,56,32z"/></svg>