<svg xmlns="http://www.w3.org/2000/svg" width="100" height="100" fill="#000" viewBox="0 0 16 16"><path d="M 4.5 2 C 3.6774686 2 3 2.6774686 3 3.5 L 3 8 L 4 8 L 4 3.5 C 4 3.2185314 4.2185314 3 4.5 3 L 9 3 L 9 6 L 12 6 L 12 8 L 13 8 L 13 5.2929688 L 9.7070312 2 L 4.5 2 z M 10 3.7070312 L 11.292969 5 L 10 5 L 10 3.7070312 z M 4.5 9 C 3.6774686 9 3 9.6774686 3 10.5 L 3 12.5 C 3 13.322531 3.6774686 14 4.5 14 C 5.3225314 14 6 13.322531 6 12.5 L 6 10.5 C 6 9.6774686 5.3225314 9 4.5 9 z M 7 9 L 7 14 L 8.5 14 C 9.3225314 14 10 13.322531 10 12.5 C 10 12.11163 9.8300094 11.767646 9.5839844 11.5 C 9.8300094 11.232354 10 10.88837 10 10.5 C 10 9.6774686 9.3225314 9 8.5 9 L 7 9 z M 13 9 L 13 11.5 L 13 12.5 C 13 12.781469 12.781469 13 12.5 13 C 12.218531 13 12 12.781469 12 12.5 L 12 12 L 11 12 L 11 12.5 C 11 13.322531 11.677469 14 12.5 14 C 13.322531 14 14 13.322531 14 12.5 L 14 11.5 L 14 9 L 13 9 z M 4.5 10 C 4.7814686 10 5 10.218531 5 10.5 L 5 12.5 C 5 12.781469 4.7814686 13 4.5 13 C 4.2185314 13 4 12.781469 4 12.5 L 4 10.5 C 4 10.218531 4.2185314 10 4.5 10 z M 8 10 L 8.5 10 C 8.7814686 10 9 10.218531 9 10.5 C 9 10.781469 8.7814686 11 8.5 11 L 8 11 L 8 10 z M 8 12 L 8.5 12 C 8.7814686 12 9 12.218531 9 12.5 C 9 12.781469 8.7814686 13 8.5 13 L 8 13 L 8 12 z"/></svg>