<svg xmlns="http://www.w3.org/2000/svg" width="500" height="500" fill="#000" viewBox="0 0 24 24"><path d="M 5 3 C 3.9069372 3 3 3.9069372 3 5 L 3 15.171875 C 3 15.967284 3.3166015 16.730664 3.8789062 17.292969 L 6.7070312 20.121094 C 7.2693361 20.683398 8.0327162 21 8.828125 21 L 19 21 C 20.093063 21 21 20.093063 21 19 L 21 8.828125 C 21 8.0327162 20.683398 7.269336 20.121094 6.7070312 L 17.292969 3.8789062 C 16.730664 3.3166016 15.967284 3 15.171875 3 L 5 3 z M 6.4140625 5 L 15.171875 5 C 15.436466 5 15.691211 5.1052735 15.878906 5.2929688 L 17.585938 7 L 8.4140625 7 L 6.4140625 5 z M 5 6.4140625 L 7 8.4140625 L 7 17.585938 L 5.2929688 15.878906 C 5.1052735 15.691211 5 15.436466 5 15.171875 L 5 6.4140625 z M 9 9 L 19 9 L 19 19 L 9 19 L 9 9 z"/></svg>