<svg fill="#000000" xmlns="http://www.w3.org/2000/svg" viewBox="0 0 50 50" width="500px" height="500px"><path d="M 24.503906 2 C 20.46875 2 16.550781 3.0625 13.316406 5 L 19 5 C 23.417969 5 29 6.625 29 12 C 29 14.90625 27.96875 18.25 25 20 C 25.355469 20.855469 25.644531 21.269531 26 22 C 26.65625 20.59375 29.125 19.046875 31 19 L 39 19 L 39 26 C 38.882813 26 38.855469 25.980469 38.828125 25.863281 C 38.40625 24.125 35.75 22 32.5 22 C 31 22 30 22.808594 30 24 C 30 25.386719 30.828125 26.023438 32 27 C 33.617188 28.347656 37.253906 30.773438 38.035156 31.234375 C 39.789063 32.261719 41.332031 33.734375 41.832031 35.738281 C 41.976563 36.308594 42.027344 36.902344 41.996094 37.5 L 42 37.5 L 42 38.605469 C 47.789063 31.75 49.484375 19.660156 41.988281 10.371094 C 37.296875 4.554688 30.761719 2 24.503906 2 Z M 25.066406 4.007813 C 31.144531 4.164063 36.585938 6.859375 40.433594 11.628906 C 46.011719 18.542969 45.945313 27.101563 43.003906 33.335938 C 42.171875 31.859375 40.832031 30.558594 39.046875 29.511719 C 38.320313 29.082031 34.804688 26.734375 33.28125 25.464844 L 33.152344 25.359375 C 32.140625 24.515625 32.015625 24.351563 32 24.078125 C 32.085938 24.042969 32.25 24 32.5 24 C 34.980469 24 36.722656 25.660156 36.886719 26.339844 C 37.132813 27.347656 37.960938 28 39 28 L 41 28 L 41 17 L 30.949219 17 C 30.640625 17.011719 30.328125 17.042969 30.015625 17.097656 C 30.660156 15.59375 31 13.867188 31 12 C 31 8.261719 28.796875 5.425781 25.066406 4.007813 Z M 10.714844 6.757813 C 5.570313 10.589844 2.007813 17.082031 2.007813 24 C 2.007813 27.921875 2.835938 31.996094 5.050781 35.847656 C 6.660156 38.648438 8.800781 40.980469 11.425781 42.859375 C 14.042969 44.734375 16.933594 45.980469 20.085938 46.617188 C 21.40625 46.886719 23.265625 47 25 47 C 22.90625 45.625 21 43.40625 21 40 C 21 36.03125 23.742188 34 26 34 C 26.871094 34.023438 28 34.28125 28 35.5 C 28 37.5625 25.644531 38 25 38 C 24.4375 38 24 39.355469 24 40.5 C 24 42.273438 25.359375 43.433594 26.925781 44.160156 C 28.089844 44.703125 29.179688 44.957031 30.28125 44.957031 C 31.257813 44.957031 32.25 44.757813 33.3125 44.375 C 34.347656 44.003906 35.261719 43.410156 35.902344 42.5 C 37.210938 40.640625 37.34375 38.53125 35.796875 36.652344 C 34.9375 35.613281 33.832031 34.71875 32.652344 34.0625 C 30.4375 32.835938 28.570313 31.605469 26.585938 30.011719 C 24.628906 28.4375 22.753906 26.792969 21.257813 24.761719 C 20.171875 23.289063 19.339844 21.695313 18.984375 19.882813 C 18.902344 19.46875 18.902344 19.46875 19.324219 19.40625 C 20.683594 19.203125 21.808594 18.566406 22.664063 17.496094 C 23.789063 16.089844 24 14.832031 24 13 C 24 10.792969 22.472656 8.59375 20.347656 7.527344 C 19.671875 7.1875 18.964844 7.015625 18.246094 7.015625 C 17.828125 7.015625 17.40625 7.070313 16.980469 7.1875 C 16.433594 7.339844 16 7.441406 16 8 L 16 29.5625 C 16 30.871094 16.832031 31.199219 17.980469 31.796875 C 18.070313 31.847656 18.15625 31.894531 18.246094 31.945313 C 18.238281 31.964844 18.234375 31.980469 18.226563 32 L 9.03125 32 C 9.144531 31.878906 9.273438 31.808594 9.398438 31.738281 C 10.214844 31.28125 11 30.523438 11 29.5625 C 11 28.9375 11 8.957031 11 8 C 11 7.679688 10.804688 7.089844 10.714844 6.757813 Z M 18.246094 9.015625 C 18.652344 9.015625 19.046875 9.113281 19.453125 9.3125 C 20.929688 10.054688 22 11.605469 22 13 C 22 14.664063 21.804688 15.363281 21.101563 16.246094 C 20.5625 16.921875 19.902344 17.296875 19.03125 17.425781 C 18.792969 17.460938 18.394531 17.519531 18 17.75 L 18 9.023438 C 18.082031 9.015625 18.164063 9.015625 18.246094 9.015625 Z M 9 11.042969 L 9 29.515625 C 8.949219 29.601563 8.761719 29.804688 8.398438 30.007813 C 8.222656 30.105469 7.894531 30.289063 7.578125 30.625 L 5.679688 32.628906 C 4.570313 29.992188 4.007813 27.101563 4.007813 24 C 4.007813 19.296875 5.859375 14.601563 9 11.042969 Z M 18 23.21875 C 18.429688 24.132813 18.976563 25.039063 19.644531 25.949219 C 21.320313 28.21875 23.367188 29.992188 25.332031 31.566406 C 25.515625 31.714844 25.695313 31.859375 25.878906 32 C 22.476563 32.070313 19 35.050781 19 40 C 19 41.65625 19.367188 43.191406 20.078125 44.574219 C 17.355469 43.964844 14.835938 42.84375 12.589844 41.234375 C 10.183594 39.511719 8.230469 37.363281 6.785156 34.851563 C 6.625 34.570313 6.46875 34.285156 6.320313 34 L 18.226563 34 L 19.625 33.945313 L 20.117188 32.65625 L 20.734375 31.03125 L 19.210938 30.191406 L 19.136719 30.148438 C 19.058594 30.105469 18.984375 30.066406 18.90625 30.027344 L 18.652344 29.890625 C 18.433594 29.78125 18.15625 29.636719 18 29.53125 Z M 29.929688 34.796875 C 30.492188 35.140625 31.070313 35.476563 31.679688 35.8125 C 32.683594 36.371094 33.570313 37.101563 34.25 37.925781 C 34.574219 38.320313 35.558594 39.511719 34.265625 41.347656 C 33.914063 41.847656 33.378906 42.222656 32.632813 42.492188 C 31.761719 42.804688 30.992188 42.957031 30.28125 42.957031 C 29.460938 42.957031 28.664063 42.761719 27.769531 42.347656 C 26.597656 41.800781 26 41.179688 26 40.5 C 26 40.277344 26.027344 40.066406 26.0625 39.890625 C 27.949219 39.503906 30 38.101563 30 35.5 C 30 35.269531 29.976563 35.035156 29.929688 34.796875 Z"/></svg>