<svg xmlns="http://www.w3.org/2000/svg" width="50" height="50" viewBox="0 0 64 64"><path fill="#ef8eb1" d="M21.907,3.457l0.505-0.049c6.377-0.614,12.799-0.614,19.176,0l0.505,0.049 c0.787,0.076,1.456,0.608,1.706,1.358l0.807,2.422c0.562,1.686,1.347,3.29,2.333,4.769l0.995,1.493H16.066l0.995-1.493 c0.986-1.479,1.771-3.083,2.333-4.769l0.807-2.422C20.451,4.065,21.12,3.533,21.907,3.457z"/><path fill="#ed7899" d="M21.907,61.543l0.504,0.049c6.378,0.614,12.8,0.614,19.179,0l0.504-0.049 c0.787-0.076,1.456-0.608,1.706-1.358l0.807-2.422c0.562-1.686,1.347-3.29,2.333-4.769l0.995-1.493H16.066l0.995,1.493 c0.986,1.479,1.771,3.083,2.333,4.769l0.807,2.422C20.451,60.935,21.12,61.467,21.907,61.543z"/><path fill="#c5e4fa" d="M51,19v27c0,4.42-3.58,8-8,8H21c-1.21,0-2.36-0.27-3.39-0.75c-0.94-0.44-1.78-1.06-2.48-1.81 c-1.09-1.18-1.83-2.69-2.06-4.37C13.02,46.72,13,46.36,13,46V19c0-4.42,3.58-8,8-8h22c0.58,0,1.14,0.06,1.68,0.18 c1.09,0.23,2.1,0.69,2.97,1.31c1.26,0.9,2.25,2.16,2.81,3.62C50.81,17.01,51,17.98,51,19z"/><path fill="#ed7899" d="M51,31L51,31V21l0,0c1.657,0,3,1.343,3,3v4C54,29.657,52.657,31,51,31z"/><path fill="#e3f2ff" d="M51.07 19.87v16.06L51 36 32.93 54H21c-1.21 0-2.36-.27-3.39-.75L51 19.94 51.07 19.87zM50.46 16.11L15.13 51.44c-1.09-1.18-1.83-2.69-2.06-4.37l34.58-34.58C48.91 13.39 49.9 14.65 50.46 16.11zM44.68 11.18L12.95 42.91v-5.36L39.5 11H43C43.58 11 44.14 11.06 44.68 11.18z"/><path fill="#56cbf9" d="M31.5 24A4.5 4.5 0 1 0 31.5 33A4.5 4.5 0 1 0 31.5 24Z"/><path fill="#72caaf" d="M25.5 16A2.5 2.5 0 1 0 25.5 21A2.5 2.5 0 1 0 25.5 16Z"/><path fill="#f9dd8f" d="M42 20A3 3 0 1 0 42 26A3 3 0 1 0 42 20Z"/><path fill="#ced8ed" d="M20.5 25A2.5 2.5 0 1 0 20.5 30A2.5 2.5 0 1 0 20.5 25Z"/><path fill="#ed7899" d="M38.5 36A2.5 2.5 0 1 0 38.5 41A2.5 2.5 0 1 0 38.5 36Z"/><path fill="#72caaf" d="M24 34A3 3 0 1 0 24 40A3 3 0 1 0 24 34Z"/><path fill="#8d6c9f" d="M52,20.142V19c0-3.24-1.72-6.08-4.3-7.67c-0.91-1.37-1.63-2.85-2.15-4.41l-0.8-2.42 c-0.38-1.13-1.38-1.92-2.56-2.04l-0.51-0.05c-6.42-0.62-12.94-0.62-19.36,0l-0.51,0.05c-1.18,0.12-2.18,0.92-2.56,2.04l-0.8,2.42 c-0.52,1.56-1.24,3.04-2.15,4.41C13.72,12.92,12,15.76,12,19v26c0,2.71,1.21,5.15,3.11,6.79v0.01c0.03,0.09,0.07,0.17,0.12,0.25 l1,1.5c0.94,1.4,1.68,2.93,2.22,4.53l0.8,2.42c0.38,1.12,1.38,1.92,2.56,2.04l0.5,0.05c3.22,0.31,6.45,0.46,9.69,0.46 s6.47-0.15,9.69-0.46l0.5-0.05c1.18-0.12,2.18-0.91,2.56-2.04l0.8-2.42c0.54-1.6,1.28-3.13,2.22-4.53l1-1.5 c0.05-0.08,0.09-0.16,0.12-0.25v-0.01C50.79,50.15,52,47.71,52,45v-1c0.552,0,1-0.448,1-1v-8c0-0.552-0.448-1-1-1v-2.142 c1.72-0.447,3-2,3-3.858v-4C55,22.142,53.72,20.589,52,20.142z M20.34,7.55l0.81-2.42c0.12-0.37,0.46-0.64,0.85-0.68l0.51-0.05 c6.3-0.6,12.68-0.6,18.98,0L42,4.45c0.39,0.04,0.73,0.31,0.85,0.68l0.81,2.42c0.3,0.9,0.65,1.77,1.07,2.62 C44.17,10.06,43.59,10,43,10H21c-0.59,0-1.17,0.06-1.73,0.17C19.69,9.32,20.04,8.45,20.34,7.55z M43.66,57.45l-0.81,2.42 c-0.12,0.37-0.46,0.64-0.85,0.68l-0.51,0.05c-6.3,0.6-12.68,0.6-18.98,0L22,60.55c-0.39-0.04-0.73-0.31-0.85-0.68l-0.81-2.42 c-0.43-1.3-0.99-2.56-1.67-3.75C19.42,53.89,20.2,54,21,54h22c0.8,0,1.58-0.11,2.33-0.3C44.65,54.89,44.09,56.15,43.66,57.45z M50,45c0,2.23-1.05,4.22-2.68,5.5C46.13,51.44,44.63,52,43,52H21c-1.63,0-3.13-0.56-4.32-1.5C15.05,49.22,14,47.23,14,45V19 c0-1.74,0.64-3.34,1.71-4.57c0.72-0.84,1.64-1.51,2.7-1.93c0.8-0.32,1.67-0.5,2.59-0.5h22c0.92,0,1.79,0.18,2.59,0.5 c1.06,0.42,1.98,1.09,2.7,1.93C49.36,15.66,50,17.26,50,19v2v10v4v8V45z M53,28c0,0.739-0.403,1.385-1,1.731v-7.463 c0.597,0.346,1,0.993,1,1.731V28z"/><path fill="#8d6c9f" d="M40 46c-.552 0-1 .448-1 1v2c0 .552.448 1 1 1s1-.448 1-1v-2C41 46.448 40.552 46 40 46zM45 46c-.552 0-1 .448-1 1v2c0 .552.448 1 1 1s1-.448 1-1v-2C46 46.448 45.552 46 45 46zM35 46c-.552 0-1 .448-1 1v2c0 .552.448 1 1 1s1-.448 1-1v-2C36 46.448 35.552 46 35 46zM30 46c-.552 0-1 .448-1 1v2c0 .552.448 1 1 1s1-.448 1-1v-2C31 46.448 30.552 46 30 46zM25 46c-.552 0-1 .448-1 1v2c0 .552.448 1 1 1s1-.448 1-1v-2C26 46.448 25.552 46 25 46zM20 46c-.552 0-1 .448-1 1v2c0 .552.448 1 1 1s1-.448 1-1v-2C21 46.448 20.552 46 20 46zM26 28.5c0 3.033 2.467 5.5 5.5 5.5s5.5-2.467 5.5-5.5S34.533 23 31.5 23 26 25.467 26 28.5zM31.5 25c1.93 0 3.5 1.57 3.5 3.5S33.43 32 31.5 32 28 30.43 28 28.5 29.57 25 31.5 25zM25.5 22c1.93 0 3.5-1.57 3.5-3.5S27.43 15 25.5 15 22 16.57 22 18.5 23.57 22 25.5 22zM25.5 17c.827 0 1.5.673 1.5 1.5S26.327 20 25.5 20 24 19.327 24 18.5 24.673 17 25.5 17zM42 19c-2.206 0-4 1.794-4 4s1.794 4 4 4 4-1.794 4-4S44.206 19 42 19zM42 25c-1.103 0-2-.897-2-2s.897-2 2-2 2 .897 2 2S43.103 25 42 25zM35 15A2 2 0 1 0 35 19 2 2 0 1 0 35 15zM42 30A2 2 0 1 0 42 34 2 2 0 1 0 42 30zM31 40A2 2 0 1 0 31 44 2 2 0 1 0 31 40zM24 27.5c0-1.93-1.57-3.5-3.5-3.5S17 25.57 17 27.5s1.57 3.5 3.5 3.5S24 29.43 24 27.5zM19 27.5c0-.827.673-1.5 1.5-1.5s1.5.673 1.5 1.5S21.327 29 20.5 29 19 28.327 19 27.5zM38.5 35c-1.93 0-3.5 1.57-3.5 3.5s1.57 3.5 3.5 3.5 3.5-1.57 3.5-3.5S40.43 35 38.5 35zM38.5 40c-.827 0-1.5-.673-1.5-1.5s.673-1.5 1.5-1.5 1.5.673 1.5 1.5S39.327 40 38.5 40zM24 33c-2.206 0-4 1.794-4 4s1.794 4 4 4 4-1.794 4-4S26.206 33 24 33zM24 39c-1.103 0-2-.897-2-2s.897-2 2-2 2 .897 2 2S25.103 39 24 39z"/></svg>