<svg xmlns="http://www.w3.org/2000/svg" width="300" height="300" fill="#000" viewBox="0 0 50 50"><path d="M 0.8125 0 C 0.78125 0.0078125 0.75 0.0195313 0.71875 0.03125 C 0.6875 0.0390625 0.65625 0.0507813 0.625 0.0625 C 0.59375 0.0703125 0.5625 0.0820313 0.53125 0.09375 C 0.519531 0.105469 0.511719 0.113281 0.5 0.125 C 0.480469 0.132813 0.457031 0.144531 0.4375 0.15625 C 0.425781 0.167969 0.417969 0.175781 0.40625 0.1875 C 0.386719 0.195313 0.363281 0.207031 0.34375 0.21875 C 0.34375 0.230469 0.34375 0.238281 0.34375 0.25 C 0.324219 0.257813 0.300781 0.269531 0.28125 0.28125 C 0.269531 0.292969 0.261719 0.300781 0.25 0.3125 C 0.238281 0.324219 0.230469 0.332031 0.21875 0.34375 C 0.207031 0.363281 0.195313 0.386719 0.1875 0.40625 C 0.175781 0.417969 0.167969 0.425781 0.15625 0.4375 C 0.15625 0.449219 0.15625 0.457031 0.15625 0.46875 C 0.132813 0.488281 0.113281 0.507813 0.09375 0.53125 C 0.09375 0.542969 0.09375 0.550781 0.09375 0.5625 C 0.0820313 0.574219 0.0742188 0.582031 0.0625 0.59375 C 0.0625 0.613281 0.0625 0.636719 0.0625 0.65625 C 0.0507813 0.667969 0.0429688 0.675781 0.03125 0.6875 C 0.03125 0.707031 0.03125 0.730469 0.03125 0.75 C 0.0195313 0.761719 0.0117188 0.769531 0 0.78125 C 0 0.800781 0 0.824219 0 0.84375 C -0.0195313 0.957031 -0.0195313 1.074219 0 1.1875 L 0 35 C 0 35.242188 0.0898438 35.476563 0.25 35.65625 L 12.1875 49.5625 C 12.238281 49.644531 12.300781 49.71875 12.375 49.78125 C 12.386719 49.78125 12.394531 49.78125 12.40625 49.78125 C 12.445313 49.828125 12.484375 49.867188 12.53125 49.90625 C 12.542969 49.90625 12.550781 49.90625 12.5625 49.90625 C 12.582031 49.917969 12.605469 49.929688 12.625 49.9375 C 12.636719 49.9375 12.644531 49.9375 12.65625 49.9375 C 12.675781 49.949219 12.699219 49.960938 12.71875 49.96875 C 12.730469 49.96875 12.738281 49.96875 12.75 49.96875 C 12.8125 49.984375 12.875 49.996094 12.9375 50 C 12.957031 50 12.980469 50 13 50 C 13.019531 50 13.042969 50 13.0625 50 L 49 50 C 49.550781 50 50 49.550781 50 49 L 50 13.0625 C 50 13.042969 50 13.019531 50 13 C 50 12.988281 50 12.980469 50 12.96875 C 50 12.949219 50 12.925781 50 12.90625 C 50 12.894531 50 12.886719 50 12.875 C 49.992188 12.855469 49.980469 12.832031 49.96875 12.8125 C 49.96875 12.800781 49.96875 12.792969 49.96875 12.78125 C 49.960938 12.75 49.949219 12.71875 49.9375 12.6875 C 49.9375 12.675781 49.9375 12.667969 49.9375 12.65625 C 49.925781 12.644531 49.917969 12.636719 49.90625 12.625 C 49.90625 12.613281 49.90625 12.605469 49.90625 12.59375 C 49.886719 12.550781 49.867188 12.507813 49.84375 12.46875 C 49.835938 12.449219 49.824219 12.425781 49.8125 12.40625 C 49.792969 12.382813 49.773438 12.363281 49.75 12.34375 C 49.730469 12.320313 49.710938 12.300781 49.6875 12.28125 C 49.675781 12.269531 49.667969 12.261719 49.65625 12.25 L 49.59375 12.1875 C 49.554688 12.152344 49.511719 12.121094 49.46875 12.09375 L 35.65625 0.25 C 35.476563 0.0898438 35.242188 0 35 0 L 1 0 C 0.96875 0 0.9375 0 0.90625 0 C 0.875 0 0.84375 0 0.8125 0 Z M 3.4375 2 L 34.625 2 L 46.3125 12 L 13.4375 12 Z M 2 3.4375 L 12 13.4375 L 12 46.3125 L 2 34.625 Z M 14 14 L 48 14 L 48 48 L 14 48 Z"/></svg>