<svg xmlns="http://www.w3.org/2000/svg" width="500" height="500" viewBox="0 0 100 100"><path fill="#c7ede6" d="M88.366,56.546c0.3-0.616,0.566-1.264,0.796-1.943c2.633-7.77-1.349-17.078-9.733-19.325c-0.906-11.384-8.906-19.193-17.941-20.526c-10.341-1.525-19.814,5.044-22.966,15.485c-3.799-1.346-7.501-1.182-10.99,0.857c-1.583,0.732-3.031,1.812-4.33,3.233c-1.907,2.086-3.147,4.719-3.652,7.495c-0.748,0.118-1.483,0.236-2.176,0.484c-4.04,1.449-6.589,4.431-7.288,8.923c-0.435,2.797,0.443,5.587,0.933,6.714c1.935,4.455,6.422,6.98,10.981,6.312c0.227-0.033,0.557,0.069,0.752,0.233c0.241,7.12,3.698,13.417,8.884,17.014c8.321,5.772,19.027,3.994,25.781-3.921c2.894,2.96,6.338,4.398,10.384,3.876c4.023-0.519,7.147-2.739,9.426-6.349c1.053,0.283,2.051,0.691,3.083,0.804c4.042,0.442,7.324-1.165,9.732-4.8c0.922-1.391,1.793-3.194,1.793-6.354C91.836,61.503,90.543,58.536,88.366,56.546z"/><path fill="#fdfcef" d="M75.63,57.346c0,0,11.691,0,11.762,0c2.7,0,4.888-2.189,4.888-4.889c0-2.355-1.666-4.321-3.884-4.784c0.026-0.206,0.043-0.415,0.043-0.628c0-2.796-2.267-5.063-5.063-5.063c-1.651,0-3.113,0.794-4.037,2.017c-0.236-3.113-3.017-5.514-6.27-5.116c-2.379,0.291-4.346,2.13-4.784,4.486c-0.14,0.756-0.126,1.489,0.014,2.177c-0.638-0.687-1.546-1.119-2.557-1.119c-1.85,0-3.361,1.441-3.48,3.261c-0.84-0.186-1.754-0.174-2.717,0.188c-1.84,0.691-3.15,2.423-3.227,4.387c-0.109,2.789,2.12,5.085,4.885,5.085c0.21,0,0.948,0,1.118,0h10.151"/><path fill="#472b29" d="M87.392,57.846H75.63c-0.276,0-0.5-0.224-0.5-0.5s0.224-0.5,0.5-0.5h11.762c2.42,0,4.389-1.969,4.389-4.389c0-2.066-1.466-3.872-3.486-4.295c-0.254-0.053-0.425-0.292-0.394-0.551c0.023-0.186,0.039-0.374,0.039-0.566c0-2.517-2.047-4.563-4.563-4.563c-1.438,0-2.765,0.663-3.638,1.818c-0.125,0.165-0.338,0.237-0.54,0.178c-0.199-0.059-0.342-0.234-0.357-0.441c-0.104-1.377-0.779-2.671-1.85-3.549c-1.083-0.888-2.457-1.283-3.86-1.109c-2.166,0.266-3.956,1.943-4.353,4.081c-0.125,0.668-0.12,1.336,0.012,1.986c0.045,0.22-0.062,0.441-0.261,0.544c-0.199,0.104-0.443,0.06-0.595-0.104c-0.575-0.618-1.353-0.959-2.19-0.959c-1.569,0-2.878,1.228-2.981,2.795c-0.01,0.146-0.083,0.279-0.199,0.367c-0.117,0.087-0.266,0.117-0.408,0.088c-0.828-0.183-1.646-0.127-2.432,0.167c-1.669,0.627-2.836,2.209-2.903,3.938c-0.047,1.207,0.387,2.35,1.222,3.218s1.958,1.347,3.163,1.347h11.269c0.276,0,0.5,0.224,0.5,0.5s-0.224,0.5-0.5,0.5H61.205c-1.479,0-2.858-0.587-3.884-1.653s-1.558-2.469-1.5-3.95c0.083-2.126,1.51-4.069,3.551-4.835c0.802-0.302,1.629-0.399,2.467-0.3c0.377-1.822,1.998-3.182,3.905-3.182c0.684,0,1.354,0.18,1.944,0.51c0-0.386,0.035-0.772,0.107-1.159c0.476-2.562,2.62-4.573,5.215-4.891c1.678-0.205,3.32,0.266,4.616,1.328c1.003,0.823,1.716,1.951,2.038,3.193c1.012-0.916,2.319-1.426,3.714-1.426c3.067,0,5.563,2.496,5.563,5.563c0,0.083-0.002,0.166-0.007,0.248c2.254,0.674,3.848,2.777,3.848,5.164C92.781,55.429,90.363,57.846,87.392,57.846z"/><path fill="#fdfcef" d="M89.372,48.246c-1.699-0.801-3.664-0.234-4.389,1.267c-0.09,0.186-0.157,0.379-0.201,0.574"/><path fill="#472b29" d="M84.782,50.336c-0.018,0-0.037-0.002-0.056-0.006c-0.135-0.031-0.219-0.165-0.188-0.3c0.049-0.217,0.124-0.428,0.22-0.627c0.783-1.62,2.902-2.241,4.72-1.384c0.125,0.06,0.179,0.208,0.12,0.333c-0.059,0.126-0.21,0.176-0.333,0.12c-1.574-0.744-3.394-0.228-4.057,1.148c-0.08,0.166-0.142,0.341-0.183,0.521C84.999,50.258,84.896,50.336,84.782,50.336z"/><path fill="#fff" d="M18.031 48.582H8c-.276 0-.5-.224-.5-.5s.224-.5.5-.5h10.031c.276 0 .5.224.5.5S18.308 48.582 18.031 48.582zM20.912 48.582h-1.446c-.276 0-.5-.224-.5-.5s.224-.5.5-.5h1.446c.276 0 .5.224.5.5S21.188 48.582 20.912 48.582zM24.967 48.582h-2.546c-.276 0-.5-.224-.5-.5s.224-.5.5-.5h2.546c.276 0 .5.224.5.5S25.243 48.582 24.967 48.582zM24.967 50.447h-9.616c-.276 0-.5-.224-.5-.5s.224-.5.5-.5h9.616c.276 0 .5.224.5.5S25.243 50.447 24.967 50.447zM13.619 50.447h-.58c-.276 0-.5-.224-.5-.5s.224-.5.5-.5h.58c.276 0 .5.224.5.5S13.895 50.447 13.619 50.447zM11.242 50.447H9.786c-.276 0-.5-.224-.5-.5s.224-.5.5-.5h1.457c.276 0 .5.224.5.5S11.519 50.447 11.242 50.447zM20.378 46.717h-5.027c-.276 0-.5-.224-.5-.5s.224-.5.5-.5h5.027c.276 0 .5.224.5.5S20.654 46.717 20.378 46.717zM20.378 44.852h-1.257c-.276 0-.5-.224-.5-.5s.224-.5.5-.5h1.257c.276 0 .5.224.5.5S20.654 44.852 20.378 44.852zM17.109 52.312h-1.758c-.276 0-.5-.224-.5-.5s.224-.5.5-.5h1.758c.276 0 .5.224.5.5S17.385 52.312 17.109 52.312zM71.209 22.305H61.178c-.276 0-.5-.224-.5-.5s.224-.5.5-.5h10.031c.276 0 .5.224.5.5S71.485 22.305 71.209 22.305zM74.09 22.305h-1.446c-.276 0-.5-.224-.5-.5s.224-.5.5-.5h1.446c.276 0 .5.224.5.5S74.366 22.305 74.09 22.305zM78.145 22.305h-2.546c-.276 0-.5-.224-.5-.5s.224-.5.5-.5h2.546c.276 0 .5.224.5.5S78.421 22.305 78.145 22.305zM76.119 18.576h-9.616c-.276 0-.5-.224-.5-.5s.224-.5.5-.5h9.616c.276 0 .5.224.5.5S76.395 18.576 76.119 18.576zM64.771 18.576h-.58c-.276 0-.5-.224-.5-.5s.224-.5.5-.5h.58c.276 0 .5.224.5.5S65.047 18.576 64.771 18.576zM62.394 18.576h-1.456c-.276 0-.5-.224-.5-.5s.224-.5.5-.5h1.456c.276 0 .5.224.5.5S62.67 18.576 62.394 18.576zM73.556 20.44h-5.027c-.276 0-.5-.224-.5-.5s.224-.5.5-.5h5.027c.276 0 .5.224.5.5S73.832 20.44 73.556 20.44z"/><path fill="#fff" d="M73.556 18.576h-1.257c-.276 0-.5-.224-.5-.5s.224-.5.5-.5h1.257c.276 0 .5.224.5.5S73.832 18.576 73.556 18.576zM67.073 20.44h-1.759c-.276 0-.5-.224-.5-.5s.224-.5.5-.5h1.759c.276 0 .5.224.5.5S67.35 20.44 67.073 20.44z"/><path fill="#ee3e54" d="M71.676,44.201H32.324c-1.663,0-3.023,1.673-3.023,3.717v1.173c0,1.613,0.852,2.981,2.027,3.492l2.39,13.088c0.501,2.007,0.88,3.673,1.955,3.673h32.784c1.075,0,1.664-1.759,1.955-3.673l2.264-13.089c1.172-0.513,2.022-1.879,2.022-3.49v-1.173C74.699,45.874,73.339,44.201,71.676,44.201z"/><path fill="#472b29" d="M68.457,70.044H35.673c-1.587,0-2.05-1.856-2.585-4.006l-0.049-0.197L30.701,53.05c-1.27-0.732-2.101-2.272-2.101-3.959v-1.173c0-2.436,1.67-4.417,3.724-4.417h39.352c2.053,0,3.724,1.981,3.724,4.417v1.173c0,1.682-0.827,3.219-2.092,3.954L71.103,65.79C70.673,68.609,69.783,70.044,68.457,70.044z M32.324,44.902c-1.259,0-2.323,1.381-2.323,3.017v1.173c0,1.287,0.645,2.433,1.606,2.851c0.214,0.093,0.367,0.286,0.409,0.516l2.43,13.243c0.327,1.312,0.734,2.943,1.227,2.943h32.784c0.275,0,0.893-0.644,1.264-3.078l2.266-13.104c0.04-0.231,0.194-0.428,0.41-0.522c0.958-0.419,1.603-1.563,1.603-2.849v-1.173c0-1.636-1.064-3.017-2.323-3.017H32.324z"/><path fill="#472b29" d="M66.667,44.352c-0.276,0-0.5-0.224-0.5-0.5V33.423c0-2.446-1.99-4.437-4.437-4.437H42.27c-2.446,0-4.437,1.99-4.437,4.437v10.429c0,0.276-0.224,0.5-0.5,0.5s-0.5-0.224-0.5-0.5V33.423c0-2.998,2.439-5.437,5.437-5.437H61.73c2.998,0,5.437,2.438,5.437,5.437v10.429C67.167,44.128,66.943,44.352,66.667,44.352z"/><path fill="#f1bc19" d="M59.334,29.883H43.968c-0.768,0-1.397-0.629-1.397-1.397v0c0-0.768,0.629-1.397,1.397-1.397h15.365c0.768,0,1.397,0.629,1.397,1.397v0C60.73,29.255,60.102,29.883,59.334,29.883z"/><path fill="#472b29" d="M59.333 30.583H43.968c-1.156 0-2.097-.94-2.097-2.097s.941-2.098 2.097-2.098h15.365c1.156 0 2.097.941 2.097 2.098S60.49 30.583 59.333 30.583zM43.968 27.789c-.384 0-.697.312-.697.697 0 .384.312.696.697.696h15.365c.384 0 .697-.312.697-.696 0-.385-.312-.697-.697-.697H43.968zM69.461 52.537H66.41c-.193 0-.35-.156-.35-.35s.157-.35.35-.35h3.051c.193 0 .35.156.35.35S69.654 52.537 69.461 52.537zM64.121 52.537h-.763c-.193 0-.35-.156-.35-.35s.157-.35.35-.35h.763c.193 0 .35.156.35.35S64.314 52.537 64.121 52.537zM61.07 52.537H30.557c-.193 0-.35-.156-.35-.35s.157-.35.35-.35H61.07c.193 0 .35.156.35.35S61.263 52.537 61.07 52.537z"/><path fill="#a01c32" d="M40.059,66.202L40.059,66.202c-0.768,0-1.397-0.629-1.397-1.397v-8.157c0-0.768,0.629-1.397,1.397-1.397h0c0.768,0,1.397,0.629,1.397,1.397v8.157C41.456,65.573,40.828,66.202,40.059,66.202z"/><path fill="#472b29" d="M40.06,66.551c-0.963,0-1.747-0.783-1.747-1.746v-8.157c0-0.963,0.784-1.746,1.747-1.746c0.963,0,1.747,0.783,1.747,1.746v8.157C41.806,65.768,41.022,66.551,40.06,66.551z M40.06,55.601c-0.577,0-1.047,0.47-1.047,1.047v8.157c0,0.577,0.47,1.047,1.047,1.047s1.046-0.47,1.046-1.047v-8.157C41.106,56.071,40.637,55.601,40.06,55.601z"/><path fill="#a01c32" d="M48.377,66.202L48.377,66.202c-0.768,0-1.397-0.629-1.397-1.397v-8.157c0-0.768,0.629-1.397,1.397-1.397l0,0c0.768,0,1.397,0.629,1.397,1.397v8.157C49.774,65.573,49.145,66.202,48.377,66.202z"/><path fill="#472b29" d="M48.377,66.551c-0.963,0-1.747-0.783-1.747-1.746v-8.157c0-0.964,0.784-1.747,1.747-1.747c0.963,0,1.747,0.783,1.747,1.747v8.157C50.124,65.768,49.34,66.551,48.377,66.551z M48.377,55.6c-0.577,0-1.046,0.471-1.046,1.048v8.157c0,0.577,0.469,1.047,1.046,1.047s1.047-0.47,1.047-1.047v-8.157C49.424,56.071,48.954,55.6,48.377,55.6z"/><path fill="#a01c32" d="M65.013,66.202L65.013,66.202c-0.768,0-1.397-0.629-1.397-1.397v-8.157c0-0.768,0.629-1.397,1.397-1.397h0c0.768,0,1.397,0.629,1.397,1.397v8.157C66.409,65.573,65.781,66.202,65.013,66.202z"/><path fill="#472b29" d="M65.013,66.551c-0.963,0-1.747-0.783-1.747-1.746v-8.157c0-0.963,0.784-1.746,1.747-1.746s1.747,0.783,1.747,1.746v8.157C66.76,65.768,65.976,66.551,65.013,66.551z M65.013,55.601c-0.577,0-1.047,0.47-1.047,1.047v8.157c0,0.577,0.47,1.047,1.047,1.047s1.047-0.47,1.047-1.047v-8.157C66.06,56.071,65.59,55.601,65.013,55.601z"/><path fill="#a01c32" d="M56.695,66.202L56.695,66.202c-0.768,0-1.397-0.629-1.397-1.397v-8.157c0-0.768,0.629-1.397,1.397-1.397h0c0.768,0,1.397,0.629,1.397,1.397v8.157C58.092,65.573,57.463,66.202,56.695,66.202z"/><path fill="#472b29" d="M56.695,66.552c-0.963,0-1.747-0.783-1.747-1.747v-8.157c0-0.963,0.784-1.746,1.747-1.746s1.747,0.783,1.747,1.746v8.157C58.442,65.769,57.658,66.552,56.695,66.552z M56.695,55.601c-0.577,0-1.047,0.47-1.047,1.047v8.157c0,0.577,0.47,1.048,1.047,1.048s1.047-0.471,1.047-1.048v-8.157C57.742,56.071,57.272,55.601,56.695,55.601z"/><path fill="#e1e0d8" d="M33.142 47.323A0.698 0.698 0 1 0 33.142 48.719A0.698 0.698 0 1 0 33.142 47.323Z"/><path fill="#472b29" d="M33.143,48.92c-0.496,0-0.899-0.403-0.899-0.898c0-0.496,0.403-0.899,0.899-0.899c0.495,0,0.898,0.403,0.898,0.899C34.041,48.517,33.638,48.92,33.143,48.92z M33.143,47.523c-0.275,0-0.499,0.224-0.499,0.499c0,0.274,0.224,0.498,0.499,0.498s0.498-0.224,0.498-0.498C33.641,47.746,33.417,47.523,33.143,47.523z"/><path fill="#e1e0d8" d="M70.858 47.323A0.698 0.698 0 1 0 70.858 48.719A0.698 0.698 0 1 0 70.858 47.323Z"/><path fill="#472b29" d="M70.857,48.92c-0.495,0-0.898-0.403-0.898-0.898c0-0.496,0.403-0.899,0.898-0.899c0.496,0,0.899,0.403,0.899,0.899C71.756,48.517,71.353,48.92,70.857,48.92z M70.857,47.523c-0.275,0-0.498,0.224-0.498,0.499c0,0.274,0.223,0.498,0.498,0.498s0.499-0.224,0.499-0.498C71.356,47.746,71.132,47.523,70.857,47.523z"/><path fill="#fdfcef" d="M41.868,75.806c1.883,0,3.517,0,3.54,0c2.11,0,3.821-1.674,3.821-3.739c0-1.802-1.302-3.305-3.035-3.66c0.02-0.158,0.034-0.317,0.034-0.48c0-2.139-1.772-3.873-3.957-3.873c-1.29,0-2.433,0.607-3.155,1.543c-0.185-2.381-2.358-4.218-4.9-3.913c-1.859,0.223-3.397,1.629-3.739,3.431c-0.11,0.578-0.098,1.139,0.011,1.665c-0.498-0.525-1.208-0.856-1.998-0.856c-1.446,0-2.627,1.102-2.72,2.494c-0.657-0.142-1.371-0.133-2.123,0.143c-1.438,0.528-2.462,1.853-2.522,3.356c-0.085,2.133,1.657,3.889,3.818,3.889c0.164,0,0.741,0,0.874,0h7.934 M35.391,75.806h0.36"/><path fill="#472b29" d="M45.408,76.306h-3.54c-0.276,0-0.5-0.224-0.5-0.5s0.224-0.5,0.5-0.5h3.54c1.831,0,3.321-1.453,3.321-3.239c0-1.524-1.108-2.857-2.636-3.169c-0.256-0.053-0.429-0.294-0.396-0.553c0.018-0.138,0.03-0.276,0.03-0.418c0-1.86-1.551-3.373-3.457-3.373c-1.091,0-2.097,0.491-2.76,1.348c-0.126,0.164-0.34,0.23-0.539,0.174c-0.198-0.06-0.339-0.234-0.355-0.44c-0.079-1.02-0.565-1.944-1.369-2.604c-0.829-0.68-1.883-0.979-2.973-0.853c-1.646,0.197-3.006,1.442-3.307,3.027c-0.094,0.495-0.091,0.99,0.009,1.472c0.045,0.219-0.06,0.441-0.258,0.545c-0.197,0.103-0.44,0.063-0.594-0.1c-0.428-0.451-1.009-0.7-1.635-0.7c-1.169,0-2.145,0.891-2.221,2.028c-0.01,0.146-0.082,0.279-0.198,0.366s-0.263,0.121-0.407,0.089c-0.638-0.137-1.242-0.099-1.845,0.124c-1.262,0.463-2.144,1.632-2.195,2.906c-0.035,0.875,0.283,1.708,0.895,2.345c0.635,0.66,1.496,1.024,2.423,1.024h8.807c0.276,0,0.5,0.224,0.5,0.5s-0.224,0.5-0.5,0.5h-8.807c-1.185,0-2.331-0.485-3.145-1.332c-0.802-0.834-1.219-1.927-1.173-3.076c0.067-1.675,1.212-3.205,2.849-3.807c0.61-0.225,1.242-0.304,1.88-0.243c0.344-1.396,1.629-2.425,3.135-2.425c0.493,0,0.977,0.113,1.414,0.323c0.009-0.242,0.037-0.484,0.083-0.727c0.381-2.009,2.096-3.585,4.17-3.833c1.364-0.168,2.685,0.218,3.726,1.071c0.748,0.613,1.278,1.409,1.546,2.303c0.791-0.648,1.786-1.007,2.842-1.007c2.458,0,4.457,1.962,4.457,4.373c0,0.034,0,0.068-0.001,0.103c1.764,0.555,3.003,2.188,3.003,4.037C49.729,74.405,47.791,76.306,45.408,76.306z M35.75,76.306h-0.36c-0.276,0-0.5-0.224-0.5-0.5s0.224-0.5,0.5-0.5h0.36c0.276,0,0.5,0.224,0.5,0.5S36.027,76.306,35.75,76.306z"/><path fill="#472b29" d="M43.701 70.503c-.018 0-.036-.002-.054-.006-.135-.03-.22-.164-.19-.299.037-.164.094-.325.17-.479.604-1.225 2.274-1.678 3.722-1.006.125.058.18.206.122.331-.059.126-.207.181-.332.122-1.204-.556-2.578-.209-3.063.773-.058.118-.102.242-.13.368C43.919 70.424 43.815 70.503 43.701 70.503zM38.542 76.306h-1.107c-.276 0-.5-.224-.5-.5s.224-.5.5-.5h1.107c.276 0 .5.224.5.5S38.818 76.306 38.542 76.306z"/><path fill="#fdfcee" d="M70.472 53.422A10.429 10.429 0 1 0 70.472 74.28A10.429 10.429 0 1 0 70.472 53.422Z"/><path fill="#472b29" d="M70.472,74.781c-6.027,0-10.93-4.903-10.93-10.93s4.903-10.93,10.93-10.93s10.93,4.903,10.93,10.93S76.499,74.781,70.472,74.781z M70.472,53.921c-5.475,0-9.93,4.454-9.93,9.93s4.455,9.93,9.93,9.93s9.93-4.454,9.93-9.93S75.947,53.921,70.472,53.921z"/><path fill="#93bc39" d="M70.472 55.378A8.473 8.473 0 1 0 70.472 72.324A8.473 8.473 0 1 0 70.472 55.378Z"/><path fill="#472b29" d="M70.472,72.65c-4.852,0-8.799-3.947-8.799-8.799s3.947-8.799,8.799-8.799s8.799,3.947,8.799,8.799S75.323,72.65,70.472,72.65z M70.472,55.703c-4.493,0-8.148,3.655-8.148,8.148s3.655,8.148,8.148,8.148s8.148-3.655,8.148-8.148S74.965,55.703,70.472,55.703z"/><path fill="#fdfcee" d="M74.104,63.548h-3.33v-3.33c0-0.166-0.136-0.303-0.303-0.303s-0.303,0.136-0.303,0.303v3.33h-3.33c-0.166,0-0.303,0.136-0.303,0.303c0,0.166,0.136,0.303,0.303,0.303h3.33v3.33c0,0.166,0.136,0.303,0.303,0.303s0.303-0.136,0.303-0.303v-3.33h3.33c0.166,0,0.303-0.136,0.303-0.303C74.407,63.684,74.271,63.548,74.104,63.548z"/><path fill="#472b29" d="M70.472,59.916c0.166,0,0.303,0.136,0.303,0.303v3.33h3.33c0.166,0,0.303,0.136,0.303,0.303c0,0.167-0.136,0.303-0.303,0.303h-3.33v3.33c0,0.167-0.136,0.303-0.303,0.303s-0.303-0.136-0.303-0.303v-3.33h-3.33c-0.166,0-0.303-0.136-0.303-0.303c0-0.167,0.136-0.303,0.303-0.303h3.33v-3.33C70.169,60.052,70.305,59.916,70.472,59.916 M70.472,59.266c-0.525,0-0.953,0.427-0.953,0.953v2.68h-2.68c-0.525,0-0.953,0.427-0.953,0.953c0,0.525,0.427,0.953,0.953,0.953h2.68v2.68c0,0.525,0.427,0.953,0.953,0.953s0.953-0.427,0.953-0.953v-2.68h2.68c0.525,0,0.953-0.427,0.953-0.953c0-0.525-0.427-0.953-0.953-0.953h-2.68v-2.68C71.424,59.693,70.997,59.266,70.472,59.266L70.472,59.266z"/></svg>