<svg xmlns="http://www.w3.org/2000/svg" width="50" height="50" fill="#000" viewBox="0 0 50 50"><path d="M 25 0 C 15.285156 0 7.277344 6.890625 7.03125 15.59375 C 7.011719 15.730469 7 15.859375 7 16 C 6.996094 16.09375 7.007813 16.191406 7.03125 16.28125 C 7.421875 20.640625 16.464844 23 25 23 C 33.539063 23 42.578125 20.640625 42.96875 16.28125 C 42.96875 16.261719 42.96875 16.238281 42.96875 16.21875 C 42.96875 16.195313 43 16.179688 43 16.15625 C 43.003906 16.105469 43.003906 16.050781 43 16 C 43 15.859375 42.988281 15.730469 42.96875 15.59375 C 42.722656 6.890625 34.714844 0 25 0 Z M 25 2 C 32.410156 2 38.542969 6.367188 40.40625 12.25 C 37.039063 10.121094 30.894531 9 25 9 C 19.105469 9 12.960938 10.121094 9.59375 12.25 C 11.457031 6.367188 17.589844 2 25 2 Z M 7 20.3125 L 7 41 C 7 46.046875 14.90625 50 25 50 C 35.09375 50 43 46.046875 43 41 L 43 20.3125 C 39.15625 23.90625 30.613281 25 25 25 C 19.386719 25 10.84375 23.90625 7 20.3125 Z M 14 30.21875 C 14 30.21875 19.136719 32 25 32 C 30.863281 32 36 30.21875 36 30.21875 L 36 39.5625 C 36 39.5625 31.789063 42 25 42 C 18.210938 42 14 39.5625 14 39.5625 Z"/></svg>