<svg xmlns="http://www.w3.org/2000/svg" width="500" height="500" viewBox="0 0 48 48"><path fill="#607D8B" d="M21.998,40c0,0-2.214-4-8-4s-8,4-8,4v2h16V40z"/><path fill="#FF9800" d="M15.999,33.018h-4v3c0,0-0.124,2,1.959,2s2.041-2,2.041-2V33.018z"/><path fill="#FFB74D" d="M13.998,35.018c-2.758,0-5-2.243-5-5s2.242-5,5-5s5,2.243,5,5S16.755,35.018,13.998,35.018"/><path fill="#424242" d="M13.779,23.018c-2.438,0.219-4.781,1.93-4.781,5.574v1.426l1,1v-3l6.31-2.201l1.69,2.201v3l1-1v-1.202c0-2.414-0.135-4.206-3-4.798l-0.485-1H13.779z"/><path fill="#FFB74D" d="M42.063,25.188l-1.06-5.906v-0.001l-0.529-2.951c-0.418-2.338-1.955-4.19-3.959-5.117L35.645,5H23.608l1.196,7.103c-1.554,0.696-3.196,1.747-4.374,3.342c-2.971,4.018-5.333,4.306-5.908,4.633c-0.574,0.329-1.532,1.775-0.62,2.943c0.912,1.17,2.049,1.139,3.119,0.702c1-0.407,2.255-0.688,4.966-2.853l0.669,3.734c0.001,0.005,0.002,0.009,0.002,0.013l0.88,4.909c0.195,1.087,1.234,1.811,2.321,1.616c1.088-0.196,1.811-1.235,1.616-2.321c-0.05-0.273,0.132-0.533,0.403-0.581c0.272-0.049,0.531,0.132,0.58,0.403l0.178,0.985c0.194,1.087,1.234,1.81,2.32,1.615c1.088-0.195,1.811-1.234,1.616-2.322c-0.048-0.271,0.132-0.531,0.404-0.579c0.271-0.05,0.531,0.131,0.58,0.402c0.194,1.088,1.234,1.812,2.321,1.615c1.088-0.194,1.811-1.233,1.616-2.321l-0.269-1.494c-0.046-0.271,0.134-0.528,0.404-0.577c0.492-0.089,0.585,0.258,0.585,0.258c0.073,0.409,0.384,0.751,0.724,0.947c0.423,0.299,0.959,0.437,1.508,0.338C41.535,27.315,42.258,26.275,42.063,25.188z"/></svg>