<svg xmlns="http://www.w3.org/2000/svg" width="100" height="100" viewBox="0 0 48 48"><path fill="none" d="M0 0H48V48H0z" opacity=".06"/><path fill="#FFA726" d="M14 27c0 2.209-1.791 4-4 4s-4-1.791-4-4 1.791-4 4-4S14 24.791 14 27M42 27c0 2.209-1.791 4-4 4s-4-1.791-4-4 1.791-4 4-4S42 24.791 42 27"/><path fill="#FFB74D" d="M9,20c0-12.725,30-8.284,30,0v10c0,8.284-6.716,15-15,15S9,38.284,9,30V20z"/><path fill="#424242" d="M40.891,19.338C40.417,13.365,38.13,7.949,30.8,6.467L29.102,3H24C14.772,3,7,10.48,7,21v3.4l3,3.6v-6l21-7l7,6v7l3-3.6V21C41,20.436,40.957,19.883,40.891,19.338"/><path fill="#E64A19" d="M33 38.885L30.675 43.394 14.304 36.131 16.629 31.623z"/><path fill="#FF5722" d="M31.69 31.68L33.921 36.233 17.229 43.258 15 38.704z"/><g><path fill="#784719" d="M33 28c0 1.105-.895 2-2 2s-2-.895-2-2 .895-2 2-2S33 26.895 33 28M19 28c0 1.105-.895 2-2 2s-2-.895-2-2 .895-2 2-2S19 26.895 19 28"/></g></svg>