<svg xmlns="http://www.w3.org/2000/svg" width="500" height="500" viewBox="0 0 24 24"><path d="M20 8L20 20 8 20 4 16 4 4 16 4z" opacity=".3"/><path d="M8,21c-0.6,0-1-0.4-1-1V8c0-0.6,0.4-1,1-1c0.6,0,1,0.4,1,1v12C9,20.6,8.6,21,8,21z"/><path d="M20,9H8C7.7,9,7.5,8.9,7.3,8.7l-4-4c-0.4-0.4-0.4-1,0-1.4c0.4-0.4,1-0.4,1.4,0L8.4,7H20c0.6,0,1,0.4,1,1C21,8.6,20.6,9,20,9 z"/><path d="M20,21H8c-0.3,0-0.5-0.1-0.7-0.3l-4-4C3.1,16.5,3,16.3,3,16V4c0-0.6,0.4-1,1-1h12c0.3,0,0.5,0.1,0.7,0.3l4,4 C20.9,7.5,21,7.7,21,8v12C21,20.6,20.6,21,20,21z M8.4,19H19V8.4L15.6,5H5v10.6L8.4,19z"/></svg>