<svg xmlns="http://www.w3.org/2000/svg" width="300" height="300" fill="#000" viewBox="0 0 50 50"><path d="M 49.984375 12.914063 C 49.976563 12.828125 49.960938 12.746094 49.933594 12.667969 C 49.917969 12.628906 49.902344 12.59375 49.886719 12.558594 C 49.851563 12.488281 49.804688 12.421875 49.75 12.359375 C 49.726563 12.328125 49.703125 12.300781 49.679688 12.273438 C 49.667969 12.261719 49.660156 12.25 49.648438 12.238281 L 48.785156 11.5 C 48.777344 11.496094 48.777344 11.488281 48.769531 11.480469 L 35.941406 0.480469 C 35.921875 0.464844 35.898438 0.453125 35.878906 0.4375 L 35.648438 0.242188 C 35.46875 0.0859375 35.238281 0 35 0 L 1 0 C 0.984375 0 0.96875 0.0078125 0.953125 0.0078125 C 0.902344 0.0078125 0.855469 0.0195313 0.808594 0.0273438 C 0.757813 0.0390625 0.710938 0.046875 0.664063 0.0664063 C 0.648438 0.0703125 0.632813 0.0703125 0.617188 0.0742188 C 0.585938 0.0898438 0.5625 0.109375 0.535156 0.125 C 0.492188 0.148438 0.445313 0.171875 0.40625 0.203125 C 0.367188 0.230469 0.332031 0.265625 0.300781 0.300781 C 0.265625 0.332031 0.230469 0.367188 0.203125 0.40625 C 0.171875 0.445313 0.148438 0.488281 0.125 0.535156 C 0.109375 0.5625 0.0898438 0.585938 0.0742188 0.617188 C 0.0703125 0.632813 0.0703125 0.648438 0.0664063 0.664063 C 0.046875 0.710938 0.0390625 0.757813 0.0273438 0.808594 C 0.0195313 0.855469 0.0078125 0.902344 0.0078125 0.953125 C 0.0078125 0.96875 0 0.984375 0 1 L 0 35 C 0 35.238281 0.0859375 35.46875 0.242188 35.648438 L 0.4375 35.878906 C 0.453125 35.898438 0.464844 35.925781 0.484375 35.945313 L 12.242188 49.648438 C 12.25 49.660156 12.261719 49.664063 12.269531 49.671875 C 12.339844 49.746094 12.425781 49.804688 12.515625 49.855469 C 12.546875 49.875 12.566406 49.898438 12.597656 49.914063 C 12.65625 49.9375 12.722656 49.941406 12.78125 49.957031 C 12.855469 49.984375 12.925781 50 13 50 L 49 50 C 49.554688 50 50 49.554688 50 49 L 50 13 C 50 12.972656 49.988281 12.941406 49.984375 12.914063 Z M 4 6.828125 L 11 13.828125 L 11 42.042969 L 4 33.898438 Z M 15 15 L 46 15 L 46 46 L 15 46 Z M 13.828125 11 L 6.828125 4 L 33.898438 4 L 42.0625 11 Z"/></svg>