<svg xmlns="http://www.w3.org/2000/svg" width="500" height="500" viewBox="0 0 16 16"><path fill="#b0c1d4" d="M4.512,2.5c0.384-0.311,0.709-0.706,1.004-1.704C5.604,0.5,7.222,0.5,8,0.5s2.396,0,2.484,0.296 c0.294,0.998,0.62,1.393,1.004,1.704H4.512z"/><path fill="#66798f" d="M8,1c0.467,0,1.636,0,2.058,0.113C10.174,1.476,10.298,1.764,10.427,2H8H5.573 c0.13-0.236,0.253-0.524,0.369-0.887C6.364,1,7.533,1,8,1 M8,0C6.045,0,5.205,0.083,5.037,0.655 c-0.364,1.234-0.74,1.37-1.153,1.696V3H8h4.116V2.351c-0.412-0.326-0.788-0.463-1.153-1.696C10.795,0.083,9.955,0,8,0L8,0z"/><path fill="#b0c1d4" d="M8,15.5c-0.778,0-2.396,0-2.484-0.296c-0.294-0.998-0.62-1.393-1.004-1.704h6.975 c-0.383,0.311-0.709,0.707-1.003,1.704C10.396,15.5,8.778,15.5,8,15.5z"/><path fill="#66798f" d="M10.427,14c-0.13,0.236-0.253,0.524-0.369,0.887C9.636,15,8.467,15,8,15s-1.636,0-2.058-0.113 C5.826,14.524,5.702,14.236,5.573,14H8H10.427 M12.116,13H8H3.884v0.649c0.412,0.326,0.788,0.463,1.153,1.696 C5.205,15.917,6.045,16,8,16s2.795-0.083,2.963-0.655c0.364-1.234,0.74-1.37,1.153-1.696V13L12.116,13z"/><path fill="#f2faff" d="M5,13.5c-0.827,0-1.5-0.673-1.5-1.5V4c0-0.827,0.673-1.5,1.5-1.5h6c0.827,0,1.5,0.673,1.5,1.5v8 c0,0.827-0.673,1.5-1.5,1.5H5z"/><path fill="#788b9c" d="M11,3c0.551,0,1,0.449,1,1v8c0,0.551-0.449,1-1,1H5c-0.551,0-1-0.449-1-1V4c0-0.551,0.449-1,1-1H11 M11,2H5C3.895,2,3,2.895,3,4v8c0,1.105,0.895,2,2,2h6c1.105,0,2-0.895,2-2V4C13,2.895,12.105,2,11,2L11,2z"/><path fill="#424e5c" d="M10.653,12H5.347C5.156,12,5,11.844,5,11.653V4.347C5,4.156,5.156,4,5.347,4h5.305 C10.844,4,11,4.156,11,4.347v7.305C11,11.844,10.844,12,10.653,12z"/><path fill="#fff" d="M8 7A1 1 0 1 0 8 9A1 1 0 1 0 8 7Z"/><path fill="#f78f8f" d="M9.5 6A0.5 0.5 0 1 0 9.5 7A0.5 0.5 0 1 0 9.5 6Z"/><path fill="#fff" d="M6.5 6A0.5 0.5 0 1 0 6.5 7A0.5 0.5 0 1 0 6.5 6Z"/><path fill="#8bb7f0" d="M7.5 5A0.5 0.5 0 1 0 7.5 6A0.5 0.5 0 1 0 7.5 5Z"/><path fill="#bae0bd" d="M5.5 7A0.5 0.5 0 1 0 5.5 8A0.5 0.5 0 1 0 5.5 7Z"/><path fill="#ffeea3" d="M10.5 7A0.5 0.5 0 1 0 10.5 8A0.5 0.5 0 1 0 10.5 7Z"/><path fill="#c2e8ff" d="M9.5 9A0.5 0.5 0 1 0 9.5 10A0.5 0.5 0 1 0 9.5 9Z"/><path fill="#bae0bd" d="M8.5 10A0.5 0.5 0 1 0 8.5 11A0.5 0.5 0 1 0 8.5 10Z"/><path fill="#ffeea3" d="M6.5 9A0.5 0.5 0 1 0 6.5 10A0.5 0.5 0 1 0 6.5 9Z"/></svg>