<svg xmlns="http://www.w3.org/2000/svg" viewBox="0 0 80 80" width="100px" height="100px"><path fill="#dcd5f2" d="M22,77.5c-6.3,0-11.5-5.2-11.5-11.5V28.5h59V66c0,6.3-5.2,11.5-11.5,11.5H22z"/><path fill="#8b75a1" d="M69,29v37c0,6.1-4.9,11-11,11H22c-6.1,0-11-4.9-11-11V29H69 M70,28H10v38c0,6.6,5.4,12,12,12h36 c6.6,0,12-5.4,12-12V28L70,28z"/><path fill="#f0edf7" d="M11,30h20v47h-9c-6.1,0-11-4.9-11-11V30z"/><path fill="#8b75a1" d="M69.5,28.7h-1v-6.2C68.5,11.7,59.8,3,49,3H31c-10.8,0-19.5,8.7-19.5,19.5v6.2h-1v-6.2 C10.5,11.2,19.7,2,31,2h18c11.3,0,20.5,9.2,20.5,20.5V28.7z"/><path fill="#dcd5f2" d="M11,29.5c-1.4,0-2.5-1.1-2.5-2.5s1.1-2.5,2.5-2.5h58c1.4,0,2.5,1.1,2.5,2.5s-1.1,2.5-2.5,2.5H11z"/><path fill="#8b75a1" d="M69,25c1.1,0,2,0.9,2,2s-0.9,2-2,2H11c-1.1,0-2-0.9-2-2s0.9-2,2-2H69 M69,24H11c-1.7,0-3,1.3-3,3 s1.3,3,3,3h58c1.7,0,3-1.3,3-3S70.7,24,69,24L69,24z"/><g><path fill="#fff" d="M20.5 40.5H59.5V63.5H20.5z"/><path fill="#8b75a1" d="M59,41v22H21V41H59 M60,40H20v24h40V40L60,40z"/></g></svg>