<svg xmlns="http://www.w3.org/2000/svg" width="500" height="500" fill="#000" viewBox="0 0 24 24"><path d="M 12.027344 2 C 11.699344 2 11.392078 2.1616406 11.205078 2.4316406 L 6.6679688 9 L 2.0019531 9 C 1.6889531 9 1.3950781 9.1455313 1.2050781 9.3945312 C 1.0170781 9.6425312 0.95315625 9.964625 1.0351562 10.265625 L 3.5957031 19.53125 C 3.8347031 20.39525 4.6274375 21 5.5234375 21 L 12 21 L 12 19 L 5.5234375 19 L 3.3144531 11 L 16.8125 11 L 20.685547 11 L 20.410156 12 L 22.484375 12 L 22.964844 10.265625 C 23.046844 9.964625 22.982922 9.6425313 22.794922 9.3945312 C 22.604922 9.1455313 22.311047 9 21.998047 9 L 17.339844 9 L 12.853516 2.4355469 C 12.667516 2.1635469 12.36025 2.001 12.03125 2 L 12.027344 2 z M 12.023438 4.765625 L 14.916016 9 L 9.0976562 9 L 12.023438 4.765625 z M 18 14 L 18 18 L 14 18 L 14 20 L 18 20 L 18 24 L 20 24 L 20 20 L 24 20 L 24 18 L 20 18 L 20 14 L 18 14 z"/></svg>