<svg xmlns="http://www.w3.org/2000/svg" width="500" height="500" viewBox="0 0 48 48"><path fill="#FFA726" d="M44,20v-7c0-2.2-1.8-4-4-4h-5.5c0,0.8-0.7,1.5-1.5,1.5S31.5,9.8,31.5,9H8c-2.2,0-4,1.8-4,4v7c2.2,0,4,1.8,4,4c0,2.2-1.8,4-4,4v7c0,2.2,1.8,4,4,4h23.5c0-0.8,0.7-1.5,1.5-1.5s1.5,0.7,1.5,1.5H40c2.2,0,4-1.8,4-4v-7c-2.2,0-4-1.8-4-4C40,21.8,41.8,20,44,20z M33,35.5c-0.8,0-1.5-0.7-1.5-1.5s0.7-1.5,1.5-1.5s1.5,0.7,1.5,1.5S33.8,35.5,33,35.5z M33,30.5c-0.8,0-1.5-0.7-1.5-1.5s0.7-1.5,1.5-1.5s1.5,0.7,1.5,1.5S33.8,30.5,33,30.5z M33,25.5c-0.8,0-1.5-0.7-1.5-1.5s0.7-1.5,1.5-1.5s1.5,0.7,1.5,1.5S33.8,25.5,33,25.5z M33,20.5c-0.8,0-1.5-0.7-1.5-1.5s0.7-1.5,1.5-1.5s1.5,0.7,1.5,1.5S33.8,20.5,33,20.5z M33,15.5c-0.8,0-1.5-0.7-1.5-1.5s0.7-1.5,1.5-1.5s1.5,0.7,1.5,1.5S33.8,15.5,33,15.5z"/><path fill="#43A047" d="M38 28A10 10 0 1 0 38 48A10 10 0 1 0 38 28Z"/><path fill="#FFF" d="M36 32H40V44H36z"/><path fill="#FFF" d="M32 36H44V40H32z"/></svg>