<svg fill="#000000" xmlns="http://www.w3.org/2000/svg" viewBox="0 0 16 16" width="50px" height="50px"><path d="M 6.125 1 C 5.902344 1 5.710938 1.144531 5.648438 1.359375 C 5.648438 1.359375 5.554688 1.664063 5.394531 2.039063 C 5.234375 2.414063 4.988281 2.84375 4.8125 3.011719 C 4.808594 3.015625 4.808594 3.015625 4.804688 3.019531 C 3.796875 3.121094 3 3.96875 3 5 L 3 11 C 3 12.03125 3.796875 12.878906 4.804688 12.980469 C 4.808594 12.984375 4.808594 12.984375 4.8125 12.988281 C 4.988281 13.15625 5.234375 13.585938 5.394531 13.960938 C 5.554688 14.335938 5.648438 14.640625 5.648438 14.640625 C 5.710938 14.855469 5.902344 15 6.125 15 L 8.867188 15 C 9.078125 15 9.269531 14.863281 9.339844 14.660156 C 9.339844 14.660156 9.445313 14.355469 9.617188 13.984375 C 9.792969 13.609375 10.058594 13.175781 10.25 13 C 10.261719 12.992188 10.273438 12.980469 10.28125 12.96875 C 11.246094 12.832031 12 12 12 11 L 12 7 L 13 7 L 13 5 L 12 5 C 12 4 11.246094 3.167969 10.28125 3.03125 C 10.273438 3.019531 10.261719 3.007813 10.25 3 C 10.058594 2.824219 9.792969 2.390625 9.617188 2.015625 C 9.445313 1.644531 9.339844 1.335938 9.339844 1.335938 C 9.269531 1.136719 9.078125 1 8.867188 1 Z M 6.472656 2 L 8.53125 2 C 8.585938 2.144531 8.601563 2.203125 8.714844 2.445313 C 8.796875 2.621094 8.898438 2.8125 9.007813 3 L 6.039063 3 C 6.140625 2.808594 6.234375 2.613281 6.3125 2.429688 C 6.414063 2.195313 6.421875 2.144531 6.472656 2 Z M 5 4 L 10 4 C 10.550781 4 11 4.449219 11 5 L 11 11 C 11 11.550781 10.550781 12 10 12 L 5 12 C 4.449219 12 4 11.550781 4 11 L 4 5 C 4 4.449219 4.449219 4 5 4 Z M 6.5 5 C 6.222656 5 6 5.222656 6 5.5 C 6 5.777344 6.222656 6 6.5 6 C 6.777344 6 7 5.777344 7 5.5 C 7 5.222656 6.777344 5 6.5 5 Z M 8.5 5 C 8.222656 5 8 5.222656 8 5.5 C 8 5.777344 8.222656 6 8.5 6 C 8.777344 6 9 5.777344 9 5.5 C 9 5.222656 8.777344 5 8.5 5 Z M 5.5 7 C 5.222656 7 5 7.222656 5 7.5 C 5 7.777344 5.222656 8 5.5 8 C 5.777344 8 6 7.777344 6 7.5 C 6 7.222656 5.777344 7 5.5 7 Z M 7.5 7 C 7.222656 7 7 7.222656 7 7.5 C 7 7.777344 7.222656 8 7.5 8 C 7.777344 8 8 7.777344 8 7.5 C 8 7.222656 7.777344 7 7.5 7 Z M 9.5 7 C 9.222656 7 9 7.222656 9 7.5 C 9 7.777344 9.222656 8 9.5 8 C 9.777344 8 10 7.777344 10 7.5 C 10 7.222656 9.777344 7 9.5 7 Z M 6.5 9 C 6.222656 9 6 9.222656 6 9.5 C 6 9.777344 6.222656 10 6.5 10 C 6.777344 10 7 9.777344 7 9.5 C 7 9.222656 6.777344 9 6.5 9 Z M 8.5 9 C 8.222656 9 8 9.222656 8 9.5 C 8 9.777344 8.222656 10 8.5 10 C 8.777344 10 9 9.777344 9 9.5 C 9 9.222656 8.777344 9 8.5 9 Z M 6.039063 13 L 9.007813 13 C 8.898438 13.1875 8.796875 13.378906 8.714844 13.558594 C 8.601563 13.796875 8.585938 13.855469 8.53125 14 L 6.472656 14 C 6.421875 13.855469 6.414063 13.804688 6.3125 13.566406 C 6.234375 13.386719 6.140625 13.191406 6.039063 13 Z"/></svg>