<svg xmlns="http://www.w3.org/2000/svg" width="100" height="100" viewBox="0 0 30 30"><path fill="#dcd5f2" d="M8,28.5c-1.9,0-3.5-1.6-3.5-3.5V11.5h21V25c0,1.9-1.6,3.5-3.5,3.5H8z"/><path fill="#8b75a1" d="M25,12v13c0,1.7-1.3,3-3,3H8c-1.7,0-3-1.3-3-3V12H25 M26,11H4v14c0,2.2,1.8,4,4,4h14 c2.2,0,4-1.8,4-4V11L26,11z"/><path fill="#f0edf7" d="M5,11h8v17H8c-1.7,0-3-1.3-3-3V11z"/><path fill="#8b75a1" d="M26,11h-1V8.5C25,4.9,22.1,2,18.5,2h-7C7.9,2,5,4.9,5,8.5V11H4V8.5C4,4.4,7.4,1,11.5,1h7 C22.6,1,26,4.4,26,8.5V11z"/><path fill="#dcd5f2" d="M4.5,11.5c-0.6,0-1-0.4-1-1s0.4-1,1-1h21c0.6,0,1,0.4,1,1s-0.4,1-1,1H4.5z"/><path fill="#8b75a1" d="M25.5,10c0.3,0,0.5,0.2,0.5,0.5S25.8,11,25.5,11h-21C4.2,11,4,10.8,4,10.5S4.2,10,4.5,10H25.5 M25.5,9h-21C3.7,9,3,9.7,3,10.5S3.7,12,4.5,12h21c0.8,0,1.5-0.7,1.5-1.5S26.3,9,25.5,9L25.5,9z"/><g><path fill="#fff" d="M8.5 15.5H21.5V23.5H8.5z"/><path fill="#8b75a1" d="M21,16v7H9v-7H21 M22,15H8v9h14V15L22,15z"/></g></svg>