<svg xmlns="http://www.w3.org/2000/svg" width="500" height="500" viewBox="0 0 64 64"><linearGradient id="prYseEawv~0H6dWujS2Qza" x1="25" x2="25" y1="29" y2="39" gradientUnits="userSpaceOnUse" spreadMethod="reflect"><stop offset="0" stop-color="#6dc7ff"/><stop offset="1" stop-color="#e6abff"/></linearGradient><path fill="url(#prYseEawv~0H6dWujS2Qza)" d="M26,39h-2c-1.105,0-2-0.895-2-2v-6c0-1.105,0.895-2,2-2h2c1.105,0,2,0.895,2,2v6 C28,38.105,27.105,39,26,39z M24.5,37h1c0.276,0,0.5-0.224,0.5-0.5v-5c0-0.276-0.224-0.5-0.5-0.5h-1c-0.276,0-0.5,0.224-0.5,0.5v5 C24,36.776,24.224,37,24.5,37z"/><linearGradient id="prYseEawv~0H6dWujS2Qzb" x1="33" x2="33" y1="29" y2="39" gradientUnits="userSpaceOnUse" spreadMethod="reflect"><stop offset="0" stop-color="#6dc7ff"/><stop offset="1" stop-color="#e6abff"/></linearGradient><path fill="url(#prYseEawv~0H6dWujS2Qzb)" d="M35.405,33.578C35.461,33.394,35.5,33.202,35.5,33v-2c0-1.105-0.895-2-2-2H31 c-0.552,0-1,0.448-1,1v3v2v3c0,0.552,0.448,1,1,1h3c1.105,0,2-0.895,2-2v-2C36,34.443,35.772,33.941,35.405,33.578z M32,31h1 c0.276,0,0.5,0.224,0.5,0.5v1c0,0.276-0.224,0.5-0.5,0.5h-1V31z M34,36.5c0,0.276-0.224,0.5-0.5,0.5H32v-2h1.5 c0.276,0,0.5,0.224,0.5,0.5V36.5z"/><linearGradient id="prYseEawv~0H6dWujS2Qzc" x1="40" x2="40" y1="29" y2="39" gradientUnits="userSpaceOnUse" spreadMethod="reflect"><stop offset="0" stop-color="#6dc7ff"/><stop offset="1" stop-color="#e6abff"/></linearGradient><path fill="url(#prYseEawv~0H6dWujS2Qzc)" d="M41,37h-2v-1.5c0-0.276-0.224-0.5-0.5-0.5h-1c-0.276,0-0.5,0.224-0.5,0.5V37 c0,1.105,0.895,2,2,2h2c1.105,0,2-0.895,2-2v-7.5c0-0.276-0.224-0.5-0.5-0.5h-1c-0.276,0-0.5,0.224-0.5,0.5V37z"/><linearGradient id="prYseEawv~0H6dWujS2Qzd" x1="32" x2="32" y1="-107" y2="-162.012" gradientTransform="matrix(1 0 0 -1 0 -102)" gradientUnits="userSpaceOnUse" spreadMethod="reflect"><stop offset="0" stop-color="#1a6dff"/><stop offset="1" stop-color="#c822ff"/></linearGradient><path fill="url(#prYseEawv~0H6dWujS2Qzd)" d="M51.121,15.707l-8.828-8.828C41.727,6.313,40.973,6,40.171,6H15c-1.654,0-3,1.346-3,3v40v2v4 c0,1.654,1.346,3,3,3h34c1.654,0,3-1.346,3-3v-4v-2V17.828C52,17.027,51.688,16.273,51.121,15.707z M48.586,16H43 c-0.551,0-1-0.448-1-1V9.414L48.586,16z M49,56H15c-0.551,0-1-0.448-1-1v-1.185C14.314,53.928,14.648,54,15,54h34 c0.352,0,0.686-0.072,1-0.184V55C50,55.552,49.551,56,49,56z M50,51c0,0.552-0.449,1-1,1H15c-0.551,0-1-0.448-1-1v-2V9 c0-0.552,0.449-1,1-1h25v7c0,1.654,1.346,3,3,3h7v31V51z"/></svg>