<svg xmlns="http://www.w3.org/2000/svg" width="100" height="100" viewBox="0 0 64 64"><linearGradient id="tHa74GdRH1dyphtgXBI4Ia" x1="39" x2="39" y1="27.23" y2="47.75" gradientUnits="userSpaceOnUse" spreadMethod="reflect"><stop offset="0" stop-color="#6dc7ff"/><stop offset="1" stop-color="#e6abff"/></linearGradient><path fill="url(#tHa74GdRH1dyphtgXBI4Ia)" d="M45 27.23L45 40.71 33 47.75 33 34.49z"/><linearGradient id="tHa74GdRH1dyphtgXBI4Ib" x1="32" x2="32" y1="6" y2="57.735" gradientUnits="userSpaceOnUse" spreadMethod="reflect"><stop offset="0" stop-color="#1a6dff"/><stop offset="1" stop-color="#c822ff"/></linearGradient><path fill="url(#tHa74GdRH1dyphtgXBI4Ib)" d="M32,58C17.664,58,6,46.336,6,32S17.664,6,32,6s26,11.664,26,26S46.336,58,32,58z M32,8 C18.767,8,8,18.767,8,32s10.767,24,24,24s24-10.767,24-24S45.233,8,32,8z"/><linearGradient id="tHa74GdRH1dyphtgXBI4Ic" x1="25" x2="25" y1="6" y2="57.735" gradientUnits="userSpaceOnUse" spreadMethod="reflect"><stop offset="0" stop-color="#1a6dff"/><stop offset="1" stop-color="#c822ff"/></linearGradient><path fill="url(#tHa74GdRH1dyphtgXBI4Ic)" d="M31,47.746L19,40.71V27.225l12,7.27V47.746z M21,39.565l8,4.689v-8.633l-8-4.847V39.565z"/><linearGradient id="tHa74GdRH1dyphtgXBI4Id" x1="32" x2="32" y1="6" y2="57.735" gradientUnits="userSpaceOnUse" spreadMethod="reflect"><stop offset="0" stop-color="#1a6dff"/><stop offset="1" stop-color="#c822ff"/></linearGradient><path fill="url(#tHa74GdRH1dyphtgXBI4Id)" d="M32,32.162L19.034,24.5L32,16.838L44.966,24.5L32,32.162z M22.966,24.5L32,29.838l9.034-5.339 L32,19.162L22.966,24.5z"/></svg>