<svg xmlns="http://www.w3.org/2000/svg" width="500" height="500" viewBox="0 0 48 48"><path fill="#7e8ccf" d="M31,25c0-2.209,1.792-4,4-4h7c2.209,0,4,1.791,4,4v7c0,2.209-1.791,4-4,4H26l5-4V25"/><path fill="#ffba57" d="M26.9,28.8l-2.852,1.18c-0.027,0.011-0.042,0.041-0.035,0.07l0.491,1.979 c0.071,0.284-0.098,0.581-0.382,0.653c-0.929,0.236-1.742,0.316-2.642,0.418c-0.58,0.07-0.67,0.79-0.06,1.03 c0.606,0.244,1.316,0.51,2.106,0.68c0.406,0.088,0.599,0.555,0.376,0.905l-0.494,0.773c-0.005,0.008-0.008,0.016-0.008,0.025 c-0.208,2.893-2.904,4.985-5.799,4.386l-2.529-0.486C15.034,40.407,15,40.435,15,40.473V44c0,0.033-10,0-10,0C5,41,5,5,5,5 s1.651,0,3,0c11.093,0,15.395,7.391,15.999,14.987c0.001,0.009,0.003,0.017,0.008,0.025L27.7,26.2C28.3,27.2,27.9,28.4,26.9,28.8z"/><path fill="#f9a825" d="M15.008 44L15.016 40.367 8.016 38.98 8.008 44z"/><path fill="#784719" d="M18.016,23.5c0,0.828,0.672,1.5,1.5,1.5s1.5-0.672,1.5-1.5s-0.672-1.5-1.5-1.5 C18.687,22,18.016,22.672,18.016,23.5"/><path fill="#7a534b" d="M7.387,4C6.576,4,5.786,4.08,5.008,4.195v22.732l0.008-0.08L10.92,24l2.097-6 c0,0,6.963-3.764,6.963-10.318C17.064,5.228,11.69,4,7.387,4z"/><path fill="#ffba57" d="M6.016,23c-0.35,0-0.687,0.051-1.008,0.139v7.723C5.329,30.949,5.666,31,6.016,31 c2.209,0,4-1.792,4-4C10.016,24.791,8.225,23,6.016,23z"/></svg>