<svg xmlns="http://www.w3.org/2000/svg" viewBox="0 0 64 64" width="300px" height="300px"><path fill="#85cbf8" d="M32 4A28 28 0 1 0 32 60A28 28 0 1 0 32 4Z"/><path fill="#7bbeeb" d="M41.694,57.196C41,54.74,38.558,53.16,35.998,53.634c-11.929,2.205-23.427-5.707-25.632-17.635 c-0.473-2.56-2.821-4.276-5.363-4.046c-0.001,1.634,0.139,3.29,0.446,4.955C8.16,51.57,22.244,61.26,36.907,58.55 C38.572,58.243,40.168,57.782,41.694,57.196z"/><path fill="#8d6c9f" d="M31.825 55.99c-.002 0-.005 0-.007 0-.553-.004-.997-.455-.993-1.007l.015-2c.004-.55.451-.993 1-.993.002 0 .005 0 .008 0 .552.004.996.455.992 1.007l-.015 2C32.821 55.547 32.374 55.99 31.825 55.99zM26.414 55.288c-.081 0-.163-.01-.245-.03-.535-.135-.86-.679-.726-1.214l.488-1.939c.135-.536.679-.86 1.214-.726s.86.679.726 1.214l-.488 1.939C27.269 54.986 26.861 55.288 26.414 55.288zM21.316 53.338c-.157 0-.316-.037-.465-.115-.488-.257-.677-.862-.419-1.351l.932-1.77c.257-.488.863-.676 1.351-.419.488.257.677.862.419 1.351l-.932 1.77C22.023 53.144 21.676 53.338 21.316 53.338zM16.824 50.246c-.234 0-.47-.082-.66-.249-.415-.364-.456-.996-.091-1.411l1.319-1.502c.364-.414.996-.455 1.411-.091s.456.996.091 1.411l-1.319 1.502C17.378 50.131 17.102 50.246 16.824 50.246zM13.183 46.185c-.314 0-.624-.148-.819-.425-.317-.452-.209-1.076.243-1.394l1.637-1.15c.452-.318 1.075-.207 1.394.243.317.452.209 1.076-.243 1.394l-1.637 1.15C13.582 46.126 13.381 46.185 13.183 46.185zM10.592 41.381c-.399 0-.777-.241-.932-.636-.201-.515.053-1.095.567-1.296l1.862-.729c.512-.202 1.095.053 1.296.567s-.053 1.095-.567 1.296l-1.862.729C10.837 41.359 10.713 41.381 10.592 41.381z"/><g><path fill="#ace3ff" d="M32,5c-1.693,0-3.347,0.163-4.953,0.461C27.283,8.003,29.396,10,32,10c12.131,0,22,9.869,22,22 c0,2.604,1.997,4.717,4.539,4.953C58.837,35.347,59,33.693,59,32C59,17.088,46.912,5,32,5z"/></g><g><path fill="#8d6c9f" d="M54,33c-0.553,0-1-0.447-1-1c0-1.635-0.189-3.264-0.562-4.841c-0.128-0.537,0.205-1.076,0.742-1.203 c0.536-0.131,1.076,0.204,1.203,0.742C54.793,28.427,55,30.21,55,32C55,32.553,54.553,33,54,33z"/></g><g><path fill="#8d6c9f" d="M51.993,23.821c-0.379,0-0.74-0.216-0.909-0.581C47.657,15.805,40.166,11,32,11 c-0.553,0-1-0.447-1-1s0.447-1,1-1c8.944,0,17.148,5.261,20.9,13.402c0.231,0.502,0.012,1.096-0.489,1.327 C52.275,23.792,52.133,23.821,51.993,23.821z"/></g><g><path fill="#8d6c9f" d="M32,61C16.01,61,3,47.99,3,32S16.01,3,32,3s29,13.01,29,29S47.99,61,32,61z M32,5 C17.112,5,5,17.112,5,32s12.112,27,27,27s27-12.112,27-27S46.888,5,32,5z"/></g></svg>