<svg xmlns="http://www.w3.org/2000/svg" width="500" height="500" viewBox="0 0 48 48"><path fill="#4CAF50" d="M33,15.128c2-2,0-3,0-3c-2,2-7,2-9,2s-6-3-10-6c-2.625-1.917-4.586-0.925-5.401-0.396C8.833,8.651,9.245,9.71,9.245,9.71c0.628,1.751,2.56,5.771,7.955,9.818c4.199,3.148,5.481,3.216,6.512,3.27c1.328,0.069,2.501,0.24,4.488,1.73l8.196,7.142c0,0,5.604-0.542,5.604-8.542C41,23.128,32,16.128,33,15.128z"/><path fill="#607D8B" d="M22,38c0,0-2.214-4-8-4s-8,4-8,4v2h16V38z"/><path fill="#FF9800" d="M16.001,31h-4v3c0,0-0.124,2,1.959,2s2.041-2,2.041-2V31z"/><path fill="#FFB74D" d="M14,33c-2.758,0-5-2.243-5-5s2.242-5,5-5s5,2.243,5,5S16.758,33,14,33"/><path fill="#424242" d="M13.781,21C11.344,21.219,9,22.93,9,26.574V28l1,1v-3l6.31-2.201L18,26v3l1-1v-1.202c0-2.414-0.135-4.206-3-4.798l-0.485-1H13.781z"/><path fill="#388E3C" d="M33,12.128c-2,2-7,2-9,2s-6-3-10-6c-2.23-1.673-4.142-1.169-5.401-0.396C8.833,8.651,9.245,9.71,9.245,9.71c0.628,1.751,2.56,5.771,7.955,9.818c4.199,3.148,5.481,3.216,6.512,3.27c0.564,0.029,1.104,0.084,1.687,0.244c-0.121-1.658,0.034-4.146,1.102-4.664c0.873-0.423,4.844-1.671,6.5-3.25C35.047,13.176,33,12.128,33,12.128z"/><path fill="#5D4037" d="M23.712,22.798c-1.03-0.054-2.313-0.121-6.512-3.27c-5.396-4.047-7.327-8.067-7.955-9.818c0,0-0.413-1.059-0.646-1.979C7.595,8.345,7,9.128,7,9.128s1,6,9,12s7,2,11,5l-2,2l8,7l3.396-3.458L28.2,24.528C26.213,23.038,25.04,22.867,23.712,22.798z"/><path fill="#388E3C" d="M41.594,23.128c-4.4,0-6.719,0.781-9.705,4.614l0,0l4.508,3.928c0,0,5.592-0.542,5.603-8.521C41.863,23.142,41.73,23.128,41.594,23.128z"/><g><path fill="#1B5E20" d="M26 15.128A1 1 0 1 0 26 17.128 1 1 0 1 0 26 15.128zM30 14.128A1 1 0 1 0 30 16.128 1 1 0 1 0 30 14.128z"/></g><g><path fill="#FFC107" d="M27 15.128c0 .553-.447 1-1 1l0 0c-.553 0-1-.447-1-1v-1c0-.553.447-1 1-1l0 0c.553 0 1 .447 1 1V15.128zM31 14.128c0 .553-.447 1-1 1l0 0c-.553 0-1-.447-1-1v-1c0-.553.447-1 1-1l0 0c.553 0 1 .447 1 1V14.128z"/></g></svg>