<svg xmlns="http://www.w3.org/2000/svg" viewBox="0 0 48 48" width="50px" height="50px"><rect width="2" height="12.806" x="25" y="22.597" fill="#64b5f6" transform="rotate(-51.325 25.998 29)"/><rect width="12.806" height="2" x="19.597" y="14" fill="#64b5f6" transform="rotate(-38.675 26.002 15)"/><rect width="2" height="4" x="34" y="16" fill="#455a64"/><rect width="16" height="34" x="7" y="7" fill="#2196f3"/><rect width="12" height="3" x="9" y="9" fill="#37474f"/><rect width="12" height="3" x="9" y="15" fill="#37474f"/><rect width="12" height="3" x="9" y="21" fill="#37474f"/><rect width="12" height="3" x="9" y="27" fill="#37474f"/><circle cx="15" cy="36" r="2" fill="#bbdefb"/><rect width="12" height="10" x="29" y="7" fill="#546e7a"/><rect width="8" height="6" x="31" y="9" fill="#bbdefb"/><rect width="6" height="2" x="32" y="19" fill="#455a64"/><rect width="2" height="4" x="34" y="37" fill="#455a64"/><rect width="12" height="10" x="29" y="27" fill="#546e7a"/><rect width="8" height="6" x="31" y="29" fill="#bbdefb"/><rect width="6" height="2" x="32" y="39" fill="#455a64"/></svg>