<svg xmlns="http://www.w3.org/2000/svg" width="300" height="300" fill="#000" viewBox="0 0 50 50"><path d="M 34.59375 0 C 33.699219 0 32.875 0.078125 32.1875 0.1875 C 30.226563 0.507813 27.523438 1.378906 26.0625 2.53125 C 25.707031 2.8125 25.351563 3.199219 24.96875 3.625 L 11.46875 15.53125 C 11.394531 15.59375 11.332031 15.667969 11.28125 15.75 C 11.28125 15.75 9.71875 18.375 9.71875 22.5 C 9.71875 26.980469 13.578125 30.011719 14.9375 31.25 C 15.773438 32.011719 16.804688 32.578125 17.53125 33.0625 C 17.894531 33.304688 18.179688 33.515625 18.3125 33.65625 C 18.378906 33.726563 18.378906 33.757813 18.375 33.75 C 18.371094 33.800781 18.371094 33.855469 18.375 33.90625 C 17.625 34.378906 16.867188 34.828125 15.9375 35.4375 C 13.335938 37.144531 10.402344 39.167969 8.84375 40.65625 C 8.730469 40.769531 8.644531 40.910156 8.59375 41.0625 C 7.871094 43.230469 7.699219 45.789063 7.65625 46.5625 C 7.484375 46.886719 7.5 47.277344 7.703125 47.585938 C 7.90625 47.890625 8.257813 48.0625 8.625 48.03125 C 9.074219 48.253906 9.808594 48.578125 11.09375 48.9375 C 13.023438 49.480469 15.90625 50 19.875 50 C 24.082031 50 28.324219 47.605469 31.9375 44.53125 C 35.234375 41.722656 37.992188 38.324219 39.65625 35.34375 C 40.886719 33.59375 41.546875 31.804688 41.6875 30.625 C 42.03125 27.753906 41.628906 24.625 40.03125 22.125 C 38.4375 19.625 33.964844 16.582031 33.59375 16.25 C 33.566406 16.222656 33.472656 16.152344 33.4375 16.125 L 41.84375 9.84375 C 41.851563 9.839844 41.867188 9.847656 41.875 9.84375 C 41.910156 9.816406 41.941406 9.785156 41.96875 9.75 C 41.988281 9.734375 42.011719 9.738281 42.03125 9.71875 C 42.078125 9.671875 42.121094 9.617188 42.15625 9.5625 C 42.175781 9.535156 42.199219 9.5 42.21875 9.46875 C 42.230469 9.449219 42.242188 9.425781 42.25 9.40625 C 43.515625 7.539063 44.542969 4.488281 44.34375 3.59375 C 44.132813 2.605469 41.328125 1.5625 39.6875 0.875 C 38.15625 0.230469 36.269531 0 34.59375 0 Z M 34.59375 2 C 36.265625 2 37.824219 2.25 38.9375 2.71875 L 39.5 2.96875 C 40.183594 3.25 41.660156 3.847656 42.34375 4.28125 C 42.207031 4.949219 41.785156 6.09375 41.25 7.15625 C 40.511719 6.691406 37.460938 5.53125 34.65625 5.53125 C 33.003906 5.53125 31.632813 5.917969 30.5625 6.6875 C 28.363281 8.035156 26.921875 10.910156 28.1875 13.53125 C 28.675781 14.875 30.023438 16.019531 31.625 17.25 C 31.886719 17.449219 32.109375 17.625 32.25 17.75 C 32.378906 17.863281 32.550781 17.984375 32.90625 18.25 C 33.976563 19.042969 37.25 21.421875 38.375 23.1875 C 39.570313 25.058594 40.019531 27.640625 39.6875 30.40625 C 39.601563 31.125 39.28125 32.121094 38.6875 33.1875 C 38.539063 33.289063 38.417969 33.429688 38.34375 33.59375 C 38.230469 33.824219 38.101563 34.070313 37.96875 34.3125 C 36.496094 36.339844 34.035156 38.285156 30.34375 38.65625 C 29.800781 38.722656 29.238281 38.75 28.6875 38.75 C 26.773438 38.75 24.859375 38.339844 23.125 37.5625 C 23.101563 37.550781 23.085938 37.539063 23.0625 37.53125 C 22.828125 37.4375 22.65625 37.34375 22.46875 37.25 C 22.449219 37 22.339844 36.765625 22.15625 36.59375 C 22.28125 35.898438 22.433594 35.136719 22.5625 34.5 C 22.585938 34.507813 22.601563 34.492188 22.625 34.5 C 24.882813 34.992188 27.453125 35.550781 29.5625 35.8125 C 29.628906 35.820313 29.683594 35.839844 29.75 35.84375 L 29.9375 35.84375 C 32.367188 35.84375 34.667969 34.398438 35.875 32.1875 C 36.769531 30.875 37.085938 29.214844 36.75 27.59375 C 36.40625 25.941406 35.433594 24.507813 34.0625 23.65625 C 29.996094 20.75 27.222656 18.023438 25.34375 15.09375 C 23.953125 12.820313 23.527344 10.421875 24.1875 8.5 C 24.601563 7.289063 25.753906 5.710938 26.71875 4.71875 C 26.804688 4.648438 26.878906 4.5625 26.9375 4.46875 C 27.058594 4.351563 27.199219 4.214844 27.3125 4.125 C 28.328125 3.324219 30.558594 2.472656 32.5 2.15625 C 32.933594 2.085938 33.648438 2 34.59375 2 Z M 34.65625 7.53125 C 36.925781 7.53125 39.28125 8.40625 39.96875 8.75 L 31.8125 14.84375 C 30.988281 14.164063 30.21875 13.402344 30.03125 12.75 C 29.160156 11.105469 30.191406 9.234375 31.65625 8.375 C 32.464844 7.769531 33.542969 7.53125 34.65625 7.53125 Z M 22.03125 8.875 C 21.566406 11.34375 22.308594 13.96875 23.625 16.125 C 26.003906 19.835938 29.390625 22.789063 32.96875 25.34375 C 34.910156 26.507813 35.523438 29.296875 34.1875 31.15625 C 33.375 32.710938 31.679688 33.84375 29.90625 33.84375 C 29.871094 33.84375 29.847656 33.84375 29.8125 33.84375 C 27.351563 33.535156 24.097656 32.765625 21.6875 32.25 C 21.65625 32.242188 21.625 32.253906 21.59375 32.25 C 21.472656 32.214844 21.34375 32.207031 21.21875 32.21875 C 21.0625 32.234375 20.914063 32.289063 20.78125 32.375 C 20.78125 32.375 20.335938 32.652344 20.125 32.78125 C 20.023438 32.605469 19.902344 32.441406 19.78125 32.3125 C 19.445313 31.953125 19.035156 31.679688 18.625 31.40625 C 17.800781 30.855469 16.867188 30.3125 16.28125 29.78125 C 14.796875 28.429688 11.71875 25.78125 11.71875 22.5 C 11.71875 18.976563 12.863281 17.027344 12.9375 16.90625 Z M 20.4375 34.9375 C 20.277344 35.765625 20.15625 36.464844 20.0625 37.0625 C 18.304688 38.253906 15.671875 40.242188 13.25 42.09375 C 11.425781 43.488281 10.8125 43.980469 9.875 44.71875 C 9.988281 43.867188 10.140625 42.910156 10.4375 41.9375 C 11.78125 40.699219 14.542969 38.757813 17.03125 37.125 C 18.371094 36.246094 19.554688 35.488281 20.4375 34.9375 Z M 21.09375 38.8125 C 21.542969 39.066406 22.046875 39.296875 22.3125 39.40625 C 24.320313 40.308594 26.492188 40.75 28.6875 40.75 C 29.320313 40.75 29.964844 40.734375 30.59375 40.65625 C 31.808594 40.535156 32.882813 40.246094 33.875 39.875 C 32.886719 40.964844 31.800781 42.023438 30.65625 43 C 27.253906 45.898438 23.296875 48 19.875 48 C 16.085938 48 13.378906 47.492188 11.625 47 C 11.125 46.859375 10.890625 46.753906 10.625 46.65625 C 11.457031 46 12.398438 45.238281 14.46875 43.65625 C 16.828125 41.851563 19.441406 39.933594 21.09375 38.8125 Z"/></svg>