<svg xmlns="http://www.w3.org/2000/svg" width="100" height="100" viewBox="0 0 48 48"><path fill="#b0bec5" d="M30 30.1c-.5 0-11.4-.1-18.6-5.2l1.2-1.6c6.7 4.8 17.3 4.8 17.4 4.8V30.1zM30 25.1v8.1l4.1-4.1L30 25.1z"/><path fill="#00bcd4" d="M42,29.1c0,2.2-1.8,4-4,4s-4-1.8-4-4c0-2.2,1.8-4,4-4S42,26.9,42,29.1z"/><path fill="#80deea" d="M42 9.1c0 2.2-1.8 4-4 4s-4-1.8-4-4c0-2.2 1.8-4 4-4S42 6.9 42 9.1zM42 19.1c0 2.2-1.8 4-4 4s-4-1.8-4-4c0-2.2 1.8-4 4-4S42 16.9 42 19.1zM42 39.1c0 2.2-1.8 4-4 4s-4-1.8-4-4c0-2.2 1.8-4 4-4S42 36.9 42 39.1z"/><path fill="#0097a7" d="M18,24.1c0,3.3-2.7,6-6,6s-6-2.7-6-6c0-3.3,2.7-6,6-6S18,20.8,18,24.1z"/></svg>