<svg xmlns="http://www.w3.org/2000/svg" width="500" height="500" viewBox="0 0 48 48"><path fill="#FFA000" d="M38,14H20l-4-4H6c-2.209,0-4,1.791-4,4v8h40v-4C42,15.791,40.209,14,38,14"/><path fill="#FFCA28" d="M38,14H6c-2.209,0-4,1.791-4,4v20c0,2.209,1.791,4,4,4h32c2.209,0,4-1.791,4-4V18C42,15.791,40.209,14,38,14"/><path fill="#4A148C" d="M46,7.5C46,8.328,45.329,9,44.5,9S43,8.328,43,7.5S43.671,6,44.5,6S46,6.672,46,7.5"/><path fill="#9C27B0" d="M45.5,16c-5.238,0-9.5-4.262-9.5-9.5V6h-3v1h0.025C33.284,13.493,38.508,18.716,45,18.975V19h1v-3H45.5z"/><path fill="#7B1FA2" d="M45.5,11C43.019,11,41,8.981,41,6.5V6h-3v1h0.025c0.248,3.736,3.238,6.727,6.975,6.975V14h1v-3H45.5z"/><path fill="#BA68C8" d="M45.5,21C37.505,21,31,14.495,31,6.5V6h-3v1h0.025C28.289,16.25,35.751,23.711,45,23.975V24h1v-3H45.5z"/><path fill="#1565C0" d="M22 28L29 36 15 36z"/><path fill="#1565C0" d="M19 34.875H25V46H19z"/></svg>