<?xml version="1.0"?><svg fill="#000000" xmlns="http://www.w3.org/2000/svg" viewBox="0 0 64 64" width="50px" height="50px">    <path d="M 32 3 C 16.01 3 3 16.01 3 32 C 3 47.99 16.01 61 32 61 C 47.99 61 61 47.99 61 32 C 61 16.01 47.99 3 32 3 z M 32 5 C 46.888 5 59 17.112 59 32 C 59 46.888 46.888 59 32 59 C 17.112 59 5 46.888 5 32 C 5 17.112 17.112 5 32 5 z M 32 9 C 31.447 9 31 9.447 31 10 C 31 10.553 31.447 11 32 11 C 40.166 11 47.656984 15.805234 51.083984 23.240234 C 51.252984 23.605234 51.613188 23.820312 51.992188 23.820312 C 52.132187 23.820312 52.274156 23.791516 52.410156 23.728516 C 52.911156 23.497516 53.131391 22.904344 52.900391 22.402344 C 49.148391 14.261344 40.944 9 32 9 z M 53.576172 25.941406 C 53.448187 25.920016 53.313688 25.922328 53.179688 25.955078 C 52.642687 26.082078 52.3095 26.621203 52.4375 27.158203 C 52.8115 28.735203 53 30.365 53 32 C 53 32.553 53.447 33 54 33 C 54.553 33 55 32.553 55 32 C 55 30.21 54.793813 28.426266 54.382812 26.697266 C 54.287562 26.293766 53.960125 26.005578 53.576172 25.941406 z M 12.478516 38.650391 C 12.348719 38.646859 12.217844 38.670203 12.089844 38.720703 L 10.226562 39.449219 C 9.7125625 39.650219 9.4591562 40.229141 9.6601562 40.744141 C 9.8151563 41.139141 10.192797 41.380859 10.591797 41.380859 C 10.712797 41.380859 10.836078 41.3595 10.955078 41.3125 L 12.818359 40.582031 C 13.332359 40.381031 13.585766 39.801109 13.384766 39.287109 C 13.234016 38.901609 12.867906 38.660984 12.478516 38.650391 z M 14.990234 43.048828 C 14.738109 43.004578 14.470141 43.057797 14.244141 43.216797 L 12.607422 44.365234 C 12.155422 44.683234 12.046281 45.307766 12.363281 45.759766 C 12.558281 46.036766 12.869594 46.185547 13.183594 46.185547 C 13.381594 46.185547 13.581812 46.126906 13.757812 46.003906 L 15.394531 44.853516 C 15.846531 44.535516 15.955672 43.910984 15.638672 43.458984 C 15.479172 43.233984 15.242359 43.093078 14.990234 43.048828 z M 18.078125 46.746094 C 17.82275 46.762594 17.574578 46.876984 17.392578 47.083984 L 16.072266 48.585938 C 15.707266 49.000938 15.749063 49.632094 16.164062 49.996094 C 16.354063 50.163094 16.590219 50.246094 16.824219 50.246094 C 17.102219 50.246094 17.377219 50.13125 17.574219 49.90625 L 18.894531 48.404297 C 19.259531 47.989297 19.217734 47.356187 18.802734 46.992188 C 18.595234 46.810187 18.3335 46.729594 18.078125 46.746094 z M 22.333984 49.572266 C 21.945625 49.539594 21.556031 49.735563 21.363281 50.101562 L 20.431641 51.871094 C 20.173641 52.360094 20.363563 52.965656 20.851562 53.222656 C 21.000562 53.300656 21.159406 53.337891 21.316406 53.337891 C 21.676406 53.337891 22.022172 53.144687 22.201172 52.804688 L 23.134766 51.033203 C 23.392766 50.544203 23.202844 49.940594 22.714844 49.683594 C 22.592844 49.619344 22.463438 49.583156 22.333984 49.572266 z M 26.748047 51.361328 C 26.363016 51.421047 26.032891 51.703469 25.931641 52.105469 L 25.443359 54.044922 C 25.309359 54.579922 25.634922 55.122813 26.169922 55.257812 C 26.251922 55.277812 26.333063 55.287109 26.414062 55.287109 C 26.861063 55.287109 27.268812 54.98525 27.382812 54.53125 L 27.871094 52.59375 C 28.005094 52.05875 27.679531 51.512906 27.144531 51.378906 C 27.010781 51.345406 26.876391 51.341422 26.748047 51.361328 z M 31.839844 51.990234 C 31.290844 51.990234 30.843844 52.432422 30.839844 52.982422 L 30.824219 54.982422 C 30.820219 55.534422 31.265359 55.986234 31.818359 55.990234 L 31.824219 55.990234 C 32.373219 55.990234 32.820219 55.546094 32.824219 54.996094 L 32.839844 52.996094 C 32.843844 52.444094 32.399656 51.994234 31.847656 51.990234 L 31.839844 51.990234 z"/></svg>