<svg xmlns="http://www.w3.org/2000/svg" width="300" height="300" fill="#000" viewBox="0 0 30 30"><path d="M 19 2 C 17.156278 2 15.884723 2.5639018 15 3.34375 L 14.998047 3.3398438 L 14.941406 3.3886719 C 14.941406 3.3886719 14.939453 3.390625 14.939453 3.390625 C 14.939453 3.390625 14.9375 3.3925781 14.9375 3.3925781 L 7.390625 9.9667969 L 7.4648438 10.044922 C 6.7903903 10.837379 6 12.14599 6 14 C 6 15.030069 6.4541396 15.908497 7.0292969 16.560547 C 7.6044541 17.212597 8.2959217 17.694006 8.9355469 18.126953 C 9.5751721 18.559901 10.169701 18.948004 10.539062 19.287109 C 10.785417 19.513283 10.884997 19.667621 10.939453 19.804688 L 5 25 L 5.0078125 25.007812 L 4.9453125 25.042969 C 4.9453125 25.042969 5.4238715 25.851303 6.3964844 26.574219 C 7.3690973 27.297135 8.8994394 28 11 28 C 13.595773 28 16.113451 26.057023 18.171875 24.251953 C 19.108957 23.430209 19.911277 22.630414 20.535156 21.980469 C 22.941961 20.26931 23 17 23 17 C 23 13.740251 20.586569 12.17185 18.820312 10.710938 L 23 7 L 25 4 C 25 4 22.693 2 19 2 z M 19.513672 6 C 20.016602 6 20.491159 6.0705929 20.923828 6.171875 L 17.425781 9.2773438 C 17.166964 8.8847752 17 8.469251 17 8 C 17 7.087 17.593672 6 19.513672 6 z M 13.011719 7.7226562 C 12.99963 7.8955518 13 8 13 8 C 13 13.033 19 13.794 19 17 C 19 17 18.89275 19 16.46875 19 C 14.04475 19 13 18 13 18 L 12.460938 18.470703 C 12.287357 18.227884 12.096431 18.0034 11.890625 17.814453 C 11.32155 17.291996 10.665765 16.883006 10.056641 16.470703 C 9.4475154 16.058389 8.8900771 15.645341 8.5292969 15.236328 C 8.1685166 14.827315 8 14.478931 8 14 C 8 11.721273 9.4882812 10.826172 9.4882812 10.826172 L 9.4746094 10.804688 L 13.011719 7.7226562 z M 12 22 C 12 22 13.742492 22.892241 16.560547 22.982422 C 14.673782 24.580399 12.370228 26 11 26 C 9.5936631 26 8.6351207 25.622411 7.9550781 25.201172 L 12 22 z"/></svg>