<svg xmlns="http://www.w3.org/2000/svg" width="500" height="500" fill="#000" viewBox="0 0 16 16"><path d="M 7.5 1 C 3.9160714 1 1 3.9160714 1 7.5 C 1 11.083929 3.9160714 14 7.5 14 C 11.083929 14 14 11.083929 14 7.5 C 14 3.9160714 11.083929 1 7.5 1 z M 7.5 2 C 10.543488 2 13 4.4565116 13 7.5 C 13 10.543488 10.543488 13 7.5 13 C 4.4565116 13 2 10.543488 2 7.5 C 2 4.4565116 4.4565116 2 7.5 2 z M 11 7 L 11 7.5 C 11 9.438742 9.438742 11 7.5 11 L 7 11 L 7 12 L 7.5 12 C 9.979258 12 12 9.979258 12 7.5 L 12 7 L 11 7 z"/></svg>