<svg xmlns="http://www.w3.org/2000/svg" width="100" height="100" viewBox="0 0 48 48"><path fill="#2196f3" d="M27 40c0 1.7-1.3 3-3 3s-3-1.3-3-3 1.3-3 3-3S27 38.3 27 40zM2 18.9l3.6 3.6c10.3-9.9 26.6-9.9 36.9 0l3.6-3.6C33.8 7 14.2 7 2 18.9z"/><path fill="#2196f3" d="M8.4,25.3l3.6,3.6c6.8-6.4,17.4-6.4,24.1,0l3.6-3.6C30.9,16.9,17.1,16.9,8.4,25.3z"/><path fill="#2196f3" d="M14.8,31.7l3.6,3.6c3.2-2.9,8.1-2.9,11.3,0l3.5-3.6C28,26.9,20,26.9,14.8,31.7z"/><path fill="#37474f" d="M22 -2.9H26V50.800000000000004H22z" transform="rotate(-45.001 24 24)"/></svg>