<svg xmlns="http://www.w3.org/2000/svg" width="50" height="50" fill="#000" viewBox="0 0 80 80"><path d="M 40 7 C 21.785156 7 7 21.785156 7 40 C 7 58.214844 21.785156 73 40 73 C 58.214844 73 73 58.214844 73 40 C 73 21.785156 58.214844 7 40 7 Z M 40 9 C 57.132813 9 71 22.867188 71 40 C 71 57.132813 57.132813 71 40 71 C 22.867188 71 9 57.132813 9 40 C 9 22.867188 22.867188 9 40 9 Z M 62 39 C 61.449219 39 61 39.449219 61 40 C 61 40.550781 61.449219 41 62 41 C 62.550781 41 63 40.550781 63 40 C 63 39.449219 62.550781 39 62 39 Z M 61.238281 44.695313 C 60.789063 44.699219 60.398438 45.003906 60.28125 45.4375 C 60.140625 45.972656 60.457031 46.519531 60.988281 46.660156 C 61.523438 46.804688 62.070313 46.488281 62.214844 45.953125 C 62.359375 45.421875 62.042969 44.875 61.507813 44.730469 C 61.421875 44.707031 61.332031 44.695313 61.238281 44.695313 Z M 59.003906 50 C 58.664063 50.019531 58.355469 50.207031 58.1875 50.5 C 57.910156 50.980469 58.074219 51.589844 58.550781 51.867188 C 58.78125 52 59.054688 52.035156 59.308594 51.96875 C 59.566406 51.898438 59.785156 51.730469 59.917969 51.5 C 60.050781 51.273438 60.085938 51 60.019531 50.742188 C 59.949219 50.484375 59.78125 50.265625 59.550781 50.136719 C 59.386719 50.039063 59.195313 49.992188 59.003906 50 Z M 55.570313 54.558594 C 55.300781 54.550781 55.039063 54.65625 54.847656 54.847656 C 54.457031 55.238281 54.457031 55.875 54.847656 56.265625 C 55.238281 56.652344 55.871094 56.652344 56.261719 56.265625 C 56.652344 55.875 56.652344 55.238281 56.261719 54.847656 C 56.078125 54.664063 55.832031 54.5625 55.570313 54.558594 Z M 50.972656 58.050781 C 50.808594 58.054688 50.644531 58.101563 50.5 58.1875 C 50.019531 58.460938 49.855469 59.074219 50.132813 59.550781 C 50.410156 60.027344 51.019531 60.195313 51.5 59.917969 C 51.726563 59.785156 51.894531 59.566406 51.964844 59.308594 C 52.035156 59.054688 52 58.78125 51.863281 58.550781 C 51.683594 58.234375 51.339844 58.042969 50.972656 58.050781 Z M 45.730469 60.25 C 45.628906 60.25 45.53125 60.257813 45.433594 60.285156 C 44.898438 60.429688 44.582031 60.976563 44.726563 61.511719 C 44.871094 62.042969 45.417969 62.359375 45.953125 62.21875 C 46.484375 62.074219 46.800781 61.527344 46.65625 60.992188 C 46.542969 60.570313 46.167969 60.269531 45.730469 60.25 Z M 40 61 C 39.449219 61 39 61.449219 39 62 C 39 62.550781 39.449219 63 40 63 C 40.550781 63 41 62.550781 41 62 C 41 61.449219 40.550781 61 40 61 Z"/></svg>