<svg xmlns="http://www.w3.org/2000/svg" viewBox="0 0 48 48" width="50px" height="50px"><path fill="#455a64" d="M11 34c-.6 0-1-.5-1-1V15c0-.6.4-1 1-1 .6 0 1 .4 1 1v18C12 33.5 11.6 34 11 34zM17 34c-.6 0-1-.5-1-1V15c0-.6.5-1 1-1s1 .4 1 1v18C18 33.5 17.5 34 17 34z"/><path fill="#78909c" d="M39,43H9c-1.7,0-3-1.3-3-3v-5c0-1.7,1.3-3,3-3h30c1.7,0,3,1.3,3,3v5C42,41.7,40.7,43,39,43z"/><path fill="#64dd17" d="M13 37.5c0 .8-.7 1.5-1.5 1.5S10 38.3 10 37.5s.7-1.5 1.5-1.5S13 36.7 13 37.5zM18 37.5c0 .8-.7 1.5-1.5 1.5S15 38.3 15 37.5s.7-1.5 1.5-1.5S18 36.7 18 37.5z"/><path fill="#ecf0f1" d="M23 37.5c0 .8-.7 1.5-1.5 1.5S20 38.3 20 37.5s.7-1.5 1.5-1.5S23 36.7 23 37.5zM28 37.5c0 .8-.7 1.5-1.5 1.5S25 38.3 25 37.5s.7-1.5 1.5-1.5S28 36.7 28 37.5z"/><path fill="#3498db" d="M27.4,23.4c-0.3,0-0.6-0.1-0.8-0.3c-0.4-0.4-0.3-1,0.1-1.4c2.1-1.8,3.3-4.3,3.3-7.1 c0-2.7-1.2-5.4-3.3-7.1c-0.4-0.4-0.5-1-0.1-1.4c0.4-0.4,1-0.5,1.4-0.1C30.5,8,32,11.2,32,14.5c0,3.3-1.4,6.5-3.9,8.7 C27.9,23.3,27.6,23.4,27.4,23.4z"/><path fill="#3498db" d="M24.6,20.6c-0.3,0-0.6-0.1-0.8-0.4c-0.3-0.4-0.3-1.1,0.2-1.4c1.3-1,2-2.6,2-4.3c0-1.7-0.7-3.3-2-4.3 c-0.4-0.3-0.5-1-0.2-1.4c0.3-0.4,1-0.5,1.4-0.2c1.8,1.4,2.8,3.5,2.8,5.9c0,2.3-1,4.5-2.8,5.9C25,20.5,24.8,20.6,24.6,20.6z"/><path fill="#3498db" d="M21.7,17.7c-0.4,0-0.7-0.2-0.9-0.6c-0.2-0.5,0-1.1,0.5-1.3c0.4-0.2,0.7-0.8,0.7-1.3 c0-0.6-0.3-1.1-0.7-1.3c-0.5-0.2-0.7-0.8-0.5-1.3c0.2-0.5,0.8-0.7,1.3-0.5c1.2,0.6,1.9,1.7,1.9,3.1c0,1.3-0.7,2.5-1.9,3.1 C22,17.7,21.8,17.7,21.7,17.7z"/></svg>