<svg xmlns="http://www.w3.org/2000/svg" width="500" height="500" viewBox="0 0 48 48"><path fill="#90a4ae" d="M17 32.9L18 39 19 38 20 34z"/><path fill="#ff8f00" d="M24 39.5L24 43.5 25 43.5 25 38.5z"/><path fill="#90a4ae" d="M22,35c0.2,0.6,2,5,2,5l1-1v-5L22,35z"/><path fill="#f57f17" d="M16,3v3.6l1.8-1.3C17.8,5.3,17.5,4.3,16,3z"/><path fill="#ff8f00" d="M18 42L18 39 19 38 19 42.5z"/><path fill="#4a148c" d="M21.6,5.1C21.1,4.5,20.1,4,19.5,4c-3.5,0-8.3,5.1-9.7,8.4C9.1,13.7,7.1,18.9,7,23.5 C6.9,27.2,16,35,21.8,35c3.1,0,11.1-4.5,15.1-9.5C37.4,24.8,41,21,41,21h-1v-1l-1-0.5l0-1.5h-1v-1c-2.1,2.8-6,5-6,5s-6.3-5-9.9-5 c-3.7,0-5.1,1-5.1,1s1.2-3.1,2-4.4c1.3-2.1,3.4-2.8,3.9-4.8C23,8.6,23,8.4,23,8.1c0-0.2,0-0.5-0.1-0.8C22.8,6.8,22.5,6.1,21.6,5.1z"/><path fill="#ff8f00" d="M25.5,45c-0.2,0-0.3-0.1-0.4-0.2l-0.6-0.9l-0.6,0.9c-0.2,0.2-0.5,0.3-0.7,0.1 c-0.2-0.2-0.3-0.5-0.1-0.7l1.4-2.1l1.4,2.1c0.2,0.2,0.1,0.5-0.1,0.7C25.7,45,25.6,45,25.5,45z"/><path fill="#7b1fa2" d="M20 22c0 0 2.9.1 6 .8 2.7.6 5 1.5 5 1.9 0 .7-1.6 2.3-3.5 3.8s-5.8 3.5-7 3.5c-1.4 0-4.5-1.8-4.5-1.8l3-.9-1-1.8 2-.9-1-.9c0 0 2-1.4 2-1.8S20 22 20 22zM9 19c.4 0 1-1 1-1s.1 2.1 1 3l1-2 1 1 1-1c0 0 0 .9 1 2 1.1-.5 2-3 2-3s1.2-3.1 2-4.4c1.5-2.4 4-3 4-5.5 0-.1 0-.2 0-.4 0 0 0-.1 0-.1-.1-.8-.3-1.4-1.4-2.5C21.1 4.5 20.1 4 19.5 4c-3.5 0-8.3 5.1-9.7 8.4-.4.8-1.3 3-1.9 5.6C7.9 18.7 8.9 19 9 19z"/><path fill="#ff8f00" d="M16.5,44c-0.2,0-0.4-0.1-0.4-0.3c-0.1-0.2,0-0.5,0.2-0.7l0.1-0.1h-0.9c-0.3,0-0.5-0.2-0.5-0.5 s0.2-0.5,0.5-0.5h3c0.2,0,0.4,0.2,0.5,0.4s-0.1,0.5-0.3,0.6l-2,1C16.7,44,16.6,44,16.5,44z"/><path fill="#212121" d="M20.8,7.3c-0.4-0.4-1-0.4-1.3-0.1l-2.1,2c-0.4,0.4-0.4,1-0.1,1.4s1,0.4,1.3,0.1l2.1-2 C21.1,8.4,21.1,7.7,20.8,7.3z"/><path fill="#ffe082" d="M20,6c-0.5,0-1,0.2-1.3,0.5l-2.1,2c-0.8,0.7-0.8,2-0.1,2.8c0.4,0.4,0.9,0.7,1.5,0.7 c0.5,0,1-0.2,1.3-0.5l2.1-2c0.8-0.7,0.8-2,0.1-2.8C21.1,6.2,20.6,6,20,6z M20.7,8.7l-2.1,2C18.4,10.9,18.2,11,18,11 c-0.3,0-0.5-0.1-0.7-0.3c-0.4-0.4-0.3-1,0.1-1.4l2.1-2C19.6,7.1,19.8,7,20,7c0.3,0,0.5,0.1,0.7,0.3C21.1,7.7,21.1,8.4,20.7,8.7z"/></svg>