<svg xmlns="http://www.w3.org/2000/svg" viewBox="0 0 48 48" width="100px" height="100px"><path fill="#3f51b5" d="M26.4 24.898L27.309 19H30l-2.123 10H25.5l-1.495-5.938L22.505 29h-2.377L18 19h2.695l.891 6.035L23.02 19h1.959L26.4 24.898zM12.4 24.898L13.309 19H16l-2.123 10H11.5l-1.495-5.938L8.505 29H6.128L4 19h2.695l.891 6.035L9.02 19h1.959L12.4 24.898zM40.4 24.898L41.309 19H44l-2.123 10H39.5l-1.495-5.938L36.505 29h-2.377L32 19h2.695l.891 6.035L37.02 19h1.959L40.4 24.898z"/><path fill="#2196f3" d="M8.5 12H39.5V14H8.5z"/><path fill="#2196f3" d="M8.5 12H39.5V14H8.5zM8.5 34H39.5V36H8.5z"/><path fill="#2196f3" d="M7.426 17c2.085-4.911 6.289-8.714 11.462-10.25-1.965 2.298-3.48 5.898-4.273 10.25h2.048C17.776 11.281 20.182 6.998 23 6.164V17h2V6.164c2.818.833 5.224 5.117 6.337 10.836h2.048c-.793-4.352-2.308-7.952-4.273-10.25 5.173 1.536 9.377 5.339 11.462 10.25h2.137C39.865 9.419 32.563 4 24 4S8.135 9.419 5.289 17H7.426zM40.574 31c-2.085 4.911-6.289 8.714-11.462 10.25 1.965-2.298 3.48-5.898 4.273-10.25h-2.048C30.224 36.719 27.818 41.002 25 41.836V31h-2v10.836c-2.818-.833-5.224-5.117-6.337-10.836h-2.048c.793 4.352 2.308 7.952 4.273 10.25C13.715 39.714 9.511 35.911 7.426 31H5.289C8.135 38.581 15.437 44 24 44s15.865-5.419 18.711-13H40.574z"/><path fill="#f50057" d="M48,38c0,5.5-4.5,10-10,10s-10-4.5-10-10s4.5-10,10-10S48,32.5,48,38"/><path fill="#fce4ec" d="M37.898 41c-.398 0-.797.102-1.098.398C36.5 41.699 36.398 42 36.398 42.5c0 .398.102.801.402 1.102C37.102 43.898 37.5 44 37.898 44c.402 0 .801-.102 1.102-.398.301-.301.398-.602.398-1.102 0-.398-.098-.801-.398-1.102C38.699 41.102 38.301 41 37.898 41zM41 32.801C40.301 32.301 39.301 32 38 32s-2.301.301-3 .898c-.602.602-1 1.402-1 2.5V36h2.898v-.602c0-.398.102-.699.301-1 .199-.199.5-.297.801-.297.699 0 1.102.398 1.102 1.199 0 .301-.102.598-.301.898s-.5.602-1 .902c-.402.297-.699.699-.902 1.199-.199.5-.297.898-.297 1.699H39c0-.398.102-.602.199-.801.102-.301.301-.5.602-.801l1-.898c.398-.398.699-.801.898-1.102C41.898 36 42 35.602 42 35.199 42 34.199 41.699 33.398 41 32.801z"/></svg>