<svg xmlns="http://www.w3.org/2000/svg" width="500" height="500" viewBox="0 0 48 48"><path fill="#3F51B5" d="M42,31.982c0,3.624-2.674,6.015-5.972,6.015H11.971C8.675,37.997,6,35.309,6,31.982v-3.965c0-3.326,2.675-6.015,5.971-6.015h24.058c3.298,0,5.972,2.688,5.972,6.015V31.982z"/><path fill="#3F51B5" d="M24 18A12.191 12 0 1 0 24 42A12.191 12 0 1 0 24 18Z"/><path fill="#FFF" d="M18.64 26L16.399 26 15.715 30.685 14.867 26.021 12.854 26.021 11.984 30.685 11.318 26.021 9.038 26.021 10.947 34 12.957 34 13.83 29.082 14.72 34 16.751 34zM20 28H22V34H20zM22 26.004C22 26.555 21.552 27 21 27c-.551 0-1-.445-1-.996C20 25.447 20.449 25 21 25 21.552 25 22 25.447 22 26.004zM36.102 23.599c-3.944 0-6.832 0-6.832 0s-4.567.159-4.567 4.734v3.47c0 0 .199 2.349-2.339 4.599h13.918c0 0 4.268 0 4.268-4.444 0-3.901 0-3.901 0-3.901S40.363 23.599 36.102 23.599zM34 27.896h-4.624v1.789h4.169v1.877h-4.169V34h-2.199v-8H34V27.896zM37 25c.551 0 .999.447.999 1.002C37.999 26.555 37.551 27 37 27c-.553 0-1.001-.445-1.001-.998C35.999 25.447 36.447 25 37 25zM38 34h-2v-6h2V34z"/><g><path fill="#283593" d="M6 15V6h2.274c1.004 0 1.804.334 2.401 1.002.596.666.9 1.582.912 2.743v1.459c0 1.184-.298 2.112-.895 2.785C10.095 14.663 9.274 15 8.227 15H6zM7.736 7.516v5.976h.52c.58 0 .987-.158 1.223-.479.236-.318.359-.87.372-1.653V9.796c0-.84-.112-1.427-.336-1.76C9.29 7.704 8.908 7.531 8.368 7.516H7.736zM15 15h-1.695V6H15V15zM18.639 11.712h-.861V15H16V6h2.811c.87 0 1.542.236 2.016.707.475.473.712 1.144.712 2.013 0 1.195-.416 2.032-1.246 2.51l1.506 3.685V15h-1.865L18.639 11.712zM17.778 10.197h.985c.347 0 .607-.12.78-.361.173-.241.26-.563.26-.968 0-.901-.337-1.353-1.01-1.353h-1.015V10.197zM27.482 11.106h-2.704v2.385h3.2V15h-4.937V6h4.925v1.516h-3.188v2.125h2.704V11.106zM35.029 11.962c-.045.999-.319 1.755-.826 2.268C33.693 14.744 32.977 15 32.053 15c-.973 0-1.719-.325-2.235-.978-.519-.651-.776-1.581-.776-2.787V9.761c0-1.204.268-2.132.803-2.783S31.124 6 32.076 6c.938 0 1.648.268 2.135.801s.763 1.299.83 2.297h-1.742c-.016-.617-.109-1.043-.281-1.277-.171-.235-.484-.352-.941-.352-.465 0-.793.165-.986.496-.193.33-.295.875-.307 1.633v1.655c0 .868.095 1.468.285 1.792.192.324.52.487.984.487.457 0 .771-.113.945-.341.172-.225.271-.636.295-1.229H35.029zM42 7.516h-2.126V15h-1.741V7.516h-2.092V6H42V7.516z"/></g></svg>