<svg xmlns="http://www.w3.org/2000/svg" width="300" height="300" viewBox="0 0 48 48"><path fill="#cfd8dc" d="M9.5 40A2.5 2.5 0 1 0 9.5 45 2.5 2.5 0 1 0 9.5 40zM18.5 35A3.5 3.5 0 1 0 18.5 42 3.5 3.5 0 1 0 18.5 35zM44 19c0-3.377-2.095-6.259-5.054-7.433C38.482 7.312 34.879 4 30.5 4c-2.387 0-4.54.987-6.084 2.571C22.875 4.412 20.355 3 17.5 3 12.806 3 9 6.806 9 11.5c0 .022.003.044.003.066C6.005 13.415 4 16.719 4 20.5 4 26.299 8.701 31 14.5 31c2.044 0 3.946-.594 5.559-1.604C21.8 31.589 24.483 33 27.5 33c4.016 0 7.442-2.495 8.832-6.017C40.595 26.808 44 23.306 44 19z"/></svg>