<svg xmlns="http://www.w3.org/2000/svg" width="500" height="500" viewBox="0 0 48 48"><path fill="#B0BEC5" d="M5,8c-1.104,0-2,0.896-2,2v28c0,1.104,0.896,2,2,2h19V8H5z"/><path fill="#37474F" d="M45 38V10c0-1.104-.896-2-2-2H24v32h19C44.104 40 45 39.104 45 38zM19 30c0 .553-.447 1-1 1H9c-.553 0-1-.447-1-1V17c0-.552.447-1 1-1h9c.553 0 1 .448 1 1V30z"/><path fill="#78909C" d="M30.5 12A2.5 2.5 0 1 0 30.5 17 2.5 2.5 0 1 0 30.5 12zM38.5 12A2.5 2.5 0 1 0 38.5 17 2.5 2.5 0 1 0 38.5 12zM30.5 20A2.5 2.5 0 1 0 30.5 25 2.5 2.5 0 1 0 30.5 20zM38.5 20A2.5 2.5 0 1 0 38.5 25 2.5 2.5 0 1 0 38.5 20zM30.5 32A2.5 2.5 0 1 0 30.5 37 2.5 2.5 0 1 0 30.5 32zM38.5 32A2.5 2.5 0 1 0 38.5 37 2.5 2.5 0 1 0 38.5 32z"/><g><path fill="#212121" d="M30.5 13.5A1 1 0 1 0 30.5 15.5 1 1 0 1 0 30.5 13.5zM38.5 13.5A1 1 0 1 0 38.5 15.5 1 1 0 1 0 38.5 13.5zM30.5 21.5A1 1 0 1 0 30.5 23.5 1 1 0 1 0 30.5 21.5zM38.5 21.5A1 1 0 1 0 38.5 23.5 1 1 0 1 0 38.5 21.5zM30.5 33.5A1 1 0 1 0 30.5 35.5 1 1 0 1 0 30.5 33.5zM38.5 33.5A1 1 0 1 0 38.5 35.5 1 1 0 1 0 38.5 33.5z"/></g><g><path fill="#76FF03" d="M30.5 28A1 1 0 1 0 30.5 30 1 1 0 1 0 30.5 28zM38.5 28A1 1 0 1 0 38.5 30 1 1 0 1 0 38.5 28z"/></g><path fill="#2196F3" d="M10 18H17V34H10z"/><path fill="#1976D2" d="M10 27H17V29H10z"/></svg>