<svg xmlns="http://www.w3.org/2000/svg" width="300" height="300" fill="#000" viewBox="0 0 32 32"><path d="M 16 3 L 4 8 L 4 18.75 L 9.03125 21.371094 C 9.011719 21.578125 9 21.789063 9 22 C 9 25.859375 12.140625 29 16 29 C 19.859375 29 23 25.859375 23 22 C 23 21.789063 22.988281 21.578125 22.96875 21.371094 L 28 18.75 L 28 8 Z M 16 5.167969 L 24.4375 8.683594 L 19.507813 11.136719 L 18 10.382813 L 18 8 L 15.003906 8.613281 L 14.996094 7 L 13.394531 6.25 Z M 12.105469 6.789063 L 14 7.667969 L 14.015625 10 L 17 9.390625 L 17 11 L 18.390625 11.691406 L 16 12.882813 L 7.554688 8.6875 Z M 6 10.148438 L 15 14.621094 L 15 22.222656 L 6 17.535156 Z M 26 10.148438 L 26 17.535156 L 17 22.222656 L 17 14.621094 Z M 11.042969 22.417969 L 16 25 L 20.957031 22.417969 C 20.738281 24.976563 18.613281 27 16 27 C 13.386719 27 11.261719 24.976563 11.042969 22.417969 Z"/></svg>