<svg xmlns="http://www.w3.org/2000/svg" width="50" height="50" viewBox="0 0 48 48"><path fill="#F50057" d="M10,18c0-7.731,6.268-14,14-14c7.732,0,14,6.269,14,14c0,7.732-14,26-14,26S10,25.732,10,18z"/><path fill="#FCE4EC" d="M21.898 23h-2.01v-9.953h2.01V23zM25.597 19.5V23h-2.01v-9.953h3.391c.984 0 1.77.306 2.354.916.586.61.879 1.403.879 2.379s-.289 1.745-.868 2.311S27.962 19.5 26.937 19.5H25.597zM25.597 17.825h1.381c.383 0 .679-.125.889-.376s.314-.615.314-1.094c0-.497-.106-.893-.321-1.186-.215-.295-.502-.443-.861-.448h-1.401V17.825z"/></svg>