<svg xmlns="http://www.w3.org/2000/svg" width="100" height="100" viewBox="0 0 48 48"><path fill="#00acc1" d="M24,44C13,44,4,35,4,24S13,4,24,4s20,9,20,20S35,44,24,44z"/><path fill="#00bcd4" d="M27.999,41.514c-0.451,0-0.86-0.307-0.971-0.765c-0.129-0.537,0.2-1.077,0.737-1.207 c5.847-1.414,10.356-5.927,11.77-11.776c0.13-0.537,0.671-0.867,1.207-0.737c0.537,0.129,0.867,0.67,0.737,1.206 c-1.59,6.583-6.665,11.66-13.244,13.251C28.156,41.505,28.077,41.514,27.999,41.514z"/><path fill="#26c6da" d="M19.43,8.57c-1.407-1.407-4.98-0.117-7.979,2.882c-2.999,2.999-4.289,6.571-2.882,7.979 c1.407,1.407,4.98,0.117,7.979-2.882C19.548,13.549,20.838,9.977,19.43,8.57z"/></svg>