<svg xmlns="http://www.w3.org/2000/svg" width="300" height="300" fill="#000" viewBox="0 0 50 50"><path d="M 24.90625 1 C 24.796875 1.015625 24.691406 1.046875 24.59375 1.09375 L 4.8125 9.59375 C 4.703125 9.617188 4.597656 9.660156 4.5 9.71875 C 4.324219 9.820313 4.179688 9.972656 4.09375 10.15625 C 4.082031 10.167969 4.074219 10.175781 4.0625 10.1875 C 4.035156 10.246094 4.015625 10.3125 4 10.375 C 4 10.394531 4 10.417969 4 10.4375 C 3.972656 10.570313 3.972656 10.710938 4 10.84375 C 4.007813 10.886719 4.019531 10.929688 4.03125 10.96875 L 5.28125 30.4375 C 5.296875 30.734375 5.445313 31.011719 5.6875 31.1875 L 13.09375 36.5625 C 12.96875 37.175781 12.875 37.773438 12.875 38.375 C 12.875 44.226563 18.324219 49 25 49 C 31.675781 49 37.09375 44.230469 37.09375 38.375 C 37.09375 37.785156 37.023438 37.195313 36.90625 36.59375 L 44.3125 31.1875 C 44.554688 31.011719 44.703125 30.734375 44.71875 30.4375 L 46 10.78125 L 46 10.75 C 46.003906 10.6875 46.003906 10.625 46 10.5625 C 46 10.550781 46 10.542969 46 10.53125 C 46 10.511719 46 10.488281 46 10.46875 C 46 10.457031 46 10.449219 46 10.4375 C 45.984375 10.339844 45.953125 10.246094 45.90625 10.15625 C 45.878906 10.101563 45.847656 10.050781 45.8125 10 C 45.792969 9.976563 45.773438 9.957031 45.75 9.9375 C 45.75 9.925781 45.75 9.917969 45.75 9.90625 C 45.703125 9.859375 45.648438 9.816406 45.59375 9.78125 C 45.535156 9.742188 45.472656 9.710938 45.40625 9.6875 L 45.21875 9.625 L 25.40625 1.09375 C 25.25 1.019531 25.078125 0.988281 24.90625 1 Z M 25 3.09375 L 42.78125 10.71875 L 25 20.84375 L 7.21875 10.71875 Z M 25 5.71875 L 21.96875 7.03125 L 23.125 7.75 C 23.253906 7.832031 23.328125 7.972656 23.34375 8.125 C 23.359375 8.277344 23.296875 8.425781 23.1875 8.53125 L 21.46875 10.1875 L 25.96875 8.34375 C 26.179688 8.257813 26.425781 8.3125 26.5625 8.5 C 26.699219 8.6875 26.679688 8.949219 26.53125 9.125 L 25.15625 10.75 L 27.34375 9.96875 C 27.539063 9.898438 27.738281 9.96875 27.875 10.125 C 28.007813 10.28125 28.035156 10.503906 27.9375 10.6875 L 26.65625 13.15625 L 29.90625 15.0625 L 37.15625 10.9375 Z M 20.84375 7.5 L 12.84375 10.9375 L 25 17.84375 L 28.90625 15.625 L 25.71875 13.75 C 25.488281 13.613281 25.40625 13.332031 25.53125 13.09375 L 26.46875 11.34375 L 23.71875 12.3125 C 23.503906 12.390625 23.285156 12.3125 23.15625 12.125 C 23.027344 11.9375 23.042969 11.703125 23.1875 11.53125 L 24.4375 10.03125 L 19.375 12.125 C 19.152344 12.21875 18.882813 12.140625 18.75 11.9375 C 18.617188 11.734375 18.667969 11.476563 18.84375 11.3125 L 22.03125 8.25 Z M 6.09375 12.375 L 24 22.5625 L 24 42.03125 L 7.25 29.84375 Z M 43.90625 12.375 L 42.75 29.84375 L 26 42.03125 L 26 22.5625 Z M 40.96875 16.875 L 28.59375 24.40625 L 28.375 37.15625 L 40.03125 29 Z M 8.96875 17.09375 L 9.78125 28.5625 L 21.09375 36.65625 L 20.8125 24.46875 Z"/></svg>