<svg xmlns="http://www.w3.org/2000/svg" width="500" height="500" viewBox="0 0 48 48"><path fill="#5c6bc0" d="M42 24H44V38H42z"/><path fill="#5c6bc0" d="M43 37A2 2 0 1 0 43 41A2 2 0 1 0 43 37Z"/><path fill="#ffa726" d="M29,33c0,1.106-0.896,2-2,2c-1.106,0-2-0.894-2-2c0-1.105,0.894-2,2-2C28.104,31,29,31.895,29,33 M11,33c0-1.105-0.896-2-2-2c-1.106,0-2,0.895-2,2c0,1.106,0.894,2,2,2C10.104,35,11,34.106,11,33"/><path fill="#ffb74d" d="M27,27c0-7.635-18-4.971-18,0v7c0,4.971,4.028,9,9,9c4.971,0,9-4.029,9-9V27z"/><path fill="#424242" d="M18,18c-6.075,0-10,4.926-10,11v2.285L10,33v-5l12-4l4,4v5l2-1.742V29c0-4.025-1.038-8.016-6-9l-1-2H18z"/><path fill="#784719" d="M21 33c0 .551.448 1 1 1s1-.449 1-1c0-.551-.448-1-1-1S21 32.449 21 33M13 33c0 .551.448 1 1 1 .552 0 1-.449 1-1 0-.551-.448-1-1-1C13.448 32 13 32.449 13 33"/><path fill="#9fa8da" d="M30 27H46V29H30zM28 25H30V31H28z"/><path fill="#9fa8da" d="M40 26H46V30H40z"/><path fill="#f44336" d="M27,6H11c-4.971,0-9,4-9,9s4,16,4,16h2l0,0V15c0-1.106,0.895-2,2-2h18c1.104,0,2,0.894,2,2v16l0,0h2c0,0,4-11,4-16S31.971,6,27,6z"/><path fill="#b71c1c" d="M28,11H10c-2.209,0-4,1.791-4,4v16h2V15c0-1.106,0.895-2,2-2h18c1.104,0,2,0.894,2,2v16h2V15C32,12.791,30.209,11,28,11z" opacity=".55"/></svg>