<svg xmlns="http://www.w3.org/2000/svg" width="500" height="500" viewBox="0 0 48 48"><path fill="#FFC107" d="M38,42H10c-2.209,0-4-1.791-4-4V10c0-2.209,1.791-4,4-4h28c2.209,0,4,1.791,4,4v28C42,40.209,40.209,42,38,42"/><path fill="#FFF" d="M14.553,34.205l-0.019,0.234c-0.071,0.788-0.044,1.138,0.303,1.262c0.638,0.186,1.316,0.345,1.988,0.503l0.765,0.181l0.485,0.028c1.186,0.085,2.438,0.135,3.368-0.052l0.396-0.081c1.226-0.25,1.786-0.364,2.567-0.884c1.152-0.762,2.206-1.626,3.131-2.57c0.223-0.225,0.455-0.444,0.689-0.665c0.701-0.66,1.426-1.343,1.872-2.146c0.112-0.204,0.22-0.391,0.322-0.566c0.465-0.805,0.771-1.336,0.909-2.465c0.188-1.573-0.091-3.039-0.784-4.124c-0.465-0.728-1.573-1.628-2.306-2.224c-0.824-0.671-1.073-0.873-1.073-1.213c0.003-0.386,0.216-0.572,2.539-2.224c0.675-0.479,1.368-0.972,1.878-1.364c0.689-0.885,1.203-2.52,1.152-2.836c-0.141-0.243-1.313-0.729-1.813-0.936l-0.333-0.139c-0.776-0.352-1.692-0.425-2.326-0.425c-0.538,0-0.974,0.052-1.245,0.096c-0.662,0.108-1.449,0.472-2.212,0.823c-0.329,0.151-0.655,0.302-0.972,0.434c-0.634,0.228-1.099,0.708-1.591,1.216c-0.172,0.178-0.343,0.354-0.519,0.52c-0.847,0.756-1.673,1.554-2.471,2.326c-0.759,0.733-1.52,1.469-2.305,2.178c-0.077,0.071-0.155,0.136-0.23,0.198c-0.206,0.17-0.331,0.272-0.491,0.617c-0.241,0.52-0.717,2.701-0.293,4c0.161,0.496,0.514,0.91,0.888,1.35c0.223,0.262,0.444,0.524,0.635,0.806c0.336,0.467,0.837,0.823,1.368,1.2c0.331,0.234,0.672,0.477,0.986,0.759c0.222,0.153,0.358,0.427,0.36,0.732c0.002,0.322-0.145,0.6-0.393,0.741c-0.662,0.531-1.432,1.038-2.178,1.528c-0.853,0.561-1.734,1.141-2.517,1.806c-0.229,0.17-0.301,0.437-0.396,0.858C14.648,33.863,14.607,34.039,14.553,34.205z"/><path fill="#263238" d="M31.938,16.193c0.748-0.924,1.402-2.789,1.287-3.301c-0.109-0.52-1.582-1.064-2.439-1.428c-1.198-0.544-2.81-0.529-3.845-0.363c-1.026,0.168-2.215,0.84-3.297,1.289c-0.953,0.342-1.562,1.178-2.26,1.832c-1.628,1.452-3.144,3.03-4.77,4.498c-0.317,0.295-0.568,0.391-0.84,0.977c-0.271,0.582-0.788,2.914-0.315,4.365c0.294,0.903,1.065,1.513,1.584,2.28c0.634,0.88,1.673,1.355,2.464,2.077c0.204,0.112,0.227,0.525,0.024,0.641c-1.539,1.219-3.279,2.121-4.771,3.388c-0.52,0.381-0.498,1.088-0.701,1.653c-0.045,0.721-0.273,1.756,0.609,2.07c0.926,0.271,1.878,0.475,2.803,0.699c1.357,0.09,2.734,0.25,4.07-0.02c1.533-0.317,2.191-0.408,3.141-1.039c1.152-0.762,2.237-1.644,3.211-2.637c0.903-0.906,2.004-1.771,2.642-2.918c0.645-1.167,1.109-1.726,1.291-3.214c0.18-1.503-0.023-3.146-0.859-4.454c-0.835-1.308-3.3-2.906-3.3-3.167C27.669,19.167,30.537,17.277,31.938,16.193z M15.503,32.76c0.701-0.583,1.518-1.058,2.262-1.6c0.998-0.633,1.899-1.446,2.961-1.988c-0.112,0.497-0.203,1.016-0.271,1.512c-1.967,1.131-3.504,2.828-5.379,4.094C15.12,34.123,14.918,33.266,15.503,32.76z M21.97,36.122c-2.492,0.651-6.633-0.179-6.691-0.517c-0.079-0.457,1.109-0.941,1.652-1.392c1.172-0.948,2.283-2.015,3.635-2.717c0.365-0.226,0.772,0,1.111,0.137c1.354,0.607,2.868,0.835,4.34,0.654c0.791-0.181,1.584-0.386,2.353-0.587C26.513,33.467,24.575,35.436,21.97,36.122z M27.894,27.316c-0.433,0.832-1.336,1.428-2.284,1.402c-1.289-0.16-2.603-0.39-3.864-0.658c-0.428-0.111-0.813,0.111-1.2,0.246c-0.834-0.854-1.92-1.396-2.78-2.233c-0.723-0.7-1.377-1.49-1.721-2.445c-0.178-0.858-0.111-1.735,0.114-2.573c0.138-0.518,0.183-1.106,0.635-1.492c1.65-1.473,3.097-3.146,4.884-4.453c-0.496,1.445-0.09,3.05,0.698,4.341c1.246,1.942,3.011,3.479,4.884,4.817C28.277,24.877,28.593,26.343,27.894,27.316z M27.259,18.746c-0.769,0.404-1.354-0.43-1.535-1.061c-0.455-0.86,0.09-1.854,0.856-2.304c1.358-1.022,4.404,0.087,4.5,0.341C31.176,15.971,28.642,17.887,27.259,18.746z"/></svg>