<svg xmlns="http://www.w3.org/2000/svg" viewBox="0 0 80 80" width="300px" height="300px"><path fill="#4e7ab5" d="M40,29c6.065,0,11,4.935,11,11s-4.935,11-11,11s-11-4.935-11-11S33.935,29,40,29 M40,26 c-7.732,0-14,6.268-14,14s6.268,14,14,14s14-6.268,14-14S47.732,26,40,26L40,26z"/><path fill="#8bb7f0" d="M40,16c13.234,0,24,10.766,24,24S53.234,64,40,64S16,53.234,16,40S26.766,16,40,16 M40,14 c-14.359,0-26,11.641-26,26s11.641,26,26,26s26-11.641,26-26S54.359,14,40,14L40,14z"/><path fill="#8bb7f0" d="M40,16c13.234,0,24,10.766,24,24S53.234,64,40,64S16,53.234,16,40S26.766,16,40,16 M40,14 c-14.359,0-26,11.641-26,26s11.641,26,26,26s26-11.641,26-26S54.359,14,40,14L40,14z"/><path fill="#4e7ab5" d="M40 3A1 1 0 1 0 40 5 1 1 0 1 0 40 3zM4 39A1 1 0 1 0 4 41 1 1 0 1 0 4 39zM4.59 32.476A1 1 0 1 0 4.59 34.476 1 1 0 1 0 4.59 32.476zM6.287 26.357A1 1 0 1 0 6.287 28.357 1 1 0 1 0 6.287 26.357zM8.981 20.741A1 1 0 1 0 8.981 22.741 1 1 0 1 0 8.981 20.741zM12.565 15.722999999999999A1 1 0 1 0 12.565 17.723 1 1 0 1 0 12.565 15.722999999999999zM16.929 11.401A1 1 0 1 0 16.929 13.401 1 1 0 1 0 16.929 11.401zM21.963 7.869999999999999A1 1 0 1 0 21.963 9.87 1 1 0 1 0 21.963 7.869999999999999zM27.559 5.229A1 1 0 1 0 27.559 7.229 1 1 0 1 0 27.559 5.229zM33.608 3.5730000000000004A1 1 0 1 0 33.608 5.573 1 1 0 1 0 33.608 3.5730000000000004zM46.524 3.59A1 1 0 1 0 46.524 5.59 1 1 0 1 0 46.524 3.59zM52.643 5.287A1 1 0 1 0 52.643 7.287 1 1 0 1 0 52.643 5.287zM58.259 7.981A1 1 0 1 0 58.259 9.981 1 1 0 1 0 58.259 7.981zM63.277 11.565A1 1 0 1 0 63.277 13.565 1 1 0 1 0 63.277 11.565zM67.599 15.928999999999998A1 1 0 1 0 67.599 17.929 1 1 0 1 0 67.599 15.928999999999998zM71.13 20.963A1 1 0 1 0 71.13 22.963 1 1 0 1 0 71.13 20.963zM73.771 26.559A1 1 0 1 0 73.771 28.559 1 1 0 1 0 73.771 26.559zM75.427 32.608A1 1 0 1 0 75.427 34.608 1 1 0 1 0 75.427 32.608zM76 39A1 1 0 1 0 76 41 1 1 0 1 0 76 39zM75.41 45.524A1 1 0 1 0 75.41 47.524 1 1 0 1 0 75.41 45.524zM73.713 51.643A1 1 0 1 0 73.713 53.643 1 1 0 1 0 73.713 51.643zM71.019 57.259A1 1 0 1 0 71.019 59.259 1 1 0 1 0 71.019 57.259zM67.435 62.277A1 1 0 1 0 67.435 64.277 1 1 0 1 0 67.435 62.277zM63.071 66.599A1 1 0 1 0 63.071 68.599 1 1 0 1 0 63.071 66.599zM58.037 70.13A1 1 0 1 0 58.037 72.13 1 1 0 1 0 58.037 70.13zM52.441 72.771A1 1 0 1 0 52.441 74.771 1 1 0 1 0 52.441 72.771zM46.392 74.427A1 1 0 1 0 46.392 76.427 1 1 0 1 0 46.392 74.427zM40 75A1 1 0 1 0 40 77 1 1 0 1 0 40 75zM33.476 74.41A1 1 0 1 0 33.476 76.41 1 1 0 1 0 33.476 74.41zM27.357 72.713A1 1 0 1 0 27.357 74.713 1 1 0 1 0 27.357 72.713zM21.741 70.019A1 1 0 1 0 21.741 72.019 1 1 0 1 0 21.741 70.019zM16.723 66.435A1 1 0 1 0 16.723 68.435 1 1 0 1 0 16.723 66.435zM12.401 62.071A1 1 0 1 0 12.401 64.071 1 1 0 1 0 12.401 62.071zM8.87 57.037A1 1 0 1 0 8.87 59.037 1 1 0 1 0 8.87 57.037zM6.229 51.441A1 1 0 1 0 6.229 53.441 1 1 0 1 0 6.229 51.441zM4.573 45.392A1 1 0 1 0 4.573 47.392 1 1 0 1 0 4.573 45.392z"/></svg>