<svg xmlns="http://www.w3.org/2000/svg" width="500" height="500" viewBox="0 0 100 100"><path fill="#c7ede6" d="M87.215,56.71C88.35,54.555,89,52.105,89,49.5c0-6.621-4.159-12.257-10.001-14.478 C78.999,35.015,79,35.008,79,35c0-11.598-9.402-21-21-21c-9.784,0-17.981,6.701-20.313,15.757C36.211,29.272,34.638,29,33,29 c-7.692,0-14.023,5.793-14.89,13.252C12.906,43.353,9,47.969,9,53.5C9,59.851,14.149,65,20.5,65c0.177,0,0.352-0.012,0.526-0.022 C21.022,65.153,21,65.324,21,65.5C21,76.822,30.178,86,41.5,86c6.437,0,12.175-2.972,15.934-7.614C59.612,80.611,62.64,82,66,82 c4.65,0,8.674-2.65,10.666-6.518C77.718,75.817,78.837,76,80,76c6.075,0,11-4.925,11-11C91,61.689,89.53,58.727,87.215,56.71z"/><path fill="#fff" d="M70.405,27H60.5c-0.276,0-0.5-0.224-0.5-0.5s0.224-0.5,0.5-0.5h9.905c0.276,0,0.5,0.224,0.5,0.5 S70.682,27,70.405,27z"/><path fill="#fff" d="M73.5,27h-1c-0.276,0-0.5-0.224-0.5-0.5s0.224-0.5,0.5-0.5h1c0.276,0,0.5,0.224,0.5,0.5 S73.777,27,73.5,27z"/><path fill="#fff" d="M78.491,29H69.5c-0.276,0-0.5-0.224-0.5-0.5s0.224-0.5,0.5-0.5h8.991c0.276,0,0.5,0.224,0.5,0.5 S78.767,29,78.491,29z"/><path fill="#fff" d="M67.5,29h-1c-0.276,0-0.5-0.224-0.5-0.5s0.224-0.5,0.5-0.5h1c0.276,0,0.5,0.224,0.5,0.5 S67.777,29,67.5,29z"/><path fill="#fff" d="M64.5,29h-2c-0.276,0-0.5-0.224-0.5-0.5s0.224-0.5,0.5-0.5h2c0.276,0,0.5,0.224,0.5,0.5 S64.777,29,64.5,29z"/><path fill="#fff" d="M70.5,31h-2c-0.276,0-0.5-0.224-0.5-0.5s0.224-0.5,0.5-0.5h2c0.276,0,0.5,0.224,0.5,0.5 S70.776,31,70.5,31z"/><path fill="#fff" d="M73.5,22c-0.177,0-0.823,0-1,0c-0.276,0-0.5,0.224-0.5,0.5c0,0.276,0.224,0.5,0.5,0.5 c0.177,0,0.823,0,1,0c0.276,0,0.5-0.224,0.5-0.5C74,22.224,73.776,22,73.5,22z"/><path fill="#fff" d="M73.5,24c-0.177,0-4.823,0-5,0c-0.276,0-0.5,0.224-0.5,0.5c0,0.276,0.224,0.5,0.5,0.5 c0.177,0,4.823,0,5,0c0.276,0,0.5-0.224,0.5-0.5C74,24.224,73.776,24,73.5,24z"/><path fill="#fff" d="M78.5,26c-0.177,0-2.823,0-3,0c-0.276,0-0.5,0.224-0.5,0.5c0,0.276,0.224,0.5,0.5,0.5 c0.177,0,2.823,0,3,0c0.276,0,0.5-0.224,0.5-0.5C79,26.224,78.776,26,78.5,26z"/><g><path fill="#fff" d="M32.5,76h-10c-0.276,0-0.5-0.224-0.5-0.5s0.224-0.5,0.5-0.5h10c0.276,0,0.5,0.224,0.5,0.5 S32.776,76,32.5,76z"/><path fill="#fff" d="M36.5,76h-2c-0.276,0-0.5-0.224-0.5-0.5s0.224-0.5,0.5-0.5h2c0.276,0,0.5,0.224,0.5,0.5 S36.776,76,36.5,76z"/><path fill="#fff" d="M41.5,78h-10c-0.276,0-0.5-0.224-0.5-0.5s0.224-0.5,0.5-0.5h10c0.276,0,0.5,0.224,0.5,0.5 S41.777,78,41.5,78z"/><path fill="#fff" d="M29.5,78h-1c-0.276,0-0.5-0.224-0.5-0.5s0.224-0.5,0.5-0.5h1c0.276,0,0.5,0.224,0.5,0.5 S29.776,78,29.5,78z"/><path fill="#fff" d="M26.47,78H24.5c-0.276,0-0.5-0.224-0.5-0.5s0.224-0.5,0.5-0.5h1.97c0.276,0,0.5,0.224,0.5,0.5 S26.746,78,26.47,78z"/><path fill="#fff" d="M35.5,74h-5c-0.276,0-0.5-0.224-0.5-0.5s0.224-0.5,0.5-0.5h5c0.276,0,0.5,0.224,0.5,0.5 S35.777,74,35.5,74z"/><path fill="#fff" d="M32.5,80h-2c-0.276,0-0.5-0.224-0.5-0.5s0.224-0.5,0.5-0.5h2c0.276,0,0.5,0.224,0.5,0.5 S32.776,80,32.5,80z"/></g><g><path fill="#fdfcef" d="M38.625,35.5c0,0,3.64,0,6.125,0s4.5-2.015,4.5-4.5c0-2.333-1.782-4.229-4.055-4.455 c0.022-0.181,0.055-0.358,0.055-0.545c0-2.485-2.015-4.5-4.5-4.5c-1.438,0-2.703,0.686-3.527,1.736 C37.083,20.6,34.921,18.5,32.25,18.5c-2.761,0-5,2.239-5,5c0,0.446,0.077,0.87,0.187,1.282c-0.642-0.777-1.6-1.282-2.687-1.282 c-1.781,0-3.234,1.335-3.455,3.055c-0.181-0.022-0.358-0.055-0.545-0.055c-2.485,0-4.5,2.015-4.5,4.5s2.015,4.5,4.5,4.5 s9.5,0,9.5,0h5.375V36h3V35.5z"/><path fill="#472b29" d="M32.25,18c-3.033,0-5.5,2.467-5.5,5.5c0,0.016,0,0.031,0,0.047c-0.602-0.354-1.29-0.547-2-0.547 c-1.831,0-3.411,1.261-3.858,3.005C20.845,26.002,20.798,26,20.75,26c-2.757,0-5,2.243-5,5s2.243,5,5,5h14.875 c0.276,0,0.5-0.224,0.5-0.5s-0.224-0.5-0.5-0.5H20.75c-2.206,0-4-1.794-4-4s1.794-4,4-4c0.117,0,0.23,0.017,0.343,0.032 l0.141,0.019c0.021,0.003,0.041,0.004,0.062,0.004c0.246,0,0.462-0.185,0.495-0.437C21.982,25.125,23.254,24,24.75,24 c0.885,0,1.723,0.401,2.301,1.1c0.098,0.118,0.241,0.182,0.386,0.182c0.078,0,0.156-0.018,0.228-0.056 c0.209-0.107,0.314-0.346,0.254-0.573c-0.116-0.436-0.17-0.802-0.17-1.153c0-2.481,2.019-4.5,4.5-4.5 c2.381,0,4.347,1.872,4.474,4.263c0.011,0.208,0.15,0.387,0.349,0.45c0.05,0.016,0.101,0.024,0.152,0.024 c0.15,0,0.296-0.069,0.392-0.192C38.388,22.563,39.529,22,40.75,22c2.206,0,4,1.794,4,4c0,0.117-0.017,0.23-0.032,0.343 l-0.019,0.141c-0.016,0.134,0.022,0.268,0.106,0.373c0.084,0.105,0.207,0.172,0.34,0.185c2.055,0.205,3.604,1.906,3.604,3.958 c0,2.206-1.794,4-4,4h-6.125c-0.276,0-0.5,0.224-0.5,0.5s0.224,0.5,0.5,0.5h6.125c2.757,0,5-2.243,5-5 c0-2.397-1.689-4.413-4.003-4.877c0.002-0.041,0.003-0.082,0.003-0.123c0-2.757-2.243-5-5-5c-1.176,0-2.293,0.416-3.183,1.164 C36.969,19.76,34.805,18,32.25,18L32.25,18z"/><path fill="#472b29" d="M30.75,25c-1.403,0-2.609,0.999-2.913,2.341C27.47,27.119,27.051,27,26.625,27 c-1.202,0-2.198,0.897-2.353,2.068C24.069,29.022,23.876,29,23.687,29c-1.529,0-2.811,1.2-2.918,2.732 C20.76,31.87,20.864,31.99,21.001,32c0.006,0,0.012,0,0.018,0c0.13,0,0.24-0.101,0.249-0.232c0.089-1.271,1.151-2.268,2.419-2.268 c0.229,0,0.47,0.042,0.738,0.127c0.022,0.007,0.045,0.01,0.067,0.01c0.055,0,0.11-0.02,0.156-0.054 c0.064-0.047,0.102-0.129,0.102-0.209c0-1.034,0.841-1.875,1.875-1.875c0.447,0,0.885,0.168,1.231,0.473 c0.047,0.041,0.106,0.063,0.165,0.063c0.032,0,0.063-0.006,0.093-0.019c0.088-0.035,0.148-0.117,0.155-0.212 c0.102-1.292,1.191-2.305,2.479-2.305c0.208,0,0.425,0.034,0.682,0.107c0.023,0.007,0.047,0.01,0.07,0.01 c0.109,0,0.207-0.073,0.239-0.182c0.038-0.133-0.039-0.271-0.172-0.309C31.267,25.04,31.006,25,30.75,25L30.75,25z"/></g><g><path fill="#8889b9" d="M21.5,47.295l9.722-10.97c1.944-1.995,8.053-7.421,7.778,4.986c0,3.989-2.898,4.889-1.944,0 c0.972-4.986-0.575-6.331-2.917-3.989c-2.431,2.431-3.889,10.97-3.889,10.97l-8.75,15.52V47.295z"/><path fill="#472b29" d="M21,65.718V47.106l9.849-11.112c1.735-1.782,4.199-3.712,6.182-2.881 c1.768,0.742,2.576,3.428,2.47,8.21c0,1.788-0.581,3.283-1.444,3.711c-0.368,0.181-0.754,0.15-1.062-0.085 c-0.649-0.496-0.802-1.822-0.43-3.733c0.563-2.887,0.209-4.207-0.267-4.459c-0.355-0.192-1.049,0.164-1.806,0.919 c-2.292,2.292-3.735,10.616-3.749,10.7l-0.058,0.161L21,65.718z M22,47.485v14.422l7.772-13.785 c0.17-0.963,1.604-8.744,4.013-11.153c1.447-1.447,2.423-1.395,2.982-1.095c1.102,0.586,1.371,2.499,0.779,5.533 c-0.39,1.996-0.049,2.684,0.057,2.748c0.196-0.031,0.896-0.932,0.896-2.844c0.118-5.322-0.945-6.894-1.857-7.277 c-1.118-0.471-2.967,0.49-5.062,2.639L22,47.485z"/><path fill="#8889b9" d="M80.343,47.295l-9.722-10.97c-1.944-1.995-8.053-7.421-7.778,4.986c0,3.989,2.898,4.889,1.944,0 c-0.972-4.986,0.575-6.331,2.917-3.989c2.431,2.431,3.889,10.97,3.889,10.97l8.75,15.52V47.295z"/><path fill="#472b29" d="M80.843,65.718L71.1,48.377c-0.014-0.084-1.46-8.41-3.75-10.7c-0.757-0.757-1.443-1.109-1.806-0.92 c-0.475,0.253-0.829,1.572-0.266,4.459c0.372,1.911,0.22,3.237-0.43,3.733c-0.31,0.235-0.694,0.266-1.062,0.085 c-0.863-0.427-1.444-1.923-1.444-3.722c-0.106-4.771,0.702-7.457,2.47-8.199c1.983-0.829,4.445,1.098,6.166,2.863l9.864,11.129 V65.718z M72.07,48.122l7.772,13.785V47.485l-9.597-10.828c-2.079-2.131-3.926-3.093-5.046-2.622 c-0.912,0.383-1.976,1.954-1.857,7.266c0,1.922,0.7,2.824,0.922,2.849c0.08-0.058,0.421-0.746,0.031-2.742 c-0.592-3.034-0.322-4.948,0.779-5.534c0.559-0.299,1.534-0.353,2.981,1.095C70.465,39.378,71.9,47.16,72.07,48.122z"/><path fill="#a2b3cb" d="M58.879,67.3c-0.913,0-1.726-0.613-1.977-1.49l-2.196-7.688l-0.342-0.12 c-1.134-0.397-2.277-0.599-3.398-0.599c-1.197,0-2.398,0.229-3.571,0.682l-0.325,0.125l-2.171,7.599 c-0.251,0.878-1.063,1.49-1.977,1.49H23.755c-1.133,0-2.055-0.922-2.055-2.055V47.7h24.409c1.118,0,2.134,0.622,2.651,1.622 l0.196,0.378h3.886l0.195-0.378c0.52-1.001,1.535-1.622,2.653-1.622h24.409v17.545c0,1.133-0.922,2.055-2.055,2.055H58.879z"/><path fill="#472b29" d="M79.401,48.4v16.845c0,0.747-0.608,1.355-1.355,1.355H58.879c-0.602,0-1.137-0.404-1.303-0.983 l-2.097-7.339l-0.199-0.697l-0.684-0.24c-1.208-0.423-2.43-0.638-3.63-0.638c-1.284,0-2.57,0.245-3.824,0.729l-0.65,0.251 l-0.192,0.67l-2.075,7.264c-0.165,0.579-0.701,0.983-1.303,0.983H23.755c-0.747,0-1.355-0.608-1.355-1.355V48.4h23.71 c0.855,0,1.633,0.477,2.031,1.244l0.392,0.756h0.851h3.034h0.851l0.392-0.756c0.398-0.768,1.176-1.244,2.031-1.244H79.401 M80.801,47h-25.11c-1.457,0-2.669,0.832-3.274,2h-3.034c-0.605-1.168-1.816-2-3.274-2H21v18.245C21,66.767,22.233,68,23.755,68 h19.167c1.23,0,2.311-0.815,2.649-1.998l2.075-7.264c1.099-0.424,2.206-0.635,3.319-0.635c1.049,0,2.105,0.187,3.167,0.56 l2.097,7.339C56.568,67.185,57.649,68,58.879,68h19.167c1.521,0,2.755-1.233,2.755-2.755V47L80.801,47z"/><path fill="#00a5a5" d="M39.991,64.5H27.04c-0.804,0-1.456-0.624-1.456-1.393V52.893c0-0.769,0.652-1.393,1.456-1.393 h16.003c0.968,0,1.666,0.886,1.4,1.776L41.391,63.49C41.213,64.088,40.641,64.5,39.991,64.5z"/><path fill="#ee3e54" d="M62.028,64.5h13.01c0.808,0,1.463-0.624,1.463-1.393V52.893c0-0.769-0.655-1.393-1.463-1.393 H58.963c-0.972,0-1.673,0.886-1.406,1.776l3.064,10.214C60.801,64.088,61.375,64.5,62.028,64.5z"/><path fill="#472b29" d="M48.294,52.276c-0.021,0-0.044-0.003-0.065-0.009c-0.134-0.036-0.212-0.174-0.176-0.307 l0.612-2.245c0.036-0.133,0.178-0.212,0.307-0.176c0.134,0.036,0.212,0.174,0.176,0.307l-0.612,2.245 C48.505,52.203,48.404,52.276,48.294,52.276z"/><path fill="#472b29" d="M46.469,58.969c-0.021,0-0.044-0.003-0.065-0.009c-0.134-0.036-0.212-0.174-0.176-0.307 l1.341-4.916c0.036-0.133,0.178-0.213,0.307-0.176c0.134,0.036,0.212,0.174,0.176,0.307l-1.341,4.916 C46.68,58.896,46.579,58.969,46.469,58.969z"/><path fill="#472b29" d="M54.166,54.537c-0.11,0-0.211-0.073-0.241-0.184l-1.229-4.506 c-0.036-0.133,0.042-0.271,0.176-0.307c0.132-0.036,0.271,0.043,0.307,0.176l1.229,4.506c0.036,0.133-0.042,0.271-0.176,0.307 C54.21,54.534,54.188,54.537,54.166,54.537z"/><path fill="#472b29" d="M55.375,58.969c-0.11,0-0.211-0.073-0.241-0.184l-0.82-3.007c-0.036-0.133,0.042-0.271,0.176-0.307 c0.133-0.038,0.271,0.043,0.307,0.175l0.82,3.007c0.036,0.133-0.042,0.271-0.176,0.307C55.419,58.966,55.396,58.969,55.375,58.969 z"/><path fill="#472b29" d="M35.063,65H27.04c-1.079,0-1.957-0.849-1.957-1.893V52.893c0-1.044,0.878-1.893,1.957-1.893h2.71 c0.276,0,0.5,0.224,0.5,0.5s-0.224,0.5-0.5,0.5h-2.71c-0.527,0-0.957,0.401-0.957,0.893v10.214c0,0.492,0.43,0.893,0.957,0.893 h8.022c0.276,0,0.5,0.224,0.5,0.5S35.339,65,35.063,65z"/><g><path fill="#472b29" d="M39.991,65h-2.179c-0.276,0-0.5-0.224-0.5-0.5s0.224-0.5,0.5-0.5h2.179 c0.428,0,0.807-0.269,0.921-0.653l3.052-10.214c0.078-0.261,0.03-0.527-0.136-0.749C43.646,52.14,43.36,52,43.043,52H32.375 c-0.276,0-0.5-0.224-0.5-0.5s0.224-0.5,0.5-0.5h10.668c0.637,0,1.215,0.287,1.587,0.786c0.354,0.475,0.461,1.07,0.293,1.632 l-3.052,10.214C41.63,64.438,40.857,65,39.991,65z"/></g><g><path fill="#472b29" d="M75.037,65h-8.412c-0.276,0-0.5-0.224-0.5-0.5s0.224-0.5,0.5-0.5h8.412 C75.568,64,76,63.599,76,63.107V52.893C76,52.401,75.568,52,75.037,52h-5.662c-0.276,0-0.5-0.224-0.5-0.5s0.224-0.5,0.5-0.5h5.662 C76.119,51,77,51.849,77,52.893v10.214C77,64.151,76.119,65,75.037,65z"/></g><g><path fill="#472b29" d="M63.438,65h-1.41c-0.868,0-1.644-0.562-1.885-1.366l-3.063-10.215 c-0.169-0.561-0.063-1.154,0.289-1.629c0.368-0.495,0.965-0.79,1.596-0.79h7.661c0.276,0,0.5,0.224,0.5,0.5s-0.224,0.5-0.5,0.5 h-7.661c-0.321,0-0.61,0.141-0.793,0.387c-0.165,0.221-0.212,0.486-0.135,0.744L61.1,63.346C61.216,63.731,61.597,64,62.027,64 h1.41c0.276,0,0.5,0.224,0.5,0.5S63.714,65,63.438,65z"/></g></g><g><path fill="#fdfcef" d="M86.375,72.5c0,0,1.567,0,3.5,0s3.5-1.567,3.5-3.5c0-1.781-1.335-3.234-3.055-3.455 c0.028-0.179,0.055-0.358,0.055-0.545c0-1.933-1.567-3.5-3.5-3.5c-1.032,0-1.95,0.455-2.59,1.165 c-0.384-1.808-1.987-3.165-3.91-3.165c-2.209,0-4,1.791-4,4c0,0.191,0.03,0.374,0.056,0.558c-0.428-0.344-0.965-0.558-1.556-0.558 c-1.228,0-2.245,0.887-2.455,2.055c-0.179-0.028-0.358-0.055-0.545-0.055c-1.933,0-3.5,1.567-3.5,3.5s1.567,3.5,3.5,3.5 s7.5,0,7.5,0V73h7V72.5z"/><path fill="#472b29" d="M88.125,68c-0.138,0-0.25-0.112-0.25-0.25c0-1.223,0.995-2.218,2.218-2.218 c0.034,0.009,0.737-0.001,1.244,0.136c0.133,0.036,0.212,0.173,0.176,0.306c-0.036,0.134-0.173,0.213-0.306,0.176 c-0.444-0.12-1.1-0.12-1.113-0.118c-0.948,0-1.719,0.771-1.719,1.718C88.375,67.888,88.263,68,88.125,68z"/><circle cx="81.375" cy="72.5" r=".5" fill="#472b29"/><path fill="#472b29" d="M89.875,73h-3.5c-0.276,0-0.5-0.224-0.5-0.5s0.224-0.5,0.5-0.5h3.5c1.654,0,3-1.346,3-3 c0-1.496-1.125-2.768-2.618-2.959c-0.134-0.018-0.255-0.088-0.336-0.196s-0.115-0.244-0.094-0.377 c0.024-0.153,0.049-0.308,0.049-0.468c0-1.654-1.346-3-3-3c-0.85,0-1.638,0.355-2.219,1c-0.125,0.139-0.321,0.198-0.5,0.148 c-0.182-0.049-0.321-0.195-0.36-0.379C83.455,61.165,82.016,60,80.375,60c-1.93,0-3.5,1.57-3.5,3.5 c0,0.143,0.021,0.28,0.041,0.418c0.029,0.203-0.063,0.438-0.242,0.54c-0.179,0.102-0.396,0.118-0.556-0.01 C75.753,64.155,75.324,64,74.875,64c-0.966,0-1.792,0.691-1.963,1.644c-0.048,0.267-0.296,0.446-0.569,0.405 C72.189,66.025,72.035,66,71.875,66c-1.654,0-3,1.346-3,3s1.346,3,3,3h7.5c0.276,0,0.5,0.224,0.5,0.5s-0.224,0.5-0.5,0.5h-7.5 c-2.206,0-4-1.794-4-4s1.794-4,4-4c0.059,0,0.116,0.002,0.174,0.006C72.463,63.82,73.586,63,74.875,63 c0.349,0,0.689,0.061,1.011,0.18c0.165-2.333,2.115-4.18,4.489-4.18c1.831,0,3.466,1.127,4.153,2.774 C85.208,61.276,86.03,61,86.875,61c2.206,0,4,1.794,4,4c0,0.048-0.001,0.095-0.004,0.142c1.743,0.448,3.004,2.027,3.004,3.858 C93.875,71.206,92.081,73,89.875,73z"/><path fill="#472b29" d="M84.375,72c-0.159,0-0.841,0-1,0c-0.276,0-0.5,0.224-0.5,0.5c0,0.276,0.224,0.5,0.5,0.5 c0.159,0,0.841,0,1,0c0.276,0,0.5-0.224,0.5-0.5C84.875,72.224,84.651,72,84.375,72z"/></g></svg>