<svg xmlns="http://www.w3.org/2000/svg" width="100" height="100" fill="#000" viewBox="0 0 24 24"><path d="M 12 2 C 6.486 2 2 6.486 2 12 C 2 17.514 6.486 22 12 22 C 17.514 22 22 17.514 22 12 C 22 6.486 17.514 2 12 2 z M 8 7 C 9.654 7 11 8.346 11 10 C 11 10.882 10.714063 11.547203 10.289062 12.033203 C 10.716063 12.532203 11 13.19 11 14 C 11 15.654 9.654 17 8 17 C 6.346 17 5 15.654 5 14 L 7 14 C 7 14.552 7.448 15 8 15 C 8.552 15 9 14.552 9 14 C 9 13.184 8.3326094 13 8.0996094 13 L 7 13 L 7 11 L 8.0996094 11 C 8.9996094 11 9 10.247 9 10 C 9 9.448 8.552 9 8 9 C 7.448 9 7 9.448 7 10 L 5 10 C 5 8.346 6.346 7 8 7 z M 13 7 L 16.5 7 C 17.879 7 19 8.121 19 9.5 L 19 14.5 C 19 15.879 17.879 17 16.5 17 L 13 17 L 13 7 z M 15 9 L 15 15 L 16.5 15 C 16.775 15 17 14.775 17 14.5 L 17 9.5 C 17 9.225 16.775 9 16.5 9 L 15 9 z"/></svg>