<svg xmlns="http://www.w3.org/2000/svg" width="500" height="500" fill="#000" viewBox="0 0 64 64"><path d="M 31.097656 8 C 29.398438 8 27.902344 8.800781 26.902344 10.199219 L 24.402344 14 L 18 14 L 18 12 C 18 10.898438 17.101563 10 16 10 L 10 10 C 8.898438 10 8 10.898438 8 12 L 8 14 L 5 14 C 3.300781 14 2 15.300781 2 17 L 2 53 C 2 54.699219 3.300781 56 5 56 L 40.050781 56 C 42.359375 59.609375 46.398438 62 51 62 C 58.171875 62 64 56.171875 64 49 C 64 46.460938 63.269531 44.089844 62 42.078125 L 62 17 C 62 15.300781 60.699219 14 59 14 L 58 14 L 58 13 C 58 11.898438 57.101563 11 56 11 L 54 11 C 52.898438 11 52 11.898438 52 13 L 52 14 L 49.5 14 L 47 10.199219 C 46.101563 8.800781 44.5 8 42.800781 8 Z M 31.097656 10 L 42.800781 10 C 43.800781 10 44.699219 10.5 45.300781 11.300781 L 48.097656 15.597656 C 48.300781 15.898438 48.601563 16 48.902344 16 L 58.902344 16 C 59.5 16 59.902344 16.398438 59.902344 17 L 59.902344 39.53125 C 57.808594 37.558594 55.050781 36.269531 52 36.039063 C 52.03125 35.699219 52.039063 35.351563 52.039063 35 C 52.039063 28.816406 48.296875 23.511719 42.960938 21.210938 C 42.976563 21.140625 43 21.074219 43 21 L 43 19 C 43 18.445313 42.601563 18 42 18 C 41.398438 18 41 18.445313 41 19 L 41 20.535156 C 40.035156 20.273438 39.03125 20.105469 38 20.039063 L 38 19 C 38 18.445313 37.601563 18 37 18 C 36.398438 18 36 18.445313 36 19 L 36 20.042969 C 34.96875 20.113281 33.964844 20.289063 33 20.558594 L 33 19 C 33 18.445313 32.601563 18 32 18 C 31.398438 18 31 18.445313 31 19 L 31 21 C 31 21.085938 31.027344 21.164063 31.046875 21.242188 C 25.742188 23.558594 22.03125 28.84375 22.03125 35 C 22.03125 43.289063 28.75 50.011719 37.039063 50.011719 C 37.378906 50.011719 37.710938 50 38.039063 49.96875 C 38.140625 51.390625 38.480469 52.738281 39 54 L 5 54 C 4.398438 54 4 53.601563 4 53 L 4 17 C 4 16.398438 4.398438 16 5 16 L 25 16 C 25.300781 16 25.601563 15.800781 25.800781 15.597656 L 28.597656 11.300781 C 29.199219 10.5 30.097656 10 31.097656 10 Z M 10 12 L 16 12 L 16 14 L 10 14 Z M 31 12 C 30.519531 12 30.039063 12.398438 30.039063 13 C 30.039063 13.601563 30.398438 14 31 14 L 43 14 C 43.601563 14 43.960938 13.601563 43.960938 13 C 43.960938 12.398438 43.601563 12 43 12 Z M 54 13 L 56 13 L 56 14 L 54 14 Z M 7 18 C 6.398438 18 6 18.445313 6 19 L 6 21 C 6 21.554688 6.398438 22 7 22 C 7.601563 22 8 21.554688 8 21 L 8 19 C 8 18.445313 7.601563 18 7 18 Z M 12 18 C 11.398438 18 11 18.445313 11 19 L 11 21 C 11 21.554688 11.398438 22 12 22 C 12.601563 22 13 21.554688 13 21 L 13 19 C 13 18.445313 12.601563 18 12 18 Z M 17 18 C 16.398438 18 16 18.445313 16 19 L 16 21 C 16 21.554688 16.398438 22 17 22 C 17.601563 22 18 21.554688 18 21 L 18 19 C 18 18.445313 17.601563 18 17 18 Z M 22 18 C 21.398438 18 21 18.445313 21 19 L 21 21 C 21 21.554688 21.398438 22 22 22 C 22.601563 22 23 21.550781 23 21 L 23 19 C 23 18.445313 22.601563 18 22 18 Z M 27 18 C 26.398438 18 26 18.445313 26 19 L 26 21 C 26 21.550781 26.398438 22 27 22 C 27.601563 22 28 21.554688 28 21 L 28 19 C 28 18.445313 27.601563 18 27 18 Z M 47 18 C 46.398438 18 46 18.445313 46 19 L 46 21 C 46 21.550781 46.398438 22 47 22 C 47.601563 22 48 21.554688 48 21 L 48 19 C 48 18.445313 47.601563 18 47 18 Z M 52 18 C 51.398438 18 51 18.445313 51 19 L 51 21 C 51 21.550781 51.398438 22 52 22 C 52.601563 22 53 21.554688 53 21 L 53 19 C 53 18.445313 52.601563 18 52 18 Z M 57 18 C 56.398438 18 56 18.445313 56 19 L 56 21 C 56 21.550781 56.398438 22 57 22 C 57.601563 22 58 21.554688 58 21 L 58 19 C 58 18.445313 57.601563 18 57 18 Z M 37.039063 22.011719 C 44.199219 22.011719 50.03125 27.828125 50.03125 35 C 50.03125 35.351563 50.019531 35.699219 49.980469 36.050781 C 49.289063 36.089844 48.609375 36.199219 47.949219 36.359375 C 48.007813 35.917969 48.039063 35.460938 48.039063 35 C 48.039063 28.941406 43.089844 24 37.039063 24 C 30.980469 24 26.039063 28.941406 26.039063 35 C 26.039063 41.058594 30.980469 46 37.039063 46 C 37.488281 46 37.929688 45.96875 38.371094 45.910156 C 38.210938 46.570313 38.101563 47.25 38.050781 47.9375 C 37.722656 47.980469 37.378906 47.988281 37.039063 47.988281 C 29.867188 47.988281 24.039063 42.171875 24.039063 35 C 24.039063 27.828125 29.867188 22.011719 37.039063 22.011719 Z M 17 23.988281 C 16.398438 23.988281 16 24.429688 16 25 L 16 51.019531 C 16 51.585938 16.398438 52.03125 17 52.03125 C 17.601563 52.03125 18 51.523438 18 51.019531 L 18 25 C 18 24.433594 17.601563 23.988281 17 23.988281 Z M 37.039063 26.070313 C 41.980469 26.070313 45.960938 30.058594 45.960938 35 C 45.960938 35.738281 45.871094 36.449219 45.699219 37.128906 C 42.789063 38.429688 40.449219 40.769531 39.140625 43.679688 C 38.46875 43.839844 37.769531 43.929688 37.039063 43.929688 C 32.097656 43.929688 28.109375 39.941406 28.109375 35 C 28.109375 30.058594 32.097656 26.070313 37.039063 26.070313 Z M 51 38 C 51.25 38 51.488281 38.007813 51.738281 38.019531 L 51.738281 38.03125 C 55.089844 38.25 58.03125 39.980469 59.902344 42.53125 C 61.21875 44.347656 62 46.578125 62 49 C 62 51.640625 61.070313 54.0625 59.53125 55.960938 C 57.5 58.421875 54.429688 60 51 60 C 47.589844 60 44.53125 58.441406 42.511719 56 C 42 55.378906 41.558594 54.710938 41.199219 54 C 40.527344 52.699219 40.121094 51.25 40.019531 49.710938 C 40.007813 49.480469 40 49.238281 40 49 C 40 48.53125 40.03125 48.070313 40.089844 47.621094 C 40.179688 46.847656 40.359375 46.109375 40.609375 45.402344 C 41.007813 44.21875 41.621094 43.121094 42.378906 42.160156 C 42.390625 42.160156 42.390625 42.152344 42.390625 42.152344 C 42.921875 41.5 43.5 40.910156 44.160156 40.390625 L 44.171875 40.378906 C 45.140625 39.609375 46.238281 39 47.429688 38.597656 C 48.140625 38.347656 48.890625 38.167969 49.660156 38.089844 C 50.101563 38.03125 50.550781 38 51 38 Z M 51 42 C 50.445313 42 50 42.449219 50 43 L 50 48 L 45 48 C 44.445313 48 44 48.449219 44 49 C 44 49.550781 44.445313 50 45 50 L 50 50 L 50 55 C 50 55.550781 50.445313 56 51 56 C 51.554688 56 52 55.550781 52 55 L 52 50 L 57 50 C 57.554688 50 58 49.550781 58 49 C 58 48.449219 57.554688 48 57 48 L 52 48 L 52 43 C 52 42.449219 51.554688 42 51 42 Z"/></svg>