<svg xmlns="http://www.w3.org/2000/svg" width="500" height="500" fill="#000" viewBox="0 0 32 32"><path d="M 4 4 L 4 18.351562 L 8.5195312 24 L 24 24 L 24 23 L 24 8.5859375 L 19.414062 4 L 4 4 z M 7.4140625 6 L 18.585938 6 L 20.585938 8 L 9.4140625 8 L 7.4140625 6 z M 6 7.4140625 L 8 9.4140625 L 8 20.148438 L 6 17.648438 L 6 7.4140625 z M 10 10 L 22 10 L 22 22 L 10 22 L 10 10 z M 26.707031 13.292969 L 25.292969 14.707031 L 27.585938 17 L 25.292969 19.292969 L 26.707031 20.707031 L 30.414062 17 L 26.707031 13.292969 z M 13.707031 25.292969 L 12.292969 26.707031 L 16 30.414062 L 19.707031 26.707031 L 18.292969 25.292969 L 16 27.585938 L 13.707031 25.292969 z"/></svg>