<svg fill="#000000" xmlns="http://www.w3.org/2000/svg" viewBox="0 0 24 24" width="300px" height="300px"><path d="M 6.570313 1.929688 L 3.570313 7.558594 L 7.59375 8.964844 L 4.589844 12 L 7.597656 15.019531 L 3.632813 16.421875 L 6.203125 22 L 15.203125 22 L 20.113281 12 L 15.203125 1.929688 Z M 7.773438 3.929688 L 12.300781 3.929688 L 10.402344 6 L 6.667969 6 Z M 14.324219 4.6875 L 16.574219 9.304688 L 12.449219 6.726563 Z M 9.683594 9.703125 L 10 9.816406 L 10 14.167969 L 9.683594 14.28125 L 7.410156 12 Z M 12 10.535156 L 16.046875 12 L 12 13.449219 Z M 16.574219 14.671875 L 14.324219 19.253906 L 12.441406 17.222656 Z M 6.5625 18 L 10.4375 18 L 12.289063 20 L 7.484375 20 Z"/></svg>