<svg xmlns="http://www.w3.org/2000/svg" width="50" height="50" fill="#000" viewBox="0 0 80 80"><path d="M 40 9 C 39.449219 9 39 9.449219 39 10 C 39 10.550781 39.449219 11 40 11 C 40.550781 11 41 10.550781 41 10 C 41 9.449219 40.550781 9 40 9 Z M 40 13 C 39.449219 13 39 13.449219 39 14 C 39 14.550781 39.449219 15 40 15 C 40.550781 15 41 14.550781 41 14 C 41 13.449219 40.550781 13 40 13 Z M 40 17 C 39.449219 17 39 17.449219 39 18 C 39 18.550781 39.449219 19 40 19 C 40.550781 19 41 18.550781 41 18 C 41 17.449219 40.550781 17 40 17 Z M 36 19.113281 C 18.324219 20.105469 5 27.605469 5 37 L 5 44 C 5 48.566406 8.203125 52.597656 13.199219 55.636719 C 17.996094 58.554688 24.554688 60.605469 32 61.492188 L 32 69.414063 L 44.414063 57 L 32 44.585938 L 32 52.472656 C 24.886719 51.597656 18.65625 49.613281 14.238281 46.925781 C 10.898438 44.894531 8.628906 42.527344 7.609375 40.011719 C 10.339844 33.214844 22.089844 27.980469 36 27.125 L 36 25.128906 C 22.664063 25.910156 11.402344 30.527344 7 36.957031 C 7.046875 28.8125 19.710938 22.082031 36 21.121094 Z M 44 19.113281 L 44 21.121094 C 60.289063 22.082031 72.953125 28.8125 73 36.957031 C 68.597656 30.527344 57.335938 25.910156 44 25.128906 L 44 27.125 C 57.898438 27.980469 69.648438 33.210938 72.386719 40 C 70.191406 45.507813 62.089844 50.175781 50.832031 52.097656 L 50 52.242188 L 50 61.269531 L 51.167969 61.070313 C 65.421875 58.632813 75 51.773438 75 44 L 75 37 C 75 27.605469 61.675781 20.105469 44 19.113281 Z M 40 21 C 39.449219 21 39 21.449219 39 22 C 39 22.550781 39.449219 23 40 23 C 40.550781 23 41 22.550781 41 22 C 41 21.449219 40.550781 21 40 21 Z M 40 25 C 39.449219 25 39 25.449219 39 26 C 39 26.550781 39.449219 27 40 27 C 40.550781 27 41 26.550781 41 26 C 41 25.449219 40.550781 25 40 25 Z M 40 29 C 39.449219 29 39 29.449219 39 30 C 39 30.550781 39.449219 31 40 31 C 40.550781 31 41 30.550781 41 30 C 41 29.449219 40.550781 29 40 29 Z M 40 33 C 39.449219 33 39 33.449219 39 34 C 39 34.550781 39.449219 35 40 35 C 40.550781 35 41 34.550781 41 34 C 41 33.449219 40.550781 33 40 33 Z M 40 37 C 38.894531 37 38 37.894531 38 39 C 38 40.105469 38.894531 41 40 41 C 41.105469 41 42 40.105469 42 39 C 42 37.894531 41.105469 37 40 37 Z M 7 42.96875 C 8.429688 45.089844 10.53125 47.011719 13.199219 48.636719 C 18.195313 51.675781 25.066406 53.808594 32.894531 54.625 L 34 54.742188 L 34 49.414063 L 41.585938 57 L 34 64.585938 L 34 59.734375 L 33.105469 59.640625 C 25.515625 58.84375 18.890625 56.757813 14.238281 53.925781 C 9.585938 51.097656 7 47.621094 7 44 Z M 73 43.03125 L 73 44 C 73 50.5625 64.613281 56.472656 52 58.890625 L 52 53.921875 C 61.992188 52.070313 69.578125 48.019531 73 43.03125 Z M 40 44 C 39.449219 44 39 44.449219 39 45 C 39 45.550781 39.449219 46 40 46 C 40.550781 46 41 45.550781 41 45 C 41 44.449219 40.550781 44 40 44 Z M 40 48 C 39.449219 48 39 48.449219 39 49 C 39 49.550781 39.449219 50 40 50 C 40.550781 50 41 49.550781 41 49 C 41 48.449219 40.550781 48 40 48 Z M 40 64 C 39.449219 64 39 64.449219 39 65 C 39 65.550781 39.449219 66 40 66 C 40.550781 66 41 65.550781 41 65 C 41 64.449219 40.550781 64 40 64 Z M 40 68 C 39.449219 68 39 68.449219 39 69 C 39 69.550781 39.449219 70 40 70 C 40.550781 70 41 69.550781 41 69 C 41 68.449219 40.550781 68 40 68 Z"/></svg>