<svg xmlns="http://www.w3.org/2000/svg" width="100" height="100" viewBox="0 0 16 16"><path fill="#dcd5f2" d="M1,13.5c-0.3,0-0.5-0.2-0.5-0.5V4c0-0.3,0.2-0.5,0.5-0.5h3.3l1-2h5.4l1,2H15c0.3,0,0.5,0.2,0.5,0.5 v7l-3,0v2.5H1z"/><path fill="#8b75a1" d="M10.4,2l0.7,1.4L11.4,4H12h3v6.5l-2,0l-1,0v1V13H1V4h3h0.6l0.3-0.6L5.6,2H10.4 M11,1H5L4,3H1 C0.4,3,0,3.5,0,4v9c0,0.6,0.4,1,1,1h12v-2.5l3,0V4c0-0.5-0.4-1-1-1h-3L11,1L11,1z"/><path fill="#fff9de" d="M12 5H14V6H12z"/><path fill="#c2e8ff" d="M8,11.5c-1.9,0-3.5-1.6-3.5-3.5S6.1,4.5,8,4.5s3.5,1.6,3.5,3.5S9.9,11.5,8,11.5z"/><path fill="#7496c4" d="M8,5c1.7,0,3,1.3,3,3s-1.3,3-3,3S5,9.7,5,8S6.3,5,8,5 M8,4C5.8,4,4,5.8,4,8s1.8,4,4,4s4-1.8,4-4 S10.2,4,8,4L8,4z"/><path fill="#fff" d="M7,8H6c0-1.1,0.9-2,2-2v1C7.4,7,7,7.4,7,8z"/><path fill="#8b75a1" d="M1 2H3V4H1z"/><path fill="#5e9c76" d="M11.5 7A4.5 4.5 0 1 0 11.5 16A4.5 4.5 0 1 0 11.5 7Z"/><path fill="#fff" d="M11 9H12V14H11z"/><path fill="#fff" d="M9 11H14V12H9z"/></svg>