<svg xmlns="http://www.w3.org/2000/svg" viewBox="0 0 48 48" width="100px" height="100px"><path fill="#80cbc4" d="M13 13L5 5 5 32.867 13 43z" opacity=".6"/><path fill="#e0f2f1" d="M13 13L43 13 32.867 5 5 5z" opacity=".6"/><path fill="#b2dfdb" d="M43,43H13V13l0,0h30V43z" opacity=".6"/><path fill="#2196f3" d="M36 20L27 20 27 23 36 23 36 27 43 21.5 36 16zM23 36L23 27 20 27 20 36 16 36 21.5 43 27 36z"/><path fill="#1abc9c" d="M13 13L8 8 8 23.333 13 30z"/><path fill="#64ffda" d="M13 13L30 13 23.333 8 8 8z"/><path fill="#1de9b6" d="M30,30H13V13l0,0h17V30z"/></svg>