<svg xmlns="http://www.w3.org/2000/svg" width="50" height="50" fill="#000" viewBox="0 0 24 24"><path d="M 5 2 C 3.9069372 2 3 2.9069372 3 4 L 3 20 C 3 21.093063 3.9069372 22 5 22 L 11.080078 22 C 10.710078 21.38 10.44 20.71 10.25 20 L 5 20 L 5 4 L 17 4 L 17 10.060547 C 17.33 10.020547 17.66 10 18 10 C 18.34 10 18.67 10.020547 19 10.060547 L 19 4 C 19 2.9069372 18.093063 2 17 2 L 5 2 z M 18 12 C 14.698136 12 12 14.698136 12 18 C 12 21.301864 14.698136 24 18 24 C 21.301864 24 24 21.301864 24 18 C 24 14.698136 21.301864 12 18 12 z M 18 14 C 20.220984 14 22 15.779016 22 18 C 22 20.220984 20.220984 22 18 22 C 15.779016 22 14 20.220984 14 18 C 14 15.779016 15.779016 14 18 14 z M 17 15 L 17 17 L 15 17 L 15 19 L 17 19 L 17 21 L 19 21 L 19 19 L 21 19 L 21 17 L 19 17 L 19 15 L 17 15 z"/></svg>