<svg xmlns="http://www.w3.org/2000/svg" width="50" height="50" fill="#000" viewBox="0 0 50 50"><path d="M 6 5 A 1.0001 1.0001 0 0 0 5.8710938 5.0078125 A 1.0001 1.0001 0 0 0 5.8007812 5.0195312 A 1.0001 1.0001 0 0 0 5.7929688 5.0214844 A 1.0001 1.0001 0 0 0 5.6230469 5.0742188 A 1.0001 1.0001 0 0 0 5.5566406 5.1035156 A 1.0001 1.0001 0 0 0 5.5527344 5.1054688 A 1.0001 1.0001 0 0 0 5.4042969 5.1972656 A 1.0001 1.0001 0 0 0 5.3730469 5.2207031 A 1.0001 1.0001 0 0 0 5.3125 5.2734375 A 1.0001 1.0001 0 0 0 5.3066406 5.2792969 A 1.0001 1.0001 0 0 0 5.2441406 5.3457031 A 1.0001 1.0001 0 0 0 5.2382812 5.3535156 A 1.0001 1.0001 0 0 0 5.1894531 5.4140625 A 1.0001 1.0001 0 0 0 5.1738281 5.4355469 A 1.0001 1.0001 0 0 0 5.0058594 5.8867188 A 1.0001 1.0001 0 0 0 5.0058594 5.8964844 A 1.0001 1.0001 0 0 0 5 5.9921875 A 1.0001 1.0001 0 0 0 5 6 A 1.0001 1.0001 0 0 0 5 6.0527344 L 5 32.900391 A 1.0001 1.0001 0 0 0 5.2226562 33.529297 L 14.177734 44.574219 C 14.292944 44.749568 14.455891 44.87742 14.669922 44.941406 A 1.0001 1.0001 0 0 0 14.998047 45 A 1.0001 1.0001 0 0 0 15.009766 45 L 36 45 L 36 43 L 16 43 L 16 17 L 43 17 L 43 32.199219 L 45 34.199219 L 45 16 A 1.0001 1.0001 0 0 0 45 15.996094 A 1.0001 1.0001 0 0 0 44.941406 15.666016 C 44.880267 15.464147 44.76082 15.309461 44.599609 15.195312 L 33.568359 5.2578125 A 1.0001 1.0001 0 0 0 32.900391 5 L 6 5 z M 8.2460938 7 L 32.515625 7 L 41.396484 15 L 15.445312 15 L 8.2460938 7 z M 7 8.6074219 L 14 16.384766 L 14 41.179688 L 7 32.544922 L 7 8.6074219 z M 38 30 L 38 47 L 41.900391 43.099609 L 44.800781 50 L 47.599609 48.800781 L 44.699219 42 L 50 42 L 38 30 z"/></svg>