<svg xmlns="http://www.w3.org/2000/svg" width="500" height="500" fill="#000" viewBox="0 0 24 24"><path d="M 12 2 C 6.4889971 2 2 6.4889971 2 12 C 2 17.511003 6.4889971 22 12 22 C 17.511003 22 22 17.511003 22 12 C 22 6.4889971 17.511003 2 12 2 z M 12 4 C 16.430123 4 20 7.5698774 20 12 C 20 16.430123 16.430123 20 12 20 C 7.5698774 20 4 16.430123 4 12 C 4 7.5698774 7.5698774 4 12 4 z M 8.5 8 C 7.1309372 8 6 9.1309372 6 10.5 L 8 10.5 C 8 10.213063 8.2130628 10 8.5 10 C 8.7869372 10 9 10.213063 9 10.5 C 9 10.888002 8.9351473 10.870901 8.8710938 10.916016 C 8.80704 10.961131 8.6235814 11 8.5742188 11 L 8 11 L 8 13 L 8.5742188 13 C 8.6274217 13 8.771736 13.041649 8.8554688 13.117188 C 8.9392013 13.192723 9 13.264 9 13.5 C 9 13.786937 8.7869372 14 8.5 14 C 8.2130628 14 8 13.786937 8 13.5 L 6 13.5 C 6 14.869063 7.1309372 16 8.5 16 C 9.8690628 16 11 14.869063 11 13.5 C 11 12.932887 10.81469 12.413789 10.527344 12.009766 C 10.805529 11.605847 11 11.088636 11 10.5 C 11 9.1309372 9.8690628 8 8.5 8 z M 13 8 L 13 16 L 15.5 16 C 16.869063 16 18 14.869063 18 13.5 L 18 10.5 C 18 9.1309372 16.869063 8 15.5 8 L 13 8 z M 15 10 L 15.5 10 C 15.786937 10 16 10.213063 16 10.5 L 16 13.5 C 16 13.786937 15.786937 14 15.5 14 L 15 14 L 15 10 z"/></svg>