<svg xmlns="http://www.w3.org/2000/svg" viewBox="0 0 48 48" width="500px" height="500px"><path fill="#6d4c41" d="M25 21.625L1 31.237 1 33.457 25 45 46 33.323 46 31.034z"/><path fill="#573b33" d="M1 31.237L1 33.457 25 45 24.997 42.544z"/><path fill="#8d6e63" d="M46 31.034L24.997 42.544 25 45 46 33.323z"/><path fill="#ecf0f1" d="M41 19L24 23.588 24 40 41 31.034z"/><path fill="#bdc3c7" d="M24 20.787L15 10.417 6 16.918 6 31.55 24 40z"/><path fill="#27ae60" d="M15.798 33.682L15.861 28.301 12.991 30.431zM7.997 22.509L12 25.001 11.758 21.019zM19.34 26.74L19.91 22.915 15.974 24.32z"/><path fill="#27ae60" d="M20.848 29.731c-.102-.515-.227-1.059-.369-1.624l-1.783.606c.118.477.205.961.292 1.398.237 1.198-.013 1.779-.383 1.637-1.226-.472-2.526-1.381-3.619-2.008v2.189c.75.39 2.256 1.148 3.155 1.655 1.023.578 1.583.134 1.978-.193C20.949 32.703 21.194 31.473 20.848 29.731zM13.497 20.478c.186-.397.317-.676.353-.748.37-.739.726-.739.843-.739.263 0 .43.101.676.682l.001.002c.641 1.505 1.368 3.342 2.062 5.253h2.113c-.778-2.193-1.614-4.324-2.341-6.033-.534-1.258-1.378-1.895-2.51-1.895-.637 0-1.824.239-2.625 1.839-.012.024-.037.076-.068.142L13.497 20.478zM12 28.673c-.27-.156-.567-.316-.807-.466-1.906-1.194-1.007-2.492-.89-2.737 0 0 .569-1.229 1.252-2.701l-1.782-.89c-.69 1.486-1.266 2.73-1.266 2.73-.653 1.318-1.154 3.545 1.629 5.285.545.341 1.178.696 1.863 1.06V28.673z"/><path fill="#4db1e8" d="M32 4.5L15 9 27 25.1 43 18.5z"/><path fill="#2980b9" d="M14.595 11.257L24 23.855 27 25.1 15 9 3.557 16.368 6.002 17z"/></svg>