<svg xmlns="http://www.w3.org/2000/svg" viewBox="0 0 100 100" width="100px" height="100px"><path fill="#f69272" d="M50 15A35 35 0 1 0 50 85A35 35 0 1 0 50 15Z"/><path fill="#fefdef" d="M64,47.5H52.5V35c0-1.381-1.119-2.5-2.5-2.5s-2.5,1.119-2.5,2.5v12.5H36c-1.381,0-2.5,1.119-2.5,2.5s1.119,2.5,2.5,2.5h11.5V65c0,1.381,1.119,2.5,2.5,2.5s2.5-1.119,2.5-2.5V52.5H64c1.381,0,2.5-1.119,2.5-2.5S65.381,47.5,64,47.5z"/><path fill="#1f212b" d="M50,14c-19.851,0-36,16.149-36,36s16.149,36,36,36s36-16.149,36-36S69.851,14,50,14z M50,84c-18.748,0-34-15.252-34-34s15.252-34,34-34s34,15.252,34,34S68.748,84,50,84z"/><path fill="#1f212b" d="M63.278 23.091c.664.328 1.326.687 1.967 1.066.08.047.167.069.254.069.171 0 .337-.088.431-.246.14-.238.062-.544-.176-.685-.663-.392-1.347-.762-2.033-1.102-.248-.122-.547-.021-.67.227C62.929 22.669 63.031 22.969 63.278 23.091zM68.196 26.146c.091.069.197.103.303.103.15 0 .299-.067.397-.196.168-.219.126-.533-.093-.701-.333-.255-.673-.503-1.017-.745-.226-.159-.538-.103-.697.123-.158.226-.104.538.123.697C67.545 25.659 67.874 25.899 68.196 26.146z"/><path fill="#1f212b" d="M70.836,27.047c-0.203-0.185-0.521-0.17-0.706,0.034c-0.186,0.204-0.17,0.521,0.034,0.706C76.415,33.464,80,41.561,80,50c0,16.542-13.458,30-30,30S20,66.542,20,50s13.458-30,30-30c3.549,0,7.024,0.614,10.328,1.825c0.259,0.098,0.547-0.038,0.641-0.297c0.095-0.259-0.038-0.546-0.297-0.641C57.257,19.635,53.667,19,50,19c-17.093,0-31,13.907-31,31s13.907,31,31,31s31-13.907,31-31C81,41.279,77.295,32.913,70.836,27.047z"/><path fill="#1f212b" d="M53,47V35c0-1.654-1.346-3-3-3s-3,1.346-3,3v12H36c-1.654,0-3,1.346-3,3s1.346,3,3,3h11v12c0,1.654,1.346,3,3,3s3-1.346,3-3V53h11c1.654,0,3-1.346,3-3s-1.346-3-3-3H53z M66,50c0,1.103-0.897,2-2,2H52.5c-0.276,0-0.5,0.224-0.5,0.5V65c0,1.103-0.897,2-2,2s-2-0.897-2-2V52.5c0-0.276-0.224-0.5-0.5-0.5H36c-1.103,0-2-0.897-2-2s0.897-2,2-2h11.5c0.276,0,0.5-0.224,0.5-0.5V35c0-1.103,0.897-2,2-2s2,0.897,2,2v12.5c0,0.276,0.224,0.5,0.5,0.5H64C65.103,48,66,48.897,66,50z"/></svg>