<svg xmlns="http://www.w3.org/2000/svg" width="500" height="500" viewBox="0 0 80 80"><path fill="#fff" d="M26.5 2.5H53.5V77.5H26.5z"/><path fill="#788b9c" d="M53,3v74H27V3H53 M54,2H26v76h28V2L54,2z"/><path fill="#bae0bd" d="M62,79.5c-9.6,0-17.5-7.9-17.5-17.5S52.4,44.5,62,44.5S79.5,52.4,79.5,62S71.6,79.5,62,79.5z"/><path fill="#5e9c76" d="M62,45c9.4,0,17,7.6,17,17s-7.6,17-17,17s-17-7.6-17-17S52.6,45,62,45 M62,44c-9.9,0-18,8.1-18,18 s8.1,18,18,18s18-8.1,18-18S71.9,44,62,44L62,44z"/><path fill="#fff" d="M60 52H64V72H60z"/><path fill="#fff" d="M52 60H72V64H52z"/></svg>