<svg xmlns="http://www.w3.org/2000/svg" width="50" height="50" fill="#000" viewBox="0 0 80 80"><path d="M 38.726563 9 C 33.886719 9 29.535156 11.648438 26.378906 14.222656 C 23.222656 16.800781 21.210938 19.386719 21.210938 19.386719 L 20.308594 20.542969 L 21.71875 20.957031 C 21.71875 20.957031 22.265625 21.109375 22.921875 21.78125 C 23.574219 22.449219 24.273438 23.589844 24.273438 25.75 C 24.273438 28.550781 24.703125 30.8125 24.917969 31.769531 C 24.359375 32.277344 24 32.996094 24 33.800781 C 24 34.449219 24.195313 35.003906 24.355469 35.546875 C 24.433594 35.820313 24.511719 36.074219 24.5625 36.265625 C 24.613281 36.457031 24.625 36.644531 24.625 36.5 C 24.625 37.890625 25.804688 39 27.1875 39 L 27.246094 39 C 27.6875 42.441406 29.4375 45.464844 32 47.515625 L 32 50.542969 L 28.957031 53.171875 C 26.695313 54.160156 23.128906 55.75 20.03125 57.707031 C 18.453125 58.703125 17 59.785156 15.898438 60.972656 C 14.796875 62.160156 14 63.5 14 65 L 14 71 L 49.636719 71 C 52.238281 76.320313 57.6875 80 64 80 C 72.824219 80 80 72.824219 80 64 C 80 55.175781 72.824219 48 64 48 C 59.167969 48 54.84375 50.160156 51.90625 53.554688 C 51.613281 53.425781 51.308594 53.289063 51.042969 53.171875 L 48 50.542969 L 48 47.519531 C 50.5625 45.464844 52.308594 42.441406 52.753906 39 L 52.8125 39 C 54.195313 39 55.375 37.890625 55.375 36.5 C 55.375 36.644531 55.386719 36.457031 55.4375 36.265625 C 55.488281 36.074219 55.566406 35.820313 55.644531 35.546875 C 55.804688 35.003906 56 34.449219 56 33.800781 C 56 32.980469 55.628906 32.257813 55.058594 31.746094 C 55.242188 30.691406 56 26.175781 56 23 C 56 19.40625 54.65625 16.832031 52.84375 15.234375 C 51.214844 13.804688 49.300781 13.230469 47.605469 13.109375 C 47.332031 12.675781 46.847656 11.996094 45.84375 11.210938 C 44.402344 10.089844 42.089844 9 38.726563 9 Z M 38.726563 11 C 41.664063 11 43.488281 11.910156 44.609375 12.789063 C 45.734375 13.667969 46.105469 14.441406 46.105469 14.441406 L 46.378906 15 L 47 15 C 48.332031 15 50.125 15.507813 51.519531 16.738281 C 52.917969 17.96875 54 19.890625 54 23 C 54 25.789063 53.335938 29.859375 53.140625 31 C 53.136719 31 53.132813 31 53.125 31 C 53.039063 31 53.054688 31.019531 53 31.027344 L 53 28 C 53 24.578125 51.601563 22.277344 50.195313 20.914063 C 48.789063 19.550781 47.316406 19.050781 47.316406 19.050781 L 46.746094 18.859375 L 46.308594 19.277344 C 46.308594 19.277344 45.679688 19.894531 44.160156 20.589844 C 42.640625 21.285156 40.289063 22 37 22 C 35.199219 22 32.828125 22.636719 30.769531 24.074219 C 28.71875 25.507813 27.011719 27.851563 27.003906 31.03125 C 26.949219 31.023438 26.960938 31 26.875 31 C 26.851563 31 26.828125 31.007813 26.804688 31.007813 C 26.601563 30.042969 26.273438 28.160156 26.273438 25.75 C 26.273438 23.132813 25.335938 21.394531 24.355469 20.386719 C 23.9375 19.957031 23.84375 20.03125 23.480469 19.816406 C 24.171875 19.003906 25.457031 17.5625 27.644531 15.777344 C 30.617188 13.351563 34.632813 11 38.726563 11 Z M 47 21.15625 C 47.242188 21.25 47.875 21.449219 48.804688 22.347656 C 49.898438 23.410156 51 25.105469 51 28 L 51 34.304688 L 52.503906 33.421875 C 52.761719 33.273438 53 33.140625 53.167969 33.054688 C 53.1875 33.042969 53.195313 33.042969 53.214844 33.03125 C 53.671875 33.078125 54 33.398438 54 33.796875 L 54 33.800781 C 54 33.875 53.878906 34.460938 53.726563 34.984375 C 53.648438 35.242188 53.570313 35.503906 53.503906 35.742188 C 53.441406 35.980469 53.375 36.148438 53.375 36.5 C 53.375 36.765625 53.15625 37 52.8125 37 L 51.019531 37 L 50.972656 37.949219 C 50.703125 43.101563 46.902344 47.300781 41.941406 48.1875 L 41.65625 48.234375 L 41.441406 48.433594 C 41.050781 48.789063 40.558594 49 40 49 C 39.441406 49 38.949219 48.785156 38.554688 48.429688 L 38.34375 48.234375 L 38.058594 48.1875 C 33.097656 47.300781 29.296875 43.101563 29.027344 37.949219 L 28.976563 37 L 27.1875 37 C 26.84375 37 26.625 36.765625 26.625 36.5 C 26.625 36.148438 26.558594 35.980469 26.492188 35.742188 C 26.425781 35.503906 26.347656 35.242188 26.269531 34.984375 C 26.117188 34.460938 26 33.875 26 33.800781 C 26 33.398438 26.328125 33.078125 26.785156 33.03125 C 26.804688 33.042969 26.8125 33.042969 26.832031 33.054688 C 27 33.140625 27.238281 33.273438 27.496094 33.421875 L 29 34.304688 L 29 31.050781 C 29 28.558594 30.242188 26.882813 31.914063 25.714844 C 33.585938 24.546875 35.710938 24 37 24 C 40.582031 24 43.230469 23.214844 44.992188 22.410156 C 46.300781 21.8125 46.644531 21.445313 47 21.15625 Z M 34.5 33 C 33.671875 33 33 33.671875 33 34.5 C 33 35.328125 33.671875 36 34.5 36 C 35.328125 36 36 35.328125 36 34.5 C 36 33.671875 35.328125 33 34.5 33 Z M 45.5 33 C 44.671875 33 44 33.671875 44 34.5 C 44 35.328125 44.671875 36 45.5 36 C 46.328125 36 47 35.328125 47 34.5 C 47 33.671875 46.328125 33 45.5 33 Z M 34 48.828125 C 35.070313 49.394531 36.226563 49.820313 37.453125 50.066406 C 38.15625 50.621094 39.027344 51 40 51 C 40.972656 51 41.835938 50.621094 42.539063 50.066406 C 43.769531 49.824219 44.929688 49.394531 46 48.828125 L 46 51.410156 C 45.613281 51.9375 45.074219 52.625 44.425781 53.316406 C 43.09375 54.734375 41.339844 56 40 56 C 38.660156 56 36.90625 54.734375 35.574219 53.316406 C 34.925781 52.625 34.386719 51.9375 34 51.410156 Z M 64 50 C 71.742188 50 78 56.257813 78 64 C 78 71.742188 71.742188 78 64 78 C 56.257813 78 50 71.742188 50 64 C 50 56.257813 56.257813 50 64 50 Z M 32.503906 52.75 C 32.921875 53.308594 33.457031 53.984375 34.113281 54.683594 C 34.867188 55.488281 35.761719 56.320313 36.769531 56.953125 L 33.011719 59.457031 L 31.054688 54.003906 Z M 47.496094 52.75 L 49.960938 54.882813 L 50.101563 54.941406 C 50.269531 55.015625 50.476563 55.109375 50.65625 55.1875 C 49.660156 56.699219 48.917969 58.390625 48.472656 60.199219 L 43.480469 56.796875 C 44.386719 56.1875 45.195313 55.421875 45.886719 54.683594 C 46.542969 53.984375 47.078125 53.308594 47.496094 52.75 Z M 29.355469 55.1875 L 31.988281 62.542969 L 38.011719 58.527344 L 38.742188 60.355469 L 38.078125 69 L 16 69 L 16 65 C 16 64.238281 16.453125 63.316406 17.367188 62.332031 C 18.28125 61.347656 19.609375 60.335938 21.09375 59.398438 C 23.855469 57.65625 27.101563 56.175781 29.355469 55.1875 Z M 63 57 L 63 63 L 57 63 L 57 65 L 63 65 L 63 71 L 65 71 L 65 65 L 71 65 L 71 63 L 65 63 L 65 57 Z M 42.09375 58.269531 L 48.082031 62.351563 C 48.027344 62.894531 48 63.445313 48 64 C 48 65.746094 48.289063 67.425781 48.8125 69 L 41.921875 69 L 41.257813 60.355469 Z"/></svg>