<svg fill="#000000" xmlns="http://www.w3.org/2000/svg" viewBox="0 0 50 50" width="300px" height="300px"><path d="M 9.984375 5.9863281 A 1.0001 1.0001 0 0 0 9.8398438 6 L 6 6 C 4.3550302 6 3 7.3550302 3 9 L 3 41 C 3 42.64497 4.3550302 44 6 44 L 30.845703 44 C 32.397025 47.52231 35.921143 50 40 50 C 45.5 50 50 45.5 50 40 C 50 37.219827 48.847586 34.697941 47 32.880859 L 47 9 C 47 7.3550302 45.64497 6 44 6 L 10.154297 6 A 1.0001 1.0001 0 0 0 9.984375 5.9863281 z M 6 8 L 9 8 L 9 39 A 1.0001 1.0001 0 1 0 11 39 L 11 8 L 44 8 C 44.56503 8 45 8.4349698 45 9 L 45 31.359375 C 44.096138 30.832806 43.107023 30.437038 42.054688 30.214844 C 42.658512 28.587738 43 26.833176 43 25 C 43 16.727562 36.272438 10 28 10 C 19.727562 10 13 16.727562 13 25 C 13 33.272438 19.727562 40 28 40 C 28.682143 40 29.349102 39.940127 30.007812 39.851562 C 30.00707 39.901444 30 39.94995 30 40 C 30 40.684743 30.068426 41.353011 30.201172 42 L 6 42 C 5.4349698 42 5 41.56503 5 41 L 5 9 C 5 8.4349698 5.4349698 8 6 8 z M 28 12 C 35.191562 12 41 17.808438 41 25 C 41 26.77805 40.628223 28.45991 39.984375 30 C 35.2524 30.007397 31.270101 33.349382 30.255859 37.787109 C 29.522155 37.915684 28.772548 38 28 38 C 20.808438 38 15 32.191562 15 25 C 15 17.808438 20.808438 12 28 12 z M 28 19 C 24.698136 19 22 21.698136 22 25 C 22 28.301864 24.698136 31 28 31 C 31.301864 31 34 28.301864 34 25 C 34 21.698136 31.301864 19 28 19 z M 28 21 C 30.220984 21 32 22.779016 32 25 C 32 27.220984 30.220984 29 28 29 C 25.779016 29 24 27.220984 24 25 C 24 22.779016 25.779016 21 28 21 z M 28 23 C 26.907275 23 26 23.907275 26 25 C 26 26.092725 26.907275 27 28 27 C 29.092725 27 30 26.092725 30 25 C 30 23.907275 29.092725 23 28 23 z M 40 32 C 44.4 32 48 35.6 48 40 C 48 44.4 44.4 48 40 48 C 35.6 48 32 44.4 32 40 C 32 35.6 35.6 32 40 32 z M 40 34.099609 C 39.4 34.099609 39 34.499609 39 35.099609 L 39 39 L 35.099609 39 C 34.499609 39 34.099609 39.4 34.099609 40 C 34.099609 40.6 34.499609 41 35.099609 41 L 39 41 L 39 44.900391 C 39 45.500391 39.4 45.900391 40 45.900391 C 40.6 45.900391 41 45.500391 41 44.900391 L 41 41 L 44.900391 41 C 45.500391 41 45.900391 40.6 45.900391 40 C 45.900391 39.4 45.500391 39 44.900391 39 L 41 39 L 41 35.099609 C 41 34.499609 40.6 34.099609 40 34.099609 z"/></svg>