<svg xmlns="http://www.w3.org/2000/svg" width="50" height="50" viewBox="0 0 100 100"><path fill="#75859e" d="M66.626,58.838c0-3.42-9.547-6.193-21.323-6.193S23.98,55.417,23.98,58.838v11.688c0,3.42,9.547,6.193,21.323,6.193c11.777,0,21.323-2.773,21.323-6.193L66.626,58.838L66.626,58.838z"/><path fill="#8f9eb6" d="M45.303 52.645A21.323 6.193 0 1 0 45.303 65.031A21.323 6.193 0 1 0 45.303 52.645Z"/><path fill="#75859e" d="M66.626,41.809c0-3.42-9.547-6.193-21.323-6.193S23.98,38.389,23.98,41.809v11.688c0,3.42,9.547,6.193,21.323,6.193c11.777,0,21.323-2.773,21.323-6.193L66.626,41.809L66.626,41.809z"/><path fill="#8f9eb6" d="M57.685,46.852c-3.491,0.724-7.765,1.15-12.382,1.15c-11.777,0-21.323-2.773-21.323-6.193c0-3.42,9.547-6.193,21.323-6.193s21.323,2.773,21.323,6.193c0,1.283-1.343,2.474-3.642,3.463"/><path fill="none" d="M60.168,46.249c-0.17,0.048-0.343,0.095-0.518,0.142"/><path fill="#75859e" d="M66.626,25.846c0-3.42-9.547-6.193-21.323-6.193S23.98,22.425,23.98,25.846v11.688c0,3.42,9.547,6.193,21.323,6.193c11.777,0,21.323-2.773,21.323-6.193L66.626,25.846L66.626,25.846z"/><path fill="#8f9eb6" d="M26.733,28.892c-1.753-0.899-2.753-1.939-2.753-3.046c0-3.42,9.547-6.193,21.323-6.193s21.323,2.773,21.323,6.193s-9.547,6.193-21.323,6.193c-5.736,0-10.943-0.658-14.775-1.728"/><path fill="none" d="M29.178,29.898c-0.122-0.041-0.242-0.082-0.36-0.124"/><path fill="#a1d3a2" d="M61.529 50.64000000000001A14.391 14.391 0 1 0 61.529 79.42200000000001A14.391 14.391 0 1 0 61.529 50.64000000000001Z"/><path fill="#1f212b" d="M60.13 46.204l-.512.14c-.267.071-.426.346-.354.612.06.224.262.371.483.371.042 0 .086-.005.129-.017l.525-.144c.266-.075.42-.352.346-.617C60.672 46.284 60.399 46.131 60.13 46.204zM29.435 29.86l-.353-.121c-.255-.095-.545.043-.638.304-.093.26.043.546.304.638l.368.127c.053.019.106.026.159.026.209 0 .403-.132.474-.341C29.837 30.231 29.696 29.948 29.435 29.86z"/><path fill="#1f212b" d="M68,51.381v-9.185c0-0.752-0.296-1.443-0.817-2.081C67.711,39.474,68,38.775,68,38.017V26.233c0-4.757-11.319-7.245-22.5-7.245S23,21.476,23,26.233v11.784c0,0.756,0.288,1.455,0.815,2.096C23.292,40.75,23,41.444,23,42.196v11.785c0,0.97,0.477,1.844,1.322,2.624C23.478,57.384,23,58.256,23,59.225V71.01c0,4.756,11.319,7.244,22.5,7.244c2.319,0,4.637-0.114,6.866-0.327c2.565,1.88,5.717,3.005,9.134,3.005c8.547,0,15.5-6.953,15.5-15.5C77,59.209,73.305,53.845,68,51.381z M61.5,49.933c-6.328,0-11.775,3.817-14.18,9.265c-0.595,0.016-1.197,0.028-1.82,0.028c-12.701,0-20.5-3.055-20.5-5.245v-9.281c3.326,2.693,11.975,4.238,20.4,4.238c4.504,0,8.82-0.401,12.483-1.161c0.271-0.056,0.444-0.32,0.388-0.591c-0.056-0.271-0.326-0.447-0.591-0.388c-3.597,0.745-7.844,1.14-12.28,1.14c-10.687,0-18.547-2.276-20.4-4.642v-1.1c0-0.251,0.117-0.515,0.321-0.783c3.88,2.538,12.064,3.85,20.179,3.85c8.117,0,16.304-1.313,20.182-3.852C65.887,41.68,66,41.944,66,42.196v0.821c-0.437,0.768-1.505,1.539-3.115,2.232c-0.254,0.108-0.371,0.403-0.262,0.656c0.108,0.255,0.403,0.372,0.656,0.262c1.163-0.501,2.065-1.053,2.721-1.64v6.078C64.575,50.171,63.065,49.933,61.5,49.933z M46.026,64.918c-0.34,0.006-0.677,0.015-1.026,0.015c-9.913,0-17.405-1.86-20-3.937v-1.771c0-0.454,0.347-0.946,0.998-1.439c4.102,2.27,11.834,3.44,19.502,3.44c0.367,0,0.733-0.01,1.099-0.015C46.263,62.396,46.068,63.637,46.026,64.918z M25,38.017v-9.273c0.437,0.356,0.964,0.699,1.602,1.027c0.245,0.127,0.548,0.031,0.673-0.216c0.127-0.246,0.029-0.547-0.216-0.673c-0.742-0.382-1.571-0.912-2.059-1.54v-1.109c0-2.19,7.799-5.245,20.5-5.245S66,24.043,66,26.233v0.773c-1.354,2.479-9.422,4.968-20.6,4.968c-5.491,0-10.69-0.607-14.641-1.709c-0.269-0.076-0.542,0.082-0.616,0.347c-0.074,0.267,0.081,0.542,0.347,0.616c4.036,1.126,9.331,1.746,14.91,1.746c8.602,0,17.435-1.611,20.6-4.409v9.452c0,2.19-7.799,5.245-20.5,5.245S25,40.208,25,38.017z M25,71.01v-8.742c3.718,2.397,12.044,3.665,20,3.665c0.341,0,0.683-0.008,1.025-0.013c0.123,3.933,1.711,7.495,4.245,10.165c-1.506,0.101-3.079,0.169-4.769,0.169C32.799,76.255,25,73.2,25,71.01z M61.5,78.933c-7.444,0-13.5-6.056-13.5-13.5s6.056-13.5,13.5-13.5S75,57.989,75,65.433S68.944,78.933,61.5,78.933z"/><path fill="#1f212b" d="M67.876,64.967h-5.75l0-6.063c0-0.276-0.224-0.5-0.5-0.5c-0.276,0-0.5,0.224-0.5,0.5l0,6.063h-5.75c-0.276,0-0.5,0.224-0.5,0.5c0,0.138,0.056,0.263,0.146,0.354s0.215,0.146,0.354,0.146h5.75l0,6.062c0,0.138,0.056,0.263,0.146,0.354s0.215,0.146,0.354,0.146c0.276,0,0.5-0.224,0.5-0.5l0-6.062h5.75c0.276,0,0.5-0.224,0.5-0.5C68.376,65.191,68.152,64.967,67.876,64.967z"/></svg>