<svg xmlns="http://www.w3.org/2000/svg" width="300" height="300" fill="#000" viewBox="0 0 50 50"><path d="M 23 2 C 21.277778 2 19.700066 2.6109179 18.623047 3.8417969 C 17.717636 4.8765528 17.192833 6.2899707 17.046875 8 L 8 8 C 6.3545455 8 5 9.3545455 5 11 L 5 44 C 5 45.645455 6.3545455 47 8 47 L 42 47 C 43.645455 47 45 45.645455 45 44 L 45 11 C 45 9.3545455 43.645455 8 42 8 L 41 8 C 39.562821 8 36.21502 6.5899937 32.818359 5.0859375 C 29.421699 3.5818813 25.9 2 23 2 z M 23 4 C 25.1 4 28.629473 5.4181187 32.007812 6.9140625 C 32.831787 7.2789221 33.641397 7.6483844 34.431641 8 L 19.064453 8 C 19.201014 6.7132295 19.586904 5.7754025 20.126953 5.1582031 C 20.799934 4.3890821 21.722222 4 23 4 z M 8 10 L 17 10 L 17 13 L 7 13 L 7 11 C 7 10.445455 7.4454545 10 8 10 z M 19 10 L 41 10 L 42 10 C 42.554545 10 43 10.445455 43 11 L 43 13 L 19 13 L 19 10 z M 7 15 L 15 15 L 15 16 C 15 17.1 15.9 18 17 18 L 17 19 L 19 19 L 19 18 C 20.1 18 21 17.1 21 16 L 21 15 L 43 15 L 43 40 L 7 40 L 7 15 z M 25 18.927734 L 24.636719 19.068359 L 15 22.816406 L 15 35.183594 L 25 39.072266 L 35 35.183594 L 35 22.816406 L 25 18.927734 z M 25 21.072266 L 32 23.794922 L 25 26.90625 L 18 23.794922 L 25 21.072266 z M 17 25.539062 L 24 28.650391 L 24 36.539062 L 17 33.816406 L 17 25.539062 z M 33 25.539062 L 33 33.816406 L 26 36.539062 L 26 28.650391 L 33 25.539062 z M 7 42 L 43 42 L 43 44 C 43 44.554545 42.554545 45 42 45 L 8 45 C 7.4454545 45 7 44.554545 7 44 L 7 42 z"/></svg>