<svg xmlns="http://www.w3.org/2000/svg" width="50" height="50" fill="#000" viewBox="0 0 50 50"><path d="M15,29h13V16H15V29z M23.167,9c0.238,0,0.47,0.085,0.65,0.241L29.37,14H46L34.418,3.256C34.234,3.091,33.997,3,33.75,3 H4.357l5.5,6H23.167z M8,24.167V10c0-0.016,0.006-0.03,0.007-0.046c0-0.004-0.001-0.009-0.001-0.013L3,4.48v30.27 c0,0.23,0.08,0.454,0.226,0.632L13,47V30.369l-4.759-5.552C8.085,24.636,8,24.405,8,24.167z M30,16v5h9.586l-1.293-1.293 c-0.391-0.391-0.391-1.023,0-1.414s1.023-0.391,1.414,0l3,3c0.391,0.391,0.391,1.023,0,1.414l-3,3C39.512,25.902,39.256,26,39,26 s-0.512-0.098-0.707-0.293c-0.391-0.391-0.391-1.023,0-1.414L39.586,23H30v7c0,0.552-0.447,1-1,1h-7v9.586l1.293-1.293 c0.391-0.391,1.023-0.391,1.414,0s0.391,1.023,0,1.414l-3,3C21.512,43.902,21.256,44,21,44s-0.512-0.098-0.707-0.293l-3-3 c-0.391-0.391-0.391-1.023,0-1.414s1.023-0.391,1.414,0L20,40.586V31h-5v17h31c0.553,0,1-0.448,1-1V16H30z M10,23.796l3,3.5V15.414 l-3-3V23.796z M22.797,11H11.69l2.75,3h11.857L22.797,11z"/></svg>