<svg xmlns="http://www.w3.org/2000/svg" viewBox="0 0 80 80" width="50px" height="50px"><path fill="#36404d" d="M71.564,17.951c-5.371-1.197-12.107-3.518-18.622-5.762C44.34,9.228,36.188,6,32,6	c-7.689,0-8.004,5.646-8,6l0,2h-2l0-1.971C21.992,11.315,22.179,4,32,4c4.522,0,12.829,3.28,21.593,6.299	C60.056,12.524,66.738,14.826,72,16L71.564,17.951z"/><path fill="#b0c1d4" d="M8,75.5c-1.93,0-3.5-1.57-3.5-3.5V20c0-1.93,1.57-3.5,3.5-3.5h64c1.93,0,3.5,1.57,3.5,3.5v52 c0,1.93-1.57,3.5-3.5,3.5H8z"/><path fill="#66798f" d="M72,17c1.654,0,3,1.346,3,3v52c0,1.654-1.346,3-3,3H8c-1.654,0-3-1.346-3-3V20c0-1.654,1.346-3,3-3 H72 M72,16H8c-2.2,0-4,1.8-4,4v52c0,2.209,1.791,4,4,4h64c2.2,0,4-1.8,4-4V20C76,17.8,74.2,16,72,16L72,16z"/><path fill="#fff" d="M12 24H68V68H12z"/><path fill="#b0c1d4" d="M72,72H52v-8c0-2.209,1.791-4,4-4h16V72z"/><path fill="#f78f8f" d="M26.5 53.67L26.5 36.33 40 30.544 53.5 36.33 53.5 53.67 40 59.456z"/><path fill="#c74343" d="M40,31.088l13,5.571v16.681l-13,5.571l-13-5.571V36.659L40,31.088 M40,30l-14,6v18l14,6l14-6V36 L40,30L40,30z"/><path fill="#36404d" d="M22 28H24V34H22z"/><path fill="#ffeea3" d="M56 64H68V68H56z"/><path fill="#c74343" d="M40 60L54 54 54 36 40 42z"/><g><path fill="#8bb7f0" d="M20,29.5c-0.827,0-1.5-0.673-1.5-1.5V14c0-0.827,0.673-1.5,1.5-1.5h6c0.827,0,1.5,0.673,1.5,1.5v14 c0,0.827-0.673,1.5-1.5,1.5H20z"/><path fill="#4e7ab5" d="M26,13c0.551,0,1,0.449,1,1v14c0,0.551-0.449,1-1,1h-6c-0.551,0-1-0.449-1-1V14c0-0.551,0.449-1,1-1 H26 M26,12h-6c-1.105,0-2,0.895-2,2v14c0,1.105,0.895,2,2,2h6c1.105,0,2-0.895,2-2V14C28,12.895,27.105,12,26,12L26,12z"/></g><path fill="#d86464" d="M27 36.659L27 36.87 40.029 42 52.745 36.55 40 31.088z"/></svg>