<svg xmlns="http://www.w3.org/2000/svg" width="100" height="100" fill="#000" viewBox="0 0 50 50"><path d="M 25 2 A 1 1 0 0 0 24 3 A 1 1 0 0 0 25 4 A 1 1 0 0 0 26 3 A 1 1 0 0 0 25 2 z M 20.712891 2.421875 A 1 1 0 0 0 20.513672 2.4414062 A 1 1 0 0 0 19.728516 3.6171875 A 1 1 0 0 0 20.904297 4.4042969 A 1 1 0 0 0 21.689453 3.2285156 A 1 1 0 0 0 20.712891 2.421875 z M 29.318359 2.421875 A 1 1 0 0 0 28.3125 3.2265625 A 1 1 0 0 0 29.097656 4.4023438 A 1 1 0 0 0 30.273438 3.6171875 A 1 1 0 0 0 29.488281 2.4414062 A 1 1 0 0 0 29.318359 2.421875 z M 16.587891 3.6738281 A 1 1 0 0 0 16.197266 3.75 A 1 1 0 0 0 15.65625 5.0566406 A 1 1 0 0 0 16.962891 5.5976562 A 1 1 0 0 0 17.503906 4.2910156 A 1 1 0 0 0 16.587891 3.6738281 z M 33.441406 3.6738281 A 1 1 0 0 0 32.496094 4.2910156 A 1 1 0 0 0 33.037109 5.5976562 A 1 1 0 0 0 34.34375 5.0566406 A 1 1 0 0 0 33.802734 3.75 A 1 1 0 0 0 33.441406 3.6738281 z M 12.789062 5.7070312 A 1 1 0 0 0 12.222656 5.8769531 A 1 1 0 0 0 11.945312 7.2636719 A 1 1 0 0 0 13.333984 7.5390625 A 1 1 0 0 0 13.609375 6.1523438 A 1 1 0 0 0 12.789062 5.7070312 z M 37.240234 5.7070312 A 1 1 0 0 0 36.390625 6.1503906 A 1 1 0 0 0 36.667969 7.5371094 A 1 1 0 0 0 38.054688 7.2617188 A 1 1 0 0 0 37.779297 5.875 A 1 1 0 0 0 37.240234 5.7070312 z M 9.4589844 8.4433594 A 1 1 0 0 0 8.7363281 8.7363281 A 1 1 0 0 0 8.7363281 10.150391 A 1 1 0 0 0 10.150391 10.150391 A 1 1 0 0 0 10.150391 8.7363281 A 1 1 0 0 0 9.4589844 8.4433594 z M 40.570312 8.4433594 A 1 1 0 0 0 39.849609 8.7363281 A 1 1 0 0 0 39.849609 10.150391 A 1 1 0 0 0 41.263672 10.150391 A 1 1 0 0 0 41.263672 8.7363281 A 1 1 0 0 0 40.570312 8.4433594 z M 25 9 C 16.175289 9 9 16.175289 9 25 C 9 33.824711 16.175289 41 25 41 C 33.824711 41 41 33.824711 41 25 C 41 16.175289 33.824711 9 25 9 z M 25 11 C 32.743831 11 39 17.256169 39 25 C 39 32.743831 32.743831 39 25 39 C 17.256169 39 11 32.743831 11 25 C 11 17.256169 17.256169 11 25 11 z M 6.7265625 11.775391 A 1 1 0 0 0 5.8769531 12.220703 A 1 1 0 0 0 6.1523438 13.607422 A 1 1 0 0 0 7.5390625 13.332031 A 1 1 0 0 0 7.2636719 11.945312 A 1 1 0 0 0 6.7265625 11.775391 z M 43.302734 11.775391 A 1 1 0 0 0 42.736328 11.945312 A 1 1 0 0 0 42.460938 13.332031 A 1 1 0 0 0 43.847656 13.607422 A 1 1 0 0 0 44.123047 12.220703 A 1 1 0 0 0 43.302734 11.775391 z M 4.6972656 15.580078 A 1 1 0 0 0 3.7519531 16.197266 A 1 1 0 0 0 4.2929688 17.503906 A 1 1 0 0 0 5.5996094 16.962891 A 1 1 0 0 0 5.0585938 15.65625 A 1 1 0 0 0 4.6972656 15.580078 z M 45.332031 15.580078 A 1 1 0 0 0 44.943359 15.65625 A 1 1 0 0 0 44.400391 16.962891 A 1 1 0 0 0 45.707031 17.503906 A 1 1 0 0 0 46.25 16.197266 A 1 1 0 0 0 45.332031 15.580078 z M 25 16 C 20.053127 16 16 20.053127 16 25 C 16 29.946873 20.053127 34 25 34 C 29.946873 34 34 29.946873 34 25 C 34 20.053127 29.946873 16 25 16 z M 46.582031 19.707031 A 1 1 0 0 0 46.382812 19.726562 A 1 1 0 0 0 45.597656 20.902344 A 1 1 0 0 0 46.773438 21.689453 A 1 1 0 0 0 47.558594 20.513672 A 1 1 0 0 0 46.582031 19.707031 z M 3.4492188 19.708984 A 1 1 0 0 0 2.4414062 20.513672 A 1 1 0 0 0 3.2285156 21.689453 A 1 1 0 0 0 4.4042969 20.902344 A 1 1 0 0 0 3.6171875 19.726562 A 1 1 0 0 0 3.4492188 19.708984 z M 25 20 C 27.785113 20 30 22.214887 30 25 C 30 27.785113 27.785113 30 25 30 C 22.214887 30 20 27.785113 20 25 C 20 22.214887 22.214887 20 25 20 z M 3 24 A 1 1 0 0 0 2 25 A 1 1 0 0 0 3 26 A 1 1 0 0 0 4 25 A 1 1 0 0 0 3 24 z M 47 24 A 1 1 0 0 0 46 25 A 1 1 0 0 0 47 26 A 1 1 0 0 0 48 25 A 1 1 0 0 0 47 24 z M 46.603516 28.291016 A 1 1 0 0 0 45.597656 29.095703 A 1 1 0 0 0 46.382812 30.271484 A 1 1 0 0 0 47.558594 29.486328 A 1 1 0 0 0 46.773438 28.310547 A 1 1 0 0 0 46.603516 28.291016 z M 3.4277344 28.292969 A 1 1 0 0 0 3.2285156 28.3125 A 1 1 0 0 0 2.4433594 29.488281 A 1 1 0 0 0 3.6191406 30.273438 A 1 1 0 0 0 4.4042969 29.097656 A 1 1 0 0 0 3.4277344 28.292969 z M 4.6816406 32.417969 A 1 1 0 0 0 4.2929688 32.494141 A 1 1 0 0 0 3.7519531 33.800781 A 1 1 0 0 0 5.0585938 34.341797 A 1 1 0 0 0 5.5996094 33.035156 A 1 1 0 0 0 4.6816406 32.417969 z M 45.347656 32.417969 A 1 1 0 0 0 44.402344 33.035156 A 1 1 0 0 0 44.943359 34.341797 A 1 1 0 0 0 46.25 33.800781 A 1 1 0 0 0 45.708984 32.494141 A 1 1 0 0 0 45.347656 32.417969 z M 43.310547 36.220703 A 1 1 0 0 0 42.460938 36.666016 A 1 1 0 0 0 42.738281 38.052734 A 1 1 0 0 0 44.125 37.777344 A 1 1 0 0 0 43.849609 36.390625 A 1 1 0 0 0 43.310547 36.220703 z M 6.7207031 36.222656 A 1 1 0 0 0 6.1542969 36.390625 A 1 1 0 0 0 5.8789062 37.777344 A 1 1 0 0 0 7.265625 38.052734 A 1 1 0 0 0 7.5410156 36.666016 A 1 1 0 0 0 6.7207031 36.222656 z M 9.4570312 39.556641 A 1 1 0 0 0 8.7363281 39.847656 A 1 1 0 0 0 8.7363281 41.263672 A 1 1 0 0 0 10.150391 41.261719 A 1 1 0 0 0 10.150391 39.847656 A 1 1 0 0 0 9.4570312 39.556641 z M 40.570312 39.556641 A 1 1 0 0 0 39.847656 39.849609 A 1 1 0 0 0 39.847656 41.263672 A 1 1 0 0 0 41.261719 41.263672 A 1 1 0 0 0 41.261719 39.849609 A 1 1 0 0 0 40.570312 39.556641 z M 12.796875 42.291016 A 1 1 0 0 0 11.947266 42.736328 A 1 1 0 0 0 12.222656 44.123047 A 1 1 0 0 0 13.609375 43.847656 A 1 1 0 0 0 13.333984 42.458984 A 1 1 0 0 0 12.796875 42.291016 z M 37.234375 42.291016 A 1 1 0 0 0 36.667969 42.458984 A 1 1 0 0 0 36.392578 43.845703 A 1 1 0 0 0 37.779297 44.121094 A 1 1 0 0 0 38.054688 42.734375 A 1 1 0 0 0 37.234375 42.291016 z M 16.603516 44.324219 A 1 1 0 0 0 15.658203 44.941406 A 1 1 0 0 0 16.199219 46.248047 A 1 1 0 0 0 17.505859 45.707031 A 1 1 0 0 0 16.964844 44.400391 A 1 1 0 0 0 16.603516 44.324219 z M 33.425781 44.324219 A 1 1 0 0 0 33.037109 44.400391 A 1 1 0 0 0 32.496094 45.707031 A 1 1 0 0 0 33.802734 46.248047 A 1 1 0 0 0 34.34375 44.941406 A 1 1 0 0 0 33.425781 44.324219 z M 20.734375 45.578125 A 1 1 0 0 0 19.728516 46.382812 A 1 1 0 0 0 20.513672 47.558594 A 1 1 0 0 0 21.689453 46.773438 A 1 1 0 0 0 20.904297 45.597656 A 1 1 0 0 0 20.734375 45.578125 z M 29.296875 45.578125 A 1 1 0 0 0 29.097656 45.597656 A 1 1 0 0 0 28.3125 46.773438 A 1 1 0 0 0 29.488281 47.558594 A 1 1 0 0 0 30.273438 46.382812 A 1 1 0 0 0 29.296875 45.578125 z M 25 46 A 1 1 0 0 0 24 47 A 1 1 0 0 0 25 48 A 1 1 0 0 0 26 47 A 1 1 0 0 0 25 46 z"/></svg>