<svg xmlns="http://www.w3.org/2000/svg" width="50" height="50" fill="#000" viewBox="0 0 24 24"><path d="M 11 2 L 11 4 L 13 4 L 13 2 L 11 2 z M 9 4.3457031 C 4.948 5.3037031 2 8.148 2 11.5 C 2 15.122574 5.4406991 18.153083 10 18.849609 L 10 22 L 14 18 L 10 14 L 10 16.818359 C 6.5554724 16.205175 4 14.056531 4 11.5 C 4 9.197 6.072 7.2222969 9 6.4042969 L 9 4.3457031 z M 15 4.3457031 L 15 6.4042969 C 17.928 7.2222969 20 9.197 20 11.5 C 20 13.281 18.716453 14.965859 16.564453 16.005859 L 17.435547 17.806641 C 20.294547 16.424641 22 14.066 22 11.5 C 22 8.148 19.052 5.3037031 15 4.3457031 z M 11 6 L 11 8 L 13 8 L 13 6 L 11 6 z M 11 10 L 11 12 L 13 12 L 13 10 L 11 10 z"/></svg>