<svg xmlns="http://www.w3.org/2000/svg" width="500" height="500" fill="#000" viewBox="0 0 50 50"><path d="M 23 2 C 21.277344 2 19.699219 2.609375 18.625 3.84375 C 17.71875 4.875 17.191406 6.289063 17.046875 8 L 8 8 C 6.34375 8 5 9.34375 5 11 L 5 44 C 5 45.65625 6.34375 47 8 47 L 42 47 C 43.65625 47 45 45.65625 45 44 L 45 11 C 45 9.34375 43.65625 8 42 8 L 41 8 C 39.582031 8 36.230469 6.589844 32.828125 5.085938 C 29.425781 3.582031 25.898438 2 23 2 Z M 23 4 C 25.101563 4 28.636719 5.417969 32.019531 6.914063 C 32.84375 7.277344 33.652344 7.648438 34.441406 8 L 19.0625 8 C 19.199219 6.714844 19.585938 5.777344 20.125 5.15625 C 20.800781 4.390625 21.722656 4 23 4 Z M 7 14 L 43 14 L 43 41 L 7 41 Z M 15 15 L 15 16 C 15 17.105469 15.894531 18 17 18 L 17 19 L 19 19 L 19 18 C 20.105469 18 21 17.105469 21 16 L 21 15 Z M 25 19.519531 L 16.621094 21.953125 L 25 24.933594 L 33.328125 21.9375 Z M 35 23.289063 L 26 26.691406 L 26 37.71875 L 35 34.71875 Z M 15 23.324219 L 15 34.71875 L 24 37.71875 L 24 26.691406 Z"/></svg>