<svg fill="#000000" xmlns="http://www.w3.org/2000/svg" viewBox="0 0 50 50" width="100px" height="100px"><path d="M 32.015625 0.992188 C 31.972656 0.992188 31.925781 0.992188 31.878906 1 L 11 1 C 10.636719 1 10.300781 1.195313 10.125 1.515625 L 5.191406 10.390625 C 4.988281 10.660156 4.933594 11.007813 5.039063 11.324219 C 5.148438 11.640625 5.410156 11.882813 5.734375 11.96875 C 5.734375 11.96875 5.738281 11.96875 5.742188 11.96875 L 16.0625 15.410156 L 6.328125 24.261719 C 6.121094 24.449219 6 24.71875 6 25 C 6 25.28125 6.121094 25.550781 6.328125 25.738281 L 16.0625 34.589844 L 5.738281 38.03125 C 5.414063 38.117188 5.15625 38.355469 5.046875 38.671875 C 4.933594 38.984375 4.988281 39.335938 5.1875 39.601563 L 10.125 48.484375 C 10.300781 48.804688 10.636719 49 11 49 L 31.796875 49 C 32.0625 49.0625 32.339844 49.015625 32.566406 48.871094 C 32.796875 48.726563 32.957031 48.492188 33.011719 48.226563 L 44.828125 25.578125 C 45.082031 25.21875 45.074219 24.734375 44.808594 24.386719 L 32.953125 1.664063 C 32.816406 1.265625 32.441406 0.996094 32.015625 0.992188 Z M 11.589844 3 L 29.453125 3 L 21.921875 9.996094 C 21.910156 9.996094 21.898438 10 21.886719 10 L 7.703125 10 Z M 31.71875 3.625 L 41.390625 22.152344 L 23.8125 10.96875 Z M 12.167969 12 L 19.761719 12 L 17.753906 13.863281 Z M 23 12.824219 L 35.03125 20.480469 L 23 15.847656 Z M 21 13.578125 L 21 15.078125 L 19.855469 14.640625 Z M 18.214844 16.15625 L 21 17.226563 L 21 32.773438 L 18.214844 33.84375 L 8.484375 25 Z M 23 17.996094 L 41.210938 25 L 23 32.003906 Z M 41.386719 27.847656 L 31.71875 46.375 L 23.8125 39.03125 Z M 35.03125 29.519531 L 23 37.175781 L 23 34.148438 Z M 21 34.917969 L 21 36.421875 L 19.855469 35.359375 Z M 17.753906 36.136719 L 19.761719 38 L 12.167969 38 Z M 7.703125 40 L 21.917969 40 L 29.453125 47 L 11.589844 47 Z"/></svg>