<svg xmlns="http://www.w3.org/2000/svg" width="50" height="50" fill="#000" viewBox="0 0 50 50"><path d="M 3.984375 3 A 1.0001 1.0001 0 0 0 3.8183594 3.0175781 A 1.0001 1.0001 0 0 0 3.7695312 3.0273438 A 1.0001 1.0001 0 0 0 3.7128906 3.0429688 A 1.0001 1.0001 0 0 0 3.6953125 3.0488281 A 1.0001 1.0001 0 0 0 3.5292969 3.1191406 A 1.0001 1.0001 0 0 0 3.5097656 3.1308594 A 1.0001 1.0001 0 0 0 3.2226562 3.3730469 A 1.0001 1.0001 0 0 0 3.203125 3.3984375 A 1.0001 1.0001 0 0 0 3.1699219 3.4453125 A 1.0001 1.0001 0 0 0 3.1386719 3.4960938 A 1.0001 1.0001 0 0 0 3.1171875 3.5332031 A 1.0001 1.0001 0 0 0 3.1015625 3.5644531 A 1.0001 1.0001 0 0 0 3.0371094 3.7304688 A 1.0001 1.0001 0 0 0 3.0371094 3.7324219 A 1.0001 1.0001 0 0 0 3.0351562 3.7382812 A 1.0001 1.0001 0 0 0 3.0175781 3.8203125 A 1.0001 1.0001 0 0 0 3.0136719 3.8476562 A 1.0001 1.0001 0 0 0 3 4 L 3 34.75 A 1.0001 1.0001 0 0 0 3.2246094 35.382812 L 13.224609 47.632812 A 1.0001 1.0001 0 0 0 13.230469 47.638672 A 1.0001 1.0001 0 0 0 13.248047 47.658203 A 1.0001 1.0001 0 0 0 13.302734 47.716797 A 1.0001 1.0001 0 0 0 13.378906 47.783203 A 1.0001 1.0001 0 0 0 13.458984 47.841797 A 1.0001 1.0001 0 0 0 13.830078 47.986328 A 1.0001 1.0001 0 0 0 13.929688 47.998047 A 1.0001 1.0001 0 0 0 14.039062 48 L 46 48 A 1.0001 1.0001 0 0 0 47 47 L 47 15 A 1.0001 1.0001 0 0 0 47 14.992188 A 1.0001 1.0001 0 0 0 46.994141 14.900391 A 1.0001 1.0001 0 0 0 46.984375 14.835938 A 1.0001 1.0001 0 0 0 46.972656 14.771484 A 1.0001 1.0001 0 0 0 46.947266 14.685547 A 1.0001 1.0001 0 0 0 46.945312 14.675781 A 1.0001 1.0001 0 0 0 46.939453 14.664062 A 1.0001 1.0001 0 0 0 46.908203 14.583984 A 1.0001 1.0001 0 0 0 46.876953 14.521484 A 1.0001 1.0001 0 0 0 46.835938 14.453125 A 1.0001 1.0001 0 0 0 46.826172 14.435547 A 1.0001 1.0001 0 0 0 46.808594 14.410156 A 1.0001 1.0001 0 0 0 46.787109 14.384766 A 1.0001 1.0001 0 0 0 46.751953 14.339844 A 1.0001 1.0001 0 0 0 46.746094 14.333984 A 1.0001 1.0001 0 0 0 46.697266 14.283203 A 1.0001 1.0001 0 0 0 46.693359 14.279297 A 1.0001 1.0001 0 0 0 46.667969 14.255859 L 34.417969 3.2558594 A 1.0001 1.0001 0 0 0 33.75 3 L 4 3 A 1.0001 1.0001 0 0 0 3.984375 3 z M 6.2597656 5 L 33.367188 5 L 43.390625 14 L 29.369141 14 L 23.818359 9.2402344 A 1.0001 1.0001 0 0 0 23.167969 9 L 9.8964844 9 L 6.2597656 5 z M 5 6.5878906 L 8.0058594 9.8984375 A 1.0001 1.0001 0 0 0 8.0019531 9.9648438 A 1.0001 1.0001 0 0 0 8 10 A 1.0001 1.0001 0 0 0 8 10.029297 L 8 24.167969 A 1.0001 1.0001 0 0 0 8.2402344 24.818359 L 13 30.371094 L 13 44.193359 L 5 34.394531 L 5 6.5878906 z M 11.714844 11 L 22.796875 11 L 26.296875 14 L 14.441406 14 L 11.714844 11 z M 10 12.414062 L 13 15.414062 L 13 27.296875 L 10 23.796875 L 10 12.414062 z M 15 16 L 28 16 L 28 29 L 21.154297 29 A 1.0001 1.0001 0 0 0 20.984375 28.986328 A 1.0001 1.0001 0 0 0 20.839844 29 L 15 29 L 15 16 z M 30 16 L 45 16 L 45 46 L 15 46 L 15 31 L 20 31 L 20 39.585938 L 18.707031 38.292969 A 1.0001 1.0001 0 0 0 17.990234 37.990234 A 1.0001 1.0001 0 0 0 17.292969 39.707031 L 20.150391 42.564453 A 1.0001 1.0001 0 0 0 21.005859 43.013672 A 1.0001 1.0001 0 0 0 21.009766 43.013672 A 1.0001 1.0001 0 0 0 21.013672 43.013672 A 1.0001 1.0001 0 0 0 21.853516 42.560547 L 24.707031 39.707031 A 1.0001 1.0001 0 0 0 23.980469 37.990234 A 1.0001 1.0001 0 0 0 23.292969 38.292969 L 22 39.585938 L 22 31 L 29 31 A 1.0001 1.0001 0 0 0 30 30 L 30 23 L 39.585938 23 L 38.292969 24.292969 A 1.0001 1.0001 0 1 0 39.707031 25.707031 L 42.601562 22.8125 A 1.0001 1.0001 0 0 0 43.005859 22.089844 A 1.0001 1.0001 0 0 0 43.009766 22.011719 A 1.0001 1.0001 0 0 0 43.009766 22.003906 A 1.0001 1.0001 0 0 0 42.59375 21.179688 L 39.707031 18.292969 A 1.0001 1.0001 0 0 0 38.990234 17.990234 A 1.0001 1.0001 0 0 0 38.292969 19.707031 L 39.585938 21 L 30 21 L 30 16 z"/></svg>