<svg xmlns="http://www.w3.org/2000/svg" width="300" height="300" fill="#000" viewBox="0 0 24 24"><path d="M 9.53125 2 C 8.964844 1.972656 8.402344 2.042969 7.875 2.21875 C 7.347656 2.394531 6.84375 2.71875 6.5 3.21875 C 6.332031 3.460938 6.207031 3.710938 6.125 4 L 6 4 C 5.398438 4 5 4.398438 5 5 L 3 5 C 2.96875 5 2.9375 5 2.90625 5 C 2.875 5 2.84375 5 2.8125 5 C 2.335938 5.089844 1.992188 5.511719 2 6 L 2 19.53125 C 1.867188 19.808594 1.867188 20.128906 2 20.40625 L 2 21 C 2 21.550781 2.449219 22 3 22 L 21 22 C 21.550781 22 22 21.550781 22 21 L 22 18.1875 C 22.027344 18.054688 22.027344 17.914063 22 17.78125 L 22 6 C 22 5.449219 21.550781 5 21 5 L 17.3125 5 C 15.851563 4.015625 13.511719 2.832031 11.28125 2.28125 C 10.691406 2.136719 10.097656 2.027344 9.53125 2 Z M 8.90625 4.03125 C 9.371094 4 10.035156 4.066406 10.78125 4.25 C 11.46875 4.417969 12.207031 4.699219 12.9375 5 L 9 5 C 9 4.585938 8.8125 4.253906 8.5 4.09375 C 8.601563 4.058594 8.75 4.042969 8.90625 4.03125 Z M 4 7 L 5 7 C 5 7.601563 5.398438 8 6 8 L 6 9 L 8 9 L 8 8 C 8.601563 8 9 7.601563 9 7 L 20 7 L 20 17 L 17 17 C 16.96875 17 16.9375 17 16.90625 17 C 16.875 17 16.84375 17 16.8125 17 C 16.769531 17.007813 16.726563 17.019531 16.6875 17.03125 C 16.65625 17.039063 16.625 17.050781 16.59375 17.0625 C 16.34375 17.136719 16.128906 17.304688 16 17.53125 C 15.988281 17.5625 15.976563 17.59375 15.96875 17.625 L 14.5625 19 L 4 19 Z M 11.875 8 C 11.765625 8.015625 11.660156 8.046875 11.5625 8.09375 L 7.78125 10 C 7.71875 10.015625 7.652344 10.035156 7.59375 10.0625 L 7.5625 10.09375 C 7.484375 10.125 7.410156 10.167969 7.34375 10.21875 C 7.332031 10.230469 7.324219 10.238281 7.3125 10.25 C 7.289063 10.269531 7.269531 10.289063 7.25 10.3125 C 7.25 10.324219 7.25 10.332031 7.25 10.34375 C 7.230469 10.351563 7.207031 10.363281 7.1875 10.375 C 7.1875 10.386719 7.1875 10.394531 7.1875 10.40625 C 7.164063 10.425781 7.144531 10.445313 7.125 10.46875 C 7.125 10.480469 7.125 10.488281 7.125 10.5 C 7.066406 10.597656 7.023438 10.703125 7 10.8125 C 7 10.832031 7 10.855469 7 10.875 C 6.980469 10.988281 6.980469 11.105469 7 11.21875 L 7 15 C 6.996094 15.386719 7.214844 15.738281 7.5625 15.90625 L 11.5 17.875 C 11.511719 17.886719 11.519531 17.894531 11.53125 17.90625 L 11.5625 17.90625 C 11.59375 17.917969 11.625 17.929688 11.65625 17.9375 C 11.675781 17.949219 11.699219 17.960938 11.71875 17.96875 C 11.730469 17.96875 11.738281 17.96875 11.75 17.96875 C 11.769531 17.980469 11.792969 17.992188 11.8125 18 C 11.824219 18 11.832031 18 11.84375 18 C 11.875 18 11.90625 18 11.9375 18 C 11.980469 18.003906 12.019531 18.003906 12.0625 18 C 12.125 17.996094 12.1875 17.984375 12.25 17.96875 C 12.28125 17.960938 12.3125 17.949219 12.34375 17.9375 C 12.375 17.929688 12.40625 17.917969 12.4375 17.90625 L 16.4375 15.90625 C 16.785156 15.738281 17.003906 15.386719 17 15 L 17 11 C 17 10.96875 17 10.9375 17 10.90625 C 16.976563 10.5625 16.773438 10.253906 16.46875 10.09375 C 16.457031 10.09375 16.449219 10.09375 16.4375 10.09375 L 16.375 10.0625 C 16.34375 10.050781 16.3125 10.039063 16.28125 10.03125 L 12.4375 8.09375 C 12.261719 8.007813 12.066406 7.976563 11.875 8 Z M 12 10.125 L 13.71875 11 L 11.9375 11.84375 L 10.25 11 Z M 9 12.625 L 11 13.625 L 11 15.375 L 9 14.375 Z"/></svg>