<svg xmlns="http://www.w3.org/2000/svg" width="100" height="100" viewBox="0 0 64 64"><radialGradient id="9vx0RdEqOzHVHs0Zyr8F8a" cx="32" cy="4021.5" r="30.775" gradientTransform="translate(0 -3990)" gradientUnits="userSpaceOnUse"><stop offset="0" stop-color="#f4e9c3"/><stop offset=".219" stop-color="#f8eecd"/><stop offset=".644" stop-color="#fdf4dc"/><stop offset="1" stop-color="#fff6e1"/></radialGradient><path fill="url(#9vx0RdEqOzHVHs0Zyr8F8a)" d="M5.5,61L5.5,61C3.015,61,1,58.985,1,56.5l0,0C1,54.015,3.015,52,5.5,52l0,0	c2.485,0,4.5,2.015,4.5,4.5l0,0C10,58.985,7.985,61,5.5,61z M64,24L64,24c0-2.761-2.239-5-5-5h-1c-2.761,0-4-2.238-4-5h-5	c0-2.762,2.238-5,5-5h0.565C56.48,9,58,7.48,58,5.605V5.5C58,3.567,56.433,2,54.5,2h-44C8.574,2,7.01,3.556,7,5.483V5.5	C6.99,7.43,8.553,9,10.483,9H11c2.209,0,4,1.791,4,4h-3c0,2.209-0.791,4-3,4H5c-2.761,0-5,2.239-5,5l0,0c0,2.761,2.239,5,5,5h1	c2.209,0,1,1.791,1,4l0,0c0,2.209,1.209,4-1,4H5.5C2.462,35,0,37.462,0,40.5l0,0C0,43.538,2.462,46,5.5,46H19c1.657,0,3,1.343,3,3	l0,0c0,1.657-1.343,3-3,3h-1.5c-2.485,0-4.5,2.015-4.5,4.5l0,0c0,2.485,2.015,4.5,4.5,4.5H33h22c2.209,0,4-1.791,4-4l0,0	c0-2.209-1.791-4-4-4h-6.5c-1.933,0-3.5-1.567-3.5-3.5l0,0c0-1.933,1.567-3.5,3.5-3.5H60c2.209,0,4-1.791,4-4l0,0	c0-2.209-1.791-4-4-4h-1.5c-2.485,0-1.5-2.015-1.5-4.5l0,0c0-2.485-0.985-4.5,1.5-4.5H59C61.761,29,64,26.761,64,24z"/><linearGradient id="9vx0RdEqOzHVHs0Zyr8F8b" x1="52.5" x2="52.5" y1="4001" y2="4034" gradientTransform="translate(0 -3990)" gradientUnits="userSpaceOnUse"><stop offset="0" stop-color="#a4a4a4"/><stop offset=".63" stop-color="#7f7f7f"/><stop offset="1" stop-color="#6f6f6f"/><stop offset="1" stop-color="#6f6f6f"/></linearGradient><path fill="url(#9vx0RdEqOzHVHs0Zyr8F8b)" d="M58,44c-1.104,0-2-0.896-2-2V22c0-3.859-3.14-7-7-7h-2c-1.104,0-2-0.896-2-2s0.896-2,2-2h2	c6.065,0,11,4.935,11,11v20C60,43.104,59.104,44,58,44z"/><linearGradient id="9vx0RdEqOzHVHs0Zyr8F8c" x1="11.5" x2="11.5" y1="4001" y2="4034" gradientTransform="translate(0 -3990)" gradientUnits="userSpaceOnUse"><stop offset="0" stop-color="#a4a4a4"/><stop offset=".63" stop-color="#7f7f7f"/><stop offset="1" stop-color="#6f6f6f"/><stop offset="1" stop-color="#6f6f6f"/></linearGradient><path fill="url(#9vx0RdEqOzHVHs0Zyr8F8c)" d="M6,44c-1.104,0-2-0.896-2-2V22c0-6.065,4.935-11,11-11h2c1.104,0,2,0.896,2,2s-0.896,2-2,2h-2	c-3.86,0-7,3.141-7,7v20C8,43.104,7.104,44,6,44z"/><linearGradient id="9vx0RdEqOzHVHs0Zyr8F8d" x1="32" x2="32" y1="35" y2="13" gradientTransform="matrix(1 0 0 -1 0 66)" gradientUnits="userSpaceOnUse"><stop offset="0" stop-color="#a4a4a4"/><stop offset=".63" stop-color="#7f7f7f"/><stop offset="1" stop-color="#6f6f6f"/><stop offset="1" stop-color="#6f6f6f"/></linearGradient><path fill="url(#9vx0RdEqOzHVHs0Zyr8F8d)" d="M57,31H37.117c-0.04,0-0.078,0.011-0.117,0.012V31H27v0.013	C26.958,31.011,26.919,31,26.877,31H7c-1.657,0-3,1.343-3,3v16c0,1.657,1.343,3,3,3h18.015c1.523,0,2.805-1.141,2.979-2.653	l1.143-9.817c0.168-1.443,1.389-2.53,2.841-2.53h0.006c1.457,0,2.682,1.096,2.843,2.544l1.087,9.785	C36.081,51.852,37.362,53,38.896,53H57c1.657,0,3-1.343,3-3V34C60,32.343,58.657,31,57,31z"/><linearGradient id="9vx0RdEqOzHVHs0Zyr8F8e" x1="16.754" x2="16.754" y1="12.149" y2="39.221" gradientTransform="matrix(1 0 0 -1 0 66)" gradientUnits="userSpaceOnUse"><stop offset="0" stop-color="#3280e5"/><stop offset=".076" stop-color="#3487e6"/><stop offset=".449" stop-color="#3ca4ed"/><stop offset=".77" stop-color="#41b7f1"/><stop offset="1" stop-color="#43bdf2"/></linearGradient><path fill="url(#9vx0RdEqOzHVHs0Zyr8F8e)" d="M8,47V37c0-1.105,0.895-2,2-2h13.507c1.196,0,2.125,1.043,1.987,2.231l-1.165,10	C24.212,48.24,23.358,49,22.343,49H10C8.895,49,8,48.105,8,47z"/><linearGradient id="9vx0RdEqOzHVHs0Zyr8F8f" x1="47.234" x2="47.234" y1="11.298" y2="43.309" gradientTransform="matrix(1 0 0 -1 0 66)" gradientUnits="userSpaceOnUse"><stop offset="0" stop-color="#ff634d"/><stop offset=".204" stop-color="#fe6464"/><stop offset=".521" stop-color="#fc6581"/><stop offset=".794" stop-color="#fa6694"/><stop offset=".989" stop-color="#fa669a"/><stop offset="1" stop-color="#fa669a"/></linearGradient><path fill="url(#9vx0RdEqOzHVHs0Zyr8F8f)" d="M39.592,47.221l-1.111-10C38.35,36.036,39.277,35,40.469,35H54c1.105,0,2,0.895,2,2v10	c0,1.105-0.895,2-2,2H41.58C40.561,49,39.705,48.234,39.592,47.221z"/></svg>