<svg fill="#000000" xmlns="http://www.w3.org/2000/svg" viewBox="0 0 50 50" width="300px" height="300px"><path d="M 24 2.8496094 L 5 13.669922 L 5 25.919922 L 6 25.349609 L 7 24.779297 L 9.5097656 23.349609 L 10.5 22.779297 L 11.490234 23.349609 L 20.990234 28.759766 L 22 29.330078 L 22 42.480469 L 21.800781 42.599609 L 20.990234 43.050781 L 20.779297 43.169922 L 19.769531 43.740234 L 24 46.150391 L 43 35.330078 L 43 31.939453 C 46.94 31.439453 50 28.07 50 24 C 50 19.93 46.94 16.560547 43 16.060547 L 43 13.669922 L 24 2.8496094 z M 42 18 C 42.34 18 42.68 18.029844 43 18.089844 C 45.84 18.559844 48 21.03 48 24 C 48 26.97 45.84 29.440156 43 29.910156 C 42.68 29.970156 42.34 30 42 30 C 41.66 30 41.32 29.970156 41 29.910156 C 38.16 29.440156 36 26.97 36 24 C 36 21.03 38.16 18.559844 41 18.089844 C 41.32 18.029844 41.66 18 42 18 z M 41 20 L 41 23 L 38 23 L 38 25 L 41 25 L 41 28 L 43 28 L 43 25 L 46 25 L 46 23 L 43 23 L 43 20 L 41 20 z M 10.5 25.080078 L 7 27.070312 L 6 27.640625 L 5 28.210938 L 1 30.490234 L 1 41.310547 L 10.5 46.720703 L 17.75 42.589844 L 18.759766 42.019531 L 19.769531 41.439453 L 20 41.310547 L 20 30.490234 L 10.5 25.080078 z"/></svg>