<svg xmlns="http://www.w3.org/2000/svg" width="50" height="50" fill="#000" viewBox="0 0 26 26"><path d="M 10.5 0.1875 C 4.804688 0.1875 0.1875 2.34375 0.1875 5 C 0.1875 7.65625 4.804688 9.8125 10.5 9.8125 C 16.195313 9.8125 20.8125 7.65625 20.8125 5 C 20.8125 2.34375 16.195313 0.1875 10.5 0.1875 Z M 0.1875 6.28125 L 0.1875 10 C 0.1875 12.660156 4.804688 14.8125 10.5 14.8125 C 12.246094 14.8125 13.902344 14.609375 15.34375 14.25 C 16.402344 13.390625 17.671875 12.828125 19.09375 12.65625 C 20.167969 11.894531 20.8125 10.976563 20.8125 10 L 20.8125 6.28125 C 20.8125 8.941406 16.195313 11.09375 10.5 11.09375 C 4.804688 11.09375 0.1875 8.941406 0.1875 6.28125 Z M 0.1875 11.28125 L 0.1875 15 C 0.1875 17.660156 4.804688 19.8125 10.5 19.8125 C 11.222656 19.8125 11.914063 19.785156 12.59375 19.71875 C 12.648438 18.28125 13.109375 16.929688 13.875 15.8125 C 12.8125 15.984375 11.6875 16.09375 10.5 16.09375 C 4.804688 16.09375 0.1875 13.941406 0.1875 11.28125 Z M 20.8125 11.28125 C 20.8125 11.742188 20.667969 12.171875 20.40625 12.59375 C 20.542969 12.601563 20.679688 12.609375 20.8125 12.625 Z M 20 14.1875 C 16.789063 14.1875 14.1875 16.789063 14.1875 20 C 14.1875 23.210938 16.789063 25.8125 20 25.8125 C 23.210938 25.8125 25.8125 23.210938 25.8125 20 C 25.8125 16.789063 23.210938 14.1875 20 14.1875 Z M 0.1875 16.28125 L 0.1875 20 C 0.1875 22.660156 4.804688 24.8125 10.5 24.8125 C 11.777344 24.8125 12.996094 24.699219 14.125 24.5 C 13.355469 23.496094 12.832031 22.28125 12.65625 20.96875 C 11.960938 21.039063 11.242188 21.09375 10.5 21.09375 C 4.804688 21.09375 0.1875 18.941406 0.1875 16.28125 Z M 19 17 L 21 17 L 21 19 L 23 19 L 23 21 L 21 21 L 21 23 L 19 23 L 19 21 L 17 21 L 17 19 L 19 19 Z"/></svg>