<?xml version="1.0"?><svg fill="#000000" xmlns="http://www.w3.org/2000/svg" viewBox="0 0 64 64" width="300px" height="300px">    <path d="M 32 3 C 31.448 3 31 3.448 31 4 L 31 6 C 31 6.552 31.448 7 32 7 C 32.552 7 33 6.552 33 6 L 33 4 C 33 3.448 32.552 3 32 3 z M 37.685547 3.5625 C 37.143547 3.4545 36.618766 3.8056562 36.509766 4.3476562 L 36.117188 6.3085938 C 36.009188 6.8505937 36.360344 7.3773281 36.902344 7.4863281 C 37.444344 7.5943281 37.969125 7.2431719 38.078125 6.7011719 L 38.470703 4.7402344 C 38.579703 4.1982344 38.226547 3.6705 37.685547 3.5625 z M 26.259766 3.5742188 C 25.718766 3.6832187 25.366562 4.2109531 25.476562 4.7519531 L 25.873047 6.7128906 C 25.982047 7.2538906 26.509781 7.6041406 27.050781 7.4941406 C 27.591781 7.3851406 27.942031 6.8574063 27.832031 6.3164062 L 27.4375 4.3554688 C 27.3285 3.8144688 26.801766 3.4652188 26.259766 3.5742188 z M 42.494141 5.046875 C 42.104469 5.0530156 41.737281 5.287875 41.582031 5.671875 L 40.832031 7.5253906 C 40.625031 8.0373906 40.872766 8.621125 41.384766 8.828125 C 41.896766 9.035125 42.478547 8.7873906 42.685547 8.2753906 L 43.4375 6.421875 C 43.6445 5.910875 43.396766 5.3271406 42.884766 5.1191406 C 42.756766 5.0673906 42.624031 5.0448281 42.494141 5.046875 z M 21.03125 5.2363281 C 20.901312 5.2365469 20.769578 5.2624062 20.642578 5.3164062 C 20.134578 5.5324063 19.897281 6.1209062 20.113281 6.6289062 L 20.896484 8.46875 C 21.112484 8.97675 21.700984 9.2120937 22.208984 8.9960938 C 22.716984 8.7800938 22.954281 8.1935469 22.738281 7.6855469 L 21.955078 5.8457031 C 21.793078 5.4647031 21.421063 5.2356719 21.03125 5.2363281 z M 47.714844 7.7167969 C 47.332016 7.6441406 46.925562 7.8014844 46.695312 8.1464844 L 45.587891 9.8105469 C 45.281891 10.270547 45.405234 10.890266 45.865234 11.197266 C 46.325234 11.504266 46.944953 11.379922 47.251953 10.919922 L 48.361328 9.2558594 C 48.667328 8.7968594 48.542031 8.1741875 48.082031 7.8671875 C 47.967031 7.7906875 47.842453 7.7410156 47.714844 7.7167969 z M 16.236328 7.7480469 C 16.108766 7.7725625 15.983891 7.8233906 15.869141 7.9003906 C 15.410141 8.2073906 15.288703 8.8281094 15.595703 9.2871094 L 16.707031 10.949219 C 17.014031 11.408219 17.63475 11.531609 18.09375 11.224609 C 18.55275 10.917609 18.676141 10.296891 18.369141 9.8378906 L 17.257812 8.1757812 C 17.027563 7.8315312 16.619016 7.6745 16.236328 7.7480469 z M 32 11 C 20.413865 11 11 20.413865 11 32 C 11 43.586135 20.413865 53 32 53 C 43.586135 53 53 43.586135 53 32 C 53 20.413865 43.586135 11 32 11 z M 12.201172 11.201172 C 11.945172 11.201172 11.689141 11.298641 11.494141 11.494141 C 11.103141 11.885141 11.103141 12.518203 11.494141 12.908203 L 12.908203 14.322266 C 13.299203 14.713266 13.932266 14.713266 14.322266 14.322266 C 14.712266 13.931266 14.713266 13.298203 14.322266 12.908203 L 12.908203 11.494141 C 12.713203 11.298641 12.457172 11.201172 12.201172 11.201172 z M 51.798828 11.201172 C 51.670891 11.201172 51.542172 11.224562 51.421875 11.273438 C 51.301578 11.322313 51.189297 11.396391 51.091797 11.494141 L 49.677734 12.908203 C 49.482234 13.103703 49.384766 13.359359 49.384766 13.615234 C 49.384766 13.743172 49.410109 13.871891 49.458984 13.992188 C 49.507859 14.112484 49.579984 14.224766 49.677734 14.322266 C 49.873234 14.517766 50.128891 14.615234 50.384766 14.615234 C 50.640641 14.615234 50.896797 14.517766 51.091797 14.322266 L 52.505859 12.908203 C 52.896859 12.517203 52.896859 11.884141 52.505859 11.494141 C 52.310359 11.298641 52.054703 11.201172 51.798828 11.201172 z M 32 13 C 42.505255 13 51 21.494745 51 32 C 51 42.505255 42.505255 51 32 51 C 21.494745 51 13 42.505255 13 32 C 13 21.494745 21.494745 13 32 13 z M 55.080078 15.445312 C 54.952516 15.469781 54.827641 15.518953 54.712891 15.595703 L 53.050781 16.707031 C 52.591781 17.014031 52.468391 17.636703 52.775391 18.095703 C 53.082391 18.554703 53.703109 18.676141 54.162109 18.369141 L 55.824219 17.257812 C 56.283219 16.950813 56.406609 16.330094 56.099609 15.871094 C 55.869359 15.526844 55.462766 15.371906 55.080078 15.445312 z M 8.8886719 15.488281 C 8.5059844 15.415625 8.0974375 15.572969 7.8671875 15.917969 C 7.5611875 16.377969 7.6864844 16.997687 8.1464844 17.304688 L 9.8105469 18.412109 C 10.270547 18.718109 10.890266 18.594766 11.197266 18.134766 C 11.504266 17.674766 11.379922 17.055047 10.919922 16.748047 L 9.2558594 15.638672 C 9.1411094 15.562172 9.0162344 15.5125 8.8886719 15.488281 z M 32 19 C 24.832143 19 19 24.832143 19 32 C 19 39.167857 24.832143 45 32 45 C 39.167857 45 45 39.167857 45 32 C 45 24.832143 39.167857 19 32 19 z M 57.761719 20.035156 C 57.631781 20.035375 57.498094 20.061234 57.371094 20.115234 L 55.53125 20.898438 C 55.02325 21.114438 54.787906 21.702938 55.003906 22.210938 C 55.219906 22.718937 55.806453 22.954281 56.314453 22.738281 L 58.154297 21.955078 C 58.662297 21.739078 58.899594 21.152531 58.683594 20.644531 C 58.521594 20.263531 58.151531 20.0345 57.761719 20.035156 z M 6.0332031 20.490234 C 5.6439063 20.496375 5.2751406 20.731234 5.1191406 21.115234 C 4.9121406 21.627234 5.159875 22.210969 5.671875 22.417969 L 7.5253906 23.167969 C 8.0373906 23.374969 8.621125 23.127234 8.828125 22.615234 C 9.035125 22.103234 8.7873906 21.521453 8.2753906 21.314453 L 6.421875 20.5625 C 6.294125 20.51075 6.1629688 20.488187 6.0332031 20.490234 z M 32 21 C 38.086977 21 43 25.913023 43 32 C 43 38.086977 38.086977 43 32 43 C 25.913023 43 21 38.086977 21 32 C 21 25.913023 25.913023 21 32 21 z M 32 25 C 28.145666 25 25 28.145666 25 32 C 25 35.854334 28.146782 39 32.001953 39 C 34.068955 39 35.937993 38.097895 37.21875 36.667969 L 37.21875 36.666016 C 37.819678 35.994048 38.294139 35.204137 38.601562 34.333984 L 38.601562 34.332031 C 38.859561 33.601857 39 32.81446 39 32 C 39 28.145666 35.854334 25 32 25 z M 59.246094 25.476562 L 57.287109 25.873047 C 56.746109 25.982047 56.396859 26.509781 56.505859 27.050781 C 56.614859 27.591781 57.142594 27.942031 57.683594 27.832031 L 59.642578 27.4375 C 60.183578 27.3285 60.535781 26.800766 60.425781 26.259766 C 60.315781 25.718766 59.787094 25.366563 59.246094 25.476562 z M 4.7402344 25.529297 C 4.1982344 25.420297 3.6705 25.773453 3.5625 26.314453 C 3.4545 26.856453 3.8056562 27.381234 4.3476562 27.490234 L 6.3085938 27.882812 C 6.8505937 27.990813 7.3773281 27.639656 7.4863281 27.097656 C 7.5953281 26.555656 7.2431719 26.030875 6.7011719 25.921875 L 4.7402344 25.529297 z M 32 27 C 34.773666 27 37 29.226334 37 32 C 37 32.586877 36.9004 33.146786 36.716797 33.666016 L 36.716797 33.667969 C 36.498393 34.286593 36.158683 34.850688 35.728516 35.332031 C 34.811273 36.356105 33.488951 37 32.001953 37 C 29.227124 37 27 34.773666 27 32 C 27 29.226334 29.226334 27 32 27 z M 4 31 C 3.448 31 3 31.448 3 32 C 3 32.552 3.448 33 4 33 L 6 33 C 6.552 33 7 32.552 7 32 C 7 31.448 6.552 31 6 31 L 4 31 z M 58 31 C 57.448 31 57 31.448 57 32 C 57 32.552 57.448 33 58 33 L 60 33 C 60.552 33 61 32.552 61 32 C 61 31.448 60.552 31 60 31 L 58 31 z M 57.294922 36.117188 C 56.912984 36.19575 56.596625 36.495844 56.515625 36.902344 C 56.407625 37.444344 56.758781 37.969125 57.300781 38.078125 L 59.261719 38.470703 C 59.803719 38.578703 60.3285 38.227547 60.4375 37.685547 C 60.5455 37.143547 60.194344 36.618766 59.652344 36.509766 L 57.691406 36.117188 C 57.555906 36.090187 57.422234 36.091 57.294922 36.117188 z M 6.7128906 36.166016 C 6.5856875 36.140125 6.4516563 36.140469 6.3164062 36.167969 L 4.3554688 36.5625 C 3.8144688 36.6715 3.4652188 37.199234 3.5742188 37.740234 C 3.6832187 38.281234 4.2109531 38.633438 4.7519531 38.523438 L 6.7128906 38.126953 C 7.2538906 38.017953 7.6041406 37.490219 7.4941406 36.949219 C 7.4116406 36.543469 7.0945 36.243688 6.7128906 36.166016 z M 56.083984 40.759766 C 55.694313 40.765906 55.327125 41.000766 55.171875 41.384766 C 54.964875 41.896766 55.212609 42.478547 55.724609 42.685547 L 57.578125 43.4375 C 58.090125 43.6445 58.673859 43.396766 58.880859 42.884766 C 59.087859 42.372766 58.840125 41.789031 58.328125 41.582031 L 56.474609 40.832031 C 56.346609 40.780281 56.213875 40.757719 56.083984 40.759766 z M 8.0742188 41.181641 C 7.9442813 41.181859 7.8125469 41.207719 7.6855469 41.261719 L 5.8457031 42.044922 C 5.3377031 42.260922 5.1004062 42.849422 5.3164062 43.357422 C 5.5324063 43.865422 6.1209062 44.102719 6.6289062 43.886719 L 8.46875 43.103516 C 8.97675 42.887516 9.2120937 42.299016 8.9960938 41.791016 C 8.8340938 41.410016 8.4640312 41.180984 8.0742188 41.181641 z M 53.822266 45.4375 C 53.439203 45.364844 53.032234 45.520234 52.802734 45.865234 C 52.496734 46.325234 52.620078 46.944953 53.080078 47.251953 L 54.744141 48.361328 C 55.204141 48.667328 55.825812 48.542031 56.132812 48.082031 C 56.439813 47.622031 56.313516 47.002313 55.853516 46.695312 L 54.189453 45.587891 C 54.074453 45.511391 53.949953 45.461719 53.822266 45.4375 z M 10.205078 45.480469 C 10.077516 45.504937 9.9526406 45.554109 9.8378906 45.630859 L 8.1757812 46.742188 C 7.7167812 47.049187 7.5923906 47.671859 7.9003906 48.130859 C 8.2073906 48.589859 8.8281094 48.711297 9.2871094 48.404297 L 10.949219 47.292969 C 11.408219 46.985969 11.531609 46.36525 11.224609 45.90625 C 10.994359 45.562 10.587766 45.407063 10.205078 45.480469 z M 13.615234 49.384766 C 13.359359 49.384641 13.103203 49.482234 12.908203 49.677734 L 11.494141 51.091797 C 11.103141 51.481797 11.103141 52.115859 11.494141 52.505859 C 11.885141 52.896859 12.518203 52.896859 12.908203 52.505859 L 14.322266 51.091797 C 14.713266 50.700797 14.713266 50.067734 14.322266 49.677734 C 14.126766 49.482734 13.871109 49.384891 13.615234 49.384766 z M 50.384766 49.384766 C 50.256828 49.384766 50.128109 49.410109 50.007812 49.458984 C 49.887516 49.507859 49.775234 49.579984 49.677734 49.677734 C 49.579984 49.775484 49.507859 49.889344 49.458984 50.009766 C 49.312359 50.371031 49.384484 50.799297 49.677734 51.091797 L 51.091797 52.505859 C 51.287297 52.701359 51.542953 52.798828 51.798828 52.798828 C 52.054703 52.798828 52.310859 52.701359 52.505859 52.505859 C 52.896859 52.114859 52.896859 51.481797 52.505859 51.091797 L 51.091797 49.677734 C 50.896297 49.482234 50.640641 49.384766 50.384766 49.384766 z M 46.271484 52.625 C 46.143922 52.649469 46.019047 52.698641 45.904297 52.775391 C 45.445297 53.082391 45.323859 53.703109 45.630859 54.162109 L 46.742188 55.824219 C 47.049188 56.283219 47.669906 56.406609 48.128906 56.099609 C 48.587906 55.792609 48.711297 55.171891 48.404297 54.712891 L 47.292969 53.050781 C 47.062719 52.706531 46.654172 52.551594 46.271484 52.625 z M 17.767578 52.652344 C 17.38475 52.579687 16.978297 52.735078 16.748047 53.080078 L 15.638672 54.744141 C 15.332672 55.204141 15.457969 55.825812 15.917969 56.132812 C 16.377969 56.438812 16.997687 56.313516 17.304688 55.853516 L 18.412109 54.189453 C 18.718109 53.729453 18.594766 53.108734 18.134766 52.802734 C 18.019766 52.726234 17.895187 52.676563 17.767578 52.652344 z M 42.179688 54.923828 C 42.04975 54.924047 41.916063 54.949906 41.789062 55.003906 C 41.281062 55.219906 41.045719 55.806453 41.261719 56.314453 L 42.044922 58.154297 C 42.260922 58.662297 42.847469 58.899594 43.355469 58.683594 C 43.863469 58.467594 44.100766 57.879094 43.884766 57.371094 L 43.101562 55.53125 C 42.939563 55.15025 42.5695 54.923172 42.179688 54.923828 z M 22.226562 55.099609 C 21.836891 55.10575 21.469703 55.340609 21.314453 55.724609 L 20.5625 57.578125 C 20.3555 58.090125 20.603234 58.673859 21.115234 58.880859 C 21.627234 59.087859 22.210969 58.840125 22.417969 58.328125 L 23.167969 56.474609 C 23.374969 55.962609 23.127234 55.378875 22.615234 55.171875 C 22.487234 55.120125 22.356453 55.097563 22.226562 55.099609 z M 36.949219 56.505859 C 36.408219 56.614859 36.057969 57.142594 36.167969 57.683594 L 36.5625 59.642578 C 36.6715 60.183578 37.199234 60.535781 37.740234 60.425781 C 38.281234 60.316781 38.633438 59.787094 38.523438 59.246094 L 38.126953 57.287109 C 38.017953 56.746109 37.490219 56.396859 36.949219 56.505859 z M 26.701172 56.515625 C 26.319469 56.594187 26.003625 56.894281 25.921875 57.300781 L 25.529297 59.259766 C 25.421297 59.801766 25.772453 60.3285 26.314453 60.4375 C 26.856453 60.5455 27.383188 60.194344 27.492188 59.652344 L 27.884766 57.691406 C 27.991766 57.150406 27.639656 56.623625 27.097656 56.515625 C 26.962156 56.488625 26.828406 56.489438 26.701172 56.515625 z M 32 57 C 31.448 57 31 57.448 31 58 L 31 60 C 31 60.552 31.448 61 32 61 C 32.552 61 33 60.552 33 60 L 33 58 C 33 57.448 32.552 57 32 57 z"/></svg>