<svg xmlns="http://www.w3.org/2000/svg" width="300" height="300" viewBox="0 0 100 100"><path fill="#b1bdd0" d="M83,28v46c0,3.314-2.686,6-6,6H22c-3.314,0-6-2.686-6-6V28c0-3.314,2.686-6,6-6h3v-1h16v1h36 C80.314,22,83,24.686,83,28z"/><path fill="#fefdef" d="M72.5,28.5h-32V28h-14c-2.485,0-4.5,2.015-4.5,4.5l0.5,0v37c0,2.209,1.791,4,4,4h35v-4 c0-2.209,1.791-4,4-4h11v-33C76.5,30.291,74.709,28.5,72.5,28.5z"/><path fill="#a0d2a1" d="M65.5,69.5h11v4h-11V69.5z"/><polygon fill="#f27c7c" points="63 43 63 58.5 50 65.72 49.5 66 49 65.72 36 58.5 36 43 49.5 36"/><path fill="#e85654" d="M50,50.5v15.22L49.5,66L36,58.5V43l0.53-0.28l12.97,7.21l0.24,0.13C49.9,50.15,50,50.32,50,50.5z"/><path fill="#f599a0" d="M63,58.5V43l-0.53-0.28L49.5,49.93l-0.24,0.13C49.1,50.15,49,50.32,49,50.5v15.22L49.5,66L63,58.5z"/><path fill="#f27c7c" d="M34.5,34.5h-3c-1.657,0-3-1.343-3-3v-11c0-1.657,1.343-3,3-3h3c1.657,0,3,1.343,3,3v11 C37.5,33.157,36.157,34.5,34.5,34.5z"/><g><path fill="#1f212b" d="M76.5,74h-11c-0.276,0-0.5-0.224-0.5-0.5v-4c0-0.276,0.224-0.5,0.5-0.5h11 c0.276,0,0.5,0.224,0.5,0.5v4C77,73.776,76.776,74,76.5,74z M66,73h10v-3H66V73z"/><path fill="#1f212b" d="M49.5,67c-0.167,0-0.334-0.042-0.486-0.126l-13.5-7.5C35.197,59.198,35,58.863,35,58.5V43 c0-0.373,0.208-0.716,0.54-0.888l13.5-7c0.289-0.15,0.632-0.15,0.921,0l13.5,7C63.792,42.284,64,42.627,64,43v15.5 c0,0.363-0.197,0.698-0.514,0.874l-13.5,7.5C49.834,66.958,49.667,67,49.5,67z M37,57.911l12.5,6.945L62,57.911V43.608l-12.5-6.482 L37,43.608V57.911z"/><rect width="1" height="16" x="49" y="50.5" fill="#1f212b"/><path fill="#1f212b" d="M60.5,44.889c-0.176,0-0.346-0.093-0.438-0.257c-0.134-0.242-0.047-0.546,0.194-0.681l2.5-1.389 c0.241-0.131,0.545-0.046,0.68,0.194c0.134,0.242,0.047,0.546-0.194,0.681l-2.5,1.389C60.666,44.868,60.583,44.889,60.5,44.889z"/><path fill="#1f212b" d="M57.5,46.556c-0.176,0-0.346-0.093-0.438-0.257c-0.134-0.241-0.047-0.546,0.194-0.681l1-0.556 c0.24-0.132,0.546-0.047,0.68,0.194c0.134,0.241,0.047,0.546-0.194,0.681l-1,0.556C57.666,46.535,57.583,46.556,57.5,46.556z"/><path fill="#1f212b" d="M49.5,51c-0.083,0-0.167-0.021-0.243-0.063l-13.5-7.5c-0.242-0.135-0.329-0.438-0.194-0.681 c0.134-0.24,0.439-0.325,0.68-0.194L49.5,49.928l4.757-2.643c0.241-0.132,0.546-0.047,0.68,0.194 c0.134,0.242,0.047,0.546-0.194,0.681l-5,2.777C49.667,50.979,49.583,51,49.5,51z"/><path fill="#1f212b" d="M78.395,23.196c-0.272-0.09-27.229-8.947-32.239-10.659c-0.287-0.098-0.583-0.203-0.887-0.312 C43.654,11.651,41.825,11,40,11c-3.309,0-6,2.691-6,6h-2c0-4.411,3.589-8,8-8c2.17,0,4.172,0.713,5.939,1.342 c0.295,0.104,0.583,0.207,0.863,0.303c4.999,1.708,31.945,10.563,32.217,10.651L78.395,23.196z"/><path fill="#1f212b" d="M34.5,35h-3c-1.93,0-3.5-1.57-3.5-3.5v-11c0-1.93,1.57-3.5,3.5-3.5h3c1.93,0,3.5,1.57,3.5,3.5v11 C38,33.43,36.43,35,34.5,35z M31.5,18c-1.378,0-2.5,1.121-2.5,2.5v11c0,1.379,1.122,2.5,2.5,2.5h3c1.378,0,2.5-1.121,2.5-2.5v-11 c0-1.379-1.122-2.5-2.5-2.5H31.5z"/><path fill="#1f212b" d="M33,39c-0.552,0-1-0.447-1-1v-3c0-0.553,0.448-1,1-1s1,0.447,1,1v3C34,38.553,33.552,39,33,39z"/><path fill="#1f212b" d="M77,81H22c-3.86,0-7-3.141-7-7V28c0-3.859,3.14-7,7-7h3c0.552,0,1,0.447,1,1s-0.448,1-1,1h-3 c-2.757,0-5,2.243-5,5v46c0,2.757,2.243,5,5,5h55c2.757,0,5-2.243,5-5V28c0-2.757-2.243-5-5-5H41c-0.552,0-1-0.447-1-1s0.448-1,1-1 h36c3.86,0,7,3.141,7,7v46C84,77.859,80.86,81,77,81z"/><path fill="#1f212b" d="M61.5,74h-35c-2.481,0-4.5-2.019-4.5-4.5v-37c0-2.042,1.388-3.827,3.375-4.343 c0.268-0.067,0.541,0.092,0.609,0.359c0.069,0.267-0.091,0.54-0.358,0.609C24.08,29.526,23,30.914,23,32.5v37 c0,1.93,1.57,3.5,3.5,3.5H61v-3.5c0-2.481,2.019-4.5,4.5-4.5H76V32.5c0-1.93-1.57-3.5-3.5-3.5h-32c-0.276,0-0.5-0.224-0.5-0.5 s0.224-0.5,0.5-0.5h32c2.481,0,4.5,2.019,4.5,4.5v33c0,0.276-0.224,0.5-0.5,0.5h-11c-1.93,0-3.5,1.57-3.5,3.5v4 C62,73.776,61.776,74,61.5,74z"/></g></svg>