<svg fill="#000000" xmlns="http://www.w3.org/2000/svg" viewBox="0 0 32 32" width="500px" height="500px"><path d="M 5 5 L 5 22.414062 L 9.5859375 27 L 18 27 L 18 25 L 11 25 L 11 11 L 25 11 L 25 16.296875 L 27 18.162109 L 27 9.5859375 L 22.414062 5 L 5 5 z M 8.4140625 7 L 21.585938 7 L 23.585938 9 L 10.414062 9 L 8.4140625 7 z M 7 8.4140625 L 9 10.414062 L 9 23.585938 L 7 21.585938 L 7 8.4140625 z M 20 14.365234 L 20 28.603516 L 23.695312 25.130859 L 25.185547 28.380859 L 27.003906 27.546875 L 25.525391 24.326172 L 30.410156 24.080078 L 28.681641 22.46875 L 20 14.365234 z M 22 18.96875 L 25.591797 22.320312 L 23.664062 22.416016 L 22 23.978516 L 22 18.96875 z"/></svg>