<svg xmlns="http://www.w3.org/2000/svg" viewBox="0 0 24 24" width="300px" height="300px"><path d="M17 8L17 17 8 17 4 13 4 4 13 4z" opacity=".3"/><path d="M17,18H8c-0.3,0-0.5-0.1-0.7-0.3l-4-4C3.1,13.5,3,13.3,3,13V4c0-0.6,0.4-1,1-1h9c0.3,0,0.5,0.1,0.7,0.3l4,4 C17.9,7.5,18,7.7,18,8v9C18,17.6,17.6,18,17,18z M8.4,16H16V8.4L12.6,5H5v7.6L8.4,16z"/><path d="M8,18c-0.6,0-1-0.4-1-1V8c0-0.6,0.4-1,1-1s1,0.4,1,1v9C9,17.6,8.6,18,8,18z"/><path d="M17 9H8C7.7 9 7.5 8.9 7.3 8.7l-4-4c-.4-.4-.4-1 0-1.4s1-.4 1.4 0L8.4 7H17c.6 0 1 .4 1 1S17.6 9 17 9zM16 20L13 23 10 20zM20 10L23 13 20 16z"/></svg>