<svg xmlns="http://www.w3.org/2000/svg" viewBox="0 0 24 24" width="500px" height="500px"><path d="M12,10c1.103,0,2,0.897,2,2s-0.897,2-2,2s-2-0.897-2-2S10.897,10,12,10 M12,8c-2.209,0-4,1.791-4,4s1.791,4,4,4 s4-1.791,4-4S14.209,8,12,8L12,8z"/><path d="M12 6c3.308 0 6 2.692 6 6s-2.692 6-6 6-6-2.692-6-6S8.692 6 12 6M12 5c-3.866 0-7 3.134-7 7s3.134 7 7 7 7-3.134 7-7S15.866 5 12 5L12 5zM12 2c-.276 0-.5.224-.5.5S11.724 3 12 3s.5-.224.5-.5S12.276 2 12 2L12 2zM9.064 2.465c-.051 0-.103.008-.155.025C8.646 2.575 8.503 2.857 8.588 3.12c.069.211.265.346.475.346.051 0 .103-.008.155-.025C9.481 3.355 9.625 3.073 9.54 2.81 9.471 2.599 9.275 2.465 9.064 2.465L9.064 2.465zM6.416 3.814c-.102 0-.205.031-.293.096C5.899 4.072 5.849 4.385 6.012 4.608c.098.135.25.206.405.206.102 0 .205-.031.293-.096C6.933 4.557 6.983 4.244 6.821 4.02 6.723 3.886 6.57 3.814 6.416 3.814L6.416 3.814zM4.315 5.916c-.155 0-.307.072-.405.206C3.748 6.346 3.797 6.658 4.02 6.821c.089.064.192.096.293.096.155 0 .307-.072.405-.206C4.88 6.488 4.831 6.175 4.607 6.013 4.519 5.947 4.417 5.916 4.315 5.916L4.315 5.916zM2.965 8.564c-.211 0-.407.134-.475.346C2.404 9.172 2.548 9.455 2.81 9.54c.051.017.103.025.155.025.211 0 .407-.134.475-.346.085-.263-.058-.545-.321-.63C3.068 8.572 3.016 8.564 2.965 8.564L2.965 8.564zM2.5 11.5C2.224 11.5 2 11.724 2 12s.224.5.5.5S3 12.276 3 12 2.776 11.5 2.5 11.5L2.5 11.5zM2.965 14.436c-.051 0-.103.008-.155.025-.263.085-.406.367-.321.63.069.211.265.346.475.346.051 0 .103-.008.155-.025.263-.085.406-.367.321-.63C3.372 14.57 3.176 14.436 2.965 14.436L2.965 14.436zM4.314 17.084c-.102 0-.205.031-.293.096-.223.162-.273.475-.111.698.098.135.25.206.405.206.102 0 .205-.031.293-.096.223-.162.273-.475.111-.698C4.621 17.155 4.469 17.084 4.314 17.084L4.314 17.084zM6.416 19.186c-.155 0-.307.072-.405.206-.162.223-.113.536.111.698.089.064.192.096.293.096.155 0 .307-.072.405-.206.162-.223.113-.536-.111-.698C6.621 19.217 6.518 19.186 6.416 19.186L6.416 19.186zM9.064 20.535c-.211 0-.407.134-.475.346-.085.263.058.545.321.63.051.017.103.025.155.025.211 0 .407-.134.475-.346.085-.263-.058-.545-.321-.63C9.167 20.543 9.115 20.535 9.064 20.535L9.064 20.535zM12 21c-.276 0-.5.224-.5.5S11.724 22 12 22s.5-.224.5-.5S12.276 21 12 21L12 21zM14.936 20.535c-.051 0-.103.008-.155.025-.263.085-.406.367-.321.63.069.211.265.346.475.346.051 0 .103-.008.155-.025.263-.085.406-.367.321-.63C15.343 20.669 15.147 20.535 14.936 20.535L14.936 20.535zM17.584 19.186c-.102 0-.205.031-.293.096-.223.162-.273.475-.111.698.098.135.25.206.405.206.102 0 .205-.031.293-.096.223-.162.273-.475.111-.698C17.891 19.257 17.738 19.186 17.584 19.186L17.584 19.186zM19.686 17.084c-.155 0-.307.072-.405.206-.162.223-.113.536.111.698.089.064.192.096.293.096.155 0 .307-.072.405-.206.162-.223.113-.536-.111-.698C19.891 17.115 19.788 17.084 19.686 17.084L19.686 17.084zM21.035 14.436c-.211 0-.407.134-.475.346-.085.263.058.545.321.63.051.017.103.025.155.025.211 0 .407-.134.475-.346.085-.263-.058-.545-.321-.63C21.138 14.443 21.086 14.436 21.035 14.436L21.035 14.436zM21.5 11.5c-.276 0-.5.224-.5.5s.224.5.5.5S22 12.276 22 12 21.776 11.5 21.5 11.5L21.5 11.5zM21.035 8.564c-.051 0-.103.008-.155.025-.263.085-.406.367-.321.63.069.211.265.346.475.346.051 0 .103-.008.155-.025.263-.085.406-.367.321-.63C21.442 8.699 21.246 8.564 21.035 8.564L21.035 8.564zM19.685 5.916c-.102 0-.205.031-.293.096-.223.162-.273.475-.111.698.098.135.25.206.405.206.102 0 .205-.031.293-.096.223-.162.273-.475.111-.698C19.992 5.987 19.84 5.916 19.685 5.916L19.685 5.916zM17.584 3.814c-.155 0-.307.072-.405.206-.162.223-.113.536.111.698.089.064.192.096.293.096.155 0 .307-.072.405-.206.162-.223.113-.536-.111-.698C17.789 3.845 17.686 3.814 17.584 3.814L17.584 3.814zM14.936 2.465c-.211 0-.407.134-.475.346-.085.263.058.545.321.63.051.017.103.025.155.025.211 0 .407-.134.475-.346.085-.263-.058-.545-.321-.63C15.039 2.473 14.987 2.465 14.936 2.465L14.936 2.465z"/></svg>