<svg xmlns="http://www.w3.org/2000/svg" viewBox="0 0 64 64" width="50px" height="50px"><linearGradient id="~sHgTht5uZYuB3eiJdz~Pa" x1="21" x2="21" y1="40.149" y2="48.193" gradientUnits="userSpaceOnUse"><stop offset="0" stop-color="#6dc7ff"/><stop offset="1" stop-color="#e6abff"/></linearGradient><rect width="6" height="8" x="18" y="40" fill="url(#~sHgTht5uZYuB3eiJdz~Pa)"/><linearGradient id="~sHgTht5uZYuB3eiJdz~Pb" x1="49" x2="49" y1="40.149" y2="48.193" gradientUnits="userSpaceOnUse"><stop offset="0" stop-color="#6dc7ff"/><stop offset="1" stop-color="#e6abff"/></linearGradient><rect width="6" height="8" x="46" y="40" fill="url(#~sHgTht5uZYuB3eiJdz~Pb)"/><g><linearGradient id="~sHgTht5uZYuB3eiJdz~Pc" x1="32" x2="32" y1="10.149" y2="55.032" gradientUnits="userSpaceOnUse"><stop offset="0" stop-color="#1a6dff"/><stop offset="1" stop-color="#c822ff"/></linearGradient><path fill="url(#~sHgTht5uZYuB3eiJdz~Pc)" d="M58,10h-8c-1.103,0-2,0.897-2,2v3c0,1.103,0.897,2,2,2h4v17H10V17h4c1.103,0,2-0.897,2-2v-3 c0-1.103-0.897-2-2-2H6c-1.654,0-3,1.346-3,3v25v7c0,1.654,1.346,3,3,3v2.847C6,52.585,7.415,54,9.153,54h17.693 C28.585,54,30,52.585,30,50.847V50c0-0.552,0.448-1,1-1h2c0.552,0,1,0.448,1,1v0.847C34,52.585,35.415,54,37.153,54h17.693 C56.585,54,58,52.585,58,50.847V48c1.654,0,3-1.346,3-3V13C61,11.346,59.654,10,58,10z M50,15v-3h8c0.552,0,1,0.448,1,1v21.184 C58.686,34.072,58.352,34,58,34h-2V15H50z M6,12h8v3H8v19H6c-0.352,0-0.686,0.072-1,0.184V13C5,12.448,5.448,12,6,12z M59,45 c0,0.552-0.448,1-1,1h-1c-0.553,0-1,0.447-1,1v3.847C56,51.482,55.482,52,54.847,52H37.153C36.518,52,36,51.482,36,50.847V50 c0-1.654-1.346-3-3-3h-2c-1.654,0-3,1.346-3,3v0.847C28,51.482,27.482,52,26.847,52H9.153C8.518,52,8,51.482,8,50.847V47 c0-0.553-0.447-1-1-1H6c-0.552,0-1-0.448-1-1v-7v-1c0-0.552,0.448-1,1-1h23v3h2v-3h2v3h2v-3h23c0.552,0,1,0.448,1,1v1V45z"/><linearGradient id="~sHgTht5uZYuB3eiJdz~Pd" x1="18" x2="18" y1="10.149" y2="55.032" gradientUnits="userSpaceOnUse"><stop offset="0" stop-color="#1a6dff"/><stop offset="1" stop-color="#c822ff"/></linearGradient><path fill="url(#~sHgTht5uZYuB3eiJdz~Pd)" d="M23.768,38H12.232C11.001,38,10,39.001,10,40.232v7.535C10,48.999,11.001,50,12.232,50 h11.535C24.999,50,26,48.999,26,47.768v-7.535C26,39.001,24.999,38,23.768,38z M24,47.768C24,47.896,23.896,48,23.768,48H12.232 C12.104,48,12,47.896,12,47.768v-7.535C12,40.104,12.104,40,12.232,40h11.535C23.896,40,24,40.104,24,40.232V47.768z"/><linearGradient id="~sHgTht5uZYuB3eiJdz~Pe" x1="46" x2="46" y1="10.149" y2="55.032" gradientUnits="userSpaceOnUse"><stop offset="0" stop-color="#1a6dff"/><stop offset="1" stop-color="#c822ff"/></linearGradient><path fill="url(#~sHgTht5uZYuB3eiJdz~Pe)" d="M51.768,38H40.232C39.001,38,38,39.001,38,40.232v7.535C38,48.999,39.001,50,40.232,50 h11.535C52.999,50,54,48.999,54,47.768v-7.535C54,39.001,52.999,38,51.768,38z M52,47.768C52,47.896,51.896,48,51.768,48H40.232 C40.104,48,40,47.896,40,47.768v-7.535C40,40.104,40.104,40,40.232,40h11.535C51.896,40,52,40.104,52,40.232V47.768z"/></g></svg>