<svg xmlns="http://www.w3.org/2000/svg" width="300" height="300" viewBox="0 0 40 40"><path fill="#b6dcfe" d="M1.5,17.055v1.511h5.731v-1.511c0,0,1.57-5.288,2.456-5.288c-0.204,1.293-0.054,3.373,0.819,3.525 c1.449,0.254,1.932-1.229,1.932-1.229C12.565,12.315,12.28,9.5,9.687,9.5S1.5,17.055,1.5,17.055z"/><path fill="#4788c7" d="M7.23,19.065H1.5c-0.276,0-0.5-0.224-0.5-0.5v-1.511c0-0.107,0.034-0.211,0.098-0.298 C1.686,15.963,6.921,9,9.687,9c0.913,0,1.657,0.303,2.212,0.9c1.084,1.167,1.242,3.006,1.037,4.198 c-0.026,0.152-0.046,0.224-0.061,0.261c-0.069,0.174-0.596,1.755-2.456,1.425c-0.949-0.166-1.249-1.39-1.302-2.507 c-0.428,0.967-0.974,2.47-1.387,3.851v1.438C7.73,18.842,7.507,19.065,7.23,19.065z M2,18.065h4.73v-1.011 c0-0.048,0.007-0.096,0.021-0.143c1.677-5.646,2.624-5.646,2.936-5.646c0.146,0,0.285,0.064,0.38,0.175 c0.095,0.111,0.137,0.259,0.114,0.403c-0.228,1.446,0.09,2.898,0.411,2.955c0.875,0.151,1.33-0.534,1.352-0.843 c0.049-0.768,0.054-2.481-0.777-3.376C10.803,10.19,10.319,10,9.687,10C8.008,10,4.128,14.372,2,17.221V18.065z"/><path fill="#b6dcfe" d="M38.5,17.055v1.511h-5.731v-1.511c0,0-1.57-5.288-2.456-5.288c0.33,1.595,0.05,3.352-0.819,3.525 C28,15.591,27.541,13.84,27.541,13.84c-0.17-1.546,0.179-4.34,2.772-4.34S38.5,17.055,38.5,17.055z"/><path fill="#4788c7" d="M38.5,19.065h-5.73c-0.276,0-0.5-0.224-0.5-0.5v-1.438c-0.389-1.299-0.895-2.705-1.331-3.677 c-0.043,0.69-0.208,1.296-0.481,1.71c-0.224,0.338-0.522,0.553-0.864,0.621c-1.915,0.379-2.468-1.532-2.53-1.798 c-0.155-1.331-0.001-2.94,0.957-4.01C28.599,9.328,29.371,9,30.313,9c2.765,0,8,6.963,8.588,7.757 C38.966,16.844,39,16.947,39,17.055v1.511C39,18.842,38.776,19.065,38.5,19.065z M33.27,18.065H38v-0.845 C35.872,14.372,31.992,10,30.313,10c-0.655,0-1.162,0.21-1.549,0.642c-0.691,0.772-0.843,2.087-0.726,3.144 c0-0.001,0-0.002,0-0.002c0.04,0.186,0.354,1.212,1.358,1.019c0.076-0.016,0.152-0.08,0.227-0.192 c0.339-0.513,0.424-1.666,0.201-2.741c-0.03-0.147,0.007-0.301,0.102-0.417c0.095-0.117,0.237-0.185,0.388-0.185 c0.312,0,1.259,0,2.936,5.646c0.014,0.047,0.021,0.095,0.021,0.143V18.065z"/><path fill="#dff0fe" d="M38.5,17.5h-37v13c0,0,0.361,0,0.804,0H15.79c0.61,0,1.166-0.349,1.439-0.898l1.609-4.362 c0.239-0.482,0.701-0.727,1.163-0.727s0.924,0.244,1.163,0.727l1.609,4.362c0.273,0.549,0.833,0.898,1.439,0.898h13.485 c0.443,0,0.804,0,0.804,0V17.5z"/><path fill="#4788c7" d="M38.5,31H24.21c-0.791,0-1.532-0.462-1.887-1.176l-1.63-4.411c-0.235-0.463-1.13-0.512-1.408,0.049 l-1.587,4.313C17.316,30.55,16.593,31,15.79,31H1.5C1.224,31,1,30.776,1,30.5v-13C1,17.224,1.224,17,1.5,17h37 c0.276,0,0.5,0.224,0.5,0.5v13C39,30.776,38.776,31,38.5,31z M20,24.014c0.687,0,1.304,0.385,1.611,1.005l1.629,4.41 C23.406,29.756,23.795,30,24.21,30H38V18H2v12h13.79c0.421,0,0.801-0.238,0.992-0.621l1.587-4.312 C18.696,24.398,19.313,24.014,20,24.014z"/><path fill="#4788c7" d="M5.373,20C5.167,20,5,20.166,5,20.369v7.313C5,27.854,5.147,28,5.321,28h9.128	c0.242,0,0.462-0.144,0.559-0.366l0.05-0.087c0.33-0.468,0.85-2.298,1.308-3.913c0.223-0.784,0.42-1.57,0.633-2.251	c0.128-0.41,0.113-0.83-0.081-1.094C16.778,20.098,16.567,20,16.292,20H5.373z"/><path fill="#98ccfd" d="M23.708,20c-0.275,0-0.485,0.098-0.626,0.289c-0.194,0.264-0.209,0.684-0.081,1.094	c0.213,0.681,0.411,1.467,0.633,2.251c0.458,1.615,0.978,3.445,1.308,3.913l0.05,0.087C25.088,27.856,25.308,28,25.55,28h9.128	C34.853,28,35,27.854,35,27.682v-7.313C35,20.166,34.833,20,34.627,20H23.708z"/></svg>