<svg fill="#000000" xmlns="http://www.w3.org/2000/svg" viewBox="0 0 64 64" width="300px" height="300px"><path d="M 27 4 C 22.932692 4 19.563723 7.0633865 19.068359 11 L 17 11 A 1.0001 1.0001 0 0 0 16 12 L 16 14 L 11 14 C 8.2504839 14 6 16.250484 6 19 L 6 55 C 6 57.749516 8.2504839 60 11 60 L 53 60 C 55.749516 60 58 57.749516 58 55 L 58 19 C 58 16.250484 55.749516 14 53 14 L 51.855469 14 C 37.431867 7.0891104 32.370855 4 27 4 z M 27 6 C 31.114246 6 35.89951 8.495987 47.259766 14 L 24 14 L 24 12 A 1.0001 1.0001 0 0 0 23 11 L 21.089844 11 C 21.563797 8.1553563 24.016135 6 27 6 z M 18 13 L 19.832031 13 A 1.0001 1.0001 0 0 0 20.158203 13 L 22 13 L 22 22 L 20.154297 22 A 1.0001 1.0001 0 0 0 19.984375 21.986328 A 1.0001 1.0001 0 0 0 19.839844 22 L 18 22 L 18 13 z M 11 16 L 16 16 L 16 19 L 12 19 A 1.0001 1.0001 0 0 0 11 20 L 11 54 A 1.0001 1.0001 0 0 0 12 55 L 37 55 A 1.0001 1.0001 0 0 0 38 54 L 38 49.033203 C 38 47.354557 39.346593 46.019604 41.025391 46.033203 A 1.0001 1.0001 0 0 0 41.035156 46.033203 L 52.003906 46 A 1.0001 1.0001 0 0 0 53 45 L 53 20 A 1.0001 1.0001 0 0 0 52 19 L 24 19 L 24 16 L 53 16 C 54.668484 16 56 17.331516 56 19 L 56 55 C 56 56.668484 54.668484 58 53 58 L 11 58 C 9.3315161 58 8 56.668484 8 55 L 8 19 C 8 17.331516 9.3315161 16 11 16 z M 13 21 L 16 21 L 16 23 A 1.0001 1.0001 0 0 0 17 24 L 19 24 L 19 25 A 1.0001 1.0001 0 1 0 21 25 L 21 24 L 23 24 A 1.0001 1.0001 0 0 0 24 23 L 24 21 L 51 21 L 51 44.003906 L 41.041016 44.033203 C 38.275814 44.0108 36 46.267849 36 49.033203 L 36 53 L 13 53 L 13 21 z M 32.009766 25 A 1.0001 1.0001 0 0 0 31.601562 25.082031 L 23.601562 28.548828 A 1.0001 1.0001 0 0 0 23.490234 28.607422 A 1.0001 1.0001 0 0 0 23.480469 28.613281 A 1.0001 1.0001 0 0 0 23.007812 29.333984 A 1.0001 1.0001 0 0 0 23.007812 29.335938 A 1.0001 1.0001 0 0 0 23.007812 29.341797 A 1.0001 1.0001 0 0 0 23 29.523438 L 23 38.470703 A 1.0001 1.0001 0 0 0 23.507812 39.339844 L 31.507812 43.871094 A 1.0001 1.0001 0 0 0 31.634766 43.929688 A 1.0001 1.0001 0 0 0 31.644531 43.933594 A 1.0001 1.0001 0 0 0 32.128906 43.990234 A 1.0001 1.0001 0 0 0 32.132812 43.990234 A 1.0001 1.0001 0 0 0 32.228516 43.972656 A 1.0001 1.0001 0 0 0 32.230469 43.972656 A 1.0001 1.0001 0 0 0 32.416016 43.908203 A 1.0001 1.0001 0 0 0 32.466797 43.884766 A 1.0001 1.0001 0 0 0 32.46875 43.882812 L 40.46875 39.632812 A 1.0001 1.0001 0 0 0 41 38.75 L 41 29.511719 A 1.0001 1.0001 0 0 0 40.826172 28.902344 A 1.0001 1.0001 0 0 0 40.773438 28.832031 A 1.0001 1.0001 0 0 0 40.765625 28.822266 A 1.0001 1.0001 0 0 0 40.748047 28.804688 A 1.0001 1.0001 0 0 0 40.621094 28.683594 A 1.0001 1.0001 0 0 0 40.550781 28.630859 A 1.0001 1.0001 0 0 0 40.541016 28.625 A 1.0001 1.0001 0 0 0 40.539062 28.623047 A 1.0001 1.0001 0 0 0 40.398438 28.548828 L 32.398438 25.082031 A 1.0001 1.0001 0 0 0 32.009766 25 z M 32 27.089844 L 37.625 29.529297 L 32 32.322266 L 26.375 29.529297 L 32 27.089844 z M 25 31.080078 L 31 34.058594 L 31 41.283203 L 25 37.886719 L 25 31.080078 z M 39 31.080078 L 39 38.148438 L 33 41.335938 L 33 34.058594 L 39 31.080078 z M 17 47 C 16.448 47 16 47.447 16 48 L 16 50 C 16 50.553 16.448 51 17 51 C 17.552 51 18 50.553 18 50 L 18 48 C 18 47.447 17.552 47 17 47 z M 22 47 C 21.448 47 21 47.447 21 48 L 21 50 C 21 50.553 21.448 51 22 51 C 22.552 51 23 50.553 23 50 L 23 48 C 23 47.447 22.552 47 22 47 z M 27 47 C 26.448 47 26 47.447 26 48 L 26 50 C 26 50.553 26.448 51 27 51 C 27.552 51 28 50.553 28 50 L 28 48 C 28 47.447 27.552 47 27 47 z M 32 47 C 31.448 47 31 47.447 31 48 L 31 50 C 31 50.553 31.448 51 32 51 C 32.552 51 33 50.553 33 50 L 33 48 C 33 47.447 32.552 47 32 47 z M 42 49 A 1.0001 1.0001 0 0 0 41 50 L 41 54 A 1.0001 1.0001 0 0 0 42 55 L 52 55 A 1.0001 1.0001 0 0 0 53 54 L 53 50 A 1.0001 1.0001 0 0 0 52 49 L 42 49 z M 43 51 L 51 51 L 51 53 L 43 53 L 43 51 z"/></svg>