<svg fill="#000000" xmlns="http://www.w3.org/2000/svg" viewBox="0 0 80 80" width="100px" height="100px"><path d="M 20 9 L 20 72.414062 L 40 52.414062 L 60 72.414062 L 60 44.949219 C 66.148425 44.437934 71 39.277939 71 33 C 71 26.722061 66.148425 21.562066 60 21.050781 L 60 9 L 20 9 z M 22 11 L 58 11 L 58 21.050781 C 51.851575 21.562066 47 26.722061 47 33 C 47 39.277939 51.851575 44.437934 58 44.949219 L 58 67.585938 L 40 49.585938 L 22 67.585938 L 22 11 z M 25 14 A 1 1 0 0 0 25 16 A 1 1 0 0 0 25 14 z M 55 14 A 1 1 0 0 0 55 16 A 1 1 0 0 0 55 14 z M 25 18 A 1 1 0 0 0 25 20 A 1 1 0 0 0 25 18 z M 55 18 A 1 1 0 0 0 55 20 A 1 1 0 0 0 55 18 z M 25 22 A 1 1 0 0 0 25 24 A 1 1 0 0 0 25 22 z M 59 23 C 64.534697 23 69 27.465307 69 33 C 69 38.534693 64.534697 43 59 43 C 53.465303 43 49 38.534693 49 33 C 49 27.465307 53.465303 23 59 23 z M 25 26 A 1 1 0 0 0 25 28 A 1 1 0 0 0 25 26 z M 58 26 L 58 32 L 52 32 L 52 34 L 58 34 L 58 40 L 60 40 L 60 34 L 66 34 L 66 32 L 60 32 L 60 26 L 58 26 z M 25 30 A 1 1 0 0 0 25 32 A 1 1 0 0 0 25 30 z M 25 34 A 1 1 0 0 0 25 36 A 1 1 0 0 0 25 34 z M 25 38 A 1 1 0 0 0 25 40 A 1 1 0 0 0 25 38 z M 25 42 A 1 1 0 0 0 25 44 A 1 1 0 0 0 25 42 z M 40 44 A 1 1 0 0 0 40 46 A 1 1 0 0 0 40 44 z M 25 46 A 1 1 0 0 0 25 48 A 1 1 0 0 0 25 46 z M 55 46 A 1 1 0 0 0 55 48 A 1 1 0 0 0 55 46 z M 37 47 A 1 1 0 0 0 37 49 A 1 1 0 0 0 37 47 z M 43 47 A 1 1 0 0 0 43 49 A 1 1 0 0 0 43 47 z M 25 50 A 1 1 0 0 0 25 52 A 1 1 0 0 0 25 50 z M 34 50 A 1 1 0 0 0 34 52 A 1 1 0 0 0 34 50 z M 46 50 A 1 1 0 0 0 46 52 A 1 1 0 0 0 46 50 z M 55 50 A 1 1 0 0 0 55 52 A 1 1 0 0 0 55 50 z M 31 53 A 1 1 0 0 0 31 55 A 1 1 0 0 0 31 53 z M 49 53 A 1 1 0 0 0 49 55 A 1 1 0 0 0 49 53 z M 25 54 A 1 1 0 0 0 25 56 A 1 1 0 0 0 25 54 z M 55 54 A 1 1 0 0 0 55 56 A 1 1 0 0 0 55 54 z M 28 56 A 1 1 0 0 0 28 58 A 1 1 0 0 0 28 56 z M 52 56 A 1 1 0 0 0 52 58 A 1 1 0 0 0 52 56 z M 25 59 A 1 1 0 0 0 25 61 A 1 1 0 0 0 25 59 z M 55 59 A 1 1 0 0 0 55 61 A 1 1 0 0 0 55 59 z"/></svg>