<svg xmlns="http://www.w3.org/2000/svg" width="500" height="500" viewBox="0 0 100 100"><path fill="#ee3e54" d="M13,27c-1.105,0-2,0.895-2,2s0.895,2,2,2s2-0.895,2-2S14.105,27,13,27z"/><path fill="#f1bc19" d="M77,12c-0.551,0-1,0.449-1,1s0.449,1,1,1s1-0.449,1-1S77.551,12,77,12z"/><path fill="#fce0a2" d="M50,13c-20.434,0-37,16.566-37,37s16.566,37,37,37s37-16.566,37-37S70.434,13,50,13z"/><path fill="#f1bc19" d="M83,11c-2.211,0-4,1.789-4,4s1.789,4,4,4s4-1.789,4-4S85.211,11,83,11z"/><path fill="#ee3e54" d="M87,22c-1.105,0-2,0.895-2,2s0.895,2,2,2s2-0.895,2-2S88.105,22,87,22z"/><path fill="#fbcd59" d="M81,74c-1.105,0-2,0.895-2,2s0.895,2,2,2s2-0.895,2-2S82.105,74,81,74z M15,59 c-2.211,0-4,1.789-4,4s1.789,4,4,4s4-1.789,4-4S17.211,59,15,59z"/><path fill="#ee3e54" d="M25,85c-1.105,0-2,0.895-2,2s0.895,2,2,2s2-0.895,2-2S26.105,85,25,85z"/><path fill="#fff" d="M22.5,33c-1.379,0-2.5,1.121-2.5,2.5s1.121,2.5,2.5,2.5s2.5-1.121,2.5-2.5S23.879,33,22.5,33z"/><path fill="#f1bc19" d="M24,70c-0.551,0-1,0.449-1,1s0.449,1,1,1s1-0.449,1-1S24.551,70,24,70z"/><path fill="#fff" d="M80,33c-0.551,0-1,0.449-1,1s0.449,1,1,1s1-0.449,1-1S80.551,33,80,33z"/><g><path fill="#8889b9" d="M20.5,46.295l9.722-10.97c1.944-1.995,8.053-7.421,7.778,4.986c0,3.989-2.898,4.889-1.944,0 c0.972-4.986-0.575-6.331-2.917-3.989c-2.431,2.431-3.889,10.97-3.889,10.97l-8.75,15.52V46.295z"/><path fill="#472b29" d="M20,64.718V46.106l9.849-11.112c1.736-1.782,4.199-3.711,6.182-2.881 c1.768,0.742,2.576,3.428,2.47,8.21c0,1.788-0.581,3.283-1.444,3.711c-0.368,0.181-0.753,0.15-1.062-0.085 c-0.649-0.496-0.802-1.822-0.43-3.733c0.563-2.887,0.209-4.207-0.267-4.459c-0.357-0.193-1.05,0.164-1.806,0.919 c-2.292,2.292-3.735,10.616-3.749,10.7l-0.058,0.161L20,64.718z M21,46.485v14.422l7.772-13.785 c0.17-0.963,1.604-8.744,4.013-11.153c1.447-1.447,2.422-1.395,2.982-1.095c1.102,0.586,1.371,2.499,0.779,5.533 c-0.39,1.996-0.049,2.684,0.057,2.748c0.196-0.031,0.896-0.932,0.896-2.844c0.118-5.322-0.945-6.894-1.857-7.277 c-1.118-0.471-2.967,0.49-5.062,2.639L21,46.485z"/><path fill="#8889b9" d="M79.343,46.295l-9.722-10.97c-1.944-1.995-8.053-7.421-7.778,4.986c0,3.989,2.898,4.889,1.944,0 c-0.972-4.986,0.575-6.331,2.917-3.989c2.431,2.431,3.889,10.97,3.889,10.97l8.75,15.52V46.295z"/><path fill="#472b29" d="M79.843,64.718L70.1,47.377c-0.014-0.084-1.46-8.41-3.75-10.7c-0.757-0.757-1.443-1.109-1.806-0.92 c-0.475,0.253-0.829,1.572-0.266,4.459c0.372,1.911,0.22,3.237-0.43,3.733c-0.31,0.235-0.694,0.266-1.062,0.085 c-0.863-0.427-1.444-1.923-1.444-3.722c-0.106-4.771,0.702-7.457,2.47-8.199c1.983-0.83,4.445,1.098,6.166,2.863l9.864,11.129 V64.718z M71.07,47.122l7.772,13.785V46.485l-9.597-10.828c-2.079-2.131-3.925-3.094-5.046-2.622 c-0.912,0.383-1.976,1.954-1.857,7.266c0,1.922,0.7,2.824,0.922,2.849c0.08-0.058,0.421-0.746,0.031-2.742 c-0.592-3.034-0.322-4.948,0.779-5.534c0.56-0.299,1.534-0.352,2.981,1.095C69.465,38.378,70.9,46.16,71.07,47.122z"/><path fill="#a2b3cb" d="M57.879,66.3c-0.913,0-1.726-0.613-1.977-1.49l-2.196-7.688l-0.342-0.12 c-1.134-0.397-2.277-0.599-3.398-0.599c-1.197,0-2.398,0.229-3.571,0.682l-0.325,0.125l-2.171,7.599 c-0.251,0.878-1.063,1.49-1.977,1.49H22.755c-1.133,0-2.055-0.922-2.055-2.055V46.7h24.409c1.118,0,2.134,0.622,2.651,1.622 l0.196,0.378h3.886l0.195-0.378c0.52-1.001,1.535-1.622,2.653-1.622h24.409v17.545c0,1.133-0.922,2.055-2.055,2.055H57.879z"/><path fill="#472b29" d="M78.401,47.4v16.845c0,0.747-0.608,1.355-1.355,1.355H57.879c-0.602,0-1.137-0.404-1.303-0.983 l-2.097-7.339l-0.199-0.697l-0.684-0.24c-1.208-0.423-2.43-0.638-3.63-0.638c-1.284,0-2.57,0.245-3.824,0.729l-0.65,0.251 l-0.192,0.67l-2.075,7.264c-0.165,0.579-0.701,0.983-1.303,0.983H22.755c-0.747,0-1.355-0.608-1.355-1.355V47.4h23.71 c0.855,0,1.633,0.477,2.031,1.244l0.392,0.756h0.851h3.034h0.851l0.392-0.756c0.398-0.768,1.176-1.244,2.031-1.244H78.401 M79.801,46h-25.11c-1.457,0-2.669,0.832-3.274,2h-3.034c-0.605-1.168-1.816-2-3.274-2H20v18.245C20,65.767,21.233,67,22.755,67 h19.167c1.23,0,2.311-0.815,2.649-1.998l2.075-7.264c1.099-0.424,2.206-0.635,3.319-0.635c1.049,0,2.105,0.187,3.167,0.56 l2.097,7.339C55.568,66.185,56.649,67,57.879,67h19.167c1.521,0,2.755-1.233,2.755-2.755V46L79.801,46z"/><path fill="#00a5a5" d="M38.991,63.5H26.04c-0.804,0-1.456-0.624-1.456-1.393V51.893c0-0.769,0.652-1.393,1.456-1.393 h16.003c0.968,0,1.666,0.886,1.4,1.776L40.391,62.49C40.213,63.088,39.641,63.5,38.991,63.5z"/><path fill="#ee3e54" d="M61.028,63.5h13.01c0.808,0,1.463-0.624,1.463-1.393V51.893c0-0.769-0.655-1.393-1.463-1.393 H57.963c-0.972,0-1.673,0.886-1.406,1.776l3.064,10.214C59.801,63.088,60.375,63.5,61.028,63.5z"/><path fill="#472b29" d="M47.294,51.276c-0.021,0-0.044-0.003-0.065-0.009c-0.134-0.036-0.212-0.174-0.176-0.307 l0.612-2.245c0.036-0.133,0.177-0.213,0.307-0.176c0.134,0.036,0.212,0.174,0.176,0.307l-0.612,2.245 C47.505,51.203,47.404,51.276,47.294,51.276z"/><path fill="#472b29" d="M45.469,57.969c-0.021,0-0.044-0.003-0.065-0.009c-0.134-0.036-0.212-0.174-0.176-0.307 l1.341-4.916c0.036-0.133,0.177-0.213,0.307-0.176c0.134,0.036,0.212,0.174,0.176,0.307l-1.341,4.916 C45.68,57.896,45.579,57.969,45.469,57.969z"/><path fill="#472b29" d="M53.166,53.537c-0.11,0-0.211-0.073-0.241-0.184l-1.229-4.506 c-0.036-0.133,0.042-0.271,0.176-0.307c0.134-0.038,0.271,0.042,0.307,0.176l1.229,4.506c0.036,0.133-0.042,0.271-0.176,0.307 C53.21,53.534,53.188,53.537,53.166,53.537z"/><path fill="#472b29" d="M54.375,57.969c-0.11,0-0.211-0.073-0.241-0.184l-0.82-3.007c-0.036-0.133,0.042-0.271,0.176-0.307 c0.132-0.038,0.271,0.043,0.307,0.175l0.82,3.007c0.036,0.133-0.042,0.271-0.176,0.307C54.419,57.966,54.396,57.969,54.375,57.969 z"/><path fill="#472b29" d="M34.063,64H26.04c-1.079,0-1.957-0.849-1.957-1.893V51.893c0-1.044,0.878-1.893,1.957-1.893h2.71 c0.276,0,0.5,0.224,0.5,0.5s-0.224,0.5-0.5,0.5h-2.71c-0.527,0-0.957,0.401-0.957,0.893v10.214c0,0.492,0.43,0.893,0.957,0.893 h8.022c0.276,0,0.5,0.224,0.5,0.5S34.339,64,34.063,64z"/><g><path fill="#472b29" d="M38.991,64h-2.179c-0.276,0-0.5-0.224-0.5-0.5s0.224-0.5,0.5-0.5h2.179 c0.428,0,0.807-0.269,0.921-0.653l3.052-10.214c0.078-0.261,0.03-0.527-0.136-0.749C42.646,51.14,42.36,51,42.043,51H31.375 c-0.276,0-0.5-0.224-0.5-0.5s0.224-0.5,0.5-0.5h10.668c0.637,0,1.215,0.287,1.587,0.786c0.354,0.475,0.461,1.07,0.293,1.632 l-3.052,10.214C40.63,63.438,39.857,64,38.991,64z"/></g><g><path fill="#472b29" d="M74.037,64h-8.412c-0.276,0-0.5-0.224-0.5-0.5s0.224-0.5,0.5-0.5h8.412 C74.568,63,75,62.599,75,62.107V51.893C75,51.401,74.568,51,74.037,51h-5.662c-0.276,0-0.5-0.224-0.5-0.5s0.224-0.5,0.5-0.5h5.662 C75.119,50,76,50.849,76,51.893v10.214C76,63.151,75.119,64,74.037,64z"/></g><g><path fill="#472b29" d="M62.438,64h-1.41c-0.868,0-1.644-0.562-1.885-1.366l-3.063-10.215 c-0.169-0.561-0.063-1.154,0.289-1.629c0.368-0.495,0.965-0.79,1.596-0.79h7.661c0.276,0,0.5,0.224,0.5,0.5s-0.224,0.5-0.5,0.5 h-7.661c-0.321,0-0.61,0.141-0.793,0.387c-0.165,0.221-0.212,0.486-0.135,0.744L60.1,62.346C60.216,62.731,60.597,63,61.027,63 h1.41c0.276,0,0.5,0.224,0.5,0.5S62.714,64,62.438,64z"/></g></g></svg>