<svg xmlns="http://www.w3.org/2000/svg" width="500" height="500" fill="#000" viewBox="0 0 30 30"><path d="M 5.4140625 4 L 9.4140625 8 L 25.414062 8 L 21.707031 4.2929688 C 21.520031 4.1049688 21.265 4 21 4 L 5.4140625 4 z M 4 5.4140625 L 4 21 C 4 21.265 4.1049688 21.520031 4.2929688 21.707031 L 8 25.414062 L 8 9.4140625 L 4 5.4140625 z M 10 10 L 10 26 L 19 26 L 19 18 C 19 16.346 20.346 15 22 15 C 22.656 15 23.293359 15.218094 23.818359 15.621094 C 23.824359 15.625094 23.830891 15.630766 23.837891 15.634766 L 26 17.179688 L 26 10 L 10 10 z M 22.015625 16.988281 A 1.0001 1.0001 0 0 0 21 18.095703 L 21 27 C 21 27.552 21.448 28 22 28 C 22.288 28 22.542609 27.874688 22.724609 27.679688 L 22.730469 27.681641 L 24.611328 25.458984 L 26.605469 29.447266 A 1.0001163 1.0001163 0 1 0 28.394531 28.552734 L 26.359375 24.484375 L 29.275391 23.960938 L 29.277344 23.943359 C 29.691344 23.822359 30 23.454 30 23 C 30 22.651 29.809109 22.358687 29.537109 22.179688 L 29.541016 22.160156 L 22.701172 17.28125 A 1.0001 1.0001 0 0 0 22.015625 16.988281 z"/></svg>