<svg xmlns="http://www.w3.org/2000/svg" width="300" height="300" viewBox="0 0 24 24"><path d="M21,13H3v5c0,0,0,1,1,1h6l2-5l2,5h6c1,0,1-1,1-1V13z" opacity=".3"/><path d="M20,20h-6c-0.4,0-0.8-0.2-0.9-0.6L12,16.7l-1.1,2.7C10.8,19.8,10.4,20,10,20H4c-1.3,0-2-1-2-2v-5c0-0.6,0.4-1,1-1h18 c0.6,0,1,0.4,1,1v5C22,19,21.3,20,20,20z M14.7,18H20v-4h-6.9L14.7,18z M4,14v4h5.3l1.6-4H4z"/><path d="M3.9 13.4l-1.8-.8C6.4 3 7.4 3 8 3c1.4 0 2.4 2 2.9 3.7L9.1 7.3c-.3-.8-.7-1.6-1-2.1C7.2 6.5 5.3 10.2 3.9 13.4zM20.1 13.4c-1.4-3.2-3.3-6.9-4.2-8.2-.3.4-.7 1.3-1 2.1l-1.9-.6C13.6 5 14.6 3 16 3c.6 0 1.6 0 5.9 9.6L20.1 13.4z"/></svg>