<svg xmlns="http://www.w3.org/2000/svg" width="100" height="100" fill="#000" viewBox="0 0 30 30"><path d="M 19.988281 2 C 19.877828 2.0012656 19.766953 2.0212969 19.658203 2.0605469 L 9.8339844 5.0078125 A 1.0001 1.0001 0 0 0 9.7324219 5.0332031 A 1.0001 1.0001 0 0 0 9.6015625 5.0800781 A 1.0001 1.0001 0 0 0 9.59375 5.0839844 A 1.0001 1.0001 0 0 0 9.5117188 5.125 A 1.0001 1.0001 0 0 0 9.5058594 5.1289062 A 1.0001 1.0001 0 0 0 9.453125 5.1621094 C 9.4511838 5.1633787 9.4491971 5.1647332 9.4472656 5.1660156 A 1.0001 1.0001 0 0 0 9.4453125 5.1679688 L 1.953125 10.0625 A 1.0001 1.0001 0 0 0 3 11.765625 L 3 22 A 1.0001 1.0001 0 0 0 3.6835938 22.949219 L 15.683594 26.949219 A 1.0005646 1.0005646 0 0 0 16 27 C 16.001294 27 16.002612 27.000005 16.003906 27 A 1.0005646 1.0005646 0 0 0 16.546875 26.837891 L 25.484375 21.873047 C 25.802375 21.697047 26 21.363 26 21 L 26 12.478516 L 27.371094 11.929688 C 27.651094 11.817687 27.865078 11.584875 27.955078 11.296875 C 28.044078 11.008875 27.999031 10.696313 27.832031 10.445312 L 20.832031 2.4453125 C 20.640031 2.1573125 20.319641 1.9962031 19.988281 2 z M 9.78125 7.3476562 L 15 14.056641 L 15 24.611328 L 5 21.279297 L 5 10.535156 L 9.78125 7.3476562 z M 9.5585938 11.894531 C 8.7855938 11.903531 8.1005 12.373797 7.8125 13.091797 L 7.2519531 14.494141 L 8.8808594 15.289062 L 9.515625 13.699219 L 10.589844 16.205078 L 12.390625 15.517578 L 11.332031 13.050781 C 11.028031 12.339781 10.344594 11.837531 9.5585938 11.894531 z M 6.6035156 16.113281 L 6.1347656 17.283203 C 5.7457656 18.258203 6.2232656 19.369766 7.1972656 19.759766 L 9.5585938 20.703125 L 9.5585938 18.738281 L 7.7832031 18.029297 L 8.3046875 16.728516 C 7.7526875 16.530516 7.0975156 16.292281 6.6035156 16.113281 z M 13.0625 17.085938 C 12.4665 17.264937 11.768125 17.472625 11.203125 17.640625 L 12.111328 19.759766 L 10.8125 19.240234 L 10.8125 21.203125 L 11.388672 21.433594 C 11.619672 21.525594 11.859656 21.570312 12.097656 21.570312 C 12.599656 21.570312 13.091031 21.371094 13.457031 20.996094 C 13.997031 20.443094 14.149703 19.625109 13.845703 18.912109 L 13.0625 17.085938 z"/></svg>