<svg xmlns="http://www.w3.org/2000/svg" width="100" height="100" viewBox="0 0 100 100"><circle cx="77" cy="13" r="1" fill="#f1bc19"/><circle cx="50" cy="50" r="37" fill="#e6edb7"/><circle cx="83" cy="15" r="4" fill="#f1bc19"/><circle cx="87" cy="24" r="2" fill="#9f8066"/><circle cx="81" cy="76" r="2" fill="#fbcd59"/><circle cx="15" cy="63" r="4" fill="#fbcd59"/><circle cx="25" cy="87" r="2" fill="#9f8066"/><circle cx="19.5" cy="43.5" r="2.5" fill="#fff"/><circle cx="79.5" cy="33.5" r="1.5" fill="#fff"/><path fill="#a2b3cb" d="M32.563,73.3c-2.682,0-4.862-2.181-4.862-4.862V37.563c0-2.681,2.181-4.862,4.862-4.862h34.875 c2.682,0,4.862,2.181,4.862,4.862v30.875c0,2.681-2.181,4.862-4.862,4.862H32.563z"/><path fill="#472b29" d="M67.438,33.4c2.295,0,4.162,1.867,4.162,4.163v30.875c0,2.295-1.867,4.163-4.162,4.163H32.563 c-2.295,0-4.162-1.867-4.162-4.163V37.563c0-2.295,1.867-4.163,4.162-4.163H67.438 M67.438,32H32.563 C29.49,32,27,34.49,27,37.563v30.875C27,71.51,29.49,74,32.563,74h34.875C70.51,74,73,71.51,73,68.438V37.563 C73,34.49,70.51,32,67.438,32L67.438,32z"/><path fill="#fdfcef" d="M57.5,64.875c0-1.312,1.063-2.375,2.375-2.375H68.5V38.022c0-0.84-0.681-1.522-1.522-1.522H33.022 c-0.84,0-1.522,0.681-1.522,1.522v29.957c0,0.84,0.681,1.522,1.522,1.522H57.5V64.875z"/><path fill="#472b29" d="M57.625,37H43.25c-0.276,0-0.5-0.224-0.5-0.5s0.224-0.5,0.5-0.5h14.375c0.276,0,0.5,0.224,0.5,0.5 S57.901,37,57.625,37z"/><g><path fill="#472b29" d="M57.5,70H42.25c-0.276,0-0.5-0.224-0.5-0.5s0.224-0.5,0.5-0.5H57v-4.125 C57,63.29,58.29,62,59.875,62H68V38.022C68,37.458,67.542,37,66.979,37h-5.604c-0.276,0-0.5-0.224-0.5-0.5s0.224-0.5,0.5-0.5h5.604 C68.093,36,69,36.907,69,38.022V62.5c0,0.276-0.224,0.5-0.5,0.5h-8.625C58.841,63,58,63.841,58,64.875V69.5 C58,69.776,57.776,70,57.5,70z"/></g><g><path fill="#472b29" d="M38.5,70h-5.479C31.907,70,31,69.093,31,67.978V38.022C31,36.907,31.907,36,33.021,36h1.229 c0.276,0,0.5,0.224,0.5,0.5s-0.224,0.5-0.5,0.5h-1.229C32.458,37,32,37.458,32,38.022v29.957C32,68.542,32.458,69,33.021,69H38.5 c0.276,0,0.5,0.224,0.5,0.5S38.776,70,38.5,70z"/></g><g><rect width="8" height="3" x="60.5" y="65.5" fill="#d1dc82"/><path fill="#472b29" d="M68.5,69h-8c-0.276,0-0.5-0.224-0.5-0.5v-3c0-0.276,0.224-0.5,0.5-0.5h8c0.276,0,0.5,0.224,0.5,0.5 v3C69,68.776,68.776,69,68.5,69z M61,68h7v-2h-7V68z"/></g><g><polygon fill="#f4989e" points="50.5 63 41.5 58 41.5 47 50.5 52"/><path fill="#472b29" d="M50.5,63.5c-0.084,0-0.167-0.021-0.243-0.063l-9-5C41.099,58.349,41,58.182,41,58V47 c0-0.177,0.094-0.341,0.246-0.431c0.152-0.09,0.341-0.092,0.497-0.006l9,5C50.901,51.651,51,51.818,51,52v11 c0,0.177-0.094,0.341-0.246,0.431C50.676,63.477,50.588,63.5,50.5,63.5z M42,57.706l8,4.444v-9.856l-8-4.444V57.706z"/></g><g><polygon fill="#ee3e54" points="50.5 63 59.5 58 59.5 47 50.5 52"/><path fill="#472b29" d="M50.5,63.5c-0.088,0-0.176-0.023-0.254-0.069C50.094,63.341,50,63.177,50,63V52 c0-0.182,0.099-0.349,0.257-0.437l9-5c0.156-0.086,0.345-0.084,0.497,0.006C59.906,46.659,60,46.823,60,47v11 c0,0.182-0.099,0.349-0.257,0.437l-9,5C50.667,63.479,50.584,63.5,50.5,63.5z M51,52.294v9.856l8-4.444V47.85L51,52.294z"/></g><g><polygon fill="#f4989e" points="41.625 47 50.563 52 59.5 47 50.5 42.5"/><path fill="#472b29" d="M50.563,52.5c-0.084,0-0.168-0.021-0.244-0.064l-8.938-5c-0.161-0.09-0.26-0.262-0.256-0.447 c0.004-0.185,0.109-0.352,0.273-0.436l8.875-4.5c0.142-0.072,0.309-0.072,0.45-0.001l9,4.5c0.166,0.083,0.271,0.25,0.276,0.436 c0.004,0.185-0.095,0.358-0.256,0.448l-8.938,5C50.73,52.479,50.646,52.5,50.563,52.5z M42.688,47.022l7.875,4.405l7.869-4.402 l-7.93-3.965L42.688,47.022z"/></g><g><path fill="#472b29" d="M68.811,33.463l-22-9c-1.381-0.581-3.601-0.714-5.223,0.363C39.871,25.966,39,28.212,39,31.5h-1 c0-3.644,1.021-6.17,3.035-7.507c2.217-1.473,4.915-0.978,6.159-0.454l21.995,8.998L68.811,33.463z"/></g><g><path fill="#472b29" d="M38.5,44c-0.276,0-0.5-0.224-0.5-0.5v-12c0-0.276,0.224-0.5,0.5-0.5s0.5,0.224,0.5,0.5v12 C39,43.776,38.776,44,38.5,44z"/></g><g><path fill="#f4989e" d="M39.844,42h-2.688C36.518,42,36,41.482,36,40.844v-9.688C36,30.518,36.518,30,37.156,30h2.688 C40.482,30,41,30.518,41,31.156v9.688C41,41.482,40.482,42,39.844,42z"/><path fill="#472b29" d="M39.844,42.5h-2.688c-0.913,0-1.656-0.743-1.656-1.656v-9.688c0-0.913,0.743-1.656,1.656-1.656 h2.688c0.913,0,1.656,0.743,1.656,1.656v9.688C41.5,41.757,40.757,42.5,39.844,42.5z M37.156,30.5 c-0.362,0-0.656,0.294-0.656,0.656v9.688c0,0.362,0.294,0.656,0.656,0.656h2.688c0.362,0,0.656-0.294,0.656-0.656v-9.688 c0-0.362-0.294-0.656-0.656-0.656H37.156z"/></g></svg>