<svg xmlns="http://www.w3.org/2000/svg" viewBox="0 0 100 100" width="50px" height="50px"><path fill="#9898ad" d="M10,54.027v-3.439c0-0.384,0.11-0.759,0.318-1.082l16.543-25.734C27.571,22.668,28.794,22,30.107,22 l0,0c1.715,0,3.224,1.131,3.704,2.777l2.118,7.254c0.227,0.831-0.104,1.713-0.82,2.19l-2.16,1.44 c-1.224,0.816-2.881,0.075-3.089-1.381l-0.551-3.858L21,51"/><path fill="#9898ad" d="M90,54v-3.439c0-0.384-0.11-0.759-0.318-1.082L73.139,23.746c-0.71-1.105-1.933-1.772-3.246-1.772 l0,0c-1.715,0-3.224,1.131-3.704,2.777l-2.118,7.254c-0.227,0.831,0.104,1.713,0.82,2.19l2.16,1.44 c1.224,0.816,2.881,0.075,3.089-1.381l0.551-3.858L79,50.973"/><path fill="#b2b1c2" d="M10,51v23c0,2.209,1.791,4,4,4h26.122c1.84,0,3.495-1.12,4.178-2.829l2.883-7.207 c0.327-0.819,0.966-1.504,1.8-1.791c1.596-0.55,3.224,0.264,3.803,1.713l2.914,7.286C56.383,76.88,58.038,78,59.878,78H86 c2.209,0,4-1.791,4-4V51H10z"/><path fill="#f27c7c" d="M17.5,73.5h20.591c1.227,0,2.33-0.747,2.785-1.886l4.342-10.854c1.008-2.519-0.848-5.26-3.561-5.26 H17.5c-1.657,0-3,1.343-3,3v12C14.5,72.157,15.843,73.5,17.5,73.5z"/><path fill="#78a1d1" d="M54.784,60.766l4.339,10.848c0.456,1.139,1.559,1.886,2.785,1.886H82.5c1.657,0,3-1.343,3-3v-12 c0-1.657-1.343-3-3-3H58.35C55.633,55.5,53.775,58.244,54.784,60.766z"/><g><path fill="#1f212b" d="M86,79H59.878c-2.262,0-4.267-1.357-5.106-3.457l-2.915-7.286c-0.404-1.011-1.501-1.5-2.548-1.139 c-0.524,0.181-0.96,0.625-1.197,1.217l-2.883,7.208c-0.84,2.1-2.845,3.457-5.107,3.457H14c-2.757,0-5-2.243-5-5V51 c0-0.552,0.448-1,1-1h80c0.552,0,1,0.448,1,1v23C91,76.757,88.757,79,86,79z M49.988,65.003c1.603,0,3.103,0.954,3.726,2.511 l2.915,7.286c0.535,1.336,1.81,2.2,3.25,2.2H86c1.654,0,3-1.346,3-3V52H11v22c0,1.654,1.346,3,3,3h26.122 c1.439,0,2.715-0.864,3.25-2.2l2.882-7.207c0.453-1.132,1.328-1.995,2.402-2.365C49.097,65.076,49.546,65.003,49.988,65.003z"/><path fill="#1f212b" d="M38.091,74H17.5c-1.93,0-3.5-1.57-3.5-3.5v-12c0-1.93,1.57-3.5,3.5-3.5h24.157 c1.44,0,2.782,0.712,3.59,1.905s0.971,2.704,0.436,4.041L41.341,71.8C40.806,73.136,39.53,74,38.091,74z M17.5,56 c-1.378,0-2.5,1.122-2.5,2.5v12c0,1.378,1.122,2.5,2.5,2.5h20.591c1.028,0,1.939-0.617,2.321-1.571l4.342-10.854 c0.417-1.044,0.295-2.178-0.335-3.109C43.788,56.534,42.781,56,41.657,56H17.5z"/><path fill="#1f212b" d="M82.5,74H61.909c-1.439,0-2.715-0.864-3.25-2.2L54.32,60.952l0,0 c-0.535-1.339-0.373-2.851,0.436-4.045S56.908,55,58.35,55H82.5c1.93,0,3.5,1.57,3.5,3.5v12C86,72.43,84.43,74,82.5,74z M55.249,60.581l4.339,10.848C59.97,72.383,60.881,73,61.909,73H82.5c1.378,0,2.5-1.122,2.5-2.5v-12c0-1.378-1.122-2.5-2.5-2.5 H58.35c-1.126,0-2.134,0.535-2.766,1.467S54.83,59.535,55.249,60.581L55.249,60.581z"/><path fill="#1f212b" d="M11,52H9v-1.413c0-0.576,0.165-1.137,0.477-1.623L26.02,23.231C26.917,21.834,28.446,21,30.107,21 c2.145,0,4.063,1.438,4.664,3.497l2.118,7.254c0.345,1.265-0.149,2.585-1.225,3.303l-2.16,1.44 c-0.861,0.575-1.941,0.667-2.889,0.243c-0.946-0.423-1.599-1.289-1.745-2.314l-0.026-0.179l-6.917,17.131l-1.854-0.749 l8.309-20.578c0.169-0.419,0.597-0.671,1.048-0.618c0.449,0.055,0.805,0.404,0.869,0.851l0.551,3.858 c0.05,0.347,0.262,0.628,0.582,0.772s0.671,0.114,0.963-0.081l2.16-1.44c0.358-0.239,0.523-0.679,0.41-1.095l-2.113-7.237 C32.498,23.846,31.369,23,30.107,23c-0.978,0-1.876,0.491-2.405,1.313L11.159,50.046C11.055,50.208,11,50.396,11,50.587V52z"/><path fill="#1f212b" d="M91,52h-2v-1.436c0-0.191-0.055-0.378-0.159-0.539L72.298,24.312C71.77,23.49,70.871,23,69.893,23 c-1.262,0-2.391,0.845-2.744,2.055l-2.119,7.249c-0.108,0.397,0.056,0.836,0.415,1.075l2.16,1.439 c0.292,0.194,0.643,0.223,0.964,0.081c0.32-0.143,0.532-0.424,0.582-0.771l0.551-3.855c0.064-0.447,0.42-0.796,0.869-0.851 c0.447-0.057,0.878,0.199,1.048,0.618l8.309,20.561l-1.854,0.749l-6.917-17.117l-0.025,0.178c-0.146,1.025-0.799,1.89-1.745,2.313 c-0.945,0.422-2.026,0.333-2.888-0.242l-2.16-1.439c-1.077-0.717-1.571-2.037-1.231-3.284l2.124-7.266 C65.83,22.437,67.748,21,69.893,21c1.661,0,3.189,0.833,4.087,2.229l16.543,25.713C90.835,49.427,91,49.988,91,50.564V52z"/></g></svg>