<svg xmlns="http://www.w3.org/2000/svg" width="50" height="50" fill="#000" viewBox="0 0 24 24"><path d="M 5 3 C 3.9069372 3 3 3.9069372 3 5 L 3 12.171875 C 3 12.967284 3.3166015 13.730664 3.8789062 14.292969 L 6.7070312 17.121094 C 7.2693361 17.683398 8.0327162 18 8.828125 18 L 16 18 C 17.093063 18 18 17.093063 18 16 L 18 8.828125 C 18 8.0327162 17.683398 7.269336 17.121094 6.7070312 L 14.292969 3.8789062 C 13.730664 3.3166016 12.967284 3 12.171875 3 L 5 3 z M 6.4140625 5 L 12.171875 5 C 12.436466 5 12.691211 5.1052735 12.878906 5.2929688 L 14.585938 7 L 8.4140625 7 L 6.4140625 5 z M 5 6.4140625 L 7 8.4140625 L 7 14.585938 L 5.2929688 12.878906 C 5.1052735 12.691211 5 12.436466 5 12.171875 L 5 6.4140625 z M 9 9 L 16 9 L 16 16 L 9 16 L 9 9 z M 20.664062 10.570312 C 20.342312 10.514672 20 10.752109 20 11.130859 L 20 14.865234 C 20 15.369234 20.610797 15.622625 20.966797 15.265625 L 22.833984 13.396484 C 23.054984 13.175484 23.054984 12.818656 22.833984 12.597656 L 20.966797 10.728516 C 20.877797 10.639516 20.771313 10.588859 20.664062 10.570312 z M 11.144531 20 C 10.639531 20 10.387141 20.610797 10.744141 20.966797 L 12.611328 22.833984 C 12.832328 23.054984 13.191109 23.054984 13.412109 22.833984 L 15.279297 20.966797 C 15.635297 20.610797 15.384859 20 14.880859 20 L 11.144531 20 z"/></svg>