<svg xmlns="http://www.w3.org/2000/svg" width="300" height="300" viewBox="0 0 24 24"><path d="M17 15H19V21H17z"/><path d="M15 17H21V19H15z"/><path d="M18,24c-3.3,0-6-2.7-6-6s2.7-6,6-6s6,2.7,6,6S21.3,24,18,24z M18,14c-2.2,0-4,1.8-4,4s1.8,4,4,4s4-1.8,4-4S20.2,14,18,14z"/><path d="M18,4v6c-4.4,0-8,3.6-8,8c0,1.1,0.2,2.1,0.6,3H5c-0.6,0-1-0.5-1-1V4 c0-0.5,0.4-1,1-1h12C17.5,3,18,3.4,18,4z" opacity=".3"/><path d="M5,22c-1.1,0-2-0.9-2-2V4c0-1.1,0.9-2,2-2h12c1.1,0,2,0.9,2,2H5V22z"/><path d="M19 4v6.1c-.3 0-.7-.1-1-.1s-.7 0-1 .1V4H19zM11.1 22H5v-2h5.3C10.4 20.7 10.7 21.4 11.1 22z"/></svg>