<svg fill="#000000" xmlns="http://www.w3.org/2000/svg" viewBox="0 0 32 32" width="500px" height="500px"><path d="M 2 5 L 2 6 L 2 23 L 15 23 L 15 25 L 10 25 L 10 27 L 22 27 L 22 25 L 17 25 L 17 23 L 30 23 L 30 5 L 2 5 z M 4 7 L 28 7 L 28 21 L 4 21 L 4 7 z M 11 9 C 9.3545455 9 8 10.354545 8 12 L 8 12.5 L 10 12.5 L 10 12 C 10 11.445455 10.445455 11 11 11 L 12 11 C 12.554545 11 13 11.445455 13 12 C 13 12.554545 12.554545 13 12 13 L 11 13 L 11 15 L 12 15 C 12.554545 15 13 15.500391 13 15.900391 L 13 16 C 13 16.554545 12.554545 17 12 17 L 11 17 C 10.445455 17 10 16.554545 10 16 L 10 15.5 L 8 15.5 L 8 16 C 8 17.645455 9.3545455 19 11 19 L 12 19 C 13.645455 19 15 17.645455 15 16 L 15 15.900391 C 15 15.151483 14.658283 14.495377 14.173828 13.980469 C 14.657686 13.446958 15 12.76965 15 12 C 15 10.354545 13.645455 9 12 9 L 11 9 z M 17 9 L 17 10 L 17 19 L 21 19 C 22.645455 19 24 17.645455 24 16 L 24 12 C 24 10.354545 22.645455 9 21 9 L 17 9 z M 19 11 L 21 11 C 21.554545 11 22 11.445455 22 12 L 22 16 C 22 16.554545 21.554545 17 21 17 L 19 17 L 19 11 z"/></svg>