<svg xmlns="http://www.w3.org/2000/svg" viewBox="0 0 16 16" width="500px" height="500px"><path fill="#36404d" d="M14.782,4c-1.205-0.269-2.71-0.787-4.165-1.288C8.807,2.089,6.758,1,5.875,1	C5.318,1,4.911,1.114,4.698,1.329C4.539,1.489,4.528,1.67,4.529,1.722v0.625h-1V1.731c-0.002-0.19,0.039-0.682,0.458-1.105	C4.397,0.21,5.033,0,5.875,0c1.05,0,3.007,1.057,5.063,1.765C12.372,2.259,13.85,2.768,15,3.024L14.782,4z"/><path fill="#b0c1d4" d="M1,15.5c-0.267,0-0.5-0.233-0.5-0.5V3.96C0.5,3.711,0.729,3.5,1,3.5h14c0.271,0,0.5,0.211,0.5,0.46 V15.04c0,0.25-0.229,0.46-0.5,0.46H1z"/><path fill="#66798f" d="M15,3.96V15H1V4h14V3.96 M15,3H1C0.45,3,0,3.432,0,3.96V15c0,0.53,0.448,1,1,1h14 c0.55,0,1-0.432,1-0.96V3.96C16,3.432,15.55,3,15,3L15,3z"/><path fill="#fff" d="M2 5H14V14H2z"/><path fill="#b0c1d4" d="M14.308,14.462H10V12h4.308V14.462z"/><path fill="#f78f8f" d="M5.5 10.461L5.5 7.539 8 6.539 10.5 7.539 10.5 10.461 8 11.461z"/><path fill="#c74343" d="M8,7.077l2,0.8v2.246l-2,0.8l-2-0.8V7.877L8,7.077 M8,6L5,7.2v3.6L8,12l3-1.2V7.2L8,6L8,6z"/><path fill="#ffeea3" d="M11 13H14V14H11z"/><path fill="#c74343" d="M8 12L11 10.8 11 7.2 8 8.4z"/><g><path fill="#8bb7f0" d="M3.5 2.5H4.5V5.5H3.5z"/><path fill="#4e7ab5" d="M4,3v2V3 M5,2H3v4h2V2L5,2z"/></g><path fill="#d86464" d="M6.232 7.784L8 8.4 9.654 7.738 8 7.077z"/></svg>