<svg xmlns="http://www.w3.org/2000/svg" width="500" height="500" fill="#000" viewBox="0 0 80 80"><path d="M 16 9 C 14.346 9 13 10.346 13 12 L 13 68 C 13 69.654 14.346 71 16 71 L 46.353516 71 C 46.094516 70.35 45.875453 69.682 45.689453 69 L 23 69 L 23 11 L 64 11 C 64.551 11 65 11.449 65 12 L 65 45.050781 C 65.677 45.086781 66.344 45.156719 67 45.261719 L 67 12 C 67 10.346 65.654 9 64 9 L 16 9 z M 16 11 L 21 11 L 21 69 L 16 69 C 15.449 69 15 68.551 15 68 L 15 12 C 15 11.449 15.449 11 16 11 z M 26 13 A 1 1 0 0 0 25 14 A 1 1 0 0 0 26 15 A 1 1 0 0 0 27 14 A 1 1 0 0 0 26 13 z M 30 13 A 1 1 0 0 0 29 14 A 1 1 0 0 0 30 15 A 1 1 0 0 0 31 14 A 1 1 0 0 0 30 13 z M 34 13 A 1 1 0 0 0 33 14 A 1 1 0 0 0 34 15 A 1 1 0 0 0 35 14 A 1 1 0 0 0 34 13 z M 38 13 A 1 1 0 0 0 37 14 A 1 1 0 0 0 38 15 A 1 1 0 0 0 39 14 A 1 1 0 0 0 38 13 z M 42 13 A 1 1 0 0 0 41 14 A 1 1 0 0 0 42 15 A 1 1 0 0 0 43 14 A 1 1 0 0 0 42 13 z M 46 13 A 1 1 0 0 0 45 14 A 1 1 0 0 0 46 15 A 1 1 0 0 0 47 14 A 1 1 0 0 0 46 13 z M 50 13 A 1 1 0 0 0 49 14 A 1 1 0 0 0 50 15 A 1 1 0 0 0 51 14 A 1 1 0 0 0 50 13 z M 54 13 A 1 1 0 0 0 53 14 A 1 1 0 0 0 54 15 A 1 1 0 0 0 55 14 A 1 1 0 0 0 54 13 z M 58 13 A 1 1 0 0 0 57 14 A 1 1 0 0 0 58 15 A 1 1 0 0 0 59 14 A 1 1 0 0 0 58 13 z M 62 13 A 1 1 0 0 0 61 14 A 1 1 0 0 0 62 15 A 1 1 0 0 0 63 14 A 1 1 0 0 0 62 13 z M 62 17 A 1 1 0 0 0 61 18 A 1 1 0 0 0 62 19 A 1 1 0 0 0 63 18 A 1 1 0 0 0 62 17 z M 62 21 A 1 1 0 0 0 61 22 A 1 1 0 0 0 62 23 A 1 1 0 0 0 63 22 A 1 1 0 0 0 62 21 z M 62 25 A 1 1 0 0 0 61 26 A 1 1 0 0 0 62 27 A 1 1 0 0 0 63 26 A 1 1 0 0 0 62 25 z M 34 29 A 1 1 0 0 0 33 30 A 1 1 0 0 0 34 31 A 1 1 0 0 0 35 30 A 1 1 0 0 0 34 29 z M 38 29 A 1 1 0 0 0 37 30 A 1 1 0 0 0 38 31 A 1 1 0 0 0 39 30 A 1 1 0 0 0 38 29 z M 42 29 A 1 1 0 0 0 41 30 A 1 1 0 0 0 42 31 A 1 1 0 0 0 43 30 A 1 1 0 0 0 42 29 z M 46 29 A 1 1 0 0 0 45 30 A 1 1 0 0 0 46 31 A 1 1 0 0 0 47 30 A 1 1 0 0 0 46 29 z M 50 29 A 1 1 0 0 0 49 30 A 1 1 0 0 0 50 31 A 1 1 0 0 0 51 30 A 1 1 0 0 0 50 29 z M 62 29 A 1 1 0 0 0 61 30 A 1 1 0 0 0 62 31 A 1 1 0 0 0 63 30 A 1 1 0 0 0 62 29 z M 62 33 A 1 1 0 0 0 61 34 A 1 1 0 0 0 62 35 A 1 1 0 0 0 63 34 A 1 1 0 0 0 62 33 z M 62 37 A 1 1 0 0 0 61 38 A 1 1 0 0 0 62 39 A 1 1 0 0 0 63 38 A 1 1 0 0 0 62 37 z M 62 41 A 1 1 0 0 0 61 42 A 1 1 0 0 0 62 43 A 1 1 0 0 0 63 42 A 1 1 0 0 0 62 41 z M 64 48 C 55.178 48 48 55.178 48 64 C 48 72.822 55.178 80 64 80 C 72.822 80 80 72.822 80 64 C 80 55.178 72.822 48 64 48 z M 64 50 C 71.72 50 78 56.28 78 64 C 78 71.72 71.72 78 64 78 C 56.28 78 50 71.72 50 64 C 50 56.28 56.28 50 64 50 z M 63 57 L 63 63 L 57 63 L 57 65 L 63 65 L 63 71 L 65 71 L 65 65 L 71 65 L 71 63 L 65 63 L 65 57 L 63 57 z M 26 65 A 1 1 0 0 0 25 66 A 1 1 0 0 0 26 67 A 1 1 0 0 0 27 66 A 1 1 0 0 0 26 65 z M 30 65 A 1 1 0 0 0 29 66 A 1 1 0 0 0 30 67 A 1 1 0 0 0 31 66 A 1 1 0 0 0 30 65 z M 34 65 A 1 1 0 0 0 33 66 A 1 1 0 0 0 34 67 A 1 1 0 0 0 35 66 A 1 1 0 0 0 34 65 z M 38 65 A 1 1 0 0 0 37 66 A 1 1 0 0 0 38 67 A 1 1 0 0 0 39 66 A 1 1 0 0 0 38 65 z M 42 65 A 1 1 0 0 0 41 66 A 1 1 0 0 0 42 67 A 1 1 0 0 0 43 66 A 1 1 0 0 0 42 65 z"/></svg>