<?xml version="1.0"?><svg fill="#000000" xmlns="http://www.w3.org/2000/svg" viewBox="0 0 50 50" width="50px" height="50px">    <path d="M 13 2 C 12.447 2 12 2.448 12 3 L 12 47 C 12 47.358 12.190953 47.689187 12.501953 47.867188 C 12.812953 48.045187 13.194906 48.043281 13.503906 47.863281 L 25 41.158203 L 36.496094 47.863281 C 36.651094 47.954281 36.826 48 37 48 C 37.172 48 37.344047 47.956187 37.498047 47.867188 C 37.809047 47.689188 38 47.358 38 47 L 38 33.78125 C 38.65072 33.915603 39.322734 33.988281 40.011719 33.988281 C 45.511719 33.988281 50.011719 29.488281 50.011719 23.988281 C 50.011719 18.488281 45.511719 13.988281 40.011719 13.988281 C 39.322734 13.988281 38.65072 14.059007 38 14.193359 L 38 3 C 38 2.448 37.553 2 37 2 L 13 2 z M 40.011719 15.988281 C 44.411719 15.988281 48.011719 19.588281 48.011719 23.988281 C 48.011719 28.388281 44.411719 31.988281 40.011719 31.988281 C 35.611719 31.988281 32.011719 28.388281 32.011719 23.988281 C 32.011719 19.588281 35.611719 15.988281 40.011719 15.988281 z M 40.011719 18.087891 C 39.411719 18.087891 39.011719 18.487891 39.011719 19.087891 L 39.011719 22.988281 L 35.111328 22.988281 C 34.511328 22.988281 34.111328 23.388281 34.111328 23.988281 C 34.111328 24.588281 34.511328 24.988281 35.111328 24.988281 L 39.011719 24.988281 L 39.011719 28.888672 C 39.011719 29.488672 39.411719 29.888672 40.011719 29.888672 C 40.611719 29.888672 41.011719 29.488672 41.011719 28.888672 L 41.011719 24.988281 L 44.912109 24.988281 C 45.512109 24.988281 45.912109 24.588281 45.912109 23.988281 C 45.912109 23.388281 45.512109 22.988281 44.912109 22.988281 L 41.011719 22.988281 L 41.011719 19.087891 C 41.011719 18.487891 40.611719 18.087891 40.011719 18.087891 z"/></svg>