<?xml version="1.0"?><svg fill="#000000" xmlns="http://www.w3.org/2000/svg" viewBox="0 0 30 30" width="50px" height="50px">    <path d="M 15 0 A 1 1 0 0 0 14 1 A 1 1 0 0 0 15 2 A 1 1 0 0 0 16 1 A 1 1 0 0 0 15 0 z M 15 4 A 1 1 0 0 0 14 5 A 1 1 0 0 0 15 6 A 1 1 0 0 0 16 5 A 1 1 0 0 0 15 4 z M 12 4.2226562 C 5.161 5.2446562 0 9.688 0 15 C 0 20.817448 6.1956223 25.582555 14 25.962891 L 14 29 L 19.035156 24.914062 L 14 21 L 14 23.964844 C 7.2986273 23.609254 2 19.728495 2 15 C 2 10.753 6.276 7.1929531 12 6.2519531 L 12 4.2226562 z M 18 4.2226562 L 18 6.2519531 C 23.724 7.1929531 28 10.753 28 15 C 28 17.55 26.407813 19.996891 23.632812 21.712891 C 23.162813 22.003891 23.018594 22.620844 23.308594 23.089844 C 23.599594 23.559844 24.216594 23.703063 24.683594 23.414062 C 28.061594 21.326062 30 18.259 30 15 C 30 9.688 24.839 5.2446562 18 4.2226562 z M 15 8 A 1 1 0 0 0 14 9 A 1 1 0 0 0 15 10 A 1 1 0 0 0 16 9 A 1 1 0 0 0 15 8 z M 15 12 A 1 1 0 0 0 14 13 A 1 1 0 0 0 15 14 A 1 1 0 0 0 16 13 A 1 1 0 0 0 15 12 z M 15 16 A 1 1 0 0 0 14 17 A 1 1 0 0 0 15 18 A 1 1 0 0 0 16 17 A 1 1 0 0 0 15 16 z"/></svg>