<svg xmlns="http://www.w3.org/2000/svg" viewBox="0 0 64 64" width="500px" height="500px"><radialGradient id="6qZHsEPjM3XlVfPqEEAkEa" cx="32" cy="32.5" r="31.259" gradientUnits="userSpaceOnUse" spreadMethod="reflect"><stop offset="0" stop-color="#f4e9c3"/><stop offset=".219" stop-color="#f8eecd"/><stop offset=".644" stop-color="#fdf4dc"/><stop offset="1" stop-color="#fff6e1"/></radialGradient><path fill="url(#6qZHsEPjM3XlVfPqEEAkEa)" d="M57,49c0,1.66-1.34,3-3,3h-0.5c-1.38,0-2.5,1.12-2.5,2.5s1.12,2.5,2.5,2.5H59 c1.66,0,3,1.34,3,3c0,1.66-1.34,3-3,3H19c-1.66,0-3-1.34-3-3c0-1.66,1.34-3,3-3h5.5c1.38,0,2.5-1.12,2.5-2.5S25.88,52,24.5,52H3 c-1.66,0-3-1.34-3-3c0-1.66,1.34-3,3-3h0.5C4.88,46,6,44.88,6,43.5S4.88,41,3.5,41h-1C1.12,41,0,39.88,0,38.5S1.12,36,2.5,36h15 c0.69,0,1.32-0.28,1.77-0.73C19.72,34.82,20,34.19,20,33.5c0-1.38-1.12-2.5-2.5-2.5H13v-6h13v-7.19C25.69,17.93,25.35,18,25,18H4 c-1.65,0-3-1.35-3-3c0-1.65,1.35-3,3-3h6.5c1.38,0,2.5-1.12,2.5-2.5c0-0.69-0.28-1.32-0.73-1.77C11.82,7.28,11.19,7,10.5,7h-3 C5.9,7,4.64,5.48,5.09,3.82C5.39,2.72,6.45,2,7.59,2H51.5c1.6,0,2.86,1.52,2.41,3.18C53.61,6.28,52.55,7,51.41,7H45.5 C44.67,7,44,7.67,44,8.5c0,0.83,0.67,1.5,1.5,1.5l12.781,0.008c1.45,0,2.79,0.97,3.07,2.4c0.38,1.91-1.09,3.6-2.94,3.6h-2 c-1.1,0-2,0.9-2,2c0,1.1,0.9,2,2,2h5.09c1.59,0,2.85,1.52,2.41,3.18c-0.3,1.1-1.36,1.82-2.5,1.82L50,25c-1.1,0-2,0.9-2,2 c0,1.1,0.9,4,2,4h0.5c1.6,0,2.86,2.52,2.41,4.18c-0.3,1.1-1.36,1.82-2.5,1.82H47.5c-0.83,0-1.5,0.67-1.5,1.5c0,0.83-1.83,1.5-1,1.5 c1.6,0,2.86,1.52,2.41,3.18c-0.3,1.1-0.382,1.82-1.506,1.82H41.4l3.594,1H54C55.66,46,57,47.34,57,49z"/><linearGradient id="6qZHsEPjM3XlVfPqEEAkEb" x1="15.5" x2="15.5" y1="8.873" y2="14.873" gradientUnits="userSpaceOnUse" spreadMethod="reflect"><stop offset="0" stop-color="#a4a4a4"/><stop offset=".63" stop-color="#7f7f7f"/><stop offset="1" stop-color="#6f6f6f"/><stop offset="1" stop-color="#6f6f6f"/></linearGradient><path fill="url(#6qZHsEPjM3XlVfPqEEAkEb)" d="M16,19h-1c-1.65,0-3-1.35-3-3v0c0-1.65,1.35-3,3-3h1c1.65,0,3,1.35,3,3v0 C19,17.65,17.65,19,16,19z"/><linearGradient id="6qZHsEPjM3XlVfPqEEAkEc" x1="32" x2="32" y1=".713" y2="52.767" gradientUnits="userSpaceOnUse" spreadMethod="reflect"><stop offset="0" stop-color="#a4a4a4"/><stop offset=".63" stop-color="#7f7f7f"/><stop offset="1" stop-color="#6f6f6f"/><stop offset="1" stop-color="#6f6f6f"/></linearGradient><path fill="url(#6qZHsEPjM3XlVfPqEEAkEc)" d="M11,16h42c2.2,0,4,1.8,4,4v30c0,2.2-1.8,4-4,4H11c-2.2,0-4-1.8-4-4V20C7,17.8,8.8,16,11,16z"/><linearGradient id="6qZHsEPjM3XlVfPqEEAkEd" x1="32" x2="32" y1="5.268" y2="14.867" gradientUnits="userSpaceOnUse" spreadMethod="reflect"><stop offset="0" stop-color="#a4a4a4"/><stop offset=".63" stop-color="#7f7f7f"/><stop offset="1" stop-color="#6f6f6f"/><stop offset="1" stop-color="#6f6f6f"/></linearGradient><path fill="url(#6qZHsEPjM3XlVfPqEEAkEd)" d="M39.874,12.456C39.332,11.553,38.355,11,37.301,11H32h-5.301c-1.054,0-2.03,0.553-2.572,1.456 L22,16h10h10L39.874,12.456z"/><linearGradient id="6qZHsEPjM3XlVfPqEEAkEe" x1="13.5" x2="13.5" y1="31" y2="16" gradientUnits="userSpaceOnUse" spreadMethod="reflect"><stop offset="0" stop-color="#8b8b8b"/><stop offset="1" stop-color="#999"/></linearGradient><path fill="url(#6qZHsEPjM3XlVfPqEEAkEe)" d="M16,28.5L16,28.5c0-1.381-1.119-2.5-2.5-2.5h0c-1.381,0-2.5-1.119-2.5-2.5v0 c0-1.381,1.119-2.5,2.5-2.5h4c1.381,0,2.5-1.119,2.5-2.5v0c0-1.381-1.119-2.5-2.5-2.5H11c-2.209,0-4,1.791-4,4v1v5v5h6.5 C14.881,31,16,29.881,16,28.5z"/><linearGradient id="6qZHsEPjM3XlVfPqEEAkEf" x1="16.5" x2="16.5" y1="24" y2="19" gradientUnits="userSpaceOnUse" spreadMethod="reflect"><stop offset="0" stop-color="#ecf9fd"/><stop offset=".848" stop-color="#f2fdff"/><stop offset="1" stop-color="#f4feff"/></linearGradient><path fill="url(#6qZHsEPjM3XlVfPqEEAkEf)" d="M16.5 19A2.5 2.5 0 1 0 16.5 24A2.5 2.5 0 1 0 16.5 19Z"/><linearGradient id="6qZHsEPjM3XlVfPqEEAkEg" x1="46" x2="46" y1="54" y2="37" gradientUnits="userSpaceOnUse" spreadMethod="reflect"><stop offset="0" stop-color="#7e7e7e"/><stop offset="1" stop-color="#888"/></linearGradient><path fill="url(#6qZHsEPjM3XlVfPqEEAkEg)" d="M44,37v9h-5c-2.2,0-4,1.8-4,4s1.8,4,4,4h14c2.2,0,4-1.8,4-4V37H44z"/><linearGradient id="6qZHsEPjM3XlVfPqEEAkEh" x1="32" x2="32" y1="31.924" y2="61.924" gradientUnits="userSpaceOnUse" spreadMethod="reflect"><stop offset="0" stop-color="#b2b2b2"/><stop offset=".594" stop-color="#949494"/><stop offset="1" stop-color="#848484"/><stop offset="1" stop-color="#848484"/></linearGradient><path fill="url(#6qZHsEPjM3XlVfPqEEAkEh)" d="M32 20A15 15 0 1 0 32 50A15 15 0 1 0 32 20Z"/><linearGradient id="6qZHsEPjM3XlVfPqEEAkEi" x1="32" x2="32" y1="24" y2="46" gradientUnits="userSpaceOnUse" spreadMethod="reflect"><stop offset="0" stop-color="#def9ff"/><stop offset=".282" stop-color="#cff6ff"/><stop offset=".823" stop-color="#a7efff"/><stop offset="1" stop-color="#99ecff"/></linearGradient><path fill="url(#6qZHsEPjM3XlVfPqEEAkEi)" d="M32 24A11 11 0 1 0 32 46A11 11 0 1 0 32 24Z"/><linearGradient id="6qZHsEPjM3XlVfPqEEAkEj" x1="36" x2="36" y1="17.069" y2="40.017" gradientUnits="userSpaceOnUse" spreadMethod="reflect"><stop offset="0" stop-color="#dff9ff"/><stop offset="0" stop-color="#dff9ff"/><stop offset=".173" stop-color="#d8f8ff"/><stop offset=".423" stop-color="#c5f4ff"/><stop offset=".72" stop-color="#a5eeff"/><stop offset="1" stop-color="#81e7ff"/></linearGradient><path fill="url(#6qZHsEPjM3XlVfPqEEAkEj)" d="M43,35c0-1.413-0.276-2.759-0.761-4H34.5c-1.381,0-2.5,1.119-2.5,2.5 c0,1.381,1.119,2.5,2.5,2.5h1c1.381,0,2.5,1.119,2.5,2.5c0,1.381-1.119,2.5-2.5,2.5h-4c-1.381,0-2.5,1.119-2.5,2.5 c0,1.209,0.858,2.217,1.998,2.449C31.329,45.979,31.662,46,32,46C38.075,46,43,41.075,43,35z"/><g><linearGradient id="6qZHsEPjM3XlVfPqEEAkEk" x1="52" x2="52" y1="40" y2="64" gradientUnits="userSpaceOnUse" spreadMethod="reflect"><stop offset="0" stop-color="#42d778"/><stop offset=".428" stop-color="#3dca76"/><stop offset="1" stop-color="#34b171"/></linearGradient><path fill="url(#6qZHsEPjM3XlVfPqEEAkEk)" d="M52 40A12 12 0 1 0 52 64A12 12 0 1 0 52 40Z"/><path fill="#fff" d="M57,54H47c-1.1,0-2-0.9-2-2v0c0-1.1,0.9-2,2-2h10c1.1,0,2,0.9,2,2v0C59,53.1,58.1,54,57,54z"/><path fill="#fff" d="M54,47v10c0,1.1-0.9,2-2,2h0c-1.1,0-2-0.9-2-2V47c0-1.1,0.9-2,2-2h0C53.1,45,54,45.9,54,47z"/></g></svg>