<svg xmlns="http://www.w3.org/2000/svg" viewBox="0 0 64 64" width="50px" height="50px"><linearGradient id="~bQVZhWIvhdgwGM50a5Lpa" x1="32" x2="32" y1="3.833" y2="60.346" gradientUnits="userSpaceOnUse" spreadMethod="reflect"><stop offset="0" stop-color="#1a6dff"/><stop offset="1" stop-color="#c822ff"/></linearGradient><path fill="url(#~bQVZhWIvhdgwGM50a5Lpa)" d="M32,58C17.664,58,6,46.337,6,32S17.664,6,32,6s26,11.663,26,26S46.336,58,32,58z M32,8 C18.767,8,8,18.767,8,32s10.767,24,24,24s24-10.767,24-24S45.233,8,32,8z"/><linearGradient id="~bQVZhWIvhdgwGM50a5Lpb" x1="32" x2="32" y1="3.833" y2="60.346" gradientUnits="userSpaceOnUse" spreadMethod="reflect"><stop offset="0" stop-color="#1a6dff"/><stop offset="1" stop-color="#c822ff"/></linearGradient><path fill="url(#~bQVZhWIvhdgwGM50a5Lpb)" d="M32,54c-12.131,0-22-9.869-22-22s9.869-22,22-22s22,9.869,22,22S44.131,54,32,54z M32,12 c-11.028,0-20,8.972-20,20s8.972,20,20,20s20-8.972,20-20S43.028,12,32,12z"/><linearGradient id="~bQVZhWIvhdgwGM50a5Lpc" x1="32" x2="32" y1="21.833" y2="42.581" gradientUnits="userSpaceOnUse" spreadMethod="reflect"><stop offset="0" stop-color="#6dc7ff"/><stop offset="1" stop-color="#e6abff"/></linearGradient><path fill="url(#~bQVZhWIvhdgwGM50a5Lpc)" d="M41,30h-7v-7c0-0.552-0.448-1-1-1h-2c-0.552,0-1,0.448-1,1v7h-7c-0.552,0-1,0.448-1,1v2 c0,0.552,0.448,1,1,1h7v7c0,0.552,0.448,1,1,1h2c0.552,0,1-0.448,1-1v-7h7c0.552,0,1-0.448,1-1v-2C42,30.448,41.552,30,41,30z"/></svg>