<svg fill="#000000" xmlns="http://www.w3.org/2000/svg" viewBox="0 0 16 16" width="100px" height="100px"><path d="M 4.5039062 2 A 0.50005 0.50005 0 0 0 4.0703125 2.2421875 L 1.0703125 7.2421875 L 1.0722656 7.2441406 A 0.50005 0.50005 0 0 0 1 7.5 L 1 12.5 A 0.50005 0.50005 0 0 0 1.5 13 L 5.96875 13 A 0.50005 0.50005 0 0 0 6.3652344 12.804688 L 7.4921875 11.333984 L 8.5664062 12.796875 A 0.50005 0.50005 0 0 0 8.96875 13 L 13.5 13 A 0.50005 0.50005 0 0 0 14 12.5 L 14 7.5 A 0.50005 0.50005 0 0 0 13.929688 7.2421875 L 10.929688 2.2421875 A 0.50005 0.50005 0 0 0 10.052734 2.2773438 L 9.0527344 4.2773438 L 9.9472656 4.7226562 L 10.539062 3.5390625 L 12.615234 7 L 2.3847656 7 L 4.4609375 3.5390625 L 5.0527344 4.7226562 L 5.9472656 4.2773438 L 4.9472656 2.2773438 A 0.50005 0.50005 0 0 0 4.5039062 2 z M 2 8 L 13 8 L 13 12 L 9.2226562 12 L 7.9023438 10.203125 A 0.50005 0.50005 0 0 0 7.1035156 10.195312 L 5.7226562 12 L 2 12 L 2 8 z M 3.5 9 A 0.50005 0.50005 0 0 0 3 9.5 L 3 11 L 4 11 L 4 10 L 6 10 L 6 9 L 3.5 9 z M 9 9 L 9 10 L 11 10 L 11 11 L 12 11 L 12 9.5 A 0.50005 0.50005 0 0 0 11.5 9 L 9 9 z"/></svg>