<svg xmlns="http://www.w3.org/2000/svg" width="500" height="500" fill="#000" viewBox="0 0 64 64"><path d="M 21 0 C 19.347656 0 18 1.347656 18 3 L 18 61 C 18 62.652344 19.347656 64 21 64 L 45 64 C 46.652344 64 48 62.652344 48 61 L 48 45.949219 C 54.699219 45.4375 60 39.828125 60 33 C 60 26.171875 54.699219 20.5625 48 20.050781 L 48 3 C 48 1.347656 46.652344 0 45 0 Z M 21 2 L 45 2 C 45.550781 2 46 2.449219 46 3 L 46 20.050781 C 39.628906 20.539063 34.539063 25.628906 34.050781 32 L 23 32 C 22.445313 32 22 32.445313 22 33 C 22 33.554688 22.445313 34 23 34 L 34.050781 34 C 34.539063 40.371094 39.628906 45.460938 46 45.949219 L 46 61 C 46 61.550781 45.550781 62 45 62 L 21 62 C 20.449219 62 20 61.550781 20 61 L 20 3 C 20 2.449219 20.449219 2 21 2 Z M 23 4 C 22.445313 4 22 4.445313 22 5 L 22 7 C 22 7.554688 22.445313 8 23 8 C 23.554688 8 24 7.554688 24 7 L 24 5 C 24 4.445313 23.554688 4 23 4 Z M 28 4 C 27.445313 4 27 4.445313 27 5 L 27 7 C 27 7.554688 27.445313 8 28 8 C 28.554688 8 29 7.554688 29 7 L 29 5 C 29 4.445313 28.554688 4 28 4 Z M 33 4 C 32.445313 4 32 4.445313 32 5 L 32 7 C 32 7.554688 32.445313 8 33 8 C 33.554688 8 34 7.554688 34 7 L 34 5 C 34 4.445313 33.554688 4 33 4 Z M 38 4 C 37.445313 4 37 4.445313 37 5 L 37 7 C 37 7.554688 37.445313 8 38 8 C 38.554688 8 39 7.554688 39 7 L 39 5 C 39 4.445313 38.554688 4 38 4 Z M 43 4 C 42.445313 4 42 4.445313 42 5 L 42 7 C 42 7.554688 42.445313 8 43 8 C 43.554688 8 44 7.554688 44 7 L 44 5 C 44 4.445313 43.554688 4 43 4 Z M 23 16 C 22.445313 16 22 16.445313 22 17 C 22 17.554688 22.445313 18 23 18 L 43 18 C 43.554688 18 44 17.554688 44 17 C 44 16.445313 43.554688 16 43 16 Z M 47 22 C 53.066406 22 58 26.933594 58 33 C 58 39.066406 53.066406 44 47 44 C 40.933594 44 36 39.066406 36 33 C 36 26.933594 40.933594 22 47 22 Z M 47 26 C 46.445313 26 46 26.445313 46 27 L 46 32 L 41 32 C 40.445313 32 40 32.445313 40 33 C 40 33.554688 40.445313 34 41 34 L 46 34 L 46 39 C 46 39.554688 46.445313 40 47 40 C 47.554688 40 48 39.554688 48 39 L 48 34 L 53 34 C 53.554688 34 54 33.554688 54 33 C 54 32.445313 53.554688 32 53 32 L 48 32 L 48 27 C 48 26.445313 47.554688 26 47 26 Z M 23 48 C 22.445313 48 22 48.445313 22 49 C 22 49.554688 22.445313 50 23 50 L 43 50 C 43.554688 50 44 49.554688 44 49 C 44 48.445313 43.554688 48 43 48 Z"/></svg>