<?xml version="1.0"?><svg fill="#000000" xmlns="http://www.w3.org/2000/svg" viewBox="0 0 30 30" width="50px" height="50px">    <path d="M 14 2 C 12.833333 2 11.778671 2.3072665 11.042969 3.0429688 C 10.307266 3.7786709 10 4.8333333 10 6 L 10 8 A 1.0001 1.0001 0 1 0 12 8 L 12 6 C 12 5.1666667 12.192734 4.7213291 12.457031 4.4570312 C 12.721329 4.1927335 13.166667 4 14 4 L 16 4 C 18.321578 4 20.747629 5.0188701 22.556641 6 L 14 6 L 14 8 L 25 8 L 25 22 L 5 22 L 5 8 L 8 8 L 8 6 L 4 6 A 1.0001 1.0001 0 0 0 3 7 L 3 23 L 3 24 C 3 25.105 3.895 26 5 26 L 25 26 C 26.105 26 27 25.105 27 24 L 27 22 L 27 7.046875 A 1.0004882 1.0004882 0 0 0 26.980469 6.8007812 A 1.0001 1.0001 0 0 0 26.976562 6.7832031 A 1.0004882 1.0004882 0 0 0 26.921875 6.6113281 A 1.0001 1.0001 0 0 0 26.914062 6.5976562 A 1.0004882 1.0004882 0 0 0 26.826172 6.4355469 A 1.0001 1.0001 0 0 0 26.816406 6.4238281 A 1.0004882 1.0004882 0 0 0 26.765625 6.3554688 A 1.0001 1.0001 0 0 0 26.728516 6.3144531 A 1.0004882 1.0004882 0 0 0 26.697266 6.2832031 A 1.0001 1.0001 0 0 0 26.689453 6.2753906 A 1.0004882 1.0004882 0 0 0 26.625 6.21875 C 26.625 6.21875 21.533333 2 16 2 L 14 2 z M 14.955078 10.001953 A 1.0001 1.0001 0 0 0 14.652344 10.0625 L 10.652344 11.542969 A 1.0001 1.0001 0 0 0 10 12.480469 L 10 17 A 1.0001 1.0001 0 0 0 10.552734 17.894531 L 14.552734 19.894531 A 1.0001 1.0001 0 0 0 15.447266 19.894531 L 19.447266 17.894531 A 1.0001 1.0001 0 0 0 20 17 L 20 12.480469 A 1.0001 1.0001 0 0 0 19.347656 11.542969 L 15.347656 10.0625 A 1.0001 1.0001 0 0 0 14.955078 10.001953 z M 15 12.066406 L 17.744141 13.083984 L 15 14.230469 L 15 17.882812 L 12 16.382812 L 12 13.175781 L 15 12.066406 z"/></svg>