<svg xmlns="http://www.w3.org/2000/svg" width="500" height="500" fill="#000" viewBox="0 0 100 100"><path d="M 69.900391 20.900391 C 67.700391 20.900391 65.799219 22.300391 65.199219 24.400391 L 63.099609 31.699219 C 62.699609 32.999219 63.200781 34.3 64.300781 35 L 66.599609 36.400391 C 67.499609 36.900391 68.6 36.999609 69.5 36.599609 C 70.4 36.199609 71.099219 35.300781 71.199219 34.300781 L 71.199219 34.099609 L 77.615234 50 L 22.525391 50 L 28.900391 34.199219 L 28.900391 34.400391 C 29.000391 35.400391 29.699609 36.299219 30.599609 36.699219 C 31.599609 37.199219 32.6 37.1 33.5 36.5 L 35.699219 35.099609 C 36.799219 34.399609 37.200391 33.100781 36.900391 31.800781 L 34.800781 24.5 C 34.200781 22.4 32.199609 21 30.099609 21 C 28.399609 21 26.9 21.799219 26 23.199219 L 9.5 49 C 9.2 49.4 9 49.999609 9 50.599609 L 9 51 L 9 52 L 9 74 C 9 76.745455 11.254545 79 14 79 L 40.099609 79 C 42.307017 79 44.3654 77.666729 45.224609 75.580078 A 1.0001 1.0001 0 0 0 45.228516 75.574219 L 48.126953 68.373047 A 1.0001 1.0001 0 0 0 48.136719 68.351562 C 48.324488 67.850847 48.850846 67.324488 49.351562 67.136719 C 50.438505 66.729115 51.473291 67.341976 51.880859 68.292969 L 54.771484 75.568359 A 1.0001 1.0001 0 0 0 54.775391 75.580078 C 55.621813 77.635759 57.614426 79 59.900391 79 L 86 79 C 88.745455 79 91 76.745455 91 74 L 91 52 L 91 51 L 91 50.400391 C 91 49.800391 90.8 49.300781 90.5 48.800781 L 74 23.099609 C 73.1 21.699609 71.600391 20.900391 69.900391 20.900391 z M 69.900391 23 C 70.900391 23 71.800781 23.500781 72.300781 24.300781 L 88.736328 50 L 79.798828 50 L 71.699219 29.900391 C 71.599219 29.500391 71.099219 29.200781 70.699219 29.300781 C 70.199219 29.400781 69.900781 29.799219 69.800781 30.199219 L 69.199219 34.099609 C 69.099219 34.499609 68.899609 34.800391 68.599609 34.900391 C 68.199609 35.000391 67.899609 35.000781 67.599609 34.800781 L 65.400391 33.400391 C 65.100391 33.100391 64.9 32.700781 65 32.300781 L 67.199219 25.099609 C 67.499219 23.799609 68.600391 23 69.900391 23 z M 30.300781 23.099609 C 31.500781 23.099609 32.6 23.999219 33 25.199219 L 35.099609 32.400391 C 35.199609 32.800391 35.099219 33.3 34.699219 33.5 L 32.5 34.900391 C 32.2 35.100391 31.8 35.1 31.5 35 C 31.2 34.8 30.900391 34.499219 30.900391 34.199219 L 30.300781 30.300781 C 30.200781 29.800781 29.800391 29.500391 29.400391 29.400391 C 29.000391 29.300391 28.600391 29.6 28.400391 30 L 20.341797 50 L 11.199219 50 L 27.900391 24.400391 C 28.400391 23.600391 29.300781 23.099609 30.300781 23.099609 z M 11 52 L 89 52 L 89 74 C 89 75.654545 87.654545 77 86 77 L 59.900391 77 C 58.386356 77 57.178558 76.162714 56.625 74.818359 L 53.728516 67.53125 A 1.0001 1.0001 0 0 0 53.71875 67.505859 C 52.926318 65.656852 50.761494 64.471275 48.648438 65.263672 C 47.549154 65.675903 46.675903 66.549154 46.263672 67.648438 L 43.375 74.818359 C 42.834209 76.131709 41.492202 77 40.099609 77 L 14 77 C 12.345455 77 11 75.654545 11 74 L 11 52 z M 17.5 54.900391 C 15.545098 54.900391 14 56.445489 14 58.400391 L 14 70.400391 C 14 72.441131 15.545098 74 17.5 74 L 38.099609 74 C 39.494054 74 40.787743 73.169573 41.361328 71.792969 A 0.50005 0.50005 0 0 0 41.365234 71.783203 L 45.664062 60.884766 C 46.788714 58.073139 44.732943 54.900391 41.599609 54.900391 L 17.5 54.900391 z M 58.300781 55 C 55.267448 55 53.220184 58.082635 54.333984 60.978516 A 0.50005 0.50005 0 0 0 54.335938 60.984375 L 58.634766 71.785156 A 0.50005 0.50005 0 0 0 58.644531 71.806641 C 59.220975 73.07496 60.478168 74 61.900391 74 L 82.5 74 C 84.454902 74 86 72.454902 86 70.5 L 86 58.5 C 86 56.545098 84.454902 55 82.5 55 L 58.300781 55 z M 17.5 55.900391 L 41.599609 55.900391 C 44.066276 55.900391 45.611677 58.325299 44.736328 60.513672 A 0.50005 0.50005 0 0 0 44.734375 60.515625 L 40.4375 71.408203 C 40.011085 72.431599 39.105165 73 38.099609 73 L 17.5 73 C 16.054902 73 15 71.95965 15 70.400391 L 15 58.400391 C 15 56.955293 16.054902 55.900391 17.5 55.900391 z M 58.300781 56 L 82.5 56 C 83.945098 56 85 57.054902 85 58.5 L 85 70.5 C 85 71.945098 83.945098 73 82.5 73 L 61.900391 73 C 60.9231 73 59.978468 72.325456 59.554688 71.394531 C 59.554688 71.394531 59.554688 71.392578 59.554688 71.392578 L 55.263672 60.615234 L 55.267578 60.621094 C 54.381384 58.316981 55.934115 56 58.300781 56 z"/></svg>