<svg xmlns="http://www.w3.org/2000/svg" viewBox="0 0 30 30" width="300px" height="300px"><path fill="#b0c1d4" d="M0.5,11.043v1.184h4.29v-1.184c0,0,1.176-3.875,1.839-3.875c-0.153,1.014-0.04,2.17,0.613,2.29 c1.085,0.199,1.226-0.783,1.226-0.783c0.096-1.37,0.103-3.133-1.839-3.133S0.5,11.043,0.5,11.043z"/><path fill="#66798f" d="M5.291,12.728H0v-1.85l0.098-0.133c0.725-0.978,4.443-5.703,6.531-5.703 c0.71,0,1.275,0.07,1.68,0.502C9.029,6.317,9.045,7.578,8.967,8.71c-0.073,0.516-0.493,1.475-1.815,1.24 C6.58,9.846,6.272,9.371,6.143,8.756c-0.288,0.675-0.604,1.551-0.852,2.361V12.728z M1,11.728h3.291l0.021-0.83 c1.283-4.229,2.034-4.229,2.317-4.229h0.581L7.124,7.242C6.97,8.26,7.171,8.937,7.332,8.966c0.521,0.101,0.631-0.288,0.641-0.362 c0.061-0.881,0.064-1.885-0.396-2.377c-0.21-0.226-0.521-0.185-0.948-0.185c-1.142,0-3.939,2.914-5.629,5.167V11.728z"/><path fill="#b0c1d4" d="M29.5,11.044v1.184h-4.284v-1.184c0,0-1.174-3.875-1.836-3.875c0.247,1.25,0.037,2.154-0.612,2.29 c-1.117,0.234-1.224-0.783-1.224-0.783C21.417,7.463,21.441,5.5,23.38,5.5S29.5,11.044,29.5,11.044z"/><path fill="#66798f" d="M30,12.728h-5.284v-1.609c-0.238-0.776-0.538-1.615-0.815-2.277 c-0.148,0.605-0.499,0.995-1.03,1.106c-0.145,0.03-0.285,0.046-0.417,0.046c-0.934,0-1.353-0.757-1.406-1.266 c-0.151-1.444,0.066-2.503,0.647-3.148C22.104,5.124,22.672,5,23.38,5c2.085,0,5.799,4.769,6.522,5.746L30,10.879V12.728z M25.716,11.728H29V11.21C27.313,8.957,24.52,6,23.38,6c-0.418,0-0.727,0.009-0.942,0.248c-0.378,0.42-0.515,1.241-0.396,2.375 c0.022,0.161,0.17,0.439,0.625,0.346c0.261-0.055,0.428-0.67,0.224-1.703l-0.118-0.597h0.608c0.283,0,1.034,0,2.314,4.23 l0.021,0.145V11.728z"/><path fill="#e1ebf2" d="M29.5,11.5h-29v10c0,0,0.283,0,0.63,0H11.7c0.478,0,0.914-0.269,1.128-0.691l1.261-3.355 c0.187-0.371,0.549-0.559,0.911-0.559s0.724,0.188,0.911,0.559l1.261,3.355c0.214,0.422,0.653,0.691,1.128,0.691h10.57 c0.347,0,0.63,0,0.63,0V11.5z"/><path fill="#788b9c" d="M30,22H18.3c-0.659,0-1.276-0.378-1.574-0.964l-1.283-3.406c-0.136-0.258-0.728-0.307-0.908,0.049 l-1.239,3.307C12.972,21.631,12.369,22,11.7,22H0V11h30V22z M15,16.395c0.578,0,1.098,0.319,1.357,0.835l1.283,3.404 C17.746,20.836,18.014,21,18.3,21H29v-9H1v9h10.7c0.29,0,0.551-0.16,0.682-0.417l1.238-3.305 C13.902,16.714,14.422,16.395,15,16.395z"/><g><path fill="#8bb7f0" d="M3.627,19.5c-0.069,0-0.127-0.063-0.127-0.137v-5.688c0-0.097,0.075-0.176,0.166-0.176h8.336 c0.168,0,0.292,0.056,0.377,0.172c0.132,0.178,0.158,0.47,0.069,0.762c-0.163,0.531-0.334,1.145-0.505,1.757 c-0.33,1.185-0.741,2.66-0.982,3.008c-0.104,0.218-0.229,0.302-0.365,0.302H3.627z"/><path fill="#4e7ab5" d="M11.989,14c0.014,0.053,0.021,0.156-0.019,0.287c-0.164,0.535-0.336,1.151-0.508,1.768 c-0.283,1.014-0.71,2.547-0.912,2.859l-0.057,0.082L10.491,19H4v-5h6.818H11.989 M12.002,13h-1.184H3.666 C3.298,13,3,13.303,3,13.676v5.688C3,19.714,3.282,20,3.627,20h6.968c0.338,0,0.642-0.204,0.776-0.517 c0.418-0.602,1.027-3.184,1.554-4.903C13.167,13.795,12.812,13,12.002,13L12.002,13z"/></g><g><path fill="#f78f8f" d="M19.405,19.5c-0.137,0-0.261-0.084-0.317-0.215c-0.29-0.435-0.7-1.91-1.03-3.095 c-0.171-0.612-0.342-1.226-0.505-1.757c-0.089-0.292-0.063-0.584,0.069-0.762c0.085-0.116,0.208-0.172,0.377-0.172h8.336 c0.091,0,0.166,0.079,0.166,0.176v5.688c0,0.074-0.058,0.137-0.127,0.137H19.405z"/><path fill="#c74343" d="M26,14v5h-6.495l-0.006-0.013l-0.046-0.071c-0.204-0.314-0.631-1.847-0.914-2.861 c-0.172-0.616-0.344-1.233-0.508-1.768c-0.04-0.131-0.033-0.234-0.019-0.287h1.171H26 M26.334,13h-7.152h-1.184 c-0.81,0-1.165,0.795-0.924,1.58c0.528,1.718,1.137,4.3,1.554,4.903C18.763,19.796,19.067,20,19.405,20h6.968 C26.718,20,27,19.714,27,19.364v-5.688C27,13.303,26.702,13,26.334,13L26.334,13z"/></g></svg>