<svg xmlns="http://www.w3.org/2000/svg" width="500" height="500" viewBox="0 0 24 24"><path d="M21,3H3C1.895,3,1,3.895,1,5v12c0,1.105,0.895,2,2,2h18c1.105,0,2-0.895,2-2V5C23,3.895,22.105,3,21,3z M21,17H3V5h18V17z"/><path d="M8 18H16V21H8zM15.514 8h-3.178l-.684 5.982c0 0 1.402 0 3.042 0 1.898 0 3.351-1.213 3.351-3.589C18.044 8.019 15.514 8 15.514 8zM14.54 12.717h-1.025l.411-3.5h.922c0 0 1.487.016 1.487 1.485C16.334 12.547 14.54 12.717 14.54 12.717zM7.782 14.009c-.69 0-1.35-.163-1.642-.406l-.078-.066.466-1.206.14.076c.16.087.591.289 1.131.289.567 0 .948-.257.948-.641 0-.148 0-.598-.981-.598H7.385l.209-1.112h.31C8.425 10.346 9 10.031 9 9.648c0-.277-.3-.431-.544-.431-.454 0-.846.131-1.061.254L7.223 9.569 7.01 8.449 7.1 8.4C7.549 8.155 8.151 8.009 8.71 8.009c1.109 0 1.853.576 1.853 1.434 0 .59-.375 1.112-.963 1.382.431.23.693.677.693 1.221C10.293 13.322 9 14.009 7.782 14.009z"/><path d="M2 4H22V18H2z" opacity=".3"/></svg>