<svg xmlns="http://www.w3.org/2000/svg" width="500" height="500" viewBox="0 0 40 40"><path fill="#36404d" d="M35.782,8.976c-2.686-0.599-6.054-1.759-9.311-2.881C22.17,4.614,18.094,3,16,3	c-3.844,0-4.002,2.823-4,3l0,1h-1l0-0.985C10.996,5.658,11.09,2,16,2c2.261,0,6.415,1.64,10.796,3.149	C30.028,6.262,33.369,7.413,36,8L35.782,8.976z"/><path fill="#b0c1d4" d="M4,37.5c-0.827,0-1.5-0.673-1.5-1.5V10c0-0.827,0.673-1.5,1.5-1.5h32c0.827,0,1.5,0.673,1.5,1.5v26 c0,0.827-0.673,1.5-1.5,1.5H4z"/><path fill="#66798f" d="M36,9c0.551,0,1,0.449,1,1v26c0,0.551-0.449,1-1,1H4c-0.551,0-1-0.449-1-1V10c0-0.551,0.449-1,1-1 H36 M36,8H4c-1.1,0-2,0.9-2,2v26c0,1.105,0.895,2,2,2h32c1.1,0,2-0.9,2-2V10C38,8.9,37.1,8,36,8L36,8z"/><path fill="#fff" d="M6 12H34V34H6z"/><path fill="#b0c1d4" d="M36,36H26v-4c0-1.105,0.895-2,2-2h8V36z"/><path fill="#f78f8f" d="M13.5 26.671L13.5 18.33 20 15.544 26.5 18.33 26.5 26.671 20 29.456z"/><path fill="#c74343" d="M20,16.088l6,2.571v7.681l-6,2.571l-6-2.571v-7.681L20,16.088 M20,15l-7,3v9l7,3l7-3v-9L20,15L20,15 z"/><path fill="#36404d" d="M11 14H12V17H11z"/><path fill="#ffeea3" d="M28 32H34V34H28z"/><path fill="#c74343" d="M20 30L27 27 27 18 20 21z"/><g><path fill="#8bb7f0" d="M10,14.5c-0.276,0-0.5-0.224-0.5-0.5V7c0-0.276,0.224-0.5,0.5-0.5h3c0.276,0,0.5,0.224,0.5,0.5v7 c0,0.276-0.224,0.5-0.5,0.5H10z"/><path fill="#4e7ab5" d="M13,7v7h-3V7H13 M13,6h-3C9.448,6,9,6.448,9,7v7c0,0.552,0.448,1,1,1h3c0.552,0,1-0.448,1-1V7 C14,6.448,13.552,6,13,6L13,6z"/></g><path fill="#d86464" d="M20 16.094L19.909 16.127 14.026 18.648 20 21 25.731 18.544 20.093 16.128z"/></svg>