<svg xmlns="http://www.w3.org/2000/svg" width="50" height="50" fill="#000" viewBox="0 0 32 32"><path d="M 14 4 C 12.996094 4 12.132813 4.347656 11.53125 4.875 C 10.929688 5.402344 10.589844 6.042969 10.375 6.65625 C 9.949219 7.863281 10 8.972656 10 9 C 10 9 10 9.03125 10 9.03125 L 10 12 L 12 12 L 12 8.96875 C 12 8.96875 11.976563 8.121094 12.25 7.34375 C 12.386719 6.957031 12.585938 6.597656 12.84375 6.375 C 13.101563 6.152344 13.414063 6 14 6 C 15.175781 6 18.273438 6.949219 20.84375 7.9375 C 20.902344 7.960938 20.941406 7.976563 21 8 L 13 8 L 13 10 L 25 10 L 25 23 L 20 23 L 20 25 L 7 25 L 7 10 L 9 10 L 9 8 L 5 8 L 5 27 L 27 27 L 27 8 L 26.1875 8 C 25.886719 7.863281 23.996094 6.996094 21.5625 6.0625 C 18.929688 5.050781 16.011719 4 14 4 Z M 16 11.84375 L 15.5 12.125 L 11.5 14.34375 L 11 14.625 L 11 19.9375 L 11.5 20.25 L 15.5 22.46875 L 16 22.71875 L 16.5 22.46875 L 20.5 20.25 L 21 19.9375 L 21 14.625 L 20.5 14.34375 L 16.5 12.125 Z M 16 14.15625 L 17.90625 15.21875 L 16 16.25 L 14.09375 15.21875 Z M 13 16.90625 L 15 18 L 15 19.875 L 13 18.78125 Z M 19 16.90625 L 19 18.78125 L 17 19.875 L 17 18 Z"/></svg>