<svg xmlns="http://www.w3.org/2000/svg" width="50" height="50" viewBox="0 0 128 128"><path fill="#fff" d="M49 84H19c-2.8 0-5-2.2-5-5V49c0-2.8 2.2-5 5-5h30c2.8 0 5 2.2 5 5v30C54 81.8 51.8 84 49 84zM109 84H79c-2.8 0-5-2.2-5-5V49c0-2.8 2.2-5 5-5h30c2.8 0 5 2.2 5 5v30C114 81.8 111.8 84 109 84z"/><path fill="#ff5576" d="M22 52H46V76H22z" transform="rotate(90 34 64)"/><path fill="#2ca4d5" d="M82 52H106V76H82z" transform="rotate(90 94 64)"/><path fill="#444b54" d="M14 62c-1.7 0-3-1.3-3-3V49c0-4.4 3.6-8 8-8h30c1.7 0 3 1.3 3 3s-1.3 3-3 3H19c-1.1 0-2 .9-2 2v10C17 60.7 15.7 62 14 62zM49 87H19c-4.4 0-8-3.6-8-8V69c0-1.7 1.3-3 3-3s3 1.3 3 3v10c0 1.1.9 2 2 2h30c1.1 0 2-.9 2-2V59c0-1.7 1.3-3 3-3s3 1.3 3 3v20C57 83.4 53.4 87 49 87zM109 87H79c-4.4 0-8-3.6-8-8V49c0-4.4 3.6-8 8-8h30c4.4 0 8 3.6 8 8v10c0 1.7-1.3 3-3 3s-3-1.3-3-3V49c0-1.1-.9-2-2-2H79c-1.1 0-2 .9-2 2v30c0 1.1.9 2 2 2h30c1.1 0 2-.9 2-2V69c0-1.7 1.3-3 3-3s3 1.3 3 3v10C117 83.4 113.4 87 109 87z"/><path fill="#444b54" d="M74 62c-1.7 0-3-1.3-3-3 0-3.9-3.1-7-7-7s-7 3.1-7 7c0 1.7-1.3 3-3 3s-3-1.3-3-3c0-7.2 5.8-13 13-13s13 5.8 13 13C77 60.7 75.7 62 74 62zM14 62H7c-1.7 0-3-1.3-3-3s1.3-3 3-3h7c1.7 0 3 1.3 3 3S15.7 62 14 62zM121 62h-7c-1.7 0-3-1.3-3-3s1.3-3 3-3h7c1.7 0 3 1.3 3 3S122.7 62 121 62z"/></svg>