<svg xmlns="http://www.w3.org/2000/svg" width="50" height="50" fill="#000" viewBox="0 0 24 24"><path d="M 1 0 L 1 1.15625 L 4 0.4375 L 4 0 Z M 7 0 L 7 1 L 5 1 L 0 2.5625 L 0 13 L 18 13 L 18 1 L 11 1 L 11 0 Z M 9 3 C 11.210938 3 13 4.789063 13 7 C 13 9.210938 11.210938 11 9 11 C 6.789063 11 5 9.210938 5 7 C 5 4.789063 6.789063 3 9 3 Z M 9 4.5 C 7.617188 4.5 6.5 5.617188 6.5 7 C 6.5 8.382813 7.617188 9.5 9 9.5 C 10.382813 9.5 11.5 8.382813 11.5 7 C 11.5 5.617188 10.382813 4.5 9 4.5 Z M 18 14 L 18 18 L 14 18 L 14 20 L 18 20 L 18 24 L 20 24 L 20 20 L 24 20 L 24 18 L 20 18 L 20 14 Z"/></svg>