<svg xmlns="http://www.w3.org/2000/svg" width="500" height="500" viewBox="0 0 24 24"><path d="M14,19H8.4L5,15.6V5h10.6L19,8.4v2.7l2,1.9V8c0-0.3-0.1-0.5-0.3-0.7l-4-4C16.5,3.1,16.3,3,16,3H4C3.4,3,3,3.4,3,4v12 c0,0.3,0.1,0.5,0.3,0.7l4,4C7.5,20.9,7.7,21,8,21h6V19z"/><path d="M14,7.7c0.1,0,0.3,0,0.4,0c0.3,0,0.7,0,1-0.1l2,1.9l2.6,2.5V8l-4-4H4v12 l4,4h6V7.7z" opacity=".3"/><path d="M8,21c-0.6,0-1-0.4-1-1V8c0-0.6,0.4-1,1-1s1,0.4,1,1v12C9,20.6,8.6,21,8,21z"/><path d="M20 9H8C7.7 9 7.5 8.9 7.3 8.7l-4-4c-.4-.4-.4-1 0-1.4s1-.4 1.4 0L8.4 7H20c.6 0 1 .4 1 1S20.6 9 20 9zM16 11v10l2.5-2.4 1.3-.6h3.5L16 11 16 11z"/><path d="M18.9,15l3.4,7.5l-2,1L17,15.9L18.9,15z"/></svg>