<svg xmlns="http://www.w3.org/2000/svg" width="100" height="100" viewBox="0 0 64 64"><linearGradient id="BTO3tAXhRrrZfZSnrdQx7a" x1="36" x2="36" y1="26" y2="31.876" gradientUnits="userSpaceOnUse" spreadMethod="reflect"><stop offset="0" stop-color="#6dc7ff"/><stop offset="1" stop-color="#e6abff"/></linearGradient><path fill="url(#BTO3tAXhRrrZfZSnrdQx7a)" d="M36 26A3 3 0 1 0 36 32A3 3 0 1 0 36 26Z"/><linearGradient id="BTO3tAXhRrrZfZSnrdQx7b" x1="32" x2="32" y1="7" y2="57" gradientUnits="userSpaceOnUse" spreadMethod="reflect"><stop offset="0" stop-color="#1a6dff"/><stop offset="1" stop-color="#c822ff"/></linearGradient><path fill="url(#BTO3tAXhRrrZfZSnrdQx7b)" d="M47.414,7H7v39.384L16.555,57H57V16.586L47.414,7z M53.586,16H17.414l-7-7h36.172L53.586,16z M9,10.414l7,7v35.98l-7-7.778V10.414z M18,55V18h37v29h-4v2h4v2h-6v2h6v2H18z"/><linearGradient id="BTO3tAXhRrrZfZSnrdQx7c" x1="36" x2="36" y1="30.017" y2="48.606" gradientUnits="userSpaceOnUse" spreadMethod="reflect"><stop offset="0" stop-color="#1a6dff"/><stop offset="1" stop-color="#c822ff"/></linearGradient><path fill="url(#BTO3tAXhRrrZfZSnrdQx7c)" d="M42.649,38.587l-4.811-7.561c-0.402-0.632-1.09-1.009-1.839-1.009s-1.437,0.377-1.839,1.009 l-4.811,7.56c-0.436,0.684-0.464,1.55-0.073,2.261C29.667,41.559,30.413,42,31.225,42H33v5c0,1.103,0.897,2,2,2h2 c1.103,0,2-0.897,2-2v-5h1.775c0.812,0,1.558-0.441,1.947-1.152C43.113,40.137,43.085,39.271,42.649,38.587z M40.97,39.885 C40.94,39.938,40.884,40,40.775,40H37v7h-2v-7h-3.775c-0.108,0-0.165-0.062-0.194-0.115c-0.028-0.052-0.051-0.133,0.008-0.225 l4.811-7.56c0.035-0.055,0.086-0.083,0.151-0.083s0.116,0.028,0.151,0.083l4.811,7.561v0C41.021,39.752,40.998,39.833,40.97,39.885z"/><linearGradient id="BTO3tAXhRrrZfZSnrdQx7d" x1="36" x2="36" y1="35" y2="37.938" gradientUnits="userSpaceOnUse" spreadMethod="reflect"><stop offset="0" stop-color="#6dc7ff"/><stop offset="1" stop-color="#e6abff"/></linearGradient><path fill="url(#BTO3tAXhRrrZfZSnrdQx7d)" d="M38 38L34 38 36 35z"/></svg>