<svg xmlns="http://www.w3.org/2000/svg" width="50" height="50" fill="#000" viewBox="0 0 30 30"><path d="M 15 3 A 1 1 0 0 0 14 4 A 1 1 0 0 0 15 5 A 1 1 0 0 0 16 4 A 1 1 0 0 0 15 3 z M 10.789062 3.8378906 A 1 1 0 0 0 9.7890625 4.8378906 A 1 1 0 0 0 10.789062 5.8378906 A 1 1 0 0 0 11.789062 4.8378906 A 1 1 0 0 0 10.789062 3.8378906 z M 19.210938 3.8378906 A 1 1 0 0 0 18.210938 4.8378906 A 1 1 0 0 0 19.210938 5.8378906 A 1 1 0 0 0 20.210938 4.8378906 A 1 1 0 0 0 19.210938 3.8378906 z M 7.2226562 6.2226562 A 1 1 0 0 0 6.2226562 7.2226562 A 1 1 0 0 0 7.2226562 8.2226562 A 1 1 0 0 0 8.2226562 7.2226562 A 1 1 0 0 0 7.2226562 6.2226562 z M 22.777344 6.2226562 A 1 1 0 0 0 21.777344 7.2226562 A 1 1 0 0 0 22.777344 8.2226562 A 1 1 0 0 0 23.777344 7.2226562 A 1 1 0 0 0 22.777344 6.2226562 z M 15 7 C 10.593562 7 7 10.593562 7 15 C 7 19.406438 10.593562 23 15 23 C 19.406438 23 23 19.406438 23 15 C 23 10.593562 19.406438 7 15 7 z M 15 9 C 18.325562 9 21 11.674438 21 15 C 21 18.325562 18.325562 21 15 21 C 11.674438 21 9 18.325562 9 15 C 9 11.674438 11.674438 9 15 9 z M 4.8378906 9.7890625 A 1 1 0 0 0 3.8378906 10.789062 A 1 1 0 0 0 4.8378906 11.789062 A 1 1 0 0 0 5.8378906 10.789062 A 1 1 0 0 0 4.8378906 9.7890625 z M 25.162109 9.7890625 A 1 1 0 0 0 24.162109 10.789062 A 1 1 0 0 0 25.162109 11.789062 A 1 1 0 0 0 26.162109 10.789062 A 1 1 0 0 0 25.162109 9.7890625 z M 15 11 C 12.808718 11 11 12.808718 11 15 C 11 17.191282 12.808718 19 15 19 C 17.191282 19 19 17.191282 19 15 C 19 12.808718 17.191282 11 15 11 z M 4 14 A 1 1 0 0 0 3 15 A 1 1 0 0 0 4 16 A 1 1 0 0 0 5 15 A 1 1 0 0 0 4 14 z M 15 14 C 15.570718 14 16 14.429282 16 15 C 16 15.570718 15.570718 16 15 16 C 14.429282 16 14 15.570718 14 15 C 14 14.429282 14.429282 14 15 14 z M 26 14 A 1 1 0 0 0 25 15 A 1 1 0 0 0 26 16 A 1 1 0 0 0 27 15 A 1 1 0 0 0 26 14 z M 4.8378906 18.210938 A 1 1 0 0 0 3.8378906 19.210938 A 1 1 0 0 0 4.8378906 20.210938 A 1 1 0 0 0 5.8378906 19.210938 A 1 1 0 0 0 4.8378906 18.210938 z M 25.162109 18.210938 A 1 1 0 0 0 24.162109 19.210938 A 1 1 0 0 0 25.162109 20.210938 A 1 1 0 0 0 26.162109 19.210938 A 1 1 0 0 0 25.162109 18.210938 z M 7.2226562 21.777344 A 1 1 0 0 0 6.2226562 22.777344 A 1 1 0 0 0 7.2226562 23.777344 A 1 1 0 0 0 8.2226562 22.777344 A 1 1 0 0 0 7.2226562 21.777344 z M 22.777344 21.777344 A 1 1 0 0 0 21.777344 22.777344 A 1 1 0 0 0 22.777344 23.777344 A 1 1 0 0 0 23.777344 22.777344 A 1 1 0 0 0 22.777344 21.777344 z M 10.789062 24.162109 A 1 1 0 0 0 9.7890625 25.162109 A 1 1 0 0 0 10.789062 26.162109 A 1 1 0 0 0 11.789062 25.162109 A 1 1 0 0 0 10.789062 24.162109 z M 19.210938 24.162109 A 1 1 0 0 0 18.210938 25.162109 A 1 1 0 0 0 19.210938 26.162109 A 1 1 0 0 0 20.210938 25.162109 A 1 1 0 0 0 19.210938 24.162109 z M 15 25 A 1 1 0 0 0 14 26 A 1 1 0 0 0 15 27 A 1 1 0 0 0 16 26 A 1 1 0 0 0 15 25 z"/></svg>