<svg xmlns="http://www.w3.org/2000/svg" width="300" height="300" fill="#000" viewBox="0 0 100 100"><path d="M 40 9 C 35.593562 9 32 12.593562 32 17 L 31.5 17 C 29.572833 17 28 18.572833 28 20.5 L 28 31.5 C 28 33.427167 29.572833 35 31.5 35 L 32 35 L 32 38 A 1.0001 1.0001 0 1 0 34 38 L 34 35 L 34.5 35 C 36.427167 35 38 33.427167 38 31.5 L 38 20.5 C 38 18.572833 36.427167 17 34.5 17 L 34 17 C 34 13.674438 36.674438 11 40 11 C 42.084388 11 44.23144 11.87938 46.15625 12.537109 C 50.11164 13.888131 64.241744 18.563509 71.611328 21 L 41 21 A 1.0001 1.0001 0 1 0 41 23 L 77 23 C 79.773666 23 82 25.226334 82 28 L 82 74 C 82 76.773666 79.773666 79 77 79 L 22 79 C 19.226334 79 17 76.773666 17 74 L 17 28 C 17 25.226334 19.226334 23 22 23 L 25 23 A 1.0001 1.0001 0 1 0 25 21 L 22 21 C 18.145666 21 15 24.145666 15 28 L 15 74 C 15 77.854334 18.145666 81 22 81 L 77 81 C 80.854334 81 84 77.854334 84 74 L 84 28 C 84 24.639498 81.608701 21.820257 78.441406 21.152344 C 78.378831 21.131676 51.825283 12.360057 46.802734 10.644531 C 44.987544 10.02426 42.623612 9 40 9 z M 31.5 18 L 34.5 18 C 35.886833 18 37 19.113167 37 20.5 L 37 31.5 C 37 32.886833 35.886833 34 34.5 34 L 33.154297 34 A 1.0001 1.0001 0 0 0 32.984375 33.986328 A 1.0001 1.0001 0 0 0 32.839844 34 L 31.5 34 C 30.113167 34 29 32.886833 29 31.5 L 29 20.5 C 29 19.113167 30.113167 18 31.5 18 z M 40.5 28 A 0.50005 0.50005 0 1 0 40.5 29 L 72.5 29 C 74.438742 29 76 30.561258 76 32.5 L 76 65 L 65.5 65 C 63.020742 65 61 67.020742 61 69.5 L 61 73 L 26.5 73 C 24.561258 73 23 71.438742 23 69.5 L 23 32.5 C 23 30.866786 24.117244 29.515511 25.625 29.125 A 0.50024408 0.50024408 0 0 0 25.375 28.15625 C 23.438756 28.657739 22 30.409214 22 32.5 L 22 69.5 C 22 71.979258 24.020742 74 26.5 74 L 61.5 74 A 0.50005 0.50005 0 0 0 62 73.5 L 62 69.5 C 62 67.561258 63.561258 66 65.5 66 L 76.5 66 A 0.50005 0.50005 0 0 0 77 65.5 L 77 32.5 C 77 30.020742 74.979258 28 72.5 28 L 40.5 28 z M 49.478516 35 A 1.0001 1.0001 0 0 0 49.039062 35.111328 L 35.539062 42.111328 A 1.0001 1.0001 0 0 0 35 43 L 35 58.5 A 1.0001 1.0001 0 0 0 35.513672 59.375 L 49.013672 66.875 A 1.0001 1.0001 0 0 0 49.986328 66.875 L 63.486328 59.375 A 1.0001 1.0001 0 0 0 64 58.5 L 64 43 A 1.0001 1.0001 0 0 0 63.460938 42.111328 L 49.960938 35.111328 A 1.0001 1.0001 0 0 0 49.478516 35 z M 49.5 37.126953 L 61.419922 43.306641 L 60.257812 43.951172 A 0.50006127 0.50006127 0 1 0 60.742188 44.826172 L 62 44.126953 L 62 57.912109 L 50 64.578125 L 50 50.794922 L 54.742188 48.158203 A 0.50005 0.50005 0 1 0 54.257812 47.285156 L 49.5 49.927734 L 37.580078 43.306641 L 49.5 37.126953 z M 37 44.126953 L 49 50.794922 L 49 64.578125 L 37 57.910156 L 37 44.126953 z M 58.480469 44.998047 A 0.50005 0.50005 0 0 0 58.257812 45.0625 L 57.257812 45.619141 A 0.50005 0.50005 0 1 0 57.742188 46.492188 L 58.742188 45.9375 A 0.50005 0.50005 0 0 0 58.480469 44.998047 z M 65.5 69 A 0.50005 0.50005 0 0 0 65 69.5 L 65 73.5 A 0.50005 0.50005 0 0 0 65.5 74 L 76.5 74 A 0.50005 0.50005 0 0 0 77 73.5 L 77 69.5 A 0.50005 0.50005 0 0 0 76.5 69 L 65.5 69 z M 66 70 L 76 70 L 76 73 L 66 73 L 66 70 z"/></svg>