<svg xmlns="http://www.w3.org/2000/svg" viewBox="0 0 40 40" width="500px" height="500px"><path fill="#dff0fe" d="M20,37.5c-9.649,0-17.5-7.851-17.5-17.5S10.351,2.5,20,2.5S37.5,10.351,37.5,20S29.649,37.5,20,37.5 z"/><path fill="#4788c7" d="M20,3c9.374,0,17,7.626,17,17s-7.626,17-17,17S3,29.374,3,20S10.626,3,20,3 M20,2 C10.059,2,2,10.059,2,20s8.059,18,18,18s18-8.059,18-18S29.941,2,20,2L20,2z"/><path fill="#98ccfd" d="M10,19h20c0.552,0,1,0.448,1,1v0c0,0.552-0.448,1-1,1H10c-0.552,0-1-0.448-1-1v0	C9,19.448,9.448,19,10,19z"/><path fill="#98ccfd" d="M21,10v20c0,0.552-0.448,1-1,1h0c-0.552,0-1-0.448-1-1V10c0-0.552,0.448-1,1-1h0	C20.552,9,21,9.448,21,10z"/></svg>