<svg fill="#000000" xmlns="http://www.w3.org/2000/svg" viewBox="0 0 64 64" width="300px" height="300px"><path d="M 9 6 C 7.347656 6 6 7.347656 6 9 L 6 53 C 6 54.652344 7.347656 56 9 56 L 39.003906 56 C 40.96875 60.691406 45.601563 64 51 64 C 58.167969 64 64 58.167969 64 51 C 64 46.410156 61.601563 42.375 58 40.0625 L 58 9 C 58 7.347656 56.652344 6 55 6 Z M 9 8 L 55 8 C 55.550781 8 56 8.449219 56 9 L 56 39.003906 C 54.460938 38.359375 52.769531 38 51 38 C 43.832031 38 38 43.832031 38 51 C 38 52.035156 38.132813 53.035156 38.363281 54 L 9 54 C 8.449219 54 8 53.550781 8 53 L 8 9 C 8 8.449219 8.449219 8 9 8 Z M 12 10 C 11.445313 10 11 10.449219 11 11 L 11 13 C 11 13.550781 11.445313 14 12 14 C 12.554688 14 13 13.550781 13 13 L 13 11 C 13 10.449219 12.554688 10 12 10 Z M 17 10 C 16.445313 10 16 10.449219 16 11 L 16 13 C 16 13.550781 16.445313 14 17 14 C 17.554688 14 18 13.550781 18 13 L 18 11 C 18 10.449219 17.554688 10 17 10 Z M 22 10 C 21.445313 10 21 10.449219 21 11 L 21 13 C 21 13.550781 21.445313 14 22 14 C 22.554688 14 23 13.550781 23 13 L 23 11 C 23 10.449219 22.554688 10 22 10 Z M 27 10 C 26.445313 10 26 10.449219 26 11 L 26 13 C 26 13.550781 26.445313 14 27 14 C 27.554688 14 28 13.550781 28 13 L 28 11 C 28 10.449219 27.554688 10 27 10 Z M 32 10 C 31.445313 10 31 10.449219 31 11 L 31 13 C 31 13.550781 31.445313 14 32 14 C 32.554688 14 33 13.550781 33 13 L 33 11 C 33 10.449219 32.554688 10 32 10 Z M 37 10 C 36.445313 10 36 10.449219 36 11 L 36 13 C 36 13.550781 36.445313 14 37 14 C 37.554688 14 38 13.550781 38 13 L 38 11 C 38 10.449219 37.554688 10 37 10 Z M 42 10 C 41.445313 10 41 10.449219 41 11 L 41 13 C 41 13.550781 41.445313 14 42 14 C 42.554688 14 43 13.550781 43 13 L 43 11 C 43 10.449219 42.554688 10 42 10 Z M 47 10 C 46.445313 10 46 10.449219 46 11 L 46 13 C 46 13.550781 46.445313 14 47 14 C 47.554688 14 48 13.550781 48 13 L 48 11 C 48 10.449219 47.554688 10 47 10 Z M 52 10 C 51.445313 10 51 10.449219 51 11 L 51 13 C 51 13.550781 51.445313 14 52 14 C 52.554688 14 53 13.550781 53 13 L 53 11 C 53 10.449219 52.554688 10 52 10 Z M 17 24 C 16.445313 24 16 24.449219 16 25 C 16 25.550781 16.445313 26 17 26 L 35 26 C 35.554688 26 36 25.550781 36 25 C 36 24.449219 35.554688 24 35 24 Z M 39 24 C 38.445313 24 38 24.449219 38 25 C 38 25.550781 38.445313 26 39 26 L 45 26 C 45.554688 26 46 25.550781 46 25 C 46 24.449219 45.554688 24 45 24 Z M 17 30 C 16.445313 30 16 30.449219 16 31 C 16 31.550781 16.445313 32 17 32 L 39 32 C 39.554688 32 40 31.550781 40 31 C 40 30.449219 39.554688 30 39 30 Z M 17 36 C 16.445313 36 16 36.449219 16 37 C 16 37.550781 16.445313 38 17 38 L 43 38 C 43.554688 38 44 37.550781 44 37 C 44 36.449219 43.554688 36 43 36 Z M 51 40 C 57.066406 40 62 44.933594 62 51 C 62 57.066406 57.066406 62 51 62 C 44.933594 62 40 57.066406 40 51 C 40 44.933594 44.933594 40 51 40 Z M 51 44 C 50.445313 44 50 44.449219 50 45 L 50 50 L 45 50 C 44.445313 50 44 50.449219 44 51 C 44 51.550781 44.445313 52 45 52 L 50 52 L 50 57 C 50 57.550781 50.445313 58 51 58 C 51.554688 58 52 57.550781 52 57 L 52 52 L 57 52 C 57.554688 52 58 51.550781 58 51 C 58 50.449219 57.554688 50 57 50 L 52 50 L 52 45 C 52 44.449219 51.554688 44 51 44 Z"/></svg>