<svg xmlns="http://www.w3.org/2000/svg" width="300" height="300" fill="#000" viewBox="0 0 24 24"><path d="M 3 2 L 3 22 L 13.544922 22 C 14.645082 23.223531 16.233751 24 18 24 C 21.301864 24 24 21.301864 24 18 C 24 15.039615 21.82834 12.572078 19 12.091797 L 19 2 L 3 2 z M 18 14 C 20.220984 14 22 15.779016 22 18 C 22 20.220984 20.220984 22 18 22 C 15.779016 22 14 20.220984 14 18 C 14 15.779016 15.779016 14 18 14 z M 17 15 L 17 17 L 15 17 L 15 19 L 17 19 L 17 21 L 19 21 L 19 19 L 21 19 L 21 17 L 19 17 L 19 15 L 17 15 z"/></svg>