<svg xmlns="http://www.w3.org/2000/svg" width="100" height="100" fill="#000" viewBox="0 0 50 50"><path d="M 20 4 A 1.0001 1.0001 0 0 0 19.292969 4.2929688 L 17.585938 6 L 9.3867188 6 C 7.5296852 6 5.9058511 7.2896965 5.4882812 9.0996094 L 3.2050781 19 L 2 19 C 0.9069372 19 0 19.906937 0 21 L 0 25 C 0 26.093063 0.9069372 27 2 27 L 2.4785156 27 L 7.8261719 45.544922 C 8.0711719 46.388922 8.985 47 10 47 L 30.267578 47 C 29.817578 46.375 29.425563 45.707 29.101562 45 L 10 45 C 9.856 45 9.7320469 44.928281 9.7480469 44.988281 L 4.5625 27 L 45.4375 27 L 44.855469 29.03125 C 45.483469 29.31025 46.084391 29.635672 46.650391 30.013672 L 47.519531 27 L 48 27 C 49.093063 27 50 26.093063 50 25 L 50 21 C 50 19.906937 49.093063 19 48 19 L 46.794922 19 L 44.509766 9.0996094 C 44.0923 7.2901497 42.470315 6 40.613281 6 L 32.414062 6 L 30.707031 4.2929688 A 1.0001 1.0001 0 0 0 30 4 L 20 4 z M 20.414062 6 L 29.585938 6 L 31.292969 7.7070312 A 1.0001 1.0001 0 0 0 32 8 L 40.613281 8 C 41.550248 8 42.351965 8.638241 42.5625 9.5507812 L 44.742188 19 L 5.2578125 19 L 7.4375 9.5507812 C 7.6479301 8.6386942 8.4497521 8 9.3867188 8 L 18 8 A 1.0001 1.0001 0 0 0 18.707031 7.7070312 L 20.414062 6 z M 2 21 L 48 21 L 48 25 L 2 25 L 2 21 z M 17 30 C 16.448 30 16 30.449 16 31 L 16 40.923828 C 16 41.474828 16.448 41.923828 17 41.923828 C 17.552 41.923828 18 41.474828 18 40.923828 L 18 31 C 18 30.449 17.552 30 17 30 z M 24.998047 30 C 24.446047 30 23.998047 30.449 23.998047 31 L 24 40.923828 C 24 41.474828 24.448 41.923828 25 41.923828 C 25.552 41.923828 26 41.474828 26 40.923828 L 25.998047 31 C 25.998047 30.449 25.550047 30 24.998047 30 z M 40 30 C 34.5 30 30 34.5 30 40 C 30 45.5 34.5 50 40 50 C 45.5 50 50 45.5 50 40 C 50 34.5 45.5 30 40 30 z M 40 32 C 44.4 32 48 35.6 48 40 C 48 44.4 44.4 48 40 48 C 35.6 48 32 44.4 32 40 C 32 35.6 35.6 32 40 32 z M 40 34.099609 C 39.4 34.099609 39 34.499609 39 35.099609 L 39 39 L 35.099609 39 C 34.499609 39 34.099609 39.4 34.099609 40 C 34.099609 40.6 34.499609 41 35.099609 41 L 39 41 L 39 44.900391 C 39 45.500391 39.4 45.900391 40 45.900391 C 40.6 45.900391 41 45.500391 41 44.900391 L 41 41 L 44.900391 41 C 45.500391 41 45.900391 40.6 45.900391 40 C 45.900391 39.4 45.500391 39 44.900391 39 L 41 39 L 41 35.099609 C 41 34.499609 40.6 34.099609 40 34.099609 z"/></svg>