<svg xmlns="http://www.w3.org/2000/svg" viewBox="0 0 64 64" width="100px" height="100px"><path fill="#ace3ff" d="M19 1H47V17H19z"/><path fill="#85cbf8" d="M19 17H47V63H19z"/><path fill="#72caaf" d="M47 21A12 12 0 1 0 47 45A12 12 0 1 0 47 21Z"/><path fill="#8d6c9f" d="M43 8a1 1 0 0 0 1-1V5a1 1 0 0 0-2 0V7A1 1 0 0 0 43 8zM23 18H43a1 1 0 0 0 0-2H23a1 1 0 0 0 0 2zM38 8a1 1 0 0 0 1-1V5a1 1 0 0 0-2 0V7A1 1 0 0 0 38 8zM33 8a1 1 0 0 0 1-1V5a1 1 0 0 0-2 0V7A1 1 0 0 0 33 8zM28 8a1 1 0 0 0 1-1V5a1 1 0 0 0-2 0V7A1 1 0 0 0 28 8zM23 8a1 1 0 0 0 1-1V5a1 1 0 0 0-2 0V7A1 1 0 0 0 23 8zM43 48H23a1 1 0 0 0 0 2H43a1 1 0 0 0 0-2z"/><path fill="#8d6c9f" d="M60,33A13,13,0,0,0,48,20.05V3a3,3,0,0,0-3-3H21a3,3,0,0,0-3,3V61a3,3,0,0,0,3,3H45a3,3,0,0,0,3-3V45.95A13,13,0,0,0,60,33ZM45,62H21a1,1,0,0,1-1-1V3a1,1,0,0,1,1-1H45a1,1,0,0,1,1,1V20.05A13,13,0,0,0,34.05,32H23a1,1,0,0,0,0,2H34.05A13,13,0,0,0,46,45.95V61A1,1,0,0,1,45,62Zm2-18A11,11,0,1,1,58,33,11,11,0,0,1,47,44Z"/><path fill="#faefde" d="M53,32H48V27a1,1,0,0,0-2,0v5H41a1,1,0,0,0,0,2h5v5a1,1,0,0,0,2,0V34h5a1,1,0,0,0,0-2Z"/></svg>