<svg xmlns="http://www.w3.org/2000/svg" viewBox="0 0 64 64" width="50px" height="50px"><path fill="#97e0bb" d="M32,4C16.536,4,4,16.536,4,32s12.536,28,28,28s28-12.536,28-28S47.464,4,32,4z"/><path fill="#72caaf" d="M32,4C16.536,4,4,16.536,4,32s12.536,28,28,28s28-12.536,28-28S47.464,4,32,4z M32,54 C19.85,54.002,9.998,44.154,9.996,32.004C9.995,19.853,19.843,10.002,31.993,10c5.651-0.001,11.085,2.173,15.177,6.07l0.68,0.67 c0.26,0.267,0.51,0.54,0.75,0.82c7.975,9.167,7.009,23.063-2.158,31.038C42.438,52.082,37.308,54.001,32,54z"/><path fill="#5dbc9d" d="M32,54c-12.15,0-22-9.85-22-22H8.34c-2.209-0.007-4.006,1.777-4.013,3.986 c-0.001,0.243,0.02,0.485,0.063,0.724c2.588,15.246,17.046,25.507,32.292,22.918C48.416,57.636,57.608,48.444,59.6,36.71 c0.392-2.174-1.052-4.254-3.226-4.646C56.138,32.021,55.899,32,55.66,32H54C54,44.15,44.15,54,32,54z"/><path fill="#8d6c9f" d="M32,3C15.984,3,3,15.984,3,32s12.984,29,29,29s29-12.984,29-29S48.016,3,32,3z M32,59 C17.088,59,5,46.912,5,32S17.088,5,32,5s27,12.088,27,27S46.912,59,32,59z"/><path fill="#8d6c9f" d="M32,51c-0.552,0-1,0.448-1,1v2c0,0.552,0.448,1,1,1s1-0.448,1-1v-2C33,51.448,32.552,51,32,51z M38,51.08c-0.162-0.528-0.721-0.825-1.249-0.663c-0.503,0.154-0.8,0.671-0.681,1.183l0.52,1.93 c0.146,0.536,0.699,0.851,1.235,0.705S38.676,53.536,38.53,53L38,51.08z M22.75,48.52c-0.478-0.277-1.09-0.114-1.367,0.364 c-0.001,0.002-0.002,0.004-0.003,0.006l-1,1.73c-0.296,0.466-0.159,1.084,0.307,1.38c0.466,0.296,1.084,0.159,1.38-0.307 c0.015-0.024,0.029-0.048,0.042-0.073l1-1.73c0.279-0.476,0.119-1.089-0.357-1.368C22.752,48.521,22.751,48.521,22.75,48.52z M42.62,48.89c-0.256-0.489-0.86-0.679-1.35-0.423s-0.679,0.86-0.423,1.35c0.013,0.025,0.027,0.049,0.042,0.073l1,1.73 c0.256,0.489,0.86,0.679,1.35,0.423s0.679-0.86,0.423-1.35c-0.013-0.025-0.027-0.049-0.042-0.073L42.62,48.89z M27.21,50.37 c-0.533-0.14-1.078,0.178-1.22,0.71L25.47,53c-0.162,0.528,0.135,1.087,0.663,1.249c0.528,0.162,1.087-0.135,1.249-0.663 c0.007-0.022,0.013-0.044,0.018-0.066l0.52-1.93C28.06,51.057,27.742,50.512,27.21,50.37z"/><path fill="#faefde" d="M42,31h-9v-9c0-0.552-0.448-1-1-1s-1,0.448-1,1v9h-9c-0.552,0-1,0.448-1,1s0.448,1,1,1h9v9 c0,0.552,0.448,1,1,1s1-0.448,1-1v-9h9c0.552,0,1-0.448,1-1S42.552,31,42,31z"/><path fill="#8d6c9f" d="M39.35,12.32c0.716,0.268,1.417,0.575,2.1,0.92c0.494,0.249,1.096,0.049,1.345-0.445 c0.249-0.494,0.049-1.096-0.445-1.345c-0.748-0.375-1.516-0.709-2.3-1c-0.505-0.223-1.096,0.006-1.319,0.511 c-0.223,0.505,0.006,1.096,0.511,1.319C39.278,12.295,39.314,12.309,39.35,12.32z M17.15,17.15c4.775-4.755,11.535-6.94,18.19-5.88 c0.552,0.088,1.072-0.288,1.16-0.84c0.088-0.552-0.288-1.072-0.84-1.16C23.122,7.231,11.305,15.743,9.267,28.281 c-1.19,7.317,1.22,14.759,6.473,19.989c0.419,0.359,1.051,0.31,1.41-0.109c0.321-0.374,0.321-0.927,0-1.301 c-8.204-8.198-8.209-21.494-0.012-29.698C17.142,17.158,17.146,17.154,17.15,17.15z M48.26,15.74 c-0.659-0.661-1.357-1.283-2.09-1.86c-0.459-0.307-1.08-0.184-1.387,0.275c-0.275,0.411-0.208,0.962,0.157,1.295 c0.67,0.528,1.308,1.096,1.91,1.7c8.201,8.201,8.202,21.497,0.002,29.698c-0.001,0.001-0.001,0.001-0.002,0.002 c-0.419,0.359-0.468,0.991-0.109,1.41s0.991,0.468,1.41,0.109c0.039-0.034,0.076-0.07,0.109-0.109 C57.237,39.279,57.237,24.721,48.26,15.74z"/></svg>