<svg fill="#000000" xmlns="http://www.w3.org/2000/svg" viewBox="0 0 16 16" width="500px" height="500px"><path d="M 5.4921875 1 C 4.6696561 1 3.9921875 1.6774686 3.9921875 2.5 L 3.9921875 12.5 C 3.9921875 13.322531 4.6696561 14 5.4921875 14 L 7.7539062 14 C 8.5626571 15.204592 9.9369771 16 11.492188 16 C 13.971547 16 15.992187 13.979359 15.992188 11.5 C 15.992188 9.0206409 13.971547 7 11.492188 7 C 11.320827 7 11.15865 7.0319923 10.992188 7.0507812 L 10.992188 2.5 C 10.992188 1.6774686 10.314719 1 9.4921875 1 L 5.4921875 1 z M 5.4921875 2 L 9.4921875 2 C 9.7736561 2 9.9921875 2.2185314 9.9921875 2.5 L 9.9921875 7.2753906 C 8.2505498 7.8970971 6.9921875 9.5487861 6.9921875 11.5 C 6.9921875 12.028145 7.0992976 12.528582 7.2675781 13 L 5.4921875 13 C 5.2107189 13 4.9921875 12.781469 4.9921875 12.5 L 4.9921875 2.5 C 4.9921875 2.2185314 5.2107189 2 5.4921875 2 z M 11.492188 8 C 13.431105 8 14.992187 9.5610811 14.992188 11.5 C 14.992188 13.438919 13.431106 15 11.492188 15 C 9.5532679 15 7.9921875 13.438919 7.9921875 11.5 C 7.9921875 9.5610809 9.5532679 7.9999998 11.492188 8 z M 10.992188 9 L 10.992188 11 L 8.9921875 11 L 8.9921875 12 L 10.992188 12 L 10.992188 14 L 11.992188 14 L 11.992188 12 L 13.992188 12 L 13.992188 11 L 11.992188 11 L 11.992188 9 L 10.992188 9 z"/></svg>