<svg xmlns="http://www.w3.org/2000/svg" width="50" height="50" viewBox="0 0 64 64"><linearGradient id="EUkoaFyiRICHbY9jNiTZZa" x1="30" x2="30" y1="38.088" y2="50.508" gradientUnits="userSpaceOnUse" spreadMethod="reflect"><stop offset="0" stop-color="#6dc7ff"/><stop offset="1" stop-color="#e6abff"/></linearGradient><path fill="url(#EUkoaFyiRICHbY9jNiTZZa)" d="M25 49L25 38 27 38 35 44 26 50z"/><linearGradient id="EUkoaFyiRICHbY9jNiTZZb" x1="32" x2="32" y1="15" y2="50.985" gradientUnits="userSpaceOnUse" spreadMethod="reflect"><stop offset="0" stop-color="#1a6dff"/><stop offset="1" stop-color="#c822ff"/></linearGradient><path fill="url(#EUkoaFyiRICHbY9jNiTZZb)" d="M32,15C15.178,15,2,21.589,2,30c0,6.838,8.993,12.69,22,14.456v4.295 c0,0.815,0.444,1.566,1.159,1.958c0.336,0.185,0.706,0.276,1.076,0.276c0.417,0,0.834-0.117,1.2-0.349l7.466-4.751 c0.648-0.413,1.035-1.117,1.035-1.885s-0.387-1.473-1.035-1.885l-7.466-4.751c-0.688-0.438-1.56-0.466-2.275-0.073 C24.444,37.683,24,38.434,24,39.249v3.19C12.334,40.792,4,35.673,4,30c0-7.047,12.822-13,28-13s28,5.953,28,13 c0,0.566-0.083,1.135-0.246,1.692l1.92,0.562C61.89,31.514,62,30.756,62,30C62,21.589,48.822,15,32,15z M26,39.249 c0-0.115,0.066-0.175,0.122-0.206c0.03-0.017,0.069-0.031,0.114-0.031c0.038,0,0.08,0.01,0.125,0.039l7.466,4.75 c0.09,0.058,0.109,0.14,0.109,0.198s-0.019,0.141-0.109,0.198l-7.465,4.751c-0.098,0.061-0.185,0.038-0.239,0.008 C26.066,48.926,26,48.866,26,48.751V39.249z"/><linearGradient id="EUkoaFyiRICHbY9jNiTZZc" x1="48.61" x2="48.61" y1="39.769" y2="43.121" gradientUnits="userSpaceOnUse" spreadMethod="reflect"><stop offset="0" stop-color="#1a6dff"/><stop offset="1" stop-color="#c822ff"/></linearGradient><path fill="url(#EUkoaFyiRICHbY9jNiTZZc)" d="M46.127,41.193l0.533,1.928c1.561-0.432,3.053-0.937,4.434-1.5l-0.756-1.852 C49.029,40.303,47.612,40.782,46.127,41.193z"/><linearGradient id="EUkoaFyiRICHbY9jNiTZZd" x1="56.682" x2="56.682" y1="35.147" y2="39.508" gradientUnits="userSpaceOnUse" spreadMethod="reflect"><stop offset="0" stop-color="#1a6dff"/><stop offset="1" stop-color="#c822ff"/></linearGradient><path fill="url(#EUkoaFyiRICHbY9jNiTZZd)" d="M54.272,37.803l1.045,1.705c1.492-0.915,2.762-1.918,3.776-2.983l-1.449-1.379 C56.75,36.086,55.615,36.979,54.272,37.803z"/><linearGradient id="EUkoaFyiRICHbY9jNiTZZe" x1="40.957" x2="40.957" y1="42.173" y2="44.458" gradientUnits="userSpaceOnUse" spreadMethod="reflect"><stop offset="0" stop-color="#1a6dff"/><stop offset="1" stop-color="#c822ff"/></linearGradient><path fill="url(#EUkoaFyiRICHbY9jNiTZZe)" d="M39.814,42.477l0.271,1.981c0.682-0.094,1.354-0.199,2.014-0.315l-0.348-1.97 C41.117,42.286,40.47,42.387,39.814,42.477z"/></svg>