<svg xmlns="http://www.w3.org/2000/svg" width="300" height="300" fill="#000" viewBox="0 0 50 50"><path d="M 6 5 C 5.8 5 5.6 5.0992187 5.5 5.1992188 L 14.400391 15 L 44.300781 15 L 33.599609 5.3007812 C 33.399609 5.1007812 33.200391 5 32.900391 5 L 6 5 z M 5 7.5996094 L 5 32.900391 C 5 33.100391 5.0992187 33.4 5.1992188 33.5 L 13 43.099609 L 13 16.400391 L 5 7.5996094 z M 15 17 L 15 45 L 36 45 L 36 25.199219 L 39.400391 28.599609 L 45 34.199219 L 45 17 L 15 17 z M 38 30 L 38 47 L 41.900391 43.099609 L 44.800781 50 L 47.599609 48.800781 L 44.699219 42 L 50 42 L 38 30 z"/></svg>