<svg xmlns="http://www.w3.org/2000/svg" viewBox="0 0 80 80" width="100px" height="100px"><path fill="#dcd5f2" d="M6,69.5c-1.9,0-3.5-1.6-3.5-3.5V22c0-1.9,1.6-3.5,3.5-3.5h15.3l5-8h27.4l5,8H74 c1.9,0,3.5,1.6,3.5,3.5v44c0,1.9-1.6,3.5-3.5,3.5H6z"/><path fill="#8b75a1" d="M53.4,11l4.7,7.5l0.3,0.5H59h15c0.8,0,1.6,0.3,2.1,0.9c0.6,0.6,0.9,1.3,0.9,2.1v44c0,1.7-1.3,3-3,3 H6c-0.8,0-1.5-0.3-2.1-0.9C3.3,67.5,3,66.8,3,66V22c0-1.7,1.3-3,3-3h15h0.6l0.3-0.5l4.7-7.5H53.4 M54,10H26l-5,8H6 c-2.2,0-4,1.8-4,4v44c0,2.2,1.8,4,4,4h68c2.2,0,4-1.8,4-4V22c0-2.2-1.8-4-4-4H59L54,10L54,10z"/><path fill="#fff9de" d="M61 25H71V30H61z"/><path fill="#c2e8ff" d="M40,59.5c-9.6,0-17.5-7.9-17.5-17.5S30.4,24.5,40,24.5S57.5,32.3,57.5,42S49.7,59.5,40,59.5z"/><path fill="#7496c4" d="M40,25c9.4,0,17,7.6,17,17s-7.6,17-17,17s-17-7.6-17-17S30.6,25,40,25 M40,24c-9.9,0-18,8.1-18,18 s8.1,18,18,18s18-8.1,18-18S49.9,24,40,24L40,24z"/><path fill="#fff" d="M31,42h-1c0-5.5,4.5-10,10-10v1C35,33,31,37,31,42z"/><path fill="#8b75a1" d="M8 16H18V19H8z"/><path fill="#bae0bd" d="M62,79.5c-9.6,0-17.5-7.9-17.5-17.5S52.4,44.5,62,44.5S79.5,52.4,79.5,62S71.6,79.5,62,79.5z"/><path fill="#5e9c76" d="M62,45c9.4,0,17,7.6,17,17s-7.6,17-17,17s-17-7.6-17-17S52.6,45,62,45 M62,44c-9.9,0-18,8.1-18,18 s8.1,18,18,18s18-8.1,18-18S71.9,44,62,44L62,44z"/><path fill="#fff" d="M60 52H64V72H60z"/><path fill="#fff" d="M52 60H72V64H52z"/></svg>