<svg xmlns="http://www.w3.org/2000/svg" width="50" height="50" fill="#000" viewBox="0 0 80 80"><path d="M 26.970703 17 A 1.0001 1.0001 0 0 0 26.310547 17.275391 C 19.643473 23.608461 12.977473 29.942461 6.3105469 36.275391 A 1.0002019 1.0002019 0 0 0 6.296875 36.289062 A 1.0001 1.0001 0 0 0 6.265625 36.322266 A 1.0002019 1.0002019 0 0 0 6.2265625 36.367188 A 1.0001 1.0001 0 0 0 6.2011719 36.398438 A 1.0002019 1.0002019 0 0 0 6.171875 36.441406 A 1.0001 1.0001 0 0 0 6.1445312 36.484375 A 1.0002019 1.0002019 0 0 0 6.0175781 36.810547 A 1.0001 1.0001 0 0 0 6.0078125 36.873047 A 1.0002019 1.0002019 0 0 0 6.0058594 36.902344 A 1.0001 1.0001 0 0 0 6 36.982422 A 1.0002019 1.0002019 0 0 0 6 36.994141 A 1.0001 1.0001 0 0 0 6 37 L 6 62.3125 C 6 63.703937 7.0071832 65 8.4355469 65 L 10 65 L 30 65 L 32.488281 65 C 34.018683 65 35.356143 63.981205 35.974609 62.525391 A 1.0001 1.0001 0 0 0 36.001953 62.455078 L 38.853516 54.074219 C 39.147742 53.394294 39.587853 53.183594 40.001953 53.183594 C 40.416053 53.183594 40.854211 53.394294 41.148438 54.074219 L 44 62.455078 A 1.0001 1.0001 0 0 0 44.025391 62.523438 C 44.64219 63.981324 45.982502 65 47.511719 65 L 50 65 L 70 65 L 71.564453 65 C 72.992817 65 74 63.703937 74 62.3125 L 74 37.03125 A 1.0002018 1.0002018 0 0 0 74 37 A 1.0001 1.0001 0 0 0 74 36.984375 A 1.0002018 1.0002018 0 0 0 73.980469 36.800781 A 1.0001 1.0001 0 0 0 73.974609 36.779297 A 1.0002018 1.0002018 0 0 0 73.921875 36.611328 A 1.0001 1.0001 0 0 0 73.914062 36.59375 A 1.0002018 1.0002018 0 0 0 73.826172 36.435547 A 1.0001 1.0001 0 0 0 73.785156 36.380859 A 1.0002018 1.0002018 0 0 0 73.783203 36.378906 A 1.0001 1.0001 0 0 0 73.71875 36.304688 A 1.0002018 1.0002018 0 0 0 73.697266 36.283203 A 1.0001 1.0001 0 0 0 73.689453 36.275391 C 67.022527 29.942461 60.356527 23.608461 53.689453 17.275391 A 1.0001 1.0001 0 0 0 52.958984 17 A 1.0001 1.0001 0 0 0 52 18 L 52 29 A 1.0001 1.0001 0 1 0 54 29 L 54 20.330078 C 59.498566 25.55343 64.997387 30.776599 70.496094 36 L 68 36 L 45.738281 36 L 41.623047 36 L 38.376953 36 L 34.259766 36 L 12 36 L 9.5039062 36 C 15.002613 30.776599 20.501434 25.55343 26 20.330078 L 26 29 A 1.0001 1.0001 0 1 0 28 29 L 28 18 A 1.0001 1.0001 0 0 0 26.970703 17 z M 8 38 L 12 38 L 34.259766 38 L 38.376953 38 L 41.623047 38 L 45.738281 38 L 68 38 L 72 38 L 72 62.3125 C 72 62.783063 71.720089 63 71.564453 63 L 70 63 L 50 63 L 47.511719 63 C 46.872343 63 46.227483 62.575352 45.875 61.753906 L 43.023438 53.371094 A 1.0001 1.0001 0 0 0 42.996094 53.300781 C 42.434312 51.980332 41.232911 51.183594 40.001953 51.183594 C 38.770995 51.183594 37.567641 51.980332 37.005859 53.300781 A 1.0001 1.0001 0 0 0 36.978516 53.371094 L 34.128906 61.75 C 33.77442 62.575397 33.131213 63 32.488281 63 L 30 63 L 10 63 L 8.4355469 63 C 8.2799105 63 8 62.783063 8 62.3125 L 8 38 z M 44.949219 42.96875 A 1.0001 1.0001 0 0 0 44.058594 44.335938 C 45.725566 49.00286 47.391566 53.668861 49.058594 58.335938 A 1.0001 1.0001 0 0 0 50 59 L 68 59 A 1.0001 1.0001 0 0 0 69 58 L 69 44 A 1.0001 1.0001 0 0 0 67.984375 42.986328 A 1.0001 1.0001 0 0 0 67 44 L 67 57 L 50.705078 57 C 49.117227 52.554434 47.529393 48.109854 45.941406 43.664062 A 1.0001 1.0001 0 0 0 45.921875 43.611328 A 1.0001 1.0001 0 0 0 44.949219 42.96875 z M 34.957031 42.970703 A 1.0001 1.0001 0 0 0 34.078125 43.611328 C 34.078125 43.611328 34.078125 43.613281 34.078125 43.613281 A 1.0001 1.0001 0 0 0 34.058594 43.664062 C 32.470607 48.109854 30.882773 52.554434 29.294922 57 L 13 57 L 13 44 A 1.0001 1.0001 0 0 0 11.984375 42.986328 A 1.0001 1.0001 0 0 0 11 44 L 11 58 A 1.0001 1.0001 0 0 0 12 59 L 30 59 A 1.0001 1.0001 0 0 0 30.941406 58.335938 C 32.608434 53.668861 34.274434 49.002861 35.941406 44.335938 A 1.0001 1.0001 0 0 0 34.957031 42.970703 z M 15 43 C 14.45 43 14 43.45 14 44 C 14 44.55 14.45 45 15 45 C 15.55 45 16 44.55 16 44 C 16 43.45 15.55 43 15 43 z M 19 43 C 18.45 43 18 43.45 18 44 C 18 44.55 18.45 45 19 45 C 19.55 45 20 44.55 20 44 C 20 43.45 19.55 43 19 43 z M 23 43 C 22.45 43 22 43.45 22 44 C 22 44.55 22.45 45 23 45 C 23.55 45 24 44.55 24 44 C 24 43.45 23.55 43 23 43 z M 27 43 C 26.45 43 26 43.45 26 44 C 26 44.55 26.45 45 27 45 C 27.55 45 28 44.55 28 44 C 28 43.45 27.55 43 27 43 z M 31 43 C 30.45 43 30 43.45 30 44 C 30 44.55 30.45 45 31 45 C 31.55 45 32 44.55 32 44 C 32 43.45 31.55 43 31 43 z M 49 43 C 48.45 43 48 43.45 48 44 C 48 44.55 48.45 45 49 45 C 49.55 45 50 44.55 50 44 C 50 43.45 49.55 43 49 43 z M 53 43 C 52.45 43 52 43.45 52 44 C 52 44.55 52.45 45 53 45 C 53.55 45 54 44.55 54 44 C 54 43.45 53.55 43 53 43 z M 57 43 C 56.45 43 56 43.45 56 44 C 56 44.55 56.45 45 57 45 C 57.55 45 58 44.55 58 44 C 58 43.45 57.55 43 57 43 z M 61 43 C 60.45 43 60 43.45 60 44 C 60 44.55 60.45 45 61 45 C 61.55 45 62 44.55 62 44 C 62 43.45 61.55 43 61 43 z M 65 43 C 64.45 43 64 43.45 64 44 C 64 44.55 64.45 45 65 45 C 65.55 45 66 44.55 66 44 C 66 43.45 65.55 43 65 43 z"/></svg>