<svg xmlns="http://www.w3.org/2000/svg" width="300" height="300" viewBox="0 0 64 64"><path fill="#85cbf8" d="M7 7H57V55H7z"/><path fill="#ace3ff" d="M54,12H10A3,3,0,0,1,7,9H7A2,2,0,0,1,9,7H55a2,2,0,0,1,2,2h0A3,3,0,0,1,54,12Z"/><path fill="#6fc6f0" d="M56,55H8a1,1,0,0,1-1-1H7a4,4,0,0,1,4-4H54a3,3,0,0,1,3,3v1A1,1,0,0,1,56,55Z"/><path fill="#72caaf" d="M51 39A12 12 0 1 0 51 63A12 12 0 1 0 51 39Z"/><path fill="#8d6c9f" d="M12 10a1 1 0 0 0-1 1v2a1 1 0 0 0 2 0V11A1 1 0 0 0 12 10zM17 14a1 1 0 0 0 1-1V11a1 1 0 0 0-2 0v2A1 1 0 0 0 17 14zM22 14a1 1 0 0 0 1-1V11a1 1 0 0 0-2 0v2A1 1 0 0 0 22 14zM27 14a1 1 0 0 0 1-1V11a1 1 0 0 0-2 0v2A1 1 0 0 0 27 14zM32 14a1 1 0 0 0 1-1V11a1 1 0 0 0-2 0v2A1 1 0 0 0 32 14zM37 14a1 1 0 0 0 1-1V11a1 1 0 0 0-2 0v2A1 1 0 0 0 37 14zM42 14a1 1 0 0 0 1-1V11a1 1 0 0 0-2 0v2A1 1 0 0 0 42 14zM47 14a1 1 0 0 0 1-1V11a1 1 0 0 0-2 0v2A1 1 0 0 0 47 14zM52 14a1 1 0 0 0 1-1V11a1 1 0 0 0-2 0v2A1 1 0 0 0 52 14z"/><path fill="#fff" d="M39 26h6a1 1 0 0 0 0-2H39a1 1 0 0 0 0 2zM17 26H35a1 1 0 0 0 0-2H17a1 1 0 0 0 0 2zM17 32H39a1 1 0 0 0 0-2H17a1 1 0 0 0 0 2zM44 37a1 1 0 0 0-1-1H17a1 1 0 0 0 0 2H43A1 1 0 0 0 44 37z"/><path fill="#8d6c9f" d="M58,40.06V9a3,3,0,0,0-3-3H9A3,3,0,0,0,6,9V53a3,3,0,0,0,3,3H39A13,13,0,1,0,58,40.06ZM9,54a1,1,0,0,1-1-1V9A1,1,0,0,1,9,8H55a1,1,0,0,1,1,1V39A13,13,0,0,0,38.36,54Zm42,8A11,11,0,1,1,62,51,11,11,0,0,1,51,62Z"/><path fill="#faefde" d="M57,50H52V45a1,1,0,0,0-2,0v5H45a1,1,0,0,0,0,2h5v5a1,1,0,0,0,2,0V52h5a1,1,0,0,0,0-2Z"/></svg>