<?xml version="1.0"?><svg fill="#000000" xmlns="http://www.w3.org/2000/svg" viewBox="0 0 80 80" width="50px" height="50px">    <path d="M 33.236328 12 C 32.101899 12 31.05989 12.643891 30.552734 13.658203 L 30.382812 14 L 19.341797 14 C 17.511154 14 15.90388 15.253531 15.460938 17.029297 L 12.21875 29.998047 L 12 29.998047 C 10.346 29.998047 9 31.344047 9 32.998047 L 9 36.998047 C 9 38.652047 10.346 39.998047 12 39.998047 L 12.390625 39.998047 L 15.777344 65.394531 C 15.975344 66.880531 17.254953 68 18.751953 68 L 45.429688 68 C 45.288688 67.345 45.178422 66.679 45.107422 66 L 18.751953 66 C 18.252953 66 17.825766 65.626812 17.759766 65.132812 L 14.398438 39.917969 A 1 1 0 0 0 15 39 A 1 1 0 0 0 14.144531 38.009766 L 14.142578 38 L 14 38 L 12 38 C 11.448 38 11 37.551 11 37 L 11 33 C 11 32.449 11.448 32 12 32 L 68 32 C 68.552 32 69 32.449 69 33 L 69 37 C 69 37.551 68.552 38 68 38 L 66 38 L 65.857422 38 L 65.855469 38.011719 A 1 1 0 0 0 65 39 A 1 1 0 0 0 65.601562 39.916016 L 64.917969 45.046875 C 65.591969 45.078875 66.256156 45.144141 66.910156 45.244141 L 67.609375 39.998047 L 68 39.998047 C 69.654 39.998047 71 38.652047 71 36.998047 L 71 32.998047 C 71 31.344047 69.654 29.998047 68 29.998047 L 67.78125 29.998047 L 64.539062 17.029297 C 64.094927 15.254084 62.488176 14 60.658203 14 L 49.617188 14 L 49.447266 13.658203 C 48.939758 12.643188 47.897598 12 46.763672 12 L 33.236328 12 z M 33.236328 14 L 46.763672 14 C 47.143745 14 47.487711 14.21175 47.658203 14.552734 L 48.382812 16 L 60.658203 16 C 61.58023 16 62.373792 16.620838 62.597656 17.515625 L 65.71875 29.998047 L 14.28125 29.998047 L 17.402344 17.513672 C 17.6254 16.619437 18.41844 16 19.341797 16 L 31.617188 16 L 32.341797 14.552734 C 32.512641 14.211046 32.854757 14 33.236328 14 z M 18 38 A 1 1 0 0 0 17 39 A 1 1 0 0 0 18 40 A 1 1 0 0 0 19 39 A 1 1 0 0 0 18 38 z M 22 38 A 1 1 0 0 0 21 39 A 1 1 0 0 0 22 40 A 1 1 0 0 0 23 39 A 1 1 0 0 0 22 38 z M 26 38 A 1 1 0 0 0 25 39 A 1 1 0 0 0 26 40 A 1 1 0 0 0 27 39 A 1 1 0 0 0 26 38 z M 30 38 A 1 1 0 0 0 29 39 A 1 1 0 0 0 30 40 A 1 1 0 0 0 31 39 A 1 1 0 0 0 30 38 z M 34 38 A 1 1 0 0 0 33 39 A 1 1 0 0 0 34 40 A 1 1 0 0 0 35 39 A 1 1 0 0 0 34 38 z M 38 38 A 1 1 0 0 0 37 39 A 1 1 0 0 0 38 40 A 1 1 0 0 0 39 39 A 1 1 0 0 0 38 38 z M 42 38 A 1 1 0 0 0 41 39 A 1 1 0 0 0 42 40 A 1 1 0 0 0 43 39 A 1 1 0 0 0 42 38 z M 46 38 A 1 1 0 0 0 45 39 A 1 1 0 0 0 46 40 A 1 1 0 0 0 47 39 A 1 1 0 0 0 46 38 z M 50 38 A 1 1 0 0 0 49 39 A 1 1 0 0 0 50 40 A 1 1 0 0 0 51 39 A 1 1 0 0 0 50 38 z M 54 38 A 1 1 0 0 0 53 39 A 1 1 0 0 0 54 40 A 1 1 0 0 0 55 39 A 1 1 0 0 0 54 38 z M 58 38 A 1 1 0 0 0 57 39 A 1 1 0 0 0 58 40 A 1 1 0 0 0 59 39 A 1 1 0 0 0 58 38 z M 62 38 A 1 1 0 0 0 61 39 A 1 1 0 0 0 62 40 A 1 1 0 0 0 63 39 A 1 1 0 0 0 62 38 z M 31 44 A 1 1 0 0 0 30 45 A 1 1 0 0 0 31 46 A 1 1 0 0 0 32 45 A 1 1 0 0 0 31 44 z M 37 44 A 1 1 0 0 0 36 45 A 1 1 0 0 0 37 46 A 1 1 0 0 0 38 45 A 1 1 0 0 0 37 44 z M 43 44 A 1 1 0 0 0 42 45 A 1 1 0 0 0 43 46 A 1 1 0 0 0 44 45 A 1 1 0 0 0 43 44 z M 49 44 A 1 1 0 0 0 48 45 A 1 1 0 0 0 49 46 A 1 1 0 0 0 50 45 A 1 1 0 0 0 49 44 z M 31 48 A 1 1 0 0 0 30 49 A 1 1 0 0 0 31 50 A 1 1 0 0 0 32 49 A 1 1 0 0 0 31 48 z M 37 48 A 1 1 0 0 0 36 49 A 1 1 0 0 0 37 50 A 1 1 0 0 0 38 49 A 1 1 0 0 0 37 48 z M 43 48 A 1 1 0 0 0 42 49 A 1 1 0 0 0 43 50 A 1 1 0 0 0 44 49 A 1 1 0 0 0 43 48 z M 49 48 A 1 1 0 0 0 48 49 A 1 1 0 0 0 49 50 A 1 1 0 0 0 50 49 A 1 1 0 0 0 49 48 z M 64 48 C 55.178 48 48 55.178 48 64 C 48 72.822 55.178 80 64 80 C 72.822 80 80 72.822 80 64 C 80 55.178 72.822 48 64 48 z M 64 50 C 71.72 50 78 56.28 78 64 C 78 71.72 71.72 78 64 78 C 56.28 78 50 71.72 50 64 C 50 56.28 56.28 50 64 50 z M 31 52 A 1 1 0 0 0 30 53 A 1 1 0 0 0 31 54 A 1 1 0 0 0 32 53 A 1 1 0 0 0 31 52 z M 37 52 A 1 1 0 0 0 36 53 A 1 1 0 0 0 37 54 A 1 1 0 0 0 38 53 A 1 1 0 0 0 37 52 z M 43 52 A 1 1 0 0 0 42 53 A 1 1 0 0 0 43 54 A 1 1 0 0 0 44 53 A 1 1 0 0 0 43 52 z M 31 56 A 1 1 0 0 0 30 57 A 1 1 0 0 0 31 58 A 1 1 0 0 0 32 57 A 1 1 0 0 0 31 56 z M 37 56 A 1 1 0 0 0 36 57 A 1 1 0 0 0 37 58 A 1 1 0 0 0 38 57 A 1 1 0 0 0 37 56 z M 43 56 A 1 1 0 0 0 42 57 A 1 1 0 0 0 43 58 A 1 1 0 0 0 44 57 A 1 1 0 0 0 43 56 z M 63 57 L 63 63 L 57 63 L 57 65 L 63 65 L 63 71 L 65 71 L 65 65 L 71 65 L 71 63 L 65 63 L 65 57 L 63 57 z M 31 60 A 1 1 0 0 0 30 61 A 1 1 0 0 0 31 62 A 1 1 0 0 0 32 61 A 1 1 0 0 0 31 60 z M 37 60 A 1 1 0 0 0 36 61 A 1 1 0 0 0 37 62 A 1 1 0 0 0 38 61 A 1 1 0 0 0 37 60 z M 43 60 A 1 1 0 0 0 42 61 A 1 1 0 0 0 43 62 A 1 1 0 0 0 44 61 A 1 1 0 0 0 43 60 z"/></svg>