<svg xmlns="http://www.w3.org/2000/svg" viewBox="0 0 64 64" width="50px" height="50px"><path fill="#85cbf8" d="M32,19c-7.18,0-13,5.82-13,13s5.82,13,13,13s13-5.82,13-13S39.18,19,32,19z M32,39 c-3.866,0-7-3.134-7-7c0-3.866,3.134-7,7-7s7,3.134,7,7C39,35.866,35.866,39,32,39z"/><path fill="#7bbeeb" d="M39,32c0,3.866-3.134,7-7,7s-7-3.134-7-7h-6c0,7.18,5.82,13,13,13s13-5.82,13-13H39z"/><path fill="#9fddff" d="M25.031 31.391c.292-3.379 2.981-6.069 6.36-6.36l4.657-4.657C35.069 20.138 34.052 20 33 20c-.58 0-1.147.051-1.707.125L20.125 31.288C20.051 31.85 20 32.418 20 33c0 1.052.138 2.069.374 3.048L25.031 31.391zM45 32c0-1.93-.432-3.755-1.186-5.402l-4.842 4.842C38.986 31.625 39 31.811 39 32c0 3.866-3.134 7-7 7-.189 0-.375-.014-.56-.028l-4.842 4.842C28.245 44.568 30.07 45 32 45 39.18 45 45 39.18 45 32zM41.655 23.316c-.812-.726-1.713-1.353-2.69-1.859l-4.141 4.141c1.33.588 2.439 1.578 3.18 2.816l4.309-4.308C42.104 23.834 41.884 23.571 41.655 23.316zM24.103 42.31l4.309-4.308c-1.237-.741-2.227-1.849-2.814-3.178l-4.141 4.141c.506.977 1.133 1.878 1.859 2.69C23.57 41.883 23.832 42.102 24.103 42.31z"/><path fill="#8d6c9f" d="M32 3c-.552 0-1 .448-1 1v2c0 .552.448 1 1 1s1-.448 1-1V4C33 3.448 32.552 3 32 3zM32 57c-.552 0-1 .448-1 1v2c0 .552.448 1 1 1s1-.448 1-1v-2C33 57.448 32.552 57 32 57zM3 32c0 .552.448 1 1 1h2c.552 0 1-.448 1-1s-.448-1-1-1H4C3.448 31 3 31.448 3 32zM57 32c0 .552.448 1 1 1h2c.552 0 1-.448 1-1s-.448-1-1-1h-2C57.448 31 57 31.448 57 32zM11.494 11.494c-.391.391-.391 1.024 0 1.414l1.414 1.414c.391.391 1.024.391 1.414 0s.391-1.024 0-1.414l-1.414-1.414C12.518 11.103 11.884 11.103 11.494 11.494zM49.678 49.678c-.391.391-.391 1.024 0 1.414l1.414 1.414c.391.391 1.024.391 1.414 0 .391-.391.391-1.024 0-1.414l-1.414-1.414C50.701 49.287 50.068 49.287 49.678 49.678zM11.494 52.506c.391.391 1.024.391 1.414 0l1.414-1.414c.391-.391.391-1.024 0-1.414s-1.024-.391-1.414 0l-1.414 1.414C11.103 51.482 11.103 52.116 11.494 52.506zM49.678 14.322c.391.391 1.024.391 1.414 0l1.414-1.414c.391-.391.391-1.024 0-1.414-.391-.391-1.024-.391-1.414 0l-1.414 1.414C49.287 13.299 49.287 13.932 49.678 14.322z"/><path fill="#8d6c9f" d="M11.494 11.494c-.391.391-.391 1.024 0 1.414l1.414 1.414c.391.391 1.024.391 1.414 0s.391-1.024 0-1.414l-1.414-1.414C12.518 11.103 11.884 11.103 11.494 11.494zM49.678 49.678c-.391.391-.391 1.024 0 1.414l1.414 1.414c.391.391 1.024.391 1.414 0 .391-.391.391-1.024 0-1.414l-1.414-1.414C50.701 49.287 50.068 49.287 49.678 49.678zM11.494 52.506c.391.391 1.024.391 1.414 0l1.414-1.414c.391-.391.391-1.024 0-1.414s-1.024-.391-1.414 0l-1.414 1.414C11.103 51.482 11.103 52.116 11.494 52.506zM49.678 14.322c.391.391 1.024.391 1.414 0l1.414-1.414c.391-.391.391-1.024 0-1.414-.391-.391-1.024-.391-1.414 0l-1.414 1.414C49.287 13.299 49.287 13.932 49.678 14.322zM15.87 7.9c-.459.307-.582.928-.275 1.387l1.112 1.662c.307.459.928.582 1.387.275.459-.307.582-.928.275-1.387l-1.112-1.662C16.95 7.716 16.329 7.592 15.87 7.9zM45.905 52.776c-.459.307-.582.928-.275 1.387l1.112 1.662c.307.459.928.582 1.387.275.459-.307.582-.928.275-1.387l-1.112-1.662C46.985 52.592 46.364 52.469 45.905 52.776zM7.9 48.13c.307.459.928.582 1.387.275l1.662-1.112c.459-.307.582-.928.275-1.387-.307-.459-.928-.582-1.387-.275l-1.662 1.112C7.716 47.05 7.592 47.671 7.9 48.13zM52.776 18.095c.307.459.928.582 1.387.275l1.662-1.112c.459-.307.582-.928.275-1.387s-.928-.582-1.387-.275l-1.662 1.112C52.592 17.015 52.469 17.636 52.776 18.095zM20.643 5.316c-.508.216-.745.804-.529 1.312l.783 1.84c.216.508.804.745 1.312.529.508-.216.745-.804.529-1.312l-.783-1.84C21.739 5.337 21.151 5.1 20.643 5.316zM41.79 55.003c-.508.216-.745.804-.529 1.312l.783 1.84c.216.508.804.745 1.312.529.508-.216.745-.804.529-1.312l-.783-1.84C42.886 55.024 42.298 54.787 41.79 55.003zM5.316 43.357c.216.508.804.745 1.312.529l1.84-.783c.508-.216.745-.804.529-1.312-.216-.508-.804-.745-1.312-.529l-1.84.783C5.337 42.261 5.1 42.849 5.316 43.357zM55.003 22.21c.216.508.804.745 1.312.529l1.84-.783c.508-.216.745-.804.529-1.312-.216-.508-.804-.745-1.312-.529l-1.84.783C55.024 21.114 54.787 21.702 55.003 22.21z"/><g><path fill="#8d6c9f" d="M26.259 3.574c-.541.109-.892.637-.782 1.178l.396 1.96c.109.541.637.892 1.178.782.541-.109.892-.637.782-1.178l-.396-1.96C27.328 3.815 26.801 3.465 26.259 3.574zM36.949 56.505c-.541.109-.892.637-.782 1.178l.396 1.96c.109.541.637.892 1.178.782.541-.109.892-.637.782-1.178l-.396-1.96C38.018 56.746 37.49 56.396 36.949 56.505zM3.574 37.741c.109.541.637.892 1.178.782l1.96-.396c.541-.109.892-.637.782-1.178s-.637-.892-1.178-.782l-1.96.396C3.815 36.672 3.465 37.2 3.574 37.741zM56.505 27.051c.109.541.637.892 1.178.782l1.96-.396c.541-.109.892-.637.782-1.178s-.637-.892-1.178-.782l-1.96.396C56.746 25.982 56.396 26.51 56.505 27.051z"/></g><g><path fill="#8d6c9f" d="M37.686 3.563c-.542-.108-1.068.243-1.177.785l-.392 1.961c-.108.542.243 1.068.785 1.177.542.108 1.068-.243 1.177-.785L38.47 4.74C38.579 4.198 38.227 3.671 37.686 3.563zM27.098 56.515c-.542-.108-1.068.243-1.177.785L25.53 59.26c-.108.542.243 1.068.785 1.177.542.108 1.068-.243 1.177-.785l.392-1.961C27.991 57.15 27.64 56.623 27.098 56.515zM3.563 26.314c-.108.542.243 1.068.785 1.177l1.961.392c.542.108 1.068-.243 1.177-.785s-.243-1.068-.785-1.177L4.74 25.53C4.198 25.421 3.671 25.773 3.563 26.314zM56.515 36.902c-.108.542.243 1.068.785 1.177l1.961.392c.542.108 1.068-.243 1.177-.785.108-.542-.243-1.068-.785-1.177l-1.961-.392C57.15 36.009 56.623 36.36 56.515 36.902z"/></g><g><path fill="#8d6c9f" d="M42.885 5.12c-.512-.207-1.095.04-1.302.552l-.751 1.854c-.207.512.04 1.095.552 1.302.512.207 1.095-.04 1.302-.552l.751-1.854C43.644 5.911 43.397 5.328 42.885 5.12zM22.616 55.172c-.512-.207-1.095.04-1.302.552l-.751 1.854c-.207.512.04 1.095.552 1.302.512.207 1.095-.04 1.302-.552l.751-1.854C23.375 55.962 23.128 55.379 22.616 55.172zM5.12 21.115c-.207.512.04 1.095.552 1.302l1.854.751c.512.207 1.095-.04 1.302-.552.207-.512-.04-1.095-.552-1.302l-1.854-.751C5.911 20.356 5.328 20.603 5.12 21.115zM55.172 41.384c-.207.512.04 1.095.552 1.302l1.854.751c.512.207 1.095-.04 1.302-.552.207-.512-.04-1.095-.552-1.302l-1.854-.751C55.962 40.625 55.379 40.872 55.172 41.384z"/></g><g><path fill="#8d6c9f" d="M48.083 7.868c-.46-.306-1.08-.182-1.387.278L45.587 9.81c-.306.46-.182 1.08.278 1.387s1.08.182 1.387-.278l1.109-1.664C48.667 8.796 48.543 8.175 48.083 7.868zM18.135 52.803c-.46-.306-1.08-.182-1.387.278l-1.109 1.664c-.306.46-.182 1.08.278 1.387.46.306 1.08.182 1.387-.278l1.109-1.664C18.719 53.73 18.595 53.109 18.135 52.803zM7.868 15.917c-.306.46-.182 1.08.278 1.387l1.664 1.109c.46.306 1.08.182 1.387-.278s.182-1.08-.278-1.387l-1.664-1.109C8.796 15.333 8.175 15.457 7.868 15.917zM52.803 45.865c-.306.46-.182 1.08.278 1.387l1.664 1.109c.46.306 1.08.182 1.387-.278s.182-1.08-.278-1.387l-1.664-1.109C53.73 45.281 53.109 45.405 52.803 45.865z"/></g><path fill="#fff8f8" d="M41 28.01L41.92 28.51 41 29 40.5 29.92 40 29 39.09 28.51 40 28.01 40.5 27.09zM29 40L29.92 40.5 29 40.99 28.5 41.91 28 40.99 27.09 40.5 28 40 28.5 39.08z"/><path fill="none" stroke="#8d6c9f" stroke-miterlimit="10" stroke-width="2" d="M32 12A20 20 0 1 0 32 52A20 20 0 1 0 32 12Z"/><path fill="none" stroke="#8d6c9f" stroke-miterlimit="10" stroke-width="2" d="M32 20A12 12 0 1 0 32 44A12 12 0 1 0 32 20Z"/><path fill="none" stroke="#8d6c9f" stroke-miterlimit="10" stroke-width="2" d="M32 26A6 6 0 1 0 32 38A6 6 0 1 0 32 26Z"/></svg>