<svg xmlns="http://www.w3.org/2000/svg" width="300" height="300" viewBox="0 0 48 48"><path fill="#6d4c41" d="M25.6,20.9L3,31.2v2.2L25,44l21-11.7V30L25.6,20.9z"/><path fill="#ff8a80" d="M24,25.9V39l17-9V17.8L24,25.9z"/><path fill="#f44336" d="M22.9,18.6l-7.3-6.2l-5.9,0.4L7.9,18H9v14l15,7V26h1L22.9,18.6z"/><path fill="#ff8a80" d="M32,5l-16.3,5.4l7.4,7.6L40,11L32,5z"/><path fill="#f44336" d="M40,11l-16.4,6.7L26,27.9l16.4-7.1L40,11z"/><path fill="#ff8a80" d="M11.8,24.7l8.5,3.4v8.6l-8.3-4.2L11.8,24.7z"/><path fill="#b71c1c" d="M10.8,13.6l4.3-1l6.8,6.3l2.1,8.2l2,0.8l-2.4-10.2l-7.9-7.2L9,12l-2,8l2,0.8L10.8,13.6z"/><path fill="#4e342e" d="M14,16l4,1.8v5.9l-4-1.9V16z"/><path fill="#b71c1c" d="M32,5l-16.3,5.4L9,12l16-5L32,5z"/><path fill="#fff" d="M15,26.6h1v7.7h-1V26.6z"/><path fill="#fff" d="M9.9 28.8H16.9V29.8H9.9z" transform="rotate(-57.364 13.391 29.345)"/><path fill="#fff" d="M17.5 26.6H18.5V36.8H17.5z" transform="rotate(-23.523 18.039 31.682)"/><path fill="#fff" d="M12,25.5l8,3.4V36l-8-3.7V25.5 M11,24v8.9l10,4.7v-9.3L11,24z"/><path fill="#8d6e63" d="M46,30L25,41.5l0,2.5l21-11.7V30z"/><path fill="#573b33" d="M3,33.4L25,44l0-2.5L3,31.2V33.4z"/></svg>