<svg xmlns="http://www.w3.org/2000/svg" width="500" height="500" viewBox="0 0 64 64"><linearGradient id="FLF83fhfgP_A80HBbtJ3Ka" x1="31" x2="31" y1="12.216" y2="50.307" gradientUnits="userSpaceOnUse" spreadMethod="reflect"><stop offset="0" stop-color="#6dc7ff"/><stop offset="1" stop-color="#e6abff"/></linearGradient><path fill="url(#FLF83fhfgP_A80HBbtJ3Ka)" d="M49.543,26.209l-4.275-2.468C44.705,23.416,44,23.823,44,24.474V26h-8v-8.59L30.59,12H12 v18.117L17.395,36H26v8h-1.526c-0.651,0-1.058,0.705-0.733,1.269l2.468,4.275c0.351,0.609,1.23,0.609,1.581,0l2.468-4.275 C30.584,44.705,30.177,44,29.526,44H28v-8h8v-8h8v1.526c0,0.651,0.705,1.058,1.269,0.733l4.275-2.468 C50.152,27.439,50.152,26.561,49.543,26.209z"/><linearGradient id="FLF83fhfgP_A80HBbtJ3Kb" x1="32" x2="32" y1="7" y2="57" gradientUnits="userSpaceOnUse" spreadMethod="reflect"><stop offset="0" stop-color="#1a6dff"/><stop offset="1" stop-color="#c822ff"/></linearGradient><path fill="url(#FLF83fhfgP_A80HBbtJ3Kb)" d="M47.414,7H7v39.384L16.555,57H57V16.586L47.414,7z M53.586,16H17.414l-7-7h36.172L53.586,16z M9,10.414l7,7v35.98l-7-7.778V10.414z M18,55V18h37v29h-4v2h4v2h-6v2h6v2H18z"/></svg>