<?xml version="1.0"?><svg fill="#000000" xmlns="http://www.w3.org/2000/svg" viewBox="0 0 24 24" width="100px" height="100px">    <path d="M 9 2 C 7.897 2 7 2.897 7 4 L 7 20 C 7 21.103 7.897 22 9 22 L 15 22 C 16.103 22 17 21.103 17 20 L 17 19 C 16.305 19 15.634 18.894078 15 18.705078 L 15 20 L 9 20 L 9 4 L 15 4 L 15 5.2949219 C 15.634 5.1059219 16.305 5 17 5 L 17 4 C 17 2.897 16.103 2 15 2 L 9 2 z M 17 7 C 14.239 7 12 9.239 12 12 C 12 14.761 14.239 17 17 17 C 19.761 17 22 14.761 22 12 C 22 9.239 19.761 7 17 7 z M 16 9 L 18 9 L 18 11 L 20 11 L 20 13 L 18 13 L 18 15 L 16 15 L 16 13 L 14 13 L 14 11 L 16 11 L 16 9 z"/></svg>