<svg xmlns="http://www.w3.org/2000/svg" viewBox="0 0 100 100" width="100px" height="100px"><path fill="#f1bc19" d="M77 12A1 1 0 1 0 77 14A1 1 0 1 0 77 12Z"/><path fill="#e4e4f9" d="M50 13A37 37 0 1 0 50 87A37 37 0 1 0 50 13Z"/><path fill="#f1bc19" d="M83 11A4 4 0 1 0 83 19A4 4 0 1 0 83 11Z"/><path fill="#8889b9" d="M87 22A2 2 0 1 0 87 26A2 2 0 1 0 87 22Z"/><path fill="#fbcd59" d="M81 74A2 2 0 1 0 81 78 2 2 0 1 0 81 74zM15 59A4 4 0 1 0 15 67 4 4 0 1 0 15 59z"/><path fill="#8889b9" d="M25 85A2 2 0 1 0 25 89A2 2 0 1 0 25 85Z"/><path fill="#fff" d="M18.5 49A2.5 2.5 0 1 0 18.5 54 2.5 2.5 0 1 0 18.5 49zM79.5 32A1.5 1.5 0 1 0 79.5 35 1.5 1.5 0 1 0 79.5 32z"/><g><path fill="#f69272" d="M50 25.625A24.25 24.25 0 1 0 50 74.125A24.25 24.25 0 1 0 50 25.625Z"/><path fill="#472b29" d="M50,74.825c-13.758,0-24.95-11.193-24.95-24.95S36.242,24.925,50,24.925s24.95,11.193,24.95,24.95 S63.758,74.825,50,74.825z M50,26.325c-12.985,0-23.55,10.564-23.55,23.55S37.015,73.425,50,73.425s23.55-10.564,23.55-23.55 S62.985,26.325,50,26.325z"/></g><g><path fill="#472b29" d="M69.424,44.625c-0.214,0-0.411-0.138-0.478-0.353c-0.089-0.287-0.184-0.572-0.284-0.854 c-0.391-1.091-0.886-2.157-1.47-3.169c-0.139-0.239-0.057-0.545,0.183-0.683c0.235-0.138,0.544-0.058,0.683,0.183 c0.615,1.063,1.135,2.184,1.546,3.332c0.106,0.295,0.205,0.594,0.298,0.896c0.082,0.264-0.066,0.544-0.33,0.625 C69.522,44.618,69.473,44.625,69.424,44.625z"/></g><g><path fill="#472b29" d="M50,70.75c-11.511,0-20.875-9.336-20.875-20.813S38.489,29.125,50,29.125 c5.975,0,11.674,2.56,15.636,7.023c0.3,0.337,0.588,0.685,0.865,1.042c0.17,0.218,0.13,0.532-0.088,0.702 c-0.217,0.168-0.531,0.129-0.701-0.088c-0.264-0.339-0.538-0.669-0.823-0.99c-3.773-4.25-9.199-6.688-14.889-6.688 c-10.959,0-19.875,8.888-19.875,19.813S39.041,69.75,50,69.75s19.875-8.888,19.875-19.813c0-0.993-0.074-1.993-0.222-2.973 c-0.041-0.273,0.146-0.528,0.42-0.569c0.273-0.035,0.527,0.147,0.568,0.42c0.155,1.028,0.233,2.079,0.233,3.121 C70.875,61.414,61.511,70.75,50,70.75z"/></g><g><path fill="#fdfcee" d="M59.66,48.264h-7.986v-8.681c0-0.959-0.777-1.736-1.736-1.736c-0.959,0-1.736,0.777-1.736,1.736 v8.681h-7.986c-0.959,0-1.736,0.777-1.736,1.736s0.777,1.736,1.736,1.736h7.986v8.681c0,0.959,0.777,1.736,1.736,1.736 c0.959,0,1.736-0.777,1.736-1.736v-8.681h7.986c0.959,0,1.736-0.777,1.736-1.736S60.619,48.264,59.66,48.264z"/><path fill="#472b29" d="M49.938,62.653c-1.233,0-2.236-1.003-2.236-2.236v-8.18h-7.486c-1.232,0-2.235-1.003-2.235-2.236 s1.003-2.236,2.235-2.236h7.486v-8.18c0-1.233,1.003-2.236,2.236-2.236s2.236,1.003,2.236,2.236v8.18h7.486 c1.232,0,2.235,1.003,2.235,2.236s-1.003,2.236-2.235,2.236h-7.486v8.18C52.174,61.649,51.171,62.653,49.938,62.653z M40.215,48.764c-0.682,0-1.235,0.555-1.235,1.236s0.554,1.236,1.235,1.236h8.486v9.18c0,0.682,0.555,1.236,1.236,1.236 s1.236-0.555,1.236-1.236v-9.18h8.486c0.682,0,1.235-0.555,1.235-1.236s-0.554-1.236-1.235-1.236h-8.486v-9.18 c0-0.682-0.555-1.236-1.236-1.236s-1.236,0.555-1.236,1.236v9.18H40.215z"/></g></svg>