<svg xmlns="http://www.w3.org/2000/svg" width="300" height="300" fill="#000" viewBox="0 0 16 16"><path d="M 8 4 C 5.875 4 3.949219 4.339844 2.511719 4.914063 C 1.792969 5.203125 1.191406 5.546875 0.746094 5.96875 C 0.300781 6.390625 0 6.917969 0 7.5 C 0 8.082031 0.300781 8.609375 0.746094 9.03125 C 1.191406 9.453125 1.792969 9.796875 2.511719 10.085938 C 3.71875 10.570313 5.277344 10.871094 7 10.957031 L 7 13 L 9.5 10.5 L 7 8 L 7 9.960938 C 5.390625 9.867188 3.941406 9.578125 2.882813 9.15625 C 2.246094 8.902344 1.746094 8.601563 1.433594 8.304688 C 1.121094 8.007813 1 7.746094 1 7.5 C 1 7.253906 1.121094 6.992188 1.433594 6.695313 C 1.746094 6.398438 2.246094 6.097656 2.882813 5.84375 C 4.160156 5.332031 5.984375 5 8 5 C 10.015625 5 11.839844 5.332031 13.117188 5.84375 C 13.753906 6.097656 14.253906 6.398438 14.566406 6.695313 C 14.878906 6.992188 15 7.253906 15 7.5 C 15 7.839844 14.746094 8.242188 14.121094 8.648438 C 13.554688 9.015625 12.71875 9.34375 11.722656 9.582031 C 11.488281 9.640625 11.257813 9.699219 11 9.742188 L 11 10.761719 C 11.210938 10.726563 11.402344 10.679688 11.601563 10.636719 L 11.605469 10.640625 C 11.6875 10.625 11.761719 10.601563 11.84375 10.582031 C 11.894531 10.570313 11.949219 10.5625 12 10.550781 L 12 10.546875 C 13.058594 10.289063 13.972656 9.9375 14.664063 9.488281 C 15.445313 8.980469 16 8.308594 16 7.5 C 16 6.917969 15.699219 6.390625 15.253906 5.96875 C 14.808594 5.546875 14.207031 5.203125 13.488281 4.914063 C 12.050781 4.339844 10.125 4 8 4 Z"/></svg>