<svg fill="#000000" xmlns="http://www.w3.org/2000/svg" viewBox="0 0 32 32" width="100px" height="100px"><path d="M 16 4 C 9.3844276 4 4 9.3844276 4 16 C 4 22.615572 9.3844276 28 16 28 C 22.615572 28 28 22.615572 28 16 C 28 9.3844276 22.615572 4 16 4 z M 16 6 C 21.534692 6 26 10.465308 26 16 C 26 21.534692 21.534692 26 16 26 C 10.465308 26 6 21.534692 6 16 C 6 10.465308 10.465308 6 16 6 z M 11 11 C 9.3550302 11 8 12.35503 8 14 L 8 14.5 L 10 14.5 L 10 14 C 10 13.43497 10.43497 13 11 13 L 13 13 C 13.56503 13 14 13.43497 14 14 C 14 14.56503 13.56503 15 13 15 L 11 15 L 11 17 L 13.039062 17 C 13.592413 17 14 17.398427 14 17.939453 L 14 17.990234 C 14 18.568628 13.564427 19 13 19 L 11 19 C 10.43497 19 10 18.56503 10 18 L 10 17.5 L 8 17.5 L 8 18 C 8 19.64497 9.3550302 21 11 21 L 13 21 C 14.645573 21 16 19.639842 16 17.990234 L 16 17.939453 C 16 17.122515 15.656568 16.384378 15.111328 15.851562 C 15.300208 15.592288 15.461213 15.306425 15.583984 15 L 16 15 L 16 14 C 16 12.35503 14.64497 11 13 11 L 11 11 z M 17 11 L 17 21 L 20 21 C 22.197334 21 24 19.197334 24 17 L 24 15 C 24 12.802666 22.197334 11 20 11 L 17 11 z M 19 13 L 20 13 C 21.116666 13 22 13.883334 22 15 L 22 17 C 22 18.116666 21.116666 19 20 19 L 19 19 L 19 13 z"/></svg>