<svg xmlns="http://www.w3.org/2000/svg" viewBox="0 0 48 48" width="300px" height="300px"><path fill="#BBDEFB" d="M8 13H40V40H8z"/><path fill="#455A64" d="M40,11H8c-1.104,0-2,0.896-2,2v28c0,1.104,0.896,2,2,2h32c1.104,0,2-0.896,2-2V13C42,11.896,41.104,11,40,11z M39,39H9V14h30V39z"/><path fill="#455A64" d="M40,39H23c2,0.001,3-5.999,6-6h11V39z"/><path fill="#76FF03" d="M29 36H39V39H29z"/><path fill="#FF3D00" d="M24 33L17 30 17 21 24 24z"/><path fill="#A52005" d="M24 33L31 30 31 21 24 24z"/><path fill="#DD2C00" d="M17 21L24 18 31 21 24 24z"/><path fill="#263238" d="M10 11H20V14H10z"/><path fill="#37474F" d="M14 15.211H16V19.211H14zM31.984 11h7.043c-2.607-.581-5.941-1.728-9.182-2.844C25.448 6.642 21.295 5.211 19 5.211c-3.955 0-5 2.617-5 4h2c0-.082.034-2 3-2 1.96 0 6.146 1.441 10.194 2.835C30.122 10.367 31.058 10.688 31.984 11z"/><path fill="#2196F3" d="M12,16.002c0,0.551,0.447,1,1,1h4c0.553,0,1-0.449,1-1V10c0-0.553-0.447-1-1-1h-4c-0.553,0-1,0.447-1,1V16.002z"/></svg>