<svg fill="#000000" xmlns="http://www.w3.org/2000/svg" viewBox="0 0 32 32" width="100px" height="100px"><path d="M 10 2 L 10 30 L 18.71875 30 C 20.128906 31.238281 21.984375 32 24 32 C 28.40625 32 32 28.40625 32 24 C 32 19.59375 28.40625 16 24 16 C 23.304688 16 22.644531 16.113281 22 16.28125 L 22 2 Z M 12 4 L 20 4 L 20 17.09375 C 17.613281 18.480469 16 21.050781 16 24 C 16 25.457031 16.40625 26.820313 17.09375 28 L 12 28 Z M 24 18 C 27.324219 18 30 20.675781 30 24 C 30 27.324219 27.324219 30 24 30 C 20.675781 30 18 27.324219 18 24 C 18 20.675781 20.675781 18 24 18 Z M 23 20 L 23 23 L 20 23 L 20 25 L 23 25 L 23 28 L 25 28 L 25 25 L 28 25 L 28 23 L 25 23 L 25 20 Z"/></svg>