<svg xmlns="http://www.w3.org/2000/svg" width="300" height="300" fill="#000" viewBox="0 0 50 50"><path d="M 24 2.8496094 L 5 13.669922 L 5 25.919922 L 7 24.779297 L 7 14.830078 L 24 5.1503906 L 41 14.830078 L 41 16.068359 C 37.063388 16.563724 34 19.932697 34 24 C 34 28.067303 37.063388 31.436276 41 31.931641 L 41 34.169922 L 24 43.849609 L 21.800781 42.599609 L 20.990234 43.050781 L 19.769531 43.740234 L 24 46.150391 L 43 35.330078 L 43 31.931641 C 46.936612 31.436276 50 28.067303 50 24 C 50 19.932697 46.936612 16.563724 43 16.068359 L 43 13.669922 L 24 2.8496094 z M 42 18 C 45.325556 18 48 20.674446 48 24 C 48 27.325554 45.325556 30 42 30 C 38.674444 30 36 27.325554 36 24 C 36 20.674446 38.674444 18 42 18 z M 41 20 L 41 23 L 38 23 L 38 25 L 41 25 L 41 28 L 43 28 L 43 25 L 46 25 L 46 23 L 43 23 L 43 20 L 41 20 z M 10.5 25.080078 L 7 27.070312 L 5 28.210938 L 1 30.490234 L 1 41.310547 L 10.5 46.720703 L 17.75 42.589844 L 19.769531 41.439453 L 20 41.310547 L 20 30.490234 L 10.5 25.080078 z M 10.5 27.380859 L 18 31.660156 L 18 40.150391 L 17.75 40.289062 L 15.730469 41.439453 L 10.5 44.419922 L 3 40.150391 L 3 31.660156 L 5 30.519531 L 7 29.380859 L 10.5 27.380859 z"/></svg>