<svg xmlns="http://www.w3.org/2000/svg" width="50" height="50" viewBox="0 0 64 64"><radialGradient id="iMGHwTaRyuwGpBeKEqTFYa" cx="32.5" cy="10629.5" r="30.516" gradientTransform="translate(0 -10598)" gradientUnits="userSpaceOnUse"><stop offset="0" stop-color="#f4e9c3"/><stop offset=".219" stop-color="#f8eecd"/><stop offset=".644" stop-color="#fdf4dc"/><stop offset="1" stop-color="#fff6e1"/></radialGradient><path fill="url(#iMGHwTaRyuwGpBeKEqTFYa)" d="M59,20h1.5c2.168,0,3.892-1.998,3.422-4.243C63.58,14.122,62.056,13,60.385,13H53	c-1.105,0-2-0.895-2-2s0.895-2,2-2h3.385c1.67,0,3.195-1.122,3.537-2.757C60.392,3.998,58.668,2,56.5,2H34.006H32.5h-24	C6.575,2,5,3.575,5,5.5S6.575,9,8.5,9H10c1.105,0,2,0.895,2,2s-0.895,2-2,2H4.615c-1.67,0-3.195,1.122-3.537,2.757	C0.608,18.002,2.332,20,4.5,20H12v12H4.615c-1.67,0-3.195,1.122-3.537,2.757C0.608,37.002,2.332,39,4.5,39H5c1.105,0,2,0.895,2,2	s-0.895,2-2,2H4.5c-2.168,0-3.892,1.998-3.422,4.243C1.42,48.878,2.945,50,4.615,50H10c1.105,0,2,0.895,2,2s-0.895,2-2,2H8.615	c-1.67,0-3.195,1.122-3.537,2.757C4.608,59.002,6.332,61,8.5,61h22.494H32.5h23c1.925,0,3.5-1.575,3.5-3.5S57.425,54,55.5,54H55	c-1.105,0-2-0.895-2-2s0.895-2,2-2h4.385c1.67,0,3.195-1.122,3.537-2.757C63.392,44.998,61.668,43,59.5,43H53V31h6.385	c1.67,0,3.195-1.122,3.537-2.757C63.392,25.998,61.668,24,59.5,24H59c-1.105,0-2-0.895-2-2S57.895,20,59,20z"/><linearGradient id="iMGHwTaRyuwGpBeKEqTFYb" x1="32" x2="32" y1="48.83" y2="-25.525" gradientTransform="matrix(1 0 0 -1 0 66)" gradientUnits="userSpaceOnUse"><stop offset="0" stop-color="#dff9ff"/><stop offset="0" stop-color="#dff9ff"/><stop offset=".173" stop-color="#d8f8ff"/><stop offset=".423" stop-color="#c5f4ff"/><stop offset=".72" stop-color="#a5eeff"/><stop offset="1" stop-color="#81e7ff"/></linearGradient><rect width="40" height="32" x="12" y="15" fill="url(#iMGHwTaRyuwGpBeKEqTFYb)"/><linearGradient id="iMGHwTaRyuwGpBeKEqTFYc" x1="32" x2="32" y1="-2.234" y2="63.686" gradientTransform="matrix(1 0 0 -1 0 66)" gradientUnits="userSpaceOnUse"><stop offset="0" stop-color="#155cde"/><stop offset=".122" stop-color="#196ae1"/><stop offset=".509" stop-color="#2493e9"/><stop offset=".815" stop-color="#2bacee"/><stop offset="1" stop-color="#2eb5f0"/></linearGradient><path fill="url(#iMGHwTaRyuwGpBeKEqTFYc)" d="M49,9H15c-3.309,0-6,2.691-6,6v34c0,3.309,2.691,6,6,6h34c3.309,0,6-2.691,6-6V15	C55,11.691,52.309,9,49,9z M13,47V15h38v32H13z"/><linearGradient id="iMGHwTaRyuwGpBeKEqTFYd" x1="31.967" x2="32.137" y1="23.038" y2="10.017" gradientTransform="matrix(1 0 0 -1 0 66)" gradientUnits="userSpaceOnUse"><stop offset="0" stop-color="#40daf2"/><stop offset="1" stop-color="#1ba7dd"/></linearGradient><rect width="38" height="3" x="13" y="44" fill="url(#iMGHwTaRyuwGpBeKEqTFYd)"/><linearGradient id="iMGHwTaRyuwGpBeKEqTFYe" x1="35.5" x2="35.5" y1="21.766" y2="36.832" gradientTransform="matrix(1 0 0 -1 0 66)" gradientUnits="userSpaceOnUse"><stop offset="0" stop-color="#ff9f77"/><stop offset="1" stop-color="#ffb57a"/></linearGradient><path fill="url(#iMGHwTaRyuwGpBeKEqTFYe)" d="M40.134,44h-9.268C29.835,44,29,43.165,29,42.134V30.866C29,29.835,29.835,29,30.866,29h9.268	C41.165,29,42,29.835,42,30.866v11.268C42,43.165,41.165,44,40.134,44z"/><linearGradient id="iMGHwTaRyuwGpBeKEqTFYf" x1="28.5" x2="28.5" y1="21.766" y2="36.832" gradientTransform="matrix(1 0 0 -1 0 66)" gradientUnits="userSpaceOnUse"><stop offset="0" stop-color="#ffc665"/><stop offset="1" stop-color="#ffc491"/></linearGradient><path fill="url(#iMGHwTaRyuwGpBeKEqTFYf)" d="M34.125,29h-11.25C21.839,29,21,29.839,21,30.875v11.25C21,43.161,21.839,44,22.875,44h11.25	C35.161,44,36,43.161,36,42.125v-11.25C36,29.839,35.161,29,34.125,29z"/><linearGradient id="iMGHwTaRyuwGpBeKEqTFYg" x1="31.967" x2="32.137" y1="47.038" y2="34.017" gradientTransform="matrix(1 0 0 -1 0 66)" gradientUnits="userSpaceOnUse"><stop offset="0" stop-color="#40daf2"/><stop offset="1" stop-color="#1ba7dd"/></linearGradient><rect width="38" height="3" x="13" y="20" fill="url(#iMGHwTaRyuwGpBeKEqTFYg)"/><linearGradient id="iMGHwTaRyuwGpBeKEqTFYh" x1="32" x2="32" y1="38.969" y2="40.978" gradientTransform="matrix(1 0 0 -1 0 66)" gradientUnits="userSpaceOnUse"><stop offset="0" stop-color="#76818b"/><stop offset="1" stop-color="#7f8a96"/></linearGradient><path fill="url(#iMGHwTaRyuwGpBeKEqTFYh)" d="M33,25h-2v1c0,0.552,0.448,1,1,1l0,0c0.552,0,1-0.448,1-1V25z"/><linearGradient id="iMGHwTaRyuwGpBeKEqTFYi" x1="32.582" x2="31.369" y1="32.603" y2="58.455" gradientTransform="matrix(1 0 0 -1 0 66)" gradientUnits="userSpaceOnUse"><stop offset="0" stop-color="#155cde"/><stop offset=".122" stop-color="#196ae1"/><stop offset=".509" stop-color="#2493e9"/><stop offset=".815" stop-color="#2bacee"/><stop offset="1" stop-color="#2eb5f0"/></linearGradient><path fill="url(#iMGHwTaRyuwGpBeKEqTFYi)" d="M30,17h4c0.552,0,1,0.448,1,1v6c0,0.552-0.448,1-1,1h-4c-0.552,0-1-0.448-1-1v-6	C29,17.448,29.448,17,30,17z"/></svg>