<svg xmlns="http://www.w3.org/2000/svg" viewBox="0 0 100 100" width="100px" height="100px"><path fill="#c7ede6" d="M88.704,55.674c0.3-0.616,0.566-1.264,0.796-1.943c2.633-7.77-1.349-17.078-9.733-19.325C78.86,23.023,70.86,15.214,61.826,13.881c-10.341-1.525-19.814,5.044-22.966,15.485c-3.799-1.346-7.501-1.182-10.99,0.857c-1.583,0.732-3.031,1.812-4.33,3.233c-1.907,2.086-3.147,4.719-3.652,7.495c-0.748,0.118-1.483,0.236-2.176,0.484c-4.04,1.449-6.589,4.431-7.288,8.923c-0.435,2.797,0.443,5.587,0.933,6.714c1.935,4.455,6.422,6.98,10.981,6.312c0.227-0.033,0.557,0.069,0.752,0.233c0.241,7.12,3.698,13.417,8.884,17.014c8.321,5.772,19.027,3.994,25.781-3.921c2.894,2.96,6.338,4.398,10.384,3.876c4.023-0.519,7.147-2.739,9.426-6.349c1.053,0.283,2.051,0.691,3.083,0.804c4.042,0.442,7.324-1.165,9.732-4.8c0.922-1.391,1.793-3.194,1.793-6.354C92.174,60.631,90.881,57.664,88.704,55.674z"/><path fill="#fff" d="M18.368 47.711H8.338c-.276 0-.5-.224-.5-.5s.224-.5.5-.5h10.03c.276 0 .5.224.5.5S18.645 47.711 18.368 47.711zM21.25 47.711h-1.446c-.276 0-.5-.224-.5-.5s.224-.5.5-.5h1.446c.276 0 .5.224.5.5S21.526 47.711 21.25 47.711zM25.304 47.711h-2.546c-.276 0-.5-.224-.5-.5s.224-.5.5-.5h2.546c.276 0 .5.224.5.5S25.581 47.711 25.304 47.711zM25.304 49.575h-9.617c-.276 0-.5-.224-.5-.5s.224-.5.5-.5h9.617c.276 0 .5.224.5.5S25.581 49.575 25.304 49.575zM13.956 49.575h-.58c-.276 0-.5-.224-.5-.5s.224-.5.5-.5h.58c.276 0 .5.224.5.5S14.233 49.575 13.956 49.575zM11.579 49.575h-1.456c-.276 0-.5-.224-.5-.5s.224-.5.5-.5h1.456c.276 0 .5.224.5.5S11.856 49.575 11.579 49.575zM20.716 45.845h-5.028c-.276 0-.5-.224-.5-.5s.224-.5.5-.5h5.028c.276 0 .5.224.5.5S20.992 45.845 20.716 45.845zM20.716 43.98h-1.257c-.276 0-.5-.224-.5-.5s.224-.5.5-.5h1.257c.276 0 .5.224.5.5S20.992 43.98 20.716 43.98zM17.447 51.44h-1.759c-.276 0-.5-.224-.5-.5s.224-.5.5-.5h1.759c.276 0 .5.224.5.5S17.723 51.44 17.447 51.44zM71.547 21.433H61.516c-.276 0-.5-.224-.5-.5s.224-.5.5-.5h10.031c.276 0 .5.224.5.5S71.823 21.433 71.547 21.433zM74.427 21.433h-1.446c-.276 0-.5-.224-.5-.5s.224-.5.5-.5h1.446c.276 0 .5.224.5.5S74.704 21.433 74.427 21.433zM78.482 21.433h-2.546c-.276 0-.5-.224-.5-.5s.224-.5.5-.5h2.546c.276 0 .5.224.5.5S78.759 21.433 78.482 21.433zM76.456 17.704H66.84c-.276 0-.5-.224-.5-.5s.224-.5.5-.5h9.616c.276 0 .5.224.5.5S76.733 17.704 76.456 17.704zM65.109 17.704h-.58c-.276 0-.5-.224-.5-.5s.224-.5.5-.5h.58c.276 0 .5.224.5.5S65.385 17.704 65.109 17.704zM62.732 17.704h-1.457c-.276 0-.5-.224-.5-.5s.224-.5.5-.5h1.457c.276 0 .5.224.5.5S63.008 17.704 62.732 17.704zM73.893 19.568h-5.027c-.276 0-.5-.224-.5-.5s.224-.5.5-.5h5.027c.276 0 .5.224.5.5S74.17 19.568 73.893 19.568z"/><path fill="#fff" d="M73.893 17.704h-1.257c-.276 0-.5-.224-.5-.5s.224-.5.5-.5h1.257c.276 0 .5.224.5.5S74.17 17.704 73.893 17.704zM67.41 19.568h-1.758c-.276 0-.5-.224-.5-.5s.224-.5.5-.5h1.758c.276 0 .5.224.5.5S67.687 19.568 67.41 19.568z"/><path fill="#fdfcef" d="M45.114,62.763c0,0,10.309,0,10.371,0c2.381,0,4.31-1.93,4.31-4.311c0-2.077-1.469-3.81-3.425-4.219c0.023-0.182,0.038-0.366,0.038-0.554c0-2.466-1.999-4.465-4.464-4.465c-1.456,0-2.745,0.7-3.56,1.778c-0.208-2.745-2.66-4.862-5.528-4.511c-2.097,0.257-3.832,1.878-4.218,3.955c-0.124,0.666-0.111,1.313,0.012,1.92c-0.562-0.606-1.363-0.987-2.254-0.987c-1.632,0-2.963,1.27-3.069,2.875c-0.741-0.164-1.547-0.153-2.396,0.165c-1.622,0.609-2.778,2.137-2.845,3.868c-0.096,2.459,1.869,4.483,4.307,4.483c0.185,0,0.836,0,0.986,0h8.951"/><path fill="#472b29" d="M55.486,63.263H45.114c-0.276,0-0.5-0.224-0.5-0.5s0.224-0.5,0.5-0.5h10.372c2.101,0,3.811-1.709,3.811-3.811c0-1.794-1.273-3.362-3.027-3.729c-0.254-0.053-0.426-0.293-0.394-0.551c0.02-0.161,0.034-0.324,0.034-0.492c0-2.187-1.778-3.965-3.964-3.965c-1.25,0-2.402,0.576-3.161,1.58c-0.125,0.166-0.339,0.237-0.54,0.178c-0.199-0.059-0.342-0.234-0.357-0.441c-0.091-1.198-0.678-2.324-1.61-3.088c-0.942-0.772-2.137-1.111-3.359-0.965c-1.884,0.23-3.442,1.69-3.788,3.551c-0.108,0.581-0.104,1.163,0.011,1.729c0.045,0.22-0.062,0.441-0.261,0.544c-0.199,0.105-0.442,0.06-0.595-0.104c-0.496-0.533-1.167-0.827-1.888-0.827c-1.353,0-2.481,1.058-2.569,2.408c-0.01,0.146-0.082,0.28-0.199,0.367c-0.117,0.089-0.267,0.119-0.408,0.089c-0.731-0.163-1.421-0.115-2.113,0.145c-1.449,0.545-2.462,1.919-2.521,3.42c-0.041,1.048,0.336,2.041,1.061,2.794c0.725,0.755,1.701,1.17,2.747,1.17h9.937c0.276,0,0.5,0.224,0.5,0.5s-0.224,0.5-0.5,0.5h-9.937c-1.321,0-2.552-0.524-3.468-1.477c-0.915-0.951-1.391-2.204-1.339-3.526c0.074-1.897,1.348-3.633,3.169-4.316c0.698-0.262,1.42-0.352,2.15-0.273c0.358-1.607,1.798-2.8,3.49-2.8c0.58,0,1.148,0.144,1.656,0.41c0.005-0.311,0.037-0.622,0.094-0.934c0.425-2.285,2.337-4.078,4.649-4.36c1.496-0.185,2.959,0.236,4.114,1.184c0.87,0.713,1.495,1.683,1.792,2.754c0.893-0.777,2.031-1.209,3.243-1.209c2.737,0,4.964,2.228,4.964,4.965c0,0.059-0.001,0.118-0.004,0.176c1.989,0.615,3.391,2.482,3.391,4.597C60.296,61.105,58.138,63.263,55.486,63.263z"/><path fill="#fdfcef" d="M57.231,54.739c-1.498-0.706-3.231-0.206-3.87,1.117c-0.079,0.164-0.138,0.334-0.177,0.506"/><path fill="#472b29" d="M53.184,56.612c-0.018,0-0.037-0.002-0.055-0.006c-0.135-0.031-0.219-0.165-0.188-0.3c0.043-0.191,0.109-0.38,0.196-0.559c0.697-1.444,2.58-2,4.202-1.235c0.125,0.06,0.179,0.208,0.12,0.333s-0.208,0.177-0.333,0.12c-1.374-0.647-2.96-0.198-3.539,0.999c-0.07,0.146-0.123,0.298-0.159,0.453C53.401,56.533,53.298,56.612,53.184,56.612z"/><path fill="#fdfcef" d="M76.868,51.551c1.883,0,3.517,0,3.54,0c2.11,0,3.821-1.674,3.821-3.739c0-1.802-1.302-3.305-3.035-3.66c0.02-0.158,0.034-0.317,0.034-0.48c0-2.139-1.772-3.873-3.957-3.873c-1.29,0-2.433,0.607-3.155,1.543c-0.185-2.381-2.358-4.218-4.9-3.913c-1.859,0.223-3.397,1.629-3.739,3.431c-0.11,0.578-0.098,1.139,0.011,1.665c-0.498-0.525-1.208-0.856-1.998-0.856c-1.446,0-2.627,1.102-2.72,2.494c-0.657-0.142-1.371-0.133-2.123,0.143c-1.438,0.528-2.462,1.853-2.522,3.356c-0.085,2.133,1.657,3.889,3.818,3.889c0.164,0,0.741,0,0.874,0h7.934 M70.391,51.551h0.36"/><path fill="#472b29" d="M80.408,52.05h-3.54c-0.276,0-0.5-0.224-0.5-0.5s0.224-0.5,0.5-0.5h3.54c1.831,0,3.321-1.453,3.321-3.239c0-1.524-1.108-2.857-2.636-3.169c-0.256-0.053-0.429-0.294-0.396-0.553c0.018-0.138,0.03-0.276,0.03-0.418c0-1.86-1.551-3.373-3.457-3.373c-1.092,0-2.098,0.491-2.759,1.349c-0.126,0.164-0.34,0.231-0.539,0.174c-0.198-0.06-0.339-0.234-0.355-0.44c-0.079-1.02-0.565-1.943-1.369-2.604c-0.829-0.68-1.881-0.981-2.973-0.854c-1.646,0.197-3.006,1.442-3.307,3.029c-0.094,0.494-0.09,0.988,0.01,1.47c0.045,0.219-0.06,0.441-0.258,0.545c-0.197,0.103-0.44,0.063-0.595-0.1c-0.429-0.451-1.009-0.7-1.635-0.7c-1.169,0-2.145,0.891-2.221,2.028c-0.01,0.146-0.082,0.279-0.198,0.366c-0.116,0.087-0.263,0.121-0.407,0.089c-0.636-0.136-1.24-0.097-1.845,0.125c-1.262,0.463-2.144,1.631-2.195,2.905c-0.035,0.875,0.283,1.708,0.895,2.345c0.635,0.66,1.496,1.024,2.423,1.024h8.808c0.276,0,0.5,0.224,0.5,0.5s-0.224,0.5-0.5,0.5h-8.808c-1.185,0-2.331-0.485-3.145-1.332c-0.802-0.835-1.218-1.928-1.172-3.076c0.067-1.675,1.212-3.204,2.849-3.806c0.611-0.225,1.24-0.309,1.88-0.244c0.344-1.396,1.629-2.425,3.135-2.425c0.493,0,0.976,0.113,1.414,0.323c0.009-0.241,0.036-0.483,0.082-0.725c0.381-2.01,2.097-3.587,4.171-3.835c1.365-0.17,2.685,0.218,3.726,1.072c0.748,0.613,1.278,1.409,1.546,2.302c0.791-0.648,1.785-1.007,2.842-1.007c2.458,0,4.457,1.962,4.457,4.373c0,0.034,0,0.068-0.001,0.103c1.764,0.555,3.003,2.188,3.003,4.037C84.729,50.149,82.791,52.05,80.408,52.05z M70.75,52.05h-0.359c-0.276,0-0.5-0.224-0.5-0.5s0.224-0.5,0.5-0.5h0.359c0.276,0,0.5,0.224,0.5,0.5S71.027,52.05,70.75,52.05z"/><path fill="#472b29" d="M78.701 46.248c-.018 0-.036-.002-.054-.006-.135-.03-.22-.164-.19-.299.037-.165.094-.327.169-.479.604-1.224 2.273-1.675 3.722-1.006.125.058.18.206.122.331-.058.126-.206.18-.332.122-1.202-.556-2.578-.209-3.063.774-.058.116-.101.24-.129.367C78.919 46.169 78.816 46.248 78.701 46.248zM73.542 52.05h-1.107c-.276 0-.5-.224-.5-.5s.224-.5.5-.5h1.107c.276 0 .5.224.5.5S73.819 52.05 73.542 52.05z"/><path fill="#ee3e54" d="M68.508 74.62L56.702 66.182 44.895 74.62 44.895 30.429 68.508 30.429z"/><path fill="#472b29" d="M68.508,75.321c-0.144,0-0.286-0.044-0.407-0.131l-11.399-8.147L45.302,75.19c-0.213,0.152-0.495,0.174-0.728,0.053c-0.233-0.119-0.38-0.359-0.38-0.622V30.429c0-0.387,0.313-0.7,0.7-0.7h23.613c0.387,0,0.7,0.313,0.7,0.7v44.191c0,0.263-0.147,0.503-0.38,0.622C68.727,75.295,68.617,75.321,68.508,75.321z M56.701,65.482c0.143,0,0.285,0.044,0.407,0.131l10.699,7.647V31.129H45.595V73.26l10.699-7.647C56.416,65.526,56.559,65.482,56.701,65.482z"/><path fill="#fbcd59" d="M56.626 36.507000000000005A7.898 7.898 0 1 0 56.626 52.303A7.898 7.898 0 1 0 56.626 36.507000000000005Z"/><path fill="#472b29" d="M56.626,52.703c-4.575,0-8.297-3.723-8.297-8.298s3.722-8.298,8.297-8.298s8.297,3.723,8.297,8.298S61.201,52.703,56.626,52.703z M56.626,36.908c-4.134,0-7.498,3.363-7.498,7.497s3.363,7.497,7.498,7.497s7.498-3.363,7.498-7.497S60.76,36.908,56.626,36.908z"/><path fill="#472b29" d="M62.808 46.789c-.019 0-.039-.003-.057-.01-.088-.032-.135-.129-.103-.218.248-.69.373-1.416.373-2.156 0-3.526-2.869-6.395-6.395-6.395-.094 0-.17-.076-.17-.17s.076-.17.17-.17c3.713 0 6.734 3.021 6.734 6.734 0 .779-.132 1.543-.393 2.271C62.943 46.746 62.878 46.789 62.808 46.789zM52.609 49.767c-.037 0-.073-.012-.104-.035-1.661-1.287-2.613-3.229-2.613-5.327 0-2.227 1.099-4.307 2.94-5.564.077-.052.183-.034.236.045.053.077.033.184-.045.236-1.748 1.193-2.792 3.169-2.792 5.283 0 1.992.905 3.836 2.481 5.058.074.058.088.165.03.239C52.71 49.745 52.66 49.767 52.609 49.767zM53.711 50.458c-.025 0-.051-.006-.076-.018-.173-.086-.343-.18-.507-.279-.08-.049-.105-.154-.057-.234.048-.079.154-.104.233-.057.156.096.317.184.481.266.084.042.118.144.077.228C53.833 50.423 53.773 50.458 53.711 50.458zM56.626 51.139c-.681 0-1.354-.102-2-.303-.09-.027-.14-.123-.112-.213.028-.089.122-.145.212-.111.613.19 1.252.287 1.899.287.094 0 .17.076.17.17S56.72 51.139 56.626 51.139z"/><path fill="#f1bc19" d="M56.782 40.236L58.099 42.904 61.044 43.332 58.913 45.409 59.416 48.342 56.782 46.957 54.148 48.342 54.651 45.409 52.52 43.332 55.465 42.904z"/><path fill="#472b29" d="M59.416 48.592c-.04 0-.08-.01-.116-.028l-2.518-1.324-2.518 1.324c-.084.043-.186.038-.263-.02-.077-.056-.116-.15-.1-.244l.481-2.805-2.037-1.985c-.068-.066-.093-.165-.063-.256s.108-.156.202-.17l2.815-.409 1.259-2.55c.084-.172.364-.172.448 0l1.259 2.55 2.815.409c.094.014.172.079.202.17s.005.189-.063.256l-2.037 1.985.481 2.805c.016.094-.022.188-.1.244C59.519 48.577 59.468 48.592 59.416 48.592zM56.782 46.708c.04 0 .08.01.116.028l2.186 1.149-.417-2.435c-.014-.081.013-.164.072-.221l1.768-1.724-2.444-.355c-.081-.012-.152-.062-.188-.137L56.782 40.8l-1.093 2.214c-.036.074-.107.125-.188.137l-2.444.355 1.768 1.724c.059.057.086.14.072.221l-.417 2.435 2.186-1.149C56.702 46.717 56.742 46.708 56.782 46.708zM46.596 60.91c-.138 0-.25-.112-.25-.25v-28.98c0-.138.112-.25.25-.25s.25.112.25.25v28.98C46.846 60.797 46.734 60.91 46.596 60.91zM46.596 70.727c-.166 0-.3-.134-.3-.3v-1c0-.166.134-.3.3-.3s.3.134.3.3v1C46.896 70.593 46.761 70.727 46.596 70.727zM46.596 68.727c-.166 0-.3-.134-.3-.3v-1c0-.166.134-.3.3-.3s.3.134.3.3v1C46.896 68.593 46.761 68.727 46.596 68.727zM46.596 66.727c-.166 0-.3-.134-.3-.3v-1c0-.166.134-.3.3-.3s.3.134.3.3v1C46.896 66.593 46.761 66.727 46.596 66.727zM46.596 64.727c-.166 0-.3-.134-.3-.3v-1c0-.166.134-.3.3-.3s.3.134.3.3v1C46.896 64.593 46.761 64.727 46.596 64.727zM46.596 62.727c-.166 0-.3-.134-.3-.3v-1c0-.166.134-.3.3-.3s.3.134.3.3v1C46.896 62.593 46.761 62.727 46.596 62.727zM66.807 71.6c-.138 0-.25-.112-.25-.25V42.37c0-.138.112-.25.25-.25s.25.112.25.25v28.98C67.057 71.488 66.946 71.6 66.807 71.6zM66.807 41.902c-.166 0-.3-.134-.3-.3v-1c0-.166.134-.3.3-.3s.3.134.3.3v1C67.107 41.768 66.973 41.902 66.807 41.902zM66.807 39.902c-.166 0-.3-.134-.3-.3v-1c0-.166.134-.3.3-.3s.3.134.3.3v1C67.107 39.768 66.973 39.902 66.807 39.902zM66.807 37.902c-.166 0-.3-.134-.3-.3v-1c0-.166.134-.3.3-.3s.3.134.3.3v1C67.107 37.768 66.973 37.902 66.807 37.902zM66.807 35.902c-.166 0-.3-.134-.3-.3v-1c0-.166.134-.3.3-.3s.3.134.3.3v1C67.107 35.768 66.973 35.902 66.807 35.902zM66.807 33.902c-.166 0-.3-.134-.3-.3v-1c0-.166.134-.3.3-.3s.3.134.3.3v1C67.107 33.768 66.973 33.902 66.807 33.902z"/><path fill="#fdfcee" d="M72.319 56.634A9.928 9.928 0 1 0 72.319 76.49A9.928 9.928 0 1 0 72.319 56.634Z"/><path fill="#472b29" d="M72.319,76.99c-5.75,0-10.428-4.678-10.428-10.428s4.678-10.429,10.428-10.429s10.428,4.679,10.428,10.429S78.069,76.99,72.319,76.99z M72.319,57.133c-5.199,0-9.428,4.229-9.428,9.429c0,5.198,4.229,9.428,9.428,9.428s9.428-4.229,9.428-9.428C81.747,61.363,77.518,57.133,72.319,57.133z"/><path fill="#93bc39" d="M72.319 58.495999999999995A8.066 8.066 0 1 0 72.319 74.628A8.066 8.066 0 1 0 72.319 58.495999999999995Z"/><path fill="#472b29" d="M72.319,74.953c-4.627,0-8.392-3.764-8.392-8.391s3.765-8.392,8.392-8.392s8.392,3.765,8.392,8.392S76.946,74.953,72.319,74.953z M72.319,58.821c-4.269,0-7.741,3.473-7.741,7.741s3.473,7.74,7.741,7.74s7.741-3.472,7.741-7.74S76.588,58.821,72.319,58.821z"/><path fill="#fdfcee" d="M75.777,66.274h-3.17v-3.17c0-0.158-0.13-0.288-0.288-0.288c-0.158,0-0.288,0.13-0.288,0.288v3.17h-3.17c-0.158,0-0.288,0.13-0.288,0.288s0.13,0.288,0.288,0.288h3.17v3.17c0,0.158,0.13,0.288,0.288,0.288c0.158,0,0.288-0.13,0.288-0.288v-3.17h3.17c0.158,0,0.288-0.13,0.288-0.288S75.936,66.274,75.777,66.274z"/><path fill="#472b29" d="M72.319,62.815c0.159,0,0.288,0.13,0.288,0.288v3.17h3.17c0.158,0,0.288,0.13,0.288,0.288s-0.13,0.288-0.288,0.288h-3.17v3.17c0,0.158-0.13,0.288-0.288,0.288s-0.288-0.13-0.288-0.288v-3.17h-3.17c-0.159,0-0.288-0.13-0.288-0.288s0.13-0.288,0.288-0.288h3.17v-3.17C72.031,62.945,72.16,62.815,72.319,62.815 M72.319,62.165c-0.517,0-0.938,0.421-0.938,0.938v2.52h-2.52c-0.517,0-0.938,0.421-0.938,0.938c0,0.517,0.421,0.938,0.938,0.938h2.52v2.52c0,0.517,0.421,0.938,0.938,0.938c0.517,0,0.938-0.421,0.938-0.938V67.5h2.52c0.517,0,0.938-0.421,0.938-0.938c0-0.517-0.421-0.938-0.938-0.938h-2.52v-2.52C73.257,62.586,72.836,62.165,72.319,62.165L72.319,62.165z"/></svg>