<svg xmlns="http://www.w3.org/2000/svg" width="500" height="500" fill="#000" viewBox="0 0 30 30"><path d="M 4.9902344 3.9902344 A 1.0001 1.0001 0 0 0 4 5.1289062 L 4 20 A 1.0001 1.0001 0 0 0 4.2929688 20.707031 L 8.2050781 24.619141 A 1.0001 1.0001 0 0 0 9.1582031 25 L 24 25 A 1.0001 1.0001 0 0 0 25 24 L 25 9.1679688 A 1.0001 1.0001 0 0 0 24.617188 8.203125 L 20.707031 4.2929688 A 1.0001 1.0001 0 0 0 20 4 L 5.1171875 4 A 1.0001 1.0001 0 0 0 4.9902344 3.9902344 z M 7.4140625 6 L 19.585938 6 L 21.585938 8 L 9.4140625 8 L 7.4140625 6 z M 6 7.4140625 L 8 9.4140625 L 8 21.585938 L 6 19.585938 L 6 7.4140625 z M 10 10 L 23 10 L 23 23 L 10 23 L 10 10 z M 27 13 L 27 21 L 30.035156 16.914062 L 27 13 z M 12 27 L 16.085938 30.035156 L 20 27 L 12 27 z"/></svg>