<svg xmlns="http://www.w3.org/2000/svg" viewBox="0 0 512 512" width="50px" height="50px"><path fill="#F6851F" d="M330.9,82.6c-44.4-21.3-95.9-27.1-142.3-8.8c-45.2,17.8-86.5,49.6-115.3,88.6c-14.2,19.2-25.8,41-31,64.4c-5,22.8-3.5,46,2.5,68.5c11.9,44.2,36.7,88.3,71.9,118.4c3.7-7.9,13.7-13.6,19.6-18.8c9.5-8.3,19.3-16.6,27.4-26.3c-0.5-0.8-0.7-1.6-0.7-2.4c-23.3-25.1-41.3-56.5-46.3-90.6c-5.1-35.5,6.1-72,32.8-96.5c26-23.8,62.1-40.5,98.2-43.3c0.5-11.7,1.6-23.4,0.8-35.1c-0.2-2.9,2-5.8,5.1-5.9c10.9-0.5,19.5,6.8,27.4,13.4c9.7,8,20.3,14.9,30.4,22.3c19.8,14.5,40.6,26.9,63.1,36.8c5.1,2.2,3.2,8.8-1,10.1c-0.3,5-4.5,6.9-8.3,10c-4.3,3.4-8.5,7-12.6,10.6c5.6,11.3,10,23.2,13.7,35.2c0.4,0.5,0.8,1.1,1.1,1.9c10.6,32.5,5.4,71.6-23.7,92.9c-18.1,13.3-41.2,17.8-63,11.8c-21.5-6-41.1-19.4-54.2-37.7c-12.8-17.9-19.8-41.1-11.9-62.5c7.7-21,27.7-33.6,49.6-35.1c0.1,0,0.1,0,0.2,0c3.1-2.7,9.1-1.8,9.1,3.4c0.2,12.3,4.1,23.9,6.1,35.9c13.6-6.2,23.9-19.6,35.2-28.9c8.1-6.6,16.4-12.9,24.3-19.8c7.2-6.2,14.4-12.4,21.8-18.3c0.2-0.4,0.5-0.8,0.9-1.2c0.4-0.4,0.9-0.9,1.3-1.3c-19.2-9-37.3-19.8-54.5-32.2c-10.1-7.3-20.7-14.3-30.5-22c-5.2-4.1-11.5-11.1-18.4-13.5c0.1,11.8-1.2,23.5-1.2,35.2c0,5.1-5.7,7-8.9,5c-5.7,0.5-11.3,1.3-16.8,2.4c-43.4,8.8-90.6,36.6-102.9,81.9c-13,48.2,11.8,98.3,45.3,132.1c0.5,0.5,0.9,1.1,1.2,1.6c2.4,1.8,4.9,3.6,7.4,5.4c40.5,28.9,94.5,43,143.7,33.5c48.5-9.3,91.8-42.5,110.6-88.6C475.6,223.7,414.2,122.4,330.9,82.6z"/><path d="M455.1,216.5c-10.7-46.4-39.6-87.6-76.6-117C340,68.9,291.2,50.4,241.8,51.8c-48.6,1.3-94,25.5-130.8,55.8C73.6,138.1,41,179.3,31,227.4c-10,47.6,8.1,97.7,32.3,138.2c13.7,23,31.1,44.7,52.3,61.3c3.5,2.8,7.8,0.5,8.9-2.7c0.9-0.7,1.5-1.8,1.6-3.4c0.3-4,4.6-7.2,7.5-9.6c3.8-3.3,7.9-6.2,11.6-9.6c9.4-8.6,19.2-16.6,27.3-26.3c19.1,13.5,39.2,24.4,61.7,32c23.6,8,48.9,11.4,73.8,10c50-2.9,97.6-29.1,125.8-70.7C459.6,308.3,465.4,261,455.1,216.5z M438.2,315.1c-18.8,46.1-62.1,79.3-110.6,88.6c-49.2,9.5-103.2-4.6-143.7-33.5c-2.5-1.8-4.9-3.6-7.4-5.4c-0.3-0.6-0.7-1.1-1.2-1.6C141.8,329.4,117,279.3,130,231c12.2-45.3,59.5-73.1,102.9-81.9c5.5-1.1,11.1-1.9,16.8-2.4c3.2,2,8.9,0.1,8.9-5c0.1-11.8,1.4-23.5,1.2-35.2c6.9,2.4,13.2,9.3,18.4,13.5c9.8,7.7,20.4,14.7,30.5,22c17.3,12.4,35.3,23.2,54.5,32.2c-0.4,0.4-0.9,0.9-1.3,1.3c-0.4,0.4-0.7,0.8-0.9,1.2c-7.5,5.9-14.7,12.1-21.8,18.3c-7.9,6.9-16.2,13.2-24.3,19.8c-11.3,9.2-21.6,22.6-35.2,28.9c-2-12-5.9-23.7-6.1-35.9c-0.1-5.2-6-6.1-9.1-3.4c-0.1,0-0.1,0-0.2,0c-21.9,1.5-41.9,14.1-49.6,35.1c-7.9,21.4-0.9,44.6,11.9,62.5c13,18.3,32.6,31.7,54.2,37.7c21.7,6.1,44.8,1.5,63-11.8c29.1-21.3,34.3-60.4,23.7-92.9c-0.3-0.8-0.6-1.4-1.1-1.9c-3.7-12-8.2-23.9-13.7-35.2c4.2-3.6,8.4-7.1,12.6-10.6c3.8-3,8-4.9,8.3-10c4.2-1.4,6.1-7.9,1-10.1c-22.5-9.9-43.2-22.4-63.1-36.8c-10.1-7.4-20.8-14.3-30.4-22.3c-7.9-6.6-16.5-13.9-27.4-13.4c-3,0.1-5.3,3-5.1,5.9c0.8,11.7-0.4,23.4-0.8,35.1c-36.1,2.8-72.2,19.5-98.2,43.3c-26.8,24.5-38,61-32.8,96.5c4.9,34.1,23,65.5,46.3,90.6c0,0.8,0.2,1.6,0.7,2.4c-8.1,9.7-17.9,18-27.4,26.3c-5.9,5.2-16,10.9-19.6,18.8c-35.2-30.1-60-74.2-71.9-118.4c-6-22.4-7.5-45.7-2.5-68.5c5.2-23.4,16.8-45.2,31-64.4c28.8-39.1,70.1-70.8,115.3-88.6c46.4-18.3,98-12.4,142.3,8.8C414.2,122.4,475.6,223.7,438.2,315.1z M344.1,205.2c5.3,11.4,9.4,23.4,12.9,34.9c0.2,0.8,0.6,1.5,1.1,2c5.5,19.3,5.1,40.3-4.6,58.3c-10.3,19.1-31.5,30.7-52.9,31c-22.1,0.3-43.2-11.9-58.1-27.4c-14.6-15.2-25-38.7-17.9-59.7c5.8-17,21.3-27,38.6-28.8c1.4,12.2,5.5,23.9,6.5,36.1c0.3,3.8,3.9,5.7,7.3,4.8c18.9-4.9,31.5-22.5,46.2-34.1C330.2,216.7,337.2,211,344.1,205.2z"/><path fill="#FFF" d="M89.2,138.7c-0.2-3.1-2.9-5.1-5.9-5.1c-3.2,0-6,0.9-8.4,3.2c-2.3,2.2-2.6,5.8-2.7,8.7c0,3,3.1,5.3,5.9,5.1c3.2-0.2,5-2.9,5.1-5.9c0,0,0,0,0-0.1c0.3,0,0.6,0,0.9,0C87.1,144.6,89.4,141.5,89.2,138.7z"/><g><path d="M90.7,127.7c-4.1,0-7.4,3.5-10.1,6.2c-3.1,3-5.5,6.8-7.9,10.4c-1.7,2.5,0.1,6.2,2.5,7.4c2.9,1.5,5.7,0,7.4-2.5c1.6-2.3,3.2-4.6,5-6.7c0.9-1,1.8-1.9,2.9-2.6c0.5-0.3,1-0.7,1.4-1.1C98.6,138.2,97.7,127.6,90.7,127.7z"/></g></svg>