<svg xmlns="http://www.w3.org/2000/svg" viewBox="0 0 512 512" width="50px" height="50px"><path fill="#14B6B9" d="M161.7,268.3c-22.8-0.2-45.5,2.1-68.2,2.2c-0.6,0-1.1-0.1-1.6-0.2c-4.1,11.8-2.6,25.1-3.2,37.4c-0.8,15.2-2.9,30.1-3.1,45.3c4.7-1.2,10.5-0.5,14.3-0.3c10.1,0.5,20.1,1.7,30.2,3.1c26.1,3.4,51.9,3.7,78.2,3.7c0.2-0.4,0.4-0.8,0.7-1.1c2.6-3.4,2.5-10.9,2.8-15.2c0.5-6.2,0.6-12.6,1.5-18.8c1.3-8.7,4.1-17.2,6-25.8c1.9-8.7,3.4-17.4,4.2-26.3C202.7,271.5,182.3,268.4,161.7,268.3z"/><path fill="#EF4823" d="M438,321.8c-0.2-5.7-0.7-11.4-1.1-17.1c-0.5-6.8-1-13.5-2.1-20.3c-1.3-7.6-2.7-15.2-3.1-22.9c-11,0.3-22,1.3-33,2.3c-12.6,1.1-25.2,1.2-37.8,1.8c-12,0.6-24,2.1-36,1.8c-10.2-0.3-20.3-1.3-30.4-1.2c0,0.3,0,0.5,0,0.8c-0.4,4.8,1.6,9.6,3.3,14c1.5,4.1,2.5,8.3,3.6,12.6c2.5,9.3,4.8,18.7,7.2,28c2,7.7,3.9,14.9,6.9,22.3c1.3,3.3,3.8,7.9,4.2,11.9c6.6-1.5,13.8-0.9,20.3-1c12-0.2,24.3-2.1,36-4.8c18.2-4.1,36.3-8.1,54.2-13.2c2-0.6,3.8-0.1,5.1,1c0.1-0.7,0.3-1.5,0.8-2.3C438.5,331.7,438.1,326.2,438,321.8z"/><path fill="#BCBCBC" d="M225.2 137.9c-4.8-8.7-12.9-15.2-22.9-16.7-11.9-1.7-20.4 4-29.2 11.1-12.4 10-24 21-34.9 32.6-20.9 22.4-39.5 46.8-57.5 71.5 17.7-.2 35.4-.9 53.1-1.7-.2-1.2-.1-2.4.6-3.7 7.6-13.8 17.4-26.2 25-40 6.2-11.2 10.5-24.7 20.6-33.1 11.4-9.5 24.1-6.2 37.4-3.9 1.8.3 10.3 2.3 10.9-.9C229.2 148.4 227.6 142.2 225.2 137.9zM425.8 206.6c-8.4-9.5-17.2-18.5-25.8-27.8-10.7-11.6-20.8-23.8-31.8-35.1-9.4-9.6-21.1-23.2-35.5-24.1-12-.8-22 8.5-28.4 17.7-3.7 5.3-6.6 11.1-9.1 17.1-1.3 3.1-4.1 8.5-2.7 11.9 1.9 4.8 12 0 14.9-1.2 5.4-2.2 11.7-5.2 17.7-4.9 10.2.5 19.1 5.3 25.8 12.9 6.8 7.8 11.9 16.6 17.4 25.3 5 7.8 10.4 16 19 20.2 4.9 2.3 3.7 8.3.2 10.5 7.1-.6 14.2-1.1 21.3-1.4 11.2-.6 22.5.5 33.8-.2.4-.6 1-1.2 1.7-1.6C437.7 219.9 431.7 213.3 425.8 206.6zM458.5 313c-.6-10.7-1.2-21.3-1.3-32 0-9-.3-18.1-1.5-27.1-.6-4.3-1.4-8.6-3-12.6-.4-.8-1-2.3-1.4-2.8-.2.1-.4.1-.6.1-14.1 2.1-28.3 0-42.5 1.1-15.6 1.2-31.1 2.4-46.7 3.6-31.3 2.4-62.8 2.1-94.2 1.5-32.3-.6-64.6-1.1-96.9.3-31.4 1.3-62.9 3.3-94.3 3.3-.1 0-.3 0-.4 0-.2.5-.5 1.1-.7 1.6-1.1 3-2.4 8.9-3.1 13.1-2.3 13.1-3.4 26.4-4.1 39.6-.8 13.7-1.2 27.4-1.2 41.2 0 5.9-.2 12 .2 18 .7.6 1.3 1.4 1.6 2.4 13.8 3.9 27.2 9.9 41.5 12.1 16.1 2.5 32.2 4.3 48.5 4.2 15.9-.2 31.3-1.8 47-4.5 5.4-.9 10.7-1.8 16.2-2.3 3-.3 7.5-.2 10.2-1.9-.9-18.2-.6-36.6 4.6-54.3 2.9-10 5.7-25 18.4-26.5 15.3-1.8 25.1 11.8 30.6 24 3.2 7 6.4 14.1 8.6 21.5 2.2 7.3 4 14.7 5.9 22.1 2.1 1.4 3.4 4 2.6 6.5.1.1.2.2.3.3 7 7.6 18.3 7.8 27.9 7.3 10.8-.6 21.4-2.5 32.1-3.8 13.8-1.7 27.9-.4 41.7-2.7 14.9-2.5 28.9-9.5 44.1-9.9.5 0 .9 0 1.3.1.3-2.5 2-4.7 4.2-5.5C459.2 339.1 459.2 325.9 458.5 313zM234.4 271.6c-.7 10.4-2.5 20.7-4.8 30.9-1.9 8.5-4.9 17.2-5.8 25.9-.7 6.9-.8 13.8-1.6 20.6-.6 5.7-1.4 11.8-5 16.6-.3.4-.6.7-.9 1-.4 2.1-2 3.9-4.8 3.9-26.8 0-53.4.1-80-3.4-8.6-1.1-17.2-2.3-25.8-3-4.2-.3-8.3-.7-12.5-.6-1.7 0-3.4.1-5.1.3-.1 0-.1 0-.2 0-3.1 2.9-8.4 1-9.3-2.7-2.2-.4-4-1.9-4-4.8v-4c0-.3 0-.5.1-.8.1-7.4.4-14.8 1-22.1.7-8.5 2.1-16.9 2.3-25.5.2-13.9-.4-28.5 5.3-41.5 1.4-3.2 4.5-3.6 7-2.4.7-.4 1.5-.6 2.5-.6 22.8-.1 45.5-2.5 68.2-2.2 23.3.3 46.4 4.1 69.8 4.2C236.4 261.5 238 269.1 234.4 271.6zM449 325.8c-.2 4.9-.3 10.4-3 14.6-2.1 3.2-6 3.2-8.5 1.6.2 2.2-.9 4.4-3.6 5.2-17.9 5.1-36 9.3-54.2 13.2-11.6 2.5-23.4 4.6-35.3 5.3-4.8.2-9.6 0-14.4.2-3.4.1-7.9-.1-10.9 1.7-4.4 2.6-8.9-1.5-8.7-5.3-1.6-1-2.5-2.9-1.8-5.3-.3 1-.3-.7-.6-1.8-.5-1.4-1-2.8-1.6-4.2-1.2-2.9-2.4-5.8-3.6-8.7-3.4-8-4.7-17.1-7-25.4-2.6-9.2-3.9-19-7-28-2.8-7.9-6-15.3-5.2-23.9 0-.2.1-.4.1-.7-2.1-3.1-1-8.5 3.9-8.8 12.2-.8 24.3.7 36.4 1 12.1.2 24-1.3 36-1.8 12.6-.5 25.2-.7 37.8-1.8 12.6-1.1 25.1-2.3 37.8-2.3 2.5 0 4.3 1.4 5.1 3.2 1 .8 1.8 2.1 1.8 3.9.1 10.1 2.4 19.8 3.9 29.7.9 6.3 1.2 12.5 1.7 18.8C448.6 312.6 449.2 319.3 449 325.8z"/><path d="M470.5,313.8c-0.6-12.2-1.3-24.3-1.4-36.5c-0.1-10.8-0.6-21.8-3-32.5c-1-4.5-2.5-9.2-5.1-12.8c2.2-2.2,2.8-5.8-0.4-8.2c-12-9-21.7-20.5-31.6-31.7c-10.1-11.5-21-22.2-31.1-33.6c-10.5-11.8-20.9-23.7-32.6-34.3c-10.3-9.3-21.6-17.1-36-16.6c-24.7,0.8-40.5,27.8-47.4,48.4c-3.5,10.3-0.5,22.1,11.6,23.9c12.7,1.9,23.4-10,35.8-7.2c12.4,2.8,19.8,17.2,25.9,27.1c7,11.3,14.5,23.5,26.9,29.5c0.2,0.1,0.3,0.1,0.5,0.2c-6.7,0.6-13.3,1.1-20,1.7c-32,2.7-64.2,2.2-96.3,1.7c-31.6-0.6-63.1-1.1-94.8,0.2c-7.9,0.3-15.9,0.7-23.8,1c0-0.6-0.1-1.2-0.3-1.7c7.5-12.7,16.3-24.5,23.4-37.3c5.8-10.6,10.1-27,22.9-31.3c5.7-1.9,12.7,0.4,18.3,1.5c5.6,1.1,11.5,2.2,17.2,0.9c12.5-2.8,12.3-16.2,9.6-26.2c-5.5-20.9-27.9-34.4-48.9-30.2c-12.8,2.5-22.6,11.7-32.2,19.9c-11.9,10.2-23,21.3-33.6,32.9c-19.6,21.5-37,44.9-54.1,68.3c-1.4,1.9-1.5,4.1-0.8,5.9c-4.7,4.1-6.5,12.2-7.8,17.5c-3.1,13.4-4.2,27.3-5.1,41c-1,15.2-1.6,30.5-1.7,45.8c-0.1,9.3-0.5,19,0.8,28.2c0.5,3.3,3.6,6.3,7,5.5c0.6,0.4,1.3,0.8,2.1,1c14.4,3.9,28.1,9.9,42.9,12.5c17.1,3,34.4,4.4,51.8,4.3c17.3-0.1,34-2.3,51-5.2c4.9-0.8,9.7-1.4,14.7-1.9c4.6-0.5,10.3-1,14-4.1c0.7-0.6,1.3-1.3,1.7-2c1.9-0.9,3.3-2.8,3.1-5.6c-0.9-15.6-1-31.2,2.3-46.6c1.2-5.5,2.9-11.1,4.6-16.5c0.9-3,2.5-7.4,6-7.8c11.1-1.3,16.9,14.9,20.1,22.6c5.8,13.7,9.2,27.7,13,42c0.6,2.2,1.9,3.4,3.4,3.8c0.2,1.1,0.7,2.1,1.6,3.1c15.3,16.7,44.7,9.8,64.1,7.1c14.1-2,28.4-1.4,42.5-2.8c14.6-1.5,28.2-8.2,42.6-10c1.3,0.8,2.9,1,4.8,0.4c0.8-0.3,5.6-2.3,2.2-1.1c1.9-0.7,3-1.9,3.6-3.4c2.6,0.8,5.8-0.2,7.5-2.9C470.7,347.3,471.2,330.2,470.5,313.8z M368.4,198.5c-5.5-8.7-10.6-17.6-17.4-25.3c-6.7-7.6-15.7-12.3-25.8-12.9c-6-0.3-12.3,2.7-17.7,4.9c-3,1.2-13.1,6-14.9,1.2c-1.3-3.4,1.5-8.8,2.7-11.9c2.5-6,5.4-11.8,9.1-17.1c6.4-9.2,16.4-18.4,28.4-17.7c14.4,0.9,26.1,14.5,35.5,24.1c11.1,11.3,21.2,23.5,31.8,35.1c8.6,9.3,17.4,18.3,25.8,27.8c5.9,6.7,11.9,13.3,18.4,19.3c-0.7,0.4-1.2,1-1.7,1.6c-11.2,0.8-22.5-0.4-33.8,0.2c-7.1,0.4-14.2,0.9-21.3,1.4c3.5-2.2,4.7-8.2-0.2-10.5C378.8,214.5,373.4,206.3,368.4,198.5z M138.2,165c10.9-11.6,22.5-22.6,34.9-32.6c8.9-7.1,17.4-12.8,29.2-11.1c10.1,1.4,18.2,7.9,22.9,16.7c2.4,4.3,4,10.5,3,15.3c-0.6,3.2-9.1,1.2-10.9,0.9c-13.3-2.3-26-5.6-37.4,3.9c-10.1,8.4-14.4,21.9-20.6,33.1c-7.6,13.8-17.4,26.2-25,40c-0.7,1.3-0.8,2.5-0.6,3.7c-17.7,0.8-35.4,1.5-53.1,1.7C98.7,211.8,117.3,187.4,138.2,165z M454.1,350.9c-2.2,0.8-3.9,3.1-4.2,5.5c-0.4-0.1-0.9-0.1-1.3-0.1c-15.2,0.4-29.2,7.4-44.1,9.9c-13.8,2.3-27.9,1.1-41.7,2.7c-10.7,1.3-21.3,3.2-32.1,3.8c-9.6,0.5-21,0.3-27.9-7.3c-0.1-0.1-0.2-0.2-0.3-0.3c0.9-2.5-0.5-5.1-2.6-6.5c-1.9-7.4-3.7-14.8-5.9-22.1c-2.2-7.4-5.5-14.5-8.6-21.5c-5.5-12.2-15.3-25.8-30.6-24c-12.7,1.5-15.5,16.5-18.4,26.5c-5.2,17.6-5.5,36-4.6,54.3c-2.7,1.7-7.2,1.6-10.2,1.9c-5.4,0.6-10.8,1.4-16.2,2.3c-15.7,2.7-31,4.3-47,4.5c-16.3,0.2-32.4-1.6-48.5-4.2c-14.3-2.2-27.7-8.2-41.5-12.1c-0.3-1-0.8-1.9-1.6-2.4c-0.4-6-0.2-12.1-0.2-18c0-13.7,0.4-27.5,1.2-41.2c0.7-13.2,1.9-26.5,4.1-39.6c0.7-4.2,2.1-10.1,3.1-13.1c0.2-0.5,0.4-1.1,0.7-1.6c0.1,0,0.3,0,0.4,0c31.5,0,62.9-2,94.3-3.3c32.3-1.3,64.6-0.9,96.9-0.3c31.4,0.6,62.9,0.9,94.2-1.5c15.6-1.2,31.1-2.4,46.7-3.6c14.1-1.1,28.4,1,42.5-1.1c0.2,0,0.4-0.1,0.6-0.1c0.4,0.5,1.1,1.9,1.4,2.8c1.7,4,2.4,8.3,3,12.6c1.3,8.9,1.5,18.1,1.5,27.1c0,10.7,0.6,21.3,1.3,32C459.2,325.9,459.2,339.1,454.1,350.9z"/><path d="M230.6 261.5c-23.3-.1-46.4-3.9-69.8-4.2-22.8-.3-45.5 2.1-68.2 2.2-1 0-1.8.2-2.5.6-2.5-1.2-5.6-.8-7 2.4-5.7 13-5 27.6-5.3 41.5-.1 8.5-1.6 17-2.3 25.5-.6 7.4-.9 14.7-1 22.1 0 .3-.1.5-.1.8v4c0 2.9 1.8 4.5 4 4.8.9 3.6 6.2 5.6 9.3 2.7.1 0 .1 0 .2 0 1.7-.3 3.4-.3 5.1-.3 4.2-.1 8.4.2 12.5.6 8.6.7 17.2 1.8 25.8 3 26.6 3.5 53.2 3.4 80 3.4 2.8 0 4.4-1.8 4.8-3.9.3-.3.6-.6.9-1 3.5-4.8 4.3-10.8 5-16.6.8-6.9.9-13.8 1.6-20.6.9-8.7 3.9-17.4 5.8-25.9 2.3-10.2 4.1-20.4 4.8-30.9C238 269.1 236.4 261.5 230.6 261.5zM219.1 298.6c-1.9 8.6-4.7 17.1-6 25.8-.9 6.2-1 12.6-1.5 18.8-.3 4.3-.2 11.7-2.8 15.2-.3.4-.5.8-.7 1.1-26.2 0-52.1-.3-78.2-3.7-10-1.3-20.1-2.5-30.2-3.1-3.9-.2-9.7-.9-14.3.3.3-15.2 2.4-30.2 3.1-45.3.6-12.3-.9-25.6 3.2-37.4.5.1 1 .2 1.6.2 22.8-.1 45.5-2.4 68.2-2.2 20.6.2 41.1 3.2 61.7 4C222.6 281.2 221 289.9 219.1 298.6zM448.1 306.1c-.5-6.3-.8-12.5-1.7-18.8-1.5-9.9-3.7-19.6-3.9-29.7 0-1.8-.7-3.1-1.8-3.9-.9-1.8-2.6-3.2-5.1-3.2-12.6.1-25.2 1.2-37.8 2.3-12.6 1.1-25.2 1.3-37.8 1.8-12 .5-24 2-36 1.8-12.2-.2-24.3-1.8-36.4-1-4.9.3-6 5.7-3.9 8.8 0 .2-.1.4-.1.7-.8 8.6 2.5 15.9 5.2 23.9 3.1 9 4.4 18.8 7 28 2.4 8.3 3.7 17.5 7 25.4 1.2 2.9 2.5 5.8 3.6 8.7.6 1.4 1.1 2.8 1.6 4.2.4 1 .3 2.8.6 1.8-.7 2.4.3 4.2 1.8 5.3-.3 3.8 4.2 7.9 8.7 5.3 3.1-1.8 7.5-1.6 10.9-1.7 4.8-.2 9.6 0 14.4-.2 11.8-.6 23.7-2.7 35.3-5.3 18.2-4 36.3-8.1 54.2-13.2 2.8-.8 3.8-3 3.6-5.2 2.5 1.7 6.4 1.7 8.5-1.6 2.7-4.2 2.9-9.8 3-14.6C449.2 319.3 448.6 312.6 448.1 306.1zM436.1 335.6c-.5.8-.8 1.5-.8 2.3-1.3-1.1-3-1.6-5.1-1-17.9 5.1-36 9.1-54.2 13.2-11.7 2.6-24 4.5-36 4.8-6.6.1-13.8-.5-20.3 1-.4-4.1-2.8-8.7-4.2-11.9-3-7.3-4.9-14.6-6.9-22.3-2.4-9.3-4.7-18.7-7.2-28-1.1-4.2-2.1-8.5-3.6-12.6-1.7-4.4-3.7-9.2-3.3-14 0-.3 0-.5 0-.8 10.2-.1 20.3.9 30.4 1.2 12 .4 24-1.2 36-1.8 12.6-.6 25.2-.7 37.8-1.8 11-1 21.9-2 33-2.3.4 7.7 1.8 15.3 3.1 22.9 1.2 6.8 1.6 13.4 2.1 20.3.4 5.7.9 11.4 1.1 17.1C438.1 326.2 438.5 331.7 436.1 335.6z"/></svg>