<?xml version="1.0"?><svg fill="#000000" xmlns="http://www.w3.org/2000/svg" viewBox="0 0 24 24" width="50px" height="50px">    <path d="M 12.027344 2 C 11.699344 2 11.392078 2.1616406 11.205078 2.4316406 L 6.6679688 9 L 2.0019531 9 C 1.6889531 9 1.3950781 9.1455313 1.2050781 9.3945312 C 1.0170781 9.6425312 0.95315625 9.964625 1.0351562 10.265625 L 3.5957031 19.53125 C 3.8347031 20.39525 4.6274375 21 5.5234375 21 L 12.294922 21 C 12.198256 20.675736 12.124128 20.341883 12.074219 20 L 12.080078 20 C 12.033078 19.673 12 19.34 12 19 C 12 15.134 15.134 12 19 12 C 19.801 12 20.567203 12.140672 21.283203 12.388672 C 21.620978 12.505754 21.949397 12.643905 22.261719 12.808594 L 22.962891 10.267578 C 23.045891 9.9665781 22.982922 9.6425313 22.794922 9.3945312 C 22.604922 9.1455313 22.310047 9 21.998047 9 L 17.339844 9 L 12.853516 2.4355469 C 12.667516 2.1635469 12.36025 2.001 12.03125 2 L 12.027344 2 z M 12.023438 4.765625 L 14.916016 9 L 9.0976562 9 L 12.023438 4.765625 z M 19 14 C 16.239 14 14 16.239 14 19 C 14 21.761 16.239 24 19 24 C 21.761 24 24 21.761 24 19 C 24 16.239 21.761 14 19 14 z M 18 16 L 20 16 L 20 18 L 22 18 L 22 20 L 20 20 L 20 22 L 18 22 L 18 20 L 16 20 L 16 18 L 18 18 L 18 16 z"/></svg>