<svg fill="#000000" xmlns="http://www.w3.org/2000/svg" viewBox="0 0 64 64" width="300px" height="300px"><path d="M 32 3 C 15.984 3 3 15.984 3 32 C 3 48.016 15.984 61 32 61 C 48.016 61 61 48.016 61 32 C 61 15.984 48.016 3 32 3 z M 32 5 C 46.912 5 59 17.088 59 32 C 59 46.912 46.912 59 32 59 C 17.088 59 5 46.912 5 32 C 5 17.088 17.088 5 32 5 z M 32.160156 8.96875 C 20.992255 8.8617798 11.114516 16.918688 9.2675781 28.28125 C 8.0775781 35.59825 10.487234 43.039531 15.740234 48.269531 C 16.159234 48.628531 16.791391 48.579156 17.150391 48.160156 C 17.471391 47.786156 17.471391 47.233375 17.150391 46.859375 C 8.9463906 38.661375 8.9416719 25.366109 17.138672 17.162109 L 17.150391 17.150391 C 21.925391 12.395391 28.684844 10.209531 35.339844 11.269531 C 35.891844 11.357531 36.412 10.981687 36.5 10.429688 C 36.588 9.8776875 36.212156 9.3575313 35.660156 9.2695312 C 34.484719 9.078375 33.315456 8.9798159 32.160156 8.96875 z M 39.662109 10.365234 C 39.272391 10.359234 38.897719 10.582187 38.730469 10.960938 C 38.507469 11.465938 38.737187 12.056297 39.242188 12.279297 C 39.278187 12.294297 39.313609 12.309312 39.349609 12.320312 C 40.065609 12.588313 40.766219 12.895234 41.449219 13.240234 C 41.943219 13.489234 42.545922 13.288922 42.794922 12.794922 C 43.043922 12.300922 42.843609 11.698219 42.349609 11.449219 C 41.601609 11.074219 40.834781 10.740219 40.050781 10.449219 C 39.924531 10.393469 39.792016 10.367234 39.662109 10.365234 z M 45.802734 13.728516 C 45.420047 13.655109 45.013453 13.810047 44.783203 14.154297 C 44.508203 14.565297 44.574453 15.116219 44.939453 15.449219 C 45.609453 15.977219 46.247609 16.546391 46.849609 17.150391 C 55.050609 25.351391 55.051562 38.646656 46.851562 46.847656 L 46.849609 46.849609 C 46.430609 47.208609 46.381234 47.840766 46.740234 48.259766 C 47.099234 48.678766 47.731391 48.728141 48.150391 48.369141 C 48.189391 48.335141 48.226766 48.298766 48.259766 48.259766 C 57.236766 39.278766 57.236766 24.721234 48.259766 15.740234 C 47.600766 15.079234 46.902922 14.457859 46.169922 13.880859 C 46.055172 13.804109 45.930297 13.752984 45.802734 13.728516 z M 32 21 C 31.448 21 31 21.448 31 22 L 31 31 L 22 31 C 21.448 31 21 31.448 21 32 C 21 32.552 21.448 33 22 33 L 31 33 L 31 42 C 31 42.552 31.448 43 32 43 C 32.552 43 33 42.552 33 42 L 33 33 L 42 33 C 42.552 33 43 32.552 43 32 C 43 31.448 42.552 31 42 31 L 33 31 L 33 22 C 33 21.448 32.552 21 32 21 z M 41.652344 48.355469 C 41.522813 48.366016 41.392031 48.402797 41.269531 48.466797 C 40.779531 48.722797 40.591656 49.326406 40.847656 49.816406 C 40.860656 49.841406 40.873672 49.866625 40.888672 49.890625 L 41.888672 51.619141 C 42.144672 52.108141 42.748281 52.298969 43.238281 52.042969 C 43.728281 51.786969 43.918109 51.183359 43.662109 50.693359 C 43.649109 50.668359 43.634141 50.643141 43.619141 50.619141 L 42.619141 48.890625 C 42.427141 48.523875 42.040937 48.323828 41.652344 48.355469 z M 22.373047 48.392578 C 21.986281 48.343969 21.590562 48.526266 21.382812 48.884766 L 21.380859 48.890625 L 20.380859 50.619141 C 20.084859 51.085141 20.2215 51.704 20.6875 52 C 21.1535 52.296 21.770406 52.159359 22.066406 51.693359 C 22.081406 51.669359 22.096375 51.644141 22.109375 51.619141 L 23.109375 49.890625 C 23.388375 49.414625 23.227953 48.800484 22.751953 48.521484 C 22.751953 48.521484 22.75 48.519531 22.75 48.519531 C 22.6305 48.450281 22.501969 48.408781 22.373047 48.392578 z M 26.814453 50.347656 C 26.429656 50.402969 26.096734 50.681078 25.990234 51.080078 L 25.470703 53 C 25.308703 53.528 25.604813 54.086047 26.132812 54.248047 C 26.660812 54.410047 27.220813 54.113938 27.382812 53.585938 C 27.389813 53.563938 27.395391 53.541531 27.400391 53.519531 L 27.919922 51.589844 C 28.059922 51.056844 27.742938 50.511141 27.210938 50.369141 C 27.077687 50.334141 26.942719 50.329219 26.814453 50.347656 z M 37.146484 50.378906 C 37.017297 50.365594 36.883953 50.377469 36.751953 50.417969 C 36.248953 50.571969 35.951312 51.087609 36.070312 51.599609 L 36.589844 53.529297 C 36.735844 54.065297 37.288219 54.380375 37.824219 54.234375 C 38.360219 54.088375 38.675297 53.536 38.529297 53 L 38 51.080078 C 37.8785 50.684078 37.534047 50.418844 37.146484 50.378906 z M 32 51 C 31.448 51 31 51.448 31 52 L 31 54 C 31 54.552 31.448 55 32 55 C 32.552 55 33 54.552 33 54 L 33 52 C 33 51.448 32.552 51 32 51 z"/></svg>