<svg xmlns="http://www.w3.org/2000/svg" width="300" height="300" fill="#000" viewBox="0 0 24 24"><path d="M 12 1.9902344 L 6.7109375 9 L 1 9 L 4.0019531 21 L 12.294922 21 C 12.105922 20.366 12 19.695 12 19 C 12 15.134 15.134 12 19 12 C 20.103 12 21.141312 12.261797 22.070312 12.716797 L 23 9 L 17.289062 9 L 12 1.9902344 z M 12 5.3105469 L 14.783203 9 L 9.2167969 9 L 12 5.3105469 z M 19 14 C 16.239 14 14 16.239 14 19 C 14 21.761 16.239 24 19 24 C 21.761 24 24 21.761 24 19 C 24 16.239 21.761 14 19 14 z M 18 16 L 20 16 L 20 18 L 22 18 L 22 20 L 20 20 L 20 22 L 18 22 L 18 20 L 16 20 L 16 18 L 18 18 L 18 16 z"/></svg>