<svg xmlns="http://www.w3.org/2000/svg" viewBox="0 0 64 64" width="100px" height="100px"><path fill="#96d7f9" d="M53,15c2.209,0,4,1.791,4,4v36c0,2.209-1.791,4-4,4H11c-2.209,0-4-1.791-4-4V19c0-2.209,1.791-4,4-4 H53z"/><path fill="#85cbf8" d="M53,35c2.209,0,4,1.791,4,4v16c0,2.209-1.791,4-4,4H11c-2.209,0-4-1.791-4-4V39c0-2.209,1.791-4,4-4 H53z"/><path fill="#def0ff" d="M52,20v25H41c-2.209,0-4,1.791-4,4v5H12V20H52z"/><path fill="#ed7899" d="M32 43L24 38.47 24 29.467 32 33.438z"/><path fill="#e0678f" d="M32 33.438L40 29.467 40 38.75 32 43z"/><path fill="#f98cb3" d="M24 29.467L32 26 40 29.467 32 33.438z"/><path fill="#97e0bb" d="M42 50H52V54H42z"/><path fill="#ffefb8" d="M17 12H23V23H17z"/><path fill="#f6d397" d="M20 12H23V23H20z"/><path fill="#8d6c9f" d="M32,44c-0.17,0-0.34-0.043-0.493-0.13l-8-4.53C23.194,39.163,23,38.831,23,38.47v-9.003 c0-0.346,0.179-0.667,0.473-0.85c0.294-0.182,0.662-0.199,0.971-0.046l8,3.97C32.785,32.71,33,33.058,33,33.438V43 c0,0.356-0.189,0.685-0.497,0.864C32.348,43.955,32.174,44,32,44z M25,37.887l6,3.397v-7.227l-6-2.978V37.887z"/><path fill="#8d6c9f" d="M32,44c-0.179,0-0.357-0.048-0.515-0.143C31.184,43.676,31,43.351,31,43v-9.563 c0-0.38,0.215-0.727,0.556-0.896l8-3.97c0.309-0.154,0.677-0.137,0.971,0.046C40.821,28.8,41,29.121,41,29.467v9.283 c0,0.37-0.204,0.709-0.531,0.883l-8,4.25C32.322,43.961,32.161,44,32,44z M33,34.058v7.279l6-3.188V31.08L33,34.058z"/><path fill="#8d6c9f" d="M32 34.438c-.152 0-.305-.035-.444-.104l-8-3.97C23.207 30.19 22.99 29.831 23 29.441c.01-.389.245-.737.602-.892l8-3.467c.253-.11.542-.11.795 0l8 3.467c.357.155.592.502.602.892.01.389-.207.749-.555.922l-8 3.97C32.305 34.403 32.152 34.438 32 34.438zM26.373 29.529L32 32.321l5.627-2.792L32 27.09 26.373 29.529zM23 24h-6c-.552 0-1-.448-1-1V12c0-.552.448-1 1-1h6c.552 0 1 .448 1 1v11C24 23.552 23.552 24 23 24zM18 22h4v-9h-4V22z"/><path fill="#8d6c9f" d="M20 26c-.552 0-1-.448-1-1v-2c0-.552.448-1 1-1s1 .448 1 1v2C21 25.552 20.552 26 20 26zM51.625 16c-.145 0-.292-.031-.431-.098-2.745-1.313-5.15-2.486-7.281-3.525C34.931 7.999 30.832 6 27 6c-3.309 0-6 2.691-6 6 0 .552-.448 1-1 1s-1-.448-1-1c0-4.411 3.589-8 8-8 4.293 0 8.522 2.062 17.789 6.579 2.127 1.037 4.529 2.208 7.268 3.519.498.238.709.835.47 1.333C52.355 15.791 51.997 16 51.625 16zM32 47c-.552 0-1 .447-1 1v2c0 .553.448 1 1 1 .552 0 1-.447 1-1v-2C33 47.447 32.552 47 32 47zM27 47c-.552 0-1 .447-1 1v2c0 .553.448 1 1 1s1-.447 1-1v-2C28 47.447 27.552 47 27 47zM22 47c-.552 0-1 .447-1 1v2c0 .553.448 1 1 1s1-.447 1-1v-2C23 47.447 22.552 47 22 47zM17 47c-.552 0-1 .447-1 1v2c0 .553.448 1 1 1s1-.447 1-1v-2C18 47.447 17.552 47 17 47z"/><path fill="#8d6c9f" d="M37,55H12c-0.552,0-1-0.448-1-1V20c0-0.552,0.448-1,1-1h4.875v2H13v32h23v-3.966 c0-1.344,0.525-2.604,1.479-3.55c0.953-0.946,2.211-1.485,3.562-1.45L51,44.117V21H23v-2h29c0.552,0,1,0.448,1,1v25.125 c0,0.267-0.106,0.522-0.296,0.71c-0.189,0.188-0.454,0.304-0.712,0.29l-10.967-0.091c-0.834,0.01-1.565,0.302-2.137,0.87 C38.315,47.471,38,48.228,38,49.034V54C38,54.552,37.552,55,37,55z"/><path fill="#8d6c9f" d="M52,55H42c-0.552,0-1-0.448-1-1v-4c0-0.552,0.448-1,1-1h10c0.552,0,1,0.448,1,1v4 C53,54.552,52.552,55,52,55z M43,53h8v-2h-8V53z"/><path fill="#8d6c9f" d="M53,60H11c-2.757,0-5-2.243-5-5V19c0-2.757,2.243-5,5-5h6v2h-6c-1.654,0-3,1.346-3,3v36 c0,1.654,1.346,3,3,3h42c1.654,0,3-1.346,3-3V19c0-1.654-1.346-3-3-3H23.125v-2H53c2.757,0,5,2.243,5,5v36 C58,57.757,55.757,60,53,60z"/></svg>