<svg xmlns="http://www.w3.org/2000/svg" width="500" height="500" fill="#000" viewBox="0 0 50 50"><path d="M 25 13 C 13.441406 13 1 16.441406 1 24 C 1 30.6875 10.746094 34.152344 21 34.859375 L 21 41.046875 L 32.628906 32 L 21 22.953125 L 21 28.847656 C 11.800781 28.140625 7 25.132813 7 24 C 7 22.714844 13.1875 19 25 19 C 36.8125 19 43 22.714844 43 24 C 43 24.554688 41.421875 26.210938 36.726563 27.539063 L 36 27.742188 L 36 33.917969 L 37.238281 33.609375 C 44.824219 31.734375 49 28.320313 49 24 C 49 16.441406 36.558594 13 25 13 Z"/></svg>