<?xml version="1.0"?><svg fill="#000000" xmlns="http://www.w3.org/2000/svg" viewBox="0 0 30 30" width="500px" height="500px">    <path d="M 4 6 C 2.895 6 2 6.895 2 8 L 2 24 C 2 25.105 2.895 26 4 26 L 26 26 C 27.105 26 28 25.105 28 24 L 28 8 C 28 6.895 27.105 6 26 6 L 4 6 z M 6 8 C 6.552 8 7 8.448 7 9 L 7 23 C 7 23.552 6.552 24 6 24 C 5.448 24 5 23.552 5 23 L 5 9 C 5 8.448 5.448 8 6 8 z M 18 8 C 22.418 8 26 11.582 26 16 C 26 20.418 22.418 24 18 24 C 13.582 24 10 20.418 10 16 C 10 11.582 13.582 8 18 8 z M 18 12 C 17.448 12 17 12.447 17 13 L 17 15 L 15 15 C 14.448 15 14 15.447 14 16 C 14 16.553 14.448 17 15 17 L 17 17 L 17 19 C 17 19.553 17.448 20 18 20 C 18.552 20 19 19.553 19 19 L 19 17 L 21 17 C 21.552 17 22 16.553 22 16 C 22 15.447 21.552 15 21 15 L 19 15 L 19 13 C 19 12.447 18.552 12 18 12 z"/></svg>