<svg xmlns="http://www.w3.org/2000/svg" viewBox="0 0 64 64" width="100px" height="100px"><linearGradient id="WCONraqZn5PiOVxG9cvH8a" x1="49" x2="49" y1="17.723" y2="21.395" gradientUnits="userSpaceOnUse"><stop offset="0" stop-color="#6dc7ff"/><stop offset="1" stop-color="#e6abff"/></linearGradient><path fill="url(#WCONraqZn5PiOVxG9cvH8a)" d="M46,17h5c0.552,0,1,0.448,1,1v5L46,17z"/><linearGradient id="WCONraqZn5PiOVxG9cvH8b" x1="30.5" x2="30.5" y1="29.511" y2="38.95" gradientUnits="userSpaceOnUse"><stop offset="0" stop-color="#6dc7ff"/><stop offset="1" stop-color="#e6abff"/></linearGradient><rect width="11" height="11" x="25" y="29" fill="url(#WCONraqZn5PiOVxG9cvH8b)"/><linearGradient id="WCONraqZn5PiOVxG9cvH8c" x1="32" x2="32" y1="7.766" y2="56.485" gradientUnits="userSpaceOnUse"><stop offset="0" stop-color="#1a6dff"/><stop offset="1" stop-color="#c822ff"/></linearGradient><path fill="url(#WCONraqZn5PiOVxG9cvH8c)" d="M51,8H13c-2.757,0-5,2.243-5,5v38c0,2.757,2.243,5,5,5h38c2.757,0,5-2.243,5-5V13 C56,10.243,53.757,8,51,8z M54,13H38c0-0.553-0.447-1-1-1v-2h14C52.654,10,54,11.346,54,13z M35,10v8h-6v-8H35z M13,10h14v2 c-0.553,0-1,0.447-1,1H10C10,11.346,11.346,10,13,10z M54,51c0,1.654-1.346,3-3,3H39l0,0c0-1.105-0.895-2-2-2H27 c-1.105,0-2,0.895-2,2l0,0H13c-1.654,0-3-1.346-3-3v-3h44V51z M40,27h2v15h-2V27z M38,42H23V27h15V42z M43.301,44 C43.687,44,44,44.313,44,44.699V46H20v-1.301C20,44.313,20.313,44,20.699,44H43.301z M54,46h-8v-1.301c0-1.245-0.852-2.285-2-2.596 V26c0-0.553-0.447-1-1-1h-4H22c-0.553,0-1,0.447-1,1v16h-0.301C19.211,42,18,43.211,18,44.699V46h-8V15h16c0,0.553,0.447,1,1,1v3 c0,0.553,0.447,1,1,1h3v3h2v-3h3c0.553,0,1-0.447,1-1v-3c0.553,0,1-0.447,1-1h16V46z"/><linearGradient id="WCONraqZn5PiOVxG9cvH8d" x1="47" x2="47" y1="7.766" y2="56.485" gradientUnits="userSpaceOnUse"><stop offset="0" stop-color="#1a6dff"/><stop offset="1" stop-color="#c822ff"/></linearGradient><circle cx="47" cy="51" r="1" fill="url(#WCONraqZn5PiOVxG9cvH8d)"/><linearGradient id="WCONraqZn5PiOVxG9cvH8e" x1="43" x2="43" y1="7.766" y2="56.485" gradientUnits="userSpaceOnUse"><stop offset="0" stop-color="#1a6dff"/><stop offset="1" stop-color="#c822ff"/></linearGradient><circle cx="43" cy="51" r="1" fill="url(#WCONraqZn5PiOVxG9cvH8e)"/><linearGradient id="WCONraqZn5PiOVxG9cvH8f" x1="51" x2="51" y1="7.766" y2="56.485" gradientUnits="userSpaceOnUse"><stop offset="0" stop-color="#1a6dff"/><stop offset="1" stop-color="#c822ff"/></linearGradient><circle cx="51" cy="51" r="1" fill="url(#WCONraqZn5PiOVxG9cvH8f)"/></svg>