<svg xmlns="http://www.w3.org/2000/svg" width="500" height="500" fill="#000" viewBox="0 0 50 50"><path d="M 12 0 C 10.355469 0 9 1.355469 9 3 L 9 47 C 9 48.644531 10.355469 50 12 50 L 38 50 C 39.644531 50 41 48.644531 41 47 L 41 37 L 39 37 L 39 47 C 39 47.554688 38.554688 48 38 48 L 12 48 C 11.445313 48 11 47.554688 11 47 L 11 3 C 11 2.445313 11.445313 2 12 2 L 38 2 C 38.554688 2 39 2.445313 39 3 L 39 13 L 41 13 L 41 3 C 41 1.355469 39.644531 0 38 0 Z M 40 15 C 34.488281 15 30 19.488281 30 25 C 30 30.511719 34.488281 35 40 35 C 45.511719 35 50 30.511719 50 25 C 50 19.488281 45.511719 15 40 15 Z M 40 17 C 44.429688 17 48 20.570313 48 25 C 48 29.429688 44.429688 33 40 33 C 35.570313 33 32 29.429688 32 25 C 32 20.570313 35.570313 17 40 17 Z M 39 20 L 39 24 L 35 24 L 35 26 L 39 26 L 39 30 L 41 30 L 41 26 L 45 26 L 45 24 L 41 24 L 41 20 Z"/></svg>