<svg xmlns="http://www.w3.org/2000/svg" width="50" height="50" viewBox="0 0 128 128"><path fill="#fff" d="M22,4v81c0,5.5,4.5,10,10,10h64c5.5,0,10-4.5,10-10V4H22z"/><path fill="#444b54" d="M106,13c-1.7,0-3,1.3-3,3v69c0,3.9-3.1,7-7,7H61V16c0-1.7-1.3-3-3-3H43c-1.7,0-3,1.3-3,3v76h-8 c-3.9,0-7-3.1-7-7V16c0-1.7-1.3-3-3-3s-3,1.3-3,3v69c0,7.2,5.8,13,13,13h64c7.2,0,13-5.8,13-13V16C109,14.3,107.7,13,106,13z"/><path fill="#71c2ff" d="M94,61c-18.2,0-33,14.8-33,33s14.8,33,33,33s33-14.8,33-33S112.2,61,94,61z"/><path fill="#fff" d="M104,91h-7v-7c0-1.7-1.3-3-3-3s-3,1.3-3,3v7h-7c-1.7,0-3,1.3-3,3s1.3,3,3,3h7v7c0,1.7,1.3,3,3,3s3-1.3,3-3v-7 h7c1.7,0,3-1.3,3-3S105.7,91,104,91z"/><path fill="#444b54" d="M118,19c-1.7,0-3-1.3-3-3s1.3-3,3-3c1.7,0,3-1.3,3-3s-1.3-3-3-3H10c-1.7,0-3,1.3-3,3s1.3,3,3,3 c1.7,0,3,1.3,3,3s-1.3,3-3,3c-5,0-9-4-9-9s4-9,9-9h108c5,0,9,4,9,9S123,19,118,19z"/></svg>