<svg xmlns="http://www.w3.org/2000/svg" width="300" height="300" viewBox="0 0 16 16"><path fill="#4e7ab5" d="M8 6A2 2 0 1 0 8 10A2 2 0 1 0 8 6Z"/><path fill="#8bb7f0" d="M8,4c2.206,0,4,1.794,4,4s-1.794,4-4,4s-4-1.794-4-4S5.794,4,8,4 M8,3C5.239,3,3,5.239,3,8 s2.239,5,5,5s5-2.239,5-5S10.761,3,8,3L8,3z"/><path fill="#4e7ab5" d="M8 0A.5.5 0 1 0 8 1 .5.5 0 1 0 8 0zM8 15A.5.5 0 1 0 8 16 .5.5 0 1 0 8 15zM15.5 7.5A.5.5 0 1 0 15.5 8.5.5.5 0 1 0 15.5 7.5zM.5 7.5A.5.5 0 1 0 .5 8.5.5.5 0 1 0 .5 7.5z"/><path fill="#4e7ab5" d="M13.303 2.197A0.5 0.5 0 1 0 13.303 3.197A0.5 0.5 0 1 0 13.303 2.197Z" transform="rotate(-45.001 13.303 2.697)"/><path fill="#4e7ab5" d="M2.697 12.803A0.5 0.5 0 1 0 2.697 13.803A0.5 0.5 0 1 0 2.697 12.803Z" transform="rotate(-45.001 2.697 13.303)"/><path fill="#4e7ab5" d="M13.303 12.803A0.5 0.5 0 1 0 13.303 13.803A0.5 0.5 0 1 0 13.303 12.803Z" transform="rotate(-45.001 13.303 13.304)"/><path fill="#4e7ab5" d="M2.697 2.197A0.5 0.5 0 1 0 2.697 3.197A0.5 0.5 0 1 0 2.697 2.197Z" transform="rotate(-45.001 2.697 2.697)"/><path fill="#4e7ab5" d="M5.13 0.571A0.5 0.5 0 1 0 5.13 1.571A0.5 0.5 0 1 0 5.13 0.571Z" transform="rotate(-22.5 5.13 1.07)"/><path fill="#4e7ab5" d="M10.87 14.429A0.5 0.5 0 1 0 10.87 15.429A0.5 0.5 0 1 0 10.87 14.429Z" transform="rotate(-22.5 10.87 14.929)"/><path fill="#4e7ab5" d="M14.929 4.63A0.5 0.5 0 1 0 14.929 5.63A0.5 0.5 0 1 0 14.929 4.63Z" transform="rotate(-22.5 14.928 5.13)"/><path fill="#4e7ab5" d="M1.071 10.37A0.5 0.5 0 1 0 1.071 11.37A0.5 0.5 0 1 0 1.071 10.37Z" transform="rotate(-22.5 1.07 10.87)"/><path fill="#4e7ab5" d="M10.87 0.571A0.5 0.5 0 1 0 10.87 1.571A0.5 0.5 0 1 0 10.87 0.571Z" transform="rotate(-67.5 10.87 1.07)"/><path fill="#4e7ab5" d="M5.13 14.429A0.5 0.5 0 1 0 5.13 15.429A0.5 0.5 0 1 0 5.13 14.429Z" transform="rotate(-67.5 5.13 14.929)"/><path fill="#4e7ab5" d="M14.929 10.37A0.5 0.5 0 1 0 14.929 11.37A0.5 0.5 0 1 0 14.929 10.37Z" transform="rotate(-67.5 14.929 10.87)"/><path fill="#4e7ab5" d="M1.071 4.63A0.5 0.5 0 1 0 1.071 5.63A0.5 0.5 0 1 0 1.071 4.63Z" transform="rotate(-67.5 1.07 5.13)"/></svg>