<svg xmlns="http://www.w3.org/2000/svg" width="300" height="300" fill="#000" viewBox="0 0 80 80"><path d="M 11 10 C 10.449219 10 10 10.449219 10 11 C 10 11.550781 10.449219 12 11 12 C 11.550781 12 12 11.550781 12 11 C 12 10.449219 11.550781 10 11 10 Z M 15 10 C 14.449219 10 14 10.449219 14 11 C 14 11.550781 14.449219 12 15 12 C 15.550781 12 16 11.550781 16 11 C 16 10.449219 15.550781 10 15 10 Z M 19 10 C 18.449219 10 18 10.449219 18 11 C 18 11.550781 18.449219 12 19 12 C 19.550781 12 20 11.550781 20 11 C 20 10.449219 19.550781 10 19 10 Z M 23 10 C 22.449219 10 22 10.449219 22 11 C 22 11.550781 22.449219 12 23 12 C 23.550781 12 24 11.550781 24 11 C 24 10.449219 23.550781 10 23 10 Z M 27 10 C 26.449219 10 26 10.449219 26 11 C 26 11.550781 26.449219 12 27 12 C 27.550781 12 28 11.550781 28 11 C 28 10.449219 27.550781 10 27 10 Z M 31 10 C 30.449219 10 30 10.449219 30 11 C 30 11.550781 30.449219 12 31 12 C 31.550781 12 32 11.550781 32 11 C 32 10.449219 31.550781 10 31 10 Z M 35 10 C 34.449219 10 34 10.449219 34 11 C 34 11.550781 34.449219 12 35 12 C 35.550781 12 36 11.550781 36 11 C 36 10.449219 35.550781 10 35 10 Z M 39 10 C 38.449219 10 38 10.449219 38 11 C 38 11.550781 38.449219 12 39 12 C 39.550781 12 40 11.550781 40 11 C 40 10.449219 39.550781 10 39 10 Z M 43 10 C 42.449219 10 42 10.449219 42 11 C 42 11.550781 42.449219 12 43 12 C 43.550781 12 44 11.550781 44 11 C 44 10.449219 43.550781 10 43 10 Z M 47 10 C 46.449219 10 46 10.449219 46 11 C 46 11.550781 46.449219 12 47 12 C 47.550781 12 48 11.550781 48 11 C 48 10.449219 47.550781 10 47 10 Z M 51 10 C 50.449219 10 50 10.449219 50 11 C 50 11.550781 50.449219 12 51 12 C 51.550781 12 52 11.550781 52 11 C 52 10.449219 51.550781 10 51 10 Z M 14 13 C 13.449219 13 13 13.449219 13 14 C 13 14.550781 13.449219 15 14 15 C 14.550781 15 15 14.550781 15 14 C 15 13.449219 14.550781 13 14 13 Z M 54 13 C 53.449219 13 53 13.449219 53 14 C 53 14.550781 53.449219 15 54 15 C 54.550781 15 55 14.550781 55 14 C 55 13.449219 54.550781 13 54 13 Z M 11 14 C 10.449219 14 10 14.449219 10 15 C 10 15.550781 10.449219 16 11 16 C 11.550781 16 12 15.550781 12 15 C 12 14.449219 11.550781 14 11 14 Z M 17 16 C 16.449219 16 16 16.449219 16 17 C 16 17.550781 16.449219 18 17 18 C 17.550781 18 18 17.550781 18 17 C 18 16.449219 17.550781 16 17 16 Z M 57 16 C 56.449219 16 56 16.449219 56 17 C 56 17.550781 56.449219 18 57 18 C 57.550781 18 58 17.550781 58 17 C 58 16.449219 57.550781 16 57 16 Z M 11 18 C 10.449219 18 10 18.449219 10 19 C 10 19.550781 10.449219 20 11 20 C 11.550781 20 12 19.550781 12 19 C 12 18.449219 11.550781 18 11 18 Z M 20 18 C 19.449219 18 19 18.449219 19 19 L 19 44.207031 C 19 44.472656 19.105469 44.726563 19.292969 44.914063 L 28.085938 53.707031 C 28.273438 53.894531 28.527344 54 28.792969 54 L 41 54 L 41 59 L 37 59 L 42 65 L 47 59 L 43 59 L 43 54 L 53 54 C 53.550781 54 54 53.550781 54 53 L 54 42 L 59 42 L 59 46 L 65 41 L 59 36 L 59 40 L 54 40 L 54 27.792969 C 54 27.507813 53.878906 27.238281 53.667969 27.046875 L 43.875 18.253906 C 43.691406 18.089844 43.453125 18 43.207031 18 Z M 60 19 C 59.449219 19 59 19.449219 59 20 C 59 20.550781 59.449219 21 60 21 C 60.550781 21 61 20.550781 61 20 C 61 19.449219 60.550781 19 60 19 Z M 21 20 L 42.824219 20 L 52 28.238281 L 52 52 L 29.207031 52 L 21 43.792969 Z M 11 22 C 10.449219 22 10 22.449219 10 23 C 10 23.550781 10.449219 24 11 24 C 11.550781 24 12 23.550781 12 23 C 12 22.449219 11.550781 22 11 22 Z M 23 22 C 22.449219 22 22 22.449219 22 23 C 22 23.550781 22.449219 24 23 24 C 23.550781 24 24 23.550781 24 23 C 24 22.449219 23.550781 22 23 22 Z M 63 22 C 62.449219 22 62 22.449219 62 23 C 62 23.550781 62.449219 24 63 24 C 63.550781 24 64 23.550781 64 23 C 64 22.449219 63.550781 22 63 22 Z M 26 25 C 25.449219 25 25 25.449219 25 26 C 25 26.550781 25.449219 27 26 27 C 26.550781 27 27 26.550781 27 26 C 27 25.449219 26.550781 25 26 25 Z M 66 25 C 65.449219 25 65 25.449219 65 26 C 65 26.550781 65.449219 27 66 27 C 66.550781 27 67 26.550781 67 26 C 67 25.449219 66.550781 25 66 25 Z M 11 26 C 10.449219 26 10 26.449219 10 27 C 10 27.550781 10.449219 28 11 28 C 11.550781 28 12 27.550781 12 27 C 12 26.449219 11.550781 26 11 26 Z M 29 28 C 28.449219 28 28 28.449219 28 29 C 28 29.550781 28.449219 30 29 30 C 29.550781 30 30 29.550781 30 29 C 30 28.449219 29.550781 28 29 28 Z M 33 28 C 32.449219 28 32 28.449219 32 29 C 32 29.550781 32.449219 30 33 30 C 33.550781 30 34 29.550781 34 29 C 34 28.449219 33.550781 28 33 28 Z M 37 28 C 36.449219 28 36 28.449219 36 29 C 36 29.550781 36.449219 30 37 30 C 37.550781 30 38 29.550781 38 29 C 38 28.449219 37.550781 28 37 28 Z M 41 28 C 40.449219 28 40 28.449219 40 29 C 40 29.550781 40.449219 30 41 30 C 41.550781 30 42 29.550781 42 29 C 42 28.449219 41.550781 28 41 28 Z M 45 28 C 44.449219 28 44 28.449219 44 29 C 44 29.550781 44.449219 30 45 30 C 45.550781 30 46 29.550781 46 29 C 46 28.449219 45.550781 28 45 28 Z M 49 28 C 48.449219 28 48 28.449219 48 29 C 48 29.550781 48.449219 30 49 30 C 49.550781 30 50 29.550781 50 29 C 50 28.449219 49.550781 28 49 28 Z M 57 28 C 56.449219 28 56 28.449219 56 29 C 56 29.550781 56.449219 30 57 30 C 57.550781 30 58 29.550781 58 29 C 58 28.449219 57.550781 28 57 28 Z M 61 28 C 60.449219 28 60 28.449219 60 29 C 60 29.550781 60.449219 30 61 30 C 61.550781 30 62 29.550781 62 29 C 62 28.449219 61.550781 28 61 28 Z M 65 28 C 64.449219 28 64 28.449219 64 29 C 64 29.550781 64.449219 30 65 30 C 65.550781 30 66 29.550781 66 29 C 66 28.449219 65.550781 28 65 28 Z M 69 28 C 68.449219 28 68 28.449219 68 29 C 68 29.550781 68.449219 30 69 30 C 69.550781 30 70 29.550781 70 29 C 70 28.449219 69.550781 28 69 28 Z M 11 30 C 10.449219 30 10 30.449219 10 31 C 10 31.550781 10.449219 32 11 32 C 11.550781 32 12 31.550781 12 31 C 12 30.449219 11.550781 30 11 30 Z M 29 32 C 28.449219 32 28 32.449219 28 33 C 28 33.550781 28.449219 34 29 34 C 29.550781 34 30 33.550781 30 33 C 30 32.449219 29.550781 32 29 32 Z M 69 32 C 68.449219 32 68 32.449219 68 33 C 68 33.550781 68.449219 34 69 34 C 69.550781 34 70 33.550781 70 33 C 70 32.449219 69.550781 32 69 32 Z M 11 34 C 10.449219 34 10 34.449219 10 35 C 10 35.550781 10.449219 36 11 36 C 11.550781 36 12 35.550781 12 35 C 12 34.449219 11.550781 34 11 34 Z M 29 36 C 28.449219 36 28 36.449219 28 37 C 28 37.550781 28.449219 38 29 38 C 29.550781 38 30 37.550781 30 37 C 30 36.449219 29.550781 36 29 36 Z M 69 36 C 68.449219 36 68 36.449219 68 37 C 68 37.550781 68.449219 38 69 38 C 69.550781 38 70 37.550781 70 37 C 70 36.449219 69.550781 36 69 36 Z M 11 38 C 10.449219 38 10 38.449219 10 39 C 10 39.550781 10.449219 40 11 40 C 11.550781 40 12 39.550781 12 39 C 12 38.449219 11.550781 38 11 38 Z M 29 40 C 28.449219 40 28 40.449219 28 41 C 28 41.550781 28.449219 42 29 42 C 29.550781 42 30 41.550781 30 41 C 30 40.449219 29.550781 40 29 40 Z M 69 40 C 68.449219 40 68 40.449219 68 41 C 68 41.550781 68.449219 42 69 42 C 69.550781 42 70 41.550781 70 41 C 70 40.449219 69.550781 40 69 40 Z M 11 42 C 10.449219 42 10 42.449219 10 43 C 10 43.550781 10.449219 44 11 44 C 11.550781 44 12 43.550781 12 43 C 12 42.449219 11.550781 42 11 42 Z M 29 44 C 28.449219 44 28 44.449219 28 45 C 28 45.550781 28.449219 46 29 46 C 29.550781 46 30 45.550781 30 45 C 30 44.449219 29.550781 44 29 44 Z M 69 44 C 68.449219 44 68 44.449219 68 45 C 68 45.550781 68.449219 46 69 46 C 69.550781 46 70 45.550781 70 45 C 70 44.449219 69.550781 44 69 44 Z M 11 46 C 10.449219 46 10 46.449219 10 47 C 10 47.550781 10.449219 48 11 48 C 11.550781 48 12 47.550781 12 47 C 12 46.449219 11.550781 46 11 46 Z M 29 48 C 28.449219 48 28 48.449219 28 49 C 28 49.550781 28.449219 50 29 50 C 29.550781 50 30 49.550781 30 49 C 30 48.449219 29.550781 48 29 48 Z M 69 48 C 68.449219 48 68 48.449219 68 49 C 68 49.550781 68.449219 50 69 50 C 69.550781 50 70 49.550781 70 49 C 70 48.449219 69.550781 48 69 48 Z M 11 50 C 10.449219 50 10 50.449219 10 51 C 10 51.550781 10.449219 52 11 52 C 11.550781 52 12 51.550781 12 51 C 12 50.449219 11.550781 50 11 50 Z M 69 52 C 68.449219 52 68 52.449219 68 53 C 68 53.550781 68.449219 54 69 54 C 69.550781 54 70 53.550781 70 53 C 70 52.449219 69.550781 52 69 52 Z M 14 54 C 13.449219 54 13 54.449219 13 55 C 13 55.550781 13.449219 56 14 56 C 14.550781 56 15 55.550781 15 55 C 15 54.449219 14.550781 54 14 54 Z M 29 56 C 28.449219 56 28 56.449219 28 57 C 28 57.550781 28.449219 58 29 58 C 29.550781 58 30 57.550781 30 57 C 30 56.449219 29.550781 56 29 56 Z M 69 56 C 68.449219 56 68 56.449219 68 57 C 68 57.550781 68.449219 58 69 58 C 69.550781 58 70 57.550781 70 57 C 70 56.449219 69.550781 56 69 56 Z M 17 57 C 16.449219 57 16 57.449219 16 58 C 16 58.550781 16.449219 59 17 59 C 17.550781 59 18 58.550781 18 58 C 18 57.449219 17.550781 57 17 57 Z M 20 60 C 19.449219 60 19 60.449219 19 61 C 19 61.550781 19.449219 62 20 62 C 20.550781 62 21 61.550781 21 61 C 21 60.449219 20.550781 60 20 60 Z M 29 60 C 28.449219 60 28 60.449219 28 61 C 28 61.550781 28.449219 62 29 62 C 29.550781 62 30 61.550781 30 61 C 30 60.449219 29.550781 60 29 60 Z M 69 60 C 68.449219 60 68 60.449219 68 61 C 68 61.550781 68.449219 62 69 62 C 69.550781 62 70 61.550781 70 61 C 70 60.449219 69.550781 60 69 60 Z M 23 63 C 22.449219 63 22 63.449219 22 64 C 22 64.550781 22.449219 65 23 65 C 23.550781 65 24 64.550781 24 64 C 24 63.449219 23.550781 63 23 63 Z M 29 64 C 28.449219 64 28 64.449219 28 65 C 28 65.550781 28.449219 66 29 66 C 29.550781 66 30 65.550781 30 65 C 30 64.449219 29.550781 64 29 64 Z M 69 64 C 68.449219 64 68 64.449219 68 65 C 68 65.550781 68.449219 66 69 66 C 69.550781 66 70 65.550781 70 65 C 70 64.449219 69.550781 64 69 64 Z M 26 66 C 25.449219 66 25 66.449219 25 67 C 25 67.550781 25.449219 68 26 68 C 26.550781 68 27 67.550781 27 67 C 27 66.449219 26.550781 66 26 66 Z M 29 68 C 28.449219 68 28 68.449219 28 69 C 28 69.550781 28.449219 70 29 70 C 29.550781 70 30 69.550781 30 69 C 30 68.449219 29.550781 68 29 68 Z M 33 68 C 32.449219 68 32 68.449219 32 69 C 32 69.550781 32.449219 70 33 70 C 33.550781 70 34 69.550781 34 69 C 34 68.449219 33.550781 68 33 68 Z M 37 68 C 36.449219 68 36 68.449219 36 69 C 36 69.550781 36.449219 70 37 70 C 37.550781 70 38 69.550781 38 69 C 38 68.449219 37.550781 68 37 68 Z M 41 68 C 40.449219 68 40 68.449219 40 69 C 40 69.550781 40.449219 70 41 70 C 41.550781 70 42 69.550781 42 69 C 42 68.449219 41.550781 68 41 68 Z M 45 68 C 44.449219 68 44 68.449219 44 69 C 44 69.550781 44.449219 70 45 70 C 45.550781 70 46 69.550781 46 69 C 46 68.449219 45.550781 68 45 68 Z M 49 68 C 48.449219 68 48 68.449219 48 69 C 48 69.550781 48.449219 70 49 70 C 49.550781 70 50 69.550781 50 69 C 50 68.449219 49.550781 68 49 68 Z M 53 68 C 52.449219 68 52 68.449219 52 69 C 52 69.550781 52.449219 70 53 70 C 53.550781 70 54 69.550781 54 69 C 54 68.449219 53.550781 68 53 68 Z M 57 68 C 56.449219 68 56 68.449219 56 69 C 56 69.550781 56.449219 70 57 70 C 57.550781 70 58 69.550781 58 69 C 58 68.449219 57.550781 68 57 68 Z M 61 68 C 60.449219 68 60 68.449219 60 69 C 60 69.550781 60.449219 70 61 70 C 61.550781 70 62 69.550781 62 69 C 62 68.449219 61.550781 68 61 68 Z M 65 68 C 64.449219 68 64 68.449219 64 69 C 64 69.550781 64.449219 70 65 70 C 65.550781 70 66 69.550781 66 69 C 66 68.449219 65.550781 68 65 68 Z M 69 68 C 68.449219 68 68 68.449219 68 69 C 68 69.550781 68.449219 70 69 70 C 69.550781 70 70 69.550781 70 69 C 70 68.449219 69.550781 68 69 68 Z"/></svg>