<?xml version="1.0"?><svg fill="#000000" xmlns="http://www.w3.org/2000/svg" viewBox="0 0 24 24" width="300px" height="300px">    <path d="M21.914,12.594C17.649,3,16.617,3,16,3c-1.501,0-2.595,1.954-2.895,2.553c-0.247,0.494-0.047,1.093,0.446,1.34 c0.493,0.249,1.094,0.047,1.342-0.444c0.261-0.517,0.669-1.073,0.932-1.321c0.726,0.93,2.262,3.923,3.623,6.873h0H4.552l0,0 c1.357-2.939,2.887-5.921,3.616-6.862C8.451,5.394,8.85,5.94,9.106,6.449c0.249,0.492,0.85,0.694,1.342,0.444 c0.493-0.248,0.693-0.847,0.446-1.34C10.595,4.954,9.501,3,8,3c-0.617,0-1.65,0-5.914,9.594c-0.058,0.13-0.084,0.265-0.085,0.398 C2.002,12.995,2,12.997,2,13v5c0,0.97,0.701,2,2,2h6.001c0.409,0,0.776-0.249,0.928-0.628L12,16.692l1.071,2.679 C13.223,19.751,13.591,20,14,20h6c1.299,0,2-1.03,2-2v-5c0-0.003-0.002-0.005-0.002-0.008 C21.997,12.859,21.971,12.723,21.914,12.594z"/></svg>