<svg fill="#000000" xmlns="http://www.w3.org/2000/svg" viewBox="0 0 64 64" width="50px" height="50px"><path d="M 15 8 C 14.111745 8 13.343416 8.4125438 12.580078 8.9746094 C 11.81674 9.536675 11.049055 10.289509 10.263672 11.173828 C 8.6929062 12.942467 7.0606998 15.243249 5.5625 17.537109 C 2.8220774 21.732909 0.76227613 25.523236 0.39257812 26.207031 A 1.0001 1.0001 0 0 0 0 27 L 0 27.011719 A 1.0001 1.0001 0 0 0 0 27.396484 L 0 47.625 C 0 48.914523 1.0516849 50 2.3476562 50 L 24.943359 50 C 26.349573 50 27.63166 49.184941 28.251953 47.919922 A 1.0001 1.0001 0 0 0 28.285156 47.84375 L 30.955078 41.037109 C 31.192247 40.560822 31.581522 40.371094 32 40.371094 C 32.418478 40.371094 32.807756 40.560824 33.044922 41.037109 L 35.714844 47.84375 A 1.0001 1.0001 0 0 0 35.748047 47.919922 C 36.368851 49.185978 37.651673 50 39.056641 50 L 61.652344 50 C 62.948315 50 64 48.914523 64 47.625 L 64 27.404297 A 1.0001 1.0001 0 0 0 64 27.009766 L 64 27 A 1.0001 1.0001 0 0 0 63.607422 26.207031 C 63.237724 25.523236 61.177923 21.732909 58.4375 17.537109 C 56.9393 15.243249 55.307094 12.942467 53.736328 11.173828 C 52.950945 10.289509 52.18326 9.536675 51.419922 8.9746094 C 50.656584 8.4125438 49.888255 8 49 8 C 47.765498 8 46.731894 8.3261465 45.962891 8.9199219 C 45.193887 9.5136972 44.725601 10.332081 44.449219 11.167969 C 43.896454 12.839744 44 14.675014 44 16 A 1.0001 1.0001 0 0 0 44.005859 16.103516 C 44.005859 16.103516 44.112807 17.225082 44.611328 18.392578 C 44.860588 18.976326 45.210944 19.595938 45.759766 20.107422 C 46.308547 20.618906 47.096002 21 48 21 C 48.454018 21 48.914451 20.769321 49.189453 20.478516 C 49.464456 20.18771 49.610831 19.866873 49.720703 19.541016 C 49.940447 18.889301 50.011096 18.165706 50.046875 17.386719 C 50.049375 17.333309 50.042922 17.290219 50.044922 17.236328 C 50.396829 18.228476 50.7497 19.169388 51.091797 20.291016 C 51.846968 22.766987 52.384155 24.780293 52.703125 26 L 37.390625 26 C 36.233794 26 35.451321 26.654271 34.660156 27.154297 C 33.868991 27.654322 33.069226 28 33 28 L 31 28 C 30.929831 28 30.128975 27.654271 29.337891 27.154297 C 28.546806 26.654322 27.766149 26 26.609375 26 L 11.296875 26 C 11.615845 24.780293 12.153032 22.766987 12.908203 20.291016 C 13.2503 19.169388 13.603171 18.228476 13.955078 17.236328 C 13.957078 17.290218 13.950725 17.333308 13.953125 17.386719 C 13.988905 18.165706 14.059553 18.889301 14.279297 19.541016 C 14.389169 19.866873 14.535544 20.18771 14.810547 20.478516 C 15.085596 20.769321 15.545982 21 16 21 C 16.903998 21 17.691412 20.618906 18.240234 20.107422 C 18.789056 19.595938 19.139412 18.976326 19.388672 18.392578 C 19.887193 17.225082 19.994141 16.103516 19.994141 16.103516 A 1.0001 1.0001 0 0 0 20 16 C 20 14.675014 20.103546 12.839744 19.550781 11.167969 C 19.274399 10.332081 18.806113 9.5136972 18.037109 8.9199219 C 17.268106 8.3261465 16.234502 8 15 8 z M 15 10 C 15.899998 10 16.433238 10.209557 16.814453 10.503906 C 17.195668 10.798256 17.462351 11.220309 17.652344 11.794922 C 18.026677 12.92705 17.994965 14.55934 17.994141 15.9375 C 17.989341 15.97826 17.895741 16.794967 17.548828 17.607422 C 17.371088 18.023674 17.132881 18.404062 16.876953 18.642578 C 16.675231 18.830577 16.445952 18.884331 16.185547 18.923828 C 16.179947 18.909158 16.181481 18.919024 16.175781 18.902344 C 16.071184 18.592023 15.982893 17.98556 15.951172 17.294922 C 15.88773 15.913646 16 14.189861 16 13 A 1.0001 1.0001 0 0 0 15 12 C 14.509207 12 14.2105 12.241667 14.007812 12.4375 C 13.805127 12.633333 13.660334 12.841961 13.515625 13.076172 C 13.226207 13.544594 12.957606 14.124788 12.677734 14.808594 C 12.117991 16.176205 11.534483 17.943774 10.996094 19.708984 C 10.103823 22.634461 9.4636937 25.087071 9.2285156 26 L 2.796875 26 C 3.6804635 24.410764 5.1535234 21.819795 7.2363281 18.630859 C 8.7045033 16.382969 10.305312 14.139627 11.759766 12.501953 C 12.486992 11.683116 13.179686 11.017379 13.765625 10.585938 C 14.351564 10.154495 14.821005 10 15 10 z M 49 10 C 49.178995 10 49.648436 10.154494 50.234375 10.585938 C 50.820314 11.01738 51.513008 11.683116 52.240234 12.501953 C 53.694688 14.139627 55.295497 16.382969 56.763672 18.630859 C 58.846476 21.819795 60.319536 24.410764 61.203125 26 L 54.771484 26 C 54.536306 25.087071 53.896176 22.634461 53.003906 19.708984 C 52.465517 17.943774 51.882009 16.176205 51.322266 14.808594 C 51.042394 14.124788 50.773793 13.544594 50.484375 13.076172 C 50.339713 12.841961 50.194873 12.633333 49.992188 12.4375 C 49.789501 12.241667 49.490793 12 49 12 A 1.0001 1.0001 0 0 0 48 13 C 48 14.189861 48.112268 15.913646 48.048828 17.294922 C 48.017108 17.98556 47.92885 18.592027 47.824219 18.902344 C 47.818619 18.919024 47.820153 18.909148 47.814453 18.923828 C 47.554048 18.884328 47.324769 18.830578 47.123047 18.642578 C 46.867119 18.404062 46.628912 18.023674 46.451172 17.607422 C 46.104254 16.794967 46.010673 15.978261 46.005859 15.9375 C 46.005035 14.55934 45.973319 12.92705 46.347656 11.794922 C 46.537649 11.220309 46.804332 10.798256 47.185547 10.503906 C 47.566794 10.209561 48.100002 10 49 10 z M 2 28 L 9.734375 28 A 1.0001 1.0001 0 0 0 10.25 28 L 26.609375 28 C 26.678605 28 27.478366 28.345678 28.269531 28.845703 C 29.060696 29.345729 29.843169 30 31 30 L 33 30 C 34.156774 30 34.937431 29.345678 35.728516 28.845703 C 36.5196 28.345729 37.320456 28 37.390625 28 L 53.755859 28 A 1.0001 1.0001 0 0 0 54.263672 28 L 62 28 L 62 47.625 C 62 47.853477 61.844372 48 61.652344 48 L 39.056641 48 C 38.425315 48 37.845646 47.638603 37.550781 47.046875 L 34.880859 40.236328 A 1.0001 1.0001 0 0 0 34.847656 40.160156 C 34.280397 39.004476 33.127144 38.371094 32 38.371094 C 30.872856 38.371094 29.7196 39.004478 29.152344 40.160156 A 1.0001 1.0001 0 0 0 29.119141 40.236328 L 26.449219 47.046875 C 26.15389 47.63961 25.577422 48 24.943359 48 L 2.3476562 48 C 2.1556277 48 2 47.853477 2 47.625 L 2 28 z M 7.4140625 29.982422 C 6.115777 29.982422 5 31.023119 5 32.335938 L 5 43.726562 C 5 44.995708 6.0788211 46 7.3320312 46 L 22.144531 46 C 23.216942 46 24.196573 45.390921 24.664062 44.427734 C 26.231202 42.226826 27.579437 38.02139 28.960938 33.279297 L 28.910156 33.416016 C 29.053545 33.101817 29.011899 32.715468 28.916016 32.492188 C 28.820096 32.268906 28.704147 32.145608 28.599609 32.042969 C 28.390534 31.837691 28.187389 31.713853 27.957031 31.583984 C 27.496273 31.324247 26.930247 31.08433 26.322266 30.857422 C 25.714284 30.630514 25.073264 30.42371 24.501953 30.269531 C 23.930642 30.115353 23.491737 30 23 30 A 1.0001 1.0001 0 0 0 22.857422 30.009766 A 1.0001 1.0001 0 0 0 22.615234 29.982422 L 7.4140625 29.982422 z M 41.382812 29.982422 C 41.351033 29.982422 41.314673 29.99907 41.283203 30 L 40.998047 30 A 1.0001 1.0001 0 0 0 40.478516 30.140625 C 40.265803 30.185735 40.083632 30.187595 39.832031 30.251953 C 39.228331 30.406375 38.543654 30.614395 37.890625 30.841797 C 37.237596 31.069198 36.624772 31.309202 36.132812 31.564453 C 35.886834 31.692079 35.674824 31.812867 35.455078 32.007812 C 35.345205 32.105283 35.223669 32.218132 35.113281 32.439453 C 35.002894 32.660774 34.937188 33.074912 35.089844 33.412109 L 35.039062 33.279297 C 36.419013 38.019472 37.766449 42.221928 39.333984 44.423828 C 39.799279 45.391867 40.781065 46 41.853516 46 L 56.667969 46 C 57.921179 46 59 44.995708 59 43.726562 L 59 32.337891 C 59 31.023937 57.881508 29.982422 56.582031 29.982422 L 41.574219 30 A 1.0001 1.0001 0 0 0 41.382812 29.982422 z M 22.761719 31.972656 A 1.0001 1.0001 0 0 0 23 32 C 23.01176 32 23.480655 32.06629 23.980469 32.201172 C 24.480283 32.336056 25.075528 32.526127 25.623047 32.730469 C 26.123885 32.917389 26.556528 33.114271 26.859375 33.275391 C 25.519083 37.798914 24.057381 41.916833 22.988281 43.373047 A 1.0001 1.0001 0 0 0 22.884766 43.550781 C 22.765914 43.811261 22.482505 44 22.144531 44 L 7.3320312 44 C 7.1132414 44 7 43.863417 7 43.726562 L 7 32.335938 C 7 32.154756 7.150348 31.982422 7.4140625 31.982422 L 22.615234 31.982422 A 1.0001 1.0001 0 0 0 22.761719 31.972656 z M 56.582031 31.982422 C 56.846555 31.982388 57 32.155844 57 32.337891 L 57 43.726562 C 57 43.863417 56.886759 44 56.667969 44 L 41.853516 44 C 41.515542 44 41.232472 43.808065 41.117188 43.552734 A 1.0001 1.0001 0 0 0 41.011719 43.373047 C 39.944175 41.920024 38.487533 37.812964 37.150391 33.300781 C 37.491261 33.131302 37.989514 32.925237 38.548828 32.730469 C 39.146424 32.52237 39.789294 32.327282 40.328125 32.189453 C 40.822022 32.063118 41.213437 32.010518 41.294922 32 L 56.582031 31.982422 z M 4 52 C 3.448 52 3 52.448 3 53 L 3 55 C 3 55.552 3.448 56 4 56 C 4.552 56 5 55.552 5 55 L 5 53 C 5 52.448 4.552 52 4 52 z M 9 52 C 8.448 52 8 52.448 8 53 L 8 55 C 8 55.552 8.448 56 9 56 C 9.552 56 10 55.552 10 55 L 10 53 C 10 52.448 9.552 52 9 52 z M 14 52 C 13.448 52 13 52.448 13 53 L 13 55 C 13 55.552 13.448 56 14 56 C 14.552 56 15 55.552 15 55 L 15 53 C 15 52.448 14.552 52 14 52 z M 19 52 C 18.448 52 18 52.448 18 53 L 18 55 C 18 55.552 18.448 56 19 56 C 19.552 56 20 55.552 20 55 L 20 53 C 20 52.448 19.552 52 19 52 z M 24 52 C 23.448 52 23 52.448 23 53 L 23 55 C 23 55.552 23.448 56 24 56 C 24.552 56 25 55.552 25 55 L 25 53 C 25 52.448 24.552 52 24 52 z M 40 52 C 39.448 52 39 52.448 39 53 L 39 55 C 39 55.552 39.448 56 40 56 C 40.552 56 41 55.552 41 55 L 41 53 C 41 52.448 40.552 52 40 52 z M 45 52 C 44.448 52 44 52.448 44 53 L 44 55 C 44 55.552 44.448 56 45 56 C 45.552 56 46 55.552 46 55 L 46 53 C 46 52.448 45.552 52 45 52 z M 50 52 C 49.448 52 49 52.448 49 53 L 49 55 C 49 55.552 49.448 56 50 56 C 50.552 56 51 55.552 51 55 L 51 53 C 51 52.448 50.552 52 50 52 z M 55 52 C 54.448 52 54 52.448 54 53 L 54 55 C 54 55.552 54.448 56 55 56 C 55.552 56 56 55.552 56 55 L 56 53 C 56 52.448 55.552 52 55 52 z M 60 52 C 59.448 52 59 52.448 59 53 L 59 55 C 59 55.552 59.448 56 60 56 C 60.552 56 61 55.552 61 55 L 61 53 C 61 52.448 60.552 52 60 52 z"/></svg>