<svg xmlns="http://www.w3.org/2000/svg" viewBox="0 0 64 64" width="50px" height="50px"><path fill="#c2cde7" d="M3,18V47c0,5.52,11.19,10,25,10s25-4.48,25-10V18Z"/><path fill="#ced8ed" d="M10,18H3V47c0,2.69,2.67,5.14,7,6.94Z"/><path fill="#b5c4e0" d="M38,18V56.17C46.83,54.62,53,51.1,53,47V18Z"/><path fill="#ced8ed" d="M28 7A25 10 0 1 0 28 27A25 10 0 1 0 28 7Z"/><path fill="#72caaf" d="M51 37A12 12 0 1 0 51 61A12 12 0 1 0 51 37Z"/><path fill="#8d6c9f" d="M29.11 12c.94 0 1.9.06 2.83.12H32a1 1 0 0 0 .07-2c-1-.07-2-.11-2.93-.13h0a1 1 0 0 0 0 2zM16.18 13.3a1 1 0 0 0 .24 0 45.23 45.23 0 0 1 8.31-1.18 1 1 0 0 0-.11-2 47.22 47.22 0 0 0-8.69 1.24 1 1 0 0 0 .24 2zM28 44a1 1 0 0 0-1 1v2a1 1 0 0 0 2 0V45A1 1 0 0 0 28 44zM33 43.8a1 1 0 0 0-1 1v2a1 1 0 0 0 2 0v-2A1 1 0 0 0 33 43.8z"/><path fill="#8d6c9f" d="M54,36.36V17C54,10.83,42.58,6,28,6S2,10.83,2,17V47c0,6.17,11.42,11,26,11a56.88,56.88,0,0,0,12.53-1.32A13,13,0,1,0,54,36.36ZM4,21.31C7.89,25.28,17.05,28,28,28s20.11-2.72,24-6.69V27c0,4.35-9.64,9-24,9S4,31.35,4,27ZM28,8c14.36,0,24,4.65,24,9s-9.64,9-24,9S4,21.35,4,17,13.64,8,28,8Zm0,48C13.64,56,4,51.35,4,47V41.29c3.21,3.3,10.08,5.78,18.86,6.5h.08a1,1,0,0,0,.08-2C12.18,44.91,4,41.12,4,37V31.31C7.89,35.28,17.05,38,28,38s20.11-2.72,24-6.69v4.74c-.33,0-.66-.05-1-.05a13,13,0,0,0-12,8,1,1,0,0,0-2,.06v2a1,1,0,0,0,1,1,1,1,0,0,0,.16,0,12.59,12.59,0,0,0,1.26,7.82A55.79,55.79,0,0,1,28,56Zm23,4A11,11,0,1,1,62,49,11,11,0,0,1,51,60Z"/><path fill="#f9efde" d="M57,48H52V43a1,1,0,0,0-2,0v5H45a1,1,0,0,0,0,2h5v5a1,1,0,0,0,2,0V50h5a1,1,0,0,0,0-2Z"/></svg>