<svg xmlns="http://www.w3.org/2000/svg" width="100" height="100" fill="#000" viewBox="0 0 50 50"><path d="M 21.980469 2 C 18.136719 2.085938 15.375 3.199219 13.765625 5.3125 C 11.949219 7.703125 11.632813 11.265625 12.796875 16.195313 C 12.386719 16.726563 12.011719 17.574219 12.109375 18.734375 C 12.402344 20.898438 13.226563 21.789063 13.898438 22.152344 C 14.234375 23.953125 15.21875 25.863281 16.101563 26.765625 C 16.105469 26.988281 16.109375 27.203125 16.113281 27.417969 C 16.132813 28.375 16.144531 29.203125 16.019531 30.265625 C 15.472656 31.671875 13.441406 32.476563 11.09375 33.40625 C 7.191406 34.953125 2.335938 36.878906 2 42.949219 L 1.945313 44 L 25.371094 44 C 25.179688 43.605469 25.015625 43.195313 24.859375 42.78125 C 24.566406 39.25 22.5 35.800781 22.5 35.800781 L 24.667969 33.902344 C 24.390625 33.347656 24.058594 32.925781 23.730469 32.582031 L 25.589844 31.550781 C 25.738281 31.265625 25.90625 30.992188 26.074219 30.71875 C 26.28125 30.378906 26.503906 30.050781 26.734375 29.734375 C 26.789063 29.664063 26.835938 29.589844 26.890625 29.519531 C 27.179688 29.140625 27.488281 28.773438 27.8125 28.425781 C 27.804688 27.878906 27.800781 27.34375 27.800781 26.753906 C 28.667969 25.839844 29.589844 23.925781 29.972656 22.191406 C 30.691406 21.851563 31.589844 20.96875 31.796875 18.683594 C 31.890625 17.558594 31.582031 16.730469 31.15625 16.199219 C 31.816406 14.128906 32.9375 9.535156 31.09375 6.488281 C 30.253906 5.101563 28.941406 4.230469 27.183594 3.882813 C 26.21875 2.664063 24.398438 2 21.980469 2 Z M 22 4 C 23.890625 4 25.253906 4.476563 25.734375 5.304688 L 25.980469 5.722656 L 26.457031 5.789063 C 27.835938 5.984375 28.792969 6.550781 29.378906 7.523438 C 30.664063 9.640625 30.007813 13.5 29.058594 16.160156 L 28.742188 16.984375 L 29.535156 17.382813 C 29.625 17.445313 29.863281 17.789063 29.804688 18.507813 C 29.667969 19.988281 29.199219 20.382813 29.097656 20.402344 L 28.234375 20.402344 L 28.109375 21.261719 C 27.835938 23.183594 26.683594 25.15625 26.304688 25.433594 L 25.800781 25.71875 L 25.800781 26.300781 C 25.800781 27.320313 25.8125 28.195313 25.84375 29.121094 L 22 31.253906 L 18.105469 29.09375 C 18.125 28.503906 18.121094 27.945313 18.109375 27.378906 C 18.105469 27.035156 18.097656 26.679688 18.097656 26.296875 L 18.035156 25.734375 L 17.609375 25.4375 C 17.214844 25.167969 15.972656 23.171875 15.796875 21.304688 L 15.78125 20.40625 L 14.875 20.40625 C 14.730469 20.351563 14.285156 19.878906 14.09375 18.515625 C 14.027344 17.679688 14.453125 17.332031 14.453125 17.332031 L 15.046875 16.9375 L 14.871094 16.253906 C 13.707031 11.667969 13.867188 8.484375 15.359375 6.523438 C 16.578125 4.921875 18.820313 4.070313 22 4 Z M 38 26 C 31.390625 26 26 31.394531 26 38 C 26 44.605469 31.390625 50 38 50 C 44.609375 50 50 44.605469 50 38 C 50 31.394531 44.609375 26 38 26 Z M 38 28 C 43.523438 28 48 32.476563 48 38 C 48 43.523438 43.523438 48 38 48 C 32.476563 48 28 43.523438 28 38 C 28 32.476563 32.476563 28 38 28 Z M 17.773438 31.195313 L 20.269531 32.582031 L 17.988281 35.417969 L 16.121094 33.152344 C 16.84375 32.617188 17.414063 31.984375 17.773438 31.195313 Z M 37 32 L 37 37 L 32 37 L 32 39 L 37 39 L 37 44 L 39 44 L 39 39 L 44 39 L 44 37 L 39 37 L 39 32 Z M 14.375 34.179688 L 17.230469 37.636719 C 17.417969 37.867188 17.707031 38.003906 18.007813 38 C 18.308594 38 18.589844 37.859375 18.78125 37.625 L 20.742188 35.1875 L 21.5 35.800781 C 21.5 35.800781 19.746094 38.8125 19.242188 42 L 4.121094 42 C 4.855469 38.027344 8.398438 36.625 11.828125 35.265625 C 12.714844 34.914063 13.578125 34.566406 14.375 34.179688 Z"/></svg>