<svg xmlns="http://www.w3.org/2000/svg" width="50" height="50" fill="#000" viewBox="0 0 100 100"><path d="M 45.5 18.988281 C 34.319 18.988281 23 21.475422 23 26.232422 L 23 38.017578 C 23 38.773578 23.287453 39.472281 23.814453 40.113281 C 23.291453 40.750281 23 41.443313 23 42.195312 L 23 53.980469 C 23 54.950469 23.477266 55.825469 24.322266 56.605469 C 23.478266 57.384469 23 58.255609 23 59.224609 L 23 71.009766 C 23 75.765766 34.319 78.253906 45.5 78.253906 C 47.819 78.253906 50.136234 78.140734 52.365234 77.927734 C 54.930234 79.807734 58.083 80.931641 61.5 80.931641 C 70.047 80.931641 77 73.978641 77 65.431641 C 77 59.208641 73.305 53.844859 68 51.380859 L 68 42.195312 C 68 41.443312 67.704594 40.753234 67.183594 40.115234 C 67.711594 39.474234 68 38.775578 68 38.017578 L 68 26.232422 C 68 21.475422 56.681 18.988281 45.5 18.988281 z M 45.5 20.988281 C 58.201 20.988281 66 24.042422 66 26.232422 L 66 27.005859 C 64.646 29.484859 56.578391 31.974609 45.400391 31.974609 C 39.909391 31.974609 34.710766 31.367625 30.759766 30.265625 C 30.490766 30.189625 30.216578 30.346328 30.142578 30.611328 C 30.068578 30.878328 30.224234 31.154516 30.490234 31.228516 C 34.526234 32.354516 39.821391 32.974609 45.400391 32.974609 C 54.002391 32.974609 62.835 31.362453 66 28.564453 L 66 38.017578 C 66 40.207578 58.201 43.261719 45.5 43.261719 C 32.799 43.261719 25 40.208578 25 38.017578 L 25 28.744141 C 25.437 29.100141 25.963562 29.443484 26.601562 29.771484 C 26.846563 29.898484 27.150391 29.801688 27.275391 29.554688 C 27.402391 29.308688 27.303594 29.008812 27.058594 28.882812 C 26.316594 28.500812 25.488 27.969797 25 27.341797 L 25 26.232422 C 25 24.042422 32.799 20.988281 45.5 20.988281 z M 28.888672 29.708984 C 28.695172 29.719953 28.513109 29.847219 28.443359 30.042969 C 28.350359 30.302969 28.487047 30.589641 28.748047 30.681641 L 29.115234 30.808594 C 29.168234 30.827594 29.222391 30.833984 29.275391 30.833984 C 29.484391 30.833984 29.677047 30.701187 29.748047 30.492188 C 29.836047 30.230188 29.696547 29.947375 29.435547 29.859375 L 29.082031 29.738281 C 29.018281 29.714531 28.953172 29.705328 28.888672 29.708984 z M 65.681641 41.410156 C 65.886641 41.679156 66 41.943313 66 42.195312 L 66 43.017578 C 65.563 43.785578 64.494766 44.555047 62.884766 45.248047 C 62.630766 45.356047 62.514047 45.651297 62.623047 45.904297 C 62.731047 46.159297 63.026297 46.277969 63.279297 46.167969 C 64.442297 45.666969 65.344 45.114344 66 44.527344 L 66 50.605469 C 64.575 50.171469 63.065 49.933594 61.5 49.933594 C 55.172 49.933594 49.725312 53.749266 47.320312 59.197266 C 46.725313 59.213266 46.123 59.226563 45.5 59.226562 C 32.799 59.226562 25 56.170469 25 53.980469 L 25 44.699219 C 28.326 47.392219 36.975391 48.9375 45.400391 48.9375 C 49.904391 48.9375 54.219812 48.537344 57.882812 47.777344 C 58.153813 47.721344 58.327484 47.456547 58.271484 47.185547 C 58.215484 46.914547 57.944688 46.739828 57.679688 46.798828 C 54.082687 47.543828 49.836391 47.9375 45.400391 47.9375 C 34.713391 47.9375 26.853 45.662875 25 43.296875 L 25 42.195312 C 25 41.944313 25.116313 41.680109 25.320312 41.412109 C 29.200312 43.950109 37.385 45.263672 45.5 45.263672 C 53.617 45.263672 61.803641 43.949156 65.681641 41.410156 z M 60.330078 46.189453 C 60.265484 46.181234 60.198109 46.184875 60.130859 46.203125 L 59.617188 46.34375 C 59.350187 46.41475 59.191672 46.689078 59.263672 46.955078 C 59.323672 47.179078 59.525094 47.326172 59.746094 47.326172 C 59.788094 47.326172 59.833953 47.322547 59.876953 47.310547 L 60.400391 47.166016 C 60.666391 47.091016 60.820094 46.813828 60.746094 46.548828 C 60.689844 46.350078 60.523859 46.214109 60.330078 46.189453 z M 61.5 51.933594 C 68.944 51.933594 75 57.989594 75 65.433594 C 75 72.877594 68.944 78.933594 61.5 78.933594 C 54.056 78.933594 48 72.877594 48 65.433594 C 48 57.989594 54.056 51.933594 61.5 51.933594 z M 25.998047 57.785156 C 30.100047 60.055156 37.832 61.226563 45.5 61.226562 C 45.867 61.226562 46.233609 61.215938 46.599609 61.210938 C 46.263609 62.395937 46.067391 63.636969 46.025391 64.917969 C 45.685391 64.923969 45.349 64.933594 45 64.933594 C 35.087 64.933594 27.595 63.073094 25 60.996094 L 25 59.224609 C 25 58.770609 25.347047 58.278156 25.998047 57.785156 z M 61.626953 58.404297 C 61.350953 58.404297 61.126953 58.628297 61.126953 58.904297 L 61.126953 64.966797 L 55.376953 64.966797 C 55.100953 64.966797 54.876953 65.190797 54.876953 65.466797 C 54.876953 65.604797 54.931484 65.729313 55.021484 65.820312 C 55.111484 65.911312 55.237953 65.966797 55.376953 65.966797 L 61.126953 65.966797 L 61.126953 72.029297 C 61.126953 72.167297 61.181484 72.291812 61.271484 72.382812 C 61.361484 72.473812 61.487953 72.529297 61.626953 72.529297 C 61.902953 72.529297 62.126953 72.305297 62.126953 72.029297 L 62.126953 65.966797 L 67.876953 65.966797 C 68.152953 65.966797 68.376953 65.742797 68.376953 65.466797 C 68.376953 65.190797 68.152953 64.966797 67.876953 64.966797 L 62.126953 64.966797 L 62.126953 58.904297 C 62.126953 58.628297 61.902953 58.404297 61.626953 58.404297 z M 25 62.267578 C 28.718 64.664578 37.044 65.933594 45 65.933594 C 45.341 65.933594 45.683391 65.924922 46.025391 65.919922 C 46.148391 69.852922 47.735531 73.415938 50.269531 76.085938 C 48.763531 76.186937 47.191953 76.253906 45.501953 76.253906 C 32.799953 76.254906 25 73.199766 25 71.009766 L 25 62.267578 z"/></svg>