<svg xmlns="http://www.w3.org/2000/svg" width="300" height="300" fill="#000" viewBox="0 0 24 24"><path d="M 5 3 C 3.895 3 3 3.895 3 5 L 3 15.171875 C 3 15.966875 3.3169062 16.729969 3.8789062 17.292969 L 6.7070312 20.121094 C 7.2700312 20.683094 8.032125 21 8.828125 21 L 13 21 C 13.552 21 14 20.552 14 20 C 14 19.448 13.552 19 13 19 L 9 19 L 9 9 L 19 9 L 19 10.998047 C 19 11.270047 19.110641 11.53075 19.306641 11.71875 C 19.941641 12.33075 21 11.880047 21 10.998047 L 21 8.828125 C 21 8.033125 20.683094 7.2700313 20.121094 6.7070312 L 17.292969 3.8789062 C 16.729969 3.3169063 15.966875 3 15.171875 3 L 5 3 z M 6.4140625 5 L 15.171875 5 C 15.436875 5 15.691906 5.1049688 15.878906 5.2929688 L 17.585938 7 L 8.4140625 7 L 6.4140625 5 z M 5 6.4140625 L 7 8.4140625 L 7 17.585938 L 5.2929688 15.878906 C 5.1049688 15.690906 5 15.436875 5 15.171875 L 5 6.4140625 z M 16.632812 12.005859 C 16.297754 12.04917 16 12.325781 16 12.722656 L 16 19.863281 C 16 20.302281 16.526703 20.529563 16.845703 20.226562 L 18.207031 18.929688 L 19.677734 22.322266 C 19.930734 22.905266 20.615453 23.163578 21.189453 22.892578 C 21.743453 22.630578 21.985422 21.971109 21.732422 21.412109 L 20.201172 18.029297 L 22.033203 18.029297 C 22.483203 18.029297 22.704859 17.481922 22.380859 17.169922 L 17.220703 12.203125 C 17.048953 12.038125 16.833848 11.979873 16.632812 12.005859 z"/></svg>