<svg fill="#000000" xmlns="http://www.w3.org/2000/svg" viewBox="0 0 80 80" width="300px" height="300px"><path d="M 32.427734 8 C 28.92824 8 26.024576 10.622204 25.566406 14 L 25.332031 14 C 23.471567 14 22 15.59595 22 17.470703 L 22 18 L 17.103516 18 C 13.736804 18 11 20.782495 11 24.171875 L 11 63.828125 C 11 67.217505 13.736804 70 17.103516 70 L 63.896484 70 C 67.263196 70 70 67.216365 70 63.826172 L 70 24.171875 C 70 20.88742 67.427818 18.180546 64.205078 18.015625 C 64.002224 17.948725 42.472872 10.848108 38.238281 9.4023438 C 36.708626 8.878939 34.691209 8 32.427734 8 z M 32.427734 10 C 34.152259 10 35.953452 10.734327 37.591797 11.294922 C 40.797237 12.389316 51.383686 15.886957 57.785156 18 L 31 18 L 31 17.470703 C 31 15.595325 29.527035 14 27.666016 14 L 27.585938 14 C 28.018441 11.715076 30.011874 10 32.427734 10 z M 25.332031 16 L 27.666016 16 C 28.382996 16 29 16.616082 29 17.470703 L 29 18.832031 A 1.0001 1.0001 0 0 0 29 19.158203 L 29 26.529297 C 29 27.382544 28.383505 28 27.667969 28 L 25.333984 28 C 24.617004 28 24 27.383918 24 26.529297 L 24 25.167969 A 1.0001 1.0001 0 0 0 24 24.841797 L 24 19.167969 A 1.0001 1.0001 0 0 0 24 18.841797 L 24 17.470703 C 24 16.617456 24.616495 16 25.332031 16 z M 17.103516 20 L 22 20 L 22 24 L 21.291016 24 C 18.933197 24 17 25.933197 17 28.291016 L 17 30 A 1.0001 1.0001 0 1 0 19 30 L 19 28.291016 C 19 27.014834 20.014834 26 21.291016 26 L 22 26 L 22 26.529297 C 22 28.404675 23.472965 30 25.333984 30 L 25.509766 30 A 1.0001 1.0001 0 0 0 25.496094 30.177734 L 25.496094 32.71875 A 1.0001 1.0001 0 1 0 27.496094 32.71875 L 27.496094 30.177734 A 1.0001 1.0001 0 0 0 27.482422 30 L 27.667969 30 C 29.528433 30 31 28.40405 31 26.529297 L 31 26 L 59.667969 26 C 60.96144 26 62 27.045954 62 28.378906 L 62 30 A 1.0001 1.0001 0 1 0 64 30 L 64 28.378906 C 64 25.979859 62.056497 24 59.667969 24 L 31 24 L 31 20 L 63.896484 20 C 66.167772 20 68 21.849255 68 24.171875 L 68 63.826172 C 68 66.149979 66.167772 68 63.896484 68 L 17.103516 68 C 14.832228 68 13 66.150745 13 63.828125 L 13 24.171875 C 13 21.849255 14.832228 20 17.103516 20 z M 40.453125 30.023438 A 1.0001 1.0001 0 0 0 40.013672 30.136719 L 28.701172 36.001953 A 1.0001 1.0001 0 0 0 28.037109 37.091797 L 28.037109 50.083984 A 1.0001 1.0001 0 0 0 28.552734 50.958984 L 39.988281 57.310547 A 1.0001 1.0001 0 0 0 40.960938 57.310547 C 44.803052 55.165482 48.646281 53.019047 52.488281 50.873047 A 1.0001 1.0001 0 0 0 53 50 L 53 37.193359 A 1.0001 1.0001 0 0 0 52.298828 36.027344 L 40.933594 30.136719 A 1.0001 1.0001 0 0 0 40.453125 30.023438 z M 40.474609 32.150391 L 49.867188 37.019531 L 44.232422 40.074219 A 1.0001 1.0001 0 0 0 44.224609 40.080078 L 40.474609 42.162109 L 31.152344 36.984375 L 40.474609 32.150391 z M 18 33 L 17.199219 33.402344 L 17.041016 34.283203 L 17.652344 34.9375 L 18 35 L 18.800781 34.597656 L 18.958984 33.716797 L 18.347656 33.0625 L 18 33 z M 63 33 L 62.199219 33.402344 L 62.041016 34.283203 L 62.652344 34.9375 L 63 35 L 63.800781 34.597656 L 63.958984 33.716797 L 63.347656 33.0625 L 63 33 z M 18 37 L 17.199219 37.402344 L 17.041016 38.283203 L 17.652344 38.9375 L 18 39 L 18.800781 38.597656 L 18.958984 37.716797 L 18.347656 37.0625 L 18 37 z M 63 37 L 62.199219 37.402344 L 62.041016 38.283203 L 62.652344 38.9375 L 63 39 L 63.800781 38.597656 L 63.958984 37.716797 L 63.347656 37.0625 L 63 37 z M 30.037109 38.652344 L 39.474609 43.896484 L 39.474609 54.738281 L 30.037109 49.494141 L 30.037109 38.652344 z M 51 38.679688 L 51 49.412109 C 47.824719 51.185703 44.649812 52.959497 41.474609 54.732422 L 41.474609 43.894531 L 45.191406 41.830078 L 51 38.679688 z M 18 41 L 17.199219 41.402344 L 17.041016 42.283203 L 17.652344 42.9375 L 18 43 L 18.800781 42.597656 L 18.958984 41.716797 L 18.347656 41.0625 L 18 41 z M 63 41 L 62.199219 41.402344 L 62.041016 42.283203 L 62.652344 42.9375 L 63 43 L 63.800781 42.597656 L 63.958984 41.716797 L 63.347656 41.0625 L 63 41 z M 18 45 L 17.199219 45.402344 L 17.041016 46.283203 L 17.652344 46.9375 L 18 47 L 18.800781 46.597656 L 18.958984 45.716797 L 18.347656 45.0625 L 18 45 z M 63 45 L 62.199219 45.402344 L 62.041016 46.283203 L 62.652344 46.9375 L 63 47 L 63.800781 46.597656 L 63.958984 45.716797 L 63.347656 45.0625 L 63 45 z M 18 49 L 17.199219 49.402344 L 17.041016 50.283203 L 17.652344 50.9375 L 18 51 L 18.800781 50.597656 L 18.958984 49.716797 L 18.347656 49.0625 L 18 49 z M 63 49 L 62.199219 49.402344 L 62.041016 50.283203 L 62.652344 50.9375 L 63 51 L 63.800781 50.597656 L 63.958984 49.716797 L 63.347656 49.0625 L 63 49 z M 62.984375 52.986328 A 1.0001 1.0001 0 0 0 62 54 L 62 55 L 53.603516 55 C 51.072812 55 49 57.072812 49 59.603516 L 49 62 L 21.332031 62 C 20.03856 62 19 60.954046 19 59.621094 L 19 58 A 1.0001 1.0001 0 1 0 17 58 L 17 59.621094 C 17 62.020141 18.943503 64 21.332031 64 L 50 64 A 1.0001 1.0001 0 0 0 51 63 L 51 59.603516 C 51 58.154219 52.154219 57 53.603516 57 L 63 57 A 1.0001 1.0001 0 0 0 64 56 L 64 54 A 1.0001 1.0001 0 0 0 62.984375 52.986328 z M 18 53 L 17.199219 53.402344 L 17.041016 54.283203 L 17.652344 54.9375 L 18 55 L 18.800781 54.597656 L 18.958984 53.716797 L 18.347656 53.0625 L 18 53 z M 54 59 A 1.0001 1.0001 0 0 0 53 60 L 53 64 A 1.0001 1.0001 0 0 0 54 65 L 63 65 A 1.0001 1.0001 0 0 0 64 64 L 64 60 A 1.0001 1.0001 0 0 0 63 59 L 54 59 z M 55 61 L 62 61 L 62 63 L 55 63 L 55 61 z"/></svg>