<svg xmlns="http://www.w3.org/2000/svg" viewBox="0 0 30 30" width="100px" height="100px"><path fill="#36404d" d="M26.355,7.169c-1.916-0.427-4.341-1.262-6.686-2.07C16.526,4.017,13.571,3,12,3C8.924,3,9,4.902,9,5	v1H8V5c0-1.172,0.749-3,4-3c1.739,0,4.77,1.044,7.979,2.149c2.334,0.804,4.732,1.629,6.594,2.044L26.355,7.169z"/><path fill="#b0c1d4" d="M4,27.5c-0.827,0-1.5-0.673-1.5-1.5V8c0-0.827,0.673-1.5,1.5-1.5h22c0.827,0,1.5,0.673,1.5,1.5v18 c0,0.827-0.673,1.5-1.5,1.5H4z"/><path fill="#66798f" d="M26,7c0.551,0,1,0.449,1,1v18c0,0.551-0.449,1-1,1H4c-0.551,0-1-0.449-1-1V8c0-0.551,0.449-1,1-1H26 M26,6H4C2.9,6,2,6.9,2,8v18c0,1.105,0.895,2,2,2h22c1.1,0,2-0.9,2-2V8C28,6.9,27.1,6,26,6L26,6z"/><path fill="#fff" d="M5 9H25V25H5z"/><path fill="#b0c1d4" d="M26,26h-7v-2c0-1.105,0.895-2,2-2h5V26z"/><path fill="#f78f8f" d="M10.5 19.474L10.5 13.526 15 11.546 19.5 13.526 19.5 19.474 15 21.454z"/><path fill="#c74343" d="M15,12.093l4,1.76v5.295l-4,1.76l-4-1.76v-5.295L15,12.093 M15,11l-5,2.2v6.6l5,2.2l5-2.2v-6.6 L15,11L15,11z"/><path fill="#36404d" d="M8 9H9V12H8z"/><path fill="#ffeea3" d="M21 24H25V25H21z"/><path fill="#c74343" d="M15 22L20 19.8 20 13.2 15 15.4z"/><path fill="#d86464" d="M11 13.853L11 13.867 15 15.4 18.758 13.746 15 12.093z"/><g><path fill="#8bb7f0" d="M7.5 5.5H9.5V10.5H7.5z"/><path fill="#4e7ab5" d="M9,6v4H8V6H9 M10,5H7v6h3V5L10,5z"/></g></svg>