<svg xmlns="http://www.w3.org/2000/svg" width="500" height="500" fill="#000" viewBox="0 0 50 50"><path d="M 25 2 A 1 1 0 0 0 24 3 A 1 1 0 0 0 25 4 A 1 1 0 0 0 26 3 A 1 1 0 0 0 25 2 z M 20.699219 2.4003906 A 1 1 0 0 0 19.699219 3.4003906 A 1 1 0 0 0 20.699219 4.4003906 A 1 1 0 0 0 21.699219 3.4003906 A 1 1 0 0 0 20.699219 2.4003906 z M 29.300781 2.4003906 A 1 1 0 0 0 28.300781 3.4003906 A 1 1 0 0 0 29.300781 4.4003906 A 1 1 0 0 0 30.300781 3.4003906 A 1 1 0 0 0 29.300781 2.4003906 z M 16.599609 3.6992188 A 1 1 0 0 0 15.599609 4.6992188 A 1 1 0 0 0 16.599609 5.6992188 A 1 1 0 0 0 17.599609 4.6992188 A 1 1 0 0 0 16.599609 3.6992188 z M 33.400391 3.6992188 A 1 1 0 0 0 32.400391 4.6992188 A 1 1 0 0 0 33.400391 5.6992188 A 1 1 0 0 0 34.400391 4.6992188 A 1 1 0 0 0 33.400391 3.6992188 z M 12.800781 5.6992188 A 1 1 0 0 0 11.800781 6.6992188 A 1 1 0 0 0 12.800781 7.6992188 A 1 1 0 0 0 13.800781 6.6992188 A 1 1 0 0 0 12.800781 5.6992188 z M 37.199219 5.6992188 A 1 1 0 0 0 36.199219 6.6992188 A 1 1 0 0 0 37.199219 7.6992188 A 1 1 0 0 0 38.199219 6.6992188 A 1 1 0 0 0 37.199219 5.6992188 z M 25 8 C 15.628926 8 8 15.628926 8 25 C 8 34.371074 15.628926 42 25 42 C 34.371074 42 42 34.371074 42 25 C 42 15.628926 34.371074 8 25 8 z M 9.4003906 8.4003906 A 1 1 0 0 0 8.4003906 9.4003906 A 1 1 0 0 0 9.4003906 10.400391 A 1 1 0 0 0 10.400391 9.4003906 A 1 1 0 0 0 9.4003906 8.4003906 z M 40.599609 8.4003906 A 1 1 0 0 0 39.599609 9.4003906 A 1 1 0 0 0 40.599609 10.400391 A 1 1 0 0 0 41.599609 9.4003906 A 1 1 0 0 0 40.599609 8.4003906 z M 25 11 C 32.749753 11 39 17.250247 39 25 C 39 32.749753 32.749753 39 25 39 C 17.250247 39 11 32.749753 11 25 C 11 17.250247 17.250247 11 25 11 z M 6.6992188 11.800781 A 1 1 0 0 0 5.6992188 12.800781 A 1 1 0 0 0 6.6992188 13.800781 A 1 1 0 0 0 7.6992188 12.800781 A 1 1 0 0 0 6.6992188 11.800781 z M 43.300781 11.800781 A 1 1 0 0 0 42.300781 12.800781 A 1 1 0 0 0 43.300781 13.800781 A 1 1 0 0 0 44.300781 12.800781 A 1 1 0 0 0 43.300781 11.800781 z M 25 15 C 19.512686 15 15 19.512686 15 25 C 15 30.487314 19.512686 35 25 35 C 30.487314 35 35 30.487314 35 25 C 35 19.512686 30.487314 15 25 15 z M 4.6992188 15.599609 A 1 1 0 0 0 3.6992188 16.599609 A 1 1 0 0 0 4.6992188 17.599609 A 1 1 0 0 0 5.6992188 16.599609 A 1 1 0 0 0 4.6992188 15.599609 z M 45.300781 15.599609 A 1 1 0 0 0 44.300781 16.599609 A 1 1 0 0 0 45.300781 17.599609 A 1 1 0 0 0 46.300781 16.599609 A 1 1 0 0 0 45.300781 15.599609 z M 3.4003906 19.699219 A 1 1 0 0 0 2.4003906 20.699219 A 1 1 0 0 0 3.4003906 21.699219 A 1 1 0 0 0 4.4003906 20.699219 A 1 1 0 0 0 3.4003906 19.699219 z M 46.599609 19.699219 A 1 1 0 0 0 45.599609 20.699219 A 1 1 0 0 0 46.599609 21.699219 A 1 1 0 0 0 47.599609 20.699219 A 1 1 0 0 0 46.599609 19.699219 z M 25 21 C 27.244673 21 29 22.755327 29 25 C 29 27.244673 27.244673 29 25 29 C 22.755327 29 21 27.244673 21 25 C 21 22.755327 22.755327 21 25 21 z M 3 24 A 1 1 0 0 0 2 25 A 1 1 0 0 0 3 26 A 1 1 0 0 0 4 25 A 1 1 0 0 0 3 24 z M 47 24 A 1 1 0 0 0 46 25 A 1 1 0 0 0 47 26 A 1 1 0 0 0 48 25 A 1 1 0 0 0 47 24 z M 3.4003906 28.300781 A 1 1 0 0 0 2.4003906 29.300781 A 1 1 0 0 0 3.4003906 30.300781 A 1 1 0 0 0 4.4003906 29.300781 A 1 1 0 0 0 3.4003906 28.300781 z M 46.599609 28.300781 A 1 1 0 0 0 45.599609 29.300781 A 1 1 0 0 0 46.599609 30.300781 A 1 1 0 0 0 47.599609 29.300781 A 1 1 0 0 0 46.599609 28.300781 z M 4.6992188 32.400391 A 1 1 0 0 0 3.6992188 33.400391 A 1 1 0 0 0 4.6992188 34.400391 A 1 1 0 0 0 5.6992188 33.400391 A 1 1 0 0 0 4.6992188 32.400391 z M 45.300781 32.400391 A 1 1 0 0 0 44.300781 33.400391 A 1 1 0 0 0 45.300781 34.400391 A 1 1 0 0 0 46.300781 33.400391 A 1 1 0 0 0 45.300781 32.400391 z M 6.6992188 36.199219 A 1 1 0 0 0 5.6992188 37.199219 A 1 1 0 0 0 6.6992188 38.199219 A 1 1 0 0 0 7.6992188 37.199219 A 1 1 0 0 0 6.6992188 36.199219 z M 43.300781 36.199219 A 1 1 0 0 0 42.300781 37.199219 A 1 1 0 0 0 43.300781 38.199219 A 1 1 0 0 0 44.300781 37.199219 A 1 1 0 0 0 43.300781 36.199219 z M 9.4003906 39.599609 A 1 1 0 0 0 8.4003906 40.599609 A 1 1 0 0 0 9.4003906 41.599609 A 1 1 0 0 0 10.400391 40.599609 A 1 1 0 0 0 9.4003906 39.599609 z M 40.599609 39.599609 A 1 1 0 0 0 39.599609 40.599609 A 1 1 0 0 0 40.599609 41.599609 A 1 1 0 0 0 41.599609 40.599609 A 1 1 0 0 0 40.599609 39.599609 z M 12.800781 42.300781 A 1 1 0 0 0 11.800781 43.300781 A 1 1 0 0 0 12.800781 44.300781 A 1 1 0 0 0 13.800781 43.300781 A 1 1 0 0 0 12.800781 42.300781 z M 37.199219 42.300781 A 1 1 0 0 0 36.199219 43.300781 A 1 1 0 0 0 37.199219 44.300781 A 1 1 0 0 0 38.199219 43.300781 A 1 1 0 0 0 37.199219 42.300781 z M 16.599609 44.300781 A 1 1 0 0 0 15.599609 45.300781 A 1 1 0 0 0 16.599609 46.300781 A 1 1 0 0 0 17.599609 45.300781 A 1 1 0 0 0 16.599609 44.300781 z M 33.400391 44.300781 A 1 1 0 0 0 32.400391 45.300781 A 1 1 0 0 0 33.400391 46.300781 A 1 1 0 0 0 34.400391 45.300781 A 1 1 0 0 0 33.400391 44.300781 z M 20.699219 45.599609 A 1 1 0 0 0 19.699219 46.599609 A 1 1 0 0 0 20.699219 47.599609 A 1 1 0 0 0 21.699219 46.599609 A 1 1 0 0 0 20.699219 45.599609 z M 29.300781 45.599609 A 1 1 0 0 0 28.300781 46.599609 A 1 1 0 0 0 29.300781 47.599609 A 1 1 0 0 0 30.300781 46.599609 A 1 1 0 0 0 29.300781 45.599609 z M 25 46 A 1 1 0 0 0 24 47 A 1 1 0 0 0 25 48 A 1 1 0 0 0 26 47 A 1 1 0 0 0 25 46 z"/></svg>