<svg xmlns="http://www.w3.org/2000/svg" viewBox="0 0 48 48" width="50px" height="50px"><path fill="#c0e6ed" d="M27.525,35.792c2.058,0.021,5.478,0.515,6.709-1.038c0.366-0.462,0.577-1.033,0.953-1.487 c1.082-1.302,3.07-1.217,4.75-1.017c0.398,0.047,0.823,0.091,1.181-0.089c0.632-0.317,0.763-1.146,0.81-1.852 c0.309-4.694,0.323-12.408,0.041-17.104c-0.024-0.397-0.053-0.806-0.231-1.162c-0.315-0.628-1.019-0.95-1.688-1.161 c-0.903-0.285-2.151-0.251-3.097-0.21c-4.764,0.206-11.605,0.242-16.554,0.081c-3.799-0.124-7.137-0.247-10.936-0.371 c-1.061-0.035-2.211,0.465-2.604,1.292c-0.393,0.826-0.37,1.782-0.338,2.696c0.196,5.67-0.069,14.608,0.127,20.278 c0.006,0.177,0.019,0.37,0.138,0.5c0.139,0.151,0.369,0.163,0.574,0.165C14.037,35.366,20.848,35.723,27.525,35.792z"/><path fill="#16b7b8" d="M24.231,39.235c-4.289-0.386-8.56-0.868-12.855-0.585c-0.414,0.027-0.851,0.193-1.089,0.533 c-0.392,0.561,0.001,1.347-0.158,2.013c-0.251,1.051-1.63,1.281-2.709,1.237c-0.998-0.041-1.786,0.148-2.776,0.012 c-0.666-0.091-1.389-0.238-1.815-0.757c-0.426-0.52-0.428-1.258-0.393-1.93c0.248-4.735,1.073-9.722,0.769-14.454 c-0.268-4.166-1.552-11.46-0.218-15.415c0.375-1.111,0.998-2.204,2.015-2.787c1.144-0.657,2.927-0.629,4.245-0.578 c4.577,0.178,8.664-0.366,13.211,0.184c1.626,0.197,4.129-0.173,5.767-0.149c2.982,0.043,7.318,0.618,10.291,0.848 c1.104,0.085,3.355-0.017,4.446,0.173c0.588,0.102,1.209,0.25,1.62,0.682c0.357,0.374,0.497,0.899,0.605,1.404 c0.524,2.464,0.193,5.065,0.229,7.583c0.096,6.662-0.271,16.852-0.299,23.515c-0.003,0.711-0.032,1.493-0.509,2.02 c-0.446,0.494-1.16,0.624-1.822,0.691c-1.064,0.107-2.138,0.122-3.205,0.044c-0.427-0.031-0.883-0.089-1.209-0.367 c-0.423-0.361-0.5-0.981-0.486-1.537c0.013-0.556,0.154-1.226-0.079-1.732c-0.232-0.505-0.691-0.638-1.246-0.604 C32.905,39.506,28.018,39.576,24.231,39.235z M27.525,35.792c2.058,0.021,5.478,0.515,6.709-1.038 c0.366-0.462,0.577-1.033,0.953-1.487c1.082-1.302,3.07-1.217,4.75-1.017c0.398,0.047,0.823,0.091,1.181-0.089 c0.632-0.317,0.763-1.146,0.81-1.852c0.309-4.694,0.323-12.408,0.041-17.104c-0.024-0.397-0.053-0.806-0.231-1.162 c-0.315-0.628-1.019-0.95-1.688-1.161c-0.903-0.285-2.151-0.251-3.097-0.21c-4.764,0.206-11.605,0.242-16.554,0.081 c-3.799-0.124-7.137-0.247-10.936-0.371c-1.061-0.035-2.211,0.465-2.604,1.292c-0.393,0.826-0.37,1.782-0.338,2.696 c0.196,5.67-0.069,14.608,0.127,20.278c0.006,0.177,0.019,0.37,0.138,0.5c0.139,0.151,0.369,0.163,0.574,0.165 C14.037,35.366,20.848,35.723,27.525,35.792z"/><path fill="#bcbcbc" d="M26.504,10.852l-5.972,0.085c-0.022,0.835-0.053,2.109-0.076,2.944 c-0.006,0.219-0.011,0.444,0.062,0.65c0.063,0.178,0.179,0.33,0.294,0.48c0.805,1.049,1.868,2.328,2.673,3.377 c1.801-0.741,3.188-2.87,3.02-4.81C26.453,12.99,26.504,11.43,26.504,10.852z"/><polygon fill="#f58420" points="17.17,21.188 23.595,24.443 30.646,21.479 23.654,18.646"/><polygon fill="#f26322" points="23.654,24.583 30.517,21.958 30.333,29.229 23.654,32.32"/><polygon fill="#f3ad20" points="17.17,21.321 23.402,24.75 23.257,32.32 17.17,28.938"/><path fill="#010101" d="M40.926,44.069c-0.462,0-0.923-0.017-1.381-0.05c-0.525-0.037-1.071-0.122-1.497-0.486 c-0.467-0.399-0.683-1.03-0.661-1.93c0.003-0.145,0.015-0.298,0.027-0.454c0.03-0.39,0.061-0.793-0.06-1.056 c-0.078-0.17-0.218-0.348-0.761-0.313l0,0c-3.416,0.209-8.468,0.307-12.407-0.047l-1.438-0.132 c-3.719-0.346-7.563-0.704-11.339-0.452c-0.316,0.021-0.589,0.144-0.712,0.32c-0.124,0.177-0.095,0.471-0.062,0.812 c0.031,0.315,0.066,0.673-0.02,1.031c-0.263,1.103-1.43,1.695-3.216,1.62c-0.4-0.018-0.765,0.007-1.123,0.028 c-0.529,0.032-1.076,0.066-1.7-0.021c-0.8-0.11-1.612-0.3-2.134-0.936c-0.542-0.66-0.544-1.52-0.505-2.273 c0.083-1.589,0.234-3.232,0.379-4.821c0.29-3.176,0.59-6.459,0.39-9.574c-0.062-0.969-0.18-2.107-0.307-3.335 c-0.42-4.071-0.943-9.139,0.114-12.272c0.493-1.46,1.247-2.49,2.24-3.061c1.177-0.674,2.865-0.703,4.514-0.644 c1.812,0.071,3.571,0.026,5.273-0.017c2.561-0.065,5.21-0.13,7.979,0.204c0.933,0.111,2.198,0.028,3.42-0.054 c0.834-0.056,1.619-0.106,2.293-0.099c1.979,0.028,4.48,0.282,6.898,0.527c1.229,0.124,2.406,0.244,3.424,0.323 c0.426,0.032,1.026,0.036,1.662,0.041c1.047,0.007,2.129,0.015,2.832,0.138c0.687,0.118,1.393,0.301,1.896,0.829 c0.454,0.474,0.616,1.098,0.732,1.646c0.379,1.782,0.325,3.63,0.273,5.417c-0.022,0.758-0.044,1.514-0.034,2.263 c0.057,3.966-0.049,9.142-0.151,14.146c-0.07,3.434-0.136,6.677-0.147,9.377c-0.003,0.659-0.007,1.655-0.639,2.354 c-0.558,0.619-1.396,0.779-2.143,0.854C42.202,44.037,41.563,44.069,40.926,44.069z M36.717,38.776 c0.751,0,1.271,0.302,1.545,0.899c0.229,0.499,0.186,1.057,0.148,1.55c-0.01,0.138-0.021,0.273-0.024,0.402 c-0.014,0.571,0.09,0.957,0.311,1.146c0.216,0.185,0.587,0.225,0.918,0.248c1.033,0.076,2.081,0.06,3.121-0.042 c0.584-0.06,1.17-0.164,1.5-0.529c0.347-0.383,0.377-1.017,0.38-1.688c0.011-2.709,0.078-5.956,0.148-9.394 c0.102-4.996,0.207-10.163,0.15-14.112c-0.011-0.763,0.011-1.533,0.034-2.306c0.05-1.728,0.103-3.515-0.252-5.18 c-0.087-0.413-0.204-0.878-0.477-1.163c-0.287-0.301-0.745-0.431-1.344-0.534c-0.622-0.109-1.708-0.116-2.667-0.124 c-0.663-0.004-1.289-0.01-1.732-0.044c-1.025-0.079-2.211-0.199-3.448-0.324c-2.397-0.243-4.875-0.494-6.812-0.522 c-0.631-0.018-1.399,0.043-2.212,0.097c-1.268,0.086-2.58,0.174-3.607,0.048c-2.696-0.326-5.192-0.265-7.833-0.196 c-1.719,0.043-3.496,0.088-5.338,0.017C8.217,6.982,6.339,6.911,5.25,7.535C4.475,7.98,3.873,8.826,3.46,10.049 c-0.987,2.928-0.477,7.875-0.066,11.85c0.128,1.241,0.247,2.394,0.31,3.373c0.205,3.193-0.099,6.516-0.393,9.729 c-0.145,1.58-0.294,3.214-0.376,4.783c-0.03,0.566-0.035,1.202,0.28,1.586c0.318,0.389,0.94,0.503,1.497,0.58 c0.525,0.072,1,0.043,1.503,0.013c0.391-0.024,0.79-0.048,1.225-0.03c0.958,0.047,2.038-0.165,2.202-0.853 c0.046-0.195,0.022-0.44-0.003-0.701c-0.044-0.446-0.099-1.003,0.237-1.482c0.302-0.432,0.836-0.703,1.466-0.745 c3.855-0.254,7.74,0.105,11.497,0.454l1.436,0.132c3.883,0.351,8.878,0.252,12.256,0.045 C36.595,38.778,36.657,38.776,36.717,38.776z M36.563,39.281h0.01H36.563z"/><path fill="#38b47b" d="M41.479,34.712c-0.817,0.025-1.647,0.028-2.534-0.089c-0.518-0.068-1.134,0.007-1.605,0.218 c-0.444,0.199-0.712,0.641-0.799,1.089c-0.087,0.447-0.019,0.906,0.048,1.357c1.918,0.116,3.842,0.136,5.763,0.06 c0.141-0.527,0.28-1.092,0.078-1.602C42.228,35.235,42.069,34.694,41.479,34.712z"/><path fill="#010101" d="M40.077,37.892c-1.173,0-2.349-0.035-3.517-0.105c-0.236-0.014-0.43-0.191-0.465-0.425 c-0.069-0.465-0.148-0.992-0.044-1.526c0.127-0.66,0.533-1.202,1.085-1.449c0.544-0.243,1.246-0.337,1.874-0.259 c0.869,0.114,1.694,0.107,2.455,0.085c0.021,0.007,0.031,0,0.046,0c0.862,0,1.148,0.739,1.339,1.231l0.046,0.118 c0.27,0.68,0.08,1.394-0.06,1.914c-0.056,0.212-0.244,0.362-0.463,0.371C41.611,37.877,40.844,37.892,40.077,37.892z M37.028,36.812c1.642,0.085,3.296,0.103,4.931,0.049c0.081-0.36,0.111-0.668,0.006-0.931l-0.048-0.125 c-0.203-0.523-0.271-0.585-0.422-0.593c-0.804,0.024-1.677,0.03-2.615-0.093c-0.438-0.06-0.963,0.012-1.334,0.179 c-0.255,0.114-0.447,0.387-0.513,0.728C36.984,36.273,36.996,36.536,37.028,36.812z"/><path fill="#010101" d="M42.469,13.175c-0.024-0.4-0.054-0.898-0.284-1.356c-0.42-0.837-1.334-1.207-1.985-1.413 c-0.916-0.29-2.113-0.282-3.269-0.233c-3.012,0.13-6.804,0.192-10.427,0.181c0,0-0.001,0-0.001,0c0,0-0.001,0-0.001,0 c-2.156-0.007-4.252-0.04-6.087-0.1c-1.956-0.063-3.789-0.127-5.625-0.19c-1.732-0.06-3.467-0.12-5.311-0.181 c-1.136-0.018-2.555,0.493-3.072,1.577c-0.455,0.955-0.417,2.05-0.386,2.929c0.097,2.823,0.08,6.529,0.063,10.113 c-0.017,3.598-0.035,7.318,0.064,10.164c0.006,0.191,0.018,0.548,0.269,0.819c0.293,0.322,0.712,0.326,0.938,0.328 c3.416,0.027,6.928,0.136,10.324,0.241c3.235,0.101,6.581,0.204,9.841,0.237c0.353,0.004,0.747,0.021,1.162,0.04 c0.547,0.025,1.129,0.051,1.712,0.051c1.677,0,3.359-0.218,4.231-1.318c0.201-0.253,0.354-0.523,0.501-0.784 c0.144-0.254,0.279-0.493,0.445-0.693c0.903-1.085,2.684-1.03,4.308-0.84c0.406,0.051,0.961,0.113,1.464-0.139 c0.967-0.484,1.049-1.733,1.084-2.266C42.737,25.649,42.756,17.948,42.469,13.175z M36.975,11.172 c0.718-0.03,2.051-0.09,2.925,0.187c0.759,0.24,1.202,0.529,1.393,0.908c0.137,0.274,0.16,0.644,0.179,0.969 c0.004,0.063,0.007,0.132,0.011,0.196c-1.706-0.034-3.498-0.049-5.327-0.062c-3.095-0.021-6.28-0.047-9.168-0.177 c-0.011-0.458-0.001-1.12,0.008-1.64c0.001-0.073,0.002-0.134,0.003-0.201C30.486,11.357,34.087,11.297,36.975,11.172z M22.944,24.844c0.003,0.492,0.007,0.987,0.014,1.493c0.025,1.751,0.045,3.554-0.11,5.17c-0.643-0.368-1.32-0.719-1.998-1.054 c-0.894-0.44-1.818-0.896-2.577-1.39c-0.134-0.088-0.287-0.187-0.338-0.282c-0.047-0.087-0.054-0.251-0.06-0.396 c-0.054-1.256-0.116-2.492-0.177-3.728c-0.042-0.829-0.081-1.662-0.12-2.496c0.967,0.578,1.951,1.054,2.91,1.511 c0.597,0.284,1.199,0.571,1.808,0.888C22.473,24.653,22.695,24.763,22.944,24.844z M23.958,26.323 c-0.007-0.482-0.01-0.952-0.013-1.421c0.333-0.068,0.635-0.203,0.895-0.322c0.906-0.415,1.93-0.801,2.919-1.174 c0.754-0.284,1.515-0.582,2.251-0.891c-0.016,1.977-0.123,4.249-0.314,6.43c-1.043,0.506-1.976,0.968-2.909,1.43 c-0.945,0.468-1.898,0.939-2.961,1.455C24.01,30.101,23.983,28.18,23.958,26.323z M27.405,22.471 c-1.005,0.379-2.045,0.771-2.982,1.199c-0.304,0.14-0.64,0.299-0.944,0.275c-0.219-0.018-0.447-0.128-0.722-0.271 c-0.619-0.322-1.232-0.614-1.839-0.904c-1.043-0.496-2.034-0.978-3.008-1.577c0.755-0.249,1.508-0.492,2.26-0.733 c0.999-0.319,1.999-0.638,3.006-0.978c0.26-0.088,0.528-0.185,0.758-0.155c0.158,0.017,0.335,0.095,0.523,0.177 c0.817,0.358,1.721,0.678,2.594,0.987c0.923,0.326,1.866,0.667,2.705,1.045C28.998,21.86,28.198,22.172,27.405,22.471z M23.634,17.766c-0.343-0.44-0.72-0.909-1.096-1.379c-0.087-0.108-0.17-0.213-0.257-0.321c0.458-0.001,0.927-0.014,1.388-0.028 c0.586-0.018,1.171-0.026,1.732-0.017C24.974,16.748,24.357,17.378,23.634,17.766z M26.006,13.621c0.001,0.008-0.001,0.016,0,0.024 c0,0.002-0.001,0.004-0.001,0.006c0,0.003,0.001,0.006,0.001,0.009c0.034,0.452-0.035,0.917-0.175,1.373 c-0.7-0.031-1.452-0.016-2.192,0.006c-0.739,0.023-1.491,0.038-2.167,0.006c-0.088-0.112-0.182-0.23-0.265-0.338 c-0.094-0.123-0.182-0.238-0.218-0.341c-0.043-0.122-0.039-0.299-0.034-0.47l0.068-2.626c1.541,0.044,3.227,0.07,4.975,0.079 c-0.001,0.063-0.002,0.12-0.003,0.187C25.982,12.267,25.967,13.176,26.006,13.621z M9.447,10.882c1.843,0.06,3.577,0.12,5.309,0.18 c1.722,0.06,3.448,0.12,5.268,0.179l-0.045,1.76L7.061,12.835c0.043-0.331,0.111-0.655,0.249-0.946 C7.594,11.295,8.515,10.857,9.447,10.882z M41.43,30.275c-0.037,0.563-0.131,1.235-0.535,1.438 c-0.218,0.109-0.523,0.085-0.897,0.041c-1.889-0.228-3.985-0.263-5.194,1.193c-0.224,0.269-0.388,0.559-0.547,0.84 c-0.128,0.226-0.253,0.452-0.414,0.655c-0.858,1.081-3.319,0.972-5.115,0.89c-0.428-0.019-0.833-0.037-1.197-0.041h0 c-3.25-0.033-6.59-0.137-9.82-0.236c-3.401-0.105-6.919-0.215-10.346-0.242c-0.05,0-0.092-0.002-0.124-0.002 c-0.05,0-0.077,0.004-0.072,0.019c-0.016-0.036-0.02-0.157-0.021-0.198c-0.098-2.826-0.08-6.537-0.063-10.125 c0.017-3.594,0.034-7.31-0.064-10.153c-0.006-0.168-0.01-0.343-0.013-0.518l12.949,0.167c-0.003,0.212,0.002,0.45,0.089,0.696 c0.089,0.252,0.236,0.445,0.368,0.617c0.126,0.164,0.266,0.342,0.403,0.515c0.013,0.018,0.025,0.036,0.041,0.053 c0.29,0.368,0.591,0.746,0.899,1.13c0.412,0.513,0.817,1.021,1.184,1.494c-0.028,0.01-0.059,0.019-0.086,0.028 c-1.001,0.337-1.996,0.655-2.99,0.973c-0.999,0.319-1.999,0.638-3.005,0.978c-0.211,0.071-0.35,0.272-0.34,0.495 c0.054,1.256,0.116,2.492,0.177,3.728c0.062,1.233,0.123,2.467,0.177,3.72c0.009,0.228,0.022,0.54,0.18,0.83 c0.172,0.318,0.461,0.506,0.672,0.644c0.809,0.526,1.76,0.995,2.68,1.448c0.894,0.44,1.818,0.896,2.578,1.391 c0.114,0.073,0.287,0.186,0.519,0.207c0.025,0.002,0.05,0.003,0.075,0.003c0.225,0,0.412-0.09,0.528-0.146 c1.132-0.548,2.128-1.041,3.123-1.534c1.006-0.498,2.011-0.995,3.155-1.549c0.158-0.076,0.264-0.23,0.28-0.404 c0.234-2.565,0.355-5.196,0.348-7.466c0.013-0.062,0.013-0.125,0.001-0.189c0-0.005,0-0.011,0-0.016 c-0.019-0.369-0.293-0.77-0.641-0.935c-0.933-0.437-1.978-0.806-2.989-1.164c-0.856-0.303-1.742-0.615-2.527-0.96 c-0.122-0.054-0.254-0.11-0.395-0.157c1.431-0.927,2.427-2.587,2.534-4.237c2.893,0.129,6.066,0.155,9.15,0.176 c1.85,0.013,3.663,0.028,5.385,0.063C41.75,19.185,41.712,25.991,41.43,30.275z"/></svg>