<svg xmlns="http://www.w3.org/2000/svg" width="50" height="50" fill="#000" viewBox="0 0 50 50"><path d="M 20 4 A 1.0001 1.0001 0 0 0 19.292969 4.2929688 L 17.585938 6 L 9.3867188 6 C 7.5296852 6 5.9058511 7.2896965 5.4882812 9.0996094 L 3.2050781 19 L 2 19 C 0.897 19 0 19.897 0 21 L 0 24 C 0 25.103 0.897 26 2 26 L 48 26 C 49.103 26 50 25.103 50 24 L 50 21 C 50 19.897 49.103 19 48 19 L 46.794922 19 L 44.509766 9.0996094 C 44.0923 7.2901497 42.470315 6 40.613281 6 L 32.414062 6 L 30.707031 4.2929688 A 1.0001 1.0001 0 0 0 30 4 L 20 4 z M 20.414062 6 L 29.585938 6 L 31.292969 7.7070312 A 1.0001 1.0001 0 0 0 32 8 L 40.613281 8 C 41.550248 8 42.351965 8.638241 42.5625 9.5507812 L 44.742188 19 L 5.2578125 19 L 7.4375 9.5507812 C 7.6479301 8.6386942 8.4497521 8 9.3867188 8 L 18 8 A 1.0001 1.0001 0 0 0 18.707031 7.7070312 L 20.414062 6 z M 2.7695312 28 L 7.8261719 45.542969 C 8.0701719 46.387969 8.985 47 10 47 L 32.880859 47 C 34.697941 48.847586 37.219827 50 40 50 C 45.5 50 50 45.5 50 40 C 50 36.774533 48.446014 33.902012 46.056641 32.070312 L 47.230469 28 L 2.7695312 28 z M 17 31 C 17.55 31 18 31.45 18 32 L 18 43 C 18 43.55 17.55 44 17 44 C 16.45 44 16 43.55 16 43 L 16 32 C 16 31.45 16.45 31 17 31 z M 25 31 L 25.001953 31 C 25.550953 31 26 31.45 26 32 L 26 43 C 26 43.55 25.55 44 25 44 C 24.45 44 24 43.55 24 43 L 24 32 C 24 31.45 24.45 31 25 31 z M 40 32 C 44.4 32 48 35.6 48 40 C 48 44.4 44.4 48 40 48 C 35.6 48 32 44.4 32 40 C 32 35.6 35.6 32 40 32 z M 40 34.099609 C 39.4 34.099609 39 34.499609 39 35.099609 L 39 39 L 35.099609 39 C 34.499609 39 34.099609 39.4 34.099609 40 C 34.099609 40.6 34.499609 41 35.099609 41 L 39 41 L 39 44.900391 C 39 45.500391 39.4 45.900391 40 45.900391 C 40.6 45.900391 41 45.500391 41 44.900391 L 41 41 L 44.900391 41 C 45.500391 41 45.900391 40.6 45.900391 40 C 45.900391 39.4 45.500391 39 44.900391 39 L 41 39 L 41 35.099609 C 41 34.499609 40.6 34.099609 40 34.099609 z"/></svg>