<svg fill="#000000" xmlns="http://www.w3.org/2000/svg" viewBox="0 0 32 32" width="50px" height="50px"><path d="M 6 4 L 6 28 L 17.09375 28 C 18.480469 30.386719 21.050781 32 24 32 C 28.40625 32 32 28.40625 32 24 C 32 20.289063 29.4375 17.179688 26 16.28125 L 26 4 Z M 8 6 L 24 6 L 24 11 L 8 11 Z M 8 13 L 24 13 L 24 16 C 21.480469 16 19.25 17.171875 17.78125 19 L 8 19 Z M 24 18 C 27.324219 18 30 20.675781 30 24 C 30 27.324219 27.324219 30 24 30 C 20.675781 30 18 27.324219 18 24 C 18 20.675781 20.675781 18 24 18 Z M 23 20 L 23 23 L 20 23 L 20 25 L 23 25 L 23 28 L 25 28 L 25 25 L 28 25 L 28 23 L 25 23 L 25 20 Z M 8 21 L 16.59375 21 C 16.210938 21.929688 16 22.933594 16 24 C 16 24.695313 16.113281 25.355469 16.28125 26 L 8 26 Z"/></svg>