<svg fill="#000000" xmlns="http://www.w3.org/2000/svg" viewBox="0 0 16 16" width="500px" height="500px"><path d="M 6.5 1 C 5.9166667 1 5.3293294 1.137869 4.8476562 1.4589844 C 4.3659831 1.7800998 4 2.3333333 4 3 L 4 5 L 5 5 L 5 3 C 5 2.6666667 5.1340169 2.4699002 5.4023438 2.2910156 C 5.6706706 2.112131 6.0833333 2 6.5 2 C 7.6166667 2 9.0855543 2.4731118 10.244141 2.9609375 C 10.277973 2.9751828 10.294833 2.9857718 10.328125 3 L 6 3 L 6 4 L 12 4 L 12 13 L 3 13 L 3 4 L 3 3.5 L 3 3 L 2.5 3 A 0.50005 0.50005 0 0 0 2 3.5 L 2 13.5 A 0.50005 0.50005 0 0 0 2.5 14 L 12.5 14 A 0.50005 0.50005 0 0 0 13 13.5 L 13 3.5 A 0.50005 0.50005 0 0 0 12.748047 3.0664062 C 12.748047 3.0664062 12.727138 3.0550157 12.726562 3.0546875 A 0.50005 0.50005 0 0 0 12.722656 3.0527344 C 12.685653 3.0316517 11.821573 2.5404156 10.630859 2.0390625 C 9.4144457 1.5268882 7.8833333 1 6.5 1 z M 7.5 4.953125 L 4 6.4902344 L 4 10.173828 L 4.2617188 10.316406 L 7.5 12.068359 L 11 10.173828 L 11 6.4902344 L 7.5 4.953125 z M 7.5 6.046875 L 9.3105469 6.8417969 L 7.5 7.7246094 L 5.6894531 6.8417969 L 7.5 6.046875 z M 5 7.6171875 L 7 8.5917969 L 7 10.660156 L 5 9.578125 L 5 7.6171875 z M 10 7.6171875 L 10 9.578125 L 8 10.660156 L 8 8.5917969 L 10 7.6171875 z"/></svg>