<svg xmlns="http://www.w3.org/2000/svg" width="100" height="100" fill="#000" viewBox="0 0 50 50"><path d="M 34.033203 3 C 33.937969 2.9968281 33.841844 3.00675 33.746094 3.03125 L 15.552734 7.8203125 L 28.410156 26.820312 L 47.628906 20.746094 C 47.787906 20.612094 47.918703 20.449188 47.970703 20.242188 C 48.047703 19.936187 47.975344 19.613141 47.777344 19.369141 L 34.777344 3.3691406 C 34.591344 3.1403906 34.318906 3.0095156 34.033203 3 z M 13.755859 8.734375 L 2.359375 18.232422 C 1.935375 18.586422 1.8774687 19.216625 2.2304688 19.640625 C 2.4294688 19.877625 2.7149531 20 3.0019531 20 C 3.2279531 20 3.452625 19.923578 3.640625 19.767578 L 4 19.46875 L 3.9921875 36.371094 C 3.9921875 36.757094 4.2145 37.107437 4.5625 37.273438 L 25 47.005859 L 25.048828 25.421875 L 13.755859 8.734375 z M 14.46875 20.015625 C 15.31675 20.090625 16.025359 20.645844 16.318359 21.464844 L 18.369141 26.660156 L 19.714844 26.220703 L 18.714844 30.554688 L 14.714844 27.855469 L 16.46875 27.28125 L 14.4375 22.138672 C 14.4085 22.057672 14.360922 22.013813 14.294922 22.007812 C 14.290922 22.007812 14.28525 22.005859 14.28125 22.005859 C 14.22825 22.005859 14.186391 22.035656 14.150391 22.097656 L 12.779297 24.494141 L 11.080078 23.435547 L 12.412109 21.105469 C 12.839109 20.358469 13.62075 19.941625 14.46875 20.015625 z M 46 23.359375 L 28.302734 28.953125 C 28.300734 28.954125 28.296922 28.954078 28.294922 28.955078 C 28.211922 28.980078 28.128922 28.990141 28.044922 28.994141 C 28.029922 28.994141 28.014 29 28 29 C 27.995 29 27.989375 28.998047 27.984375 28.998047 C 27.895375 28.997047 27.808656 28.980078 27.722656 28.955078 C 27.694656 28.947078 27.668625 28.936781 27.640625 28.925781 C 27.577625 28.901781 27.517937 28.870984 27.460938 28.833984 C 27.435938 28.817984 27.410719 28.802203 27.386719 28.783203 C 27.329719 28.739203 27.279422 28.686906 27.232422 28.628906 C 27.217422 28.610906 27.199547 28.596172 27.185547 28.576172 C 27.181547 28.570172 27.175875 28.566547 27.171875 28.560547 L 27.041016 28.367188 L 27 47 L 45.419922 38.275391 C 45.769922 38.109391 45.992188 37.757094 45.992188 37.371094 L 46 23.359375 z M 11.669922 24.626953 L 12.015625 29.261719 L 10.533203 28.339844 L 9.0332031 31.039062 C 8.9822031 31.128063 9.0007188 31.217953 9.0117188 31.251953 C 9.0217187 31.286953 9.047375 31.350813 9.109375 31.382812 L 11 32.527344 L 11 34.787109 L 8.1816406 33.154297 C 7.6506406 32.876297 7.2637969 32.3995 7.0917969 31.8125 C 6.9197969 31.2215 6.9948281 30.578875 7.2988281 30.046875 L 8.8359375 27.28125 L 7.3554688 26.361328 L 11.669922 24.626953 z M 19.900391 31.005859 L 21.863281 36.005859 C 22.180281 36.892859 21.931516 37.860656 21.228516 38.472656 C 20.828516 38.819656 20.331078 39 19.830078 39 C 19.494078 39 19.155797 38.919859 18.841797 38.755859 L 15 36.886719 L 15 38.523438 L 12.013672 34.619141 L 15 32.523438 L 15 34.626953 L 19.771484 36.982422 C 19.805484 37.000422 19.848969 37.023891 19.917969 36.962891 C 19.955969 36.929891 20.037469 36.836688 19.980469 36.679688 L 18 31.628906 L 19.900391 31.005859 z"/></svg>