<svg xmlns="http://www.w3.org/2000/svg" width="500" height="500" viewBox="0 0 128 128"><path fill="#fff" d="M64 14A50 50 0 1 0 64 114A50 50 0 1 0 64 14Z"/><path fill="#444b54" d="M64,117c-29.2,0-53-23.8-53-53s23.8-53,53-53s53,23.8,53,53S93.2,117,64,117z M64,17c-25.9,0-47,21.1-47,47s21.1,47,47,47s47-21.1,47-47S89.9,17,64,17z"/><path fill="#ff697b" d="M64,82c-1.7,0-3-1.3-3-3V49c0-1.7,1.3-3,3-3s3,1.3,3,3v30C67,80.7,65.7,82,64,82z"/><path fill="#ff697b" d="M79,67H49c-1.7,0-3-1.3-3-3s1.3-3,3-3h30c1.7,0,3,1.3,3,3S80.7,67,79,67z"/></svg>