<svg xmlns="http://www.w3.org/2000/svg" width="50" height="50" viewBox="0 0 64 64"><linearGradient id="5YCEzovbgH3aId0L2fT6ma" x1="47" x2="47" y1="38.667" y2="49.687" gradientUnits="userSpaceOnUse" spreadMethod="reflect"><stop offset="0" stop-color="#6dc7ff"/><stop offset="1" stop-color="#e6abff"/></linearGradient><path fill="url(#5YCEzovbgH3aId0L2fT6ma)" d="M52 43L48 43 48 39 46 39 46 43 42 43 42 45 46 45 46 49 48 49 48 45 52 45z"/><linearGradient id="5YCEzovbgH3aId0L2fT6mb" x1="32" x2="32" y1="8" y2="56.215" gradientUnits="userSpaceOnUse" spreadMethod="reflect"><stop offset="0" stop-color="#1a6dff"/><stop offset="1" stop-color="#c822ff"/></linearGradient><path fill="url(#5YCEzovbgH3aId0L2fT6mb)" d="M47.803,33.041C47.924,32.715,48,32.367,48,32v-4c0-1.302-0.839-2.402-2-2.816v-2.369 c1.161-0.414,2-1.514,2-2.816v-4c0-1.654-1.346-3-3-3h-1v-1c0-1.654-1.346-3-3-3H13c-1.654,0-3,1.346-3,3v1H9c-1.654,0-3,1.346-3,3 v4c0,1.302,0.839,2.402,2,2.816v2.369C6.839,25.598,6,26.698,6,28v4c0,1.302,0.839,2.402,2,2.816v2.369C6.839,37.598,6,38.698,6,40 v4c0,1.654,1.346,3,3,3h1v1c0,1.654,1.346,3,3,3h25.521c2.019,2.441,5.07,4,8.479,4c6.065,0,11-4.935,11-11 C58,38.206,53.494,33.455,47.803,33.041z M38.521,37H10v-2h30.695C39.885,35.569,39.151,36.239,38.521,37z M44,23v2H10v-2H44z M12,12c0-0.552,0.449-1,1-1h28c0.551,0,1,0.448,1,1v1H12V12z M8,16c0-0.552,0.449-1,1-1h36c0.551,0,1,0.448,1,1v4 c0,0.552-0.449,1-1,1H9c-0.551,0-1-0.448-1-1V16z M8,28c0-0.552,0.449-1,1-1h36c0.551,0,1,0.448,1,1v4c0,0.552-0.449,1-1,1H9 c-0.551,0-1-0.448-1-1V28z M8,44v-4c0-0.552,0.449-1,1-1h28.214C36.444,40.502,36,42.199,36,44c0,0.337,0.021,0.67,0.051,1H9 C8.449,45,8,44.552,8,44z M13,49c-0.551,0-1-0.448-1-1v-1h24.427c0.198,0.698,0.462,1.366,0.788,2H13z M47,53c-4.962,0-9-4.037-9-9 s4.038-9,9-9s9,4.037,9,9S51.962,53,47,53z"/><linearGradient id="5YCEzovbgH3aId0L2fT6mc" x1="39" x2="39" y1="8" y2="56.215" gradientUnits="userSpaceOnUse" spreadMethod="reflect"><stop offset="0" stop-color="#1a6dff"/><stop offset="1" stop-color="#c822ff"/></linearGradient><path fill="url(#5YCEzovbgH3aId0L2fT6mc)" d="M36 29H42V31H36z"/><linearGradient id="5YCEzovbgH3aId0L2fT6md" x1="39" x2="39" y1="8" y2="56.215" gradientUnits="userSpaceOnUse" spreadMethod="reflect"><stop offset="0" stop-color="#1a6dff"/><stop offset="1" stop-color="#c822ff"/></linearGradient><path fill="url(#5YCEzovbgH3aId0L2fT6md)" d="M36 17H42V19H36z"/><linearGradient id="5YCEzovbgH3aId0L2fT6me" x1="14" x2="14" y1="8" y2="56.215" gradientUnits="userSpaceOnUse" spreadMethod="reflect"><stop offset="0" stop-color="#1a6dff"/><stop offset="1" stop-color="#c822ff"/></linearGradient><path fill="url(#5YCEzovbgH3aId0L2fT6me)" d="M12 29H16V31H12z"/><linearGradient id="5YCEzovbgH3aId0L2fT6mf" x1="20" x2="20" y1="8" y2="56.215" gradientUnits="userSpaceOnUse" spreadMethod="reflect"><stop offset="0" stop-color="#1a6dff"/><stop offset="1" stop-color="#c822ff"/></linearGradient><path fill="url(#5YCEzovbgH3aId0L2fT6mf)" d="M18 29H22V31H18z"/><linearGradient id="5YCEzovbgH3aId0L2fT6mg" x1="14" x2="14" y1="8" y2="56.215" gradientUnits="userSpaceOnUse" spreadMethod="reflect"><stop offset="0" stop-color="#1a6dff"/><stop offset="1" stop-color="#c822ff"/></linearGradient><path fill="url(#5YCEzovbgH3aId0L2fT6mg)" d="M12 41H16V43H12z"/><linearGradient id="5YCEzovbgH3aId0L2fT6mh" x1="20" x2="20" y1="8" y2="56.215" gradientUnits="userSpaceOnUse" spreadMethod="reflect"><stop offset="0" stop-color="#1a6dff"/><stop offset="1" stop-color="#c822ff"/></linearGradient><path fill="url(#5YCEzovbgH3aId0L2fT6mh)" d="M18 41H22V43H18z"/><linearGradient id="5YCEzovbgH3aId0L2fT6mi" x1="14" x2="14" y1="8" y2="56.215" gradientUnits="userSpaceOnUse" spreadMethod="reflect"><stop offset="0" stop-color="#1a6dff"/><stop offset="1" stop-color="#c822ff"/></linearGradient><path fill="url(#5YCEzovbgH3aId0L2fT6mi)" d="M12 17H16V19H12z"/><linearGradient id="5YCEzovbgH3aId0L2fT6mj" x1="20" x2="20" y1="8" y2="56.215" gradientUnits="userSpaceOnUse" spreadMethod="reflect"><stop offset="0" stop-color="#1a6dff"/><stop offset="1" stop-color="#c822ff"/></linearGradient><path fill="url(#5YCEzovbgH3aId0L2fT6mj)" d="M18 17H22V19H18z"/></svg>