<svg xmlns="http://www.w3.org/2000/svg" width="500" height="500" fill="#000" viewBox="0 0 26 26"><path d="M 4.1875 0 C 3.585938 0 3.1875 0.398438 3.1875 1 L 3.1875 25 C 3.1875 25.601563 3.585938 26 4.1875 26 L 16.1875 26 C 16.789063 26 17.1875 25.601563 17.1875 25 L 17.1875 21.59375 C 16.488281 21.394531 15.789063 21.210938 15.1875 20.8125 L 15.1875 24 L 5.1875 24 L 5.1875 2 L 15.1875 2 L 15.1875 5.1875 C 15.789063 4.886719 16.488281 4.601563 17.1875 4.5 L 17.1875 1 C 17.1875 0.398438 16.789063 0 16.1875 0 Z M 19.1875 6.1875 C 15.386719 6.1875 12.40625 9.199219 12.40625 13 C 12.40625 16.800781 15.488281 19.8125 19.1875 19.8125 C 22.886719 19.8125 26 16.699219 26 13 C 26 9.300781 22.988281 6.1875 19.1875 6.1875 Z M 18.1875 9 L 20.1875 9 L 20.1875 12 L 23.1875 12 L 23.1875 14 L 20.1875 14 L 20.1875 17 L 18.1875 17 L 18.1875 14 L 15.1875 14 L 15.1875 12 L 18.1875 12 Z"/></svg>