<svg xmlns="http://www.w3.org/2000/svg" viewBox="0 0 40 40" width="500px" height="500px"><path fill="#dcd5f2" d="M3,34.5c-0.827,0-1.5-0.673-1.5-1.5V11c0-0.827,0.673-1.5,1.5-1.5h7.777l2.5-4h13.445l2.5,4H37 c0.827,0,1.5,0.673,1.5,1.5v22c0,0.827-0.673,1.5-1.5,1.5H3z"/><path fill="#8b75a1" d="M26.446,6l2.206,3.53L28.945,10h0.554h7.5c0.265,0,0.516,0.105,0.706,0.295 C37.895,10.485,38,10.735,38,11v22c0,0.551-0.449,1-1,1H3.001c-0.265,0-0.516-0.105-0.706-0.295C2.105,33.515,2,33.265,2,33V11 c0-0.551,0.449-1,1-1h7.5h0.554l0.294-0.47L13.554,6H26.446 M27,5H13l-2.5,4H3c-1.1,0-2,0.9-2,2v22c0,1.1,0.901,2,2.001,2H37 c1.1,0,2-0.9,2-2V11c0-1.1-0.901-2-2.001-2h-7.5L27,5L27,5z"/><path fill="#fff9de" d="M30 13H35V16H30z"/><path fill="#c2e8ff" d="M20,29.5c-4.687,0-8.5-3.813-8.5-8.5c0-4.687,3.813-8.5,8.5-8.5c4.687,0,8.5,3.813,8.5,8.5 C28.5,25.687,24.687,29.5,20,29.5z"/><path fill="#7496c4" d="M20,13c4.411,0,8,3.589,8,8s-3.589,8-8,8s-8-3.589-8-8S15.589,13,20,13 M20,12c-4.97,0-9,4.029-9,9 s4.029,9,9,9s9-4.029,9-9S24.971,12,20,12L20,12z"/><path fill="none" stroke="#fff" stroke-miterlimit="10" d="M15.5,21c0-2.485,2.015-4.5,4.5-4.5"/><path fill="#8b75a1" d="M4 8H9V10H4z"/><path fill="#bae0bd" d="M31 22.5A8.5 8.5 0 1 0 31 39.5A8.5 8.5 0 1 0 31 22.5Z"/><path fill="#5e9c76" d="M31,23c4.411,0,8,3.589,8,8s-3.589,8-8,8s-8-3.589-8-8S26.589,23,31,23 M31,22 c-4.971,0-9,4.029-9,9s4.029,9,9,9s9-4.029,9-9S35.971,22,31,22L31,22z"/><path fill="none" stroke="#fff" stroke-miterlimit="10" stroke-width="2" d="M31 36L31 26M26 31L36 31"/></svg>