<svg xmlns="http://www.w3.org/2000/svg" width="100" height="100" fill="#000" viewBox="0 0 24 24"><path d="M 5 2 C 3.9 2 3 2.9 3 4 L 3 20 C 3 21.1 3.9 22 5 22 L 13.544922 22 C 14.645082 23.223531 16.233751 24 18 24 C 21.301864 24 24 21.301864 24 18 C 24 15.039615 21.82834 12.572078 19 12.091797 L 19 4 C 19 2.9 18.1 2 17 2 L 5 2 z M 18 14 C 20.220984 14 22 15.779016 22 18 C 22 20.220984 20.220984 22 18 22 C 15.779016 22 14 20.220984 14 18 C 14 15.779016 15.779016 14 18 14 z M 17.984375 14.986328 A 1.0001 1.0001 0 0 0 17 16 L 17 17 L 16 17 A 1.0001 1.0001 0 1 0 16 19 L 17 19 L 17 20 A 1.0001 1.0001 0 1 0 19 20 L 19 19 L 20 19 A 1.0001 1.0001 0 1 0 20 17 L 19 17 L 19 16 A 1.0001 1.0001 0 0 0 17.984375 14.986328 z"/></svg>