<svg xmlns="http://www.w3.org/2000/svg" width="300" height="300" viewBox="0 0 64 64"><linearGradient id="PFAAlQlrw1Ys1lgKzStJ5a" x1="33" x2="33" y1="8" y2="56" gradientUnits="userSpaceOnUse" spreadMethod="reflect"><stop offset="0" stop-color="#1a6dff"/><stop offset="1" stop-color="#c822ff"/></linearGradient><path fill="url(#PFAAlQlrw1Ys1lgKzStJ5a)" d="M52.98,31.9v-0.09c-0.01-0.03-0.02-0.06-0.03-0.1c-0.01-0.02-0.01-0.05-0.02-0.07 c0-0.01-0.01-0.01-0.01-0.02c-0.01-0.02-0.02-0.04-0.03-0.06c0,0,0-0.01,0-0.02l-12-23c-0.04-0.08-0.09-0.15-0.15-0.21 c0,0,0-0.01-0.01-0.01c-0.08-0.09-0.18-0.15-0.28-0.21c-0.03-0.01-0.06-0.02-0.09-0.03c-0.09-0.04-0.18-0.06-0.28-0.07 C40.06,8.01,40.04,8,40.02,8C40.01,8,40.01,8,40,8H19c-0.36,0-0.7,0.2-0.87,0.51l-5,9c-0.01,0.02-0.01,0.04-0.02,0.05 c-0.04,0.08-0.05,0.16-0.07,0.25c-0.01,0.05-0.03,0.1-0.03,0.15c0,0.02-0.01,0.03-0.01,0.04c0,0.09,0.03,0.18,0.05,0.26 c0.01,0.04,0.01,0.07,0.02,0.1c0,0.01,0,0.01,0.01,0.01c0.05,0.13,0.13,0.25,0.22,0.34c0.03,0.03,0.06,0.04,0.08,0.06 c0.08,0.06,0.17,0.12,0.27,0.16c0.01,0,0.02,0.01,0.03,0.02l10.38,3.46l-9.73,8.85C14.12,31.45,14,31.72,14,32 c0,0.28,0.12,0.55,0.33,0.74l9.73,8.85l-10.38,3.46c-0.01,0.01-0.02,0.02-0.03,0.02c-0.1,0.04-0.19,0.1-0.27,0.16 c-0.02,0.02-0.05,0.03-0.08,0.06c-0.09,0.09-0.17,0.21-0.22,0.34c-0.01,0-0.01,0-0.01,0.01c-0.01,0.03-0.01,0.06-0.02,0.1 C13.03,45.82,13,45.91,13,46c0,0.01,0.01,0.02,0.01,0.04c0,0.05,0.02,0.1,0.03,0.15c0.02,0.09,0.03,0.17,0.07,0.25 c0.01,0.01,0.01,0.03,0.02,0.05l5,9C18.3,55.8,18.64,56,19,56h21c0.12,0,0.24-0.03,0.35-0.07c0.03-0.01,0.05-0.02,0.08-0.04 c0.11-0.05,0.22-0.12,0.3-0.21c0.01,0,0.01-0.01,0.01-0.01c0.06-0.06,0.11-0.13,0.15-0.21l12-23c0-0.01,0-0.02,0-0.02 c0.01-0.02,0.02-0.04,0.03-0.06c0,0,0.01-0.01,0.01-0.02c0.01-0.02,0.01-0.05,0.02-0.07c0.01-0.04,0.02-0.07,0.03-0.1V32.1 c0.01-0.03,0.02-0.06,0.02-0.09c0-0.01,0-0.01,0-0.02C53,31.96,52.99,31.93,52.98,31.9z M19.59,10h17.86l-7.54,7H15.7L19.59,10z M31,39.01V24.99L49.21,32L31,39.01z M43.03,36.52L31,44.18v-3.03L43.03,36.52z M31,22.85v-3.03l12.03,7.66L31,22.85z M29,20.58v1.5 l-1.14-0.44L29,20.58z M20.16,19h7.6l-2.01,1.86L20.16,19z M16.49,32l9.73-8.85L29,24.23v15.54l-2.78,1.08L16.49,32z M29,41.92v1.5 l-1.14-1.06L29,41.92z M25.75,43.14L27.76,45h-7.6L25.75,43.14z M19.59,54l-3.89-7h14.21l7.54,7H19.59z M39.72,53.37l-7.91-7.34 l17.58-11.18L39.72,53.37z M31.81,17.97l7.91-7.34l9.67,18.52L31.81,17.97z"/><linearGradient id="PFAAlQlrw1Ys1lgKzStJ5b" x1="23.96" x2="23.96" y1="43.14" y2="45" gradientUnits="userSpaceOnUse" spreadMethod="reflect"><stop offset="0" stop-color="#6dc7ff"/><stop offset="1" stop-color="#e6abff"/></linearGradient><path fill="url(#PFAAlQlrw1Ys1lgKzStJ5b)" d="M27.76 45L20.16 45 25.75 43.14z"/><linearGradient id="PFAAlQlrw1Ys1lgKzStJ5c" x1="28.43" x2="28.43" y1="41.92" y2="43.42" gradientUnits="userSpaceOnUse" spreadMethod="reflect"><stop offset="0" stop-color="#6dc7ff"/><stop offset="1" stop-color="#e6abff"/></linearGradient><path fill="url(#PFAAlQlrw1Ys1lgKzStJ5c)" d="M29 41.92L29 43.42 27.86 42.36z"/><linearGradient id="PFAAlQlrw1Ys1lgKzStJ5d" x1="37.015" x2="37.015" y1="36.52" y2="44.18" gradientUnits="userSpaceOnUse" spreadMethod="reflect"><stop offset="0" stop-color="#6dc7ff"/><stop offset="1" stop-color="#e6abff"/></linearGradient><path fill="url(#PFAAlQlrw1Ys1lgKzStJ5d)" d="M43.03 36.52L31 44.18 31 41.15z"/><linearGradient id="PFAAlQlrw1Ys1lgKzStJ5e" x1="28.43" x2="28.43" y1="20.58" y2="22.08" gradientUnits="userSpaceOnUse" spreadMethod="reflect"><stop offset="0" stop-color="#6dc7ff"/><stop offset="1" stop-color="#e6abff"/></linearGradient><path fill="url(#PFAAlQlrw1Ys1lgKzStJ5e)" d="M29 20.58L29 22.08 27.86 21.64z"/><linearGradient id="PFAAlQlrw1Ys1lgKzStJ5f" x1="23.96" x2="23.96" y1="19" y2="20.86" gradientUnits="userSpaceOnUse" spreadMethod="reflect"><stop offset="0" stop-color="#6dc7ff"/><stop offset="1" stop-color="#e6abff"/></linearGradient><path fill="url(#PFAAlQlrw1Ys1lgKzStJ5f)" d="M27.76 19L25.75 20.86 20.16 19z"/><linearGradient id="PFAAlQlrw1Ys1lgKzStJ5g" x1="37.015" x2="37.015" y1="19.82" y2="27.48" gradientUnits="userSpaceOnUse" spreadMethod="reflect"><stop offset="0" stop-color="#6dc7ff"/><stop offset="1" stop-color="#e6abff"/></linearGradient><path fill="url(#PFAAlQlrw1Ys1lgKzStJ5g)" d="M43.03 27.48L31 22.85 31 19.82z"/></svg>