<svg xmlns="http://www.w3.org/2000/svg" width="300" height="300" viewBox="0 0 48 48"><path fill="#2196f3" d="M24,32c-4.4,0-8-3.6-8-8s3.6-8,8-8s8,3.6,8,8S28.4,32,24,32z M24,20c-2.2,0-4,1.8-4,4 c0,2.2,1.8,4,4,4c2.2,0,4-1.8,4-4C28,21.8,26.2,20,24,20z"/><path fill="#cfd8dc" d="M24,39c-8.3,0-15-6.7-15-15S15.7,9,24,9s15,6.7,15,15S32.3,39,24,39z M13,24c0,6.1,4.9,11,11,11 s11-4.9,11-11s-4.9-11-11-11S13,17.9,13,24z M25,43c-0.1-0.5,0.3-1,0.9-1.1c0.6,0,1,0.4,1.1,0.9c0,0.5-0.4,1-0.9,1.1H26 C25.5,43.9,25,43.5,25,43z M21.9,43.9c-0.5-0.1-0.9-0.5-0.9-1.1c0.1-0.5,0.5-1,1.1-0.9c0.6,0.1,1,0.6,0.9,1.1c0,0.5-0.5,0.9-1,0.9 H21.9z M28.9,42.4c-0.2-0.5,0.1-1.1,0.6-1.3c0.5-0.2,1.1,0.1,1.3,0.6s-0.1,1.1-0.6,1.3c-0.1,0-0.2,0-0.3,0 C29.4,43.1,29,42.8,28.9,42.4z M17.8,43c-0.5-0.2-0.8-0.7-0.6-1.3c0.2-0.5,0.7-0.8,1.3-0.6c0.5,0.2,0.8,0.7,0.6,1.3 c-0.1,0.4-0.5,0.7-1,0.7C18,43.1,17.9,43,17.8,43z M32.6,41c-0.3-0.5-0.1-1.1,0.4-1.4c0.5-0.3,1.1-0.1,1.4,0.4 c0.3,0.5,0.1,1.1-0.4,1.4c-0.2,0.1-0.3,0.1-0.5,0.1C33.1,41.5,32.8,41.3,32.6,41z M14,41.3c-0.5-0.3-0.6-0.9-0.4-1.4 c0.3-0.5,0.9-0.6,1.4-0.4c0.5,0.3,0.6,0.9,0.4,1.4c-0.2,0.3-0.5,0.5-0.9,0.5C14.3,41.5,14.1,41.4,14,41.3z M36,38.8 c-0.4-0.4-0.3-1,0.1-1.4c0.4-0.4,1-0.3,1.4,0.1s0.3,1-0.1,1.4c-0.2,0.2-0.4,0.3-0.7,0.3C36.4,39.1,36.1,39,36,38.8z M10.6,38.8 c-0.4-0.4-0.4-1-0.1-1.4c0.4-0.4,1-0.4,1.4-0.1c0.4,0.4,0.4,1,0.1,1.4c-0.2,0.2-0.5,0.3-0.7,0.3C11,39.1,10.8,39,10.6,38.8z M38.8,36c-0.4-0.3-0.5-1-0.2-1.4c0.3-0.5,1-0.5,1.4-0.2c0.5,0.3,0.5,1,0.2,1.4c-0.2,0.3-0.5,0.4-0.8,0.4 C39.1,36.2,38.9,36.1,38.8,36z M7.8,35.8c-0.3-0.5-0.2-1.1,0.2-1.4c0.4-0.3,1.1-0.2,1.4,0.2c0.4,0.4,0.3,1-0.2,1.4 c-0.2,0.1-0.4,0.2-0.6,0.2C8.3,36.2,8,36,7.8,35.8z M40.9,32.7c-0.5-0.2-0.7-0.8-0.5-1.3c0.2-0.5,0.8-0.7,1.3-0.5 c0.5,0.2,0.7,0.8,0.5,1.3c-0.2,0.4-0.5,0.6-0.9,0.6C41.2,32.8,41.1,32.7,40.9,32.7z M5.7,32.1c-0.2-0.5,0-1.1,0.5-1.3 s1.1,0,1.3,0.5s0,1.1-0.5,1.3c-0.1,0-0.3,0.1-0.4,0.1C6.3,32.7,5.9,32.5,5.7,32.1z M42.4,29c-0.5-0.1-0.9-0.7-0.8-1.2 c0.1-0.5,0.7-0.9,1.2-0.8s0.9,0.6,0.8,1.2c-0.1,0.5-0.5,0.8-1,0.8C42.5,29,42.4,29,42.4,29z M4.4,28.1c-0.1-0.5,0.2-1.1,0.8-1.2 c0.5-0.1,1.1,0.2,1.2,0.8c0.1,0.5-0.2,1.1-0.8,1.2c-0.1,0-0.1,0-0.2,0C4.9,29,4.5,28.6,4.4,28.1z M42,24c0-0.6,0.5-1,1-1s1,0.4,1,1 c0,0.5-0.5,1-1,1C42.4,25,42,24.6,42,24z M4,24C4,23.9,4,23.9,4,24c0-0.6,0.4-1.1,1-1.1c0.6,0,1,0.4,1,1c0,0.5-0.5,1-1,1 C4.4,25,4,24.5,4,24z M41.6,20.3c-0.1-0.5,0.2-1.1,0.8-1.2c0.5-0.1,1.1,0.2,1.2,0.8c0.1,0.5-0.2,1.1-0.8,1.2c-0.1,0-0.1,0-0.2,0 C42.1,21.1,41.7,20.8,41.6,20.3z M5.2,20.9c-0.5-0.1-0.9-0.6-0.8-1.2c0.1-0.5,0.6-0.9,1.2-0.8c0.5,0.1,0.9,0.6,0.8,1.2 c-0.1,0.5-0.5,0.8-1,0.8C5.4,21,5.3,21,5.2,20.9z M40.5,16.7c-0.2-0.5,0-1.1,0.5-1.3c0.5-0.2,1.1,0,1.3,0.5c0.2,0.5,0,1.1-0.5,1.3 c-0.1,0.1-0.3,0.1-0.4,0.1C41,17.3,40.6,17.1,40.5,16.7z M6.3,17.1c-0.5-0.2-0.7-0.8-0.5-1.3c0.2-0.5,0.8-0.7,1.3-0.5 c0.5,0.2,0.7,0.8,0.5,1.3C7.4,17,7,17.2,6.7,17.2C6.5,17.2,6.4,17.2,6.3,17.1z M38.6,13.5c-0.3-0.5-0.2-1.1,0.2-1.4 c0.5-0.3,1.1-0.2,1.4,0.2c0.3,0.5,0.2,1.1-0.2,1.4c-0.2,0.1-0.4,0.2-0.6,0.2C39.1,13.9,38.8,13.7,38.6,13.5z M8.1,13.6 c-0.4-0.3-0.5-0.9-0.2-1.4c0.3-0.4,1-0.5,1.4-0.2c0.4,0.3,0.5,1,0.2,1.4c-0.2,0.3-0.5,0.4-0.8,0.4C8.5,13.8,8.3,13.7,8.1,13.6z M36.1,10.6c-0.4-0.4-0.4-1-0.1-1.4c0.4-0.4,1-0.4,1.4-0.1c0.4,0.4,0.4,1,0.1,1.4c-0.2,0.2-0.5,0.3-0.7,0.3 C36.5,10.9,36.3,10.8,36.1,10.6z M10.6,10.5c-0.4-0.4-0.3-1,0.1-1.4c0.4-0.4,1-0.3,1.4,0.1c0.4,0.4,0.3,1-0.1,1.4 c-0.2,0.2-0.4,0.3-0.7,0.3C11.1,10.8,10.8,10.7,10.6,10.5z M33,8.4c-0.5-0.3-0.6-0.9-0.4-1.4c0.4-0.4,1-0.6,1.4-0.3 c0.5,0.3,0.6,0.9,0.4,1.4c-0.2,0.3-0.5,0.5-0.9,0.5C33.4,8.6,33.2,8.5,33,8.4z M13.7,8c-0.3-0.5-0.1-1.1,0.4-1.4 c0.5-0.3,1.1-0.1,1.4,0.4s0.1,1.1-0.4,1.4c-0.1,0.1-0.3,0.1-0.5,0.1C14.2,8.5,13.9,8.3,13.7,8z M29.6,6.9c-0.5-0.2-0.8-0.7-0.6-1.3 c0.2-0.5,0.7-0.8,1.3-0.6c0.5,0.2,0.8,0.7,0.6,1.3C30.8,6.7,30.4,7,30,7C29.8,6.9,29.7,6.9,29.6,6.9z M17.2,6.2 c-0.2-0.5,0.1-1.1,0.6-1.3c0.5-0.2,1.1,0.1,1.3,0.6C19.3,6,19,6.6,18.5,6.8c-0.1,0-0.2,0-0.3,0C17.8,6.9,17.4,6.6,17.2,6.2z M25.9,6.1C25.4,6,25,5.5,25,5c0.1-0.6,0.5-0.9,1.1-0.9C26.7,4.2,27,4.7,27,5.2c-0.1,0.5-0.5,0.9-1,0.9C26,6.1,26,6.1,25.9,6.1z M21.1,5.2c-0.1-0.5,0.3-1,0.9-1.1c0.6,0,1,0.4,1.1,0.9c0,0.5-0.4,1-0.9,1.1h-0.1C21.6,6.1,21.1,5.7,21.1,5.2z"/></svg>