<svg xmlns="http://www.w3.org/2000/svg" width="50" height="50" fill="#000" viewBox="0 0 24 24"><path d="M 6 2 C 4.895 2 4 2.895 4 4 L 4 6 C 4 6.552 4.448 7 5 7 L 19 7 C 19.552 7 20 6.552 20 6 L 20 4 C 20 2.895 19.105 2 18 2 L 6 2 z M 5 9 C 4.448 9 4 9.448 4 10 L 4 14 C 4 14.552 4.448 15 5 15 L 15.685547 15 C 16.635547 14.369 17.774 14 19 14 C 20 14 20 13 20 13 L 20 10 C 20 9.448 19.552 9 19 9 L 5 9 z M 19 16 C 18.448 16 18 16.448 18 17 L 18 19 L 16 19 C 15.448 19 15 19.448 15 20 C 15 20.552 15.448 21 16 21 L 18 21 L 18 23 C 18 23.552 18.448 24 19 24 C 19.552 24 20 23.552 20 23 L 20 21 L 22 21 C 22.552 21 23 20.552 23 20 C 23 19.448 22.552 19 22 19 L 20 19 L 20 17 C 20 16.448 19.552 16 19 16 z M 5 17 C 4.448 17 4 17.448 4 18 L 4 20 C 4 21.105 4.895 22 6 22 L 13.349609 22 C 13.127609 21.374 13 20.702 13 20 C 13 18.906 13.297594 17.883 13.808594 17 L 5 17 z"/></svg>