<svg xmlns="http://www.w3.org/2000/svg" width="100" height="100" viewBox="0 0 24 24"><path d="M16.812 11c-.319 0-.633-.152-.827-.436l-3.961-5.798-4.01 5.802c-.313.454-.937.566-1.391.254-.454-.314-.568-.937-.254-1.391l4.837-7C11.393 2.161 11.7 2 12.028 2c.001 0 .002 0 .003 0 .329.001.637.164.823.436l4.782 7c.312.456.194 1.078-.262 1.39C17.202 10.943 17.006 11 16.812 11zM19 14c-2.761 0-5 2.239-5 5s2.239 5 5 5 5-2.239 5-5S21.761 14 19 14zM22 20h-2v2h-2v-2h-2v-2h2v-2h2v2h2V20z"/><path d="M12,19H5.524l-2.21-8h17.371l-0.314,1.136c0.67,0.133,1.304,0.363,1.89,0.672l0.702-2.541 c0.083-0.301,0.02-0.624-0.168-0.872C22.605,9.146,22.311,9,21.999,9H2.001C1.688,9,1.395,9.146,1.205,9.395 c-0.188,0.248-0.251,0.57-0.169,0.871l2.56,9.266C3.835,20.396,4.628,21,5.524,21h6.77C12.105,20.366,12,19.695,12,19z"/><path d="M12,19c0-3.866,3.134-7,7-7c0.801,0,1.567,0.141,2.283,0.389L22,10c0,0-19,0-20,0l3,10h7.08 C12.033,19.673,12,19.34,12,19z" opacity=".3"/></svg>