<svg xmlns="http://www.w3.org/2000/svg" viewBox="0 0 30 30" width="100px" height="100px"><path fill="#4e7ab5" d="M15,13c1.103,0,2,0.897,2,2s-0.897,2-2,2s-2-0.897-2-2S13.897,13,15,13 M15,10 c-2.761,0-5,2.239-5,5s2.239,5,5,5s5-2.239,5-5S17.761,10,15,10L15,10z"/><path fill="#8bb7f0" d="M15,7c4.411,0,8,3.589,8,8s-3.589,8-8,8s-8-3.589-8-8S10.589,7,15,7 M15,5C9.477,5,5,9.477,5,15 s4.477,10,10,10s10-4.477,10-10S20.523,5,15,5L15,5z"/><path fill="#4e7ab5" d="M15 1A.5.5 0 1 0 15 2 .5.5 0 1 0 15 1zM15 28A.5.5 0 1 0 15 29 .5.5 0 1 0 15 28zM28.5 14.5A.5.5 0 1 0 28.5 15.5.5.5 0 1 0 28.5 14.5zM1.5 14.5A.5.5 0 1 0 1.5 15.5.5.5 0 1 0 1.5 14.5z"/><path fill="#4e7ab5" d="M24.546 4.954A0.5 0.5 0 1 0 24.546 5.954A0.5 0.5 0 1 0 24.546 4.954Z" transform="rotate(-45.001 24.546 5.454)"/><path fill="#4e7ab5" d="M5.454 24.046A0.5 0.5 0 1 0 5.454 25.046A0.5 0.5 0 1 0 5.454 24.046Z" transform="rotate(-45.001 5.454 24.546)"/><path fill="#4e7ab5" d="M24.546 24.046A0.5 0.5 0 1 0 24.546 25.046A0.5 0.5 0 1 0 24.546 24.046Z" transform="rotate(-45.001 24.546 24.546)"/><path fill="#4e7ab5" d="M5.454 4.954A0.5 0.5 0 1 0 5.454 5.954A0.5 0.5 0 1 0 5.454 4.954Z" transform="rotate(-45.001 5.454 5.454)"/><path fill="#4e7ab5" d="M20.166 2.028A0.5 0.5 0 1 0 20.166 3.028A0.5 0.5 0 1 0 20.166 2.028Z" transform="rotate(-67.5 20.166 2.528)"/><path fill="#4e7ab5" d="M9.834 26.972A0.5 0.5 0 1 0 9.834 27.972A0.5 0.5 0 1 0 9.834 26.972Z" transform="rotate(-67.5 9.834 27.472)"/><path fill="#4e7ab5" d="M27.472 19.666A0.5 0.5 0 1 0 27.472 20.666A0.5 0.5 0 1 0 27.472 19.666Z" transform="rotate(-67.5 27.472 20.166)"/><path fill="#4e7ab5" d="M2.528 9.334A0.5 0.5 0 1 0 2.528 10.334A0.5 0.5 0 1 0 2.528 9.334Z" transform="rotate(-67.5 2.528 9.834)"/><path fill="#4e7ab5" d="M27.472 9.334A0.5 0.5 0 1 0 27.472 10.334A0.5 0.5 0 1 0 27.472 9.334Z" transform="rotate(-22.5 27.471 9.833)"/><path fill="#4e7ab5" d="M2.528 19.666A0.5 0.5 0 1 0 2.528 20.666A0.5 0.5 0 1 0 2.528 19.666Z" transform="rotate(-22.5 2.527 20.165)"/><path fill="#4e7ab5" d="M20.166 26.972A0.5 0.5 0 1 0 20.166 27.972A0.5 0.5 0 1 0 20.166 26.972Z" transform="rotate(-22.5 20.165 27.471)"/><path fill="#4e7ab5" d="M9.834 2.028A0.5 0.5 0 1 0 9.834 3.028A0.5 0.5 0 1 0 9.834 2.028Z" transform="rotate(-22.5 9.833 2.527)"/><path fill="#4e7ab5" d="M12.366 1.259A0.5 0.5 0 1 0 12.366 2.259A0.5 0.5 0 1 0 12.366 1.259Z" transform="rotate(-11.246 12.366 1.758)"/><path fill="#4e7ab5" d="M17.634 27.741A0.5 0.5 0 1 0 17.634 28.741A0.5 0.5 0 1 0 17.634 27.741Z" transform="rotate(-11.246 17.635 28.238)"/><path fill="#4e7ab5" d="M28.241 11.866A0.5 0.5 0 1 0 28.241 12.866A0.5 0.5 0 1 0 28.241 11.866Z" transform="rotate(-11.246 28.24 12.363)"/><path fill="#4e7ab5" d="M1.759 17.134A0.5 0.5 0 1 0 1.759 18.134A0.5 0.5 0 1 0 1.759 17.134Z" transform="rotate(-11.246 1.76 17.633)"/><path fill="#4e7ab5" d="M22.5 3.275A0.5 0.5 0 1 0 22.5 4.275A0.5 0.5 0 1 0 22.5 3.275Z" transform="rotate(-56.25 22.5 3.775)"/><path fill="#4e7ab5" d="M7.5 25.725A0.5 0.5 0 1 0 7.5 26.725A0.5 0.5 0 1 0 7.5 25.725Z" transform="rotate(-56.25 7.5 26.224)"/><path fill="#4e7ab5" d="M26.225 22A0.5 0.5 0 1 0 26.225 23A0.5 0.5 0 1 0 26.225 22Z" transform="rotate(-56.25 26.224 22.5)"/><path fill="#4e7ab5" d="M3.775 7A0.5 0.5 0 1 0 3.775 8A0.5 0.5 0 1 0 3.775 7Z" transform="rotate(-56.25 3.775 7.5)"/><path fill="#4e7ab5" d="M17.634 1.259A0.5 0.5 0 1 0 17.634 2.259A0.5 0.5 0 1 0 17.634 1.259Z" transform="rotate(-78.749 17.634 1.76)"/><path fill="#4e7ab5" d="M12.366 27.741A0.5 0.5 0 1 0 12.366 28.741A0.5 0.5 0 1 0 12.366 27.741Z" transform="rotate(-78.749 12.367 28.24)"/><path fill="#4e7ab5" d="M28.241 17.134A0.5 0.5 0 1 0 28.241 18.134A0.5 0.5 0 1 0 28.241 17.134Z" transform="rotate(-78.749 28.24 17.633)"/><path fill="#4e7ab5" d="M1.759 11.866A0.5 0.5 0 1 0 1.759 12.866A0.5 0.5 0 1 0 1.759 11.866Z" transform="rotate(-78.749 1.76 12.366)"/><path fill="#4e7ab5" d="M26.225 7A0.5 0.5 0 1 0 26.225 8A0.5 0.5 0 1 0 26.225 7Z" transform="rotate(-33.75 26.223 7.5)"/><path fill="#4e7ab5" d="M3.775 22A0.5 0.5 0 1 0 3.775 23A0.5 0.5 0 1 0 3.775 22Z" transform="rotate(-33.75 3.775 22.499)"/><path fill="#4e7ab5" d="M22.5 25.725A0.5 0.5 0 1 0 22.5 26.725A0.5 0.5 0 1 0 22.5 25.725Z" transform="rotate(-33.75 22.499 26.224)"/><path fill="#4e7ab5" d="M7.5 3.275A0.5 0.5 0 1 0 7.5 4.275A0.5 0.5 0 1 0 7.5 3.275Z" transform="rotate(-33.75 7.5 3.775)"/></svg>