<?xml version="1.0"?><svg fill="#000000" xmlns="http://www.w3.org/2000/svg" viewBox="0 0 128 128" width="100px" height="100px">    <path d="M 44.117188 20.990234 C 43.442383 20.958984 42.761719 21.162109 42.199219 21.599609 L 2.1992188 51.599609 C 1.3992188 52.199609 1 53.1 1 54 L 1 104 C 1 105.7 2.3 107 4 107 L 54 107 C 55.3 107 56.400781 106.20039 56.800781 104.90039 L 62.099609 89.099609 C 62.499609 87.899609 63.6 87.699219 64 87.699219 C 64.4 87.699219 65.500391 87.799609 65.900391 89.099609 L 71.199219 104.90039 C 71.599219 106.10039 72.8 107 74 107 L 124 107 C 125.7 107 127 105.7 127 104 L 127 54 C 127 53.1 126.60078 52.199609 125.80078 51.599609 L 85.800781 21.599609 C 84.900781 20.899609 83.699219 20.800781 82.699219 21.300781 C 81.699219 21.800781 81 22.8 81 24 L 81 42 C 81 43.7 82.3 45 84 45 C 85.7 45 87 43.7 87 42 L 87 30 L 115 51 L 13 51 L 41 30 L 41 42 C 41 43.7 42.3 45 44 45 C 45.7 45 47 43.7 47 42 L 47 24 C 47 22.9 46.400781 21.800781 45.300781 21.300781 C 44.925781 21.113281 44.52207 21.008984 44.117188 20.990234 z M 7 57 L 121 57 L 121 101 L 76.199219 101 L 71.599609 87.300781 C 70.499609 84.000781 67.5 81.800781 64 81.800781 C 60.5 81.800781 57.500391 83.900781 56.400391 87.300781 L 51.800781 101 L 7 101 L 7 57 z M 19 66 C 17.3 66 16 67.3 16 69 L 16 89 C 16 90.7 17.3 92 19 92 L 43.900391 92 C 45.200391 92 46.299219 91.2 46.699219 90 L 53.599609 70 C 54.299609 68.1 52.800781 66 50.800781 66 L 19 66 z M 77.199219 66 C 75.099219 66 73.700391 68 74.400391 70 L 81.300781 90 C 81.700781 91.2 82.899609 92 84.099609 92 L 109 92 C 110.7 92 112 90.7 112 89 L 112 69 C 112 67.3 110.7 66 109 66 L 77.199219 66 z"/></svg>