<svg fill="#000000" xmlns="http://www.w3.org/2000/svg" viewBox="0 0 32 32" width="100px" height="100px"><path d="M 11 3 C 9 3 2 14 2 14 L 2 24 C 2 24 1.984375 24.457031 2.230469 24.949219 C 2.476563 25.4375 3.167969 26 4 26 L 13.042969 26 C 13.703125 26 14.125 25.605469 14.378906 25.296875 C 14.636719 24.984375 14.796875 24.671875 14.910156 24.410156 L 14.933594 24.363281 L 15.949219 21.316406 C 15.992188 21.199219 15.988281 21.171875 16 21.097656 C 16.011719 21.171875 16.007813 21.199219 16.050781 21.316406 L 17.066406 24.363281 L 17.089844 24.410156 C 17.207031 24.671875 17.363281 24.984375 17.621094 25.296875 C 17.875 25.605469 18.296875 26 18.957031 26 L 28 26 C 28.832031 26 29.523438 25.4375 29.769531 24.949219 C 30.015625 24.457031 30 24 30 24 L 30 14 L 30.007813 14 C 30.007813 14 23.007813 3 21.007813 3 C 19.007813 3 19.007813 4.835938 19.007813 6 C 19.007813 6 18.84375 8 20.007813 8 C 21.007813 8 21.007813 5.960938 21.007813 5 C 22.007813 6 26.007813 14 26.007813 14 L 6 14 C 6 14 10 6 11 5 C 11 5.960938 11 8 12 8 C 13.164063 8 13 6 13 6 C 13 4.835938 13 3 11 3 Z M 4 16 L 28 16 L 28 24 L 19.148438 24 C 19.085938 23.917969 18.996094 23.765625 18.925781 23.617188 L 17.933594 20.636719 L 17.910156 20.589844 C 17.964844 20.707031 17.957031 20.40625 17.703125 19.90625 C 17.574219 19.65625 17.324219 19.371094 17.007813 19.214844 C 16.691406 19.054688 16.355469 19 16 19 C 15.644531 19 15.308594 19.054688 14.992188 19.214844 C 14.675781 19.371094 14.425781 19.65625 14.296875 19.90625 C 14.042969 20.40625 14.035156 20.707031 14.089844 20.589844 L 14.066406 20.636719 L 13.074219 23.613281 C 13.003906 23.761719 12.917969 23.917969 12.851563 24 L 4 24 Z M 6.460938 18 C 6.207031 18 6 18.175781 6 18.390625 L 6 21.597656 C 6 21.800781 6.234375 22 6.46875 22 L 11.5 22 C 11.730469 22 11.882813 21.75 11.96875 21.597656 C 12.394531 20.785156 12.519531 19.878906 12.96875 18.507813 C 13.058594 18.269531 12.988281 18 12.40625 18 Z M 19.59375 18 C 19.011719 18 18.941406 18.269531 19.03125 18.507813 C 19.484375 19.878906 19.605469 20.785156 20.03125 21.597656 C 20.117188 21.75 20.269531 22 20.5 22 L 25.53125 22 C 25.765625 22 26 21.800781 26 21.597656 L 26 18.390625 C 26 18.175781 25.792969 18 25.539063 18 Z"/></svg>