<?xml version="1.0"?><svg fill="#000000" xmlns="http://www.w3.org/2000/svg" viewBox="0 0 24 24" width="50px" height="50px">    <path d="M 12 2 C 11.724 2 11.5 2.224 11.5 2.5 C 11.5 2.776 11.724 3 12 3 C 12.276 3 12.5 2.776 12.5 2.5 C 12.5 2.224 12.276 2 12 2 z M 9.0644531 2.4648438 C 9.0134531 2.4648438 8.9602031 2.4732344 8.9082031 2.4902344 C 8.6452031 2.5752344 8.5028906 2.8561406 8.5878906 3.1191406 C 8.6568906 3.3301406 8.8525 3.4667969 9.0625 3.4667969 C 9.1135 3.4667969 9.16675 3.4584062 9.21875 3.4414062 C 9.48175 3.3554062 9.6240625 3.0735469 9.5390625 2.8105469 C 9.4700625 2.5995469 9.2754531 2.4648438 9.0644531 2.4648438 z M 14.935547 2.4648438 C 14.724547 2.4648438 14.528937 2.5985469 14.460938 2.8105469 C 14.375937 3.0735469 14.51825 3.3564062 14.78125 3.4414062 C 14.83225 3.4584062 14.8855 3.4667969 14.9375 3.4667969 C 15.1485 3.4667969 15.344109 3.3311406 15.412109 3.1191406 C 15.497109 2.8561406 15.354797 2.5752344 15.091797 2.4902344 C 15.039797 2.4732344 14.986547 2.4648437 14.935547 2.4648438 z M 6.4160156 3.8144531 C 6.3140156 3.8144531 6.2110469 3.8451563 6.1230469 3.9101562 C 5.8990469 4.0721562 5.8487187 4.3844219 6.0117188 4.6074219 C 6.1097187 4.7424219 6.2629687 4.8144531 6.4179688 4.8144531 C 6.5199688 4.8144531 6.6229375 4.78375 6.7109375 4.71875 C 6.9339375 4.55775 6.9823125 4.2435313 6.8203125 4.0195312 C 6.7223125 3.8855313 6.5700156 3.8144531 6.4160156 3.8144531 z M 17.583984 3.8144531 C 17.428984 3.8144531 17.277687 3.8855312 17.179688 4.0195312 C 17.017688 4.2425312 17.065063 4.55675 17.289062 4.71875 C 17.378062 4.78275 17.481031 4.8144531 17.582031 4.8144531 C 17.737031 4.8144531 17.890281 4.7414219 17.988281 4.6074219 C 18.150281 4.3844219 18.100953 4.0721562 17.876953 3.9101562 C 17.788953 3.8451563 17.685984 3.8144531 17.583984 3.8144531 z M 12 5 C 8.134 5 5 8.134 5 12 C 5 15.866 8.134 19 12 19 C 15.866 19 19 15.866 19 12 C 19 8.134 15.866 5 12 5 z M 4.3144531 5.9160156 C 4.1594531 5.9160156 4.0081562 5.9870937 3.9101562 6.1210938 C 3.7481563 6.3450937 3.7965313 6.6573125 4.0195312 6.8203125 C 4.1085313 6.8843125 4.2115 6.9179688 4.3125 6.9179688 C 4.4675 6.9179688 4.62075 6.8449375 4.71875 6.7109375 C 4.88075 6.4879375 4.8314219 6.1756719 4.6074219 6.0136719 C 4.5194219 5.9476719 4.4164531 5.9160156 4.3144531 5.9160156 z M 19.685547 5.9160156 C 19.583547 5.9160156 19.480578 5.9467187 19.392578 6.0117188 C 19.169578 6.1737187 19.11925 6.4879375 19.28125 6.7109375 C 19.37925 6.8459375 19.530547 6.9160156 19.685547 6.9160156 C 19.787547 6.9160156 19.890516 6.8853125 19.978516 6.8203125 C 20.201516 6.6583125 20.251844 6.3440938 20.089844 6.1210938 C 19.991844 5.9860937 19.840547 5.9160156 19.685547 5.9160156 z M 12 6 C 15.308 6 18 8.692 18 12 C 18 15.308 15.308 18 12 18 C 8.692 18 6 15.308 6 12 C 6 8.692 8.692 6 12 6 z M 12 8 C 9.791 8 8 9.791 8 12 C 8 14.209 9.791 16 12 16 C 14.209 16 16 14.209 16 12 C 16 9.791 14.209 8 12 8 z M 2.9648438 8.5644531 C 2.7538438 8.5644531 2.5582344 8.6981563 2.4902344 8.9101562 C 2.4042344 9.1721563 2.5485469 9.4540625 2.8105469 9.5390625 C 2.8615469 9.5560625 2.9128437 9.5644531 2.9648438 9.5644531 C 3.1758437 9.5644531 3.3714531 9.43075 3.4394531 9.21875 C 3.5244531 8.95575 3.3821406 8.6748437 3.1191406 8.5898438 C 3.0681406 8.5728438 3.0158437 8.5644531 2.9648438 8.5644531 z M 21.035156 8.5644531 C 20.984156 8.5644531 20.932859 8.5728437 20.880859 8.5898438 C 20.617859 8.6748438 20.473594 8.95575 20.558594 9.21875 C 20.627594 9.42975 20.823203 9.5644531 21.033203 9.5644531 C 21.084203 9.5644531 21.137453 9.5560625 21.189453 9.5390625 C 21.452453 9.4540625 21.594766 9.1731563 21.509766 8.9101562 C 21.441766 8.6991562 21.246156 8.5644531 21.035156 8.5644531 z M 12 10 C 13.103 10 14 10.897 14 12 C 14 13.103 13.103 14 12 14 C 10.897 14 10 13.103 10 12 C 10 10.897 10.897 10 12 10 z M 2.5 11.5 C 2.224 11.5 2 11.724 2 12 C 2 12.276 2.224 12.5 2.5 12.5 C 2.776 12.5 3 12.276 3 12 C 3 11.724 2.776 11.5 2.5 11.5 z M 21.5 11.5 C 21.224 11.5 21 11.724 21 12 C 21 12.276 21.224 12.5 21.5 12.5 C 21.776 12.5 22 12.276 22 12 C 22 11.724 21.776 11.5 21.5 11.5 z M 2.9648438 14.435547 C 2.9138437 14.435547 2.8625469 14.443937 2.8105469 14.460938 C 2.5475469 14.545938 2.4032812 14.828797 2.4882812 15.091797 C 2.5572812 15.302797 2.7548437 15.4375 2.9648438 15.4375 C 3.0158438 15.4375 3.0671406 15.429109 3.1191406 15.412109 C 3.3821406 15.327109 3.5244531 15.04425 3.4394531 14.78125 C 3.3714531 14.56925 3.1758438 14.435547 2.9648438 14.435547 z M 21.035156 14.435547 C 20.824156 14.435547 20.628547 14.56925 20.560547 14.78125 C 20.475547 15.04425 20.617859 15.327109 20.880859 15.412109 C 20.931859 15.429109 20.983156 15.4375 21.035156 15.4375 C 21.246156 15.4375 21.443719 15.303797 21.511719 15.091797 C 21.596719 14.828797 21.452453 14.545937 21.189453 14.460938 C 21.137453 14.442937 21.086156 14.435547 21.035156 14.435547 z M 4.3144531 17.083984 C 4.2124531 17.083984 4.1094844 17.114687 4.0214844 17.179688 C 3.7984844 17.341687 3.7481562 17.655906 3.9101562 17.878906 C 4.0081563 18.013906 4.1594531 18.083984 4.3144531 18.083984 C 4.4164531 18.083984 4.5194219 18.053281 4.6074219 17.988281 C 4.8304219 17.826281 4.88075 17.512062 4.71875 17.289062 C 4.62075 17.154063 4.4694531 17.083984 4.3144531 17.083984 z M 19.685547 17.083984 C 19.530547 17.083984 19.37925 17.155062 19.28125 17.289062 C 19.11925 17.512062 19.168578 17.826281 19.392578 17.988281 C 19.481578 18.052281 19.584547 18.083984 19.685547 18.083984 C 19.840547 18.083984 19.991844 18.012906 20.089844 17.878906 C 20.251844 17.655906 20.202516 17.341687 19.978516 17.179688 C 19.890516 17.114687 19.787547 17.083984 19.685547 17.083984 z M 6.4160156 19.185547 C 6.2610156 19.185547 6.1097187 19.258578 6.0117188 19.392578 C 5.8497188 19.615578 5.8970938 19.927844 6.1210938 20.089844 C 6.2100938 20.153844 6.3130625 20.185547 6.4140625 20.185547 C 6.5690625 20.185547 6.7223125 20.114469 6.8203125 19.980469 C 6.9823125 19.757469 6.9329844 19.44325 6.7089844 19.28125 C 6.6209844 19.21625 6.5180156 19.185547 6.4160156 19.185547 z M 17.583984 19.185547 C 17.481984 19.185547 17.379016 19.21625 17.291016 19.28125 C 17.068016 19.44325 17.017688 19.757469 17.179688 19.980469 C 17.277687 20.115469 17.430937 20.185547 17.585938 20.185547 C 17.687938 20.185547 17.790906 20.154844 17.878906 20.089844 C 18.101906 19.927844 18.150281 19.615578 17.988281 19.392578 C 17.890281 19.257578 17.737984 19.185547 17.583984 19.185547 z M 9.0644531 20.535156 C 8.8534531 20.535156 8.6578437 20.668859 8.5898438 20.880859 C 8.5048437 21.143859 8.6471562 21.426719 8.9101562 21.511719 C 8.9611563 21.528719 9.0124531 21.535156 9.0644531 21.535156 C 9.2754531 21.535156 9.4710625 21.401453 9.5390625 21.189453 C 9.6240625 20.926453 9.48175 20.645547 9.21875 20.560547 C 9.16675 20.543547 9.1154531 20.535156 9.0644531 20.535156 z M 14.935547 20.535156 C 14.884547 20.535156 14.83325 20.543547 14.78125 20.560547 C 14.51825 20.645547 14.375937 20.926453 14.460938 21.189453 C 14.529938 21.400453 14.725547 21.535156 14.935547 21.535156 C 14.986547 21.535156 15.037844 21.528719 15.089844 21.511719 C 15.352844 21.426719 15.495156 21.143859 15.410156 20.880859 C 15.342156 20.668859 15.146547 20.535156 14.935547 20.535156 z M 12 21 C 11.724 21 11.5 21.224 11.5 21.5 C 11.5 21.776 11.724 22 12 22 C 12.276 22 12.5 21.776 12.5 21.5 C 12.5 21.224 12.276 21 12 21 z"/></svg>