<svg xmlns="http://www.w3.org/2000/svg" viewBox="0 0 30 30" width="300px" height="300px"><path fill="#8b75a1" d="M5,10H3c-0.5,0-1-0.4-1-1V7c0-0.6,0.5-1,1-1h2c0.6,0,1,0.4,1,1v2C6,9.6,5.6,10,5,10z"/><path fill="#dcd5f2" d="M2,25.5c-0.8,0-1.5-0.7-1.5-1.5V9c0-0.8,0.7-1.5,1.5-1.5h5.3l2-3h9.5l2,3H26c0.8,0,1.5,0.7,1.5,1.5 v15c0,0.8-0.7,1.5-1.5,1.5H2z"/><path fill="#8b75a1" d="M18.5,5l1.7,2.6L20.5,8H21h5c0.6,0,1,0.4,1,1v15c0,0.6-0.4,1-1,1H2c-0.6,0-1-0.4-1-1V9 c0-0.6,0.4-1,1-1h5h0.5l0.3-0.4L9.5,5H18.5 M19,4H9L7,7H2C0.9,7,0,7.9,0,9v15c0,1.1,0.9,2,2,2h24c1.1,0,2-0.9,2-2V9 c0-1.1-0.9-2-2-2h-5L19,4L19,4z"/><path fill="#fff9de" d="M21 10H25V12H21z"/><path fill="#c2e8ff" d="M14,22.5c-3.6,0-6.5-2.9-6.5-6.5s2.9-6.5,6.5-6.5s6.5,2.9,6.5,6.5S17.6,22.5,14,22.5z"/><path fill="#7496c4" d="M14,10c3.3,0,6,2.7,6,6s-2.7,6-6,6s-6-2.7-6-6S10.7,10,14,10 M14,9c-3.9,0-7,3.1-7,7s3.1,7,7,7 s7-3.1,7-7S17.9,9,14,9L14,9z"/><path fill="#bae0bd" d="M23,29.5c-3.6,0-6.5-2.9-6.5-6.5s2.9-6.5,6.5-6.5s6.5,2.9,6.5,6.5S26.6,29.5,23,29.5z"/><path fill="#5e9c76" d="M23,17c3.3,0,6,2.7,6,6s-2.7,6-6,6s-6-2.7-6-6S19.7,17,23,17 M23,16c-3.9,0-7,3.1-7,7s3.1,7,7,7 s7-3.1,7-7S26.9,16,23,16L23,16z"/><path fill="#fff" d="M22 19H24V27H22z"/><path fill="#fff" d="M19 22H27V24H19zM11 16h-1c0-2.2 1.8-4 4-4v1C12.3 13 11 14.3 11 16z"/></svg>