<svg xmlns="http://www.w3.org/2000/svg" width="50" height="50" fill="#000" viewBox="0 0 30 30"><path d="M 8 3 C 6.343 3 5 4.343 5 6 L 5 24 C 5 25.654 6.346 27 8 27 L 14.947266 27 C 14.633266 26.371 14.389469 25.702 14.230469 25 L 8 25 C 7.449 25 7 24.551 7 24 C 7 23.449 7.449 23 8 23 L 14 23 C 14 18.029 18.029 14 23 14 C 23.688 14 24.356 14.083469 25 14.230469 L 25 5 C 25 3.895 24.105 3 23 3 L 8 3 z M 23 16 C 19.134 16 16 19.134 16 23 C 16 26.866 19.134 30 23 30 C 26.866 30 30 26.866 30 23 C 30 19.134 26.866 16 23 16 z M 23 19 C 23.552 19 24 19.447 24 20 L 24 22 L 26 22 C 26.552 22 27 22.447 27 23 C 27 23.553 26.552 24 26 24 L 24 24 L 24 26 C 24 26.553 23.552 27 23 27 C 22.448 27 22 26.553 22 26 L 22 24 L 20 24 C 19.448 24 19 23.553 19 23 C 19 22.447 19.448 22 20 22 L 22 22 L 22 20 C 22 19.447 22.448 19 23 19 z"/></svg>