<svg xmlns="http://www.w3.org/2000/svg" viewBox="0 0 64 64" width="500px" height="500px"><rect width="54" height="40" x="3" y="13" fill="#bbdef9" rx="3" ry="3"/><path fill="#def0ff" d="M40 53L57 36 57 18 22 53 40 53zM10.74 53H17.3l39-39A3 3 0 0 0 54 13H50.74zM42 13L3.45 51.55A3 3 0 0 0 6 53L46 13z"/><path fill="#97e0bb" d="M44,53.13,30.79,40A2,2,0,0,0,28,40L15,53Z"/><path fill="#72caaf" d="M45.58,34.65a1,1,0,0,0-1.38,0L27,51.87H56.33A3,3,0,0,0,57,50V45.12Z"/><path fill="#72caaf" d="M6,49H54a3,3,0,0,1,3,3v1a0,0,0,0,1,0,0H3a0,0,0,0,1,0,0V52A3,3,0,0,1,6,49Z" transform="rotate(-180 30 51)"/><path fill="#ffeb9b" d="M17 23A4 4 0 1 0 17 31A4 4 0 1 0 17 23Z"/><path fill="#8d6c9f" d="M22.07 27a5 5 0 1 0-5 5A5 5 0 0 0 22.07 27zm-5 3a3 3 0 1 1 3-3A3 3 0 0 1 17.07 30zM16 35v2a1 1 0 0 0 2 0V35a1 1 0 0 0-2 0zM17 20a1 1 0 0 0 1-1V17a1 1 0 0 0-2 0v2A1 1 0 0 0 17 20zM24 27a1 1 0 0 0 1 1h2a1 1 0 0 0 0-2H25A1 1 0 0 0 24 27zM7 28H9a1 1 0 0 0 0-2H7a1 1 0 1 0 0 2zM21.13 36.16a1 1 0 0 0 .87.5.84.84 0 0 0 .5-.14 1 1 0 0 0 .37-1.37l-1-1.73a1 1 0 0 0-1.73 1zM12.13 20.57a1 1 0 0 0 .87.5.84.84 0 0 0 .5-.14 1 1 0 0 0 .37-1.37l-1-1.73a1 1 0 0 0-1.73 1zM23.06 23.5a1.05 1.05 0 0 0 .88.53.84.84 0 0 0 .48-.16l1.73-1a1 1 0 1 0-1-1.73l-1.73 1A1 1 0 0 0 23.06 23.5zM9.57 30.13l-1.73 1a1 1 0 0 0-.37 1.37 1.05 1.05 0 0 0 .88.53.84.84 0 0 0 .48-.16l1.73-1a1 1 0 1 0-1-1.73zM23.43 31.87l1.73 1a.84.84 0 0 0 .48.16 1.05 1.05 0 0 0 .88-.53 1 1 0 0 0-.37-1.37l-1.73-1a1 1 0 1 0-1 1.73zM7.84 22.87l1.73 1a.84.84 0 0 0 .48.16 1.05 1.05 0 0 0 .88-.53 1 1 0 0 0-.37-1.37l-1.73-1a1 1 0 1 0-1 1.73zM20.5 20.94a.84.84 0 0 0 .5.14 1 1 0 0 0 .87-.5l1-1.73a1 1 0 1 0-1.73-1l-1 1.73A1 1 0 0 0 20.5 20.94zM13.5 33.06a1 1 0 0 0-1.37.37l-1 1.73a1 1 0 0 0 .37 1.37.84.84 0 0 0 .5.14 1 1 0 0 0 .87-.5l1-1.73A1 1 0 0 0 13.5 33.06zM42.9 34.7l-8.4 8.4-3.4-3.4a2.9 2.9 0 0 0-4.2 0L18.6 48H15a1 1 0 0 0-1 1 1 1 0 0 0 1 1H53a1 1 0 1 0 0-2H32.4L44.3 36.1a1 1 0 0 1 1.4 0l6.6 6.6a1 1 0 0 0 1.4-1.4l-6.6-6.6A3.09 3.09 0 0 0 42.9 34.7zM21.4 48l6.9-6.9a1 1 0 0 1 1.4 0l3.4 3.4L29.6 48z"/><path fill="#8d6c9f" d="M55,54a3,3,0,0,0,3-3V15a3,3,0,0,0-3-3H5a3,3,0,0,0-3,3V51a3,3,0,0,0,3,3ZM5,52a1,1,0,0,1-1-1V15a.94.94,0,0,1,1-1H55a.94.94,0,0,1,1,1V51a.94.94,0,0,1-1,1Z"/><path fill="#8d6c9f" d="M11,48H7a1,1,0,0,0,0,2h4a1,1,0,0,0,0-2Z"/><path fill="#72caaf" d="M51 39A12 12 0 1 0 51 63A12 12 0 1 0 51 39Z"/><path fill="#8d6c9f" d="M51,64A13,13,0,1,1,64,51,13,13,0,0,1,51,64Zm0-24A11,11,0,1,0,62,51,11,11,0,0,0,51,40Z"/><path fill="#f9efde" d="M57,50H52V45a1,1,0,0,0-2,0v5H45a1,1,0,0,0,0,2h5v5a1,1,0,0,0,2,0V52h5a1,1,0,0,0,0-2Z"/></svg>