<svg xmlns="http://www.w3.org/2000/svg" viewBox="0 0 16 16" width="100px" height="100px"><path fill="#fff" d="M0.5 0.5H14.5V12.5H0.5z"/><path fill="#788b9c" d="M14,1v11H1V1H14 M15,0H0v13h15V0L15,0z"/><path fill="#b5deff" d="M2 2H13V9.7H2z"/><path fill="#99c9f0" d="M2 7.1H13V11H2z"/><path fill="#d9f6ff" d="M12.5,4.8c-0.2,0-0.3,0.1-0.4,0.2c-0.2-0.1-0.4-0.2-0.7-0.2s-0.5,0.1-0.7,0.2 c-0.1-0.1-0.3-0.2-0.4-0.2C10.1,4.8,10,4.9,9.9,5C9.7,4.7,9.5,4.5,9.2,4.5c-0.1,0-0.2,0-0.3,0.1C8.6,4.4,8.4,4.3,8.1,4.3 C7.6,4.3,7.2,4.6,7,5C6.8,4.9,6.6,4.8,6.4,4.8S6,4.9,5.8,5c-0.1-0.5-0.5-0.8-1-0.8C4.4,4.3,4.2,4.4,4,4.6c-0.1,0-0.2-0.1-0.3-0.1 C3.3,4.5,3.1,4.7,2.9,5C2.8,4.9,2.7,4.8,2.6,4.8C2.2,4.8,2,5.1,2,5.4v3.4h11V5.4C13,5.1,12.8,4.8,12.5,4.8z"/><path fill="#6e9ee0" d="M2.1 9L13 9 13 8.3 9.6 6z"/><path fill="#77a9ed" d="M9.8 9L2 9 2 7.7 5.7 6z"/><path fill="#5e9c76" d="M11.5 7A4.5 4.5 0 1 0 11.5 16A4.5 4.5 0 1 0 11.5 7Z"/><path fill="#fff" d="M11 9H12V14H11z"/><path fill="#fff" d="M9 11H14V12H9z"/></svg>