<svg fill="#000000" xmlns="http://www.w3.org/2000/svg" viewBox="0 0 50 50" width="300px" height="300px"><path d="M 4.6875 4 C 2.121094 4 0 6.074219 0 8.625 C 0 9.816406 0.667969 10.71875 1.1875 11.6875 C 1.707031 12.65625 2.125 13.640625 2.125 14.09375 C 2.125 14.546875 1.625 16.472656 1.09375 18.53125 C 0.5625 20.589844 0 22.925781 0 25 C 0 27.074219 0.5625 29.394531 1.09375 31.4375 C 1.625 33.480469 2.125 35.371094 2.125 35.90625 C 2.125 36.441406 1.707031 37.394531 1.1875 38.34375 C 0.667969 39.292969 0 40.183594 0 41.375 C 0 43.925781 2.121094 46 4.6875 46 C 5.277344 46 5.828125 45.824219 6.5 45.625 C 7.171875 45.425781 7.933594 45.191406 8.71875 44.9375 C 10.289063 44.433594 11.996094 43.9375 13 43.9375 C 14.003906 43.9375 14.644531 44.3125 15.4375 44.8125 C 16.230469 45.3125 17.179688 46 18.53125 46 C 19.882813 46 21 45.378906 22.03125 44.875 C 23.0625 44.371094 24.003906 43.9375 25 43.9375 C 25.996094 43.9375 26.644531 44.3125 27.4375 44.8125 C 28.230469 45.3125 29.179688 46 30.53125 46 C 31.882813 46 33.128906 45.390625 34.28125 44.875 C 35.433594 44.359375 36.523438 43.9375 37 43.9375 C 37.476563 43.9375 39.316406 44.425781 41 44.9375 C 41.84375 45.191406 42.671875 45.425781 43.40625 45.625 C 44.140625 45.824219 44.722656 46 45.3125 46 C 47.878906 46 50 43.925781 50 41.375 C 50 40.183594 49.332031 39.28125 48.8125 38.3125 C 48.292969 37.34375 47.875 36.359375 47.875 35.90625 C 47.875 35.679688 47.996094 35.023438 48.1875 34.21875 C 48.378906 33.414063 48.640625 32.417969 48.90625 31.375 C 49.4375 29.289063 50 26.96875 50 25 C 50 23.03125 49.4375 20.726563 48.90625 18.65625 C 48.375 16.585938 47.875 14.628906 47.875 14.09375 C 47.875 13.558594 48.292969 12.605469 48.8125 11.65625 C 49.332031 10.707031 50 9.816406 50 8.625 C 50 6.074219 47.878906 4 45.3125 4 C 44.71875 4 44.171875 4.171875 43.5 4.375 C 42.828125 4.578125 42.066406 4.835938 41.28125 5.09375 C 39.710938 5.605469 38 6.09375 37 6.09375 C 36 6.09375 35.355469 5.695313 34.5625 5.1875 C 33.769531 4.679688 32.824219 4 31.46875 4 C 30.113281 4 29 4.644531 27.96875 5.15625 C 26.9375 5.667969 25.992188 6.09375 25 6.09375 C 24.007813 6.09375 23.386719 5.695313 22.59375 5.1875 C 21.800781 4.679688 20.824219 4 19.46875 4 C 18.113281 4 16.871094 4.601563 15.71875 5.125 C 14.566406 5.648438 13.46875 6.09375 13 6.09375 C 12.53125 6.09375 10.683594 5.609375 9 5.09375 C 8.15625 4.835938 7.328125 4.578125 6.59375 4.375 C 5.859375 4.171875 5.28125 4 4.6875 4 Z M 4.6875 6 C 4.777344 6 5.378906 6.09375 6.0625 6.28125 C 6.746094 6.46875 7.558594 6.738281 8.40625 7 C 10.101563 7.519531 11.738281 8.0625 13 8.0625 C 14.261719 8.0625 15.394531 7.453125 16.53125 6.9375 C 17.667969 6.421875 18.785156 6 19.46875 6 C 20.152344 6 20.667969 6.34375 21.5 6.875 C 22.332031 7.40625 23.464844 8.0625 25 8.0625 C 26.535156 8.0625 27.785156 7.460938 28.84375 6.9375 C 29.902344 6.414063 30.785156 6 31.46875 6 C 32.152344 6 32.667969 6.34375 33.5 6.875 C 34.332031 7.40625 35.460938 8.0625 37 8.0625 C 38.539063 8.0625 40.300781 7.492188 41.90625 6.96875 C 42.710938 6.707031 43.476563 6.46875 44.09375 6.28125 C 44.710938 6.09375 45.222656 6 45.3125 6 C 46.824219 6 48 7.160156 48 8.625 C 48 8.777344 47.597656 9.738281 47.0625 10.71875 C 46.527344 11.699219 45.90625 12.796875 45.90625 14.09375 C 45.90625 15.390625 46.476563 17.117188 47 19.15625 C 47.523438 21.195313 48 23.421875 48 25 C 48 26.578125 47.523438 28.855469 47 30.90625 C 46.738281 31.933594 46.453125 32.902344 46.25 33.75 C 46.046875 34.597656 45.90625 35.273438 45.90625 35.90625 C 45.90625 37.171875 46.53125 38.257813 47.0625 39.25 C 47.59375 40.242188 48 41.222656 48 41.375 C 48 42.839844 46.824219 44 45.3125 44 C 45.21875 44 44.621094 43.902344 43.9375 43.71875 C 43.253906 43.535156 42.441406 43.289063 41.59375 43.03125 C 39.898438 42.519531 38.257813 41.96875 37 41.96875 C 35.742188 41.96875 34.605469 42.554688 33.46875 43.0625 C 32.332031 43.570313 31.21875 44 30.53125 44 C 29.84375 44 29.300781 43.648438 28.46875 43.125 C 27.636719 42.601563 26.53125 41.96875 25 41.96875 C 23.46875 41.96875 22.214844 42.574219 21.15625 43.09375 C 20.097656 43.613281 19.21875 44 18.53125 44 C 17.84375 44 17.332031 43.648438 16.5 43.125 C 15.667969 42.601563 14.535156 41.96875 13 41.96875 C 11.464844 41.96875 9.699219 42.515625 8.09375 43.03125 C 7.289063 43.289063 6.554688 43.535156 5.9375 43.71875 C 5.320313 43.902344 4.78125 44 4.6875 44 C 3.175781 44 2 42.839844 2 41.375 C 2 41.222656 2.402344 40.261719 2.9375 39.28125 C 3.472656 38.300781 4.09375 37.203125 4.09375 35.90625 C 4.09375 34.609375 3.523438 32.945313 3 30.9375 C 2.476563 28.929688 2 26.707031 2 25 C 2 23.292969 2.480469 21.050781 3 19.03125 C 3.519531 17.011719 4.09375 15.359375 4.09375 14.09375 C 4.09375 12.828125 3.46875 11.742188 2.9375 10.75 C 2.40625 9.757813 2 8.777344 2 8.625 C 2 7.160156 3.175781 6 4.6875 6 Z M 7.8125 11 C 7.335938 11.089844 6.992188 11.511719 7 12 L 7 38 C 7 38.550781 7.449219 39 8 39 L 42 39 C 42.550781 39 43 38.550781 43 38 L 43 12 C 43 11.449219 42.550781 11 42 11 L 8 11 C 7.96875 11 7.9375 11 7.90625 11 C 7.875 11 7.84375 11 7.8125 11 Z M 9 13 L 41 13 L 41 37 L 9 37 Z M 24 18 L 24 24 L 18 24 L 18 26 L 24 26 L 24 32 L 26 32 L 26 26 L 32 26 L 32 24 L 26 24 L 26 18 Z"/></svg>