<svg fill="#000000" xmlns="http://www.w3.org/2000/svg" viewBox="0 0 16 16" width="50px" height="50px"><path d="M 2.5 2 C 1.6774686 2 1 2.6774686 1 3.5 L 1 4.5 L 1 12.5 C 1 13.322531 1.6774686 14 2.5 14 L 7.7617188 14 C 8.5704696 15.204592 9.94479 16 11.5 16 C 13.979359 16 16 13.979359 16 11.5 C 16 10.440389 15.616209 9.477153 15 8.7070312 L 15 5.5 C 15 4.6774686 14.322531 4 13.5 4 L 6.7988281 4 L 6.1445312 2.7871094 C 5.8835911 2.3027204 5.3751898 2 4.8242188 2 L 2.5 2 z M 2.5 3 L 4.8242188 3 C 5.0092477 3 5.176612 3.1001077 5.2636719 3.2617188 L 5.6621094 4 L 2 4 L 2 3.5 C 2 3.2185314 2.2185314 3 2.5 3 z M 2 5 L 13.5 5 C 13.781469 5 14 5.2185314 14 5.5 L 14 7.7617188 C 13.284198 7.2811365 12.424149 7 11.5 7 C 9.0206409 7 7 9.0206409 7 11.5 C 7 12.028145 7.1071101 12.528582 7.2753906 13 L 2.5 13 C 2.2185314 13 2 12.781469 2 12.5 L 2 5 z M 11.5 8 C 13.438919 8 15 9.5610811 15 11.5 C 15 13.438919 13.438919 15 11.5 15 C 9.5610811 15 8 13.438919 8 11.5 C 8 9.5610811 9.5610811 8 11.5 8 z M 11 9 L 11 11 L 9 11 L 9 12 L 11 12 L 11 14 L 12 14 L 12 12 L 14 12 L 14 11 L 12 11 L 12 9 L 11 9 z"/></svg>