<svg fill="#000000" xmlns="http://www.w3.org/2000/svg" viewBox="0 0 24 24" width="100px" height="100px"><path d="M 6 2 C 4.9045455 2 4 2.9045455 4 4 L 4 20 C 4 21.095455 4.9045455 22 6 22 L 13 22 L 13 20 L 6 20 L 6 4 L 13 4 L 13 9 L 18 9 L 18 14 L 20 14 L 20 8 L 14 2 L 6 2 z M 15.292969 11.292969 L 12 14.585938 L 10 12.585938 L 7.2929688 15.292969 L 8.7070312 16.707031 L 10 15.414062 L 12 17.414062 L 16.707031 12.707031 L 15.292969 11.292969 z M 18 16 L 18 19 L 15 19 L 15 21 L 18 21 L 18 24 L 20 24 L 20 21 L 23 21 L 23 19 L 20 19 L 20 16 L 18 16 z"/></svg>