<?xml version="1.0"?><svg fill="#000000" xmlns="http://www.w3.org/2000/svg" viewBox="0 0 30 30" width="100px" height="100px">    <path d="M 18.5 3 C 13.806 3 10 6.806 10 11.5 C 10 12.542 10.196063 13.537937 10.539062 14.460938 L 3 22 L 3 27 L 8 27 L 8 24 L 11 24 L 11 21 L 14 21 L 14.310547 20.689453 C 15.331547 16.841453 18.83 14 23 14 C 24.198 14 25.338766 14.239063 26.384766 14.664062 C 26.777766 13.685063 27 12.619 27 11.5 C 27 6.806 23.194 3 18.5 3 z M 20.5 7 C 21.881 7 23 8.119 23 9.5 C 23 10.881 21.881 12 20.5 12 C 19.119 12 18 10.881 18 9.5 C 18 8.119 19.119 7 20.5 7 z M 23 16 C 19.134 16 16 19.134 16 23 C 16 26.866 19.134 30 23 30 C 26.866 30 30 26.866 30 23 C 30 19.134 26.866 16 23 16 z M 23 19 C 23.552 19 24 19.447 24 20 L 24 22 L 26 22 C 26.552 22 27 22.447 27 23 C 27 23.553 26.552 24 26 24 L 24 24 L 24 26 C 24 26.553 23.552 27 23 27 C 22.448 27 22 26.553 22 26 L 22 24 L 20 24 C 19.448 24 19 23.553 19 23 C 19 22.447 19.448 22 20 22 L 22 22 L 22 20 C 22 19.447 22.448 19 23 19 z"/></svg>