<svg fill="#000000" xmlns="http://www.w3.org/2000/svg" viewBox="0 0 80 80" width="50px" height="50px"><path d="M 52 7 C 39.869 7 30 16.869 30 29 C 30 30.066 30.088531 31.155406 30.269531 32.316406 L 27.464844 35.121094 C 25.528012 37.057925 25.517041 40.204325 27.429688 42.15625 L 7 62.585938 L 7 69.414062 L 11.585938 74 L 18.414062 74 L 24 68.414062 L 24 67 L 25.414062 67 L 29 63.414062 L 29 61 L 31.414062 61 L 38.845703 53.568359 C 39.785409 54.489244 41.025078 55 42.34375 55 C 43.67975 55 44.934906 54.479156 45.878906 53.535156 L 48.683594 50.730469 C 49.218594 50.813469 49.734141 50.873969 50.244141 50.917969 C 50.910141 50.217969 51.629531 49.571516 52.394531 48.978516 C 52.261531 48.982516 52.133 49 52 49 C 50.895 49 49.753719 48.893781 48.511719 48.675781 L 47.998047 48.585938 L 44.464844 52.121094 C 43.331844 53.254094 41.353703 53.254094 40.220703 52.121094 L 28.878906 40.779297 C 27.709906 39.609297 27.709906 37.705156 28.878906 36.535156 L 32.414062 33 L 32.324219 32.488281 C 32.105219 31.247281 32 30.105 32 29 C 32 17.972 40.972 9 52 9 C 63.028 9 72 17.972 72 29 C 72 35.547 68.823312 41.352906 63.945312 45.003906 C 63.964312 45.003906 63.982 45 64 45 C 64.965 45 65.904078 45.095375 66.830078 45.234375 C 71.233078 41.208375 74 35.421 74 29 C 74 16.869 64.131 7 52 7 z M 52 15.005859 C 48.414979 15.005859 44.831128 16.371999 42.101562 19.101562 L 41.394531 19.808594 L 61.191406 39.605469 L 61.898438 38.898438 C 67.35763 33.440317 67.359518 24.560738 61.900391 19.101562 C 59.170779 16.371999 55.585021 15.005859 52 15.005859 z M 52 16.994141 C 55.068979 16.994141 58.138892 18.168189 60.486328 20.515625 C 64.930092 24.959389 65.017396 31.91525 61.048828 36.634766 L 44.365234 19.951172 C 46.59207 18.079011 49.259255 16.994141 52 16.994141 z M 39 23 A 1 1 0 0 0 38 24 A 1 1 0 0 0 39 25 A 1 1 0 0 0 40 24 A 1 1 0 0 0 39 23 z M 42 26 A 1 1 0 0 0 41 27 A 1 1 0 0 0 42 28 A 1 1 0 0 0 43 27 A 1 1 0 0 0 42 26 z M 45 29 A 1 1 0 0 0 44 30 A 1 1 0 0 0 45 31 A 1 1 0 0 0 46 30 A 1 1 0 0 0 45 29 z M 48 32 A 1 1 0 0 0 47 33 A 1 1 0 0 0 48 34 A 1 1 0 0 0 49 33 A 1 1 0 0 0 48 32 z M 34 34 A 1 1 0 0 0 33 35 A 1 1 0 0 0 34 36 A 1 1 0 0 0 35 35 A 1 1 0 0 0 34 34 z M 51 35 A 1 1 0 0 0 50 36 A 1 1 0 0 0 51 37 A 1 1 0 0 0 52 36 A 1 1 0 0 0 51 35 z M 37 37 A 1 1 0 0 0 36 38 A 1 1 0 0 0 37 39 A 1 1 0 0 0 38 38 A 1 1 0 0 0 37 37 z M 54 38 A 1 1 0 0 0 53 39 A 1 1 0 0 0 54 40 A 1 1 0 0 0 55 39 A 1 1 0 0 0 54 38 z M 40 40 A 1 1 0 0 0 39 41 A 1 1 0 0 0 40 42 A 1 1 0 0 0 41 41 A 1 1 0 0 0 40 40 z M 57 41 A 1 1 0 0 0 56 42 A 1 1 0 0 0 57 43 A 1 1 0 0 0 58 42 A 1 1 0 0 0 57 41 z M 43 43 A 1 1 0 0 0 42 44 A 1 1 0 0 0 43 45 A 1 1 0 0 0 44 44 A 1 1 0 0 0 43 43 z M 28.84375 43.570312 L 31.441406 46.169922 A 1.0001 1.0001 0 0 0 31.292969 46.292969 L 19.292969 58.292969 A 1.0001 1.0001 0 1 0 20.707031 59.707031 L 32.707031 47.707031 A 1.0001 1.0001 0 0 0 32.832031 47.560547 L 37.429688 52.15625 L 30.585938 59 L 27 59 L 27 62.585938 L 24.585938 65 L 22 65 L 22 67.585938 L 17.585938 72 L 12.414062 72 L 9 68.585938 L 9 63.414062 L 28.84375 43.570312 z M 46 46 A 1 1 0 0 0 45 47 A 1 1 0 0 0 46 48 A 1 1 0 0 0 47 47 A 1 1 0 0 0 46 46 z M 64 48 C 55.178 48 48 55.178 48 64 C 48 72.822 55.178 80 64 80 C 72.822 80 80 72.822 80 64 C 80 55.178 72.822 48 64 48 z M 64 50 C 71.72 50 78 56.28 78 64 C 78 71.72 71.72 78 64 78 C 56.28 78 50 71.72 50 64 C 50 56.28 56.28 50 64 50 z M 63 57 L 63 63 L 57 63 L 57 65 L 63 65 L 63 71 L 65 71 L 65 65 L 71 65 L 71 63 L 65 63 L 65 57 L 63 57 z M 17 61 A 1 1 0 0 0 16 62 A 1 1 0 0 0 17 63 A 1 1 0 0 0 18 62 A 1 1 0 0 0 17 61 z M 14 64 A 1 1 0 0 0 13 65 A 1 1 0 0 0 14 66 A 1 1 0 0 0 15 65 A 1 1 0 0 0 14 64 z"/></svg>