<svg xmlns="http://www.w3.org/2000/svg" viewBox="0 0 128 128" width="500px" height="500px"><path fill="#fff" d="M19,114V24c0-5.5,4.5-10,10-10h70c11,0,20,9,20,20v80c0,2.8-2.2,5-5,5H24C21.2,119,19,116.8,19,114z"/><path fill="#444b54" d="M19,34c-1.7,0-3-1.3-3-3v-7c0-7.2,5.8-13,13-13h40c1.7,0,3,1.3,3,3s-1.3,3-3,3H29c-3.9,0-7,3.1-7,7v7C22,32.7,20.7,34,19,34z"/><path fill="#fff" d="M100.7,57H67.2c-5.2,0-10-2.4-13.2-6.5l0,0c-3.2-4.1-8-6.5-13.2-6.5H14c-2.8,0-5,2.2-5,5v65c0,2.8,2.2,5,5,5h91.7V62C105.7,59.2,103.4,57,100.7,57z"/><path fill="#fcca3d" d="M39,114c0,2.8,2.2,5,5,5h61.7v-10H44C41.2,109,39,111.2,39,114L39,114z"/><path fill="#444b54" d="M112.3,122H14c-4.4,0-8-3.6-8-8V49c0-4.4,3.6-8,8-8h26.8c6.1,0,11.9,2.9,15.6,7.7C58.9,52,63,54,67.2,54h33.5c4.4,0,8,3.6,8,8v50.3c0,2,1.6,3.7,3.7,3.7c2,0,3.7-1.6,3.7-3.7V47c0-1.7,1.3-3,3-3s3,1.3,3,3v65.3C122,117.7,117.7,122,112.3,122z M14,47c-1.1,0-2,0.9-2,2v65c0,1.1,0.9,2,2,2h89.4c-0.5-1.1-0.7-2.4-0.7-3.7V62c0-1.1-0.9-2-2-2H67.2c-6.1,0-11.9-2.9-15.6-7.7C49.1,49,45,47,40.8,47H14z"/><g><path fill="#1fd4af" d="M102 1A20 20 0 1 0 102 41A20 20 0 1 0 102 1Z"/><path fill="#fff" d="M108.9,24h-14c-1.7,0-3-1.3-3-3s1.3-3,3-3h14c1.7,0,3,1.3,3,3S110.6,24,108.9,24z"/><path fill="#fff" d="M101.9,31c-1.7,0-3-1.3-3-3V14c0-1.7,1.3-3,3-3s3,1.3,3,3v14C104.9,29.7,103.6,31,101.9,31z"/></g></svg>