<svg xmlns="http://www.w3.org/2000/svg" viewBox="0 0 16 16" width="300px" height="300px"><path fill="#dcd5f2" d="M8,14.5c-3.2,0-5.5-1.3-5.5-2.5V4h11v8C13.5,13.2,11.2,14.5,8,14.5z"/><path fill="#8b75a1" d="M13,4.5V12c0,0.8-1.9,2-5,2s-5-1.2-5-2V4.5H13 M14,3.5H2c0,0,0,7.7,0,8.5c0,1.7,2.7,3,6,3 s6-1.3,6-3C14,11.2,14,3.5,14,3.5L14,3.5z"/><path fill="#dcd5f2" d="M8,5.5c-3.1,0-5.5-1.1-5.5-2s2.4-2,5.5-2s5.5,1.1,5.5,2S11.1,5.5,8,5.5z"/><path fill="#8b75a1" d="M8 2c3.3 0 5 1.1 5 1.5S11.3 5 8 5 3 3.9 3 3.5 4.7 2 8 2M8 1C4.7 1 2 2.1 2 3.5S4.7 6 8 6s6-1.1 6-2.5S11.3 1 8 1L8 1zM8 9C4.6 9 2 7.8 2 6.2h1C3 7 4.9 8 8 8s5-1 5-1.8h1C14 7.8 11.4 9 8 9zM8 12c-3.4 0-6-1.2-6-2.8h1C3 10 4.9 11 8 11s5-1 5-1.8h1C14 10.8 11.4 12 8 12z"/><g><path fill="#5e9c76" d="M11.5 7A4.5 4.5 0 1 0 11.5 16A4.5 4.5 0 1 0 11.5 7Z"/><path fill="#fff" d="M11 9H12V14H11z"/><path fill="#fff" d="M9 11H14V12H9z"/></g></svg>