<svg xmlns="http://www.w3.org/2000/svg" viewBox="0 0 40 40" width="300px" height="300px"><path fill="#b6dcfe" d="M12.833,6.5c0.502-0.544,0.812-1.433,1.275-2.762c0.12-0.342,0.25-0.718,0.399-1.13 C14.809,1.769,16.144,1.5,20,1.5s5.191,0.269,5.493,1.107c0.148,0.412,0.279,0.788,0.399,1.13 c0.463,1.329,0.772,2.218,1.275,2.762H12.833z"/><path fill="#4788c7" d="M20,2c2.847,0,4.79,0.132,5.023,0.777c0.148,0.41,0.278,0.783,0.396,1.124 C25.715,4.749,25.957,5.445,26.239,6H13.761c0.281-0.555,0.524-1.251,0.819-2.099c0.119-0.341,0.249-0.715,0.396-1.124 C15.21,2.132,17.153,2,20,2 M20,1c-4.015,0-5.542,0.267-5.964,1.438C13.144,4.914,12.879,6.1,12,6.499V7h16V6.499 c-0.879-0.4-1.144-1.585-2.036-4.062C25.542,1.267,24.015,1,20,1L20,1z"/><path fill="#b6dcfe" d="M20,38.5c-3.856,0-5.191-0.269-5.493-1.107c-0.148-0.412-0.279-0.789-0.399-1.131 c-0.463-1.329-0.772-2.217-1.275-2.761h14.334c-0.502,0.544-0.812,1.433-1.275,2.761c-0.12,0.343-0.25,0.719-0.399,1.131 C25.191,38.231,23.856,38.5,20,38.5z"/><path fill="#4788c7" d="M26.239,34c-0.281,0.555-0.524,1.25-0.819,2.099c-0.119,0.341-0.249,0.715-0.396,1.124 C24.79,37.868,22.847,38,20,38s-4.79-0.132-5.023-0.777c-0.148-0.41-0.278-0.784-0.396-1.124 c-0.296-0.848-0.538-1.544-0.819-2.099H26.239 M28,33H12v0.5c0.879,0.4,1.144,1.585,2.036,4.062C14.458,38.733,15.985,39,20,39 s5.542-0.267,5.964-1.438C26.856,35.086,27.121,33.9,28,33.5V33L28,33z"/><path fill="#dff0fe" d="M13,33.5c-2.481,0-4.5-2.019-4.5-4.5V11c0-2.481,2.019-4.5,4.5-4.5h14c2.481,0,4.5,2.019,4.5,4.5v18 c0,2.481-2.019,4.5-4.5,4.5H13z"/><path fill="#4788c7" d="M27,7c2.206,0,4,1.794,4,4v18c0,2.206-1.794,4-4,4H13c-2.206,0-4-1.794-4-4V11c0-2.206,1.794-4,4-4 H27 M27,6H13c-2.761,0-5,2.239-5,5v18c0,2.761,2.239,5,5,5h14c2.761,0,5-2.239,5-5V11C32,8.239,29.761,6,27,6L27,6z"/><path fill="#4788c7" d="M26 31H14c-1.657 0-3-1.343-3-3V12c0-1.657 1.343-3 3-3h12c1.657 0 3 1.343 3 3v16C29 29.657 27.657 31 26 31zM32 19h.882C33.499 19 34 18.499 34 17.882v-2.764C34 14.501 33.499 14 32.882 14H32V19z"/><path fill="#fff" d="M20 17A3 3 0 1 0 20 23 3 3 0 1 0 20 17zM24.5 11A1.5 1.5 0 1 0 24.5 14 1.5 1.5 0 1 0 24.5 11z"/><path fill="#98ccfd" d="M25 15A2 2 0 1 0 25 19A2 2 0 1 0 25 15Z"/><path fill="#b6dcfe" d="M15 22A2 2 0 1 0 15 26A2 2 0 1 0 15 22Z"/><path fill="#dff0fe" d="M26 20A2 2 0 1 0 26 24 2 2 0 1 0 26 20zM23.5 24A1.5 1.5 0 1 0 23.5 27 1.5 1.5 0 1 0 23.5 24zM17 11A1 1 0 1 0 17 13 1 1 0 1 0 17 11zM14.5 18A1.5 1.5 0 1 0 14.5 21 1.5 1.5 0 1 0 14.5 18z"/><path fill="#98ccfd" d="M15.5 14A1.5 1.5 0 1 0 15.5 17A1.5 1.5 0 1 0 15.5 14Z"/><path fill="#b6dcfe" d="M20.321 12.536A2 2 0 1 0 20.321 16.536A2 2 0 1 0 20.321 12.536Z"/><path fill="#98ccfd" d="M19.5 25A1.5 1.5 0 1 0 19.5 28A1.5 1.5 0 1 0 19.5 25Z"/></svg>