<svg xmlns="http://www.w3.org/2000/svg" viewBox="0 0 128 128" width="100px" height="100px"><path fill="#3f4a54" d="M64,121c-0.8,0-1.5-0.3-2.1-0.9l-54-54c-1.2-1.2-1.2-3.1,0-4.2l54-54c1.2-1.2,3.1-1.2,4.2,0l54,54c1.2,1.2,1.2,3.1,0,4.2l-54,54C65.5,120.7,64.8,121,64,121z M14.2,64L64,113.8L113.8,64L64,14.2L14.2,64z"/><path fill="#3f4a54" d="M47,78c-0.3,0-0.6,0-0.9-0.1l-37-11c-1.6-0.5-2.5-2.1-2-3.7s2.1-2.5,3.7-2l36.4,10.8L117.5,61c1.6-0.3,3.2,0.9,3.4,2.5c0.3,1.6-0.9,3.2-2.5,3.4l-71,11C47.3,78,47.2,78,47,78z"/><path fill="#3f4a54" d="M30.6 63.8c-1.5 0-2.7-1.1-3-2.5-.3-1.6.9-3.2 2.5-3.4l11-1.7c1.6-.3 3.2.9 3.4 2.5.3 1.6-.9 3.2-2.5 3.4l-11 1.7C30.9 63.8 30.7 63.8 30.6 63.8zM99.5 61.5c-.3 0-.6 0-.9-.1l-17.9-5.3L61.9 59c-1.6.2-3.2-.9-3.4-2.5-.3-1.6.9-3.2 2.5-3.4l19.6-3c.4-.1.9 0 1.3.1l18.5 5.5c1.6.5 2.5 2.1 2 3.7C102 60.7 100.8 61.5 99.5 61.5zM68.7 103.1c-.3 0-.5 0-.8-.1-1.6-.4-2.6-2.1-2.1-3.7l4.7-17.9c.4-1.6 2.1-2.6 3.7-2.1 1.6.4 2.6 2.1 2.1 3.7l-4.7 17.9C71.2 102.2 70 103.1 68.7 103.1z"/><path fill="#3f4a54" d="M78.6,65.3c-0.3,0-0.5,0-0.8-0.1c-1.6-0.4-2.6-2.1-2.1-3.7l2.2-8.4L61.2,11.1c-0.6-1.5,0.1-3.3,1.7-3.9c1.5-0.6,3.3,0.1,3.9,1.7l17,43c0.2,0.6,0.3,1.2,0.1,1.9l-2.4,9.3C81.1,64.5,79.9,65.3,78.6,65.3z"/><path fill="#3f4a54" d="M64,121c-1.2,0-2.3-0.7-2.8-1.9l-17-43c-0.2-0.6-0.3-1.2-0.1-1.9l17-65c0.4-1.6,2.1-2.6,3.7-2.1c1.6,0.4,2.6,2.1,2.1,3.7L50.2,74.8l16.6,42.1c0.6,1.5-0.1,3.3-1.7,3.9C64.7,120.9,64.4,121,64,121z"/></svg>