<?xml version="1.0"?><svg fill="#000000" xmlns="http://www.w3.org/2000/svg" viewBox="0 0 24 24" width="500px" height="500px">    <path d="M 8.3222656 1 L 7.2636719 5 L 5 5 L 5 6 L 5 19 L 7.2636719 19 L 8.3222656 23 L 14.677734 23 L 15.736328 19 L 18 19 L 18 12 L 19 12 L 19 8 L 18 8 L 18 5 L 15.736328 5 L 14.677734 1 L 8.3222656 1 z M 7 7 L 16 7 L 16 17 L 7 17 L 7 7 z M 9.5 9 A 1.5 1.5 0 0 0 8 10.5 A 1.5 1.5 0 0 0 9.5 12 A 1.5 1.5 0 0 0 11 10.5 A 1.5 1.5 0 0 0 9.5 9 z M 13 9 A 1 1 0 0 0 12 10 A 1 1 0 0 0 13 11 A 1 1 0 0 0 14 10 A 1 1 0 0 0 13 9 z M 13.5 12 A 1.5 1.5 0 0 0 12 13.5 A 1.5 1.5 0 0 0 13.5 15 A 1.5 1.5 0 0 0 15 13.5 A 1.5 1.5 0 0 0 13.5 12 z M 10 13 A 1 1 0 0 0 9 14 A 1 1 0 0 0 10 15 A 1 1 0 0 0 11 14 A 1 1 0 0 0 10 13 z"/></svg>