<svg xmlns="http://www.w3.org/2000/svg" viewBox="0 0 48 48" width="100px" height="100px"><path fill="#ffca28" d="M44,24c0,11-9,20-20,20S4,35,4,24S13,4,24,4S44,13,44,24z"/><path fill="#b76c09" d="M17 25c-3 0-4.7-2.3-4.8-2.4l1.6-1.2c0 0 1.3 1.6 3.2 1.6s3.2-1.6 3.2-1.6l1.6 1.2C21.7 22.7 20 25 17 25zM31 25c-3 0-4.7-2.3-4.8-2.4l1.6-1.2c0 0 1.3 1.6 3.2 1.6s3.2-1.6 3.2-1.6l1.6 1.2C35.7 22.7 34 25 31 25zM24 34c-3.3 0-5.4-1.1-5.5-1.1l.9-1.8c0 0 1.7.9 4.5.9s4.5-.9 4.5-.9l.9 1.8C29.4 32.9 27.3 34 24 34z"/></svg>