<svg xmlns="http://www.w3.org/2000/svg" viewBox="0 0 48 48" width="50px" height="50px"><path fill="#2196F3" d="M39,6H9C7.343,6,6,7.343,6,9v33l8.556-8H39c1.656,0,3-1.344,3-3V9C42,7.343,40.656,6,39,6z"/><path fill="#E3F2FD" d="M24,15.494l0.99,1.993l0.467,0.939l1.038,0.15l2.186,0.315l-1.571,1.521l-0.76,0.735l0.18,1.042l0.374,2.166l-1.978-1.032L24,22.841l-0.926,0.483l-1.977,1.032l0.374-2.166l0.18-1.042l-0.76-0.735l-1.572-1.521l2.185-0.315l1.039-0.15l0.467-0.939L24,15.494 M24,11l-2.781,5.597L15,17.494l4.5,4.355L18.438,28L24,25.097L29.563,28L28.5,21.85l4.5-4.355l-6.219-0.897L24,11L24,11z"/></svg>