<?xml version="1.0"?><svg fill="#000000" xmlns="http://www.w3.org/2000/svg" viewBox="0 0 64 64" width="50px" height="50px">    <path d="M 32 1.9453125 C 28.765 1.9453125 25.530313 2.1001563 22.320312 2.4101562 L 21.810547 2.4609375 C 20.630547 2.5809375 19.63 3.38 19.25 4.5 L 18.449219 6.9199219 C 17.929219 8.4799219 17.210781 9.9600781 16.300781 11.330078 C 13.720781 12.920078 12 15.76 12 19 L 12 45 C 12 47.71 13.209375 50.149062 15.109375 51.789062 L 15.109375 51.800781 C 15.139375 51.890781 15.180469 51.970781 15.230469 52.050781 L 16.230469 53.550781 C 17.170469 54.950781 17.909219 56.480078 18.449219 58.080078 L 19.25 60.5 C 19.63 61.62 20.630547 62.419062 21.810547 62.539062 L 22.310547 62.589844 C 25.530547 62.899844 28.76 63.050781 32 63.050781 C 35.24 63.050781 38.469453 62.899844 41.689453 62.589844 L 42.189453 62.539062 C 43.369453 62.419063 44.37 61.63 44.75 60.5 L 45.550781 58.080078 C 46.090781 56.480078 46.829531 54.950781 47.769531 53.550781 L 48.769531 52.050781 C 48.819531 51.970781 48.860625 51.890781 48.890625 51.800781 L 48.890625 51.789062 C 50.790625 50.149062 52 47.71 52 45 L 52 44 C 52.552 44 53 43.552 53 43 L 53 35 C 53 34.448 52.552 34 52 34 L 52 31.857422 C 53.72 31.410422 55 29.858 55 28 L 55 24 C 55 22.142 53.72 20.589578 52 20.142578 L 52 19 C 52 15.76 50.279219 12.920078 47.699219 11.330078 C 46.789219 9.9600781 46.070781 8.4799219 45.550781 6.9199219 L 44.75 4.5 C 44.37 3.37 43.369453 2.5809375 42.189453 2.4609375 L 41.679688 2.4101562 C 38.469687 2.1001562 35.235 1.9453125 32 1.9453125 z M 32 3.9492188 C 35.17 3.9492188 38.340234 4.1003906 41.490234 4.4003906 L 42 4.4492188 C 42.39 4.4892188 42.729609 4.7608594 42.849609 5.1308594 L 43.660156 7.5507812 C 43.960156 8.4507812 44.310469 9.3199219 44.730469 10.169922 C 44.170469 10.059922 43.59 10 43 10 L 21 10 C 20.41 10 19.829531 10.059922 19.269531 10.169922 C 19.689531 9.3199219 20.039844 8.4507812 20.339844 7.5507812 L 21.150391 5.1308594 C 21.270391 4.7608594 21.61 4.4892187 22 4.4492188 L 22.509766 4.4003906 C 25.659766 4.1003906 28.83 3.9492188 32 3.9492188 z M 21 12 L 43 12 C 43.92 12 44.789844 12.18 45.589844 12.5 C 46.649844 12.92 47.569063 13.589688 48.289062 14.429688 C 49.359062 15.659688 50 17.26 50 19 L 50 21 L 50 31 L 50 35 L 50 43 L 50 45 C 50 47.23 48.950312 49.22 47.320312 50.5 C 46.130313 51.44 44.63 52 43 52 L 21 52 C 19.37 52 17.869688 51.44 16.679688 50.5 C 15.049688 49.22 14 47.23 14 45 L 14 19 C 14 17.26 14.640937 15.659687 15.710938 14.429688 C 16.430937 13.589688 17.350156 12.92 18.410156 12.5 C 19.210156 12.18 20.08 12 21 12 z M 25.5 15 C 23.57 15 22 16.57 22 18.5 C 22 20.43 23.57 22 25.5 22 C 27.43 22 29 20.43 29 18.5 C 29 16.57 27.43 15 25.5 15 z M 35 15 A 2 2 0 0 0 33 17 A 2 2 0 0 0 35 19 A 2 2 0 0 0 37 17 A 2 2 0 0 0 35 15 z M 25.5 17 C 26.327 17 27 17.673 27 18.5 C 27 19.327 26.327 20 25.5 20 C 24.673 20 24 19.327 24 18.5 C 24 17.673 24.673 17 25.5 17 z M 42 19 C 39.794 19 38 20.794 38 23 C 38 25.206 39.794 27 42 27 C 44.206 27 46 25.206 46 23 C 46 20.794 44.206 19 42 19 z M 42 21 C 43.103 21 44 21.897 44 23 C 44 24.103 43.103 25 42 25 C 40.897 25 40 24.103 40 23 C 40 21.897 40.897 21 42 21 z M 52 22.267578 C 52.597 22.613578 53 23.260047 53 23.998047 L 53 28 C 53 28.739 52.597 29.384469 52 29.730469 L 52 22.267578 z M 31.5 23 C 28.467 23 26 25.467 26 28.5 C 26 31.533 28.467 34 31.5 34 C 34.533 34 37 31.533 37 28.5 C 37 25.467 34.533 23 31.5 23 z M 20.5 24 C 18.57 24 17 25.57 17 27.5 C 17 29.43 18.57 31 20.5 31 C 22.43 31 24 29.43 24 27.5 C 24 25.57 22.43 24 20.5 24 z M 31.5 25 C 33.43 25 35 26.57 35 28.5 C 35 30.43 33.43 32 31.5 32 C 29.57 32 28 30.43 28 28.5 C 28 26.57 29.57 25 31.5 25 z M 20.5 26 C 21.327 26 22 26.673 22 27.5 C 22 28.327 21.327 29 20.5 29 C 19.673 29 19 28.327 19 27.5 C 19 26.673 19.673 26 20.5 26 z M 42 30 A 2 2 0 0 0 40 32 A 2 2 0 0 0 42 34 A 2 2 0 0 0 44 32 A 2 2 0 0 0 42 30 z M 24 33 C 21.794 33 20 34.794 20 37 C 20 39.206 21.794 41 24 41 C 26.206 41 28 39.206 28 37 C 28 34.794 26.206 33 24 33 z M 24 35 C 25.103 35 26 35.897 26 37 C 26 38.103 25.103 39 24 39 C 22.897 39 22 38.103 22 37 C 22 35.897 22.897 35 24 35 z M 38.5 35 C 36.57 35 35 36.57 35 38.5 C 35 40.43 36.57 42 38.5 42 C 40.43 42 42 40.43 42 38.5 C 42 36.57 40.43 35 38.5 35 z M 38.5 37 C 39.327 37 40 37.673 40 38.5 C 40 39.327 39.327 40 38.5 40 C 37.673 40 37 39.327 37 38.5 C 37 37.673 37.673 37 38.5 37 z M 31 40 A 2 2 0 0 0 29 42 A 2 2 0 0 0 31 44 A 2 2 0 0 0 33 42 A 2 2 0 0 0 31 40 z M 20 46 C 19.448 46 19 46.448 19 47 L 19 49 C 19 49.552 19.448 50 20 50 C 20.552 50 21 49.552 21 49 L 21 47 C 21 46.448 20.552 46 20 46 z M 25 46 C 24.448 46 24 46.448 24 47 L 24 49 C 24 49.552 24.448 50 25 50 C 25.552 50 26 49.552 26 49 L 26 47 C 26 46.448 25.552 46 25 46 z M 30 46 C 29.448 46 29 46.448 29 47 L 29 49 C 29 49.552 29.448 50 30 50 C 30.552 50 31 49.552 31 49 L 31 47 C 31 46.448 30.552 46 30 46 z M 35 46 C 34.448 46 34 46.448 34 47 L 34 49 C 34 49.552 34.448 50 35 50 C 35.552 50 36 49.552 36 49 L 36 47 C 36 46.448 35.552 46 35 46 z M 40 46 C 39.448 46 39 46.448 39 47 L 39 49 C 39 49.552 39.448 50 40 50 C 40.552 50 41 49.552 41 49 L 41 47 C 41 46.448 40.552 46 40 46 z M 45 46 C 44.448 46 44 46.448 44 47 L 44 49 C 44 49.552 44.448 50 45 50 C 45.552 50 46 49.552 46 49 L 46 47 C 46 46.448 45.552 46 45 46 z M 18.669922 53.699219 C 19.419922 53.889219 20.2 54 21 54 L 43 54 C 43.8 54 44.580078 53.889219 45.330078 53.699219 C 44.650078 54.889219 44.090156 56.149219 43.660156 57.449219 L 42.849609 59.869141 C 42.729609 60.239141 42.39 60.510781 42 60.550781 L 41.490234 60.599609 C 35.190234 61.199609 28.809766 61.199609 22.509766 60.599609 L 22 60.550781 C 21.61 60.510781 21.270391 60.239141 21.150391 59.869141 L 20.339844 57.449219 C 19.909844 56.149219 19.349922 54.889219 18.669922 53.699219 z"/></svg>