<svg xmlns="http://www.w3.org/2000/svg" viewBox="0 0 80 80" width="500px" height="500px"><path fill="#b0c1d4" d="M24.5,15.5v-0.383c1.456-0.956,2.077-3.038,3.251-6.97c0.239-0.801,0.501-1.68,0.799-2.644 C29.27,3.173,31.838,2.5,40,2.5s10.73,0.673,11.45,3.003c0.297,0.963,0.56,1.843,0.799,2.644c1.174,3.932,1.796,6.014,3.251,6.97 V15.5H24.5z"/><path fill="#66798f" d="M40,3c7.781,0,10.344,0.619,10.972,2.65c0.297,0.961,0.559,1.838,0.797,2.638 c1.032,3.455,1.65,5.527,2.807,6.712H40H25.424c1.157-1.185,1.775-3.257,2.807-6.712c0.239-0.799,0.501-1.677,0.797-2.638 C29.656,3.619,32.219,3,40,3 M40,2c-8.03,0-11.083,0.623-11.927,3.355C26.288,11.133,25.759,13.9,24,14.832V16h16h16v-1.168 c-1.759-0.932-2.288-3.699-4.073-9.477C51.083,2.623,48.03,2,40,2L40,2z"/><path fill="#b0c1d4" d="M40,77.5c-8.162,0-10.73-0.673-11.45-3.003c-0.297-0.963-0.56-1.843-0.799-2.644 c-1.174-3.932-1.796-6.014-3.251-6.97V64.5h31v0.383c-1.456,0.956-2.077,3.038-3.251,6.97c-0.239,0.801-0.501,1.68-0.799,2.644 C50.73,76.827,48.162,77.5,40,77.5z"/><path fill="#66798f" d="M54.576,65c-1.157,1.185-1.775,3.257-2.807,6.712c-0.239,0.799-0.501,1.677-0.797,2.638 C50.344,76.381,47.781,77,40,77s-10.344-0.619-10.972-2.65c-0.297-0.961-0.559-1.838-0.797-2.638 c-1.032-3.455-1.65-5.527-2.807-6.712H40H54.576 M56,64H40H24v1.168c1.759,0.932,2.288,3.699,4.073,9.477 C28.917,77.377,31.97,78,40,78s11.083-0.623,11.927-3.355c1.785-5.778,2.314-8.544,4.073-9.477V64L56,64z"/><path fill="#f2faff" d="M28,65.5c-5.238,0-9.5-4.262-9.5-9.5V24c0-5.238,4.262-9.5,9.5-9.5h24c5.238,0,9.5,4.262,9.5,9.5v32 c0,5.238-4.262,9.5-9.5,9.5H28z"/><path fill="#788b9c" d="M52,15c4.963,0,9,4.037,9,9v32c0,4.963-4.037,9-9,9H28c-4.963,0-9-4.037-9-9V24 c0-4.963,4.037-9,9-9H52 M52,14H28c-5.523,0-10,4.477-10,10v32c0,5.523,4.477,10,10,10h24c5.523,0,10-4.477,10-10V24 C62,18.477,57.523,14,52,14L52,14z"/><path fill="#424e5c" d="M52,62H28c-3.314,0-6-2.686-6-6V24c0-3.314,2.686-6,6-6h24c3.314,0,6,2.686,6,6v32 C58,59.314,55.314,62,52,62z"/><path fill="#f2faff" d="M61.5,33.5v-8h1.264c0.957,0,1.736,0.779,1.736,1.736v4.528c0,0.957-0.779,1.736-1.736,1.736H61.5z"/><path fill="#788b9c" d="M62.764,26C63.445,26,64,26.555,64,27.236v4.528C64,32.445,63.445,33,62.764,33H62v-7H62.764 M62.764,25H61v9h1.764C63.999,34,65,32.999,65,31.764v-4.528C65,26.001,63.999,25,62.764,25L62.764,25z"/><path fill="#f2faff" d="M61.5,54.5v-8H63c0.276,0,0.5,0.224,0.5,0.5v7c0,0.276-0.224,0.5-0.5,0.5H61.5z"/><path fill="#788b9c" d="M63,47v7h-1v-7H63 M63,46h-2v9h2c0.552,0,1-0.448,1-1v-7C64,46.448,63.552,46,63,46L63,46z"/><path fill="#fff" d="M40 34A6 6 0 1 0 40 46 6 6 0 1 0 40 34zM49 22A3 3 0 1 0 49 28 3 3 0 1 0 49 22z"/><path fill="#f78f8f" d="M50 30A4 4 0 1 0 50 38A4 4 0 1 0 50 30Z"/><path fill="#ffeea3" d="M30 44A4 4 0 1 0 30 52A4 4 0 1 0 30 44Z"/><path fill="#c2e8ff" d="M52 40A4 4 0 1 0 52 48A4 4 0 1 0 52 40Z"/><path fill="#bae0bd" d="M47 48A3 3 0 1 0 47 54 3 3 0 1 0 47 48zM34 22A2 2 0 1 0 34 26 2 2 0 1 0 34 22zM29 36A3 3 0 1 0 29 42 3 3 0 1 0 29 36z"/><path fill="#f78f8f" d="M31 28A3 3 0 1 0 31 34A3 3 0 1 0 31 28Z"/><path fill="#8bb7f0" d="M41 24A4 4 0 1 0 41 32A4 4 0 1 0 41 24Z"/><path fill="#ffeea3" d="M39 50A3 3 0 1 0 39 56A3 3 0 1 0 39 50Z"/></svg>