<svg xmlns="http://www.w3.org/2000/svg" viewBox="0 0 48 48" width="500px" height="500px"><path fill="#CFD8DC" d="M39,44c0,1.1-0.9,2-2,2H11.1C10,46,9,45.1,9,44V4c0-1.1,0.9-2,2-2h25.9C38,2,39,2.9,39,4V44z"/><path fill="#455A64" d="M30 30L18 30 18 38 21 38 21 41 27 41 27 38 30 38z"/><path fill="#FDD835" d="M22,34h-2v-3h2V34z M28,31h-2v3h2V31z M25,31h-2v3h2V31z"/><path fill="#90A4AE" d="M24 7A9 9 0 1 0 24 25A9 9 0 1 0 24 7Z"/><path fill="#37474F" d="M18,16c0-1.1,0.9-2,2-2s2,0.9,2,2s-0.9,2-2,2S18,17.1,18,16z M28,18c1.1,0,2-0.9,2-2s-0.9-2-2-2s-2,0.9-2,2S26.9,18,28,18z"/></svg>