<svg xmlns="http://www.w3.org/2000/svg" viewBox="0 0 30 30" width="100px" height="100px"><path fill="#b0c1d4" d="M9.442,5.5C10.106,4.943,10.565,3.973,11,2.27c0.151-0.59,1.085-0.77,4-0.77s3.849,0.18,4,0.77 c0.435,1.704,0.894,2.674,1.558,3.23H9.442z"/><path fill="#66798f" d="M15,2c0.845,0,3.415,0,3.516,0.393C18.808,3.538,19.118,4.378,19.495,5H15h-4.495 c0.377-0.622,0.687-1.463,0.979-2.607C11.585,2,14.155,2,15,2 M15,1c-2.958,0-4.229,0.146-4.484,1.146 C9.964,4.304,9.419,5.009,8.771,5.352V6H15h6.229V5.352c-0.648-0.344-1.193-1.048-1.744-3.206C19.229,1.146,17.958,1,15,1L15,1z"/><path fill="#b0c1d4" d="M15,28.5c-2.915,0-3.849-0.18-4-0.77c-0.435-1.704-0.894-2.674-1.558-3.23h11.115 c-0.664,0.557-1.123,1.527-1.558,3.23C18.849,28.32,17.915,28.5,15,28.5z"/><path fill="#66798f" d="M19.495,25c-0.377,0.622-0.687,1.463-0.979,2.607C18.415,28,15.845,28,15,28s-3.415,0-3.516-0.393 c-0.292-1.144-0.602-1.985-0.979-2.607H15H19.495 M21.229,24H15H8.771v0.648c0.648,0.344,1.193,1.048,1.744,3.206 C10.771,28.854,12.042,29,15,29s4.229-0.146,4.484-1.146c0.551-2.159,1.096-2.863,1.744-3.206V24L21.229,24z"/><path fill="#f2faff" d="M10.251,24.5c-1.517,0-2.751-1.234-2.751-2.751V8.251C7.5,6.734,8.734,5.5,10.251,5.5h9.498 c1.517,0,2.751,1.234,2.751,2.751v13.498c0,1.517-1.234,2.751-2.751,2.751H10.251z"/><path fill="#788b9c" d="M19.749,6C20.99,6,22,7.01,22,8.251v13.498C22,22.99,20.99,24,19.749,24h-9.498 C9.01,24,8,22.99,8,21.749V8.251C8,7.01,9.01,6,10.251,6H19.749 M19.749,5h-9.498C8.456,5,7,6.456,7,8.251v13.498 C7,23.544,8.456,25,10.251,25h9.498C21.544,25,23,23.544,23,21.749V8.251C23,6.456,21.544,5,19.749,5L19.749,5z"/><path fill="#424e5c" d="M20,23H10c-0.552,0-1-0.448-1-1V8c0-0.552,0.448-1,1-1h10c0.552,0,1,0.448,1,1v14 C21,22.552,20.552,23,20,23z"/><path fill="#788b9c" d="M22,13h1c0.552,0,1-0.448,1-1v-2c0-0.552-0.448-1-1-1h-1V13z"/><path fill="#fff" d="M15 13A2 2 0 1 0 15 17A2 2 0 1 0 15 13Z"/><path fill="#f78f8f" d="M19 11.5A1.5 1.5 0 1 0 19 14.5A1.5 1.5 0 1 0 19 11.5Z"/><path fill="#ffeea3" d="M11 15.5A1.5 1.5 0 1 0 11 18.5A1.5 1.5 0 1 0 11 15.5Z"/><path fill="#c2e8ff" d="M19 15.5A1.5 1.5 0 1 0 19 18.5A1.5 1.5 0 1 0 19 15.5Z"/><path fill="#ffeea3" d="M10.5 12.5A1 1 0 1 0 10.5 14.5A1 1 0 1 0 10.5 12.5Z"/><path fill="#f78f8f" d="M12.5 10.5A1 1 0 1 0 12.5 12.5A1 1 0 1 0 12.5 10.5Z"/><path fill="#8bb7f0" d="M15.5 9.5A1 1 0 1 0 15.5 11.5A1 1 0 1 0 15.5 9.5Z"/><path fill="#ffeea3" d="M13.5 18.5A1 1 0 1 0 13.5 20.5A1 1 0 1 0 13.5 18.5Z"/><path fill="#bae0bd" d="M16.5 18.5A1 1 0 1 0 16.5 20.5A1 1 0 1 0 16.5 18.5Z"/></svg>