<svg fill="#000000" xmlns="http://www.w3.org/2000/svg" viewBox="0 0 32 32" width="100px" height="100px"><path d="M 6 3 L 6 10 L 8 10 L 8 5 L 24 5 L 24 10 L 26 10 L 26 3 L 6 3 z M 9.4980469 12 C 8.1147135 12 6.9980469 13.116667 6.9980469 14.5 L 6.9980469 17.5 C 6.9980469 18.883333 8.1147135 20 9.4980469 20 C 10.88138 20 11.998047 18.883333 11.998047 17.5 L 11.998047 14.5 C 11.998047 13.116667 10.88138 12 9.4980469 12 z M 13 12 L 13 15 L 13 17 L 13 20 L 15.5 20 C 16.869063 20 18 18.869063 18 17.5 C 18 16.937261 17.802571 16.420272 17.482422 16 C 17.802571 15.579728 18 15.062739 18 14.5 C 18 13.130937 16.869063 12 15.5 12 L 13 12 z M 22.007812 12 L 22.007812 17.5 C 22.007812 17.716667 21.72448 18 21.507812 18 C 21.291146 18 21.007813 17.716667 21.007812 17.5 L 21.007812 17 L 19.007812 17 L 19.007812 17.5 C 19.007812 18.883333 20.124479 20 21.507812 20 C 22.891147 20 24.007814 18.883333 24.007812 17.5 L 24.007812 12 L 22.007812 12 z M 9.4980469 14 C 9.7147135 14 9.9980469 14.283333 9.9980469 14.5 L 9.9980469 17.5 C 9.9980469 17.716667 9.7147135 18 9.4980469 18 C 9.2813802 18 8.9980469 17.716667 8.9980469 17.5 L 8.9980469 14.5 C 8.9980469 14.283333 9.2813802 14 9.4980469 14 z M 15 14 L 15.5 14 C 15.786937 14 16 14.213063 16 14.5 C 16 14.786937 15.786937 15 15.5 15 L 15 15 L 15 14 z M 15 17 L 15.5 17 C 15.786937 17 16 17.213063 16 17.5 C 16 17.786937 15.786937 18 15.5 18 L 15 18 L 15 17 z M 6 22 L 6 29 L 26 29 L 26 22 L 24 22 L 24 27 L 8 27 L 8 22 L 6 22 z"/></svg>