<svg xmlns="http://www.w3.org/2000/svg" viewBox="0 0 48 48" width="300px" height="300px"><path fill="#2196F3" d="M22 34H26V40H22z"/><path fill="#2196F3" d="M35 43L13 43 13 41 22 38 26 38 35 41z"/><path fill="#BBDEFB" d="M24 5A16 16 0 1 0 24 37A16 16 0 1 0 24 5Z"/><path fill="#64B5F6" d="M8,21c0,8.8,7.2,16,16,16s16-7.2,16-16S32.8,5,24,5S8,12.2,8,21z M11,21c0-7.2,5.8-13,13-13s13,5.8,13,13s-5.8,13-13,13S11,28.2,11,21z"/><path fill="#64B5F6" d="M24 21L23.1 16.6 20.7 16.5 22.8 15.3 22.5 13.8 18.7 14.2 22.2 12.4 21.9 11 18.5 11.3 21.7 9.8 21 7 27 7 26.5 9.5 23.5 10.1 26.2 10.6 25.9 12.1 23.3 12.9 25.6 13.4 25.3 15 23.5 15.8 25 16.3zM24 21L27.8 23.5 29.5 21.7 28.8 24.2 30.2 25.1 32.8 21.5 31.3 25.8 32.5 26.6 34.6 24.2 33.6 27.3 36 28.8 31.8 33 30.4 30.9 32.2 28.5 29.8 29.9 29 28.6 30.8 26.3 28.3 27.5 27.4 26.2 28.2 24.5 26.6 25zM24 21L20.4 23.8 21.2 25.7 19.4 24.6 18.2 25.6 20.7 29.2 17.1 26.4 16 27.3 17.3 29.9 15 28.1 12.8 29.9 10.1 24.6 12.6 23.9 14.3 26.1 13.7 23.6 15.2 23.3 16.9 25.2 16.5 23 18 22.5 19.5 23.7 19.3 22.2z"/><path fill="#3F51B5" d="M24 18A3 3 0 1 0 24 24A3 3 0 1 0 24 18Z"/><path fill="#FF6F00" d="M15.8,6c-2.6,1.3-0.8,3.6-2.9,4.1C10.4,9.5,7.5,9.3,5,13c4.7-0.9,3.6,2.9,9.2,5.2c2.4,1,5.6,1.4,6.5-0.9c0.6-1.5,0-3.2-1.5-3.9C19.5,8.8,16,10.2,15.8,6z"/><path fill="#D95E00" d="M20.8,15c-0.3-0.7-0.8-1.3-1.6-1.6c0,0,0,0,0,0c-2.5,0.6-6.6-1-6.6-1S15.6,16.3,20.8,15z"/></svg>