<svg xmlns="http://www.w3.org/2000/svg" viewBox="0 0 48 48" width="100px" height="100px"><path fill="#7B1FA2" d="M24,28c-2.206,0-4-1.795-4-4s1.794-4,4-4s4,1.795,4,4S26.206,28,24,28z"/><path fill="#9C27B0" d="M31.639 33.551l-3.002-2.643 1.321-1.501C31.275 27.911 32 25.991 32 24c0-2.005-.727-3.93-2.046-5.419l-1.326-1.497 2.994-2.652 1.326 1.497C34.916 18.15 36 21.017 36 24c0 2.965-1.08 5.823-3.04 8.05L31.639 33.551zM16.456 33.583l-1.339-1.485C13.107 29.865 12 26.974 12 23.954c0-2.958 1.074-5.812 3.024-8.034l1.319-1.503 3.006 2.638-1.319 1.504C16.721 20.051 16 21.967 16 23.954c0 2.029.742 3.971 2.089 5.466l1.338 1.486L16.456 33.583z"/><g><path fill="#CE93D8" d="M37.367 39.352l-2.979-2.669 1.334-1.49C38.48 32.114 40 28.139 40 24c0-4.141-1.512-8.112-4.256-11.186l-1.332-1.491 2.984-2.665 1.332 1.492C42.128 13.957 44 18.876 44 24c0 5.125-1.881 10.048-5.298 13.862L37.367 39.352zM10.626 39.345l-1.334-1.49C5.879 34.045 4 29.119 4 23.982c0-5.111 1.872-10.024 5.271-13.834l1.332-1.492 2.984 2.664-1.332 1.492C9.511 15.888 8 19.854 8 23.982c0 4.149 1.517 8.129 4.271 11.204l1.334 1.489L10.626 39.345z"/></g></svg>