<svg xmlns="http://www.w3.org/2000/svg" viewBox="0 0 48 48" width="50px" height="50px"><path fill="#90caf9" d="M40 45L8 45 8 3 30 3 40 13z"/><path fill="#e1f5fe" d="M38.5 14L29 14 29 4.5z"/><path fill="#1976d2" d="M16 21H33V23H16zM16 25H29V27H16zM30.06 29c-.68.6-1.28 1.27-1.81 2H16v-2H30.06zM27.08 33c-.29.64-.53 1.31-.7 2H16v-2H27.08z"/><path fill="#43a047" d="M48,38c0,5.523-4.478,10-10,10c-5.523,0-10-4.477-10-10s4.477-10,10-10C43.522,28,48,32.477,48,38"/><path fill="#fff" d="M36 32H40V44H36z"/><path fill="#fff" d="M32 36H44V40H32z"/></svg>