<svg xmlns="http://www.w3.org/2000/svg" width="300" height="300" viewBox="0 0 40 40"><path fill="#bae0bd" d="M6.667 4L16.946 4 20.891 9.994 21 8 24.362 8 25.333 4 34.667 4 28 28 0 28z"/><path fill="#d6aa70" d="M12 24L19.328 24 20 26.639 19.292 28.037 22.667 32 18.667 32z"/><path fill="#d6aa70" d="M19.672 28L28 28 34.667 36 25.333 36zM1.333 28L9.333 28 16 36 8 36z"/><path fill="#735f63" d="M6 8H16V9H6zM27.719 9l-1.251 5h-6.167l1.332-5H27.719M29 8h-8.136L19 15h8.249L29 8 29 8zM11.719 21l-.751 3H6.284l.758-3H11.719M13 20H6.263L5 25h6.749L13 20 13 20z"/><path fill="#735f63" d="M17.788 9L15.007 9 16.257 4 21.062 10.604 19.948 14 23.432 14 22.58 15 16 15z"/><path fill="#735f63" d="M20 14H33V15H20zM5.979 25L5 25 7.021 17 8 17z"/><path fill="#735f63" d="M7 18L3 18 4 17 8 17z"/><path fill="#735f63" d="M16.468 29.333L15.297 35 8.357 35 1.333 28 7.656 5 16 5 20.677 12 21.21 10.396 16.946 4 6.667 4 0 28 8 36 16 36 17.333 29.472zM34.667 4L24.963 4 23.575 9 24.629 9 25.736 5 34 5 38.582 13.539 34 35 25.727 35 20.109 28 22.571 19 20.236 19 18.778 24 19.697 25.56 19 28 25.278 36 34.667 36 40 13.333z"/><path fill="#735f63" d="M34.667 36L34 36 28 28 34 4 40 13.333zM21.669 31.003L18.944 31 13.333 24 14.583 19 11.905 19 9.333 28 16 36 17.64 30.984 18.444 32 22.667 32z"/></svg>