<svg xmlns="http://www.w3.org/2000/svg" width="300" height="300" fill="#000" viewBox="0 0 24 24"><path d="M 6 2 C 4.897 2 4 2.897 4 4 L 4 20 C 4 21.103 4.897 22 6 22 L 12.683594 22 C 12.387594 21.378 12.181078 20.707 12.080078 20 L 6 20 L 6 16 L 8 14 L 12 18 L 12.09375 17.90625 C 12.61975 14.56125 15.507 12 19 12 C 19.34 12 19.673 12.033078 20 12.080078 L 20 8 L 14 2 L 6 2 z M 13 3.4550781 L 18.5 9 L 13 9 L 13 3.4550781 z M 12 11 C 12.552 11 13 11.448 13 12 C 13 12.552 12.552 13 12 13 C 11.448 13 11 12.552 11 12 C 11 11.448 11.448 11 12 11 z M 19 14 C 16.239 14 14 16.239 14 19 C 14 21.761 16.239 24 19 24 C 21.761 24 24 21.761 24 19 C 24 16.239 21.761 14 19 14 z M 18 16 L 20 16 L 20 18 L 22 18 L 22 20 L 20 20 L 20 22 L 18 22 L 18 20 L 16 20 L 16 18 L 18 18 L 18 16 z"/></svg>