<svg xmlns="http://www.w3.org/2000/svg" width="300" height="300" fill="#000" viewBox="0 0 50 50"><path d="M 16.3125 -0.03125 C 13.929688 -0.03125 11.96875 1.929688 11.96875 4.3125 L 11.96875 45.6875 C 11.96875 48.066406 13.929688 50.03125 16.3125 50.03125 L 23 50.03125 C 23.5625 50.03125 24.03125 49.5625 24.03125 49 L 24.03125 1 C 24.03125 0.4375 23.5625 -0.03125 23 -0.03125 Z M 0 16 L 0 34 L 9.96875 34 L 9.96875 16 Z M 41 17 C 40.746094 17 40.476563 17.085938 40.28125 17.28125 C 39.890625 17.671875 39.890625 18.328125 40.28125 18.71875 L 45.59375 24 L 27 24 L 27 26 L 45.59375 26 L 40.28125 31.28125 C 39.890625 31.671875 39.890625 32.328125 40.28125 32.71875 C 40.476563 32.914063 40.742188 33 41 33 C 41.257813 33 41.523438 32.914063 41.71875 32.71875 L 49.40625 25 L 41.71875 17.28125 C 41.523438 17.085938 41.253906 17 41 17 Z"/></svg>