<svg xmlns="http://www.w3.org/2000/svg" width="500" height="500" viewBox="0 0 30 30"><path fill="#bae0bd" d="M5 3L13 3 16 8 17 6.333 19 6 19 3 26 3 21 21 0 21z"/><path fill="#d6aa70" d="M9 18L13.833 18 15 19.979 14.469 21.028 17 24 14 24z"/><path fill="#36404d" d="M6 3H12V4H6z"/><path fill="#d6aa70" d="M14 21L21 21 26 27 19 27zM1 21L7 21 12 27 6 27z"/><path fill="#735f63" d="M12 7L4 7 5 6 13 6zM20.709 7l-.775 3h-3.997l.825-3H20.709M22 6h-6l-1.375 5h6.083L22 6 22 6zM8.719 16l-.5 2H5.281l.5-2H8.719M10 15H5l-1 4h5L10 15 10 15z"/><path fill="#735f63" d="M13.187 7L11 7 12 3 15.797 7.953 15.125 10 18 10 17 11 12 11z"/><path fill="#735f63" d="M15 10H25V11H15zM5 19L4 19 5.516 13 6.516 13z"/><path fill="#735f63" d="M6 14L2 14 3 13 6 13z"/><path fill="#735f63" d="M12.351 22L11.24 26 6.146 26 1 21 5.76 4 12.465 4 15.798 9 16.198 7.797 13 3 5 3 0 21 6 27 12 27 13 22.104z"/><path fill="#735f63" d="M26 3L19 3 17.889 7 18.927 7 19.76 4 25.42 4 28.936 10.154 25.208 26 19 26 15 21 17 14 15 14 13.833 18 14.523 19.17 14 21 18.708 27 26 27 30 10z"/><path fill="#735f63" d="M26 27L21 21 25.5 3 30 10zM17 24L16 23 14 23 10 18 11 14 9 14 7 21 12 27 13.268 23.122 14 24z"/></svg>