<svg xmlns="http://www.w3.org/2000/svg" width="500" height="500" viewBox="0 0 16 16"><path fill="#c74343" d="M1.707 8L3.5 6.207 3.5 7.5 7.5 7.5 7.5 8.5 3.5 8.5 3.5 9.793z"/><path fill="#ab3434" d="M3,7.414V8h1h3H4H3v0.586L2.414,8L3,7.414 M4,5L1,8l3,3V9h4V7H4V5L4,5z"/><path fill="#f76d6d" d="M11.5 5.5H14.5V10.5H11.5z"/><path fill="#c74343" d="M14,6v4h-2V6H14 M15,5h-4v6h4V5L15,5z"/><g><path fill="#f78f8f" d="M9.5,1.5c1.103,0,2,0.897,2,2v9c0,1.103-0.897,2-2,2V1.5z"/><path fill="#c74343" d="M10,2.086c0.582,0.206,1,0.762,1,1.414v9c0,0.652-0.418,1.208-1,1.414V2.086 M9.5,1H9v14h0.5 c1.381,0,2.5-1.119,2.5-2.5v-9C12,2.119,10.881,1,9.5,1L9.5,1z"/></g></svg>