<svg xmlns="http://www.w3.org/2000/svg" width="300" height="300" viewBox="0 0 48 48"><path fill="#ffca28" d="M23.5,2c1.79,4.227,3.692,8.948,5.832,12.777L30,16h1.375c5.547,0,9.975,1.421,15.625,3	c-5.041,3.549-7.309,4.744-11.125,9C35.712,28.182,35,29,35,29s2.049,4.905,2.577,6.673C38.542,38.898,39.654,42.68,40,46	c0,0-9.079-6.626-15.403-8.745c-0.204-0.068-0.827-0.239-0.827-0.239S13.795,41.81,7,46c0.352-1.036,0.786-2.275,1.253-3.608	c1.691-4.832,4.575-9.072,5.466-12.45C14,28.875,14,28,14,28s-5.125-1.5-8.375-4C3.969,22.726,1.627,20.365,1,19	c1.391-0.066,2.734-0.076,4.274-0.427C7.534,18.021,11.034,16,15.35,16H16c0,0,0.663-2.069,1.753-4.234	C18.388,10.506,22.432,4.151,23.5,2z"/></svg>