<svg xmlns="http://www.w3.org/2000/svg" width="100" height="100" viewBox="0 0 30 30"><path fill="#fff" d="M5.5 27.5L5.5 2.5 18.793 2.5 24.5 8.207 24.5 27.5z"/><path fill="#788b9c" d="M18.586,3L24,8.414V27H6V3H18.586 M19,2H5v26h20V8L19,2L19,2z"/><path fill="#fff" d="M18.5 8.5L18.5 2.5 18.793 2.5 24.5 8.207 24.5 8.5z"/><path fill="#788b9c" d="M19,3.414L23.586,8H19V3.414 M19,2h-1v7h7V8L19,2L19,2z"/><path fill="#d6e3ed" d="M24.733 14.563L24 13.853 24 27 15.88 27 17.011 27.6 17.081 28 24 28 25 28 25 27 25 14.821z"/><g><path fill="#ffeea3" d="M21.784 27.796L19.637 28.1 19.262 25.964 17.346 24.948 18.299 23 17.346 21.051 19.262 20.035 19.637 17.899 21.784 18.203 23.342 16.696 24.901 18.204 27.048 17.9 27.423 20.036 29.338 21.052 28.386 23 29.338 24.949 27.423 25.965 27.048 28.101 24.901 27.797 23.342 29.304z"/><path fill="#ba9b48" d="M23.342,17.391l1.035,1.002l0.351,0.34l0.484-0.069l1.426-0.202l0.249,1.419l0.084,0.481 l0.432,0.229l1.272,0.675l-0.633,1.294L27.829,23l0.215,0.439l0.633,1.295l-1.273,0.675l-0.432,0.229l-0.084,0.481l-0.249,1.419 l-1.426-0.202l-0.484-0.069l-0.351,0.34l-1.035,1.001l-1.035-1.002l-0.351-0.34l-0.484,0.069l-1.426,0.202l-0.249-1.419 l-0.084-0.481l-0.432-0.229l-1.272-0.675l0.633-1.294L18.855,23l-0.215-0.439l-0.633-1.295l1.273-0.675l0.432-0.229l0.084-0.481 l0.249-1.418l1.426,0.202l0.484,0.069l0.351-0.34L23.342,17.391 M23.342,16l-1.731,1.674l-2.384-0.338l-0.416,2.371l-2.127,1.129 L17.742,23l-1.058,2.163l2.127,1.129l0.416,2.371l2.384-0.338L23.342,30l1.731-1.674l2.384,0.338l0.416-2.371L30,25.164L28.942,23 L30,20.837l-2.127-1.129l-0.416-2.371l-2.384,0.338L23.342,16L23.342,16z"/></g></svg>