<svg xmlns="http://www.w3.org/2000/svg" width="300" height="300" viewBox="0 0 40 40"><path fill="#5e9c76" d="M30.5 22.5L21.5 22.5 21.5 17.5 30.5 17.5 30.5 13.113 38.248 20 30.5 26.887z"/><path fill="#37774e" d="M31,14.227L37.495,20L31,25.773V23v-1h-1h-8v-4h8h1v-1V14.227 M30,12v5h-9v6h9v5l9-8L30,12L30,12z"/><path fill="#99c99e" d="M1.5 11.5H10.5V28.5H1.5z"/><path fill="#5e9c76" d="M10,12v16H2V12H10 M11,11H1v18h10V11L11,11z"/><g><path fill="#bae0bd" d="M16,37.5c-3.033,0-5.5-2.468-5.5-5.5V8c0-3.032,2.467-5.5,5.5-5.5h1.5v35H16z"/><path fill="#5e9c76" d="M17,3v34h-1c-2.757,0-5-2.243-5-5V8c0-2.757,2.243-5,5-5H17 M18,2h-2c-3.314,0-6,2.686-6,6v24 c0,3.314,2.686,6,6,6h2V2L18,2z"/></g></svg>