<svg xmlns="http://www.w3.org/2000/svg" width="500" height="500" viewBox="0 0 16 16"><path fill="#bae0bd" d="M2.5 2L6.5 2 8 4.5 8.5 3.667 9.5 3.5 9.5 2 13 2 10.5 11 0 11z"/><path fill="#d6aa70" d="M4.208 10L7.988 10 7.5 10.49 7.234 11.014 8.5 12.5 6.208 12.5z"/><path fill="#36404d" d="M3 2H6V2.5H3z"/><path fill="#d6aa70" d="M7 11L10.5 11 13 14 9.5 14zM.5 11L3.5 11 6 14 3 14z"/><path fill="#735f63" d="M2 4H7V5H2z"/><path fill="#735f63" d="M6.594 4L5.75 4 6.25 2 7.898 4.477 7.563 5.5 9 5.5 8.5 6 6 6z"/><path fill="#735f63" d="M7.5 5H12.5V6H7.5zM3 8L1 8 1.5 7 3 7z"/><path fill="#735f63" d="M6 13L3 13 1 11 3.253 2.996 6 3 7.899 5 8.099 4.398 6.5 2 2.5 2 0 11 3 14 6 14 6.271 12.583zM13 2L9.5 2 8.944 4 9.693 4 10 3 12.601 3 14.468 5.577 13 13 9.694 13 8.13 11 9.271 7 8.208 7 7 11 9.354 14 13 14 15 5.5z"/><path fill="#735f63" d="M13 14L10.5 11 12.75 2 15 5.5zM9 13L8 12 6.042 12 4.042 9.5 5.5 7.5 4.5 7.5 3.5 11 6 14 5.917 13z"/><path fill="#bae0bd" d="M6.979 5.5L7.562 3.5 10.345 3.5 9.798 5.5z"/><path fill="#735f63" d="M9.69,4L9.416,5H7.645l0.291-1H9.69 M11,3H7.186L6.313,6h3.867L11,3L11,3z"/><g><path fill="#bae0bd" d="M2.667 9.5L3.249 7.5 6.032 7.5 5.485 9.5z"/><path fill="#735f63" d="M5.377,8L5.103,9H3.333l0.291-1H5.377 M6.688,7H2.874L2,10h3.867L6.688,7L6.688,7z"/></g></svg>