<?xml version="1.0"?><svg fill="#000000" xmlns="http://www.w3.org/2000/svg" viewBox="0 0 30 30" width="300px" height="300px">    <path d="M26.913,9.254l-2.078-4.653c-0.039-0.116-0.099-0.224-0.179-0.319c-0.19-0.226-0.468-0.366-0.763-0.366H16.93 c-0.377,0-0.728,0.212-0.898,0.548c-0.068,0.133-0.104,0.277-0.11,0.421l-0.229,1.404h-0.308c-0.067,0-0.133,0.007-0.197,0.02 l-0.795-1.797c-0.16-0.362-0.519-0.595-0.914-0.595H6.509c-0.49,0-0.908,0.355-0.987,0.839L4.171,13.06 c-0.001,0.007-0.002,0.013-0.003,0.019l-1.155,7.098c-0.051,0.313,0.05,0.632,0.271,0.859l4.632,4.745 c0.188,0.193,0.446,0.302,0.716,0.302h5.789c0.495,0,0.915-0.362,0.989-0.851l0.319-2.122l2.608,2.672 c0.188,0.193,0.446,0.302,0.716,0.302h5.789c0.523,0,0.958-0.403,0.997-0.925l1.158-15.422C27.01,9.571,26.981,9.405,26.913,9.254z M15.579,13.221l-0.386,2.373H11.72l0.386-2.373h-1.158l-0.193,1.186H8.438l0.193-1.186h-2.3l0.771-4.745h5.773l-0.386,2.373h9.263 l-1.35,8.304h-4.615l0.965-5.931H15.579z M12.105,6.103l-0.193,1.186H7.297L7.49,6.103H12.105z M6.139,14.407h1.127h0.006 l-0.577,3.559h3.481l-0.193,1.186H5.367L6.139,14.407z M8.061,16.779l0.192-1.186h2.309l-0.193,1.186H8.061z M16.367,8.475h2.477 l-0.192,1.186h-2.478L16.367,8.475z M17.718,7.289l0.193-1.186h4.615l-0.579,3.559h-2.121l0.384-2.373H17.718z M23.894,4.917 L23.894,4.917l-0.003,0.02L23.894,4.917z M16.918,4.917l0.01,0.014L16.918,4.917L16.918,4.917z"/></svg>