<svg xmlns="http://www.w3.org/2000/svg" viewBox="0 0 40 40" width="300px" height="300px"><path fill="#f5ce85" d="M10.325,33.788c0.348-0.493,0.536-1.081,0.536-1.697c0-0.789-0.307-1.529-0.865-2.087 c-0.557-0.557-1.298-0.864-2.086-0.864c-0.616,0-1.204,0.188-1.697,0.536l-4.493-4.494L25.182,1.719l4.494,4.493 c-0.348,0.493-0.536,1.081-0.536,1.697c0,0.789,0.307,1.529,0.865,2.087c0.557,0.557,1.298,0.864,2.086,0.864 c0.616,0,1.204-0.188,1.697-0.536l4.493,4.494L14.818,38.281L10.325,33.788z"/><path fill="#967a44" d="M25.182,2.439l3.85,3.85c-0.262,0.493-0.401,1.046-0.401,1.62c0,0.924,0.36,1.793,1.013,2.447 c0.653,0.653,1.522,1.013,2.447,1.013c0.574,0,1.127-0.139,1.62-0.401l3.85,3.85L14.818,37.561l-3.85-3.85 c0.262-0.493,0.401-1.046,0.401-1.62c0-0.924-0.36-1.793-1.013-2.447c-0.653-0.654-1.522-1.013-2.447-1.013 c-0.574,0-1.127,0.139-1.62,0.401l-3.85-3.85L25.182,2.439 M25.182,1L1,25.182l5.182,5.182c0.477-0.477,1.102-0.715,1.727-0.715 s1.25,0.238,1.727,0.715c0.954,0.954,0.954,2.501,0,3.455L14.818,39L39,14.818l-5.182-5.182c-0.477,0.477-1.102,0.715-1.727,0.715 c-0.625,0-1.25-0.238-1.727-0.715c-0.954-0.954-0.954-2.501,0-3.455L25.182,1L25.182,1z"/><path fill="#bae0bd" d="M31 22.5A8.5 8.5 0 1 0 31 39.5A8.5 8.5 0 1 0 31 22.5Z"/><path fill="#5e9c76" d="M31,23c4.411,0,8,3.589,8,8s-3.589,8-8,8s-8-3.589-8-8S26.589,23,31,23 M31,22 c-4.971,0-9,4.029-9,9s4.029,9,9,9s9-4.029,9-9S35.971,22,31,22L31,22z"/><path fill="none" stroke="#fff" stroke-miterlimit="10" stroke-width="2" d="M31 36L31 26M26 31L36 31"/></svg>