<?xml version="1.0"?><svg fill="#000000" xmlns="http://www.w3.org/2000/svg" viewBox="0 0 24 24" width="50px" height="50px">    <path d="M 6 2 C 4.895 2 4 2.895 4 4 L 4 20 C 4 21.105 4.895 22 6 22 L 12.683594 22 C 12.387594 21.378 12.181078 20.707 12.080078 20 L 7 20 C 6.448 20 6 19.552 6 19 L 6 16.414062 C 6 16.149062 6.1049688 15.894031 6.2929688 15.707031 L 7.2929688 14.707031 C 7.6839688 14.316031 8.3170312 14.316031 8.7070312 14.707031 L 12 18 L 12.09375 17.90625 C 12.61975 14.56125 15.507 12 19 12 C 19.34 12 19.673 12.033078 20 12.080078 L 20 8.828125 C 20 8.298125 19.789062 7.7890625 19.414062 7.4140625 L 14.585938 2.5859375 C 14.210937 2.2109375 13.701875 2 13.171875 2 L 6 2 z M 13 3.4550781 L 18.5 9 L 14 9 C 13.448 9 13 8.552 13 8 L 13 3.4550781 z M 12 11 C 12.552 11 13 11.448 13 12 C 13 12.552 12.552 13 12 13 C 11.448 13 11 12.552 11 12 C 11 11.448 11.448 11 12 11 z M 19 14 C 16.239 14 14 16.239 14 19 C 14 21.761 16.239 24 19 24 C 21.761 24 24 21.761 24 19 C 24 16.239 21.761 14 19 14 z M 19 16 C 19.552 16 20 16.448 20 17 L 20 18 L 21 18 C 21.552 18 22 18.448 22 19 C 22 19.552 21.552 20 21 20 L 20 20 L 20 21 C 20 21.552 19.552 22 19 22 C 18.448 22 18 21.552 18 21 L 18 20 L 17 20 C 16.448 20 16 19.552 16 19 C 16 18.448 16.448 18 17 18 L 18 18 L 18 17 C 18 16.448 18.448 16 19 16 z"/></svg>