<svg xmlns="http://www.w3.org/2000/svg" viewBox="0 0 30 30" width="300px" height="300px"><path fill="#5e9c76" d="M23.5 16.5L16.5 16.5 16.5 13.5 23.5 13.5 23.5 10.087 29.232 15 23.5 19.913z"/><path fill="#37774e" d="M24,11.174L28.463,15L24,18.826V17v-1h-1h-6v-2h6h1v-1V11.174 M23,9v4h-7v4h7v4l7-6L23,9L23,9z"/><path fill="#99c99e" d="M0.5 8.5H7.5V21.5H0.5z"/><path fill="#5e9c76" d="M7,9v12H1V9H7 M8,8H0v14h8V8L8,8z"/><g><path fill="#bae0bd" d="M12,28.5c-2.481,0-4.5-2.019-4.5-4.5V6c0-2.481,2.019-4.5,4.5-4.5h0.5v27H12z"/><path fill="#5e9c76" d="M12,2v26c-2.206,0-4-1.794-4-4V6C8,3.794,9.794,2,12,2 M13,1h-1C9.239,1,7,3.239,7,6v18 c0,2.761,2.239,5,5,5h1V1L13,1z"/></g></svg>