<svg xmlns="http://www.w3.org/2000/svg" viewBox="0 0 80 80" width="300px" height="300px"><path fill="#f5ce85" d="M20,67.6c0.8-1,1.3-2.2,1.4-3.5c0.1-1.5-0.5-2.9-1.5-4c-0.9-0.9-2.3-1.5-3.7-1.5 c-1.4,0-2.7,0.5-3.8,1.4l-9.7-9.7L50.4,2.7l9.7,9.7c-0.8,1-1.3,2.2-1.3,3.5c-0.1,1.5,0.5,2.9,1.5,4c0.9,0.9,2.3,1.5,3.7,1.5 c1.4,0,2.7-0.5,3.8-1.4l9.7,9.7L29.6,77.3L20,67.6z"/><path fill="#967a44" d="M50.4,3.4l9,9c-1.7,2.4-1.6,5.8,0.4,7.8c1,1,2.5,1.6,4.1,1.6c1.3,0,2.7-0.4,3.7-1.2l9,9L29.6,76.6 l-9-9c0.7-1,1.1-2.2,1.2-3.5c0.1-1.7-0.5-3.2-1.6-4.3c-1-1-2.5-1.6-4.1-1.6c-1.4,0-2.7,0.4-3.7,1.2l-9-9L50.4,3.4 M50.4,2L2,50.4 l10.4,10.4c1-1,2.4-1.5,3.8-1.5c1.2,0,2.4,0.4,3.3,1.3c1.9,1.9,1.7,5.2-0.2,7.1L29.6,78L78,29.6L67.6,19.3c-1,1-2.4,1.5-3.8,1.5 c-1.2,0-2.4-0.4-3.3-1.3c-1.9-1.9-1.7-5.2,0.2-7.1L50.4,2L50.4,2z"/><path fill="#bae0bd" d="M62,79.5c-9.6,0-17.5-7.9-17.5-17.5S52.4,44.5,62,44.5S79.5,52.4,79.5,62S71.6,79.5,62,79.5z"/><path fill="#5e9c76" d="M62,45c9.4,0,17,7.6,17,17s-7.6,17-17,17s-17-7.6-17-17S52.6,45,62,45 M62,44c-9.9,0-18,8.1-18,18 s8.1,18,18,18s18-8.1,18-18S71.9,44,62,44L62,44z"/><path fill="#fff" d="M60 52H64V72H60z"/><path fill="#fff" d="M52 60H72V64H52z"/></svg>