<svg xmlns="http://www.w3.org/2000/svg" width="50" height="50" fill="#000" viewBox="0 0 24 24"><path d="M 6 2 C 4.897 2 4 2.897 4 4 L 4 20 C 4 21.103 4.897 22 6 22 L 12.683594 22 C 12.250594 21.09 12 20.075 12 19 C 12 18.389 12.086375 17.799375 12.234375 17.234375 L 9 14 L 6 17 L 6 4 L 13 4 L 13 9 L 18 9 L 18 12.078125 C 18.327 12.031125 18.66 11.998047 19 11.998047 C 19.34 11.998047 19.673 12.031125 20 12.078125 L 20 8 L 14 2 L 6 2 z M 14 11 A 1 1 0 0 0 13 12 A 1 1 0 0 0 14 13 A 1 1 0 0 0 15 12 A 1 1 0 0 0 14 11 z M 19 14 C 16.239 14 14 16.239 14 19 C 14 21.761 16.239 24 19 24 C 21.761 24 24 21.761 24 19 C 24 16.239 21.761 14 19 14 z M 18 16 L 20 16 L 20 18 L 22 18 L 22 20 L 20 20 L 20 22 L 18 22 L 18 20 L 16 20 L 16 18 L 18 18 L 18 16 z"/></svg>