<svg xmlns="http://www.w3.org/2000/svg" width="100" height="100" viewBox="0 0 48 48"><path fill="#90A4AE" d="M31,39c3,0-17,0-14,0s3-5,3-5h8C28,34,28,39,31,39z"/><path fill="#455A64" d="M40,7H8C6.896,7,6,7.896,6,9v21h36V9C42,7.896,41.104,7,40,7z"/><path fill="#BBDEFB" d="M8 9H40V28H8z"/><path fill="#B0BEC5" d="M6 32c0 1.104.896 2 2 2h32c1.104 0 2-.896 2-2v-2H6V32zM17 39H31V41H17z"/><path fill="#37474F" d="M24 31A1 1 0 1 0 24 33A1 1 0 1 0 24 31Z"/><path fill="#3F51B5" d="M29,21.538c-0.301,0.676-0.443,0.979-0.831,1.579c-0.54,0.832-1.302,1.875-2.245,1.882c-0.838,0.007-1.052-0.555-2.19-0.547c-1.137,0.005-1.376,0.557-2.213,0.548c-0.943-0.008-1.664-0.946-2.206-1.781c-1.509-2.338-1.668-5.077-0.736-6.536c0.661-1.033,1.708-1.639,2.689-1.639c0.999,0,1.627,0.557,2.453,0.557c0.802,0,1.29-0.559,2.447-0.559c0.873,0,1.798,0.482,2.459,1.318C26.466,17.563,26.816,20.699,29,21.538z M25.291,14.108c0.418-0.547,0.739-1.32,0.624-2.108c-0.687,0.046-1.489,0.492-1.958,1.067c-0.425,0.524-0.775,1.305-0.639,2.06C24.065,15.15,24.841,14.697,25.291,14.108z"/></svg>