<svg xmlns="http://www.w3.org/2000/svg" width="50" height="50" fill="#000" viewBox="0 0 24 24"><path d="M 13.6875 0 L 10.8125 2.90625 L 18.09375 10.1875 L 21 7.3125 L 19.1875 5.5 C 18.6875 5.898438 18.199219 6.09375 17.5 6.09375 C 16.101563 6.09375 14.90625 4.898438 14.90625 3.5 C 14.90625 2.898438 15.101563 2.3125 15.5 1.8125 Z M 9.90625 3.8125 L 0 13.6875 L 1.8125 15.5 C 2.3125 15.101563 2.800781 14.90625 3.5 14.90625 C 4.898438 14.90625 6.09375 16.101563 6.09375 17.5 C 6.09375 18.101563 5.898438 18.6875 5.5 19.1875 L 7.3125 21 L 17.1875 11.09375 Z M 18 14 L 18 18 L 14 18 L 14 20 L 18 20 L 18 24 L 20 24 L 20 20 L 24 20 L 24 18 L 20 18 L 20 14 Z"/></svg>