<svg xmlns="http://www.w3.org/2000/svg" viewBox="0 0 16 16" width="500px" height="500px"><path fill="#5e9c76" d="M12.5 8.5L8.5 8.5 8.5 7.5 12.5 7.5 12.5 6.207 14.293 8 12.5 9.793z"/><path fill="#37774e" d="M13,7.414L13.586,8L13,8.586V8V7.414 M12,5v2H8v2h4v2l3-3L12,5L12,5z"/><path fill="#99c99e" d="M1.5 5.5H4.5V10.5H1.5z"/><path fill="#5e9c76" d="M4,6v4H2V6H4 M5,5H1v6h4V5L5,5z"/><g><path fill="#bae0bd" d="M6.5,14.5c-1.103,0-2-0.897-2-2v-9c0-1.103,0.897-2,2-2V14.5z"/><path fill="#5e9c76" d="M6,2.086v11.829c-0.582-0.206-1-0.762-1-1.414v-9C5,2.848,5.418,2.292,6,2.086 M7,1H6.5 C5.119,1,4,2.119,4,3.5v9C4,13.881,5.119,15,6.5,15H7V1L7,1z"/></g></svg>