<svg xmlns="http://www.w3.org/2000/svg" width="50" height="50" viewBox="0 0 80 80"><path fill="#fff" d="M12.5,75.5v-71h37.293L67.5,22.207v38.325c0,8.253-6.715,14.968-14.968,14.968H12.5z"/><path fill="#788b9c" d="M49.586,5L67,22.414v38.118C67,68.51,60.51,75,52.532,75H13V5H49.586 M50,4H12v72h40.532 C61.075,76,68,69.075,68,60.532V22L50,4L50,4z"/><path fill="#d6e3ed" d="M67 45.087L67 53 68 53 68 46.055zM50.291 76L54 76 54 75 50.115 75z"/><g><path fill="#fff" d="M49.5 22.5L49.5 4.5 49.793 4.5 67.5 22.207 67.5 22.5z"/><path fill="#788b9c" d="M50,5.414L66.586,22H50V5.414 M50,4h-1v19h19v-1L50,4L50,4z"/></g><g><path fill="#ffeea3" d="M58.722 75.165L52.829 75.999 51.8 70.137 46.542 67.347 49.157 62 46.542 56.651 51.8 53.861 52.829 47.999 58.722 48.833 63 44.696 67.278 48.835 73.171 48.001 74.2 53.863 79.458 56.653 76.843 62 79.458 67.349 74.2 70.139 73.171 76.001 67.278 75.167 63 79.304z"/><path fill="#ba9b48" d="M63,45.391l3.755,3.633l0.351,0.34l0.484-0.069l5.172-0.732l0.903,5.145l0.084,0.481l0.432,0.229 l4.615,2.448l-2.295,4.693L76.287,62l0.215,0.439l2.295,4.695l-4.615,2.449l-0.432,0.229l-0.084,0.481l-0.903,5.145l-5.172-0.732 l-0.484-0.069l-0.351,0.34L63,78.609l-3.755-3.633l-0.351-0.34l-0.484,0.069l-5.172,0.732l-0.903-5.145l-0.084-0.481l-0.432-0.229 l-4.615-2.448l2.295-4.693L49.713,62l-0.215-0.439l-2.295-4.695l4.615-2.449l0.432-0.229l0.084-0.481l0.903-5.145l5.172,0.732 l0.484,0.069l0.351-0.34L63,45.391 M63,44l-4.45,4.304l-6.13-0.868l-1.07,6.098l-5.47,2.902L48.6,62l-2.72,5.562l5.47,2.902 l1.07,6.098l6.13-0.868L63,80l4.45-4.304l6.13,0.868l1.07-6.098l5.47-2.902L77.4,62l2.72-5.562l-5.47-2.902l-1.07-6.098 l-6.13,0.868L63,44L63,44z"/></g></svg>