<svg xmlns="http://www.w3.org/2000/svg" width="300" height="300" fill="#000" viewBox="0 0 30 30"><path d="M 4 5 C 2.895 5 2 5.895 2 7 L 2 12.183594 C 3.163 12.596594 4 13.696 4 15 C 4 16.304 3.163 17.403406 2 17.816406 L 2 23 C 2 24.105 2.895 25 4 25 L 14.230469 25 C 14.083469 24.356 14 23.688 14 23 C 14 18.029 18.029 14 23 14 C 24.068 14 25.087109 14.195109 26.037109 14.537109 C 26.209109 13.441109 26.978 12.546594 28 12.183594 L 28 7 C 28 5.895 27.105 5 26 5 L 4 5 z M 23 16 C 19.134 16 16 19.134 16 23 C 16 26.866 19.134 30 23 30 C 26.866 30 30 26.866 30 23 C 30 19.134 26.866 16 23 16 z M 23 19 C 23.552 19 24 19.447 24 20 L 24 22 L 26 22 C 26.552 22 27 22.447 27 23 C 27 23.553 26.552 24 26 24 L 24 24 L 24 26 C 24 26.553 23.552 27 23 27 C 22.448 27 22 26.553 22 26 L 22 24 L 20 24 C 19.448 24 19 23.553 19 23 C 19 22.447 19.448 22 20 22 L 22 22 L 22 20 C 22 19.447 22.448 19 23 19 z"/></svg>