<svg xmlns="http://www.w3.org/2000/svg" width="50" height="50" viewBox="0 0 64 64"><path fill="#faefde" d="M21.39,3h28.757c1.657,0,3,1.343,3,3v48c0,1.657-1.343,3-3,3h-38c-1.657,0-3-1.343-3-3V15.242 c0-0.796,0.316-1.559,0.879-2.121l9.243-9.242C19.831,3.316,20.594,3,21.39,3z"/><path fill="#fff7f0" d="M9.147 57.063L9 47.603 52.483 4.12 53.147 27.063 23.147 57.063zM9 37.21L43.21 3 48.96 3.25 9.147 43.063zM9 31.21L37.147 3.062 40.147 3.063 9 34.21z"/><path fill="#fff" d="M42.066 12.481L43.304 14.745 45.568 15.983 43.304 17.222 42.066 19.486 40.828 17.222 38.564 15.983 40.828 14.745zM27.566 10.063L28.421 11.626 29.985 12.481 28.421 13.336 27.566 14.9 26.711 13.336 25.147 12.481 26.711 11.626zM23 42.685L23.583 43.75 24.648 44.333 23.583 44.915 23 45.981 22.417 44.915 21.352 44.333 22.417 43.75z"/><path fill="#bbdef9" d="M21.147 3.063L21.147 15.063 9.147 15.063z"/><path fill="#72caaf" d="M49.34,37.313l2.063,1.863c0.119,0.108,0.283,0.152,0.44,0.118l2.718-0.582 c0.251-0.054,0.502,0.091,0.581,0.335l0.855,2.645c0.049,0.153,0.169,0.273,0.322,0.322l2.645,0.855 c0.244,0.079,0.389,0.33,0.335,0.581l-0.582,2.718c-0.034,0.157,0.01,0.321,0.118,0.44l1.863,2.063c0.172,0.19,0.172,0.48,0,0.67 l-1.863,2.063c-0.108,0.119-0.152,0.283-0.118,0.44l0.582,2.718c0.054,0.251-0.091,0.502-0.335,0.581l-2.645,0.855 c-0.153,0.049-0.273,0.169-0.322,0.322l-0.855,2.645c-0.079,0.244-0.33,0.389-0.581,0.335l-2.718-0.582 c-0.157-0.034-0.321,0.01-0.44,0.118l-2.063,1.863c-0.19,0.172-0.48,0.172-0.67,0l-2.063-1.863 c-0.119-0.108-0.283-0.152-0.44-0.118l-2.718,0.582c-0.251,0.054-0.502-0.091-0.581-0.335l-0.855-2.645 c-0.049-0.153-0.169-0.273-0.322-0.322l-2.645-0.855c-0.244-0.079-0.389-0.33-0.335-0.581l0.582-2.718 c0.034-0.157-0.01-0.321-0.118-0.44l-1.863-2.063c-0.172-0.19-0.172-0.48,0-0.67l1.863-2.063c0.108-0.119,0.152-0.283,0.118-0.44 l-0.582-2.718c-0.054-0.251,0.091-0.502,0.335-0.581l2.645-0.855c0.153-0.049,0.273-0.169,0.322-0.322l0.855-2.645 c0.079-0.244,0.33-0.389,0.581-0.335l2.718,0.582c0.157,0.034,0.321-0.01,0.44-0.118l2.063-1.863 C48.86,37.141,49.15,37.141,49.34,37.313z"/><path fill="#8d6c9f" d="M13 50c-.552 0-1 .447-1 1v2c0 .553.448 1 1 1s1-.447 1-1v-2C14 50.447 13.552 50 13 50zM18 50c-.552 0-1 .447-1 1v2c0 .553.448 1 1 1s1-.447 1-1v-2C19 50.447 18.552 50 18 50zM23 50c-.552 0-1 .447-1 1v2c0 .553.448 1 1 1s1-.447 1-1v-2C24 50.447 23.552 50 23 50zM28 50c-.552 0-1 .447-1 1v2c0 .553.448 1 1 1s1-.447 1-1v-2C29 50.447 28.552 50 28 50zM33 50c-.552 0-1 .447-1 1v2c0 .553.448 1 1 1s1-.447 1-1v-2C34 50.447 33.552 50 33 50zM39 24h4c.552 0 1-.447 1-1s-.448-1-1-1h-4c-.552 0-1 .447-1 1S38.448 24 39 24zM17 24h18c.552 0 1-.447 1-1s-.448-1-1-1H17c-.552 0-1 .447-1 1S16.448 24 17 24zM17 28h20c.552 0 1-.447 1-1s-.448-1-1-1H17c-.552 0-1 .447-1 1S16.448 28 17 28zM34 36H17c-.552 0-1 .447-1 1s.448 1 1 1h17c.552 0 1-.447 1-1S34.552 36 34 36zM17 34h22c.552 0 1-.447 1-1s-.448-1-1-1H17c-.552 0-1 .447-1 1S16.448 34 17 34z"/><path fill="#8d6c9f" d="M61.44,48l-1.69-1.87l0.53-2.47c0.16-0.76-0.28-1.51-1.01-1.74l-2.4-0.78l-0.78-2.4 c-0.23-0.74-0.98-1.17-1.74-1.01L54,37.81V5c0-1.65-1.35-3-3-3H21.66c-1.34,0-2.6,0.52-3.54,1.46l-8.66,8.66 C8.52,13.07,8,14.32,8,15.66V55c0,1.65,1.35,3,3,3h30.51l0.41,1.27c0.24,0.74,0.99,1.17,1.74,1.01l2.47-0.53L48,61.44 c0.29,0.26,0.65,0.39,1,0.39c0.36,0,0.72-0.13,1.01-0.39l1.87-1.69l2.47,0.53c0.76,0.16,1.5-0.27,1.74-1.01l0.78-2.4l2.4-0.78 c0.74-0.23,1.17-0.98,1.01-1.74l-0.53-2.47l1.69-1.87C61.96,49.44,61.96,48.57,61.44,48z M19.54,4.88 c0.142-0.144,0.296-0.271,0.46-0.381V13c0,0.552-0.449,1-1,1h-8.498c0.11-0.166,0.236-0.32,0.378-0.46L19.54,4.88z M11,56 c-0.55,0-1-0.45-1-1V16h9c1.654,0,3-1.346,3-3V4h29c0.55,0,1,0.45,1,1v33.23l-0.12,0.03l-1.87-1.69c-0.57-0.52-1.44-0.52-2.01,0 l-1.87,1.69l-2.47-0.53c-0.75-0.16-1.5,0.27-1.74,1.01l-0.78,2.4l-2.4,0.78c-0.73,0.23-1.17,0.98-1.01,1.74l0.53,2.47L36.57,48 c-0.52,0.57-0.52,1.44,0,2.01l1.69,1.87l-0.53,2.47c-0.14,0.68,0.18,1.35,0.78,1.65H11z M58.09,50.73 c-0.32,0.36-0.45,0.85-0.35,1.32l0.49,2.28l-2.22,0.71c-0.46,0.15-0.82,0.52-0.97,0.97l-0.71,2.22l-2.28-0.49 c-0.47-0.1-0.96,0.03-1.32,0.35l-1.72,1.56l-1.73-1.56c-0.28-0.25-0.64-0.38-1.01-0.38c-0.1,0-0.21,0.01-0.31,0.03l-2.28,0.49 L43.61,58l-0.64-1.99V56c-0.16-0.45-0.51-0.81-0.97-0.96l-2.22-0.71l0.49-2.28c0.1-0.47-0.03-0.96-0.35-1.32L38.36,49l1.56-1.72 c0.32-0.36,0.45-0.85,0.35-1.32l-0.49-2.28L42,42.97c0.45-0.15,0.82-0.51,0.97-0.97l0.71-2.22l2.27,0.49 c0.47,0.11,0.97-0.03,1.33-0.35L49,38.36l1.73,1.56c0.35,0.31,0.82,0.45,1.27,0.36c0.02,0,0.03-0.01,0.05-0.01L54,39.85l0.33-0.07 L55.04,42c0.15,0.46,0.52,0.82,0.97,0.96l2.22,0.72l-0.49,2.28c-0.1,0.47,0.03,0.96,0.35,1.32L59.65,49L58.09,50.73z"/></svg>