<svg xmlns="http://www.w3.org/2000/svg" viewBox="0 0 64 64" width="50px" height="50px"><path fill="#ffefb8" d="M4,53h56c1.657,0,2-1.343,2-3v-8l-10.438-6l2.125-9.375L61,22v-8c0-1.657-1.343-3-3-3H4 c-1.657,0-3,1.343-3,3v8l9,6v8l-9,6v8C1,51.657,2.343,53,4,53z"/><path fill="#fff6df" d="M52 36l.692-8.462L61 22v-8c0-1.657-1.343-3-3-3h-6.75l-21 42H49.5l8-16L52 36zM26.25 53L21 53 42 11 47.25 11zM15.75 53L14 53 35 11 36.75 11z"/><path fill="#72caaf" d="M4,53h14c1.657,0,3-1.343,3-3V14c0-1.657-1.343-3-3-3H4c-1.657,0-3,1.343-3,3v8l9,6v8l-9,6v8 C1,51.657,2.343,53,4,53z"/><path fill="#fff8f8" d="M29.498 33.996L30.736 36.26 33 37.498 30.736 38.736 29.498 41 28.26 38.736 25.996 37.498 28.26 36.26zM47.419 19L48.274 20.564 49.838 21.419 48.274 22.274 47.419 23.838 46.564 22.274 45 21.419 46.564 20.564zM50.352 44.704L50.935 45.769 52 46.352 50.935 46.935 50.352 48 49.769 46.935 48.704 46.352 49.769 45.769z"/><path fill="#72caaf" d="M51 35A12 12 0 1 0 51 59A12 12 0 1 0 51 35Z"/><path fill="#8d6c9f" d="M17 16h-2c-.552 0-1 .447-1 1s.448 1 1 1h2c.552 0 1-.447 1-1S17.552 16 17 16zM17 21h-2c-.552 0-1 .447-1 1s.448 1 1 1h2c.552 0 1-.447 1-1S17.552 21 17 21zM17 26h-2c-.552 0-1 .447-1 1s.448 1 1 1h2c.552 0 1-.447 1-1S17.552 26 17 26zM17 31h-2c-.552 0-1 .447-1 1s.448 1 1 1h2c.552 0 1-.447 1-1S17.552 31 17 31zM17 36h-2c-.552 0-1 .447-1 1s.448 1 1 1h2c.552 0 1-.447 1-1S17.552 36 17 36zM17 41h-2c-.552 0-1 .447-1 1s.448 1 1 1h2c.552 0 1-.447 1-1S17.552 41 17 41zM17 46h-2c-.552 0-1 .447-1 1s.448 1 1 1h2c.552 0 1-.447 1-1S17.552 46 17 46zM21 14c-.552 0-1 .447-1 1v34c0 .553.448 1 1 1s1-.447 1-1V15C22 14.447 21.552 14 21 14z"/><path fill="#faefde" d="M57,46h-5v-5c0-0.552-0.447-1-1-1s-1,0.448-1,1v5h-5c-0.553,0-1,0.448-1,1s0.447,1,1,1h5v5 c0,0.552,0.447,1,1,1s1-0.448,1-1v-5h5c0.553,0,1-0.448,1-1S57.553,46,57,46z"/><path fill="#8d6c9f" d="M53.322,34.219C53.116,33.512,53,32.769,53,32c0-3.878,2.766-7.189,6.576-7.874 C60.98,23.874,62,22.638,62,21.187V13c0-1.654-1.346-3-3-3H3c-1.654,0-3,1.346-3,3v8.187c0,1.451,1.02,2.688,2.424,2.939 C6.234,24.811,9,28.122,9,32s-2.766,7.189-6.576,7.874C1.02,40.126,0,41.362,0,42.813V51c0,1.654,1.346,3,3,3h37.063 c2.314,3.602,6.347,6,10.937,6c7.168,0,13-5.832,13-13C64,40.625,59.384,35.319,53.322,34.219z M18,52c0-0.553-0.448-1-1-1h-2 c-0.552,0-1,0.447-1,1H3c-0.551,0-1-0.448-1-1v-8.187c0-0.481,0.327-0.89,0.777-0.971C7.542,40.986,11,36.848,11,32 s-3.458-8.986-8.223-9.843C2.327,22.076,2,21.668,2,21.187V13c0-0.552,0.449-1,1-1h11c0,0.553,0.448,1,1,1h2c0.552,0,1-0.447,1-1 h41c0.551,0,1,0.448,1,1v8.187c0,0.481-0.327,0.89-0.777,0.971C54.458,23.014,51,27.152,51,32c0,0.689,0.08,1.359,0.216,2.011 C51.144,34.01,51.073,34,51,34c-7.168,0-13,5.832-13,13c0,1.771,0.359,3.46,1.003,5H18z M51,58c-6.065,0-11-4.935-11-11 s4.935-11,11-11s11,4.935,11,11S57.065,58,51,58z"/></svg>