<svg xmlns="http://www.w3.org/2000/svg" width="300" height="300" fill="#000" viewBox="0 0 32 32"><path d="M 26 5 L 19.945313 5 L 18.945313 8 L 17.300781 8 L 17 9 L 14.101563 5 L 8.054688 5 L 3 21 L 8.398438 26 L 14.300781 26 L 15.199219 22.398438 L 15.804688 22.976563 L 17.402344 22.976563 L 20 26 L 26 26 L 29 11 Z M 21.710938 11 L 22.710938 8 L 20 8 L 20.667969 6 L 25.179688 6 L 24.121094 11 Z M 21.324219 9 L 20.65625 11 L 17.328125 11 L 17.910156 9 Z M 8.144531 8 L 8.78125 6 L 13.566406 6 L 12.933594 8 Z M 4.367188 20 L 5.914063 15 L 7.730469 15 L 6.398438 19 L 9.671875 19 L 9.378906 20 Z M 9.960938 18 L 7.800781 18 L 7.777344 18.03125 L 8.117188 17 L 10.246094 17 Z M 16.5 21 L 18.199219 14.398438 L 16.300781 14.398438 L 15.226563 17.953125 L 11.828125 17.953125 L 12.898438 14.398438 L 11 14.398438 L 10.535156 16 L 8.453125 16 L 9.117188 14 L 6.230469 14 L 7.839844 9 L 14.28125 9 L 13.410156 12 L 23.949219 12 L 21.699219 21 Z"/></svg>