<svg fill="#000000" xmlns="http://www.w3.org/2000/svg" viewBox="0 0 26 26" width="300px" height="300px"><path d="M 17.3125 0.09375 C 17.0625 0.09375 16.792969 0.207031 16.59375 0.40625 L 13.8125 3.1875 C 13.914063 3.1875 14 3.3125 14 3.3125 L 14.3125 3.59375 C 14.511719 3.792969 14.511719 4.113281 14.3125 4.3125 C 14.210938 4.414063 14.105469 4.40625 13.90625 4.40625 C 13.707031 4.40625 13.601563 4.414063 13.5 4.3125 L 13.3125 4 C 13.210938 3.898438 13.1875 3.914063 13.1875 3.8125 L 0.40625 16.59375 C 0.0078125 16.992188 0.0078125 17.601563 0.40625 18 L 2 19.6875 C 2.5 19.1875 3.199219 19 4 19 C 5.699219 19 7.09375 20.394531 7.09375 22.09375 C 7.09375 22.894531 6.804688 23.59375 6.40625 24.09375 L 8 25.6875 C 8.398438 26.085938 9.007813 26.085938 9.40625 25.6875 L 12.8125 22.3125 C 12.613281 21.914063 12.5 21.5 12.5 21 L 12.5 19 C 12.5 17.601563 13.601563 16.5 15 16.5 L 16.5 16.5 L 16.5 15 C 16.5 13.601563 17.601563 12.5 19 12.5 L 21 12.5 C 21.398438 12.5 21.699219 12.585938 22 12.6875 L 21.8125 12.5 C 21.613281 12.300781 21.613281 12.011719 21.8125 11.8125 C 22.011719 11.613281 22.300781 11.613281 22.5 11.8125 L 22.8125 12.09375 C 22.8125 12.09375 22.804688 12.1875 22.90625 12.1875 L 25.59375 9.5 C 25.992188 9.101563 25.992188 8.492188 25.59375 8.09375 L 24 6.40625 C 23.5 6.804688 22.800781 7.09375 22 7.09375 C 20.300781 7.09375 18.90625 5.699219 18.90625 4 C 18.90625 3.300781 19.195313 2.601563 19.59375 2 L 18 0.40625 C 17.800781 0.207031 17.5625 0.09375 17.3125 0.09375 Z M 15.34375 4.84375 C 15.46875 4.84375 15.585938 4.898438 15.6875 5 L 16 5.3125 C 16.199219 5.511719 16.199219 5.800781 16 6 C 15.898438 6.101563 15.792969 6.09375 15.59375 6.09375 C 15.394531 6.09375 15.289063 6.101563 15.1875 6 L 15 5.6875 C 14.800781 5.488281 14.800781 5.199219 15 5 C 15.101563 4.898438 15.21875 4.84375 15.34375 4.84375 Z M 17.0625 6.5625 C 17.1875 6.5625 17.304688 6.585938 17.40625 6.6875 L 17.6875 7 C 17.886719 7.199219 17.886719 7.488281 17.6875 7.6875 C 17.585938 7.789063 17.511719 7.8125 17.3125 7.8125 C 17.113281 7.8125 17.007813 7.789063 16.90625 7.6875 L 16.59375 7.40625 C 16.492188 7.207031 16.488281 6.886719 16.6875 6.6875 C 16.789063 6.585938 16.9375 6.5625 17.0625 6.5625 Z M 18.75 8.25 C 18.875 8.25 18.992188 8.304688 19.09375 8.40625 L 19.40625 8.6875 C 19.605469 8.886719 19.605469 9.207031 19.40625 9.40625 C 19.304688 9.507813 19.199219 9.5 19 9.5 C 18.800781 9.5 18.695313 9.507813 18.59375 9.40625 L 18.3125 9.09375 C 18.210938 8.894531 18.207031 8.605469 18.40625 8.40625 C 18.507813 8.304688 18.625 8.25 18.75 8.25 Z M 20.4375 9.9375 C 20.5625 9.9375 20.710938 9.992188 20.8125 10.09375 L 21.09375 10.40625 C 21.292969 10.605469 21.292969 10.894531 21.09375 11.09375 C 20.992188 11.195313 20.886719 11.1875 20.6875 11.1875 C 20.488281 11.1875 20.414063 11.195313 20.3125 11.09375 L 20 10.8125 C 19.898438 10.613281 19.894531 10.292969 20.09375 10.09375 C 20.195313 9.992188 20.3125 9.9375 20.4375 9.9375 Z M 19 14 C 18.398438 14 18 14.5 18 15 L 18 18 L 15 18 C 14.398438 18 14 18.5 14 19 L 14 21 C 14 21.601563 14.5 22 15 22 L 18 22 L 18 25 C 18 25.601563 18.5 26 19 26 L 21 26 C 21.601563 26 22 25.601563 22 25 L 22 22 L 25 22 C 25.601563 22 26 21.601563 26 21 L 26 19 C 26 18.398438 25.5 18 25 18 L 22 18 L 22 15 C 22 14.398438 21.5 14 21 14 Z"/></svg>