<svg xmlns="http://www.w3.org/2000/svg" viewBox="0 0 30 30" width="100px" height="100px"><path fill="#c74343" d="M0.768 15L6.5 10.087 6.5 13.5 13.5 13.5 13.5 16.5 6.5 16.5 6.5 19.913z"/><path fill="#ab3434" d="M6,11.174V13v1h1h6v2H7H6v1v1.826L1.537,15L6,11.174 M7,9l-7,6l7,6v-4h7v-4H7V9L7,9z"/><path fill="#f76d6d" d="M22.5 8.5H29.5V21.5H22.5z"/><path fill="#c74343" d="M29,9v12h-6V9H29 M30,8h-8v14h8V8L30,8z"/><g><path fill="#f78f8f" d="M17.5,28.5v-27H18c2.481,0,4.5,2.019,4.5,4.5v18c0,2.481-2.019,4.5-4.5,4.5H17.5z"/><path fill="#c74343" d="M18,2c2.206,0,4,1.794,4,4v18c0,2.206-1.794,4-4,4V2 M18,1h-1v28h1c2.761,0,5-2.239,5-5V6 C23,3.239,20.761,1,18,1L18,1z"/></g></svg>