<svg xmlns="http://www.w3.org/2000/svg" width="300" height="300" viewBox="0 0 30 30"><path fill="#8bb7f0" d="M1.5,19.5c0.3-2.8,2.6-5,5.5-5h4c2.9,0,5.2,2.2,5.5,5H1.5z"/><path fill="#4e7ab5" d="M11,15c2.4,0,4.4,1.7,4.9,4H2.1c0.5-2.3,2.5-4,4.9-4H11 M11,14H7c-3.3,0-6,2.7-6,6h16 C17,16.7,14.3,14,11,14L11,14z"/><path fill="#deb974" d="M9,15.5c-1.5,0-2.3-0.4-2.5-0.6v-2.4h5v2.4C11.3,15.1,10.5,15.5,9,15.5z"/><path fill="#967a44" d="M11,13v1.6c-0.3,0.2-0.9,0.4-2,0.4s-1.7-0.2-2-0.4V13H11 M12,12H6v3.1c0,0,0.7,0.9,3,0.9 s3-0.9,3-0.9V12L12,12z"/><path fill="#f5ce85" d="M9,13.5c-0.2,0-0.4-0.1-0.6-0.2l-0.1-0.1l-0.1,0c-1.6-0.4-2.7-1.8-2.7-3.4V4.9 c0-0.8,0.6-1.4,1.4-1.4h4.2c0.8,0,1.4,0.6,1.4,1.4v4.8c0,1.6-1.1,3-2.7,3.4l-0.1,0l-0.1,0.1C9.4,13.4,9.2,13.5,9,13.5z"/><path fill="#967a44" d="M11.1,4C11.6,4,12,4.4,12,4.9v4.8c0,1.4-0.9,2.6-2.3,2.9l-0.3,0.1l-0.2,0.2c0,0-0.1,0.1-0.2,0.1 s-0.2-0.1-0.2-0.1l-0.2-0.2l-0.3-0.1C6.9,12.3,6,11.1,6,9.8V4.9C6,4.4,6.4,4,6.9,4H11.1 M11.1,3H6.9C5.9,3,5,3.9,5,4.9v4.8 c0,1.9,1.3,3.5,3.1,3.9C8.3,13.9,8.6,14,9,14s0.7-0.1,0.9-0.4c1.8-0.4,3.1-2,3.1-3.9V4.9C13,3.9,12.1,3,11.1,3L11.1,3z"/><path fill="#a6714e" d="M13.1,12.5c-0.7,0-1.3-0.2-1.7-0.3c0.5-0.6,1.1-1.7,1.1-3.3V7.2c0-1.4-1.1-2.3-1.1-2.4l-0.5-0.4 L10.6,5c0,0.1-0.9,1.5-3.2,1.8C6.1,6.9,5.5,7.1,5.5,8.8v0.1c0,1.6,0.6,2.6,1.1,3.2c-0.4,0.2-1.1,0.3-1.6,0.3 c-0.8,0-1.7-0.3-2.2-0.6c0.5-0.5,1.1-1.4,1.1-2.5c0-0.6-0.1-1.2-0.2-1.7C3.6,7.4,3.5,7,3.5,6.6c0-3.3,2.6-5.1,5-5.1 c1.8,0,2.6,1.2,2.6,1.3L11.3,3l0.3,0c1.4,0,3,0.9,3,3.6c0,0.3-0.1,0.7-0.2,1.1c-0.1,0.5-0.2,1.1-0.2,1.8c0,1,0.7,1.7,1.2,2.1 C14.8,11.9,14,12.5,13.1,12.5z"/><path fill="#7a4f34" d="M8.5,2c1.5,0,2.2,1,2.2,1L11,3.5h0.6c1.2,0,2.5,0.8,2.5,3.1c0,0.3-0.1,0.6-0.1,1 c-0.1,0.5-0.2,1.1-0.2,1.9c0,0.9,0.4,1.6,0.9,2.1c-0.4,0.3-0.9,0.5-1.4,0.5c-0.3,0-0.6,0-0.9-0.1c0.4-0.7,0.8-1.7,0.8-3V7.2 c0-1.6-1.2-2.7-1.3-2.8l-0.9-0.7l-0.6,1c0,0.1-0.8,1.3-2.8,1.5C6,6.5,5,6.8,5,8.8v0.1V9h0c0,1.2,0.4,2.2,0.8,2.9 C5.5,12,5.2,12,5,12c-0.5,0-1-0.1-1.4-0.3c0.4-0.6,0.8-1.3,0.8-2.3c0-0.6-0.1-1.2-0.2-1.8C4.1,7.3,4,6.9,4,6.6C4,3.6,6.3,2,8.5,2 M8.5,1C5.6,1,3,3.2,3,6.6c0,0.8,0.4,1.8,0.4,2.8c0,1.5-1.5,2.5-1.5,2.5s1.6,1,3.1,1c1.2,0,2.5-0.7,2.5-0.7S6,11.3,6,8.9 C6,9,6,9,6,9S6,9,6,8.9c0-0.1,0-0.1,0-0.1s0,0,0,0.1c0,0,0,0,0-0.1c0-1.4,0.3-1.4,1.5-1.6c2.6-0.4,3.6-2,3.6-2s1,0.8,1,2 c0,0.6,0,0.8,0,1.7c0,2.3-1.5,3.4-1.5,3.4s1,0.7,2.5,0.7c1.6,0,3.1-1.5,3.1-1.5s-1.5-0.7-1.5-2c0-1.2,0.4-2,0.4-2.8 c0-2.8-1.7-4.1-3.5-4.1C11.5,2.5,10.6,1,8.5,1L8.5,1z"/><path fill="#c2e8ff" d="M8.5,24.5c0.3-2.8,2.6-5,5.5-5h4c2.9,0,5.2,2.2,5.5,5H8.5z"/><path fill="#7496c4" d="M18,20c2.4,0,4.4,1.7,4.9,4H9.1c0.5-2.3,2.5-4,4.9-4H18 M18,19h-4c-3.3,0-6,2.7-6,6h16 C24,21.7,21.3,19,18,19L18,19z"/><path fill="#ffdea3" d="M16,20.5c-1.5,0-2.3-0.4-2.5-0.6v-2.4h5v2.4C18.3,20.1,17.5,20.5,16,20.5z"/><path fill="#967a44" d="M18,18v1.6c-0.3,0.2-0.9,0.4-2,0.4s-1.7-0.2-2-0.4V18H18 M19,17h-6v3.1c0,0,0.7,0.9,3,0.9 s3-0.9,3-0.9V17L19,17z"/><g><path fill="#ffdea3" d="M16,18.5c-0.2,0-0.4-0.1-0.6-0.2l-0.1-0.1l-0.1,0c-1.6-0.4-2.7-1.8-2.7-3.4V9.9 c0-0.8,0.6-1.4,1.4-1.4h4.2c0.8,0,1.4,0.6,1.4,1.4v4.8c0,1.6-1.1,3-2.7,3.4l-0.1,0l-0.1,0.1C16.4,18.4,16.2,18.5,16,18.5z"/><path fill="#967a44" d="M18.1,9C18.6,9,19,9.4,19,9.9v4.8c0,1.4-0.9,2.6-2.3,2.9l-0.3,0.1l-0.2,0.2c0,0-0.1,0.1-0.2,0.1 s-0.2-0.1-0.2-0.1l-0.2-0.2l-0.3-0.1c-1.4-0.3-2.3-1.5-2.3-2.9V9.9C13,9.4,13.4,9,13.9,9H18.1 M18.1,8h-4.2C12.9,8,12,8.9,12,9.9 v4.8c0,1.9,1.3,3.5,3.1,3.9c0.2,0.2,0.6,0.4,0.9,0.4s0.7-0.1,0.9-0.4c1.8-0.4,3.1-2,3.1-3.9V9.9C20,8.9,19.1,8,18.1,8L18.1,8z"/></g><g><path fill="#f5ce85" d="M20.1,17.5c-0.7,0-1.3-0.2-1.7-0.3c0.5-0.6,1.1-1.7,1.1-3.3v-1.7c0-1.4-1.1-2.3-1.1-2.4l-0.5-0.4 L17.6,10c0,0.1-0.9,1.5-3.2,1.8c-1.3,0.2-1.9,0.3-1.9,2.1v0.1c0,1.6,0.6,2.6,1.1,3.2c-0.4,0.2-1.1,0.3-1.6,0.3 c-0.8,0-1.7-0.3-2.2-0.6c0.5-0.5,1.1-1.4,1.1-2.5c0-0.6-0.1-1.2-0.2-1.7c-0.1-0.4-0.2-0.8-0.2-1.1c0-3.3,2.6-5.1,5-5.1 c1.8,0,2.6,1.2,2.6,1.3L18.3,8l0.3,0c1.4,0,3,0.9,3,3.6c0,0.3-0.1,0.7-0.2,1.1c-0.1,0.5-0.2,1.1-0.2,1.8c0,1,0.7,1.7,1.2,2.1 C21.8,17,21,17.5,20.1,17.5z"/><path fill="#967a44" d="M15.5,7c1.5,0,2.2,1,2.2,1L18,8.5h0.6c1.2,0,2.5,0.8,2.5,3.1c0,0.3-0.1,0.6-0.1,1 c-0.1,0.5-0.2,1.1-0.2,1.9c0,0.9,0.4,1.6,0.9,2.1c-0.4,0.3-0.9,0.5-1.4,0.5c-0.3,0-0.6,0-0.9-0.1c0.4-0.7,0.8-1.7,0.8-3v-1.7 c0-1.6-1.2-2.7-1.3-2.8l-0.9-0.7l-0.6,1c0,0.1-0.8,1.3-2.8,1.5C13,11.5,12,11.8,12,13.8v0.1V14h0c0,1.2,0.4,2.2,0.8,2.9 C12.5,17,12.2,17,12,17c-0.5,0-1-0.1-1.4-0.3c0.4-0.6,0.8-1.3,0.8-2.3c0-0.6-0.1-1.2-0.2-1.8c-0.1-0.4-0.2-0.8-0.2-1.1 C11,8.6,13.3,7,15.5,7 M15.5,6C12.6,6,10,8.2,10,11.6c0,0.8,0.4,1.8,0.4,2.8c0,1.5-1.5,2.5-1.5,2.5s1.6,1,3.1,1 c1.2,0,2.5-0.7,2.5-0.7S13,16.3,13,13.9c0,0.1,0,0.1,0,0.1s0-0.1,0-0.1c0-0.1,0-0.1,0-0.1s0,0,0,0.1c0,0,0,0,0-0.1 c0-1.4,0.3-1.4,1.5-1.6c2.6-0.4,3.6-2,3.6-2s1,0.8,1,2c0,0.6,0,0.8,0,1.7c0,2.3-1.5,3.4-1.5,3.4s1,0.7,2.5,0.7 c1.6,0,3.1-1.5,3.1-1.5s-1.5-0.7-1.5-2c0-1.2,0.4-2,0.4-2.8c0-2.8-1.7-4.1-3.5-4.1C18.5,7.5,17.6,6,15.5,6L15.5,6z"/></g><g><path fill="#bae0bd" d="M23 16.5A6.5 6.5 0 1 0 23 29.5A6.5 6.5 0 1 0 23 16.5Z"/><path fill="#5e9c76" d="M23,17c3.3,0,6,2.7,6,6s-2.7,6-6,6s-6-2.7-6-6S19.7,17,23,17 M23,16c-3.9,0-7,3.1-7,7s3.1,7,7,7 s7-3.1,7-7S26.9,16,23,16L23,16z"/></g><path fill="#fff" d="M22 19H24V27H22z"/><path fill="#fff" d="M19 22H27V24H19z"/></svg>