<svg xmlns="http://www.w3.org/2000/svg" width="500" height="500" viewBox="0 0 48 48"><path fill="#78909C" d="M45,38c0,1.104-0.896,2-2,2H5c-1.104,0-2-0.896-2-2V10c0-1.104,0.896-2,2-2h38c1.104,0,2,0.896,2,2V38z"/><path fill="#37474F" d="M43,8H14v32h29c1.104,0,2-0.896,2-2V10C45,8.896,44.104,8,43,8z"/><path fill="#546E7A" d="M16 22H22V38H16zM23 22H29V38H23zM30 22H36V38H30zM37 22H43V38H37z"/><path fill="#CFD8DC" d="M19 24A2 2 0 1 0 19 28 2 2 0 1 0 19 24zM26 24A2 2 0 1 0 26 28 2 2 0 1 0 26 24zM33 24A2 2 0 1 0 33 28 2 2 0 1 0 33 24zM40 24A2 2 0 1 0 40 28 2 2 0 1 0 40 24z"/><path fill="#448AFF" d="M20 11H39V16H20z"/><path fill="#37474F" d="M8.5 17A2.5 2.5 0 1 0 8.5 22A2.5 2.5 0 1 0 8.5 17Z"/><g><path fill="#76FF03" d="M19 19A1 1 0 1 0 19 21 1 1 0 1 0 19 19zM8.5 18.5A1 1 0 1 0 8.5 20.5 1 1 0 1 0 8.5 18.5zM33 19A1 1 0 1 0 33 21 1 1 0 1 0 33 19zM40 19A1 1 0 1 0 40 21 1 1 0 1 0 40 19zM26 19A1 1 0 1 0 26 21 1 1 0 1 0 26 19z"/><path fill="#76FF03" d="M19 19A1 1 0 1 0 19 21 1 1 0 1 0 19 19zM33 19A1 1 0 1 0 33 21 1 1 0 1 0 33 19zM40 19A1 1 0 1 0 40 21 1 1 0 1 0 40 19zM26 19A1 1 0 1 0 26 21 1 1 0 1 0 26 19z"/></g></svg>