<svg xmlns="http://www.w3.org/2000/svg" width="500" height="500" viewBox="0 0 48 48"><path fill="#2196F3" d="M35,6H7c-2.209,0-4,1.791-4,4v17c0,2.209,1.791,4,4,4h28c2.209,0,4-1.791,4-4V10C39,7.791,37.209,6,35,6z"/><path fill="#0D47A1" d="M4.088,7.273C3.627,7.765,3.293,8.371,3.127,9.047L21,22L38.873,9.047c-0.166-0.676-0.5-1.282-0.961-1.773L21,19.53L4.088,7.273z"/><path fill="#90CAF9" d="M41,17H13c-2.209,0-4,1.791-4,4v17c0,2.209,1.791,4,4,4h28c2.209,0,4-1.791,4-4V21C45,18.791,43.209,17,41,17z"/><path fill="#1E88E5" d="M10.088,18.273c-0.461,0.491-0.795,1.098-0.961,1.773L27,33l17.873-12.953c-0.166-0.676-0.5-1.282-0.961-1.773L27,30.53L10.088,18.273z"/></svg>