<svg xmlns="http://www.w3.org/2000/svg" width="100" height="100" viewBox="0 0 48 48"><path fill="#1565c0" d="M8,28H6c0-4,1.4-7.4,4.2-10c7.7-7.2,23.2-6.1,23.9-6l-0.1,2c-0.2,0-15.3-1-22.4,5.5 C9.2,21.7,8,24.6,8,28z"/><path fill="#1565c0" d="M16.5,38C10.7,38,6,33.3,6,27.5C6,21.7,10.7,17,16.5,17S27,21.7,27,27.5C27,33.3,22.3,38,16.5,38z M16.5,19C11.8,19,8,22.8,8,27.5c0,4.7,3.8,8.5,8.5,8.5s8.5-3.8,8.5-8.5C25,22.8,21.2,19,16.5,19z"/><path fill="#1565c0" d="M20.5,38C14.7,38,10,33.3,10,27.5C10,21.7,14.7,17,20.5,17C26.3,17,31,21.7,31,27.5 C31,33.3,26.3,38,20.5,38z M20.5,19c-4.7,0-8.5,3.8-8.5,8.5c0,4.7,3.8,8.5,8.5,8.5c4.7,0,8.5-3.8,8.5-8.5C29,22.8,25.2,19,20.5,19z"/><path fill="#1565c0" d="M40 35.9c-2.9 1.7-8.6 4.1-18 4.1C8.2 40 8 28.5 8 28l-1 0H6c0 .1.2 14 16 14 8.9 0 14.6-2 18-3.8.7-.3 1.4-.8 2-1.3v-2.7C41.4 34.8 40.8 35.4 40 35.9zM42 10l-7-4-1 1.7 4 2.3H42z"/><path fill="#2196f3" d="M33 10h9v6h-9V10zM10 28.4c0-.3 0-.6 0-.9s0-.6 0-.9c.4-5.1 4.4-9.1 9.5-9.6-.3 0-.7-.1-1-.1C12.7 17 8 21.7 8 27.5S12.7 38 18.5 38c.3 0 .7 0 1-.1C14.5 37.5 10.5 33.4 10 28.4zM20.5 19c-.3 0-.7 0-1 .1 4.2.5 7.5 4.1 7.5 8.4s-3.3 7.9-7.5 8.4c.3 0 .7.1 1 .1 4.4 0 8-3.4 8.5-7.6 0-.3 0-.6 0-.9s0-.6 0-.9C28.5 22.4 24.9 19 20.5 19z"/></svg>