<svg xmlns="http://www.w3.org/2000/svg" width="50" height="50" fill="#000" viewBox="0 0 50 50"><path d="M 16.3125 -0.03125 C 13.945313 -0.03125 11.96875 1.945313 11.96875 4.3125 L 11.96875 16 L 0 16 L 0 18 L 11.96875 18 L 11.96875 32 L 0 32 L 0 34 L 11.96875 34 L 11.96875 45.6875 C 11.96875 48.054688 13.945313 50.03125 16.3125 50.03125 L 23 50.03125 C 23.273438 50.035156 23.539063 49.925781 23.734375 49.734375 C 23.925781 49.539063 24.035156 49.273438 24.03125 49 L 24.03125 1 C 24.035156 0.726563 23.925781 0.460938 23.734375 0.265625 C 23.539063 0.0742188 23.273438 -0.0351563 23 -0.03125 Z M 16.3125 2.03125 L 21.96875 2.03125 L 21.96875 47.96875 L 16.3125 47.96875 C 15.078125 47.96875 14.03125 46.921875 14.03125 45.6875 L 14.03125 4.3125 C 14.03125 3.078125 15.078125 2.03125 16.3125 2.03125 Z M 40.90625 16.96875 C 40.863281 16.976563 40.820313 16.988281 40.78125 17 C 40.40625 17.066406 40.105469 17.339844 40 17.703125 C 39.894531 18.070313 40.003906 18.460938 40.28125 18.71875 L 45.5625 24 L 27 24 L 27 26 L 45.5625 26 L 40.28125 31.28125 C 39.882813 31.679688 39.882813 32.320313 40.28125 32.71875 C 40.679688 33.117188 41.320313 33.117188 41.71875 32.71875 L 48.71875 25.71875 L 49.40625 25 L 48.71875 24.28125 L 41.71875 17.28125 C 41.511719 17.058594 41.210938 16.945313 40.90625 16.96875 Z"/></svg>