<svg fill="#000000" xmlns="http://www.w3.org/2000/svg" viewBox="0 0 32 32" width="100px" height="100px"><path d="M 18 5 L 18 27 L 20 27 C 22.210938 27 24 25.210938 24 23 L 24 20 L 30 20 L 30 18 L 22 18 L 22 23 C 22 24.191406 21.191406 25 20 25 L 20 7 C 21.191406 7 22 7.808594 22 9 L 22 14 L 30 14 L 30 12 L 24 12 L 24 9 C 24 6.789063 22.210938 5 20 5 Z M 7.78125 9.28125 L 1.78125 15.28125 L 1.09375 16 L 1.78125 16.71875 L 7.78125 22.71875 L 9.21875 21.28125 L 4.9375 17 L 16 17 L 16 15 L 4.9375 15 L 9.21875 10.71875 Z"/></svg>