<svg xmlns="http://www.w3.org/2000/svg" width="100" height="100" viewBox="0 0 48 48"><path fill="#424242" d="M14.7 41.07c-.31-.79-.51-1.79-.61-3.07H11V22H5v21h10.91C15.4 42.46 15 41.81 14.7 41.07zM44 36v-.65c0-2.15-.32-3.89-.96-5.22-.63-1.35-1.56-2.37-2.77-3.07C39.05 26.36 37.4 26 35.29 26c-2.58 0-4.62.79-6.08 2.36C27.74 29.93 27 31.99 27 34.53c0 1.78.37 3.34 1.11 4.67.73 1.31 1.64 2.28 2.76 2.89 1.12.6 2.65.91 4.59.91 2.24 0 3.96-.36 5.15-1.06 2.15-1.28 2.97-3.37 3.16-3.94h-5.74c-.31.41-.6.71-.87.88-.5.31-1.02.46-1.57.46-.88 0-1.59-.36-2.13-1.06-.37-.46-.64-1.36-.75-2.28H44zM33.39 31.19C33.92 30.4 34.63 30 35.53 30c.77 0 1.4.26 1.88.79.41.46.69 1.2.82 2.2h-5.44C32.89 32.21 33.09 31.61 33.39 31.19zM25.82 30H26v-.4C25.94 29.73 25.88 29.87 25.82 30z"/><path fill="#424242" d="M27.64,42c-0.76,0.29-1.4,0.44-1.4,0.44c-0.53,0.12-1.04,0.23-1.55,0.31 C23.67,42.92,22.7,43,21.78,43c-1.6,0-2.78-0.22-3.54-0.66c-0.76-0.44-1.32-1.11-1.68-2.01c-0.36-0.9-0.54-2.35-0.54-4.36L16,30h-2 v-5h2v-3l7-3v6h3v5h-3.01v6.02c0,0.77,0.07,1.27,0.21,1.52c0.21,0.38,0.58,0.58,1.1,0.58c0.26,0,0.73-0.15,1.12-0.29 c0.22,0.83,0.54,1.62,0.94,2.34C26.74,40.85,27.17,41.46,27.64,42z"/><path fill="#fe0032" d="M23.671,13C19.939,13,17,17,17,17s2.433-2.338,5.689-2.338c2.933,0,3.311,2.143,3.311,3.838 c0,0.835,0.672,1.5,1.5,1.5s1.5-0.672,1.5-1.5C29,16.5,27.671,13,23.671,13z"/><path fill="#fe0032" d="M26.145,8.99C21,9,18,13,18,13c1.359-0.986,3.419-2,6-2c5,0,6,3,6,5c0,1.105,0.895,2,2,2 c1.105,0,2-0.895,2-2C34,13,32,8.978,26.145,8.99z"/><path fill="#fe0032" d="M30,5c-7,0-11,5-11,5s4-3,9-3s7,2.937,7,6.626C35.068,14.946,36.163,16,37.5,16 c1.381,0,2.5-1.119,2.5-2.5C40,8.216,35.548,5,30,5z"/><path fill="#757575" d="M18.01 33L18 33 18 29.99z"/></svg>