<svg xmlns="http://www.w3.org/2000/svg" width="300" height="300" viewBox="0 0 80 80"><path fill="#bae0bd" d="M13.333 8L33.891 8 41.782 19.989 42 16 48.724 16 50.667 8 69.333 8 56 56 0 56z"/><path fill="#d6aa70" d="M24 48L38.656 48 40 53.278 38.583 56.075 45.333 64 37.333 64z"/><path fill="#d6aa70" d="M39.344 56L56 56 69.333 72 50.667 72zM2.667 56L18.667 56 32 72 16 72z"/><path fill="#735f63" d="M12 16H32V18H12zM55.438 18l-2.502 10H40.602l2.663-10H55.438M58 16H41.729L38 30h16.497L58 16 58 16zM23.438 42l-1.501 6h-9.369l1.516-6H23.438M26 40H12.526L10 50h13.498L26 40 26 40z"/><path fill="#735f63" d="M35.575 18L30.013 18 32.513 8 42.125 21.208 39.896 28 46.864 28 45.161 30 32 30z"/><path fill="#735f63" d="M40 28H66V30H40zM11.958 50L10 50 14.042 34 16 34z"/><path fill="#735f63" d="M14 36L6 36 8 34 16 34z"/><path fill="#735f63" d="M32.936 58.667L30.594 70 16.714 70 2.667 56 15.312 10 32 10 41.353 24 42.419 20.792 33.891 8 13.333 8 0 56 16 72 32 72 34.667 58.944zM69.333 8L49.927 8 47.149 18 49.259 18 51.473 10 68 10 77.164 27.078 68 70 51.453 70 40.219 56 45.143 38 40.472 38 37.556 48 39.394 51.12 38 56 50.556 72 69.333 72 80 26.667z"/><path fill="#735f63" d="M69.333 72L68 72 56 56 68 8 80 26.667zM43.339 62.005L37.888 62 26.667 48 29.167 38 23.809 38 18.667 56 32 72 35.281 61.968 36.889 64 45.333 64z"/></svg>