<svg xmlns="http://www.w3.org/2000/svg" width="300" height="300" viewBox="0 0 48 48"><path fill="#ffca28" d="M44,24c0,11-9,20-20,20S4,35,4,24S13,4,24,4S44,13,44,24z"/><path fill="#fff" d="M16,29c-2.8,0-5-2.2-5-5s2.2-5,5-5s5,2.2,5,5S18.8,29,16,29z"/><path fill="#3f51b5" d="M16,20c2.2,0,4,1.8,4,4s-1.8,4-4,4c-2.2,0-4-1.8-4-4S13.8,20,16,20 M16,18c-3.3,0-6,2.7-6,6 s2.7,6,6,6s6-2.7,6-6S19.3,18,16,18z"/><path fill="#1976d2" d="M18,25.5c0,0.8-0.7,1.5-1.5,1.5S15,26.3,15,25.5s0.7-1.5,1.5-1.5C17.3,24,18,24.7,18,25.5z"/><path fill="#fff" d="M32,29c-2.8,0-5-2.2-5-5s2.2-5,5-5s5,2.2,5,5S34.8,29,32,29z"/><path fill="#3f51b5" d="M32,20c2.2,0,4,1.8,4,4s-1.8,4-4,4c-2.2,0-4-1.8-4-4S29.8,20,32,20 M32,18c-3.3,0-6,2.7-6,6 s2.7,6,6,6s6-2.7,6-6S35.3,18,32,18z"/><path fill="#1976d2" d="M33,25.5c0,0.8-0.7,1.5-1.5,1.5S30,26.3,30,25.5s0.7-1.5,1.5-1.5S33,24.7,33,25.5z"/><path fill="#3f51b5" d="M21.9,25.5l-1.8-0.9c0.1-0.1,1.3-2.6,3.9-2.6c2.6,0,3.8,2.4,3.9,2.6l-1.8,0.9c0,0-0.8-1.4-2.1-1.4 C22.7,24,21.9,25.4,21.9,25.5z"/><path fill="#b76c09" d="M29,36h-2c0-1.7-1.3-3-3-3s-3,1.3-3,3h-2c0-2.8,2.2-5,5-5S29,33.2,29,36z"/></svg>