<svg fill="#000000" xmlns="http://www.w3.org/2000/svg" viewBox="0 0 50 50" width="500px" height="500px"><path d="M 26.90625 -0.03125 C 26.371094 0.0117188 25.960938 0.464844 25.96875 1 L 25.96875 49.09375 C 25.964844 49.367188 26.074219 49.632813 26.265625 49.828125 C 26.460938 50.019531 26.726563 50.128906 27 50.125 L 33.6875 50.125 C 36.054688 50.125 38.03125 48.179688 38.03125 45.8125 L 38.03125 34 L 50 34 L 50 32 L 38.03125 32 L 38.03125 18 L 50 18 L 50 16 L 38.03125 16 L 38.03125 4.3125 C 38.03125 1.945313 36.054688 -0.03125 33.6875 -0.03125 L 27 -0.03125 C 26.96875 -0.03125 26.9375 -0.03125 26.90625 -0.03125 Z M 28.03125 2.03125 L 33.6875 2.03125 C 34.921875 2.03125 35.96875 3.078125 35.96875 4.3125 L 35.96875 45.8125 C 35.96875 47.046875 34.921875 48.09375 33.6875 48.09375 L 28.03125 48.09375 Z M 8.875 17 C 8.652344 17.023438 8.441406 17.125 8.28125 17.28125 L 1.28125 24.28125 L 0.59375 25 L 1.28125 25.71875 L 8.28125 32.71875 C 8.679688 33.117188 9.320313 33.117188 9.71875 32.71875 C 10.117188 32.320313 10.117188 31.679688 9.71875 31.28125 L 4.4375 26 L 23 26 L 23 24 L 4.4375 24 L 9.71875 18.71875 C 10.042969 18.417969 10.128906 17.941406 9.933594 17.546875 C 9.742188 17.148438 9.308594 16.929688 8.875 17 Z"/></svg>