<svg xmlns="http://www.w3.org/2000/svg" width="300" height="300" fill="#000" viewBox="0 0 50 50"><path d="M 7 2 L 7 48 L 34 48 C 34.01 48 34.019297 47.994141 34.029297 47.994141 C 35.700297 49.247141 37.764 50 40 50 C 45.5 50 50 45.5 50 40 C 50 35.544 47.046 31.747844 43 30.464844 L 43 15.585938 L 29.414062 2 L 7 2 z M 30 5.4140625 L 39.585938 15 L 30 15 L 30 5.4140625 z M 14 21 L 36 21 L 36 23 L 14 23 L 14 21 z M 14 27 L 36 27 L 36 29 L 14 29 L 14 27 z M 40 32 C 44.4 32 48 35.6 48 40 C 48 44.4 44.4 48 40 48 C 35.6 48 32 44.4 32 40 C 32 35.6 35.6 32 40 32 z M 14 33 L 25 33 L 25 35 L 14 35 L 14 33 z M 40 34.099609 C 39.4 34.099609 39 34.499609 39 35.099609 L 39 39 L 35.099609 39 C 34.499609 39 34.099609 39.4 34.099609 40 C 34.099609 40.6 34.499609 41 35.099609 41 L 39 41 L 39 44.900391 C 39 45.500391 39.4 45.900391 40 45.900391 C 40.6 45.900391 41 45.500391 41 44.900391 L 41 41 L 44.900391 41 C 45.500391 41 45.900391 40.6 45.900391 40 C 45.900391 39.4 45.500391 39 44.900391 39 L 41 39 L 41 35.099609 C 41 34.499609 40.6 34.099609 40 34.099609 z"/></svg>