<svg xmlns="http://www.w3.org/2000/svg" width="100" height="100" viewBox="0 0 16 16"><path fill="#fff" d="M2.5 14.5L2.5 0.5 9.867 0.5 13.5 4.204 13.5 14.5z"/><path fill="#788b9c" d="M9.657,1L13,4.409V14H3V1H9.657 M10.077,0H2v15h12V4L10.077,0L10.077,0z"/><path fill="#c5d4de" d="M7.257,15H14V6.605c-0.317-0.162-0.651-0.294-1-0.393V14H6.605C6.788,14.357,7.004,14.694,7.257,15z"/><path fill="#fff" d="M9.5 4.5L9.5 0.5 9.831 0.5 13.5 4.206 13.5 4.5z"/><path fill="#788b9c" d="M10 1.381L12.593 4H10V1.381M10.04 0H9v5h5V4L10.04 0 10.04 0zM5 6H11V7H5zM5 8H11V9H5zM5 10H11V11H5z"/><path fill="#5e9c76" d="M11.5 7A4.5 4.5 0 1 0 11.5 16A4.5 4.5 0 1 0 11.5 7Z"/><path fill="none" stroke="#fff" stroke-miterlimit="10" d="M11.5 14L11.5 9M9 11.5L14 11.5"/></svg>