<svg xmlns="http://www.w3.org/2000/svg" viewBox="0 0 48 48" width="100px" height="100px"><path fill="#b0bec5" d="M20.7 39c-.4 0-.8-.1-1.2-.2L13.8 37c-1-.3-1.9-1-2.4-2s-.6-2-.3-3l2.1-6.7c.3-1 1-1.9 2-2.4.9-.5 2-.6 3-.3l5.7 1.8c1 .3 1.9 1 2.4 2s.6 2 .3 3l-2.1 6.7C24 37.9 22.4 39 20.7 39zM17.1 24.5c-.3 0-.6.1-.9.2-.5.2-.8.7-1 1.2l-2.1 6.7c-.2.5-.1 1 .1 1.5.2.5.7.8 1.2 1l5.7 1.8c1.1.3 2.2-.3 2.5-1.3l0 0 2.1-6.7c.2-.5.1-1-.1-1.5-.2-.5-.7-.8-1.2-1l-5.7-1.8C17.5 24.6 17.3 24.5 17.1 24.5zM3 19h3v10H3V19zM42 8h3v32h-3V8z"/><path fill="#f44336" d="M6,19.7v8.6l36,10.4V9.3L6,19.7z"/><path fill="#ff8a80" d="M8,21.3v2.2l32-5.1V12L8,21.3z"/></svg>