<svg xmlns="http://www.w3.org/2000/svg" width="50" height="50" fill="#000" viewBox="0 0 26 26"><path d="M 7 0 C 4.796875 0 3 1.796875 3 4 L 3 22 C 3 24.203125 4.796875 26 7 26 L 14.71875 26 C 14.070313 25.429688 13.53125 24.753906 13.09375 24 L 7 24 C 5.894531 24 5 23.105469 5 22 L 5 4 C 5 2.894531 5.894531 2 7 2 L 14.28125 2 C 15.003906 2.183594 15 3.050781 15 3.9375 L 15 7 C 15 7.550781 15.449219 8 16 8 L 19 8 C 19.996094 8 21 8.003906 21 9 L 21 12.0625 C 21.699219 12.148438 22.367188 12.335938 23 12.59375 L 23 8 C 23 6.9375 22.027344 5.929688 20.28125 4.21875 C 20.039063 3.980469 19.777344 3.714844 19.53125 3.46875 C 19.285156 3.222656 19.019531 2.992188 18.78125 2.75 C 17.070313 1.003906 16.0625 0 15 0 Z M 7.8125 10 C 7.261719 10.050781 6.855469 10.542969 6.90625 11.09375 C 6.957031 11.644531 7.449219 12.050781 8 12 L 18 12 C 18.359375 12.003906 18.695313 11.816406 18.878906 11.503906 C 19.058594 11.191406 19.058594 10.808594 18.878906 10.496094 C 18.695313 10.183594 18.359375 9.996094 18 10 L 8 10 C 7.96875 10 7.9375 10 7.90625 10 C 7.875 10 7.84375 10 7.8125 10 Z M 8 14 C 7.449219 14 7 14.445313 7 15 C 7 15.554688 7.449219 16 8 16 L 13.09375 16 C 13.53125 15.246094 14.070313 14.570313 14.71875 14 Z M 20 14 C 16.6875 14 14 16.6875 14 20 C 14 23.3125 16.6875 26 20 26 C 23.3125 26 26 23.3125 26 20 C 26 16.6875 23.3125 14 20 14 Z M 19 16 L 21 16 L 21 19 L 24 19 L 24 21 L 21 21 L 21 24 L 19 24 L 19 21 L 16 21 L 16 19 L 19 19 Z M 8 18 C 7.449219 18 7 18.445313 7 19 C 7 19.554688 7.449219 20 8 20 L 12 20 C 12 19.308594 12.085938 18.640625 12.25 18 Z"/></svg>