<svg xmlns="http://www.w3.org/2000/svg" width="500" height="500" viewBox="0 0 128 128"><path fill="#fff" d="M97,124H31c-5.5,0-10-4.5-10-10V18c0-5.5,4.5-10,10-10h66c5.5,0,10,4.5,10,10v96C107,119.5,102.5,124,97,124z"/><path fill="#444b54" d="M107.1 96.3L86.7 75.8c-1.6-1.6-3.7-2.5-6-2.5-2.3 0-4.4.9-6 2.5L49 101.6c-1 1-2.5 1-3.5 0l-8-8c-1.6-1.6-3.7-2.5-6-2.5-2.3 0-4.4.9-6 2.5l-4.7 4.7c-1.9 1.9-2.9 4.3-2.9 6.9v8.7c0 7.2 5.8 13 13 13h66c7.2 0 13-5.8 13-13v-10.8C110 100.6 109 98.1 107.1 96.3zM107 85c-1.7 0-3-1.3-3-3V61c0-1.7 1.3-3 3-3s3 1.3 3 3v21C110 83.7 108.7 85 107 85zM21 87c-1.7 0-3-1.3-3-3V18c0-7.2 5.8-13 13-13h44c1.7 0 3 1.3 3 3s-1.3 3-3 3H31c-3.9 0-7 3.1-7 7v66C24 85.7 22.7 87 21 87z"/><path fill="#444b54" d="M49.7 43.6A8.4 8.4 0 1 0 49.7 60.4A8.4 8.4 0 1 0 49.7 43.6Z"/><path fill="#1fd4af" d="M107 5A20 20 0 1 0 107 45A20 20 0 1 0 107 5Z"/><path fill="#fff" d="M114,22h-4v-4c0-1.7-1.3-3-3-3s-3,1.3-3,3v4h-4c-1.7,0-3,1.3-3,3s1.3,3,3,3h4v4c0,1.7,1.3,3,3,3s3-1.3,3-3v-4h4c1.7,0,3-1.3,3-3S115.7,22,114,22z"/></svg>