<svg xmlns="http://www.w3.org/2000/svg" width="500" height="500" viewBox="0 0 40 40"><path fill="#98ccfd" d="M1.752 20L9.5 13.113 9.5 17.5 18.5 17.5 18.5 22.5 9.5 22.5 9.5 26.887z"/><path fill="#4788c7" d="M9,14.227V17v1h1h8v4h-8H9v1v2.773L2.505,20L9,14.227 M10,12l-9,8l9,8v-5h9v-6h-9V12L10,12z"/><path fill="#b6dcfe" d="M29.5 11.5H38.5V28.5H29.5z"/><path fill="#4788c7" d="M38,12v16h-8V12H38 M39,11H29v18h10V11L39,11z"/><g><path fill="#dff0fe" d="M22.5,37.5v-35H24c3.033,0,5.5,2.468,5.5,5.5v24c0,3.032-2.467,5.5-5.5,5.5H22.5z"/><path fill="#4788c7" d="M24,3c2.757,0,5,2.243,5,5v24c0,2.757-2.243,5-5,5h-1V3H24 M24,2h-2v36h2c3.314,0,6-2.686,6-6V8 C30,4.686,27.314,2,24,2L24,2z"/></g></svg>