<svg xmlns="http://www.w3.org/2000/svg" width="300" height="300" fill="#000" viewBox="0 0 24 24"><path d="M 6 2 C 4.895 2 4 2.895 4 4 L 4 20 C 4 21.105 4.895 22 6 22 L 12.683594 22 C 12.387594 21.378 12.181078 20.707 12.080078 20 L 12.074219 20 C 12.026219 19.673 12 19.34 12 19 C 12 18.66 12.031125 18.327 12.078125 18 L 9 18 C 8.448 18 8 17.552 8 17 C 8 16.448 8.448 16 9 16 L 12.677734 16 C 13.035734 15.249 13.523328 14.574 14.111328 14 L 14.105469 14 L 9 14 C 8.448 14 8 13.552 8 13 C 8 12.448 8.448 12 9 12 L 15 12 C 15.431 12 15.791641 12.275203 15.931641 12.658203 L 16 12.683594 C 15.98 12.693594 15.962359 12.705797 15.943359 12.716797 L 15.943359 12.71875 C 16.582359 12.40775 17.271 12.183125 18 12.078125 C 18.327 12.031125 18.66 11.998047 19 11.998047 C 19.34 11.998047 19.673 12.031125 20 12.078125 L 20 8.828125 C 20 8.298125 19.789062 7.7890625 19.414062 7.4140625 L 14.585938 2.5859375 C 14.210937 2.2109375 13.701875 2 13.171875 2 L 6 2 z M 13 3.4550781 L 18.5 9 L 14 9 C 13.448 9 13 8.552 13 8 L 13 3.4550781 z M 19 14 C 16.239 14 14 16.239 14 19 C 14 21.761 16.239 24 19 24 C 21.761 24 24 21.761 24 19 C 24 16.239 21.761 14 19 14 z M 19 16 C 19.552 16 20 16.448 20 17 L 20 18 L 21 18 C 21.552 18 22 18.448 22 19 C 22 19.552 21.552 20 21 20 L 20 20 L 20 21 C 20 21.552 19.552 22 19 22 C 18.448 22 18 21.552 18 21 L 18 20 L 17 20 C 16.448 20 16 19.552 16 19 C 16 18.448 16.448 18 17 18 L 18 18 L 18 17 C 18 16.448 18.448 16 19 16 z"/></svg>