<svg xmlns="http://www.w3.org/2000/svg" width="50" height="50" fill="#000" viewBox="0 0 24 24"><path d="M 19.179688 4.015625 L 19.179688 4 L 13.15625 4 L 13.164063 4.011719 L 12.832031 6 L 11.832031 6 L 11.632813 7.195313 L 10.1875 4 L 4.167969 4 L 3 11 L 2 17 L 6 21 L 11 21 L 11.460938 18 L 12 18 L 15 21 L 20 21 L 21 8 Z M 18 5 L 17.5 8 L 15.667969 8 L 16 6 L 13.847656 6 L 14.015625 5 Z M 14.820313 7 L 14.652344 8 L 12.515625 8 L 12.679688 7 Z M 9 5 L 8.832031 6 L 4.847656 6 L 5.015625 5 Z M 4.679688 7 L 9.664063 7 L 9.332031 9 L 17.332031 9 L 16.167969 16 L 12.179688 16 L 13.015625 11 L 12 11 L 11.667969 13 L 8.667969 13 L 9 11 L 8 11 L 7.832031 12 L 5.832031 12 L 6 11 L 4.015625 11 Z M 3.847656 12 L 4.824219 12 L 4.328125 15 L 7.332031 15 L 7.164063 16 L 3.179688 16 Z M 7.5 14 L 5.507813 14 L 5.671875 13 L 7.667969 13 Z"/></svg>