<?xml version="1.0"?><svg fill="#000000" xmlns="http://www.w3.org/2000/svg" viewBox="0 0 50 50" width="100px" height="100px">    <path d="M 6.0117188 6.0039062 C 5.2107187 6.0039062 4.456625 6.3168125 3.890625 6.8828125 C 3.324625 7.4488125 3.0117188 8.2019063 3.0117188 9.0039062 L 3.0175781 42 C 3.0175781 43.103 3.9145781 44 5.0175781 44 L 30.845703 44 C 32.397025 47.52231 35.921143 50 40 50 C 45.5 50 50 45.5 50 40 C 50 37.220814 48.848388 34.699751 47.001953 32.882812 L 47.005859 15 C 47.005859 13.897 46.108859 13 45.005859 13 L 20.005859 13.003906 L 20.005859 9.0078125 C 20.005859 7.3548125 18.661812 6.0078125 17.007812 6.0078125 L 6.0136719 6.0039062 L 6.0117188 6.0039062 z M 22.005859 6.0039062 A 1 1 0 0 0 21.005859 7.0039062 A 1 1 0 0 0 22.005859 8.0039062 A 1 1 0 0 0 23.005859 7.0039062 A 1 1 0 0 0 22.005859 6.0039062 z M 26.005859 6.0039062 A 1 1 0 0 0 25.005859 7.0039062 A 1 1 0 0 0 26.005859 8.0039062 A 1 1 0 0 0 27.005859 7.0039062 A 1 1 0 0 0 26.005859 6.0039062 z M 30.005859 6.0039062 A 1 1 0 0 0 29.005859 7.0039062 A 1 1 0 0 0 30.005859 8.0039062 A 1 1 0 0 0 31.005859 7.0039062 A 1 1 0 0 0 30.005859 6.0039062 z M 34.005859 6.0039062 A 1 1 0 0 0 33.005859 7.0039062 A 1 1 0 0 0 34.005859 8.0039062 A 1 1 0 0 0 35.005859 7.0039062 A 1 1 0 0 0 34.005859 6.0039062 z M 38.005859 6.0039062 A 1 1 0 0 0 37.005859 7.0039062 A 1 1 0 0 0 38.005859 8.0039062 A 1 1 0 0 0 39.005859 7.0039062 A 1 1 0 0 0 38.005859 6.0039062 z M 42.005859 6.0039062 A 1 1 0 0 0 41.005859 7.0039062 A 1 1 0 0 0 42.005859 8.0039062 A 1 1 0 0 0 43.005859 7.0039062 A 1 1 0 0 0 42.005859 6.0039062 z M 46.005859 6.0039062 A 1 1 0 0 0 45.005859 7.0039062 A 1 1 0 0 0 46.005859 8.0039062 A 1 1 0 0 0 47.005859 7.0039062 A 1 1 0 0 0 46.005859 6.0039062 z M 46.005859 10.003906 A 1 1 0 0 0 45.005859 11.003906 A 1 1 0 0 0 46.005859 12.003906 A 1 1 0 0 0 47.005859 11.003906 A 1 1 0 0 0 46.005859 10.003906 z M 40 32 C 44.4 32 48 35.6 48 40 C 48 44.4 44.4 48 40 48 C 35.6 48 32 44.4 32 40 C 32 35.6 35.6 32 40 32 z M 40 34.099609 C 39.4 34.099609 39 34.499609 39 35.099609 L 39 39 L 35.099609 39 C 34.499609 39 34.099609 39.4 34.099609 40 C 34.099609 40.6 34.499609 41 35.099609 41 L 39 41 L 39 44.900391 C 39 45.500391 39.4 45.900391 40 45.900391 C 40.6 45.900391 41 45.500391 41 44.900391 L 41 41 L 44.900391 41 C 45.500391 41 45.900391 40.6 45.900391 40 C 45.900391 39.4 45.500391 39 44.900391 39 L 41 39 L 41 35.099609 C 41 34.499609 40.6 34.099609 40 34.099609 z"/></svg>