<svg fill="#000000" xmlns="http://www.w3.org/2000/svg" viewBox="0 0 32 32" width="50px" height="50px"><path d="M 12 2 C 8.144531 2 5 5.144531 5 9 C 5 11.410156 6.230469 13.550781 8.09375 14.8125 C 4.527344 16.34375 2 19.882813 2 24 L 4 24 C 4 19.570313 7.570313 16 12 16 C 13.375 16 14.65625 16.359375 15.78125 16.96875 C 14.671875 18.34375 14 20.101563 14 22 C 14 26.40625 17.59375 30 22 30 C 26.40625 30 30 26.40625 30 22 C 30 17.59375 26.40625 14 22 14 C 20.253906 14 18.628906 14.574219 17.3125 15.53125 C 16.898438 15.269531 16.453125 15.042969 16 14.84375 C 17.097656 14.261719 18.144531 13.523438 19.09375 12.8125 C 21.160156 11.265625 22.71875 9.71875 22.71875 9.71875 L 23.40625 9 L 22.71875 8.3125 C 22.71875 8.3125 21.207031 6.738281 19.15625 5.1875 C 17.105469 3.636719 14.546875 2 12 2 Z M 12 4 C 13.574219 4 16.019531 5.363281 17.9375 6.8125 C 19.394531 7.914063 19.988281 8.53125 20.46875 9 C 19.976563 9.472656 19.371094 10.089844 17.90625 11.1875 C 15.96875 12.640625 13.496094 14 12 14 C 9.226563 14 7 11.773438 7 9 C 7 6.226563 9.226563 4 12 4 Z M 22 16 C 25.324219 16 28 18.675781 28 22 C 28 25.324219 25.324219 28 22 28 C 18.675781 28 16 25.324219 16 22 C 16 18.675781 18.675781 16 22 16 Z M 21 18 L 21 21 L 18 21 L 18 23 L 21 23 L 21 26 L 23 26 L 23 23 L 26 23 L 26 21 L 23 21 L 23 18 Z"/></svg>