<svg fill="#000000" xmlns="http://www.w3.org/2000/svg" viewBox="0 0 80 80" width="50px" height="50px"><path d="M 54.9375 10 C 48.691406 10 43.480469 14.882813 41.3125 17.167969 C 41.035156 17.128906 40.757813 17.082031 40.476563 17.066406 C 40.269531 16.714844 39.988281 16.109375 38.875 15.21875 C 37.472656 14.097656 35.222656 13 32 13 C 25.75 13 20.425781 15.382813 16.738281 19.730469 C 13.050781 24.074219 11 30.320313 11 38 C 11 43.792969 13.019531 53.207031 13.019531 53.207031 L 13.1875 54 L 25 54 L 25 54.167969 C 23.5625 54.507813 20.363281 55.339844 17.125 56.636719 C 14.953125 57.507813 12.757813 58.585938 11.042969 59.925781 C 9.324219 61.265625 8 62.949219 8 65 L 8 70 L 49.175781 70 C 51.554688 75.855469 57.296875 80 64 80 C 72.824219 80 80 72.824219 80 64 C 80 60.515625 78.871094 57.296875 76.972656 54.667969 C 76.828125 53.074219 75.683594 51.78125 74.265625 50.691406 C 72.75 49.527344 70.816406 48.539063 68.898438 47.707031 C 65.660156 46.304688 62.921875 45.515625 62 45.253906 L 62 43.625 C 64.566406 41.925781 66.34375 39.164063 66.777344 35.960938 C 67.964844 35.902344 68.980469 34.964844 68.980469 33.75 C 68.980469 33.910156 68.984375 33.753906 69.027344 33.597656 C 69.066406 33.441406 69.132813 33.230469 69.199219 33 C 69.332031 32.546875 69.5 32.089844 69.5 31.5 C 69.5 30.953125 69.3125 30.460938 69.003906 30.058594 C 69.050781 29.832031 70 24.980469 70 22 C 70 18.964844 68.769531 16.660156 67.160156 15.183594 C 65.695313 13.835938 63.980469 13.210938 62.457031 13.09375 C 62.253906 12.8125 61.988281 12.339844 61 11.671875 C 59.738281 10.820313 57.753906 10 54.9375 10 Z M 54.9375 12 C 57.375 12 58.921875 12.679688 59.878906 13.328125 C 60.835938 13.976563 61.144531 14.515625 61.144531 14.515625 L 61.4375 15 L 62 15 C 63 15 64.574219 15.519531 65.808594 16.65625 C 67.042969 17.792969 68 19.488281 68 22 C 68 24.238281 67.339844 27.972656 67.144531 29.042969 C 67.097656 29.039063 67.050781 29.027344 67 29.027344 L 67 25.96875 C 67 23.085938 65.808594 21.128906 64.609375 19.972656 C 63.410156 18.820313 62.152344 18.394531 62.152344 18.394531 L 61.578125 18.203125 L 61.140625 18.621094 C 61.140625 18.621094 60.648438 19.109375 59.402344 19.675781 C 58.152344 20.242188 56.21875 20.828125 53.5 20.828125 C 52.164063 20.828125 50.484375 21.230469 48.921875 22.128906 C 47.445313 20.070313 45.609375 18.570313 43.550781 17.761719 C 45.921875 15.492188 50.375 12 54.9375 12 Z M 32 15 C 34.777344 15 36.527344 15.902344 37.625 16.78125 C 38.722656 17.660156 39.105469 18.449219 39.105469 18.449219 L 39.382813 19 L 40 19 C 42.925781 19 45.605469 20.652344 47.644531 23.769531 C 49.683594 26.886719 51 31.453125 51 37 C 51 44.234375 49.4375 50.921875 49.179688 52 L 39 52 L 39 50.867188 C 41.5625 48.679688 43 45.273438 43 41.515625 L 43 35.730469 C 43 32.644531 42 30.566406 40.953125 29.300781 C 39.90625 28.035156 38.75 27.53125 38.75 27.53125 L 38.144531 27.28125 L 37.671875 27.734375 C 37.671875 27.734375 37.117188 28.28125 35.746094 28.90625 C 34.375 29.535156 32.25 30.183594 29.273438 30.183594 C 27.507813 30.183594 25.523438 31.066406 23.890625 32.640625 C 22.257813 34.210938 21 36.539063 21 39.410156 L 21 41.515625 C 21 45.273438 22.4375 48.679688 25 50.867188 L 25 52 L 14.832031 52 C 14.585938 50.777344 13 42.921875 13 38 C 13 30.679688 14.949219 24.925781 18.261719 21.019531 C 21.574219 17.117188 26.25 15 32 15 Z M 40 20 C 39.449219 20 39 20.449219 39 21 C 39 21.550781 39.449219 22 40 22 C 40.550781 22 41 21.550781 41 21 C 41 20.449219 40.550781 20 40 20 Z M 61.828125 20.5 C 62.054688 20.589844 62.5 20.722656 63.222656 21.417969 C 64.109375 22.265625 65 23.617188 65 25.96875 L 65 32.214844 L 66.503906 31.328125 C 66.699219 31.21875 66.867188 31.125 67 31.054688 C 67.28125 31.097656 67.5 31.265625 67.5 31.5 C 67.5 31.515625 67.40625 32.007813 67.28125 32.4375 C 67.214844 32.65625 67.152344 32.871094 67.09375 33.074219 C 67.039063 33.277344 66.980469 33.414063 66.980469 33.75 C 66.980469 33.875 66.878906 34 66.675781 34 L 65.023438 34 L 64.980469 34.953125 C 64.789063 39.167969 61.671875 42.605469 57.589844 43.328125 L 57.308594 43.378906 L 57.09375 43.574219 C 56.796875 43.839844 56.425781 44 56 44 C 55.574219 44 55.203125 43.839844 54.90625 43.574219 L 54.691406 43.378906 L 54.410156 43.328125 C 53.8125 43.222656 53.246094 43.039063 52.695313 42.824219 C 52.878906 40.964844 53 38.988281 53 37 C 53 31.746094 51.890625 27.246094 50 23.828125 C 51.230469 23.152344 52.625 22.828125 53.5 22.828125 C 56.507813 22.828125 58.738281 22.171875 60.226563 21.5 C 61.265625 21.027344 61.496094 20.765625 61.828125 20.5 Z M 40 24 C 39.449219 24 39 24.449219 39 25 C 39 25.550781 39.449219 26 40 26 C 40.550781 26 41 25.550781 41 25 C 41 24.449219 40.550781 24 40 24 Z M 38.300781 29.648438 C 38.511719 29.757813 38.8125 29.851563 39.410156 30.574219 C 40.183594 31.511719 41 33.070313 41 35.730469 L 41 41.515625 C 41 45.179688 39.582031 48.257813 37.011719 49.96875 L 37 49.96875 L 37 49.976563 C 36.0625 50.597656 34.980469 51.042969 33.75 51.261719 L 33.464844 51.3125 L 33.25 51.503906 C 32.910156 51.816406 32.484375 52 32 52 C 31.515625 52 31.089844 51.816406 30.75 51.503906 L 30.535156 51.3125 L 30.25 51.261719 C 29.019531 51.042969 27.9375 50.597656 27 49.976563 L 27 49.96875 L 26.988281 49.96875 C 24.417969 48.257813 23 45.179688 23 41.515625 L 23 39.410156 C 23 37.117188 23.976563 35.332031 25.277344 34.078125 C 26.578125 32.828125 28.234375 32.183594 29.273438 32.183594 C 32.542969 32.183594 34.964844 31.464844 36.578125 30.730469 C 37.699219 30.214844 37.945313 29.9375 38.300781 29.648438 Z M 60.5 30 C 59.671875 30 59 30.671875 59 31.5 C 59 32.328125 59.671875 33 60.5 33 C 61.328125 33 62 32.328125 62 31.5 C 62 30.671875 61.328125 30 60.5 30 Z M 27.5 38 C 26.671875 38 26 38.671875 26 39.5 C 26 40.328125 26.671875 41 27.5 41 C 28.328125 41 29 40.328125 29 39.5 C 29 38.671875 28.328125 38 27.5 38 Z M 36.5 38 C 35.671875 38 35 38.671875 35 39.5 C 35 40.328125 35.671875 41 36.5 41 C 37.328125 41 38 40.328125 38 39.5 C 38 38.671875 37.328125 38 36.5 38 Z M 60 44.667969 L 60 48.527344 C 55.175781 49.777344 51.222656 53.207031 49.289063 57.71875 C 45.199219 55.710938 40.613281 54.539063 39 54.167969 L 39 54 L 50.78125 54 L 50.96875 53.242188 C 50.96875 53.242188 51.859375 49.652344 52.457031 44.871094 C 52.90625 45.011719 53.367188 45.132813 53.839844 45.222656 C 54.441406 45.683594 55.175781 46 56 46 C 56.835938 46 57.582031 45.675781 58.191406 45.207031 C 58.816406 45.078125 59.421875 44.894531 60 44.667969 Z M 62 47.34375 C 62.515625 47.496094 63.269531 47.738281 64.0625 48.003906 C 64.042969 48.003906 64.019531 48 64 48 C 63.320313 48 62.65625 48.054688 62 48.140625 Z M 64 50 C 71.742188 50 78 56.257813 78 64 C 78 71.742188 71.742188 78 64 78 C 56.257813 78 50 71.742188 50 64 C 50 56.257813 56.257813 50 64 50 Z M 27 52.203125 C 27.804688 52.609375 28.675781 52.925781 29.621094 53.125 C 30.273438 53.644531 31.089844 54 32 54 C 32.910156 54 33.726563 53.644531 34.378906 53.125 C 35.324219 52.925781 36.195313 52.609375 37 52.203125 L 37 55.65625 C 36.878906 55.898438 35.578125 58.402344 32 58.402344 C 28.421875 58.402344 27.121094 55.898438 27 55.65625 Z M 38.992188 56.222656 C 41 56.726563 45.171875 57.894531 48.625 59.617188 C 48.226563 61.011719 48 62.480469 48 64 C 48 65.382813 48.195313 66.71875 48.527344 68 L 10 68 L 10 65 C 10 63.828125 10.800781 62.648438 12.269531 61.5 C 13.742188 60.355469 15.796875 59.324219 17.875 58.492188 C 20.722656 57.347656 23.492188 56.601563 25.011719 56.226563 L 25.105469 56.417969 C 25.105469 56.417969 27.179688 60.402344 32 60.402344 C 36.820313 60.402344 38.894531 56.417969 38.894531 56.417969 Z M 63 57 L 63 63 L 57 63 L 57 65 L 63 65 L 63 71 L 65 71 L 65 65 L 71 65 L 71 63 L 65 63 L 65 57 Z M 14 64 C 13.449219 64 13 64.449219 13 65 C 13 65.550781 13.449219 66 14 66 C 14.550781 66 15 65.550781 15 65 C 15 64.449219 14.550781 64 14 64 Z M 18 64 C 17.449219 64 17 64.449219 17 65 C 17 65.550781 17.449219 66 18 66 C 18.550781 66 19 65.550781 19 65 C 19 64.449219 18.550781 64 18 64 Z M 22 64 C 21.449219 64 21 64.449219 21 65 C 21 65.550781 21.449219 66 22 66 C 22.550781 66 23 65.550781 23 65 C 23 64.449219 22.550781 64 22 64 Z M 26 64 C 25.449219 64 25 64.449219 25 65 C 25 65.550781 25.449219 66 26 66 C 26.550781 66 27 65.550781 27 65 C 27 64.449219 26.550781 64 26 64 Z M 30 64 C 29.449219 64 29 64.449219 29 65 C 29 65.550781 29.449219 66 30 66 C 30.550781 66 31 65.550781 31 65 C 31 64.449219 30.550781 64 30 64 Z M 34 64 C 33.449219 64 33 64.449219 33 65 C 33 65.550781 33.449219 66 34 66 C 34.550781 66 35 65.550781 35 65 C 35 64.449219 34.550781 64 34 64 Z M 38 64 C 37.449219 64 37 64.449219 37 65 C 37 65.550781 37.449219 66 38 66 C 38.550781 66 39 65.550781 39 65 C 39 64.449219 38.550781 64 38 64 Z M 42 64 C 41.449219 64 41 64.449219 41 65 C 41 65.550781 41.449219 66 42 66 C 42.550781 66 43 65.550781 43 65 C 43 64.449219 42.550781 64 42 64 Z M 46 64 C 45.449219 64 45 64.449219 45 65 C 45 65.550781 45.449219 66 46 66 C 46.550781 66 47 65.550781 47 65 C 47 64.449219 46.550781 64 46 64 Z"/></svg>