<?xml version="1.0"?><svg fill="#000000" xmlns="http://www.w3.org/2000/svg" viewBox="0 0 24 24" width="100px" height="100px">    <path d="M 10 3 C 9.397 3 8.8566719 3.3696406 8.6386719 3.9316406 L 2.4941406 19.730469 C 2.2561406 20.341469 2.7063281 21 3.3613281 21 C 3.7453281 21 4.0904688 20.76425 4.2304688 20.40625 L 6.3320312 15 L 13.259766 15 C 13.730766 14.325 14.318188 13.737625 14.992188 13.265625 L 11.361328 3.9316406 C 11.143328 3.3696406 10.603 3 10 3 z M 10 5.5703125 L 12.888672 13 L 7.1113281 13 L 10 5.5703125 z M 19 14 C 16.239 14 14 16.239 14 19 C 14 21.761 16.239 24 19 24 C 21.761 24 24 21.761 24 19 C 24 16.239 21.761 14 19 14 z M 19 16 C 19.552 16 20 16.448 20 17 L 20 18 L 21 18 C 21.552 18 22 18.448 22 19 C 22 19.552 21.552 20 21 20 L 20 20 L 20 21 C 20 21.552 19.552 22 19 22 C 18.448 22 18 21.552 18 21 L 18 20 L 17 20 C 16.448 20 16 19.552 16 19 C 16 18.448 16.448 18 17 18 L 18 18 L 18 17 C 18 16.448 18.448 16 19 16 z"/></svg>