<svg xmlns="http://www.w3.org/2000/svg" viewBox="0 0 128 128" width="100px" height="100px"><path fill="#fff" d="M78.5,17H96c5.5,0,10,4.5,10,10v87c0,2.8-2.2,5-5,5H32c-5.5,0-10-4.5-10-10V27c0-5.5,4.5-10,10-10h6.5"/><path fill="#444b54" d="M76 122H32c-7.2 0-13-5.8-13-13V27c0-7.2 5.8-13 13-13h5c1.7 0 3 1.3 3 3s-1.3 3-3 3h-5c-3.9 0-7 3.1-7 7v82c0 3.9 3.1 7 7 7h44c1.7 0 3 1.3 3 3S77.7 122 76 122zM106 70c-1.7 0-3-1.3-3-3V27c0-3.9-3.1-7-7-7h-5.5c-1.7 0-3-1.3-3-3s1.3-3 3-3H96c7.2 0 13 5.8 13 13v40C109 68.7 107.7 70 106 70z"/><path fill="#fff" d="M72,23.5H56c-3.9,0-7-3.1-7-7v0c0-3.9,3.1-7,7-7h16c3.9,0,7,3.1,7,7v0C79,20.4,75.9,23.5,72,23.5z"/><path fill="#444b54" d="M72,26.5H56c-5.5,0-10-4.5-10-10s4.5-10,10-10h16c5.5,0,10,4.5,10,10S77.5,26.5,72,26.5z M56,12.5c-2.2,0-4,1.8-4,4s1.8,4,4,4h16c2.2,0,4-1.8,4-4s-1.8-4-4-4H56z"/><path fill="#1fd4af" d="M106 82A20 20 0 1 0 106 122A20 20 0 1 0 106 82Z" transform="rotate(-45.001 106 102.002)"/><path fill="#fff" d="M112.9,105h-14c-1.7,0-3-1.3-3-3s1.3-3,3-3h14c1.7,0,3,1.3,3,3S114.6,105,112.9,105z"/><path fill="#fff" d="M105.9,112c-1.7,0-3-1.3-3-3V95c0-1.7,1.3-3,3-3s3,1.3,3,3v14C108.9,110.7,107.6,112,105.9,112z"/></svg>