<svg xmlns="http://www.w3.org/2000/svg" viewBox="0 0 100 100" width="50px" height="50px"><path fill="#f1bc19" d="M77 12A1 1 0 1 0 77 14A1 1 0 1 0 77 12Z"/><path fill="#e6edb7" d="M50 13A37 37 0 1 0 50 87A37 37 0 1 0 50 13Z"/><path fill="#f1bc19" d="M83 11A4 4 0 1 0 83 19A4 4 0 1 0 83 11Z"/><path fill="#88ae45" d="M87 22A2 2 0 1 0 87 26A2 2 0 1 0 87 22Z"/><path fill="#fbcd59" d="M81 74A2 2 0 1 0 81 78 2 2 0 1 0 81 74zM15 59A4 4 0 1 0 15 67 4 4 0 1 0 15 59z"/><path fill="#88ae45" d="M25 85A2 2 0 1 0 25 89A2 2 0 1 0 25 85Z"/><path fill="#fff" d="M18.5 49A2.5 2.5 0 1 0 18.5 54 2.5 2.5 0 1 0 18.5 49zM79.5 32A1.5 1.5 0 1 0 79.5 35 1.5 1.5 0 1 0 79.5 32z"/><g><path fill="#fabf82" d="M76.227,58.308c-0.297-1.574-0.939-2.497-2.452-2.953c-0.066-0.02-0.154-0.052-0.253-0.09 c-0.115-0.05-0.26-0.108-0.43-0.175c-0.917-0.388-6.363-2.397-6.363-2.397c-0.449-0.114-0.741-0.434-0.91-0.794 c-0.279-0.595-0.171-2.138-0.171-2.138s-2.278,0.779-3.698,1.045c-1.394,0.136-4.39-1.667-4.39-1.667s-0.07,2.228-0.165,2.723 c-0.075,0.389-0.493,0.717-0.942,0.831l-5.226,1.895c-0.578,0.151-1.133,0.367-1.621,0.668c-1.315,0.812-1.982,2.031-2.32,3.052 c0,0-0.344,2.433-0.33,2.52c-0.033,0.341-0.066,0.715-0.1,1.109c5.696,3.857,10.271,4.937,18.121,4.594 c3.567-0.156,8.877-1.917,11.659-3.321C76.487,60.111,76.227,58.308,76.227,58.308z"/><path fill="#ee3e54" d="M73.775,55.384c-0.066-0.02-0.154-0.052-0.253-0.09c-0.115-0.05-0.26-0.108-0.43-0.175 c-0.567-0.24-2.865-1.099-4.537-1.721l-0.079-0.021c-1.846,0.946-4.472,2.367-6.884,2.367c-2.412,0-4.831-1.284-6.885-2.367 l-0.23,0.061l-3.251,1.179c-0.578,0.151-1.133,0.367-1.621,0.668c-1.315,0.812-1.982,2.031-2.32,3.052c0,0-0.344,2.433-0.33,2.52 c-0.033,0.341-0.066,3.994-0.1,4.388c5.696,3.857,10.271,4.937,18.121,4.594c3.567-0.156,8.877-1.917,11.659-3.321 c-0.147-3.099-0.407-8.181-0.407-8.181C75.93,56.763,75.288,55.841,73.775,55.384z"/><path fill="#fddbbc" d="M70.575,38.847c-0.086-0.006-0.173-0.007-0.264-0.007c-0.708-0.034-0.91,0.248-0.878-0.19 c0.057-0.778-0.051-3.933-0.051-4.092c0-3.269-3.413-5.936-7.679-6.084v-0.01c-0.029,0.001-0.057,0.004-0.086,0.005 c-0.029-0.001-0.057-0.004-0.086-0.005v0.01c-4.265,0.148-7.679,2.814-7.679,6.084c0,0.159-0.108,3.314-0.051,4.092 c0.032,0.438-0.169,0.156-0.878,0.19c-0.091,0-0.178,0.001-0.264,0.007c-0.776,0.052-1.404,0.546-1.538,1.157 c0.095,0.058,0.449,2.737,1.021,3.793c0.32,0.589,0.819,0.671,1.331,1.052c0.284,0.211,0.339,0.449,0.416,0.764 c0.288,1.167,1.086,2.158,1.962,3.005c0.432,0.418,3.3,3.476,5.765,3.321c2.476-0.093,5.333-2.903,5.765-3.321 c0.876-0.847,1.674-1.838,1.962-3.005c0.078-0.315,0.132-0.553,0.416-0.764c0.513-0.38,1.012-0.462,1.331-1.052 c0.572-1.056,0.926-3.735,1.021-3.793C71.98,39.392,71.352,38.898,70.575,38.847z"/><path fill="#512c2b" d="M61.662 44.025c.501 0 .987-.219 1.299-.585.031-.037.027-.092-.009-.124l0 0c-.037-.031-.092-.028-.124.009-.255.291-.68.458-1.166.458-.486 0-.911-.167-1.166-.458-.017-.02-.042-.03-.066-.03-.02 0-.041.007-.058.021-.037.032-.041.087-.009.124C60.676 43.807 61.161 44.025 61.662 44.025zM60.064 37.257l.318-.61c-1.344-.315-2.891-.265-4.168.132l.401.595C57.664 37.026 58.955 36.982 60.064 37.257zM66.793 37.257l.318-.61c-1.344-.315-2.891-.265-4.168.132l.401.595C64.393 37.026 65.684 36.982 66.793 37.257zM58.13 38.118c-.323 0-.606.214-.77.536.041-.013.083-.022.127-.022.265 0 .479.24.479.535 0 .296-.215.535-.479.535-.087 0-.167-.028-.237-.073.113.485.464.838.879.838.507 0 .918-.526.918-1.175C59.048 38.645 58.637 38.118 58.13 38.118zM65.156 38.118c-.276 0-.522.156-.69.402.053-.022.109-.036.169-.036.265 0 .479.24.479.535 0 .296-.215.535-.479.535-.164 0-.309-.092-.395-.233.012.636.417 1.147.917 1.147.507 0 .918-.526.918-1.175C66.074 38.645 65.663 38.118 65.156 38.118zM65.545 45.387c.037-.031.043-.086.013-.124l0 0c-.03-.038-.086-.044-.124-.013-.828.66-2.203 1.038-3.772 1.038-1.569 0-2.944-.379-3.772-1.039-.016-.013-.036-.019-.055-.019-.026 0-.051.011-.069.033-.03.038-.025.093.013.124.935.764 2.386 1.22 3.883 1.22C63.159 46.607 64.611 46.151 65.545 45.387zM62.687 49.254c.045 0 .084-.053.084-.115s-.038-.115-.084-.115h-1.886c-.045 0-.084.053-.084.115s.038.115.084.115H62.687z"/><path fill="#472b29" d="M62.435,70.499c-6.564,0-10.801-1.313-15.861-4.738c-0.15-0.102-0.233-0.276-0.218-0.457 c0.006-0.077,0.009-0.342,0.015-0.724c0.024-1.607,0.073-4.952,0.431-6.272c0.492-1.816,1.211-2.526,2.54-3.348 c0.498-0.307,1.088-0.551,1.756-0.726l5.183-1.881c0.355-0.094,0.593-0.306,0.621-0.455c0.016-0.083,0.057-0.382,0.106-1.404 c-0.733-0.521-1.328-0.987-1.506-1.161c-1.164-1.139-1.831-2.18-2.099-3.278c-0.074-0.306-0.101-0.394-0.23-0.49 c-0.147-0.111-0.294-0.192-0.434-0.271c-0.353-0.199-0.753-0.426-1.038-0.956c-0.635-1.185-1.08-3.35-1.08-4.072 c0-0.035,0.004-0.071,0.011-0.105c0.185-0.854,1.004-1.497,1.993-1.564c0.097-0.007,0.195-0.008,0.298-0.008 c0.137-0.007,0.258-0.001,0.366,0.007c-0.018-0.924,0.03-2.654,0.053-3.459l0.01-0.378c0-3.544,3.534-6.45,8.063-6.648 c0.037-0.009,0.076-0.014,0.115-0.014c0.008,0,0.096,0.005,0.104,0.005c0.028,0,0.057,0.003,0.085,0.007v-0.002 c4.576,0.16,8.161,3.083,8.161,6.652l0.01,0.38c0.023,0.813,0.072,2.575,0.054,3.458c0.119-0.01,0.244-0.015,0.389-0.007 c0.083-0.004,0.178,0,0.274,0.007c0.989,0.067,1.809,0.711,1.993,1.564c0.007,0.034,0.011,0.07,0.011,0.105 c0,0.809-0.464,2.921-1.08,4.072c-0.285,0.53-0.685,0.757-1.039,0.956c-0.14,0.079-0.287,0.16-0.434,0.271 c-0.129,0.097-0.155,0.184-0.226,0.472c-0.272,1.117-0.939,2.158-2.103,3.297c-0.18,0.176-0.798,0.685-1.605,1.27 c0.002,0.668,0.073,1.063,0.144,1.215c0.132,0.281,0.328,0.457,0.581,0.521c0.272,0.098,5.518,2.033,6.435,2.421 c0.163,0.063,0.314,0.124,0.434,0.176c0.064,0.024,0.14,0.053,0.196,0.069c1.614,0.488,2.451,1.486,2.801,3.341 c0.004,0.022,0.007,0.045,0.008,0.067c0,0,0.26,5.082,0.407,8.183c0.009,0.197-0.098,0.381-0.274,0.47 c-2.978,1.504-8.36,3.221-11.862,3.375C64.104,70.479,63.251,70.499,62.435,70.499z M47.363,65.086 c5.382,3.591,9.865,4.699,17.59,4.354c3.259-0.143,8.232-1.704,11.166-3.124c-0.142-2.961-0.367-7.386-0.389-7.818 c-0.284-1.471-0.855-2.159-2.099-2.535c-0.073-0.021-0.173-0.058-0.288-0.102c-0.13-0.056-0.269-0.111-0.431-0.174 c-0.911-0.385-6.302-2.375-6.356-2.396c-0.492-0.122-0.932-0.501-1.19-1.051c-0.175-0.373-0.254-1.015-0.236-1.906 c0.003-0.158,0.081-0.306,0.21-0.397c0.884-0.63,1.549-1.179,1.693-1.319c1.024-1.002,1.604-1.892,1.826-2.8 c0.087-0.357,0.181-0.738,0.603-1.055c0.185-0.138,0.367-0.242,0.542-0.342c0.302-0.17,0.501-0.282,0.649-0.558 c0.53-0.989,0.937-2.882,0.96-3.543c-0.113-0.391-0.554-0.693-1.071-0.729c-0.075-0.005-0.151-0.006-0.23-0.006 c-0.234-0.011-0.387,0.013-0.51,0.033c-0.19,0.03-0.449,0.07-0.67-0.131c-0.227-0.209-0.205-0.504-0.196-0.63 c0.044-0.609-0.019-2.851-0.043-3.694c-0.006-0.227-0.01-0.376-0.01-0.408c0-3.028-3.161-5.512-7.196-5.652 c-0.021-0.001-0.041-0.003-0.061-0.006c-0.01,0-0.018,0.001-0.022,0.001c-0.018,0.002-0.036,0.004-0.054,0.005 c-4.035,0.141-7.196,2.624-7.196,5.652c0,0.032-0.004,0.181-0.01,0.406c-0.024,0.844-0.086,3.086-0.042,3.696 c0.009,0.126,0.031,0.421-0.196,0.63c-0.221,0.201-0.481,0.162-0.67,0.131c-0.124-0.02-0.276-0.043-0.486-0.034 c-0.103,0.001-0.179,0.002-0.254,0.007c-0.517,0.035-0.958,0.338-1.071,0.729c0.024,0.669,0.45,2.59,0.96,3.543 c0.147,0.275,0.347,0.388,0.648,0.558c0.175,0.1,0.357,0.204,0.542,0.342c0.422,0.317,0.516,0.7,0.598,1.038 c0.225,0.925,0.806,1.814,1.83,2.816c0.114,0.111,0.721,0.598,1.605,1.215c0.141,0.099,0.221,0.262,0.213,0.433 c-0.065,1.451-0.118,1.729-0.136,1.821c-0.123,0.645-0.747,1.077-1.31,1.221l-5.18,1.88c-0.616,0.164-1.115,0.369-1.529,0.624 c-1.199,0.74-1.696,1.269-2.1,2.758c-0.325,1.199-0.375,4.581-0.396,6.025C47.369,64.789,47.366,64.955,47.363,65.086z"/><path fill="#895d3d" d="M70.701 42.437l-.597-.066.132-1.169-.615.267-.238-.551 1.09-.473c.097-.042.211-.03.297.034.086.063.132.168.12.274L70.701 42.437zM52.774 42.185l-.189-1.683c-.012-.106.034-.211.12-.274.085-.064.199-.078.297-.034l1.09.473-.238.551-.615-.267.132 1.168L52.774 42.185z"/><path fill="#472b29" d="M53.836 45.488c-.001 0-.002 0-.004 0-.11-.002-.198-.094-.196-.204l.121-6.344c.002-.109.091-.196.2-.196.001 0 .002 0 .004 0 .11.002.198.094.196.204l-.121 6.344C54.034 45.401 53.945 45.488 53.836 45.488zM69.521 45.488c-.109 0-.198-.087-.2-.196l-.121-6.344c-.002-.11.086-.202.196-.204.001 0 .003 0 .004 0 .109 0 .198.087.2.196l.121 6.344c.002.11-.086.202-.196.204C69.524 45.488 69.522 45.488 69.521 45.488z"/><g><path fill="#472b29" d="M61.703,52.188c-1.582,0-4.222-1.928-4.338-2.014c-0.111-0.082-0.135-0.238-0.053-0.35 s0.24-0.134,0.349-0.053c0.781,0.573,3.048,2.021,4.179,1.909c1.388-0.158,3.624-1.733,3.646-1.749 c0.112-0.08,0.269-0.053,0.349,0.06c0.08,0.112,0.053,0.269-0.06,0.349c-0.096,0.067-2.364,1.665-3.879,1.837 C61.834,52.185,61.77,52.188,61.703,52.188z"/></g><g><path fill="#512c2b" d="M52.591,31.332c0.259-0.696,1.166-0.75,1.166-0.75s-0.775-0.987-0.516-1.438 c0.258-0.451,3.032-3.648,9.773-2.94c6.741,0.708,7.577,5.088,7.577,5.088l-1.372,8.001c0,0-2.689-7.937-13.557-6.437 c0,0,0.473,1.009-1.823,5.018L52.591,31.332L52.591,31.332z"/></g></g><g><path fill="#fabf82" d="M52.599,58.936c-0.293-1.552-0.926-2.461-2.417-2.912c-0.065-0.02-0.152-0.051-0.25-0.089 c-0.113-0.049-0.256-0.107-0.424-0.172c-0.904-0.382-6.274-2.363-6.274-2.363c-0.443-0.112-0.731-0.428-0.897-0.783 c-0.275-0.587-0.169-2.108-0.169-2.108s-2.245,0.768-3.646,1.03c-1.374,0.134-4.328-1.643-4.328-1.643s-0.069,2.197-0.163,2.685 c-0.073,0.383-0.486,0.707-0.929,0.819l-5.153,1.868c-0.57,0.149-1.117,0.362-1.598,0.659c-1.297,0.8-1.954,2.003-2.288,3.009 c0,0-0.339,2.399-0.326,2.485c-0.032,0.336-0.065,0.705-0.099,1.093c5.616,3.803,10.127,4.868,17.866,4.529 c3.516-0.154,8.752-1.89,11.494-3.274C52.855,60.713,52.599,58.936,52.599,58.936z"/><path fill="#88cdd7" d="M50.182,56.053c-0.065-0.02-0.152-0.051-0.25-0.089c-0.113-0.049-0.256-0.107-0.424-0.172 c-0.559-0.236-2.825-1.084-4.473-1.696l-0.078-0.02c-1.82,0.933-4.409,2.334-6.787,2.334c-2.378,0-4.763-1.266-6.788-2.334 l-0.227,0.06l-3.205,1.162c-0.57,0.149-1.117,0.362-1.598,0.659c-1.297,0.8-1.954,2.003-2.288,3.009c0,0-0.339,2.399-0.326,2.485 c-0.032,0.336-0.065,3.938-0.099,4.326c5.616,3.803,10.127,4.868,17.866,4.529c3.516-0.154,8.752-1.89,11.494-3.274 c-0.145-3.055-0.401-8.065-0.401-8.065C52.306,57.413,51.673,56.503,50.182,56.053z"/><path fill="#be7841" d="M30.351,41.51c-0.115-0.253-2.803-6.252-0.751-10.35c0.854-1.705,2.394-2.822,4.581-3.323 c1.261-0.862,2.771-1.337,4.263-1.337c1.26,0,2.483,0.326,3.636,0.969c0.601,0.335,1.086,0.617,1.494,0.854 c1.3,0.756,1.692,0.983,2.423,0.983c0.082,0,0.168-0.003,0.259-0.008c0.205-0.014,0.315-0.02,0.418-0.02 c0.811,0,0.996,0.484,1.034,0.774c0.105,0.791-0.167,1.461-0.407,2.051c-0.201,0.493-0.374,0.92-0.265,1.277 c1.347,4.424-0.744,8.024-0.833,8.176l-0.941,1.587l0.011-1.845c0-0.035,0.01-3.241-0.729-5.382 c-1.019,0.535-2.237,0.815-3.56,0.815c-2.349,0-4.941-0.846-7.514-2.45c-2.166,1.815-2.164,6.963-2.163,7.017l0.013,2.335 L30.351,41.51z"/><path fill="#472b29" d="M38.443,27c1.094,0,2.249,0.268,3.392,0.905c2.557,1.426,3.031,1.902,4.16,1.902 c0.091,0,0.187-0.003,0.288-0.009c0.133-0.008,0.267-0.02,0.391-0.02c0.277,0,0.5,0.058,0.537,0.34 c0.177,1.332-0.974,2.363-0.655,3.408c1.299,4.264-0.785,7.775-0.785,7.775s0.025-3.893-0.979-6.111 c-1.036,0.684-2.337,1.042-3.809,1.042c-2.226,0-4.845-0.817-7.537-2.556c-2.672,1.778-2.64,7.625-2.64,7.625 s-5.06-11.11,3.579-12.999C35.483,27.53,36.903,27,38.443,27 M38.444,26l0,1L38.444,26c-1.561,0-3.139,0.485-4.467,1.371 c-2.291,0.546-3.914,1.745-4.825,3.565c-2.157,4.309,0.624,10.519,0.744,10.781l1.928,4.233l-0.018-4.653 c-0.005-1.343,0.31-4.85,1.73-6.387c2.545,1.522,5.107,2.323,7.448,2.323c1.178,0,2.282-0.211,3.251-0.618 c0.545,2.015,0.538,4.65,0.537,4.681l-0.021,3.686l1.881-3.17c0.094-0.159,2.292-3.944,0.881-8.577 c-0.057-0.188,0.092-0.554,0.25-0.942c0.251-0.616,0.563-1.383,0.44-2.306c-0.077-0.584-0.52-1.208-1.529-1.208 c-0.115,0-0.237,0.007-0.36,0.016l-0.09,0.006c-0.08,0.004-0.156,0.007-0.229,0.007c-0.575,0-0.87-0.16-2.169-0.916 c-0.41-0.238-0.899-0.523-1.504-0.86C41.095,26.347,39.79,26,38.444,26L38.444,26z"/><path fill="#00a5a5" d="M28.572 68.919c-.166 0-.3-.134-.3-.3v-2.857c0-.166.134-.3.3-.3s.3.134.3.3v2.857C28.872 68.785 28.737 68.919 28.572 68.919zM47.616 69.421c-.166 0-.3-.134-.3-.3v-3.359c0-.166.134-.3.3-.3s.3.134.3.3v3.359C47.916 69.287 47.781 69.421 47.616 69.421z"/><path fill="#fddbbc" d="M47.027,39.748c-0.085-0.006-0.171-0.007-0.26-0.007c-0.698-0.034-0.639,0.23-0.607-0.202 c0.056-0.767-0.309-3.862-0.309-4.019c0-3.223-3.365-5.852-7.571-5.998v-0.01c-0.029,0.001-0.056,0.004-0.085,0.005 c-0.028-0.001-0.056-0.004-0.085-0.005v0.01c-4.205,0.146-7.571,2.775-7.571,5.998c0,0.157-0.107,3.268-0.051,4.035 c0.032,0.432-0.167,0.153-0.865,0.187c-0.089,0-0.176,0.001-0.26,0.007c-0.765,0.051-1.385,0.538-1.517,1.141 c0.094,0.057,0.442,2.699,1.006,3.74c0.315,0.581,0.807,0.662,1.313,1.037c0.28,0.208,0.334,0.442,0.411,0.753 c0.284,1.15,1.071,2.128,1.934,2.963c0.426,0.412,3.254,3.427,5.684,3.274c2.441-0.092,5.258-2.862,5.684-3.274 c0.863-0.835,1.651-1.812,1.934-2.963c0.077-0.311,0.13-0.545,0.411-0.753c0.506-0.375,0.998-0.456,1.313-1.037 c0.564-1.041,0.913-3.682,1.006-3.74C48.412,40.287,47.792,39.8,47.027,39.748z"/><path fill="#512c2b" d="M38.24 44.854c.494 0 .973-.216 1.281-.577.031-.036.027-.091-.009-.122l0 0c-.036-.031-.091-.028-.122.009-.251.287-.67.452-1.149.452-.479 0-.898-.165-1.149-.452-.017-.02-.041-.03-.066-.03-.02 0-.04.007-.057.021-.036.031-.04.086-.009.122C37.267 44.639 37.746 44.854 38.24 44.854zM36.664 38.181l.313-.602c-1.325-.31-2.851-.261-4.11.13l.395.587C34.297 37.954 35.57 37.911 36.664 38.181zM43.298 38.181l.313-.602c-1.325-.31-2.85-.261-4.11.13l.395.587C40.932 37.954 42.204 37.911 43.298 38.181zM34.757 39.031c-.318 0-.598.211-.759.528.04-.012.082-.021.126-.021.261 0 .473.236.473.528s-.212.528-.473.528c-.085 0-.165-.027-.234-.072.112.478.457.826.867.826.5 0 .905-.519.905-1.159C35.662 39.549 35.257 39.031 34.757 39.031zM41.684 39.031c-.272 0-.515.154-.681.396.052-.022.107-.035.166-.035.261 0 .473.236.473.528 0 .291-.212.528-.473.528-.162 0-.305-.091-.39-.23.012.627.412 1.131.904 1.131.5 0 .905-.519.905-1.159C42.589 39.549 42.184 39.031 41.684 39.031zM42.068 46.197c.037-.03.043-.085.013-.122l0 0c-.03-.037-.085-.043-.122-.013-.816.651-2.172 1.024-3.719 1.024-1.547 0-2.903-.373-3.719-1.024-.016-.013-.035-.019-.054-.019-.025 0-.051.011-.068.032-.03.037-.024.092.013.122.922.753 2.353 1.203 3.828 1.203C39.715 47.4 41.146 46.95 42.068 46.197zM39.25 50.009c.045 0 .083-.052.083-.114s-.038-.114-.083-.114h-1.86c-.045 0-.083.052-.083.114s.038.114.083.114H39.25z"/><path fill="#472b29" d="M39.001,70.962c-6.474,0-10.652-1.294-15.642-4.673c-0.15-0.102-0.233-0.276-0.218-0.457 c0.006-0.076,0.009-0.336,0.015-0.713c0.023-1.585,0.072-4.883,0.425-6.186c0.486-1.793,1.196-2.494,2.508-3.305 c0.492-0.303,1.075-0.543,1.733-0.716l5.109-1.854c0.348-0.091,0.58-0.298,0.608-0.443c0.016-0.082,0.056-0.377,0.104-1.379 c-0.724-0.515-1.31-0.975-1.483-1.146c-1.147-1.121-1.806-2.149-2.07-3.234c-0.074-0.305-0.098-0.385-0.226-0.48 c-0.144-0.107-0.288-0.188-0.425-0.266c-0.35-0.197-0.746-0.421-1.027-0.946c-0.626-1.167-1.065-3.304-1.065-4.018 c0-0.035,0.004-0.071,0.011-0.105c0.183-0.845,0.993-1.481,1.972-1.548c0.095-0.007,0.192-0.008,0.293-0.008 c0.13-0.006,0.249-0.004,0.354,0.006c-0.017-0.912,0.03-2.61,0.053-3.401l0.01-0.374c0-3.498,3.489-6.366,7.959-6.562 c0.042-0.01,0.084-0.015,0.128-0.014c0.003-0.002,0.094-0.001,0.125,0c0.038,0.002,0.02,0,0.027,0c0.04,0,0.08,0.005,0.118,0.014 c4.468,0.197,7.953,3.064,7.953,6.562c0.003,0.047,0.026,0.252,0.057,0.538c0.135,1.24,0.276,2.602,0.255,3.226 c0.01,0.001,0.02,0.001,0.03,0.002c0.174,0.004,0.272,0.005,0.368,0.012c0.978,0.066,1.788,0.703,1.971,1.548 c0.007,0.034,0.011,0.07,0.011,0.105c0,0.799-0.458,2.884-1.066,4.018c-0.281,0.525-0.677,0.749-1.027,0.946 c-0.137,0.078-0.281,0.158-0.426,0.267c-0.126,0.095-0.15,0.175-0.221,0.464c-0.269,1.101-0.927,2.129-2.075,3.251 c-0.175,0.171-0.783,0.672-1.58,1.25c0.002,0.656,0.072,1.043,0.141,1.19c0.129,0.277,0.32,0.448,0.568,0.512 c0.27,0.097,5.441,2.005,6.345,2.387c0.161,0.063,0.31,0.123,0.427,0.174c0.067,0.025,0.142,0.053,0.197,0.069 c1.591,0.48,2.418,1.467,2.764,3.298c0.004,0.022,0.007,0.045,0.008,0.067c0,0,0.256,5.011,0.401,8.067 c0.009,0.196-0.098,0.381-0.274,0.47c-2.936,1.482-8.243,3.176-11.698,3.328C40.646,70.942,39.806,70.962,39.001,70.962z M24.149,65.614c5.302,3.538,9.716,4.625,17.334,4.29c3.212-0.141,8.11-1.678,11.001-3.077c-0.14-2.918-0.361-7.273-0.383-7.703 c-0.279-1.447-0.841-2.124-2.064-2.493c-0.074-0.022-0.174-0.058-0.286-0.102c-0.126-0.054-0.264-0.109-0.425-0.172 c-0.896-0.378-6.211-2.34-6.265-2.36c-0.486-0.12-0.922-0.495-1.177-1.04c-0.172-0.367-0.251-1.001-0.234-1.883 c0.003-0.158,0.081-0.306,0.21-0.397c0.875-0.623,1.528-1.162,1.668-1.3c1.009-0.986,1.581-1.862,1.799-2.757 c0.085-0.35,0.177-0.729,0.596-1.043c0.183-0.137,0.363-0.24,0.535-0.338c0.297-0.167,0.493-0.277,0.637-0.548 c0.522-0.973,0.923-2.836,0.946-3.488c-0.111-0.382-0.543-0.678-1.049-0.712c-0.074-0.005-0.149-0.006-0.227-0.006 c-0.008,0-0.113-0.005-0.121-0.005c-0.408-0.02-0.655-0.031-0.848-0.252c-0.181-0.206-0.161-0.443-0.144-0.635 c0.045-0.619-0.147-2.384-0.24-3.231c-0.039-0.354-0.063-0.602-0.063-0.646c0-2.981-3.114-5.427-7.088-5.565 c-0.02-0.001-0.04-0.003-0.059-0.006c-0.009,0-0.017,0.001-0.021,0.001c-0.018,0.002-0.036,0.004-0.054,0.005 c-3.975,0.139-7.088,2.584-7.088,5.565c0,0.032-0.004,0.18-0.01,0.402c-0.023,0.831-0.085,3.041-0.042,3.642 c0.009,0.126,0.031,0.42-0.196,0.627c-0.219,0.203-0.488,0.16-0.666,0.132c-0.122-0.02-0.273-0.043-0.478-0.034 c-0.102,0.001-0.176,0.002-0.25,0.007c-0.507,0.034-0.939,0.33-1.05,0.712c0.024,0.661,0.443,2.551,0.946,3.488 c0.145,0.271,0.341,0.381,0.638,0.548c0.172,0.098,0.353,0.201,0.534,0.337c0.419,0.315,0.512,0.694,0.593,1.028 c0.222,0.91,0.793,1.786,1.802,2.772c0.112,0.11,0.708,0.589,1.582,1.198c0.141,0.099,0.221,0.262,0.213,0.433 c-0.064,1.428-0.117,1.704-0.134,1.795c-0.123,0.64-0.74,1.068-1.297,1.21l-5.105,1.854c-0.607,0.162-1.099,0.363-1.506,0.614 c-1.18,0.729-1.67,1.249-2.068,2.715c-0.32,1.182-0.369,4.515-0.39,5.938C24.154,65.323,24.151,65.485,24.149,65.614z"/><path fill="#895d3d" d="M47.155 43.288l-.597-.066.129-1.145-.6.26-.238-.551 1.075-.466c.098-.043.211-.03.297.034.086.063.132.168.12.274L47.155 43.288zM29.472 43.04l-.187-1.659c-.012-.106.034-.211.12-.274.086-.065.199-.077.297-.034l1.075.466-.238.551-.6-.26.129 1.145L29.472 43.04z"/><path fill="#472b29" d="M30.523 46.3c-.001 0-.002 0-.004 0-.11-.002-.198-.094-.196-.204l.119-6.255c.002-.109.091-.196.2-.196.001 0 .002 0 .004 0 .11.002.198.094.196.204l-.119 6.255C30.721 46.213 30.632 46.3 30.523 46.3zM45.988 46.3c-.109 0-.198-.087-.2-.196l-.119-6.255c-.002-.11.086-.202.196-.204.001 0 .003 0 .004 0 .109 0 .198.087.2.196l.119 6.255c.002.11-.086.202-.196.204C45.99 46.3 45.989 46.3 45.988 46.3zM38.279 52.905c-1.561 0-4.165-1.901-4.279-1.986-.111-.082-.135-.238-.053-.35.082-.11.24-.133.349-.053.77.565 3.015 2.001 4.118 1.882 1.369-.155 3.572-1.708 3.594-1.724.112-.08.269-.053.349.06.08.112.053.269-.06.349-.094.066-2.332 1.643-3.826 1.812C38.409 52.902 38.345 52.905 38.279 52.905z"/><path fill="#be7841" d="M47.212,30.164c-0.054-0.408-0.494-0.347-0.928-0.321c-1.354,0.08-1.685-0.352-4.448-1.893 c-2.754-1.536-5.573-0.924-7.451,0.399c-8.64,1.889-3.579,12.999-3.579,12.999s-0.032-5.848,2.64-7.626 c4.474,2.89,8.744,3.233,11.347,1.515c1.004,2.219,0.979,6.111,0.979,6.111s2.083-3.511,0.785-7.776 C46.238,32.527,47.389,31.496,47.212,30.164L47.212,30.164z"/><g><path fill="#472b29" d="M46.161,41.318l-0.5-0.004c0-0.036,0.012-3.568-0.862-5.745c-2.855,1.659-7.186,1.065-11.427-1.579 c-2.443,1.785-2.444,7.269-2.444,7.325l-0.5,0.002c-0.001-0.244-0.001-6.005,2.801-7.836c0.082-0.054,0.188-0.056,0.271-0.002 c4.245,2.695,8.567,3.274,11.278,1.516c0.062-0.038,0.138-0.052,0.206-0.03c0.07,0.021,0.127,0.069,0.158,0.136 C46.175,37.344,46.162,41.157,46.161,41.318z"/></g></g><g><path fill="#fdfcee" d="M69.603 58.422A14.432 14.432 0 1 0 69.603 87.286A14.432 14.432 0 1 0 69.603 58.422Z"/><path fill="#472b29" d="M69.604,87.661c-8.165,0-14.807-6.643-14.807-14.807s6.642-14.807,14.807-14.807 S84.41,64.69,84.41,72.854S77.768,87.661,69.604,87.661z M69.604,58.798c-7.751,0-14.057,6.306-14.057,14.057 s6.306,14.057,14.057,14.057S83.66,80.605,83.66,72.854S77.354,58.798,69.604,58.798z"/><path fill="#93bc39" d="M69.603 60.919A11.935 11.935 0 1 0 69.603 84.789A11.935 11.935 0 1 0 69.603 60.919Z"/><path fill="#472b29" d="M69.604,85.039c-6.719,0-12.185-5.466-12.185-12.185S62.885,60.67,69.604,60.67 s12.185,5.466,12.185,12.185S76.322,85.039,69.604,85.039z M69.604,61.17c-6.443,0-11.685,5.241-11.685,11.685 s5.242,11.685,11.685,11.685s11.685-5.241,11.685-11.685S76.046,61.17,69.604,61.17z"/><g opacity=".79"><path fill="#c0d078" d="M69.625,62.752c5.28,0,9.763,3.313,11.459,7.941c-0.945-5.4-5.709-9.512-11.459-9.512 s-10.513,4.112-11.459,9.512C59.863,66.065,64.345,62.752,69.625,62.752z"/></g><g><path fill="#fdfcee" d="M69.604,79.146c-0.648,0-1.176-0.527-1.176-1.176v-3.94h-3.94c-0.648,0-1.176-0.527-1.176-1.176 s0.528-1.177,1.176-1.177h3.94v-3.94c0-0.648,0.528-1.176,1.176-1.176s1.176,0.527,1.176,1.176v3.94h3.94 c0.649,0,1.177,0.528,1.177,1.177s-0.528,1.176-1.177,1.176h-3.94v3.94C70.78,78.619,70.252,79.146,69.604,79.146z"/><path fill="#472b29" d="M69.603,66.812c0.511,0,0.926,0.416,0.926,0.926v4.19h4.19c0.511,0,0.926,0.416,0.926,0.926 s-0.416,0.926-0.926,0.926h-4.19v4.19c0,0.511-0.416,0.926-0.926,0.926s-0.926-0.416-0.926-0.926v-4.19h-4.19 c-0.511,0-0.926-0.416-0.926-0.926s0.416-0.926,0.926-0.926h4.19v-4.19C68.677,67.227,69.093,66.812,69.603,66.812 M69.603,66.312c-0.787,0-1.426,0.64-1.426,1.426v3.69h-3.69c-0.786,0-1.426,0.64-1.426,1.426s0.64,1.426,1.426,1.426h3.69v3.69 c0,0.787,0.64,1.426,1.426,1.426s1.426-0.64,1.426-1.426v-3.69h3.69c0.786,0,1.426-0.64,1.426-1.426s-0.64-1.426-1.426-1.426 h-3.69v-3.69C71.03,66.951,70.39,66.312,69.603,66.312L69.603,66.312z"/></g></g></svg>