<?xml version="1.0"?><svg fill="#000000" xmlns="http://www.w3.org/2000/svg" viewBox="0 0 50 50" width="300px" height="300px">    <path d="M 7 4 C 4.243 4 2 6.243 2 9 L 2 33 C 2 35.757 4.243 38 7 38 L 11.140625 38 C 11.479625 40.895 10.625328 42.858578 8.4863281 44.142578 C 8.1013281 44.373578 7.9171094 44.834578 8.0371094 45.267578 C 8.1561094 45.700578 8.55 46 9 46 C 11.56 46 17.707594 45.205 20.683594 38 L 28.179688 38 C 28.295687 37.311 28.470266 36.644 28.697266 36 L 20 36 C 19.581 36 19.205547 36.261297 19.060547 36.654297 C 17.419547 41.130297 14.418937 42.90975 11.960938 43.59375 C 13.141937 41.84475 13.485375 39.578313 12.984375 36.820312 C 12.897375 36.345312 12.483 36 12 36 L 7 36 C 5.346 36 4 34.654 4 33 L 4 9 C 4 7.346 5.346 6 7 6 L 43 6 C 44.654 6 46 7.346 46 9 L 46 29.617188 C 46.718 30.033188 47.386 30.522266 48 31.072266 L 48 9 C 48 6.243 45.757 4 43 4 L 7 4 z M 40 30.011719 C 37.43675 30.011719 34.874187 30.985188 32.929688 32.929688 C 29.040688 36.818687 29.040688 43.181312 32.929688 47.070312 C 36.818687 50.959313 43.181312 50.959312 47.070312 47.070312 C 50.959312 43.181313 50.959313 36.818688 47.070312 32.929688 C 45.125813 30.985187 42.56325 30.011719 40 30.011719 z M 40 32.009766 C 42.050625 32.009766 44.10075 32.78825 45.65625 34.34375 C 48.76725 37.45475 48.76725 42.54525 45.65625 45.65625 C 42.54425 48.76725 37.45475 48.76725 34.34375 45.65625 C 31.23275 42.54425 31.23275 37.45475 34.34375 34.34375 C 35.89975 32.78825 37.949375 32.009766 40 32.009766 z M 40 34.060547 C 39.434 34.060547 39.009766 34.484781 39.009766 35.050781 L 39.009766 39.009766 L 35.050781 39.009766 C 34.484781 39.009766 34.060547 39.434 34.060547 40 C 34.060547 40.566 34.484781 40.990234 35.050781 40.990234 L 39.009766 40.990234 L 39.009766 44.949219 C 39.009766 45.515219 39.434 45.939453 40 45.939453 C 40.283 45.939453 40.566031 45.79725 40.707031 45.65625 C 40.849031 45.51525 40.990234 45.232219 40.990234 44.949219 L 40.990234 40.990234 L 44.949219 40.990234 C 45.232219 40.990234 45.51525 40.848031 45.65625 40.707031 C 45.79825 40.566031 45.939453 40.283 45.939453 40 C 45.939453 39.434 45.515219 39.009766 44.949219 39.009766 L 40.990234 39.009766 L 40.990234 35.050781 C 40.990234 34.485781 40.566 34.060547 40 34.060547 z"/></svg>