<?xml version="1.0"?><svg fill="#000000" xmlns="http://www.w3.org/2000/svg" viewBox="0 0 80 80" width="500px" height="500px">    <path d="M 19 9 C 16.802666 9 15 10.802666 15 13 L 15 22 C 15 23.210938 15.576246 24.264444 16.435547 25 C 15.576246 25.735556 15 26.789062 15 28 L 15 37 C 15 38.210938 15.576246 39.264444 16.435547 40 C 15.576246 40.735556 15 41.789062 15 43 L 15 52 C 15 53.210938 15.576246 54.264444 16.435547 55 C 15.576246 55.735556 15 56.789062 15 58 L 15 67 C 15 69.197334 16.802666 71 19 71 L 49 71 L 49 69 L 19 69 C 17.883334 69 17 68.116666 17 67 L 17 58 C 17 56.883334 17.883334 56 19 56 L 19 54 C 17.883334 54 17 53.116666 17 52 L 17 43 C 17 41.883334 17.883334 41 19 41 L 19 39 C 17.883334 39 17 38.116666 17 37 L 17 28 C 17 26.883334 17.883334 26 19 26 L 19 24 C 17.883334 24 17 23.116666 17 22 L 17 13 C 17 11.883334 17.883334 11 19 11 L 61 11 C 62.116666 11 63 11.883334 63 13 L 63 22 C 63 23.116666 62.116666 24 61 24 L 61 26 C 62.116666 26 63 26.883334 63 28 L 63 37 C 63 38.116666 62.116666 39 61 39 L 61 41 C 62.116666 41 63 41.883334 63 43 L 63 49 L 65 49 L 65 43 C 65 41.789062 64.423754 40.735556 63.564453 40 C 64.423754 39.264444 65 38.210938 65 37 L 65 28 C 65 26.789062 64.423754 25.735556 63.564453 25 C 64.423754 24.264444 65 23.210938 65 22 L 65 13 C 65 10.802666 63.197334 9 61 9 L 19 9 z M 45 16 L 45 18 L 46 18 L 50 18 L 51 18 L 51 16 L 50 16 L 46 16 L 45 16 z M 22 24 A 1 1 0 0 0 21 25 A 1 1 0 0 0 22 26 A 1 1 0 0 0 23 25 A 1 1 0 0 0 22 24 z M 26 24 A 1 1 0 0 0 25 25 A 1 1 0 0 0 26 26 A 1 1 0 0 0 27 25 A 1 1 0 0 0 26 24 z M 30 24 A 1 1 0 0 0 29 25 A 1 1 0 0 0 30 26 A 1 1 0 0 0 31 25 A 1 1 0 0 0 30 24 z M 34 24 A 1 1 0 0 0 33 25 A 1 1 0 0 0 34 26 A 1 1 0 0 0 35 25 A 1 1 0 0 0 34 24 z M 38 24 A 1 1 0 0 0 37 25 A 1 1 0 0 0 38 26 A 1 1 0 0 0 39 25 A 1 1 0 0 0 38 24 z M 42 24 A 1 1 0 0 0 41 25 A 1 1 0 0 0 42 26 A 1 1 0 0 0 43 25 A 1 1 0 0 0 42 24 z M 46 24 A 1 1 0 0 0 45 25 A 1 1 0 0 0 46 26 A 1 1 0 0 0 47 25 A 1 1 0 0 0 46 24 z M 50 24 A 1 1 0 0 0 49 25 A 1 1 0 0 0 50 26 A 1 1 0 0 0 51 25 A 1 1 0 0 0 50 24 z M 54 24 A 1 1 0 0 0 53 25 A 1 1 0 0 0 54 26 A 1 1 0 0 0 55 25 A 1 1 0 0 0 54 24 z M 58 24 A 1 1 0 0 0 57 25 A 1 1 0 0 0 58 26 A 1 1 0 0 0 59 25 A 1 1 0 0 0 58 24 z M 45 31 L 45 33 L 46 33 L 50 33 L 51 33 L 51 31 L 50 31 L 46 31 L 45 31 z M 22 39 A 1 1 0 0 0 21 40 A 1 1 0 0 0 22 41 A 1 1 0 0 0 23 40 A 1 1 0 0 0 22 39 z M 26 39 A 1 1 0 0 0 25 40 A 1 1 0 0 0 26 41 A 1 1 0 0 0 27 40 A 1 1 0 0 0 26 39 z M 30 39 A 1 1 0 0 0 29 40 A 1 1 0 0 0 30 41 A 1 1 0 0 0 31 40 A 1 1 0 0 0 30 39 z M 34 39 A 1 1 0 0 0 33 40 A 1 1 0 0 0 34 41 A 1 1 0 0 0 35 40 A 1 1 0 0 0 34 39 z M 38 39 A 1 1 0 0 0 37 40 A 1 1 0 0 0 38 41 A 1 1 0 0 0 39 40 A 1 1 0 0 0 38 39 z M 42 39 A 1 1 0 0 0 41 40 A 1 1 0 0 0 42 41 A 1 1 0 0 0 43 40 A 1 1 0 0 0 42 39 z M 46 39 A 1 1 0 0 0 45 40 A 1 1 0 0 0 46 41 A 1 1 0 0 0 47 40 A 1 1 0 0 0 46 39 z M 50 39 A 1 1 0 0 0 49 40 A 1 1 0 0 0 50 41 A 1 1 0 0 0 51 40 A 1 1 0 0 0 50 39 z M 54 39 A 1 1 0 0 0 53 40 A 1 1 0 0 0 54 41 A 1 1 0 0 0 55 40 A 1 1 0 0 0 54 39 z M 58 39 A 1 1 0 0 0 57 40 A 1 1 0 0 0 58 41 A 1 1 0 0 0 59 40 A 1 1 0 0 0 58 39 z M 45 46 L 45 48 L 46 48 L 50 48 L 51 48 L 51 46 L 50 46 L 46 46 L 45 46 z M 64 52 C 62.346 52 61 53.346 61 55 L 61 61 L 55 61 C 53.346 61 52 62.346 52 64 L 52 68 C 52 69.654 53.346 71 55 71 L 61 71 L 61 77 C 61 78.654 62.346 80 64 80 L 68 80 C 69.654 80 71 78.654 71 77 L 71 71 L 77 71 C 78.654 71 80 69.654 80 68 L 80 64 C 80 62.346 78.654 61 77 61 L 71 61 L 71 55 C 71 53.346 69.654 52 68 52 L 64 52 z M 22 54 A 1 1 0 0 0 21 55 A 1 1 0 0 0 22 56 A 1 1 0 0 0 23 55 A 1 1 0 0 0 22 54 z M 26 54 A 1 1 0 0 0 25 55 A 1 1 0 0 0 26 56 A 1 1 0 0 0 27 55 A 1 1 0 0 0 26 54 z M 30 54 A 1 1 0 0 0 29 55 A 1 1 0 0 0 30 56 A 1 1 0 0 0 31 55 A 1 1 0 0 0 30 54 z M 34 54 A 1 1 0 0 0 33 55 A 1 1 0 0 0 34 56 A 1 1 0 0 0 35 55 A 1 1 0 0 0 34 54 z M 38 54 A 1 1 0 0 0 37 55 A 1 1 0 0 0 38 56 A 1 1 0 0 0 39 55 A 1 1 0 0 0 38 54 z M 42 54 A 1 1 0 0 0 41 55 A 1 1 0 0 0 42 56 A 1 1 0 0 0 43 55 A 1 1 0 0 0 42 54 z M 46 54 A 1 1 0 0 0 45 55 A 1 1 0 0 0 46 56 A 1 1 0 0 0 47 55 A 1 1 0 0 0 46 54 z M 50 54 A 1 1 0 0 0 49 55 A 1 1 0 0 0 50 56 A 1 1 0 0 0 51 55 A 1 1 0 0 0 50 54 z M 54 54 A 1 1 0 0 0 53 55 A 1 1 0 0 0 54 56 A 1 1 0 0 0 55 55 A 1 1 0 0 0 54 54 z M 64 54 L 68 54 C 68.551 54 69 54.449 69 55 L 69 63 L 77 63 C 77.551 63 78 63.449 78 64 L 78 68 C 78 68.551 77.551 69 77 69 L 69 69 L 69 77 C 69 77.551 68.551 78 68 78 L 64 78 C 63.449 78 63 77.551 63 77 L 63 69 L 55 69 C 54.449 69 54 68.551 54 68 L 54 64 C 54 63.449 54.449 63 55 63 L 63 63 L 63 55 C 63 54.449 63.449 54 64 54 z"/></svg>