<svg xmlns="http://www.w3.org/2000/svg" viewBox="0 0 30 30" width="500px" height="500px"><path fill="#ffeea3" d="M15 23.9L6.4 28.4 8 18.8 1.1 12 10.7 10.6 15 1.9 19.3 10.6 28.9 12 22 18.8 23.6 28.4z"/><path fill="#ba9b48" d="M15,3l3.8,7.6L19,11l0.5,0.1l8.4,1.2l-6,5.9l-0.4,0.4l0.1,0.5l1.4,8.3l-7.5-3.9L15,23.3l-0.5,0.2 l-7.5,3.9l1.4-8.3l0.1-0.5l-0.4-0.4l-6-5.9l8.4-1.2L11,11l0.2-0.5L15,3 M15,0.7l-4.7,9.4L0,11.6L7.5,19L5.7,29.3l9.3-4.8l9.3,4.8 L22.5,19l7.5-7.3l-10.3-1.5L15,0.7L15,0.7z"/><path fill="#5e9c76" d="M11 15H19V17H11z"/><path fill="#5e9c76" d="M14 12H16V20H14z"/></svg>