<svg xmlns="http://www.w3.org/2000/svg" viewBox="0 0 80 80" width="100px" height="100px"><path fill="#8bb7f0" d="M40,77C19.6,77,3,60.4,3,40S19.6,3,40,3s37,16.6,37,37S60.4,77,40,77z"/><path fill="#4e7ab5" d="M40,77.5C19.322,77.5,2.5,60.678,2.5,40S19.322,2.5,40,2.5S77.5,19.322,77.5,40S60.678,77.5,40,77.5 z M40,3.5C19.874,3.5,3.5,19.874,3.5,40S19.874,76.5,40,76.5S76.5,60.126,76.5,40S60.126,3.5,40,3.5z"/><path fill="#fff" d="M40,71C23,71,9,57,9,40S23,9,40,9s31,14,31,31S57,71,40,71z"/><path fill="#ffc49c" d="M40,40V8.868c-7.887,0-15.981,3.113-22,9.132L40,40z"/><path fill="#4e7ab5" d="M40,71.5C22.631,71.5,8.5,57.369,8.5,40S22.631,8.5,40,8.5S71.5,22.631,71.5,40S57.369,71.5,40,71.5 z M40,9.5C23.182,9.5,9.5,23.182,9.5,40c0,16.817,13.682,30.5,30.5,30.5c16.817,0,30.5-13.683,30.5-30.5 C70.5,23.182,56.817,9.5,40,9.5z"/><path fill="#66798f" d="M40 38A2 2 0 1 0 40 42A2 2 0 1 0 40 38Z"/><path fill="#bae0bd" d="M62 44.499A17.5 17.5 0 1 0 62 79.499A17.5 17.5 0 1 0 62 44.499Z"/><path fill="#5e9c76" d="M62,44.999c9.374,0,17,7.626,17,17s-7.626,17-17,17s-17-7.626-17-17S52.626,44.999,62,44.999 M62,43.999c-9.941,0-18,8.059-18,18s8.059,18,18,18s18-8.059,18-18S71.941,43.999,62,43.999L62,43.999z"/><path fill="#fff" d="M60 52H64V72H60z"/><path fill="#fff" d="M52 60H72V64H52z"/><path fill="#8bb7f0" d="M21.5 21.5L40 40"/><path fill="#66798f" d="M40,41c-0.256,0-0.512-0.098-0.707-0.293l-18.5-18.5c-0.391-0.391-0.391-1.023,0-1.414 s1.023-0.391,1.414,0l18.5,18.5c0.391,0.391,0.391,1.023,0,1.414C40.512,40.902,40.256,41,40,41z"/><path fill="#8bb7f0" d="M28.25 51.25L40 39.5"/><path fill="#66798f" d="M28.25,52.25c-0.256,0-0.512-0.098-0.707-0.293c-0.391-0.391-0.391-1.023,0-1.414l11.75-11.75 c0.391-0.391,1.023-0.391,1.414,0s0.391,1.023,0,1.414l-11.75,11.75C28.762,52.152,28.506,52.25,28.25,52.25z"/><path fill="#c5d4de" d="M40 12A2 2 0 1 0 40 16 2 2 0 1 0 40 12zM54 17A1 1 0 1 0 54 19 1 1 0 1 0 54 17zM26 17A1 1 0 1 0 26 19 1 1 0 1 0 26 17zM27 62A1 1 0 1 0 27 64 1 1 0 1 0 27 62zM63 26A1 1 0 1 0 63 28 1 1 0 1 0 63 26zM17 26A1 1 0 1 0 17 28 1 1 0 1 0 17 26z"/><g><path fill="#c5d4de" d="M17 52A1 1 0 1 0 17 54A1 1 0 1 0 17 52Z"/></g><g><path fill="#c5d4de" d="M40 64A2 2 0 1 0 40 68A2 2 0 1 0 40 64Z"/></g><g><path fill="#c5d4de" d="M66 38A2 2 0 1 0 66 42A2 2 0 1 0 66 38Z"/></g><g><path fill="#c5d4de" d="M14 38A2 2 0 1 0 14 42A2 2 0 1 0 14 38Z"/></g></svg>