<svg xmlns="http://www.w3.org/2000/svg" viewBox="0 0 24 24" width="50px" height="50px"><path d="M12 5A8 8 0 1 0 12 21A8 8 0 1 0 12 5Z" opacity=".3"/><path d="M18.359 1.196H20.359V7.201H18.359z" transform="rotate(-49.932 19.36 4.199)"/><path d="M1.639 3.199H7.644V5.199H1.639z" transform="rotate(-40.066 4.642 4.199)"/><path d="M12,4c-4.971,0-9,4.029-9,9s4.029,9,9,9s9-4.029,9-9S16.971,4,12,4z M12,20c-3.866,0-7-3.134-7-7c0-3.866,3.134-7,7-7 s7,3.134,7,7C19,16.866,15.866,20,12,20z"/><path d="M8 12H16V14H8z" transform="rotate(90 12 13)"/><path d="M8 12H16V14H8z"/></svg>