<svg xmlns="http://www.w3.org/2000/svg" viewBox="0 0 64 64" width="100px" height="100px"><linearGradient id="NCBQfeB8qsfYJMiRr6IeSa" x1="45" x2="45" y1="37.5" y2="48.893" gradientUnits="userSpaceOnUse" spreadMethod="reflect"><stop offset="0" stop-color="#6dc7ff"/><stop offset="1" stop-color="#e6abff"/></linearGradient><path fill="url(#NCBQfeB8qsfYJMiRr6IeSa)" d="M50 42L46 42 46 38 44 38 44 42 40 42 40 44 44 44 44 48 46 48 46 44 50 44z"/><linearGradient id="NCBQfeB8qsfYJMiRr6IeSb" x1="34.126" x2="34.126" y1="8.669" y2="57.966" gradientUnits="userSpaceOnUse" spreadMethod="reflect"><stop offset="0" stop-color="#1a6dff"/><stop offset="1" stop-color="#c822ff"/></linearGradient><path fill="url(#NCBQfeB8qsfYJMiRr6IeSb)" d="M53.92,9H35.749c-0.802,0-1.556,0.135-2.122,0.701L12.126,31.113 c-1.167,1.17-1.167,3.028,0.001,4.198l18.672,18.65c0.566,0.566,1.32,0.868,2.121,0.868c0.802,0,1.556-0.318,2.121-0.884 l3.555-3.557c1.725,1.412,3.927,2.26,6.324,2.26c5.514,0,10-4.487,10-10.001c0-2.397-0.85-4.6-2.262-6.325l3.423-3.383 C56.648,32.372,57,31.618,57,30.817V11.645C57,9.991,55.574,9,53.92,9z M44.92,50.645c-4.411,0-8-3.589-8-8s3.589-8,8-8s8,3.589,8,8 S49.331,50.645,44.92,50.645z M55,30.817c0,0.263-0.146,0.521-0.333,0.707l-3.403,3.383c-1.725-1.412-3.937-2.262-6.334-2.262 c-1.757,0-3.412,0.459-4.848,1.258l-9.574-9.571l-1.415,1.414l9.321,9.322c-0.478,0.411-0.917,0.864-1.309,1.357l-9.433-9.271 L26.27,28.58l9.732,9.565c-0.349,0.689-0.62,1.424-0.803,2.193L24.849,29.988l-1.414,1.414L34.163,42.13l0.863-0.863 c-0.063,0.452-0.106,0.909-0.106,1.378c0,2.397,0.85,4.6,2.262,6.324l-3.556,3.555c-0.376,0.378-1.033,0.378-1.413,0L13.542,33.852 c-0.39-0.39-0.39-1.024-0.001-1.414l21.5-21.323C35.231,10.927,35.482,11,35.749,11H53.92c0.552,0,1.08,0.093,1.08,0.645V30.817z"/><linearGradient id="NCBQfeB8qsfYJMiRr6IeSc" x1="43.92" x2="43.92" y1="16.27" y2="26.895" gradientUnits="userSpaceOnUse" spreadMethod="reflect"><stop offset="0" stop-color="#6dc7ff"/><stop offset="1" stop-color="#e6abff"/></linearGradient><path fill="url(#NCBQfeB8qsfYJMiRr6IeSc)" d="M43.92 17.645A4 4 0 1 0 43.92 25.645A4 4 0 1 0 43.92 17.645Z"/><linearGradient id="NCBQfeB8qsfYJMiRr6IeSd" x1="19.71" x2="19.71" y1="8.669" y2="57.982" gradientUnits="userSpaceOnUse" spreadMethod="reflect"><stop offset="0" stop-color="#1a6dff"/><stop offset="1" stop-color="#c822ff"/></linearGradient><path fill="url(#NCBQfeB8qsfYJMiRr6IeSd)" d="M9.08,33.145c0-0.8,0.31-1.372,0.87-1.943L32.34,9H29.5L8.54,29.792 c-0.94,0.94-1.46,2.111-1.46,3.442s0.52,2.545,1.46,3.485l18.67,18.658l1.42-1.431L9.95,35.271C9.39,34.7,9.08,33.945,9.08,33.145z"/><linearGradient id="NCBQfeB8qsfYJMiRr6IeSe" x1="26.677" x2="26.677" y1="8.312" y2="57.979" gradientUnits="userSpaceOnUse" spreadMethod="reflect"><stop offset="0" stop-color="#1a6dff"/><stop offset="1" stop-color="#c822ff"/></linearGradient><path fill="url(#NCBQfeB8qsfYJMiRr6IeSe)" d="M20.607 34.231L31.334 44.958 32.748 43.544 22.021 32.817z"/></svg>