<?xml version="1.0"?><svg fill="#000000" xmlns="http://www.w3.org/2000/svg" viewBox="0 0 30 30" width="500px" height="500px">    <path d="M 18.046875 -0.00390625 A 1.0001 1.0001 0 0 0 17.683594 0.05078125 C 15.486676 0.78267851 14 2.8475557 14 5.1621094 L 14 6 L 11 6 L 14.193359 9.5898438 A 1 1 0 0 0 15 10 A 1 1 0 0 0 15.806641 9.5898438 A 1 1 0 0 0 15.808594 9.5878906 L 19 6 L 16 6 L 16 5.1621094 C 16 3.700663 16.929324 2.4113214 18.316406 1.9492188 A 1.0001 1.0001 0 0 0 18.046875 -0.00390625 z M 3 12 C 2.448 12 2 12.448 2 13 L 2 15 C 2 15.552 2.448 16 3 16 L 3.3339844 16 L 4.7207031 24.328125 C 4.8817031 25.292125 5.7163594 26 6.6933594 26 L 23.304688 26 C 24.282688 26 25.116344 25.292125 25.277344 24.328125 L 26.666016 16 L 27 16 C 27.552 16 28 15.552 28 15 L 28 13 C 28 12.448 27.552 12 27 12 L 3 12 z M 10 16 C 10.552 16 11 16.448 11 17 L 11 22 C 11 22.552 10.552 23 10 23 C 9.448 23 9 22.552 9 22 L 9 17 C 9 16.448 9.448 16 10 16 z M 15 16 C 15.552 16 16 16.448 16 17 L 16 22 C 16 22.552 15.552 23 15 23 C 14.448 23 14 22.552 14 22 L 14 17 C 14 16.448 14.448 16 15 16 z M 20 16 C 20.552 16 21 16.448 21 17 L 21 22 C 21 22.552 20.552 23 20 23 C 19.448 23 19 22.552 19 22 L 19 17 C 19 16.448 19.448 16 20 16 z"/></svg>