<svg fill="#000000" xmlns="http://www.w3.org/2000/svg" viewBox="0 0 32 32" width="100px" height="100px"><path d="M 16 5 L 15.6875 5.28125 L 4.28125 16.8125 L 3.59375 17.5 L 4.28125 18.21875 L 13.78125 27.71875 L 14.5 28.40625 L 16.40625 26.5 C 17.460938 29.6875 20.464844 32 24 32 C 28.40625 32 32 28.40625 32 24 C 32 20.503906 29.730469 17.519531 26.59375 16.4375 L 26.71875 16.3125 L 27 16 L 27 5 Z M 16.84375 7 L 25 7 L 25 15.15625 L 24.15625 16 C 24.105469 16 24.054688 16 24 16 C 19.59375 16 16 19.59375 16 24 C 16 24.03125 16 24.0625 16 24.09375 L 14.5 25.59375 L 6.40625 17.5 Z M 22 9 C 21.449219 9 21 9.449219 21 10 C 21 10.550781 21.449219 11 22 11 C 22.550781 11 23 10.550781 23 10 C 23 9.449219 22.550781 9 22 9 Z M 24 18 C 27.324219 18 30 20.675781 30 24 C 30 27.324219 27.324219 30 24 30 C 20.675781 30 18 27.324219 18 24 C 18 20.675781 20.675781 18 24 18 Z M 23 20 L 23 23 L 20 23 L 20 25 L 23 25 L 23 28 L 25 28 L 25 25 L 28 25 L 28 23 L 25 23 L 25 20 Z"/></svg>