<svg xmlns="http://www.w3.org/2000/svg" viewBox="0 0 64 64" width="50px" height="50px"><linearGradient id="dAVm7MKWkdLR7HA4lDRRLa" x1="32" x2="32" y1="5.252" y2="58.422" gradientUnits="userSpaceOnUse" spreadMethod="reflect"><stop offset="0" stop-color="#1a6dff"/><stop offset="1" stop-color="#c822ff"/></linearGradient><path fill="url(#dAVm7MKWkdLR7HA4lDRRLa)" d="M19.072,56.998c-1.049,0-2.091-0.328-2.981-0.975c-1.58-1.147-2.356-3.055-2.027-4.98 l1.742-10.165c0.172-1.003-0.16-2.025-0.888-2.735L7.54,30.943c-1.397-1.363-1.89-3.363-1.286-5.22 c0.603-1.855,2.176-3.181,4.104-3.462l10.196-1.483c1.005-0.146,1.874-0.778,2.324-1.69l4.56-9.249 C28.302,8.089,30.05,7.002,32,7.002s3.698,1.087,4.561,2.837l4.56,9.249c0.45,0.912,1.318,1.544,2.323,1.69l10.197,1.483 c1.929,0.281,3.501,1.607,4.104,3.462c0.604,1.856,0.111,3.856-1.286,5.22l-7.378,7.199c-0.728,0.71-1.06,1.732-0.888,2.736 l1.742,10.165c0.33,1.925-0.447,3.833-2.027,4.98c-1.577,1.145-3.628,1.293-5.354,0.385l-9.12-4.799 c-0.898-0.473-1.973-0.473-2.871,0l-9.12,4.799C20.693,56.803,19.881,56.998,19.072,56.998z M32,9.002 c-1.201,0-2.235,0.644-2.767,1.722l-4.56,9.249c-0.741,1.503-2.173,2.544-3.83,2.785l-10.196,1.483 c-1.188,0.172-2.119,0.958-2.491,2.101c-0.373,1.145-0.081,2.33,0.78,3.17l7.378,7.199c1.199,1.169,1.745,2.854,1.463,4.504 L16.036,51.38c-0.204,1.187,0.256,2.317,1.23,3.024c0.973,0.706,2.187,0.793,3.247,0.234l9.12-4.799c1.482-0.78,3.252-0.78,4.734,0 l9.12,4.799c1.061,0.558,2.275,0.471,3.247-0.234c0.974-0.707,1.434-1.837,1.23-3.024l-1.742-10.165 c-0.282-1.651,0.264-3.335,1.463-4.505l7.378-7.199c0.861-0.84,1.153-2.025,0.78-3.17c-0.372-1.143-1.303-1.928-2.491-2.101 l-10.196-1.483c-1.657-0.241-3.088-1.282-3.83-2.785l-4.56-9.249C34.235,9.646,33.201,9.002,32,9.002z"/><linearGradient id="dAVm7MKWkdLR7HA4lDRRLb" x1="32" x2="32" y1="24.25" y2="46.756" gradientUnits="userSpaceOnUse" spreadMethod="reflect"><stop offset="0" stop-color="#6dc7ff"/><stop offset="1" stop-color="#e6abff"/></linearGradient><path fill="url(#dAVm7MKWkdLR7HA4lDRRLb)" d="M40,33h-6v-5.998C34,26.45,33.552,26,33,26h-2c-0.552,0-1,0.45-1,1.002V33h-6 c-0.552,0-1,0.45-1,1.002v2C23,36.554,23.448,37,24,37h6v6.002C30,43.554,30.448,44,31,44h2c0.552,0,1-0.446,1-0.998V37h6 c0.552,0,1-0.446,1-0.998v-2C41,33.45,40.552,33,40,33z"/></svg>