<svg xmlns="http://www.w3.org/2000/svg" viewBox="0 0 100 100" width="500px" height="500px"><path fill="#c8ede6" d="M87.234,55.551c0.3-0.616,0.566-1.264,0.796-1.943c2.633-7.77-1.349-17.078-9.733-19.325 C77.391,22.9,69.391,15.09,60.356,13.758c-10.341-1.525-19.814,5.044-22.966,15.485c-3.799-1.346-7.501-1.182-10.99,0.857 c-1.583,0.732-3.031,1.812-4.33,3.233c-1.907,2.086-3.147,4.719-3.652,7.495c-0.748,0.118-1.483,0.236-2.176,0.484 c-4.04,1.449-6.589,4.431-7.288,8.923c-0.435,2.797,0.443,5.587,0.933,6.714c1.935,4.455,6.422,6.98,10.981,6.312 c0.227-0.033,0.557,0.069,0.752,0.233c0.241,7.12,3.698,13.417,8.884,17.014c8.321,5.772,19.027,3.994,25.781-3.921 c2.894,2.96,6.338,4.398,10.384,3.876c4.023-0.519,7.147-2.739,9.426-6.349c1.053,0.283,2.051,0.691,3.083,0.804 c4.042,0.442,7.297-1.184,9.732-4.8c0.083-0.124,0.203-0.219,0.306-0.328c0.348-0.798,0.696-1.596,1.044-2.394 c0.155-1.211,0.429-2.423,0.443-3.632C90.742,60.508,89.411,57.54,87.234,55.551z"/><path fill="#fdfcef" d="M26.587,66.381c0,0,11.691,0,11.762,0c2.7,0,4.888-2.189,4.888-4.889 c0-2.355-1.666-4.321-3.884-4.784c0.026-0.206,0.043-0.415,0.043-0.628c0-2.796-2.267-5.063-5.063-5.063 c-1.651,0-3.113,0.794-4.037,2.017c-0.236-3.113-3.017-5.514-6.27-5.116c-2.379,0.291-4.346,2.13-4.784,4.486 c-0.14,0.756-0.126,1.489,0.014,2.177c-0.638-0.687-1.546-1.119-2.557-1.119c-1.85,0-3.361,1.441-3.48,3.261 c-0.84-0.186-1.754-0.174-2.717,0.188c-1.84,0.691-3.15,2.423-3.227,4.387c-0.109,2.789,2.12,5.085,4.885,5.085 c0.21,0,0.948,0,1.118,0h10.151"/><path fill="#472b29" d="M38.349,66.881H26.587c-0.276,0-0.5-0.224-0.5-0.5s0.224-0.5,0.5-0.5h11.762 c2.42,0,4.389-1.969,4.389-4.389c0-2.066-1.466-3.873-3.486-4.295c-0.255-0.053-0.426-0.293-0.394-0.552 c0.023-0.186,0.039-0.374,0.039-0.565c0-2.517-2.047-4.563-4.562-4.563c-1.438,0-2.765,0.663-3.638,1.818 c-0.125,0.166-0.338,0.237-0.54,0.178c-0.199-0.059-0.342-0.234-0.357-0.441c-0.104-1.377-0.779-2.671-1.85-3.549 c-1.083-0.888-2.456-1.282-3.86-1.109c-2.166,0.266-3.956,1.943-4.353,4.081c-0.124,0.667-0.12,1.335,0.013,1.986 c0.044,0.22-0.062,0.442-0.262,0.544c-0.2,0.104-0.443,0.06-0.595-0.104c-0.575-0.618-1.353-0.959-2.19-0.959 c-1.569,0-2.878,1.228-2.981,2.794c-0.01,0.146-0.082,0.279-0.199,0.366c-0.117,0.089-0.268,0.12-0.408,0.089 c-0.841-0.185-1.637-0.132-2.433,0.167c-1.669,0.627-2.835,2.209-2.903,3.938C7.732,62.523,8.166,63.666,9,64.534 c0.835,0.869,1.959,1.348,3.164,1.348h11.269c0.276,0,0.5,0.224,0.5,0.5s-0.224,0.5-0.5,0.5H12.162 c-1.479,0-2.858-0.588-3.884-1.654c-1.025-1.066-1.558-2.469-1.5-3.95c0.083-2.126,1.51-4.069,3.55-4.835 c0.8-0.301,1.626-0.398,2.468-0.299c0.377-1.822,1.998-3.182,3.905-3.182c0.684,0,1.354,0.18,1.944,0.51 c0-0.386,0.035-0.772,0.106-1.159c0.477-2.562,2.621-4.573,5.215-4.891c1.679-0.205,3.32,0.266,4.616,1.328 c1.003,0.823,1.716,1.951,2.038,3.193c1.012-0.916,2.319-1.426,3.714-1.426c3.067,0,5.562,2.496,5.562,5.563 c0,0.083-0.002,0.166-0.007,0.248c2.254,0.673,3.848,2.776,3.848,5.164C43.738,64.465,41.321,66.881,38.349,66.881z"/><path fill="#fdfcef" d="M23.754,55.613c-1.808-0.119-3.365,1.13-3.476,2.789c-0.014,0.206-0.005,0.409,0.025,0.606 c-0.349-0.394-0.865-0.661-1.458-0.7c-1.085-0.071-2.022,0.645-2.158,1.62c-0.197-0.054-0.403-0.09-0.616-0.104 c-1.582-0.104-2.944,0.989-3.042,2.441"/><path fill="#472b29" d="M13.03,62.514c-0.006,0-0.012,0-0.017-0.001c-0.138-0.009-0.242-0.128-0.233-0.266 c0.107-1.587,1.588-2.789,3.308-2.674c0.137,0.009,0.273,0.026,0.409,0.053c0.274-0.968,1.256-1.645,2.366-1.567 c0.425,0.027,0.823,0.159,1.164,0.382c0-0.019,0.002-0.037,0.003-0.056c0.12-1.795,1.787-3.16,3.742-3.021 c0.138,0.009,0.242,0.128,0.233,0.266s-0.124,0.255-0.266,0.232c-1.651-0.105-3.108,1.037-3.21,2.557 c-0.012,0.184-0.004,0.37,0.023,0.553c0.017,0.109-0.041,0.217-0.141,0.264s-0.219,0.022-0.293-0.061 c-0.323-0.365-0.78-0.584-1.287-0.617c-0.951-0.034-1.775,0.556-1.894,1.404c-0.01,0.071-0.05,0.135-0.11,0.175 c-0.06,0.039-0.133,0.051-0.204,0.032c-0.187-0.051-0.377-0.083-0.567-0.097c-1.44-0.092-2.687,0.896-2.775,2.209 C13.27,62.413,13.16,62.514,13.03,62.514z"/><path fill="#fdfcef" d="M40.329,57.281c-1.699-0.801-3.664-0.234-4.389,1.267c-0.09,0.186-0.157,0.379-0.201,0.574"/><path fill="#472b29" d="M35.739,59.372c-0.018,0-0.037-0.002-0.056-0.006c-0.134-0.031-0.219-0.165-0.188-0.3 c0.049-0.217,0.123-0.428,0.219-0.627c0.783-1.621,2.902-2.239,4.721-1.385c0.125,0.06,0.179,0.208,0.12,0.333 c-0.059,0.126-0.209,0.176-0.333,0.12c-1.574-0.744-3.394-0.227-4.058,1.149c-0.08,0.165-0.141,0.34-0.182,0.521 C35.956,59.294,35.853,59.372,35.739,59.372z"/><path fill="#fff" d="M25.774,38h-10.03c-0.276,0-0.5-0.224-0.5-0.5s0.224-0.5,0.5-0.5h10.03c0.276,0,0.5,0.224,0.5,0.5 S26.051,38,25.774,38z M29.155,37.5c0-0.276-0.224-0.5-0.5-0.5h-1.446c-0.276,0-0.5,0.224-0.5,0.5s0.224,0.5,0.5,0.5h1.446 C28.932,38,29.155,37.776,29.155,37.5z M33.21,37.5c0-0.276-0.224-0.5-0.5-0.5h-2.546c-0.276,0-0.5,0.224-0.5,0.5 s0.224,0.5,0.5,0.5h2.546C32.987,38,33.21,37.776,33.21,37.5z M33.21,39.5c0-0.276-0.224-0.5-0.5-0.5h-9.616 c-0.276,0-0.5,0.224-0.5,0.5s0.224,0.5,0.5,0.5h9.616C32.987,40,33.21,39.776,33.21,39.5z M21.862,39.5c0-0.276-0.224-0.5-0.5-0.5 h-0.58c-0.276,0-0.5,0.224-0.5,0.5s0.224,0.5,0.5,0.5h0.58C21.638,40,21.862,39.776,21.862,39.5z M19.486,39.5 c0-0.276-0.224-0.5-0.5-0.5h-1.457c-0.276,0-0.5,0.224-0.5,0.5s0.224,0.5,0.5,0.5h1.457C19.262,40,19.486,39.776,19.486,39.5z M28.621,35.5c0-0.276-0.224-0.5-0.5-0.5h-5.027c-0.276,0-0.5,0.224-0.5,0.5s0.224,0.5,0.5,0.5h5.027 C28.398,36,28.621,35.776,28.621,35.5z M28.621,33.5c0-0.276-0.224-0.5-0.5-0.5h-1.257c-0.276,0-0.5,0.224-0.5,0.5 s0.224,0.5,0.5,0.5h1.257C28.398,34,28.621,33.776,28.621,33.5z M25.352,41.5c0-0.276-0.224-0.5-0.5-0.5h-1.758 c-0.276,0-0.5,0.224-0.5,0.5s0.224,0.5,0.5,0.5h1.758C25.129,42,25.352,41.776,25.352,41.5z"/><path fill="#fdfcef" d="M87.178,57.287c1.883,0,3.517,0,3.54,0c2.11,0,3.821-1.674,3.821-3.739 c0-1.802-1.302-3.305-3.035-3.66c0.02-0.158,0.034-0.317,0.034-0.48c0-2.139-1.772-3.873-3.957-3.873 c-1.29,0-2.433,0.607-3.155,1.543c-0.185-2.381-2.358-4.218-4.9-3.913c-1.859,0.223-3.397,1.629-3.739,3.431 c-0.11,0.578-0.098,1.139,0.011,1.665c-0.498-0.525-1.208-0.856-1.998-0.856c-1.446,0-2.627,1.102-2.72,2.494 c-0.657-0.142-1.371-0.133-2.123,0.143c-1.438,0.528-2.462,1.853-2.522,3.356c-0.085,2.133,1.657,3.889,3.818,3.889 c0.164,0,0.741,0,0.874,0h7.934 M80.701,57.287h0.36"/><path fill="#472b29" d="M90.718,57.788h-3.54c-0.276,0-0.5-0.224-0.5-0.5s0.224-0.5,0.5-0.5h3.54 c1.831,0,3.321-1.453,3.321-3.239c0-1.524-1.108-2.858-2.636-3.17c-0.256-0.053-0.429-0.294-0.396-0.554 c0.018-0.137,0.03-0.275,0.03-0.417c0-1.86-1.551-3.373-3.457-3.373c-1.092,0-2.098,0.491-2.76,1.349 c-0.126,0.164-0.341,0.231-0.539,0.174c-0.198-0.06-0.339-0.234-0.355-0.44c-0.079-1.02-0.565-1.944-1.369-2.604 c-0.829-0.68-1.885-0.979-2.973-0.853c-1.646,0.197-3.006,1.442-3.307,3.027c-0.094,0.495-0.091,0.99,0.009,1.472 c0.045,0.219-0.06,0.441-0.258,0.545c-0.197,0.102-0.44,0.063-0.594-0.1c-0.428-0.451-1.009-0.7-1.635-0.7 c-1.169,0-2.145,0.891-2.221,2.027c-0.01,0.146-0.082,0.278-0.198,0.366c-0.116,0.087-0.264,0.12-0.406,0.089 c-0.639-0.138-1.243-0.098-1.846,0.125c-1.262,0.463-2.144,1.631-2.195,2.905c-0.035,0.876,0.283,1.709,0.895,2.346 c0.635,0.66,1.496,1.024,2.423,1.024h8.807c0.276,0,0.5,0.224,0.5,0.5s-0.224,0.5-0.5,0.5h-8.807 c-1.185,0-2.331-0.485-3.144-1.331c-0.803-0.836-1.219-1.929-1.173-3.078c0.067-1.675,1.212-3.204,2.849-3.806 c0.61-0.225,1.24-0.304,1.88-0.244c0.344-1.396,1.629-2.424,3.135-2.424c0.493,0,0.977,0.113,1.414,0.323 c0.009-0.242,0.037-0.484,0.083-0.727c0.381-2.009,2.096-3.585,4.17-3.833c1.365-0.167,2.685,0.218,3.726,1.071 c0.748,0.613,1.278,1.409,1.546,2.302c0.791-0.648,1.786-1.007,2.842-1.007c2.458,0,4.457,1.962,4.457,4.373 c0,0.034,0,0.068-0.001,0.103c1.764,0.555,3.003,2.188,3.003,4.038C95.039,55.886,93.101,57.788,90.718,57.788z M81.061,57.788 h-0.36c-0.276,0-0.5-0.224-0.5-0.5s0.224-0.5,0.5-0.5h0.36c0.276,0,0.5,0.224,0.5,0.5S81.337,57.788,81.061,57.788z"/><path fill="#472b29" d="M89.011 51.984c-.018 0-.036-.002-.055-.006-.135-.03-.22-.164-.189-.299.037-.164.094-.325.17-.479.604-1.224 2.272-1.677 3.722-1.007.125.058.18.206.122.331-.058.126-.207.179-.332.122-1.201-.556-2.577-.208-3.063.774-.058.118-.102.242-.13.367C89.229 51.905 89.126 51.984 89.011 51.984zM83.852 57.788h-1.107c-.276 0-.5-.224-.5-.5s.224-.5.5-.5h1.107c.276 0 .5.224.5.5S84.129 57.788 83.852 57.788z"/><path fill="#fff" d="M70.64,21.935H60.61c-0.276,0-0.5-0.224-0.5-0.5s0.224-0.5,0.5-0.5h10.031 c0.276,0,0.5,0.224,0.5,0.5S70.916,21.935,70.64,21.935z M74.021,21.435c0-0.276-0.224-0.5-0.5-0.5h-1.446 c-0.276,0-0.5,0.224-0.5,0.5s0.224,0.5,0.5,0.5h1.446C73.798,21.935,74.021,21.711,74.021,21.435z M78.076,21.435 c0-0.276-0.224-0.5-0.5-0.5H75.03c-0.276,0-0.5,0.224-0.5,0.5s0.224,0.5,0.5,0.5h2.546C77.852,21.935,78.076,21.711,78.076,21.435z M76.049,17.705c0-0.276-0.224-0.5-0.5-0.5h-9.616c-0.276,0-0.5,0.224-0.5,0.5s0.224,0.5,0.5,0.5h9.616 C75.826,18.205,76.049,17.981,76.049,17.705z M64.701,17.705c0-0.276-0.224-0.5-0.5-0.5h-0.58c-0.276,0-0.5,0.224-0.5,0.5 s0.224,0.5,0.5,0.5h0.58C64.479,18.205,64.701,17.981,64.701,17.705z M62.325,17.705c0-0.276-0.224-0.5-0.5-0.5h-1.456 c-0.276,0-0.5,0.224-0.5,0.5s0.224,0.5,0.5,0.5h1.456C62.102,18.205,62.325,17.981,62.325,17.705z M73.487,19.57 c0-0.276-0.224-0.5-0.5-0.5H67.96c-0.276,0-0.5,0.224-0.5,0.5s0.224,0.5,0.5,0.5h5.027C73.262,20.07,73.487,19.846,73.487,19.57z M73.487,17.705c0-0.276-0.224-0.5-0.5-0.5H71.73c-0.276,0-0.5,0.224-0.5,0.5s0.224,0.5,0.5,0.5h1.257 C73.262,18.205,73.487,17.981,73.487,17.705z M67.004,19.57c0-0.276-0.224-0.5-0.5-0.5h-1.758c-0.276,0-0.5,0.224-0.5,0.5 s0.224,0.5,0.5,0.5h1.758C66.781,20.07,67.004,19.846,67.004,19.57z"/><path fill="#be7841" d="M42.206,42.895c-0.158-0.347-3.837-8.559-1.042-14.143c1.157-2.313,3.257-3.827,6.24-4.502 c1.719-1.185,3.78-1.836,5.817-1.836c1.709,0,3.368,0.442,4.932,1.314c0.831,0.463,1.504,0.854,2.066,1.182 c1.781,1.036,2.381,1.385,3.44,1.385c0.117,0,0.24-0.004,0.371-0.012l0.13-0.008c0.15-0.01,0.299-0.02,0.438-0.02 c0.927,0,1.186,0.492,1.24,0.905c0.139,1.044-0.228,1.945-0.552,2.739c-0.291,0.715-0.542,1.333-0.372,1.892 c1.839,6.037-1.011,10.944-1.133,11.15l-0.94,1.587l0.011-1.845c0-0.05,0.015-4.724-1.095-7.715 c-1.42,0.793-3.144,1.21-5.025,1.21c-3.247,0-6.838-1.186-10.403-3.431c-3.167,2.488-3.168,9.859-3.168,9.936l0.012,2.332 L42.206,42.895z"/><path fill="#472b29" d="M53.221,22.914c1.512,0,3.109,0.37,4.69,1.251c3.534,1.971,4.191,2.63,5.751,2.63 c0.126,0,0.259-0.004,0.399-0.013c0.184-0.011,0.369-0.026,0.539-0.026c0.384,0,0.692,0.079,0.744,0.47 c0.245,1.842-1.346,3.266-0.906,4.711c1.795,5.895-1.085,10.75-1.085,10.75s0.035-5.381-1.354-8.449 c-1.433,0.946-3.231,1.44-5.267,1.44c-3.077,0-6.698-1.13-10.42-3.534c-3.694,2.458-3.65,10.543-3.65,10.543 s-6.996-15.36,4.949-17.971C49.128,23.647,51.091,22.914,53.221,22.914 M53.221,21.914c-2.106,0-4.235,0.663-6.02,1.87 c-3.087,0.72-5.268,2.315-6.484,4.744c-2.901,5.796,0.872,14.219,1.034,14.575l1.93,4.238l-0.02-4.657 c-0.009-1.965,0.479-7.201,2.717-9.315c3.542,2.169,7.109,3.311,10.354,3.311c1.74,0,3.355-0.343,4.739-0.999 c0.894,2.891,0.881,6.956,0.881,7.002L62.33,46.37l1.882-3.172c0.127-0.214,3.083-5.306,1.181-11.551 c-0.118-0.389,0.102-0.931,0.357-1.558c0.33-0.81,0.74-1.818,0.583-2.994c-0.042-0.314-0.29-1.339-1.735-1.339 c-0.15,0-0.31,0.01-0.471,0.02l-0.127,0.008c-0.12,0.007-0.233,0.011-0.34,0.011c-0.891,0-1.358-0.252-3.192-1.318 c-0.564-0.328-1.239-0.72-2.072-1.185C56.758,22.378,55.016,21.914,53.221,21.914L53.221,21.914z"/><path fill="#fabf82" d="M67.884,65.203c-0.671-0.474-9.276-3.491-9.276-3.491c-0.547-0.147-0.851-0.595-0.949-1.095 c-0.276-1.416-0.243-4.822-0.236-5.43c0.001-0.048-0.043-0.084-0.097-0.084h-0.325h-7.979h-0.325c-0.054,0-0.097,0.037-0.097,0.084 c0.006,0.602,0.034,3.939-0.236,5.43c-0.091,0.502-0.402,0.948-0.949,1.095l-7.034,2.447c-0.704,0.195-1.381,0.474-1.975,0.863 c-3.105,2.031-3.194,5.355-3.323,5.974c-0.011,0.053,0.035,0.101,0.095,0.101h17.833h17.833c0.061,0,0.106-0.048,0.095-0.101 C70.816,70.394,70.77,67.244,67.884,65.203z"/><path fill="#472b29" d="M57.327,55.094c0.054,0,0.097,0.036,0.097,0.083c-0.007,0.603-0.04,3.984,0.236,5.389 c0.098,0.497,0.402,0.941,0.949,1.087c0,0,8.605,2.993,9.276,3.464c2.886,2.026,2.932,5.153,3.057,5.748 c0.011,0.053-0.035,0.1-0.095,0.1H53.013H35.18c-0.061,0-0.106-0.048-0.095-0.1c0.129-0.614,0.218-3.913,3.323-5.929 c0.594-0.386,1.271-0.662,1.975-0.856l7.034-2.428c0.547-0.146,0.858-0.588,0.949-1.087c0.27-1.48,0.242-4.791,0.236-5.389 c-0.001-0.048,0.043-0.083,0.096-0.083h0.325h7.979L57.327,55.094 M57.327,54.102h-0.325h-7.979h-0.325 c-0.294,0-0.58,0.118-0.785,0.324c-0.204,0.205-0.315,0.476-0.312,0.764c0.02,1.823-0.028,4.148-0.22,5.2 c-0.047,0.258-0.181,0.294-0.225,0.306l-0.035,0.009l-0.034,0.012l-7.005,2.418c-0.842,0.234-1.59,0.562-2.223,0.973 c-3.139,2.037-3.577,5.264-3.721,6.324c-0.014,0.101-0.023,0.181-0.034,0.233c-0.066,0.317,0.014,0.642,0.22,0.893 c0.209,0.255,0.52,0.401,0.854,0.401h17.833h17.833c0.334,0,0.645-0.146,0.854-0.401c0.206-0.251,0.286-0.577,0.22-0.893 c-0.011-0.055-0.02-0.136-0.034-0.239c-0.144-1.116-0.525-4.081-3.425-6.117c-0.683-0.479-6.259-2.455-9.522-3.591l-0.035-0.012 l-0.036-0.01c-0.043-0.012-0.174-0.047-0.227-0.319c-0.195-0.992-0.24-3.331-0.217-5.187c0.003-0.288-0.107-0.56-0.312-0.764 C57.907,54.22,57.621,54.102,57.327,54.102L57.327,54.102z"/><path fill="#fddbbc" d="M66.65,44.519c0.153-0.525,0.282-1.041,0.464-1.553c0.237-0.67,0.069-1.1-0.673-1.515 c-0.034-0.019-0.062-0.041-0.091-0.063c-0.119-0.019-0.233-0.034-0.329-0.046c-0.668-0.079-1.855-0.114-2.2-0.81 c-0.391-0.789-0.197-1.627-0.096-2.46c0.111-0.917-0.233-1.8-0.236-2.714c-0.062-0.09-0.106-0.196-0.119-0.323 c-0.137-1.349-0.53-2.639-1.055-3.886c-1.847-2.449-5.297-4.101-9.244-4.101c-5.887,0-10.677,3.672-10.677,8.185 c0,0.214,0.014,0.425,0.036,0.634c-0.058,0.816-0.135,1.543-0.098,2.436c0.033,0.79-0.082,1.377-0.006,2.42 c0.043,0.588-0.225,0.209-1.164,0.255c-0.12,0-0.236,0.001-0.35,0.009c-1.03,0.069-1.863,0.732-2.041,1.553 c0.126,0.078,0.227,0.202,0.273,0.386c0.375,1.524,0.323,3.287,1.082,4.703c0.424,0.791,1.086,0.901,1.766,1.411 c0.377,0.283,0.449,0.602,0.552,1.025c0.382,1.565,1.441,2.896,2.603,4.032c0.588,0.575,1.219,1.092,1.856,1.615 c0.529,0.434,1.083,0.936,1.738,1.194c0.219,0.086,0.355,0.241,0.421,0.415c0.434,0.233,1.048,0.561,1.048,0.555 c2.097,0.843,4.108,0.915,6.23-0.041c0,0.008,0,0.016,0,0.024c0.011-0.007,1.033-0.501,1.451-0.732 c0.033-0.045,0.071-0.09,0.121-0.132c0.643-0.544,1.355-0.998,2.017-1.518c0.544-0.428,0.99-0.901,1.411-1.415 c-0.097-0.223,0.118-0.031,0.318-0.264c0.941-1.093,1.825-2.815,1.978-4.217c0.008-0.072,0.06-0.124,0.098-0.176 c-0.122-0.389,0.18-0.601,0.736-0.616c0.502-0.013,0.801-0.582,1.186-0.856C65.943,46.831,66.332,45.607,66.65,44.519z"/><path fill="#8e7469" d="M64.104,43.599c0.012-0.178,0.015-0.357-0.005-0.534l1.332,0.258l-0.483,2.418l-0.537-0.098 l0.381-1.911L64.104,43.599z" opacity=".8"/><path fill="#472b29" d="M65.903,41.011c-0.458-0.116-0.944-0.127-1.459-0.191c0-0.055-0.131,0.059-0.131,0.004 c-0.325-0.032-0.497-0.416-0.502-0.817c-0.009-0.809-0.11-1.696-0.038-2.544c0.021-0.765-0.116-1.254-0.263-1.796 c0.023-0.222,0.037-0.446,0.037-0.673c0-4.639-4.79-8.413-10.677-8.413s-10.677,3.774-10.677,8.413c0,0.22,0.014,0.437,0.036,0.652 c-0.058,0.839-0.135,1.586-0.098,2.503c0.033,0.812-0.082,1.415-0.006,2.487c0.043,0.604-0.225,0.215-1.164,0.262 c-0.12,0-0.236,0.001-0.35,0.009c-1.277,0.088-2.253,1.114-2.05,2.224c0.235,1.286,0.516,2.565,0.834,3.835 c0.315,1.256,0.936,2.285,2.442,2.431c0.194,1.634,0.54,2.464,1.57,3.752c1.399,1.75,3.058,3.242,5.063,4.33 c0.208,0.113,1.44,0.795,1.44,0.786c2.097,0.867,4.108,0.94,6.23-0.042c0,0.008,0,0.016,0,0.025 c0.013-0.008,1.336-0.666,1.586-0.834c1.006-0.676,2.032-1.352,2.917-2.16c1.755-1.602,3.411-3.3,3.584-5.862 c1.488-0.134,2.105-1.148,2.423-2.375c0.311-1.202,0.537-2.425,0.788-3.641C67.678,42.21,67.112,41.316,65.903,41.011z M41.833,48.515c-0.746,0.019-1.24-0.275-1.501-1.109c-0.358-1.143-0.892-3.528-0.898-3.549c-0.564-1.739,0.501-2.511,2.399-2.146 v1.01c-0.009,0-0.019,0.839,0.001,0.843L41.833,48.515L41.833,48.515z M63.402,49.708c-0.004,0.451-0.079,0.96-0.305,1.343 c-2.081,3.523-5.01,6.085-9.207,7.102c-1.456,0.353-2.82-0.154-4.087-0.761c-2.653-1.272-4.776-3.139-6.398-5.516 c-0.531-0.779-0.816-1.615-0.775-2.572c0.054-1.264,0.013-2.532,0.013-3.799c0-0.156,0.012-0.312-0.002-0.466 c-0.312-3.477,0.411-9.918,0.411-10.045c0-4.187,4.404-7.593,9.818-7.593s9.995,3.406,9.995,7.593c0,0.086,0.034,0.187,0.031,0.272 c0.371,0.355,0.097,3.739,0.482,5.446c0.043,0.193,0.036,0.398,0.036,0.597C63.417,44.109,63.429,46.909,63.402,49.708z M66.738,43.086c-0.276,1.458-0.612,2.909-1.021,4.338c-0.231,0.807-0.666,1.05-1.492,1.128v-4.977 c0.002-0.001,0.004-0.001,0.005-0.001c-0.001-0.016-0.004-0.03-0.004-0.047v-1.051c-0.006-0.003-0.012-0.006-0.018-0.009v-0.839 c0.444,0,0.857-0.027,1.266,0.006C66.3,41.701,66.886,42.301,66.738,43.086z"/><path fill="#8e7469" d="M42.026,44.033c-0.013-0.187-0.015-0.375,0.005-0.561l-1.399,0.271l0.507,2.542l0.565-0.103 l-0.401-2.009L42.026,44.033z" opacity=".8"/><path fill="#472b29" d="M52.963 48.494c.707 0 1.393-.309 1.835-.826.044-.052.038-.13-.013-.175l0 0c-.052-.044-.13-.039-.175.012-.36.411-.96.647-1.646.647-.687 0-1.287-.236-1.647-.647-.025-.028-.059-.042-.094-.042-.029 0-.058.01-.081.03-.052.045-.058.123-.013.175C51.57 48.185 52.256 48.494 52.963 48.494zM50.706 38.935l.449-.862c-1.898-.445-4.083-.374-5.887.186l.566.84C47.316 38.609 49.139 38.547 50.706 38.935zM60.21 38.935l.449-.862c-1.898-.445-4.083-.374-5.887.186l.566.84C56.82 38.609 58.643 38.547 60.21 38.935zM47.974 40.151c-.456 0-.856.302-1.087.757.058-.018.117-.03.18-.03.374 0 .677.338.677.756s-.303.756-.677.756c-.122 0-.236-.039-.335-.103.16.685.655 1.184 1.242 1.184.716 0 1.297-.743 1.297-1.66S48.691 40.151 47.974 40.151zM57.897 40.151c-.389 0-.737.22-.975.568.074-.031.154-.051.238-.051.374 0 .677.338.677.756 0 .417-.303.756-.677.756-.232 0-.436-.131-.558-.329.017.898.59 1.62 1.295 1.62.716 0 1.297-.743 1.297-1.66C59.194 40.894 58.614 40.151 57.897 40.151zM58.447 50.417c.053-.043.061-.122.018-.174l0 0c-.043-.053-.121-.062-.175-.019-1.169.932-3.111 1.467-5.327 1.467s-4.158-.535-5.328-1.467c-.023-.018-.05-.027-.078-.027-.036 0-.073.016-.097.046-.043.053-.035.131.018.175 1.32 1.079 3.37 1.723 5.484 1.723C55.077 52.14 57.127 51.496 58.447 50.417z"/><path fill="#68c8d0" d="M68.004,65.108c-0.673-0.482-1.449-0.836-2.271-1.067l-0.865-0.233 c0.006-0.002,0.012-0.003,0.017-0.005l-4.508-1.483c-2.287,0.623-4.741,0.965-7.299,0.965s-5.012-0.343-7.299-0.965l-4.508,1.483 c0.006,0.002,0.012,0.003,0.018,0.005l-0.887,0.239c-0.707,0.198-1.386,0.481-1.982,0.876c-3.117,2.064-3.206,5.441-3.335,6.069 c-0.011,0.054,0.035,0.102,0.095,0.102h17.898h17.898c0.061,0,0.106-0.049,0.095-0.102C70.946,70.383,70.901,67.183,68.004,65.108z"/><path fill="#472b29" d="M52.992,63.536c-2.409,0-5.231-0.392-7.743-1.075c-0.133-0.036-0.212-0.174-0.176-0.307 s0.172-0.21,0.307-0.176c2.471,0.672,5.246,1.058,7.612,1.058c0.929,0,1.867-0.047,2.79-0.139c0.143-0.015,0.26,0.088,0.273,0.225 c0.014,0.137-0.086,0.26-0.224,0.273C54.893,63.488,53.938,63.536,52.992,63.536z"/><g><path fill="#472b29" d="M57.622,63.154c-0.12,0-0.226-0.087-0.246-0.21c-0.022-0.136,0.07-0.265,0.206-0.287 c0.188-0.03,0.377-0.064,0.563-0.1c0.171-0.032,0.342-0.066,0.513-0.102c0.133-0.021,0.267,0.059,0.295,0.195 c0.027,0.135-0.06,0.267-0.195,0.295c-0.172,0.035-0.346,0.069-0.521,0.103c-0.191,0.036-0.383,0.07-0.575,0.103 C57.649,63.153,57.635,63.154,57.622,63.154z"/></g><g><path fill="#472b29" d="M35.18,71.246c-0.028,0-0.057-0.008-0.082-0.024c-0.069-0.046-0.089-0.139-0.043-0.208l4.825-7.383 c0.045-0.069,0.139-0.09,0.208-0.044s0.089,0.139,0.043,0.208l-4.825,7.383C35.277,71.221,35.229,71.246,35.18,71.246z"/></g><g><path fill="#472b29" d="M36.666,71.494c-0.028,0-0.057-0.008-0.082-0.024c-0.069-0.046-0.089-0.139-0.043-0.208l5.388-8.244 c0.045-0.07,0.139-0.09,0.208-0.044s0.089,0.139,0.043,0.208l-5.388,8.244C36.763,71.469,36.715,71.494,36.666,71.494z"/></g><g><path fill="#472b29" d="M38.504,71.246c-0.028,0-0.057-0.008-0.082-0.024c-0.069-0.046-0.089-0.139-0.043-0.208l5.388-8.244 c0.045-0.069,0.139-0.089,0.208-0.044c0.069,0.046,0.089,0.139,0.043,0.208l-5.388,8.244 C38.601,71.221,38.553,71.246,38.504,71.246z"/></g><g><path fill="#472b29" d="M40.006,71.494c-0.028,0-0.057-0.008-0.082-0.024c-0.069-0.046-0.089-0.139-0.043-0.208l5.388-8.244 c0.046-0.07,0.139-0.09,0.208-0.044s0.089,0.139,0.043,0.208l-5.388,8.244C40.102,71.469,40.054,71.494,40.006,71.494z"/></g><g><path fill="#472b29" d="M41.561,71.676c-0.028,0-0.057-0.008-0.082-0.024c-0.069-0.046-0.089-0.139-0.043-0.208l3.828-5.857 c0.045-0.069,0.139-0.089,0.208-0.044c0.069,0.046,0.089,0.139,0.043,0.208l-3.828,5.857C41.657,71.652,41.61,71.676,41.561,71.676 z"/></g><g><path fill="#472b29" d="M43.172,71.86c-0.028,0-0.057-0.008-0.082-0.024c-0.069-0.046-0.089-0.139-0.043-0.208l1.914-2.929 c0.045-0.069,0.138-0.089,0.208-0.044c0.069,0.046,0.089,0.139,0.043,0.208l-1.914,2.929C43.269,71.836,43.221,71.86,43.172,71.86z"/></g><g><path fill="#512c2b" d="M54.136,55.125c0.062,0,0.114-0.072,0.114-0.157c0-0.085-0.052-0.157-0.114-0.157h-2.571 c-0.062,0-0.114,0.072-0.114,0.157c0,0.085,0.052,0.157,0.114,0.157H54.136z"/></g><g><path fill="#be7841" d="M65.343,27.289c-0.075-0.565-0.683-0.48-1.283-0.444c-1.872,0.111-2.329-0.486-6.15-2.617 c-3.808-2.124-7.704-1.277-10.301,0.551C35.665,27.39,42.661,42.75,42.661,42.75s-0.044-8.085,3.65-10.543 c6.186,3.996,12.088,4.47,15.687,2.094c1.389,3.067,1.354,8.449,1.354,8.449s2.88-4.855,1.085-10.75 C63.997,30.555,65.588,29.13,65.343,27.289L65.343,27.289z"/></g><g><path fill="#472b29" d="M63.795,42.709l-0.5-0.004c0-0.052,0.018-5.063-1.241-8.082c-3.925,2.353-9.95,1.536-15.848-2.16 c-3.47,2.459-3.47,10.164-3.47,10.243l-0.5,0.002c-0.002-0.335-0.002-8.249,3.828-10.753c0.081-0.055,0.188-0.056,0.271-0.002 c5.899,3.745,11.915,4.546,15.696,2.095c0.062-0.04,0.137-0.052,0.205-0.03c0.07,0.021,0.127,0.069,0.158,0.136 C63.814,37.235,63.796,42.486,63.795,42.709z"/></g><g><path fill="#fdfcee" d="M70.305 62.492999999999995A10.429 10.429 0 1 0 70.305 83.351A10.429 10.429 0 1 0 70.305 62.492999999999995Z"/><path fill="#472b29" d="M70.305,83.852c-6.027,0-10.93-4.903-10.93-10.93s4.903-10.93,10.93-10.93 s10.93,4.903,10.93,10.93S76.332,83.852,70.305,83.852z M70.305,62.992c-5.475,0-9.93,4.454-9.93,9.93s4.455,9.93,9.93,9.93 s9.93-4.454,9.93-9.93S75.78,62.992,70.305,62.992z"/><path fill="#93bc39" d="M70.305 64.449A8.473 8.473 0 1 0 70.305 81.395A8.473 8.473 0 1 0 70.305 64.449Z"/><path fill="#472b29" d="M70.305,81.721c-4.852,0-8.799-3.947-8.799-8.799s3.947-8.799,8.799-8.799 s8.799,3.947,8.799,8.799S75.157,81.721,70.305,81.721z M70.305,64.773c-4.493,0-8.148,3.655-8.148,8.148 s3.655,8.148,8.148,8.148s8.148-3.655,8.148-8.148S74.798,64.773,70.305,64.773z"/><g><path fill="#fdfcee" d="M73.938,72.619h-3.33v-3.33c0-0.166-0.136-0.303-0.303-0.303s-0.303,0.136-0.303,0.303v3.33h-3.33 c-0.166,0-0.303,0.136-0.303,0.303s0.136,0.303,0.303,0.303h3.33v3.33c0,0.166,0.136,0.303,0.303,0.303s0.303-0.136,0.303-0.303 v-3.33h3.33c0.166,0,0.303-0.136,0.303-0.303S74.104,72.619,73.938,72.619z"/><path fill="#472b29" d="M70.305,68.987c0.166,0,0.303,0.136,0.303,0.303v3.33h3.33c0.166,0,0.303,0.136,0.303,0.303 s-0.136,0.303-0.303,0.303h-3.33v3.33c0,0.167-0.136,0.303-0.303,0.303s-0.303-0.136-0.303-0.303v-3.33h-3.33 c-0.166,0-0.303-0.136-0.303-0.303s0.136-0.303,0.303-0.303h3.33v-3.33C70.002,69.123,70.139,68.987,70.305,68.987 M70.305,68.337c-0.525,0-0.953,0.427-0.953,0.953v2.68h-2.68c-0.525,0-0.953,0.427-0.953,0.953s0.427,0.953,0.953,0.953h2.68 v2.68c0,0.525,0.427,0.953,0.953,0.953s0.953-0.427,0.953-0.953v-2.68h2.68c0.525,0,0.953-0.427,0.953-0.953 s-0.427-0.953-0.953-0.953h-2.68v-2.68C71.258,68.764,70.83,68.337,70.305,68.337L70.305,68.337z"/></g></g></svg>