<svg xmlns="http://www.w3.org/2000/svg" viewBox="0 0 16 16" width="500px" height="500px"><path fill="#8bb7f0" d="M0.5,15.5c0.3-3.4,3.4-4,3.6-4l3.9,0c0.1,0,3.2,0.7,3.5,4H0.5z"/><path fill="#4e7ab5" d="M7.9,12c0.4,0.1,2.5,0.7,3,3H1.1c0.5-2.3,2.5-2.9,3-3H7.9 M8,11H4c0,0-4,0.7-4,5h12 C12,11.7,8,11,8,11L8,11z"/><path fill="#deb974" d="M6,12.5c-0.8,0-1.3-0.4-1.5-0.6l0-3.4h3v3.4C7.3,12.1,6.9,12.5,6,12.5z"/><path fill="#967a44" d="M7,9v2.7C6.8,11.8,6.5,12,6,12c-0.5,0-0.8-0.2-1-0.3L5,9H7 M8,8H4l0,4.1c0,0,0.6,0.9,2,0.9 s2-0.9,2-0.9V8L8,8z"/><path fill="#f5ce85" d="M6,10.5c-0.2,0-0.3-0.1-0.5-0.2l-0.1-0.1l-0.1,0C3.4,9.7,2.6,7.3,2.5,6.9V5.1l0.6-2.6h5.6l0.8,2.6 v1.9c-0.1,0.4-0.9,2.7-2.8,3.2l-0.1,0l-0.1,0.1C6.3,10.4,6.2,10.5,6,10.5z"/><path fill="#967a44" d="M8.4,3L9,5.1v1.7C8.8,7.3,8.1,9.3,6.6,9.7L6.3,9.7L6.1,9.9C6.1,10,6,10,6,10s-0.1,0-0.1-0.1 L5.7,9.7L5.4,9.7C3.9,9.3,3.2,7.3,3,6.9V5.1L3.5,3H8.4 M9.1,2H2.7L2,5v2c0,0,0.8,3,3.2,3.6C5.4,10.9,5.7,11,6,11s0.6-0.1,0.8-0.4 C9.2,10,10,7,10,7V5L9.1,2L9.1,2z"/><path fill="#a6714e" d="M9.4,10.6c-0.7,0-1.2-0.7-1.5-1.1c0.3-0.4,0.8-1.3,0.8-3c0-1.1-0.8-2.2-0.8-2.2L7.6,3.8L7.2,4.1 c0,0-0.7,0.5-1.9,0.7c-1.1,0.1-2,0.9-2,1.9c0,1.5,0.5,2.3,0.8,2.7c-0.2,0.4-0.7,1.1-1.5,1.1c-0.9,0-1.7-0.5-2-0.8 C0.7,9.3,1,8.1,1,6C1,2.2,3.6,0.5,6,0.5C7.4,0.5,7.6,1,7.6,1l0.1,0.3l0.3,0C9.2,1.6,11,3.3,11,5.7c0,2,0.3,3.2,0.4,3.7 C11,9.8,10.2,10.6,9.4,10.6z"/><path fill="#7a4f34" d="M6,1c0.7,0,1,0.2,1,0.2l0.1,0.5l0.6,0.1c1,0.2,2.7,1.6,2.7,3.8c0,1.8,0.2,2.9,0.4,3.6 c-0.4,0.4-0.9,0.8-1.5,0.8c-0.3,0-0.7-0.3-0.9-0.6c0.3-0.6,0.7-1.5,0.7-3c0-1.3-0.8-2.4-0.9-2.5L7.7,3.1L6.9,3.7 c0,0-0.6,0.5-1.6,0.6C3.8,4.4,2.8,5.5,2.8,6.7c0,1.3,0.4,2.2,0.7,2.7C3.3,9.7,3,10.1,2.6,10.1c-0.6,0-1.1-0.2-1.4-0.5 C1.3,8.9,1.5,7.8,1.5,6C1.5,2,4.5,1,6,1 M6,0C3.6,0,0.5,1.7,0.5,6C0.5,9.1,0,9.9,0,9.9s1,1.1,2.6,1.1c1.4,0,2.1-1.7,2.1-1.7 S3.8,8.7,3.8,6.7c0-0.7,0.6-1.3,1.5-1.4c1.4-0.1,2.2-0.8,2.2-0.8s0.7,1,0.7,1.9c0,2.3-0.9,2.9-0.9,2.9s0.9,1.7,2.1,1.7 c1.4,0,2.6-1.6,2.6-1.6s-0.5-1.1-0.5-3.8c0-2.7-2-4.5-3.5-4.8C8,0.9,7.8,0,6,0L6,0z"/><g><path fill="#5e9c76" d="M11.5 7A4.5 4.5 0 1 0 11.5 16A4.5 4.5 0 1 0 11.5 7Z"/></g><path fill="#fff" d="M11 9H12V14H11z"/><path fill="#fff" d="M9 11H14V12H9z"/></svg>