<svg xmlns="http://www.w3.org/2000/svg" viewBox="0 0 48 48" width="50px" height="50px"><linearGradient id="DdEoZ0GcdzxzgZKLfPciTa" x1="24" x2="24" y1="6.708" y2="14.977" gradientUnits="userSpaceOnUse"><stop offset="0" stop-color="#eba600"/><stop offset="1" stop-color="#c28200"/></linearGradient><path fill="url(#DdEoZ0GcdzxzgZKLfPciTa)" d="M24.414,10.414l-2.536-2.536C21.316,7.316,20.553,7,19.757,7L5,7C3.895,7,3,7.895,3,9l0,30	c0,1.105,0.895,2,2,2l38,0c1.105,0,2-0.895,2-2V13c0-1.105-0.895-2-2-2l-17.172,0C25.298,11,24.789,10.789,24.414,10.414z"/><linearGradient id="DdEoZ0GcdzxzgZKLfPciTb" x1="24" x2="24" y1="10.854" y2="40.983" gradientUnits="userSpaceOnUse"><stop offset="0" stop-color="#ffd869"/><stop offset="1" stop-color="#fec52b"/></linearGradient><path fill="url(#DdEoZ0GcdzxzgZKLfPciTb)" d="M21.586,14.414l3.268-3.268C24.947,11.053,25.074,11,25.207,11H43c1.105,0,2,0.895,2,2v26	c0,1.105-0.895,2-2,2H5c-1.105,0-2-0.895-2-2V15.5C3,15.224,3.224,15,3.5,15h16.672C20.702,15,21.211,14.789,21.586,14.414z"/><linearGradient id="DdEoZ0GcdzxzgZKLfPciTc" x1="20.398" x2="28.857" y1="20.086" y2="33.113" gradientUnits="userSpaceOnUse"><stop offset="0" stop-color="#f44f5a"/><stop offset=".443" stop-color="#ee3d4a"/><stop offset="1" stop-color="#e52030"/></linearGradient><path fill="url(#DdEoZ0GcdzxzgZKLfPciTc)" d="M24,23.25c0,0,2.015-2.25,4.5-2.25s4.5,2.042,4.5,4.5c0,4.23-6.628,9.059-8.508,10.344	c-0.298,0.204-0.685,0.204-0.983,0C21.628,34.559,15,29.73,15,25.5c0-2.458,2.015-4.5,4.5-4.5S24,23.25,24,23.25z"/></svg>