<svg xmlns="http://www.w3.org/2000/svg" viewBox="0 0 48 48" width="500px" height="500px"><path fill="#09914a" d="M23.998,43.998c-11.045,0-20-8.955-20-20s8.955-20,20-20s20,8.955,20,20S35.043,43.998,23.998,43.998	z"/><linearGradient id="o80Vb5~S~o8rvt3P5bxgPa" x1="10.251" x2="15.3" y1="10.763" y2="30.307" gradientTransform="rotate(90 24 23.998)" gradientUnits="userSpaceOnUse"><stop offset="0" stop-color="#f2f2f2"/><stop offset=".148" stop-color="#eef1ef"/><stop offset=".282" stop-color="#e4ece8"/><stop offset=".409" stop-color="#d1e4da"/><stop offset=".533" stop-color="#b7dac8"/><stop offset=".654" stop-color="#96ccb0"/><stop offset=".773" stop-color="#6dbb92"/><stop offset=".889" stop-color="#3ea770"/><stop offset="1" stop-color="#09914a"/></linearGradient><path fill="url(#o80Vb5~S~o8rvt3P5bxgPa)" d="M23.998,23.998L9.716,9.997c7.732-7.887,20.396-8.013,28.283-0.281L23.998,23.998z"/><circle cx="23.998" cy="23.998" r="17" fill="#f2f2f2"/><path fill="#09914a" d="M35.035,17.285l-1.089-8.419c-0.069-0.534,0.386-0.989,0.92-0.92l8.419,1.089	c0.676,0.087,0.958,0.913,0.475,1.395l-7.33,7.33C35.948,18.243,35.123,17.961,35.035,17.285z"/><path fill="#e52030" d="M14.344,31v-1.983l1.559-1.749c2.268-2.475,3.749-4.262,3.758-6.123 c0-1.126-0.645-1.948-1.968-1.948c-0.996,0-1.835,0.462-2.438,0.862l-0.658-2.297c0.796-0.557,2.173-1.079,3.674-1.079 c3.154,0,4.423,2.005,4.423,4.22c0,2.548-1.668,4.572-3.424,6.404l-1.007,1.02v0.043h4.649V31H14.344z"/><path fill="#e52030" d="M29.39,31v-3.324h-5.294V25.64L28.909,17h3.236v8.311h1.481v2.365h-1.481V31H29.39z M29.39,25.311 V22.42c0-0.772,0.067-1.609,0.126-2.406l-0.072-0.001c-0.362,0.815-0.679,1.512-1.093,2.322l-1.584,2.932l-0.005,0.043H29.39z"/></svg>