<svg xmlns="http://www.w3.org/2000/svg" viewBox="0 0 48 48" width="300px" height="300px"><line x1="24" x2="24" y1="24" y2="27" fill="none" stroke="#35c1f1" stroke-linecap="round" stroke-linejoin="round" stroke-miterlimit="10" stroke-width="2"/><line x1="24" x2="24" y1="31" y2="43" fill="none" stroke="#35c1f1" stroke-linecap="round" stroke-linejoin="round" stroke-miterlimit="10" stroke-width="2"/><line x1="28" x2="28" y1="40" y2="42.543" fill="none" stroke="#35c1f1" stroke-linecap="round" stroke-linejoin="round" stroke-miterlimit="10" stroke-width="2"/><path fill="none" stroke="#35c1f1" stroke-linecap="round" stroke-linejoin="round" stroke-miterlimit="10" stroke-width="2" d="M28,36	c0-0.531,0-11.469,0-12c0-2.209-1.791-4-4-4s-4,1.791-4,4c0,0.531,0,2.469,0,3v15.543"/><path fill="none" stroke="#35c1f1" stroke-linecap="round" stroke-linejoin="round" stroke-miterlimit="10" stroke-width="2" d="M32,28	c0,0,0-3.712,0-4c0-4.418-3.582-8-8-8c-1.141,0-2.225,0.243-3.207,0.674"/><line x1="32" x2="32" y1="41.131" y2="32" fill="none" stroke="#35c1f1" stroke-linecap="round" stroke-linejoin="round" stroke-miterlimit="10" stroke-width="2"/><path fill="none" stroke="#35c1f1" stroke-linecap="round" stroke-linejoin="round" stroke-miterlimit="10" stroke-width="2" d="M17.642,19.159C16.616,20.504,16,22.178,16,24c0,0.874,0,17.131,0,17.131"/><path fill="none" stroke="#35c1f1" stroke-linecap="round" stroke-linejoin="round" stroke-miterlimit="10" stroke-width="2" d="M36,38.677c0,0,0-13.459,0-14.677c0-6.627-5.373-12-12-12s-12,5.373-12,12c0,1.218,0,4,0,4"/><line x1="12" x2="12" y1="38.677" y2="32" fill="none" stroke="#35c1f1" stroke-linecap="round" stroke-linejoin="round" stroke-miterlimit="10" stroke-width="2"/><path fill="none" stroke="#35c1f1" stroke-linecap="round" stroke-linejoin="round" stroke-miterlimit="10" stroke-width="2" d="M40,34	c0,0,0-7.876,0-10c0-4.717-2.053-8.943-5.3-11.872"/><path fill="none" stroke="#35c1f1" stroke-linecap="round" stroke-linejoin="round" stroke-miterlimit="10" stroke-width="2" d="M31.366,9.806C29.16,8.658,26.659,8,24,8c-5.929,0-11.093,3.233-13.857,8.025"/><path fill="none" stroke="#35c1f1" stroke-linecap="round" stroke-linejoin="round" stroke-miterlimit="10" stroke-width="2" d="M8.579,19.789C8.212,21.133,8,22.54,8,24c0,2.124,0,10,0,10"/><path fill="none" stroke="#35c1f1" stroke-linecap="round" stroke-linejoin="round" stroke-miterlimit="10" stroke-width="2" d="M44,27	c0,0,0-2.494,0-3c0-0.874-0.075-1.728-0.184-2.572"/><path fill="none" stroke="#35c1f1" stroke-linecap="round" stroke-linejoin="round" stroke-miterlimit="10" stroke-width="2" d="M8.089,11.917C5.534,15.277,4,19.454,4,24c0,0.506,0,2,0,2"/><path fill="none" stroke="#35c1f1" stroke-linecap="round" stroke-linejoin="round" stroke-miterlimit="10" stroke-width="2" d="M42.894,17.488C40.19,9.644,32.762,4,24,4c-5.057,0-9.662,1.892-13.184,4.988"/></svg>