<svg xmlns="http://www.w3.org/2000/svg" viewBox="0 0 48 48" width="300px" height="300px"><path fill="none" stroke="#f66" stroke-linecap="round" stroke-miterlimit="10" stroke-width="2" d="M11,27	c6.232,0,9.497-3.775,11.196-7.405c0.717-1.532,2.891-1.532,3.608,0C27.503,23.225,30.768,27,37,27"/><path fill="#f66" d="M26,15V6c0-0.552-0.448-1-1-1h-2c-0.552,0-1,0.448-1,1v9c0,5-3,7-3,7v2c0,0,4-5,5-5s5,5,5,5v-2	C29,22,26,20,26,15z"/><linearGradient id="Vlo2Il1dgfQnOhwTNQNZTa" x1="37" x2="37" y1="8.932" y2="43.242" gradientUnits="userSpaceOnUse"><stop offset="0" stop-color="#f44f5a"/><stop offset=".443" stop-color="#ee3d4a"/><stop offset="1" stop-color="#e52030"/></linearGradient><path fill="url(#Vlo2Il1dgfQnOhwTNQNZTa)" d="M46,36.643C46,39.523,43.633,42,39.647,42C35.047,42,28,41.245,28,32.357V20.286	C28,15,31.196,9,33.176,9C38,9,46,20.623,46,36.643z"/><linearGradient id="Vlo2Il1dgfQnOhwTNQNZTb" x1="63" x2="63" y1="8.932" y2="43.242" gradientTransform="matrix(-1 0 0 1 74 0)" gradientUnits="userSpaceOnUse"><stop offset="0" stop-color="#f44f5a"/><stop offset=".443" stop-color="#ee3d4a"/><stop offset="1" stop-color="#e52030"/></linearGradient><path fill="url(#Vlo2Il1dgfQnOhwTNQNZTb)" d="M14.824,9C16.804,9,20,15,20,20.286v12.071C20,41.245,12.953,42,8.353,42	C4.367,42,2,39.523,2,36.643C2,20.623,10,9,14.824,9z"/><linearGradient id="Vlo2Il1dgfQnOhwTNQNZTc" x1="22.5" x2="25.5" y1="6.5" y2="9.5" gradientUnits="userSpaceOnUse"><stop offset="0" stop-color="#f44f5a"/><stop offset=".443" stop-color="#ee3d4a"/><stop offset="1" stop-color="#e52030"/></linearGradient><rect width="4" height="2" x="22" y="7" fill="url(#Vlo2Il1dgfQnOhwTNQNZTc)"/><linearGradient id="Vlo2Il1dgfQnOhwTNQNZTd" x1="22.5" x2="25.5" y1="10.5" y2="13.5" gradientUnits="userSpaceOnUse"><stop offset="0" stop-color="#f44f5a"/><stop offset=".443" stop-color="#ee3d4a"/><stop offset="1" stop-color="#e52030"/></linearGradient><rect width="4" height="2" x="22" y="11" fill="url(#Vlo2Il1dgfQnOhwTNQNZTd)"/></svg>