<svg xmlns="http://www.w3.org/2000/svg" viewBox="0 0 48 48" width="50px" height="50px"><radialGradient id="3sjr5VFeXrN29I3pWTc1pa" cx="23" cy="23" r="19" gradientUnits="userSpaceOnUse"><stop offset=".078" stop-color="#fff"/><stop offset=".202" stop-color="#fff5a3"/><stop offset=".216" stop-color="#fff392"/><stop offset=".263" stop-color="#ffee5f"/><stop offset=".307" stop-color="#ffea37"/><stop offset=".347" stop-color="#ffe71a"/><stop offset=".382" stop-color="#ffe508"/><stop offset=".408" stop-color="#ffe402"/><stop offset=".545" stop-color="#fdde02"/><stop offset=".736" stop-color="#f9cc01"/><stop offset=".956" stop-color="#f2af00"/><stop offset="1" stop-color="#f0a800"/></radialGradient><circle cx="23" cy="23" r="19" fill="url(#3sjr5VFeXrN29I3pWTc1pa)"/><radialGradient id="3sjr5VFeXrN29I3pWTc1pb" cx="20.677" cy="37.463" r="10.066" gradientUnits="userSpaceOnUse"><stop offset="0" stop-color="#6e757b"/><stop offset="1" stop-color="#4a4e52"/></radialGradient><path fill="url(#3sjr5VFeXrN29I3pWTc1pb)" d="M28,38H18c0,0.712,0,2,0,2c0,2.761,2.239,5,5,5s5-2.239,5-5C28,40,28,38.712,28,38z"/><path fill="#fefefe" d="M33,23c0-5.523-4.477-10-10-10s-10,4.477-10,10c0,5,5,9,5,14v1h10v-1C28,32,33,28,33,23z"/></svg>