<svg xmlns="http://www.w3.org/2000/svg" viewBox="0 0 48 48" width="50px" height="50px"><path fill="#ff8f6b" d="M41,6v36c0,1.105-0.895,2-2,2h-5V4h5C40.105,4,41,4.895,41,6z"/><linearGradient id="_re1mc9aB2unPp0WOKyOoa" x1="527.856" x2="527.856" y1="248.695" y2="251.837" gradientTransform="rotate(-90 169.067 382.79)" gradientUnits="userSpaceOnUse"><stop offset=".441" stop-color="#999998"/><stop offset=".653" stop-color="#c1c1c0"/><stop offset=".88" stop-color="#e5e5e5"/><stop offset="1" stop-color="#f3f3f3"/></linearGradient><path fill="url(#_re1mc9aB2unPp0WOKyOoa)" d="M39,6v36c0,1.105-0.895,2-2,2h-6V4h6C38.105,4,39,4.895,39,6z"/><linearGradient id="_re1mc9aB2unPp0WOKyOob" x1="3.638" x2="15.691" y1="8.572" y2="41.405" gradientUnits="userSpaceOnUse"><stop offset="0" stop-color="#ca4e2a"/><stop offset="1" stop-color="#b63016"/></linearGradient><path fill="url(#_re1mc9aB2unPp0WOKyOob)" d="M7,6v36c0,1.105,0.895,2,2,2h2V4H9C7.895,4,7,4.895,7,6z"/><path fill="#ff8f6b" d="M35,4H11v40h24c1.105,0,2-0.895,2-2V6C37,4.895,36.105,4,35,4z"/><path fill="#b63016" d="M16,20h3.993v1.421h-2.317v1.946h2.172v1.378h-2.172V28H16V20z"/><path fill="#b63016" d="M21.277,20.062c0.48-0.101,1.236-0.162,2.008-0.162c0.877,0,1.603,0.099,2.176,0.528	c0.483,0.344,0.741,0.891,0.741,1.521c0,0.711-0.383,1.396-1.222,1.747v0.039c0.934,0.261,1.49,1.01,1.49,1.943	c0,0.695-0.26,1.237-0.682,1.635c-0.521,0.507-1.4,0.79-2.858,0.79c-0.707,0-1.272-0.044-1.653-0.102V20.062z M22.959,23.22h0.419	c0.703,0,1.15-0.445,1.15-1.075c0-0.591-0.339-0.999-1.032-0.999c-0.25,0-0.42,0.018-0.537,0.052V23.22z M22.959,26.79	c0.126,0.025,0.273,0.03,0.467,0.03c0.694,0,1.283-0.363,1.283-1.182c0-0.799-0.604-1.18-1.316-1.181h-0.434V26.79z"/><path fill="#b63016" d="M27.389,28v-1.095l0.861-0.965c1.251-1.366,2.069-2.353,2.074-3.381c0-0.621-0.356-1.075-1.087-1.075	c-0.55,0-1.013,0.255-1.346,0.476l-0.363-1.268c0.439-0.308,1.199-0.596,2.028-0.596c1.741,0,2.442,1.107,2.442,2.33	c0,1.407-0.922,2.524-1.891,3.536l-0.557,0.563v0.024h2.566V28H27.389z"/></svg>