<svg xmlns="http://www.w3.org/2000/svg" width="100" height="100" viewBox="0 0 48 48"><path fill="#2196f3" d="M7 42h10V32L7 42zM41 6L31 6v10L41 6zM27.3 8.3C26.1 8.1 24.8 8 23.6 8l-.1-4c.2 0 .4 0 .5 0 1.4 0 2.8.1 4.1.4L27.3 8.3zM16.8 9.7l-1.8-3.6c1.4-.7 2.9-1.3 4.4-1.6l.9 3.9C19 8.7 17.9 9.2 16.8 9.7z"/><path fill="#2196f3" d="M12.3 40.2C7.1 36.5 4 30.4 4 24c0-5.9 2.6-11.5 7.1-15.3l2.6 3.1C10.1 14.8 8 19.3 8 24c0 5.1 2.5 10 6.6 13L12.3 40.2zM24 44c-1.3 0-2.7-.1-4-.4l.8-3.9c1.1.2 2.2.3 3.3.3.2 0 .3 0 .5 0l.1 4C24.4 44 24.2 44 24 44zM28.7 43.4l-.9-3.9c1.2-.3 2.4-.7 3.5-1.3l1.8 3.6C31.7 42.5 30.2 43.1 28.7 43.4zM36.9 39.3l-2.6-3.1C37.9 33.2 40 28.7 40 24c0-5.1-2.5-10-6.7-13l2.3-3.2C40.9 11.5 44 17.6 44 24 44 29.9 41.4 35.5 36.9 39.3z"/></svg>