<svg xmlns="http://www.w3.org/2000/svg" width="500" height="500" viewBox="0 0 48 48"><path fill="#b0bec5" d="M13,23.9h-2c0-10.2,6.9-16,19-16v2C19,9.9,13,14.8,13,23.9z"/><path fill="#b0bec5" d="M30 29.9c-.5 0-11.4-.1-18.6-5.2l1.2-1.6c6.7 4.8 17.3 4.8 17.4 4.8V29.9zM30 4.7v8.1l4.1-4.1L30 4.7zM30 24.9V33l4.1-4.1L30 24.9z"/><path fill="#00bcd4" d="M42 8.9c0 2.2-1.8 4-4 4s-4-1.8-4-4c0-2.2 1.8-4 4-4S42 6.6 42 8.9zM42 28.9c0 2.2-1.8 4-4 4s-4-1.8-4-4c0-2.2 1.8-4 4-4S42 26.6 42 28.9z"/><path fill="#80deea" d="M42 18.9c0 2.2-1.8 4-4 4s-4-1.8-4-4c0-2.2 1.8-4 4-4S42 16.6 42 18.9zM42 38.9c0 2.2-1.8 4-4 4s-4-1.8-4-4c0-2.2 1.8-4 4-4S42 36.6 42 38.9z"/><path fill="#0097a7" d="M18,23.9c0,3.3-2.7,6-6,6s-6-2.7-6-6c0-3.3,2.7-6,6-6S18,20.5,18,23.9z"/></svg>