<svg xmlns="http://www.w3.org/2000/svg" width="500" height="500" viewBox="0 0 48 48"><path fill="#90a4ae" d="M40,35v5H8v-5H4v5c0,2.2,1.8,4,4,4h32c2.2,0,4-1.8,4-4v-5H40z"/><path fill="#1565c0" d="M31 12L17 12 24 4z"/><path fill="#1565c0" d="M22 9H26V23H22zM28 35h4c0-3 0-4.7.5-5.6s2.2-1.9 5.2-3.5l1.2-.6L37 21.8l-1.1.7C28.4 26.6 28 27.3 28 35z"/><path fill="#1565c0" d="M34 19L44 20.4 40 29.4zM20 35h-4c0-3 0-4.7-.6-5.5-.5-.9-2.2-1.9-5.2-3.5L9 25.4l1.9-3.5 1.2.6C19.6 26.6 20 27.3 20 35z"/><path fill="#1565c0" d="M8 29.4L4 20.4 14 19z"/></svg>