<svg xmlns="http://www.w3.org/2000/svg" width="500" height="500" viewBox="0 0 48 48"><path fill="#2196f3" d="M41 6v10H31L41 6zM14.41 36.786l-2.392 3.188c1.427 1.077 3.006 1.953 4.692 2.623l1.454-3.712C16.812 38.355 15.554 37.645 14.41 36.786zM9.11 29.826l-3.72 1.456c.691 1.756 1.628 3.388 2.763 4.864l3.16-2.424C10.407 32.541 9.662 31.234 9.11 29.826zM24 40c-.646 0-1.279-.049-1.904-.124l-.476 3.967C22.401 43.934 23.19 44 24 44c.424 0 .843-.037 1.258-.066l-.25-3.985C24.673 39.97 24.34 40 24 40z"/><path fill="#2196f3" d="M8 24c0-8.837 7.163-16 16-16 5.386 0 10.14 2.67 13.04 6.75l3.259-2.3C36.673 7.347 30.727 4 24 4 12.972 4 4 12.972 4 24c0 .559.037 1.114.082 1.657l3.985-.328C8.031 24.89 8 24.449 8 24zM28.834 39.253l1.206 3.81c1.016-.321 1.994-.724 2.932-1.192l-1.801-3.582C30.422 38.665 29.645 38.996 28.834 39.253zM38.219 31.315l3.557 1.817c.493-.954.913-1.957 1.246-2.993l-3.798-1.226C38.955 29.747 38.615 30.547 38.219 31.315zM43.93 22.688l-3.983.258C39.97 23.296 40 23.644 40 24c0 .454-.031.901-.068 1.346l3.99.344C43.967 25.131 44 24.567 44 24 44 23.556 43.963 23.124 43.93 22.688zM34.412 36.133l2.598 3.027c.81-.691 1.563-1.447 2.249-2.257l-3.055-2.569C35.656 34.981 35.055 35.581 34.412 36.133z"/></svg>