<svg xmlns="http://www.w3.org/2000/svg" width="50" height="50" viewBox="0 0 48 48"><path fill="#CFD8DC" d="M38.4,13L24.1,6.4L4.6,12.1l8.8,13.2l-2.2,15.1h22.7l6.6-13.3L38.4,13z M32.1,37.5H14.7l1.8-12.9L9.4,13.9l14.5-4.3L35.6,15l1.8,11.7L32.1,37.5z"/><path fill="#00BCD4" d="M24 4A4 4 0 1 0 24 12 4 4 0 1 0 24 4zM37 10A4 4 0 1 0 37 18 4 4 0 1 0 37 10zM39 23A4 4 0 1 0 39 31 4 4 0 1 0 39 23zM7 9A4 4 0 1 0 7 17 4 4 0 1 0 7 9zM13 35A4 4 0 1 0 13 43 4 4 0 1 0 13 35zM15 21A4 4 0 1 0 15 29 4 4 0 1 0 15 21zM33 35A4 4 0 1 0 33 43 4 4 0 1 0 33 35z"/></svg>