<svg xmlns="http://www.w3.org/2000/svg" viewBox="0 0 48 48" width="100px" height="100px"><path fill="#2196f3" d="M6 7v10h10L6 7zM34.972 35.622l2.737 2.898c-1.296 1.231-2.766 2.28-4.366 3.136l-1.864-3.524C32.762 37.452 33.932 36.604 34.972 35.622zM39.452 28.108l3.861 1.027c-.488 1.823-1.235 3.55-2.196 5.145l-3.413-2.052C38.47 30.952 39.063 29.569 39.452 28.108zM25.806 39.898c.642-.073 1.265-.193 1.878-.338l.921 3.888c-.766.179-1.542.333-2.347.425-.421.048-.842.058-1.257.076l-.201-3.988C25.134 39.944 25.468 39.936 25.806 39.898z"/><path fill="#2196f3" d="M39.898 22.194C38.9 13.413 30.974 7.105 22.194 8.102 16.842 8.71 12.42 11.9 9.999 16.281l-3.498-1.917c3.027-5.48 8.557-9.476 15.241-10.236 10.958-1.245 20.885 6.657 22.13 17.615.063.555.089 1.111.106 1.656l-3.997.124C39.967 23.082 39.948 22.64 39.898 22.194zM20.919 39.701l-.768 3.922c-1.046-.204-2.063-.494-3.048-.853l1.385-3.762C19.274 39.296 20.084 39.537 20.919 39.701zM10.698 32.873L7.368 35.08c-.598-.892-1.128-1.841-1.576-2.833L9.428 30.6C9.789 31.398 10.217 32.155 10.698 32.873zM4.049 24.946l3.987-.193c.017.35.026.7.066 1.053.051.451.133.892.22 1.33l-3.926.792c-.108-.55-.204-1.107-.268-1.67C4.078 25.816 4.066 25.383 4.049 24.946zM15.024 37.231l-2.24 3.301c-.883-.595-1.716-1.261-2.489-1.989l2.745-2.897C13.658 36.227 14.323 36.755 15.024 37.231z"/><path fill="#37474f" d="M22.015 -3.707H26.008V51.73H22.015z" transform="rotate(-45.001 24.011 24.012)"/></svg>