<svg xmlns="http://www.w3.org/2000/svg" viewBox="0 0 48 48" width="100px" height="100px"><rect width="19" height="19" x="26" y="3" fill="#90caf9"/><rect width="13" height="2" x="32" y="5" fill="#1565c0"/><rect width="19" height="19" x="3" y="3" fill="#90caf9" transform="rotate(-180 12.5 12.5)"/><rect width="13" height="2" x="3" y="5" fill="#1565c0"/><rect width="13" height="2" x="32" y="11" fill="#1565c0"/><rect width="13" height="2" x="3" y="11" fill="#1565c0"/><rect width="19" height="19" x="26" y="26" fill="#90caf9"/><rect width="13" height="2" x="32" y="41" fill="#1565c0"/><rect width="19" height="19" x="3" y="26" fill="#90caf9" transform="rotate(180 12.5 35.5)"/><rect width="13" height="2" x="3" y="41" fill="#1565c0"/><rect width="13" height="2" x="32" y="35" fill="#1565c0"/><rect width="13" height="2" x="3" y="35" fill="#1565c0"/><rect width="13" height="2" x="32" y="5" fill="#1565c0"/><rect width="13" height="2" x="3" y="5" fill="#1565c0"/></svg>