<svg xmlns="http://www.w3.org/2000/svg" width="100" height="100" viewBox="0 0 48 48"><path fill="#9C27B0" d="M8.108 7.656L8.108 7.656 6.213 8.604l-.236-1.42L8.462 6H10v9.545H8.108V7.656zM6.273 29v-1.003l.914-.901c2.006-1.806 2.908-2.907 2.908-4.01 0-.803-.401-1.404-1.503-1.404-.803 0-1.405.401-1.806.702L6.285 21.28c.603-.501 1.505-.901 2.607-.901 1.904 0 2.807 1.203 2.807 2.606 0 1.503-1.102 2.707-2.506 4.01l-.702.702 0 0H12V29H6.273zM6.893 40.352c.29.192 1.067.483 1.842.483 1.164 0 1.648-.679 1.648-1.356 0-.97-.872-1.355-1.842-1.355H7.862V36.96h.679c.679 0 1.646-.291 1.646-1.163 0-.582-.387-1.064-1.355-1.064-.68 0-1.357.291-1.649.482L6.797 34.05c.484-.29 1.355-.581 2.325-.581 1.745 0 2.521.969 2.521 2.036 0 .871-.485 1.552-1.551 1.938l0 0c.969.192 1.745.97 1.841 2.035 0 1.356-1.163 2.521-3.198 2.521-.969 0-1.842-.292-2.326-.583L6.893 40.352z"/><g><path fill="#546E7A" d="M16 9H42V13H16zM16 22H42V26H16zM16 35H42V39H16z"/></g></svg>