<svg xmlns="http://www.w3.org/2000/svg" width="300" height="300" viewBox="0 0 48 48"><path fill="#4db6ac" d="M17 6A11 11 0 1 0 17 28A11 11 0 1 0 17 6Z"/><path fill="#64bfb7" d="M15 9A6 6 0 1 0 15 21A6 6 0 1 0 15 9Z"/><path fill="#2196f3" d="M32 7L19 28.538 32 35 45 28.538z"/><path fill="#1976d2" d="M32 7L32 35 45 28.538z"/><path fill="#f48583" d="M14 19L3 23.3 14 27.7 25 23.3z"/><path fill="#ef5350" d="M14 27.7L3 23.3 3 36.5 14 42z"/><path fill="#c62828" d="M14 27.7L25 23.3 25 36.5 14 42z"/></svg>