<svg xmlns="http://www.w3.org/2000/svg" width="500" height="500" viewBox="0 0 48 48"><path fill="#1e88e5" d="M32,30H8c-1.657,0-3-1.343-3-3V9c0-1.657,1.343-3,3-3h24c1.657,0,3,1.343,3,3v18C35,28.657,33.657,30,32,30z"/><path fill="#bbdefb" d="M32,28H8c-0.552,0-1-0.448-1-1V9c0-0.552,0.448-1,1-1h24c0.552,0,1,0.448,1,1v18C33,27.552,32.552,28,32,28z"/><path fill="#1e88e5" d="M40,42H16c-1.657,0-3-1.343-3-3V21c0-1.657,1.343-3,3-3h24c1.657,0,3,1.343,3,3v18C43,40.657,41.657,42,40,42z"/><path fill="#bbdefb" d="M40,40H16c-0.552,0-1-0.448-1-1V21c0-0.552,0.448-1,1-1h24c0.552,0,1,0.448,1,1v18C41,39.552,40.552,40,40,40z"/></svg>