<svg xmlns="http://www.w3.org/2000/svg" width="300" height="300" viewBox="0 0 48 48"><path fill="#455a64" d="M42,19H6V9c0-1.657,1.343-3,3-3h30c1.657,0,3,1.343,3,3V19z"/><path fill="#bbdefb" d="M6,16h36v23c0,1.657-1.343,3-3,3H9c-1.657,0-3-1.343-3-3V16z"/><path fill="#8bc34a" d="M11 9A2 2 0 1 0 11 13A2 2 0 1 0 11 9Z"/><path fill="#ffeb3b" d="M17 9A2 2 0 1 0 17 13A2 2 0 1 0 17 9Z"/><path fill="#fafafa" d="M39,12c0,0.553-0.447,1-1,1H23c-0.553,0-1-0.447-1-1v-2c0-0.553,0.447-1,1-1h15c0.553,0,1,0.447,1,1 V12z"/><path fill="#3f51b5" d="M30.924,33.235l-5.507-8c-0.182-0.293-0.666-0.293-0.848,0l-5.507,8 c-0.097,0.153-0.088,0.348,0,0.507S19.318,34,19.5,34H23c0,7.375-2.377,10.49-9,10c1.604,0.667,3.712,0.986,5.125,0.996 C25.482,45.041,27,39.921,27,34h3.5c0.182,0,0.35-0.099,0.438-0.258S31.021,33.388,30.924,33.235z"/></svg>