<svg xmlns="http://www.w3.org/2000/svg" viewBox="0 0 100 100" width="100px" height="100px"><path fill="#c7ede6" d="M87.215,56.71C88.35,54.555,89,52.105,89,49.5c0-6.621-4.159-12.257-10.001-14.478 C78.999,35.015,79,35.008,79,35c0-11.598-9.402-21-21-21c-9.784,0-17.981,6.701-20.313,15.757C36.211,29.272,34.638,29,33,29 c-7.692,0-14.023,5.793-14.89,13.252C12.906,43.353,9,47.969,9,53.5C9,59.851,14.149,65,20.5,65c0.177,0,0.352-0.012,0.526-0.022 C21.022,65.153,21,65.324,21,65.5C21,76.822,30.178,86,41.5,86c6.437,0,12.175-2.972,15.934-7.614C59.612,80.611,62.64,82,66,82 c4.65,0,8.674-2.65,10.666-6.518C77.718,75.817,78.837,76,80,76c6.075,0,11-4.925,11-11C91,61.689,89.53,58.727,87.215,56.71z"/><path fill="#fff" d="M25.5 37h-10c-.276 0-.5-.224-.5-.5s.224-.5.5-.5h10c.276 0 .5.224.5.5S25.777 37 25.5 37zM28.5 37h-1c-.276 0-.5-.224-.5-.5s.224-.5.5-.5h1c.276 0 .5.224.5.5S28.777 37 28.5 37zM33.491 39H24.5c-.276 0-.5-.224-.5-.5s.224-.5.5-.5h8.991c.276 0 .5.224.5.5S33.767 39 33.491 39zM22.5 39h-1c-.276 0-.5-.224-.5-.5s.224-.5.5-.5h1c.276 0 .5.224.5.5S22.777 39 22.5 39zM19.5 39h-2c-.276 0-.5-.224-.5-.5s.224-.5.5-.5h2c.276 0 .5.224.5.5S19.777 39 19.5 39zM25.5 41h-2c-.276 0-.5-.224-.5-.5s.224-.5.5-.5h2c.276 0 .5.224.5.5S25.776 41 25.5 41zM28.5 32c-.177 0-.823 0-1 0-.276 0-.5.224-.5.5 0 .276.224.5.5.5.177 0 .823 0 1 0 .276 0 .5-.224.5-.5C29 32.224 28.776 32 28.5 32zM28.5 34c-.177 0-4.823 0-5 0-.276 0-.5.224-.5.5 0 .276.224.5.5.5.177 0 4.823 0 5 0 .276 0 .5-.224.5-.5C29 34.224 28.776 34 28.5 34zM33.5 36c-.177 0-2.823 0-3 0-.276 0-.5.224-.5.5 0 .276.224.5.5.5.177 0 2.823 0 3 0 .276 0 .5-.224.5-.5C34 36.224 33.776 36 33.5 36zM86.5 60h-10c-.276 0-.5-.224-.5-.5s.224-.5.5-.5h10c.276 0 .5.224.5.5S86.776 60 86.5 60zM90.5 60h-2c-.276 0-.5-.224-.5-.5s.224-.5.5-.5h2c.276 0 .5.224.5.5S90.776 60 90.5 60zM95.5 62h-10c-.276 0-.5-.224-.5-.5s.224-.5.5-.5h10c.276 0 .5.224.5.5S95.777 62 95.5 62zM83.5 62h-1c-.276 0-.5-.224-.5-.5s.224-.5.5-.5h1c.276 0 .5.224.5.5S83.776 62 83.5 62zM80.47 62H78.5c-.276 0-.5-.224-.5-.5s.224-.5.5-.5h1.97c.276 0 .5.224.5.5S80.746 62 80.47 62zM89.5 58h-5c-.276 0-.5-.224-.5-.5s.224-.5.5-.5h5c.276 0 .5.224.5.5S89.777 58 89.5 58zM86.5 64h-2c-.276 0-.5-.224-.5-.5s.224-.5.5-.5h2c.276 0 .5.224.5.5S86.776 64 86.5 64z"/><g><path fill="#fdfcef" d="M76.5,42.5V43h3v-0.5c0,0,4.242,0,5.5,0c2.485,0,4.5-2.015,4.5-4.5 c0-2.333-1.782-4.229-4.055-4.455C85.467,33.364,85.5,33.187,85.5,33c0-2.485-2.015-4.5-4.5-4.5c-1.438,0-2.703,0.686-3.527,1.736 C77.333,27.6,75.171,25.5,72.5,25.5c-2.761,0-5,2.239-5,5c0,0.446,0.077,0.87,0.187,1.282C67.045,31.005,66.086,30.5,65,30.5 c-1.781,0-3.234,1.335-3.455,3.055C61.364,33.533,61.187,33.5,61,33.5c-2.485,0-4.5,2.015-4.5,4.5s2.015,4.5,4.5,4.5s9.5,0,9.5,0 H76.5z"/><path fill="#472b29" d="M72.5,25c-3.033,0-5.5,2.467-5.5,5.5c0,0.016,0,0.031,0,0.047C66.398,30.192,65.71,30,65,30 c-1.831,0-3.411,1.261-3.858,3.005C61.095,33.002,61.048,33,61,33c-2.757,0-5,2.243-5,5s2.243,5,5,5h15.5 c0.276,0,0.5-0.224,0.5-0.5S76.776,42,76.5,42H61c-2.206,0-4-1.794-4-4s1.794-4,4-4c0.117,0,0.23,0.017,0.343,0.032l0.141,0.019 c0.021,0.003,0.041,0.004,0.062,0.004c0.246,0,0.462-0.185,0.495-0.437C62.232,32.125,63.504,31,65,31 c0.885,0,1.723,0.401,2.301,1.1c0.098,0.118,0.241,0.182,0.386,0.182c0.078,0,0.156-0.018,0.228-0.056 c0.209-0.107,0.314-0.346,0.254-0.573C68.054,31.218,68,30.852,68,30.5c0-2.481,2.019-4.5,4.5-4.5 c2.381,0,4.347,1.872,4.474,4.263c0.011,0.208,0.15,0.387,0.349,0.45c0.05,0.016,0.101,0.024,0.152,0.024 c0.15,0,0.296-0.069,0.392-0.192C78.638,29.563,79.779,29,81,29c2.206,0,4,1.794,4,4c0,0.117-0.017,0.23-0.032,0.343l-0.019,0.141 c-0.016,0.134,0.022,0.268,0.106,0.373c0.084,0.105,0.207,0.172,0.34,0.185C87.451,34.247,89,35.949,89,38c0,2.206-1.794,4-4,4 h-5.5c-0.276,0-0.5,0.224-0.5,0.5s0.224,0.5,0.5,0.5H85c2.757,0,5-2.243,5-5c0-2.397-1.689-4.413-4.003-4.877 C85.999,33.082,86,33.041,86,33c0-2.757-2.243-5-5-5c-1.176,0-2.293,0.416-3.183,1.164C77.219,26.76,75.055,25,72.5,25L72.5,25z"/><path fill="#472b29" d="M71 32c-1.403 0-2.609.999-2.913 2.341C67.72 34.119 67.301 34 66.875 34c-1.202 0-2.198.897-2.353 2.068C64.319 36.022 64.126 36 63.937 36c-1.529 0-2.811 1.2-2.918 2.732C61.01 38.87 61.114 38.99 61.251 39c.006 0 .012 0 .018 0 .13 0 .24-.101.249-.232.089-1.271 1.151-2.268 2.419-2.268.229 0 .47.042.738.127.022.007.045.01.067.01.055 0 .11-.02.156-.054C64.962 36.537 65 36.455 65 36.375c0-1.034.841-1.875 1.875-1.875.447 0 .885.168 1.231.473.047.041.106.063.165.063.032 0 .063-.006.093-.019.088-.035.148-.117.155-.212C68.623 33.512 69.712 32.5 71 32.5c.208 0 .425.034.682.107.023.007.047.01.07.01.109 0 .207-.073.239-.182.038-.133-.039-.271-.172-.309C71.517 32.04 71.256 32 71 32L71 32zM84.883 33.5c-1.326 0-2.508.897-2.874 2.182-.038.133.039.271.172.309C82.205 35.997 82.228 36 82.25 36c.109 0 .209-.072.24-.182C82.795 34.748 83.779 34 84.883 34c.117 0 .23.014.342.029.012.002.023.003.035.003.121 0 .229-.092.246-.217.019-.137-.077-.263-.214-.281C85.158 33.516 85.022 33.5 84.883 33.5L84.883 33.5z"/></g><g><path fill="#add4a1" d="M31.825,72.3c-0.698,0-1.463-0.379-1.861-0.923c-0.257-0.351-0.326-0.72-0.207-1.098l5.597-17.13 c0.45-1.636,1.144-2.449,2.07-2.449h27.19c0.631,0,1.437,0.275,2.064,2.428l5.605,17.158c0.102,0.465-0.13,0.896-0.345,1.164 c-0.413,0.517-1.09,0.85-1.726,0.85H31.825z"/><path fill="#472b29" d="M64.616,51.4c0.227,0,0.83,0,1.405,1.966l5.573,17.056c0.028,0.192-0.039,0.391-0.199,0.591 c-0.277,0.346-0.761,0.587-1.179,0.587h-38.39c-0.474,0-1.031-0.274-1.297-0.637c-0.177-0.242-0.128-0.398-0.108-0.46 l5.599-17.137l0.01-0.032l0.009-0.032c0.238-0.868,0.673-1.903,1.386-1.903H64.616 M64.616,50H37.425 c-1.511,0-2.308,1.375-2.736,2.931L29.09,70.069C28.584,71.667,30.314,73,31.825,73h38.39c1.511,0,3.086-1.375,2.736-2.931 l-5.599-17.137C66.885,51.333,66.127,50,64.616,50L64.616,50z"/></g><g><path fill="#add4a1" d="M47.5,69.5h19.542c1.228,0,1.719-0.557,1.318-1.837l-4.532-13.951"/><path fill="#472b29" d="M67.042,70H47.5c-0.276,0-0.5-0.224-0.5-0.5s0.224-0.5,0.5-0.5h19.542 c0.448,0,0.758-0.086,0.873-0.243c0.119-0.162,0.107-0.497-0.033-0.944l-4.53-13.946c-0.085-0.263,0.059-0.545,0.321-0.63 s0.545,0.059,0.63,0.321l4.532,13.951c0.246,0.785,0.207,1.402-0.114,1.84C68.403,69.781,67.839,70,67.042,70z"/></g><g><path fill="#472b29" d="M45.5,70h-3c-0.276,0-0.5-0.224-0.5-0.5s0.224-0.5,0.5-0.5h3c0.276,0,0.5,0.224,0.5,0.5 S45.776,70,45.5,70z"/></g><g><path fill="#472b29" d="M40.5,70h-5c-0.276,0-0.5-0.224-0.5-0.5s0.224-0.5,0.5-0.5h5c0.276,0,0.5,0.224,0.5,0.5 S40.776,70,40.5,70z"/></g><g><path fill="#ea4989" d="M51.458,62.306c-0.995,0-1.127-0.857-1.224-1.483L50.2,60.601 c-0.985-6.09-3.829-9.729-6.337-12.941c-2.341-2.996-4.362-5.584-4.362-9.375c0-6.452,5.364-11.701,11.958-11.701 s11.959,5.249,11.959,11.701c0,3.791-2.021,6.379-4.362,9.375c-2.51,3.212-5.354,6.852-6.338,12.94l-0.034,0.221 C52.586,61.447,52.455,62.306,51.458,62.306z"/><path fill="#472b29" d="M51.458,27.083c6.329,0,11.458,5.014,11.458,11.201c0,7.631-8.782,10.413-10.693,22.236 c-0.125,0.761-0.134,1.286-0.765,1.286s-0.64-0.525-0.765-1.286C48.782,48.698,40,45.915,40,38.284 C40,32.097,45.129,27.083,51.458,27.083 M51.458,26.083C44.589,26.083,39,31.557,39,38.284c0,3.963,2.17,6.741,4.468,9.683 c2.472,3.164,5.274,6.751,6.238,12.712l0.034,0.218c0.095,0.62,0.294,1.909,1.718,1.909c1.424,0,1.623-1.289,1.718-1.908 l0.034-0.216c0.964-5.964,3.766-9.551,6.238-12.715c2.298-2.941,4.468-5.719,4.468-9.683 C63.917,31.557,58.328,26.083,51.458,26.083L51.458,26.083z"/></g><g><path fill="#fffef4" d="M51.389 33.5A4.51 4.51 0 1 0 51.389 42.519999999999996A4.51 4.51 0 1 0 51.389 33.5Z"/><path fill="#472b29" d="M51.389,34c2.215,0,4.01,1.795,4.01,4.01c0,2.215-1.795,4.01-4.01,4.01s-4.01-1.795-4.01-4.01 C47.379,35.795,49.173,34,51.389,34 M51.389,33c-2.762,0-5.01,2.248-5.01,5.01s2.247,5.01,5.01,5.01s5.01-2.247,5.01-5.01 S54.151,33,51.389,33L51.389,33z"/></g><g><path fill="#472b29" d="M52.886,51.068c-0.079,0-0.158-0.019-0.233-0.058c-0.244-0.129-0.338-0.431-0.209-0.676 c1.428-2.711,4.129-6.21,5.282-7.704c0.258-0.334,0.435-0.562,0.493-0.648c0.838-1.235,1.281-2.68,1.281-4.178 c0-0.276,0.224-0.5,0.5-0.5s0.5,0.224,0.5,0.5c0,1.698-0.503,3.337-1.453,4.738c-0.063,0.093-0.252,0.339-0.53,0.699 c-1.138,1.474-3.801,4.924-5.188,7.56C53.238,50.972,53.065,51.068,52.886,51.068z"/></g><g><path fill="#472b29" d="M59.683,36.172c-0.22,0-0.421-0.146-0.482-0.367c-0.172-0.625-0.429-1.229-0.763-1.794 c-0.354-0.6-0.792-1.148-1.301-1.633c-0.201-0.189-0.209-0.506-0.019-0.706c0.19-0.202,0.508-0.207,0.706-0.019 c0.577,0.547,1.073,1.17,1.475,1.85c0.378,0.641,0.67,1.325,0.866,2.036c0.073,0.266-0.083,0.541-0.35,0.615 C59.771,36.166,59.727,36.172,59.683,36.172z"/></g><g><path fill="#472b29" d="M55.663,31.223c-0.078,0-0.156-0.018-0.23-0.056c-1.052-0.546-2.239-0.834-3.433-0.834 c-0.276,0-0.5-0.224-0.5-0.5s0.224-0.5,0.5-0.5c1.354,0,2.699,0.327,3.894,0.945c0.245,0.128,0.341,0.43,0.214,0.675 C56.019,31.124,55.844,31.223,55.663,31.223z"/></g><g><path fill="#fdfcef" d="M35.5,65.5c0,0,1.567,0,3.5,0s3.5-1.567,3.5-3.5c0-1.781-1.335-3.234-3.055-3.455 C39.473,58.366,39.5,58.187,39.5,58c0-1.933-1.567-3.5-3.5-3.5c-1.032,0-1.95,0.455-2.59,1.165 c-0.384-1.808-1.987-3.165-3.91-3.165c-2.209,0-4,1.791-4,4c0,0.191,0.03,0.374,0.056,0.558C25.128,56.714,24.592,56.5,24,56.5 c-1.228,0-2.245,0.887-2.455,2.055C21.366,58.527,21.187,58.5,21,58.5c-1.933,0-3.5,1.567-3.5,3.5s1.567,3.5,3.5,3.5s7.5,0,7.5,0 V66h7V65.5z"/><path fill="#472b29" d="M37.25 61C37.112 61 37 60.888 37 60.75c0-1.223.995-2.218 2.218-2.218.034.009.737-.001 1.244.136.133.036.212.173.176.306-.036.134-.173.213-.306.176-.444-.12-1.1-.12-1.113-.118-.948 0-1.719.771-1.719 1.718C37.5 60.888 37.388 61 37.25 61zM30.5 65A.5.5 0 1 0 30.5 66 .5.5 0 1 0 30.5 65z"/><path fill="#472b29" d="M39,66h-3.5c-0.276,0-0.5-0.224-0.5-0.5s0.224-0.5,0.5-0.5H39c1.654,0,3-1.346,3-3 c0-1.496-1.125-2.768-2.618-2.959c-0.134-0.018-0.255-0.088-0.336-0.196s-0.115-0.244-0.094-0.377C38.975,58.314,39,58.16,39,58 c0-1.654-1.346-3-3-3c-0.85,0-1.638,0.355-2.219,1c-0.125,0.139-0.321,0.198-0.5,0.148c-0.182-0.049-0.321-0.195-0.36-0.379 C32.58,54.165,31.141,53,29.5,53c-1.93,0-3.5,1.57-3.5,3.5c0,0.143,0.021,0.28,0.041,0.418c0.029,0.203-0.063,0.438-0.242,0.54 c-0.179,0.102-0.396,0.118-0.556-0.01C24.878,57.155,24.449,57,24,57c-0.966,0-1.792,0.691-1.963,1.644 c-0.048,0.267-0.296,0.446-0.569,0.405C21.314,59.025,21.16,59,21,59c-1.654,0-3,1.346-3,3s1.346,3,3,3h7.5 c0.276,0,0.5,0.224,0.5,0.5S28.776,66,28.5,66H21c-2.206,0-4-1.794-4-4s1.794-4,4-4c0.059,0,0.116,0.002,0.174,0.006 C21.588,56.82,22.711,56,24,56c0.349,0,0.689,0.061,1.011,0.18C25.176,53.847,27.126,52,29.5,52c1.831,0,3.466,1.127,4.153,2.774 C34.333,54.276,35.155,54,36,54c2.206,0,4,1.794,4,4c0,0.048-0.001,0.095-0.004,0.142C41.739,58.59,43,60.169,43,62 C43,64.206,41.206,66,39,66z"/><path fill="#472b29" d="M33.5,65c-0.159,0-0.841,0-1,0c-0.276,0-0.5,0.224-0.5,0.5c0,0.276,0.224,0.5,0.5,0.5 c0.159,0,0.841,0,1,0c0.276,0,0.5-0.224,0.5-0.5C34,65.224,33.776,65,33.5,65z"/></g></svg>