<?xml version="1.0"?><svg fill="#000000" xmlns="http://www.w3.org/2000/svg" viewBox="0 0 24 24" width="50px" height="50px">    <path d="M 3 3 L 3 4 C 3 8.539 4.8407969 12.873203 7.9667969 16.033203 C 11.126797 19.159203 15.461 21 20 21 L 21 21 L 21 15.488281 L 15.75 14.849609 L 13.210938 17.380859 C 11.678937 16.573859 10.451109 15.632891 9.4121094 14.587891 C 8.3671094 13.548891 7.4261406 12.321063 6.6191406 10.789062 L 9.1503906 8.25 L 8.5117188 3 L 3 3 z M 16 3 L 16 6 L 13 6 L 13 8 L 16 8 L 16 11 L 18 11 L 18 8 L 21 8 L 21 6 L 18 6 L 18 3 L 16 3 z"/></svg>