<?xml version="1.0"?><svg fill="#000000" xmlns="http://www.w3.org/2000/svg" viewBox="0 0 50 50" width="300px" height="300px">    <path d="M 37 0 C 30.885 0 25.755953 3.7427187 24.376953 8.7617188 C 22.489953 7.8477187 20.201453 8.0601563 18.564453 9.4101562 L 13.671875 13 L 10 13 C 9.447 13 9 13.448 9 14 L 9 17.298828 C 8.986 17.309828 8.967125 17.311266 8.953125 17.322266 L 2.3632812 22.748047 C 2.1332812 22.938047 2 23.222484 2 23.521484 L 2 46.988281 C 2 47.540281 2.447 47.988281 3 47.988281 L 40.996094 47.988281 C 41.549094 47.988281 41.996094 47.540281 41.996094 46.988281 L 41.996094 23.521484 C 41.996094 23.209484 41.849562 22.915562 41.601562 22.726562 L 41.070312 22.320312 C 46.249313 20.811312 50 16.513172 50 11.451172 C 50 5.1371719 44.168 0 37 0 z M 37 2 C 43.065 2 48 6.2401719 48 11.451172 C 48 16.663172 43.065 20.902344 37 20.902344 C 36.072 20.902344 35.171141 20.796125 34.244141 20.578125 C 33.880141 20.491125 33.498859 20.618344 33.255859 20.902344 C 32.889859 21.330344 31.649469 22.598828 29.605469 22.923828 C 30.094469 22.056828 30.357094 21.306203 30.496094 20.783203 C 30.643094 20.241203 30.669781 19.958891 30.675781 19.712891 C 30.688781 19.368891 30.521328 19.042609 30.236328 18.849609 C 27.543328 17.027609 26 14.330172 26 11.451172 C 26 6.2401719 30.935 2 37 2 z M 37 5.0996094 C 36.4 5.0996094 36 5.4996094 36 6.0996094 L 36 10 L 32.099609 10 C 31.499609 10 31.099609 10.4 31.099609 11 C 31.099609 11.6 31.499609 12 32.099609 12 L 36 12 L 36 15.900391 C 36 16.500391 36.4 16.900391 37 16.900391 C 37.6 16.900391 38 16.500391 38 15.900391 L 38 12 L 41.900391 12 C 42.500391 12 42.900391 11.6 42.900391 11 C 42.900391 10.4 42.500391 10 41.900391 10 L 38 10 L 38 6.0996094 C 38 5.4996094 37.6 5.0996094 37 5.0996094 z M 21.894531 10.205078 C 22.643281 10.186328 23.398203 10.409094 24.033203 10.871094 C 24.022203 11.064094 24 11.255172 24 11.451172 C 24 11.975172 24.054766 12.49 24.134766 13 L 17.052734 13 L 19.792969 10.988281 C 20.403969 10.484281 21.145781 10.223828 21.894531 10.205078 z M 24.632812 14.945312 C 25.366812 16.936312 26.717703 18.732672 28.595703 20.138672 C 28.585703 20.177672 28.5745 20.218672 28.5625 20.263672 C 28.4175 20.807672 28.101203 21.666109 27.408203 22.662109 L 26.873047 23.427734 C 26.660047 23.733734 26.636594 24.132891 26.808594 24.462891 C 26.980594 24.792891 27.320359 25 27.693359 25 L 28.626953 25 C 30.487953 25 31.948094 24.38775 32.996094 23.71875 L 32.996094 29.613281 L 28.613281 33.033203 L 26.833984 31.648438 C 24.030984 29.466438 19.965109 29.466437 17.162109 31.648438 L 15.384766 33.03125 L 11 29.611328 L 11 15 L 24.363281 15 C 24.458281 15 24.545812 14.970312 24.632812 14.945312 z M 9 19.875 L 9 28.050781 L 4 24.150391 L 4 23.992188 L 9 19.875 z M 34.996094 22.740234 C 35.664094 22.838234 36.334 22.902344 37 22.902344 C 37.486 22.902344 37.9655 22.874125 38.4375 22.828125 L 39.996094 24.015625 L 39.996094 24.150391 L 34.996094 28.052734 L 34.996094 22.740234 z M 4 26.6875 L 13.755859 34.298828 L 4 41.892578 L 4 26.6875 z M 39.996094 26.6875 L 39.996094 41.892578 L 30.240234 34.300781 L 39.996094 26.6875 z M 21.998047 32.003906 C 23.279297 32.003906 24.560469 32.411109 25.605469 33.224609 L 39.996094 44.427734 L 39.996094 45.988281 L 4 45.988281 L 4 44.427734 L 18.390625 33.224609 C 19.435625 32.411109 20.716797 32.003906 21.998047 32.003906 z"/></svg>