<?xml version="1.0"?><svg fill="#000000" xmlns="http://www.w3.org/2000/svg" viewBox="0 0 24 24" width="100px" height="100px">    <path d="M 5 3 C 3.895 3 3 3.895 3 5 L 3 19 C 3 20.105 3.895 21 5 21 L 14 21 L 14 19 L 5 19 L 5 9 L 19 9 L 19 14 L 21 14 L 21 5 C 21 3.895 20.105 3 19 3 L 5 3 z M 5 5 L 19 5 L 19 7 L 5 7 L 5 5 z M 7 11 L 7 13 L 9 13 L 9 11 L 7 11 z M 11 11 L 11 13 L 17 13 L 17 11 L 11 11 z M 7 15 L 7 17 L 9 17 L 9 15 L 7 15 z M 11 15 L 11 17 L 17 17 L 17 15 L 11 15 z M 19 16 L 19 19 L 16 19 L 16 21 L 19 21 L 19 24 L 21 24 L 21 21 L 24 21 L 24 19 L 21 19 L 21 16 L 19 16 z"/></svg>