<svg xmlns="http://www.w3.org/2000/svg" viewBox="0 0 80 80" width="300px" height="300px"><path fill="#fff" d="M4.5 6.5H75.5V73.5H4.5z"/><path fill="#788b9c" d="M75,7v66H5V7H75 M76,6H4v68h72V6L76,6z"/><path fill="#788b9c" d="M4 6H76V18H4z"/><path fill="#8bb7f0" d="M26 33H62V34H26zM18 33H21V34H18zM26 41H62V42H26zM18 41H21V42H18zM26 49H62V50H26zM18 49H21V50H18zM26 57H62V58H26zM18 57H21V58H18z"/><path fill="#c8d1db" d="M44,74h32V45.7c-0.3-0.3-0.7-0.6-1-0.9V73H43.3C43.5,73.3,43.8,73.7,44,74z"/><path fill="#c2e8ff" d="M44.8 49c-.3.3-.5.7-.8 1h18v-1H44.8zM40.7 57c-.1.3-.2.7-.3 1H62v-1H40.7z"/><path fill="#bae0bd" d="M62,79.5c-9.6,0-17.5-7.9-17.5-17.5S52.4,44.5,62,44.5S79.5,52.4,79.5,62S71.6,79.5,62,79.5z"/><path fill="#5e9c76" d="M62,45c9.4,0,17,7.6,17,17s-7.6,17-17,17s-17-7.6-17-17S52.6,45,62,45 M62,44c-9.9,0-18,8.1-18,18 s8.1,18,18,18s18-8.1,18-18S71.9,44,62,44L62,44z"/><path fill="#fff" d="M60 52H64V72H60z"/><path fill="#fff" d="M52 60H72V64H52z"/></svg>