<?xml version="1.0"?><svg fill="#000000" xmlns="http://www.w3.org/2000/svg" viewBox="0 0 30 30" width="100px" height="100px">    <path d="M 15 3 C 13.895 3 13 3.895 13 5 L 13 5.2929688 C 10.109011 6.1538292 8 8.8293311 8 12 L 8 14.757812 C 8 17.474812 6.921 20.079 5 22 A 1 1 0 0 0 4 23 A 1 1 0 0 0 5 24 L 14.058594 24 C 14.021594 23.671 14 23.338 14 23 C 14 18.368 17.501 14.556594 22 14.058594 L 22 12 C 22 8.8293311 19.890989 6.1538292 17 5.2929688 L 17 5 C 17 3.895 16.105 3 15 3 z M 23 16 C 19.134 16 16 19.134 16 23 C 16 26.866 19.134 30 23 30 C 26.866 30 30 26.866 30 23 C 30 19.134 26.866 16 23 16 z M 23 19 C 23.552 19 24 19.447 24 20 L 24 22 L 26 22 C 26.552 22 27 22.447 27 23 C 27 23.553 26.552 24 26 24 L 24 24 L 24 26 C 24 26.553 23.552 27 23 27 C 22.448 27 22 26.553 22 26 L 22 24 L 20 24 C 19.448 24 19 23.553 19 23 C 19 22.447 19.448 22 20 22 L 22 22 L 22 20 C 22 19.447 22.448 19 23 19 z M 12 26 C 12 27.657 13.343 29 15 29 C 15.392 29 15.764422 28.920203 16.107422 28.783203 C 15.421422 27.967203 14.886437 27.025 14.523438 26 L 12 26 z"/></svg>