<?xml version="1.0"?><svg fill="#000000" xmlns="http://www.w3.org/2000/svg" viewBox="0 0 50 50" width="500px" height="500px">    <path d="M 37 4 C 34.596 4 32.336719 4.9367188 30.636719 6.6367188 L 25.636719 11.636719 C 24.191719 13.081719 23.2985 14.930688 23.0625 16.929688 C 23.0215 17.281688 23 17.64 23 18 C 23 19.368 23.313672 20.686766 23.888672 21.884766 L 25.414062 20.357422 C 25.147062 19.609422 25 18.817 25 18 C 25 16.13 25.728781 14.373781 27.050781 13.050781 L 32.050781 8.0507812 C 33.373781 6.7287812 35.13 6 37 6 C 38.87 6 40.626219 6.7287812 41.949219 8.0507812 C 43.272219 9.3727813 44 11.13 44 13 C 44 14.87 43.271219 16.626219 41.949219 17.949219 L 36.949219 22.949219 C 35.626219 24.271219 33.87 25 32 25 C 31.183 25 30.390578 24.852938 29.642578 24.585938 L 28.115234 26.111328 C 29.313234 26.686328 30.632 27 32 27 C 34.404 27 36.663281 26.063281 38.363281 24.363281 L 43.363281 19.363281 C 45.063281 17.663281 46 15.404 46 13 C 46 10.596 45.063281 8.3367187 43.363281 6.6367188 C 41.663281 4.9367187 39.404 4 37 4 z M 30.980469 17.990234 A 1.0001 1.0001 0 0 0 30.292969 18.292969 L 18.292969 30.292969 A 1.0001 1.0001 0 1 0 19.707031 31.707031 L 31.707031 19.707031 A 1.0001 1.0001 0 0 0 30.980469 17.990234 z M 18 23 C 15.596 23 13.336719 23.936719 11.636719 25.636719 L 6.6367188 30.636719 C 5.0727187 32.199719 4.1545781 34.236828 4.0175781 36.423828 C 4.0055781 36.614828 4 36.807 4 37 C 4 39.404 4.9367188 41.663281 6.6367188 43.363281 C 8.3367187 45.063281 10.596 46 13 46 C 15.404 46 17.663281 45.063281 19.363281 43.363281 L 24.363281 38.363281 C 26.063281 36.663281 27 34.404 27 32 C 27 30.632 26.686328 29.313234 26.111328 28.115234 L 24.585938 29.642578 C 24.852938 30.390578 25 31.183 25 32 C 25 33.87 24.271219 35.626219 22.949219 36.949219 L 17.949219 41.949219 C 16.626219 43.271219 14.87 44 13 44 C 11.13 44 9.3737813 43.271219 8.0507812 41.949219 C 6.7277812 40.627219 6 38.87 6 37 C 6 35.13 6.7287812 33.373781 8.0507812 32.050781 L 13.050781 27.050781 C 14.373781 25.728781 16.13 25 18 25 C 18.817 25 19.609422 25.147062 20.357422 25.414062 L 21.884766 23.888672 C 20.686766 23.313672 19.368 23 18 23 z M 40 30 C 34.488997 30 30 34.488997 30 40 C 30 45.511003 34.488997 50 40 50 C 45.511003 50 50 45.511003 50 40 C 50 34.488997 45.511003 30 40 30 z M 40 32 C 44.430123 32 48 35.569877 48 40 C 48 44.430123 44.430123 48 40 48 C 35.569877 48 32 44.430123 32 40 C 32 35.569877 35.569877 32 40 32 z M 39.984375 33.986328 A 1.0001 1.0001 0 0 0 39 35 L 39 39 L 35 39 A 1.0001 1.0001 0 1 0 35 41 L 39 41 L 39 45 A 1.0001 1.0001 0 1 0 41 45 L 41 41 L 45 41 A 1.0001 1.0001 0 1 0 45 39 L 41 39 L 41 35 A 1.0001 1.0001 0 0 0 39.984375 33.986328 z"/></svg>