<svg fill="#000000" xmlns="http://www.w3.org/2000/svg" viewBox="0 0 26 26" width="500px" height="500px"><path d="M 3 0 C 1.34375 0 0 1.34375 0 3 L 0 21 C 0 22.65625 1.34375 24 3 24 L 13.125 24 C 12.765625 23.382813 12.464844 22.710938 12.28125 22 L 3 22 C 2.449219 22 2 21.550781 2 21 L 2 4 L 22 4 L 22 12.28125 C 22.710938 12.464844 23.382813 12.765625 24 13.125 L 24 3 C 24 1.34375 22.65625 0 21 0 Z M 5 8 L 5 10 L 7 10 L 7 8 Z M 9 8 L 9 10 L 19 10 L 19 8 Z M 5 12 L 5 14 L 7 14 L 7 12 Z M 9 12 L 9 14 L 14.75 14 C 15.914063 12.980469 17.390625 12.296875 19 12.09375 L 19 12 Z M 20 14.03125 C 16.699219 14.03125 14.03125 16.699219 14.03125 20 C 14.03125 23.300781 16.699219 25.96875 20 25.96875 C 23.300781 25.96875 25.96875 23.300781 25.96875 20 C 25.96875 16.699219 23.300781 14.03125 20 14.03125 Z M 5 16 L 5 18 L 7 18 L 7 16 Z M 9 16 L 9 18 L 12.28125 18 C 12.464844 17.289063 12.765625 16.617188 13.125 16 Z M 19 17 L 21 17 L 21 19 L 23 19 L 23 21 L 21 21 L 21 23 L 19 23 L 19 21 L 17 21 L 17 19 L 19 19 Z"/></svg>