<?xml version="1.0"?><svg fill="#000000" xmlns="http://www.w3.org/2000/svg" viewBox="0 0 50 50" width="50px" height="50px">    <path d="M 11.5 3 C 10.837 3.009 10.115781 3.221125 9.4257812 3.703125 C 9.3607812 3.748125 2.9189531 8.4179687 3.0019531 11.042969 C 3.2429531 18.526969 10.52575 27.332344 16.59375 33.402344 C 22.66375 39.473344 31.469469 46.76 38.980469 47 L 39.029297 47 C 41.637297 47 46.243156 40.637266 46.285156 40.572266 C 46.802156 39.836266 47.014047 39.068047 46.998047 38.373047 C 46.978047 37.475047 46.579609 36.700391 45.974609 36.275391 C 45.290609 35.796391 37.908484 30.888703 37.021484 30.345703 C 36.626484 30.103703 36.146047 29.991047 35.623047 29.998047 C 34.982047 30.007047 34.274359 30.196313 33.568359 30.570312 C 32.847359 30.950312 30.635516 32.207875 29.603516 32.796875 C 28.694516 32.159875 26.473094 30.472094 22.996094 26.996094 C 19.519094 23.520094 17.833219 21.299578 17.199219 20.392578 C 17.789219 19.360578 19.048781 17.148734 19.425781 16.427734 C 19.799781 15.719734 19.989 15.012 20 14.375 C 20.009 13.841 19.894578 13.354984 19.642578 12.958984 C 19.108578 12.115984 14.224844 4.7109063 13.714844 4.0039062 C 13.267844 3.3859063 12.443 2.987 11.5 3 z M 37 4 C 32.029 4 28 8.029 28 13 C 28 17.971 32.029 22 37 22 C 41.971 22 46 17.971 46 13 C 46 8.029 41.971 4 37 4 z M 37 7 C 37.552 7 38 7.447 38 8 L 38 12 L 42 12 C 42.552 12 43 12.447 43 13 C 43 13.553 42.552 14 42 14 L 38 14 L 38 18 C 38 18.553 37.552 19 37 19 C 36.448 19 36 18.553 36 18 L 36 14 L 32 14 C 31.448 14 31 13.553 31 13 C 31 12.447 31.448 12 32 12 L 36 12 L 36 8 C 36 7.447 36.448 7 37 7 z"/></svg>