<?xml version="1.0"?><svg fill="#000000" xmlns="http://www.w3.org/2000/svg" viewBox="0 0 80 80" width="500px" height="500px">    <path d="M 56 9 C 47.727573 9 41 15.727573 41 24 C 41 32.272427 47.727573 39 56 39 C 64.272427 39 71 32.272427 71 24 C 71 15.727573 64.272427 9 56 9 z M 21.164062 9.0058594 C 19.482267 9.0058594 17.80095 9.6463151 16.523438 10.923828 L 14.222656 13.222656 C 13.433439 14.011197 12.8482 15.179368 12.255859 16.5625 C 11.663519 17.945632 11.11328 19.529677 10.636719 21.037109 C 9.6835959 24.051975 9.0273438 26.765625 9.0273438 26.765625 L 8.9570312 27.0625 L 9.0625 27.347656 C 9.0625 27.347656 14.350655 41.635811 26.357422 53.642578 C 38.364189 65.649345 52.652344 70.9375 52.652344 70.9375 L 52.9375 71.042969 L 53.234375 70.972656 C 53.234375 70.972656 55.947929 70.316268 58.962891 69.363281 C 60.470372 68.886788 62.054263 68.336318 63.4375 67.744141 C 64.820737 67.151963 65.98861 66.566078 66.777344 65.777344 L 69.078125 63.478516 C 71.633151 60.923489 71.633151 56.750339 69.078125 54.195312 L 61.8125 46.929688 C 59.477525 44.594712 55.661147 44.594712 53.326172 46.929688 L 45.587891 54.667969 C 44.694307 54.242389 38.668115 51.322412 33.673828 46.328125 C 28.678202 41.332499 25.756238 35.302913 25.332031 34.412109 L 33.070312 26.673828 C 35.405288 24.338853 35.405288 20.524428 33.070312 18.189453 L 25.804688 10.923828 C 24.527173 9.6463151 22.845859 9.0058594 21.164062 9.0058594 z M 21.164062 10.994141 C 22.329767 10.994141 23.495138 11.442404 24.390625 12.337891 L 31.65625 19.603516 C 33.227275 21.17454 33.227275 23.688741 31.65625 25.259766 L 22.898438 34.017578 L 23.189453 34.650391 C 23.189453 34.650391 26.552391 42.034813 32.259766 47.742188 C 37.96714 53.449562 45.351563 56.8125 45.351562 56.8125 L 45.984375 57.101562 L 54.740234 48.34375 C 56.311259 46.772725 58.827413 46.772725 60.398438 48.34375 L 67.664062 55.609375 C 69.344278 57.289589 69.427473 59.910966 67.955078 61.708984 A 1 1 0 0 0 67 61 A 1 1 0 0 0 66 62 A 1 1 0 0 0 66.757812 62.96875 L 65.363281 64.363281 C 64.986015 64.740547 63.936592 65.355615 62.650391 65.90625 C 61.36419 66.456885 59.828144 66.992774 58.359375 67.457031 C 55.578778 68.335938 53.326783 68.879289 53.064453 68.943359 C 52.267455 68.64043 39.074758 63.531789 27.771484 52.228516 C 16.468211 40.925242 11.35957 27.732545 11.056641 26.935547 C 11.120711 26.673219 11.663954 24.421076 12.542969 21.640625 C 13.007283 20.171933 13.542997 18.635633 14.09375 17.349609 C 14.644503 16.063585 15.259436 15.013678 15.636719 14.636719 L 17.03125 13.244141 A 1 1 0 0 0 18 14 A 1 1 0 0 0 19 13 A 1 1 0 0 0 18.294922 12.044922 C 19.134138 11.358317 20.143404 10.994141 21.164062 10.994141 z M 56 11 C 63.191546 11 69 16.808454 69 24 C 69 31.191546 63.191546 37 56 37 C 48.808454 37 43 31.191546 43 24 C 43 16.808454 48.808454 11 56 11 z M 21 15 A 1 1 0 0 0 20 16 A 1 1 0 0 0 21 17 A 1 1 0 0 0 22 16 A 1 1 0 0 0 21 15 z M 55 17 L 55 23 L 49 23 L 49 25 L 55 25 L 55 31 L 57 31 L 57 25 L 63 25 L 63 23 L 57 23 L 57 17 L 55 17 z M 24 18 A 1 1 0 0 0 23 19 A 1 1 0 0 0 24 20 A 1 1 0 0 0 25 19 A 1 1 0 0 0 24 18 z M 27 21 A 1 1 0 0 0 26 22 A 1 1 0 0 0 27 23 A 1 1 0 0 0 28 22 A 1 1 0 0 0 27 21 z M 30 24 A 1 1 0 0 0 29 25 A 1 1 0 0 0 30 26 A 1 1 0 0 0 31 25 A 1 1 0 0 0 30 24 z M 55 49 A 1 1 0 0 0 54 50 A 1 1 0 0 0 55 51 A 1 1 0 0 0 56 50 A 1 1 0 0 0 55 49 z M 58 52 A 1 1 0 0 0 57 53 A 1 1 0 0 0 58 54 A 1 1 0 0 0 59 53 A 1 1 0 0 0 58 52 z M 61 55 A 1 1 0 0 0 60 56 A 1 1 0 0 0 61 57 A 1 1 0 0 0 62 56 A 1 1 0 0 0 61 55 z M 64 58 A 1 1 0 0 0 63 59 A 1 1 0 0 0 64 60 A 1 1 0 0 0 65 59 A 1 1 0 0 0 64 58 z"/></svg>