<svg fill="#000000" xmlns="http://www.w3.org/2000/svg" viewBox="0 0 80 80" width="500px" height="500px"><path d="M 29 11 C 22.936712 11 18 15.936712 18 22 C 18 27.726504 22.40475 32.442366 28.001953 32.949219 A 1 1 0 0 0 28 33 A 1 1 0 0 0 29 34 A 1 1 0 0 0 30 33 A 1 1 0 0 0 29.996094 32.949219 C 35.594213 32.443276 40 27.727162 40 22 C 40 15.936712 35.063288 11 29 11 z M 29 13 C 33.982407 13 38 17.017593 38 22 C 38 26.982407 33.982407 31 29 31 C 24.017593 31 20 26.982407 20 22 C 20 17.017593 24.017593 13 29 13 z M 28 17 L 28 21 L 24 21 L 24 23 L 28 23 L 28 27 L 30 27 L 30 23 L 34 23 L 34 21 L 30 21 L 30 17 L 28 17 z M 29 36 A 1 1 0 0 0 28 37 A 1 1 0 0 0 29 38 A 1 1 0 0 0 30 37 A 1 1 0 0 0 29 36 z M 52 36 L 52 37 L 52 46 L 62 46 L 62 36 L 52 36 z M 54 38 L 60 38 L 60 44 L 54 44 L 54 38 z M 29 40 A 1 1 0 0 0 28 41 A 1 1 0 0 0 29 42 A 1 1 0 0 0 30 41 A 1 1 0 0 0 29 40 z M 33 40 A 1 1 0 0 0 32 41 A 1 1 0 0 0 33 42 A 1 1 0 0 0 34 41 A 1 1 0 0 0 33 40 z M 37 40 A 1 1 0 0 0 36 41 A 1 1 0 0 0 37 42 A 1 1 0 0 0 38 41 A 1 1 0 0 0 37 40 z M 41 40 A 1 1 0 0 0 40 41 A 1 1 0 0 0 41 42 A 1 1 0 0 0 42 41 A 1 1 0 0 0 41 40 z M 45 40 A 1 1 0 0 0 44 41 A 1 1 0 0 0 45 42 A 1 1 0 0 0 46 41 A 1 1 0 0 0 45 40 z M 49 40 A 1 1 0 0 0 48 41 A 1 1 0 0 0 49 42 A 1 1 0 0 0 50 41 A 1 1 0 0 0 49 40 z M 29 44 A 1 1 0 0 0 28 45 A 1 1 0 0 0 29 46 A 1 1 0 0 0 30 45 A 1 1 0 0 0 29 44 z M 29 48 A 1 1 0 0 0 28 49 A 1 1 0 0 0 29 50 A 1 1 0 0 0 30 49 A 1 1 0 0 0 29 48 z M 52 48 L 52 49 L 52 58 L 62 58 L 62 48 L 52 48 z M 54 50 L 60 50 L 60 56 L 54 56 L 54 50 z M 29 52 A 1 1 0 0 0 28 53 A 1 1 0 0 0 29 54 A 1 1 0 0 0 30 53 A 1 1 0 0 0 29 52 z M 33 52 A 1 1 0 0 0 32 53 A 1 1 0 0 0 33 54 A 1 1 0 0 0 34 53 A 1 1 0 0 0 33 52 z M 37 52 A 1 1 0 0 0 36 53 A 1 1 0 0 0 37 54 A 1 1 0 0 0 38 53 A 1 1 0 0 0 37 52 z M 41 52 A 1 1 0 0 0 40 53 A 1 1 0 0 0 41 54 A 1 1 0 0 0 42 53 A 1 1 0 0 0 41 52 z M 45 52 A 1 1 0 0 0 44 53 A 1 1 0 0 0 45 54 A 1 1 0 0 0 46 53 A 1 1 0 0 0 45 52 z M 49 52 A 1 1 0 0 0 48 53 A 1 1 0 0 0 49 54 A 1 1 0 0 0 50 53 A 1 1 0 0 0 49 52 z M 29 56 A 1 1 0 0 0 28 57 A 1 1 0 0 0 29 58 A 1 1 0 0 0 30 57 A 1 1 0 0 0 29 56 z M 29 60 A 1 1 0 0 0 28 61 A 1 1 0 0 0 29 62 A 1 1 0 0 0 30 61 A 1 1 0 0 0 29 60 z M 52 60 L 52 61 L 52 70 L 62 70 L 62 60 L 52 60 z M 54 62 L 60 62 L 60 68 L 54 68 L 54 62 z M 29 64 A 1 1 0 0 0 28 65 A 1 1 0 0 0 29 66 A 1 1 0 0 0 30 65 A 1 1 0 0 0 29 64 z M 33 64 A 1 1 0 0 0 32 65 A 1 1 0 0 0 33 66 A 1 1 0 0 0 34 65 A 1 1 0 0 0 33 64 z M 37 64 A 1 1 0 0 0 36 65 A 1 1 0 0 0 37 66 A 1 1 0 0 0 38 65 A 1 1 0 0 0 37 64 z M 41 64 A 1 1 0 0 0 40 65 A 1 1 0 0 0 41 66 A 1 1 0 0 0 42 65 A 1 1 0 0 0 41 64 z M 45 64 A 1 1 0 0 0 44 65 A 1 1 0 0 0 45 66 A 1 1 0 0 0 46 65 A 1 1 0 0 0 45 64 z M 49 64 A 1 1 0 0 0 48 65 A 1 1 0 0 0 49 66 A 1 1 0 0 0 50 65 A 1 1 0 0 0 49 64 z"/></svg>