<svg xmlns="http://www.w3.org/2000/svg" viewBox="0 0 64 64" width="100px" height="100px"><path fill="#c2cde7" d="M28 47A6 6 0 1 0 28 59A6 6 0 1 0 28 47Z"/><path fill="#f9e3ae" d="M52.874,52.09c-0.088,0.163-0.351,0.544-0.908,0.544L4.034,52.634c-0.557,0-0.82-0.38-0.908-0.544 c-0.088-0.164-0.258-0.595,0.051-1.058l4.426-6.64l1.183-2.06c0.482-1.051,0.82-2.169,0.964-3.316l2.24-17.919 c0.836-6.688,6.549-11.731,13.289-11.731h5.442c6.74,0,12.453,5.043,13.289,11.731l2.24,17.919c0.217,1.737,0.846,3.425,1.816,4.88 l4.757,7.135C53.132,51.495,52.961,51.926,52.874,52.09z"/><path fill="#faefde" d="M40.827,14c-2.472-2.846-6.103-4.634-10.106-4.634h-5.442c-4.003,0-7.634,1.788-10.106,4.634H40.827z"/><path fill="#f6d397" d="M51.159,53H4.841c-1.618,0-2.566-1.821-1.638-3.147L8,43h40l4.797,6.853 C53.725,51.179,52.777,53,51.159,53z"/><path fill="#72caaf" d="M49 37A12 12 0 1 0 49 61A12 12 0 1 0 49 37Z"/><path fill="#8d6c9f" d="M37.602 22.086C37.646 22.607 38.083 23 38.597 23c.028 0 .058-.001.087-.004.55-.047.958-.532.91-1.082-.095-1.102-.371-2.167-.822-3.169-.228-.503-.816-.73-1.323-.501-.503.227-.728.819-.501 1.322C37.306 20.362 37.525 21.209 37.602 22.086zM36.094 15.237C34.349 13.794 32.141 13 29.877 13c-.553 0-1 .448-1 1s.447 1 1 1c1.8 0 3.555.632 4.941 1.778.187.154.413.229.637.229.288 0 .574-.124.771-.363C36.579 16.219 36.519 15.589 36.094 15.237zM13 46c-.553 0-1 .448-1 1v2c0 .552.447 1 1 1s1-.448 1-1v-2C14 46.448 13.553 46 13 46zM8 46c-.553 0-1 .448-1 1v2c0 .552.447 1 1 1s1-.448 1-1v-2C9 46.448 8.553 46 8 46zM18 46c-.553 0-1 .448-1 1v2c0 .552.447 1 1 1s1-.448 1-1v-2C19 46.448 18.553 46 18 46zM23 46c-.553 0-1 .448-1 1v2c0 .552.447 1 1 1s1-.448 1-1v-2C24 46.448 23.553 46 23 46zM28 46c-.553 0-1 .448-1 1v2c0 .552.447 1 1 1s1-.448 1-1v-2C29 46.448 28.553 46 28 46zM33 46c-.553 0-1 .448-1 1v2c0 .552.447 1 1 1s1-.448 1-1v-2C34 46.448 33.553 46 33 46z"/><path fill="#8d6c9f" d="M49,36c-0.54,0-1.07,0.03-1.6,0.1l-1.87-14.96c-0.806-6.419-5.625-11.474-11.738-12.792l-1.345-2.69 C31.936,4.635,30.907,4,29.764,4h-3.527c-1.144,0-2.172,0.635-2.684,1.658l-1.345,2.69C16.095,9.666,11.276,14.721,10.47,21.14 L8.3,38.53c-0.17,1.38-0.67,2.72-1.44,3.88l-4.62,6.93c-0.61,0.92-0.67,2.1-0.15,3.08C2.61,53.39,3.63,54,4.74,54h16.34 c0.488,3.387,3.401,6,6.92,6s6.432-2.613,6.92-6H37c1.96,4.69,6.6,8,12,8c7.17,0,13-5.83,13-13C62,41.83,56.17,36,49,36z M25.342,6.553C25.513,6.212,25.855,6,26.236,6h3.527c0.381,0,0.724,0.212,0.895,0.553L31.4,8.035C31.147,8.023,30.896,8,30.64,8 h-5.28c-0.256,0-0.507,0.023-0.76,0.035L25.342,6.553z M28,58c-2.414,0-4.434-1.721-4.899-4h9.798C32.434,56.279,30.414,58,28,58z M4.74,52c-0.54,0-0.8-0.37-0.88-0.53c-0.09-0.16-0.25-0.57,0.05-1.02L8.201,44h25.966c0.553,0,1-0.448,1-1s-0.447-1-1-1H9.348 c0.47-1.021,0.803-2.104,0.942-3.22l2.17-17.39C13.27,14.9,18.82,10,25.36,10h5.28c6.54,0,12.09,4.9,12.9,11.39l1.89,15.12 C39.99,38.06,36,43.07,36,49c0,1.03,0.12,2.04,0.35,3H4.74z M49,60c-4.27,0-7.98-2.44-9.8-6c-0.32-0.63-0.59-1.3-0.78-2 C38.14,51.05,38,50.04,38,49c0-4.91,3.23-9.08,7.68-10.49c0.63-0.2,1.29-0.34,1.96-0.42C48.09,38.03,48.54,38,49,38 c6.07,0,11,4.93,11,11S55.07,60,49,60z"/><path fill="#f9efde" d="M55,48h-5v-5c0-0.552-0.447-1-1-1s-1,0.448-1,1v5h-5c-0.553,0-1,0.448-1,1s0.447,1,1,1h5v5 c0,0.552,0.447,1,1,1s1-0.448,1-1v-5h5c0.553,0,1-0.448,1-1S55.553,48,55,48z"/></svg>