<svg xmlns="http://www.w3.org/2000/svg" viewBox="0 0 100 100" width="300px" height="300px"><path fill="#eddc67" d="M50,86c-4.963,0-9-4.038-9-9h18C59,81.962,54.963,86,50,86z M54.388,18 c-0.455-2.004-2.247-3.5-4.388-3.5s-3.934,1.496-4.388,3.5"/><path fill="#f9e65c" d="M79,67l-3.526-28.795C74.062,26.669,64.266,18,52.645,18h-5.289 c-11.621,0-21.417,8.669-22.829,20.205L21,67c-2.761,0-5,2.239-5,5s2.239,5,5,5h58c2.761,0,5-2.239,5-5S81.761,67,79,67z"/><path fill="#1f212b" d="M15,72c0,3.309,2.691,6,6,6h20.059c0.499,4.493,4.316,8,8.941,8s8.442-3.507,8.941-8H79 c3.309,0,6-2.691,6-6c0-3.005-2.221-5.501-5.107-5.934l-3.428-27.983c-1.389-11.358-10.614-20.066-21.843-20.991 C53.865,15.237,52.067,14,50,14s-3.865,1.237-4.623,3.092c-11.229,0.925-20.453,9.633-21.843,20.991l-3.428,27.983 C17.221,66.499,15,68.995,15,72z M53.477,17.039C53.199,17.029,52.925,17,52.644,17h-5.289c-0.28,0-0.554,0.029-0.833,0.039 C47.214,15.803,48.516,15,50,15S52.786,15.803,53.477,17.039z M42.07,78h15.861c-0.495,3.94-3.859,7-7.931,7 S42.564,81.94,42.07,78z M17,72c0-2.206,1.794-4,4-4c0.505,0,0.932-0.377,0.993-0.879l3.526-28.795 C26.869,27.309,36.256,19,47.356,19h5.289c11.099,0,20.487,8.309,21.837,19.326L77.993,67H35.5c-0.276,0-0.5,0.224-0.5,0.5 s0.224,0.5,0.5,0.5H79c2.206,0,4,1.794,4,4s-1.794,4-4,4H21C18.794,76,17,74.206,17,72z M24,67.5c0,0.276,0.224,0.5,0.5,0.5h2 c0.276,0,0.5-0.224,0.5-0.5S26.776,67,26.5,67h-2C24.224,67,24,67.224,24,67.5z M28,67.5c0,0.276,0.224,0.5,0.5,0.5h4 c0.276,0,0.5-0.224,0.5-0.5S32.776,67,32.5,67h-4C28.224,67,28,67.224,28,67.5z"/><circle cx="77.5" cy="77.5" r="14.5" fill="#60be92"/><path fill="#1f212b" d="M85.5,78H69.593c-0.276,0-0.5-0.224-0.5-0.5s0.224-0.5,0.5-0.5H85.5c0.276,0,0.5,0.224,0.5,0.5 S85.776,78,85.5,78z"/><path fill="#1f212b" d="M77.5,86c-0.276,0-0.5-0.224-0.5-0.5v-16c0-0.276,0.224-0.5,0.5-0.5s0.5,0.224,0.5,0.5v16 C78,85.776,77.776,86,77.5,86z"/><path fill="#1f212b" d="M77.5,93C68.953,93,62,86.047,62,77.5S68.953,62,77.5,62S93,68.953,93,77.5S86.047,93,77.5,93z M77.5,64C70.056,64,64,70.056,64,77.5S70.056,91,77.5,91S91,84.944,91,77.5S84.944,64,77.5,64z"/></svg>