<?xml version="1.0"?><svg fill="#000000" xmlns="http://www.w3.org/2000/svg" viewBox="0 0 24 24" width="100px" height="100px">    <path d="M 8 0 C 7.448 0 7 0.448 7 1 L 7 2 L 6 2 C 5.448 2 5 2.448 5 3 C 5 3.552 5.448 4 6 4 L 7 4 L 7 5 C 7 5.552 7.448 6 8 6 C 8.552 6 9 5.552 9 5 L 9 4 L 10 4 C 10.552 4 11 3.552 11 3 C 11 2.448 10.552 2 10 2 L 9 2 L 9 1 C 9 0.448 8.552 0 8 0 z M 7.984375 6.9863281 A 1.0001 1.0001 0 0 0 7 8 L 7 9.8320312 A 1.0001 1.0001 0 0 0 7 10.158203 L 7 15.832031 A 1.0001 1.0001 0 0 0 7 16.158203 L 7 22 A 1.0001 1.0001 0 0 0 8 23 L 14 23 C 14 23.552 14.448 24 15 24 L 17 24 C 17.552 24 18 23.552 18 23 L 18 21 C 18 20.448 17.552 20 17 20 L 15 20 C 14.448 20 14 20.448 14 21 L 9 21 L 9 17 L 14 17 C 14 17.552 14.448 18 15 18 L 17 18 C 17.552 18 18 17.552 18 17 L 18 15 C 18 14.448 17.552 14 17 14 L 15 14 C 14.448 14 14 14.448 14 15 L 9 15 L 9 11 L 14 11 C 14 11.552 14.448 12 15 12 L 17 12 C 17.552 12 18 11.552 18 11 L 18 9 C 18 8.448 17.552 8 17 8 L 15 8 C 14.448 8 14 8.448 14 9 L 9 9 L 9 8 A 1.0001 1.0001 0 0 0 7.984375 6.9863281 z"/></svg>